<?xml version="1.0" encoding="UTF-8" standalone="no"?>
<!DOCTYPE svg PUBLIC "-//W3C//DTD SVG 1.1//EN" "http://www.w3.org/Graphics/SVG/1.1/DTD/svg11.dtd">
<!-- Generated by Microsoft Visio, SVG Export Activity.svg Page-1 -->
<svg xmlns="http://www.w3.org/2000/svg" xmlns:xlink="http://www.w3.org/1999/xlink" xmlns:ev="http://www.w3.org/2001/xml-events"
		width="1.00504in" height="1.44739in" viewBox="0 0 72.3632 104.212" xml:space="preserve" color-interpolation-filters="sRGB"
		class="st7">
	<style type="text/css">
	<![CDATA[
		.st1 {fill:#ffffff;stroke:none;stroke-linecap:butt;stroke-width:7.67604}
		.st2 {fill:#3999c6;stroke:none;stroke-linecap:butt;stroke-width:7.67604}
		.st3 {fill:#a0a1a2;stroke:none;stroke-linecap:butt;stroke-width:7.67604}
		.st4 {fill:#59b4d9;stroke:none;stroke-linecap:butt;stroke-width:7.67604}
		.st5 {fill:#7a7a7a;stroke:none;stroke-linecap:butt;stroke-width:7.67604}
		.st6 {fill:#000000;stroke:none;stroke-linecap:butt;stroke-width:7.67604}
		.st7 {fill:none;fill-rule:evenodd;font-size:12px;overflow:visible;stroke-linecap:square;stroke-miterlimit:3}
	]]>
	</style>

	<g>
		<title>Page-1</title>
		<g id="group4518-1" transform="translate(7.83454,-39.685)">
			<title>Activity</title>
			<g id="group4519-2">
				<title>Page-1</title>
				<g id="group4520-3">
					<title>Activity</title>
					<g id="group4521-4" transform="translate(4.82304,-4.65209)">
						<title>path7</title>
						<g id="shape4522-5">
							<title>path10</title>
							<path d="M21.05 56.95 A23.5588 23.3248 -180 0 0 5.14 65.51 A23.5702 23.3361 -180 0 0 0 82.7 A23.5656
										 23.3316 -180 0 0 8.65 98.44 C13.36 102.22 19.5 104.21 26 103.53 C32.5 102.85 38.09 99.63
										 41.91 94.97 C45.72 90.31 47.73 84.23 47.04 77.79 C46.36 71.3 43.03 65.74 38.24 61.91 C34.22
										 58.68 29.08 56.81 23.58 56.81 C22.75 56.81 21.9 56.86 21.05 56.95 Z" class="st1"/>
						</g>
					</g>
					<g id="group4523-7" transform="translate(16.3368,-2.84217E-13)">
						<title>path9</title>
						<g id="shape4524-8">
							<title>path15</title>
							<path d="M40.36 72.63 C39.53 64.8 35.49 58.09 29.78 53.52 C28.67 52.64 27.48 51.86 26.25 51.15 L24.01
										 55.42 A22.5987 22.3743 0 0 1 26.72 57.26 C31.52 61.09 34.84 66.64 35.53 73.13 C36.22 79.57
										 34.21 85.66 30.4 90.32 C26.58 94.99 20.99 98.2 14.49 98.87 C10.13 99.33 5.95 98.57 2.23
										 96.89 L0 101.15 C4.53 103.24 9.67 104.21 15 103.65 A28.4069 28.1248 -180 0 0 34.16 93.34
										 A28.4001 28.118 -180 0 0 40.36 72.63 Z" class="st2"/>
						</g>
					</g>
					<g id="group4525-10" transform="translate(2.8777E-13,-3.05813)">
						<title>path11</title>
						<g id="shape4526-11">
							<title>path20</title>
							<path d="M13.46 96.85 A23.561 23.327 0 0 1 4.83 81.1 A23.561 23.327 0 0 1 9.96 63.91 A23.5519 23.318
										 0 0 1 25.87 55.36 C31.13 54.8 36.15 56 40.35 58.47 L42.58 54.21 A28.3191 28.0379 -180 0
										 0 25.36 50.58 A28.4411 28.1586 -180 0 0 6.19 60.88 L6.18 60.9 A28.4366 28.1542 -180 0 0
										 -0 81.6 A28.4308 28.1485 -180 0 0 10.42 100.58 C12.22 102.03 14.22 103.23 16.34 104.21 L18.57
										 99.95 A23.7321 23.4964 0 0 1 13.46 96.85 Z" class="st3"/>
						</g>
					</g>
					<g id="group4527-13" transform="translate(2.8777E-13,-3.05813)">
						<title>path13</title>
						<g id="shape4528-14">
							<title>path25</title>
							<path d="M13.46 96.85 A23.561 23.327 0 0 1 4.83 81.1 A23.561 23.327 0 0 1 9.96 63.91 A23.5519 23.318
										 0 0 1 25.87 55.36 C31.13 54.8 36.15 56 40.35 58.47 L42.58 54.21 A28.3191 28.0379 -180 0
										 0 25.36 50.58 A28.4411 28.1586 -180 0 0 6.19 60.88 L6.18 60.9 A28.4366 28.1542 -180 0 0
										 -0 81.6 A28.4308 28.1485 -180 0 0 10.42 100.58 C12.22 102.03 14.22 103.23 16.34 104.21 L18.57
										 99.95 A23.7321 23.4964 0 0 1 13.46 96.85 Z" class="st4"/>
						</g>
					</g>
					<g id="group4529-16" transform="translate(27.9395,-21.2217)">
						<title>path15</title>
						<g id="shape4530-17">
							<title>path30</title>
							<path d="M12.38 104.21 L1.43 100.35 A2.28039 2.25774 0 1 1 2.96 96.1 L13.91 99.96 A2.28039 2.25774 0
										 1 1 12.38 104.21 Z" class="st5"/>
						</g>
					</g>
					<g id="group4531-19" transform="translate(25.8392,-25.4945)">
						<title>path17</title>
						<g id="shape4532-20">
							<title>path35</title>
							<path d="M2.28 104.21 A2.28039 2.25774 0 0 1 0 101.95 L0 82.74 A2.28073 2.25808 0 1 1 4.56 82.74 L4.56
										 101.95 A2.28039 2.25774 0 0 1 2.28 104.21 Z" class="st5"/>
						</g>
					</g>
					<g id="group4533-22" transform="translate(24.7891,-24.4585)">
						<title>circle19</title>
						<g id="shape4534-23">
							<title>ellipse40</title>
							<ellipse cx="3.33052" cy="100.914" rx="3.33052" ry="3.29744" class="st6"/>
						</g>
					</g>
					<g id="group4535-25" transform="translate(13.4155,-14.1809)">
						<title>path21</title>
						<g id="shape4536-26">
							<title>path45</title>
							<path d="M0.93 74.98 L3.79 77.81 L2.87 78.73 L0 75.89 L0.93 74.98 ZM14.27 69.54 L15.57 69.54 L15.57 73.56
										 L14.27 73.56 L14.27 69.54 ZM28.78 75.11 L29.71 76.02 L26.84 78.86 L25.92 77.94 L28.78 75.11
										 ZM30.96 89.1 L35.01 89.1 L35.01 90.4 L30.96 90.4 L30.96 89.1 ZM26.65 100.46 L29.52 103.29
										 L28.6 104.21 L25.73 101.37 L26.65 100.46 Z" class="st5"/>
						</g>
					</g>
					<g id="group4537-28" transform="translate(13.4155,-8.81087)">
						<title>path23</title>
						<g id="shape4538-29">
							<title>path50</title>
							<path d="M26.65 95.08 L29.52 97.92 L28.6 98.84 L25.73 96 L26.65 95.08 ZM14.27 100.19 L15.57 100.19 L15.57
										 104.21 L14.27 104.21 L14.27 100.19 ZM0.93 69.61 L3.79 72.45 L2.87 73.36 L0 70.53 L0.93 69.61
										 ZM3.07 95.21 L3.99 96.11 L1.12 98.95 L0.2 98.04 L3.07 95.21 Z" class="st5"/>
						</g>
					</g>
					<g id="group4539-31" transform="translate(7.99508,-14.0624)">
						<title>path25</title>
						<g id="shape4540-32">
							<title>path55</title>
							<path d="M8.49 100.46 L9.41 101.37 L6.55 104.21 L5.62 103.29 L8.49 100.46 ZM0 88.99 L4.06 88.99 L4.06
										 90.28 L0 90.28 L0 88.99 Z" class="st5"/>
						</g>
					</g>
				</g>
			</g>
		</g>
	</g>
</svg>
