<?xml version="1.0" encoding="UTF-8" standalone="no"?>
<!DOCTYPE svg PUBLIC "-//W3C//DTD SVG 1.1//EN" "http://www.w3.org/Graphics/SVG/1.1/DTD/svg11.dtd">
<!-- Generated by Microsoft Visio, SVG Export Azure LightHouse My Request.svg Page-1 -->
<svg xmlns="http://www.w3.org/2000/svg" xmlns:xlink="http://www.w3.org/1999/xlink" xmlns:ev="http://www.w3.org/2001/xml-events"
		width="1.00929in" height="1.50858in" viewBox="0 0 72.669 108.618" xml:space="preserve" color-interpolation-filters="sRGB"
		class="st9">
	<style type="text/css">
	<![CDATA[
		.st1 {fill:#ff8c00;stroke:none;stroke-linecap:butt;stroke-width:12.24}
		.st2 {fill:#000000;fill-opacity:0.4;stroke:none;stroke-linecap:butt;stroke-width:12.24}
		.st3 {fill:#ffffff;stroke:none;stroke-linecap:butt;stroke-width:12.24}
		.st4 {fill:#a0a1a2;stroke:none;stroke-linecap:butt;stroke-width:12.24}
		.st5 {fill:#ffffff;fill-opacity:0.2;stroke:none;stroke-linecap:butt;stroke-width:12.24}
		.st6 {fill:#59b4d9;stroke:none;stroke-linecap:butt;stroke-width:12.24}
		.st7 {fill:#ffffff;fill-opacity:0.4;stroke:none;stroke-linecap:butt;stroke-width:12.24}
		.st8 {fill:#3999c6;stroke:none;stroke-linecap:butt;stroke-width:12.24}
		.st9 {fill:none;fill-rule:evenodd;font-size:12px;overflow:visible;stroke-linecap:square;stroke-miterlimit:3}
	]]>
	</style>

	<g>
		<title>Page-1</title>
		<g id="group3838-1" transform="translate(12.24,-39.685)">
			<title>Azure LightHouse My Request</title>
			<g id="group3839-2">
				<title>g24</title>
				<g id="shape3840-3" transform="translate(0,-8.26772)">
					<title>path4</title>
					<path d="M34.99 108.62 L1.72 108.62 A1.72103 1.77165 0 0 1 0 106.85 L0 65.51 A1.72103 1.77165 0 0 1 1.72 63.74
								 L34.99 63.74 A1.72103 1.77165 0 0 1 36.72 65.51 L36.72 106.85 A1.72103 1.77165 0 0 1 34.99 108.62
								 Z" class="st1"/>
				</g>
				<g id="shape3841-5" transform="translate(0,-8.26772)">
					<title>path6</title>
					<path d="M34.99 108.62 L1.72 108.62 A1.72103 1.77165 0 0 1 0 106.85 L0 65.51 A1.72103 1.77165 0 0 1 1.72 63.74
								 L34.99 63.74 A1.72103 1.77165 0 0 1 36.72 65.51 L36.72 106.85 A1.72103 1.77165 0 0 1 34.99 108.62
								 Z" class="st2"/>
				</g>
				<g id="shape3842-7" transform="translate(3.44207,-11.811)">
					<title>path8</title>
					<rect x="0" y="70.8227" width="29.8313" height="37.7953" class="st3"/>
				</g>
				<g id="shape3843-9" transform="translate(9.17885,-47.2441)">
					<title>path10</title>
					<path d="M18.36 108.62 L0 108.62 L0 102.95 A3.67154 3.77953 0 0 1 3.67 99.17 L14.69 99.17 A3.67154 3.77953 0
								 0 1 18.36 102.95 L18.36 108.62 Z" class="st4"/>
				</g>
				<g id="shape3844-11" transform="translate(9.17885,-47.2441)">
					<title>path12</title>
					<path d="M9.18 99.17 L3.67 99.17 A3.67154 3.77953 -180 0 0 0 102.95 L0 108.62 L9.18 108.62 L9.18 99.17 Z"
							class="st5"/>
				</g>
				<g id="shape3845-13" transform="translate(16.063,-18.8976)">
					<title>path14</title>
					<path d="M0 87.36 L12.62 87.36 L12.62 89.72 L0 89.72 L0 87.36 ZM0 96.81 L12.62 96.81 L12.62 99.17 L0 99.17 L0
								 96.81 ZM0 106.26 L12.62 106.26 L12.62 108.62 L0 108.62 L0 106.26 Z" class="st6"/>
				</g>
				<g id="shape3846-15" transform="translate(26.3892,-8.26772)">
					<title>path16</title>
					<path d="M5.74 99.17 L0 99.17 L0 108.62 L8.61 108.62 A1.72103 1.77165 -180 0 0 10.33 106.85 L10.33 96.57 C7.77
								 96.02 5.85 93.69 5.85 90.9 C5.85 88.11 7.77 85.78 10.33 85.24 L10.33 82.85 C6.5 83.42 3.56 86.81
								 3.56 90.9 C3.56 93.23 4.51 95.32 6.03 96.81 L5.74 96.81 L5.74 99.17 Z" class="st7"/>
				</g>
				<g id="shape3847-17" transform="translate(27.5366,-2.84217E-13)">
					<title>path18</title>
					<path d="M17.1 82.63 A6.76998 6.96909 0 1 1 3.56 82.63 A6.76998 6.96909 0 0 1 17.1 82.63 ZM14.55 92.08 L10.33
								 98.79 L6.1 92.08 L0 92.08 L0 108.62 L20.65 108.62 L20.65 92.08 L14.55 92.08 Z" class="st8"/>
				</g>
				<g id="shape3848-19" transform="translate(6.88414,-16.5354)">
					<title>path20</title>
					<path d="M0 83.81 L5.74 83.81 L5.74 89.72 L0 89.72 L0 83.81 ZM0 93.26 L5.74 93.26 L5.74 99.17 L0 99.17 L0 93.26
								 ZM0 102.71 L5.74 102.71 L5.74 108.62 L0 108.62 L0 102.71 Z" class="st6"/>
				</g>
				<g id="shape3849-21" transform="translate(8.31834,-18.0118)">
					<title>path22</title>
					<path d="M0 86.77 L2.87 86.77 L2.87 89.72 L0 89.72 L0 86.77 ZM0 96.22 L2.87 96.22 L2.87 99.17 L0 99.17 L0 96.22
								 ZM0 105.67 L2.87 105.67 L2.87 108.62 L0 108.62 L0 105.67 Z" class="st3"/>
				</g>
			</g>
		</g>
	</g>
</svg>
