<?xml version="1.0" encoding="UTF-8" standalone="no"?>
<!DOCTYPE svg PUBLIC "-//W3C//DTD SVG 1.1//EN" "http://www.w3.org/Graphics/SVG/1.1/DTD/svg11.dtd">
<!-- Generated by Microsoft Visio, SVG Export Azure LightHouse My Permission.svg Page-1 -->
<svg xmlns="http://www.w3.org/2000/svg" xmlns:xlink="http://www.w3.org/1999/xlink" xmlns:ev="http://www.w3.org/2001/xml-events"
		width="1.65342in" height="1.81081in" viewBox="0 0 119.047 130.378" xml:space="preserve" color-interpolation-filters="sRGB"
		class="st3">
	<style type="text/css">
	<![CDATA[
		.st1 {fill:url(#grad0-6);stroke:none;stroke-linecap:butt;stroke-width:34}
		.st2 {fill:#ffffff;fill-opacity:0.8;stroke:none;stroke-linecap:butt;stroke-width:34}
		.st3 {fill:none;fill-rule:evenodd;font-size:12px;overflow:visible;stroke-linecap:square;stroke-miterlimit:3}
	]]>
	</style>

	<defs id="Patterns_And_Gradients">
		<linearGradient id="grad0-6" x1="0" y1="0" x2="1" y2="0" gradientTransform="rotate(84.941446125353 0.5 0.5)">
			<stop offset="0" stop-color="#32d4f5" stop-opacity="1"/>
			<stop offset="0.21" stop-color="#30cff0" stop-opacity="1"/>
			<stop offset="0.465" stop-color="#2bc0e3" stop-opacity="1"/>
			<stop offset="0.75" stop-color="#23a7cd" stop-opacity="1"/>
			<stop offset="1" stop-color="#198ab3" stop-opacity="1"/>
		</linearGradient>
	</defs>
	<g>
		<title>Page-1</title>
		<g id="group3850-1" transform="translate(34.0229,-39.685)">
			<title>Azure LightHouse My Permission</title>
			<g id="group3851-2">
				<title>g6</title>
				<g id="shape3852-3">
					<title>path2</title>
					<path d="M50.99 125.26 C49.53 113.47 43.81 103.49 33.25 100.25 A14.2967 14.4279 -180 1 0 17.61 100.13 C6.97 103.01
								 1.3 112.05 0 125.3 A4.56471 4.60658 -180 0 0 4.06 130.34 A4.45856 4.49945 -180 0 0 4.53 130.38 L46.47
								 130.38 A4.53973 4.58137 -180 0 0 51.02 125.82 A4.59594 4.63809 -180 0 0 50.99 125.26 Z"
							class="st1"/>
				</g>
				<g id="shape3853-7" transform="translate(17.7905,-9.8969)">
					<title>path4</title>
					<path d="M7.75 112.45 A14.2405 14.3711 0 0 1 -0 110.15 L7.67 130.38 L15.29 110.29 A14.2343 14.3648 0 0 1 7.75
								 112.45 Z" class="st2"/>
				</g>
			</g>
		</g>
	</g>
</svg>
