<?xml version="1.0" encoding="UTF-8" standalone="no"?>
<!DOCTYPE svg PUBLIC "-//W3C//DTD SVG 1.1//EN" "http://www.w3.org/Graphics/SVG/1.1/DTD/svg11.dtd">
<!-- Generated by Microsoft Visio, SVG Export Azure Role Based Access Control.svg Page-1 -->
<svg xmlns="http://www.w3.org/2000/svg" xmlns:xlink="http://www.w3.org/1999/xlink" xmlns:ev="http://www.w3.org/2001/xml-events"
		width="0.944882in" height="1.41732in" viewBox="0 0 68.0315 102.047" xml:space="preserve" color-interpolation-filters="sRGB"
		class="st2">
	<style type="text/css">
	<![CDATA[
		.st1 {fill:#58b4d9;stroke:none;stroke-linecap:butt;stroke-width:1.15109}
		.st2 {fill:none;fill-rule:evenodd;font-size:12px;overflow:visible;stroke-linecap:square;stroke-miterlimit:3}
	]]>
	</style>

	<g>
		<title>Page-1</title>
		<g id="group3653-1" transform="translate(5.66929,-39.685)">
			<title>Azure Role Based Access Control</title>
			<g id="group3654-2">
				<title>paths</title>
				<g id="group3655-3">
					<title>Microsoft_account</title>
					<g id="group3656-4">
						<title>group1068-2156_1_</title>
						<g id="group3657-5">
							<title>Sheet.3657</title>
							<g id="shape3658-6">
								<title>path5</title>
								<path d="M56.69 79.17 L28.42 45.35 L0 79.03 L28.28 102.05 L56.69 79.17 ZM24.76 90.82 L24.76 76.51
											 C22.09 75.1 20.4 72.3 20.4 68.93 C20.4 64.3 23.92 60.51 28.28 60.51 C32.64 60.51 36.15
											 64.3 36.15 68.93 C36.15 72.16 34.33 75.1 31.79 76.37 L31.79 79.17 L31.65 79.31 L28.98
											 82.12 L31.79 85.07 L31.79 85.21 L29.26 88.01 L31.65 90.68 L28.14 94.33 L24.76 90.82
											 Z" class="st1"/>
							</g>
						</g>
						<g id="group3659-8" transform="translate(25.4776,-32.4349)">
							<title>Sheet.3659</title>
							<g id="shape3660-9">
								<title>path10</title>
								<path d="M5.77 99.1 C5.77 97.7 4.08 96.57 2.81 96.57 C1.41 96.57 0 97.56 0 98.96 C0 100.36 1.41 101.91
											 2.81 101.91 C4.08 102.05 5.77 100.64 5.77 99.1 Z" class="st1"/>
							</g>
						</g>
					</g>
				</g>
			</g>
		</g>
	</g>
</svg>
