<?xml version="1.0" encoding="UTF-8" standalone="no"?>
<!DOCTYPE svg PUBLIC "-//W3C//DTD SVG 1.1//EN" "http://www.w3.org/Graphics/SVG/1.1/DTD/svg11.dtd">
<!-- Generated by Microsoft Visio, SVG Export Azure Active Directory Risky user.svg Page-1 -->
<svg xmlns="http://www.w3.org/2000/svg" xmlns:xlink="http://www.w3.org/1999/xlink" xmlns:ev="http://www.w3.org/2001/xml-events"
		width="0.945128in" height="1.41732in" viewBox="0 0 68.0492 102.047" xml:space="preserve" color-interpolation-filters="sRGB"
		class="st3">
	<style type="text/css">
	<![CDATA[
		.st1 {fill:#59b4d9;stroke:none;stroke-linecap:butt;stroke-width:0.489491}
		.st2 {fill:#ff8c00;stroke:none;stroke-linecap:butt;stroke-width:0.489491}
		.st3 {fill:none;fill-rule:evenodd;font-size:12px;overflow:visible;stroke-linecap:square;stroke-miterlimit:3}
	]]>
	</style>

	<g>
		<title>Page-1</title>
		<g id="group4180-1" transform="translate(5.66929,-39.685)">
			<title>Azure-Active-Directory-Risky-User</title>
			<g id="group4181-2">
				<title>g11</title>
				<g id="shape4182-3" transform="translate(9.27171,-33.2026)">
					<title>path5</title>
					<path d="M23.59 90.2 A11.7961 11.7449 0 0 1 11.9 102.05 A11.7961 11.7449 0 0 1 0 90.4 A11.7961 11.7449 0 0 1
								 11.69 78.56 L11.79 78.56 A11.7439 11.6929 0 0 1 23.59 90.2 L23.59 90.2 Z" class="st1"/>
				</g>
				<g id="shape4183-5" transform="translate(28.7179,-0.373819)">
					<title>path7</title>
					<path d="M27.85 98.59 L21.86 88.56 L15.88 78.2 A2.22718 2.21752 -180 0 0 13.99 77.03 A2.22837 2.2187 -180 0 0
								 12.1 78.2 L6.11 87.93 L0.12 98.6 A2.20998 2.20039 -180 0 0 2.01 102.05 L25.96 102.05 A2.20998 2.20039
								 -180 0 0 27.85 98.59 ZM14.3 84.48 L15.88 84.48 L15.25 93.58 L12.73 93.58 L12.41 84.48 L14.3 84.48
								 ZM13.99 98.28 A1.89029 1.88209 0 0 1 12.1 96.4 A1.89029 1.88209 0 0 1 13.99 94.52 A1.89029 1.88209
								 0 0 1 15.88 96.4 A1.89029 1.88209 0 0 1 13.99 98.28 Z" class="st2"/>
				</g>
				<g id="shape4184-7">
					<title>path9</title>
					<path d="M26.69 101.75 A4.57417 4.55433 0 0 1 26.1 99.4 A4.90217 4.88091 0 0 1 26.78 97.04 L32.76 86.4 L32.78
								 86.36 L32.8 86.32 L38.79 76.6 A4.66611 4.64587 0 0 1 42.13 74.33 L42.13 72.63 L29.69 72.63 L21.07
								 84.56 L12.44 72.63 L0 72.63 L0 102.05 L26.88 102.05 C26.82 101.95 26.75 101.86 26.69 101.75 Z"
							class="st1"/>
				</g>
			</g>
		</g>
	</g>
</svg>
