<?xml version="1.0" encoding="UTF-8" standalone="no"?>
<!DOCTYPE svg PUBLIC "-//W3C//DTD SVG 1.1//EN" "http://www.w3.org/Graphics/SVG/1.1/DTD/svg11.dtd">
<!-- Generated by Microsoft Visio, SVG Export Blueprint.svg Page-1 -->
<svg xmlns="http://www.w3.org/2000/svg" xmlns:xlink="http://www.w3.org/1999/xlink" xmlns:ev="http://www.w3.org/2001/xml-events"
		width="1.72225in" height="1.74388in" viewBox="0 0 124.002 125.559" xml:space="preserve" color-interpolation-filters="sRGB"
		class="st4">
	<style type="text/css">
	<![CDATA[
		.st1 {fill:#198ab3;stroke:none;stroke-linecap:butt;stroke-width:34}
		.st2 {fill:url(#grad0-8);stroke:none;stroke-linecap:butt;stroke-width:34}
		.st3 {fill:#ffffff;stroke:none;stroke-linecap:butt;stroke-width:34}
		.st4 {fill:none;fill-rule:evenodd;font-size:12px;overflow:visible;stroke-linecap:square;stroke-miterlimit:3}
	]]>
	</style>

	<defs id="Patterns_And_Gradients">
		<linearGradient id="grad0-8" x1="0" y1="0" x2="1" y2="0" gradientTransform="rotate(-90 0.5 0.5)">
			<stop offset="0" stop-color="#198ab3" stop-opacity="1"/>
			<stop offset="0" stop-color="#198ab3" stop-opacity="1"/>
			<stop offset="0.11" stop-color="#22a5cb" stop-opacity="1"/>
			<stop offset="0.23" stop-color="#29bade" stop-opacity="1"/>
			<stop offset="0.37" stop-color="#2ec9eb" stop-opacity="1"/>
			<stop offset="0.53" stop-color="#31d1f3" stop-opacity="1"/>
			<stop offset="0.78" stop-color="#32d4f5" stop-opacity="1"/>
		</linearGradient>
	</defs>
	<g>
		<title>Page-1</title>
		<g id="group3400-1" transform="translate(34,-37.7008)">
			<title>Blueprint</title>
			<g id="group3401-2">
				<title>Icon-manage-304</title>
				<g id="shape3402-3" transform="translate(44.8486,2.84217E-13)">
					<title>Sheet.3402</title>
					<path d="M3.42 113.34 A6.84335 6.74684 0 0 1 10.92 120.61 A6.21824 6.13055 0 0 1 0.86 124.66 A2.20435 2.17326
								 0 0 1 0 122.91 L0 113.31 L3.42 113.34 Z" class="st1"/>
				</g>
				<g id="shape3403-5" transform="translate(0.0707316,-4.17105)">
					<title>Sheet.3403</title>
					<path d="M55.87 117.48 L55.87 88.29 A7.53427 7.42802 -180 0 0 48.33 80.93 L0 80.93 L0 110.12 A7.53427 7.42802
								 -180 0 0 7.53 117.55 L40.17 117.55 A84.7523 83.5571 0 0 1 50.04 117.55 C56.62 118.59 55.44 125.56
								 55.44 125.56 A36.6185 36.1021 -180 0 0 55.87 117.48 Z" class="st2"/>
				</g>
				<g id="shape3404-9" transform="translate(0,-18.9946)">
					<title>Sheet.3404</title>
					<path d="M0.04 125.56 L0.04 125.33 A6.05374 5.96836 0 0 1 10.7 122.41 a0.756717 0.746045 -180 0 0 1.31603 -0.486551
								 L12.01 96.56 A4.4745 4.4114 -180 0 0 12.01 95.62 A6.08664 6.0008 -180 0 0 0.04 95.62 A3.02687 2.98418
								 -180 0 0 0.04 96.56 L0.04 125.56 Z" class="st1"/>
				</g>
				<g id="shape3405-11" transform="translate(21.8839,-18.5567)">
					<title>Sheet.3405</title>
					<path d="M17.11 115.58 a0.921221 0.908229 -180 0 0 -0.921221 -0.908229 L12.9 114.68 C12.7 114.22 12.54 113.74
								 12.34 113.28 C11.61 111.43 10.82 109.58 10.07 107.77 L9.8 107.15 A4.5403 4.47627 -180 1 0 7.5 107.15
								 L7.21 107.8 C6.38 109.62 5.59 111.47 4.8 113.31 L4.21 114.74 L0.92 114.74 a0.921221 0.908229 -180
								 0 0 -0.921221 0.908229 a0.88832 0.875792 -180 0 0 0.921221 0.908229 L3.55 116.56 A170.87 168.46
								 -180 0 0 0.56 124.57 a0.758325 0.74763 -180 0 0 1.38183 0.616298 C2.96 123.43 3.92 121.65 4.84 119.9
								 C5.43 118.8 5.99 117.69 6.55 116.66 L10.69 116.66 L12.27 119.9 C13.19 121.68 14.11 123.47 15.07
								 125.22 a0.756717 0.746045 -180 0 0 1.38183 -0.583861 C15.86 122.72 15.2 120.84 14.54 118.96 L13.65
								 116.59 L16.09 116.59 a0.88832 0.875792 -180 0 0 1.01992 -1.00554 ZM6.12 102.8 A2.66496 2.62738 0
								 0 1 11.45 102.8 A2.66496 2.62738 0 0 1 6.12 102.8 ZM7.53 114.68 L7.53 114.45 L8.62 112.11 L9.67
								 114.42 L9.67 114.68 L7.53 114.68 Z" class="st3"/>
				</g>
			</g>
		</g>
	</g>
</svg>
