<?xml version="1.0" encoding="UTF-8" standalone="no"?>
<!DOCTYPE svg PUBLIC "-//W3C//DTD SVG 1.1//EN" "http://www.w3.org/Graphics/SVG/1.1/DTD/svg11.dtd">
<!-- Generated by Microsoft Visio, SVG Export Cloud Simple Service.svg Page-1 -->
<svg xmlns="http://www.w3.org/2000/svg" xmlns:xlink="http://www.w3.org/1999/xlink" xmlns:ev="http://www.w3.org/2001/xml-events"
		width="0.944882in" height="1.41732in" viewBox="0 0 68.0315 102.047" xml:space="preserve" color-interpolation-filters="sRGB"
		class="st4">
	<style type="text/css">
	<![CDATA[
		.st1 {fill:#e4e4e4;stroke:none;stroke-linecap:butt;stroke-width:0.972542}
		.st2 {fill:#81ba33;stroke:none;stroke-linecap:butt;stroke-width:0.972542}
		.st3 {fill:#486385;stroke:none;stroke-linecap:butt;stroke-width:0.972542}
		.st4 {fill:none;fill-rule:evenodd;font-size:12px;overflow:visible;stroke-linecap:square;stroke-miterlimit:3}
	]]>
	</style>

	<g>
		<title>Page-1</title>
		<g id="group3309-1" transform="translate(5.66929,-39.685)">
			<title>Cloud Simple Service</title>
			<g id="group3310-2">
				<title>g11</title>
				<g id="shape3311-3">
					<title>rect5</title>
					<path d="M-0 99.69 A2.36226 2.36226 -180 0 0 2.36 102.05 L54.33 102.05 A2.36226 2.36226 -180 0 0 56.69 99.69
								 L56.69 47.72 A2.36226 2.36226 -180 0 0 54.33 45.35 L2.36 45.35 A2.36226 2.36226 -180 0 0 0 47.72
								 L0 99.69 Z" class="st1"/>
				</g>
				<g id="shape3312-5" transform="translate(4.88858,-12.7654)">
					<title>path7</title>
					<path d="M26.3 99.12 C25.98 99.35 25.54 99.62 24.96 99.95 C24.38 100.27 23.65 100.59 22.78 100.9 C21.9 101.21
								 20.87 101.48 19.68 101.71 C18.49 101.94 17.15 102.05 15.65 102.05 C13.53 102.05 11.52 101.73 9.63
								 101.09 C7.73 100.46 6.07 99.5 4.64 98.23 C3.22 96.96 2.09 95.38 1.25 93.48 C0.42 91.59 0 89.38 0
								 86.86 C0 84.4 0.4 82.22 1.21 80.31 C2.01 78.4 3.12 76.79 4.52 75.48 C5.92 74.16 7.56 73.16 9.44
								 72.47 C11.32 71.77 13.35 71.43 15.52 71.43 C16.68 71.43 17.73 71.5 18.66 71.64 C19.59 71.78 20.42
								 71.96 21.14 72.19 A12.5787 12.5787 0 0 1 22.99 72.91 C23.5 73.17 23.91 73.39 24.22 73.59 C24.87
								 74.07 25.33 74.57 25.62 75.09 C25.9 75.62 26.04 76.16 26.04 76.73 C26.04 77.27 25.94 77.77 25.72
								 78.26 A6.11811 6.11811 0 0 1 24.96 79.55 A7.62402 7.62402 0 0 1 24.07 80.52 A4.59449 4.59449 0 0
								 1 23.33 81.1 C23.04 80.81 22.68 80.48 22.24 80.1 A7.54724 7.54724 -180 0 0 20.66 79.06 A12.1134
								 12.1134 -180 0 0 18.51 78.26 C17.71 78.03 16.81 77.91 15.82 77.91 C14.58 77.91 13.45 78.12 12.43
								 78.53 A7.55906 7.55906 -180 0 0 9.78 80.31 C9.03 81.09 8.45 82.03 8.04 83.13 C7.63 84.24 7.42 85.48
								 7.42 86.86 C7.42 88.28 7.65 89.52 8.1 90.6 C8.55 91.67 9.18 92.57 9.97 93.29 A7.86969 7.86969 -180
								 0 0 12.79 94.92 C13.88 95.29 15.06 95.47 16.33 95.47 C17.91 95.47 19.28 95.28 20.42 94.88 C21.57
								 94.48 22.44 94.07 23.03 93.65 L26.21 99.12 L26.3 99.12 Z" class="st2"/>
				</g>
				<g id="shape3313-7" transform="translate(25.7244,-12.7654)">
					<title>path9</title>
					<path d="M2.93 92.97 C3.1 93.11 3.48 93.33 4.07 93.63 C4.67 93.92 5.41 94.22 6.32 94.52 C7.22 94.82 8.27 95.08
								 9.46 95.33 C10.65 95.57 11.93 95.69 13.32 95.69 C14.45 95.69 15.35 95.61 16.03 95.45 C16.71 95.3
								 17.23 95.09 17.6 94.84 C17.97 94.58 18.21 94.29 18.32 93.97 C18.43 93.64 18.49 93.31 18.49 92.97
								 C18.49 92.29 18.21 91.74 17.66 91.3 C17.11 90.86 16.09 90.51 14.59 90.26 L10.26 89.49 A24.802 24.802
								 0 0 1 6.87 88.65 A10.7185 10.7185 0 0 1 3.84 87.12 A7.64646 7.64646 0 0 1 1.65 84.62 C1.09 83.6
								 0.81 82.34 0.81 80.84 C0.81 79.54 1.05 78.32 1.53 77.17 A7.96299 7.96299 0 0 1 3.73 74.18 C4.72
								 73.33 5.97 72.66 7.48 72.17 C9 71.67 10.77 71.43 12.81 71.43 C14.28 71.43 15.56 71.5 16.67 71.66
								 C17.77 71.82 18.72 72.01 19.51 72.23 C20.3 72.46 20.94 72.69 21.44 72.91 C21.93 73.14 22.29 73.32
								 22.52 73.46 C23 73.75 23.46 74.13 23.9 74.63 C24.34 75.12 24.56 75.71 24.56 76.39 C24.56 76.87 24.47
								 77.33 24.3 77.77 A6.46535 6.46535 0 0 1 23.69 78.98 C23.45 79.34 23.19 79.66 22.9 79.93 A7.16929
								 7.16929 0 0 1 22.18 80.54 C21.9 80.26 21.47 79.94 20.91 79.59 A10.5248 10.5248 -180 0 0 18.87 78.64
								 C18.08 78.35 17.18 78.11 16.16 77.92 A17.1024 17.1024 -180 0 0 12.89 77.62 C11.79 77.62 10.91 77.71
								 10.26 77.89 C9.61 78.08 9.13 78.3 8.8 78.57 C8.47 78.84 8.26 79.15 8.16 79.48 A3.35433 3.35433 -180
								 0 0 8.01 80.42 C8.01 80.67 8.05 80.91 8.12 81.14 C8.19 81.36 8.36 81.58 8.63 81.8 C8.9 82.01 9.28
								 82.21 9.78 82.39 C10.27 82.57 10.94 82.75 11.79 82.92 L16.29 83.81 C17.87 84.12 19.26 84.51 20.46
								 84.98 C21.66 85.44 22.68 86.02 23.5 86.69 A6.4252 6.4252 0 0 1 25.34 89.15 C25.75 90.12 25.95 91.26
								 25.95 92.59 C25.95 95.56 24.85 97.88 22.63 99.55 C20.41 101.21 17.28 102.05 13.23 102.05 C11.39
								 102.05 9.71 101.89 8.16 101.58 C6.62 101.27 5.27 100.91 4.11 100.5 C2.96 100.09 2.01 99.7 1.29 99.33
								 C0.57 98.97 0.14 98.71 0 98.57 L2.93 92.97 Z" class="st3"/>
				</g>
			</g>
		</g>
	</g>
</svg>
