<?xml version="1.0" encoding="UTF-8" standalone="no"?>
<!DOCTYPE svg PUBLIC "-//W3C//DTD SVG 1.1//EN" "http://www.w3.org/Graphics/SVG/1.1/DTD/svg11.dtd">
<!-- Generated by Microsoft Visio, SVG Export Cognitive Services Customised Experience.svg Page-1 -->
<svg xmlns="http://www.w3.org/2000/svg" xmlns:xlink="http://www.w3.org/1999/xlink" xmlns:ev="http://www.w3.org/2001/xml-events"
		width="1.13434in" height="1.51205in" viewBox="0 0 81.6725 108.868" xml:space="preserve" color-interpolation-filters="sRGB"
		class="st3">
	<style type="text/css">
	<![CDATA[
		.st1 {fill:#0078d4;stroke:none;stroke-linecap:butt;stroke-width:12.4898}
		.st2 {fill:#50e6ff;stroke:none;stroke-linecap:butt;stroke-width:12.4898}
		.st3 {fill:none;fill-rule:evenodd;font-size:12px;overflow:visible;stroke-linecap:square;stroke-miterlimit:3}
	]]>
	</style>

	<g>
		<title>Page-1</title>
		<g id="group3209-1" transform="translate(12.4898,-39.685)">
			<title>Cognitive Services Customised Experience</title>
			<g id="shape3210-2" transform="translate(42.2713,-42.2687)">
				<title>Sheet.3210</title>
				<path d="M0 94.45 L14.42 94.45 L14.42 108.87 L8.45 108.87 L8.45 100.41 L0 100.41 L0 94.45 Z" class="st1"/>
			</g>
			<g id="shape3211-4" transform="translate(16.9031,-42.2733)">
				<title>Sheet.3211</title>
				<path d="M5.97 108.87 L0 108.87 L0 94.45 L14.42 94.45 L14.42 100.41 L5.97 100.41 L5.97 108.87 Z" class="st1"/>
			</g>
			<g id="shape3212-6" transform="translate(42.2713,-16.9495)">
				<title>Sheet.3212</title>
				<path d="M8.45 94.45 L14.42 94.45 L14.42 108.87 L0 108.87 L0 102.9 L8.45 102.9 L8.45 94.45 Z" class="st1"/>
			</g>
			<g id="shape3213-8" transform="translate(16.9031,-16.9403)">
				<title>Sheet.3213</title>
				<path d="M0 108.87 L0 94.45 L5.97 94.45 L5.97 102.9 L14.42 102.9 L14.42 108.87 L0 108.87 Z" class="st1"/>
			</g>
			<g id="shape3214-10" transform="translate(25.3632,-33.8128)">
				<title>Sheet.3214</title>
				<path d="M2.98 108.87 C1.33 108.87 0 107.54 0 105.88 C0 104.23 1.33 102.9 2.98 102.9 C4.63 102.9 5.97 104.23 5.97
							 105.88 C5.97 107.53 4.62 108.87 2.98 108.87 Z" class="st2"/>
			</g>
			<g id="shape3215-12" transform="translate(33.817,-42.2649)">
				<title>Sheet.3215</title>
				<path d="M2.98 108.87 C1.33 108.87 0 107.54 0 105.88 C0 104.23 1.33 102.9 2.98 102.9 C4.63 102.9 5.97 104.23 5.97
							 105.88 C5.97 107.53 4.62 108.87 2.98 108.87 Z" class="st2"/>
			</g>
			<g id="shape3216-14" transform="translate(42.2713,-33.8128)">
				<title>Sheet.3216</title>
				<path d="M2.98 108.87 C1.33 108.87 0 107.54 0 105.88 C0 104.23 1.33 102.9 2.98 102.9 C4.63 102.9 5.97 104.23 5.97
							 105.88 C5.97 107.53 4.62 108.87 2.98 108.87 Z" class="st2"/>
			</g>
			<g id="shape3217-16" transform="translate(33.817,-25.3608)">
				<title>Sheet.3217</title>
				<path d="M2.98 108.87 C1.33 108.87 0 107.54 0 105.88 C0 104.23 1.33 102.9 2.98 102.9 C4.63 102.9 5.97 104.23 5.97
							 105.88 C5.97 107.53 4.62 108.87 2.98 108.87 Z" class="st2"/>
			</g>
			<g id="shape3218-18" transform="translate(33.817,-33.8128)">
				<title>Sheet.3218</title>
				<path d="M2.98 108.87 C1.33 108.87 0 107.54 0 105.88 C0 104.23 1.33 102.9 2.98 102.9 C4.63 102.9 5.97 104.23 5.97
							 105.88 C5.97 107.53 4.62 108.87 2.98 108.87 Z" class="st2"/>
			</g>
			<g id="shape3219-20" transform="translate(-1.1291E-13,-50.7216)">
				<title>Sheet.3219</title>
				<path d="M2.98 108.87 C1.33 108.87 0 107.54 0 105.88 C0 104.23 1.33 102.9 2.98 102.9 C4.63 102.9 5.97 104.23 5.97
							 105.88 C5.97 107.53 4.62 108.87 2.98 108.87 Z" class="st2"/>
			</g>
			<g id="shape3220-22" transform="translate(8.45438,-50.7216)">
				<title>Sheet.3220</title>
				<path d="M5.97 102.9 L0 102.9 L0 108.87 L5.97 108.87 L5.97 102.9 Z" class="st2"/>
			</g>
			<g id="shape3221-24" transform="translate(0.000577625,-42.2649)">
				<title>Sheet.3221</title>
				<path d="M5.97 102.9 L0 102.9 L0 108.87 L5.97 108.87 L5.97 102.9 Z" class="st2"/>
			</g>
			<g id="shape3222-26" transform="translate(8.45438,-42.2649)">
				<title>Sheet.3222</title>
				<path d="M5.97 102.9 L0 102.9 L0 108.87 L5.97 108.87 L5.97 102.9 Z" class="st2"/>
			</g>
			<g id="shape3223-28" transform="translate(0.000577625,-33.8128)">
				<title>Sheet.3223</title>
				<path d="M5.97 102.9 L0 102.9 L0 108.87 L5.97 108.87 L5.97 102.9 Z" class="st2"/>
			</g>
			<g id="shape3224-30" transform="translate(8.45438,-33.8128)">
				<title>Sheet.3224</title>
				<path d="M2.98 108.87 C1.33 108.87 0 107.54 0 105.88 C0 104.23 1.33 102.9 2.98 102.9 C4.63 102.9 5.97 104.23 5.97
							 105.88 C5.97 107.53 4.62 108.87 2.98 108.87 Z" class="st2"/>
			</g>
			<g id="shape3225-32" transform="translate(0.000577625,-16.9087)">
				<title>Sheet.3225</title>
				<path d="M5.97 102.9 L0 102.9 L0 108.87 L5.97 108.87 L5.97 102.9 Z" class="st2"/>
			</g>
			<g id="shape3226-34" transform="translate(8.45438,-8.45672)">
				<title>Sheet.3226</title>
				<path d="M5.97 102.9 L0 102.9 L0 108.87 L5.97 108.87 L5.97 102.9 Z" class="st2"/>
			</g>
			<g id="shape3227-36" transform="translate(50.7252,-5.68434E-14)">
				<title>Sheet.3227</title>
				<path d="M2.98 108.87 C1.33 108.87 0 107.54 0 105.88 C0 104.23 1.33 102.9 2.98 102.9 C4.63 102.9 5.97 104.23 5.97
							 105.88 C5.97 107.53 4.62 108.87 2.98 108.87 Z" class="st2"/>
			</g>
			<g id="shape3228-38" transform="translate(33.817,-5.68434E-14)">
				<title>Sheet.3228</title>
				<path d="M5.97 102.9 L0 102.9 L0 108.87 L5.97 108.87 L5.97 102.9 Z" class="st2"/>
			</g>
			<g id="shape3229-40" transform="translate(42.2713,-8.45672)">
				<title>Sheet.3229</title>
				<path d="M5.97 102.9 L0 102.9 L0 108.87 L5.97 108.87 L5.97 102.9 Z" class="st2"/>
			</g>
			<g id="shape3230-42" transform="translate(16.9087,-5.68434E-14)">
				<title>Sheet.3230</title>
				<path d="M2.98 108.87 C1.33 108.87 0 107.54 0 105.88 C0 104.23 1.33 102.9 2.98 102.9 C4.63 102.9 5.97 104.23 5.97
							 105.88 C5.97 107.53 4.62 108.87 2.98 108.87 Z" class="st2"/>
			</g>
			<g id="shape3231-44" transform="translate(8.45438,-5.68434E-14)">
				<title>Sheet.3231</title>
				<path d="M5.97 102.9 L0 102.9 L0 108.87 L5.97 108.87 L5.97 102.9 Z" class="st2"/>
			</g>
			<g id="shape3232-46" transform="translate(25.3632,-8.45672)">
				<title>Sheet.3232</title>
				<path d="M5.97 102.9 L0 102.9 L0 108.87 L5.97 108.87 L5.97 102.9 Z" class="st2"/>
			</g>
		</g>
	</g>
</svg>
