<?xml version="1.0" encoding="UTF-8" standalone="no"?>
<!DOCTYPE svg PUBLIC "-//W3C//DTD SVG 1.1//EN" "http://www.w3.org/Graphics/SVG/1.1/DTD/svg11.dtd">
<!-- Generated by Microsoft Visio, SVG Export Cognitive Services Speaker Recognition.svg Page-1 -->
<svg xmlns="http://www.w3.org/2000/svg" xmlns:xlink="http://www.w3.org/1999/xlink" xmlns:ev="http://www.w3.org/2001/xml-events"
		width="1.05008in" height="1.34407in" viewBox="0 0 75.6056 96.7729" xml:space="preserve" color-interpolation-filters="sRGB"
		class="st2">
	<style type="text/css">
	<![CDATA[
		.st1 {fill:#0078d4;stroke:none;stroke-linecap:butt;stroke-width:10.0328}
		.st2 {fill:none;fill-rule:evenodd;font-size:12px;overflow:visible;stroke-linecap:square;stroke-miterlimit:3}
	]]>
	</style>

	<g>
		<title>Page-1</title>
		<g id="group3070-1" transform="translate(9.45633,-35.7165)">
			<title>Cognitive Services Speaker Recognition</title>
			<g id="shape3071-2">
				<title>Sheet.3071</title>
				<path d="M8.73 71 L17.92 80.36 L43.53 54.19 L46.66 57.38 L17.85 86.74 L5.47 74.12 L8.73 71 ZM50.63 91.92 C48.48 91.86
							 46.59 90.33 46.27 88.27 C45.88 85.88 47.57 83.68 50.11 83.29 C52.59 82.95 55.39 84.22 56.04 87.54 C56.69
							 92.32 53.04 96.24 47.57 96.77 C47.37 96.77 47.31 96.71 47.31 96.71 L47.05 95.24 C47.05 95.24 47.05 95.11
							 47.18 95.05 C48.74 94.51 50.11 93.78 50.63 91.92 ZM38.32 91.92 C36.17 91.86 34.28 90.33 33.95 88.27
							 C33.56 85.88 35.25 83.68 37.8 83.29 C40.27 82.95 43.07 84.22 43.73 87.54 C44.38 92.32 40.73 96.24 35.25
							 96.77 C35.06 96.77 34.99 96.71 34.99 96.71 L34.73 95.24 C34.73 95.24 34.73 95.11 34.86 95.05 C36.49
							 94.51 37.86 93.78 38.32 91.92 ZM18.31 50.6 C20.46 50.67 22.35 52.19 22.68 54.25 C23.07 56.65 21.37 58.84
							 18.83 59.24 C16.36 59.57 13.55 58.31 12.9 54.98 C12.25 50.2 15.9 46.28 21.37 45.75 C21.57 45.75 21.63
							 45.82 21.63 45.82 L21.9 47.28 C21.9 47.28 21.9 47.41 21.76 47.48 C20.2 47.94 18.83 48.67 18.31 50.6
							 ZM6.06 50.6 C8.21 50.67 10.1 52.19 10.43 54.25 C10.82 56.65 9.12 58.84 6.58 59.24 C4.11 59.57 1.3 58.31
							 0.65 54.98 C0 50.2 3.65 46.28 9.12 45.75 C9.32 45.75 9.38 45.82 9.38 45.82 L9.64 47.28 C9.64 47.28 9.64
							 47.41 9.51 47.48 C7.88 47.94 6.58 48.67 6.06 50.6 Z" class="st1"/>
			</g>
		</g>
	</g>
</svg>
