<?xml version="1.0" encoding="UTF-8" standalone="no"?>
<!DOCTYPE svg PUBLIC "-//W3C//DTD SVG 1.1//EN" "http://www.w3.org/Graphics/SVG/1.1/DTD/svg11.dtd">
<!-- Generated by Microsoft Visio, SVG Export Event Hub Cluster.svg Page-1 -->
<svg xmlns="http://www.w3.org/2000/svg" xmlns:xlink="http://www.w3.org/1999/xlink" xmlns:ev="http://www.w3.org/2001/xml-events"
		width="1.73185in" height="1.57444in" viewBox="0 0 124.693 113.359" xml:space="preserve" color-interpolation-filters="sRGB"
		class="st7">
	<style type="text/css">
	<![CDATA[
		.st1 {fill:#b3b3b3;stroke:none;stroke-linecap:butt;stroke-width:34}
		.st2 {fill:#b3b3b3;fill-opacity:0.5;stroke:none;stroke-linecap:butt;stroke-width:34}
		.st3 {fill:#76bc2d;stroke:none;stroke-linecap:butt;stroke-width:34}
		.st4 {fill:#5e9624;stroke:none;stroke-linecap:butt;stroke-width:34}
		.st5 {fill:#86d633;stroke:none;stroke-linecap:butt;stroke-width:34}
		.st6 {fill:#949494;stroke:none;stroke-linecap:butt;stroke-width:34}
		.st7 {fill:none;fill-rule:evenodd;font-size:12px;overflow:visible;stroke-linecap:square;stroke-miterlimit:3}
	]]>
	</style>

	<g>
		<title>Page-1</title>
		<g id="group2518-1" transform="translate(34,-34.0051)">
			<title>Event Hub Cluster</title>
			<g id="group2519-2">
				<title> Icon-analytics-149</title>
				<g id="group2520-3" transform="translate(27.8632,-18.8078)">
					<title>Sheet.2520</title>
					<g id="shape2521-4" transform="translate(-2.89768E-14,-0.0326525)">
						<title>Sheet.2521</title>
						<path d="M1.07 106.99 L3.23 106.99 L3.23 112.9 a0.466608 0.457135 0 0 1 -0.466608 0.457135 L0.47 113.36 a0.466608
									 0.457135 0 0 1 -0.466608 -0.457135 L0 107.94 a0.966546 0.946923 0 0 1 1.06653 -0.946923 Z"
								class="st1"/>
					</g>
					<g id="shape2522-6" transform="translate(-2.89768E-14,-0.0326525)">
						<title>Sheet.2522</title>
						<path d="M1.07 106.99 L3.23 106.99 L3.23 112.9 a0.466608 0.457135 0 0 1 -0.466608 0.457135 L0.47 113.36 a0.466608
									 0.457135 0 0 1 -0.466608 -0.457135 L0 107.94 a0.966546 0.946923 0 0 1 1.06653 -0.946923 Z"
								class="st2"/>
					</g>
					<g id="shape2523-8" transform="translate(25.6635,1.42109E-14)">
						<title>Sheet.2523</title>
						<path d="M0 106.96 L2.17 106.96 a0.966546 0.946923 0 0 1 0.966546 0.946923 L3.13 112.9 a0.466608 0.457135
									 0 0 1 -0.466608 0.457135 L0.47 113.36 a0.466608 0.457135 0 0 1 -0.466608 -0.457135 L0 106.96
									 Z" class="st1"/>
					</g>
					<g id="shape2524-10" transform="translate(25.6635,1.42109E-14)">
						<title>Sheet.2524</title>
						<path d="M0 106.96 L2.17 106.96 a0.966546 0.946923 0 0 1 0.966546 0.946923 L3.13 112.9 a0.466608 0.457135
									 0 0 1 -0.466608 0.457135 L0.47 113.36 a0.466608 0.457135 0 0 1 -0.466608 -0.457135 L0 106.96
									 Z" class="st2"/>
					</g>
					<g id="shape2525-12" transform="translate(0.133317,-3.49382)">
						<title>Sheet.2525</title>
						<path d="M28.66 111.3 L28.66 113.36 L0 113.36 L0 111.3 a0.966546 0.946923 0 0 1 0.966546 -0.946923 L27.63
									 110.36 a0.966546 0.946923 0 0 1 1.0332 0.946923 Z" class="st1"/>
					</g>
				</g>
				<g id="group2526-14" transform="translate(27.9632,1.13687E-13)">
					<title>Sheet.2526</title>
					<g id="shape2527-15" transform="translate(5.77038E-14,-0.0326525)">
						<title>Sheet.2527</title>
						<path d="M0.37 106.99 L2.53 106.99 a0.466608 0.457135 0 0 1 0.466608 0.457135 L3 113.36 L0.97 113.36 a0.966546
									 0.946923 0 0 1 -0.966546 -0.946923 L0 107.35 a0.466608 0.457135 0 0 1 0.366621 -0.359178 Z"
								class="st1"/>
					</g>
					<g id="shape2528-17" transform="translate(5.77038E-14,-0.0326525)">
						<title>Sheet.2528</title>
						<path d="M0.37 106.99 L2.53 106.99 a0.466608 0.457135 0 0 1 0.466608 0.457135 L3 113.36 L0.97 113.36 a0.966546
									 0.946923 0 0 1 -0.966546 -0.946923 L0 107.35 a0.466608 0.457135 0 0 1 0.366621 -0.359178 Z"
								class="st2"/>
					</g>
					<g id="shape2529-19" transform="translate(25.5301,1.42109E-14)">
						<title>Sheet.2529</title>
						<path d="M0.5 106.96 L2.67 106.96 a0.466608 0.457135 0 0 1 0.466608 0.457135 L3.13 112.41 a0.966546 0.946923
									 0 0 1 -0.966546 0.946923 L0 113.36 L0 107.32 a0.466608 0.457135 0 0 1 0.499938 -0.359178 Z"
								class="st1"/>
					</g>
					<g id="shape2530-21" transform="translate(25.5301,1.42109E-14)">
						<title>Sheet.2530</title>
						<path d="M0.5 106.96 L2.67 106.96 a0.466608 0.457135 0 0 1 0.466608 0.457135 L3.13 112.41 a0.966546 0.946923
									 0 0 1 -0.966546 0.946923 L0 113.36 L0 107.32 a0.466608 0.457135 0 0 1 0.499938 -0.359178 Z"
								class="st2"/>
					</g>
					<g id="shape2531-23" transform="translate(0.0333292,1.42109E-14)">
						<title>Sheet.2531</title>
						<path d="M0 112.41 L0 110.36 L28.7 110.36 L28.7 112.41 a0.966546 0.946923 0 0 1 -0.966546 0.946923 L1.07
									 113.36 a0.966546 0.946923 0 0 1 -1.06653 -0.946923 Z" class="st1"/>
					</g>
				</g>
				<g id="shape2532-25" transform="translate(41.2282,-13.3549)">
					<title>Sheet.2532</title>
					<path d="M4.07 112.93 a0.433279 0.424483 0 0 1 -0.366621 0.424483 L0.43 113.36 a0.39995 0.39183 0 0 1 -0.433279
								 -0.39183 L0 110.52 a0.466608 0.457135 0 0 1 0.366621 -0.424483 L3.7 110.09 a0.39995 0.39183 0 0
								 1 0.433279 0.39183 L4.07 112.93 Z" class="st3"/>
				</g>
				<g id="shape2533-27" transform="translate(41.2282,-8.39169)">
					<title>Sheet.2533</title>
					<path d="M10.03 110.45 a0.433279 0.424483 0 0 1 -0.366621 0.424483 L6.33 110.88 a0.39995 0.39183 0 0 1 -0.433279
								 -0.39183 L5.9 108.07 a0.366621 0.359178 0 0 1 0.366621 -0.39183 L9.6 107.68 a0.366621 0.359178 0
								 0 1 0.433279 0.359178 L10.03 110.45 ZM4.07 112.93 a0.39995 0.39183 0 0 1 -0.366621 0.424483 L0.43
								 113.36 a0.39995 0.39183 0 0 1 -0.433279 -0.359178 L0 110.55 a0.39995 0.39183 0 0 1 0.433279 -0.424483
								 L3.77 110.13 a0.366621 0.359178 0 0 1 0.433279 0.359178 L4.2 112.93 L4.07 112.93 Z" class="st4"/>
				</g>
				<g id="shape2534-29" transform="translate(34.9956,-15.6895)">
					<title>Sheet.2534</title>
					<path d="M4.33 112.85 a0.366621 0.359178 0 0 1 -0.366621 0.39183 L0.63 113.25 a0.37449 0.366887 0 0 1 -0.633254
								 -0.39183 L0 110.34 a0.366621 0.359178 0 0 1 0.366621 -0.39183 L3.7 109.95 C4.03 109.95 4.2 110.11
								 4.2 110.34 L4.33 112.85 Z" class="st5"/>
				</g>
				<g id="shape2535-31" transform="translate(35.2289,-10.8733)">
					<title>Sheet.2535</title>
					<path d="M4.1 112.93 a0.39995 0.39183 0 0 1 -0.366621 0.424483 L0.4 113.36 a0.39995 0.39183 0 0 1 -0.39995 -0.39183
								 L0 110.49 a0.39995 0.39183 0 0 1 0.366621 -0.424483 L3.7 110.06 C4.03 110.06 4.2 110.22 4.2 110.49
								 L4.1 112.93 Z" class="st3"/>
				</g>
				<g id="shape2536-33" transform="translate(34.9956,-5.95566)">
					<title>Sheet.2536</title>
					<path d="M4.33 112.92 a0.366621 0.359178 0 0 1 -0.366621 0.424483 L0.63 113.34 a0.39995 0.39183 0 0 1 -0.633254
								 -0.424483 L0 110.37 a0.39995 0.39183 0 0 1 0.366621 -0.424483 L3.7 109.94 a0.433279 0.424483 0 0
								 1 0.499938 0.424483 L4.33 112.92 Z" class="st4"/>
				</g>
				<g id="shape2537-35" transform="translate(-2.79776E-13,-9.24066)">
					<title>Sheet.2537</title>
					<path d="M42.69 89.43 a0.933217 0.91427 -180 0 0 -1.0332 -0.91427 L15 88.51 a0.933217 0.91427 -180 0 0 -0.966546
								 0.91427 L14.03 94.42 a0.499938 0.489788 -180 0 0 0.499938 0.457135 L16.66 94.88 a0.466608 0.457135
								 -180 0 0 0.466608 -0.457135 L17.13 91.48 L39.53 91.48 L39.53 94.42 a0.499938 0.489788 -180 0 0 0.499938
								 0.457135 L42.19 94.88 a0.499938 0.489788 -180 0 0 0.499938 -0.457135 L42.69 89.43 ZM17.13 107.45
								 a0.466608 0.457135 -180 0 0 -0.466608 -0.457135 L14.5 106.99 a0.499938 0.489788 -180 0 0 -0.499938
								 0.457135 L14 112.45 a0.833229 0.816313 -180 0 0 0.699913 0.91427 L26.3 113.36 L26.3 110.39 L17.13
								 110.39 L17.13 107.45 ZM28.7 78.19 a0.966546 0.946923 -180 0 0 -0.966546 -0.946923 L1.07 77.25 a0.966546
								 0.946923 -180 0 0 -0.966546 0.946923 L0.1 83.19 a0.466608 0.457135 -180 0 0 0.366621 0.359178 L2.67
								 83.55 a0.466608 0.457135 -180 0 0 0.466608 -0.457135 L3.13 80.28 L25.53 80.28 L25.53 83.25 a0.499938
								 0.489788 -180 0 0 0.499938 0.293873 L28.33 83.55 a0.499938 0.489788 -180 0 0 0.499938 -0.457135
								 L28.83 78.19 L28.7 78.19 ZM3.13 96.22 a0.499938 0.489788 -180 0 0 -0.466608 -0.489788 L0.47 95.73
								 a0.499938 0.489788 -180 0 0 -0.466608 0.489788 L0 101.18 C0 101.67 0.33 102.09 0.7 102.09 L12.3
								 102.09 L12.3 99.16 L3.13 99.16 L3.13 96.22 Z" class="st6"/>
				</g>
				<g id="shape2538-37" transform="translate(6.19923,-14.5957)">
					<title>Sheet.2538</title>
					<path d="M18.2 103.01 a0.366621 0.359178 0 0 1 -0.366621 0.39183 L14.5 103.4 a0.366621 0.359178 0 0 1 -0.433279
								 -0.359178 L14.06 100.53 a0.366621 0.359178 0 0 1 0.366621 -0.424483 L17.76 100.1 C18.1 100.1 18.26
								 100.27 18.26 100.53 L18.2 103.01 ZM18.2 105.49 C18.2 105.23 18.03 105.23 17.7 105.23 L14.36 105.23
								 a0.39995 0.39183 -180 0 0 -0.366621 0.424483 L14 108.2 a0.39995 0.39183 -180 0 0 0.433279 0.359178
								 L17.76 108.56 a0.39995 0.39183 -180 0 0 0.366621 -0.424483 L18.2 105.49 ZM18.2 110.45 C18.2 110.22
								 18.03 110.06 17.7 110.06 L14.36 110.06 a0.366621 0.359178 -180 0 0 -0.366621 0.39183 L14 113 a0.366621
								 0.359178 -180 0 0 0.433279 0.359178 L17.76 113.36 a0.366621 0.359178 -180 0 0 0.366621 -0.424483
								 L18.2 110.45 ZM4.2 89.26 a0.433279 0.424483 -180 0 0 -0.499938 -0.359178 L0.37 88.9 a0.39995 0.39183
								 -180 0 0 -0.366621 0.424483 L0 91.87 a0.39995 0.39183 -180 0 0 0.366621 0.293873 L3.7 92.17 a0.366621
								 0.359178 -180 0 0 0.366621 -0.424483 L4.2 89.26 ZM4.2 94.23 C4.2 94 4.03 93.83 3.7 93.83 L0.37 93.83
								 a0.366621 0.359178 -180 0 0 -0.366621 0.39183 L0 96.74 a0.366621 0.359178 -180 0 0 0.39995 0.359178
								 L3.73 97.1 a0.366621 0.359178 -180 0 0 0.366621 -0.39183 L4.2 94.23 ZM4.2 99.22 C4.2 98.96 4.03
								 98.8 3.7 98.8 L0.37 98.8 a0.39995 0.39183 -180 0 0 -0.366621 0.424483 L0 101.7 a0.39995 0.39183
								 -180 0 0 0.39995 0.39183 L3.73 102.09 a0.39995 0.39183 -180 0 0 0.366621 -0.424483 L4.2 99.22 Z"
							class="st3"/>
				</g>
			</g>
		</g>
	</g>
</svg>
