<?xml version="1.0" encoding="UTF-8" standalone="no"?>
<!DOCTYPE svg PUBLIC "-//W3C//DTD SVG 1.1//EN" "http://www.w3.org/Graphics/SVG/1.1/DTD/svg11.dtd">
<!-- Generated by Microsoft Visio, SVG Export Identity and Access.svg Page-1 -->
<svg xmlns="http://www.w3.org/2000/svg" xmlns:xlink="http://www.w3.org/1999/xlink" xmlns:ev="http://www.w3.org/2001/xml-events"
		width="1.31865in" height="1.60422in" viewBox="0 0 94.9429 115.504" xml:space="preserve" color-interpolation-filters="sRGB"
		class="st6">
	<style type="text/css">
	<![CDATA[
		.st1 {fill:#7ac3e2;stroke:none;stroke-linecap:butt;stroke-width:19.125}
		.st2 {fill:#fbd118;stroke:none;stroke-linecap:butt;stroke-width:19.125}
		.st3 {fill:#f78c1e;fill-opacity:0.4;stroke:none;stroke-linecap:butt;stroke-width:19.125}
		.st4 {fill:#ffffff;fill-opacity:0.5;stroke:none;stroke-linecap:butt;stroke-width:19.125}
		.st5 {fill:#5bb4da;stroke:none;stroke-linecap:butt;stroke-width:19.125}
		.st6 {fill:none;fill-rule:evenodd;font-size:12px;overflow:visible;stroke-linecap:square;stroke-miterlimit:3}
	]]>
	</style>

	<g>
		<title>Page-1</title>
		<g id="group2294-1" transform="translate(19.125,-39.685)">
			<title>Identity and Access</title>
			<g id="group2295-2">
				<title> Dashboard_Identityaccess-pathf</title>
				<g id="shape2296-3" transform="translate(2.8777E-13,-3.86931)">
					<title>path6</title>
					<path d="M18.98 85.25 A11.3379 11.4223 -180 0 0 30.32 73.83 L30.32 73.68 A11.4229 11.508 -180 0 0 7.48 73.91
								 L7.48 73.93 A11.3379 11.4223 -180 0 0 18.82 85.25 L18.99 85.25 L18.98 85.25 L18.98 85.25 ZM34.48
								 99.9 A4.68573 4.72062 0 0 1 34.48 93.33 L34.48 93.33 L38.44 89.39 L38.44 87.68 L27.1 87.68 L19.18
								 98.31 L11.34 87.68 L0 87.68 L0 115.5 L38.44 115.5 L38.44 103.88 L34.48 99.9 Z" class="st1"/>
				</g>
				<g id="shape2297-5" transform="translate(37.1174,2.84217E-13)">
					<title>path8</title>
					<path d="M18.57 96.1 C19.19 95.44 19.58 94.55 19.58 93.57 C19.58 92.58 19.19 91.69 18.57 91.03 L18.57 91.03 L12.3
								 84.72 C11.65 84.09 10.76 83.7 9.79 83.7 C8.81 83.7 7.92 84.09 7.27 84.72 L7.27 84.72 L1.01 91.03
								 C0.38 91.69 0 92.58 0 93.57 C0 94.55 0.38 95.44 1.01 96.1 L1.01 96.1 L6.41 101.54 L6.41 112.16 L9.72
								 115.5 L12.56 112.65 L14.29 110.92 L12.49 109.19 L14.22 107.47 L12.62 105.87 L14.39 104.08 L12.67
								 102.35 L12.67 101.87 L18.57 96.1 ZM9.85 86.21 A2.08333 2.09885 0 1 1 7.77 88.38 L7.77 88.36 C7.77
								 87.19 8.69 86.24 9.85 86.21 L9.85 86.21 Z" class="st2"/>
				</g>
				<g id="shape2298-7" transform="translate(45.1265,-2.59857)">
					<title>path10</title>
					<path d="M0 114.28 L1.35 115.5 L1.35 105.37 L0 104.75 L0 114.28 Z" class="st3"/>
				</g>
				<g id="shape2299-9" transform="translate(40.8323,-18.6755)">
					<title>path12</title>
					<path d="M0 111.06 L11.78 111.06 L11.78 112.79 L0 112.79 L0 111.06 ZM0 113.78 L11.78 113.78 L11.78 115.5 L0 115.5
								 L0 113.78 Z" class="st4"/>
				</g>
				<g id="shape2300-11" transform="translate(12.9677,-3.86931)">
					<title>path14</title>
					<path d="M16.8 77.27 A11.5115 11.5972 -180 0 0 9.45 62.77 L9.37 62.75 L5.29 85.25 L6.01 85.25 L6.16 85.25 A11.1023
								 11.1849 -180 0 0 16.78 77.35 L16.8 77.27 L16.8 77.27 ZM21.52 99.9 A4.68573 4.72062 0 0 1 21.52 93.33
								 L21.51 93.33 L25.3 89.59 L25.3 87.68 L13.96 87.68 L6.04 98.31 L3.63 94.93 L0 115.26 L25.23 115.5
								 L25.23 103.67 L21.52 99.9 Z" class="st5"/>
				</g>
			</g>
		</g>
	</g>
</svg>
