<?xml version="1.0" encoding="UTF-8" standalone="no"?>
<!DOCTYPE svg PUBLIC "-//W3C//DTD SVG 1.1//EN" "http://www.w3.org/Graphics/SVG/1.1/DTD/svg11.dtd">
<!-- Generated by Microsoft Visio, SVG Export Intune Tenant Status.svg Page-1 -->
<svg xmlns="http://www.w3.org/2000/svg" xmlns:xlink="http://www.w3.org/1999/xlink" xmlns:ev="http://www.w3.org/2001/xml-events"
		width="0.944882in" height="1.41732in" viewBox="0 0 68.0315 102.047" xml:space="preserve" color-interpolation-filters="sRGB"
		class="st7">
	<style type="text/css">
	<![CDATA[
		.st1 {fill:url(#grad0-5);stroke:none;stroke-linecap:butt;stroke-width:0.75}
		.st2 {fill:#ffffff;fill-opacity:0.8;stroke:none;stroke-linecap:butt;stroke-width:0.75}
		.st3 {fill:url(#grad0-11);stroke:none;stroke-linecap:butt;stroke-width:0.75}
		.st4 {fill:#b31b1b;stroke:none;stroke-linecap:butt;stroke-width:0.75}
		.st5 {fill:#f2f2f2}
		.st6 {stroke:none;stroke-linecap:butt;stroke-width:0.75}
		.st7 {fill:none;fill-rule:evenodd;font-size:12px;overflow:visible;stroke-linecap:square;stroke-miterlimit:3}
	]]>
	</style>

	<defs id="Patterns_And_Gradients">
		<linearGradient id="grad0-5" x1="0" y1="0" x2="1" y2="0" gradientTransform="rotate(90 0.5 0.5)">
			<stop offset="0.22" stop-color="#32d4f5" stop-opacity="1"/>
			<stop offset="1" stop-color="#198ab3" stop-opacity="1"/>
		</linearGradient>
		<linearGradient id="grad0-11" x1="0" y1="0" x2="1" y2="0" gradientTransform="rotate(85.385943817791 0.5 0.5)">
			<stop offset="0.22" stop-color="#32d4f5" stop-opacity="1"/>
			<stop offset="1" stop-color="#198ab3" stop-opacity="1"/>
		</linearGradient>
	</defs>
	<g>
		<title>Page-1</title>
		<g id="group2120-1" transform="translate(5.66929,-39.685)">
			<title>Intune Tenant Status</title>
			<g id="shape2121-2" transform="translate(0,-4.04472)">
				<title>Sheet.2121</title>
				<path d="M46.06 102.05 A4.5 4.24528 -180 0 0 50.63 97.87 A2.69291 2.54048 -180 0 0 50.63 97.37 C48.86 84 40.78 73.13
							 25.37 73.13 C9.96 73.13 1.56 82.26 0 97.33 A4.53543 4.27871 -180 0 0 4.04 102.01 L46.06 102.01 L46.06
							 102.05 Z" class="st1"/>
			</g>
			<g id="shape2122-6" transform="translate(17.7165,-13.2373)">
				<title>Sheet.2122</title>
				<path d="M7.62 85.4 A13.8898 13.1036 0 0 1 0 83.26 L7.55 102.05 L15.09 83.39 A14.1732 13.371 0 0 1 7.62 85.4 Z"
						class="st2"/>
			</g>
			<g id="shape2123-8" transform="translate(11.126,-29.8841)">
				<title>Sheet.2123</title>
				<ellipse cx="14.2087" cy="88.6428" rx="14.2087" ry="13.4044" class="st3"/>
			</g>
			<g id="shape2124-12" transform="translate(31.8898,0)">
				<title>Sheet.2124</title>
				<path d="M18.81 79.85 A6.27165 5.91665 -180 0 0 12.4 83.8 A6.23622 5.88323 -180 0 0 5.99 79.85 C0.18 80.45 0 85.7
							 0 87.77 C0 89.24 0.35 93.92 12.33 102.05 C24.48 93.82 24.8 89.24 24.8 87.77 C24.8 85.7 24.8 80.45 18.81
							 79.85 Z" class="st4"/>
			</g>
			<g id="shape2125-14" transform="translate(33.7677,-5.44867)">
				<title>Sheet.2125</title>
				<path d="M22.93 92.59 L17.26 92.59 a0.389764 0.367702 -180 0 0 -0.389764 0.200565 L15.09 95.56 a0.248031 0.233992
							 0 0 1 -0.389764 1.42109E-14 L12.3 90.85 a0.46063 0.434557 -180 0 0 -0.850394 -1.42109E-14 L9.04 97.53
							 a0.212598 0.200565 0 0 1 -0.425197 0 L6.52 92.99 a0.46063 0.434557 -180 0 0 -0.814961 0 L2.94 97.74
							 a0.389764 0.367702 0 0 1 -0.389764 0.200565 L0 97.94 A16.2992 15.3766 -180 0 0 1.31 99.64 L3.61 99.64
							 a0.389764 0.367702 -180 0 0 0.389764 -0.233992 L5.95 96.06 L8.57 101.78 a0.46063 0.434557 -180 0 0 0.850394
							 0 L12.15 94.16 L14.53 98.44 a0.496063 0.467984 -180 0 0 0.814961 0 L17.96 94.23 a0.531496 0.501411 0
							 0 1 0.389764 -0.233992 L22.93 93.99 L22.93 92.59 Z" class="st5"/>
				<path d="M22.93 92.59 L17.26 92.59 a0.389764 0.367702 -180 0 0 -0.389764 0.200565 L15.09 95.56 a0.248031 0.233992
							 0 0 1 -0.389764 1.42109E-14 L12.3 90.85 a0.46063 0.434557 -180 0 0 -0.850394 -1.42109E-14 L9.04 97.53
							 a0.212598 0.200565 0 0 1 -0.425197 0 L6.52 92.99 a0.46063 0.434557 -180 0 0 -0.814961 0 L2.94 97.74
							 a0.389764 0.367702 0 0 1 -0.389764 0.200565 L0 97.94 A16.2992 15.3766 -180 0 0 1.31 99.64 L3.61 99.64
							 a0.389764 0.367702 -180 0 0 0.389764 -0.233992 L5.95 96.06 L8.57 101.78 a0.46063 0.434557 -180 0 0 0.850394
							 0 L12.15 94.16 L14.53 98.44 a0.496063 0.467984 -180 0 0 0.814961 0 L17.96 94.23 a0.531496 0.501411 0
							 0 1 0.389764 -0.233992 L22.93 93.99" class="st6"/>
			</g>
		</g>
	</g>
</svg>
