<?xml version="1.0" encoding="UTF-8" standalone="no"?>
<!DOCTYPE svg PUBLIC "-//W3C//DTD SVG 1.1//EN" "http://www.w3.org/Graphics/SVG/1.1/DTD/svg11.dtd">
<!-- Generated by Microsoft Visio, SVG Export IoT Solution Accelerator.svg Page-1 -->
<svg xmlns="http://www.w3.org/2000/svg" xmlns:xlink="http://www.w3.org/1999/xlink" xmlns:ev="http://www.w3.org/2001/xml-events"
		width="1.02659in" height="1.49754in" viewBox="0 0 73.9142 107.823" xml:space="preserve" color-interpolation-filters="sRGB"
		class="st7">
	<style type="text/css">
	<![CDATA[
		.st1 {fill:#2074bb;stroke:none;stroke-linecap:butt;stroke-width:11.4453}
		.st2 {fill:#ffffff;stroke:none;stroke-linecap:butt;stroke-width:11.4453}
		.st3 {fill:#c0dcef;stroke:none;stroke-linecap:butt;stroke-width:11.4453}
		.st4 {fill:#69abdb;stroke:none;stroke-linecap:butt;stroke-width:11.4453}
		.st5 {fill:#3b8fcd;stroke:none;stroke-linecap:butt;stroke-width:11.4453}
		.st6 {fill:#9bc7e6;stroke:none;stroke-linecap:butt;stroke-width:11.4453}
		.st7 {fill:none;fill-rule:evenodd;font-size:12px;overflow:visible;stroke-linecap:square;stroke-miterlimit:3}
	]]>
	</style>

	<g>
		<title>Page-1</title>
		<g id="group2044-1" transform="translate(11.4453,-39.685)">
			<title>IoT Solution Accelerator</title>
			<g id="group2045-2">
				<title>layer1</title>
				<g id="shape2046-3" transform="translate(2.74169,-2.68913)">
					<title>path2</title>
					<path d="M22.78 107.82 a1.01844 0.999332 0 0 1 -0.507692 -0.133497 L0.51 95.36 a1.01539 0.996343 0 0 1 -0.50769
								 -0.862832 L0 69.84 a1.01539 0.996343 0 0 1 0.50769 -0.862832 L22.27 56.64 a1.01539 0.996343 0 0
								 1 1.01538 2.13163E-14 L45.05 68.97 a1.01539 0.996343 0 0 1 0.50769 0.862832 L45.56 94.5 a1.01539
								 0.996343 0 0 1 -0.50769 0.862832 L23.29 107.69 a1.01844 0.999332 0 0 1 -0.50769 0.133497 ZM2.03
								 93.92 L22.78 105.68 L43.53 93.92 L43.53 70.41 L22.78 58.66 L2.03 70.41 L2.03 93.92 Z" class="st1"/>
				</g>
				<g id="shape2047-5" transform="translate(21.7651,-49.322)">
					<title>circle4</title>
					<ellipse cx="3.75594" cy="104.138" rx="3.75594" ry="3.68547" class="st1"/>
				</g>
				<g id="shape2048-7" transform="translate(1.01918E-13,-36.9932)">
					<title>circle6</title>
					<ellipse cx="3.75594" cy="104.138" rx="3.75594" ry="3.68547" class="st1"/>
				</g>
				<g id="shape2049-9" transform="translate(43.5117,-36.9932)">
					<title>circle8</title>
					<ellipse cx="3.75594" cy="104.138" rx="3.75594" ry="3.68547" class="st1"/>
				</g>
				<g id="shape2050-11" transform="translate(43.5117,-12.3307)">
					<title>circle10</title>
					<ellipse cx="3.75594" cy="104.138" rx="3.75594" ry="3.68547" class="st1"/>
				</g>
				<g id="shape2051-13" transform="translate(1.01918E-13,-12.3307)">
					<title>circle12</title>
					<ellipse cx="3.75594" cy="104.138" rx="3.75594" ry="3.68547" class="st1"/>
				</g>
				<g id="shape2052-15" transform="translate(21.7712,1.42109E-14)">
					<title>circle14</title>
					<ellipse cx="3.75594" cy="104.138" rx="3.75594" ry="3.68547" class="st1"/>
				</g>
				<g id="shape2053-17" transform="translate(12.6042,-15.6804)">
					<title>circle16</title>
					<ellipse cx="12.9077" cy="95.1577" rx="12.9077" ry="12.6655" class="st2"/>
				</g>
				<g id="shape2054-19" transform="translate(15.6661,-14.6851)">
					<title>path18</title>
					<path d="M9.84 107.82 A13.9231 13.6619 0 1 1 23.77 94.16 A13.9393 13.6778 0 0 1 9.84 107.82 ZM9.84 82.49 A11.8923
								 11.6692 -180 1 0 21.74 94.16 A11.9065 11.6831 -180 0 0 9.84 82.49 Z" class="st1"/>
				</g>
				<g id="shape2055-21" transform="translate(2.78635,-2.68913)">
					<title>path20</title>
					<path d="M11.64 76.67 a1.01032 0.991361 0 0 1 -0.49349 -0.125549 L0.47 70.71 a1.01573 0.996672 0 0 1 0.990013
								 -1.74061 L12.14 74.8 a1.01539 0.996343 0 0 1 -0.49656 1.86615 L11.64 76.67 ZM22.73 70.5 a1.01539
								 0.996343 0 0 1 -1.01542 -0.996342 L21.72 57.51 a1.0154 0.996349 0 0 1 2.0308 0 L23.75 69.5 a1.01539
								 0.996343 0 0 1 -1.01538 0.996342 L22.73 70.5 ZM34.03 76.5 a1.01539 0.996343 0 0 1 -0.491457 -1.86914
								 L44.01 68.96 a1.01553 0.99648 0 1 1 0.981877 1.7446 L34.52 76.37 a1.01235 0.993354 0 0 1 -0.490458
								 0.124532 L34.03 76.5 ZM44.5 95.49 a1.00727 0.988372 0 0 1 -0.551362 -0.159402 L33.66 88.78 a1.01539
								 0.996343 0 0 1 1.10472 -1.67186 L45.05 93.66 a1.01539 0.996343 0 0 1 -0.553399 1.83327 ZM22.73 107.82
								 a1.01539 0.996343 0 0 1 -1.01542 -0.996346 L21.72 95.18 a1.0154 0.996349 0 0 1 2.0308 0 L23.75 106.83
								 a1.01539 0.996343 0 0 1 -1.01538 0.996346 ZM0.97 95.49 a1.01539 0.996343 0 0 1 -0.574735 -1.81832
								 L10.53 86.86 a1.01539 0.996343 0 1 1 1.1464 1.64396 L1.54 95.32 a1.00829 0.989369 0 0 1 -0.571664
								 0.174354 L0.97 95.49 ZM22.72 83.16 a1.01539 0.996343 0 0 1 -1.06581E-14 -1.99269 L31.55 81.17 a1.01539
								 0.996343 0 0 1 0 1.99269 L22.72 83.16 Z" class="st1"/>
				</g>
				<g id="shape2056-23" transform="translate(23.9867,-26.8654)">
					<title>circle22</title>
					<ellipse cx="1.50887" cy="106.343" rx="1.50887" ry="1.48057" class="st1"/>
				</g>
				<g id="shape2057-25" transform="translate(16.9338,-22.6379)">
					<title>path24</title>
					<path d="M0 102.6 A8.60241 8.44102 -180 0 0 2.5 107.82 L4.82 105.54 A5.45571 5.35335 0 0 1 3.2 102.6 L0 102.6
								 Z" class="st3"/>
				</g>
				<g id="shape2058-27" transform="translate(19.4114,-32.5107)">
					<title>path26</title>
					<path d="M5.61 103.25 A8.60038 8.43903 -180 0 0 0 105.72 L2.15 107.82 A5.44759 5.34538 0 0 1 5.61 106.19 L5.61
								 103.25 Z" class="st4"/>
				</g>
				<g id="shape2059-29" transform="translate(26.0348,-32.5107)">
					<title>path28</title>
					<path d="M5.61 105.72 A8.60038 8.43903 -180 0 0 0 103.25 L0 106.19 A5.44759 5.34538 0 0 1 3.46 107.82 L5.61 105.72
								 Z" class="st5"/>
				</g>
				<g id="shape2060-31" transform="translate(16.9054,-28.8601)">
					<title>path30</title>
					<path d="M1.84 102.82 A8.58312 8.42209 -180 0 0 0 107.82 L3.14 107.82 A5.44759 5.34538 0 0 1 4.02 104.96 L1.84
								 102.82 Z" class="st6"/>
				</g>
				<g id="shape2061-33" transform="translate(30.1309,-30.4642)">
					<title>path32</title>
					<path d="M3.81 107.82 A8.58008 8.4191 -180 0 0 2.18 104.42 L0 106.56 A5.50953 5.40616 0 0 1 0.61 107.82 L3.81
								 107.82 Z" class="st1"/>
				</g>
			</g>
		</g>
	</g>
</svg>
