<?xml version="1.0" encoding="UTF-8" standalone="no"?>
<!DOCTYPE svg PUBLIC "-//W3C//DTD SVG 1.1//EN" "http://www.w3.org/Graphics/SVG/1.1/DTD/svg11.dtd">
<!-- Generated by Microsoft Visio, SVG Export O365 - Publisher.svg Page-1 -->
<svg xmlns="http://www.w3.org/2000/svg" xmlns:xlink="http://www.w3.org/1999/xlink" xmlns:ev="http://www.w3.org/2001/xml-events"
		width="1.29289in" height="1.59133in" viewBox="0 0 93.088 114.576" xml:space="preserve" color-interpolation-filters="sRGB"
		class="st8">
	<style type="text/css">
	<![CDATA[
		.st1 {fill:#038387;stroke:none;stroke-linecap:butt;stroke-width:18.1976}
		.st2 {fill:#37c6d0;stroke:none;stroke-linecap:butt;stroke-width:18.1976}
		.st3 {fill:#1a9ba1;stroke:none;stroke-linecap:butt;stroke-width:18.1976}
		.st4 {fill:#000000;fill-opacity:0.098;stroke:none;stroke-linecap:butt;stroke-width:18.1976}
		.st5 {fill:#000000;fill-opacity:0.2;stroke:none;stroke-linecap:butt;stroke-width:18.1976}
		.st6 {fill:#f9f7f7;stroke:none;stroke-linecap:butt;stroke-width:18.1976}
		.st7 {fill:none;stroke:none;stroke-linecap:butt;stroke-width:18.1976}
		.st8 {fill:none;fill-rule:evenodd;font-size:12px;overflow:visible;stroke-linecap:square;stroke-miterlimit:3}
	]]>
	</style>

	<g>
		<title>Page-1</title>
		<g id="group1433-1" transform="translate(18.1976,-39.685)">
			<title>O365 - Publisher</title>
			<g id="group1434-2">
				<title>_32</title>
				<g id="shape1435-3" transform="translate(38.9764,-7.08661)">
					<title>rect4</title>
					<path d="M0 112.25 A2.21816 2.32821 -180 0 0 2.22 114.58 L15.5 114.58 A2.21816 2.32821 -180 0 0 17.72 112.25
								 L17.72 74.38 A2.21816 2.32821 -180 0 0 15.5 72.06 L2.22 72.06 A2.21816 2.32821 -180 0 0 -0 74.38
								 L0 112.25 Z" class="st1"/>
				</g>
				<g id="shape1436-5" transform="translate(14.1732,-3.54331)">
					<title>path6</title>
					<path d="M0 101.29 L0 111.92 A2.49094 2.49094 -90 0 0 2.28 114.58 L33.15 114.58 A2.49094 2.49094 -90 0 0 35.43
								 111.92 L35.43 101.29 A2.48917 2.48917 -90 0 0 33.15 98.63 L2.28 98.63 A2.48917 2.48917 -90 0 0 0
								 101.29 Z" class="st1"/>
				</g>
				<g id="shape1437-7" transform="translate(14.1732,-28.3465)">
					<title>path8</title>
					<path d="M33.15 89.77 L2.28 89.77 A2.26772 2.26772 -90 0 0 -0 92.03 L0 114.58 L35.43 114.58 L35.43 92.03 A2.26772
								 2.26772 -90 0 0 33.15 89.77 Z" class="st2"/>
				</g>
				<g id="shape1438-9" transform="translate(14.1732,-15.9449)">
					<title>rect10</title>
					<rect x="0" y="102.174" width="35.4331" height="12.4016" class="st3"/>
				</g>
				<g id="shape1439-11" transform="translate(14.1732,-10.6299)">
					<title>path12</title>
					<path d="M15.35 80.91 L0 80.91 L0 114.58 L15.35 114.58 A2.3687 2.3687 -90 0 0 17.72 112.21 L17.72 83.28 A2.3687
								 2.3687 -90 0 0 15.35 80.91 Z" class="st4"/>
				</g>
				<g id="shape1440-13" transform="translate(14.1732,-8.85827)">
					<title>path14</title>
					<path d="M13.58 80.91 L0 80.91 L0 114.58 L13.58 114.58 A2.3687 2.3687 -90 0 0 15.94 112.21 L15.94 83.28 A2.3687
								 2.3687 -90 0 0 13.58 80.91 Z" class="st5"/>
				</g>
				<g id="shape1441-15" transform="translate(14.1732,-12.4016)">
					<title>path16</title>
					<path d="M13.58 84.46 L0 84.46 L0 114.58 L13.58 114.58 A2.3687 2.3687 -90 0 0 15.94 112.21 L15.94 86.82 A2.3687
								 2.3687 -90 0 0 13.58 84.46 Z" class="st5"/>
				</g>
				<g id="shape1442-17" transform="translate(14.1732,-12.4016)">
					<title>path18</title>
					<path d="M11.81 84.46 L0 84.46 L0 114.58 L11.81 114.58 A2.3687 2.3687 -90 0 0 14.17 112.21 L14.17 86.82 A2.3687
								 2.3687 -90 0 0 11.81 84.46 Z" class="st5"/>
				</g>
				<g id="shape1443-19" transform="translate(3.57487E-07,-14.1732)">
					<title>path20</title>
					<path d="M25.98 114.58 L2.36 114.58 A2.37047 2.37047 90 0 1 0 112.21 L0 88.59 A2.3687 2.3687 90 0 1 2.36 86.23
								 L25.98 86.23 A2.3687 2.3687 90 0 1 28.35 88.59 L28.35 112.21 A2.3687 2.3687 90 0 1 25.98 114.58
								 Z" class="st1"/>
				</g>
				<g id="shape1444-21" transform="translate(7.16102,-19.5148)">
					<title>path22</title>
					<path d="M7.07 96.89 A7.37539 7.37539 90 0 1 11.95 98.3 A5.08996 5.08996 90 0 1 13.64 102.43 A4.82598 4.82598
								 90 0 1 12.81 105.24 A5.59665 5.59665 90 0 1 10.43 107.34 A8.08583 8.08583 90 0 1 6.85 108.09 L3.47
								 108.09 L3.47 114.58 L0 114.58 L0 96.89 L7.07 96.89 ZM3.47 105.17 L6.46 105.17 A3.87815 3.87815 -90
								 0 0 9.09 104.39 A1.94882 1.94882 -90 0 0 9.98 102.57 C9.98 100.61 8.84 99.64 6.56 99.64 L3.47 99.64
								 L3.47 105.17 Z" class="st6"/>
				</g>
				<g id="shape1445-23">
					<title>rect24</title>
					<rect x="0" y="57.8826" width="56.6929" height="56.6929" class="st7"/>
				</g>
				<g id="shape1446-25" transform="translate(49.6063,-7.08661)">
					<title>rect26</title>
					<rect x="0" y="72.0558" width="1.77165" height="42.5197" class="st5"/>
				</g>
			</g>
		</g>
	</g>
</svg>
