<?xml version="1.0" encoding="UTF-8" standalone="no"?>
<!DOCTYPE svg PUBLIC "-//W3C//DTD SVG 1.1//EN" "http://www.w3.org/Graphics/SVG/1.1/DTD/svg11.dtd">
<!-- Generated by Microsoft Visio, SVG Export On-Premises Data Gateway.svg Page-1 -->
<svg xmlns="http://www.w3.org/2000/svg" xmlns:xlink="http://www.w3.org/1999/xlink" xmlns:ev="http://www.w3.org/2001/xml-events"
		width="1.70378in" height="1.72974in" viewBox="0 0 122.672 124.541" xml:space="preserve" color-interpolation-filters="sRGB"
		class="st5">
	<style type="text/css">
	<![CDATA[
		.st1 {fill:url(#grad0-5);stroke:none;stroke-linecap:butt;stroke-width:32.975}
		.st2 {fill:#50e6ff;stroke:none;stroke-linecap:butt;stroke-width:32.975}
		.st3 {fill:#0078d4;stroke:none;stroke-linecap:butt;stroke-width:32.975}
		.st4 {fill:#ffffff;stroke:none;stroke-linecap:butt;stroke-width:32.975}
		.st5 {fill:none;fill-rule:evenodd;font-size:12px;overflow:visible;stroke-linecap:square;stroke-miterlimit:3}
	]]>
	</style>

	<defs id="Patterns_And_Gradients">
		<linearGradient id="grad0-5" x1="0" y1="0" x2="1" y2="0" gradientTransform="rotate(-90 0.5 0.5)">
			<stop offset="0" stop-color="#0078d4" stop-opacity="1"/>
			<stop offset="0.82" stop-color="#5ea0ef" stop-opacity="1"/>
		</linearGradient>
	</defs>
	<g>
		<title>Page-1</title>
		<g id="group1357-1" transform="translate(33.0044,-37.7008)">
			<title>On-Premises Data Gateway</title>
			<g id="shape1358-2" transform="translate(0,-13.9794)">
				<title>path11</title>
				<path d="M56.69 112.04 A12.7559 12.6597 -180 0 0 45.64 99.89 A16.063 15.9418 -180 0 0 29.1 84.66 A16.4724 16.3482
							 -180 0 0 13.35 95.29 A15.2441 15.1291 -180 0 0 0 109.83 A15.4016 15.2854 -180 0 0 15.97 124.52 A9.98425
							 9.90892 -180 0 0 17.35 124.52 L43.21 124.52 A2.45669 2.43816 -180 0 0 43.91 124.52 A12.8819 12.7847
							 -180 0 0 56.69 112.04 Z" class="st1"/>
			</g>
			<g id="shape1359-6" transform="translate(4.24426,-14.0038)">
				<title>path13</title>
				<path d="M25.58 109.47 A14.9291 14.8165 -180 1 0 10.68 124.54 L25.58 124.54 L25.58 109.47 Z" class="st2"/>
			</g>
			<g id="shape1360-8" transform="translate(22.4495,-2.70006E-13)">
				<title>path15</title>
				<path d="M14.72 117.41 L7.63 124.42 a0.314961 0.312584 0 0 1 -0.503937 0 L0.07 117.41 a0.377953 0.375101 0 0 1 0.251968
							 -0.625168 L4.48 116.79 a0.346457 0.343843 -180 0 0 0.346458 -0.437618 L4.83 107.29 a0.346457 0.343843
							 0 0 1 0.377952 -0.312585 L9.58 106.97 a0.346457 0.343843 0 0 1 0.346457 0.343843 L9.93 116.35 a0.346457
							 0.343843 -180 0 0 0.377953 0.343843 L14.46 116.7 a0.38349 0.380596 0 0 1 0.251968 0.718943 Z"
						class="st3"/>
			</g>
			<g id="shape1361-10" transform="translate(22.4701,-14.035)">
				<title>path17</title>
				<path d="M0.05 114.19 L7.01 107.29 a0.535433 0.531393 0 0 1 0.72441 4.26326E-14 L14.7 114.19 a0.346457 0.343843 0
							 0 1 -0.251968 0.59391 L10.29 114.79 a0.377953 0.375101 -180 0 0 -0.377953 0.375101 L9.91 124.54 L4.81
							 124.54 L4.81 115.16 a0.377953 0.375101 -180 0 0 -0.346458 -0.40636 L0.3 114.76 a0.346457 0.343843 0
							 0 1 -0.251968 -0.562651 Z" class="st4"/>
			</g>
		</g>
	</g>
</svg>
