<?xml version="1.0" encoding="UTF-8" standalone="no"?>
<!DOCTYPE svg PUBLIC "-//W3C//DTD SVG 1.1//EN" "http://www.w3.org/Graphics/SVG/1.1/DTD/svg11.dtd">
<!-- Generated by Microsoft Visio, SVG Export Playbooks.svg Page-1 -->
<svg xmlns="http://www.w3.org/2000/svg" xmlns:xlink="http://www.w3.org/1999/xlink" xmlns:ev="http://www.w3.org/2001/xml-events"
		width="1.1274in" height="1.24087in" viewBox="0 0 81.1729 89.3424" xml:space="preserve" color-interpolation-filters="sRGB"
		class="st4">
	<style type="text/css">
	<![CDATA[
		.st1 {fill:#59b4d9;stroke:none;stroke-linecap:butt;stroke-width:12.24}
		.st2 {fill:#57a300;stroke:none;stroke-linecap:butt;stroke-width:12.24}
		.st3 {fill:#0072c6;stroke:none;stroke-linecap:butt;stroke-width:12.24}
		.st4 {fill:none;fill-rule:evenodd;font-size:12px;overflow:visible;stroke-linecap:square;stroke-miterlimit:3}
	]]>
	</style>

	<g>
		<title>Page-1</title>
		<g id="group1263-1" transform="translate(12.24,-31.748)">
			<title>Playbooks</title>
			<g id="group1264-2">
				<title>g18</title>
				<g id="shape1265-3" transform="translate(15.9874,-11.8062)">
					<title>path4</title>
					<path d="M13.49 74.15 L13.49 68.3 L10.66 68.3 L10.66 74.15 C10.66 75.2 9.75 76.13 8.28 76.6 L4.42 77.42 C1.81
								 78.24 0 80.34 0 82.68 L0 89.34 L2.83 89.34 L2.83 82.68 C2.83 81.63 3.74 80.69 5.22 80.22 L9.07 79.29
								 C11.68 78.59 13.49 76.48 13.49 74.15 Z" class="st1"/>
				</g>
				<g id="shape1266-5" transform="translate(12.4724,-6.42909)">
					<title>path6</title>
					<path d="M9.75 87 L9.75 81.63 C9.75 80.34 8.73 79.29 7.48 79.29 L2.27 79.29 C1.02 79.29 0 80.34 0 81.63 L0 87
								 C0 88.29 1.02 89.34 2.27 89.34 L7.48 89.34 C8.73 89.34 9.75 88.29 9.75 87 Z" class="st2"/>
				</g>
				<g id="shape1267-7" transform="translate(26.3055,-11.5724)">
					<title>path8</title>
					<path d="M0 73.91 L0 68.07 L2.83 68.07 L2.83 73.91 C2.83 74.96 3.74 75.9 5.22 76.37 L9.98 77.42 C12.59 78.24
								 14.4 80.34 14.4 82.68 L14.4 89.34 L11.57 89.34 L11.57 82.68 C11.57 81.63 10.66 80.69 9.18 80.22
								 L4.42 79.17 C1.81 78.35 0 76.25 0 73.91 Z" class="st1"/>
				</g>
				<g id="shape1268-9" transform="translate(34.4693,-6.19531)">
					<title>path10</title>
					<path d="M0 87 L0 81.63 C0 80.34 1.02 79.29 2.27 79.29 L7.48 79.29 C8.73 79.29 9.75 80.34 9.75 81.63 L9.75 87
								 C9.75 88.29 8.73 89.34 7.48 89.34 L2.27 89.34 C1.02 89.34 0 88.29 0 87 Z" class="st2"/>
				</g>
				<g id="shape1269-11" transform="translate(26.3055,-27.236)">
					<title>path12</title>
					<rect x="0" y="83.7315" width="3.1748" height="5.61085" class="st1"/>
				</g>
				<g id="shape1270-13" transform="translate(22.6772,-30.6259)">
					<title>path14</title>
					<path d="M7.37 81.74 L7.37 86.07 L3.17 86.07 L3.17 81.74 L7.37 81.74 ZM8.28 78.47 L2.27 78.47 C1.02 78.47 0 79.52
								 0 80.81 L0 87 C0 88.29 1.02 89.34 2.27 89.34 L8.28 89.34 C9.52 89.34 10.54 88.29 10.54 87 L10.54
								 80.81 C10.54 79.52 9.52 78.47 8.28 78.47 Z" class="st3"/>
				</g>
				<g id="shape1271-15">
					<title>path16</title>
					<path d="M8.96 89.34 C6.58 89.34 4.88 88.87 3.86 88.06 C2.83 87.12 2.38 85.6 2.38 83.38 L2.38 71.22 C2.38 69.24
								 1.59 68.18 0 68.18 L0 65.15 C1.59 65.15 2.38 64.09 2.38 61.99 L2.38 50.07 C2.38 47.85 2.83 46.21
								 3.86 45.27 C4.88 44.34 6.58 43.99 8.96 43.99 L8.96 47.03 C7.26 47.03 6.35 47.96 6.35 49.95 L6.35
								 61.64 C6.35 64.33 5.56 65.96 3.86 66.67 C5.44 67.37 6.35 69 6.35 71.69 L6.35 83.26 C6.35 84.32 6.58
								 85.13 6.92 85.6 C7.37 86.07 7.94 86.3 8.84 86.3 L8.96 89.34 C8.84 89.34 8.96 89.34 8.96 89.34 ZM47.74
								 43.99 C50.12 43.99 51.82 44.46 52.84 45.27 C53.86 46.21 54.31 47.73 54.31 49.95 L54.31 62.11 C54.31
								 64.09 55.11 65.15 56.69 65.15 L56.69 68.18 C55.11 68.18 54.31 69.24 54.31 71.34 L54.31 83.15 C54.31
								 85.37 53.86 87 52.84 87.94 C51.82 88.87 50.12 89.34 47.74 89.34 L47.74 86.3 C49.44 86.3 50.34 85.37
								 50.34 83.38 L50.34 71.69 C50.34 69 51.14 67.37 52.84 66.67 C51.25 65.96 50.34 64.33 50.34 61.64
								 L50.34 50.07 C50.34 49.01 50.12 48.2 49.78 47.73 C49.32 47.26 48.76 47.03 47.85 47.03 L47.74 43.99
								 Z" class="st1"/>
				</g>
			</g>
		</g>
	</g>
</svg>
