<?xml version="1.0" encoding="UTF-8" standalone="no"?>
<!DOCTYPE svg PUBLIC "-//W3C//DTD SVG 1.1//EN" "http://www.w3.org/Graphics/SVG/1.1/DTD/svg11.dtd">
<!-- Generated by Microsoft Visio, SVG Export Regulatory Compliance.svg Page-1 -->
<svg xmlns="http://www.w3.org/2000/svg" xmlns:xlink="http://www.w3.org/1999/xlink" xmlns:ev="http://www.w3.org/2001/xml-events"
		width="1.46629in" height="1.75677in" viewBox="0 0 105.573 126.487" xml:space="preserve" color-interpolation-filters="sRGB"
		class="st4">
	<style type="text/css">
	<![CDATA[
		.st1 {fill:#7138e3;stroke:none;stroke-linecap:butt;stroke-width:30.1093}
		.st2 {fill:url(#grad0-7);stroke:none;stroke-linecap:butt;stroke-width:30.1093}
		.st3 {fill:#ffffff}
		.st4 {fill:none;fill-rule:evenodd;font-size:12px;overflow:visible;stroke-linecap:square;stroke-miterlimit:3}
	]]>
	</style>

	<defs id="Patterns_And_Gradients">
		<linearGradient id="grad0-7" x1="0" y1="0" x2="1" y2="0" gradientTransform="rotate(90.31367395372 0.5 0.5)">
			<stop offset="0" stop-color="#ad8af2" stop-opacity="1"/>
			<stop offset="0.16" stop-color="#9569ed" stop-opacity="1"/>
			<stop offset="0.385" stop-color="#814cea" stop-opacity="1"/>
			<stop offset="0.66" stop-color="#6b2be8" stop-opacity="1"/>
			<stop offset="1" stop-color="#7138e3" stop-opacity="1"/>
		</linearGradient>
	</defs>
	<g>
		<title>Page-1</title>
		<g id="group1099-1" transform="translate(30.1093,-39.685)">
			<title>Regulatory Compliance</title>
			<g id="shape1100-2">
				<title>path4</title>
				<path d="M45.35 96.26 C45.35 111.5 27.34 123.77 23.42 126.27 A1.4268 1.46886 0 0 1 21.93 126.27 C18.01 123.78 0 111.51
							 0 96.26 L0 77.92 C0 77.54 0.15 77.17 0.41 76.9 A1.40177 1.44309 0 0 1 1.39 76.46 C15.4 76.08 12.18 69.79
							 22.68 69.79 C33.18 69.79 29.95 76.08 43.97 76.46 A1.40177 1.44309 0 0 1 44.94 76.89 A1.43181 1.47401
							 0 0 1 45.35 77.91 L45.35 96.26 L45.35 96.26 Z" class="st1"/>
			</g>
			<g id="shape1101-4" transform="translate(3.02851,-3.65402)">
				<title>path6-0-7</title>
				<path d="M38.87 99.82 C38.87 113.27 23.43 124.09 20.08 126.3 A1.19401 1.2292 0 0 1 18.8 126.3 C15.44 124.1 0 113.28
							 0 99.82 L0 83.64 C0 83.3 0.12 82.97 0.35 82.73 A1.18399 1.2189 0 0 1 1.19 82.35 C13.2 82.01 10.44 76.47
							 19.44 76.47 C28.44 76.47 25.67 82.01 37.68 82.35 A1.18399 1.2189 0 0 1 38.52 82.73 C38.74 82.97 38.87
							 83.29 38.87 83.63 L38.87 99.82 Z" class="st2"/>
			</g>
			<g id="shape1102-8" transform="translate(9.09527,-18.2257)">
				<title>path8-3</title>
				<path d="M28.46 118.47 L28.4 118.53 C27.82 119.37 26.67 119.6 25.86 119.01 L14.34 110.74 L16.48 107.59 L28.05 115.86
							 C28.86 116.45 29.03 117.64 28.46 118.47 L28.46 118.47 ZM17.57 105.15 L12.56 112.59 L5.87 107.83 L10.89
							 100.34 L17.57 105.15 ZM11.58 115.5 L12.84 113.66 L4.78 107.89 L3.51 109.73 A1.53417 1.5794 -180 0 0
							 3.86 111.87 L9.5 115.91 A1.597 1.64408 -180 0 0 11.58 115.5 ZM19.81 103.19 L18.55 105.09 L10.48 99.32
							 L11.75 97.48 C12.21 96.77 13.13 96.65 13.82 97.13 L19.47 101.17 A1.39542 1.43655 0 0 1 19.81 103.19
							 ZM14.28 122.92 L2.42 122.92 A2.43478 2.50655 -180 0 0 0 125.42 L0 126.49 L16.7 126.49 L16.7 125.42 A2.43478
							 2.50655 -180 0 0 14.28 122.92 Z" class="st3"/>
			</g>
		</g>
	</g>
</svg>
