<?xml version="1.0" encoding="UTF-8" standalone="no"?>
<!DOCTYPE svg PUBLIC "-//W3C//DTD SVG 1.1//EN" "http://www.w3.org/Graphics/SVG/1.1/DTD/svg11.dtd">
<!-- Generated by Microsoft Visio, SVG Export SQL Database Edge.svg Page-1 -->
<svg xmlns="http://www.w3.org/2000/svg" xmlns:xlink="http://www.w3.org/1999/xlink" xmlns:ev="http://www.w3.org/2001/xml-events"
		width="1.02645in" height="1.35681in" viewBox="0 0 73.9044 97.6904" xml:space="preserve" color-interpolation-filters="sRGB"
		class="st12">
	<style type="text/css">
	<![CDATA[
		.st1 {fill:#ffffff;fill-opacity:0.4;stroke:none;stroke-linecap:butt;stroke-width:10.9502}
		.st2 {fill:url(#grad0-8);stroke:none;stroke-linecap:butt;stroke-width:10.9502}
		.st3 {fill:#e8e8e8}
		.st4 {stroke:none;stroke-linecap:butt;stroke-width:10.9502}
		.st5 {fill:#50e6ff}
		.st6 {fill:#198ab3;stroke:none;stroke-linecap:butt;stroke-width:10.9502}
		.st7 {fill:url(#grad0-20);stroke:none;stroke-linecap:butt;stroke-width:10.9502}
		.st8 {fill:#0072c6;stroke:none;stroke-linecap:butt;stroke-width:10.9502}
		.st9 {fill:#e8e8e8;stroke:none;stroke-linecap:butt;stroke-width:10.9502}
		.st10 {fill:#50e6ff;stroke:none;stroke-linecap:butt;stroke-width:10.9502}
		.st11 {fill:url(#grad6-35);stroke:none;stroke-linecap:butt;stroke-width:10.9502}
		.st12 {fill:none;fill-rule:evenodd;font-size:12px;overflow:visible;stroke-linecap:square;stroke-miterlimit:3}
	]]>
	</style>

	<defs id="Patterns_And_Gradients">
		<linearGradient id="grad0-8" x1="0" y1="0" x2="1" y2="0" gradientTransform="rotate(0 0.5 0.5)">
			<stop offset="0" stop-color="#005ba1" stop-opacity="1"/>
			<stop offset="0.07" stop-color="#0060a9" stop-opacity="1"/>
			<stop offset="0.355" stop-color="#0071c8" stop-opacity="1"/>
			<stop offset="0.515" stop-color="#0078d4" stop-opacity="1"/>
			<stop offset="0.64" stop-color="#0074cd" stop-opacity="1"/>
			<stop offset="0.82" stop-color="#006abb" stop-opacity="1"/>
			<stop offset="1" stop-color="#005ba1" stop-opacity="1"/>
		</linearGradient>
		<linearGradient id="grad0-20" x1="0" y1="0" x2="1" y2="0" gradientTransform="rotate(-90 0.5 0.5)">
			<stop offset="0" stop-color="#198ab3" stop-opacity="1"/>
			<stop offset="0.095" stop-color="#209ec5" stop-opacity="1"/>
			<stop offset="0.24" stop-color="#28b6da" stop-opacity="1"/>
			<stop offset="0.395" stop-color="#2ec7e9" stop-opacity="1"/>
			<stop offset="0.565" stop-color="#31d1f2" stop-opacity="1"/>
			<stop offset="0.775" stop-color="#32d4f5" stop-opacity="1"/>
		</linearGradient>
		<radialGradient id="grad6-35" cx="1" cy="0" r="1.4">
			<stop offset="0" stop-color="#f2f2f2" stop-opacity="1"/>
			<stop offset="0.58" stop-color="#eeeeee" stop-opacity="1"/>
			<stop offset="1" stop-color="#e6e6e6" stop-opacity="1"/>
		</radialGradient>
	</defs>
	<g>
		<title>Page-1</title>
		<g id="group660-1" transform="translate(9.45301,-35.7165)">
			<title>SQL Database Edge</title>
			<g id="group661-2">
				<title>layer1</title>
				<g id="shape662-3" transform="translate(33.6837,-36.843)">
					<title>path40</title>
					<path d="M0 92.25 C4.76 93.5 5.97 94.3 10.26 97.69 C10.23 97.64 10.19 97.59 10.15 97.53 C9.95 97.22 9.74 96.93
								 9.52 96.64 C9.44 96.54 9.36 96.42 9.27 96.32 C9.08 96.09 8.87 95.88 8.66 95.67 A11.6804 11.3439
								 -180 0 0 7.64 94.74 L7.63 94.73 A11.5701 11.2368 -180 0 0 3.82 92.76 L3.64 92.7 C3.35 92.62 3.05
								 92.55 2.75 92.48 A12.4304 12.0722 -180 0 0 2.03 92.37 C1.84 92.34 1.66 92.31 1.47 92.29 A13.1169
								 12.739 -180 0 0 0.13 92.24 L0 92.25 Z" class="st1"/>
				</g>
				<g id="shape663-5" transform="translate(33.7284,-36.3056)">
					<title>path42</title>
					<path d="M5.72 86.99 C2.56 86.99 0 86.09 0 84.98 L0 95.68 C0 96.78 2.52 97.68 5.64 97.69 L5.72 97.69 C8.88 97.69
								 11.44 96.79 11.44 95.68 L11.44 84.98 C11.43 86.09 8.87 86.99 5.72 86.99 Z" class="st2"/>
				</g>
				<g id="shape664-9" transform="translate(33.7284,-47.0019)">
					<title>path44</title>
					<path d="M11.43 95.68 C11.43 96.79 8.87 97.69 5.71 97.69 C2.55 97.69 0 96.79 0 95.68 C0 94.57 2.56 93.67 5.72
								 93.67 C8.88 93.67 11.44 94.57 11.44 95.68 L11.43 95.68 Z" class="st3"/>
					<path d="M11.43 95.68 C11.43 96.79 8.87 97.69 5.71 97.69 C2.55 97.69 0 96.79 0 95.68 C0 94.57 2.56 93.67 5.72
								 93.67 C8.88 93.67 11.44 94.57 11.44 95.68" class="st4"/>
				</g>
				<g id="shape665-12" transform="translate(35.063,-47.8969)">
					<title>path46</title>
					<path d="M8.76 96.41 C8.76 97.12 6.8 97.69 4.38 97.69 C1.96 97.69 0 97.12 0 96.41 C0 95.71 1.96 95.13 4.39 95.13
								 C6.81 95.13 8.77 95.71 8.77 96.41 L8.76 96.41 Z" class="st5"/>
					<path d="M8.76 96.41 C8.76 97.12 6.8 97.69 4.38 97.69 C1.96 97.69 0 97.12 0 96.41 C0 95.71 1.96 95.13 4.39 95.13
								 C6.81 95.13 8.77 95.71 8.77 96.41" class="st4"/>
				</g>
				<g id="shape666-15" transform="translate(35.9784,-47.8919)">
					<title>path48</title>
					<path d="M3.47 96.7 A10.6038 10.2983 -180 0 0 0 97.19 A10.2303 9.9356 -180 0 0 3.47 97.69 A10.2303 9.9356 -180
								 0 0 6.94 97.19 A10.61 10.3043 -180 0 0 3.47 96.7 Z" class="st6"/>
				</g>
				<g id="shape667-17" transform="translate(6.66665,-12.9794)">
					<title>path50</title>
					<path d="M46.51 87.66 A10.4498 10.1488 -180 0 0 37.44 77.91 C37.37 71.14 31.33 65.67 23.88 65.67 A13.5153 13.1259
								 -180 0 0 10.96 74.22 C4.75 75.14 0 80.01 0 85.88 C0 92.4 5.86 97.69 13.1 97.69 C13.49 97.69 13.87
								 97.67 14.25 97.64 L35.46 97.64 A2.10952 2.04874 -180 0 0 36.02 97.56 C41.86 97.33 46.51 92.98 46.51
								 87.66 L46.51 87.66 Z" class="st7"/>
				</g>
				<g id="shape668-21">
					<title>path52</title>
					<path d="M52.17 55.08 C50.74 53.26 48.28 52.38 45.16 52.34 L45.16 55.37 C47.35 55.41 48.94 55.94 49.7 56.92 C52.33
								 60.27 47.55 71.25 33.8 81.52 C20.04 91.8 7.92 93.44 5.29 90.09 C3.8 88.19 4.72 83.84 8.28 78.55
								 A11.4827 11.1519 0 0 1 6.91 75.18 C1.83 81.95 0 88.34 2.82 91.93 C7.34 97.69 22.06 94.11 35.69 83.93
								 C49.31 73.76 56.69 60.84 52.17 55.08 Z" class="st8"/>
				</g>
				<g id="shape669-23" transform="translate(16.0981,-0.513202)">
					<title>path54</title>
					<path d="M9.81 79.34 C4.39 79.34 0 77.8 0 75.89 L0 94.24 C0 96.13 4.32 97.67 9.67 97.69 L9.81 97.69 C15.22 97.69
								 19.61 96.15 19.61 94.24 L19.61 75.89 C19.61 77.8 15.22 79.34 9.81 79.34 L9.81 79.34 Z" class="st2"/>
				</g>
				<g id="shape670-26" transform="translate(16.0981,-18.863)">
					<title>path56</title>
					<path d="M19.61 94.24 C19.61 96.15 15.22 97.69 9.81 97.69 C4.39 97.69 0 96.15 0 94.24 C0 92.34 4.39 90.79 9.81
								 90.79 C15.22 90.79 19.61 92.34 19.61 94.24 Z" class="st9"/>
				</g>
				<g id="shape671-28" transform="translate(18.3876,-20.3986)">
					<title>path58</title>
					<path d="M15.04 95.5 C15.04 96.71 11.67 97.69 7.52 97.69 C3.37 97.69 0 96.71 0 95.5 C0 94.29 3.37 93.3 7.52 93.3
								 C11.67 93.3 15.04 94.29 15.04 95.5 Z" class="st10"/>
				</g>
				<g id="shape672-30" transform="translate(19.95,-20.3986)">
					<title>path60</title>
					<path d="M5.96 96 A18.1681 17.6447 -180 0 0 0 96.83 A17.5513 17.0456 -180 0 0 5.96 97.69 A17.5544 17.0486 -180
								 0 0 11.91 96.83 A18.1795 17.6558 -180 0 0 5.96 96 Z" class="st6"/>
				</g>
				<g id="shape673-32" transform="translate(18.48,-6.91703)">
					<title>path62</title>
					<path d="M13.39 95.03 L13.39 90.02 L11.96 90.02 L11.96 96.15 L15.73 96.15 L15.73 95.03 L13.39 95.03 ZM2.48 92.56
								 A3.10395 3.01452 0 0 1 1.69 92.1 a0.662606 0.643516 0 0 1 -0.191462 -0.476815 a0.549225 0.533401
								 0 0 1 0.237067 -0.451576 A1.07661 1.04559 0 0 1 2.38 91 A2.49648 2.42455 0 0 1 3.84 91.43 L3.84
								 90.15 A4.16807 4.04799 -180 0 0 2.31 89.91 A2.57345 2.49931 -180 0 0 0.63 90.41 A1.67264 1.62445
								 -180 0 0 -0 91.74 A2.07311 2.01339 -180 0 0 1.45 93.53 A4.22632 4.10456 0 0 1 2.39 94.06 a0.653244
								 0.634424 0 0 1 0.231956 0.483878 a0.549225 0.533401 0 0 1 -0.241392 0.453603 A1.13486 1.10216 0
								 0 1 1.7 95.17 A2.52768 2.45486 0 0 1 0.03 94.55 L0.03 95.92 A3.43265 3.33375 -180 0 0 1.66 96.26
								 A2.9292 2.8448 -180 0 0 3.46 95.78 A1.64663 1.59919 -180 0 0 4.12 94.43 A1.58526 1.53959 -180 0
								 0 3.74 93.38 A3.89554 3.78331 -180 0 0 2.48 92.56 L2.48 92.56 ZM10.41 94.92 A3.91635 3.80351 -180
								 0 0 10.54 91.41 A2.74092 2.66195 -180 0 0 9.46 90.3 A3.05194 2.96401 -180 0 0 7.9 89.91 A3.27766
								 3.18323 -180 0 0 6.25 90.31 A2.83038 2.74883 -180 0 0 5.12 91.47 A3.74471 3.63682 -180 0 0 4.72
								 93.17 A3.49403 3.39336 -180 0 0 5.09 94.73 A2.78773 2.70741 -180 0 0 6.13 95.83 A3.0561 2.96805
								 -180 0 0 7.65 96.26 L8.96 97.69 L10.81 97.69 L8.98 96.04 A2.70452 2.62659 -180 0 0 10.41 94.92 L10.41
								 94.92 ZM8.99 94.55 A1.42299 1.38199 0 0 1 7.82 95.07 A1.40115 1.36078 0 0 1 6.66 94.53 A2.71804
								 2.63973 0 0 1 6.67 91.65 A1.44275 1.40119 0 0 1 7.85 91.1 A1.35226 1.3133 0 0 1 9 91.64 A2.47671
								 2.40535 0 0 1 9.41 93.12 A2.26763 2.2023 0 0 1 8.99 94.55 L8.99 94.55 Z" class="st11"/>
				</g>
			</g>
		</g>
	</g>
</svg>
