<?xml version="1.0" encoding="UTF-8" standalone="no"?>
<!DOCTYPE svg PUBLIC "-//W3C//DTD SVG 1.1//EN" "http://www.w3.org/Graphics/SVG/1.1/DTD/svg11.dtd">
<!-- Generated by Microsoft Visio, SVG Export Storage Account Container.svg Page-1 -->
<svg xmlns="http://www.w3.org/2000/svg" xmlns:xlink="http://www.w3.org/1999/xlink" xmlns:ev="http://www.w3.org/2001/xml-events"
		width="1.1274in" height="1.3078in" viewBox="0 0 81.1729 94.1613" xml:space="preserve" color-interpolation-filters="sRGB"
		class="st6">
	<style type="text/css">
	<![CDATA[
		.st1 {fill:#a0a1a2;stroke:none;stroke-linecap:butt;stroke-width:12.24}
		.st2 {fill:#7a7a7a;stroke:none;stroke-linecap:butt;stroke-width:12.24}
		.st3 {fill:#ffffff;fill-opacity:0.8;stroke:none;stroke-linecap:butt;stroke-width:12.24}
		.st4 {fill:#ff8c00;stroke:none;stroke-linecap:butt;stroke-width:12.24}
		.st5 {fill:#ffffff;fill-opacity:0.2;stroke:none;stroke-linecap:butt;stroke-width:12.24}
		.st6 {fill:none;fill-rule:evenodd;font-size:12px;overflow:visible;stroke-linecap:square;stroke-miterlimit:3}
	]]>
	</style>

	<g>
		<title>Page-1</title>
		<g id="group525-1" transform="translate(12.24,-33.7323)">
			<title>Storage Account Container</title>
			<g id="group526-2">
				<title>g14</title>
				<g id="shape527-3">
					<title>path4</title>
					<path d="M0 92.02 C0 93.15 0.91 94.16 2.04 94.16 L54.54 94.16 C55.67 94.16 56.69 93.26 56.69 92.02 L56.69 54.66
								 L0 54.66 L0 92.02 Z" class="st1"/>
				</g>
				<g id="shape528-5" transform="translate(0,-39.612)">
					<title>path6</title>
					<path d="M54.54 85.58 L2.04 85.58 C0.91 85.58 0 86.6 0 87.73 L0 94.16 L56.69 94.16 L56.69 87.73 C56.69 86.6 55.79
								 85.58 54.54 85.58 Z" class="st2"/>
				</g>
				<g id="shape529-7" transform="translate(10.9984,-4.28848)">
					<title>path8</title>
					<path d="M32.09 69.67 L32.09 66.96 L14.85 66.96 L10.77 62.9 L0 62.9 L0 92.58 C0 93.48 0.68 94.16 1.59 94.16 L32.43
								 94.16 C33.34 94.16 34.02 93.48 34.02 92.58 L34.02 69.67 L32.09 69.67 Z" class="st3"/>
				</g>
				<g id="shape530-9" transform="translate(10.9984,-4.28848)">
					<title>path10</title>
					<path d="M3.17 69.67 L3.17 92.58 C3.17 93.48 2.49 94.16 1.59 94.16 C0.68 94.16 0 93.48 0 92.58 L0 62.9 L10.89
								 62.9 L14.97 66.96 L32.09 66.96 L32.09 69.67 L3.17 69.67 Z" class="st4"/>
				</g>
				<g id="shape531-11" transform="translate(0,-0.112855)">
					<title>path12</title>
					<path d="M2.27 46.09 C1.02 46.09 0 47.1 0 48.34 L0 91.9 C0 93.15 1.02 94.16 2.27 94.16 L4.76 94.16 L49.44 46.09
								 L2.27 46.09 Z" class="st5"/>
				</g>
			</g>
		</g>
	</g>
</svg>
