<?xml version="1.0" encoding="UTF-8" standalone="no"?>
<!DOCTYPE svg PUBLIC "-//W3C//DTD SVG 1.1//EN" "http://www.w3.org/Graphics/SVG/1.1/DTD/svg11.dtd">
<!-- Generated by Microsoft Visio, SVG Export Storage Explorer.svg Page-1 -->
<svg xmlns="http://www.w3.org/2000/svg" xmlns:xlink="http://www.w3.org/1999/xlink" xmlns:ev="http://www.w3.org/2001/xml-events"
		width="1.49736in" height="1.75262in" viewBox="0 0 107.81 126.188" xml:space="preserve" color-interpolation-filters="sRGB"
		class="st7">
	<style type="text/css">
	<![CDATA[
		.st1 {fill:url(#grad0-6);stroke:none;stroke-linecap:butt;stroke-width:29.8104}
		.st2 {fill:#005ba1;stroke:none;stroke-linecap:butt;stroke-width:29.8104}
		.st3 {fill:#5ea0ef;stroke:none;stroke-linecap:butt;stroke-width:29.8104}
		.st4 {fill:#ffffff;stroke:none;stroke-linecap:butt;stroke-width:29.8104}
		.st5 {fill:#0078d4;stroke:none;stroke-linecap:butt;stroke-width:29.8104}
		.st6 {fill:#83b9f9;stroke:none;stroke-linecap:butt;stroke-width:29.8104}
		.st7 {fill:none;fill-rule:evenodd;font-size:12px;overflow:visible;stroke-linecap:square;stroke-miterlimit:3}
	]]>
	</style>

	<defs id="Patterns_And_Gradients">
		<linearGradient id="grad0-6" x1="0" y1="0" x2="1" y2="0" gradientTransform="rotate(91.406732702115 0.5 0.5)">
			<stop offset="0" stop-color="#e6e6e6" stop-opacity="1"/>
			<stop offset="1" stop-color="#b3b3b3" stop-opacity="1"/>
		</linearGradient>
	</defs>
	<g>
		<title>Page-1</title>
		<g id="group498-1" transform="translate(29.8104,-39.685)">
			<title>Storage Explorer</title>
			<g id="group499-2">
				<title>g31</title>
				<g id="shape500-3">
					<title>path11</title>
					<path d="M46.57 90.25 L31.24 90.25 a0.806575 0.815748 -180 0 0 -0.806575 0.815748 L30.43 100.45 a0.806575 0.815748
								 0 0 1 -0.806575 0.815748 L16.02 101.27 a0.800347 0.809449 -180 0 0 -0.800347 0.809449 L15.22 111.66
								 a0.809689 0.818898 0 0 1 -0.809689 0.815748 L0.8 112.48 a0.803461 0.812598 -180 0 0 -0.803461 0.809449
								 L0 124.57 A1.60692 1.6252 -180 0 0 1.6 126.19 L32.17 126.19 a0.725606 0.733858 -180 0 0 0.165052
								 -0.0188976 L46.57 126.17 A1.61315 1.6315 -180 0 0 48.19 124.54 L48.19 91.88 A1.61315 1.6315 -180
								 0 0 46.57 90.25 Z" class="st1"/>
				</g>
				<g id="shape501-7" transform="translate(32.973,-2.50079)">
					<title>rect13</title>
					<path d="M0 125.37 a0.806594 0.815767 -180 0 0 0.806575 0.815748 L11.86 126.19 a0.806594 0.815767 -180 0 0 0.806575
								 -0.815748 L12.67 118.47 a0.806594 0.815767 -180 0 0 -0.806575 -0.815748 L0.81 117.65 a0.806594 0.815767
								 -180 0 0 -0.806575 0.815748 L0 125.37 Z" class="st2"/>
				</g>
				<g id="shape502-9" transform="translate(32.973,-13.7102)">
					<title>rect15</title>
					<path d="M0 125.37 a0.806594 0.815767 -180 0 0 0.806575 0.815748 L11.86 126.19 a0.806594 0.815767 -180 0 0 0.806575
								 -0.815748 L12.67 118.47 a0.806594 0.815767 -180 0 0 -0.806575 -0.815748 L0.81 117.65 a0.806594 0.815767
								 -180 0 0 -0.806575 0.815748 L0 125.37 Z" class="st3"/>
				</g>
				<g id="shape503-11" transform="translate(32.973,-24.9197)">
					<title>rect17</title>
					<path d="M0 125.37 a0.806594 0.815767 -180 0 0 0.806575 0.815748 L11.86 126.19 a0.806594 0.815767 -180 0 0 0.806575
								 -0.815748 L12.67 118.47 a0.806594 0.815767 -180 0 0 -0.806575 -0.815748 L0.81 117.65 a0.806594 0.815767
								 -180 0 0 -0.806575 0.815748 L0 125.37 Z" class="st4"/>
				</g>
				<g id="shape504-13" transform="translate(17.7602,-2.48504)">
					<title>rect19</title>
					<path d="M0 125.37 a0.806594 0.815767 -180 0 0 0.806575 0.815748 L11.86 126.19 a0.806594 0.815767 -180 0 0 0.806575
								 -0.815748 L12.67 118.47 a0.806594 0.815767 -180 0 0 -0.806575 -0.815748 L0.81 117.65 a0.806594 0.815767
								 -180 0 0 -0.806575 0.815748 L0 125.37 Z" class="st2"/>
				</g>
				<g id="shape505-15" transform="translate(17.7602,-13.6913)">
					<title>rect21</title>
					<path d="M0 125.37 a0.806594 0.815767 -180 0 0 0.806575 0.815748 L11.86 126.19 a0.806594 0.815767 -180 0 0 0.806575
								 -0.815748 L12.67 118.47 a0.806594 0.815767 -180 0 0 -0.806575 -0.815748 L0.81 117.65 a0.806594 0.815767
								 -180 0 0 -0.806575 0.815748 L0 125.37 Z" class="st4"/>
				</g>
				<g id="shape506-17" transform="translate(2.54741,-2.48504)">
					<title>rect23</title>
					<path d="M0 125.37 a0.806594 0.815767 -180 0 0 0.806575 0.815748 L11.86 126.19 a0.806594 0.815767 -180 0 0 0.806575
								 -0.815748 L12.67 118.47 a0.806594 0.815767 -180 0 0 -0.806575 -0.815748 L0.81 117.65 a0.806594 0.815767
								 -180 0 0 -0.806575 0.815748 L0 125.37 Z" class="st2"/>
				</g>
				<g id="shape507-19" transform="translate(15.054,-35.852)">
					<title>rect25</title>
					<path d="M0 125.22 a0.959193 0.970101 -180 0 0 0.959171 0.970079 L14.09 126.19 a0.959193 0.970101 -180 0 0 0.959171
								 -0.970079 L15.05 117.01 a0.959193 0.970101 -180 0 0 -0.959171 -0.970079 L0.96 116.04 a0.959193 0.970101
								 -180 0 0 -0.959171 0.970079 L0 125.22 Z" class="st3"/>
				</g>
				<g id="shape508-21" transform="translate(2.3781E-13,-25.2567)">
					<title>rect27</title>
					<path d="M0 125.22 a0.959193 0.970101 -180 0 0 0.959171 0.970079 L14.09 126.19 a0.959193 0.970101 -180 0 0 0.959171
								 -0.970079 L15.05 117.01 a0.959193 0.970101 -180 0 0 -0.959171 -0.970079 L0.96 116.04 a0.959193 0.970101
								 -180 0 0 -0.959171 0.970079 L0 125.22 Z" class="st5"/>
				</g>
				<g id="shape509-23" transform="translate(2.3781E-13,-46.548)">
					<title>rect29</title>
					<path d="M0 125.22 a0.959193 0.970101 -180 0 0 0.959171 0.970079 L14.09 126.19 a0.959193 0.970101 -180 0 0 0.959171
								 -0.970079 L15.05 117.01 a0.959193 0.970101 -180 0 0 -0.959171 -0.970079 L0.96 116.04 a0.959193 0.970101
								 -180 0 0 -0.959171 0.970079 L0 125.22 Z" class="st6"/>
				</g>
			</g>
		</g>
	</g>
</svg>
