<?xml version="1.0" encoding="UTF-8" standalone="no"?>
<!DOCTYPE svg PUBLIC "-//W3C//DTD SVG 1.1//EN" "http://www.w3.org/Graphics/SVG/1.1/DTD/svg11.dtd">
<!-- Generated by Microsoft Visio, SVG Export Storage Account Blob Cool.svg Page-1 -->
<svg xmlns="http://www.w3.org/2000/svg" xmlns:xlink="http://www.w3.org/1999/xlink" xmlns:ev="http://www.w3.org/2001/xml-events"
		width="1.1274in" height="1.3078in" viewBox="0 0 81.1729 94.1613" xml:space="preserve" color-interpolation-filters="sRGB"
		class="st6">
	<style type="text/css">
	<![CDATA[
		.st1 {fill:#a0a1a2;stroke:none;stroke-width:12.24}
		.st2 {fill:#7a7a7a;stroke:none;stroke-width:12.24}
		.st3 {fill:#ffffff;stroke:none;stroke-width:12.24}
		.st4 {fill:#2272b9;stroke:none;stroke-width:0.859307}
		.st5 {fill:#ffffff;fill-opacity:0.2;stroke:none;stroke-width:12.24}
		.st6 {fill:none;fill-rule:evenodd;font-size:12px;overflow:visible;stroke-linecap:square;stroke-miterlimit:3}
	]]>
	</style>

	<g>
		<title>Page-1</title>
		<g id="group547-1" transform="translate(12.24,-33.7323)">
			<title>Storage Account Blob Cool</title>
			<g id="group548-2">
				<title>Page-1</title>
				<g id="group549-3">
					<title>Azure Storage (Blog) Cool Tier</title>
					<g id="shape550-4">
						<title>Sheet.550</title>
						<path d="M0 92.02 C0 93.15 0.8 94.16 2.15 94.16 L54.54 94.16 C55.67 94.16 56.69 93.37 56.69 92.02 L56.69
									 54.57 L0 54.57 L0 92.02 Z" class="st1"/>
					</g>
					<g id="shape551-6" transform="translate(0,-39.5949)">
						<title>Sheet.551</title>
						<path d="M54.54 85.57 L2.15 85.57 C0.8 85.57 0 86.58 0 87.72 L0 94.16 L56.69 94.16 L56.69 87.72 C56.69 86.58
									 55.9 85.57 54.54 85.57 Z" class="st2"/>
					</g>
					<g id="shape552-8" transform="translate(21.3171,-27.2603)">
						<title>Sheet.552</title>
						<rect x="0" y="85.5635" width="14.287" height="8.59777" class="st3"/>
					</g>
					<g id="shape553-10" transform="translate(21.3171,-15.608)">
						<title>Sheet.553</title>
						<rect x="0" y="85.5635" width="14.287" height="8.59777" class="st4"/>
					</g>
					<g id="shape554-12" transform="translate(38.3255,-15.608)">
						<title>Sheet.554</title>
						<rect x="0" y="85.5635" width="14.287" height="8.59777" class="st4"/>
					</g>
					<g id="shape555-14" transform="translate(38.3255,-27.2603)">
						<title>Sheet.555</title>
						<rect x="0" y="85.5635" width="14.287" height="8.59777" class="st3"/>
					</g>
					<g id="shape556-16" transform="translate(4.30878,-27.2603)">
						<title>Sheet.556</title>
						<rect x="0" y="85.5635" width="14.287" height="8.59777" class="st3"/>
					</g>
					<g id="shape557-18" transform="translate(4.30878,-15.608)">
						<title>Sheet.557</title>
						<rect x="0" y="85.5635" width="14.287" height="8.59777" class="st3"/>
					</g>
					<g id="shape558-20" transform="translate(4.30878,-4.06894)">
						<title>Sheet.558</title>
						<rect x="0" y="85.5635" width="14.287" height="8.59777" class="st4"/>
					</g>
					<g id="shape559-22" transform="translate(21.3171,-4.06894)">
						<title>Sheet.559</title>
						<rect x="0" y="85.5635" width="14.287" height="8.59777" class="st4"/>
					</g>
					<g id="shape560-24" transform="translate(38.3255,-4.06894)">
						<title>Sheet.560</title>
						<rect x="0" y="85.5635" width="14.287" height="8.59777" class="st4"/>
					</g>
					<g id="shape561-26">
						<title>Sheet.561</title>
						<path d="M2.15 45.97 C1.13 45.97 0 46.99 0 48.12 L0 56.5 L0 60.23 L0 92.02 C0 93.15 1.13 94.16 2.15 94.16
									 L4.53 94.16 L49.44 45.97 L2.15 45.97 Z" class="st5"/>
					</g>
				</g>
			</g>
		</g>
	</g>
</svg>
