<?xml version="1.0" encoding="UTF-8" standalone="no"?>
<!-- Generated by Microsoft Visio, SVG Export Secure Score.svg Page-1 -->

<svg
   xmlns:dc="http://purl.org/dc/elements/1.1/"
   xmlns:cc="http://creativecommons.org/ns#"
   xmlns:rdf="http://www.w3.org/1999/02/22-rdf-syntax-ns#"
   xmlns:svg="http://www.w3.org/2000/svg"
   xmlns="http://www.w3.org/2000/svg"
   xmlns:sodipodi="http://sodipodi.sourceforge.net/DTD/sodipodi-0.dtd"
   xmlns:inkscape="http://www.inkscape.org/namespaces/inkscape"
   width="0.62986171in"
   height="0.78735322in"
   viewBox="0 0 45.349829 56.689378"
   xml:space="preserve"
   class="st4"
   version="1.1"
   id="svg43"
   sodipodi:docname="Secure Score.svg"
   style="font-size:12px;overflow:visible;color-interpolation-filters:sRGB;fill:none;fill-rule:evenodd;stroke-linecap:square;stroke-miterlimit:3"
   inkscape:version="0.92.5 (2060ec1f9f, 2020-04-08)"><metadata
   id="metadata47"><rdf:RDF><cc:Work
       rdf:about=""><dc:format>image/svg+xml</dc:format><dc:type
         rdf:resource="http://purl.org/dc/dcmitype/StillImage" /></cc:Work></rdf:RDF></metadata><sodipodi:namedview
   pagecolor="#ffffff"
   bordercolor="#666666"
   borderopacity="1"
   objecttolerance="10"
   gridtolerance="10"
   guidetolerance="10"
   inkscape:pageopacity="0"
   inkscape:pageshadow="2"
   inkscape:window-width="640"
   inkscape:window-height="480"
   id="namedview45"
   showgrid="false"
   inkscape:zoom="1.4399713"
   inkscape:cx="30.23603"
   inkscape:cy="36.592268"
   inkscape:window-x="0"
   inkscape:window-y="0"
   inkscape:window-maximized="0"
   inkscape:current-layer="svg43" />
	<style
   type="text/css"
   id="style2">
	<![CDATA[
		.st1 {fill:#1b93eb;stroke:none;stroke-linecap:butt;stroke-width:32.2105}
		.st2 {fill:url(#grad0-8);stroke:none;stroke-linecap:butt;stroke-width:32.2105}
		.st3 {fill:#ffffff;stroke:none;stroke-linecap:butt;stroke-width:32.2105}
		.st4 {fill:none;fill-rule:evenodd;font-size:12px;overflow:visible;stroke-linecap:square;stroke-miterlimit:3}
	]]>
	</style>

	<defs
   id="Patterns_And_Gradients">
		<linearGradient
   id="grad0-8"
   x1="-0.00035735337"
   y1="63.289054"
   x2="46.434649"
   y2="63.289054"
   gradientTransform="scale(0.89265239,1.1202569)"
   gradientUnits="userSpaceOnUse">
			<stop
   offset="0"
   stop-color="#1b93eb"
   stop-opacity="1"
   id="stop4" />
			<stop
   offset="0.21"
   stop-color="#2095eb"
   stop-opacity="1"
   id="stop6" />
			<stop
   offset="0.44"
   stop-color="#2e9ced"
   stop-opacity="1"
   id="stop8" />
			<stop
   offset="0.69"
   stop-color="#45a7ef"
   stop-opacity="1"
   id="stop10" />
			<stop
   offset="0.95"
   stop-color="#64b6f1"
   stop-opacity="1"
   id="stop12" />
			<stop
   offset="1"
   stop-color="#6bb9f2"
   stop-opacity="1"
   id="stop14" />
		</linearGradient>
	</defs>
	<g
   id="g41"
   transform="translate(-32.210708,-32.2143)">
		<title
   id="title18">Page-1</title>
		<g
   id="group16739-1"
   transform="translate(32.2105,-34.0157)">
			<title
   id="title20">Secure Score.16739</title>
			<g
   id="group16740-2">
				<title
   id="title22">Sheet.16740</title>
				<g
   id="shape16741-3">
					<title
   id="title24">Sheet.16741</title>
					<path
   d="m 45.35,92.61 c 0,15.36 -17.82,27.39 -21.7,30.06 a 1.47743,1.52352 0 0 1 -1.62,0 C 18.14,120.33 0,107.99 0,92.61 V 74.24 A 1.3969,1.44047 0 0 1 1.3,72.9 c 14.25,-0.33 11.01,-6.67 21.37,-6.67 10.37,0 7.13,6.34 21.06,6.67 a 1.48363,1.5299 0 0 1 1.62,1.34 z"
   class="st1"
   id="path26"
   inkscape:connector-curvature="0"
   style="fill:#1b93eb;stroke:none;stroke-width:32.21049881;stroke-linecap:butt" />
				</g>
				<g
   id="shape16742-5"
   transform="translate(1.94513,-2.33819)">
					<title
   id="title29">Sheet.16742</title>
					<path
   d="m 41.45,95.28 c 0,14.03 -16.51,25.38 -20.08,27.39 a 0.988051,1.01887 0 0 1 -1.29469,0 C 16.52,120.33 0,109.31 0,95.28 v -16.7 a 1.78097,1.83652 0 0 1 0.97,-1.67 c 12.63,-0.33 9.72,-6.01 19.45,-6.01 9.73,0 6.81,6.01 19.43,6.01 a 1.3938,1.43728 0 0 1 1.3,1.34 z"
   class="st2"
   id="path31"
   inkscape:connector-curvature="0"
   style="fill:url(#grad0-8);stroke:none;stroke-width:32.21049881;stroke-linecap:butt" />
				</g>
				<g
   id="shape16743-9"
   transform="translate(11.5162,-20.1126)">
					<title
   id="title34">Sheet.16743</title>
					<path
   d="m 10.29,101.52 a 0.969467,0.999708 0 0 1 1.7407,0 l 2.7093,5.66 a 0.972564,1.0029 -180 0 0 0.730972,0.54936 L 21.53,108.64 a 0.972564,1.0029 0 0 1 0.538937,1.70877 L 17.68,114.75 a 0.96637,0.996514 -180 0 0 -0.27876,0.88792 L 18.44,121.87 a 0.969467,0.999708 0 0 1 -1.40929,1.05401 L 11.61,119.98 a 0.972564,1.0029 -180 0 0 -0.904423,0 L 5.28,122.92 A 0.969467,0.999708 0 0 1 3.87071,121.86599 L 4.91,115.64 A 0.96637,0.996514 -180 0 0 4.63124,114.75208 L 0.24,110.34 a 0.972564,1.0029 0 0 1 0.538937,-1.70877 L 6.84,107.73 a 0.972564,1.0029 -180 0 0 0.730972,-0.54936 z"
   class="st3"
   id="path36"
   inkscape:connector-curvature="0"
   style="fill:#ffffff;stroke:none;stroke-width:32.21049881;stroke-linecap:butt" />
				</g>
			</g>
		</g>
	</g>
</svg>