<?xml version="1.0" encoding="UTF-8" standalone="no"?>
<!DOCTYPE svg PUBLIC "-//W3C//DTD SVG 1.1//EN" "http://www.w3.org/Graphics/SVG/1.1/DTD/svg11.dtd">
<!-- Generated by Microsoft Visio, SVG Export Intune Device.svg Page-1 -->
<svg xmlns="http://www.w3.org/2000/svg" xmlns:xlink="http://www.w3.org/1999/xlink" xmlns:ev="http://www.w3.org/2001/xml-events"
		width="1.64818in" height="1.61149in" viewBox="0 0 118.669 116.027" xml:space="preserve" color-interpolation-filters="sRGB"
		class="st7">
	<style type="text/css">
	<![CDATA[
		.st1 {fill:#0078d4;stroke:none;stroke-linecap:butt;stroke-width:30.988}
		.st2 {fill:url(#grad0-8);stroke:none;stroke-linecap:butt;stroke-width:30.988}
		.st3 {fill:url(#grad0-12);stroke:none;stroke-linecap:butt;stroke-width:30.988}
		.st4 {fill:#f2f2f2;stroke:none;stroke-linecap:butt;stroke-width:30.988}
		.st5 {fill:none;stroke:none;stroke-linecap:butt;stroke-width:30.988}
		.st6 {fill:url(#grad0-8);stroke:none;stroke-linecap:butt;stroke-width:23.451}
		.st7 {fill:none;fill-rule:evenodd;font-size:12px;overflow:visible;stroke-linecap:square;stroke-miterlimit:3}
	]]>
	</style>

	<defs id="Patterns_And_Gradients">
		<linearGradient id="grad0-8" x1="0" y1="0" x2="1" y2="0" gradientTransform="rotate(-90 0.5 0.5)">
			<stop offset="0" stop-color="#d2ebff" stop-opacity="1"/>
			<stop offset="1" stop-color="#f0fffd" stop-opacity="1"/>
		</linearGradient>
		<linearGradient id="grad0-12" x1="0" y1="0" x2="1" y2="0" gradientTransform="rotate(-90 0.5 0.5)">
			<stop offset="0" stop-color="#0078d4" stop-opacity="1"/>
			<stop offset="0.17" stop-color="#1c84dc" stop-opacity="1"/>
			<stop offset="0.38" stop-color="#3990e4" stop-opacity="1"/>
			<stop offset="0.59" stop-color="#4d99ea" stop-opacity="1"/>
			<stop offset="0.8" stop-color="#5a9eee" stop-opacity="1"/>
			<stop offset="1" stop-color="#5ea0ef" stop-opacity="1"/>
		</linearGradient>
	</defs>
	<g>
		<title>Page-1</title>
		<g id="group3699-1" transform="translate(30.988,-34.0157)">
			<title>Intune Device</title>
			<g id="group3700-2">
				<title>layer1</title>
				<g id="shape3701-3" transform="translate(0,-13.028)">
					<title>rect25</title>
					<path d="M-0 114.11 A1.8898 1.92063 -180 0 0 1.89 116.03 L50.65 116.03 A1.8898 1.92063 -180 0 0 52.54 114.11
								 L52.54 79.95 A1.8898 1.92063 -180 0 0 50.65 78.03 L1.89 78.03 A1.8898 1.92063 -180 0 0 -0 79.95
								 L0 114.11 Z" class="st1"/>
				</g>
				<g id="shape3702-5" transform="translate(3.0552,-16.0369)">
					<title>rect27</title>
					<path d="M0 115.07 a0.944901 0.960316 -180 0 0 0.94488 0.960293 L45.48 116.03 a0.944901 0.960316 -180 0 0 0.94488
								 -0.960293 L46.43 84.66 a0.944901 0.960316 -180 0 0 -0.94488 -0.960293 L0.94 83.7 a0.944901 0.960316
								 -180 0 0 -0.94488 0.960293 L0 115.07 Z" class="st2"/>
				</g>
				<g id="shape3703-9" transform="translate(32.441,2.55795E-13)">
					<title>rect29</title>
					<path d="M0 115.07 a0.944901 0.960316 -180 0 0 0.94488 0.960293 L23.31 116.03 a0.944901 0.960316 -180 0 0 0.94488
								 -0.960293 L24.25 75.86 a0.944901 0.960316 -180 0 0 -0.94488 -0.960293 L0.94 74.89 a0.944901 0.960316
								 -180 0 0 -0.94488 0.960293 L0 115.07 Z" class="st3"/>
				</g>
				<g id="shape3704-13" transform="translate(41.7955,-38.9879)">
					<title>rect31</title>
					<path d="M0 115.68 a0.346464 0.352116 -180 0 0 0.346456 0.352107 L5.23 116.03 a0.346464 0.352116 -180 0 0 0.346456
								 -0.352107 L5.57 115.61 a0.346464 0.352116 -180 0 0 -0.346456 -0.352107 L0.35 115.26 a0.346464 0.352116
								 -180 0 0 -0.346456 0.352107 L0 115.68 Z" class="st4"/>
				</g>
				<g id="shape3705-15" transform="translate(34.7406,-4.60939)">
					<title>rect33</title>
					<path d="M0 115.58 a0.440954 0.448147 -180 0 0 0.440944 0.448137 L19.24 116.03 a0.440954 0.448147 -180 0 0 0.440944
								 -0.448137 L19.68 83.41 a0.440954 0.448147 -180 0 0 -0.440944 -0.448137 L0.44 82.96 a0.440954 0.448147
								 -180 0 0 -0.440944 0.448137 L0 115.58 Z" class="st5"/>
				</g>
				<g id="shape3706-17" transform="translate(23.5595,-49.071)">
					<title>rect35</title>
					<path d="M0 115.68 a0.346464 0.352116 -180 0 0 0.346456 0.352107 L5.23 116.03 a0.346464 0.352116 -180 0 0 0.346456
								 -0.352107 L5.57 115.61 a0.346464 0.352116 -180 0 0 -0.346456 -0.352107 L0.35 115.26 a0.346464 0.352116
								 -180 0 0 -0.346456 0.352107 L0 115.68 Z" class="st4"/>
				</g>
				<g id="shape3707-19" transform="translate(43.213,-0.896356)">
					<title>rect37</title>
					<path d="M0 115.39 a0.629934 0.64021 -180 0 0 0.62992 0.640196 L2.08 116.03 a0.629934 0.64021 -180 0 0 0.62992
								 -0.640196 L2.71 114.33 a0.629934 0.64021 -180 0 0 -0.62992 -0.640196 L0.63 113.69 a0.629934 0.64021
								 -180 0 0 -0.62992 0.640196 L0 115.39 Z" class="st4"/>
				</g>
				<g id="shape3708-21" transform="translate(34.7406,-4.60939)">
					<title>rect30</title>
					<path d="M-0 115.57 a0.452883 0.460271 -180 0 0 0.452873 0.460261 L19.24 116.03 a0.452883 0.460271 -180 0 0 0.452873
								 -0.460261 L19.69 83.42 a0.452883 0.460271 -180 0 0 -0.452873 -0.460261 L0.45 82.96 a0.452883 0.460271
								 -180 0 0 -0.452873 0.460261 L0 115.57 Z" class="st6"/>
				</g>
			</g>
		</g>
	</g>
</svg>
