<?xml version="1.0" encoding="UTF-8" standalone="no"?>
<!DOCTYPE svg PUBLIC "-//W3C//DTD SVG 1.1//EN" "http://www.w3.org/Graphics/SVG/1.1/DTD/svg11.dtd">
<!-- Generated by Microsoft Visio, SVG Export Mobile Application.svg Page-1 -->
<svg xmlns="http://www.w3.org/2000/svg" xmlns:xlink="http://www.w3.org/1999/xlink" xmlns:ev="http://www.w3.org/2001/xml-events"
		width="0.994633in" height="1.48157in" viewBox="0 0 71.6136 106.673" xml:space="preserve" color-interpolation-filters="sRGB"
		class="st11">
	<style type="text/css">
	<![CDATA[
		.st1 {fill:#3e3e3e;stroke:none;stroke-linecap:butt;stroke-width:15.9643}
		.st2 {fill:#59b4d9;stroke:none;stroke-linecap:butt;stroke-width:15.9643}
		.st3 {fill:#ffffff;stroke:none;stroke-linecap:butt;stroke-width:15.9643}
		.st4 {fill:#b8d432;stroke:none;stroke-linecap:butt;stroke-width:15.9643}
		.st5 {fill:#ffffff;fill-opacity:0.15;stroke:none;stroke-linecap:butt;stroke-width:15.9643}
		.st6 {fill:#1e1e1e;stroke:none;stroke-linecap:butt;stroke-width:15.9643}
		.st7 {fill:#ffffff}
		.st8 {stroke:none;stroke-linecap:butt;stroke-width:15.9643}
		.st9 {fill:#ffffff;fill-opacity:0.7}
		.st10 {fill:#ffffff;fill-opacity:0.4}
		.st11 {fill:none;fill-rule:evenodd;font-size:12px;overflow:visible;stroke-linecap:square;stroke-miterlimit:3}
	]]>
	</style>

	<g>
		<title>Page-1</title>
		<g id="group19428-1" transform="translate(15.9643,-34.0157)">
			<title>Mobile Application.19428</title>
			<g id="group19429-2">
				<title>layer1</title>
				<g id="shape19430-3">
					<title>path2</title>
					<path d="M39.69 103.27 A3.45638 3.40157 0 0 1 36.23 106.67 L3.46 106.67 A3.45638 3.40157 0 0 1 0 103.27 L0 53.38
								 A3.45638 3.40157 0 0 1 3.46 49.98 L36.23 49.98 A3.45638 3.40157 0 0 1 39.69 53.38 L39.69 103.27
								 Z" class="st1"/>
				</g>
				<g id="shape19431-5" transform="translate(2.56236,-11.0869)">
					<title>path4</title>
					<rect x="0" y="66.7362" width="34.5638" height="39.9367" class="st2"/>
				</g>
				<g id="shape19432-7" transform="translate(16.5135,-2.20598)">
					<title>path6</title>
					<path d="M6.66 103.33 A3.32965 3.27685 0 1 1 0 103.33 A3.32965 3.27685 0 0 1 6.66 103.33 Z" class="st3"/>
				</g>
				<g id="shape19433-9" transform="translate(17.6587,-3.39362)">
					<title>path8</title>
					<path d="M4.37 104.52 A2.18328 2.14866 0 1 1 -0 104.52 A2.18328 2.14866 0 0 1 4.37 104.52 Z" class="st4"/>
				</g>
				<g id="shape19434-11">
					<title>path10</title>
					<path d="M2.56 95.59 L2.56 55.65 L28.79 55.65 L31.13 49.98 L3.46 49.98 A3.45638 3.40157 -180 0 0 0 53.38 L0 103.27
								 A3.45638 3.40157 -180 0 0 3.46 106.67 L7.71 106.67 L12.29 95.59 L2.56 95.59 Z" class="st5"/>
				</g>
				<g id="shape19435-13" transform="translate(13.9245,-52.662)">
					<title>path12</title>
					<path d="M11.81 105.84 C11.81 106.3 11.43 106.67 10.96 106.67 L0.88 106.67 a0.851422 0.837921 0 1 1 -1.18794E-14
								 -1.67471 L10.96 105 C11.43 105 11.81 105.37 11.81 105.84 Z" class="st6"/>
				</g>
				<g id="shape19436-15" transform="translate(9.42505,-32.5289)">
					<title>path14</title>
					<path d="M16.31 85.7 C16.31 86.17 15.93 86.54 15.46 86.54 L5.38 86.54 a0.851422 0.837921 0 1 1 -1.15463E-14 -1.67471
								 L15.46 84.87 C15.93 84.87 16.31 85.24 16.31 85.7 ZM10.45 106.67 a0.320291 0.315213 0 0 1 -0.154582
								 -0.0432799 L0.15 100.87 a0.307618 0.30274 0 0 1 -6.66134E-15 -0.522697 L10.23 94.62 a0.30877 0.303874
								 0 0 1 0.303076 -1.42109E-14 L20.68 100.38 a0.304161 0.299339 0 0 1 0.1511 0.260984 a0.301857 0.297071
								 0 0 1 -0.1511 0.260984 L10.61 106.63 a0.311074 0.306142 0 0 1 -0.155456 0.0432799 L10.45 106.67
								 Z" class="st7"/>
					<path d="M16.31 85.7 C16.31 86.17 15.93 86.54 15.46 86.54 L5.38 86.54 a0.851422 0.837921 0 1 1 -1.15463E-14 -1.67471
								 L15.46 84.87 C15.93 84.87 16.31 85.24 16.31 85.7M10.45 106.67 a0.320291 0.315213 0 0 1 -0.154582
								 -0.0432799 L0.15 100.87 a0.307618 0.30274 0 0 1 -6.66134E-15 -0.522697 L10.23 94.62 a0.30877 0.303874
								 0 0 1 0.303076 -1.42109E-14 L20.68 100.38 a0.304161 0.299339 0 0 1 0.1511 0.260984 a0.301857 0.297071
								 0 0 1 -0.1511 0.260984 L10.61 106.63 a0.311074 0.306142 0 0 1 -0.155456 0.0432799" class="st8"/>
				</g>
				<g id="shape19437-18" transform="translate(7.99437,-18.5238)">
					<title>path16</title>
					<path d="M10.42 106.67 a0.289184 0.284598 0 0 1 -0.154585 -0.0428551 L0.16 100.89 a0.299553 0.294803 0 0 1 -0.156759
								 -0.261841 L0 89.1 C0 88.99 0.06 88.89 0.16 88.84 a0.303009 0.298205 0 0 1 0.308733 4.26326E-14 L10.58
								 94.58 a0.322595 0.31748 0 0 1 0.149796 0.263984 L10.73 106.37 a0.313379 0.308409 0 0 1 -0.149796
								 0.261839 a0.322595 0.31748 0 0 1 -0.153278 0.0428551 L10.42 106.67 Z" class="st9"/>
					<path d="M10.42 106.67 a0.289184 0.284598 0 0 1 -0.154585 -0.0428551 L0.16 100.89 a0.299553 0.294803 0 0 1 -0.156759
								 -0.261841 L0 89.1 C0 88.99 0.06 88.89 0.16 88.84 a0.303009 0.298205 0 0 1 0.308733 4.26326E-14 L10.58
								 94.58 a0.322595 0.31748 0 0 1 0.149796 0.263984 L10.73 106.37 a0.313379 0.308409 0 0 1 -0.149796
								 0.261839 a0.322595 0.31748 0 0 1 -0.153278 0.0428551" class="st8"/>
				</g>
				<g id="shape19438-21" transform="translate(20.9735,-18.5238)">
					<title>path18</title>
					<path d="M0.31 106.67 a0.33066 0.325417 0 0 1 -0.158939 -0.0428551 a0.311074 0.306142 0 0 1 -0.14849 -0.261843
								 L0 94.91 C0 94.81 0.06 94.71 0.15 94.65 L10.26 88.91 a0.299553 0.294803 0 0 1 0.303943 -1.42109E-14
								 a0.303009 0.298205 0 0 1 0.155456 0.260555 L10.72 100.62 a0.300705 0.295937 0 0 1 -0.155456 0.261841
								 L0.46 106.63 a0.271902 0.26759 0 0 1 -0.14849 0.0428551 L0.31 106.67 Z" class="st10"/>
					<path d="M0.31 106.67 a0.33066 0.325417 0 0 1 -0.158939 -0.0428551 a0.311074 0.306142 0 0 1 -0.14849 -0.261843
								 L0 94.91 C0 94.81 0.06 94.71 0.15 94.65 L10.26 88.91 a0.299553 0.294803 0 0 1 0.303943 -1.42109E-14
								 a0.303009 0.298205 0 0 1 0.155456 0.260555 L10.72 100.62 a0.300705 0.295937 0 0 1 -0.155456 0.261841
								 L0.46 106.63 a0.271902 0.26759 0 0 1 -0.14849 0.0428551" class="st8"/>
				</g>
			</g>
		</g>
	</g>
</svg>
