<?xml version="1.0" encoding="UTF-8" standalone="no"?>
<!-- Generated by Microsoft Visio, SVG Export Azure Stack Hub.svg Page-1 -->

<svg
   xmlns:dc="http://purl.org/dc/elements/1.1/"
   xmlns:cc="http://creativecommons.org/ns#"
   xmlns:rdf="http://www.w3.org/1999/02/22-rdf-syntax-ns#"
   xmlns:svg="http://www.w3.org/2000/svg"
   xmlns="http://www.w3.org/2000/svg"
   xmlns:sodipodi="http://sodipodi.sourceforge.net/DTD/sodipodi-0.dtd"
   xmlns:inkscape="http://www.inkscape.org/namespaces/inkscape"
   width="56.690308"
   height="56.694401"
   viewBox="0 0 56.690307 56.694401"
   xml:space="preserve"
   class="st5"
   version="1.1"
   id="svg63"
   sodipodi:docname="Azure Stack Hub.svg"
   style="font-size:12px;overflow:visible;color-interpolation-filters:sRGB;fill:none;fill-rule:evenodd;stroke-linecap:square;stroke-miterlimit:3"
   inkscape:version="0.92.5 (2060ec1f9f, 2020-04-08)"><metadata
   id="metadata67"><rdf:RDF><cc:Work
       rdf:about=""><dc:format>image/svg+xml</dc:format><dc:type
         rdf:resource="http://purl.org/dc/dcmitype/StillImage" /></cc:Work></rdf:RDF></metadata><sodipodi:namedview
   pagecolor="#ffffff"
   bordercolor="#666666"
   borderopacity="1"
   objecttolerance="10"
   gridtolerance="10"
   guidetolerance="10"
   inkscape:pageopacity="0"
   inkscape:pageshadow="2"
   inkscape:window-width="640"
   inkscape:window-height="480"
   id="namedview65"
   showgrid="false"
   inkscape:zoom="1.8924055"
   inkscape:cx="28.3465"
   inkscape:cy="28.34282"
   inkscape:window-x="0"
   inkscape:window-y="0"
   inkscape:window-maximized="0"
   inkscape:current-layer="svg63" />
	<style
   type="text/css"
   id="style2">
	<![CDATA[
		.st1 {fill:url(#grad0-5);stroke:none;stroke-linecap:butt;stroke-width:34}
		.st2 {fill:#f2f2f2;stroke:none;stroke-linecap:butt;stroke-width:34}
		.st3 {fill:#50e6ff;stroke:none;stroke-linecap:butt;stroke-width:34}
		.st4 {fill:url(#grad0-13);stroke:none;stroke-linecap:butt;stroke-width:34}
		.st5 {fill:none;fill-rule:evenodd;font-size:12px;overflow:visible;stroke-linecap:square;stroke-miterlimit:3}
	]]>
	</style>

	<defs
   id="Patterns_And_Gradients">
		<linearGradient
   id="grad0-5"
   x1="0"
   y1="53.065713"
   x2="43.799408"
   y2="53.065713"
   gradientTransform="scale(0.77672297,1.2874603)"
   gradientUnits="userSpaceOnUse">
			<stop
   offset="0"
   stop-color="#5ea0ef"
   stop-opacity="1"
   id="stop4" />
			<stop
   offset="0.18"
   stop-color="#559cec"
   stop-opacity="1"
   id="stop6" />
			<stop
   offset="0.47"
   stop-color="#3c91e5"
   stop-opacity="1"
   id="stop8" />
			<stop
   offset="0.84"
   stop-color="#1380da"
   stop-opacity="1"
   id="stop10" />
			<stop
   offset="1"
   stop-color="#0078d4"
   stop-opacity="1"
   id="stop12" />
		</linearGradient>
		<linearGradient
   id="grad0-13"
   x1="0"
   y1="117.91883"
   x2="32.650627"
   y2="117.91883"
   gradientTransform="scale(1.2073275,0.82827568)"
   gradientUnits="userSpaceOnUse">
			<stop
   offset="0"
   stop-color="#198ab3"
   stop-opacity="1"
   id="stop15" />
			<stop
   offset="0"
   stop-color="#198ab3"
   stop-opacity="1"
   id="stop17" />
			<stop
   offset="0.14"
   stop-color="#22a5cb"
   stop-opacity="1"
   id="stop19" />
			<stop
   offset="0.3"
   stop-color="#29bade"
   stop-opacity="1"
   id="stop21" />
			<stop
   offset="0.47"
   stop-color="#2ec9eb"
   stop-opacity="1"
   id="stop23" />
			<stop
   offset="0.68"
   stop-color="#31d1f3"
   stop-opacity="1"
   id="stop25" />
			<stop
   offset="1"
   stop-color="#32d4f5"
   stop-opacity="1"
   id="stop27" />
		</linearGradient>
	</defs>
	<g
   id="g61"
   transform="translate(-34,-34.00292)">
		<title
   id="title31">Page-1</title>
		<g
   id="group12633-1"
   transform="translate(34,-34.0157)">
			<title
   id="title33">Azure Stack Hub.12633</title>
			<g
   id="shape12634-2"
   transform="translate(22.6703,-0.30138)">
				<title
   id="title35">Sheet.12634</title>
				<path
   d="M 32.1,68.32 H 1.96 A 1.96086,1.90874 -180 0 0 0,70.19 v 41.79 a 36.0179,35.0605 0 0 1 4.88,-3.34 h 5.72 l 3.16,4.08 v 6.2 L 9.77,121.73 4.23,121.06 0,117.17 v 5.66 a 1.96086,1.90874 -180 0 0 1.96,1.88 H 32.1 a 1.92646,1.87525 -180 0 0 1.92,-1.88 V 70.19 A 1.92646,1.87525 -180 0 0 32.1,68.32 Z"
   class="st1"
   id="path37"
   inkscape:connector-curvature="0"
   style="fill:url(#grad0-5);stroke:none;stroke-width:34;stroke-linecap:butt" />
			</g>
			<g
   id="shape12635-6"
   transform="translate(26.6952,-1.60736)">
				<title
   id="title40">Sheet.12635</title>
				<path
   d="m 0.48,75.48 h 5.54 a 0.481615,0.468813 0 0 1 0.481615,0.468813 L 6.5,82.92 A 0.481615,0.468813 0 0 1 6.018385,83.388813 L 0.48,83.39 A 0.481615,0.468813 0 0 1 -0.001615,82.921187 L 0,75.95 a 0.481615,0.468813 0 0 1 0.481615,-0.468813 z m 9.74,0 h 5.54 a 0.481615,0.468813 0 0 1 0.481615,0.468813 L 16.24,82.92 a 0.481615,0.468813 0 0 1 -0.481615,0.468813 L 10.22,83.39 A 0.481615,0.468813 0 0 1 9.738385,82.921187 L 9.74,75.95 a 0.481615,0.468813 0 0 1 0.481615,-0.468813 z m 9.77,0 h 5.54 a 0.481615,0.468813 0 0 1 0.481615,0.468813 L 26.01,82.92 a 0.481615,0.468813 0 0 1 -0.481615,0.468813 L 19.99,83.39 A 0.481615,0.468813 0 0 1 19.508385,82.921187 L 19.51,75.95 a 0.481615,0.468813 0 0 1 0.481615,-0.468813 z M 0.48,88.07 h 5.54 a 0.481615,0.468813 0 0 1 0.481615,0.468813 L 6.5,95.58 A 0.481615,0.468813 0 0 1 6.018385,96.048813 L 0.48,96.04 A 0.481615,0.468813 0 0 1 -0.001615,95.571187 L 0,88.61 a 0.481615,0.468813 0 0 1 0.481615,-0.535787 z m 9.74,0 h 5.54 a 0.481615,0.468813 0 0 1 0.481615,0.468813 L 16.24,95.58 a 0.481615,0.468813 0 0 1 -0.481615,0.468813 L 10.22,96.04 A 0.481615,0.468813 0 0 1 9.738385,95.571187 L 9.74,88.61 a 0.481615,0.468813 0 0 1 0.481615,-0.535787 z m 9.77,0 h 5.54 a 0.481615,0.468813 0 0 1 0.481615,0.468813 L 26.01,95.58 a 0.481615,0.468813 0 0 1 -0.481615,0.468813 L 19.99,96.04 A 0.481615,0.468813 0 0 1 19.508385,95.571187 L 19.51,88.61 a 0.481615,0.468813 0 0 1 0.481615,-0.535787 z M 0.48,100.8 h 5.54 a 0.481615,0.468813 0 0 1 0.481615,0.46881 L 6.5,108.17 a 0.481615,0.468813 0 0 1 -0.481615,0.46881 L 0.48,108.64 a 0.481615,0.468813 0 0 1 -0.481615,-0.46881 L 0,101.27 a 0.481615,0.468813 0 0 1 0.481615,-0.46881 z m 9.74,0 h 5.54 a 0.481615,0.468813 0 0 1 0.481615,0.46881 L 16.24,108.17 a 0.481615,0.468813 0 0 1 -0.481615,0.46881 L 10.22,108.64 A 0.481615,0.468813 0 0 1 9.738385,108.17119 L 9.74,101.27 a 0.481615,0.468813 0 0 1 0.481615,-0.46881 z m 0,12.66 h 5.54 a 0.481615,0.468813 0 0 1 0.481615,0.46881 L 16.24,124.24 a 0.481615,0.468813 0 0 1 -0.481615,0.46881 L 10.22,124.71 A 0.481615,0.468813 0 0 1 9.738385,124.24119 L 9.74,113.93 a 0.481615,0.468813 0 0 1 0.481615,-0.46881 z m 9.77,-12.66 h 5.54 a 0.481615,0.468813 0 0 1 0.481615,0.46881 L 26.01,108.17 a 0.481615,0.468813 0 0 1 -0.481615,0.46881 L 19.99,108.64 a 0.481615,0.468813 0 0 1 -0.481615,-0.46881 L 19.51,101.27 a 0.481615,0.468813 0 0 1 0.481615,-0.46881 z"
   class="st2"
   id="path42"
   inkscape:connector-curvature="0"
   style="fill:#f2f2f2;stroke:none;stroke-width:34;stroke-linecap:butt" />
			</g>
			<g
   id="shape12636-8"
   transform="translate(10.0451,-7.94596)">
				<title
   id="title45">Sheet.12636</title>
				<path
   d="m 20.02,117.85 a 4.47214,4.35327 -180 0 0 -4.26,3.35 H 0.28 A 9.70109,9.44324 -180 0 0 0,123.38 v 0.2 h 15.76 a 4.43773,4.31978 -180 1 0 4.26,-5.73 z"
   class="st3"
   id="path47"
   inkscape:connector-curvature="0"
   style="fill:#50e6ff;stroke:none;stroke-width:34;stroke-linecap:butt" />
			</g>
			<g
   id="shape12637-10"
   transform="translate(10.2859)">
				<title
   id="title50">Sheet.12637</title>
				<path
   d="m 31.82,108.1 a 11.2147,10.9167 -180 0 0 -11.7,-10.42 11.4899,11.1845 -180 0 0 -11,7.31 10.9395,10.6488 -180 0 0 -8.74,6.69 h 14.24 a 5.91698,5.75971 0 1 1 5.16,8.27 5.95138,5.79319 0 0 1 -5.26,-3.35 H 0 a 11.0083,10.7157 -180 0 0 10.94,8.11 H 30 30.48 a 9.04747,8.80699 -180 0 0 8.94,-8.11 8.94427,8.70653 -180 0 0 -7.6,-8.5 z"
   class="st4"
   id="path52"
   inkscape:connector-curvature="0"
   style="fill:url(#grad0-13);stroke:none;stroke-width:34;stroke-linecap:butt" />
			</g>
			<g
   id="shape12638-14"
   transform="translate(0,-7.90617)">
				<title
   id="title55">Sheet.12638</title>
				<path
   d="m 30.07,117.81 a 4.47214,4.35327 -180 0 0 -4.27,3.35 H 10.32 a 7.63703,7.43404 0 0 1 -1.62,-0.2 7.98104,7.7689 0 0 1 -6.26,-7.33 8.01544,7.80239 0 0 1 7.12,-7.67 h 0.76 l 0.24,-0.67 a 8.80667,8.57258 0 0 1 8.46,-5.73 9.08187,8.84048 0 0 1 7.85,4.26 10.5955,10.3139 0 0 1 2.58,-0.31 11.4211,11.1176 -180 0 0 -10.32,-6.32 11.2835,10.9836 -180 0 0 -10.63,6.53 10.3203,10.046 -180 0 0 -8.5,9.77 10.3203,10.046 -180 0 0 7.71,9.51 6.88021,6.69733 -180 0 0 2.51,0.41 H 25.8 a 4.43773,4.31978 -180 1 0 4.27,-5.6 z"
   class="st3"
   id="path57"
   inkscape:connector-curvature="0"
   style="fill:#50e6ff;stroke:none;stroke-width:34;stroke-linecap:butt" />
			</g>
		</g>
	</g>
</svg>