<?xml version="1.0" encoding="UTF-8" standalone="no"?>
<!DOCTYPE svg PUBLIC "-//W3C//DTD SVG 1.1//EN" "http://www.w3.org/Graphics/SVG/1.1/DTD/svg11.dtd">
<!-- Generated by Microsoft Visio, SVG Export License.svg Page-1 -->
<svg xmlns="http://www.w3.org/2000/svg" xmlns:xlink="http://www.w3.org/1999/xlink" xmlns:ev="http://www.w3.org/2001/xml-events"
		width="0.976181in" height="1.55108in" viewBox="0 0 70.285 111.678" xml:space="preserve" color-interpolation-filters="sRGB"
		class="st7">
	<style type="text/css">
	<![CDATA[
		.st1 {fill:#59b4d9;stroke:none;stroke-linecap:butt;stroke-width:15.3}
		.st2 {fill:#ffffff;fill-opacity:0.2;stroke:none;stroke-linecap:butt;stroke-width:15.3}
		.st3 {fill:#dd5900;stroke:none;stroke-linecap:butt;stroke-width:15.3}
		.st4 {fill:#fcd116;fill-opacity:0.7;stroke:none;stroke-linecap:butt;stroke-width:15.3}
		.st5 {visibility:visible}
		.st6 {fill:#000000;font-family:Calibri;font-size:0.666664em}
		.st7 {fill:none;fill-rule:evenodd;font-size:12px;overflow:visible;stroke-linecap:square;stroke-miterlimit:3}
	]]>
	</style>

	<g>
		<title>Page-1</title>
		<g id="group7019-1" transform="translate(15.3,-39.685)">
			<title>License.7019</title>
			<desc>License</desc>
			<g id="group7020-2">
				<title>g14</title>
				<g id="shape7021-3" transform="translate(0,-2.83465)">
					<title>path4</title>
					<path d="M31 68.86 C31 74.97 26.07 79.9 19.96 79.9 C13.86 79.9 8.92 74.97 8.92 68.86 C9.03 62.75 13.96 57.82
								 19.96 57.82 A11.0239 11.0239 0 0 1 31 68.86 ZM28 83.33 L19.96 94.59 L11.93 83.33 L0 83.33 L0 111.68
								 L39.69 111.68 L39.69 83.33 L28 83.33 Z" class="st1"/>
				</g>
				<g id="shape7022-5" transform="translate(0,-2.83465)">
					<title>path6</title>
					<path d="M9.03 68.86 C9.03 74.86 13.86 79.68 19.75 79.9 L22.54 58.25 C21.68 57.93 20.82 57.82 19.96 57.82 C13.96
								 57.82 9.03 62.75 9.03 68.86 ZM11.93 83.33 L0 83.33 L0 111.68 L15.78 111.68 L18.25 92.31 L11.93 83.33
								 Z" class="st2"/>
				</g>
				<g id="shape7023-7" transform="translate(23.3135,-11.9679)">
					<title>circle8</title>
					<ellipse cx="6.83858" cy="104.839" rx="6.83858" ry="6.83858" class="st3"/>
				</g>
				<g id="shape7024-9" transform="translate(25.0228,-13.6772)">
					<title>circle10</title>
					<ellipse cx="5.12929" cy="106.549" rx="5.12929" ry="5.12929" class="st4"/>
				</g>
				<g id="shape7025-11" transform="translate(24.1739,1.42109E-14)">
					<title>path12</title>
					<path d="M5.98 98 A7.65354 7.65354 0 0 1 0.81 95.99 L0 111.59 L5.89 105.69 L11.88 111.68 L11.96 110.82 L11.14
								 95.99 A7.65354 7.65354 0 0 1 5.98 98 Z" class="st3"/>
				</g>
			</g>
			<g id="shape7019-13">
				<g id="shadow7019-14" transform="matrix(1,0,0,1,1.41732,1.41732)" class="st5"/>
				<text x="7.91" y="127.38" class="st6">License</text>			</g>
		</g>
	</g>
</svg>
