<?xml version="1.0" encoding="UTF-8" standalone="no"?>
<!DOCTYPE svg PUBLIC "-//W3C//DTD SVG 1.1//EN" "http://www.w3.org/Graphics/SVG/1.1/DTD/svg11.dtd">
<!-- Generated by Microsoft Visio, SVG Export Preview Feature.svg Page-1 -->
<svg xmlns="http://www.w3.org/2000/svg" xmlns:xlink="http://www.w3.org/1999/xlink" xmlns:ev="http://www.w3.org/2001/xml-events"
		width="1.73185in" height="1.8108in" viewBox="0 0 124.693 130.378" xml:space="preserve" color-interpolation-filters="sRGB"
		class="st8">
	<style type="text/css">
	<![CDATA[
		.st1 {fill:#5e9624;stroke:none;stroke-linecap:butt;stroke-width:34}
		.st2 {fill:url(#grad0-8);stroke:none;stroke-linecap:butt;stroke-width:34}
		.st3 {fill:url(#grad0-12);stroke:none;stroke-linecap:butt;stroke-width:34}
		.st4 {fill:url(#grad0-16);stroke:none;stroke-linecap:butt;stroke-width:34}
		.st5 {fill:#86d633;stroke:none;stroke-linecap:butt;stroke-width:34}
		.st6 {visibility:visible}
		.st7 {fill:#000000;font-family:Calibri;font-size:0.666664em}
		.st8 {fill:none;fill-rule:evenodd;font-size:12px;overflow:visible;stroke-linecap:square;stroke-miterlimit:3}
	]]>
	</style>

	<defs id="Patterns_And_Gradients">
		<linearGradient id="grad0-8" x1="0" y1="0" x2="1" y2="0" gradientTransform="rotate(90 0.5 0.5)">
			<stop offset="0" stop-color="#86d633" stop-opacity="1"/>
			<stop offset="1" stop-color="#76bc2d" stop-opacity="1"/>
		</linearGradient>
		<linearGradient id="grad0-12" x1="0" y1="0" x2="1" y2="0" gradientTransform="rotate(90 0.5 0.5)">
			<stop offset="0" stop-color="#5ea0ef" stop-opacity="1"/>
			<stop offset="0.18" stop-color="#589eed" stop-opacity="1"/>
			<stop offset="0.41" stop-color="#4897e9" stop-opacity="1"/>
			<stop offset="0.66" stop-color="#2e8ce1" stop-opacity="1"/>
			<stop offset="0.94" stop-color="#0a7cd7" stop-opacity="1"/>
			<stop offset="1" stop-color="#0078d4" stop-opacity="1"/>
		</linearGradient>
		<linearGradient id="grad0-16" x1="0" y1="0" x2="1" y2="0" gradientTransform="rotate(-90 0.5 0.5)">
			<stop offset="0" stop-color="#198ab3" stop-opacity="1"/>
			<stop offset="0.24" stop-color="#22a5cb" stop-opacity="1"/>
			<stop offset="0.53" stop-color="#2bbfe2" stop-opacity="1"/>
			<stop offset="0.79" stop-color="#30cff0" stop-opacity="1"/>
			<stop offset="1" stop-color="#32d4f5" stop-opacity="1"/>
		</linearGradient>
	</defs>
	<g>
		<title>Page-1</title>
		<g id="group6980-1" transform="translate(34,-39.685)">
			<title>Preview Feature.6980</title>
			<desc>Preview Feature</desc>
			<g id="group6981-2">
				<title>Sheet.6981</title>
				<g id="shape6982-3" transform="translate(31.3134,-31.3102)">
					<title>Sheet.6982</title>
					<path d="M12.69 130.38 a0.944882 0.944882 0 0 1 -0.944882 -0.944882 A10.8094 10.8094 -180 0 0 0.94 118.63 a0.944882
								 0.944882 0 0 1 -0.944882 -0.944882 a0.944882 0.944882 0 0 1 0.944882 -0.944882 A10.8094 10.8094
								 -180 0 0 11.74 105.94 a0.944882 0.944882 0 0 1 0.944882 -0.944882 a0.944882 0.944882 0 0 1 0.944882
								 0.944882 A10.8094 10.8094 -180 0 0 24.43 116.74 a0.944882 0.944882 0 1 1 0 1.88976 A10.8094 10.8094
								 -180 0 0 13.64 129.43 a0.944882 0.944882 0 0 1 -0.948031 0.951181 Z" class="st1"/>
				</g>
				<g id="shape6983-5" transform="translate(0,-31.3102)">
					<title>Sheet.6983</title>
					<path d="M0 128.49 A1.88981 1.88981 -180 0 0 1.89 130.38 L23.49 130.38 A1.88981 1.88981 -180 0 0 25.38 128.49
								 L25.38 106.89 A1.88981 1.88981 -180 0 0 23.49 105 L1.89 105 A1.88981 1.88981 -180 0 0 -0 106.89
								 L0 128.49 Z" class="st2"/>
				</g>
				<g id="shape6984-9">
					<title>Sheet.6984</title>
					<path d="M0 128.49 A1.88981 1.88981 -180 0 0 1.89 130.38 L23.49 130.38 A1.88981 1.88981 -180 0 0 25.38 128.49
								 L25.38 106.89 A1.88981 1.88981 -180 0 0 23.49 105 L1.89 105 A1.88981 1.88981 -180 0 0 -0 106.89
								 L0 128.49 Z" class="st3"/>
				</g>
				<g id="shape6985-13" transform="translate(31.3102,0)">
					<title>Sheet.6985</title>
					<path d="M0 128.49 A1.88981 1.88981 -180 0 0 1.89 130.38 L23.49 130.38 A1.88981 1.88981 -180 0 0 25.38 128.49
								 L25.38 106.89 A1.88981 1.88981 -180 0 0 23.49 105 L1.89 105 A1.88981 1.88981 -180 0 0 -0 106.89
								 L0 128.49 Z" class="st4"/>
				</g>
				<g id="shape6986-17" transform="translate(2.96063,-2.96378)">
					<title>Sheet.6986</title>
					<path d="M17.56 99.07 L1.9 99.07 A1.88976 1.88976 0 0 1 0.01 97.18 L0.01 81.5 A1.88976 1.88976 0 0 1 1.9 79.61
								 L17.56 79.61 A1.88976 1.88976 0 0 1 19.45 81.5 L19.45 97.17 A1.88976 1.88976 0 0 1 17.56 99.07 ZM19.45
								 128.48 L19.45 112.82 A1.88976 1.88976 -180 0 0 17.56 110.93 L1.89 110.93 A1.88976 1.88976 -180 0
								 0 0 112.82 L0 128.49 A1.88976 1.88976 -180 0 0 1.89 130.38 L17.56 130.38 A1.88976 1.88976 -180 0
								 0 19.46 128.48 L19.45 128.48 ZM50.77 128.48 L50.77 112.82 A1.88976 1.88976 -180 0 0 48.88 110.93
								 L33.2 110.93 A1.88976 1.88976 -180 0 0 31.31 112.82 L31.31 128.49 A1.88976 1.88976 -180 0 0 33.2
								 130.38 L48.87 130.38 A1.88976 1.88976 -180 0 0 50.77 128.48 L50.77 128.48 Z" class="st5"/>
				</g>
			</g>
			<g id="shape6980-19">
				<g id="shadow6980-20" transform="matrix(1,0,0,1,1.41732,1.41732)" class="st6"/>
				<text x="1.85" y="146.08" class="st7">Preview Feature</text>			</g>
		</g>
	</g>
</svg>
