<?xml version="1.0" encoding="UTF-8" standalone="no"?>
<!DOCTYPE svg PUBLIC "-//W3C//DTD SVG 1.1//EN" "http://www.w3.org/Graphics/SVG/1.1/DTD/svg11.dtd">
<!-- Generated by Microsoft Visio, SVG Export Service Catalog Managed Application Definition.svg Page-1 -->
<svg xmlns="http://www.w3.org/2000/svg" xmlns:xlink="http://www.w3.org/1999/xlink" xmlns:ev="http://www.w3.org/2001/xml-events"
		width="1.38568in" height="1.50858in" viewBox="0 0 99.7688 108.618" xml:space="preserve" color-interpolation-filters="sRGB"
		class="st10">
	<style type="text/css">
	<![CDATA[
		.st1 {fill:#646565;stroke:none;stroke-linecap:butt;stroke-width:12.24}
		.st2 {fill:#646565;fill-opacity:0.5;stroke:none;stroke-linecap:butt;stroke-width:12.24}
		.st3 {fill:#0072c6;stroke:none;stroke-linecap:butt;stroke-width:12.24}
		.st4 {fill:#ffffff;fill-opacity:0.75;stroke:none;stroke-linecap:butt;stroke-width:12.24}
		.st5 {fill:#ffffff;fill-opacity:0.8;stroke:none;stroke-linecap:butt;stroke-width:12.24}
		.st6 {fill:#ffffff;stroke:none;stroke-linecap:butt;stroke-width:12.24}
		.st7 {visibility:visible}
		.st8 {fill:#000000;font-family:Calibri;font-size:0.666664em}
		.st9 {font-size:1em}
		.st10 {fill:none;fill-rule:evenodd;font-size:12px;overflow:visible;stroke-linecap:square;stroke-miterlimit:3}
	]]>
	</style>

	<g>
		<title>Page-1</title>
		<g id="group7028-1" transform="translate(20.6336,-39.685)">
			<title>Service Catalog Managed Application Definition.7028</title>
			<desc>Service Catalog Managed Application Definition</desc>
			<g id="group7029-2">
				<title>Sheet.7029</title>
				<g id="shape7030-3" transform="translate(5.39568E-14,-47.2441)">
					<title>Sheet.7030</title>
					<path d="M0 107.44 L6.58 107.44 L6.58 108.62 L1.2 108.62 C1.2 108.62 0 108.62 0 107.44 Z" class="st1"/>
				</g>
				<g id="shape7031-5" transform="translate(-2.69784E-14,-48.4252)">
					<title>Sheet.7031</title>
					<path d="M4.79 105.07 L3.59 105.07 A3.59055 3.54331 -180 0 0 0 108.62 L1.2 108.62 A2.3937 2.3622 0 0 1 3.59 106.26
								 L4.79 106.26 L4.79 105.07 Z" class="st2"/>
				</g>
				<g id="shape7032-7" transform="translate(5.39568E-14,-40.1575)">
					<title>Sheet.7032</title>
					<path d="M0 107.44 L6.58 107.44 L6.58 108.62 L1.2 108.62 C1.2 108.62 0 108.62 0 107.44 Z" class="st1"/>
				</g>
				<g id="shape7033-9" transform="translate(-2.69784E-14,-41.3386)">
					<title>Sheet.7033</title>
					<path d="M4.79 105.07 L3.59 105.07 A3.59055 3.54331 -180 0 0 -0 108.62 L1.2 108.62 A2.3937 2.3622 0 0 1 3.59
								 106.26 L4.79 106.26 L4.79 105.07 Z" class="st2"/>
				</g>
				<g id="shape7034-11" transform="translate(5.39568E-14,-33.0709)">
					<title>Sheet.7034</title>
					<path d="M0 107.44 L6.58 107.44 L6.58 108.62 L1.2 108.62 C1.2 108.62 0 108.62 0 107.44 Z" class="st1"/>
				</g>
				<g id="shape7035-13" transform="translate(-2.69784E-14,-34.252)">
					<title>Sheet.7035</title>
					<path d="M4.79 105.07 L3.59 105.07 A3.59055 3.54331 -180 0 0 0 108.62 L1.2 108.62 A2.3937 2.3622 0 0 1 3.59 106.26
								 L4.79 106.26 L4.79 105.07 Z" class="st2"/>
				</g>
				<g id="shape7036-15" transform="translate(5.39568E-14,-25.9843)">
					<title>Sheet.7036</title>
					<path d="M0 107.44 L6.58 107.44 L6.58 108.62 L1.2 108.62 C1.2 108.62 0 108.62 0 107.44 Z" class="st1"/>
				</g>
				<g id="shape7037-17" transform="translate(-2.69784E-14,-27.1654)">
					<title>Sheet.7037</title>
					<path d="M4.79 105.07 L3.59 105.07 A3.59055 3.54331 -180 0 0 -0 108.62 L1.2 108.62 A2.3937 2.3622 0 0 1 3.59
								 106.26 L4.79 106.26 L4.79 105.07 Z" class="st2"/>
				</g>
				<g id="shape7038-19" transform="translate(5.39568E-14,-18.8976)">
					<title>Sheet.7038</title>
					<path d="M0 107.44 L6.58 107.44 L6.58 108.62 L1.2 108.62 C1.2 108.62 0 108.62 0 107.44 Z" class="st1"/>
				</g>
				<g id="shape7039-21" transform="translate(-2.69784E-14,-20.0787)">
					<title>Sheet.7039</title>
					<path d="M4.79 105.07 L3.59 105.07 A3.59055 3.54331 -180 0 0 0 108.62 L1.2 108.62 A2.3937 2.3622 0 0 1 3.59 106.26
								 L4.79 106.26 L4.79 105.07 Z" class="st2"/>
				</g>
				<g id="shape7040-23" transform="translate(5.39568E-14,-11.811)">
					<title>Sheet.7040</title>
					<path d="M0 107.44 L6.58 107.44 L6.58 108.62 L1.2 108.62 C1.2 108.62 0 108.62 0 107.44 Z" class="st1"/>
				</g>
				<g id="shape7041-25" transform="translate(-2.69784E-14,-12.9921)">
					<title>Sheet.7041</title>
					<path d="M4.79 105.07 L3.59 105.07 A3.59055 3.54331 -180 0 0 -0 108.62 L1.2 108.62 A2.3937 2.3622 0 0 1 3.59
								 106.26 L4.79 106.26 L4.79 105.07 Z" class="st2"/>
				</g>
				<g id="shape7042-27" transform="translate(5.39568E-14,-4.72441)">
					<title>Sheet.7042</title>
					<path d="M0 107.44 L6.58 107.44 L6.58 108.62 L1.2 108.62 C1.2 108.62 0 108.62 0 107.44 Z" class="st1"/>
				</g>
				<g id="shape7043-29" transform="translate(-2.69784E-14,-5.90551)">
					<title>Sheet.7043</title>
					<path d="M4.79 105.07 L3.59 105.07 A3.59055 3.54331 -180 0 0 0 108.62 L1.2 108.62 A2.3937 2.3622 0 0 1 3.59 106.26
								 L4.79 106.26 L4.79 105.07 Z" class="st2"/>
				</g>
				<g id="shape7044-31" transform="translate(5.98425,-1.1811)">
					<title>Sheet.7044</title>
					<path d="M8.38 53.11 C4.79 53.11 0 56.65 0 56.65 L2.39 56.65 L2.39 106.26 L44.28 106.26 L44.28 108.62 L47.87
								 105.07 L47.87 53.11 L8.38 53.11 Z" class="st3"/>
				</g>
				<g id="shape7045-33" transform="translate(7.77953,-2.3622)">
					<title>Sheet.7045</title>
					<path d="M4.19 55.47 L0 57.83 L1.8 57.83 L1.8 108.62 L42.49 108.62 L44.88 106.26 L44.88 55.47 L4.19 55.47 Z"
							class="st4"/>
				</g>
				<g id="shape7046-35" transform="translate(8.37795,-53.1496)">
					<title>Sheet.7046</title>
					<path d="M4.19 106.26 L0 108.62 L41.89 108.62 L44.28 106.26 L4.19 106.26 Z" class="st5"/>
				</g>
				<g id="shape7047-37" transform="translate(4.7874,1.42109E-14)">
					<title>Sheet.7047</title>
					<path d="M0 108.62 L0 105.07 L2.39 105.07 L3.59 103.89 L3.59 102.71 L2.39 101.53 L0 101.53 L0 97.99 L2.39 97.99
								 L3.59 96.81 L3.59 95.63 L2.39 94.44 L0 94.44 L0 90.9 L2.39 90.9 L3.59 89.72 L3.59 88.54 L2.39 87.36
								 L0 87.36 L0 83.81 L2.39 83.81 L3.59 82.63 L3.59 81.45 L2.39 80.27 L0 80.27 L0 76.73 L2.39 76.73
								 L3.59 75.55 L3.59 74.37 L2.39 73.18 L0 73.18 L0 69.64 L2.39 69.64 L3.59 68.46 L3.59 67.28 L2.39
								 66.1 L0 66.1 L0 62.55 L2.39 62.55 L3.59 61.37 L3.59 60.19 L2.39 59.01 L0 59.01 L0 55.47 L45.48 55.47
								 L45.48 108.62 L0 108.62 Z" class="st3"/>
				</g>
				<g id="shape7048-39" transform="translate(17.9528,-14.6941)">
					<title>Sheet.7048</title>
					<path d="M13.95 100.93 a0.17115 0.168898 -180 0 0 0.0813858 -0.0200787 L19.35 98.01 a0.150803 0.148819 -180 0
								 0 0.0813858 -0.132283 L19.43 92.04 a0.155591 0.153543 -180 0 0 -0.0813858 -0.133465 a0.177134 0.174803
								 -180 0 0 -0.162772 1.84741E-13 L13.87 94.81 a0.155591 0.153543 -180 0 0 -0.0789921 0.133465 L13.79
								 100.78 C13.79 100.84 13.82 100.89 13.87 100.91 a0.162772 0.16063 -180 0 0 0.080189 0.0200787 ZM13.95
								 108.62 a0.17115 0.168898 -180 0 0 0.0813858 -0.0200787 L19.35 105.69 a0.150803 0.148819 -180 0 0
								 0.0813858 -0.132283 L19.43 99.72 a0.155591 0.153543 -180 0 0 -0.0813858 -0.133465 a0.177134 0.174803
								 -180 0 0 -0.162772 -2.84217E-14 L13.87 102.5 a0.155591 0.153543 -180 0 0 -0.0789921 0.133465 L13.79
								 108.47 a0.152 0.15 -180 0 0 0.159181 0.151181 ZM20.85 97.09 a0.179528 0.177165 -180 0 0 0.0825827
								 -0.0200787 L26.25 94.16 a0.150803 0.148819 -180 0 0 0.0813858 -0.132283 L26.33 88.2 a0.153197 0.151181
								 -180 0 0 -0.0825827 -0.133465 a0.177134 0.174803 -180 0 0 -0.162772 -4.68958E-13 L20.77 90.97 a0.155591
								 0.153543 -180 0 0 -0.0789921 0.133465 L20.69 96.94 C20.69 97 20.72 97.05 20.77 97.07 a0.183118 0.180709
								 -180 0 0 0.080189 0.0188976 ZM20.85 104.78 a0.179528 0.177165 -180 0 0 0.0825827 -0.0200787 L26.25
								 101.85 a0.150803 0.148819 -180 0 0 0.0813858 -0.132283 L26.33 95.88 a0.153197 0.151181 -180 0 0
								 -0.0825827 -0.133465 a0.177134 0.174803 -180 0 0 -0.162772 -2.27374E-13 L20.77 98.66 a0.155591 0.153543
								 -180 0 0 -0.0789921 0.133465 L20.69 104.62 C20.69 104.68 20.72 104.73 20.77 104.76 a0.183118 0.180709
								 -180 0 0 0.080189 0.0188976 ZM12.38 100.93 a0.17115 0.168898 0 0 1 -0.0813858 -0.0200787 L6.98 98.01
								 a0.150803 0.148819 0 0 1 -0.0813858 -0.132283 L6.9 92.04 a0.155591 0.153543 0 0 1 0.0813858 -0.133465
								 a0.177134 0.174803 0 0 1 0.162772 -2.13163E-13 L12.46 94.81 a0.155591 0.153543 0 0 1 0.0789921 0.133465
								 L12.54 100.78 a0.152 0.15 0 0 1 -0.159181 0.151181 ZM12.38 108.62 a0.17115 0.168898 0 0 1 -0.0813858
								 -0.0200787 L6.98 105.69 a0.150803 0.148819 0 0 1 -0.0813858 -0.132283 L6.9 99.72 a0.155591 0.153543
								 0 0 1 0.0813858 -0.133465 a0.177134 0.174803 0 0 1 0.162772 1.42109E-14 L12.46 102.5 a0.155591 0.153543
								 0 0 1 0.0789921 0.133465 L12.54 108.47 a0.152 0.15 0 0 1 -0.159181 0.151181 ZM5.48 97.09 a0.17115
								 0.168898 0 0 1 -0.0813858 -0.0200787 L0.08 94.16 a0.149606 0.147638 0 0 1 -0.0825827 -0.132283 L0
								 88.2 a0.155591 0.153543 0 0 1 0.0813858 -0.133465 a0.177134 0.174803 0 0 1 0.162772 -1.42109E-14
								 L5.56 90.97 a0.155591 0.153543 0 0 1 0.0789921 0.133465 L5.64 96.94 a0.152 0.15 0 0 1 -0.157984
								 0.151181 ZM5.48 104.78 a0.17115 0.168898 0 0 1 -0.0813858 -0.0200787 L0.08 101.85 a0.149606 0.147638
								 0 0 1 -0.0825827 -0.132283 L0 95.88 a0.155591 0.153543 0 0 1 0.0813858 -0.133465 a0.177134 0.174803
								 0 0 1 0.162772 -9.9476E-14 L5.56 98.66 a0.155591 0.153543 0 0 1 0.0789921 0.133465 L5.64 104.62
								 a0.152 0.15 0 0 1 -0.157984 0.151181 ZM7.79 90.29 a0.150803 0.148819 0 0 1 0.0598425 -0.0555118
								 L13.14 87.4 a0.162772 0.16063 0 0 1 0.160378 -0.0011811 L18.53 90.21 a0.147213 0.145276 0 0 1 0.0789921
								 0.129921 a0.159181 0.157087 0 0 1 -0.0813858 0.129921 L13.24 93.3 a0.169953 0.167717 0 0 1 -0.159181
								 -0.0011811 L7.85 90.49 a0.144819 0.142913 0 0 1 -0.0574488 -0.201969 ZM0.9 86.59 a0.155591 0.153543
								 0 0 1 0.0586457 -0.0555118 L6.19 83.7 a0.157984 0.155906 0 0 1 0.157984 -0.0011811 L11.52 86.51
								 C11.57 86.53 11.6 86.58 11.6 86.64 a0.159181 0.157087 0 0 1 -0.0813858 0.129921 L6.29 89.6 a0.165165
								 0.162992 0 0 1 -0.156787 -0.0011811 L0.96 86.79 a0.146016 0.144094 0 0 1 -0.0777953 -0.126378 a0.169953
								 0.167717 0 0 1 0.0227402 -0.0755906 ZM14.83 86.65 a0.155591 0.153543 0 0 1 0.0586457 -0.0555118
								 L20.12 83.76 a0.157984 0.155906 0 0 1 0.157984 -0.0011811 L25.45 86.57 C25.5 86.6 25.53 86.64 25.53
								 86.7 a0.159181 0.157087 0 0 1 -0.0813858 0.129921 L20.22 89.66 a0.165165 0.162992 0 0 1 -0.156787
								 -0.0011811 L14.89 86.85 a0.146016 0.144094 0 0 1 -0.0777953 -0.126378 a0.165165 0.162992 0 0 1 0.0227402
								 -0.0755906 ZM7.82 83 a0.155591 0.153543 0 0 1 0.0598425 -0.0543307 L13.17 80.15 a0.168756 0.166535
								 0 0 1 0.160378 -0.0011811 L18.56 82.92 a0.144819 0.142913 0 0 1 0.0789921 0.127559 a0.157984 0.155906
								 0 0 1 -0.0813858 0.127559 L13.27 85.96 a0.173543 0.17126 0 0 1 -0.159181 -0.0011811 L7.88 83.19
								 a0.142425 0.140551 0 0 1 -0.0789921 -0.125197 C7.8 83.04 7.81 83.02 7.82 83 Z" class="st6"/>
				</g>
				<g id="shape7049-41" transform="translate(10.853,-8.07047)">
					<title>Sheet.7049</title>
					<path d="M14.44 108.62 C12.29 108.62 10.37 106.87 8.97 105.59 C8.57 105.22 8.19 104.88 7.94 104.7 C7.02 104.05
								 5.21 103.36 3.43 103.36 L1.79 103.36 A1.79887 1.7752 0 0 1 -0 101.58 L0 96.09 C0 95.11 0.81 94.32
								 1.8 94.32 L4.48 94.32 L4.61 95.5 L4.61 94.32 C5.38 94.32 6.58 94.1 7.64 93.9 C8.49 93.75 9.29 93.6
								 9.96 93.54 C10.25 93.52 10.55 93.5 10.85 93.5 C11.69 93.5 14.55 93.64 15.79 95.39 C15.94 95.59 16.61
								 96.39 16.92 96.63 C17.18 96.84 17.82 97.05 18.85 97.05 L19.04 97.05 C19.12 97.05 19.31 97.03 19.56
								 97.01 C20.27 96.95 21.35 96.86 22.17 96.86 C22.36 96.86 22.54 96.86 22.69 96.87 C24.26 96.99 25.11
								 98.04 25.25 99.03 C25.31 99.41 25.25 99.93 25.05 100.41 L25.63 100.13 C27.47 99.23 30 98.01 31.46
								 97.52 A5.14167 5.07402 0 0 1 33.1 97.24 C34.29 97.24 35.27 97.72 35.73 98.54 C35.97 98.97 36.27
								 99.88 35.53 101.06 C35.15 101.67 34.53 102.26 33.85 102.68 A544.679 537.513 0 0 1 29.93 105.05 C29.38
								 105.39 28.81 105.75 28.25 106.11 C26.32 107.34 25.09 108.1 24.17 108.22 A9.55685 9.4311 0 0 1 22.91
								 108.28 C22.5 108.28 22.04 108.27 21.58 108.26 A56.7247 55.9783 -180 0 0 20.27 108.24 C19.95 108.24
								 19.66 108.25 19.41 108.27 C19.05 108.29 18.64 108.34 18.19 108.38 C17.11 108.48 15.77 108.62 14.44
								 108.62 Z" class="st3"/>
				</g>
				<g id="shape7050-43" transform="translate(11.9314,-9.13228)">
					<title>Sheet.7050</title>
					<path d="M30.65 99.82 C28.62 100.49 24.16 102.8 23.14 103.22 C21.94 103.73 19.55 104.03 16.89 103.99 C15.42 103.96
								 14.37 103.8 13.78 103.26 C13.78 103.26 11.67 101.57 11.24 101.15 C10.52 100.45 11.45 99.39 12.18
								 99.95 C12.72 100.36 13.61 101.25 14.48 101.89 C15.35 102.54 18.43 102.24 19.7 102.15 C21.17 102.05
								 21.99 101.77 22.32 101.61 C22.8 101.38 22.92 100.68 22.87 100.38 C22.81 99.95 22.41 99.3 21.41 99.23
								 C20.41 99.16 18.2 99.41 17.87 99.41 C16.34 99.45 15.43 99.1 14.97 98.73 C14.51 98.37 13.73 97.4
								 13.62 97.25 C12.84 96.15 10.7 95.73 8.87 95.9 C7.35 96.04 4.76 96.72 3.28 96.68 L0.6 96.68 a0.598425
								 0.590551 -180 0 0 -0.598425 0.590551 L0 102.77 a0.598425 0.590551 -180 0 0 0.596031 0.590551 L2.24
								 103.36 C4.18 103.36 6.23 104.08 7.43 104.92 C8.64 105.76 10.97 108.62 13.25 108.62 C15.05 108.62
								 16.86 108.36 18.13 108.27 C19.39 108.17 21.82 108.37 22.81 108.23 C23.79 108.1 26.12 106.42 28.1
								 105.23 C29.31 104.51 30.65 103.7 32.02 102.86 C32.57 102.52 33.04 102.06 33.32 101.62 C34.29 100.07
								 32.61 99.16 30.65 99.82 Z" class="st6"/>
				</g>
			</g>
			<g id="shape7028-45">
				<g id="shadow7028-46" transform="matrix(1,0,0,1,1.41732,1.41732)" class="st7"/>
				<text x="-14.05" y="124.32" class="st8">Service Catalog Managed <tspan x="-8.48" dy="1.2em" class="st9">Application Definition</tspan></text>			</g>
		</g>
	</g>
</svg>
