<?xml version="1.0" encoding="UTF-8" standalone="no"?>
<!DOCTYPE svg PUBLIC "-//W3C//DTD SVG 1.1//EN" "http://www.w3.org/Graphics/SVG/1.1/DTD/svg11.dtd">
<!-- Generated by Microsoft Visio, SVG Export NAT Gateway.svg Page-1 -->
<svg xmlns="http://www.w3.org/2000/svg" xmlns:xlink="http://www.w3.org/1999/xlink" xmlns:ev="http://www.w3.org/2001/xml-events"
		width="1.7107in" height="1.72149in" viewBox="0 0 123.171 123.947" xml:space="preserve" color-interpolation-filters="sRGB"
		class="st5">
	<style type="text/css">
	<![CDATA[
		.st1 {fill:url(#grad0-6);stroke:none;stroke-linecap:butt;stroke-width:34}
		.st2 {fill:#9cebff;stroke:none;stroke-linecap:butt;stroke-width:34}
		.st3 {fill:#ffffff;stroke:none;stroke-linecap:butt;stroke-width:34}
		.st4 {fill:#86d633;stroke:none;stroke-linecap:butt;stroke-width:34}
		.st5 {fill:none;fill-rule:evenodd;font-size:12px;overflow:visible;stroke-linecap:square;stroke-miterlimit:3}
	]]>
	</style>

	<defs id="Patterns_And_Gradients">
		<linearGradient id="grad0-6" x1="0" y1="0" x2="1" y2="0" gradientTransform="rotate(-45 0.5 0.5)">
			<stop offset="0" stop-color="#238ab0" stop-opacity="1"/>
			<stop offset="0.11" stop-color="#2da4c8" stop-opacity="1"/>
			<stop offset="0.775" stop-color="#3ed3f2" stop-opacity="1"/>
		</linearGradient>
	</defs>
	<g>
		<title>Page-1</title>
		<g id="group17433-1" transform="translate(33.2388,-34.0157)">
			<title>NAT Gateway.17433</title>
			<g id="group17434-2">
				<title>Icon-310-NATService</title>
				<g id="shape17435-3" transform="translate(-59.2977,36.3034) rotate(-45)">
					<title>Sheet.17435</title>
					<path d="M0 122.11 A1.83763 1.83763 -180 0 0 1.84 123.95 L38.25 123.95 A1.83763 1.83763 -180 0 0 40.09 122.11
								 L40.09 85.7 A1.83763 1.83763 -180 0 0 38.25 83.86 L1.84 83.86 A1.83763 1.83763 -180 0 0 -0 85.7
								 L0 122.11 Z" class="st1"/>
				</g>
				<g id="shape17436-7" transform="translate(12.1431,-11.0433)">
					<title>Sheet.17436</title>
					<path d="M32.04 109.96 L30.92 108.85 L30.92 104.56 L22.04 104.56 L22.04 109.29 L26.02 109.29 L16.02 119.3 L6.01
								 109.29 L10.06 109.29 L10.06 104.56 L0.3 104.56 L0.3 109.29 L0.67 109.29 L0 109.96 L13.99 123.95
								 L16.02 121.92 L18.05 123.95 L32.04 109.96 Z" class="st2"/>
				</g>
				<g id="shape17437-9" transform="translate(-75.066,15.3739) rotate(-45.121)">
					<title>Sheet.17437</title>
					<ellipse cx="4.90333" cy="119.019" rx="4.90333" ry="4.92821" class="st3"/>
				</g>
				<g id="shape17438-11" transform="translate(-74.9835,12.2876) rotate(-45.061)">
					<title>Sheet.17438</title>
					<ellipse cx="2.78591" cy="121.134" rx="2.78591" ry="2.8139" class="st4"/>
				</g>
				<g id="shape17439-13" transform="translate(-43.8572,15.3761) rotate(-45.121)">
					<title>Sheet.17439</title>
					<ellipse cx="4.90333" cy="119.019" rx="4.90333" ry="4.92821" class="st3"/>
				</g>
				<g id="shape17440-15" transform="translate(-43.7739,12.292) rotate(-45.061)">
					<title>Sheet.17440</title>
					<ellipse cx="2.78591" cy="121.134" rx="2.78591" ry="2.8139" class="st4"/>
				</g>
				<g id="shape17441-17" transform="translate(21.4879,-8.34446)">
					<title>Sheet.17441</title>
					<path d="M13.2 90.91 L6.99 84.69 a0.466392 0.466392 -180 0 0 -0.662277 -9.9476E-14 L0.1 90.91 a0.466392 0.466392
								 -180 0 0 0.329584 0.799085 L3.96 91.7 a0.332693 0.332693 0 0 1 0.332693 0.332693 L4.3 123.95 L9.04
								 123.95 L9.04 92.04 a0.332693 0.332693 0 0 1 0.310928 -0.332693 L12.86 91.7 a0.466392 0.466392 -180
								 0 0 0.338911 -0.799085 Z" class="st3"/>
				</g>
				<g id="shape17442-19" transform="translate(-59.6493,31.0749) rotate(-45.121)">
					<title>Sheet.17442</title>
					<ellipse cx="4.90333" cy="119.019" rx="4.90333" ry="4.92821" class="st3"/>
				</g>
				<g id="shape17443-21" transform="translate(-59.5637,27.9898) rotate(-45.061)">
					<title>Sheet.17443</title>
					<ellipse cx="2.78591" cy="121.134" rx="2.78591" ry="2.8139" class="st4"/>
				</g>
			</g>
		</g>
	</g>
</svg>
