<?xml version="1.0" encoding="UTF-8" standalone="no"?>
<!DOCTYPE svg PUBLIC "-//W3C//DTD SVG 1.1//EN" "http://www.w3.org/Graphics/SVG/1.1/DTD/svg11.dtd">
<!-- Generated by Microsoft Visio, SVG Export Open Dataset.svg Page-1 -->
<svg xmlns="http://www.w3.org/2000/svg" xmlns:xlink="http://www.w3.org/1999/xlink" xmlns:ev="http://www.w3.org/2001/xml-events"
		width="0.944882in" height="1.25197in" viewBox="0 0 68.0315 90.1417" xml:space="preserve" color-interpolation-filters="sRGB"
		class="st9">
	<style type="text/css">
	<![CDATA[
		.st1 {fill:#0072c6;stroke:none;stroke-linecap:butt;stroke-width:0.75}
		.st2 {fill:#ffffff;fill-opacity:0.2;stroke:none;stroke-linecap:butt;stroke-width:0.75}
		.st3 {fill:#ffffff;stroke:none;stroke-linecap:butt;stroke-width:0.75}
		.st4 {fill:#b8d432;stroke:none;stroke-linecap:butt;stroke-width:0.75}
		.st5 {fill:#7fba00;stroke:none;stroke-linecap:butt;stroke-width:0.75}
		.st6 {fill:#3999c6;stroke:none;stroke-linecap:butt;stroke-width:0.75}
		.st7 {fill:#59b4d9;stroke:none;stroke-linecap:butt;stroke-width:0.75}
		.st8 {fill:#ffffff;fill-opacity:0.25;stroke:none;stroke-linecap:butt;stroke-width:0.75}
		.st9 {fill:none;fill-rule:evenodd;font-size:12px;overflow:visible;stroke-linecap:square;stroke-miterlimit:3}
	]]>
	</style>

	<g>
		<title>Page-1</title>
		<g id="group14229-1" transform="translate(5.66929,-34.0157)">
			<title>Open Dataset.14229</title>
			<g id="shape14230-2">
				<title>Sheet.14230</title>
				<path d="M0 58.05 L0 85.38 C0 88.01 6.03 90.14 13.48 90.14 L13.5 90.14 L13.66 90.14 L13.66 90.14 C21.02 90.1 26.95
							 87.99 26.95 85.38 L26.95 58.05 L0 58.05 Z" class="st1"/>
			</g>
			<g id="shape14231-4" transform="translate(0,-0.00108792)">
				<title>Sheet.14231</title>
				<path d="M0 58.05 L0 85.31 C0 87.98 6.31 90.14 13.86 90.14 L13.86 58.05 L0 58.05 Z" class="st2"/>
			</g>
			<g id="shape14232-6" transform="translate(0.11231,-27.0523)">
				<title>Sheet.14232</title>
				<path d="M26.85 85.06 C26.85 87.68 20.84 90.14 13.42 90.14 C6.01 90.14 0 87.67 0 85.06 C0 82.44 6.01 80.31 13.42
							 80.31 C20.84 80.31 26.85 82.44 26.85 85.06 Z" class="st3"/>
			</g>
			<g id="shape14233-8" transform="translate(2.8347,-29.2739)">
				<title>Sheet.14233</title>
				<path d="M21.4 87.22 C21.4 88.84 16.61 90.14 10.7 90.14 C4.79 90.14 0 88.83 0 87.22 C0 85.61 4.79 84.3 10.7 84.3
							 C16.61 84.3 21.4 85.61 21.4 87.22 Z" class="st4"/>
			</g>
			<g id="shape14234-10" transform="translate(4.96971,-29.2739)">
				<title>Sheet.14234</title>
				<path d="M0 88.97 C1.95 89.68 5.06 90.14 8.57 90.14 C12.08 90.14 15.18 89.68 17.13 88.97 C15.18 88.25 12.08 87.79
							 8.57 87.79 C5.06 87.79 1.95 88.25 0 88.97 Z" class="st5"/>
			</g>
			<g id="shape14235-12" transform="translate(9.0971,-32.7465)">
				<title>Sheet.14235</title>
				<ellipse cx="4.38009" cy="85.8988" rx="4.38009" ry="4.2429" class="st6"/>
			</g>
			<g id="shape14236-14" transform="translate(18.0819,-42.5378)">
				<title>Sheet.14236</title>
				<ellipse cx="4.38009" cy="85.8988" rx="4.38009" ry="4.2429" class="st6"/>
			</g>
			<g id="shape14237-16" transform="translate(30.436,-42.5378)">
				<title>Sheet.14237</title>
				<ellipse cx="4.38009" cy="85.8988" rx="4.38009" ry="4.2429" class="st6"/>
			</g>
			<g id="shape14238-18" transform="translate(38.2977,-32.7465)">
				<title>Sheet.14238</title>
				<ellipse cx="4.38009" cy="85.8988" rx="4.38009" ry="4.2429" class="st6"/>
			</g>
			<g id="shape14239-20" transform="translate(28.6626,-1.08792)">
				<title>Sheet.14239</title>
				<path d="M27.09 87.1 L18.53 71.85 L18.53 65.67 L18.68 65.67 C19.71 65.67 20.54 64.82 20.54 63.76 C20.54 62.71 19.71
							 61.86 18.68 61.86 L9.35 61.86 C8.32 61.86 7.49 62.71 7.49 63.76 C7.49 64.82 8.32 65.67 9.35 65.67 L9.5
							 65.67 L9.5 71.85 L0.94 87.1 C0 88.77 0.77 90.14 2.65 90.14 L25.39 90.14 C27.26 90.14 28.03 88.77 27.09
							 87.1 Z" class="st7"/>
			</g>
			<g id="shape14240-22" transform="translate(33.1202,-4.40174)">
				<title>Sheet.14240</title>
				<path d="M3.53 83.85 L0 90.14 L19.12 90.14 L15.58 83.85 L3.53 83.85 Z" class="st4"/>
			</g>
			<g id="shape14241-24" transform="translate(44.4275,-5.89872)">
				<title>Sheet.14241</title>
				<ellipse cx="0.84794" cy="89.2703" rx="0.84794" ry="0.871427" class="st5"/>
			</g>
			<g id="shape14242-26" transform="translate(28.6626,-1.08792)">
				<title>Sheet.14242</title>
				<path d="M0.94 87.1 L9.5 71.85 L9.5 65.67 L9.35 65.67 C8.32 65.67 7.49 64.82 7.49 63.76 C7.49 62.71 8.32 61.86 9.35
							 61.86 L13.37 61.86 L13.37 71.8 L8.86 90.14 L2.65 90.14 C0.77 90.14 0 88.77 0.94 87.1 Z" class="st8"/>
			</g>
		</g>
	</g>
</svg>
