<?xml version="1.0" encoding="UTF-8" standalone="no"?>
<!DOCTYPE svg PUBLIC "-//W3C//DTD SVG 1.1//EN" "http://www.w3.org/Graphics/SVG/1.1/DTD/svg11.dtd">
<!-- Generated by Microsoft Visio, SVG Export Cognitive Services Anomaly Detector.svg Page-1 -->
<svg xmlns="http://www.w3.org/2000/svg" xmlns:xlink="http://www.w3.org/1999/xlink" xmlns:ev="http://www.w3.org/2001/xml-events"
		width="1.48528in" height="1.16717in" viewBox="0 0 106.94 84.0361" xml:space="preserve" color-interpolation-filters="sRGB"
		class="st5">
	<style type="text/css">
	<![CDATA[
		.st1 {fill:#0078d4;stroke:none;stroke-linecap:butt;stroke-width:10.0328}
		.st2 {visibility:visible}
		.st3 {fill:#000000;font-family:Calibri;font-size:0.666664em}
		.st4 {font-size:1em}
		.st5 {fill:none;fill-rule:evenodd;font-size:12px;overflow:visible;stroke-linecap:square;stroke-miterlimit:3}
	]]>
	</style>

	<g>
		<title>Page-1</title>
		<g id="group4953-1" transform="translate(22.8021,-34.3182)">
			<title>Cognitive Services Anomaly Detector.4953</title>
			<desc>Cognitive Services Anomaly Detector</desc>
			<g id="shape4954-2" transform="translate(51.0979,0)">
				<title>Sheet.4954</title>
				<path d="M5.59 44.35 L0 44.35 L0 84.04 L5.59 84.04 L5.59 44.35 Z" class="st1"/>
			</g>
			<g id="shape4955-4" transform="translate(30.6776,0)">
				<title>Sheet.4955</title>
				<path d="M5.59 44.35 L0 44.35 L0 84.04 L5.59 84.04 L5.59 44.35 Z" class="st1"/>
			</g>
			<g id="shape4956-6" transform="translate(10.2132,0)">
				<title>Sheet.4956</title>
				<path d="M5.59 44.35 L0 44.35 L0 84.04 L5.59 84.04 L5.59 44.35 Z" class="st1"/>
			</g>
			<g id="shape4957-8" transform="translate(-2.84772E-14,-0.0393109)">
				<title>Sheet.4957</title>
				<path d="M5.59 53.7 L0 53.7 L0 84.04 L5.59 84.04 L5.59 53.7 Z" class="st1"/>
			</g>
			<g id="shape4958-10" transform="translate(20.4202,-0.0393109)">
				<title>Sheet.4958</title>
				<path d="M5.59 53.7 L0 53.7 L0 84.04 L5.59 84.04 L5.59 53.7 Z" class="st1"/>
			</g>
			<g id="shape4959-12" transform="translate(40.8845,-0.042199)">
				<title>Sheet.4959</title>
				<path d="M5.6 78.12 L0 78.12 L0 84.04 L5.6 84.04 L5.6 78.12 Z" class="st1"/>
			</g>
			<g id="shape4953-14">
				<g id="shadow4953-15" transform="matrix(1,0,0,1,1.41732,1.41732)" class="st2"/>
				<text x="-16.22" y="97.19" class="st3">Cognitive Services Anomaly <tspan x="14.03" dy="1.2em" class="st4">Detector</tspan></text>			</g>
		</g>
	</g>
</svg>
