<?xml version="1.0" encoding="UTF-8" standalone="no"?>
<!DOCTYPE svg PUBLIC "-//W3C//DTD SVG 1.1//EN" "http://www.w3.org/Graphics/SVG/1.1/DTD/svg11.dtd">
<!-- Generated by Microsoft Visio, SVG Export O365 - OneNote.svg Page-1 -->
<svg xmlns="http://www.w3.org/2000/svg" xmlns:xlink="http://www.w3.org/1999/xlink" xmlns:ev="http://www.w3.org/2001/xml-events"
		width="1.27938in" height="1.58457in" viewBox="0 0 92.1156 114.089" xml:space="preserve" color-interpolation-filters="sRGB"
		class="st12">
	<style type="text/css">
	<![CDATA[
		.st1 {fill:#ca64ea;stroke:none;stroke-linecap:butt;stroke-width:17.7113}
		.st2 {fill:#ae4bd5;stroke:none;stroke-linecap:butt;stroke-width:17.7113}
		.st3 {fill:#9332bf;stroke:none;stroke-linecap:butt;stroke-width:17.7113}
		.st4 {fill:#7719aa;stroke:none;stroke-linecap:butt;stroke-width:17.7113}
		.st5 {fill:#000000;fill-opacity:0.098;stroke:none;stroke-linecap:butt;stroke-width:17.7113}
		.st6 {fill:#000000;fill-opacity:0.2;stroke:none;stroke-linecap:butt;stroke-width:17.7113}
		.st7 {fill:#000000;fill-opacity:0.3;stroke:none;stroke-linecap:butt;stroke-width:17.7113}
		.st8 {fill:#ffffff;stroke:none;stroke-linecap:butt;stroke-width:17.7113}
		.st9 {fill:none;stroke:none;stroke-linecap:butt;stroke-width:17.7113}
		.st10 {visibility:visible}
		.st11 {fill:#000000;font-family:Calibri;font-size:0.666664em}
		.st12 {fill:none;fill-rule:evenodd;font-size:12px;overflow:visible;stroke-linecap:square;stroke-miterlimit:3}
	]]>
	</style>

	<g>
		<title>Page-1</title>
		<g id="group8604-1" transform="translate(17.7113,-39.685)">
			<title>O365 - OneNote.8604</title>
			<desc>O365 - OneNote</desc>
			<g id="group8605-2">
				<title>g26</title>
				<g id="shape8606-3" transform="translate(14.1732,-3.54331)">
					<title>path2</title>
					<path d="M2.36 64.48 L40.16 64.48 A2.36161 2.36161 0 0 1 42.52 66.84 L42.52 111.73 A2.36161 2.36161 0 0 1 40.16
								 114.09 L2.36 114.09 A2.36161 2.36161 0 0 1 0 111.73 L0 66.84 A2.36161 2.36161 0 0 1 2.36 64.48 Z"
							class="st1"/>
				</g>
				<g id="shape8607-5" transform="translate(14.1732,-3.54331)">
					<title>path4</title>
					<path d="M42.52 66.84 A2.36161 2.36161 -180 0 0 40.16 64.48 L2.36 64.48 A2.36161 2.36161 -180 0 0 0 66.84 L0
								 111.73 A2.36161 2.36161 -180 0 0 2.36 114.09 L30.12 114.09 L42.52 76.88 L42.52 66.84 Z"
							class="st1"/>
				</g>
				<g id="shape8608-7" transform="translate(44.2913,-22.686)">
					<title>path6</title>
					<path d="M12.4 96.03 L0 96.03 L0 108.43 L6.2 114.09 L12.4 108.43 L12.4 96.03 Z" class="st2"/>
				</g>
				<g id="shape8609-9" transform="translate(44.2913,-9.93012)">
					<title>path8</title>
					<path d="M12.4 95.67 L0 95.67 L0 108.07 L6.2 114.09 L12.4 108.07 L12.4 95.67 Z" class="st3"/>
				</g>
				<g id="shape8610-11" transform="translate(44.2913,-3.54331)">
					<title>path10</title>
					<path d="M0 101.69 L12.4 101.69 L12.4 111.73 A2.36161 2.36161 0 0 1 10.04 114.09 L0 114.09 L0 101.69 Z"
							class="st4"/>
				</g>
				<g id="shape8611-13" transform="translate(14.1732,-10.6299)">
					<title>path12</title>
					<path d="M15.35 80.43 L0 80.43 L0 114.09 L15.35 114.09 A2.3687 2.3687 -180 0 0 17.72 111.73 L17.72 82.79 A2.3687
								 2.3687 -180 0 0 15.35 80.43 Z" class="st5"/>
				</g>
				<g id="shape8612-15" transform="translate(14.1732,-8.85827)">
					<title>path14</title>
					<path d="M13.58 80.43 L0 80.43 L0 114.09 L13.58 114.09 A2.3687 2.3687 -180 0 0 15.94 111.73 L15.94 82.79 A2.3687
								 2.3687 -180 0 0 13.58 80.43 Z" class="st6"/>
				</g>
				<g id="shape8613-17" transform="translate(14.1732,-12.4016)">
					<title>path16</title>
					<path d="M13.58 83.97 L0 83.97 L0 114.09 L13.58 114.09 A2.3687 2.3687 -180 0 0 15.94 111.73 L15.94 86.33 A2.3687
								 2.3687 -180 0 0 13.58 83.97 Z" class="st7"/>
				</g>
				<g id="shape8614-19" transform="translate(14.1732,-12.4016)">
					<title>path18</title>
					<path d="M11.81 83.97 L0 83.97 L0 114.09 L11.81 114.09 A2.3687 2.3687 -180 0 0 14.17 111.73 L14.17 86.33 A2.3687
								 2.3687 -180 0 0 11.81 83.97 Z" class="st6"/>
				</g>
				<g id="shape8615-21" transform="translate(0,-14.1732)">
					<title>path20</title>
					<path d="M2.36 85.74 L25.98 85.74 A2.36161 2.36161 0 0 1 28.35 88.1 L28.35 111.73 A2.36161 2.36161 0 0 1 25.98
								 114.09 L2.36 114.09 A2.36161 2.36161 0 0 1 0 111.73 L0 88.1 A2.36161 2.36161 0 0 1 2.36 85.74 Z"
							class="st4"/>
				</g>
				<g id="shape8616-23" transform="translate(7.08661,-19.4882)">
					<title>path22</title>
					<path d="M0 96.37 L3.78 96.37 L10.25 108.3 C10.59 108.81 10.84 109.23 11.01 109.54 L11.06 109.54 A16.8183 16.8183
								 0 0 1 10.95 107.19 L10.95 96.37 L14.17 96.37 L14.17 114.09 L10.64 114.09 L3.88 102.34 A9.0939 9.0939
								 0 0 1 3.2 101.13 L3.14 101.13 A24.1441 24.1441 0 0 1 3.23 103.71 L3.23 114.09 L0 114.09 L0 96.37
								 Z" class="st8"/>
				</g>
				<g id="shape8617-25">
					<title>path24</title>
					<rect x="0" y="57.3964" width="56.6929" height="56.6929" class="st9"/>
				</g>
			</g>
			<g id="shape8604-27">
				<g id="shadow8604-28" transform="matrix(1,0,0,1,1.41732,1.41732)" class="st10"/>
				<text x="1.82" y="129.79" class="st11">O365 - OneNote</text>			</g>
		</g>
	</g>
</svg>
