<?xml version="1.0" encoding="UTF-8" standalone="no"?>
<!DOCTYPE svg PUBLIC "-//W3C//DTD SVG 1.1//EN" "http://www.w3.org/Graphics/SVG/1.1/DTD/svg11.dtd">
<!-- Generated by Microsoft Visio, SVG Export Azure Active Directory User.svg Page-1 -->
<svg xmlns="http://www.w3.org/2000/svg" xmlns:xlink="http://www.w3.org/1999/xlink" xmlns:ev="http://www.w3.org/2001/xml-events"
		width="1.65347in" height="1.8108in" viewBox="0 0 119.05 130.378" xml:space="preserve" color-interpolation-filters="sRGB"
		class="st4">
	<style type="text/css">
	<![CDATA[
		.st1 {fill:url(#grad0-6);stroke:none;stroke-linecap:butt;stroke-width:34}
		.st2 {fill:#ffffff;fill-opacity:0.8;stroke:none;stroke-linecap:butt;stroke-width:34}
		.st3 {fill:url(#grad0-12);stroke:none;stroke-linecap:butt;stroke-width:34}
		.st4 {fill:none;fill-rule:evenodd;font-size:12px;overflow:visible;stroke-linecap:square;stroke-miterlimit:3}
	]]>
	</style>

	<defs id="Patterns_And_Gradients">
		<linearGradient id="grad0-6" x1="0" y1="0" x2="1" y2="0" gradientTransform="rotate(90 0.5 0.5)">
			<stop offset="0.22" stop-color="#32d4f5" stop-opacity="1"/>
			<stop offset="1" stop-color="#198ab3" stop-opacity="1"/>
		</linearGradient>
		<linearGradient id="grad0-12" x1="0" y1="0" x2="1" y2="0" gradientTransform="rotate(85.405746668733 0.5 0.5)">
			<stop offset="0.22" stop-color="#32d4f5" stop-opacity="1"/>
			<stop offset="1" stop-color="#198ab3" stop-opacity="1"/>
		</linearGradient>
	</defs>
	<g>
		<title>Page-1</title>
		<g id="group4261-1" transform="translate(34.0264,-39.685)">
			<title>Azure Active Directory User</title>
			<g id="group4262-2">
				<title>Icon-identity-230</title>
				<g id="shape4263-3">
					<title>Sheet.4263</title>
					<path d="M46.47 130.38 A4.52565 4.56693 -180 0 0 51 125.81 A1.46694 1.48031 -180 0 0 51 125.28 C49.19 110.88
								 41.11 99.17 25.5 99.17 C9.89 99.17 1.59 109.09 0 125.31 A4.55686 4.59843 -180 0 0 4.09 130.38 L46.47
								 130.38 Z" class="st1"/>
				</g>
				<g id="shape4264-7" transform="translate(17.7593,-9.88976)">
					<title>Sheet.4264</title>
					<path d="M7.74 112.46 A14.326 14.4567 0 0 1 0 110.16 L7.74 130.38 L15.36 110.28 A14.1388 14.2677 0 0 1 7.74 112.46
								 Z" class="st2"/>
				</g>
				<g id="shape4265-9" transform="translate(11.2361,-27.8425)">
					<title>Sheet.4265</title>
					<ellipse cx="14.2948" cy="115.953" rx="14.2948" ry="14.4252" class="st3"/>
				</g>
			</g>
		</g>
	</g>
</svg>
