<?xml version="1.0" encoding="UTF-8" standalone="no"?>
<!DOCTYPE svg PUBLIC "-//W3C//DTD SVG 1.1//EN" "http://www.w3.org/Graphics/SVG/1.1/DTD/svg11.dtd">
<!-- Generated by Microsoft Visio, SVG Export Azure Database for MariaDB.svg Page-1 -->
<svg xmlns="http://www.w3.org/2000/svg" xmlns:xlink="http://www.w3.org/1999/xlink" xmlns:ev="http://www.w3.org/2001/xml-events"
		width="1.535in" height="1.8108in" viewBox="0 0 110.52 130.378" xml:space="preserve" color-interpolation-filters="sRGB"
		class="st6">
	<style type="text/css">
	<![CDATA[
		.st1 {fill:url(#grad0-6);stroke:none;stroke-linecap:butt;stroke-width:34}
		.st2 {fill:#e8e8e8;stroke:none;stroke-linecap:butt;stroke-width:34}
		.st3 {fill:#50e6ff;stroke:none;stroke-linecap:butt;stroke-width:34}
		.st4 {fill:#198ab3;stroke:none;stroke-linecap:butt;stroke-width:34}
		.st5 {fill:#f2f2f2;stroke:none;stroke-linecap:butt;stroke-width:34}
		.st6 {fill:none;fill-rule:evenodd;font-size:12px;overflow:visible;stroke-linecap:square;stroke-miterlimit:3}
	]]>
	</style>

	<defs id="Patterns_And_Gradients">
		<linearGradient id="grad0-6" x1="0" y1="0" x2="1" y2="0" gradientTransform="rotate(0 0.5 0.5)">
			<stop offset="0" stop-color="#005ba1" stop-opacity="1"/>
			<stop offset="0.07" stop-color="#0060a9" stop-opacity="1"/>
			<stop offset="0.36" stop-color="#0071c8" stop-opacity="1"/>
			<stop offset="0.52" stop-color="#0078d4" stop-opacity="1"/>
			<stop offset="0.64" stop-color="#0074cd" stop-opacity="1"/>
			<stop offset="0.82" stop-color="#006abb" stop-opacity="1"/>
			<stop offset="1" stop-color="#005ba1" stop-opacity="1"/>
		</linearGradient>
	</defs>
	<g>
		<title>Page-1</title>
		<g id="group4028-1" transform="translate(34,-39.685)">
			<title>Azure Database for MariaDB</title>
			<g id="group4029-2">
				<title>Icon-databases-123</title>
				<g id="shape4030-3">
					<title>Sheet.4030</title>
					<path d="M21.26 89.16 C9.52 89.16 0 85.82 0 81.42 L0 122.64 C0 126.88 9.35 130.31 20.96 130.38 L21.26 130.38
								 C33 130.38 42.52 127.04 42.52 122.64 L42.52 81.42 C42.52 85.72 33 89.16 21.26 89.16 Z" class="st1"/>
				</g>
				<g id="shape4031-7" transform="translate(0,-41.2191)">
					<title>Sheet.4031</title>
					<path d="M42.52 122.64 C42.52 126.94 33 130.38 21.26 130.38 C9.52 130.38 0 127.04 0 122.64 C0 118.24 9.52 114.9
								 21.26 114.9 C33 114.9 42.52 118.24 42.52 122.64 Z" class="st2"/>
				</g>
				<g id="shape4032-9" transform="translate(4.94184,-44.654)">
					<title>Sheet.4032</title>
					<path d="M32.64 125.44 C32.64 128.18 25.31 130.38 16.32 130.38 C7.33 130.38 0 128.18 0 125.44 C0 122.71 7.33
								 120.54 16.32 120.54 C25.31 120.54 32.64 122.74 32.64 125.44 Z" class="st3"/>
				</g>
				<g id="shape4033-11" transform="translate(8.358,-44.654)">
					<title>Sheet.4033</title>
					<path d="M12.9 126.68 A38.3075 38.5178 -180 0 0 0 128.58 A37.8763 38.0843 -180 0 0 12.9 130.38 A36.9808 37.1839
								 -180 0 0 25.8 128.44 A39.2694 39.4849 -180 0 0 12.9 126.68 Z" class="st4"/>
				</g>
				<g id="shape4034-13" transform="translate(3.4825,-13.7063)">
					<title>Sheet.4034</title>
					<path d="M35.19 106.8 C34.1 106.8 35.39 107.63 31.51 107.8 C27.63 107.97 26.27 111.97 23.75 115.34 A16.3512 16.4409
								 0 0 1 13.8 120.04 A12.1722 12.239 -180 0 0 7.56 124.68 A3.05133 3.06809 0 0 1 5.21 126.41 C4.31
								 126.41 2.35 126.68 2.35 126.68 A11.144 11.2052 -180 0 0 -0 127.48 C0.27 128.58 2.45 128.11 2.45
								 128.11 A17.4125 17.5081 0 0 1 0.73 129.68 A9.28667 9.33766 -180 0 0 4.05 129.84 C5.47 129.84 6.57
								 128.48 9.19 127.04 C11.81 125.61 17.84 127.04 18.81 127.04 C19.77 127.04 21.19 124.51 21.53 123.71
								 C21.79 125.51 18.81 130.38 18.81 130.38 A6.99817 7.03659 -180 0 0 24.31 127.04 C24.58 126.71 25.41
								 124.98 25.51 125.14 C25.6 125.31 26.04 125.78 26.2 125.71 A6.23534 6.26957 -180 0 0 27.03 124.81
								 A25.1403 25.2784 -180 0 0 30.81 116.54 C31.04 115.74 31.04 112.84 33.03 111.64 C35.02 110.44 35.29
								 109.33 35.29 109.23 L35.29 109.07 A5.40617 5.43585 0 0 1 34 107.9 a0.364833 0.366836 0 0 1 6.39488E-14
								 -0.366836 A2.55383 2.56786 -180 0 0 35.59 108.8 C35.59 108.8 36.28 106.8 35.19 106.8 ZM31.04 110.34
								 L30.85 110.34 A1.194 1.20056 0 0 1 29.85 110.07 A1.592 1.60074 0 0 1 31.57 109.07 a0.995 1.00046
								 0 0 1 -0.530667 1.26725 ZM32.9 110.34 A9.31984 9.37101 0 0 1 34 108.4 A10.348 10.4048 -180 0 0 32.84
								 110.47 L32.9 110.34 ZM34.1 108.63 A6.00317 6.03613 -180 0 0 33.83 110.34 A5.60517 5.63594 0 0 1
								 33.83 109.07 A4.64334 4.66883 -180 0 0 33.3 110.37 A4.44434 4.46874 0 0 1 34.03 108.77 L34.1 108.63
								 ZM28.42 124.14 C28.42 124.14 26.8 125.68 26.73 126.21 C26.67 126.74 28.52 127.58 29.68 127.28 A25.1403
								 25.2784 0 0 1 28.42 124.14 Z" class="st5"/>
				</g>
			</g>
		</g>
	</g>
</svg>
