<?xml version="1.0" encoding="UTF-8" standalone="no"?>
<!DOCTYPE svg PUBLIC "-//W3C//DTD SVG 1.1//EN" "http://www.w3.org/Graphics/SVG/1.1/DTD/svg11.dtd">
<!-- Generated by Microsoft Visio, SVG Export Azure Lighthouse Management.svg Page-1 -->
<svg xmlns="http://www.w3.org/2000/svg" xmlns:xlink="http://www.w3.org/1999/xlink" xmlns:ev="http://www.w3.org/2001/xml-events"
		width="0.944882in" height="1.27559in" viewBox="0 0 68.0315 91.8425" xml:space="preserve" color-interpolation-filters="sRGB"
		class="st19">
	<style type="text/css">
	<![CDATA[
		.st1 {fill:#00aa00;fill-opacity:0;stroke:#7b30a0;stroke-linecap:butt;stroke-opacity:0;stroke-width:0.0737008}
		.st2 {fill:#353564;fill-opacity:0;stroke:none;stroke-linecap:butt;stroke-width:0.00846873}
		.st3 {fill:#afafde;fill-opacity:0;stroke:none;stroke-linecap:butt;stroke-width:0.00846873}
		.st4 {fill:#e9e9ff;fill-opacity:0;stroke:none;stroke-linecap:butt;stroke-width:0.00846873}
		.st5 {fill:#4d4d9f;fill-opacity:0;stroke:none;stroke-linecap:butt;stroke-width:0.00846873}
		.st6 {fill:#d7d7ff;fill-opacity:0;stroke:none;stroke-linecap:butt;stroke-width:0.00846873}
		.st7 {fill:#8686bf;fill-opacity:0;stroke:none;stroke-linecap:butt;stroke-width:0.00846873}
		.st8 {fill:#0179d3;stroke:none;stroke-linecap:butt;stroke-width:2.58992}
		.st9 {fill:#59b4d9;stroke:none;stroke-linecap:butt;stroke-width:0.720064}
		.st10 {fill:#59b4d9;stroke:none;stroke-linecap:butt;stroke-width:0.95935}
		.st11 {fill:#ffffff;stroke:none;stroke-linecap:butt;stroke-width:0.550364}
		.st12 {fill:#ffffff;stroke:none;stroke-linecap:butt;stroke-width:0.321031}
		.st13 {fill:#ffffff;stroke:none;stroke-linecap:butt;stroke-width:0.223851}
		.st14 {fill:#ffffff;stroke:none;stroke-linecap:butt;stroke-width:0.156999}
		.st15 {fill:#ffffff;stroke:none;stroke-linecap:butt;stroke-width:0.118474}
		.st16 {fill:#ffffff;fill-opacity:0;stroke:none;stroke-linecap:butt;stroke-width:0.0737008}
		.st17 {fill:#0179d3;stroke:none;stroke-linecap:butt;stroke-width:3.77358}
		.st18 {fill:#0179d3;stroke:none;stroke-linecap:butt;stroke-width:0.350543}
		.st19 {fill:none;fill-rule:evenodd;font-size:12px;overflow:visible;stroke-linecap:square;stroke-miterlimit:3}
	]]>
	</style>

	<g>
		<title>Page-1</title>
		<g id="group3948-1" transform="translate(5.66929,-35.7165)">
			<title>Azure Lighthouse Management</title>
			<g id="shape3949-2" transform="translate(1.66229,-10.7757)">
				<title>rect848</title>
				<rect x="0" y="62.923" width="48.4689" height="28.9195" class="st1"/>
			</g>
			<g id="group3950-4" transform="translate(10.5978,-11.1564)">
				<title>g882</title>
				<g id="shape3951-5" transform="translate(1.9984E-14,-0.131007)">
					<title>path884</title>
					<path d="M0 87.49 L0 91.84 L2.52 91.66 L2.52 88.12 L0 87.49 Z" class="st2"/>
				</g>
				<g id="shape3952-7">
					<title>path892</title>
					<path d="M0 91.71 L1.49 91.84 L3.97 91.61 L2.52 91.53 L0 91.71 Z" class="st3"/>
				</g>
				<g id="shape3953-9" transform="translate(2.51659,-0.232039)">
					<title>path894</title>
					<path d="M0 88.22 L1.45 87.93 L1.45 91.84 L0 91.76 L0 88.22 Z" class="st4"/>
				</g>
				<g id="shape3954-11" transform="translate(0,-3.85678)">
					<title>path886</title>
					<path d="M0 91.22 L1.49 90.78 L3.97 91.56 L2.52 91.84 L0 91.22 Z" class="st5"/>
				</g>
				<g id="shape3955-13" transform="translate(1.49315,0)">
					<title>path890</title>
					<path d="M0 86.92 L0 91.84 L2.47 91.61 L2.47 87.7 L0 86.92 Z" class="st6"/>
				</g>
				<g id="shape3956-15">
					<title>path888</title>
					<path d="M0 87.36 L1.49 86.92 L1.49 91.84 L0 91.71 L0 87.36 Z" class="st7"/>
				</g>
			</g>
			<g id="shape3957-17">
				<title>rect896</title>
				<rect x="0" y="49.6605" width="56.6929" height="42.182" class="st8"/>
			</g>
			<g id="shape3958-19" transform="translate(0,-41.6294)">
				<title>rect898</title>
				<path d="M0 91.41 a0.415583 0.437487 -180 0 0 0.415573 0.437477 L56.28 91.84 a0.415583 0.437487 -180 0 0 0.415573
							 -0.437477 L56.69 82.89 a0.415583 0.437487 -180 0 0 -0.415573 -0.437477 L0.42 82.45 a0.415583 0.437487
							 -180 0 0 -0.415573 0.437477 L0 91.41 Z" class="st9"/>
			</g>
			<g id="shape3959-21" transform="translate(38.1452,-6.26283)">
				<title>rect900</title>
				<rect x="0" y="62.7388" width="7.26159" height="29.1037" class="st10"/>
			</g>
			<g id="shape3960-23" transform="translate(31.3211,-6.26284)">
				<title>rect900-3</title>
				<rect x="0" y="76.5539" width="4.54943" height="15.2887" class="st11"/>
			</g>
			<g id="shape3961-25" transform="translate(26.3342,-6.26284)">
				<title>rect900-3-7</title>
				<rect x="0" y="83.6456" width="2.88714" height="8.19694" class="st12"/>
			</g>
			<g id="shape3962-27" transform="translate(22.0472,-6.26284)">
				<title>rect900-3-7-6</title>
				<rect x="0" y="87.1454" width="2.44969" height="4.69712" class="st13"/>
			</g>
			<g id="shape3963-29" transform="translate(18.4602,-6.26284)">
				<title>rect900-3-7-6-2</title>
				<rect x="0" y="88.9019" width="1.92476" height="2.94067" class="st14"/>
			</g>
			<g id="shape3964-31" transform="translate(15.2231,-6.26284)">
				<title>rect900-3-7-6-2-7</title>
				<rect x="0" y="90.0005" width="1.74978" height="1.84201" class="st15"/>
			</g>
			<g id="shape3965-33" transform="translate(3.54308,-36.8132)">
				<title>path977</title>
				<ellipse cx="4.88726" cy="86.1767" rx="4.88726" ry="5.66586" class="st16"/>
			</g>
			<g id="shape3966-35" transform="translate(0,-34.5253)">
				<title>rect1203</title>
				<rect x="0" y="84.1858" width="56.6929" height="7.65671" class="st17"/>
			</g>
			<g id="shape3967-37" transform="translate(3.8524,-45.3446)">
				<title>path981</title>
				<ellipse cx="1.33008" cy="90.4423" rx="1.33008" ry="1.40018" class="st18"/>
			</g>
			<g id="shape3968-39" transform="translate(8.02824,-45.312)">
				<title>path981-6</title>
				<ellipse cx="1.33008" cy="90.4423" rx="1.33008" ry="1.40018" class="st18"/>
			</g>
			<g id="shape3969-41" transform="translate(12.1731,-45.3772)">
				<title>path981-6-3</title>
				<ellipse cx="1.33008" cy="90.4423" rx="1.33008" ry="1.40018" class="st18"/>
			</g>
		</g>
	</g>
</svg>
