<?xml version="1.0" encoding="UTF-8" standalone="no"?>
<!DOCTYPE svg PUBLIC "-//W3C//DTD SVG 1.1//EN" "http://www.w3.org/Graphics/SVG/1.1/DTD/svg11.dtd">
<!-- Generated by Microsoft Visio, SVG Export Cognitive Services Content Moderator.svg Page-1 -->
<svg xmlns="http://www.w3.org/2000/svg" xmlns:xlink="http://www.w3.org/1999/xlink" xmlns:ev="http://www.w3.org/2001/xml-events"
		width="1.02672in" height="1.47793in" viewBox="0 0 73.9238 106.411" xml:space="preserve" color-interpolation-filters="sRGB"
		class="st2">
	<style type="text/css">
	<![CDATA[
		.st1 {fill:#0078d4;stroke:none;stroke-linecap:butt;stroke-width:10.0328}
		.st2 {fill:none;fill-rule:evenodd;font-size:12px;overflow:visible;stroke-linecap:square;stroke-miterlimit:3}
	]]>
	</style>

	<g>
		<title>Page-1</title>
		<g id="group3315-1" transform="translate(10.0328,-39.685)">
			<title>Cognitive Services Content Moderator</title>
			<g id="shape3316-2">
				<title>Sheet.3316</title>
				<path d="M49.68 73.21 C49.68 85.14 38.96 99.68 26.87 102.22 C14.77 99.68 4.05 85.14 4.05 73.21 L4.05 61.21 C4.24
							 61.02 4.43 60.83 4.74 60.64 C5.86 59.75 7.17 58.8 8.85 57.91 C13.59 55.37 19.57 53.84 26.87 53.84 C34.16
							 53.84 40.14 55.37 44.88 57.91 C46.5 58.8 47.87 59.69 49 60.64 C49.25 60.83 49.49 61.08 49.68 61.21 L49.68
							 73.21 ZM53.36 58.99 C53.05 58.61 52.49 58.1 51.68 57.4 C50.37 56.32 48.75 55.24 46.88 54.23 C41.58 51.37
							 34.91 49.72 26.93 49.72 C18.95 49.72 12.28 51.43 6.98 54.23 C5.11 55.24 3.49 56.32 2.18 57.4 C1.37 58.1
							 0.81 58.61 0.5 58.99 L0 59.56 L0 73.14 C0 87.17 12.28 103.68 26.56 106.35 L26.93 106.41 L27.3 106.35
							 C41.58 103.62 53.86 87.11 53.86 73.14 L53.86 59.56 L53.36 58.99 Z" class="st1"/>
			</g>
			<g id="shape3317-4" transform="translate(23.1986,-11.5306)">
				<title>Sheet.3317</title>
				<path d="M3.68 99.05 C2.68 99.05 1.81 99.36 1.06 100.06 C0.37 100.76 0 101.65 0 102.73 C0 103.74 0.37 104.63 1 105.33
							 C1.68 106.03 2.56 106.41 3.62 106.41 C4.68 106.41 5.55 106.03 6.23 105.33 C6.92 104.63 7.23 103.74 7.23
							 102.67 C7.23 101.65 6.92 100.76 6.23 100.06 C5.61 99.43 4.74 99.05 3.68 99.05 Z" class="st1"/>
			</g>
			<g id="shape3318-6" transform="translate(24.3578,-22.9927)">
				<title>Sheet.3318</title>
				<path d="M0 106.41 L4.11 106.41 L4.11 82.16 L0 82.16 L0 106.41 Z" class="st1"/>
			</g>
		</g>
	</g>
</svg>
