<?xml version="1.0" encoding="UTF-8" standalone="no"?>
<!DOCTYPE svg PUBLIC "-//W3C//DTD SVG 1.1//EN" "http://www.w3.org/Graphics/SVG/1.1/DTD/svg11.dtd">
<!-- Generated by Microsoft Visio, SVG Export Cognitive Services Vision.svg Page-1 -->
<svg xmlns="http://www.w3.org/2000/svg" xmlns:xlink="http://www.w3.org/1999/xlink" xmlns:ev="http://www.w3.org/2001/xml-events"
		width="0.944882in" height="1.06299in" viewBox="0 0 68.0315 76.5354" xml:space="preserve" color-interpolation-filters="sRGB"
		class="st2">
	<style type="text/css">
	<![CDATA[
		.st1 {fill:#3176bc;stroke:#3176bc;stroke-linecap:butt;stroke-width:0.075}
		.st2 {fill:none;fill-rule:evenodd;font-size:12px;overflow:visible;stroke-linecap:square;stroke-miterlimit:3}
	]]>
	</style>

	<g>
		<title>Page-1</title>
		<g id="group3132-1" transform="translate(5.66929,-29.7638)">
			<title>Cognitive Services Vision</title>
			<g id="shape3133-2">
				<title>path1684-9</title>
				<path d="M23.57 76.07 C17.77 75 12.26 72.14 7.29 67.63 C4.85 65.42 2.31 62.16 1.14 59.75 C0.18 57.78 0 55.87 0.59
							 54.05 C1.62 50.89 5.84 45.79 10.2 42.44 C19.63 35.21 31.53 34.02 42.01 39.25 C48.21 42.36 53.01 46.82
							 55.67 51.96 C56.67 53.88 56.69 54 56.69 56.27 C56.69 58.55 56.67 58.66 55.67 60.58 C51.69 68.27 42.67
							 74.55 33.4 76.08 C30.68 76.54 26.03 76.53 23.57 76.07 L23.57 76.07 ZM32.87 72.89 C39.81 71.74 46.32
							 67.89 50.74 62.31 C52.66 59.89 53.68 57.79 53.68 56.27 C53.68 53.23 49.29 47.65 44.04 44.02 C41.09 41.99
							 36.98 40.31 33.35 39.66 C30.92 39.23 26.58 39.17 24.36 39.54 C20.75 40.14 16.35 42.03 12.82 44.49 C8.97
							 47.18 3.88 53.12 3.46 55.43 C3.38 55.89 3.38 56.65 3.46 57.11 C3.72 58.51 5.94 61.66 8.51 64.28 C15.42
							 71.31 24.04 74.36 32.87 72.89 ZM34.42 51.59 L34.42 47.16 L38.51 47.16 L42.61 47.16 L42.61 51.59 L42.61
							 56.02 L38.51 56.02 L34.42 56.02 L34.42 51.59 Z" class="st1"/>
			</g>
		</g>
	</g>
</svg>
