<?xml version="1.0" encoding="UTF-8" standalone="no"?>
<!DOCTYPE svg PUBLIC "-//W3C//DTD SVG 1.1//EN" "http://www.w3.org/Graphics/SVG/1.1/DTD/svg11.dtd">
<!-- Generated by Microsoft Visio, SVG Export Cognitive Services QnA Maker.svg Page-1 -->
<svg xmlns="http://www.w3.org/2000/svg" xmlns:xlink="http://www.w3.org/1999/xlink" xmlns:ev="http://www.w3.org/2001/xml-events"
		width="1.06609in" height="1.34407in" viewBox="0 0 76.7585 96.7729" xml:space="preserve" color-interpolation-filters="sRGB"
		class="st2">
	<style type="text/css">
	<![CDATA[
		.st1 {fill:#0078d4;stroke:none;stroke-linecap:butt;stroke-width:10.0328}
		.st2 {fill:none;fill-rule:evenodd;font-size:12px;overflow:visible;stroke-linecap:square;stroke-miterlimit:3}
	]]>
	</style>

	<g>
		<title>Page-1</title>
		<g id="group3151-1" transform="translate(10.0328,-35.7165)">
			<title>Cognitive Services QnA Maker</title>
			<g id="shape3152-2">
				<title>Sheet.3152</title>
				<path d="M49.49 74.9 L42.56 71.96 C42.31 71.98 42.07 71.99 41.81 71.99 L41.54 71.99 C40.17 65.36 34.3 60.33 27.26
							 60.33 L18.8 60.33 C18.84 54.44 23.61 49.64 29.43 49.64 L41.81 49.64 C47.66 49.64 52.45 54.47 52.45 60.38
							 L52.45 61.24 C52.45 65 50.51 68.32 47.61 70.24 L49.49 74.9 ZM27.26 86.57 L14.88 86.57 C14.63 86.57 14.38
							 86.56 14.13 86.54 L7.2 89.48 L9.09 84.82 C6.18 82.9 4.25 79.57 4.25 75.82 L4.25 74.96 C4.25 69.05 9.03
							 64.21 14.88 64.21 L15.15 64.21 L19.23 64.21 L27.26 64.21 C32.09 64.21 36.18 67.51 37.47 71.99 C37.74
							 72.94 37.89 73.93 37.89 74.96 L37.89 75.82 C37.89 75.84 37.89 75.86 37.89 75.88 C37.86 81.76 33.09 86.57
							 27.26 86.57 ZM52.32 71.38 C54.9 68.69 56.4 65.08 56.4 61.24 L56.4 60.38 C56.4 52.35 49.87 45.75 41.81
							 45.75 L29.43 45.75 C21.39 45.75 14.88 52.32 14.85 60.33 C6.8 60.35 0.29 66.94 0.29 74.96 L0.29 75.82
							 C0.29 79.66 1.8 83.27 4.37 85.95 L0 96.77 L14.88 90.45 L27.26 90.45 C35.29 90.45 41.81 83.89 41.85 75.89
							 L56.69 82.2 L52.32 71.38 Z" class="st1"/>
			</g>
		</g>
	</g>
</svg>
