<?xml version="1.0" encoding="UTF-8" standalone="no"?>
<!DOCTYPE svg PUBLIC "-//W3C//DTD SVG 1.1//EN" "http://www.w3.org/Graphics/SVG/1.1/DTD/svg11.dtd">
<!-- Generated by Microsoft Visio, SVG Export Cost Management and Billing.svg Page-1 -->
<svg xmlns="http://www.w3.org/2000/svg" xmlns:xlink="http://www.w3.org/1999/xlink" xmlns:ev="http://www.w3.org/2001/xml-events"
		width="0.898075in" height="1.41732in" viewBox="0 0 64.6614 102.047" xml:space="preserve" color-interpolation-filters="sRGB"
		class="st7">
	<style type="text/css">
	<![CDATA[
		.st1 {fill:#ffcc00;stroke:none;stroke-width:4.91887}
		.st2 {fill:#ffca00}
		.st3 {stroke:none;stroke-width:4.91887}
		.st4 {fill:url(#grad7-10);stroke:none;stroke-width:4.91887}
		.st5 {fill:#ff6600;stroke:none;stroke-width:4.91887}
		.st6 {fill:#aa4400;stroke:none;stroke-width:4.91887}
		.st7 {fill:none;fill-rule:evenodd;font-size:12px;overflow:visible;stroke-linecap:square;stroke-miterlimit:3}
	]]>
	</style>

	<defs id="Patterns_And_Gradients">
		<radialGradient id="grad7-10" cx="0" cy="0" r="1.4">
			<stop offset="0" stop-color="#76bc2d" stop-opacity="1"/>
			<stop offset="0.41" stop-color="#74b92c" stop-opacity="1"/>
			<stop offset="0.66" stop-color="#6fb12a" stop-opacity="1"/>
			<stop offset="0.88" stop-color="#66a227" stop-opacity="1"/>
			<stop offset="1" stop-color="#5e9624" stop-opacity="1"/>
		</radialGradient>
	</defs>
	<g>
		<title>Page-1</title>
		<g id="group2943-1" transform="translate(5.38583,-39.685)">
			<title>Cost Management and Billing</title>
			<g id="shape2944-2" transform="translate(21.1225,-18.2977)">
				<title>path17</title>
				<path d="M8.95 96.18 A3.17187 3.33292 0 0 1 7.96 98.81 A4.72608 4.96604 0 0 1 5.14 100.05 L5.14 102.05 L3.74 102.05
							 L3.74 99.98 A7.4856 7.86568 0 0 1 0.26 99.05 L0.26 96.35 A5.70936 5.99925 -180 0 0 1.84 97.18 A7.89794
							 8.29896 -180 0 0 3.74 97.65 L3.74 94.18 A7.67591 8.06566 0 0 1 0.86 92.42 A3.64764 3.83285 0 0 1 1.05
							 87.25 A4.47233 4.69941 0 0 1 3.74 85.98 L3.74 84.15 L5.11 84.15 L5.11 85.95 A7.00982 7.36574 0 0 1 8.03
							 86.62 L8.03 89.28 A7.23185 7.59905 -180 0 0 5.11 88.25 L5.11 92.05 A7.42216 7.79902 0 0 1 8.03 93.85
							 A3.17187 3.33292 0 0 1 8.95 96.18 ZM3.74 91.42 L3.74 88.32 A1.26875 1.33317 -180 0 0 2.6 89.72 C2.6
							 90.42 3.02 90.98 3.87 91.42 L3.74 91.42 ZM6.44 96.31 C6.44 95.68 6 95.18 5.11 94.75 L5.11 97.75 C6 97.58
							 6.44 97.11 6.44 96.31 Z" class="st1"/>
			</g>
			<g id="shape2945-4" transform="translate(34.7002,-6.69916)">
				<title>path19</title>
				<path d="M16.11 82.08 L4.69 82.08 A14.0514 14.7648 0 0 1 -0 93.08 L7.58 102.05 A25.3749 26.6633 -180 0 0 16.11 82.05
							 L16.11 82.08 Z" class="st2"/>
				<path d="M16.11 82.08 L4.69 82.08 A14.0514 14.7648 0 0 1 -0 93.08 L7.58 102.05 A25.3749 26.6633 -180 0 0 16.11 82.05"
						class="st3"/>
			</g>
			<g id="shape2946-7">
				<title>path21</title>
				<path d="M25.37 90.18 A14.0514 14.7648 0 0 1 25.37 60.65 L25.37 48.72 A25.3749 26.6633 -180 0 0 0 75.38 A25.3749
							 26.6633 -180 0 0 25.37 102.05 A25.3749 26.6633 -180 0 0 42.31 95.38 L34.7 86.42 A13.8928 14.5982 0 0
							 1 25.37 90.18 Z" class="st4"/>
			</g>
			<g id="shape2947-11" transform="translate(24.2013,-25.5635)">
				<title>path23</title>
				<path d="M0 70.92 L0 84.78 A16.1448 16.9645 0 0 1 16.4 102.05 L29.66 102.05 A29.6252 31.1294 -180 0 0 0 70.92 Z"
						class="st5"/>
			</g>
			<g id="shape2948-13" transform="translate(24.2013,-25.5635)">
				<title>path25</title>
				<path d="M16.46 102.05 A16.2717 17.0979 -180 0 0 0.41 84.78 L0 84.78 L1.05 86.85 A14.2734 14.9981 0 0 1 14.46 101.01
							 L16.46 102.05 Z" class="st6"/>
			</g>
		</g>
	</g>
</svg>
