<?xml version="1.0" encoding="UTF-8" standalone="no"?>
<!DOCTYPE svg PUBLIC "-//W3C//DTD SVG 1.1//EN" "http://www.w3.org/Graphics/SVG/1.1/DTD/svg11.dtd">
<!-- Generated by Microsoft Visio, SVG Export Disk Encryption Set.svg Page-1 -->
<svg xmlns="http://www.w3.org/2000/svg" xmlns:xlink="http://www.w3.org/1999/xlink" xmlns:ev="http://www.w3.org/2001/xml-events"
		width="1.73185in" height="1.8108in" viewBox="0 0 124.693 130.378" xml:space="preserve" color-interpolation-filters="sRGB"
		class="st7">
	<style type="text/css">
	<![CDATA[
		.st1 {fill:#0078d4;stroke:none;stroke-linecap:butt;stroke-width:34}
		.st2 {fill:#76bc2d;stroke:none;stroke-linecap:butt;stroke-width:34}
		.st3 {fill:url(#grad4-10);stroke:none;stroke-linecap:butt;stroke-width:34}
		.st4 {fill:#005ba1;stroke:none;stroke-linecap:butt;stroke-width:34}
		.st5 {fill:#c3f1ff;fill-opacity:0.75;stroke:none;stroke-linecap:butt;stroke-width:34}
		.st6 {fill:#5e9624;stroke:none;stroke-linecap:butt;stroke-width:34}
		.st7 {fill:none;fill-rule:evenodd;font-size:12px;overflow:visible;stroke-linecap:square;stroke-miterlimit:3}
	]]>
	</style>

	<defs id="Patterns_And_Gradients">
		<radialGradient id="grad4-10" cx="0.5" cy="0" r="1.1">
			<stop offset="0" stop-color="#5ea0ef" stop-opacity="1"/>
			<stop offset="0.11" stop-color="#519aeb" stop-opacity="1"/>
			<stop offset="0.51" stop-color="#2588df" stop-opacity="1"/>
			<stop offset="0.82" stop-color="#0a7cd7" stop-opacity="1"/>
			<stop offset="1" stop-color="#0078d4" stop-opacity="1"/>
		</radialGradient>
	</defs>
	<g>
		<title>Page-1</title>
		<g id="group2736-1" transform="translate(34,-39.685)">
			<title>Disk Encryption Set</title>
			<g id="group2737-2">
				<title>Sheet.2737</title>
				<g id="shape2738-3">
					<title>Sheet.2738</title>
					<path d="M5.4 73.69 L12.01 73.69 L12.01 75.58 L5.4 75.58 L5.4 73.69 ZM53.76 75.58 L54.83 75.58 L54.83 76.58 L56.66
								 76.58 L56.66 73.69 L53.76 73.69 L53.76 75.58 ZM3 128.34 L2.07 128.34 L2.07 127.28 L0 127.28 L0 130.38
								 L3 130.38 L3 128.38 L3 128.34 ZM54.86 127.34 L54.86 128.34 L53.79 128.34 L53.79 130.34 L56.69 130.34
								 L56.69 127.34 L54.86 127.34 ZM2.1 76.55 L2.1 75.55 L3.03 75.55 L3.03 73.69 L0 73.69 L0 76.55 L2.1
								 76.55 ZM15.24 73.69 L21.81 73.69 L21.81 75.58 L15.24 75.58 L15.24 73.69 ZM25.01 73.69 L31.58 73.69
								 L31.58 75.58 L25.01 75.58 L25.01 73.69 ZM34.88 73.69 L41.45 73.69 L41.45 75.58 L34.88 75.58 L34.88
								 73.69 ZM44.69 73.69 L51.26 73.69 L51.26 75.58 L44.69 75.58 L44.69 73.69 ZM5.47 128.34 L12.01 128.34
								 L12.01 130.24 L5.47 130.24 L5.47 128.34 ZM15.27 128.34 L21.84 128.34 L21.84 130.24 L15.27 130.24
								 L15.27 128.34 ZM25.11 128.34 L31.68 128.34 L31.68 130.24 L25.11 130.24 L25.11 128.34 ZM34.95 128.34
								 L41.52 128.34 L41.52 130.24 L34.95 130.24 L34.95 128.34 ZM44.75 128.34 L51.32 128.34 L51.32 130.24
								 L44.75 130.24 L44.75 128.34 ZM54.76 78.85 L56.66 78.85 L56.66 85.42 L54.76 85.42 L54.76 78.85 ZM54.76
								 88.68 L56.66 88.68 L56.66 95.25 L54.76 95.25 L54.76 88.68 ZM54.76 98.48 L56.66 98.48 L56.66 105.01
								 L54.76 105.01 L54.76 98.48 ZM54.76 108.28 L56.66 108.28 L56.66 114.85 L54.76 114.85 L54.76 108.28
								 ZM54.76 118.11 L56.66 118.11 L56.66 124.68 L54.76 124.68 L54.76 118.11 ZM0 78.78 L1.9 78.78 L1.9
								 85.35 L0 85.35 L0 78.78 ZM0 88.62 L1.9 88.62 L1.9 95.18 L0 95.18 L0 88.62 ZM0 98.42 L1.9 98.42 L1.9
								 105.01 L0 105.01 L0 98.42 ZM0 108.25 L1.9 108.25 L1.9 114.81 L0 114.81 L0 108.25 ZM0 118.01 L1.9
								 118.01 L1.9 124.58 L0 124.58 L0 118.01 Z" class="st1"/>
				</g>
				<g id="shape2739-5" transform="translate(7.80361,-17.0312)">
					<title>Sheet.2739</title>
					<path d="M24.88 125.71 A5.00232 4.99938 0 0 1 24.88 118.68 L27.41 116.15 A40.4521 40.4283 -180 0 0 18.51 115.18
								 C8.27 115.18 0 118.51 0 122.78 C0 127.05 8.2 130.38 18.48 130.38 A39.4516 39.4284 -180 0 0 28.25
								 129.04 L24.88 125.71 Z" class="st2"/>
				</g>
				<g id="shape2740-7" transform="translate(7.80361,-33.9291)">
					<title>Sheet.2740</title>
					<ellipse cx="18.4752" cy="122.779" rx="18.4752" ry="7.59905" class="st3"/>
				</g>
				<g id="shape2741-11" transform="translate(20.5762,-39.9617)">
					<title>Sheet.2741</title>
					<ellipse cx="6.13617" cy="128.711" rx="6.13617" ry="1.66646" class="st4"/>
				</g>
				<g id="group2742-13" transform="translate(7.77026,-4.88034)">
					<title>Sheet.2742</title>
					<g id="shape2743-14" transform="translate(24.9581,0)">
						<title>Sheet.2743</title>
						<path d="M17.56 112.39 A3.33488 3.33292 -180 0 0 17.56 107.6 L11.69 101.7 A3.33488 3.33292 -180 0 0 6.89
									 101.7 L1.02 107.56 A3.33488 3.33292 -180 0 0 1.02 112.36 L5.92 117.36 A1.06716 1.06653 0 0 1
									 6.19 118.03 L6.19 127.13 A1.16721 1.16652 -180 0 0 6.52 127.93 L8.76 130.16 a0.800371 0.7999
									 -180 0 0 1.10051 0 L13.26 126.76 a0.466883 0.466608 -180 0 0 7.10543E-15 -0.633254 L12.26 125.19
									 a0.433534 0.433279 0 0 1 -2.84217E-14 -0.666583 L13.16 123.59 a0.466883 0.466608 -180 0 0 1.95399E-14
									 -0.633254 L12.26 122.06 a0.466883 0.466608 0 0 1 3.55271E-15 -0.699913 L13.16 120.46 a0.466883
									 0.466608 -180 0 0 1.77636E-15 -0.633254 L11.89 118.49 L11.89 118.06 L17.56 112.39 ZM9.29 103.13
									 A1.93423 1.93309 0 1 1 9.29 106.9 A1.93423 1.93309 0 0 1 9.29 103.03 L9.29 103.13 Z"
								class="st1"/>
					</g>
					<g id="shape2744-16" transform="translate(2.15827E-13,-25.0159)">
						<title>Sheet.2744</title>
						<path d="M30.75 125.58 A4.96897 4.96605 0 0 1 34.08 124.11 A5.30245 5.29934 0 0 1 36.25 124.61 A4.00185 3.9995
									 -180 0 0 36.82 123.01 L36.82 118.58 C36.82 122.75 28.55 126.15 18.34 126.15 C8.14 126.15 0 122.81
									 0 118.58 L0 122.78 C0 126.98 8.27 130.38 18.51 130.38 A42.1862 42.1614 -180 0 0 26.78 129.58
									 L30.75 125.58 Z" class="st1"/>
					</g>
				</g>
				<g id="group2745-18" transform="translate(37.3506,-7.91171)">
					<title>Sheet.2745</title>
					<g id="shape2746-19" transform="translate(2.97011,0)">
						<title>Sheet.2746</title>
						<path d="M0.2 130.26 a0.433534 0.433279 -180 0 0 0.600278 0 a0.366836 0.366621 -180 0 0 -3.33067E-16 -0.266633
									 L0.8 122.49 a0.566929 0.566596 -180 0 0 -0.200093 -0.366621 a0.433534 0.433279 -180 0 0 -0.566929
									 -1.42109E-14 a0.233441 0.233304 -180 0 0 9.71445E-16 0.233304 L0.03 129.92 a0.366836 0.366621
									 -180 0 0 0.166744 0.333292 Z" class="st5"/>
					</g>
					<g id="shape2747-21" transform="translate(0,-16.6852)">
						<title>Sheet.2747</title>
						<path d="M0 129.84 a0.533593 0.533279 -180 0 0 0.53358 0.533267 L9.1 130.38 a0.533593 0.533279 -180 0 0 0.53358
									 -0.533267 L9.64 129.78 a0.533593 0.533279 -180 0 0 -0.53358 -0.533267 L0.53 129.24 a0.533593
									 0.533279 -180 0 0 -0.53358 0.533267 L0 129.84 Z" class="st5"/>
					</g>
					<g id="shape2748-23" transform="translate(0,-14.8188)">
						<title>Sheet.2748</title>
						<path d="M0 129.84 a0.533593 0.533279 -180 0 0 0.53358 0.533267 L9.1 130.38 a0.533593 0.533279 -180 0 0 0.53358
									 -0.533267 L9.64 129.78 a0.533593 0.533279 -180 0 0 -0.53358 -0.533267 L0.53 129.24 a0.533593
									 0.533279 -180 0 0 -0.53358 0.533267 L0 129.84 Z" class="st5"/>
					</g>
				</g>
				<g id="shape2749-25" transform="translate(7.77026,-12.9984)">
					<title>Sheet.2749</title>
					<path d="M29.58 126.41 L28.18 125.01 A40.7189 40.6949 0 0 1 18.51 126.15 C8.27 126.15 0 122.81 0 118.55 L0 122.78
								 C0 126.98 8.27 130.38 18.51 130.38 A39.0848 39.0618 -180 0 0 29.58 128.84 L29.58 126.41 ZM23.48
								 117.48 A16.3742 16.3646 -180 0 0 18.94 116.91 C15.61 116.91 12.81 117.68 12.81 118.58 C12.81 119.48
								 15.57 120.25 18.94 120.25 A16.3075 16.298 -180 0 0 23.71 119.61 A5.30245 5.29934 0 0 1 23.48 117.45
								 L23.48 117.48 Z" class="st6"/>
				</g>
			</g>
		</g>
	</g>
</svg>
