<?xml version="1.0" encoding="UTF-8" standalone="no"?>
<!DOCTYPE svg PUBLIC "-//W3C//DTD SVG 1.1//EN" "http://www.w3.org/Graphics/SVG/1.1/DTD/svg11.dtd">
<!-- Generated by Microsoft Visio, SVG Export Event Grid Domain.svg Page-1 -->
<svg xmlns="http://www.w3.org/2000/svg" xmlns:xlink="http://www.w3.org/1999/xlink" xmlns:ev="http://www.w3.org/2001/xml-events"
		width="1.73192in" height="1.67695in" viewBox="0 0 124.698 120.74" xml:space="preserve" color-interpolation-filters="sRGB"
		class="st5">
	<style type="text/css">
	<![CDATA[
		.st1 {fill:#949494;stroke:none;stroke-linecap:butt;stroke-width:34}
		.st2 {fill:url(#grad0-8);stroke:none;stroke-linecap:butt;stroke-width:34}
		.st3 {fill:#999999;stroke:none;stroke-linecap:butt;stroke-width:34}
		.st4 {fill:#999999;fill-opacity:0.5;stroke:none;stroke-linecap:butt;stroke-width:34}
		.st5 {fill:none;fill-rule:evenodd;font-size:12px;overflow:visible;stroke-linecap:square;stroke-miterlimit:3}
	]]>
	</style>

	<defs id="Patterns_And_Gradients">
		<linearGradient id="grad0-8" x1="0" y1="0" x2="1" y2="0" gradientTransform="rotate(-88.484441664842 0.5 0.5)">
			<stop offset="0" stop-color="#198ab3" stop-opacity="1"/>
			<stop offset="0" stop-color="#198ab3" stop-opacity="1"/>
			<stop offset="0.11" stop-color="#22a5cb" stop-opacity="1"/>
			<stop offset="0.23" stop-color="#29bade" stop-opacity="1"/>
			<stop offset="0.37" stop-color="#2ec9eb" stop-opacity="1"/>
			<stop offset="0.53" stop-color="#31d1f3" stop-opacity="1"/>
			<stop offset="0.78" stop-color="#32d4f5" stop-opacity="1"/>
		</linearGradient>
	</defs>
	<g>
		<title>Page-1</title>
		<g id="group2657-1" transform="translate(34.0052,-35.7165)">
			<title>Event Grid Domain</title>
			<g id="group2658-2">
				<title>Icon-iot-183</title>
				<g id="shape2659-3" transform="translate(8.87077,-16.3451)">
					<title>Sheet.2659</title>
					<path d="M36.02 109.08 L13.21 109.08 L19.64 102.54 L30.41 102.54 L30.41 100.01 L18.61 100.01 L9.67 109.08 L0
								 109.08 L0 111.61 L1.73 111.61 L10.7 120.74 L24.08 120.74 L24.08 118.21 L11.74 118.21 L5.24 111.61
								 L36.02 111.61 L36.02 109.08 Z" class="st1"/>
				</g>
				<g id="shape2660-5" transform="translate(30.1473,-14.5397)">
					<title>Sheet.2660</title>
					<path d="M5.17 95.14 A4.30199 4.34746 0 1 1 0.87 99.46 A4.26864 4.31375 0 0 1 5.17 95.14 ZM9.07 108.62 A4.30199
								 4.34746 -180 1 0 13.37 104.31 A4.30199 4.34746 -180 0 0 9.07 108.55 L9.07 108.62 ZM0 117.62 A4.30199
								 4.34746 -180 1 0 4.3 113.31 A4.26864 4.31375 -180 0 0 -0 117.62 Z" class="st2"/>
				</g>
				<g id="group2661-9" transform="translate(5.64548E-14,-38.015)">
					<title>Sheet.2661</title>
					<g id="shape2662-10">
						<title>Sheet.2662</title>
						<path d="M1.9 107.73 L6.2 107.73 L6.2 119.76 a0.967114 0.977335 0 0 1 -0.967114 0.977335 L0.97 120.74 a0.967114
									 0.977335 0 0 1 -0.967114 -0.977335 L0 109.65 A1.90088 1.92097 0 0 1 1.9 107.73 Z" class="st3"/>
					</g>
					<g id="shape2663-12">
						<title>Sheet.2663</title>
						<path d="M1.9 107.73 L6.2 107.73 L6.2 119.76 a0.967114 0.977335 0 0 1 -0.967114 0.977335 L0.97 120.74 a0.967114
									 0.977335 0 0 1 -0.967114 -0.977335 L0 109.65 A1.90088 1.92097 0 0 1 1.9 107.73 Z" class="st4"/>
					</g>
				</g>
				<g id="group2664-14" transform="translate(50.49,-38.015)">
					<title>Sheet.2664</title>
					<g id="shape2665-15">
						<title>Sheet.2665</title>
						<path d="M0 107.73 L4.3 107.73 A1.90088 1.92097 0 0 1 6.2 109.65 L6.2 119.76 a0.967114 0.977335 0 0 1 -0.967114
									 0.977335 L0.93 120.74 a0.967114 0.977335 0 0 1 -0.933766 -0.977335 L0 107.73 Z" class="st3"/>
					</g>
					<g id="shape2666-17">
						<title>Sheet.2666</title>
						<path d="M0 107.73 L4.3 107.73 A1.90088 1.92097 0 0 1 6.2 109.65 L6.2 119.76 a0.967114 0.977335 0 0 1 -0.967114
									 0.977335 L0.93 120.74 a0.967114 0.977335 0 0 1 -0.933766 -0.977335 L0 107.73 Z" class="st4"/>
					</g>
				</g>
				<g id="shape2667-19" transform="translate(0,-44.89)">
					<title>Sheet.2667</title>
					<path d="M56.69 116.53 L56.69 120.74 L0 120.74 L0 116.53 A1.90088 1.92097 0 0 1 1.9 114.61 L54.83 114.61 A1.90088
								 1.92097 0 0 1 56.69 116.53 Z" class="st1"/>
				</g>
				<g id="group2668-21">
					<title>Sheet.2668</title>
					<g id="shape2669-22">
						<title>Sheet.2669</title>
						<path d="M0.97 107.63 L5.27 107.63 a0.967114 0.977335 0 0 1 0.967114 0.977335 L6.24 120.74 L1.9 120.74 A1.90088
									 1.92097 0 0 1 0 118.82 L0 108.71 a0.967114 0.977335 0 0 1 0.967114 -1.07844 Z" class="st3"/>
					</g>
					<g id="shape2670-24">
						<title>Sheet.2670</title>
						<path d="M0.97 107.63 L5.27 107.63 a0.967114 0.977335 0 0 1 0.967114 0.977335 L6.24 120.74 L1.9 120.74 A1.90088
									 1.92097 0 0 1 0 118.82 L0 108.71 a0.967114 0.977335 0 0 1 0.967114 -1.07844 Z" class="st4"/>
					</g>
				</g>
				<g id="group2671-26" transform="translate(50.49,-0.101104)">
					<title>Sheet.2671</title>
					<g id="shape2672-27">
						<title>Sheet.2672</title>
						<path d="M0.93 107.73 L5.24 107.73 a0.967114 0.977335 0 0 1 0.967114 0.977335 L6.2 118.82 A1.90088 1.92097
									 0 0 1 4.3 120.74 L0 120.74 L0 108.81 a0.967114 0.977335 0 0 1 0.933766 -1.07844 Z" class="st3"/>
					</g>
					<g id="shape2673-29">
						<title>Sheet.2673</title>
						<path d="M0.93 107.73 L5.24 107.73 a0.967114 0.977335 0 0 1 0.967114 0.977335 L6.2 118.82 A1.90088 1.92097
									 0 0 1 4.3 120.74 L0 120.74 L0 108.81 a0.967114 0.977335 0 0 1 0.933766 -1.07844 Z" class="st4"/>
					</g>
				</g>
				<g id="shape2674-31">
					<title>Sheet.2674</title>
					<path d="M0 118.82 L0 114.61 L56.69 114.61 L56.69 118.82 A1.90088 1.92097 0 0 1 54.79 120.74 L1.9 120.74 A1.90088
								 1.92097 0 0 1 0 118.82 Z" class="st1"/>
				</g>
			</g>
		</g>
	</g>
</svg>
