<?xml version="1.0" encoding="UTF-8" standalone="no"?>
<!DOCTYPE svg PUBLIC "-//W3C//DTD SVG 1.1//EN" "http://www.w3.org/Graphics/SVG/1.1/DTD/svg11.dtd">
<!-- Generated by Microsoft Visio, SVG Export Host.svg Page-1 -->
<svg xmlns="http://www.w3.org/2000/svg" xmlns:xlink="http://www.w3.org/1999/xlink" xmlns:ev="http://www.w3.org/2001/xml-events"
		width="0.944882in" height="1.41732in" viewBox="0 0 68.0315 102.047" xml:space="preserve" color-interpolation-filters="sRGB"
		class="st5">
	<style type="text/css">
	<![CDATA[
		.st1 {fill:#32bedd;stroke:none;stroke-linecap:butt;stroke-width:0.75}
		.st2 {fill:url(#grad0-8);stroke:none;stroke-linecap:butt;stroke-width:0.75}
		.st3 {fill:#7fba00;stroke:none;stroke-linecap:butt;stroke-width:0.75}
		.st4 {fill:#b4ec36;stroke:none;stroke-linecap:butt;stroke-width:0.75}
		.st5 {fill:none;fill-rule:evenodd;font-size:12px;overflow:visible;stroke-linecap:square;stroke-miterlimit:3}
	]]>
	</style>

	<defs id="Patterns_And_Gradients">
		<linearGradient id="grad0-8" x1="0" y1="0" x2="1" y2="0" gradientTransform="rotate(-90 0.5 0.5)">
			<stop offset="0" stop-color="#198ab3" stop-opacity="1"/>
			<stop offset="1" stop-color="#32d4f5" stop-opacity="1"/>
		</linearGradient>
	</defs>
	<g>
		<title>Page-1</title>
		<g id="group2371-1" transform="translate(5.66929,-39.685)">
			<title>Host</title>
			<g id="group2372-2">
				<title>Sheet.2372</title>
				<g id="shape2373-3" transform="translate(26.0666,-7.77406)">
					<title>Sheet.2373</title>
					<rect x="0" y="69.4573" width="4.03508" height="32.5899" class="st1"/>
				</g>
				<g id="shape2374-5" transform="translate(0,-40.364)">
					<title>Sheet.2374</title>
					<path d="M54.39 85.72 L2.26 85.72 A2.34035 1.96898 -180 0 0 -0 87.69 L0 100.08 A2.34035 1.96898 -180 0 0 2.3
								 102.05 L54.39 102.05 A2.3 1.93503 -180 0 0 56.69 100.08 L56.69 87.69 A2.3 1.93503 -180 0 0 54.39
								 85.72 Z" class="st2"/>
				</g>
				<g id="shape2375-9" transform="translate(2.83773E-13,-18.2639)">
					<title>Sheet.2375</title>
					<path d="M54.23 85.75 L2.1 85.75 A2.3 1.93503 -180 0 0 0 87.69 L0 100.11 A2.25965 1.90108 -180 0 0 2.3 102.05
								 L54.23 102.05 A2.3 1.93503 -180 0 0 56.49 100.11 L56.49 87.69 A2.34035 1.96898 -180 0 0 54.23 85.75
								 Z" class="st2"/>
				</g>
				<g id="shape2376-12" transform="translate(22.3947,-1.13687E-13)">
					<title>Sheet.2376</title>
					<ellipse cx="6.09298" cy="96.9211" rx="6.09298" ry="5.12613" class="st3"/>
				</g>
				<g id="shape2377-14" transform="translate(22.2333,-0.0339479)">
					<title>Sheet.2377</title>
					<ellipse cx="6.09298" cy="96.9211" rx="6.09298" ry="5.12613" class="st2"/>
				</g>
				<g id="group2378-17" transform="translate(47.2912,-43.9285)">
					<title>Sheet.2378</title>
					<g id="shape2379-18" transform="translate(0,-6.14456)">
						<title>Sheet.2379</title>
						<path d="M0 101.54 a0.605276 0.50923 -180 0 0 0.605262 0.509218 L3.63 102.05 a0.605276 0.50923 -180 0 0 0.605262
									 -0.509218 L4.24 98.99 a0.605276 0.50923 -180 0 0 -0.605262 -0.509218 L0.61 98.48 a0.605276 0.50923
									 -180 0 0 -0.605262 0.509218 L0 101.54 Z" class="st4"/>
					</g>
					<g id="shape2380-20">
						<title>Sheet.2380</title>
						<path d="M0 101.54 a0.605276 0.50923 -180 0 0 0.605262 0.509218 L3.63 102.05 a0.605276 0.50923 -180 0 0 0.605262
									 -0.509218 L4.24 98.99 a0.605276 0.50923 -180 0 0 -0.605262 -0.509218 L0.61 98.48 a0.605276 0.50923
									 -180 0 0 -0.605262 0.509218 L0 101.54 Z" class="st4"/>
					</g>
				</g>
				<g id="group2381-22" transform="translate(47.2912,-21.8964)">
					<title>Sheet.2381</title>
					<g id="shape2382-23" transform="translate(0,-6.14456)">
						<title>Sheet.2382</title>
						<path d="M0 101.54 a0.605276 0.50923 -180 0 0 0.605262 0.509218 L3.63 102.05 a0.605276 0.50923 -180 0 0 0.605262
									 -0.509218 L4.24 98.99 a0.605276 0.50923 -180 0 0 -0.605262 -0.509218 L0.61 98.48 a0.605276 0.50923
									 -180 0 0 -0.605262 0.509218 L0 101.54 Z" class="st4"/>
					</g>
					<g id="shape2383-25">
						<title>Sheet.2383</title>
						<path d="M0 101.54 a0.605276 0.50923 -180 0 0 0.605262 0.509218 L3.63 102.05 a0.605276 0.50923 -180 0 0 0.605262
									 -0.509218 L4.24 98.99 a0.605276 0.50923 -180 0 0 -0.605262 -0.509218 L0.61 98.48 a0.605276 0.50923
									 -180 0 0 -0.605262 0.509218 L0 101.54 Z" class="st4"/>
					</g>
				</g>
			</g>
		</g>
	</g>
</svg>
