<?xml version="1.0" encoding="UTF-8" standalone="no"?>
<!DOCTYPE svg PUBLIC "-//W3C//DTD SVG 1.1//EN" "http://www.w3.org/Graphics/SVG/1.1/DTD/svg11.dtd">
<!-- Generated by Microsoft Visio, SVG Export Machine Learning Studio Web Service (classic).svg Page-1 -->
<svg xmlns="http://www.w3.org/2000/svg" xmlns:xlink="http://www.w3.org/1999/xlink" xmlns:ev="http://www.w3.org/2001/xml-events"
		width="1.73186in" height="1.8108in" viewBox="0 0 124.694 130.378" xml:space="preserve" color-interpolation-filters="sRGB"
		class="st4">
	<style type="text/css">
	<![CDATA[
		.st1 {fill:#59b4d9;stroke:none;stroke-linecap:butt;stroke-width:34}
		.st2 {fill:#e5e5e5;stroke:none;stroke-linecap:butt;stroke-width:34}
		.st3 {fill:#a0a1a2;stroke:none;stroke-linecap:butt;stroke-width:34}
		.st4 {fill:none;fill-rule:evenodd;font-size:12px;overflow:visible;stroke-linecap:square;stroke-miterlimit:3}
	]]>
	</style>

	<g>
		<title>Page-1</title>
		<g id="group1935-1" transform="translate(34,-39.685)">
			<title>Machine Learning Studio Web Service (classic)</title>
			<g id="group1936-2">
				<title>Sheet.1936</title>
				<g id="shape1937-3">
					<title>Sheet.1937</title>
					<path d="M27.62 105.97 L27.62 96.52 L27.97 96.52 C29.45 96.52 30.05 95.48 30.05 93.37 A2.45669 2.45669 -180 0
								 0 27.12 90.63 L9.7 90.63 A2.45669 2.45669 -180 0 0 7.18 92.99 L7.18 94.13 A2.51969 2.51969 -180
								 0 0 9.8 96.52 L10.11 96.52 L10.11 105.97 L0 124.8 L3.5 130.38 L32.66 130.38 L36.79 124.8 L27.62
								 105.97 ZM15.75 117.12 L11.34 124.49 L5.32 124.49 L15.75 105.97 L15.75 96.52 L21.76 96.52 L21.76
								 105.97 L28.06 117.12 L15.75 117.12 Z" class="st1"/>
				</g>
				<g id="shape1938-5" transform="translate(5.32283,-5.88976)">
					<title>Sheet.1938</title>
					<path d="M10.39 123.01 L6.02 130.38 L0 130.38 L10.58 111.86 L10.58 102.44 L16.44 102.44 L16.44 111.86 L22.65
								 123.01 L10.39 123.01 Z" class="st2"/>
				</g>
				<g id="shape1939-7" transform="translate(17.1969,-15.748)">
					<title>Sheet.1939</title>
					<path d="M19.84 89.43 L19.02 89.43 A21.5748 21.5748 -180 0 0 0.54 102.03 L0 103.57 L3.15 103.57 L3.69 102.03
								 L8.22 102.03 L8 103.57 L11.15 103.57 L11.15 102.03 L17.45 102.03 L17.45 108.33 L15.56 108.33 A11.1496
								 11.1496 0 0 1 15.56 109.72 A9.13386 9.13386 0 0 1 15.4 111.48 L17.45 111.48 L17.45 117.78 L14.3
								 117.78 L14.3 120.93 L17.45 120.93 L17.45 127.23 L16.44 127.23 L18.11 130.38 L19.81 130.38 A20.252
								 20.252 -180 0 0 39.5 109.91 A20.5039 20.5039 -180 0 0 19.84 89.43 ZM5.35 98.88 A18.6142 18.6142
								 0 0 1 12.91 92.58 A15.2441 15.2441 -180 0 0 8.91 98.88 L5.35 98.88 ZM17.45 98.88 L11.81 98.88 A11.6535
								 11.6535 0 0 1 17.45 92.05 L17.45 98.88 ZM37.07 108.33 L31.53 108.33 A18.4882 18.4882 -180 0 0 30.61
								 102.03 L35.02 102.03 A15.1811 15.1811 0 0 1 37.1 108.33 L37.07 108.33 ZM33.92 98.88 L29.83 98.88
								 A15.1811 15.1811 -180 0 0 26.27 92.77 A19.5591 19.5591 0 0 1 33.89 98.88 L33.92 98.88 ZM20.6 92.05
								 A10.2677 10.2677 0 0 1 26.71 98.88 L20.6 98.88 L20.6 92.05 ZM20.6 102.03 L27.84 102.03 A22.0472
								 22.0472 0 0 1 28.85 108.33 L20.6 108.33 L20.6 102.03 ZM20.6 111.48 L28.85 111.48 A22.4882 22.4882
								 0 0 1 27.84 117.78 L20.6 117.78 L20.6 111.48 ZM20.6 127.23 L20.6 120.93 L26.9 120.93 A11.7165 11.7165
								 0 0 1 20.6 127.23 ZM25.39 127.23 A18.8976 18.8976 -180 0 0 30.05 120.93 L33.7 120.93 A20.8819 20.8819
								 0 0 1 25.39 127.23 ZM35.28 117.78 L30.61 117.78 A24.2205 24.2205 -180 0 0 31.72 111.48 L37.1 111.48
								 A18.7087 18.7087 0 0 1 35.28 117.78 Z" class="st3"/>
				</g>
			</g>
		</g>
	</g>
</svg>
