<?xml version="1.0" encoding="UTF-8" standalone="no"?>
<!DOCTYPE svg PUBLIC "-//W3C//DTD SVG 1.1//EN" "http://www.w3.org/Graphics/SVG/1.1/DTD/svg11.dtd">
<!-- Generated by Microsoft Visio, SVG Export Mobile Application.svg Page-1 -->
<svg xmlns="http://www.w3.org/2000/svg" xmlns:xlink="http://www.w3.org/1999/xlink" xmlns:ev="http://www.w3.org/2001/xml-events"
		width="0.994633in" height="1.56031in" viewBox="0 0 71.6136 112.342" xml:space="preserve" color-interpolation-filters="sRGB"
		class="st11">
	<style type="text/css">
	<![CDATA[
		.st1 {fill:#3e3e3e;stroke:none;stroke-linecap:butt;stroke-width:15.9643}
		.st2 {fill:#59b4d9;stroke:none;stroke-linecap:butt;stroke-width:15.9643}
		.st3 {fill:#ffffff;stroke:none;stroke-linecap:butt;stroke-width:15.9643}
		.st4 {fill:#b8d432;stroke:none;stroke-linecap:butt;stroke-width:15.9643}
		.st5 {fill:#ffffff;fill-opacity:0.15;stroke:none;stroke-linecap:butt;stroke-width:15.9643}
		.st6 {fill:#1e1e1e;stroke:none;stroke-linecap:butt;stroke-width:15.9643}
		.st7 {fill:#ffffff}
		.st8 {stroke:none;stroke-linecap:butt;stroke-width:15.9643}
		.st9 {fill:#ffffff;fill-opacity:0.7}
		.st10 {fill:#ffffff;fill-opacity:0.4}
		.st11 {fill:none;fill-rule:evenodd;font-size:12px;overflow:visible;stroke-linecap:square;stroke-miterlimit:3}
	]]>
	</style>

	<g>
		<title>Page-1</title>
		<g id="group1715-1" transform="translate(15.9643,-39.685)">
			<title>Mobile Application</title>
			<g id="group1716-2">
				<title>layer1</title>
				<g id="shape1717-3">
					<title>path2</title>
					<path d="M39.69 108.94 A3.45638 3.40157 0 0 1 36.23 112.34 L3.46 112.34 A3.45638 3.40157 0 0 1 0 108.94 L0 59.05
								 A3.45638 3.40157 0 0 1 3.46 55.65 L36.23 55.65 A3.45638 3.40157 0 0 1 39.69 59.05 L39.69 108.94
								 Z" class="st1"/>
				</g>
				<g id="shape1718-5" transform="translate(2.56236,-11.0869)">
					<title>path4</title>
					<rect x="0" y="72.4055" width="34.5638" height="39.9367" class="st2"/>
				</g>
				<g id="shape1719-7" transform="translate(16.5135,-2.20598)">
					<title>path6</title>
					<path d="M6.66 109 A3.32965 3.27685 0 1 1 0 109 A3.32965 3.27685 0 0 1 6.66 109 Z" class="st3"/>
				</g>
				<g id="shape1720-9" transform="translate(17.6587,-3.39362)">
					<title>path8</title>
					<path d="M4.37 110.19 A2.18328 2.14866 0 1 1 -0 110.19 A2.18328 2.14866 0 0 1 4.37 110.19 Z" class="st4"/>
				</g>
				<g id="shape1721-11">
					<title>path10</title>
					<path d="M2.56 101.26 L2.56 61.32 L28.79 61.32 L31.13 55.65 L3.46 55.65 A3.45638 3.40157 -180 0 0 0 59.05 L0
								 108.94 A3.45638 3.40157 -180 0 0 3.46 112.34 L7.71 112.34 L12.29 101.26 L2.56 101.26 Z"
							class="st5"/>
				</g>
				<g id="shape1722-13" transform="translate(13.9245,-52.662)">
					<title>path12</title>
					<path d="M11.81 111.51 C11.81 111.97 11.43 112.34 10.96 112.34 L0.88 112.34 a0.851422 0.837921 0 1 1 -1.18794E-14
								 -1.67471 L10.96 110.67 C11.43 110.67 11.81 111.04 11.81 111.51 Z" class="st6"/>
				</g>
				<g id="shape1723-15" transform="translate(9.42505,-32.5289)">
					<title>path14</title>
					<path d="M16.31 91.37 C16.31 91.83 15.93 92.21 15.46 92.21 L5.38 92.21 a0.851422 0.837921 0 1 1 -1.15463E-14
								 -1.67471 L15.46 90.53 C15.93 90.53 16.31 90.91 16.31 91.37 ZM10.45 112.34 a0.320291 0.315213 0 0
								 1 -0.154582 -0.0432799 L0.15 106.54 a0.307618 0.30274 0 0 1 -6.66134E-15 -0.522697 L10.23 100.29
								 a0.30877 0.303874 0 0 1 0.303076 -1.42109E-14 L20.68 106.05 a0.304161 0.299339 0 0 1 0.1511 0.260984
								 a0.301857 0.297071 0 0 1 -0.1511 0.260984 L10.61 112.3 a0.311074 0.306142 0 0 1 -0.155456 0.0432799
								 L10.45 112.34 Z" class="st7"/>
					<path d="M16.31 91.37 C16.31 91.83 15.93 92.21 15.46 92.21 L5.38 92.21 a0.851422 0.837921 0 1 1 -1.15463E-14
								 -1.67471 L15.46 90.53 C15.93 90.53 16.31 90.91 16.31 91.37M10.45 112.34 a0.320291 0.315213 0 0 1
								 -0.154582 -0.0432799 L0.15 106.54 a0.307618 0.30274 0 0 1 -6.66134E-15 -0.522697 L10.23 100.29 a0.30877
								 0.303874 0 0 1 0.303076 -1.42109E-14 L20.68 106.05 a0.304161 0.299339 0 0 1 0.1511 0.260984 a0.301857
								 0.297071 0 0 1 -0.1511 0.260984 L10.61 112.3 a0.311074 0.306142 0 0 1 -0.155456 0.0432799"
							class="st8"/>
				</g>
				<g id="shape1724-18" transform="translate(7.99437,-18.5238)">
					<title>path16</title>
					<path d="M10.42 112.34 a0.289184 0.284598 0 0 1 -0.154585 -0.0428551 L0.16 106.56 a0.299553 0.294803 0 0 1 -0.156759
								 -0.261841 L0 94.77 C0 94.66 0.06 94.56 0.16 94.5 a0.303009 0.298205 0 0 1 0.308733 4.26326E-14 L10.58
								 100.25 a0.322595 0.31748 0 0 1 0.149796 0.263984 L10.73 112.04 a0.313379 0.308409 0 0 1 -0.149796
								 0.261839 a0.322595 0.31748 0 0 1 -0.153278 0.0428551 L10.42 112.34 Z" class="st9"/>
					<path d="M10.42 112.34 a0.289184 0.284598 0 0 1 -0.154585 -0.0428551 L0.16 106.56 a0.299553 0.294803 0 0 1 -0.156759
								 -0.261841 L0 94.77 C0 94.66 0.06 94.56 0.16 94.5 a0.303009 0.298205 0 0 1 0.308733 4.26326E-14 L10.58
								 100.25 a0.322595 0.31748 0 0 1 0.149796 0.263984 L10.73 112.04 a0.313379 0.308409 0 0 1 -0.149796
								 0.261839 a0.322595 0.31748 0 0 1 -0.153278 0.0428551" class="st8"/>
				</g>
				<g id="shape1725-21" transform="translate(20.9735,-18.5238)">
					<title>path18</title>
					<path d="M0.31 112.34 a0.33066 0.325417 0 0 1 -0.158939 -0.0428551 a0.311074 0.306142 0 0 1 -0.14849 -0.261843
								 L0 100.58 C0 100.48 0.06 100.38 0.15 100.32 L10.26 94.58 a0.299553 0.294803 0 0 1 0.303943 -1.42109E-14
								 a0.303009 0.298205 0 0 1 0.155456 0.260555 L10.72 106.29 a0.300705 0.295937 0 0 1 -0.155456 0.261841
								 L0.46 112.3 a0.271902 0.26759 0 0 1 -0.14849 0.0428551 L0.31 112.34 Z" class="st10"/>
					<path d="M0.31 112.34 a0.33066 0.325417 0 0 1 -0.158939 -0.0428551 a0.311074 0.306142 0 0 1 -0.14849 -0.261843
								 L0 100.58 C0 100.48 0.06 100.38 0.15 100.32 L10.26 94.58 a0.299553 0.294803 0 0 1 0.303943 -1.42109E-14
								 a0.303009 0.298205 0 0 1 0.155456 0.260555 L10.72 106.29 a0.300705 0.295937 0 0 1 -0.155456 0.261841
								 L0.46 112.3 a0.271902 0.26759 0 0 1 -0.14849 0.0428551" class="st8"/>
				</g>
			</g>
		</g>
	</g>
</svg>
