<?xml version="1.0" encoding="UTF-8" standalone="no"?>
<!DOCTYPE svg PUBLIC "-//W3C//DTD SVG 1.1//EN" "http://www.w3.org/Graphics/SVG/1.1/DTD/svg11.dtd">
<!-- Generated by Microsoft Visio, SVG Export Power BI.svg Page-1 -->
<svg xmlns="http://www.w3.org/2000/svg" xmlns:xlink="http://www.w3.org/1999/xlink" xmlns:ev="http://www.w3.org/2001/xml-events"
		width="1.04354in" height="1.13201in" viewBox="0 0 75.1349 81.5044" xml:space="preserve" color-interpolation-filters="sRGB"
		class="st4">
	<style type="text/css">
	<![CDATA[
		.st1 {fill:#f2c811;stroke:none;stroke-linecap:butt;stroke-width:9.22098}
		.st2 {fill:#f2c811}
		.st3 {stroke:none;stroke-linecap:butt;stroke-width:9.22098}
		.st4 {fill:none;fill-rule:evenodd;font-size:12px;overflow:visible;stroke-linecap:square;stroke-miterlimit:3}
	]]>
	</style>

	<g>
		<title>Page-1</title>
		<g id="group1265-1" transform="translate(9.22098,-29.7638)">
			<title>Power BI</title>
			<g id="group1266-2">
				<title>Layer_1-2</title>
				<g id="shape1267-3" transform="translate(0,-5.66812)">
					<title>path6</title>
					<path d="M48.72 81.5 L48.72 78.87 L50 78.87 C52.44 78.87 54.04 76.9 54.04 74.49 L54.04 51.36 A3.85335 3.81677
								 -180 0 0 50 47.29 L6.69 47.29 A3.85335 3.81677 -180 0 0 2.66 51.36 L2.66 74.49 C2.66 76.9 4.25 78.87
								 6.69 78.87 L7.97 78.87 L7.97 81.5 L6.69 81.5 C2.99 81.5 0 78.15 0 74.49 L0 51.36 A6.76772 6.70347
								 0 0 1 6.69 44.65 L50 44.65 A6.76772 6.70347 0 0 1 56.69 51.36 L56.69 74.49 C56.69 78.14 53.7 81.5
								 50 81.5 L48.72 81.5 Z" class="st1"/>
				</g>
				<g id="shape1268-5" transform="translate(10.6299,2.13163E-13)">
					<title>path8</title>
					<path d="M3.1 81.5 A3.19783 3.16748 0 0 1 0 78.24 L0 70.73 A3.19783 3.16748 0 0 1 3.1 67.47 A3.19783 3.16748
								 0 0 1 6.2 70.72 L6.2 78.24 A3.19783 3.16748 0 0 1 3.11 81.5 L3.1 81.5 ZM12.84 81.21 A3.11811 3.08851
								 0 0 1 9.74 78.12 L9.74 59.75 A3.10039 3.07096 0 1 1 15.94 59.75 L15.94 78.12 A3.10925 3.07974 0
								 0 1 12.85 81.22 L12.84 81.21 ZM32.36 81.29 A3.12697 3.09729 0 0 1 29.23 78.16 L29.23 51.95 A3.10039
								 3.07096 0 1 1 35.43 51.95 L35.43 78.16 A3.10925 3.07974 0 0 1 32.36 81.29 ZM22.6 81.36 A3.14469
								 3.11483 0 0 1 19.49 78.21 L19.49 64.33 A3.10039 3.07096 0 1 1 25.69 64.33 L25.69 78.21 A3.13583
								 3.10606 0 0 1 22.6 81.36 L22.6 81.36 Z" class="st2"/>
					<path d="M3.1 81.5 A3.19783 3.16748 0 0 1 0 78.24 L0 70.73 A3.19783 3.16748 0 0 1 3.1 67.47 A3.19783 3.16748
								 0 0 1 6.2 70.72 L6.2 78.24 A3.19783 3.16748 0 0 1 3.11 81.5 L3.1 81.5M12.84 81.21 A3.11811 3.08851
								 0 0 1 9.74 78.12 L9.74 59.75 A3.10039 3.07096 0 1 1 15.94 59.75 L15.94 78.12 A3.10925 3.07974 0
								 0 1 12.85 81.22M32.36 81.29 A3.12697 3.09729 0 0 1 29.23 78.16 L29.23 51.95 A3.10039 3.07096 0 1
								 1 35.43 51.95 L35.43 78.16 A3.10925 3.07974 0 0 1 32.36 81.29M22.6 81.36 A3.14469 3.11483 0 0 1
								 19.49 78.21 L19.49 64.33 A3.10039 3.07096 0 1 1 25.69 64.33 L25.69 78.21 A3.13583 3.10606 0 0 1
								 22.6 81.36" class="st3"/>
				</g>
			</g>
		</g>
	</g>
</svg>
