<?xml version="1.0" encoding="UTF-8" standalone="no"?>
<!DOCTYPE svg PUBLIC "-//W3C//DTD SVG 1.1//EN" "http://www.w3.org/Graphics/SVG/1.1/DTD/svg11.dtd">
<!-- Generated by Microsoft Visio, SVG Export Recovery Services Backup Infrastructure.svg Page-1 -->
<svg xmlns="http://www.w3.org/2000/svg" xmlns:xlink="http://www.w3.org/1999/xlink" xmlns:ev="http://www.w3.org/2001/xml-events"
		width="1.1274in" height="1.50858in" viewBox="0 0 81.1729 108.618" xml:space="preserve" color-interpolation-filters="sRGB"
		class="st4">
	<style type="text/css">
	<![CDATA[
		.st1 {fill:#804998;stroke:none;stroke-linecap:butt;stroke-width:12.24}
		.st2 {fill:#ffffff;fill-opacity:0.2;stroke:none;stroke-linecap:butt;stroke-width:12.24}
		.st3 {fill:#ffffff;fill-opacity:0.4;stroke:none;stroke-linecap:butt;stroke-width:12.24}
		.st4 {fill:none;fill-rule:evenodd;font-size:12px;overflow:visible;stroke-linecap:square;stroke-miterlimit:3}
	]]>
	</style>

	<g>
		<title>Page-1</title>
		<g id="group1133-1" transform="translate(12.24,-39.685)">
			<title>Recovery Services Backup Infrastructure</title>
			<g id="group1134-2">
				<title>Sheet.1134</title>
				<g id="shape1135-3" transform="translate(0,-21.0356)">
					<title>Sheet.1135</title>
					<path d="M0 72.96 L15.08 72.96 L15.08 87.83 L0 87.83 L0 72.96 ZM20.75 72.96 L35.89 72.96 L35.89 87.83 L20.75
								 87.83 L20.75 72.96 ZM41.61 72.96 L56.69 72.96 L56.69 87.83 L41.61 87.83 L41.61 72.96 ZM0 93.75 L35.89
								 93.75 L35.89 108.62 L0 108.62 L0 93.75 ZM41.61 93.75 L56.69 93.75 L56.69 108.62 L41.61 108.62 L41.61
								 93.75 Z" class="st1"/>
				</g>
				<g id="shape1136-5" transform="translate(0,-21.0356)">
					<title>Sheet.1136</title>
					<path d="M0 93.75 L35.89 93.75 L35.89 108.62 L0 108.62 L0 93.75 ZM41.61 93.75 L56.69 93.75 L56.69 108.62 L41.61
								 108.62 L41.61 93.75 Z" class="st2"/>
				</g>
				<g id="shape1137-7">
					<title>Sheet.1137</title>
					<rect x="0" y="93.499" width="56.6929" height="15.119" class="st1"/>
				</g>
				<g id="shape1138-9">
					<title>Sheet.1138</title>
					<rect x="0" y="93.499" width="56.6929" height="15.119" class="st3"/>
				</g>
			</g>
		</g>
	</g>
</svg>
