<?xml version="1.0" encoding="UTF-8" standalone="no"?>
<!DOCTYPE svg PUBLIC "-//W3C//DTD SVG 1.1//EN" "http://www.w3.org/Graphics/SVG/1.1/DTD/svg11.dtd">
<!-- Generated by Microsoft Visio, SVG Export Reservation.svg Page-1 -->
<svg xmlns="http://www.w3.org/2000/svg" xmlns:xlink="http://www.w3.org/1999/xlink" xmlns:ev="http://www.w3.org/2001/xml-events"
		width="1.73209in" height="1.8108in" viewBox="0 0 124.71 130.378" xml:space="preserve" color-interpolation-filters="sRGB"
		class="st6">
	<style type="text/css">
	<![CDATA[
		.st1 {fill:#b0b0b0;stroke:none;stroke-linecap:butt;stroke-width:34}
		.st2 {fill:#ffffff;stroke:none;stroke-linecap:butt;stroke-width:34}
		.st3 {fill:#7a7a7a;stroke:none;stroke-linecap:butt;stroke-width:34}
		.st4 {fill:url(#grad0-24);stroke:none;stroke-linecap:butt;stroke-width:34}
		.st5 {fill:url(#grad3-32);stroke:none;stroke-linecap:butt;stroke-width:34}
		.st6 {fill:none;fill-rule:evenodd;font-size:12px;overflow:visible;stroke-linecap:square;stroke-miterlimit:3}
	]]>
	</style>

	<defs id="Patterns_And_Gradients">
		<linearGradient id="grad0-24" x1="0" y1="0" x2="1" y2="0" gradientTransform="rotate(0 0.5 0.5)">
			<stop offset="0" stop-color="#7956ba" stop-opacity="1"/>
			<stop offset="0.69" stop-color="#724eb4" stop-opacity="1"/>
			<stop offset="0.87" stop-color="#6f4bb2" stop-opacity="1"/>
		</linearGradient>
		<radialGradient id="grad3-32" cx="0.5" cy="0.5" r="0.73">
			<stop offset="0" stop-color="#7f7f7f" stop-opacity="1"/>
			<stop offset="1" stop-color="#5e5e5e" stop-opacity="1"/>
		</radialGradient>
	</defs>
	<g>
		<title>Page-1</title>
		<g id="group1066-1" transform="translate(34,-39.685)">
			<title>Reservation</title>
			<g id="group1067-2">
				<title>Sheet.1067</title>
				<g id="shape1068-3">
					<title>Sheet.1068</title>
					<ellipse cx="28.3465" cy="102.032" rx="28.3465" ry="28.3465" class="st1"/>
				</g>
				<g id="shape1069-5" transform="translate(4.20195,-4.36869)">
					<title>Sheet.1069</title>
					<ellipse cx="24.0778" cy="106.3" rx="24.0778" ry="24.0778" class="st2"/>
				</g>
				<g id="shape1070-7" transform="translate(-51.5472,-1.70256) rotate(-45)">
					<title>Sheet.1070</title>
					<rect x="0" y="129.011" width="4.23529" height="1.3673" class="st3"/>
				</g>
				<g id="shape1071-9" transform="translate(44.9541,-27.6795)">
					<title>Sheet.1071</title>
					<rect x="0" y="129.011" width="4.23529" height="1.3673" class="st3"/>
				</g>
				<g id="shape1072-11" transform="translate(-49.7331,25.0767) rotate(-45)">
					<title>Sheet.1072</title>
					<rect x="0" y="126.143" width="1.3673" height="4.23529" class="st3"/>
				</g>
				<g id="shape1073-13" transform="translate(27.5127,-7.40343)">
					<title>Sheet.1073</title>
					<rect x="0" y="126.143" width="1.3673" height="4.23529" class="st3"/>
				</g>
				<g id="shape1074-15" transform="translate(-76.6204,-1.83514) rotate(-45)">
					<title>Sheet.1074</title>
					<rect x="0" y="126.143" width="1.3673" height="4.23529" class="st3"/>
				</g>
				<g id="shape1075-17" transform="translate(-78.4591,25.218) rotate(-45)">
					<title>Sheet.1075</title>
					<rect x="0" y="129.011" width="4.23529" height="1.3673" class="st3"/>
				</g>
				<g id="shape1076-19" transform="translate(6.9032,-27.6795)">
					<title>Sheet.1076</title>
					<rect x="0" y="129.011" width="4.23529" height="1.3673" class="st3"/>
				</g>
				<g id="shape1077-21" transform="translate(5.56925,-2.30969)">
					<title>Sheet.1077</title>
					<path d="M22.81 75.99 A2.03428 2.03428 -180 0 0 20.78 78.06 A2.10097 2.10097 -180 0 0 22.84 80.16 A24.2112 24.2112
								 0 1 1 4.97 88 L6.67 90.47 L11.41 79.93 L0 81.26 L2.5 84.6 A28.3131 28.3131 -180 1 0 22.81 75.99
								 Z" class="st4"/>
				</g>
				<g id="shape1078-25" transform="translate(26.5456,-27.446)">
					<title>Sheet.1078</title>
					<path d="M-0 128.64 A1.73418 1.73418 -180 0 0 1.73 130.38 L2.07 130.38 A1.73418 1.73418 -180 0 0 3.8 128.64 L3.8
								 110.4 A1.73418 1.73418 -180 0 0 2.07 108.67 L1.73 108.67 A1.73418 1.73418 -180 0 0 -0 110.4 L0 128.64
								 Z" class="st3"/>
				</g>
				<g id="shape1079-27" transform="translate(122.252,193.466) rotate(135)">
					<title>Sheet.1079</title>
					<path d="M-0 128.64 A1.73418 1.73418 -180 0 0 1.73 130.38 L2.07 130.38 A1.73418 1.73418 -180 0 0 3.8 128.64 L3.8
								 118.51 A1.73418 1.73418 -180 0 0 2.07 116.77 L1.73 116.77 A1.73418 1.73418 -180 0 0 0 118.51 L0
								 128.64 Z" class="st3"/>
				</g>
				<g id="shape1080-29" transform="translate(24.2779,-24.3446)">
					<title>Sheet.1080</title>
					<ellipse cx="4.00185" cy="126.376" rx="4.00185" ry="4.00185" class="st5"/>
				</g>
			</g>
		</g>
	</g>
</svg>
