<?xml version="1.0" encoding="UTF-8" standalone="no"?>
<!DOCTYPE svg PUBLIC "-//W3C//DTD SVG 1.1//EN" "http://www.w3.org/Graphics/SVG/1.1/DTD/svg11.dtd">
<!-- Generated by Microsoft Visio, SVG Export Reserved IP address (classic).svg Page-1 -->
<svg xmlns="http://www.w3.org/2000/svg" xmlns:xlink="http://www.w3.org/1999/xlink" xmlns:ev="http://www.w3.org/2001/xml-events"
		width="1.1274in" height="1.3078in" viewBox="0 0 81.1729 94.1613" xml:space="preserve" color-interpolation-filters="sRGB"
		class="st4">
	<style type="text/css">
	<![CDATA[
		.st1 {fill:#59b4d9;stroke:none;stroke-linecap:butt;stroke-width:12.24}
		.st2 {fill:#0072c6;stroke:none;stroke-linecap:butt;stroke-width:12.24}
		.st3 {fill:#ffffff;stroke:none;stroke-linecap:butt;stroke-width:12.24}
		.st4 {fill:none;fill-rule:evenodd;font-size:12px;overflow:visible;stroke-linecap:square;stroke-miterlimit:3}
	]]>
	</style>

	<g>
		<title>Page-1</title>
		<g id="group1058-1" transform="translate(12.24,-33.7323)">
			<title>Reserved IP address (classic)</title>
			<g id="group1059-2">
				<title>Sheet.1059</title>
				<g id="shape1060-3">
					<title>Sheet.1060</title>
					<path d="M0 91.9 C0 93.14 1.02 94.16 2.27 94.16 L54.43 94.16 C55.67 94.16 56.69 93.14 56.69 91.9 L56.69 56.49
								 L0 56.49 L0 91.9 Z" class="st1"/>
				</g>
				<g id="shape1061-5" transform="translate(0,-33.9359)">
					<title>Sheet.1061</title>
					<path d="M54.43 79.91 L2.27 79.91 C1.02 79.91 0 80.93 0 82.17 L0 94.16 L56.69 94.16 L56.69 82.17 C56.69 80.93
								 55.67 79.91 54.43 79.91 Z" class="st2"/>
				</g>
				<g id="shape1062-7" transform="translate(14.6268,-38.3476)">
					<title>Sheet.1062</title>
					<rect x="0" y="89.7496" width="38.211" height="4.41167" class="st3"/>
				</g>
				<g id="shape1063-9" transform="translate(1.70079,-35.0671)">
					<title>Sheet.1063</title>
					<path d="M11.11 88.62 C11.11 91.67 8.62 94.16 5.56 94.16 C2.49 94.16 0 91.67 0 88.62 C0 85.56 2.49 83.08 5.56
								 83.08 C8.62 83.08 11.11 85.56 11.11 88.62 Z" class="st1"/>
				</g>
				<g id="shape1064-11" transform="translate(4.53543,-37.3295)">
					<title>Sheet.1064</title>
					<path d="M2.15 91.45 L4.65 94.16 L3.29 94.16 L0 90.99 L3.29 87.71 L4.65 87.71 L2.15 90.43 L8.28 90.43 L8.28 91.45
								 L2.15 91.45 Z" class="st3"/>
				</g>
				<g id="shape1065-13" transform="translate(14.8535,-9.72829)">
					<title>Sheet.1065</title>
					<path d="M4.88 92.01 C4.88 92.69 4.65 93.14 4.2 93.6 C3.74 94.05 3.17 94.16 2.38 94.16 C1.7 94.16 1.13 93.94
								 0.68 93.48 C0.23 93.03 0 92.58 0 91.9 C0 91.22 0.23 90.77 0.68 90.32 C1.13 89.86 1.7 89.75 2.49
								 89.75 C3.17 89.75 3.74 89.98 4.2 90.43 C4.65 90.88 4.88 91.33 4.88 92.01 ZM14.97 92.01 C14.97 92.69
								 14.74 93.14 14.29 93.6 C13.83 94.05 13.27 94.16 12.47 94.16 C11.79 94.16 11.23 93.94 10.77 93.48
								 C10.32 93.03 10.09 92.58 10.09 91.9 C10.09 91.22 10.32 90.77 10.77 90.32 C11.23 89.86 11.79 89.75
								 12.59 89.75 C13.27 89.75 13.83 89.98 14.29 90.43 C14.74 90.88 14.97 91.33 14.97 92.01 ZM25.06 92.01
								 C25.06 92.69 24.83 93.14 24.38 93.6 C23.92 94.05 23.36 94.16 22.56 94.16 C21.88 94.16 21.32 93.94
								 20.86 93.48 C20.41 93.03 20.18 92.58 20.18 91.9 C20.18 91.22 20.41 90.77 20.86 90.32 C21.32 89.86
								 21.88 89.75 22.68 89.75 C23.36 89.75 23.92 89.98 24.38 90.43 C24.83 90.88 25.06 91.33 25.06 92.01
								 Z" class="st2"/>
				</g>
			</g>
		</g>
	</g>
</svg>
