<?xml version="1.0" encoding="UTF-8" standalone="no"?>
<!DOCTYPE svg PUBLIC "-//W3C//DTD SVG 1.1//EN" "http://www.w3.org/Graphics/SVG/1.1/DTD/svg11.dtd">
<!-- Generated by Microsoft Visio, SVG Export Security Center.svg Page-1 -->
<svg xmlns="http://www.w3.org/2000/svg" xmlns:xlink="http://www.w3.org/1999/xlink" xmlns:ev="http://www.w3.org/2001/xml-events"
		width="0.930551in" height="1.50858in" viewBox="0 0 66.9997 108.618" xml:space="preserve" color-interpolation-filters="sRGB"
		class="st4">
	<style type="text/css">
	<![CDATA[
		.st1 {fill:#57a300;stroke:none;stroke-linecap:butt;stroke-width:12.24}
		.st2 {fill:#b8d432;fill-opacity:0.4;stroke:none;stroke-linecap:butt;stroke-width:12.24}
		.st3 {fill:#ffffff;stroke:none;stroke-linecap:butt;stroke-width:12.24}
		.st4 {fill:none;fill-rule:evenodd;font-size:12px;overflow:visible;stroke-linecap:square;stroke-miterlimit:3}
	]]>
	</style>

	<g>
		<title>Page-1</title>
		<g id="group900-1" transform="translate(12.24,-39.685)">
			<title>Security Center</title>
			<g id="group901-2">
				<title>Sheet.901</title>
				<g id="shape902-3">
					<title>Sheet.902</title>
					<path d="M36.18 58.68 C23.4 57.31 21.26 51.93 21.26 51.93 C21.26 51.93 18.38 59 0 59 L0 88.04 C0 91.55 2 94.84
								 4.76 97.71 C11.03 104.23 21.26 108.62 21.26 108.62 C21.26 108.62 42.52 99.51 42.52 88.04 L42.52
								 59 C40.16 59 38.05 58.89 36.18 58.68 Z" class="st1"/>
				</g>
				<g id="shape903-5" transform="translate(2.15827E-13,-10.903)">
					<title>Sheet.903</title>
					<path d="M26.52 81.59 L36.18 69.59 C23.4 68.21 21.26 62.83 21.26 62.83 C21.26 62.83 18.38 69.91 0 69.91 L0 98.94
								 C0 102.46 2 105.74 4.76 108.62 L11.9 99.75 L26.52 81.59 Z" class="st2"/>
				</g>
				<g id="shape904-7" transform="translate(11.8996,-16.4939)">
					<title>Sheet.904</title>
					<path d="M17.79 96.15 L16.55 96.15 L16.55 92.13 A7.76871 7.5933 -180 0 0 14.62 87.08 C14.57 87.03 14.53 86.98
								 14.49 86.93 C13.2 85.58 11.38 84.72 9.36 84.72 C7.35 84.72 5.52 85.58 4.23 86.93 A7.76871 7.5933
								 -180 0 0 2.16 92.12 L2.16 96.15 L0.93 96.15 a0.928023 0.907068 -180 0 0 -0.929183 0.908202 L0 107.71
								 C0 108.21 0.42 108.62 0.93 108.62 L17.79 108.62 a0.929183 0.908202 -180 0 0 0.929183 -0.908202 L18.72
								 97.06 a0.929183 0.908202 -180 0 0 -0.929183 -0.909336 ZM13.14 96.15 L7.32 96.15 L7.32 96.15 L5.58
								 96.15 L5.58 92.13 C5.58 90.97 6.03 89.94 6.73 89.21 C7.43 88.48 8.35 88.06 9.36 88.06 C10.37 88.06
								 11.29 88.48 11.99 89.21 C12.16 89.38 12.31 89.58 12.44 89.78 L12.44 89.78 C12.88 90.44 13.14 91.24
								 13.14 92.12 L13.14 96.15 Z" class="st3"/>
				</g>
			</g>
		</g>
	</g>
</svg>
