<?xml version="1.0" encoding="UTF-8" standalone="no"?>
<!DOCTYPE svg PUBLIC "-//W3C//DTD SVG 1.1//EN" "http://www.w3.org/Graphics/SVG/1.1/DTD/svg11.dtd">
<!-- Generated by Microsoft Visio, SVG Export SQL Server.svg Page-1 -->
<svg xmlns="http://www.w3.org/2000/svg" xmlns:xlink="http://www.w3.org/1999/xlink" xmlns:ev="http://www.w3.org/2001/xml-events"
		width="1.73185in" height="1.8108in" viewBox="0 0 124.693 130.378" xml:space="preserve" color-interpolation-filters="sRGB"
		class="st7">
	<style type="text/css">
	<![CDATA[
		.st1 {fill:url(#grad0-6);stroke:none;stroke-linecap:butt;stroke-width:34}
		.st2 {fill:#e8e8e8;stroke:none;stroke-linecap:butt;stroke-width:34}
		.st3 {fill:#50e6ff;stroke:none;stroke-linecap:butt;stroke-width:34}
		.st4 {fill:#198ab3;stroke:none;stroke-linecap:butt;stroke-width:34}
		.st5 {fill:#f2f2f2;stroke:none;stroke-linecap:butt;stroke-width:34}
		.st6 {fill:#949494;stroke:none;stroke-linecap:butt;stroke-width:34}
		.st7 {fill:none;fill-rule:evenodd;font-size:12px;overflow:visible;stroke-linecap:square;stroke-miterlimit:3}
	]]>
	</style>

	<defs id="Patterns_And_Gradients">
		<linearGradient id="grad0-6" x1="0" y1="0" x2="1" y2="0" gradientTransform="rotate(0 0.5 0.5)">
			<stop offset="0" stop-color="#005ba1" stop-opacity="1"/>
			<stop offset="0.07" stop-color="#0060a9" stop-opacity="1"/>
			<stop offset="0.36" stop-color="#0071c8" stop-opacity="1"/>
			<stop offset="0.52" stop-color="#0078d4" stop-opacity="1"/>
			<stop offset="0.64" stop-color="#0074cd" stop-opacity="1"/>
			<stop offset="0.82" stop-color="#006abb" stop-opacity="1"/>
			<stop offset="1" stop-color="#005ba1" stop-opacity="1"/>
		</linearGradient>
	</defs>
	<g>
		<title>Page-1</title>
		<g id="group610-1" transform="translate(34,-39.685)">
			<title>SQL Server</title>
			<g id="group611-2">
				<title>Sheet.611</title>
				<g id="shape612-3" transform="translate(0,-0.765221)">
					<title>Sheet.612</title>
					<path d="M21.02 89.75 C9.42 89.75 0 86.43 0 82.1 L0 122.73 C0 126.92 9.25 130.31 20.72 130.38 L21.02 130.38 C32.62
								 130.38 42.04 127.05 42.04 122.73 L42.04 82.1 C42.04 86.33 32.62 89.75 21.02 89.75 Z" class="st1"/>
				</g>
				<g id="shape613-7" transform="translate(0,-41.3885)">
					<title>Sheet.613</title>
					<path d="M42.04 122.73 C42.04 126.95 32.62 130.38 21.02 130.38 C9.42 130.38 0 126.95 0 122.73 C0 118.5 9.42 115.07
								 21.02 115.07 C32.62 115.07 42.04 118.4 42.04 122.73 Z" class="st2"/>
				</g>
				<g id="shape614-9" transform="translate(4.97306,-44.8153)">
					<title>Sheet.614</title>
					<path d="M32.16 125.52 C32.16 128.22 24.93 130.38 16.05 130.38 C7.16 130.38 0 128.22 0 125.52 C0 122.83 7.16
								 120.66 16.05 120.66 C24.93 120.66 32.16 122.86 32.16 125.52 Z" class="st3"/>
				</g>
				<g id="shape615-11" transform="translate(8.28844,-44.8153)">
					<title>Sheet.615</title>
					<path d="M12.73 126.65 A39.7845 39.9246 -180 0 0 0 128.48 A37.298 37.4293 -180 0 0 12.76 130.38 A37.298 37.4293
								 -180 0 0 25.53 128.48 A39.7845 39.9246 -180 0 0 12.73 126.65 Z" class="st4"/>
				</g>
				<g id="shape616-13" transform="translate(4.8736,-15.4042)">
					<title>Sheet.616</title>
					<path d="M29.08 124.39 L29.08 113.14 L25.99 113.14 L25.99 126.92 L34.15 126.92 L34.15 124.39 L29.08 124.39 ZM5.37
								 118.83 A6.36552 6.38793 0 0 1 3.68 117.8 A1.45877 1.4639 0 0 1 3.41 116.74 A1.25984 1.26428 0 0
								 1 3.95 115.71 A2.38707 2.39548 0 0 1 5.34 115.34 A5.53668 5.55617 0 0 1 8.65 116.3 L8.65 113.44
								 A8.85205 8.88322 -180 0 0 5.34 112.91 A5.76875 5.78907 -180 0 0 1.36 114.08 A3.74637 3.75957 -180
								 0 0 0 117.07 C0 118.77 1.06 120.1 3.32 121.1 A9.61459 9.64844 0 0 1 5.34 122.29 A1.32615 1.33082
								 0 0 1 5.87 123.36 A1.25984 1.26428 0 0 1 5.34 124.39 A2.48653 2.49529 0 0 1 3.85 124.79 A5.3046
								 5.32328 0 0 1 0.1 123.29 L0.1 126.39 A7.59221 7.61894 -180 0 0 3.65 127.15 A6.63075 6.6541 -180
								 0 0 7.56 126.09 A3.64691 3.65975 -180 0 0 8.98 123.03 A3.31538 3.32705 -180 0 0 8.16 120.7 A8.02321
								 8.05146 -180 0 0 5.37 118.83 ZM22.61 124.06 A7.9569 7.98492 -180 0 0 23.7 119.83 A7.69167 7.71875
								 -180 0 0 22.88 116.17 A6.00083 6.02196 -180 0 0 20.56 113.68 A6.63075 6.6541 -180 0 0 17.24 112.81
								 A7.22752 7.25297 -180 0 0 13.63 113.71 A6.19975 6.22158 -180 0 0 11.21 116.27 A7.99005 8.01819 -180
								 0 0 10.34 120.1 A7.49275 7.51913 -180 0 0 11.14 123.59 A6.06714 6.0885 -180 0 0 13.39 126.09 A6.63075
								 6.6541 -180 0 0 16.71 127.05 L19.53 130.38 L23.47 130.38 L19.49 126.68 A6.00083 6.02196 -180 0 0
								 22.61 124.06 ZM19.53 123.19 A3.31538 3.32705 0 0 1 14.46 123.19 A5.00622 5.02384 0 0 1 13.53 119.86
								 A4.90676 4.92403 0 0 1 14.49 116.54 A3.05015 3.06088 0 0 1 17.07 115.31 A2.95068 2.96107 0 0 1 19.56
								 116.54 A5.37091 5.38982 0 0 1 20.46 119.86 A4.84045 4.85749 0 0 1 19.53 123.29 L19.53 123.19 Z"
							class="st5"/>
				</g>
				<g id="shape617-15" transform="translate(35.143,0)">
					<title>Sheet.617</title>
					<path d="M12.3 130.24 L13.1 127.62 L14.65 126.72 L17.34 127.92 L19.06 126.15 L19.06 125.95 L17.84 123.59 L18.57
								 121.93 L21.25 120.96 L21.55 120.96 L21.55 118.53 L21.22 118.53 L18.57 117.74 L17.7 116.2 L18.86
								 113.48 L17.11 111.78 L16.91 111.78 L14.55 112.98 L12.93 111.98 L11.87 109.02 L9.42 109.02 L9.42
								 109.38 L8.62 112.01 L6.93 112.74 L4.04 111.41 L2.35 113.18 L2.52 113.51 L3.78 115.97 L3.12 117.67
								 L0 118.63 L0 121.1 L0.36 121.1 L2.98 121.89 L3.71 123.59 L2.42 126.45 L4.18 128.18 L4.48 128.02
								 L6.93 126.75 L8.62 127.42 L9.75 130.38 L12.17 130.38 L12.3 130.24 ZM8.32 122.39 A3.52838 3.54081
								 0 1 1 13.26 117.34 A3.52838 3.54081 0 0 1 8.32 122.39 Z" class="st6"/>
				</g>
			</g>
		</g>
	</g>
</svg>
