<?xml version="1.0" encoding="UTF-8" standalone="no"?>
<!DOCTYPE svg PUBLIC "-//W3C//DTD SVG 1.1//EN" "http://www.w3.org/Graphics/SVG/1.1/DTD/svg11.dtd">
<!-- Generated by Microsoft Visio, SVG Export SQL Server Registry.svg Page-1 -->
<svg xmlns="http://www.w3.org/2000/svg" xmlns:xlink="http://www.w3.org/1999/xlink" xmlns:ev="http://www.w3.org/2001/xml-events"
		width="1.72314in" height="1.67259in" viewBox="0 0 124.066 120.427" xml:space="preserve" color-interpolation-filters="sRGB"
		class="st10">
	<style type="text/css">
	<![CDATA[
		.st1 {fill:url(#grad0-7);stroke:none;stroke-linecap:butt;stroke-width:33.6866}
		.st2 {fill:#e8e8e8;stroke:none;stroke-linecap:butt;stroke-width:33.6866}
		.st3 {fill:#50e6ff;stroke:none;stroke-linecap:butt;stroke-width:33.6866}
		.st4 {fill:#198ab3;stroke:none;stroke-linecap:butt;stroke-width:33.6866}
		.st5 {fill:url(#grad3-17);stroke:none;stroke-linecap:butt;stroke-width:33.6866}
		.st6 {fill:#ffffff;stroke:none;stroke-linecap:butt;stroke-width:33.6866}
		.st7 {fill:#50e6ff}
		.st8 {stroke:none;stroke-linecap:butt;stroke-width:33.6866}
		.st9 {fill:#32bedd;stroke:none;stroke-linecap:butt;stroke-width:33.6866}
		.st10 {fill:none;fill-rule:evenodd;font-size:12px;overflow:visible;stroke-linecap:square;stroke-miterlimit:3}
	]]>
	</style>

	<defs id="Patterns_And_Gradients">
		<linearGradient id="grad0-7" x1="0" y1="0" x2="1" y2="0" gradientTransform="rotate(0 0.5 0.5)">
			<stop offset="0" stop-color="#005ba1" stop-opacity="1"/>
			<stop offset="0.07" stop-color="#0060a9" stop-opacity="1"/>
			<stop offset="0.36" stop-color="#0071c8" stop-opacity="1"/>
			<stop offset="0.52" stop-color="#0078d4" stop-opacity="1"/>
			<stop offset="0.64" stop-color="#0074cd" stop-opacity="1"/>
			<stop offset="0.82" stop-color="#006abb" stop-opacity="1"/>
			<stop offset="1" stop-color="#005ba1" stop-opacity="1"/>
		</linearGradient>
		<radialGradient id="grad3-17" cx="0.5" cy="0.5" r="0.73">
			<stop offset="0" stop-color="#f2f2f2" stop-opacity="1"/>
			<stop offset="0.58" stop-color="#eeeeee" stop-opacity="1"/>
			<stop offset="1" stop-color="#e6e6e6" stop-opacity="1"/>
		</radialGradient>
	</defs>
	<g>
		<title>Page-1</title>
		<g id="group596-1" transform="translate(33.6866,-35.7165)">
			<title>SQL Server Registry</title>
			<g id="group597-2">
				<title>g52</title>
				<g id="group598-3">
					<title>g38</title>
					<g id="shape599-4">
						<title>path28</title>
						<path d="M19.35 83.34 C8.58 83.34 0 80.22 0 76.37 L0 113.46 C0 117.27 8.58 120.39 19.08 120.43 L19.35 120.43
									 C30.01 120.43 38.66 117.14 38.66 113.46 L38.66 76.37 C38.66 80.22 30.01 83.34 19.35 83.34 Z"
								class="st1"/>
					</g>
					<g id="shape600-8" transform="translate(0,-37.0842)">
						<title>path30</title>
						<path d="M38.66 113.46 C38.66 117.3 30.01 120.43 19.35 120.43 C8.68 120.43 0 117.3 0 113.46 C0 109.61 8.58
									 106.49 19.35 106.49 C30.11 106.49 38.66 109.77 38.66 113.46 Z" class="st2"/>
					</g>
					<g id="shape601-10" transform="translate(4.52355,-40.1745)">
						<title>path32</title>
						<path d="M29.65 115.99 C29.65 118.42 23.05 120.43 14.83 120.43 C6.6 120.43 0 118.42 0 115.99 C0 113.56 6.6
									 111.55 14.83 111.55 C23.05 111.55 29.65 113.52 29.65 115.99 Z" class="st3"/>
					</g>
					<g id="shape602-12" transform="translate(7.59427,-40.2074)">
						<title>path34</title>
						<path d="M11.75 117.04 A36.0893 35.9335 -180 0 0 0 118.68 A34.6035 34.4541 -180 0 0 11.75 120.43 A34.3723
									 34.224 -180 0 0 23.48 118.68 A35.8582 35.7034 -180 0 0 11.75 117.04 Z" class="st4"/>
					</g>
					<g id="shape603-14" transform="translate(4.68864,-12.7888)">
						<title>path36</title>
						<path d="M26.41 114.9 L26.41 104.78 L23.71 104.78 L23.71 117.17 L31.1 117.17 L31.1 114.9 L26.41 114.9 ZM4.89
									 109.91 A7.4622 7.42999 0 0 1 3.33 108.99 A1.45282 1.44655 0 0 1 2.97 108 A1.15565 1.15066 0
									 0 1 3.43 107.08 A2.11319 2.10407 0 0 1 4.72 106.75 A5.1509 5.12866 0 0 1 7.59 107.7 L7.59 105.04
									 A8.12257 8.08751 -180 0 0 4.56 104.42 A4.95279 4.93141 -180 0 0 1.25 105.44 A3.30186 3.2876
									 -180 0 0 0 108.1 A4.0943 4.07663 -180 0 0 2.87 111.75 A8.58483 8.54777 0 0 1 4.72 112.8 A1.38678
									 1.38079 0 0 1 5.18 113.79 A1.05659 1.05203 0 0 1 4.69 114.71 A2.17923 2.16982 0 0 1 3.37 115.07
									 A4.88675 4.86565 0 0 1 0.07 113.79 L0.07 116.55 A6.60372 6.57521 -180 0 0 3.37 117.27 A5.6792
									 5.65468 -180 0 0 6.9 116.28 A3.30186 3.2876 -180 0 0 8.19 113.56 A3.03771 3.0246 -180 0 0 7.46
									 111.45 A7.29711 7.26561 -180 0 0 4.89 109.91 ZM20.41 114.67 A7.06598 7.03547 -180 0 0 21.53
									 110.99 A6.90088 6.87109 -180 0 0 20.77 107.7 A5.48109 5.45742 -180 0 0 18.69 105.47 A6.10844
									 6.08207 -180 0 0 15.58 104.42 A6.33957 6.3122 -180 0 0 12.28 105.24 A5.44807 5.42455 -180 0
									 0 10.1 107.7 A7.85842 7.8245 -180 0 0 10.1 114.28 A5.6792 5.65468 -180 0 0 12.18 116.51 A6.60372
									 6.57521 -180 0 0 15.12 117.57 L17.7 120.43 L21.33 120.43 L17.73 117.14 A5.31599 5.29304 -180
									 0 0 20.41 114.67 ZM17.6 113.92 A2.80658 2.79446 0 0 1 15.29 114.97 A2.74054 2.72871 0 0 1 13.01
									 113.88 A4.6226 4.60265 0 0 1 12.28 110.99 A4.52355 4.50402 0 0 1 13.17 108.07 A2.74054 2.72871
									 0 0 1 15.49 106.95 A2.67451 2.66296 0 0 1 17.76 108.07 A4.75468 4.73415 0 0 1 18.59 111.02 A4.49053
									 4.47114 0 0 1 17.73 113.92 L17.6 113.92 Z" class="st5"/>
					</g>
				</g>
				<g id="shape604-18" transform="translate(33.811,-22.9146)">
					<title>path40</title>
					<path d="M13.01 92.65 L0.96 92.65 a0.957539 0.953405 -180 0 0 -0.957539 0.953405 L0 119.47 a0.957539 0.953405
								 -180 0 0 0.957539 0.953405 L21.86 120.43 a0.957539 0.953405 -180 0 0 0.957539 -0.953405 L22.82 102.34
								 a0.957539 0.953405 -180 0 0 -0.957539 -0.953405 L14.92 101.39 a0.957539 0.953405 0 0 1 -0.957539
								 -0.953405 L13.97 93.6 a0.957539 0.953405 -180 0 0 -0.957539 -0.953405 Z" class="st6"/>
				</g>
				<g id="shape605-20" transform="translate(33.5469,-22.6845)">
					<title>path42</title>
					<path d="M12.84 93.63 L12.84 100.21 A2.37734 2.36708 -180 0 0 15.22 102.58 L21.83 102.58 L21.83 119.01 L1.45
								 119.01 L1.45 93.63 L12.75 93.63 L12.84 93.63 ZM13.21 92.22 L0.99 92.22 a0.957539 0.953405 -180 0
								 0 -0.990558 0.953405 L0 119.47 a0.957539 0.953405 -180 0 0 0.990558 0.953405 L22.19 120.43 a0.957539
								 0.953405 -180 0 0 0.957539 -0.953405 L23.15 102.05 a0.957539 0.953405 -180 0 0 -0.858483 -0.887653
								 L15.22 101.16 a0.957539 0.953405 0 0 1 -0.957539 -0.953405 L14.26 93.17 a0.957539 0.953405 -180
								 0 0 -0.957539 -0.953405 L13.21 92.22 Z" class="st7"/>
					<path d="M12.84 93.63 L12.84 100.21 A2.37734 2.36708 -180 0 0 15.22 102.58 L21.83 102.58 L21.83 119.01 L1.45
								 119.01 L1.45 93.63 L12.75 93.63M13.21 92.22 L0.99 92.22 a0.957539 0.953405 -180 0 0 -0.990558 0.953405
								 L0 119.47 a0.957539 0.953405 -180 0 0 0.990558 0.953405 L22.19 120.43 a0.957539 0.953405 -180 0
								 0 0.957539 -0.953405 L23.15 102.05 a0.957539 0.953405 -180 0 0 -0.858483 -0.887653 L15.22 101.16
								 a0.957539 0.953405 0 0 1 -0.957539 -0.953405 L14.26 93.17 a0.957539 0.953405 -180 0 0 -0.957539
								 -0.953405 L13.21 92.22" class="st8"/>
				</g>
				<g id="shape606-23" transform="translate(47.4807,-41.9498)">
					<title>path44</title>
					<path d="M8.95 120.43 L0 111.55 L0 118.78 A1.65093 1.6438 -180 0 0 1.62 120.43 L8.95 120.43 Z" class="st9"/>
				</g>
				<g id="shape607-25" transform="translate(38.4667,-33.9938)">
					<title>rect46</title>
					<path d="M0 119.54 a0.891523 0.887674 -180 0 0 0.891502 0.887653 L12.58 120.43 a0.891523 0.887674 -180 0 0 0.891502
								 -0.887653 a0.891523 0.887674 -180 0 0 -0.891502 -0.887653 L0.89 118.65 a0.891523 0.887674 -180 0
								 0 -0.891502 0.887653 Z" class="st9"/>
				</g>
				<g id="shape608-27" transform="translate(38.4667,-31.0021)">
					<title>rect48</title>
					<path d="M0 119.54 a0.891523 0.887674 -180 0 0 0.891502 0.887653 L12.58 120.43 a0.891523 0.887674 -180 0 0 0.891502
								 -0.887653 a0.891523 0.887674 -180 0 0 -0.891502 -0.887653 L0.89 118.65 a0.891523 0.887674 -180 0
								 0 -0.891502 0.887653 Z" class="st9"/>
				</g>
				<g id="shape609-29" transform="translate(38.4667,-28.0761)">
					<title>rect50</title>
					<path d="M0 119.6 a0.825484 0.82192 -180 0 0 0.825465 0.821901 L6.41 120.43 a0.825484 0.82192 -180 0 0 0.825465
								 -0.821901 a0.825484 0.82192 -180 0 0 -0.825465 -0.821901 L0.83 118.78 a0.825484 0.82192 -180 0 0
								 -0.825465 0.821901 Z" class="st9"/>
				</g>
			</g>
		</g>
	</g>
</svg>
