<?xml version="1.0" encoding="UTF-8" standalone="no"?>
<!DOCTYPE svg PUBLIC "-//W3C//DTD SVG 1.1//EN" "http://www.w3.org/Graphics/SVG/1.1/DTD/svg11.dtd">
<!-- Generated by Microsoft Visio, SVG Export Virtual Machine Image (Classic).svg Page-1 -->
<svg xmlns="http://www.w3.org/2000/svg" xmlns:xlink="http://www.w3.org/1999/xlink" xmlns:ev="http://www.w3.org/2001/xml-events"
		width="1.73185in" height="1.67695in" viewBox="0 0 124.693 120.74" xml:space="preserve" color-interpolation-filters="sRGB"
		class="st9">
	<style type="text/css">
	<![CDATA[
		.st1 {fill:url(#grad0-6);stroke:none;stroke-linecap:butt;stroke-width:34}
		.st2 {fill:#ffffff;stroke:none;stroke-linecap:butt;stroke-width:34}
		.st3 {fill:#0078d4;stroke:none;stroke-linecap:butt;stroke-width:34}
		.st4 {fill:#83b9f9;stroke:none;stroke-linecap:butt;stroke-width:34}
		.st5 {fill:#5ea0ef;stroke:none;stroke-linecap:butt;stroke-width:34}
		.st6 {fill:#83b9f9;fill-opacity:0.2;stroke:none;stroke-linecap:butt;stroke-width:34}
		.st7 {fill:#5ea0ef;fill-opacity:0.2;stroke:none;stroke-linecap:butt;stroke-width:34}
		.st8 {fill:url(#grad0-22);stroke:none;stroke-linecap:butt;stroke-width:34}
		.st9 {fill:none;fill-rule:evenodd;font-size:12px;overflow:visible;stroke-linecap:square;stroke-miterlimit:3}
	]]>
	</style>

	<defs id="Patterns_And_Gradients">
		<linearGradient id="grad0-6" x1="0" y1="0" x2="1" y2="0" gradientTransform="rotate(-90 0.5 0.5)">
			<stop offset="0" stop-color="#0078d4" stop-opacity="1"/>
			<stop offset="0.82" stop-color="#5ea0ef" stop-opacity="1"/>
		</linearGradient>
		<linearGradient id="grad0-22" x1="0" y1="0" x2="1" y2="0" gradientTransform="rotate(-90 0.5 0.5)">
			<stop offset="0" stop-color="#1490df" stop-opacity="1"/>
			<stop offset="0.98" stop-color="#1f56a3" stop-opacity="1"/>
		</linearGradient>
	</defs>
	<g>
		<title>Page-1</title>
		<g id="group264-1" transform="translate(34,-35.7165)">
			<title>Virtual Machine Image (Classic)</title>
			<g id="group265-2">
				<title>Icon-compute-27</title>
				<g id="shape266-3" transform="translate(0,-14.2056)">
					<title>Sheet.266</title>
					<path d="M0 118.9 A1.88981 1.84094 -180 0 0 1.89 120.74 L54.8 120.74 A1.88981 1.84094 -180 0 0 56.69 118.9 L56.69
								 85.76 A1.88981 1.84094 -180 0 0 54.8 83.92 L1.89 83.92 A1.88981 1.84094 -180 0 0 0 85.76 L0 118.9
								 Z" class="st1"/>
				</g>
				<g id="shape267-7" transform="translate(3.14961,-17.2738)">
					<title>Sheet.267</title>
					<path d="M0 119.73 A1.03939 1.01252 -180 0 0 1.04 120.74 L49.35 120.74 A1.03939 1.01252 -180 0 0 50.39 119.73
								 L50.39 91.07 A1.03939 1.01252 -180 0 0 49.35 90.06 L1.04 90.06 A1.03939 1.01252 -180 0 0 0 91.07
								 L0 119.73 Z" class="st2"/>
				</g>
				<g id="shape268-9" transform="translate(28.3465,-21.876)">
					<title>Sheet.268</title>
					<path d="M9.45 104.63 L9.45 115.34 L0 120.74 L0 110 L9.45 104.63 Z" class="st3"/>
				</g>
				<g id="shape269-11" transform="translate(18.8976,-32.5839)">
					<title>Sheet.269</title>
					<path d="M18.9 115.34 L9.45 120.74 L0 115.34 L9.45 109.97 L18.9 115.34 Z" class="st4"/>
				</g>
				<g id="shape270-13" transform="translate(18.8976,-21.876)">
					<title>Sheet.270</title>
					<path d="M9.45 110.03 L9.45 120.74 L0 115.34 L0 104.63 L9.45 110.03 Z" class="st5"/>
				</g>
				<g id="shape271-15" transform="translate(18.8976,-21.876)">
					<title>Sheet.271</title>
					<path d="M0 115.34 L9.45 110 L9.45 120.74 L0 115.34 Z" class="st6"/>
				</g>
				<g id="shape272-17" transform="translate(28.3465,-21.876)">
					<title>Sheet.272</title>
					<path d="M9.45 115.34 L0 110 L0 120.74 L9.45 115.34 Z" class="st7"/>
				</g>
				<g id="shape273-19" transform="translate(14.1732,1.42109E-14)">
					<title>Sheet.273</title>
					<path d="M25.54 117.67 C19.94 116.81 19.72 112.89 19.72 106.53 L8.6 106.53 C8.6 112.89 8.41 116.81 2.8 117.67
								 A3.14961 3.06817 -180 0 0 0 120.74 L28.35 120.74 A3.14961 3.06817 -180 0 0 25.54 117.67 Z"
							class="st8"/>
				</g>
				<g id="shape274-23" transform="translate(6.89764,-19.3601)">
					<title>Sheet.274</title>
					<path d="M9.7 94.29 L1.89 94.29 A1.85827 1.81022 -180 0 0 0 96.1 L0 103.71 a0.944882 0.92045 -180 0 0 0.944882
								 0.92045 L1.57 104.63 a0.944882 0.92045 -180 0 0 0.944882 -0.92045 L2.52 96.69 L9.7 96.69 a0.944882
								 0.92045 -180 0 0 0.944882 -0.92045 L10.65 95.18 a0.944882 0.92045 -180 0 0 -0.944882 -0.889769 ZM9.7
								 118.22 L2.49 118.22 L2.49 111.23 a0.944882 0.92045 -180 0 0 -0.944882 -0.92045 L0.94 110.31 a0.944882
								 0.92045 -180 0 0 -0.944882 0.92045 L0 118.84 A1.85827 1.81022 -180 0 0 1.89 120.65 L9.7 120.65 a0.944882
								 0.92045 -180 0 0 0.944882 -0.889769 L10.65 119.14 a0.944882 0.92045 -180 0 0 -0.944882 -0.92045
								 ZM40.88 94.35 L33.2 94.35 a0.913386 0.889769 -180 0 0 -0.944882 0.92045 L32.25 95.86 a0.913386 0.889769
								 -180 0 0 0.944882 0.889769 L40.38 96.75 L40.38 103.8 a0.913386 0.889769 -180 0 0 0.944882 0.889769
								 L41.95 104.69 a0.913386 0.889769 -180 0 0 0.913386 -0.889769 L42.87 96.19 A1.85827 1.81022 -180
								 0 0 40.88 94.35 ZM41.95 110.37 L41.35 110.37 a0.944882 0.92045 -180 0 0 -0.944882 0.92045 L40.41
								 118.29 L33.2 118.29 a0.913386 0.889769 -180 0 0 -0.944882 0.92045 L32.25 119.82 a0.944882 0.92045
								 -180 0 0 0.944882 0.92045 L40.88 120.74 A1.85827 1.81022 -180 0 0 42.74 118.9 L42.74 111.29 a0.944882
								 0.92045 -180 0 0 -0.787402 -0.92045 Z" class="st5"/>
				</g>
			</g>
		</g>
	</g>
</svg>
