<?xml version="1.0" encoding="UTF-8" standalone="no"?>
<!DOCTYPE svg PUBLIC "-//W3C//DTD SVG 1.1//EN" "http://www.w3.org/Graphics/SVG/1.1/DTD/svg11.dtd">
<!-- Generated by Microsoft Visio, SVG Export Work Account.svg Page-1 -->
<svg xmlns="http://www.w3.org/2000/svg" xmlns:xlink="http://www.w3.org/1999/xlink" xmlns:ev="http://www.w3.org/2001/xml-events"
		width="0.944882in" height="1.41732in" viewBox="0 0 68.0315 102.047" xml:space="preserve" color-interpolation-filters="sRGB"
		class="st5">
	<style type="text/css">
	<![CDATA[
		.st1 {fill:url(#grad0-6);stroke:none;stroke-linecap:butt;stroke-width:0.812473}
		.st2 {fill:url(#grad0-13);stroke:none;stroke-linecap:butt;stroke-width:0.812473}
		.st3 {fill:url(#grad0-17);stroke:none;stroke-linecap:butt;stroke-width:0.812473}
		.st4 {fill:url(#grad0-21);stroke:none;stroke-linecap:butt;stroke-width:0.812473}
		.st5 {fill:none;fill-rule:evenodd;font-size:12px;overflow:visible;stroke-linecap:square;stroke-miterlimit:3}
	]]>
	</style>

	<defs id="Patterns_And_Gradients">
		<linearGradient id="grad0-6" x1="0" y1="0" x2="1" y2="0" gradientTransform="rotate(-90.919166958533 0.5 0.5)">
			<stop offset="0" stop-color="#5e9624" stop-opacity="1"/>
			<stop offset="0.18" stop-color="#629c25" stop-opacity="1"/>
			<stop offset="0.44" stop-color="#6dae2a" stop-opacity="1"/>
			<stop offset="0.73" stop-color="#7fcb30" stop-opacity="1"/>
			<stop offset="0.82" stop-color="#86d633" stop-opacity="1"/>
		</linearGradient>
		<linearGradient id="grad0-13" x1="0" y1="0" x2="1" y2="0" gradientTransform="rotate(-90.527700271183 0.5 0.5)">
			<stop offset="0" stop-color="#5e9624" stop-opacity="1"/>
			<stop offset="0.18" stop-color="#629c25" stop-opacity="1"/>
			<stop offset="0.44" stop-color="#6dae2a" stop-opacity="1"/>
			<stop offset="0.73" stop-color="#7fcb30" stop-opacity="1"/>
			<stop offset="0.82" stop-color="#86d633" stop-opacity="1"/>
		</linearGradient>
		<linearGradient id="grad0-17" x1="0" y1="0" x2="1" y2="0" gradientTransform="rotate(-90.901590192716 0.5 0.5)">
			<stop offset="0" stop-color="#5e9624" stop-opacity="1"/>
			<stop offset="0.18" stop-color="#629c25" stop-opacity="1"/>
			<stop offset="0.44" stop-color="#6dae2a" stop-opacity="1"/>
			<stop offset="0.73" stop-color="#7fcb30" stop-opacity="1"/>
			<stop offset="0.82" stop-color="#86d633" stop-opacity="1"/>
		</linearGradient>
		<linearGradient id="grad0-21" x1="0" y1="0" x2="1" y2="0" gradientTransform="rotate(-90.263515276849 0.5 0.5)">
			<stop offset="0" stop-color="#5e9624" stop-opacity="1"/>
			<stop offset="0.18" stop-color="#629c25" stop-opacity="1"/>
			<stop offset="0.44" stop-color="#6dae2a" stop-opacity="1"/>
			<stop offset="0.73" stop-color="#7fcb30" stop-opacity="1"/>
			<stop offset="0.82" stop-color="#86d633" stop-opacity="1"/>
		</linearGradient>
	</defs>
	<g>
		<title>Page-1</title>
		<g id="group51-1" transform="translate(5.66929,-39.685)">
			<title>Work Account</title>
			<g id="group52-2">
				<title>Microsoft_organization_account_</title>
				<g id="shape53-3">
					<title>path2</title>
					<path d="M34.61 45.35 L26.77 50.95 L19.64 52.38 L26.77 50.95 L27.48 54.62 L39.39 52.17 C41.12 51.77 42.85 52.99
								 43.26 54.72 L52.42 99.71 C52.62 100.52 52.42 101.54 52.01 102.05 L13.94 102.05 L5.9 62.35 C5.5 60.62
								 6.72 58.89 8.45 58.48 L20.46 56.04 L19.75 52.48 L14.55 45.35 L0 45.35 L0 102.05 L56.69 102.05 L56.69
								 45.35 L34.61 45.35 Z" class="st1"/>
				</g>
				<g id="shape54-7" transform="translate(22.6975,-46.82)">
					<title>circle4</title>
					<ellipse cx="1.01783" cy="101.029" rx="1.01783" ry="1.01783" class="st1"/>
				</g>
				<g id="shape55-10" transform="translate(20.3565,-53.5377)">
					<title>polygon6</title>
					<path d="M5.5 98.89 L0 98.89 L2.75 102.05 L5.5 98.89 Z" class="st2"/>
				</g>
				<g id="shape56-14" transform="translate(9.66935,-6.51409)">
					<title>path8</title>
					<path d="M31.25 65.51 L0 71.82 L6.11 102.05 L11.91 100.83 L9.06 86.88 L14.96 85.66 L20.25 90.55 L23.21 84.03
								 L29.11 82.81 L31.86 96.65 L37.25 95.53 L31.25 65.51 ZM18.83 83.01 C15.78 83.62 12.72 81.69 12.11
								 78.54 C11.5 75.48 13.54 72.43 16.59 71.82 C19.64 71.21 22.7 73.14 23.31 76.3 C23.92 79.45 21.88
								 82.4 18.83 83.01 Z" class="st3"/>
				</g>
				<g id="shape57-18" transform="translate(17.0995,-40.713)">
					<title>path10</title>
					<path d="M0 101.33 C0.1 101.84 0.51 102.05 0.92 101.95 L14.66 99.2 C15.06 99.1 15.27 98.69 15.27 98.38 L15.27
								 98.28 C15.17 97.87 14.76 97.67 14.45 97.67 L11.2 98.38 L11.4 99.4 L4.27 100.83 L4.07 99.81 L0.81
								 100.52 C0.2 100.52 0 100.93 0 101.33 Z" class="st4"/>
				</g>
			</g>
		</g>
	</g>
</svg>
