<?xml version="1.0" encoding="UTF-8" standalone="no"?>
<!-- Generated by Microsoft Visio, SVG Export Hosted Pool.svg Page-1 -->

<svg
   xmlns:dc="http://purl.org/dc/elements/1.1/"
   xmlns:cc="http://creativecommons.org/ns#"
   xmlns:rdf="http://www.w3.org/1999/02/22-rdf-syntax-ns#"
   xmlns:svg="http://www.w3.org/2000/svg"
   xmlns="http://www.w3.org/2000/svg"
   xmlns:sodipodi="http://sodipodi.sourceforge.net/DTD/sodipodi-0.dtd"
   xmlns:inkscape="http://www.inkscape.org/namespaces/inkscape"
   width="0.78735679in"
   height="0.78740394in"
   viewBox="0 0 56.689597 56.693394"
   xml:space="preserve"
   class="st7"
   version="1.1"
   id="svg90"
   sodipodi:docname="Hosted Pool.svg"
   style="font-size:12px;overflow:visible;color-interpolation-filters:sRGB;fill:none;fill-rule:evenodd;stroke-linecap:square;stroke-miterlimit:3"
   inkscape:version="0.92.5 (2060ec1f9f, 2020-04-08)"><metadata
   id="metadata94"><rdf:RDF><cc:Work
       rdf:about=""><dc:format>image/svg+xml</dc:format><dc:type
         rdf:resource="http://purl.org/dc/dcmitype/StillImage" /></cc:Work></rdf:RDF></metadata><sodipodi:namedview
   pagecolor="#ffffff"
   bordercolor="#666666"
   borderopacity="1"
   objecttolerance="10"
   gridtolerance="10"
   guidetolerance="10"
   inkscape:pageopacity="0"
   inkscape:pageshadow="2"
   inkscape:window-width="640"
   inkscape:window-height="480"
   id="namedview92"
   showgrid="false"
   inkscape:zoom="1.4193119"
   inkscape:cx="37.795128"
   inkscape:cy="37.786193"
   inkscape:window-x="0"
   inkscape:window-y="0"
   inkscape:window-maximized="0"
   inkscape:current-layer="svg90" />
	<style
   type="text/css"
   id="style2">
	<![CDATA[
		.st1 {fill:#0078d4;stroke:none;stroke-linecap:butt;stroke-width:34}
		.st2 {fill:#50e6ff;stroke:none;stroke-linecap:butt;stroke-width:34}
		.st3 {fill:#c3f1ff;stroke:none;stroke-linecap:butt;stroke-width:34}
		.st4 {fill:#9cebff;stroke:none;stroke-linecap:butt;stroke-width:34}
		.st5 {fill:url(#grad0-16);stroke:none;stroke-linecap:butt;stroke-width:34}
		.st6 {fill:url(#grad0-30);stroke:none;stroke-linecap:butt;stroke-width:34}
		.st7 {fill:none;fill-rule:evenodd;font-size:12px;overflow:visible;stroke-linecap:square;stroke-miterlimit:3}
	]]>
	</style>

	<defs
   id="Patterns_And_Gradients">
		<linearGradient
   id="grad0-16"
   x1="0"
   y1="128.50633"
   x2="23.977252"
   y2="128.50633"
   gradientTransform="scale(1.2227053,0.81785853)"
   gradientUnits="userSpaceOnUse">
			<stop
   offset="0"
   stop-color="#0078d4"
   stop-opacity="1"
   id="stop4" />
			<stop
   offset="0.82"
   stop-color="#5ea0ef"
   stop-opacity="1"
   id="stop6" />
		</linearGradient>
		<linearGradient
   id="grad0-30"
   x1="0"
   y1="163.06935"
   x2="10.538117"
   y2="163.06935"
   gradientTransform="scale(1.3920894,0.71834469)"
   gradientUnits="userSpaceOnUse">
			<stop
   offset="0.15"
   stop-color="#cccccc"
   stop-opacity="1"
   id="stop9" />
			<stop
   offset="1"
   stop-color="#707070"
   stop-opacity="1"
   id="stop11" />
		</linearGradient>
	</defs>
	<g
   id="g88"
   transform="translate(-34.000441,-34.000905)">
		<title
   id="title15">Page-1</title>
		<g
   id="group11401-1"
   transform="translate(34,-34.0157)">
			<title
   id="title17">Hosted Pool.11401</title>
			<g
   id="group11402-2">
				<title
   id="title19">Sheet.11402</title>
				<g
   id="shape11403-3">
					<title
   id="title21">Sheet.11403</title>
					<path
   d="m 5.4,68.02 h 6.57 v 1.9 H 5.4 Z m 48.39,1.9 h 1.07 v 1.03 h 1.83 v -2.93 h -2.9 z M 3.03,122.67 H 2.1 v -1.06 H 0 v 3.1 h 3.03 z m 51.83,-0.96 v 0.96 h -1.07 v 2.04 h 2.9 v -3 z M 2.1,70.88 v -0.96 h 0.93 v -1.9 H 0 v 2.86 z"
   class="st1"
   id="path23"
   inkscape:connector-curvature="0"
   style="fill:#0078d4;stroke:none;stroke-width:34;stroke-linecap:butt" />
				</g>
				<g
   id="shape11404-5"
   transform="translate(9.5711,-26.9125)">
					<title
   id="title26">Sheet.11404</title>
					<path
   d="m 0,123.74 a 0.967137,0.967137 -180 0 0 0.967114,0.96711 L 28.35,124.71 a 0.967137,0.967137 -180 0 0 0.967114,-0.96711 L 29.31,106.07 a 0.967137,0.967137 -180 0 0 -0.967114,-0.96711 L 0.97,105.1 a 0.967137,0.967137 -180 0 0 -0.967114,0.96711 z"
   class="st1"
   id="path28"
   inkscape:connector-curvature="0"
   style="fill:#0078d4;stroke:none;stroke-width:34;stroke-linecap:butt" />
				</g>
				<g
   id="shape11405-7"
   transform="translate(24.2446,-30.981)">
					<title
   id="title31">Sheet.11405</title>
					<path
   d="m 4.87,116.14 v 5.7 L 0,124.71 v -5.74 z"
   class="st2"
   id="path33"
   inkscape:connector-curvature="0"
   style="fill:#50e6ff;stroke:none;stroke-width:34;stroke-linecap:butt" />
				</g>
				<g
   id="shape11406-9"
   transform="translate(19.3423,-36.6836)">
					<title
   id="title36">Sheet.11406</title>
					<path
   d="M 9.77,121.84 4.9,124.71 0,121.84 4.9,118.97 Z"
   class="st3"
   id="path38"
   inkscape:connector-curvature="0"
   style="fill:#c3f1ff;stroke:none;stroke-width:34;stroke-linecap:butt" />
				</g>
				<g
   id="shape11407-11"
   transform="translate(19.3423,-30.981)">
					<title
   id="title41">Sheet.11407</title>
					<path
   d="m 4.9,119.01 v 5.7 L 0,121.84 v -5.7 z"
   class="st4"
   id="path43"
   inkscape:connector-curvature="0"
   style="fill:#9cebff;stroke:none;stroke-width:34;stroke-linecap:butt" />
				</g>
				<g
   id="shape11408-13"
   transform="translate(18.0417,-15.9741)">
					<title
   id="title46">Sheet.11408</title>
					<path
   d="m 0,123.74 a 0.967137,0.967137 -180 0 0 0.967114,0.96711 L 28.35,124.71 a 0.967137,0.967137 -180 0 0 0.967114,-0.96711 L 29.31,106.07 a 0.967137,0.967137 -180 0 0 -0.967114,-0.96711 L 0.97,105.1 a 0.967137,0.967137 -180 0 0 -0.967114,0.96711 z"
   class="st5"
   id="path48"
   inkscape:connector-curvature="0"
   style="fill:url(#grad0-16);stroke:none;stroke-width:34;stroke-linecap:butt" />
				</g>
				<g
   id="shape11409-17"
   transform="translate(32.7151,-20.076)">
					<title
   id="title51">Sheet.11409</title>
					<path
   d="m 4.87,116.14 v 5.7 L 0,124.71 v -5.7 z"
   class="st2"
   id="path53"
   inkscape:connector-curvature="0"
   style="fill:#50e6ff;stroke:none;stroke-width:34;stroke-linecap:butt" />
				</g>
				<g
   id="shape11410-19"
   transform="translate(27.8129,-25.7786)">
					<title
   id="title56">Sheet.11410</title>
					<path
   d="M 9.77,121.84 4.9,124.71 0,121.84 4.9,118.97 Z"
   class="st3"
   id="path58"
   inkscape:connector-curvature="0"
   style="fill:#c3f1ff;stroke:none;stroke-width:34;stroke-linecap:butt" />
				</g>
				<g
   id="shape11411-21"
   transform="translate(27.8129,-20.076)">
					<title
   id="title61">Sheet.11411</title>
					<path
   d="m 4.9,119.01 v 5.7 L 0,121.84 v -5.7 z"
   class="st4"
   id="path63"
   inkscape:connector-curvature="0"
   style="fill:#9cebff;stroke:none;stroke-width:34;stroke-linecap:butt" />
				</g>
				<g
   id="shape11412-23"
   transform="translate(27.8129,-20.076)">
					<title
   id="title66">Sheet.11412</title>
					<path
   d="m 0,121.84 4.9,-2.83 v 5.7 z"
   class="st3"
   id="path68"
   inkscape:connector-curvature="0"
   style="fill:#c3f1ff;stroke:none;stroke-width:34;stroke-linecap:butt" />
				</g>
				<g
   id="shape11413-25"
   transform="translate(32.7151,-20.076)">
					<title
   id="title71">Sheet.11413</title>
					<path
   d="M 4.87,121.84 0,119.01 v 5.7 z"
   class="st4"
   id="path73"
   inkscape:connector-curvature="0"
   style="fill:#9cebff;stroke:none;stroke-width:34;stroke-linecap:butt" />
				</g>
				<g
   id="shape11414-27"
   transform="translate(25.3784,-8.43724)">
					<title
   id="title76">Sheet.11414</title>
					<path
   d="M 13.21,123.07 C 10.3,122.61 10.2,120.51 10.2,117.14 H 4.44 c 0,3.33 0,5.47 -3.01,5.93 A 1.70079,1.70079 -180 0 0 0,124.71 h 14.67 a 1.70079,1.70079 -180 0 0 -1.46,-1.64 z"
   class="st6"
   id="path78"
   inkscape:connector-curvature="0"
   style="fill:url(#grad0-30);stroke:none;stroke-width:34;stroke-linecap:butt" />
				</g>
				<g
   id="shape11415-31"
   transform="translate(0,-0.133395)">
					<title
   id="title81">Sheet.11415</title>
					<path
   d="m 15.24,68.15 h 6.57 v 1.9 h -6.57 z m 9.8,0 h 6.57 v 1.9 h -6.57 z m 9.84,0 h 6.57 v 1.9 h -6.57 z m 9.84,0 h 6.57 v 1.9 H 44.72 Z M 5.47,122.81 h 6.57 v 1.9 H 5.47 Z m 9.8,0 h 6.57 v 1.9 h -6.57 z m 9.84,0 h 6.57 v 1.9 h -6.57 z m 9.84,0 h 6.57 v 1.9 h -6.57 z m 9.8,0 h 6.57 v 1.9 H 44.75 Z M 54.79,73.32 h 1.9 v 6.57 h -1.9 z m 0,9.8 h 1.9 v 6.57 h -1.9 z m 0,9.84 h 1.9 v 6.57 h -1.9 z m 0,9.81 h 1.9 v 6.56 h -1.9 z m 0,9.83 h 1.9 v 6.57 h -1.9 z M 0,73.25 h 1.9 v 6.57 H 0 Z m 0,9.84 h 1.9 v 6.57 H 0 Z m 0,9.8 h 1.9 v 6.57 H 0 Z m 0,9.84 h 1.9 v 6.57 H 0 Z m 0,9.81 h 1.9 v 6.57 H 0 Z"
   class="st1"
   id="path83"
   inkscape:connector-curvature="0"
   style="fill:#0078d4;stroke:none;stroke-width:34;stroke-linecap:butt" />
				</g>
			</g>
		</g>
	</g>
</svg>