<?xml version="1.0" encoding="UTF-8" standalone="no"?>
<!DOCTYPE svg PUBLIC "-//W3C//DTD SVG 1.1//EN" "http://www.w3.org/Graphics/SVG/1.1/DTD/svg11.dtd">
<!-- Generated by Microsoft Visio, SVG Export SQL Data Warehouse.svg Page-1 -->
<svg xmlns="http://www.w3.org/2000/svg" xmlns:xlink="http://www.w3.org/1999/xlink" xmlns:ev="http://www.w3.org/2001/xml-events"
		width="1.73185in" height="1.8108in" viewBox="0 0 124.693 130.378" xml:space="preserve" color-interpolation-filters="sRGB"
		class="st9">
	<style type="text/css">
	<![CDATA[
		.st1 {fill:url(#grad0-6);stroke:none;stroke-linecap:butt;stroke-width:34}
		.st2 {fill:#50e6ff;stroke:none;stroke-linecap:butt;stroke-width:34}
		.st3 {fill:url(#grad0-12);stroke:none;stroke-linecap:butt;stroke-width:34}
		.st4 {fill:#e8e8e8}
		.st5 {stroke:none;stroke-linecap:butt;stroke-width:34}
		.st6 {fill:#32bedd;stroke:none;stroke-linecap:butt;stroke-width:34}
		.st7 {visibility:visible}
		.st8 {fill:#000000;font-family:Calibri;font-size:0.666664em}
		.st9 {fill:none;fill-rule:evenodd;font-size:12px;overflow:visible;stroke-linecap:square;stroke-miterlimit:3}
	]]>
	</style>

	<defs id="Patterns_And_Gradients">
		<linearGradient id="grad0-6" x1="0" y1="0" x2="1" y2="0" gradientTransform="rotate(90 0.5 0.5)">
			<stop offset="0" stop-color="#b3b2b3" stop-opacity="1"/>
			<stop offset="0.38" stop-color="#afaeaf" stop-opacity="1"/>
			<stop offset="0.76" stop-color="#a2a2a2" stop-opacity="1"/>
			<stop offset="1" stop-color="#979797" stop-opacity="1"/>
		</linearGradient>
		<linearGradient id="grad0-12" x1="0" y1="0" x2="1" y2="0" gradientTransform="rotate(0 0.5 0.5)">
			<stop offset="0" stop-color="#005ba1" stop-opacity="1"/>
			<stop offset="0.07" stop-color="#0060a9" stop-opacity="1"/>
			<stop offset="0.36" stop-color="#0071c8" stop-opacity="1"/>
			<stop offset="0.52" stop-color="#0078d4" stop-opacity="1"/>
			<stop offset="0.64" stop-color="#0074cd" stop-opacity="1"/>
			<stop offset="0.82" stop-color="#006abb" stop-opacity="1"/>
			<stop offset="1" stop-color="#005ba1" stop-opacity="1"/>
		</linearGradient>
	</defs>
	<g>
		<title>Page-1</title>
		<g id="group6278-1" transform="translate(34,-39.685)">
			<title>SQL Data Warehouse.6278</title>
			<desc>SQL Data Warehouse</desc>
			<g id="group6279-2">
				<title>Icon-databases-125</title>
				<g id="shape6280-3" transform="translate(0,-14.2399)">
					<title>Sheet.6280</title>
					<path d="M22.74 87.92 L0 100.86 L0 104.07 L4.18 104.07 L4.18 128.34 L8.29 128.34 L8.29 104.07 L37.18 104.07 L37.18
								 130.38 L41.3 130.38 L41.3 104.07 L45.48 104.07 L45.48 100.86 L22.74 87.92 Z" class="st1"/>
				</g>
				<g id="shape6281-7" transform="translate(12.4058,-16.2742)">
					<title>Sheet.6281</title>
					<path d="M0 130.38 L8.26 130.38 L8.26 122.31 L0 122.31 L0 130.38 ZM12.37 130.38 L20.63 130.38 L20.63 122.31 L12.47
								 122.31 L12.37 130.38 ZM0 118.31 L8.26 118.31 L8.26 110.14 L0 110.14 L0 118.31 ZM12.47 110.14 L12.47
								 118.31 L20.63 118.31 L20.63 110.14 L12.47 110.14 Z" class="st2"/>
				</g>
				<g id="shape6282-9" transform="translate(28.2785,0)">
					<title>Sheet.6282</title>
					<path d="M14.07 106.73 C6.22 106.73 0 104.73 0 102.3 L0 125.94 C0 128.38 6.25 130.34 14 130.38 L14.21 130.38
								 C22.06 130.38 28.41 128.38 28.41 125.94 L28.41 102.3 C28.28 104.73 21.92 106.73 14.07 106.73 Z"
							class="st3"/>
				</g>
				<g id="shape6283-13" transform="translate(28.2785,-23.6443)">
					<title>Sheet.6283</title>
					<path d="M28.28 125.94 C28.28 128.38 21.92 130.38 14.07 130.38 C6.22 130.38 0 128.38 0 125.94 C0 123.51 6.36
								 121.51 14.21 121.51 C22.06 121.51 28.41 123.47 28.41 125.94 L28.28 125.94 Z" class="st4"/>
					<path d="M28.28 125.94 C28.28 128.38 21.92 130.38 14.07 130.38 C6.22 130.38 0 128.38 0 125.94 C0 123.51 6.36
								 121.51 14.21 121.51 C22.06 121.51 28.41 123.47 28.41 125.94" class="st5"/>
				</g>
				<g id="shape6284-16" transform="translate(31.4734,-25.5118)">
					<title>Sheet.6284</title>
					<path d="M21.79 127.54 C21.79 129.11 16.89 130.38 10.88 130.38 C4.86 130.38 0 129.01 0 127.54 C0 126.08 4.86
								 124.71 10.88 124.71 C16.89 124.71 21.79 125.98 21.79 127.54 Z" class="st2"/>
				</g>
				<g id="shape6285-18" transform="translate(33.7166,-25.6119)">
					<title>Sheet.6285</title>
					<path d="M8.63 128.21 A29.1962 28.6466 -180 0 0 0 129.28 A28.8903 28.3465 -180 0 0 8.63 130.38 A28.8903 28.3465
								 -180 0 0 17.27 129.28 A29.1962 28.6466 -180 0 0 8.63 128.21 Z" class="st6"/>
				</g>
			</g>
			<g id="shape6278-20">
				<g id="shadow6278-21" transform="matrix(1,0,0,1,1.41732,1.41732)" class="st7"/>
				<text x="-6.03" y="146.08" class="st8">SQL Data Warehouse</text>			</g>
		</g>
	</g>
</svg>
