<?xml version="1.0" encoding="UTF-8" standalone="no"?>
<!DOCTYPE svg PUBLIC "-//W3C//DTD SVG 1.1//EN" "http://www.w3.org/Graphics/SVG/1.1/DTD/svg11.dtd">
<!-- Generated by Microsoft Visio, SVG Export Azure Percept Device.svg Page-1 -->
<svg xmlns="http://www.w3.org/2000/svg" xmlns:xlink="http://www.w3.org/1999/xlink" xmlns:ev="http://www.w3.org/2001/xml-events"
		width="0.944882in" height="1.16535in" viewBox="0 0 68.0315 83.9055" xml:space="preserve" color-interpolation-filters="sRGB"
		class="st6">
	<style type="text/css">
	<![CDATA[
		.st1 {fill:#0078d4;stroke:none;stroke-linecap:butt;stroke-width:0.75}
		.st2 {fill:url(#grad0-7);stroke:none;stroke-linecap:butt;stroke-width:0.75}
		.st3 {fill:url(#grad0-11);stroke:none;stroke-linecap:butt;stroke-width:0.75}
		.st4 {fill:#f2f2f2;stroke:none;stroke-linecap:butt;stroke-width:0.75}
		.st5 {fill:url(#grad0-17);stroke:none;stroke-linecap:butt;stroke-width:0.75}
		.st6 {fill:none;fill-rule:evenodd;font-size:12px;overflow:visible;stroke-linecap:square;stroke-miterlimit:3}
	]]>
	</style>

	<defs id="Patterns_And_Gradients">
		<linearGradient id="grad0-7" x1="0" y1="0" x2="1" y2="0" gradientTransform="rotate(-90 0.5 0.5)">
			<stop offset="0" stop-color="#d2ebff" stop-opacity="1"/>
			<stop offset="1" stop-color="#f0fffd" stop-opacity="1"/>
		</linearGradient>
		<linearGradient id="grad0-11" x1="0" y1="0" x2="1" y2="0" gradientTransform="rotate(-90 0.5 0.5)">
			<stop offset="0" stop-color="#0078d4" stop-opacity="1"/>
			<stop offset="0.17" stop-color="#1c84dc" stop-opacity="1"/>
			<stop offset="0.38" stop-color="#3990e4" stop-opacity="1"/>
			<stop offset="0.59" stop-color="#4d99ea" stop-opacity="1"/>
			<stop offset="0.8" stop-color="#5a9eee" stop-opacity="1"/>
			<stop offset="1" stop-color="#5ea0ef" stop-opacity="1"/>
		</linearGradient>
		<linearGradient id="grad0-17" x1="0" y1="0" x2="1" y2="0" gradientTransform="rotate(-90.552916120298 0.5 0.5)">
			<stop offset="0" stop-color="#d2ebff" stop-opacity="1"/>
			<stop offset="1" stop-color="#f0fffd" stop-opacity="1"/>
		</linearGradient>
	</defs>
	<g>
		<title>Page-1</title>
		<g id="group19563-1" transform="translate(5.66929,-34.0157)">
			<title>Azure Percept Device.19563</title>
			<g id="shape19564-2" transform="translate(-2.8777E-13,-11.5804)">
				<title>rect25</title>
				<path d="M0 82.2 A1.88981 1.70723 -180 0 0 1.89 83.91 L50.65 83.91 A1.88981 1.70723 -180 0 0 52.54 82.2 L52.54 51.84
							 A1.88981 1.70723 -180 0 0 50.65 50.13 L1.89 50.13 A1.88981 1.70723 -180 0 0 0 51.84 L0 82.2 Z"
						class="st1"/>
			</g>
			<g id="shape19565-4" transform="translate(3.05512,-14.255)">
				<title>rect27</title>
				<path d="M0 83.05 a0.944904 0.853614 -180 0 0 0.944882 0.853595 L45.48 83.91 a0.944904 0.853614 -180 0 0 0.944882
							 -0.853595 L46.43 56.02 a0.944904 0.853614 -180 0 0 -0.944882 -0.853595 L0.94 55.17 a0.944904 0.853614
							 -180 0 0 -0.944882 0.853595 L0 83.05 Z" class="st2"/>
			</g>
			<g id="shape19566-8" transform="translate(32.4409,2.27374E-13)">
				<title>rect29</title>
				<path d="M0 83.05 a0.944904 0.853614 -180 0 0 0.944882 0.853595 L23.31 83.91 a0.944904 0.853614 -180 0 0 0.944882
							 -0.853595 L24.25 48.2 a0.944904 0.853614 -180 0 0 -0.944882 -0.853595 L0.94 47.34 a0.944904 0.853614
							 -180 0 0 -0.944882 0.853595 L0 83.05 Z" class="st3"/>
			</g>
			<g id="shape19567-12" transform="translate(41.7953,-34.6559)">
				<title>rect31</title>
				<path d="M0 83.59 a0.346465 0.312992 -180 0 0 0.346457 0.312985 L5.23 83.91 a0.346465 0.312992 -180 0 0 0.346457
							 -0.312985 L5.57 83.54 a0.346465 0.312992 -180 0 0 -0.346457 -0.312985 L0.35 83.22 a0.346465 0.312992
							 -180 0 0 -0.346457 0.312985 L0 83.59 Z" class="st4"/>
			</g>
			<g id="shape19568-14" transform="translate(34.7402,-4.09726)">
				<title>rect33</title>
				<path d="M-0 83.51 a0.440955 0.398353 -180 0 0 0.440945 0.398344 L19.24 83.91 a0.440955 0.398353 -180 0 0 0.440945
							 -0.398344 L19.69 54.91 a0.440955 0.398353 -180 0 0 -0.440945 -0.398344 L0.44 54.51 a0.440955 0.398353
							 -180 0 0 -0.440945 0.398344 L0 83.51 Z" class="st5"/>
			</g>
			<g id="shape19569-18" transform="translate(23.5591,-43.6187)">
				<title>rect35</title>
				<path d="M0 83.59 a0.346465 0.312992 -180 0 0 0.346457 0.312985 L5.23 83.91 a0.346465 0.312992 -180 0 0 0.346457
							 -0.312985 L5.57 83.54 a0.346465 0.312992 -180 0 0 -0.346457 -0.312985 L0.35 83.22 a0.346465 0.312992
							 -180 0 0 -0.346457 0.312985 L0 83.59 Z" class="st4"/>
			</g>
			<g id="shape19570-20" transform="translate(43.2126,-0.796688)">
				<title>rect37</title>
				<path d="M0 83.34 a0.629936 0.569076 -180 0 0 0.629921 0.569063 L2.08 83.91 a0.629936 0.569076 -180 0 0 0.629921
							 -0.569063 L2.71 82.4 a0.629936 0.569076 -180 0 0 -0.629921 -0.569063 L0.63 81.83 a0.629936 0.569076
							 -180 0 0 -0.629921 0.569063 L0 83.34 Z" class="st4"/>
			</g>
		</g>
	</g>
</svg>
