<?xml version="1.0" encoding="UTF-8" standalone="no"?>
<!DOCTYPE svg PUBLIC "-//W3C//DTD SVG 1.1//EN" "http://www.w3.org/Graphics/SVG/1.1/DTD/svg11.dtd">
<!-- Generated by Microsoft Visio, SVG Export Cognitive Services Text Analytics.svg Page-1 -->
<svg xmlns="http://www.w3.org/2000/svg" xmlns:xlink="http://www.w3.org/1999/xlink" xmlns:ev="http://www.w3.org/2001/xml-events"
		width="1.57437in" height="1.73206in" viewBox="0 0 113.354 124.709" xml:space="preserve" color-interpolation-filters="sRGB"
		class="st8">
	<style type="text/css">
	<![CDATA[
		.st1 {fill:#5ea0ef;stroke:none;stroke-linecap:butt;stroke-width:34}
		.st2 {fill:url(#grad0-8);stroke:none;stroke-linecap:butt;stroke-width:34}
		.st3 {fill:#0078d4;stroke:none;stroke-linecap:butt;stroke-width:34}
		.st4 {fill:#9cebff;stroke:none;stroke-linecap:butt;stroke-width:34}
		.st5 {fill:#9cebff;fill-opacity:0.8;stroke:none;stroke-linecap:butt;stroke-width:34}
		.st6 {fill:#9cebff;fill-opacity:0.6;stroke:none;stroke-linecap:butt;stroke-width:34}
		.st7 {fill:#ffffff;stroke:none;stroke-linecap:butt;stroke-width:34}
		.st8 {fill:none;fill-rule:evenodd;font-size:12px;overflow:visible;stroke-linecap:square;stroke-miterlimit:3}
	]]>
	</style>

	<defs id="Patterns_And_Gradients">
		<linearGradient id="grad0-8" x1="0" y1="0" x2="1" y2="0" gradientTransform="rotate(-90 0.5 0.5)">
			<stop offset="0" stop-color="#0078d4" stop-opacity="1"/>
			<stop offset="0.815" stop-color="#5ea0ef" stop-opacity="1"/>
		</linearGradient>
	</defs>
	<g>
		<title>Page-1</title>
		<g id="group17991-1" transform="translate(34,-34.0157)">
			<title>Cognitive Services Text Analytics.17991</title>
			<g id="group17992-2">
				<title>Sheet.17992</title>
				<g id="shape17993-3" transform="translate(0.33013,-0.422047)">
					<title>Sheet.17993</title>
					<path d="M25.5 68.86 L1.87 68.86 A1.86662 1.90551 -180 0 0 0 70.77 L0 122.8 A1.86662 1.90551 -180 0 0 1.87 124.71
								 L42.83 124.71 A1.86662 1.90551 -180 0 0 44.68 122.8 L44.68 88.37 A1.86662 1.90551 -180 0 0 42.83
								 86.46 L29.23 86.46 A1.86662 1.90551 0 0 1 27.38 84.55 L27.38 70.77 A1.8512 1.88976 -180 0 0 25.5
								 68.86 Z" class="st1"/>
				</g>
				<g id="shape17994-5">
					<title>Sheet.17994</title>
					<path d="M24.97 70.88 L24.97 83.94 A4.70204 4.8 -180 0 0 29.66 88.74 L42.56 88.74 L42.56 121.85 L2.8 121.85 L2.8
								 70.88 L24.97 70.88 ZM25.87 68.02 L1.89 68.02 A1.89439 1.93386 -180 0 0 0 69.95 L0 122.77 A1.89439
								 1.93386 -180 0 0 1.89 124.71 L43.46 124.71 A1.89439 1.93386 -180 0 0 45.35 122.77 L45.35 87.81 A1.89439
								 1.93386 -180 0 0 43.46 85.88 L29.66 85.88 A1.89439 1.93386 0 0 1 27.77 83.94 L27.77 69.95 A1.89439
								 1.93386 -180 0 0 25.87 68.02 Z" class="st2"/>
				</g>
				<g id="shape17995-9" transform="translate(27.1139,-38.4441)">
					<title>Sheet.17995</title>
					<path d="M17.52 124.71 L0 106.88 L0 121.41 A3.21183 3.27874 -180 0 0 3.19 124.71 L17.52 124.71 Z" class="st3"/>
				</g>
				<g id="shape17996-11" transform="translate(6.5193,-24.4882)">
					<title>Sheet.17996</title>
					<path d="M-0 123.63 A1.05212 1.07404 -180 0 0 1.05 124.71 L28.44 124.71 A1.05212 1.07404 -180 0 0 29.49 123.63
								 L29.49 123.6 A1.05212 1.07404 -180 0 0 28.44 122.53 L1.05 122.53 A1.05212 1.07404 -180 0 0 -0 123.6
								 L0 123.63 Z" class="st4"/>
				</g>
				<g id="shape17997-13" transform="translate(6.5193,-18.3496)">
					<title>Sheet.17997</title>
					<path d="M-0 123.63 A1.05212 1.07404 -180 0 0 1.05 124.71 L28.44 124.71 A1.05212 1.07404 -180 0 0 29.49 123.63
								 L29.49 123.6 A1.05212 1.07404 -180 0 0 28.44 122.53 L1.05 122.53 A1.05212 1.07404 -180 0 0 -0 123.6
								 L0 123.63 Z" class="st5"/>
				</g>
				<g id="shape17998-15" transform="translate(6.5193,-12.2079)">
					<title>Sheet.17998</title>
					<path d="M-0 123.63 A1.05212 1.07404 -180 0 0 1.05 124.71 L28.44 124.71 A1.05212 1.07404 -180 0 0 29.49 123.63
								 L29.49 123.6 A1.05212 1.07404 -180 0 0 28.44 122.53 L1.05 122.53 A1.05212 1.07404 -180 0 0 -0 123.6
								 L0 123.63 Z" class="st6"/>
				</g>
				<g id="shape17999-17" transform="translate(18.3577,-8.06929)">
					<title>Sheet.17999</title>
					<path d="M0.93 111.74 a0.925599 0.944882 0 0 1 -0.925599 -0.944882 L0 102.92 a0.925599 0.944882 0 0 1 0.925599
								 -0.944882 L8.64 101.97 a0.933312 0.952756 0 0 1 0 1.90551 L1.87 103.88 L1.87 110.79 a0.925599 0.944882
								 0 0 1 -0.941025 0.948031 ZM22.35 110.79 L22.35 102.92 a0.925599 0.944882 -180 0 0 -0.925599 -0.944882
								 L13.71 101.97 a0.933312 0.952756 -180 0 0 -1.24345E-14 1.90551 L20.48 103.88 L20.48 110.79 a0.934855
								 0.954331 -180 1 0 1.86971 1.42109E-14 L22.35 110.79 ZM22.35 123.76 L22.35 115.88 a0.934855 0.954331
								 -180 1 0 -1.86971 0 L20.48 122.79 L13.72 122.79 a0.925599 0.944882 -180 1 0 -1.24345E-14 1.88976
								 L21.44 124.68 a0.925599 0.944882 -180 0 0 0.922513 -0.929134 L22.35 123.76 ZM9.56 123.76 a0.925599
								 0.944882 -180 0 0 -0.925599 -0.944882 L1.87 122.81 L1.87 115.89 a0.933312 0.952756 -180 1 0 -1.86662
								 0 L0 123.76 a0.925599 0.944882 -180 0 0 0.925599 0.944882 L8.64 124.71 a0.925599 0.944882 -180 0
								 0 0.925599 -0.954331 L9.56 123.76 Z" class="st7"/>
				</g>
			</g>
		</g>
	</g>
</svg>
