<?xml version="1.0" encoding="UTF-8" standalone="no"?>
<!DOCTYPE svg PUBLIC "-//W3C//DTD SVG 1.1//EN" "http://www.w3.org/Graphics/SVG/1.1/DTD/svg11.dtd">
<!-- Generated by Microsoft Visio, SVG Export Cognitive Services Intelligence.svg Page-1 -->
<svg xmlns="http://www.w3.org/2000/svg" xmlns:xlink="http://www.w3.org/1999/xlink" xmlns:ev="http://www.w3.org/2001/xml-events"
		width="0.897638in" height="1.33858in" viewBox="0 0 64.6299 96.378" xml:space="preserve" color-interpolation-filters="sRGB"
		class="st2">
	<style type="text/css">
	<![CDATA[
		.st1 {fill:#389cd6;stroke:none;stroke-linecap:butt;stroke-width:5.31712}
		.st2 {fill:none;fill-rule:evenodd;font-size:12px;overflow:visible;stroke-linecap:square;stroke-miterlimit:3}
	]]>
	</style>

	<g>
		<title>Page-1</title>
		<g id="group18813-1" transform="translate(5.38583,-34.0157)">
			<title>Cognitive Services Intelligence.18813</title>
			<g id="group18814-2">
				<title>Sheet.18814</title>
				<g id="shape18815-3" transform="translate(16.4567,-23.3245)">
					<title>Sheet.18815</title>
					<path d="M0.94 93.52 C0.94 93.24 0.75 93.05 0.47 93.05 C0.19 93.05 0 93.24 0 93.52 L0 95.9 C0 96.19 0.19 96.38
								 0.47 96.38 C0.75 96.38 0.94 96.19 0.94 95.9 L0.94 93.52 Z" class="st1"/>
				</g>
				<g id="shape18816-5" transform="translate(20.5241,-35.2248)">
					<title>Sheet.18816</title>
					<path d="M0.47 93.05 C0.19 93.05 0 93.24 0 93.52 L0 95.9 C0 96.19 0.19 96.38 0.47 96.38 C0.75 96.38 0.94 96.19
								 0.94 95.9 L0.94 93.52 C0.94 93.24 0.7 93.05 0.47 93.05 Z" class="st1"/>
				</g>
				<g id="shape18817-7" transform="translate(20.5241,-39.9849)">
					<title>Sheet.18817</title>
					<path d="M0.47 93.05 C0.19 93.05 0 93.24 0 93.52 L0 95.9 C0 96.19 0.19 96.38 0.47 96.38 C0.75 96.38 0.94 96.19
								 0.94 95.9 L0.94 93.52 C0.94 93.24 0.7 93.05 0.47 93.05 Z" class="st1"/>
				</g>
				<g id="shape18818-9" transform="translate(16.4567,-28.0847)">
					<title>Sheet.18818</title>
					<path d="M0.47 96.38 C0.75 96.38 0.94 96.19 0.94 95.9 L0.94 93.52 C0.94 93.24 0.75 93.05 0.47 93.05 C0.19 93.05
								 0 93.24 0 93.52 L0 95.9 C0 96.19 0.19 96.38 0.47 96.38 Z" class="st1"/>
				</g>
				<g id="shape18819-11" transform="translate(20.5241,-16.0892)">
					<title>Sheet.18819</title>
					<path d="M0.47 96.38 C0.75 96.38 0.94 96.19 0.94 95.9 L0.94 93.52 C0.94 93.24 0.75 93.05 0.47 93.05 C0.19 93.05
								 0 93.24 0 93.52 L0 95.9 C0 96.14 0.19 96.38 0.47 96.38 Z" class="st1"/>
				</g>
				<g id="shape18820-13" transform="translate(17.2515,-32.3687)">
					<title>Sheet.18820</title>
					<path d="M0.51 96.38 C0.61 96.38 0.65 96.38 0.75 96.33 L2.76 95.14 C2.99 95 3.04 94.71 2.95 94.47 C2.81 94.24
								 2.52 94.19 2.29 94.28 L0.28 95.47 C0.05 95.62 0 95.9 0.09 96.14 C0.19 96.33 0.33 96.38 0.51 96.38
								 Z" class="st1"/>
				</g>
				<g id="shape18821-15" transform="translate(17.2982,-20.2305)">
					<title>Sheet.18821</title>
					<path d="M2.52 96.38 C2.66 96.38 2.85 96.28 2.95 96.14 C3.09 95.9 2.99 95.62 2.81 95.47 L0.79 94.24 C0.56 94.09
								 0.28 94.19 0.14 94.38 C0 94.62 0.09 94.9 0.28 95.05 L2.29 96.28 C2.34 96.38 2.43 96.38 2.52 96.38
								 Z" class="st1"/>
				</g>
				<g id="shape18822-17" transform="translate(18.1865,-43.317)">
					<title>Sheet.18822</title>
					<path d="M1.03 95.81 C1.5 96.19 2.01 96.38 2.62 96.38 C2.71 96.38 2.81 96.38 2.85 96.38 C4.21 96.24 5.24 95 5.1
								 93.62 C5.05 92.95 4.72 92.33 4.21 91.9 C3.69 91.48 3.04 91.28 2.38 91.33 C1.03 91.48 0 92.71 0.14
								 94.09 C0.19 94.76 0.51 95.38 1.03 95.81 ZM1.78 93.14 C1.96 92.9 2.2 92.76 2.52 92.76 C2.57 92.76
								 2.62 92.76 2.62 92.76 C2.85 92.76 3.09 92.86 3.32 93 C3.55 93.19 3.69 93.43 3.69 93.76 C3.74 94.38
								 3.32 94.9 2.71 94.95 C2.1 95 1.59 94.57 1.54 93.95 C1.5 93.66 1.59 93.38 1.78 93.14 Z" class="st1"/>
				</g>
				<g id="shape18823-19" transform="translate(18.2333,-8.6634)">
					<title>Sheet.18823</title>
					<path d="M4.16 91.9 C3.88 91.67 3.55 91.52 3.23 91.43 L3.23 90.81 C3.23 90.52 3.04 90.33 2.76 90.33 C2.48 90.33
								 2.29 90.52 2.29 90.81 L2.29 91.33 C0.94 91.48 0 92.71 0.09 94.09 C0.23 95.38 1.31 96.38 2.57 96.38
								 C2.66 96.38 2.76 96.38 2.81 96.38 C4.16 96.24 5.19 95 5.05 93.62 C4.96 92.95 4.68 92.33 4.16 91.9
								 ZM2.66 95 C2.38 95.05 2.1 94.95 1.87 94.76 C1.64 94.57 1.5 94.33 1.5 94 C1.5 93.66 1.54 93.43 1.73
								 93.19 C1.87 93 2.06 92.9 2.29 92.81 C2.34 92.81 2.43 92.76 2.48 92.76 C2.52 92.76 2.57 92.76 2.57
								 92.76 C2.81 92.76 3.04 92.86 3.23 93 C3.23 93 3.27 93 3.27 93.05 C3.51 93.24 3.65 93.47 3.65 93.81
								 C3.69 94.38 3.27 94.9 2.66 95 Z" class="st1"/>
				</g>
				<g id="shape18824-21">
					<title>Sheet.18824</title>
					<path d="M53.44 61.11 L46.28 56.82 L46.28 48.16 C46.28 47.92 46.14 47.68 45.96 47.54 L33.33 39.83 C33.1 39.69
								 32.82 39.69 32.63 39.83 L26.88 43.35 L21.18 39.83 C20.94 39.69 20.66 39.69 20.48 39.83 L7.85 47.54
								 C7.62 47.68 7.53 47.92 7.53 48.16 L7.53 56.82 L0.37 61.11 C0.14 61.25 0 61.49 0 61.72 L0 75.48 C0
								 75.72 0.14 75.96 0.33 76.1 L7.48 80.53 L7.48 87.33 C7.48 87.57 7.62 87.81 7.81 87.95 L21.41 96.28
								 C21.51 96.33 21.65 96.38 21.79 96.38 C21.93 96.38 22.07 96.33 22.21 96.24 L26.93 92.81 L31.65 96.24
								 C31.79 96.33 31.93 96.38 32.07 96.38 C32.21 96.38 32.31 96.33 32.45 96.28 L46.05 87.95 C46.28 87.81
								 46.38 87.57 46.38 87.33 L46.38 80.53 L53.53 76.1 C53.72 75.96 53.86 75.72 53.86 75.48 L53.86 61.72
								 C53.81 61.49 53.67 61.25 53.44 61.11 ZM21.74 94.81 L8.88 86.91 L8.88 80.53 L11.87 78.67 C12.3 79
								 12.86 79.24 13.42 79.24 C14.77 79.24 15.9 78.1 15.9 76.72 C15.9 75.34 14.77 74.2 13.42 74.2 C12.06
								 74.2 10.94 75.34 10.94 76.72 C10.94 77 10.99 77.24 11.08 77.48 L8.18 79.29 L1.4 75.1 L1.4 69.1 L5.66
								 69.1 C5.94 70.2 6.92 71.01 8.04 71.01 C9.4 71.01 10.52 69.86 10.52 68.48 C10.52 67.1 9.4 65.96 8.04
								 65.96 C6.97 65.96 6.03 66.67 5.7 67.67 L1.4 67.67 L1.4 62.15 L8.23 58.06 L11.08 59.82 C10.99 60.06
								 10.94 60.34 10.94 60.58 C10.94 61.96 12.06 63.1 13.42 63.1 C14.77 63.1 15.9 61.96 15.9 60.58 C15.9
								 59.2 14.77 58.06 13.42 58.06 C12.81 58.06 12.3 58.3 11.87 58.63 L8.88 56.82 L8.88 48.59 L20.8 41.3
								 L26.18 44.54 L26.18 67.86 L24.59 67.86 C24.31 66.77 23.33 65.96 22.21 65.96 C20.85 65.96 19.73 67.1
								 19.73 68.48 C19.73 69.86 20.85 71.01 22.21 71.01 C23.28 71.01 24.22 70.29 24.54 69.29 L26.18 69.29
								 L26.18 91.62 L21.74 94.81 ZM12.34 76.72 C12.34 76.72 12.34 76.72 12.34 76.72 C12.34 76.1 12.86 75.62
								 13.42 75.62 C14.03 75.62 14.49 76.1 14.49 76.72 C14.49 77.34 14.03 77.81 13.42 77.81 C13.37 77.81
								 13.32 77.81 13.23 77.81 C12.76 77.72 12.34 77.24 12.34 76.72 ZM6.97 68.48 C6.97 68.15 7.11 67.86
								 7.34 67.67 C7.53 67.48 7.81 67.39 8.09 67.39 C8.7 67.39 9.16 67.86 9.16 68.48 C9.16 69.1 8.7 69.58
								 8.09 69.58 C7.71 69.58 7.39 69.39 7.2 69.1 C7.06 68.91 6.97 68.72 6.97 68.48 ZM12.34 60.63 C12.34
								 60.06 12.76 59.63 13.28 59.53 C13.32 59.53 13.37 59.53 13.42 59.53 C14.03 59.53 14.49 60.01 14.49
								 60.63 C14.49 61.25 14.03 61.72 13.42 61.72 C12.86 61.72 12.34 61.25 12.34 60.63 C12.34 60.63 12.34
								 60.63 12.34 60.63 ZM23.28 68.48 C23.28 69.1 22.81 69.58 22.21 69.58 C21.6 69.58 21.13 69.1 21.13
								 68.48 C21.13 67.86 21.6 67.39 22.21 67.39 C22.81 67.39 23.28 67.86 23.28 68.48 ZM52.41 75.1 L45.63
								 79.29 L42.73 77.48 C42.82 77.24 42.87 76.96 42.87 76.72 C42.87 75.34 41.75 74.2 40.39 74.2 C39.04
								 74.2 37.92 75.34 37.92 76.72 C37.92 78.1 39.04 79.24 40.39 79.24 C41 79.24 41.52 79 41.94 78.67
								 L44.93 80.53 L44.93 86.95 L32.07 94.85 L27.63 91.62 L27.63 69.29 L29.27 69.29 C29.59 70.29 30.53
								 71.01 31.6 71.01 C32.96 71.01 34.08 69.86 34.08 68.48 C34.08 67.1 32.96 65.96 31.6 65.96 C30.44
								 65.96 29.45 66.77 29.22 67.86 L27.63 67.86 L27.63 44.54 L32.96 41.26 L44.88 48.54 L44.88 56.77 L41.89
								 58.63 C41.47 58.3 40.91 58.06 40.35 58.06 C38.99 58.06 37.87 59.2 37.87 60.58 C37.87 61.96 38.99
								 63.1 40.35 63.1 C41.7 63.1 42.82 61.96 42.82 60.58 C42.82 60.3 42.78 60.06 42.68 59.82 L45.54 58.06
								 L52.36 62.15 L52.36 67.67 L48.01 67.67 C47.69 66.67 46.75 65.96 45.68 65.96 C44.32 65.96 43.2 67.1
								 43.2 68.48 C43.2 69.86 44.32 71.01 45.68 71.01 C46.85 71.01 47.83 70.2 48.06 69.1 L52.32 69.1 L52.32
								 75.1 L52.41 75.1 ZM41.47 76.72 C41.47 77.29 41.05 77.72 40.53 77.81 C40.49 77.81 40.44 77.81 40.35
								 77.81 C39.74 77.81 39.27 77.34 39.27 76.72 C39.27 76.1 39.74 75.62 40.35 75.62 C40.95 75.58 41.42
								 76.1 41.47 76.72 C41.47 76.72 41.47 76.72 41.47 76.72 ZM30.53 68.48 C30.53 67.86 31 67.39 31.6 67.39
								 C32.21 67.39 32.68 67.86 32.68 68.48 C32.68 69.1 32.21 69.58 31.6 69.58 C31 69.58 30.53 69.1 30.53
								 68.48 ZM41.47 60.63 C41.47 60.63 41.47 60.63 41.47 60.63 C41.47 61.25 41 61.72 40.39 61.72 C39.79
								 61.72 39.32 61.25 39.32 60.63 C39.32 60.01 39.79 59.53 40.39 59.53 C40.44 59.53 40.49 59.53 40.53
								 59.53 C41.05 59.63 41.47 60.06 41.47 60.63 ZM46.8 68.48 C46.8 68.72 46.75 68.91 46.61 69.1 C46.42
								 69.39 46.1 69.58 45.72 69.58 C45.12 69.58 44.65 69.1 44.65 68.48 C44.65 67.86 45.12 67.39 45.72
								 67.39 C46 67.39 46.24 67.48 46.47 67.67 C46.66 67.86 46.8 68.15 46.8 68.48 Z" class="st1"/>
				</g>
				<g id="shape18825-23" transform="translate(32.3524,-16.0892)">
					<title>Sheet.18825</title>
					<path d="M0.47 96.38 C0.75 96.38 0.94 96.19 0.94 95.9 L0.94 93.52 C0.94 93.24 0.75 93.05 0.47 93.05 C0.19 93.05
								 0 93.24 0 93.52 L0 95.9 C0 96.14 0.23 96.38 0.47 96.38 Z" class="st1"/>
				</g>
				<g id="shape18826-25" transform="translate(32.3524,-35.2248)">
					<title>Sheet.18826</title>
					<path d="M0.47 93.05 C0.19 93.05 0 93.24 0 93.52 L0 95.9 C0 96.19 0.19 96.38 0.47 96.38 C0.75 96.38 0.94 96.19
								 0.94 95.9 L0.94 93.52 C0.94 93.24 0.75 93.05 0.47 93.05 Z" class="st1"/>
				</g>
				<g id="shape18827-27" transform="translate(32.3524,-39.9849)">
					<title>Sheet.18827</title>
					<path d="M0.47 93.05 C0.19 93.05 0 93.24 0 93.52 L0 95.9 C0 96.19 0.19 96.38 0.47 96.38 C0.75 96.38 0.94 96.19
								 0.94 95.9 L0.94 93.52 C0.94 93.24 0.75 93.05 0.47 93.05 Z" class="st1"/>
				</g>
				<g id="shape18828-29" transform="translate(36.4198,-23.3245)">
					<title>Sheet.18828</title>
					<path d="M0.47 93.05 C0.19 93.05 0 93.24 0 93.52 L0 95.9 C0 96.19 0.19 96.38 0.47 96.38 C0.75 96.38 0.94 96.19
								 0.94 95.9 L0.94 93.52 C0.94 93.28 0.7 93.05 0.47 93.05 Z" class="st1"/>
				</g>
				<g id="shape18829-31" transform="translate(36.4198,-28.0847)">
					<title>Sheet.18829</title>
					<path d="M0.47 93.05 C0.19 93.05 0 93.24 0 93.52 L0 95.9 C0 96.19 0.19 96.38 0.47 96.38 C0.75 96.38 0.94 96.19
								 0.94 95.9 L0.94 93.52 C0.94 93.28 0.7 93.05 0.47 93.05 Z" class="st1"/>
				</g>
				<g id="shape18830-33" transform="translate(33.4277,-20.1829)">
					<title>Sheet.18830</title>
					<path d="M2.29 94.24 L0.28 95.47 C0.05 95.62 0 95.9 0.14 96.14 C0.23 96.28 0.37 96.38 0.56 96.38 C0.65 96.38
								 0.75 96.38 0.79 96.33 L2.81 95.09 C3.04 94.95 3.09 94.66 2.95 94.43 C2.81 94.14 2.52 94.09 2.29
								 94.24 Z" class="st1"/>
				</g>
				<g id="shape18831-35" transform="translate(33.4744,-32.3687)">
					<title>Sheet.18831</title>
					<path d="M2.57 96.38 C2.71 96.38 2.9 96.28 2.99 96.14 C3.13 95.9 3.04 95.62 2.81 95.47 L0.79 94.28 C0.56 94.14
								 0.28 94.24 0.14 94.47 C0 94.71 0.09 95 0.33 95.14 L2.34 96.33 C2.38 96.38 2.48 96.38 2.57 96.38
								 Z" class="st1"/>
				</g>
				<g id="shape18832-37" transform="translate(30.3888,-43.317)">
					<title>Sheet.18832</title>
					<path d="M5.1 94.09 C5.14 93.43 4.96 92.76 4.53 92.24 C4.11 91.71 3.51 91.38 2.85 91.33 C1.5 91.19 0.28 92.19
								 0.14 93.62 C0 95.05 0.98 96.24 2.38 96.38 C2.48 96.38 2.57 96.38 2.62 96.38 C3.18 96.38 3.74 96.19
								 4.21 95.81 C4.68 95.38 5 94.76 5.1 94.09 ZM3.27 94.71 C3.09 94.85 2.81 94.95 2.48 94.95 C2.2 94.9
								 1.92 94.76 1.73 94.57 C1.54 94.33 1.45 94.05 1.5 93.76 C1.54 93.47 1.68 93.19 1.87 93 C2.06 92.86
								 2.29 92.76 2.57 92.76 C2.62 92.76 2.66 92.76 2.66 92.76 C3.27 92.81 3.69 93.38 3.65 93.95 C3.65
								 94.24 3.51 94.52 3.27 94.71 Z" class="st1"/>
				</g>
				<g id="shape18833-39" transform="translate(30.3888,-8.6158)">
					<title>Sheet.18833</title>
					<path d="M2.9 91.33 L2.9 90.81 C2.9 90.52 2.71 90.33 2.43 90.33 C2.15 90.33 1.96 90.52 1.96 90.81 L1.96 91.43
								 C1.64 91.52 1.31 91.67 1.03 91.9 C0.51 92.33 0.19 92.95 0.14 93.62 C0 95 0.98 96.24 2.38 96.38 C2.48
								 96.38 2.57 96.38 2.62 96.38 C3.18 96.38 3.74 96.19 4.21 95.81 C4.72 95.38 5.05 94.76 5.1 94.09 C5.14
								 93.43 4.96 92.76 4.53 92.24 C4.11 91.71 3.55 91.38 2.9 91.33 ZM2.48 94.95 C2.2 94.9 1.92 94.76 1.73
								 94.57 C1.54 94.33 1.45 94.05 1.5 93.76 C1.54 93.43 1.68 93.14 1.92 93 C2.1 92.86 2.34 92.76 2.57
								 92.76 C2.62 92.76 2.66 92.76 2.66 92.76 C2.71 92.76 2.81 92.76 2.85 92.81 C3.37 92.95 3.69 93.43
								 3.65 94 C3.6 94.28 3.46 94.57 3.27 94.76 C3.09 94.85 2.81 94.95 2.48 94.95 Z" class="st1"/>
				</g>
			</g>
		</g>
	</g>
</svg>
