<?xml version="1.0" encoding="UTF-8" standalone="no"?>
<!DOCTYPE svg PUBLIC "-//W3C//DTD SVG 1.1//EN" "http://www.w3.org/Graphics/SVG/1.1/DTD/svg11.dtd">
<!-- Generated by Microsoft Visio, SVG Export Cognitive Services Ink Recogniser.svg Page-1 -->
<svg xmlns="http://www.w3.org/2000/svg" xmlns:xlink="http://www.w3.org/1999/xlink" xmlns:ev="http://www.w3.org/2001/xml-events"
		width="1.06609in" height="1.39348in" viewBox="0 0 76.7585 100.331" xml:space="preserve" color-interpolation-filters="sRGB"
		class="st2">
	<style type="text/css">
	<![CDATA[
		.st1 {fill:#0078d4;stroke:none;stroke-linecap:butt;stroke-width:10.0328}
		.st2 {fill:none;fill-rule:evenodd;font-size:12px;overflow:visible;stroke-linecap:square;stroke-miterlimit:3}
	]]>
	</style>

	<g>
		<title>Page-1</title>
		<g id="group15614-1" transform="translate(10.0328,-34.0157)">
			<title>Cognitive Services Ink Recogniser.15614</title>
			<g id="shape15615-2" transform="translate(16.6226,0)">
				<title>Sheet.15615</title>
				<path d="M31.21 45.81 L28.21 44.36 C26.74 43.64 24.97 44.22 24.19 45.64 L23.07 47.73 C22.27 47.44 21.35 47.77 20.96
							 48.55 L18.94 52.5 L16.82 51.45 C15.25 50.67 13.32 51.29 12.55 52.84 L5.79 66.18 C5.37 66.99 5.7 67.99
							 6.52 68.4 C7.36 68.84 8.4 68.51 8.83 67.68 L15.53 54.66 L17.37 55.58 L1.2 87.36 L1.18 92.37 C1.18 93.27
							 1.46 94.08 1.93 94.76 L0.43 97.59 C0 98.43 0.34 99.47 1.2 99.9 C2.05 100.33 3.09 99.99 3.52 99.15 L4.86
							 96.56 C5.68 96.67 6.54 96.56 7.36 96.15 L12.69 93.52 L32.54 54.27 C32.96 53.44 32.64 52.46 31.82 52.03
							 L32.73 50.13 C33.51 48.52 32.82 46.59 31.21 45.81 ZM10.08 90.9 L5.82 93.09 C5.31 93.35 4.69 92.98 4.69
							 92.41 L4.66 88.26 L23.24 51.66 L28.66 54.34 L10.08 90.9 ZM28.68 50.47 L26.21 49.26 L27.03 47.63 L29.52
							 48.86 L28.68 50.47 Z" class="st1"/>
			</g>
			<g id="shape15616-4" transform="translate(41.7712,-21.267)">
				<title>Sheet.15616</title>
				<path d="M7.93 86.41 C7 86.43 6.24 87.19 6.24 88.11 C6.24 89.04 7.02 89.81 7.97 89.81 C8.01 89.81 8.07 89.81 8.12
							 89.79 C10 89.92 11.49 91.45 11.49 93.33 C11.49 95.28 9.89 96.87 7.92 96.89 L1.77 96.89 L0 100.33 L7.92
							 100.33 C11.79 100.32 14.92 97.16 14.92 93.33 C14.92 89.5 11.8 86.43 7.93 86.41 Z" class="st1"/>
			</g>
			<g id="shape15617-6" transform="translate(2.79776E-13,-0.288502)">
				<title>Sheet.15617</title>
				<path d="M13.73 96.87 L12.47 96.87 C7.56 96.87 3.57 92.95 3.57 88.09 C3.57 83.26 7.56 79.32 12.47 79.32 L16.91 79.32
							 L18.71 75.89 L12.39 75.89 C5.54 75.89 0 81.36 0 88.11 C0 94.86 5.54 100.33 12.39 100.33 L13.73 100.33
							 C13.48 99.81 13.35 99.23 13.35 98.6 C13.34 97.99 13.48 97.41 13.73 96.87 Z" class="st1"/>
			</g>
		</g>
	</g>
</svg>
