<?xml version="1.0" encoding="UTF-8" standalone="no"?>
<!DOCTYPE svg PUBLIC "-//W3C//DTD SVG 1.1//EN" "http://www.w3.org/Graphics/SVG/1.1/DTD/svg11.dtd">
<!-- Generated by Microsoft Visio, SVG Export Cognitive Services Text Translator.svg Page-1 -->
<svg xmlns="http://www.w3.org/2000/svg" xmlns:xlink="http://www.w3.org/1999/xlink" xmlns:ev="http://www.w3.org/2001/xml-events"
		width="1.06609in" height="1.39919in" viewBox="0 0 76.7585 100.741" xml:space="preserve" color-interpolation-filters="sRGB"
		class="st2">
	<style type="text/css">
	<![CDATA[
		.st1 {fill:#0078d4;stroke:none;stroke-linecap:butt;stroke-width:10.0328}
		.st2 {fill:none;fill-rule:evenodd;font-size:12px;overflow:visible;stroke-linecap:square;stroke-miterlimit:3}
	]]>
	</style>

	<g>
		<title>Page-1</title>
		<g id="group10136-1" transform="translate(10.0328,-34.0157)">
			<title>Cognitive Services Text Translator.10136</title>
			<g id="shape10137-2" transform="translate(-2.8777E-13,-0.704953)">
				<title>Sheet.10137</title>
				<path d="M11.27 76.57 C8.7 76.57 6.2 77.63 3.69 79.67 L2.32 80.79 L2.32 75.95 L2.63 75.71 C3.63 74.9 5.01 74.22 6.7
							 73.72 C8.39 73.17 9.96 72.92 11.46 72.92 C14.28 72.92 16.53 73.79 18.1 75.58 C19.66 77.32 20.41 79.86
							 20.41 83.08 L20.41 100.12 L16.53 100.12 L16.53 96.96 C15.84 97.77 15.09 98.45 14.21 99.07 C12.52 100.18
							 10.64 100.74 8.64 100.74 C6.01 100.74 3.94 100 2.38 98.51 C0.81 97.02 0 95.1 0 92.87 C0 88.04 3.26 85.13
							 9.45 84.2 L16.53 83.08 C16.34 78.62 14.65 76.57 11.27 76.57 ZM10.52 87.67 C8.01 88.04 6.26 88.6 5.32
							 89.34 C4.45 90.02 4.01 91.14 4.01 92.75 C4.01 93.99 4.45 95.04 5.26 95.85 C6.07 96.65 7.26 97.02 8.83
							 97.02 C11.02 97.02 12.84 96.22 14.28 94.61 C15.72 93 16.47 90.89 16.47 88.29 L16.47 86.8 L10.52 87.67
							 Z" class="st1"/>
			</g>
			<g id="shape10138-4" transform="translate(30.83,-2.84217E-13)">
				<title>Sheet.10138</title>
				<path d="M12.59 91.57 C12.96 91.2 13.27 90.76 13.52 90.39 L7.26 84.82 L23.1 83.95 C23.79 83.95 24.36 84.44 24.36
							 85.13 L25.23 100.74 L19.35 95.54 C14.09 100.06 6.07 100.18 0.75 95.41 C0.5 95.16 0.25 94.98 0 94.73
							 C4.32 96.22 9.33 95.1 12.59 91.57 Z" class="st1"/>
			</g>
			<g id="shape10139-6" transform="translate(2.81775E-13,-36.3785)">
				<title>Sheet.10139</title>
				<path d="M12.65 93.12 C12.27 93.49 11.96 93.92 11.71 94.3 L17.97 99.87 L2.13 100.74 C1.44 100.74 0.88 100.25 0.88
							 99.56 L0 83.95 L5.89 89.15 C11.15 84.63 19.16 84.51 24.48 89.28 C24.73 89.53 24.98 89.71 25.23 89.96
							 C20.91 88.47 15.9 89.53 12.65 93.12 Z" class="st1"/>
			</g>
			<g id="shape10140-8" transform="translate(28.4541,-26.5142)">
				<title>Sheet.10140</title>
				<path d="M26.55 74.47 L27.36 74.4 L27.55 77.63 L26.74 77.69 C23.04 77.94 18.35 78.12 12.52 78.18 C12.46 79.11 12.4
							 80.17 12.33 81.28 C13.71 81.04 15.15 80.85 16.78 80.85 C17.22 80.85 17.66 80.85 18.1 80.91 L18.6 78.87
							 L21.85 79.55 L21.66 80.35 C21.54 80.73 21.48 81.04 21.35 81.47 C22.48 81.84 23.48 82.34 24.42 83.02
							 C26.92 84.75 28.24 87.17 28.24 90.14 C28.24 93.18 27.17 95.72 25.05 97.52 C23.1 99.13 20.29 100.25 16.72
							 100.68 L16.09 100.74 L14.78 97.64 L15.84 97.52 C18.78 97.15 20.98 96.34 22.48 95.04 C23.98 93.74 24.73
							 92.13 24.73 90.14 C24.73 88.16 23.86 86.67 22.17 85.5 C21.6 85.13 21.04 84.82 20.41 84.63 C19.41 87.54
							 18.22 90.02 16.84 92.19 C13.84 96.84 10.14 99.25 5.76 99.25 C3.94 99.25 2.5 98.7 1.5 97.58 C0.5 96.53
							 0 95.04 0 93.18 C0 89.9 1.57 87.05 4.7 84.63 C5.95 83.64 7.33 82.83 8.77 82.27 C8.83 80.85 8.89 79.49
							 9.02 78.18 C8.27 78.18 7.39 78.18 5.82 78.18 C3.76 78.18 2.69 78.18 1.38 78.18 L0.56 78.18 L0.56 74.9
							 L1.38 74.9 C2.69 74.9 3.76 74.9 5.89 74.9 C7.64 74.9 8.52 74.9 9.33 74.9 C9.45 73.79 9.64 72.67 9.89
							 71.37 L10.08 70.56 L13.46 71.31 L13.27 72.11 C13.09 73.04 12.9 73.91 12.77 74.9 C18.47 74.84 23.04 74.65
							 26.55 74.47 ZM16.78 84.13 C15.15 84.13 13.65 84.32 12.27 84.63 L12.27 84.69 C12.27 87.54 12.46 90.08
							 12.77 92.31 C13.21 91.82 13.65 91.2 14.03 90.58 C15.28 88.66 16.28 86.55 17.09 84.13 C17.03 84.13 16.91
							 84.13 16.78 84.13 ZM7.01 87.23 C4.7 89.03 3.51 91.07 3.51 93.24 C3.51 95.29 4.2 96.09 5.82 96.09 C7.14
							 96.09 8.45 95.72 9.71 94.98 C9.2 92.38 8.89 89.34 8.83 85.93 C8.2 86.36 7.58 86.74 7.01 87.23 Z"
						class="st1"/>
			</g>
		</g>
	</g>
</svg>
