<?xml version="1.0" encoding="UTF-8" standalone="no"?>
<!DOCTYPE svg PUBLIC "-//W3C//DTD SVG 1.1//EN" "http://www.w3.org/Graphics/SVG/1.1/DTD/svg11.dtd">
<!-- Generated by Microsoft Visio, SVG Export Cognitive Services Bot.svg Page-1 -->
<svg xmlns="http://www.w3.org/2000/svg" xmlns:xlink="http://www.w3.org/1999/xlink" xmlns:ev="http://www.w3.org/2001/xml-events"
		width="0.944882in" height="1.33858in" viewBox="0 0 68.0315 96.378" xml:space="preserve" color-interpolation-filters="sRGB"
		class="st5">
	<style type="text/css">
	<![CDATA[
		.st1 {fill:none}
		.st2 {stroke:#50e6ff;stroke-linecap:butt;stroke-width:0.75}
		.st3 {fill:#50e6ff;stroke:none;stroke-linecap:butt;stroke-width:0.75}
		.st4 {fill:#0078d4;stroke:none;stroke-linecap:butt;stroke-width:0.75}
		.st5 {fill:none;fill-rule:evenodd;font-size:12px;overflow:visible;stroke-linecap:square;stroke-miterlimit:3}
	]]>
	</style>

	<g>
		<title>Page-1</title>
		<g id="group19449-1" transform="translate(5.66929,-34.0157)">
			<title>Cognitive Services Bot.19449</title>
			<g id="shape19450-2" transform="translate(2.66959,-2.65748)">
				<title>Sheet.19450</title>
				<path d="M0 45 L51.37 96.38 L0 45 Z" class="st1"/>
				<path d="M0 45 L51.37 96.38" class="st2"/>
			</g>
			<g id="shape19451-5" transform="translate(2.65748,-2.65748)">
				<title>Sheet.19451</title>
				<path d="M0 96.38 L51.38 45 L0 96.38 Z" class="st1"/>
				<path d="M0 96.38 L51.38 45" class="st2"/>
			</g>
			<g id="shape19452-8" transform="translate(2.65748,-28.3597)">
				<title>Sheet.19452</title>
				<path d="M0 96.38 L51.38 96.38 L0 96.38 Z" class="st1"/>
				<path d="M0 96.38 L51.38 96.38" class="st2"/>
			</g>
			<g id="shape19453-11" transform="translate(28.3414,-2.6576)">
				<title>Sheet.19453</title>
				<path d="M0 44.94 L0 96.38 L0 44.94 Z" class="st1"/>
				<path d="M0 44.94 L0 96.38" class="st2"/>
			</g>
			<g id="shape19454-14" transform="translate(2.65748,-2.65748)">
				<title>Sheet.19454</title>
				<path d="M0 96.38 L51.38 70.68 L0 96.38 Z" class="st1"/>
				<path d="M0 96.38 L51.38 70.68" class="st2"/>
			</g>
			<g id="shape19455-17" transform="translate(2.65748,-2.65748)">
				<title>Sheet.19455</title>
				<path d="M51.38 96.38 L0 70.68 L51.38 96.38 Z" class="st1"/>
				<path d="M51.38 96.38 L0 70.68" class="st2"/>
			</g>
			<g id="shape19456-20" transform="translate(2.66959,-28.3597)">
				<title>Sheet.19456</title>
				<path d="M0 70.7 L51.37 96.38 L0 70.7 Z" class="st1"/>
				<path d="M0 70.7 L51.37 96.38" class="st2"/>
			</g>
			<g id="shape19457-23" transform="translate(2.65748,-28.3597)">
				<title>Sheet.19457</title>
				<path d="M51.38 70.7 L0 96.38 L51.38 70.7 Z" class="st1"/>
				<path d="M51.38 70.7 L0 96.38" class="st2"/>
			</g>
			<g id="shape19458-26" transform="translate(28.3465,-28.3597)">
				<title>Sheet.19458</title>
				<path d="M0 70.7 L25.69 96.38 L0 70.7 Z" class="st1"/>
				<path d="M0 70.7 L25.69 96.38" class="st2"/>
			</g>
			<g id="shape19459-29" transform="translate(2.65748,-28.3599)">
				<title>Sheet.19459</title>
				<path d="M25.68 70.64 L0 96.38 L25.68 70.64 Z" class="st1"/>
				<path d="M25.68 70.64 L0 96.38" class="st2"/>
			</g>
			<g id="shape19460-32" transform="translate(28.3465,-2.65748)">
				<title>Sheet.19460</title>
				<path d="M0 96.38 L25.69 70.68 L0 96.38 Z" class="st1"/>
				<path d="M0 96.38 L25.69 70.68" class="st2"/>
			</g>
			<g id="shape19461-35" transform="translate(2.54675,-2.6576)">
				<title>Sheet.19461</title>
				<path d="M25.8 96.38 L0 70.63 L25.8 96.38 Z" class="st1"/>
				<path d="M25.8 96.38 L0 70.63" class="st2"/>
			</g>
			<g id="shape19462-38" transform="translate(0,-51.378)">
				<title>Sheet.19462</title>
				<path d="M5.31 93.72 C5.31 95.19 4.12 96.38 2.66 96.38 C1.19 96.38 0 95.19 0 93.72 C0 92.25 1.19 91.06 2.66 91.06
							 C4.12 91.06 5.31 92.25 5.31 93.72 Z" class="st3"/>
			</g>
			<g id="shape19463-40" transform="translate(0,-25.7022)">
				<title>Sheet.19463</title>
				<path d="M5.31 93.72 C5.31 95.19 4.12 96.38 2.66 96.38 C1.19 96.38 0 95.19 0 93.72 C0 92.25 1.19 91.06 2.66 91.06
							 C4.12 91.06 5.31 92.25 5.31 93.72 Z" class="st4"/>
			</g>
			<g id="shape19464-42">
				<title>Sheet.19464</title>
				<path d="M5.31 93.72 C5.31 95.19 4.12 96.38 2.66 96.38 C1.19 96.38 0 95.19 0 93.72 C0 92.25 1.19 91.06 2.66 91.06
							 C4.12 91.06 5.31 92.25 5.31 93.72 Z" class="st4"/>
			</g>
			<g id="shape19465-44" transform="translate(25.689,-51.378)">
				<title>Sheet.19465</title>
				<path d="M5.31 93.72 C5.31 95.19 4.12 96.38 2.66 96.38 C1.19 96.38 0 95.19 0 93.72 C0 92.25 1.19 91.06 2.66 91.06
							 C4.12 91.06 5.31 92.25 5.31 93.72 Z" class="st4"/>
			</g>
			<g id="shape19466-46" transform="translate(25.689,-25.689)">
				<title>Sheet.19466</title>
				<path d="M5.31 93.72 C5.31 95.19 4.12 96.38 2.66 96.38 C1.19 96.38 0 95.19 0 93.72 C0 92.25 1.19 91.06 2.66 91.06
							 C4.12 91.06 5.31 92.25 5.31 93.72 Z" class="st3"/>
			</g>
			<g id="shape19467-48" transform="translate(25.689,0)">
				<title>Sheet.19467</title>
				<path d="M5.31 93.72 C5.31 95.19 4.12 96.38 2.66 96.38 C1.19 96.38 0 95.19 0 93.72 C0 92.25 1.19 91.06 2.66 91.06
							 C4.12 91.06 5.31 92.25 5.31 93.72 Z" class="st4"/>
			</g>
			<g id="shape19468-50" transform="translate(51.378,-51.378)">
				<title>Sheet.19468</title>
				<path d="M5.31 93.72 C5.31 95.19 4.12 96.38 2.66 96.38 C1.19 96.38 0 95.19 0 93.72 C0 92.25 1.19 91.06 2.66 91.06
							 C4.12 91.06 5.31 92.25 5.31 93.72 Z" class="st4"/>
			</g>
			<g id="shape19469-52" transform="translate(51.378,-25.7022)">
				<title>Sheet.19469</title>
				<path d="M5.31 93.72 C5.31 95.19 4.12 96.38 2.66 96.38 C1.19 96.38 0 95.19 0 93.72 C0 92.25 1.19 91.06 2.66 91.06
							 C4.12 91.06 5.31 92.25 5.31 93.72 Z" class="st4"/>
			</g>
			<g id="shape19470-54" transform="translate(51.378,0)">
				<title>Sheet.19470</title>
				<path d="M5.31 93.72 C5.31 95.19 4.12 96.38 2.66 96.38 C1.19 96.38 0 95.19 0 93.72 C0 92.25 1.19 91.06 2.66 91.06
							 C4.12 91.06 5.31 92.25 5.31 93.72 Z" class="st3"/>
			</g>
		</g>
	</g>
</svg>
