<?xml version="1.0" encoding="UTF-8" standalone="no"?>
<!DOCTYPE svg PUBLIC "-//W3C//DTD SVG 1.1//EN" "http://www.w3.org/Graphics/SVG/1.1/DTD/svg11.dtd">
<!-- Generated by Microsoft Visio, SVG Export Cognitive Services Content Moderator.svg Page-1 -->
<svg xmlns="http://www.w3.org/2000/svg" xmlns:xlink="http://www.w3.org/1999/xlink" xmlns:ev="http://www.w3.org/2001/xml-events"
		width="1.02672in" height="1.39919in" viewBox="0 0 73.9238 100.741" xml:space="preserve" color-interpolation-filters="sRGB"
		class="st2">
	<style type="text/css">
	<![CDATA[
		.st1 {fill:#0078d4;stroke:none;stroke-linecap:butt;stroke-width:10.0328}
		.st2 {fill:none;fill-rule:evenodd;font-size:12px;overflow:visible;stroke-linecap:square;stroke-miterlimit:3}
	]]>
	</style>

	<g>
		<title>Page-1</title>
		<g id="group9472-1" transform="translate(10.0328,-34.0157)">
			<title>Cognitive Services Content Moderator.9472</title>
			<g id="shape9473-2">
				<title>Sheet.9473</title>
				<path d="M49.68 67.54 C49.68 79.47 38.96 94.01 26.87 96.55 C14.77 94.01 4.05 79.47 4.05 67.54 L4.05 55.54 C4.24 55.35
							 4.43 55.16 4.74 54.97 C5.86 54.08 7.17 53.13 8.85 52.24 C13.59 49.7 19.57 48.17 26.87 48.17 C34.16 48.17
							 40.14 49.7 44.88 52.24 C46.5 53.13 47.87 54.02 49 54.97 C49.25 55.16 49.49 55.41 49.68 55.54 L49.68
							 67.54 ZM53.36 53.32 C53.05 52.94 52.49 52.43 51.68 51.73 C50.37 50.65 48.75 49.57 46.88 48.56 C41.58
							 45.7 34.91 44.05 26.93 44.05 C18.95 44.05 12.28 45.76 6.98 48.56 C5.11 49.57 3.49 50.65 2.18 51.73 C1.37
							 52.43 0.81 52.94 0.5 53.32 L0 53.89 L0 67.47 C0 81.51 12.28 98.01 26.56 100.68 L26.93 100.74 L27.3 100.68
							 C41.58 97.95 53.86 81.44 53.86 67.47 L53.86 53.89 L53.36 53.32 Z" class="st1"/>
			</g>
			<g id="shape9474-4" transform="translate(23.1986,-11.5306)">
				<title>Sheet.9474</title>
				<path d="M3.68 93.38 C2.68 93.38 1.81 93.69 1.06 94.39 C0.37 95.09 0 95.98 0 97.06 C0 98.08 0.37 98.96 1 99.66 C1.68
							 100.36 2.56 100.74 3.62 100.74 C4.68 100.74 5.55 100.36 6.23 99.66 C6.92 98.96 7.23 98.08 7.23 97 C7.23
							 95.98 6.92 95.09 6.23 94.39 C5.61 93.76 4.74 93.38 3.68 93.38 Z" class="st1"/>
			</g>
			<g id="shape9475-6" transform="translate(24.3578,-22.9927)">
				<title>Sheet.9475</title>
				<path d="M0 100.74 L4.11 100.74 L4.11 76.49 L0 76.49 L0 100.74 Z" class="st1"/>
			</g>
		</g>
	</g>
</svg>
