<?xml version="1.0" encoding="UTF-8" standalone="no"?>
<!-- Generated by Microsoft Visio, SVG Export Machine Learning Studio.svg Page-1 -->
<svg xmlns:dc="http://purl.org/dc/elements/1.1/" xmlns:cc="http://creativecommons.org/ns#" xmlns:rdf="http://www.w3.org/1999/02/22-rdf-syntax-ns#" xmlns:svg="http://www.w3.org/2000/svg" xmlns="http://www.w3.org/2000/svg" xmlns:sodipodi="http://sodipodi.sourceforge.net/DTD/sodipodi-0.dtd" xmlns:inkscape="http://www.inkscape.org/namespaces/inkscape" width="56.507594" height="56.909678" viewBox="0 0 56.507594 56.909678" xml:space="preserve" class="st5" version="1.1" id="svg47" sodipodi:docname="Machine Learning Studio.svg" style="font-size:12px;overflow:visible;color-interpolation-filters:sRGB;fill:none;fill-rule:evenodd;stroke-linecap:square;stroke-miterlimit:3" inkscape:version="0.92.5 (2060ec1f9f, 2020-04-08)">
  <metadata id="metadata51">
    <rdf:RDF>
      <cc:Work rdf:about="">
        <dc:format>image/svg+xml</dc:format>
        <dc:type rdf:resource="http://purl.org/dc/dcmitype/StillImage" />
      </cc:Work>
    </rdf:RDF>
  </metadata>
  <sodipodi:namedview pagecolor="#ffffff" bordercolor="#666666" borderopacity="1" objecttolerance="10" gridtolerance="10" guidetolerance="10" inkscape:pageopacity="0" inkscape:pageshadow="2" inkscape:window-width="640" inkscape:window-height="480" id="namedview49" showgrid="false" inkscape:zoom="1.4024619" inkscape:cx="37.673952" inkscape:cy="37.942291" inkscape:window-x="0" inkscape:window-y="0" inkscape:window-maximized="0" inkscape:current-layer="svg47" />
	<style type="text/css" id="style2">
	<![CDATA[
		.st1 {fill:#f2f2f2;stroke:none;stroke-linecap:butt;stroke-width:34.6502}
		.st2 {fill:#0078d4;stroke:none;stroke-linecap:butt;stroke-width:34.6502}
		.st3 {fill:url(#grad0-9);stroke:none;stroke-linecap:butt;stroke-width:34.6502}
		.st4 {fill:#ffffff;stroke:none;stroke-linecap:butt;stroke-width:34.6502}
		.st5 {fill:none;fill-rule:evenodd;font-size:12px;overflow:visible;stroke-linecap:square;stroke-miterlimit:3}
	]]>
	</style>

	<defs id="Patterns_And_Gradients">
		<linearGradient id="grad0-9" x1="0.36239813" y1="92.321592" x2="35.732951" y2="92.321592" gradientTransform="scale(1.0117435,0.98839282)" gradientUnits="userSpaceOnUse">
			<stop offset="0" stop-color="#32d4f5" stop-opacity="1" id="stop4" />
			<stop offset="0.32" stop-color="#31d1f3" stop-opacity="1" id="stop6" />
			<stop offset="0.53" stop-color="#2ec9eb" stop-opacity="1" id="stop8" />
			<stop offset="0.7" stop-color="#29bade" stop-opacity="1" id="stop10" />
			<stop offset="0.86" stop-color="#22a5cb" stop-opacity="1" id="stop12" />
			<stop offset="1" stop-color="#198ab3" stop-opacity="1" id="stop14" />
			<stop offset="1" stop-color="#198ab3" stop-opacity="1" id="stop16" />
		</linearGradient>
	</defs>
	<g id="g45" transform="translate(-34.649954,-34.650169)">
		<title id="title20">Page-1</title>
		<g id="group19147-1" transform="translate(34.2833,-34.6502)">
			<title id="title22">Machine Learning Studio.19147</title>
			<g id="shape19148-2" transform="translate(20.1054,-19.5177)">
				<title id="title24">path19</title>
				<path d="M 28.8,126.21 A 20.8413,20.9213 0 0 1 3.27,93.15 L 3.5,92.99 a 20.8413,20.9213 0 0 1 25.3,33.22 z" class="st1" id="path26" inkscape:connector-curvature="0" style="fill:#f2f2f2;stroke:none;stroke-width:34.65019989;stroke-linecap:butt" />
			</g>
			<g id="shape19149-4" transform="translate(18.0447,-18.0137)">
				<title id="title29">path21</title>
				<path d="M 34.72,95.69 A 20.8413,20.9213 -180 0 0 5.56,91.48 L 5.33,91.65 A 20.8413,20.9213 -180 0 0 30.86,124.7 20.9411,21.0216 -180 0 0 34.72,95.69 Z M 0,106.82 a 18.1446,18.2143 0 0 1 2.03,-7.08 h 5.03 a 35.7564,35.8938 -180 0 0 -0.97,7.08 z m 9.99,-7.08 h 6.92 v 7.08 H 8.79 a 30.7625,30.8807 0 0 1 1.06,-7.08 z m 9.59,0 h 6.92 a 30.7625,30.8807 0 0 1 1.07,7.08 h -7.99 z m -2.67,9.76 v 7.11 H 9.85 A 31.3285,31.4488 0 0 1 8.79,109.5 Z m 2.67,0 h 7.99 a 31.3285,31.4488 0 0 1 -1.07,7.11 h -7.06 z m 10.68,0 h 6.06 a 18.8437,18.9161 0 0 1 -2,7.11 h -5.19 a 33.7256,33.8551 -180 0 0 1,-7.11 z m 0,-2.68 a 33.2928,33.4207 -180 0 0 -1,-7.08 h 5.06 a 17.8449,17.9135 0 0 1 2,7.08 z m 2.37,-9.79 h -4.3 a 20.6748,20.7542 -180 0 0 -2.93,-5.55 18.311,18.3814 0 0 1 7.09,5.55 z m -7.06,0 h -5.99 v -6.68 a 10.8867,10.9286 0 0 1 5.86,6.68 z m -8.66,-6.68 v 6.68 h -6.12 a 10.8867,10.9286 0 0 1 5.99,-6.82 z m -9.92,3.4 a 17.7783,17.8466 0 0 1 3.66,-2.13 20.1754,20.2529 -180 0 0 -2.76,5.41 H 3.73 A 16.8128,16.8774 0 0 1 6.99,93.75 Z M 0,109.5 h 6.09 a 36.0893,36.228 -180 0 0 0.97,7.11 H 2.03 A 17.512,17.5793 0 0 1 0,109.5 Z m 3.76,10.02 h 4.13 a 20.3752,20.4534 -180 0 0 2.93,5.58 18.1113,18.1808 0 0 1 -7.06,-5.74 z m 7.03,0 h 5.99 v 6.69 a 10.8867,10.9286 0 0 1 -5.99,-6.92 z m 8.65,6.69 v -6.69 h 6 a 10.8867,10.9286 0 0 1 -6,6.59 z m 9.79,-3.78 a 16.9127,16.9777 0 0 1 -3.86,2.31 19.11,19.1835 -180 0 0 2.96,-5.59 h 4.16 a 18.9103,18.9829 0 0 1 -3.26,3.28 z" class="st2" id="path31" inkscape:connector-curvature="0" style="fill:#0078d4;stroke:none;stroke-width:34.65019989;stroke-linecap:butt" />
			</g>
			<g id="shape19150-6">
				<title id="title34">path23</title>
				<path d="M 34.82,126.21 H 1.66 C 0.63,126.21 0,124.5 0.6,123.63 l 11.42,-16.71 a 1.19854,1.20314 -180 0 0 0.23,-0.73 V 95.13 A 0.665855,0.668413 -180 0 0 11.584145,94.461586 L 10.99,94.46 a 1.26512,1.26998 0 0 1 -1.3,-1.31 v -0.6 a 1.29842,1.30341 0 0 1 1.3,-1.3 h 14.55 a 1.33171,1.33683 0 0 1 1.29,1.3 v 0.6 a 1.29842,1.30341 0 0 1 -1.29,1.24 H 24.9 a 0.632562,0.634992 -180 0 0 -0.632563,0.668413 L 24.27,106.15 a 1.19854,1.20314 -180 0 0 0.23,0.74 l 11.42,16.71 c 0.6,0.87 -0.03,2.61 -1.1,2.61 z" class="st3" id="path36" inkscape:connector-curvature="0" style="fill:url(#grad0-9);stroke:none;stroke-width:34.65019989;stroke-linecap:butt" />
			</g>
			<g id="shape19151-10" transform="translate(6.08883,-3.27522)">
				<title id="title39">path25</title>
				<path d="m 0.07,125.07 8.22,-12.03 a 2.86318,2.87418 -180 0 0 0.54,-1.71 v -4.84 a 0.96549,0.969199 0 0 1 0.965491,-0.9692 L 14.45,105.52 a 0.96549,0.969199 0 0 1 0.965489,0.9692 L 15.42,111.67 a 1.96427,1.97182 -180 0 0 0.33,1.13 l 8.42,12.27 a 0.732441,0.735254 0 0 1 -0.599269,1.1363 L 0.67,126.21 a 0.699148,0.701834 0 0 1 -0.599269,-1.1363 z" class="st4" id="path41" inkscape:connector-curvature="0" style="fill:#ffffff;stroke:none;stroke-width:34.65019989;stroke-linecap:butt" />
			</g>
		</g>
	</g>
</svg>