<?xml version="1.0" encoding="UTF-8" standalone="no"?>
<!-- Generated by Microsoft Visio, SVG Export Policy Compliance.svg Page-1 -->

<svg
   xmlns:dc="http://purl.org/dc/elements/1.1/"
   xmlns:cc="http://creativecommons.org/ns#"
   xmlns:rdf="http://www.w3.org/1999/02/22-rdf-syntax-ns#"
   xmlns:svg="http://www.w3.org/2000/svg"
   xmlns="http://www.w3.org/2000/svg"
   xmlns:sodipodi="http://sodipodi.sourceforge.net/DTD/sodipodi-0.dtd"
   xmlns:inkscape="http://www.inkscape.org/namespaces/inkscape"
   width="0.6298579in"
   height="0.78735697in"
   viewBox="0 0 45.349512 56.690013"
   xml:space="preserve"
   class="st7"
   version="1.1"
   id="svg50"
   sodipodi:docname="Policy Compliance.svg"
   style="font-size:12px;overflow:visible;color-interpolation-filters:sRGB;fill:none;fill-rule:evenodd;stroke-linecap:square;stroke-miterlimit:3"
   inkscape:version="0.92.5 (2060ec1f9f, 2020-04-08)"><metadata
   id="metadata54"><rdf:RDF><cc:Work
       rdf:about=""><dc:format>image/svg+xml</dc:format><dc:type
         rdf:resource="http://purl.org/dc/dcmitype/StillImage" /></cc:Work></rdf:RDF></metadata><sodipodi:namedview
   pagecolor="#ffffff"
   bordercolor="#666666"
   borderopacity="1"
   objecttolerance="10"
   gridtolerance="10"
   guidetolerance="10"
   inkscape:pageopacity="0"
   inkscape:pageshadow="2"
   inkscape:window-width="640"
   inkscape:window-height="480"
   id="namedview52"
   showgrid="false"
   inkscape:zoom="1.4193119"
   inkscape:cx="30.235844"
   inkscape:cy="37.786201"
   inkscape:window-x="0"
   inkscape:window-y="0"
   inkscape:window-maximized="0"
   inkscape:current-layer="svg50" />
	<style
   type="text/css"
   id="style2">
	<![CDATA[
		.st1 {fill:#ffffff;stroke:none;stroke-linecap:butt;stroke-width:34}
		.st2 {fill:url(#grad0-8);stroke:none;stroke-linecap:butt;stroke-width:34}
		.st3 {fill:#0078d4;stroke:none;stroke-linecap:butt;stroke-width:34}
		.st4 {fill:#b31b1b;stroke:none;stroke-linecap:butt;stroke-width:34}
		.st5 {fill:#e62323;stroke:none;stroke-linecap:butt;stroke-width:34}
		.st6 {fill:#ffd400;stroke:none;stroke-linecap:butt;stroke-width:34}
		.st7 {fill:none;fill-rule:evenodd;font-size:12px;overflow:visible;stroke-linecap:square;stroke-miterlimit:3}
	]]>
	</style>

	<defs
   id="Patterns_And_Gradients">
		<linearGradient
   id="grad0-8"
   x1="-9.4484598e-06"
   y1="60.837595"
   x2="50.703965"
   y2="60.837595"
   gradientTransform="scale(0.89440754,1.1180586)"
   gradientUnits="userSpaceOnUse">
			<stop
   offset="0"
   stop-color="#0078d4"
   stop-opacity="1"
   id="stop4" />
			<stop
   offset="0.82"
   stop-color="#5ea0ef"
   stop-opacity="1"
   id="stop6" />
		</linearGradient>
	</defs>
	<g
   id="g48"
   transform="translate(-34.000624,-34.004294)">
		<title
   id="title10">Page-1</title>
		<g
   id="group13207-1"
   transform="translate(34,-34.0157)">
			<title
   id="title12">Policy Compliance.13207</title>
			<g
   id="group13208-2">
				<title
   id="title14">Icon-manage-309</title>
				<g
   id="shape13209-3"
   transform="translate(0.32676,-0.433534)">
					<title
   id="title16">Sheet.13209</title>
					<path
   d="M 25.62,68.88 H 1.86 A 1.86253,1.90088 -180 0 0 0,70.78 v 52.03 a 1.86253,1.90088 -180 0 0 1.86,1.9 h 40.98 a 1.86253,1.90088 -180 0 0 1.86,-1.9 V 88.39 A 1.89521,1.93423 -180 0 0 42.84,86.46 H 29.25 a 1.82986,1.86753 0 0 1 -1.87,-1.9 V 70.78 a 1.86253,1.90088 -180 0 0 -1.76,-1.9 z"
   class="st1"
   id="path18"
   inkscape:connector-curvature="0"
   style="fill:#ffffff;stroke:none;stroke-width:34;stroke-linecap:butt" />
				</g>
				<g
   id="shape13210-5">
					<title
   id="title21">Sheet.13210</title>
					<path
   d="m 24.96,70.88 v 13.08 a 4.70535,4.80222 -180 0 0 4.71,4.77 h 12.91 v 33.11 H 2.78 V 70.88 Z m 0.98,-2.86 H 1.9 A 1.89521,1.93423 -180 0 0 0,69.95 v 52.82 a 1.89521,1.93423 -180 0 0 1.9,1.94 h 41.56 a 1.89521,1.93423 -180 0 0 1.89,-1.94 V 87.82 A 1.89521,1.93423 -180 0 0 43.46,85.89 H 29.67 a 1.89521,1.93423 0 0 1 -1.9,-1.93 V 69.95 a 1.89521,1.93423 -180 0 0 -1.83,-1.93 z"
   class="st2"
   id="path23"
   inkscape:connector-curvature="0"
   style="fill:url(#grad0-8);stroke:none;stroke-width:34;stroke-linecap:butt" />
				</g>
				<g
   id="shape13211-9"
   transform="translate(27.1211,-38.3511)">
					<title
   id="title26">Sheet.13211</title>
					<path
   d="M 17.51,124.71 0,106.8 v 14.57 a 3.2676,3.33488 -180 0 0 3.27,3.34 z"
   class="st3"
   id="path28"
   inkscape:connector-curvature="0"
   style="fill:#0078d4;stroke:none;stroke-width:34;stroke-linecap:butt" />
				</g>
				<g
   id="shape13212-11"
   transform="translate(17.1222,-8.01629)">
					<title
   id="title31">Sheet.13212</title>
					<path
   d="m 10.16,111.65 a 7.2214,7.37008 0 0 1 -9.57,0 L 0,123.75 a 0.947605,0.967114 -180 0 0 1.6338,0.73367 L 5.29,120.65 l 3.73,3.74 a 0.947605,0.967114 -180 0 0 1.60113,-0.73367 z"
   class="st4"
   id="path33"
   inkscape:connector-curvature="0"
   style="fill:#b31b1b;stroke:none;stroke-width:34;stroke-linecap:butt" />
				</g>
				<g
   id="shape13213-13"
   transform="translate(14.0834,-18.5753)">
					<title
   id="title36">Sheet.13213</title>
					<ellipse
   cx="8.5284405"
   cy="115.971"
   rx="8.5284405"
   ry="8.73738"
   class="st5"
   id="ellipse38"
   style="fill:#e62323;stroke:none;stroke-width:34;stroke-linecap:butt" />
				</g>
				<g
   id="shape13214-15"
   transform="translate(16.142,-20.6762)">
					<title
   id="title41">Sheet.13214</title>
					<ellipse
   cx="6.4698501"
   cy="118.072"
   rx="6.4698501"
   ry="6.6364102"
   class="st6"
   id="ellipse43"
   style="fill:#ffd400;stroke:none;stroke-width:34;stroke-linecap:butt" />
				</g>
			</g>
		</g>
	</g>
</svg>