<?xml version="1.0" encoding="UTF-8" standalone="no"?>
<!-- Generated by Microsoft Visio, SVG Export Update Management Center.svg Page-1 -->

<svg
   xmlns:dc="http://purl.org/dc/elements/1.1/"
   xmlns:cc="http://creativecommons.org/ns#"
   xmlns:rdf="http://www.w3.org/1999/02/22-rdf-syntax-ns#"
   xmlns:svg="http://www.w3.org/2000/svg"
   xmlns="http://www.w3.org/2000/svg"
   xmlns:xlink="http://www.w3.org/1999/xlink"
   xmlns:sodipodi="http://sodipodi.sourceforge.net/DTD/sodipodi-0.dtd"
   xmlns:inkscape="http://www.inkscape.org/namespaces/inkscape"
   width="0.78735834in"
   height="0.78735834in"
   viewBox="0 0 56.690005 56.689931"
   xml:space="preserve"
   class="st6"
   version="1.1"
   id="svg70"
   sodipodi:docname="Update Management Center.svg"
   style="font-size:12px;overflow:visible;color-interpolation-filters:sRGB;fill:none;fill-rule:evenodd;stroke-linecap:square;stroke-miterlimit:3"
   inkscape:version="0.92.5 (2060ec1f9f, 2020-04-08)"><metadata
   id="metadata74"><rdf:RDF><cc:Work
       rdf:about=""><dc:format>image/svg+xml</dc:format><dc:type
         rdf:resource="http://purl.org/dc/dcmitype/StillImage" /></cc:Work></rdf:RDF></metadata><sodipodi:namedview
   pagecolor="#ffffff"
   bordercolor="#666666"
   borderopacity="1"
   objecttolerance="10"
   gridtolerance="10"
   guidetolerance="10"
   inkscape:pageopacity="0"
   inkscape:pageshadow="2"
   inkscape:window-width="640"
   inkscape:window-height="480"
   id="namedview72"
   showgrid="false"
   inkscape:zoom="1.4365633"
   inkscape:cx="37.795335"
   inkscape:cy="36.784939"
   inkscape:window-x="0"
   inkscape:window-y="0"
   inkscape:window-maximized="0"
   inkscape:current-layer="svg70" />
	<style
   type="text/css"
   id="style2">
	<![CDATA[
		.st1 {fill:url(#grad0-6);stroke:none;stroke-linecap:butt;stroke-width:32.5019}
		.st2 {fill:url(#grad0-10);stroke:none;stroke-linecap:butt;stroke-width:32.5019}
		.st3 {fill:url(#grad0-14);stroke:none;stroke-linecap:butt;stroke-width:32.5019}
		.st4 {fill:url(#grad0-18);stroke:none;stroke-linecap:butt;stroke-width:32.5019}
		.st5 {fill:url(#grad0-25);stroke:none;stroke-linecap:butt;stroke-width:32.5019}
		.st6 {fill:none;fill-rule:evenodd;font-size:12px;overflow:visible;stroke-linecap:square;stroke-miterlimit:3}
	]]>
	</style>

	<defs
   id="Patterns_And_Gradients">
		<linearGradient
   id="grad0-6"
   x1="-4.4696169e-06"
   y1="66.519999"
   x2="56.69"
   y2="66.519999"
   gradientUnits="userSpaceOnUse">
			<stop
   offset="0.22"
   stop-color="#0078d4"
   stop-opacity="1"
   id="stop4" />
			<stop
   offset="1"
   stop-color="#005ba1"
   stop-opacity="1"
   id="stop6" />
		</linearGradient>
		<linearGradient
   id="grad0-10"
   x1="-1.781865e-15"
   y1="93.921863"
   x2="28.908162"
   y2="93.921863"
   gradientTransform="scale(0.99690877,1.0031008)"
   gradientUnits="userSpaceOnUse">
			<stop
   offset="0.19"
   stop-color="#005ba1"
   stop-opacity="1"
   id="stop9" />
			<stop
   offset="1"
   stop-color="#003067"
   stop-opacity="1"
   id="stop11" />
		</linearGradient>
		<linearGradient
   id="grad0-14"
   x1="0"
   y1="0"
   x2="1"
   y2="0">
			<stop
   offset="0.315"
   stop-color="#9cebff"
   stop-opacity="1"
   id="stop14" />
			<stop
   offset="1"
   stop-color="#50e6ff"
   stop-opacity="1"
   id="stop16" />
		</linearGradient>
		<linearGradient
   id="grad0-18"
   x1="0"
   y1="92.812246"
   x2="21.102"
   y2="92.812246"
   gradientTransform="scale(0.92439985,1.0817829)"
   gradientUnits="userSpaceOnUse">
			<stop
   offset="0.355"
   stop-color="#50e6ff"
   stop-opacity="1"
   id="stop19" />
			<stop
   offset="1"
   stop-color="#32bedd"
   stop-opacity="1"
   id="stop21" />
		</linearGradient>
		<linearGradient
   id="grad0-25"
   x1="-0.04182075"
   y1="92.823403"
   x2="21.058003"
   y2="92.823403"
   gradientTransform="scale(0.9245891,1.0815615)"
   gradientUnits="userSpaceOnUse">
			<stop
   offset="0.355"
   stop-color="#50e6ff"
   stop-opacity="1"
   id="stop24" />
			<stop
   offset="1"
   stop-color="#32bedd"
   stop-opacity="1"
   id="stop26" />
		</linearGradient>
	<linearGradient
   inkscape:collect="always"
   xlink:href="#grad0-14"
   id="linearGradient4584"
   x1="-0.020689514"
   y1="207.83806"
   x2="11.655558"
   y2="207.83806"
   gradientTransform="scale(1.7811244,0.56144308)"
   gradientUnits="userSpaceOnUse" /><linearGradient
   inkscape:collect="always"
   xlink:href="#grad0-14"
   id="linearGradient4586"
   x1="0"
   y1="207.71401"
   x2="11.684217"
   y2="207.71401"
   gradientTransform="scale(1.7802408,0.56172176)"
   gradientUnits="userSpaceOnUse" /></defs>
	<g
   id="g68"
   transform="translate(-32.501896,-32.504379)">
		<title
   id="title30">Page-1</title>
		<g
   id="group12928-1"
   transform="translate(32.5019,-34.0157)">
			<title
   id="title32">Update Management Center.12928</title>
			<g
   id="group12929-2">
				<title
   id="title34">g14</title>
				<g
   id="shape12930-3">
					<title
   id="title36">path2</title>
					<path
   d="M 56.69,96.83 V 92.97 A 1.77008,1.78106 -180 0 0 55.48,91.28 L 49.09,89.14 A 0.894488,0.900038 0 0 1 48.545118,88.613921 L 47.17,85.01 a 0.897638,0.903208 0 0 1 0.03465,-0.719397 L 50.12,78.39 a 1.77008,1.78106 -180 0 0 -0.33,-2.05 l -2.86,-2.87 a 1.76693,1.77789 -180 0 0 -2.04,-0.34 l -5.86,2.94 a 0.875591,0.881024 0 0 1 -0.711811,0.03169 L 34.73,74.71 A 0.872441,0.877854 0 0 1 34.219764,74.193429 L 31.78,67.67 a 1.77323,1.78423 -180 0 0 -1.66,-1.15 h -3.84 a 1.77638,1.7874 -180 0 0 -1.68,1.2 l -2.13,6.16 a 0.88189,0.887362 0 0 1 -0.466142,0.516571 L 18.4,76.07 a 0.891339,0.896869 0 0 1 -0.765354,0 L 11.82,73.13 a 1.77323,1.78423 -180 0 0 -2.04,0.32 l -2.87,2.88 a 1.77953,1.79057 -180 0 0 -0.33,2.06 l 2.92,5.9 a 0.897638,0.903208 0 0 1 0.034646,0.719397 L 8.15,88.63 A 0.888189,0.8937 0 0 1 7.633465,89.143402 L 1.15,91.59 A 1.76693,1.77789 -180 0 0 0,93.26 v 3.85 a 1.76693,1.77789 -180 0 0 1.21,1.69 l 6.4,2.15 a 0.888189,0.8937 0 0 1 0.544882,0.52608 L 9.54,105.08 a 0.897638,0.903208 0 0 1 -0.034646,0.7194 L 6.58,111.67 a 1.77638,1.7874 -180 0 0 0.31,2.06 l 2.87,2.89 a 1.76693,1.77789 -180 0 0 2.04,0.31 l 5.85,-2.94 a 0.872441,0.877854 0 0 1 0.714961,-0.0349 L 21.97,115.35 a 0.891339,0.896869 0 0 1 0.507087,0.51023 L 24.89,122.08 a 1.77008,1.78106 -180 0 0 1.65,1.13 h 3.87 a 1.77323,1.78423 -180 0 0 1.68,-1.22 l 2.13,-6.43 a 0.891339,0.896869 0 0 1 0.522835,-0.55143 L 38.32,113.63 a 0.875591,0.881024 0 0 1 0.711811,0.0317 L 44.89,116.59 a 1.77323,1.78423 -180 0 0 2.04,-0.33 l 2.83,-2.85 a 1.77008,1.78106 -180 0 0 0.32,-2.09 l -2.88,-5.53 a 0.888189,0.8937 0 0 1 -0.04095,-0.73207 L 48.54,101.44 a 0.891339,0.896869 0 0 1 0.516535,-0.51657 L 55.53,98.49 a 1.77008,1.78106 -180 0 0 1.16,-1.66 z m -28.3,12.54 a 14.4094,14.4989 0 1 1 14.4,-14.5 14.4126,14.502 0 0 1 -14.4,14.5 z"
   class="st1"
   id="path38"
   inkscape:connector-curvature="0"
   style="fill:url(#grad0-6);stroke:none;stroke-width:32.50189972;stroke-linecap:butt" />
				</g>
				<g
   id="shape12931-7"
   transform="translate(13.978,-13.8397)">
					<title
   id="title41">circle4</title>
					<ellipse
   cx="14.4094"
   cy="108.712"
   rx="14.4094"
   ry="14.4989"
   class="st2"
   id="ellipse43"
   style="fill:url(#grad0-10);stroke:none;stroke-width:32.50189972;stroke-linecap:butt" />
				</g>
				<g
   id="shape12932-11"
   transform="translate(19.4728,-38.8526)">
					<title
   id="title46">path6</title>
					<path
   d="m 20.76,122.13 a 16.2362,16.337 -180 0 0 -0.71,-0.36 14.6803,14.7714 -180 0 0 -12.33,-0.42 12.4693,12.5467 -180 0 0 -5.15,1.76 1.00157,1.00779 0 0 1 -1.39,-0.41 l -1.11,-2.22 a 1.00472,1.01096 0 0 1 0.38,-1.32 15.1181,15.2119 0 0 1 14.97,-0.89 17.6756,17.7853 0 0 1 5.34,3.86 z"
   class="st3"
   id="path48"
   inkscape:connector-curvature="0"
   style="fill:url(#linearGradient4584);stroke:none;stroke-width:32.50189972;stroke-linecap:butt" />
				</g>
				<g
   id="shape12933-15"
   transform="translate(27.1906,-19.0722)">
					<title
   id="title51">path8</title>
					<path
   d="M 12.31,122.68 9.23,116.5 a 1.00472,1.01096 0 0 1 1.11,-1.43 l 1.84,0.39 A 10.6331,10.699 -180 0 0 10,105.82 11.178,11.2473 -180 0 0 0,101.57 a 14.6803,14.7714 0 0 1 12.34,0.42 c 0.24,0.11 0.47,0.23 0.7,0.36 A 15.8898,15.9884 0 0 1 17,114.31 c -0.03,0.69 -0.08,1.39 -0.17,2.12 l 0.4,0.08 1.48,0.31 a 1.00472,1.01096 0 0 1 0.43,1.77 l -4.22,3.51 -1.08,0.9 a 1.00157,1.00779 0 0 1 -1.53,-0.32 z"
   class="st4"
   id="path53"
   inkscape:connector-curvature="0"
   style="fill:url(#grad0-18);stroke:none;stroke-width:32.50189972;stroke-linecap:butt" />
				</g>
				<g
   id="shape12934-19"
   transform="translate(16.1228,-11.3286)">
					<title
   id="title56">path10</title>
					<path
   d="m 0,117.8 c 0.23,0.12 0.46,0.24 0.71,0.35 a 14.6803,14.7714 -180 0 0 12.33,0.43 12.4567,12.534 -180 0 0 5.15,-1.77 1.00157,1.00779 0 0 1 1.39,0.42 l 1.11,2.21 A 1.00472,1.01096 0 0 1 20.31,120.77 15.1181,15.2119 0 0 1 5.34,121.66 17.7134,17.8233 0 0 1 0,117.8 Z"
   class="st3"
   id="path58"
   inkscape:connector-curvature="0"
   style="fill:url(#linearGradient4586);stroke:none;stroke-width:32.50189972;stroke-linecap:butt" />
				</g>
				<g
   id="shape12935-22"
   transform="translate(9.69267,-14.804)">
					<title
   id="title61">path12</title>
					<path
   d="m 7.16,100.95 3.07,6.17 a 1.00472,1.01096 0 0 1 -1.1,1.43 l -1.84,-0.39 a 10.6331,10.699 -180 0 0 2.18,9.64 11.178,11.2473 -180 0 0 10,4.25 14.6803,14.7714 0 0 1 -12.33,-0.42 14.7276,14.8189 0 0 1 -0.71,-0.35 15.874,15.9725 0 0 1 -3.95,-11.97 c 0.02,-0.69 0.07,-1.39 0.16,-2.12 L 2.25,107.11 0.77,106.8 a 1.00157,1.00779 0 0 1 -0.44,-1.77 l 4.22,-3.51 1.08,-0.9 a 1.00472,1.01096 0 0 1 1.53,0.33 z"
   class="st5"
   id="path63"
   inkscape:connector-curvature="0"
   style="fill:url(#grad0-25);stroke:none;stroke-width:32.50189972;stroke-linecap:butt" />
				</g>
			</g>
		</g>
	</g>
</svg>