<?xml version="1.0" encoding="UTF-8" standalone="no"?>
<!DOCTYPE svg PUBLIC "-//W3C//DTD SVG 1.1//EN" "http://www.w3.org/Graphics/SVG/1.1/DTD/svg11.dtd">
<!-- Generated by Microsoft Visio, SVG Export Cognitive Services QnA Maker.svg Page-1 -->
<svg xmlns="http://www.w3.org/2000/svg" xmlns:xlink="http://www.w3.org/1999/xlink" xmlns:ev="http://www.w3.org/2001/xml-events"
		width="1.70564in" height="1.71896in" viewBox="0 0 122.806 123.765" xml:space="preserve" color-interpolation-filters="sRGB"
		class="st4">
	<style type="text/css">
	<![CDATA[
		.st1 {fill:url(#grad0-6);stroke:none;stroke-linecap:butt;stroke-width:33.0566}
		.st2 {fill:url(#grad0-10);stroke:none;stroke-linecap:butt;stroke-width:33.0566}
		.st3 {fill:#ffffff;stroke:none;stroke-linecap:butt;stroke-width:33.0566}
		.st4 {fill:none;fill-rule:evenodd;font-size:12px;overflow:visible;stroke-linecap:square;stroke-miterlimit:3}
	]]>
	</style>

	<defs id="Patterns_And_Gradients">
		<linearGradient id="grad0-6" x1="0" y1="0" x2="1" y2="0" gradientTransform="rotate(-90 0.5 0.5)">
			<stop offset="0" stop-color="#32bedd" stop-opacity="1"/>
			<stop offset="1" stop-color="#50e6ff" stop-opacity="1"/>
		</linearGradient>
		<linearGradient id="grad0-10" x1="0" y1="0" x2="1" y2="0" gradientTransform="rotate(90 0.5 0.5)">
			<stop offset="0" stop-color="#5ea0ef" stop-opacity="1"/>
			<stop offset="1" stop-color="#0078d4" stop-opacity="1"/>
		</linearGradient>
	</defs>
	<g>
		<title>Page-1</title>
		<g id="group15059-1" transform="translate(33.0566,-34.0157)">
			<title>Cognitive Services QnA Maker.15059</title>
			<g id="group15060-2">
				<title>g8</title>
				<g id="shape15061-3" transform="translate(20.1247,2.84217E-13)">
					<title>path2</title>
					<path d="M2.13 89.21 L34.45 89.21 A2.12059 2.07822 0 0 1 36.57 91.28 L36.57 116.45 A2.12381 2.08137 0 0 1 34.45
								 118.53 L21.22 118.53 a0.350751 0.343742 -180 0 0 -0.215599 0.0725328 L14.22 123.69 a0.704719 0.690638
								 0 0 1 -1.13592 -0.548726 L13.09 118.87 a0.353969 0.346896 -180 0 0 -0.350751 -0.346896 L2.12 118.53
								 A2.12059 2.07822 0 0 1 0 116.45 L0 91.28 A2.12381 2.08137 0 0 1 2.13 89.21 Z" class="st1"/>
				</g>
				<g id="shape15062-7" transform="translate(-2.79776E-13,-22.1355)">
					<title>path4</title>
					<path d="M36.56 91.29 L36.56 116.45 A2.12059 2.07822 0 0 1 34.44 118.53 L23.84 118.53 a0.353969 0.346896 -180
								 0 0 -0.350751 0.346896 L23.49 123.15 a0.707937 0.693792 0 0 1 -1.13592 0.548726 L15.56 118.6 a0.350751
								 0.343742 -180 0 0 -0.215599 -0.063072 L2.12 118.54 A2.12381 2.08137 0 0 1 -0 116.46 L0 91.29 A2.12059
								 2.07822 0 0 1 2.12 89.21 L34.44 89.21 A2.12381 2.08137 0 0 1 36.56 91.29 Z" class="st2"/>
				</g>
				<g id="shape15063-11" transform="translate(13.1805,-31.8426)">
					<title>path6</title>
					<path d="M2.83 118 A5.53478 5.42419 0 0 1 2.62 117.11 A6.16549 6.04229 0 0 1 2.52 116.04 A3.44959 3.38066 0 0
								 1 2.86 114.53 A6.43579 6.3072 0 0 1 3.71 113.27 A14.207 13.9231 0 0 1 4.8 112.13 C5.2 111.77 5.57
								 111.42 5.9 111.07 A6.04643 5.92561 -180 0 0 6.75 109.98 A2.5164 2.46611 -180 0 0 7.1 108.72 A2.27505
								 2.22959 -180 0 0 6.84 107.65 A2.25253 2.20752 -180 0 0 6.16 106.9 A3.14389 3.08107 -180 0 0 5.16
								 106.44 A4.55011 4.45919 -180 0 0 3.95 106.29 A5.60558 5.49357 -180 0 0 0 108.1 L0 104.95 A9.22893
								 9.04452 0 0 1 4.72 103.65 A7.50092 7.35104 0 0 1 6.84 103.93 A5.31597 5.20974 0 0 1 8.6 104.78 A4.07386
								 3.99246 0 0 1 9.78 106.17 A4.30233 4.21636 0 0 1 10.21 108.1 A4.75927 4.66417 0 0 1 9.85 109.97
								 A7.05363 6.91269 0 0 1 8.94 111.48 A8.5757 8.40434 0 0 1 7.76 112.7 A23.1592 22.6964 -180 0 0 6.58
								 113.76 A6.16227 6.03914 -180 0 0 5.67 114.86 A2.40699 2.35889 -180 0 0 5.31 116.12 A3.55899 3.48788
								 -180 0 0 5.46 117.19 A6.78655 6.65094 -180 0 0 5.77 117.99 L2.83 118 ZM4.41 123.77 A2.0498 2.00884
								 0 0 1 3.01 123.23 A1.69261 1.65879 0 0 1 2.42 121.95 A1.66365 1.63041 0 0 1 3.01 120.67 A2.03371
								 1.99307 0 0 1 5.8 120.67 A1.66043 1.62726 0 0 1 6.38 121.96 A1.6894 1.65564 0 0 1 5.8 123.24 A2.03371
								 1.99307 0 0 1 4.41 123.77 Z" class="st3"/>
				</g>
			</g>
		</g>
	</g>
</svg>
