<?xml version="1.0" encoding="UTF-8" standalone="no"?>
<!DOCTYPE svg PUBLIC "-//W3C//DTD SVG 1.1//EN" "http://www.w3.org/Graphics/SVG/1.1/DTD/svg11.dtd">
<!-- Generated by Microsoft Visio, SVG Export Machine Learning Studio Web Service Plan (classic).svg Page-1 -->
<svg xmlns="http://www.w3.org/2000/svg" xmlns:xlink="http://www.w3.org/1999/xlink" xmlns:ev="http://www.w3.org/2001/xml-events"
		width="1.73214in" height="1.73206in" viewBox="0 0 124.714 124.709" xml:space="preserve" color-interpolation-filters="sRGB"
		class="st4">
	<style type="text/css">
	<![CDATA[
		.st1 {fill:#a0a1a2;stroke:none;stroke-linecap:butt;stroke-width:34}
		.st2 {fill:#59b4d9;stroke:none;stroke-linecap:butt;stroke-width:34}
		.st3 {fill:#d5ecf6;stroke:none;stroke-linecap:butt;stroke-width:34}
		.st4 {fill:none;fill-rule:evenodd;font-size:12px;overflow:visible;stroke-linecap:square;stroke-miterlimit:3}
	]]>
	</style>

	<g>
		<title>Page-1</title>
		<g id="group15001-1" transform="translate(34,-34.0157)">
			<title>Machine Learning Studio Web Service Plan (classic).15001</title>
			<g id="group15002-2">
				<title>Sheet.15002</title>
				<g id="shape15003-3" transform="translate(9.29134,-25.1024)">
					<title>Sheet.15003</title>
					<path d="M0 106.36 L0.56 105.8 L3.85 109.1 L3.3 109.66 L0 106.36 ZM38.11 123.76 L43.37 123.76 L43.37 124.71 L38.11
								 124.71 L38.11 123.76 ZM38.28 115.3 L42.38 113.85 L42.63 114.56 L38.54 116.01 L38.28 115.3 ZM27.38
								 103.46 L28.67 99.05 L29.42 99.27 L28.13 103.68 L27.38 103.46 ZM7.75 100.48 L8.38 100.13 L10.22 103.47
								 L9.59 103.82 L7.75 100.48 ZM17.54 97.84 L18.49 97.84 L18.49 103.1 L17.54 103.1 L17.54 97.84 Z"
							class="st1"/>
				</g>
				<g id="shape15004-5" transform="translate(9.29134,-19.3071)">
					<title>Sheet.15004</title>
					<path d="M0 100.57 L0.56 100.01 L3.85 103.31 L3.3 103.86 L0 100.57 ZM38.11 117.97 L43.37 117.97 L43.37 118.91
								 L38.11 118.91 L38.11 117.97 ZM38.28 109.51 L42.38 108.05 L42.63 108.76 L38.54 110.22 L38.28 109.51
								 ZM27.38 97.66 L28.67 93.25 L29.42 93.47 L28.13 97.88 L27.38 97.66 ZM7.75 94.69 L8.38 94.34 L10.22
								 97.68 L9.59 98.02 L7.75 94.69 ZM24.54 110 C23.15 111.64 22.52 111.8 19.34 115.48 A8.40945 8.40945
								 0 0 1 23.46 119.42 C25.95 116.52 27.09 115.73 28.72 113.81 L38.17 98.6 L24.54 110 ZM16.98 120.74
								 L19.37 124.71 A3.81102 3.81102 -180 0 0 21.39 121.34 A4.12598 4.12598 -180 0 0 16.98 117.43 L16.98
								 120.58 L16.98 120.74 Z" class="st1"/>
				</g>
				<g id="shape15005-7" transform="translate(0,-18.8976)">
					<title>Sheet.15005</title>
					<path d="M48.16 95.04 A28.6614 28.6614 -180 0 0 28.16 86.91 A28.1575 28.1575 -180 0 0 -0 115.01 L0 119.01 A6.77165
								 6.77165 -180 0 0 5.42 124.71 L6.93 122.03 A3.84252 3.84252 0 0 1 2.55 118.03 L2.55 112.99 C2.55
								 112.99 3.18 110.09 3.46 109.06 A25.1969 25.1969 0 0 1 28.35 89.18 A25.7638 25.7638 0 0 1 54.3 114.72
								 L54.3 118.06 C54.3 122.13 51.62 122.16 48.98 122.16 L32.85 122.16 C32.5 124.71 31.5 124.71 31.5
								 124.71 L50.61 124.71 A5.29134 5.29134 -180 0 0 56.69 119.01 L56.69 114.72 A27.3386 27.3386 -180
								 0 0 48.16 95.04 Z" class="st1"/>
				</g>
				<g id="shape15006-9" transform="translate(0.251969,1.42109E-14)">
					<title>Sheet.15006</title>
					<path d="M24.94 102.66 L24.94 94.16 L25.26 94.16 C26.58 94.09 27.15 93.21 27.15 91.32 A2.20472 2.20472 -180 0
								 0 24.5 88.83 L8.76 88.83 A2.20472 2.20472 -180 0 0 6.49 91.17 L6.49 91.98 A2.26772 2.26772 -180
								 0 0 9.13 94.13 L9.13 102.66 L0 119.67 L3.15 124.71 L29.48 124.71 L33.2 119.67 L24.94 102.66 ZM14.2
								 112.74 L10.24 119.39 L4.82 119.39 L14.27 102.66 L14.27 94.16 L19.65 94.16 L19.65 102.66 L25.26 112.74
								 L14.2 112.74 Z" class="st2"/>
				</g>
				<g id="shape15007-11" transform="translate(5.07087,-5.32283)">
					<title>Sheet.15007</title>
					<path d="M9.39 118.06 L5.42 124.71 L0 124.71 L9.54 107.98 L9.54 99.48 L14.83 99.48 L14.83 107.98 L20.44 118.06
								 L9.39 118.06 Z" class="st3"/>
				</g>
			</g>
		</g>
	</g>
</svg>
