<?xml version="1.0" encoding="UTF-8" standalone="no"?>
<!DOCTYPE svg PUBLIC "-//W3C//DTD SVG 1.1//EN" "http://www.w3.org/Graphics/SVG/1.1/DTD/svg11.dtd">
<!-- Generated by Microsoft Visio, SVG Export Managed Database.svg Page-1 -->
<svg xmlns="http://www.w3.org/2000/svg" xmlns:xlink="http://www.w3.org/1999/xlink" xmlns:ev="http://www.w3.org/2001/xml-events"
		width="1.73185in" height="1.74388in" viewBox="0 0 124.693 125.559" xml:space="preserve" color-interpolation-filters="sRGB"
		class="st10">
	<style type="text/css">
	<![CDATA[
		.st1 {fill:url(#grad0-6);stroke:none;stroke-linecap:butt;stroke-width:34}
		.st2 {fill:#eaeaea}
		.st3 {stroke:none;stroke-linecap:butt;stroke-width:34}
		.st4 {fill:#50e6ff;stroke:none;stroke-linecap:butt;stroke-width:34}
		.st5 {fill:#198ab3;stroke:none;stroke-linecap:butt;stroke-width:34}
		.st6 {fill:url(#grad0-17)}
		.st7 {fill:#ffffff;stroke:none;stroke-linecap:butt;stroke-width:34}
		.st8 {visibility:visible}
		.st9 {fill:#000000;font-family:Calibri;font-size:0.666664em}
		.st10 {fill:none;fill-rule:evenodd;font-size:12px;overflow:visible;stroke-linecap:square;stroke-miterlimit:3}
	]]>
	</style>

	<defs id="Patterns_And_Gradients">
		<linearGradient id="grad0-6" x1="0" y1="0" x2="1" y2="0" gradientTransform="rotate(0 0.5 0.5)">
			<stop offset="0" stop-color="#005ba1" stop-opacity="1"/>
			<stop offset="0.07" stop-color="#0060a9" stop-opacity="1"/>
			<stop offset="0.36" stop-color="#0071c8" stop-opacity="1"/>
			<stop offset="0.52" stop-color="#0078d4" stop-opacity="1"/>
			<stop offset="0.64" stop-color="#0074cd" stop-opacity="1"/>
			<stop offset="0.82" stop-color="#006abb" stop-opacity="1"/>
			<stop offset="1" stop-color="#005ba1" stop-opacity="1"/>
		</linearGradient>
		<linearGradient id="grad0-17" x1="0" y1="0" x2="1" y2="0" gradientTransform="rotate(-90 0.5 0.5)">
			<stop offset="0" stop-color="#198ab3" stop-opacity="1"/>
			<stop offset="0" stop-color="#198ab3" stop-opacity="1"/>
			<stop offset="0.11" stop-color="#22a5cb" stop-opacity="1"/>
			<stop offset="0.23" stop-color="#29bade" stop-opacity="1"/>
			<stop offset="0.37" stop-color="#2ec9eb" stop-opacity="1"/>
			<stop offset="0.53" stop-color="#31d1f3" stop-opacity="1"/>
			<stop offset="0.78" stop-color="#32d4f5" stop-opacity="1"/>
		</linearGradient>
	</defs>
	<g>
		<title>Page-1</title>
		<g id="group6253-1" transform="translate(34,-37.7008)">
			<title>Managed Database.6253</title>
			<desc>Managed Database</desc>
			<g id="group6254-2">
				<title>Icon-databases-135</title>
				<g id="shape6255-3" transform="translate(0.13316,-0.70689)">
					<title>Sheet.6255</title>
					<path d="M19.97 86.88 C8.99 86.88 0 83.52 0 79.61 L0 118.29 C0 122.26 8.76 125.53 19.57 125.56 L19.87 125.56
								 C30.83 125.56 39.85 122.19 39.85 118.29 L39.85 79.61 C39.81 83.62 30.93 86.88 19.97 86.88 Z"
							class="st1"/>
				</g>
				<g id="shape6256-7" transform="translate(-2.71783E-13,-39.3839)">
					<title>Sheet.6256</title>
					<path d="M39.95 118.29 C39.95 122.29 31.06 125.56 19.97 125.56 C8.89 125.56 0 122.19 0 118.29 C0 114.38 9.12
								 111.08 20.11 111.08 C31.09 111.08 40.08 114.45 40.08 118.39 L39.95 118.29 Z" class="st2"/>
					<path d="M39.95 118.29 C39.95 122.29 31.06 125.56 19.97 125.56 C8.89 125.56 0 122.19 0 118.29 C0 114.38 9.12
								 111.08 20.11 111.08 C31.09 111.08 40.08 114.45 40.08 118.39" class="st3"/>
				</g>
				<g id="shape6257-10" transform="translate(4.86034,-42.5144)">
					<title>Sheet.6257</title>
					<path d="M30.33 120.95 C30.33 123.51 23.67 125.56 15.11 125.56 C6.56 125.56 0 123.37 0 120.95 C0 118.52 6.82
								 116.2 15.25 116.2 C23.67 116.2 30.33 118.25 30.33 120.95 Z" class="st4"/>
				</g>
				<g id="shape6258-12" transform="translate(8.0229,-42.649)">
					<title>Sheet.6258</title>
					<path d="M12.08 122.02 A36.619 37.0276 -180 0 0 0 123.77 A36.2528 36.6573 -180 0 0 12.08 125.56 A36.153 36.5563
								 -180 0 0 24.14 123.77 A36.619 37.0276 -180 0 0 12.08 122.02 Z" class="st5"/>
				</g>
				<g id="shape6259-14" transform="translate(18.5425,1.42109E-14)">
					<title>Sheet.6259</title>
					<path d="M35.79 111.22 A9.62082 9.72815 -180 0 0 30.83 108.73 A10.786 10.9063 -180 0 0 19.71 98.29 A11.1522 11.2766
								 -180 0 0 9.05 105.6 A10.1867 10.3004 -180 0 0 0 115.46 A10.3865 10.5024 -180 0 0 10.72 125.56 L29.53
								 125.56 A8.6887 8.78563 -180 0 0 38.15 117.11 A8.18935 8.28071 -180 0 0 35.65 111.25 L35.79 111.22
								 Z" class="st6"/>
					<path d="M35.79 111.22 A9.62082 9.72815 -180 0 0 30.83 108.73 A10.786 10.9063 -180 0 0 19.71 98.29 A11.1522 11.2766
								 -180 0 0 9.05 105.6 A10.1867 10.3004 -180 0 0 0 115.46 A10.3865 10.5024 -180 0 0 10.72 125.56 L29.53
								 125.56 A8.6887 8.78563 -180 0 0 38.15 117.11 A8.18935 8.28071 -180 0 0 35.65 111.25" class="st3"/>
				</g>
				<g id="shape6260-19" transform="translate(30.1275,-4.03937)">
					<title>Sheet.6260</title>
					<path d="M16.05 125.56 L12.92 125.56 L12.92 114.01 C12.92 114.85 12.58 115.49 12.48 115.9 L9.15 125.56 L6.56
								 125.56 L3.23 115.97 A15.3467 15.5179 0 0 1 2.8 114.01 L2.8 125.56 L0 125.56 L0 111.32 L4.66 111.32
								 L7.52 119.77 A10.9524 11.0746 0 0 1 8.02 121.79 C8.19 121.01 8.39 120.31 8.56 119.74 L11.45 111.32
								 L16.05 111.32 L16.05 125.56 Z" class="st7"/>
				</g>
			</g>
			<g id="shape6253-21">
				<g id="shadow6253-22" transform="matrix(1,0,0,1,1.41732,1.41732)" class="st8"/>
				<text x="-3.09" y="140.84" class="st9">Managed Database</text>			</g>
		</g>
	</g>
</svg>
