<?xml version="1.0" encoding="UTF-8" standalone="no"?>
<!DOCTYPE svg PUBLIC "-//W3C//DTD SVG 1.1//EN" "http://www.w3.org/Graphics/SVG/1.1/DTD/svg11.dtd">
<!-- Generated by Microsoft Visio, SVG Export StorSimple Device Manager.svg Page-1 -->
<svg xmlns="http://www.w3.org/2000/svg" xmlns:xlink="http://www.w3.org/1999/xlink" xmlns:ev="http://www.w3.org/2001/xml-events"
		width="1.73185in" height="1.67705in" viewBox="0 0 124.693 120.747" xml:space="preserve" color-interpolation-filters="sRGB"
		class="st8">
	<style type="text/css">
	<![CDATA[
		.st1 {fill:url(#grad0-6);stroke:none;stroke-linecap:butt;stroke-width:34}
		.st2 {fill:#198ab3;stroke:none;stroke-linecap:butt;stroke-width:34}
		.st3 {fill:#32bedd;stroke:none;stroke-linecap:butt;stroke-width:34}
		.st4 {fill:#50e6ff;stroke:none;stroke-linecap:butt;stroke-width:34}
		.st5 {fill:#f2f2f2;stroke:none;stroke-linecap:butt;stroke-width:34}
		.st6 {visibility:visible}
		.st7 {fill:#000000;font-family:Calibri;font-size:0.666664em}
		.st8 {fill:none;fill-rule:evenodd;font-size:12px;overflow:visible;stroke-linecap:square;stroke-miterlimit:3}
	]]>
	</style>

	<defs id="Patterns_And_Gradients">
		<linearGradient id="grad0-6" x1="0" y1="0" x2="1" y2="0" gradientTransform="rotate(-90 0.5 0.5)">
			<stop offset="0" stop-color="#0078d4" stop-opacity="1"/>
			<stop offset="0.16" stop-color="#1380da" stop-opacity="1"/>
			<stop offset="0.53" stop-color="#3c91e5" stop-opacity="1"/>
			<stop offset="0.82" stop-color="#559cec" stop-opacity="1"/>
			<stop offset="1" stop-color="#5ea0ef" stop-opacity="1"/>
		</linearGradient>
	</defs>
	<g>
		<title>Page-1</title>
		<g id="group6034-1" transform="translate(34,-35.7165)">
			<title>StorSimple Device Manager.6034</title>
			<desc>StorSimple Device Manager</desc>
			<g id="group6035-2">
				<title>Sheet.6035</title>
				<g id="shape6036-3" transform="translate(0,-11.6003)">
					<title>Sheet.6036</title>
					<path d="M56.69 108.38 A12.7874 12.5397 -180 0 0 45.64 96.37 A16.063 15.7518 -180 0 0 29.1 81.32 A16.4724 16.1534
								 -180 0 0 13.35 91.86 A15.1811 14.887 -180 0 0 0 106.19 A15.4331 15.1341 -180 0 0 15.97 120.73 L43.21
								 120.73 A4.59843 4.50935 -180 0 0 43.91 120.73 A12.9134 12.6632 -180 0 0 56.69 108.38 Z"
							class="st1"/>
				</g>
				<g id="shape6037-7" transform="translate(29.0709,4.26326E-14)">
					<title>Sheet.6037</title>
					<path d="M0 119.82 a0.944904 0.926601 -180 0 0 0.944882 0.926579 L12.44 120.75 a0.944904 0.926601 -180 0 0 0.944882
								 -0.926579 L13.39 118.89 a0.944904 0.926601 -180 0 0 -0.944882 -0.926579 L0.94 117.97 a0.944904 0.926601
								 -180 0 0 -0.944882 0.926579 L0 119.82 Z" class="st2"/>
				</g>
				<g id="shape6038-9" transform="translate(29.0709,-5.89922)">
					<title>Sheet.6038</title>
					<path d="M0 119.82 a0.944904 0.926601 -180 0 0 0.944882 0.926579 L12.44 120.75 a0.944904 0.926601 -180 0 0 0.944882
								 -0.926579 L13.39 118.89 a0.944904 0.926601 -180 0 0 -0.944882 -0.926579 L0.94 117.97 a0.944904 0.926601
								 -180 0 0 -0.944882 0.926579 L0 119.82 Z" class="st3"/>
				</g>
				<g id="shape6039-11" transform="translate(29.0709,-11.7676)">
					<title>Sheet.6039</title>
					<path d="M0 119.82 a0.944904 0.926601 -180 0 0 0.944882 0.926579 L12.44 120.75 a0.944904 0.926601 -180 0 0 0.944882
								 -0.926579 L13.39 118.89 a0.944904 0.926601 -180 0 0 -0.944882 -0.926579 L0.94 117.97 a0.944904 0.926601
								 -180 0 0 -0.944882 0.926579 L0 119.82 Z" class="st4"/>
				</g>
				<g id="shape6040-13" transform="translate(15.5906,-26.4384)">
					<title>Sheet.6040</title>
					<path d="M0 119.82 a0.944904 0.926601 -180 0 0 0.944882 0.926579 L12.44 120.75 a0.944904 0.926601 -180 0 0 0.944882
								 -0.926579 L13.39 118.89 a0.944904 0.926601 -180 0 0 -0.944882 -0.926579 L0.94 117.97 a0.944904 0.926601
								 -180 0 0 -0.944882 0.926579 L0 119.82 Z" class="st5"/>
				</g>
				<g id="shape6041-15" transform="translate(15.5906,-21.0333)">
					<title>Sheet.6041</title>
					<path d="M0 119.82 a0.944904 0.926601 -180 0 0 0.944882 0.926579 L12.44 120.75 a0.944904 0.926601 -180 0 0 0.944882
								 -0.926579 L13.39 118.89 a0.944904 0.926601 -180 0 0 -0.944882 -0.926579 L0.94 117.97 a0.944904 0.926601
								 -180 0 0 -0.944882 0.926579 L0 119.82 Z" class="st5"/>
				</g>
				<g id="shape6042-17" transform="translate(15.5906,-15.5974)">
					<title>Sheet.6042</title>
					<path d="M0 119.82 a0.944904 0.926601 -180 0 0 0.944882 0.926579 L12.44 120.75 a0.944904 0.926601 -180 0 0 0.944882
								 -0.926579 L13.39 118.89 a0.944904 0.926601 -180 0 0 -0.944882 -0.926579 L0.94 117.97 a0.944904 0.926601
								 -180 0 0 -0.944882 0.926579 L0 119.82 Z" class="st5"/>
				</g>
			</g>
			<g id="shape6034-19">
				<g id="shadow6034-20" transform="matrix(1,0,0,1,1.41732,1.41732)" class="st6"/>
				<text x="-16.58" y="135.6" class="st7">StorSimple Device Manager</text>			</g>
		</g>
	</g>
</svg>
