<?xml version="1.0" encoding="UTF-8" standalone="no"?>
<!DOCTYPE svg PUBLIC "-//W3C//DTD SVG 1.1//EN" "http://www.w3.org/Graphics/SVG/1.1/DTD/svg11.dtd">
<!-- Generated by Microsoft Visio, SVG Export Database Server Generic.svg Page-1 -->
<svg xmlns="http://www.w3.org/2000/svg" xmlns:xlink="http://www.w3.org/1999/xlink" xmlns:ev="http://www.w3.org/2001/xml-events"
		width="1.56222in" height="1.75929in" viewBox="0 0 112.48 126.669" xml:space="preserve" color-interpolation-filters="sRGB"
		class="st8">
	<style type="text/css">
	<![CDATA[
		.st1 {fill:url(#grad0-11);stroke:none;stroke-linecap:butt;stroke-width:35.9597}
		.st2 {fill:#003067;stroke:none;stroke-linecap:butt;stroke-width:35.9597}
		.st3 {fill:#50e6ff;stroke:none;stroke-linecap:butt;stroke-width:35.9597}
		.st4 {fill:url(#grad0-30);stroke:none;stroke-linecap:butt;stroke-width:34}
		.st5 {fill:#e8e8e8;stroke:none;stroke-linecap:butt;stroke-width:34}
		.st6 {fill:#50e6ff;stroke:none;stroke-linecap:butt;stroke-width:34}
		.st7 {fill:#198ab3;stroke:none;stroke-linecap:butt;stroke-width:34}
		.st8 {fill:none;fill-rule:evenodd;font-size:12px;overflow:visible;stroke-linecap:square;stroke-miterlimit:3}
	]]>
	</style>

	<defs id="Patterns_And_Gradients">
		<linearGradient id="grad0-11" x1="0" y1="0" x2="1" y2="0" gradientTransform="rotate(-90 0.5 0.5)">
			<stop offset="0" stop-color="#949494" stop-opacity="1"/>
			<stop offset="0.53" stop-color="#a2a2a2" stop-opacity="1"/>
			<stop offset="1" stop-color="#b3b3b3" stop-opacity="1"/>
		</linearGradient>
		<linearGradient id="grad0-30" x1="0" y1="0" x2="1" y2="0" gradientTransform="rotate(0 0.5 0.5)">
			<stop offset="0" stop-color="#005ba1" stop-opacity="1"/>
			<stop offset="0.07" stop-color="#0060a9" stop-opacity="1"/>
			<stop offset="0.36" stop-color="#0071c8" stop-opacity="1"/>
			<stop offset="0.52" stop-color="#0078d4" stop-opacity="1"/>
			<stop offset="0.64" stop-color="#0074cd" stop-opacity="1"/>
			<stop offset="0.82" stop-color="#006abb" stop-opacity="1"/>
			<stop offset="1" stop-color="#005ba1" stop-opacity="1"/>
		</linearGradient>
	</defs>
	<g>
		<title>Page-1</title>
		<g id="group15054-1" transform="translate(35.9599,-34.0157)">
			<title>Database Server Generic.15054</title>
			<g id="group15055-2">
				<title>Page-1</title>
				<g id="group15056-3">
					<title>Sheet.15056</title>
					<g id="group15057-4" transform="translate(0,-2.2952)">
						<title>Sheet.15057</title>
						<g id="group15058-5">
							<title>Icon-databases-136.149</title>
							<g id="group15059-6">
								<title>path4-5</title>
								<g id="group15060-7">
									<title>Sheet.15060</title>
									<g id="shape15061-8">
										<title>Sheet.15061</title>
										<path d="M30.79 124.82 A1.88724 1.81867 90 0 1 29.01 126.67 L1.78 126.67 A1.85469 1.78732
													 90 0 1 0 124.82 L0 74.12 A1.82216 1.75596 90 0 1 1.78 72.27 L29.01 72.27 A1.85469
													 1.78732 90 0 1 30.79 74.12 L30.79 124.82 Z" class="st1"/>
									</g>
								</g>
							</g>
							<g id="group15062-12" transform="translate(4.51533,-31.8551)">
								<title>path6-7</title>
								<g id="group15063-13">
									<title>Sheet.15063</title>
									<g id="shape15064-14">
										<title>Sheet.15064</title>
										<path d="M-0 123.19 A3.48163 3.35514 90 0 1 3.33 119.74 L18.69 119.74 A3.48163 3.35514 90
													 0 1 22.13 123.19 A3.48163 3.35514 90 0 1 18.69 126.67 L3.33 126.67 A3.48163
													 3.35514 90 0 1 0 123.19 ZM0 112.91 A3.48163 3.35514 90 0 1 3.33 109.43 L18.69
													 109.43 A3.48163 3.35514 90 0 1 22.13 112.91 A3.48163 3.35514 90 0 1 18.69 116.36
													 L3.33 116.36 A3.48163 3.35514 90 0 1 -0 112.91 Z" class="st2"/>
									</g>
								</g>
							</g>
							<g id="group15065-16" transform="translate(5.76958,-43.2737)">
								<title>circle8-5</title>
								<g id="group15066-17">
									<title>Sheet.15066</title>
									<g id="shape15067-18">
										<title>Sheet.15067</title>
										<ellipse cx="2.25766" cy="124.326" rx="2.25766" ry="2.34278" class="st3"/>
									</g>
								</g>
							</g>
							<g id="group15068-20" transform="translate(5.76958,-32.9916)">
								<title>circle10-2</title>
								<g id="group15069-21">
									<title>Sheet.15069</title>
									<g id="shape15070-22">
										<title>Sheet.15070</title>
										<ellipse cx="2.25766" cy="124.326" rx="2.25766" ry="2.34278" class="st3"/>
									</g>
								</g>
							</g>
						</g>
					</g>
					<g id="group15071-24" transform="translate(19.3456,-2.84217E-13)">
						<title>SQL Database</title>
						<g id="group15072-25">
							<title>Sheet.15072</title>
							<g id="group15073-26">
								<title>Sheet.15073</title>
								<g id="shape15074-27">
									<title>Sheet.15074</title>
									<path d="M11.59 103.47 C5.18 103.47 0 101.59 0 99.11 L0 122.31 C0 124.7 5.1 126.63 11.43 126.67
												 L11.59 126.67 C17.99 126.67 23.17 124.79 23.17 122.31 L23.17 99.11 C23.17 101.53
												 17.99 103.47 11.59 103.47 Z" class="st4"/>
								</g>
							</g>
							<g id="group15075-31" transform="translate(0,-23.2041)">
								<title>Sheet.15075</title>
								<g id="shape15076-32">
									<title>Sheet.15076</title>
									<path d="M23.17 122.31 C23.17 124.74 17.99 126.67 11.59 126.67 C5.18 126.67 0 124.79 0 122.31
												 C0 119.84 5.18 117.96 11.59 117.96 C17.99 117.96 23.17 119.84 23.17 122.31 Z"
											class="st5"/>
								</g>
							</g>
							<g id="group15077-34" transform="translate(2.69393,-25.1377)">
								<title>Sheet.15077</title>
								<g id="shape15078-35">
									<title>Sheet.15078</title>
									<path d="M17.79 123.89 C17.79 125.43 13.8 126.67 8.89 126.67 C4 126.67 0 125.43 0 123.89 C0 122.35
												 4 121.13 8.89 121.13 C13.8 121.13 17.79 122.37 17.79 123.89 Z" class="st6"/>
								</g>
							</g>
							<g id="group15079-37" transform="translate(4.55617,-25.1377)">
								<title>Sheet.15079</title>
								<g id="shape15080-38">
									<title>Sheet.15080</title>
									<path d="M7.03 124.59 A21.6834 20.8824 -90 0 0 -0 125.65 A21.4394 20.6474 -90 0 0 7.03 126.67
												 A20.9324 20.1592 -90 0 0 14.07 125.58 A22.2278 21.4067 -90 0 0 7.03 124.59 Z"
											class="st7"/>
								</g>
							</g>
						</g>
					</g>
				</g>
			</g>
		</g>
	</g>
</svg>
