<?xml version="1.0" encoding="UTF-8" standalone="no"?>
<!DOCTYPE svg PUBLIC "-//W3C//DTD SVG 1.1//EN" "http://www.w3.org/Graphics/SVG/1.1/DTD/svg11.dtd">
<!-- Generated by Microsoft Visio, SVG Export Web Server.svg Page-1 -->
<svg xmlns="http://www.w3.org/2000/svg" xmlns:xlink="http://www.w3.org/1999/xlink" xmlns:ev="http://www.w3.org/2001/xml-events"
		width="1.66086in" height="1.77897in" viewBox="0 0 119.582 128.086" xml:space="preserve" color-interpolation-filters="sRGB"
		class="st7">
	<style type="text/css">
	<![CDATA[
		.st1 {fill:url(#grad0-11);stroke:none;stroke-linecap:butt;stroke-width:35.9595}
		.st2 {fill:#003067;stroke:none;stroke-linecap:butt;stroke-width:35.9595}
		.st3 {fill:#50e6ff;stroke:none;stroke-linecap:butt;stroke-width:35.9595}
		.st4 {fill:url(#grad7-31);stroke:none;stroke-linecap:butt;stroke-width:35.4332}
		.st5 {fill:#83b9f9;stroke:none;stroke-linecap:butt;stroke-width:35.4332}
		.st6 {fill:#f2f2f2;stroke:none;stroke-linecap:butt;stroke-width:35.4332}
		.st7 {fill:none;fill-rule:evenodd;font-size:12px;overflow:visible;stroke-linecap:square;stroke-miterlimit:3}
	]]>
	</style>

	<defs id="Patterns_And_Gradients">
		<linearGradient id="grad0-11" x1="0" y1="0" x2="1" y2="0" gradientTransform="rotate(-90 0.5 0.5)">
			<stop offset="0" stop-color="#949494" stop-opacity="1"/>
			<stop offset="0.53" stop-color="#a2a2a2" stop-opacity="1"/>
			<stop offset="1" stop-color="#b3b3b3" stop-opacity="1"/>
		</linearGradient>
		<radialGradient id="grad7-31" cx="0" cy="0" r="1.4">
			<stop offset="0.185" stop-color="#5ea0ef" stop-opacity="1"/>
			<stop offset="1" stop-color="#0078d4" stop-opacity="1"/>
		</radialGradient>
	</defs>
	<g>
		<title>Page-1</title>
		<g id="group14277-1" transform="translate(35.9598,-35.4332)">
			<title>Web Server.14277</title>
			<g id="group14278-2">
				<title>Page-1</title>
				<g id="group14279-3">
					<title>Sheet.14279</title>
					<g id="group14280-4" transform="translate(-2.45803E-13,-2.63817)">
						<title>Sheet.14280</title>
						<g id="group14281-5">
							<title>Icon-databases-136.149</title>
							<g id="group14282-6">
								<title>path4-5</title>
								<g id="group14283-7">
									<title>Sheet.14283</title>
									<g id="shape14284-8">
										<title>Sheet.14284</title>
										<path d="M31.93 126.25 A1.88574 1.87534 -180 0 1 30.08 128.09 L1.85 128.09 A1.85323 1.843
													 -180 0 1 -0 126.25 L0 75.87 A1.82071 1.81067 -180 0 1 1.85 74.03 L30.08 74.03
													 A1.85323 1.843 -180 0 1 31.93 75.87 L31.93 126.25 Z" class="st1"/>
									</g>
								</g>
							</g>
							<g id="group14285-12" transform="translate(4.68184,-31.6543)">
								<title>path6-7</title>
								<g id="group14286-13">
									<title>Sheet.14286</title>
									<g id="shape14287-14">
										<title>Sheet.14287</title>
										<path d="M-0 124.63 A3.47886 3.45967 -180 0 1 3.45 121.2 L19.38 121.2 A3.47886 3.45967 -180
													 0 1 22.95 124.63 A3.47886 3.45967 -180 0 1 19.38 128.09 L3.45 128.09 A3.47886
													 3.45967 -180 0 1 -0 124.63 ZM0 114.41 A3.47886 3.45967 -180 0 1 3.45 110.96
													 L19.38 110.96 A3.47886 3.45967 -180 0 1 22.95 114.41 A3.47886 3.45967 -180 0
													 1 19.38 117.85 L3.45 117.85 A3.47886 3.45967 -180 0 1 0 114.41 Z" class="st2"/>
									</g>
								</g>
							</g>
							<g id="group14288-16" transform="translate(5.98234,-42.9999)">
								<title>circle8-5</title>
								<g id="group14289-17">
									<title>Sheet.14289</title>
									<g id="shape14290-18">
										<title>Sheet.14290</title>
										<ellipse cx="2.34091" cy="125.758" rx="2.34091" ry="2.32801" class="st3"/>
									</g>
								</g>
							</g>
							<g id="group14291-20" transform="translate(5.98234,-32.7826)">
								<title>circle10-2</title>
								<g id="group14292-21">
									<title>Sheet.14292</title>
									<g id="shape14293-22">
										<title>Sheet.14293</title>
										<ellipse cx="2.34091" cy="125.758" rx="2.34091" ry="2.32801" class="st3"/>
									</g>
								</g>
							</g>
						</g>
					</g>
					<g id="group14294-24" transform="translate(15.4162,2.84217E-13)">
						<title>Application Service.568</title>
						<g id="group14295-25">
							<title>g22</title>
							<g id="group14296-26">
								<title>path59</title>
								<g id="group14297-27">
									<title>Sheet.14297</title>
									<g id="shape14298-28">
										<title>Sheet.14298</title>
										<ellipse cx="16.3864" cy="112.053" rx="16.3864" ry="16.0328" class="st4"/>
									</g>
								</g>
							</g>
							<g id="group14299-32" transform="translate(2.28239,-4.97826)">
								<title>path4-3</title>
								<g id="group14300-33">
									<title>Sheet.14300</title>
									<g id="shape14301-34">
										<title>Sheet.14301</title>
										<path d="M1.6 120.18 C0.93 121.78 0.41 123.5 0 125.18 C0.36 125.78 0.75 126.3 1.19 126.86
													 C1.52 127.28 1.87 127.7 2.24 128.09 C2.72 125.85 3.42 123.64 4.34 121.54 C3.3
													 121.36 2.35 120.9 1.6 120.18 ZM3.48 111.65 C2.79 109.86 2.35 107.99 2.14 106.09
													 C1.34 106.92 0.65 107.8 0.05 108.79 C0.27 110.3 0.64 111.86 1.14 113.31 C1.74
													 112.54 2.55 111.98 3.48 111.65 Z" class="st5"/>
									</g>
								</g>
							</g>
							<g id="group14302-36" transform="translate(8.50013,-4.28045)">
								<title>path8-3</title>
								<g id="group14303-37">
									<title>Sheet.14303</title>
									<g id="shape14304-38">
										<title>Sheet.14304</title>
										<path d="M6.69 125.18 C6.69 124.27 7.06 123.41 7.73 122.78 C5.95 121.83 4.33 120.66 2.87
													 119.29 C2.1 120.1 1.1 120.63 0 120.84 C0.86 121.72 1.79 122.54 2.78 123.26 C4.01
													 124.16 5.33 124.96 6.72 125.61 C6.7 125.46 6.69 125.32 6.69 125.18 ZM18.79 125.58
													 C17.01 125.58 15.24 125.37 13.51 124.97 C13.51 125.04 13.52 125.1 13.52 125.18
													 C13.52 126.05 13.17 126.88 12.54 127.51 C14.69 127.93 16.95 128.09 19.14 127.98
													 C19.96 127.22 20.71 126.34 21.37 125.43 C20.53 125.52 19.64 125.58 18.8 125.58
													 L18.79 125.58 Z" class="st5"/>
									</g>
								</g>
							</g>
							<g id="group14305-40" transform="translate(9.38453,-16.1194)">
								<title>path12-4</title>
								<g id="group14306-41">
									<title>Sheet.14306</title>
									<g id="shape14307-42">
										<title>Sheet.14307</title>
										<path d="M8.29 120.9 C11.84 119.14 15.82 118.18 19.78 118.13 C18.95 117.11 17.99 116.21 16.93
													 115.41 C13.83 115.61 10.7 116.35 7.84 117.53 C7.21 117.8 6.6 118.1 5.99 118.42
													 C4.53 116.72 3.17 114.84 2.1 112.89 C1.39 113.11 0.75 113.34 0.08 113.65 C1.19
													 115.72 2.54 117.74 4.07 119.53 C2.59 120.49 1.22 121.58 0 122.83 C1.08 123.22
													 1.98 123.95 2.59 124.9 C3.71 123.81 4.96 122.84 6.29 122.01 C8.48 124.24 10.86
													 126.27 13.4 128.09 C13.58 127.36 13.99 126.72 14.58 126.24 C12.33 124.62 10.23
													 122.84 8.29 120.9 Z" class="st5"/>
									</g>
								</g>
							</g>
							<g id="group14308-44" transform="translate(22.7503,-11.9252)">
								<title>circle14-8</title>
								<g id="group14309-45">
									<title>Sheet.14309</title>
									<g id="shape14310-46">
										<title>Sheet.14310</title>
										<ellipse cx="3.62405" cy="124.54" rx="3.62405" ry="3.54585" class="st6"/>
									</g>
								</g>
							</g>
							<g id="group14311-48" transform="translate(2.27477,-11.4356)">
								<title>circle18-3</title>
								<g id="group14312-49">
									<title>Sheet.14312</title>
									<g id="shape14313-50">
										<title>Sheet.14313</title>
										<ellipse cx="5.25246" cy="122.947" rx="5.25246" ry="5.13914" class="st6"/>
									</g>
								</g>
							</g>
							<g id="group14314-52" transform="translate(15.1849,-3.8515)">
								<title>circle20-2</title>
								<g id="group14315-53">
									<title>Sheet.14315</title>
									<g id="shape14316-54">
										<title>Sheet.14316</title>
										<ellipse cx="3.41257" cy="124.747" rx="3.41257" ry="3.33893" class="st6"/>
									</g>
								</g>
							</g>
						</g>
					</g>
				</g>
			</g>
		</g>
	</g>
</svg>
