<?xml version="1.0" encoding="UTF-8" standalone="no"?>
<!DOCTYPE svg PUBLIC "-//W3C//DTD SVG 1.1//EN" "http://www.w3.org/Graphics/SVG/1.1/DTD/svg11.dtd">
<!-- Generated by Microsoft Visio, SVG Export Azure Cache for Redis.svg Page-1 -->
<svg xmlns="http://www.w3.org/2000/svg" xmlns:xlink="http://www.w3.org/1999/xlink" xmlns:ev="http://www.w3.org/2001/xml-events"
		width="1.73185in" height="1.57437in" viewBox="0 0 124.693 113.354" xml:space="preserve" color-interpolation-filters="sRGB"
		class="st9">
	<style type="text/css">
	<![CDATA[
		.st1 {fill:url(#grad0-6);stroke:none;stroke-linecap:butt;stroke-width:34}
		.st2 {fill:#e8e8e8;stroke:none;stroke-linecap:butt;stroke-width:34}
		.st3 {fill:#50e6ff;stroke:none;stroke-linecap:butt;stroke-width:34}
		.st4 {fill:#32bedd;stroke:none;stroke-linecap:butt;stroke-width:34}
		.st5 {fill:#50e6ff}
		.st6 {stroke:none;stroke-linecap:butt;stroke-width:34}
		.st7 {visibility:visible}
		.st8 {fill:#000000;font-family:Calibri;font-size:0.666664em}
		.st9 {fill:none;fill-rule:evenodd;font-size:12px;overflow:visible;stroke-linecap:square;stroke-miterlimit:3}
	]]>
	</style>

	<defs id="Patterns_And_Gradients">
		<linearGradient id="grad0-6" x1="0" y1="0" x2="1" y2="0" gradientTransform="rotate(0 0.5 0.5)">
			<stop offset="0" stop-color="#005ba1" stop-opacity="1"/>
			<stop offset="0.07" stop-color="#0060a9" stop-opacity="1"/>
			<stop offset="0.36" stop-color="#0071c8" stop-opacity="1"/>
			<stop offset="0.52" stop-color="#0078d4" stop-opacity="1"/>
			<stop offset="1" stop-color="#005ba1" stop-opacity="1"/>
		</linearGradient>
	</defs>
	<g>
		<title>Page-1</title>
		<g id="group8435-1" transform="translate(34,-34)">
			<title>Azure Cache for Redis.8435</title>
			<desc>Azure Cache for Redis</desc>
			<g id="group8436-2">
				<title>Icon-databases-137</title>
				<g id="shape8437-3" transform="translate(30.0139,-14.8236)">
					<title>Sheet.8437</title>
					<path d="M13.34 91.17 C5.97 91.17 0 89.3 0 86.98 L0 109.2 C0 111.46 5.87 113.32 13.17 113.35 L13.34 113.35 C20.71
								 113.35 26.68 111.49 26.68 109.2 L26.68 86.98 C26.68 89.3 20.71 91.17 13.34 91.17 Z" class="st1"/>
				</g>
				<g id="shape8438-7" transform="translate(30.0139,-37.0099)">
					<title>Sheet.8438</title>
					<path d="M26.68 109.17 C26.68 111.49 20.71 113.35 13.34 113.35 C5.97 113.35 0 111.49 0 109.17 C0 106.84 5.97
								 105.01 13.34 105.01 C20.71 105.01 26.68 106.88 26.68 109.17 Z" class="st2"/>
				</g>
				<g id="shape8439-9" transform="translate(33.1153,-38.8751)">
					<title>Sheet.8439</title>
					<path d="M20.48 110.7 C20.48 112.18 15.87 113.35 10.24 113.35 C4.6 113.35 0 112.18 0 110.7 C0 109.23 4.6 108.05
								 10.24 108.05 C15.87 108.05 20.48 109.23 20.48 110.7 Z" class="st3"/>
				</g>
				<g id="shape8440-11" transform="translate(35.2497,-38.8751)">
					<title>Sheet.8440</title>
					<path d="M8.1 111.33 A28.8467 28.3056 -180 0 0 -0 112.31 A26.012 25.5241 -180 0 0 8.1 113.35 A26.012 25.5241
								 -180 0 0 16.21 112.31 A28.8467 28.3056 -180 0 0 8.1 111.33 Z" class="st4"/>
				</g>
				<g id="shape8441-13" transform="translate(0,-14.8236)">
					<title>Sheet.8441</title>
					<path d="M13.34 91.17 C5.97 91.17 0 89.3 0 86.98 L0 109.2 C0 111.46 5.87 113.32 13.34 113.35 C20.71 113.35 26.68
								 111.49 26.68 109.2 L26.68 86.98 C26.68 89.3 20.71 91.17 13.34 91.17 Z" class="st1"/>
				</g>
				<g id="shape8442-16" transform="translate(0,-37.0099)">
					<title>Sheet.8442</title>
					<path d="M26.68 109.17 C26.68 111.49 20.71 113.35 13.34 113.35 C5.97 113.35 0 111.49 0 109.17 C0 106.84 5.97
								 105.01 13.34 105.01 C20.71 105.01 26.68 106.88 26.68 109.17 Z" class="st2"/>
				</g>
				<g id="shape8443-18" transform="translate(3.10144,-38.8751)">
					<title>Sheet.8443</title>
					<path d="M20.48 110.7 C20.48 112.18 15.87 113.35 10.24 113.35 C4.6 113.35 0 112.18 0 110.7 C0 109.23 4.6 108.05
								 10.24 108.05 C15.87 108.05 20.48 109.23 20.48 110.7 Z" class="st3"/>
				</g>
				<g id="shape8444-20" transform="translate(5.23576,-38.8751)">
					<title>Sheet.8444</title>
					<path d="M8.1 111.33 A28.8467 28.3056 -180 0 0 0 112.31 A26.012 25.5241 -180 0 0 8.1 113.35 A26.012 25.5241 -180
								 0 0 16.21 112.31 A28.8467 28.3056 -180 0 0 8.1 111.33 Z" class="st4"/>
				</g>
				<g id="shape8445-22" transform="translate(15.0069,0)">
					<title>Sheet.8445</title>
					<path d="M13.34 91.17 C5.97 91.17 0 89.3 0 86.98 L0 109.2 C0 111.49 5.87 113.32 13.17 113.35 L13.34 113.35 C20.71
								 113.35 26.68 111.49 26.68 109.2 L26.68 86.98 C26.68 89.3 20.71 91.17 13.34 91.17 Z" class="st1"/>
				</g>
				<g id="shape8446-25" transform="translate(15.0069,-22.1863)">
					<title>Sheet.8446</title>
					<path d="M26.68 109.17 C26.68 111.49 20.71 113.35 13.34 113.35 C5.97 113.35 0 111.49 0 109.17 C0 106.84 5.97
								 105.01 13.34 105.01 C20.71 105.01 26.68 106.88 26.68 109.17 Z" class="st2"/>
				</g>
				<g id="shape8447-27" transform="translate(18.1084,-24.0515)">
					<title>Sheet.8447</title>
					<path d="M20.48 110.7 C20.48 112.18 15.87 113.35 10.24 113.35 C4.6 113.35 0 112.18 0 110.7 C0 109.23 4.6 108.18
								 10.24 108.18 C15.87 108.18 20.48 109.36 20.48 110.83 L20.48 110.7 Z" class="st5"/>
					<path d="M20.48 110.7 C20.48 112.18 15.87 113.35 10.24 113.35 C4.6 113.35 0 112.18 0 110.7 C0 109.23 4.6 108.18
								 10.24 108.18 C15.87 108.18 20.48 109.36 20.48 110.83" class="st6"/>
				</g>
				<g id="shape8448-30" transform="translate(20.2427,-24.0515)">
					<title>Sheet.8448</title>
					<path d="M8.1 111.46 A28.8467 28.3056 -180 0 0 0 112.44 A26.012 25.5241 -180 0 0 8.1 113.35 A26.012 25.5241 -180
								 0 0 16.21 112.31 A28.8467 28.3056 -180 0 0 8.1 111.46 Z" class="st4"/>
				</g>
			</g>
			<g id="shape8435-32">
				<g id="shadow8435-33" transform="matrix(1,0,0,1,1.41732,1.41732)" class="st7"/>
				<text x="-7.05" y="127.36" class="st8">Azure Cache for Redis</text>			</g>
		</g>
	</g>
</svg>
