<?xml version="1.0" encoding="UTF-8" standalone="no"?>
<!DOCTYPE svg PUBLIC "-//W3C//DTD SVG 1.1//EN" "http://www.w3.org/Graphics/SVG/1.1/DTD/svg11.dtd">
<!-- Generated by Microsoft Visio, SVG Export Bastion.svg Page-1 -->
<svg xmlns="http://www.w3.org/2000/svg" xmlns:xlink="http://www.w3.org/1999/xlink" xmlns:ev="http://www.w3.org/2001/xml-events"
		width="1.11741in" height="1.4992in" viewBox="0 0 80.4536 107.943" xml:space="preserve" color-interpolation-filters="sRGB"
		class="st4">
	<style type="text/css">
	<![CDATA[
		.st1 {fill:#0072c6;stroke:none;stroke-linecap:butt;stroke-width:12.24}
		.st2 {visibility:visible}
		.st3 {fill:#000000;font-family:Calibri;font-size:0.666664em}
		.st4 {fill:none;fill-rule:evenodd;font-size:12px;overflow:visible;stroke-linecap:square;stroke-miterlimit:3}
	]]>
	</style>

	<g>
		<title>Page-1</title>
		<g id="group8653-1" transform="translate(12.0002,-39.685)">
			<title>Bastion.8653</title>
			<desc>Bastion</desc>
			<g id="group8654-2">
				<title>Sheet.8654</title>
				<g id="shape8655-3">
					<title>Sheet.8655</title>
					<path d="M25.13 93.38 C17.81 98.38 6.09 106.05 4.96 106.94 C3.49 107.94 1.35 107.5 0.68 106.61 C0 105.61 0 103.5
								 1.47 102.5 C2.37 101.94 17.81 91.6 22.54 88.38 L25.25 91.27 C26.49 92.49 25.13 93.38 25.13 93.38
								 ZM24.8 86.38 C24.8 86.38 11.27 72.04 9.69 70.48 C8.23 68.81 9.58 66.92 10.37 66.26 C11.16 65.59
								 13.53 64.59 14.76 65.81 C16 67.03 31.11 83.04 32.23 84.27 C33.36 85.49 33.25 87.38 31.33 88.71 C31
								 88.93 30.09 89.6 28.74 90.49 C28.63 90.6 28.06 91.05 27.5 91.38 C27.5 91.38 28.74 90.49 27.84 89.49
								 L24.8 86.38 ZM34.49 76.93 C40.58 83.38 50.04 93.49 51.06 94.49 C52.3 95.83 54.44 95.83 55.34 95.05
								 C56.24 94.27 56.69 92.27 55.45 90.93 C54.78 90.16 42.04 76.71 38.21 72.59 L34.94 74.82 C33.36 75.71
								 34.49 76.93 34.49 76.93 ZM35.84 70.37 C35.84 70.37 52.18 59.14 53.99 57.81 C55.79 56.47 54.89 54.36
								 54.21 53.58 C53.54 52.81 51.51 51.25 50.04 52.25 C48.58 53.25 30.43 65.7 29.08 66.7 C27.73 67.7
								 27.39 69.48 29.08 71.26 C29.3 71.59 30.09 72.37 31.22 73.59 C31.33 73.7 31.78 74.26 32.23 74.71
								 C32.23 74.71 31.22 73.59 32.35 72.82 L35.84 70.37 Z" class="st1"/>
				</g>
			</g>
			<g id="shape8653-5">
				<g id="shadow8653-6" transform="matrix(1,0,0,1,1.41732,1.41732)" class="st2"/>
				<text x="16.22" y="123.65" class="st3">Bastion</text>			</g>
		</g>
	</g>
</svg>
