<?xml version="1.0" encoding="UTF-8" standalone="no"?>
<!DOCTYPE svg PUBLIC "-//W3C//DTD SVG 1.1//EN" "http://www.w3.org/Graphics/SVG/1.1/DTD/svg11.dtd">
<!-- Generated by Microsoft Visio, SVG Export Geo Replication.svg Page-1 -->
<svg xmlns="http://www.w3.org/2000/svg" xmlns:xlink="http://www.w3.org/1999/xlink" xmlns:ev="http://www.w3.org/2001/xml-events"
		width="1.00243in" height="1.50155in" viewBox="0 0 72.1746 108.112" xml:space="preserve" color-interpolation-filters="sRGB"
		class="st7">
	<style type="text/css">
	<![CDATA[
		.st1 {fill:#ff8c00;stroke:none;stroke-linecap:butt;stroke-width:12.24}
		.st2 {fill:#fcd116;stroke:none;stroke-linecap:butt;stroke-width:12.24}
		.st3 {fill:#59b4d9;stroke:#59b4d9;stroke-linecap:butt;stroke-width:2.83968}
		.st4 {fill:#b8d432;stroke:none;stroke-linecap:butt;stroke-width:12.24}
		.st5 {visibility:visible}
		.st6 {fill:#000000;font-family:Calibri;font-size:0.666664em}
		.st7 {fill:none;fill-rule:evenodd;font-size:12px;overflow:visible;stroke-linecap:square;stroke-miterlimit:3}
	]]>
	</style>

	<g>
		<title>Page-1</title>
		<g id="group8364-1" transform="translate(11.7456,-39.685)">
			<title>Geo Replication.8364</title>
			<desc>Geo Replication</desc>
			<g id="group8365-2">
				<title>g14</title>
				<g id="shape8366-3" transform="translate(10.4008,7.10543E-14)">
					<title>path4</title>
					<path d="M13.02 97.27 L8.71 97.27 C9.75 103.77 6.15 104.71 0 104.71 L0 108.11 L20.92 108.11 L20.92 104.71 C14.77
								 104.71 11.98 103.78 13.02 97.27 Z" class="st1"/>
				</g>
				<g id="shape8367-5" transform="translate(10.403,2.84217E-14)">
					<title>path6</title>
					<rect x="0" y="104.705" width="20.9229" height="3.40706" class="st2"/>
				</g>
				<g id="shape8368-7" transform="translate(0.598702,-12.9686)">
					<title>path8</title>
					<path d="M22.8 99.65 A2.52919 2.60137 0 0 1 26.38 99.65 L22.38 95.54 A2.52926 2.60144 0 1 1 25.96 91.86 L27.02
								 92.95 L27.85 93.72 L29.8 95.73 A2.52926 2.60144 -180 0 0 33.38 92.05 L31.42 90.04 L30.18 88.77 L24.23
								 82.65 A2.52926 2.60144 0 1 1 27.81 78.97 L30.42 81.65 A2.52926 2.60144 0 1 1 33.99 77.97 L40.76
								 84.93 A20.3537 20.9345 -180 0 0 34.8 71.05 A20.3602 20.9413 -180 0 0 22.42 65 L25.45 68.13 A3.19132
								 3.28239 0 0 1 20.94 72.77 L18.87 70.63 A3.19132 3.28239 -180 0 0 14.35 75.28 L18.44 79.48 A3.19132
								 3.28239 0 0 1 13.93 84.12 L9.44 79.51 A3.19017 3.2812 0 0 1 4.28 83.19 L7.55 86.54 A3.19132 3.28239
								 0 0 1 3.04 91.19 L0 88.07 A20.357 20.9379 -180 0 0 5.88 100.8 C11.23 106.3 18.81 108.11 25.63 106.24
								 L22.8 103.33 A2.53137 2.60361 0 0 1 22.8 99.65 Z" class="st3"/>
				</g>
				<g id="shape8369-9" transform="translate(2.43805E-13,-14.843)">
					<title>path10</title>
					<path d="M41.36 86.81 L34.6 79.85 A2.52926 2.60144 -180 1 0 31.02 83.52 L28.41 80.84 A2.52926 2.60144 -180 1
								 0 24.83 84.52 L30.79 90.64 L32.02 91.91 L33.98 93.93 A2.52926 2.60144 0 0 1 30.4 97.61 L28.45 95.59
								 L27.62 94.82 L26.56 93.73 A2.52926 2.60144 -180 1 0 22.98 97.41 L26.98 101.52 A2.52926 2.60144 -180
								 0 0 23.4 105.2 L26.23 108.11 A20.3428 20.9233 -180 0 0 35.4 102.67 A20.4007 20.9829 -180 0 0 41.36
								 86.81 ZM8.15 93.06 A3.19017 3.2812 -180 0 0 8.15 88.42 L4.88 85.06 A3.19017 3.2812 -180 1 0 10.04
								 81.38 L14.53 85.99 A3.19132 3.28239 -180 0 0 19.04 81.35 L14.95 77.15 A3.19132 3.28239 0 1 1 19.46
								 72.5 L21.54 74.64 A3.19132 3.28239 -180 0 0 26.05 70 L23.02 66.88 C17.12 66.26 11 68.28 6.48 72.93
								 C1.96 77.58 0 83.87 0.6 89.94 L3.63 93.06 A3.19017 3.2812 -180 0 0 8.15 93.06 Z" class="st4"/>
				</g>
				<g id="shape8370-11" transform="translate(1.67047,-7.12875)">
					<title>path12</title>
					<path d="M19.27 108.11 C11.99 108.11 5.15 105.2 0 99.9 A1.9012 1.95545 0 1 1 2.69 97.14 A23.2926 23.9573 -180
								 0 0 19.27 104.2 A23.2926 23.9573 -180 0 0 35.85 97.14 C40.28 92.58 42.72 86.53 42.72 80.08 C42.72
								 73.64 40.28 67.59 35.85 63.03 A1.9012 1.95545 0 0 1 38.54 60.27 C43.68 65.56 46.52 72.6 46.52 80.08
								 C46.52 87.57 43.68 94.61 38.54 99.9 C33.39 105.2 26.55 108.11 19.27 108.11 Z" class="st2"/>
				</g>
			</g>
			<g id="shape8364-13">
				<g id="shadow8364-14" transform="matrix(1,0,0,1,1.41732,1.41732)" class="st5"/>
				<text x="-1.61" y="123.82" class="st6">Geo Replication</text>			</g>
		</g>
	</g>
</svg>
