<?xml version="1.0" encoding="UTF-8" standalone="no"?>
<!DOCTYPE svg PUBLIC "-//W3C//DTD SVG 1.1//EN" "http://www.w3.org/Graphics/SVG/1.1/DTD/svg11.dtd">
<!-- Generated by Microsoft Visio, SVG Export Internet Analyzer Profile.svg Page-1 -->
<svg xmlns="http://www.w3.org/2000/svg" xmlns:xlink="http://www.w3.org/1999/xlink" xmlns:ev="http://www.w3.org/2001/xml-events"
		width="1.73185in" height="1.8108in" viewBox="0 0 124.693 130.378" xml:space="preserve" color-interpolation-filters="sRGB"
		class="st8">
	<style type="text/css">
	<![CDATA[
		.st1 {fill:none;stroke:none;stroke-linecap:butt;stroke-width:34}
		.st2 {fill:url(#grad0-10);stroke:none;stroke-linecap:butt;stroke-width:34}
		.st3 {fill:#ffffff;stroke:none;stroke-linecap:butt;stroke-width:34}
		.st4 {fill:#50e6ff;stroke:none;stroke-linecap:butt;stroke-width:34}
		.st5 {fill:#86d633;stroke:none;stroke-linecap:butt;stroke-width:34}
		.st6 {visibility:visible}
		.st7 {fill:#000000;font-family:Calibri;font-size:0.666664em}
		.st8 {fill:none;fill-rule:evenodd;font-size:12px;overflow:visible;stroke-linecap:square;stroke-miterlimit:3}
	]]>
	</style>

	<defs id="Patterns_And_Gradients">
		<linearGradient id="grad0-10" x1="0" y1="0" x2="1" y2="0" gradientTransform="rotate(-90 0.5 0.5)">
			<stop offset="0" stop-color="#0078d4" stop-opacity="1"/>
			<stop offset="0.105" stop-color="#1480da" stop-opacity="1"/>
			<stop offset="0.305" stop-color="#348ee3" stop-opacity="1"/>
			<stop offset="0.5" stop-color="#4b98ea" stop-opacity="1"/>
			<stop offset="0.68" stop-color="#599eee" stop-opacity="1"/>
			<stop offset="0.84" stop-color="#5ea0ef" stop-opacity="1"/>
		</linearGradient>
	</defs>
	<g>
		<title>Page-1</title>
		<g id="group8572-1" transform="translate(34,-39.685)">
			<title>Internet Analyzer Profile.8572</title>
			<desc>Internet Analyzer Profile</desc>
			<g id="group8573-2">
				<title>Icon-469-Internet-Analyzer</title>
				<g id="shape8574-3">
					<title>Sheet.8574</title>
					<rect x="0" y="73.685" width="56.6929" height="56.6929" class="st1"/>
				</g>
				<g id="shape8575-5">
					<title>Sheet.8575</title>
					<rect x="0" y="73.685" width="56.6929" height="56.6929" class="st1"/>
				</g>
				<g id="shape8576-7" transform="translate(0.664567,-16.611)">
					<title>Sheet.8576</title>
					<path d="M53.42 118.52 A12.0031 12.0031 -180 0 0 43.01 106.99 A15.1181 15.1181 -180 0 0 27.43 92.52 A15.515 15.515
								 -180 0 0 12.6 102.63 A14.3213 14.3213 -180 0 0 -0 116.41 A14.5354 14.5354 -180 0 0 15.04 130.38
								 C15.49 130.38 15.93 130.36 16.37 130.32 L40.72 130.32 A2.42205 2.42205 -180 0 0 41.35 130.22 A12.1417
								 12.1417 -180 0 0 53.42 118.52 Z" class="st2"/>
				</g>
				<g id="shape8577-11" transform="translate(24.5134,-32.4504)">
					<title>Sheet.8577</title>
					<ellipse cx="4.15118" cy="126.227" rx="4.15118" ry="4.15118" class="st3"/>
				</g>
				<g id="shape8578-13" transform="translate(36.6488,-29.1024)">
					<title>Sheet.8578</title>
					<ellipse cx="3.32913" cy="127.033" rx="3.32913" ry="3.34488" class="st3"/>
				</g>
				<g id="shape8579-15" transform="translate(30.4913,-42.9827)">
					<title>Sheet.8579</title>
					<ellipse cx="2.32441" cy="128.054" rx="2.32441" ry="2.32441" class="st3"/>
				</g>
				<g id="shape8580-17" transform="translate(26.148,-2.20472)">
					<title>Sheet.8580</title>
					<path d="M28.79 130.38 L1.39 130.38 C0.51 130.38 0 128.98 0.49 128.26 L9.94 114.5 A1.10551 1.10551 -180 0 0 10.14
								 113.87 L10.14 104.78 a0.544882 0.544882 -180 0 0 -0.548031 -0.541732 L9.08 104.24 A1.08346 1.08346
								 0 0 1 8 103.15 L8 102.66 A1.08346 1.08346 0 0 1 9.08 101.58 L21.1 101.58 A1.08346 1.08346 0 0 1
								 22.18 102.66 L22.18 103.15 A1.08346 1.08346 0 0 1 21.1 104.24 L20.59 104.24 a0.541732 0.541732 -180
								 0 0 -0.541732 0.541732 L20.05 113.9 A1.06772 1.06772 -180 0 0 20.24 114.53 L29.69 128.26 C30.18
								 128.97 29.66 130.38 28.79 130.38 Z" class="st4"/>
				</g>
				<g id="shape8581-19" transform="translate(30.6621,-4.91654)">
					<title>Sheet.8581</title>
					<path d="M0.03 129.4 L7.21 118.94 A2.60472 2.60472 -180 0 0 7.67 117.46 L7.67 113.25 a0.834646 0.834646 0 0 1
								 0.834646 -0.834646 L12.57 112.41 a0.834646 0.834646 0 0 1 0.834646 0.834646 L13.4 117.74 A1.74173
								 1.74173 -180 0 0 13.72 118.74 L21.04 129.4 a0.629921 0.629921 0 0 1 -0.513386 0.979528 L0.55 130.38
								 a0.629921 0.629921 0 0 1 -0.513386 -0.979528 Z" class="st3"/>
				</g>
				<g id="shape8582-21" transform="translate(31.789,-5.8363)">
					<title>Sheet.8582</title>
					<path d="M5.85 126.87 L7.3 130.25 a0.207874 0.207874 -180 0 0 0.390551 -0.015748 L9.22 125.71 a0.207874 0.207874
								 0 0 1 0.384252 -0.0314961 L10.84 128.05 a0.211024 0.211024 -180 0 0 0.365354 2.84217E-14 L12.87
								 125.25 a0.207874 0.207874 0 0 1 0.182677 -0.103937 L16.38 125.14 L15.7 124.16 a0.207874 0.207874
								 -180 0 0 -0.173228 -0.0913386 L12.44 124.07 a0.211024 0.211024 -180 0 0 -0.182677 0.100787 L11.27
								 125.85 a0.207874 0.207874 0 0 1 -0.365354 -1.42109E-14 L9.39 122.97 a0.207874 0.207874 -180 0 0
								 -0.384252 0.0314961 L7.58 127.24 a0.207874 0.207874 0 0 1 -0.390551 0.015748 L5.97 124.43 a0.207874
								 0.207874 -180 0 0 -0.374803 0 L3.87 127.57 a0.211024 0.211024 0 0 1 -0.185827 0.107087 L0.85 127.68
								 a0.214173 0.214173 -180 0 0 -0.173228 0.0913386 L0 128.75 L4.31 128.75 a0.211024 0.211024 -180 0
								 0 0.185827 -0.107087 L5.47 126.87 a0.207874 0.207874 0 0 1 0.374803 0.00629921 Z" class="st5"/>
				</g>
			</g>
			<g id="shape8572-23">
				<g id="shadow8572-24" transform="matrix(1,0,0,1,1.41732,1.41732)" class="st6"/>
				<text x="-11.37" y="146.08" class="st7">Internet Analyzer Profile</text>			</g>
		</g>
	</g>
</svg>
