<?xml version="1.0" encoding="UTF-8" standalone="no"?>
<!DOCTYPE svg PUBLIC "-//W3C//DTD SVG 1.1//EN" "http://www.w3.org/Graphics/SVG/1.1/DTD/svg11.dtd">
<!-- Generated by Microsoft Visio, SVG Export Private Link.svg Page-1 -->
<svg xmlns="http://www.w3.org/2000/svg" xmlns:xlink="http://www.w3.org/1999/xlink" xmlns:ev="http://www.w3.org/2001/xml-events"
		width="1.1274in" height="1.44165in" viewBox="0 0 81.1729 103.799" xml:space="preserve" color-interpolation-filters="sRGB"
		class="st8">
	<style type="text/css">
	<![CDATA[
		.st1 {fill:#7a7a7a;stroke:none;stroke-linecap:butt;stroke-width:12.24}
		.st2 {fill:#1490df;stroke:none;stroke-linecap:butt;stroke-width:12.24}
		.st3 {fill:url(#grad0-10);stroke:none;stroke-linecap:butt;stroke-width:12.24}
		.st4 {fill:url(#grad0-14);stroke:none;stroke-linecap:butt;stroke-width:12.24}
		.st5 {fill:#50e6ff;stroke:none;stroke-linecap:butt;stroke-width:12.24}
		.st6 {visibility:visible}
		.st7 {fill:#000000;font-family:Calibri;font-size:0.666664em}
		.st8 {fill:none;fill-rule:evenodd;font-size:12px;overflow:visible;stroke-linecap:square;stroke-miterlimit:3}
	]]>
	</style>

	<defs id="Patterns_And_Gradients">
		<linearGradient id="grad0-10" x1="0" y1="0" x2="1" y2="0" gradientTransform="rotate(90 0.5 0.5)">
			<stop offset="0.23" stop-color="#5ea0ef" stop-opacity="1"/>
			<stop offset="0.32" stop-color="#5b9fee" stop-opacity="1"/>
			<stop offset="0.48" stop-color="#509aeb" stop-opacity="1"/>
			<stop offset="0.57" stop-color="#3f92e6" stop-opacity="1"/>
			<stop offset="0.75" stop-color="#2688df" stop-opacity="1"/>
			<stop offset="0.93" stop-color="#127fd9" stop-opacity="1"/>
		</linearGradient>
		<linearGradient id="grad0-14" x1="0" y1="0" x2="1" y2="0" gradientTransform="rotate(90 0.5 0.5)">
			<stop offset="0.02" stop-color="#5ea0ef" stop-opacity="1"/>
			<stop offset="0.14" stop-color="#5b9fee" stop-opacity="1"/>
			<stop offset="0.23" stop-color="#5b9fee" stop-opacity="1"/>
			<stop offset="0.34" stop-color="#509aeb" stop-opacity="1"/>
			<stop offset="0.44" stop-color="#3f92e6" stop-opacity="1"/>
			<stop offset="0.63" stop-color="#2688df" stop-opacity="1"/>
			<stop offset="0.93" stop-color="#127fd9" stop-opacity="1"/>
		</linearGradient>
	</defs>
	<g>
		<title>Page-1</title>
		<g id="group8465-1" transform="translate(12.24,-37.7008)">
			<title>Private Link.8465</title>
			<desc>Private Link</desc>
			<g id="group8466-2">
				<title>Artboard 1</title>
				<g id="shape8467-3" transform="translate(25.9891,-25.0122)">
					<title>Sheet.8467</title>
					<rect x="0" y="80.9878" width="3.53601" height="22.8113" class="st1"/>
				</g>
				<g id="shape8468-5" transform="translate(22.571,-43.2371)">
					<title>Sheet.8468</title>
					<path d="M10.37 98.49 A5.18614 5.31057 0 1 1 0 98.49 A5.18614 5.31057 0 0 1 10.37 98.49 Z" class="st2"/>
				</g>
				<g id="shape8469-7" transform="translate(14.3953,-11.7358)">
					<title>Sheet.8469</title>
					<path d="M12.65 89.32 L7 89.32 A7.07202 7.24168 -180 0 0 5.9 103.7 A7.55527 7.73653 0 0 1 5.97 101.01 A4.46716
								 4.57433 0 0 1 7 91.97 L12.65 91.97 A4.47894 4.5864 0 0 1 12.65 101.14 L11.1 101.14 A3.37099 3.45187
								 -180 0 0 10.77 102.59 A3.2767 3.35531 -180 0 0 10.99 103.8 L12.65 103.8 A7.07202 7.24168 -180 0
								 0 12.65 89.32 Z" class="st3"/>
				</g>
				<g id="shape8470-11" transform="translate(21.3923,-5.7011)">
					<title>Sheet.8470</title>
					<path d="M13.83 89.41 A8.25068 8.44863 0 0 1 13.91 90.52 A7.37847 7.55549 0 0 1 13.76 92.1 A4.46716 4.57433 0
								 0 1 12.73 101.14 L7.07 101.14 A4.47894 4.5864 0 1 1 7.07 91.97 L8.63 91.97 A3.32385 3.40359 -180
								 0 0 8.96 90.52 A3.2767 3.35531 -180 0 0 8.73 89.32 L7.07 89.32 A7.07202 7.24168 -180 0 0 7.07 103.8
								 L12.73 103.8 A7.07202 7.24168 -180 0 0 13.83 89.41 Z" class="st4"/>
				</g>
				<g id="shape8471-15" transform="translate(0,-1.05515)">
					<title>Sheet.8471</title>
					<path d="M17.57 102.19 L16.28 103.53 a0.884002 0.90521 0 0 1 -1.24939 0 L0.52 88.71 A1.77979 1.82249 0 0 1 0.52
								 86.14 L1.83 84.81 L17.57 100.92 a0.872215 0.893141 0 0 1 -1.42109E-14 1.27936 Z" class="st5"/>
				</g>
				<g id="shape8472-17" transform="translate(0,-14.6446)">
					<title>Sheet.8472</title>
					<path d="M16.01 85.13 L17.46 86.61 a0.884002 0.90521 0 0 1 7.10543E-15 1.27936 L1.97 103.8 L0.52 102.33 A1.77979
								 1.82249 0 0 1 0.52 99.76 L14.76 85.13 a0.884002 0.90521 0 0 1 1.24939 -1.42109E-14 Z" class="st2"/>
				</g>
				<g id="shape8473-19" transform="translate(38.8442,0)">
					<title>Sheet.8473</title>
					<path d="M0.26 102.19 a0.872215 0.893141 0 0 1 -8.77076E-15 -1.27936 L16.02 84.82 L17.33 86.16 A1.77979 1.82249
								 0 0 1 17.33 88.73 L2.81 103.53 a0.872215 0.893141 0 0 1 -1.24939 0 L0.26 102.19 Z" class="st5"/>
				</g>
				<g id="shape8474-21" transform="translate(38.9707,-13.5825)">
					<title>Sheet.8474</title>
					<path d="M2.95 85.13 L17.2 99.76 A1.768 1.81042 0 0 1 17.2 102.31 L15.75 103.8 L0.25 87.89 a0.907575 0.929349
								 0 0 1 -6.66134E-15 -1.29143 L1.7 85.13 a0.884002 0.90521 0 0 1 1.24939 0 Z" class="st2"/>
				</g>
			</g>
			<g id="shape8465-23">
				<g id="shadow8465-24" transform="matrix(1,0,0,1,1.41732,1.41732)" class="st6"/>
				<text x="9.49" y="119.08" class="st7">Private Link</text>			</g>
		</g>
	</g>
</svg>
