<?xml version="1.0" encoding="UTF-8" standalone="no"?>
<!DOCTYPE svg PUBLIC "-//W3C//DTD SVG 1.1//EN" "http://www.w3.org/Graphics/SVG/1.1/DTD/svg11.dtd">
<!-- Generated by Microsoft Visio, SVG Export Application Core HR.svg Page-1 -->
<svg xmlns="http://www.w3.org/2000/svg" xmlns:xlink="http://www.w3.org/1999/xlink" xmlns:ev="http://www.w3.org/2001/xml-events"
		width="0.897638in" height="1.33858in" viewBox="0 0 64.6299 96.378" xml:space="preserve" color-interpolation-filters="sRGB"
		class="st6">
	<style type="text/css">
	<![CDATA[
		.st1 {fill:url(#grad0-7);stroke:none;stroke-linecap:butt;stroke-width:0.75}
		.st2 {fill:#000000;fill-opacity:0.24;stroke:none;stroke-linecap:butt;stroke-width:0.75}
		.st3 {fill:#000000;fill-opacity:0.32;stroke:none;stroke-linecap:butt;stroke-width:0.75}
		.st4 {fill:url(#grad0-15);stroke:none;stroke-linecap:butt;stroke-width:0.75}
		.st5 {fill:url(#grad0-23);stroke:none;stroke-linecap:butt;stroke-width:0.75}
		.st6 {fill:none;fill-rule:evenodd;font-size:12px;overflow:visible;stroke-linecap:square;stroke-miterlimit:3}
	]]>
	</style>

	<defs id="Patterns_And_Gradients">
		<linearGradient id="grad0-7" x1="0" y1="0" x2="1" y2="0" gradientTransform="rotate(46.974378928845 0.5 0.5)">
			<stop offset="0" stop-color="#8661c5" stop-opacity="1"/>
			<stop offset="1" stop-color="#5c428b" stop-opacity="1"/>
		</linearGradient>
		<linearGradient id="grad0-15" x1="0" y1="0" x2="1" y2="0" gradientTransform="rotate(72.007911481828 0.5 0.5)">
			<stop offset="0" stop-color="#cd9ef0" stop-opacity="1"/>
			<stop offset="1" stop-color="#9f75d3" stop-opacity="1"/>
		</linearGradient>
		<linearGradient id="grad0-23" x1="0" y1="0" x2="1" y2="0" gradientTransform="rotate(15.116583819209 0.5 0.5)">
			<stop offset="0" stop-color="#f1d9ff" stop-opacity="1"/>
			<stop offset="1" stop-color="#e4b4ff" stop-opacity="1"/>
		</linearGradient>
	</defs>
	<g>
		<title>Page-1</title>
		<g id="group20047-1" transform="translate(5.38583,-34.0157)">
			<title>Application Core HR.20047</title>
			<g id="group20048-2">
				<title>Sheet.20048</title>
				<g id="group20049-3">
					<title>Sheet.20049</title>
					<g id="shape20050-4" transform="translate(0,-1.31844)">
						<title>Sheet.20050</title>
						<path d="M0 93.74 A2.56474 2.63694 -180 0 0 2.56 96.38 L51.29 96.38 A2.56474 2.63694 -180 0 0 53.86 93.74
									 L53.86 43.64 A2.56474 2.63694 -180 0 0 51.29 41 L2.56 41 A2.56474 2.63694 -180 0 0 -0 43.64
									 L0 93.74 Z" class="st1"/>
					</g>
					<g id="shape20051-8" transform="translate(2.75779E-13,-1.06794)">
						<title>Sheet.20051</title>
						<path d="M0 56.82 L35.91 56.82 C37.32 56.82 38.47 58.01 38.47 59.46 L38.47 96.38 L0 96.38 L0 56.82 Z"
								class="st2"/>
					</g>
					<g id="shape20052-10" transform="translate(2.75779E-13,-1.06794)">
						<title>Sheet.20052</title>
						<path d="M0 56.82 L35.91 56.82 C37.32 56.82 38.47 58.01 38.47 59.46 L38.47 96.38 L0 96.38 L0 56.82 Z"
								class="st3"/>
					</g>
					<g id="shape20053-12" transform="translate(2.75779E-13,-1.31844)">
						<title>Sheet.20053</title>
						<path d="M0 56.82 L35.91 56.82 C37.32 56.82 38.47 58.01 38.47 59.46 L38.47 96.38 L0 96.38 L0 56.82 Z"
								class="st4"/>
					</g>
					<g id="shape20054-16" transform="translate(-2.65787E-13,-1.06787)">
						<title>Sheet.20054</title>
						<path d="M11.54 68.69 C17.91 68.69 23.08 63.38 23.08 56.82 C23.08 50.27 17.91 44.96 11.54 44.96 C5.17 44.96
									 0 50.27 0 56.82 C0 63.38 5.17 68.69 11.54 68.69 ZM20.52 72.65 L0 72.65 L0 96.38 L23.08 96.38
									 L23.08 75.28 C23.08 73.83 21.93 72.65 20.52 72.65 Z" class="st2"/>
					</g>
					<g id="shape20055-18">
						<title>Sheet.20055</title>
						<path d="M11.54 68.69 C17.91 68.69 23.08 63.38 23.08 56.82 C23.08 50.27 17.91 44.96 11.54 44.96 C5.17 44.96
									 0 50.27 0 56.82 C0 63.38 5.17 68.69 11.54 68.69 ZM20.52 72.65 L0 72.65 L0 96.38 L23.08 96.38
									 L23.08 75.28 C23.08 73.83 21.93 72.65 20.52 72.65 Z" class="st3"/>
					</g>
					<g id="shape20056-20" transform="translate(-2.65787E-13,-1.31844)">
						<title>Sheet.20056</title>
						<path d="M11.54 68.69 C17.91 68.69 23.08 63.38 23.08 56.82 C23.08 50.27 17.91 44.96 11.54 44.96 C5.17 44.96
									 0 50.27 0 56.82 C0 63.38 5.17 68.69 11.54 68.69 ZM20.52 72.65 L0 72.65 L0 96.38 L23.08 96.38
									 L23.08 75.28 C23.08 73.83 21.93 72.65 20.52 72.65 Z" class="st5"/>
					</g>
				</g>
			</g>
		</g>
	</g>
</svg>
