<?xml version="1.0" encoding="UTF-8" standalone="no"?>
<!DOCTYPE svg PUBLIC "-//W3C//DTD SVG 1.1//EN" "http://www.w3.org/Graphics/SVG/1.1/DTD/svg11.dtd">
<!-- Generated by Microsoft Visio, SVG Export DevOps Starter.svg Page-1 -->
<svg xmlns="http://www.w3.org/2000/svg" xmlns:xlink="http://www.w3.org/1999/xlink" xmlns:ev="http://www.w3.org/2001/xml-events"
		width="0.944882in" height="1.26964in" viewBox="0 0 68.0315 91.4144" xml:space="preserve" color-interpolation-filters="sRGB"
		class="st7">
	<style type="text/css">
	<![CDATA[
		.st1 {fill:url(#grad0-6);stroke:none;stroke-linecap:butt;stroke-width:6.375}
		.st2 {fill:#ffffff;stroke:none;stroke-linecap:butt;stroke-width:6.375}
		.st3 {fill:url(#grad0-12);stroke:none;stroke-linecap:butt;stroke-width:6.375}
		.st4 {fill:#417be9;stroke:none;stroke-linecap:butt;stroke-width:6.375}
		.st5 {fill:#1453c8;stroke:none;stroke-linecap:butt;stroke-width:6.375}
		.st6 {fill:#88aef1;stroke:none;stroke-linecap:butt;stroke-width:6.375}
		.st7 {fill:none;fill-rule:evenodd;font-size:12px;overflow:visible;stroke-linecap:square;stroke-miterlimit:3}
	]]>
	</style>

	<defs id="Patterns_And_Gradients">
		<linearGradient id="grad0-6" x1="0" y1="0" x2="1" y2="0" gradientTransform="rotate(-90.793646945956 0.5 0.5)">
			<stop offset="0" stop-color="#2889e0" stop-opacity="1"/>
			<stop offset="1" stop-color="#50e6ff" stop-opacity="1"/>
		</linearGradient>
		<linearGradient id="grad0-12" x1="0" y1="0" x2="1" y2="0" gradientTransform="rotate(-119.69106579898 0.5 0.5)">
			<stop offset="0" stop-color="#c398e9" stop-opacity="1"/>
			<stop offset="1" stop-color="#704cb3" stop-opacity="1"/>
		</linearGradient>
	</defs>
	<g>
		<title>Page-1</title>
		<g id="group3157-1" transform="translate(5.66929,-34.0157)">
			<title>DevOps Starter</title>
			<g id="group3158-2">
				<title>Sheet.3158</title>
				<g id="shape3159-3" transform="translate(0,-13.0364)">
					<title>Sheet.3159</title>
					<path d="M55.79 81.12 C54.1 87.19 49.99 89.19 45.56 91.05 C45.25 91.18 44.53 91.41 43.4 91.41 L24.3 91.41 C20.7
								 91.41 15.21 91.36 12.66 91.33 C11.25 91.31 10.36 90.92 9.94 90.71 C4.58 88.08 1.41 83.81 0.8 78.42
								 C0.55 76.17 0 67.05 13.5 63.54 C18 55.18 22.95 53.87 29.25 53.43 C37.35 53.43 44.09 59.14 44.99
								 67.93 C49.49 68.81 56.69 73.2 55.79 81.12 Z" class="st1"/>
				</g>
				<g id="shape3160-7" transform="translate(18.5265,0)">
					<title>Sheet.3160</title>
					<path d="M33.89 74.69 C33.89 83.93 26.31 91.41 16.95 91.41 C7.59 91.41 0 83.93 0 74.69 C0 65.45 7.59 57.97 16.95
								 57.97 C26.3 57.97 33.89 65.45 33.89 74.69 Z" class="st2"/>
				</g>
				<g id="shape3161-9" transform="translate(18.5265,0)">
					<title>Sheet.3161</title>
					<path d="M16.95 89.21 C25.07 89.21 31.66 82.71 31.66 74.69 C31.66 66.67 25.07 60.17 16.95 60.17 C8.82 60.17 2.23
								 66.67 2.23 74.69 C2.23 82.71 8.82 89.21 16.95 89.21 ZM16.95 91.41 C26.3 91.41 33.89 83.93 33.89
								 74.69 C33.89 65.45 26.31 57.97 16.95 57.97 C7.59 57.97 0 65.45 0 74.69 C0 83.93 7.59 91.41 16.95
								 91.41 L16.95 91.41 Z" class="st3"/>
				</g>
				<g id="shape3162-13" transform="translate(23.4105,-8.86293)">
					<title>Sheet.3162</title>
					<path d="M18.34 80.59 C16.41 80.59 14.85 82.14 14.85 84.06 C14.85 85.17 14.6 86.23 14.15 87.18 C12.97 89.68 10.4
								 91.41 7.42 91.41 C3.32 91.41 0 88.12 0 84.06 A7.44576 7.34797 0 0 1 2.17 78.86 A7.39118 7.29411
								 0 0 1 6.53 76.75 L6.53 78.5 A5.66418 5.58979 -180 0 0 3.13 80.38 A5.6929 5.61814 -180 0 0 1.75 84.06
								 A5.69405 5.61927 -180 0 0 3.33 87.95 A5.65039 5.57618 -180 0 0 7.42 89.68 A5.63488 5.56087 -180
								 0 0 10.07 89.03 A5.70325 5.62834 -180 0 0 13.1 84.06 C13.1 82.89 13.49 81.81 14.15 80.94 A5.22582
								 5.15719 0 0 1 18.34 78.86 C21.09 78.86 23.34 80.96 23.57 83.62 L21.81 83.62 C21.6 81.92 20.13 80.59
								 18.34 80.59 Z" class="st4"/>
				</g>
				<g id="shape3163-15" transform="translate(23.1226,-8.57887)">
					<title>Sheet.3163</title>
					<path d="M14.42 86.93 C13.23 89.42 10.67 91.13 7.71 91.13 C3.61 91.13 0.29 87.84 0.29 83.77 A7.44576 7.34797
								 0 0 1 2.45 78.58 A7.39578 7.29865 0 0 1 6.82 76.47 L6.82 78.22 A5.66418 5.58979 -180 0 0 3.42 80.09
								 A5.69233 5.61757 -180 0 0 2.03 83.77 A5.69463 5.61984 -180 0 0 3.62 87.67 A5.65039 5.57618 -180
								 0 0 7.71 89.4 A5.63488 5.56087 -180 0 0 10.36 88.75 A5.70325 5.62834 -180 0 0 13.39 83.77 A5.25684
								 5.18781 0 0 1 14.44 80.65 A5.22582 5.15719 0 0 1 18.63 78.58 C21.28 78.58 23.47 80.53 23.82 83.06
								 C23.84 83.15 23.85 83.24 23.85 83.34 L22.1 83.34 C21.88 81.63 20.41 80.31 18.63 80.31 C16.7 80.31
								 15.14 81.86 15.14 83.77 A7.45208 7.35421 0 0 1 14.42 86.93 L14.42 86.93 ZM7.01 76.26 a0.287259 0.283487
								 0 0 1 0.0965191 0.212615 L7.11 78.22 a0.287259 0.283487 0 0 1 -0.242447 0.280652 A5.37634 5.30574
								 -180 0 0 3.63 80.28 A5.40507 5.33408 -180 0 0 2.32 83.77 A5.40622 5.33522 -180 0 0 3.82 87.47 A5.36313
								 5.2927 -180 0 0 7.71 89.12 A5.34704 5.27682 -180 0 0 10.23 88.5 A5.41599 5.34486 -180 0 0 13.1 83.77
								 C13.1 82.54 13.51 81.4 14.21 80.48 A5.51365 5.44124 0 0 1 18.63 78.3 C21.53 78.3 23.91 80.51 24.14
								 83.32 a0.287259 0.283487 0 0 1 -0.286685 0.307299 L22.1 83.62 a0.287259 0.283487 0 0 1 -0.284961
								 -0.248901 C21.62 81.81 20.27 80.59 18.63 80.59 C16.86 80.59 15.42 82.02 15.42 83.77 C15.42 84.93
								 15.16 86.03 14.7 87.01 C13.47 89.61 10.8 91.41 7.71 91.41 C3.45 91.41 0 87.99 0 83.77 C0 81.67 0.86
								 79.76 2.25 78.38 A7.67844 7.5776 0 0 1 6.79 76.19 a0.287259 0.283487 0 0 1 0.225211 0.0691707 L7.01
								 76.26 Z" class="st4"/>
				</g>
				<g id="shape3164-17" transform="translate(39.2919,-10.8853)">
					<title>Sheet.3164</title>
					<path d="M2.42 91.41 A5.17124 5.10333 0 0 1 0 90.82 L0.89 89.25 A3.44711 3.40184 -180 0 0 2.42 89.59 C4.08 89.59
								 5.47 88.43 5.87 86.86 L7.68 86.86 C7.26 89.45 5.06 91.41 2.42 91.41 Z" class="st5"/>
				</g>
				<g id="shape3165-19" transform="translate(39.0062,-10.6013)">
					<title>Sheet.3165</title>
					<path d="M0.01 90.62 a0.287259 0.283487 0 0 1 0.0241298 -0.219419 L0.93 88.82 a0.287259 0.283487 0 0 1 0.378033
								 -0.116796 A3.1587 3.11722 -180 0 0 2.7 89.03 C4.22 89.03 5.51 87.96 5.87 86.51 a0.287259 0.283487
								 0 0 1 0.279216 -0.21545 L7.97 86.3 a0.287259 0.283487 0 0 1 0.283812 0.328844 C7.81 89.34 5.5 91.41
								 2.7 91.41 A5.45908 5.38738 0 0 1 0.15 90.79 a0.287259 0.283487 0 0 1 -0.141332 -0.170092 ZM7.92
								 86.86 C7.38 89.31 5.25 91.13 2.7 91.13 A5.16779 5.09992 0 0 1 0.29 90.54 L1.18 88.96 A3.44711 3.40184
								 -180 0 0 2.7 89.31 C4.36 89.31 5.76 88.15 6.15 86.58 L7.97 86.58 A5.69118 5.61644 0 0 1 7.92 86.86
								 Z" class="st5"/>
				</g>
				<g id="shape3166-21" transform="translate(31.0952,-19.4801)">
					<title>Sheet.3166</title>
					<path d="M4.33 91.41 A5.83941 5.76272 -180 0 0 3.23 90.31 A5.98304 5.90446 -180 0 0 0 89.11 L0 87.37 C1.31 87.44
								 2.54 87.82 3.6 88.44 C4.38 88.9 5.07 89.49 5.64 90.18 L4.33 91.41 Z" class="st6"/>
				</g>
				<g id="shape3167-23" transform="translate(30.8074,-19.1971)">
					<title>Sheet.3167</title>
					<path d="M4.6 91.41 a0.287259 0.283487 0 0 1 -0.206827 -0.111694 A5.5487 5.47583 -180 0 0 3.34 90.26 A5.69578
								 5.62097 -180 0 0 0.27 89.11 a0.287259 0.283487 0 0 1 -0.267151 -0.28292 L0 87.09 a0.287259 0.283487
								 0 0 1 0.302771 -0.283487 C1.66 86.88 2.93 87.27 4.03 87.92 C4.84 88.39 5.56 89 6.15 89.72 a0.287259
								 0.283487 0 0 1 -0.0241298 0.383841 L4.82 91.34 a0.287259 0.283487 0 0 1 -0.221764 0.0788093 L4.6
								 91.41 ZM4.44 90.91 C4.5 90.98 4.56 91.06 4.62 91.13 L5.92 89.9 A7.68361 7.5827 -180 0 0 3.88 88.16
								 A7.83931 7.73635 -180 0 0 0.29 87.09 L0.29 88.83 C1.5 88.91 2.62 89.35 3.52 90.03 C3.86 90.29 4.17
								 90.58 4.44 90.91 L4.44 90.91 Z" class="st6"/>
				</g>
			</g>
		</g>
	</g>
</svg>
