<?xml version="1.0" encoding="UTF-8" standalone="no"?>
<!DOCTYPE svg PUBLIC "-//W3C//DTD SVG 1.1//EN" "http://www.w3.org/Graphics/SVG/1.1/DTD/svg11.dtd">
<!-- Generated by Microsoft Visio, SVG Export Key Vault Secret.svg Page-1 -->
<svg xmlns="http://www.w3.org/2000/svg" xmlns:xlink="http://www.w3.org/1999/xlink" xmlns:ev="http://www.w3.org/2001/xml-events"
		width="1.27133in" height="1.54118in" viewBox="0 0 91.536 110.965" xml:space="preserve" color-interpolation-filters="sRGB"
		class="st6">
	<style type="text/css">
	<![CDATA[
		.st1 {fill:#59b4d9;fill-opacity:0.8;stroke:none;stroke-linecap:butt;stroke-width:20.2562}
		.st2 {fill:#3999c6;stroke:none;stroke-linecap:butt;stroke-width:20.2562}
		.st3 {fill:#ffffff;stroke:none;stroke-linecap:butt;stroke-width:20.2562}
		.st4 {fill:#fcd116;stroke:none;stroke-linecap:butt;stroke-width:20.2562}
		.st5 {fill:#ff8c00;fill-opacity:0.3;stroke:none;stroke-linecap:butt;stroke-width:20.2562}
		.st6 {fill:none;fill-rule:evenodd;font-size:12px;overflow:visible;stroke-linecap:square;stroke-miterlimit:3}
	]]>
	</style>

	<g>
		<title>Page-1</title>
		<g id="group2229-1" transform="translate(20.2562,-34.0157)">
			<title>Key Vault Secret</title>
			<g id="group2230-2">
				<title>Sheet.2230</title>
				<g id="shape2231-3" transform="translate(8.8037,-23.9977)">
					<title>Sheet.2231</title>
					<path d="M0 86.97 L3.38 86.97 L3.38 90.4 L0 90.4 L0 86.97 ZM6.76 86.97 L10.13 86.97 L10.13 90.4 L6.76 90.4 L6.76
								 86.97 ZM13.51 86.97 L16.89 86.97 L16.89 90.4 L13.51 90.4 L13.51 86.97 ZM20.27 86.97 L23.64 86.97
								 L23.64 90.4 L20.27 90.4 L20.27 86.97 ZM0 93.82 L3.38 93.82 L3.38 97.25 L0 97.25 L0 93.82 ZM6.76
								 93.82 L10.13 93.82 L10.13 97.25 L6.76 97.25 L6.76 93.82 ZM13.51 93.82 L16.89 93.82 L16.89 97.25
								 L13.51 97.25 L13.51 93.82 ZM20.27 93.82 L23.64 93.82 L23.64 97.25 L20.27 97.25 L20.27 93.82 ZM0
								 100.68 L3.38 100.68 L3.38 104.11 L0 104.11 L0 100.68 ZM6.76 100.68 L10.13 100.68 L10.13 104.11 L6.76
								 104.11 L6.76 100.68 ZM13.51 100.68 L16.89 100.68 L16.89 104.11 L13.51 104.11 L13.51 100.68 ZM20.27
								 100.68 L23.64 100.68 L23.64 104.11 L20.27 104.11 L20.27 100.68 ZM0 107.54 L3.38 107.54 L3.38 110.96
								 L0 110.96 L0 107.54 ZM6.76 107.54 L10.13 107.54 L10.13 110.96 L6.76 110.96 L6.76 107.54 ZM13.51
								 107.54 L16.89 107.54 L16.89 110.96 L13.51 110.96 L13.51 107.54 ZM20.27 107.54 L23.64 107.54 L23.64
								 110.96 L20.27 110.96 L20.27 107.54 Z" class="st1"/>
				</g>
				<g id="shape2232-5" transform="translate(0,-6.98334)">
					<title>Sheet.2232</title>
					<path d="M37.67 65.08 L37.67 107.14 L3.77 107.14 L3.77 65.08 L37.67 65.08 ZM41.44 61.26 L0 61.26 L0 110.96 L41.44
								 110.96 L41.44 61.26 Z" class="st2"/>
				</g>
				<g id="shape2233-7" transform="translate(29.0693,-22.2836)">
					<title>Sheet.2233</title>
					<path d="M11.82 106.75 C11.82 103.15 9.05 100.22 5.91 100.22 C2.78 100.22 0 103.15 0 106.75 L0 110.96 L11.82
								 110.96 L11.82 106.75 Z" class="st3"/>
				</g>
				<g id="shape2234-9" transform="translate(18.9365,1.42109E-14)">
					<title>Sheet.2234</title>
					<path d="M10.13 84.48 C10.13 80.89 12.91 77.97 16.04 77.97 C19.18 77.97 21.95 80.89 21.95 84.48 L21.95 88.68
								 L27.02 88.68 L27.02 84.48 C27.02 78.02 21.68 72.73 16.04 72.73 C10.4 72.73 5.07 78.02 5.07 84.48
								 L5.07 88.68 L10.13 88.68 L10.13 84.48 ZM32.09 92.25 C32.09 90.28 30.45 88.68 28.44 88.68 L3.65 88.68
								 C1.63 88.68 0 90.28 0 92.25 L0 106.61 C0 108.58 1.63 110.96 3.65 110.96 L28.44 110.96 C30.45 110.96
								 32.09 108.58 32.09 106.61 L32.09 92.25 Z" class="st4"/>
				</g>
				<g id="shape2235-11" transform="translate(18.9365,1.42109E-14)">
					<title>Sheet.2235</title>
					<path d="M10.13 84.48 C10.13 80.89 12.91 77.97 16.04 77.97 C19.18 77.97 21.95 80.89 21.95 84.48 L21.95 88.68
								 L27.02 88.68 L27.02 84.48 C27.02 78.02 21.68 72.73 16.04 72.73 C10.4 72.73 5.07 78.02 5.07 84.48
								 L5.07 88.68 L10.13 88.68 L10.13 84.48 ZM32.09 92.25 C32.09 90.28 30.45 88.68 28.44 88.68 L3.65 88.68
								 C1.63 88.68 0 90.28 0 92.25 L0 106.61 C0 108.58 1.63 110.96 3.65 110.96 L28.44 110.96 C30.45 110.96
								 32.09 108.58 32.09 106.61 L32.09 92.25 Z" class="st5"/>
				</g>
			</g>
		</g>
	</g>
</svg>
