<?xml version="1.0" encoding="UTF-8" standalone="no"?>
<!DOCTYPE svg PUBLIC "-//W3C//DTD SVG 1.1//EN" "http://www.w3.org/Graphics/SVG/1.1/DTD/svg11.dtd">
<!-- Generated by Microsoft Visio, SVG Export Workflow Automation.svg Page-1 -->
<svg xmlns="http://www.w3.org/2000/svg" xmlns:xlink="http://www.w3.org/1999/xlink" xmlns:ev="http://www.w3.org/2001/xml-events"
		width="1.68214in" height="1.70721in" viewBox="0 0 121.114 122.919" xml:space="preserve" color-interpolation-filters="sRGB"
		class="st4">
	<style type="text/css">
	<![CDATA[
		.st1 {fill:#308ce2;stroke:none;stroke-linecap:butt;stroke-width:32.2105}
		.st2 {fill:#ffffff;stroke:none;stroke-linecap:butt;stroke-width:32.2105}
		.st3 {fill:url(#grad0-10);stroke:none;stroke-linecap:butt;stroke-width:32.2105}
		.st4 {fill:none;fill-rule:evenodd;font-size:12px;overflow:visible;stroke-linecap:square;stroke-miterlimit:3}
	]]>
	</style>

	<defs id="Patterns_And_Gradients">
		<linearGradient id="grad0-10" x1="0" y1="0" x2="1" y2="0" gradientTransform="rotate(90 0.5 0.5)">
			<stop offset="0" stop-color="#33c2e1" stop-opacity="1"/>
			<stop offset="1" stop-color="#6fd8ef" stop-opacity="1"/>
		</linearGradient>
	</defs>
	<g>
		<title>Page-1</title>
		<g id="group34-1" transform="translate(32.2105,-34.0157)">
			<title>Workflow Automation</title>
			<g id="group35-2">
				<title>Sheet.35</title>
				<g id="shape36-3" transform="translate(29.115,1.42109E-14)">
					<title>Sheet.36</title>
					<ellipse cx="13.789" cy="109.13" rx="13.789" ry="13.789" class="st1"/>
				</g>
				<g id="shape37-5" transform="translate(39.8268,-7.64409)">
					<title>Sheet.37</title>
					<path d="M9.09 116.62 L0.47 110.64 L0.15 110.64 C0.15 110.79 0 110.79 0 110.95 L0 122.6 C0 122.76 0 122.76 0.15
								 122.92 L0.47 122.92 L9.09 117.1 a0.289764 0.289764 -180 0 0 -5.32907E-15 -0.475591 Z" class="st2"/>
				</g>
				<g id="shape38-7" transform="translate(2.8777E-13,-1.53386)">
					<title>Sheet.38</title>
					<path d="M26.49 110.66 A16.1984 16.1984 0 0 1 27.65 104.71 L27.58 104.71 A9.37953 9.37953 0 1 1 36.96 95.33 L36.96
								 95.4 A16.1039 16.1039 0 0 1 54.08 98.71 L55.17 98.31 L55.17 92.01 L54.28 91.7 L47.56 89.49 L45.79
								 85.19 L49.21 77.91 L44.8 73.5 L43.92 73.94 L37.62 77.14 L33.32 75.38 L30.55 67.76 L24.25 67.76 L23.94
								 68.64 L21.73 75.37 L17.43 77.14 L10.26 73.72 L5.85 78.13 L6.29 79.01 L9.49 85.31 L7.73 89.61 L0
								 92.36 L0 98.66 L0.88 98.99 L7.61 101.2 L9.38 105.5 L5.96 112.77 L10.37 117.18 L11.25 116.74 L17.55
								 113.54 L21.85 115.31 L24.61 122.92 L30.91 122.92 L31.21 122.12 A16.3465 16.3465 0 0 1 26.49 110.66
								 Z" class="st3"/>
				</g>
			</g>
		</g>
	</g>
</svg>
