<?xml version="1.0" encoding="UTF-8" standalone="no"?>
<!DOCTYPE svg PUBLIC "-//W3C//DTD SVG 1.1//EN" "http://www.w3.org/Graphics/SVG/1.1/DTD/svg11.dtd">
<!-- Generated by Microsoft Visio, SVG Export IP Group.svg Page-1 -->
<svg xmlns="http://www.w3.org/2000/svg" xmlns:xlink="http://www.w3.org/1999/xlink" xmlns:ev="http://www.w3.org/2001/xml-events"
		width="1.73185in" height="1.57458in" viewBox="0 0 124.693 113.37" xml:space="preserve" color-interpolation-filters="sRGB"
		class="st6">
	<style type="text/css">
	<![CDATA[
		.st1 {fill:#83b9f9;stroke:none;stroke-linecap:butt;stroke-width:34}
		.st2 {fill:#1f56a3;stroke:none;stroke-linecap:butt;stroke-width:34}
		.st3 {fill:#f2f2f2;stroke:none;stroke-linecap:butt;stroke-width:34}
		.st4 {fill:url(#grad0-18);stroke:none;stroke-linecap:butt;stroke-width:34}
		.st5 {fill:#0078d4;stroke:none;stroke-linecap:butt;stroke-width:34}
		.st6 {fill:none;fill-rule:evenodd;font-size:12px;overflow:visible;stroke-linecap:square;stroke-miterlimit:3}
	]]>
	</style>

	<defs id="Patterns_And_Gradients">
		<linearGradient id="grad0-18" x1="0" y1="0" x2="1" y2="0" gradientTransform="rotate(-90 0.5 0.5)">
			<stop offset="0" stop-color="#32bedd" stop-opacity="1"/>
			<stop offset="0.18" stop-color="#32caea" stop-opacity="1"/>
			<stop offset="0.41" stop-color="#32d2f2" stop-opacity="1"/>
			<stop offset="0.78" stop-color="#32d4f5" stop-opacity="1"/>
		</linearGradient>
	</defs>
	<g>
		<title>Page-1</title>
		<g id="group10146-1" transform="translate(34,-34.0157)">
			<title>IP Group.10146</title>
			<g id="group10147-2">
				<title>Sheet.10147</title>
				<g id="shape10148-3" transform="translate(-2.8777E-13,-18.9828)">
					<title>Sheet.10148</title>
					<path d="M0 94 L31.84 94 L31.84 112.27 A1.0705 1.1011 0 0 1 30.77 113.37 L1.07 113.37 A1.0705 1.1011 0 0 1 0
								 112.27 L0 94 Z" class="st1"/>
				</g>
				<g id="shape10149-5" transform="translate(-2.8777E-13,-38.3567)">
					<title>Sheet.10149</title>
					<path d="M1.07 106.37 L30.77 106.37 A1.0705 1.1011 0 0 1 31.84 107.47 L31.84 113.37 L0 113.37 L0 107.47 A1.0705
								 1.1011 0 0 1 1.07 106.37 Z" class="st2"/>
				</g>
				<g id="shape10150-7" transform="translate(4.28198,-40.4285)">
					<title>Sheet.10150</title>
					<path d="M0 112.82 a0.536928 0.552278 -180 0 0 0.536915 0.552265 L22.74 113.37 a0.536928 0.552278 -180 0 0 0.536915
								 -0.552265 L23.27 111.1 a0.536928 0.552278 -180 0 0 -0.536915 -0.552265 L0.54 110.55 a0.536928 0.552278
								 -180 0 0 -0.536915 0.552265 L0 112.82 Z" class="st3"/>
				</g>
				<g id="shape10151-9" transform="translate(12.4091,-9.52571)">
					<title>Sheet.10151</title>
					<path d="M0 94 L31.87 94 L31.87 112.27 A1.0705 1.1011 0 0 1 30.8 113.37 L1.07 113.37 A1.0705 1.1011 0 0 1 0 112.27
								 L0 94 Z" class="st1"/>
				</g>
				<g id="shape10152-11" transform="translate(12.4424,-28.8961)">
					<title>Sheet.10152</title>
					<path d="M1.04 106.4 L30.74 106.4 A1.0705 1.1011 0 0 1 31.81 107.5 L31.81 113.37 L0 113.37 L0 107.5 A1.0705 1.1011
								 0 0 1 1.04 106.4 Z" class="st2"/>
				</g>
				<g id="shape10153-13" transform="translate(16.6944,-30.9371)">
					<title>Sheet.10153</title>
					<path d="M0 112.82 a0.536928 0.552278 -180 0 0 0.536915 0.552265 L22.74 113.37 a0.536928 0.552278 -180 0 0 0.536915
								 -0.552265 L23.27 111.1 a0.536928 0.552278 -180 0 0 -0.536915 -0.552265 L0.54 110.55 a0.536928 0.552278
								 -180 0 0 -0.536915 0.552265 L0 112.82 Z" class="st3"/>
				</g>
				<g id="shape10154-15" transform="translate(24.8515,0)">
					<title>Sheet.10154</title>
					<path d="M0 94 L31.84 94 L31.84 112.27 A1.0705 1.1011 0 0 1 30.77 113.37 L1.07 113.37 A1.0705 1.1011 0 0 1 0
								 112.27 L0 94 Z" class="st4"/>
				</g>
				<g id="shape10155-19" transform="translate(24.8515,-19.3739)">
					<title>Sheet.10155</title>
					<path d="M1.07 106.37 L30.77 106.37 A1.0705 1.1011 0 0 1 31.84 107.47 L31.84 113.37 L0 113.37 L0 107.47 A1.0705
								 1.1011 0 0 1 1.07 106.37 Z" class="st5"/>
				</g>
				<g id="group10156-21" transform="translate(31.0244,-8.22909)">
					<title>Sheet.10156</title>
					<g id="shape10157-22" transform="translate(14.33,0)">
						<title>Sheet.10157</title>
						<ellipse cx="2.58119" cy="110.715" rx="2.58119" ry="2.65499" class="st5"/>
					</g>
					<g id="shape10158-24" transform="translate(7.2767,0)">
						<title>Sheet.10158</title>
						<ellipse cx="2.58119" cy="110.715" rx="2.58119" ry="2.65499" class="st5"/>
					</g>
					<g id="shape10159-26">
						<title>Sheet.10159</title>
						<ellipse cx="2.58119" cy="110.715" rx="2.58119" ry="2.65499" class="st5"/>
					</g>
				</g>
				<g id="shape10160-28" transform="translate(29.1335,-21.4457)">
					<title>Sheet.10160</title>
					<path d="M0 112.82 a0.536928 0.552278 -180 0 0 0.536915 0.552265 L22.74 113.37 a0.536928 0.552278 -180 0 0 0.536915
								 -0.552265 L23.27 111.1 a0.536928 0.552278 -180 0 0 -0.536915 -0.552265 L0.54 110.55 a0.536928 0.552278
								 -180 0 0 -0.536915 0.552265 L0 112.82 Z" class="st3"/>
				</g>
			</g>
		</g>
	</g>
</svg>
