<?xml version="1.0" encoding="UTF-8" standalone="no"?>
<!DOCTYPE svg PUBLIC "-//W3C//DTD SVG 1.1//EN" "http://www.w3.org/Graphics/SVG/1.1/DTD/svg11.dtd">
<!-- Generated by Microsoft Visio, SVG Export Azure AD Connect Health.svg Page-1 -->
<svg xmlns="http://www.w3.org/2000/svg" xmlns:xlink="http://www.w3.org/1999/xlink" xmlns:ev="http://www.w3.org/2001/xml-events"
		width="1.73185in" height="1.69269in" viewBox="0 0 124.693 121.874" xml:space="preserve" color-interpolation-filters="sRGB"
		class="st10">
	<style type="text/css">
	<![CDATA[
		.st1 {fill:#50e6ff;stroke:none;stroke-linecap:butt;stroke-width:34}
		.st2 {fill:#ffffff;stroke:none;stroke-linecap:butt;stroke-width:34}
		.st3 {fill:url(#grad0-12);stroke:none;stroke-linecap:butt;stroke-width:34}
		.st4 {fill:#53b1e0;stroke:none;stroke-linecap:butt;stroke-width:34}
		.st5 {fill:#9cebff;stroke:none;stroke-linecap:butt;stroke-width:34}
		.st6 {fill:url(#grad0-20);stroke:none;stroke-linecap:butt;stroke-width:34}
		.st7 {fill:#f04049}
		.st8 {stroke:none;stroke-linecap:butt;stroke-width:34}
		.st9 {fill:#ffffff}
		.st10 {fill:none;fill-rule:evenodd;font-size:12px;overflow:visible;stroke-linecap:square;stroke-miterlimit:3}
	]]>
	</style>

	<defs id="Patterns_And_Gradients">
		<linearGradient id="grad0-12" x1="0" y1="0" x2="1" y2="0" gradientTransform="rotate(-133.54829310906 0.5 0.5)">
			<stop offset="0" stop-color="#1988d9" stop-opacity="1"/>
			<stop offset="0.9" stop-color="#54aef0" stop-opacity="1"/>
		</linearGradient>
		<linearGradient id="grad0-20" x1="0" y1="0" x2="1" y2="0" gradientTransform="rotate(65.768143554927 0.5 0.5)">
			<stop offset="0.1" stop-color="#54aef0" stop-opacity="1"/>
			<stop offset="0.29" stop-color="#4fabee" stop-opacity="1"/>
			<stop offset="0.51" stop-color="#41a2e9" stop-opacity="1"/>
			<stop offset="0.74" stop-color="#2a93e0" stop-opacity="1"/>
			<stop offset="0.88" stop-color="#1988d9" stop-opacity="1"/>
		</linearGradient>
	</defs>
	<g>
		<title>Page-1</title>
		<g id="group13237-1" transform="translate(34,-34.0157)">
			<title>Azure AD Connect Health.13237</title>
			<g id="group13238-2">
				<title>Icon-identity-224</title>
				<g id="shape13239-3" transform="translate(0,-1.22113)">
					<title>Sheet.13239</title>
					<path d="M3.21 99.38 L28.08 115.9 L53.42 99.32 L56.6 103.11 L28.08 121.87 L0 103.11 L3.21 99.38 Z" class="st1"/>
				</g>
				<g id="shape13240-5" transform="translate(5.06243,-10.6367)">
					<title>Sheet.13240</title>
					<path d="M0 106.67 L23.02 78.65 L46.51 106.71 L23.02 121.87 L0 106.67 Z" class="st2"/>
				</g>
				<g id="shape13241-7" transform="translate(5.06243,-10.6367)">
					<title>Sheet.13241</title>
					<path d="M23.02 78.65 L23.02 121.87 L0 106.67 L23.02 78.65 Z" class="st1"/>
				</g>
				<g id="shape13242-9" transform="translate(28.0792,-10.6367)">
					<title>Sheet.13242</title>
					<path d="M0 78.65 L0 121.87 L23.49 106.71 L0 78.65 Z" class="st3"/>
				</g>
				<g id="shape13243-13" transform="translate(28.0792,-10.6367)">
					<title>Sheet.13243</title>
					<path d="M0 100.99 L23.49 106.71 L0 121.87 L0 100.99 Z" class="st4"/>
				</g>
				<g id="shape13244-15" transform="translate(5.06243,-10.6367)">
					<title>Sheet.13244</title>
					<path d="M23.02 121.87 L0 106.67 L23.02 100.99 L23.02 121.87 Z" class="st5"/>
				</g>
				<g id="shape13245-17" transform="translate(28.0792,-1.22113)">
					<title>Sheet.13245</title>
					<path d="M0 121.87 L28.52 103.11 L25.34 99.32 L0 115.9 L0 121.87 Z" class="st6"/>
				</g>
				<g id="shape13246-21" transform="translate(28.3936,1.42109E-14)">
					<title>Sheet.13246</title>
					<path d="M14.21 121.87 C27.98 111.78 28.3 106.03 28.3 104.23 C28.3 101.66 28.05 94.98 21.48 94.59 A7.13771 7.29465
								 -180 0 0 14.15 99.48 A7.10627 7.26251 -180 0 0 6.92 94.46 C0.35 94.94 0 101.66 0 104.23 C0 106.03
								 0.41 111.78 14.06 121.78 L14.21 121.87 Z" class="st7"/>
					<path d="M14.21 121.87 C27.98 111.78 28.3 106.03 28.3 104.23 C28.3 101.66 28.05 94.98 21.48 94.59 A7.13771 7.29465
								 -180 0 0 14.15 99.48 A7.10627 7.26251 -180 0 0 6.92 94.46 C0.35 94.94 0 101.66 0 104.23 C0 106.03
								 0.41 111.78 14.06 121.78" class="st8"/>
				</g>
				<g id="shape13247-24" transform="translate(30.5632,-6.70233)">
					<title>Sheet.13247</title>
					<path d="M26.13 109.91 L19.84 109.91 a0.534542 0.546295 -180 0 0 -0.440211 0.25708 L17.42 113.6 a0.251549 0.25708
								 0 0 1 -0.440211 -1.42109E-14 L13.99 108.07 a0.503099 0.51416 -180 0 0 -0.94331 1.42109E-14 L10.41
								 116.43 a0.251549 0.25708 0 0 1 -0.471655 0 L7.55 110.81 a0.503099 0.51416 -180 0 0 -0.911866 1.42109E-14
								 L3.49 116.65 a0.503099 0.51416 0 0 1 -0.471655 0.289215 L0 116.94 A22.4193 22.9123 -180 0 0 1.51
								 119.03 L4.12 119.03 a0.534542 0.546295 -180 0 0 0.440211 -0.289215 L6.79 114.5 L9.94 121.54 a0.503099
								 0.51416 -180 0 0 0.94331 0 L14.02 112.12 L16.7 117.46 a0.503099 0.51416 -180 0 0 0.880422 1.42109E-14
								 L20.72 112.25 a0.534542 0.546295 0 0 1 0.440211 -0.25708 L26.13 111.99 L26.13 109.91 Z"
							class="st9"/>
					<path d="M26.13 109.91 L19.84 109.91 a0.534542 0.546295 -180 0 0 -0.440211 0.25708 L17.42 113.6 a0.251549 0.25708
								 0 0 1 -0.440211 -1.42109E-14 L13.99 108.07 a0.503099 0.51416 -180 0 0 -0.94331 1.42109E-14 L10.41
								 116.43 a0.251549 0.25708 0 0 1 -0.471655 0 L7.55 110.81 a0.503099 0.51416 -180 0 0 -0.911866 1.42109E-14
								 L3.49 116.65 a0.503099 0.51416 0 0 1 -0.471655 0.289215 L0 116.94 A22.4193 22.9123 -180 0 0 1.51
								 119.03 L4.12 119.03 a0.534542 0.546295 -180 0 0 0.440211 -0.289215 L6.79 114.5 L9.94 121.54 a0.503099
								 0.51416 -180 0 0 0.94331 0 L14.02 112.12 L16.7 117.46 a0.503099 0.51416 -180 0 0 0.880422 1.42109E-14
								 L20.72 112.25 a0.534542 0.546295 0 0 1 0.440211 -0.25708 L26.13 111.99" class="st8"/>
				</g>
			</g>
		</g>
	</g>
</svg>
