<?xml version="1.0" encoding="UTF-8" standalone="no"?>
<!DOCTYPE svg PUBLIC "-//W3C//DTD SVG 1.1//EN" "http://www.w3.org/Graphics/SVG/1.1/DTD/svg11.dtd">
<!-- Generated by Microsoft Visio, SVG Export Backup vault.svg Page-1 -->
<svg xmlns="http://www.w3.org/2000/svg" xmlns:xlink="http://www.w3.org/1999/xlink" xmlns:ev="http://www.w3.org/2001/xml-events"
		width="1.73185in" height="1.61403in" viewBox="0 0 124.693 116.21" xml:space="preserve" color-interpolation-filters="sRGB"
		class="st4">
	<style type="text/css">
	<![CDATA[
		.st1 {fill:url(#grad0-6);stroke:none;stroke-linecap:butt;stroke-width:34}
		.st2 {fill:#ffffff;stroke:none;stroke-linecap:butt;stroke-width:34}
		.st3 {fill:url(#grad0-14);stroke:none;stroke-linecap:butt;stroke-width:34}
		.st4 {fill:none;fill-rule:evenodd;font-size:12px;overflow:visible;stroke-linecap:square;stroke-miterlimit:3}
	]]>
	</style>

	<defs id="Patterns_And_Gradients">
		<linearGradient id="grad0-6" x1="0" y1="0" x2="1" y2="0" gradientTransform="rotate(-90 0.5 0.5)">
			<stop offset="0" stop-color="#0078d4" stop-opacity="1"/>
			<stop offset="0.15" stop-color="#1882db" stop-opacity="1"/>
			<stop offset="0.375" stop-color="#378fe4" stop-opacity="1"/>
			<stop offset="0.595" stop-color="#4c99ea" stop-opacity="1"/>
			<stop offset="0.805" stop-color="#5a9eee" stop-opacity="1"/>
			<stop offset="1" stop-color="#5ea0ef" stop-opacity="1"/>
		</linearGradient>
		<linearGradient id="grad0-14" x1="0" y1="0" x2="1" y2="0" gradientTransform="rotate(-90 0.5 0.5)">
			<stop offset="0" stop-color="#32bedd" stop-opacity="1"/>
			<stop offset="1" stop-color="#50e6ff" stop-opacity="1"/>
		</linearGradient>
	</defs>
	<g>
		<title>Page-1</title>
		<g id="group9784-1" transform="translate(34,-34.0157)">
			<title>Backup vault.9784</title>
			<g id="group9785-2">
				<title>Sheet.9785</title>
				<g id="shape9786-3" transform="translate(15.6965,-19.2101)">
					<title>Sheet.9786</title>
					<path d="M41 107.13 A9.21128 9.18688 -180 0 0 33 98.3 A11.609 11.5782 -180 0 0 21.04 87.23 A11.9087 11.8771 -180
								 0 0 9.66 94.97 A10.9904 10.9613 -180 0 0 -0 105.52 A11.1594 11.1298 -180 0 0 11.54 116.21 C11.89
								 116.21 12.22 116.21 12.56 116.17 L31.25 116.17 A1.94811 1.94295 -180 0 0 31.75 116.09 A9.31969 9.295
								 -180 0 0 41 107.13 Z" class="st1"/>
				</g>
				<g id="shape9787-7" transform="translate(1.43478,-1.3642)">
					<title>Sheet.9787</title>
					<path d="M29.57 99.84 L29.63 101.16 L30.94 101.33 A7.55969 7.53966 0 0 1 37.5 108.65 A7.68085 7.6605 0 0 1 29.9
								 116.21 L9.81 116.21 A9.48867 9.46353 0 0 1 0 107.03 A9.30694 9.28228 0 0 1 8.2 98.13 L9.15 98.01
								 L9.47 97.11 A10.2539 10.2267 0 0 1 19.29 90.37 L19.36 90.37 A9.93505 9.90873 0 0 1 29.57 99.84 Z"
							class="st2"/>
				</g>
				<g id="shape9788-9" transform="translate(23.6515,-22.4632)">
					<title>Sheet.9788</title>
					<path d="M19.36 103.96 L14.3 99.07 C13.75 98.52 13.28 98.71 13.28 99.56 L13.28 101.76 a0.618549 0.61691 0 0 1
								 -0.0510144 0.238496 a0.583477 0.581931 0 0 1 -0.344347 0.317995 a0.618549 0.61691 0 0 1 -0.23913
								 0.0381594 C9.4 102.36 0.33 103.21 0 115.57 a0.63768 0.63599 -180 0 0 0.63768 0.63599 L3.86 116.21
								 a0.63768 0.63599 -180 0 0 0.255072 -0.0540592 a0.663187 0.66143 -180 0 0 0.213623 -0.149458 a0.707824
								 0.705949 -180 0 0 0.133913 -0.225777 a0.63768 0.63599 -180 0 0 0.031884 -0.257576 A7.60752 7.58736
								 0 0 1 12.76 106.37 a0.63768 0.63599 0 0 1 0.63768 0.63599 L13.39 109.04 C13.39 110.06 13.71 110.22
								 14.41 109.54 L19.36 105 a0.615361 0.613731 -180 0 0 0.204058 -0.228956 a0.63768 0.63599 -180 0 0
								 2.4869E-14 -0.588291 a0.63768 0.63599 -180 0 0 -0.204058 -0.228956 Z" class="st2"/>
				</g>
				<g id="shape9789-11">
					<title>Sheet.9789</title>
					<path d="M11.06 116.21 A11.0606 11.0312 0 0 1 -0 105.51 L0 105.41 A10.8948 10.8659 0 0 1 9.58 94.98 A11.8385
								 11.8072 0 0 1 20.89 87.22 A11.5037 11.4733 0 0 1 32.72 98.2 A9.13476 9.11056 0 0 1 40.65 107.02
								 L40.65 107.07 A9.24636 9.22186 0 0 1 31.49 116.19 L11.45 116.19 C11.32 116.21 11.18 116.21 11.06
								 116.21 ZM3.16 105.47 A7.91679 7.89582 -180 0 0 11.34 113.07 L31.47 113.07 A6.10259 6.08643 -180
								 0 0 37.5 107.06 A5.98144 5.96559 -180 0 0 32.3 101.34 L29.68 100.99 L29.57 98.35 A8.35998 8.33783
								 -180 0 0 20.98 90.37 L20.88 90.37 A8.67244 8.64947 -180 0 0 12.55 96.06 L11.88 97.88 L9.97 98.11
								 A7.73187 7.71138 -180 0 0 3.16 105.47 Z" class="st3"/>
				</g>
			</g>
		</g>
	</g>
</svg>
