<?xml version="1.0" encoding="UTF-8" standalone="no"?>
<!DOCTYPE svg PUBLIC "-//W3C//DTD SVG 1.1//EN" "http://www.w3.org/Graphics/SVG/1.1/DTD/svg11.dtd">
<!-- Generated by Microsoft Visio, SVG Export Certificate Auto Renew Setting.svg Page-1 -->
<svg xmlns="http://www.w3.org/2000/svg" xmlns:xlink="http://www.w3.org/1999/xlink" xmlns:ev="http://www.w3.org/2001/xml-events"
		width="1.85in" height="1.8499in" viewBox="0 0 133.2 133.193" xml:space="preserve" color-interpolation-filters="sRGB"
		class="st2">
	<style type="text/css">
	<![CDATA[
		.st1 {fill:#000000;stroke:none;stroke-linecap:butt;stroke-width:38.25}
		.st2 {fill:none;fill-rule:evenodd;font-size:12px;overflow:visible;stroke-linecap:square;stroke-miterlimit:3}
	]]>
	</style>

	<g>
		<title>Page-1</title>
		<g id="group9766-1" transform="translate(38.25,-38.25)">
			<title>Certificate Auto Renew Setting.9766</title>
			<g id="group9767-2">
				<title>Sheet.9767</title>
				<g id="shape9768-3">
					<title>Sheet.9768</title>
					<path d="M44.29 81.46 A37.9134 37.9134 0 0 1 51.02 87.84 A27.6378 27.6378 0 0 1 55.28 95.63 A26.5748 26.5748
								 0 0 1 56.69 104.85 A26.9291 26.9291 0 0 1 55.63 112.29 A22.6772 22.6772 0 0 1 52.8 119.02 A36.8504
								 36.8504 0 0 1 48.54 125.04 A36.8504 36.8504 0 0 1 42.52 129.3 A22.6772 22.6772 0 0 1 35.79 132.13
								 A26.5748 26.5748 0 0 1 20.91 132.13 A22.6772 22.6772 0 0 1 14.17 129.3 A36.8504 36.8504 0 0 1 8.15
								 125.04 A36.8504 36.8504 0 0 1 3.9 119.02 A22.6772 22.6772 0 0 1 1.06 112.29 A26.5748 26.5748 0 0
								 1 1.06 97.41 A42.1654 42.1654 0 0 1 3.9 90.32 A35.7874 35.7874 0 0 1 8.5 84.65 A38.622 38.622 0
								 0 1 14.53 80.04 L7.09 80.04 L7.09 76.5 L21.26 76.5 L21.26 90.67 L17.72 90.67 L17.72 82.52 A21.9685
								 21.9685 -180 0 0 11.69 86.42 A21.6142 21.6142 -180 0 0 7.44 91.74 A18.7795 18.7795 -180 0 0 4.61
								 97.76 A24.4488 24.4488 -180 0 0 3.54 104.85 A22.3228 22.3228 -180 0 0 4.61 111.58 A16.2992 16.2992
								 -180 0 0 7.09 117.25 A17.3622 17.3622 -180 0 0 10.98 122.21 A17.3622 17.3622 -180 0 0 15.94 126.11
								 L21.61 128.94 L28.35 129.65 L35.08 128.94 L40.75 126.11 A17.3622 17.3622 -180 0 0 45.71 122.21 A17.3622
								 17.3622 -180 0 0 49.61 117.25 A28.3465 28.3465 -180 0 0 52.44 111.58 A43.5827 43.5827 -180 0 0 53.15
								 104.85 A21.9685 21.9685 -180 0 0 51.73 96.7 A24.4488 24.4488 -180 0 0 48.19 89.96 A30.8268 30.8268
								 -180 0 0 42.17 84.3 A25.5118 25.5118 -180 0 0 35.08 81.11 L35.79 77.56 A23.3858 23.3858 0 0 1 44.29
								 81.46 Z" class="st1"/>
				</g>
			</g>
		</g>
	</g>
</svg>
