<?xml version="1.0" encoding="UTF-8" standalone="no"?>
<!DOCTYPE svg PUBLIC "-//W3C//DTD SVG 1.1//EN" "http://www.w3.org/Graphics/SVG/1.1/DTD/svg11.dtd">
<!-- Generated by Microsoft Visio, SVG Export Invoice.svg Page-1 -->
<svg xmlns="http://www.w3.org/2000/svg" xmlns:xlink="http://www.w3.org/1999/xlink" xmlns:ev="http://www.w3.org/2001/xml-events"
		width="1.61374in" height="1.73206in" viewBox="0 0 116.189 124.709" xml:space="preserve" color-interpolation-filters="sRGB"
		class="st5">
	<style type="text/css">
	<![CDATA[
		.st1 {fill:#005ba1;stroke:none;stroke-linecap:butt;stroke-width:34}
		.st2 {fill:url(#grad0-8);stroke:none;stroke-linecap:butt;stroke-width:34}
		.st3 {fill:url(#grad0-12);stroke:none;stroke-linecap:butt;stroke-width:34}
		.st4 {fill:#ffffff;stroke:none;stroke-linecap:butt;stroke-width:34}
		.st5 {fill:none;fill-rule:evenodd;font-size:12px;overflow:visible;stroke-linecap:square;stroke-miterlimit:3}
	]]>
	</style>

	<defs id="Patterns_And_Gradients">
		<linearGradient id="grad0-8" x1="0" y1="0" x2="1" y2="0" gradientTransform="rotate(90 0.5 0.5)">
			<stop offset="0" stop-color="#5ea0ef" stop-opacity="1"/>
			<stop offset="1" stop-color="#0078d4" stop-opacity="1"/>
		</linearGradient>
		<linearGradient id="grad0-12" x1="0" y1="0" x2="1" y2="0" gradientTransform="rotate(-90 0.5 0.5)">
			<stop offset="0" stop-color="#5ea0ef" stop-opacity="1"/>
			<stop offset="1" stop-color="#83b9f9" stop-opacity="1"/>
		</linearGradient>
	</defs>
	<g>
		<title>Page-1</title>
		<g id="group9607-1" transform="translate(34,-34.0157)">
			<title>Invoice.9607</title>
			<g id="group9608-2">
				<title>Sheet.9608</title>
				<g id="shape9609-3" transform="translate(0,-4.28976)">
					<title>Sheet.9609</title>
					<path d="M0 122.96 A1.7697 1.74807 -180 0 0 1.77 124.71 L41.56 124.71 A1.7697 1.74807 -180 0 0 43.33 122.96 L43.33
								 74.05 A1.7697 1.74807 -180 0 0 41.56 72.31 L1.77 72.31 A1.7697 1.74807 -180 0 0 0 74.05 L0 122.96
								 Z" class="st1"/>
				</g>
				<g id="shape9610-5" transform="translate(4.86258,-2.84217E-13)">
					<title>Sheet.9610</title>
					<path d="M0 122.96 A1.7697 1.74807 -180 0 0 1.77 124.71 L41.56 124.71 A1.7697 1.74807 -180 0 0 43.33 122.96 L43.33
								 74.05 A1.7697 1.74807 -180 0 0 41.56 72.31 L1.77 72.31 A1.7697 1.74807 -180 0 0 0 74.05 L0 122.96
								 Z" class="st2"/>
				</g>
				<g id="shape9611-9" transform="translate(7.63027,-2.75906)">
					<title>Sheet.9611</title>
					<path d="M0 124.27 a0.443223 0.437805 -180 0 0 0.443212 0.437795 L37.35 124.71 a0.443223 0.437805 -180 0 0 0.443212
								 -0.437795 L37.79 78.26 a0.443223 0.437805 -180 0 0 -0.443212 -0.437795 L0.44 77.82 a0.443223 0.437805
								 -180 0 0 -0.443212 0.437795 L0 124.27 Z" class="st3"/>
				</g>
				<g id="shape9612-13" transform="translate(12.8245,-8.17323)">
					<title>Sheet.9612</title>
					<path d="M23.25 120.18 L26.96 120.18 a0.443212 0.437795 0 0 1 0.443212 0.434646 L27.4 124.27 a0.443212 0.437795
								 0 0 1 -0.443212 0.437795 L23.25 124.71 a0.443212 0.437795 0 0 1 -0.443212 -0.437795 L22.81 120.61
								 a0.440024 0.434646 0 0 1 0.443212 -0.434646 ZM0 120.61 L0 124.27 a0.440024 0.434646 -180 0 0 0.440024
								 0.437795 L18.79 124.71 a0.443212 0.437795 -180 0 0 0.443212 -0.437795 L19.23 120.61 a0.440024 0.434646
								 -180 0 0 -0.443212 -0.434646 L0.43 120.18 a0.440024 0.434646 -180 0 0 -0.427269 0.434646 ZM22.81
								 111.5 L22.81 115.16 a0.443212 0.437795 -180 0 0 0.443212 0.437795 L26.96 115.6 a0.443212 0.437795
								 -180 0 0 0.443212 -0.437795 L27.4 111.5 a0.443212 0.437795 -180 0 0 -0.443212 -0.434646 L23.25 111.06
								 a0.440024 0.434646 -180 0 0 -0.443212 0.434646 ZM0 111.5 L0 115.16 a0.440024 0.434646 -180 0 0 0.427269
								 0.453543 L18.77 115.61 a0.443212 0.437795 -180 0 0 0.443212 -0.437795 L19.22 111.5 a0.440024 0.434646
								 -180 0 0 -0.443212 -0.434646 L0.43 111.06 a0.440024 0.434646 -180 0 0 -0.427269 0.434646 ZM5.37
								 89.29 A1.25311 1.2378 0 1 1 4.12 88.06 A1.24992 1.23465 0 0 1 5.37 89.29 ZM5.32 106.19 A1.24992
								 1.23465 0 1 1 4.08 104.95 A1.25311 1.2378 0 0 1 5.32 106.19 ZM0.03 103.37 L0.03 100.61 A5.32492
								 5.25984 -180 0 0 1.67 101.55 A5.20376 5.14016 -180 0 0 3.47 101.87 A4.05268 4.00315 -180 0 0 4.41
								 101.79 A2.232 2.20472 -180 0 0 5.08 101.52 A1.14151 1.12756 -180 0 0 5.47 101.12 A1.01397 1.00157
								 -180 0 0 5.61 100.63 A1.09049 1.07717 -180 0 0 5.4 99.98 A2.232 2.20472 -180 0 0 4.83 99.46 A5.92757
								 5.85512 -180 0 0 3.97 98.99 C3.65 98.83 3.28 98.67 2.9 98.53 A5.47798 5.41102 0 0 1 0.71 97.04 A3.25873
								 3.2189 0 0 1 -0 94.94 A3.39265 3.35118 0 0 1 0.4 93.28 A3.35438 3.31339 0 0 1 1.47 92.14 A4.76374
								 4.70551 0 0 1 3.04 91.48 A8.21378 8.11339 0 0 1 4.93 91.27 A11.5522 11.411 0 0 1 6.66 91.4 A6.75022
								 6.66772 0 0 1 8.05 91.76 L8.05 94.34 A4.14515 4.09449 -180 0 0 7.37 93.96 A5.48435 5.41732 -180
								 0 0 6.61 93.68 A5.77133 5.70079 -180 0 0 5.83 93.52 A5.51624 5.44882 -180 0 0 5.09 93.46 A3.87412
								 3.82677 -180 0 0 4.22 93.55 A2.20331 2.17638 -180 0 0 3.55 93.81 A1.27543 1.25984 -180 0 0 3.13
								 94.2 a0.956573 0.944882 -180 0 0 -0.149863 0.513386 a0.994836 0.982677 -180 0 0 0.165806 0.55748
								 A1.91315 1.88976 -180 0 0 3.62 95.74 A5.0252 4.96378 -180 0 0 4.36 96.17 C4.65 96.31 4.98 96.46
								 5.34 96.61 A10.6307 10.5008 0 0 1 6.69 97.28 A4.84983 4.79055 0 0 1 7.72 98.07 A3.12799 3.08976
								 0 0 1 8.35 99.07 A4.07181 4.02205 0 0 1 8.18 102.13 A3.21728 3.17795 0 0 1 7.09 103.26 A4.70634
								 4.64882 0 0 1 5.5 103.89 A9.22137 9.10866 0 0 1 3.59 104.08 A10.5 10.3717 0 0 1 1.63 103.9 A5.96902
								 5.89606 0 0 1 0.03 103.37 Z" class="st4"/>
				</g>
			</g>
		</g>
	</g>
</svg>
