<?xml version="1.0" encoding="UTF-8" standalone="no"?>
<!-- Generated by Microsoft Visio, SVG Export Azure Monitor Service Bus Health.svg Page-1 -->

<svg
   xmlns:dc="http://purl.org/dc/elements/1.1/"
   xmlns:cc="http://creativecommons.org/ns#"
   xmlns:rdf="http://www.w3.org/1999/02/22-rdf-syntax-ns#"
   xmlns:svg="http://www.w3.org/2000/svg"
   xmlns="http://www.w3.org/2000/svg"
   xmlns:sodipodi="http://sodipodi.sourceforge.net/DTD/sodipodi-0.dtd"
   xmlns:inkscape="http://www.inkscape.org/namespaces/inkscape"
   width="0.7873624in"
   height="0.66940892in"
   viewBox="0 0 56.690001 48.197308"
   xml:space="preserve"
   class="st7"
   version="1.1"
   id="svg56"
   sodipodi:docname="Azure Monitor Service Bus Health.svg"
   style="font-size:12px;overflow:visible;color-interpolation-filters:sRGB;fill:none;fill-rule:evenodd;stroke-linecap:square;stroke-miterlimit:3"
   inkscape:version="0.92.5 (2060ec1f9f, 2020-04-08)"><metadata
   id="metadata60"><rdf:RDF><cc:Work
       rdf:about=""><dc:format>image/svg+xml</dc:format><dc:type
         rdf:resource="http://purl.org/dc/dcmitype/StillImage" /></cc:Work></rdf:RDF></metadata><sodipodi:namedview
   pagecolor="#ffffff"
   bordercolor="#666666"
   borderopacity="1"
   objecttolerance="10"
   gridtolerance="10"
   guidetolerance="10"
   inkscape:pageopacity="0"
   inkscape:pageshadow="2"
   inkscape:window-width="640"
   inkscape:window-height="480"
   id="namedview58"
   showgrid="false"
   inkscape:zoom="1.5230743"
   inkscape:cx="37.795396"
   inkscape:cy="32.117979"
   inkscape:window-x="0"
   inkscape:window-y="0"
   inkscape:window-maximized="0"
   inkscape:current-layer="svg56" />
	<style
   type="text/css"
   id="style2">
	<![CDATA[
		.st1 {fill:url(#grad0-6);stroke:none;stroke-linecap:butt;stroke-width:34}
		.st2 {fill:#32bedd;stroke:none;stroke-linecap:butt;stroke-width:34}
		.st3 {fill:#198ab3;stroke:none;stroke-linecap:butt;stroke-width:34}
		.st4 {fill:#b4ec36;stroke:none;stroke-linecap:butt;stroke-width:34}
		.st5 {fill:#50e6ff;stroke:none;stroke-linecap:butt;stroke-width:34}
		.st6 {fill:#ffffff;stroke:none;stroke-linecap:butt;stroke-width:34}
		.st7 {fill:none;fill-rule:evenodd;font-size:12px;overflow:visible;stroke-linecap:square;stroke-miterlimit:3}
	]]>
	</style>

	<defs
   id="Patterns_And_Gradients">
		<linearGradient
   id="grad0-6"
   x1="0"
   y1="90.721892"
   x2="47.623412"
   y2="90.721892"
   gradientTransform="scale(1.1903809,0.84006724)"
   gradientUnits="userSpaceOnUse">
			<stop
   offset="0"
   stop-color="#0078d4"
   stop-opacity="1"
   id="stop4" />
			<stop
   offset="0.155"
   stop-color="#1380da"
   stop-opacity="1"
   id="stop6" />
			<stop
   offset="0.53"
   stop-color="#3c91e5"
   stop-opacity="1"
   id="stop8" />
			<stop
   offset="0.82"
   stop-color="#559cec"
   stop-opacity="1"
   id="stop10" />
			<stop
   offset="1"
   stop-color="#5ea0ef"
   stop-opacity="1"
   id="stop12" />
		</linearGradient>
	</defs>
	<g
   id="g54"
   transform="translate(-34,-33.99715)">
		<title
   id="title16">Page-1</title>
		<g
   id="group12603-1"
   transform="translate(34,-34.0157)">
			<title
   id="title18">Azure Monitor Service Bus Health.12603</title>
			<g
   id="group12604-2">
				<title
   id="title20">MsPortalFx.base.images-58</title>
				<g
   id="shape12605-3"
   transform="translate(0,-8.19971)">
					<title
   id="title22">Sheet.12605</title>
					<path
   d="M 56.69,103.69 A 12.737,12.6757 -180 0 0 45.64,91.5 16.063,15.9857 -180 0 0 29.1,76.22 16.4693,16.39 -180 0 0 13.35,86.91 15.1969,15.1237 -180 0 0 0,101.46 15.4331,15.3588 -180 0 0 15.96,116.21 c 0.48,0 0.95,-0.02 1.41,-0.06 h 25.85 a 2.57953,2.56711 -180 0 0 0.68,-0.1 12.8913,12.8293 -180 0 0 12.79,-12.36 z"
   class="st1"
   id="path24"
   inkscape:connector-curvature="0"
   style="fill:url(#grad0-6);stroke:none;stroke-width:34;stroke-linecap:butt" />
				</g>
				<g
   id="shape12606-7"
   transform="translate(17.0866,-8.17777)">
					<title
   id="title27">Sheet.12606</title>
					<path
   d="M 20.92,109.09 H 0.89 a 0.869291,0.865107 -180 0 0 -0.888189,0.8463 L 0,115.37 a 0.869291,0.865107 -180 0 0 0.885039,0.8463 L 20.92,116.21 a 0.869291,0.865107 -180 0 0 0.885039,-0.8463 L 21.8,109.94 a 0.872441,0.868242 -180 0 0 -0.885039,-0.8463 z"
   class="st2"
   id="path29"
   inkscape:connector-curvature="0"
   style="fill:#32bedd;stroke:none;stroke-width:34;stroke-linecap:butt" />
				</g>
				<g
   id="shape12607-9"
   transform="translate(17.0866)">
					<title
   id="title32">Sheet.12607</title>
					<path
   d="M 20.92,109.09 H 0.89 a 0.869291,0.865107 -180 0 0 -0.888189,0.8463 L 0,115.36 a 0.869291,0.865107 -180 0 0 0.885039,0.84943 L 20.92,116.21 a 0.869291,0.865107 -180 0 0 0.885039,-0.84944 L 21.8,109.94 a 0.872441,0.868242 -180 0 0 -0.885039,-0.8463 z"
   class="st3"
   id="path34"
   inkscape:connector-curvature="0"
   style="fill:#198ab3;stroke:none;stroke-width:34;stroke-linecap:butt" />
				</g>
				<g
   id="shape12608-11"
   transform="translate(35.2693,-1.58916)">
					<title
   id="title37">Sheet.12608</title>
					<path
   d="M 0.23,103.83 H 1.4 a 0.226772,0.22568 0 0 1 0.226772,0.22568 L 1.63,105.18 a 0.217323,0.216277 0 0 1 -0.217323,0.21628 L 0.22,105.39 A 0.217323,0.216277 0 0 1 0.002677,105.17372 L 0,104.05 a 0.226772,0.22568 0 0 1 0.226772,-0.21628 z m -0.01,2.69 H 1.4 a 0.226772,0.22568 0 0 1 0.226772,0.22568 L 1.63,107.85 a 0.226772,0.22568 0 0 1 -0.226772,0.22568 L 0.23,108.08 A 0.226772,0.22568 0 0 1 0.003228,107.85432 L 0,106.73 a 0.217323,0.216277 0 0 1 0.220472,-0.21628 z m 0.07,5.45 h 1.18 a 0.226772,0.22568 0 0 1 0.226772,0.22568 L 1.7,113.31 a 0.217323,0.216277 0 0 1 -0.217323,0.21628 L 0.3,113.53 A 0.226772,0.22568 0 0 1 0.073228,113.30432 L 0.07,112.2 a 0.217323,0.216277 0 0 1 0.217323,-0.22881 z m 0,2.68 h 1.18 a 0.226772,0.22568 0 0 1 0.226772,0.22568 L 1.7,116 a 0.217323,0.216277 0 0 1 -0.217323,0.21628 L 0.29,116.21 A 0.217323,0.216277 0 0 1 0.072677,115.99372 L 0.07,114.87 a 0.217323,0.216277 0 0 1 0.217323,-0.21628 z"
   class="st4"
   id="path39"
   inkscape:connector-curvature="0"
   style="fill:#b4ec36;stroke:none;stroke-width:34;stroke-linecap:butt" />
				</g>
				<g
   id="shape12609-13"
   transform="translate(16.8976,-16.9762)">
					<title
   id="title42">Sheet.12609</title>
					<path
   d="M 20.92,109.07 H 0.89 a 0.869291,0.865107 -180 0 0 -0.888189,0.84943 L 0,115.36 a 0.872441,0.868242 -180 0 0 0.885039,0.84943 L 20.92,116.21 a 0.872441,0.868242 -180 0 0 0.885039,-0.84944 L 21.8,109.92 a 0.872441,0.868242 -180 0 0 -0.885039,-0.84943 z"
   class="st5"
   id="path44"
   inkscape:connector-curvature="0"
   style="fill:#50e6ff;stroke:none;stroke-width:34;stroke-linecap:butt" />
				</g>
				<g
   id="shape12610-15"
   transform="translate(19.9616,-18.5497)">
					<title
   id="title47">Sheet.12610</title>
					<path
   d="m 15.34,111.98 h 1.18 a 0.226772,0.22568 0 0 1 0.226772,0.22568 L 16.75,113.32 a 0.217323,0.216277 0 0 1 -0.217323,0.21628 L 15.35,113.54 a 0.226772,0.22568 0 0 1 -0.226772,-0.22568 L 15.12,112.2 a 0.217323,0.216277 0 0 1 0.220472,-0.21628 z m 0,2.68 h 1.18 a 0.226772,0.22568 0 0 1 0.226772,0.22568 L 16.75,116 a 0.217323,0.216277 0 0 1 -0.217323,0.21628 L 15.34,116.21 a 0.217323,0.216277 0 0 1 -0.217323,-0.21628 L 15.12,114.87 a 0.217323,0.216277 0 0 1 0.217323,-0.20687 z m 1.34,-9.01 -7.65,7.62 a 0.913386,0.908989 0 0 1 -1.29134,0 L 0.09,105.65 a 0.409449,0.407478 0 0 1 0.289764,-0.69271 L 5.08,104.96 a 0.406299,0.404344 -180 0 0 0.406299,-0.40434 L 5.49,95.04 A 0.314961,0.313445 0 0 1 5.804961,94.726555 L 10.95,94.73 a 0.314961,0.313445 0 0 1 0.314961,0.313445 L 11.27,104.56 a 0.406299,0.404344 -180 0 0 0.406299,0.40434 L 16.38,104.96 a 0.409449,0.407478 0 0 1 0.302362,0.68958 z"
   class="st6"
   id="path49"
   inkscape:connector-curvature="0"
   style="fill:#ffffff;stroke:none;stroke-width:34;stroke-linecap:butt" />
				</g>
			</g>
		</g>
	</g>
</svg>