<?xml version="1.0" encoding="UTF-8" standalone="no"?>
<!-- Generated by Microsoft Visio, SVG Export Quickstart Center.svg Page-1 -->

<svg
   xmlns:dc="http://purl.org/dc/elements/1.1/"
   xmlns:cc="http://creativecommons.org/ns#"
   xmlns:rdf="http://www.w3.org/1999/02/22-rdf-syntax-ns#"
   xmlns:svg="http://www.w3.org/2000/svg"
   xmlns="http://www.w3.org/2000/svg"
   xmlns:sodipodi="http://sodipodi.sourceforge.net/DTD/sodipodi-0.dtd"
   xmlns:inkscape="http://www.inkscape.org/namespaces/inkscape"
   width="0.78741747in"
   height="0.78742719in"
   viewBox="0 0 56.694056 56.694898"
   xml:space="preserve"
   class="st9"
   version="1.1"
   id="svg84"
   sodipodi:docname="Quickstart Center.svg"
   style="font-size:12px;overflow:visible;color-interpolation-filters:sRGB;fill:none;fill-rule:evenodd;stroke-linecap:square;stroke-miterlimit:3"
   inkscape:version="0.92.5 (2060ec1f9f, 2020-04-08)"><metadata
   id="metadata90"><rdf:RDF><cc:Work
       rdf:about=""><dc:format>image/svg+xml</dc:format><dc:type
         rdf:resource="http://purl.org/dc/dcmitype/StillImage" /></cc:Work></rdf:RDF></metadata><defs
   id="defs88" /><sodipodi:namedview
   pagecolor="#ffffff"
   bordercolor="#666666"
   borderopacity="1"
   objecttolerance="10"
   gridtolerance="10"
   guidetolerance="10"
   inkscape:pageopacity="0"
   inkscape:pageshadow="2"
   inkscape:window-width="640"
   inkscape:window-height="480"
   id="namedview86"
   showgrid="false"
   inkscape:zoom="1.8365233"
   inkscape:cx="37.795184"
   inkscape:cy="18.900351"
   inkscape:window-x="0"
   inkscape:window-y="0"
   inkscape:window-maximized="0"
   inkscape:current-layer="svg84" />
	<style
   type="text/css"
   id="style2">
	<![CDATA[
		.st1 {fill:#ff8c00;stroke:none;stroke-linecap:butt;stroke-width:3.825}
		.st2 {fill:#dd5900;stroke:none;stroke-linecap:butt;stroke-width:3.825}
		.st3 {fill:#fcd116;stroke:none;stroke-linecap:butt;stroke-width:3.825}
		.st4 {fill:#ff8c00;fill-opacity:0.2;stroke:none;stroke-linecap:butt;stroke-width:3.825}
		.st5 {fill:#0072c6;stroke:none;stroke-linecap:butt;stroke-width:3.825}
		.st6 {fill:#ffffff;fill-opacity:0.6;stroke:none;stroke-linecap:butt;stroke-width:3.825}
		.st7 {fill:#ffffff;stroke:none;stroke-linecap:butt;stroke-width:3.825}
		.st8 {fill:#ff8c00;fill-opacity:0.4;stroke:none;stroke-linecap:butt;stroke-width:3.825}
		.st9 {fill:none;fill-rule:evenodd;font-size:12px;overflow:visible;stroke-linecap:square;stroke-miterlimit:3}
	]]>
	</style>

	<g
   id="g82"
   transform="translate(-5.6693772,-5.6694)">
		<title
   id="title4">Page-1</title>
		<g
   id="group17698-1"
   transform="translate(5.66929,-34.0157)">
			<title
   id="title6">Quickstart Center.17698</title>
			<g
   id="group17699-2">
				<title
   id="title8">Sheet.17699</title>
				<g
   id="shape17700-3"
   transform="translate(1.23965,-23.5704)">
					<title
   id="title10">Sheet.17700</title>
					<path
   d="m 11.08,96.38 c 0,0 -6.41,-4.83 -11.08,-3.41 1.29,-4.65 7.74,-9.91 13.55,-10.94 6.83,0.78 8.02,1.98 8.02,1.98 z"
   class="st1"
   id="path12"
   inkscape:connector-curvature="0"
   style="fill:#ff8c00;stroke:none;stroke-width:3.82500005;stroke-linecap:butt" />
				</g>
				<g
   id="shape17701-5"
   transform="translate(23.9978,-0.812173)">
					<title
   id="title15">Sheet.17701</title>
					<path
   d="M 0,85.3 12.37,74.81 c 0,0 1.19,1.19 1.98,8.02 C 13.31,88.64 8.05,95.08 3.41,96.38 4.82,91.7 0,85.3 0,85.3 Z"
   class="st2"
   id="path17"
   inkscape:connector-curvature="0"
   style="fill:#dd5900;stroke:none;stroke-width:3.82500005;stroke-linecap:butt" />
				</g>
				<g
   id="shape17702-7"
   transform="translate(12.001,-12.0014)">
					<title
   id="title20">Sheet.17702</title>
					<path
   d="m 44.69,51.69 c 0,0 -27.36,5.81 -44.69,32.71 L 11.97,96.38 C 38.88,79.05 44.69,51.69 44.69,51.69 Z"
   class="st3"
   id="path22"
   inkscape:connector-curvature="0"
   style="fill:#fcd116;stroke:none;stroke-width:3.82500005;stroke-linecap:butt" />
				</g>
				<g
   id="shape17703-9"
   transform="translate(12.001,-12.0014)">
					<title
   id="title25">Sheet.17703</title>
					<path
   d="m 44.69,51.69 c 0,0 -27.36,5.81 -44.69,32.71 L 11.97,96.38 C 38.88,79.05 44.69,51.69 44.69,51.69 Z"
   class="st4"
   id="path27"
   inkscape:connector-curvature="0"
   style="fill:#ff8c00;fill-opacity:0.2;stroke:none;stroke-width:3.82500005;stroke-linecap:butt" />
				</g>
				<g
   id="shape17704-11"
   transform="translate(17.9885,-12.0014)">
					<title
   id="title30">Sheet.17704</title>
					<path
   d="M 38.7,51.69 0,90.39 5.99,96.38 C 32.89,79.05 38.7,51.69 38.7,51.69 Z"
   class="st2"
   id="path32"
   inkscape:connector-curvature="0"
   style="fill:#dd5900;stroke:none;stroke-width:3.82500005;stroke-linecap:butt" />
				</g>
				<g
   id="shape17705-13"
   transform="translate(13.507,-13.5074)">
					<title
   id="title35">Sheet.17705</title>
					<path
   d="M 0,87.41 C 13.49,67.33 32.33,59.17 39.42,56.96 37.21,64.04 29.04,82.89 8.96,96.38 Z"
   class="st1"
   id="path37"
   inkscape:connector-curvature="0"
   style="fill:#ff8c00;stroke:none;stroke-width:3.82500005;stroke-linecap:butt" />
				</g>
				<g
   id="shape17706-15"
   transform="translate(40.8442,-40.8449)">
					<title
   id="title40">Sheet.17706</title>
					<path
   d="m 15.85,80.53 c 0,0 -6.84,1.45 -15.85,6.27 l 9.58,9.58 c 4.82,-9.01 6.27,-15.85 6.27,-15.85 z"
   class="st5"
   id="path42"
   inkscape:connector-curvature="0"
   style="fill:#0072c6;stroke:none;stroke-width:3.82500005;stroke-linecap:butt" />
				</g>
				<g
   id="shape17707-17">
					<title
   id="title45">Sheet.17707</title>
					<path
   d="M 0,96.38 C 0,96.38 0.01,82 12,72.4 L 23.98,84.38 C 14.38,96.37 0,96.38 0,96.38 Z"
   class="st1"
   id="path47"
   inkscape:connector-curvature="0"
   style="fill:#ff8c00;stroke:none;stroke-width:3.82500005;stroke-linecap:butt" />
				</g>
				<g
   id="shape17708-19"
   transform="translate(4.05662,-4.052)">
					<title
   id="title50">Sheet.17708</title>
					<path
   d="M 0,96.38 C 0.34,92.98 2.51,84.81 9.62,78.13 l 8.63,8.63 C 11.55,93.9 3.39,96.04 0,96.38 Z"
   class="st3"
   id="path52"
   inkscape:connector-curvature="0"
   style="fill:#fcd116;stroke:none;stroke-width:3.82500005;stroke-linecap:butt" />
				</g>
				<g
   id="shape17709-21"
   transform="translate(8.29943,-8.29365)">
					<title
   id="title55">Sheet.17709</title>
					<path
   d="M 0,96.38 C 0.71,93.05 2.63,88.03 6.59,83.59 l 6.2,6.19 C 7.79,94.27 2.44,95.86 0,96.38 Z"
   class="st6"
   id="path57"
   inkscape:connector-curvature="0"
   style="fill:#ffffff;fill-opacity:0.6;stroke:none;stroke-width:3.82500005;stroke-linecap:butt" />
				</g>
				<g
   id="shape17710-23"
   transform="translate(29.8095,-29.8103)">
					<title
   id="title60">Sheet.17710</title>
					<circle
   cx="6.1674299"
   cy="90.210503"
   class="st7"
   id="ellipse62"
   r="6.1674299"
   style="fill:#ffffff;stroke:none;stroke-width:3.82500005;stroke-linecap:butt" />
				</g>
				<g
   id="shape17711-25"
   transform="translate(31.3579,-31.3614)">
					<title
   id="title65">Sheet.17711</title>
					<circle
   cx="4.6178598"
   cy="91.760101"
   class="st3"
   id="ellipse67"
   r="4.6178598"
   style="fill:#fcd116;stroke:none;stroke-width:3.82500005;stroke-linecap:butt" />
				</g>
				<g
   id="shape17712-27"
   transform="translate(31.7912,-30.7161)">
					<title
   id="title70">Sheet.17712</title>
					<path
   d="M 8.37,89.16 C 9.45,91.47 8.45,94.22 6.14,95.3 3.83,96.38 1.08,95.38 0,93.07 Z"
   class="st8"
   id="path72"
   inkscape:connector-curvature="0"
   style="fill:#ff8c00;fill-opacity:0.4;stroke:none;stroke-width:3.82500005;stroke-linecap:butt" />
				</g>
				<g
   id="shape17713-29"
   transform="translate(11.5393,-11.5146)">
					<title
   id="title75">Sheet.17713</title>
					<path
   d="M 4.28,94.49 C 2.89,95.88 0,96.38 0,96.38 c 0,0 0.61,-3.05 1.86,-4.31 l 11.6,-11.59 2.41,2.42 z"
   class="st2"
   id="path77"
   inkscape:connector-curvature="0"
   style="fill:#dd5900;stroke:none;stroke-width:3.82500005;stroke-linecap:butt" />
				</g>
			</g>
		</g>
	</g>
</svg>