<?xml version="1.0" encoding="UTF-8" standalone="no"?>
<!-- Generated by Microsoft Visio, SVG Export Resource Graph query.svg Page-1 -->

<svg
   xmlns:dc="http://purl.org/dc/elements/1.1/"
   xmlns:cc="http://creativecommons.org/ns#"
   xmlns:rdf="http://www.w3.org/1999/02/22-rdf-syntax-ns#"
   xmlns:svg="http://www.w3.org/2000/svg"
   xmlns="http://www.w3.org/2000/svg"
   xmlns:sodipodi="http://sodipodi.sourceforge.net/DTD/sodipodi-0.dtd"
   xmlns:inkscape="http://www.inkscape.org/namespaces/inkscape"
   width="0.78739744in"
   height="0.7873562in"
   viewBox="0 0 56.692524 56.689957"
   xml:space="preserve"
   class="st5"
   version="1.1"
   id="svg49"
   sodipodi:docname="Resource Graph query.svg"
   style="font-size:12px;overflow:visible;color-interpolation-filters:sRGB;fill:none;fill-rule:evenodd;stroke-linecap:square;stroke-miterlimit:3"
   inkscape:version="0.92.5 (2060ec1f9f, 2020-04-08)"><metadata
   id="metadata55"><rdf:RDF><cc:Work
       rdf:about=""><dc:format>image/svg+xml</dc:format><dc:type
         rdf:resource="http://purl.org/dc/dcmitype/StillImage" /></cc:Work></rdf:RDF></metadata><defs
   id="defs53" /><sodipodi:namedview
   pagecolor="#ffffff"
   bordercolor="#666666"
   borderopacity="1"
   objecttolerance="10"
   gridtolerance="10"
   guidetolerance="10"
   inkscape:pageopacity="0"
   inkscape:pageshadow="2"
   inkscape:window-width="640"
   inkscape:window-height="480"
   id="namedview51"
   showgrid="false"
   inkscape:zoom="1.4193119"
   inkscape:cx="37.795138"
   inkscape:cy="37.78453"
   inkscape:window-x="0"
   inkscape:window-y="0"
   inkscape:window-maximized="0"
   inkscape:current-layer="svg49" />
	<style
   type="text/css"
   id="style2">
	<![CDATA[
		.st1 {fill:#552f99;stroke:none;stroke-linecap:butt;stroke-width:34}
		.st2 {fill:#ffffff;stroke:none;stroke-linecap:butt;stroke-width:34}
		.st3 {fill:#b796f9;stroke:none;stroke-linecap:butt;stroke-width:34}
		.st4 {fill:#9a5fe3;stroke:none;stroke-linecap:butt;stroke-width:34}
		.st5 {fill:none;fill-rule:evenodd;font-size:12px;overflow:visible;stroke-linecap:square;stroke-miterlimit:3}
	]]>
	</style>

	<g
   id="g47"
   transform="translate(-34.000434,-34.003097)">
		<title
   id="title4">Page-1</title>
		<g
   id="group17667-1"
   transform="translate(34,-34.0157)">
			<title
   id="title6">Resource Graph query.17667</title>
			<g
   id="group17668-2">
				<title
   id="title8">Sheet.17668</title>
				<g
   id="shape17669-3"
   transform="translate(0,-17.6012)">
					<title
   id="title10">Sheet.17669</title>
					<path
   d="m 0,122.76 a 1.92682,1.94474 -180 0 0 1.93,1.95 H 36.8 a 1.92682,1.94474 -180 0 0 1.93,-1.95 V 87.56 A 1.92682,1.94474 -180 0 0 36.8,85.62 H 1.93 A 1.92682,1.94474 -180 0 0 0,87.56 Z"
   class="st1"
   id="path12"
   inkscape:connector-curvature="0"
   style="fill:#552f99;stroke:none;stroke-width:34;stroke-linecap:butt" />
				</g>
				<g
   id="shape17670-5"
   transform="translate(2.87383,-44.6621)">
					<title
   id="title15">Sheet.17670</title>
					<path
   d="M 0.62,119.04 H 32.4 c 0.32,0 0.62,0 0.62,0.2 v 5.3 c 0,0 -0.3,0.17 -0.62,0.17 H 0.62 C 0.26,124.54 0,124.54 0,124.54 v -5.3 c 0,0 0.26,-0.2 0.62,-0.2 z"
   class="st2"
   id="path17"
   inkscape:connector-curvature="0"
   style="fill:#ffffff;stroke:none;stroke-width:34;stroke-linecap:butt" />
				</g>
				<g
   id="shape17671-7"
   transform="translate(2.87383,-24.1604)">
					<title
   id="title20">Sheet.17671</title>
					<path
   d="m 0.62,108.92 h 32.4 v 5.41 H 0 v -5.24 c 0,0 0.26,-0.17 0.62,-0.17 z m 0,10.38 h 32.4 v 5.24 c 0,0 -0.3,0.17 -0.62,0.17 H 0.62 c -0.36,0 -0.62,0 -0.62,-0.17 v -5.07 c 0,0 0.26,-0.17 0.62,-0.17 z"
   class="st3"
   id="path22"
   inkscape:connector-curvature="0"
   style="fill:#b796f9;stroke:none;stroke-width:34;stroke-linecap:butt" />
				</g>
				<g
   id="shape17672-9"
   transform="translate(28.7803,-5.27376)">
					<title
   id="title25">Sheet.17672</title>
					<path
   d="M 17.46,124.71 0.28,107.27 a 1.33895,1.3514 0 0 1 0.98,-2.3 h 21.85 v 2.73 H 4.5 l 14.89,15.23 z"
   class="st3"
   id="path27"
   inkscape:connector-curvature="0"
   style="fill:#b796f9;stroke:none;stroke-width:34;stroke-linecap:butt" />
				</g>
				<g
   id="shape17673-11"
   transform="translate(26.7789,-19.7436)">
					<title
   id="title30">Sheet.17673</title>
					<ellipse
   cx="3.7555799"
   cy="120.918"
   rx="3.7555799"
   ry="3.7905099"
   class="st4"
   id="ellipse32"
   style="fill:#9a5fe3;stroke:none;stroke-width:34;stroke-linecap:butt" />
				</g>
				<g
   id="shape17674-13"
   transform="translate(47.0917,-19.2163)">
					<title
   id="title35">Sheet.17674</title>
					<ellipse
   cx="4.8006101"
   cy="119.863"
   rx="4.8006101"
   ry="4.8452702"
   class="st4"
   id="ellipse37"
   style="fill:#9a5fe3;stroke:none;stroke-width:34;stroke-linecap:butt" />
				</g>
				<g
   id="shape17675-15"
   transform="translate(40.7562)">
					<title
   id="title40">Sheet.17675</title>
					<ellipse
   cx="6.1069002"
   cy="118.578"
   rx="6.1069002"
   ry="6.1307502"
   class="st4"
   id="ellipse42"
   style="fill:#9a5fe3;stroke:none;stroke-width:34;stroke-linecap:butt" />
				</g>
			</g>
		</g>
	</g>
</svg>