<?xml version="1.0" encoding="UTF-8" standalone="no"?>
<!DOCTYPE svg PUBLIC "-//W3C//DTD SVG 1.1//EN" "http://www.w3.org/Graphics/SVG/1.1/DTD/svg11.dtd">
<!-- Generated by Microsoft Visio, SVG Export Azure Active Directory Risky sign.svg Page-1 -->
<svg xmlns="http://www.w3.org/2000/svg" xmlns:xlink="http://www.w3.org/1999/xlink" xmlns:ev="http://www.w3.org/2001/xml-events"
		width="1.69215in" height="1.41732in" viewBox="0 0 121.835 102.047" xml:space="preserve" color-interpolation-filters="sRGB"
		class="st6">
	<style type="text/css">
	<![CDATA[
		.st1 {fill:#57a300;stroke:none;stroke-linecap:butt;stroke-width:0.489424}
		.st2 {fill:#0072c6;stroke:none;stroke-linecap:butt;stroke-width:0.489424}
		.st3 {fill:#ff8c00;stroke:none;stroke-linecap:butt;stroke-width:0.489424}
		.st4 {visibility:visible}
		.st5 {fill:#000000;font-family:Calibri;font-size:0.666664em}
		.st6 {fill:none;fill-rule:evenodd;font-size:12px;overflow:visible;stroke-linecap:square;stroke-miterlimit:3}
	]]>
	</style>

	<g>
		<title>Page-1</title>
		<g id="group7161-1" transform="translate(31.1537,-39.685)">
			<title>Azure-Active-Directory-Risky-Sign-in</title>
			<desc>Azure Active Directory Risky sign</desc>
			<g id="group7162-2">
				<title>g16</title>
				<g id="shape7163-3" transform="translate(0,-16.5648)">
					<title>path10</title>
					<path d="M28.52 87.19 L19.03 78.27 L26.58 78.27 L39.37 90.16 L26.78 102.05 L19.03 102.05 L28.52 93.13 L1.7 93.13
								 C0.73 93.13 0 92.04 0 91.07 L0 88.61 C0 87.65 0.73 87.18 1.7 87.18 L28.52 87.19 Z" class="st1"/>
				</g>
				<g id="shape7164-5" transform="translate(3.77134,-0.215907)">
					<title>path12</title>
					<path d="M1.53 60.6 A4.70288 4.66465 -180 0 0 8.18 60.5 L8.29 60.4 A19.0156 18.861 0 0 1 35.18 60.68 C35.26 60.76
								 35.34 60.84 35.42 60.92 A18.9207 18.7668 0 0 1 40.71 75.37 A4.8393 4.79996 0 0 1 42.86 77.3 L42.87
								 77.32 L42.88 77.34 L47.69 85.63 A28.4812 28.2497 -180 0 0 41.93 53.81 A28.843 28.6085 -180 0 0 21.68
								 45.57 A28.5358 28.3038 -180 0 0 1.43 53.81 C1.4 53.84 1.36 53.87 1.33 53.9 A4.70288 4.66465 -180
								 0 0 1.43 60.5 C1.46 60.54 1.5 60.57 1.53 60.6 ZM22.33 100 A4.90217 4.86232 0 0 1 23.01 97.65 L25.99
								 92.37 A18.9574 18.8033 0 0 1 8.18 87.11 A5.19873 5.15647 -180 0 0 8.08 87.01 A4.70288 4.66465 -180
								 0 0 1.43 87.11 C1.39 87.15 1.36 87.18 1.33 87.21 A4.70288 4.66465 -180 0 0 1.43 93.81 A28.8436 28.6091
								 -180 0 0 21.68 102.05 C22.04 102.05 22.4 102.04 22.76 102.03 A4.57892 4.54169 0 0 1 22.33 100 Z"
							class="st2"/>
				</g>
				<g id="shape7165-7" transform="translate(28.7179,2.84217E-13)">
					<title>path14</title>
					<path d="M27.85 98.61 L21.86 88.61 L15.88 78.29 A2.22718 2.20907 -180 0 0 13.99 77.12 A2.22718 2.20907 -180 0
								 0 12.1 78.29 L6.11 87.98 L0.12 98.61 A2.20998 2.19201 -180 0 0 2.01 102.05 L25.96 102.05 A2.20998
								 2.19201 -180 0 0 27.85 98.61 ZM14.3 84.54 L15.88 84.54 L15.25 93.61 L12.73 93.61 L12.41 84.54 L14.3
								 84.54 ZM13.99 98.29 A1.89029 1.87492 0 0 1 12.1 96.42 A1.89029 1.87492 0 0 1 13.99 94.54 A1.89029
								 1.87492 0 0 1 15.88 96.42 A1.89029 1.87492 0 0 1 13.99 98.29 L13.99 98.29 Z" class="st3"/>
				</g>
			</g>
			<g id="shape7161-9">
				<g id="shadow7161-10" transform="matrix(1,0,0,1,1.41732,1.41732)" class="st4"/>
				<text x="-24.57" y="117.75" class="st5">Azure Active Directory Risky sign</text>			</g>
		</g>
	</g>
</svg>
