<?xml version="1.0" encoding="UTF-8" standalone="no"?>
<!DOCTYPE svg PUBLIC "-//W3C//DTD SVG 1.1//EN" "http://www.w3.org/Graphics/SVG/1.1/DTD/svg11.dtd">
<!-- Generated by Microsoft Visio, SVG Export Managed Identity.svg Page-1 -->
<svg xmlns="http://www.w3.org/2000/svg" xmlns:xlink="http://www.w3.org/1999/xlink" xmlns:ev="http://www.w3.org/2001/xml-events"
		width="1.04617in" height="1.43993in" viewBox="0 0 75.3243 103.675" xml:space="preserve" color-interpolation-filters="sRGB"
		class="st12">
	<style type="text/css">
	<![CDATA[
		.st1 {fill:#fcd116;stroke:none;stroke-linecap:butt;stroke-width:7.92}
		.st2 {fill:#ffffff;fill-opacity:0.5;stroke:none;stroke-linecap:butt;stroke-width:7.92}
		.st3 {fill:#ff8c00;fill-opacity:0.4;stroke:none;stroke-linecap:butt;stroke-width:7.92}
		.st4 {fill:#50e6ff;stroke:none;stroke-linecap:butt;stroke-width:18.6403}
		.st5 {fill:#ffffff;stroke:none;stroke-linecap:butt;stroke-width:18.6403}
		.st6 {fill:url(#grad0-19);stroke:none;stroke-linecap:butt;stroke-width:18.6403}
		.st7 {fill:#53b1e0;stroke:none;stroke-linecap:butt;stroke-width:18.6403}
		.st8 {fill:#9cebff;stroke:none;stroke-linecap:butt;stroke-width:18.6403}
		.st9 {fill:url(#grad0-27);stroke:none;stroke-linecap:butt;stroke-width:18.6403}
		.st10 {visibility:visible}
		.st11 {fill:#000000;font-family:Calibri;font-size:0.666664em}
		.st12 {fill:none;fill-rule:evenodd;font-size:12px;overflow:visible;stroke-linecap:square;stroke-miterlimit:3}
	]]>
	</style>

	<defs id="Patterns_And_Gradients">
		<linearGradient id="grad0-19" x1="0" y1="0" x2="1" y2="0" gradientTransform="rotate(-133.54829372701 0.5 0.5)">
			<stop offset="0" stop-color="#1988d9" stop-opacity="1"/>
			<stop offset="0.9" stop-color="#54aef0" stop-opacity="1"/>
		</linearGradient>
		<linearGradient id="grad0-27" x1="0" y1="0" x2="1" y2="0" gradientTransform="rotate(65.834982258294 0.5 0.5)">
			<stop offset="0.1" stop-color="#54aef0" stop-opacity="1"/>
			<stop offset="0.29" stop-color="#4fabee" stop-opacity="1"/>
			<stop offset="0.51" stop-color="#41a2e9" stop-opacity="1"/>
			<stop offset="0.74" stop-color="#2a93e0" stop-opacity="1"/>
			<stop offset="0.88" stop-color="#1988d9" stop-opacity="1"/>
		</linearGradient>
	</defs>
	<g>
		<title>Page-1</title>
		<g id="group7105-1" transform="translate(14.1643,-39.685)">
			<title>Managed Identity.7105</title>
			<desc>Managed Identity</desc>
			<g id="group7106-2">
				<title> MSI_2</title>
				<g id="shape7107-3">
					<title>path6</title>
					<path d="M17.25 95.8 C15.91 94.84 15.73 94.38 16.43 93.54 L23.85 85.05 L23.85 79.18 L33.54 69.5 C36.03 67.01
								 36.03 62.97 33.54 60.48 L22.53 49.47 C20.04 46.98 16 46.98 13.5 49.47 L2.49 60.48 C0 62.97 0 67.01
								 2.49 69.5 L12.95 79.95 L12.95 80.83 L9.97 83.81 L12.92 86.76 L9.97 89.7 L12.92 92.65 L9.97 95.6
								 L12.95 98.57 L12.95 98.61 L18.02 103.68 L21.85 99.01 L17.25 95.8 ZM14.39 55.76 C14.39 52.53 18.3
								 50.91 20.58 53.19 C22.86 55.48 21.25 59.38 18.02 59.38 C16.02 59.38 14.39 57.75 14.39 55.76 Z"
							class="st1"/>
				</g>
				<g id="shape7108-5" transform="translate(7.91124,-32.907)">
					<title>path8</title>
					<path d="M0 95.78 L20.92 95.78 L20.92 98.79 L0 98.79 L0 95.78 ZM0 100.67 L20.92 100.67 L20.92 103.68 L0 103.68
								 L0 100.67 Z" class="st2"/>
				</g>
				<g id="shape7109-7" transform="translate(18.8516,-13.6516)">
					<title>path22</title>
					<path d="M2.28 101.4 L2.28 93.79 L0 94.91 L0 103.68 L2.28 101.4 Z" class="st3"/>
				</g>
			</g>
			<g id="group7110-9" transform="translate(17.5476,-1.23692)">
				<title>g16</title>
				<g id="shape7111-10">
					<title>path2</title>
					<path d="M1.4 93.97 L12.39 101.1 L23.57 93.94 L24.97 95.58 L12.39 103.68 L0 95.58 L1.4 93.97 Z" class="st4"/>
				</g>
				<g id="shape7112-12" transform="translate(2.23361,-4.0627)">
					<title>path4</title>
					<path d="M0 97.12 L10.16 85.03 L20.52 97.13 L10.16 103.68 L0 97.12 Z" class="st5"/>
				</g>
				<g id="shape7113-14" transform="translate(2.23361,-4.0627)">
					<title>path6-5</title>
					<path d="M10.16 85.03 L10.16 103.68 L0 97.12 L10.16 85.03 Z" class="st4"/>
				</g>
				<g id="shape7114-16" transform="translate(12.3889,-4.0627)">
					<title>path8-1</title>
					<path d="M0 85.03 L0 103.68 L10.36 97.13 L0 85.03 Z" class="st6"/>
				</g>
				<g id="shape7115-20" transform="translate(12.3889,-4.0627)">
					<title>path10-1</title>
					<path d="M0 94.66 L10.36 97.13 L0 103.68 L0 94.66 Z" class="st7"/>
				</g>
				<g id="shape7116-22" transform="translate(2.23361,-4.0627)">
					<title>path12-6</title>
					<path d="M10.16 103.68 L0 97.12 L10.16 94.66 L10.16 103.68 Z" class="st8"/>
				</g>
				<g id="shape7117-24" transform="translate(12.3889,1.13687E-13)">
					<title>path14-3</title>
					<path d="M0 103.68 L12.58 95.58 L11.18 93.94 L0 101.1 L0 103.68 Z" class="st9"/>
				</g>
			</g>
			<g id="shape7105-28">
				<g id="shadow7105-29" transform="matrix(1,0,0,1,1.41732,1.41732)" class="st10"/>
				<text x="-7.58" y="119.38" class="st11">Managed Identity</text>			</g>
		</g>
	</g>
</svg>
