<?xml version="1.0" encoding="UTF-8" standalone="no"?>
<!DOCTYPE svg PUBLIC "-//W3C//DTD SVG 1.1//EN" "http://www.w3.org/Graphics/SVG/1.1/DTD/svg11.dtd">
<!-- Generated by Microsoft Visio, SVG Export Dashboard.svg Page-1 -->
<svg xmlns="http://www.w3.org/2000/svg" xmlns:xlink="http://www.w3.org/1999/xlink" xmlns:ev="http://www.w3.org/2001/xml-events"
		width="1.73185in" height="1.49588in" viewBox="0 0 124.693 107.703" xml:space="preserve" color-interpolation-filters="sRGB"
		class="st6">
	<style type="text/css">
	<![CDATA[
		.st1 {fill:url(#grad0-6);stroke:none;stroke-linecap:butt;stroke-width:34}
		.st2 {fill:#f9f9f9;fill-opacity:0.9;stroke:none;stroke-linecap:butt;stroke-width:36.0434}
		.st3 {fill:#ffffff;fill-opacity:0.6;stroke:none;stroke-linecap:butt;stroke-width:36.0434}
		.st4 {fill:#f2f2f2;fill-opacity:0.9;stroke:none;stroke-linecap:butt;stroke-width:36.0434}
		.st5 {fill:#ffffff;stroke:none;stroke-linecap:butt;stroke-width:36.0434}
		.st6 {fill:none;fill-rule:evenodd;font-size:12px;overflow:visible;stroke-linecap:square;stroke-miterlimit:3}
	]]>
	</style>

	<defs id="Patterns_And_Gradients">
		<linearGradient id="grad0-6" x1="0" y1="0" x2="1" y2="0" gradientTransform="rotate(90 0.5 0.5)">
			<stop offset="0.09" stop-color="#6cc6b9" stop-opacity="1"/>
			<stop offset="0.465" stop-color="#6ac4b7" stop-opacity="1"/>
			<stop offset="0.635" stop-color="#62bdb0" stop-opacity="1"/>
			<stop offset="0.77" stop-color="#56b1a4" stop-opacity="1"/>
			<stop offset="0.88" stop-color="#439f93" stop-opacity="1"/>
			<stop offset="0.975" stop-color="#2c897d" stop-opacity="1"/>
			<stop offset="1" stop-color="#258277" stop-opacity="1"/>
		</linearGradient>
	</defs>
	<g>
		<title>Page-1</title>
		<g id="group9407-1" transform="translate(34,-34.0157)">
			<title>Dashboard.9407</title>
			<g id="group9408-2">
				<title>g10</title>
				<g id="shape9409-3">
					<title>path2</title>
					<path d="M1.73 68.02 L54.95 68.02 A1.64724 1.62786 0 0 1 56.69 69.55 L56.69 106.17 A1.64724 1.62786 0 0 1 54.97
								 107.7 L1.73 107.7 A1.64724 1.62786 0 0 1 -0 106.17 L0 69.55 A1.64724 1.62786 0 0 1 1.73 68.02 Z"
							class="st1"/>
				</g>
				<g id="shape9410-7" transform="translate(39.4507,-5.57031)">
					<title>rect4</title>
					<path d="M0 107.22 a0.490827 0.485053 -180 0 0 0.490816 0.485042 L4.62 107.7 a0.490827 0.485053 -180 0 0 0.490816
								 -0.485042 L5.12 77.34 a0.490827 0.485053 -180 0 0 -0.490816 -0.485042 L0.49 76.86 a0.490827 0.485053
								 -180 0 0 -0.490816 0.485042 L0 107.22 Z" class="st2"/>
				</g>
				<g id="shape9411-9" transform="translate(3.28721,-5.53402)">
					<title>rect6</title>
					<path d="M0 107.18 a0.530895 0.524649 -180 0 0 0.530883 0.524637 L28.09 107.7 a0.530895 0.524649 -180 0 0 0.530883
								 -0.524637 L28.62 101.84 a0.530895 0.524649 -180 0 0 -0.530883 -0.524637 L0.53 101.31 a0.530895 0.524649
								 -180 0 0 -0.530883 0.524637 L0 107.18 Z" class="st3"/>
				</g>
				<g id="shape9412-11" transform="translate(47.2937,-5.57031)">
					<title>rect8</title>
					<path d="M0 107.33 a0.377303 0.372864 -180 0 0 0.377294 0.372855 L4.74 107.7 a0.377303 0.372864 -180 0 0 0.377294
								 -0.372855 L5.12 89.85 a0.377303 0.372864 -180 0 0 -0.377294 -0.372855 L0.38 89.48 a0.377303 0.372864
								 -180 0 0 -0.377294 0.372855 L0 107.33 Z" class="st4"/>
				</g>
				<g id="shape9413-13" transform="translate(5.9049,-18.2408)">
					<title>path10</title>
					<path d="M22.39 91.39 L15.28 103.9 L7.75 96.33 L0 106.26 L1.82 107.67 L7.97 99.83 L15.77 107.7 L24.4 92.54 L22.39
								 91.39 Z" class="st5"/>
				</g>
				<g id="shape9414-15" transform="translate(10.8231,-24.9687)">
					<title>ellipse12</title>
					<ellipse cx="2.92486" cy="104.796" rx="2.92486" ry="2.90695" class="st5"/>
				</g>
				<g id="shape9415-17" transform="translate(18.7529,-17.7623)">
					<title>ellipse14</title>
					<ellipse cx="2.92486" cy="104.796" rx="2.92486" ry="2.90695" class="st5"/>
				</g>
				<g id="shape9416-19" transform="translate(26.1152,-30.71)">
					<title>ellipse16</title>
					<ellipse cx="2.92486" cy="104.796" rx="2.92486" ry="2.90695" class="st5"/>
				</g>
				<g id="shape9417-21" transform="translate(4.19205,-16.4953)">
					<title>ellipse18</title>
					<ellipse cx="2.92486" cy="104.796" rx="2.92486" ry="2.90695" class="st5"/>
				</g>
			</g>
		</g>
	</g>
</svg>
