<?xml version="1.0" encoding="UTF-8" standalone="no"?>
<!DOCTYPE svg PUBLIC "-//W3C//DTD SVG 1.1//EN" "http://www.w3.org/Graphics/SVG/1.1/DTD/svg11.dtd">
<!-- Generated by Microsoft Visio, SVG Export Database Migration Project.svg Page-1 -->
<svg xmlns="http://www.w3.org/2000/svg" xmlns:xlink="http://www.w3.org/1999/xlink" xmlns:ev="http://www.w3.org/2001/xml-events"
		width="1.49573in" height="1.57464in" viewBox="0 0 107.693 113.374" xml:space="preserve" color-interpolation-filters="sRGB"
		class="st7">
	<style type="text/css">
	<![CDATA[
		.st1 {fill:#0072c6;stroke:none;stroke-linecap:butt;stroke-width:25.5}
		.st2 {fill:#3c9be4;stroke:none;stroke-linecap:butt;stroke-width:25.5}
		.st3 {fill:#ffffff;fill-opacity:0.25;stroke:none;stroke-linecap:butt;stroke-width:25.5}
		.st4 {fill:#b8d432;stroke:none;stroke-linecap:butt;stroke-width:25.5}
		.st5 {fill:#a0a1a2;stroke:none;stroke-linecap:butt;stroke-width:25.5}
		.st6 {fill:#ecf0f1;fill-opacity:0.2;stroke:none;stroke-linecap:butt;stroke-width:25.5}
		.st7 {fill:none;fill-rule:evenodd;font-size:12px;overflow:visible;stroke-linecap:square;stroke-miterlimit:3}
	]]>
	</style>

	<g>
		<title>Page-1</title>
		<g id="group9393-1" transform="translate(25.5,-34.0157)">
			<title>Database Migration Project.9393</title>
			<g id="group9394-2">
				<title>Sheet.9394</title>
				<g id="shape9395-3" transform="translate(7.08661,-27.7978)">
					<title>Sheet.9395</title>
					<path d="M37.59 103.71 L36.99 103.71 C37.33 102.63 37.42 101.47 37.42 100.3 C37.5 93.14 31.55 87.31 24.32 87.31
								 A13.0087 12.7569 -180 0 0 11.91 96.14 A8.25118 8.09148 -180 0 0 9.01 95.64 C4 95.64 0 99.64 0 104.55
								 A8.93858 8.76558 -180 0 0 8.93 113.37 L18.9 113.37 L18.9 106.42 L12.99 106.42 L22.44 97.16 L31.89
								 106.42 L25.98 106.42 L25.98 113.37 L37.93 113.37 C40.56 113.13 42.52 111.04 42.52 108.54 A4.93465
								 4.83914 -180 0 0 37.59 103.71 Z" class="st1"/>
				</g>
				<g id="shape9396-5" transform="translate(4.72441,-4.63297)">
					<title>Sheet.9396</title>
					<path d="M0 100.63 L0 109.9 C0 111.82 3.17 113.37 7.09 113.37 C11 113.37 14.17 111.82 14.17 109.9 L14.17 100.63
								 L0 100.63 Z" class="st2"/>
				</g>
				<g id="shape9397-7" transform="translate(4.72441,-4.63297)">
					<title>Sheet.9397</title>
					<path d="M7.09 100.63 L0 100.63 L0 109.9 C0 111.82 3.17 113.37 7.09 113.37 L7.09 100.63 Z" class="st3"/>
				</g>
				<g id="shape9398-9" transform="translate(4.72441,-13.8989)">
					<title>Sheet.9398</title>
					<ellipse cx="7.08661" cy="109.899" rx="7.08661" ry="3.47473" class="st4"/>
				</g>
				<g id="shape9399-11">
					<title>Sheet.9399</title>
					<path d="M7.09 113.37 L0 113.37 L0 87.89 L7.09 87.89 L7.09 90.21 L2.36 90.21 L2.36 111.06 L7.09 111.06 L7.09
								 113.37 ZM49.61 113.37 L56.69 113.37 L56.69 87.89 L49.61 87.89 L49.61 90.21 L54.33 90.21 L54.33 111.06
								 L49.61 111.06 L49.61 113.37 Z" class="st5"/>
				</g>
				<g id="shape9400-13" transform="translate(7.08661,-28.7128)">
					<title>Sheet.9400</title>
					<path d="M3.54 108.35 A9.59291 9.40724 0 0 1 17.67 100.06 A13.2425 12.9862 0 0 1 35.99 95.26 C33.81 91.09 29.38
								 88.23 24.32 88.23 A13.0087 12.7569 -180 0 0 11.91 97.06 A8.25118 8.09148 -180 0 0 9.01 96.55 C4
								 96.55 0 100.55 0 105.46 C0 108.98 2.06 111.95 5.04 113.37 A9.4937 9.30995 0 0 1 3.54 108.35 Z"
							class="st6"/>
				</g>
				<g id="shape9401-15" transform="translate(21.2598,-4.63297)">
					<title>Sheet.9401</title>
					<path d="M0 100.63 L0 109.9 C0 111.82 3.17 113.37 7.09 113.37 C11 113.37 14.17 111.82 14.17 109.9 L14.17 100.63
								 L0 100.63 Z" class="st2"/>
				</g>
				<g id="shape9402-17" transform="translate(21.2598,-4.63297)">
					<title>Sheet.9402</title>
					<path d="M7.09 100.63 L0 100.63 L0 109.9 C0 111.82 3.17 113.37 7.09 113.37 L7.09 100.63 Z" class="st3"/>
				</g>
				<g id="shape9403-19" transform="translate(21.2598,-13.8989)">
					<title>Sheet.9403</title>
					<ellipse cx="7.08661" cy="109.899" rx="7.08661" ry="3.47473" class="st4"/>
				</g>
				<g id="shape9404-21" transform="translate(37.7953,-4.63297)">
					<title>Sheet.9404</title>
					<path d="M0 100.63 L0 109.9 C0 111.82 3.17 113.37 7.09 113.37 C11 113.37 14.17 111.82 14.17 109.9 L14.17 100.63
								 L0 100.63 Z" class="st2"/>
				</g>
				<g id="shape9405-23" transform="translate(37.7953,-4.63297)">
					<title>Sheet.9405</title>
					<path d="M7.09 100.63 L0 100.63 L0 109.9 C0 111.82 3.17 113.37 7.09 113.37 L7.09 100.63 Z" class="st3"/>
				</g>
				<g id="shape9406-25" transform="translate(37.7953,-13.8989)">
					<title>Sheet.9406</title>
					<ellipse cx="7.08661" cy="109.899" rx="7.08661" ry="3.47473" class="st4"/>
				</g>
			</g>
		</g>
	</g>
</svg>
