<?xml version="1.0" encoding="UTF-8" standalone="no"?>
<!DOCTYPE svg PUBLIC "-//W3C//DTD SVG 1.1//EN" "http://www.w3.org/Graphics/SVG/1.1/DTD/svg11.dtd">
<!-- Generated by Microsoft Visio, SVG Export Usage and Quota.svg Page-1 -->
<svg xmlns="http://www.w3.org/2000/svg" xmlns:xlink="http://www.w3.org/1999/xlink" xmlns:ev="http://www.w3.org/2001/xml-events"
		width="1.1274in" height="1.31173in" viewBox="0 0 81.1729 94.4447" xml:space="preserve" color-interpolation-filters="sRGB"
		class="st7">
	<style type="text/css">
	<![CDATA[
		.st1 {fill:#e5e5e5;stroke:none;stroke-linecap:butt;stroke-width:12.24}
		.st2 {fill:#57a300;stroke:none;stroke-linecap:butt;stroke-width:12.24}
		.st3 {fill:#ffffff;fill-opacity:0.6;stroke:none;stroke-linecap:butt;stroke-width:12.24}
		.st4 {fill:#7a7a7a;stroke:none;stroke-linecap:butt;stroke-width:12.24}
		.st5 {fill:#ffffff;fill-opacity:0.7;stroke:none;stroke-linecap:butt;stroke-width:12.24}
		.st6 {fill:#1e1e1e;fill-opacity:0.2;stroke:none;stroke-linecap:butt;stroke-width:12.24}
		.st7 {fill:none;fill-rule:evenodd;font-size:12px;overflow:visible;stroke-linecap:square;stroke-miterlimit:3}
	]]>
	</style>

	<g>
		<title>Page-1</title>
		<g id="group9069-1" transform="translate(12.24,-34.0157)">
			<title>Usage and Quota.9069</title>
			<g id="group9070-2">
				<title>g36</title>
				<g id="shape9071-3">
					<title>path4</title>
					<path d="M0 82.97 L56.69 82.97 L56.69 94.44 L0 94.44 L0 82.97 Z" class="st1"/>
				</g>
				<g id="shape9072-5" transform="translate(2.26772,-2.29346)">
					<title>path6</title>
					<path d="M0 87.63 L52.16 87.63 L52.16 94.44 L0 94.44 L0 87.63 Z" class="st2"/>
				</g>
				<g id="shape9073-7" transform="translate(22.6772,-2.2946)">
					<title>path8</title>
					<path d="M0 87.56 L31.75 87.56 L31.75 94.44 L0 94.44 L0 87.56 Z" class="st3"/>
				</g>
				<g id="shape9074-9" transform="translate(20.4094,-2.41585E-13)">
					<title>path10</title>
					<rect x="0" y="82.9729" width="4.53543" height="11.4719" class="st4"/>
				</g>
				<g id="shape9075-11" transform="translate(20.4094,-0.0011473)">
					<title>path12</title>
					<rect x="0" y="82.9717" width="2.26772" height="11.473" class="st5"/>
				</g>
				<g id="shape9076-13" transform="translate(0,-18.3557)">
					<title>path14</title>
					<path d="M0 82.97 L56.69 82.97 L56.69 94.44 L0 94.44 L0 82.97 Z" class="st1"/>
				</g>
				<g id="shape9077-15" transform="translate(2.26772,-20.6514)">
					<title>path16</title>
					<path d="M0 87.63 L52.16 87.63 L52.16 94.44 L0 94.44 L0 87.63 Z" class="st2"/>
				</g>
				<g id="shape9078-17" transform="translate(40.8189,-20.6572)">
					<title>path18</title>
					<rect x="0" y="87.5575" width="13.6063" height="6.88725" class="st3"/>
				</g>
				<g id="shape9079-19" transform="translate(38.5512,-18.3568)">
					<title>path20</title>
					<rect x="0" y="82.9729" width="4.53543" height="11.4719" class="st4"/>
				</g>
				<g id="shape9080-21" transform="translate(38.5512,-18.358)">
					<title>path22</title>
					<rect x="0" y="82.9717" width="2.26772" height="11.473" class="st5"/>
				</g>
				<g id="shape9081-23" transform="translate(0,-36.7125)">
					<title>path24</title>
					<path d="M0 82.97 L56.69 82.97 L56.69 94.44 L0 94.44 L0 82.97 Z" class="st1"/>
				</g>
				<g id="shape9082-25" transform="translate(2.26772,-39.0083)">
					<title>path26</title>
					<path d="M0 87.63 L52.16 87.63 L52.16 94.44 L0 94.44 L0 87.63 Z" class="st2"/>
				</g>
				<g id="shape9083-27" transform="translate(22.6772,-39.0071)">
					<title>path28</title>
					<path d="M0 87.56 L31.75 87.56 L31.75 94.44 L0 94.44 L0 87.56 Z" class="st3"/>
				</g>
				<g id="shape9084-29" transform="translate(20.4094,-36.7137)">
					<title>path30</title>
					<rect x="0" y="82.9729" width="4.53543" height="11.4719" class="st4"/>
				</g>
				<g id="shape9085-31" transform="translate(20.4094,-36.7148)">
					<title>path32</title>
					<rect x="0" y="82.9717" width="2.26772" height="11.473" class="st5"/>
				</g>
				<g id="shape9086-33" transform="translate(24.9449,-0.0011473)">
					<title>path34</title>
					<path d="M0 82.97 L2.27 82.97 L2.27 94.44 L0 94.44 L0 82.97 ZM0 46.29 L2.27 46.29 L2.27 57.77 L0 57.77 L0 46.29
								 ZM18.14 64.61 L20.41 64.61 L20.41 76.08 L18.14 76.08 L18.14 64.61 Z" class="st6"/>
				</g>
			</g>
		</g>
	</g>
</svg>
