<?xml version="1.0" encoding="UTF-8" standalone="no"?>
<!DOCTYPE svg PUBLIC "-//W3C//DTD SVG 1.1//EN" "http://www.w3.org/Graphics/SVG/1.1/DTD/svg11.dtd">
<!-- Generated by Microsoft Visio, SVG Export Azure Active Directory Domain Services.svg Page-1 -->
<svg xmlns="http://www.w3.org/2000/svg" xmlns:xlink="http://www.w3.org/1999/xlink" xmlns:ev="http://www.w3.org/2001/xml-events"
		width="1.73185in" height="1.68115in" viewBox="0 0 124.693 121.043" xml:space="preserve" color-interpolation-filters="sRGB"
		class="st12">
	<style type="text/css">
	<![CDATA[
		.st1 {fill:#50e6ff;stroke:none;stroke-linecap:butt;stroke-width:34}
		.st2 {fill:#ffffff;stroke:none;stroke-linecap:butt;stroke-width:34}
		.st3 {fill:url(#grad0-12);stroke:none;stroke-linecap:butt;stroke-width:34}
		.st4 {fill:#53b1e0;stroke:none;stroke-linecap:butt;stroke-width:34}
		.st5 {fill:#9cebff;stroke:none;stroke-linecap:butt;stroke-width:34}
		.st6 {fill:url(#grad0-20);stroke:none;stroke-linecap:butt;stroke-width:34}
		.st7 {fill:#773adc;stroke:none;stroke-linecap:butt;stroke-width:34}
		.st8 {fill:#f9f9f9;fill-opacity:0.5;stroke:none;stroke-linecap:butt;stroke-width:34}
		.st9 {visibility:visible}
		.st10 {fill:#000000;font-family:Calibri;font-size:0.666664em}
		.st11 {font-size:1em}
		.st12 {fill:none;fill-rule:evenodd;font-size:12px;overflow:visible;stroke-linecap:square;stroke-miterlimit:3}
	]]>
	</style>

	<defs id="Patterns_And_Gradients">
		<linearGradient id="grad0-12" x1="0" y1="0" x2="1" y2="0" gradientTransform="rotate(-133.54829310906 0.5 0.5)">
			<stop offset="0" stop-color="#1988d9" stop-opacity="1"/>
			<stop offset="0.9" stop-color="#54aef0" stop-opacity="1"/>
		</linearGradient>
		<linearGradient id="grad0-20" x1="0" y1="0" x2="1" y2="0" gradientTransform="rotate(65.834982258294 0.5 0.5)">
			<stop offset="0.1" stop-color="#54aef0" stop-opacity="1"/>
			<stop offset="0.29" stop-color="#4fabee" stop-opacity="1"/>
			<stop offset="0.51" stop-color="#41a2e9" stop-opacity="1"/>
			<stop offset="0.74" stop-color="#2a93e0" stop-opacity="1"/>
			<stop offset="0.88" stop-color="#1988d9" stop-opacity="1"/>
		</linearGradient>
	</defs>
	<g>
		<title>Page-1</title>
		<g id="group7210-1" transform="translate(34,-36.019)">
			<title>Azure Active Directory Domain Services.7210</title>
			<desc>Azure Active Directory Domain Services</desc>
			<g id="group7211-2">
				<title>Icon-identity-222</title>
				<g id="shape7212-3">
					<title>Sheet.7212</title>
					<path d="M3.18 99.24 L28.13 115.25 L53.51 99.18 L56.69 102.82 L28.13 121.04 L0 102.85 L3.18 99.24 Z"
							class="st1"/>
				</g>
				<g id="shape7213-5" transform="translate(5.07087,-9.12694)">
					<title>Sheet.7213</title>
					<path d="M0 106.31 L23.06 79.15 L46.58 106.34 L23.06 121.04 L0 106.31 Z" class="st2"/>
				</g>
				<g id="shape7214-7" transform="translate(5.07087,-9.12694)">
					<title>Sheet.7214</title>
					<path d="M23.06 79.15 L23.06 121.04 L0 106.31 L23.06 79.15 Z" class="st1"/>
				</g>
				<g id="shape7215-9" transform="translate(28.126,-9.12694)">
					<title>Sheet.7215</title>
					<path d="M0 79.15 L0 121.04 L23.53 106.34 L0 79.15 Z" class="st3"/>
				</g>
				<g id="shape7216-13" transform="translate(28.126,-9.12694)">
					<title>Sheet.7216</title>
					<path d="M0 100.8 L23.53 106.34 L0 121.04 L0 100.8 Z" class="st4"/>
				</g>
				<g id="shape7217-15" transform="translate(5.07087,-9.12694)">
					<title>Sheet.7217</title>
					<path d="M23.06 121.04 L0 106.31 L23.06 100.8 L23.06 121.04 Z" class="st5"/>
				</g>
				<g id="shape7218-17" transform="translate(28.126,2.55795E-13)">
					<title>Sheet.7218</title>
					<path d="M0 121.04 L28.57 102.82 L25.39 99.18 L0 115.25 L0 121.04 Z" class="st6"/>
				</g>
				<g id="shape7219-21" transform="translate(28.5354,-0.342649)">
					<title>Sheet.7219</title>
					<path d="M14.08 95.87 L0 115.37 L14.08 121.04 L28.16 115.37 L14.08 95.87 Z" class="st7"/>
				</g>
				<g id="shape7220-23" transform="translate(28.5354,-0.342649)">
					<title>Sheet.7220</title>
					<path d="M14.08 95.87 L0 115.37 L14.08 121.04 L14.08 95.87 Z" class="st8"/>
				</g>
			</g>
			<g id="shape7210-25">
				<g id="shadow7210-26" transform="matrix(1,0,0,1,1.41732,1.41732)" class="st9"/>
				<text x="-21.62" y="135.9" class="st10">Azure Active Directory Domain <tspan x="15.15" dy="1.2em" class="st11">Services</tspan></text>			</g>
		</g>
	</g>
</svg>
