<?xml version="1.0" encoding="UTF-8" standalone="no"?>
<!-- Generated by Microsoft Visio, SVG Export O365 - Outlook.svg Page-1 -->

<svg
   xmlns:dc="http://purl.org/dc/elements/1.1/"
   xmlns:cc="http://creativecommons.org/ns#"
   xmlns:rdf="http://www.w3.org/1999/02/22-rdf-syntax-ns#"
   xmlns:svg="http://www.w3.org/2000/svg"
   xmlns="http://www.w3.org/2000/svg"
   xmlns:sodipodi="http://sodipodi.sourceforge.net/DTD/sodipodi-0.dtd"
   xmlns:inkscape="http://www.inkscape.org/namespaces/inkscape"
   width="0.78743172in"
   height="0.78740221in"
   viewBox="0 0 56.695035 56.692899"
   xml:space="preserve"
   class="st16"
   version="1.1"
   id="svg126"
   sodipodi:docname="O365 - Outlook.svg"
   style="font-size:12px;overflow:visible;color-interpolation-filters:sRGB;fill:none;fill-rule:evenodd;stroke-linecap:square;stroke-miterlimit:3"
   inkscape:version="0.92.5 (2060ec1f9f, 2020-04-08)"><metadata
   id="metadata132"><rdf:RDF><cc:Work
       rdf:about=""><dc:format>image/svg+xml</dc:format><dc:type
         rdf:resource="http://purl.org/dc/dcmitype/StillImage" /></cc:Work></rdf:RDF></metadata><defs
   id="defs130" /><sodipodi:namedview
   pagecolor="#ffffff"
   bordercolor="#666666"
   borderopacity="1"
   objecttolerance="10"
   gridtolerance="10"
   guidetolerance="10"
   inkscape:pageopacity="0"
   inkscape:pageshadow="2"
   inkscape:window-width="640"
   inkscape:window-height="480"
   id="namedview128"
   showgrid="false"
   inkscape:zoom="1.6264628"
   inkscape:cx="37.795382"
   inkscape:cy="27.196025"
   inkscape:window-x="0"
   inkscape:window-y="0"
   inkscape:window-maximized="0"
   inkscape:current-layer="svg126" />
	<style
   type="text/css"
   id="style2">
	<![CDATA[
		.st1 {fill:#0364b8;stroke:none;stroke-linecap:butt;stroke-width:18.1165}
		.st2 {fill:#0a2767;stroke:none;stroke-linecap:butt;stroke-width:18.1165}
		.st3 {fill:#28a8ea;stroke:none;stroke-linecap:butt;stroke-width:18.1165}
		.st4 {fill:#0078d4;stroke:none;stroke-linecap:butt;stroke-width:18.1165}
		.st5 {fill:#50d9ff;stroke:none;stroke-linecap:butt;stroke-width:18.1165}
		.st6 {fill:none}
		.st7 {stroke:none;stroke-linecap:butt;stroke-width:18.1165}
		.st8 {fill:#064a8c;stroke:none;stroke-linecap:butt;stroke-width:18.1165}
		.st9 {fill:#0a2767;fill-opacity:0.5;stroke:none;stroke-linecap:butt;stroke-width:18.1165}
		.st10 {fill:#1490df;stroke:none;stroke-linecap:butt;stroke-width:18.1165}
		.st11 {fill:#000000;fill-opacity:0.047;stroke:none;stroke-linecap:butt;stroke-width:18.1165}
		.st12 {fill:#000000;fill-opacity:0.098;stroke:none;stroke-linecap:butt;stroke-width:18.1165}
		.st13 {fill:#000000;fill-opacity:0.2;stroke:none;stroke-linecap:butt;stroke-width:18.1165}
		.st14 {fill:#ffffff;stroke:none;stroke-linecap:butt;stroke-width:18.1165}
		.st15 {fill:none;stroke:none;stroke-linecap:butt;stroke-width:18.1165}
		.st16 {fill:none;fill-rule:evenodd;font-size:12px;overflow:visible;stroke-linecap:square;stroke-miterlimit:3}
	]]>
	</style>

	<g
   id="g124"
   transform="translate(-18.116485,-18.116601)">
		<title
   id="title4">Page-1</title>
		<g
   id="group23431-1"
   transform="translate(18.1165,-34.0157)">
			<title
   id="title6">O365 - Outlook.23431</title>
			<g
   id="group23432-2">
				<title
   id="title8">g46</title>
				<g
   id="shape23433-3"
   transform="translate(17.7165,-42.5197)">
					<title
   id="title10">path2</title>
					<path
   d="M 32.95,98.2 H 2.49 A 2.4874,2.4874 -180 0 0 0,100.68 v 2.83 l 17.17,5.32 18.26,-5.32 v -2.83 A 2.4874,2.4874 -180 0 0 32.95,98.2 Z"
   class="st1"
   id="path12"
   inkscape:connector-curvature="0"
   style="fill:#0364b8;stroke:none;stroke-width:18.11650085;stroke-linecap:butt" />
				</g>
				<g
   id="shape23434-5"
   transform="translate(14.1732,-10.9665)">
					<title
   id="title15">path4</title>
					<path
   d="m 41.9,93.93 a 20.0923,20.0923 -180 0 0 0.62,-2.48 1.17992,1.17992 -180 0 0 -0.59,-1.03 L 41.91,90.41 H 41.9 L 22.7,79.47 a 2.65571,2.65571 -180 0 0 -0.26,-0.15 2.65748,2.65748 -180 0 0 -2.36,0 2.63976,2.63976 -180 0 0 -0.26,0.15 L 0.62,90.41 H 0.61 L 0.59,90.42 A 1.17992,1.17992 -180 0 0 0,91.45 20.0976,20.0976 -180 0 0 0.62,93.93 l 20.36,14.9 z"
   class="st2"
   id="path17"
   inkscape:connector-curvature="0"
   style="fill:#0a2767;stroke:none;stroke-width:18.11650085;stroke-linecap:butt" />
				</g>
				<g
   id="shape23435-7"
   transform="translate(26.5376,-26.5748)">
					<title
   id="title20">path6</title>
					<path
   d="M 15.98,87.57 H 3.58 L 0,92.88 3.58,98.2 15.98,108.83 H 26.61 V 98.2 Z"
   class="st3"
   id="path22"
   inkscape:connector-curvature="0"
   style="fill:#28a8ea;stroke:none;stroke-width:18.11650085;stroke-linecap:butt" />
				</g>
				<g
   id="shape23436-9"
   transform="translate(17.7165,-37.2047)">
					<title
   id="title25">path8</title>
					<rect
   x="0"
   y="98.195297"
   width="12.4016"
   height="10.6299"
   class="st4"
   id="rect27"
   style="fill:#0078d4;stroke:none;stroke-width:18.11650085;stroke-linecap:butt" />
				</g>
				<g
   id="shape23437-11"
   transform="translate(42.5197,-37.2047)">
					<title
   id="title30">path10</title>
					<rect
   x="0"
   y="98.195297"
   width="10.6299"
   height="10.6299"
   class="st5"
   id="rect32"
   style="fill:#50d9ff;stroke:none;stroke-width:18.11650085;stroke-linecap:butt" />
				</g>
				<g
   id="shape23438-13"
   transform="translate(17.7165,-12.8126)">
					<title
   id="title35">path12</title>
					<path
   d="M 24.8,95.06 12.4,84.43 H 0 v 10.63 l 12.4,10.63 19.19,3.14 z"
   class="st1"
   id="path37"
   inkscape:connector-curvature="0"
   style="fill:#0364b8;stroke:none;stroke-width:18.11650085;stroke-linecap:butt" />
				</g>
				<g
   id="shape23439-15"
   transform="translate(17.7715,-47.8346)">
					<title
   id="title40">path14</title>
					<path
   d="M 0,108.83 H 35.38 Z"
   class="st6"
   id="path42"
   inkscape:connector-curvature="0"
   style="fill:none" />
					<path
   d="M 0,108.83 H 35.38"
   class="st7"
   id="path44"
   inkscape:connector-curvature="0"
   style="stroke:none;stroke-width:18.11650085;stroke-linecap:butt" />
				</g>
				<g
   id="shape23440-18"
   transform="translate(30.1181,-26.5748)">
					<title
   id="title47">path16</title>
					<rect
   x="0"
   y="98.195297"
   width="12.4016"
   height="10.6299"
   class="st4"
   id="rect49"
   style="fill:#0078d4;stroke:none;stroke-width:18.11650085;stroke-linecap:butt" />
				</g>
				<g
   id="shape23441-20"
   transform="translate(17.7165,-15.9449)">
					<title
   id="title52">path18</title>
					<rect
   x="0"
   y="98.195297"
   width="12.4016"
   height="10.6299"
   class="st8"
   id="rect54"
   style="fill:#064a8c;stroke:none;stroke-width:18.11650085;stroke-linecap:butt" />
				</g>
				<g
   id="shape23442-22"
   transform="translate(42.5197,-15.9449)">
					<title
   id="title57">path20</title>
					<rect
   x="0"
   y="98.195297"
   width="10.6299"
   height="10.6299"
   class="st4"
   id="rect59"
   style="fill:#0078d4;stroke:none;stroke-width:18.11650085;stroke-linecap:butt" />
				</g>
				<g
   id="shape23443-24"
   transform="translate(14.8766,-12.0154)">
					<title
   id="title62">path22</title>
					<path
   d="M 20.89,108.83 0,93.59 0.88,92.05 c 0,0 19.03,10.84 19.32,11 a 0.935433,0.935433 -180 0 0 0.744094,-0.0213 L 40.32,91.99 41.2,93.53 Z"
   class="st9"
   id="path64"
   inkscape:connector-curvature="0"
   style="fill:#0a2767;fill-opacity:0.5;stroke:none;stroke-width:18.11650085;stroke-linecap:butt" />
				</g>
				<g
   id="shape23444-26"
   transform="translate(34.285,-4.05)">
					<title
   id="title67">path24</title>
					<path
   d="m 21.82,85.55 -0.03,0.02 v 0 L 2.59,96.51 A 2.65217,2.65217 0 0 1 0,96.67 l 6.69,8.96 14.62,3.19 v 0.01 a 2.65394,2.65394 -180 0 0 1.1,-2.16 V 84.53 a 1.17992,1.17992 0 0 1 -0.59,1.02 z"
   class="st10"
   id="path69"
   inkscape:connector-curvature="0"
   style="fill:#1490df;stroke:none;stroke-width:18.11650085;stroke-linecap:butt" />
				</g>
				<g
   id="shape23445-28"
   transform="translate(34.285,-4.05)">
					<title
   id="title72">path26</title>
					<path
   d="m 22.41,106.67 v -1.3 L 4.72,95.29 2.59,96.51 A 2.65217,2.65217 0 0 1 0,96.67 l 6.69,8.96 14.62,3.19 v 0.01 a 2.65394,2.65394 -180 0 0 1.1,-2.16 z"
   class="st11"
   id="path74"
   inkscape:connector-curvature="0"
   style="fill:#000000;fill-opacity:0.047;stroke:none;stroke-width:18.11650085;stroke-linecap:butt" />
				</g>
				<g
   id="shape23446-30"
   transform="translate(34.285,-4.05)">
					<title
   id="title77">path28</title>
					<path
   d="M 22.32,107.35 2.93,96.31 2.59,96.51 A 2.65217,2.65217 0 0 1 0,96.67 l 6.69,8.96 14.62,3.19 v 0.01 a 2.65925,2.65925 -180 0 0 1.01,-1.48 z"
   class="st12"
   id="path79"
   inkscape:connector-curvature="0"
   style="fill:#000000;fill-opacity:0.09800002;stroke:none;stroke-width:18.11650085;stroke-linecap:butt" />
				</g>
				<g
   id="shape23447-32"
   transform="translate(14.1732,-3.54331)">
					<title
   id="title82">path30</title>
					<path
   d="M 0.62,85.07 V 85.05 H 0.6 L 0.55,85.01 A 1.15157,1.15157 0 0 1 0,84.02 v 22.15 a 2.65394,2.65394 -180 0 0 2.66,2.66 h 37.2 a 2.6628,2.6628 -180 0 0 0.66,-0.09 1.12854,1.12854 -180 0 0 0.32,-0.11 0.251575,0.251575 -180 0 0 0.106299,-0.0354 A 1.85669,1.85669 -180 0 0 41.35,108.36 c 0.04,-0.01 0.05,-0.01 0.07,-0.05 z"
   class="st3"
   id="path84"
   inkscape:connector-curvature="0"
   style="fill:#28a8ea;stroke:none;stroke-width:18.11650085;stroke-linecap:butt" />
				</g>
				<g
   id="shape23448-34"
   transform="translate(14.1732,-10.6299)">
					<title
   id="title87">path32</title>
					<path
   d="M 17.72,106.46 V 77.53 A 2.3687,2.3687 -180 0 0 15.35,75.16 H 3.6 v 13.21 l -2.98,1.7 H 0.61 L 0.59,90.09 A 1.17992,1.17992 -180 0 0 0,91.11 v 0.01 -0.01 17.72 h 15.35 a 2.3687,2.3687 -180 0 0 2.37,-2.37 z"
   class="st12"
   id="path89"
   inkscape:connector-curvature="0"
   style="fill:#000000;fill-opacity:0.09800002;stroke:none;stroke-width:18.11650085;stroke-linecap:butt" />
				</g>
				<g
   id="shape23449-36"
   transform="translate(14.1732,-8.85827)">
					<title
   id="title92">path34</title>
					<path
   d="M 15.94,106.46 V 77.53 A 2.3687,2.3687 -180 0 0 13.58,75.16 H 3.6 V 86.6 L 0.62,88.3 H 0.61 L 0.59,88.31 A 1.17992,1.17992 -180 0 0 0,89.34 v 0.01 -0.01 19.49 h 13.58 a 2.3687,2.3687 -180 0 0 2.36,-2.37 z"
   class="st13"
   id="path94"
   inkscape:connector-curvature="0"
   style="fill:#000000;fill-opacity:0.2;stroke:none;stroke-width:18.11650085;stroke-linecap:butt" />
				</g>
				<g
   id="shape23450-38"
   transform="translate(14.1732,-12.4016)">
					<title
   id="title97">path36</title>
					<path
   d="M 15.94,106.46 V 81.07 A 2.3687,2.3687 -180 0 0 13.58,78.71 H 3.6 v 11.43 l -2.98,1.7 -0.01,0.01 -0.02,0.01 A 1.17992,1.17992 -180 0 0 0,92.88 v 0.01 -0.01 15.95 h 13.58 a 2.3687,2.3687 -180 0 0 2.36,-2.37 z"
   class="st13"
   id="path99"
   inkscape:connector-curvature="0"
   style="fill:#000000;fill-opacity:0.2;stroke:none;stroke-width:18.11650085;stroke-linecap:butt" />
				</g>
				<g
   id="shape23451-40"
   transform="translate(14.1732,-12.4016)">
					<title
   id="title102">path38</title>
					<path
   d="M 14.17,106.46 V 81.07 A 2.3687,2.3687 -180 0 0 11.81,78.71 H 3.6 v 11.43 l -2.98,1.7 -0.01,0.01 -0.02,0.01 A 1.17992,1.17992 -180 0 0 0,92.88 v 0.01 -0.01 15.95 h 11.81 a 2.3687,2.3687 -180 0 0 2.36,-2.37 z"
   class="st13"
   id="path104"
   inkscape:connector-curvature="0"
   style="fill:#000000;fill-opacity:0.2;stroke:none;stroke-width:18.11650085;stroke-linecap:butt" />
				</g>
				<g
   id="shape23452-42"
   transform="translate(0,-14.1732)">
					<title
   id="title107">path40</title>
					<path
   d="m 2.36,80.48 h 23.62 a 2.36161,2.36161 0 0 1 2.37,2.36 v 23.62 a 2.36161,2.36161 0 0 1 -2.37,2.37 H 2.36 A 2.36161,2.36161 0 0 1 0,106.46 V 82.84 a 2.36161,2.36161 0 0 1 2.36,-2.36 z"
   class="st4"
   id="path109"
   inkscape:connector-curvature="0"
   style="fill:#0078d4;stroke:none;stroke-width:18.11650085;stroke-linecap:butt" />
				</g>
				<g
   id="shape23453-44"
   transform="translate(5.86417,-19.4882)">
					<title
   id="title112">path42</title>
					<path
   d="m 0.99,95.48 a 7.40728,7.40728 0 0 1 2.91,-3.21 8.79626,8.79626 0 0 1 4.62,-1.16 8.17972,8.17972 0 0 1 4.27,1.1 7.33465,7.33465 0 0 1 2.84,3.07 9.91594,9.91594 0 0 1 0.99,4.52 10.4545,10.4545 0 0 1 -1.02,4.72 7.51004,7.51004 0 0 1 -2.92,3.18 8.50394,8.50394 0 0 1 -4.44,1.13 8.37815,8.37815 0 0 1 -4.37,-1.12 7.44803,7.44803 0 0 1 -2.87,-3.07 9.67146,9.67146 0 0 1 -1,-4.46 10.7274,10.7274 0 0 1 0.99,-4.7 z m 3.1,7.54 a 4.81181,4.81181 -180 0 0 1.63,2.12 4.27146,4.27146 -180 0 0 2.56,0.77 4.4876,4.4876 -180 0 0 2.73,-0.79 4.61161,4.61161 -180 0 0 1.59,-2.13 8.19567,8.19567 -180 0 0 0.5,-2.95 8.96988,8.96988 -180 0 0 -0.47,-2.98 4.72854,4.72854 -180 0 0 -1.54,-2.2 4.22894,4.22894 -180 0 0 -2.7,-0.84 4.41673,4.41673 -180 0 0 -2.62,0.78 4.8561,4.8561 -180 0 0 -1.67,2.13 8.46142,8.46142 -180 0 0 -0.01,6.1 z"
   class="st14"
   id="path114"
   inkscape:connector-curvature="0"
   style="fill:#ffffff;stroke:none;stroke-width:18.11650085;stroke-linecap:butt" />
				</g>
				<g
   id="shape23454-46">
					<title
   id="title117">path44</title>
					<rect
   x="0"
   y="52.132301"
   width="56.692902"
   height="56.692902"
   class="st15"
   id="rect119"
   style="fill:none;stroke:none;stroke-width:18.11650085;stroke-linecap:butt" />
				</g>
			</g>
		</g>
	</g>
</svg>