<?xml version="1.0" encoding="UTF-8" standalone="no"?>
<!-- Generated by Microsoft Visio, SVG Export O365 - Sway.svg Page-1 -->

<svg
   xmlns:dc="http://purl.org/dc/elements/1.1/"
   xmlns:cc="http://creativecommons.org/ns#"
   xmlns:rdf="http://www.w3.org/1999/02/22-rdf-syntax-ns#"
   xmlns:svg="http://www.w3.org/2000/svg"
   xmlns="http://www.w3.org/2000/svg"
   xmlns:sodipodi="http://sodipodi.sourceforge.net/DTD/sodipodi-0.dtd"
   xmlns:inkscape="http://www.inkscape.org/namespaces/inkscape"
   width="0.78739929in"
   height="0.78739929in"
   viewBox="0 0 56.692906 56.692706"
   xml:space="preserve"
   class="st11"
   version="1.1"
   id="svg79"
   sodipodi:docname="O365 - Sway.svg"
   style="font-size:12px;overflow:visible;color-interpolation-filters:sRGB;fill:none;fill-rule:evenodd;stroke-linecap:square;stroke-miterlimit:3"
   inkscape:version="0.92.5 (2060ec1f9f, 2020-04-08)"><metadata
   id="metadata83"><rdf:RDF><cc:Work
       rdf:about=""><dc:format>image/svg+xml</dc:format><dc:type
         rdf:resource="http://purl.org/dc/dcmitype/StillImage" /></cc:Work></rdf:RDF></metadata><sodipodi:namedview
   pagecolor="#ffffff"
   bordercolor="#666666"
   borderopacity="1"
   objecttolerance="10"
   gridtolerance="10"
   guidetolerance="10"
   inkscape:pageopacity="0"
   inkscape:pageshadow="2"
   inkscape:window-width="640"
   inkscape:window-height="480"
   id="namedview81"
   showgrid="false"
   inkscape:zoom="1.7380874"
   inkscape:cx="37.795162"
   inkscape:cy="22.536208"
   inkscape:window-x="0"
   inkscape:window-y="0"
   inkscape:window-maximized="0"
   inkscape:current-layer="svg79" />
	<style
   type="text/css"
   id="style2">
	<![CDATA[
		.st1 {fill:#37c6d0;stroke:none;stroke-linecap:butt;stroke-width:11.1273}
		.st2 {fill:#1a9ba1;stroke:none;stroke-linecap:butt;stroke-width:11.1273}
		.st3 {fill:#038387;stroke:none;stroke-linecap:butt;stroke-width:11.1273}
		.st4 {fill:#86f2f2;stroke:none;stroke-linecap:butt;stroke-width:11.1273}
		.st5 {fill:#036c70;stroke:none;stroke-linecap:butt;stroke-width:11.1273}
		.st6 {fill:none;stroke:none;stroke-linecap:butt;stroke-width:11.1273}
		.st7 {fill:#000000;fill-opacity:0.2;stroke:none;stroke-linecap:butt;stroke-width:11.1273}
		.st8 {fill:#000000;fill-opacity:0.098;stroke:none;stroke-linecap:butt;stroke-width:11.1273}
		.st9 {fill:url(#grad0-25);stroke:none;stroke-linecap:butt;stroke-width:11.1273}
		.st10 {fill:#ffffff;stroke:none;stroke-linecap:butt;stroke-width:11.1273}
		.st11 {fill:none;fill-rule:evenodd;font-size:12px;overflow:visible;stroke-linecap:square;stroke-miterlimit:3}
	]]>
	</style>

	<defs
   id="Patterns_And_Gradients">
		<linearGradient
   id="grad0-25"
   x1="-2.6715252e-06"
   y1="77.014472"
   x2="24.805002"
   y2="77.014472"
   gradientTransform="scale(0.99979845,1.0002016)"
   gradientUnits="userSpaceOnUse">
			<stop
   offset="0"
   stop-color="#058f92"
   stop-opacity="1"
   id="stop4" />
			<stop
   offset="0.5"
   stop-color="#038489"
   stop-opacity="1"
   id="stop6" />
			<stop
   offset="1"
   stop-color="#026d71"
   stop-opacity="1"
   id="stop8" />
		</linearGradient>
	</defs>
	<g
   id="g77"
   transform="translate(-11.1273,-11.127478)">
		<title
   id="title12">Page-1</title>
		<g
   id="group20750-1"
   transform="translate(11.1273,-34.0157)">
			<title
   id="title14">O365 - Sway.20750</title>
			<g
   id="shape20751-2"
   transform="translate(15.0591,-15.9449)">
				<title
   id="title16">Sheet.20751</title>
				<path
   d="m 37.2,70.24 v 29.82 L 20.37,101.84 0,100.06 V 70.24 a 2.06043,2.06043 0 0 1 2.06,-2.07 h 33.08 a 2.06043,2.06043 0 0 1 2.06,2.07 z"
   class="st1"
   id="path18"
   inkscape:connector-curvature="0"
   style="fill:#37c6d0;stroke:none;stroke-width:11.12730026;stroke-linecap:butt" />
			</g>
			<g
   id="shape20752-4"
   transform="translate(31.8898,-22.2697)">
				<title
   id="title21">Sheet.20752</title>
				<path
   d="m 20.37,93.86 v 7.08 l -0.62,0.9 H 0 L 12.45,89.39 a 2.4378,2.4378 0 0 1 3.45,0 z"
   class="st2"
   id="path23"
   inkscape:connector-curvature="0"
   style="fill:#1a9ba1;stroke:none;stroke-width:11.12730026;stroke-linecap:butt" />
			</g>
			<g
   id="shape20753-6"
   transform="translate(15.0591,-15.9449)">
				<title
   id="title26">Sheet.20753</title>
				<path
   d="m 37.2,94.62 v 5.44 L 20.37,101.84 0,100.06 v -0.12 l 2.03,-2.03 17.5,-17.5 a 2.4378,2.4378 0 0 1 3.46,0 l 4.91,4.91 z"
   class="st3"
   id="path28"
   inkscape:connector-curvature="0"
   style="fill:#038387;stroke:none;stroke-width:11.12730026;stroke-linecap:butt" />
			</g>
			<g
   id="shape20754-8"
   transform="translate(43.4055,-40.748)">
				<title
   id="title31">Sheet.20754</title>
				<circle
   cx="2.65748"
   cy="99.178497"
   class="st4"
   id="ellipse33"
   r="2.65748"
   style="fill:#86f2f2;stroke:none;stroke-width:11.12730026;stroke-linecap:butt" />
			</g>
			<g
   id="shape20755-10"
   transform="translate(15.0591,-7.08661)">
				<title
   id="title36">Sheet.20755</title>
				<path
   d="M 2.07,101.84 H 35.14 A 2.06752,2.06752 -180 0 0 37.2,99.77 V 91.21 H 0 v 8.56 a 2.06752,2.06752 -180 0 0 2.07,2.07 z"
   class="st5"
   id="path38"
   inkscape:connector-curvature="0"
   style="fill:#036c70;stroke:none;stroke-width:11.12730026;stroke-linecap:butt" />
			</g>
			<g
   id="shape20756-12">
				<title
   id="title41">Sheet.20756</title>
				<rect
   x="0"
   y="45.143002"
   width="56.692902"
   height="56.692902"
   class="st6"
   id="rect43"
   style="fill:none;stroke:none;stroke-width:11.12730026;stroke-linecap:butt" />
			</g>
			<g
   id="shape20757-14"
   transform="translate(15.0591,-13.2874)">
				<title
   id="title46">Sheet.20757</title>
				<path
   d="m 14.17,76.44 v 23.33 a 1.55197,1.55197 0 0 1 -0.03,0.36 2.0498,2.0498 0 0 1 -2.03,1.71 H 0 V 74.38 h 12.11 a 2.06043,2.06043 0 0 1 2.06,2.06 z"
   class="st7"
   id="path48"
   inkscape:connector-curvature="0"
   style="fill:#000000;fill-opacity:0.2;stroke:none;stroke-width:11.12730026;stroke-linecap:butt" />
			</g>
			<g
   id="shape20758-16"
   transform="translate(15.0591,-14.1732)">
				<title
   id="title51">Sheet.20758</title>
				<path
   d="m 15.06,77.33 v 21.56 a 2.97726,2.97726 0 0 1 -2.95,2.95 H 0 V 74.38 h 12.11 a 2.96043,2.96043 0 0 1 2.95,2.95 z"
   class="st8"
   id="path53"
   inkscape:connector-curvature="0"
   style="fill:#000000;fill-opacity:0.09800002;stroke:none;stroke-width:11.12730026;stroke-linecap:butt" />
			</g>
			<g
   id="shape20759-18"
   transform="translate(15.0591,-15.0591)">
				<title
   id="title56">Sheet.20759</title>
				<path
   d="m 14.17,78.21 v 21.56 a 2.06043,2.06043 0 0 1 -2.06,2.07 H 0 V 76.15 h 12.11 a 2.06043,2.06043 0 0 1 2.06,2.06 z"
   class="st7"
   id="path58"
   inkscape:connector-curvature="0"
   style="fill:#000000;fill-opacity:0.2;stroke:none;stroke-width:11.12730026;stroke-linecap:butt" />
			</g>
			<g
   id="shape20760-20"
   transform="translate(15.0591,-15.0591)">
				<title
   id="title61">Sheet.20760</title>
				<path
   d="m 13.29,78.21 v 21.56 a 2.06043,2.06043 0 0 1 -2.07,2.07 H 0 V 76.15 h 11.22 a 2.06043,2.06043 0 0 1 2.07,2.06 z"
   class="st8"
   id="path63"
   inkscape:connector-curvature="0"
   style="fill:#000000;fill-opacity:0.09800002;stroke:none;stroke-width:11.12730026;stroke-linecap:butt" />
			</g>
			<g
   id="shape20761-22"
   transform="translate(3.54331,-15.9449)">
				<title
   id="title66">Sheet.20761</title>
				<path
   d="m 0,99.77 a 2.06668,2.06668 -180 0 0 2.07,2.07 H 22.74 A 2.06668,2.06668 -180 0 0 24.8,99.77 V 79.1 A 2.06668,2.06668 -180 0 0 22.74,77.03 H 2.07 A 2.06668,2.06668 -180 0 0 0,79.1 Z"
   class="st9"
   id="path68"
   inkscape:connector-curvature="0"
   style="fill:url(#grad0-25);stroke:none;stroke-width:11.12730026;stroke-linecap:butt" />
			</g>
			<g
   id="shape20762-26"
   transform="translate(11.0011,-21.1589)">
				<title
   id="title71">Sheet.20762</title>
				<path
   d="M 1.59,94.4 A 3.80374,3.80374 0 0 1 0.41,93.14 3.39715,3.39715 0 0 1 0,91.43 3.28907,3.28907 0 0 1 0.77,89.22 4.50974,4.50974 0 0 1 2.8,87.89 8.5872,8.5872 0 0 1 5.59,87.46 10.5626,10.5626 0 0 1 9.25,87.97 v 2.59 a 5.71004,5.71004 -180 0 0 -1.66,-0.68 7.99636,7.99636 -180 0 0 -1.94,-0.23 4.20679,4.20679 -180 0 0 -1.99,0.42 1.30748,1.30748 -180 0 0 -0.79,1.2 1.21358,1.21358 -180 0 0 0.34,0.84 3.0623,3.0623 -180 0 0 0.9,0.65 c 0.37,0.19 0.94,0.43 1.69,0.74 a 1.73002,1.73002 0 0 1 0.24,0.1 13.9279,13.9279 0 0 1 2.13,1.05 3.82589,3.82589 0 0 1 1.26,1.27 3.68593,3.68593 0 0 1 0.46,1.92 3.56457,3.56457 0 0 1 -0.72,2.3 4.01634,4.01634 0 0 1 -1.92,1.3 8.68996,8.68996 0 0 1 -2.74,0.4 14.3504,14.3504 0 0 1 -2.48,-0.21 8.51014,8.51014 0 0 1 -2.01,-0.58 V 98.32 A 6.48868,6.48868 -180 0 0 2.06,99.29 7.92638,7.92638 -180 0 0 4.3,99.65 3.84626,3.84626 -180 0 0 6.33,99.21 1.35974,1.35974 -180 0 0 7.01,98 1.30039,1.30039 -180 0 0 6.63,97.07 3.88612,3.88612 -180 0 0 5.57,96.33 C 5.12,96.1 4.46,95.81 3.58,95.44 A 11.3386,11.3386 0 0 1 1.59,94.4 Z"
   class="st10"
   id="path73"
   inkscape:connector-curvature="0"
   style="fill:#ffffff;stroke:none;stroke-width:11.12730026;stroke-linecap:butt" />
			</g>
		</g>
	</g>
</svg>