<?xml version="1.0" encoding="UTF-8" standalone="no"?>
<!DOCTYPE svg PUBLIC "-//W3C//DTD SVG 1.1//EN" "http://www.w3.org/Graphics/SVG/1.1/DTD/svg11.dtd">
<!-- Generated by Microsoft Visio, SVG Export O365 - Sway.svg Page-1 -->
<svg xmlns="http://www.w3.org/2000/svg" xmlns:xlink="http://www.w3.org/1999/xlink" xmlns:ev="http://www.w3.org/2001/xml-events"
		width="1.09649in" height="1.41439in" viewBox="0 0 78.9475 101.836" xml:space="preserve" color-interpolation-filters="sRGB"
		class="st11">
	<style type="text/css">
	<![CDATA[
		.st1 {fill:#37c6d0;stroke:none;stroke-linecap:butt;stroke-width:11.1273}
		.st2 {fill:#1a9ba1;stroke:none;stroke-linecap:butt;stroke-width:11.1273}
		.st3 {fill:#038387;stroke:none;stroke-linecap:butt;stroke-width:11.1273}
		.st4 {fill:#86f2f2;stroke:none;stroke-linecap:butt;stroke-width:11.1273}
		.st5 {fill:#036c70;stroke:none;stroke-linecap:butt;stroke-width:11.1273}
		.st6 {fill:none;stroke:none;stroke-linecap:butt;stroke-width:11.1273}
		.st7 {fill:#000000;fill-opacity:0.2;stroke:none;stroke-linecap:butt;stroke-width:11.1273}
		.st8 {fill:#000000;fill-opacity:0.098;stroke:none;stroke-linecap:butt;stroke-width:11.1273}
		.st9 {fill:url(#grad0-25);stroke:none;stroke-linecap:butt;stroke-width:11.1273}
		.st10 {fill:#ffffff;stroke:none;stroke-linecap:butt;stroke-width:11.1273}
		.st11 {fill:none;fill-rule:evenodd;font-size:12px;overflow:visible;stroke-linecap:square;stroke-miterlimit:3}
	]]>
	</style>

	<defs id="Patterns_And_Gradients">
		<linearGradient id="grad0-25" x1="0" y1="0" x2="1" y2="0" gradientTransform="rotate(60.00112247131 0.5 0.5)">
			<stop offset="0" stop-color="#058f92" stop-opacity="1"/>
			<stop offset="0.5" stop-color="#038489" stop-opacity="1"/>
			<stop offset="1" stop-color="#026d71" stop-opacity="1"/>
		</linearGradient>
	</defs>
	<g>
		<title>Page-1</title>
		<g id="group16123-1" transform="translate(11.1273,-34.0157)">
			<title>O365 - Sway.16123</title>
			<g id="shape16124-2" transform="translate(15.0591,-15.9449)">
				<title>Sheet.16124</title>
				<path d="M37.2 70.24 L37.2 100.06 L20.37 101.84 L0 100.06 L0 70.24 A2.06043 2.06043 0 0 1 2.06 68.17 L35.14 68.17
							 A2.06043 2.06043 0 0 1 37.2 70.24 Z" class="st1"/>
			</g>
			<g id="shape16125-4" transform="translate(31.8898,-22.2697)">
				<title>Sheet.16125</title>
				<path d="M20.37 93.86 L20.37 100.94 L19.75 101.84 L0 101.84 L12.45 89.39 A2.4378 2.4378 0 0 1 15.9 89.39 L20.37 93.86
							 Z" class="st2"/>
			</g>
			<g id="shape16126-6" transform="translate(15.0591,-15.9449)">
				<title>Sheet.16126</title>
				<path d="M37.2 94.62 L37.2 100.06 L20.37 101.84 L0 100.06 L0 99.94 L2.03 97.91 L19.53 80.41 A2.4378 2.4378 0 0 1
							 22.99 80.41 L27.9 85.32 L37.2 94.62 Z" class="st3"/>
			</g>
			<g id="shape16127-8" transform="translate(43.4055,-40.748)">
				<title>Sheet.16127</title>
				<ellipse cx="2.65748" cy="99.1785" rx="2.65748" ry="2.65748" class="st4"/>
			</g>
			<g id="shape16128-10" transform="translate(15.0591,-7.08661)">
				<title>Sheet.16128</title>
				<path d="M2.07 101.84 L35.14 101.84 A2.06752 2.06752 -180 0 0 37.2 99.77 L37.2 91.21 L0 91.21 L0 99.77 A2.06752 2.06752
							 -180 0 0 2.07 101.84 Z" class="st5"/>
			</g>
			<g id="shape16129-12">
				<title>Sheet.16129</title>
				<rect x="0" y="45.143" width="56.6929" height="56.6929" class="st6"/>
			</g>
			<g id="shape16130-14" transform="translate(15.0591,-13.2874)">
				<title>Sheet.16130</title>
				<path d="M14.17 76.44 L14.17 99.77 A1.55197 1.55197 0 0 1 14.14 100.13 A2.0498 2.0498 0 0 1 12.11 101.84 L0 101.84
							 L0 74.38 L12.11 74.38 A2.06043 2.06043 0 0 1 14.17 76.44 Z" class="st7"/>
			</g>
			<g id="shape16131-16" transform="translate(15.0591,-14.1732)">
				<title>Sheet.16131</title>
				<path d="M15.06 77.33 L15.06 98.89 A2.97726 2.97726 0 0 1 12.11 101.84 L0 101.84 L0 74.38 L12.11 74.38 A2.96043 2.96043
							 0 0 1 15.06 77.33 Z" class="st8"/>
			</g>
			<g id="shape16132-18" transform="translate(15.0591,-15.0591)">
				<title>Sheet.16132</title>
				<path d="M14.17 78.21 L14.17 99.77 A2.06043 2.06043 0 0 1 12.11 101.84 L0 101.84 L0 76.15 L12.11 76.15 A2.06043 2.06043
							 0 0 1 14.17 78.21 Z" class="st7"/>
			</g>
			<g id="shape16133-20" transform="translate(15.0591,-15.0591)">
				<title>Sheet.16133</title>
				<path d="M13.29 78.21 L13.29 99.77 A2.06043 2.06043 0 0 1 11.22 101.84 L0 101.84 L0 76.15 L11.22 76.15 A2.06043 2.06043
							 0 0 1 13.29 78.21 Z" class="st8"/>
			</g>
			<g id="shape16134-22" transform="translate(3.54331,-15.9449)">
				<title>Sheet.16134</title>
				<path d="M0 99.77 A2.06668 2.06668 -180 0 0 2.07 101.84 L22.74 101.84 A2.06668 2.06668 -180 0 0 24.8 99.77 L24.8
							 79.1 A2.06668 2.06668 -180 0 0 22.74 77.03 L2.07 77.03 A2.06668 2.06668 -180 0 0 -0 79.1 L0 99.77 Z"
						class="st9"/>
			</g>
			<g id="shape16135-26" transform="translate(11.0011,-21.1589)">
				<title>Sheet.16135</title>
				<path d="M1.59 94.4 A3.80374 3.80374 0 0 1 0.41 93.14 A3.39715 3.39715 0 0 1 0 91.43 A3.28907 3.28907 0 0 1 0.77
							 89.22 A4.50974 4.50974 0 0 1 2.8 87.89 A8.5872 8.5872 0 0 1 5.59 87.46 A10.5626 10.5626 0 0 1 9.25 87.97
							 L9.25 90.56 A5.71004 5.71004 -180 0 0 7.59 89.88 A7.99636 7.99636 -180 0 0 5.65 89.65 A4.20679 4.20679
							 -180 0 0 3.66 90.07 A1.30748 1.30748 -180 0 0 2.87 91.27 A1.21358 1.21358 -180 0 0 3.21 92.11 A3.0623
							 3.0623 -180 0 0 4.11 92.76 C4.48 92.95 5.05 93.19 5.8 93.5 A1.73002 1.73002 0 0 1 6.04 93.6 A13.9279
							 13.9279 0 0 1 8.17 94.65 A3.82589 3.82589 0 0 1 9.43 95.92 A3.68593 3.68593 0 0 1 9.89 97.84 A3.56457
							 3.56457 0 0 1 9.17 100.14 A4.01634 4.01634 0 0 1 7.25 101.44 A8.68996 8.68996 0 0 1 4.51 101.84 A14.3504
							 14.3504 0 0 1 2.03 101.63 A8.51014 8.51014 0 0 1 0.02 101.05 L0.02 98.32 A6.48868 6.48868 -180 0 0 2.06
							 99.29 A7.92638 7.92638 -180 0 0 4.3 99.65 A3.84626 3.84626 -180 0 0 6.33 99.21 A1.35974 1.35974 -180
							 0 0 7.01 98 A1.30039 1.30039 -180 0 0 6.63 97.07 A3.88612 3.88612 -180 0 0 5.57 96.33 C5.12 96.1 4.46
							 95.81 3.58 95.44 A11.3386 11.3386 0 0 1 1.59 94.4 Z" class="st10"/>
			</g>
		</g>
	</g>
</svg>
