<?xml version="1.0" encoding="UTF-8" standalone="no"?>
<!DOCTYPE svg PUBLIC "-//W3C//DTD SVG 1.1//EN" "http://www.w3.org/Graphics/SVG/1.1/DTD/svg11.dtd">
<!-- Generated by Microsoft Visio, SVG Export O365 - API Twitter.svg Page-1 -->
<svg xmlns="http://www.w3.org/2000/svg" xmlns:xlink="http://www.w3.org/1999/xlink" xmlns:ev="http://www.w3.org/2001/xml-events"
		width="0.944882in" height="1.33858in" viewBox="0 0 68.0315 96.378" xml:space="preserve" color-interpolation-filters="sRGB"
		class="st3">
	<style type="text/css">
	<![CDATA[
		.st1 {fill:#5da7dc;stroke:none;stroke-width:0.749997}
		.st2 {fill:#ffffff;stroke:none;stroke-width:0.749997}
		.st3 {fill:none;fill-rule:evenodd;font-size:12px;overflow:visible;stroke-linecap:square;stroke-miterlimit:3}
	]]>
	</style>

	<g>
		<title>Page-1</title>
		<g id="group5145-1" transform="translate(5.66929,-34.0157)">
			<title>O365 - API Twitter</title>
			<desc>This package will provide stencils to visually represent Power Platform: Power Bi, Power Apps, Power Virtual Agents and/or Power Automate devices, architectures or solutions diagrams. It will provide stencils to visually represent features, systems, processes and architectures that use these technologies.</desc>
			<g id="group5146-2">
				<title>Page-1</title>
				<g id="group5147-3">
					<title>Power Automate API: Twitter</title>
					<g id="group5148-4">
						<title>rect5924</title>
						<g id="shape5149-5">
							<title>Sheet.5149</title>
							<rect x="0" y="39.685" width="56.6929" height="56.6929" class="st1"/>
						</g>
					</g>
					<g id="group5150-7" transform="translate(11.3628,-12.4522)">
						<title>path5926</title>
						<g id="shape5151-8">
							<title>Sheet.5151</title>
							<path d="M38.32 68.82 A15.7145 15.7145 0 0 1 33.84 70.02 A7.85723 7.85723 -180 0 0 37.35 65.68 A15.7145
										 15.7145 0 0 1 32.4 67.61 A7.85723 7.85723 -180 0 0 18.97 74.74 A22.242 22.242 0 0 1 2.78
										 66.53 A7.85723 7.85723 -180 0 0 5.2 77.04 A7.85723 7.85723 0 0 1 1.69 76.07 A7.85723 7.85723
										 -180 0 0 7.98 83.81 L5.92 84.04 L4.47 84.04 A7.85723 7.85723 -180 0 0 11.85 89.49 A15.7145
										 15.7145 0 0 1 2.05 92.87 L0 92.87 A22.242 22.242 -180 0 0 12.09 96.38 C26.6 96.38 34.45
										 84.41 34.45 74.02 C34.45 73.7 34.45 73.38 34.45 73.05 A15.9562 15.9562 -180 0 0 38.32 68.82
										 Z" class="st2"/>
						</g>
					</g>
				</g>
			</g>
		</g>
	</g>
</svg>
