<?xml version="1.0" encoding="UTF-8" standalone="no"?>
<!DOCTYPE svg PUBLIC "-//W3C//DTD SVG 1.1//EN" "http://www.w3.org/Graphics/SVG/1.1/DTD/svg11.dtd">
<!-- Generated by Microsoft Visio, SVG Export O365 - SharePoint.svg Page-1 -->
<svg xmlns="http://www.w3.org/2000/svg" xmlns:xlink="http://www.w3.org/1999/xlink" xmlns:ev="http://www.w3.org/2001/xml-events"
		width="1.29289in" height="1.51259in" viewBox="0 0 93.088 108.906" xml:space="preserve" color-interpolation-filters="sRGB"
		class="st9">
	<style type="text/css">
	<![CDATA[
		.st1 {fill:#036c70;stroke:none;stroke-linecap:butt;stroke-width:18.1976}
		.st2 {fill:#1a9ba1;stroke:none;stroke-linecap:butt;stroke-width:18.1976}
		.st3 {fill:#37c6d0;stroke:none;stroke-linecap:butt;stroke-width:18.1976}
		.st4 {fill:#000000;fill-opacity:0.098;stroke:none;stroke-linecap:butt;stroke-width:18.1976}
		.st5 {fill:#000000;fill-opacity:0.2;stroke:none;stroke-linecap:butt;stroke-width:18.1976}
		.st6 {fill:#03787c;stroke:none;stroke-linecap:butt;stroke-width:18.1976}
		.st7 {fill:#ffffff;stroke:none;stroke-linecap:butt;stroke-width:18.1976}
		.st8 {fill:none;stroke:none;stroke-linecap:butt;stroke-width:18.1976}
		.st9 {fill:none;fill-rule:evenodd;font-size:12px;overflow:visible;stroke-linecap:square;stroke-miterlimit:3}
	]]>
	</style>

	<g>
		<title>Page-1</title>
		<g id="group20303-1" transform="translate(18.1976,-34.0157)">
			<title>O365 - SharePoint.20303</title>
			<g id="group20304-2">
				<title>g22</title>
				<g id="shape20305-3" transform="translate(9.74409,-23.0315)">
					<title>circle2</title>
					<ellipse cx="16.8307" cy="92.0755" rx="16.8307" ry="16.8307" class="st1"/>
				</g>
				<g id="shape20306-5" transform="translate(27.9035,-10.6299)">
					<title>circle4</title>
					<ellipse cx="14.3947" cy="94.5115" rx="14.3947" ry="14.3947" class="st2"/>
				</g>
				<g id="shape20307-7" transform="translate(16.8307,0)">
					<title>circle6</title>
					<ellipse cx="11.5157" cy="97.3905" rx="11.5157" ry="11.5157" class="st3"/>
				</g>
				<g id="shape20308-9" transform="translate(10.3341,-10.6299)">
					<title>path8</title>
					<path d="M19.19 75.24 L0 75.24 A16.8413 16.8413 -180 0 0 16.24 96.5 C16.73 96.5 17.22 96.48 17.7 96.44 L17.71
								 96.51 A11.5157 11.5157 -180 0 0 6.5 108.02 C6.5 108.32 6.51 108.61 6.53 108.91 L19.19 108.91 A2.3687
								 2.3687 -180 0 0 21.56 106.54 L21.56 77.61 A2.3687 2.3687 -180 0 0 19.19 75.24 Z" class="st4"/>
				</g>
				<g id="shape20309-11" transform="translate(9.95138,-8.85827)">
					<title>path10</title>
					<path d="M17.81 75.24 L0 75.24 A16.8396 16.8396 -180 0 0 16.62 94.73 C17.11 94.73 17.6 94.71 18.08 94.67 L18.09
								 94.74 A11.5246 11.5246 -180 0 0 7.19 108.91 L17.81 108.91 A2.3687 2.3687 -180 0 0 20.17 106.54 L20.17
								 77.61 A2.3687 2.3687 -180 0 0 17.81 75.24 Z" class="st5"/>
				</g>
				<g id="shape20310-13" transform="translate(9.95138,-12.4016)">
					<title>path12</title>
					<path d="M17.81 78.79 L0 78.79 A16.8396 16.8396 -180 0 0 16.62 98.28 C17.11 98.28 17.6 98.25 18.08 98.21 L18.09
								 98.28 A11.5157 11.5157 -180 0 0 6.91 108.91 L17.81 108.91 A2.3687 2.3687 -180 0 0 20.17 106.54 L20.17
								 81.15 A2.3687 2.3687 -180 0 0 17.81 78.79 Z" class="st5"/>
				</g>
				<g id="shape20311-15" transform="translate(9.95138,-12.4016)">
					<title>path14</title>
					<path d="M16.03 78.79 L0 78.79 A16.8396 16.8396 -180 0 0 16.62 98.28 C17.11 98.28 17.6 98.25 18.08 98.21 L18.09
								 98.28 A11.5157 11.5157 -180 0 0 6.91 108.91 L16.03 108.91 A2.3687 2.3687 -180 0 0 18.4 106.54 L18.4
								 81.15 A2.3687 2.3687 -180 0 0 16.03 78.79 Z" class="st5"/>
				</g>
				<g id="shape20312-17" transform="translate(0,-14.1732)">
					<title>path16</title>
					<path d="M2.36 80.56 L25.98 80.56 A2.36161 2.36161 0 0 1 28.35 82.92 L28.35 106.54 A2.36161 2.36161 0 0 1 25.98
								 108.91 L2.36 108.91 A2.36161 2.36161 0 0 1 0 106.54 L0 82.92 A2.36161 2.36161 0 0 1 2.36 80.56 Z"
							class="st6"/>
				</g>
				<g id="shape20313-19" transform="translate(8.08051,-19.4882)">
					<title>path18</title>
					<path d="M1.96 99.74 A4.68602 4.68602 0 0 1 0.51 98.2 A4.18287 4.18287 0 0 1 -0 96.09 A4.05709 4.05709 0 0 1
								 0.94 93.36 A5.56654 5.56654 0 0 1 3.45 91.72 A10.598 10.598 0 0 1 6.88 91.19 A13.0287 13.0287 0
								 0 1 11.4 91.82 L11.4 95.01 A7.06181 7.06181 -180 0 0 9.35 94.18 A9.91417 9.91417 -180 0 0 6.96 93.89
								 A5.18386 5.18386 -180 0 0 4.51 94.41 A1.6122 1.6122 -180 0 0 3.54 95.88 A1.49528 1.49528 -180 0
								 0 3.95 96.93 A3.75945 3.75945 -180 0 0 5.06 97.72 C5.53 97.96 6.22 98.26 7.14 98.64 A2.18268 2.18268
								 0 0 1 7.44 98.76 A17.1797 17.1797 0 0 1 10.07 100.06 A4.70197 4.70197 0 0 1 11.62 101.62 A4.53189
								 4.53189 0 0 1 12.19 103.98 A4.3937 4.3937 0 0 1 11.3 106.83 A4.94114 4.94114 0 0 1 8.94 108.42 A10.7167
								 10.7167 0 0 1 5.57 108.91 A17.7661 17.7661 0 0 1 2.52 108.65 A10.474 10.474 0 0 1 0.04 107.94 L0.04
								 104.57 A7.97244 7.97244 -180 0 0 2.54 105.77 A9.76713 9.76713 -180 0 0 5.3 106.21 A4.74803 4.74803
								 -180 0 0 7.81 105.68 A1.67776 1.67776 -180 0 0 8.65 104.18 A1.60157 1.60157 -180 0 0 8.18 103.03
								 A4.79055 4.79055 -180 0 0 6.88 102.12 C6.32 101.84 5.5 101.48 4.42 101.02 A13.9252 13.9252 0 0 1
								 1.96 99.74 Z" class="st7"/>
				</g>
				<g id="shape20314-21">
					<title>path20</title>
					<rect x="0" y="52.2133" width="56.6929" height="56.6929" class="st8"/>
				</g>
			</g>
		</g>
	</g>
</svg>
