<?xml version="1.0" encoding="UTF-8" standalone="no"?>
<!DOCTYPE svg PUBLIC "-//W3C//DTD SVG 1.1//EN" "http://www.w3.org/Graphics/SVG/1.1/DTD/svg11.dtd">
<!-- Generated by Microsoft Visio, SVG Export Azure Data Explorer Cluster.svg Page-1 -->
<svg xmlns="http://www.w3.org/2000/svg" xmlns:xlink="http://www.w3.org/1999/xlink" xmlns:ev="http://www.w3.org/2001/xml-events"
		width="1.4656in" height="1.48025in" viewBox="0 0 105.523 106.578" xml:space="preserve" color-interpolation-filters="sRGB"
		class="st8">
	<style type="text/css">
	<![CDATA[
		.st1 {fill:#0078d4;stroke:none;stroke-linecap:butt;stroke-width:10.2}
		.st2 {fill:#b8d432;stroke:none;stroke-linecap:butt;stroke-width:10.2}
		.st3 {fill:#59b4d9;stroke:none;stroke-linecap:butt;stroke-width:10.2}
		.st4 {fill:#ffffff;fill-opacity:0.2;stroke:none;stroke-linecap:butt;stroke-width:10.2}
		.st5 {fill:#ffffff;stroke:none;stroke-linecap:butt;stroke-width:10.2}
		.st6 {visibility:visible}
		.st7 {fill:#000000;font-family:Calibri;font-size:0.666664em}
		.st8 {fill:none;fill-rule:evenodd;font-size:12px;overflow:visible;stroke-linecap:square;stroke-miterlimit:3}
	]]>
	</style>

	<g>
		<title>Page-1</title>
		<g id="group6440-1" transform="translate(22.9977,-39.685)">
			<title>Azure Data Explorer Cluster.6440</title>
			<desc>Azure Data Explorer Cluster</desc>
			<g id="group6441-2">
				<title> 1- Icon - Query 60x60 Color</title>
				<g id="shape6442-3" transform="translate(0.35913,-0.367252)">
					<title>Sheet.6442</title>
					<path d="M56.33 50.25 L0 50.25 L56.33 106.58 L56.33 50.25 Z" class="st1"/>
				</g>
				<g id="shape6443-5" transform="translate(-71.3849,31.2175) rotate(-45)">
					<title>Sheet.6443</title>
					<path d="M-0 105.69 a0.883522 0.883395 -180 0 0 0.883501 0.883374 L30.17 106.58 a0.883522 0.883395 -180 0 0 0.883501
								 -0.883374 L31.05 101.84 a0.883522 0.883395 -180 0 0 -0.883501 -0.883374 L0.88 100.95 a0.883522 0.883395
								 -180 0 0 -0.883501 0.883374 L0 105.69 Z" class="st2"/>
				</g>
				<g id="shape6444-7" transform="translate(-71.374,15.2678) rotate(-45)">
					<title>Sheet.6444</title>
					<path d="M0 105.69 a0.883522 0.883395 -180 0 0 0.883501 0.883374 L18.95 106.58 a0.883522 0.883395 -180 0 0 0.883501
								 -0.883374 L19.84 101.84 a0.883522 0.883395 -180 0 0 -0.883501 -0.883374 L0.88 100.95 a0.883522 0.883395
								 -180 0 0 -0.883501 0.883374 L0 105.69 Z" class="st2"/>
				</g>
				<g id="shape6445-9" transform="translate(17.0217,-17.0274)">
					<title>Sheet.6445</title>
					<path d="M0 83.57 L23.01 106.58 L39.67 89.92 L39.67 66.91 L16.66 66.91 L0 83.57 Z" class="st3"/>
				</g>
				<g id="shape6446-11" transform="translate(-55.5587,31.1996) rotate(-45)">
					<title>Sheet.6446</title>
					<path d="M0 105.69 a0.883522 0.883395 -180 0 0 0.883501 0.883374 L18.95 106.58 a0.883522 0.883395 -180 0 0 0.883501
								 -0.883374 L19.84 101.84 a0.883522 0.883395 -180 0 0 -0.883501 -0.883374 L0.88 100.95 a0.883522 0.883395
								 -180 0 0 -0.883501 0.883374 L0 105.69 Z" class="st2"/>
				</g>
				<g id="shape6447-13" transform="translate(28.526,-0.367252)">
					<title>Sheet.6447</title>
					<path d="M28.17 106.58 L28.17 50.25 L0 78.42 L28.17 106.58 Z" class="st4"/>
				</g>
				<g id="shape6448-15" transform="translate(-43.5698,-4.60278) rotate(-45)">
					<title>Sheet.6448</title>
					<path d="M0 105.33 A1.25158 1.2514 -180 0 0 1.25 106.58 L4.37 106.58 A1.25158 1.2514 -180 0 0 5.62 105.33 L5.62
								 102.21 A1.25158 1.2514 -180 0 0 4.37 100.95 L1.25 100.95 A1.25158 1.2514 -180 0 0 0 102.21 L0 105.33
								 Z" class="st5"/>
				</g>
				<g id="shape6449-17" transform="translate(-35.6139,-12.5562) rotate(-45)">
					<title>Sheet.6449</title>
					<path d="M0 105.33 A1.25158 1.2514 -180 0 0 1.25 106.58 L4.37 106.58 A1.25158 1.2514 -180 0 0 5.62 105.33 L5.62
								 102.21 A1.25158 1.2514 -180 0 0 4.37 100.95 L1.25 100.95 A1.25158 1.2514 -180 0 0 0 102.21 L0 105.33
								 Z" class="st5"/>
				</g>
				<g id="shape6450-19" transform="translate(-35.6146,3.35134) rotate(-45)">
					<title>Sheet.6450</title>
					<path d="M0 105.33 A1.25158 1.2514 -180 0 0 1.25 106.58 L4.37 106.58 A1.25158 1.2514 -180 0 0 5.62 105.33 L5.62
								 102.21 A1.25158 1.2514 -180 0 0 4.37 100.95 L1.25 100.95 A1.25158 1.2514 -180 0 0 0 102.21 L0 105.33
								 Z" class="st5"/>
				</g>
				<g id="shape6451-21" transform="translate(-27.66,-4.60212) rotate(-45)">
					<title>Sheet.6451</title>
					<path d="M0 105.33 A1.25158 1.2514 -180 0 0 1.25 106.58 L4.37 106.58 A1.25158 1.2514 -180 0 0 5.62 105.33 L5.62
								 102.21 A1.25158 1.2514 -180 0 0 4.37 100.95 L1.25 100.95 A1.25158 1.2514 -180 0 0 0 102.21 L0 105.33
								 Z" class="st5"/>
				</g>
			</g>
			<g id="shape6440-23">
				<g id="shadow6440-24" transform="matrix(1,0,0,1,1.41732,1.41732)" class="st6"/>
				<text x="-16.42" y="122.28" class="st7">Azure Data Explorer Cluster</text>			</g>
		</g>
	</g>
</svg>
