<?xml version="1.0" encoding="UTF-8" standalone="no"?>
<!DOCTYPE svg PUBLIC "-//W3C//DTD SVG 1.1//EN" "http://www.w3.org/Graphics/SVG/1.1/DTD/svg11.dtd">
<!-- Generated by Microsoft Visio, SVG Export Time Series Insights Event Source.svg Page-1 -->
<svg xmlns="http://www.w3.org/2000/svg" xmlns:xlink="http://www.w3.org/1999/xlink" xmlns:ev="http://www.w3.org/2001/xml-events"
		width="1.73571in" height="1.79756in" viewBox="0 0 124.971 129.424" xml:space="preserve" color-interpolation-filters="sRGB"
		class="st7">
	<style type="text/css">
	<![CDATA[
		.st1 {fill:url(#grad0-5);stroke:none;stroke-linecap:butt;stroke-width:33.0461}
		.st2 {fill:#c3f1ff;stroke:none;stroke-linecap:butt;stroke-width:33.0461}
		.st3 {fill:#949494;stroke:none;stroke-linecap:butt;stroke-width:33.0461}
		.st4 {fill:#767676;stroke:none;stroke-linecap:butt;stroke-width:33.0461}
		.st5 {visibility:visible}
		.st6 {fill:#000000;font-family:Calibri;font-size:0.666664em}
		.st7 {fill:none;fill-rule:evenodd;font-size:12px;overflow:visible;stroke-linecap:square;stroke-miterlimit:3}
	]]>
	</style>

	<defs id="Patterns_And_Gradients">
		<linearGradient id="grad0-5" x1="0" y1="0" x2="1" y2="0" gradientTransform="rotate(-90 0.5 0.5)">
			<stop offset="0" stop-color="#198ab3" stop-opacity="1"/>
			<stop offset="0.4" stop-color="#25aed3" stop-opacity="1"/>
			<stop offset="0.78" stop-color="#2fcaec" stop-opacity="1"/>
			<stop offset="1" stop-color="#32d4f5" stop-opacity="1"/>
		</linearGradient>
	</defs>
	<g>
		<title>Page-1</title>
		<g id="group6023-1" transform="translate(33.0461,-39.685)">
			<title>Time Series Insights Event Source.6023</title>
			<desc>Time Series Insights Event Source</desc>
			<g id="shape6024-2" transform="translate(13.8738,-13.9095)">
				<title>rect15</title>
				<path d="M0 128.07 A1.36412 1.35143 -180 0 0 1.36 129.42 L27.75 129.42 A1.36412 1.35143 -180 0 0 29.11 128.07 L29.11
							 101.93 A1.36412 1.35143 -180 0 0 27.75 100.58 L1.36 100.58 A1.36412 1.35143 -180 0 0 -0 101.93 L0 128.07
							 Z" class="st1"/>
			</g>
			<g id="shape6025-6" transform="translate(22.7237,-16.7112)">
				<title>path17</title>
			</g>
			<g id="shape6026-7" transform="translate(13.8738,-17.8549)">
				<title>path19</title>
				<path d="M23.72 129.41 L38.29 119.3 a0.432516 0.428493 -180 0 0 9.23706E-14 -0.725142 L23.72 108.48 a0.432516 0.428493
							 -180 0 0 -0.69868 0.36257 L23.02 114.65 L0 114.65 L0 123.22 L23.02 123.22 L23.02 129.05 a0.465787 0.461454
							 -180 0 0 0.69868 0.36257 Z" class="st2"/>
			</g>
			<g id="shape6027-9">
				<title>path21</title>
				<path d="M54.96 129.42 L1.73 129.42 A1.73007 1.71397 0 0 1 0 127.71 L0 74.45 A1.73007 1.71397 0 0 1 1.73 72.73 L54.96
							 72.73 A1.73007 1.71397 0 0 1 56.69 74.45 L56.69 91.19 a0.865033 0.856986 0 0 1 -1.36409 0.725142 L52
							 89.61 a0.898303 0.889947 0 0 1 -0.365976 -0.725143 L51.64 78 L5.26 78 L5.26 124.15 L51.44 124.15 L51.44
							 113.6 a0.865033 0.856986 0 0 1 0.365976 -0.692181 L55.13 110.5 a0.865033 0.856986 0 0 1 1.36409 0.725142
							 L56.49 127.71 A1.73007 1.71397 0 0 1 54.96 129.42 Z" class="st3"/>
			</g>
			<g id="shape6028-11" transform="translate(51.4362,-37.4574)">
				<title>path23</title>
				<path d="M0 115.46 L0 126.17 a0.898303 0.889947 -180 0 0 0.365976 0.725142 L3.69 129.21 a0.865033 0.856986 -180 0
							 0 1.49717 -0.560337 L5.19 115.46 L0 115.46 Z" class="st4"/>
			</g>
			<g id="shape6029-13" transform="translate(51.4362,-5.10895)">
				<title>path25</title>
				<path d="M0 129.26 L0 118.55 a0.831762 0.824025 0 0 1 0.365976 -0.692181 L3.69 115.51 a0.898303 0.889947 0 0 1 1.36409
							 0.725142 L5.06 129.42 L0 129.26 Z" class="st4"/>
			</g>
			<g id="shape6023-15">
				<g id="shadow6023-16" transform="matrix(1,0,0,1,1.41732,1.41732)" class="st5"/>
				<text x="-25.82" y="145.13" class="st6">Time Series Insights Event Source</text>			</g>
		</g>
	</g>
</svg>
