<?xml version="1.0" encoding="UTF-8" standalone="no"?>
<!-- Generated by Microsoft Visio, SVG Export Azure AD Verifiable Credentials.svg Page-1 -->

<svg
   xmlns:dc="http://purl.org/dc/elements/1.1/"
   xmlns:cc="http://creativecommons.org/ns#"
   xmlns:rdf="http://www.w3.org/1999/02/22-rdf-syntax-ns#"
   xmlns:svg="http://www.w3.org/2000/svg"
   xmlns="http://www.w3.org/2000/svg"
   xmlns:sodipodi="http://sodipodi.sourceforge.net/DTD/sodipodi-0.dtd"
   xmlns:inkscape="http://www.inkscape.org/namespaces/inkscape"
   width="0.63470727in"
   height="0.78061384in"
   viewBox="0 0 45.698715 56.204305"
   xml:space="preserve"
   class="st8"
   version="1.1"
   id="svg78"
   sodipodi:docname="Azure AD Verifiable Credentials.svg"
   style="font-size:12px;overflow:visible;color-interpolation-filters:sRGB;fill:none;fill-rule:evenodd;stroke-linecap:square;stroke-miterlimit:3"
   inkscape:version="0.92.5 (2060ec1f9f, 2020-04-08)"><metadata
   id="metadata82"><rdf:RDF><cc:Work
       rdf:about=""><dc:format>image/svg+xml</dc:format><dc:type
         rdf:resource="http://purl.org/dc/dcmitype/StillImage" /></cc:Work></rdf:RDF></metadata><sodipodi:namedview
   pagecolor="#ffffff"
   bordercolor="#666666"
   borderopacity="1"
   objecttolerance="10"
   gridtolerance="10"
   guidetolerance="10"
   inkscape:pageopacity="0"
   inkscape:pageshadow="2"
   inkscape:window-width="640"
   inkscape:window-height="480"
   id="namedview80"
   showgrid="false"
   inkscape:zoom="1.4248482"
   inkscape:cx="30.465938"
   inkscape:cy="37.45633"
   inkscape:window-x="0"
   inkscape:window-y="0"
   inkscape:window-maximized="0"
   inkscape:current-layer="svg78" />
	<style
   type="text/css"
   id="style2">
	<![CDATA[
		.st1 {fill:#59285f;stroke:none;stroke-linecap:butt;stroke-width:34}
		.st2 {fill:#a33a85;stroke:none;stroke-linecap:butt;stroke-width:34}
		.st3 {fill:url(#grad0-10);stroke:none;stroke-linecap:butt;stroke-width:34}
		.st4 {fill:#773adc;stroke:none;stroke-linecap:butt;stroke-width:34}
		.st5 {fill:url(#grad0-18);stroke:none;stroke-linecap:butt;stroke-width:34}
		.st6 {fill:#f2f2f2;stroke:none;stroke-linecap:butt;stroke-width:34}
		.st7 {fill:url(#grad0-24);stroke:none;stroke-linecap:butt;stroke-width:34}
		.st8 {fill:none;fill-rule:evenodd;font-size:12px;overflow:visible;stroke-linecap:square;stroke-miterlimit:3}
	]]>
	</style>

	<defs
   id="Patterns_And_Gradients">
		<linearGradient
   id="grad0-10"
   x1="0"
   y1="64.271558"
   x2="39.441263"
   y2="64.271558"
   gradientTransform="scale(0.83491242,1.1977304)"
   gradientUnits="userSpaceOnUse">
			<stop
   offset="0.5"
   stop-color="#b796f9"
   stop-opacity="1"
   id="stop4" />
			<stop
   offset="0.9"
   stop-color="#a67af4"
   stop-opacity="1"
   id="stop6" />
		</linearGradient>
		<linearGradient
   id="grad0-18"
   x1="-0.0060485466"
   y1="145.41376"
   x2="12.960702"
   y2="145.41376"
   gradientTransform="scale(1.2750001,0.78431367)"
   gradientUnits="userSpaceOnUse">
			<stop
   offset="0"
   stop-color="#a67af4"
   stop-opacity="1"
   id="stop9" />
			<stop
   offset="0.24"
   stop-color="#9065db"
   stop-opacity="1"
   id="stop11" />
			<stop
   offset="0.75"
   stop-color="#653eab"
   stop-opacity="1"
   id="stop13" />
			<stop
   offset="1"
   stop-color="#552f99"
   stop-opacity="1"
   id="stop15" />
		</linearGradient>
		<linearGradient
   id="grad0-24"
   x1="0"
   y1="113.58279"
   x2="9.3607574"
   y2="113.58279"
   gradientTransform="scale(0.98969132,1.0104161)"
   gradientUnits="userSpaceOnUse">
			<stop
   offset="0"
   stop-color="#a67af4"
   stop-opacity="1"
   id="stop18" />
			<stop
   offset="0.24"
   stop-color="#9065db"
   stop-opacity="1"
   id="stop20" />
			<stop
   offset="0.75"
   stop-color="#653eab"
   stop-opacity="1"
   id="stop22" />
			<stop
   offset="1"
   stop-color="#552f99"
   stop-opacity="1"
   id="stop24" />
		</linearGradient>
	</defs>
	<g
   id="g76"
   transform="translate(-34.000371,-33.999998)">
		<title
   id="title28">Page-1</title>
		<g
   id="group13491-1"
   transform="translate(34,-34.0157)">
			<title
   id="title30">Azure AD Verifiable Credentials.13491</title>
			<g
   id="group13492-2">
				<title
   id="title32">Sheet.13492</title>
				<g
   id="shape13493-3"
   transform="rotate(90,34.14165,102.15735)">
					<title
   id="title34">Sheet.13493</title>
					<path
   d="m 0,122.6 a 1.59417,1.62755 -180 0 0 1.59,1.62 h 43.09 a 1.59417,1.62755 -180 0 0 1.6,-1.62 V 92.23 A 1.59417,1.62755 -180 0 0 44.68,90.6 H 1.59 A 1.59417,1.62755 -180 0 0 0,92.23 Z"
   class="st1"
   id="path36"
   inkscape:connector-curvature="0"
   style="fill:#59285f;stroke:none;stroke-width:34;stroke-linecap:butt" />
				</g>
				<g
   id="shape13494-5"
   transform="rotate(90,28.66205,101.42695)">
					<title
   id="title39">Sheet.13494</title>
					<path
   d="m 0,122.6 a 1.59417,1.62755 -180 0 0 1.59,1.62 h 43.09 a 1.59417,1.62755 -180 0 0 1.6,-1.62 V 92.23 A 1.59417,1.62755 -180 0 0 44.68,90.6 H 1.59 A 1.59417,1.62755 -180 0 0 0,92.23 Z"
   class="st2"
   id="path41"
   inkscape:connector-curvature="0"
   style="fill:#a33a85;stroke:none;stroke-width:34;stroke-linecap:butt" />
				</g>
				<g
   id="shape13495-7">
					<title
   id="title44">Sheet.13495</title>
					<path
   d="m 0,122.6 a 1.59417,1.62755 -180 0 0 1.59,1.62 h 29.75 a 1.59417,1.62755 -180 0 0 1.59,-1.62 v -44 A 1.59417,1.62755 -180 0 0 31.34,76.98 H 1.59 A 1.59417,1.62755 -180 0 0 0,78.6 Z"
   class="st3"
   id="path46"
   inkscape:connector-curvature="0"
   style="fill:url(#grad0-10);stroke:none;stroke-width:34;stroke-linecap:butt" />
				</g>
				<g
   id="shape13496-11"
   transform="rotate(180,12.9703,118.2995)">
					<title
   id="title49">Sheet.13496</title>
					<path
   d="m 0,123.37 a 0.833018,0.850463 -180 0 0 0.832999,0.85044 L 18.1,124.22 a 0.833018,0.850463 -180 0 0 0.832999,-0.85044 L 18.94,121.63 a 0.833018,0.850463 -180 0 0 -0.832999,-0.85044 L 0.83,120.78 a 0.833018,0.850463 -180 0 0 -0.832999,0.85044 z"
   class="st4"
   id="path51"
   inkscape:connector-curvature="0"
   style="fill:#773adc;stroke:none;stroke-width:34;stroke-linecap:butt" />
				</g>
				<g
   id="shape13497-13"
   transform="rotate(180,12.9703,114.9575)">
					<title
   id="title54">Sheet.13497</title>
					<path
   d="m 0,123.37 a 0.833018,0.850463 -180 0 0 0.832999,0.85044 L 18.1,124.22 a 0.833018,0.850463 -180 0 0 0.832999,-0.85044 L 18.94,121.63 a 0.833018,0.850463 -180 0 0 -0.832999,-0.85044 L 0.83,120.78 a 0.833018,0.850463 -180 0 0 -0.832999,0.85044 z"
   class="st4"
   id="path56"
   inkscape:connector-curvature="0"
   style="fill:#773adc;stroke:none;stroke-width:34;stroke-linecap:butt" />
				</g>
				<g
   id="shape13498-15"
   transform="translate(8.20912,-22.4317)">
					<title
   id="title59">Sheet.13498</title>
					<path
   d="m 15.05,124.21 a 1.41773,1.44742 -180 0 0 1.47,-1.44 0.767665,0.783742 -180 0 0 0,-0.17676 A 8.37572,8.55113 -180 0 0 8.3,114.05 c -5.01,0 -7.76,3.25 -8.3,8.51 a 1.48306,1.51412 -180 0 0 1.32,1.66 h 13.72 z"
   class="st5"
   id="path61"
   inkscape:connector-curvature="0"
   style="fill:url(#grad0-18);stroke:none;stroke-width:34;stroke-linecap:butt" />
				</g>
				<g
   id="shape13499-19"
   transform="translate(14.0989,-25.6234)">
					<title
   id="title64">Sheet.13499</title>
					<path
   d="M 2.47,118.36 A 4.60599,4.70245 0 0 1 0,117.6 l 2.47,6.62 2.47,-6.57 a 4.70073,4.79917 0 0 1 -2.47,0.71 z"
   class="st6"
   id="path66"
   inkscape:connector-curvature="0"
   style="fill:#f2f2f2;stroke:none;stroke-width:34;stroke-linecap:butt" />
				</g>
				<g
   id="shape13500-21"
   transform="translate(11.9004,-31.4864)">
					<title
   id="title69">Sheet.13500</title>
					<ellipse
   cx="4.6321301"
   cy="119.495"
   rx="4.6321301"
   ry="4.7291298"
   class="st7"
   id="ellipse71"
   style="fill:url(#grad0-24);stroke:none;stroke-width:34;stroke-linecap:butt" />
				</g>
			</g>
		</g>
	</g>
</svg>