<?xml version="1.0" encoding="UTF-8" standalone="no"?>
<!-- Generated by Microsoft Visio, SVG Export DDoS Protection Plan.svg Page-1 -->

<svg
   xmlns:dc="http://purl.org/dc/elements/1.1/"
   xmlns:cc="http://creativecommons.org/ns#"
   xmlns:rdf="http://www.w3.org/1999/02/22-rdf-syntax-ns#"
   xmlns:svg="http://www.w3.org/2000/svg"
   xmlns="http://www.w3.org/2000/svg"
   xmlns:sodipodi="http://sodipodi.sourceforge.net/DTD/sodipodi-0.dtd"
   xmlns:inkscape="http://www.inkscape.org/namespaces/inkscape"
   width="0.62985766in"
   height="0.78740102in"
   viewBox="0 0 45.349495 56.693184"
   xml:space="preserve"
   class="st6"
   version="1.1"
   id="svg55"
   sodipodi:docname="DDoS Protection Plan.svg"
   style="font-size:12px;overflow:visible;color-interpolation-filters:sRGB;fill:none;fill-rule:evenodd;stroke-linecap:square;stroke-miterlimit:3"
   inkscape:version="0.92.5 (2060ec1f9f, 2020-04-08)"><metadata
   id="metadata59"><rdf:RDF><cc:Work
       rdf:about=""><dc:format>image/svg+xml</dc:format><dc:type
         rdf:resource="http://purl.org/dc/dcmitype/StillImage" /></cc:Work></rdf:RDF></metadata><sodipodi:namedview
   pagecolor="#ffffff"
   bordercolor="#666666"
   borderopacity="1"
   objecttolerance="10"
   gridtolerance="10"
   guidetolerance="10"
   inkscape:pageopacity="0"
   inkscape:pageshadow="2"
   inkscape:window-width="640"
   inkscape:window-height="480"
   id="namedview57"
   showgrid="false"
   inkscape:zoom="1.4193119"
   inkscape:cx="30.235833"
   inkscape:cy="37.790437"
   inkscape:window-x="0"
   inkscape:window-y="0"
   inkscape:window-maximized="0"
   inkscape:current-layer="svg55" />
	<style
   type="text/css"
   id="style2">
	<![CDATA[
		.st1 {fill:#0078d4;stroke:none;stroke-linecap:butt;stroke-width:34}
		.st2 {fill:url(#grad0-8);stroke:none;stroke-linecap:butt;stroke-width:34}
		.st3 {fill:#e6e6e6;stroke:none;stroke-linecap:butt;stroke-width:34}
		.st4 {fill:#003067;stroke:none;stroke-linecap:butt;stroke-width:34}
		.st5 {fill:#50e6ff;stroke:none;stroke-linecap:butt;stroke-width:34}
		.st6 {fill:none;fill-rule:evenodd;font-size:12px;overflow:visible;stroke-linecap:square;stroke-miterlimit:3}
	]]>
	</style>

	<defs
   id="Patterns_And_Gradients">
		<linearGradient
   id="grad0-8"
   x1="-2.2924711e-05"
   y1="65.062972"
   x2="46.50217"
   y2="65.062972"
   gradientTransform="scale(0.89458232,1.1178401)"
   gradientUnits="userSpaceOnUse">
			<stop
   offset="0.18"
   stop-color="#5ea0ef"
   stop-opacity="1"
   id="stop4" />
			<stop
   offset="1"
   stop-color="#0078d4"
   stop-opacity="1"
   id="stop6" />
		</linearGradient>
	</defs>
	<g
   id="g53"
   transform="translate(-34.000632,-34.0043)">
		<title
   id="title10">Page-1</title>
		<g
   id="group18063-1"
   transform="translate(34,-34.0157)">
			<title
   id="title12">DDoS Protection Plan.18063</title>
			<g
   id="group18064-2">
				<title
   id="title14">Icon-networking-72</title>
				<g
   id="shape18065-3">
					<title
   id="title16">Sheet.18065</title>
					<path
   d="m 45.35,94.48 c 0,15.24 -18.02,27.53 -21.93,30.02 a 1.41732,1.44901 0 0 1 -1.48,0 C 18.02,122.01 0,109.72 0,94.48 V 76.14 a 1.41732,1.44901 0 0 1 1.39,-1.45 c 14.02,-0.37 10.78,-6.67 21.29,-6.67 10.5,0 7.27,6.3 21.29,6.67 a 1.41732,1.44901 0 0 1 1.38,1.45 z"
   class="st1"
   id="path18"
   inkscape:connector-curvature="0"
   style="fill:#0078d4;stroke:none;stroke-width:34;stroke-linecap:butt" />
				</g>
				<g
   id="shape18066-5"
   transform="translate(1.87949,-2.35317)">
					<title
   id="title21">Sheet.18066</title>
					<path
   d="m 41.6,96.99 c 0,13.98 -16.52,25.2 -20.12,27.53 a 1.32489,1.35451 0 0 1 -1.36,0 C 16.51,122.25 0,110.97 0,96.99 V 80.17 a 1.29408,1.32301 0 0 1 1.26,-1.33 c 12.85,-0.34 9.89,-6.11 19.54,-6.11 9.64,0 6.68,5.77 19.53,6.11 a 1.29408,1.32301 0 0 1 1.27,1.33 z"
   class="st2"
   id="path23"
   inkscape:connector-curvature="0"
   style="fill:url(#grad0-8);stroke:none;stroke-width:34;stroke-linecap:butt" />
				</g>
				<g
   id="shape18067-9"
   transform="translate(14.05,-15.7425)">
					<title
   id="title26">Sheet.18067</title>
					<path
   d="m 17.25,123.2 a 1.47895,1.51202 0 0 1 -1.47,1.51 H 1.48 A 1.47895,1.51202 0 0 1 0,123.2 V 96.17 a 1.47895,1.51202 0 0 1 1.48,-1.54 h 14.3 a 1.47895,1.51202 0 0 1 1.47,1.54 z"
   class="st3"
   id="path28"
   inkscape:connector-curvature="0"
   style="fill:#e6e6e6;stroke:none;stroke-width:34;stroke-linecap:butt" />
				</g>
				<g
   id="shape18068-11"
   transform="translate(16.5149,-39.0212)">
					<title
   id="title31">Sheet.18068</title>
					<path
   d="m 0,122.79 a 1.84868,1.89002 0 0 1 1.85,-1.89 h 8.63 a 1.84868,1.89002 0 0 1 1.84,1.89 1.84868,1.89002 0 0 1 -1.84,1.92 H 1.85 A 1.84868,1.89002 0 0 1 0,122.79 Z"
   class="st4"
   id="path33"
   inkscape:connector-curvature="0"
   style="fill:#003067;stroke:none;stroke-width:34;stroke-linecap:butt" />
				</g>
				<g
   id="shape18069-13"
   transform="translate(17.1927,-39.6827)">
					<title
   id="title36">Sheet.18069</title>
					<ellipse
   cx="1.26327"
   cy="123.417"
   rx="1.26327"
   ry="1.29151"
   class="st5"
   id="ellipse38"
   style="fill:#50e6ff;stroke:none;stroke-width:34;stroke-linecap:butt" />
				</g>
				<g
   id="shape18070-15"
   transform="translate(16.5149,-33.0362)">
					<title
   id="title41">Sheet.18070</title>
					<path
   d="m 0,122.79 a 1.87949,1.92152 0 0 1 1.85,-1.92 h 8.63 a 1.87949,1.92152 0 0 1 1.84,1.92 1.84868,1.89002 0 0 1 -1.84,1.92 H 1.85 A 1.84868,1.89002 0 0 1 0,122.79 Z"
   class="st4"
   id="path43"
   inkscape:connector-curvature="0"
   style="fill:#003067;stroke:none;stroke-width:34;stroke-linecap:butt" />
				</g>
				<g
   id="shape18071-17"
   transform="translate(17.1927,-33.6662)">
					<title
   id="title46">Sheet.18071</title>
					<ellipse
   cx="1.26327"
   cy="123.417"
   rx="1.26327"
   ry="1.29151"
   class="st5"
   id="ellipse48"
   style="fill:#50e6ff;stroke:none;stroke-width:34;stroke-linecap:butt" />
				</g>
			</g>
		</g>
	</g>
</svg>