<?xml version="1.0" encoding="UTF-8" standalone="no"?>
<!-- Generated by Microsoft Visio, SVG Export Network Manager.svg Page-1 -->

<svg
   xmlns:dc="http://purl.org/dc/elements/1.1/"
   xmlns:cc="http://creativecommons.org/ns#"
   xmlns:rdf="http://www.w3.org/1999/02/22-rdf-syntax-ns#"
   xmlns:svg="http://www.w3.org/2000/svg"
   xmlns="http://www.w3.org/2000/svg"
   xmlns:sodipodi="http://sodipodi.sourceforge.net/DTD/sodipodi-0.dtd"
   xmlns:inkscape="http://www.inkscape.org/namespaces/inkscape"
   width="0.7480765in"
   height="0.78739953in"
   viewBox="0 0 53.861261 56.693077"
   xml:space="preserve"
   class="st5"
   version="1.1"
   id="svg60"
   sodipodi:docname="Network Manager.svg"
   style="font-size:12px;overflow:visible;color-interpolation-filters:sRGB;fill:none;fill-rule:evenodd;stroke-linecap:square;stroke-miterlimit:3"
   inkscape:version="0.92.5 (2060ec1f9f, 2020-04-08)"><metadata
   id="metadata64"><rdf:RDF><cc:Work
       rdf:about=""><dc:format>image/svg+xml</dc:format><dc:type
         rdf:resource="http://purl.org/dc/dcmitype/StillImage" /></cc:Work></rdf:RDF></metadata><sodipodi:namedview
   pagecolor="#ffffff"
   bordercolor="#666666"
   borderopacity="1"
   objecttolerance="10"
   gridtolerance="10"
   guidetolerance="10"
   inkscape:pageopacity="0"
   inkscape:pageshadow="2"
   inkscape:window-width="640"
   inkscape:window-height="480"
   id="namedview62"
   showgrid="false"
   inkscape:zoom="1.4193119"
   inkscape:cx="35.909543"
   inkscape:cy="37.786193"
   inkscape:window-x="0"
   inkscape:window-y="0"
   inkscape:window-maximized="0"
   inkscape:current-layer="svg60" />
	<style
   type="text/css"
   id="style2">
	<![CDATA[
		.st1 {fill:#76bc2d;stroke:none;stroke-linecap:butt;stroke-width:34}
		.st2 {fill:#50e6ff;stroke:none;stroke-linecap:butt;stroke-width:34}
		.st3 {fill:#1490df;stroke:none;stroke-linecap:butt;stroke-width:34}
		.st4 {fill:url(#grad0-20);stroke:none;stroke-linecap:butt;stroke-width:34}
		.st5 {fill:none;fill-rule:evenodd;font-size:12px;overflow:visible;stroke-linecap:square;stroke-miterlimit:3}
	]]>
	</style>

	<defs
   id="Patterns_And_Gradients">
		<linearGradient
   id="grad0-20"
   x1="-2.6809182e-15"
   y1="89.68855"
   x2="34.259356"
   y2="89.68855"
   gradientTransform="scale(0.99388907,1.0061485)"
   gradientUnits="userSpaceOnUse">
			<stop
   offset="0"
   stop-color="#5ea0ef"
   stop-opacity="1"
   id="stop4" />
			<stop
   offset="1"
   stop-color="#0078d4"
   stop-opacity="1"
   id="stop6" />
		</linearGradient>
	</defs>
	<g
   id="g58"
   transform="translate(-33.997307,-34.001224)">
		<title
   id="title10">Page-1</title>
		<g
   id="group17767-1"
   transform="translate(34,-34.0157)">
			<title
   id="title12">Network Manager.17767</title>
			<g
   id="group17768-2">
				<title
   id="title14">Sheet.17768</title>
				<g
   id="shape17769-3"
   transform="translate(28.7057,-40.5094)">
					<title
   id="title16">Sheet.17769</title>
					<ellipse
   cx="2.87323"
   cy="121.839"
   rx="2.87323"
   ry="2.8699"
   class="st1"
   id="ellipse18"
   style="fill:#76bc2d;stroke:none;stroke-width:34;stroke-linecap:butt" />
				</g>
				<g
   id="shape17770-5"
   transform="translate(19.5341,-40.4842)">
					<title
   id="title21">Sheet.17770</title>
					<ellipse
   cx="2.87323"
   cy="121.839"
   rx="2.87323"
   ry="2.8699"
   class="st1"
   id="ellipse23"
   style="fill:#76bc2d;stroke:none;stroke-width:34;stroke-linecap:butt" />
				</g>
				<g
   id="shape17771-7"
   transform="translate(10.3656,-40.4842)">
					<title
   id="title26">Sheet.17771</title>
					<ellipse
   cx="2.87323"
   cy="121.839"
   rx="2.87323"
   ry="2.8699"
   class="st1"
   id="ellipse28"
   style="fill:#76bc2d;stroke:none;stroke-width:34;stroke-linecap:butt" />
				</g>
				<g
   id="shape17772-9"
   transform="translate(0.0147425,-30.0248)">
					<title
   id="title31">Sheet.17772</title>
					<path
   d="m 15.31,122.86 -1.64,1.63 a 0.741173,0.740315 0 0 1 -1.05026,0 L 0.43,112.37 a 1.4855,1.48378 0 0 1 0,-2.09 l 1.65,-1.65 13.24,13.18 a 0.74748,0.746616 0 0 1 0,1.05219 z"
   class="st2"
   id="path33"
   inkscape:connector-curvature="0"
   style="fill:#50e6ff;stroke:none;stroke-width:34;stroke-linecap:butt" />
				</g>
				<g
   id="shape17773-11"
   transform="translate(0,-40.7394)">
					<title
   id="title36">Sheet.17773</title>
					<path
   d="m 13.43,109 1.65,1.63 a 0.741173,0.740315 0 0 1 0,1.04904 L 2.08,124.71 0.43,123.07 a 1.49181,1.49008 0 0 1 0,-2.1 L 12.38,109 a 0.741173,0.740315 0 0 1 1.05026,0 z"
   class="st3"
   id="path38"
   inkscape:connector-curvature="0"
   style="fill:#1490df;stroke:none;stroke-width:34;stroke-linecap:butt" />
				</g>
				<g
   id="shape17774-13"
   transform="translate(33.0424,-36.6755)">
					<title
   id="title41">Sheet.17774</title>
					<path
   d="m 1.75,124.7 h 3.66 l 5.71,-5.7 a 1.48865,1.48693 -180 0 0 0,-2.09 L 9.48,115.26 0,124.71 Z"
   class="st2"
   id="path43"
   inkscape:connector-curvature="0"
   style="fill:#50e6ff;stroke:none;stroke-width:34;stroke-linecap:butt" />
				</g>
				<g
   id="shape17775-15"
   transform="translate(29.3012,-40.7552)">
					<title
   id="title46">Sheet.17775</title>
					<path
   d="m 14.86,123.07 -1.65,1.64 -13,-13.02 a 0.741173,0.740315 0 0 1 0,-1.03644 L 1.88,108.99 a 0.741173,0.740315 0 0 1 1.05026,0 L 14.88,120.96 a 1.48865,1.48693 0 0 1 0,2.1 z"
   class="st3"
   id="path48"
   inkscape:connector-curvature="0"
   style="fill:#1490df;stroke:none;stroke-width:34;stroke-linecap:butt" />
				</g>
				<g
   id="shape17776-17"
   transform="translate(19.8085)">
					<title
   id="title51">Sheet.17776</title>
					<path
   d="m 34.05,109.35 v -3.86 h -0.51 l -4.2,-1.3 -0.96,-2.89 2.1,-4.53 -2.73,-2.73 h -0.51 l -3.91,1.99 -2.62,-1.08 -1.7,-4.71 h -4.03 v 0.57 l -1.36,4.14 -2.67,1.08 -4.41,-2.1 -2.73,2.72 0.29,0.51 1.57,4.2 -0.9,2.83 -4.77,1.53 v 4.14 h 0.57 l 4.14,1.36 0.96,2.55 -2.1,4.53 2.84,2.89 0.57,-0.28 3.86,-1.98 2.67,1.08 1.7,4.7 h 3.86 v -0.57 l 1.36,-4.13 2.67,-1.08 4.48,2.09 2.73,-2.72 -0.29,-0.51 -1.64,-4.09 1.07,-2.66 z m -16.91,5.67 h -0.12 a 7.4338,7.42521 0 1 1 0.12,0 z"
   class="st4"
   id="path53"
   inkscape:connector-curvature="0"
   style="fill:url(#grad0-20);stroke:none;stroke-width:34;stroke-linecap:butt" />
				</g>
			</g>
		</g>
	</g>
</svg>