<?xml version="1.0" encoding="UTF-8" standalone="no"?>
<!-- Generated by Microsoft Visio, SVG Export Virtual Network Firewall.svg Page-1 -->

<svg
   xmlns:dc="http://purl.org/dc/elements/1.1/"
   xmlns:cc="http://creativecommons.org/ns#"
   xmlns:rdf="http://www.w3.org/1999/02/22-rdf-syntax-ns#"
   xmlns:svg="http://www.w3.org/2000/svg"
   xmlns="http://www.w3.org/2000/svg"
   xmlns:sodipodi="http://sodipodi.sourceforge.net/DTD/sodipodi-0.dtd"
   xmlns:inkscape="http://www.inkscape.org/namespaces/inkscape"
   width="0.78755039in"
   height="0.66921115in"
   viewBox="0 0 56.703536 48.183451"
   xml:space="preserve"
   class="st7"
   version="1.1"
   id="svg66"
   sodipodi:docname="Virtual Network Firewall.svg"
   style="font-size:12px;overflow:visible;color-interpolation-filters:sRGB;fill:none;fill-rule:evenodd;stroke-linecap:square;stroke-miterlimit:3"
   inkscape:version="0.92.5 (2060ec1f9f, 2020-04-08)"><metadata
   id="metadata70"><rdf:RDF><cc:Work
       rdf:about=""><dc:format>image/svg+xml</dc:format><dc:type
         rdf:resource="http://purl.org/dc/dcmitype/StillImage" /></cc:Work></rdf:RDF></metadata><sodipodi:namedview
   pagecolor="#ffffff"
   bordercolor="#666666"
   borderopacity="1"
   objecttolerance="10"
   gridtolerance="10"
   guidetolerance="10"
   inkscape:pageopacity="0"
   inkscape:pageshadow="2"
   inkscape:window-width="640"
   inkscape:window-height="480"
   id="namedview68"
   showgrid="false"
   inkscape:zoom="1.5231781"
   inkscape:cx="37.806758"
   inkscape:cy="32.108907"
   inkscape:window-x="0"
   inkscape:window-y="0"
   inkscape:window-maximized="0"
   inkscape:current-layer="svg66" />
	<style
   type="text/css"
   id="style2">
	<![CDATA[
		.st1 {fill:url(#grad0-6);stroke:none;stroke-linecap:butt;stroke-width:34}
		.st2 {fill:#50e6ff;stroke:none;stroke-linecap:butt;stroke-width:34}
		.st3 {fill:#1490df;stroke:none;stroke-linecap:butt;stroke-width:34}
		.st4 {fill:#57a300;stroke:none;stroke-linecap:butt;stroke-width:9.65909}
		.st5 {fill:#b8d432;fill-opacity:0.4;stroke:none;stroke-linecap:butt;stroke-width:9.65909}
		.st6 {fill:#ffffff;stroke:none;stroke-linecap:butt;stroke-width:9.65909}
		.st7 {fill:none;fill-rule:evenodd;font-size:12px;overflow:visible;stroke-linecap:square;stroke-miterlimit:3}
	]]>
	</style>

	<defs
   id="Patterns_And_Gradients">
		<linearGradient
   id="grad0-6"
   x1="-0.52000381"
   y1="225.29179"
   x2="14.428914"
   y2="225.29179"
   gradientTransform="scale(2.048666,0.48812252)"
   gradientUnits="userSpaceOnUse">
			<stop
   offset="0"
   stop-color="#5e9624"
   stop-opacity="1"
   id="stop4" />
			<stop
   offset="0.24"
   stop-color="#6fb02a"
   stop-opacity="1"
   id="stop6" />
			<stop
   offset="0.5"
   stop-color="#7cc52f"
   stop-opacity="1"
   id="stop8" />
			<stop
   offset="0.755"
   stop-color="#83d232"
   stop-opacity="1"
   id="stop10" />
			<stop
   offset="1"
   stop-color="#86d633"
   stop-opacity="1"
   id="stop12" />
		</linearGradient>
	</defs>
	<g
   id="g64"
   transform="translate(-33.991706,-34.000852)">
		<title
   id="title16">Page-1</title>
		<g
   id="group17577-1"
   transform="translate(34,-34.0157)">
			<title
   id="title18">Virtual Network Firewall.17577</title>
			<g
   id="group17578-2"
   transform="translate(0,-14.2858)">
				<title
   id="title20">g12</title>
				<g
   id="shape17579-3"
   transform="translate(14.2109,-14.3751)">
					<title
   id="title22">path2</title>
					<path
   d="m 29.56,113.6 a 3.64766,3.64345 0 1 1 -3.65,-3.63 3.64451,3.6403 0 0 1 3.65,3.63 z m -15.33,-3.62 a 3.64766,3.64345 -180 1 0 3.65,3.64 3.64451,3.6403 -180 0 0 -3.65,-3.64 z m -11.65,0 A 3.64766,3.64345 -180 1 0 6.23,113.63 3.64766,3.64345 -180 0 0 2.58,110 Z"
   class="st1"
   id="path24"
   inkscape:connector-curvature="0"
   style="fill:url(#grad0-6);stroke:none;stroke-width:34;stroke-linecap:butt" />
				</g>
				<g
   id="shape17580-7"
   transform="translate(0.0125992)">
					<title
   id="title27">path4</title>
					<path
   d="m 19.45,113.84 -2.09,2.09 a 0.94499,0.943898 0 0 1 -1.33559,0 L 0.55,100.52 a 1.88998,1.8878 0 0 1 0,-2.66 l 2.09,-2.1 16.81,16.74 a 0.94499,0.943898 0 0 1 0,1.33719 z"
   class="st2"
   id="path29"
   inkscape:connector-curvature="0"
   style="fill:#50e6ff;stroke:none;stroke-width:34;stroke-linecap:butt" />
				</g>
				<g
   id="shape17581-9"
   transform="translate(0,-13.6322)">
					<title
   id="title32">path6</title>
					<path
   d="m 17.06,96.22 2.11,2.1 a 0.94499,0.943898 0 0 1 0,1.33719 L 2.65,116.2 0.55,114.12 a 1.88998,1.8878 0 0 1 0,-2.68 L 15.74,96.23 a 0.94499,0.943898 0 0 1 1.33874,0 z"
   class="st3"
   id="path34"
   inkscape:connector-curvature="0"
   style="fill:#1490df;stroke:none;stroke-width:34;stroke-linecap:butt" />
				</g>
				<g
   id="shape17582-11"
   transform="translate(36.9341,-0.00629266)">
					<title
   id="title37">path8</title>
					<path
   d="m 17.09,95.76 2.09,2.09 a 1.88998,1.8878 0 0 1 0,2.67 L 3.7,115.93 a 0.94499,0.943898 0 0 1 -1.33559,0 L 0.28,113.83 a 0.94499,0.943898 0 0 1 0,-1.33404 z"
   class="st2"
   id="path39"
   inkscape:connector-curvature="0"
   style="fill:#50e6ff;stroke:none;stroke-width:34;stroke-linecap:butt" />
				</g>
				<g
   id="shape17583-13"
   transform="translate(37.2365,-13.6416)">
					<title
   id="title42">path10</title>
					<path
   d="M 18.89,114.12 16.8,116.2 0.28,99.66 a 0.94499,0.943898 0 0 1 0,-1.33404 L 2.39,96.22 a 0.94499,0.943898 0 0 1 1.33559,0 L 18.91,111.43 a 1.88998,1.8878 0 0 1 -0.01,2.67 z"
   class="st3"
   id="path44"
   inkscape:connector-curvature="0"
   style="fill:#1490df;stroke:none;stroke-width:34;stroke-linecap:butt" />
				</g>
			</g>
			<g
   id="shape17584-15"
   transform="translate(30.4459)">
				<title
   id="title48">path10-7</title>
				<path
   d="m 16.75,92.58 c -5.92,-0.65 -6.91,-3.2 -6.91,-3.2 0,0 -1.33,3.35 -9.84,3.35 v 13.74 c 0,1.66 0.92,3.22 2.2,4.58 2.91,3.08 7.64,5.15 7.64,5.15 0,0 9.85,-4.3 9.85,-9.73 V 92.73 c -1.1,0 -2.07,-0.06 -2.94,-0.15 z"
   class="st4"
   id="path50"
   inkscape:connector-curvature="0"
   style="fill:#57a300;stroke:none;stroke-width:9.65909004;stroke-linecap:butt" />
			</g>
			<g
   id="shape17585-17"
   transform="translate(30.4459,-5.23613)">
				<title
   id="title53">path12</title>
				<path
   d="m 12.16,103.53 4.43,-5.62 c -5.86,-0.65 -6.84,-3.17 -6.84,-3.17 0,0 -1.32,3.32 -9.75,3.32 v 13.61 c 0,1.65 0.92,3.19 2.18,4.53 l 3.28,-4.15 z"
   class="st5"
   id="path55"
   inkscape:connector-curvature="0"
   style="fill:#b8d432;fill-opacity:0.4;stroke:none;stroke-width:9.65909004;stroke-linecap:butt" />
			</g>
			<g
   id="shape17586-19"
   transform="translate(35.8151,-8.03118)">
				<title
   id="title58">path14</title>
				<path
   d="M 8.5,109.95 H 8.05 v -1.8 a 3.58,3.5758594 -180 0 0 -7.16,0 v 1.8 H 0.45 a 0.452808,0.452285 -180 0 0 -0.448332,0.45586 L 0,115.75 c 0,0.25 0.2,0.45 0.45,0.45 H 8.5 a 0.452808,0.452285 -180 0 0 0.448332,-0.45586 L 8.95,110.4 a 0.454597,0.454072 -180 0 0 -0.449229,-0.45676 z m -4.03,-3.59 c 0.99,0 1.79,0.8 1.79,1.79 v 1.8 H 2.68 v -1.8 c 0,-0.99 0.81,-1.79 1.79,-1.79 z"
   class="st6"
   id="path60"
   inkscape:connector-curvature="0"
   style="fill:#ffffff;stroke:none;stroke-width:9.65909004;stroke-linecap:butt" />
			</g>
		</g>
	</g>
</svg>