<?xml version="1.0" encoding="UTF-8" standalone="no"?>
<!DOCTYPE svg PUBLIC "-//W3C//DTD SVG 1.1//EN" "http://www.w3.org/Graphics/SVG/1.1/DTD/svg11.dtd">
<!-- Generated by Microsoft Visio, SVG Export App Gateway Backend Health.svg Page-1 -->
<svg xmlns="http://www.w3.org/2000/svg" xmlns:xlink="http://www.w3.org/1999/xlink" xmlns:ev="http://www.w3.org/2001/xml-events"
		width="1.72787in" height="1.69338in" viewBox="0 0 124.407 121.923" xml:space="preserve" color-interpolation-filters="sRGB"
		class="st4">
	<style type="text/css">
	<![CDATA[
		.st1 {fill:url(#grad0-6);stroke:none;stroke-linecap:butt;stroke-width:34}
		.st2 {fill:url(#grad0-6)}
		.st3 {stroke:none;stroke-linecap:butt;stroke-width:34}
		.st4 {fill:none;fill-rule:evenodd;font-size:12px;overflow:visible;stroke-linecap:square;stroke-miterlimit:3}
	]]>
	</style>

	<defs id="Patterns_And_Gradients">
		<linearGradient id="grad0-6" x1="0" y1="0" x2="1" y2="0" gradientTransform="rotate(-90 0.5 0.5)">
			<stop offset="0" stop-color="#b31b1b" stop-opacity="1"/>
			<stop offset="0.82" stop-color="#e62323" stop-opacity="1"/>
		</linearGradient>
	</defs>
	<g>
		<title>Page-1</title>
		<g id="group9528-1" transform="translate(33.8642,-34.0157)">
			<title>App Gateway Backend Health</title>
			<g id="group9529-2">
				<title>MsPortalFx.base.images-73</title>
				<g id="shape9530-3">
					<title>Sheet.9530</title>
					<path d="M28.34 121.92 C55.47 102.28 56.38 90.82 56.52 87.24 C56.69 82.22 56 69.08 42.9 68.07 A14.1741 14.3197
								 -180 0 0 28.34 77.64 A14.1741 14.3197 -180 0 0 13.79 68.07 C0.69 69.1 0 82.22 0.15 87.24 C0.27 90.82
								 1.19 102.28 28.34 121.92 Z" class="st1"/>
				</g>
				<g id="shape9531-7" transform="translate(0,-0.160176)">
					<title>Sheet.9531</title>
					<path d="M56.52 87.4 C56.69 82.38 56 69.24 42.9 68.23 A14.1741 14.3197 -180 0 0 28.34 77.8 A14.1741 14.3197 -180
								 0 0 13.79 68.23 C0.69 69.26 0 82.38 0.15 87.4 C0.27 90.98 0.95 102.27 28.08 121.92 L56.52 87.4 Z"
							class="st2"/>
					<path d="M56.52 87.4 C56.69 82.38 56 69.24 42.9 68.23 A14.1741 14.3197 -180 0 0 28.34 77.8 A14.1741 14.3197 -180
								 0 0 13.79 68.23 C0.69 69.26 0 82.38 0.15 87.4 C0.27 90.98 0.95 102.27 28.08 121.92" class="st3"/>
				</g>
			</g>
		</g>
	</g>
</svg>
