<?xml version="1.0" encoding="UTF-8" standalone="no"?>
<!DOCTYPE svg PUBLIC "-//W3C//DTD SVG 1.1//EN" "http://www.w3.org/Graphics/SVG/1.1/DTD/svg11.dtd">
<!-- Generated by Microsoft Visio, SVG Export Application Insights User Flow.svg Page-1 -->
<svg xmlns="http://www.w3.org/2000/svg" xmlns:xlink="http://www.w3.org/1999/xlink" xmlns:ev="http://www.w3.org/2001/xml-events"
		width="1.1274in" height="1.3511in" viewBox="0 0 81.1729 97.2794" xml:space="preserve" color-interpolation-filters="sRGB"
		class="st4">
	<style type="text/css">
	<![CDATA[
		.st1 {fill:#804998;stroke:none;stroke-linecap:butt;stroke-width:12.24}
		.st2 {fill:#ffffff;fill-opacity:0.75;stroke:none;stroke-linecap:butt;stroke-width:12.24}
		.st3 {fill:#3999c6;stroke:none;stroke-linecap:butt;stroke-width:12.24}
		.st4 {fill:none;fill-rule:evenodd;font-size:12px;overflow:visible;stroke-linecap:square;stroke-miterlimit:3}
	]]>
	</style>

	<g>
		<title>Page-1</title>
		<g id="group8831-1" transform="translate(12.24,-34.0157)">
			<title>Application Insights User Flow</title>
			<g id="group8832-2">
				<title>Sheet.8832</title>
				<g id="group8833-3" transform="translate(20.4094,2.70006E-13)">
					<title>Sheet.8833</title>
					<g id="shape8834-4">
						<title>Sheet.8834</title>
						<path d="M26.08 62.49 L35.15 62.49 A1.13386 1.15963 -180 0 0 36.28 61.33 L36.28 52.05 A1.13386 1.15963 -180
									 0 0 35.15 50.89 L26.08 50.89 A1.13386 1.15963 -180 0 0 24.94 52.05 L24.94 55.53 L19.28 55.53
									 L19.28 52.05 A1.13386 1.15963 -180 0 0 18.14 50.89 L9.07 50.89 A1.13386 1.15963 -180 0 0 7.94
									 52.05 L7.94 55.53 L0 55.53 L0 57.85 L7.94 57.85 L7.94 61.33 A1.13386 1.15963 -180 0 0 9.07 62.49
									 L17.67 62.49 L24.94 69.93 L24.94 78.73 A1.13386 1.15963 -180 0 0 26.08 79.88 L29.48 79.88 L29.48
									 85.68 L26.08 85.68 A1.13386 1.15963 -180 0 0 24.94 86.84 L24.94 96.12 A1.13386 1.15963 -180
									 0 0 26.08 97.28 L35.15 97.28 A1.13386 1.15963 -180 0 0 36.28 96.12 L36.28 86.84 A1.13386 1.15963
									 -180 0 0 35.15 85.68 L31.75 85.68 L31.75 79.88 L35.15 79.88 A1.13386 1.15963 -180 0 0 36.28
									 78.73 L36.28 69.45 A1.13386 1.15963 -180 0 0 35.15 68.29 L26.55 68.29 L19.28 60.85 L19.28 57.85
									 L24.94 57.85 L24.94 61.33 A1.13386 1.15963 -180 0 0 26.08 62.49 Z" class="st1"/>
					</g>
					<g id="shape8835-6" transform="translate(0.33222,1.42109E-14)">
						<title>Sheet.8835</title>
						<path d="M17.81 68.29 L9.21 68.29 L1.6 60.51 L0 62.15 L7.6 69.93 L7.6 78.73 A1.13386 1.15963 -180 0 0 8.74
									 79.88 L12.14 79.88 L12.14 85.68 L8.74 85.68 A1.13386 1.15963 -180 0 0 7.6 86.84 L7.6 96.12 A1.13386
									 1.15963 -180 0 0 8.74 97.28 L17.81 97.28 A1.13386 1.15963 -180 0 0 18.94 96.12 L18.94 86.84
									 A1.13386 1.15963 -180 0 0 17.81 85.68 L14.41 85.68 L14.41 79.88 L17.81 79.88 A1.13386 1.15963
									 -180 0 0 18.94 78.73 L18.94 69.45 A1.13386 1.15963 -180 0 0 17.81 68.29 Z" class="st1"/>
					</g>
				</g>
				<g id="shape8836-8" transform="translate(30.6142,-2.31926)">
					<title>Sheet.8836</title>
					<path d="M6.8 55.53 L6.8 62.49 L0 62.49 L0 55.53 L6.8 55.53 ZM23.81 55.53 L23.81 62.49 L17.01 62.49 L17.01 55.53
								 L23.81 55.53 ZM23.81 97.28 L17.01 97.28 L17.01 90.32 L23.81 90.32 L23.81 97.28 ZM6.8 97.28 L0 97.28
								 L0 90.32 L6.8 90.32 L6.8 97.28 ZM6.8 79.88 L0 79.88 L0 72.93 L6.8 72.93 L6.8 79.88 ZM23.81 79.88
								 L17.01 79.88 L17.01 72.93 L23.81 72.93 L23.81 79.88 Z" class="st2"/>
				</g>
				<g id="shape8837-10" transform="translate(0,-31.3099)">
					<title>Sheet.8837</title>
					<path d="M1.47 77.57 L21.2 77.57 A1.47402 1.50752 0 0 1 22.68 79.07 L22.68 95.77 A1.47402 1.50752 0 0 1 21.2
								 97.28 L1.47 97.28 A1.47402 1.50752 0 0 1 -0 95.77 L0 79.07 A1.47402 1.50752 0 0 1 1.47 77.57 Z"
							class="st3"/>
				</g>
				<g id="shape8838-12" transform="translate(2.26772,-33.6292)">
					<title>Sheet.8838</title>
					<rect x="0" y="84.5235" width="18.1417" height="12.7559" class="st2"/>
				</g>
			</g>
		</g>
	</g>
</svg>
