<?xml version="1.0" encoding="UTF-8" standalone="no"?>
<!DOCTYPE svg PUBLIC "-//W3C//DTD SVG 1.1//EN" "http://www.w3.org/Graphics/SVG/1.1/DTD/svg11.dtd">
<!-- Generated by Microsoft Visio, SVG Export Azure Cosmos DB Feature.svg Page-1 -->
<svg xmlns="http://www.w3.org/2000/svg" xmlns:xlink="http://www.w3.org/1999/xlink" xmlns:ev="http://www.w3.org/2001/xml-events"
		width="1.1274in" height="1.3511in" viewBox="0 0 81.1729 97.2794" xml:space="preserve" color-interpolation-filters="sRGB"
		class="st9">
	<style type="text/css">
	<![CDATA[
		.st1 {fill:#ba141a;stroke:none;stroke-linecap:butt;stroke-width:12.24}
		.st2 {fill:#804998;stroke:none;stroke-linecap:butt;stroke-width:12.24}
		.st3 {fill:#1e1e1e;stroke:none;stroke-linecap:butt;stroke-width:12.24}
		.st4 {fill:#fee087;fill-opacity:0.6;stroke:none;stroke-linecap:butt;stroke-width:12.24}
		.st5 {fill:#ff8c00;fill-opacity:0.8;stroke:none;stroke-linecap:butt;stroke-width:12.24}
		.st6 {fill:#ffffff;fill-opacity:0.2;stroke:none;stroke-linecap:butt;stroke-width:12.24}
		.st7 {fill:#1e1e1e;fill-opacity:0.3;stroke:none;stroke-linecap:butt;stroke-width:12.24}
		.st8 {fill:#e5e5e5;stroke:none;stroke-linecap:butt;stroke-width:12.24}
		.st9 {fill:none;fill-rule:evenodd;font-size:12px;overflow:visible;stroke-linecap:square;stroke-miterlimit:3}
	]]>
	</style>

	<g>
		<title>Page-1</title>
		<g id="group7732-1" transform="translate(12.24,-34.0157)">
			<title>Azure Cosmos DB Feature</title>
			<g id="group7733-2">
				<title> </title>
				<g id="shape7734-3" transform="translate(0.00125981,-2.41585E-13)">
					<title>Sheet.7734</title>
					<path d="M0 97.28 L0 62.32 A3.68748 3.68047 0 0 1 3.69 58.64 L53 58.64 A3.68748 3.68047 0 0 1 56.69 62.32 L56.69
								 97.28 L0 97.28 Z" class="st1"/>
				</g>
				<g id="shape7735-5" transform="translate(46.7032,-4.48899)">
					<title>Sheet.7735</title>
					<path d="M6.55 84.2 A6.55041 6.53796 -180 1 0 6.55 97.28 A6.49686 6.48452 -180 0 0 9.99 96.28 L9.99 85.2 A6.50064
								 6.48829 -180 0 0 6.55 84.2 Z" class="st2"/>
				</g>
				<g id="shape7736-7" transform="translate(12.4596,-38.6368)">
					<title>Sheet.7736</title>
					<path d="M31.77 97.28 L27.5 97.28 L27.5 91.18 C27.5 90.06 26.6 89.15 25.48 89.15 L6.29 89.15 A2.0283 2.02445
								 -180 0 0 4.27 91.18 L4.27 97.28 L0 97.28 L0 91.18 A6.30285 6.29088 0 0 1 6.29 84.89 L25.48 84.89
								 A6.30159 6.28962 0 0 1 31.77 91.18 L31.77 97.28 Z" class="st3"/>
				</g>
				<g id="shape7737-9" transform="translate(-2.8777E-13,-4.42864)">
					<title>Sheet.7737</title>
					<path d="M21.51 89.42 L0 84.3 L0 92.61 L19.64 97.28 L21.51 89.42 Z" class="st4"/>
				</g>
				<g id="shape7738-11" transform="translate(2.00814,-27.2697)">
					<title>Sheet.7738</title>
					<path d="M16.69 91.56 C17.01 93.64 13.6 95.89 9.08 96.59 C4.56 97.28 0.64 96.15 0.32 94.07 C0 91.99 3.4 89.74
								 7.92 89.05 C12.44 88.35 16.37 89.48 16.69 91.56 Z" class="st5"/>
				</g>
				<g id="shape7739-13" transform="translate(48.8014,-6.58386)">
					<title>Sheet.7739</title>
					<path d="M4.45 88.39 A4.45218 4.44373 -180 1 0 4.45 97.28 A4.42321 4.4148 -180 0 0 7.89 95.63 L7.89 90.04 A4.42573
								 4.41732 -180 0 0 4.45 88.39 Z" class="st6"/>
				</g>
				<g id="shape7740-15" transform="translate(2.83773E-13,-20.545)">
					<title>Sheet.7740</title>
					<rect x="0" y="94.6237" width="56.6917" height="2.65567" class="st7"/>
				</g>
				<g id="shape7741-17" transform="translate(22.0442,-16.3414)">
					<title>Sheet.7741</title>
					<path d="M10.95 88.96 C11.86 88.96 12.6 89.7 12.6 90.61 L12.6 95.63 C12.6 96.54 11.86 97.28 10.95 97.28 L1.65
								 97.28 A1.65414 1.65099 0 0 1 -0 95.63 L0 90.61 C0 89.7 0.74 88.96 1.65 88.96 L10.95 88.96 Z"
							class="st7"/>
				</g>
				<g id="shape7742-19" transform="translate(0.00125981,-21.9609)">
					<title>Sheet.7742</title>
					<path d="M0 94.62 L56.69 94.62 L56.69 97.28 L0 97.28 L0 94.62 Z" class="st8"/>
				</g>
			</g>
		</g>
	</g>
</svg>
