<?xml version="1.0" encoding="UTF-8" standalone="no"?>
<!DOCTYPE svg PUBLIC "-//W3C//DTD SVG 1.1//EN" "http://www.w3.org/Graphics/SVG/1.1/DTD/svg11.dtd">
<!-- Generated by Microsoft Visio, SVG Export Collection.svg Page-1 -->
<svg xmlns="http://www.w3.org/2000/svg" xmlns:xlink="http://www.w3.org/1999/xlink" xmlns:ev="http://www.w3.org/2001/xml-events"
		width="0.944882in" height="1.16535in" viewBox="0 0 68.0315 83.9055" xml:space="preserve" color-interpolation-filters="sRGB"
		class="st5">
	<style type="text/css">
	<![CDATA[
		.st1 {fill:url(#grad0-6);stroke:none;stroke-width:0.750001}
		.st2 {fill:#ffffff;stroke:none;stroke-width:0.750001}
		.st3 {fill:#83b9f9;stroke:none;stroke-width:0.750001}
		.st4 {fill:#50e6ff;stroke:none;stroke-width:0.750001}
		.st5 {fill:none;fill-rule:evenodd;font-size:12px;overflow:visible;stroke-linecap:square;stroke-miterlimit:3}
	]]>
	</style>

	<defs id="Patterns_And_Gradients">
		<linearGradient id="grad0-6" x1="0" y1="0" x2="1" y2="0" gradientTransform="rotate(90 0.5 0.5)">
			<stop offset="0.09" stop-color="#5ea0ef" stop-opacity="1"/>
			<stop offset="1" stop-color="#0078d4" stop-opacity="1"/>
		</linearGradient>
	</defs>
	<g>
		<title>Page-1</title>
		<g id="group5795-1" transform="translate(5.66929,-34.0157)">
			<title>Collection</title>
			<g id="group5796-2">
				<title>g14</title>
				<g id="shape5797-3" transform="translate(0,-8.01003)">
					<title>path2</title>
					<path d="M1.73 46.56 L55 46.56 A1.6645 1.55342 0 0 1 56.69 47.99 L56.69 82.48 A1.63121 1.52235 0 0 1 55 83.91
								 L1.73 83.91 A1.6645 1.55342 0 0 1 0 82.48 L0 48.05 A1.6645 1.55342 0 0 1 1.73 46.56 L1.73 46.56
								 Z" class="st1"/>
				</g>
				<g id="shape5798-7" transform="translate(6.27265,-30.4344)">
					<title>path4</title>
					<path d="M0.3 73.75 L9.85 73.75 a0.46606 0.434958 0 0 1 0.46606 0.434958 L10.32 83.5 a0.43277 0.40389 0 0 1 -0.432704
								 0.403828 L0.47 83.91 a0.46606 0.434958 0 0 1 -0.46606 -0.434958 L0 74.15 a0.46606 0.434958 0 0 1
								 0.332943 -0.403828 L0.3 73.75 Z" class="st2"/>
				</g>
				<g id="shape5799-9" transform="translate(6.27265,-15.4283)">
					<title>path8</title>
					<path d="M0.3 73.75 L9.85 73.75 a0.46606 0.434958 0 0 1 0.46606 0.434958 L10.32 83.5 a0.43277 0.40389 0 0 1 -0.432704
								 0.403828 L0.47 83.91 a0.46606 0.434958 0 0 1 -0.46606 -0.434958 L0 74.15 a0.46606 0.434958 0 0 1
								 0.332943 -0.403828 L0.3 73.75 ZM17.11 58.74 L26.7 58.74 a0.46606 0.434958 0 0 1 0.46606 0.434958
								 L27.16 68.5 a0.43277 0.40389 0 0 1 -0.432704 0.403828 L17.31 68.9 a0.46606 0.434958 0 0 1 -0.46606
								 -0.434958 L16.84 59.14 a0.43277 0.40389 0 0 1 0.299894 -0.403828 L17.11 58.74 Z" class="st2"/>
				</g>
				<g id="shape5800-11" transform="translate(23.1174,-15.4283)">
					<title>path10</title>
					<path d="M0.27 73.75 L9.85 73.75 a0.49935 0.466027 0 0 1 0.46606 0.434958 L10.32 83.5 a0.43277 0.40389 0 0 1
								 -0.432704 0.403828 L0.47 83.91 a0.46606 0.434958 0 0 1 -0.46606 -0.434958 L0 74.15 a0.43277 0.40389
								 0 0 1 0.299894 -0.403828 L0.27 73.75 ZM17.91 58.74 L27.5 58.74 a0.46606 0.434958 0 0 1 0.46606 0.434958
								 L27.96 68.5 a0.43277 0.40389 0 0 1 -0.432704 0.403828 L18.08 68.9 a0.46606 0.434958 0 0 1 -0.46606
								 -0.434958 L17.61 59.14 a0.43277 0.40389 0 0 1 0.299894 -0.403828 L17.91 58.74 Z" class="st3"/>
				</g>
				<g id="shape5801-13" transform="translate(37.1516,0)">
					<title>path6</title>
					<path d="M0.73 59.2 L9.59 63.99 L18.48 68.74 a0.53264 0.497095 0 0 1 -2.13163E-14 0.838843 L12.55 72.69 L16.78
								 79.46 A2.92952 2.73402 0 0 1 15.71 83.16 L14.85 83.62 A2.89623 2.70295 0 0 1 10.89 82.66 L6.66 75.82
								 L0.77 78.93 a0.49935 0.466027 0 0 1 -0.765647 -0.434958 L0 59.64 a0.53264 0.497095 0 0 1 0.732292
								 -0.434958 L0.73 59.2 Z" class="st4"/>
				</g>
			</g>
		</g>
	</g>
</svg>
