<?xml version="1.0" encoding="UTF-8" standalone="no"?>
<!DOCTYPE svg PUBLIC "-//W3C//DTD SVG 1.1//EN" "http://www.w3.org/Graphics/SVG/1.1/DTD/svg11.dtd">
<!-- Generated by Microsoft Visio, SVG Export Configuration.svg Page-1 -->
<svg xmlns="http://www.w3.org/2000/svg" xmlns:xlink="http://www.w3.org/1999/xlink" xmlns:ev="http://www.w3.org/2001/xml-events"
		width="1.8499in" height="1.77121in" viewBox="0 0 133.193 127.527" xml:space="preserve" color-interpolation-filters="sRGB"
		class="st2">
	<style type="text/css">
	<![CDATA[
		.st1 {fill:#000000;stroke:none;stroke-linecap:butt;stroke-width:38.25}
		.st2 {fill:none;fill-rule:evenodd;font-size:12px;overflow:visible;stroke-linecap:square;stroke-miterlimit:3}
	]]>
	</style>

	<g>
		<title>Page-1</title>
		<g id="group5731-1" transform="translate(38.25,-38.2518)">
			<title>Configuration</title>
			<g id="group5732-2">
				<title>Sheet.5732</title>
				<g id="shape5733-3" transform="translate(6.9264,1.42109E-14)">
					<title>Sheet.5733</title>
					<path d="M28.51 80.15 C30.46 80.15 32.05 81.78 32.05 83.79 C32.05 85.8 30.46 87.44 28.51 87.44 C26.55 87.44 24.96
								 85.8 24.96 83.79 C24.96 81.78 26.55 80.15 28.51 80.15 ZM28.51 76.5 A7.08661 7.28961 -180 1 0 28.5
								 91.08 A7.08661 7.28961 -180 0 0 28.51 76.5 ZM35.59 116.6 C37.55 116.6 39.14 118.23 39.14 120.24
								 C39.14 122.25 37.55 123.89 35.59 123.89 C33.64 123.89 32.05 122.25 32.05 120.24 C32.05 118.23 33.64
								 116.6 35.59 116.6 ZM35.59 112.95 A7.08661 7.28961 -180 1 0 35.59 127.53 A7.08661 7.28961 -180 0
								 0 35.59 112.95 ZM7.25 98.37 C9.2 98.37 10.79 100.01 10.79 102.02 C10.79 104.03 9.2 105.66 7.25 105.66
								 C5.29 105.66 3.7 104.03 3.7 102.02 C3.7 100.01 5.29 98.37 7.25 98.37 ZM7.25 94.73 A7.08661 7.28961
								 -180 1 0 7.24 109.3 A7.08661 7.28961 -180 0 0 7.25 94.73 Z" class="st1"/>
				</g>
				<g id="shape5734-5" transform="translate(0,-5.46356)">
					<title>Sheet.5734</title>
					<path d="M0 87.43 L28.35 87.43 L28.35 91.08 L0 91.08 L0 87.43 ZM42.52 87.43 L56.69 87.43 L56.69 91.08 L42.52
								 91.08 L42.52 87.43 ZM0 105.66 L7.09 105.66 L7.09 109.3 L0 109.3 L0 105.66 ZM21.26 105.66 L56.69
								 105.66 L56.69 109.3 L21.26 109.3 L21.26 105.66 ZM49.61 123.88 L56.69 123.88 L56.69 127.53 L49.61
								 127.53 L49.61 123.88 ZM0 123.88 L35.43 123.88 L35.43 127.53 L0 127.53 L0 123.88 Z" class="st1"/>
				</g>
			</g>
		</g>
	</g>
</svg>
