<?xml version="1.0" encoding="UTF-8" standalone="no"?>
<!DOCTYPE svg PUBLIC "-//W3C//DTD SVG 1.1//EN" "http://www.w3.org/Graphics/SVG/1.1/DTD/svg11.dtd">
<!-- Generated by Microsoft Visio, SVG Export Enterprise Certification Authority Offline Root.svg Page-1 -->
<svg xmlns="http://www.w3.org/2000/svg" xmlns:xlink="http://www.w3.org/1999/xlink" xmlns:ev="http://www.w3.org/2001/xml-events"
		width="1.64096in" height="1.74855in" viewBox="0 0 118.149 125.896" xml:space="preserve" color-interpolation-filters="sRGB"
		class="st13">
	<style type="text/css">
	<![CDATA[
		.st1 {fill:url(#grad0-11);stroke:none;stroke-linecap:butt;stroke-width:35.9597}
		.st2 {fill:#003067;stroke:none;stroke-linecap:butt;stroke-width:35.9597}
		.st3 {fill:#50e6ff;stroke:none;stroke-linecap:butt;stroke-width:35.9597}
		.st4 {fill:#ffffff;fill-opacity:0.75;stroke:none;stroke-linecap:butt;stroke-width:35.9597}
		.st5 {fill:url(#grad0-34);stroke:none;stroke-linecap:butt;stroke-width:33.9998}
		.st6 {fill:#ffffff;stroke:none;stroke-linecap:butt;stroke-width:33.9998}
		.st7 {fill:#d15900;stroke:none;stroke-linecap:butt;stroke-width:33.9998}
		.st8 {fill:#b31b1b;stroke:none;stroke-linecap:butt;stroke-width:33.9998}
		.st9 {fill:#e62323;stroke:none;stroke-linecap:butt;stroke-width:33.9998}
		.st10 {fill:#ffb34d;stroke:none;stroke-linecap:butt;stroke-width:33.9998}
		.st11 {fill:#773adc;stroke:none;stroke-linecap:butt;stroke-width:34}
		.st12 {fill:#f9f9f9;fill-opacity:0.5;stroke:none;stroke-linecap:butt;stroke-width:34}
		.st13 {fill:none;fill-rule:evenodd;font-size:12px;overflow:visible;stroke-linecap:square;stroke-miterlimit:3}
	]]>
	</style>

	<defs id="Patterns_And_Gradients">
		<linearGradient id="grad0-11" x1="0" y1="0" x2="1" y2="0" gradientTransform="rotate(-90 0.5 0.5)">
			<stop offset="0" stop-color="#949494" stop-opacity="1"/>
			<stop offset="0.53" stop-color="#a2a2a2" stop-opacity="1"/>
			<stop offset="1" stop-color="#b3b3b3" stop-opacity="1"/>
		</linearGradient>
		<linearGradient id="grad0-34" x1="0" y1="0" x2="1" y2="0" gradientTransform="rotate(-90 0.5 0.5)">
			<stop offset="0" stop-color="#e27908" stop-opacity="1"/>
			<stop offset="0.325" stop-color="#e47d0a" stop-opacity="1"/>
			<stop offset="0.62" stop-color="#eb8810" stop-opacity="1"/>
			<stop offset="0.91" stop-color="#f69a19" stop-opacity="1"/>
			<stop offset="1" stop-color="#faa21d" stop-opacity="1"/>
		</linearGradient>
	</defs>
	<g>
		<title>Page-1</title>
		<g id="group5069-1" transform="translate(35.9599,-34.883)">
			<title>Enterprise Certification Authority Offline Root</title>
			<g id="group5070-2">
				<title>Page-1</title>
				<g id="group5071-3">
					<title>Sheet.5071</title>
					<g id="group5072-4" transform="translate(2.3781E-13,-1.21412)">
						<title>Sheet.5072</title>
						<g id="group5073-5">
							<title>Icon-databases-136.149</title>
							<g id="group5074-6">
								<title>path4-5</title>
								<g id="group5075-7">
									<title>Sheet.5075</title>
									<g id="shape5076-8">
										<title>Sheet.5076</title>
										<path d="M31.79 124.06 A1.87777 1.86752 -180 0 1 29.95 125.9 L1.84 125.9 A1.8454 1.83531
													 -180 0 1 -0 124.06 L0 73.89 A1.81302 1.80311 -180 0 1 1.84 72.06 L29.95 72.06
													 A1.8454 1.83531 -180 0 1 31.79 73.89 L31.79 124.06 Z" class="st1"/>
									</g>
								</g>
							</g>
							<g id="group5077-12" transform="translate(4.66205,-31.5222)">
								<title>path6-7</title>
								<g id="group5078-13">
									<title>Sheet.5078</title>
									<g id="shape5079-14">
										<title>Sheet.5079</title>
										<path d="M0 122.46 A3.46416 3.44524 -180 0 1 3.43 119.03 L19.29 119.03 A3.46416 3.44524 -180
													 0 1 22.85 122.46 A3.46416 3.44524 -180 0 1 19.29 125.9 L3.43 125.9 A3.46416
													 3.44524 -180 0 1 -0 122.46 ZM0 112.27 A3.46416 3.44524 -180 0 1 3.43 108.83
													 L19.29 108.83 A3.46416 3.44524 -180 0 1 22.85 112.27 A3.46416 3.44524 -180 0
													 1 19.29 115.69 L3.43 115.69 A3.46416 3.44524 -180 0 1 0 112.27 Z" class="st2"/>
									</g>
								</g>
							</g>
							<g id="group5080-16" transform="translate(5.95706,-42.8242)">
								<title>circle8-5</title>
								<g id="group5081-17">
									<title>Sheet.5081</title>
									<g id="shape5082-18">
										<title>Sheet.5082</title>
										<ellipse cx="2.33102" cy="123.577" rx="2.33102" ry="2.31829" class="st3"/>
									</g>
								</g>
							</g>
							<g id="group5083-20" transform="translate(5.95706,-32.6496)">
								<title>circle10-2</title>
								<g id="group5084-21">
									<title>Sheet.5084</title>
									<g id="shape5085-22">
										<title>Sheet.5085</title>
										<ellipse cx="2.33102" cy="123.577" rx="2.33102" ry="2.31829" class="st3"/>
									</g>
								</g>
							</g>
						</g>
					</g>
					<g id="group5086-24" transform="translate(2.3781E-13,-1.07664)">
						<title>Sheet.5086</title>
						<g id="shape5087-25">
							<title>Sheet.5087</title>
							<path d="M31.79 124.06 A1.87777 1.86752 -180 0 1 29.95 125.9 L1.84 125.9 A1.8454 1.83531 -180 0 1 -0
										 124.06 L0 73.89 A1.81302 1.80311 -180 0 1 1.84 72.06 L29.95 72.06 A1.8454 1.83531 -180 0
										 1 31.79 73.89 L31.79 124.06 Z" class="st4"/>
						</g>
					</g>
					<g id="group5088-27" transform="translate(23.1191,-34.8277)">
						<title>Management Certificate.1189</title>
						<g id="group5089-28">
							<title>g14</title>
							<g id="group5090-29" transform="translate(0,-4.93504)">
								<title>rect2</title>
								<g id="group5091-30">
									<title>Sheet.5091</title>
									<g id="shape5092-31">
										<title>Sheet.5092</title>
										<path d="M-0 125.1 a0.824774 0.796774 -0 0 0 0.821337 0.791552 L23.92 125.9 a0.824774 0.796774
													 -0 0 0 0.828872 -0.791552 L24.74 109.76 a0.824774 0.796774 -0 0 0 -0.828872
													 -0.791552 L0.83 108.97 a0.824774 0.796774 -0 0 0 -0.821337 0.791552 L0 125.1
													 Z" class="st5"/>
									</g>
								</g>
							</g>
							<g id="group5093-35" transform="translate(1.44332,-6.42308)">
								<title>rect4</title>
								<g id="group5094-36">
									<title>Sheet.5094</title>
									<g id="shape5095-37">
										<title>Sheet.5095</title>
										<path d="M0 125.5 a0.412385 0.398388 -0 0 0 0.412376 0.398379 L21.44 125.89 a0.412385 0.398388
													 -0 0 0 0.412376 -0.398379 L21.86 112.35 a0.412385 0.398388 -0 0 0 -0.412376
													 -0.398379 L0.41 111.95 a0.412385 0.398388 -0 0 0 -0.412376 0.398379 L0 125.5
													 Z" class="st6"/>
									</g>
								</g>
							</g>
							<g id="group5096-39" transform="translate(4.75883,-10.0883)">
								<title>path6</title>
								<g id="group5097-40">
									<title>Sheet.5097</title>
									<g id="shape5098-41">
										<title>Sheet.5098</title>
										<path d="M15.78 125.51 a0.39863 0.385099 0 0 1 -0.39863 0.385099 L6.47 125.9 a0.39863 0.385099
													 0 1 1 -9.76996E-15 -0.76887 L15.39 125.13 a0.397255 0.383772 0 0 1 0.39863 0.383772
													 L15.78 125.51 ZM15.78 123.13 a0.397255 0.383772 0 0 1 -0.39863 0.383772 L6.47
													 123.51 a0.39863 0.385099 0 1 1 -1.15463E-14 -0.76887 L15.39 122.74 a0.39863
													 0.385099 0 0 1 0.39863 0.385099 L15.78 123.13 ZM15.78 119.66 a0.39863 0.385099
													 0 0 1 -0.39863 0.385099 L0.42 120.04 a0.39863 0.385099 0 1 1 -1.06026E-14 -0.76887
													 L15.39 119.27 a0.397255 0.383772 0 0 1 0.39863 0.383772 L15.78 119.66 Z"
												class="st7"/>
									</g>
								</g>
							</g>
							<g id="group5099-43" transform="translate(2.12649,1.42109E-14)">
								<title>path8</title>
								<g id="group5100-44">
									<title>Sheet.5100</title>
									<g id="shape5101-45">
										<title>Sheet.5101</title>
										<path d="M4.93 119.88 A3.47083 3.35302 0 0 1 0.29 119.88 L0 125.44 a0.457738 0.4422 -0 0
													 0 0.783511 0.331982 L2.57 124.03 L4.37 125.79 a0.457738 0.4422 -0 0 0 0.789012
													 -0.322687 L4.93 119.88 Z" class="st8"/>
									</g>
								</g>
							</g>
							<g id="group5102-47" transform="translate(0.640557,-4.85426)">
								<title>ellipse10</title>
								<g id="group5103-48">
									<title>Sheet.5103</title>
									<g id="shape5104-49">
										<title>Sheet.5104</title>
										<ellipse cx="4.14163" cy="121.881" rx="4.14163" ry="4.01433" class="st9"/>
									</g>
								</g>
							</g>
							<g id="group5105-51" transform="translate(1.63988,-5.8231)">
								<title>ellipse12</title>
								<g id="group5106-52">
									<title>Sheet.5106</title>
									<g id="shape5107-53">
										<title>Sheet.5107</title>
										<ellipse cx="3.1423" cy="122.851" rx="3.1423" ry="3.04494" class="st10"/>
									</g>
								</g>
							</g>
						</g>
					</g>
					<g id="group5108-55" transform="translate(15.3973,-2.70006E-13)">
						<title>Sheet.5108</title>
						<g id="group5109-56" transform="translate(0.0190122,1.42109E-14)">
							<title>Sheet.5109</title>
							<g id="shape5110-57">
								<title>Sheet.5110</title>
								<path d="M16.39 96.9 L0 119.36 L16.39 125.9 L32.77 119.36 L16.39 96.9 Z" class="st11"/>
							</g>
						</g>
						<g id="group5111-59">
							<title>Sheet.5111</title>
							<g id="shape5112-60">
								<title>Sheet.5112</title>
								<path d="M16.39 96.9 L0 119.36 L16.39 125.9 L16.39 96.9 Z" class="st12"/>
							</g>
						</g>
					</g>
				</g>
			</g>
		</g>
	</g>
</svg>
