<?xml version="1.0" encoding="UTF-8" standalone="no"?>
<!DOCTYPE svg PUBLIC "-//W3C//DTD SVG 1.1//EN" "http://www.w3.org/Graphics/SVG/1.1/DTD/svg11.dtd">
<!-- Generated by Microsoft Visio, SVG Export Identity Governance.svg Page-1 -->
<svg xmlns="http://www.w3.org/2000/svg" xmlns:xlink="http://www.w3.org/1999/xlink" xmlns:ev="http://www.w3.org/2001/xml-events"
		width="1.79417in" height="1.79394in" viewBox="0 0 129.18 129.164" xml:space="preserve" color-interpolation-filters="sRGB"
		class="st9">
	<style type="text/css">
	<![CDATA[
		.st1 {fill:#0078d4;stroke:none;stroke-linecap:butt;stroke-width:35.9798}
		.st2 {fill:#32bedd;stroke:none;stroke-linecap:butt;stroke-width:35.9798}
		.st3 {fill:#ffffff}
		.st4 {stroke:none;stroke-linecap:butt;stroke-width:35.9798}
		.st5 {fill:#ffffff;stroke:none;stroke-linecap:butt;stroke-width:35.9798}
		.st6 {fill:url(#grad0-24);stroke:none;stroke-linecap:butt;stroke-width:35.9798}
		.st7 {fill:#ffffff;fill-opacity:0.8;stroke:none;stroke-linecap:butt;stroke-width:35.9798}
		.st8 {fill:url(#grad0-30);stroke:none;stroke-linecap:butt;stroke-width:35.9798}
		.st9 {fill:none;fill-rule:evenodd;font-size:12px;overflow:visible;stroke-linecap:square;stroke-miterlimit:3}
	]]>
	</style>

	<defs id="Patterns_And_Gradients">
		<linearGradient id="grad0-24" x1="0" y1="0" x2="1" y2="0" gradientTransform="rotate(90 0.5 0.5)">
			<stop offset="0" stop-color="#a67af4" stop-opacity="1"/>
			<stop offset="1" stop-color="#552f99" stop-opacity="1"/>
		</linearGradient>
		<linearGradient id="grad0-30" x1="0" y1="0" x2="1" y2="0" gradientTransform="rotate(85.383652397436 0.5 0.5)">
			<stop offset="0" stop-color="#a67af4" stop-opacity="1"/>
			<stop offset="1" stop-color="#552f99" stop-opacity="1"/>
		</linearGradient>
	</defs>
	<g>
		<title>Page-1</title>
		<g id="group3903-1" transform="translate(36.2436,-36.2373)">
			<title>Identity Governance</title>
			<g id="shape3904-2">
				<title>path4</title>
				<path d="M5 110.13 A25.0117 24.892 0 0 1 8.41 85.71 A6.61073 6.5791 0 0 1 6.03 82.9 A28.8964 28.7581 -180 0 0 2.04
							 112.06 A10.5635 10.513 0 0 1 5 110.13 ZM17.92 74.15 A10.6998 10.6486 0 0 1 20.03 77.2 A25.5569 25.4346
							 0 0 1 28.35 75.74 A24.9776 24.8581 0 0 1 43.1 80.46 A7.32632 7.29126 0 0 1 44.98 78.12 L45.38 77.81
							 A28.7601 28.6225 -180 0 0 17.92 74.15 ZM51.69 91.51 A24.9436 24.8242 0 0 1 48.28 115.9 A6.81518 6.78257
							 0 0 1 49.75 117.25 A6.61073 6.5791 0 0 1 50.67 118.71 A28.8964 28.7581 -180 0 0 54.65 89.54 A10.6658
							 10.6147 0 0 1 51.69 91.51 ZM36.66 124.54 A24.705 24.5868 0 0 1 28.35 125.87 A24.9436 24.8242 0 0 1 13.59
							 121.15 A6.98556 6.95214 0 0 1 11.72 123.49 L11.31 123.8 A28.8964 28.7581 -180 0 0 38.88 127.49 A10.6658
							 10.6147 0 0 1 36.66 124.54 L36.66 124.54 Z" class="st1"/>
			</g>
			<g id="shape3905-4" transform="translate(5.10668,-40.5161)">
				<title>path6</title>
				<path d="M10.22 117.14 A7.12187 7.08779 0 1 1 -0 117.14 A7.12187 7.08779 0 0 1 10.22 117.14 Z" class="st2"/>
			</g>
			<g id="shape3906-6" transform="translate(6.84029,-44.0408)">
				<title>path8</title>
				<path d="M5.9 128.13 A3.40759 3.39129 -180 0 0 5.9 123.21 A3.40759 3.39129 -180 0 0 1.06 123.21 A3.40759 3.39129
							 -180 0 0 1.06 128.13 A3.40759 3.39129 -180 0 0 5.97 128.13 L5.9 128.13 Z" class="st3"/>
				<path d="M5.9 128.13 A3.40759 3.39129 -180 0 0 5.9 123.21 A3.40759 3.39129 -180 0 0 1.06 123.21 A3.40759 3.39129
							 -180 0 0 1.06 128.13 A3.40759 3.39129 -180 0 0 5.97 128.13" class="st4"/>
			</g>
			<g id="shape3907-9" transform="translate(40.5139,-42.3656)">
				<title>path10</title>
				<path d="M2.08 118.99 A7.12187 7.08779 0 1 1 2.08 129.16 A7.12187 7.08779 0 0 1 2.08 119.16 L2.08 118.99 Z"
						class="st2"/>
			</g>
			<g id="shape3908-11" transform="translate(44.3323,-45.0787)">
				<title>path12</title>
				<path d="M5.75 124.25 A3.40759 3.39129 -180 1 0 5.75 129.16 A3.40759 3.39129 -180 0 0 5.75 124.25 Z" class="st5"/>
			</g>
			<g id="shape3909-13" transform="translate(41.3635,-2.02754)">
				<title>path14</title>
				<path d="M0 127.01 A7.12187 7.08779 0 1 1 10.22 127.01 A7.12187 7.08779 0 0 1 0 127.01 Z" class="st2"/>
			</g>
			<g id="shape3910-15" transform="translate(42.8926,-5.6854)">
				<title>path16</title>
				<path d="M1.06 123.21 A3.40759 3.39129 -180 0 0 1.06 128.13 A3.40759 3.39129 -180 0 0 5.97 128.13 A3.40759 3.39129
							 -180 0 0 5.97 123.21 A3.40759 3.39129 -180 0 0 1.06 123.21 Z" class="st5"/>
			</g>
			<g id="shape3911-17" transform="translate(1.93523,-4.17976)">
				<title>path18</title>
				<path d="M12.17 129.16 A7.12187 7.08779 0 1 1 12.17 119.16 A7.12187 7.08779 0 0 1 12.17 129.16 Z" class="st2"/>
			</g>
			<g id="shape3912-19" transform="translate(5.54541,-6.72322)">
				<title>path20</title>
				<path d="M1.06 129.16 A3.40759 3.39129 -180 1 0 1.06 124.25 A3.40759 3.39129 -180 0 0 1.06 129.16 Z" class="st5"/>
			</g>
			<g id="shape3913-21" transform="translate(13.8301,-15.0658)">
				<title>path22</title>
				<path d="M26.48 129.16 A2.58977 2.57738 -180 0 0 29.07 126.59 L29.07 126.28 C28.15 118.21 23.41 111.6 14.52 111.6
							 C5.62 111.6 0.89 117.19 0 126.31 A2.58977 2.57738 -180 0 0 2.32 129.16 L26.48 129.16 Z" class="st6"/>
			</g>
			<g id="shape3914-25" transform="translate(23.9166,-20.6275)">
				<title>path24</title>
				<path d="M4.43 119.09 A8.2123 8.173 0 0 1 0 117.8 L4.43 129.16 L8.76 118.04 A8.07599 8.03735 0 0 1 4.43 119.09 Z"
						class="st7"/>
			</g>
			<g id="shape3915-27" transform="translate(20.2364,-30.6996)">
				<title>circle26</title>
				<ellipse cx="8.14414" cy="121.058" rx="8.14414" ry="8.10517" class="st8"/>
			</g>
		</g>
	</g>
</svg>
