<?xml version="1.0" encoding="UTF-8" standalone="no"?>
<!DOCTYPE svg PUBLIC "-//W3C//DTD SVG 1.1//EN" "http://www.w3.org/Graphics/SVG/1.1/DTD/svg11.dtd">
<!-- Generated by Microsoft Visio, SVG Export Integration Runtime.svg Page-1 -->
<svg xmlns="http://www.w3.org/2000/svg" xmlns:xlink="http://www.w3.org/1999/xlink" xmlns:ev="http://www.w3.org/2001/xml-events"
		width="0.944882in" height="1.33858in" viewBox="0 0 68.0315 96.378" xml:space="preserve" color-interpolation-filters="sRGB"
		class="st13">
	<style type="text/css">
	<![CDATA[
		.st1 {fill:none;stroke:none;stroke-linecap:butt;stroke-width:0.48}
		.st2 {fill:url(#grad0-7);stroke:none;stroke-linecap:butt;stroke-width:0.48}
		.st3 {fill:#003067;stroke:none;stroke-linecap:butt;stroke-width:0.48}
		.st4 {fill:#50e6ff;stroke:none;stroke-linecap:butt;stroke-width:0.48}
		.st5 {fill:url(#grad0-19);stroke:none;stroke-linecap:butt;stroke-width:0.48}
		.st6 {fill:url(#grad0-23);stroke:none;stroke-linecap:butt;stroke-width:0.48}
		.st7 {fill:#ffffff;stroke:none;stroke-linecap:butt;stroke-width:0.48}
		.st8 {fill:#ffffff}
		.st9 {stroke:none;stroke-linecap:butt;stroke-width:0.48}
		.st10 {fill:#212121;stroke:none;stroke-linecap:butt;stroke-width:0.48}
		.st11 {fill:#76bc2d;stroke:none;stroke-linecap:butt;stroke-width:0.48}
		.st12 {fill:#76bc2d}
		.st13 {fill:none;fill-rule:evenodd;font-size:12px;overflow:visible;stroke-linecap:square;stroke-miterlimit:3}
	]]>
	</style>

	<defs id="Patterns_And_Gradients">
		<linearGradient id="grad0-7" x1="0" y1="0" x2="1" y2="0" gradientTransform="rotate(-90 0.5 0.5)">
			<stop offset="0" stop-color="#949494" stop-opacity="1"/>
			<stop offset="0.53" stop-color="#a2a2a2" stop-opacity="1"/>
			<stop offset="1" stop-color="#b3b3b3" stop-opacity="1"/>
		</linearGradient>
		<linearGradient id="grad0-19" x1="0" y1="0" x2="1" y2="0" gradientTransform="rotate(-90 0.5 0.5)">
			<stop offset="0" stop-color="#0078d4" stop-opacity="1"/>
			<stop offset="0.16" stop-color="#1380da" stop-opacity="1"/>
			<stop offset="0.53" stop-color="#3c91e5" stop-opacity="1"/>
			<stop offset="0.82" stop-color="#559cec" stop-opacity="1"/>
			<stop offset="1" stop-color="#5ea0ef" stop-opacity="1"/>
		</linearGradient>
		<linearGradient id="grad0-23" x1="0" y1="0" x2="1" y2="0" gradientTransform="rotate(-90 0.5 0.5)">
			<stop offset="0" stop-color="#5e9624" stop-opacity="1"/>
			<stop offset="0.255" stop-color="#619c25" stop-opacity="1"/>
			<stop offset="0.51" stop-color="#76bc2d" stop-opacity="1"/>
			<stop offset="0.91" stop-color="#86d633" stop-opacity="1"/>
			<stop offset="1" stop-color="#86d633" stop-opacity="1"/>
		</linearGradient>
	</defs>
	<g>
		<title>Page-1</title>
		<g id="group3839-1" transform="translate(5.66929,-34.0157)">
			<title>Integration Runtime</title>
			<g id="shape3840-2">
				<title>Sheet.3840</title>
				<rect x="0" y="39.685" width="56.6929" height="56.6929" class="st1"/>
			</g>
			<g id="shape3841-4" transform="translate(23.9443,-0.933732)">
				<title>Sheet.3841</title>
				<path d="M0 42.52 A1.90091 1.90091 0 0 1 1.9 40.62 L30.91 40.62 A1.86633 1.86633 0 0 1 32.75 42.52 L32.75 94.48 A1.90091
							 1.90091 0 0 1 30.85 96.38 L1.9 96.38 A1.9338 1.9338 0 0 1 0 94.48 L0 42.52 Z" class="st2"/>
			</g>
			<g id="shape3842-8" transform="translate(28.3465,-33.582)">
				<title>Sheet.3842</title>
				<path d="M20.01 96.38 L3.67 96.38 C3.63 96.38 3.6 96.38 3.57 96.38 A3.56769 3.56769 0 0 1 -0 92.81 C0 92.79 0 92.76
							 0 92.74 A3.56825 3.56825 0 0 1 3.67 89.27 L20.01 89.27 A3.55181 3.55181 0 0 1 20.01 96.38 Z"
						class="st3"/>
			</g>
			<g id="shape3843-10" transform="translate(28.3465,-44.1536)">
				<title>Sheet.3843</title>
				<path d="M20.01 96.38 L3.67 96.38 L3.6 96.38 A3.56825 3.56825 0 0 1 0 92.84 C0 92.81 0 92.78 0 92.74 A3.56825 3.56825
							 0 0 1 3.67 89.27 L20.01 89.27 A3.55181 3.55181 0 0 1 20.01 96.38 Z" class="st3"/>
			</g>
			<g id="shape3844-12" transform="translate(45.7546,-45.2874)">
				<title>Sheet.3844</title>
				<ellipse cx="2.40094" cy="93.977" rx="2.40094" ry="2.40094" class="st4"/>
			</g>
			<g id="shape3845-14" transform="translate(45.7546,-34.7494)">
				<title>Sheet.3845</title>
				<ellipse cx="2.40094" cy="93.977" rx="2.40094" ry="2.40094" class="st4"/>
			</g>
			<g id="shape3846-16" transform="translate(0,-0.733606)">
				<title>Sheet.3846</title>
				<path d="M11.11 96.38 L35.75 96.38 A13.5394 13.5394 -180 0 0 49.76 83.37 A13.3393 13.3393 -180 0 0 38.02 70.53 A14.4062
							 14.4062 -180 0 0 24.21 61.26 A14.0723 14.0723 -180 0 0 9.7 74.6 A11.2054 11.2054 -180 0 0 0 85.34 A11.3051
							 11.3051 -180 0 0 11.11 96.38 Z" class="st5"/>
			</g>
			<g id="shape3847-20" transform="translate(35.1496,-0.993827)">
				<title>Sheet.3847</title>
				<ellipse cx="10.7717" cy="85.6063" rx="10.7717" ry="10.7717" class="st6"/>
			</g>
			<g id="shape3848-24" transform="translate(37.7274,-11.0081)">
				<title>Sheet.3848</title>
				<rect x="0" y="94.8631" width="2.03924" height="1.51483" class="st7"/>
			</g>
			<g id="shape3849-26" transform="translate(52.0764,-11.0081)">
				<title>Sheet.3849</title>
				<rect x="0" y="94.8631" width="2.03924" height="1.51483" class="st7"/>
			</g>
			<g id="shape3850-28" transform="translate(39.7474,-7.14728)">
				<title>Sheet.3850</title>
				<path d="M6.69 96.33 L6.69 93.12 L3.4 93.12 L3.4 87.19 L1.52 87.2 A1.53071 1.53071 -180 0 0 0 88.74 L0.04 94.86 A1.53071
							 1.53071 -180 0 0 1.57 96.38 L1.58 96.38 L6.69 96.33 Z" class="st8"/>
				<path d="M6.69 96.33 L6.69 93.12 L3.4 93.12 L3.4 87.19 L1.52 87.2 A1.53071 1.53071 -180 0 0 0 88.74 L0.04 94.86 A1.53071
							 1.53071 -180 0 0 1.57 96.38 L1.58 96.38" class="st9"/>
			</g>
			<g id="shape3851-31" transform="translate(45.504,-7.1932)">
				<title>Sheet.3851</title>
				<path d="M0 87.23 L0 90.8 L3.3 90.8 L3.3 96.38 L5.07 96.37 A1.53071 1.53071 -180 0 0 6.59 94.83 L6.55 88.71 A1.53071
							 1.53071 -180 0 0 5.02 87.19 L5.01 87.19 L0 87.23 Z" class="st8"/>
				<path d="M0 87.23 L0 90.8 L3.3 90.8 L3.3 96.38 L5.07 96.37 A1.53071 1.53071 -180 0 0 6.59 94.83 L6.55 88.71 A1.53071
							 1.53071 -180 0 0 5.02 87.19 L5.01 87.19" class="st9"/>
			</g>
			<g id="group3852-34" transform="translate(32.514,-1.71609)">
				<title>Sheet.3852</title>
				<g id="shape3853-35">
					<title>Sheet.3853</title>
					<ellipse cx="11.2059" cy="85.172" rx="11.2059" ry="11.2059" class="st7"/>
				</g>
				<g id="shape3854-37" transform="translate(1.70079,-2.07893)">
					<title>Sheet.3854</title>
					<path d="M9.51 77.75 A9.50513 9.50513 0 1 1 -0 87.25 A9.50457 9.50457 0 0 1 9.51 77.75 ZM9.51 74.34 A12.9067
								 12.9067 -180 1 0 22.41 87.25 A12.9209 12.9209 -180 0 0 9.51 74.34 Z" class="st10"/>
				</g>
			</g>
			<g id="group3855-39" transform="translate(35.6984,-8.2165)">
				<title>Sheet.3855</title>
				<g id="shape3856-40" transform="translate(1.64868E-14,-3.87269)">
					<title>Sheet.3856</title>
					<rect x="0" y="94.8586" width="2.04491" height="1.51937" class="st11"/>
				</g>
				<g id="shape3857-42" transform="translate(14.3887,-3.87269)">
					<title>Sheet.3857</title>
					<rect x="0" y="94.8586" width="2.04491" height="1.51937" class="st11"/>
				</g>
				<g id="shape3858-44" transform="translate(2.0245,5.68434E-14)">
					<title>Sheet.3858</title>
					<path d="M6.71 96.33 L6.71 93.11 L3.4 93.11 L3.4 87.16 L1.52 87.18 A1.53071 1.53071 -180 0 0 0 88.72 L0.04 94.85
								 A1.53468 1.53468 -180 0 0 1.57 96.38 L1.58 96.38 L6.71 96.33 Z" class="st12"/>
					<path d="M6.71 96.33 L6.71 93.11 L3.4 93.11 L3.4 87.16 L1.52 87.18 A1.53071 1.53071 -180 0 0 0 88.72 L0.04 94.85
								 A1.53468 1.53468 -180 0 0 1.57 96.38 L1.58 96.38" class="st9"/>
				</g>
				<g id="shape3859-47" transform="translate(7.79868,-0.0493228)">
					<title>Sheet.3859</title>
					<path d="M0 87.21 L0 90.79 L3.31 90.79 L3.31 96.38 L5.09 96.37 A1.53071 1.53071 -180 0 0 6.61 94.82 L6.57 88.69
								 A1.53524 1.53524 -180 0 0 5.04 87.17 L5.03 87.17 L0 87.21 Z" class="st12"/>
					<path d="M0 87.21 L0 90.79 L3.31 90.79 L3.31 96.38 L5.09 96.37 A1.53071 1.53071 -180 0 0 6.61 94.82 L6.57 88.69
								 A1.53524 1.53524 -180 0 0 5.04 87.17 L5.03 87.17" class="st9"/>
				</g>
			</g>
		</g>
	</g>
</svg>
