<?xml version="1.0" encoding="UTF-8" standalone="no"?>
<!DOCTYPE svg PUBLIC "-//W3C//DTD SVG 1.1//EN" "http://www.w3.org/Graphics/SVG/1.1/DTD/svg11.dtd">
<!-- Generated by Microsoft Visio, SVG Export Security Center.svg Page-1 -->
<svg xmlns="http://www.w3.org/2000/svg" xmlns:xlink="http://www.w3.org/1999/xlink" xmlns:ev="http://www.w3.org/2001/xml-events"
		width="0.930551in" height="1.42984in" viewBox="0 0 66.9997 102.949" xml:space="preserve" color-interpolation-filters="sRGB"
		class="st4">
	<style type="text/css">
	<![CDATA[
		.st1 {fill:#57a300;stroke:none;stroke-linecap:butt;stroke-width:12.24}
		.st2 {fill:#b8d432;fill-opacity:0.4;stroke:none;stroke-linecap:butt;stroke-width:12.24}
		.st3 {fill:#ffffff;stroke:none;stroke-linecap:butt;stroke-width:12.24}
		.st4 {fill:none;fill-rule:evenodd;font-size:12px;overflow:visible;stroke-linecap:square;stroke-miterlimit:3}
	]]>
	</style>

	<g>
		<title>Page-1</title>
		<g id="group1690-1" transform="translate(12.24,-34.0157)">
			<title>Security Center</title>
			<g id="group1691-2">
				<title>Sheet.1691</title>
				<g id="shape1692-3">
					<title>Sheet.1692</title>
					<path d="M36.18 53.01 C23.4 51.64 21.26 46.26 21.26 46.26 C21.26 46.26 18.38 53.33 0 53.33 L0 82.37 C0 85.88
								 2 89.17 4.76 92.05 C11.03 98.56 21.26 102.95 21.26 102.95 C21.26 102.95 42.52 93.85 42.52 82.37
								 L42.52 53.33 C40.16 53.33 38.05 53.22 36.18 53.01 Z" class="st1"/>
				</g>
				<g id="shape1693-5" transform="translate(2.15827E-13,-10.903)">
					<title>Sheet.1693</title>
					<path d="M26.52 75.92 L36.18 63.92 C23.4 62.54 21.26 57.16 21.26 57.16 C21.26 57.16 18.38 64.24 0 64.24 L0 93.27
								 C0 96.79 2 100.07 4.76 102.95 L11.9 94.08 L26.52 75.92 Z" class="st2"/>
				</g>
				<g id="shape1694-7" transform="translate(11.8996,-16.4939)">
					<title>Sheet.1694</title>
					<path d="M17.79 90.48 L16.55 90.48 L16.55 86.46 A7.76871 7.5933 -180 0 0 14.62 81.41 C14.57 81.36 14.53 81.31
								 14.49 81.26 C13.2 79.91 11.38 79.05 9.36 79.05 C7.35 79.05 5.52 79.91 4.23 81.26 A7.76871 7.5933
								 -180 0 0 2.16 86.45 L2.16 90.48 L0.93 90.48 a0.928023 0.907068 -180 0 0 -0.929183 0.908202 L0 102.04
								 C0 102.54 0.42 102.95 0.93 102.95 L17.79 102.95 a0.929183 0.908202 -180 0 0 0.929183 -0.908202 L18.72
								 91.39 a0.929183 0.908202 -180 0 0 -0.929183 -0.909336 ZM13.14 90.48 L7.32 90.48 L7.32 90.48 L5.58
								 90.48 L5.58 86.46 C5.58 85.3 6.03 84.27 6.73 83.54 C7.43 82.81 8.35 82.39 9.36 82.39 C10.37 82.39
								 11.29 82.81 11.99 83.54 C12.16 83.72 12.31 83.91 12.44 84.11 L12.44 84.11 C12.88 84.77 13.14 85.57
								 13.14 86.45 L13.14 90.48 Z" class="st3"/>
				</g>
			</g>
		</g>
	</g>
</svg>
