<?xml version="1.0" encoding="UTF-8" standalone="no"?>
<!DOCTYPE svg PUBLIC "-//W3C//DTD SVG 1.1//EN" "http://www.w3.org/Graphics/SVG/1.1/DTD/svg11.dtd">
<!-- Generated by Microsoft Visio, SVG Export SQL Server Recommendation.svg Page-1 -->
<svg xmlns="http://www.w3.org/2000/svg" xmlns:xlink="http://www.w3.org/1999/xlink" xmlns:ev="http://www.w3.org/2001/xml-events"
		width="0.944882in" height="1.29528in" viewBox="0 0 68.0315 93.2598" xml:space="preserve" color-interpolation-filters="sRGB"
		class="st6">
	<style type="text/css">
	<![CDATA[
		.st1 {fill:#b3ecfc;stroke:none;stroke-linecap:butt;stroke-width:0.0190405}
		.st2 {fill:#00bcf2;stroke:none;stroke-linecap:butt;stroke-width:0.0190405}
		.st3 {fill:#66d7f7;stroke:none;stroke-linecap:butt;stroke-width:0.0190405}
		.st4 {fill:#fcf37e;stroke:none;stroke-linecap:butt;stroke-width:0.0190405}
		.st5 {fill:#bfb500;stroke:none;stroke-linecap:butt;stroke-width:0.0190405}
		.st6 {fill:none;fill-rule:evenodd;font-size:12px;overflow:visible;stroke-linecap:square;stroke-miterlimit:3}
	]]>
	</style>

	<g>
		<title>Page-1</title>
		<g id="group1072-1" transform="translate(5.66929,-34.0157)">
			<title>SQL Server Recommendation</title>
			<g id="group1073-2">
				<title>Sheet.1073</title>
				<g id="shape1074-3" transform="translate(0,-3.84805)">
					<title>Sheet.1074</title>
					<path d="M49.13 50.94 L22.68 50.94 L17.11 43.25 L0 43.25 L0 93.26 L52.91 93.26 L52.91 54.79 L49.13 54.79 L49.13
								 50.94 Z" class="st1"/>
				</g>
				<g id="shape1075-5" transform="translate(3.77635,-3.84805)">
					<title>Sheet.1075</title>
					<rect x="0" y="54.7866" width="49.1349" height="38.4733" class="st2"/>
				</g>
				<g id="shape1076-7" transform="translate(3.77635,-3.84805)">
					<title>Sheet.1076</title>
					<path d="M0 93.26 L34.02 54.79 L0 54.79 L0 93.26 Z" class="st3"/>
				</g>
				<g id="shape1077-9" transform="translate(26.4556,0)">
					<title>Sheet.1077</title>
					<rect x="0" y="54.783" width="30.2373" height="38.4769" class="st4"/>
				</g>
				<g id="shape1078-11" transform="translate(30.2355,-3.84805)">
					<title>Sheet.1078</title>
					<path d="M7.56 66.33 L22.68 66.33 L22.68 70.18 L7.56 70.18 L7.56 66.33 ZM0 66.33 L3.78 66.33 L3.78 70.18 L0 70.18
								 L0 66.33 ZM7.56 74.02 L22.68 74.02 L22.68 77.87 L7.56 77.87 L7.56 74.02 ZM0 74.02 L3.78 74.02 L3.78
								 77.87 L0 77.87 L0 74.02 ZM7.56 81.72 L22.68 81.72 L22.68 85.56 L7.56 85.56 L7.56 81.72 ZM0 81.72
								 L3.78 81.72 L3.78 85.56 L0 85.56 L0 81.72 ZM7.56 89.42 L22.68 89.42 L22.68 93.26 L7.56 93.26 L7.56
								 89.42 ZM0 89.42 L3.78 89.42 L3.78 93.26 L0 93.26 L0 89.42 Z" class="st5"/>
				</g>
			</g>
		</g>
	</g>
</svg>
