<?xml version="1.0" encoding="UTF-8" standalone="no"?>
<!DOCTYPE svg PUBLIC "-//W3C//DTD SVG 1.1//EN" "http://www.w3.org/Graphics/SVG/1.1/DTD/svg11.dtd">
<!-- Generated by Microsoft Visio, SVG Export Traffic Manager profile.svg Page-1 -->
<svg xmlns="http://www.w3.org/2000/svg" xmlns:xlink="http://www.w3.org/1999/xlink" xmlns:ev="http://www.w3.org/2001/xml-events"
		width="1.73185in" height="1.73206in" viewBox="0 0 124.693 124.709" xml:space="preserve" color-interpolation-filters="sRGB"
		class="st3">
	<style type="text/css">
	<![CDATA[
		.st1 {fill:url(#grad0-6);stroke:none;stroke-linecap:butt;stroke-width:34}
		.st2 {fill:#f2f2f2;stroke:none;stroke-linecap:butt;stroke-width:34}
		.st3 {fill:none;fill-rule:evenodd;font-size:12px;overflow:visible;stroke-linecap:square;stroke-miterlimit:3}
	]]>
	</style>

	<defs id="Patterns_And_Gradients">
		<linearGradient id="grad0-6" x1="0" y1="0" x2="1" y2="0" gradientTransform="rotate(-90 0.5 0.5)">
			<stop offset="0.16" stop-color="#6f4bb2" stop-opacity="1"/>
			<stop offset="0.32" stop-color="#7450b5" stop-opacity="1"/>
			<stop offset="0.51" stop-color="#825dbf" stop-opacity="1"/>
			<stop offset="0.72" stop-color="#9a72ce" stop-opacity="1"/>
			<stop offset="0.94" stop-color="#bb90e4" stop-opacity="1"/>
			<stop offset="1" stop-color="#c69aeb" stop-opacity="1"/>
		</linearGradient>
	</defs>
	<g>
		<title>Page-1</title>
		<g id="group636-1" transform="translate(34,-34.0157)">
			<title>Traffic Manager profile</title>
			<g id="group637-2">
				<title>Sheet.637</title>
				<g id="shape638-3">
					<title>Sheet.638</title>
					<path d="M39.32 68.02 L17.37 68.02 A1.86753 1.86753 -180 0 0 16.04 68.58 L0.57 84.06 A1.86753 1.86753 -180 0
								 0 0 85.39 L0 107.33 A1.86753 1.86753 -180 0 0 0.57 108.67 L16.04 124.14 A1.86753 1.86753 -180 0
								 0 17.37 124.71 L39.32 124.71 A1.86753 1.86753 -180 0 0 40.65 124.14 L56.13 108.67 A1.86753 1.86753
								 -180 0 0 56.69 107.33 L56.69 85.39 A1.86753 1.86753 -180 0 0 56.13 84.06 L40.65 68.58 A1.86753 1.86753
								 -180 0 0 39.32 68.02 Z" class="st1"/>
				</g>
				<g id="shape639-7" transform="translate(9.77119,-28.5465)">
					<title>Sheet.639</title>
					<path d="M8.57 120.37 L8.34 120.61 L5 123.94 a0.466883 0.466883 -180 0 0 0.333488 0.767022 L18.01 124.71 a0.466883
								 0.466883 -180 0 0 0.466883 -0.466883 L18.48 111.74 a0.556535 0.556535 -180 0 0 -1.10051 -0.166744
								 L14.04 114.9 L13.81 115.14 a0.500232 0.500232 0 0 1 -0.666975 0 L4.57 106.7 L0 111.3 L8.57 119.71
								 a0.500232 0.500232 0 0 1 -5.32907E-15 0.666975 Z" class="st2"/>
				</g>
				<g id="shape640-9" transform="translate(4.13525,-4.13525)">
					<title>Sheet.640</title>
					<path d="M48.16 90.19 L34.52 76.55 a0.933766 0.933766 -180 0 0 -0.666975 -0.26679 L14.57 76.29 a0.933766 0.933766
								 -180 0 0 -0.666975 0.26679 L0.27 90.19 a0.933766 0.933766 -180 0 0 -0.26679 0.666975 L0 110.14 A1.00046
								 1.00046 -180 0 0 0.27 110.8 L13.91 124.44 a0.933766 0.933766 -180 0 0 0.666975 0.26679 L33.85 124.71
								 a0.933766 0.933766 -180 0 0 0.666975 -0.26679 L48.16 110.8 A1.00046 1.00046 -180 0 0 48.42 110.14
								 L48.42 90.86 a0.933766 0.933766 -180 0 0 -0.26679 -0.666975 ZM46.96 108.37 L36.45 97.86 L38.98 95.3
								 a0.53358 0.53358 -180 0 0 -4.26326E-14 -0.800371 a0.53358 0.53358 -180 0 0 -0.366836 -1.98952E-13
								 L29.58 94.26 a0.566929 0.566929 -180 0 0 -0.566929 0.53358 L29.25 103.83 a0.53358 0.53358 -180 0
								 0 0.566929 0.53358 a0.433534 0.433534 -180 0 0 0.400185 -2.27374E-13 L33.05 101.56 L44.22 112.57
								 L35.75 121.04 L24.21 109.53 L26.88 107.17 a0.53358 0.53358 -180 0 0 -6.75016E-14 -0.800371 a0.53358
								 0.53358 -180 0 0 -0.366836 -0.166744 L17.54 105.8 a0.566929 0.566929 -180 0 0 -0.566929 0.53358
								 L17.21 115.37 a0.53358 0.53358 -180 0 0 0.566929 0.53358 a0.566929 0.566929 -180 0 0 0.400185 -0.166744
								 L20.88 112.97 L31.15 123.24 L14.77 123.24 L1.43 109.9 L1.43 91.06 L5.64 86.89 L10.2 82.29 L14.77
								 77.72 L33.65 77.72 L46.99 91.06 L46.96 108.37 Z" class="st2"/>
				</g>
			</g>
		</g>
	</g>
</svg>
