<?xml version="1.0" encoding="UTF-8" standalone="no"?>
<!DOCTYPE svg PUBLIC "-//W3C//DTD SVG 1.1//EN" "http://www.w3.org/Graphics/SVG/1.1/DTD/svg11.dtd">
<!-- Generated by Microsoft Visio, SVG Export Log Analytics Solution.svg Page-1 -->
<svg xmlns="http://www.w3.org/2000/svg" xmlns:xlink="http://www.w3.org/1999/xlink" xmlns:ev="http://www.w3.org/2001/xml-events"
		width="1.73189in" height="1.81082in" viewBox="0 0 124.696 130.379" xml:space="preserve" color-interpolation-filters="sRGB"
		class="st6">
	<style type="text/css">
	<![CDATA[
		.st1 {fill:url(#grad0-6);stroke:none;stroke-linecap:butt;stroke-width:34}
		.st2 {fill:url(#grad0-10);stroke:none;stroke-linecap:butt;stroke-width:34}
		.st3 {fill:#ffffff;stroke:none;stroke-linecap:butt;stroke-width:34}
		.st4 {visibility:visible}
		.st5 {fill:#000000;font-family:Calibri;font-size:0.666664em}
		.st6 {fill:none;fill-rule:evenodd;font-size:12px;overflow:visible;stroke-linecap:square;stroke-miterlimit:3}
	]]>
	</style>

	<defs id="Patterns_And_Gradients">
		<linearGradient id="grad0-6" x1="0" y1="0" x2="1" y2="0" gradientTransform="rotate(90 0.5 0.5)">
			<stop offset="0" stop-color="#5ea0ef" stop-opacity="1"/>
			<stop offset="0.18" stop-color="#589eed" stop-opacity="1"/>
			<stop offset="0.41" stop-color="#4897e9" stop-opacity="1"/>
			<stop offset="0.66" stop-color="#2e8ce1" stop-opacity="1"/>
			<stop offset="0.94" stop-color="#0a7cd7" stop-opacity="1"/>
			<stop offset="1" stop-color="#0078d4" stop-opacity="1"/>
		</linearGradient>
		<linearGradient id="grad0-10" x1="0" y1="0" x2="1" y2="0" gradientTransform="rotate(-90 0.5 0.5)">
			<stop offset="0" stop-color="#198ab3" stop-opacity="1"/>
			<stop offset="0.24" stop-color="#22a5cb" stop-opacity="1"/>
			<stop offset="0.53" stop-color="#2bbfe2" stop-opacity="1"/>
			<stop offset="0.79" stop-color="#30cff0" stop-opacity="1"/>
			<stop offset="1" stop-color="#32d4f5" stop-opacity="1"/>
		</linearGradient>
	</defs>
	<g>
		<title>Page-1</title>
		<g id="group7850-1" transform="translate(34,-39.685)">
			<title>Log Analytics Solution.7850</title>
			<desc>Log Analytics Solution</desc>
			<g id="group7851-2">
				<title>Icon-manage-321</title>
				<g id="shape7852-3">
					<title>Sheet.7852</title>
					<path d="M16.91 115.76 L31.4 115.76 L31.4 128.71 A1.67731 1.67236 0 0 1 29.72 130.38 L16.91 130.38 L16.91 115.76
								 ZM2.01 130.21 L14.49 130.21 L14.49 115.76 L0 115.76 L0 128.2 A2.01277 2.00683 -180 0 0 2.01 130.21
								 ZM0 113.49 L14.49 113.49 L14.49 98.91 L1.68 98.91 A1.67731 1.67236 -180 0 0 -0 100.58 L0 113.49
								 Z" class="st1"/>
				</g>
				<g id="shape7853-7" transform="translate(16.7731,-16.7236)">
					<title>Sheet.7853</title>
					<path d="M19.96 90.41 A19.7587 19.7004 0 0 1 39.92 110.48 A19.7587 19.7004 0 0 1 19.96 130.38 L0 130.38 L0 110.31
								 A19.7587 19.7004 0 0 1 19.96 90.41 Z" class="st2"/>
				</g>
				<g id="shape7854-11" transform="translate(20.8418,-24.9947)">
					<title>Sheet.7854</title>
					<path d="M28.17 107.68 A3.35461 3.34471 -180 0 0 24.81 111.02 A3.35461 3.34471 -180 0 0 25.55 113.1 L19.95 123.1
								 L19.51 123.1 A3.35461 3.34471 -180 0 0 17.74 123.63 L13.41 119.22 A3.35461 3.34471 -180 0 0 13.68
								 117.91 A3.43848 3.42833 -180 0 0 6.8 117.91 A3.35461 3.34471 -180 0 0 7.24 119.52 L3.31 124.67 A4.22681
								 4.21434 -180 0 0 2.37 124.67 A3.35461 3.34471 -180 1 0 5.73 128.01 A3.35461 3.34471 -180 0 0 5.29
								 126.44 L9.42 121.26 A3.35461 3.34471 -180 0 0 10.26 121.26 A3.52234 3.51195 -180 0 0 11.46 120.99
								 L16.19 125.94 A3.69007 3.67919 -180 0 0 16.19 126.54 A3.35461 3.34471 -180 0 0 22.9 126.54 A3.69007
								 3.67919 -180 0 0 22.23 124.54 L27.83 114.5 L28.17 114.5 A3.35461 3.34471 -180 0 0 31.52 111.16 A3.35461
								 3.34471 -180 0 0 28.17 107.68 Z" class="st3"/>
				</g>
			</g>
			<g id="shape7850-13">
				<g id="shadow7850-14" transform="matrix(1,0,0,1,1.41732,1.41732)" class="st4"/>
				<text x="-7.15" y="146.08" class="st5">Log Analytics Solution</text>			</g>
		</g>
	</g>
</svg>
