<?xml version="1.0" encoding="UTF-8" standalone="no"?>
<!DOCTYPE svg PUBLIC "-//W3C//DTD SVG 1.1//EN" "http://www.w3.org/Graphics/SVG/1.1/DTD/svg11.dtd">
<!-- Generated by Microsoft Visio, SVG Export Metric.svg Page-1 -->
<svg xmlns="http://www.w3.org/2000/svg" xmlns:xlink="http://www.w3.org/1999/xlink" xmlns:ev="http://www.w3.org/2001/xml-events"
		width="1.67009in" height="1.81081in" viewBox="0 0 120.246 130.378" xml:space="preserve" color-interpolation-filters="sRGB"
		class="st8">
	<style type="text/css">
	<![CDATA[
		.st1 {fill:#b796f9;stroke:none;stroke-linecap:butt;stroke-width:34}
		.st2 {fill:url(#grad0-8);stroke:none;stroke-linecap:butt;stroke-width:34}
		.st3 {fill:#0078d4;stroke:none;stroke-linecap:butt;stroke-width:34}
		.st4 {fill:#005ba1;stroke:none;stroke-linecap:butt;stroke-width:34}
		.st5 {fill:#5ea0ef;stroke:none;stroke-linecap:butt;stroke-width:34}
		.st6 {visibility:visible}
		.st7 {fill:#000000;font-family:Calibri;font-size:0.666664em}
		.st8 {fill:none;fill-rule:evenodd;font-size:12px;overflow:visible;stroke-linecap:square;stroke-miterlimit:3}
	]]>
	</style>

	<defs id="Patterns_And_Gradients">
		<linearGradient id="grad0-8" x1="0" y1="0" x2="1" y2="0" gradientTransform="rotate(74.192852890083 0.5 0.5)">
			<stop offset="0" stop-color="#b77af4" stop-opacity="1"/>
			<stop offset="0.405" stop-color="#9659e8" stop-opacity="1"/>
			<stop offset="0.765" stop-color="#7f42df" stop-opacity="1"/>
			<stop offset="0.995" stop-color="#773adc" stop-opacity="1"/>
		</linearGradient>
	</defs>
	<g>
		<title>Page-1</title>
		<g id="group7625-1" transform="translate(35.2224,-39.685)">
			<title>Metric.7625</title>
			<desc>Metric</desc>
			<g id="group7626-2">
				<title>g14</title>
				<g id="shape7627-3" transform="translate(2.02982,-22.0869)">
					<title>path2</title>
					<path d="M42.07 99.51 L28.72 123.19 L14.59 108.85 L0 127.64 L3.45 130.32 L14.98 115.46 L29.67 130.38 L45.88 101.66
								 L42.07 99.51 Z" class="st1"/>
				</g>
				<g id="shape7628-5" transform="translate(0.42223,-20.3838)">
					<title>path4</title>
					<path d="M21.86 110.38 A5.4899 5.46586 0 1 1 16.31 104.95 A5.49995 5.47587 0 0 1 21.86 110.38 ZM31.22 118.61
								 A5.51335 5.48921 -180 1 0 36.76 124.04 A5.49995 5.47587 -180 0 0 31.22 118.61 ZM45.05 94.07 A5.51335
								 5.48921 -180 1 0 50.6 99.5 A5.5033 5.4792 -180 0 0 45.05 94.07 ZM3.84 120.98 A5.51335 5.48921 -180
								 1 0 9.38 126.42 A5.50665 5.48254 -180 0 0 3.84 120.98 Z" class="st2"/>
				</g>
				<g id="shape7629-9" transform="translate(13.77,0)">
					<title>rect6</title>
					<path d="M0 129.43 a0.947943 0.943792 -180 0 0 0.947921 0.94377 L7.68 130.38 a0.947943 0.943792 -180 0 0 0.947921
								 -0.94377 L8.63 106.04 a0.947943 0.943792 -180 0 0 -0.947921 -0.94377 L0.95 105.09 a0.947943 0.943792
								 -180 0 0 -0.947921 0.94377 L0 129.43 Z" class="st3"/>
				</g>
				<g id="shape7630-11" transform="translate(27.5366,2.84217E-13)">
					<title>rect8</title>
					<path d="M0 129.43 a0.947943 0.943792 -180 0 0 0.947921 0.94377 L7.68 130.38 a0.947943 0.943792 -180 0 0 0.947921
								 -0.94377 L8.63 114.79 a0.947943 0.943792 -180 0 0 -0.947921 -0.94377 L0.95 113.84 a0.947943 0.943792
								 -180 0 0 -0.947921 0.94377 L0 129.43 Z" class="st4"/>
				</g>
				<g id="shape7631-13" transform="translate(41.3066,2.84217E-13)">
					<title>rect10</title>
					<path d="M0 129.43 a0.947943 0.943792 -180 0 0 0.947921 0.94377 L7.68 130.38 a0.947943 0.943792 -180 0 0 0.947921
								 -0.94377 L8.63 97.58 a0.947943 0.943792 -180 0 0 -0.947921 -0.94377 L0.95 96.63 a0.947943 0.943792
								 -180 0 0 -0.947921 0.94377 L0 129.43 Z" class="st4"/>
				</g>
				<g id="shape7632-15">
					<title>rect12</title>
					<path d="M0 129.43 a0.947943 0.943792 -180 0 0 0.947921 0.94377 L7.68 130.38 a0.947943 0.943792 -180 0 0 0.947921
								 -0.94377 L8.63 114.79 a0.947943 0.943792 -180 0 0 -0.947921 -0.94377 L0.95 113.84 a0.947943 0.943792
								 -180 0 0 -0.947921 0.94377 L0 129.43 Z" class="st5"/>
				</g>
			</g>
			<g id="shape7625-17">
				<g id="shadow7625-18" transform="matrix(1,0,0,1,1.41732,1.41732)" class="st6"/>
				<text x="14.76" y="146.08" class="st7">Metric</text>			</g>
		</g>
	</g>
</svg>
