<?xml version="1.0" encoding="UTF-8" standalone="no"?>
<!DOCTYPE svg PUBLIC "-//W3C//DTD SVG 1.1//EN" "http://www.w3.org/Graphics/SVG/1.1/DTD/svg11.dtd">
<!-- Generated by Microsoft Visio, SVG Export Performance Diagnostics.svg Page-1 -->
<svg xmlns="http://www.w3.org/2000/svg" xmlns:xlink="http://www.w3.org/1999/xlink" xmlns:ev="http://www.w3.org/2001/xml-events"
		width="1.34558in" height="1.50858in" viewBox="0 0 96.8819 108.618" xml:space="preserve" color-interpolation-filters="sRGB"
		class="st15">
	<style type="text/css">
	<![CDATA[
		.st1 {fill:#7a7a7a;stroke:none;stroke-linecap:butt;stroke-width:12.24}
		.st2 {fill:#a0a1a2;stroke:none;stroke-linecap:butt;stroke-width:12.24}
		.st3 {fill:#ffffff;fill-opacity:0.2;stroke:none;stroke-linecap:butt;stroke-width:12.24}
		.st4 {fill:#59b4d9;stroke:none;stroke-linecap:butt;stroke-width:12.24}
		.st5 {fill:#b8d432;stroke:none;stroke-linecap:butt;stroke-width:12.24}
		.st6 {fill:#ffffff;stroke:none;stroke-linecap:butt;stroke-width:12.24}
		.st7 {fill:#ffffff;fill-opacity:0.7;stroke:none;stroke-linecap:butt;stroke-width:12.24}
		.st8 {fill:#ffffff;fill-opacity:0.4;stroke:none;stroke-linecap:butt;stroke-width:12.24}
		.st9 {fill:#000000;stroke:none;stroke-linecap:butt;stroke-width:12.24}
		.st10 {fill:#000000;fill-opacity:0.4;stroke:none;stroke-linecap:butt;stroke-width:12.24}
		.st11 {fill:#000000;fill-opacity:0.2;stroke:none;stroke-linecap:butt;stroke-width:12.24}
		.st12 {fill:#57a300;stroke:none;stroke-linecap:butt;stroke-width:12.24}
		.st13 {visibility:visible}
		.st14 {fill:#000000;font-family:Calibri;font-size:0.666664em}
		.st15 {fill:none;fill-rule:evenodd;font-size:12px;overflow:visible;stroke-linecap:square;stroke-miterlimit:3}
	]]>
	</style>

	<g>
		<title>Page-1</title>
		<g id="group7587-1" transform="translate(18.6773,-39.685)">
			<title>Performance Diagnostics.7587</title>
			<desc>Performance Diagnostics</desc>
			<g id="group7588-2">
				<title>g64</title>
				<g id="shape7589-3" transform="translate(8.08859,-15.1046)">
					<title>path4</title>
					<path d="M8.15 99.38 C9.67 104.92 8.88 106.15 0 106.15 L0 108.62 L30.03 108.62 L30.03 106.15 C21.15 106.15 19.21
								 104.92 20.72 99.38 L8.15 99.38 Z" class="st1"/>
				</g>
				<g id="shape7590-5" transform="translate(0,-24.3476)">
					<title>path6</title>
					<path d="M2.79 76.27 C1.41 76.27 0 77.46 0 78.79 L0 106.12 C0 107.44 1.4 108.62 2.79 108.62 L43.7 108.62 C45.09
								 108.62 46.21 107.44 46.21 106.12 L46.21 78.79 C46.21 77.46 45.09 76.27 43.7 76.27 L2.79 76.27 Z"
							class="st2"/>
				</g>
				<g id="shape7591-7" transform="translate(0.00231037,-24.3465)">
					<title>path8</title>
					<path d="M43.45 76.27 L43.42 76.27 L2.51 76.27 C1.12 76.27 0 77.46 0 78.79 L0 106.12 C0 107.44 1.12 108.62 2.51
								 108.62 L3.48 108.62 L43.45 76.27 Z" class="st3"/>
				</g>
				<g id="shape7592-9" transform="translate(3.46786,-27.8122)">
					<title>path10</title>
					<rect x="0" y="83.2029" width="39.2762" height="25.4151" class="st4"/>
				</g>
				<g id="shape7593-11" transform="translate(8.08744,-15.1046)">
					<title>path12</title>
					<path d="M0 106.31 L30.03 106.31 L30.03 108.62 L0 108.62 L0 106.31 Z" class="st2"/>
				</g>
				<g id="shape7594-13" transform="translate(22.6277,-54.1653)">
					<title>path14</title>
					<path d="M0 107.98 a0.646902 0.646929 0 0 1 0.656144 -0.639997 a0.646902 0.646929 0 0 1 0.654989 0.639997 a0.646902
								 0.646929 0 0 1 -0.654989 0.639997 a0.646902 0.646929 0 0 1 -0.656144 -0.639997 Z" class="st5"/>
				</g>
				<g id="shape7595-15" transform="translate(14.9818,-41.5594)">
					<title>path16</title>
					<path d="M8.1 108.62 a0.256451 0.256461 0 0 1 -0.121294 -0.0323464 L0.12 104.21 a0.227571 0.22758 0 0 1 -4.1217E-15
								 -0.39971 L8.03 99.4 a0.246054 0.246064 0 0 1 0.236813 -1.42109E-14 L16.13 103.78 a0.232192 0.232201
								 0 0 1 0.118984 0.199855 C16.25 104.06 16.2 104.14 16.13 104.18 L8.22 108.58 a0.25414 0.254151 0
								 0 1 -0.120139 0.0335017 Z" class="st6"/>
				</g>
				<g id="shape7596-17" transform="translate(24.2612,-30.4368)">
					<title>path18</title>
					<path d="M0.23 108.62 a0.231037 0.231046 0 0 1 -0.228726 -0.234512 L0 99.48 C0 99.39 0.05 99.32 0.11 99.27 L7.74
								 94.84 a0.226416 0.226425 0 0 1 0.232192 0 a0.229881 0.229891 0 0 1 0.117829 0.202165 L8.09 103.95
								 C8.09 104.03 8.04 104.11 7.97 104.15 L0.35 108.59 a0.219485 0.219494 0 0 1 -0.116673 0.0311912 Z"
							class="st7"/>
				</g>
				<g id="shape7597-19" transform="translate(13.8645,-30.4368)">
					<title>path20</title>
					<path d="M7.85 108.62 a0.201002 0.20101 0 0 1 -0.110898 -0.0311912 L0.12 104.15 a0.227571 0.22758 0 0 1 -0.117829
								 -0.202165 L0 95.1 a0.232192 0.232201 0 0 1 0.346555 -0.202165 L7.97 99.33 a0.241433 0.241443 0 0
								 1 0.112053 0.202165 L8.09 108.38 a0.237968 0.237977 0 0 1 -0.112053 0.202165 a0.25183 0.25184 0
								 0 1 -0.120139 0.0311912 Z" class="st8"/>
				</g>
				<g id="shape7598-21" transform="translate(40.5204,-2.84217E-13)">
					<title>path22</title>
					<path d="M0 97.07 L11.55 108.62 L11.55 108.62 A3.26408 3.26422 -180 0 0 16.17 104 L16.17 104 L4.62 92.44 L0 97.07
								 Z" class="st9"/>
				</g>
				<g id="shape7599-23" transform="translate(42.0336,-7.01802)">
					<title>path24</title>
					<path d="M4.62 100.98 L0 105.6 L3.02 108.62 A16.1841 16.1848 -180 0 0 7.64 104 L4.62 100.98 Z" class="st10"/>
				</g>
				<g id="shape7600-25" transform="translate(20.7956,-10.4837)">
					<title>circle26</title>
					<ellipse cx="12.707" cy="95.9104" rx="12.707" ry="12.7075" class="st6"/>
				</g>
				<g id="shape7601-27" transform="translate(20.2065,-12.7942)">
					<title>path28</title>
					<path d="M4.62 102.25 C4.62 94.74 9.85 89.55 17.33 89.55 C19.65 89.55 21.82 90.18 23.69 91.27 C21.49 87.48 17.4
								 84.92 12.71 84.92 C5.69 84.92 0 90.61 0 97.63 C0 102.33 2.55 106.42 6.34 108.62 A12.6285 12.629
								 0 0 1 4.62 102.25 Z" class="st11"/>
				</g>
				<g id="shape7602-29" transform="translate(17.4456,-7.13355)">
					<title>path30</title>
					<path d="M16.06 76.5 C7.19 76.5 0 83.69 0 92.56 C0 101.43 7.19 108.62 16.06 108.62 C24.93 108.62 32.11 101.43
								 32.11 92.56 C32.11 83.69 24.93 76.5 16.06 76.5 ZM16.06 104.46 C9.49 104.46 4.16 99.13 4.16 92.56
								 C4.16 85.99 9.49 80.66 16.06 80.66 C22.63 80.66 27.96 85.99 27.96 92.56 C27.96 99.13 22.63 104.46
								 16.06 104.46 Z" class="st9"/>
				</g>
				<g id="shape7603-31" transform="translate(25.4163,-17.4151)">
					<title>path32</title>
					<path d="M0 99.38 L3.47 99.38 L3.47 108.62 L0 108.62 L0 99.38 ZM5.78 101.69 L9.24 101.69 L9.24 108.62 L5.78 108.62
								 L5.78 101.69 ZM11.55 95.91 L15.02 95.91 L15.02 108.62 L11.55 108.62 L11.55 95.91 Z" class="st12"/>
				</g>
			</g>
			<g id="shape7587-33">
				<g id="shadow7587-34" transform="matrix(1,0,0,1,1.41732,1.41732)" class="st13"/>
				<text x="-12.09" y="124.32" class="st14">Performance Diagnostics</text>			</g>
		</g>
	</g>
</svg>
