<?xml version="1.0" encoding="UTF-8" standalone="no"?>
<!DOCTYPE svg PUBLIC "-//W3C//DTD SVG 1.1//EN" "http://www.w3.org/Graphics/SVG/1.1/DTD/svg11.dtd">
<!-- Generated by Microsoft Visio, SVG Export Virtual Machine Best Practices.svg Page-1 -->
<svg xmlns="http://www.w3.org/2000/svg" xmlns:xlink="http://www.w3.org/1999/xlink" xmlns:ev="http://www.w3.org/2001/xml-events"
		width="1.73185in" height="1.67695in" viewBox="0 0 124.693 120.74" xml:space="preserve" color-interpolation-filters="sRGB"
		class="st7">
	<style type="text/css">
	<![CDATA[
		.st1 {fill:url(#grad0-6);stroke:none;stroke-linecap:butt;stroke-width:34}
		.st2 {fill:url(#grad0-10);stroke:none;stroke-linecap:butt;stroke-width:34}
		.st3 {fill:#ffffff;fill-opacity:0.8;stroke:none;stroke-linecap:butt;stroke-width:34}
		.st4 {fill:#ffffff;stroke:none;stroke-linecap:butt;stroke-width:34}
		.st5 {visibility:visible}
		.st6 {fill:#000000;font-family:Calibri;font-size:0.666664em}
		.st7 {fill:none;fill-rule:evenodd;font-size:12px;overflow:visible;stroke-linecap:square;stroke-miterlimit:3}
	]]>
	</style>

	<defs id="Patterns_And_Gradients">
		<linearGradient id="grad0-6" x1="0" y1="0" x2="1" y2="0" gradientTransform="rotate(-90 0.5 0.5)">
			<stop offset="0" stop-color="#0078d4" stop-opacity="1"/>
			<stop offset="0.8" stop-color="#5ea0ef" stop-opacity="1"/>
		</linearGradient>
		<linearGradient id="grad0-10" x1="0" y1="0" x2="1" y2="0" gradientTransform="rotate(-90 0.5 0.5)">
			<stop offset="0" stop-color="#cccccc" stop-opacity="1"/>
			<stop offset="1" stop-color="#707070" stop-opacity="1"/>
		</linearGradient>
	</defs>
	<g>
		<title>Page-1</title>
		<g id="group7606-1" transform="translate(34,-35.7165)">
			<title>Virtual Machine Best Practices.7606</title>
			<desc>Virtual Machine Best Practices</desc>
			<g id="group7607-2">
				<title>Sheet.7607</title>
				<g id="shape7608-3" transform="translate(0,-14.2056)">
					<title>Sheet.7608</title>
					<path d="M0 118.9 A1.88981 1.84094 -180 0 0 1.89 120.74 L54.8 120.74 A1.88981 1.84094 -180 0 0 56.69 118.9 L56.69
								 85.76 A1.88981 1.84094 -180 0 0 54.8 83.92 L1.89 83.92 A1.88981 1.84094 -180 0 0 0 85.76 L0 118.9
								 Z" class="st1"/>
				</g>
				<g id="shape7609-7" transform="translate(14.1732,1.42109E-14)">
					<title>Sheet.7609</title>
					<path d="M25.54 117.67 C19.94 116.81 19.72 112.89 19.72 106.53 L8.6 106.53 C8.6 112.89 8.41 116.81 2.8 117.67
								 A3.14961 3.06817 -180 0 0 -0 120.74 L28.35 120.74 A3.14961 3.06817 -180 0 0 25.54 117.67 Z"
							class="st2"/>
				</g>
				<g id="shape7610-11" transform="translate(13.1213,-19.3968)">
					<title>Sheet.7610</title>
					<path d="M18.72 93.7 a0.873511 0.850924 -180 1 0 -0.425197 1.65067 A12.9354 12.601 0 1 1 4.16 100.98 L4.51 101.22
								 L6.97 102.89 a0.151181 0.147272 -180 0 0 0.15748 -0.171817 L6.55 96.2 a0.151181 0.147272 -180 0
								 0 -0.173228 -0.119659 L0.11 98.06 a0.151181 0.147272 -180 0 0 -0.107087 0.205567 L2.59 99.92 L2.73
								 100.02 A14.6362 14.2578 -180 1 0 18.73 93.7 L18.72 93.7 Z" class="st3"/>
				</g>
				<g id="shape7611-13" transform="translate(18.4504,-23.5114)">
					<title>Sheet.7611</title>
					<path d="M16.77 108.92 L15.72 107.15 L16.29 103.91 L13.62 102.4 L11.02 104.5 L8.92 104.5 L6.32 102.4 L3.65 103.91
								 L4.23 107.16 L3.17 108.92 L0 110.06 L0 113.07 L3.17 114.21 L4.22 115.98 L3.65 119.24 L6.32 120.74
								 L8.92 118.64 L11.02 118.64 L13.62 120.74 L16.29 119.24 L15.72 115.99 L16.77 114.22 L19.94 113.08
								 L19.94 110.07 L16.77 108.92 ZM9.97 116.12 A4.66457 4.54396 0 1 1 14.62 111.58 A4.66457 4.54396 0
								 0 1 9.97 116.12 Z" class="st4"/>
				</g>
			</g>
			<g id="shape7606-15">
				<g id="shadow7606-16" transform="matrix(1,0,0,1,1.41732,1.41732)" class="st5"/>
				<text x="-21" y="135.59" class="st6">Virtual Machine Best Practices</text>			</g>
		</g>
	</g>
</svg>
