<?xml version="1.0" encoding="UTF-8" standalone="no"?>
<!DOCTYPE svg PUBLIC "-//W3C//DTD SVG 1.1//EN" "http://www.w3.org/Graphics/SVG/1.1/DTD/svg11.dtd">
<!-- Generated by Microsoft Visio, SVG Export Azure Cosmos DB Notification.svg Page-1 -->
<svg xmlns="http://www.w3.org/2000/svg" xmlns:xlink="http://www.w3.org/1999/xlink" xmlns:ev="http://www.w3.org/2001/xml-events"
		width="1.41699in" height="1.61401in" viewBox="0 0 102.024 116.209" xml:space="preserve" color-interpolation-filters="sRGB"
		class="st4">
	<style type="text/css">
	<![CDATA[
		.st1 {fill:#59b4d9;stroke:none;stroke-linecap:butt;stroke-width:25.5}
		.st2 {fill:#ffffff;fill-opacity:0.8;stroke:none;stroke-linecap:butt;stroke-width:25.5}
		.st3 {fill:#804998;stroke:none;stroke-linecap:butt;stroke-width:25.5}
		.st4 {fill:none;fill-rule:evenodd;font-size:12px;overflow:visible;stroke-linecap:square;stroke-miterlimit:3}
	]]>
	</style>

	<g>
		<title>Page-1</title>
		<g id="group19292-1" transform="translate(25.5,-34.0157)">
			<title>Azure Cosmos DB Notification.19292</title>
			<g id="group19293-2">
				<title> E-Icons/COMMON24x24/Notificati</title>
				<g id="group19294-3">
					<title>Sheet.19294</title>
					<g id="shape19295-4">
						<title>Sheet.19295</title>
						<path d="M48.7 67.23 L43.14 61.78 L40.82 59.52 L0 59.52 L0 116.21 L51.02 116.21 L51.02 69.49 L48.7 67.23 Z"
								class="st1"/>
					</g>
					<g id="shape19296-6" transform="translate(2.31926,-2.26772)">
						<title>Sheet.19296</title>
						<path d="M38.27 64.05 L0 64.05 L0 116.21 L46.39 116.21 L46.39 71.99 L38.27 71.99 L38.27 64.05 Z"
								class="st2"/>
					</g>
					<g id="shape19297-8" transform="translate(9.85684,-10.9984)">
						<title>Sheet.19297</title>
						<path d="M20.06 114.96 A1.28848 1.25984 0 0 1 18.79 116.21 L1.28 116.21 A1.28848 1.25984 0 0 1 0 114.96 A1.28848
									 1.25984 0 0 1 1.28 113.71 L18.79 113.71 A1.28848 1.25984 0 0 1 20.06 114.96 ZM31.77 106.46 A1.28848
									 1.25984 0 0 1 30.5 107.7 L1.28 107.7 A1.28848 1.25984 0 0 1 0 106.46 A1.28848 1.25984 0 0 1
									 1.28 105.21 L30.38 105.21 C31.19 105.21 31.77 105.78 31.77 106.46 Z" class="st1"/>
					</g>
					<g id="shape19298-10" transform="translate(14.4953,-27.4394)">
						<title>Sheet.19298</title>
						<path d="M10.67 111.45 C10.78 111.45 10.78 111.45 11.02 111.56 L17.28 116.1 L14.84 108.73 C14.84 108.61 14.84
									 108.27 14.96 108.16 L21.22 103.62 L13.57 103.62 a0.698998 0.683465 0 0 1 -0.579814 -0.453543
									 L10.67 95.91 L8.23 103.28 C8.23 103.4 7.89 103.74 7.65 103.74 L0 103.74 L6.26 108.27 C6.38 108.39
									 6.61 108.73 6.38 108.84 L3.94 116.21 L10.2 111.67 C10.32 111.45 10.55 111.45 10.67 111.45 Z"
								class="st3"/>
					</g>
				</g>
			</g>
		</g>
	</g>
</svg>
