<?xml version="1.0" encoding="UTF-8" standalone="no"?>
<!DOCTYPE svg PUBLIC "-//W3C//DTD SVG 1.1//EN" "http://www.w3.org/Graphics/SVG/1.1/DTD/svg11.dtd">
<!-- Generated by Microsoft Visio, SVG Export Azure NetApp Files.svg Page-1 -->
<svg xmlns="http://www.w3.org/2000/svg" xmlns:xlink="http://www.w3.org/1999/xlink" xmlns:ev="http://www.w3.org/2001/xml-events"
		width="1.73185in" height="1.57458in" viewBox="0 0 124.693 113.37" xml:space="preserve" color-interpolation-filters="sRGB"
		class="st6">
	<style type="text/css">
	<![CDATA[
		.st1 {fill:url(#grad0-6);stroke:none;stroke-linecap:butt;stroke-width:34}
		.st2 {fill:#198ab3;stroke:none;stroke-linecap:butt;stroke-width:34}
		.st3 {fill:#ffffff;stroke:none;stroke-linecap:butt;stroke-width:34}
		.st4 {fill:#9cebff;stroke:none;stroke-linecap:butt;stroke-width:34}
		.st5 {fill:#0078d4;stroke:none;stroke-linecap:butt;stroke-width:34}
		.st6 {fill:none;fill-rule:evenodd;font-size:12px;overflow:visible;stroke-linecap:square;stroke-miterlimit:3}
	]]>
	</style>

	<defs id="Patterns_And_Gradients">
		<linearGradient id="grad0-6" x1="0" y1="0" x2="1" y2="0" gradientTransform="rotate(-90 0.5 0.5)">
			<stop offset="0" stop-color="#32bedd" stop-opacity="1"/>
			<stop offset="0.18" stop-color="#32caea" stop-opacity="1"/>
			<stop offset="0.41" stop-color="#32d2f2" stop-opacity="1"/>
			<stop offset="0.78" stop-color="#32d4f5" stop-opacity="1"/>
		</linearGradient>
	</defs>
	<g>
		<title>Page-1</title>
		<g id="group4142-1" transform="translate(34,-34.0157)">
			<title>Azure NetApp Files</title>
			<g id="group4143-2">
				<title>Sheet.4143</title>
				<g id="shape4144-3">
					<title>Sheet.4144</title>
					<path d="M0 80.03 L56.69 80.03 L56.69 111.48 A1.90088 1.89115 0 0 1 54.79 113.37 L1.9 113.37 A1.90088 1.89115
								 0 0 1 0 111.48 L0 80.03 Z" class="st1"/>
				</g>
				<g id="shape4145-7" transform="translate(0,-33.3439)">
					<title>Sheet.4145</title>
					<path d="M1.9 101.36 L54.79 101.36 A1.90088 1.89115 0 0 1 56.69 103.25 L56.69 113.37 L0 113.37 L0 103.22 A1.90088
								 1.89115 0 0 1 1.9 101.36 Z" class="st2"/>
				</g>
				<g id="shape4146-9" transform="translate(6.8365,-23.2578)">
					<title>Sheet.4146</title>
					<path d="M0.87 106.93 L42.09 106.93 a0.900417 0.895806 0 0 1 0.900417 0.895806 L42.99 112.47 a0.900417 0.895806
								 0 0 1 -0.900417 0.895806 L0.87 113.37 a0.900417 0.895806 0 0 1 -0.867068 -0.895806 L0 107.83 a0.900417
								 0.895806 0 0 1 0.867068 -0.895806 Z" class="st3"/>
				</g>
				<g id="shape4147-11" transform="translate(6.86985,-4.61174)">
					<title>Sheet.4147</title>
					<path d="M0.87 97.54 L42.09 97.54 a0.900417 0.895806 0 0 1 0.900417 0.895806 L42.99 103.12 a0.900417 0.895806
								 0 0 1 -0.900417 0.895806 L0.87 104.01 a0.867068 0.862628 0 0 1 -0.867068 -0.895806 L0 98.61 a0.867068
								 0.862628 0 0 1 0.867068 -1.0617 ZM0.87 106.9 L42.09 106.9 a0.900417 0.895806 0 0 1 0.900417 0.895806
								 L42.99 112.47 a0.900417 0.895806 0 0 1 -0.900417 0.895806 L0.87 113.37 a0.867068 0.862628 0 0 1
								 -0.867068 -0.895806 L0 107.8 a0.867068 0.862628 0 0 1 0.867068 -0.895806 Z" class="st4"/>
				</g>
				<g id="shape4148-13" transform="translate(15.3738,-7.00056)">
					<title>Sheet.4148</title>
					<path d="M0 93.89 L0 112.44 a0.933766 0.928984 -180 0 0 0.933766 0.928984 L8.77 113.37 a0.933766 0.928984 -180
								 0 0 0.867068 -0.928984 L9.64 101.43 a0.900417 0.895806 0 0 1 0.933766 -0.928984 L15.27 100.5 a0.900417
								 0.895806 0 0 1 0.933766 0.928984 L16.21 112.44 a0.933766 0.928984 -180 0 0 0.967114 0.928984 L25.01
								 113.37 a0.933766 0.928984 -180 0 0 0.933766 -0.928984 L25.95 93.89 a0.933766 0.928984 -180 0 0 -0.933766
								 -0.928984 L0.93 92.97 a0.933766 0.928984 -180 0 0 -0.933766 0.928984 Z" class="st5"/>
				</g>
			</g>
		</g>
	</g>
</svg>
