<?xml version="1.0" encoding="UTF-8" standalone="no"?>
<!DOCTYPE svg PUBLIC "-//W3C//DTD SVG 1.1//EN" "http://www.w3.org/Graphics/SVG/1.1/DTD/svg11.dtd">
<!-- Generated by Microsoft Visio, SVG Export Cognitive Services Language.svg Page-1 -->
<svg xmlns="http://www.w3.org/2000/svg" xmlns:xlink="http://www.w3.org/1999/xlink" xmlns:ev="http://www.w3.org/2001/xml-events"
		width="0.944882in" height="1.03543in" viewBox="0 0 68.0315 74.5512" xml:space="preserve" color-interpolation-filters="sRGB"
		class="st2">
	<style type="text/css">
	<![CDATA[
		.st1 {fill:#3176bc;stroke:#3176bc;stroke-linecap:butt;stroke-width:0.075}
		.st2 {fill:none;fill-rule:evenodd;font-size:12px;overflow:visible;stroke-linecap:square;stroke-miterlimit:3}
	]]>
	</style>

	<g>
		<title>Page-1</title>
		<g id="group3485-1" transform="translate(5.66929,-34.0157)">
			<title>Cognitive Services Language</title>
			<g id="group3486-2">
				<title>g12</title>
				<g id="shape3487-3">
					<title>path1491-5</title>
					<path d="M4.21 74.37 C4.21 74.31 4.01 73.26 3.76 72.02 C3.51 70.79 3.25 69.33 3.17 68.78 L3.02 67.79 L5.04 66.65
								 C7.27 65.38 9.9 63.12 9.9 62.47 C9.9 62.19 9.35 61.81 8.08 61.25 C2.97 58.97 0 53.1 1.14 47.51 C2.29
								 41.93 7.36 37.7 12.91 37.72 C19.14 37.74 24.18 41.73 25.94 48.04 C26.52 50.14 26.54 54.94 25.97
								 57.25 C23.83 65.99 16.69 72.46 7.39 74.1 C5.37 74.45 4.21 74.55 4.21 74.37 L4.21 74.37 ZM10.22 70.38
								 C17.43 68.04 22.52 62.06 23.47 54.77 C24.61 46.12 18.85 39.46 11.39 40.81 C6.39 41.71 3.03 46.56
								 3.94 51.55 C4.75 56 7.69 58.78 12.25 59.38 C13.24 59.51 14.1 59.66 14.14 59.7 C14.35 59.89 13.35
								 62.69 12.73 63.68 C11.8 65.15 9.66 67.19 7.83 68.32 C6.51 69.14 6.34 69.33 6.34 70.01 C6.34 70.43
								 6.41 70.85 6.5 70.94 C6.82 71.26 8.06 71.08 10.22 70.38 ZM34.36 74.37 C34.36 74.31 34.16 73.26 33.91
								 72.02 C33.67 70.79 33.4 69.33 33.32 68.78 L33.17 67.79 L35.19 66.65 C37.42 65.38 40.06 63.12 40.06
								 62.47 C40.06 62.19 39.5 61.81 38.24 61.25 C33.12 58.97 30.15 53.1 31.29 47.51 C32.43 41.95 37.54
								 37.7 43.06 37.72 C49.29 37.74 54.33 41.73 56.09 48.04 C56.68 50.14 56.69 54.94 56.12 57.25 C53.98
								 65.99 46.84 72.46 37.54 74.1 C35.52 74.45 34.36 74.55 34.36 74.37 L34.36 74.37 ZM40.37 70.38 C47.59
								 68.04 52.67 62.06 53.62 54.77 C54.76 46.12 49 39.46 41.54 40.81 C36.54 41.71 33.18 46.56 34.09 51.55
								 C34.9 56 37.84 58.78 42.4 59.38 C43.39 59.51 44.25 59.66 44.29 59.7 C44.5 59.89 43.51 62.69 42.88
								 63.68 C41.95 65.15 39.81 67.19 37.98 68.32 C36.66 69.14 36.49 69.33 36.49 70.01 C36.49 70.43 36.57
								 70.85 36.65 70.94 C36.97 71.26 38.21 71.08 40.37 70.38 Z" class="st1"/>
				</g>
			</g>
		</g>
	</g>
</svg>
