<?xml version="1.0" encoding="UTF-8" standalone="no"?>
<!DOCTYPE svg PUBLIC "-//W3C//DTD SVG 1.1//EN" "http://www.w3.org/Graphics/SVG/1.1/DTD/svg11.dtd">
<!-- Generated by Microsoft Visio, SVG Export Customer Lockbox for Microsoft Azure.svg Page-1 -->
<svg xmlns="http://www.w3.org/2000/svg" xmlns:xlink="http://www.w3.org/1999/xlink" xmlns:ev="http://www.w3.org/2001/xml-events"
		width="1.74224in" height="1.74191in" viewBox="0 0 125.442 125.417" xml:space="preserve" color-interpolation-filters="sRGB"
		class="st6">
	<style type="text/css">
	<![CDATA[
		.st1 {fill:url(#grad0-5);stroke:none;stroke-linecap:butt;stroke-width:34.3623}
		.st2 {fill:#ffffff;stroke:none;stroke-linecap:butt;stroke-width:34.3623}
		.st3 {fill:#50e6ff;stroke:none;stroke-linecap:butt;stroke-width:34.3623}
		.st4 {fill:#32bedd;stroke:none;stroke-linecap:butt;stroke-width:34.3623}
		.st5 {fill:#f2f2f2;stroke:none;stroke-linecap:butt;stroke-width:34.3623}
		.st6 {fill:none;fill-rule:evenodd;font-size:12px;overflow:visible;stroke-linecap:square;stroke-miterlimit:3}
	]]>
	</style>

	<defs id="Patterns_And_Gradients">
		<linearGradient id="grad0-5" x1="0" y1="0" x2="1" y2="0" gradientTransform="rotate(-90 0.5 0.5)">
			<stop offset="0" stop-color="#773adc" stop-opacity="1"/>
			<stop offset="1" stop-color="#b77af4" stop-opacity="1"/>
		</linearGradient>
	</defs>
	<g>
		<title>Page-1</title>
		<g id="group3231-1" transform="translate(34.3863,-34.3623)">
			<title>Customer Lockbox for Microsoft Azure</title>
			<g id="shape3232-2" transform="translate(2.83773E-13,-1.69739)">
				<title>path16</title>
				<path d="M44.68 125.42 A4.37126 4.44717 -180 0 0 49.08 121 C49.08 120.83 49.08 120.63 49.08 120.46 C47.35 106.51
							 39.54 95.14 24.59 95.14 C9.64 95.14 1.64 104.74 0 120.5 A4.40463 4.48112 -180 0 0 3.9 125.42 L44.68
							 125.42 Z" class="st1"/>
			</g>
			<g id="shape3233-6" transform="translate(17.118,-11.3725)">
				<title>path18</title>
				<path d="M7.44 108.1 A13.7811 14.0205 0 0 1 0 105.9 L7.37 125.42 L14.55 106 A13.3474 13.5791 0 0 1 7.44 108.1 Z"
						class="st2"/>
			</g>
			<g id="shape3234-8" transform="translate(10.778,-28.652)">
				<title>circle20</title>
				<ellipse cx="13.7811" cy="111.397" rx="13.7811" ry="14.0205" class="st1"/>
			</g>
			<g id="shape3235-11" transform="translate(28.5967,1.42109E-14)">
				<title>rect22</title>
				<path d="M-0 123.52 A1.86867 1.90112 -180 0 0 1.87 125.42 L26.23 125.42 A1.86867 1.90112 -180 0 0 28.1 123.52 L28.1
							 113.23 A1.86867 1.90112 -180 0 0 26.23 111.33 L1.87 111.33 A1.86867 1.90112 -180 0 0 0 113.23 L0 123.52
							 Z" class="st3"/>
			</g>
			<g id="shape3236-13" transform="translate(28.5967,-0.101837)">
				<title>path24</title>
				<path d="M14.05 111.43 L1.87 111.43 A1.86863 1.90108 -180 0 0 0 113.33 L0 123.52 A1.86863 1.90108 -180 0 0 1.87 125.42
							 L14.05 125.42 L14.05 111.43 Z" class="st4"/>
			</g>
			<g id="shape3237-15" transform="translate(30.509,-2.7449)">
				<title>path26</title>
				<path d="M10.1 118.01 L9.8 117.67 a0.500526 0.509218 -180 0 0 -0.667369 1.42109E-14 L3.26 123.58 L1.16 121.44 a0.567263
							 0.577114 -180 0 0 -0.700737 0 L0.16 121.78 a0.433789 0.441322 -180 0 0 -4.27436E-15 0.678957 L2.96 125.34
							 L3.13 125.34 a0.533894 0.543166 -180 0 0 0.533894 0 L10.17 118.56 a0.433789 0.441322 -180 0 0 -0.0667398
							 -0.543166 L10.1 118.01 Z" class="st2"/>
			</g>
			<g id="shape3238-17" transform="translate(45.6908,-2.65895)">
				<title>path28</title>
				<path d="M7.7 124.24 L4.9 121.42 L7.67 118.6 a0.467158 0.47527 -180 0 0 -1.33227E-14 -0.645009 L7.3 117.59 a0.400421
							 0.407374 -180 0 0 -0.634 -1.42109E-14 L3.89 120.4 L1.16 117.62 a0.467158 0.47527 -180 0 0 -0.700737
							 1.42109E-14 L0.12 117.93 a0.467158 0.47527 -180 0 0 -5.38458E-15 0.645009 L2.89 121.42 L0.16 124.21
							 a0.533894 0.543166 -180 0 0 -4.996E-15 0.746852 L0.49 125.26 a0.367052 0.373426 -180 0 0 0.60063 0 L3.89
							 122.44 L6.7 125.26 a0.467158 0.47527 -180 0 0 0.634 0 L7.7 124.89 a0.467158 0.47527 -180 0 0 0 -0.64501
							 Z" class="st5"/>
			</g>
		</g>
	</g>
</svg>
