<?xml version="1.0" encoding="UTF-8" standalone="no"?>
<!DOCTYPE svg PUBLIC "-//W3C//DTD SVG 1.1//EN" "http://www.w3.org/Graphics/SVG/1.1/DTD/svg11.dtd">
<!-- Generated by Microsoft Visio, SVG Export Firewall.svg Page-1 -->
<svg xmlns="http://www.w3.org/2000/svg" xmlns:xlink="http://www.w3.org/1999/xlink" xmlns:ev="http://www.w3.org/2001/xml-events"
		width="1.73185in" height="1.61406in" viewBox="0 0 124.693 116.212" xml:space="preserve" color-interpolation-filters="sRGB"
		class="st5">
	<style type="text/css">
	<![CDATA[
		.st1 {fill:url(#grad0-6);stroke:none;stroke-linecap:butt;stroke-width:34}
		.st2 {fill:#821010;stroke:none;stroke-linecap:butt;stroke-width:34}
		.st3 {fill:#e62323;stroke:none;stroke-linecap:butt;stroke-width:34}
		.st4 {fill:#ff7381;stroke:none;stroke-linecap:butt;stroke-width:34}
		.st5 {fill:none;fill-rule:evenodd;font-size:12px;overflow:visible;stroke-linecap:square;stroke-miterlimit:3}
	]]>
	</style>

	<defs id="Patterns_And_Gradients">
		<linearGradient id="grad0-6" x1="0" y1="0" x2="1" y2="0" gradientTransform="rotate(-90 0.5 0.5)">
			<stop offset="0" stop-color="#0078d4" stop-opacity="1"/>
			<stop offset="0.82" stop-color="#5ea0ef" stop-opacity="1"/>
		</linearGradient>
	</defs>
	<g>
		<title>Page-1</title>
		<g id="group2747-1" transform="translate(34,-34.0157)">
			<title>Firewall</title>
			<g id="group2748-2">
				<title>Icon-networking-84</title>
				<g id="shape2749-3" transform="translate(0,-7.77562)">
					<title>Sheet.2749</title>
					<path d="M56.69 103.53 A12.7874 12.8546 -180 0 0 45.64 91.22 A16.063 16.1474 -180 0 0 29.1 75.8 A16.4724 16.559
								 -180 0 0 13.35 86.6 A15.1811 15.2609 -180 0 0 0 101.29 A15.4331 15.5142 -180 0 0 15.97 116.2 L43.21
								 116.2 A4.59843 4.6226 -180 0 0 43.91 116.2 A12.9134 12.9813 -180 0 0 56.69 103.53 Z" class="st1"/>
				</g>
				<g id="shape2750-7" transform="translate(11.685,1.42109E-14)">
					<title>Sheet.2750</title>
					<path d="M33.32 99.08 A1.32283 1.32979 -180 0 0 32 97.79 L1.32 97.79 A1.32283 1.32979 -180 0 0 -0 99.08 L0 114.91
								 A1.32283 1.32979 -180 0 0 1.32 116.21 L32 116.21 A1.32283 1.32979 -180 0 0 33.32 114.91 L33.32 99.08
								 Z" class="st2"/>
				</g>
				<g id="shape2751-9" transform="translate(13.5433,-12.5697)">
					<title>Sheet.2751</title>
					<rect x="0" y="112.191" width="9.03937" height="4.02102" class="st3"/>
				</g>
				<g id="shape2752-11" transform="translate(23.937,-12.5697)">
					<title>Sheet.2752</title>
					<rect x="0" y="112.191" width="9.03937" height="4.02102" class="st4"/>
				</g>
				<g id="shape2753-13" transform="translate(13.5433,-7.18719)">
					<title>Sheet.2753</title>
					<path d="M20.79 106.81 L29.83 106.81 L29.83 110.83 L20.79 110.83 L20.79 106.81 ZM0 112.19 L3.75 112.19 L3.75
								 116.21 L0 116.21 L0 112.19 Z" class="st3"/>
				</g>
				<g id="shape2754-15" transform="translate(18.6457,-7.18719)">
					<title>Sheet.2754</title>
					<path d="M20.98 112.19 L24.72 112.19 L24.72 116.21 L20.98 116.21 L20.98 112.19 ZM0 112.19 L9.04 112.19 L9.04
								 116.21 L0 116.21 L0 112.19 Z" class="st4"/>
				</g>
				<g id="shape2755-17" transform="translate(13.5433,-1.80471)">
					<title>Sheet.2755</title>
					<path d="M15.53 106.81 L24.57 106.81 L24.57 110.83 L15.53 110.83 L15.53 106.81 ZM0 112.19 L9.04 112.19 L9.04
								 116.21 L0 116.21 L0 112.19 Z" class="st3"/>
				</g>
				<g id="shape2756-19" transform="translate(23.937,-1.80471)">
					<title>Sheet.2756</title>
					<rect x="0" y="112.191" width="9.03937" height="4.02102" class="st4"/>
				</g>
				<g id="shape2757-21" transform="translate(34.3307,-1.80471)">
					<title>Sheet.2757</title>
					<rect x="0" y="112.191" width="9.03937" height="4.02102" class="st3"/>
				</g>
			</g>
		</g>
	</g>
</svg>
