<?xml version="1.0" encoding="UTF-8" standalone="no"?>
<!DOCTYPE svg PUBLIC "-//W3C//DTD SVG 1.1//EN" "http://www.w3.org/Graphics/SVG/1.1/DTD/svg11.dtd">
<!-- Generated by Microsoft Visio, SVG Export Software As A Service.svg Page-1 -->
<svg xmlns="http://www.w3.org/2000/svg" xmlns:xlink="http://www.w3.org/1999/xlink" xmlns:ev="http://www.w3.org/2001/xml-events"
		width="0.944882in" height="1.16535in" viewBox="0 0 68.0315 83.9055" xml:space="preserve" color-interpolation-filters="sRGB"
		class="st4">
	<style type="text/css">
	<![CDATA[
		.st1 {fill:url(#grad0-5);stroke:none;stroke-linecap:butt;stroke-width:2.67736}
		.st2 {fill:url(#grad0-9);stroke:none;stroke-linecap:butt;stroke-width:2.67736}
		.st3 {fill:#ffffff;stroke:none;stroke-linecap:butt;stroke-width:2.67736}
		.st4 {fill:none;fill-rule:evenodd;font-size:12px;overflow:visible;stroke-linecap:square;stroke-miterlimit:3}
	]]>
	</style>

	<defs id="Patterns_And_Gradients">
		<linearGradient id="grad0-5" x1="0" y1="0" x2="1" y2="0" gradientTransform="rotate(90 0.5 0.5)">
			<stop offset="0" stop-color="#5ea0ef" stop-opacity="1"/>
			<stop offset="0.18" stop-color="#559cec" stop-opacity="1"/>
			<stop offset="0.47" stop-color="#3c91e5" stop-opacity="1"/>
			<stop offset="0.84" stop-color="#1380da" stop-opacity="1"/>
			<stop offset="1" stop-color="#0078d4" stop-opacity="1"/>
		</linearGradient>
		<linearGradient id="grad0-9" x1="0" y1="0" x2="1" y2="0" gradientTransform="rotate(90 0.5 0.5)">
			<stop offset="0" stop-color="#b3b3b3" stop-opacity="1"/>
			<stop offset="0.12" stop-color="#adadad" stop-opacity="1"/>
			<stop offset="0.64" stop-color="#9b9b9b" stop-opacity="1"/>
			<stop offset="1" stop-color="#949494" stop-opacity="1"/>
		</linearGradient>
	</defs>
	<g>
		<title>Page-1</title>
		<g id="group750-1" transform="translate(5.66929,-34.0157)">
			<title>Software As A Service</title>
			<g id="shape751-2" transform="translate(0,-6.49343)">
				<title>path26</title>
				<path d="M56.69 71.78 A12.7467 12.3664 -180 0 0 45.61 59.9 A16.0168 15.539 -180 0 0 29.1 45.04 A16.484 15.9922 -180
							 0 0 13.35 55.4 A15.216 14.762 -180 0 0 0 69.62 A15.4162 14.9562 -180 0 0 15.95 83.89 L43.21 83.89 A4.00421
							 3.88474 -180 0 0 43.88 83.89 A12.9136 12.5283 -180 0 0 56.69 71.78 Z" class="st1"/>
			</g>
			<g id="shape752-6" transform="translate(19.0867,2.27374E-13)">
				<title>path28</title>
				<path d="M18.85 82.35 A1.60168 1.5539 0 0 1 17.22 83.91 L1.64 83.91 A1.60168 1.5539 0 0 1 0 82.35 L0 54.32 A1.60168
							 1.5539 0 0 1 1.64 52.76 L17.22 52.76 A1.60168 1.5539 0 0 1 18.85 54.32 L18.85 82.35 Z" class="st2"/>
			</g>
			<g id="shape753-10" transform="translate(21.3224,-1.68339)">
				<title>b27878c5-7f3c-4613-bf1f-666b5e2</title>
				<path d="M0 57.68 L3.67 57.68 L3.67 62.05 L0 62.05 L0 57.68 ZM5.41 57.68 L9.01 57.68 L9.01 62.05 L5.41 62.05 L5.41
							 57.68 ZM10.81 57.68 L14.42 57.68 L14.42 62.05 L10.81 62.05 L10.81 57.68 ZM0 64.68 L3.67 64.68 L3.67
							 69.05 L0 69.05 L0 64.68 ZM5.41 64.68 L9.01 64.68 L9.01 69.05 L5.41 69.05 L5.41 64.68 ZM10.81 64.68 L14.42
							 64.68 L14.42 69.05 L10.81 69.05 L10.81 64.68 ZM0 71.67 L3.67 71.67 L3.67 76.04 L0 76.04 L0 71.67 ZM5.41
							 71.67 L9.01 71.67 L9.01 76.04 L5.41 76.04 L5.41 71.67 ZM5.41 78.66 L9.01 78.66 L9.01 83.91 L5.41 83.91
							 L5.41 78.66 ZM10.81 71.67 L14.42 71.67 L14.42 76.04 L10.81 76.04 L10.81 71.67 Z" class="st3"/>
			</g>
		</g>
	</g>
</svg>
