<?xml version="1.0" encoding="UTF-8" standalone="no"?>
<!DOCTYPE svg PUBLIC "-//W3C//DTD SVG 1.1//EN" "http://www.w3.org/Graphics/SVG/1.1/DTD/svg11.dtd">
<!-- Generated by Microsoft Visio, SVG Export Adaptive Network Hardening.svg Page-1 -->
<svg xmlns="http://www.w3.org/2000/svg" xmlns:xlink="http://www.w3.org/1999/xlink" xmlns:ev="http://www.w3.org/2001/xml-events"
		width="1.5748in" height="2.15802in" viewBox="0 0 113.386 155.377" xml:space="preserve" color-interpolation-filters="sRGB"
		class="st8">
	<style type="text/css">
	<![CDATA[
		.st1 {fill:#c7e4f0;stroke:none;stroke-linecap:butt;stroke-width:27.8182}
		.st2 {fill:#59b4d9;stroke:none;stroke-linecap:butt;stroke-width:27.8182}
		.st3 {fill:#b8d432;stroke:none;stroke-linecap:butt;stroke-width:27.8182}
		.st4 {fill:#57a300;stroke:none;stroke-linecap:butt;stroke-width:27.8182}
		.st5 {fill:#ffffff;fill-opacity:0.25;stroke:none;stroke-linecap:butt;stroke-width:27.8182}
		.st6 {fill:#429ec9;stroke:none;stroke-linecap:butt;stroke-width:27.8182}
		.st7 {fill:#74b7d7;stroke:none;stroke-linecap:butt;stroke-width:27.8182}
		.st8 {fill:none;fill-rule:evenodd;font-size:12px;overflow:visible;stroke-linecap:square;stroke-miterlimit:3}
	]]>
	</style>

	<g>
		<title>Page-1</title>
		<g id="group5338-1" transform="translate(28.3465,-70.8661)">
			<title>Adaptive Network Hardening</title>
			<g id="group5339-2">
				<title> ASC_Adaptive-network-hardening</title>
				<g id="shape5340-3" transform="translate(0.786958,-1.22109)">
					<title>Sheet.5340</title>
					<path d="M19.82 155.37 L30.51 135 L30.97 122.58 L30.97 122.12 L39.18 122.12 L39.18 112.62 A1.22254 1.20959 -180
								 0 0 37.94 111.4 L37.63 111.4 C36.86 111.55 35.93 111.55 35.15 111.55 C28.96 111.55 23.39 108.02
								 20.75 102.35 C20.44 102.05 20.13 102.05 19.67 102.05 L19.51 102.05 C19.2 102.05 18.43 102.35 18.43
								 102.35 C15.8 107.87 10.07 111.4 3.87 111.4 C3.1 111.4 2.33 111.4 1.55 111.24 L1.24 111.24 C0.46
								 111.24 0 111.7 0 112.47 L0 136.22 C0 137.91 0.31 139.29 1.08 140.67 L1.39 140.82 A35.2214 34.8484
								 -180 0 0 18.27 154.92 C18.27 154.92 19.05 155.07 19.82 155.38 L19.82 155.37 Z" class="st1"/>
				</g>
				<g id="shape5341-5" transform="translate(25.4092,-0.152277)">
					<title>Sheet.5341</title>
					<path d="M30.2 152.01 L20.75 134.85 L20.75 127.95 L20.91 127.95 C21.99 127.95 22.92 127.03 22.92 125.8 C22.92
								 124.58 21.99 123.66 20.91 123.66 L10.53 123.66 C9.45 123.66 8.52 124.58 8.52 125.8 C8.52 127.03
								 9.45 127.95 10.53 127.95 L10.69 127.95 L10.69 134.85 L1.08 152.01 C0 153.85 0.93 155.38 2.94 155.38
								 L28.19 155.38 C30.35 155.38 31.28 153.85 30.2 152.01 L30.2 152.01 Z" class="st2"/>
				</g>
				<g id="shape5342-7" transform="translate(30.52,-3.8299)">
					<title>Sheet.5342</title>
					<path d="M3.87 148.33 L0 155.38 L21.22 155.38 L17.19 148.33 L3.87 148.33 Z" class="st3"/>
				</g>
				<g id="shape5343-9" transform="translate(39.6615,-5.66584)">
					<title>Sheet.5343</title>
					<path d="M1.86 152.92 C2.94 152.92 3.71 152 3.71 150.93 C3.71 150.63 3.71 150.32 3.56 150.01 L0.15 150.01 C0
								 150.32 0 150.63 0 150.93 C0 152.16 0.93 152.92 1.86 152.92 L1.86 152.92 ZM5.26 154.46 a0.929249
								 0.919407 0 0 1 -1.8585 0 a0.929249 0.919407 0 1 1 1.8585 -2.84217E-14 Z" class="st4"/>
				</g>
				<g id="shape5344-11" transform="translate(25.5631,0)">
					<title>Sheet.5344</title>
					<path d="M0.93 151.85 L10.38 134.69 L10.38 127.8 L10.22 127.8 C9.14 127.8 8.21 126.88 8.21 125.65 C8.21 124.42
								 9.14 123.51 10.22 123.51 L14.71 123.51 L14.71 134.69 L9.76 155.38 L2.94 155.38 C0.77 155.23 0 153.69
								 0.93 151.85 L0.93 151.85 Z" class="st5"/>
				</g>
				<g id="shape5345-13" transform="translate(2.79776E-13,-1.06594)">
					<title>Sheet.5345</title>
					<path d="M20.45 155.37 L22 152.62 C22 152.62 21.54 152.77 20.92 152.92 L19.99 152.62 C13.02 149.86 7.44 145.26
								 3.73 138.98 L3.57 138.83 C2.95 137.6 2.64 136.53 2.64 135.15 L2.64 111.4 L2.8 111.4 C3.57 111.55
								 4.5 111.55 5.12 111.55 C11.62 111.55 17.66 107.87 20.61 102.2 L21.07 102.2 C23.86 108.03 29.9 111.7
								 36.4 111.7 C37.18 111.7 38.11 111.7 38.88 111.55 L39.19 111.55 L39.19 121.97 L41.67 121.97 L41.67
								 111.55 A2.44509 2.41919 -180 0 0 39.19 109.1 L38.72 109.1 C38.11 109.25 37.18 109.25 36.55 109.25
								 C30.82 109.25 25.71 105.88 23.23 100.82 L22.92 100.52 A2.56415 2.53699 -180 0 0 21.06 99.75 L20.75
								 99.75 C20.29 99.75 19.82 99.9 19.51 100.06 L18.43 101.13 C15.95 106.03 10.69 109.25 5.11 109.25
								 C4.34 109.25 3.72 109.25 2.94 109.1 L2.48 109.1 A2.44509 2.41919 -180 0 0 0 111.55 L0 135.3 C0 137.14
								 0.46 138.67 1.24 140.36 L1.39 140.67 C5.42 147.25 11.46 152.16 18.9 155.07 C19.21 154.76 19.98 155.07
								 20.44 155.38 L20.45 155.37 Z" class="st6"/>
				</g>
				<g id="shape5346-15" transform="translate(2.33183,-3.8299)">
					<title>Sheet.5346</title>
					<path d="M0 131.63 L0 137.6 C0 139.14 0.31 140.67 0.93 141.89 L1.08 142.05 C4.65 148.02 10.06 152.31 16.57 154.92
								 C16.57 154.92 17.19 155.07 17.81 155.38 L17.81 131.63 L0 131.63 L0 131.63 ZM29.43 125.04 L29.43
								 124.58 L36.86 124.58 L37.02 115.54 L37.02 115.23 C37.02 114.46 36.71 113.7 35.93 113.7 L35.47 113.7
								 C34.69 113.85 33.61 113.85 32.83 113.85 C26.64 113.85 21.68 110.17 18.74 104.05 C18.43 104.05 18.43
								 104.05 18.12 104.2 L18.12 131.93 L29.43 131.93 L29.43 125.04 L29.43 125.04 Z" class="st7"/>
				</g>
			</g>
		</g>
	</g>
</svg>
