<?xml version="1.0" encoding="UTF-8" standalone="no"?>
<!DOCTYPE svg PUBLIC "-//W3C//DTD SVG 1.1//EN" "http://www.w3.org/Graphics/SVG/1.1/DTD/svg11.dtd">
<!-- Generated by Microsoft Visio, SVG Export Admin Consent.svg Page-1 -->
<svg xmlns="http://www.w3.org/2000/svg" xmlns:xlink="http://www.w3.org/1999/xlink" xmlns:ev="http://www.w3.org/2001/xml-events"
		width="1.5748in" height="1.87818in" viewBox="0 0 113.386 135.229" xml:space="preserve" color-interpolation-filters="sRGB"
		class="st3">
	<style type="text/css">
	<![CDATA[
		.st1 {fill:#015cda;stroke:none;stroke-width:7.67025}
		.st2 {fill:#ffffff;stroke:none;stroke-width:7.67025}
		.st3 {fill:none;fill-rule:evenodd;font-size:12px;overflow:visible;stroke-linecap:square;stroke-miterlimit:3}
	]]>
	</style>

	<g>
		<title>Page-1</title>
		<g id="group5288-1" transform="translate(28.3465,-70.8661)">
			<title>Admin Consent</title>
			<g id="group5289-2">
				<title>g8</title>
				<g id="shape5290-3">
					<title>circle4</title>
					<ellipse cx="28.3465" cy="106.883" rx="28.3465" ry="28.3465" class="st1"/>
				</g>
				<g id="shape5291-5" transform="translate(10.8921,-8.87244)">
					<title>path6</title>
					<path d="M16.82 98.69 L16.63 98.69 C12.66 98.69 8.99 100.09 6.01 102.29 L0 96.28 L0 112.11 L15.82 112.11 L9.85
								 106.14 A11.2039 11.2039 0 0 1 16.82 103.79 C22.76 103.79 27.68 107.97 28.72 113.43 L33.94 113.43
								 A17.2913 17.2913 -180 0 0 16.82 98.69 ZM34.72 119.36 L19.09 119.36 L19.17 119.4 L19.09 119.4 L24.87
								 125.19 C22.91 126.56 20.57 127.3 17.91 127.3 C12.55 127.3 7.99 123.67 6.43 118.79 L0.95 118.79 A17.3197
								 17.3197 -180 0 0 17.9 132.4 L18.09 132.4 C22 132.4 25.63 131.05 28.58 128.9 L34.91 135.23 L34.91
								 119.36 L34.72 119.36 Z" class="st2"/>
				</g>
			</g>
		</g>
	</g>
</svg>
