<?xml version="1.0" encoding="UTF-8" standalone="no"?>
<!DOCTYPE svg PUBLIC "-//W3C//DTD SVG 1.1//EN" "http://www.w3.org/Graphics/SVG/1.1/DTD/svg11.dtd">
<!-- Generated by Microsoft Visio, SVG Export Ansible.svg Page-1 -->
<svg xmlns="http://www.w3.org/2000/svg" xmlns:xlink="http://www.w3.org/1999/xlink" xmlns:ev="http://www.w3.org/2001/xml-events"
		width="1.5748in" height="1.85039in" viewBox="0 0 113.386 133.228" xml:space="preserve" color-interpolation-filters="sRGB"
		class="st4">
	<style type="text/css">
	<![CDATA[
		.st1 {fill:none;stroke:none;stroke-linecap:butt;stroke-width:0.75}
		.st2 {fill:#cc0000;stroke:none;stroke-linecap:butt;stroke-width:0.75}
		.st3 {fill:#ffffff;stroke:none;stroke-linecap:butt;stroke-width:0.75}
		.st4 {fill:none;fill-rule:evenodd;font-size:12px;overflow:visible;stroke-linecap:square;stroke-miterlimit:3}
	]]>
	</style>

	<g>
		<title>Page-1</title>
		<g id="group5246-1" transform="translate(28.3465,-70.8661)">
			<title>Ansible</title>
			<g id="group5247-2">
				<title>Page-1</title>
				<g id="group5248-3">
					<title>Ansible</title>
					<g id="group5249-4">
						<title>canvas_background</title>
						<g id="shape5250-5">
							<title>Sheet.5250</title>
							<rect x="0" y="76.5354" width="56.6929" height="56.6929" class="st1"/>
						</g>
					</g>
					<g id="group5251-7" transform="translate(3.17824,-1.37437)">
						<title>Sheet.5251</title>
						<g id="group5252-8">
							<title>svg_23</title>
							<g id="shape5253-9">
								<title>Sheet.5253</title>
								<path d="M50.85 106.94 C50.85 121.46 39.46 133.23 25.43 133.23 C11.39 133.23 0 121.46 0 106.94 C0
											 92.43 11.39 80.66 25.43 80.66 C39.46 80.66 50.85 92.43 50.85 106.94 Z" class="st2"/>
							</g>
						</g>
						<g id="group5254-11" transform="translate(10.5655,-12.713)">
							<title>svg_24</title>
							<g id="shape5255-12">
								<title>Sheet.5255</title>
								<path d="M27.8 130.24 L16.27 101.84 C15.94 101.02 15.28 100.58 14.47 100.58 C13.67 100.58 12.96 101.02
											 12.63 101.84 L0 132.99 L4.31 132.99 L9.32 120.14 L24.27 132.5 C24.87 133.01 25.31 133.23
											 25.87 133.23 C27.01 133.23 28 132.36 28 131.1 C28 130.91 27.94 130.6 27.8 130.24 ZM14.5
											 106.94 L21.98 125.87 L10.68 116.74 L14.5 106.94 Z" class="st3"/>
							</g>
						</g>
					</g>
				</g>
			</g>
		</g>
	</g>
</svg>
