<?xml version="1.0" encoding="UTF-8" standalone="no"?>
<!DOCTYPE svg PUBLIC "-//W3C//DTD SVG 1.1//EN" "http://www.w3.org/Graphics/SVG/1.1/DTD/svg11.dtd">
<!-- Generated by Microsoft Visio, SVG Export App Scale Up.svg Page-1 -->
<svg xmlns="http://www.w3.org/2000/svg" xmlns:xlink="http://www.w3.org/1999/xlink" xmlns:ev="http://www.w3.org/2001/xml-events"
		width="1.77607in" height="2.26599in" viewBox="0 0 127.877 163.151" xml:space="preserve" color-interpolation-filters="sRGB"
		class="st4">
	<style type="text/css">
	<![CDATA[
		.st1 {fill:url(#grad0-6);stroke:none;stroke-linecap:butt;stroke-width:35.5922}
		.st2 {fill:#b3b3b3;stroke:none;stroke-linecap:butt;stroke-width:35.5922}
		.st3 {fill:#76bc2d;stroke:none;stroke-linecap:butt;stroke-width:35.5922}
		.st4 {fill:none;fill-rule:evenodd;font-size:12px;overflow:visible;stroke-linecap:square;stroke-miterlimit:3}
	]]>
	</style>

	<defs id="Patterns_And_Gradients">
		<linearGradient id="grad0-6" x1="0" y1="0" x2="1" y2="0" gradientTransform="rotate(69.776807372655 0.5 0.5)">
			<stop offset="0" stop-color="#6bb9f2" stop-opacity="1"/>
			<stop offset="1" stop-color="#1b93eb" stop-opacity="1"/>
		</linearGradient>
	</defs>
	<g>
		<title>Page-1</title>
		<g id="group5159-1" transform="translate(35.5922,-70.8661)">
			<title>App Scale Up</title>
			<g id="group5160-2">
				<title>MsPortalFx.base.images-54</title>
				<g id="shape5161-3" transform="translate(22.2858,-22.3718)">
					<title>path4</title>
					<path d="M34.41 146.75 L34.41 129.45 a0.625185 0.623622 -180 0 0 -0.639394 -0.623622 L16.44 128.83 a0.621633
								 0.620079 -180 0 0 -0.440471 1.06299 L20.77 134.66 L21.09 134.97 a0.628737 0.627165 0 0 1 -7.4607E-14
								 0.882283 L0.18 156.71 a0.628737 0.627165 -180 0 0 -5.16254E-15 0.882283 L5.57 162.97 a0.628737 0.627165
								 -180 0 0 0.884495 0 L27.37 142.11 a0.625185 0.623622 0 0 1 0.884495 -1.13687E-13 L28.57 142.43 L33.34
								 147.19 a0.621633 0.620079 -180 0 0 1.06566 -0.43937 Z" class="st1"/>
				</g>
				<g id="shape5162-7" transform="translate(7.40276,-8.26299)">
					<title>path6</title>
					<path d="M36.55 144.4 L36.55 157.06 A1.45995 1.4563 0 0 1 35.1 158.52 L6.12 158.52 A1.4564 1.45276 0 0 1 4.66
								 157.06 L4.66 129.78 A1.4564 1.45276 0 0 1 6.12 128.33 L20.64 128.33 a0.799242 0.797244 -180 0 0
								 0.799242 -0.797244 L21.44 124.49 a0.799242 0.797244 -180 0 0 -0.799242 -0.797244 L1.46 123.69 A1.45995
								 1.4563 -180 0 0 0 125.15 L0 161.7 A1.4564 1.45276 -180 0 0 1.46 163.15 L39.74 163.15 A1.4564 1.45276
								 -180 0 0 41.2 161.7 L41.2 144.4 a0.799242 0.797244 -180 0 0 -0.802794 -0.797244 L37.35 143.61 a0.799242
								 0.797244 -180 0 0 -0.799242 0.797244 Z" class="st2"/>
				</g>
				<g id="shape5163-9">
					<title>path8</title>
					<path d="M52.14 159.5 L55.79 159.5 L55.79 163.15 L52.14 163.15 L52.14 159.5 ZM48.41 163.15 L44.69 163.15 L44.69
								 159.5 L48.42 159.5 L48.41 163.15 ZM40.95 163.15 L37.23 163.15 L37.23 159.5 L40.95 159.5 L40.95 163.15
								 ZM33.49 163.15 L29.77 163.15 L29.77 159.5 L33.5 159.5 L33.49 163.15 ZM26.03 163.15 L22.31 163.15
								 L22.31 159.5 L26.03 159.5 L26.03 163.15 ZM18.57 163.15 L14.85 163.15 L14.85 159.5 L18.58 159.5 L18.57
								 163.15 ZM11.11 163.15 L7.39 163.15 L7.39 159.5 L11.11 159.5 L11.11 163.15 ZM0 159.5 L3.66 159.5
								 L3.66 163.15 L0 163.15 L0 159.5 ZM3.66 155.78 L0 155.78 L0 152.06 L3.66 152.06 L3.66 155.78 ZM3.66
								 148.34 L0 148.34 L0 144.62 L3.66 144.62 L3.66 148.34 ZM3.66 140.9 L0 140.9 L0 137.19 L3.66 137.19
								 L3.66 140.9 ZM3.66 133.46 L0 133.46 L0 129.75 L3.66 129.75 L3.66 133.46 ZM3.66 126.02 L0 126.02
								 L0 122.31 L3.66 122.31 L3.66 126.02 ZM3.66 118.58 L0 118.58 L0 114.87 L3.66 114.87 L3.66 118.58
								 ZM0 107.5 L3.66 107.5 L3.66 111.15 L0 111.15 L0 107.5 ZM26.03 111.15 L22.31 111.15 L22.31 107.5
								 L26.03 107.5 L26.03 111.15 ZM18.57 111.15 L14.85 111.15 L14.85 107.5 L18.58 107.5 L18.57 111.15
								 ZM11.11 111.15 L7.39 111.15 L7.39 107.5 L11.11 107.5 L11.11 111.15 ZM55.79 155.78 L52.15 155.78
								 L52.15 152.06 L55.8 152.06 L55.79 155.78 ZM55.79 148.34 L52.15 148.34 L52.15 144.62 L55.8 144.62
								 L55.79 148.34 ZM55.79 140.9 L52.15 140.9 L52.15 137.19 L55.8 137.19 L55.79 140.9 Z" class="st3"/>
				</g>
			</g>
		</g>
	</g>
</svg>
