<?xml version="1.0" encoding="UTF-8" standalone="no"?>
<!DOCTYPE svg PUBLIC "-//W3C//DTD SVG 1.1//EN" "http://www.w3.org/Graphics/SVG/1.1/DTD/svg11.dtd">
<!-- Generated by Microsoft Visio, SVG Export Application Security Group.svg Page-1 -->
<svg xmlns="http://www.w3.org/2000/svg" xmlns:xlink="http://www.w3.org/1999/xlink" xmlns:ev="http://www.w3.org/2001/xml-events"
		width="1.57437in" height="2.24388in" viewBox="0 0 113.354 161.559" xml:space="preserve" color-interpolation-filters="sRGB"
		class="st11">
	<style type="text/css">
	<![CDATA[
		.st1 {fill:#1b93eb;stroke:none;stroke-linecap:butt;stroke-width:34}
		.st2 {fill:url(#grad0-8);stroke:none;stroke-linecap:butt;stroke-width:34}
		.st3 {fill:#1f56a3;stroke:none;stroke-linecap:butt;stroke-width:34}
		.st4 {fill:#1490df;stroke:none;stroke-linecap:butt;stroke-width:34}
		.st5 {fill:#ffffff;stroke:none;stroke-linecap:butt;stroke-width:34}
		.st6 {fill:#0078d4;stroke:none;stroke-linecap:butt;stroke-width:34}
		.st7 {fill:#83b9f9;stroke:none;stroke-linecap:butt;stroke-width:34}
		.st8 {fill:#5ea0ef;stroke:none;stroke-linecap:butt;stroke-width:34}
		.st9 {fill:#5ea0ef;fill-opacity:0.2;stroke:none;stroke-linecap:butt;stroke-width:34}
		.st10 {fill:#83b9f9;fill-opacity:0.2;stroke:none;stroke-linecap:butt;stroke-width:34}
		.st11 {fill:none;fill-rule:evenodd;font-size:12px;overflow:visible;stroke-linecap:square;stroke-miterlimit:3}
	]]>
	</style>

	<defs id="Patterns_And_Gradients">
		<linearGradient id="grad0-8" x1="0" y1="0" x2="1" y2="0" gradientTransform="rotate(90 0.5 0.5)">
			<stop offset="0" stop-color="#6bb9f2" stop-opacity="1"/>
			<stop offset="1" stop-color="#1b93eb" stop-opacity="1"/>
		</linearGradient>
	</defs>
	<g>
		<title>Page-1</title>
		<g id="group5067-1" transform="translate(34,-70.8661)">
			<title>Application Security Group</title>
			<g id="group5068-2">
				<title>Icon-networking-83</title>
				<g id="shape5069-3">
					<title>Sheet.5069</title>
					<path d="M45.35 131.33 C45.35 146.57 27.33 158.86 23.42 161.35 A1.41732 1.44901 0 0 1 21.94 161.35 C18.02 158.86
								 0 146.57 0 131.33 L0 112.99 A1.41732 1.44901 0 0 1 1.39 111.54 C15.41 111.17 12.17 104.87 22.68
								 104.87 C33.18 104.87 29.95 111.17 43.97 111.54 A1.41732 1.44901 0 0 1 45.35 112.99 L45.35 131.33
								 Z" class="st1"/>
				</g>
				<g id="shape5070-5" transform="translate(1.87949,-2.35317)">
					<title>Sheet.5070</title>
					<path d="M41.6 133.84 C41.6 147.82 25.08 159.04 21.48 161.37 A1.32489 1.35451 0 0 1 20.12 161.37 C16.51 159.1
								 0 147.82 0 133.84 L0 117.02 A1.29408 1.32301 0 0 1 1.26 115.69 C14.11 115.35 11.15 109.58 20.8 109.58
								 C30.44 109.58 27.48 115.35 40.33 115.69 A1.29408 1.32301 0 0 1 41.6 117.02 L41.6 133.84 Z"
							class="st2"/>
				</g>
				<g id="shape5071-9" transform="translate(14.05,-14.2935)">
					<title>Sheet.5071</title>
					<path d="M14.94 159.92 C11.49 159.45 11.52 157.15 11.55 153.62 L5.02 153.62 C5.02 157.31 5.02 159.61 1.63 159.92
								 A1.78706 1.82702 -180 0 0 0 161.56 L16.61 161.56 A1.81787 1.85852 -180 0 0 14.94 159.92 Z"
							class="st3"/>
				</g>
				<g id="shape5072-11" transform="translate(7.33311,-22.2946)">
					<title>Sheet.5072</title>
					<path d="M0 160.52 A1.0168 1.03953 -180 0 0 1.02 161.56 L28.93 161.56 A1.0168 1.03953 -180 0 0 29.95 160.52 L29.95
								 140.93 A1.0168 1.03953 -180 0 0 28.93 139.89 L1.02 139.89 A1.0168 1.03953 -180 0 0 0 140.93 L0 160.52
								 Z" class="st4"/>
				</g>
				<g id="shape5073-13" transform="translate(9.05854,-24.3106)">
					<title>Sheet.5073</title>
					<path d="M0 161.06 a0.492993 0.504017 -180 0 0 0.492982 0.504005 L25.97 161.56 a0.492993 0.504017 -180 0 0 0.492982
								 -0.504005 L26.47 144.08 a0.492993 0.504017 -180 0 0 -0.492982 -0.504005 L0.49 143.57 a0.492993 0.504017
								 -180 0 0 -0.492982 0.504005 L0 161.06 Z" class="st5"/>
				</g>
				<g id="shape5074-15" transform="translate(22.3074,-26.9566)">
					<title>Sheet.5074</title>
					<path d="M5.36 152.05 L5.39 158.38 L0 161.56 L0 155.23 L5.36 152.05 Z" class="st6"/>
				</g>
				<g id="shape5075-17" transform="translate(16.9154,-33.2882)">
					<title>Sheet.5075</title>
					<path d="M10.75 158.38 L5.39 161.56 L0 158.38 L5.36 155.2 L10.75 158.38 Z" class="st7"/>
				</g>
				<g id="shape5076-19" transform="translate(16.9154,-26.9566)">
					<title>Sheet.5076</title>
					<path d="M5.39 155.23 L5.36 161.56 L0 158.38 L0 152.05 L5.39 155.23 Z" class="st8"/>
				</g>
				<g id="shape5077-21" transform="translate(22.3074,-26.9566)">
					<title>Sheet.5077</title>
					<path d="M0 155.23 L0 161.56 L5.36 158.38 L0 155.23 Z" class="st9"/>
				</g>
				<g id="shape5078-23" transform="translate(16.9154,-26.8621)">
					<title>Sheet.5078</title>
					<path d="M5.36 155.2 L5.39 155.23 L5.39 161.56 L5.36 161.56 L0 158.38 L5.36 155.2 Z" class="st10"/>
				</g>
			</g>
		</g>
	</g>
</svg>
