<?xml version="1.0" encoding="UTF-8" standalone="no"?>
<!DOCTYPE svg PUBLIC "-//W3C//DTD SVG 1.1//EN" "http://www.w3.org/Graphics/SVG/1.1/DTD/svg11.dtd">
<!-- Generated by Microsoft Visio, SVG Export Application Proxy.svg Page-1 -->
<svg xmlns="http://www.w3.org/2000/svg" xmlns:xlink="http://www.w3.org/1999/xlink" xmlns:ev="http://www.w3.org/2001/xml-events"
		width="2.4874in" height="2.62165in" viewBox="0 0 179.093 188.759" xml:space="preserve" color-interpolation-filters="sRGB"
		class="st4">
	<style type="text/css">
	<![CDATA[
		.st1 {fill:#0072c6;stroke:none;stroke-linecap:butt;stroke-width:61.2}
		.st2 {fill:#b8d432;stroke:none;stroke-linecap:butt;stroke-width:61.2}
		.st3 {fill:#ffffff;stroke:none;stroke-linecap:butt;stroke-width:61.2}
		.st4 {fill:none;fill-rule:evenodd;font-size:12px;overflow:visible;stroke-linecap:square;stroke-miterlimit:3}
	]]>
	</style>

	<g>
		<title>Page-1</title>
		<g id="group5087-1" transform="translate(61.2,-70.8661)">
			<title>Application Proxy</title>
			<g id="group5088-2">
				<title>Sheet.5088</title>
				<g id="shape5089-3" transform="translate(0,-8.5859)">
					<title>Sheet.5089</title>
					<path d="M0 140.65 L13.66 140.65 L13.66 154.57 L0 154.57 L0 140.65 ZM16.15 140.65 L31.06 140.65 L31.06 154.57
								 L16.15 154.57 L16.15 140.65 ZM33.54 140.65 L47.2 140.65 L47.2 154.57 L33.54 154.57 L33.54 140.65
								 ZM0 157.11 L13.66 157.11 L13.66 171.03 L0 171.03 L0 157.11 ZM16.15 157.11 L31.06 157.11 L31.06 171.03
								 L16.15 171.03 L16.15 157.11 ZM33.54 157.11 L47.2 157.11 L47.2 171.03 L33.54 171.03 L33.54 157.11
								 ZM0 173.57 L13.66 173.57 L13.66 188.76 L0 188.76 L0 173.57 ZM16.15 173.57 L31.06 173.57 L31.06 188.76
								 L16.15 188.76 L16.15 173.57 ZM33.54 173.57 L47.2 173.57 L47.2 188.76 L33.54 188.76 L33.54 173.57
								 Z" class="st1"/>
				</g>
				<g id="shape5090-5" transform="translate(8.30551,-2.84217E-13)">
					<title>Sheet.5090</title>
					<path d="M24.14 188.76 A4.53543 4.62151 0 0 1 20.96 187.38 L1.35 167.4 A4.54252 4.62873 0 0 1 0 164.16 A4.53543
								 4.62151 0 0 1 1.35 160.91 L20.96 140.93 C21.83 140.04 22.99 139.55 24.15 139.55 C25.31 139.55 26.47
								 140.04 27.34 140.93 L47.04 161 C47.91 161.89 48.39 162.97 48.39 164.25 A4.53543 4.62151 0 0 1 47.03
								 167.5 L27.33 187.38 A4.53543 4.62151 0 0 1 24.14 188.76 Z" class="st2"/>
				</g>
				<g id="shape5091-7" transform="translate(14.485,-4.33266)">
					<title>Sheet.5091</title>
					<path d="M17.96 148.21 L11.59 154.71 L16.13 154.71 L16.13 164.16 L19.9 164.16 L19.9 154.71 L24.34 154.71 L17.96
								 148.21 ZM17.96 188.76 L24.34 182.27 L19.8 182.27 L19.8 173.02 L16.03 173.02 L16.03 182.27 L11.59
								 182.27 L17.96 188.76 ZM20.96 168.49 L27.33 174.98 L27.33 170.45 L35.93 170.45 L35.93 166.52 L27.33
								 166.52 L27.33 161.99 L20.96 168.49 ZM15.07 168.49 L8.69 161.99 L8.69 166.52 L0 166.52 L0 170.45
								 L8.69 170.45 L8.69 174.98 L15.07 168.49 Z" class="st3"/>
				</g>
			</g>
		</g>
	</g>
</svg>
