<?xml version="1.0" encoding="UTF-8" standalone="no"?>
<!DOCTYPE svg PUBLIC "-//W3C//DTD SVG 1.1//EN" "http://www.w3.org/Graphics/SVG/1.1/DTD/svg11.dtd">
<!-- Generated by Microsoft Visio, SVG Export Azure Active Directory Authentication method.svg Page-1 -->
<svg xmlns="http://www.w3.org/2000/svg" xmlns:xlink="http://www.w3.org/1999/xlink" xmlns:ev="http://www.w3.org/2001/xml-events"
		width="1.73185in" height="2.18285in" viewBox="0 0 124.693 157.165" xml:space="preserve" color-interpolation-filters="sRGB"
		class="st9">
	<style type="text/css">
	<![CDATA[
		.st1 {fill:#50e6ff;stroke:none;stroke-linecap:butt;stroke-width:34}
		.st2 {fill:#ffffff;stroke:none;stroke-linecap:butt;stroke-width:34}
		.st3 {fill:url(#grad0-12);stroke:none;stroke-linecap:butt;stroke-width:34}
		.st4 {fill:#53b1e0;stroke:none;stroke-linecap:butt;stroke-width:34}
		.st5 {fill:#9cebff;stroke:none;stroke-linecap:butt;stroke-width:34}
		.st6 {fill:url(#grad0-20);stroke:none;stroke-linecap:butt;stroke-width:34}
		.st7 {fill:#ffca00;stroke:none;stroke-linecap:butt;stroke-width:34}
		.st8 {fill:#ff9300;fill-opacity:0.75;stroke:none;stroke-linecap:butt;stroke-width:34}
		.st9 {fill:none;fill-rule:evenodd;font-size:12px;overflow:visible;stroke-linecap:square;stroke-miterlimit:3}
	]]>
	</style>

	<defs id="Patterns_And_Gradients">
		<linearGradient id="grad0-12" x1="0" y1="0" x2="1" y2="0" gradientTransform="rotate(-133.50152230549 0.5 0.5)">
			<stop offset="0" stop-color="#1988d9" stop-opacity="1"/>
			<stop offset="0.9" stop-color="#54aef0" stop-opacity="1"/>
		</linearGradient>
		<linearGradient id="grad0-20" x1="0" y1="0" x2="1" y2="0" gradientTransform="rotate(65.832309755673 0.5 0.5)">
			<stop offset="0.1" stop-color="#54aef0" stop-opacity="1"/>
			<stop offset="0.29" stop-color="#4fabee" stop-opacity="1"/>
			<stop offset="0.51" stop-color="#41a2e9" stop-opacity="1"/>
			<stop offset="0.74" stop-color="#2a93e0" stop-opacity="1"/>
			<stop offset="0.88" stop-color="#1988d9" stop-opacity="1"/>
		</linearGradient>
	</defs>
	<g>
		<title>Page-1</title>
		<g id="group4981-1" transform="translate(34,-69.3071)">
			<title>Azure Active Directory Authentication method</title>
			<g id="group4982-2">
				<title>Icon-identity-227</title>
				<g id="shape4983-3" transform="translate(0,-2.82519)">
					<title>Sheet.4983</title>
					<path d="M3.2 135.34 L28.12 151.34 L53.49 135.31 L56.69 138.95 L28.12 157.17 L0 138.98 L3.2 135.34 Z"
							class="st1"/>
				</g>
				<g id="shape4984-5" transform="translate(5.06072,-11.9484)">
					<title>Sheet.4984</title>
					<path d="M0 142.44 L23.06 115.26 L46.6 142.47 L23.06 157.17 L0 142.44 Z" class="st2"/>
				</g>
				<g id="shape4985-7" transform="translate(5.06072,-11.9484)">
					<title>Sheet.4985</title>
					<path d="M23.06 115.26 L23.06 157.17 L0 142.44 L23.06 115.26 Z" class="st1"/>
				</g>
				<g id="shape4986-9" transform="translate(28.1222,-11.9484)">
					<title>Sheet.4986</title>
					<path d="M0 115.26 L0 157.17 L23.54 142.47 L0 115.26 Z" class="st3"/>
				</g>
				<g id="shape4987-13" transform="translate(28.1222,-11.9484)">
					<title>Sheet.4987</title>
					<path d="M0 136.89 L23.54 142.47 L0 157.17 L0 136.89 Z" class="st4"/>
				</g>
				<g id="shape4988-15" transform="translate(5.06072,-11.9484)">
					<title>Sheet.4988</title>
					<path d="M23.06 157.17 L0 142.44 L23.06 136.89 L23.06 157.17 Z" class="st5"/>
				</g>
				<g id="shape4989-17" transform="translate(28.1222,-2.82519)">
					<title>Sheet.4989</title>
					<path d="M0 157.17 L28.57 138.95 L25.37 135.31 L0 151.34 L0 157.17 Z" class="st6"/>
				</g>
				<g id="shape4990-21" transform="translate(32.6502,-2.55795E-13)">
					<title>Sheet.4990</title>
					<path d="M19.14 137.77 A3.71547 3.67464 -180 0 0 19.14 132.55 L12.74 126.21 A3.71547 3.67464 -180 0 0 7.48 126.21
								 L1.08 132.55 A3.77953 3.73799 -180 0 0 1.08 137.77 L6.43 143.06 A1.02496 1.01369 0 0 1 6.71 143.79
								 L6.71 153.61 A1.15308 1.1404 -180 0 0 7.1 154.5 L9.53 156.91 a0.800747 0.791947 -180 0 0 1.18511
								 0 L13.06 154.59 L14.47 153.2 a0.480448 0.475168 -180 0 0 0 -0.665236 L13.47 151.55 a0.512478 0.506846
								 0 0 1 1.24345E-14 -0.760269 L14.47 149.81 a0.512478 0.506846 -180 0 0 -1.95399E-14 -0.696914 L13.47
								 148.13 a0.480448 0.475168 0 0 1 8.88178E-15 -0.728591 L14.47 146.39 a0.480448 0.475168 -180 0 0
								 2.4869E-14 -0.665236 L13.06 144.33 L13.06 143.82 L19.14 137.77 ZM10.11 127.73 A2.11397 2.09074 0
								 1 1 8 129.82 A2.11397 2.09074 0 0 1 10.11 127.73 Z" class="st7"/>
				</g>
				<g id="shape4991-23" transform="translate(41.0176,-3.07901)">
					<title>Sheet.4991</title>
					<path d="M0.14 157.07 a0.448419 0.44349 -180 0 0 0.768717 -0.348457 L0.91 148.61 a0.512478 0.506846 -180 0 0
								 -0.192179 -0.411813 a0.448419 0.44349 -180 0 0 -0.704658 0.411813 L0.01 156.56 a0.480448 0.475168
								 -180 0 0 0.12812 0.506846 Z" class="st8"/>
				</g>
				<g id="shape4992-25" transform="translate(37.6351,-21.2617)">
					<title>Sheet.4992</title>
					<path d="M-0 156.6 a0.576551 0.570215 -180 0 0 0.576538 0.570202 L9.96 157.17 a0.576551 0.570215 -180 0 0 0.576538
								 -0.570202 L10.54 156.5 a0.576551 0.570215 -180 0 0 -0.576538 -0.570202 L0.58 155.93 a0.576551 0.570215
								 -180 0 0 -0.576538 0.570202 L0 156.6 Z" class="st8"/>
				</g>
				<g id="shape4993-27" transform="translate(37.6351,-19.266)">
					<title>Sheet.4993</title>
					<path d="M-0 156.6 a0.576551 0.570215 -180 0 0 0.576538 0.570202 L9.96 157.17 a0.576551 0.570215 -180 0 0 0.576538
								 -0.570202 L10.54 156.5 a0.576551 0.570215 -180 0 0 -0.576538 -0.570202 L0.58 155.93 a0.576551 0.570215
								 -180 0 0 -0.576538 0.570202 L0 156.6 Z" class="st8"/>
				</g>
			</g>
		</g>
	</g>
</svg>
