<?xml version="1.0" encoding="UTF-8" standalone="no"?>
<!DOCTYPE svg PUBLIC "-//W3C//DTD SVG 1.1//EN" "http://www.w3.org/Graphics/SVG/1.1/DTD/svg11.dtd">
<!-- Generated by Microsoft Visio, SVG Export Azure Active Directory Verifiable Credential.svg Page-1 -->
<svg xmlns="http://www.w3.org/2000/svg" xmlns:xlink="http://www.w3.org/1999/xlink" xmlns:ev="http://www.w3.org/2001/xml-events"
		width="1.5748in" height="2.03728in" viewBox="0 0 113.386 146.684" xml:space="preserve" color-interpolation-filters="sRGB"
		class="st8">
	<style type="text/css">
	<![CDATA[
		.st1 {fill:url(#grad0-6);stroke:none;stroke-linecap:butt;stroke-width:19.125}
		.st2 {fill:#773adc;stroke:none;stroke-linecap:butt;stroke-width:19.125}
		.st3 {fill:url(#grad0-12);stroke:none;stroke-linecap:butt;stroke-width:19.125}
		.st4 {fill:#f2f2f2;stroke:none;stroke-linecap:butt;stroke-width:19.125}
		.st5 {fill:url(#grad0-18);stroke:none;stroke-linecap:butt;stroke-width:19.125}
		.st6 {fill:url(#grad0-22);stroke:none;stroke-linecap:butt;stroke-width:19.125}
		.st7 {fill:#b4ec36;stroke:none;stroke-linecap:butt;stroke-width:19.125}
		.st8 {fill:none;fill-rule:evenodd;font-size:12px;overflow:visible;stroke-linecap:square;stroke-miterlimit:3}
	]]>
	</style>

	<defs id="Patterns_And_Gradients">
		<linearGradient id="grad0-6" x1="0" y1="0" x2="1" y2="0" gradientTransform="rotate(82.992708226367 0.5 0.5)">
			<stop offset="0.5" stop-color="#b796f9" stop-opacity="1"/>
			<stop offset="0.9" stop-color="#a67af4" stop-opacity="1"/>
		</linearGradient>
		<linearGradient id="grad0-12" x1="0" y1="0" x2="1" y2="0" gradientTransform="rotate(86.979750121025 0.5 0.5)">
			<stop offset="0" stop-color="#a67af4" stop-opacity="1"/>
			<stop offset="0.24" stop-color="#9065db" stop-opacity="1"/>
			<stop offset="0.75" stop-color="#653eab" stop-opacity="1"/>
			<stop offset="1" stop-color="#552f99" stop-opacity="1"/>
		</linearGradient>
		<linearGradient id="grad0-18" x1="0" y1="0" x2="1" y2="0" gradientTransform="rotate(84.993223028636 0.5 0.5)">
			<stop offset="0" stop-color="#a67af4" stop-opacity="1"/>
			<stop offset="0.24" stop-color="#9065db" stop-opacity="1"/>
			<stop offset="0.75" stop-color="#653eab" stop-opacity="1"/>
			<stop offset="1" stop-color="#552f99" stop-opacity="1"/>
		</linearGradient>
		<linearGradient id="grad0-22" x1="0" y1="0" x2="1" y2="0" gradientTransform="rotate(-90 0.5 0.5)">
			<stop offset="0" stop-color="#76bc2d" stop-opacity="1"/>
			<stop offset="0.31" stop-color="#7ac22e" stop-opacity="1"/>
			<stop offset="0.72" stop-color="#84d332" stop-opacity="1"/>
			<stop offset="0.785" stop-color="#86d633" stop-opacity="1"/>
		</linearGradient>
	</defs>
	<g>
		<title>Page-1</title>
		<g id="group4861-1" transform="translate(28.3465,-70.8661)">
			<title>Azure Active Directory Verifiable Credential</title>
			<g id="group4862-2">
				<title>Sheet.4862</title>
				<g id="shape4863-3" transform="translate(0,-1.50336)">
					<title>Sheet.4863</title>
					<path d="M37.77 91.49 L1.92 91.49 C0.86 91.49 0 92.35 0 93.39 L0 144.78 C0 145.83 0.86 146.68 1.92 146.68 L37.77
								 146.68 A1.91919 1.89917 -180 0 0 39.69 144.78 L39.69 93.39 C39.69 92.35 38.83 91.49 37.77 91.49
								 Z" class="st1"/>
				</g>
				<g id="shape4864-7" transform="translate(8.43368,-11.3223)">
					<title>Sheet.4864</title>
					<path d="M1 146.68 L21.82 146.68 C22.38 146.68 22.82 146.24 22.82 145.69 L22.82 143.65 a1.00444 0.993959 -180
								 0 0 -1.00444 -0.993959 L1 142.66 a1.00444 0.993959 -180 0 0 -1.00444 0.993959 L0 145.69 C0 146.24
								 0.45 146.68 1 146.68 L1 146.68 ZM1 138.87 L21.82 138.87 C22.38 138.87 22.82 138.43 22.82 137.88
								 L22.82 135.84 a1.00444 0.993959 -180 0 0 -1.00444 -0.993959 L1 134.85 a1.00444 0.993959 -180 0 0
								 -1.00444 0.993959 L0 137.88 C0 138.43 0.45 138.87 1 138.87 Z" class="st2"/>
				</g>
				<g id="shape4865-9" transform="translate(9.89011,-27.7243)">
					<title>Sheet.4865</title>
					<path d="M18.14 146.68 A1.70934 1.6915 -180 0 0 19.91 145 A1.11205 1.10045 -180 0 0 19.91 144.8 C19.21 139.28
								 16.04 134.82 10 134.82 C3.96 134.82 0.66 138.61 0 144.75 A1.78467 1.76605 -180 0 0 1.6 146.68 L18.14
								 146.68 L18.14 146.68 Z" class="st3"/>
				</g>
				<g id="shape4866-13" transform="translate(17.0073,-31.4357)">
					<title>Sheet.4866</title>
					<path d="M2.95 139.84 A5.54054 5.48275 0 0 1 -0 138.96 L2.95 146.68 L5.94 139.01 A5.67686 5.61764 0 0 1 2.95
								 139.84 Z" class="st4"/>
				</g>
				<g id="shape4867-15" transform="translate(14.3428,-38.2816)">
					<title>Sheet.4867</title>
					<path d="M5.58 146.68 A5.5809 5.52268 -180 0 0 5.58 135.64 A5.5809 5.52268 -180 1 0 5.58 146.68 Z" class="st5"/>
				</g>
				<g id="shape4868-19" transform="translate(27.8974,2.84217E-13)">
					<title>Sheet.4868</title>
					<path d="M15.83 118.88 L17.47 119.93 C17.89 120.2 18.38 120.34 18.89 120.35 L20.85 120.35 A2.62409 2.59672 0
								 0 1 23.24 121.86 L24.06 123.63 C24.27 124.08 24.6 124.47 25.02 124.73 L26.66 125.78 A2.62409 2.59672
								 0 0 1 27.84 128.33 L27.56 130.26 C27.49 130.75 27.56 131.25 27.77 131.7 L28.59 133.47 A2.62409 2.59672
								 0 0 1 28.18 136.25 L26.9 137.71 A2.58463 2.55767 -180 0 0 26.29 139.04 L26.01 140.97 A2.62409 2.59672
								 0 0 1 24.15 143.09 L22.27 143.64 C21.78 143.77 21.35 144.05 21.02 144.42 L19.74 145.89 A2.6223 2.59494
								 0 0 1 17.02 146.68 L15.14 146.13 A2.62588 2.59849 -180 0 0 13.66 146.13 L11.78 146.68 A2.62409 2.59672
								 0 0 1 9.06 145.89 L7.77 144.42 A2.60615 2.57897 -180 0 0 6.53 143.63 L4.64 143.09 A2.62588 2.59849
								 0 0 1 2.79 140.97 L2.51 139.04 A2.58642 2.55944 -180 0 0 1.89 137.71 L0.61 136.25 A2.62409 2.59672
								 0 0 1 0.21 133.47 L1.02 131.7 C1.23 131.25 1.3 130.75 1.23 130.26 L0.95 128.33 A2.62588 2.59849
								 0 0 1 2.13 125.78 L3.77 124.74 C4.19 124.47 4.53 124.08 4.74 123.63 L5.56 121.87 A2.62409 2.59672
								 0 0 1 7.94 120.35 L9.91 120.35 C10.41 120.35 10.9 120.2 11.33 119.93 L12.97 118.89 A2.62409 2.59672
								 0 0 1 15.83 118.89 L15.83 118.88 Z" class="st6"/>
				</g>
				<g id="shape4869-23" transform="translate(32.1473,-4.05571)">
					<title>Sheet.4869</title>
					<path d="M9.84 127.2 A9.84348 9.74079 -180 1 0 9.84 146.68 A9.84348 9.74079 -180 0 0 9.84 127.2 Z" class="st7"/>
				</g>
			</g>
		</g>
	</g>
</svg>
