<?xml version="1.0" encoding="UTF-8" standalone="no"?>
<!DOCTYPE svg PUBLIC "-//W3C//DTD SVG 1.1//EN" "http://www.w3.org/Graphics/SVG/1.1/DTD/svg11.dtd">
<!-- Generated by Microsoft Visio, SVG Export Azure Arc PostgreSQL Server Group.svg Page-1 -->
<svg xmlns="http://www.w3.org/2000/svg" xmlns:xlink="http://www.w3.org/1999/xlink" xmlns:ev="http://www.w3.org/2001/xml-events"
		width="1.68993in" height="2.24388in" viewBox="0 0 121.675 161.559" xml:space="preserve" color-interpolation-filters="sRGB"
		class="st11">
	<style type="text/css">
	<![CDATA[
		.st1 {fill:#5ea0ef;stroke:none;stroke-linecap:butt;stroke-width:34}
		.st2 {fill:#50e6ff;stroke:none;stroke-linecap:butt;stroke-width:34}
		.st3 {fill:url(#grad0-10);stroke:none;stroke-linecap:butt;stroke-width:34}
		.st4 {fill:#e8e8e8;stroke:none;stroke-linecap:butt;stroke-width:34}
		.st5 {fill:#50e6ff}
		.st6 {stroke:none;stroke-linecap:butt;stroke-width:34}
		.st7 {fill:#198ab3;stroke:none;stroke-linecap:butt;stroke-width:34}
		.st8 {fill:#f2f2f2;stroke:none;stroke-linecap:butt;stroke-width:34}
		.st9 {fill:#76bc2d;stroke:none;stroke-linecap:butt;stroke-width:34}
		.st10 {fill:#ffffff;stroke:none;stroke-linecap:butt;stroke-width:34}
		.st11 {fill:none;fill-rule:evenodd;font-size:12px;overflow:visible;stroke-linecap:square;stroke-miterlimit:3}
	]]>
	</style>

	<defs id="Patterns_And_Gradients">
		<linearGradient id="grad0-10" x1="0" y1="0" x2="1" y2="0" gradientTransform="rotate(0 0.5 0.5)">
			<stop offset="0" stop-color="#005ba1" stop-opacity="1"/>
			<stop offset="1" stop-color="#005ba1" stop-opacity="1"/>
		</linearGradient>
	</defs>
	<g>
		<title>Page-1</title>
		<g id="group4789-1" transform="translate(33.9071,-70.8661)">
			<title>Azure Arc PostgreSQL Server Group</title>
			<g id="group4790-2">
				<title>Sheet.4790</title>
				<g id="shape4791-3" transform="translate(0.0746201,0)">
					<title>Sheet.4791</title>
					<path d="M53.61 152.68 C53.11 154.9 50.37 157.08 45.42 158.78 A67.5472 68.2711 0 0 1 7.47 158.84 C2.91 157.21
								 0.45 155.14 0.07 153.01 C0 152.64 0.07 146.79 0.07 146.79 L53.69 146.29 C53.69 146.29 53.67 152.41
								 53.61 152.68 Z" class="st1"/>
				</g>
				<g id="shape4792-5" transform="translate(-1.43409,-5.23076) rotate(-0.575)">
					<title>Sheet.4792</title>
					<ellipse cx="26.8374" cy="152.181" rx="26.8374" ry="9.37799" class="st2"/>
				</g>
				<g id="shape4793-7" transform="translate(7.96373,-9.88204)">
					<title>Sheet.4793</title>
					<path d="M17.46 127.52 C7.82 127.52 0 124.77 0 121.14 L0 155.17 C0 158.67 7.68 161.5 17.21 161.56 L17.46 161.56
								 C27.11 161.56 34.92 158.8 34.92 155.17 L34.92 121.14 C34.92 124.69 27.1 127.52 17.46 127.52 Z"
							class="st3"/>
				</g>
				<g id="shape4794-11" transform="translate(7.96373,-43.918)">
					<title>Sheet.4794</title>
					<path d="M34.92 155.17 C34.92 158.73 27.1 161.56 17.46 161.56 C7.82 161.56 0 158.82 0 155.17 C0 151.53 7.82 148.78
								 17.46 148.78 C27.11 148.78 34.92 151.54 34.92 155.17 Z" class="st4"/>
				</g>
				<g id="shape4795-13" transform="translate(12.0225,-46.7519)">
					<title>Sheet.4795</title>
					<path d="M26.8 157.48 C26.8 159.74 20.78 161.56 13.39 161.56 C6.01 161.56 0 159.73 0 157.48 C0 155.23 6.02 153.43
								 13.4 153.43 C20.79 153.43 26.8 155.25 26.8 157.49 L26.8 157.48 Z" class="st5"/>
					<path d="M26.8 157.48 C26.8 159.74 20.78 161.56 13.39 161.56 C6.01 161.56 0 159.73 0 157.48 C0 155.23 6.02 153.43
								 13.4 153.43 C20.79 153.43 26.8 155.25 26.8 157.49" class="st6"/>
				</g>
				<g id="shape4796-16" transform="translate(14.8295,-46.7488)">
					<title>Sheet.4796</title>
					<path d="M10.6 158.48 A31.4626 31.7998 -180 0 0 -0 160.07 A31.1089 31.4424 -180 0 0 10.6 161.56 A30.3047 30.6295
								 -180 0 0 21.19 159.98 A32.32 32.6664 -180 0 0 10.6 158.48 Z" class="st7"/>
				</g>
				<g id="shape4797-18" transform="translate(13.728,-14.5568)">
					<title>Sheet.4797</title>
					<path d="M20.42 143.04 L20.42 144.19 A14.4795 14.6347 -180 0 0 20.21 145.93 A4.3279 4.37429 -180 0 0 20.34 147.19
								 A2.30008 2.32473 0 0 1 20.34 148.18 A4.54696 4.59569 0 0 1 19.66 150.55 a0.97323 0.983661 -180 0
								 0 -1.77636E-14 0.192937 L19.93 151.07 A28.7557 29.0639 -180 0 0 22.82 144.52 C23.58 141.91 23.66
								 140.04 23.06 139.24 A7.02228 7.09754 -180 0 0 15.77 136.87 A8.88425 8.97946 0 0 1 18.24 138.72 A6.19926
								 6.2657 0 0 1 20.42 143.04 ZM19.58 143.26 A3.12936 3.1629 -180 0 0 17.43 143.51 C16.64 144 16.88
								 145.02 17.43 146.26 A21.5707 21.8018 -180 0 0 18.37 148.6 L18.61 149.04 C18.75 149.26 18.83 149.45
								 18.92 149.59 L19.14 149.94 A3.4861 3.52347 -180 0 0 19.63 148.15 A7.16623 7.24303 -180 0 0 19.63
								 147.25 A4.1464 4.19084 -180 0 0 19.5 145.9 A16.4197 16.5957 0 0 1 19.71 144 A2.17177 2.19505 0 0
								 1 19.68 143.17 L19.58 143.26 ZM18.76 144.38 A1.04833 1.05957 0 0 1 18.27 144.66 a0.873091 0.882448
								 0 0 1 -0.381782 2.84217E-14 a0.625872 0.632579 0 0 1 -0.190891 -0.521878 C17.7 143.94 18.01 143.78
								 18.35 143.73 L18.87 143.73 C18.87 143.73 19.12 143.73 19.12 143.94 a0.544508 0.550344 0 0 1 -0.247219
								 0.357407 L18.76 144.38 ZM6 146.85 L6 146.37 A2.86023 2.89089 -180 0 0 6 145.9 A14.6517 14.8087 0
								 0 1 6 143.15 A13.9601 14.1097 0 0 1 6.82 140.12 A6.54975 6.61994 0 0 1 8.38 137.53 A12.9242 13.0628
								 -180 0 0 4.71 136.98 A5.06956 5.12389 -180 0 0 1.72 137.81 A5.44195 5.50028 -180 0 0 0 142.82 A33.5686
								 33.9284 -180 0 0 1.36 148.98 C2.3 152.12 3.35 154.04 4.27 154.36 C4.68 154.5 5.12 154.36 5.55 153.78
								 C6.32 152.83 7.03 152.05 7.43 151.57 A5.11024 5.16501 0 0 1 6.1 146.75 L6 146.85 ZM6.71 147.95 A5.94578
								 6.0095 -180 0 0 6.87 149.49 A4.13388 4.17819 -180 0 0 7.58 150.7 A2.70689 2.73591 -180 0 0 9.59
								 151.61 A5.66101 5.72168 0 0 1 10.22 149.96 A11.2657 11.3864 -180 0 0 10.79 148.34 A18.0564 18.2499
								 -180 0 0 10.79 145.28 A1.56468 1.58145 -180 0 0 10.63 144.46 A1.22045 1.23353 -180 0 0 10.29 143.69
								 A1.76809 1.78704 -180 0 0 9.53 143.25 L8.99 143.25 A4.24341 4.28889 -180 0 0 7.68 143.63 A5.41692
								 5.47497 -180 0 0 6.81 144.16 L6.81 146.14 A2.98854 3.02057 0 0 1 6.81 146.55 L6.81 147.62 L6.71
								 147.95 ZM8.51 144.25 A1.27052 1.28414 0 0 1 9.27 144.25 A1.68359 1.70164 0 0 1 9.79 144.41 C10.03
								 144.41 10.06 144.73 10.03 144.8 A1.03582 1.04692 0 0 1 9.72 145.16 a0.707235 0.714815 0 0 1 -0.162727
								 -0.110701 a0.938807 0.948869 0 0 1 -0.763563 -0.768584 L8.51 144.25 ZM10.52 152.5 a0.625872 0.632579
								 -180 0 0 -0.353617 0.164471 L9.79 153.14 C9.32 153.72 9.13 153.91 7.8 154.18 A1.41447 1.42963 -180
								 0 0 7.09 154.46 A1.56468 1.58145 -180 0 0 7.75 154.77 A3.22011 3.25462 -180 0 0 9.7 154.77 A4.75036
								 4.80128 -180 0 0 10.76 154.06 A1.63665 1.6542 -180 0 0 11.31 153.21 a0.97323 0.983661 -180 0 0 -0.272254
								 -0.771747 a0.406816 0.411177 -180 0 0 -0.406816 -0.0537692 L10.52 152.5 ZM23.07 152.5 A4.40926 4.45652
								 0 0 1 20 152.5 a0.625872 0.632579 -180 0 0 -0.381782 0 a0.823021 0.831842 -180 0 0 -0.463145 0.385873
								 A3.18256 3.21667 -180 0 0 19.15 153.74 A4.92248 4.97524 -180 0 0 22.15 153.47 A3.6989 3.73854 -180
								 0 0 23.45 152.52 L23.07 152.5 ZM16.53 146.61 C16.15 145.49 15.59 143.86 17.02 142.87 A3.68638 3.72589
								 0 0 1 19.46 142.46 A8.64642 8.73908 -180 0 0 17.72 139.3 L17.44 139.02 L17.27 138.85 A1.00139 1.01213
								 -180 0 0 17.11 138.69 A6.39641 6.46496 -180 0 0 15.28 137.53 A7.16936 7.2462 -180 0 0 12.26 136.93
								 A4.17769 4.22247 -180 0 0 10.36 137.24 A4.73159 4.7823 -180 0 0 9.54 137.56 A5.69856 5.75963 -180
								 0 0 7.52 140.31 A16.135 16.3079 -180 0 0 6.94 143.04 A4.51566 4.56406 0 0 1 9.66 142.4 A2.28756
								 2.31208 0 0 1 11.76 144.89 L11.76 144.91 A19.3363 19.5435 0 0 1 11.76 148.4 A10.2299 10.3395 0 0
								 1 11.14 150.14 C10.97 150.61 10.76 151.09 10.65 151.49 A1.36127 1.37586 0 0 1 11.68 151.87 A1.80564
								 1.82499 0 0 1 12.2 153.33 L12.26 153.33 L12.26 153.99 A17.781 17.9716 -180 0 0 12.91 160.71 A1.43638
								 1.45177 -180 0 0 13.57 161.28 A1.64917 1.66685 -180 0 0 14.41 161.56 A3.55182 3.58989 -180 0 0 17.14
								 160.61 A2.86023 2.89089 -180 0 0 17.92 158.79 C18.12 157.55 18.52 154.12 18.58 153.29 A1.95272 1.97365
								 0 0 1 18.82 152.08 A1.71176 1.7301 0 0 1 19.56 151.42 A14.5922 14.7486 0 0 1 16.64 146.45 L16.53
								 146.61 Z" class="st8"/>
				</g>
				<g id="shape4798-20" transform="translate(-64.7674,31.0455) rotate(-40.155)">
					<title>Sheet.4798</title>
					<ellipse cx="8.37729" cy="155.417" rx="8.37729" ry="6.14235" class="st9"/>
				</g>
				<g id="shape4799-22" transform="translate(35.6867,-12.3333)">
					<title>Sheet.4799</title>
					<path d="M4.11 159.42 A2.93847 2.96996 0 0 1 4.23 154.39 C7.36 152.12 7.56 155.39 5.05 155.82 C5.05 156.99 8.32
								 156.86 9.74 154.24 C11.33 151.27 6.67 149.4 2.64 153.89 C0.06 156.77 0 160.7 2.28 161.56 A6.88459
								 6.95837 -180 0 0 11.11 154.28 C8.92 159.41 5.83 160.15 4.11 159.42 Z" class="st10"/>
				</g>
			</g>
		</g>
	</g>
</svg>
