<?xml version="1.0" encoding="UTF-8" standalone="no"?>
<!DOCTYPE svg PUBLIC "-//W3C//DTD SVG 1.1//EN" "http://www.w3.org/Graphics/SVG/1.1/DTD/svg11.dtd">
<!-- Generated by Microsoft Visio, SVG Export Azure Database for PostgreSQL.svg Page-1 -->
<svg xmlns="http://www.w3.org/2000/svg" xmlns:xlink="http://www.w3.org/1999/xlink" xmlns:ev="http://www.w3.org/2001/xml-events"
		width="1.535in" height="2.24388in" viewBox="0 0 110.52 161.559" xml:space="preserve" color-interpolation-filters="sRGB"
		class="st6">
	<style type="text/css">
	<![CDATA[
		.st1 {fill:url(#grad0-6);stroke:none;stroke-linecap:butt;stroke-width:34}
		.st2 {fill:#e8e8e8;stroke:none;stroke-linecap:butt;stroke-width:34}
		.st3 {fill:#50e6ff;stroke:none;stroke-linecap:butt;stroke-width:34}
		.st4 {fill:#198ab3;stroke:none;stroke-linecap:butt;stroke-width:34}
		.st5 {fill:#f2f2f2;stroke:none;stroke-linecap:butt;stroke-width:34}
		.st6 {fill:none;fill-rule:evenodd;font-size:12px;overflow:visible;stroke-linecap:square;stroke-miterlimit:3}
	]]>
	</style>

	<defs id="Patterns_And_Gradients">
		<linearGradient id="grad0-6" x1="0" y1="0" x2="1" y2="0" gradientTransform="rotate(-0.0087329700482936 0.5 0.5)">
			<stop offset="0" stop-color="#005ba1" stop-opacity="1"/>
			<stop offset="0.07" stop-color="#0060a9" stop-opacity="1"/>
			<stop offset="0.36" stop-color="#0071c8" stop-opacity="1"/>
			<stop offset="0.52" stop-color="#0078d4" stop-opacity="1"/>
			<stop offset="0.64" stop-color="#0074cd" stop-opacity="1"/>
			<stop offset="0.82" stop-color="#006abb" stop-opacity="1"/>
			<stop offset="1" stop-color="#005ba1" stop-opacity="1"/>
		</linearGradient>
	</defs>
	<g>
		<title>Page-1</title>
		<g id="group4597-1" transform="translate(34,-70.8661)">
			<title>Azure Database for PostgreSQL</title>
			<g id="group4598-2">
				<title>Icon-databases-131</title>
				<g id="shape4599-3">
					<title>Sheet.4599</title>
					<path d="M21.26 120.34 C9.52 120.34 0 117.01 0 112.6 L0 153.82 C0 158.06 9.35 161.49 20.96 161.56 L21.26 161.56
								 C33 161.56 42.52 158.22 42.52 153.82 L42.52 112.6 C42.52 116.87 33 120.34 21.26 120.34 Z"
							class="st1"/>
				</g>
				<g id="shape4600-7" transform="translate(0,-41.2191)">
					<title>Sheet.4600</title>
					<path d="M42.52 153.82 C42.52 158.09 33 161.56 21.26 161.56 C9.52 161.56 0 158.22 0 153.82 C0 149.42 9.52 146.09
								 21.26 146.09 C33 146.09 42.52 149.42 42.52 153.82 Z" class="st2"/>
				</g>
				<g id="shape4601-9" transform="translate(4.94184,-44.654)">
					<title>Sheet.4601</title>
					<path d="M32.6 156.62 C32.6 159.36 25.31 161.56 16.32 161.56 C7.33 161.56 0 159.36 0 156.66 C0 153.96 7.3 151.72
								 16.32 151.72 C25.34 151.72 32.6 153.92 32.6 156.62 Z" class="st3"/>
				</g>
				<g id="shape4602-11" transform="translate(8.32484,-44.654)">
					<title>Sheet.4602</title>
					<path d="M12.94 157.86 A38.6392 38.8513 -180 0 0 0 159.76 A38.2412 38.4511 -180 0 0 12.94 161.56 A38.0422 38.251
								 -180 0 0 25.84 159.62 A39.5679 39.7851 -180 0 0 12.94 157.86 Z" class="st4"/>
				</g>
				<g id="shape4603-13" transform="translate(6.33484,-5.90273)">
					<title>Sheet.4603</title>
					<path d="M24.88 139.12 L24.88 140.52 A16.9813 17.0746 -180 0 0 24.61 142.62 C24.61 143.02 24.61 143.62 24.78
								 144.15 C24.94 144.68 24.78 145.05 24.78 145.35 A5.572 5.60259 0 0 1 23.95 148.22 A1.42617 1.434
								 -180 0 0 23.95 148.45 L24.28 148.85 A34.9908 35.183 -180 0 0 27.79 140.92 C28.72 137.75 28.82 135.48
								 28.09 134.51 A8.557 8.60398 -180 0 0 19.2 131.65 A10.9118 10.9717 0 0 1 22.22 133.88 A7.562 7.60352
								 0 0 1 24.88 139.12 ZM23.85 139.38 A3.81417 3.83511 -180 0 0 21.23 139.68 C20.26 140.28 20.56 141.52
								 21.23 143.02 A25.7705 25.912 -180 0 0 22.39 145.85 L22.69 146.39 C22.85 146.65 22.95 146.89 23.05
								 147.05 L23.32 147.49 A4.24534 4.26864 -180 0 0 23.91 145.32 A9.48567 9.53775 -180 0 0 23.91 144.22
								 C23.91 143.65 23.91 143.02 23.75 142.58 A20.2317 20.3428 0 0 1 24.01 140.28 A2.56378 2.57786 0 0
								 1 23.98 139.28 L23.85 139.38 ZM22.85 140.75 A1.32667 1.33395 0 0 1 22.25 141.08 A1.0945 1.10051
								 0 0 1 21.79 141.08 a0.762834 0.767022 0 0 1 -0.232167 -0.633627 C21.56 140.22 21.92 140.02 22.35
								 139.95 L22.98 139.95 C22.98 139.95 23.28 139.95 23.28 140.22 a0.663334 0.666975 0 0 1 -0.2985 0.433534
								 L22.85 140.75 ZM7.3 143.72 L7.3 143.15 A3.31667 3.33488 -180 0 0 7.3 142.58 A18.4075 18.5086 0 0
								 1 7.3 139.25 A17.313 17.4081 0 0 1 8.29 135.58 A7.99317 8.03705 0 0 1 10.22 132.45 A15.8537 15.9407
								 -180 0 0 5.74 131.78 A6.20217 6.23622 -180 0 0 2.09 132.78 A6.63334 6.66975 -180 0 0 0 138.85 A40.6955
								 40.9189 -180 0 0 1.66 146.32 C2.79 150.12 4.08 152.45 5.21 152.82 C5.7 152.99 6.24 152.82 6.77 152.12
								 C7.69 150.99 8.56 150.02 9.05 149.45 A6.23534 6.26957 0 0 1 7.43 143.62 L7.3 143.72 ZM8.16 145.05
								 A7.23034 7.27003 -180 0 0 8.36 146.92 A4.975 5.00232 -180 0 0 9.22 148.39 A3.54883 3.56832 -180
								 0 0 10.38 149.22 A3.61517 3.63502 -180 0 0 11.67 149.49 C11.67 148.92 12.14 148.22 12.44 147.49
								 A14.4275 14.5067 -180 0 0 13.13 145.52 A21.9232 22.0435 -180 0 0 13.13 141.82 C13.13 141.52 13.13
								 141.18 12.94 140.82 A1.4925 1.50069 -180 0 0 12.54 139.92 A2.189 2.20102 -180 0 0 11.61 139.38 L10.95
								 139.38 A5.174 5.20241 -180 0 0 9.35 139.85 A6.63334 6.66975 -180 0 0 8.29 140.48 L8.29 142.88 A2.85233
								 2.86799 0 0 1 8.29 143.38 L8.29 144.68 L8.16 145.05 ZM10.35 140.58 A1.52567 1.53404 0 0 1 11.28
								 140.58 A1.99 2.00093 0 0 1 11.91 140.78 C12.21 140.78 12.24 141.15 12.21 141.25 A1.22717 1.2339
								 0 0 1 11.81 141.68 a0.995 1.00046 0 0 1 -0.199 -0.133395 A1.12767 1.13386 0 0 1 10.68 140.62 L10.35
								 140.58 ZM12.8 150.59 a0.762834 0.767022 -180 0 0 -0.431167 0.200093 L11.91 151.35 C11.34 152.05
								 11.11 152.29 9.49 152.62 A1.72467 1.73414 -180 0 0 8.62 152.96 A1.92367 1.93423 -180 0 0 9.42 153.32
								 A3.91367 3.93516 -180 0 0 11.81 153.32 A5.63834 5.66929 -180 0 0 13.1 152.45 A2.02317 2.03428 -180
								 0 0 13.76 151.42 A1.194 1.20056 -180 0 0 13.43 150.49 a0.4975 0.500232 -180 0 0 -0.4975 -0.0666975
								 L12.8 150.59 ZM28.09 150.59 A5.40617 5.43585 0 0 1 24.34 150.59 a0.729667 0.733673 -180 0 0 -0.464334
								 -2.84217E-14 a0.995 1.00046 -180 0 0 -0.563834 0.466883 A3.61517 3.63502 -180 0 0 23.32 152.09 A5.97
								 6.00278 -180 0 0 26.96 151.75 A4.51067 4.53543 -180 0 0 28.56 150.62 L28.09 150.59 ZM20.13 143.45
								 C19.67 142.08 19 140.12 20.73 138.92 A4.4775 4.50208 0 0 1 23.68 138.42 A10.547 10.6049 -180 0 0
								 21.56 134.58 L21.23 134.25 L21.03 134.05 A1.12767 1.13386 -180 0 0 20.83 133.85 A7.761 7.80361 -180
								 0 0 18.61 132.45 A8.72284 8.77073 -180 0 0 14.93 131.71 A5.04134 5.06901 -180 0 0 12.6 132.08 A5.8705
								 5.90273 -180 0 0 11.61 132.45 A6.965 7.00324 -180 0 0 9.15 135.78 A19.3693 19.4757 -180 0 0 8.46
								 139.12 A5.50567 5.5359 0 0 1 11.77 138.35 A2.786 2.8013 0 0 1 14.33 141.38 A24.079 24.2112 0 0 1
								 14.33 145.62 A12.8355 12.906 0 0 1 13.57 147.72 C13.37 148.29 13.1 148.89 12.97 149.35 A1.65833
								 1.66744 0 0 1 14.23 149.82 A2.189 2.20102 0 0 1 14.86 151.59 L14.93 151.59 L14.93 152.39 A21.7242
								 21.8434 -180 0 0 15.72 160.53 A1.791 1.80083 -180 0 0 16.52 161.23 A1.99 2.00093 -180 0 0 17.55
								 161.56 A4.31167 4.33534 -180 0 0 20.86 160.43 A3.4825 3.50162 -180 0 0 21.82 158.22 C22.06 156.72
								 22.55 152.55 22.62 151.55 A2.388 2.40111 0 0 1 22.92 150.09 A2.0895 2.10097 0 0 1 23.81 149.29 A17.7773
								 17.8749 0 0 1 20.26 143.25 L20.13 143.45 Z" class="st5"/>
				</g>
			</g>
		</g>
	</g>
</svg>
