<?xml version="1.0" encoding="UTF-8" standalone="no"?>
<!DOCTYPE svg PUBLIC "-//W3C//DTD SVG 1.1//EN" "http://www.w3.org/Graphics/SVG/1.1/DTD/svg11.dtd">
<!-- Generated by Microsoft Visio, SVG Export Azure Database for MariaDB.svg Page-1 -->
<svg xmlns="http://www.w3.org/2000/svg" xmlns:xlink="http://www.w3.org/1999/xlink" xmlns:ev="http://www.w3.org/2001/xml-events"
		width="1.535in" height="2.24388in" viewBox="0 0 110.52 161.559" xml:space="preserve" color-interpolation-filters="sRGB"
		class="st6">
	<style type="text/css">
	<![CDATA[
		.st1 {fill:url(#grad0-6);stroke:none;stroke-linecap:butt;stroke-width:34}
		.st2 {fill:#e8e8e8;stroke:none;stroke-linecap:butt;stroke-width:34}
		.st3 {fill:#50e6ff;stroke:none;stroke-linecap:butt;stroke-width:34}
		.st4 {fill:#198ab3;stroke:none;stroke-linecap:butt;stroke-width:34}
		.st5 {fill:#f2f2f2;stroke:none;stroke-linecap:butt;stroke-width:34}
		.st6 {fill:none;fill-rule:evenodd;font-size:12px;overflow:visible;stroke-linecap:square;stroke-miterlimit:3}
	]]>
	</style>

	<defs id="Patterns_And_Gradients">
		<linearGradient id="grad0-6" x1="0" y1="0" x2="1" y2="0" gradientTransform="rotate(0 0.5 0.5)">
			<stop offset="0" stop-color="#005ba1" stop-opacity="1"/>
			<stop offset="0.07" stop-color="#0060a9" stop-opacity="1"/>
			<stop offset="0.36" stop-color="#0071c8" stop-opacity="1"/>
			<stop offset="0.52" stop-color="#0078d4" stop-opacity="1"/>
			<stop offset="0.64" stop-color="#0074cd" stop-opacity="1"/>
			<stop offset="0.82" stop-color="#006abb" stop-opacity="1"/>
			<stop offset="1" stop-color="#005ba1" stop-opacity="1"/>
		</linearGradient>
	</defs>
	<g>
		<title>Page-1</title>
		<g id="group4611-1" transform="translate(34,-70.8661)">
			<title>Azure Database for MariaDB</title>
			<g id="group4612-2">
				<title>Icon-databases-123</title>
				<g id="shape4613-3">
					<title>Sheet.4613</title>
					<path d="M21.26 120.34 C9.52 120.34 0 117.01 0 112.6 L0 153.82 C0 158.06 9.35 161.49 20.96 161.56 L21.26 161.56
								 C33 161.56 42.52 158.22 42.52 153.82 L42.52 112.6 C42.52 116.91 33 120.34 21.26 120.34 Z"
							class="st1"/>
				</g>
				<g id="shape4614-7" transform="translate(0,-41.2191)">
					<title>Sheet.4614</title>
					<path d="M42.52 153.82 C42.52 158.12 33 161.56 21.26 161.56 C9.52 161.56 0 158.22 0 153.82 C0 149.42 9.52 146.09
								 21.26 146.09 C33 146.09 42.52 149.42 42.52 153.82 Z" class="st2"/>
				</g>
				<g id="shape4615-9" transform="translate(4.94184,-44.654)">
					<title>Sheet.4615</title>
					<path d="M32.64 156.62 C32.64 159.36 25.31 161.56 16.32 161.56 C7.33 161.56 0 159.36 0 156.62 C0 153.89 7.33
								 151.72 16.32 151.72 C25.31 151.72 32.64 153.92 32.64 156.62 Z" class="st3"/>
				</g>
				<g id="shape4616-11" transform="translate(8.358,-44.654)">
					<title>Sheet.4616</title>
					<path d="M12.9 157.86 A38.3075 38.5178 -180 0 0 0 159.76 A37.8763 38.0843 -180 0 0 12.9 161.56 A36.9808 37.1839
								 -180 0 0 25.8 159.62 A39.2694 39.4849 -180 0 0 12.9 157.86 Z" class="st4"/>
				</g>
				<g id="shape4617-13" transform="translate(3.4825,-13.7063)">
					<title>Sheet.4617</title>
					<path d="M35.19 137.98 C34.1 137.98 35.39 138.82 31.51 138.98 C27.63 139.15 26.27 143.15 23.75 146.52 A16.3512
								 16.4409 0 0 1 13.8 151.22 A12.1722 12.239 -180 0 0 7.56 155.86 A3.05133 3.06809 0 0 1 5.21 157.59
								 C4.31 157.59 2.35 157.86 2.35 157.86 A11.144 11.2052 -180 0 0 -0 158.66 C0.27 159.76 2.45 159.29
								 2.45 159.29 A17.4125 17.5081 0 0 1 0.73 160.86 A9.28667 9.33766 -180 0 0 4.05 161.03 C5.47 161.03
								 6.57 159.66 9.19 158.22 C11.81 156.79 17.84 158.22 18.81 158.22 C19.77 158.22 21.19 155.69 21.53
								 154.89 C21.79 156.69 18.81 161.56 18.81 161.56 A6.99817 7.03659 -180 0 0 24.31 158.22 C24.58 157.89
								 25.41 156.16 25.51 156.32 C25.6 156.49 26.04 156.96 26.2 156.89 A6.23534 6.26957 -180 0 0 27.03
								 155.99 A25.1403 25.2784 -180 0 0 30.81 147.72 C31.04 146.92 31.04 144.02 33.03 142.82 C35.02 141.62
								 35.29 140.52 35.29 140.42 L35.29 140.25 A5.40617 5.43585 0 0 1 34 139.08 a0.364833 0.366836 0 0
								 1 6.39488E-14 -0.366836 A2.55383 2.56786 -180 0 0 35.59 139.98 C35.59 139.98 36.28 137.98 35.19
								 137.98 ZM31.04 141.52 L30.85 141.52 A1.194 1.20056 0 0 1 29.85 141.25 A1.592 1.60074 0 0 1 31.57
								 140.25 a0.995 1.00046 0 0 1 -0.530667 1.26725 ZM32.9 141.52 A9.31984 9.37101 0 0 1 34 139.58 A10.348
								 10.4048 -180 0 0 32.84 141.65 L32.9 141.52 ZM34.1 139.82 A6.00317 6.03613 -180 0 0 33.83 141.52
								 A5.60517 5.63594 0 0 1 33.83 140.25 A4.64334 4.66883 -180 0 0 33.3 141.55 A4.44434 4.46874 0 0 1
								 34.03 139.95 L34.1 139.82 ZM28.42 155.32 C28.42 155.32 26.8 156.86 26.73 157.39 C26.67 157.92 28.52
								 158.76 29.68 158.46 A25.1403 25.2784 0 0 1 28.42 155.32 Z" class="st5"/>
				</g>
			</g>
		</g>
	</g>
</svg>
