<?xml version="1.0" encoding="UTF-8" standalone="no"?>
<!DOCTYPE svg PUBLIC "-//W3C//DTD SVG 1.1//EN" "http://www.w3.org/Graphics/SVG/1.1/DTD/svg11.dtd">
<!-- Generated by Microsoft Visio, SVG Export Azure Arc Appliance.svg Page-1 -->
<svg xmlns="http://www.w3.org/2000/svg" xmlns:xlink="http://www.w3.org/1999/xlink" xmlns:ev="http://www.w3.org/2001/xml-events"
		width="1.56258in" height="2.23843in" viewBox="0 0 112.506 161.167" xml:space="preserve" color-interpolation-filters="sRGB"
		class="st5">
	<style type="text/css">
	<![CDATA[
		.st1 {fill:#5ea0ef;stroke:none;stroke-linecap:butt;stroke-width:33.6052}
		.st2 {fill:#50e6ff;stroke:none;stroke-linecap:butt;stroke-width:33.6052}
		.st3 {fill:#005ba1;stroke:none;stroke-linecap:butt;stroke-width:33.6052}
		.st4 {fill:url(#grad0-12);stroke:none;stroke-linecap:butt;stroke-width:33.6052}
		.st5 {fill:none;fill-rule:evenodd;font-size:12px;overflow:visible;stroke-linecap:square;stroke-miterlimit:3}
	]]>
	</style>

	<defs id="Patterns_And_Gradients">
		<linearGradient id="grad0-12" x1="0" y1="0" x2="1" y2="0" gradientTransform="rotate(90 0.5 0.5)">
			<stop offset="0" stop-color="#b796f9" stop-opacity="1"/>
			<stop offset="1" stop-color="#773adc" stop-opacity="1"/>
		</linearGradient>
	</defs>
	<g>
		<title>Page-1</title>
		<g id="group4830-1" transform="translate(33.5649,-70.8661)">
			<title>Azure Arc Appliance</title>
			<g id="group4831-2">
				<title>g10</title>
				<g id="shape4832-3" transform="translate(0.0248497,2.84217E-13)">
					<title>path2</title>
					<path d="M25.53 145.46 L25.53 146.18 A5.71126 5.79634 0 1 1 19.78 146.18 L19.78 145.52 L0.06 145.7 C0.06 145.7
								 0 153.61 0.06 153.93 C0.37 155.73 2.46 157.48 6.31 158.86 A56.9883 57.8372 -180 0 0 38.33 158.81
								 C42.5 157.37 44.81 155.52 45.24 153.65 C45.29 153.42 45.31 145.28 45.31 145.28 L25.53 145.46 Z"
							class="st1"/>
				</g>
				<g id="shape4833-5" transform="translate(0,-7.8074)">
					<title>path4-7-9</title>
					<path d="M16.97 158.92 A5.66774 5.75216 0 0 1 19.81 153.99 L19.81 145.55 C8.62 146.15 0 149.58 0.04 153.63 C0.08
								 157.37 7.48 160.43 17.41 161.17 A5.66463 5.74901 0 0 1 16.97 158.92 ZM25.55 145.5 L25.55 153.99
								 A5.59623 5.67959 0 0 1 27.97 161.07 C37.95 160.14 45.35 156.93 45.32 153.18 C45.28 149.14 36.67
								 145.9 25.55 145.5 Z" class="st2"/>
				</g>
				<g id="shape4834-7" transform="translate(19.8075,-2.14125)">
					<title>path6</title>
					<path d="M5.75 146.14 L5.75 148.33 A5.71126 5.79634 0 1 1 -0 148.33 L0 146.14 A7.68238 7.79682 -180 1 0 5.75
								 146.14 L5.75 146.14 Z" class="st3"/>
				</g>
				<g id="shape4835-9" transform="translate(18.8437,-6.14454)">
					<title>path8</title>
					<path d="M3.84 161.17 A3.88737 3.83031 -90 0 0 7.67 157.28 A3.78678 3.84319 -180 0 0 4.84 153.59 L4.84 133.91
								 A3.78367 3.84004 -180 0 0 7.68 130.22 A3.88737 3.83031 -90 0 0 3.84 126.32 A3.88737 3.83031 -90
								 0 0 0.01 130.2 A3.78678 3.84319 -180 0 0 2.84 133.91 L2.84 153.6 A3.78367 3.84004 -180 0 0 -0 157.29
								 A3.89052 3.83342 -90 0 0 3.84 161.17 Z" class="st4"/>
				</g>
				<g id="shape4836-13" transform="translate(2.59603,-27.1369)">
					<title>path10</title>
					<path d="M32.34 142.91 A11.4847 11.6558 -180 0 0 20.62 131.61 A11.7614 11.9366 -180 0 0 9.41 139.5 A10.8816 11.0437
								 -180 0 0 -0 150.26 A11.0401 11.2046 -180 0 0 11.31 161.17 L17.22 161.17 L17.22 156.17 A5.67706 5.76163
								 0 0 1 20.08 145.41 A5.75848 5.67395 90 0 1 22.96 156.17 L22.96 161.17 L30.84 161.17 A9.57888 9.72157
								 -180 0 0 40.17 151.91 A9.15916 9.2956 -180 0 0 32.34 142.91 Z" class="st4"/>
				</g>
			</g>
		</g>
	</g>
</svg>
