<?xml version="1.0" encoding="UTF-8" standalone="no"?>
<!DOCTYPE svg PUBLIC "-//W3C//DTD SVG 1.1//EN" "http://www.w3.org/Graphics/SVG/1.1/DTD/svg11.dtd">
<!-- Generated by Microsoft Visio, SVG Export Azure CLI.svg Page-1 -->
<svg xmlns="http://www.w3.org/2000/svg" xmlns:xlink="http://www.w3.org/1999/xlink" xmlns:ev="http://www.w3.org/2001/xml-events"
		width="1.5748in" height="1.66037in" viewBox="0 0 113.386 119.547" xml:space="preserve" color-interpolation-filters="sRGB"
		class="st6">
	<style type="text/css">
	<![CDATA[
		.st1 {fill:#80bceb;stroke:none;stroke-linecap:butt;stroke-width:9.5625}
		.st2 {fill:#414042;stroke:none;stroke-linecap:butt;stroke-width:9.5625}
		.st3 {fill:#aad2f2;stroke:none;stroke-linecap:butt;stroke-width:9.5625}
		.st4 {fill:#231f20;stroke:none;stroke-linecap:butt;stroke-width:9.5625}
		.st5 {fill:#ffffff;stroke:none;stroke-linecap:butt;stroke-width:9.5625}
		.st6 {fill:none;fill-rule:evenodd;font-size:12px;overflow:visible;stroke-linecap:square;stroke-miterlimit:3}
	]]>
	</style>

	<g>
		<title>Page-1</title>
		<g id="group4639-1" transform="translate(28.3465,-64.6299)">
			<title>Azure CLI</title>
			<g id="group4640-2">
				<title>Sheet.4640</title>
				<g id="shape4641-3">
					<title>Sheet.4641</title>
					<path d="M56.69 77.82 L56.69 119.55 L0 119.55 L0 77.82 A3.54331 3.62835 0 0 1 3.54 74.19 L53.15 74.19 A3.54331
								 3.62835 0 0 1 56.69 77.82 Z" class="st1"/>
				</g>
				<g id="shape4642-5" transform="translate(3.54331,-39.0047)">
					<title>Sheet.4642</title>
					<ellipse cx="1.77165" cy="117.733" rx="1.77165" ry="1.81417" class="st2"/>
				</g>
				<g id="shape4643-7" transform="translate(8.85827,-39.0047)">
					<title>Sheet.4643</title>
					<ellipse cx="1.77165" cy="117.733" rx="1.77165" ry="1.81417" class="st2"/>
				</g>
				<g id="shape4644-9" transform="translate(14.1732,-39.0047)">
					<title>Sheet.4644</title>
					<ellipse cx="1.77165" cy="117.733" rx="1.77165" ry="1.81417" class="st2"/>
				</g>
				<g id="shape4645-11" transform="translate(18.6024,-6.34961)">
					<title>Sheet.4645</title>
					<path d="M38.09 84.17 L38.09 119.55 L34.55 115.92 L32.78 93.24 L11.52 92.33 L0 80.54 L34.55 80.54 A3.54331 3.62835
								 0 0 1 38.09 84.17 Z" class="st3"/>
				</g>
				<g id="shape4646-13" transform="translate(2.65748,-2.72126)">
					<title>Sheet.4646</title>
					<rect x="0" y="85.0775" width="51.378" height="34.4693" class="st4"/>
				</g>
				<g id="shape4647-15" transform="translate(6.12106,-23.6931)">
					<title>Sheet.4647</title>
					<path d="M2.81 117.8 L2.81 119.05 L2.11 119.05 L2.11 117.84 A3.80906 3.90047 0 0 1 0.08 117.34 L0.08 116.03 A2.80807
								 2.87546 -180 0 0 1.01 116.54 A3.38386 3.46507 -180 0 0 2.11 116.74 L2.11 114.21 A4.72146 4.83477
								 0 0 1 0.39 113.05 A1.97539 2.0228 0 0 1 -0 111.8 A2.00197 2.05002 0 0 1 0.59 110.32 A2.51575 2.57613
								 0 0 1 2.11 109.57 L2.11 108.53 L2.8 108.53 L2.8 109.55 A3.54331 3.62835 0 0 1 4.43 109.88 L4.43
								 111.11 A2.86122 2.92989 -180 0 0 2.81 110.58 L2.81 113.31 A5.02264 5.14318 0 0 1 4.51 114.4 A1.91339
								 1.95931 0 0 1 4.39 117.07 A2.77264 2.83918 0 0 1 2.81 117.8 ZM2.12 112.93 L2.12 110.64 A1.18701
								 1.2155 -180 0 0 1.44 111.01 a0.965551 0.988724 -180 0 0 -0.248031 0.689386 A1.08071 1.10665 -180
								 0 0 1.4 112.4 A2.17028 2.22236 -180 0 0 2.11 112.93 L2.12 112.93 ZM2.81 114.53 L2.81 116.74 C3.45
								 116.6 3.76 116.27 3.76 115.73 C3.76 115.19 3.45 114.79 2.81 114.53 ZM10.36 119.55 L5.58 119.55 L5.58
								 118.87 L10.36 118.87 L10.36 119.55 Z" class="st5"/>
				</g>
				<g id="shape4648-17" transform="translate(26.5748,-9.07087)">
					<title>Sheet.4648</title>
					<path d="M27.46 91.43 L27.46 119.55 L0 91.43 L27.46 91.43 Z" class="st2"/>
				</g>
			</g>
		</g>
	</g>
</svg>
