<?xml version="1.0" encoding="UTF-8" standalone="no"?>
<!DOCTYPE svg PUBLIC "-//W3C//DTD SVG 1.1//EN" "http://www.w3.org/Graphics/SVG/1.1/DTD/svg11.dtd">
<!-- Generated by Microsoft Visio, SVG Export Azure Batch Account.svg Page-1 -->
<svg xmlns="http://www.w3.org/2000/svg" xmlns:xlink="http://www.w3.org/1999/xlink" xmlns:ev="http://www.w3.org/2001/xml-events"
		width="1.5748in" height="1.85039in" viewBox="0 0 113.386 133.228" xml:space="preserve" color-interpolation-filters="sRGB"
		class="st6">
	<style type="text/css">
	<![CDATA[
		.st1 {fill:#59b4d9;stroke:none;stroke-linecap:butt;stroke-width:0.0826977}
		.st2 {fill:#ffffff;stroke:none;stroke-linecap:butt;stroke-width:0.0826977}
		.st3 {fill:#57a300;stroke:none;stroke-linecap:butt;stroke-width:0.0826977}
		.st4 {fill:#3999c6;stroke:none;stroke-linecap:butt;stroke-width:0.0826977}
		.st5 {fill:#ffffff;fill-opacity:0.2;stroke:none;stroke-linecap:butt;stroke-width:0.0826977}
		.st6 {fill:none;fill-rule:evenodd;font-size:12px;overflow:visible;stroke-linecap:square;stroke-miterlimit:3}
	]]>
	</style>

	<g>
		<title>Page-1</title>
		<g id="group4707-1" transform="translate(28.3465,-70.8661)">
			<title>Azure Batch Account</title>
			<g id="shape4708-2" transform="translate(2.8777E-13,-25.07)">
				<title>path7</title>
				<path d="M26.49 109.49 L0 109.49 L0 131.78 C0 132.13 0.13 132.48 0.36 132.74 L0.35 132.75 C0.39 132.78 0.43 132.83
							 0.47 132.85 C0.71 133.08 1.02 133.23 1.4 133.23 L28.93 133.23 C29.63 133.23 30.33 132.63 30.33 131.77
							 L30.33 109.49 L26.49 109.49 Z" class="st1"/>
			</g>
			<g id="shape4709-4" transform="translate(5.81726,-30.1538)">
				<title>path9</title>
				<path d="M0 119.54 L18.93 119.54 L18.93 121.36 L0 121.36 L0 119.54 ZM0 125.47 L18.93 125.47 L18.93 127.29 L0 127.29
							 L0 125.47 ZM0 131.41 L18.93 131.41 L18.93 133.23 L0 133.23 L0 131.41 Z" class="st2"/>
			</g>
			<g id="shape4710-6" transform="translate(32.5422,-24.9432)">
				<title>path11</title>
				<path d="M11.6 125.11 C11.6 125.11 13 114.33 3.48 112.27 C3.48 112.27 2.67 112.15 1.62 112.15 C0.46 112.15 0 112.51
							 0 112.51 L0 116.88 C0 116.88 0.34 116.52 1.85 116.52 C2.79 116.52 3.48 116.63 3.83 116.63 C6.04 117.36
							 8.13 119.06 7.66 124.99 L3.6 124.99 L9.98 133.23 L16.26 124.99 L11.6 124.99 L11.6 125.11 Z"
						class="st3"/>
			</g>
			<g id="shape4711-8" transform="translate(38.2277,-3.49839)">
				<title>path13</title>
				<path d="M14.06 117.48 L13.25 117.48 L13.25 131.28 L0 131.28 L0 132.38 C0 132.87 0.11 133.23 0.58 133.23 L14.29 133.23
							 C14.76 133.23 15.1 132.87 15.1 132.38 L15.1 118.33 C15.1 117.84 14.52 117.48 14.06 117.48 Z"
						class="st1"/>
			</g>
			<g id="shape4712-10" transform="translate(41.5924,2.84217E-13)">
				<title>path15</title>
				<path d="M14.06 117.49 L13.25 117.49 L13.25 131.18 C13.25 131.29 13.13 131.29 13.13 131.29 L0 131.29 L0 132.38 C0
							 132.87 0.11 133.23 0.58 133.23 L14.06 133.23 C14.63 133.23 15.1 132.74 15.1 132.14 L15.1 118.34 C15.1
							 117.86 14.52 117.49 14.06 117.49 Z" class="st1"/>
			</g>
			<g id="shape4713-12" transform="translate(-2.79776E-13,-19.1302)">
				<title>path17</title>
				<path d="M3.84 103.55 L30.32 103.55 L30.32 97.12 C30.32 96.39 29.75 95.67 28.92 95.67 L1.4 95.67 C0.7 95.67 0 96.27
							 0 97.12 L0 103.55 L3.84 103.55 ZM48.68 129.23 L35.2 129.23 C34.73 129.23 34.39 129.59 34.39 130.08 L34.39
							 133.23 L49.48 133.23 L49.48 130.08 C49.5 129.59 49.14 129.23 48.68 129.23 Z" class="st4"/>
			</g>
			<g id="shape4714-14" transform="translate(34.3968,-7.37727)">
				<title>path19</title>
				<path d="M13.24 121.36 L0 121.36 L0 132.38 C0 132.87 0.34 133.23 0.81 133.23 L14.29 133.23 C14.76 133.23 15.1 132.87
							 15.1 132.38 L15.1 121.36 L13.24 121.36 Z" class="st1"/>
			</g>
			<g id="shape4715-16" transform="translate(37.873,-15.3781)">
				<title>path21</title>
				<rect x="0" y="131.294" width="7.55027" height="1.93415" class="st2"/>
			</g>
			<g id="shape4716-18" transform="translate(0.0202698,-7.66263)">
				<title>path23</title>
				<path d="M26.49 92.08 L0 92.08 L0 114.37 C0 114.73 0.14 115.1 0.4 115.38 C0.64 115.65 30.32 92.08 30.32 92.08 L26.49
							 92.08 ZM49.48 121.64 L34.38 121.64 L34.38 132.6 C34.38 132.6 34.34 132.99 34.57 133.23 L49.48 121.64
							 Z" class="st5"/>
			</g>
		</g>
	</g>
</svg>
