<?xml version="1.0" encoding="UTF-8" standalone="no"?>
<!DOCTYPE svg PUBLIC "-//W3C//DTD SVG 1.1//EN" "http://www.w3.org/Graphics/SVG/1.1/DTD/svg11.dtd">
<!-- Generated by Microsoft Visio, SVG Export Azure LightHouse My customers.svg Page-1 -->
<svg xmlns="http://www.w3.org/2000/svg" xmlns:xlink="http://www.w3.org/1999/xlink" xmlns:ev="http://www.w3.org/2001/xml-events"
		width="1.7321in" height="1.99978in" viewBox="0 0 124.711 143.984" xml:space="preserve" color-interpolation-filters="sRGB"
		class="st5">
	<style type="text/css">
	<![CDATA[
		.st1 {fill:#0078d4;stroke:none;stroke-linecap:butt;stroke-width:34}
		.st2 {fill:#ffffff;fill-opacity:0.8;stroke:none;stroke-linecap:butt;stroke-width:34}
		.st3 {fill:url(#grad0-12);stroke:none;stroke-linecap:butt;stroke-width:34}
		.st4 {fill:url(#grad0-18);stroke:none;stroke-linecap:butt;stroke-width:34}
		.st5 {fill:none;fill-rule:evenodd;font-size:12px;overflow:visible;stroke-linecap:square;stroke-miterlimit:3}
	]]>
	</style>

	<defs id="Patterns_And_Gradients">
		<linearGradient id="grad0-12" x1="0" y1="0" x2="1" y2="0" gradientTransform="rotate(90 0.5 0.5)">
			<stop offset="0.22" stop-color="#32d4f5" stop-opacity="1"/>
			<stop offset="0.47" stop-color="#31d1f3" stop-opacity="1"/>
			<stop offset="0.63" stop-color="#2ec9eb" stop-opacity="1"/>
			<stop offset="0.77" stop-color="#29bade" stop-opacity="1"/>
			<stop offset="0.89" stop-color="#22a5cb" stop-opacity="1"/>
			<stop offset="1" stop-color="#198ab3" stop-opacity="1"/>
			<stop offset="1" stop-color="#198ab3" stop-opacity="1"/>
		</linearGradient>
		<linearGradient id="grad0-18" x1="0" y1="0" x2="1" y2="0" gradientTransform="rotate(85.401203911388 0.5 0.5)">
			<stop offset="0.22" stop-color="#32d4f5" stop-opacity="1"/>
			<stop offset="0.47" stop-color="#31d1f3" stop-opacity="1"/>
			<stop offset="0.63" stop-color="#2ec9eb" stop-opacity="1"/>
			<stop offset="0.77" stop-color="#29bade" stop-opacity="1"/>
			<stop offset="0.89" stop-color="#22a5cb" stop-opacity="1"/>
			<stop offset="1" stop-color="#198ab3" stop-opacity="1"/>
			<stop offset="1" stop-color="#198ab3" stop-opacity="1"/>
		</linearGradient>
	</defs>
	<g>
		<title>Page-1</title>
		<g id="group4503-1" transform="translate(34.0182,-64.6299)">
			<title>Azure LightHouse My customers</title>
			<g id="group4504-2">
				<title>Sheet.4504</title>
				<g id="shape4505-3" transform="translate(28.5233,-7.51797)">
					<title>Sheet.4505</title>
					<path d="M25.63 143.98 A2.48713 2.4341 -180 0 0 28.15 141.55 a0.881515 0.862718 -180 0 0 2.4869E-14 -0.400548
								 C27.17 133.45 22.7 127.16 14.1 127.16 C5.51 127.16 0.88 132.58 0 141.15 A2.48713 2.4341 -180 0 0
								 2.24 143.86 L25.63 143.86 L25.63 143.98 Z" class="st1"/>
				</g>
				<g id="shape4506-5" transform="translate(38.3459,-12.7867)">
					<title>Sheet.4506</title>
					<path d="M4.25 134.37 A7.58733 7.42554 0 0 1 0 133.14 L4.22 143.98 L8.44 133.23 A8.1855 8.01096 0 0 1 4.25 134.37
								 Z" class="st2"/>
				</g>
				<g id="shape4507-7" transform="translate(34.6939,-22.3999)">
					<title>Sheet.4507</title>
					<ellipse cx="7.90215" cy="136.251" rx="7.90215" ry="7.73365" class="st1"/>
				</g>
				<g id="shape4508-9">
					<title>Sheet.4508</title>
					<path d="M38.31 143.98 A3.74644 3.66655 -180 0 0 42.06 140.32 A2.07786 2.03355 -180 0 0 42.06 139.89 C40.61 128.36
								 33.91 119 21.09 119 C8.28 119 1.32 126.95 0 139.79 A3.77792 3.69736 -180 0 0 3.34 143.83 L38.28
								 143.83 L38.31 143.98 Z" class="st3"/>
				</g>
				<g id="shape4509-13" transform="translate(14.9858,-7.91852)">
					<title>Sheet.4509</title>
					<path d="M6.3 129.66 A11.6486 11.4002 0 0 1 0 127.81 L6.3 143.98 L12.59 127.93 A11.869 11.6159 0 0 1 6.3 129.66
								 Z" class="st2"/>
				</g>
				<g id="shape4510-15" transform="translate(9.38184,-22.2458)">
					<title>Sheet.4510</title>
					<ellipse cx="11.806" cy="132.43" rx="11.806" ry="11.5543" class="st4"/>
				</g>
			</g>
		</g>
	</g>
</svg>
