<?xml version="1.0" encoding="UTF-8" standalone="no"?>
<!DOCTYPE svg PUBLIC "-//W3C//DTD SVG 1.1//EN" "http://www.w3.org/Graphics/SVG/1.1/DTD/svg11.dtd">
<!-- Generated by Microsoft Visio, SVG Export Azure Active Directory B2B.svg Page-1 -->
<svg xmlns="http://www.w3.org/2000/svg" xmlns:xlink="http://www.w3.org/1999/xlink" xmlns:ev="http://www.w3.org/2001/xml-events"
		width="1.69642in" height="2.24585in" viewBox="0 0 122.142 161.701" xml:space="preserve" color-interpolation-filters="sRGB"
		class="st10">
	<style type="text/css">
	<![CDATA[
		.st1 {fill:#50e6ff;stroke:none;stroke-linecap:butt;stroke-width:34.142}
		.st2 {fill:#ffffff;stroke:none;stroke-linecap:butt;stroke-width:34.142}
		.st3 {fill:url(#grad0-11);stroke:none;stroke-linecap:butt;stroke-width:34.142}
		.st4 {fill:#53b1e0;stroke:none;stroke-linecap:butt;stroke-width:34.142}
		.st5 {fill:#9cebff;stroke:none;stroke-linecap:butt;stroke-width:34.142}
		.st6 {fill:#5ea0ef;stroke:none;stroke-linecap:butt;stroke-width:34.142}
		.st7 {fill:#773adc;stroke:none;stroke-linecap:butt;stroke-width:34.142}
		.st8 {fill:#ffffff;fill-opacity:0.8;stroke:none;stroke-linecap:butt;stroke-width:34.142}
		.st9 {fill:#a67af4;stroke:none;stroke-linecap:butt;stroke-width:34.142}
		.st10 {fill:none;fill-rule:evenodd;font-size:12px;overflow:visible;stroke-linecap:square;stroke-miterlimit:3}
	]]>
	</style>

	<defs id="Patterns_And_Gradients">
		<linearGradient id="grad0-11" x1="0" y1="0" x2="1" y2="0" gradientTransform="rotate(-133.56956926302 0.5 0.5)">
			<stop offset="0" stop-color="#1988d9" stop-opacity="1"/>
			<stop offset="0.9" stop-color="#54aef0" stop-opacity="1"/>
		</linearGradient>
	</defs>
	<g>
		<title>Page-1</title>
		<g id="group4967-1" transform="translate(34.142,-70.8661)">
			<title>Azure Active Directory B2B</title>
			<g id="shape4968-2" transform="translate(0,-1.25158)">
				<title>path4</title>
				<path d="M3.02 138.02 L26.72 155.38 L50.84 137.95 L53.86 141.91 L26.72 161.7 L0 141.95 L3.02 138.02 Z" class="st1"/>
			</g>
			<g id="shape4969-4" transform="translate(4.81732,-11.1627)">
				<title>path6</title>
				<path d="M0 145.7 L21.9 116.17 L44.25 145.73 L21.9 161.7 L0 145.7 Z" class="st2"/>
			</g>
			<g id="shape4970-6" transform="translate(4.81732,-11.1627)">
				<title>path8</title>
				<path d="M21.9 116.17 L21.9 161.7 L0 145.7 L21.9 116.17 Z" class="st1"/>
			</g>
			<g id="shape4971-8" transform="translate(26.7197,-11.1627)">
				<title>path10</title>
				<path d="M0 116.17 L0 161.7 L22.35 145.73 L0 116.17 Z" class="st3"/>
			</g>
			<g id="shape4972-12" transform="translate(26.7197,-11.1627)">
				<title>path12</title>
				<path d="M0 139.68 L22.35 145.73 L0 161.7 L0 139.68 Z" class="st4"/>
			</g>
			<g id="shape4973-14" transform="translate(4.81732,-11.1627)">
				<title>path14</title>
				<path d="M21.9 161.7 L0 145.7 L21.9 139.68 L21.9 161.7 Z" class="st5"/>
			</g>
			<g id="shape4974-16" transform="translate(26.7197,-1.25158)">
				<title>path16</title>
				<path d="M0 161.7 L27.14 141.91 L24.12 137.95 L0 155.38 L0 161.7 Z" class="st6"/>
			</g>
			<g id="shape4975-18" transform="translate(38.8079,-4.4989)">
				<title>path18</title>
				<path d="M13.4 161.53 A1.48836 1.31654 -90 0 0 14.72 160.04 A8.45658 7.48032 -90 0 0 7.39 151.59 C2.81 151.59 0.45
							 154.8 0 160.04 A1.52218 1.34646 -90 0 0 1.17 161.7 L13.4 161.7 L13.4 161.53 Z" class="st7"/>
			</g>
			<g id="shape4976-20" transform="translate(43.9543,-7.74623)">
				<title>path20</title>
				<path d="M2.24 155.92 A4.56655 4.03937 90 0 1 -0 155.17 L2.21 161.7 L4.4 155.21 A4.66803 4.12913 90 0 1 2.24 155.92
							 Z" class="st8"/>
			</g>
			<g id="shape4977-22" transform="translate(42.0693,-13.5305)">
				<title>circle22</title>
				<ellipse cx="4.12913" cy="157.033" rx="4.12913" ry="4.66803" class="st7"/>
			</g>
			<g id="shape4978-24" transform="translate(23.937,0)">
				<title>path24</title>
				<path d="M19.99 161.7 A2.19871 1.94488 -90 0 0 21.96 159.47 L21.96 159.2 C21.18 152.26 17.68 146.58 10.98 146.58
							 C4.28 146.58 0.66 151.38 0 159.23 A2.19871 1.94488 -90 0 0 1.74 161.67 L20.02 161.67 L19.99 161.7 Z"
						class="st9"/>
			</g>
			<g id="shape4979-26" transform="translate(31.6866,-4.66803)">
				<title>path26</title>
				<path d="M3.32 152.91 A6.76526 5.98425 90 0 1 0 151.79 L3.29 161.7 L6.58 151.99 A6.76526 5.98425 90 0 1 3.32 152.91
							 Z" class="st8"/>
			</g>
			<g id="shape4980-28" transform="translate(28.8142,-13.4629)">
				<title>circle28</title>
				<ellipse cx="6.16378" cy="154.733" rx="6.16378" ry="6.96822" class="st9"/>
			</g>
		</g>
	</g>
</svg>
