<?xml version="1.0" encoding="UTF-8" standalone="no"?>
<!DOCTYPE svg PUBLIC "-//W3C//DTD SVG 1.1//EN" "http://www.w3.org/Graphics/SVG/1.1/DTD/svg11.dtd">
<!-- Generated by Microsoft Visio, SVG Export Azure Active Directory Privileged Identity Management.svg Page-1 -->
<svg xmlns="http://www.w3.org/2000/svg" xmlns:xlink="http://www.w3.org/1999/xlink" xmlns:ev="http://www.w3.org/2001/xml-events"
		width="1.41732in" height="1.86741in" viewBox="0 0 102.047 134.453" xml:space="preserve" color-interpolation-filters="sRGB"
		class="st6">
	<style type="text/css">
	<![CDATA[
		.st1 {fill:url(#grad0-6);stroke:none;stroke-width:6.89428}
		.st2 {fill:#ffffff;fill-opacity:0.8;stroke:none;stroke-width:6.89428}
		.st3 {fill:#ffffff;fill-opacity:0.9;stroke:none;stroke-width:6.89428}
		.st4 {fill:#773adc;stroke:none;stroke-width:6.89428}
		.st5 {fill:url(#grad0-18);stroke:none;stroke-width:6.89428}
		.st6 {fill:none;fill-rule:evenodd;font-size:12px;overflow:visible;stroke-linecap:square;stroke-miterlimit:3}
	]]>
	</style>

	<defs id="Patterns_And_Gradients">
		<linearGradient id="grad0-6" x1="0" y1="0" x2="1" y2="0" gradientTransform="rotate(-90 0.5 0.5)">
			<stop offset="0" stop-color="#773adc" stop-opacity="1"/>
			<stop offset="0.4" stop-color="#8d58e7" stop-opacity="1"/>
			<stop offset="1" stop-color="#a67af4" stop-opacity="1"/>
		</linearGradient>
		<linearGradient id="grad0-18" x1="0" y1="0" x2="1" y2="0" gradientTransform="rotate(-90 0.5 0.5)">
			<stop offset="0" stop-color="#fea11b" stop-opacity="1"/>
			<stop offset="0.7" stop-color="#ffd70f" stop-opacity="1"/>
		</linearGradient>
	</defs>
	<g>
		<title>Page-1</title>
		<g id="group4897-1" transform="translate(25.5118,-70.8661)">
			<title>Azure Active Directory Privileged Identity Management</title>
			<g id="group4898-2">
				<title>g14</title>
				<g id="shape4899-3" transform="translate(-2.59792E-13,-4.20364)">
					<title>path2</title>
					<path d="M37.04 87.56 L23.24 87.56 L23.24 92.26 A2.22244 2.2156 0 0 1 21.01 94.48 L17.66 94.48 A2.22244 2.2156
								 0 0 1 15.44 92.26 L15.44 87.58 L1.58 87.58 A1.57549 1.57063 -180 0 0 -0 89.15 L0 132.88 A1.57549
								 1.57063 -180 0 0 1.58 134.45 L12.93 134.45 L12.93 130.48 A1.6023 1.59737 0 0 1 14.52 128.89 L16.66
								 128.89 L16.66 125.82 A1.60566 1.60071 0 0 1 18.27 124.22 L22.14 124.22 A1.6023 1.59737 0 0 1 23.74
								 125.82 L23.74 128.89 L33.24 128.89 A10.901 10.8675 0 0 1 38.6 122.71 L38.6 89.14 A1.57549 1.57063
								 -180 0 0 37.04 87.56 Z" class="st1"/>
				</g>
				<g id="shape4900-7" transform="translate(10.415,-19.8339)">
					<title>path4</title>
					<path d="M17.77 132.7 A9.52666 9.49733 -180 0 0 11.56 124.13 A4.92088 4.90573 0 0 1 6.22 124.07 A8.79926 8.77216
								 -180 0 0 0 132.71 A1.59225 1.58734 -180 0 0 1.42 134.45 A1.2034 1.1997 -180 0 0 1.58 134.45 L16.19
								 134.45 A1.58219 1.57732 -180 0 0 17.78 132.88 A1.82354 1.81793 -180 0 0 17.77 132.7 Z" class="st2"/>
				</g>
				<g id="shape4901-9" transform="translate(16.7169,-23.2351)">
					<title>path6</title>
					<path d="M2.68 128.28 A4.95105 4.9358 0 0 1 -0 127.49 L2.68 134.45 L5.34 127.54 A4.97787 4.96254 0 0 1 2.68 128.28
								 Z" class="st3"/>
				</g>
				<g id="shape4902-11" transform="translate(14.3738,-29.4006)">
					<title>circle8</title>
					<ellipse cx="4.98792" cy="129.481" rx="4.98792" ry="4.97256" class="st2"/>
				</g>
				<g id="shape4903-13" transform="translate(16.7002,-45.4512)">
					<title>rect10</title>
					<path d="M0 133.51 a0.948666 0.945744 -180 0 0 0.948644 0.945723 L4.32 134.45 a0.948666 0.945744 -180 0 0 0.948644
								 -0.945723 L5.27 124.16 a0.948666 0.945744 -180 0 0 -0.948644 -0.945723 L0.95 123.21 a0.948666 0.945744
								 -180 0 0 -0.948644 0.945723 L0 133.51 Z" class="st4"/>
				</g>
				<g id="shape4904-15" transform="translate(14.119,-2.84217E-13)">
					<title>path12</title>
					<path d="M20.02 130.56 A9.72109 9.69115 -180 1 0 30.12 118.56 C29.89 118.56 29.67 118.54 29.45 118.54 A9.72109
								 9.69115 -180 0 0 20.02 125.89 L8.8 125.89 a0.388843 0.387646 0 0 1 -0.388843 -0.387646 L8.41 121.62
								 a0.388843 0.387646 -180 0 0 -0.388843 -0.390988 L4.15 121.23 a0.388843 0.387646 -180 0 0 -0.388843
								 0.390988 L3.76 125.5 a0.388843 0.387646 0 0 1 -0.392196 0.387646 L0.39 125.89 a0.388843 0.387646
								 -180 0 0 -0.388843 0.387646 L0 130.16 a0.388843 0.387646 -180 0 0 0.388843 0.390988 L20.02 130.56
								 ZM29.45 123.15 A5.59465 5.57742 0 0 1 30.12 123.19 A5.09519 5.0795 0 0 1 29.45 133.31 A4.97787 4.96254
								 0 0 1 28.78 133.26 A5.09184 5.07616 0 0 1 29.45 123.15 Z" class="st5"/>
				</g>
			</g>
		</g>
	</g>
</svg>
