<?xml version="1.0" encoding="UTF-8" standalone="no"?>
<!DOCTYPE svg PUBLIC "-//W3C//DTD SVG 1.1//EN" "http://www.w3.org/Graphics/SVG/1.1/DTD/svg11.dtd">
<!-- Generated by Microsoft Visio, SVG Export Azure Active Directory Identity Secure Score.svg Page-1 -->
<svg xmlns="http://www.w3.org/2000/svg" xmlns:xlink="http://www.w3.org/1999/xlink" xmlns:ev="http://www.w3.org/2001/xml-events"
		width="1.49606in" height="1.94165in" viewBox="0 0 107.717 139.799" xml:space="preserve" color-interpolation-filters="sRGB"
		class="st6">
	<style type="text/css">
	<![CDATA[
		.st1 {fill:#ff8c00;stroke:none;stroke-linecap:butt;stroke-width:12.24}
		.st2 {fill:#dd5900;fill-opacity:0.6;stroke:none;stroke-linecap:butt;stroke-width:12.24}
		.st3 {fill:#fcd116;stroke:none;stroke-linecap:butt;stroke-width:12.24}
		.st4 {fill:#dd5900;fill-opacity:0.4;stroke:none;stroke-linecap:butt;stroke-width:12.24}
		.st5 {fill:#dd5900;fill-opacity:0.3;stroke:none;stroke-linecap:butt;stroke-width:12.24}
		.st6 {fill:none;fill-rule:evenodd;font-size:12px;overflow:visible;stroke-linecap:square;stroke-miterlimit:3}
	]]>
	</style>

	<g>
		<title>Page-1</title>
		<g id="group4905-1" transform="translate(26.9291,-70.8661)">
			<title>Azure Active Directory Identity Secure Score</title>
			<g id="group4906-2">
				<title>Sheet.4906</title>
				<g id="shape4907-3" transform="translate(0,-28.3465)">
					<title>Sheet.4907</title>
					<path d="M47.26 117.36 L6.6 117.36 C2.34 117.36 0 122.08 2.18 125.63 C4.36 129.17 6.82 136.04 6.82 136.04 C7.65
								 138.29 10.45 139.8 12.93 139.8 L40.92 139.8 C43.41 139.8 46.21 138.29 47.03 136.04 C47.03 136.04
								 49.5 129.17 51.68 125.63 C53.86 122.08 51.52 117.36 47.26 117.36 ZM48.69 123.76 C46.35 127.57 43.84
								 134.54 43.73 134.84 C43.42 135.68 42.53 136.26 41.51 136.26 L12.35 136.26 C11.33 136.26 10.43 135.68
								 10.12 134.82 C10.02 134.54 7.51 127.57 5.17 123.76 A1.933 1.95 0 0 1 5.11 121.77 C5.33 121.37 5.76
								 120.9 6.6 120.9 L47.26 120.9 C48.1 120.9 48.53 121.37 48.75 121.77 C48.88 122 49.26 122.84 48.69
								 123.76 Z" class="st1"/>
				</g>
				<g id="shape4908-5" transform="translate(29.2702,-28.3465)">
					<title>Sheet.4908</title>
					<path d="M17.99 117.36 L0 117.36 L0 120.9 L17.99 120.9 C18.82 120.9 19.26 121.37 19.48 121.77 C19.61 122 19.99
								 122.84 19.42 123.76 C17.07 127.57 14.56 134.54 14.46 134.84 C14.15 135.68 13.26 136.26 12.24 136.26
								 L0 136.26 L0 139.8 L11.65 139.8 C14.14 139.8 16.94 138.29 17.76 136.04 C17.76 136.04 20.23 129.17
								 22.41 125.63 C24.59 122.08 22.25 117.36 17.99 117.36 Z" class="st2"/>
				</g>
				<g id="shape4909-7" transform="translate(22.2453,-10.6299)">
					<title>Sheet.4909</title>
					<rect x="0" y="126.807" width="9.36645" height="12.9921" class="st3"/>
				</g>
				<g id="shape4910-9" transform="translate(26.9285,-10.6299)">
					<title>Sheet.4910</title>
					<rect x="0" y="126.807" width="4.68323" height="12.9921" class="st4"/>
				</g>
				<g id="shape4911-11" transform="translate(11.4903,-2.84217E-13)">
					<title>Sheet.4911</title>
					<path d="M30.58 138.33 L28.41 130.69 C27.71 129.06 27.12 127.99 25.25 127.99 L5.63 127.99 C3.76 127.99 3.16 129.06
								 2.47 130.69 L0.3 138.33 C0 139.03 0.55 139.8 1.36 139.8 L29.51 139.8 C30.32 139.8 30.88 139.03 30.58
								 138.33 Z" class="st1"/>
				</g>
				<g id="shape4912-13" transform="translate(26.9285,-2.84217E-13)">
					<title>Sheet.4912</title>
					<path d="M15.14 138.33 L12.97 130.69 C12.28 129.06 11.68 127.99 9.81 127.99 L0 127.99 L0 139.8 L14.08 139.8 C14.88
								 139.8 15.44 139.03 15.14 138.33 Z" class="st2"/>
				</g>
				<g id="shape4913-15" transform="translate(22.2453,-18.8976)">
					<title>Sheet.4913</title>
					<path d="M0 138.49 C1.43 139.32 3.02 139.8 4.68 139.8 C6.35 139.8 7.94 139.32 9.37 138.5 L9.37 135.07 L0 135.07
								 L0 138.49 Z" class="st4"/>
				</g>
				<g id="shape4914-17" transform="translate(10.2422,-21.2598)">
					<title>Sheet.4914</title>
					<path d="M31.27 104.37 L2.02 104.37 C0 104.37 0.11 106.71 0.58 107.25 C1.06 107.79 4.49 112.13 4.49 127.66 C4.49
								 134.32 10.12 139.8 16.64 139.8 C23.23 139.8 28.8 134.31 28.8 127.66 C28.8 112.13 32.1 107.86 32.7
								 107.25 C33.3 106.65 33.41 104.37 31.27 104.37 Z" class="st3"/>
				</g>
				<g id="shape4915-19" transform="translate(26.9285,-21.2622)">
					<title>Sheet.4915</title>
					<path d="M0 139.8 C6.56 139.77 12.11 134.3 12.11 127.66 C12.11 112.13 15.42 107.86 16.02 107.26 C16.61 106.65
								 16.73 104.37 14.58 104.37 L0 104.37 L0 139.8 Z" class="st5"/>
				</g>
			</g>
		</g>
	</g>
</svg>
