<?xml version="1.0" encoding="UTF-8" standalone="no"?>
<!DOCTYPE svg PUBLIC "-//W3C//DTD SVG 1.1//EN" "http://www.w3.org/Graphics/SVG/1.1/DTD/svg11.dtd">
<!-- Generated by Microsoft Visio, SVG Export Azure Front Door.svg Page-1 -->
<svg xmlns="http://www.w3.org/2000/svg" xmlns:xlink="http://www.w3.org/1999/xlink" xmlns:ev="http://www.w3.org/2001/xml-events"
		width="1.73185in" height="2.12193in" viewBox="0 0 124.693 152.779" xml:space="preserve" color-interpolation-filters="sRGB"
		class="st4">
	<style type="text/css">
	<![CDATA[
		.st1 {fill:url(#grad0-6);stroke:none;stroke-linecap:butt;stroke-width:34}
		.st2 {fill:#f2f2f2;stroke:none;stroke-linecap:butt;stroke-width:34}
		.st3 {fill:#50e6ff;stroke:none;stroke-linecap:butt;stroke-width:34}
		.st4 {fill:none;fill-rule:evenodd;font-size:12px;overflow:visible;stroke-linecap:square;stroke-miterlimit:3}
	]]>
	</style>

	<defs id="Patterns_And_Gradients">
		<linearGradient id="grad0-6" x1="0" y1="0" x2="1" y2="0" gradientTransform="rotate(-90 0.5 0.5)">
			<stop offset="0" stop-color="#0078d4" stop-opacity="1"/>
			<stop offset="0.82" stop-color="#5ea0ef" stop-opacity="1"/>
		</linearGradient>
	</defs>
	<g>
		<title>Page-1</title>
		<g id="group4566-1" transform="translate(34,-67.748)">
			<title>Azure Front Door</title>
			<g id="group4567-2">
				<title>Icon-networking-73</title>
				<g id="shape4568-3" transform="translate(0,-9.94801)">
					<title>Sheet.4568</title>
					<path d="M56.69 139.89 A12.5984 12.8685 -180 0 0 45.64 127.56 A16.063 16.4073 -180 0 0 29.1 111.7 A16.4724 16.8256
								 -180 0 0 13.35 122.67 A15.2126 15.5387 -180 0 0 0 137.6 A15.4331 15.7639 -180 0 0 15.97 152.75 L43.21
								 152.75 A2.45669 2.50936 -180 0 0 43.91 152.75 A12.8819 13.158 -180 0 0 56.69 139.89 Z" class="st1"/>
				</g>
				<g id="shape4569-7" transform="translate(20.8819,-10.0053)">
					<title>Sheet.4569</title>
					<rect x="0" y="130.259" width="15.937" height="22.5199" class="st2"/>
				</g>
				<g id="shape4570-9" transform="translate(27.748,0)">
					<title>Sheet.4570</title>
					<path d="M11.97 118.81 L0.98 112.37 a0.787402 0.804282 -180 0 0 -0.976378 0.482569 L0 151.97 a0.787402 0.804282
								 -180 0 0 0.755906 0.804282 L1.01 152.78 L12 146.15 a0.787402 0.804282 -180 0 0 0.535433 -0.739939
								 L12.54 119.67 a0.818898 0.836453 -180 0 0 -0.566929 -0.868624 Z" class="st3"/>
				</g>
			</g>
		</g>
	</g>
</svg>
