<?xml version="1.0" encoding="UTF-8" standalone="no"?>
<!DOCTYPE svg PUBLIC "-//W3C//DTD SVG 1.1//EN" "http://www.w3.org/Graphics/SVG/1.1/DTD/svg11.dtd">
<!-- Generated by Microsoft Visio, SVG Export Azure Lighthouse.svg Page-1 -->
<svg xmlns="http://www.w3.org/2000/svg" xmlns:xlink="http://www.w3.org/1999/xlink" xmlns:ev="http://www.w3.org/2001/xml-events"
		width="1.61823in" height="2.24388in" viewBox="0 0 116.513 161.559" xml:space="preserve" color-interpolation-filters="sRGB"
		class="st4">
	<style type="text/css">
	<![CDATA[
		.st1 {fill:url(#grad0-6);stroke:none;stroke-linecap:butt;stroke-width:34}
		.st2 {fill:#83b9f9;stroke:none;stroke-linecap:butt;stroke-width:34}
		.st3 {fill:#0078d4;stroke:none;stroke-linecap:butt;stroke-width:34}
		.st4 {fill:none;fill-rule:evenodd;font-size:12px;overflow:visible;stroke-linecap:square;stroke-miterlimit:3}
	]]>
	</style>

	<defs id="Patterns_And_Gradients">
		<linearGradient id="grad0-6" x1="0" y1="0" x2="1" y2="0" gradientTransform="rotate(-90 0.5 0.5)">
			<stop offset="0" stop-color="#0078d4" stop-opacity="1"/>
			<stop offset="0.16" stop-color="#1380da" stop-opacity="1"/>
			<stop offset="0.53" stop-color="#3c91e5" stop-opacity="1"/>
			<stop offset="0.82" stop-color="#559cec" stop-opacity="1"/>
			<stop offset="1" stop-color="#5ea0ef" stop-opacity="1"/>
		</linearGradient>
	</defs>
	<g>
		<title>Page-1</title>
		<g id="group4553-1" transform="translate(34.1619,-70.8661)">
			<title>Azure Lighthouse</title>
			<g id="group4554-2">
				<title>Icon471-AzureLighthouse</title>
				<g id="shape4555-3">
					<title>Sheet.4555</title>
					<path d="M48.19 159.06 L36.88 129.23 a0.88189 0.89634 -180 0 0 -0.818898 -0.576218 L28 128.65 L28 121.54 A4.09449
								 4.16158 -180 1 0 19.84 121.54 L19.84 128.65 L12.57 128.65 a0.913386 0.928352 -180 0 0 -0.850394
								 0.576218 L0 159.06 A1.73228 1.76067 -180 0 0 1.42 161.56 L46.77 161.56 A1.73228 1.76067 -180 0 0
								 48.19 159.06 Z" class="st1"/>
				</g>
				<g id="shape4556-7" transform="translate(1.41732,0)">
					<title>Sheet.4556</title>
					<path d="M4.94 142.8 L32.13 128.65 L34.49 128.65 a0.88189 0.89634 0 0 1 0.850394 0.60823 L37.95 136.14 L0 155.6
								 L4.94 142.8 ZM24.38 161.5 L43.28 149.97 L46.71 159.06 A1.76378 1.79268 0 0 1 45.26 161.56 L24.38
								 161.5 Z" class="st2"/>
				</g>
				<g id="shape4557-9" transform="translate(10.4567,-32.9085)">
					<title>Sheet.4557</title>
					<path d="M13.23 137.81 L0.25 145.46 a0.503937 0.512194 -180 0 0 -0.251969 0.44817 L0 147.09 a0.503937 0.512194
								 -180 0 0 0.503937 0.512194 L2.46 147.6 L2.46 161.56 L4.91 161.56 L4.91 147.6 L22.05 147.6 L22.05
								 161.56 L24.47 161.56 L24.47 147.6 L26.46 147.6 a0.503937 0.512194 -180 0 0 0.503937 -0.512194 L26.96
								 145.91 a0.503937 0.512194 -180 0 0 -0.251969 -0.44817 L13.64 137.81 a0.692913 0.704267 -180 0 0
								 -0.409449 5.68434E-14 Z" class="st3"/>
				</g>
			</g>
		</g>
	</g>
</svg>
