<?xml version="1.0" encoding="UTF-8" standalone="no"?>
<!DOCTYPE svg PUBLIC "-//W3C//DTD SVG 1.1//EN" "http://www.w3.org/Graphics/SVG/1.1/DTD/svg11.dtd">
<!-- Generated by Microsoft Visio, SVG Export Batch AI.svg Page-1 -->
<svg xmlns="http://www.w3.org/2000/svg" xmlns:xlink="http://www.w3.org/1999/xlink" xmlns:ev="http://www.w3.org/2001/xml-events"
		width="1.10236in" height="1.94109in" viewBox="0 0 79.3701 139.758" xml:space="preserve" color-interpolation-filters="sRGB"
		class="st5">
	<style type="text/css">
	<![CDATA[
		.st1 {fill:#7a7a7a;stroke:none;stroke-linecap:butt;stroke-width:12.24}
		.st2 {fill:#ffffff;stroke:none;stroke-linecap:butt;stroke-width:12.24}
		.st3 {fill:#59b4d9;stroke:none;stroke-linecap:butt;stroke-width:12.24}
		.st4 {fill:#3999c6;stroke:none;stroke-linecap:butt;stroke-width:12.24}
		.st5 {fill:none;fill-rule:evenodd;font-size:12px;overflow:visible;stroke-linecap:square;stroke-miterlimit:3}
	]]>
	</style>

	<g>
		<title>Page-1</title>
		<g id="group4044-1" transform="translate(19.8425,-70.8661)">
			<title>Batch AI</title>
			<g id="group4045-2">
				<title>Sheet.4045</title>
				<g id="shape4046-3" transform="translate(13.1952,0)">
					<title>Sheet.4046</title>
					<path d="M0 130.66 L13.24 130.66 L13.24 134.07 L0 134.07 L0 130.66 ZM3.31 139.76 L8.83 139.76 L12.85 136.35 L0.15
								 136.35 L3.31 139.76 Z" class="st1"/>
				</g>
				<g id="shape4047-5" transform="translate(0.110374,-11.4855)">
					<title>Sheet.4047</title>
					<path d="M13.28 139.76 a0.452534 0.466243 0 0 1 -0.462468 -0.445774 C12.63 133.2 9.34 129.28 6.16 125.49 C2.99
								 121.71 0 118.14 0 112.65 C0 101.19 7.18 94.61 19.71 94.61 C32.23 94.61 39.41 101.19 39.41 112.65
								 C39.41 118.14 36.42 121.71 33.26 125.49 C30.08 129.28 26.79 133.21 26.6 139.31 a0.452534 0.466243
								 0 0 1 -0.462468 0.445774 L13.28 139.76 Z" class="st2"/>
				</g>
				<g id="shape4048-7" transform="translate(0,-11.3718)">
					<title>Sheet.4048</title>
					<path d="M18.71 95.62 C18.71 94.97 18.18 94.44 17.55 94.48 C6.18 95.25 0 101.88 0 112.53 C0 123.71 12.44 127.18
								 12.81 139.2 a0.56622 0.583373 -180 0 0 0.573946 0.55608 L17.61 139.76 A1.10374 1.13718 -180 0 0
								 18.71 138.62 L18.71 95.62 Z" class="st3"/>
				</g>
				<g id="shape4049-9" transform="translate(20.9711,-11.3718)">
					<title>Sheet.4049</title>
					<path d="M0 95.62 C0 94.97 0.54 94.44 1.17 94.48 C12.53 95.25 18.71 101.88 18.71 112.53 C18.71 123.71 6.27 127.18
								 5.9 139.2 a0.56622 0.583373 0 0 1 -0.573946 0.55608 L1.1 139.76 A1.10374 1.13718 0 0 1 0 138.62
								 L0 95.62 Z" class="st4"/>
				</g>
				<g id="shape4050-11" transform="translate(3.1843,-17.6126)">
					<title>Sheet.4050</title>
					<path d="M23.36 118.45 L22.37 116.42 L16.63 119.37 L10.9 116.42 L9.91 118.45 L15.95 121.56 L17.32 121.56 L23.36
								 118.45 ZM23.14 136.76 L22.15 134.73 L16.63 137.57 L11.12 134.73 L10.13 136.76 L15.95 139.76 L17.32
								 139.76 L23.14 136.76 ZM10.93 110.06 L10.23 107.9 L5.44 109.55 L1.69 105.68 C1.15 106.21 0.66 106.78
								 0.21 107.38 L3.88 111.16 L2.28 116.09 L4.38 116.81 L6.02 111.75 L10.93 110.06 ZM32.57 106.74 A14.6025
								 15.0449 -180 0 0 30.99 105.15 L26.72 109.55 L21.93 107.9 L21.23 110.06 L26.15 111.75 L27.78 116.81
								 L29.88 116.09 L28.28 111.16 L32.57 106.74 ZM33.27 127.9 L28.18 125.89 L27.75 120.84 L25.55 121.04
								 L26.01 126.36 L22.15 129.92 L23.63 131.62 L27.48 128.05 L31.85 129.77 A37.8694 39.0166 -180 0 0
								 33.27 127.9 ZM11.11 129.92 L7.26 126.36 L7.72 121.04 L5.52 120.84 L5.09 125.89 L0 127.9 C0.45 128.54
								 0.92 129.16 1.42 129.77 L5.78 128.05 L9.64 131.62 L11.11 129.92 Z" class="st2"/>
				</g>
			</g>
		</g>
	</g>
</svg>
