<?xml version="1.0" encoding="UTF-8" standalone="no"?>
<!DOCTYPE svg PUBLIC "-//W3C//DTD SVG 1.1//EN" "http://www.w3.org/Graphics/SVG/1.1/DTD/svg11.dtd">
<!-- Generated by Microsoft Visio, SVG Export Cloud App Security.svg Page-1 -->
<svg xmlns="http://www.w3.org/2000/svg" xmlns:xlink="http://www.w3.org/1999/xlink" xmlns:ev="http://www.w3.org/2001/xml-events"
		width="1.5748in" height="1.59055in" viewBox="0 0 113.386 114.52" xml:space="preserve" color-interpolation-filters="sRGB"
		class="st5">
	<style type="text/css">
	<![CDATA[
		.st1 {fill:none;stroke:#fea11b;stroke-linecap:butt;stroke-width:2.68275}
		.st2 {fill:url(#grad0-8);stroke:none;stroke-linecap:butt;stroke-width:1.12564}
		.st3 {fill:#000000;stroke:#000000;stroke-linecap:butt;stroke-width:3.22922}
		.st4 {fill:#000000;stroke:#000000;stroke-linecap:butt;stroke-width:2.75991}
		.st5 {fill:none;fill-rule:evenodd;font-size:12px;overflow:visible;stroke-linecap:square;stroke-miterlimit:3}
	]]>
	</style>

	<defs id="Patterns_And_Gradients">
		<linearGradient id="grad0-8" x1="0" y1="0" x2="1" y2="0" gradientTransform="rotate(-90.032128289245 0.5 0.5)">
			<stop offset="0" stop-color="#0078d4" stop-opacity="1"/>
			<stop offset="0.065" stop-color="#0a7cd7" stop-opacity="1"/>
			<stop offset="0.34" stop-color="#2e8ce1" stop-opacity="1"/>
			<stop offset="0.595" stop-color="#4897e9" stop-opacity="1"/>
			<stop offset="0.82" stop-color="#589eed" stop-opacity="1"/>
			<stop offset="1" stop-color="#5ea0ef" stop-opacity="1"/>
		</linearGradient>
	</defs>
	<g>
		<title>Page-1</title>
		<g id="group3883-1" transform="translate(28.3465,-64.6299)">
			<title>Cloud App Security</title>
			<g id="group3884-2">
				<title>g8</title>
				<g id="shape3885-3" transform="translate(18.3199,-22.533)">
					<title>path53</title>
					<ellipse cx="10.6327" cy="103.109" rx="10.6327" ry="11.4107" class="st1"/>
				</g>
				<g id="shape3886-5">
					<title>path6-9</title>
					<path d="M49.91 92.46 C49.95 91.96 49.98 91.46 49.98 90.96 C49.98 83.03 43.38 76.59 35.28 76.59 C30.47 76.59
								 26.06 78.87 23.34 82.57 A11.1539 11.0272 -180 0 0 17.46 80.94 C11.34 80.94 6.35 85.82 6.35 91.83
								 L6.37 92.69 C2.23 94.76 0 98.19 0 102.49 C0 109.24 5.57 114.52 12.67 114.52 L44.02 114.52 C51.13
								 114.52 56.69 109.24 56.69 102.49 C56.69 98.04 54.25 94.47 49.91 92.46 Z" class="st2"/>
				</g>
				<g id="shape3887-9" transform="translate(26.2961,-18.0594)">
					<title>path875</title>
					<ellipse cx="2.50496" cy="112.043" rx="2.50496" ry="2.47648" class="st3"/>
				</g>
				<g id="shape3888-11" transform="translate(26.6903,-1.67639)">
					<title>rect893</title>
					<rect x="0" y="103.305" width="4.29724" height="11.2144" class="st4"/>
				</g>
			</g>
		</g>
	</g>
</svg>
