<?xml version="1.0" encoding="UTF-8" standalone="no"?>
<!DOCTYPE svg PUBLIC "-//W3C//DTD SVG 1.1//EN" "http://www.w3.org/Graphics/SVG/1.1/DTD/svg11.dtd">
<!-- Generated by Microsoft Visio, SVG Export Cloud Service.svg Page-1 -->
<svg xmlns="http://www.w3.org/2000/svg" xmlns:xlink="http://www.w3.org/1999/xlink" xmlns:ev="http://www.w3.org/2001/xml-events"
		width="1.70942in" height="1.98861in" viewBox="0 0 123.078 143.18" xml:space="preserve" color-interpolation-filters="sRGB"
		class="st5">
	<style type="text/css">
	<![CDATA[
		.st1 {fill:url(#grad0-6);stroke:none;stroke-linecap:butt;stroke-width:33.1925}
		.st2 {fill:#e3e3e3;stroke:none;stroke-linecap:butt;stroke-width:33.1925}
		.st3 {fill:#ffffff;stroke:none;stroke-linecap:butt;stroke-width:33.1925}
		.st4 {fill:url(#grad0-18);stroke:none;stroke-linecap:butt;stroke-width:33.1925}
		.st5 {fill:none;fill-rule:evenodd;font-size:12px;overflow:visible;stroke-linecap:square;stroke-miterlimit:3}
	]]>
	</style>

	<defs id="Patterns_And_Gradients">
		<linearGradient id="grad0-6" x1="0" y1="0" x2="1" y2="0" gradientTransform="rotate(90 0.5 0.5)">
			<stop offset="0" stop-color="#5ea0ef" stop-opacity="1"/>
			<stop offset="1" stop-color="#0078d4" stop-opacity="1"/>
		</linearGradient>
		<linearGradient id="grad0-18" x1="0" y1="0" x2="1" y2="0" gradientTransform="rotate(90 0.5 0.5)">
			<stop offset="0" stop-color="#faa21d" stop-opacity="1"/>
			<stop offset="0.4" stop-color="#f79415" stop-opacity="1"/>
			<stop offset="1" stop-color="#ef7100" stop-opacity="1"/>
		</linearGradient>
	</defs>
	<g>
		<title>Page-1</title>
		<g id="group3874-1" transform="translate(33.1925,-64.6299)">
			<title>Cloud Service</title>
			<g id="group3875-2">
				<title>g16</title>
				<g id="shape3876-3" transform="translate(0,-8.02701)">
					<title>path2</title>
					<path d="M30.35 142.44 A14.1323 14.3385 0 0 1 44.47 128.12 A13.9402 14.1435 0 0 1 50.43 129.5 A11.5654 11.7341
								 -180 0 0 40.77 120.13 A14.463 14.674 -180 0 0 26 105.85 A14.8031 15.0191 -180 0 0 11.93 115.76 A13.7071
								 13.9071 -180 0 0 0 129.47 A13.8992 14.102 -180 0 0 14.26 143.18 L30.43 143.18 C30.42 142.93 30.35
								 142.69 30.35 142.44 Z" class="st1"/>
				</g>
				<g id="shape3877-7" transform="translate(11.5181,-19.9369)">
					<title>circle4</title>
					<ellipse cx="2.06929" cy="141.081" rx="2.06929" ry="2.09948" class="st2"/>
				</g>
				<g id="shape3878-9" transform="translate(6.18583,-14.4629)">
					<title>path6</title>
					<path d="M14.69 136.41 L14.69 134.72 L14.45 134.72 L12.67 134.13 L12.21 132.98 L13.11 131.04 L11.95 129.85 L11.71
								 129.85 L10.05 130.72 L8.93 130.25 L8.2 128.22 L6.53 128.22 L6.53 128.45 L5.94 130.25 L4.72 130.72
								 L2.83 129.8 L1.66 130.98 L1.66 131.22 L2.51 132.9 L2.04 134.06 L0 134.8 L0 136.63 L0.23 136.63 L2.01
								 137.22 L2.48 138.39 L1.57 140.34 L2.74 141.52 L2.97 141.52 L4.63 140.66 L5.77 141.14 L6.5 143.18
								 L8.16 143.18 L8.16 142.94 L8.74 141.14 L9.88 140.67 L11.8 141.58 L12.97 140.4 L12.97 140.16 L12.12
								 138.48 L12.59 137.33 L14.69 136.41 ZM7.4 138.86 A3.1748 3.22112 0 1 1 7.46 138.86 L7.4 138.86 Z"
							class="st3"/>
				</g>
				<g id="shape3879-11" transform="translate(25.011,-28.6)">
					<title>circle8</title>
					<ellipse cx="2.44724" cy="140.697" rx="2.44724" ry="2.48295" class="st2"/>
				</g>
				<g id="shape3880-13" transform="translate(18.715,-22.1258)">
					<title>path10</title>
					<path d="M17.49 135.18 L17.49 133.16 L17.22 133.16 L15.07 132.48 L14.57 130.97 L15.65 128.61 L14.25 127.2 L13.99
								 127.2 L11.98 128.23 L10.64 127.67 L9.76 125.21 L7.69 125.21 L7.69 125.51 L7 127.67 L5.63 128.23
								 L3.35 127.14 L1.95 128.55 L2.1 128.82 L2.91 131.01 L2.45 132.49 L0 133.29 L0 135.44 L0.29 135.44
								 L2.42 136.14 L2.91 137.48 L1.84 139.84 L3.29 141.35 L3.58 141.2 L5.57 140.17 L6.94 140.73 L7.81
								 143.18 L9.79 143.18 L9.79 142.89 L10.49 140.73 L11.86 140.17 L14.16 141.26 L15.56 139.84 L15.42
								 139.57 L14.57 137.44 L15.12 136.05 L17.49 135.18 ZM8.74 138.12 A3.84567 3.90178 0 1 1 12.59 134.23
								 A3.81732 3.87302 0 0 1 8.81 138.13 L8.74 138.12 Z" class="st3"/>
				</g>
				<g id="shape3881-15" transform="translate(35.8172,0)">
					<title>path12</title>
					<path d="M8.66 122.01 A12.2268 12.4052 -180 1 0 20.88 134.41 A12.2268 12.4052 -180 0 0 8.65 122.01 L8.66 122.01
								 Z" class="st4"/>
				</g>
				<g id="shape3882-19" transform="translate(37.6283,-1.84041)">
					<title>path14</title>
					<path d="M13.08 129.33 L5.87 129.37 a0.425197 0.4314 -180 0 0 -0.314961 0.74137 L8.15 132.69 L3.32 137.61 L0.78
								 134.98 a0.428346 0.434596 -180 0 0 -0.733858 0.300383 L0 142.6 a0.576378 0.584787 -180 0 0 0.576378
								 0.584787 L7.78 143.14 a0.425197 0.4314 -180 0 0 0.425197 -0.434596 a0.437795 0.444183 -180 0 0 -0.125984
								 -0.319556 L5.49 139.8 L10.34 134.88 L12.88 137.51 a0.431496 0.437792 -180 0 0 0.733858 -0.300383
								 L13.66 129.9 a0.576378 0.584787 -180 0 0 -0.576378 -0.572005 Z" class="st3"/>
				</g>
			</g>
		</g>
	</g>
</svg>
