<?xml version="1.0" encoding="UTF-8" standalone="no"?>
<!DOCTYPE svg PUBLIC "-//W3C//DTD SVG 1.1//EN" "http://www.w3.org/Graphics/SVG/1.1/DTD/svg11.dtd">
<!-- Generated by Microsoft Visio, SVG Export Cloud Simple Virtual Machine.svg Page-1 -->
<svg xmlns="http://www.w3.org/2000/svg" xmlns:xlink="http://www.w3.org/1999/xlink" xmlns:ev="http://www.w3.org/2001/xml-events"
		width="1.5748in" height="1.46063in" viewBox="0 0 113.386 105.165" xml:space="preserve" color-interpolation-filters="sRGB"
		class="st3">
	<style type="text/css">
	<![CDATA[
		.st1 {fill:#83bc41;stroke:none;stroke-linecap:butt;stroke-width:1.09899}
		.st2 {fill:#496487;stroke:none;stroke-linecap:butt;stroke-width:1.09899}
		.st3 {fill:none;fill-rule:evenodd;font-size:12px;overflow:visible;stroke-linecap:square;stroke-miterlimit:3}
	]]>
	</style>

	<g>
		<title>Page-1</title>
		<g id="group3831-1" transform="translate(28.3465,-61.5118)">
			<title>Cloud Simple Virtual Machine</title>
			<g id="shape3832-2" transform="translate(0,-0.0289961)">
				<title>path7</title>
				<path d="M31.5 101.42 A17.4316 18.8493 0 0 1 29.46 102.66 A22.7952 24.6491 0 0 1 26.7 103.86 A24.9406 26.969 0 0
							 1 23.17 104.79 A25.9329 28.042 0 0 1 18.71 105.17 A21.9504 23.7356 0 0 1 11.45 103.89 A17.0427 18.4288
							 0 0 1 5.51 100.12 A16.493 17.8343 0 0 1 1.49 93.96 A19.2686 20.8357 0 0 1 -0 85.5 A20.2341 21.8797 0
							 0 1 1.45 76.98 A16.3723 17.7039 0 0 1 5.47 70.7 A17.083 18.4723 0 0 1 11.52 66.84 A22.7952 24.6491 0
							 0 1 19.01 65.54 A25.9329 28.042 0 0 1 24.78 66.13 A15.0582 16.2829 0 0 1 28.65 67.58 A9.74828 10.5411
							 0 0 1 29.73 68.35 A3.7545 4.05985 0 0 1 31.22 73.44 A2.38679 2.58091 0 0 1 30.83 74.17 C29.49 76.04
							 26.71 74.95 25.13 74.17 A14.0123 15.1519 -180 0 0 19.32 73.01 A13.5698 14.6735 -180 0 0 14.94 73.75
							 A9.38624 10.1496 -180 0 0 11.41 76.02 A10.0567 10.8746 -180 0 0 9.06 79.83 A13.1676 14.2385 -180 0 0
							 8.21 85.26 A13.4089 14.4995 -180 0 0 9.1 90.87 A9.38624 10.1496 -180 0 0 11.6 94.68 A10.1908 11.0196
							 -180 0 0 15.27 96.89 A14.7498 15.9494 -180 0 0 19.76 97.57 A13.9185 15.0504 -180 0 0 25.33 96.55 A25.0613
							 27.0995 -180 0 0 28.2 95.02 L31.5 101.42 Z" class="st1"/>
			</g>
			<g id="shape3833-4" transform="translate(23.2108,0)">
				<title>path9</title>
				<path d="M3 94.74 A10.5796 11.4401 -180 0 0 4.73 95.71 A30.9478 33.4648 -180 0 0 7.8 96.94 A31.7389 34.3202 -180
							 0 0 11.99 98.03 A29.3521 31.7393 -180 0 0 17.11 98.48 A15.6884 16.9644 -180 0 0 22.98 97.47 A3.27178
							 3.53787 -180 0 0 25.26 93.99 A3.35223 3.62487 -180 0 0 23.81 90.81 A12.068 13.0495 -180 0 0 18.62 89.27
							 L13.26 88.59 A25.3026 27.3605 0 0 1 8.21 87.51 A13.0067 14.0645 0 0 1 4.18 85.37 A8.79625 9.51165 0
							 0 1 1.6 82.04 A9.56056 10.3381 0 0 1 0.67 77.3 A10.3115 11.1501 0 0 1 1.53 72.77 A9.38624 10.1496 0
							 0 1 4.21 69 A13.5564 14.659 0 0 1 9.09 66.42 A26.7106 28.8829 0 0 1 16.39 65.48 A31.1087 33.6388 0 0
							 1 27.56 67.19 A11.116 12.0201 0 0 1 29.86 68.55 A3.24496 3.50887 0 0 1 31.2 73.27 C30.01 75.69 27.49
							 74.54 27.26 74.41 A16.6807 18.0373 -180 0 0 25.44 73.54 A25.3294 27.3895 -180 0 0 16.52 71.93 C11.16
							 71.93 8.47 73.46 8.47 76.5 A3.01701 3.26238 -180 0 0 9.99 79.4 A10.9685 11.8606 -180 0 0 14.35 80.76
							 L21.39 81.76 A18.7725 20.2993 0 0 1 30.3 85.19 A8.20626 8.87367 0 0 1 33.48 92.83 A9.88237 10.6861 0
							 0 1 29.37 101.8 C26.62 104.04 22.67 105.17 17.51 105.17 A38.0277 41.1205 0 0 1 10.69 104.56 A41.1117
							 44.4554 0 0 1 5.4 103.19 A26.2949 28.4335 0 0 1 1.8 101.64 A10.9551 11.8461 0 0 1 -0 100.53 L3 94.74
							 Z" class="st2"/>
			</g>
			<g id="shape3834-6" transform="translate(23.1706,-2.02993)">
				<title>path11</title>
				<path d="M4.77 97.73 L4.24 97.48 C3.55 97.87 2.9 98.23 2.13 98.57 L0.94 100.58 L0 102.56 A8.30012 8.97517 -180 0
							 0 1.73 103.72 A8.82307 9.54065 -180 0 0 5.24 105.17 L6.26 104.67 A17.4316 18.8493 -180 0 0 8.3 103.44
							 L5.52 98.09 L4.77 97.73 Z" class="st1"/>
			</g>
		</g>
	</g>
</svg>
