<?xml version="1.0" encoding="UTF-8" standalone="no"?>
<!DOCTYPE svg PUBLIC "-//W3C//DTD SVG 1.1//EN" "http://www.w3.org/Graphics/SVG/1.1/DTD/svg11.dtd">
<!-- Generated by Microsoft Visio, SVG Export Cognitive Services Content Extraction.svg Page-1 -->
<svg xmlns="http://www.w3.org/2000/svg" xmlns:xlink="http://www.w3.org/1999/xlink" xmlns:ev="http://www.w3.org/2001/xml-events"
		width="1.41732in" height="1.94512in" viewBox="0 0 102.047 140.049" xml:space="preserve" color-interpolation-filters="sRGB"
		class="st3">
	<style type="text/css">
	<![CDATA[
		.st1 {fill:#50e6ff;stroke:none;stroke-linecap:butt;stroke-width:12.4898}
		.st2 {fill:#0078d4;stroke:none;stroke-linecap:butt;stroke-width:12.4898}
		.st3 {fill:none;fill-rule:evenodd;font-size:12px;overflow:visible;stroke-linecap:square;stroke-miterlimit:3}
	]]>
	</style>

	<g>
		<title>Page-1</title>
		<g id="group3769-1" transform="translate(25.5118,-70.8661)">
			<title>Cognitive Services Content Extraction</title>
			<g id="shape3770-2" transform="translate(20.7792,-10.4292)">
				<title>Sheet.3770</title>
				<path d="M30.22 110.46 L0 110.46 L0 140.05 L30.22 140.05 L30.22 110.46 Z" class="st1"/>
			</g>
			<g id="shape3771-4" transform="translate(20.7225,-9.99613)">
				<title>Sheet.3771</title>
				<path d="M0.02 129.86 L0.02 140.05 L30.27 140.05 L30.27 133.82 L30.27 133.88 L25.47 129.16 L20.69 133.88 L8.05 121.79
							 L0 129.69 L0.02 129.86 Z" class="st2"/>
			</g>
			<g id="shape3772-6" transform="translate(39.1207,-28.7741)">
				<title>Sheet.3772</title>
				<path d="M7.87 136.19 C7.87 138.33 6.11 140.05 3.93 140.05 C1.76 140.05 0 138.32 0 136.19 C0 134.06 1.73 132.31 3.9
							 132.31 C6.08 132.31 7.87 134.04 7.87 136.19 Z" class="st2"/>
			</g>
			<g id="shape3773-8" transform="translate(0.0224644,-42.583)">
				<title>Sheet.3773</title>
				<path d="M17 125.94 L0 125.94 L0 137.5 L2.62 137.5 L2.62 140.05 L5.24 137.5 L17 137.5 L17 125.94 Z" class="st2"/>
			</g>
			<g id="shape3774-10" transform="translate(0,-0.0227933)">
				<title>Sheet.3774</title>
				<path d="M16.99 120.13 L0 120.13 L0 140.05 L16.99 140.05 L16.99 120.13 Z" class="st1"/>
			</g>
			<g id="shape3775-12" transform="translate(20.7337,-5.68434E-14)">
				<title>Sheet.3775</title>
				<path d="M30.29 133.38 L0 133.38 L0 140.05 L30.29 140.05 L30.29 133.38 Z" class="st2"/>
			</g>
			<g id="shape3776-14" transform="translate(20.7792,-51.7506)">
				<title>Sheet.3776</title>
				<path d="M30.23 135.16 L0 135.16 L0 140.05 L30.23 140.05 L30.23 135.16 Z" class="st2"/>
			</g>
			<g id="shape3777-16" transform="translate(0.0792388,-35.9187)">
				<title>Sheet.3777</title>
				<path d="M16.94 135.97 L0 135.97 L0 140.05 L16.94 140.05 L16.94 135.97 Z" class="st2"/>
			</g>
			<g id="shape3778-18" transform="translate(0.0792388,-30.4639)">
				<title>Sheet.3778</title>
				<path d="M16.94 135.97 L0 135.97 L0 140.05 L16.94 140.05 L16.94 135.97 Z" class="st2"/>
			</g>
			<g id="shape3779-20" transform="translate(0.0792388,-25.0093)">
				<title>Sheet.3779</title>
				<path d="M16.94 135.97 L0 135.97 L0 140.05 L16.94 140.05 L16.94 135.97 Z" class="st1"/>
			</g>
			<g id="shape3780-22" transform="translate(20.7792,-45.1413)">
				<title>Sheet.3780</title>
				<path d="M30.23 135.16 L0 135.16 L0 140.05 L30.23 140.05 L30.23 135.16 Z" class="st2"/>
			</g>
		</g>
	</g>
</svg>
