<?xml version="1.0" encoding="UTF-8" standalone="no"?>
<!DOCTYPE svg PUBLIC "-//W3C//DTD SVG 1.1//EN" "http://www.w3.org/Graphics/SVG/1.1/DTD/svg11.dtd">
<!-- Generated by Microsoft Visio, SVG Export Cognitive Services Personaliser.svg Page-1 -->
<svg xmlns="http://www.w3.org/2000/svg" xmlns:xlink="http://www.w3.org/1999/xlink" xmlns:ev="http://www.w3.org/2001/xml-events"
		width="1.5748in" height="1.911in" viewBox="0 0 113.386 137.592" xml:space="preserve" color-interpolation-filters="sRGB"
		class="st2">
	<style type="text/css">
	<![CDATA[
		.st1 {fill:#0078d4;stroke:none;stroke-linecap:butt;stroke-width:10.0328}
		.st2 {fill:none;fill-rule:evenodd;font-size:12px;overflow:visible;stroke-linecap:square;stroke-miterlimit:3}
	]]>
	</style>

	<g>
		<title>Page-1</title>
		<g id="group3618-1" transform="translate(28.3465,-70.8661)">
			<title>Cognitive Services Personaliser</title>
			<g id="shape3619-2">
				<title>Sheet.3619</title>
				<path d="M28.35 80.9 C24.11 80.9 20.09 81.82 16.29 83.56 L17.43 86 C20.85 84.37 24.49 83.56 28.29 83.56 C42.41 83.56
							 53.92 95.07 53.92 109.19 C53.92 117.39 50.01 124.72 43.99 129.45 L43.99 123.85 C43.99 120.54 41.27 117.83
							 37.96 117.83 L30.63 117.83 C36.38 116.85 40.78 111.85 40.78 105.82 C40.78 99.09 35.3 93.61 28.56 93.61
							 C21.83 93.61 16.35 99.09 16.35 105.82 C16.35 111.85 20.74 116.85 26.5 117.83 L19.17 117.83 C15.86 117.83
							 13.14 120.54 13.14 123.85 L13.14 129.83 C6.84 125.16 2.72 117.66 2.72 109.25 C2.72 103.27 4.78 97.52
							 8.58 92.9 L8.58 99.36 L11.3 99.36 L11.3 88.5 L0.43 88.5 L0.43 91.22 L6.41 91.22 C2.28 96.32 0 102.62
							 0 109.25 C0 124.88 12.71 137.59 28.35 137.59 C43.99 137.59 56.69 124.88 56.69 109.25 C56.69 93.61 43.93
							 80.9 28.35 80.9 ZM19.11 105.82 C19.11 100.61 23.35 96.32 28.62 96.32 C33.83 96.32 38.12 100.56 38.12
							 105.82 C38.12 111.04 33.89 115.33 28.62 115.33 C23.35 115.27 19.11 111.04 19.11 105.82 ZM8.58 91.22
							 L8.58 91.38 L8.42 91.22 L8.58 91.22 ZM15.86 131.62 L15.86 123.85 C15.86 122.01 17.38 120.54 19.17 120.54
							 L37.96 120.54 C39.8 120.54 41.27 122.06 41.27 123.85 L41.27 131.29 C37.47 133.52 33.02 134.82 28.29
							 134.82 C23.79 134.82 19.55 133.68 15.86 131.62 Z" class="st1"/>
			</g>
		</g>
	</g>
</svg>
