<?xml version="1.0" encoding="UTF-8" standalone="no"?>
<!DOCTYPE svg PUBLIC "-//W3C//DTD SVG 1.1//EN" "http://www.w3.org/Graphics/SVG/1.1/DTD/svg11.dtd">
<!-- Generated by Microsoft Visio, SVG Export Cognitive Services Custom Vision.svg Page-1 -->
<svg xmlns="http://www.w3.org/2000/svg" xmlns:xlink="http://www.w3.org/1999/xlink" xmlns:ev="http://www.w3.org/2001/xml-events"
		width="1.5748in" height="1.60385in" viewBox="0 0 113.386 115.477" xml:space="preserve" color-interpolation-filters="sRGB"
		class="st2">
	<style type="text/css">
	<![CDATA[
		.st1 {fill:#0078d4;stroke:none;stroke-linecap:butt;stroke-width:10.0328}
		.st2 {fill:none;fill-rule:evenodd;font-size:12px;overflow:visible;stroke-linecap:square;stroke-miterlimit:3}
	]]>
	</style>

	<g>
		<title>Page-1</title>
		<g id="group3759-1" transform="translate(28.3465,-63.0709)">
			<title>Cognitive Services Custom Vision</title>
			<g id="shape3760-2">
				<title>Sheet.3760</title>
				<path d="M28.38 114.15 C16.73 115.48 0 103.22 0 93.77 C0 84.55 14.87 72.96 28.38 73.11 C43.04 73.25 56.69 85.51 56.69
							 93.77 C56.69 102.48 41.18 115.03 28.38 114.15 ZM28.38 77.02 C23.23 77.02 16.73 78.86 11.65 83 C7.15
							 86.61 3 91.56 3.72 94.14 C5.79 101.97 17.16 110.38 28.31 110.46 C40.68 110.53 52.9 99.38 52.9 93.77
							 C52.9 88.46 40.68 77.02 28.38 77.02 Z" class="st1"/>
			</g>
			<g id="shape3761-4" transform="translate(18.6593,-11.6644)">
				<title>Sheet.3761</title>
				<path d="M19.37 106.69 L19.37 104.04 L16.87 103.37 C16.73 102.71 16.44 102.12 16.09 101.53 L17.44 99.24 L15.66 97.39
							 L13.37 98.79 C12.8 98.5 12.23 98.2 11.58 98.06 L10.94 95.4 L8.36 95.4 L7.79 98.06 C7.15 98.2 6.58 98.5
							 6.01 98.79 L3.72 97.39 L1.93 99.24 L3.29 101.6 C3 102.19 2.72 102.78 2.57 103.44 L0 104.11 L0 106.77
							 L2.57 107.43 C2.72 108.1 3 108.69 3.29 109.28 L1.93 111.64 L3.72 113.48 L5.93 112.08 C6.51 112.45 7.08
							 112.67 7.72 112.82 L8.36 115.48 L10.94 115.48 L11.58 112.89 C12.23 112.75 12.87 112.45 13.37 112.16
							 L15.59 113.56 L17.37 111.71 L16.01 109.42 C16.37 108.83 16.59 108.24 16.8 107.5 L19.37 106.69 ZM9.72
							 109.42 C7.58 109.42 5.79 107.58 5.79 105.36 C5.79 103.15 7.58 101.3 9.72 101.3 C11.87 101.3 13.65 103.15
							 13.65 105.36 C13.65 107.58 11.87 109.42 9.72 109.42 Z" class="st1"/>
			</g>
		</g>
	</g>
</svg>
