<?xml version="1.0" encoding="UTF-8" standalone="no"?>
<!DOCTYPE svg PUBLIC "-//W3C//DTD SVG 1.1//EN" "http://www.w3.org/Graphics/SVG/1.1/DTD/svg11.dtd">
<!-- Generated by Microsoft Visio, SVG Export Compute and App.svg Page-1 -->
<svg xmlns="http://www.w3.org/2000/svg" xmlns:xlink="http://www.w3.org/1999/xlink" xmlns:ev="http://www.w3.org/2001/xml-events"
		width="1.5748in" height="2.03728in" viewBox="0 0 113.386 146.684" xml:space="preserve" color-interpolation-filters="sRGB"
		class="st9">
	<style type="text/css">
	<![CDATA[
		.st1 {fill:#7c7b7b;stroke:none;stroke-linecap:butt;stroke-width:19.125}
		.st2 {fill:#9fa0a2;stroke:none;stroke-linecap:butt;stroke-width:19.125}
		.st3 {fill:#ffffff;fill-opacity:0.2;stroke:none;stroke-linecap:butt;stroke-width:19.125}
		.st4 {fill:#5bb4da;stroke:none;stroke-linecap:butt;stroke-width:19.125}
		.st5 {fill:#b8d433;stroke:none;stroke-linecap:butt;stroke-width:19.125}
		.st6 {fill:#ffffff;stroke:none;stroke-linecap:butt;stroke-width:19.125}
		.st7 {fill:#ffffff;fill-opacity:0.7;stroke:none;stroke-linecap:butt;stroke-width:19.125}
		.st8 {fill:#ffffff;fill-opacity:0.4;stroke:none;stroke-linecap:butt;stroke-width:19.125}
		.st9 {fill:none;fill-rule:evenodd;font-size:12px;overflow:visible;stroke-linecap:square;stroke-miterlimit:3}
	]]>
	</style>

	<g>
		<title>Page-1</title>
		<g id="group3538-1" transform="translate(28.3465,-70.8661)">
			<title>Compute and App</title>
			<g id="group3539-2">
				<title> Dashboard_computeapps-pathfind</title>
				<g id="shape3540-3" transform="translate(8.37998,-11.8077)">
					<title>path6</title>
					<path d="M20.07 145.95 L20.07 145.9 C20.07 142.7 21.04 139.73 22.69 137.25 L22.65 137.31 L9.96 137.31 C11.55
								 142.92 9.42 143.72 0 143.72 L0 146.68 L20.07 146.68 L20.07 145.95 L20.07 145.95 Z" class="st1"/>
				</g>
				<g id="shape3541-5" transform="translate(-2.83773E-13,-21.1793)">
					<title>path8</title>
					<path d="M44.2 139.58 A15.6058 15.5808 0 0 1 48.83 140.28 L48.71 140.25 L48.71 114.01 A3.018 3.01318 -180 0 0
								 45.77 111.17 L2.65 111.17 A2.76191 2.7575 -180 0 0 0 114.02 L0 114.01 L0 143.97 A2.73345 2.72909
								 -180 0 0 2.64 146.68 L31.1 146.68 C33.94 142.4 38.75 139.61 44.2 139.58 L44.2 139.58 L44.2 139.58
								 Z" class="st2"/>
				</g>
				<g id="shape3542-7" transform="translate(2.79776E-13,-21.1793)">
					<title>path10</title>
					<path d="M45.77 111.17 L2.65 111.17 A2.76191 2.7575 -180 0 0 -0 114.02 L0 114.01 L0 143.97 A2.73345 2.72909 -180
								 0 0 2.64 146.68 L3.67 146.68 L45.8 111.17 L45.77 111.17 Z" class="st3"/>
				</g>
				<g id="shape3543-9" transform="translate(3.69914,-24.9027)">
					<title>path12</title>
					<path d="M40.51 143.3 L41.22 143.3 L41.22 118.64 L0 118.64 L0 146.68 L30.77 146.68 A15.5471 15.5222 0 0 1 40.5
								 143.3 L40.51 143.3 L40.51 143.3 Z" class="st4"/>
				</g>
				<g id="shape3544-11" transform="translate(3.69914,-24.8885)">
					<title>path14</title>
					<path d="M0 146.68 L0.04 146.68 L0.04 118.63 L37.73 118.57 L0 118.63 L0 146.68 Z" class="st4"/>
				</g>
				<g id="shape3545-13" transform="translate(23.4611,-53.9656)">
					<title>path16</title>
					<path d="M1.39 145.99 L1.39 146 a0.682919 0.681828 0 0 1 -0.682919 0.681828 a0.711374 0.710237 0 1 1 -9.99201E-15
								 -1.42047 C1.09 145.26 1.39 145.57 1.39 145.95 L1.39 145.99 Z" class="st5"/>
				</g>
				<g id="shape3546-15" transform="translate(16.0913,-39.7733)">
					<title>path18</title>
					<path d="M8.79 146.68 L8.66 146.68 L0.13 141.74 a0.313004 0.312504 0 0 1 -0.128047 -0.2255 L0 141.51 C0 141.42
								 0.05 141.33 0.13 141.28 L0.13 141.28 L8.66 136.37 a0.2721 0.271666 0 0 1 0.257873 0.00177559 L8.92
								 136.37 L17.46 141.31 C17.53 141.37 17.58 141.45 17.59 141.54 L17.59 141.54 a0.2721 0.271666 0 0
								 1 -0.126269 0.227276 L17.46 141.77 L8.92 146.68 L8.78 146.68 L8.79 146.68 Z" class="st6"/>
				</g>
				<g id="shape3547-17" transform="translate(14.8677,-27.7454)">
					<title>path20</title>
					<path d="M8.79 146.67 C8.77 146.68 8.75 146.68 8.73 146.68 C8.71 146.68 8.68 146.68 8.66 146.67 L8.66 146.67
								 L0.13 141.76 a0.313004 0.312504 0 0 1 -0.128047 -0.2255 L0 131.59 C0 131.49 0.05 131.41 0.13 131.36
								 L0.13 131.36 C0.17 131.33 0.21 131.32 0.26 131.32 C0.31 131.32 0.36 131.33 0.4 131.36 L8.93 136.29
								 a0.268544 0.268115 0 0 1 0.128047 0.227276 L9.06 146.46 a0.273879 0.273441 0 0 1 -0.126269 0.213071
								 L8.93 146.67 a0.241867 0.241481 0 0 1 -0.129826 0 L8.81 146.67 L8.79 146.67 Z" class="st7"/>
				</g>
				<g id="shape3548-19" transform="translate(25.8229,-27.7578)">
					<title>path22</title>
					<path d="M0.26 146.68 L0.11 146.68 a0.254316 0.25391 0 0 1 -0.11382 -0.213071 L0 136.58 C0 136.5 0.04 136.42
								 0.11 136.37 L0.12 136.37 L8.65 131.44 a0.302334 0.301851 0 0 1 0.2721 0.00177559 L8.92 131.44 C8.99
								 131.5 9.04 131.58 9.05 131.67 L9.05 141.5 a0.314783 0.31428 0 0 1 -0.128047 0.227276 L0.39 146.64
								 a0.241867 0.241481 0 0 1 -0.129826 0 L0.26 146.64 L0.26 146.68 Z" class="st8"/>
				</g>
				<g id="shape3549-21" transform="translate(32.3812,0)">
					<title>path24</title>
					<path d="M19.36 143.97 A12.7176 12.6973 0 0 1 11.47 146.68 A12.8047 12.7843 0 1 1 21.66 126.15 L21.68 126.18
								 A12.634 12.6138 0 0 1 24.31 133.91 A12.7016 12.6813 0 0 1 19.39 143.95 L19.36 143.97 L19.36 143.97
								 Z" class="st4"/>
				</g>
				<g id="shape3550-23" transform="translate(33.15,-2.97589)">
					<title>path26</title>
					<path d="M16.25 139.13 A2.84372 2.83917 -180 0 0 20.11 139.64 L20.1 139.64 L20.26 139.47 L22.84 141.26 C22.95
								 140.98 23.06 140.62 23.16 140.24 L23.18 140.17 A68.299 68.1899 0 0 1 20.99 138.45 A2.71745 2.71311
								 -180 0 0 17.06 135.13 L17.07 135.13 A154.75 154.503 0 0 1 12.8 131.14 A14.8268 14.8031 0 0 1 20.93
								 128.98 L20.92 128.98 C20.34 128.27 19.71 127.64 19.02 127.08 L19 127.06 A13.5232 13.5016 -180 0
								 0 10.39 128.68 L10.46 128.65 A112.708 112.528 0 0 1 6.89 124.73 C6.22 124.94 5.66 125.17 5.12 125.44
								 L5.19 125.41 A27.7863 27.7419 -180 0 0 8.66 129.78 L8.65 129.77 A23.9804 23.9421 -180 0 0 5.12 132.81
								 L5.11 132.82 L4.68 133.31 A3.65468 3.64884 -180 0 0 2.55 133.46 L2.58 133.45 A9.17316 9.15851 0
								 0 1 1.6 129.31 C1.6 128.82 1.64 128.34 1.72 127.87 L1.71 127.92 C1.2 128.42 0.73 128.96 0.31 129.54
								 L0.29 129.58 A8.02074 8.00793 -180 0 0 0.08 131.4 C0.08 132.6 0.34 133.75 0.81 134.78 L0.78 134.72
								 C0.3 135.36 0 136.18 0 137.06 C0 137.94 0.3 138.75 0.79 139.41 L0.78 139.4 C0.87 139.51 0.97 139.61
								 1.07 139.72 A18.2556 18.2265 -180 0 0 0.33 144.14 L0.33 144.18 C0.44 144.34 0.44 144.48 0.57 144.64
								 C1.2 145.4 1.9 146.07 2.66 146.66 L2.69 146.68 A13.8789 13.8567 0 0 1 3.59 140.79 L3.56 140.89 A3.82897
								 3.82285 -180 0 0 5.36 140.6 L5.34 140.6 L6.38 141.47 C7.46 142.34 8.68 143.12 9.97 143.78 L10.09
								 143.83 A2.60541 2.60124 -180 0 0 10.59 145.64 L10.59 145.63 A2.54138 2.53732 -180 0 0 14.15 146.1
								 L14.14 146.1 A2.96998 2.96524 -180 0 0 14.71 145.49 L14.71 145.48 C16.18 145.81 17.86 146 19.58
								 146 L19.71 146 L19.71 146 C20.36 145.45 20.91 144.83 21.38 144.13 L21.4 144.1 A12.9417 12.921 0
								 0 1 19.14 144.29 A13.3116 13.2903 0 0 1 15.03 143.65 L15.13 143.67 A2.39022 2.3864 -180 0 0 14.67
								 142.66 L14.67 142.66 A2.53249 2.52844 -180 0 0 11.29 142.09 L11.3 142.08 C9.99 141.37 8.86 140.62
								 7.82 139.76 L7.86 139.79 C7.62 139.61 7.37 139.43 7.16 139.23 C7.53 138.64 7.75 137.93 7.75 137.17
								 C7.75 136.52 7.59 135.91 7.31 135.37 L7.32 135.39 C7.46 135.24 7.62 135.09 7.76 134.95 A26.5325
								 26.4901 0 0 1 11 132.32 L11.09 132.27 L10.96 132.07 C10.99 132.11 11.03 132.15 11.07 132.18 L11.07
								 132.18 C12.67 133.6 14.36 135.02 15.95 136.29 A2.72456 2.72021 -180 0 0 16.25 139.13 L16.25 139.13
								 L16.25 139.13 Z" class="st6"/>
				</g>
				<g id="shape3551-25" transform="translate(8.43689,-11.8059)">
					<title>path28</title>
					<path d="M20.02 145.95 A16.4327 16.4065 0 0 1 20.2 143.65 L20.19 143.74 L0 143.74 L0 146.68 L20.02 146.68 L20.02
								 145.95 Z" class="st2"/>
				</g>
			</g>
		</g>
	</g>
</svg>
