<?xml version="1.0" encoding="UTF-8" standalone="no"?>
<!DOCTYPE svg PUBLIC "-//W3C//DTD SVG 1.1//EN" "http://www.w3.org/Graphics/SVG/1.1/DTD/svg11.dtd">
<!-- Generated by Microsoft Visio, SVG Export Configuration Management.svg Page-1 -->
<svg xmlns="http://www.w3.org/2000/svg" xmlns:xlink="http://www.w3.org/1999/xlink" xmlns:ev="http://www.w3.org/2001/xml-events"
		width="1.41732in" height="1.94165in" viewBox="0 0 102.047 139.799" xml:space="preserve" color-interpolation-filters="sRGB"
		class="st5">
	<style type="text/css">
	<![CDATA[
		.st1 {fill:#a0a1a2;stroke:none;stroke-linecap:butt;stroke-width:12.24}
		.st2 {fill:#3999c6;stroke:none;stroke-linecap:butt;stroke-width:12.24}
		.st3 {fill:#ffffff;stroke:none;stroke-linecap:butt;stroke-width:12.24}
		.st4 {fill:#000000;fill-opacity:0.2;stroke:none;stroke-linecap:butt;stroke-width:12.24}
		.st5 {fill:none;fill-rule:evenodd;font-size:12px;overflow:visible;stroke-linecap:square;stroke-miterlimit:3}
	]]>
	</style>

	<g>
		<title>Page-1</title>
		<g id="group3519-1" transform="translate(25.5118,-70.8661)">
			<title>Configuration Management</title>
			<g id="group3520-2">
				<title>g12</title>
				<g id="shape3521-3">
					<title>path4</title>
					<path d="M40.82 83.11 L0 83.11 L0 139.8 L51.02 139.8 L51.02 93.18 L40.82 83.11 Z" class="st1"/>
				</g>
				<g id="shape3522-5" transform="translate(2.55118,-2.51969)">
					<title>path6</title>
					<path d="M36.99 88.15 L0 88.15 L0 139.8 L45.92 139.8 L45.92 96.96 L36.99 96.96 L36.99 88.15 Z" class="st2"/>
				</g>
				<g id="shape3523-7" transform="translate(7.35123,-8.69039)">
					<title>path8</title>
					<path d="M16.88 109.43 C16.88 108.73 17.47 108.17 18.2 108.17 L33.43 108.17 C34.16 108.17 34.74 108.73 34.74
								 109.43 C34.74 110.13 34.16 110.69 33.43 110.69 L18.2 110.69 C17.47 110.69 16.88 110.13 16.88 109.43
								 ZM16.88 122.03 C16.88 121.33 17.47 120.77 18.2 120.77 L33.43 120.77 C34.16 120.77 34.74 121.33 34.74
								 122.03 C34.74 122.73 34.16 123.29 33.43 123.29 L18.2 123.29 C17.47 123.29 16.88 122.73 16.88 122.03
								 ZM0.62 108.77 L0.13 108.25 C0 108.11 0 107.89 0.15 107.76 L1.56 106.47 a0.344409 0.340157 0 0 1
								 0.491102 0.0201575 L5.95 110.61 L12.65 102.13 a0.345685 0.341417 0 0 1 0.491102 -0.0579528 L14.67
								 103.24 a0.334205 0.330079 0 0 1 0.133937 0.225512 a0.339307 0.335118 0 0 1 -0.0752598 0.251969 L6.12
								 114.6 L0.62 108.77 ZM0.62 121.37 L0.13 120.85 C0 120.71 0 120.49 0.15 120.36 L1.56 119.06 a0.344409
								 0.340157 0 0 1 0.491102 0.0201575 L5.95 123.21 L12.65 114.73 a0.345685 0.341417 0 0 1 0.491102 -0.0579528
								 L14.67 115.84 a0.334205 0.330079 0 0 1 0.133937 0.225512 a0.339307 0.335118 0 0 1 -0.0752598 0.251969
								 L6.12 127.2 L0.62 121.37 ZM16.88 134.63 C16.88 133.93 17.47 133.37 18.2 133.37 L33.43 133.37 C34.16
								 133.37 34.74 133.93 34.74 134.63 C34.74 135.33 34.16 135.89 33.43 135.89 L18.2 135.89 C17.47 135.89
								 16.88 135.33 16.88 134.63 ZM0.62 133.97 L0.13 133.45 C0 133.31 0 133.09 0.15 132.96 L1.56 131.66
								 a0.344409 0.340157 0 0 1 0.491102 0.0201575 L5.95 135.81 L12.65 127.33 a0.345685 0.341417 0 0 1
								 0.491102 -0.0579528 L14.67 128.44 a0.334205 0.330079 0 0 1 0.133937 0.225512 a0.339307 0.335118
								 0 0 1 -0.0752598 0.251969 L6.12 139.8 L0.62 133.97 Z" class="st3"/>
				</g>
				<g id="shape3524-9" transform="translate(39.5433,-44.0945)">
					<title>path10</title>
					<rect x="0" y="138.539" width="8.92913" height="1.25984" class="st4"/>
				</g>
			</g>
		</g>
	</g>
</svg>
