<?xml version="1.0" encoding="UTF-8" standalone="no"?>
<!DOCTYPE svg PUBLIC "-//W3C//DTD SVG 1.1//EN" "http://www.w3.org/Graphics/SVG/1.1/DTD/svg11.dtd">
<!-- Generated by Microsoft Visio, SVG Export Confluent Organisation.svg Page-1 -->
<svg xmlns="http://www.w3.org/2000/svg" xmlns:xlink="http://www.w3.org/1999/xlink" xmlns:ev="http://www.w3.org/2001/xml-events"
		width="1.5748in" height="1.85039in" viewBox="0 0 113.386 133.228" xml:space="preserve" color-interpolation-filters="sRGB"
		class="st4">
	<style type="text/css">
	<![CDATA[
		.st1 {fill:#b4e1e4;stroke:none;stroke-width:2.52516}
		.st2 {fill:#0074a3;stroke:none;stroke-width:2.52516}
		.st3 {fill:#ffffff;stroke:none;stroke-width:2.52516}
		.st4 {fill:none;fill-rule:evenodd;font-size:12px;overflow:visible;stroke-linecap:square;stroke-miterlimit:3}
	]]>
	</style>

	<g>
		<title>Page-1</title>
		<g id="group3514-1" transform="translate(28.3465,-70.8661)">
			<title>Confluent Organisation</title>
			<g id="group3515-2">
				<title>g10</title>
				<g id="shape3516-3">
					<title>path4</title>
					<rect x="0" y="76.5354" width="56.6929" height="56.6929" class="st1"/>
				</g>
				<g id="shape3517-5" transform="translate(7.77165,-7.62992)">
					<title>path6</title>
					<path d="M20.3 133.23 A20.3031 20.3031 -180 1 0 0 112.93 A20.3031 20.3031 -180 0 0 20.3 133.23 Z" class="st2"/>
				</g>
				<g id="shape3518-7" transform="translate(15.6446,-21.9921)">
					<title>path8</title>
					<path d="M12.43 120.54 A2.3622 2.3622 -180 0 0 10.07 122.91 L10.07 130.87 A2.3622 2.3622 -180 1 0 14.79 130.87
								 L14.79 122.89 A2.3622 2.3622 -180 0 0 12.43 120.54 ZM15.45 123.51 A2.3622 2.3622 0 1 1 20.18 123.51
								 L20.18 129.48 A2.3622 2.3622 0 1 1 15.45 129.48 L15.45 123.51 ZM20.84 128.81 A2.3622 2.3622 0 1
								 1 23.2 131.17 A2.3622 2.3622 0 0 1 20.84 128.81 ZM4.69 126.87 A2.3622 2.3622 0 1 1 9.42 126.87 L9.42
								 129.52 A2.3622 2.3622 0 1 1 4.69 129.52 L4.69 126.87 ZM1.67 126.57 A2.3622 2.3622 -180 1 0 4.03
								 128.93 A2.3622 2.3622 -180 0 0 1.67 126.53 L1.67 126.57 Z" class="st3"/>
				</g>
			</g>
		</g>
	</g>
</svg>
