<?xml version="1.0" encoding="UTF-8" standalone="no"?>
<!DOCTYPE svg PUBLIC "-//W3C//DTD SVG 1.1//EN" "http://www.w3.org/Graphics/SVG/1.1/DTD/svg11.dtd">
<!-- Generated by Microsoft Visio, SVG Export Container Service Fabric Cluster.svg Page-1 -->
<svg xmlns="http://www.w3.org/2000/svg" xmlns:xlink="http://www.w3.org/1999/xlink" xmlns:ev="http://www.w3.org/2001/xml-events"
		width="1.70647in" height="2.17016in" viewBox="0 0 122.866 156.252" xml:space="preserve" color-interpolation-filters="sRGB"
		class="st4">
	<style type="text/css">
	<![CDATA[
		.st1 {fill:#e27908;stroke:none;stroke-linecap:butt;stroke-width:33.0863}
		.st2 {fill:url(#grad0-7);stroke:none;stroke-linecap:butt;stroke-width:33.0863}
		.st3 {fill:url(#grad0-11);stroke:none;stroke-linecap:butt;stroke-width:33.0863}
		.st4 {fill:none;fill-rule:evenodd;font-size:12px;overflow:visible;stroke-linecap:square;stroke-miterlimit:3}
	]]>
	</style>

	<defs id="Patterns_And_Gradients">
		<linearGradient id="grad0-7" x1="0" y1="0" x2="1" y2="0" gradientTransform="rotate(-90.037192623929 0.5 0.5)">
			<stop offset="0" stop-color="#ef7100" stop-opacity="1"/>
			<stop offset="1" stop-color="#faa21d" stop-opacity="1"/>
		</linearGradient>
		<linearGradient id="grad0-11" x1="0" y1="0" x2="1" y2="0" gradientTransform="rotate(-90 0.5 0.5)">
			<stop offset="0" stop-color="#ef7100" stop-opacity="1"/>
			<stop offset="1" stop-color="#faa21d" stop-opacity="1"/>
		</linearGradient>
	</defs>
	<g>
		<title>Page-1</title>
		<g id="group3434-1" transform="translate(33.0863,-69.3071)">
			<title>Container Service Fabric Cluster</title>
			<g id="shape3435-2" transform="translate(5.721,-6.23419)">
				<title>path29</title>
				<path d="M45.25 129.77 L26.63 116.56 L22.63 113.64 L18.68 116.53 L0 129.77 L7.27 151.62 L8.79 156.25 L36.59 156.25
							 L38.04 151.62 L45.25 129.93 L45.25 129.77 ZM12.15 151.62 L5.69 131.64 L22.63 119.49 L39.69 131.67 L33.23
							 151.66 L12.15 151.62 Z" class="st1"/>
			</g>
			<g id="shape3436-4" transform="translate(7.66033,2.55795E-13)">
				<title>circle31</title>
				<ellipse cx="7.98355" cy="148.314" rx="7.98355" ry="7.93735" class="st2"/>
			</g>
			<g id="shape3437-8" transform="translate(32.613,2.55795E-13)">
				<title>circle33</title>
				<ellipse cx="7.98355" cy="148.314" rx="7.98355" ry="7.93735" class="st3"/>
			</g>
			<g id="shape3438-12" transform="translate(40.7258,-23.7799)">
				<title>circle35</title>
				<ellipse cx="7.98355" cy="148.314" rx="7.98355" ry="7.93735" class="st3"/>
			</g>
			<g id="shape3439-15" transform="translate(0,-23.7799)">
				<title>circle37</title>
				<ellipse cx="7.98355" cy="148.314" rx="7.98355" ry="7.93735" class="st3"/>
			</g>
			<g id="shape3440-18" transform="translate(20.3629,-37.9836)">
				<title>circle39</title>
				<ellipse cx="7.98355" cy="148.314" rx="7.98355" ry="7.93735" class="st3"/>
			</g>
		</g>
	</g>
</svg>
