<?xml version="1.0" encoding="UTF-8" standalone="no"?>
<!DOCTYPE svg PUBLIC "-//W3C//DTD SVG 1.1//EN" "http://www.w3.org/Graphics/SVG/1.1/DTD/svg11.dtd">
<!-- Generated by Microsoft Visio, SVG Export Container Registry.svg Page-1 -->
<svg xmlns="http://www.w3.org/2000/svg" xmlns:xlink="http://www.w3.org/1999/xlink" xmlns:ev="http://www.w3.org/2001/xml-events"
		width="1.66068in" height="2.02539in" viewBox="0 0 119.569 145.828" xml:space="preserve" color-interpolation-filters="sRGB"
		class="st9">
	<style type="text/css">
	<![CDATA[
		.st1 {fill:url(#grad0-5)}
		.st2 {stroke:none;stroke-linecap:butt;stroke-width:31.4382}
		.st3 {fill:#767676;stroke:none;stroke-linecap:butt;stroke-width:31.4382}
		.st4 {fill:#999999}
		.st5 {fill:#a3a3a3;stroke:none;stroke-linecap:butt;stroke-width:31.4382}
		.st6 {fill:#b3b3b3;stroke:none;stroke-linecap:butt;stroke-width:31.4382}
		.st7 {fill:url(#grad0-27);stroke:none;stroke-linecap:butt;stroke-width:31.4382}
		.st8 {fill:#999999;stroke:none;stroke-linecap:butt;stroke-width:31.4382}
		.st9 {fill:none;fill-rule:evenodd;font-size:12px;overflow:visible;stroke-linecap:square;stroke-miterlimit:3}
	]]>
	</style>

	<defs id="Patterns_And_Gradients">
		<linearGradient id="grad0-5" x1="0" y1="0" x2="1" y2="0" gradientTransform="rotate(-90 0.5 0.5)">
			<stop offset="0" stop-color="#0078d4" stop-opacity="1"/>
			<stop offset="0.16" stop-color="#1380da" stop-opacity="1"/>
			<stop offset="0.53" stop-color="#3c91e5" stop-opacity="1"/>
			<stop offset="0.82" stop-color="#559cec" stop-opacity="1"/>
			<stop offset="1" stop-color="#5ea0ef" stop-opacity="1"/>
		</linearGradient>
		<linearGradient id="grad0-27" x1="0" y1="0" x2="1" y2="0" gradientTransform="rotate(90 0.5 0.5)">
			<stop offset="0" stop-color="#333132" stop-opacity="1"/>
			<stop offset="1" stop-color="#5b5a5c" stop-opacity="1"/>
		</linearGradient>
	</defs>
	<g>
		<title>Page-1</title>
		<g id="group3441-1" transform="translate(31.4382,-66.189)">
			<title>Container Registry</title>
			<g id="shape3442-2" transform="translate(0,-9.11083)">
				<title>path22</title>
				<path d="M51.12 125.23 A13.2042 13.3012 -180 0 0 44.12 121.67 A15.4732 15.5868 -180 0 0 28.05 106.75 A15.9774 16.0947
							 -180 0 0 12.79 117.19 A14.5593 14.6662 -180 0 0 0 131.42 A14.9059 15.0154 -180 0 0 15.41 145.83 L16.77
							 145.83 L41.72 145.83 L42.39 145.83 A12.6054 12.698 -180 0 0 54.74 133.73 A11.5655 11.6504 -180 0 0 51.15
							 125.38 L51.12 125.23 Z" class="st1"/>
				<path d="M51.12 125.23 A13.2042 13.3012 -180 0 0 44.12 121.67 A15.4732 15.5868 -180 0 0 28.05 106.75 A15.9774 16.0947
							 -180 0 0 12.79 117.19 A14.5593 14.6662 -180 0 0 0 131.42 A14.9059 15.0154 -180 0 0 15.41 145.83 L16.77
							 145.83 L41.72 145.83 L42.39 145.83 A12.6054 12.698 -180 0 0 54.74 133.73 A11.5655 11.6504 -180 0 0 51.15
							 125.38" class="st2"/>
			</g>
			<g id="shape3443-7" transform="translate(31.7342,-14.6662)">
				<title>polygon24</title>
				<path d="M24.96 136.37 L0 126.91 L0.03 140.5 L24.96 145.83 L24.96 136.37 Z" class="st3"/>
			</g>
			<g id="shape3444-9" transform="translate(24.9903,-16.8249)">
				<title>polyline26</title>
				<path d="M6.74 129.07 L0 133.19 L0 145.83 L6.78 142.65 L6.74 129.07 Z" class="st4"/>
				<path d="M6.74 129.07 L0 133.19 L0 145.83 L6.78 142.65" class="st2"/>
			</g>
			<g id="shape3445-12" transform="translate(43.1106,-19.174)">
				<title>polygon28</title>
				<path d="M0 137.64 L0 145.19 L2.27 145.83 L2.27 138.43 L0 137.64 Z" class="st5"/>
			</g>
			<g id="shape3446-14" transform="translate(38.5726,-20.3803)">
				<title>polygon30</title>
				<path d="M2.27 145.83 L2.27 138.11 L0 137.29 L0 145.19 L2.27 145.83 Z" class="st5"/>
			</g>
			<g id="shape3447-16" transform="translate(47.6485,-17.9677)">
				<title>polygon32</title>
				<path d="M0 138.02 L0 145.23 L2.21 145.83 L2.27 138.78 L0 138.02 Z" class="st5"/>
			</g>
			<g id="shape3448-18" transform="translate(34.0662,-21.6184)">
				<title>polygon34</title>
				<path d="M0 137.03 L0 145.26 L2.27 145.83 L2.27 137.8 L0 137.03 Z" class="st5"/>
			</g>
			<g id="shape3449-20" transform="translate(52.155,-16.7296)">
				<title>polygon36</title>
				<path d="M2.27 145.83 L2.27 139.1 L0 138.3 L0 145.19 L2.27 145.83 Z" class="st5"/>
			</g>
			<g id="shape3450-22" transform="translate(26.1563,-19.5549)">
				<title>a8719886-8ecb-4bb1-abaf-d5d3808</title>
				<path d="M1.13 145.16 L0 145.83 L0 136.84 L1.13 136.24 L1.13 145.16 ZM3.37 134.94 L2.21 135.7 L2.21 144.43 L3.37
							 143.8 L3.37 134.94 Z" class="st6"/>
			</g>
			<g id="shape3451-24" transform="translate(24.9903,-12.3171)">
				<title>polygon39</title>
				<path d="M6.78 138.15 L31.7 143.48 L24.9 145.83 L0 141.32 L6.78 138.15 Z" class="st7"/>
			</g>
			<g id="shape3452-28" transform="translate(31.6396,-0.190469)">
				<title>polygon41</title>
				<path d="M25.05 132.75 L25.05 141.03 L0 145.83 L0.13 128.08 L25.05 132.75 Z" class="st3"/>
			</g>
			<g id="shape3453-30" transform="translate(34.0662,-3.11101)">
				<title>polygon43</title>
				<path d="M2.27 145.45 L0 145.83 L0 134.56 L2.27 134.84 L2.27 145.45 Z" class="st5"/>
			</g>
			<g id="shape3454-32" transform="translate(38.5726,-3.84115)">
				<title>polygon45</title>
				<path d="M2.27 136.21 L2.27 145.42 L0 145.83 L0 135.86 L2.27 136.21 Z" class="st5"/>
			</g>
			<g id="shape3455-34" transform="translate(43.1106,-4.60303)">
				<title>polygon47</title>
				<path d="M2.27 145.42 L0 145.83 L0 137.19 L2.27 137.48 L2.27 145.42 Z" class="st5"/>
			</g>
			<g id="shape3456-36" transform="translate(47.6485,-5.39666)">
				<title>polygon49</title>
				<path d="M2.24 138.91 L2.24 145.42 L0 145.83 L0 138.56 L2.24 138.91 Z" class="st5"/>
			</g>
			<g id="shape3457-38" transform="translate(52.155,-6.12679)">
				<title>polygon51</title>
				<path d="M2.17 140.15 L2.33 145.42 L0 145.83 L0 139.86 L2.17 140.15 Z" class="st5"/>
			</g>
			<g id="shape3458-40" transform="translate(24.9903,2.27374E-13)">
				<title>b8a4c988-6241-4bdc-bddf-c20634c</title>
				<path d="M0 141.57 L0 131.23 L6.81 128.05 L6.81 145.83 L0 141.57 Z" class="st8"/>
			</g>
			<g id="shape3459-42" transform="translate(26.1248,-2.98403)">
				<title>b623bcd9-1396-4807-80b7-64d0fc8</title>
				<path d="M1.01 144.53 L0 144.02 L0 135.26 L1.01 134.78 L1.01 144.53 ZM3.43 133.57 L2.24 134.18 L2.24 145.23 L3.4
							 145.83 L3.4 133.57 L3.43 133.57 Z" class="st6"/>
			</g>
		</g>
	</g>
</svg>
