<?xml version="1.0" encoding="UTF-8" standalone="no"?>
<!DOCTYPE svg PUBLIC "-//W3C//DTD SVG 1.1//EN" "http://www.w3.org/Graphics/SVG/1.1/DTD/svg11.dtd">
<!-- Generated by Microsoft Visio, SVG Export Cost Management.svg Page-1 -->
<svg xmlns="http://www.w3.org/2000/svg" xmlns:xlink="http://www.w3.org/1999/xlink" xmlns:ev="http://www.w3.org/2001/xml-events"
		width="1.41732in" height="1.94165in" viewBox="0 0 102.047 139.799" xml:space="preserve" color-interpolation-filters="sRGB"
		class="st5">
	<style type="text/css">
	<![CDATA[
		.st1 {fill:#57a300;stroke:none;stroke-linecap:butt;stroke-width:12.24}
		.st2 {fill:#b8d432;fill-opacity:0.4;stroke:none;stroke-linecap:butt;stroke-width:12.24}
		.st3 {fill:#ffffff;stroke:none;stroke-linecap:butt;stroke-width:12.24}
		.st4 {fill:#57a300;fill-opacity:0.2;stroke:none;stroke-linecap:butt;stroke-width:12.24}
		.st5 {fill:none;fill-rule:evenodd;font-size:12px;overflow:visible;stroke-linecap:square;stroke-miterlimit:3}
	]]>
	</style>

	<g>
		<title>Page-1</title>
		<g id="group3379-1" transform="translate(25.5118,-70.8661)">
			<title>Cost Management</title>
			<g id="group3380-2">
				<title>Sheet.3380</title>
				<g id="shape3381-3">
					<title>Sheet.3381</title>
					<path d="M23.86 83.54 L1.69 96.07 A3.33973 3.32296 -180 0 0 -0 98.96 L0 123.94 A3.33973 3.32296 -180 0 0 1.69
								 126.83 L23.86 139.37 A3.34205 3.32527 -180 0 0 27.16 139.37 L49.33 126.83 A3.33973 3.32296 -180
								 0 0 51.02 123.94 L51.02 98.96 A3.33973 3.32296 -180 0 0 49.33 96.07 L27.16 83.54 A3.34205 3.32527
								 -180 0 0 23.86 83.54 Z" class="st1"/>
				</g>
				<g id="shape3382-5" transform="translate(-2.51799E-13,-4.46616)">
					<title>Sheet.3382</title>
					<path d="M34.22 91.99 L27.16 88.01 A3.34205 3.32527 -180 0 0 23.86 88.01 L1.69 100.54 A3.33973 3.32296 -180 0
								 0 -0 103.43 L0 128.41 A3.33973 3.32296 -180 0 0 1.69 131.3 L16.73 139.8 L34.22 91.99 Z"
							class="st2"/>
				</g>
				<g id="shape3383-7" transform="translate(22.1489,-44.6151)">
					<title>Sheet.3383</title>
					<ellipse cx="3.36292" cy="136.453" rx="3.36292" ry="3.34603" class="st3"/>
				</g>
				<g id="shape3384-9" transform="translate(22.1489,-5.38574)">
					<title>Sheet.3384</title>
					<ellipse cx="3.36292" cy="136.453" rx="3.36292" ry="3.34603" class="st3"/>
				</g>
				<g id="shape3385-11" transform="translate(14.2101,-13.3851)">
					<title>Sheet.3385</title>
					<path d="M22.92 131.35 C22.92 136.25 18.04 139.8 11.32 139.8 C5.41 139.8 1.7 137.58 0 133.03 L5.77 131.94 C6.52
								 133.55 8.17 135.38 11.8 135.38 C15.43 135.38 16.79 133.21 16.79 131.84 C16.79 128.99 13.34 128.01
								 11.85 127.72 C5.55 126.47 1.09 125.04 1.09 117.86 C1.09 111.97 6.6 109.88 11.32 109.88 C16.48 109.88
								 19.83 111.57 21.57 115.06 L16.58 116.64 C15.53 114.86 13.75 113.92 11.4 113.92 C7.98 113.92 7.08
								 116.27 7.08 117.51 C7.08 119.22 8.79 120.72 11.44 121.33 C14.77 122.1 17.1 122.69 18.46 123.26 C20.62
								 124.16 22.92 126.76 22.92 131.35 Z" class="st3"/>
				</g>
				<g id="shape3386-13" transform="translate(22.1489,-44.6151)">
					<title>Sheet.3386</title>
					<ellipse cx="3.36292" cy="136.453" rx="3.36292" ry="3.34603" class="st4"/>
				</g>
				<g id="shape3387-15" transform="translate(22.1489,-5.38574)">
					<title>Sheet.3387</title>
					<ellipse cx="3.36292" cy="136.453" rx="3.36292" ry="3.34603" class="st4"/>
				</g>
				<g id="shape3388-17" transform="translate(14.2101,-13.3851)">
					<title>Sheet.3388</title>
					<path d="M22.92 131.35 C22.92 136.25 18.04 139.8 11.32 139.8 C5.41 139.8 1.7 137.58 0 133.03 L5.77 131.94 C6.52
								 133.55 8.17 135.38 11.8 135.38 C15.43 135.38 16.79 133.21 16.79 131.84 C16.79 128.99 13.34 128.01
								 11.85 127.72 C5.55 126.47 1.09 125.04 1.09 117.86 C1.09 111.97 6.6 109.88 11.32 109.88 C16.48 109.88
								 19.83 111.57 21.57 115.06 L16.58 116.64 C15.53 114.86 13.75 113.92 11.4 113.92 C7.98 113.92 7.08
								 116.27 7.08 117.51 C7.08 119.22 8.79 120.72 11.44 121.33 C14.77 122.1 17.1 122.69 18.46 123.26 C20.62
								 124.16 22.92 126.76 22.92 131.35 Z" class="st4"/>
				</g>
			</g>
		</g>
	</g>
</svg>
