<?xml version="1.0" encoding="UTF-8" standalone="no"?>
<!DOCTYPE svg PUBLIC "-//W3C//DTD SVG 1.1//EN" "http://www.w3.org/Graphics/SVG/1.1/DTD/svg11.dtd">
<!-- Generated by Microsoft Visio, SVG Export Datadog.svg Page-1 -->
<svg xmlns="http://www.w3.org/2000/svg" xmlns:xlink="http://www.w3.org/1999/xlink" xmlns:ev="http://www.w3.org/2001/xml-events"
		width="1.49606in" height="1.85039in" viewBox="0 0 107.717 133.228" xml:space="preserve" color-interpolation-filters="sRGB"
		class="st2">
	<style type="text/css">
	<![CDATA[
		.st1 {fill:#632ca6;stroke:none;stroke-linecap:butt;stroke-width:0.764474}
		.st2 {fill:none;fill-rule:evenodd;font-size:12px;overflow:visible;stroke-linecap:square;stroke-miterlimit:3}
	]]>
	</style>

	<g>
		<title>Page-1</title>
		<g id="group3218-1" transform="translate(26.9291,-70.8661)">
			<title>Datadog</title>
			<g id="group3219-2">
				<title>Sheet.3219</title>
				<g id="shape3220-3">
					<title>Sheet.3220</title>
					<path d="M45.11 116.66 L40.32 113.56 L36.32 120.11 L31.66 118.78 L27.57 124.91 L27.78 126.84 L50.05 122.82 L48.76
								 109.17 L45.11 116.66 ZM24.34 110.78 L27.91 110.3 C28.49 110.55 28.89 110.65 29.59 110.82 C30.67
								 111.1 31.92 111.36 33.77 110.45 C34.2 110.24 35.1 109.44 35.46 108.98 L50.1 106.37 L51.6 124.1 L26.51
								 128.53 L24.34 110.78 ZM51.54 104.39 L50.09 104.66 L47.32 76.54 L0 81.91 L5.83 128.29 L11.37 127.5
								 C10.93 126.88 10.24 126.14 9.06 125.18 C7.43 123.85 8.01 121.59 8.97 120.17 C10.24 117.76 16.8 114.7
								 16.43 110.85 C16.3 109.45 16.07 107.63 14.74 106.38 C14.69 106.9 14.78 107.4 14.78 107.4 C14.78
								 107.4 14.24 106.72 13.97 105.79 C13.7 105.43 13.49 105.32 13.2 104.85 C13 105.4 13.02 106.03 13.02
								 106.03 C13.02 106.03 12.58 105 12.51 104.13 C12.24 104.52 12.18 105.26 12.18 105.26 C12.18 105.26
								 11.6 103.64 11.73 102.76 C11.47 102 10.68 100.49 10.91 97.05 C12.35 98.04 15.53 97.81 16.77 96.02
								 C17.18 95.43 17.46 93.81 16.56 90.62 C15.99 88.58 14.56 85.53 14 84.38 L13.93 84.42 C14.23 85.35
								 14.83 87.3 15.06 88.25 C15.77 91.12 15.96 92.12 15.63 93.44 C15.35 94.59 14.67 95.34 12.97 96.18
								 C11.26 97.03 8.99 94.97 8.85 94.86 C7.19 93.57 5.91 91.45 5.77 90.43 C5.62 89.3 6.43 88.63 6.84
								 87.71 C6.25 87.87 5.6 88.16 5.6 88.16 C5.6 88.16 6.38 87.38 7.34 86.69 C7.73 86.44 7.96 86.27 8.38
								 85.93 C7.78 85.92 7.29 85.94 7.29 85.94 C7.29 85.94 8.3 85.41 9.34 85.02 C8.58 84.98 7.84 85.01
								 7.84 85.01 C7.84 85.01 10.1 84.02 11.87 83.3 C13.1 82.81 14.29 82.95 14.96 83.9 C15.84 85.15 16.77
								 85.83 18.73 86.25 C19.94 85.72 20.3 85.45 21.82 85.05 C23.15 83.61 24.19 83.43 24.19 83.43 C24.19
								 83.43 23.68 83.9 23.54 84.63 C24.29 84.04 25.12 83.56 25.12 83.56 C25.12 83.56 24.8 83.95 24.5 84.56
								 L24.57 84.66 C25.45 84.15 26.49 83.74 26.49 83.74 C26.49 83.74 26.19 84.1 25.84 84.58 C26.51 84.57
								 27.86 84.61 28.38 84.66 C31.47 84.73 32.11 81.43 33.29 81.02 C34.78 80.5 35.44 80.18 37.97 82.62
								 C40.14 84.71 41.83 88.45 40.99 89.29 C40.29 89.98 38.89 89.02 37.35 87.13 C36.54 86.13 35.92 84.95
								 35.63 83.45 C35.39 82.19 34.44 81.45 34.44 81.45 C34.44 81.45 34.99 82.65 34.99 83.71 C34.99 84.29
								 35.06 86.46 36.01 87.67 C35.92 87.85 35.87 88.55 35.77 88.68 C34.67 87.38 32.3 86.44 31.92 86.17
								 C33.22 87.22 36.22 89.63 37.38 91.93 C38.47 94.12 37.82 96.12 38.37 96.64 C38.53 96.79 40.72 99.46
								 41.14 100.8 C41.87 103.14 41.18 105.6 40.22 107.12 L37.54 107.53 C37.15 107.43 36.88 107.37 36.53
								 107.17 C36.72 106.84 37.11 106 37.11 105.82 L36.96 105.56 C36.13 106.72 34.73 107.85 33.57 108.5
								 C32.05 109.34 30.29 109.21 29.15 108.86 C25.91 107.88 22.85 105.74 22.11 105.17 C22.11 105.17 22.09
								 105.63 22.23 105.73 C23.04 106.63 24.92 108.26 26.72 109.4 L22.87 109.82 L24.69 123.73 C23.88 123.84
								 23.76 123.9 22.87 124.02 C22.09 121.32 20.6 119.56 18.97 118.53 C17.54 117.63 15.55 117.42 13.65
								 117.79 L13.53 117.93 C14.85 117.79 16.41 117.98 18.01 118.97 C19.58 119.95 20.85 122.46 21.31 123.98
								 C21.91 125.91 22.32 127.98 20.72 130.18 C19.57 131.73 16.24 132.6 13.54 130.73 C14.26 131.87 15.24
								 132.79 16.55 132.97 C18.49 133.23 20.34 132.9 21.61 131.62 C22.69 130.53 23.27 128.24 23.11 125.83
								 L24.83 125.59 L25.45 129.91 L53.86 126.56 L51.54 104.39 ZM34.26 92.66 C34.18 92.84 34.05 92.95 34.24
								 93.53 L34.25 93.56 L34.28 93.64 L34.36 93.81 C34.7 94.49 35.07 95.13 35.69 95.45 C35.85 95.42 36.01
								 95.41 36.18 95.4 C36.76 95.37 37.13 95.46 37.36 95.59 C37.38 95.47 37.39 95.31 37.38 95.06 C37.33
								 94.21 37.55 92.75 35.87 91.98 C35.24 91.7 34.35 91.78 34.05 92.14 C34.11 92.15 34.16 92.16 34.19
								 92.17 C34.64 92.33 34.34 92.48 34.26 92.66 ZM38.96 100.65 C38.74 100.53 37.71 100.58 36.99 100.66
								 C35.61 100.82 34.12 101.29 33.8 101.54 C33.21 101.99 33.48 102.77 33.91 103.09 C35.14 103.99 36.22
								 104.59 37.35 104.45 C38.05 104.36 38.66 103.27 39.1 102.29 C39.4 101.61 39.4 100.88 38.96 100.65
								 ZM26.77 93.72 C27.15 93.36 24.83 92.88 23.03 94.09 C21.7 94.98 21.66 96.88 22.93 97.96 C23.06 98.07
								 23.16 98.15 23.26 98.21 C23.63 98.04 24.05 97.86 24.54 97.71 C25.37 97.45 26.05 97.31 26.61 97.24
								 C26.88 96.94 27.2 96.43 27.12 95.48 C27.01 94.21 26.02 94.41 26.77 93.72 Z" class="st1"/>
				</g>
			</g>
		</g>
	</g>
</svg>
