<?xml version="1.0" encoding="UTF-8" standalone="no"?>
<!DOCTYPE svg PUBLIC "-//W3C//DTD SVG 1.1//EN" "http://www.w3.org/Graphics/SVG/1.1/DTD/svg11.dtd">
<!-- Generated by Microsoft Visio, SVG Export Data Lake Analytics.svg Page-1 -->
<svg xmlns="http://www.w3.org/2000/svg" xmlns:xlink="http://www.w3.org/1999/xlink" xmlns:ev="http://www.w3.org/2001/xml-events"
		width="1.5748in" height="1.8541in" viewBox="0 0 113.386 133.495" xml:space="preserve" color-interpolation-filters="sRGB"
		class="st5">
	<style type="text/css">
	<![CDATA[
		.st1 {fill:#a0a1a2;stroke:none;stroke-linecap:butt;stroke-width:6.12}
		.st2 {fill:#7a7a7a;stroke:none;stroke-linecap:butt;stroke-width:6.12}
		.st3 {fill:#ffffff;stroke:none;stroke-linecap:butt;stroke-width:6.12}
		.st4 {fill:#59b4d9;stroke:none;stroke-linecap:butt;stroke-width:6.12}
		.st5 {fill:none;fill-rule:evenodd;font-size:12px;overflow:visible;stroke-linecap:square;stroke-miterlimit:3}
	]]>
	</style>

	<g>
		<title>Page-1</title>
		<g id="group3275-1" transform="translate(28.3465,-70.8661)">
			<title>Data Lake Analytics</title>
			<g id="group3276-2">
				<title>Sheet.3276</title>
				<g id="shape3277-3" transform="translate(4.7338,-4.63491)">
					<title>Sheet.3277</title>
					<path d="M42.04 133.5 L5.13 133.5 C2.31 133.5 0 131.18 0 128.35 L0 91.33 C0 88.5 2.31 86.19 5.13 86.19 L42.04
								 86.19 C44.86 86.19 47.17 88.5 47.17 91.33 L47.17 128.35 C47.17 131.18 44.86 133.5 42.04 133.5 ZM5.13
								 89.58 C4.17 89.58 3.44 90.37 3.44 91.27 L3.44 128.3 C3.44 129.26 4.23 129.99 5.13 129.99 L42.04
								 129.99 C43 129.99 43.73 129.2 43.73 128.3 L43.73 91.27 C43.73 90.31 42.94 89.58 42.04 89.58 L5.13
								 89.58 Z" class="st1"/>
				</g>
				<g id="shape3278-5">
					<title>Sheet.3278</title>
					<path d="M23.33 77.48 C22.09 76.92 20.63 76.8 19.33 77.31 C18.03 77.76 16.96 78.72 16.4 80.02 L15.61 81.66 L32.23
								 81.66 L23.33 77.48 ZM56.19 96.19 C55.73 94.89 54.78 93.82 53.48 93.25 L51.85 92.46 L51.85 109.19
								 L56.02 100.26 C56.64 98.96 56.69 97.55 56.19 96.19 ZM0.68 114.11 C0.11 115.35 0 116.82 0.51 118.12
								 C0.96 119.42 1.92 120.49 3.21 121.06 L4.85 121.85 L4.85 105.18 L0.68 114.11 ZM37.19 132.99 C37.87
								 133.33 38.66 133.5 39.39 133.5 C40.01 133.5 40.58 133.38 41.2 133.16 C42.49 132.7 43.56 131.74 44.13
								 130.44 L44.91 128.8 L28.29 128.8 L37.19 132.99 Z" class="st2"/>
				</g>
				<g id="shape3279-7" transform="translate(8.17144,-8.13936)">
					<title>Sheet.3279</title>
					<path d="M1.69 93.08 C0.73 93.08 0 93.87 0 94.78 L0 131.8 C0 132.76 0.79 133.5 1.69 133.5 L38.6 133.5 C39.56
								 133.5 40.29 132.7 40.29 131.8 L40.29 94.78 C40.29 93.82 39.5 93.08 38.6 93.08 L1.69 93.08 Z"
							class="st3"/>
				</g>
				<g id="shape3280-9" transform="translate(19.6678,-13.6786)">
					<title>Sheet.3280</title>
					<path d="M16.79 115.35 L9.64 115.35 L12.62 105.35 C12.68 105.06 12.57 104.78 12.34 104.67 C12.29 104.61 12.17
								 104.61 12.12 104.61 C11.95 104.61 11.78 104.72 11.67 104.84 L0.11 121.74 C0 121.91 0 122.13 0.06
								 122.3 C0.17 122.47 0.34 122.59 0.56 122.59 L7.5 122.59 L4.4 132.76 C4.34 133.04 4.45 133.33 4.68
								 133.44 C4.73 133.5 4.85 133.5 4.9 133.5 C5.07 133.5 5.24 133.38 5.35 133.27 L17.24 116.2 C17.3 116.09
								 17.36 115.97 17.36 115.86 C17.36 115.58 17.08 115.35 16.79 115.35 Z" class="st4"/>
				</g>
			</g>
		</g>
	</g>
</svg>
