<?xml version="1.0" encoding="UTF-8" standalone="no"?>
<!DOCTYPE svg PUBLIC "-//W3C//DTD SVG 1.1//EN" "http://www.w3.org/Graphics/SVG/1.1/DTD/svg11.dtd">
<!-- Generated by Microsoft Visio, SVG Export Data Transfer.svg Page-1 -->
<svg xmlns="http://www.w3.org/2000/svg" xmlns:xlink="http://www.w3.org/1999/xlink" xmlns:ev="http://www.w3.org/2001/xml-events"
		width="1.5748in" height="1.88063in" viewBox="0 0 113.386 135.405" xml:space="preserve" color-interpolation-filters="sRGB"
		class="st8">
	<style type="text/css">
	<![CDATA[
		.st1 {fill:#3999c6;stroke:none;stroke-linecap:butt;stroke-width:12.24}
		.st2 {fill:#000000;fill-opacity:0.15;stroke:none;stroke-linecap:butt;stroke-width:12.24}
		.st3 {fill:#ffffff;stroke:none;stroke-linecap:butt;stroke-width:12.24}
		.st4 {fill:#57a300;stroke:none;stroke-linecap:butt;stroke-width:12.24}
		.st5 {fill:#b8d432;stroke:none;stroke-linecap:butt;stroke-width:12.24}
		.st6 {fill:#ffffff;fill-opacity:0.4;stroke:none;stroke-linecap:butt;stroke-width:12.24}
		.st7 {fill:#804998;stroke:none;stroke-linecap:butt;stroke-width:12.24}
		.st8 {fill:none;fill-rule:evenodd;font-size:12px;overflow:visible;stroke-linecap:square;stroke-miterlimit:3}
	]]>
	</style>

	<g>
		<title>Page-1</title>
		<g id="group3242-1" transform="translate(28.3465,-69.3071)">
			<title>Data Transfer</title>
			<g id="group3243-2">
				<title>g18</title>
				<g id="shape3244-3" transform="translate(0.00113386,-2.84217E-13)">
					<title>path4</title>
					<path d="M0 91.04 L0 126.3 C0 131.28 8.06 135.41 18.14 135.41 C28.22 135.41 36.28 131.33 36.28 126.3 L36.28 91.04
								 L0 91.04 Z" class="st1"/>
				</g>
				<g id="shape3245-5" transform="translate(18.1417,-2.84217E-13)">
					<title>path6</title>
					<path d="M0 135.41 C10.08 135.41 18.14 131.33 18.14 126.3 L18.14 91.04 L0 91.04 L0 135.41 Z" class="st2"/>
				</g>
				<g id="shape3246-7" transform="translate(0,-34.9918)">
					<title>path8</title>
					<path d="M36.28 125.97 C36.28 131.18 28.16 135.41 18.14 135.41 C8.12 135.41 0 131.18 0 125.97 C0 120.76 8.12
								 116.54 18.14 116.54 C28.16 116.54 36.28 120.76 36.28 125.97 Z" class="st3"/>
				</g>
				<g id="shape3247-9" transform="translate(3.70885,-39.099)">
					<title>path10</title>
					<path d="M28.87 129.41 C28.87 132.72 22.4 135.41 14.43 135.41 C6.46 135.41 0 132.72 0 129.41 C0 126.1 6.46 123.41
								 14.43 123.41 C22.4 123.41 28.87 126.1 28.87 129.41 Z" class="st4"/>
				</g>
				<g id="shape3248-11" transform="translate(3.71112,-41.4306)">
					<title>path12</title>
					<path d="M25.84 135.41 C27.73 134.39 28.86 133.12 28.86 131.74 C28.86 128.43 22.4 125.75 14.43 125.75 C6.46 125.75
								 0 128.43 0 131.74 C0 133.12 1.13 134.39 3.03 135.41 C5.66 133.99 9.79 133.07 14.43 133.07 C19.08
								 133.07 23.2 133.99 25.84 135.41 Z" class="st5"/>
				</g>
				<g id="shape3249-13" transform="translate(26.1732,-16.0928)">
					<title>path14</title>
					<path d="M10.11 119.44 L0.5 129.21 A1.70079 1.72623 -180 0 0 0.5 131.65 L3.7 134.9 A1.70079 1.72623 -180 0 0
								 6.11 134.9 L10.11 130.83 L10.11 119.44 Z" class="st6"/>
				</g>
				<g id="shape3250-15" transform="translate(27.072,-17.0045)">
					<title>path16</title>
					<path d="M0 131.34 L19.07 111.99 L14.66 107.51 L29.62 105.34 L27.48 120.53 L23.07 116.06 L4.01 135.41 L0 131.34
								 Z" class="st7"/>
				</g>
			</g>
		</g>
	</g>
</svg>
