<?xml version="1.0" encoding="UTF-8" standalone="no"?>
<!DOCTYPE svg PUBLIC "-//W3C//DTD SVG 1.1//EN" "http://www.w3.org/Graphics/SVG/1.1/DTD/svg11.dtd">
<!-- Generated by Microsoft Visio, SVG Export DDoS Protection Plan.svg Page-1 -->
<svg xmlns="http://www.w3.org/2000/svg" xmlns:xlink="http://www.w3.org/1999/xlink" xmlns:ev="http://www.w3.org/2001/xml-events"
		width="1.57437in" height="2.24388in" viewBox="0 0 113.354 161.559" xml:space="preserve" color-interpolation-filters="sRGB"
		class="st6">
	<style type="text/css">
	<![CDATA[
		.st1 {fill:#0078d4;stroke:none;stroke-linecap:butt;stroke-width:34}
		.st2 {fill:url(#grad0-8);stroke:none;stroke-linecap:butt;stroke-width:34}
		.st3 {fill:#e6e6e6;stroke:none;stroke-linecap:butt;stroke-width:34}
		.st4 {fill:#003067;stroke:none;stroke-linecap:butt;stroke-width:34}
		.st5 {fill:#50e6ff;stroke:none;stroke-linecap:butt;stroke-width:34}
		.st6 {fill:none;fill-rule:evenodd;font-size:12px;overflow:visible;stroke-linecap:square;stroke-miterlimit:3}
	]]>
	</style>

	<defs id="Patterns_And_Gradients">
		<linearGradient id="grad0-8" x1="0" y1="0" x2="1" y2="0" gradientTransform="rotate(90 0.5 0.5)">
			<stop offset="0.18" stop-color="#5ea0ef" stop-opacity="1"/>
			<stop offset="1" stop-color="#0078d4" stop-opacity="1"/>
		</linearGradient>
	</defs>
	<g>
		<title>Page-1</title>
		<g id="group3191-1" transform="translate(34,-70.8661)">
			<title>DDoS Protection Plan</title>
			<g id="group3192-2">
				<title>Icon-networking-72</title>
				<g id="shape3193-3">
					<title>Sheet.3193</title>
					<path d="M45.35 131.33 C45.35 146.57 27.33 158.86 23.42 161.35 A1.41732 1.44901 0 0 1 21.94 161.35 C18.02 158.86
								 0 146.57 0 131.33 L0 112.99 A1.41732 1.44901 0 0 1 1.39 111.54 C15.41 111.17 12.17 104.87 22.68
								 104.87 C33.18 104.87 29.95 111.17 43.97 111.54 A1.41732 1.44901 0 0 1 45.35 112.99 L45.35 131.33
								 Z" class="st1"/>
				</g>
				<g id="shape3194-5" transform="translate(1.87949,-2.35317)">
					<title>Sheet.3194</title>
					<path d="M41.6 133.84 C41.6 147.82 25.08 159.04 21.48 161.37 A1.32489 1.35451 0 0 1 20.12 161.37 C16.51 159.1
								 0 147.82 0 133.84 L0 117.02 A1.29408 1.32301 0 0 1 1.26 115.69 C14.11 115.35 11.15 109.58 20.8 109.58
								 C30.44 109.58 27.48 115.35 40.33 115.69 A1.29408 1.32301 0 0 1 41.6 117.02 L41.6 133.84 Z"
							class="st2"/>
				</g>
				<g id="shape3195-9" transform="translate(14.05,-15.7425)">
					<title>Sheet.3195</title>
					<path d="M17.25 160.05 A1.47895 1.51202 0 0 1 15.78 161.56 L1.48 161.56 A1.47895 1.51202 0 0 1 0 160.05 L0 133.02
								 A1.47895 1.51202 0 0 1 1.48 131.48 L15.78 131.48 A1.47895 1.51202 0 0 1 17.25 133.02 L17.25 160.05
								 Z" class="st3"/>
				</g>
				<g id="shape3196-11" transform="translate(16.5149,-39.0212)">
					<title>Sheet.3196</title>
					<path d="M0 159.64 A1.84868 1.89002 0 0 1 1.85 157.75 L10.48 157.75 A1.84868 1.89002 0 0 1 12.32 159.64 A1.84868
								 1.89002 0 0 1 10.48 161.56 L1.85 161.56 A1.84868 1.89002 0 0 1 0 159.64 Z" class="st4"/>
				</g>
				<g id="shape3197-13" transform="translate(17.1927,-39.6827)">
					<title>Sheet.3197</title>
					<ellipse cx="1.26327" cy="160.268" rx="1.26327" ry="1.29151" class="st5"/>
				</g>
				<g id="shape3198-15" transform="translate(16.5149,-33.0362)">
					<title>Sheet.3198</title>
					<path d="M0 159.64 A1.87949 1.92152 0 0 1 1.85 157.72 L10.48 157.72 A1.87949 1.92152 0 0 1 12.32 159.64 A1.84868
								 1.89002 0 0 1 10.48 161.56 L1.85 161.56 A1.84868 1.89002 0 0 1 0 159.64 Z" class="st4"/>
				</g>
				<g id="shape3199-17" transform="translate(17.1927,-33.6662)">
					<title>Sheet.3199</title>
					<ellipse cx="1.26327" cy="160.268" rx="1.26327" ry="1.29151" class="st5"/>
				</g>
			</g>
		</g>
	</g>
</svg>
