<?xml version="1.0" encoding="UTF-8" standalone="no"?>
<!DOCTYPE svg PUBLIC "-//W3C//DTD SVG 1.1//EN" "http://www.w3.org/Graphics/SVG/1.1/DTD/svg11.dtd">
<!-- Generated by Microsoft Visio, SVG Export DNS Zone (Private).svg Page-1 -->
<svg xmlns="http://www.w3.org/2000/svg" xmlns:xlink="http://www.w3.org/1999/xlink" xmlns:ev="http://www.w3.org/2001/xml-events"
		width="1.83465in" height="2.28487in" viewBox="0 0 132.095 164.511" xml:space="preserve" color-interpolation-filters="sRGB"
		class="st4">
	<style type="text/css">
	<![CDATA[
		.st1 {fill:url(#grad0-6);stroke:none;stroke-linecap:butt;stroke-width:34}
		.st2 {fill:#5ea0ef;stroke:none;stroke-linecap:butt;stroke-width:34}
		.st3 {fill:#ffffff;stroke:none;stroke-linecap:butt;stroke-width:34}
		.st4 {fill:none;fill-rule:evenodd;font-size:12px;overflow:visible;stroke-linecap:square;stroke-miterlimit:3}
	]]>
	</style>

	<defs id="Patterns_And_Gradients">
		<linearGradient id="grad0-6" x1="0" y1="0" x2="1" y2="0" gradientTransform="rotate(-80.016683414876 0.5 0.5)">
			<stop offset="0.26" stop-color="#50e6ff" stop-opacity="1"/>
			<stop offset="0.42" stop-color="#79eaff" stop-opacity="1"/>
			<stop offset="0.58" stop-color="#99edff" stop-opacity="1"/>
			<stop offset="0.735" stop-color="#b0efff" stop-opacity="1"/>
			<stop offset="0.875" stop-color="#bef1ff" stop-opacity="1"/>
			<stop offset="1" stop-color="#c3f1ff" stop-opacity="1"/>
		</linearGradient>
	</defs>
	<g>
		<title>Page-1</title>
		<g id="group3118-1" transform="translate(38.4763,-70.8661)">
			<title>DNS Zone (Private)</title>
			<g id="group3119-2">
				<title>Icon-networking-64</title>
				<g id="shape3120-3" transform="translate(2.25934,-2.04777)">
					<title>Sheet.3120</title>
					<path d="M45.07 164.51 A32.1203 32.2451 0 1 1 5.7 113.54 L6.04 113.32 A32.1086 32.2334 0 0 1 45.07 164.51 Z"
							class="st1"/>
				</g>
				<g id="shape3121-7">
					<title>Sheet.3121</title>
					<path d="M27.64 107.82 A29.0489 29.1618 -180 1 0 56.69 136.98 A29.0866 29.1997 -180 0 0 27.64 107.82 ZM47.1 117.64
								 A27.8401 27.9483 0 0 1 38.98 120.67 A33.3552 33.4848 -180 0 0 34.25 110.43 A27.1979 27.3036 0 0
								 1 47.1 117.64 ZM27.64 109.45 A24.8936 24.9904 0 0 1 31.76 109.79 A28.2556 28.3654 0 0 1 37.54 121.17
								 A57.1156 57.3376 0 0 1 16.95 121.17 A27.8778 27.9862 0 0 1 22.66 110.02 A27.7267 27.8345 0 0 1 27.64
								 109.45 ZM20.09 110.43 A32.9397 33.0677 -180 0 0 15.29 120.6 A21.0784 21.1603 0 0 1 8.11 117.68 A27.7645
								 27.8724 0 0 1 20.09 110.43 ZM7.7 155.94 A19.9074 19.9847 0 0 1 14.42 153.06 A26.7446 26.8486 -180
								 0 0 19.52 163.37 A27.3868 27.4932 0 0 1 7.7 155.94 ZM31.91 164.28 A26.7446 26.8486 0 0 1 27.64 164.51
								 A25.8002 25.9005 0 0 1 22.2 163.94 A22.6649 22.753 0 0 1 15.9 152.57 A55.6424 55.8586 0 0 1 38.11
								 152.57 A22.6649 22.753 0 0 1 31.72 163.94 L31.91 164.28 ZM34.67 163.68 A26.9335 27.0382 -180 0 0
								 39.88 153.06 A25.2336 25.3317 0 0 1 47.44 156.21 A26.9335 27.0382 0 0 1 34.67 163.52 L34.67 163.68
								 ZM40.26 151.47 C40.56 150.1 40.83 148.7 41.02 147.22 L39.28 147.64 C39.09 148.81 38.9 149.99 38.64
								 151.09 A57.5311 57.7547 -180 0 0 15.63 151.09 C15.37 150.06 15.18 148.96 14.99 147.83 A1.0577 1.06181
								 0 0 1 14.99 147.48 L13.25 146.99 A8.91487 8.94952 -180 0 0 13.25 148.05 C13.25 149.27 13.67 150.4
								 13.89 151.5 A22.2872 22.3738 -180 0 0 6.34 154.73 A27.349 27.4553 0 0 1 6.75 119.08 A23.7604 23.8527
								 -180 0 0 14.61 122.34 C14.35 123.25 14.12 124.24 13.93 125.22 C13.74 126.21 13.93 126.17 13.63 126.63
								 L15.4 126.21 L15.4 125.57 C15.63 124.58 15.86 123.63 16.12 122.72 A56.2468 56.4654 -180 0 0 27.64
								 123.63 A56.6623 56.8825 -180 0 0 38.15 122.65 C38.41 123.67 38.67 124.77 38.9 125.87 L40.64 126.29
								 C40.36 124.92 40.06 123.66 39.73 122.49 A29.2 29.3135 -180 0 0 48.42 119.04 A27.2735 27.3795 0 0
								 1 48.65 155.03 A27.5001 27.607 -180 0 0 40.26 151.35 L40.26 151.47 Z" class="st2"/>
				</g>
				<g id="shape3122-9" transform="translate(7.54782,-19.3021)">
					<title>Sheet.3122</title>
					<path d="M0.04 148.7 A29.9177 30.034 0 0 1 4.42 148.39 A9.21707 9.25289 0 0 1 10.88 150.37 A7.55497 7.58434 0
								 0 1 13.11 155.9 A8.34824 8.38069 0 0 1 10.8 162.12 A9.82146 9.85964 0 0 1 3.78 164.44 A34.6395 34.7742
								 0 0 1 0 164.25 L0.04 148.7 ZM2.12 162.84 A15.1099 15.1687 -180 0 0 4.19 162.84 A6.11953 6.14331
								 -180 0 0 10.95 155.98 A5.66623 5.68825 -180 0 0 4.5 149.84 A11.9746 12.0212 -180 0 0 2.12 149.84
								 L2.12 162.84 ZM15.79 164.28 L15.79 148.32 L18.02 148.32 L23.12 156.28 A46.0098 46.1886 0 0 1 25.99
								 161.48 C25.8 159.35 25.76 157.42 25.76 154.92 L25.76 148.32 L27.65 148.32 L27.65 164.28 L25.57 164.28
								 L20.59 156.28 C19.49 154.5 18.43 152.49 17.6 150.97 L17.6 164.4 L15.79 164.28 ZM31.01 161.78 A7.55497
								 7.58434 -180 0 0 34.79 162.8 C36.91 162.8 38.11 161.7 38.11 160.07 C38.11 158.44 37.28 157.72 35.13
								 156.93 C32.98 156.13 30.9 154.65 30.9 152.38 A4.60853 4.62645 0 0 1 36.07 148.05 A7.55497 7.58434
								 0 0 1 39.59 148.81 L38.98 150.52 A6.1573 6.18123 -180 0 0 35.96 149.76 C33.77 149.76 32.94 151.05
								 32.94 152.15 C32.94 153.25 33.92 154.39 36.11 155.22 C38.3 156.05 40.19 157.57 40.19 159.92 C40.19
								 162.27 38.38 164.51 34.6 164.51 A8.15937 8.19108 0 0 1 30.56 163.49 L31.01 161.78 Z" class="st3"/>
				</g>
			</g>
		</g>
	</g>
</svg>
