<?xml version="1.0" encoding="UTF-8" standalone="no"?>
<!DOCTYPE svg PUBLIC "-//W3C//DTD SVG 1.1//EN" "http://www.w3.org/Graphics/SVG/1.1/DTD/svg11.dtd">
<!-- Generated by Microsoft Visio, SVG Export Event Grid Input Output.svg Page-1 -->
<svg xmlns="http://www.w3.org/2000/svg" xmlns:xlink="http://www.w3.org/1999/xlink" xmlns:ev="http://www.w3.org/2001/xml-events"
		width="1.5748in" height="1.68836in" viewBox="0 0 113.386 121.562" xml:space="preserve" color-interpolation-filters="sRGB"
		class="st6">
	<style type="text/css">
	<![CDATA[
		.st1 {fill:#999999;stroke:none;stroke-width:7.17238}
		.st2 {fill:#999999;fill-opacity:0.5;stroke:none;stroke-width:7.17238}
		.st3 {fill:#949494;stroke:none;stroke-width:7.17238}
		.st4 {fill:url(#grad0-34);stroke:none;stroke-width:7.17238}
		.st5 {fill:url(#grad0-38);stroke:none;stroke-width:7.17238}
		.st6 {fill:none;fill-rule:evenodd;font-size:12px;overflow:visible;stroke-linecap:square;stroke-miterlimit:3}
	]]>
	</style>

	<defs id="Patterns_And_Gradients">
		<linearGradient id="grad0-34" x1="0" y1="0" x2="1" y2="0" gradientTransform="rotate(-90 0.5 0.5)">
			<stop offset="0" stop-color="#773adc" stop-opacity="1"/>
			<stop offset="1" stop-color="#a67af4" stop-opacity="1"/>
		</linearGradient>
		<linearGradient id="grad0-38" x1="0" y1="0" x2="1" y2="0" gradientTransform="rotate(-90 0.5 0.5)">
			<stop offset="0" stop-color="#1b93eb" stop-opacity="1"/>
			<stop offset="1" stop-color="#6bb9f2" stop-opacity="1"/>
		</linearGradient>
	</defs>
	<g>
		<title>Page-1</title>
		<g id="group3022-1" transform="translate(28.3465,-66.189)">
			<title>Event Grid Input Output</title>
			<g id="group3023-2">
				<title>g10</title>
				<g id="group3024-3">
					<title>g14-9</title>
					<g id="group3025-4">
						<title>Icon691_DataBox_Gateway</title>
						<g id="group3026-5">
							<title>Icon-intune-341</title>
							<g id="group3027-6">
								<title>g48</title>
								<g id="group3028-7" transform="translate(0.883764,-35.8071)">
									<title>g20</title>
									<g id="shape3029-8">
										<title>path16</title>
										<path d="M1.83 109.18 L5.95 109.18 L5.95 120.65 a0.913779 0.910041 0 0 1 -0.913779 0.910041
													 L0.91 121.56 a0.913779 0.910041 0 0 1 -0.913779 -0.910041 L0 111 A1.82756 1.82008
													 0 0 1 1.83 109.18 Z" class="st1"/>
									</g>
									<g id="shape3030-10">
										<title>path18</title>
										<path d="M1.83 109.18 L5.95 109.18 L5.95 120.65 a0.913779 0.910041 0 0 1 -0.913779 0.910041
													 L0.91 121.56 a0.913779 0.910041 0 0 1 -0.913779 -0.910041 L0 111 A1.82756 1.82008
													 0 0 1 1.83 109.18 Z" class="st2"/>
									</g>
								</g>
								<g id="group3031-12" transform="translate(49.2607,-35.8071)">
									<title>g26</title>
									<g id="shape3032-13">
										<title>path22</title>
										<path d="M0 109.18 L4.12 109.18 A1.82756 1.82008 0 0 1 5.95 111 L5.95 120.65 a0.913779 0.910041
													 0 0 1 -0.913779 0.910041 L0.91 121.56 a0.913779 0.910041 0 0 1 -0.913779 -0.910041
													 L0 109.18 Z" class="st1"/>
									</g>
									<g id="shape3033-15">
										<title>path24</title>
										<path d="M0 109.18 L4.12 109.18 A1.82756 1.82008 0 0 1 5.95 111 L5.95 120.65 a0.913779 0.910041
													 0 0 1 -0.913779 0.910041 L0.91 121.56 a0.913779 0.910041 0 0 1 -0.913779 -0.910041
													 L0 109.18 Z" class="st2"/>
									</g>
								</g>
								<g id="shape3034-17" transform="translate(122.557,73.3614) rotate(90)">
									<title>path28</title>
									<path d="M1.81 67.46 L5.81 67.46 L5.81 121.56 L1.81 121.56 A1.81088 1.80347 0 0 1 0 119.76 L0
												 69.27 A1.81088 1.80347 0 0 1 1.81 67.46 Z" class="st3"/>
								</g>
								<g id="group3035-19" transform="translate(0.883764,-0.00332132)">
									<title>g34</title>
									<g id="shape3036-20">
										<title>path30</title>
										<path d="M0.91 109.18 L5.04 109.18 a0.913779 0.910041 0 0 1 0.913779 0.910041 L5.95 121.56
													 L1.83 121.56 A1.82756 1.82008 0 0 1 0 119.74 L0 110.09 a0.913779 0.910041 0
													 0 1 0.913779 -0.910041 Z" class="st1"/>
									</g>
									<g id="shape3037-22">
										<title>path32</title>
										<path d="M0.91 109.18 L5.04 109.18 a0.913779 0.910041 0 0 1 0.913779 0.910041 L5.95 121.56
													 L1.83 121.56 A1.82756 1.82008 0 0 1 0 119.74 L0 110.09 a0.913779 0.910041 0
													 0 1 0.913779 -0.910041 Z" class="st2"/>
									</g>
								</g>
								<g id="group3038-24" transform="translate(49.2607,-2.27374E-13)">
									<title>g40</title>
									<g id="shape3039-25">
										<title>path36</title>
										<path d="M0.91 109.18 L5.04 109.18 a0.913779 0.910041 0 0 1 0.913779 0.910041 L5.95 119.74
													 A1.82756 1.82008 0 0 1 4.12 121.56 L0 121.56 L0 110.09 a0.913779 0.910041 0
													 0 1 0.913779 -0.910041 Z" class="st1"/>
									</g>
									<g id="shape3040-27">
										<title>path38</title>
										<path d="M0.91 109.18 L5.04 109.18 a0.913779 0.910041 0 0 1 0.913779 0.910041 L5.95 119.74
													 A1.82756 1.82008 0 0 1 4.12 121.56 L0 121.56 L0 110.09 a0.913779 0.910041 0
													 0 1 0.913779 -0.910041 Z" class="st2"/>
									</g>
								</g>
								<g id="shape3041-29" transform="translate(-66.4632,121.571) rotate(-90)">
									<title>path42</title>
									<path d="M1.81 67.46 L5.81 67.46 L5.81 121.56 L1.81 121.56 A1.81088 1.80347 0 0 1 0 119.76 L0
												 69.26 A1.81088 1.80347 0 0 1 1.81 67.46 Z" class="st3"/>
								</g>
								<g id="shape3042-31" transform="translate(0,-13.144)">
									<title>path44</title>
									<path d="M14.97 98.93 L25.39 109.31 A1.2406 1.23553 0 0 1 25.39 111.06 L14.97 121.44 a0.553603
												 0.551338 0 0 1 -0.947128 -0.391915 L14.02 114.67 a0.553603 0.551338 -180 0 0 -0.553603
												 -0.55466 L0.44 114.11 a0.440214 0.438414 0 0 1 -0.443549 -0.441735 L0 106.7 a0.440214
												 0.438414 0 0 1 0.443549 -0.438414 L13.47 106.26 a0.553603 0.551338 -180 0 0 0.553603
												 -0.55466 L14.02 99.32 a0.553603 0.551338 0 0 1 0.947128 -0.385273 Z" class="st4"/>
								</g>
								<g id="shape3043-35" transform="translate(30.9384,-13.144)">
									<title>path46</title>
									<path d="M14.97 98.93 L25.39 109.31 A1.24727 1.24217 0 0 1 25.39 111.06 L14.97 121.44 a0.553603
												 0.551338 0 0 1 -0.947128 -0.391915 L14.02 114.67 a0.556938 0.55466 -180 0 0 -0.556938
												 -0.55466 L0.44 114.11 a0.440214 0.438414 0 0 1 -0.440214 -0.441735 L0 106.7 a0.440214
												 0.438414 0 0 1 0.440214 -0.441735 L13.47 106.26 a0.556938 0.55466 -180 0 0 0.556938
												 -0.55466 L14.02 99.32 a0.553603 0.551338 0 0 1 0.947128 -0.385273 Z" class="st5"/>
								</g>
							</g>
						</g>
					</g>
				</g>
			</g>
		</g>
	</g>
</svg>
