<?xml version="1.0" encoding="UTF-8" standalone="no"?>
<!DOCTYPE svg PUBLIC "-//W3C//DTD SVG 1.1//EN" "http://www.w3.org/Graphics/SVG/1.1/DTD/svg11.dtd">
<!-- Generated by Microsoft Visio, SVG Export Event Grid Subscription.svg Page-1 -->
<svg xmlns="http://www.w3.org/2000/svg" xmlns:xlink="http://www.w3.org/1999/xlink" xmlns:ev="http://www.w3.org/2001/xml-events"
		width="1.73192in" height="2.12183in" viewBox="0 0 124.698 152.772" xml:space="preserve" color-interpolation-filters="sRGB"
		class="st8">
	<style type="text/css">
	<![CDATA[
		.st1 {fill:#32bedd;stroke:none;stroke-linecap:butt;stroke-width:34}
		.st2 {fill:#ffffff;stroke:none;stroke-linecap:butt;stroke-width:34}
		.st3 {fill:#50e6ff;stroke:none;stroke-linecap:butt;stroke-width:34}
		.st4 {fill:url(#grad0-18);stroke:none;stroke-linecap:butt;stroke-width:34}
		.st5 {fill:#999999;stroke:none;stroke-linecap:butt;stroke-width:34}
		.st6 {fill:#999999;fill-opacity:0.5;stroke:none;stroke-linecap:butt;stroke-width:34}
		.st7 {fill:#949494;stroke:none;stroke-linecap:butt;stroke-width:34}
		.st8 {fill:none;fill-rule:evenodd;font-size:12px;overflow:visible;stroke-linecap:square;stroke-miterlimit:3}
	]]>
	</style>

	<defs id="Patterns_And_Gradients">
		<linearGradient id="grad0-18" x1="0" y1="0" x2="1" y2="0" gradientTransform="rotate(90 0.5 0.5)">
			<stop offset="0" stop-color="#c69aeb" stop-opacity="1"/>
			<stop offset="1" stop-color="#6f4bb2" stop-opacity="1"/>
		</linearGradient>
	</defs>
	<g>
		<title>Page-1</title>
		<g id="group2984-1" transform="translate(34.0052,-67.748)">
			<title>Event Grid Subscription</title>
			<g id="group2985-2">
				<title>Icon-integration-221</title>
				<g id="shape2986-3" transform="translate(8.50394,-14.1545)">
					<title>Sheet.2986</title>
					<path d="M32.18 138.55 L32.18 136.53 L17.11 136.53 L10.04 143.64 L4.84 143.64 L16.91 131.3 L25.14 131.3 L25.14
								 129.38 L16.07 129.38 L2 143.64 L0 143.64 L0 145.66 L6.04 145.66 L13.17 152.77 L30.18 152.77 L30.18
								 150.75 L13.91 150.75 L8.87 145.66 L21.11 145.66 L21.11 143.64 L12.91 143.64 L17.91 138.55 L32.18
								 138.55 Z" class="st1"/>
				</g>
				<g id="shape2987-5" transform="translate(28.7133,-19.3445)">
					<title>Sheet.2987</title>
					<ellipse cx="2.90134" cy="149.84" rx="2.90134" ry="2.932" class="st2"/>
				</g>
				<g id="shape2988-7" transform="translate(31.748,-33.5664)">
					<title>Sheet.2988</title>
					<ellipse cx="2.90134" cy="149.84" rx="2.90134" ry="2.932" class="st2"/>
				</g>
				<g id="shape2989-9" transform="translate(38.7846,-26.4554)">
					<title>Sheet.2989</title>
					<ellipse cx="2.90134" cy="149.84" rx="2.90134" ry="2.932" class="st2"/>
				</g>
				<g id="shape2990-11" transform="translate(35.7832,-12.2335)">
					<title>Sheet.2990</title>
					<ellipse cx="2.90134" cy="149.84" rx="2.90134" ry="2.932" class="st2"/>
				</g>
				<g id="shape2991-13" transform="translate(31.0477,-32.9598)">
					<title>Sheet.2991</title>
					<ellipse cx="3.50162" cy="149.233" rx="3.50162" ry="3.53863" class="st3"/>
				</g>
				<g id="shape2992-15" transform="translate(38.0843,-25.8488)">
					<title>Sheet.2992</title>
					<ellipse cx="3.50162" cy="149.233" rx="3.50162" ry="3.53863" class="st4"/>
				</g>
				<g id="shape2993-19" transform="translate(35.183,-11.6269)">
					<title>Sheet.2993</title>
					<ellipse cx="3.50162" cy="149.233" rx="3.50162" ry="3.53863" class="st4"/>
				</g>
				<g id="shape2994-22" transform="translate(28.113,-18.7379)">
					<title>Sheet.2994</title>
					<ellipse cx="3.50162" cy="149.233" rx="3.50162" ry="3.53863" class="st3"/>
				</g>
				<g id="group2995-24" transform="translate(5.64548E-14,-38.015)">
					<title>Sheet.2995</title>
					<g id="shape2996-25">
						<title>Sheet.2996</title>
						<path d="M1.9 139.76 L6.2 139.76 L6.2 151.79 a0.967114 0.977335 0 0 1 -0.967114 0.977335 L0.97 152.77 a0.967114
									 0.977335 0 0 1 -0.967114 -0.977335 L0 141.68 A1.90088 1.92097 0 0 1 1.9 139.76 Z" class="st5"/>
					</g>
					<g id="shape2997-27">
						<title>Sheet.2997</title>
						<path d="M1.9 139.76 L6.2 139.76 L6.2 151.79 a0.967114 0.977335 0 0 1 -0.967114 0.977335 L0.97 152.77 a0.967114
									 0.977335 0 0 1 -0.967114 -0.977335 L0 141.68 A1.90088 1.92097 0 0 1 1.9 139.76 Z" class="st6"/>
					</g>
				</g>
				<g id="group2998-29" transform="translate(50.49,-38.015)">
					<title>Sheet.2998</title>
					<g id="shape2999-30">
						<title>Sheet.2999</title>
						<path d="M0 139.76 L4.3 139.76 A1.90088 1.92097 0 0 1 6.2 141.68 L6.2 151.79 a0.967114 0.977335 0 0 1 -0.967114
									 0.977335 L0.93 152.77 a0.967114 0.977335 0 0 1 -0.933766 -0.977335 L0 139.76 Z" class="st5"/>
					</g>
					<g id="shape3000-32">
						<title>Sheet.3000</title>
						<path d="M0 139.76 L4.3 139.76 A1.90088 1.92097 0 0 1 6.2 141.68 L6.2 151.79 a0.967114 0.977335 0 0 1 -0.967114
									 0.977335 L0.93 152.77 a0.967114 0.977335 0 0 1 -0.933766 -0.977335 L0 139.76 Z" class="st6"/>
					</g>
				</g>
				<g id="shape3001-34" transform="translate(0,-44.89)">
					<title>Sheet.3001</title>
					<path d="M56.69 148.56 L56.69 152.77 L0 152.77 L0 148.56 A1.90088 1.92097 0 0 1 1.9 146.64 L54.83 146.64 A1.90088
								 1.92097 0 0 1 56.69 148.56 Z" class="st7"/>
				</g>
				<g id="group3002-36">
					<title>Sheet.3002</title>
					<g id="shape3003-37">
						<title>Sheet.3003</title>
						<path d="M0.97 139.66 L5.27 139.66 a0.967114 0.977335 0 0 1 0.967114 0.977335 L6.24 152.77 L1.9 152.77 A1.90088
									 1.92097 0 0 1 0 150.85 L0 140.74 a0.967114 0.977335 0 0 1 0.967114 -1.07844 Z" class="st5"/>
					</g>
					<g id="shape3004-39">
						<title>Sheet.3004</title>
						<path d="M0.97 139.66 L5.27 139.66 a0.967114 0.977335 0 0 1 0.967114 0.977335 L6.24 152.77 L1.9 152.77 A1.90088
									 1.92097 0 0 1 0 150.85 L0 140.74 a0.967114 0.977335 0 0 1 0.967114 -1.07844 Z" class="st6"/>
					</g>
				</g>
				<g id="group3005-41" transform="translate(50.49,-0.101104)">
					<title>Sheet.3005</title>
					<g id="shape3006-42">
						<title>Sheet.3006</title>
						<path d="M0.93 139.76 L5.24 139.76 a0.967114 0.977335 0 0 1 0.967114 0.977335 L6.2 150.85 A1.90088 1.92097
									 0 0 1 4.3 152.77 L0 152.77 L0 140.84 a0.967114 0.977335 0 0 1 0.933766 -1.07844 Z" class="st5"/>
					</g>
					<g id="shape3007-44">
						<title>Sheet.3007</title>
						<path d="M0.93 139.76 L5.24 139.76 a0.967114 0.977335 0 0 1 0.967114 0.977335 L6.2 150.85 A1.90088 1.92097
									 0 0 1 4.3 152.77 L0 152.77 L0 140.84 a0.967114 0.977335 0 0 1 0.933766 -1.07844 Z" class="st6"/>
					</g>
				</g>
				<g id="shape3008-46">
					<title>Sheet.3008</title>
					<path d="M0 150.85 L0 146.64 L56.69 146.64 L56.69 150.85 A1.90088 1.92097 0 0 1 54.79 152.77 L1.9 152.77 A1.90088
								 1.92097 0 0 1 0 150.85 Z" class="st7"/>
				</g>
			</g>
		</g>
	</g>
</svg>
