<?xml version="1.0" encoding="UTF-8" standalone="no"?>
<!DOCTYPE svg PUBLIC "-//W3C//DTD SVG 1.1//EN" "http://www.w3.org/Graphics/SVG/1.1/DTD/svg11.dtd">
<!-- Generated by Microsoft Visio, SVG Export Event Hub Cluster.svg Page-1 -->
<svg xmlns="http://www.w3.org/2000/svg" xmlns:xlink="http://www.w3.org/1999/xlink" xmlns:ev="http://www.w3.org/2001/xml-events"
		width="1.73185in" height="1.99978in" viewBox="0 0 124.693 143.984" xml:space="preserve" color-interpolation-filters="sRGB"
		class="st7">
	<style type="text/css">
	<![CDATA[
		.st1 {fill:#b3b3b3;stroke:none;stroke-linecap:butt;stroke-width:34}
		.st2 {fill:#b3b3b3;fill-opacity:0.5;stroke:none;stroke-linecap:butt;stroke-width:34}
		.st3 {fill:#76bc2d;stroke:none;stroke-linecap:butt;stroke-width:34}
		.st4 {fill:#5e9624;stroke:none;stroke-linecap:butt;stroke-width:34}
		.st5 {fill:#86d633;stroke:none;stroke-linecap:butt;stroke-width:34}
		.st6 {fill:#949494;stroke:none;stroke-linecap:butt;stroke-width:34}
		.st7 {fill:none;fill-rule:evenodd;font-size:12px;overflow:visible;stroke-linecap:square;stroke-miterlimit:3}
	]]>
	</style>

	<g>
		<title>Page-1</title>
		<g id="group2906-1" transform="translate(34,-64.6299)">
			<title>Event Hub Cluster</title>
			<g id="group2907-2">
				<title> Icon-analytics-149</title>
				<g id="group2908-3" transform="translate(27.8632,-18.8078)">
					<title>Sheet.2908</title>
					<g id="shape2909-4" transform="translate(-2.89768E-14,-0.0326525)">
						<title>Sheet.2909</title>
						<path d="M1.07 137.62 L3.23 137.62 L3.23 143.53 a0.466608 0.457135 0 0 1 -0.466608 0.457135 L0.47 143.98
									 a0.466608 0.457135 0 0 1 -0.466608 -0.457135 L0 138.56 a0.966546 0.946923 0 0 1 1.06653 -0.946923
									 Z" class="st1"/>
					</g>
					<g id="shape2910-6" transform="translate(-2.89768E-14,-0.0326525)">
						<title>Sheet.2910</title>
						<path d="M1.07 137.62 L3.23 137.62 L3.23 143.53 a0.466608 0.457135 0 0 1 -0.466608 0.457135 L0.47 143.98
									 a0.466608 0.457135 0 0 1 -0.466608 -0.457135 L0 138.56 a0.966546 0.946923 0 0 1 1.06653 -0.946923
									 Z" class="st2"/>
					</g>
					<g id="shape2911-8" transform="translate(25.6635,0)">
						<title>Sheet.2911</title>
						<path d="M0 137.58 L2.17 137.58 a0.966546 0.946923 0 0 1 0.966546 0.946923 L3.13 143.53 a0.466608 0.457135
									 0 0 1 -0.466608 0.457135 L0.47 143.98 a0.466608 0.457135 0 0 1 -0.466608 -0.457135 L0 137.58
									 Z" class="st1"/>
					</g>
					<g id="shape2912-10" transform="translate(25.6635,0)">
						<title>Sheet.2912</title>
						<path d="M0 137.58 L2.17 137.58 a0.966546 0.946923 0 0 1 0.966546 0.946923 L3.13 143.53 a0.466608 0.457135
									 0 0 1 -0.466608 0.457135 L0.47 143.98 a0.466608 0.457135 0 0 1 -0.466608 -0.457135 L0 137.58
									 Z" class="st2"/>
					</g>
					<g id="shape2913-12" transform="translate(0.133317,-3.49382)">
						<title>Sheet.2913</title>
						<path d="M28.66 141.93 L28.66 143.98 L0 143.98 L0 141.93 a0.966546 0.946923 0 0 1 0.966546 -0.946923 L27.63
									 140.98 a0.966546 0.946923 0 0 1 1.0332 0.946923 Z" class="st1"/>
					</g>
				</g>
				<g id="group2914-14" transform="translate(27.9632,1.13687E-13)">
					<title>Sheet.2914</title>
					<g id="shape2915-15" transform="translate(5.77038E-14,-0.0326525)">
						<title>Sheet.2915</title>
						<path d="M0.37 137.62 L2.53 137.62 a0.466608 0.457135 0 0 1 0.466608 0.457135 L3 143.98 L0.97 143.98 a0.966546
									 0.946923 0 0 1 -0.966546 -0.946923 L0 137.98 a0.466608 0.457135 0 0 1 0.366621 -0.359178 Z"
								class="st1"/>
					</g>
					<g id="shape2916-17" transform="translate(5.77038E-14,-0.0326525)">
						<title>Sheet.2916</title>
						<path d="M0.37 137.62 L2.53 137.62 a0.466608 0.457135 0 0 1 0.466608 0.457135 L3 143.98 L0.97 143.98 a0.966546
									 0.946923 0 0 1 -0.966546 -0.946923 L0 137.98 a0.466608 0.457135 0 0 1 0.366621 -0.359178 Z"
								class="st2"/>
					</g>
					<g id="shape2917-19" transform="translate(25.5301,0)">
						<title>Sheet.2917</title>
						<path d="M0.5 137.58 L2.67 137.58 a0.466608 0.457135 0 0 1 0.466608 0.457135 L3.13 143.04 a0.966546 0.946923
									 0 0 1 -0.966546 0.946923 L0 143.98 L0 137.94 a0.466608 0.457135 0 0 1 0.499938 -0.359178 Z"
								class="st1"/>
					</g>
					<g id="shape2918-21" transform="translate(25.5301,0)">
						<title>Sheet.2918</title>
						<path d="M0.5 137.58 L2.67 137.58 a0.466608 0.457135 0 0 1 0.466608 0.457135 L3.13 143.04 a0.966546 0.946923
									 0 0 1 -0.966546 0.946923 L0 143.98 L0 137.94 a0.466608 0.457135 0 0 1 0.499938 -0.359178 Z"
								class="st2"/>
					</g>
					<g id="shape2919-23" transform="translate(0.0333292,0)">
						<title>Sheet.2919</title>
						<path d="M0 143.04 L0 140.98 L28.7 140.98 L28.7 143.04 a0.966546 0.946923 0 0 1 -0.966546 0.946923 L1.07
									 143.98 a0.966546 0.946923 0 0 1 -1.06653 -0.946923 Z" class="st1"/>
					</g>
				</g>
				<g id="shape2920-25" transform="translate(41.2282,-13.3549)">
					<title>Sheet.2920</title>
					<path d="M4.07 143.56 a0.433279 0.424483 0 0 1 -0.366621 0.424483 L0.43 143.98 a0.39995 0.39183 0 0 1 -0.433279
								 -0.39183 L0 141.14 a0.466608 0.457135 0 0 1 0.366621 -0.424483 L3.7 140.72 a0.39995 0.39183 0 0
								 1 0.433279 0.39183 L4.07 143.56 Z" class="st3"/>
				</g>
				<g id="shape2921-27" transform="translate(41.2282,-8.39169)">
					<title>Sheet.2921</title>
					<path d="M10.03 141.08 a0.433279 0.424483 0 0 1 -0.366621 0.424483 L6.33 141.5 a0.39995 0.39183 0 0 1 -0.433279
								 -0.39183 L5.9 138.69 a0.366621 0.359178 0 0 1 0.366621 -0.39183 L9.6 138.3 a0.366621 0.359178 0
								 0 1 0.433279 0.359178 L10.03 141.08 ZM4.07 143.56 a0.39995 0.39183 0 0 1 -0.366621 0.424483 L0.43
								 143.98 a0.39995 0.39183 0 0 1 -0.433279 -0.359178 L0 141.18 a0.39995 0.39183 0 0 1 0.433279 -0.424483
								 L3.77 140.75 a0.366621 0.359178 0 0 1 0.433279 0.359178 L4.2 143.56 L4.07 143.56 Z" class="st4"/>
				</g>
				<g id="shape2922-29" transform="translate(34.9956,-15.6895)">
					<title>Sheet.2922</title>
					<path d="M4.33 143.48 a0.366621 0.359178 0 0 1 -0.366621 0.39183 L0.63 143.87 a0.37449 0.366887 0 0 1 -0.633254
								 -0.39183 L0 140.96 a0.366621 0.359178 0 0 1 0.366621 -0.39183 L3.7 140.57 C4.03 140.57 4.2 140.74
								 4.2 140.96 L4.33 143.48 Z" class="st5"/>
				</g>
				<g id="shape2923-31" transform="translate(35.2289,-10.8733)">
					<title>Sheet.2923</title>
					<path d="M4.1 143.56 a0.39995 0.39183 0 0 1 -0.366621 0.424483 L0.4 143.98 a0.39995 0.39183 0 0 1 -0.39995 -0.39183
								 L0 141.11 a0.39995 0.39183 0 0 1 0.366621 -0.424483 L3.7 140.69 C4.03 140.69 4.2 140.85 4.2 141.11
								 L4.1 143.56 Z" class="st3"/>
				</g>
				<g id="shape2924-33" transform="translate(34.9956,-5.95566)">
					<title>Sheet.2924</title>
					<path d="M4.33 143.54 a0.366621 0.359178 0 0 1 -0.366621 0.424483 L0.63 143.96 a0.39995 0.39183 0 0 1 -0.633254
								 -0.424483 L0 140.99 a0.39995 0.39183 0 0 1 0.366621 -0.424483 L3.7 140.57 a0.433279 0.424483 0 0
								 1 0.499938 0.424483 L4.33 143.54 Z" class="st4"/>
				</g>
				<g id="shape2925-35" transform="translate(-2.79776E-13,-9.24066)">
					<title>Sheet.2925</title>
					<path d="M42.69 120.05 a0.933217 0.91427 -180 0 0 -1.0332 -0.91427 L15 119.14 a0.933217 0.91427 -180 0 0 -0.966546
								 0.91427 L14.03 125.05 a0.499938 0.489788 -180 0 0 0.499938 0.457135 L16.66 125.5 a0.466608 0.457135
								 -180 0 0 0.466608 -0.457135 L17.13 122.11 L39.53 122.11 L39.53 125.05 a0.499938 0.489788 -180 0
								 0 0.499938 0.457135 L42.19 125.5 a0.499938 0.489788 -180 0 0 0.499938 -0.457135 L42.69 120.05 ZM17.13
								 138.07 a0.466608 0.457135 -180 0 0 -0.466608 -0.457135 L14.5 137.62 a0.499938 0.489788 -180 0 0
								 -0.499938 0.457135 L14 143.07 a0.833229 0.816313 -180 0 0 0.699913 0.91427 L26.3 143.98 L26.3 141.01
								 L17.13 141.01 L17.13 138.07 ZM28.7 108.82 a0.966546 0.946923 -180 0 0 -0.966546 -0.946923 L1.07
								 107.87 a0.966546 0.946923 -180 0 0 -0.966546 0.946923 L0.1 113.81 a0.466608 0.457135 -180 0 0 0.366621
								 0.359178 L2.67 114.17 a0.466608 0.457135 -180 0 0 0.466608 -0.457135 L3.13 110.91 L25.53 110.91
								 L25.53 113.88 a0.499938 0.489788 -180 0 0 0.499938 0.293873 L28.33 114.17 a0.499938 0.489788 -180
								 0 0 0.499938 -0.457135 L28.83 108.82 L28.7 108.82 ZM3.13 126.84 a0.499938 0.489788 -180 0 0 -0.466608
								 -0.489788 L0.47 126.35 a0.499938 0.489788 -180 0 0 -0.466608 0.489788 L0 131.8 C0 132.29 0.33 132.72
								 0.7 132.72 L12.3 132.72 L12.3 129.78 L3.13 129.78 L3.13 126.84 Z" class="st6"/>
				</g>
				<g id="shape2926-37" transform="translate(6.19923,-14.5957)">
					<title>Sheet.2926</title>
					<path d="M18.2 133.63 a0.366621 0.359178 0 0 1 -0.366621 0.39183 L14.5 134.03 a0.366621 0.359178 0 0 1 -0.433279
								 -0.359178 L14.06 131.15 a0.366621 0.359178 0 0 1 0.366621 -0.424483 L17.76 130.73 C18.1 130.73 18.26
								 130.89 18.26 131.15 L18.2 133.63 ZM18.2 136.11 C18.2 135.85 18.03 135.85 17.7 135.85 L14.36 135.85
								 a0.39995 0.39183 -180 0 0 -0.366621 0.424483 L14 138.83 a0.39995 0.39183 -180 0 0 0.433279 0.359178
								 L17.76 139.18 a0.39995 0.39183 -180 0 0 0.366621 -0.424483 L18.2 136.11 ZM18.2 141.08 C18.2 140.85
								 18.03 140.69 17.7 140.69 L14.36 140.69 a0.366621 0.359178 -180 0 0 -0.366621 0.39183 L14 143.63
								 a0.366621 0.359178 -180 0 0 0.433279 0.359178 L17.76 143.98 a0.366621 0.359178 -180 0 0 0.366621
								 -0.424483 L18.2 141.08 ZM4.2 119.89 a0.433279 0.424483 -180 0 0 -0.499938 -0.359178 L0.37 119.53
								 a0.39995 0.39183 -180 0 0 -0.366621 0.424483 L0 122.5 a0.39995 0.39183 -180 0 0 0.366621 0.293873
								 L3.7 122.79 a0.366621 0.359178 -180 0 0 0.366621 -0.424483 L4.2 119.89 ZM4.2 124.85 C4.2 124.62
								 4.03 124.46 3.7 124.46 L0.37 124.46 a0.366621 0.359178 -180 0 0 -0.366621 0.39183 L0 127.36 a0.366621
								 0.359178 -180 0 0 0.39995 0.359178 L3.73 127.72 a0.366621 0.359178 -180 0 0 0.366621 -0.39183 L4.2
								 124.85 ZM4.2 129.85 C4.2 129.58 4.03 129.42 3.7 129.42 L0.37 129.42 a0.39995 0.39183 -180 0 0 -0.366621
								 0.424483 L0 132.33 a0.39995 0.39183 -180 0 0 0.39995 0.39183 L3.73 132.72 a0.39995 0.39183 -180
								 0 0 0.366621 -0.424483 L4.2 129.85 Z" class="st3"/>
				</g>
			</g>
		</g>
	</g>
</svg>
