<?xml version="1.0" encoding="UTF-8" standalone="no"?>
<!DOCTYPE svg PUBLIC "-//W3C//DTD SVG 1.1//EN" "http://www.w3.org/Graphics/SVG/1.1/DTD/svg11.dtd">
<!-- Generated by Microsoft Visio, SVG Export ExpressRoute Direct.svg Page-1 -->
<svg xmlns="http://www.w3.org/2000/svg" xmlns:xlink="http://www.w3.org/1999/xlink" xmlns:ev="http://www.w3.org/2001/xml-events"
		width="1.73185in" height="2.0608in" viewBox="0 0 124.693 148.378" xml:space="preserve" color-interpolation-filters="sRGB"
		class="st7">
	<style type="text/css">
	<![CDATA[
		.st1 {fill:#773adc;stroke:none;stroke-linecap:butt;stroke-width:34}
		.st2 {fill:#86d633;stroke:none;stroke-linecap:butt;stroke-width:34}
		.st3 {fill:#ffffff;stroke:none;stroke-linecap:butt;stroke-width:34}
		.st4 {fill:#a67af4;stroke:none;stroke-linecap:butt;stroke-width:34}
		.st5 {fill:#b796f9;stroke:none;stroke-linecap:butt;stroke-width:34}
		.st6 {fill:url(#grad0-20);stroke:none;stroke-linecap:butt;stroke-width:34}
		.st7 {fill:none;fill-rule:evenodd;font-size:12px;overflow:visible;stroke-linecap:square;stroke-miterlimit:3}
	]]>
	</style>

	<defs id="Patterns_And_Gradients">
		<linearGradient id="grad0-20" x1="0" y1="0" x2="1" y2="0" gradientTransform="rotate(97.526551594187 0.5 0.5)">
			<stop offset="0" stop-color="#a67af4" stop-opacity="1"/>
			<stop offset="1" stop-color="#773adc" stop-opacity="1"/>
		</linearGradient>
	</defs>
	<g>
		<title>Page-1</title>
		<g id="group2876-1" transform="translate(34,-66.189)">
			<title>ExpressRoute Direct</title>
			<g id="group2877-2">
				<title>Sheet.2877</title>
				<g id="shape2878-3" transform="translate(5.31339,-17.0524)">
					<title>Sheet.2878</title>
					<path d="M10.1 124.77 L13.74 126.82 L3.64 143.93 L0 141.87 L10.1 124.77 ZM13.77 127.15 L17.41 125.1 L27.51 142.2
								 L23.87 144.26 L13.77 127.15 ZM23.7 144.27 L23.7 148.38 L3.5 148.38 L3.5 144.27 L23.7 144.27 Z"
							class="st1"/>
				</g>
				<g id="shape2879-5" transform="translate(14.1669,-38.1755)">
					<title>Sheet.2879</title>
					<ellipse cx="5.12126" cy="143.371" rx="5.12126" ry="5.00673" class="st2"/>
				</g>
				<g id="shape2880-7" transform="translate(-1.13909E-13,-13.8039)">
					<title>Sheet.2880</title>
					<ellipse cx="5.12126" cy="143.371" rx="5.12126" ry="5.00673" class="st2"/>
				</g>
				<g id="shape2881-9" transform="translate(21.9181,2.27374E-13)">
					<title>Sheet.2881</title>
					<ellipse cx="16.7717" cy="131.981" rx="16.7717" ry="16.3966" class="st3"/>
				</g>
				<g id="shape2882-11" transform="translate(30.1609,-7.05129)">
					<title>Sheet.2882</title>
					<path d="M0.87 143.27 a0.944882 0.92375 0 0 1 -0.667717 -1.57653 L3.76 138.23 a0.944882 0.92375 0 1 1 1.33543
								 1.30249 L1.54 143 a0.944882 0.92375 0 0 1 -0.667717 0.270967 ZM3.5 145.84 a0.944882 0.92375 0 0
								 1 -0.667717 -1.57653 L6.37 140.79 a0.944882 0.92375 0 1 1 1.33543 1.30557 L4.17 145.57 a0.944882
								 0.92375 0 0 1 -0.674016 0.267888 ZM6.09 148.38 a0.944882 0.92375 0 0 1 -0.667717 -1.57345 L8.98
								 143.33 a0.945408 0.924265 0 1 1 1.33858 1.30557 L6.77 148.12 a0.944882 0.92375 0 0 1 -0.670866 0.255571
								 ZM7.4 136.9 a0.944882 0.92375 0 0 1 -0.667717 -1.57345 L10.28 131.85 a0.944882 0.92375 0 0 1 1.33543
								 1.30557 L8.06 136.62 a0.944882 0.92375 0 0 1 -0.667717 0.270967 ZM10.02 139.46 a0.944882 0.92375
								 0 0 1 -0.667717 -1.57345 L12.9 134.41 a0.945408 0.924265 0 0 1 1.33858 1.30557 L10.69 139.19 a0.944882
								 0.92375 0 0 1 -0.670866 0.267888 ZM12.62 142 a0.944882 0.92375 0 0 1 -0.667717 -1.57653 L15.51 136.95
								 a0.945408 0.924265 0 0 1 1.33543 1.30865 L13.29 141.73 a0.944882 0.92375 0 0 1 -0.674016 0.267888
								 Z" class="st1"/>
				</g>
				<g id="shape2883-13" transform="translate(22.8976,-0.283283)">
					<title>Sheet.2883</title>
					<path d="M7.4 134.34 a0.944882 0.92375 -180 0 0 -1.33858 0 L0 140.27 A18.0063 17.6036 -180 0 0 9.28 148.38 L14.85
								 142.93 a0.944882 0.92375 -180 0 0 8.88178E-15 -1.31173 L7.4 134.34 Z" class="st4"/>
				</g>
				<g id="shape2884-15" transform="translate(39.9741,-16.479)">
					<title>Sheet.2884</title>
					<path d="M7.18 132.76 L0.28 139.51 a0.944882 0.92375 -180 0 0 -4.77396E-15 1.30865 L7.73 148.11 a0.944882 0.92375
								 -180 0 0 1.33858 0 L15.48 141.85 A17.9937 17.5913 -180 0 0 7.18 132.76 Z" class="st5"/>
				</g>
				<g id="shape2885-17" transform="translate(23.1622,-4.17994)">
					<title>Sheet.2885</title>
					<path d="M15.58 120.73 A15.578 15.2296 0 1 1 0 135.96 A15.5969 15.248 0 0 1 15.58 120.73 ZM15.58 118.42 A17.9528
								 17.5513 -180 1 0 33.53 135.97 A17.9528 17.5513 -180 0 0 15.58 118.42 Z" class="st6"/>
				</g>
			</g>
		</g>
	</g>
</svg>
