<?xml version="1.0" encoding="UTF-8" standalone="no"?>
<!DOCTYPE svg PUBLIC "-//W3C//DTD SVG 1.1//EN" "http://www.w3.org/Graphics/SVG/1.1/DTD/svg11.dtd">
<!-- Generated by Microsoft Visio, SVG Export Firewall Manager.svg Page-1 -->
<svg xmlns="http://www.w3.org/2000/svg" xmlns:xlink="http://www.w3.org/1999/xlink" xmlns:ev="http://www.w3.org/2001/xml-events"
		width="1.70394in" height="1.986in" viewBox="0 0 122.684 142.992" xml:space="preserve" color-interpolation-filters="sRGB"
		class="st8">
	<style type="text/css">
	<![CDATA[
		.st1 {fill:#821010;stroke:none;stroke-linecap:butt;stroke-width:32.995}
		.st2 {fill:#e62323;stroke:none;stroke-linecap:butt;stroke-width:32.995}
		.st3 {fill:#ff7381;stroke:none;stroke-linecap:butt;stroke-width:32.995}
		.st4 {fill:none;stroke:none;stroke-linecap:butt;stroke-width:32.995}
		.st5 {fill:#dfa500;stroke:none;stroke-linecap:butt;stroke-width:32.995}
		.st6 {fill:url(#grad0-28);stroke:none;stroke-linecap:butt;stroke-width:32.995}
		.st7 {fill:#ffd400;stroke:none;stroke-linecap:butt;stroke-width:32.995}
		.st8 {fill:none;fill-rule:evenodd;font-size:12px;overflow:visible;stroke-linecap:square;stroke-miterlimit:3}
	]]>
	</style>

	<defs id="Patterns_And_Gradients">
		<linearGradient id="grad0-28" x1="0" y1="0" x2="1" y2="0" gradientTransform="rotate(90 0.5 0.5)">
			<stop offset="0" stop-color="#ffd70f" stop-opacity="1"/>
			<stop offset="0.12" stop-color="#ffcc11" stop-opacity="1"/>
			<stop offset="0.44" stop-color="#feb517" stop-opacity="1"/>
			<stop offset="0.75" stop-color="#fea61a" stop-opacity="1"/>
			<stop offset="1" stop-color="#fea11b" stop-opacity="1"/>
		</linearGradient>
	</defs>
	<g>
		<title>Page-1</title>
		<g id="group2805-1" transform="translate(32.9962,-64.6299)">
			<title>Firewall Manager</title>
			<g id="group2806-2">
				<title>g45</title>
				<g id="shape2807-3" transform="translate(0,-20.5885)">
					<title>path17</title>
					<path d="M24.9 133.29 C24.9 132.64 25.2 132.31 25.87 132.31 C35.07 131.95 33.08 128.07 39.67 128.07 A7.90994
								 7.84749 0 0 1 44.87 129.59 L44.87 120.02 A1.38349 1.37257 -180 0 0 43.37 118.23 L1.86 118.23 A1.7444
								 1.73063 -180 0 0 -0 120.02 L0 141.2 A1.95493 1.93949 -180 0 0 1.8 142.99 L24.9 142.99 L24.9 133.29
								 Z" class="st1"/>
				</g>
				<g id="shape2808-5" transform="translate(2.76698,-37.5964)">
					<title>rect19</title>
					<rect x="0" y="137.621" width="12.3311" height="5.37091" class="st2"/>
				</g>
				<g id="shape2809-7" transform="translate(16.6019,-37.5964)">
					<title>rect21</title>
					<rect x="0" y="137.621" width="12.3311" height="5.37091" class="st3"/>
				</g>
				<g id="shape2810-9" transform="translate(30.7375,-37.5964)">
					<title>rect23</title>
					<rect x="0" y="137.621" width="12.3311" height="5.37091" class="st2"/>
				</g>
				<g id="shape2811-11" transform="translate(2.76698,-30.1368)">
					<title>rect25</title>
					<rect x="0" y="137.621" width="5.11289" height="5.37091" class="st2"/>
				</g>
				<g id="shape2812-13" transform="translate(9.68441,-30.1368)">
					<title>rect27</title>
					<rect x="0" y="137.621" width="12.3311" height="5.37091" class="st3"/>
				</g>
				<g id="shape2813-15" transform="translate(23.5193,-30.1368)">
					<title>path29</title>
					<path d="M0 142.99 L1.38 142.99 C1.38 142.34 1.68 142.01 2.35 142.01 C9.08 141.77 9.83 139.62 12.33 138.49 L12.33
								 137.62 L0 137.62 L0 142.99 Z" class="st2"/>
				</g>
				<g id="shape2814-17" transform="translate(2.76698,-22.9755)">
					<title>rect31</title>
					<rect x="0" y="137.621" width="12.3311" height="5.37091" class="st2"/>
				</g>
				<g id="shape2815-19" transform="translate(16.6019,-22.9755)">
					<title>rect33</title>
					<rect x="0" y="137.621" width="8.30093" height="5.37091" class="st3"/>
				</g>
				<g id="shape2816-21" transform="translate(23.3088,0)">
					<title>rect35</title>
					<rect x="0" y="109.872" width="33.3842" height="33.1206" class="st4"/>
				</g>
				<g id="shape2817-23" transform="translate(26.3163,-0.708645)">
					<title>path37</title>
					<path d="M27.37 125.35 C27.37 134.3 16.99 142.15 14.17 142.93 A1.7444 1.73063 0 0 1 13.2 142.93 C10.38 142.15
								 0 134.27 0 125.35 L0 114.61 a0.812047 0.805636 0 0 1 0.902274 -0.895151 C9.32 113.41 7.52 109.83
								 13.53 109.83 C19.55 109.83 17.74 113.41 26.17 113.71 a0.812047 0.805636 0 0 1 0.902274 0.895151
								 L27.37 125.35 Z" class="st5"/>
				</g>
				<g id="shape2818-25" transform="translate(27.5194,-1.93949)">
					<title>path39</title>
					<path d="M12.33 127.77 L12.33 112.56 C18.05 112.56 16.24 115.84 24.06 116.14 a0.962426 0.954828 0 0 1 0.902274
								 0.895151 L24.96 127.48 L12.33 127.77 ZM12.33 127.77 L0 127.77 C0.6 135.53 9.93 141.5 12.03 142.69
								 L12.63 142.99 L12.33 127.77 Z" class="st6"/>
				</g>
				<g id="shape2819-29" transform="translate(27.5194,-17.0079)">
					<title>path41</title>
					<path d="M0.6 131.36 C8.42 131.06 6.62 127.77 12.33 127.77 L12.33 142.99 L0 142.99 L0 132.1 C0 131.5 0.3 131.36
								 0.6 131.36 Z" class="st7"/>
				</g>
				<g id="shape2820-31" transform="translate(39.8505,-1.93949)">
					<title>path43</title>
					<path d="M12.63 127.48 L0 127.77 L0.3 142.99 L0.6 142.99 C2.71 141.5 11.73 135.23 12.63 127.48 Z" class="st7"/>
				</g>
			</g>
		</g>
	</g>
</svg>
