<?xml version="1.0" encoding="UTF-8" standalone="no"?>
<!DOCTYPE svg PUBLIC "-//W3C//DTD SVG 1.1//EN" "http://www.w3.org/Graphics/SVG/1.1/DTD/svg11.dtd">
<!-- Generated by Microsoft Visio, SVG Export Fusion Group.svg Page-1 -->
<svg xmlns="http://www.w3.org/2000/svg" xmlns:xlink="http://www.w3.org/1999/xlink" xmlns:ev="http://www.w3.org/2001/xml-events"
		width="1.5748in" height="1.70464in" viewBox="0 0 113.386 122.734" xml:space="preserve" color-interpolation-filters="sRGB"
		class="st3">
	<style type="text/css">
	<![CDATA[
		.st1 {fill:#ea7600;stroke:none;stroke-linecap:butt;stroke-width:12.75}
		.st2 {fill:#757676;stroke:none;stroke-linecap:butt;stroke-width:12.75}
		.st3 {fill:none;fill-rule:evenodd;font-size:12px;overflow:visible;stroke-linecap:square;stroke-miterlimit:3}
	]]>
	</style>

	<g>
		<title>Page-1</title>
		<g id="group2760-1" transform="translate(28.3465,-64.6299)">
			<title>Fusion Group</title>
			<g id="group2761-2">
				<title>Sheet.2761</title>
				<g id="group2762-3" transform="translate(5.7424,-11.7019)">
					<title>Sheet.2762</title>
					<g id="shape2763-4" transform="translate(30.1246,1.42109E-14)">
						<title>Sheet.2763</title>
						<path d="M3.59 101.06 L0 104.78 L5.27 110.2 L7.02 111.9 L5.27 113.59 L0 119.01 L3.59 122.73 L14.28 111.89
									 L3.59 101.06 Z" class="st1"/>
					</g>
					<g id="shape2764-6" transform="translate(0,-0.0815872)">
						<title>Sheet.2764</title>
						<path d="M33.23 112 L22.35 101.27 L16.61 106.93 L10.88 101.27 L0 112 L10.88 122.73 L16.62 117.07 L22.36 122.73
									 L33.23 112 Z" class="st1"/>
					</g>
				</g>
				<g id="shape2765-8">
					<title>Sheet.2765</title>
					<path d="M8.01 77.38 L0 85.35 L0 114.76 L8.01 122.73 L11.21 118.67 L4.23 111.71 L4.23 88.01 L11.21 81.05 L8.01
								 77.38 ZM48.69 77.38 L56.69 85.35 L56.69 114.76 L48.69 122.73 L45.48 118.67 L52.47 111.71 L52.47
								 88.01 L45.48 81.05 L48.69 77.38 Z" class="st2"/>
				</g>
			</g>
		</g>
	</g>
</svg>
