<?xml version="1.0" encoding="UTF-8" standalone="no"?>
<!DOCTYPE svg PUBLIC "-//W3C//DTD SVG 1.1//EN" "http://www.w3.org/Graphics/SVG/1.1/DTD/svg11.dtd">
<!-- Generated by Microsoft Visio, SVG Export GitHub.svg Page-1 -->
<svg xmlns="http://www.w3.org/2000/svg" xmlns:xlink="http://www.w3.org/1999/xlink" xmlns:ev="http://www.w3.org/2001/xml-events"
		width="1.5748in" height="1.72047in" viewBox="0 0 113.386 123.874" xml:space="preserve" color-interpolation-filters="sRGB"
		class="st2">
	<style type="text/css">
	<![CDATA[
		.st1 {fill:#1b1f23;stroke:none;stroke-linecap:butt;stroke-width:0.75}
		.st2 {fill:none;fill-rule:evenodd;font-size:12px;overflow:visible;stroke-linecap:square;stroke-miterlimit:3}
	]]>
	</style>

	<g>
		<title>Page-1</title>
		<g id="group2744-1" transform="translate(28.3465,-67.748)">
			<title>GitHub</title>
			<g id="group2745-2">
				<title>Page-1</title>
				<g id="group2746-3">
					<title>github-2</title>
					<g id="group2747-4">
						<title>Sheet.2747</title>
						<g id="shape2748-5">
							<title>Sheet.2748</title>
							<path d="M28.35 72.85 C12.68 72.85 0 84.51 0 98.9 C0 110.43 8.11 120.16 19.39 123.61 C20.8 123.85 21.32
										 123.06 21.32 122.37 C21.32 121.76 21.29 119.71 21.29 117.52 C14.17 118.72 12.33 115.93 11.76
										 114.47 C11.45 113.72 10.06 111.4 8.85 110.78 C7.86 110.3 6.44 109.08 8.82 109.06 C11.06
										 109.03 12.65 110.95 13.18 111.73 C15.73 115.67 19.81 114.55 21.43 113.87 C21.69 112.18 22.43
										 111.04 23.24 110.39 C16.93 109.74 10.35 107.49 10.35 97.54 C10.35 94.7 11.45 92.36 13.26
										 90.53 C12.96 89.88 11.97 87.21 13.53 83.63 C13.53 83.63 15.91 82.95 21.32 86.29 C23.59 85.71
										 26 85.43 28.41 85.43 C30.82 85.43 33.23 85.71 35.5 86.29 C40.93 82.91 43.29 83.63 43.29
										 83.63 C44.85 87.21 43.86 89.88 43.57 90.53 C45.39 92.36 46.49 94.67 46.49 97.54 C46.49 107.52
										 39.86 109.74 33.56 110.39 C34.58 111.21 35.46 112.78 35.46 115.21 C35.46 118.69 35.43 121.5
										 35.43 122.37 C35.43 123.06 35.97 123.87 37.39 123.61 C48.58 120.16 56.69 110.39 56.69 98.9
										 C56.69 84.51 44 72.85 28.35 72.85 Z" class="st1"/>
						</g>
					</g>
				</g>
			</g>
		</g>
	</g>
</svg>
