<?xml version="1.0" encoding="UTF-8" standalone="no"?>
<!DOCTYPE svg PUBLIC "-//W3C//DTD SVG 1.1//EN" "http://www.w3.org/Graphics/SVG/1.1/DTD/svg11.dtd">
<!-- Generated by Microsoft Visio, SVG Export Identity and Access.svg Page-1 -->
<svg xmlns="http://www.w3.org/2000/svg" xmlns:xlink="http://www.w3.org/1999/xlink" xmlns:ev="http://www.w3.org/2001/xml-events"
		width="1.51391in" height="2.20323in" viewBox="0 0 109.002 158.632" xml:space="preserve" color-interpolation-filters="sRGB"
		class="st7">
	<style type="text/css">
	<![CDATA[
		.st1 {fill:url(#grad0-6);stroke:none;stroke-linecap:butt;stroke-width:31.0734}
		.st2 {fill:#ffffff;fill-opacity:0.8;stroke:none;stroke-linecap:butt;stroke-width:31.0734}
		.st3 {fill:url(#grad0-12);stroke:none;stroke-linecap:butt;stroke-width:31.0734}
		.st4 {fill:#fbd118;stroke:none;stroke-linecap:butt;stroke-width:19.9105}
		.st5 {fill:#f78c1e;fill-opacity:0.4;stroke:none;stroke-linecap:butt;stroke-width:19.9105}
		.st6 {fill:#ffffff;fill-opacity:0.5;stroke:none;stroke-linecap:butt;stroke-width:19.9105}
		.st7 {fill:none;fill-rule:evenodd;font-size:12px;overflow:visible;stroke-linecap:square;stroke-miterlimit:3}
	]]>
	</style>

	<defs id="Patterns_And_Gradients">
		<linearGradient id="grad0-6" x1="0" y1="0" x2="1" y2="0" gradientTransform="rotate(90 0.5 0.5)">
			<stop offset="0.22" stop-color="#32d4f5" stop-opacity="1"/>
			<stop offset="1" stop-color="#198ab3" stop-opacity="1"/>
		</linearGradient>
		<linearGradient id="grad0-12" x1="0" y1="0" x2="1" y2="0" gradientTransform="rotate(85.405743437891 0.5 0.5)">
			<stop offset="0.22" stop-color="#32d4f5" stop-opacity="1"/>
			<stop offset="1" stop-color="#198ab3" stop-opacity="1"/>
		</linearGradient>
	</defs>
	<g>
		<title>Page-1</title>
		<g id="group2657-1" transform="translate(31.0976,-70.8661)">
			<title>Identity and Access</title>
			<g id="group2658-2" transform="translate(2.51799E-13,-3.6599)">
				<title>Icon-identity-230</title>
				<g id="shape2659-3">
					<title>path4</title>
					<path d="M42.65 158.63 A4.15374 4.2721 -180 0 0 46.81 154.36 A1.34639 1.38475 -180 0 0 46.81 153.86 C45.15 140.4
								 37.73 129.43 23.4 129.43 C9.08 129.43 1.46 138.72 0 153.89 A4.18239 4.30157 -180 0 0 3.75 158.63
								 L42.65 158.63 Z" class="st1"/>
				</g>
				<g id="shape2660-7" transform="translate(16.2999,-9.25131)">
					<title>path6-1</title>
					<path d="M7.1 141.87 A13.1487 13.5234 0 0 1 0 139.72 L7.1 158.63 L14.09 139.84 A12.9769 13.3466 0 0 1 7.1 141.87
								 Z" class="st2"/>
				</g>
				<g id="shape2661-9" transform="translate(10.3127,-26.0451)">
					<title>circle8</title>
					<ellipse cx="13.1201" cy="145.139" rx="13.1201" ry="13.494" class="st3"/>
				</g>
			</g>
			<g id="group2662-13" transform="translate(30.7409,2.84217E-13)">
				<title> Dashboard_Identityaccess-pathf</title>
				<g id="shape2663-14">
					<title>path8</title>
					<path d="M19.24 138.11 C19.88 137.41 20.28 136.47 20.28 135.43 C20.28 134.39 19.88 133.44 19.24 132.74 L19.24
								 132.75 L12.75 126.07 C12.07 125.41 11.15 125 10.14 125 C9.13 125 8.21 125.41 7.53 126.07 L7.53 126.07
								 L1.04 132.75 C0.4 133.44 0 134.39 0 135.43 C0 136.47 0.4 137.41 1.05 138.11 L1.04 138.11 L6.64 143.86
								 L6.64 155.1 L10.08 158.63 L13.01 155.61 L14.8 153.78 L12.94 151.96 L14.73 150.13 L13.07 148.44 L14.91
								 146.55 L13.13 144.72 L13.13 144.21 L19.24 138.11 ZM10.21 127.64 A2.1586 2.22011 0 1 1 8.05 129.94
								 L8.05 129.92 C8.05 128.68 9.01 127.68 10.2 127.64 L10.21 127.64 Z" class="st4"/>
				</g>
				<g id="shape2664-16" transform="translate(8.29849,-2.74871)">
					<title>path10</title>
					<path d="M0 157.33 L1.4 158.63 L1.4 147.91 L0 147.26 L0 157.33 Z" class="st5"/>
				</g>
				<g id="shape2665-18" transform="translate(3.84913,-19.7544)">
					<title>path12</title>
					<path d="M0 153.94 L12.2 153.94 L12.2 155.76 L0 155.76 L0 153.94 ZM0 156.81 L12.2 156.81 L12.2 158.63 L0 158.63
								 L0 156.81 Z" class="st6"/>
				</g>
			</g>
		</g>
	</g>
</svg>
