<?xml version="1.0" encoding="UTF-8" standalone="no"?>
<!DOCTYPE svg PUBLIC "-//W3C//DTD SVG 1.1//EN" "http://www.w3.org/Graphics/SVG/1.1/DTD/svg11.dtd">
<!-- Generated by Microsoft Visio, SVG Export Intune Tenant Status.svg Page-1 -->
<svg xmlns="http://www.w3.org/2000/svg" xmlns:xlink="http://www.w3.org/1999/xlink" xmlns:ev="http://www.w3.org/2001/xml-events"
		width="1.5748in" height="1.85039in" viewBox="0 0 113.386 133.228" xml:space="preserve" color-interpolation-filters="sRGB"
		class="st7">
	<style type="text/css">
	<![CDATA[
		.st1 {fill:url(#grad0-5);stroke:none;stroke-linecap:butt;stroke-width:0.75}
		.st2 {fill:#ffffff;fill-opacity:0.8;stroke:none;stroke-linecap:butt;stroke-width:0.75}
		.st3 {fill:url(#grad0-11);stroke:none;stroke-linecap:butt;stroke-width:0.75}
		.st4 {fill:#b31b1b;stroke:none;stroke-linecap:butt;stroke-width:0.75}
		.st5 {fill:#f2f2f2}
		.st6 {stroke:none;stroke-linecap:butt;stroke-width:0.75}
		.st7 {fill:none;fill-rule:evenodd;font-size:12px;overflow:visible;stroke-linecap:square;stroke-miterlimit:3}
	]]>
	</style>

	<defs id="Patterns_And_Gradients">
		<linearGradient id="grad0-5" x1="0" y1="0" x2="1" y2="0" gradientTransform="rotate(90 0.5 0.5)">
			<stop offset="0.22" stop-color="#32d4f5" stop-opacity="1"/>
			<stop offset="1" stop-color="#198ab3" stop-opacity="1"/>
		</linearGradient>
		<linearGradient id="grad0-11" x1="0" y1="0" x2="1" y2="0" gradientTransform="rotate(85.385943817791 0.5 0.5)">
			<stop offset="0.22" stop-color="#32d4f5" stop-opacity="1"/>
			<stop offset="1" stop-color="#198ab3" stop-opacity="1"/>
		</linearGradient>
	</defs>
	<g>
		<title>Page-1</title>
		<g id="group2483-1" transform="translate(28.3465,-70.8661)">
			<title>Intune Tenant Status</title>
			<g id="shape2484-2" transform="translate(0,-4.04472)">
				<title>Sheet.2484</title>
				<path d="M46.06 133.23 A4.5 4.24528 -180 0 0 50.63 129.05 A2.69291 2.54048 -180 0 0 50.63 128.55 C48.86 115.18 40.78
							 104.31 25.37 104.31 C9.96 104.31 1.56 113.44 0 128.52 A4.53543 4.27871 -180 0 0 4.04 133.19 L46.06 133.19
							 L46.06 133.23 Z" class="st1"/>
			</g>
			<g id="shape2485-6" transform="translate(17.7165,-13.2373)">
				<title>Sheet.2485</title>
				<path d="M7.62 116.58 A13.8898 13.1036 0 0 1 0 114.44 L7.55 133.23 L15.09 114.58 A14.1732 13.371 0 0 1 7.62 116.58
							 Z" class="st2"/>
			</g>
			<g id="shape2486-8" transform="translate(11.126,-29.8841)">
				<title>Sheet.2486</title>
				<ellipse cx="14.2087" cy="119.824" rx="14.2087" ry="13.4044" class="st3"/>
			</g>
			<g id="shape2487-12" transform="translate(31.8898,0)">
				<title>Sheet.2487</title>
				<path d="M18.81 111.03 A6.27165 5.91665 -180 0 0 12.4 114.98 A6.23622 5.88323 -180 0 0 5.99 111.03 C0.18 111.63 0
							 116.88 0 118.95 C0 120.43 0.35 125.11 12.33 133.23 C24.48 125.01 24.8 120.43 24.8 118.95 C24.8 116.88
							 24.8 111.63 18.81 111.03 Z" class="st4"/>
			</g>
			<g id="shape2488-14" transform="translate(33.7677,-5.44867)">
				<title>Sheet.2488</title>
				<path d="M22.93 123.77 L17.26 123.77 a0.389764 0.367702 -180 0 0 -0.389764 0.200565 L15.09 126.74 a0.248031 0.233992
							 0 0 1 -0.389764 1.42109E-14 L12.3 122.03 a0.46063 0.434557 -180 0 0 -0.850394 -1.42109E-14 L9.04 128.72
							 a0.212598 0.200565 0 0 1 -0.425197 0 L6.52 124.17 a0.46063 0.434557 -180 0 0 -0.814961 0 L2.94 128.92
							 a0.389764 0.367702 0 0 1 -0.389764 0.200565 L0 129.12 A16.2992 15.3766 -180 0 0 1.31 130.82 L3.61 130.82
							 a0.389764 0.367702 -180 0 0 0.389764 -0.233992 L5.95 127.24 L8.57 132.96 a0.46063 0.434557 -180 0 0
							 0.850394 0 L12.15 125.34 L14.53 129.62 a0.496063 0.467984 -180 0 0 0.814961 -2.84217E-14 L17.96 125.41
							 a0.531496 0.501411 0 0 1 0.389764 -0.233992 L22.93 125.17 L22.93 123.77 Z" class="st5"/>
				<path d="M22.93 123.77 L17.26 123.77 a0.389764 0.367702 -180 0 0 -0.389764 0.200565 L15.09 126.74 a0.248031 0.233992
							 0 0 1 -0.389764 1.42109E-14 L12.3 122.03 a0.46063 0.434557 -180 0 0 -0.850394 -1.42109E-14 L9.04 128.72
							 a0.212598 0.200565 0 0 1 -0.425197 0 L6.52 124.17 a0.46063 0.434557 -180 0 0 -0.814961 0 L2.94 128.92
							 a0.389764 0.367702 0 0 1 -0.389764 0.200565 L0 129.12 A16.2992 15.3766 -180 0 0 1.31 130.82 L3.61 130.82
							 a0.389764 0.367702 -180 0 0 0.389764 -0.233992 L5.95 127.24 L8.57 132.96 a0.46063 0.434557 -180 0 0
							 0.850394 0 L12.15 125.34 L14.53 129.62 a0.496063 0.467984 -180 0 0 0.814961 -2.84217E-14 L17.96 125.41
							 a0.531496 0.501411 0 0 1 0.389764 -0.233992 L22.93 125.17" class="st6"/>
			</g>
		</g>
	</g>
</svg>
