<?xml version="1.0" encoding="UTF-8" standalone="no"?>
<!DOCTYPE svg PUBLIC "-//W3C//DTD SVG 1.1//EN" "http://www.w3.org/Graphics/SVG/1.1/DTD/svg11.dtd">
<!-- Generated by Microsoft Visio, SVG Export Intune Security Baseline.svg Page-1 -->
<svg xmlns="http://www.w3.org/2000/svg" xmlns:xlink="http://www.w3.org/1999/xlink" xmlns:ev="http://www.w3.org/2001/xml-events"
		width="1.5748in" height="1.85039in" viewBox="0 0 113.386 133.228" xml:space="preserve" color-interpolation-filters="sRGB"
		class="st5">
	<style type="text/css">
	<![CDATA[
		.st1 {fill:#86d633;stroke:none;stroke-linecap:butt;stroke-width:0.75}
		.st2 {fill:url(#grad0-7);stroke:none;stroke-linecap:butt;stroke-width:0.75}
		.st3 {fill:#9cebff;stroke:none;stroke-linecap:butt;stroke-width:0.75}
		.st4 {fill:#0078d4;stroke:none;stroke-linecap:butt;stroke-width:0.75}
		.st5 {fill:none;fill-rule:evenodd;font-size:12px;overflow:visible;stroke-linecap:square;stroke-miterlimit:3}
	]]>
	</style>

	<defs id="Patterns_And_Gradients">
		<linearGradient id="grad0-7" x1="0" y1="0" x2="1" y2="0" gradientTransform="rotate(-124.76538136097 0.5 0.5)">
			<stop offset="0" stop-color="#5e9624" stop-opacity="1"/>
			<stop offset="0.26" stop-color="#70a828" stop-opacity="1"/>
			<stop offset="0.79" stop-color="#9fd732" stop-opacity="1"/>
			<stop offset="1" stop-color="#b4ec36" stop-opacity="1"/>
		</linearGradient>
	</defs>
	<g>
		<title>Page-1</title>
		<g id="group2496-1" transform="translate(28.3465,-70.8661)">
			<title>Intune Security Baseline</title>
			<g id="shape2497-2" transform="translate(0,-9.40651)">
				<title>Sheet.2497</title>
				<path d="M39.7 108.02 C39.7 120.72 23.91 130.96 20.49 133.03 A1.1755 1.16721 0 0 1 19.18 133.03 C15.75 130.96 0 120.72
							 0 108.02 L0 92.71 A1.24268 1.2339 0 0 1 1.21 91.51 C13.47 91.18 10.65 85.94 19.85 85.94 C29.05 85.94
							 26.2 91.18 38.42 91.51 A1.27626 1.26725 0 0 1 39.66 92.71 L39.7 108.02 Z" class="st1"/>
			</g>
			<g id="shape2498-4" transform="translate(1.64571,-11.3605)">
				<title>Sheet.2498</title>
				<path d="M36.41 110.11 C36.41 121.78 21.93 131.15 18.81 133.05 A1.10833 1.10051 0 0 1 17.6 133.05 C14.44 131.15 0
							 121.78 0 110.11 L0 96.23 A1.10833 1.10051 0 0 1 1.11 95.13 C12.36 94.67 9.91 89.86 18.2 89.86 C26.5
							 89.86 24.05 94.67 35.27 94.97 A1.14192 1.13386 0 0 1 36.41 96.07 L36.41 110.11 Z" class="st2"/>
			</g>
			<g id="shape2499-8" transform="translate(18.002,0)">
				<title>Sheet.2499</title>
				<path d="M1.24 103.71 L37.45 103.71 A1.1755 1.16721 0 0 1 38.69 104.82 L38.69 132.13 A1.1755 1.16721 0 0 1 37.45
							 133.23 L1.24 133.23 A1.20909 1.20056 0 0 1 0 132.13 L0 104.88 A1.20909 1.20056 0 0 1 1.24 103.71 Z"
						class="st3"/>
			</g>
			<g id="shape2500-10" transform="translate(18.002,-24.3446)">
				<title>Sheet.2500</title>
				<path d="M1.18 128.06 L37.52 128.06 A1.10833 1.10051 0 0 1 38.69 129.09 L38.69 133.23 L0 133.23 L0 129.23 A1.10833
							 1.10051 0 0 1 1.18 128.19 L1.18 128.06 Z" class="st4"/>
			</g>
			<g id="shape2501-12" transform="translate(26.6,-11.1385)">
				<title>Sheet.2501</title>
				<path d="M24.82 130.73 L0.94 130.73 C0.4 130.73 0 130.99 0 131.26 L0 132.69 C0 132.99 0.4 133.23 0.94 133.23 L24.82
							 133.23 C25.36 133.23 25.79 132.99 25.79 132.69 L25.79 131.36 C25.79 130.99 25.26 130.73 24.82 130.73
							 Z" class="st4"/>
			</g>
			<g id="shape2502-14" transform="translate(26.6,-17.2747)">
				<title>Sheet.2502</title>
				<path d="M24.82 130.86 L0.94 130.86 C0.4 130.86 0 131.09 0 131.39 L0 132.69 C0 132.99 0.4 133.23 0.94 133.23 L24.82
							 133.23 C25.36 133.23 25.79 132.99 25.79 132.69 L25.79 131.39 C25.79 131.09 25.26 130.86 24.82 130.86
							 Z" class="st4"/>
			</g>
			<g id="shape2503-16" transform="translate(26.6,-4.46874)">
				<title>Sheet.2503</title>
				<path d="M24.82 130.83 L0.94 130.83 C0.4 130.83 0 131.06 0 131.36 L0 132.69 C0 132.99 0.4 133.23 0.94 133.23 L24.82
							 133.23 C25.36 133.23 25.79 132.99 25.79 132.69 L25.79 131.36 C25.79 131.06 25.26 130.83 24.82 130.83
							 Z" class="st4"/>
			</g>
			<g id="shape2504-18" transform="translate(21.0583,-16.9078)">
				<title>Sheet.2504</title>
				<ellipse cx="1.57853" cy="131.661" rx="1.57853" ry="1.56739" class="st4"/>
			</g>
			<g id="shape2505-20" transform="translate(21.0583,-10.8717)">
				<title>Sheet.2505</title>
				<ellipse cx="1.57853" cy="131.661" rx="1.57853" ry="1.56739" class="st4"/>
			</g>
			<g id="shape2506-22" transform="translate(21.0583,-4.1019)">
				<title>Sheet.2506</title>
				<ellipse cx="1.57853" cy="131.661" rx="1.57853" ry="1.56739" class="st4"/>
			</g>
		</g>
	</g>
</svg>
