<?xml version="1.0" encoding="UTF-8" standalone="no"?>
<!DOCTYPE svg PUBLIC "-//W3C//DTD SVG 1.1//EN" "http://www.w3.org/Graphics/SVG/1.1/DTD/svg11.dtd">
<!-- Generated by Microsoft Visio, SVG Export Intune Managed Desktop.svg Page-1 -->
<svg xmlns="http://www.w3.org/2000/svg" xmlns:xlink="http://www.w3.org/1999/xlink" xmlns:ev="http://www.w3.org/2001/xml-events"
		width="1.5748in" height="1.65551in" viewBox="0 0 113.386 119.197" xml:space="preserve" color-interpolation-filters="sRGB"
		class="st6">
	<style type="text/css">
	<![CDATA[
		.st1 {fill:url(#grad0-5);stroke:none;stroke-linecap:butt;stroke-width:0.75}
		.st2 {fill:#ffffff;stroke:none;stroke-linecap:butt;stroke-width:0.75}
		.st3 {fill:url(#grad0-11);stroke:none;stroke-linecap:butt;stroke-width:0.75}
		.st4 {fill:#86d633;stroke:none;stroke-linecap:butt;stroke-width:0.75}
		.st5 {fill:#5e9624;stroke:none;stroke-linecap:butt;stroke-width:0.75}
		.st6 {fill:none;fill-rule:evenodd;font-size:12px;overflow:visible;stroke-linecap:square;stroke-miterlimit:3}
	]]>
	</style>

	<defs id="Patterns_And_Gradients">
		<linearGradient id="grad0-5" x1="0" y1="0" x2="1" y2="0" gradientTransform="rotate(-90 0.5 0.5)">
			<stop offset="0" stop-color="#0078d4" stop-opacity="1"/>
			<stop offset="0.82" stop-color="#5ea0ef" stop-opacity="1"/>
		</linearGradient>
		<linearGradient id="grad0-11" x1="0" y1="0" x2="1" y2="0" gradientTransform="rotate(-90 0.5 0.5)">
			<stop offset="0" stop-color="#1490df" stop-opacity="1"/>
			<stop offset="0.98" stop-color="#1f56a3" stop-opacity="1"/>
		</linearGradient>
	</defs>
	<g>
		<title>Page-1</title>
		<g id="group2507-1" transform="translate(28.3465,-66.189)">
			<title>Intune Managed Desktop</title>
			<g id="shape2508-2" transform="translate(0,-15.2017)">
				<title>Sheet.2508</title>
				<path d="M0 117.55 A1.6224 1.6494 -180 0 0 1.62 119.2 L47.05 119.2 A1.6224 1.6494 -180 0 0 48.67 117.55 L48.67 87.86
							 A1.6224 1.6494 -180 0 0 47.05 86.21 L1.62 86.21 A1.6224 1.6494 -180 0 0 0 87.86 L0 117.55 Z"
						class="st1"/>
			</g>
			<g id="shape2509-6" transform="translate(2.70394,-17.9506)">
				<title>Sheet.2509</title>
				<path d="M-0 118.29 a0.892322 0.907172 -180 0 0 0.892301 0.907151 L42.37 119.2 a0.892322 0.907172 -180 0 0 0.892301
							 -0.907151 L43.26 92.61 a0.892322 0.907172 -180 0 0 -0.892301 -0.907151 L0.89 91.71 a0.892322 0.907172
							 -180 0 0 -0.892301 0.907151 L0 118.29 Z" class="st2"/>
			</g>
			<g id="shape2510-8" transform="translate(12.1677,-2.47405)">
				<title>Sheet.2510</title>
				<path d="M21.93 116.45 C17.12 115.68 16.93 112.16 16.95 106.47 L7.38 106.47 C7.38 112.16 7.22 115.68 2.41 116.45
							 A2.83914 2.88639 -180 0 0 -0 119.2 L24.34 119.2 A2.83914 2.88639 -180 0 0 21.93 116.45 Z" class="st3"/>
			</g>
			<g id="shape2511-12" transform="translate(110.506,158.369) rotate(135)">
				<title>Sheet.2511</title>
				<path d="M16.22 107.27 L18.79 107.27 a0.784144 0.797194 0 0 1 0.784144 0.797194 L19.58 118.4 a0.784144 0.797194 0
							 0 1 -0.784144 0.797194 L17.01 119.2 a0.784144 0.797194 0 0 1 -0.784144 -0.797194 L16.22 107.4 L16.22
							 107.27 Z" class="st4"/>
			</g>
			<g id="shape2512-14" transform="translate(-27.4202,182.313) rotate(-135)">
				<title>Sheet.2512</title>
				<path d="M27.34 94.68 L29.91 94.68 L29.91 118.4 a0.784144 0.797194 0 0 1 -0.784144 0.797194 L27.36 119.2 a0.784144
							 0.797194 0 0 1 -0.784144 -0.797194 L26.58 95.47 a0.784144 0.797194 0 0 1 0.784144 -0.797194 L27.34 94.68
							 Z" class="st5"/>
			</g>
		</g>
	</g>
</svg>
