<?xml version="1.0" encoding="UTF-8" standalone="no"?>
<!DOCTYPE svg PUBLIC "-//W3C//DTD SVG 1.1//EN" "http://www.w3.org/Graphics/SVG/1.1/DTD/svg11.dtd">
<!-- Generated by Microsoft Visio, SVG Export IoT Digital Twin.svg Page-1 -->
<svg xmlns="http://www.w3.org/2000/svg" xmlns:xlink="http://www.w3.org/1999/xlink" xmlns:ev="http://www.w3.org/2001/xml-events"
		width="1.73185in" height="2.24388in" viewBox="0 0 124.693 161.559" xml:space="preserve" color-interpolation-filters="sRGB"
		class="st5">
	<style type="text/css">
	<![CDATA[
		.st1 {fill:url(#grad0-6);stroke:none;stroke-linecap:butt;stroke-width:34}
		.st2 {fill:url(#grad0-10);stroke:none;stroke-linecap:butt;stroke-width:34}
		.st3 {fill:url(#grad0-14);stroke:none;stroke-linecap:butt;stroke-width:34}
		.st4 {fill:#ffffff;stroke:none;stroke-linecap:butt;stroke-width:34}
		.st5 {fill:none;fill-rule:evenodd;font-size:12px;overflow:visible;stroke-linecap:square;stroke-miterlimit:3}
	]]>
	</style>

	<defs id="Patterns_And_Gradients">
		<linearGradient id="grad0-6" x1="0" y1="0" x2="1" y2="0" gradientTransform="rotate(99.053847107295 0.5 0.5)">
			<stop offset="0" stop-color="#a67af4" stop-opacity="1"/>
			<stop offset="1" stop-color="#773adc" stop-opacity="1"/>
		</linearGradient>
		<linearGradient id="grad0-10" x1="0" y1="0" x2="1" y2="0" gradientTransform="rotate(71.098329049756 0.5 0.5)">
			<stop offset="0" stop-color="#50e6ff" stop-opacity="1"/>
			<stop offset="0.995" stop-color="#32bedd" stop-opacity="1"/>
		</linearGradient>
		<linearGradient id="grad0-14" x1="0" y1="0" x2="1" y2="0" gradientTransform="rotate(29.36783521474 0.5 0.5)">
			<stop offset="0" stop-color="#ffffff" stop-opacity="1"/>
			<stop offset="1" stop-color="#9cebff" stop-opacity="1"/>
		</linearGradient>
	</defs>
	<g>
		<title>Page-1</title>
		<g id="group2441-1" transform="translate(34,-70.8661)">
			<title>IoT Digital Twin</title>
			<g id="group2442-2">
				<title>Sheet.2442</title>
				<g id="shape2443-3" transform="translate(-2.79776E-13,-2.38099)">
					<title>Sheet.2443</title>
					<path d="M45.63 117.8 L29.08 108.35 A8.35978 8.26413 -180 0 0 20.73 108.35 L4.18 117.8 A8.36296 8.26728 -180
								 0 0 0 124.95 L0 143.85 A8.36296 8.26728 -180 0 0 4.18 151.01 L20.74 160.45 A8.35978 8.26413 -180
								 0 0 29.1 160.45 L45.66 151.01 A8.36296 8.26728 -180 0 0 49.84 143.85 L49.84 124.95 A8.36296 8.26728
								 -180 0 0 45.63 117.8 Z" class="st1"/>
				</g>
				<g id="shape2444-7" transform="translate(19.9819,0)">
					<title>Sheet.2444</title>
					<path d="M33.34 129.26 L21.7 122.61 A6.71904 6.64217 -180 0 0 14.99 122.61 L3.35 129.26 A6.69037 6.61383 -180
								 0 0 -0 135 L0 148.28 A6.70948 6.63272 -180 0 0 3.35 154.03 L14.99 160.67 A6.71904 6.64217 -180 0
								 0 21.7 160.67 L33.34 154.03 A6.71586 6.63902 -180 0 0 36.71 148.28 L36.71 135 A6.71267 6.63587 -180
								 0 0 33.34 129.26 Z" class="st2"/>
				</g>
				<g id="shape2445-11" transform="translate(8.69748,-18.4934)">
					<title>Sheet.2445</title>
					<path d="M15.11 132.69 L18.46 130.86 L32.83 160.3 L31.66 161.56 L0 161.56 L0.36 157.79 L27.06 157.79 L15.11 132.69
								 Z" class="st3"/>
				</g>
				<g id="shape2446-15" transform="translate(3.5905,-15.4794)">
					<title>Sheet.2446</title>
					<ellipse cx="4.77884" cy="156.835" rx="4.77884" ry="4.72416" class="st4"/>
				</g>
				<g id="shape2447-17" transform="translate(30.8617,-12.5347)">
					<title>Sheet.2447</title>
					<ellipse cx="7.46773" cy="154.177" rx="7.46773" ry="7.38229" class="st4"/>
				</g>
				<g id="shape2448-19" transform="translate(20.5044,-43.9094)">
					<title>Sheet.2448</title>
					<ellipse cx="4.77884" cy="156.835" rx="4.77884" ry="4.72416" class="st4"/>
				</g>
			</g>
		</g>
	</g>
</svg>
