<?xml version="1.0" encoding="UTF-8" standalone="no"?>
<!DOCTYPE svg PUBLIC "-//W3C//DTD SVG 1.1//EN" "http://www.w3.org/Graphics/SVG/1.1/DTD/svg11.dtd">
<!-- Generated by Microsoft Visio, SVG Export IoT Solution Accelerator.svg Page-1 -->
<svg xmlns="http://www.w3.org/2000/svg" xmlns:xlink="http://www.w3.org/1999/xlink" xmlns:ev="http://www.w3.org/2001/xml-events"
		width="1.41732in" height="1.93062in" viewBox="0 0 102.047 139.004" xml:space="preserve" color-interpolation-filters="sRGB"
		class="st7">
	<style type="text/css">
	<![CDATA[
		.st1 {fill:#2074bb;stroke:none;stroke-linecap:butt;stroke-width:11.4453}
		.st2 {fill:#ffffff;stroke:none;stroke-linecap:butt;stroke-width:11.4453}
		.st3 {fill:#c0dcef;stroke:none;stroke-linecap:butt;stroke-width:11.4453}
		.st4 {fill:#69abdb;stroke:none;stroke-linecap:butt;stroke-width:11.4453}
		.st5 {fill:#3b8fcd;stroke:none;stroke-linecap:butt;stroke-width:11.4453}
		.st6 {fill:#9bc7e6;stroke:none;stroke-linecap:butt;stroke-width:11.4453}
		.st7 {fill:none;fill-rule:evenodd;font-size:12px;overflow:visible;stroke-linecap:square;stroke-miterlimit:3}
	]]>
	</style>

	<g>
		<title>Page-1</title>
		<g id="group2396-1" transform="translate(25.5118,-70.8661)">
			<title>IoT Solution Accelerator</title>
			<g id="group2397-2">
				<title>layer1</title>
				<g id="shape2398-3" transform="translate(2.74169,-2.68913)">
					<title>path2</title>
					<path d="M22.78 139 a1.01844 0.999332 0 0 1 -0.507692 -0.133497 L0.51 126.54 a1.01539 0.996343 0 0 1 -0.50769
								 -0.862832 L0 101.02 a1.01539 0.996343 0 0 1 0.50769 -0.862832 L22.27 87.82 a1.01539 0.996343 0 0
								 1 1.01538 1.42109E-14 L45.05 100.15 a1.01539 0.996343 0 0 1 0.50769 0.862832 L45.56 125.68 a1.01539
								 0.996343 0 0 1 -0.50769 0.862832 L23.29 138.87 a1.01844 0.999332 0 0 1 -0.50769 0.133497 ZM2.03
								 125.1 L22.78 136.86 L43.53 125.1 L43.53 101.59 L22.78 89.84 L2.03 101.59 L2.03 125.1 Z"
							class="st1"/>
				</g>
				<g id="shape2399-5" transform="translate(21.7651,-49.322)">
					<title>circle4</title>
					<ellipse cx="3.75594" cy="135.319" rx="3.75594" ry="3.68547" class="st1"/>
				</g>
				<g id="shape2400-7" transform="translate(1.01918E-13,-36.9932)">
					<title>circle6</title>
					<ellipse cx="3.75594" cy="135.319" rx="3.75594" ry="3.68547" class="st1"/>
				</g>
				<g id="shape2401-9" transform="translate(43.5117,-36.9932)">
					<title>circle8</title>
					<ellipse cx="3.75594" cy="135.319" rx="3.75594" ry="3.68547" class="st1"/>
				</g>
				<g id="shape2402-11" transform="translate(43.5117,-12.3307)">
					<title>circle10</title>
					<ellipse cx="3.75594" cy="135.319" rx="3.75594" ry="3.68547" class="st1"/>
				</g>
				<g id="shape2403-13" transform="translate(1.01918E-13,-12.3307)">
					<title>circle12</title>
					<ellipse cx="3.75594" cy="135.319" rx="3.75594" ry="3.68547" class="st1"/>
				</g>
				<g id="shape2404-15" transform="translate(21.7712,0)">
					<title>circle14</title>
					<ellipse cx="3.75594" cy="135.319" rx="3.75594" ry="3.68547" class="st1"/>
				</g>
				<g id="shape2405-17" transform="translate(12.6042,-15.6804)">
					<title>circle16</title>
					<ellipse cx="12.9077" cy="126.339" rx="12.9077" ry="12.6655" class="st2"/>
				</g>
				<g id="shape2406-19" transform="translate(15.6661,-14.6851)">
					<title>path18</title>
					<path d="M9.84 139 A13.9231 13.6619 0 1 1 23.77 125.34 A13.9393 13.6778 0 0 1 9.84 139 ZM9.84 113.67 A11.8923
								 11.6692 -180 1 0 21.74 125.34 A11.9065 11.6831 -180 0 0 9.84 113.67 Z" class="st1"/>
				</g>
				<g id="shape2407-21" transform="translate(2.78635,-2.68913)">
					<title>path20</title>
					<path d="M11.64 107.85 a1.01032 0.991361 0 0 1 -0.49349 -0.125549 L0.47 101.89 a1.01573 0.996672 0 0 1 0.990013
								 -1.74061 L12.14 105.98 a1.01539 0.996343 0 0 1 -0.49656 1.86615 L11.64 107.85 ZM22.73 101.68 a1.01539
								 0.996343 0 0 1 -1.01542 -0.996342 L21.72 88.69 a1.0154 0.996349 0 0 1 2.0308 0 L23.75 100.68 a1.01539
								 0.996343 0 0 1 -1.01538 0.996342 L22.73 101.68 ZM34.03 107.68 a1.01539 0.996343 0 0 1 -0.491457
								 -1.86914 L44.01 100.14 a1.01553 0.99648 0 1 1 0.981877 1.7446 L34.52 107.56 a1.01235 0.993354 0
								 0 1 -0.490458 0.124532 L34.03 107.68 ZM44.5 126.67 a1.00727 0.988372 0 0 1 -0.551362 -0.159402 L33.66
								 119.96 a1.01539 0.996343 0 0 1 1.10472 -1.67186 L45.05 124.84 a1.01539 0.996343 0 0 1 -0.553399
								 1.83327 ZM22.73 139 a1.01539 0.996343 0 0 1 -1.01542 -0.996346 L21.72 126.36 a1.0154 0.996349 0
								 0 1 2.0308 0 L23.75 138.01 a1.01539 0.996343 0 0 1 -1.01538 0.996346 ZM0.97 126.67 a1.01539 0.996343
								 0 0 1 -0.574735 -1.81832 L10.53 118.05 a1.01539 0.996343 0 1 1 1.1464 1.64396 L1.54 126.5 a1.00829
								 0.989369 0 0 1 -0.571664 0.174354 L0.97 126.67 ZM22.72 114.34 a1.01539 0.996343 0 0 1 -1.06581E-14
								 -1.99269 L31.55 112.35 a1.01539 0.996343 0 0 1 0 1.99269 L22.72 114.34 Z" class="st1"/>
				</g>
				<g id="shape2408-23" transform="translate(23.9867,-26.8654)">
					<title>circle22</title>
					<ellipse cx="1.50887" cy="137.524" rx="1.50887" ry="1.48057" class="st1"/>
				</g>
				<g id="shape2409-25" transform="translate(16.9338,-22.6379)">
					<title>path24</title>
					<path d="M0 133.78 A8.60241 8.44102 -180 0 0 2.5 139 L4.82 136.72 A5.45571 5.35335 0 0 1 3.2 133.78 L0 133.78
								 Z" class="st3"/>
				</g>
				<g id="shape2410-27" transform="translate(19.4114,-32.5107)">
					<title>path26</title>
					<path d="M5.61 134.43 A8.60038 8.43903 -180 0 0 0 136.9 L2.15 139 A5.44759 5.34538 0 0 1 5.61 137.37 L5.61 134.43
								 Z" class="st4"/>
				</g>
				<g id="shape2411-29" transform="translate(26.0348,-32.5107)">
					<title>path28</title>
					<path d="M5.61 136.9 A8.60038 8.43903 -180 0 0 0 134.43 L0 137.37 A5.44759 5.34538 0 0 1 3.46 139 L5.61 136.9
								 Z" class="st5"/>
				</g>
				<g id="shape2412-31" transform="translate(16.9054,-28.8601)">
					<title>path30</title>
					<path d="M1.84 134 A8.58312 8.42209 -180 0 0 0 139 L3.14 139 A5.44759 5.34538 0 0 1 4.02 136.14 L1.84 134 Z"
							class="st6"/>
				</g>
				<g id="shape2413-33" transform="translate(30.1309,-30.4642)">
					<title>path32</title>
					<path d="M3.81 139 A8.58008 8.4191 -180 0 0 2.18 135.6 L0 137.74 A5.50953 5.40616 0 0 1 0.61 139 L3.81 139 Z"
							class="st1"/>
				</g>
			</g>
		</g>
	</g>
</svg>
