<?xml version="1.0" encoding="UTF-8" standalone="no"?>
<!DOCTYPE svg PUBLIC "-//W3C//DTD SVG 1.1//EN" "http://www.w3.org/Graphics/SVG/1.1/DTD/svg11.dtd">
<!-- Generated by Microsoft Visio, SVG Export Java.svg Page-1 -->
<svg xmlns="http://www.w3.org/2000/svg" xmlns:xlink="http://www.w3.org/1999/xlink" xmlns:ev="http://www.w3.org/2001/xml-events"
		width="1.41732in" height="1.9437in" viewBox="0 0 102.047 139.947" xml:space="preserve" color-interpolation-filters="sRGB"
		class="st5">
	<style type="text/css">
	<![CDATA[
		.st1 {fill:#5382a1}
		.st2 {stroke:none;stroke-linecap:butt;stroke-width:12.3877}
		.st3 {fill:#e76f00}
		.st4 {fill:#5382a1;stroke:none;stroke-linecap:butt;stroke-width:12.3877}
		.st5 {fill:none;fill-rule:evenodd;font-size:12px;overflow:visible;stroke-linecap:square;stroke-miterlimit:3}
	]]>
	</style>

	<g>
		<title>Page-1</title>
		<g id="group2353-1" transform="translate(25.5118,-70.8661)">
			<title>Java</title>
			<g id="group2354-2">
				<title>layer1</title>
				<g id="shape2355-3" transform="translate(7.75501,-5.81745)">
					<title>path6</title>
					<path d="M10.66 132.55 C10.66 132.55 8.55 133.8 12.16 134.22 A31.5607 32.1675 -180 0 0 23.58 133.72 A19.8706
								 20.2526 -180 0 0 26.62 135.23 C15.82 139.95 2.18 134.96 10.66 132.52 L10.66 132.55 ZM9.34 126.4
								 C9.34 126.4 6.98 128.2 10.59 128.56 A44.5537 45.4103 -180 0 0 25.33 127.84 A6.54081 6.66657 -180
								 0 0 27.59 129.29 C14.54 133.14 0 129.56 9.34 126.4 Z" class="st1"/>
					<path d="M10.66 132.55 C10.66 132.55 8.55 133.8 12.16 134.22 A31.5607 32.1675 -180 0 0 23.58 133.72 A19.8706
								 20.2526 -180 0 0 26.62 135.23 C15.82 139.95 2.18 134.96 10.66 132.52M9.34 126.4 C9.34 126.4 6.98
								 128.2 10.59 128.56 A44.5537 45.4103 -180 0 0 25.33 127.84 A6.54081 6.66657 -180 0 0 27.59 129.29
								 C14.54 133.14 0 129.56 9.34 126.4" class="st2"/>
				</g>
				<g id="shape2356-6" transform="translate(19.197,-23.875)">
					<title>path8</title>
					<path d="M9.02 134.01 C11.68 137.14 8.32 139.95 8.32 139.95 C8.32 139.95 15.08 136.4 11.97 131.94 C9.08 127.79
								 6.85 125.73 18.89 118.62 C18.89 118.62 0 123.42 9.02 133.98 L9.02 134.01 Z" class="st3"/>
					<path d="M9.02 134.01 C11.68 137.14 8.32 139.95 8.32 139.95 C8.32 139.95 15.08 136.4 11.97 131.94 C9.08 127.79
								 6.85 125.73 18.89 118.62 C18.89 118.62 0 123.42 9.02 133.98" class="st2"/>
				</g>
				<g id="shape2357-9" transform="translate(0,-0.794851)">
					<title>path10</title>
					<path d="M42.5 132.08 C42.5 132.08 44.06 133.39 40.81 134.4 C34.61 136.32 14.87 136.9 9.39 134.47 C7.43 133.57
								 11.11 132.39 12.28 132.13 A7.48914 7.63313 0 0 1 14.18 131.92 C11.99 130.34 0 135.01 8.11 136.33
								 C30.12 139.95 48.24 134.7 42.53 132.07 L42.5 132.08 ZM19.43 115 C19.43 115 9.4 117.43 15.88 118.3
								 A75.3345 76.7829 -180 0 0 29.18 118.16 C33.32 117.81 37.49 117.05 37.49 117.05 A17.6017 17.9401
								 -180 0 0 34.97 118.42 C24.79 121.13 5.13 119.88 10.79 117.09 A18.9666 19.3312 0 0 1 19.46 115 L19.43
								 115 ZM37.41 125.24 C47.76 119.75 42.98 114.49 39.63 115.23 A7.74616 7.89509 -180 0 0 38.45 115.56
								 A1.88779 1.92409 0 0 1 39.33 114.86 C45.94 112.49 51.02 121.84 37.2 125.55 a0.886289 0.903329 -180
								 0 0 0.204 -0.27996 L37.41 125.24 Z" class="st1"/>
					<path d="M42.5 132.08 C42.5 132.08 44.06 133.39 40.81 134.4 C34.61 136.32 14.87 136.9 9.39 134.47 C7.43 133.57
								 11.11 132.39 12.28 132.13 A7.48914 7.63313 0 0 1 14.18 131.92 C11.99 130.34 0 135.01 8.11 136.33
								 C30.12 139.95 48.24 134.7 42.53 132.07M19.43 115 C19.43 115 9.4 117.43 15.88 118.3 A75.3345 76.7829
								 -180 0 0 29.18 118.16 C33.32 117.81 37.49 117.05 37.49 117.05 A17.6017 17.9401 -180 0 0 34.97 118.42
								 C24.79 121.13 5.13 119.88 10.79 117.09 A18.9666 19.3312 0 0 1 19.46 115M37.41 125.24 C47.76 119.75
								 42.98 114.49 39.63 115.23 A7.74616 7.89509 -180 0 0 38.45 115.56 A1.88779 1.92409 0 0 1 39.33 114.86
								 C45.94 112.49 51.02 121.84 37.2 125.55 a0.886289 0.903329 -180 0 0 0.204 -0.27996" class="st2"/>
				</g>
				<g id="shape2358-12" transform="translate(16.68,-25.8442)">
					<title>path12</title>
					<path d="M14.49 109.1 C14.49 109.1 20.23 114.99 9.07 123.93 C0.12 131.16 7.03 135.25 9.07 139.95 C3.84 135.14
								 0 130.91 2.58 126.97 C6.35 121.19 16.82 118.39 14.51 109.11 L14.49 109.1 Z" class="st3"/>
					<path d="M14.49 109.1 C14.49 109.1 20.23 114.99 9.07 123.93 C0.12 131.16 7.03 135.25 9.07 139.95 C3.84 135.14
								 0 130.91 2.58 126.97 C6.35 121.19 16.82 118.39 14.51 109.11" class="st2"/>
				</g>
				<g id="shape2359-15" transform="translate(12.6385,5.68434E-14)">
					<title>path14</title>
					<path d="M7.79 139.3 C17.73 139.95 32.98 138.93 33.34 134.15 C33.34 134.15 32.65 135.95 25.14 137.41 A81.6715
								 83.2417 0 0 1 0 137.81 C0 137.81 1.28 138.83 7.79 139.3 Z" class="st4"/>
				</g>
			</g>
		</g>
	</g>
</svg>
