<?xml version="1.0" encoding="UTF-8" standalone="no"?>
<!DOCTYPE svg PUBLIC "-//W3C//DTD SVG 1.1//EN" "http://www.w3.org/Graphics/SVG/1.1/DTD/svg11.dtd">
<!-- Generated by Microsoft Visio, SVG Export Jenkins.svg Page-1 -->
<svg xmlns="http://www.w3.org/2000/svg" xmlns:xlink="http://www.w3.org/1999/xlink" xmlns:ev="http://www.w3.org/2001/xml-events"
		width="1.02362in" height="1.85039in" viewBox="0 0 73.7008 133.228" xml:space="preserve" color-interpolation-filters="sRGB"
		class="st21">
	<style type="text/css">
	<![CDATA[
		.st1 {fill:#f0d6b7;stroke:none;stroke-width:1}
		.st2 {fill:none}
		.st3 {stroke:none;stroke-linecap:butt;stroke-width:0.75}
		.st4 {fill:#335061;stroke:none;stroke-linecap:butt;stroke-width:0.75}
		.st5 {fill:#6d6b6d;stroke:none;stroke-width:1}
		.st6 {fill:none;stroke:none;stroke-linecap:butt;stroke-width:0.75}
		.st7 {fill:#dcd9d8;stroke:none;stroke-linecap:butt;stroke-width:0.75}
		.st8 {fill:#f7e4cd;stroke:none;stroke-width:1}
		.st9 {fill:#f7e4cd;stroke:none;stroke-linecap:butt;stroke-width:0.75}
		.st10 {fill:#49728b;stroke:none;stroke-width:1}
		.st11 {fill:#335061;stroke:none;stroke-width:1}
		.st12 {fill:#ffffff;stroke:none;stroke-width:1}
		.st13 {fill:#dcd9d8;stroke:none;stroke-width:1}
		.st14 {fill:#ffffff;stroke:none;stroke-linecap:butt;stroke-width:0.75}
		.st15 {fill:#d33833;stroke:none;stroke-linecap:butt;stroke-width:0.75}
		.st16 {fill:none;stroke:#d33833;stroke-linecap:butt;stroke-width:1.875}
		.st17 {fill:#ef3d3a;stroke:none;stroke-width:1}
		.st18 {fill:#231f20;stroke:none;stroke-width:1}
		.st19 {fill:#81b0c4;stroke:none;stroke-width:1}
		.st20 {fill:#81b0c4;stroke:none;stroke-linecap:butt;stroke-width:0.75}
		.st21 {fill:none;fill-rule:evenodd;font-size:12px;overflow:visible;stroke-linecap:square;stroke-miterlimit:3}
	]]>
	</style>

	<g>
		<title>Page-1</title>
		<g id="group2264-1" transform="translate(18.4252,-70.8661)">
			<title>Jenkins</title>
			<g id="group2265-2">
				<title>Page-1</title>
				<g id="group2266-3">
					<title>Jenkins</title>
					<g id="group2267-4" transform="translate(3.4538,-27.798)">
						<title>Sheet.2267</title>
						<g id="shape2268-5">
							<title>Sheet.2268</title>
							<path d="M21.5 132.27 L18.45 132.71 L14.33 133.15 L11.66 133.23 L9.07 133.15 L7.08 132.56 L5.33 130.71
										 L3.96 126.95 L3.65 126.13 L1.83 125.54 L0.76 123.84 L0 121.4 L0.84 119.26 L2.81 118.59 L4.42
										 119.33 L5.18 120.96 L6.1 120.81 L6.4 120.45 L6.1 118.74 L6.02 116.6 L6.48 113.65 L6.46 111.95
										 L7.85 109.8 L10.29 108.1 L14.56 106.32 L19.29 106.99 L23.4 109.88 L25.3 112.83 L26.52 114.98
										 L26.83 120.3 L25.91 124.87 L24.24 128.94 L22.63 131.08 L21.5 132.27 Z" class="st1"/>
						</g>
						<g id="shape2269-7">
							<title>Sheet.2269</title>
							<path d="M21.5 132.27 L18.45 132.71 L14.33 133.15 L11.66 133.23 L9.07 133.15 L7.08 132.56 L5.33 130.71
										 L3.96 126.95 L3.65 126.13 L1.83 125.54 L0.76 123.84 L0 121.4 L0.84 119.26 L2.81 118.59 L4.42
										 119.33 L5.18 120.96 L6.1 120.81 L6.4 120.45 L6.1 118.74 L6.02 116.6 L6.48 113.65 L6.46 111.95
										 L7.85 109.8 L10.29 108.1 L14.56 106.32 L19.29 106.99 L23.4 109.88 L25.3 112.83 L26.52 114.98
										 L26.83 120.3 L25.91 124.87 L24.24 128.94 L22.63 131.08 L21.5 132.27 Z" class="st2"/>
							<path d="M21.5 132.27 L18.45 132.71 L14.33 133.15 L11.66 133.23 L9.07 133.15 L7.08 132.56 L5.33 130.71
										 L3.96 126.95 L3.65 126.13 L1.83 125.54 L0.76 123.84 L0 121.4 L0.84 119.26 L2.81 118.59 L4.42
										 119.33 L5.18 120.96 L6.1 120.81 L6.4 120.45 L6.1 118.74 L6.02 116.6 L6.48 113.65 L6.46 111.95
										 L7.85 109.8 L10.29 108.1 L14.56 106.32 L19.29 106.99 L23.4 109.88 L25.3 112.83 L26.52 114.98
										 L26.83 120.3 L25.91 124.87 L24.24 128.94 L22.63 131.08" class="st3"/>
						</g>
					</g>
					<g id="group2270-10" transform="translate(0.862378,-7.03529)">
						<title>Sheet.2270</title>
						<g id="shape2271-11">
							<title>Sheet.2271</title>
							<path d="M21.5 124.29 L10.59 124.72 L10.59 126.5 L11.51 132.71 L11.06 133.23 L3.43 130.71 L2.9 129.82
										 L2.13 121.48 L0.38 116.45 L0 115.27 L6.1 111.21 L8 110.46 L9.68 112.46 L11.13 113.72 L12.81
										 114.23 L13.56 114.45 L14.48 118.3 L15.17 119.12 L16.92 118.52 L15.7 120.81 L22.34 123.84
										 L21.5 124.29 Z" class="st4"/>
						</g>
					</g>
					<g id="group2272-13" transform="translate(3.98738,-40.0637)">
						<title>Sheet.2272</title>
						<g id="shape2273-14">
							<title>Sheet.2273</title>
							<path d="M0.31 131.52 L2.28 130.86 L3.89 131.6 L4.65 133.23 L5.57 133.08 L5.79 132.19 L5.33 130.49 L5.79
										 126.43 L5.41 124.21 L6.79 122.66 L9.76 120.37 L8.92 119.26 L4.73 121.25 L2.97 122.58 L1.99
										 124.65 L0.46 126.65 L0 129.01 L0.31 131.52 Z" class="st5"/>
						</g>
						<g id="shape2274-16">
							<title>Sheet.2274</title>
							<path d="M0.31 131.52 L2.28 130.86 L3.89 131.6 L4.65 133.23 L5.57 133.08 L5.79 132.19 L5.33 130.49 L5.79
										 126.43 L5.41 124.21 L6.79 122.66 L9.76 120.37 L8.92 119.26 L4.73 121.25 L2.97 122.58 L1.99
										 124.65 L0.46 126.65 L0 129.01 L0.31 131.52 Z" class="st6"/>
						</g>
					</g>
					<g id="group2275-18" transform="translate(3.53005,-41.7633)">
						<title>Sheet.2275</title>
						<g id="shape2276-19">
							<title>Sheet.2276</title>
							<path d="M3.89 126.28 C3.89 126.28 5.03 123.54 9.6 122.21 C14.18 120.88 9.83 121.25 9.83 121.25 L4.88
										 123.11 L2.97 124.95 L2.13 126.43 L3.89 126.28 ZM1.6 132.71 C1.6 132.71 0 127.53 6.1 126.8
										 L5.87 125.91 L1.68 126.87 L0.46 130.71 L0.76 133.23 L1.6 132.71 Z" class="st7"/>
						</g>
					</g>
					<g id="group2277-21" transform="translate(3.37775,-27.864)">
						<title>Sheet.2277</title>
						<g id="shape2278-22">
							<title>Sheet.2278</title>
							<path d="M4.19 125.68 L5.19 124.74 C5.19 124.74 5.64 124.79 5.71 125.31 C5.79 125.83 6.02 130.48 9.29
										 133 C9.6 133.23 6.86 132.62 6.86 132.62 L4.42 128.93 L4.19 125.68 ZM18.22 124.28 C18.22
										 124.28 18.39 122.03 19.02 122.21 C19.63 122.38 19.63 122.99 19.63 122.99 C19.63 122.99 18.13
										 123.93 18.22 124.28 ZM24.54 116.07 C24.54 116.07 23.29 116.33 23.16 117.41 C23.05 118.48
										 24.54 117.63 24.77 117.55 L24.54 116.07 ZM15.32 116.15 C15.32 116.15 13.64 116.37 13.64
										 117.4 C13.64 118.44 15.55 118.36 16.08 117.93 L15.32 116.15 ZM4.95 120.95 C4.95 120.95 2.06
										 119.26 1.75 120.87 C1.44 122.5 0.76 123.68 2.21 125.39 L1.22 125.09 L0.31 122.8 L0 120.59
										 L1.75 118.81 L3.74 118.96 L4.88 119.84 L4.95 120.95 ZM6.33 116.3 C6.33 116.3 7.63 109.8
										 14.18 108.54 C19.57 107.51 22.41 108.76 23.47 109.95 C23.47 109.95 18.67 104.4 14.1 106.1
										 C9.53 107.8 6.17 110.9 6.25 112.89 C6.38 116.3 6.33 116.3 6.33 116.3 ZM24 110.68 C24 110.68
										 21.79 110.6 21.72 112.53 C21.72 112.53 21.72 112.82 21.87 113.12 C21.87 113.12 23.63 111.2
										 24.69 112.23 L24 110.68 Z" class="st8"/>
						</g>
						<g id="shape2279-24">
							<title>Sheet.2279</title>
							<path d="M4.19 125.68 L5.19 124.74 C5.19 124.74 5.64 124.79 5.71 125.31 C5.79 125.83 6.02 130.48 9.29
										 133 C9.6 133.23 6.86 132.62 6.86 132.62 L4.42 128.93 L4.19 125.68 ZM18.22 124.28 C18.22
										 124.28 18.39 122.03 19.02 122.21 C19.63 122.38 19.63 122.99 19.63 122.99 C19.63 122.99 18.13
										 123.93 18.22 124.28 ZM24.54 116.07 C24.54 116.07 23.29 116.33 23.16 117.41 C23.05 118.48
										 24.54 117.63 24.77 117.55 L24.54 116.07 ZM15.32 116.15 C15.32 116.15 13.64 116.37 13.64
										 117.4 C13.64 118.44 15.55 118.36 16.08 117.93 L15.32 116.15 ZM4.95 120.95 C4.95 120.95 2.06
										 119.26 1.75 120.87 C1.44 122.5 0.76 123.68 2.21 125.39 L1.22 125.09 L0.31 122.8 L0 120.59
										 L1.75 118.81 L3.74 118.96 L4.88 119.84 L4.95 120.95 ZM6.33 116.3 C6.33 116.3 7.63 109.8
										 14.18 108.54 C19.57 107.51 22.41 108.76 23.47 109.95 C23.47 109.95 18.67 104.4 14.1 106.1
										 C9.53 107.8 6.17 110.9 6.25 112.89 C6.38 116.3 6.33 116.3 6.33 116.3 ZM24 110.68 C24 110.68
										 21.79 110.6 21.72 112.53 C21.72 112.53 21.72 112.82 21.87 113.12 C21.87 113.12 23.63 111.2
										 24.69 112.23 L24 110.68 Z" class="st2"/>
							<path d="M4.19 125.68 L5.19 124.74 C5.19 124.74 5.64 124.79 5.71 125.31 C5.79 125.83 6.02 130.48 9.29
										 133 C9.6 133.23 6.86 132.62 6.86 132.62 L4.42 128.93M18.22 124.28 C18.22 124.28 18.39 122.03
										 19.02 122.21 C19.63 122.38 19.63 122.99 19.63 122.99 C19.63 122.99 18.13 123.93 18.22 124.28M24.54
										 116.07 C24.54 116.07 23.29 116.33 23.16 117.41 C23.05 118.48 24.54 117.63 24.77 117.55M15.32
										 116.15 C15.32 116.15 13.64 116.37 13.64 117.4 C13.64 118.44 15.55 118.36 16.08 117.93M4.95
										 120.95 C4.95 120.95 2.06 119.26 1.75 120.87 C1.44 122.5 0.76 123.68 2.21 125.39 L1.22 125.09
										 L0.31 122.8 L0 120.59 L1.75 118.81 L3.74 118.96 L4.88 119.84 L4.95 120.95M6.33 116.3 C6.33
										 116.3 7.63 109.8 14.18 108.54 C19.57 107.51 22.41 108.76 23.47 109.95 C23.47 109.95 18.67
										 104.4 14.1 106.1 C9.53 107.8 6.17 110.9 6.25 112.89 C6.38 116.3 6.33 116.3 6.33 116.3M24
										 110.68 C24 110.68 21.79 110.6 21.72 112.53 C21.72 112.53 21.72 112.82 21.87 113.12 C21.87
										 113.12 23.63 111.2 24.69 112.23" class="st3"/>
						</g>
					</g>
					<g id="group2280-27" transform="translate(13.0568,-45.1577)">
						<title>Sheet.2280</title>
						<g id="shape2281-28">
							<title>Sheet.2281</title>
							<path d="M4.65 130.61 C4.65 130.61 4.27 127.66 1.68 129.38 C0 130.49 0.15 132.04 0.46 132.34 C0.76 132.63
										 0.68 133.23 0.91 132.81 C1.15 132.4 1.06 131.07 1.9 130.71 C2.74 130.34 4.11 129.92 4.65
										 130.61 Z" class="st9"/>
						</g>
					</g>
					<g id="group2282-30" transform="translate(0.862574,-9.69531)">
						<title>Sheet.2282</title>
						<g id="shape2283-31">
							<title>Sheet.2283</title>
							<path d="M9.68 115.12 L2.52 118.22 C2.52 118.22 5.49 129.68 3.96 133.23 L2.9 132.85 L2.81 128.49 L0.84
										 120.22 L0 117.93 L7.47 113.05 L9.68 115.12 ZM10.42 121.46 L11.43 122.66 L11.43 127.1 L10.22
										 127.1 C10.22 127.1 10.06 123.99 10.06 123.62 C10.06 123.24 10.22 121.92 10.22 121.92 L10.42
										 121.46 ZM10.44 127.76 L7.01 127.91 L8 128.57 L10.44 128.94 L10.44 127.76 Z" class="st10"/>
						</g>
						<g id="shape2284-33">
							<title>Sheet.2284</title>
							<path d="M9.68 115.12 L2.52 118.22 C2.52 118.22 5.49 129.68 3.96 133.23 L2.9 132.85 L2.81 128.49 L0.84
										 120.22 L0 117.93 L7.47 113.05 L9.68 115.12 ZM10.42 121.46 L11.43 122.66 L11.43 127.1 L10.22
										 127.1 C10.22 127.1 10.06 123.99 10.06 123.62 C10.06 123.24 10.22 121.92 10.22 121.92 L10.42
										 121.46 ZM10.44 127.76 L7.01 127.91 L8 128.57 L10.44 128.94 L10.44 127.76 Z" class="st2"/>
							<path d="M9.68 115.12 L2.52 118.22 C2.52 118.22 5.49 129.68 3.96 133.23 L2.9 132.85 L2.81 128.49 L0.84
										 120.22 L0 117.93 L7.47 113.05 L9.68 115.12M10.42 121.46 L11.43 122.66 L11.43 127.1 L10.22
										 127.1 C10.22 127.1 10.06 123.99 10.06 123.62 C10.06 123.24 10.22 121.92 10.22 121.92M10.44
										 127.76 L7.01 127.91 L8 128.57 L10.44 128.94" class="st3"/>
						</g>
					</g>
					<g id="group2285-36" transform="translate(23.041,-8.80838)">
						<title>Sheet.2285</title>
						<g id="shape2286-37">
							<title>Sheet.2286</title>
							<path d="M0 126.13 L2.81 126.05 L3.5 132.85 L0.61 133.23 L0 126.13 Z" class="st4"/>
						</g>
					</g>
					<g id="group2287-39" transform="translate(23.803,-15.9017)">
						<title>Sheet.2287</title>
						<g id="shape2288-40">
							<title>Sheet.2288</title>
							<path d="M0 133.23 L4.27 133 C4.27 133 6.02 128.71 6.02 128.49 C6.02 128.28 7.54 122.29 7.54 122.29 L4.11
										 118.82 L3.43 118.22 L1.6 120 L1.6 126.87 L0 133.23 Z" class="st11"/>
						</g>
						<g id="shape2289-42">
							<title>Sheet.2289</title>
							<path d="M0 133.23 L4.27 133 C4.27 133 6.02 128.71 6.02 128.49 C6.02 128.28 7.54 122.29 7.54 122.29 L4.11
										 118.82 L3.43 118.22 L1.6 120 L1.6 126.87 L0 133.23 Z" class="st6"/>
						</g>
					</g>
					<g id="group2290-44" transform="translate(23.041,-13.3895)">
						<title>Sheet.2290</title>
						<g id="shape2291-45">
							<title>Sheet.2291</title>
							<path d="M2.67 130.19 L0 130.71 L0.38 132.78 C1.37 133.23 3.05 132.04 3.05 132.04 L2.67 130.19 ZM2.74
										 117.26 L8.08 121.11 L8.23 119.33 L4.2 115.71 L2.74 117.26 Z" class="st10"/>
						</g>
						<g id="shape2292-47">
							<title>Sheet.2292</title>
							<path d="M2.67 130.19 L0 130.71 L0.38 132.78 C1.37 133.23 3.05 132.04 3.05 132.04 L2.67 130.19 ZM2.74
										 117.26 L8.08 121.11 L8.23 119.33 L4.2 115.71 L2.74 117.26 Z" class="st2"/>
							<path d="M2.67 130.19 L0 130.71 L0.38 132.78 C1.37 133.23 3.05 132.04 3.05 132.04M2.74 117.26 L8.08 121.11
										 L8.23 119.33 L4.2 115.71 L2.74 117.26" class="st3"/>
						</g>
					</g>
					<g id="group2293-50" transform="translate(11.4563,-0.606158)">
						<title>Sheet.2293</title>
						<g id="shape2294-51">
							<title>Sheet.2294</title>
							<path d="M2.5 132.48 L0.91 126.28 L0.13 121.7 L0 118.3 L7.14 117.93 L11.59 117.93 L11.18 125.69 L11.86
										 131.67 L11.79 132.78 L6 133.23 L2.49 132.48 L2.5 132.48 Z" class="st12"/>
						</g>
						<g id="shape2295-53">
							<title>Sheet.2295</title>
							<path d="M2.5 132.48 L0.91 126.28 L0.13 121.7 L0 118.3 L7.14 117.93 L11.59 117.93 L11.18 125.69 L11.86
										 131.67 L11.79 132.78 L6 133.23 L2.49 132.48 L2.5 132.48 Z" class="st2"/>
							<path d="M2.5 132.48 L0.91 126.28 L0.13 121.7 L0 118.3 L7.14 117.93 L11.59 117.93 L11.18 125.69 L11.86
										 131.67 L11.79 132.78 L6 133.23 L2.49 132.48" class="st3"/>
						</g>
					</g>
					<g id="group2296-56" transform="translate(17.1723,-1.05029)">
						<title>Sheet.2296</title>
						<g id="shape2297-57">
							<title>Sheet.2297</title>
							<path d="M4.88 118.3 C4.88 118.3 4.49 125.98 5.64 131.45 C5.64 131.45 3.36 132.85 0 133.23 L6.4 133 L7.17
										 132.56 L6.25 120.45 L6.02 117.86 L4.88 118.3 Z" class="st13"/>
						</g>
						<g id="shape2298-59">
							<title>Sheet.2298</title>
							<path d="M4.88 118.3 C4.88 118.3 4.49 125.98 5.64 131.45 C5.64 131.45 3.36 132.85 0 133.23 L6.4 133 L7.17
										 132.56 L6.25 120.45 L6.02 117.86 L4.88 118.3 Z" class="st2"/>
							<path d="M4.88 118.3 C4.88 118.3 4.49 125.98 5.64 131.45 C5.64 131.45 3.36 132.85 0 133.23 L6.4 133 L7.17
										 132.56 L6.25 120.45 L6.02 117.86" class="st3"/>
						</g>
					</g>
					<g id="group2299-62" transform="translate(25.8608,-9.76829)">
						<title>Sheet.2299</title>
						<g id="shape2300-63">
							<title>Sheet.2300</title>
							<path d="M0.82 133.23 L3.79 132.41 L9.43 132.12 L10.27 129.61 L8.74 125.25 L6.99 125.02 L4.56 125.77
										 L2.21 126.87 L0.97 126.65 L0 127.02 L0.82 133.23 Z" class="st12"/>
						</g>
						<g id="shape2301-65">
							<title>Sheet.2301</title>
							<path d="M0.82 133.23 L3.79 132.41 L9.43 132.12 L10.27 129.61 L8.74 125.25 L6.99 125.02 L4.56 125.77
										 L2.21 126.87 L0.97 126.65 L0 127.02 L0.82 133.23 Z" class="st2"/>
							<path d="M0.82 133.23 L3.79 132.41 L9.43 132.12 L10.27 129.61 L8.74 125.25 L6.99 125.02 L4.56 125.77
										 L2.21 126.87 L0.97 126.65 L0 127.02" class="st3"/>
						</g>
					</g>
					<g id="group2302-68" transform="translate(26.6228,-9.69512)">
						<title>Sheet.2302</title>
						<g id="shape2303-69">
							<title>Sheet.2303</title>
							<path d="M0 131.67 C0 131.67 1.99 130.79 2.28 130.86 L1.44 126.8 L2.44 126.43 C2.44 126.43 3.12 130.27
										 3.12 130.71 C3.12 130.71 7.39 130.94 7.77 130.94 C7.77 130.94 8.69 129.24 8.46 127.46 L9.29
										 129.82 L9.38 131.15 L8.16 132.93 L6.79 133.23 L4.49 133.15 L3.74 132.19 L1.06 132.56 L0.23
										 132.85 L0 131.67 Z" class="st13"/>
						</g>
						<g id="shape2304-71">
							<title>Sheet.2304</title>
							<path d="M0 131.67 C0 131.67 1.99 130.79 2.28 130.86 L1.44 126.8 L2.44 126.43 C2.44 126.43 3.12 130.27
										 3.12 130.71 C3.12 130.71 7.39 130.94 7.77 130.94 C7.77 130.94 8.69 129.24 8.46 127.46 L9.29
										 129.82 L9.38 131.15 L8.16 132.93 L6.79 133.23 L4.49 133.15 L3.74 132.19 L1.06 132.56 L0.23
										 132.85 L0 131.67 Z" class="st2"/>
							<path d="M0 131.67 C0 131.67 1.99 130.79 2.28 130.86 L1.44 126.8 L2.44 126.43 C2.44 126.43 3.12 130.27
										 3.12 130.71 C3.12 130.71 7.39 130.94 7.77 130.94 C7.77 130.94 8.69 129.24 8.46 127.46 L9.29
										 129.82 L9.38 131.15 L8.16 132.93 L6.79 133.23 L4.49 133.15 L3.74 132.19 L1.06 132.56 L0.23
										 132.85" class="st3"/>
						</g>
					</g>
					<g id="group2305-74" transform="translate(20.1984,-16.4921)">
						<title>Sheet.2305</title>
						<g id="shape2306-75">
							<title>Sheet.2306</title>
							<path d="M3.43 133.23 L1.75 129.09 L0 126.65 C0 126.65 0.38 125.62 0.91 125.62 L2.67 125.62 L4.34 126.2
										 L4.2 128.94 L3.43 133.23 Z" class="st14"/>
						</g>
					</g>
					<g id="group2307-77" transform="translate(20.0689,-17.1582)">
						<title>Sheet.2307</title>
						<g id="shape2308-78">
							<title>Sheet.2308</title>
							<path d="M3.89 132.48 C3.89 132.48 1.75 128.49 1.75 127.91 C1.75 127.91 2.13 127.02 2.67 127.24 C3.2
										 127.46 4.34 128.05 4.34 128.05 L4.34 126.65 L1.75 126.13 L0 126.35 L2.97 133.15 L3.58 133.23
										 L3.89 132.48 Z" class="st13"/>
						</g>
						<g id="shape2309-80">
							<title>Sheet.2309</title>
							<path d="M3.89 132.48 C3.89 132.48 1.75 128.49 1.75 127.91 C1.75 127.91 2.13 127.02 2.67 127.24 C3.2
										 127.46 4.34 128.05 4.34 128.05 L4.34 126.65 L1.75 126.13 L0 126.35 L2.97 133.15 L3.58 133.23
										 L3.89 132.48 Z" class="st2"/>
							<path d="M3.89 132.48 C3.89 132.48 1.75 128.49 1.75 127.91 C1.75 127.91 2.13 127.02 2.67 127.24 C3.2
										 127.46 4.34 128.05 4.34 128.05 L4.34 126.65 L1.75 126.13 L0 126.35 L2.97 133.15 L3.58 133.23"
									class="st3"/>
						</g>
					</g>
					<g id="group2310-83" transform="translate(10.5416,-25.4327)">
						<title>Sheet.2310</title>
						<g id="shape2311-84">
							<title>Sheet.2311</title>
							<path d="M4.09 131.01 L1.99 130.79 L0 130.19 L0 130.86 L0.97 131.9 L4.01 133.23 L4.09 131.01 Z"
									class="st12"/>
						</g>
						<g id="shape2312-86">
							<title>Sheet.2312</title>
							<path d="M4.09 131.01 L1.99 130.79 L0 130.19 L0 130.86 L0.97 131.9 L4.01 133.23 L4.09 131.01 Z"
									class="st2"/>
							<path d="M4.09 131.01 L1.99 130.79 L0 130.19 L0 130.86 L0.97 131.9 L4.01 133.23" class="st3"/>
						</g>
					</g>
					<g id="group2313-89" transform="translate(10.9995,-25.8032)">
						<title>Sheet.2313</title>
						<g id="shape2314-90">
							<title>Sheet.2314</title>
							<path d="M0.23 131.6 C0.23 131.6 2.59 132.56 3.36 132.34 L3.43 133.23 L1.3 132.78 L0 131.9 L0.23 131.6
										 Z" class="st7"/>
						</g>
					</g>
					<g id="group2315-92" transform="translate(22.8757,-23.8511)">
						<title>Sheet.2315</title>
						<g id="shape2316-93">
							<title>Sheet.2316</title>
							<path d="M3.8 133.23 C2.5 133.19 1.33 133.04 0.31 132.76 C0.38 132.36 0.25 131.96 0.35 131.66 C0.63 131.46
										 1.12 131.46 1.55 131.42 C1.18 131.24 0.64 131.17 0.21 131.27 C0.2 131 0.08 130.82 0 130.6
										 C0.73 130.34 2.45 128.69 3.41 129.24 C3.87 129.5 4.06 130.99 4.1 131.71 C4.13 132.31 4.04
										 132.91 3.8 133.23 Z" class="st15"/>
						</g>
					</g>
					<g id="group2317-95" transform="translate(22.8757,-23.8511)">
						<title>Sheet.2317</title>
						<g id="shape2318-96">
							<title>Sheet.2318</title>
							<path d="M3.8 133.23 C2.5 133.19 1.33 133.04 0.31 132.76 C0.38 132.36 0.25 131.96 0.35 131.66 C0.63 131.46
										 1.12 131.46 1.55 131.42 C1.18 131.24 0.64 131.17 0.21 131.27 C0.2 131 0.08 130.82 0 130.6
										 C0.73 130.34 2.45 128.69 3.41 129.24 C3.87 129.5 4.06 130.99 4.1 131.71 C4.13 132.31 4.04
										 132.91 3.8 133.23 Z" class="st16"/>
						</g>
					</g>
					<g id="group2319-98" transform="translate(14.691,-21.5708)">
						<title>Sheet.2319</title>
						<g id="shape2320-99">
							<title>Sheet.2320</title>
							<path d="M5.79 128.89 C5.79 128.99 5.78 129.09 5.78 129.18 C5.37 129.44 4.73 129.44 4.28 129.66 C4.93
										 129.68 5.45 129.83 5.9 130.04 L5.87 130.77 C5.13 131.25 4.45 131.99 3.58 132.44 C3.16 132.66
										 1.72 133.23 1.28 133.13 C1.03 133.07 1.01 132.77 0.91 132.49 C0.71 131.89 0.21 130.93 0.17
										 130.02 C0.12 128.88 0 126.96 1.27 127.19 C2.3 127.38 3.49 127.84 4.29 128.27 C4.77 128.52
										 5.06 128.84 5.79 128.89 Z" class="st15"/>
						</g>
					</g>
					<g id="group2321-101" transform="translate(14.691,-21.5708)">
						<title>Sheet.2321</title>
						<g id="shape2322-102">
							<title>Sheet.2322</title>
							<path d="M5.79 128.89 C5.79 128.99 5.78 129.09 5.78 129.18 C5.37 129.44 4.73 129.44 4.28 129.66 C4.93
										 129.68 5.45 129.83 5.9 130.04 L5.87 130.77 C5.13 131.25 4.45 131.99 3.58 132.44 C3.16 132.66
										 1.72 133.23 1.28 133.13 C1.03 133.07 1.01 132.77 0.91 132.49 C0.71 131.89 0.21 130.93 0.17
										 130.02 C0.12 128.88 0 126.96 1.27 127.19 C2.3 127.38 3.49 127.84 4.29 128.27 C4.77 128.52
										 5.06 128.84 5.79 128.89 Z" class="st16"/>
						</g>
					</g>
					<g id="group2323-104" transform="translate(20.9758,-23.9754)">
						<title>Sheet.2323</title>
						<g id="shape2324-105">
							<title>Sheet.2324</title>
							<path d="M0.25 132.66 C0.13 132.04 0 131.87 0.05 131.32 C1.77 130.21 2.09 133.23 0.25 132.66 Z"
									class="st15"/>
						</g>
					</g>
					<g id="group2325-107" transform="translate(20.9758,-23.9754)">
						<title>Sheet.2325</title>
						<g id="shape2326-108">
							<title>Sheet.2326</title>
							<path d="M0.25 132.66 C0.13 132.04 0 131.87 0.05 131.32 C1.77 130.21 2.09 133.23 0.25 132.66 Z"
									class="st16"/>
						</g>
					</g>
					<g id="group2327-110" transform="translate(13.0683,-21.5905)">
						<title>Sheet.2327</title>
						<g id="shape2328-111">
							<title>Sheet.2328</title>
							<path d="M10.64 130.79 C10.64 130.79 10.1 130.04 10.48 129.82 C10.86 129.61 11.25 129.82 11.47 129.46
										 C11.7 129.09 11.47 128.86 11.55 128.43 C11.63 127.98 12.01 127.91 12.39 127.83 C12.76 127.76
										 13.84 127.61 13.99 127.98 L13.53 126.65 L12.62 126.35 L9.72 127.98 L9.57 128.79 L9.57 130.42
										 L10.64 130.79 ZM2.63 133.23 C2.54 132.07 2.45 130.92 2.33 129.76 C2.18 128.05 2.76 128.35
										 4.3 128.35 C4.53 128.35 5.74 128.62 5.83 128.79 C6.25 129.62 5.14 129.43 6.32 130.05 C7.31
										 130.58 9.06 129.74 8.65 128.57 C8.43 128.32 7.48 128.48 7.14 128.32 L5.36 127.42 C4.61 127.04
										 2.86 126.48 2.05 127.02 C0 128.37 2.18 131.74 2.91 133.15 L2.63 133.23 Z" class="st17"/>
						</g>
						<g id="shape2329-113">
							<title>Sheet.2329</title>
							<path d="M10.64 130.79 C10.64 130.79 10.1 130.04 10.48 129.82 C10.86 129.61 11.25 129.82 11.47 129.46
										 C11.7 129.09 11.47 128.86 11.55 128.43 C11.63 127.98 12.01 127.91 12.39 127.83 C12.76 127.76
										 13.84 127.61 13.99 127.98 L13.53 126.65 L12.62 126.35 L9.72 127.98 L9.57 128.79 L9.57 130.42
										 L10.64 130.79 ZM2.63 133.23 C2.54 132.07 2.45 130.92 2.33 129.76 C2.18 128.05 2.76 128.35
										 4.3 128.35 C4.53 128.35 5.74 128.62 5.83 128.79 C6.25 129.62 5.14 129.43 6.32 130.05 C7.31
										 130.58 9.06 129.74 8.65 128.57 C8.43 128.32 7.48 128.48 7.14 128.32 L5.36 127.42 C4.61 127.04
										 2.86 126.48 2.05 127.02 C0 128.37 2.18 131.74 2.91 133.15 L2.63 133.23 Z" class="st2"/>
							<path d="M10.64 130.79 C10.64 130.79 10.1 130.04 10.48 129.82 C10.86 129.61 11.25 129.82 11.47 129.46
										 C11.7 129.09 11.47 128.86 11.55 128.43 C11.63 127.98 12.01 127.91 12.39 127.83 C12.76 127.76
										 13.84 127.61 13.99 127.98 L13.53 126.65 L12.62 126.35 L9.72 127.98 L9.57 128.79 L9.57 130.42M2.63
										 133.23 C2.54 132.07 2.45 130.92 2.33 129.76 C2.18 128.05 2.76 128.35 4.3 128.35 C4.53 128.35
										 5.74 128.62 5.83 128.79 C6.25 129.62 5.14 129.43 6.32 130.05 C7.31 130.58 9.06 129.74 8.65
										 128.57 C8.43 128.32 7.48 128.48 7.14 128.32 L5.36 127.42 C4.61 127.04 2.86 126.48 2.05 127.02
										 C0 128.37 2.18 131.74 2.91 133.15" class="st3"/>
						</g>
					</g>
					<g id="group2330-116" transform="translate(4.90377,-31.2058)">
						<title>Sheet.2330</title>
						<g id="shape2331-117">
							<title>Sheet.2331</title>
							<path d="M12.81 116.67 C10.73 116.19 9.69 117.5 9.07 118.87 C8.51 118.73 8.72 118 8.86 117.62 C9.24 116.63
										 10.74 115.31 11.97 115.48 C12.49 115.55 13.2 116.02 12.81 116.67 ZM22.93 118.96 C22.96 118.96
										 22.99 118.96 23.02 118.96 C23.49 119.9 23.9 120.9 24.5 121.74 C24.1 122.64 21.49 123.42
										 21.53 121.82 C22.09 121.58 23.06 121.77 23.56 121.47 C23.28 120.69 22.86 120.04 22.93 118.96
										 ZM13.87 118.98 C14.31 119.77 14.45 120.61 15.09 121.2 C15.37 121.47 15.93 121.8 15.65 122.55
										 C15.59 122.72 15.12 123.12 14.85 123.2 C13.86 123.48 11.56 123.25 12.33 122.05 C13.15 122.09
										 14.26 122.57 14.86 121.99 C14.39 121.27 13.56 119.83 13.87 118.98 ZM22.55 127.03 C21.07
										 127.95 19.4 128.96 16.96 128.72 C16.44 128.29 16.23 127.31 16.75 126.66 C17.01 127.11 16.84
										 127.91 17.58 128.03 C18.97 128.27 20.57 127.21 21.58 126.85 C22.19 125.84 21.52 125.46 20.96
										 124.81 C19.83 123.48 18.29 121.83 18.35 119.83 C18.81 119.51 18.86 120.33 18.92 120.48 C19.51
										 121.83 21.01 123.55 22.1 124.71 C22.38 124.99 22.82 125.27 22.86 125.46 C23 126 22.49 126.66
										 22.55 127.03 ZM2.91 126.04 C2.44 125.79 2.32 124.65 1.78 124.61 C0.99 124.57 1.14 126.09
										 1.15 126.99 C0.6 126.51 0.51 125.05 0.9 124.3 C0.45 124.08 0.25 124.54 0 124.69 C0.32 122.43
										 3.42 123.64 2.91 126.04 ZM23.5 127.97 C22.81 129.25 21.82 130.66 19.79 130.7 C19.75 130.28
										 19.71 129.66 19.8 129.41 C21.35 129.26 22.31 128.49 23.5 127.97 ZM13.75 128.8 C15.05 129.46
										 17.43 129.53 19.2 129.48 C19.3 129.85 19.3 130.32 19.3 130.78 C17.02 130.89 14.34 130.34
										 13.75 128.8 ZM13.5 130.03 C14.4 132.22 17.48 131.97 20.08 131.91 C19.97 132.19 19.73 132.52
										 19.42 132.64 C18.58 132.97 16.29 133.23 15.13 132.63 C14.39 132.25 13.92 131.39 13.52 130.9
										 C13.33 130.65 12.36 130.03 13.5 130.03 Z" class="st18"/>
						</g>
						<g id="shape2332-119">
							<title>Sheet.2332</title>
							<path d="M12.81 116.67 C10.73 116.19 9.69 117.5 9.07 118.87 C8.51 118.73 8.72 118 8.86 117.62 C9.24 116.63
										 10.74 115.31 11.97 115.48 C12.49 115.55 13.2 116.02 12.81 116.67 ZM22.93 118.96 C22.96 118.96
										 22.99 118.96 23.02 118.96 C23.49 119.9 23.9 120.9 24.5 121.74 C24.1 122.64 21.49 123.42
										 21.53 121.82 C22.09 121.58 23.06 121.77 23.56 121.47 C23.28 120.69 22.86 120.04 22.93 118.96
										 ZM13.87 118.98 C14.31 119.77 14.45 120.61 15.09 121.2 C15.37 121.47 15.93 121.8 15.65 122.55
										 C15.59 122.72 15.12 123.12 14.85 123.2 C13.86 123.48 11.56 123.25 12.33 122.05 C13.15 122.09
										 14.26 122.57 14.86 121.99 C14.39 121.27 13.56 119.83 13.87 118.98 ZM22.55 127.03 C21.07
										 127.95 19.4 128.96 16.96 128.72 C16.44 128.29 16.23 127.31 16.75 126.66 C17.01 127.11 16.84
										 127.91 17.58 128.03 C18.97 128.27 20.57 127.21 21.58 126.85 C22.19 125.84 21.52 125.46 20.96
										 124.81 C19.83 123.48 18.29 121.83 18.35 119.83 C18.81 119.51 18.86 120.33 18.92 120.48 C19.51
										 121.83 21.01 123.55 22.1 124.71 C22.38 124.99 22.82 125.27 22.86 125.46 C23 126 22.49 126.66
										 22.55 127.03 ZM2.91 126.04 C2.44 125.79 2.32 124.65 1.78 124.61 C0.99 124.57 1.14 126.09
										 1.15 126.99 C0.6 126.51 0.51 125.05 0.9 124.3 C0.45 124.08 0.25 124.54 0 124.69 C0.32 122.43
										 3.42 123.64 2.91 126.04 ZM23.5 127.97 C22.81 129.25 21.82 130.66 19.79 130.7 C19.75 130.28
										 19.71 129.66 19.8 129.41 C21.35 129.26 22.31 128.49 23.5 127.97 ZM13.75 128.8 C15.05 129.46
										 17.43 129.53 19.2 129.48 C19.3 129.85 19.3 130.32 19.3 130.78 C17.02 130.89 14.34 130.34
										 13.75 128.8 ZM13.5 130.03 C14.4 132.22 17.48 131.97 20.08 131.91 C19.97 132.19 19.73 132.52
										 19.42 132.64 C18.58 132.97 16.29 133.23 15.13 132.63 C14.39 132.25 13.92 131.39 13.52 130.9
										 C13.33 130.65 12.36 130.03 13.5 130.03 Z" class="st6"/>
						</g>
					</g>
					<g id="group2333-121" transform="translate(24.0368,-17.2539)">
						<title>Sheet.2333</title>
						<g id="shape2334-122">
							<title>Sheet.2334</title>
							<path d="M3.32 128.14 C2.26 129.88 1.25 131.68 0 133.23 C0.52 131.73 0.75 129.23 0.83 127.32 C1.92 126.83
										 2.87 127.43 3.32 128.14 Z" class="st19"/>
						</g>
						<g id="shape2335-124">
							<title>Sheet.2335</title>
							<path d="M3.32 128.14 C2.26 129.88 1.25 131.68 0 133.23 C0.52 131.73 0.75 129.23 0.83 127.32 C1.92 126.83
										 2.87 127.43 3.32 128.14 Z" class="st6"/>
						</g>
					</g>
					<g id="group2336-126" transform="translate(29.8585,-12.7)">
						<title>Sheet.2336</title>
						<g id="shape2337-127">
							<title>Sheet.2337</title>
							<path d="M3.16 129.87 C1.98 130.1 1.15 131.21 0 131.13 C0.63 130.27 1.74 129.91 3.16 129.87 ZM3.67 131.66
										 C2.72 131.76 1.59 131.91 0.61 131.83 C1.07 131.14 2.86 131.38 3.67 131.66 ZM4.01 133.2 C2.93
										 133.23 1.59 133.21 0.56 133.12 C1.17 132.48 3.32 132.88 4.01 133.2 Z" class="st18"/>
						</g>
						<g id="shape2338-129">
							<title>Sheet.2338</title>
							<path d="M3.16 129.87 C1.98 130.1 1.15 131.21 0 131.13 C0.63 130.27 1.74 129.91 3.16 129.87 ZM3.67 131.66
										 C2.72 131.76 1.59 131.91 0.61 131.83 C1.07 131.14 2.86 131.38 3.67 131.66 ZM4.01 133.2 C2.93
										 133.23 1.59 133.21 0.56 133.12 C1.17 132.48 3.32 132.88 4.01 133.2 Z" class="st6"/>
						</g>
					</g>
					<g id="group2339-131" transform="translate(23.9744,-4.04458)">
						<title>Sheet.2339</title>
						<g id="shape2340-132">
							<title>Sheet.2340</title>
							<path d="M1.34 128.77 C1.49 130.08 2.04 131.42 1.97 132.86 C1.37 133.05 1.02 133.23 0.23 133.23 C0.16
										 132 0 130.13 0.05 128.96 C0.44 128.98 1.02 128.68 1.34 128.77 Z" class="st13"/>
						</g>
						<g id="shape2341-134">
							<title>Sheet.2341</title>
							<path d="M1.34 128.77 C1.49 130.08 2.04 131.42 1.97 132.86 C1.37 133.05 1.02 133.23 0.23 133.23 C0.16
										 132 0 130.13 0.05 128.96 C0.44 128.98 1.02 128.68 1.34 128.77 Z" class="st6"/>
						</g>
					</g>
					<g id="group2342-136" transform="translate(19.4121,-26.6957)">
						<title>Sheet.2342</title>
						<g id="shape2343-137">
							<title>Sheet.2343</title>
							<path d="M4.17 132.03 C3.61 132.37 3.15 132.8 2.63 133.17 C1.48 133.23 0.85 133.09 0 132.44 C0.01 132.39
										 0.1 132.42 0.1 132.36 C1.34 132.89 2.92 132.14 4.16 132.03 L4.17 132.03 Z" class="st1"/>
						</g>
						<g id="shape2344-139">
							<title>Sheet.2344</title>
							<path d="M4.17 132.03 C3.61 132.37 3.15 132.8 2.63 133.17 C1.48 133.23 0.85 133.09 0 132.44 C0.01 132.39
										 0.1 132.42 0.1 132.36 C1.34 132.89 2.92 132.14 4.16 132.03 L4.17 132.03 Z" class="st2"/>
							<path d="M4.17 132.03 C3.61 132.37 3.15 132.8 2.63 133.17 C1.48 133.23 0.85 133.09 0 132.44 C0.01 132.39
										 0.1 132.42 0.1 132.36 C1.34 132.89 2.92 132.14 4.16 132.03" class="st3"/>
						</g>
					</g>
					<g id="group2345-142" transform="translate(17.0799,-17.2522)">
						<title>Sheet.2345</title>
						<g id="shape2346-143">
							<title>Sheet.2346</title>
							<path d="M0 130.76 C0.34 129.34 1.67 128.59 2.88 127.81 C4.13 129.35 4.88 131.32 5.72 133.23 C3.75 132.64
										 1.73 131.71 0 130.76 Z" class="st20"/>
						</g>
					</g>
					<g id="group2347-145">
						<title>Sheet.2347</title>
						<g id="shape2348-146">
							<title>Sheet.2348</title>
							<path d="M24.02 124.91 C23.97 126.08 24.15 127.96 24.2 129.18 C25 129.18 25.34 129.01 25.94 128.81 C26.01
										 127.37 25.47 126.04 25.31 124.72 C25 124.64 24.41 124.94 24.02 124.91 ZM11.56 118.27 C12.09
										 122.98 12.86 126.94 14.26 131.1 C17.37 132.02 21.12 132.1 23.87 131.27 C23.37 128.92 23.58
										 126.05 23.29 123.55 C23.07 121.67 23.19 119.76 22.88 117.84 C19.54 117.17 14.83 117.69 11.56
										 118.27 ZM23.67 117.87 C23.64 119.89 23.76 121.89 23.91 123.91 C24.72 123.79 25.26 123.71
										 26 123.55 C25.76 121.61 25.8 119.41 25.3 117.7 C24.73 117.7 24.23 117.69 23.67 117.87 ZM27.72
										 117.55 C27.34 117.46 26.9 117.54 26.54 117.55 C26.71 119.2 27.13 121.01 27.27 122.74 C27.84
										 122.76 28.15 122.5 28.61 122.41 C28.64 120.89 28.48 118.8 27.72 117.55 ZM33.87 122.99 C35.06
										 122.71 35.81 121.3 35.48 119.84 C35.25 118.87 34.85 117.03 34.42 116.41 C34.12 115.95 33.26
										 115.35 32.58 115.76 C31.48 116.46 29.52 116.66 28.71 117.49 C29.12 118.8 29.24 120.6 29.41
										 122.25 C30.79 122.33 32.5 121.88 33.65 122.36 C32.85 122.61 31.8 122.61 31.11 122.98 C31.67
										 123.24 33 123.2 33.87 122.99 ZM22.81 115.97 C21.97 114.07 21.21 112.09 19.96 110.55 C18.75
										 111.35 17.42 112.08 17.08 113.51 C18.81 114.46 20.83 115.4 22.81 115.97 ZM24.86 110.08 C24.78
										 111.98 24.56 114.48 24.03 115.97 C25.28 114.43 26.3 112.64 27.35 110.88 C26.9 110.19 25.96
										 109.57 24.86 110.08 ZM22.53 109.26 C22.06 109.21 21.65 109.8 21.04 109.54 C20.89 109.7 20.77
										 109.86 20.63 110.01 C21.99 111.59 22.6 113.85 23.66 115.72 C24.22 113.93 24.15 111.96 24.28
										 110 C23.5 110.05 23.07 109.32 22.53 109.26 ZM21.03 107.35 C20.97 107.89 21.11 108.07 21.22
										 108.69 C23.06 109.25 22.74 106.24 21.03 107.35 ZM18.98 106.69 C18.19 106.28 16.99 105.81
										 15.97 105.62 C14.69 105.39 14.81 107.31 14.86 108.45 C14.9 109.36 15.4 110.31 15.6 110.92
										 C15.7 111.2 15.72 111.49 15.97 111.55 C16.41 111.65 17.86 111.1 18.27 110.88 C19.14 110.41
										 19.82 109.68 20.55 109.19 L20.59 108.48 C20.14 108.26 19.62 108.11 18.98 108.08 C19.42 107.86
										 20.07 107.86 20.47 107.61 C20.47 107.52 20.48 107.42 20.48 107.33 C19.75 107.27 19.47 106.95
										 18.98 106.69 ZM11.38 105.35 C10.73 106.01 13.24 106.89 14.03 106.94 C14.03 106.52 14.28
										 106.14 14.23 105.85 C13.28 105.68 12.03 105.79 11.38 105.35 ZM19.51 105.66 C19.51 105.72
										 19.43 105.7 19.41 105.75 C20.26 106.39 20.89 106.53 22.05 106.47 C22.57 106.11 23.03 105.68
										 23.57 105.33 C22.33 105.44 20.75 106.2 19.51 105.66 ZM26.97 107.85 C26.94 107.13 26.75 105.65
										 26.29 105.39 C25.32 104.85 23.6 106.49 22.88 106.74 C22.96 106.97 23.08 107.14 23.09 107.43
										 C23.52 107.32 24.04 107.39 24.42 107.57 C23.99 107.61 23.51 107.61 23.23 107.81 C23.12 108.1
										 23.26 108.5 23.19 108.9 C24.21 109.19 25.38 109.34 26.67 109.37 C26.92 109.05 27 108.45
										 26.97 107.85 ZM10.28 105.99 C10.07 105.84 8.67 104.07 8.48 104.14 C5.94 105.11 3.56 106.79
										 1.44 108.38 C3.47 112.59 4.28 117.74 4.43 122.7 C6.75 123.75 8.77 125.26 11.91 125.42 C11.56
										 122.93 11.22 120.7 11.01 118.35 C10.23 118.02 9.09 118.36 8.35 118.25 C8.35 117.39 9.48
										 117.88 9.58 117.29 C9.65 116.85 8.96 116.82 9.18 116.13 C9.76 116.34 10.06 116.78 10.68
										 116.95 C11.24 115.76 10.67 113.65 10.75 112.65 C10.77 112.47 10.85 111.61 11.28 111.76 C11.66
										 111.89 11.26 114.03 11.3 114.97 C11.34 115.84 11.19 116.68 11.56 117.22 C14.59 116.82 17.68
										 116.57 20.95 116.48 C20.24 116.18 19.38 115.89 18.44 115.38 C17.92 115.1 16.32 114.52 16.17
										 114.05 C15.94 113.3 16.79 112.9 16.93 112.26 C15.4 113.07 15.1 111.49 14.74 110.36 C14.41
										 109.34 14.22 108.58 14.15 107.99 C12.83 107.39 11.41 106.77 10.28 105.99 ZM25.63 104.36
										 C27.75 103.37 28.13 108.07 27.3 109.59 C27.43 110.05 27.87 110.21 28.05 110.62 C26.87 112.67
										 25.56 114.58 24.35 116.61 C25.25 116.06 26.53 116.51 27.59 116.1 C27.97 115.96 28.25 115.1
										 28.54 114.42 C29.34 112.54 30.19 110.17 30.56 108.37 C30.65 107.96 30.87 107.07 30.82 106.71
										 C30.73 106.06 29.82 105.57 29.36 105.17 C28.5 104.43 27.96 103.77 27.06 103.07 C26.71 103.6
										 25.93 103.94 25.63 104.36 ZM5.45 86.19 C4.43 87.26 4.65 89.28 4.77 90.7 C6.59 89.6 9.01
										 90.79 8.98 92.69 C9.85 92.66 9.3 91.64 9.15 90.97 C8.64 88.8 10.01 86.45 9.21 84.46 C7.66
										 84.58 6.37 85.2 5.45 86.19 ZM12.65 79.96 C10.37 80.58 7.44 82.19 6.51 84.17 C7.24 84.08
										 7.74 83.72 8.46 83.67 C8.72 83.66 9.08 83.78 9.39 83.71 C10.01 83.56 10.53 82.21 10.99 81.71
										 C11.45 81.22 12 81.01 12.38 80.56 C12.62 80.45 12.97 80.46 12.99 80.12 C12.89 80.01 12.77
										 79.92 12.65 79.96 ZM24.52 80.54 C22.15 79.25 18.14 78.28 15.63 79.49 C13.59 80.47 10.85
										 82.1 9.92 84.15 C10.79 86.14 9.65 87.97 9.58 89.98 C9.54 91.05 10.1 91.99 10.14 93.16 C9.85
										 93.64 8.94 93.69 8.3 93.66 C8.09 92.63 7.72 91.47 6.61 91.35 C5.07 91.19 3.93 92.43 3.86
										 93.73 C3.78 95.27 5.07 97.81 6.91 97.63 C7.62 97.56 7.79 96.87 8.57 96.88 C8.99 97.69 7.92
										 97.95 7.81 98.52 C7.78 98.67 7.9 99.26 7.96 99.54 C8.3 100.88 9.05 102.6 9.78 103.63 C10.71
										 104.92 12.54 105.1 14.5 105.23 C14.85 104.5 16.14 104.56 16.98 104.76 C15.98 104.36 15.04
										 103.43 14.26 102.59 C13.37 101.64 12.46 100.62 12.42 99.37 C14.11 101.64 15.5 103.63 18.57
										 104.62 C20.89 105.37 23.6 104.27 25.4 103.06 C26.13 102.55 26.57 101.75 27.11 101.02 C29.07
										 98.27 29.99 94.35 29.79 90.55 C29.71 88.98 29.71 87.42 29.16 86.37 C28.6 85.26 26.69 84.27
										 25.56 85.28 C25.36 84.19 26.49 83.54 27.83 83.93 C26.88 82.73 25.88 81.29 24.52 80.54 ZM28.93
										 115.91 C30.77 115.03 34.23 113.52 35.39 115.92 C35.82 116.8 36.32 118.3 36.53 119.22 C36.85
										 120.51 36.2 123.22 34.83 123.65 C33.63 124.03 32.21 124.01 30.76 123.72 C30.59 123.58 30.4
										 123.34 30.27 123.1 C29.22 123.06 28.25 123.15 27.43 123.56 C27.51 124.31 26.99 124.43 26.5
										 124.57 C26.14 125.96 27.23 127.78 26.97 129.04 C26.78 129.94 25.64 130.08 24.8 130.25 C24.77
										 130.76 24.83 131.17 24.89 131.6 C24.7 132.29 23.84 132.67 23.02 132.77 C20.33 133.08 16.24
										 133.23 13.67 132.33 C12.94 130.61 12.38 128.52 11.77 126.56 C9.25 126.82 7.21 125.51 5.28
										 124.64 C4.62 124.35 3.7 124.18 3.45 123.66 C3.21 123.17 3.31 122.21 3.24 121.31 C3.09 119.02
										 2.97 116.79 2.34 114.44 C2.06 113.38 1.57 112.45 1.23 111.44 C0.91 110.48 0.36 109.32 0.21
										 108.38 C0 106.99 1.35 106.91 2.22 106.3 C3.56 105.37 4.62 104.86 6.06 104.01 C6.49 103.75
										 7.79 103.13 7.93 102.83 C8.23 102.26 7.43 101.44 7.22 100.99 C6.88 100.27 6.7 99.67 6.65
										 98.96 C5.45 98.77 4.52 98.07 3.96 97.28 C3.04 95.97 2.41 93.54 3.2 91.71 C3.27 91.56 3.57
										 91.27 3.62 91.05 C3.71 90.61 3.45 90.03 3.43 89.56 C3.35 87.16 3.85 85.1 5.52 84.37 C6.19
										 81.76 8.61 80.9 10.88 79.6 C11.74 79.11 12.67 78.81 13.64 78.46 C17.13 77.22 22.46 77.46
										 25.34 79.57 C26.56 80.47 28.52 82.36 29.22 83.74 C31.07 87.36 30.94 93.4 29.64 97.81 C29.47
										 98.41 29.22 99.28 28.87 99.98 C28.62 100.48 27.86 101.47 27.96 101.91 C28.05 102.36 29.7
										 103.58 30.04 103.9 C30.68 104.5 31.89 105.28 31.98 106.04 C32.09 106.83 31.62 107.92 31.38
										 108.69 C30.6 111.26 29.82 113.63 28.93 115.91 Z" class="st18"/>
						</g>
						<g id="shape2349-148">
							<title>Sheet.2349</title>
							<path d="M24.02 124.91 C23.97 126.08 24.15 127.96 24.2 129.18 C25 129.18 25.34 129.01 25.94 128.81 C26.01
										 127.37 25.47 126.04 25.31 124.72 C25 124.64 24.41 124.94 24.02 124.91 ZM11.56 118.27 C12.09
										 122.98 12.86 126.94 14.26 131.1 C17.37 132.02 21.12 132.1 23.87 131.27 C23.37 128.92 23.58
										 126.05 23.29 123.55 C23.07 121.67 23.19 119.76 22.88 117.84 C19.54 117.17 14.83 117.69 11.56
										 118.27 ZM23.67 117.87 C23.64 119.89 23.76 121.89 23.91 123.91 C24.72 123.79 25.26 123.71
										 26 123.55 C25.76 121.61 25.8 119.41 25.3 117.7 C24.73 117.7 24.23 117.69 23.67 117.87 ZM27.72
										 117.55 C27.34 117.46 26.9 117.54 26.54 117.55 C26.71 119.2 27.13 121.01 27.27 122.74 C27.84
										 122.76 28.15 122.5 28.61 122.41 C28.64 120.89 28.48 118.8 27.72 117.55 ZM33.87 122.99 C35.06
										 122.71 35.81 121.3 35.48 119.84 C35.25 118.87 34.85 117.03 34.42 116.41 C34.12 115.95 33.26
										 115.35 32.58 115.76 C31.48 116.46 29.52 116.66 28.71 117.49 C29.12 118.8 29.24 120.6 29.41
										 122.25 C30.79 122.33 32.5 121.88 33.65 122.36 C32.85 122.61 31.8 122.61 31.11 122.98 C31.67
										 123.24 33 123.2 33.87 122.99 ZM22.81 115.97 C21.97 114.07 21.21 112.09 19.96 110.55 C18.75
										 111.35 17.42 112.08 17.08 113.51 C18.81 114.46 20.83 115.4 22.81 115.97 ZM24.86 110.08 C24.78
										 111.98 24.56 114.48 24.03 115.97 C25.28 114.43 26.3 112.64 27.35 110.88 C26.9 110.19 25.96
										 109.57 24.86 110.08 ZM22.53 109.26 C22.06 109.21 21.65 109.8 21.04 109.54 C20.89 109.7 20.77
										 109.86 20.63 110.01 C21.99 111.59 22.6 113.85 23.66 115.72 C24.22 113.93 24.15 111.96 24.28
										 110 C23.5 110.05 23.07 109.32 22.53 109.26 ZM21.03 107.35 C20.97 107.89 21.11 108.07 21.22
										 108.69 C23.06 109.25 22.74 106.24 21.03 107.35 ZM18.98 106.69 C18.19 106.28 16.99 105.81
										 15.97 105.62 C14.69 105.39 14.81 107.31 14.86 108.45 C14.9 109.36 15.4 110.31 15.6 110.92
										 C15.7 111.2 15.72 111.49 15.97 111.55 C16.41 111.65 17.86 111.1 18.27 110.88 C19.14 110.41
										 19.82 109.68 20.55 109.19 L20.59 108.48 C20.14 108.26 19.62 108.11 18.98 108.08 C19.42 107.86
										 20.07 107.86 20.47 107.61 C20.47 107.52 20.48 107.42 20.48 107.33 C19.75 107.27 19.47 106.95
										 18.98 106.69 ZM11.38 105.35 C10.73 106.01 13.24 106.89 14.03 106.94 C14.03 106.52 14.28
										 106.14 14.23 105.85 C13.28 105.68 12.03 105.79 11.38 105.35 ZM19.51 105.66 C19.51 105.72
										 19.43 105.7 19.41 105.75 C20.26 106.39 20.89 106.53 22.05 106.47 C22.57 106.11 23.03 105.68
										 23.57 105.33 C22.33 105.44 20.75 106.2 19.51 105.66 ZM26.97 107.85 C26.94 107.13 26.75 105.65
										 26.29 105.39 C25.32 104.85 23.6 106.49 22.88 106.74 C22.96 106.97 23.08 107.14 23.09 107.43
										 C23.52 107.32 24.04 107.39 24.42 107.57 C23.99 107.61 23.51 107.61 23.23 107.81 C23.12 108.1
										 23.26 108.5 23.19 108.9 C24.21 109.19 25.38 109.34 26.67 109.37 C26.92 109.05 27 108.45
										 26.97 107.85 ZM10.28 105.99 C10.07 105.84 8.67 104.07 8.48 104.14 C5.94 105.11 3.56 106.79
										 1.44 108.38 C3.47 112.59 4.28 117.74 4.43 122.7 C6.75 123.75 8.77 125.26 11.91 125.42 C11.56
										 122.93 11.22 120.7 11.01 118.35 C10.23 118.02 9.09 118.36 8.35 118.25 C8.35 117.39 9.48
										 117.88 9.58 117.29 C9.65 116.85 8.96 116.82 9.18 116.13 C9.76 116.34 10.06 116.78 10.68
										 116.95 C11.24 115.76 10.67 113.65 10.75 112.65 C10.77 112.47 10.85 111.61 11.28 111.76 C11.66
										 111.89 11.26 114.03 11.3 114.97 C11.34 115.84 11.19 116.68 11.56 117.22 C14.59 116.82 17.68
										 116.57 20.95 116.48 C20.24 116.18 19.38 115.89 18.44 115.38 C17.92 115.1 16.32 114.52 16.17
										 114.05 C15.94 113.3 16.79 112.9 16.93 112.26 C15.4 113.07 15.1 111.49 14.74 110.36 C14.41
										 109.34 14.22 108.58 14.15 107.99 C12.83 107.39 11.41 106.77 10.28 105.99 ZM25.63 104.36
										 C27.75 103.37 28.13 108.07 27.3 109.59 C27.43 110.05 27.87 110.21 28.05 110.62 C26.87 112.67
										 25.56 114.58 24.35 116.61 C25.25 116.06 26.53 116.51 27.59 116.1 C27.97 115.96 28.25 115.1
										 28.54 114.42 C29.34 112.54 30.19 110.17 30.56 108.37 C30.65 107.96 30.87 107.07 30.82 106.71
										 C30.73 106.06 29.82 105.57 29.36 105.17 C28.5 104.43 27.96 103.77 27.06 103.07 C26.71 103.6
										 25.93 103.94 25.63 104.36 ZM5.45 86.19 C4.43 87.26 4.65 89.28 4.77 90.7 C6.59 89.6 9.01
										 90.79 8.98 92.69 C9.85 92.66 9.3 91.64 9.15 90.97 C8.64 88.8 10.01 86.45 9.21 84.46 C7.66
										 84.58 6.37 85.2 5.45 86.19 ZM12.65 79.96 C10.37 80.58 7.44 82.19 6.51 84.17 C7.24 84.08
										 7.74 83.72 8.46 83.67 C8.72 83.66 9.08 83.78 9.39 83.71 C10.01 83.56 10.53 82.21 10.99 81.71
										 C11.45 81.22 12 81.01 12.38 80.56 C12.62 80.45 12.97 80.46 12.99 80.12 C12.89 80.01 12.77
										 79.92 12.65 79.96 ZM24.52 80.54 C22.15 79.25 18.14 78.28 15.63 79.49 C13.59 80.47 10.85
										 82.1 9.92 84.15 C10.79 86.14 9.65 87.97 9.58 89.98 C9.54 91.05 10.1 91.99 10.14 93.16 C9.85
										 93.64 8.94 93.69 8.3 93.66 C8.09 92.63 7.72 91.47 6.61 91.35 C5.07 91.19 3.93 92.43 3.86
										 93.73 C3.78 95.27 5.07 97.81 6.91 97.63 C7.62 97.56 7.79 96.87 8.57 96.88 C8.99 97.69 7.92
										 97.95 7.81 98.52 C7.78 98.67 7.9 99.26 7.96 99.54 C8.3 100.88 9.05 102.6 9.78 103.63 C10.71
										 104.92 12.54 105.1 14.5 105.23 C14.85 104.5 16.14 104.56 16.98 104.76 C15.98 104.36 15.04
										 103.43 14.26 102.59 C13.37 101.64 12.46 100.62 12.42 99.37 C14.11 101.64 15.5 103.63 18.57
										 104.62 C20.89 105.37 23.6 104.27 25.4 103.06 C26.13 102.55 26.57 101.75 27.11 101.02 C29.07
										 98.27 29.99 94.35 29.79 90.55 C29.71 88.98 29.71 87.42 29.16 86.37 C28.6 85.26 26.69 84.27
										 25.56 85.28 C25.36 84.19 26.49 83.54 27.83 83.93 C26.88 82.73 25.88 81.29 24.52 80.54 ZM28.93
										 115.91 C30.77 115.03 34.23 113.52 35.39 115.92 C35.82 116.8 36.32 118.3 36.53 119.22 C36.85
										 120.51 36.2 123.22 34.83 123.65 C33.63 124.03 32.21 124.01 30.76 123.72 C30.59 123.58 30.4
										 123.34 30.27 123.1 C29.22 123.06 28.25 123.15 27.43 123.56 C27.51 124.31 26.99 124.43 26.5
										 124.57 C26.14 125.96 27.23 127.78 26.97 129.04 C26.78 129.94 25.64 130.08 24.8 130.25 C24.77
										 130.76 24.83 131.17 24.89 131.6 C24.7 132.29 23.84 132.67 23.02 132.77 C20.33 133.08 16.24
										 133.23 13.67 132.33 C12.94 130.61 12.38 128.52 11.77 126.56 C9.25 126.82 7.21 125.51 5.28
										 124.64 C4.62 124.35 3.7 124.18 3.45 123.66 C3.21 123.17 3.31 122.21 3.24 121.31 C3.09 119.02
										 2.97 116.79 2.34 114.44 C2.06 113.38 1.57 112.45 1.23 111.44 C0.91 110.48 0.36 109.32 0.21
										 108.38 C0 106.99 1.35 106.91 2.22 106.3 C3.56 105.37 4.62 104.86 6.06 104.01 C6.49 103.75
										 7.79 103.13 7.93 102.83 C8.23 102.26 7.43 101.44 7.22 100.99 C6.88 100.27 6.7 99.67 6.65
										 98.96 C5.45 98.77 4.52 98.07 3.96 97.28 C3.04 95.97 2.41 93.54 3.2 91.71 C3.27 91.56 3.57
										 91.27 3.62 91.05 C3.71 90.61 3.45 90.03 3.43 89.56 C3.35 87.16 3.85 85.1 5.52 84.37 C6.19
										 81.76 8.61 80.9 10.88 79.6 C11.74 79.11 12.67 78.81 13.64 78.46 C17.13 77.22 22.46 77.46
										 25.34 79.57 C26.56 80.47 28.52 82.36 29.22 83.74 C31.07 87.36 30.94 93.4 29.64 97.81 C29.47
										 98.41 29.22 99.28 28.87 99.98 C28.62 100.48 27.86 101.47 27.96 101.91 C28.05 102.36 29.7
										 103.58 30.04 103.9 C30.68 104.5 31.89 105.28 31.98 106.04 C32.09 106.83 31.62 107.92 31.38
										 108.69 C30.6 111.26 29.82 113.63 28.93 115.91 Z" class="st6"/>
						</g>
					</g>
					<g id="group2350-150" transform="translate(16.3973,-33.413)">
						<title>Sheet.2350</title>
						<g id="shape2351-151">
							<title>Sheet.2351</title>
							<path d="M0.19 131.56 C0.29 131.43 0.84 131.23 1.62 131.6 C1.62 131.6 0.7 131.75 0.78 133.23 L0.39 133.15
										 C0.39 133.15 0 131.81 0.19 131.56 Z" class="st8"/>
						</g>
						<g id="shape2352-153">
							<title>Sheet.2352</title>
							<path d="M0.19 131.56 C0.29 131.43 0.84 131.23 1.62 131.6 C1.62 131.6 0.7 131.75 0.78 133.23 L0.39 133.15
										 C0.39 133.15 0 131.81 0.19 131.56 Z" class="st6"/>
						</g>
					</g>
				</g>
			</g>
		</g>
	</g>
</svg>
