<?xml version="1.0" encoding="UTF-8" standalone="no"?>
<!DOCTYPE svg PUBLIC "-//W3C//DTD SVG 1.1//EN" "http://www.w3.org/Graphics/SVG/1.1/DTD/svg11.dtd">
<!-- Generated by Microsoft Visio, SVG Export Key Vault Secret.svg Page-1 -->
<svg xmlns="http://www.w3.org/2000/svg" xmlns:xlink="http://www.w3.org/1999/xlink" xmlns:ev="http://www.w3.org/2001/xml-events"
		width="1.41732in" height="2.05299in" viewBox="0 0 102.047 147.815" xml:space="preserve" color-interpolation-filters="sRGB"
		class="st6">
	<style type="text/css">
	<![CDATA[
		.st1 {fill:#59b4d9;fill-opacity:0.8;stroke:none;stroke-linecap:butt;stroke-width:20.2562}
		.st2 {fill:#3999c6;stroke:none;stroke-linecap:butt;stroke-width:20.2562}
		.st3 {fill:#ffffff;stroke:none;stroke-linecap:butt;stroke-width:20.2562}
		.st4 {fill:#fcd116;stroke:none;stroke-linecap:butt;stroke-width:20.2562}
		.st5 {fill:#ff8c00;fill-opacity:0.3;stroke:none;stroke-linecap:butt;stroke-width:20.2562}
		.st6 {fill:none;fill-rule:evenodd;font-size:12px;overflow:visible;stroke-linecap:square;stroke-miterlimit:3}
	]]>
	</style>

	<g>
		<title>Page-1</title>
		<g id="group2236-1" transform="translate(25.5118,-70.8661)">
			<title>Key Vault Secret</title>
			<g id="group2237-2">
				<title>Sheet.2237</title>
				<g id="shape2238-3" transform="translate(8.8037,-23.9977)">
					<title>Sheet.2238</title>
					<path d="M0 123.82 L3.38 123.82 L3.38 127.25 L0 127.25 L0 123.82 ZM6.76 123.82 L10.13 123.82 L10.13 127.25 L6.76
								 127.25 L6.76 123.82 ZM13.51 123.82 L16.89 123.82 L16.89 127.25 L13.51 127.25 L13.51 123.82 ZM20.27
								 123.82 L23.64 123.82 L23.64 127.25 L20.27 127.25 L20.27 123.82 ZM0 130.67 L3.38 130.67 L3.38 134.1
								 L0 134.1 L0 130.67 ZM6.76 130.67 L10.13 130.67 L10.13 134.1 L6.76 134.1 L6.76 130.67 ZM13.51 130.67
								 L16.89 130.67 L16.89 134.1 L13.51 134.1 L13.51 130.67 ZM20.27 130.67 L23.64 130.67 L23.64 134.1
								 L20.27 134.1 L20.27 130.67 ZM0 137.53 L3.38 137.53 L3.38 140.96 L0 140.96 L0 137.53 ZM6.76 137.53
								 L10.13 137.53 L10.13 140.96 L6.76 140.96 L6.76 137.53 ZM13.51 137.53 L16.89 137.53 L16.89 140.96
								 L13.51 140.96 L13.51 137.53 ZM20.27 137.53 L23.64 137.53 L23.64 140.96 L20.27 140.96 L20.27 137.53
								 ZM0 144.39 L3.38 144.39 L3.38 147.82 L0 147.82 L0 144.39 ZM6.76 144.39 L10.13 144.39 L10.13 147.82
								 L6.76 147.82 L6.76 144.39 ZM13.51 144.39 L16.89 144.39 L16.89 147.82 L13.51 147.82 L13.51 144.39
								 ZM20.27 144.39 L23.64 144.39 L23.64 147.82 L20.27 147.82 L20.27 144.39 Z" class="st1"/>
				</g>
				<g id="shape2239-5" transform="translate(0,-6.98334)">
					<title>Sheet.2239</title>
					<path d="M37.67 101.93 L37.67 143.99 L3.77 143.99 L3.77 101.93 L37.67 101.93 ZM41.44 98.11 L0 98.11 L0 147.82
								 L41.44 147.82 L41.44 98.11 Z" class="st2"/>
				</g>
				<g id="shape2240-7" transform="translate(29.0693,-22.2836)">
					<title>Sheet.2240</title>
					<path d="M11.82 143.61 C11.82 140 9.05 137.07 5.91 137.07 C2.78 137.07 0 140 0 143.61 L0 147.82 L11.82 147.82
								 L11.82 143.61 Z" class="st3"/>
				</g>
				<g id="shape2241-9" transform="translate(18.9365,0)">
					<title>Sheet.2241</title>
					<path d="M10.13 121.33 C10.13 117.74 12.91 114.82 16.04 114.82 C19.18 114.82 21.95 117.74 21.95 121.33 L21.95
								 125.53 L27.02 125.53 L27.02 121.33 C27.02 114.87 21.68 109.58 16.04 109.58 C10.4 109.58 5.07 114.87
								 5.07 121.33 L5.07 125.53 L10.13 125.53 L10.13 121.33 ZM32.09 129.1 C32.09 127.13 30.45 125.53 28.44
								 125.53 L3.65 125.53 C1.63 125.53 0 127.13 0 129.1 L0 143.46 C0 145.43 1.63 147.82 3.65 147.82 L28.44
								 147.82 C30.45 147.82 32.09 145.43 32.09 143.46 L32.09 129.1 Z" class="st4"/>
				</g>
				<g id="shape2242-11" transform="translate(18.9365,0)">
					<title>Sheet.2242</title>
					<path d="M10.13 121.33 C10.13 117.74 12.91 114.82 16.04 114.82 C19.18 114.82 21.95 117.74 21.95 121.33 L21.95
								 125.53 L27.02 125.53 L27.02 121.33 C27.02 114.87 21.68 109.58 16.04 109.58 C10.4 109.58 5.07 114.87
								 5.07 121.33 L5.07 125.53 L10.13 125.53 L10.13 121.33 ZM32.09 129.1 C32.09 127.13 30.45 125.53 28.44
								 125.53 L3.65 125.53 C1.63 125.53 0 127.13 0 129.1 L0 143.46 C0 145.43 1.63 147.82 3.65 147.82 L28.44
								 147.82 C30.45 147.82 32.09 145.43 32.09 143.46 L32.09 129.1 Z" class="st5"/>
				</g>
			</g>
		</g>
	</g>
</svg>
