<?xml version="1.0" encoding="UTF-8" standalone="no"?>
<!DOCTYPE svg PUBLIC "-//W3C//DTD SVG 1.1//EN" "http://www.w3.org/Graphics/SVG/1.1/DTD/svg11.dtd">
<!-- Generated by Microsoft Visio, SVG Export Key Vault.svg Page-1 -->
<svg xmlns="http://www.w3.org/2000/svg" xmlns:xlink="http://www.w3.org/1999/xlink" xmlns:ev="http://www.w3.org/2001/xml-events"
		width="1.74726in" height="2.24388in" viewBox="0 0 125.802 161.559" xml:space="preserve" color-interpolation-filters="sRGB"
		class="st5">
	<style type="text/css">
	<![CDATA[
		.st1 {fill:url(#grad3-6);stroke:none;stroke-linecap:butt;stroke-width:34}
		.st2 {fill:#ffffff;stroke:none;stroke-linecap:butt;stroke-width:34}
		.st3 {fill:url(#grad7-12);stroke:none;stroke-linecap:butt;stroke-width:34}
		.st4 {fill:#ff9300;fill-opacity:0.75;stroke:none;stroke-linecap:butt;stroke-width:34}
		.st5 {fill:none;fill-rule:evenodd;font-size:12px;overflow:visible;stroke-linecap:square;stroke-miterlimit:3}
	]]>
	</style>

	<defs id="Patterns_And_Gradients">
		<radialGradient id="grad3-6" cx="0.5" cy="0.5" r="0.73">
			<stop offset="0.18" stop-color="#5ea0ef" stop-opacity="1"/>
			<stop offset="0.56" stop-color="#5c9fee" stop-opacity="1"/>
			<stop offset="0.69" stop-color="#559ced" stop-opacity="1"/>
			<stop offset="0.78" stop-color="#4a97e9" stop-opacity="1"/>
			<stop offset="0.86" stop-color="#3990e4" stop-opacity="1"/>
			<stop offset="0.93" stop-color="#2387de" stop-opacity="1"/>
			<stop offset="0.99" stop-color="#087bd6" stop-opacity="1"/>
			<stop offset="1" stop-color="#0078d4" stop-opacity="1"/>
		</radialGradient>
		<radialGradient id="grad7-12" cx="0" cy="0" r="1.4">
			<stop offset="0.27" stop-color="#ffd70f" stop-opacity="1"/>
			<stop offset="0.49" stop-color="#ffcb12" stop-opacity="1"/>
			<stop offset="0.88" stop-color="#feac19" stop-opacity="1"/>
			<stop offset="1" stop-color="#fea11b" stop-opacity="1"/>
		</radialGradient>
	</defs>
	<g>
		<title>Page-1</title>
		<g id="group2249-1" transform="translate(37.9442,-70.8661)">
			<title>Key Vault</title>
			<g id="group2250-2">
				<title>Sheet.2250</title>
				<g id="shape2251-3" transform="translate(4.5208,-2.26829)">
					<title>Sheet.2251</title>
					<path d="M20.44 107.13 A28.9012 29.2051 -180 1 0 49.34 136.34 A28.9352 29.2395 -180 0 0 20.44 107.13 ZM20.44
								 161.56 A24.9571 25.2195 0 1 1 45.39 136.34 A24.9571 25.2195 0 0 1 20.44 161.56 Z" class="st1"/>
				</g>
				<g id="shape2252-7" transform="translate(0,-2.26829)">
					<title>Sheet.2252</title>
					<ellipse cx="24.9571" cy="136.34" rx="24.9571" ry="25.2195" class="st2"/>
				</g>
				<g id="shape2253-9" transform="translate(8.04856,0)">
					<title>Sheet.2253</title>
					<path d="M32.01 128.33 A6.25626 6.32205 -180 0 0 32.01 119.43 L21.29 108.58 A6.22226 6.28769 -180 0 0 12.52 108.58
								 L1.81 119.43 A6.25626 6.32205 -180 0 0 1.81 128.33 L10.72 137.51 A1.73407 1.75231 0 0 1 11.23 138.74
								 L11.23 155.51 A2.14209 2.16462 -180 0 0 11.84 157.02 L15.92 161.15 A1.39406 1.40872 -180 0 0 17.89
								 161.15 L21.84 157.16 L24.15 154.82 a0.850036 0.858975 -180 0 0 3.55271E-15 -1.16821 L22.48 151.97
								 a0.918039 0.927693 0 0 1 -3.55271E-15 -1.27128 L24.15 149.02 a0.850036 0.858975 -180 0 0 1.77636E-14
								 -1.16821 L22.48 146.17 a0.918039 0.927693 0 0 1 2.4869E-14 -1.27128 L24.15 143.21 a0.850036 0.858975
								 -180 0 0 3.19744E-14 -1.16821 L21.84 139.67 L21.84 138.81 L32.01 128.33 ZM16.91 111.22 A3.51915
								 3.55615 0 0 1 16.91 118.33 A3.51915 3.55615 0 1 1 16.91 111.22 Z" class="st3"/>
				</g>
				<g id="shape2254-13" transform="translate(21.9309,-5.71921)">
					<title>Sheet.2254</title>
					<path d="M0.24 161.44 a0.782033 0.790257 -180 0 0 1.29205 -0.584103 L1.53 147.11 a0.816034 0.824616 -180 0 0
								 -0.374016 -0.68718 a0.748031 0.755898 -180 0 0 -1.15605 0.68718 L0 160.85 a0.95204 0.962052 -180
								 0 0 0.23801 0.584103 Z" class="st4"/>
				</g>
				<g id="shape2255-15" transform="translate(16.3887,-36.4211)">
					<title>Sheet.2255</title>
					<path d="M0 160.6 a0.952062 0.962074 -180 0 0 0.95204 0.962052 L16.63 161.56 a0.952062 0.962074 -180 0 0 0.95204
								 -0.962052 L17.58 160.43 a0.952062 0.962074 -180 0 0 -0.95204 -0.962052 L0.95 159.46 a0.952062 0.962074
								 -180 0 0 -0.95204 0.962052 L0 160.6 Z" class="st4"/>
				</g>
				<g id="shape2256-17" transform="translate(16.3887,-33.0196)">
					<title>Sheet.2256</title>
					<path d="M0 160.6 a0.952062 0.962074 -180 0 0 0.95204 0.962052 L16.63 161.56 a0.952062 0.962074 -180 0 0 0.95204
								 -0.962052 L17.58 160.43 a0.952062 0.962074 -180 0 0 -0.95204 -0.962052 L0.95 159.46 a0.952062 0.962074
								 -180 0 0 -0.95204 0.962052 L0 160.6 Z" class="st4"/>
				</g>
			</g>
		</g>
	</g>
</svg>
