<?xml version="1.0" encoding="UTF-8" standalone="no"?>
<!DOCTYPE svg PUBLIC "-//W3C//DTD SVG 1.1//EN" "http://www.w3.org/Graphics/SVG/1.1/DTD/svg11.dtd">
<!-- Generated by Microsoft Visio, SVG Export Managed Application Center.svg Page-1 -->
<svg xmlns="http://www.w3.org/2000/svg" xmlns:xlink="http://www.w3.org/1999/xlink" xmlns:ev="http://www.w3.org/2001/xml-events"
		width="1.5748in" height="1.75858in" viewBox="0 0 113.386 126.618" xml:space="preserve" color-interpolation-filters="sRGB"
		class="st7">
	<style type="text/css">
	<![CDATA[
		.st1 {fill:#3999c6;stroke:none;stroke-linecap:butt;stroke-width:12.24}
		.st2 {fill:#62117a;fill-opacity:0.15;stroke:none;stroke-linecap:butt;stroke-width:12.24}
		.st3 {fill:#59b4d9;stroke:none;stroke-linecap:butt;stroke-width:12.24}
		.st4 {fill:#ffffff;fill-opacity:0.2;stroke:none;stroke-linecap:butt;stroke-width:12.24}
		.st5 {fill:#ffffff;fill-opacity:0.4;stroke:none;stroke-linecap:butt;stroke-width:12.24}
		.st6 {fill:#804998;stroke:none;stroke-linecap:butt;stroke-width:12.24}
		.st7 {fill:none;fill-rule:evenodd;font-size:12px;overflow:visible;stroke-linecap:square;stroke-miterlimit:3}
	]]>
	</style>

	<g>
		<title>Page-1</title>
		<g id="group2124-1" transform="translate(28.3465,-66.189)">
			<title>Managed Application Center</title>
			<g id="group2125-2">
				<title>g16</title>
				<g id="shape2126-3" transform="translate(28.4135,-2.92529)">
					<title>path4</title>
					<path d="M0.25 114.41 C0.3 114.41 0.34 114.4 0.38 114.38 L8.84 109.76 a0.240819 0.237409 -180 0 0 0.13088 -0.210572
								 L8.98 100.27 a0.248148 0.244635 -180 0 0 -0.13088 -0.212636 a0.275371 0.271472 -180 0 0 -0.258618
								 2.41585E-13 L0.13 104.68 a0.247101 0.243602 -180 0 0 -0.125645 0.211604 L0 114.17 C0 114.25 0.05
								 114.33 0.13 114.38 C0.17 114.4 0.21 114.41 0.25 114.41 ZM0.25 126.62 C0.3 126.62 0.34 126.61 0.38
								 126.59 L8.84 121.97 a0.240819 0.237409 -180 0 0 0.13088 -0.210572 L8.98 112.48 a0.248148 0.244635
								 -180 0 0 -0.13088 -0.212636 a0.275371 0.271472 -180 0 0 -0.258618 0 L0.13 116.89 a0.247101 0.243602
								 -180 0 0 -0.125645 0.211604 L0 126.38 C0 126.46 0.05 126.54 0.13 126.59 C0.17 126.61 0.21 126.62
								 0.25 126.62 ZM11.22 108.3 C11.27 108.3 11.31 108.29 11.35 108.27 L19.81 103.65 a0.239772 0.236377
								 -180 0 0 0.129833 -0.210572 L19.94 94.17 a0.248148 0.244635 -180 0 0 -0.13088 -0.212636 a0.275371
								 0.271472 -180 0 0 -0.258618 -2.41585E-13 L11.09 98.58 a0.247101 0.243602 -180 0 0 -0.125645 0.211604
								 L10.97 108.06 C10.97 108.15 11.02 108.23 11.09 108.27 a0.262807 0.259086 -180 0 0 0.127739 0.0319986
								 ZM11.22 120.51 C11.27 120.51 11.31 120.5 11.35 120.48 L19.81 115.86 a0.238725 0.235345 -180 0 0
								 0.129833 -0.210572 L19.94 106.38 a0.248148 0.244635 -180 0 0 -0.13088 -0.212636 a0.275371 0.271472
								 -180 0 0 -0.258618 -2.84217E-14 L11.09 110.79 a0.247101 0.243602 -180 0 0 -0.125645 0.211604 L10.97
								 120.27 C10.97 120.36 11.02 120.44 11.09 120.48 a0.262807 0.259086 -180 0 0 0.127739 0.0319986 Z"
							class="st1"/>
				</g>
				<g id="shape2127-5" transform="translate(28.4135,-2.92529)">
					<title>path6</title>
					<path d="M0.25 126.62 C0.3 126.62 0.34 126.61 0.38 126.59 L8.84 121.97 a0.240819 0.237409 -180 0 0 0.13088 -0.210572
								 L8.98 112.48 a0.248148 0.244635 -180 0 0 -0.13088 -0.212636 a0.275371 0.271472 -180 0 0 -0.258618
								 0 L0.13 116.89 a0.247101 0.243602 -180 0 0 -0.125645 0.211604 L0 126.38 C0 126.46 0.05 126.54 0.13
								 126.59 C0.17 126.61 0.21 126.62 0.25 126.62 ZM11.22 120.51 C11.27 120.51 11.31 120.5 11.35 120.48
								 L19.81 115.86 a0.238725 0.235345 -180 0 0 0.129833 -0.210572 L19.94 106.38 a0.248148 0.244635 -180
								 0 0 -0.13088 -0.212636 a0.275371 0.271472 -180 0 0 -0.258618 -2.84217E-14 L11.09 110.79 a0.247101
								 0.243602 -180 0 0 -0.125645 0.211604 L10.97 120.27 C10.97 120.36 11.02 120.44 11.09 120.48 a0.262807
								 0.259086 -180 0 0 0.127739 0.0319986 ZM0.25 114.41 C0.3 114.41 0.34 114.4 0.38 114.38 L8.84 109.76
								 a0.240819 0.237409 -180 0 0 0.13088 -0.210572 L8.98 100.27 a0.248148 0.244635 -180 0 0 -0.13088
								 -0.212636 a0.275371 0.271472 -180 0 0 -0.258618 4.26326E-14 L0.13 104.68 a0.247101 0.243602 -180
								 0 0 -0.125645 0.211604 L0 114.17 C0 114.25 0.05 114.33 0.13 114.38 C0.17 114.4 0.21 114.41 0.25
								 114.41 ZM11.22 108.3 C11.27 108.3 11.31 108.29 11.35 108.27 L19.81 103.65 a0.239772 0.236377 -180
								 0 0 0.129833 -0.210572 L19.94 94.17 a0.248148 0.244635 -180 0 0 -0.13088 -0.212636 a0.275371 0.271472
								 -180 0 0 -0.258618 -2.41585E-13 L11.09 98.58 a0.247101 0.243602 -180 0 0 -0.125645 0.211604 L10.97
								 108.06 C10.97 108.15 11.02 108.23 11.09 108.27 a0.262807 0.259086 -180 0 0 0.127739 0.0319986 Z"
							class="st2"/>
				</g>
				<g id="shape2128-7" transform="translate(6.47488,-2.92529)">
					<title>path8</title>
					<path d="M19.69 114.41 a0.269089 0.265279 0 0 1 -0.13088 -0.0319986 L11.1 109.76 a0.240819 0.237409 0 0 1 -0.13088
								 -0.210572 L10.97 100.27 C10.97 100.19 11.02 100.11 11.1 100.06 a0.275371 0.271472 0 0 1 0.258618
								 -7.10543E-14 L19.82 104.68 C19.9 104.73 19.94 104.81 19.94 104.89 L19.94 114.17 a0.245007 0.241538
								 0 0 1 -0.125645 0.210572 a0.268042 0.264247 0 0 1 -0.126692 0.0319986 ZM19.69 126.62 a0.269089 0.265279
								 0 0 1 -0.13088 -0.0319986 L11.1 121.97 a0.240819 0.237409 0 0 1 -0.13088 -0.210572 L10.97 112.48
								 C10.97 112.4 11.02 112.32 11.1 112.27 a0.275371 0.271472 0 0 1 0.258618 4.26326E-14 L19.82 116.89
								 C19.9 116.94 19.94 117.02 19.94 117.1 L19.94 126.38 a0.245007 0.241538 0 0 1 -0.125645 0.210572
								 a0.268042 0.264247 0 0 1 -0.126692 0.0319986 ZM8.72 108.3 a0.269089 0.265279 0 0 1 -0.13088 -0.0319986
								 L0.13 103.65 a0.239772 0.236377 0 0 1 -0.129833 -0.210572 L0 94.17 C0 94.08 0.05 94 0.13 93.96 a0.275371
								 0.271472 0 0 1 0.258618 -1.42109E-14 L8.85 98.58 C8.93 98.62 8.98 98.7 8.98 98.79 L8.98 108.06 a0.245007
								 0.241538 0 0 1 -0.125645 0.210572 a0.262807 0.259086 0 0 1 -0.127739 0.0319986 ZM8.72 120.51 a0.269089
								 0.265279 0 0 1 -0.13088 -0.0319986 L0.13 115.86 a0.238725 0.235345 0 0 1 -0.129833 -0.210572 L0
								 106.38 C0 106.29 0.05 106.21 0.13 106.17 a0.275371 0.271472 0 0 1 0.258618 -2.84217E-14 L8.85 110.79
								 C8.93 110.83 8.98 110.91 8.98 111 L8.98 120.27 a0.245007 0.241538 0 0 1 -0.125645 0.210572 a0.262807
								 0.259086 0 0 1 -0.127739 0.0319986 ZM12.4 97.49 a0.248148 0.244635 0 0 1 0.0942334 -0.0877381 L20.9
								 92.9 a0.261759 0.258053 0 0 1 0.25443 -0.00206443 L29.48 97.37 a0.236631 0.23328 0 0 1 0.124598
								 0.206443 a0.251289 0.247731 0 0 1 -0.129833 0.20541 L21.07 102.28 a0.268042 0.264247 0 0 1 -0.253383
								 -0.00206443 L12.49 97.81 a0.232442 0.229151 0 0 1 -0.125645 -0.201282 a0.245007 0.241538 0 0 1 0.0355993
								 -0.11664 ZM1.43 91.61 a0.245007 0.241538 0 0 1 0.0931864 -0.0877381 L9.84 87.02 a0.257571 0.253925
								 0 0 1 0.252336 -0.00206443 L18.33 91.48 a0.235584 0.232248 0 0 1 0.12355 0.206443 a0.249195 0.245667
								 0 0 1 -0.128786 0.20541 L10.01 96.4 a0.261759 0.258053 0 0 1 -0.250242 -0.00206443 L1.52 91.93 a0.235584
								 0.232248 0 0 1 -0.124598 -0.201282 a0.234536 0.231216 0 0 1 0.0355993 -0.11664 ZM23.59 91.71 a0.245007
								 0.241538 0 0 1 0.0931864 -0.0877381 L32 87.12 a0.257571 0.253925 0 0 1 0.252336 -0.00206443 L40.48
								 91.58 a0.235584 0.232248 0 0 1 0.12355 0.206443 a0.249195 0.245667 0 0 1 -0.128786 0.20541 L32.16
								 96.5 a0.261759 0.258053 0 0 1 -0.250242 -0.00206443 L23.68 92.03 a0.235584 0.232248 0 0 1 -0.124598
								 -0.201282 a0.238725 0.235345 0 0 1 0.0355993 -0.11664 ZM12.44 85.91 a0.253383 0.249796 0 0 1 0.0942334
								 -0.0867059 L20.94 81.39 a0.264901 0.26115 0 0 1 0.25443 -0.00206443 L29.52 85.78 a0.230348 0.227087
								 0 0 1 0.124598 0.202314 a0.247101 0.243602 0 0 1 -0.129833 0.202314 L21.11 90.61 a0.274324 0.27044
								 0 0 1 -0.253383 -0.00206443 L12.53 86.22 a0.228254 0.225023 0 0 1 -0.125645 -0.198185 a0.240819
								 0.237409 0 0 1 0.0355993 -0.114576 Z" class="st3"/>
				</g>
				<g id="shape2129-9" transform="translate(7.87372,-27.2314)">
					<title>path10</title>
					<path d="M11 121.8 a0.248148 0.244635 0 0 1 0.0942334 -0.0877381 L19.5 117.21 a0.261759 0.258053 0 0 1 0.25443
								 -0.00206443 L28.08 121.67 a0.236631 0.23328 0 0 1 0.124598 0.206443 a0.251289 0.247731 0 0 1 -0.129833
								 0.20541 L19.67 126.59 a0.268042 0.264247 0 0 1 -0.253383 -0.00206443 L11.09 122.12 a0.232442 0.229151
								 0 0 1 -0.125645 -0.201282 a0.245007 0.241538 0 0 1 0.0355993 -0.11664 ZM0.04 115.92 a0.245007 0.241538
								 0 0 1 0.0931864 -0.0877381 L8.44 111.33 a0.257571 0.253925 0 0 1 0.252336 -0.00206443 L16.93 115.79
								 a0.235584 0.232248 0 0 1 0.12355 0.206443 a0.249195 0.245667 0 0 1 -0.128786 0.20541 L8.61 120.71
								 a0.261759 0.258053 0 0 1 -0.250242 -0.00206443 L0.12 116.24 a0.235584 0.232248 0 0 1 -0.124598 -0.201282
								 a0.234536 0.231216 0 0 1 0.0355993 -0.11664 ZM22.19 116.02 a0.245007 0.241538 0 0 1 0.0931864 -0.0877381
								 L30.6 111.42 a0.257571 0.253925 0 0 1 0.252336 -0.00206443 L39.08 115.89 a0.235584 0.232248 0 0
								 1 0.12355 0.206443 a0.249195 0.245667 0 0 1 -0.128786 0.20541 L30.76 120.8 a0.261759 0.258053 0
								 0 1 -0.250242 -0.00206443 L22.28 116.33 a0.235584 0.232248 0 0 1 -0.124598 -0.201282 a0.238725 0.235345
								 0 0 1 0.0355993 -0.11664 ZM11.04 110.21 a0.253383 0.249796 0 0 1 0.0942334 -0.0867059 L19.54 105.69
								 a0.264901 0.26115 0 0 1 0.25443 -0.00206443 L28.12 110.09 a0.230348 0.227087 0 0 1 0.124598 0.202314
								 a0.247101 0.243602 0 0 1 -0.129833 0.202314 L19.71 114.92 a0.274324 0.27044 0 0 1 -0.253383 -0.00206443
								 L11.13 110.52 a0.228254 0.225023 0 0 1 -0.125645 -0.198185 a0.240819 0.237409 0 0 1 0.0355993 -0.114576
								 Z" class="st4"/>
				</g>
				<g id="shape2130-11" transform="translate(15.0805,-4.78844)">
					<title>path12</title>
					<path d="M33.28 96.03 C33.28 95.94 33.2 95.87 33.17 95.84 L33.04 95.74 C31.24 100.43 26.42 107.21 17.91 113.55
								 C11.06 118.65 4.74 121.33 0 122.4 L7.64 126.62 C12.08 124.8 16.74 122.15 21.2 118.82 C26.12 115.15
								 30.22 111.14 33.28 107.17 L33.28 96.03 Z" class="st5"/>
				</g>
				<g id="shape2131-13">
					<title>path14</title>
					<path d="M52.14 83.58 C49.43 79.9 43.1 79.56 35.54 82.03 L39.33 84.04 C44.4 82.83 48.11 83.31 49.37 85.01 C51.85
								 88.39 46.96 99.65 33.62 109.58 C20.29 119.52 8.17 120.94 5.68 117.56 C4.78 116.33 4.86 114.06 5.95
								 111.2 L5.95 104.16 C1.48 110.66 0 116.78 2.69 120.43 C7.24 126.62 22 123.38 35.65 113.21 C49.31
								 103.03 56.69 89.77 52.14 83.58 Z" class="st6"/>
				</g>
			</g>
		</g>
	</g>
</svg>
