<?xml version="1.0" encoding="UTF-8" standalone="no"?>
<!DOCTYPE svg PUBLIC "-//W3C//DTD SVG 1.1//EN" "http://www.w3.org/Graphics/SVG/1.1/DTD/svg11.dtd">
<!-- Generated by Microsoft Visio, SVG Export Managed Disk Standard HDD.svg Page-1 -->
<svg xmlns="http://www.w3.org/2000/svg" xmlns:xlink="http://www.w3.org/1999/xlink" xmlns:ev="http://www.w3.org/2001/xml-events"
		width="1.5748in" height="1.65551in" viewBox="0 0 113.386 119.197" xml:space="preserve" color-interpolation-filters="sRGB"
		class="st4">
	<style type="text/css">
	<![CDATA[
		.st1 {fill:#7fba00;stroke:none;stroke-linecap:butt;stroke-width:0.749999}
		.st2 {fill:#b8d432;stroke:none;stroke-linecap:butt;stroke-width:0.749999}
		.st3 {fill:#ffffff;fill-opacity:0.25;stroke:none;stroke-linecap:butt;stroke-width:0.749999}
		.st4 {fill:none;fill-rule:evenodd;font-size:12px;overflow:visible;stroke-linecap:square;stroke-miterlimit:3}
	]]>
	</style>

	<g>
		<title>Page-1</title>
		<g id="group2061-1" transform="translate(28.3465,-66.189)">
			<title>Managed Disk Standard HDD</title>
			<g id="group2062-2">
				<title>Page-1</title>
				<g id="group2063-3">
					<title>Managed Disk Standard HDD</title>
					<g id="group2064-4">
						<title>Sheet.2064</title>
						<g id="shape2065-5">
							<title>Sheet.2065</title>
							<path d="M56.69 108.93 C56.69 114.6 44 119.2 28.35 119.2 C12.69 119.2 0 114.6 0 108.93 L0 103.4 L56.69
										 103.4 L56.69 108.93 Z" class="st1"/>
						</g>
					</g>
					<g id="group2066-7" transform="translate(0,-5.53254)">
						<title>Sheet.2066</title>
						<g id="shape2067-8">
							<title>Sheet.2067</title>
							<path d="M56.69 108.93 C56.69 114.6 44 119.2 28.35 119.2 C12.69 119.2 0 114.6 0 108.93 C0 103.26 12.69
										 98.67 28.35 98.67 C44 98.67 56.69 103.26 56.69 108.93 Z" class="st2"/>
						</g>
					</g>
					<g id="group2068-10" transform="translate(19.2573,-13.659)">
						<title>Sheet.2068</title>
						<g id="shape2069-11">
							<title>Sheet.2069</title>
							<path d="M18.18 116.47 C18.18 117.98 14.11 119.2 9.08 119.2 C4.07 119.2 0 117.98 0 116.47 C0 114.96 4.07
										 113.74 9.08 113.74 C14.11 113.74 18.18 114.96 18.18 116.47 Z" class="st1"/>
						</g>
					</g>
					<g id="group2070-13" transform="translate(30.1015,-18.2574)">
						<title>Sheet.2070</title>
						<g id="shape2071-14">
							<title>Sheet.2071</title>
							<path d="M18.74 114.63 C14.76 113.12 9.55 112.05 3.68 111.64 L0 118.45 C1.81 118.56 3.43 118.82 4.68
										 119.2 L18.74 114.63 Z" class="st3"/>
						</g>
					</g>
					<g id="group2072-16" transform="translate(6.69199,-5.66746)">
						<title>Sheet.2072</title>
						<g id="shape2073-17">
							<title>Sheet.2073</title>
							<path d="M0 115.75 C4.08 117.49 9.75 118.74 16.2 119.2 L20.5 111.24 C18.71 111.17 17.08 110.95 15.78
										 110.61 L0 115.75 Z" class="st3"/>
						</g>
					</g>
					<g id="group2074-19" transform="translate(0,-22.1256)">
						<title>Sheet.2074</title>
						<g id="shape2075-20">
							<title>Sheet.2075</title>
							<path d="M56.69 108.93 C56.69 114.6 44 119.2 28.35 119.2 C12.69 119.2 0 114.6 0 108.93 L0 103.4 L56.69
										 103.4 L56.69 108.93 Z" class="st1"/>
						</g>
					</g>
					<g id="group2076-22" transform="translate(0,-27.6582)">
						<title>Sheet.2076</title>
						<g id="shape2077-23">
							<title>Sheet.2077</title>
							<path d="M56.69 108.93 C56.69 114.6 44 119.2 28.35 119.2 C12.69 119.2 0 114.6 0 108.93 C0 103.26 12.69
										 98.67 28.35 98.67 C44 98.67 56.69 103.26 56.69 108.93 Z" class="st2"/>
						</g>
					</g>
					<g id="group2078-25" transform="translate(19.2573,-35.7846)">
						<title>Sheet.2078</title>
						<g id="shape2079-26">
							<title>Sheet.2079</title>
							<path d="M18.18 116.47 C18.18 117.98 14.11 119.2 9.08 119.2 C4.07 119.2 0 117.98 0 116.47 C0 114.96 4.07
										 113.74 9.08 113.74 C14.11 113.74 18.18 114.96 18.18 116.47 Z" class="st1"/>
						</g>
					</g>
					<g id="group2080-28" transform="translate(30.1015,-40.4397)">
						<title>Sheet.2080</title>
						<g id="shape2081-29">
							<title>Sheet.2081</title>
							<path d="M18.74 114.63 C14.76 113.12 9.55 112.05 3.68 111.64 L0 118.45 C1.81 118.56 3.43 118.82 4.68
										 119.2 L18.74 114.63 Z" class="st3"/>
						</g>
					</g>
					<g id="group2082-31" transform="translate(6.69199,-27.8498)">
						<title>Sheet.2082</title>
						<g id="shape2083-32">
							<title>Sheet.2083</title>
							<path d="M0 115.75 C4.08 117.49 9.75 118.74 16.2 119.2 L20.5 111.24 C18.71 111.17 17.08 110.95 15.78
										 110.61 L0 115.75 Z" class="st3"/>
						</g>
					</g>
				</g>
			</g>
		</g>
	</g>
</svg>
