<?xml version="1.0" encoding="UTF-8" standalone="no"?>
<!DOCTYPE svg PUBLIC "-//W3C//DTD SVG 1.1//EN" "http://www.w3.org/Graphics/SVG/1.1/DTD/svg11.dtd">
<!-- Generated by Microsoft Visio, SVG Export Marketplace.svg Page-1 -->
<svg xmlns="http://www.w3.org/2000/svg" xmlns:xlink="http://www.w3.org/1999/xlink" xmlns:ev="http://www.w3.org/2001/xml-events"
		width="1.61374in" height="2.2439in" viewBox="0 0 116.189 161.561" xml:space="preserve" color-interpolation-filters="sRGB"
		class="st7">
	<style type="text/css">
	<![CDATA[
		.st1 {fill:#50e6ff;stroke:none;stroke-linecap:butt;stroke-width:34}
		.st2 {fill:#9cebff;stroke:none;stroke-linecap:butt;stroke-width:34}
		.st3 {fill:#a3a3a3;stroke:none;stroke-linecap:butt;stroke-width:34}
		.st4 {fill:#767676;stroke:none;stroke-linecap:butt;stroke-width:34}
		.st5 {fill:#32bedd;stroke:none;stroke-linecap:butt;stroke-width:34}
		.st6 {fill:url(#grad0-16);stroke:none;stroke-linecap:butt;stroke-width:34}
		.st7 {fill:none;fill-rule:evenodd;font-size:12px;overflow:visible;stroke-linecap:square;stroke-miterlimit:3}
	]]>
	</style>

	<defs id="Patterns_And_Gradients">
		<linearGradient id="grad0-16" x1="0" y1="0" x2="1" y2="0" gradientTransform="rotate(-90 0.5 0.5)">
			<stop offset="0" stop-color="#cccccc" stop-opacity="1"/>
			<stop offset="0.15" stop-color="#dadada" stop-opacity="1"/>
			<stop offset="0.44" stop-color="#eeeeee" stop-opacity="1"/>
			<stop offset="0.725" stop-color="#fbfbfb" stop-opacity="1"/>
			<stop offset="1" stop-color="#ffffff" stop-opacity="1"/>
		</linearGradient>
	</defs>
	<g>
		<title>Page-1</title>
		<g id="group1985-1" transform="translate(34,-70.8661)">
			<title>Marketplace</title>
			<g id="group1986-2">
				<title>Sheet.1986</title>
				<g id="shape1987-3" transform="translate(40.7745,0)">
					<title>Sheet.1987</title>
					<path d="M3.37 118.89 L0 118.89 L0 161.56 L3.37 155.15 L3.37 118.89 Z" class="st1"/>
				</g>
				<g id="shape1988-5" transform="translate(40.7745,-0.0133348)">
					<title>Sheet.1988</title>
					<path d="M3.39 155.1 L3.37 155.15 L0 161.56 L3.37 158.91 L7.41 155.74 L3.39 155.1 Z" class="st2"/>
				</g>
				<g id="shape1989-7" transform="translate(20.1403,-42.6914)">
					<title>Sheet.1989</title>
					<path d="M2.55 155.23 A5.14792 5.24724 0 0 1 7.87 150.19 A5.14138 5.24058 0 0 1 13.18 155.23 L13.18 161.56 L15.73
								 161.56 L15.73 155.23 A7.8756 8.02755 -180 0 0 -0 155.23 L0 161.56 L2.55 161.56 L2.55 155.23 Z"
							class="st3"/>
				</g>
				<g id="shape1990-9" transform="translate(12.3302,-42.6914)">
					<title>Sheet.1990</title>
					<path d="M2.55 155.23 A5.14138 5.24058 0 0 1 7.85 150.19 A5.14138 5.24058 0 0 1 13.16 155.23 L13.16 161.56 L15.72
								 161.56 L15.72 155.23 A7.70553 7.8542 -180 0 0 7.87 147.56 A7.70553 7.8542 -180 0 0 0 155.23 L0 161.56
								 L2.55 161.56 L2.55 155.23 Z" class="st4"/>
				</g>
				<g id="shape1991-11" transform="translate(0,-0.0133348)">
					<title>Sheet.1991</title>
					<path d="M40.77 118.9 L40.77 161.56 L0 158.27 L1.24 118.9 L40.77 118.9 ZM44.15 118.9 L44.15 155.15 L48.19 155.74
								 L46.95 118.9 L44.15 118.9 Z" class="st5"/>
				</g>
				<g id="shape1992-13" transform="translate(5.30164,-10.9645)">
					<title>Sheet.1992</title>
					<path d="M29.85 155 A7.52237 7.66751 -180 0 0 23.97 147.73 A9.31793 9.49771 -180 0 0 15.26 138.55 A8.10127 8.25758
								 -180 0 0 6.96 144.04 A7.52237 7.66751 -180 0 0 0 151.76 A8.94508 9.11767 -180 0 0 8.35 160.62 C8.6
								 160.62 8.85 160.65 9.09 160.62 L22.7 161.56 A1.30824 1.33348 -180 0 0 23.06 161.53 A6.42999 6.55406
								 -180 0 0 29.85 155 Z" class="st6"/>
				</g>
			</g>
		</g>
	</g>
</svg>
