<?xml version="1.0" encoding="UTF-8" standalone="no"?>
<!DOCTYPE svg PUBLIC "-//W3C//DTD SVG 1.1//EN" "http://www.w3.org/Graphics/SVG/1.1/DTD/svg11.dtd">
<!-- Generated by Microsoft Visio, SVG Export Network Interface.svg Page-1 -->
<svg xmlns="http://www.w3.org/2000/svg" xmlns:xlink="http://www.w3.org/1999/xlink" xmlns:ev="http://www.w3.org/2001/xml-events"
		width="1.73185in" height="2.12183in" viewBox="0 0 124.693 152.772" xml:space="preserve" color-interpolation-filters="sRGB"
		class="st7">
	<style type="text/css">
	<![CDATA[
		.st1 {fill:#ffca00;stroke:none;stroke-linecap:butt;stroke-width:34}
		.st2 {fill:url(#grad0-8);stroke:none;stroke-linecap:butt;stroke-width:34}
		.st3 {fill:#b4ec36;stroke:none;stroke-linecap:butt;stroke-width:34}
		.st4 {fill:#365615;stroke:none;stroke-linecap:butt;stroke-width:34}
		.st5 {fill:#f2f2f2;stroke:none;stroke-linecap:butt;stroke-width:34}
		.st6 {fill:#3b3b3b;stroke:none;stroke-linecap:butt;stroke-width:34}
		.st7 {fill:none;fill-rule:evenodd;font-size:12px;overflow:visible;stroke-linecap:square;stroke-miterlimit:3}
	]]>
	</style>

	<defs id="Patterns_And_Gradients">
		<linearGradient id="grad0-8" x1="0" y1="0" x2="1" y2="0" gradientTransform="rotate(-90 0.5 0.5)">
			<stop offset="0" stop-color="#5e9641" stop-opacity="1"/>
			<stop offset="0.34" stop-color="#6baa42" stop-opacity="1"/>
			<stop offset="0.67" stop-color="#73b743" stop-opacity="1"/>
			<stop offset="1" stop-color="#76bb43" stop-opacity="1"/>
		</linearGradient>
	</defs>
	<g>
		<title>Page-1</title>
		<g id="group1918-1" transform="translate(34,-67.748)">
			<title>Network Interface</title>
			<g id="group1919-2">
				<title>Sheet.1919</title>
				<g id="shape1920-3" transform="translate(51.3238,-3.26551)">
					<title>Sheet.1920</title>
					<path d="M0 109.81 L4.24 109.81 A1.13386 1.15654 0 0 1 5.37 110.97 L5.37 122.87 A1.13386 1.15654 0 0 1 4.24 124.03
								 L0 124.03 L0 109.81 ZM0 130.53 L4.24 130.53 A1.13386 1.15654 0 0 1 5.37 131.68 L5.37 151.62 A1.13386
								 1.15654 0 0 1 4.24 152.77 L0 152.77 L0 130.53 Z" class="st1"/>
				</g>
				<g id="shape1921-5" transform="translate(5.43585,0)">
					<title>Sheet.1921</title>
					<path d="M0 150.42 A2.30112 2.34714 -180 0 0 2.3 152.77 L43.59 152.77 A2.30112 2.34714 -180 0 0 45.89 150.42
								 L45.89 104.1 A2.30112 2.34714 -180 0 0 43.59 101.75 L2.3 101.75 A2.30112 2.34714 -180 0 0 -0 104.1
								 L0 150.42 Z" class="st2"/>
				</g>
				<g id="shape1922-9" transform="translate(15.0069,-12.2457)">
					<title>Sheet.1922</title>
					<path d="M3 152.77 L0.63 152.77 a0.666975 0.680315 0 0 1 -0.633627 -0.714331 L0 123.65 a0.633627 0.646299 0 0
								 1 0.633627 -0.680315 L7.07 122.97 a0.633627 0.646299 0 0 1 0.633627 0.680315 a0.666975 0.680315
								 0 0 1 -0.633627 0.714331 L1.27 124.37 L1.27 151.34 L3 151.34 a0.666975 0.680315 0 0 1 0.633627 0.714331
								 a0.700324 0.714331 0 0 1 -0.633627 0.714331 Z" class="st3"/>
				</g>
				<g id="shape1923-11" transform="translate(11.9389,-8.77606)">
					<title>Sheet.1923</title>
					<path d="M6.4 152.77 L1.07 152.77 a0.666975 0.680315 0 0 1 -0.633627 -0.714331 L0 116.92 a0.666975 0.680315 0
								 0 1 0.200093 -0.510236 a0.53358 0.544252 0 0 1 0.433534 -0.204094 L10.14 116.2 L10.14 117.6 L1.3
								 117.6 L1.7 151.34 L6.4 151.34 L6.4 152.77 ZM26.41 149.64 L21.11 149.64 a0.633627 0.646299 0 0 1
								 -0.466883 -0.23811 a0.600278 0.612283 0 0 1 -0.200093 -0.47622 L20.44 132.29 a0.633627 0.646299
								 0 0 1 0.633627 -0.680315 L24.11 131.61 L24.11 123.96 L25.38 123.96 L25.38 132.26 a0.666975 0.680315
								 0 0 1 -0.600278 0.714331 L21.74 132.97 L21.74 148.01 L26.41 148.01 L26.41 149.64 Z" class="st3"/>
				</g>
				<g id="shape1924-13" transform="translate(21.9101,-37.7575)">
					<title>Sheet.1924</title>
					<path d="M-0 151.89 a0.867088 0.88443 -180 0 0 0.867068 0.884409 L19.61 152.77 a0.867088 0.88443 -180 0 0 0.867068
								 -0.884409 L20.48 143.08 a0.867088 0.88443 -180 0 0 -0.867068 -0.884409 L0.87 142.19 a0.867088 0.88443
								 -180 0 0 -0.867068 0.884409 L0 151.89 Z" class="st4"/>
				</g>
				<g id="shape1925-15" transform="translate(176.947,133.512) rotate(90)">
					<title>Sheet.1925</title>
					<path d="M0 151.89 a0.867088 0.88443 -180 0 0 0.867068 0.884409 L15.47 152.77 a0.867088 0.88443 -180 0 0 0.867068
								 -0.884409 L16.34 149.95 a0.867088 0.88443 -180 0 0 -0.867068 -0.884409 L0.87 149.06 a0.867088 0.88443
								 -180 0 0 -0.867068 0.884409 L0 151.89 Z" class="st4"/>
				</g>
				<g id="shape1926-17" transform="translate(170.744,133.58) rotate(90)">
					<title>Sheet.1926</title>
					<path d="M0 151.89 a0.867088 0.88443 -180 0 0 0.867068 0.884409 L15.47 152.77 a0.867088 0.88443 -180 0 0 0.867068
								 -0.884409 L16.34 149.95 a0.867088 0.88443 -180 0 0 -0.867068 -0.884409 L0.87 149.06 a0.867088 0.88443
								 -180 0 0 -0.867068 0.884409 L0 151.89 Z" class="st4"/>
				</g>
				<g id="shape1927-19" transform="translate(190.686,133.58) rotate(90)">
					<title>Sheet.1927</title>
					<path d="M0 151.89 a0.867088 0.88443 -180 0 0 0.867068 0.884409 L15.47 152.77 a0.867088 0.88443 -180 0 0 0.867068
								 -0.884409 L16.34 149.95 a0.867088 0.88443 -180 0 0 -0.867068 -0.884409 L0.87 149.06 a0.867088 0.88443
								 -180 0 0 -0.867068 0.884409 L0 151.89 Z" class="st5"/>
				</g>
				<g id="shape1928-21" transform="translate(21.9101,-24.8995)">
					<title>Sheet.1928</title>
					<ellipse cx="3.46827" cy="148.962" rx="3.46827" ry="3.80976" class="st5"/>
				</g>
				<g id="shape1929-23" transform="translate(2.79776E-14,-14.4567)">
					<title>Sheet.1929</title>
					<path d="M5.37 152.77 L1.13 152.77 A1.13386 1.15654 0 0 1 -0 151.75 L0 131.82 A1.13386 1.15654 0 0 1 1.13 130.66
								 L5.37 130.66 L5.37 152.77 Z" class="st6"/>
				</g>
			</g>
		</g>
	</g>
</svg>
