<?xml version="1.0" encoding="UTF-8" standalone="no"?>
<!DOCTYPE svg PUBLIC "-//W3C//DTD SVG 1.1//EN" "http://www.w3.org/Graphics/SVG/1.1/DTD/svg11.dtd">
<!-- Generated by Microsoft Visio, SVG Export Network Access.svg Page-1 -->
<svg xmlns="http://www.w3.org/2000/svg" xmlns:xlink="http://www.w3.org/1999/xlink" xmlns:ev="http://www.w3.org/2001/xml-events"
		width="1.5748in" height="1.81961in" viewBox="0 0 113.386 131.012" xml:space="preserve" color-interpolation-filters="sRGB"
		class="st4">
	<style type="text/css">
	<![CDATA[
		.st1 {fill:#7a7a7a;stroke:none;stroke-linecap:butt;stroke-width:12.24}
		.st2 {fill:#57a300;stroke:none;stroke-linecap:butt;stroke-width:12.24}
		.st3 {fill:#3999c6;stroke:none;stroke-linecap:butt;stroke-width:12.24}
		.st4 {fill:none;fill-rule:evenodd;font-size:12px;overflow:visible;stroke-linecap:square;stroke-miterlimit:3}
	]]>
	</style>

	<g>
		<title>Page-1</title>
		<g id="group1930-1" transform="translate(28.3465,-67.748)">
			<title>Network Access</title>
			<g id="group1931-2">
				<title>Sheet.1931</title>
				<g id="shape1932-3" transform="translate(26.6143,-14.8866)">
					<title>Sheet.1932</title>
					<rect x="0" y="100.557" width="3.45625" height="30.4551" class="st1"/>
				</g>
				<g id="shape1933-5" transform="translate(22.1212,-9.20471)">
					<title>Sheet.1933</title>
					<path d="M12.44 124.88 C12.44 128.21 9.6 131.01 6.22 131.01 C2.84 131.01 0 128.21 0 124.88 C0 121.54 2.84 118.74
								 6.22 118.74 C9.6 118.74 12.44 121.54 12.44 124.88 Z" class="st2"/>
				</g>
				<g id="shape1934-7">
					<title>Sheet.1934</title>
					<path d="M33.41 84.99 C33.41 87.7 31.09 89.99 28.34 89.99 C25.59 89.99 23.27 87.7 23.27 84.99 C23.27 82.27 25.59
								 79.99 28.34 79.99 C31.09 79.99 33.41 82.27 33.41 84.99 ZM40.47 131.01 A1.58988 1.56821 0 0 1 39.33
								 130.55 A1.70624 1.68298 0 0 1 39.33 128.18 L51.51 116.17 a0.986184 0.972744 -180 0 0 0.00115208
								 -1.38071 L39.55 103.2 A1.48619 1.46593 0 0 1 39 102.13 C38.98 101.66 39.18 101.19 39.54 100.82 A1.64172
								 1.61935 0 0 1 40.87 100.33 C41.3 100.33 41.71 100.51 42.03 100.82 L53.45 111.78 L56 114.29 C56.51
								 114.92 56.69 115.98 56 116.67 L53.24 119.38 L41.81 130.55 A1.67743 1.65457 0 0 1 40.64 131.01 L40.65
								 131.01 L40.47 131.01 ZM16.05 131.01 A1.67052 1.64776 0 0 1 14.88 130.55 L3.24 119.49 L0.69 116.65
								 C0 115.98 0.17 114.95 0.67 114.32 L3.24 111.78 L14.67 100.82 A1.6325 1.61026 0 0 1 16 100.33 C16.42
								 100.33 16.83 100.51 17.15 100.82 C17.52 101.18 17.71 101.66 17.69 102.13 A1.54379 1.52275 0 0 1
								 17.13 103.23 L5.4 114.79 a0.982728 0.969335 -180 0 0 -0.00115208 1.38071 L17.37 128.18 A1.71315
								 1.6898 0 0 1 17.36 130.55 C17.06 130.85 16.66 131.01 16.23 131.01 L16.05 131.01 Z" class="st3"/>
				</g>
			</g>
		</g>
	</g>
</svg>
