<?xml version="1.0" encoding="UTF-8" standalone="no"?>
<!DOCTYPE svg PUBLIC "-//W3C//DTD SVG 1.1//EN" "http://www.w3.org/Graphics/SVG/1.1/DTD/svg11.dtd">
<!-- Generated by Microsoft Visio, SVG Export O365 - OneNote.svg Page-1 -->
<svg xmlns="http://www.w3.org/2000/svg" xmlns:xlink="http://www.w3.org/1999/xlink" xmlns:ev="http://www.w3.org/2001/xml-events"
		width="1.5748in" height="2.01764in" viewBox="0 0 113.386 145.27" xml:space="preserve" color-interpolation-filters="sRGB"
		class="st10">
	<style type="text/css">
	<![CDATA[
		.st1 {fill:#ca64ea;stroke:none;stroke-linecap:butt;stroke-width:17.7113}
		.st2 {fill:#ae4bd5;stroke:none;stroke-linecap:butt;stroke-width:17.7113}
		.st3 {fill:#9332bf;stroke:none;stroke-linecap:butt;stroke-width:17.7113}
		.st4 {fill:#7719aa;stroke:none;stroke-linecap:butt;stroke-width:17.7113}
		.st5 {fill:#000000;fill-opacity:0.098;stroke:none;stroke-linecap:butt;stroke-width:17.7113}
		.st6 {fill:#000000;fill-opacity:0.2;stroke:none;stroke-linecap:butt;stroke-width:17.7113}
		.st7 {fill:#000000;fill-opacity:0.3;stroke:none;stroke-linecap:butt;stroke-width:17.7113}
		.st8 {fill:#ffffff;stroke:none;stroke-linecap:butt;stroke-width:17.7113}
		.st9 {fill:none;stroke:none;stroke-linecap:butt;stroke-width:17.7113}
		.st10 {fill:none;fill-rule:evenodd;font-size:12px;overflow:visible;stroke-linecap:square;stroke-miterlimit:3}
	]]>
	</style>

	<g>
		<title>Page-1</title>
		<g id="group1666-1" transform="translate(28.3465,-70.8661)">
			<title>O365 - OneNote</title>
			<g id="group1667-2">
				<title>g26</title>
				<g id="shape1668-3" transform="translate(14.1732,-3.54331)">
					<title>path2</title>
					<path d="M2.36 95.66 L40.16 95.66 A2.36161 2.36161 0 0 1 42.52 98.03 L42.52 142.91 A2.36161 2.36161 0 0 1 40.16
								 145.27 L2.36 145.27 A2.36161 2.36161 0 0 1 0 142.91 L0 98.03 A2.36161 2.36161 0 0 1 2.36 95.66 Z"
							class="st1"/>
				</g>
				<g id="shape1669-5" transform="translate(14.1732,-3.54331)">
					<title>path4</title>
					<path d="M42.52 98.03 A2.36161 2.36161 -180 0 0 40.16 95.66 L2.36 95.66 A2.36161 2.36161 -180 0 0 0 98.03 L0
								 142.91 A2.36161 2.36161 -180 0 0 2.36 145.27 L30.12 145.27 L42.52 108.07 L42.52 98.03 Z"
							class="st1"/>
				</g>
				<g id="shape1670-7" transform="translate(44.2913,-22.686)">
					<title>path6</title>
					<path d="M12.4 127.21 L0 127.21 L0 139.61 L6.2 145.27 L12.4 139.61 L12.4 127.21 Z" class="st2"/>
				</g>
				<g id="shape1671-9" transform="translate(44.2913,-9.93012)">
					<title>path8</title>
					<path d="M12.4 126.85 L0 126.85 L0 139.26 L6.2 145.27 L12.4 139.26 L12.4 126.85 Z" class="st3"/>
				</g>
				<g id="shape1672-11" transform="translate(44.2913,-3.54331)">
					<title>path10</title>
					<path d="M0 132.87 L12.4 132.87 L12.4 142.91 A2.36161 2.36161 0 0 1 10.04 145.27 L0 145.27 L0 132.87 Z"
							class="st4"/>
				</g>
				<g id="shape1673-13" transform="translate(14.1732,-10.6299)">
					<title>path12</title>
					<path d="M15.35 111.61 L0 111.61 L0 145.27 L15.35 145.27 A2.3687 2.3687 -180 0 0 17.72 142.91 L17.72 113.97 A2.3687
								 2.3687 -180 0 0 15.35 111.61 Z" class="st5"/>
				</g>
				<g id="shape1674-15" transform="translate(14.1732,-8.85827)">
					<title>path14</title>
					<path d="M13.58 111.61 L0 111.61 L0 145.27 L13.58 145.27 A2.3687 2.3687 -180 0 0 15.94 142.91 L15.94 113.97 A2.3687
								 2.3687 -180 0 0 13.58 111.61 Z" class="st6"/>
				</g>
				<g id="shape1675-17" transform="translate(14.1732,-12.4016)">
					<title>path16</title>
					<path d="M13.58 115.15 L0 115.15 L0 145.27 L13.58 145.27 A2.3687 2.3687 -180 0 0 15.94 142.91 L15.94 117.51 A2.3687
								 2.3687 -180 0 0 13.58 115.15 Z" class="st7"/>
				</g>
				<g id="shape1676-19" transform="translate(14.1732,-12.4016)">
					<title>path18</title>
					<path d="M11.81 115.15 L0 115.15 L0 145.27 L11.81 145.27 A2.3687 2.3687 -180 0 0 14.17 142.91 L14.17 117.51 A2.3687
								 2.3687 -180 0 0 11.81 115.15 Z" class="st6"/>
				</g>
				<g id="shape1677-21" transform="translate(0,-14.1732)">
					<title>path20</title>
					<path d="M2.36 116.92 L25.98 116.92 A2.36161 2.36161 0 0 1 28.35 119.29 L28.35 142.91 A2.36161 2.36161 0 0 1
								 25.98 145.27 L2.36 145.27 A2.36161 2.36161 0 0 1 0 142.91 L0 119.29 A2.36161 2.36161 0 0 1 2.36
								 116.92 Z" class="st4"/>
				</g>
				<g id="shape1678-23" transform="translate(7.08661,-19.4882)">
					<title>path22</title>
					<path d="M0 127.55 L3.78 127.55 L10.25 139.48 C10.59 139.99 10.84 140.41 11.01 140.72 L11.06 140.72 A16.8183
								 16.8183 0 0 1 10.95 138.37 L10.95 127.55 L14.17 127.55 L14.17 145.27 L10.64 145.27 L3.88 133.52
								 A9.0939 9.0939 0 0 1 3.2 132.31 L3.14 132.31 A24.1441 24.1441 0 0 1 3.23 134.89 L3.23 145.27 L0
								 145.27 L0 127.55 Z" class="st8"/>
				</g>
				<g id="shape1679-25">
					<title>path24</title>
					<rect x="0" y="88.5775" width="56.6929" height="56.6929" class="st9"/>
				</g>
			</g>
		</g>
	</g>
</svg>
