<?xml version="1.0" encoding="UTF-8" standalone="no"?>
<!DOCTYPE svg PUBLIC "-//W3C//DTD SVG 1.1//EN" "http://www.w3.org/Graphics/SVG/1.1/DTD/svg11.dtd">
<!-- Generated by Microsoft Visio, SVG Export O365 - Delve.svg Page-1 -->
<svg xmlns="http://www.w3.org/2000/svg" xmlns:xlink="http://www.w3.org/1999/xlink" xmlns:ev="http://www.w3.org/2001/xml-events"
		width="1.5748in" height="2.02665in" viewBox="0 0 113.386 145.919" xml:space="preserve" color-interpolation-filters="sRGB"
		class="st9">
	<style type="text/css">
	<![CDATA[
		.st1 {fill:#d23062;stroke:none;stroke-linecap:butt;stroke-width:18.3596}
		.st2 {fill:#8c193f;stroke:none;stroke-linecap:butt;stroke-width:18.3596}
		.st3 {fill:none;stroke:none;stroke-linecap:butt;stroke-width:18.3596}
		.st4 {fill:#e8467c;stroke:none;stroke-linecap:butt;stroke-width:18.3596}
		.st5 {fill:#bc1948;stroke:none;stroke-linecap:butt;stroke-width:18.3596}
		.st6 {fill:#000000;fill-opacity:0.098;stroke:none;stroke-linecap:butt;stroke-width:18.3596}
		.st7 {fill:#000000;fill-opacity:0.2;stroke:none;stroke-linecap:butt;stroke-width:18.3596}
		.st8 {fill:#ffffff;stroke:none;stroke-linecap:butt;stroke-width:18.3596}
		.st9 {fill:none;fill-rule:evenodd;font-size:12px;overflow:visible;stroke-linecap:square;stroke-miterlimit:3}
	]]>
	</style>

	<g>
		<title>Page-1</title>
		<g id="group1747-1" transform="translate(28.3465,-70.8661)">
			<title>O365 - Delve</title>
			<g id="shape1748-2" transform="translate(10.6299,-28.3465)">
				<title>path2</title>
				<path d="M42.52 123.47 A2.3563 2.3563 -180 0 0 40.16 121.12 L2.36 121.12 A2.3563 2.3563 -180 0 0 -0 123.47 L0 145.92
							 L42.52 145.92 L42.52 123.47 Z" class="st1"/>
			</g>
			<g id="shape1749-4" transform="translate(10.6299,-3.54331)">
				<title>path4</title>
				<path d="M0 121.12 L0 143.56 A2.3563 2.3563 -180 0 0 2.36 145.92 L40.16 145.92 A2.3563 2.3563 -180 0 0 42.52 143.56
							 L42.52 121.12 L0 121.12 Z" class="st2"/>
			</g>
			<g id="shape1750-6" transform="translate(9.84271E-08,0)">
				<title>path6</title>
				<rect x="0" y="89.2258" width="56.6929" height="56.6929" class="st3"/>
			</g>
			<g id="shape1751-8" transform="translate(10.6299,-10.6299)">
				<title>path8</title>
				<path d="M43.74 145.92 L0 145.92 L0 128.2 L42.52 128.2 L45.99 143.08 A2.31555 2.31555 0 0 1 43.74 145.92 Z"
						class="st4"/>
			</g>
			<g id="shape1752-10" transform="translate(10.6299,-28.3465)">
				<title>path10</title>
				<path d="M43.74 128.2 L0 128.2 L0 145.92 L42.52 145.92 L45.99 131.04 A2.31555 2.31555 -180 0 0 43.74 128.2 Z"
						class="st5"/>
			</g>
			<g id="shape1753-12" transform="translate(10.6299,-10.6299)">
				<title>path12</title>
				<path d="M18.9 112.26 L0 112.26 L0 145.92 L18.9 145.92 A2.3687 2.3687 -180 0 0 21.26 143.56 L21.26 114.62 A2.3687
							 2.3687 -180 0 0 18.9 112.26 Z" class="st6"/>
			</g>
			<g id="shape1754-14" transform="translate(10.6299,-12.4016)">
				<title>path14</title>
				<path d="M17.13 115.8 L0 115.8 L0 145.92 L17.13 145.92 A2.3687 2.3687 -180 0 0 19.49 143.56 L19.49 118.16 A2.3687
							 2.3687 -180 0 0 17.13 115.8 Z" class="st7"/>
			</g>
			<g id="shape1755-16" transform="translate(10.6299,-12.4016)">
				<title>path16</title>
				<path d="M15.35 115.8 L0 115.8 L0 145.92 L15.35 145.92 A2.3687 2.3687 -180 0 0 17.72 143.56 L17.72 118.16 A2.3687
							 2.3687 -180 0 0 15.35 115.8 Z" class="st7"/>
			</g>
			<g id="shape1756-18" transform="translate(0,-14.1732)">
				<title>rect18</title>
				<path d="M0 143.56 A2.36167 2.36167 -180 0 0 2.36 145.92 L25.98 145.92 A2.36167 2.36167 -180 0 0 28.35 143.56 L28.35
							 119.93 A2.36167 2.36167 -180 0 0 25.98 117.57 L2.36 117.57 A2.36167 2.36167 -180 0 0 -0 119.93 L0 143.56
							 Z" class="st5"/>
			</g>
			<g id="shape1757-20" transform="translate(6.5126,-19.4882)">
				<title>path20</title>
				<path d="M0 128.2 L5.7 128.2 A10.3837 10.3837 0 0 1 12.89 130.41 A8.23642 8.23642 0 0 1 15.32 136.84 A9.28346 9.28346
							 0 0 1 14.12 141.61 A8.13366 8.13366 0 0 1 10.71 144.8 A11.0906 11.0906 0 0 1 5.6 145.92 L0 145.92 L0
							 128.2 ZM5.62 143.06 A6.74646 6.74646 -180 0 0 8.86 142.33 A4.95354 4.95354 -180 0 0 10.95 140.2 A7.07598
							 7.07598 -180 0 0 11.68 136.9 A5.75256 5.75256 -180 0 0 10.13 132.59 A6.12815 6.12815 -180 0 0 5.67 131.08
							 L3.46 131.08 L3.46 143.06 L5.62 143.06 Z" class="st8"/>
			</g>
		</g>
	</g>
</svg>
