<?xml version="1.0" encoding="UTF-8" standalone="no"?>
<!DOCTYPE svg PUBLIC "-//W3C//DTD SVG 1.1//EN" "http://www.w3.org/Graphics/SVG/1.1/DTD/svg11.dtd">
<!-- Generated by Microsoft Visio, SVG Export Peering.svg Page-1 -->
<svg xmlns="http://www.w3.org/2000/svg" xmlns:xlink="http://www.w3.org/1999/xlink" xmlns:ev="http://www.w3.org/2001/xml-events"
		width="1.73185in" height="2.06088in" viewBox="0 0 124.693 148.383" xml:space="preserve" color-interpolation-filters="sRGB"
		class="st5">
	<style type="text/css">
	<![CDATA[
		.st1 {fill:url(#grad0-6);stroke:none;stroke-linecap:butt;stroke-width:34}
		.st2 {fill:#ffffff;stroke:none;stroke-linecap:butt;stroke-width:34}
		.st3 {fill:#0078d4;stroke:none;stroke-linecap:butt;stroke-width:34}
		.st4 {fill:#83b9f9;stroke:none;stroke-linecap:butt;stroke-width:34}
		.st5 {fill:none;fill-rule:evenodd;font-size:12px;overflow:visible;stroke-linecap:square;stroke-miterlimit:3}
	]]>
	</style>

	<defs id="Patterns_And_Gradients">
		<linearGradient id="grad0-6" x1="0" y1="0" x2="1" y2="0" gradientTransform="rotate(-90 0.5 0.5)">
			<stop offset="0" stop-color="#773adc" stop-opacity="1"/>
			<stop offset="1" stop-color="#a67af4" stop-opacity="1"/>
		</linearGradient>
	</defs>
	<g>
		<title>Page-1</title>
		<g id="group1471-1" transform="translate(34,-66.189)">
			<title>Peering</title>
			<g id="group1472-2">
				<title>Sheet.1472</title>
				<g id="shape1473-3" transform="translate(12.632,-16.5148)">
					<title>Sheet.1473</title>
					<path d="M44.06 138.37 A9.91165 9.96904 -180 0 0 35.47 128.69 A12.4683 12.5405 -180 0 0 22.65 116.71 A12.8272
								 12.9015 -180 0 0 10.39 125.19 A11.7976 11.8659 -180 0 0 0 136.64 A11.9928 12.0623 -180 0 0 12.3
								 148.38 L34.12 148.38 A10.0376 10.0957 -180 0 0 44.06 138.37 Z" class="st1"/>
				</g>
				<g id="shape1474-7" transform="translate(22.6066,-20.7678)">
					<title>Sheet.1474</title>
					<path d="M22.51 133.99 L16.64 128.25 C16.01 127.62 15.46 127.83 15.46 128.83 L15.46 131.41 a0.705277 0.70936
								 0 0 1 -0.705277 0.712527 L14.72 132.12 C10.94 132.12 0.38 133.12 0 147.64 a0.736762 0.741028 -180
								 0 0 0.736762 0.744195 L4.49 148.38 a0.739911 0.744195 -180 0 0 0.743059 -0.741028 L5.23 147.58 A8.85689
								 8.90817 0 0 1 14.85 136.83 a0.739911 0.744195 0 0 1 0.736762 0.744195 L15.58 139.96 C15.58 141.15
								 15.97 141.34 16.77 140.54 L22.51 135.22 a0.736762 0.741028 -180 0 0 0.19521 -1.02921 a0.821773 0.826531
								 -180 0 0 -0.19521 -0.196341 Z" class="st2"/>
				</g>
				<g id="shape1475-9" transform="translate(0.406178,0)">
					<title>Sheet.1475</title>
					<ellipse cx="16.9361" cy="131.349" rx="16.9361" ry="17.0341" class="st3"/>
				</g>
				<g id="shape1476-11" transform="translate(0,-0.918368)">
					<title>Sheet.1476</title>
					<path d="M34.65 131.69 L34.62 131.69 A17.3171 17.4173 -180 1 0 34.62 132.84 L34.65 132.84 L34.65 131.69 ZM27.47
								 131.69 A19.9304 20.0458 -180 0 0 26.08 124.44 L31.43 124.44 A15.9663 16.0588 0 0 1 33.46 131.69
								 L27.47 131.69 ZM1.21 132.84 L7.44 132.84 A19.8674 19.9824 -180 0 0 8.87 140.1 L3.25 140.1 A15.9537
								 16.0461 0 0 1 1.22 132.84 L1.21 132.84 ZM24.3 123.29 L17.91 123.29 L17.91 116.78 A18.2144 18.3199
								 0 0 1 24.3 123.29 ZM16.77 123.29 L10.79 123.29 A19.3038 19.4156 0 0 1 16.77 117.24 L16.77 123.29
								 ZM16.77 124.44 L16.77 131.69 L8.58 131.69 A17.3171 17.4173 0 0 1 10.22 124.44 L16.77 124.44 ZM7.43
								 131.69 L1.22 131.69 A15.9632 16.0556 0 0 1 3.24 124.44 L8.96 124.44 A18.6489 18.7569 -180 0 0 7.43
								 131.69 ZM8.58 132.84 L16.76 132.84 L16.76 140.1 L10.15 140.1 A18.3876 18.494 0 0 1 8.58 132.84 ZM16.76
								 141.25 L16.76 147.68 A18.6993 18.8075 0 0 1 10.7 141.25 L16.76 141.25 ZM17.91 141.25 L24.2 141.25
								 A18.8693 18.9785 0 0 1 17.91 147.84 L17.91 141.25 ZM17.91 140.1 L17.91 132.84 L26.34 132.84 A18.3876
								 18.494 0 0 1 24.76 140.1 L17.91 140.1 ZM17.91 131.69 L17.91 124.44 L24.83 124.44 A18.5072 18.6144
								 0 0 1 26.33 131.69 L17.91 131.69 ZM30.81 123.29 L25.54 123.29 A18.7717 18.8804 -180 0 0 19.04 116.16
								 A16.1332 16.2266 0 0 1 30.82 123.29 L30.81 123.29 ZM16.44 116.08 A20.2924 20.4099 -180 0 0 9.53
								 123.29 L3.86 123.29 A16.1426 16.2361 0 0 1 16.44 116.08 ZM3.87 141.25 L9.42 141.25 A19.329 19.4409
								 -180 0 0 15.76 148.38 A16.1395 16.2329 0 0 1 3.87 141.25 ZM19.18 148.35 A19.2723 19.3839 -180 0
								 0 25.49 141.25 L30.82 141.25 A16.1489 16.2424 0 0 1 19.18 148.35 ZM31.44 140.1 L26.05 140.1 A19.8013
								 19.9159 -180 0 0 27.48 132.84 L33.46 132.84 A15.9947 16.0873 0 0 1 31.44 140.1 Z" class="st4"/>
				</g>
			</g>
		</g>
	</g>
</svg>
