<?xml version="1.0" encoding="UTF-8" standalone="no"?>
<!DOCTYPE svg PUBLIC "-//W3C//DTD SVG 1.1//EN" "http://www.w3.org/Graphics/SVG/1.1/DTD/svg11.dtd">
<!-- Generated by Microsoft Visio, SVG Export Policy.svg Page-1 -->
<svg xmlns="http://www.w3.org/2000/svg" xmlns:xlink="http://www.w3.org/1999/xlink" xmlns:ev="http://www.w3.org/2001/xml-events"
		width="1.69248in" height="2.24204in" viewBox="0 0 121.858 161.427" xml:space="preserve" color-interpolation-filters="sRGB"
		class="st6">
	<style type="text/css">
	<![CDATA[
		.st1 {fill:url(#grad0-5);stroke:none;stroke-linecap:butt;stroke-width:34}
		.st2 {fill:#32bedd;stroke:none;stroke-linecap:butt;stroke-width:34}
		.st3 {fill:#50e6ff;stroke:none;stroke-linecap:butt;stroke-width:34}
		.st4 {fill:#949494;stroke:none;stroke-linecap:butt;stroke-width:34}
		.st5 {fill:#b3b3b3;stroke:none;stroke-linecap:butt;stroke-width:34}
		.st6 {fill:none;fill-rule:evenodd;font-size:12px;overflow:visible;stroke-linecap:square;stroke-miterlimit:3}
	]]>
	</style>

	<defs id="Patterns_And_Gradients">
		<linearGradient id="grad0-5" x1="0" y1="0" x2="1" y2="0" gradientTransform="rotate(-90 0.5 0.5)">
			<stop offset="0" stop-color="#198ab3" stop-opacity="1"/>
			<stop offset="0.16" stop-color="#1f9ac2" stop-opacity="1"/>
			<stop offset="0.5" stop-color="#29bade" stop-opacity="1"/>
			<stop offset="0.8" stop-color="#30cdef" stop-opacity="1"/>
			<stop offset="1" stop-color="#32d4f5" stop-opacity="1"/>
		</linearGradient>
	</defs>
	<g>
		<title>Page-1</title>
		<g id="group1410-1" transform="translate(34,-70.8661)">
			<title>Policy</title>
			<g id="shape1411-2" transform="translate(16.3437,-20.0474)">
				<title>ellipse17</title>
				<ellipse cx="8.74779" cy="152.732" rx="8.74779" ry="8.69497" class="st1"/>
			</g>
			<g id="shape1412-6" transform="translate(45.3124,-38.0704)">
				<title>ellipse19</title>
				<ellipse cx="4.27296" cy="157.163" rx="4.27296" ry="4.2642" class="st2"/>
			</g>
			<g id="shape1413-8" transform="translate(45.3124,-24.1451)">
				<title>ellipse21</title>
				<ellipse cx="4.27296" cy="157.163" rx="4.27296" ry="4.2642" class="st2"/>
			</g>
			<g id="shape1414-10" transform="translate(45.3124,-10.2531)">
				<title>ellipse23</title>
				<ellipse cx="4.27296" cy="157.163" rx="4.27296" ry="4.2642" class="st2"/>
			</g>
			<g id="shape1415-12" transform="translate(35.5552,-30.9411)">
				<title>ellipse25</title>
				<ellipse cx="4.27296" cy="157.163" rx="4.27296" ry="4.2642" class="st3"/>
			</g>
			<g id="shape1416-14" transform="translate(35.5552,-17.0159)">
				<title>ellipse27</title>
				<ellipse cx="4.27296" cy="157.163" rx="4.27296" ry="4.2642" class="st3"/>
			</g>
			<g id="shape1417-16" transform="translate(0.0257357,-39.6361)">
				<title>path29</title>
				<path d="M4.74 161.43 a0.807488 0.799538 0 0 1 0.302808 -0.266513 L24.63 149.87 C24.9 149.87 41.45 159.13 41.45 159.13
							 a0.807488 0.799538 -180 0 0 1.21123 -0.699595 L42.66 154.8 a0.807488 0.799538 -180 0 0 -0.403744 -0.699595
							 C42.26 154.1 24.9 144.37 24.66 144.5 L0.37 158.3 L0 158.56 L4.74 161.43 Z" class="st4"/>
			</g>
			<g id="shape1418-18" transform="translate(25.0915,0)">
				<title>path31</title>
				<path d="M16.32 146.98 L0.37 156.07 A1.17759 1.16599 0 0 1 0 156.07 L0 161.4 a0.672907 0.666281 -180 0 0 0.370099
							 0 L17.19 151.87 a0.807488 0.799538 -180 0 0 0.403744 -0.666281 L17.6 147.68 a0.807488 0.799538 -180
							 0 0 -1.27852 -0.699595 Z" class="st4"/>
			</g>
			<g id="shape1419-20" transform="translate(2.73781E-13,-0.000300345)">
				<title>path33</title>
				<path d="M25.09 156.17 A1.04301 1.03274 0 0 1 24.65 156.17 L5.07 144.74 a0.740197 0.732909 0 0 1 -0.403744 -0.666281
							 L4.67 122.19 a0.908424 0.89948 0 0 1 -6.4837E-14 -0.399769 L0.03 118.93 a0.942069 0.932794 -180 0 0
							 -2.10942E-14 0.433083 L0.03 146.91 a0.807488 0.799538 -180 0 0 0.370099 0.699595 L24.69 161.4 a0.807488
							 0.799538 -180 0 0 0.403744 0 L25.09 156.17 Z" class="st5"/>
			</g>
		</g>
	</g>
</svg>
