<?xml version="1.0" encoding="UTF-8" standalone="no"?>
<!DOCTYPE svg PUBLIC "-//W3C//DTD SVG 1.1//EN" "http://www.w3.org/Graphics/SVG/1.1/DTD/svg11.dtd">
<!-- Generated by Microsoft Visio, SVG Export PowerShell.svg Page-1 -->
<svg xmlns="http://www.w3.org/2000/svg" xmlns:xlink="http://www.w3.org/1999/xlink" xmlns:ev="http://www.w3.org/2001/xml-events"
		width="1.5748in" height="1.65042in" viewBox="0 0 113.386 118.83" xml:space="preserve" color-interpolation-filters="sRGB"
		class="st4">
	<style type="text/css">
	<![CDATA[
		.st1 {fill:#0078d7;stroke:none;stroke-linecap:butt;stroke-width:8.93937}
		.st2 {fill:#000000;fill-opacity:0.25;stroke:none;stroke-linecap:butt;stroke-width:8.93937}
		.st3 {fill:#ffffff;stroke:none;stroke-linecap:butt;stroke-width:8.93937}
		.st4 {fill:none;fill-rule:evenodd;font-size:12px;overflow:visible;stroke-linecap:square;stroke-miterlimit:3}
	]]>
	</style>

	<g>
		<title>Page-1</title>
		<g id="group1397-1" transform="translate(28.3465,-64.6299)">
			<title>PowerShell</title>
			<g id="group1398-2">
				<title>layer1</title>
				<g id="shape1399-3">
					<title>path6</title>
					<path d="M56.68 76.81 L50.31 115.6 A4.15571 4.28518 0 0 1 46.17 118.83 L3.33 118.83 C1.36 118.83 0 117.38 0.25
								 115.6 L6.62 76.81 A3.51981 3.62948 0 0 1 7.78 74.79 A4.47813 4.61766 0 0 1 10.76 73.58 L53.59 73.58
								 A2.91079 3.00148 0 0 1 56.59 75.72 A2.44506 2.52124 0 0 1 56.68 76.81 L56.68 76.81 Z" class="st1"/>
				</g>
				<g id="shape1400-5" transform="translate(7.783,-2.22572)">
					<title>path10</title>
					<path d="M48.81 77.95 L42.49 116.98 C42.38 117.67 42.08 118.31 41.64 118.83 C31.66 108.72 10.85 87.71 0 77.01
								 C0.81 76.25 1.87 75.82 2.97 75.8 L45.81 75.8 C47.18 75.7 48.42 76.59 48.81 77.95 Z" class="st2"/>
				</g>
				<g id="shape1401-7" transform="translate(13.035,-5.29135)">
					<title>path8-6</title>
					<path d="M2.07 118.46 A2.17637 2.24418 0 0 1 0.77 114.42 L19.16 100.46 L5.9 87.6 A2.16742 2.23495 0 0 1 5.81
								 84.43 A2.19429 2.26265 0 0 1 8.9 84.34 L24.13 99.04 A2.16742 2.23495 0 0 1 23.93 102.47 L3.36 118.03
								 A2.18533 2.25342 0 0 1 2.07 118.46 L2.07 118.46 ZM26.13 118.83 L16.12 118.83 A2.23907 2.30883 0
								 1 1 16.12 114.21 L26.13 114.21 A2.23907 2.30883 0 0 1 26.13 118.83 Z" class="st3"/>
				</g>
			</g>
		</g>
	</g>
</svg>
