<?xml version="1.0" encoding="UTF-8" standalone="no"?>
<!DOCTYPE svg PUBLIC "-//W3C//DTD SVG 1.1//EN" "http://www.w3.org/Graphics/SVG/1.1/DTD/svg11.dtd">
<!-- Generated by Microsoft Visio, SVG Export Public IP Address.svg Page-1 -->
<svg xmlns="http://www.w3.org/2000/svg" xmlns:xlink="http://www.w3.org/1999/xlink" xmlns:ev="http://www.w3.org/2001/xml-events"
		width="1.73185in" height="1.99978in" viewBox="0 0 124.693 143.984" xml:space="preserve" color-interpolation-filters="sRGB"
		class="st4">
	<style type="text/css">
	<![CDATA[
		.st1 {fill:url(#grad0-6);stroke:none;stroke-linecap:butt;stroke-width:34}
		.st2 {fill:#767676;stroke:none;stroke-linecap:butt;stroke-width:34}
		.st3 {fill:#f2f2f2;stroke:none;stroke-linecap:butt;stroke-width:34}
		.st4 {fill:none;fill-rule:evenodd;font-size:12px;overflow:visible;stroke-linecap:square;stroke-miterlimit:3}
	]]>
	</style>

	<defs id="Patterns_And_Gradients">
		<linearGradient id="grad0-6" x1="0" y1="0" x2="1" y2="0" gradientTransform="rotate(-90 0.5 0.5)">
			<stop offset="0" stop-color="#32bedd" stop-opacity="1"/>
			<stop offset="0.18" stop-color="#32caea" stop-opacity="1"/>
			<stop offset="0.41" stop-color="#32d2f2" stop-opacity="1"/>
			<stop offset="0.78" stop-color="#32d4f5" stop-opacity="1"/>
		</linearGradient>
	</defs>
	<g>
		<title>Page-1</title>
		<g id="group1335-1" transform="translate(34,-64.6299)">
			<title>Public IP Address</title>
			<g id="group1336-2">
				<title>Sheet.1336</title>
				<g id="shape1337-3">
					<title>Sheet.1337</title>
					<path d="M0 110.64 L56.69 110.64 L56.69 142.09 A1.90088 1.89115 0 0 1 54.79 143.98 L1.9 143.98 A1.90088 1.89115
								 0 0 1 0 142.09 L0 110.64 Z" class="st1"/>
				</g>
				<g id="shape1338-7" transform="translate(0,-33.3439)">
					<title>Sheet.1338</title>
					<path d="M1.9 131.97 L54.79 131.97 A1.90088 1.89115 0 0 1 56.69 133.86 L56.69 143.98 L0 143.98 L0 133.83 A1.90088
								 1.89115 0 0 1 1.9 131.97 Z" class="st2"/>
				</g>
				<g id="shape1339-9" transform="translate(36.4836,-14.167)">
					<title>Sheet.1339</title>
					<ellipse cx="4.60213" cy="139.406" rx="4.60213" ry="4.57856" class="st3"/>
				</g>
				<g id="shape1340-11" transform="translate(23.9444,-14.167)">
					<title>Sheet.1340</title>
					<ellipse cx="4.60213" cy="139.406" rx="4.60213" ry="4.57856" class="st3"/>
				</g>
				<g id="shape1341-13" transform="translate(11.0051,-14.167)">
					<title>Sheet.1341</title>
					<ellipse cx="4.60213" cy="139.406" rx="4.60213" ry="4.57856" class="st3"/>
				</g>
				<g id="shape1342-15" transform="translate(7.63687,-36.9271)">
					<title>Sheet.1342</title>
					<path d="M0 143.06 a0.933787 0.929006 -180 0 0 0.933766 0.928984 L40.52 143.98 a0.933787 0.929006 -180 0 0 0.933766
								 -0.928984 L41.45 140.07 a0.933787 0.929006 -180 0 0 -0.933766 -0.928984 L0.93 139.14 a0.933787 0.929006
								 -180 0 0 -0.933766 0.928984 L0 143.06 Z" class="st3"/>
				</g>
			</g>
		</g>
	</g>
</svg>
