<?xml version="1.0" encoding="UTF-8" standalone="no"?>
<!DOCTYPE svg PUBLIC "-//W3C//DTD SVG 1.1//EN" "http://www.w3.org/Graphics/SVG/1.1/DTD/svg11.dtd">
<!-- Generated by Microsoft Visio, SVG Export Purview Account.svg Page-1 -->
<svg xmlns="http://www.w3.org/2000/svg" xmlns:xlink="http://www.w3.org/1999/xlink" xmlns:ev="http://www.w3.org/2001/xml-events"
		width="1.70667in" height="1.74762in" viewBox="0 0 122.88 125.828" xml:space="preserve" color-interpolation-filters="sRGB"
		class="st5">
	<style type="text/css">
	<![CDATA[
		.st1 {fill:url(#grad0-5);stroke:none;stroke-linecap:butt;stroke-width:33.0936}
		.st2 {fill:url(#grad0-9);stroke:none;stroke-linecap:butt;stroke-width:33.0936}
		.st3 {fill:url(#grad0-13);stroke:none;stroke-linecap:butt;stroke-width:33.0936}
		.st4 {fill:url(#grad0-17);stroke:none;stroke-linecap:butt;stroke-width:33.0936}
		.st5 {fill:none;fill-rule:evenodd;font-size:12px;overflow:visible;stroke-linecap:square;stroke-miterlimit:3}
	]]>
	</style>

	<defs id="Patterns_And_Gradients">
		<linearGradient id="grad0-5" x1="0" y1="0" x2="1" y2="0" gradientTransform="rotate(-90 0.5 0.5)">
			<stop offset="0" stop-color="#29bade" stop-opacity="1"/>
			<stop offset="1" stop-color="#50e6ff" stop-opacity="1"/>
		</linearGradient>
		<linearGradient id="grad0-9" x1="0" y1="0" x2="1" y2="0" gradientTransform="rotate(-90 0.5 0.5)">
			<stop offset="0.04" stop-color="#32bedd" stop-opacity="1"/>
			<stop offset="0.495" stop-color="#50e6ff" stop-opacity="1"/>
			<stop offset="0.92" stop-color="#c3f1ff" stop-opacity="1"/>
		</linearGradient>
		<linearGradient id="grad0-13" x1="0" y1="0" x2="1" y2="0" gradientTransform="rotate(-90 0.5 0.5)">
			<stop offset="0.245" stop-color="#0078d4" stop-opacity="1"/>
			<stop offset="0.6" stop-color="#2e8ce1" stop-opacity="1"/>
			<stop offset="0.935" stop-color="#589eed" stop-opacity="1"/>
		</linearGradient>
		<linearGradient id="grad0-17" x1="0" y1="0" x2="1" y2="0" gradientTransform="rotate(-90 0.5 0.5)">
			<stop offset="0" stop-color="#005ba1" stop-opacity="1"/>
			<stop offset="0.4" stop-color="#0078d4" stop-opacity="1"/>
			<stop offset="0.855" stop-color="#5ea0ef" stop-opacity="1"/>
		</linearGradient>
	</defs>
	<g>
		<title>Page-1</title>
		<g id="group1315-1" transform="translate(33.0936,-58.3937)">
			<title>Purview Account</title>
			<g id="shape1316-2" transform="translate(24.3554,-11.9786)">
				<title>path4</title>
				<path d="M8.95 120.03 A5.10891 4.95488 0 0 1 3.85 115.08 A6.23338 6.04545 -180 1 0 10.02 119.92 A5.15931 5.00376
							 0 0 1 8.95 120.03 Z" class="st1"/>
			</g>
			<g id="shape1317-6">
				<title>path6</title>
				<path d="M40.51 115.48 A15.9095 15.4298 -180 0 0 38.44 109.29 A10.1359 9.83034 0 0 1 28.34 118.52 C28.1 118.52 27.87
							 118.47 27.64 118.45 A21.2136 20.5741 0 0 1 13.28 112.77 A27.4785 26.6501 0 0 1 6.09 101.52 A64.4032
							 62.4615 -180 0 0 0.92 106.63 A2.86313 2.77681 -180 0 0 0.92 110.71 A53.19 51.5864 -180 0 0 13.1 121.12
							 A27.7179 26.8822 -180 0 0 28.76 125.83 A22.6783 21.9945 -180 0 0 39.21 123.42 C39.41 123.33 39.59 123.2
							 39.79 123.11 A21.8153 21.1575 -180 0 0 40.51 115.48 L40.51 115.48 Z" class="st2"/>
			</g>
			<g id="shape1318-10" transform="translate(8.66346,-12.5858)">
				<title>path8</title>
				<path d="M10.73 125.83 A10.0068 9.70509 0 0 1 12.59 114.2 A20.2026 19.5935 0 0 1 22.81 107.17 A24.9304 24.1787 0
							 0 1 29.68 106.12 A26.3856 25.59 -180 0 0 23.83 104.41 A25.1288 24.3712 -180 0 0 7.75 106.99 A44.966
							 43.6103 -180 0 0 -0 111.93 A24.6815 23.9374 -180 0 0 6.61 122.97 A18.8261 18.2585 -180 0 0 10.73 125.83
							 Z" class="st3"/>
			</g>
			<g id="shape1319-14" transform="translate(29.1495,-4.66162)">
				<title>path10</title>
				<path d="M26.69 111.43 A54.1759 52.5425 -180 0 0 16.12 102.02 A23.4311 22.7246 -180 0 0 3.55 102.08 A18.0292 17.4857
							 -180 0 0 -0 103.55 A10.1076 9.80285 0 0 1 4.92 105.18 A1.42684 1.38382 0 0 1 5.29 105.35 A21.1412 20.5038
							 0 0 1 14.4 119.23 A24.0295 23.3051 0 0 1 14.29 125.83 A53.3916 51.7819 -180 0 0 26.68 115.27 A2.7151
							 2.63324 -180 0 0 26.69 111.43 L26.69 111.43 Z" class="st4"/>
			</g>
		</g>
	</g>
</svg>
