<?xml version="1.0" encoding="UTF-8" standalone="no"?>
<!DOCTYPE svg PUBLIC "-//W3C//DTD SVG 1.1//EN" "http://www.w3.org/Graphics/SVG/1.1/DTD/svg11.dtd">
<!-- Generated by Microsoft Visio, SVG Export Python.svg Page-1 -->
<svg xmlns="http://www.w3.org/2000/svg" xmlns:xlink="http://www.w3.org/1999/xlink" xmlns:ev="http://www.w3.org/2001/xml-events"
		width="1.5748in" height="1.89664in" viewBox="0 0 113.386 136.558" xml:space="preserve" color-interpolation-filters="sRGB"
		class="st4">
	<style type="text/css">
	<![CDATA[
		.st1 {fill:#3772a4;stroke:none;stroke-linecap:butt;stroke-width:8.9811}
		.st2 {fill:#000000;stroke:none;stroke-linecap:butt;stroke-width:8.9811}
		.st3 {fill:#ffda4b;stroke:none;stroke-linecap:butt;stroke-width:8.9811}
		.st4 {fill:none;fill-rule:evenodd;font-size:12px;overflow:visible;stroke-linecap:square;stroke-miterlimit:3}
	]]>
	</style>

	<g>
		<title>Page-1</title>
		<g id="group1309-1" transform="translate(28.3465,-70.8661)">
			<title>Python</title>
			<g id="group1310-2">
				<title>layer1</title>
				<g id="shape1311-3" transform="translate(2.79776E-13,-14.4977)">
					<title>path6</title>
					<path d="M0 122.26 C0 122.18 0.05 122.1 0.05 122.02 C0.1 121.19 0.11 120.36 0.2 119.54 A14.1821 14.1909 0 0 1
								 2.76 112.08 A7.46902 7.47366 0 0 1 7.88 109.09 A7.00108 7.00543 0 0 1 8.78 109.04 L27.9 109.04 C28.27
								 109.04 28.27 109.04 28.27 108.66 L28.27 107.34 C28.27 107.07 28.19 107.01 27.93 107.01 L14.9 107.01
								 C14.68 107.01 13.5 106.94 13.5 106.71 L13.5 100.21 C13.5 99.24 15.06 98.41 15.69 97.71 A7.89197
								 7.89686 0 0 1 18.9 95.65 A19.6804 19.6926 0 0 1 23.51 94.6 A38.7759 38.8 0 0 1 29.98 94.4 A21.1112
								 21.1243 0 0 1 36.81 95.67 A8.3869 8.39211 0 0 1 40.63 98.37 A5.39929 5.40264 0 0 1 41.75 101.97
								 C41.69 103.07 41.75 104.19 41.75 105.29 L41.75 111.43 C41.75 112.63 41.75 113.84 41.69 115.03 A6.40716
								 6.41114 0 0 1 37.53 120.99 A9.49376 9.49965 0 0 1 33.83 121.7 L20.33 121.7 A7.72099 7.72578 -180
								 0 0 16.2 122.79 A7.12707 7.13149 -180 0 0 13.08 127.16 A10.2317 10.238 -180 0 0 12.7 129.97 L12.7
								 136.11 C12.7 136.51 12.7 136.51 12.28 136.51 C10.82 136.51 9.34 136.56 7.87 136.51 A6.15519 6.15901
								 0 0 1 3.96 134.87 A9.78172 9.78779 0 0 1 1.26 130.66 A17.8987 17.9098 0 0 1 0.24 126.14 C0.15 125.15
								 0.12 124.16 0.05 123.17 C0.05 123.06 0 122.95 0 122.84 L0 122.26 Z" class="st1"/>
				</g>
				<g id="shape1312-5" transform="translate(17.998,-47.7054)">
					<title>path8</title>
					<path d="M0 133.86 A2.69965 2.70132 0 0 1 5.4 133.86 A2.69965 2.70132 0 1 1 0 133.86 Z" class="st2"/>
				</g>
				<g id="shape1313-7" transform="translate(14.9564,0)">
					<title>path10</title>
					<path d="M41.74 108.66 A1.44881 1.44971 -180 0 0 41.68 108.9 C41.64 109.73 41.63 110.56 41.54 111.38 A14.1821
								 14.1909 0 0 1 38.97 118.81 A7.46902 7.47366 0 0 1 33.85 121.8 A7.00108 7.00543 0 0 1 32.95 121.85
								 L13.84 121.85 C13.46 121.85 13.46 121.85 13.46 122.23 L13.46 123.56 C13.46 123.83 13.54 123.89 13.8
								 123.89 L26.83 123.89 C27.06 123.89 27.13 123.95 27.13 124.19 L27.13 130.69 A3.7885 3.79085 0 0 1
								 26.03 133.18 A7.89197 7.89686 0 0 1 22.84 135.27 A19.6804 19.6926 0 0 1 18.24 136.32 A38.7759 38.8
								 0 0 1 11.76 136.52 A21.1112 21.1243 0 0 1 4.94 135.25 A8.3869 8.39211 0 0 1 1.12 132.55 A5.39929
								 5.40264 0 0 1 0 128.95 C0.05 127.85 0 126.73 0 125.64 L0 119.49 C0 118.29 0 117.08 0.05 115.89 A6.40716
								 6.41114 0 0 1 4.21 109.93 A9.49376 9.49965 0 0 1 7.92 109.22 L21.42 109.22 A7.72099 7.72578 -180
								 0 0 25.54 108.13 A7.12707 7.13149 -180 0 0 28.66 103.76 A10.2317 10.238 -180 0 0 29.04 100.95 L29.04
								 94.81 C29.04 94.41 29.04 94.41 29.45 94.41 C30.92 94.41 32.4 94.36 33.86 94.41 A6.15519 6.15901
								 0 0 1 37.78 96.06 A9.78172 9.78779 0 0 1 40.48 100.26 A17.8987 17.9098 0 0 1 41.48 104.83 C41.57
								 105.82 41.6 106.81 41.66 107.8 A2.92462 2.92643 -180 0 0 41.72 108.12 C41.73 108.3 41.74 108.48
								 41.74 108.66 L41.74 108.66 Z" class="st3"/>
				</g>
				<g id="shape1314-9" transform="translate(33.7549,-4.55682)">
					<title>path12</title>
					<path d="M5.4 133.86 A2.69965 2.70132 0 1 1 0 133.86 A2.69965 2.70132 0 0 1 5.4 133.86 Z" class="st2"/>
				</g>
			</g>
		</g>
	</g>
</svg>
