<?xml version="1.0" encoding="UTF-8" standalone="no"?>
<!DOCTYPE svg PUBLIC "-//W3C//DTD SVG 1.1//EN" "http://www.w3.org/Graphics/SVG/1.1/DTD/svg11.dtd">
<!-- Generated by Microsoft Visio, SVG Export Recovery Services Vault.svg Page-1 -->
<svg xmlns="http://www.w3.org/2000/svg" xmlns:xlink="http://www.w3.org/1999/xlink" xmlns:ev="http://www.w3.org/2001/xml-events"
		width="1.73185in" height="2.06088in" viewBox="0 0 124.693 148.383" xml:space="preserve" color-interpolation-filters="sRGB"
		class="st4">
	<style type="text/css">
	<![CDATA[
		.st1 {fill:url(#grad0-6);stroke:none;stroke-linecap:butt;stroke-width:34}
		.st2 {fill:#ffffff;stroke:none;stroke-linecap:butt;stroke-width:34}
		.st3 {fill:url(#grad0-12);stroke:none;stroke-linecap:butt;stroke-width:34}
		.st4 {fill:none;fill-rule:evenodd;font-size:12px;overflow:visible;stroke-linecap:square;stroke-miterlimit:3}
	]]>
	</style>

	<defs id="Patterns_And_Gradients">
		<linearGradient id="grad0-6" x1="0" y1="0" x2="1" y2="0" gradientTransform="rotate(-90 0.5 0.5)">
			<stop offset="0" stop-color="#0078d4" stop-opacity="1"/>
			<stop offset="0.16" stop-color="#1380da" stop-opacity="1"/>
			<stop offset="0.53" stop-color="#3c91e5" stop-opacity="1"/>
			<stop offset="0.82" stop-color="#559cec" stop-opacity="1"/>
			<stop offset="1" stop-color="#5ea0ef" stop-opacity="1"/>
		</linearGradient>
		<linearGradient id="grad0-12" x1="0" y1="0" x2="1" y2="0" gradientTransform="rotate(-90 0.5 0.5)">
			<stop offset="0" stop-color="#198ab3" stop-opacity="1"/>
			<stop offset="0.13" stop-color="#21a0c7" stop-opacity="1"/>
			<stop offset="0.31" stop-color="#28b7db" stop-opacity="1"/>
			<stop offset="0.5" stop-color="#2ec7ea" stop-opacity="1"/>
			<stop offset="0.72" stop-color="#31d1f2" stop-opacity="1"/>
			<stop offset="1" stop-color="#32d4f5" stop-opacity="1"/>
		</linearGradient>
	</defs>
	<g>
		<title>Page-1</title>
		<g id="group1256-1" transform="translate(34,-66.189)">
			<title>Recovery Services Vault</title>
			<g id="group1257-2">
				<title>Sheet.1257</title>
				<g id="shape1258-3" transform="translate(13.4173,-17.8891)">
					<title>Sheet.1258</title>
					<path d="M43.28 138.82 A9.73228 9.53428 -180 0 0 34.83 129.56 A12.252 12.0027 -180 0 0 22.24 118.08 A12.5984
								 12.3421 -180 0 0 10.2 126.2 A11.5906 11.3547 -180 0 0 0 137.15 A11.7795 11.5399 -180 0 0 12.19 148.38
								 L33.51 148.38 A9.85827 9.6577 -180 0 0 43.28 138.82 Z" class="st1"/>
				</g>
				<g id="shape1259-7" transform="translate(23.2126,-21.962)">
					<title>Sheet.1259</title>
					<path d="M22.11 134.62 L16.35 129.13 C15.72 128.51 15.18 128.73 15.18 129.68 L15.18 132.15 a0.692913 0.678816
								 0 0 1 -0.724409 0.678816 C10.74 132.83 0.38 133.79 0 147.67 a0.724409 0.709671 -180 0 0 0.724409
								 0.709671 L4.41 148.38 a0.724409 0.709671 -180 0 0 0.724409 -0.771382 A8.69291 8.51605 0 0 1 14.58
								 137.34 a0.724409 0.709671 0 0 1 0.724409 0.709671 L15.31 140.33 C15.31 141.47 15.69 141.66 16.47
								 140.89 L22.11 135.79 a0.724409 0.709671 -180 0 0 -1.06581E-14 -1.1725 Z" class="st2"/>
				</g>
				<g id="shape1260-9">
					<title>Sheet.1260</title>
					<path d="M44.47 138.7 A9.98425 9.78112 -180 0 0 35.81 129.29 A12.5984 12.3421 -180 0 0 22.83 117.47 A12.9134
								 12.6507 -180 0 0 10.49 125.74 A11.9055 11.6633 -180 0 0 -0 136.97 A12.0945 11.8484 -180 0 0 12.6
								 148.36 L33.95 148.36 A1.48031 1.4502 -180 0 0 34.49 148.36 A10.1102 9.90454 -180 0 0 44.47 138.7
								 Z" class="st3"/>
				</g>
			</g>
		</g>
	</g>
</svg>
