<?xml version="1.0" encoding="UTF-8" standalone="no"?>
<!DOCTYPE svg PUBLIC "-//W3C//DTD SVG 1.1//EN" "http://www.w3.org/Graphics/SVG/1.1/DTD/svg11.dtd">
<!-- Generated by Microsoft Visio, SVG Export Relay.svg Page-1 -->
<svg xmlns="http://www.w3.org/2000/svg" xmlns:xlink="http://www.w3.org/1999/xlink" xmlns:ev="http://www.w3.org/2001/xml-events"
		width="1.73192in" height="2.12183in" viewBox="0 0 124.698 152.772" xml:space="preserve" color-interpolation-filters="sRGB"
		class="st6">
	<style type="text/css">
	<![CDATA[
		.st1 {fill:#949494;stroke:none;stroke-linecap:butt;stroke-width:34}
		.st2 {fill:#86d633;stroke:none;stroke-linecap:butt;stroke-width:34}
		.st3 {fill:url(#grad0-10);stroke:none;stroke-linecap:butt;stroke-width:34}
		.st4 {fill:#999999;stroke:none;stroke-linecap:butt;stroke-width:34}
		.st5 {fill:#999999;fill-opacity:0.5;stroke:none;stroke-linecap:butt;stroke-width:34}
		.st6 {fill:none;fill-rule:evenodd;font-size:12px;overflow:visible;stroke-linecap:square;stroke-miterlimit:3}
	]]>
	</style>

	<defs id="Patterns_And_Gradients">
		<linearGradient id="grad0-10" x1="0" y1="0" x2="1" y2="0" gradientTransform="rotate(-90 0.5 0.5)">
			<stop offset="0" stop-color="#6f4bb2" stop-opacity="1"/>
			<stop offset="1" stop-color="#c69aeb" stop-opacity="1"/>
		</linearGradient>
	</defs>
	<g>
		<title>Page-1</title>
		<g id="group1232-1" transform="translate(34.0052,-67.748)">
			<title>Relay</title>
			<g id="group1233-2">
				<title>Icon-integration-209</title>
				<g id="shape1234-3" transform="translate(17.6645,-17.6815)">
					<title>Sheet.1234</title>
					<path d="M21.66 151.49 L11.73 135.39 L10.83 135.97 L9.97 135.39 L0 151.49 L2.03 152.74 L10.83 138.49 L19.66 152.77
								 L21.66 151.49 Z" class="st1"/>
				</g>
				<g id="shape1235-5" transform="translate(23.1971,-29.1997)">
					<title>Sheet.1235</title>
					<ellipse cx="5.13269" cy="147.585" rx="5.13269" ry="5.18656" class="st2"/>
				</g>
				<g id="shape1236-7" transform="translate(13.2983,-13.2022)">
					<title>Sheet.1236</title>
					<ellipse cx="5.13269" cy="147.585" rx="5.13269" ry="5.18656" class="st3"/>
				</g>
				<g id="shape1237-11" transform="translate(33.1292,-13.2022)">
					<title>Sheet.1237</title>
					<ellipse cx="5.13269" cy="147.585" rx="5.13269" ry="5.18656" class="st3"/>
				</g>
				<g id="group1238-14" transform="translate(-1.13909E-13,-37.9225)">
					<title>Sheet.1238</title>
					<g id="shape1239-15">
						<title>Sheet.1239</title>
						<path d="M1.9 139.67 L6.2 139.67 L6.2 151.79 a0.966546 0.97669 0 0 1 -0.966546 0.97669 L0.97 152.77 a0.966546
									 0.97669 0 0 1 -0.966546 -0.97669 L0 141.69 A1.89976 1.9197 0 0 1 1.9 139.67 Z" class="st4"/>
					</g>
					<g id="shape1240-17">
						<title>Sheet.1240</title>
						<path d="M1.9 139.67 L6.2 139.67 L6.2 151.79 a0.966546 0.97669 0 0 1 -0.966546 0.97669 L0.97 152.77 a0.966546
									 0.97669 0 0 1 -0.966546 -0.97669 L0 141.69 A1.89976 1.9197 0 0 1 1.9 139.67 Z" class="st5"/>
					</g>
				</g>
				<g id="group1241-19" transform="translate(50.427,-38.0235)">
					<title>Sheet.1241</title>
					<g id="shape1242-20">
						<title>Sheet.1242</title>
						<path d="M0.03 139.77 L4.3 139.77 A1.89976 1.9197 0 0 1 6.2 141.69 L6.2 151.79 a0.966546 0.97669 0 0 1 -0.966546
									 0.97669 L0.97 152.77 a0.966546 0.97669 0 0 1 -0.966546 -0.97669 L0 139.77 L0.03 139.77 Z"
								class="st4"/>
					</g>
					<g id="shape1243-22">
						<title>Sheet.1243</title>
						<path d="M0.03 139.77 L4.3 139.77 A1.89976 1.9197 0 0 1 6.2 141.69 L6.2 151.79 a0.966546 0.97669 0 0 1 -0.966546
									 0.97669 L0.97 152.77 a0.966546 0.97669 0 0 1 -0.966546 -0.97669 L0 139.77 L0.03 139.77 Z"
								class="st5"/>
					</g>
				</g>
				<g id="shape1244-24" transform="translate(0,-44.8604)">
					<title>Sheet.1244</title>
					<path d="M56.66 148.53 L56.66 152.77 L0 152.77 L0 148.53 A1.89976 1.9197 0 0 1 1.9 146.61 L54.76 146.61 A1.89976
								 1.9197 0 0 1 56.66 148.53 Z" class="st1"/>
				</g>
				<g id="group1245-26" transform="translate(1.1291E-13,-0.033679)">
					<title>Sheet.1245</title>
					<g id="shape1246-27">
						<title>Sheet.1246</title>
						<path d="M0.97 139.67 L5.27 139.67 a0.966546 0.97669 0 0 1 0.966546 0.97669 L6.23 152.77 L1.9 152.77 A1.89976
									 1.9197 0 0 1 0 150.85 L0 140.75 a0.966546 0.97669 0 0 1 0.966546 -1.07773 Z" class="st4"/>
					</g>
					<g id="shape1247-29">
						<title>Sheet.1247</title>
						<path d="M0.97 139.67 L5.27 139.67 a0.966546 0.97669 0 0 1 0.966546 0.97669 L6.23 152.77 L1.9 152.77 A1.89976
									 1.9197 0 0 1 0 150.85 L0 140.75 a0.966546 0.97669 0 0 1 0.966546 -1.07773 Z" class="st5"/>
					</g>
				</g>
				<g id="group1248-31" transform="translate(50.4604,-0.134716)">
					<title>Sheet.1248</title>
					<g id="shape1249-32">
						<title>Sheet.1249</title>
						<path d="M0.93 139.77 L5.27 139.77 a0.966546 0.97669 0 0 1 0.966546 0.97669 L6.23 150.85 A1.89976 1.9197
									 0 0 1 4.33 152.77 L0 152.77 L0 140.65 a0.966546 0.97669 0 0 1 0.933217 -0.875653 Z"
								class="st4"/>
					</g>
					<g id="shape1250-34">
						<title>Sheet.1250</title>
						<path d="M0.93 139.77 L5.27 139.77 a0.966546 0.97669 0 0 1 0.966546 0.97669 L6.23 150.85 A1.89976 1.9197
									 0 0 1 4.33 152.77 L0 152.77 L0 140.65 a0.966546 0.97669 0 0 1 0.933217 -0.875653 Z"
								class="st5"/>
					</g>
				</g>
				<g id="shape1251-36">
					<title>Sheet.1251</title>
					<path d="M0 150.85 L0 146.61 L56.66 146.61 L56.66 150.85 A1.89976 1.9197 0 0 1 54.76 152.77 L1.9 152.77 A1.89976
								 1.9197 0 0 1 -0 150.85 Z" class="st1"/>
				</g>
			</g>
		</g>
	</g>
</svg>
