<?xml version="1.0" encoding="UTF-8" standalone="no"?>
<!DOCTYPE svg PUBLIC "-//W3C//DTD SVG 1.1//EN" "http://www.w3.org/Graphics/SVG/1.1/DTD/svg11.dtd">
<!-- Generated by Microsoft Visio, SVG Export Reserved IP address (classic).svg Page-1 -->
<svg xmlns="http://www.w3.org/2000/svg" xmlns:xlink="http://www.w3.org/1999/xlink" xmlns:ev="http://www.w3.org/2001/xml-events"
		width="1.5748in" height="1.75858in" viewBox="0 0 113.386 126.618" xml:space="preserve" color-interpolation-filters="sRGB"
		class="st4">
	<style type="text/css">
	<![CDATA[
		.st1 {fill:#59b4d9;stroke:none;stroke-linecap:butt;stroke-width:12.24}
		.st2 {fill:#0072c6;stroke:none;stroke-linecap:butt;stroke-width:12.24}
		.st3 {fill:#ffffff;stroke:none;stroke-linecap:butt;stroke-width:12.24}
		.st4 {fill:none;fill-rule:evenodd;font-size:12px;overflow:visible;stroke-linecap:square;stroke-miterlimit:3}
	]]>
	</style>

	<g>
		<title>Page-1</title>
		<g id="group1189-1" transform="translate(28.3465,-66.189)">
			<title>Reserved IP address (classic)</title>
			<g id="group1190-2">
				<title>Sheet.1190</title>
				<g id="shape1191-3">
					<title>Sheet.1191</title>
					<path d="M0 124.36 C0 125.6 1.02 126.62 2.27 126.62 L54.43 126.62 C55.67 126.62 56.69 125.6 56.69 124.36 L56.69
								 88.95 L0 88.95 L0 124.36 Z" class="st1"/>
				</g>
				<g id="shape1192-5" transform="translate(0,-33.9359)">
					<title>Sheet.1192</title>
					<path d="M54.43 112.36 L2.27 112.36 C1.02 112.36 0 113.38 0 114.63 L0 126.62 L56.69 126.62 L56.69 114.63 C56.69
								 113.38 55.67 112.36 54.43 112.36 Z" class="st2"/>
				</g>
				<g id="shape1193-7" transform="translate(14.6268,-38.3476)">
					<title>Sheet.1193</title>
					<rect x="0" y="122.206" width="38.211" height="4.41167" class="st3"/>
				</g>
				<g id="shape1194-9" transform="translate(1.70079,-35.0671)">
					<title>Sheet.1194</title>
					<path d="M11.11 121.08 C11.11 124.13 8.62 126.62 5.56 126.62 C2.49 126.62 0 124.13 0 121.08 C0 118.02 2.49 115.53
								 5.56 115.53 C8.62 115.53 11.11 118.02 11.11 121.08 Z" class="st1"/>
				</g>
				<g id="shape1195-11" transform="translate(4.53543,-37.3295)">
					<title>Sheet.1195</title>
					<path d="M2.15 123.9 L4.65 126.62 L3.29 126.62 L0 123.45 L3.29 120.17 L4.65 120.17 L2.15 122.89 L8.28 122.89
								 L8.28 123.9 L2.15 123.9 Z" class="st3"/>
				</g>
				<g id="shape1196-13" transform="translate(14.8535,-9.72829)">
					<title>Sheet.1196</title>
					<path d="M4.88 124.47 C4.88 125.15 4.65 125.6 4.2 126.05 C3.74 126.5 3.17 126.62 2.38 126.62 C1.7 126.62 1.13
								 126.39 0.68 125.94 C0.23 125.49 0 125.03 0 124.36 C0 123.68 0.23 123.22 0.68 122.77 C1.13 122.32
								 1.7 122.21 2.49 122.21 C3.17 122.21 3.74 122.43 4.2 122.89 C4.65 123.34 4.88 123.79 4.88 124.47
								 ZM14.97 124.47 C14.97 125.15 14.74 125.6 14.29 126.05 C13.83 126.5 13.27 126.62 12.47 126.62 C11.79
								 126.62 11.23 126.39 10.77 125.94 C10.32 125.49 10.09 125.03 10.09 124.36 C10.09 123.68 10.32 123.22
								 10.77 122.77 C11.23 122.32 11.79 122.21 12.59 122.21 C13.27 122.21 13.83 122.43 14.29 122.89 C14.74
								 123.34 14.97 123.79 14.97 124.47 ZM25.06 124.47 C25.06 125.15 24.83 125.6 24.38 126.05 C23.92 126.5
								 23.36 126.62 22.56 126.62 C21.88 126.62 21.32 126.39 20.86 125.94 C20.41 125.49 20.18 125.03 20.18
								 124.36 C20.18 123.68 20.41 123.22 20.86 122.77 C21.32 122.32 21.88 122.21 22.68 122.21 C23.36 122.21
								 23.92 122.43 24.38 122.89 C24.83 123.34 25.06 123.79 25.06 124.47 Z" class="st2"/>
				</g>
			</g>
		</g>
	</g>
</svg>
