<?xml version="1.0" encoding="UTF-8" standalone="no"?>
<!DOCTYPE svg PUBLIC "-//W3C//DTD SVG 1.1//EN" "http://www.w3.org/Graphics/SVG/1.1/DTD/svg11.dtd">
<!-- Generated by Microsoft Visio, SVG Export Resource Group.svg Page-1 -->
<svg xmlns="http://www.w3.org/2000/svg" xmlns:xlink="http://www.w3.org/1999/xlink" xmlns:ev="http://www.w3.org/2001/xml-events"
		width="1.73185in" height="2.18327in" viewBox="0 0 124.693 157.196" xml:space="preserve" color-interpolation-filters="sRGB"
		class="st6">
	<style type="text/css">
	<![CDATA[
		.st1 {fill:#949494;stroke:none;stroke-linecap:butt;stroke-width:34}
		.st2 {fill:#a3a3a3;stroke:none;stroke-linecap:butt;stroke-width:34}
		.st3 {fill:#32bedd;stroke:none;stroke-linecap:butt;stroke-width:34}
		.st4 {fill:#9cebff;stroke:none;stroke-linecap:butt;stroke-width:34}
		.st5 {fill:#50e6ff;stroke:none;stroke-linecap:butt;stroke-width:34}
		.st6 {fill:none;fill-rule:evenodd;font-size:12px;overflow:visible;stroke-linecap:square;stroke-miterlimit:3}
	]]>
	</style>

	<g>
		<title>Page-1</title>
		<g id="group1153-1" transform="translate(34,-69.3071)">
			<title>Resource Group</title>
			<g id="group1154-2">
				<title>Sheet.1154</title>
				<g id="shape1155-3">
					<title>Sheet.1155</title>
					<path d="M0 150.69 a0.53358 0.537585 -180 0 0 0.26679 0.470387 L4.14 153.34 L10.67 157.14 a0.566929 0.571184
								 -180 0 0 0.767022 -0.201594 L13.64 153.17 a0.53358 0.537585 -180 0 0 -0.200093 -0.705581 L5.77 148.1
								 a0.566929 0.571184 0 0 1 -0.26679 -0.470387 L5.5 112.96 a0.53358 0.537585 0 0 1 0.26679 -0.470387
								 L13.44 108.12 a0.53358 0.537585 -180 0 0 0.200093 -0.705581 L11.44 103.65 a0.566929 0.571184 -180
								 0 0 -0.767022 -0.268793 L4.27 107.11 L0.27 109.36 a0.53358 0.537585 -180 0 0 -0.26679 0.470387 L0
								 150.69 Z" class="st1"/>
				</g>
				<g id="shape1156-5" transform="translate(0,-0.121621)">
					<title>Sheet.1156</title>
					<path d="M5.47 112.81 L5.67 112.61 L13.34 108.24 a0.466883 0.470387 -180 0 0 0.200093 -0.705581 L11.34 103.77
								 a0.500232 0.503986 -180 0 0 -0.733673 -0.268793 L4.17 107.23 L0.2 109.48 C0.2 109.48 0.03 109.48
								 0 109.68 L3 111.4 L5.47 112.81 ZM13.34 152.52 L5.67 148.16 a0.733673 0.73918 0 0 1 -0.233441 -0.302392
								 L0.03 151.21 L0.2 151.21 L4.04 153.4 L10.7 157.13 a0.500232 0.503986 -180 0 0 0.733673 -0.201594
								 L13.64 153.16 a0.466883 0.470387 -180 0 0 -0.300139 -0.638382 Z" class="st2"/>
				</g>
				<g id="shape1157-7" transform="translate(43.0152,0)">
					<title>Sheet.1157</title>
					<path d="M13.68 150.69 a0.53358 0.537585 0 0 1 -0.26679 0.470387 L9.54 153.34 L3.01 157.14 a0.566929 0.571184
								 0 0 1 -0.767022 -0.201594 L0.04 153.17 a0.53358 0.537585 0 0 1 0.200093 -0.705581 L7.91 148.1 a0.566929
								 0.571184 -180 0 0 0.26679 -0.470387 L8.18 112.96 a0.53358 0.537585 -180 0 0 -0.26679 -0.470387 L0.24
								 108.12 a0.53358 0.537585 0 0 1 -0.200093 -0.705581 L2.24 103.65 a0.566929 0.571184 0 0 1 0.767022
								 -0.268793 L9.41 107.04 L13.41 109.29 a0.53358 0.537585 0 0 1 0.26679 0.470387 L13.68 150.69 Z"
							class="st1"/>
				</g>
				<g id="shape1158-9" transform="translate(43.0854,-0.121621)">
					<title>Sheet.1158</title>
					<path d="M8.14 112.81 L7.94 112.61 L0.27 108.24 a0.466883 0.470387 0 0 1 -0.200093 -0.705581 L2.27 103.77 a0.500232
								 0.503986 0 0 1 0.733673 -0.268793 L9.44 107.16 L13.41 109.42 L13.61 109.62 L10.61 111.33 L8.14 112.81
								 ZM0.27 152.52 L7.94 148.16 a0.733673 0.73918 -180 0 0 0.233441 -0.302392 L13.57 151.21 L9.74 153.4
								 L3.07 157.13 a0.500232 0.503986 0 0 1 -0.733673 -0.201594 L0.13 153.16 a0.466883 0.470387 0 0 1
								 0.133395 -0.638382 Z" class="st2"/>
				</g>
				<g id="shape1159-11" transform="translate(28.3131,-6.23894)">
					<title>Sheet.1159</title>
					<path d="M17.74 126.18 L17.74 146.81 L0 157.2 L0 136.53 L17.74 126.18 Z" class="st3"/>
				</g>
				<g id="shape1160-13" transform="translate(10.6049,-26.8688)">
					<title>Sheet.1160</title>
					<path d="M35.45 146.81 L17.74 157.2 L0 146.81 L17.74 136.43 L35.45 146.81 Z" class="st4"/>
				</g>
				<g id="shape1161-15" transform="translate(10.6049,-6.23894)">
					<title>Sheet.1161</title>
					<path d="M17.71 136.57 L17.71 157.2 L0 146.81 L0 126.18 L17.71 136.57 Z" class="st5"/>
				</g>
				<g id="shape1162-17" transform="translate(10.6049,-6.23894)">
					<title>Sheet.1162</title>
					<path d="M0 146.81 L17.71 136.53 L17.71 157.2 L0 146.81 Z" class="st4"/>
				</g>
				<g id="shape1163-19" transform="translate(28.3131,-6.23894)">
					<title>Sheet.1163</title>
					<path d="M17.74 146.81 L0 136.53 L0 157.2 L17.74 146.81 Z" class="st5"/>
				</g>
			</g>
		</g>
	</g>
</svg>
