<?xml version="1.0" encoding="UTF-8" standalone="no"?>
<!DOCTYPE svg PUBLIC "-//W3C//DTD SVG 1.1//EN" "http://www.w3.org/Graphics/SVG/1.1/DTD/svg11.dtd">
<!-- Generated by Microsoft Visio, SVG Export Resource Lock.svg Page-1 -->
<svg xmlns="http://www.w3.org/2000/svg" xmlns:xlink="http://www.w3.org/1999/xlink" xmlns:ev="http://www.w3.org/2001/xml-events"
		width="1.96555in" height="2.45917in" viewBox="0 0 141.52 177.061" xml:space="preserve" color-interpolation-filters="sRGB"
		class="st2">
	<style type="text/css">
	<![CDATA[
		.st1 {fill:#000000;stroke:none;stroke-linecap:butt;stroke-width:49.5}
		.st2 {fill:none;fill-rule:evenodd;font-size:12px;overflow:visible;stroke-linecap:square;stroke-miterlimit:3}
	]]>
	</style>

	<g>
		<title>Page-1</title>
		<g id="group1145-1" transform="translate(49.5,-70.8661)">
			<title>Resource Lock</title>
			<g id="group1146-2">
				<title>Sheet.1146</title>
				<g id="shape1147-3">
					<title>Sheet.1147</title>
					<path d="M42.52 145.17 L42.52 177.06 L0 177.06 L0 145.17 L7.09 145.17 L7.09 134.9 A14.5276 14.5276 0 0 1 8.15
								 129.23 A20.1969 20.1969 0 0 1 10.98 124.62 A13.4646 13.4646 0 0 1 15.59 121.43 A14.5276 14.5276
								 0 0 1 21.26 120.37 A14.5276 14.5276 0 0 1 26.93 121.43 A13.4646 13.4646 0 0 1 31.54 124.62 A20.1969
								 20.1969 0 0 1 34.37 129.23 A14.5276 14.5276 0 0 1 35.43 134.9 L35.43 145.17 L42.52 145.17 ZM38.98
								 148.71 L3.54 148.71 L3.54 173.52 L38.98 173.52 L38.98 148.71 ZM10.63 145.17 L31.89 145.17 L31.89
								 134.9 A17.7165 17.7165 -180 0 0 31.18 130.64 A12.7559 12.7559 -180 0 0 28.7 127.1 A7.79528 7.79528
								 -180 0 0 25.51 124.62 L21.26 123.91 L17.01 124.62 A7.79528 7.79528 -180 0 0 13.82 127.1 A12.7559
								 12.7559 -180 0 0 11.34 130.64 A17.7165 17.7165 -180 0 0 10.63 134.9 L10.63 145.17 Z" class="st1"/>
				</g>
			</g>
		</g>
	</g>
</svg>
