<?xml version="1.0" encoding="UTF-8" standalone="no"?>
<!DOCTYPE svg PUBLIC "-//W3C//DTD SVG 1.1//EN" "http://www.w3.org/Graphics/SVG/1.1/DTD/svg11.dtd">
<!-- Generated by Microsoft Visio, SVG Export Role (AzureAD).svg Page-1 -->
<svg xmlns="http://www.w3.org/2000/svg" xmlns:xlink="http://www.w3.org/1999/xlink" xmlns:ev="http://www.w3.org/2001/xml-events"
		width="1.73217in" height="2.24388in" viewBox="0 0 124.716 161.559" xml:space="preserve" color-interpolation-filters="sRGB"
		class="st6">
	<style type="text/css">
	<![CDATA[
		.st1 {fill:url(#grad0-6);stroke:none;stroke-linecap:butt;stroke-width:34}
		.st2 {fill:#ffffff;stroke:none;stroke-linecap:butt;stroke-width:34}
		.st3 {fill:#32bedd;stroke:none;stroke-linecap:butt;stroke-width:34}
		.st4 {fill:#9cebff;stroke:none;stroke-linecap:butt;stroke-width:34}
		.st5 {fill:#50e6ff;stroke:none;stroke-linecap:butt;stroke-width:34}
		.st6 {fill:none;fill-rule:evenodd;font-size:12px;overflow:visible;stroke-linecap:square;stroke-miterlimit:3}
	]]>
	</style>

	<defs id="Patterns_And_Gradients">
		<linearGradient id="grad0-6" x1="0" y1="0" x2="1" y2="0" gradientTransform="rotate(-90 0.5 0.5)">
			<stop offset="0" stop-color="#5e9624" stop-opacity="1"/>
			<stop offset="0.06" stop-color="#659d25" stop-opacity="1"/>
			<stop offset="0.48" stop-color="#90c82e" stop-opacity="1"/>
			<stop offset="0.805" stop-color="#aae234" stop-opacity="1"/>
			<stop offset="1" stop-color="#b4ec36" stop-opacity="1"/>
		</linearGradient>
	</defs>
	<g>
		<title>Page-1</title>
		<g id="group1115-1" transform="translate(34.0233,-70.8661)">
			<title>Role (AzureAD)</title>
			<g id="group1116-2">
				<title>Sheet.1116</title>
				<g id="shape1117-3" transform="translate(0,-2.15519)">
					<title>Sheet.1117</title>
					<path d="M49.55 156.64 C48.13 145.3 42.56 135.69 32.3 132.58 A13.8911 13.8786 -180 1 0 17.11 132.46 C6.77 135.23
								 1.26 143.92 0 156.68 A4.43446 4.43049 -180 0 0 3.96 161.54 C4.1 161.54 4.25 161.56 4.4 161.56 L45.14
								 161.56 A4.41442 4.41047 -180 0 0 49.57 157.17 A4.67488 4.6707 -180 0 0 49.55 156.64 Z" class="st1"/>
				</g>
				<g id="shape1118-7" transform="translate(17.2837,-11.6767)">
					<title>Sheet.1118</title>
					<path d="M7.53 144.31 A13.8376 13.8253 0 0 1 -0 142.1 L7.46 161.56 L14.86 142.23 A13.841 13.8286 0 0 1 7.53 144.31
								 Z" class="st2"/>
				</g>
				<g id="shape1119-9" transform="translate(44.5282,2.84217E-13)">
					<title>Sheet.1119</title>
					<path d="M12.16 140.31 L12.16 154.45 L0 161.56 L0 147.4 L12.16 140.31 Z" class="st3"/>
				</g>
				<g id="shape1120-11" transform="translate(32.3635,-14.1455)">
					<title>Sheet.1120</title>
					<path d="M24.33 154.46 L12.16 161.56 L0 154.45 L12.16 147.35 L24.33 154.46 Z" class="st4"/>
				</g>
				<g id="shape1121-13" transform="translate(32.3635,0)">
					<title>Sheet.1121</title>
					<path d="M12.16 147.41 L12.16 161.56 L0 154.45 L0 140.31 L12.16 147.41 Z" class="st5"/>
				</g>
				<g id="shape1122-15" transform="translate(32.3635,2.84217E-13)">
					<title>Sheet.1122</title>
					<path d="M0 154.45 L12.16 147.4 L12.16 161.56 L0 154.45 Z" class="st4"/>
				</g>
				<g id="shape1123-17" transform="translate(44.5282,2.84217E-13)">
					<title>Sheet.1123</title>
					<path d="M12.16 154.45 L0 147.4 L0 161.56 L12.16 154.45 Z" class="st5"/>
				</g>
			</g>
		</g>
	</g>
</svg>
