<?xml version="1.0" encoding="UTF-8" standalone="no"?>
<!DOCTYPE svg PUBLIC "-//W3C//DTD SVG 1.1//EN" "http://www.w3.org/Graphics/SVG/1.1/DTD/svg11.dtd">
<!-- Generated by Microsoft Visio, SVG Export Security Baseline.svg Page-1 -->
<svg xmlns="http://www.w3.org/2000/svg" xmlns:xlink="http://www.w3.org/1999/xlink" xmlns:ev="http://www.w3.org/2001/xml-events"
		width="1.77116in" height="2.3029in" viewBox="0 0 127.524 165.809" xml:space="preserve" color-interpolation-filters="sRGB"
		class="st6">
	<style type="text/css">
	<![CDATA[
		.st1 {fill:#57a300;stroke:none;stroke-linecap:butt;stroke-width:38.25}
		.st2 {fill:#b8d432;fill-opacity:0.4;stroke:none;stroke-linecap:butt;stroke-width:38.25}
		.st3 {fill:#ffffff;stroke:none;stroke-linecap:butt;stroke-width:38.25}
		.st4 {fill:#3898c6;stroke:none;stroke-linecap:butt;stroke-width:38.25}
		.st5 {fill:#3999c6;stroke:none;stroke-linecap:butt;stroke-width:38.25}
		.st6 {fill:none;fill-rule:evenodd;font-size:12px;overflow:visible;stroke-linecap:square;stroke-miterlimit:3}
	]]>
	</style>

	<g>
		<title>Page-1</title>
		<g id="group1031-1" transform="translate(38.25,-70.8661)">
			<title>Security Baseline</title>
			<g id="group1032-2">
				<title>Sheet.1032</title>
				<g id="shape1033-3" transform="translate(2.51799E-13,-10.627)">
					<title>Sheet.1033</title>
					<path d="M31.01 125.24 C20.06 124.12 18.22 119.74 18.22 119.74 C18.22 119.74 15.76 125.49 0 125.49 L0 149.09
								 C0 151.94 1.71 154.62 4.08 156.95 C9.45 162.24 18.22 165.81 18.22 165.81 C18.22 165.81 36.45 158.41
								 36.45 149.09 L36.45 125.49 C34.42 125.49 32.62 125.4 31.01 125.24 Z" class="st1"/>
				</g>
				<g id="shape1034-5" transform="translate(-2.51799E-13,-19.4859)">
					<title>Sheet.1034</title>
					<path d="M22.73 143.84 L31.01 134.09 C20.06 132.97 18.22 128.6 18.22 128.6 C18.22 128.6 15.76 134.35 0 134.35
								 L0 157.95 C0 160.8 1.71 163.47 4.08 165.81 L10.2 158.6 L22.73 143.84 Z" class="st2"/>
				</g>
				<g id="shape1035-7" transform="translate(21.8673,-3.37698)">
					<title>Sheet.1035</title>
					<path d="M0 140.83 L25.51 140.83 L25.51 165.64 L0.08 165.81 L0 140.83 Z" class="st3"/>
				</g>
				<g id="shape1036-9" transform="translate(25.5118,-7.08706)">
					<title>Sheet.1036</title>
					<path d="M7.29 148.09 L18.22 148.09 L18.22 151.63 L7.29 151.63 L7.29 148.09 ZM7.29 155.18 L18.22 155.18 L18.22
								 158.72 L7.29 158.72 L7.29 155.18 ZM7.29 162.27 L18.22 162.27 L18.22 165.81 L7.29 165.81 L7.29 162.27
								 ZM0 148.09 L3.64 148.09 L3.64 151.63 L0 151.63 L0 148.09 ZM0 155.18 L3.64 155.18 L3.64 158.72 L0
								 158.72 L0 155.18 ZM0 162.27 L3.64 162.27 L3.64 165.81 L0 165.81 L0 162.27 Z" class="st4"/>
				</g>
				<g id="shape1037-11" transform="translate(18.2227,0)">
					<title>Sheet.1037</title>
					<path d="M31.54 130.37 L1.26 130.37 A1.25737 1.22252 -180 0 0 0 131.6 L0 164.59 C0 165.26 0.56 165.81 1.26 165.81
								 L31.53 165.81 A1.26101 1.22606 -180 0 0 32.8 164.59 L32.8 131.6 A1.25737 1.22252 -180 0 0 31.54
								 130.37 ZM3.64 162.27 L3.64 137.46 L29.16 137.46 L29.16 162.27 L3.64 162.27 Z" class="st5"/>
				</g>
			</g>
		</g>
	</g>
</svg>
