<?xml version="1.0" encoding="UTF-8" standalone="no"?>
<!DOCTYPE svg PUBLIC "-//W3C//DTD SVG 1.1//EN" "http://www.w3.org/Graphics/SVG/1.1/DTD/svg11.dtd">
<!-- Generated by Microsoft Visio, SVG Export Security Center Coverage.svg Page-1 -->
<svg xmlns="http://www.w3.org/2000/svg" xmlns:xlink="http://www.w3.org/1999/xlink" xmlns:ev="http://www.w3.org/2001/xml-events"
		width="1.62847in" height="2.09697in" viewBox="0 0 117.25 150.982" xml:space="preserve" color-interpolation-filters="sRGB"
		class="st6">
	<style type="text/css">
	<![CDATA[
		.st1 {fill:none;stroke:none;stroke-linecap:butt;stroke-width:32.2105}
		.st2 {fill:url(#grad0-8);stroke:none;stroke-linecap:butt;stroke-width:32.2105}
		.st3 {fill:url(#grad0-12);stroke:none;stroke-linecap:butt;stroke-width:32.2105}
		.st4 {fill:#0078d4;stroke:none;stroke-linecap:butt;stroke-width:32.2105}
		.st5 {fill:#3c3b41;stroke:none;stroke-linecap:butt;stroke-width:32.2105}
		.st6 {fill:none;fill-rule:evenodd;font-size:12px;overflow:visible;stroke-linecap:square;stroke-miterlimit:3}
	]]>
	</style>

	<defs id="Patterns_And_Gradients">
		<linearGradient id="grad0-8" x1="0" y1="0" x2="1" y2="0" gradientTransform="rotate(0 0.5 0.5)">
			<stop offset="0" stop-color="#dfa500" stop-opacity="1"/>
			<stop offset="0.28" stop-color="#efb700" stop-opacity="1"/>
			<stop offset="0.51" stop-color="#ffca00" stop-opacity="1"/>
			<stop offset="1" stop-color="#e1a800" stop-opacity="1"/>
		</linearGradient>
		<linearGradient id="grad0-12" x1="0" y1="0" x2="1" y2="0" gradientTransform="rotate(90 0.5 0.5)">
			<stop offset="0.045" stop-color="#e2e3e4" stop-opacity="1"/>
			<stop offset="1" stop-color="#aaaaaa" stop-opacity="1"/>
		</linearGradient>
	</defs>
	<g>
		<title>Page-1</title>
		<g id="group1018-1" transform="translate(28.3465,-67.748)">
			<title>Security Center Coverage</title>
			<g id="group1019-2">
				<title>Sheet.1019</title>
				<g id="shape1020-3" transform="translate(5.66164,0)">
					<title>Sheet.1020</title>
					<path d="M0 99.96 L51.03 99.96 L51.03 150.98 L0 150.98 L0 99.96 Z" class="st1"/>
				</g>
				<g id="shape1021-5" transform="translate(2.79776E-13,-20.2821)">
					<title>Sheet.1021</title>
					<path d="M11.63 131.88 A2.69048 2.69008 0 0 1 14.81 131.95 L24.29 139.02 A2.83507 2.83465 0 0 1 24.25 143.59
								 L14.73 150.47 A2.55156 2.55118 0 0 1 11.73 150.52 C8.09 147.86 0 140.26 11.63 131.88 Z"
							class="st2"/>
				</g>
				<g id="shape1022-9" transform="translate(26.695,-3.40157)">
					<title>Sheet.1022</title>
					<path d="M28.27 150.64 L24.14 111.86 L4.14 111.86 L0 150.98 L28.27 150.98 L28.27 150.64 Z" class="st3"/>
				</g>
				<g id="shape1023-13" transform="translate(28.517,-38.778)">
					<title>Sheet.1023</title>
					<path d="M18.87 143.84 L16.11 141.8 L15.79 141.54 A5.67014 5.66929 -180 0 0 8.78 141.45 L0.62 147.71 A1.82295
								 1.82268 -180 0 0 1.72 150.98 L22.55 150.98 A1.83996 1.83969 -180 0 0 23.7 147.71 L18.87 143.84 Z"
							class="st4"/>
				</g>
				<g id="shape1024-15" transform="translate(37.3776,-26.1921)">
					<title>Sheet.1024</title>
					<path d="M7.25 146.56 A3.80183 3.80126 -180 0 0 3.46 142.82 A3.51549 3.51496 -180 0 0 -0 146.56 L0 150.98 L7.24
								 150.98 L7.25 146.56 Z" class="st5"/>
				</g>
				<g id="shape1025-17" transform="translate(24.9713,0)">
					<title>Sheet.1025</title>
					<path d="M8.28 143.84 L3.57 143.84 A3.57219 3.57165 -180 1 0 3.57 150.98 L28.15 150.98 A3.57219 3.57165 -180
								 1 0 28.15 143.84 L8.28 143.84 Z" class="st4"/>
				</g>
			</g>
		</g>
	</g>
</svg>
