<?xml version="1.0" encoding="UTF-8" standalone="no"?>
<!DOCTYPE svg PUBLIC "-//W3C//DTD SVG 1.1//EN" "http://www.w3.org/Graphics/SVG/1.1/DTD/svg11.dtd">
<!-- Generated by Microsoft Visio, SVG Export Sentinel.svg Page-1 -->
<svg xmlns="http://www.w3.org/2000/svg" xmlns:xlink="http://www.w3.org/1999/xlink" xmlns:ev="http://www.w3.org/2001/xml-events"
		width="1.33858in" height="2.07522in" viewBox="0 0 96.378 149.416" xml:space="preserve" color-interpolation-filters="sRGB"
		class="st4">
	<style type="text/css">
	<![CDATA[
		.st1 {fill:#0072c6;stroke:none;stroke-linecap:butt;stroke-width:21.8571}
		.st2 {fill:#ffffff;fill-opacity:0.15;stroke:none;stroke-linecap:butt;stroke-width:21.8571}
		.st3 {fill:#ffffff;stroke:none;stroke-linecap:butt;stroke-width:21.8571}
		.st4 {fill:none;fill-rule:evenodd;font-size:12px;overflow:visible;stroke-linecap:square;stroke-miterlimit:3}
	]]>
	</style>

	<g>
		<title>Page-1</title>
		<g id="group1000-1" transform="translate(24.0945,-70.8661)">
			<title>Sentinel</title>
			<g id="group1001-2">
				<title>Sheet.1001</title>
				<g id="shape1002-3">
					<title>Sheet.1002</title>
					<path d="M23.05 148.73 C17.64 145.29 0 132.9 0 118.44 L0 99.94 L1.89 99.8 C9.43 99.31 12.36 97.3 14.94 95.52
								 C17.14 94.03 19.04 92.72 24.1 92.72 C29.16 92.72 31.14 94.09 33.23 95.53 C35.82 97.3 38.76 99.34
								 46.3 99.82 L48.19 99.94 L48.19 118.44 C48.19 132.9 30.54 145.29 25.13 148.74 L24.08 149.42 L23.05
								 148.73 Z" class="st1"/>
				</g>
				<g id="shape1003-5" transform="translate(1.14498,-6.40276)">
					<title>Sheet.1003</title>
					<path d="M15.91 149.41 L31.72 103.09 L31.47 102.92 C29.43 101.52 27.67 100.3 22.96 100.3 C18.25 100.3 16.56 101.48
								 14.44 102.93 C11.73 104.79 8.67 106.9 0.81 107.38 L0 107.45 L0 124.84 C0 134.81 8.94 143.87 15.91
								 149.42 L15.91 149.41 Z" class="st2"/>
				</g>
				<g id="shape1004-7" transform="translate(5.77999,-28.3518)">
					<title>Sheet.1004</title>
					<path d="M18.32 137.61 L18.33 137.61 A12.6051 12.9703 0 0 1 30.88 149.36 L30.89 149.42 L36.62 149.42 C36.08 139.44
								 28.09 131.55 18.31 131.55 C8.52 131.55 0.53 139.44 0 149.37 L0 149.42 L5.73 149.42 C6.33 142.77
								 11.72 137.61 18.28 137.61 L18.32 137.61 L18.32 137.61 L18.32 137.61 Z" class="st3"/>
				</g>
				<g id="shape1005-9" transform="translate(17.3314,-20.1986)">
					<title>Sheet.1005</title>
					<path d="M13.54 142.45 A6.77173 6.96791 0 1 1 0 142.45 A6.77173 6.96791 0 1 1 13.54 142.45 Z" class="st3"/>
				</g>
			</g>
		</g>
	</g>
</svg>
