<?xml version="1.0" encoding="UTF-8" standalone="no"?>
<!DOCTYPE svg PUBLIC "-//W3C//DTD SVG 1.1//EN" "http://www.w3.org/Graphics/SVG/1.1/DTD/svg11.dtd">
<!-- Generated by Microsoft Visio, SVG Export Service Endpoint.svg Page-1 -->
<svg xmlns="http://www.w3.org/2000/svg" xmlns:xlink="http://www.w3.org/1999/xlink" xmlns:ev="http://www.w3.org/2001/xml-events"
		width="1.49606in" height="1.9398in" viewBox="0 0 107.717 139.666" xml:space="preserve" color-interpolation-filters="sRGB"
		class="st6">
	<style type="text/css">
	<![CDATA[
		.st1 {fill:#3999c6;stroke:none;stroke-linecap:butt;stroke-width:12.24}
		.st2 {fill:#57a300;stroke:none;stroke-linecap:butt;stroke-width:12.24}
		.st3 {fill:#59b4d9;stroke:none;stroke-linecap:butt;stroke-width:12.24}
		.st4 {fill:#ffffff;stroke:none;stroke-linecap:butt;stroke-width:12.24}
		.st5 {fill:#ffffff;fill-opacity:0.2;stroke:none;stroke-linecap:butt;stroke-width:12.24}
		.st6 {fill:none;fill-rule:evenodd;font-size:12px;overflow:visible;stroke-linecap:square;stroke-miterlimit:3}
	]]>
	</style>

	<g>
		<title>Page-1</title>
		<g id="group874-1" transform="translate(26.9291,-70.8661)">
			<title>Service Endpoint</title>
			<g id="group875-2">
				<title>g24</title>
				<g id="shape876-3" transform="translate(0.586231,-25.775)">
					<title>path4</title>
					<path d="M52.74 124.95 C53.27 124.42 53.17 123.57 52.74 123.03 L50.21 120.48 L38.79 109.28 C38.26 108.75 37.52
								 108.75 36.99 109.28 C36.47 109.81 36.36 110.67 36.99 111.2 L48.94 123.04 A1.34061 1.35218 0 0 1
								 48.94 124.95 L36.78 137.21 A1.34061 1.35218 -180 0 0 36.78 139.13 C37.31 139.67 38.16 139.56 38.58
								 139.13 L49.89 127.83 L50 127.73 L52.74 124.95 ZM0.53 124.95 C0 124.42 0.11 123.57 0.53 123.03 L3.07
								 120.48 L14.48 109.28 C15.01 108.75 15.75 108.75 16.28 109.28 C16.81 109.81 16.91 110.67 16.28 111.2
								 L4.55 123.04 A1.34061 1.35218 -180 0 0 4.55 124.95 L16.49 137.21 A1.34061 1.35218 0 0 1 16.49 139.13
								 C15.96 139.67 15.12 139.56 14.69 139.13 L3.17 127.94 L3.07 127.83 L0.53 124.95 Z" class="st1"/>
				</g>
				<g id="shape877-5" transform="translate(11.9291,-37.2422)">
					<title>path6</title>
					<path d="M7.95 135.66 C7.95 137.96 6.08 139.67 4.09 139.67 C2.11 139.67 0 137.72 0 135.66 C0 133.59 1.64 131.64
								 4.09 131.64 C6.43 131.64 7.95 133.59 7.95 135.66 Z" class="st2"/>
				</g>
				<g id="shape878-7" transform="translate(34.6513,-37.2422)">
					<title>circle8</title>
					<ellipse cx="3.97637" cy="135.655" rx="3.97637" ry="4.0107" class="st2"/>
				</g>
				<g id="shape879-9">
					<title>path10</title>
					<path d="M45.44 123.62 C45.04 123.62 44.65 123.66 44.26 123.72 L44.26 123.71 C44.26 115 37.32 107.94 28.76 107.94
								 C21.92 107.94 16.12 112.45 14.06 118.7 A10.4033 10.4931 -180 0 0 10.6 118.1 C4.74 118.1 0 122.93
								 0 128.88 C0 134.84 4.74 139.66 10.6 139.66 L10.61 139.66 L10.61 139.67 L44.9 139.67 L44.9 139.66
								 L44.93 139.67 C45.02 139.67 45.1 139.66 45.19 139.65 C45.27 139.66 45.36 139.67 45.44 139.67 A7.95275
								 8.02139 -180 0 0 45.44 123.62 Z" class="st3"/>
				</g>
				<g id="shape880-11" transform="translate(24.9943,-12.605)">
					<title>path12</title>
					<rect x="0" y="113.31" width="4.54443" height="26.356" class="st4"/>
				</g>
				<g id="shape881-13">
					<title>path14</title>
					<path d="M23.95 120.21 A15.3408 15.4733 0 0 1 31.92 108.28 C30.9 108.06 29.85 107.94 28.76 107.94 C21.92 107.94
								 16.12 112.44 14.06 118.7 A10.3976 10.4874 -180 0 0 10.6 118.1 C4.74 118.1 0 122.93 0 128.88 C0 134.84
								 4.74 139.66 10.6 139.66 L10.61 139.66 L10.61 139.67 L15.07 139.67 A11.8712 11.9736 0 0 1 12.5 132.22
								 C12.5 125.73 17.59 120.46 23.95 120.21 Z" class="st5"/>
				</g>
				<g id="shape882-15" transform="translate(23.2902,-37.2422)">
					<title>path16</title>
					<path d="M7.95 135.66 C7.95 137.96 6.08 139.67 4.09 139.67 C2.11 139.67 0 137.72 0 135.66 C0 133.59 1.87 131.64
								 4.09 131.64 C6.32 131.64 7.95 133.59 7.95 135.66 Z" class="st2"/>
				</g>
				<g id="shape883-17" transform="translate(22.6085,-9.05157)">
					<title>path18</title>
					<path d="M6.93 130.86 L6.93 117.03 C6.67 117.02 6.42 116.99 6.15 116.99 C4.85 116.99 3.59 117.16 2.39 117.46
								 L2.39 130.96 C0.99 131.8 0 133.3 0 134.97 C0 137.38 2.31 139.67 4.76 139.67 C7.27 139.67 9.32 137.56
								 9.32 134.97 A4.66145 4.70168 -180 0 0 6.93 130.86 Z" class="st4"/>
				</g>
				<g id="shape884-19" transform="translate(23.9718,-10.4278)">
					<title>path20</title>
					<path d="M6.59 136.34 C6.59 138.26 5.04 139.67 3.39 139.67 C1.74 139.67 0 138.05 0 136.34 C0 134.63 1.55 133.02
								 3.39 133.02 C5.23 133.02 6.59 134.63 6.59 136.34 Z" class="st2"/>
				</g>
				<g id="shape885-21" transform="translate(26.1305,-13.751)">
					<title>path22</title>
					<rect x="0" y="115.602" width="2.27221" height="24.0642" class="st2"/>
				</g>
			</g>
		</g>
	</g>
</svg>
