<?xml version="1.0" encoding="UTF-8" standalone="no"?>
<!DOCTYPE svg PUBLIC "-//W3C//DTD SVG 1.1//EN" "http://www.w3.org/Graphics/SVG/1.1/DTD/svg11.dtd">
<!-- Generated by Microsoft Visio, SVG Export Shared Dashboard.svg Page-1 -->
<svg xmlns="http://www.w3.org/2000/svg" xmlns:xlink="http://www.w3.org/1999/xlink" xmlns:ev="http://www.w3.org/2001/xml-events"
		width="1.73185in" height="1.87777in" viewBox="0 0 124.693 135.199" xml:space="preserve" color-interpolation-filters="sRGB"
		class="st3">
	<style type="text/css">
	<![CDATA[
		.st1 {fill:url(#grad0-6);stroke:none;stroke-linecap:butt;stroke-width:34}
		.st2 {fill:#ffffff;stroke:none;stroke-linecap:butt;stroke-width:34}
		.st3 {fill:none;fill-rule:evenodd;font-size:12px;overflow:visible;stroke-linecap:square;stroke-miterlimit:3}
	]]>
	</style>

	<defs id="Patterns_And_Gradients">
		<linearGradient id="grad0-6" x1="0" y1="0" x2="1" y2="0" gradientTransform="rotate(90 0.5 0.5)">
			<stop offset="0.09" stop-color="#6cc6b9" stop-opacity="1"/>
			<stop offset="0.465" stop-color="#6ac4b7" stop-opacity="1"/>
			<stop offset="0.635" stop-color="#62bdb0" stop-opacity="1"/>
			<stop offset="0.77" stop-color="#56b1a4" stop-opacity="1"/>
			<stop offset="0.88" stop-color="#439f93" stop-opacity="1"/>
			<stop offset="0.975" stop-color="#2c897d" stop-opacity="1"/>
			<stop offset="1" stop-color="#258277" stop-opacity="1"/>
		</linearGradient>
	</defs>
	<g>
		<title>Page-1</title>
		<g id="group836-1" transform="translate(34,-61.5118)">
			<title>Shared Dashboard</title>
			<g id="group837-2">
				<title>g10</title>
				<g id="shape838-3">
					<title>path2</title>
					<path d="M1.73 95.51 L54.95 95.51 A1.64724 1.62786 0 0 1 56.69 97.05 L56.69 133.67 A1.64724 1.62786 0 0 1 54.97
								 135.2 L1.73 135.2 A1.64724 1.62786 0 0 1 -0 133.67 L0 97.05 A1.64724 1.62786 0 0 1 1.73 95.51 Z"
							class="st1"/>
				</g>
				<g id="shape839-7" transform="translate(22.9575,-20.1507)">
					<title>path4</title>
					<path d="M0.49 120.33 L25.97 120.33 a0.48189 0.47622 0 0 1 0.497638 0.460658 L26.47 134.74 a0.48189 0.47622 0
								 0 1 -0.497638 0.460658 L0.49 135.2 a0.47874 0.473108 0 0 1 -0.494488 -0.460658 L0 120.79 a0.47874
								 0.473108 0 0 1 0.494488 -0.460658 Z" class="st2"/>
				</g>
				<g id="shape840-9" transform="translate(7.03307,-5.10147)">
					<title>rect6</title>
					<path d="M0 134.74 a0.469302 0.463781 -180 0 0 0.469291 0.46377 L10.26 135.2 a0.469302 0.463781 -180 0 0 0.469291
								 -0.46377 L10.72 105.75 a0.469302 0.463781 -180 0 0 -0.469291 -0.46377 L0.47 105.28 a0.469302 0.463781
								 -180 0 0 -0.469291 0.46377 L0 134.74 Z" class="st2"/>
				</g>
				<g id="shape841-11" transform="translate(22.9575,-5.09836)">
					<title>path8</title>
					<path d="M16.12 124.37 L26 124.37 a0.466142 0.460658 0 0 1 0.475591 0.448208 L26.47 134.75 a0.466142 0.460658
								 0 0 1 -0.475591 0.45132 L16.12 135.2 a0.466142 0.460658 0 0 1 -0.472441 -0.45132 L15.64 124.81 a0.462992
								 0.457545 0 0 1 0.472441 -0.43887 ZM0.45 124.37 L10.18 124.37 a0.466142 0.460658 0 0 1 0.466142 0.460658
								 L10.64 134.74 a0.466142 0.460658 0 0 1 -0.466142 0.460658 L0.45 135.2 a0.453543 0.448208 0 0 1 -0.453543
								 -0.448208 L0 124.81 a0.453543 0.448208 0 0 1 0.453543 -0.43887 Z" class="st2"/>
				</g>
			</g>
		</g>
	</g>
</svg>
