<?xml version="1.0" encoding="UTF-8" standalone="no"?>
<!DOCTYPE svg PUBLIC "-//W3C//DTD SVG 1.1//EN" "http://www.w3.org/Graphics/SVG/1.1/DTD/svg11.dtd">
<!-- Generated by Microsoft Visio, SVG Export SQL Database Edge.svg Page-1 -->
<svg xmlns="http://www.w3.org/2000/svg" xmlns:xlink="http://www.w3.org/1999/xlink" xmlns:ev="http://www.w3.org/2001/xml-events"
		width="1.5748in" height="1.80169in" viewBox="0 0 113.386 129.722" xml:space="preserve" color-interpolation-filters="sRGB"
		class="st12">
	<style type="text/css">
	<![CDATA[
		.st1 {fill:#ffffff;fill-opacity:0.4;stroke:none;stroke-linecap:butt;stroke-width:10.9502}
		.st2 {fill:url(#grad0-8);stroke:none;stroke-linecap:butt;stroke-width:10.9502}
		.st3 {fill:#e8e8e8}
		.st4 {stroke:none;stroke-linecap:butt;stroke-width:10.9502}
		.st5 {fill:#50e6ff}
		.st6 {fill:#198ab3;stroke:none;stroke-linecap:butt;stroke-width:10.9502}
		.st7 {fill:url(#grad0-20);stroke:none;stroke-linecap:butt;stroke-width:10.9502}
		.st8 {fill:#0072c6;stroke:none;stroke-linecap:butt;stroke-width:10.9502}
		.st9 {fill:#e8e8e8;stroke:none;stroke-linecap:butt;stroke-width:10.9502}
		.st10 {fill:#50e6ff;stroke:none;stroke-linecap:butt;stroke-width:10.9502}
		.st11 {fill:url(#grad6-35);stroke:none;stroke-linecap:butt;stroke-width:10.9502}
		.st12 {fill:none;fill-rule:evenodd;font-size:12px;overflow:visible;stroke-linecap:square;stroke-miterlimit:3}
	]]>
	</style>

	<defs id="Patterns_And_Gradients">
		<linearGradient id="grad0-8" x1="0" y1="0" x2="1" y2="0" gradientTransform="rotate(0 0.5 0.5)">
			<stop offset="0" stop-color="#005ba1" stop-opacity="1"/>
			<stop offset="0.07" stop-color="#0060a9" stop-opacity="1"/>
			<stop offset="0.355" stop-color="#0071c8" stop-opacity="1"/>
			<stop offset="0.515" stop-color="#0078d4" stop-opacity="1"/>
			<stop offset="0.64" stop-color="#0074cd" stop-opacity="1"/>
			<stop offset="0.82" stop-color="#006abb" stop-opacity="1"/>
			<stop offset="1" stop-color="#005ba1" stop-opacity="1"/>
		</linearGradient>
		<linearGradient id="grad0-20" x1="0" y1="0" x2="1" y2="0" gradientTransform="rotate(-90 0.5 0.5)">
			<stop offset="0" stop-color="#198ab3" stop-opacity="1"/>
			<stop offset="0.095" stop-color="#209ec5" stop-opacity="1"/>
			<stop offset="0.24" stop-color="#28b6da" stop-opacity="1"/>
			<stop offset="0.395" stop-color="#2ec7e9" stop-opacity="1"/>
			<stop offset="0.565" stop-color="#31d1f2" stop-opacity="1"/>
			<stop offset="0.775" stop-color="#32d4f5" stop-opacity="1"/>
		</linearGradient>
		<radialGradient id="grad6-35" cx="1" cy="0" r="1.4">
			<stop offset="0" stop-color="#f2f2f2" stop-opacity="1"/>
			<stop offset="0.58" stop-color="#eeeeee" stop-opacity="1"/>
			<stop offset="1" stop-color="#e6e6e6" stop-opacity="1"/>
		</radialGradient>
	</defs>
	<g>
		<title>Page-1</title>
		<g id="group752-1" transform="translate(28.3465,-67.748)">
			<title>SQL Database Edge</title>
			<g id="group753-2">
				<title>layer1</title>
				<g id="shape754-3" transform="translate(33.6837,-36.843)">
					<title>path40</title>
					<path d="M0 124.28 C4.76 125.54 5.97 126.33 10.26 129.72 C10.23 129.67 10.19 129.62 10.15 129.56 C9.95 129.25
								 9.74 128.96 9.52 128.67 C9.44 128.57 9.36 128.46 9.27 128.36 C9.08 128.12 8.87 127.91 8.66 127.7
								 A11.6804 11.3439 -180 0 0 7.64 126.77 L7.63 126.77 A11.5701 11.2368 -180 0 0 3.82 124.79 L3.64 124.74
								 C3.35 124.65 3.05 124.58 2.75 124.52 A12.4304 12.0722 -180 0 0 2.03 124.4 C1.84 124.37 1.66 124.34
								 1.47 124.32 A13.1169 12.739 -180 0 0 0.13 124.27 L0 124.28 Z" class="st1"/>
				</g>
				<g id="shape755-5" transform="translate(33.7284,-36.3056)">
					<title>path42</title>
					<path d="M5.72 119.03 C2.56 119.03 0 118.13 0 117.01 L0 127.71 C0 128.81 2.52 129.71 5.64 129.72 L5.72 129.72
								 C8.88 129.72 11.44 128.82 11.44 127.71 L11.44 117.01 C11.43 118.13 8.87 119.03 5.72 119.03 Z"
							class="st2"/>
				</g>
				<g id="shape756-9" transform="translate(33.7284,-47.0019)">
					<title>path44</title>
					<path d="M11.43 127.71 C11.43 128.82 8.87 129.72 5.71 129.72 C2.55 129.72 0 128.82 0 127.71 C0 126.6 2.56 125.7
								 5.72 125.7 C8.88 125.7 11.44 126.6 11.44 127.71 L11.43 127.71 Z" class="st3"/>
					<path d="M11.43 127.71 C11.43 128.82 8.87 129.72 5.71 129.72 C2.55 129.72 0 128.82 0 127.71 C0 126.6 2.56 125.7
								 5.72 125.7 C8.88 125.7 11.44 126.6 11.44 127.71" class="st4"/>
				</g>
				<g id="shape757-12" transform="translate(35.063,-47.8969)">
					<title>path46</title>
					<path d="M8.76 128.44 C8.76 129.15 6.8 129.72 4.38 129.72 C1.96 129.72 0 129.15 0 128.44 C0 127.74 1.96 127.16
								 4.39 127.16 C6.81 127.16 8.77 127.74 8.77 128.44 L8.76 128.44 Z" class="st5"/>
					<path d="M8.76 128.44 C8.76 129.15 6.8 129.72 4.38 129.72 C1.96 129.72 0 129.15 0 128.44 C0 127.74 1.96 127.16
								 4.39 127.16 C6.81 127.16 8.77 127.74 8.77 128.44" class="st4"/>
				</g>
				<g id="shape758-15" transform="translate(35.9784,-47.8919)">
					<title>path48</title>
					<path d="M3.47 128.73 A10.6038 10.2983 -180 0 0 0 129.22 A10.2303 9.9356 -180 0 0 3.47 129.72 A10.2303 9.9356
								 -180 0 0 6.94 129.22 A10.61 10.3043 -180 0 0 3.47 128.73 Z" class="st6"/>
				</g>
				<g id="shape759-17" transform="translate(6.66665,-12.9794)">
					<title>path50</title>
					<path d="M46.51 119.69 A10.4498 10.1488 -180 0 0 37.44 109.94 C37.37 103.17 31.33 97.7 23.88 97.7 A13.5153 13.1259
								 -180 0 0 10.96 106.26 C4.75 107.18 0 112.04 0 117.91 C0 124.43 5.86 129.72 13.1 129.72 C13.49 129.72
								 13.87 129.7 14.25 129.67 L35.46 129.67 A2.10952 2.04874 -180 0 0 36.02 129.59 C41.86 129.36 46.51
								 125.02 46.51 119.69 L46.51 119.69 Z" class="st7"/>
				</g>
				<g id="shape760-21">
					<title>path52</title>
					<path d="M52.17 87.11 C50.74 85.29 48.28 84.41 45.16 84.37 L45.16 87.4 C47.35 87.44 48.94 87.97 49.7 88.95 C52.33
								 92.3 47.55 103.28 33.8 113.55 C20.04 123.83 7.92 125.47 5.29 122.12 C3.8 120.22 4.72 115.87 8.28
								 110.59 A11.4827 11.1519 0 0 1 6.91 107.21 C1.83 113.98 0 120.37 2.82 123.96 C7.34 129.72 22.06 126.14
								 35.69 115.96 C49.31 105.79 56.69 92.87 52.17 87.11 Z" class="st8"/>
				</g>
				<g id="shape761-23" transform="translate(16.0981,-0.513202)">
					<title>path54</title>
					<path d="M9.81 111.37 C4.39 111.37 0 109.83 0 107.92 L0 126.27 C0 128.16 4.32 129.7 9.67 129.72 L9.81 129.72
								 C15.22 129.72 19.61 128.18 19.61 126.27 L19.61 107.92 C19.61 109.83 15.22 111.37 9.81 111.37 L9.81
								 111.37 Z" class="st2"/>
				</g>
				<g id="shape762-26" transform="translate(16.0981,-18.863)">
					<title>path56</title>
					<path d="M19.61 126.27 C19.61 128.18 15.22 129.72 9.81 129.72 C4.39 129.72 0 128.18 0 126.27 C0 124.37 4.39 122.82
								 9.81 122.82 C15.22 122.82 19.61 124.37 19.61 126.27 Z" class="st9"/>
				</g>
				<g id="shape763-28" transform="translate(18.3876,-20.3986)">
					<title>path58</title>
					<path d="M15.04 127.53 C15.04 128.74 11.67 129.72 7.52 129.72 C3.37 129.72 0 128.74 0 127.53 C0 126.32 3.37 125.34
								 7.52 125.34 C11.67 125.34 15.04 126.32 15.04 127.53 Z" class="st10"/>
				</g>
				<g id="shape764-30" transform="translate(19.95,-20.3986)">
					<title>path60</title>
					<path d="M5.96 128.03 A18.1681 17.6447 -180 0 0 0 128.87 A17.5513 17.0456 -180 0 0 5.96 129.72 A17.5544 17.0486
								 -180 0 0 11.91 128.87 A18.1795 17.6558 -180 0 0 5.96 128.03 Z" class="st6"/>
				</g>
				<g id="shape765-32" transform="translate(18.48,-6.91703)">
					<title>path62</title>
					<path d="M13.39 127.06 L13.39 122.05 L11.96 122.05 L11.96 128.19 L15.73 128.19 L15.73 127.06 L13.39 127.06 ZM2.48
								 124.59 A3.10395 3.01452 0 0 1 1.69 124.13 a0.662606 0.643516 0 0 1 -0.191462 -0.476815 a0.549225
								 0.533401 0 0 1 0.237067 -0.451576 A1.07661 1.04559 0 0 1 2.38 123.03 A2.49648 2.42455 0 0 1 3.84
								 123.46 L3.84 122.18 A4.16807 4.04799 -180 0 0 2.31 121.94 A2.57345 2.49931 -180 0 0 0.63 122.44
								 A1.67264 1.62445 -180 0 0 -0 123.77 A2.07311 2.01339 -180 0 0 1.45 125.56 A4.22632 4.10456 0 0 1
								 2.39 126.1 a0.653244 0.634424 0 0 1 0.231956 0.483878 a0.549225 0.533401 0 0 1 -0.241392 0.453603
								 A1.13486 1.10216 0 0 1 1.7 127.21 A2.52768 2.45486 0 0 1 0.03 126.58 L0.03 127.95 A3.43265 3.33375
								 -180 0 0 1.66 128.29 A2.9292 2.8448 -180 0 0 3.46 127.81 A1.64663 1.59919 -180 0 0 4.12 126.46 A1.58526
								 1.53959 -180 0 0 3.74 125.42 A3.89554 3.78331 -180 0 0 2.48 124.59 L2.48 124.59 ZM10.41 126.95 A3.91635
								 3.80351 -180 0 0 10.54 123.44 A2.74092 2.66195 -180 0 0 9.46 122.33 A3.05194 2.96401 -180 0 0 7.9
								 121.94 A3.27766 3.18323 -180 0 0 6.25 122.35 A2.83038 2.74883 -180 0 0 5.12 123.5 A3.74471 3.63682
								 -180 0 0 4.72 125.2 A3.49403 3.39336 -180 0 0 5.09 126.76 A2.78773 2.70741 -180 0 0 6.13 127.86
								 A3.0561 2.96805 -180 0 0 7.65 128.3 L8.96 129.72 L10.81 129.72 L8.98 128.07 A2.70452 2.62659 -180
								 0 0 10.41 126.95 L10.41 126.95 ZM8.99 126.58 A1.42299 1.38199 0 0 1 7.82 127.1 A1.40115 1.36078
								 0 0 1 6.66 126.56 A2.71804 2.63973 0 0 1 6.67 123.68 A1.44275 1.40119 0 0 1 7.85 123.13 A1.35226
								 1.3133 0 0 1 9 123.68 A2.47671 2.40535 0 0 1 9.41 125.15 A2.26763 2.2023 0 0 1 8.99 126.58 L8.99
								 126.58 Z" class="st11"/>
				</g>
			</g>
		</g>
	</g>
</svg>
