<?xml version="1.0" encoding="UTF-8" standalone="no"?>
<!DOCTYPE svg PUBLIC "-//W3C//DTD SVG 1.1//EN" "http://www.w3.org/Graphics/SVG/1.1/DTD/svg11.dtd">
<!-- Generated by Microsoft Visio, SVG Export SQL Instance Pool.svg Page-1 -->
<svg xmlns="http://www.w3.org/2000/svg" xmlns:xlink="http://www.w3.org/1999/xlink" xmlns:ev="http://www.w3.org/2001/xml-events"
		width="1.73186in" height="2.24388in" viewBox="0 0 124.694 161.559" xml:space="preserve" color-interpolation-filters="sRGB"
		class="st8">
	<style type="text/css">
	<![CDATA[
		.st1 {fill:#777777;stroke:none;stroke-linecap:butt;stroke-width:34}
		.st2 {fill:#999999;stroke:none;stroke-linecap:butt;stroke-width:34}
		.st3 {fill:url(#grad0-10);stroke:none;stroke-linecap:butt;stroke-width:34}
		.st4 {fill:#003067;stroke:none;stroke-linecap:butt;stroke-width:34}
		.st5 {fill:#50e6ff;stroke:none;stroke-linecap:butt;stroke-width:34}
		.st6 {fill:url(#grad0-18);stroke:none;stroke-linecap:butt;stroke-width:34}
		.st7 {fill:#f2f2f2;stroke:none;stroke-linecap:butt;stroke-width:34}
		.st8 {fill:none;fill-rule:evenodd;font-size:12px;overflow:visible;stroke-linecap:square;stroke-miterlimit:3}
	]]>
	</style>

	<defs id="Patterns_And_Gradients">
		<linearGradient id="grad0-10" x1="0" y1="0" x2="1" y2="0" gradientTransform="rotate(-90 0.5 0.5)">
			<stop offset="0" stop-color="#949494" stop-opacity="1"/>
			<stop offset="0.53" stop-color="#a2a2a2" stop-opacity="1"/>
			<stop offset="1" stop-color="#b3b3b3" stop-opacity="1"/>
		</linearGradient>
		<linearGradient id="grad0-18" x1="0" y1="0" x2="1" y2="0" gradientTransform="rotate(-90 0.5 0.5)">
			<stop offset="0" stop-color="#0078d4" stop-opacity="1"/>
			<stop offset="0.16" stop-color="#1380da" stop-opacity="1"/>
			<stop offset="0.53" stop-color="#3c91e5" stop-opacity="1"/>
			<stop offset="0.82" stop-color="#559cec" stop-opacity="1"/>
			<stop offset="1" stop-color="#5ea0ef" stop-opacity="1"/>
		</linearGradient>
	</defs>
	<g>
		<title>Page-1</title>
		<g id="group707-1" transform="translate(34.0012,-70.8661)">
			<title>SQL Instance Pool</title>
			<g id="group708-2">
				<title>Sheet.708</title>
				<g id="shape709-3" transform="translate(13.3395,-13.7171)">
					<title>Sheet.709</title>
					<path d="M32.75 159.63 A1.96758 1.99337 0 0 1 30.85 161.56 L1.9 161.56 A1.90088 1.9258 0 0 1 0 159.63 L0 120.51
								 A1.83418 1.85823 0 0 1 1.83 118.58 L30.85 118.58 A1.90088 1.9258 0 0 1 32.75 120.51 L32.75 159.63
								 Z" class="st1"/>
				</g>
				<g id="shape710-5" transform="translate(6.66975,-6.95992)">
					<title>Sheet.710</title>
					<path d="M32.75 159.63 A1.96758 1.99337 0 0 1 30.85 161.56 L1.9 161.56 A1.90088 1.9258 0 0 1 0 159.63 L0 120.51
								 A1.83418 1.85823 0 0 1 1.83 118.58 L30.85 118.58 A1.90088 1.9258 0 0 1 32.75 120.51 L32.75 159.63
								 Z" class="st2"/>
				</g>
				<g id="shape711-7" transform="translate(-2.81775E-13,-0.202716)">
					<title>Sheet.711</title>
					<path d="M32.75 159.63 A1.96758 1.99337 0 0 1 30.85 161.56 L1.9 161.56 A1.93423 1.95959 0 0 1 -0 159.63 L0 120.51
								 A1.83418 1.85823 0 0 1 1.83 118.58 L30.85 118.58 A1.90088 1.9258 0 0 1 32.75 120.51 L32.75 159.63
								 Z" class="st3"/>
				</g>
				<g id="shape712-11" transform="translate(4.80222,-30.475)">
					<title>Sheet.712</title>
					<path d="M0 157.98 A3.53497 3.58132 0 0 1 3.53 154.36 L19.88 154.36 A3.56832 3.6151 0 0 1 23.54 157.74 A3.60167
								 3.64889 0 0 1 19.94 161.56 L3.53 161.56 A3.60167 3.64889 0 0 1 -0 157.98 Z" class="st4"/>
				</g>
				<g id="shape713-13" transform="translate(6.13617,-31.6237)">
					<title>Sheet.713</title>
					<ellipse cx="2.40111" cy="159.126" rx="2.40111" ry="2.43259" class="st5"/>
				</g>
				<g id="shape714-15" transform="translate(6.93654,-2.84217E-13)">
					<title>Sheet.714</title>
					<path d="M49.76 150.38 A11.1718 11.3183 -180 0 0 40.05 139.5 A14.0398 14.2239 -180 0 0 25.55 125.98 A14.3733
								 14.5618 -180 0 0 11.74 135.37 A13.3395 13.5144 -180 0 0 0 148.38 A13.5396 13.7171 -180 0 0 14.01
								 161.56 L38.65 161.56 A11.2719 11.4197 -180 0 0 49.76 150.38 Z" class="st6"/>
				</g>
				<g id="shape715-19" transform="translate(14.8402,-3.75025)">
					<title>Sheet.715</title>
					<path d="M28.88 155.38 L28.88 144.02 L25.78 144.02 L25.78 157.94 L33.95 157.94 L33.95 155.38 L28.88 155.38 ZM5.2
								 149.8 A8.90412 9.02086 0 0 1 3.5 148.75 A1.56739 1.58794 0 0 1 3.1 147.67 A1.06716 1.08115 0 0 1
								 3.6 146.66 A2.10097 2.12852 0 0 1 5 146.25 A5.60259 5.67605 0 0 1 8.34 147.23 L8.34 144.33 A9.40435
								 9.52765 -180 0 0 5 143.82 A5.66929 5.74362 -180 0 0 1.37 144.94 A3.60167 3.64889 -180 0 0 -0 147.94
								 A4.50208 4.56111 -180 0 0 3.13 152 A8.37054 8.48029 0 0 1 5.17 153.21 A1.40065 1.41901 0 0 1 5.67
								 154.3 A1.10051 1.11494 0 0 1 5.17 155.31 A2.6012 2.63531 0 0 1 3.67 155.71 A5.36915 5.43955 0 0
								 1 0.17 154.3 L0.17 157.4 A7.60352 7.70321 -180 0 0 3.5 158.18 A6.43631 6.5207 -180 0 0 7.34 157.23
								 A3.53497 3.58132 -180 0 0 8.77 154.16 A3.33488 3.3786 -180 0 0 7.94 151.79 A7.53682 7.63564 -180
								 0 0 5.2 149.8 ZM22.41 155.14 A7.77026 7.87214 -180 0 0 23.51 150.88 A7.57017 7.66942 -180 0 0 22.68
								 147.1 A5.66929 5.74362 -180 0 0 20.38 144.6 A6.26957 6.35177 -180 0 0 16.84 143.72 A7.00324 7.09506
								 -180 0 0 13.51 144.7 A6.23622 6.31798 -180 0 0 11.07 147.3 A8.30384 8.41271 -180 0 0 10.17 151.15
								 A7.60352 7.70321 -180 0 0 10.97 154.7 A6.20287 6.2842 -180 0 0 13.24 157.2 A6.9032 6.9937 -180 0
								 0 16.57 158.18 L19.41 161.56 L23.51 161.56 L19.54 157.84 A6.06948 6.14905 -180 0 0 22.41 155.14
								 ZM19.31 154.3 A3.10144 3.1421 0 0 1 16.77 155.48 A3.06809 3.10831 0 0 1 14.27 154.26 A5.00232 5.0679
								 0 0 1 13.34 150.88 A4.76887 4.8314 0 0 1 14.31 147.5 A3.10144 3.1421 0 0 1 16.87 146.25 A2.90134
								 2.93938 0 0 1 19.34 147.5 A4.93562 5.00033 0 0 1 20.28 150.88 A4.90227 4.96654 0 0 1 19.31 154.3
								 Z" class="st7"/>
				</g>
			</g>
		</g>
	</g>
</svg>
