<?xml version="1.0" encoding="UTF-8" standalone="no"?>
<!DOCTYPE svg PUBLIC "-//W3C//DTD SVG 1.1//EN" "http://www.w3.org/Graphics/SVG/1.1/DTD/svg11.dtd">
<!-- Generated by Microsoft Visio, SVG Export Tag.svg Page-1 -->
<svg xmlns="http://www.w3.org/2000/svg" xmlns:xlink="http://www.w3.org/1999/xlink" xmlns:ev="http://www.w3.org/2001/xml-events"
		width="1.73195in" height="2.24388in" viewBox="0 0 124.7 161.559" xml:space="preserve" color-interpolation-filters="sRGB"
		class="st3">
	<style type="text/css">
	<![CDATA[
		.st1 {fill:url(#grad0-6);stroke:none;stroke-linecap:butt;stroke-width:34}
		.st2 {fill:#552f99;stroke:none;stroke-linecap:butt;stroke-width:34}
		.st3 {fill:none;fill-rule:evenodd;font-size:12px;overflow:visible;stroke-linecap:square;stroke-miterlimit:3}
	]]>
	</style>

	<defs id="Patterns_And_Gradients">
		<linearGradient id="grad0-6" x1="0" y1="0" x2="1" y2="0" gradientTransform="rotate(90 0.5 0.5)">
			<stop offset="0" stop-color="#c69aeb" stop-opacity="1"/>
			<stop offset="0.09" stop-color="#bb90e4" stop-opacity="1"/>
			<stop offset="0.49" stop-color="#926bc9" stop-opacity="1"/>
			<stop offset="0.81" stop-color="#7854b8" stop-opacity="1"/>
			<stop offset="1" stop-color="#6f4bb2" stop-opacity="1"/>
		</linearGradient>
	</defs>
	<g>
		<title>Page-1</title>
		<g id="group512-1" transform="translate(34,-70.8661)">
			<title>Tag</title>
			<g id="group513-2">
				<title>g6</title>
				<g id="shape514-3">
					<title>path2</title>
					<path d="M56.15 113.19 L48.47 105.45 A1.86188 1.89286 -180 0 0 47.09 104.87 L32.87 105.42 A1.66927 1.69705 -180
								 0 0 31.56 105.98 L0.55 137.37 A1.89398 1.9255 -180 0 0 0.55 140.08 L21.22 161 A1.92608 1.95813 -180
								 0 0 23.92 161 L55.02 129.57 A1.86188 1.89286 -180 0 0 55.57 128.36 L56.69 114.69 A1.82977 1.86023
								 -180 0 0 56.15 113.19 ZM46.9 118.31 A3.46694 3.52464 0 1 1 50.37 114.82 A3.43484 3.49201 0 0 1 46.9
								 118.31 Z" class="st1"/>
				</g>
				<g id="shape515-7" transform="translate(42.5872,-42.2969)">
					<title>path4</title>
					<path d="M4.31 150.85 A6.16345 6.26603 -180 1 0 10.51 157.12 A6.19555 6.29866 -180 0 0 4.31 150.85 ZM7.72 157.8
								 A3.46694 3.52464 0 1 1 3.64 153.66 A3.46694 3.52464 0 0 1 7.72 157.8 Z" class="st2"/>
				</g>
			</g>
		</g>
	</g>
</svg>
