<?xml version="1.0" encoding="UTF-8" standalone="no"?>
<!DOCTYPE svg PUBLIC "-//W3C//DTD SVG 1.1//EN" "http://www.w3.org/Graphics/SVG/1.1/DTD/svg11.dtd">
<!-- Generated by Microsoft Visio, SVG Export Template Spec.svg Page-1 -->
<svg xmlns="http://www.w3.org/2000/svg" xmlns:xlink="http://www.w3.org/1999/xlink" xmlns:ev="http://www.w3.org/2001/xml-events"
		width="1.61374in" height="2.24388in" viewBox="0 0 116.189 161.559" xml:space="preserve" color-interpolation-filters="sRGB"
		class="st7">
	<style type="text/css">
	<![CDATA[
		.st1 {fill:#32bedd;stroke:none;stroke-linecap:butt;stroke-width:34}
		.st2 {fill:url(#grad0-8);stroke:none;stroke-linecap:butt;stroke-width:34}
		.st3 {fill:#ffffff;stroke:none;stroke-linecap:butt;stroke-width:34}
		.st4 {fill:#5e9624;stroke:none;stroke-linecap:butt;stroke-width:34}
		.st5 {fill:#76bc2d;stroke:none;stroke-linecap:butt;stroke-width:34}
		.st6 {fill:#86d633;stroke:none;stroke-linecap:butt;stroke-width:34}
		.st7 {fill:none;fill-rule:evenodd;font-size:12px;overflow:visible;stroke-linecap:square;stroke-miterlimit:3}
	]]>
	</style>

	<defs id="Patterns_And_Gradients">
		<linearGradient id="grad0-8" x1="0" y1="0" x2="1" y2="0" gradientTransform="rotate(-90 0.5 0.5)">
			<stop offset="0" stop-color="#198ab3" stop-opacity="1"/>
			<stop offset="0.62" stop-color="#31d0f1" stop-opacity="1"/>
			<stop offset="1" stop-color="#32d4f5" stop-opacity="1"/>
		</linearGradient>
	</defs>
	<g>
		<title>Page-1</title>
		<g id="group492-1" transform="translate(34,-70.8661)">
			<title>Template Spec</title>
			<g id="group493-2">
				<title>Sheet.493</title>
				<g id="shape494-3">
					<title>Sheet.494</title>
					<path d="M14.75 104.87 L3.44 104.87 A3.44255 3.42158 -180 0 0 -0 108.29 L0 119.54 L6.89 119.54 L6.89 111.71 L14.75
								 111.71 L14.75 104.87 ZM44.75 104.87 L33.44 104.87 L33.44 111.71 L41.3 111.71 L41.3 119.54 L48.19
								 119.54 L48.19 108.29 A3.44255 3.42158 -180 0 0 44.75 104.87 ZM41.3 146.89 L41.3 154.71 L33.44 154.71
								 L33.44 161.56 L44.75 161.56 A3.44255 3.42158 -180 0 0 48.19 158.14 L48.19 146.89 L41.3 146.89 ZM6.89
								 154.72 L6.89 146.89 L0 146.89 L0 158.13 A3.44255 3.42158 -180 0 0 3.44 161.56 L14.75 161.56 L14.75
								 154.72 L6.89 154.72 Z" class="st1"/>
				</g>
				<g id="shape495-5" transform="translate(4.42566,-4.3987)">
					<title>Sheet.495</title>
					<path d="M1.97 161.56 L37.37 161.56 A1.97292 1.96091 -180 0 0 39.34 159.6 L39.34 115.6 A1.97292 1.96091 -180
								 0 0 37.37 113.65 L1.97 113.65 A1.97292 1.96091 -180 0 0 -0 115.6 L0 159.62 A1.97292 1.96091 -180
								 0 0 1.97 161.56 Z" class="st2"/>
				</g>
				<g id="shape496-9" transform="translate(8.34801,-8.30718)">
					<title>Sheet.496</title>
					<path d="M0.98 161.56 L30.51 161.56 a0.986461 0.980454 -180 0 0 0.983106 -0.977119 L31.49 122.46 a0.986461 0.980454
								 -180 0 0 -0.983106 -0.980454 L0.98 121.48 a0.986461 0.980454 -180 0 0 -0.983106 0.980454 L0 160.58
								 a0.986461 0.980454 -180 0 0 0.983106 0.977119 Z" class="st3"/>
				</g>
				<g id="shape497-11" transform="translate(15.2432,-14.1732)">
					<title>Sheet.497</title>
					<path d="M0.98 161.56 L16.72 161.56 a0.986461 0.980454 -180 0 0 0.983106 -0.977119 L17.7 156.18 a0.986461 0.980454
								 -180 0 0 -0.983106 -0.977119 L0.98 155.21 a0.986461 0.980454 -180 0 0 -0.983106 0.977119 L0 160.58
								 a0.986461 0.980454 -180 0 0 0.983106 0.977119 Z" class="st4"/>
				</g>
				<g id="shape498-13" transform="translate(15.2432,-25.1683)">
					<title>Sheet.498</title>
					<path d="M0.98 161.56 L16.72 161.56 a0.986461 0.980454 -180 0 0 0.983106 -0.977119 L17.7 156.18 a0.986461 0.980454
								 -180 0 0 -0.983106 -0.980454 L0.98 155.2 a0.986461 0.980454 -180 0 0 -0.983106 0.980454 L0 160.58
								 a0.986461 0.980454 -180 0 0 0.983106 0.977119 Z" class="st5"/>
				</g>
				<g id="shape499-15" transform="translate(15.2432,-36.1667)">
					<title>Sheet.499</title>
					<path d="M0.98 161.56 L16.72 161.56 a0.986461 0.980454 -180 0 0 0.983106 -0.977119 L17.7 156.18 a0.986461 0.980454
								 -180 0 0 -0.983106 -0.977119 L0.98 155.21 a0.986461 0.980454 -180 0 0 -0.983106 0.977119 L0 160.58
								 a0.986461 0.980454 -180 0 0 0.983106 0.977119 Z" class="st6"/>
				</g>
			</g>
		</g>
	</g>
</svg>
