<?xml version="1.0" encoding="UTF-8" standalone="no"?>
<!DOCTYPE svg PUBLIC "-//W3C//DTD SVG 1.1//EN" "http://www.w3.org/Graphics/SVG/1.1/DTD/svg11.dtd">
<!-- Generated by Microsoft Visio, SVG Export Virtual Cluster.svg Page-1 -->
<svg xmlns="http://www.w3.org/2000/svg" xmlns:xlink="http://www.w3.org/1999/xlink" xmlns:ev="http://www.w3.org/2001/xml-events"
		width="1.73185in" height="2.18291in" viewBox="0 0 124.693 157.17" xml:space="preserve" color-interpolation-filters="sRGB"
		class="st6">
	<style type="text/css">
	<![CDATA[
		.st1 {fill:#949494;stroke:none;stroke-linecap:butt;stroke-width:34}
		.st2 {fill:#003067;stroke:none;stroke-linecap:butt;stroke-width:34}
		.st3 {fill:#50e6ff;stroke:none;stroke-linecap:butt;stroke-width:34}
		.st4 {fill:url(#grad0-22);stroke:none;stroke-linecap:butt;stroke-width:34}
		.st5 {fill:url(#grad0-32);stroke:none;stroke-linecap:butt;stroke-width:34}
		.st6 {fill:none;fill-rule:evenodd;font-size:12px;overflow:visible;stroke-linecap:square;stroke-miterlimit:3}
	]]>
	</style>

	<defs id="Patterns_And_Gradients">
		<linearGradient id="grad0-22" x1="0" y1="0" x2="1" y2="0" gradientTransform="rotate(90 0.5 0.5)">
			<stop offset="0" stop-color="#b3b2b3" stop-opacity="1"/>
			<stop offset="0.38" stop-color="#afaeaf" stop-opacity="1"/>
			<stop offset="0.76" stop-color="#a2a2a2" stop-opacity="1"/>
			<stop offset="1" stop-color="#979797" stop-opacity="1"/>
		</linearGradient>
		<linearGradient id="grad0-32" x1="0" y1="0" x2="1" y2="0" gradientTransform="rotate(-90 0.5 0.5)">
			<stop offset="0" stop-color="#0078d4" stop-opacity="1"/>
			<stop offset="0.16" stop-color="#1380da" stop-opacity="1"/>
			<stop offset="0.53" stop-color="#3c91e5" stop-opacity="1"/>
			<stop offset="0.82" stop-color="#559cec" stop-opacity="1"/>
			<stop offset="1" stop-color="#5ea0ef" stop-opacity="1"/>
		</linearGradient>
	</defs>
	<g>
		<title>Page-1</title>
		<g id="group370-1" transform="translate(34,-69.3071)">
			<title>Virtual Cluster</title>
			<g id="group371-2">
				<title>Icon-databases-127</title>
				<g id="shape372-3" transform="translate(-2.81775E-13,-20.2873)">
					<title>Sheet.372</title>
					<path d="M24.24 156.05 A1.3006 1.28234 0 0 1 22.84 157.17 L1.4 157.17 A1.3006 1.28234 0 0 1 0 156.05 L0 124.88
								 A1.3006 1.28234 0 0 1 1.4 123.76 L22.84 123.76 A1.3006 1.28234 0 0 1 24.24 124.88 L24.24 156.05
								 Z" class="st1"/>
				</g>
				<g id="shape373-5" transform="translate(3.56832,-36.7933)">
					<title>Sheet.373</title>
					<path d="M0 154.54 A2.63455 2.59756 0 0 1 2.63 151.94 L14.77 151.94 A2.63455 2.59756 0 0 1 17.41 154.54 A2.63455
								 2.59756 0 0 1 14.77 157.17 L2.63 157.17 A2.63455 2.59756 0 0 1 0 154.57 L0 154.54 ZM0 146.85 A2.63455
								 2.59756 0 0 1 2.63 144.21 L14.77 144.21 A2.63455 2.59756 0 0 1 17.41 146.85 A2.63455 2.59756 0 0
								 1 14.77 149.44 L2.63 149.44 A2.63455 2.59756 0 0 1 -0 146.85 Z" class="st2"/>
				</g>
				<g id="shape374-7" transform="translate(4.53543,-45.3751)">
					<title>Sheet.374</title>
					<ellipse cx="1.76748" cy="155.427" rx="1.76748" ry="1.74267" class="st3"/>
				</g>
				<g id="shape375-9" transform="translate(4.53543,-37.6811)">
					<title>Sheet.375</title>
					<ellipse cx="1.76748" cy="155.427" rx="1.76748" ry="1.74267" class="st3"/>
				</g>
				<g id="shape376-11" transform="translate(26.7457,-20.4188)">
					<title>Sheet.376</title>
					<path d="M24.24 156.02 A1.3006 1.28234 0 0 1 22.84 157.17 L1.4 157.17 A1.3006 1.28234 0 0 1 0 156.02 L0 124.88
								 A1.3006 1.28234 0 0 1 1.4 123.73 L22.84 123.73 A1.3006 1.28234 0 0 1 24.24 124.88 L24.24 156.02
								 Z" class="st1"/>
				</g>
				<g id="shape377-13" transform="translate(30.314,-36.7933)">
					<title>Sheet.377</title>
					<path d="M0 154.41 A2.63455 2.59756 0 0 1 2.63 151.81 L14.71 151.81 A2.63455 2.59756 0 0 1 17.34 154.41 A2.63455
								 2.59756 0 0 1 14.71 157.17 L2.63 157.17 A2.63455 2.59756 0 0 1 0 154.57 L0 154.41 ZM0 146.68 A2.63455
								 2.59756 0 0 1 2.63 144.02 L14.71 144.02 A2.6679 2.63044 0 0 1 17.34 146.62 A2.63455 2.59756 0 0
								 1 14.71 149.28 L2.63 149.28 A2.63455 2.59756 0 0 1 -0 146.68 Z" class="st2"/>
				</g>
				<g id="shape378-15" transform="translate(31.2811,-45.5395)">
					<title>Sheet.378</title>
					<ellipse cx="1.76748" cy="155.427" rx="1.76748" ry="1.74267" class="st3"/>
				</g>
				<g id="shape379-17" transform="translate(31.2811,-37.8126)">
					<title>Sheet.379</title>
					<ellipse cx="1.76748" cy="155.427" rx="1.76748" ry="1.74267" class="st3"/>
				</g>
				<g id="shape380-19" transform="translate(4.06855,0)">
					<title>Sheet.380</title>
					<path d="M24.28 156.02 A1.3006 1.28234 0 0 1 22.88 157.17 L1.4 157.17 A1.3006 1.28234 0 0 1 -0 156.02 L0 124.88
								 A1.3006 1.28234 0 0 1 1.4 123.66 L22.84 123.66 A1.3006 1.28234 0 0 1 24.28 124.88 L24.28 156.02
								 Z" class="st4"/>
				</g>
				<g id="shape381-23" transform="translate(7.63687,-16.5389)">
					<title>Sheet.381</title>
					<path d="M0 154.57 A2.63455 2.59756 0 0 1 2.63 151.97 L14.71 151.97 A2.63455 2.59756 0 0 1 17.34 154.57 L17.37
								 154.57 A2.6679 2.63044 0 0 1 14.74 157.17 L2.63 157.17 A2.63455 2.59756 0 0 1 0 154.57 ZM0 146.78
								 A2.63455 2.59756 0 0 1 2.63 144.18 L14.71 144.18 A2.63455 2.59756 0 0 1 17.37 146.78 A2.6679 2.63044
								 0 0 1 14.74 149.38 L2.63 149.38 A2.63455 2.59756 0 0 1 0 146.78 Z" class="st2"/>
				</g>
				<g id="shape382-25" transform="translate(8.60398,-25.1207)">
					<title>Sheet.382</title>
					<ellipse cx="1.76748" cy="155.427" rx="1.76748" ry="1.74267" class="st3"/>
				</g>
				<g id="shape383-27" transform="translate(8.60398,-17.3938)">
					<title>Sheet.383</title>
					<ellipse cx="1.76748" cy="155.427" rx="1.76748" ry="1.74267" class="st3"/>
				</g>
				<g id="shape384-29" transform="translate(15.5405,-4.74435)">
					<title>Sheet.384</title>
					<path d="M41.15 148.14 A9.23761 9.1079 -180 0 0 33.12 139.39 A11.6387 11.4753 -180 0 0 21.14 128.41 A11.9389
								 11.7712 -180 0 0 9.7 136.07 A11.0384 10.8834 -180 0 0 -0 146.53 A11.2385 11.0807 -180 0 0 11.61
								 157.15 L31.38 157.15 A1.33395 1.31522 -180 0 0 31.88 157.15 A9.33766 9.20654 -180 0 0 41.15 148.14
								 Z" class="st5"/>
				</g>
			</g>
		</g>
	</g>
</svg>
