<?xml version="1.0" encoding="UTF-8" standalone="no"?>
<!DOCTYPE svg PUBLIC "-//W3C//DTD SVG 1.1//EN" "http://www.w3.org/Graphics/SVG/1.1/DTD/svg11.dtd">
<!-- Generated by Microsoft Visio, SVG Export Virtual Machine.svg Page-1 -->
<svg xmlns="http://www.w3.org/2000/svg" xmlns:xlink="http://www.w3.org/1999/xlink" xmlns:ev="http://www.w3.org/2001/xml-events"
		width="1.73185in" height="2.12183in" viewBox="0 0 124.693 152.772" xml:space="preserve" color-interpolation-filters="sRGB"
		class="st6">
	<style type="text/css">
	<![CDATA[
		.st1 {fill:url(#grad0-6);stroke:none;stroke-linecap:butt;stroke-width:34}
		.st2 {fill:#50e6ff;stroke:none;stroke-linecap:butt;stroke-width:34}
		.st3 {fill:#c3f1ff;stroke:none;stroke-linecap:butt;stroke-width:34}
		.st4 {fill:#9cebff;stroke:none;stroke-linecap:butt;stroke-width:34}
		.st5 {fill:url(#grad0-20);stroke:none;stroke-linecap:butt;stroke-width:34}
		.st6 {fill:none;fill-rule:evenodd;font-size:12px;overflow:visible;stroke-linecap:square;stroke-miterlimit:3}
	]]>
	</style>

	<defs id="Patterns_And_Gradients">
		<linearGradient id="grad0-6" x1="0" y1="0" x2="1" y2="0" gradientTransform="rotate(-90 0.5 0.5)">
			<stop offset="0" stop-color="#0078d4" stop-opacity="1"/>
			<stop offset="0.82" stop-color="#5ea0ef" stop-opacity="1"/>
		</linearGradient>
		<linearGradient id="grad0-20" x1="0" y1="0" x2="1" y2="0" gradientTransform="rotate(-90 0.5 0.5)">
			<stop offset="0.15" stop-color="#cccccc" stop-opacity="1"/>
			<stop offset="1" stop-color="#707070" stop-opacity="1"/>
		</linearGradient>
	</defs>
	<g>
		<title>Page-1</title>
		<g id="group361-1" transform="translate(34,-67.748)">
			<title>Virtual Machine</title>
			<g id="group362-2">
				<title>Sheet.362</title>
				<g id="shape363-3" transform="translate(0,-14.2056)">
					<title>Sheet.363</title>
					<path d="M0 150.93 A1.88981 1.84094 -180 0 0 1.89 152.77 L54.8 152.77 A1.88981 1.84094 -180 0 0 56.69 150.93
								 L56.69 117.79 A1.88981 1.84094 -180 0 0 54.8 115.95 L1.89 115.95 A1.88981 1.84094 -180 0 0 0 117.79
								 L0 150.93 Z" class="st1"/>
				</g>
				<g id="shape364-7" transform="translate(28.3465,-21.876)">
					<title>Sheet.364</title>
					<path d="M9.45 136.66 L9.45 147.37 L0 152.77 L0 142.03 L9.45 136.66 Z" class="st2"/>
				</g>
				<g id="shape365-9" transform="translate(18.8976,-32.5839)">
					<title>Sheet.365</title>
					<path d="M18.9 147.37 L9.45 152.77 L0 147.37 L9.45 142 L18.9 147.37 Z" class="st3"/>
				</g>
				<g id="shape366-11" transform="translate(18.8976,-21.876)">
					<title>Sheet.366</title>
					<path d="M9.45 142.06 L9.45 152.77 L0 147.37 L0 136.66 L9.45 142.06 Z" class="st4"/>
				</g>
				<g id="shape367-13" transform="translate(18.8976,-21.876)">
					<title>Sheet.367</title>
					<path d="M0 147.37 L9.45 142.03 L9.45 152.77 L0 147.37 Z" class="st3"/>
				</g>
				<g id="shape368-15" transform="translate(28.3465,-21.876)">
					<title>Sheet.368</title>
					<path d="M9.45 147.37 L0 142.03 L0 152.77 L9.45 147.37 Z" class="st4"/>
				</g>
				<g id="shape369-17" transform="translate(14.1732,0)">
					<title>Sheet.369</title>
					<path d="M25.54 149.7 C19.94 148.84 19.72 144.92 19.72 138.57 L8.6 138.57 C8.6 144.92 8.41 148.84 2.8 149.7 A3.14961
								 3.06817 -180 0 0 0 152.77 L28.35 152.77 A3.14961 3.06817 -180 0 0 25.54 149.7 Z" class="st5"/>
				</g>
			</g>
		</g>
	</g>
</svg>
