<?xml version="1.0" encoding="UTF-8" standalone="no"?>
<!DOCTYPE svg PUBLIC "-//W3C//DTD SVG 1.1//EN" "http://www.w3.org/Graphics/SVG/1.1/DTD/svg11.dtd">
<!-- Generated by Microsoft Visio, SVG Export Workbook.svg Page-1 -->
<svg xmlns="http://www.w3.org/2000/svg" xmlns:xlink="http://www.w3.org/1999/xlink" xmlns:ev="http://www.w3.org/2001/xml-events"
		width="1.49606in" height="1.94165in" viewBox="0 0 107.717 139.799" xml:space="preserve" color-interpolation-filters="sRGB"
		class="st9">
	<style type="text/css">
	<![CDATA[
		.st1 {fill:#fcd116;stroke:none;stroke-linecap:butt;stroke-width:12.24}
		.st2 {fill:#68217a;fill-opacity:0.4;stroke:none;stroke-linecap:butt;stroke-width:12.24}
		.st3 {fill:#ffffff;fill-opacity:0.75;stroke:none;stroke-linecap:butt;stroke-width:12.24}
		.st4 {fill:#ffffff;fill-opacity:0.8;stroke:none;stroke-linecap:butt;stroke-width:12.24}
		.st5 {fill:#ffffff;fill-opacity:0.098;stroke:none;stroke-linecap:butt;stroke-width:12.24}
		.st6 {fill:#ffffff;stroke:none;stroke-linecap:butt;stroke-width:12.24}
		.st7 {fill:#000000;stroke:none;stroke-linecap:butt;stroke-width:12.24}
		.st8 {fill:#000000;fill-opacity:0.5;stroke:none;stroke-linecap:butt;stroke-width:12.24}
		.st9 {fill:none;fill-rule:evenodd;font-size:12px;overflow:visible;stroke-linecap:square;stroke-miterlimit:3}
	]]>
	</style>

	<g>
		<title>Page-1</title>
		<g id="group39-1" transform="translate(26.9291,-70.8661)">
			<title>Workbook</title>
			<g id="group40-2">
				<title>g24</title>
				<g id="shape41-3" transform="translate(5.98425,-1.1811)">
					<title>path4</title>
					<path d="M8.38 84.29 C4.79 84.29 0 87.83 0 87.83 L2.39 87.83 L2.39 137.44 L44.28 137.44 L44.28 139.8 L47.87 136.26
								 L47.87 84.29 L8.38 84.29 Z" class="st1"/>
				</g>
				<g id="shape42-5" transform="translate(5.98425,-1.1811)">
					<title>path6</title>
					<path d="M8.38 84.29 C4.79 84.29 0 87.83 0 87.83 L2.39 87.83 L2.39 137.44 L44.28 137.44 L44.28 139.8 L47.87 136.26
								 L47.87 84.29 L8.38 84.29 Z" class="st2"/>
				</g>
				<g id="shape43-7" transform="translate(8.37795,-2.3622)">
					<title>path8</title>
					<path d="M7.18 86.65 C5.39 86.65 0 89.01 0 89.01 L1.2 89.01 L1.2 139.8 L41.89 139.8 L44.28 137.44 L44.28 86.65
								 L7.18 86.65 Z" class="st3"/>
				</g>
				<g id="shape44-9" transform="translate(9.5748,-53.1496)">
					<title>path10</title>
					<path d="M5.98 137.44 C3.59 137.44 0 139.8 0 139.8 L40.69 139.8 L43.09 137.44 L5.98 137.44 Z" class="st4"/>
				</g>
				<g id="shape45-11" transform="translate(4.7874,0)">
					<title>path12</title>
					<path d="M0 139.8 L0 136.26 L2.39 136.26 L3.59 135.07 L3.59 133.89 L2.39 132.71 L0 132.71 L0 129.17 L2.39 129.17
								 L3.59 127.99 L3.59 126.81 L2.39 125.63 L0 125.63 L0 122.08 L2.39 122.08 L3.59 120.9 L3.59 119.72
								 L2.39 118.54 L0 118.54 L0 115 L2.39 115 L3.59 113.81 L3.59 112.63 L2.39 111.45 L0 111.45 L0 107.91
								 L2.39 107.91 L3.59 106.73 L3.59 105.55 L2.39 104.37 L0 104.37 L0 100.82 L2.39 100.82 L3.59 99.64
								 L3.59 98.46 L2.39 97.28 L0 97.28 L0 93.74 L2.39 93.74 L3.59 92.55 L3.59 91.37 L2.39 90.19 L0 90.19
								 L0 86.65 L45.48 86.65 L45.48 139.8 L0 139.8 Z" class="st1"/>
				</g>
				<g id="shape46-13" transform="translate(4.7874,0)">
					<title>path14</title>
					<path d="M0 139.8 L0 136.26 L2.39 136.26 L3.59 135.07 L3.59 133.89 L2.39 132.71 L0 132.71 L0 129.17 L2.39 129.17
								 L3.59 127.99 L3.59 126.81 L2.39 125.63 L0 125.63 L0 122.08 L2.39 122.08 L3.59 120.9 L3.59 119.72
								 L2.39 118.54 L0 118.54 L0 115 L2.39 115 L3.59 113.81 L3.59 112.63 L2.39 111.45 L0 111.45 L0 107.91
								 L2.39 107.91 L3.59 106.73 L3.59 105.55 L2.39 104.37 L0 104.37 L0 100.82 L2.39 100.82 L3.59 99.64
								 L3.59 98.46 L2.39 97.28 L0 97.28 L0 93.74 L2.39 93.74 L3.59 92.55 L3.59 91.37 L2.39 90.19 L0 90.19
								 L0 86.65 L45.48 86.65 L45.48 139.8 L0 139.8 Z" class="st2"/>
				</g>
				<g id="shape47-15" transform="translate(4.7874,0)">
					<title>path16</title>
					<path d="M0 139.8 L0 136.26 L2.39 136.26 L3.59 135.07 L3.59 133.89 L2.39 132.71 L0 132.71 L0 129.17 L2.39 129.17
								 L3.59 127.99 L3.59 126.81 L2.39 125.63 L0 125.63 L0 122.08 L2.39 122.08 L3.59 120.9 L3.59 119.72
								 L2.39 118.54 L0 118.54 L0 115 L2.39 115 L3.59 113.81 L3.59 112.63 L2.39 111.45 L0 111.45 L0 107.91
								 L2.39 107.91 L3.59 106.73 L3.59 105.55 L2.39 104.37 L0 104.37 L0 100.82 L2.39 100.82 L3.59 99.64
								 L3.59 98.46 L2.39 97.28 L0 97.28 L0 93.74 L2.39 93.74 L3.59 92.55 L3.59 91.37 L2.39 90.19 L0 90.19
								 L0 86.65 L37.1 86.65 L8.38 139.8 L0 139.8 Z" class="st5"/>
				</g>
				<g id="shape48-17" transform="translate(20.3465,-30.7087)">
					<title>path18</title>
					<rect x="0" y="132.712" width="19.1496" height="7.08661" class="st6"/>
				</g>
				<g id="shape49-19" transform="translate(5.29576E-14,-4.72441)">
					<title>path20</title>
					<path d="M0 96.1 L5.98 96.1 L5.98 97.28 L0 97.28 L0 96.1 ZM0 103.18 L5.98 103.18 L5.98 104.37 L0 104.37 L0 103.18
								 ZM0 110.27 L5.98 110.27 L5.98 111.45 L0 111.45 L0 110.27 ZM0 117.36 L5.98 117.36 L5.98 118.54 L0
								 118.54 L0 117.36 ZM0 124.44 L5.98 124.44 L5.98 125.63 L0 125.63 L0 124.44 ZM0 131.53 L5.98 131.53
								 L5.98 132.71 L0 132.71 L0 131.53 ZM0 138.62 L5.98 138.62 L5.98 139.8 L0 139.8 L0 138.62 Z"
							class="st7"/>
				</g>
				<g id="shape50-21" transform="translate(-2.69784E-14,-5.90551)">
					<title>path22</title>
					<path d="M1.8 93.74 L4.79 93.74 L4.79 94.92 L1.8 94.92 L1.8 93.74 ZM0.6 94.92 L1.8 94.92 L1.8 96.1 L0.6 96.1
								 L0.6 94.92 ZM0 96.1 L1.2 96.1 L1.2 97.28 L0 97.28 L0 96.1 ZM1.8 100.82 L4.79 100.82 L4.79 102 L1.8
								 102 L1.8 100.82 ZM0.6 102 L1.8 102 L1.8 103.18 L0.6 103.18 L0.6 102 ZM0 103.18 L1.2 103.18 L1.2
								 104.37 L0 104.37 L0 103.18 ZM1.8 107.91 L4.79 107.91 L4.79 109.09 L1.8 109.09 L1.8 107.91 ZM0.6
								 109.09 L1.8 109.09 L1.8 110.27 L0.6 110.27 L0.6 109.09 ZM0 110.27 L1.2 110.27 L1.2 111.45 L0 111.45
								 L0 110.27 ZM1.8 115 L4.79 115 L4.79 116.18 L1.8 116.18 L1.8 115 ZM0.6 116.18 L1.8 116.18 L1.8 117.36
								 L0.6 117.36 L0.6 116.18 ZM0 117.36 L1.2 117.36 L1.2 118.54 L0 118.54 L0 117.36 ZM1.8 122.08 L4.79
								 122.08 L4.79 123.26 L1.8 123.26 L1.8 122.08 ZM0.6 123.26 L1.8 123.26 L1.8 124.44 L0.6 124.44 L0.6
								 123.26 ZM0 124.44 L1.2 124.44 L1.2 125.63 L0 125.63 L0 124.44 ZM1.8 129.17 L4.79 129.17 L4.79 130.35
								 L1.8 130.35 L1.8 129.17 ZM0.6 130.35 L1.8 130.35 L1.8 131.53 L0.6 131.53 L0.6 130.35 ZM0 131.53
								 L1.2 131.53 L1.2 132.71 L0 132.71 L0 131.53 ZM1.8 136.26 L4.79 136.26 L4.79 137.44 L1.8 137.44 L1.8
								 136.26 ZM0.6 137.44 L1.8 137.44 L1.8 138.62 L0.6 138.62 L0.6 137.44 ZM0 138.62 L1.2 138.62 L1.2
								 139.8 L0 139.8 L0 138.62 Z" class="st8"/>
				</g>
			</g>
		</g>
	</g>
</svg>
