<?xml version="1.0" encoding="UTF-8" standalone="no"?>
<!DOCTYPE svg PUBLIC "-//W3C//DTD SVG 1.1//EN" "http://www.w3.org/Graphics/SVG/1.1/DTD/svg11.dtd">
<!-- Generated by Microsoft Visio, SVG Export WVD RDP Property.svg Page-1 -->
<svg xmlns="http://www.w3.org/2000/svg" xmlns:xlink="http://www.w3.org/1999/xlink" xmlns:ev="http://www.w3.org/2001/xml-events"
		width="1.57437in" height="2.24388in" viewBox="0 0 113.354 161.559" xml:space="preserve" color-interpolation-filters="sRGB"
		class="st5">
	<style type="text/css">
	<![CDATA[
		.st1 {fill:#0078d4;stroke:none;stroke-linecap:butt;stroke-width:34}
		.st2 {fill:url(#grad0-12);stroke:none;stroke-linecap:butt;stroke-width:34}
		.st3 {fill:url(#grad0-16);stroke:none;stroke-linecap:butt;stroke-width:34}
		.st4 {fill:#e6e6e6;stroke:none;stroke-linecap:butt;stroke-width:34}
		.st5 {fill:none;fill-rule:evenodd;font-size:12px;overflow:visible;stroke-linecap:square;stroke-miterlimit:3}
	]]>
	</style>

	<defs id="Patterns_And_Gradients">
		<linearGradient id="grad0-12" x1="0" y1="0" x2="1" y2="0" gradientTransform="rotate(90 0.5 0.5)">
			<stop offset="0.17" stop-color="#50e6ff" stop-opacity="1"/>
			<stop offset="0.635" stop-color="#3dcdea" stop-opacity="1"/>
			<stop offset="1" stop-color="#32bedd" stop-opacity="1"/>
		</linearGradient>
		<linearGradient id="grad0-16" x1="0" y1="0" x2="1" y2="0" gradientTransform="rotate(-90 0.5 0.5)">
			<stop offset="0.17" stop-color="#50e6ff" stop-opacity="1"/>
			<stop offset="0.635" stop-color="#3dcdea" stop-opacity="1"/>
			<stop offset="1" stop-color="#32bedd" stop-opacity="1"/>
		</linearGradient>
	</defs>
	<g>
		<title>Page-1</title>
		<g id="group9-1" transform="translate(34,-70.8661)">
			<title>WVD RDP Property</title>
			<g id="group10-2">
				<title>MsPortalFx.base.images-29</title>
				<g id="shape11-3" transform="translate(1.86629,0)">
					<title>Sheet.11</title>
					<path d="M0 159.68 A1.84467 1.87721 -180 0 0 1.84 161.56 L5.87 161.56 A1.84467 1.87721 -180 0 0 7.72 159.68 L7.72
								 106.74 A1.84467 1.87721 -180 0 0 5.87 104.87 L1.84 104.87 A1.84467 1.87721 -180 0 0 0 106.74 L0
								 159.68 Z" class="st1"/>
				</g>
				<g id="shape12-5" transform="translate(18.632,0)">
					<title>Sheet.12</title>
					<path d="M0 159.68 A1.84467 1.87721 -180 0 0 1.84 161.56 L5.87 161.56 A1.84467 1.87721 -180 0 0 7.72 159.68 L7.72
								 106.74 A1.84467 1.87721 -180 0 0 5.87 104.87 L1.84 104.87 A1.84467 1.87721 -180 0 0 0 106.74 L0
								 159.68 Z" class="st1"/>
				</g>
				<g id="shape13-7" transform="translate(35.6669,0)">
					<title>Sheet.13</title>
					<path d="M0 159.68 A1.84467 1.87721 -180 0 0 1.84 161.56 L5.87 161.56 A1.84467 1.87721 -180 0 0 7.72 159.68 L7.72
								 106.74 A1.84467 1.87721 -180 0 0 5.87 104.87 L1.84 104.87 A1.84467 1.87721 -180 0 0 0 106.74 L0
								 159.68 Z" class="st1"/>
				</g>
				<g id="shape14-9" transform="translate(1.86629,2.84217E-13)">
					<title>Sheet.14</title>
					<path d="M0 159.68 A1.84467 1.87721 -180 0 0 1.84 161.56 L5.87 161.56 A1.84467 1.87721 -180 0 0 7.72 159.68 L7.72
								 126.15 A1.84467 1.87721 -180 0 0 5.87 124.27 L1.84 124.27 A1.84467 1.87721 -180 0 0 0 126.15 L0
								 159.68 Z" class="st2"/>
				</g>
				<g id="shape15-13" transform="translate(18.632,0)">
					<title>Sheet.15</title>
					<path d="M0 159.68 A1.84467 1.87721 -180 0 0 1.84 161.56 L5.87 161.56 A1.84467 1.87721 -180 0 0 7.72 159.68 L7.72
								 151.64 A1.84467 1.87721 -180 0 0 5.87 149.77 L1.84 149.77 A1.84467 1.87721 -180 0 0 0 151.64 L0
								 159.68 Z" class="st3"/>
				</g>
				<g id="shape16-17" transform="translate(35.6669,2.84217E-13)">
					<title>Sheet.16</title>
					<path d="M0 159.68 A1.84467 1.87721 -180 0 0 1.84 161.56 L5.87 161.56 A1.84467 1.87721 -180 0 0 7.72 159.68 L7.72
								 126.15 A1.84467 1.87721 -180 0 0 5.87 124.27 L1.84 124.27 A1.84467 1.87721 -180 0 0 0 126.15 L0
								 159.68 Z" class="st3"/>
				</g>
				<g id="shape17-20" transform="translate(0,-33.978)">
					<title>Sheet.17</title>
					<path d="M0 159.7 A1.82301 1.85516 -180 0 0 1.82 161.56 L9.83 161.56 A1.82301 1.85516 -180 0 0 11.66 159.7 A1.82301
								 1.85516 -180 0 0 9.83 157.85 L1.82 157.85 A1.82301 1.85516 -180 0 0 0 159.7 Z" class="st4"/>
				</g>
				<g id="shape18-22" transform="translate(16.8245,-8.99843)">
					<title>Sheet.18</title>
					<path d="M0 159.7 A1.82301 1.85516 -180 0 0 1.82 161.56 L9.83 161.56 A1.82301 1.85516 -180 0 0 11.66 159.7 A1.82301
								 1.85516 -180 0 0 9.83 157.85 L1.82 157.85 A1.82301 1.85516 -180 0 0 0 159.7 Z" class="st4"/>
				</g>
				<g id="shape19-24" transform="translate(33.6985,-33.978)">
					<title>Sheet.19</title>
					<path d="M0 159.7 A1.82301 1.85516 -180 0 0 1.82 161.56 L9.83 161.56 A1.82301 1.85516 -180 0 0 11.66 159.7 A1.82301
								 1.85516 -180 0 0 9.83 157.85 L1.82 157.85 A1.82301 1.85516 -180 0 0 0 159.7 Z" class="st4"/>
				</g>
			</g>
		</g>
	</g>
</svg>
