<?xml version="1.0" encoding="UTF-8" standalone="no"?>
<!-- Generated by Microsoft Visio, SVG Export Container Registry Retention.svg Page-1 -->
<svg xmlns:dc="http://purl.org/dc/elements/1.1/" xmlns:cc="http://creativecommons.org/ns#" xmlns:rdf="http://www.w3.org/1999/02/22-rdf-syntax-ns#" xmlns:svg="http://www.w3.org/2000/svg" xmlns="http://www.w3.org/2000/svg" xmlns:sodipodi="http://sodipodi.sourceforge.net/DTD/sodipodi-0.dtd" xmlns:inkscape="http://www.inkscape.org/namespaces/inkscape" width="56.692898" height="56.696001" viewBox="0 0 56.692898 56.696001" xml:space="preserve" class="st4" version="1.1" id="svg29" sodipodi:docname="Container Registry Retention.svg" style="font-size:12px;overflow:visible;color-interpolation-filters:sRGB;fill:none;fill-rule:evenodd;stroke-linecap:square;stroke-miterlimit:3" inkscape:version="0.92.5 (2060ec1f9f, 2020-04-08)">
  <metadata id="metadata35">
    <rdf:RDF>
      <cc:Work rdf:about="">
        <dc:format>image/svg+xml</dc:format>
        <dc:type rdf:resource="http://purl.org/dc/dcmitype/StillImage" />
      </cc:Work>
    </rdf:RDF>
  </metadata>
  <defs id="defs33" />
  <sodipodi:namedview pagecolor="#ffffff" bordercolor="#666666" borderopacity="1" objecttolerance="10" gridtolerance="10" guidetolerance="10" inkscape:pageopacity="0" inkscape:pageshadow="2" inkscape:window-width="640" inkscape:window-height="480" id="namedview31" showgrid="false" inkscape:zoom="1.3289007" inkscape:cx="37.795279" inkscape:cy="37.79514" inkscape:window-x="0" inkscape:window-y="0" inkscape:window-maximized="0" inkscape:current-layer="svg29" />
	<style type="text/css" id="style2">
	<![CDATA[
		.st1 {fill:none;stroke:none;stroke-linecap:butt;stroke-width:38.25}
		.st2 {fill:#7a7a7a;stroke:none;stroke-linecap:butt;stroke-width:38.25}
		.st3 {fill:#3999c6;stroke:none;stroke-linecap:butt;stroke-width:38.25}
		.st4 {fill:none;fill-rule:evenodd;font-size:12px;overflow:visible;stroke-linecap:square;stroke-miterlimit:3}
	]]>
	</style>

	<g id="g27" transform="translate(-38.25,-38.2469)">
		<title id="title4">Page-1</title>
		<g id="group11962-1" transform="translate(38.25,-38.25)">
			<title id="title6">Container Registry Retention.11962</title>
			<g id="group11963-2">
				<title id="title8"> ACRPolicyRetention</title>
				<g id="shape11964-3">
					<title id="title10">Sheet.11964</title>
					<rect x="0" y="76.5" width="56.692902" height="56.692902" class="st1" id="rect12" style="fill:none;stroke:none;stroke-width:38.25;stroke-linecap:butt" />
				</g>
				<g id="shape11965-5" transform="translate(5.28948,-2.12223)">
					<title id="title15">Sheet.11965</title>
					<path d="m 45.88,117.24 a 4.46457,4.46457 -180 0 0 -3.94,-0.74 l -8.82,2.59 a 5.98819,5.98819 -180 0 0 -0.43,-1.56 4.35827,4.35827 -180 0 0 -2.79,-2.45 l -9.36,-2.76 a 9.95669,9.95669 -180 0 0 -5.21,0 l -13.14,4.04 a 3.54331,3.54331 -180 0 0 -2.09,4.96 l 4.18,8.11 a 2.09055,2.09055 -180 0 0 2.73,0.82 c 1.77,-0.64 1.48,-0.64 1.48,-0.64 h 1.03 l 17.72,3.54 a 4.9252,4.9252 -180 0 0 1.24,0 6.27165,6.27165 -180 0 0 2.97,-0.74 l 14.18,-7.62 a 4.57087,4.57087 -180 0 0 2.34,-3.54 4.64173,4.64173 -180 0 0 -2.09,-4.01 z m -1.95,4.75 -14.18,7.62 a 2.87008,2.87008 0 0 1 -1.94,0.28 l -17.72,-3.54 a 5.06693,5.06693 -180 0 0 -1.03,0 5.17323,5.17323 -180 0 0 -1.95,0.39 l -0.64,0.28 -3.54,-7.08 13.22,-4.22 a 6.76772,6.76772 0 0 1 3.36,0 l 9.36,2.76 a 1.27559,1.27559 0 0 1 0.78,0.82 1.06299,1.06299 0 0 1 -0.25,1.27 1.16929,1.16929 0 0 1 -1.06,0.25 l -7.09,-2.09 -0.96,3.19 7.09,2.09 a 4.42913,4.42913 -180 0 0 3.97,-0.71 l 11.44,-3.54 a 1.31102,1.31102 0 0 1 1.21,0.32 1.16929,1.16929 0 0 1 0.42,1.03 1.09843,1.09843 0 0 1 -0.49,0.88 z" class="st2" id="path17" inkscape:connector-curvature="0" style="fill:#7a7a7a;stroke:none;stroke-width:38.25;stroke-linecap:butt" />
				</g>
				<g id="shape11966-7" transform="translate(14.1732,-24.8031)">
					<title id="title20">Sheet.11966</title>
					<path d="m 14.17,112.96 a 4.42913,4.42913 0 1 1 -4.43,4.43 4.42913,4.42913 0 0 1 4.43,-4.43 z m 8.72,-1.49 a 2.23228,2.23228 -180 1 0 2.2,2.2 2.23228,2.23228 -180 0 0 -2.2,-2.2 z m 0,7.09 a 2.23228,2.23228 -180 1 0 2.2,2.2 2.23228,2.23228 -180 0 0 -2.2,-2.13 z m 5.46,-8.36 a 1.77165,1.77165 -180 0 0 1.77,-1.77 1.775,1.775 -180 1 0 -3.55,0 1.77165,1.77165 -180 0 0 1.78,1.77 z m 0,5.28 a 1.77165,1.77165 -180 0 0 -1.78,1.77 1.775,1.775 -180 1 0 3.55,0 1.77165,1.77165 -180 0 0 -1.77,-1.77 z m 0,8.85 a 1.77165,1.77165 -180 0 0 -1.78,1.78 1.775,1.775 -180 0 0 3.55,0 1.77165,1.77165 -180 0 0 -1.77,-1.81 z m -14.18,4.79 -10.63,-5.95 v -11.84 l 10.63,-5.95 5.25,3.01 3.54,-2.02 L 14.17,101.3 0,109.28 v 15.94 l 14.17,7.97 8.86,-4.99 -3.61,-2.09 z" class="st3" id="path22" inkscape:connector-curvature="0" style="fill:#3999c6;stroke:none;stroke-width:38.25;stroke-linecap:butt" />
				</g>
			</g>
		</g>
	</g>
</svg>