<?xml version="1.0" encoding="UTF-8" standalone="no"?>
<!DOCTYPE svg PUBLIC "-//W3C//DTD SVG 1.1//EN" "http://www.w3.org/Graphics/SVG/1.1/DTD/svg11.dtd">
<!-- Generated by Microsoft Visio, SVG Export Data Share.svg Page-1 -->
<svg xmlns="http://www.w3.org/2000/svg" xmlns:xlink="http://www.w3.org/1999/xlink" xmlns:ev="http://www.w3.org/2001/xml-events"
		width="1.74984in" height="1.61395in" viewBox="0 0 125.988 116.205" xml:space="preserve" color-interpolation-filters="sRGB"
		class="st9">
	<style type="text/css">
	<![CDATA[
		.st1 {fill:#949494;stroke:none;stroke-linecap:butt;stroke-width:34}
		.st2 {fill:#ffffff;stroke:none;stroke-linecap:butt;stroke-width:34}
		.st3 {fill:#32bedd;stroke:none;stroke-linecap:butt;stroke-width:34}
		.st4 {fill:url(#grad0-16);stroke:none;stroke-linecap:butt;stroke-width:34}
		.st5 {fill:#e8e8e8}
		.st6 {stroke:none;stroke-linecap:butt;stroke-width:34}
		.st7 {fill:#50e6ff}
		.st8 {fill:#198ab3;stroke:none;stroke-linecap:butt;stroke-width:34}
		.st9 {fill:none;fill-rule:evenodd;font-size:12px;overflow:visible;stroke-linecap:square;stroke-miterlimit:3}
	]]>
	</style>

	<defs id="Patterns_And_Gradients">
		<linearGradient id="grad0-16" x1="0" y1="0" x2="1" y2="0" gradientTransform="rotate(0 0.5 0.5)">
			<stop offset="0" stop-color="#005ba1" stop-opacity="1"/>
			<stop offset="0.07" stop-color="#0060a9" stop-opacity="1"/>
			<stop offset="0.36" stop-color="#0071c8" stop-opacity="1"/>
			<stop offset="0.52" stop-color="#0078d4" stop-opacity="1"/>
			<stop offset="0.64" stop-color="#0074cd" stop-opacity="1"/>
			<stop offset="0.82" stop-color="#006abb" stop-opacity="1"/>
			<stop offset="1" stop-color="#005ba1" stop-opacity="1"/>
		</linearGradient>
	</defs>
	<g>
		<title>Page-1</title>
		<g id="group11140-1" transform="translate(34,-34.0157)">
			<title>Data Share.11140</title>
			<g id="group11141-2">
				<title>Icon-storage-98</title>
				<g id="shape11142-3" transform="translate(36.3967,-6.61352)">
					<title>Sheet.11142</title>
					<path d="M16.48 84.7 L13.99 83.5 L6.45 98.59 L0 98.59 L0 101.25 L6.52 101.25 L13.99 116.2 L16.48 115.01 L8.9
								 99.85 L16.48 84.7 Z" class="st1"/>
				</g>
				<g id="shape11143-5" transform="translate(46.5278,-33.6326)">
					<title>Sheet.11143</title>
					<path d="M5.08 116.2 A4.94613 4.8189 0 0 1 2.32 115.41 A5.01436 4.88537 0 0 1 0 112.08 A5.21902 5.08477 0 0 1
								 5.08 105.87 A5.1508 5.0183 0 0 1 7.88 106.67 A5.25313 5.118 0 0 1 10.17 109.99 A5.21902 5.08477
								 0 0 1 5.08 116.17 L5.08 116.2 Z" class="st2"/>
				</g>
				<g id="shape11144-7" transform="translate(47.6534,-32.7486)">
					<title>Sheet.11144</title>
					<path d="M3.96 106.28 A4.09335 3.98805 0 0 1 6.14 106.91 A3.99102 3.88835 0 0 1 7.91 109.37 A4.05924 3.95482
								 0 0 1 7.4 112.36 A4.12746 4.02129 0 0 1 3.99 114.19 A4.02513 3.92159 0 0 1 1.81 113.59 A4.09335
								 3.98805 0 0 1 -0 111.1 A4.09335 3.98805 0 0 1 3.96 106.28 ZM3.96 104.02 A6.37881 6.21472 -180 1
								 0 7.37 104.98 A6.31058 6.14825 -180 0 0 3.96 104.02 Z" class="st3"/>
				</g>
				<g id="shape11145-9" transform="translate(46.5266,-2.12696)">
					<title>Sheet.11145</title>
					<path d="M5.08 116.2 A4.94613 4.8189 0 0 1 2.32 115.41 A5.1508 5.0183 0 0 1 0.68 108.43 A5.18491 5.05153 0 0
								 1 7.88 106.83 A5.21902 5.08477 0 0 1 5.08 116.2 Z" class="st2"/>
				</g>
				<g id="shape11146-11" transform="translate(47.6534,-1.24294)">
					<title>Sheet.11146</title>
					<path d="M3.96 106.28 A4.09335 3.98805 0 0 1 6.14 106.91 A3.99102 3.88835 0 0 1 7.91 109.37 A4.05924 3.95482
								 0 0 1 7.4 112.36 A4.12746 4.02129 0 0 1 3.99 114.19 A4.02513 3.92159 0 0 1 1.81 113.59 A4.09335
								 3.98805 0 0 1 0 111.1 A4.09335 3.98805 0 0 1 3.96 106.28 ZM3.96 104.02 A6.37881 6.21472 -180 1 0
								 7.37 104.98 A6.31058 6.14825 -180 0 0 3.96 104.02 Z" class="st3"/>
				</g>
				<g id="shape11147-13">
					<title>Sheet.11147</title>
					<path d="M18.76 81.18 C8.53 81.18 0 78.22 0 74.6 L0 109.56 C0 113.18 8.22 116.2 18.39 116.2 L18.76 116.2 C28.99
								 116.2 37.42 113.28 37.42 109.56 L37.42 74.6 C37.28 78.22 28.99 81.18 18.76 81.18 Z" class="st4"/>
				</g>
				<g id="shape11148-17" transform="translate(0,-34.9619)">
					<title>Sheet.11148</title>
					<path d="M37.28 109.56 C37.28 113.18 28.93 116.2 18.62 116.2 C8.32 116.2 0 113.18 0 109.56 C0 105.94 8.53 102.98
								 18.76 102.98 C28.99 102.98 37.42 105.9 37.42 109.62 L37.28 109.56 Z" class="st5"/>
					<path d="M37.28 109.56 C37.28 113.18 28.93 116.2 18.62 116.2 C8.32 116.2 0 113.18 0 109.56 C0 105.94 8.53 102.98
								 18.76 102.98 C28.99 102.98 37.42 105.9 37.42 109.62" class="st6"/>
				</g>
				<g id="shape11149-20" transform="translate(4.33213,-37.9862)">
					<title>Sheet.11149</title>
					<path d="M28.59 112.05 C28.59 114.34 22.21 116.2 14.29 116.2 C6.38 116.2 0 114.34 0 112.05 C0 109.76 6.41 107.86
								 14.43 107.86 C22.45 107.86 28.72 109.72 28.72 112.05 L28.59 112.05 Z" class="st7"/>
					<path d="M28.59 112.05 C28.59 114.34 22.21 116.2 14.29 116.2 C6.38 116.2 0 114.34 0 112.05 C0 109.76 6.41 107.86
								 14.43 107.86 C22.45 107.86 28.72 109.72 28.72 112.05" class="st6"/>
				</g>
				<g id="shape11150-23" transform="translate(7.47037,-37.9862)">
					<title>Sheet.11150</title>
					<path d="M11.29 113.01 A34.5206 33.6326 -180 0 0 -0 114.58 A32.9856 32.1371 -180 0 0 11.29 116.2 A33.3608 32.5026
								 -180 0 0 22.62 114.58 A34.5888 33.699 -180 0 0 11.29 113.01 Z" class="st8"/>
				</g>
			</g>
		</g>
	</g>
</svg>
