<?xml version="1.0" encoding="UTF-8" standalone="no"?>
<!DOCTYPE svg PUBLIC "-//W3C//DTD SVG 1.1//EN" "http://www.w3.org/Graphics/SVG/1.1/DTD/svg11.dtd">
<!-- Generated by Microsoft Visio, SVG Export Azure Media Services.svg Page-1 -->
<svg xmlns="http://www.w3.org/2000/svg" xmlns:xlink="http://www.w3.org/1999/xlink" xmlns:ev="http://www.w3.org/2001/xml-events"
		width="1.73185in" height="1.73641in" viewBox="0 0 124.693 125.022" xml:space="preserve" color-interpolation-filters="sRGB"
		class="st8">
	<style type="text/css">
	<![CDATA[
		.st1 {fill:url(#grad0-6);stroke:none;stroke-linecap:butt;stroke-width:34}
		.st2 {fill:#0078d4;stroke:none;stroke-linecap:butt;stroke-width:34}
		.st3 {fill:#5ea0ef;stroke:none;stroke-linecap:butt;stroke-width:34}
		.st4 {fill:url(#grad0-14);stroke:none;stroke-linecap:butt;stroke-width:34}
		.st5 {fill:#c3f1ff;stroke:none;stroke-linecap:butt;stroke-width:34}
		.st6 {fill:url(#grad0-24);stroke:none;stroke-linecap:butt;stroke-width:34}
		.st7 {fill:#50e6ff;stroke:none;stroke-linecap:butt;stroke-width:34}
		.st8 {fill:none;fill-rule:evenodd;font-size:12px;overflow:visible;stroke-linecap:square;stroke-miterlimit:3}
	]]>
	</style>

	<defs id="Patterns_And_Gradients">
		<linearGradient id="grad0-6" x1="0" y1="0" x2="1" y2="0" gradientTransform="rotate(-0.10093496580791 0.5 0.5)">
			<stop offset="0" stop-color="#005ba1" stop-opacity="1"/>
			<stop offset="0.365" stop-color="#004e8f" stop-opacity="1"/>
			<stop offset="1" stop-color="#003067" stop-opacity="1"/>
		</linearGradient>
		<linearGradient id="grad0-14" x1="0" y1="0" x2="1" y2="0" gradientTransform="rotate(179.3084945769 0.5 0.5)">
			<stop offset="0" stop-color="#005ba1" stop-opacity="1"/>
			<stop offset="0.45" stop-color="#004685" stop-opacity="1"/>
			<stop offset="1" stop-color="#003067" stop-opacity="1"/>
		</linearGradient>
		<linearGradient id="grad0-24" x1="0" y1="0" x2="1" y2="0" gradientTransform="rotate(-73.177420271587 0.5 0.5)">
			<stop offset="0.26" stop-color="#50e6ff" stop-opacity="1"/>
			<stop offset="0.42" stop-color="#79eaff" stop-opacity="1"/>
			<stop offset="0.58" stop-color="#99edff" stop-opacity="1"/>
			<stop offset="0.735" stop-color="#b0efff" stop-opacity="1"/>
			<stop offset="0.875" stop-color="#bef1ff" stop-opacity="1"/>
			<stop offset="1" stop-color="#c3f1ff" stop-opacity="1"/>
		</linearGradient>
	</defs>
	<g>
		<title>Page-1</title>
		<g id="group9262-1" transform="translate(34,-34.0786)">
			<title>Azure Media Services.9262</title>
			<g id="group9263-2">
				<title>Sheet.9263</title>
				<g id="shape9264-3" transform="translate(8.14951,-36.7208)">
					<title>Sheet.9264</title>
					<path d="M20.92 116.87 L34.98 125.02 L44.78 119.32 A28.2645 28.485 -180 0 0 -0 113.3 A32.209 32.4603 0 0 1 20.92
								 116.87 Z" class="st1"/>
				</g>
				<g id="shape9265-7" transform="translate(36.0539,-14.4142)">
					<title>Sheet.9265</title>
					<path d="M6.89 102.72 L6.67 122.26 L16.85 125.02 A28.2645 28.485 -180 0 0 -0 83.58 A33.5689 33.8308 0 0 1 6.89
								 102.72 Z" class="st2"/>
				</g>
				<g id="shape9266-9" transform="translate(28.2902,1.42109E-14)">
					<title>Sheet.9266</title>
					<path d="M14.63 105.16 L0 113.68 L0.23 125.02 A28.2902 28.5109 -180 0 0 28.4 96.51 A27.1072 27.3186 -180 0 0
								 27.48 89.74 A30.7752 31.0153 0 0 1 14.63 105.16 Z" class="st3"/>
				</g>
				<g id="shape9267-11" transform="translate(3.93812,-0.186853)">
					<title>Sheet.9267</title>
					<path d="M24.35 113.87 L9.71 105.35 L0 111.22 A28.2259 28.4461 -180 0 0 43.95 117.31 A31.8522 32.1007 0 0 1 24.35
								 113.87 Z" class="st4"/>
				</g>
				<g id="shape9268-15" transform="translate(0,-0.894206)">
					<title>Sheet.9268</title>
					<path d="M13.64 106.06 L13.86 85.85 L3.84 83.19 A28.1102 28.3295 -180 0 0 0 97.48 A28.4413 28.6632 -180 0 0 21.01
								 125.02 A32.762 33.0176 0 0 1 13.64 106.06 Z" class="st2"/>
				</g>
				<g id="shape9269-17" transform="translate(2.79776E-13,-20.9166)">
					<title>Sheet.9269</title>
					<path d="M14.15 108.76 L28.29 100.52 A34.0093 34.2746 -180 0 0 9.19 96.48 A28.1552 28.3748 -180 0 0 0 117.51
								 A28.9749 29.201 -180 0 0 1.01 125.02 A32.9517 33.2087 0 0 1 14.15 108.76 Z" class="st3"/>
				</g>
				<g id="shape9270-19" transform="translate(13.6372,-11.3396)">
					<title>Sheet.9270</title>
					<path d="M29.29 116.5 L29.29 99.46 L14.64 90.94 L0 99.46 L0 116.5 L14.64 125.02 L29.29 116.5 Z" class="st5"/>
				</g>
				<g id="shape9271-21" transform="translate(13.6372,-11.3396)">
					<title>Sheet.9271</title>
					<path d="M14.66 108.16 L14.66 125.02 L0 116.5 L0 99.52 L14.66 108.16 Z" class="st6"/>
				</g>
				<g id="shape9272-25" transform="translate(28.2806,-11.3396)">
					<title>Sheet.9272</title>
					<path d="M0 108.16 L0 125.02 L14.66 116.5 L14.66 99.52 L0 108.16 Z" class="st7"/>
				</g>
			</g>
		</g>
	</g>
</svg>
