<?xml version="1.0" encoding="UTF-8" standalone="no"?>
<!-- Generated by Microsoft Visio, SVG Export Azure Synapse Analytics Spark Pool.svg Page-1 -->

<svg
   xmlns:dc="http://purl.org/dc/elements/1.1/"
   xmlns:cc="http://creativecommons.org/ns#"
   xmlns:rdf="http://www.w3.org/1999/02/22-rdf-syntax-ns#"
   xmlns:svg="http://www.w3.org/2000/svg"
   xmlns="http://www.w3.org/2000/svg"
   xmlns:sodipodi="http://sodipodi.sourceforge.net/DTD/sodipodi-0.dtd"
   xmlns:inkscape="http://www.inkscape.org/namespaces/inkscape"
   width="0.78739661in"
   height="0.78736508in"
   viewBox="0 0 56.692554 56.690426"
   xml:space="preserve"
   class="st6"
   version="1.1"
   id="svg94"
   sodipodi:docname="Azure Synapse Analytics Spark Pool.svg"
   style="font-size:12px;overflow:visible;color-interpolation-filters:sRGB;fill:none;fill-rule:evenodd;stroke-linecap:square;stroke-miterlimit:3"
   inkscape:version="0.92.5 (2060ec1f9f, 2020-04-08)"><metadata
   id="metadata98"><rdf:RDF><cc:Work
       rdf:about=""><dc:format>image/svg+xml</dc:format><dc:type
         rdf:resource="http://purl.org/dc/dcmitype/StillImage" /></cc:Work></rdf:RDF></metadata><sodipodi:namedview
   pagecolor="#ffffff"
   bordercolor="#666666"
   borderopacity="1"
   objecttolerance="10"
   gridtolerance="10"
   guidetolerance="10"
   inkscape:pageopacity="0"
   inkscape:pageshadow="2"
   inkscape:window-width="640"
   inkscape:window-height="480"
   id="namedview96"
   showgrid="false"
   inkscape:zoom="1.8365233"
   inkscape:cx="37.795184"
   inkscape:cy="18.900351"
   inkscape:window-x="0"
   inkscape:window-y="0"
   inkscape:window-maximized="0"
   inkscape:current-layer="svg94" />
	<style
   type="text/css"
   id="style2">
	<![CDATA[
		.st1 {fill:#0078d4;stroke:none;stroke-linecap:butt;stroke-width:0.75}
		.st2 {fill:url(#grad0-12);stroke:none;stroke-linecap:butt;stroke-width:0.75}
		.st3 {fill:#50e6ff;stroke:none;stroke-linecap:butt;stroke-width:0.75}
		.st4 {fill:url(#grad0-20);stroke:none;stroke-linecap:butt;stroke-width:0.75}
		.st5 {fill:#000000;stroke:none;stroke-linecap:butt;stroke-width:0.75}
		.st6 {fill:none;fill-rule:evenodd;font-size:12px;overflow:visible;stroke-linecap:square;stroke-miterlimit:3}
	]]>
	</style>

	<defs
   id="Patterns_And_Gradients">
		<linearGradient
   id="grad0-12"
   x1="0"
   y1="142.59677"
   x2="24.456551"
   y2="142.59677"
   gradientTransform="scale(1.7332779,0.57694153)"
   gradientUnits="userSpaceOnUse">
			<stop
   offset="0.2"
   stop-color="#005ba1"
   stop-opacity="1"
   id="stop4" />
			<stop
   offset="1"
   stop-color="#0078d4"
   stop-opacity="1"
   id="stop6" />
		</linearGradient>
		<linearGradient
   id="grad0-20"
   x1="-1.2569145"
   y1="91.476379"
   x2="21.576249"
   y2="91.476379"
   gradientTransform="scale(1.1688779,0.85552137)"
   gradientUnits="userSpaceOnUse">
			<stop
   offset="0"
   stop-color="#198ab3"
   stop-opacity="1"
   id="stop9" />
			<stop
   offset="0.17"
   stop-color="#32bedd"
   stop-opacity="1"
   id="stop11" />
			<stop
   offset="0.5"
   stop-color="#50e6ff"
   stop-opacity="1"
   id="stop13" />
			<stop
   offset="0.5"
   stop-color="#4fe4fd"
   stop-opacity="1"
   id="stop15" />
			<stop
   offset="0.5"
   stop-color="#4bddf8"
   stop-opacity="1"
   id="stop17" />
			<stop
   offset="0.5"
   stop-color="#44d2ee"
   stop-opacity="1"
   id="stop19" />
			<stop
   offset="0.5"
   stop-color="#3ac1e0"
   stop-opacity="1"
   id="stop21" />
			<stop
   offset="0.5"
   stop-color="#2dabce"
   stop-opacity="1"
   id="stop23" />
			<stop
   offset="0.5"
   stop-color="#1d90b8"
   stop-opacity="1"
   id="stop25" />
			<stop
   offset="0.5"
   stop-color="#198ab3"
   stop-opacity="1"
   id="stop27" />
			<stop
   offset="0.66"
   stop-color="#32bedd"
   stop-opacity="1"
   id="stop29" />
			<stop
   offset="0.975"
   stop-color="#50e6ff"
   stop-opacity="1"
   id="stop31" />
		</linearGradient>
	</defs>
	<g
   id="g92"
   transform="translate(-5.6693772,-5.67387)">
		<title
   id="title35">Page-1</title>
		<g
   id="group22080-1"
   transform="translate(5.66929,-34.0157)">
			<title
   id="title37">Azure Synapse Analytics Spark Pool.22080</title>
			<g
   id="group22081-2">
				<title
   id="title39">Page-1</title>
				<g
   id="group22082-3">
					<title
   id="title41">Sheet.22082</title>
					<g
   id="group22083-4"
   transform="translate(0,-9.48043)">
						<title
   id="title43">Sheet.22083</title>
						<g
   id="group22084-5">
							<title
   id="title45">Sheet.22084</title>
							<g
   id="shape22085-6">
								<title
   id="title47">Sheet.22085</title>
								<path
   d="M 21.2,49.17 0,60.94 V 84.47 L 21.2,96.38 42.39,84.6 V 60.99 Z M 38.47,82.13 21.2,91.84 3.91,82.23 V 63.27 l 17.29,-9.7 17.27,9.73 z"
   class="st1"
   id="path49"
   inkscape:connector-curvature="0"
   style="fill:#0078d4;stroke:none;stroke-width:0.75;stroke-linecap:butt" />
							</g>
						</g>
						<g
   id="group22086-8"
   transform="translate(0,-33.0995)">
							<title
   id="title53">Sheet.22086</title>
							<g
   id="shape22087-9">
								<title
   id="title55">Sheet.22087</title>
								<path
   d="M 21.2,82.27 0,94.04 l 3.91,2.34 17.29,-9.71 17.27,9.71 3.92,-2.34 z"
   class="st2"
   id="path57"
   inkscape:connector-curvature="0"
   style="fill:url(#grad0-12);stroke:none;stroke-width:0.75;stroke-linecap:butt" />
							</g>
						</g>
						<g
   id="group22088-13"
   transform="translate(6.64957,-5.89864)">
							<title
   id="title61">Sheet.22088</title>
							<g
   id="shape22089-14">
								<title
   id="title63">Sheet.22089</title>
								<path
   d="M 24.64,82.54 A 1.97085,1.91463 -180 0 0 23.77,81.79 15.7532,15.3039 -180 0 0 11.68,73.01 L 29.17,63.19 25.1,60.92 5.18,72.11 a 2.02484,1.96709 -180 0 0 1.02,3.68 1.84665,1.79399 -180 0 0 0.24,-0.07 l 0.34,1.38 a 11.6604,11.3278 0 0 1 13.07,5.86 L 0,94.11 4.05,96.38 23.91,85.23 a 1.96815,1.91201 -180 0 0 0.64,-0.63 l 0.21,-0.04 c -0.03,-0.08 -0.05,-0.15 -0.07,-0.22 a 1.98434,1.92774 -180 0 0 -0.05,-1.8 z"
   class="st3"
   id="path65"
   inkscape:connector-curvature="0"
   style="fill:#50e6ff;stroke:none;stroke-width:0.75;stroke-linecap:butt" />
							</g>
						</g>
						<g
   id="group22090-16"
   transform="translate(9.32238,-15.2857)">
							<title
   id="title69">Sheet.22090</title>
							<g
   id="shape22091-17">
								<title
   id="title71">Sheet.22091</title>
								<path
   d="m 20.21,88.09 a 4.99459,4.85214 -180 1 0 5.01,4.85 4.99459,4.85214 -180 0 0 -5.01,-4.85 z M 3.52,78.26 a 4.99459,4.85214 -180 1 0 5,4.85 4.99459,4.85214 -180 0 0 -5,-4.85 z"
   class="st4"
   id="path73"
   inkscape:connector-curvature="0"
   style="fill:url(#grad0-20);stroke:none;stroke-width:0.75;stroke-linecap:butt" />
							</g>
						</g>
					</g>
					<g
   id="group22092-21"
   transform="translate(34.4427)">
						<title
   id="title78">Sheet.22092</title>
						<g
   id="group22093-22">
							<title
   id="title80">Sheet.22093</title>
							<g
   id="shape22094-23">
								<title
   id="title82">Sheet.22094</title>
								<path
   d="m 22.25,89.81 -3.23,1.78 3.23,1.77 -0.7,1.24 -3.25,-1.78 v 3.56 h -1.4 v -3.56 l -3.23,1.78 -0.71,-1.24 3.23,-1.77 -3.23,-1.78 0.71,-1.23 3.23,1.77 v -3.56 h 1.4 v 3.56 l 3.25,-1.77 z M 8.45,78.59 v 4.1 h 2.82 L 7.04,88.17 V 84.06 H 4.23 Z m 2.26,13.68 c 0.06,0.08 0.13,0.17 0.2,0.29 0.06,0.12 0.12,0.23 0.17,0.35 0.06,0.12 0.09,0.25 0.14,0.37 0.03,0.13 0.05,0.26 0.05,0.35 H 9.85 V 95 H 8.45 V 93.63 H 7.04 V 95 H 5.64 V 93.63 H 4.23 V 95 H 2.81 V 93.63 H 1.41 V 92.27 H 0 V 90.9 H 1.41 V 89.54 H 0 V 88.17 H 1.41 V 86.79 H 0 V 85.43 H 1.41 V 84.06 H 0 V 82.69 H 1.41 V 81.33 H 0 V 79.95 H 1.41 V 78.59 H 0 v -1.37 h 1.41 v -1.37 h 1.4 v -1.36 h 1.42 v 1.36 h 1.41 v -1.36 h 1.4 v 1.36 h 1.41 v -1.36 h 1.4 v 1.36 h 1.42 v -1.36 h 1.41 v 1.36 h 1.4 v -1.36 h 1.41 v 1.36 h 1.41 v -1.36 h 1.4 v 1.36 h 1.42 v 1.37 h 1.41 v 1.37 h -1.41 v 1.36 h 1.41 v 1.38 h -1.41 v 1.36 h 1.41 v 1.37 h -1.41 v 1.37 H 18.3 V 77.22 H 2.81 v 15.05 z"
   class="st5"
   id="path84"
   inkscape:connector-curvature="0"
   style="fill:#000000;stroke:none;stroke-width:0.75;stroke-linecap:butt" />
							</g>
						</g>
					</g>
				</g>
			</g>
		</g>
	</g>
</svg>