<?xml version="1.0" encoding="UTF-8" standalone="no"?>
<!DOCTYPE svg PUBLIC "-//W3C//DTD SVG 1.1//EN" "http://www.w3.org/Graphics/SVG/1.1/DTD/svg11.dtd">
<!-- Generated by Microsoft Visio, SVG Export Azure Cosmos DB Cognitive Search.svg Page-1 -->
<svg xmlns="http://www.w3.org/2000/svg" xmlns:xlink="http://www.w3.org/1999/xlink" xmlns:ev="http://www.w3.org/2001/xml-events"
		width="1.05303in" height="1.07769in" viewBox="0 0 75.8179 77.594" xml:space="preserve" color-interpolation-filters="sRGB"
		class="st2">
	<style type="text/css">
	<![CDATA[
		.st1 {fill:#59b4d9;stroke:none;stroke-linecap:butt;stroke-width:9.5625}
		.st2 {fill:none;fill-rule:evenodd;font-size:12px;overflow:visible;stroke-linecap:square;stroke-miterlimit:3}
	]]>
	</style>

	<g>
		<title>Page-1</title>
		<g id="group17963-1" transform="translate(9.56253,-34.0157)">
			<title>Azure Cosmos DB Cognitive Search.17963</title>
			<g id="group17964-2">
				<title>Sheet.17964</title>
				<g id="group17965-3">
					<title>Sheet.17965</title>
					<g id="shape17966-4" transform="translate(25.663,-9.2338)">
						<title>Sheet.17966</title>
						<path d="M11.01 67.35 C10.59 66.73 10.05 66.2 9.41 65.79 C8.76 65.37 8.02 65.09 7.2 64.96 A5.88472 5.72676
									 -180 0 0 4.79 65.05 C4.01 65.24 3.3 65.57 2.66 66.02 A6.37701 6.20583 -180 0 0 1.04 67.74 C0.59
									 68.43 0.3 69.22 0.15 70.09 C0 70.99 0.01 71.86 0.18 72.69 C0.35 73.52 0.66 74.27 1.1 74.92 A6.0189
									 5.85733 -180 0 0 2.78 76.58 A5.72598 5.57228 -180 0 0 5.1 77.46 C5.93 77.59 6.73 77.55 7.49
									 77.33 A5.65039 5.49872 -180 0 0 9.53 76.27 A6.53575 6.36031 -180 0 0 11.06 74.42 C11.48 73.69
									 11.76 72.87 11.91 71.96 A7.07528 6.88535 -180 0 0 11.88 69.48 A6.21543 6.04859 -180 0 0 11.01
									 67.35 Z" class="st1"/>
					</g>
					<g id="shape17967-6">
						<title>Sheet.17967</title>
						<path d="M55.18 64.35 A9.77008 9.50782 -180 0 0 51.38 61.3 C51.5 60.92 51.62 60.53 51.72 60.13 C51.83 59.72
									 51.89 59.27 51.89 58.75 C51.89 57.44 51.65 56.2 51.17 55.03 A10.6299 10.3446 -180 0 0 49.22
									 51.94 A9.40913 9.15657 -180 0 0 46.32 49.79 A7.8652 7.65407 -180 0 0 42.81 49.01 C40.42 49.01
									 38.62 49.69 37.41 51.05 C36.8 48.64 35.67 46.79 34.03 45.5 C32.39 44.22 30.5 43.58 28.36 43.58
									 C27 43.58 25.73 43.85 24.56 44.4 A9.5452 9.28898 -180 0 0 21.49 46.69 C20.61 47.68 19.93 48.84
									 19.43 50.18 C18.94 51.52 18.69 52.96 18.69 54.5 C18.69 54.65 18.7 54.84 18.73 55.05 C18.76 55.26
									 18.79 55.45 18.81 55.6 C18.43 55.45 17.97 55.32 17.41 55.23 A10.5222 10.2398 -180 0 0 15.69
									 55.1 C15.08 55.1 14.48 55.22 13.88 55.45 A6.90992 6.72444 -180 0 0 12.22 56.39 A10.7717 10.4825
									 -180 0 0 10.78 57.72 C10.34 58.21 9.97 58.28 9.67 59.2 L7.86 59.2 A6.2022 6.03572 -180 0 0 4.88
									 59.93 A8.7137 8.4798 -180 0 0 2.39 61.89 A10.062 9.79195 -180 0 0 0.65 64.72 A9.27213 9.02324
									 -180 0 0 -0 68.07 C0 69.43 0.22 70.69 0.65 71.87 C1.09 73.04 1.67 74.04 2.39 74.88 C3.11 75.72
									 3.94 76.39 4.88 76.87 A6.32126 6.15158 -180 0 0 7.86 77.59 L50.05 77.59 C50.84 77.59 51.62 77.35
									 52.41 76.88 C53.19 76.41 53.9 75.8 54.54 75.04 C55.18 74.28 55.7 73.4 56.1 72.42 A8.3263 8.1028
									 -180 0 0 56.69 69.44 C56.69 67.39 56.19 65.69 55.18 64.35 ZM40.3 63.16 A9.86079 9.5961 0 0 1
									 39.57 65.55 A10.56 10.2765 0 0 1 38.3 67.63 A10.2047 9.9308 0 0 1 36.61 69.31 C35.98 69.8 35.32
									 70.2 34.63 70.51 C33.93 70.82 33.22 71.03 32.47 71.15 C31.73 71.26 31 71.26 30.27 71.15 C29.69
									 71.06 29.19 70.95 28.76 70.82 A6.79087 6.60858 0 0 1 27.62 70.36 A5.53701 5.38838 0 0 1 26.73
									 69.8 A8.65701 8.42463 0 0 1 25.99 69.13 L18.23 75.11 C17.8 75.38 17.36 75.48 16.91 75.41 A1.88787
									 1.8372 0 0 1 16.2 75.14 A2.42268 2.35765 0 0 1 15.58 74.55 A2.11087 2.0542 0 0 1 15.17 73.68
									 A2.74961 2.6758 0 0 1 15.47 71.85 C15.63 71.57 15.83 71.34 16.06 71.16 L23.54 65.43 C23.2 64.57
									 23.02 63.72 22.98 62.9 C22.94 62.07 22.99 61.25 23.12 60.43 C23.26 59.6 23.51 58.82 23.87 58.09
									 C24.22 57.36 24.66 56.69 25.17 56.09 A9.29291 9.04346 0 0 1 26.89 54.51 C27.54 54.05 28.21 53.69
									 28.92 53.4 C29.63 53.12 30.36 52.93 31.11 52.83 C31.86 52.74 32.61 52.75 33.34 52.87 A7.2822
									 7.08673 0 0 1 35.5 53.55 A8.19213 7.97223 0 0 1 37.35 54.81 C37.9 55.32 38.4 55.89 38.82 56.53
									 A9.87685 9.61173 0 0 1 40.38 60.83 A9.11339 8.86876 0 0 1 40.3 63.16 Z" class="st1"/>
					</g>
				</g>
			</g>
		</g>
	</g>
</svg>
