<?xml version="1.0" encoding="UTF-8" standalone="no"?>
<!DOCTYPE svg PUBLIC "-//W3C//DTD SVG 1.1//EN" "http://www.w3.org/Graphics/SVG/1.1/DTD/svg11.dtd">
<!-- Generated by Microsoft Visio, SVG Export Data collection Rule.svg Page-1 -->
<svg xmlns="http://www.w3.org/2000/svg" xmlns:xlink="http://www.w3.org/1999/xlink" xmlns:ev="http://www.w3.org/2001/xml-events"
		width="1.73185in" height="1.73206in" viewBox="0 0 124.693 124.709" xml:space="preserve" color-interpolation-filters="sRGB"
		class="st6">
	<style type="text/css">
	<![CDATA[
		.st1 {fill:url(#grad0-6);stroke:none;stroke-linecap:butt;stroke-width:34}
		.st2 {fill:url(#grad0-10);stroke:none;stroke-linecap:butt;stroke-width:34}
		.st3 {fill:#ffffff;stroke:none;stroke-linecap:butt;stroke-width:34}
		.st4 {fill:#ffffff;fill-opacity:0.8;stroke:none;stroke-linecap:butt;stroke-width:34}
		.st5 {fill:#83b9f9;stroke:none;stroke-linecap:butt;stroke-width:34}
		.st6 {fill:none;fill-rule:evenodd;font-size:12px;overflow:visible;stroke-linecap:square;stroke-miterlimit:3}
	]]>
	</style>

	<defs id="Patterns_And_Gradients">
		<linearGradient id="grad0-6" x1="0" y1="0" x2="1" y2="0" gradientTransform="rotate(-90 0.5 0.5)">
			<stop offset="0" stop-color="#0078d4" stop-opacity="1"/>
			<stop offset="1" stop-color="#5ea0ef" stop-opacity="1"/>
		</linearGradient>
		<linearGradient id="grad0-10" x1="0" y1="0" x2="1" y2="0" gradientTransform="rotate(90 0.5 0.5)">
			<stop offset="0" stop-color="#50e6ff" stop-opacity="1"/>
			<stop offset="1" stop-color="#32bedd" stop-opacity="1"/>
		</linearGradient>
	</defs>
	<g>
		<title>Page-1</title>
		<g id="group19062-1" transform="translate(34,-34.0157)">
			<title>Data collection Rule.19062</title>
			<g id="group19063-2">
				<title>Sheet.19063</title>
				<g id="shape19064-3" transform="translate(9.41129,1.42109E-14)">
					<title>Sheet.19064</title>
					<path d="M0 122.82 A1.92991 1.88981 -180 0 0 1.93 124.71 L45.35 124.71 A1.92991 1.88981 -180 0 0 47.28 122.82
								 L47.28 69.91 A1.92991 1.88981 -180 0 0 45.35 68.02 L1.93 68.02 A1.92991 1.88981 -180 0 0 -0 69.91
								 L0 122.82 Z" class="st1"/>
				</g>
				<g id="shape19065-7" transform="translate(0,-27.8488)">
					<title>Sheet.19065</title>
					<path d="M0 123 A1.74013 1.70398 -180 0 0 1.74 124.71 L43.24 124.71 A1.74013 1.70398 -180 0 0 44.98 123 L44.98
								 103.45 A1.74013 1.70398 -180 0 0 43.24 101.74 L1.74 101.74 A1.74013 1.70398 -180 0 0 0 103.45 L0
								 123 Z" class="st2"/>
				</g>
				<g id="shape19066-11" transform="translate(6.90891,-41.1811)">
					<title>Sheet.19066</title>
					<path d="M30.72 123.13 L8.79 123.13 a0.392405 0.384252 0 0 1 -0.398838 -0.377953 L8.39 121.48 a0.395622 0.387402
								 0 0 1 0.395622 -0.387402 L30.72 121.09 a0.398838 0.390551 0 0 1 0.398838 0.387402 L31.12 122.74
								 a0.392405 0.384252 0 0 1 -0.392405 0.387402 L30.72 123.13 ZM5.31 124.04 L5.31 120.18 a0.681885 0.667717
								 -180 0 0 -0.681885 -0.667717 L0.68 119.51 a0.681885 0.667717 -180 0 0 -0.681885 0.664567 L0 124.04
								 a0.678668 0.664567 -180 0 0 0.678668 0.664567 L4.63 124.71 a0.678668 0.664567 -180 0 0 0.681885
								 -0.664567 L5.31 124.04 Z" class="st3"/>
				</g>
				<g id="shape19067-13" transform="translate(6.91534,-32.9669)">
					<title>Sheet.19067</title>
					<path d="M30.71 123.1 L8.79 123.1 a0.398838 0.390551 0 0 1 -0.398838 -0.387402 L8.39 121.44 a0.398838 0.390551
								 0 0 1 0.398838 -0.390551 L30.71 121.05 a0.402055 0.393701 0 0 1 0.398838 0.390551 L31.11 122.7 a0.402055
								 0.393701 0 0 1 -0.395622 0.393701 L30.71 123.1 ZM4.32 120.49 L1.03 120.49 L1.03 123.7 L4.32 123.7
								 L4.32 120.49 ZM4.66 119.48 a0.69475 0.680315 0 0 1 0.685101 0.674016 L5.35 124.04 a0.688317 0.674016
								 0 0 1 -0.688317 0.670866 L0.69 124.71 a0.685101 0.670866 0 0 1 -0.685101 -0.670866 L0 120.14 a0.685101
								 0.670866 0 0 1 0.685101 -0.670866 L4.66 119.48 Z" class="st4"/>
				</g>
				<g id="shape19068-15" transform="translate(9.41129,-6.47262)">
					<title>Sheet.19068</title>
					<path d="M33.03 109.47 a0.389189 0.381102 -180 0 0 -0.270181 -0.110236 a0.37954 0.371654 -180 0 0 -0.376323 0.374803
								 L32.38 114.42 L0 114.42 L0 120.01 L32.38 120.01 L32.38 124.37 a0.37954 0.371654 -180 0 0 0.643287
								 0.264567 L40.5 117.32 a0.376323 0.368504 -180 0 0 -1.13687E-13 -0.522835 L33.03 109.47 Z"
							class="st5"/>
				</g>
			</g>
		</g>
	</g>
</svg>
