<?xml version="1.0" encoding="UTF-8" standalone="no"?>
<!DOCTYPE svg PUBLIC "-//W3C//DTD SVG 1.1//EN" "http://www.w3.org/Graphics/SVG/1.1/DTD/svg11.dtd">
<!-- Generated by Microsoft Visio, SVG Export HDInsight Cluster.svg Page-1 -->
<svg xmlns="http://www.w3.org/2000/svg" xmlns:xlink="http://www.w3.org/1999/xlink" xmlns:ev="http://www.w3.org/2001/xml-events"
		width="1.73185in" height="1.73206in" viewBox="0 0 124.693 124.709" xml:space="preserve" color-interpolation-filters="sRGB"
		class="st5">
	<style type="text/css">
	<![CDATA[
		.st1 {fill:none;stroke:none;stroke-linecap:butt;stroke-width:34}
		.st2 {fill:#0078d4;stroke:none;stroke-linecap:butt;stroke-width:34}
		.st3 {fill:url(#grad0-10);stroke:none;stroke-linecap:butt;stroke-width:34}
		.st4 {fill:#5ea0ef;stroke:none;stroke-linecap:butt;stroke-width:34}
		.st5 {fill:none;fill-rule:evenodd;font-size:12px;overflow:visible;stroke-linecap:square;stroke-miterlimit:3}
	]]>
	</style>

	<defs id="Patterns_And_Gradients">
		<linearGradient id="grad0-10" x1="0" y1="0" x2="1" y2="0" gradientTransform="rotate(-90 0.5 0.5)">
			<stop offset="0.09" stop-color="#32bedd" stop-opacity="1"/>
			<stop offset="0.21" stop-color="#3bcae7" stop-opacity="1"/>
			<stop offset="0.42" stop-color="#47daf5" stop-opacity="1"/>
			<stop offset="0.66" stop-color="#4ee3fd" stop-opacity="1"/>
			<stop offset="1" stop-color="#50e6ff" stop-opacity="1"/>
		</linearGradient>
	</defs>
	<g>
		<title>Page-1</title>
		<g id="group8735-1" transform="translate(34,-34.0157)">
			<title>HDInsight Cluster.8735</title>
			<g id="group8736-2">
				<title>Icon-analytics-142</title>
				<g id="shape8737-3">
					<title>Sheet.8737</title>
					<rect x="0" y="68.0157" width="56.6929" height="56.6929" class="st1"/>
				</g>
				<g id="shape8738-5" transform="translate(1.58264,-2.23622)">
					<title>Sheet.8738</title>
					<path d="M21.47 107.54 L31.9 107.54 a0.88189 0.88189 -180 0 0 0.850394 -0.692913 A11.6535 11.6535 0 0 1 36.97
								 100.08 a0.850394 0.850394 -180 0 0 0.220472 -1.13386 L31.77 89.5 a0.850394 0.850394 -180 0 0 -1.07087
								 -0.346457 A12.189 12.189 0 0 1 26.76 89.87 A11.2126 11.2126 0 0 1 22.7 89.15 a0.88189 0.88189 -180
								 0 0 -1.07087 0.409449 L16.21 99.01 a0.88189 0.88189 -180 0 0 0.220472 1.13386 A11.6535 11.6535 0
								 0 1 20.62 106.88 a0.850394 0.850394 -180 0 0 0.850394 0.661417 ZM15.17 78.28 L8.87 78.28 a0.850394
								 0.850394 -180 0 0 -0.755906 0.440945 L0.12 92.49 a0.88189 0.88189 -180 0 0 -3.55271E-14 0.88189
								 L3.05 98.41 a0.913386 0.913386 -180 0 0 1.16535 0.377953 A11.4016 11.4016 0 0 1 9.25 97.62 A8.47244
								 8.47244 0 0 1 10.51 97.62 a0.976378 0.976378 -180 0 0 0.88189 -0.440945 L13.88 92.93 L17.63 86.44
								 a0.850394 0.850394 -180 0 0 0 -0.976378 A11.4961 11.4961 0 0 1 15.05 78.28 L15.17 78.28 ZM45.47
								 78.72 a0.850394 0.850394 -180 0 0 -0.755906 -0.440945 L38.42 78.28 A11.5591 11.5591 0 0 1 35.96
								 85.43 a0.850394 0.850394 -180 0 0 -7.10543E-15 0.976378 L39.74 92.93 L42.23 97.24 a0.88189 0.88189
								 -180 0 0 0.88189 0.440945 L44.31 97.69 A11.874 11.874 0 0 1 49.38 98.85 a0.850394 0.850394 -180
								 0 0 0.976378 -0.251969 L53.28 93.53 a0.88189 0.88189 -180 0 0 7.10543E-15 -0.88189 L45.47 78.72
								 ZM32.34 112.58 L21.03 112.58 a0.88189 0.88189 -180 0 0 -0.850394 0.566929 A11.4646 11.4646 0 0 1
								 15.8 118.79 a0.913386 0.913386 -180 0 0 -0.283465 1.19685 L18.01 124.27 a0.913386 0.913386 -180
								 0 0 0.755906 0.440945 L34.67 124.71 a0.913386 0.913386 -180 0 0 0.755906 -0.440945 L37.88 120.02
								 a0.88189 0.88189 -180 0 0 -0.283465 -1.19685 A11.5906 11.5906 0 0 1 33.19 113.15 a0.88189 0.88189
								 -180 0 0 -0.850394 -0.566929 Z" class="st2"/>
				</g>
				<g id="shape8739-7" transform="translate(5.00787,-11.874)">
					<title>Sheet.8739</title>
					<ellipse cx="5.82677" cy="118.882" rx="5.82677" ry="5.82677" class="st3"/>
				</g>
				<g id="shape8740-11" transform="translate(39.874,-11.874)">
					<title>Sheet.8740</title>
					<ellipse cx="5.82677" cy="118.882" rx="5.82677" ry="5.82677" class="st3"/>
				</g>
				<g id="shape8741-14" transform="translate(22.4567,-42.8346)">
					<title>Sheet.8741</title>
					<ellipse cx="5.82677" cy="118.882" rx="5.82677" ry="5.82677" class="st3"/>
				</g>
				<g id="shape8742-17" transform="translate(27.0236,-2.23622)">
					<title>Sheet.8742</title>
					<path d="M18.68 90.47 A18.6772 18.6772 -180 0 0 13.17 91.29 L14.11 92.93 L16.6 97.24 a0.88189 0.88189 -180 0
								 0 0.88189 0.440945 L18.68 97.69 A11.874 11.874 0 0 1 23.75 98.85 a0.850394 0.850394 -180 0 0 1.16535
								 -0.251969 L27.4 94.31 L28.06 93.15 A18.5197 18.5197 -180 0 0 18.68 90.47 ZM7.31 106.85 A11.6535
								 11.6535 0 0 1 11.53 100.08 a0.850394 0.850394 -180 0 0 0.220472 -1.13386 L8.6 93.4 A18.8976 18.8976
								 -180 0 0 0 107.54 L6.49 107.54 a0.88189 0.88189 -180 0 0 0.818898 -0.692913 ZM7.75 113.15 a0.88189
								 0.88189 -180 0 0 -0.850394 -0.566929 L0.19 112.58 A18.8976 18.8976 -180 0 0 8.06 124.71 L9.23 124.71
								 a0.913386 0.913386 -180 0 0 0.755906 -0.440945 L12.44 120.02 a0.88189 0.88189 -180 0 0 -0.283465
								 -1.19685 A11.5906 11.5906 0 0 1 7.62 113.15 L7.75 113.15 Z" class="st4"/>
				</g>
			</g>
		</g>
	</g>
</svg>
