<?xml version="1.0" encoding="UTF-8" standalone="no"?>
<!-- Generated by Microsoft Visio, SVG Export SQL Database.svg Page-1 -->

<svg
   xmlns:dc="http://purl.org/dc/elements/1.1/"
   xmlns:cc="http://creativecommons.org/ns#"
   xmlns:rdf="http://www.w3.org/1999/02/22-rdf-syntax-ns#"
   xmlns:svg="http://www.w3.org/2000/svg"
   xmlns="http://www.w3.org/2000/svg"
   xmlns:sodipodi="http://sodipodi.sourceforge.net/DTD/sodipodi-0.dtd"
   xmlns:inkscape="http://www.inkscape.org/namespaces/inkscape"
   width="42.52"
   height="56.6991"
   viewBox="0 0 42.520002 56.699101"
   xml:space="preserve"
   class="st6"
   version="1.1"
   id="svg62"
   sodipodi:docname="SQL Database.svg"
   style="font-size:12px;overflow:visible;color-interpolation-filters:sRGB;fill:none;fill-rule:evenodd;stroke-linecap:square;stroke-miterlimit:3"
   inkscape:version="0.92.5 (2060ec1f9f, 2020-04-08)"><metadata
   id="metadata66"><rdf:RDF><cc:Work
       rdf:about=""><dc:format>image/svg+xml</dc:format><dc:type
         rdf:resource="http://purl.org/dc/dcmitype/StillImage" /></cc:Work></rdf:RDF></metadata><sodipodi:namedview
   pagecolor="#ffffff"
   bordercolor="#666666"
   borderopacity="1"
   objecttolerance="10"
   gridtolerance="10"
   guidetolerance="10"
   inkscape:pageopacity="0"
   inkscape:pageshadow="2"
   inkscape:window-width="640"
   inkscape:window-height="480"
   id="namedview64"
   showgrid="false"
   inkscape:zoom="1.8924055"
   inkscape:cx="21.259998"
   inkscape:cy="28.3398"
   inkscape:window-x="0"
   inkscape:window-y="0"
   inkscape:window-maximized="0"
   inkscape:current-layer="svg62" />
	<style
   type="text/css"
   id="style2">
	<![CDATA[
		.st1 {fill:url(#grad0-6);stroke:none;stroke-linecap:butt;stroke-width:34}
		.st2 {fill:#e8e8e8;stroke:none;stroke-linecap:butt;stroke-width:34}
		.st3 {fill:#50e6ff;stroke:none;stroke-linecap:butt;stroke-width:34}
		.st4 {fill:#198ab3;stroke:none;stroke-linecap:butt;stroke-width:34}
		.st5 {fill:url(#grad3-16);stroke:none;stroke-linecap:butt;stroke-width:34}
		.st6 {fill:none;fill-rule:evenodd;font-size:12px;overflow:visible;stroke-linecap:square;stroke-miterlimit:3}
	]]>
	</style>

	<defs
   id="Patterns_And_Gradients">
		<linearGradient
   id="grad0-6"
   x1="0"
   y1="70.5925"
   x2="45.626519"
   y2="70.5925"
   gradientTransform="scale(0.93191419,1.0730602)"
   gradientUnits="userSpaceOnUse">
			<stop
   offset="0"
   stop-color="#005ba1"
   stop-opacity="1"
   id="stop4" />
			<stop
   offset="0.07"
   stop-color="#0060a9"
   stop-opacity="1"
   id="stop6" />
			<stop
   offset="0.36"
   stop-color="#0071c8"
   stop-opacity="1"
   id="stop8" />
			<stop
   offset="0.52"
   stop-color="#0078d4"
   stop-opacity="1"
   id="stop10" />
			<stop
   offset="0.64"
   stop-color="#0074cd"
   stop-opacity="1"
   id="stop12" />
			<stop
   offset="0.82"
   stop-color="#006abb"
   stop-opacity="1"
   id="stop14" />
			<stop
   offset="1"
   stop-color="#005ba1"
   stop-opacity="1"
   id="stop16" />
		</linearGradient>
		<radialGradient
   id="grad3-16"
   cx="12.187934"
   cy="162.05573"
   r="17.796458"
   gradientTransform="scale(1.3972022,0.71571603)"
   fx="12.187934"
   fy="162.05573"
   gradientUnits="userSpaceOnUse">
			<stop
   offset="0"
   stop-color="#f2f2f2"
   stop-opacity="1"
   id="stop19" />
			<stop
   offset="0.58"
   stop-color="#eeeeee"
   stop-opacity="1"
   id="stop21" />
			<stop
   offset="1"
   stop-color="#e6e6e6"
   stop-opacity="1"
   id="stop23" />
		</radialGradient>
	</defs>
	<g
   id="g60"
   transform="translate(-34,-33.9952)">
		<title
   id="title27">Page-1</title>
		<g
   id="group20331-1"
   transform="translate(34,-34.0157)">
			<title
   id="title29">SQL Database.20331</title>
			<g
   id="group20332-2">
				<title
   id="title31">Sheet.20332</title>
				<g
   id="shape20333-3">
					<title
   id="title33">Sheet.20333</title>
					<path
   d="M 21.26,83.49 C 9.52,83.49 0,80.15 0,75.75 v 41.22 c 0,4.24 9.35,7.67 20.96,7.74 h 0.3 c 11.74,0 21.26,-3.34 21.26,-7.74 V 75.75 c 0,4.3 -9.52,7.74 -21.26,7.74 z"
   class="st1"
   id="path35"
   inkscape:connector-curvature="0"
   style="fill:url(#grad0-6);stroke:none;stroke-width:34;stroke-linecap:butt" />
				</g>
				<g
   id="shape20334-7"
   transform="translate(0,-41.2191)">
					<title
   id="title38">Sheet.20334</title>
					<path
   d="m 42.52,116.97 c 0,4.3 -9.52,7.74 -21.26,7.74 C 9.52,124.71 0,121.37 0,116.97 c 0,-4.4 9.52,-7.74 21.26,-7.74 11.74,0 21.26,3.34 21.26,7.74 z"
   class="st2"
   id="path40"
   inkscape:connector-curvature="0"
   style="fill:#e8e8e8;stroke:none;stroke-width:34;stroke-linecap:butt" />
				</g>
				<g
   id="shape20335-9"
   transform="translate(4.94184,-44.654)">
					<title
   id="title43">Sheet.20335</title>
					<path
   d="m 32.64,119.77 c 0,2.74 -7.33,4.94 -16.32,4.94 -8.99,0 -16.32,-2.2 -16.32,-4.94 0,-2.73 7.33,-4.9 16.32,-4.9 8.99,0 16.32,2.2 16.32,4.9 z"
   class="st3"
   id="path45"
   inkscape:connector-curvature="0"
   style="fill:#50e6ff;stroke:none;stroke-width:34;stroke-linecap:butt" />
				</g>
				<g
   id="shape20336-11"
   transform="translate(8.358,-44.654)">
					<title
   id="title48">Sheet.20336</title>
					<path
   d="m 12.9,121.01 a 38.3075,38.5178 -180 0 0 -12.9,1.9 37.8763,38.0843 -180 0 0 12.9,1.8 36.9808,37.1839 -180 0 0 12.9,-1.94 39.2694,39.4849 -180 0 0 -12.9,-1.76 z"
   class="st4"
   id="path50"
   inkscape:connector-curvature="0"
   style="fill:#198ab3;stroke:none;stroke-width:34;stroke-linecap:butt" />
				</g>
				<g
   id="shape20337-13"
   transform="translate(5.30667,-14.4067)">
					<title
   id="title53">Sheet.20337</title>
					<path
   d="M 28.89,118.77 V 107.43 H 25.9 v 13.78 h 8.16 v -2.44 z M 5.21,113.2 a 6.0695,6.10283 0 0 1 -1.69,-1.03 1.45933,1.46735 0 0 1 -0.4,-1.07 1.12767,1.13386 0 0 1 0.5,-1 2.25533,2.26772 0 0 1 1.39,-0.4 5.373,5.4025 0 0 1 3.31,0.97 V 107.8 A 8.557,8.60398 -180 0 0 5.01,107.27 5.43934,5.4692 -180 0 0 1.39,108.4 3.582,3.60167 -180 0 0 0,111.37 c 0,1.7 1.06,3.03 3.32,4.03 a 9.552,9.60445 0 0 1 2.05,1.2 1.393,1.40065 0 0 1 0.5,1.07 1.26033,1.26725 0 0 1 -0.53,1.04 2.6865,2.70125 0 0 1 -1.49,0.36 5.50567,5.5359 0 0 1 -3.62,-1.4 v 3.1 a 7.19717,7.23668 -180 0 0 3.55,0.8 6.23534,6.26957 -180 0 0 3.91,-1.1 3.582,3.60167 -180 0 0 1.1,-3.03 3.4825,3.50162 -180 0 0 -0.83,-2.34 8.02634,8.0704 -180 0 0 -2.75,-1.9 z m 17.38,5.31 a 7.761,7.80361 -180 0 0 1.09,-4.21 7.69467,7.73692 -180 0 0 -1.09,-3.53 6.00317,6.03613 -180 0 0 -2.33,-2.5 6.63334,6.66975 -180 0 0 -3.31,-0.87 6.99817,7.03659 -180 0 0 -3.58,0.9 6.169,6.20287 -180 0 0 -2.42,2.47 8.159,8.2038 -180 0 0 -0.87,3.8 7.49567,7.53682 -180 0 0 0.8,3.34 5.83734,5.86938 -180 0 0 2.29,2.46 6.83234,6.86985 -180 0 0 3.31,1 l 2.86,3.34 h 4.01 l -4.08,-3.67 a 5.93684,5.96943 -180 0 0 3.32,-2.53 z m -3.32,-0.84 a 3.11767,3.13478 0 0 1 -2.52,1.17 3.05133,3.06809 0 0 1 -2.52,-1.2 5.04134,5.06901 0 0 1 -0.96,-3.34 5.0745,5.10236 0 0 1 0.96,-3.33 3.31667,3.33488 0 0 1 2.59,-1.23 2.8855,2.90134 0 0 1 2.48,1.23 5.373,5.4025 0 0 1 0.9,3.33 4.84234,4.86892 0 0 1 -0.93,3.37 z"
   class="st5"
   id="path55"
   inkscape:connector-curvature="0"
   style="fill:url(#grad3-16);stroke:none;stroke-width:34;stroke-linecap:butt" />
				</g>
			</g>
		</g>
	</g>
</svg>