<?xml version="1.0" encoding="UTF-8" standalone="no"?>
<!DOCTYPE svg PUBLIC "-//W3C//DTD SVG 1.1//EN" "http://www.w3.org/Graphics/SVG/1.1/DTD/svg11.dtd">
<!-- Generated by Microsoft Visio, SVG Export SQL Elastic Pool.svg Page-1 -->
<svg xmlns="http://www.w3.org/2000/svg" xmlns:xlink="http://www.w3.org/1999/xlink" xmlns:ev="http://www.w3.org/2001/xml-events"
		width="1.71033in" height="1.72131in" viewBox="0 0 123.144 123.934" xml:space="preserve" color-interpolation-filters="sRGB"
		class="st8">
	<style type="text/css">
	<![CDATA[
		.st1 {fill:url(#grad0-6);stroke:none;stroke-linecap:butt;stroke-width:34}
		.st2 {fill:#50e6ff;stroke:none;stroke-linecap:butt;stroke-width:34}
		.st3 {fill:#eaeaea}
		.st4 {stroke:none;stroke-linecap:butt;stroke-width:34}
		.st5 {fill:#50e6ff}
		.st6 {fill:#32bedd;stroke:none;stroke-linecap:butt;stroke-width:34}
		.st7 {fill:#eaeaea;stroke:none;stroke-linecap:butt;stroke-width:34}
		.st8 {fill:none;fill-rule:evenodd;font-size:12px;overflow:visible;stroke-linecap:square;stroke-miterlimit:3}
	]]>
	</style>

	<defs id="Patterns_And_Gradients">
		<linearGradient id="grad0-6" x1="0" y1="0" x2="1" y2="0" gradientTransform="rotate(-45 0.5 0.5)">
			<stop offset="0" stop-color="#005ba1" stop-opacity="1"/>
			<stop offset="0.1" stop-color="#0060a9" stop-opacity="1"/>
			<stop offset="0.52" stop-color="#0071c8" stop-opacity="1"/>
			<stop offset="0.75" stop-color="#0078d4" stop-opacity="1"/>
		</linearGradient>
	</defs>
	<g>
		<title>Page-1</title>
		<g id="group17207-1" transform="translate(33.2256,-34.0157)">
			<title>SQL Elastic Pool.17207</title>
			<g id="group17208-2">
				<title>SQL elastic pool</title>
				<g id="shape17209-3" transform="translate(-59.2883,36.2995) rotate(-45)">
					<title>Sheet.17209</title>
					<path d="M0 122.06 A1.86959 1.86959 -180 0 0 1.87 123.93 L38.22 123.93 A1.86959 1.86959 -180 0 0 40.09 122.06
								 L40.09 85.72 A1.86959 1.86959 -180 0 0 38.22 83.85 L1.87 83.85 A1.86959 1.86959 -180 0 0 -0 85.72
								 L0 122.06 Z" class="st1"/>
				</g>
				<g id="shape17210-7" transform="translate(23.113,-36.5914)">
					<title>Sheet.17210</title>
					<path d="M5.24 115.05 C2.33 115.05 0 114.31 0 113.36 L0 122.28 C0 123.17 2.3 123.93 5.15 123.93 L5.24 123.93
								 C8.12 123.93 10.48 123.2 10.48 122.28 L10.48 113.36 C10.51 114.31 8.31 115.05 5.24 115.05 Z"
							class="st2"/>
				</g>
				<g id="shape17211-9" transform="translate(23.1436,-45.4794)">
					<title>Sheet.17211</title>
					<path d="M10.48 122.25 C10.48 123.2 8.12 123.93 5.24 123.93 C2.36 123.93 0 123.2 0 122.25 C0 121.3 2.33 120.59
								 5.21 120.59 C8.09 120.59 10.45 121.33 10.45 122.25 L10.48 122.25 Z" class="st3"/>
					<path d="M10.48 122.25 C10.48 123.2 8.12 123.93 5.24 123.93 C2.36 123.93 0 123.2 0 122.25 C0 121.3 2.33 120.59
								 5.21 120.59 C8.09 120.59 10.45 121.33 10.45 122.25" class="st4"/>
				</g>
				<g id="shape17212-12" transform="translate(24.3696,-46.2149)">
					<title>Sheet.17212</title>
					<path d="M8.03 122.86 C8.03 123.44 6.22 123.93 4.01 123.93 C1.81 123.93 0 123.41 0 122.86 C0 122.31 1.78 121.79
								 3.98 121.79 C6.19 121.79 8 122.28 8 122.86 L8.03 122.86 Z" class="st5"/>
					<path d="M8.03 122.86 C8.03 123.44 6.22 123.93 4.01 123.93 C1.81 123.93 0 123.41 0 122.86 C0 122.31 1.78 121.79
								 3.98 121.79 C6.19 121.79 8 122.28 8 122.86" class="st4"/>
				</g>
				<g id="shape17213-15" transform="translate(25.289,-46.3069)">
					<title>Sheet.17213</title>
					<path d="M3.06 123.2 A10.9414 10.9414 -180 0 0 -0 123.51 A10.7882 10.7882 -180 0 0 3.06 123.93 A10.7882 10.7882
								 -180 0 0 6.13 123.51 A11.0947 11.0947 -180 0 0 3.06 123.2 Z" class="st6"/>
				</g>
				<g id="shape17214-17" transform="translate(23.113,-7.75134)">
					<title>Sheet.17214</title>
					<path d="M5.24 115.05 C2.33 115.05 0 114.31 0 113.36 L0 122.28 C0 123.17 2.3 123.93 5.15 123.93 L5.24 123.93
								 C8.12 123.93 10.48 123.2 10.48 122.28 L10.48 113.36 C10.51 114.31 8.31 115.05 5.24 115.05 Z"
							class="st2"/>
				</g>
				<g id="shape17215-19" transform="translate(23.1436,-16.6393)">
					<title>Sheet.17215</title>
					<path d="M10.48 122.25 C10.48 123.2 8.12 123.93 5.24 123.93 C2.36 123.93 0 123.2 0 122.25 C0 121.3 2.33 120.59
								 5.24 120.59 C8.15 120.59 10.48 121.33 10.48 122.25 Z" class="st7"/>
				</g>
				<g id="shape17216-21" transform="translate(24.3696,-17.3749)">
					<title>Sheet.17216</title>
					<path d="M8.03 122.86 C8.03 123.44 6.22 123.93 4.01 123.93 C1.81 123.93 0 123.44 0 122.86 C0 122.28 1.78 121.79
								 4.01 121.79 C6.25 121.79 8.03 122.28 8.03 122.86 Z" class="st2"/>
				</g>
				<g id="shape17217-23" transform="translate(25.289,-17.3749)">
					<title>Sheet.17217</title>
					<path d="M3.06 123.11 A10.9414 10.9414 -180 0 0 0 123.51 A10.7882 10.7882 -180 0 0 3.06 123.93 A10.7882 10.7882
								 -180 0 0 6.13 123.51 A11.0947 11.0947 -180 0 0 3.06 123.11 Z" class="st6"/>
				</g>
				<g id="shape17218-25" transform="translate(36.0466,-22.2173)">
					<title>Sheet.17218</title>
					<path d="M5.24 115.02 C2.18 115.02 0 114.28 0 113.36 L0 122.25 C0 123.17 2.3 123.9 5.18 123.93 C8.06 123.93 10.42
								 123.17 10.42 122.25 L10.42 113.36 C10.48 114.28 8.12 115.02 5.24 115.02 Z" class="st2"/>
				</g>
				<g id="shape17219-27" transform="translate(36.0466,-31.136)">
					<title>Sheet.17219</title>
					<path d="M10.48 122.28 C10.48 123.2 8.12 123.93 5.24 123.93 C2.36 123.93 0 123.2 0 122.28 C0 121.36 2.33 120.59
								 5.24 120.59 C8.15 120.59 10.48 121.36 10.48 122.28 Z" class="st7"/>
				</g>
				<g id="shape17220-29" transform="translate(37.2725,-31.8715)">
					<title>Sheet.17220</title>
					<path d="M8.03 122.86 C8.03 123.47 6.22 123.93 4.01 123.93 C1.81 123.93 0 123.47 0 122.86 C0 122.25 1.78 121.82
								 4.01 121.82 C6.25 121.82 8.03 122.28 8.03 122.86 Z" class="st2"/>
				</g>
				<g id="shape17221-31" transform="translate(38.2226,-31.8715)">
					<title>Sheet.17221</title>
					<path d="M3.06 123.11 A10.7882 10.7882 -180 0 0 0 123.54 A10.9414 10.9414 -180 0 0 3.06 123.93 A10.9414 10.9414
								 -180 0 0 6.13 123.54 A10.9414 10.9414 -180 0 0 3.06 123.11 Z" class="st6"/>
				</g>
				<g id="shape17222-33" transform="translate(10.6085,-22.2173)">
					<title>Sheet.17222</title>
					<path d="M5.24 115.02 C2.33 115.02 0 114.28 0 113.36 L0 122.25 C0 123.17 2.3 123.9 5.15 123.93 C8.03 123.93 10.39
								 123.17 10.39 122.25 L10.39 113.36 C10.48 114.28 8.12 115.02 5.24 115.02 Z" class="st2"/>
				</g>
				<g id="shape17223-35" transform="translate(10.6085,-31.136)">
					<title>Sheet.17223</title>
					<path d="M10.48 122.28 C10.48 123.2 8.12 123.93 5.24 123.93 C2.36 123.93 0 123.2 0 122.28 C0 121.36 2.42 120.59
								 5.24 120.59 C8.06 120.59 10.48 121.36 10.48 122.28 Z" class="st7"/>
				</g>
				<g id="shape17224-37" transform="translate(11.8344,-31.8715)">
					<title>Sheet.17224</title>
					<path d="M8.03 122.86 C8.03 123.47 6.22 123.93 4.01 123.93 C1.81 123.93 0 123.47 0 122.86 C0 122.25 1.78 121.82
								 4.01 121.82 C6.25 121.82 8.03 122.28 8.03 122.86 Z" class="st2"/>
				</g>
				<g id="shape17225-39" transform="translate(12.7845,-31.8715)">
					<title>Sheet.17225</title>
					<path d="M3.06 123.11 A10.7882 10.7882 -180 0 0 0 123.54 A10.9414 10.9414 -180 0 0 3.06 123.93 A10.9414 10.9414
								 -180 0 0 6.13 123.54 A10.9414 10.9414 -180 0 0 3.06 123.11 Z" class="st6"/>
				</g>
			</g>
		</g>
	</g>
</svg>
