<?xml version="1.0" encoding="UTF-8" standalone="no"?>
<!-- Generated by Microsoft Visio, SVG Export SQL Database Azure Data Studio.svg Page-1 -->

<svg
   xmlns:dc="http://purl.org/dc/elements/1.1/"
   xmlns:cc="http://creativecommons.org/ns#"
   xmlns:rdf="http://www.w3.org/1999/02/22-rdf-syntax-ns#"
   xmlns:svg="http://www.w3.org/2000/svg"
   xmlns="http://www.w3.org/2000/svg"
   xmlns:sodipodi="http://sodipodi.sourceforge.net/DTD/sodipodi-0.dtd"
   xmlns:inkscape="http://www.inkscape.org/namespaces/inkscape"
   width="0.70829129in"
   height="0.78917313in"
   viewBox="0 0 50.996916 56.820606"
   xml:space="preserve"
   class="st8"
   version="1.1"
   id="svg59"
   sodipodi:docname="SQL Database Azure Data Studio.svg"
   style="font-size:12px;overflow:visible;color-interpolation-filters:sRGB;fill:none;fill-rule:evenodd;stroke-linecap:square;stroke-miterlimit:3"
   inkscape:version="0.92.5 (2060ec1f9f, 2020-04-08)"><metadata
   id="metadata65"><rdf:RDF><cc:Work
       rdf:about=""><dc:format>image/svg+xml</dc:format><dc:type
         rdf:resource="http://purl.org/dc/dcmitype/StillImage" /></cc:Work></rdf:RDF></metadata><defs
   id="defs63" /><sodipodi:namedview
   pagecolor="#ffffff"
   bordercolor="#666666"
   borderopacity="1"
   objecttolerance="10"
   gridtolerance="10"
   guidetolerance="10"
   inkscape:pageopacity="0"
   inkscape:pageshadow="2"
   inkscape:window-width="640"
   inkscape:window-height="480"
   id="namedview61"
   showgrid="false"
   inkscape:zoom="1.8365233"
   inkscape:cx="34.015635"
   inkscape:cy="18.900351"
   inkscape:window-x="0"
   inkscape:window-y="0"
   inkscape:window-maximized="0"
   inkscape:current-layer="svg59" />
	<style
   type="text/css"
   id="style2">
	<![CDATA[
		.st1 {fill:#6bbcda;stroke:none;stroke-linecap:butt;stroke-width:1.33917}
		.st2 {fill:#8acae1;stroke:none;stroke-linecap:butt;stroke-width:1.33917}
		.st3 {fill:#50a7e1;stroke:none;stroke-linecap:butt;stroke-width:1.33917}
		.st4 {fill:#c0d557;stroke:none;stroke-linecap:butt;stroke-width:1.33917}
		.st5 {fill:#1e80c6;stroke:none;stroke-linecap:butt;stroke-width:1.33917}
		.st6 {fill:#ffffff;stroke:none;stroke-linecap:butt;stroke-width:1.33917}
		.st7 {fill:#0e4da7;stroke:none;stroke-linecap:butt;stroke-width:1.33917}
		.st8 {fill:none;fill-rule:evenodd;font-size:12px;overflow:visible;stroke-linecap:square;stroke-miterlimit:3}
	]]>
	</style>

	<g
   id="g57"
   transform="translate(-5.1024712,-5.5436903)">
		<title
   id="title4">Page-1</title>
		<g
   id="group21652-1"
   transform="translate(5.10236,-34.0157)">
			<title
   id="title6">SQL Database Azure Data Studio.21652</title>
			<g
   id="group21653-2">
				<title
   id="title8">Sheet.21653</title>
				<g
   id="shape21654-3"
   transform="translate(13.71,-33.2007)">
					<title
   id="title10">Sheet.21654</title>
					<path
   d="M 30.54,82.41 H 30.35 A 10.3802,10.5574 -180 0 0 11.22,77.7 9.76345,9.93009 -180 0 0 9.29,77.49 a 9.2864973,9.445 -180 1 0 0,18.89 h 21.25 a 6.86392,6.98107 -180 0 0 0,-13.96 z"
   class="st1"
   id="path12"
   inkscape:connector-curvature="0"
   style="fill:#6bbcda;stroke:none;stroke-width:1.33916998;stroke-linecap:butt" />
				</g>
				<g
   id="shape21655-5"
   transform="translate(13.9621,-34.1178)">
					<title
   id="title15">Sheet.21655</title>
					<path
   d="M 13.81,81.31 A 10.3691,10.546 0 0 1 15.94,81.55 10.2551,10.4301 0 0 1 26.45,76.16 10.3825,10.5597 -180 0 0 10.97,78.62 9.76345,9.93009 -180 0 0 9.04,78.41 9.28522,9.4437 -180 0 0 5.07,96.38 9.88413,10.0528 0 0 1 3.85,91.5 9.99251,10.1631 0 0 1 13.81,81.31 Z"
   class="st2"
   id="path17"
   inkscape:connector-curvature="0"
   style="fill:#8acae1;stroke:none;stroke-width:1.33916998;stroke-linecap:butt" />
				</g>
				<g
   id="shape21656-7"
   transform="translate(0,-0.0170464)">
					<title
   id="title20">Sheet.21656</title>
					<path
   d="m 0,60.03 v 27.84 c 0,4.69 7.24,8.49 16.19,8.51 V 66.4 Z"
   class="st3"
   id="path22"
   inkscape:connector-curvature="0"
   style="fill:#50a7e1;stroke:none;stroke-width:1.33916998;stroke-linecap:butt" />
				</g>
				<g
   id="shape21657-9"
   transform="translate(0,-27.6027)">
					<title
   id="title25">Sheet.21657</title>
					<path
   d="m 11.5,81.33 a 10.9456,11.1324 0 0 1 0.06,-1.18 C 4.88,81.16 0,84.33 0,88.08 c 0,4.59 7.24,8.3 16.19,8.3 V 90.82 A 11.6227,11.8211 0 0 1 11.5,81.34 Z"
   class="st4"
   id="path27"
   inkscape:connector-curvature="0"
   style="fill:#c0d557;stroke:none;stroke-width:1.33916998;stroke-linecap:butt" />
				</g>
				<g
   id="shape21658-11"
   transform="translate(16.186,-27.6197)">
					<title
   id="title30">Sheet.21658</title>
					<path
   d="M 12.95,93.11 H 6.81 A 11.3602,11.554 0 0 1 0,90.81 v 5.57 h 0.02 a 23.9986,24.4082 -180 0 0 12.93,-3.27 z"
   class="st4"
   id="path32"
   inkscape:connector-curvature="0"
   style="fill:#c0d557;stroke:none;stroke-width:1.33916998;stroke-linecap:butt" />
				</g>
				<g
   id="shape21659-13"
   transform="translate(16.1871,-0.0818227)">
					<title
   id="title35">Sheet.21659</title>
					<path
   d="m 11.97,81.89 0.09,-0.2 0.77,-1.88 0.09,-0.2 0.8,-1.95 1.9,0.82 0.19,0.09 0.42,0.17 V 65.61 H 12.95 A 24.2421,24.6559 0 0 1 0.02,68.9 H 0 v 13.35 h 11.83 z m 0.84,9.88 -0.78,-1.91 -0.08,-0.19 -0.79,-1.97 1.93,-0.81 0.19,-0.08 0.79,-0.34 c -0.03,-0.23 -0.03,-0.45 -0.03,-0.68 0,-0.23 0,-0.49 0.03,-0.74 L 13.28,84.71 13.13,84.64 H 0 v 11.74 h 0.02 a 23.346,23.7445 -180 0 0 13.2,-3.57 l -0.35,-0.89 z"
   class="st5"
   id="path37"
   inkscape:connector-curvature="0"
   style="fill:#1e80c6;stroke:none;stroke-width:1.33916998;stroke-linecap:butt" />
				</g>
				<g
   id="shape21660-15"
   transform="translate(0,-3.1729)">
					<title
   id="title40">Sheet.21660</title>
					<path
   d="m 29.28,87.76 -1.9,-0.83 0.66,-1.63 H 14.78 L 12.91,89.94 7.26,74.03 3.13,85.49 H 0 v 2.01 h 4.75 l 2.62,-7.4 5.71,16.28 3,-8.59 h 13.24 z"
   class="st6"
   id="path42"
   inkscape:connector-curvature="0"
   style="fill:#ffffff;stroke:none;stroke-width:1.33916998;stroke-linecap:butt" />
				</g>
				<g
   id="shape21661-17"
   transform="translate(30.0971)">
					<title
   id="title45">Sheet.21661</title>
					<path
   d="m 18.4,87.81 a 8.12876,8.2675 -180 0 0 0.25,-2.06 8.91985,9.07209 -180 0 0 -0.22,-2.02 l 2.28,-0.95 0.19,-0.09 -0.09,-0.19 -0.77,-1.91 -0.09,-0.19 -0.18,0.09 -2.29,0.95 a 8.30083,8.44251 -180 0 0 -2.8,-2.88 l 0.96,-2.34 0.08,-0.19 -0.19,-0.08 -1.84,-0.79 -0.19,-0.09 -0.07,0.2 -0.96,2.33 A 8.04831,8.18568 -180 0 0 10.46,77.35 8.82152,8.97208 -180 0 0 8.48,77.58 L 7.56,75.24 7.47,75.06 7.28,75.14 5.41,75.93 5.23,76.01 5.31,76.2 6.24,78.54 A 8.2986,8.44024 -180 0 0 3.41,81.4 L 2.33,80.93 1.13,80.42 0.94,80.34 0.86,80.53 0.08,82.42 0,82.61 l 0.19,0.08 2.28,0.98 a 7.34326,7.46859 -180 0 0 -0.15,0.68 c -0.04,0.23 -0.06,0.51 -0.08,0.76 v 0.02 a 5.27168,5.36166 -180 0 0 -0.02,0.57 2.73976,2.78652 -180 0 0 0.02,0.43 0.563147,0.572759 -180 0 0 0.022347,0.192056 C 2.26,86.38 2.28,86.45 2.28,86.53 a 4.83815,4.92072 -180 0 0 0.13,0.81 1.80341,1.83419 -180 0 0 0.08,0.36 l -0.12,0.04 -2.17,0.91 -0.19,0.09 0.09,0.19 0.77,1.91 0.08,0.19 0.19,-0.09 2.28,-0.95 a 8.3053,8.44705 -180 0 0 2.8,2.89 l -0.95,2.33 -0.08,0.19 0.18,0.09 1.85,0.78 0.19,0.09 0.08,-0.19 0.95,-2.34 a 8.13658,8.27545 -180 0 0 2.02,0.26 8.82152,8.97208 -180 0 0 1.97,-0.24 l 0.93,2.34 0.08,0.19 0.19,-0.09 1.86,-0.78 0.19,-0.09 -0.08,-0.19 -0.93,-2.33 a 8.2986,8.44024 -180 0 0 2.82,-2.87 l 2.29,0.98 0.18,0.08 0.09,-0.19 0.77,-1.89 0.08,-0.19 -0.18,-0.08 z m -7.97,3.77 A 5.76109,5.85941 0 0 1 5.91,82.14 l 0.02,-0.02 a 5.73762,5.83555 0 1 1 4.5,9.47 z"
   class="st7"
   id="path47"
   inkscape:connector-curvature="0"
   style="fill:#0e4da7;stroke:none;stroke-width:1.33916998;stroke-linecap:butt" />
				</g>
				<g
   id="shape21662-19"
   transform="translate(35.9878,-14.2121)">
					<title
   id="title50">Sheet.21662</title>
					<path
   d="M 0.06,96.33 H 0.04 l -0.02,0.03 c 0,0 0,0.02 -0.02,0.02 z"
   class="st6"
   id="path52"
   inkscape:connector-curvature="0"
   style="fill:#ffffff;stroke:none;stroke-width:1.33916998;stroke-linecap:butt" />
				</g>
			</g>
		</g>
	</g>
</svg>