<?xml version="1.0" encoding="UTF-8" standalone="no"?>
<!DOCTYPE svg PUBLIC "-//W3C//DTD SVG 1.1//EN" "http://www.w3.org/Graphics/SVG/1.1/DTD/svg11.dtd">
<!-- Generated by Microsoft Visio, SVG Export Cloud App Security.svg Page-1 -->
<svg xmlns="http://www.w3.org/2000/svg" xmlns:xlink="http://www.w3.org/1999/xlink" xmlns:ev="http://www.w3.org/2001/xml-events"
		width="1.07703in" height="1.13386in" viewBox="0 0 77.5462 81.6378" xml:space="preserve" color-interpolation-filters="sRGB"
		class="st7">
	<style type="text/css">
	<![CDATA[
		.st1 {fill:none;stroke:#fea11b;stroke-linecap:butt;stroke-width:2.68275}
		.st2 {fill:url(#grad0-8);stroke:none;stroke-linecap:butt;stroke-width:1.12564}
		.st3 {fill:#000000;stroke:#000000;stroke-linecap:butt;stroke-width:3.22922}
		.st4 {fill:#000000;stroke:#000000;stroke-linecap:butt;stroke-width:2.75991}
		.st5 {visibility:visible}
		.st6 {fill:#000000;font-family:Calibri;font-size:0.666664em}
		.st7 {fill:none;fill-rule:evenodd;font-size:12px;overflow:visible;stroke-linecap:square;stroke-miterlimit:3}
	]]>
	</style>

	<defs id="Patterns_And_Gradients">
		<linearGradient id="grad0-8" x1="0" y1="0" x2="1" y2="0" gradientTransform="rotate(-90.032128289245 0.5 0.5)">
			<stop offset="0" stop-color="#0078d4" stop-opacity="1"/>
			<stop offset="0.065" stop-color="#0a7cd7" stop-opacity="1"/>
			<stop offset="0.34" stop-color="#2e8ce1" stop-opacity="1"/>
			<stop offset="0.595" stop-color="#4897e9" stop-opacity="1"/>
			<stop offset="0.82" stop-color="#589eed" stop-opacity="1"/>
			<stop offset="1" stop-color="#5ea0ef" stop-opacity="1"/>
		</linearGradient>
	</defs>
	<g>
		<title>Page-1</title>
		<g id="group8885-1" transform="translate(9.00935,-31.748)">
			<title>Cloud App Security.8885</title>
			<desc>Cloud App Security</desc>
			<g id="group8886-2">
				<title>g8</title>
				<g id="shape8887-3" transform="translate(18.3199,-22.533)">
					<title>path53</title>
					<ellipse cx="10.6327" cy="70.2271" rx="10.6327" ry="11.4107" class="st1"/>
				</g>
				<g id="shape8888-5">
					<title>path6-9</title>
					<path d="M49.91 59.58 C49.95 59.08 49.98 58.58 49.98 58.08 C49.98 50.15 43.38 43.71 35.28 43.71 C30.47 43.71
								 26.06 45.99 23.34 49.69 A11.1539 11.0272 -180 0 0 17.46 48.05 C11.34 48.05 6.35 52.94 6.35 58.94
								 L6.37 59.81 C2.23 61.88 0 65.31 0 69.61 C0 76.36 5.57 81.64 12.67 81.64 L44.02 81.64 C51.13 81.64
								 56.69 76.36 56.69 69.61 C56.69 65.15 54.25 61.58 49.91 59.58 Z" class="st2"/>
				</g>
				<g id="shape8889-9" transform="translate(26.2961,-18.0594)">
					<title>path875</title>
					<ellipse cx="2.50496" cy="79.1613" rx="2.50496" ry="2.47648" class="st3"/>
				</g>
				<g id="shape8890-11" transform="translate(26.6903,-1.67639)">
					<title>rect893</title>
					<rect x="0" y="70.4234" width="4.29724" height="11.2144" class="st4"/>
				</g>
			</g>
			<g id="shape8885-13">
				<g id="shadow8885-14" transform="matrix(1,0,0,1,1.41732,1.41732)" class="st5"/>
				<text x="-2.43" y="95.64" class="st6">Cloud App Security</text>			</g>
		</g>
	</g>
</svg>
