<?xml version="1.0" encoding="UTF-8" standalone="no"?>
<!DOCTYPE svg PUBLIC "-//W3C//DTD SVG 1.1//EN" "http://www.w3.org/Graphics/SVG/1.1/DTD/svg11.dtd">
<!-- Generated by Microsoft Visio, SVG Export Firewall.svg Page-1 -->
<svg xmlns="http://www.w3.org/2000/svg" xmlns:xlink="http://www.w3.org/1999/xlink" xmlns:ev="http://www.w3.org/2001/xml-events"
		width="1.73185in" height="1.61384in" viewBox="0 0 124.693 116.196" xml:space="preserve" color-interpolation-filters="sRGB"
		class="st7">
	<style type="text/css">
	<![CDATA[
		.st1 {fill:url(#grad0-6);stroke:none;stroke-linecap:butt;stroke-width:34}
		.st2 {fill:#821010;stroke:none;stroke-linecap:butt;stroke-width:34}
		.st3 {fill:#e62323;stroke:none;stroke-linecap:butt;stroke-width:34}
		.st4 {fill:#ff7381;stroke:none;stroke-linecap:butt;stroke-width:34}
		.st5 {visibility:visible}
		.st6 {fill:#000000;font-family:Calibri;font-size:0.666664em}
		.st7 {fill:none;fill-rule:evenodd;font-size:12px;overflow:visible;stroke-linecap:square;stroke-miterlimit:3}
	]]>
	</style>

	<defs id="Patterns_And_Gradients">
		<linearGradient id="grad0-6" x1="0" y1="0" x2="1" y2="0" gradientTransform="rotate(-90 0.5 0.5)">
			<stop offset="0" stop-color="#0078d4" stop-opacity="1"/>
			<stop offset="0.82" stop-color="#5ea0ef" stop-opacity="1"/>
		</linearGradient>
	</defs>
	<g>
		<title>Page-1</title>
		<g id="group8842-1" transform="translate(34,-34)">
			<title>Firewall.8842</title>
			<desc>Firewall</desc>
			<g id="group8843-2">
				<title>Icon-networking-84</title>
				<g id="shape8844-3" transform="translate(0,-7.77562)">
					<title>Sheet.8844</title>
					<path d="M56.69 103.52 A12.7874 12.8546 -180 0 0 45.64 91.2 A16.063 16.1474 -180 0 0 29.1 75.78 A16.4724 16.559
								 -180 0 0 13.35 86.58 A15.1811 15.2609 -180 0 0 0 101.27 A15.4331 15.5142 -180 0 0 15.97 116.18 L43.21
								 116.18 A4.59843 4.6226 -180 0 0 43.91 116.18 A12.9134 12.9813 -180 0 0 56.69 103.52 Z" class="st1"/>
				</g>
				<g id="shape8845-7" transform="translate(11.685,0)">
					<title>Sheet.8845</title>
					<path d="M33.32 99.07 A1.32283 1.32979 -180 0 0 32 97.77 L1.32 97.77 A1.32283 1.32979 -180 0 0 -0 99.07 L0 114.9
								 A1.32283 1.32979 -180 0 0 1.32 116.2 L32 116.2 A1.32283 1.32979 -180 0 0 33.32 114.9 L33.32 99.07
								 Z" class="st2"/>
				</g>
				<g id="shape8846-9" transform="translate(13.5433,-12.5697)">
					<title>Sheet.8846</title>
					<rect x="0" y="112.175" width="9.03937" height="4.02102" class="st3"/>
				</g>
				<g id="shape8847-11" transform="translate(23.937,-12.5697)">
					<title>Sheet.8847</title>
					<rect x="0" y="112.175" width="9.03937" height="4.02102" class="st4"/>
				</g>
				<g id="shape8848-13" transform="translate(13.5433,-7.18719)">
					<title>Sheet.8848</title>
					<path d="M20.79 106.79 L29.83 106.79 L29.83 110.81 L20.79 110.81 L20.79 106.79 ZM0 112.18 L3.75 112.18 L3.75
								 116.2 L0 116.2 L0 112.18 Z" class="st3"/>
				</g>
				<g id="shape8849-15" transform="translate(18.6457,-7.18719)">
					<title>Sheet.8849</title>
					<path d="M20.98 112.18 L24.72 112.18 L24.72 116.2 L20.98 116.2 L20.98 112.18 ZM0 112.18 L9.04 112.18 L9.04 116.2
								 L0 116.2 L0 112.18 Z" class="st4"/>
				</g>
				<g id="shape8850-17" transform="translate(13.5433,-1.80471)">
					<title>Sheet.8850</title>
					<path d="M15.53 106.79 L24.57 106.79 L24.57 110.81 L15.53 110.81 L15.53 106.79 ZM0 112.18 L9.04 112.18 L9.04
								 116.2 L0 116.2 L0 112.18 Z" class="st3"/>
				</g>
				<g id="shape8851-19" transform="translate(23.937,-1.80471)">
					<title>Sheet.8851</title>
					<rect x="0" y="112.175" width="9.03937" height="4.02102" class="st4"/>
				</g>
				<g id="shape8852-21" transform="translate(34.3307,-1.80471)">
					<title>Sheet.8852</title>
					<rect x="0" y="112.175" width="9.03937" height="4.02102" class="st3"/>
				</g>
			</g>
			<g id="shape8842-23">
				<g id="shadow8842-24" transform="matrix(1,0,0,1,1.41732,1.41732)" class="st5"/>
				<text x="15.59" y="130.62" class="st6">Firewall</text>			</g>
		</g>
	</g>
</svg>
