<?xml version="1.0" encoding="UTF-8" standalone="no"?>
<!DOCTYPE svg PUBLIC "-//W3C//DTD SVG 1.1//EN" "http://www.w3.org/Graphics/SVG/1.1/DTD/svg11.dtd">
<!-- Generated by Microsoft Visio, SVG Export Blockchain Connection.svg Page-1 -->
<svg xmlns="http://www.w3.org/2000/svg" xmlns:xlink="http://www.w3.org/1999/xlink" xmlns:ev="http://www.w3.org/2001/xml-events"
		width="1.66763in" height="1.62121in" viewBox="0 0 120.069 116.727" xml:space="preserve" color-interpolation-filters="sRGB"
		class="st5">
	<style type="text/css">
	<![CDATA[
		.st1 {fill:#773adc;stroke:none;stroke-linecap:butt;stroke-width:31.6881}
		.st2 {fill:#b796f9;stroke:none;stroke-linecap:butt;stroke-width:31.6881}
		.st3 {fill:#a67af4;stroke:none;stroke-linecap:butt;stroke-width:31.6881}
		.st4 {fill:#32bedd;stroke:none;stroke-linecap:butt;stroke-width:31.6881}
		.st5 {fill:none;fill-rule:evenodd;font-size:12px;overflow:visible;stroke-linecap:square;stroke-miterlimit:3}
	]]>
	</style>

	<g>
		<title>Page-1</title>
		<g id="group8847-1" transform="translate(31.6881,-34.0157)">
			<title>Blockchain Connection.8847</title>
			<g id="group8848-2">
				<title>layer1</title>
				<g id="shape8849-3" transform="translate(28.4156,-9.92362)">
					<title>polygon4</title>
					<path d="M17.73 85.93 L17.73 106.45 L0 116.73 L0 96.21 L17.73 85.93 Z" class="st1"/>
				</g>
				<g id="shape8850-5" transform="translate(10.6876,-30.4112)">
					<title>polygon6</title>
					<path d="M35.46 106.42 L17.73 116.73 L0 106.42 L17.73 96.11 L35.46 106.42 Z" class="st2"/>
				</g>
				<g id="shape8851-7" transform="translate(10.6876,-9.92362)">
					<title>polygon8</title>
					<path d="M17.73 96.24 L17.73 116.73 L0 106.45 L0 85.93 L17.73 96.24 Z" class="st3"/>
				</g>
				<g id="shape8852-9" transform="translate(14.8367,-19.1681)">
					<title>path10</title>
					<path d="M4.21 105.77 C1.89 104.45 0 105.52 0 108.17 A9.20977 9.15068 -180 0 0 4.21 115.38 C6.51 116.73 8.42
								 115.67 8.42 113.01 A9.4298 9.3693 -180 0 0 4.21 105.77 Z" class="st1"/>
				</g>
				<g id="shape8853-11">
					<title>path12</title>
					<path d="M56.58 107.93 L48.44 99.81 a0.440058 0.437234 -180 0 0 -0.660539 2.27374E-13 L47.78 106.05 L10.56 106.05
								 A6.28654 6.2462 0 1 1 10.56 93.56 L18.07 93.56 A2.13742 2.12371 -180 0 0 20.18 91.44 A2.10599 2.09248
								 -180 0 0 18.07 89.35 L10.56 89.35 A10.5614 10.4936 -180 0 0 10.56 110.33 L47.65 110.33 L47.65 116.58
								 a0.440058 0.437234 -180 0 0 0.660528 -9.9476E-14 L56.58 108.49 a0.408625 0.406003 -180 0 0 1.13687E-13
								 -0.561867 L56.58 107.93 Z" class="st4"/>
				</g>
			</g>
		</g>
	</g>
</svg>
