<?xml version="1.0" encoding="UTF-8" standalone="no"?>
<!DOCTYPE svg PUBLIC "-//W3C//DTD SVG 1.1//EN" "http://www.w3.org/Graphics/SVG/1.1/DTD/svg11.dtd">
<!-- Generated by Microsoft Visio, SVG Export Capacity Reservation Group.svg Page-1 -->
<svg xmlns="http://www.w3.org/2000/svg" xmlns:xlink="http://www.w3.org/1999/xlink" xmlns:ev="http://www.w3.org/2001/xml-events"
		width="1.61374in" height="1.73206in" viewBox="0 0 116.189 124.709" xml:space="preserve" color-interpolation-filters="sRGB"
		class="st6">
	<style type="text/css">
	<![CDATA[
		.st1 {fill:#a33a85;stroke:none;stroke-linecap:butt;stroke-width:34}
		.st2 {fill:#59285f;stroke:none;stroke-linecap:butt;stroke-width:34}
		.st3 {fill:#a33a85;fill-opacity:0.6;stroke:none;stroke-linecap:butt;stroke-width:34}
		.st4 {fill:#dc92bf;fill-opacity:0.6;stroke:none;stroke-linecap:butt;stroke-width:34}
		.st5 {fill:#ce74b6;fill-opacity:0.6;stroke:none;stroke-linecap:butt;stroke-width:34}
		.st6 {fill:none;fill-rule:evenodd;font-size:12px;overflow:visible;stroke-linecap:square;stroke-miterlimit:3}
	]]>
	</style>

	<g>
		<title>Page-1</title>
		<g id="group8780-1" transform="translate(34,-34.0157)">
			<title>Capacity Reservation Group.8780</title>
			<g id="group8781-2">
				<title>Sheet.8781</title>
				<g id="shape8782-3" transform="translate(4.09808,-13.9264)">
					<title>Sheet.8782</title>
					<path d="M39.99 112.8 L34.67 115.98 L29.33 119.13 L19.98 124.71 L10.66 119.13 L5.34 115.98 L0 112.8 L4.19 110.32
								 L19.98 119.7 L35.79 110.32 L39.99 112.8 Z" class="st1"/>
				</g>
				<g id="shape8783-5" transform="translate(4.09808,-8.50952)">
					<title>Sheet.8783</title>
					<path d="M39.99 107.39 L39.99 112.8 L19.98 124.71 L0 112.8 L0 107.39 L5.34 110.57 L10.66 113.72 L19.98 119.29
								 L29.33 113.72 L34.67 110.57 L39.99 107.39 Z" class="st2"/>
				</g>
				<g id="shape8784-7" transform="translate(4.09808,-24.3822)">
					<title>Sheet.8784</title>
					<path d="M39.99 112.84 L34.67 115.98 L31.22 118.03 L29.33 119.17 L19.98 124.71 L10.66 119.17 L8.76 118.03 L5.34
								 115.98 L0 112.84 L19.98 100.9 L39.99 112.84 Z" class="st1"/>
				</g>
				<g id="shape8785-9" transform="translate(4.09808,-18.9338)">
					<title>Sheet.8785</title>
					<path d="M39.99 107.39 L39.99 112.8 L35.79 115.32 L19.98 124.71 L4.19 115.32 L0 112.8 L0 107.39 L5.34 110.54
								 L8.76 112.58 L10.66 113.72 L19.98 119.26 L29.33 113.72 L31.22 112.58 L34.67 110.54 L39.99 107.39
								 Z" class="st2"/>
				</g>
				<g id="shape8786-11" transform="translate(24.0945,-2.84217E-13)">
					<title>Sheet.8786</title>
					<path d="M24.09 83.12 L24.09 109.62 A1.75543 1.77938 0 0 1 23.22 111.17 L0.89 124.46 A1.75854 1.78253 0 0 1 -0
								 124.71 L0 96.43 L23.86 82.23 A1.76786 1.79197 0 0 1 24.09 83.12 Z" class="st3"/>
				</g>
				<g id="shape8787-13" transform="translate(0.233022,-28.2748)">
					<title>Sheet.8787</title>
					<path d="M47.72 110.51 L23.86 124.67 L23.86 124.71 L0 110.5 A1.71194 1.73529 0 0 1 0.64 109.84 L22.99 96.53 A1.76786
								 1.79197 0 0 1 24.76 96.53 L47.09 109.84 A1.76165 1.78568 0 0 1 47.72 110.51 Z" class="st4"/>
				</g>
				<g id="shape8788-15">
					<title>Sheet.8788</title>
					<path d="M24.09 96.43 L24.09 124.71 A1.69951 1.72269 0 0 1 23.21 124.47 L0.87 111.17 A1.75543 1.77938 0 0 1 0
								 109.62 L0 83.11 A1.75233 1.77623 0 0 1 0.23 82.23 L24.09 96.43 Z" class="st5"/>
				</g>
			</g>
		</g>
	</g>
</svg>
