<?xml version="1.0" encoding="UTF-8" standalone="no"?>
<!-- Generated by Microsoft Visio, SVG Export Azure Percept Speech.svg Page-1 -->

<svg
   xmlns:dc="http://purl.org/dc/elements/1.1/"
   xmlns:cc="http://creativecommons.org/ns#"
   xmlns:rdf="http://www.w3.org/1999/02/22-rdf-syntax-ns#"
   xmlns:svg="http://www.w3.org/2000/svg"
   xmlns="http://www.w3.org/2000/svg"
   xmlns:sodipodi="http://sodipodi.sourceforge.net/DTD/sodipodi-0.dtd"
   xmlns:inkscape="http://www.inkscape.org/namespaces/inkscape"
   width="0.78739995in"
   height="0.6309793in"
   viewBox="0 0 56.692794 45.430674"
   xml:space="preserve"
   class="st7"
   version="1.1"
   id="svg68"
   sodipodi:docname="Azure Percept Speech.svg"
   style="font-size:12px;overflow:visible;color-interpolation-filters:sRGB;fill:none;fill-rule:evenodd;stroke-linecap:square;stroke-miterlimit:3"
   inkscape:version="0.92.5 (2060ec1f9f, 2020-04-08)"><metadata
   id="metadata72"><rdf:RDF><cc:Work
       rdf:about=""><dc:format>image/svg+xml</dc:format><dc:type
         rdf:resource="http://purl.org/dc/dcmitype/StillImage" /></cc:Work></rdf:RDF></metadata><sodipodi:namedview
   pagecolor="#ffffff"
   bordercolor="#666666"
   borderopacity="1"
   objecttolerance="10"
   gridtolerance="10"
   guidetolerance="10"
   inkscape:pageopacity="0"
   inkscape:pageshadow="2"
   inkscape:window-width="640"
   inkscape:window-height="480"
   id="namedview70"
   showgrid="false"
   inkscape:zoom="2.1095237"
   inkscape:cx="37.795143"
   inkscape:cy="10.684526"
   inkscape:window-x="0"
   inkscape:window-y="0"
   inkscape:window-maximized="0"
   inkscape:current-layer="svg68" />
	<style
   type="text/css"
   id="style2">
	<![CDATA[
		.st1 {fill:url(#grad0-6);stroke:none;stroke-linecap:butt;stroke-width:0.75}
		.st2 {fill:#ffffff;fill-opacity:0.8;stroke:none;stroke-linecap:butt;stroke-width:0.75}
		.st3 {fill:#ffffff;fill-opacity:0.6;stroke:none;stroke-linecap:butt;stroke-width:0.75}
		.st4 {fill:#ffffff;fill-opacity:0.4;stroke:none;stroke-linecap:butt;stroke-width:0.75}
		.st5 {fill:#50e6ff;stroke:none;stroke-linecap:butt;stroke-width:0.75}
		.st6 {fill:#ffffff;stroke:none;stroke-linecap:butt;stroke-width:0.75}
		.st7 {fill:none;fill-rule:evenodd;font-size:12px;overflow:visible;stroke-linecap:square;stroke-miterlimit:3}
	]]>
	</style>

	<defs
   id="Patterns_And_Gradients">
		<linearGradient
   id="grad0-6"
   x1="0"
   y1="49.292053"
   x2="43.089986"
   y2="49.292053"
   gradientTransform="scale(1.1000236,0.90907144)"
   gradientUnits="userSpaceOnUse">
			<stop
   offset="0"
   stop-color="#5ea0ef"
   stop-opacity="1"
   id="stop4" />
			<stop
   offset="1"
   stop-color="#0078d4"
   stop-opacity="1"
   id="stop6" />
		</linearGradient>
	</defs>
	<g
   id="g66"
   transform="translate(-5.6694146,-4.5354995)">
		<title
   id="title10">Page-1</title>
		<g
   id="group18781-1"
   transform="translate(5.66929,-34.0157)">
			<title
   id="title12">Azure Percept Speech.18781</title>
			<g
   id="group18782-2">
				<title
   id="title14">a6a92309-3633-4dc9-b48f-6bfbef8</title>
				<g
   id="shape18783-3">
					<title
   id="title16">Sheet.18783</title>
					<path
   d="m 47.4,47.16 v 28.47 a 2.74646,2.34892 0 0 1 -2.75,2.35 H 30.9 a 0.456693,0.390589 -180 0 0 -0.456693,0.390589 L 30.44,83.2 a 0.916535,0.783871 0 0 1 -1.47087,0.622248 L 20.17,78.06 A 0.440945,0.37712 -180 0 0 19.892835,77.97919 L 2.75,77.98 A 2.75906,2.35969 0 0 1 0,75.63 V 47.16 a 2.74961,2.35161 0 0 1 2.75,-2.35 h 41.89 a 2.75591,2.357 0 0 1 2.76,2.35 z"
   class="st1"
   id="path18"
   inkscape:connector-curvature="0"
   style="fill:url(#grad0-6);stroke:none;stroke-width:0.75;stroke-linecap:butt" />
				</g>
				<g
   id="group18784-7"
   transform="translate(10.5606,-14.1369)">
					<title
   id="title21">Sheet.18784</title>
					<g
   id="shape18785-8"
   transform="translate(0,-5.05072)">
						<title
   id="title23">Sheet.18785</title>
						<path
   d="M 1.03,83.91 A 1.02362,0.875457 0 0 1 0.00323,83.034543 L 0,76.01 a 1.02677,0.878151 0 0 1 2.05354,0 L 2.05,83.03 a 1.02362,0.875457 0 0 1 -1.02677,0.875457 z"
   class="st2"
   id="path25"
   inkscape:connector-curvature="0"
   style="fill:#ffffff;fill-opacity:0.8;stroke:none;stroke-width:0.75;stroke-linecap:butt" />
					</g>
					<g
   id="shape18786-10"
   transform="translate(4.84409,-1.42498)">
						<title
   id="title28">Sheet.18786</title>
						<path
   d="M 1.03,83.91 A 1.02677,0.878151 0 0 1 0.00323,83.031849 L 0,69.48 a 1.02677,0.878151 0 1 1 2.05354,0 L 2.05,83.03 a 1.02677,0.878151 0 0 1 -1.02677,0.878151 z"
   class="st2"
   id="path30"
   inkscape:connector-curvature="0"
   style="fill:#ffffff;fill-opacity:0.8;stroke:none;stroke-width:0.75;stroke-linecap:butt" />
					</g>
					<g
   id="shape18787-12"
   transform="translate(14.5323)">
						<title
   id="title33">Sheet.18787</title>
						<path
   d="M 1.03,83.91 A 1.02677,0.878151 0 0 1 0.00323,83.031849 L 0,66.5 a 1.02677,0.878151 0 0 1 2.05354,0 L 2.05,83.03 a 1.02677,0.878151 0 0 1 -1.02677,0.878151 z"
   class="st3"
   id="path35"
   inkscape:connector-curvature="0"
   style="fill:#ffffff;fill-opacity:0.6;stroke:none;stroke-width:0.75;stroke-linecap:butt" />
					</g>
					<g
   id="shape18788-14"
   transform="translate(19.3795,-2.788)">
						<title
   id="title38">Sheet.18788</title>
						<path
   d="M 1.03,83.91 A 1.02362,0.875457 0 0 1 0.00323,83.034543 L 0,72.14 a 1.02677,0.878151 0 1 1 2.05039,0 L 2.05,83.04 a 1.02047,0.872764 0 0 1 -1.02362,0.861989 z"
   class="st4"
   id="path40"
   inkscape:connector-curvature="0"
   style="fill:#ffffff;fill-opacity:0.4;stroke:none;stroke-width:0.75;stroke-linecap:butt" />
					</g>
					<g
   id="shape18789-16"
   transform="translate(9.68819,-4.14293)">
						<title
   id="title43">Sheet.18789</title>
						<path
   d="M 1.03,83.91 A 1.02677,0.878151 0 0 1 0.00323,83.031849 L 0,73.5 a 1.02677,0.878151 0 0 1 2.05354,0 L 2.05,83.03 a 1.02677,0.878151 0 0 1 -1.02677,0.878151 z"
   class="st3"
   id="path45"
   inkscape:connector-curvature="0"
   style="fill:#ffffff;fill-opacity:0.6;stroke:none;stroke-width:0.75;stroke-linecap:butt" />
					</g>
					<g
   id="shape18790-18"
   transform="translate(24.2236,-0.956269)">
						<title
   id="title48">Sheet.18790</title>
						<path
   d="M 1.03,83.91 A 1.02362,0.875457 0 0 1 0.00323,83.034543 L 0,68.69 a 1.02677,0.878151 0 1 1 2.05039,0 L 2.05,83.03 a 1.02047,0.872764 0 0 1 -1.02362,0.878151 z"
   class="st4"
   id="path50"
   inkscape:connector-curvature="0"
   style="fill:#ffffff;fill-opacity:0.4;stroke:none;stroke-width:0.75;stroke-linecap:butt" />
					</g>
				</g>
				<g
   id="shape18791-20"
   transform="translate(27.1244,-20.0657)">
					<title
   id="title54">Sheet.18791</title>
					<ellipse
   cx="14.7843"
   cy="71.2612"
   rx="14.7843"
   ry="12.6443"
   class="st5"
   id="ellipse56"
   style="fill:#50e6ff;stroke:none;stroke-width:0.75;stroke-linecap:butt" />
				</g>
				<g
   id="shape18792-22"
   transform="translate(34.252,-26.1813)">
					<title
   id="title59">Sheet.18792</title>
					<path
   d="m 15.2,77.66 a 10.4283,8.91889 0 0 1 -0.21,1.78 11.1181,9.50881 0 0 1 -0.6,1.7 9.89921,8.46635 0 0 1 -0.98,1.56 11.7449,10.0449 0 0 1 -1,1.08 0.462992,0.395976 0 0 1 -0.670866,0 L 11.65,83.7 a 0.469291,0.401364 0 0 1 0,-0.557599 9.1748,7.84679 -180 0 0 0.88,-0.952401 9.35433,8.00033 -180 0 0 1.42,-2.94 9.59055,8.20236 -180 0 0 0,-3.21 9.04252,7.73366 -180 0 0 -0.54,-1.52 9.76378,8.35052 -180 0 0 -0.88,-1.41 9.00472,7.70133 -180 0 0 -0.88,-0.97 0.475591,0.406751 0 0 1 0,-0.560293 L 11.74,71.5 a 0.466142,0.39867 0 0 1 0.670866,0 10.5701,9.04011 0 0 1 0.999134,1.08 10.1921,8.71686 0 0 1 0.97,1.56 11.4016,9.75125 0 0 1 0.61,1.7 9.68504,8.28317 0 0 1 0.21,1.82 z m -3.51,-2.44 a 7.55906,6.46492 -180 0 0 -1.28,-1.76 0.459843,0.393282 -180 0 0 -0.674016,0 L 9.64,73.54 A 0.462992,0.395976 -180 0 0 9.6116535,74.078743 6.3748,5.45208 0 0 1 9.61,81.27 0.459843,0.393282 -180 0 0 9.6383465,81.808743 L 9.73,81.89 a 0.466142,0.39867 -180 0 0 0.674016,0 7.55906,6.46492 -180 0 0 1.285984,-1.77 7.48661,6.40296 -180 0 0 0,-4.87 z M 8,75.98 a 3.21575,2.75028 0 0 1 0.43,0.63 3.21575,2.75028 0 0 1 0,2.1 A 3.07717,2.63176 0 0 1 8,79.34 0.462992,0.395976 -180 0 0 8.044094,79.859887 L 8.14,79.93 A 0.472441,0.404057 -180 0 0 8.839213,79.905757 3.98425,3.40755 -180 0 0 9.42,79.06 4.25827,3.6419 -180 0 0 9.73,77.67 4.3748,3.74157 -180 0 0 9.42,76.28 4.14488,3.54493 -180 0 0 8.84,75.43 0.469291,0.401364 -180 0 0 8.140787,75.394982 L 8.05,75.47 A 0.459843,0.393282 -180 0 0 7.999606,75.979112 Z M 2.06,74.93 H 0.94 a 0.944882,0.808115 -180 0 0 -0.944882,0.808115 L 0,79.59 a 0.944882,0.808115 -180 0 0 0.944882,0.808115 L 2.06,80.4 a 0.944882,0.808115 0 0 1 0.661417,0.234353 L 5.51,83.01 A 0.469291,0.401364 -180 0 0 5.840709,83.128523 0.554331,0.474094 -180 0 0 6.39504,82.651735 L 6.39,72.68 A 0.56378,0.482175 -180 0 0 5.82937,72.197825 0.459843,0.393282 -180 0 0 5.498661,72.316348 L 2.72,74.7 a 0.944882,0.808115 0 0 1 -0.661417,0.23166 z"
   class="st6"
   id="path61"
   inkscape:connector-curvature="0"
   style="fill:#ffffff;stroke:none;stroke-width:0.75;stroke-linecap:butt" />
				</g>
			</g>
		</g>
	</g>
</svg>