<?xml version="1.0" encoding="UTF-8" standalone="no"?>
<!-- Generated by Microsoft Visio, SVG Export App Service MySQL In App.svg Page-1 -->

<svg
   xmlns:dc="http://purl.org/dc/elements/1.1/"
   xmlns:cc="http://creativecommons.org/ns#"
   xmlns:rdf="http://www.w3.org/1999/02/22-rdf-syntax-ns#"
   xmlns:svg="http://www.w3.org/2000/svg"
   xmlns="http://www.w3.org/2000/svg"
   xmlns:sodipodi="http://sodipodi.sourceforge.net/DTD/sodipodi-0.dtd"
   xmlns:inkscape="http://www.inkscape.org/namespaces/inkscape"
   width="0.78825349in"
   height="0.78685361in"
   viewBox="0 0 56.754559 56.65344"
   xml:space="preserve"
   class="st11"
   version="1.1"
   id="svg105"
   sodipodi:docname="App Service MySQL In App.svg"
   style="font-size:12px;overflow:visible;color-interpolation-filters:sRGB;fill:none;fill-rule:evenodd;stroke-linecap:square;stroke-miterlimit:3"
   inkscape:version="0.92.5 (2060ec1f9f, 2020-04-08)"><metadata
   id="metadata109"><rdf:RDF><cc:Work
       rdf:about=""><dc:format>image/svg+xml</dc:format><dc:type
         rdf:resource="http://purl.org/dc/dcmitype/StillImage" /></cc:Work></rdf:RDF></metadata><sodipodi:namedview
   pagecolor="#ffffff"
   bordercolor="#666666"
   borderopacity="1"
   objecttolerance="10"
   gridtolerance="10"
   guidetolerance="10"
   inkscape:pageopacity="0"
   inkscape:pageshadow="2"
   inkscape:window-width="640"
   inkscape:window-height="480"
   id="namedview107"
   showgrid="false"
   inkscape:zoom="1.418894"
   inkscape:cx="37.913795"
   inkscape:cy="37.706283"
   inkscape:window-x="0"
   inkscape:window-y="0"
   inkscape:window-maximized="0"
   inkscape:current-layer="svg105" />
	<style
   type="text/css"
   id="style2">
	<![CDATA[
		.st1 {fill:url(#grad0-6);stroke:none;stroke-linecap:butt;stroke-width:34}
		.st2 {fill:#e8e8e8;stroke:none;stroke-linecap:butt;stroke-width:34}
		.st3 {fill:#50e6ff}
		.st4 {stroke:none;stroke-linecap:butt;stroke-width:34}
		.st5 {fill:#198ab3;stroke:none;stroke-linecap:butt;stroke-width:34}
		.st6 {fill:#f2f2f2;stroke:none;stroke-linecap:butt;stroke-width:34}
		.st7 {fill:url(#grad2-19);stroke:none;stroke-linecap:butt;stroke-width:34}
		.st8 {fill:#83b9f9;stroke:none;stroke-linecap:butt;stroke-width:34}
		.st9 {fill:url(#grad0-25);stroke:none;stroke-linecap:butt;stroke-width:34}
		.st10 {fill:#ffffff;stroke:none;stroke-linecap:butt;stroke-width:34}
		.st11 {fill:none;fill-rule:evenodd;font-size:12px;overflow:visible;stroke-linecap:square;stroke-miterlimit:3}
	]]>
	</style>

	<defs
   id="Patterns_And_Gradients">
		<linearGradient
   id="grad0-6"
   x1="0"
   y1="79.000412"
   x2="38.511708"
   y2="79.000412"
   gradientTransform="scale(0.94205118,1.0615134)"
   gradientUnits="userSpaceOnUse">
			<stop
   offset="0"
   stop-color="#005ba1"
   stop-opacity="1"
   id="stop4" />
			<stop
   offset="0.36"
   stop-color="#0071c8"
   stop-opacity="1"
   id="stop6" />
			<stop
   offset="0.52"
   stop-color="#0078d4"
   stop-opacity="1"
   id="stop8" />
			<stop
   offset="0.64"
   stop-color="#0074cd"
   stop-opacity="1"
   id="stop10" />
			<stop
   offset="0.82"
   stop-color="#006abb"
   stop-opacity="1"
   id="stop12" />
			<stop
   offset="1"
   stop-color="#005ba1"
   stop-opacity="1"
   id="stop14" />
		</linearGradient>
		<radialGradient
   id="grad2-19"
   cx="-2.7956888"
   cy="128.34398"
   r="37.888837"
   gradientTransform="scale(1.0063127,0.99372695)"
   fx="-2.7956888"
   fy="128.34398"
   gradientUnits="userSpaceOnUse">
			<stop
   offset="0"
   stop-color="#5ea0ef"
   stop-opacity="1"
   id="stop17" />
			<stop
   offset="1"
   stop-color="#0078d4"
   stop-opacity="1"
   id="stop19" />
		</radialGradient>
		<linearGradient
   id="grad0-25"
   x1="0"
   y1="117.07083"
   x2="8.6668278"
   y2="117.07083"
   gradientTransform="scale(1.0079558,0.99210695)"
   gradientUnits="userSpaceOnUse">
			<stop
   offset="0"
   stop-color="#cccccc"
   stop-opacity="1"
   id="stop22" />
			<stop
   offset="1"
   stop-color="#fcfcfc"
   stop-opacity="1"
   id="stop24" />
		</linearGradient>
	</defs>
	<g
   id="g103"
   transform="translate(-34,-33.99896)">
		<title
   id="title28">Page-1</title>
		<g
   id="group9963-1"
   transform="translate(34,-36.8865)">
			<title
   id="title30">App Service MySQL In App</title>
			<g
   id="group9964-2">
				<title
   id="title32">Sheet.9964</title>
				<g
   id="shape9965-3"
   transform="translate(0,-6.51339)">
					<title
   id="title34">Sheet.9965</title>
					<path
   d="m 26.7,120.37 a 16.4412,16.1827 0 0 1 9.58,-14.7 V 83.86 c 0,3.59 -8.12,6.45 -18.14,6.45 C 8.13,90.31 0,87.54 0,83.86 v 34.42 c 0,3.53 8,6.41 17.89,6.46 h 0.25 a 45.8612,45.1402 -180 0 0 8.96,-0.82 16.5212,16.2614 0 0 1 -0.4,-3.55 z"
   class="st1"
   id="path36"
   inkscape:connector-curvature="0"
   style="fill:url(#grad0-6);stroke:none;stroke-width:34;stroke-linecap:butt" />
				</g>
				<g
   id="shape9966-7"
   transform="translate(0,-40.9449)">
					<title
   id="title39">Sheet.9966</title>
					<path
   d="m 36.28,118.29 c 0,3.59 -8.12,6.45 -18.14,6.45 C 8.13,124.74 0,121.97 0,118.29 c 0,-3.68 8.13,-6.46 18.14,-6.46 10.02,0 18.14,2.79 18.14,6.46 z"
   class="st2"
   id="path41"
   inkscape:connector-curvature="0"
   style="fill:#e8e8e8;stroke:none;stroke-width:34;stroke-linecap:butt" />
				</g>
				<g
   id="shape9967-9"
   transform="translate(4.22389,-43.8047)">
					<title
   id="title44">Sheet.9967</title>
					<path
   d="m 27.84,120.62 c 0,2.29 -6.25,4.12 -13.92,4.12 -7.67,0 -13.92,-1.83 -13.92,-4.12 0,-2.28 6.25,-4.09 13.92,-4.09 7.67,0 13.92,1.84 13.92,4.1 z"
   class="st3"
   id="path46"
   inkscape:connector-curvature="0"
   style="fill:#50e6ff" />
					<path
   d="m 27.84,120.62 c 0,2.29 -6.25,4.12 -13.92,4.12 -7.67,0 -13.92,-1.83 -13.92,-4.12 0,-2.28 6.25,-4.09 13.92,-4.09 7.67,0 13.92,1.84 13.92,4.1"
   class="st4"
   id="path48"
   inkscape:connector-curvature="0"
   style="stroke:none;stroke-width:34;stroke-linecap:butt" />
				</g>
				<g
   id="shape9968-12"
   transform="translate(7.13581,-43.8173)">
					<title
   id="title51">Sheet.9968</title>
					<path
   d="M 11.01,121.67 A 32.6391,32.126 -180 0 0 0,123.24 a 32.3512,31.8425 -180 0 0 11.01,1.5 31.5256,31.0299 -180 0 0 11.01,-1.61 33.4935,32.9669 -180 0 0 -11.01,-1.46 z"
   class="st5"
   id="path53"
   inkscape:connector-curvature="0"
   style="fill:#198ab3;stroke:none;stroke-width:34;stroke-linecap:butt" />
				</g>
				<g
   id="shape9969-14"
   transform="translate(4.18229,-19.1307)">
					<title
   id="title56">Sheet.9969</title>
					<path
   d="m 23.84,121.96 h -6.72 v 2.78 h 7.5 a 1.72795,1.70079 -180 0 0 0.22,-0.04 16.5948,16.3339 0 0 1 3.26,-3.85 v -7.16 h -3.84 v 4.54 h -2.84 a 1.09117,1.07402 0 0 1 -0.82,-0.39 v -4.15 h -3.81 v 4.96 a 2.60473,2.56378 -180 0 0 2.68,2.49 h 4.37 l 0.73,-0.37 c 0,0 -0.31,1.13 -0.73,1.19 z m -8.38,-8.27 v -1.36 a 1.98075,1.94961 -180 0 0 -1.36,-2.16 4.93427,4.85669 -180 0 0 -1.41,-0.22 2.66553,2.62362 -180 0 0 -2.56,1.62 l -2.21,5.29 -2.83,-5.29 A 2.63673,2.59528 -180 0 0 2.66,109.95 4.03829,3.9748 -180 0 0 1.22,110.2 C 0.23,110.52 0,111.15 0,112.23 v 9.23 h 3.29 v -6.21 l 1.79,4.37 a 3.04632,2.99843 -180 0 0 2.83,1.84 c 1.24,0 1.75,-0.72 2.26,-1.84 l 1.9,-4.2 v 5.98 h 3.33 v -7.71 z"
   class="st6"
   id="path58"
   inkscape:connector-curvature="0"
   style="fill:#f2f2f2;stroke:none;stroke-width:34;stroke-linecap:butt" />
				</g>
				<g
   id="shape9970-16"
   transform="translate(32.3336)">
					<title
   id="title61">Sheet.9970</title>
					<path
   d="m 19.34,124.74 a 13.7724,13.5558 0 0 1 -17,-21.33 l 0.17,-0.16 a 13.7884,13.5717 0 0 1 16.83,21.49 z"
   class="st7"
   id="path63"
   inkscape:connector-curvature="0"
   style="fill:url(#grad2-19);stroke:none;stroke-width:34;stroke-linecap:butt" />
				</g>
				<g
   id="shape9971-20"
   transform="translate(31.2824,-1.45512)">
					<title
   id="title66">Sheet.9971</title>
					<path
   d="m 1.29,118.23 a 41.1925,40.5449 -180 0 0 -1.28,4.14 l 0.96,1.43 0.96,0.94 a 23.3114,22.9449 0 0 1 1.78,-5.57 4.08629,4.02205 0 0 1 -2.42,-0.94 z m 1.62,-7.33 a 21.9066,21.5622 0 0 1 -1.13,-4.62 12.0477,11.8583 -180 0 0 -1.78,2.23 17.0748,16.8063 -180 0 0 0.96,3.82 4.42548,4.35591 0 0 1 1.95,-1.43 z"
   class="st8"
   id="path68"
   inkscape:connector-curvature="0"
   style="fill:#83b9f9;stroke:none;stroke-width:34;stroke-linecap:butt" />
				</g>
				<g
   id="shape9972-22"
   transform="translate(31.2824,-6.85984)">
					<title
   id="title71">Sheet.9972</title>
					<ellipse
   cx="4.3678899"
   cy="120.446"
   rx="4.3678899"
   ry="4.2992101"
   class="st9"
   id="ellipse73"
   style="fill:url(#grad0-25);stroke:none;stroke-width:34;stroke-linecap:butt" />
				</g>
				<g
   id="shape9973-26"
   transform="translate(36.4598,-0.949199)">
					<title
   id="title76">Sheet.9973</title>
					<path
   d="m 5.66,122.5 a 3.42711,3.37323 0 0 1 0.81,-2.07 14.95,14.715 0 0 1 -4.04,-3.03 4.45108,4.3811 0 0 1 -2.43,1.26 30.6008,30.1197 -180 0 0 2.43,2.23 13.1933,12.9858 -180 0 0 3.23,1.91 z m 10.2,0.32 a 21.353,21.0173 0 0 1 -4.54,-0.48 v 0.16 a 2.67833,2.63622 0 0 1 -0.81,1.91 20.9978,20.6677 -180 0 0 5.51,0.31 c 0.64,-0.63 1.29,-1.43 1.94,-2.07 a 8.74537,8.60787 0 0 1 -2.1,0.17 z M 7.77,108.8 a 21.8042,21.4614 0 0 1 9.54,-2.23 10.7485,10.5795 -180 0 0 -2.43,-2.23 24.7162,24.3276 -180 0 0 -7.6,1.75 14.694,14.463 -180 0 0 -1.62,0.8 30.2776,29.8016 0 0 1 -3.23,-4.62 3.10392,3.05512 -180 0 0 -1.46,0.48 34.0919,33.5559 -180 0 0 3.4,4.93 15.9996,15.748 -180 0 0 -3.56,2.71 4.62068,4.54803 0 0 1 2.1,1.75 14.438,14.211 0 0 1 3.07,-2.38 36.2039,35.6346 -180 0 0 5.99,5.09 3.35671,3.30394 0 0 1 0.96,-1.59 44.6772,43.9748 0 0 1 -5.16,-4.46 z"
   class="st8"
   id="path78"
   inkscape:connector-curvature="0"
   style="fill:#83b9f9;stroke:none;stroke-width:34;stroke-linecap:butt" />
				</g>
				<g
   id="shape9974-28"
   transform="translate(48.4307,-7.17795)">
					<title
   id="title81">Sheet.9974</title>
					<ellipse
   cx="3.07512"
   cy="121.718"
   rx="3.07512"
   ry="3.0267701"
   class="st10"
   id="ellipse83"
   style="fill:#ffffff;stroke:none;stroke-width:34;stroke-linecap:butt" />
				</g>
				<g
   id="shape9975-30"
   transform="translate(53.509,-6.47559)">
					<title
   id="title86">Sheet.9975</title>
					<path
   d="M 3.18,123.13 A 2.02235,1.99055 -180 0 0 2.76,122.84 C 2.57,122.72 2.12,122.53 2.12,122.53 L 1.48,122.21 0.96,121.9 A 3.36311,3.31024 0 0 1 0,123.34 c 0.22,0.11 0.34,0.16 0.67,0.31 0,0 0.42,0.21 0.64,0.32 a 16.1404,15.8866 -180 0 0 1.45,0.77 12.2621,12.0693 -180 0 0 0.42,-1.61 z"
   class="st8"
   id="path88"
   inkscape:connector-curvature="0"
   style="fill:#83b9f9;stroke:none;stroke-width:34;stroke-linecap:butt" />
				</g>
				<g
   id="shape9976-32"
   transform="translate(31.2824,-6.85984)">
					<title
   id="title91">Sheet.9976</title>
					<ellipse
   cx="4.3678899"
   cy="120.446"
   rx="4.3678899"
   ry="4.2992101"
   class="st10"
   id="ellipse93"
   style="fill:#ffffff;stroke:none;stroke-width:34;stroke-linecap:butt" />
				</g>
				<g
   id="shape9977-34"
   transform="translate(42.1205,-0.330709)">
					<title
   id="title96">Sheet.9977</title>
					<ellipse
   cx="2.9119201"
   cy="121.879"
   rx="2.9119201"
   ry="2.8661399"
   class="st10"
   id="ellipse98"
   style="fill:#ffffff;stroke:none;stroke-width:34;stroke-linecap:butt" />
				</g>
			</g>
		</g>
	</g>
</svg>