<?xml version="1.0" encoding="UTF-8" standalone="no"?>
<!-- Generated by Microsoft Visio, SVG Export Automation Runbook.svg Page-1 -->

<svg
   xmlns:dc="http://purl.org/dc/elements/1.1/"
   xmlns:cc="http://creativecommons.org/ns#"
   xmlns:rdf="http://www.w3.org/1999/02/22-rdf-syntax-ns#"
   xmlns:svg="http://www.w3.org/2000/svg"
   xmlns="http://www.w3.org/2000/svg"
   xmlns:sodipodi="http://sodipodi.sourceforge.net/DTD/sodipodi-0.dtd"
   xmlns:inkscape="http://www.inkscape.org/namespaces/inkscape"
   width="0.7464934in"
   height="0.78735709in"
   viewBox="0 0 53.747431 56.689998"
   xml:space="preserve"
   class="st3"
   version="1.1"
   id="svg29"
   sodipodi:docname="Automation Runbook.svg"
   style="font-size:12px;overflow:visible;color-interpolation-filters:sRGB;fill:none;fill-rule:evenodd;stroke-linecap:square;stroke-miterlimit:3"
   inkscape:version="0.92.5 (2060ec1f9f, 2020-04-08)"><metadata
   id="metadata35"><rdf:RDF><cc:Work
       rdf:about=""><dc:format>image/svg+xml</dc:format><dc:type
         rdf:resource="http://purl.org/dc/dcmitype/StillImage" /></cc:Work></rdf:RDF></metadata><defs
   id="defs33" /><sodipodi:namedview
   pagecolor="#ffffff"
   bordercolor="#666666"
   borderopacity="1"
   objecttolerance="10"
   gridtolerance="10"
   guidetolerance="10"
   inkscape:pageopacity="0"
   inkscape:pageshadow="2"
   inkscape:window-width="640"
   inkscape:window-height="480"
   id="namedview31"
   showgrid="false"
   inkscape:zoom="1.7193066"
   inkscape:cx="35.832684"
   inkscape:cy="23.279613"
   inkscape:window-x="0"
   inkscape:window-y="0"
   inkscape:window-maximized="0"
   inkscape:current-layer="svg29" />
	<style
   type="text/css"
   id="style2">
	<![CDATA[
		.st1 {fill:#7a7a7a;stroke:none;stroke-linecap:butt;stroke-width:12.24}
		.st2 {fill:#59b4d9;stroke:none;stroke-linecap:butt;stroke-width:12.24}
		.st3 {fill:none;fill-rule:evenodd;font-size:12px;overflow:visible;stroke-linecap:square;stroke-miterlimit:3}
	]]>
	</style>

	<g
   id="g27"
   transform="translate(-12.240268,-12.2443)">
		<title
   id="title4">Page-1</title>
		<g
   id="group8984-1"
   transform="translate(12.24,-34.0157)">
			<title
   id="title6">Automation Runbook</title>
			<g
   id="group8985-2">
				<title
   id="title8">Sheet.8985</title>
				<g
   id="shape8986-3"
   transform="translate(7.79375,-14.088)">
					<title
   id="title10">Sheet.8986</title>
					<path
   d="M 35.48,86.7 H 2.68 C 1.28,86.7 0,87.84 0,89.54 v 12.16 l 4.54,1.25 V 91.13 H 33.5 v 11.71 l 4.54,-1.25 V 89.54 c 0,-1.7 -1.28,-2.84 -2.56,-2.84 z"
   class="st1"
   id="path12"
   inkscape:connector-curvature="0"
   style="fill:#7a7a7a;stroke:none;stroke-width:12.23999977;stroke-linecap:butt" />
				</g>
				<g
   id="shape8987-5"
   transform="translate(24.5445,-26.2446)">
					<title
   id="title15">Sheet.8987</title>
					<rect
   x="0"
   y="91.132896"
   width="4.5366602"
   height="11.8158"
   class="st1"
   id="rect17"
   style="fill:#7a7a7a;stroke:none;stroke-width:12.23999977;stroke-linecap:butt" />
				</g>
				<g
   id="shape8988-7">
					<title
   id="title20">Sheet.8988</title>
					<path
   d="M 34.2,46.26 H 19.54 c -1.51,0 -2.79,1.25 -2.79,2.72 v 13.3 c 0,1.47 1.28,2.72 2.79,2.72 h 14.54 c 1.52,0 2.79,-1.25 2.79,-2.72 V 48.98 C 36.99,47.51 35.71,46.26 34.2,46.26 Z M 17.33,84.2 H 2.79 C 1.28,84.2 0,85.45 0,86.93 v 13.29 c 0,1.48 1.28,2.73 2.79,2.73 h 14.54 c 1.51,0 2.79,-1.25 2.79,-2.73 V 86.93 c 0,-1.48 -1.28,-2.73 -2.79,-2.73 z m 33.62,0 H 36.41 c -1.51,0 -2.79,1.25 -2.79,2.73 v 13.29 c 0,1.48 1.28,2.73 2.79,2.73 h 14.54 c 1.51,0 2.79,-1.25 2.79,-2.73 V 86.93 C 53.86,85.45 52.58,84.2 50.95,84.2 Z"
   class="st2"
   id="path22"
   inkscape:connector-curvature="0"
   style="fill:#59b4d9;stroke:none;stroke-width:12.23999977;stroke-linecap:butt" />
				</g>
			</g>
		</g>
	</g>
</svg>