<?xml version="1.0" encoding="UTF-8" standalone="no"?>
<!-- Generated by Microsoft Visio, SVG Export Cloud Service.svg Page-1 -->

<svg
   xmlns:dc="http://purl.org/dc/elements/1.1/"
   xmlns:cc="http://creativecommons.org/ns#"
   xmlns:rdf="http://www.w3.org/1999/02/22-rdf-syntax-ns#"
   xmlns:svg="http://www.w3.org/2000/svg"
   xmlns="http://www.w3.org/2000/svg"
   xmlns:sodipodi="http://sodipodi.sourceforge.net/DTD/sodipodi-0.dtd"
   xmlns:inkscape="http://www.inkscape.org/namespaces/inkscape"
   width="0.78745621in"
   height="0.68056273in"
   viewBox="0 0 56.696738 49.000824"
   xml:space="preserve"
   class="st5"
   version="1.1"
   id="svg62"
   sodipodi:docname="Cloud Service.svg"
   style="font-size:12px;overflow:visible;color-interpolation-filters:sRGB;fill:none;fill-rule:evenodd;stroke-linecap:square;stroke-miterlimit:3"
   inkscape:version="0.92.5 (2060ec1f9f, 2020-04-08)"><metadata
   id="metadata66"><rdf:RDF><cc:Work
       rdf:about=""><dc:format>image/svg+xml</dc:format><dc:type
         rdf:resource="http://purl.org/dc/dcmitype/StillImage" /></cc:Work></rdf:RDF></metadata><sodipodi:namedview
   pagecolor="#ffffff"
   bordercolor="#666666"
   borderopacity="1"
   objecttolerance="10"
   gridtolerance="10"
   guidetolerance="10"
   inkscape:pageopacity="0"
   inkscape:pageshadow="2"
   inkscape:window-width="640"
   inkscape:window-height="480"
   id="namedview64"
   showgrid="false"
   inkscape:zoom="1.534071"
   inkscape:cx="37.7951"
   inkscape:cy="32.667926"
   inkscape:window-x="0"
   inkscape:window-y="0"
   inkscape:window-maximized="0"
   inkscape:current-layer="svg62" />
	<style
   type="text/css"
   id="style2">
	<![CDATA[
		.st1 {fill:url(#grad0-6);stroke:none;stroke-linecap:butt;stroke-width:33.1925}
		.st2 {fill:#e3e3e3;stroke:none;stroke-linecap:butt;stroke-width:33.1925}
		.st3 {fill:#ffffff;stroke:none;stroke-linecap:butt;stroke-width:33.1925}
		.st4 {fill:url(#grad0-18);stroke:none;stroke-linecap:butt;stroke-width:33.1925}
		.st5 {fill:none;fill-rule:evenodd;font-size:12px;overflow:visible;stroke-linecap:square;stroke-miterlimit:3}
	]]>
	</style>

	<defs
   id="Patterns_And_Gradients">
		<linearGradient
   id="grad0-6"
   x1="0"
   y1="90.702875"
   x2="43.393213"
   y2="90.702875"
   gradientTransform="scale(1.1621633,0.86046426)"
   gradientUnits="userSpaceOnUse">
			<stop
   offset="0"
   stop-color="#5ea0ef"
   stop-opacity="1"
   id="stop4" />
			<stop
   offset="1"
   stop-color="#0078d4"
   stop-opacity="1"
   id="stop6" />
		</linearGradient>
		<linearGradient
   id="grad0-18"
   x1="-3.5995755"
   y1="93.530125"
   x2="21.031778"
   y2="93.530125"
   gradientTransform="scale(0.99278343,1.007269)"
   gradientUnits="userSpaceOnUse">
			<stop
   offset="0"
   stop-color="#faa21d"
   stop-opacity="1"
   id="stop9" />
			<stop
   offset="0.4"
   stop-color="#f79415"
   stop-opacity="1"
   id="stop11" />
			<stop
   offset="1"
   stop-color="#ef7100"
   stop-opacity="1"
   id="stop13" />
		</linearGradient>
	</defs>
	<g
   id="g60"
   transform="translate(-33.193002,-33.190273)">
		<title
   id="title17">Page-1</title>
		<g
   id="group6727-1"
   transform="translate(33.1925,-36.8293)">
			<title
   id="title19">Cloud Service</title>
			<g
   id="group6728-2">
				<title
   id="title21">g16</title>
				<g
   id="shape6729-3"
   transform="translate(0,-8.02701)">
					<title
   id="title23">path2</title>
					<path
   d="M 30.35,114.64 A 14.1323,14.3385 0 0 1 44.47,100.32 13.9402,14.1435 0 0 1 50.43,101.7 11.5654,11.7341 -180 0 0 40.77,92.33 14.463,14.674 -180 0 0 26,78.05 14.8031,15.0191 -180 0 0 11.93,87.96 13.7071,13.9071 -180 0 0 0,101.67 13.8992,14.102 -180 0 0 14.26,115.38 h 16.17 c -0.01,-0.25 -0.08,-0.49 -0.08,-0.74 z"
   class="st1"
   id="path25"
   inkscape:connector-curvature="0"
   style="fill:url(#grad0-6);stroke:none;stroke-width:33.19250107;stroke-linecap:butt" />
				</g>
				<g
   id="shape6730-7"
   transform="translate(11.5181,-19.9369)">
					<title
   id="title28">circle4</title>
					<ellipse
   cx="2.0692899"
   cy="113.28"
   rx="2.0692899"
   ry="2.0994799"
   class="st2"
   id="ellipse30"
   style="fill:#e3e3e3;stroke:none;stroke-width:33.19250107;stroke-linecap:butt" />
				</g>
				<g
   id="shape6731-9"
   transform="translate(6.18583,-14.4629)">
					<title
   id="title33">path6</title>
					<path
   d="m 14.69,108.6 v -1.68 h -0.24 l -1.78,-0.59 -0.46,-1.15 0.9,-1.94 -1.16,-1.19 h -0.24 l -1.66,0.87 -1.12,-0.47 -0.73,-2.04 H 6.53 v 0.24 l -0.59,1.8 -1.22,0.47 -1.89,-0.92 -1.17,1.18 v 0.24 l 0.85,1.68 -0.47,1.16 -2.04,0.73 v 1.84 h 0.23 l 1.78,0.59 0.47,1.17 -0.91,1.95 1.17,1.18 h 0.23 l 1.66,-0.86 1.14,0.47 0.73,2.05 h 1.66 v -0.24 l 0.58,-1.8 1.14,-0.48 1.92,0.92 1.17,-1.18 v -0.24 l -0.85,-1.68 0.47,-1.15 z m -7.29,2.46 a 3.1748,3.22112 0 1 1 0.06,0 z"
   class="st3"
   id="path35"
   inkscape:connector-curvature="0"
   style="fill:#ffffff;stroke:none;stroke-width:33.19250107;stroke-linecap:butt" />
				</g>
				<g
   id="shape6732-11"
   transform="translate(25.011,-28.6)">
					<title
   id="title38">circle8</title>
					<ellipse
   cx="2.4472401"
   cy="112.897"
   rx="2.4472401"
   ry="2.48295"
   class="st2"
   id="ellipse40"
   style="fill:#e3e3e3;stroke:none;stroke-width:33.19250107;stroke-linecap:butt" />
				</g>
				<g
   id="shape6733-13"
   transform="translate(18.715,-22.1258)">
					<title
   id="title43">path10</title>
					<path
   d="m 17.49,107.38 v -2.02 h -0.27 l -2.15,-0.68 -0.5,-1.51 1.08,-2.37 -1.4,-1.4 h -0.26 l -2.01,1.03 -1.34,-0.56 -0.88,-2.46 H 7.69 v 0.3 L 7,99.87 l -1.37,0.56 -2.28,-1.1 -1.4,1.42 0.15,0.27 0.81,2.19 -0.46,1.48 -2.45,0.8 v 2.15 h 0.29 l 2.13,0.7 0.49,1.34 -1.07,2.36 1.45,1.51 0.29,-0.15 1.99,-1.03 1.37,0.56 0.87,2.45 h 1.98 v -0.29 l 0.7,-2.16 1.37,-0.56 2.3,1.09 1.4,-1.42 -0.14,-0.27 -0.85,-2.13 0.55,-1.39 z m -8.75,2.94 a 3.84567,3.90178 0 1 1 3.85,-3.89 3.81732,3.87302 0 0 1 -3.78,3.9 z"
   class="st3"
   id="path45"
   inkscape:connector-curvature="0"
   style="fill:#ffffff;stroke:none;stroke-width:33.19250107;stroke-linecap:butt" />
				</g>
				<g
   id="shape6734-15"
   transform="translate(35.8172)">
					<title
   id="title48">path12</title>
					<path
   d="M 8.66,94.21 A 12.2268,12.4052 -180 1 0 20.88,106.61 12.2268,12.4052 -180 0 0 8.65,94.21 Z"
   class="st4"
   id="path50"
   inkscape:connector-curvature="0"
   style="fill:url(#grad0-18);stroke:none;stroke-width:33.19250107;stroke-linecap:butt" />
				</g>
				<g
   id="shape6735-19"
   transform="translate(37.6283,-1.84041)">
					<title
   id="title53">path14</title>
					<path
   d="m 13.08,101.53 -7.21,0.04 a 0.425197,0.4314 -180 0 0 -0.314961,0.74137 L 8.15,104.89 3.32,109.81 0.78,107.18 a 0.428346,0.434596 -180 0 0 -0.733858,0.30038 L 0,114.79 a 0.576378,0.584787 -180 0 0 0.576378,0.58479 L 7.78,115.33 a 0.425197,0.4314 -180 0 0 0.425197,-0.4346 0.437795,0.444183 -180 0 0 -0.125984,-0.31955 L 5.49,112 l 4.85,-4.92 2.54,2.63 a 0.431496,0.437792 -180 0 0 0.733858,-0.30038 L 13.66,102.1 a 0.576378,0.584787 -180 0 0 -0.576378,-0.57201 z"
   class="st3"
   id="path55"
   inkscape:connector-curvature="0"
   style="fill:#ffffff;stroke:none;stroke-width:33.19250107;stroke-linecap:butt" />
				</g>
			</g>
		</g>
	</g>
</svg>