<?xml version="1.0" encoding="UTF-8" standalone="no"?>
<!-- Generated by Microsoft Visio, SVG Export Event Grid Subscription.svg Page-1 -->

<svg
   xmlns:dc="http://purl.org/dc/elements/1.1/"
   xmlns:cc="http://creativecommons.org/ns#"
   xmlns:rdf="http://www.w3.org/1999/02/22-rdf-syntax-ns#"
   xmlns:svg="http://www.w3.org/2000/svg"
   xmlns="http://www.w3.org/2000/svg"
   xmlns:xlink="http://www.w3.org/1999/xlink"
   xmlns:sodipodi="http://sodipodi.sourceforge.net/DTD/sodipodi-0.dtd"
   xmlns:inkscape="http://www.inkscape.org/namespaces/inkscape"
   width="0.78753227in"
   height="0.70868081in"
   viewBox="0 0 56.702214 51.025002"
   xml:space="preserve"
   class="st8"
   version="1.1"
   id="svg127"
   sodipodi:docname="Event Grid Subscription.svg"
   style="font-size:12px;overflow:visible;color-interpolation-filters:sRGB;fill:none;fill-rule:evenodd;stroke-linecap:square;stroke-miterlimit:3"
   inkscape:version="0.92.5 (2060ec1f9f, 2020-04-08)"><metadata
   id="metadata131"><rdf:RDF><cc:Work
       rdf:about=""><dc:format>image/svg+xml</dc:format><dc:type
         rdf:resource="http://purl.org/dc/dcmitype/StillImage" /></cc:Work></rdf:RDF></metadata><sodipodi:namedview
   pagecolor="#ffffff"
   bordercolor="#666666"
   borderopacity="1"
   objecttolerance="10"
   gridtolerance="10"
   guidetolerance="10"
   inkscape:pageopacity="0"
   inkscape:pageshadow="2"
   inkscape:window-width="640"
   inkscape:window-height="480"
   id="namedview129"
   showgrid="false"
   inkscape:zoom="1.4869072"
   inkscape:cx="37.79867"
   inkscape:cy="34.006413"
   inkscape:window-x="0"
   inkscape:window-y="0"
   inkscape:window-maximized="0"
   inkscape:current-layer="svg127" />
	<style
   type="text/css"
   id="style2">
	<![CDATA[
		.st1 {fill:#32bedd;stroke:none;stroke-linecap:butt;stroke-width:34}
		.st2 {fill:#ffffff;stroke:none;stroke-linecap:butt;stroke-width:34}
		.st3 {fill:#50e6ff;stroke:none;stroke-linecap:butt;stroke-width:34}
		.st4 {fill:url(#grad0-18);stroke:none;stroke-linecap:butt;stroke-width:34}
		.st5 {fill:#999999;stroke:none;stroke-linecap:butt;stroke-width:34}
		.st6 {fill:#999999;fill-opacity:0.5;stroke:none;stroke-linecap:butt;stroke-width:34}
		.st7 {fill:#949494;stroke:none;stroke-linecap:butt;stroke-width:34}
		.st8 {fill:none;fill-rule:evenodd;font-size:12px;overflow:visible;stroke-linecap:square;stroke-miterlimit:3}
	]]>
	</style>

	<defs
   id="Patterns_And_Gradients">
		<linearGradient
   id="grad0-18"
   x1="0"
   y1="0"
   x2="1"
   y2="0"
   gradientTransform="rotate(90,0.5,0.5)">
			<stop
   offset="0"
   stop-color="#c69aeb"
   stop-opacity="1"
   id="stop4" />
			<stop
   offset="1"
   stop-color="#6f4bb2"
   stop-opacity="1"
   id="stop6" />
		</linearGradient>
	<linearGradient
   inkscape:collect="always"
   xlink:href="#grad0-18"
   id="linearGradient4641"
   gradientTransform="scale(0.99475684,1.0052708)"
   x1="0"
   y1="111.37533"
   x2="7.0401528"
   y2="111.37533"
   gradientUnits="userSpaceOnUse" /><linearGradient
   inkscape:collect="always"
   xlink:href="#grad0-18"
   id="linearGradient4643"
   gradientTransform="scale(0.99475684,1.0052708)"
   x1="0"
   y1="111.37533"
   x2="7.0401528"
   y2="111.37533"
   gradientUnits="userSpaceOnUse" /></defs>
	<g
   id="g125"
   transform="translate(-34.000106,-33.9993)">
		<title
   id="title10">Page-1</title>
		<g
   id="group5218-1"
   transform="translate(34.0052,-34.0157)">
			<title
   id="title12">Event Grid Subscription</title>
			<g
   id="group5219-2">
				<title
   id="title14">Icon-integration-221</title>
				<g
   id="shape5220-3"
   transform="translate(8.50394,-14.1545)">
					<title
   id="title16">Sheet.5220</title>
					<path
   d="M 32.18,104.82 V 102.8 H 17.11 l -7.07,7.11 H 4.84 L 16.91,97.57 h 8.23 V 95.65 H 16.07 L 2,109.91 H 0 v 2.02 h 6.04 l 7.13,7.11 h 17.01 v -2.02 H 13.91 l -5.04,-5.09 h 12.24 v -2.02 h -8.2 l 5,-5.09 z"
   class="st1"
   id="path18"
   inkscape:connector-curvature="0"
   style="fill:#32bedd;stroke:none;stroke-width:34;stroke-linecap:butt" />
				</g>
				<g
   id="shape5221-5"
   transform="translate(28.7133,-19.3445)">
					<title
   id="title21">Sheet.5221</title>
					<ellipse
   cx="2.90134"
   cy="116.107"
   rx="2.90134"
   ry="2.9319999"
   class="st2"
   id="ellipse23"
   style="fill:#ffffff;stroke:none;stroke-width:34;stroke-linecap:butt" />
				</g>
				<g
   id="shape5222-7"
   transform="translate(31.748,-33.5664)">
					<title
   id="title26">Sheet.5222</title>
					<ellipse
   cx="2.90134"
   cy="116.107"
   rx="2.90134"
   ry="2.9319999"
   class="st2"
   id="ellipse28"
   style="fill:#ffffff;stroke:none;stroke-width:34;stroke-linecap:butt" />
				</g>
				<g
   id="shape5223-9"
   transform="translate(38.7846,-26.4554)">
					<title
   id="title31">Sheet.5223</title>
					<ellipse
   cx="2.90134"
   cy="116.107"
   rx="2.90134"
   ry="2.9319999"
   class="st2"
   id="ellipse33"
   style="fill:#ffffff;stroke:none;stroke-width:34;stroke-linecap:butt" />
				</g>
				<g
   id="shape5224-11"
   transform="translate(35.7832,-12.2335)">
					<title
   id="title36">Sheet.5224</title>
					<ellipse
   cx="2.90134"
   cy="116.107"
   rx="2.90134"
   ry="2.9319999"
   class="st2"
   id="ellipse38"
   style="fill:#ffffff;stroke:none;stroke-width:34;stroke-linecap:butt" />
				</g>
				<g
   id="shape5225-13"
   transform="translate(31.0477,-32.9598)">
					<title
   id="title41">Sheet.5225</title>
					<ellipse
   cx="3.5016201"
   cy="115.501"
   rx="3.5016201"
   ry="3.53863"
   class="st3"
   id="ellipse43"
   style="fill:#50e6ff;stroke:none;stroke-width:34;stroke-linecap:butt" />
				</g>
				<g
   id="shape5226-15"
   transform="translate(38.0843,-25.8488)">
					<title
   id="title46">Sheet.5226</title>
					<ellipse
   cx="3.5016201"
   cy="115.501"
   rx="3.5016201"
   ry="3.53863"
   class="st4"
   id="ellipse48"
   style="fill:url(#linearGradient4641);stroke:none;stroke-width:34;stroke-linecap:butt" />
				</g>
				<g
   id="shape5227-19"
   transform="translate(35.183,-11.6269)">
					<title
   id="title51">Sheet.5227</title>
					<ellipse
   cx="3.5016201"
   cy="115.501"
   rx="3.5016201"
   ry="3.53863"
   class="st4"
   id="ellipse53"
   style="fill:url(#linearGradient4643);stroke:none;stroke-width:34;stroke-linecap:butt" />
				</g>
				<g
   id="shape5228-22"
   transform="translate(28.113,-18.7379)">
					<title
   id="title56">Sheet.5228</title>
					<ellipse
   cx="3.5016201"
   cy="115.501"
   rx="3.5016201"
   ry="3.53863"
   class="st3"
   id="ellipse58"
   style="fill:#50e6ff;stroke:none;stroke-width:34;stroke-linecap:butt" />
				</g>
				<g
   id="group5229-24"
   transform="translate(0,-38.015)">
					<title
   id="title61">Sheet.5229</title>
					<g
   id="shape5230-25">
						<title
   id="title63">Sheet.5230</title>
						<path
   d="m 1.9,106.03 h 4.3 v 12.03 a 0.967114,0.977335 0 0 1 -0.967114,0.97733 L 0.97,119.04 A 0.967114,0.977335 0 0 1 0.002886,118.06267 L 0,107.95 a 1.90088,1.92097 0 0 1 1.9,-1.92 z"
   class="st5"
   id="path65"
   inkscape:connector-curvature="0"
   style="fill:#999999;stroke:none;stroke-width:34;stroke-linecap:butt" />
					</g>
					<g
   id="shape5231-27">
						<title
   id="title68">Sheet.5231</title>
						<path
   d="m 1.9,106.03 h 4.3 v 12.03 a 0.967114,0.977335 0 0 1 -0.967114,0.97733 L 0.97,119.04 A 0.967114,0.977335 0 0 1 0.002886,118.06267 L 0,107.95 a 1.90088,1.92097 0 0 1 1.9,-1.92 z"
   class="st6"
   id="path70"
   inkscape:connector-curvature="0"
   style="fill:#999999;fill-opacity:0.5;stroke:none;stroke-width:34;stroke-linecap:butt" />
					</g>
				</g>
				<g
   id="group5232-29"
   transform="translate(50.49,-38.015)">
					<title
   id="title74">Sheet.5232</title>
					<g
   id="shape5233-30">
						<title
   id="title76">Sheet.5233</title>
						<path
   d="m 0,106.03 h 4.3 a 1.90088,1.92097 0 0 1 1.9,1.92 v 10.11 a 0.967114,0.977335 0 0 1 -0.967114,0.97733 L 0.93,119.04 a 0.967114,0.977335 0 0 1 -0.933766,-0.97733 z"
   class="st5"
   id="path78"
   inkscape:connector-curvature="0"
   style="fill:#999999;stroke:none;stroke-width:34;stroke-linecap:butt" />
					</g>
					<g
   id="shape5234-32">
						<title
   id="title81">Sheet.5234</title>
						<path
   d="m 0,106.03 h 4.3 a 1.90088,1.92097 0 0 1 1.9,1.92 v 10.11 a 0.967114,0.977335 0 0 1 -0.967114,0.97733 L 0.93,119.04 a 0.967114,0.977335 0 0 1 -0.933766,-0.97733 z"
   class="st6"
   id="path83"
   inkscape:connector-curvature="0"
   style="fill:#999999;fill-opacity:0.5;stroke:none;stroke-width:34;stroke-linecap:butt" />
					</g>
				</g>
				<g
   id="shape5235-34"
   transform="translate(0,-44.89)">
					<title
   id="title87">Sheet.5235</title>
					<path
   d="m 56.69,114.83 v 4.21 H 0 v -4.21 a 1.90088,1.92097 0 0 1 1.9,-1.92 h 52.93 a 1.90088,1.92097 0 0 1 1.86,1.92 z"
   class="st7"
   id="path89"
   inkscape:connector-curvature="0"
   style="fill:#949494;stroke:none;stroke-width:34;stroke-linecap:butt" />
				</g>
				<g
   id="group5236-36">
					<title
   id="title92">Sheet.5236</title>
					<g
   id="shape5237-37">
						<title
   id="title94">Sheet.5237</title>
						<path
   d="m 0.97,105.93 h 4.3 a 0.967114,0.977335 0 0 1 0.967114,0.97734 L 6.24,119.04 H 1.9 A 1.90088,1.92097 0 0 1 0,117.12 v -10.11 a 0.967114,0.977335 0 0 1 0.967114,-1.07844 z"
   class="st5"
   id="path96"
   inkscape:connector-curvature="0"
   style="fill:#999999;stroke:none;stroke-width:34;stroke-linecap:butt" />
					</g>
					<g
   id="shape5238-39">
						<title
   id="title99">Sheet.5238</title>
						<path
   d="m 0.97,105.93 h 4.3 a 0.967114,0.977335 0 0 1 0.967114,0.97734 L 6.24,119.04 H 1.9 A 1.90088,1.92097 0 0 1 0,117.12 v -10.11 a 0.967114,0.977335 0 0 1 0.967114,-1.07844 z"
   class="st6"
   id="path101"
   inkscape:connector-curvature="0"
   style="fill:#999999;fill-opacity:0.5;stroke:none;stroke-width:34;stroke-linecap:butt" />
					</g>
				</g>
				<g
   id="group5239-41"
   transform="translate(50.49,-0.101104)">
					<title
   id="title105">Sheet.5239</title>
					<g
   id="shape5240-42">
						<title
   id="title107">Sheet.5240</title>
						<path
   d="m 0.93,106.03 h 4.31 a 0.967114,0.977335 0 0 1 0.967114,0.97733 L 6.2,117.12 a 1.90088,1.92097 0 0 1 -1.9,1.92 H 0 v -11.93 a 0.967114,0.977335 0 0 1 0.933766,-1.07844 z"
   class="st5"
   id="path109"
   inkscape:connector-curvature="0"
   style="fill:#999999;stroke:none;stroke-width:34;stroke-linecap:butt" />
					</g>
					<g
   id="shape5241-44">
						<title
   id="title112">Sheet.5241</title>
						<path
   d="m 0.93,106.03 h 4.31 a 0.967114,0.977335 0 0 1 0.967114,0.97733 L 6.2,117.12 a 1.90088,1.92097 0 0 1 -1.9,1.92 H 0 v -11.93 a 0.967114,0.977335 0 0 1 0.933766,-1.07844 z"
   class="st6"
   id="path114"
   inkscape:connector-curvature="0"
   style="fill:#999999;fill-opacity:0.5;stroke:none;stroke-width:34;stroke-linecap:butt" />
					</g>
				</g>
				<g
   id="shape5242-46">
					<title
   id="title118">Sheet.5242</title>
					<path
   d="m 0,117.12 v -4.21 h 56.69 v 4.21 a 1.90088,1.92097 0 0 1 -1.9,1.92 H 1.9 A 1.90088,1.92097 0 0 1 0,117.12 Z"
   class="st7"
   id="path120"
   inkscape:connector-curvature="0"
   style="fill:#949494;stroke:none;stroke-width:34;stroke-linecap:butt" />
				</g>
			</g>
		</g>
	</g>
</svg>