<?xml version="1.0" encoding="UTF-8" standalone="no"?>
<!-- Generated by Microsoft Visio, SVG Export O365 - Yammer.svg Page-1 -->

<svg
   xmlns:dc="http://purl.org/dc/elements/1.1/"
   xmlns:cc="http://creativecommons.org/ns#"
   xmlns:rdf="http://www.w3.org/1999/02/22-rdf-syntax-ns#"
   xmlns:svg="http://www.w3.org/2000/svg"
   xmlns="http://www.w3.org/2000/svg"
   xmlns:sodipodi="http://sodipodi.sourceforge.net/DTD/sodipodi-0.dtd"
   xmlns:inkscape="http://www.inkscape.org/namespaces/inkscape"
   width="0.78740239in"
   height="0.78740221in"
   viewBox="0 0 56.692924 56.692899"
   xml:space="preserve"
   class="st8"
   version="1.1"
   id="svg64"
   sodipodi:docname="O365 - Yammer.svg"
   style="font-size:12px;overflow:visible;color-interpolation-filters:sRGB;fill:none;fill-rule:evenodd;stroke-linecap:square;stroke-miterlimit:3"
   inkscape:version="0.92.5 (2060ec1f9f, 2020-04-08)"><metadata
   id="metadata70"><rdf:RDF><cc:Work
       rdf:about=""><dc:format>image/svg+xml</dc:format><dc:type
         rdf:resource="http://purl.org/dc/dcmitype/StillImage" /></cc:Work></rdf:RDF></metadata><defs
   id="defs68" /><sodipodi:namedview
   pagecolor="#ffffff"
   bordercolor="#666666"
   borderopacity="1"
   objecttolerance="10"
   gridtolerance="10"
   guidetolerance="10"
   inkscape:pageopacity="0"
   inkscape:pageshadow="2"
   inkscape:window-width="640"
   inkscape:window-height="480"
   id="namedview66"
   showgrid="false"
   inkscape:zoom="1.6264628"
   inkscape:cx="37.795382"
   inkscape:cy="27.196025"
   inkscape:window-x="0"
   inkscape:window-y="0"
   inkscape:window-maximized="0"
   inkscape:current-layer="svg64" />
	<style
   type="text/css"
   id="style2">
	<![CDATA[
		.st1 {fill:#28a8ea;stroke:none;stroke-linecap:butt;stroke-width:18.1165}
		.st2 {fill:#0078d4;stroke:none;stroke-linecap:butt;stroke-width:18.1165}
		.st3 {fill:#0358a7;stroke:none;stroke-linecap:butt;stroke-width:18.1165}
		.st4 {fill:#000000;fill-opacity:0.098;stroke:none;stroke-linecap:butt;stroke-width:18.1165}
		.st5 {fill:#000000;fill-opacity:0.2;stroke:none;stroke-linecap:butt;stroke-width:18.1165}
		.st6 {fill:#ffffff;stroke:none;stroke-linecap:butt;stroke-width:18.1165}
		.st7 {fill:none;stroke:none;stroke-linecap:butt;stroke-width:18.1165}
		.st8 {fill:none;fill-rule:evenodd;font-size:12px;overflow:visible;stroke-linecap:square;stroke-miterlimit:3}
	]]>
	</style>

	<g
   id="g62"
   transform="translate(-18.116485,-18.116601)">
		<title
   id="title4">Page-1</title>
		<g
   id="group2412-1"
   transform="translate(18.1165,-34.0157)">
			<title
   id="title6">O365 - Yammer</title>
			<g
   id="group2413-2">
				<title
   id="title8">g22</title>
				<g
   id="shape2414-3"
   transform="translate(20.2669,-28.3465)">
					<title
   id="title10">path2</title>
					<path
   d="M 0.2,97.69 A 0.737008,0.737008 0 0 1 0.099016,96.814803 0.726378,0.726378 0 0 1 0.212402,96.667756 L 15.32,81.54 a 1.47756,1.47756 0 0 1 2.13,0.04 40.0748,40.0748 0 0 1 9.3,16.91 l -9.14,10.34 -13.6,-4.26 A 16.4037,16.4037 -180 0 0 0.2,97.69 Z"
   class="st1"
   id="path12"
   inkscape:connector-curvature="0"
   style="fill:#28a8ea;stroke:none;stroke-width:18.11650085;stroke-linecap:butt" />
				</g>
				<g
   id="shape2415-5"
   transform="translate(24.2717,-12.3325)">
					<title
   id="title15">path4</title>
					<path
   d="M 29.99,82.11 A 1.47402,1.47402 -180 0 0 28.17,81.03 L 0,88.55 a 16.6163,16.6163 0 0 1 0.01,8.57 l 9.39,11.71 13.37,-5.59 5.39,1.45 a 1.47402,1.47402 -180 0 0 1.82,-1.08 47.6008,47.6008 -180 0 0 0.01,-21.5 z"
   class="st2"
   id="path17"
   inkscape:connector-curvature="0"
   style="fill:#0078d4;stroke:none;stroke-width:18.11650085;stroke-linecap:butt" />
				</g>
				<g
   id="shape2416-7"
   transform="translate(20.2973,-0.628414)">
					<title
   id="title20">path6</title>
					<path
   d="m 3.98,85.42 a 16.4091,16.4091 0 0 1 -3.77,6.86 0.73878,0.73878 -180 0 0 0.0106299,1.03465 L 15.32,108.39 a 1.47756,1.47756 -180 0 0 2.13,-0.04 39.9508,39.9508 -180 0 0 9.3,-16.81 z"
   class="st3"
   id="path22"
   inkscape:connector-curvature="0"
   style="fill:#0358a7;stroke:none;stroke-width:18.11650085;stroke-linecap:butt" />
				</g>
				<g
   id="shape2417-9"
   transform="translate(20.2669,-10.6299)">
					<title
   id="title25">path8</title>
					<path
   d="M 11.62,106.46 V 77.53 A 2.3687,2.3687 -180 0 0 9.26,75.16 H 3.96 L 0.21,78.92 A 0.722835,0.722835 -180 0 0 0.096614,79.065276 0.737008,0.737008 -180 0 0 0.197598,79.940473 16.4037,16.4037 0 0 1 4.01,86.81 v 0 H 4 a 16.6217,16.6217 0 0 1 0.01,8.57 16.3346,16.3346 0 0 1 -0.74,2.14 16.4356,16.4356 0 0 1 -3.03,4.72 0.73878,0.73878 -180 0 0 0.0106299,1.03465 L 5.8,108.83 h 3.46 a 2.3687,2.3687 -180 0 0 2.36,-2.37 z"
   class="st4"
   id="path27"
   inkscape:connector-curvature="0"
   style="fill:#000000;fill-opacity:0.09800002;stroke:none;stroke-width:18.11650085;stroke-linecap:butt" />
				</g>
				<g
   id="shape2418-11"
   transform="translate(20.2669,-8.86004)">
					<title
   id="title30">path10</title>
					<path
   d="M 9.85,106.47 V 77.53 A 2.3687,2.3687 -180 0 0 7.49,75.17 H 2.19 L 0.21,77.15 A 0.722835,0.722835 -180 0 0 0.096614,77.295276 0.737008,0.737008 -180 0 0 0.197598,78.170473 16.4037,16.4037 0 0 1 4.01,85.04 v 0 H 4 a 16.6217,16.6217 0 0 1 0.01,8.57 16.3346,16.3346 0 0 1 -0.74,2.14 16.4356,16.4356 0 0 1 -3.03,4.72 0.73878,0.73878 -180 0 0 0.0106299,1.03465 L 7.58,108.83 a 2.3687,2.3687 -180 0 0 2.27,-2.36 z"
   class="st5"
   id="path32"
   inkscape:connector-curvature="0"
   style="fill:#000000;fill-opacity:0.2;stroke:none;stroke-width:18.11650085;stroke-linecap:butt" />
				</g>
				<g
   id="shape2419-13"
   transform="translate(20.2669,-12.4016)">
					<title
   id="title35">path12</title>
					<path
   d="M 9.85,106.46 V 81.07 A 2.3687,2.3687 -180 0 0 7.49,78.71 H 2.19 L 0.21,80.69 A 0.722835,0.722835 -180 0 0 0.096614,80.835276 0.737008,0.737008 -180 0 0 0.197598,81.710473 16.4037,16.4037 0 0 1 4.01,88.58 v 0 L 4,88.59 a 16.6217,16.6217 0 0 1 0.01,8.56 16.3346,16.3346 0 0 1 -0.74,2.14 16.4356,16.4356 0 0 1 -3.03,4.73 0.73878,0.73878 -180 0 0 0.0106299,1.03465 L 4.03,108.83 h 3.46 a 2.3687,2.3687 -180 0 0 2.36,-2.37 z"
   class="st5"
   id="path37"
   inkscape:connector-curvature="0"
   style="fill:#000000;fill-opacity:0.2;stroke:none;stroke-width:18.11650085;stroke-linecap:butt" />
				</g>
				<g
   id="shape2420-15"
   transform="translate(20.2669,-12.4016)">
					<title
   id="title40">path14</title>
					<path
   d="M 8.08,106.46 V 81.07 A 2.3687,2.3687 -180 0 0 5.72,78.71 H 2.19 L 0.21,80.69 A 0.722835,0.722835 -180 0 0 0.096614,80.835276 0.737008,0.737008 -180 0 0 0.197598,81.710473 16.4037,16.4037 0 0 1 4.01,88.58 v 0 L 4,88.59 a 16.6217,16.6217 0 0 1 0.01,8.56 16.3346,16.3346 0 0 1 -0.74,2.14 16.4356,16.4356 0 0 1 -3.03,4.73 0.73878,0.73878 -180 0 0 0.0106299,1.03465 L 4.03,108.83 h 1.69 a 2.3687,2.3687 -180 0 0 2.36,-2.37 z"
   class="st5"
   id="path42"
   inkscape:connector-curvature="0"
   style="fill:#000000;fill-opacity:0.2;stroke:none;stroke-width:18.11650085;stroke-linecap:butt" />
				</g>
				<g
   id="shape2421-17"
   transform="translate(0,-14.1732)">
					<title
   id="title45">path16</title>
					<path
   d="m 2.36,80.48 h 23.62 a 2.36161,2.36161 0 0 1 2.37,2.36 v 23.62 a 2.36161,2.36161 0 0 1 -2.37,2.37 H 2.36 A 2.36161,2.36161 0 0 1 0,106.46 V 82.84 a 2.36161,2.36161 0 0 1 2.36,-2.36 z"
   class="st2"
   id="path47"
   inkscape:connector-curvature="0"
   style="fill:#0078d4;stroke:none;stroke-width:18.11650085;stroke-linecap:butt" />
				</g>
				<g
   id="shape2422-19"
   transform="translate(7.31693,-19.4882)">
					<title
   id="title50">path18</title>
					<path
   d="m 6.55,98.67 a 5.95453,5.95453 0 0 1 0.39,1.06 h 0.04 a 5.03858,5.03858 0 0 1 0.38,-1.04 l 3.59,-6.75 a 1.57677,1.57677 0 0 1 1.39,-0.83 1.57677,1.57677 0 0 1 1.36,2.36 l -4.95,8.63 a 1.57677,1.57677 -180 0 0 -0.21,0.78 v 4.37 a 1.57677,1.57677 0 0 1 -1.58,1.58 H 6.64 a 1.57677,1.57677 0 0 1 -1.57,-1.58 v -4.32 A 1.57677,1.57677 -180 0 0 4.86,102.17 L 0,93.45 a 1.57677,1.57677 0 0 1 1.37,-2.34 h 0.31 a 1.57677,1.57677 0 0 1 1.4,0.85 z"
   class="st6"
   id="path52"
   inkscape:connector-curvature="0"
   style="fill:#ffffff;stroke:none;stroke-width:18.11650085;stroke-linecap:butt" />
				</g>
				<g
   id="shape2423-21">
					<title
   id="title55">path20</title>
					<rect
   x="0"
   y="52.132301"
   width="56.692902"
   height="56.692902"
   class="st7"
   id="rect57"
   style="fill:none;stroke:none;stroke-width:18.11650085;stroke-linecap:butt" />
				</g>
			</g>
		</g>
	</g>
</svg>