<?xml version="1.0" encoding="UTF-8" standalone="no"?>
<!DOCTYPE svg PUBLIC "-//W3C//DTD SVG 1.1//EN" "http://www.w3.org/Graphics/SVG/1.1/DTD/svg11.dtd">
<!-- Generated by Microsoft Visio, SVG Export User Privacy.svg Page-1 -->
<svg xmlns="http://www.w3.org/2000/svg" xmlns:xlink="http://www.w3.org/1999/xlink" xmlns:ev="http://www.w3.org/2001/xml-events"
		width="1.69273in" height="1.8108in" viewBox="0 0 121.876 130.378" xml:space="preserve" color-interpolation-filters="sRGB"
		class="st8">
	<style type="text/css">
	<![CDATA[
		.st1 {fill:url(#grad0-6);stroke:none;stroke-linecap:butt;stroke-width:34}
		.st2 {fill:#ffffff;fill-opacity:0.8;stroke:none;stroke-linecap:butt;stroke-width:34}
		.st3 {fill:url(#grad0-12);stroke:none;stroke-linecap:butt;stroke-width:34}
		.st4 {fill:#005ba1;stroke:none;stroke-linecap:butt;stroke-width:34}
		.st5 {fill:url(#grad0-18);stroke:none;stroke-linecap:butt;stroke-width:34}
		.st6 {visibility:visible}
		.st7 {fill:#000000;font-family:Calibri;font-size:0.666664em}
		.st8 {fill:none;fill-rule:evenodd;font-size:12px;overflow:visible;stroke-linecap:square;stroke-miterlimit:3}
	]]>
	</style>

	<defs id="Patterns_And_Gradients">
		<linearGradient id="grad0-6" x1="0" y1="0" x2="1" y2="0" gradientTransform="rotate(90 0.5 0.5)">
			<stop offset="0.22" stop-color="#32d4f5" stop-opacity="1"/>
			<stop offset="1" stop-color="#198ab3" stop-opacity="1"/>
		</linearGradient>
		<linearGradient id="grad0-12" x1="0" y1="0" x2="1" y2="0" gradientTransform="rotate(85.391932192489 0.5 0.5)">
			<stop offset="0.22" stop-color="#32d4f5" stop-opacity="1"/>
			<stop offset="1" stop-color="#198ab3" stop-opacity="1"/>
		</linearGradient>
		<linearGradient id="grad0-18" x1="0" y1="0" x2="1" y2="0" gradientTransform="rotate(-90 0.5 0.5)">
			<stop offset="0" stop-color="#1988d9" stop-opacity="1"/>
			<stop offset="0.9" stop-color="#54aef0" stop-opacity="1"/>
		</linearGradient>
	</defs>
	<g>
		<title>Page-1</title>
		<g id="group6864-1" transform="translate(34.0182,-39.685)">
			<title>User Privacy.6864</title>
			<desc>User Privacy</desc>
			<g id="group6865-2">
				<title>Icon-manage-303</title>
				<g id="shape6866-3" transform="translate(0,-4.82506)">
					<title>Sheet.6866</title>
					<path d="M43.52 130.38 A4.24134 4.1947 -180 0 0 47.77 126.22 A2.55827 2.53014 -180 0 0 47.77 125.72 C46.12 112.4
								 38.51 101.81 24.2 101.81 C9.9 101.81 1.62 110.9 0 125.75 A4.275 4.228 -180 0 0 3.8 130.34 L43.52
								 130.34 L43.52 130.38 Z" class="st1"/>
				</g>
				<g id="shape6867-7" transform="translate(16.8307,-13.8803)">
					<title>Sheet.6867</title>
					<path d="M7.17 114 A13.2626 13.1168 0 0 1 0 111.87 L7.07 130.38 L14.21 112 A13.4646 13.3165 0 0 1 7.17 114 Z"
							class="st2"/>
				</g>
				<g id="shape6868-9" transform="translate(10.637,-30.2596)">
					<title>Sheet.6868</title>
					<ellipse cx="13.3636" cy="117.161" rx="13.3636" ry="13.2166" class="st3"/>
				</g>
				<g id="shape6869-13" transform="translate(30.2953,0)">
					<title>Sheet.6869</title>
					<path d="M23.56 115.3 C23.56 122.89 14.27 129.02 12.25 130.28 a0.807874 0.798991 0 0 1 -0.774213 0 C9.32 128.92
								 0 122.79 0 115.3 L0 106.04 a0.740551 0.732409 0 0 1 0.70689 -0.732409 C7.94 105.11 6.29 101.98 11.71
								 101.98 C17.13 101.98 15.45 105.11 22.69 105.31 a0.740551 0.732409 0 0 1 0.70689 0.732409 L23.56
								 115.3 Z" class="st4"/>
				</g>
				<g id="shape6870-15" transform="translate(31.3051,-1.23034)">
					<title>Sheet.6870</title>
					<path d="M21.44 116.53 C21.44 123.52 12.93 129.15 11.07 130.28 a0.673228 0.665826 0 0 1 -0.70689 0 C8.52 129.15
								 0 123.62 0 116.53 L0 108.11 a0.639567 0.632535 0 0 1 0.639567 -0.665826 C7.37 107.44 5.76 104.38
								 10.74 104.38 C15.72 104.38 14.1 107.27 20.84 107.44 a0.639567 0.632535 0 0 1 0.639567 0.665826 L21.44
								 116.53 Z" class="st5"/>
				</g>
			</g>
			<g id="shape6864-19">
				<g id="shadow6864-20" transform="matrix(1,0,0,1,1.41732,1.41732)" class="st6"/>
				<text x="6.91" y="146.08" class="st7">User Privacy</text>			</g>
		</g>
	</g>
</svg>
