<?xml version="1.0" encoding="UTF-8" standalone="no"?>
<!-- Generated by Microsoft Visio, SVG Export AKS Storage.svg Page-1 -->

<svg
   xmlns:dc="http://purl.org/dc/elements/1.1/"
   xmlns:cc="http://creativecommons.org/ns#"
   xmlns:rdf="http://www.w3.org/1999/02/22-rdf-syntax-ns#"
   xmlns:svg="http://www.w3.org/2000/svg"
   xmlns="http://www.w3.org/2000/svg"
   xmlns:sodipodi="http://sodipodi.sourceforge.net/DTD/sodipodi-0.dtd"
   xmlns:inkscape="http://www.inkscape.org/namespaces/inkscape"
   width="51.021999"
   height="56.695782"
   viewBox="0 0 51.021998 56.695782"
   xml:space="preserve"
   class="st7"
   version="1.1"
   id="svg55"
   sodipodi:docname="AKS Storage.svg"
   style="font-size:12px;overflow:visible;color-interpolation-filters:sRGB;fill:none;fill-rule:evenodd;stroke-linecap:square;stroke-miterlimit:3"
   inkscape:version="0.92.5 (2060ec1f9f, 2020-04-08)"><metadata
   id="metadata59"><rdf:RDF><cc:Work
       rdf:about=""><dc:format>image/svg+xml</dc:format><dc:type
         rdf:resource="http://purl.org/dc/dcmitype/StillImage" /></cc:Work></rdf:RDF></metadata><sodipodi:namedview
   pagecolor="#ffffff"
   bordercolor="#666666"
   borderopacity="1"
   objecttolerance="10"
   gridtolerance="10"
   guidetolerance="10"
   inkscape:pageopacity="0"
   inkscape:pageshadow="2"
   inkscape:window-width="640"
   inkscape:window-height="480"
   id="namedview57"
   showgrid="false"
   inkscape:zoom="1.8923752"
   inkscape:cx="25.512001"
   inkscape:cy="28.338801"
   inkscape:window-x="0"
   inkscape:window-y="0"
   inkscape:window-maximized="0"
   inkscape:current-layer="svg55" />
	<style
   type="text/css"
   id="style2">
	<![CDATA[
		.st1 {fill:url(#grad0-6);stroke:none;stroke-linecap:butt;stroke-width:34}
		.st2 {fill:#341a6e;stroke:none;stroke-linecap:butt;stroke-width:34}
		.st3 {fill:#b796f9;stroke:none;stroke-linecap:butt;stroke-width:34}
		.st4 {fill:url(#grad0-14);stroke:none;stroke-linecap:butt;stroke-width:34}
		.st5 {fill:#003067;stroke:none;stroke-linecap:butt;stroke-width:34}
		.st6 {fill:#83b9f9;stroke:none;stroke-linecap:butt;stroke-width:34}
		.st7 {fill:none;fill-rule:evenodd;font-size:12px;overflow:visible;stroke-linecap:square;stroke-miterlimit:3}
	]]>
	</style>

	<defs
   id="Patterns_And_Gradients">
		<linearGradient
   id="grad0-6"
   x1="0"
   y1="65.191633"
   x2="36.794878"
   y2="65.191633"
   gradientTransform="scale(0.81777686,1.2228275)"
   gradientUnits="userSpaceOnUse">
			<stop
   offset="0"
   stop-color="#773adc"
   stop-opacity="1"
   id="stop4" />
			<stop
   offset="1"
   stop-color="#a67af4"
   stop-opacity="1"
   id="stop6" />
		</linearGradient>
		<linearGradient
   id="grad0-14"
   x1="0"
   y1="65.226771"
   x2="36.785151"
   y2="65.226771"
   gradientTransform="scale(0.81799311,1.2225042)"
   gradientUnits="userSpaceOnUse">
			<stop
   offset="0"
   stop-color="#0078d4"
   stop-opacity="1"
   id="stop9" />
			<stop
   offset="1"
   stop-color="#5ea0ef"
   stop-opacity="1"
   id="stop11" />
		</linearGradient>
	</defs>
	<g
   id="g53"
   transform="translate(-34,-33.998519)">
		<title
   id="title15">Page-1</title>
		<g
   id="group10950-1"
   transform="translate(34,-34.0157)">
			<title
   id="title17">AKS Storage</title>
			<g
   id="group10951-2">
				<title
   id="title19">Sheet.10951</title>
				<g
   id="shape10952-3"
   transform="translate(0,-11.7039)">
					<title
   id="title21">Sheet.10952</title>
					<path
   d="m 18.86,92.86 a 3.74887,3.6378 0 0 1 3.81,-3.43 h 7.42 V 81.25 A 1.66184,1.6126 -180 0 0 28.35,79.72 H 1.73 A 1.65859,1.60945 -180 0 0 0,81.25 v 41.94 a 1.66184,1.6126 -180 0 0 1.74,1.52 h 17.12 z"
   class="st1"
   id="path23"
   inkscape:connector-curvature="0"
   style="fill:url(#grad0-6);stroke:none;stroke-width:34;stroke-linecap:butt" />
				</g>
				<g
   id="shape10953-7"
   transform="translate(4.41426,-33.9622)">
					<title
   id="title26">Sheet.10953</title>
					<path
   d="m 3.27,114.33 h 11.31 a 3.80081,3.68819 0 0 1 3.67,-2.64 h 3.14 a 3.38859,3.28819 -180 0 0 0.13,-0.87 3.45026,3.34803 -180 0 0 -3.27,-3.49 H 3.27 a 3.45026,3.34803 -180 0 0 -3.27,3.49 3.45026,3.34803 -180 0 0 3.27,3.51 z m 11.18,3.38 H 3.27 a 3.44702,3.34488 -180 0 0 -3.27,3.5 3.44702,3.34488 -180 0 0 3.27,3.5 h 11.18 z"
   class="st2"
   id="path28"
   inkscape:connector-curvature="0"
   style="fill:#341a6e;stroke:none;stroke-width:34;stroke-linecap:butt" />
				</g>
				<g
   id="shape10954-9"
   transform="translate(7.36783,-35.8289)">
					<title
   id="title31">Sheet.10954</title>
					<path
   d="m 4.11,112.69 a 2.40837,2.33701 0 1 1 -2.4,-2.34 2.40512,2.33386 0 0 1 2.4,2.34 z m 0,10.37 a 2.40837,2.33701 0 1 1 -2.4,-2.34 2.40837,2.33701 0 0 1 2.4,2.34 z"
   class="st3"
   id="path33"
   inkscape:connector-curvature="0"
   style="fill:#b796f9;stroke:none;stroke-width:34;stroke-linecap:butt" />
				</g>
				<g
   id="shape10955-11"
   transform="translate(20.932)">
					<title
   id="title36">Sheet.10955</title>
					<path
   d="m 1.66,124.71 h 26.78 a 1.65859,1.60945 -180 0 0 1.65,-1.52 V 81.26 A 1.65859,1.60945 -180 0 0 28.44,79.74 H 1.66 A 1.66184,1.6126 -180 0 0 0,81.26 v 41.93 a 1.66184,1.6126 -180 0 0 1.66,1.52 z"
   class="st4"
   id="path38"
   inkscape:connector-curvature="0"
   style="fill:url(#grad0-14);stroke:none;stroke-width:34;stroke-linecap:butt" />
				</g>
				<g
   id="shape10956-15"
   transform="translate(25.356,-22.2425)">
					<title
   id="title41">Sheet.10956</title>
					<path
   d="m 21.52,121.21 a 3.45026,3.34803 0 0 1 -3.27,3.5 H 3.27 a 3.45026,3.34803 0 0 1 -3.27,-3.5 3.45026,3.34803 0 0 1 3.27,-3.5 h 14.98 a 3.45026,3.34803 0 0 1 3.27,3.5 z m 0,-10.4 a 3.45026,3.34803 -180 0 0 -3.27,-3.5 H 3.27 a 3.45026,3.34803 -180 0 0 -3.27,3.51 3.45351,3.35118 -180 0 0 3.27,3.51 h 14.98 a 3.45351,3.35118 -180 0 0 3.27,-3.51 z"
   class="st5"
   id="path43"
   inkscape:connector-curvature="0"
   style="fill:#003067;stroke:none;stroke-width:34;stroke-linecap:butt" />
				</g>
				<g
   id="shape10957-17"
   transform="translate(28.3086,-24.1007)">
					<title
   id="title46">Sheet.10957</title>
					<path
   d="m 4.11,112.68 a 2.40837,2.33701 0 1 1 -2.41,-2.33 2.40837,2.33701 0 0 1 2.41,2.33 z m -2.41,8.04 a 2.40837,2.33701 -180 1 0 2.41,2.33 2.40512,2.33386 -180 0 0 -2.41,-2.33 z"
   class="st6"
   id="path48"
   inkscape:connector-curvature="0"
   style="fill:#83b9f9;stroke:none;stroke-width:34;stroke-linecap:butt" />
				</g>
			</g>
		</g>
	</g>
</svg>