<?xml version="1.0" encoding="UTF-8" standalone="no"?>
<!-- Generated by Microsoft Visio, SVG Export Batch AI.svg Page-1 -->

<svg
   xmlns:dc="http://purl.org/dc/elements/1.1/"
   xmlns:cc="http://creativecommons.org/ns#"
   xmlns:rdf="http://www.w3.org/1999/02/22-rdf-syntax-ns#"
   xmlns:svg="http://www.w3.org/2000/svg"
   xmlns="http://www.w3.org/2000/svg"
   xmlns:sodipodi="http://sodipodi.sourceforge.net/DTD/sodipodi-0.dtd"
   xmlns:inkscape="http://www.inkscape.org/namespaces/inkscape"
   width="39.681099"
   height="56.653927"
   viewBox="0 0 39.681098 56.653928"
   xml:space="preserve"
   class="st5"
   version="1.1"
   id="svg39"
   sodipodi:docname="Batch AI.svg"
   style="font-size:12px;overflow:visible;color-interpolation-filters:sRGB;fill:none;fill-rule:evenodd;stroke-linecap:square;stroke-miterlimit:3"
   inkscape:version="0.92.5 (2060ec1f9f, 2020-04-08)"><metadata
   id="metadata45"><rdf:RDF><cc:Work
       rdf:about=""><dc:format>image/svg+xml</dc:format><dc:type
         rdf:resource="http://purl.org/dc/dcmitype/StillImage" /></cc:Work></rdf:RDF></metadata><defs
   id="defs43" /><sodipodi:namedview
   pagecolor="#ffffff"
   bordercolor="#666666"
   borderopacity="1"
   objecttolerance="10"
   gridtolerance="10"
   guidetolerance="10"
   inkscape:pageopacity="0"
   inkscape:pageshadow="2"
   inkscape:window-width="640"
   inkscape:window-height="480"
   id="namedview41"
   showgrid="false"
   inkscape:zoom="2.2933106"
   inkscape:cx="19.8425"
   inkscape:cy="17.440301"
   inkscape:window-x="0"
   inkscape:window-y="0"
   inkscape:window-maximized="0"
   inkscape:current-layer="svg39" />
	<style
   type="text/css"
   id="style2">
	<![CDATA[
		.st1 {fill:#7a7a7a;stroke:none;stroke-linecap:butt;stroke-width:12.24}
		.st2 {fill:#ffffff;stroke:none;stroke-linecap:butt;stroke-width:12.24}
		.st3 {fill:#59b4d9;stroke:none;stroke-linecap:butt;stroke-width:12.24}
		.st4 {fill:#3999c6;stroke:none;stroke-linecap:butt;stroke-width:12.24}
		.st5 {fill:none;fill-rule:evenodd;font-size:12px;overflow:visible;stroke-linecap:square;stroke-miterlimit:3}
	]]>
	</style>

	<g
   id="g37"
   transform="translate(-12.24,-12.240375)">
		<title
   id="title4">Page-1</title>
		<g
   id="group7814-1"
   transform="translate(12.24,-34.0157)">
			<title
   id="title6">Batch AI</title>
			<g
   id="group7815-2">
				<title
   id="title8">Sheet.7815</title>
				<g
   id="shape7816-3"
   transform="translate(13.1952)">
					<title
   id="title10">Sheet.7816</title>
					<path
   d="m 0,93.81 h 13.24 v 3.41 H 0 Z m 3.31,9.1 H 8.83 L 12.85,99.5 H 0.15 Z"
   class="st1"
   id="path12"
   inkscape:connector-curvature="0"
   style="fill:#7a7a7a;stroke:none;stroke-width:12.23999977;stroke-linecap:butt" />
				</g>
				<g
   id="shape7817-5"
   transform="translate(0.110374,-11.4855)">
					<title
   id="title15">Sheet.7817</title>
					<path
   d="m 13.28,102.91 a 0.452534,0.466243 0 0 1 -0.462468,-0.44577 C 12.63,96.35 9.34,92.43 6.16,88.64 2.99,84.86 0,81.29 0,75.8 0,64.34 7.18,57.76 19.71,57.76 c 12.52,0 19.7,6.58 19.7,18.04 0,5.49 -2.99,9.06 -6.15,12.84 -3.18,3.79 -6.47,7.72 -6.66,13.82 a 0.452534,0.466243 0 0 1 -0.462468,0.44577 z"
   class="st2"
   id="path17"
   inkscape:connector-curvature="0"
   style="fill:#ffffff;stroke:none;stroke-width:12.23999977;stroke-linecap:butt" />
				</g>
				<g
   id="shape7818-7"
   transform="translate(0,-11.3718)">
					<title
   id="title20">Sheet.7818</title>
					<path
   d="m 18.71,58.77 c 0,-0.65 -0.53,-1.18 -1.16,-1.14 C 6.18,58.4 0,65.03 0,75.68 0,86.86 12.44,90.33 12.81,102.35 a 0.56622,0.583373 -180 0 0 0.573946,0.55608 L 17.61,102.91 a 1.10374,1.13718 -180 0 0 1.1,-1.14 z"
   class="st3"
   id="path22"
   inkscape:connector-curvature="0"
   style="fill:#59b4d9;stroke:none;stroke-width:12.23999977;stroke-linecap:butt" />
				</g>
				<g
   id="shape7819-9"
   transform="translate(20.9711,-11.3718)">
					<title
   id="title25">Sheet.7819</title>
					<path
   d="m 0,58.77 c 0,-0.65 0.54,-1.18 1.17,-1.14 11.36,0.77 17.54,7.4 17.54,18.05 0,11.18 -12.44,14.65 -12.81,26.67 a 0.56622,0.583373 0 0 1 -0.573946,0.55608 L 1.1,102.91 A 1.10374,1.13718 0 0 1 0,101.77 Z"
   class="st4"
   id="path27"
   inkscape:connector-curvature="0"
   style="fill:#3999c6;stroke:none;stroke-width:12.23999977;stroke-linecap:butt" />
				</g>
				<g
   id="shape7820-11"
   transform="translate(3.1843,-17.6126)">
					<title
   id="title30">Sheet.7820</title>
					<path
   d="m 23.36,81.6 -0.99,-2.03 -5.74,2.95 -5.73,-2.95 -0.99,2.03 6.04,3.11 h 1.37 z m -0.22,18.31 -0.99,-2.03 -5.52,2.84 -5.51,-2.84 -0.99,2.03 5.82,3 h 1.37 z M 10.93,73.21 10.23,71.05 5.44,72.7 1.69,68.83 c -0.54,0.53 -1.03,1.1 -1.48,1.7 l 3.67,3.78 -1.6,4.93 2.1,0.72 1.64,-5.06 z M 32.57,69.89 A 14.6025,15.0449 -180 0 0 30.99,68.3 l -4.27,4.4 -4.79,-1.65 -0.7,2.16 4.92,1.69 1.63,5.06 2.1,-0.72 -1.6,-4.93 z m 0.7,21.16 -5.09,-2.01 -0.43,-5.05 -2.2,0.2 0.46,5.32 -3.86,3.56 1.48,1.7 3.85,-3.57 4.37,1.72 a 37.8694,39.0166 -180 0 0 1.42,-1.87 z M 11.11,93.07 7.26,89.51 7.72,84.19 5.52,83.99 5.09,89.04 0,91.05 c 0.45,0.64 0.92,1.26 1.42,1.87 l 4.36,-1.72 3.86,3.57 z"
   class="st2"
   id="path32"
   inkscape:connector-curvature="0"
   style="fill:#ffffff;stroke:none;stroke-width:12.23999977;stroke-linecap:butt" />
				</g>
			</g>
		</g>
	</g>
</svg>