<?xml version="1.0" encoding="UTF-8" standalone="no"?>
<!-- Generated by Microsoft Visio, SVG Export Certification Authority Standalone.svg Page-1 -->

<svg
   xmlns:dc="http://purl.org/dc/elements/1.1/"
   xmlns:cc="http://creativecommons.org/ns#"
   xmlns:rdf="http://www.w3.org/1999/02/22-rdf-syntax-ns#"
   xmlns:svg="http://www.w3.org/2000/svg"
   xmlns="http://www.w3.org/2000/svg"
   xmlns:sodipodi="http://sodipodi.sourceforge.net/DTD/sodipodi-0.dtd"
   xmlns:inkscape="http://www.inkscape.org/namespaces/inkscape"
   width="51.028709"
   height="56.742092"
   viewBox="0 0 51.028709 56.742092"
   xml:space="preserve"
   class="st10"
   version="1.1"
   id="svg155"
   sodipodi:docname="Certification Authority Standalone.svg"
   style="font-size:12px;overflow:visible;color-interpolation-filters:sRGB;fill:none;fill-rule:evenodd;stroke-linecap:square;stroke-miterlimit:3"
   inkscape:version="0.92.5 (2060ec1f9f, 2020-04-08)"><metadata
   id="metadata159"><rdf:RDF><cc:Work
       rdf:about=""><dc:format>image/svg+xml</dc:format><dc:type
         rdf:resource="http://purl.org/dc/dcmitype/StillImage" /></cc:Work></rdf:RDF></metadata><sodipodi:namedview
   pagecolor="#ffffff"
   bordercolor="#666666"
   borderopacity="1"
   objecttolerance="10"
   gridtolerance="10"
   guidetolerance="10"
   inkscape:pageopacity="0"
   inkscape:pageshadow="2"
   inkscape:window-width="640"
   inkscape:window-height="480"
   id="namedview157"
   showgrid="false"
   inkscape:zoom="1.8487908"
   inkscape:cx="24.532409"
   inkscape:cy="28.876663"
   inkscape:window-x="0"
   inkscape:window-y="0"
   inkscape:window-maximized="0"
   inkscape:current-layer="svg155" />
	<style
   type="text/css"
   id="style2">
	<![CDATA[
		.st1 {fill:url(#grad0-11);stroke:none;stroke-linecap:butt;stroke-width:35.9597}
		.st2 {fill:#003067;stroke:none;stroke-linecap:butt;stroke-width:35.9597}
		.st3 {fill:#50e6ff;stroke:none;stroke-linecap:butt;stroke-width:35.9597}
		.st4 {fill:url(#grad0-30);stroke:none;stroke-linecap:butt;stroke-width:34}
		.st5 {fill:#ffffff;stroke:none;stroke-linecap:butt;stroke-width:33.9998}
		.st6 {fill:#59d100;stroke:none;stroke-linecap:butt;stroke-width:33.9998}
		.st7 {fill:#5e9624;stroke:none;stroke-linecap:butt;stroke-width:33.9998}
		.st8 {fill:#14b414;stroke:none;stroke-linecap:butt;stroke-width:33.9998}
		.st9 {fill:#84e600;stroke:none;stroke-linecap:butt;stroke-width:33.9998}
		.st10 {fill:none;fill-rule:evenodd;font-size:12px;overflow:visible;stroke-linecap:square;stroke-miterlimit:3}
	]]>
	</style>

	<defs
   id="Patterns_And_Gradients">
		<linearGradient
   id="grad0-11"
   x1="-0.00039643963"
   y1="55.876927"
   x2="43.298371"
   y2="55.876927"
   gradientTransform="scale(0.77693454,1.2871097)"
   gradientUnits="userSpaceOnUse">
			<stop
   offset="0"
   stop-color="#949494"
   stop-opacity="1"
   id="stop4" />
			<stop
   offset="0.53"
   stop-color="#a2a2a2"
   stop-opacity="1"
   id="stop6" />
			<stop
   offset="1"
   stop-color="#b3b3b3"
   stop-opacity="1"
   id="stop8" />
		</linearGradient>
		<linearGradient
   id="grad0-30"
   x1="0"
   y1="127.46715"
   x2="28.58143"
   y2="127.46715"
   gradientTransform="scale(1.2224721,0.81801459)"
   gradientUnits="userSpaceOnUse">
			<stop
   offset="0"
   stop-color="#5e9624"
   stop-opacity="1"
   id="stop11" />
			<stop
   offset="0.18"
   stop-color="#629c25"
   stop-opacity="1"
   id="stop13" />
			<stop
   offset="0.44"
   stop-color="#6dae2a"
   stop-opacity="1"
   id="stop15" />
			<stop
   offset="0.73"
   stop-color="#7fcb30"
   stop-opacity="1"
   id="stop17" />
			<stop
   offset="0.82"
   stop-color="#86d633"
   stop-opacity="1"
   id="stop19" />
		</linearGradient>
	</defs>
	<g
   id="g153"
   transform="translate(-35.959592,-35.960071)">
		<title
   id="title23">Page-1</title>
		<g
   id="group7299-1"
   transform="translate(35.9599,-34.9977)">
			<title
   id="title25">Certification Authority Standalone</title>
			<g
   id="group7300-2">
				<title
   id="title27">Page-1</title>
				<g
   id="group7301-3">
					<title
   id="title29">Sheet.7301</title>
					<g
   id="group7302-4"
   transform="translate(0,-0.961965)">
						<title
   id="title31">Sheet.7302</title>
						<g
   id="group7303-5">
							<title
   id="title33">Icon-databases-136.149</title>
							<g
   id="group7304-6">
								<title
   id="title35">path4-5</title>
								<g
   id="group7305-7">
									<title
   id="title37">Sheet.7305</title>
									<g
   id="shape7306-8">
										<title
   id="title39">Sheet.7306</title>
										<path
   d="m 33.64,125.75 a 1.98655,1.9335 -180 0 1 -1.95,1.9 H 1.95 A 1.95231,1.90015 -180 0 1 0,125.75 V 73.82 a 1.91805,1.86681 -180 0 1 1.95,-1.9 h 29.74 a 1.95231,1.90015 -180 0 1 1.95,1.9 z"
   class="st1"
   id="path41"
   inkscape:connector-curvature="0"
   style="fill:url(#grad0-11);stroke:none;stroke-width:35.95970154;stroke-linecap:butt" />
									</g>
								</g>
							</g>
							<g
   id="group7307-12"
   transform="translate(4.93214,-32.6359)">
								<title
   id="title46">path6-7</title>
								<g
   id="group7308-13">
									<title
   id="title48">Sheet.7308</title>
									<g
   id="shape7309-14">
										<title
   id="title50">Sheet.7309</title>
										<path
   d="m 0,124.09 a 3.66485,3.56696 -180 0 1 3.63,-3.54 h 16.78 a 3.66485,3.56696 -180 0 1 3.77,3.54 3.66485,3.56696 -180 0 1 -3.77,3.56 H 3.63 A 3.66485,3.56696 -180 0 1 0,124.09 Z m 0,-10.54 a 3.66485,3.56696 -180 0 1 3.63,-3.56 h 16.78 a 3.66485,3.56696 -180 0 1 3.77,3.56 3.66485,3.56696 -180 0 1 -3.77,3.54 H 3.63 A 3.66485,3.56696 -180 0 1 0,113.55 Z"
   class="st2"
   id="path52"
   inkscape:connector-curvature="0"
   style="fill:#003067;stroke:none;stroke-width:35.95970154;stroke-linecap:butt" />
									</g>
								</g>
							</g>
							<g
   id="group7310-16"
   transform="translate(6.30218,-44.3323)">
								<title
   id="title57">circle8-5</title>
								<g
   id="group7311-17">
									<title
   id="title59">Sheet.7311</title>
									<g
   id="shape7312-18">
										<title
   id="title61">Sheet.7312</title>
										<ellipse
   cx="2.4660699"
   cy="125.25"
   rx="2.4660699"
   ry="2.4001999"
   class="st3"
   id="ellipse63"
   style="fill:#50e6ff;stroke:none;stroke-width:35.95970154;stroke-linecap:butt" />
									</g>
								</g>
							</g>
							<g
   id="group7313-20"
   transform="translate(6.30218,-33.7982)">
								<title
   id="title68">circle10-2</title>
								<g
   id="group7314-21">
									<title
   id="title70">Sheet.7314</title>
									<g
   id="shape7315-22">
										<title
   id="title72">Sheet.7315</title>
										<ellipse
   cx="2.4660699"
   cy="125.25"
   rx="2.4660699"
   ry="2.4001999"
   class="st3"
   id="ellipse74"
   style="fill:#50e6ff;stroke:none;stroke-width:35.95970154;stroke-linecap:butt" />
									</g>
								</g>
							</g>
						</g>
					</g>
					<g
   id="group7316-24"
   transform="translate(16.0884)">
						<title
   id="title81">Sheet.7316</title>
						<g
   id="group7317-25"
   transform="translate(0,-6.63265)">
							<title
   id="title83">rect2</title>
							<g
   id="group7318-26">
								<title
   id="title85">Sheet.7318</title>
								<g
   id="shape7319-27">
									<title
   id="title87">Sheet.7319</title>
									<path
   d="m 0,126.56 a 1.16436,1.1008 0 0 0 1.16,1.09 h 32.61 a 1.16436,1.1008 0 0 0 1.17,-1.09 v -21.2 a 1.16436,1.1008 0 0 0 -1.17,-1.09 H 1.16 A 1.16436,1.1008 0 0 0 0,105.36 Z"
   class="st4"
   id="path89"
   inkscape:connector-curvature="0"
   style="fill:url(#grad0-30);stroke:none;stroke-width:34;stroke-linecap:butt" />
								</g>
							</g>
						</g>
						<g
   id="group7320-31"
   transform="translate(2.03758,-8.88017)">
							<title
   id="title94">rect4</title>
							<g
   id="group7321-32">
								<title
   id="title96">Sheet.7321</title>
								<g
   id="shape7322-33">
									<title
   id="title98">Sheet.7322</title>
									<path
   d="m 0,127.1 a 0.582179,0.550401 0 0 0 0.582166,0.55039 L 30.28,127.64 a 0.582179,0.550401 0 0 0 0.582166,-0.55039 L 30.86,108.93 a 0.582179,0.550401 0 0 0 -0.582166,-0.55039 L 0.59,108.39 a 0.582179,0.550401 0 0 0 -0.582166,0.55039 z"
   class="st5"
   id="path100"
   inkscape:connector-curvature="0"
   style="fill:#ffffff;stroke:none;stroke-width:33.99980164;stroke-linecap:butt" />
								</g>
							</g>
						</g>
						<g
   id="group7323-35"
   transform="translate(6.72109,-13.9432)">
							<title
   id="title105">path6</title>
							<g
   id="group7324-36">
								<title
   id="title107">Sheet.7324</title>
								<g
   id="shape7325-37">
									<title
   id="title109">Sheet.7325</title>
									<path
   d="m 22.29,127.12 a 0.56276,0.532043 0 0 1 -0.56276,0.53204 L 9.12,127.65 a 0.56276,0.532043 0 1 1 0,-1.06225 l 12.6,0.0122 a 0.560819,0.530208 0 0 1 0.56276,0.53021 z m 0,-3.28 a 0.560819,0.530208 0 0 1 -0.56276,0.53021 L 9.12,124.36 a 0.56276,0.532043 0 1 1 0,-1.06225 l 12.6,-0.008 a 0.56276,0.532043 0 0 1 0.56276,0.53204 z m 0,-4.8 a 0.56276,0.532043 0 0 1 -0.56276,0.53204 L 0.6,119.57 a 0.56276,0.532043 0 1 1 0,-1.06225 l 21.12,0.002 a 0.560819,0.530208 0 0 1 0.56276,0.53021 z"
   class="st6"
   id="path111"
   inkscape:connector-curvature="0"
   style="fill:#59d100;stroke:none;stroke-width:33.99980164;stroke-linecap:butt" />
								</g>
							</g>
						</g>
						<g
   id="group7326-39"
   transform="translate(3.00204)">
							<title
   id="title116">path8</title>
							<g
   id="group7327-40">
								<title
   id="title118">Sheet.7327</title>
								<g
   id="shape7328-41">
									<title
   id="title120">Sheet.7328</title>
									<path
   d="m 6.95,119.33 a 4.8999,4.63244 0 0 1 -6.54,0 L 0,127.03 a 0.646204,0.610932 0 0 0 1.10611,0.45866 L 3.62,125.06 l 2.55,2.45 a 0.646204,0.610932 0 0 0 1.11388,-0.44581 z"
   class="st7"
   id="path122"
   inkscape:connector-curvature="0"
   style="fill:#5e9624;stroke:none;stroke-width:33.99980164;stroke-linecap:butt" />
								</g>
							</g>
						</g>
						<g
   id="group7329-43"
   transform="translate(0.904297,-6.70765)">
							<title
   id="title127">ellipse10</title>
							<g
   id="group7330-44">
								<title
   id="title129">Sheet.7330</title>
								<g
   id="shape7331-45">
									<title
   id="title131">Sheet.7331</title>
									<ellipse
   cx="5.84688"
   cy="122.104"
   rx="5.84688"
   ry="5.5460901"
   class="st8"
   id="ellipse133"
   style="fill:#14b414;stroke:none;stroke-width:33.99980164;stroke-linecap:butt" />
								</g>
							</g>
						</g>
						<g
   id="group7332-47"
   transform="translate(2.31508,-8.04662)">
							<title
   id="title138">ellipse12</title>
							<g
   id="group7333-48">
								<title
   id="title140">Sheet.7333</title>
								<g
   id="shape7334-49">
									<title
   id="title142">Sheet.7334</title>
									<ellipse
   cx="4.4361"
   cy="123.444"
   rx="4.4361"
   ry="4.20681"
   class="st9"
   id="ellipse144"
   style="fill:#84e600;stroke:none;stroke-width:33.99980164;stroke-linecap:butt" />
								</g>
							</g>
						</g>
					</g>
				</g>
			</g>
		</g>
	</g>
</svg>