<?xml version="1.0" encoding="UTF-8" standalone="no"?>
<!-- Generated by Microsoft Visio, SVG Export Clusters (Operator Nexus).svg Page-1 -->

<svg
   xmlns:dc="http://purl.org/dc/elements/1.1/"
   xmlns:cc="http://creativecommons.org/ns#"
   xmlns:rdf="http://www.w3.org/1999/02/22-rdf-syntax-ns#"
   xmlns:svg="http://www.w3.org/2000/svg"
   xmlns="http://www.w3.org/2000/svg"
   xmlns:xlink="http://www.w3.org/1999/xlink"
   xmlns:sodipodi="http://sodipodi.sourceforge.net/DTD/sodipodi-0.dtd"
   xmlns:inkscape="http://www.inkscape.org/namespaces/inkscape"
   width="56.693901"
   height="42.521427"
   viewBox="0 0 56.6939 42.521427"
   xml:space="preserve"
   class="st5"
   version="1.1"
   id="svg341"
   sodipodi:docname="Clusters (Operator Nexus).svg"
   style="font-size:12px;overflow:visible;color-interpolation-filters:sRGB;fill:none;fill-rule:evenodd;stroke-linecap:square;stroke-miterlimit:3"
   inkscape:version="0.92.5 (2060ec1f9f, 2020-04-08)"><metadata
   id="metadata345"><rdf:RDF><cc:Work
       rdf:about=""><dc:format>image/svg+xml</dc:format><dc:type
         rdf:resource="http://purl.org/dc/dcmitype/StillImage" /></cc:Work></rdf:RDF></metadata><sodipodi:namedview
   pagecolor="#ffffff"
   bordercolor="#666666"
   borderopacity="1"
   objecttolerance="10"
   gridtolerance="10"
   guidetolerance="10"
   inkscape:pageopacity="0"
   inkscape:pageshadow="2"
   inkscape:window-width="640"
   inkscape:window-height="480"
   id="namedview343"
   showgrid="false"
   inkscape:zoom="2.5229605"
   inkscape:cx="28.346451"
   inkscape:cy="12.753849"
   inkscape:window-x="0"
   inkscape:window-y="0"
   inkscape:window-maximized="0"
   inkscape:current-layer="svg341" />
	<style
   type="text/css"
   id="style2">
	<![CDATA[
		.st1 {fill:url(#grad0-6);stroke:none;stroke-linecap:butt;stroke-width:17}
		.st2 {fill:#0078d4;stroke:none;stroke-linecap:butt;stroke-width:17}
		.st3 {fill:#50e6ff;stroke:none;stroke-linecap:butt;stroke-width:17}
		.st4 {fill:#ffffff;stroke:none;stroke-linecap:butt;stroke-width:17}
		.st5 {fill:none;fill-rule:evenodd;font-size:12px;overflow:visible;stroke-linecap:square;stroke-miterlimit:3}
	]]>
	</style>

	<defs
   id="Patterns_And_Gradients">
		<linearGradient
   id="grad0-6"
   x1="0"
   y1="0"
   x2="1"
   y2="0"
   gradientTransform="rotate(-92.765762,0.5,0.5)">
			<stop
   offset="0"
   stop-color="#0078d4"
   stop-opacity="1"
   id="stop4" />
			<stop
   offset="0.16"
   stop-color="#1380da"
   stop-opacity="1"
   id="stop6" />
			<stop
   offset="0.53"
   stop-color="#3c91e5"
   stop-opacity="1"
   id="stop8" />
			<stop
   offset="0.82"
   stop-color="#559cec"
   stop-opacity="1"
   id="stop10" />
			<stop
   offset="1"
   stop-color="#5ea0ef"
   stop-opacity="1"
   id="stop12" />
		</linearGradient>
	<linearGradient
   inkscape:collect="always"
   xlink:href="#grad0-6"
   id="linearGradient4855"
   gradientTransform="scale(1.1820623,0.8459791)"
   x1="0"
   y1="71.519712"
   x2="39.050395"
   y2="71.519712"
   gradientUnits="userSpaceOnUse" /><linearGradient
   inkscape:collect="always"
   xlink:href="#grad0-6"
   id="linearGradient4857"
   gradientTransform="scale(1.1820623,0.8459791)"
   x1="0"
   y1="71.519712"
   x2="39.050395"
   y2="71.519712"
   gradientUnits="userSpaceOnUse" /><linearGradient
   inkscape:collect="always"
   xlink:href="#grad0-6"
   id="linearGradient4859"
   gradientTransform="scale(1.1820623,0.8459791)"
   x1="0"
   y1="71.519712"
   x2="39.050395"
   y2="71.519712"
   gradientUnits="userSpaceOnUse" /><linearGradient
   inkscape:collect="always"
   xlink:href="#grad0-6"
   id="linearGradient4861"
   gradientTransform="scale(1.1820623,0.8459791)"
   x1="0"
   y1="71.519712"
   x2="39.050395"
   y2="71.519712"
   gradientUnits="userSpaceOnUse" /><linearGradient
   inkscape:collect="always"
   xlink:href="#grad0-6"
   id="linearGradient4863"
   gradientTransform="scale(1.1820623,0.8459791)"
   x1="0"
   y1="71.519712"
   x2="39.050395"
   y2="71.519712"
   gradientUnits="userSpaceOnUse" /><linearGradient
   inkscape:collect="always"
   xlink:href="#grad0-6"
   id="linearGradient4865"
   gradientTransform="scale(1.1820623,0.8459791)"
   x1="0"
   y1="71.519712"
   x2="39.050395"
   y2="71.519712"
   gradientUnits="userSpaceOnUse" /><linearGradient
   inkscape:collect="always"
   xlink:href="#grad0-6"
   id="linearGradient4867"
   gradientTransform="scale(1.1820623,0.8459791)"
   x1="0"
   y1="71.519712"
   x2="39.050395"
   y2="71.519712"
   gradientUnits="userSpaceOnUse" /><linearGradient
   inkscape:collect="always"
   xlink:href="#grad0-6"
   id="linearGradient4869"
   gradientTransform="scale(1.1820623,0.8459791)"
   x1="0"
   y1="71.519712"
   x2="39.050395"
   y2="71.519712"
   gradientUnits="userSpaceOnUse" /><linearGradient
   inkscape:collect="always"
   xlink:href="#grad0-6"
   id="linearGradient4871"
   gradientTransform="scale(1.1820623,0.8459791)"
   x1="0"
   y1="71.519712"
   x2="39.050395"
   y2="71.519712"
   gradientUnits="userSpaceOnUse" /></defs>
	<g
   id="g339"
   transform="translate(-17,-17.002872)">
		<title
   id="title16">Page-1</title>
		<g
   id="group7010-1"
   transform="translate(17,-34.0157)">
			<title
   id="title18">Clusters (Operator Nexus)</title>
			<g
   id="group7011-2">
				<title
   id="title20">Sheet.7011</title>
				<g
   id="shape7012-3"
   transform="translate(10.5339,-9.48561)">
					<title
   id="title22">Sheet.7012</title>
					<path
   d="M 43.49,76.4 A 10.5071,10.2757 -180 0 0 37.03,73.02 13.4535,13.1573 -180 0 0 32.82,64 13.178,12.8877 -180 0 0 23.4,60.51 13.5291,13.2312 -180 0 0 15.46,62.88 13.7465,13.4437 -180 0 0 10.39,69.36 12.4866,12.2116 -180 0 0 2.62,73.3 12.6661,12.3872 -180 0 0 0,77.73 H 19.03 V 93.54 H 35.6 a 10.6079,10.3743 -180 0 0 7.44,-3.08 10.822,10.5837 -180 0 0 3.12,-7.35 10.6929,10.4574 -180 0 0 -2.67,-6.71 z"
   class="st1"
   id="path24"
   inkscape:connector-curvature="0"
   style="fill:url(#linearGradient4855);stroke:none;stroke-width:17;stroke-linecap:butt" />
				</g>
				<g
   id="shape7013-7"
   transform="translate(0,-18.8711)">
					<title
   id="title27">Sheet.7013</title>
					<path
   d="M 29.68,86.07 H 0 v 7.47 h 29.68 z"
   class="st2"
   id="path29"
   inkscape:connector-curvature="0"
   style="fill:#0078d4;stroke:none;stroke-width:17;stroke-linecap:butt" />
				</g>
				<g
   id="shape7014-9"
   transform="translate(2.75266,-20.8286)">
					<title
   id="title32">Sheet.7014</title>
					<path
   d="m 1.76,93.54 a 1.8149676,1.775 -180 1 0 0,-3.55 1.8149676,1.775 -180 0 0 0,3.55 z"
   class="st3"
   id="path34"
   inkscape:connector-curvature="0"
   style="fill:#50e6ff;stroke:none;stroke-width:17;stroke-linecap:butt" />
				</g>
				<g
   id="shape7015-11"
   transform="translate(0,-9.48253)">
					<title
   id="title37">Sheet.7015</title>
					<path
   d="M 29.68,86.08 H 0 v 7.46 h 29.68 z"
   class="st2"
   id="path39"
   inkscape:connector-curvature="0"
   style="fill:#0078d4;stroke:none;stroke-width:17;stroke-linecap:butt" />
				</g>
				<g
   id="shape7016-13"
   transform="translate(2.69921,-11.4385)">
					<title
   id="title42">Sheet.7016</title>
					<path
   d="m 1.81,93.54 a 1.8149676,1.775 -180 1 0 0,-3.55 1.8149676,1.775 -180 0 0 0,3.55 z"
   class="st3"
   id="path44"
   inkscape:connector-curvature="0"
   style="fill:#50e6ff;stroke:none;stroke-width:17;stroke-linecap:butt" />
				</g>
				<g
   id="shape7017-15">
					<title
   id="title47">Sheet.7017</title>
					<path
   d="M 29.68,86.08 H 0 v 7.46 h 29.68 z"
   class="st2"
   id="path49"
   inkscape:connector-curvature="0"
   style="fill:#0078d4;stroke:none;stroke-width:17;stroke-linecap:butt" />
				</g>
				<g
   id="shape7018-17"
   transform="translate(2.69921,-1.95749)">
					<title
   id="title52">Sheet.7018</title>
					<path
   d="m 1.81,93.54 a 1.8149676,1.775 -180 1 0 0,-3.55 1.8149676,1.775 -180 0 0 0,3.55 z"
   class="st3"
   id="path54"
   inkscape:connector-curvature="0"
   style="fill:#50e6ff;stroke:none;stroke-width:17;stroke-linecap:butt" />
				</g>
				<g
   id="shape7019-19"
   transform="translate(10.5339,-9.48561)">
					<title
   id="title57">Sheet.7019</title>
					<path
   d="M 43.49,76.4 A 10.5071,10.2757 -180 0 0 37.03,73.02 13.4535,13.1573 -180 0 0 32.82,64 13.178,12.8877 -180 0 0 23.4,60.51 13.5291,13.2312 -180 0 0 15.46,62.88 13.7465,13.4437 -180 0 0 10.39,69.36 12.4866,12.2116 -180 0 0 2.62,73.3 12.6661,12.3872 -180 0 0 0,77.73 H 19.03 V 93.54 H 35.6 a 10.6079,10.3743 -180 0 0 7.44,-3.08 10.822,10.5837 -180 0 0 3.12,-7.35 10.6929,10.4574 -180 0 0 -2.67,-6.71 z"
   class="st1"
   id="path59"
   inkscape:connector-curvature="0"
   style="fill:url(#linearGradient4857);stroke:none;stroke-width:17;stroke-linecap:butt" />
				</g>
				<g
   id="shape7020-22"
   transform="translate(0,-18.8711)">
					<title
   id="title62">Sheet.7020</title>
					<path
   d="M 29.68,86.07 H 0 v 7.47 h 29.68 z"
   class="st2"
   id="path64"
   inkscape:connector-curvature="0"
   style="fill:#0078d4;stroke:none;stroke-width:17;stroke-linecap:butt" />
				</g>
				<g
   id="shape7021-24"
   transform="translate(2.75266,-20.8286)">
					<title
   id="title67">Sheet.7021</title>
					<path
   d="m 1.76,93.54 a 1.8149676,1.775 -180 1 0 0,-3.55 1.8149676,1.775 -180 0 0 0,3.55 z"
   class="st3"
   id="path69"
   inkscape:connector-curvature="0"
   style="fill:#50e6ff;stroke:none;stroke-width:17;stroke-linecap:butt" />
				</g>
				<g
   id="shape7022-26"
   transform="translate(0,-9.48253)">
					<title
   id="title72">Sheet.7022</title>
					<path
   d="M 29.68,86.08 H 0 v 7.46 h 29.68 z"
   class="st2"
   id="path74"
   inkscape:connector-curvature="0"
   style="fill:#0078d4;stroke:none;stroke-width:17;stroke-linecap:butt" />
				</g>
				<g
   id="shape7023-28"
   transform="translate(2.69921,-11.4385)">
					<title
   id="title77">Sheet.7023</title>
					<path
   d="m 1.81,93.54 a 1.8149676,1.775 -180 1 0 0,-3.55 1.8149676,1.775 -180 0 0 0,3.55 z"
   class="st3"
   id="path79"
   inkscape:connector-curvature="0"
   style="fill:#50e6ff;stroke:none;stroke-width:17;stroke-linecap:butt" />
				</g>
				<g
   id="shape7024-30">
					<title
   id="title82">Sheet.7024</title>
					<path
   d="M 29.68,86.08 H 0 v 7.46 h 29.68 z"
   class="st2"
   id="path84"
   inkscape:connector-curvature="0"
   style="fill:#0078d4;stroke:none;stroke-width:17;stroke-linecap:butt" />
				</g>
				<g
   id="shape7025-32"
   transform="translate(2.69921,-1.95749)">
					<title
   id="title87">Sheet.7025</title>
					<path
   d="m 1.81,93.54 a 1.8149676,1.775 -180 1 0 0,-3.55 1.8149676,1.775 -180 0 0 0,3.55 z"
   class="st3"
   id="path89"
   inkscape:connector-curvature="0"
   style="fill:#50e6ff;stroke:none;stroke-width:17;stroke-linecap:butt" />
				</g>
				<g
   id="shape7026-34"
   transform="translate(10.5339,-9.48561)">
					<title
   id="title92">Sheet.7026</title>
					<path
   d="M 43.49,76.4 A 10.5071,10.2757 -180 0 0 37.03,73.02 13.4535,13.1573 -180 0 0 32.82,64 13.178,12.8877 -180 0 0 23.4,60.51 13.5291,13.2312 -180 0 0 15.46,62.88 13.7465,13.4437 -180 0 0 10.39,69.36 12.4866,12.2116 -180 0 0 2.62,73.3 12.6661,12.3872 -180 0 0 0,77.73 H 19.03 V 93.54 H 35.6 a 10.6079,10.3743 -180 0 0 7.44,-3.08 10.822,10.5837 -180 0 0 3.12,-7.35 10.6929,10.4574 -180 0 0 -2.67,-6.71 z"
   class="st1"
   id="path94"
   inkscape:connector-curvature="0"
   style="fill:url(#linearGradient4859);stroke:none;stroke-width:17;stroke-linecap:butt" />
				</g>
				<g
   id="shape7027-37"
   transform="translate(0,-18.8711)">
					<title
   id="title97">Sheet.7027</title>
					<path
   d="M 29.68,86.07 H 0 v 7.47 h 29.68 z"
   class="st2"
   id="path99"
   inkscape:connector-curvature="0"
   style="fill:#0078d4;stroke:none;stroke-width:17;stroke-linecap:butt" />
				</g>
				<g
   id="shape7028-39"
   transform="translate(2.75266,-20.8286)">
					<title
   id="title102">Sheet.7028</title>
					<path
   d="m 1.76,93.54 a 1.8149676,1.775 -180 1 0 0,-3.55 1.8149676,1.775 -180 0 0 0,3.55 z"
   class="st3"
   id="path104"
   inkscape:connector-curvature="0"
   style="fill:#50e6ff;stroke:none;stroke-width:17;stroke-linecap:butt" />
				</g>
				<g
   id="shape7029-41"
   transform="translate(0,-9.48253)">
					<title
   id="title107">Sheet.7029</title>
					<path
   d="M 29.68,86.08 H 0 v 7.46 h 29.68 z"
   class="st2"
   id="path109"
   inkscape:connector-curvature="0"
   style="fill:#0078d4;stroke:none;stroke-width:17;stroke-linecap:butt" />
				</g>
				<g
   id="shape7030-43"
   transform="translate(2.69921,-11.4385)">
					<title
   id="title112">Sheet.7030</title>
					<path
   d="m 1.81,93.54 a 1.8149676,1.775 -180 1 0 0,-3.55 1.8149676,1.775 -180 0 0 0,3.55 z"
   class="st3"
   id="path114"
   inkscape:connector-curvature="0"
   style="fill:#50e6ff;stroke:none;stroke-width:17;stroke-linecap:butt" />
				</g>
				<g
   id="shape7031-45">
					<title
   id="title117">Sheet.7031</title>
					<path
   d="M 29.68,86.08 H 0 v 7.46 h 29.68 z"
   class="st2"
   id="path119"
   inkscape:connector-curvature="0"
   style="fill:#0078d4;stroke:none;stroke-width:17;stroke-linecap:butt" />
				</g>
				<g
   id="shape7032-47"
   transform="translate(2.69921,-1.95749)">
					<title
   id="title122">Sheet.7032</title>
					<path
   d="m 1.81,93.54 a 1.8149676,1.775 -180 1 0 0,-3.55 1.8149676,1.775 -180 0 0 0,3.55 z"
   class="st3"
   id="path124"
   inkscape:connector-curvature="0"
   style="fill:#50e6ff;stroke:none;stroke-width:17;stroke-linecap:butt" />
				</g>
				<g
   id="shape7033-49"
   transform="translate(10.5339,-9.48561)">
					<title
   id="title127">Sheet.7033</title>
					<path
   d="M 43.49,76.4 A 10.5071,10.2757 -180 0 0 37.03,73.02 13.4535,13.1573 -180 0 0 32.82,64 13.178,12.8877 -180 0 0 23.4,60.51 13.5291,13.2312 -180 0 0 15.46,62.88 13.7465,13.4437 -180 0 0 10.39,69.36 12.4866,12.2116 -180 0 0 2.62,73.3 12.6661,12.3872 -180 0 0 0,77.73 H 19.03 V 93.54 H 35.6 a 10.6079,10.3743 -180 0 0 7.44,-3.08 10.822,10.5837 -180 0 0 3.12,-7.35 10.6929,10.4574 -180 0 0 -2.67,-6.71 z"
   class="st1"
   id="path129"
   inkscape:connector-curvature="0"
   style="fill:url(#linearGradient4861);stroke:none;stroke-width:17;stroke-linecap:butt" />
				</g>
				<g
   id="shape7034-52"
   transform="translate(0,-18.8711)">
					<title
   id="title132">Sheet.7034</title>
					<path
   d="M 29.68,86.07 H 0 v 7.47 h 29.68 z"
   class="st2"
   id="path134"
   inkscape:connector-curvature="0"
   style="fill:#0078d4;stroke:none;stroke-width:17;stroke-linecap:butt" />
				</g>
				<g
   id="shape7035-54"
   transform="translate(2.75266,-20.8286)">
					<title
   id="title137">Sheet.7035</title>
					<path
   d="m 1.76,93.54 a 1.8149676,1.775 -180 1 0 0,-3.55 1.8149676,1.775 -180 0 0 0,3.55 z"
   class="st3"
   id="path139"
   inkscape:connector-curvature="0"
   style="fill:#50e6ff;stroke:none;stroke-width:17;stroke-linecap:butt" />
				</g>
				<g
   id="shape7036-56"
   transform="translate(0,-9.48253)">
					<title
   id="title142">Sheet.7036</title>
					<path
   d="M 29.68,86.08 H 0 v 7.46 h 29.68 z"
   class="st2"
   id="path144"
   inkscape:connector-curvature="0"
   style="fill:#0078d4;stroke:none;stroke-width:17;stroke-linecap:butt" />
				</g>
				<g
   id="shape7037-58"
   transform="translate(2.69921,-11.4385)">
					<title
   id="title147">Sheet.7037</title>
					<path
   d="m 1.81,93.54 a 1.8149676,1.775 -180 1 0 0,-3.55 1.8149676,1.775 -180 0 0 0,3.55 z"
   class="st3"
   id="path149"
   inkscape:connector-curvature="0"
   style="fill:#50e6ff;stroke:none;stroke-width:17;stroke-linecap:butt" />
				</g>
				<g
   id="shape7038-60">
					<title
   id="title152">Sheet.7038</title>
					<path
   d="M 29.68,86.08 H 0 v 7.46 h 29.68 z"
   class="st2"
   id="path154"
   inkscape:connector-curvature="0"
   style="fill:#0078d4;stroke:none;stroke-width:17;stroke-linecap:butt" />
				</g>
				<g
   id="shape7039-62"
   transform="translate(2.69921,-1.95749)">
					<title
   id="title157">Sheet.7039</title>
					<path
   d="m 1.81,93.54 a 1.8149676,1.775 -180 1 0 0,-3.55 1.8149676,1.775 -180 0 0 0,3.55 z"
   class="st3"
   id="path159"
   inkscape:connector-curvature="0"
   style="fill:#50e6ff;stroke:none;stroke-width:17;stroke-linecap:butt" />
				</g>
				<g
   id="shape7040-64"
   transform="translate(10.5339,-9.48561)">
					<title
   id="title162">Sheet.7040</title>
					<path
   d="M 43.49,76.4 A 10.5071,10.2757 -180 0 0 37.03,73.02 13.4535,13.1573 -180 0 0 32.82,64 13.178,12.8877 -180 0 0 23.4,60.51 13.5291,13.2312 -180 0 0 15.46,62.88 13.7465,13.4437 -180 0 0 10.39,69.36 12.4866,12.2116 -180 0 0 2.62,73.3 12.6661,12.3872 -180 0 0 0,77.73 H 19.03 V 93.54 H 35.6 a 10.6079,10.3743 -180 0 0 7.44,-3.08 10.822,10.5837 -180 0 0 3.12,-7.35 10.6929,10.4574 -180 0 0 -2.67,-6.71 z"
   class="st1"
   id="path164"
   inkscape:connector-curvature="0"
   style="fill:url(#linearGradient4863);stroke:none;stroke-width:17;stroke-linecap:butt" />
				</g>
				<g
   id="shape7041-67"
   transform="translate(0,-18.8711)">
					<title
   id="title167">Sheet.7041</title>
					<path
   d="M 29.68,86.07 H 0 v 7.47 h 29.68 z"
   class="st2"
   id="path169"
   inkscape:connector-curvature="0"
   style="fill:#0078d4;stroke:none;stroke-width:17;stroke-linecap:butt" />
				</g>
				<g
   id="shape7042-69"
   transform="translate(2.75266,-20.8286)">
					<title
   id="title172">Sheet.7042</title>
					<path
   d="m 1.76,93.54 a 1.8149676,1.775 -180 1 0 0,-3.55 1.8149676,1.775 -180 0 0 0,3.55 z"
   class="st3"
   id="path174"
   inkscape:connector-curvature="0"
   style="fill:#50e6ff;stroke:none;stroke-width:17;stroke-linecap:butt" />
				</g>
				<g
   id="shape7043-71"
   transform="translate(0,-9.48253)">
					<title
   id="title177">Sheet.7043</title>
					<path
   d="M 29.68,86.08 H 0 v 7.46 h 29.68 z"
   class="st2"
   id="path179"
   inkscape:connector-curvature="0"
   style="fill:#0078d4;stroke:none;stroke-width:17;stroke-linecap:butt" />
				</g>
				<g
   id="shape7044-73"
   transform="translate(2.69921,-11.4385)">
					<title
   id="title182">Sheet.7044</title>
					<path
   d="m 1.81,93.54 a 1.8149676,1.775 -180 1 0 0,-3.55 1.8149676,1.775 -180 0 0 0,3.55 z"
   class="st3"
   id="path184"
   inkscape:connector-curvature="0"
   style="fill:#50e6ff;stroke:none;stroke-width:17;stroke-linecap:butt" />
				</g>
				<g
   id="shape7045-75">
					<title
   id="title187">Sheet.7045</title>
					<path
   d="M 29.68,86.08 H 0 v 7.46 h 29.68 z"
   class="st2"
   id="path189"
   inkscape:connector-curvature="0"
   style="fill:#0078d4;stroke:none;stroke-width:17;stroke-linecap:butt" />
				</g>
				<g
   id="shape7046-77"
   transform="translate(2.69921,-1.95749)">
					<title
   id="title192">Sheet.7046</title>
					<path
   d="m 1.81,93.54 a 1.8149676,1.775 -180 1 0 0,-3.55 1.8149676,1.775 -180 0 0 0,3.55 z"
   class="st3"
   id="path194"
   inkscape:connector-curvature="0"
   style="fill:#50e6ff;stroke:none;stroke-width:17;stroke-linecap:butt" />
				</g>
				<g
   id="shape7047-79"
   transform="translate(10.5339,-9.48561)">
					<title
   id="title197">Sheet.7047</title>
					<path
   d="M 43.49,76.4 A 10.5071,10.2757 -180 0 0 37.03,73.02 13.4535,13.1573 -180 0 0 32.82,64 13.178,12.8877 -180 0 0 23.4,60.51 13.5291,13.2312 -180 0 0 15.46,62.88 13.7465,13.4437 -180 0 0 10.39,69.36 12.4866,12.2116 -180 0 0 2.62,73.3 12.6661,12.3872 -180 0 0 0,77.73 H 19.03 V 93.54 H 35.6 a 10.6079,10.3743 -180 0 0 7.44,-3.08 10.822,10.5837 -180 0 0 3.12,-7.35 10.6929,10.4574 -180 0 0 -2.67,-6.71 z"
   class="st1"
   id="path199"
   inkscape:connector-curvature="0"
   style="fill:url(#linearGradient4865);stroke:none;stroke-width:17;stroke-linecap:butt" />
				</g>
				<g
   id="shape7048-82"
   transform="translate(0,-18.8711)">
					<title
   id="title202">Sheet.7048</title>
					<path
   d="M 29.68,86.07 H 0 v 7.47 h 29.68 z"
   class="st2"
   id="path204"
   inkscape:connector-curvature="0"
   style="fill:#0078d4;stroke:none;stroke-width:17;stroke-linecap:butt" />
				</g>
				<g
   id="shape7049-84"
   transform="translate(2.75266,-20.8286)">
					<title
   id="title207">Sheet.7049</title>
					<path
   d="m 1.76,93.54 a 1.8149676,1.775 -180 1 0 0,-3.55 1.8149676,1.775 -180 0 0 0,3.55 z"
   class="st3"
   id="path209"
   inkscape:connector-curvature="0"
   style="fill:#50e6ff;stroke:none;stroke-width:17;stroke-linecap:butt" />
				</g>
				<g
   id="shape7050-86"
   transform="translate(0,-9.48253)">
					<title
   id="title212">Sheet.7050</title>
					<path
   d="M 29.68,86.08 H 0 v 7.46 h 29.68 z"
   class="st2"
   id="path214"
   inkscape:connector-curvature="0"
   style="fill:#0078d4;stroke:none;stroke-width:17;stroke-linecap:butt" />
				</g>
				<g
   id="shape7051-88"
   transform="translate(2.69921,-11.4385)">
					<title
   id="title217">Sheet.7051</title>
					<path
   d="m 1.81,93.54 a 1.8149676,1.775 -180 1 0 0,-3.55 1.8149676,1.775 -180 0 0 0,3.55 z"
   class="st3"
   id="path219"
   inkscape:connector-curvature="0"
   style="fill:#50e6ff;stroke:none;stroke-width:17;stroke-linecap:butt" />
				</g>
				<g
   id="shape7052-90">
					<title
   id="title222">Sheet.7052</title>
					<path
   d="M 29.68,86.08 H 0 v 7.46 h 29.68 z"
   class="st2"
   id="path224"
   inkscape:connector-curvature="0"
   style="fill:#0078d4;stroke:none;stroke-width:17;stroke-linecap:butt" />
				</g>
				<g
   id="shape7053-92"
   transform="translate(2.69921,-1.95749)">
					<title
   id="title227">Sheet.7053</title>
					<path
   d="m 1.81,93.54 a 1.8149676,1.775 -180 1 0 0,-3.55 1.8149676,1.775 -180 0 0 0,3.55 z"
   class="st3"
   id="path229"
   inkscape:connector-curvature="0"
   style="fill:#50e6ff;stroke:none;stroke-width:17;stroke-linecap:butt" />
				</g>
				<g
   id="shape7054-94"
   transform="translate(10.5339,-9.48561)">
					<title
   id="title232">Sheet.7054</title>
					<path
   d="M 43.49,76.4 A 10.5071,10.2757 -180 0 0 37.03,73.02 13.4535,13.1573 -180 0 0 32.82,64 13.178,12.8877 -180 0 0 23.4,60.51 13.5291,13.2312 -180 0 0 15.46,62.88 13.7465,13.4437 -180 0 0 10.39,69.36 12.4866,12.2116 -180 0 0 2.62,73.3 12.6661,12.3872 -180 0 0 0,77.73 H 19.03 V 93.54 H 35.6 a 10.6079,10.3743 -180 0 0 7.44,-3.08 10.822,10.5837 -180 0 0 3.12,-7.35 10.6929,10.4574 -180 0 0 -2.67,-6.71 z"
   class="st1"
   id="path234"
   inkscape:connector-curvature="0"
   style="fill:url(#linearGradient4867);stroke:none;stroke-width:17;stroke-linecap:butt" />
				</g>
				<g
   id="shape7055-97"
   transform="translate(0,-18.8711)">
					<title
   id="title237">Sheet.7055</title>
					<path
   d="M 29.68,86.07 H 0 v 7.47 h 29.68 z"
   class="st2"
   id="path239"
   inkscape:connector-curvature="0"
   style="fill:#0078d4;stroke:none;stroke-width:17;stroke-linecap:butt" />
				</g>
				<g
   id="shape7056-99"
   transform="translate(2.75266,-20.8286)">
					<title
   id="title242">Sheet.7056</title>
					<path
   d="m 1.76,93.54 a 1.8149676,1.775 -180 1 0 0,-3.55 1.8149676,1.775 -180 0 0 0,3.55 z"
   class="st3"
   id="path244"
   inkscape:connector-curvature="0"
   style="fill:#50e6ff;stroke:none;stroke-width:17;stroke-linecap:butt" />
				</g>
				<g
   id="shape7057-101"
   transform="translate(0,-9.48253)">
					<title
   id="title247">Sheet.7057</title>
					<path
   d="M 29.68,86.08 H 0 v 7.46 h 29.68 z"
   class="st2"
   id="path249"
   inkscape:connector-curvature="0"
   style="fill:#0078d4;stroke:none;stroke-width:17;stroke-linecap:butt" />
				</g>
				<g
   id="shape7058-103"
   transform="translate(2.69921,-11.4385)">
					<title
   id="title252">Sheet.7058</title>
					<path
   d="m 1.81,93.54 a 1.8149676,1.775 -180 1 0 0,-3.55 1.8149676,1.775 -180 0 0 0,3.55 z"
   class="st3"
   id="path254"
   inkscape:connector-curvature="0"
   style="fill:#50e6ff;stroke:none;stroke-width:17;stroke-linecap:butt" />
				</g>
				<g
   id="shape7059-105">
					<title
   id="title257">Sheet.7059</title>
					<path
   d="M 29.68,86.08 H 0 v 7.46 h 29.68 z"
   class="st2"
   id="path259"
   inkscape:connector-curvature="0"
   style="fill:#0078d4;stroke:none;stroke-width:17;stroke-linecap:butt" />
				</g>
				<g
   id="shape7060-107"
   transform="translate(2.69921,-1.95749)">
					<title
   id="title262">Sheet.7060</title>
					<path
   d="m 1.81,93.54 a 1.8149676,1.775 -180 1 0 0,-3.55 1.8149676,1.775 -180 0 0 0,3.55 z"
   class="st3"
   id="path264"
   inkscape:connector-curvature="0"
   style="fill:#50e6ff;stroke:none;stroke-width:17;stroke-linecap:butt" />
				</g>
				<g
   id="shape7061-109"
   transform="translate(10.5339,-9.48561)">
					<title
   id="title267">Sheet.7061</title>
					<path
   d="M 43.49,76.4 A 10.5071,10.2757 -180 0 0 37.03,73.02 13.4535,13.1573 -180 0 0 32.82,64 13.178,12.8877 -180 0 0 23.4,60.51 13.5291,13.2312 -180 0 0 15.46,62.88 13.7465,13.4437 -180 0 0 10.39,69.36 12.4866,12.2116 -180 0 0 2.62,73.3 12.6661,12.3872 -180 0 0 0,77.73 H 19.03 V 93.54 H 35.6 a 10.6079,10.3743 -180 0 0 7.44,-3.08 10.822,10.5837 -180 0 0 3.12,-7.35 10.6929,10.4574 -180 0 0 -2.67,-6.71 z"
   class="st1"
   id="path269"
   inkscape:connector-curvature="0"
   style="fill:url(#linearGradient4869);stroke:none;stroke-width:17;stroke-linecap:butt" />
				</g>
				<g
   id="shape7062-112"
   transform="translate(0,-18.8711)">
					<title
   id="title272">Sheet.7062</title>
					<path
   d="M 29.68,86.07 H 0 v 7.47 h 29.68 z"
   class="st2"
   id="path274"
   inkscape:connector-curvature="0"
   style="fill:#0078d4;stroke:none;stroke-width:17;stroke-linecap:butt" />
				</g>
				<g
   id="shape7063-114"
   transform="translate(2.75266,-20.8286)">
					<title
   id="title277">Sheet.7063</title>
					<path
   d="m 1.76,93.54 a 1.8149676,1.775 -180 1 0 0,-3.55 1.8149676,1.775 -180 0 0 0,3.55 z"
   class="st3"
   id="path279"
   inkscape:connector-curvature="0"
   style="fill:#50e6ff;stroke:none;stroke-width:17;stroke-linecap:butt" />
				</g>
				<g
   id="shape7064-116"
   transform="translate(0,-9.48253)">
					<title
   id="title282">Sheet.7064</title>
					<path
   d="M 29.68,86.08 H 0 v 7.46 h 29.68 z"
   class="st2"
   id="path284"
   inkscape:connector-curvature="0"
   style="fill:#0078d4;stroke:none;stroke-width:17;stroke-linecap:butt" />
				</g>
				<g
   id="shape7065-118"
   transform="translate(2.69921,-11.4385)">
					<title
   id="title287">Sheet.7065</title>
					<path
   d="m 1.81,93.54 a 1.8149676,1.775 -180 1 0 0,-3.55 1.8149676,1.775 -180 0 0 0,3.55 z"
   class="st3"
   id="path289"
   inkscape:connector-curvature="0"
   style="fill:#50e6ff;stroke:none;stroke-width:17;stroke-linecap:butt" />
				</g>
				<g
   id="shape7066-120">
					<title
   id="title292">Sheet.7066</title>
					<path
   d="M 29.68,86.08 H 0 v 7.46 h 29.68 z"
   class="st2"
   id="path294"
   inkscape:connector-curvature="0"
   style="fill:#0078d4;stroke:none;stroke-width:17;stroke-linecap:butt" />
				</g>
				<g
   id="shape7067-122"
   transform="translate(2.69921,-1.95749)">
					<title
   id="title297">Sheet.7067</title>
					<path
   d="m 1.81,93.54 a 1.8149676,1.775 -180 1 0 0,-3.55 1.8149676,1.775 -180 0 0 0,3.55 z"
   class="st3"
   id="path299"
   inkscape:connector-curvature="0"
   style="fill:#50e6ff;stroke:none;stroke-width:17;stroke-linecap:butt" />
				</g>
				<g
   id="shape7068-124"
   transform="translate(10.5339,-9.48561)">
					<title
   id="title302">Sheet.7068</title>
					<path
   d="M 43.49,76.4 A 10.5071,10.2757 -180 0 0 37.03,73.02 13.4535,13.1573 -180 0 0 32.82,64 13.178,12.8877 -180 0 0 23.4,60.51 13.5291,13.2312 -180 0 0 15.46,62.88 13.7465,13.4437 -180 0 0 10.39,69.36 12.4866,12.2116 -180 0 0 2.62,73.3 12.6661,12.3872 -180 0 0 0,77.73 H 19.03 V 93.54 H 35.6 a 10.6079,10.3743 -180 0 0 7.44,-3.08 10.822,10.5837 -180 0 0 3.12,-7.35 10.6929,10.4574 -180 0 0 -2.67,-6.71 z"
   class="st1"
   id="path304"
   inkscape:connector-curvature="0"
   style="fill:url(#linearGradient4871);stroke:none;stroke-width:17;stroke-linecap:butt" />
				</g>
				<g
   id="shape7069-127"
   transform="translate(0,-18.8711)">
					<title
   id="title307">Sheet.7069</title>
					<path
   d="M 29.68,86.07 H 0 v 7.47 h 29.68 z"
   class="st3"
   id="path309"
   inkscape:connector-curvature="0"
   style="fill:#50e6ff;stroke:none;stroke-width:17;stroke-linecap:butt" />
				</g>
				<g
   id="shape7070-129"
   transform="translate(2.75266,-20.8286)">
					<title
   id="title312">Sheet.7070</title>
					<path
   d="m 1.76,93.54 a 1.8149676,1.775 -180 1 0 0,-3.55 1.8149676,1.775 -180 0 0 0,3.55 z"
   class="st4"
   id="path314"
   inkscape:connector-curvature="0"
   style="fill:#ffffff;stroke:none;stroke-width:17;stroke-linecap:butt" />
				</g>
				<g
   id="shape7071-131"
   transform="translate(0,-9.48253)">
					<title
   id="title317">Sheet.7071</title>
					<path
   d="M 29.68,86.08 H 0 v 7.46 h 29.68 z"
   class="st3"
   id="path319"
   inkscape:connector-curvature="0"
   style="fill:#50e6ff;stroke:none;stroke-width:17;stroke-linecap:butt" />
				</g>
				<g
   id="shape7072-133"
   transform="translate(2.69921,-11.4385)">
					<title
   id="title322">Sheet.7072</title>
					<path
   d="m 1.81,93.54 a 1.8149676,1.775 -180 1 0 0,-3.55 1.8149676,1.775 -180 0 0 0,3.55 z"
   class="st4"
   id="path324"
   inkscape:connector-curvature="0"
   style="fill:#ffffff;stroke:none;stroke-width:17;stroke-linecap:butt" />
				</g>
				<g
   id="shape7073-135">
					<title
   id="title327">Sheet.7073</title>
					<path
   d="M 29.68,86.08 H 0 v 7.46 h 29.68 z"
   class="st3"
   id="path329"
   inkscape:connector-curvature="0"
   style="fill:#50e6ff;stroke:none;stroke-width:17;stroke-linecap:butt" />
				</g>
				<g
   id="shape7074-137"
   transform="translate(2.69921,-1.95749)">
					<title
   id="title332">Sheet.7074</title>
					<path
   d="m 1.81,93.54 a 1.8149676,1.775 -180 1 0 0,-3.55 1.8149676,1.775 -180 0 0 0,3.55 z"
   class="st4"
   id="path334"
   inkscape:connector-curvature="0"
   style="fill:#ffffff;stroke:none;stroke-width:17;stroke-linecap:butt" />
				</g>
			</g>
		</g>
	</g>
</svg>