<?xml version="1.0" encoding="UTF-8" standalone="no"?>
<!-- Generated by Microsoft Visio, SVG Export Diagnostics.svg Page-1 -->

<svg
   xmlns:dc="http://purl.org/dc/elements/1.1/"
   xmlns:cc="http://creativecommons.org/ns#"
   xmlns:rdf="http://www.w3.org/1999/02/22-rdf-syntax-ns#"
   xmlns:svg="http://www.w3.org/2000/svg"
   xmlns="http://www.w3.org/2000/svg"
   xmlns:sodipodi="http://sodipodi.sourceforge.net/DTD/sodipodi-0.dtd"
   xmlns:inkscape="http://www.inkscape.org/namespaces/inkscape"
   width="53.859402"
   height="56.697277"
   viewBox="0 0 53.859402 56.697276"
   xml:space="preserve"
   class="st3"
   version="1.1"
   id="svg58"
   sodipodi:docname="Diagnostics.svg"
   style="font-size:12px;overflow:visible;color-interpolation-filters:sRGB;fill:none;fill-rule:evenodd;stroke-linecap:square;stroke-miterlimit:3"
   inkscape:version="0.92.5 (2060ec1f9f, 2020-04-08)"><metadata
   id="metadata62"><rdf:RDF><cc:Work
       rdf:about=""><dc:format>image/svg+xml</dc:format><dc:type
         rdf:resource="http://purl.org/dc/dcmitype/StillImage" /></cc:Work></rdf:RDF></metadata><sodipodi:namedview
   pagecolor="#ffffff"
   bordercolor="#666666"
   borderopacity="1"
   objecttolerance="10"
   gridtolerance="10"
   guidetolerance="10"
   inkscape:pageopacity="0"
   inkscape:pageshadow="2"
   inkscape:window-width="640"
   inkscape:window-height="480"
   id="namedview60"
   showgrid="false"
   inkscape:zoom="2.4011313"
   inkscape:cx="26.928586"
   inkscape:cy="15.13465"
   inkscape:window-x="0"
   inkscape:window-y="0"
   inkscape:window-maximized="0"
   inkscape:current-layer="svg58" />
	<style
   type="text/css"
   id="style2">
	<![CDATA[
		.st1 {fill:url(#grad0-9);stroke:none;stroke-width:7.57834}
		.st2 {fill:url(#grad0-13);stroke:none;stroke-width:7.57834}
		.st3 {fill:none;fill-rule:evenodd;font-size:12px;overflow:visible;stroke-linecap:square;stroke-miterlimit:3}
	]]>
	</style>

	<defs
   id="Patterns_And_Gradients">
		<linearGradient
   id="grad0-9"
   x1="0.00058809421"
   y1="40.722198"
   x2="55.190951"
   y2="40.722198"
   gradientTransform="scale(0.97588416,1.0247118)"
   gradientUnits="userSpaceOnUse">
			<stop
   offset="0"
   stop-color="#198ab3"
   stop-opacity="1"
   id="stop4" />
			<stop
   offset="0.29"
   stop-color="#1786b1"
   stop-opacity="1"
   id="stop6" />
			<stop
   offset="0.59"
   stop-color="#1079ad"
   stop-opacity="1"
   id="stop8" />
			<stop
   offset="0.89"
   stop-color="#0565a5"
   stop-opacity="1"
   id="stop10" />
			<stop
   offset="1"
   stop-color="#005ba1"
   stop-opacity="1"
   id="stop12" />
		</linearGradient>
		<linearGradient
   id="grad0-13"
   x1="-0.1945199"
   y1="40.785417"
   x2="54.415663"
   y2="40.785417"
   gradientTransform="scale(0.97051442,1.0303814)"
   gradientUnits="userSpaceOnUse">
			<stop
   offset="0"
   stop-color="#32d4f5"
   stop-opacity="1"
   id="stop15" />
			<stop
   offset="0.23"
   stop-color="#31d0f1"
   stop-opacity="1"
   id="stop17" />
			<stop
   offset="0.46"
   stop-color="#2cc3e6"
   stop-opacity="1"
   id="stop19" />
			<stop
   offset="0.7"
   stop-color="#25afd4"
   stop-opacity="1"
   id="stop21" />
			<stop
   offset="0.94"
   stop-color="#1c92ba"
   stop-opacity="1"
   id="stop23" />
			<stop
   offset="1"
   stop-color="#198ab3"
   stop-opacity="1"
   id="stop25" />
		</linearGradient>
	</defs>
	<g
   id="g56"
   transform="translate(-7.5789139,-7.5808721)">
		<title
   id="title29">Page-1</title>
		<g
   id="group5803-1"
   transform="translate(7.57834,-34.0157)">
			<title
   id="title31">Diagnostics</title>
			<g
   id="group5804-2">
				<title
   id="title33">g10</title>
				<g
   id="group5805-3">
					<title
   id="title35">g14-9</title>
					<g
   id="group5806-4">
						<title
   id="title37">Icon691_DataBox_Gateway</title>
						<g
   id="group5807-5">
							<title
   id="title39">Icon-intune-341</title>
							<g
   id="shape5808-6"
   transform="translate(0,-0.131944)">
								<title
   id="title41">path4</title>
								<path
   d="m 45.59,53.01 0.28,0.25 a 0.486713,0.494063 -180 0 0 0.660539,0 L 49.1,51.07 l 4.66,-7.8 a 0.486713,0.494063 -180 0 0 0,-0.599934 L 52.96,41.83 a 0.486713,0.494063 -180 0 0 -0.591008,0 L 45.03,46.87 42.95,49.59 a 0.486713,0.494063 -180 0 0 0,0.635224 L 43.22,50.51 28.07,66.53 24.94,63 21.46,66.53 a 6.2925,6.38753 0 0 1 -1.49,5.33 5.45814,5.54057 0 0 1 -4.77,1.76 L 0.29,88.98 a 0.93866,0.952836 -180 0 0 0,1.37632 L 7.52,97.97 a 0.93866,0.952836 -180 0 0 1.39061,0 L 23.44,82.59 a 5.97961,6.06992 0 0 1 1.74,-5.08 5.56243,5.64644 0 0 1 4.76,-1.77 l 3.48,-3.53 -3.02,-3.42 z"
   class="st1"
   id="path43"
   inkscape:connector-curvature="0"
   style="fill:url(#grad0-9);stroke:none;stroke-width:7.57834005" />
							</g>
							<g
   id="shape5809-10"
   transform="translate(0.567547)">
								<title
   id="title46">path6</title>
								<path
   d="M 51.04,87.82 47.56,84.04 24.34,59.87 23.19,58.6 A 12.9327,13.128 -180 0 0 20.16,45.75 11.9245,12.1045 -180 0 0 9.42,42.22 0.521478,0.529353 -180 0 0 9.141878,43.066966 L 15.19,49.32 a 0.521478,0.529353 0 0 1 0,0.494063 L 13.73,56.2 a 0.486713,0.494063 0 0 1 -0.347652,0.352902 L 7.2,58.28 a 0.486713,0.494063 0 0 1 -0.486713,0 L 0.83,51.97 A 0.486713,0.494063 -180 0 0 -0.004365,52.287612 12.6198,12.8104 -180 0 0 3.48,63.5 11.7159,11.8928 -180 0 0 15.19,66.68 l 0.21,0.25 1.32,1.37 26.46,28.24 a 5.4929,5.57586 -180 0 0 7.72,0.28 l 0.27,-0.28 a 5.84055,5.92876 -180 0 0 1.64,-4.24 6.43156,6.52869 -180 0 0 -1.77,-4.48 z"
   class="st2"
   id="path48"
   inkscape:connector-curvature="0"
   style="fill:url(#grad0-13);stroke:none;stroke-width:7.57834005" />
							</g>
						</g>
					</g>
				</g>
			</g>
		</g>
	</g>
</svg>