<?xml version="1.0" encoding="UTF-8" standalone="no"?>
<!-- Generated by Microsoft Visio, SVG Export Function App Extension.svg Page-1 -->

<svg
   xmlns:dc="http://purl.org/dc/elements/1.1/"
   xmlns:cc="http://creativecommons.org/ns#"
   xmlns:rdf="http://www.w3.org/1999/02/22-rdf-syntax-ns#"
   xmlns:svg="http://www.w3.org/2000/svg"
   xmlns="http://www.w3.org/2000/svg"
   xmlns:sodipodi="http://sodipodi.sourceforge.net/DTD/sodipodi-0.dtd"
   xmlns:inkscape="http://www.inkscape.org/namespaces/inkscape"
   width="56.696903"
   height="56.693008"
   viewBox="0 0 56.696903 56.693009"
   xml:space="preserve"
   class="st4"
   version="1.1"
   id="svg39"
   sodipodi:docname="Function App Extension.svg"
   style="font-size:12px;overflow:visible;color-interpolation-filters:sRGB;fill:none;fill-rule:evenodd;stroke-linecap:square;stroke-miterlimit:3"
   inkscape:version="0.92.5 (2060ec1f9f, 2020-04-08)"><metadata
   id="metadata43"><rdf:RDF><cc:Work
       rdf:about=""><dc:format>image/svg+xml</dc:format><dc:type
         rdf:resource="http://purl.org/dc/dcmitype/StillImage" /></cc:Work></rdf:RDF></metadata><sodipodi:namedview
   pagecolor="#ffffff"
   bordercolor="#666666"
   borderopacity="1"
   objecttolerance="10"
   gridtolerance="10"
   guidetolerance="10"
   inkscape:pageopacity="0"
   inkscape:pageshadow="2"
   inkscape:window-width="640"
   inkscape:window-height="480"
   id="namedview41"
   showgrid="false"
   inkscape:zoom="1.8924055"
   inkscape:cx="28.346504"
   inkscape:cy="28.33981"
   inkscape:window-x="0"
   inkscape:window-y="0"
   inkscape:window-maximized="0"
   inkscape:current-layer="svg39" />
	<style
   type="text/css"
   id="style2">
	<![CDATA[
		.st1 {fill:url(#grad0-6);stroke:none;stroke-linecap:butt;stroke-width:34}
		.st2 {fill:#773adc;stroke:none;stroke-linecap:butt;stroke-width:34}
		.st3 {fill:#b3b3b3;stroke:none;stroke-linecap:butt;stroke-width:34}
		.st4 {fill:none;fill-rule:evenodd;font-size:12px;overflow:visible;stroke-linecap:square;stroke-miterlimit:3}
	]]>
	</style>

	<defs
   id="Patterns_And_Gradients">
		<linearGradient
   id="grad0-6"
   x1="-6.9383809e-09"
   y1="97.526943"
   x2="26.013891"
   y2="97.526943"
   gradientTransform="scale(0.99062457,1.0094642)"
   gradientUnits="userSpaceOnUse">
			<stop
   offset="0"
   stop-color="#32bedd"
   stop-opacity="1"
   id="stop4" />
			<stop
   offset="0.175"
   stop-color="#32caea"
   stop-opacity="1"
   id="stop6" />
			<stop
   offset="0.41"
   stop-color="#32d2f2"
   stop-opacity="1"
   id="stop8" />
			<stop
   offset="0.775"
   stop-color="#32d4f5"
   stop-opacity="1"
   id="stop10" />
		</linearGradient>
	</defs>
	<g
   id="g37"
   transform="translate(-33.999996,-34.0013)">
		<title
   id="title14">Page-1</title>
		<g
   id="group4569-1"
   transform="translate(34,-34.0157)">
			<title
   id="title16">Function App Extension</title>
			<g
   id="group4570-2">
				<title
   id="title18">MsPortalFx.base.images-21</title>
				<g
   id="shape4571-3"
   transform="translate(12.6092,-11.9096)">
					<title
   id="title20">Sheet.4571</title>
					<path
   d="m 0,123.68 a 1.01049,1.02988 -180 0 0 1.01,1.03 h 23.74 a 1.01049,1.02988 -180 0 0 1.02,-1.03 V 99.48 A 1.01049,1.02988 -180 0 0 24.75,98.45 H 1.01 A 1.01049,1.02988 -180 0 0 0,99.48 Z"
   class="st1"
   id="path22"
   inkscape:connector-curvature="0"
   style="fill:url(#grad0-6);stroke:none;stroke-width:34;stroke-linecap:butt" />
				</g>
				<g
   id="shape4572-7"
   transform="translate(29.3269,-28.513)">
					<title
   id="title25">Sheet.4572</title>
					<path
   d="M 25.35,96.53 H 1 a 1.00046,1.01966 -180 0 0 -1,1.02 v 4.51 a 1.00046,1.01966 -180 0 0 1,1.02 h 17.91 a 2.0176,2.05631 0 0 1 2.02,2.06 v 18.55 a 1.00046,1.01966 -180 0 0 1,1.02 h 4.44 a 1.00046,1.01966 -180 0 0 1,-1.02 v -25.1 a 2.02094,2.05971 -180 0 0 -2.02,-2.06 z"
   class="st2"
   id="path27"
   inkscape:connector-curvature="0"
   style="fill:#773adc;stroke:none;stroke-width:34;stroke-linecap:butt" />
				</g>
				<g
   id="shape4573-9">
					<title
   id="title30">Sheet.4573</title>
					<path
   d="m 46.13,100.52 v 16.33 a 1.84085,1.87617 0 0 1 -1.84,1.88 H 7.7 A 1.84085,1.87617 0 0 1 5.86,116.85 V 81.65 A 1.84085,1.87617 0 0 1 7.7,79.78 h 18.35 a 1.00046,1.01966 -180 0 0 1,-1.02 v -3.93 a 1.00046,1.01966 -180 0 0 -1,-1.02 H 1.84 A 1.84085,1.87617 -180 0 0 0,75.68 v 47.15 a 1.84085,1.87617 -180 0 0 1.84,1.88 H 50.15 A 1.84419,1.87957 -180 0 0 52,122.83 V 100.52 A 1.00046,1.01966 -180 0 0 51,99.5 h -3.86 a 1.00046,1.01966 -180 0 0 -1.01,1.02 z"
   class="st3"
   id="path32"
   inkscape:connector-curvature="0"
   style="fill:#b3b3b3;stroke:none;stroke-width:34;stroke-linecap:butt" />
				</g>
			</g>
		</g>
	</g>
</svg>