<?xml version="1.0" encoding="UTF-8" standalone="no"?>
<!-- Generated by Microsoft Visio, SVG Export Managed Disk Standard SSD.svg Page-1 -->

<svg
   xmlns:dc="http://purl.org/dc/elements/1.1/"
   xmlns:cc="http://creativecommons.org/ns#"
   xmlns:rdf="http://www.w3.org/1999/02/22-rdf-syntax-ns#"
   xmlns:svg="http://www.w3.org/2000/svg"
   xmlns="http://www.w3.org/2000/svg"
   xmlns:sodipodi="http://sodipodi.sourceforge.net/DTD/sodipodi-0.dtd"
   xmlns:inkscape="http://www.inkscape.org/namespaces/inkscape"
   width="56.689999"
   height="48.188202"
   viewBox="0 0 56.689997 48.188203"
   xml:space="preserve"
   class="st6"
   version="1.1"
   id="svg97"
   sodipodi:docname="Managed Disk Standard SSD.svg"
   style="font-size:12px;overflow:visible;color-interpolation-filters:sRGB;fill:none;fill-rule:evenodd;stroke-linecap:square;stroke-miterlimit:3"
   inkscape:version="0.92.5 (2060ec1f9f, 2020-04-08)"><metadata
   id="metadata103"><rdf:RDF><cc:Work
       rdf:about=""><dc:format>image/svg+xml</dc:format><dc:type
         rdf:resource="http://purl.org/dc/dcmitype/StillImage" /></cc:Work></rdf:RDF></metadata><defs
   id="defs101" /><sodipodi:namedview
   pagecolor="#ffffff"
   bordercolor="#666666"
   borderopacity="1"
   objecttolerance="10"
   gridtolerance="10"
   guidetolerance="10"
   inkscape:pageopacity="0"
   inkscape:pageshadow="2"
   inkscape:window-width="640"
   inkscape:window-height="480"
   id="namedview99"
   showgrid="false"
   inkscape:zoom="2.7119081"
   inkscape:cx="28.346461"
   inkscape:cy="9.4925011"
   inkscape:window-x="0"
   inkscape:window-y="0"
   inkscape:window-maximized="0"
   inkscape:current-layer="svg97" />
	<style
   type="text/css"
   id="style2">
	<![CDATA[
		.st1 {fill:#7fba00;stroke:none;stroke-linecap:butt;stroke-width:0.749999}
		.st2 {fill:#b8d432;stroke:none;stroke-linecap:butt;stroke-width:0.749999}
		.st3 {fill:#ffffff;fill-opacity:0.25;stroke:none;stroke-linecap:butt;stroke-width:0.749999}
		.st4 {fill:#0072c6;stroke:none;stroke-linecap:butt;stroke-width:0.749999}
		.st5 {fill:#59b4d9;stroke:none;stroke-linecap:butt;stroke-width:0.749999}
		.st6 {fill:none;fill-rule:evenodd;font-size:12px;overflow:visible;stroke-linecap:square;stroke-miterlimit:3}
	]]>
	</style>

	<g
   id="g95"
   transform="translate(-5.66929,-4.8161)">
		<title
   id="title4">Page-1</title>
		<g
   id="group3322-1"
   transform="translate(5.66929,-34.0157)">
			<title
   id="title6">Managed Disk Standard SSD</title>
			<g
   id="group3323-2">
				<title
   id="title8">Page-1</title>
				<g
   id="group3324-3">
					<title
   id="title10">Managed Disk Standard SSD</title>
					<g
   id="group3325-4">
						<title
   id="title12">Sheet.3325</title>
						<g
   id="shape3326-5">
							<title
   id="title14">Sheet.3326</title>
							<path
   d="M 56.69,76.76 C 56.69,82.43 44,87.02 28.35,87.02 12.69,87.02 0,82.43 0,76.76 v -5.54 h 56.69 z"
   class="st1"
   id="path16"
   inkscape:connector-curvature="0"
   style="fill:#7fba00;stroke:none;stroke-width:0.74999899;stroke-linecap:butt" />
						</g>
					</g>
					<g
   id="group3327-7"
   transform="translate(0,-5.53254)">
						<title
   id="title20">Sheet.3327</title>
						<g
   id="shape3328-8">
							<title
   id="title22">Sheet.3328</title>
							<path
   d="M 56.69,76.76 C 56.69,82.43 44,87.02 28.35,87.02 12.69,87.02 0,82.43 0,76.76 0,71.09 12.69,66.49 28.35,66.49 c 15.65,0 28.34,4.6 28.34,10.27 z"
   class="st2"
   id="path24"
   inkscape:connector-curvature="0"
   style="fill:#b8d432;stroke:none;stroke-width:0.74999899;stroke-linecap:butt" />
						</g>
					</g>
					<g
   id="group3329-10"
   transform="translate(19.2573,-13.659)">
						<title
   id="title28">Sheet.3329</title>
						<g
   id="shape3330-11">
							<title
   id="title30">Sheet.3330</title>
							<path
   d="m 18.18,84.3 c 0,1.5 -4.07,2.72 -9.1,2.72 C 4.07,87.02 0,85.8 0,84.3 c 0,-1.52 4.07,-2.74 9.08,-2.74 5.03,0 9.1,1.22 9.1,2.74 z"
   class="st1"
   id="path32"
   inkscape:connector-curvature="0"
   style="fill:#7fba00;stroke:none;stroke-width:0.74999899;stroke-linecap:butt" />
						</g>
					</g>
					<g
   id="group3331-13"
   transform="translate(30.1015,-18.2574)">
						<title
   id="title36">Sheet.3331</title>
						<g
   id="shape3332-14">
							<title
   id="title38">Sheet.3332</title>
							<path
   d="M 18.74,82.45 C 14.76,80.94 9.55,79.88 3.68,79.46 L 0,86.27 c 1.81,0.1 3.43,0.37 4.68,0.75 z"
   class="st3"
   id="path40"
   inkscape:connector-curvature="0"
   style="fill:#ffffff;fill-opacity:0.25;stroke:none;stroke-width:0.74999899;stroke-linecap:butt" />
						</g>
					</g>
					<g
   id="group3333-16"
   transform="translate(6.69199,-5.66746)">
						<title
   id="title44">Sheet.3333</title>
						<g
   id="shape3334-17">
							<title
   id="title46">Sheet.3334</title>
							<path
   d="m 0,83.57 c 4.08,1.75 9.75,2.99 16.2,3.45 l 4.3,-7.96 c -1.79,-0.07 -3.42,-0.29 -4.72,-0.62 z"
   class="st3"
   id="path48"
   inkscape:connector-curvature="0"
   style="fill:#ffffff;fill-opacity:0.25;stroke:none;stroke-width:0.74999899;stroke-linecap:butt" />
						</g>
					</g>
					<g
   id="group3335-19"
   transform="translate(0,-22.1256)">
						<title
   id="title52">Sheet.3335</title>
						<g
   id="shape3336-20">
							<title
   id="title54">Sheet.3336</title>
							<path
   d="M 56.69,76.76 C 56.69,82.43 44,87.02 28.35,87.02 12.69,87.02 0,82.42 0,76.76 v -5.54 h 56.69 z"
   class="st4"
   id="path56"
   inkscape:connector-curvature="0"
   style="fill:#0072c6;stroke:none;stroke-width:0.74999899;stroke-linecap:butt" />
						</g>
					</g>
					<g
   id="group3337-22"
   transform="translate(0,-27.6582)">
						<title
   id="title60">Sheet.3337</title>
						<g
   id="shape3338-23">
							<title
   id="title62">Sheet.3338</title>
							<path
   d="M 56.69,76.76 C 56.69,82.43 44,87.02 28.35,87.02 12.69,87.02 0,82.42 0,76.76 0,71.09 12.69,66.49 28.35,66.49 c 15.65,0 28.34,4.6 28.34,10.27 z"
   class="st5"
   id="path64"
   inkscape:connector-curvature="0"
   style="fill:#59b4d9;stroke:none;stroke-width:0.74999899;stroke-linecap:butt" />
						</g>
					</g>
					<g
   id="group3339-25"
   transform="translate(19.2573,-35.7846)">
						<title
   id="title68">Sheet.3339</title>
						<g
   id="shape3340-26">
							<title
   id="title70">Sheet.3340</title>
							<path
   d="m 18.18,84.3 c 0,1.5 -4.07,2.72 -9.1,2.72 C 4.07,87.02 0,85.8 0,84.3 c 0,-1.52 4.07,-2.74 9.08,-2.74 5.03,0 9.1,1.22 9.1,2.74 z"
   class="st4"
   id="path72"
   inkscape:connector-curvature="0"
   style="fill:#0072c6;stroke:none;stroke-width:0.74999899;stroke-linecap:butt" />
						</g>
					</g>
					<g
   id="group3341-28"
   transform="translate(30.1015,-40.4397)">
						<title
   id="title76">Sheet.3341</title>
						<g
   id="shape3342-29">
							<title
   id="title78">Sheet.3342</title>
							<path
   d="M 18.74,82.45 C 14.76,80.94 9.55,79.88 3.68,79.46 L 0,86.27 c 1.81,0.1 3.43,0.37 4.68,0.75 z"
   class="st3"
   id="path80"
   inkscape:connector-curvature="0"
   style="fill:#ffffff;fill-opacity:0.25;stroke:none;stroke-width:0.74999899;stroke-linecap:butt" />
						</g>
					</g>
					<g
   id="group3343-31"
   transform="translate(6.69199,-27.8498)">
						<title
   id="title84">Sheet.3343</title>
						<g
   id="shape3344-32">
							<title
   id="title86">Sheet.3344</title>
							<path
   d="m 0,83.57 c 4.08,1.75 9.75,2.99 16.2,3.45 l 4.3,-7.96 c -1.79,-0.07 -3.42,-0.29 -4.72,-0.62 z"
   class="st3"
   id="path88"
   inkscape:connector-curvature="0"
   style="fill:#ffffff;fill-opacity:0.25;stroke:none;stroke-width:0.74999899;stroke-linecap:butt" />
						</g>
					</g>
				</g>
			</g>
		</g>
	</g>
</svg>