<?xml version="1.0" encoding="UTF-8" standalone="no"?>
<!-- Generated by Microsoft Visio, SVG Export O365 - Project.svg Page-1 -->

<svg
   xmlns:dc="http://purl.org/dc/elements/1.1/"
   xmlns:cc="http://creativecommons.org/ns#"
   xmlns:rdf="http://www.w3.org/1999/02/22-rdf-syntax-ns#"
   xmlns:svg="http://www.w3.org/2000/svg"
   xmlns="http://www.w3.org/2000/svg"
   xmlns:sodipodi="http://sodipodi.sourceforge.net/DTD/sodipodi-0.dtd"
   xmlns:inkscape="http://www.inkscape.org/namespaces/inkscape"
   width="56.692905"
   height="56.692902"
   viewBox="0 0 56.692904 56.692901"
   xml:space="preserve"
   class="st9"
   version="1.1"
   id="svg64"
   sodipodi:docname="O365 - Project.svg"
   style="font-size:12px;overflow:visible;color-interpolation-filters:sRGB;fill:none;fill-rule:evenodd;stroke-linecap:square;stroke-miterlimit:3"
   inkscape:version="0.92.5 (2060ec1f9f, 2020-04-08)"><metadata
   id="metadata70"><rdf:RDF><cc:Work
       rdf:about=""><dc:format>image/svg+xml</dc:format><dc:type
         rdf:resource="http://purl.org/dc/dcmitype/StillImage" /></cc:Work></rdf:RDF></metadata><defs
   id="defs68" /><sodipodi:namedview
   pagecolor="#ffffff"
   bordercolor="#666666"
   borderopacity="1"
   objecttolerance="10"
   gridtolerance="10"
   guidetolerance="10"
   inkscape:pageopacity="0"
   inkscape:pageshadow="2"
   inkscape:window-width="640"
   inkscape:window-height="480"
   id="namedview66"
   showgrid="false"
   inkscape:zoom="2.1621819"
   inkscape:cx="28.346452"
   inkscape:cy="20.559102"
   inkscape:window-x="0"
   inkscape:window-y="0"
   inkscape:window-maximized="0"
   inkscape:current-layer="svg64" />
	<style
   type="text/css"
   id="style2">
	<![CDATA[
		.st1 {fill:#33c481;stroke:none;stroke-linecap:butt;stroke-width:18.4407}
		.st2 {fill:#185c37;stroke:none;stroke-linecap:butt;stroke-width:18.4407}
		.st3 {fill:#21a366;stroke:none;stroke-linecap:butt;stroke-width:18.4407}
		.st4 {fill:#000000;fill-opacity:0.098;stroke:none;stroke-linecap:butt;stroke-width:18.4407}
		.st5 {fill:#000000;fill-opacity:0.2;stroke:none;stroke-linecap:butt;stroke-width:18.4407}
		.st6 {fill:#107c41;stroke:none;stroke-linecap:butt;stroke-width:18.4407}
		.st7 {fill:#f9f7f7;stroke:none;stroke-linecap:butt;stroke-width:18.4407}
		.st8 {fill:none;stroke:none;stroke-linecap:butt;stroke-width:18.4407}
		.st9 {fill:none;fill-rule:evenodd;font-size:12px;overflow:visible;stroke-linecap:square;stroke-miterlimit:3}
	]]>
	</style>

	<g
   id="g62"
   transform="translate(-18.4407,-18.440702)">
		<title
   id="title4">Page-1</title>
		<g
   id="group2599-1"
   transform="translate(18.4407,-34.0157)">
			<title
   id="title6">O365 - Project</title>
			<g
   id="group2600-2">
				<title
   id="title8">_32</title>
				<g
   id="shape2601-3"
   transform="translate(7.08661,-37.2047)">
					<title
   id="title10">path2</title>
					<path
   d="m 2.24,93.2 h 25.64 a 2.23583,2.23583 90 0 1 2.24,2.24 v 13.71 H 0 V 95.44 A 2.23583,2.23583 90 0 1 2.24,93.2 Z"
   class="st1"
   id="path12"
   inkscape:connector-curvature="0"
   style="fill:#33c481;stroke:none;stroke-width:18.44070053;stroke-linecap:butt" />
				</g>
				<g
   id="shape2602-5"
   transform="translate(19.4882,-3.54331)">
					<title
   id="title15">path4</title>
					<path
   d="m 0,93.2 h 34.97 a 2.23583,2.23583 90 0 1 2.23,2.24 v 11.48 a 2.23583,2.23583 90 0 1 -2.23,2.23 H 2.24 A 2.23583,2.23583 90 0 1 0,106.91 Z"
   class="st2"
   id="path17"
   inkscape:connector-curvature="0"
   style="fill:#185c37;stroke:none;stroke-width:18.44070053;stroke-linecap:butt" />
				</g>
				<g
   id="shape2603-7"
   transform="translate(7.08661,-19.4882)">
					<title
   id="title20">path6</title>
					<path
   d="m 0,91.43 h 36.5 a 2.48031,2.48031 90 0 1 2.48,2.48 v 15.24 H 2.48 A 2.48031,2.48031 90 0 1 0,106.67 Z"
   class="st3"
   id="path22"
   inkscape:connector-curvature="0"
   style="fill:#21a366;stroke:none;stroke-width:18.44070053;stroke-linecap:butt" />
				</g>
				<g
   id="shape2604-9"
   transform="translate(7.08661,-10.6299)">
					<title
   id="title25">path8</title>
					<path
   d="m 12.4,98.52 v 10.63 h 10.04 a 2.3687,2.3687 -90 0 0 2.36,-2.36 V 77.85 A 2.3687,2.3687 -90 0 0 22.44,75.49 H 0 v 20.77 a 2.25532,2.25531 0 0 0 2.26,2.26 z"
   class="st4"
   id="path27"
   inkscape:connector-curvature="0"
   style="fill:#000000;fill-opacity:0.09800002;stroke:none;stroke-width:18.44070053;stroke-linecap:butt" />
				</g>
				<g
   id="shape2605-11"
   transform="translate(7.08661,-8.85827)">
					<title
   id="title30">path10</title>
					<path
   d="m 12.4,96.75 v 12.4 h 8.27 a 2.3687,2.3687 -90 0 0 2.36,-2.36 V 77.85 A 2.3687,2.3687 -90 0 0 20.67,75.49 H 0 v 19 a 2.25532,2.25531 0 0 0 2.26,2.26 z"
   class="st5"
   id="path32"
   inkscape:connector-curvature="0"
   style="fill:#000000;fill-opacity:0.2;stroke:none;stroke-width:18.44070053;stroke-linecap:butt" />
				</g>
				<g
   id="shape2606-13"
   transform="translate(7.08661,-12.4016)">
					<title
   id="title35">path12</title>
					<path
   d="m 12.4,100.29 v 8.86 h 8.27 a 2.3687,2.3687 -90 0 0 2.36,-2.36 V 81.39 A 2.3687,2.3687 -90 0 0 20.67,79.03 H 0 v 19.01 a 2.25532,2.25531 0 0 0 2.26,2.25 z"
   class="st5"
   id="path37"
   inkscape:connector-curvature="0"
   style="fill:#000000;fill-opacity:0.2;stroke:none;stroke-width:18.44070053;stroke-linecap:butt" />
				</g>
				<g
   id="shape2607-15"
   transform="translate(7.08661,-12.4016)">
					<title
   id="title40">path14</title>
					<path
   d="m 12.4,100.29 v 8.86 h 6.5 a 2.3687,2.3687 -90 0 0 2.36,-2.36 V 81.39 A 2.3687,2.3687 -90 0 0 18.9,79.03 H 0 v 19.01 a 2.25532,2.25531 0 0 0 2.26,2.25 z"
   class="st5"
   id="path42"
   inkscape:connector-curvature="0"
   style="fill:#000000;fill-opacity:0.2;stroke:none;stroke-width:18.44070053;stroke-linecap:butt" />
				</g>
				<g
   id="shape2608-17"
   transform="translate(0,-14.1732)">
					<title
   id="title45">rect16</title>
					<path
   d="m 0,106.67 a 2.36167,2.47884 -180 0 0 2.36,2.48 h 23.62 a 2.36167,2.47884 -180 0 0 2.37,-2.48 V 83.28 A 2.36167,2.47884 -180 0 0 25.98,80.8 H 2.36 A 2.36167,2.47884 -180 0 0 0,83.28 Z"
   class="st6"
   id="path47"
   inkscape:connector-curvature="0"
   style="fill:#107c41;stroke:none;stroke-width:18.44070053;stroke-linecap:butt" />
				</g>
				<g
   id="shape2609-19"
   transform="translate(7.16102,-19.5059)">
					<title
   id="title50">path18</title>
					<path
   d="m 7.07,91.45 a 7.37539,7.37539 90 0 1 4.88,1.42 5.09882,5.09882 90 0 1 1.69,4.12 4.83484,4.83484 90 0 1 -0.83,2.81 5.60728,5.60728 90 0 1 -2.38,2.1 8.09114,8.09114 90 0 1 -3.58,0.75 H 3.47 v 6.5 H 0 v -17.7 z m -3.6,8.29 H 6.45 A 3.88346,3.88346 -90 0 0 9.09,98.95 1.94882,1.94882 -90 0 0 9.98,97.14 C 9.98,95.18 8.84,94.2 6.56,94.2 H 3.47 Z"
   class="st7"
   id="path52"
   inkscape:connector-curvature="0"
   style="fill:#f9f7f7;stroke:none;stroke-width:18.44070053;stroke-linecap:butt" />
				</g>
				<g
   id="shape2610-21"
   transform="translate(1.71095e-6)">
					<title
   id="title55">path20</title>
					<rect
   x="0"
   y="52.456402"
   width="56.692902"
   height="56.692902"
   class="st8"
   id="rect57"
   style="fill:none;stroke:none;stroke-width:18.44070053;stroke-linecap:butt" />
				</g>
			</g>
		</g>
	</g>
</svg>