<?xml version="1.0" encoding="UTF-8" standalone="no"?>
<!-- Generated by Microsoft Visio, SVG Export Public IP Prefix.svg Page-1 -->

<svg
   xmlns:dc="http://purl.org/dc/elements/1.1/"
   xmlns:cc="http://creativecommons.org/ns#"
   xmlns:rdf="http://www.w3.org/1999/02/22-rdf-syntax-ns#"
   xmlns:svg="http://www.w3.org/2000/svg"
   xmlns="http://www.w3.org/2000/svg"
   xmlns:xlink="http://www.w3.org/1999/xlink"
   xmlns:sodipodi="http://sodipodi.sourceforge.net/DTD/sodipodi-0.dtd"
   xmlns:inkscape="http://www.inkscape.org/namespaces/inkscape"
   width="56.690399"
   height="45.3568"
   viewBox="0 0 56.690399 45.356799"
   xml:space="preserve"
   class="st5"
   version="1.1"
   id="svg96"
   sodipodi:docname="Public IP Prefix.svg"
   style="font-size:12px;overflow:visible;color-interpolation-filters:sRGB;fill:none;fill-rule:evenodd;stroke-linecap:square;stroke-miterlimit:3"
   inkscape:version="0.92.5 (2060ec1f9f, 2020-04-08)"><metadata
   id="metadata100"><rdf:RDF><cc:Work
       rdf:about=""><dc:format>image/svg+xml</dc:format><dc:type
         rdf:resource="http://purl.org/dc/dcmitype/StillImage" /></cc:Work></rdf:RDF></metadata><sodipodi:namedview
   pagecolor="#ffffff"
   bordercolor="#666666"
   borderopacity="1"
   objecttolerance="10"
   gridtolerance="10"
   guidetolerance="10"
   inkscape:pageopacity="0"
   inkscape:pageshadow="2"
   inkscape:window-width="640"
   inkscape:window-height="480"
   id="namedview98"
   showgrid="false"
   inkscape:zoom="2.0816794"
   inkscape:cx="28.3465"
   inkscape:cy="22.669299"
   inkscape:window-x="0"
   inkscape:window-y="0"
   inkscape:window-maximized="0"
   inkscape:current-layer="svg96" />
	<style
   type="text/css"
   id="style2">
	<![CDATA[
		.st1 {fill:url(#grad0-6);stroke:none;stroke-linecap:butt;stroke-width:34}
		.st2 {fill:#767676;stroke:none;stroke-linecap:butt;stroke-width:34}
		.st3 {fill:#f2f2f2;stroke:none;stroke-linecap:butt;stroke-width:34}
		.st4 {fill:url(#grad0-14);stroke:none;stroke-linecap:butt;stroke-width:34}
		.st5 {fill:none;fill-rule:evenodd;font-size:12px;overflow:visible;stroke-linecap:square;stroke-miterlimit:3}
	]]>
	</style>

	<defs
   id="Patterns_And_Gradients">
		<linearGradient
   id="grad0-6"
   x1="0"
   y1="120.51735"
   x2="24.834267"
   y2="120.51735"
   gradientTransform="scale(1.2820995,0.77997069)"
   gradientUnits="userSpaceOnUse">
			<stop
   offset="0"
   stop-color="#32bedd"
   stop-opacity="1"
   id="stop4" />
			<stop
   offset="0.18"
   stop-color="#32caea"
   stop-opacity="1"
   id="stop6" />
			<stop
   offset="0.41"
   stop-color="#32d2f2"
   stop-opacity="1"
   id="stop8" />
			<stop
   offset="0.78"
   stop-color="#32d4f5"
   stop-opacity="1"
   id="stop10" />
		</linearGradient>
		<linearGradient
   id="grad0-14"
   x1="0"
   y1="0"
   x2="1"
   y2="0"
   gradientTransform="rotate(90,0.5,0.5)">
			<stop
   offset="0"
   stop-color="#32bedd"
   stop-opacity="1"
   id="stop13" />
			<stop
   offset="0.18"
   stop-color="#32caea"
   stop-opacity="1"
   id="stop15" />
			<stop
   offset="0.41"
   stop-color="#32d2f2"
   stop-opacity="1"
   id="stop17" />
			<stop
   offset="0.78"
   stop-color="#32d4f5"
   stop-opacity="1"
   id="stop19" />
		</linearGradient>
	<linearGradient
   inkscape:collect="always"
   xlink:href="#grad0-14"
   id="linearGradient4610"
   gradientTransform="scale(1.2827033,0.7796035)"
   x1="0"
   y1="120.57411"
   x2="24.845963"
   y2="120.57411"
   gradientUnits="userSpaceOnUse" /><linearGradient
   inkscape:collect="always"
   xlink:href="#grad0-14"
   id="linearGradient4612"
   gradientTransform="scale(1.2820995,0.77997069)"
   x1="0"
   y1="120.51735"
   x2="24.834267"
   y2="120.51735"
   gradientUnits="userSpaceOnUse" /></defs>
	<g
   id="g94"
   transform="translate(-34,-33.9975)">
		<title
   id="title23">Page-1</title>
		<g
   id="group2220-1"
   transform="translate(34,-34.0157)">
			<title
   id="title25">Public IP Prefix</title>
			<g
   id="group2221-2">
				<title
   id="title27">Lighthouse-GS-networking-372</title>
				<g
   id="shape2222-3"
   transform="translate(0,-18.984)">
					<title
   id="title29">Sheet.2222</title>
					<path
   d="m 0,94 h 31.84 v 18.27 a 1.07087,1.10146 0 0 1 -1.07,1.1 H 1.07 A 1.07087,1.10146 0 0 1 0,112.27 Z"
   class="st1"
   id="path31"
   inkscape:connector-curvature="0"
   style="fill:url(#grad0-6);stroke:none;stroke-width:34;stroke-linecap:butt" />
				</g>
				<g
   id="shape2223-7"
   transform="translate(0,-38.3568)">
					<title
   id="title34">Sheet.2223</title>
					<path
   d="m 1.07,106.37 h 29.7 a 1.07087,1.10146 0 0 1 1.07,1.1 v 5.9 H 0 v -5.9 a 1.07087,1.10146 0 0 1 1.07,-1.1 z"
   class="st2"
   id="path36"
   inkscape:connector-curvature="0"
   style="fill:#767676;stroke:none;stroke-width:34;stroke-linecap:butt" />
				</g>
				<g
   id="shape2224-9"
   transform="translate(4.28346,-40.4301)">
					<title
   id="title39">Sheet.2224</title>
					<path
   d="m 0,112.82 a 0.535445,0.550744 -180 0 0 0.535433,0.55073 L 22.74,113.37 a 0.535445,0.550744 -180 0 0 0.535433,-0.55073 L 23.28,111.1 a 0.535445,0.550744 -180 0 0 -0.535433,-0.55073 L 0.54,110.55 a 0.535445,0.550744 -180 0 0 -0.535433,0.55073 z"
   class="st3"
   id="path41"
   inkscape:connector-curvature="0"
   style="fill:#f2f2f2;stroke:none;stroke-width:34;stroke-linecap:butt" />
				</g>
				<g
   id="shape2225-11"
   transform="translate(12.4094,-9.52441)">
					<title
   id="title44">Sheet.2225</title>
					<path
   d="m 0,94 h 31.87 v 18.27 a 1.07087,1.10146 0 0 1 -1.07,1.1 H 1.07 A 1.07087,1.10146 0 0 1 0,112.27 Z"
   class="st4"
   id="path46"
   inkscape:connector-curvature="0"
   style="fill:url(#linearGradient4610);stroke:none;stroke-width:34;stroke-linecap:butt" />
				</g>
				<g
   id="shape2226-15"
   transform="translate(12.4409,-28.8972)">
					<title
   id="title49">Sheet.2226</title>
					<path
   d="m 1.04,106.4 h 29.7 a 1.07087,1.10146 0 0 1 1.07,1.11 v 5.86 H 0 v -5.86 a 1.07087,1.10146 0 0 1 1.04,-1.11 z"
   class="st2"
   id="path51"
   inkscape:connector-curvature="0"
   style="fill:#767676;stroke:none;stroke-width:34;stroke-linecap:butt" />
				</g>
				<g
   id="shape2227-17"
   transform="translate(16.6929,-30.9381)">
					<title
   id="title54">Sheet.2227</title>
					<path
   d="m 0,112.82 a 0.535445,0.550744 -180 0 0 0.535433,0.55073 L 22.74,113.37 a 0.535445,0.550744 -180 0 0 0.535433,-0.55073 L 23.28,111.1 a 0.535445,0.550744 -180 0 0 -0.535433,-0.55073 L 0.54,110.55 a 0.535445,0.550744 -180 0 0 -0.535433,0.55073 z"
   class="st3"
   id="path56"
   inkscape:connector-curvature="0"
   style="fill:#f2f2f2;stroke:none;stroke-width:34;stroke-linecap:butt" />
				</g>
				<g
   id="shape2228-19"
   transform="translate(24.8504)">
					<title
   id="title59">Sheet.2228</title>
					<path
   d="m 0,94 h 31.84 v 18.27 a 1.07087,1.10146 0 0 1 -1.07,1.1 H 1.07 A 1.07087,1.10146 0 0 1 0,112.27 Z"
   class="st4"
   id="path61"
   inkscape:connector-curvature="0"
   style="fill:url(#linearGradient4612);stroke:none;stroke-width:34;stroke-linecap:butt" />
				</g>
				<g
   id="shape2229-22"
   transform="translate(24.8504,-19.3728)">
					<title
   id="title64">Sheet.2229</title>
					<path
   d="m 1.07,106.37 h 29.7 a 1.07087,1.10146 0 0 1 1.07,1.1 v 5.9 H 0 v -5.9 a 1.07087,1.10146 0 0 1 1.07,-1.1 z"
   class="st2"
   id="path66"
   inkscape:connector-curvature="0"
   style="fill:#767676;stroke:none;stroke-width:34;stroke-linecap:butt" />
				</g>
				<g
   id="group2230-24"
   transform="translate(31.0236,-8.22857)">
					<title
   id="title69">Sheet.2230</title>
					<g
   id="shape2231-25"
   transform="translate(14.3307)">
						<title
   id="title71">Sheet.2231</title>
						<ellipse
   cx="2.58268"
   cy="110.714"
   rx="2.58268"
   ry="2.6564701"
   class="st3"
   id="ellipse73"
   style="fill:#f2f2f2;stroke:none;stroke-width:34;stroke-linecap:butt" />
					</g>
					<g
   id="shape2232-27"
   transform="translate(7.27559)">
						<title
   id="title76">Sheet.2232</title>
						<ellipse
   cx="2.58268"
   cy="110.714"
   rx="2.58268"
   ry="2.6564701"
   class="st3"
   id="ellipse78"
   style="fill:#f2f2f2;stroke:none;stroke-width:34;stroke-linecap:butt" />
					</g>
					<g
   id="shape2233-29">
						<title
   id="title81">Sheet.2233</title>
						<ellipse
   cx="2.58268"
   cy="110.714"
   rx="2.58268"
   ry="2.6564701"
   class="st3"
   id="ellipse83"
   style="fill:#f2f2f2;stroke:none;stroke-width:34;stroke-linecap:butt" />
					</g>
				</g>
				<g
   id="shape2234-31"
   transform="translate(29.1339,-21.4461)">
					<title
   id="title87">Sheet.2234</title>
					<path
   d="m 0,112.82 a 0.535445,0.550744 -180 0 0 0.535433,0.55073 L 22.74,113.37 a 0.535445,0.550744 -180 0 0 0.535433,-0.55073 L 23.28,111.1 a 0.535445,0.550744 -180 0 0 -0.535433,-0.55073 L 0.54,110.55 a 0.535445,0.550744 -180 0 0 -0.535433,0.55073 z"
   class="st3"
   id="path89"
   inkscape:connector-curvature="0"
   style="fill:#f2f2f2;stroke:none;stroke-width:34;stroke-linecap:butt" />
				</g>
			</g>
		</g>
	</g>
</svg>