<?xml version="1.0" encoding="UTF-8" standalone="no"?>
<!-- Generated by Microsoft Visio, SVG Export Quantum Workspace.svg Page-1 -->

<svg
   xmlns:dc="http://purl.org/dc/elements/1.1/"
   xmlns:cc="http://creativecommons.org/ns#"
   xmlns:rdf="http://www.w3.org/1999/02/22-rdf-syntax-ns#"
   xmlns:svg="http://www.w3.org/2000/svg"
   xmlns="http://www.w3.org/2000/svg"
   xmlns:sodipodi="http://sodipodi.sourceforge.net/DTD/sodipodi-0.dtd"
   xmlns:inkscape="http://www.inkscape.org/namespaces/inkscape"
   width="45.349998"
   height="56.689999"
   viewBox="0 0 45.35 56.689999"
   xml:space="preserve"
   class="st3"
   version="1.1"
   id="svg24"
   sodipodi:docname="Quantum Workspace.svg"
   style="font-size:12px;overflow:visible;color-interpolation-filters:sRGB;fill:none;fill-rule:evenodd;stroke-linecap:square;stroke-miterlimit:3"
   inkscape:version="0.92.5 (2060ec1f9f, 2020-04-08)"><metadata
   id="metadata30"><rdf:RDF><cc:Work
       rdf:about=""><dc:format>image/svg+xml</dc:format><dc:type
         rdf:resource="http://purl.org/dc/dcmitype/StillImage" /></cc:Work></rdf:RDF></metadata><defs
   id="defs28" /><sodipodi:namedview
   pagecolor="#ffffff"
   bordercolor="#666666"
   borderopacity="1"
   objecttolerance="10"
   gridtolerance="10"
   guidetolerance="10"
   inkscape:pageopacity="0"
   inkscape:pageshadow="2"
   inkscape:window-width="640"
   inkscape:window-height="480"
   id="namedview26"
   showgrid="false"
   inkscape:zoom="1.8924055"
   inkscape:cx="22.676998"
   inkscape:cy="28.3398"
   inkscape:window-x="0"
   inkscape:window-y="0"
   inkscape:window-maximized="0"
   inkscape:current-layer="svg24" />
	<style
   type="text/css"
   id="style2">
	<![CDATA[
		.st1 {fill:#0078d4;stroke:none;stroke-linecap:butt;stroke-width:34}
		.st2 {fill:#ffffff;stroke:none;stroke-linecap:butt;stroke-width:34}
		.st3 {fill:none;fill-rule:evenodd;font-size:12px;overflow:visible;stroke-linecap:square;stroke-miterlimit:3}
	]]>
	</style>

	<g
   id="g22"
   transform="translate(-34,-34.0043)">
		<title
   id="title4">Page-1</title>
		<g
   id="group2205-1"
   transform="translate(34,-34.0157)">
			<title
   id="title6">Quantum Workspace</title>
			<g
   id="group2206-2">
				<title
   id="title8">Sheet.2206</title>
				<g
   id="shape2207-3"
   transform="translate(0.308533)">
					<title
   id="title10">Sheet.2207</title>
					<path
   d="m 39.18,124.71 c -0.3,0 -0.3,0 0,0 l -11.1,-6.62 -5.56,3.15 L 0,108.02 V 81.24 L 22.21,68.02 44.74,81.24 v 27.09 l -5.25,3.15 5.25,3.15 v 7.24 z"
   class="st1"
   id="path12"
   inkscape:connector-curvature="0"
   style="fill:#0078d4;stroke:none;stroke-width:34;stroke-linecap:butt" />
				</g>
				<g
   id="shape2208-5">
					<title
   id="title15">Sheet.2208</title>
					<path
   d="M 45.35,108.02 V 81.24 L 22.52,68.02 H 22.21 L 0,81.24 v 27.09 l 22.52,13.23 5.56,-3.15 5.55,3.15 5.55,3.15 5.56,-3.15 v -7.25 l -5.25,-3.14 5.86,-3.15 c -0.3,0 0,0 0,0 z M 33.94,114 v -5.67 l 4.94,2.84 z M 22.21,94.16 17.59,91.32 22.21,88.49 Z m 0.62,-5.67 4.94,2.83 -4.94,2.84 z m -0.92,6.3 -4.63,2.83 v -5.67 z m 0.3,0.31 v 5.67 l -4.62,-2.83 z m 0.62,0 4.94,2.84 -4.94,2.83 z m 0.31,-0.31 4.94,-2.84 v 5.67 z m 0,-6.62 4.94,-2.83 v 5.67 z m -5.86,2.84 v -5.67 l 4.93,2.83 z m -0.62,6.61 -4.94,-2.83 4.94,-2.84 z m 5.25,3.78 -4.94,2.84 v -5.67 z m 5.86,-2.83 v 5.67 l -4.94,-2.84 z m 0.62,-6.62 4.93,2.84 -4.93,2.83 z m 0.3,-0.63 4.94,-2.83 v 5.67 z m -0.3,-0.31 v -5.67 l 4.93,2.83 z m -5.56,-3.47 v -5.67 l 4.94,2.84 z m -0.62,0 -4.62,-2.83 4.62,-2.84 z m -5.55,3.47 -4.94,-2.84 4.94,-2.83 z m -0.31,0.31 -4.63,2.84 v -5.67 z m 0,6.62 -4.93,2.83 V 95.1 Z m 0.31,0.63 v 5.67 l -4.94,-2.84 z m 5.55,3.15 v 5.67 l -4.93,-2.84 z m 0.62,0 4.94,2.83 -4.94,2.84 z m 5.56,-3.15 4.93,2.83 -4.93,2.84 z m 0.3,-0.63 4.94,-2.84 v 5.67 z m 5.25,-9.45 4.94,2.83 -4.94,2.84 z m -5.25,-3.78 4.94,-2.84 v 5.67 z m -5.55,-3.15 4.94,-2.84 v 5.67 z m -5.86,2.83 v -5.67 l 4.93,2.84 z m -5.56,3.15 v -5.67 l 4.94,2.84 z m -0.61,6.62 -4.94,-2.84 4.94,-2.83 z m 0,6.61 -4.94,-2.83 4.94,-2.84 z m 5.24,3.78 -4.93,2.84 v -5.67 z m 5.56,3.47 -4.94,2.83 v -5.67 z m 5.86,-2.84 v 5.67 l -4.94,-2.83 z m 5.86,-3.46 v 5.67 l -4.94,-2.84 z m 0.31,-6.62 4.94,2.84 -4.94,2.83 z m 0.31,-0.31 4.93,-2.84 v 5.67 z m 0,-6.62 4.93,-2.83 v 5.67 z m -0.31,-0.63 v -5.67 l 4.94,2.84 z m -5.55,-3.15 v -5.67 l 4.93,2.84 z m -5.56,-3.46 v -5.67 l 4.94,2.83 z m -0.62,0 -4.62,-2.84 4.62,-2.83 z m -5.55,3.46 -4.94,-2.83 4.94,-2.84 z m -5.55,3.15 -4.94,-2.83 4.94,-2.84 z m -0.31,0.63 -4.94,2.84 v -5.67 z m 0,6.62 -4.94,2.83 v -5.67 z m 0,6.61 -4.94,2.84 v -5.67 z m 0.31,0.32 v 5.67 l -4.94,-2.84 z m 5.55,3.46 v 5.67 l -4.94,-2.83 z m 5.55,3.15 V 114 l -4.93,-2.83 z m 0.62,0 4.94,2.84 -4.94,2.83 z m 5.56,-3.15 4.93,2.84 -4.93,2.83 z m 5.55,-3.46 4.94,2.83 -4.94,2.84 z m 0.31,-0.32 4.93,-2.83 v 5.67 z m 5.24,-9.45 4.94,2.84 -4.94,2.83 z m 0,-6.61 4.94,2.83 -4.94,2.84 z m -5.24,-3.78 4.93,-2.84 v 5.67 z m -5.56,-3.47 4.94,-2.83 v 5.67 z m -5.55,-3.15 4.94,-2.83 v 5.67 z m -5.86,2.84 v -5.67 l 4.93,2.83 z m -5.56,3.15 v -5.67 l 4.94,2.83 z m -5.86,3.46 v -5.67 l 4.94,2.84 z M 5.55,91.01 0.62,88.17 5.55,85.34 Z m 0,6.61 -4.93,-2.83 4.93,-2.84 z m 0,6.62 -4.93,-2.84 4.93,-2.83 z m 5.25,3.78 -4.94,2.83 v -5.67 z m 5.55,3.15 -4.93,2.83 v -5.67 z m 5.56,3.46 -4.94,2.83 v -5.66 z m 5.86,-2.83 v 5.66 l -4.94,-2.83 z m 5.86,-3.47 V 114 l -4.94,-2.83 z m 5.55,3.47 v 5.66 l -4.93,-2.83 z m -4.93,-3.78 4.93,-2.84 v 5.67 z m 5.24,-9.45 4.94,2.83 -4.94,2.84 z m 0.31,-0.63 4.94,-2.84 v 5.67 z m 0,-6.62 4.94,-2.83 v 5.67 z m 0,-6.61 4.94,-2.84 v 5.67 z m -0.31,-0.32 v -5.67 l 4.94,2.84 z m -5.55,-3.46 v -5.67 l 4.94,2.83 z m -5.55,-3.15 v -5.67 l 4.93,2.83 z m -5.56,-3.47 v -5.66 l 4.94,2.83 z m -0.62,0 -4.62,-2.83 4.62,-2.83 z m -5.55,3.47 -4.94,-2.84 4.94,-2.83 z m -5.55,3.15 -4.94,-2.84 4.94,-2.83 z M 5.55,84.39 0.62,81.56 5.55,78.72 Z m -0.3,0.32 -4.94,2.83 v -5.67 z m 0,6.61 -4.94,2.84 v -5.67 z m 0,6.62 -4.94,2.83 V 95.1 Z m 0,6.61 -4.94,2.84 v -5.67 z m 0.3,0.63 v 5.67 l -4.93,-2.83 z m 5.56,3.15 V 114 l -4.94,-2.83 z m 5.55,3.47 v 5.66 l -4.94,-2.83 z m 5.55,3.14 v 5.67 l -4.93,-2.83 z m 0.62,0 4.94,2.84 -4.94,2.83 z m 5.56,-3.14 4.93,2.83 -4.93,2.83 z m 10.49,5.98 -4.94,2.83 v -5.67 z m 0.3,0.63 v 5.67 l -4.93,-2.84 z m 0.31,0 4.94,2.83 -4.94,2.84 z m 0.31,-0.63 4.94,-2.84 v 5.67 z m -0.31,-0.32 v -5.66 l 4.94,2.83 z m 0,-12.28 4.94,2.84 -4.94,2.83 z m 0.31,-0.63 4.94,-2.83 v 5.67 z m -6.17,10.39 v 5.67 l -4.94,-2.83 z"
   class="st2"
   id="path17"
   inkscape:connector-curvature="0"
   style="fill:#ffffff;stroke:none;stroke-width:34;stroke-linecap:butt" />
				</g>
			</g>
		</g>
	</g>
</svg>