<?xml version="1.0" encoding="UTF-8" standalone="no"?>
<!-- Generated by Microsoft Visio, SVG Export Virtual Subnet.svg Page-1 -->

<svg
   xmlns:dc="http://purl.org/dc/elements/1.1/"
   xmlns:cc="http://creativecommons.org/ns#"
   xmlns:rdf="http://www.w3.org/1999/02/22-rdf-syntax-ns#"
   xmlns:svg="http://www.w3.org/2000/svg"
   xmlns="http://www.w3.org/2000/svg"
   xmlns:sodipodi="http://sodipodi.sourceforge.net/DTD/sodipodi-0.dtd"
   xmlns:inkscape="http://www.inkscape.org/namespaces/inkscape"
   width="56.701057"
   height="42.524395"
   viewBox="0 0 56.701057 42.524394"
   xml:space="preserve"
   class="st4"
   version="1.1"
   id="svg51"
   sodipodi:docname="Virtual Subnet.svg"
   style="font-size:12px;overflow:visible;color-interpolation-filters:sRGB;fill:none;fill-rule:evenodd;stroke-linecap:square;stroke-miterlimit:3"
   inkscape:version="0.92.5 (2060ec1f9f, 2020-04-08)"><metadata
   id="metadata55"><rdf:RDF><cc:Work
       rdf:about=""><dc:format>image/svg+xml</dc:format><dc:type
         rdf:resource="http://purl.org/dc/dcmitype/StillImage" /></cc:Work></rdf:RDF></metadata><sodipodi:namedview
   pagecolor="#ffffff"
   bordercolor="#666666"
   borderopacity="1"
   objecttolerance="10"
   gridtolerance="10"
   guidetolerance="10"
   inkscape:pageopacity="0"
   inkscape:pageshadow="2"
   inkscape:window-width="640"
   inkscape:window-height="480"
   id="namedview53"
   showgrid="false"
   inkscape:zoom="2.1350703"
   inkscape:cx="28.352971"
   inkscape:cy="21.250076"
   inkscape:window-x="0"
   inkscape:window-y="0"
   inkscape:window-maximized="0"
   inkscape:current-layer="svg51" />
	<style
   type="text/css"
   id="style2">
	<![CDATA[
		.st1 {fill:url(#grad0-6);stroke:none;stroke-linecap:butt;stroke-width:34}
		.st2 {fill:#50e6ff;stroke:none;stroke-linecap:butt;stroke-width:34}
		.st3 {fill:#1490df;stroke:none;stroke-linecap:butt;stroke-width:34}
		.st4 {fill:none;fill-rule:evenodd;font-size:12px;overflow:visible;stroke-linecap:square;stroke-miterlimit:3}
	]]>
	</style>

	<defs
   id="Patterns_And_Gradients">
		<linearGradient
   id="grad0-6"
   x1="1.5069922"
   y1="98.482297"
   x2="10.516138"
   y2="98.482297"
   gradientTransform="scale(0.98610491,1.0140909)"
   gradientUnits="userSpaceOnUse">
			<stop
   offset="0"
   stop-color="#5e9624"
   stop-opacity="1"
   id="stop4" />
			<stop
   offset="0.24"
   stop-color="#6fb02a"
   stop-opacity="1"
   id="stop6" />
			<stop
   offset="0.5"
   stop-color="#7cc52f"
   stop-opacity="1"
   id="stop8" />
			<stop
   offset="0.755"
   stop-color="#83d232"
   stop-opacity="1"
   id="stop10" />
			<stop
   offset="1"
   stop-color="#86d633"
   stop-opacity="1"
   id="stop12" />
		</linearGradient>
	</defs>
	<g
   id="g49"
   transform="translate(-33.99353,-33.993185)">
		<title
   id="title16">Page-1</title>
		<g
   id="group248-1"
   transform="translate(34,-34.0157)">
			<title
   id="title18">Virtual Subnet</title>
			<g
   id="group249-2">
				<title
   id="title20">g12</title>
				<g
   id="shape250-3"
   transform="translate(22.2192,-15.0397)">
					<title
   id="title22">path2</title>
					<path
   d="m 5.93,99.87 c -3.96,0 -5.93,4.92 -3.13,7.79 2.8,2.88 7.58,0.83 7.57,-3.23 0,-2.52 -1.99,-4.56 -4.44,-4.56 z"
   class="st1"
   id="path24"
   inkscape:connector-curvature="0"
   style="fill:url(#grad0-6);stroke:none;stroke-width:34;stroke-linecap:butt" />
				</g>
				<g
   id="shape251-7"
   transform="translate(0.0153277)">
					<title
   id="title27">path4</title>
					<path
   d="m 23.67,107.57 -2.55,2.62 a 1.14963,1.18221 0 0 1 -1.62,0 L 0.67,90.9 a 2.29927,2.36441 0 0 1 0,-3.35 l 2.55,-2.62 20.44,20.96 a 1.14963,1.18221 0 0 1 0,1.68 z"
   class="st2"
   id="path29"
   inkscape:connector-curvature="0"
   style="fill:#50e6ff;stroke:none;stroke-width:34;stroke-linecap:butt" />
				</g>
				<g
   id="shape252-9"
   transform="translate(0,-17.074)">
					<title
   id="title32">path6</title>
					<path
   d="m 20.76,85.5 2.57,2.63 a 1.14963,1.18221 0 0 1 0,1.68 l -20.1,20.73 -2.56,-2.62 a 2.29927,2.36441 0 0 1 0,-3.35 L 19.15,85.52 a 1.14963,1.18221 0 0 1 1.62,0 z"
   class="st3"
   id="path34"
   inkscape:connector-curvature="0"
   style="fill:#1490df;stroke:none;stroke-width:34;stroke-linecap:butt" />
				</g>
				<g
   id="shape253-11"
   transform="translate(32.6552,-0.0647889)">
					<title
   id="title37">path8</title>
					<path
   d="m 20.79,84.93 2.54,2.62 a 2.29927,2.36441 0 0 1 0,3.34 l -18.82,19.3 a 1.14963,1.18221 0 0 1 -1.63,0 l -2.54,-2.62 a 1.14963,1.18221 0 0 1 0,-1.68 z"
   class="st2"
   id="path39"
   inkscape:connector-curvature="0"
   style="fill:#50e6ff;stroke:none;stroke-width:34;stroke-linecap:butt" />
				</g>
				<g
   id="shape254-13"
   transform="translate(33.0231,-17.1427)">
					<title
   id="title42">path10</title>
					<path
   d="m 22.98,107.92 -2.54,2.62 -20.1,-20.73 a 1.14963,1.18221 0 0 1 0,-1.67 L 2.9,85.5 a 1.14963,1.18221 0 0 1 1.63,0 L 23,104.55 a 2.29927,2.36441 0 0 1 -0.01,3.35 z"
   class="st3"
   id="path44"
   inkscape:connector-curvature="0"
   style="fill:#1490df;stroke:none;stroke-width:34;stroke-linecap:butt" />
				</g>
			</g>
		</g>
	</g>
</svg>