<?xml version="1.0" encoding="UTF-8" standalone="no"?>
<!-- Generated by Microsoft Visio, SVG Export VM Application Version.svg Page-1 -->

<svg
   xmlns:dc="http://purl.org/dc/elements/1.1/"
   xmlns:cc="http://creativecommons.org/ns#"
   xmlns:rdf="http://www.w3.org/1999/02/22-rdf-syntax-ns#"
   xmlns:svg="http://www.w3.org/2000/svg"
   xmlns="http://www.w3.org/2000/svg"
   xmlns:sodipodi="http://sodipodi.sourceforge.net/DTD/sodipodi-0.dtd"
   xmlns:inkscape="http://www.inkscape.org/namespaces/inkscape"
   width="56.693302"
   height="56.691902"
   viewBox="0 0 56.693302 56.691902"
   xml:space="preserve"
   class="st7"
   version="1.1"
   id="svg65"
   sodipodi:docname="VM Application Version.svg"
   style="font-size:12px;overflow:visible;color-interpolation-filters:sRGB;fill:none;fill-rule:evenodd;stroke-linecap:square;stroke-miterlimit:3"
   inkscape:version="0.92.5 (2060ec1f9f, 2020-04-08)"><metadata
   id="metadata69"><rdf:RDF><cc:Work
       rdf:about=""><dc:format>image/svg+xml</dc:format><dc:type
         rdf:resource="http://purl.org/dc/dcmitype/StillImage" /></cc:Work></rdf:RDF></metadata><sodipodi:namedview
   pagecolor="#ffffff"
   bordercolor="#666666"
   borderopacity="1"
   objecttolerance="10"
   gridtolerance="10"
   guidetolerance="10"
   inkscape:pageopacity="0"
   inkscape:pageshadow="2"
   inkscape:window-width="640"
   inkscape:window-height="480"
   id="namedview67"
   showgrid="false"
   inkscape:zoom="1.8924055"
   inkscape:cx="28.346501"
   inkscape:cy="28.339801"
   inkscape:window-x="0"
   inkscape:window-y="0"
   inkscape:window-maximized="0"
   inkscape:current-layer="svg65" />
	<style
   type="text/css"
   id="style2">
	<![CDATA[
		.st1 {fill:url(#grad0-6);stroke:none;stroke-linecap:butt;stroke-width:34}
		.st2 {fill:url(#grad0-10);stroke:none;stroke-linecap:butt;stroke-width:34}
		.st3 {fill:#9cebff;stroke:none;stroke-linecap:butt;stroke-width:34}
		.st4 {fill:#773adc;stroke:none;stroke-linecap:butt;stroke-width:34}
		.st5 {fill:#ffffff;stroke:none;stroke-linecap:butt;stroke-width:34}
		.st6 {fill:url(#grad0-20);stroke:none;stroke-linecap:butt;stroke-width:34}
		.st7 {fill:none;fill-rule:evenodd;font-size:12px;overflow:visible;stroke-linecap:square;stroke-miterlimit:3}
	]]>
	</style>

	<defs
   id="Patterns_And_Gradients">
		<linearGradient
   id="grad0-6"
   x1="-3.1231624e-07"
   y1="108.03257"
   x2="44.892989"
   y2="108.03257"
   gradientTransform="scale(1.2262494,0.81549481)"
   gradientUnits="userSpaceOnUse">
			<stop
   offset="0.18"
   stop-color="#5ea0ef"
   stop-opacity="1"
   id="stop4" />
			<stop
   offset="1"
   stop-color="#0078d4"
   stop-opacity="1"
   id="stop6" />
		</linearGradient>
		<linearGradient
   id="grad0-10"
   x1="0"
   y1="117.7419"
   x2="14.817388"
   y2="117.7419"
   gradientTransform="scale(1.0629403,0.94078657)"
   gradientUnits="userSpaceOnUse">
			<stop
   offset="0.2"
   stop-color="#1f56a3"
   stop-opacity="1"
   id="stop9" />
			<stop
   offset="1"
   stop-color="#1490df"
   stop-opacity="1"
   id="stop11" />
		</linearGradient>
		<linearGradient
   id="grad0-20"
   x1="-4.0197688e-07"
   y1="97.739501"
   x2="27.199955"
   y2="97.739501"
   gradientTransform="scale(1.0018399,0.99816347)"
   gradientUnits="userSpaceOnUse">
			<stop
   offset="0.13"
   stop-color="#b796f9"
   stop-opacity="1"
   id="stop14" />
			<stop
   offset="1"
   stop-color="#773adc"
   stop-opacity="1"
   id="stop16" />
		</linearGradient>
	</defs>
	<g
   id="g63"
   transform="translate(-34,-34.0024)">
		<title
   id="title20">Page-1</title>
		<g
   id="group193-1"
   transform="translate(34,-34.0157)">
			<title
   id="title22">VM Application Version</title>
			<g
   id="group194-2">
				<title
   id="title24">Sheet.194</title>
				<g
   id="shape195-3"
   transform="translate(0,-20.0819)">
					<title
   id="title26">Sheet.195</title>
					<path
   d="m 55.05,89.94 v 29.82 A 0.885037,0.88189 0 0 1 53.55808,120.38992 14.9445,14.8913 -180 0 0 29.81,124.71 H 1.85 A 1.85542,1.84882 0 0 1 0,122.86 V 89.94 A 1.85226,1.84567 0 0 1 1.85,88.1 H 53.2 a 1.84909,1.84252 0 0 1 1.85,1.84 z"
   class="st1"
   id="path28"
   inkscape:connector-curvature="0"
   style="fill:url(#grad0-6);stroke:none;stroke-width:34;stroke-linecap:butt" />
				</g>
				<g
   id="shape196-7"
   transform="translate(14.0531,-6.12283)">
					<title
   id="title31">Sheet.196</title>
					<path
   d="M 14.81,124.71 H 0 a 3.21774,3.2063 0 0 1 2.72,-3.1 c 5.45,-0.65 5.45,-4.55 5.45,-10.84 h 7.58 a 14.9476,14.8945 -180 0 0 -0.13,12.69 0.885037,0.88189 0 0 1 -0.809176,1.24409 z"
   class="st2"
   id="path33"
   inkscape:connector-curvature="0"
   style="fill:url(#grad0-10);stroke:none;stroke-width:34;stroke-linecap:butt" />
				</g>
				<g
   id="shape197-11"
   transform="translate(22.1038,-33.0362)">
					<title
   id="title36">Sheet.197</title>
					<path
   d="m 0,124.37 a 0.335057,0.333866 -180 0 0 0.33505,0.33386 L 8.19,124.71 a 0.335057,0.333866 -180 0 0 0.33505,-0.33386 L 8.52,116.55 A 0.335057,0.333866 -180 0 0 8.18495,116.21614 L 0.34,116.21 a 0.335057,0.333866 -180 0 0 -0.33505,0.33386 z"
   class="st3"
   id="path38"
   inkscape:connector-curvature="0"
   style="fill:#9cebff;stroke:none;stroke-width:34;stroke-linecap:butt" />
				</g>
				<g
   id="shape198-13"
   transform="translate(27.6321,-38.4252)">
					<title
   id="title41">Sheet.198</title>
					<path
   d="M 8.39,115.61 H 0.33 a 0.316084,0.314961 -180 0 0 -0.331889,0.31496 L 0,117.39 a 0.316084,0.314961 -180 0 0 0.331889,0.31496 L 6.26,117.7 a 0.670099,0.667717 0 0 1 0.670099,0.66457 L 6.93,124.39 a 0.316084,0.314961 -180 0 0 0.316084,0.31496 L 8.71,124.71 a 0.316084,0.314961 -180 0 0 0.316084,-0.31496 L 9.03,116.28 a 0.663777,0.661417 -180 0 0 -0.666938,-0.66457 z"
   class="st4"
   id="path43"
   inkscape:connector-curvature="0"
   style="fill:#773adc;stroke:none;stroke-width:34;stroke-linecap:butt" />
				</g>
				<g
   id="shape199-15"
   transform="translate(17.9378,-29.1874)">
					<title
   id="title46">Sheet.199</title>
					<path
   d="m 15.25,116.89 v 5.28 a 0.606882,0.604724 0 0 1 -0.610043,0.60472 L 2.54,122.77 A 0.610043,0.607874 0 0 1 1.929957,122.16528 L 1.93,110.78 a 0.610043,0.607874 0 0 1 0.610043,-0.60787 L 8.61,110.18 a 0.316084,0.314961 -180 0 0 0.316084,-0.31496 L 8.93,108.6 A 0.316084,0.314961 -180 0 0 8.613916,108.28504 L 0.61,108.29 A 0.606882,0.604724 -180 0 0 -4.3e-5,108.89158 L 0,124.1 a 0.606882,0.604724 -180 0 0 0.610043,0.60472 L 16.59,124.71 a 0.610043,0.607874 -180 0 0 0.610043,-0.60472 L 17.2,116.89 a 0.316084,0.314961 -180 0 0 -0.331889,-0.31496 L 15.61,116.57 a 0.316084,0.314961 -180 0 0 -0.33505,0.31496 z"
   class="st5"
   id="path48"
   inkscape:connector-curvature="0"
   style="fill:#ffffff;stroke:none;stroke-width:34;stroke-linecap:butt" />
				</g>
				<g
   id="shape200-17"
   transform="translate(29.4433)">
					<title
   id="title51">Sheet.200</title>
					<path
   d="M 0,111.13 A 13.6251,13.5767 -180 0 0 13.62,124.71 13.6251,13.5767 -180 0 0 27.25,111.13 13.6251,13.5767 -180 0 0 13.62,97.56 13.6251,13.5767 -180 0 0 0,111.13 Z"
   class="st6"
   id="path53"
   inkscape:connector-curvature="0"
   style="fill:url(#grad0-20);stroke:none;stroke-width:34;stroke-linecap:butt" />
				</g>
				<g
   id="shape201-21"
   transform="translate(36.0874,-5.64094)">
					<title
   id="title56">Sheet.201</title>
					<path
   d="M 13.96,124.71 H 0 l 0.03,-0.08 2.85,-6.47 4.04,-9.19 a 0.180168,0.179528 0 0 1 0.199133,-0.12913 C 7.37,108.84 7.37,108.84 7.47,109.07 l 4.66,11.22 1.8,4.34 z m -2.74,-0.97 -4.64,-11.39 -5.04,11.39 z"
   class="st5"
   id="path58"
   inkscape:connector-curvature="0"
   style="fill:#ffffff;stroke:none;stroke-width:34;stroke-linecap:butt" />
				</g>
			</g>
		</g>
	</g>
</svg>