<?xml version="1.0" encoding="UTF-8" standalone="no"?>
<!DOCTYPE svg PUBLIC "-//W3C//DTD SVG 1.1//EN" "http://www.w3.org/Graphics/SVG/1.1/DTD/svg11.dtd">
<!-- Generated by Microsoft Visio, SVG Export Activity Log.svg Page-1 -->
<svg xmlns="http://www.w3.org/2000/svg" xmlns:xlink="http://www.w3.org/1999/xlink" xmlns:ev="http://www.w3.org/2001/xml-events"
		width="1.61375in" height="1.81099in" viewBox="0 0 116.19 130.391" xml:space="preserve" color-interpolation-filters="sRGB"
		class="st6">
	<style type="text/css">
	<![CDATA[
		.st1 {fill:#005ba1;stroke:none;stroke-linecap:butt;stroke-width:34}
		.st2 {fill:#ffffff;stroke:none;stroke-linecap:butt;stroke-width:34}
		.st3 {fill:url(#grad0-10);stroke:none;stroke-linecap:butt;stroke-width:34}
		.st4 {visibility:visible}
		.st5 {fill:#000000;font-family:Calibri;font-size:0.666664em}
		.st6 {fill:none;fill-rule:evenodd;font-size:12px;overflow:visible;stroke-linecap:square;stroke-miterlimit:3}
	]]>
	</style>

	<defs id="Patterns_And_Gradients">
		<linearGradient id="grad0-10" x1="0" y1="0" x2="1" y2="0" gradientTransform="rotate(-90 0.5 0.5)">
			<stop offset="0" stop-color="#1988d9" stop-opacity="1"/>
			<stop offset="0.9" stop-color="#54aef0" stop-opacity="1"/>
		</linearGradient>
	</defs>
	<g>
		<title>Page-1</title>
		<g id="group8928-1" transform="translate(34,-39.685)">
			<title>Activity Log.8928</title>
			<desc>Activity Log</desc>
			<g id="group8929-2">
				<title>Sheet.8929</title>
				<g id="shape8930-3" transform="translate(0,-0.26632)">
					<title>Sheet.8930</title>
					<path d="M0.07 79.32 L4.18 74.63 A2.00504 1.96411 0 0 1 5.71 73.96 L45.16 73.96 A2.75268 2.69649 0 0 1 48.19
								 76.73 L48.19 125 A1.93707 1.89753 0 0 1 47.51 126.43 L43.09 130.39 L2.75 130.39 L0 129.29 L0.07
								 79.32 Z" class="st1"/>
				</g>
				<g id="shape8931-5" transform="translate(3.39838,-2.36359)">
					<title>Sheet.8931</title>
					<path d="M0 81.39 L2.51 78.59 A1.69919 1.6645 0 0 1 3.7 77.99 L40.71 77.99 A1.76716 1.73108 0 0 1 42.48 79.72
								 L42.48 125.6 A1.76716 1.73108 0 0 1 41.9 126.9 L37.96 130.39 L0 81.39 Z" class="st2"/>
				</g>
				<g id="shape8932-7" transform="translate(0.101951,0)">
					<title>Sheet.8932</title>
					<path d="M40.98 78.99 L0.2 78.99 a0.203903 0.19974 -180 0 0 -0.203903 0.19974 L0 129.13 A1.32537 1.29831 -180
								 0 0 1.33 130.39 L40.98 130.39 A1.29138 1.26502 -180 0 0 42.28 129.13 L42.28 80.29 A1.32537 1.29831
								 -180 0 0 40.98 78.99 Z" class="st3"/>
				</g>
				<g id="shape8933-11" transform="translate(9.54944,-29.7946)">
					<title>Sheet.8933</title>
					<path d="M-0 129.46 a0.951567 0.932142 -180 0 0 0.951545 0.932121 L21.41 130.39 a0.951567 0.932142 -180 0 0 0.951545
								 -0.932121 L22.36 123.4 a0.951567 0.932142 -180 0 0 -0.951545 -0.932121 L0.95 122.47 a0.951567 0.932142
								 -180 0 0 -0.951545 0.932121 L0 129.46 Z" class="st2"/>
				</g>
			</g>
			<g id="shape8928-13">
				<g id="shadow8928-14" transform="matrix(1,0,0,1,1.41732,1.41732)" class="st4"/>
				<text x="5.38" y="146.1" class="st5">Activity Log</text>			</g>
		</g>
	</g>
</svg>
