<?xml version="1.0" encoding="UTF-8" standalone="no"?>
<!DOCTYPE svg PUBLIC "-//W3C//DTD SVG 1.1//EN" "http://www.w3.org/Graphics/SVG/1.1/DTD/svg11.dtd">
<!-- Generated by Microsoft Visio, SVG Export Incident.svg Page-1 -->
<svg xmlns="http://www.w3.org/2000/svg" xmlns:xlink="http://www.w3.org/1999/xlink" xmlns:ev="http://www.w3.org/2001/xml-events"
		width="1.2233in" height="1.35574in" viewBox="0 0 88.0776 97.6136" xml:space="preserve" color-interpolation-filters="sRGB"
		class="st8">
	<style type="text/css">
	<![CDATA[
		.st1 {fill:#ffffff;fill-opacity:0.75;stroke:none;stroke-linecap:butt;stroke-width:15.6923}
		.st2 {fill:#0072c6;stroke:none;stroke-linecap:butt;stroke-width:15.6923}
		.st3 {fill:#bcbcbc;fill-opacity:0.61;stroke:none;stroke-linecap:butt;stroke-width:15.6923}
		.st4 {fill:#1185db;stroke:none;stroke-linecap:butt;stroke-width:15.6923}
		.st5 {fill:#ffffff;stroke:none;stroke-linecap:butt;stroke-width:15.6923}
		.st6 {visibility:visible}
		.st7 {fill:#000000;font-family:Calibri;font-size:0.666664em}
		.st8 {fill:none;fill-rule:evenodd;font-size:12px;overflow:visible;stroke-linecap:square;stroke-miterlimit:3}
	]]>
	</style>

	<g>
		<title>Page-1</title>
		<g id="group8802-1" transform="translate(15.6923,-33.7323)">
			<title>Incident.8802</title>
			<desc>Incident</desc>
			<g id="group8803-2">
				<title>g18</title>
				<g id="shape8804-3" transform="translate(21.971,-19.7605)">
					<title>path4</title>
					<path d="M10.79 89.35 L1.57 89.35 C0.59 89.35 0 90.15 0 90.96 L0 96 C0 97.01 0.79 97.61 1.57 97.61 L10.79 97.61
								 C11.77 97.61 12.36 96.81 12.36 96 L12.36 90.96 C12.36 90.15 11.57 89.35 10.79 89.35 Z" class="st1"/>
				</g>
				<g id="shape8805-5" transform="translate(13.3385,-34.8813)">
					<title>path6</title>
					<path d="M29.82 97.61 L25.5 97.61 L25.5 90.36 C25.5 89.15 24.72 88.34 23.54 88.34 L6.28 88.34 C5.1 88.34 4.32
								 89.15 4.32 90.36 L4.32 97.61 L0 97.61 L0 91.36 C0 87.73 2.55 84.71 6.28 84.31 L23.54 84.31 C27.07
								 84.71 29.82 87.73 29.82 91.36 L29.82 97.61 Z" class="st2"/>
				</g>
				<g id="shape8806-7" transform="translate(0,-24.1954)">
					<title>path8</title>
					<path d="M56.1 94.99 L0 94.99 L0 97.61 L56.1 97.61 L56.1 94.99 Z" class="st3"/>
				</g>
				<g id="shape8807-9">
					<title>path10</title>
					<path d="M0 97.61 L0 61.32 C0 59.3 1.77 57.49 3.73 57.49 L53.16 57.49 A3.51629 3.61417 0 0 1 56.69 61.12 L56.69
								 97.61 L0 97.61 Z" class="st2"/>
				</g>
				<g id="shape8808-11">
					<title>path12</title>
					<path d="M16.87 97.61 L0 97.61 L0 61.32 C0 59.3 1.77 57.49 3.73 57.49 L34.53 57.49 L16.87 97.61 Z" class="st4"/>
				</g>
				<g id="shape8809-13" transform="translate(0,-26.01)">
					<title>path14</title>
					<path d="M0 94.99 L56.69 94.99 L56.69 97.61 L0 97.61 L0 94.99 Z" class="st5"/>
				</g>
				<g id="shape8810-15" transform="translate(21.382,-19.7605)">
					<title>path16</title>
					<path d="M12.16 89.35 L1.57 89.35 C0.59 89.35 0 90.15 0 90.96 L0 96 C0 97.01 0.79 97.61 1.57 97.61 L12.16 97.61
								 C13.14 97.61 13.73 96.81 13.73 96 L13.73 90.96 C13.73 90.15 12.95 89.35 12.16 89.35 Z" class="st5"/>
				</g>
			</g>
			<g id="shape8802-17">
				<g id="shadow8802-18" transform="matrix(1,0,0,1,1.41732,1.41732)" class="st6"/>
				<text x="15.09" y="112.04" class="st7">Incident</text>			</g>
		</g>
	</g>
</svg>
