<?xml version="1.0" encoding="UTF-8" standalone="no"?>
<!DOCTYPE svg PUBLIC "-//W3C//DTD SVG 1.1//EN" "http://www.w3.org/Graphics/SVG/1.1/DTD/svg11.dtd">
<!-- Generated by Microsoft Visio, SVG Export Application Finance and Operations.svg Page-1 -->
<svg xmlns="http://www.w3.org/2000/svg" xmlns:xlink="http://www.w3.org/1999/xlink" xmlns:ev="http://www.w3.org/2001/xml-events"
		width="0.755906in" height="1.33858in" viewBox="0 0 54.4252 96.378" xml:space="preserve" color-interpolation-filters="sRGB"
		class="st7">
	<style type="text/css">
	<![CDATA[
		.st1 {fill:url(#grad0-7);stroke:none;stroke-linecap:butt;stroke-width:0.75}
		.st2 {fill:#000000;fill-opacity:0.32;stroke:none;stroke-linecap:butt;stroke-width:0.75}
		.st3 {fill:#000000;fill-opacity:0.24;stroke:none;stroke-linecap:butt;stroke-width:0.75}
		.st4 {fill:url(#grad0-15);stroke:none;stroke-linecap:butt;stroke-width:0.75}
		.st5 {fill:url(#grad0-19);stroke:none;stroke-linecap:butt;stroke-width:0.75}
		.st6 {fill:url(#grad0-23);stroke:none;stroke-linecap:butt;stroke-width:0.75}
		.st7 {fill:none;fill-rule:evenodd;font-size:12px;overflow:visible;stroke-linecap:square;stroke-miterlimit:3}
	]]>
	</style>

	<defs id="Patterns_And_Gradients">
		<linearGradient id="grad0-7" x1="0" y1="0" x2="1" y2="0" gradientTransform="rotate(91.934649978849 0.5 0.5)">
			<stop offset="0" stop-color="#8661c5" stop-opacity="1"/>
			<stop offset="1" stop-color="#5c428b" stop-opacity="1"/>
		</linearGradient>
		<linearGradient id="grad0-15" x1="0" y1="0" x2="1" y2="0" gradientTransform="rotate(97.582907635352 0.5 0.5)">
			<stop offset="0" stop-color="#ebc7ff" stop-opacity="1"/>
			<stop offset="1" stop-color="#e4b4ff" stop-opacity="1"/>
		</linearGradient>
		<linearGradient id="grad0-19" x1="0" y1="0" x2="1" y2="0" gradientTransform="rotate(92.88720702256 0.5 0.5)">
			<stop offset="0" stop-color="#f8ecff" stop-opacity="1"/>
			<stop offset="1" stop-color="#f1d9ff" stop-opacity="1"/>
		</linearGradient>
		<linearGradient id="grad0-23" x1="0" y1="0" x2="1" y2="0" gradientTransform="rotate(75.270767856672 0.5 0.5)">
			<stop offset="0" stop-color="#cd9ef0" stop-opacity="1"/>
			<stop offset="1" stop-color="#9f75d3" stop-opacity="1"/>
		</linearGradient>
	</defs>
	<g>
		<title>Page-1</title>
		<g id="group20446-1" transform="translate(4.53543,-34.0157)">
			<title>Application Finance and Operations.20446</title>
			<g id="group20447-2">
				<title>Sheet.20447</title>
				<g id="group20448-3">
					<title>Sheet.20448</title>
					<g id="shape20449-4">
						<title>Sheet.20449</title>
						<path d="M16.06 61.12 C16.96 60.21 18.41 60.21 19.3 61.12 L36.09 78.29 L19.3 95.46 C18.41 96.38 16.96 96.38
									 16.06 95.46 L0.89 79.95 C0 79.04 0 77.55 0.89 76.64 L16.06 61.12 Z" class="st1"/>
					</g>
					<g id="shape20450-8" transform="translate(0.0017188,-19.3893)">
						<title>Sheet.20450</title>
						<path d="M16.05 61.16 C16.94 60.24 18.39 60.24 19.29 61.16 L36.06 78.31 L19.29 95.46 C18.39 96.38 16.94 96.38
									 16.05 95.46 L0.89 79.97 C0 79.05 0 77.57 0.89 76.65 L16.05 61.16 Z" class="st2"/>
					</g>
					<g id="shape20451-10" transform="translate(0.0017188,-20.3385)">
						<title>Sheet.20451</title>
						<path d="M16.05 61.16 C16.94 60.24 18.39 60.24 19.29 61.16 L36.06 78.31 L19.29 95.46 C18.39 96.38 16.94 96.38
									 16.05 95.46 L0.89 79.97 C0 79.05 0 77.57 0.89 76.65 L16.05 61.16 Z" class="st3"/>
					</g>
					<g id="shape20452-12" transform="translate(0.0017188,-20.5584)">
						<title>Sheet.20452</title>
						<path d="M16.05 61.16 C16.94 60.24 18.39 60.24 19.29 61.16 L36.06 78.31 L19.29 95.46 C18.39 96.38 16.94 96.38
									 16.05 95.46 L0.89 79.97 C0 79.05 0 77.57 0.89 76.65 L16.05 61.16 Z" class="st4"/>
					</g>
					<g id="shape20453-16" transform="translate(26.0329,-18.0868)">
						<title>Sheet.20453</title>
						<path d="M10.03 75.84 L18.43 84.42 C19.32 85.33 19.32 86.81 18.43 87.73 L10.06 96.38 L0 86.09 L10.03 75.84
									 Z" class="st5"/>
					</g>
					<g id="shape20454-20" transform="translate(9.3186,-20.5584)">
						<title>Sheet.20454</title>
						<path d="M16.72 88.57 L9.97 95.46 C9.08 96.38 7.63 96.38 6.73 95.46 L0 88.58 L6.75 81.68 C7.64 80.77 9.09
									 80.77 9.99 81.68 L16.72 88.57 Z" class="st6"/>
					</g>
				</g>
			</g>
		</g>
	</g>
</svg>
