<?xml version="1.0" encoding="UTF-8" standalone="no"?>
<!-- Generated by Microsoft Visio, SVG Export Application Customer Insights.svg Page-1 -->
<svg xmlns:dc="http://purl.org/dc/elements/1.1/" xmlns:cc="http://creativecommons.org/ns#" xmlns:rdf="http://www.w3.org/1999/02/22-rdf-syntax-ns#" xmlns:svg="http://www.w3.org/2000/svg" xmlns="http://www.w3.org/2000/svg" xmlns:sodipodi="http://sodipodi.sourceforge.net/DTD/sodipodi-0.dtd" xmlns:inkscape="http://www.inkscape.org/namespaces/inkscape" width="53.858932" height="56.6971" viewBox="0 0 53.858932 56.6971" xml:space="preserve" class="st7" version="1.1" id="svg88" sodipodi:docname="Application Customer Insights.svg" style="font-size:12px;overflow:visible;color-interpolation-filters:sRGB;fill:none;fill-rule:evenodd;stroke-linecap:square;stroke-miterlimit:3" inkscape:version="0.92.5 (2060ec1f9f, 2020-04-08)">
  <metadata id="metadata92">
    <rdf:RDF>
      <cc:Work rdf:about="">
        <dc:format>image/svg+xml</dc:format>
        <dc:type rdf:resource="http://purl.org/dc/dcmitype/StillImage" />
      </cc:Work>
    </rdf:RDF>
  </metadata>
  <sodipodi:namedview pagecolor="#ffffff" bordercolor="#666666" borderopacity="1" objecttolerance="10" gridtolerance="10" guidetolerance="10" inkscape:pageopacity="0" inkscape:pageshadow="2" inkscape:window-width="640" inkscape:window-height="480" id="namedview90" showgrid="false" inkscape:zoom="1.8365233" inkscape:cx="35.905404" inkscape:cy="18.900351" inkscape:window-x="0" inkscape:window-y="0" inkscape:window-maximized="0" inkscape:current-layer="svg88" />
	<style type="text/css" id="style2">
	<![CDATA[
		.st1 {fill:url(#grad0-7);stroke:none;stroke-linecap:butt;stroke-width:0.75}
		.st2 {fill:#000000;fill-opacity:0.32;stroke:none;stroke-linecap:butt;stroke-width:0.75}
		.st3 {fill:#000000;fill-opacity:0.24;stroke:none;stroke-linecap:butt;stroke-width:0.75}
		.st4 {fill:url(#grad0-15);stroke:none;stroke-linecap:butt;stroke-width:0.75}
		.st5 {fill:url(#grad0-23);stroke:none;stroke-linecap:butt;stroke-width:0.75}
		.st6 {fill:url(#grad0-31);stroke:none;stroke-linecap:butt;stroke-width:0.75}
		.st7 {fill:none;fill-rule:evenodd;font-size:12px;overflow:visible;stroke-linecap:square;stroke-miterlimit:3}
	]]>
	</style>

	<defs id="Patterns_And_Gradients">
		<linearGradient id="grad0-7" x1="0" y1="73.38766" x2="24.347626" y2="73.38766" gradientTransform="scale(1.0140619,0.9861331)" gradientUnits="userSpaceOnUse">
			<stop offset="0" stop-color="#2064ae" stop-opacity="1" id="stop4" />
			<stop offset="1" stop-color="#27518a" stop-opacity="1" id="stop6" />
		</linearGradient>
		<linearGradient id="grad0-15" x1="0" y1="63.035436" x2="37.599902" y2="63.035436" gradientTransform="scale(1.0441517,0.95771527)" gradientUnits="userSpaceOnUse">
			<stop offset="0" stop-color="#7cecff" stop-opacity="1" id="stop9" />
			<stop offset="1" stop-color="#50e6ff" stop-opacity="1" id="stop11" />
		</linearGradient>
		<linearGradient id="grad0-23" x1="0" y1="63.035436" x2="37.599902" y2="63.035436" gradientTransform="scale(1.0441517,0.95771527)" gradientUnits="userSpaceOnUse">
			<stop offset="0" stop-color="#40c4f5" stop-opacity="1" id="stop14" />
			<stop offset="1" stop-color="#0095e6" stop-opacity="1" id="stop16" />
		</linearGradient>
		<linearGradient id="grad0-31" x1="0" y1="45.566646" x2="33.025218" y2="45.566646" gradientTransform="scale(0.81543747,1.2263356)" gradientUnits="userSpaceOnUse">
			<stop offset="0" stop-color="#0095e6" stop-opacity="1" id="stop19" />
			<stop offset="1" stop-color="#0078d4" stop-opacity="1" id="stop21" />
		</linearGradient>
	</defs>
	<g id="g86" transform="translate(-5.3859292,-5.6672)">
		<title id="title25">Page-1</title>
		<g id="group22199-1" transform="translate(5.38583,-34.0157)">
			<title id="title27">Application Customer Insights.22199</title>
			<g id="group22200-2">
				<title id="title29">Sheet.22200</title>
				<g id="group22201-3">
					<title id="title31">Sheet.22201</title>
					<g id="shape22202-4" transform="translate(14.5866,-16.1981)">
						<title id="title33">Sheet.22202</title>
						<path d="m 12.34,72.37 c 7.24,2.98 12.35,10.28 12.35,18.8 0,0.24 -0.01,0.48 -0.02,0.72 C 21.3,94.7 17.01,96.38 12.34,96.38 7.67,96.38 3.38,94.7 0.01,91.89 0,91.65 0,91.41 0,91.17 0,82.65 5.11,75.35 12.34,72.37 Z" class="st1" id="path35" inkscape:connector-curvature="0" style="fill:url(#grad0-7);stroke:none;stroke-width:0.75;stroke-linecap:butt" />
					</g>
					<g id="shape22203-8" transform="translate(7.29331,-19.5301)">
						<title id="title38">Sheet.22203</title>
						<path d="M 39.26,79.9 C 35.89,77.09 31.6,75.41 26.93,75.41 16.08,75.41 7.29,84.48 7.29,95.66 7.29,95.9 7.3,96.14 7.31,96.38 2.85,92.67 0,86.99 0,80.62 0,69.44 8.79,60.37 19.64,60.37 c 10.61,0 19.25,8.68 19.62,19.53 z" class="st2" id="path40" inkscape:connector-curvature="0" style="fill:#000000;fill-opacity:0.31999996;stroke:none;stroke-width:0.75;stroke-linecap:butt" />
					</g>
					<g id="shape22204-10" transform="translate(7.29331,-20.4672)">
						<title id="title43">Sheet.22204</title>
						<path d="M 39.26,79.9 C 35.89,77.09 31.6,75.41 26.93,75.41 16.08,75.41 7.29,84.48 7.29,95.66 7.29,95.9 7.3,96.14 7.31,96.38 2.85,92.67 0,86.99 0,80.62 0,69.44 8.79,60.37 19.64,60.37 c 10.61,0 19.25,8.68 19.62,19.53 z" class="st3" id="path45" inkscape:connector-curvature="0" style="fill:#000000;fill-opacity:0.23999999;stroke:none;stroke-width:0.75;stroke-linecap:butt" />
					</g>
					<g id="shape22205-12" transform="translate(7.29331,-20.6871)">
						<title id="title48">Sheet.22205</title>
						<path d="M 39.26,79.9 C 35.89,77.09 31.6,75.41 26.93,75.41 16.08,75.41 7.29,84.48 7.29,95.66 7.29,95.9 7.3,96.14 7.31,96.38 2.85,92.67 0,86.99 0,80.62 0,69.44 8.79,60.37 19.64,60.37 c 10.61,0 19.25,8.68 19.62,19.53 z" class="st4" id="path50" inkscape:connector-curvature="0" style="fill:url(#grad0-15);stroke:none;stroke-width:0.75;stroke-linecap:butt" />
					</g>
					<g id="shape22206-16">
						<title id="title53">Sheet.22206</title>
						<path d="M 39.26,76.85 C 35.89,79.66 31.6,81.34 26.93,81.34 16.08,81.34 7.29,72.27 7.29,61.09 7.29,60.85 7.3,60.61 7.31,60.37 2.85,64.08 0,69.76 0,76.13 c 0,11.18 8.79,20.25 19.64,20.25 10.61,0 19.25,-8.68 19.62,-19.53 z" class="st2" id="path55" inkscape:connector-curvature="0" style="fill:#000000;fill-opacity:0.31999996;stroke:none;stroke-width:0.75;stroke-linecap:butt" />
					</g>
					<g id="shape22207-18" transform="translate(0,-0.937166)">
						<title id="title58">Sheet.22207</title>
						<path d="M 39.26,76.85 C 35.89,79.66 31.6,81.34 26.93,81.34 16.08,81.34 7.29,72.27 7.29,61.09 7.29,60.85 7.3,60.61 7.31,60.37 2.85,64.08 0,69.76 0,76.13 c 0,11.18 8.79,20.25 19.64,20.25 10.61,0 19.25,-8.68 19.62,-19.53 z" class="st3" id="path60" inkscape:connector-curvature="0" style="fill:#000000;fill-opacity:0.23999999;stroke:none;stroke-width:0.75;stroke-linecap:butt" />
					</g>
					<g id="shape22208-20" transform="translate(0,-1.15717)">
						<title id="title63">Sheet.22208</title>
						<path d="M 39.26,76.85 C 35.89,79.66 31.6,81.34 26.93,81.34 16.08,81.34 7.29,72.27 7.29,61.09 7.29,60.85 7.3,60.61 7.31,60.37 2.85,64.08 0,69.76 0,76.13 c 0,11.18 8.79,20.25 19.64,20.25 10.61,0 19.25,-8.68 19.62,-19.53 z" class="st5" id="path65" inkscape:connector-curvature="0" style="fill:url(#grad0-23);stroke:none;stroke-width:0.75;stroke-linecap:butt" />
					</g>
					<g id="shape22209-24" transform="translate(26.9291,-1.73549e-4)">
						<title id="title68">Sheet.22209</title>
						<path d="M 0,94.94 C 7.23,91.95 12.34,84.66 12.34,76.13 12.34,67.61 7.23,60.31 0,57.33 2.25,56.4 4.72,55.88 7.29,55.88 c 10.85,0 19.64,9.07 19.64,20.25 0,11.18 -8.79,20.25 -19.64,20.25 -2.57,0 -5.04,-0.51 -7.29,-1.44 z" class="st2" id="path70" inkscape:connector-curvature="0" style="fill:#000000;fill-opacity:0.31999996;stroke:none;stroke-width:0.75;stroke-linecap:butt" />
					</g>
					<g id="shape22210-26" transform="translate(26.9291,-0.937339)">
						<title id="title73">Sheet.22210</title>
						<path d="M 0,94.94 C 7.23,91.95 12.34,84.66 12.34,76.13 12.34,67.61 7.23,60.31 0,57.33 2.25,56.4 4.72,55.88 7.29,55.88 c 10.85,0 19.64,9.07 19.64,20.25 0,11.18 -8.79,20.25 -19.64,20.25 -2.57,0 -5.04,-0.51 -7.29,-1.44 z" class="st3" id="path75" inkscape:connector-curvature="0" style="fill:#000000;fill-opacity:0.23999999;stroke:none;stroke-width:0.75;stroke-linecap:butt" />
					</g>
					<g id="shape22211-28" transform="translate(26.9291,-1.15717)">
						<title id="title78">Sheet.22211</title>
						<path d="M 0,94.94 C 7.23,91.95 12.34,84.66 12.34,76.13 12.34,67.61 7.23,60.31 0,57.33 2.25,56.4 4.72,55.88 7.29,55.88 c 10.85,0 19.64,9.07 19.64,20.25 0,11.18 -8.79,20.25 -19.64,20.25 -2.57,0 -5.04,-0.51 -7.29,-1.44 z" class="st6" id="path80" inkscape:connector-curvature="0" style="fill:url(#grad0-31);stroke:none;stroke-width:0.75;stroke-linecap:butt" />
					</g>
				</g>
			</g>
		</g>
	</g>
</svg>