<?xml version="1.0" encoding="UTF-8" standalone="no"?>
<!DOCTYPE svg PUBLIC "-//W3C//DTD SVG 1.1//EN" "http://www.w3.org/Graphics/SVG/1.1/DTD/svg11.dtd">
<!-- Generated by Microsoft Visio, SVG Export Application Commerce.svg Page-1 -->
<svg xmlns="http://www.w3.org/2000/svg" xmlns:xlink="http://www.w3.org/1999/xlink" xmlns:ev="http://www.w3.org/2001/xml-events"
		width="0.944882in" height="1.25197in" viewBox="0 0 68.0315 90.1417" xml:space="preserve" color-interpolation-filters="sRGB"
		class="st6">
	<style type="text/css">
	<![CDATA[
		.st1 {fill:url(#grad0-7);stroke:none;stroke-linecap:butt;stroke-width:0.75}
		.st2 {fill:url(#grad0-11);stroke:none;stroke-linecap:butt;stroke-width:0.75}
		.st3 {fill:#000000;fill-opacity:0.32;stroke:none;stroke-linecap:butt;stroke-width:0.75}
		.st4 {fill:#000000;fill-opacity:0.24;stroke:none;stroke-linecap:butt;stroke-width:0.75}
		.st5 {fill:url(#grad0-19);stroke:none;stroke-linecap:butt;stroke-width:0.75}
		.st6 {fill:none;fill-rule:evenodd;font-size:12px;overflow:visible;stroke-linecap:square;stroke-miterlimit:3}
	]]>
	</style>

	<defs id="Patterns_And_Gradients">
		<linearGradient id="grad0-7" x1="0" y1="0" x2="1" y2="0" gradientTransform="rotate(96.853957468964 0.5 0.5)">
			<stop offset="0" stop-color="#ffed80" stop-opacity="1"/>
			<stop offset="1" stop-color="#ffdb00" stop-opacity="1"/>
		</linearGradient>
		<linearGradient id="grad0-11" x1="0" y1="0" x2="1" y2="0" gradientTransform="rotate(128.76944737424 0.5 0.5)">
			<stop offset="0" stop-color="#ea8200" stop-opacity="1"/>
			<stop offset="1" stop-color="#c46a08" stop-opacity="1"/>
		</linearGradient>
		<linearGradient id="grad0-19" x1="0" y1="0" x2="1" y2="0" gradientTransform="rotate(52.76862301893 0.5 0.5)">
			<stop offset="0" stop-color="#fac240" stop-opacity="1"/>
			<stop offset="0.2" stop-color="#f29800" stop-opacity="1"/>
		</linearGradient>
	</defs>
	<g>
		<title>Page-1</title>
		<g id="group16364-1" transform="translate(5.66929,-34.0157)">
			<title>Application Commerce.16364</title>
			<g id="group16365-2">
				<title>Sheet.16365</title>
				<g id="group16366-3">
					<title>Sheet.16366</title>
					<g id="shape16367-4" transform="translate(1.35363,-27.2917)">
						<title>Sheet.16367</title>
						<path d="M55.02 72.85 C55.34 71.37 54.23 69.97 52.73 69.97 L0 69.97 L3.73 90.14 L49.43 90.14 C50.53 90.14
									 51.49 89.36 51.72 88.27 L55.02 72.85 Z" class="st1"/>
					</g>
					<g id="shape16368-8" transform="translate(6.31604,-1.1866)">
						<title>Sheet.16368</title>
						<path d="M43.09 72.83 C43.4 71.36 42.29 69.97 40.8 69.97 L2.57 69.97 C1.1 69.97 0 71.31 0.26 72.77 L3.02
									 88.19 C3.22 89.32 4.19 90.14 5.33 90.14 L37.58 90.14 C38.69 90.14 39.65 89.36 39.88 88.26 L43.09
									 72.83 Z" class="st2"/>
					</g>
					<g id="shape16369-12">
						<title>Sheet.16369</title>
						<path d="M2.59 40.3 C1.11 40.3 0 41.68 0.29 43.14 L9.21 88.23 C9.43 89.34 10.39 90.14 11.51 90.14 L28.33
									 90.14 L19.32 42.23 C19.11 41.11 18.15 40.3 17.02 40.3 L2.59 40.3 Z" class="st3"/>
					</g>
					<g id="shape16370-14" transform="translate(2.89768E-13,-0.961143)">
						<title>Sheet.16370</title>
						<path d="M2.59 40.3 C1.11 40.3 0 41.68 0.29 43.14 L9.21 88.23 C9.43 89.34 10.39 90.14 11.51 90.14 L28.33
									 90.14 L19.32 42.23 C19.11 41.11 18.15 40.3 17.02 40.3 L2.59 40.3 Z" class="st4"/>
					</g>
					<g id="shape16371-16" transform="translate(2.89768E-13,-1.1866)">
						<title>Sheet.16371</title>
						<path d="M2.59 40.3 C1.11 40.3 0 41.68 0.29 43.14 L9.21 88.23 C9.43 89.34 10.39 90.14 11.51 90.14 L28.33
									 90.14 L19.32 42.23 C19.11 41.11 18.15 40.3 17.02 40.3 L2.59 40.3 Z" class="st5"/>
					</g>
				</g>
			</g>
		</g>
	</g>
</svg>
