<?xml version="1.0" encoding="UTF-8" standalone="no"?>
<!DOCTYPE svg PUBLIC "-//W3C//DTD SVG 1.1//EN" "http://www.w3.org/Graphics/SVG/1.1/DTD/svg11.dtd">
<!-- Generated by Microsoft Visio, SVG Export Application Customer Service Insights.svg Page-1 -->
<svg xmlns="http://www.w3.org/2000/svg" xmlns:xlink="http://www.w3.org/1999/xlink" xmlns:ev="http://www.w3.org/2001/xml-events"
		width="0.897638in" height="1.33858in" viewBox="0 0 64.6299 96.378" xml:space="preserve" color-interpolation-filters="sRGB"
		class="st6">
	<style type="text/css">
	<![CDATA[
		.st1 {fill:url(#grad0-7);stroke:none;stroke-linecap:butt;stroke-width:0.75}
		.st2 {fill:#000000;fill-opacity:0.32;stroke:none;stroke-linecap:butt;stroke-width:0.75}
		.st3 {fill:#000000;fill-opacity:0.24;stroke:none;stroke-linecap:butt;stroke-width:0.75}
		.st4 {fill:url(#grad0-15);stroke:none;stroke-linecap:butt;stroke-width:0.75}
		.st5 {fill:url(#grad0-23);stroke:none;stroke-linecap:butt;stroke-width:0.75}
		.st6 {fill:none;fill-rule:evenodd;font-size:12px;overflow:visible;stroke-linecap:square;stroke-miterlimit:3}
	]]>
	</style>

	<defs id="Patterns_And_Gradients">
		<linearGradient id="grad0-7" x1="0" y1="0" x2="1" y2="0" gradientTransform="rotate(42.274551671407 0.5 0.5)">
			<stop offset="0" stop-color="#158915" stop-opacity="1"/>
			<stop offset="1" stop-color="#065f18" stop-opacity="1"/>
		</linearGradient>
		<linearGradient id="grad0-15" x1="0" y1="0" x2="1" y2="0" gradientTransform="rotate(42.920377975711 0.5 0.5)">
			<stop offset="0" stop-color="#6ad116" stop-opacity="1"/>
			<stop offset="1" stop-color="#34a117" stop-opacity="1"/>
		</linearGradient>
		<linearGradient id="grad0-23" x1="0" y1="0" x2="1" y2="0" gradientTransform="rotate(46.421628871777 0.5 0.5)">
			<stop offset="0" stop-color="#c3f488" stop-opacity="1"/>
			<stop offset="1" stop-color="#8fdc50" stop-opacity="1"/>
		</linearGradient>
	</defs>
	<g>
		<title>Page-1</title>
		<g id="group20485-1" transform="translate(5.38583,-34.0157)">
			<title>Application Customer Service Insights.20485</title>
			<g id="group20486-2">
				<title>Sheet.20486</title>
				<g id="group20487-3">
					<title>Sheet.20487</title>
					<g id="shape20488-4" transform="translate(35.9055,-8.61079)">
						<title>Sheet.20488</title>
						<path d="M0 51.28 C0 49.32 2.31 48.3 3.75 49.61 L17.22 61.87 C17.69 62.3 17.95 62.91 17.95 63.55 L17.95 94.12
									 C17.95 95.37 16.95 96.38 15.71 96.38 L0 96.38 L0 51.28 Z" class="st1"/>
					</g>
					<g id="shape20489-8" transform="translate(17.9528,-7.48304)">
						<title>Sheet.20489</title>
						<path d="M0 58.03 C0 56.79 1 55.78 2.24 55.78 L17.95 55.78 L17.95 96.38 L0 96.38 L0 58.03 Z" class="st2"/>
					</g>
					<g id="shape20490-10" transform="translate(17.9528,-8.39652)">
						<title>Sheet.20490</title>
						<path d="M0 58.03 C0 56.79 1 55.78 2.24 55.78 L17.95 55.78 L17.95 96.38 L0 96.38 L0 58.03 Z" class="st3"/>
					</g>
					<g id="shape20491-12" transform="translate(17.9528,-8.61079)">
						<title>Sheet.20491</title>
						<path d="M0 58.03 C0 56.79 1 55.78 2.24 55.78 L17.95 55.78 L17.95 96.38 L0 96.38 L0 58.03 Z" class="st4"/>
					</g>
					<g id="shape20492-16">
						<title>Sheet.20492</title>
						<path d="M0 57.32 C0 56.07 1 55.06 2.24 55.06 L17.95 55.06 L17.95 93.39 C17.95 95.35 15.64 96.38 14.2 95.06
									 L0.74 82.8 C0.27 82.37 0 81.77 0 81.13 L0 57.32 Z" class="st2"/>
					</g>
					<g id="shape20493-18" transform="translate(2.73781E-13,-0.91348)">
						<title>Sheet.20493</title>
						<path d="M0 57.32 C0 56.07 1 55.06 2.24 55.06 L17.95 55.06 L17.95 93.39 C17.95 95.35 15.64 96.38 14.2 95.06
									 L0.74 82.8 C0.27 82.37 0 81.77 0 81.13 L0 57.32 Z" class="st3"/>
					</g>
					<g id="shape20494-20" transform="translate(2.73781E-13,-1.12775)">
						<title>Sheet.20494</title>
						<path d="M0 57.32 C0 56.07 1 55.06 2.24 55.06 L17.95 55.06 L17.95 93.39 C17.95 95.35 15.64 96.38 14.2 95.06
									 L0.74 82.8 C0.27 82.37 0 81.77 0 81.13 L0 57.32 Z" class="st5"/>
					</g>
				</g>
			</g>
		</g>
	</g>
</svg>
