<?xml version="1.0" encoding="UTF-8" standalone="no"?>
<!-- Generated by Microsoft Visio, SVG Export Application Supply Chain Management.svg Page-1 -->

<svg
   xmlns:dc="http://purl.org/dc/elements/1.1/"
   xmlns:cc="http://creativecommons.org/ns#"
   xmlns:rdf="http://www.w3.org/1999/02/22-rdf-syntax-ns#"
   xmlns:svg="http://www.w3.org/2000/svg"
   xmlns="http://www.w3.org/2000/svg"
   xmlns:sodipodi="http://sodipodi.sourceforge.net/DTD/sodipodi-0.dtd"
   xmlns:inkscape="http://www.inkscape.org/namespaces/inkscape"
   width="0.78745002in"
   height="0.7087028in"
   viewBox="0 0 56.696399 51.02652"
   xml:space="preserve"
   class="st6"
   version="1.1"
   id="svg58"
   sodipodi:docname="Application Supply Chain Management.svg"
   style="font-size:12px;overflow:visible;color-interpolation-filters:sRGB;fill:none;fill-rule:evenodd;stroke-linecap:square;stroke-miterlimit:3"
   inkscape:version="0.92.5 (2060ec1f9f, 2020-04-08)"><metadata
   id="metadata62"><rdf:RDF><cc:Work
       rdf:about=""><dc:format>image/svg+xml</dc:format><dc:type
         rdf:resource="http://purl.org/dc/dcmitype/StillImage" /></cc:Work></rdf:RDF></metadata><sodipodi:namedview
   pagecolor="#ffffff"
   bordercolor="#666666"
   borderopacity="1"
   objecttolerance="10"
   gridtolerance="10"
   guidetolerance="10"
   inkscape:pageopacity="0"
   inkscape:pageshadow="2"
   inkscape:window-width="640"
   inkscape:window-height="480"
   id="namedview60"
   showgrid="false"
   inkscape:zoom="1.963572"
   inkscape:cx="37.795281"
   inkscape:cy="14.737934"
   inkscape:window-x="0"
   inkscape:window-y="0"
   inkscape:window-maximized="0"
   inkscape:current-layer="svg58" />
	<style
   type="text/css"
   id="style2">
	<![CDATA[
		.st1 {fill:url(#grad0-7);stroke:none;stroke-linecap:butt;stroke-width:0.75}
		.st2 {fill:url(#grad0-11);stroke:none;stroke-linecap:butt;stroke-width:0.75}
		.st3 {fill:#000000;fill-opacity:0.32;stroke:none;stroke-linecap:butt;stroke-width:0.75}
		.st4 {fill:#000000;fill-opacity:0.24;stroke:none;stroke-linecap:butt;stroke-width:0.75}
		.st5 {fill:url(#grad0-19);stroke:none;stroke-linecap:butt;stroke-width:0.75}
		.st6 {fill:none;fill-rule:evenodd;font-size:12px;overflow:visible;stroke-linecap:square;stroke-miterlimit:3}
	]]>
	</style>

	<defs
   id="Patterns_And_Gradients">
		<linearGradient
   id="grad0-7"
   x1="0"
   y1="34.293384"
   x2="26.34227"
   y2="34.293384"
   gradientTransform="scale(0.6726831,1.4865841)"
   gradientUnits="userSpaceOnUse">
			<stop
   offset="0"
   stop-color="#27518a"
   stop-opacity="1"
   id="stop4" />
			<stop
   offset="1"
   stop-color="#2064ae"
   stop-opacity="1"
   id="stop6" />
		</linearGradient>
		<linearGradient
   id="grad0-11"
   x1="0"
   y1="34.293384"
   x2="26.34227"
   y2="34.293384"
   gradientTransform="scale(0.6726831,1.4865841)"
   gradientUnits="userSpaceOnUse">
			<stop
   offset="0"
   stop-color="#7ce6ff"
   stop-opacity="1"
   id="stop9" />
			<stop
   offset="1"
   stop-color="#a7f2ff"
   stop-opacity="1"
   id="stop11" />
		</linearGradient>
		<linearGradient
   id="grad0-19"
   x1="0"
   y1="35.091705"
   x2="43.398774"
   y2="35.091705"
   gradientTransform="scale(0.87076192,1.1484195)"
   gradientUnits="userSpaceOnUse">
			<stop
   offset="0"
   stop-color="#40c4f5"
   stop-opacity="1"
   id="stop14" />
			<stop
   offset="1"
   stop-color="#0095e6"
   stop-opacity="1"
   id="stop16" />
		</linearGradient>
	</defs>
	<g
   id="g56"
   transform="translate(-5.66929,-5.0977695)">
		<title
   id="title20">Page-1</title>
		<g
   id="group23758-1"
   transform="translate(5.66929,-34.0157)">
			<title
   id="title22">Application Supply Chain Management.23758</title>
			<g
   id="group23759-2">
				<title
   id="title24">Sheet.23759</title>
				<g
   id="group23760-3">
					<title
   id="title26">Sheet.23760</title>
					<g
   id="shape23761-4"
   transform="translate(0,-11.866)">
						<title
   id="title28">Sheet.23761</title>
						<path
   d="M 17.72,90.14 V 59.88 c 0,-4.91 -3.97,-8.9 -8.86,-8.9 -4.89,0 -8.86,3.99 -8.86,8.9 v 19.58 c 0,5.9 4.76,10.68 10.63,10.68 z"
   class="st1"
   id="path30"
   inkscape:connector-curvature="0"
   style="fill:url(#grad0-7);stroke:none;stroke-width:0.75;stroke-linecap:butt" />
					</g>
					<g
   id="shape23762-8"
   transform="translate(38.9764,-1.1866)">
						<title
   id="title33">Sheet.23762</title>
						<path
   d="m 8.86,90.14 c 4.89,0 8.86,-3.98 8.86,-8.9 V 61.66 C 17.72,55.77 12.96,50.98 7.09,50.98 H 0 v 30.26 c 0,4.92 3.97,8.9 8.86,8.9 z"
   class="st2"
   id="path35"
   inkscape:connector-curvature="0"
   style="fill:url(#grad0-11);stroke:none;stroke-width:0.75;stroke-linecap:butt" />
					</g>
					<g
   id="shape23763-12"
   transform="translate(9.44882)">
						<title
   id="title38">Sheet.23763</title>
						<path
   d="M 8.27,79.46 V 49.2 C 8.27,44.49 4.62,40.63 0,40.32 0.2,40.31 0.39,40.3 0.59,40.3 h 17.72 c 0.1,0 0.2,0.01 0.3,0.01 0.09,0 0.19,-0.01 0.29,-0.01 5.87,0 10.63,4.79 10.63,10.68 v 30.26 c 0,4.72 3.65,8.57 8.26,8.88 -0.19,0.02 -0.39,0.02 -0.59,0.02 H 19.49 c -0.1,0 -0.2,0 -0.3,0 -0.1,0 -0.19,0 -0.29,0 -5.87,0 -10.63,-4.78 -10.63,-10.68 z"
   class="st3"
   id="path40"
   inkscape:connector-curvature="0"
   style="fill:#000000;fill-opacity:0.31999996;stroke:none;stroke-width:0.75;stroke-linecap:butt" />
					</g>
					<g
   id="shape23764-14"
   transform="translate(9.44882,-0.961143)">
						<title
   id="title43">Sheet.23764</title>
						<path
   d="M 8.27,79.46 V 49.2 C 8.27,44.49 4.62,40.63 0,40.32 0.2,40.31 0.39,40.3 0.59,40.3 h 17.72 c 0.1,0 0.2,0.01 0.3,0.01 0.09,0 0.19,-0.01 0.29,-0.01 5.87,0 10.63,4.79 10.63,10.68 v 30.26 c 0,4.72 3.65,8.57 8.26,8.88 -0.19,0.02 -0.39,0.02 -0.59,0.02 H 19.49 c -0.1,0 -0.2,0 -0.3,0 -0.1,0 -0.19,0 -0.29,0 -5.87,0 -10.63,-4.78 -10.63,-10.68 z"
   class="st4"
   id="path45"
   inkscape:connector-curvature="0"
   style="fill:#000000;fill-opacity:0.23999999;stroke:none;stroke-width:0.75;stroke-linecap:butt" />
					</g>
					<g
   id="shape23765-16"
   transform="translate(9.44858,-1.1866)">
						<title
   id="title48">Sheet.23765</title>
						<path
   d="M 8.27,79.46 V 78.87 69.97 60.48 49.2 C 8.27,44.49 4.62,40.63 0,40.32 0.2,40.31 0.39,40.3 0.59,40.3 h 17.72 c 0.1,0 0.2,0.01 0.3,0.01 0.09,0 0.19,-0.01 0.29,-0.01 5.87,0 10.63,4.79 10.63,10.68 v 0 0 30.26 c 0,4.72 3.65,8.57 8.26,8.88 -0.19,0.02 -0.39,0.02 -0.59,0.02 H 19.49 c -0.1,0 -0.2,0 -0.3,0 -0.1,0 -0.19,0 -0.29,0 -5.87,0 -10.63,-4.78 -10.63,-10.68 z"
   class="st5"
   id="path50"
   inkscape:connector-curvature="0"
   style="fill:url(#grad0-19);stroke:none;stroke-width:0.75;stroke-linecap:butt" />
					</g>
				</g>
			</g>
		</g>
	</g>
</svg>