<?xml version="1.0" encoding="UTF-8" standalone="no"?>
<!DOCTYPE svg PUBLIC "-//W3C//DTD SVG 1.1//EN" "http://www.w3.org/Graphics/SVG/1.1/DTD/svg11.dtd">
<!-- Generated by Microsoft Visio, SVG Export Application Connected Store.svg Page-1 -->
<svg xmlns="http://www.w3.org/2000/svg" xmlns:xlink="http://www.w3.org/1999/xlink" xmlns:ev="http://www.w3.org/2001/xml-events"
		width="0.944882in" height="1.33858in" viewBox="0 0 68.0315 96.378" xml:space="preserve" color-interpolation-filters="sRGB"
		class="st9">
	<style type="text/css">
	<![CDATA[
		.st1 {fill:url(#grad0-6);stroke:none;stroke-linecap:butt;stroke-width:0.75}
		.st2 {fill:url(#grad0-10);stroke:none;stroke-linecap:butt;stroke-width:0.75}
		.st3 {fill:url(#grad0-14);stroke:none;stroke-linecap:butt;stroke-width:0.75}
		.st4 {fill:#000000;fill-opacity:0.32;stroke:none;stroke-linecap:butt;stroke-width:0.75}
		.st5 {fill:#000000;fill-opacity:0.24;stroke:none;stroke-linecap:butt;stroke-width:0.75}
		.st6 {fill:url(#grad0-22);stroke:none;stroke-linecap:butt;stroke-width:0.75}
		.st7 {fill:url(#grad0-26);stroke:none;stroke-linecap:butt;stroke-width:0.75}
		.st8 {fill:url(#grad0-30);stroke:none;stroke-linecap:butt;stroke-width:0.75}
		.st9 {fill:none;fill-rule:evenodd;font-size:12px;overflow:visible;stroke-linecap:square;stroke-miterlimit:3}
	]]>
	</style>

	<defs id="Patterns_And_Gradients">
		<linearGradient id="grad0-6" x1="0" y1="0" x2="1" y2="0" gradientTransform="rotate(72.273541674923 0.5 0.5)">
			<stop offset="0" stop-color="#7151a7" stop-opacity="1"/>
			<stop offset="1" stop-color="#4a356f" stop-opacity="1"/>
		</linearGradient>
		<linearGradient id="grad0-10" x1="0" y1="0" x2="1" y2="0" gradientTransform="rotate(39.168166230312 0.5 0.5)">
			<stop offset="0" stop-color="#cd9ef0" stop-opacity="1"/>
			<stop offset="1" stop-color="#8661c5" stop-opacity="1"/>
		</linearGradient>
		<linearGradient id="grad0-14" x1="0" y1="0" x2="1" y2="0" gradientTransform="rotate(62.235388459347 0.5 0.5)">
			<stop offset="0" stop-color="#f1d9ff" stop-opacity="1"/>
			<stop offset="1" stop-color="#e4b4ff" stop-opacity="1"/>
		</linearGradient>
		<linearGradient id="grad0-22" x1="0" y1="0" x2="1" y2="0" gradientTransform="rotate(72.007969331982 0.5 0.5)">
			<stop offset="0" stop-color="#cd9ef0" stop-opacity="1"/>
			<stop offset="1" stop-color="#9f75d3" stop-opacity="1"/>
		</linearGradient>
		<linearGradient id="grad0-26" x1="0" y1="0" x2="1" y2="0" gradientTransform="rotate(52.736689512428 0.5 0.5)">
			<stop offset="0" stop-color="#ebc7ff" stop-opacity="1"/>
			<stop offset="1" stop-color="#e4b4ff" stop-opacity="1"/>
		</linearGradient>
		<linearGradient id="grad0-30" x1="0" y1="0" x2="1" y2="0" gradientTransform="rotate(47.69112707711 0.5 0.5)">
			<stop offset="0" stop-color="#f8ecff" stop-opacity="1"/>
			<stop offset="0.925" stop-color="#f1d9ff" stop-opacity="1"/>
		</linearGradient>
	</defs>
	<g>
		<title>Page-1</title>
		<g id="group20057-1" transform="translate(5.66929,-34.0157)">
			<title>Application Connected Store.20057</title>
			<g id="group20058-2">
				<title>Sheet.20058</title>
				<g id="shape20059-3" transform="translate(0,-14.1733)">
					<title>Sheet.20059</title>
					<path d="M0.42 81.03 C0 81.76 0 82.65 0.42 83.38 L7.24 95.19 C7.66 95.92 8.45 96.38 9.31 96.38 L24.29 96.38 L32.47
								 82.2 L24.29 68.03 L9.31 68.03 C8.45 68.03 7.66 68.49 7.24 69.22 L0.42 81.03 Z" class="st1"/>
				</g>
				<g id="shape20060-7" transform="translate(24.2192,-2.70006E-13)">
					<title>Sheet.20060</title>
					<path d="M0 82.2 L7.5 95.19 C7.92 95.92 8.71 96.38 9.57 96.38 L23.17 96.38 C24.02 96.38 24.81 95.92 25.24 95.19
								 L32.05 83.38 C32.47 82.65 32.47 81.76 32.05 81.03 L24.55 68.03 L8.18 68.03 L0 82.2 Z" class="st2"/>
				</g>
				<g id="shape20061-11" transform="translate(24.2192,-28.3465)">
					<title>Sheet.20061</title>
					<path d="M0 82.2 L8.18 96.38 L24.55 96.38 L32.05 83.38 C32.47 82.65 32.47 81.76 32.05 81.03 L25.24 69.22 C24.81
								 68.49 24.02 68.03 23.17 68.03 L9.57 68.03 C8.71 68.03 7.92 68.49 7.5 69.22 L0 82.2 Z" class="st3"/>
				</g>
				<g id="shape20062-15" transform="translate(15.8711,-10.8641)">
					<title>Sheet.20062</title>
					<ellipse cx="16.4512" cy="80.0748" rx="16.4512" ry="16.3032" class="st4"/>
				</g>
				<g id="shape20063-17" transform="translate(15.8711,-11.8208)">
					<title>Sheet.20063</title>
					<ellipse cx="16.4512" cy="80.0748" rx="16.4512" ry="16.3032" class="st5"/>
				</g>
				<g id="shape20064-19" transform="translate(15.8711,-12.0432)">
					<title>Sheet.20064</title>
					<ellipse cx="16.4512" cy="80.0748" rx="16.4512" ry="16.3032" class="st6"/>
				</g>
				<g id="shape20065-23" transform="translate(15.8711,-12.0432)">
					<title>Sheet.20065</title>
					<ellipse cx="16.4512" cy="80.0748" rx="16.4512" ry="16.3032" class="st7"/>
				</g>
				<g id="shape20066-27" transform="translate(15.8711,-12.0432)">
					<title>Sheet.20066</title>
					<ellipse cx="16.4512" cy="80.0748" rx="16.4512" ry="16.3032" class="st8"/>
				</g>
			</g>
		</g>
	</g>
</svg>
