<?xml version="1.0" encoding="UTF-8" standalone="no"?>
<!-- Generated by Microsoft Visio, SVG Export Application Customer Voice.svg Page-1 -->

<svg
   xmlns:dc="http://purl.org/dc/elements/1.1/"
   xmlns:cc="http://creativecommons.org/ns#"
   xmlns:rdf="http://www.w3.org/1999/02/22-rdf-syntax-ns#"
   xmlns:svg="http://www.w3.org/2000/svg"
   xmlns="http://www.w3.org/2000/svg"
   xmlns:sodipodi="http://sodipodi.sourceforge.net/DTD/sodipodi-0.dtd"
   xmlns:inkscape="http://www.inkscape.org/namespaces/inkscape"
   width="0.73135024in"
   height="0.69974989in"
   viewBox="0 0 52.657216 50.382117"
   xml:space="preserve"
   class="st6"
   version="1.1"
   id="svg86"
   sodipodi:docname="Application Customer Voice.svg"
   style="font-size:12px;overflow:visible;color-interpolation-filters:sRGB;fill:none;fill-rule:evenodd;stroke-linecap:square;stroke-miterlimit:3"
   inkscape:version="0.92.5 (2060ec1f9f, 2020-04-08)"><metadata
   id="metadata90"><rdf:RDF><cc:Work
       rdf:about=""><dc:format>image/svg+xml</dc:format><dc:type
         rdf:resource="http://purl.org/dc/dcmitype/StillImage" /></cc:Work></rdf:RDF></metadata><sodipodi:namedview
   pagecolor="#ffffff"
   bordercolor="#666666"
   borderopacity="1"
   objecttolerance="10"
   gridtolerance="10"
   guidetolerance="10"
   inkscape:pageopacity="0"
   inkscape:pageshadow="2"
   inkscape:window-width="640"
   inkscape:window-height="480"
   id="namedview88"
   showgrid="false"
   inkscape:zoom="1.8365233"
   inkscape:cx="35.102424"
   inkscape:cy="14.692934"
   inkscape:window-x="0"
   inkscape:window-y="0"
   inkscape:window-maximized="0"
   inkscape:current-layer="svg86" />
	<style
   type="text/css"
   id="style2">
	<![CDATA[
		.st1 {fill:url(#grad0-7);stroke:none;stroke-linecap:butt;stroke-width:0.75}
		.st2 {fill:#000000;fill-opacity:0.32;stroke:none;stroke-linecap:butt;stroke-width:0.75}
		.st3 {fill:#000000;fill-opacity:0.24;stroke:none;stroke-linecap:butt;stroke-width:0.75}
		.st4 {fill:url(#grad0-21);stroke:none;stroke-linecap:butt;stroke-width:0.75}
		.st5 {fill:url(#grad0-29);stroke:none;stroke-linecap:butt;stroke-width:0.75}
		.st6 {fill:none;fill-rule:evenodd;font-size:12px;overflow:visible;stroke-linecap:square;stroke-miterlimit:3}
	]]>
	</style>

	<defs
   id="Patterns_And_Gradients">
		<linearGradient
   id="grad0-7"
   x1="0"
   y1="39.293098"
   x2="39.693735"
   y2="39.293098"
   gradientTransform="scale(0.81953551,1.2202034)"
   gradientUnits="userSpaceOnUse">
			<stop
   offset="0"
   stop-color="#205b54"
   stop-opacity="1"
   id="stop4" />
			<stop
   offset="0.475"
   stop-color="#177a6e"
   stop-opacity="1"
   id="stop6" />
			<stop
   offset="1"
   stop-color="#0e9c8b"
   stop-opacity="1"
   id="stop8" />
		</linearGradient>
		<linearGradient
   id="grad0-21"
   x1="0.65074348"
   y1="43.766786"
   x2="34.723503"
   y2="43.766786"
   gradientTransform="scale(0.81217277,1.2312651)"
   gradientUnits="userSpaceOnUse">
			<stop
   offset="0"
   stop-color="#0e9c8b"
   stop-opacity="1"
   id="stop11" />
			<stop
   offset="1"
   stop-color="#54c7b8"
   stop-opacity="1"
   id="stop13" />
		</linearGradient>
		<linearGradient
   id="grad0-29"
   x1="2.4642922"
   y1="36.706995"
   x2="42.158027"
   y2="36.706995"
   gradientTransform="scale(0.81953551,1.2202034)"
   gradientUnits="userSpaceOnUse">
			<stop
   offset="0"
   stop-color="#cbf8f3"
   stop-opacity="1"
   id="stop16" />
			<stop
   offset="1"
   stop-color="#5cd9ca"
   stop-opacity="1"
   id="stop18" />
		</linearGradient>
	</defs>
	<g
   id="g84"
   transform="translate(-7.6889522,-8.8266107)">
		<title
   id="title22">Page-1</title>
		<g
   id="group23919-1"
   transform="translate(5.66929,-34.0157)">
			<title
   id="title24">Application Customer Voice.23919</title>
			<g
   id="group23920-2">
				<title
   id="title26">Sheet.23920</title>
				<g
   id="group23921-3">
					<title
   id="title28">Sheet.23921</title>
					<g
   id="shape23922-4"
   transform="translate(22.1465,-5.10326)">
						<title
   id="title30">Sheet.23922</title>
						<path
   d="m 0,48.9 c 14.99,-4.11 28.56,5.72 31.45,16.75 3.1,11.84 -0.43,22.03 -11.12,30.73 L 11.56,93.02 9.02,83.35 c -0.15,-0.61 0.2,-1.22 0.77,-1.43 3.45,-1.22 6.37,-3.68 8.2,-6.93 2.03,-3.58 2.57,-7.84 1.53,-11.84 -1.05,-3.99 -3.6,-7.4 -7.11,-9.47 C 8.91,51.62 4.75,51.05 0.85,52.13 Z"
   class="st1"
   id="path32"
   inkscape:connector-curvature="0"
   style="fill:url(#grad0-7);stroke:none;stroke-width:0.75;stroke-linecap:butt" />
					</g>
					<g
   id="group23923-8"
   transform="translate(13.9822,-6.26748)">
						<title
   id="title35">Sheet.23923</title>
						<g
   id="shape23924-9">
							<title
   id="title37">Sheet.23924</title>
							<path
   d="m 9.76,65.91 c 1.11,-0.49 1.82,-1.67 1.5,-2.88 l 8.46,32.28 C 15.81,96.38 11.65,95.82 8.15,93.75 4.65,91.68 2.09,88.27 1.05,84.28 0,80.28 0.55,76.03 2.57,72.44 4.22,69.51 6.76,67.23 9.76,65.91 Z"
   class="st2"
   id="path39"
   inkscape:connector-curvature="0"
   style="fill:#000000;fill-opacity:0.31999996;stroke:none;stroke-width:0.75;stroke-linecap:butt" />
						</g>
						<g
   id="shape23925-11"
   transform="translate(9.01074,-9.67923)">
							<title
   id="title42">Sheet.23925</title>
							<path
   d="m 9.96,93.49 c -1.11,0.49 -1.82,1.68 -1.5,2.89 L 0,64.1 c 3.91,-1.07 8.07,-0.51 11.57,1.55 3.5,2.07 6.06,5.48 7.1,9.47 1.05,4 0.5,8.26 -1.52,11.84 -1.66,2.93 -4.19,5.22 -7.19,6.53 z"
   class="st2"
   id="path44"
   inkscape:connector-curvature="0"
   style="fill:#000000;fill-opacity:0.31999996;stroke:none;stroke-width:0.75;stroke-linecap:butt" />
						</g>
					</g>
					<g
   id="group23926-13"
   transform="translate(13.9822,-7.18175)">
						<title
   id="title48">Sheet.23926</title>
						<g
   id="shape23927-14">
							<title
   id="title50">Sheet.23927</title>
							<path
   d="m 9.76,65.91 c 1.11,-0.49 1.82,-1.67 1.5,-2.88 l 8.46,32.28 C 15.81,96.38 11.65,95.82 8.15,93.75 4.65,91.68 2.09,88.27 1.05,84.28 0,80.28 0.55,76.03 2.57,72.44 4.22,69.51 6.76,67.23 9.76,65.91 Z"
   class="st3"
   id="path52"
   inkscape:connector-curvature="0"
   style="fill:#000000;fill-opacity:0.23999999;stroke:none;stroke-width:0.75;stroke-linecap:butt" />
						</g>
						<g
   id="shape23928-16"
   transform="translate(9.01074,-9.67923)">
							<title
   id="title55">Sheet.23928</title>
							<path
   d="m 9.96,93.49 c -1.11,0.49 -1.82,1.68 -1.5,2.89 L 0,64.1 c 3.91,-1.07 8.07,-0.51 11.57,1.55 3.5,2.07 6.06,5.48 7.1,9.47 1.05,4 0.5,8.26 -1.52,11.84 -1.66,2.93 -4.19,5.22 -7.19,6.53 z"
   class="st3"
   id="path57"
   inkscape:connector-curvature="0"
   style="fill:#000000;fill-opacity:0.23999999;stroke:none;stroke-width:0.75;stroke-linecap:butt" />
						</g>
					</g>
					<g
   id="shape23929-18"
   transform="translate(13.9822,-7.39384)">
						<title
   id="title61">Sheet.23929</title>
						<path
   d="m 9.76,65.91 c 1.11,-0.49 1.82,-1.67 1.5,-2.88 l 1.7,6.47 -3.95,-15.08 c 3.91,-1.07 8.07,-0.51 11.57,1.55 3.5,2.07 6.06,5.48 7.1,9.47 1.05,4 0.5,8.26 -1.52,11.84 -1.66,2.93 -4.19,5.22 -7.19,6.54 -1.08,0.47 -1.78,1.6 -1.53,2.77 l 2.28,8.72 C 15.81,96.38 11.65,95.82 8.15,93.75 4.65,91.68 2.09,88.27 1.05,84.28 0,80.28 0.55,76.03 2.57,72.44 4.22,69.51 6.76,67.23 9.76,65.91 Z"
   class="st4"
   id="path63"
   inkscape:connector-curvature="0"
   style="fill:url(#grad0-21);stroke:none;stroke-width:0.75;stroke-linecap:butt" />
					</g>
					<g
   id="shape23930-22">
						<title
   id="title66">Sheet.23930</title>
						<path
   d="M 34.55,92.27 C 19.56,96.38 5.99,86.55 3.1,75.52 0,63.68 3.53,53.48 14.22,44.79 l 8.77,3.36 2.25,8.58 c 0.31,1.2 -0.39,2.43 -1.51,2.92 -3,1.32 -5.53,3.6 -7.18,6.53 -2.02,3.58 -2.57,7.84 -1.52,11.83 1.05,4 3.6,7.4 7.1,9.47 3.5,2.07 7.67,2.63 11.57,1.56 z"
   class="st2"
   id="path68"
   inkscape:connector-curvature="0"
   style="fill:#000000;fill-opacity:0.31999996;stroke:none;stroke-width:0.75;stroke-linecap:butt" />
					</g>
					<g
   id="shape23931-24"
   transform="translate(0,-0.914269)">
						<title
   id="title71">Sheet.23931</title>
						<path
   d="M 34.55,92.27 C 19.56,96.38 5.99,86.55 3.1,75.52 0,63.68 3.53,53.48 14.22,44.79 l 8.77,3.36 2.25,8.58 c 0.31,1.2 -0.39,2.43 -1.51,2.92 -3,1.32 -5.53,3.6 -7.18,6.53 -2.02,3.58 -2.57,7.84 -1.52,11.83 1.05,4 3.6,7.4 7.1,9.47 3.5,2.07 7.67,2.63 11.57,1.56 z"
   class="st3"
   id="path73"
   inkscape:connector-curvature="0"
   style="fill:#000000;fill-opacity:0.23999999;stroke:none;stroke-width:0.75;stroke-linecap:butt" />
					</g>
					<g
   id="shape23932-26"
   transform="translate(0,-1.12935)">
						<title
   id="title76">Sheet.23932</title>
						<path
   d="M 34.55,92.27 C 19.56,96.38 5.99,86.55 3.1,75.52 0,63.68 3.53,53.48 14.22,44.79 l 8.77,3.36 2.25,8.58 c 0.31,1.2 -0.39,2.43 -1.51,2.92 -3,1.32 -5.53,3.6 -7.18,6.53 -2.02,3.58 -2.57,7.84 -1.52,11.83 1.05,4 3.6,7.4 7.1,9.47 3.5,2.07 7.67,2.63 11.57,1.56 z"
   class="st5"
   id="path78"
   inkscape:connector-curvature="0"
   style="fill:url(#grad0-29);stroke:none;stroke-width:0.75;stroke-linecap:butt" />
					</g>
				</g>
			</g>
		</g>
	</g>
</svg>