<?xml version="1.0" encoding="UTF-8" standalone="no"?>
<!DOCTYPE svg PUBLIC "-//W3C//DTD SVG 1.1//EN" "http://www.w3.org/Graphics/SVG/1.1/DTD/svg11.dtd">
<!-- Generated by Microsoft Visio, SVG Export FTP.svg Page-1 -->
<svg xmlns="http://www.w3.org/2000/svg" xmlns:xlink="http://www.w3.org/1999/xlink" xmlns:ev="http://www.w3.org/2001/xml-events"
		width="0.944882in" height="1.33858in" viewBox="0 0 68.0315 96.378" xml:space="preserve" color-interpolation-filters="sRGB"
		class="st4">
	<style type="text/css">
	<![CDATA[
		.st1 {fill:url(#grad0-6);stroke:none;stroke-linecap:butt;stroke-width:0.75}
		.st2 {fill:#0078d4;stroke:none;stroke-linecap:butt;stroke-width:0.75}
		.st3 {fill:#f2f2f2;stroke:none;stroke-linecap:butt;stroke-width:0.75}
		.st4 {fill:none;fill-rule:evenodd;font-size:12px;overflow:visible;stroke-linecap:square;stroke-miterlimit:3}
	]]>
	</style>

	<defs id="Patterns_And_Gradients">
		<linearGradient id="grad0-6" x1="0" y1="0" x2="1" y2="0" gradientTransform="rotate(-90 0.5 0.5)">
			<stop offset="0" stop-color="#32bedd" stop-opacity="1"/>
			<stop offset="0.175" stop-color="#32caea" stop-opacity="1"/>
			<stop offset="0.41" stop-color="#32d2f2" stop-opacity="1"/>
			<stop offset="0.775" stop-color="#32d4f5" stop-opacity="1"/>
		</linearGradient>
	</defs>
	<g>
		<title>Page-1</title>
		<g id="group1998-1" transform="translate(5.66929,-34.0157)">
			<title>FTP</title>
			<g id="group1999-2">
				<title>Sheet.1999</title>
				<g id="shape2000-3">
					<title>Sheet.2000</title>
					<path d="M3.33 61.64 L56.69 61.64 L56.69 94.41 A1.78416 1.96506 0 0 1 54.91 96.38 L5.12 96.38 A1.78416 1.96506
								 0 0 1 3.33 94.41 L3.33 61.64 Z" class="st1"/>
				</g>
				<g id="shape2001-7" transform="translate(0,-34.7393)">
					<title>Sheet.2001</title>
					<path d="M5.13 83.86 L54.9 83.86 A1.78416 1.96506 0 0 1 56.69 85.81 L56.69 96.38 L3.33 96.38 L3.33 85.81 A1.78416
								 1.96506 0 0 1 5.13 83.86 Z" class="st2"/>
				</g>
				<g id="shape2002-9" transform="translate(10.845,-38.585)">
					<title>Sheet.2002</title>
					<path d="M-0 95.41 a0.877093 0.966024 -180 0 0 0.877073 0.966002 L37.47 96.38 a0.877093 0.966024 -180 0 0 0.877073
								 -0.966002 L38.35 92.39 a0.877093 0.966024 -180 0 0 -0.877073 -0.966002 L0.88 91.42 a0.877093 0.966024
								 -180 0 0 -0.877073 0.966002 L0 95.41 Z" class="st3"/>
				</g>
				<g id="group2003-11" transform="translate(16.1041,-6.57836)">
					<title>Sheet.2003</title>
					<g id="shape2004-12">
						<title>Sheet.2004</title>
						<path d="M5.94 95.74 L12.8 75.36 a0.900417 0.991713 -180 0 0 -0.843724 -1.3333 L7.69 74.03 a0.897082 0.98804
									 -180 0 0 -0.840389 0.64645 L0 95.05 a0.897082 0.98804 -180 0 0 0.840389 1.32963 L5.1 96.38 a0.900417
									 0.991713 -180 0 0 0.843724 -0.642777 Z" class="st3"/>
					</g>
					<g id="shape2005-14" transform="translate(15.0236,0)">
						<title>Sheet.2005</title>
						<path d="M5.94 95.74 L12.8 75.36 a0.897082 0.98804 -180 0 0 -0.840389 -1.3333 L7.7 74.03 a0.897082 0.98804
									 -180 0 0 -0.843724 0.64645 L0 95.05 a0.897082 0.98804 -180 0 0 0.843724 1.32963 L5.1 96.38 a0.897082
									 0.98804 -180 0 0 0.840389 -0.642777 Z" class="st3"/>
					</g>
				</g>
			</g>
		</g>
	</g>
</svg>
