<?xml version="1.0" encoding="UTF-8" standalone="no"?>
<!DOCTYPE svg PUBLIC "-//W3C//DTD SVG 1.1//EN" "http://www.w3.org/Graphics/SVG/1.1/DTD/svg11.dtd">
<!-- Generated by Microsoft Visio, SVG Export Stream Analytics job.svg Page-1 -->
<svg xmlns="http://www.w3.org/2000/svg" xmlns:xlink="http://www.w3.org/1999/xlink" xmlns:ev="http://www.w3.org/2001/xml-events"
		width="0.944882in" height="1.16535in" viewBox="0 0 68.0315 83.9055" xml:space="preserve" color-interpolation-filters="sRGB"
		class="st4">
	<style type="text/css">
	<![CDATA[
		.st1 {fill:url(#grad0-5);stroke:none;stroke-linecap:butt;stroke-width:0.75}
		.st2 {fill:#50e6ff;stroke:none;stroke-linecap:butt;stroke-width:0.75}
		.st3 {fill:#32bedd;stroke:none;stroke-linecap:butt;stroke-width:0.75}
		.st4 {fill:none;fill-rule:evenodd;font-size:12px;overflow:visible;stroke-linecap:square;stroke-miterlimit:3}
	]]>
	</style>

	<defs id="Patterns_And_Gradients">
		<linearGradient id="grad0-5" x1="0" y1="0" x2="1" y2="0" gradientTransform="rotate(-90 0.5 0.5)">
			<stop offset="0" stop-color="#949494" stop-opacity="1"/>
			<stop offset="0.33" stop-color="#9b9b9b" stop-opacity="1"/>
			<stop offset="0.82" stop-color="#aeafb0" stop-opacity="1"/>
			<stop offset="1" stop-color="#b6b8b9" stop-opacity="1"/>
		</linearGradient>
	</defs>
	<g>
		<title>Page-1</title>
		<g id="group1817-1" transform="translate(5.66929,-34.0157)">
			<title>Stream Analytics job</title>
			<g id="shape1818-2" transform="translate(13.0606,0)">
				<title>Sheet.1818</title>
				<path d="M43.63 63.31 L43.63 58.03 L43.32 57.76 L37.52 55.93 L36.04 52.42 L38.91 46.87 L39.22 46.25 L37.33 44.45
							 L35.13 42.42 L34.37 42.77 L28.7 45.46 L24.89 44.45 L22.43 38.55 L16.79 38.55 L16.51 38.82 L14.55 44.22
							 L10.59 45.6 L4.03 42.65 L0 46.34 L0.38 47.05 L3.4 52.42 A18.9021 17.705 0 0 1 13.48 49.88 A19.7212 18.4722
							 0 0 1 24.73 53.25 A10.4592 9.79677 0 0 1 25.86 54.01 A10.2386 9.59021 0 0 1 28.79 58 A9.45104 8.8525
							 0 0 1 29.46 61.27 A10.1756 9.5312 0 0 1 19.22 70.8 A10.3016 9.64923 0 0 1 13.33 69.06 A19.8787 18.6198
							 0 0 1 0.72 74.23 L0.13 75.38 L4.16 79.18 L4.98 78.98 L10.65 76.03 L14.55 77.53 L17.04 83.91 L22.71 83.91
							 L22.93 83.17 L24.95 77.53 L28.79 76.03 L35.44 78.98 L39.44 75.26 L39.06 74.55 L36.13 69.27 L37.33 65.58
							 L43.63 63.31 Z" class="st1"/>
			</g>
			<g id="shape1819-6" transform="translate(4.294,-17.764)">
				<title>Sheet.1819</title>
				<path d="M8.29 83.91 A11.3413 10.623 0 0 1 0.23 80.81 A1.44916 1.35738 0 1 1 2.28 79.04 A8.34842 7.81971 -180 0 0
							 8.29 81.19 A8.25391 7.73119 -180 0 0 14.22 79.04 A11.1837 10.4755 0 0 1 22.25 76.09 A11.4673 10.741
							 0 0 1 30.35 79.04 A1.44916 1.35738 0 1 1 28.3 80.95 A8.47444 7.93775 -180 0 0 22.34 78.65 A8.22241 7.70168
							 -180 0 0 16.42 80.95 A11.3728 10.6525 0 0 1 8.29 83.91 Z" class="st2"/>
			</g>
			<g id="shape1820-8" transform="translate(8.6186,-23.1641)">
				<title>Sheet.1820</title>
				<path d="M3.97 83.91 A5.63912 5.28199 0 0 1 0 82.37 A1.44916 1.35738 0 0 1 2.05 80.45 A2.64629 2.4787 -180 0 0 3.97
							 81.19 A3.40238 3.1869 -180 0 0 5.86 80.45 A17.2009 16.1116 0 0 1 30.02 80.45 A1.44916 1.35738 0 0 1
							 27.98 82.37 A14.3341 13.4263 -180 0 0 7.78 82.37 A6.11168 5.72462 0 0 1 3.97 83.91 Z" class="st2"/>
			</g>
			<g id="shape1821-10" transform="translate(0,-12.364)">
				<title>Sheet.1821</title>
				<path d="M12.59 83.91 A17.0434 15.964 0 0 1 0.4 79.21 A1.48066 1.38689 0 0 1 0.4 77.33 A1.48066 1.38689 0 0 1 2.48
							 77.33 A14.0821 13.1902 -180 0 0 12.59 81.22 A14.1766 13.2788 -180 0 0 22.67 77.3 A6.11168 5.72462 0
							 0 1 26.48 75.85 A5.76514 5.40003 0 0 1 30.42 77.38 A1.44916 1.35738 0 0 1 30.42 79.3 A1.48066 1.38689
							 0 0 1 28.34 79.3 A2.61479 2.44919 -180 0 0 26.48 78.56 A3.15035 2.95083 -180 0 0 24.59 79.33 A17.0434
							 15.964 0 0 1 12.59 83.91 Z" class="st3"/>
			</g>
		</g>
	</g>
</svg>
