<?xml version="1.0" encoding="UTF-8" standalone="no"?>
<!DOCTYPE svg PUBLIC "-//W3C//DTD SVG 1.1//EN" "http://www.w3.org/Graphics/SVG/1.1/DTD/svg11.dtd">
<!-- Generated by Microsoft Visio, SVG Export Recovery Services Restore Point.svg Page-1 -->
<svg xmlns="http://www.w3.org/2000/svg" xmlns:xlink="http://www.w3.org/1999/xlink" xmlns:ev="http://www.w3.org/2001/xml-events"
		width="1.74941in" height="1.73206in" viewBox="0 0 125.958 124.709" xml:space="preserve" color-interpolation-filters="sRGB"
		class="st7">
	<style type="text/css">
	<![CDATA[
		.st1 {fill:#86d633;stroke:none;stroke-linecap:butt;stroke-width:34}
		.st2 {fill:url(#grad0-8);stroke:none;stroke-linecap:butt;stroke-width:34}
		.st3 {fill:url(#grad0-12);stroke:none;stroke-linecap:butt;stroke-width:34}
		.st4 {fill:#c3f1ff;stroke:none;stroke-linecap:butt;stroke-width:34}
		.st5 {fill:url(#grad0-18);stroke:none;stroke-linecap:butt;stroke-width:34}
		.st6 {fill:#ffffff;stroke:none;stroke-linecap:butt;stroke-width:34}
		.st7 {fill:none;fill-rule:evenodd;font-size:12px;overflow:visible;stroke-linecap:square;stroke-miterlimit:3}
	]]>
	</style>

	<defs id="Patterns_And_Gradients">
		<linearGradient id="grad0-8" x1="0" y1="0" x2="1" y2="0" gradientTransform="rotate(-90 0.5 0.5)">
			<stop offset="0" stop-color="#0078d4" stop-opacity="1"/>
			<stop offset="1" stop-color="#5ea0ef" stop-opacity="1"/>
		</linearGradient>
		<linearGradient id="grad0-12" x1="0" y1="0" x2="1" y2="0" gradientTransform="rotate(-158.85217954953 0.5 0.5)">
			<stop offset="0" stop-color="#32bedd" stop-opacity="1"/>
			<stop offset="1" stop-color="#9cebff" stop-opacity="1"/>
		</linearGradient>
		<linearGradient id="grad0-18" x1="0" y1="0" x2="1" y2="0" gradientTransform="rotate(-90 0.5 0.5)">
			<stop offset="0" stop-color="#32bedd" stop-opacity="1"/>
			<stop offset="1" stop-color="#9cebff" stop-opacity="1"/>
		</linearGradient>
	</defs>
	<g>
		<title>Page-1</title>
		<g id="group11634-1" transform="translate(34.9088,-34.0157)">
			<title>Recovery Services Restore Point.11634</title>
			<g id="group11635-2">
				<title>Sheet.11635</title>
				<g id="shape11636-3">
					<title>Sheet.11636</title>
					<path d="M25.09 68.02 A26.6759 26.5908 -180 0 0 15.53 116.32 L16.44 114.02 a0.503715 0.502108 0 0 1 0.874505
								 -0.125527 L23.91 122.38 a0.521205 0.519543 0 0 1 -0.0839525 0.721781 a0.503715 0.502108 0 0 1 -0.24836
								 0.108093 L12.99 124.71 a0.510711 0.509082 0 0 1 -0.573676 -0.442832 a0.524703 0.52303 0 0 1 0.0314822
								 -0.258028 L13.79 120.61 A31.0379 30.9389 0 0 1 -0 101.92 A27.1446 27.0581 0 0 1 18.97 68.91 A26.3541
								 26.27 0 0 1 25.09 68.02 L25.09 68.02 Z" class="st1"/>
				</g>
				<g id="shape11637-5" transform="translate(7.4067,-5.97648)">
					<title>Sheet.11637</title>
					<path d="M23.78 74.58 A25.8364 25.754 -180 0 0 5.1 118.15 A24.766 24.687 -180 0 0 7.51 120.25 L7.8 119.51 A1.84696
								 1.84106 0 0 1 9.55 118.35 A1.83996 1.83409 0 0 1 10.96 119.06 L15.35 124.71 A25.8504 25.7679 -180
								 1 0 23.78 74.58 Z" class="st2"/>
				</g>
				<g id="shape11638-9" transform="translate(31.1849,-17.6052)">
					<title>Sheet.11638</title>
					<path d="M11.28 105.03 L11.28 118.11 L0 124.71 L0 111.59 L11.28 105.03 Z" class="st3"/>
				</g>
				<g id="shape11639-13" transform="translate(19.9072,-30.6844)">
					<title>Sheet.11639</title>
					<path d="M22.56 118.11 L11.32 124.71 L0 118.11 L11.32 111.55 L22.56 118.11 Z" class="st4"/>
				</g>
				<g id="shape11640-15" transform="translate(19.9072,-17.6052)">
					<title>Sheet.11640</title>
					<path d="M11.28 111.63 L11.28 124.71 L0 118.11 L0 105.03 L11.28 111.63 Z" class="st5"/>
				</g>
				<g id="shape11641-19" transform="translate(13.7857,-14.202)">
					<title>Sheet.11641</title>
					<path d="M9.91 92.47 L1.92 92.47 A1.91692 1.9108 -180 0 0 -0 94.38 L0 102.37 a0.958458 0.955401 -180 0 0 0.958458
								 0.958887 L1.6 103.33 a0.958458 0.955401 -180 0 0 0.958458 -0.958887 L2.56 94.99 L9.91 94.99 a0.958458
								 0.955401 -180 0 0 0.930474 -0.955401 L10.84 93.42 a0.958458 0.955401 -180 0 0 -0.930474 -0.955401
								 ZM9.91 121.99 L2.53 121.99 L2.53 114.66 a0.958458 0.955401 -180 0 0 -0.958458 -0.955401 L0.96 113.7
								 a0.958458 0.955401 -180 0 0 -0.958458 0.955401 L0 122.77 A1.91692 1.9108 -180 0 0 1.89 124.71 L9.91
								 124.71 a0.986442 0.983296 -180 0 0 0.940968 -1.03211 L10.84 123.58 L10.84 122.94 a0.958458 0.955401
								 -180 0 0 -0.930474 -0.955401 ZM32.74 92.56 L24.86 92.56 a0.958458 0.955401 -180 0 0 -0.958458 0.955401
								 L23.9 94.12 a0.958458 0.955401 -180 0 0 0.867509 1.03909 a0.884999 0.882176 -180 0 0 0.0909486 0.00348686
								 L32.21 95.16 L32.21 102.43 a0.958458 0.955401 -180 0 0 0.958458 0.955401 L33.84 103.39 a0.958458
								 0.955401 -180 0 0 0.958458 -0.955401 L34.8 94.47 A1.91692 1.9108 -180 0 0 32.89 92.55 A2.16877 2.16186
								 -180 0 0 32.74 92.56 ZM33.72 113.76 L33.12 113.76 a0.958458 0.955401 -180 0 0 -0.958458 0.955401
								 L32.16 122.07 L24.86 122.07 a0.958458 0.955401 -180 0 0 -0.958458 0.955401 L23.9 123.67 a0.958458
								 0.955401 -180 0 0 0.958458 0.955401 L32.85 124.62 A1.9484 1.94218 -180 0 0 34.8 122.71 L34.8 114.72
								 a0.958458 0.955401 -180 0 0 -1.07739 -0.955401 Z" class="st6"/>
				</g>
			</g>
		</g>
	</g>
</svg>
