<?xml version="1.0" encoding="UTF-8" standalone="no"?>
<!DOCTYPE svg PUBLIC "-//W3C//DTD SVG 1.1//EN" "http://www.w3.org/Graphics/SVG/1.1/DTD/svg11.dtd">
<!-- Generated by Microsoft Visio, SVG Export Azure Lighthouse.svg Page-1 -->
<svg xmlns="http://www.w3.org/2000/svg" xmlns:xlink="http://www.w3.org/1999/xlink" xmlns:ev="http://www.w3.org/2001/xml-events"
		width="1.61823in" height="1.8108in" viewBox="0 0 116.513 130.378" xml:space="preserve" color-interpolation-filters="sRGB"
		class="st4">
	<style type="text/css">
	<![CDATA[
		.st1 {fill:url(#grad0-6);stroke:none;stroke-linecap:butt;stroke-width:34}
		.st2 {fill:#83b9f9;stroke:none;stroke-linecap:butt;stroke-width:34}
		.st3 {fill:#0078d4;stroke:none;stroke-linecap:butt;stroke-width:34}
		.st4 {fill:none;fill-rule:evenodd;font-size:12px;overflow:visible;stroke-linecap:square;stroke-miterlimit:3}
	]]>
	</style>

	<defs id="Patterns_And_Gradients">
		<linearGradient id="grad0-6" x1="0" y1="0" x2="1" y2="0" gradientTransform="rotate(-90 0.5 0.5)">
			<stop offset="0" stop-color="#0078d4" stop-opacity="1"/>
			<stop offset="0.16" stop-color="#1380da" stop-opacity="1"/>
			<stop offset="0.53" stop-color="#3c91e5" stop-opacity="1"/>
			<stop offset="0.82" stop-color="#559cec" stop-opacity="1"/>
			<stop offset="1" stop-color="#5ea0ef" stop-opacity="1"/>
		</linearGradient>
	</defs>
	<g>
		<title>Page-1</title>
		<g id="group3894-1" transform="translate(34.1619,-39.685)">
			<title>Azure Lighthouse</title>
			<g id="group3895-2">
				<title>Icon471-AzureLighthouse</title>
				<g id="shape3896-3">
					<title>Sheet.3896</title>
					<path d="M48.19 127.88 L36.88 98.05 a0.88189 0.89634 -180 0 0 -0.818898 -0.576218 L28 97.47 L28 90.36 A4.09449
								 4.16158 -180 1 0 19.84 90.36 L19.84 97.47 L12.57 97.47 a0.913386 0.928352 -180 0 0 -0.850394 0.576218
								 L0 127.88 A1.73228 1.76067 -180 0 0 1.42 130.38 L46.77 130.38 A1.73228 1.76067 -180 0 0 48.19 127.88
								 Z" class="st1"/>
				</g>
				<g id="shape3897-7" transform="translate(1.41732,0)">
					<title>Sheet.3897</title>
					<path d="M4.94 111.62 L32.13 97.47 L34.49 97.47 a0.88189 0.89634 0 0 1 0.850394 0.60823 L37.95 104.96 L0 124.42
								 L4.94 111.62 ZM24.38 130.31 L43.28 118.79 L46.71 127.88 A1.76378 1.79268 0 0 1 45.26 130.38 L24.38
								 130.31 Z" class="st2"/>
				</g>
				<g id="shape3898-9" transform="translate(10.4567,-32.9085)">
					<title>Sheet.3898</title>
					<path d="M13.23 106.62 L0.25 114.28 a0.503937 0.512194 -180 0 0 -0.251969 0.44817 L0 115.91 a0.503937 0.512194
								 -180 0 0 0.503937 0.512194 L2.46 116.42 L2.46 130.38 L4.91 130.38 L4.91 116.42 L22.05 116.42 L22.05
								 130.38 L24.47 130.38 L24.47 116.42 L26.46 116.42 a0.503937 0.512194 -180 0 0 0.503937 -0.512194
								 L26.96 114.72 a0.503937 0.512194 -180 0 0 -0.251969 -0.44817 L13.64 106.62 a0.692913 0.704267 -180
								 0 0 -0.409449 2.84217E-14 Z" class="st3"/>
				</g>
			</g>
		</g>
	</g>
</svg>
