<?xml version="1.0" encoding="UTF-8" standalone="no"?>
<!DOCTYPE svg PUBLIC "-//W3C//DTD SVG 1.1//EN" "http://www.w3.org/Graphics/SVG/1.1/DTD/svg11.dtd">
<!-- Generated by Microsoft Visio, SVG Export Azure Cosmos DB.svg Page-1 -->
<svg xmlns="http://www.w3.org/2000/svg" xmlns:xlink="http://www.w3.org/1999/xlink" xmlns:ev="http://www.w3.org/2001/xml-events"
		width="1.67609in" height="1.73019in" viewBox="0 0 120.679 124.574" xml:space="preserve" color-interpolation-filters="sRGB"
		class="st4">
	<style type="text/css">
	<![CDATA[
		.st1 {fill:#50e6ff;stroke:none;stroke-linecap:butt;stroke-width:33.0148}
		.st2 {fill:url(#grad7-11);stroke:none;stroke-linecap:butt;stroke-width:0.799132}
		.st3 {fill:#f2f2f2;stroke:none;stroke-linecap:butt;stroke-width:33.0148}
		.st4 {fill:none;fill-rule:evenodd;font-size:12px;overflow:visible;stroke-linecap:square;stroke-miterlimit:3}
	]]>
	</style>

	<defs id="Patterns_And_Gradients">
		<radialGradient id="grad7-11" cx="0" cy="0" r="1.4">
			<stop offset="0.185" stop-color="#5ea0ef" stop-opacity="1"/>
			<stop offset="1" stop-color="#0078d4" stop-opacity="1"/>
		</radialGradient>
	</defs>
	<g>
		<title>Page-1</title>
		<g id="group3971-1" transform="translate(31.9894,-37.7008)">
			<title>Azure Cosmos DB</title>
			<g id="group3972-2">
				<title>layer1</title>
				<g id="shape3973-3" transform="translate(1.32222,-38.8194)">
					<title>path14</title>
					<path d="M7.59 124.57 a0.562494 0.557297 0 0 1 -0.56611 -0.560881 A6.46707 6.40733 -180 0 0 0.57 117.61 a0.565708
								 0.560482 0 0 1 -0.566113 -0.557272 a0.565708 0.560482 0 0 1 0.566113 -0.560884 A6.46707 6.40733
								 -180 0 0 7.02 110.1 a0.562494 0.557297 0 0 1 0.56611 -0.560884 a0.562494 0.557297 0 0 1 0.566114
								 0.560884 A6.46707 6.40733 -180 0 0 14.61 116.49 a0.562494 0.557297 0 0 1 0.566113 0.560884 a0.562494
								 0.557297 0 0 1 -0.566113 0.560884 A6.46385 6.40414 -180 0 0 8.16 124.01 a0.568922 0.563667 0 0 1
								 -0.566114 0.560884 L7.59 124.57 Z" class="st1"/>
				</g>
				<g id="shape3974-5" transform="translate(43.5231,-2.55795E-13)">
					<title>path16</title>
					<path d="M6.07 124.57 a0.453209 0.449023 0 0 1 -0.453134 -0.448948 A5.17173 5.12395 -180 0 0 0.45 119.01 a0.453209
								 0.449023 0 0 1 -0.453134 -0.445336 a0.453209 0.449023 0 0 1 0.453134 -0.448946 A5.16851 5.12077
								 -180 0 0 5.62 113 a0.453209 0.449023 0 0 1 0.453134 -0.448946 a0.453209 0.449023 0 0 1 0.453134
								 0.448946 A5.16851 5.12077 -180 0 0 11.69 118.11 a0.453209 0.449023 0 1 1 0 0.897894 A5.17173 5.12395
								 -180 0 0 6.52 124.13 a0.453209 0.449023 0 0 1 -0.453134 0.445339 Z" class="st1"/>
				</g>
				<g id="group3975-7" transform="translate(7.65415,-7.43718)">
					<title>g26</title>
					<g id="shape3976-8" transform="translate(0.88498,1.42109E-14)">
						<title>path1554</title>
						<ellipse cx="19.7561" cy="105" rx="19.7561" ry="19.5736" class="st2"/>
					</g>
					<g id="shape3977-12" transform="translate(0,-6.25559)">
						<title>path20-2-1-1</title>
						<path d="M10.42 124.39 C17.61 124.57 17.63 113.79 10.43 113.96 C10.45 113.81 10.46 113.66 10.45 113.51 C10.43
									 110.61 8.04 108.28 5.12 108.3 L1.17 108.3 C0 113.48 1.95 120.04 5.98 124.39 L10.42 124.39 Z"
								class="st3"/>
					</g>
					<g id="shape3978-14" transform="translate(21.0893,-16.4572)">
						<title>path22-2-2-2</title>
						<path d="M19.01 117.85 C19.01 117.81 19.01 117.76 18.99 117.71 A19.2148 19.0373 -180 0 0 14.47 108.54 A5.866
									 5.81182 -180 0 0 13.54 108.26 A5.80493 5.75131 -180 0 0 6.15 113.55 A6.4285 6.36911 -180 0 0
									 5.5 113.51 A5.58315 5.53158 -180 0 0 3.64 124.26 A4.66388 4.62079 -180 0 0 5.37 124.57 L11.9
									 124.57 A43.2413 42.8418 -180 0 0 19.01 117.85 Z" class="st3"/>
					</g>
				</g>
				<g id="shape3979-16" transform="translate(0,-8.26195)">
					<title>path28</title>
					<path d="M54.67 89.45 C52.65 86.12 47.92 84.82 41.32 85.79 A46.9473 46.5136 -180 0 0 34.63 87.23 A20.7512 20.5595
								 0 0 1 39.54 89.67 C40.31 89.5 41.09 89.3 41.84 89.19 A24.0747 23.8523 0 0 1 45.38 88.91 A7.03278
								 6.96781 0 0 1 51.68 91.22 C52.91 93.25 51.87 96.72 48.83 100.77 A53.7519 53.2553 0 0 1 33.57 113.67
								 A53.8644 53.3668 0 0 1 14.85 120.87 C9.82 121.62 6.22 120.87 4.99 118.85 C3.76 116.82 4.8 113.34
								 7.84 109.31 C8.22 108.81 8.31 108.57 8.74 108.06 A20.0955 19.9098 0 0 1 8.82 102.87 A37.131 36.788
								 -180 0 0 5.06 107.24 C1.08 112.52 0 117.26 2.02 120.6 A10.1731 10.0791 -180 0 0 11.34 124.57 A27.109
								 26.8586 -180 0 0 15.36 124.25 A57.3904 56.8603 -180 0 0 35.35 116.61 A57.2393 56.7106 -180 0 0 51.62
								 102.82 C55.61 97.53 56.69 92.79 54.67 89.45 L54.67 89.45 Z" class="st1"/>
				</g>
			</g>
		</g>
	</g>
</svg>
