<?xml version="1.0" encoding="UTF-8" standalone="no"?>
<!DOCTYPE svg PUBLIC "-//W3C//DTD SVG 1.1//EN" "http://www.w3.org/Graphics/SVG/1.1/DTD/svg11.dtd">
<!-- Generated by Microsoft Visio, SVG Export Azure VMware Solution.svg Page-1 -->
<svg xmlns="http://www.w3.org/2000/svg" xmlns:xlink="http://www.w3.org/1999/xlink" xmlns:ev="http://www.w3.org/2001/xml-events"
		width="1.73185in" height="1.57446in" viewBox="0 0 124.693 113.361" xml:space="preserve" color-interpolation-filters="sRGB"
		class="st6">
	<style type="text/css">
	<![CDATA[
		.st1 {fill:url(#grad0-6);stroke:none;stroke-linecap:butt;stroke-width:34}
		.st2 {fill:#ffffff;stroke:none;stroke-linecap:butt;stroke-width:34}
		.st3 {fill:url(#grad0-12);stroke:none;stroke-linecap:butt;stroke-width:34}
		.st4 {fill:#ffffff;fill-opacity:0.6;stroke:none;stroke-linecap:butt;stroke-width:34}
		.st5 {fill:#76bc2d;stroke:none;stroke-linecap:butt;stroke-width:34}
		.st6 {fill:none;fill-rule:evenodd;font-size:12px;overflow:visible;stroke-linecap:square;stroke-miterlimit:3}
	]]>
	</style>

	<defs id="Patterns_And_Gradients">
		<linearGradient id="grad0-6" x1="0" y1="0" x2="1" y2="0" gradientTransform="rotate(-90 0.5 0.5)">
			<stop offset="0" stop-color="#0078d4" stop-opacity="1"/>
			<stop offset="1" stop-color="#5ea0ef" stop-opacity="1"/>
		</linearGradient>
		<linearGradient id="grad0-12" x1="0" y1="0" x2="1" y2="0" gradientTransform="rotate(-90 0.5 0.5)">
			<stop offset="0" stop-color="#76bc2d" stop-opacity="1"/>
			<stop offset="0.815" stop-color="#86d633" stop-opacity="1"/>
		</linearGradient>
	</defs>
	<g>
		<title>Page-1</title>
		<g id="group3515-1" transform="translate(34,-34)">
			<title>Azure VMware Solution</title>
			<g id="group3516-2">
				<title>Sheet.3516</title>
				<g id="shape3517-3" transform="translate(0,-5.0348)">
					<title>Sheet.3517</title>
					<path d="M56.69 100.73 A12.7402 12.7845 -180 0 0 45.64 88.45 A16.063 16.119 -180 0 0 29.11 73.04 A16.4661 16.5235
								 -180 0 0 13.37 83.82 A15.2031 15.2561 -180 0 0 0 98.49 A15.4331 15.4868 -180 0 0 15.96 113.36 C16.44
								 113.36 16.91 113.34 17.37 113.3 L43.22 113.3 A2.56063 2.56955 -180 0 0 43.92 113.21 A12.8882 12.9331
								 -180 0 0 56.69 100.73 Z" class="st1"/>
				</g>
				<g id="shape3518-7" transform="translate(24.5295,-8.1701)">
					<title>Sheet.3518</title>
					<path d="M12 96.04 A7.97795 8.00575 -180 1 0 0.13 103 L0.13 113.36 L7.79 113.36 L7.79 103.07 A7.95276 7.98047
								 -180 0 0 12 96.04 ZM5.42 110.98 L2.49 110.98 L2.49 103.9 A8.18898 8.21751 -180 0 0 4.02 104.05 A7.91811
								 7.9457 -180 0 0 5.42 103.91 L5.42 110.98 ZM5.42 101.47 A5.57795 5.59739 0 0 1 4.02 101.67 A5.47717
								 5.49625 0 0 1 2.49 101.43 L5.42 101.47 ZM7.79 100.21 L0.13 100.09 A5.62205 5.64164 0 1 1 7.79 100.2
								 L7.79 100.21 Z" class="st2"/>
				</g>
				<g id="shape3519-9" transform="translate(9.29764,1.42109E-14)">
					<title>Sheet.3519</title>
					<path d="M0 112.07 A1.28507 1.28955 -180 0 0 1.29 113.36 L37.17 113.36 A1.28507 1.28955 -180 0 0 38.46 112.07
								 L38.46 104.1 A1.28507 1.28955 -180 0 0 37.17 102.81 L1.29 102.81 A1.28507 1.28955 -180 0 0 -0 104.1
								 L0 112.07 Z" class="st3"/>
				</g>
				<g id="shape3520-13" transform="translate(41.9307,-5.82179)">
					<title>Sheet.3520</title>
					<path d="M0 112.72 a0.642535 0.644773 -180 0 0 0.64252 0.644758 L2.23 113.36 a0.642535 0.644773 -180 0 0 0.64252
								 -0.644758 L2.87 111.12 a0.642535 0.644773 -180 0 0 -0.64252 -0.644758 L0.64 110.48 a0.642535 0.644773
								 -180 0 0 -0.64252 0.644758 L0 112.72 Z" class="st2"/>
				</g>
				<g id="shape3521-15" transform="translate(41.9307,-1.84578)">
					<title>Sheet.3521</title>
					<path d="M0 112.72 a0.642535 0.644773 -180 0 0 0.64252 0.644758 L2.23 113.36 a0.642535 0.644773 -180 0 0 0.64252
								 -0.644758 L2.87 111.12 a0.642535 0.644773 -180 0 0 -0.64252 -0.644758 L0.64 110.48 a0.642535 0.644773
								 -180 0 0 -0.64252 0.644758 L0 112.72 Z" class="st4"/>
				</g>
				<g id="shape3522-17" transform="translate(25.1588,-10.5563)">
					<title>Sheet.3522</title>
					<path d="M9 98.43 A5.61575 5.63532 -180 1 0 1.86 103.83 L1.86 113.36 L4.79 113.36 L4.79 103.88 A5.60315 5.62267
								 -180 0 0 9 98.43 Z" class="st5"/>
				</g>
			</g>
		</g>
	</g>
</svg>
