<?xml version="1.0" encoding="UTF-8" standalone="no"?>
<!DOCTYPE svg PUBLIC "-//W3C//DTD SVG 1.1//EN" "http://www.w3.org/Graphics/SVG/1.1/DTD/svg11.dtd">
<!-- Generated by Microsoft Visio, SVG Export Azure Active Directory Identity Protection.svg Page-1 -->
<svg xmlns="http://www.w3.org/2000/svg" xmlns:xlink="http://www.w3.org/1999/xlink" xmlns:ev="http://www.w3.org/2001/xml-events"
		width="1.69273in" height="1.8108in" viewBox="0 0 121.877 130.378" xml:space="preserve" color-interpolation-filters="sRGB"
		class="st6">
	<style type="text/css">
	<![CDATA[
		.st1 {fill:url(#grad0-6);stroke:none;stroke-linecap:butt;stroke-width:34}
		.st2 {fill:#ffffff;fill-opacity:0.8;stroke:none;stroke-linecap:butt;stroke-width:34}
		.st3 {fill:#dfa500;stroke:none;stroke-linecap:butt;stroke-width:34}
		.st4 {fill:url(#grad0-17);stroke:none;stroke-linecap:butt;stroke-width:34}
		.st5 {fill:#ffd400;stroke:none;stroke-linecap:butt;stroke-width:34}
		.st6 {fill:none;fill-rule:evenodd;font-size:12px;overflow:visible;stroke-linecap:square;stroke-miterlimit:3}
	]]>
	</style>

	<defs id="Patterns_And_Gradients">
		<linearGradient id="grad0-6" x1="0" y1="0" x2="1" y2="0" gradientTransform="rotate(90 0.5 0.5)">
			<stop offset="0.1" stop-color="#54aef0" stop-opacity="1"/>
			<stop offset="1" stop-color="#1988d9" stop-opacity="1"/>
		</linearGradient>
		<linearGradient id="grad0-17" x1="0" y1="0" x2="1" y2="0" gradientTransform="rotate(90 0.5 0.5)">
			<stop offset="0" stop-color="#ffd70f" stop-opacity="1"/>
			<stop offset="0.12" stop-color="#ffcc11" stop-opacity="1"/>
			<stop offset="0.44" stop-color="#feb517" stop-opacity="1"/>
			<stop offset="0.75" stop-color="#fea61a" stop-opacity="1"/>
			<stop offset="1" stop-color="#fea11b" stop-opacity="1"/>
		</linearGradient>
	</defs>
	<g>
		<title>Page-1</title>
		<g id="group4217-1" transform="translate(34.0182,-39.685)">
			<title>Azure Active Directory Identity Protection</title>
			<g id="group4218-2">
				<title>Artboard 1</title>
				<g id="shape4219-3" transform="translate(0,-4.77882)">
					<title>Sheet.4219</title>
					<path d="M43.55 130.38 A4.21368 4.17113 -180 0 0 47.8 126.24 A2.53292 2.50735 -180 0 0 47.8 125.74 C46.14 112.41
								 38.53 101.8 24.22 101.8 C9.9 101.8 1.62 110.91 0 125.78 A4.27767 4.23448 -180 0 0 3.81 130.38 L43.55
								 130.38 Z" class="st1"/>
				</g>
				<g id="shape4220-7" transform="translate(16.8412,-13.8146)">
					<title>Sheet.4220</title>
					<path d="M7.17 113.97 A13.2743 13.1402 0 0 1 0 111.84 L7.07 130.38 L14.21 111.97 A13.473 13.337 0 0 1 7.17 113.97
								 Z" class="st2"/>
				</g>
				<g id="shape4221-9" transform="translate(10.6437,-30.2191)">
					<title>Sheet.4221</title>
					<ellipse cx="13.3719" cy="117.141" rx="13.3719" ry="13.2369" class="st1"/>
				</g>
				<g id="shape4222-12" transform="translate(30.2839,0)">
					<title>Sheet.4222</title>
					<path d="M23.57 115.22 C23.57 122.91 14.64 129.65 12.2 130.32 A1.50561 1.4904 0 0 1 11.37 130.32 C8.94 129.65
								 0 122.88 0 115.22 L0 105.98 a0.700595 0.693522 0 0 1 0.609653 -0.766875 a0.673649 0.666848 0 0 1
								 0.165044 -2.84217E-14 C8.03 104.96 6.47 101.88 11.65 101.88 C16.83 101.88 15.28 104.96 22.53 105.22
								 a0.700595 0.693522 0 0 1 0.778065 0.600163 a0.673649 0.666848 0 0 1 -4.26326E-14 0.163378 L23.57
								 115.22 Z" class="st3"/>
				</g>
				<g id="shape4223-14" transform="translate(31.3247,-1.05781)">
					<title>Sheet.4223</title>
					<path d="M10.62 117.3 L10.62 104.35 C15.54 104.35 13.98 107.04 20.72 107.3 a0.828589 0.820223 0 0 1 0.774697
								 0.770209 L21.5 117.04 L10.62 117.3 ZM10.62 117.3 L0 117.3 C0.52 123.97 8.55 129.09 10.36 130.12
								 L10.88 130.38 L10.62 117.3 Z" class="st4"/>
				</g>
				<g id="shape4224-18" transform="translate(31.3247,-14.1347)">
					<title>Sheet.4224</title>
					<path d="M0.52 120.48 C7.25 120.22 5.7 117.43 10.62 117.43 L10.62 130.38 L0 130.38 L0 121.11 C0 120.6 0.26 120.48
								 0.52 120.48 Z" class="st5"/>
				</g>
				<g id="shape4225-20" transform="translate(41.9414,-1.05781)">
					<title>Sheet.4225</title>
					<path d="M10.88 117.04 L0 117.3 L0.26 130.38 C2.07 129.09 10.1 123.71 10.88 117.04 Z" class="st5"/>
				</g>
			</g>
		</g>
	</g>
</svg>
