<?xml version="1.0" encoding="UTF-8" standalone="no"?>
<!DOCTYPE svg PUBLIC "-//W3C//DTD SVG 1.1//EN" "http://www.w3.org/Graphics/SVG/1.1/DTD/svg11.dtd">
<!-- Generated by Microsoft Visio, SVG Export Azure Monitor.svg Page-1 -->
<svg xmlns="http://www.w3.org/2000/svg" xmlns:xlink="http://www.w3.org/1999/xlink" xmlns:ev="http://www.w3.org/2001/xml-events"
		width="1.73185in" height="1.8108in" viewBox="0 0 124.693 130.378" xml:space="preserve" color-interpolation-filters="sRGB"
		class="st8">
	<style type="text/css">
	<![CDATA[
		.st1 {fill:url(#grad0-6);stroke:none;stroke-linecap:butt;stroke-width:34}
		.st2 {fill:#ffffff;stroke:none;stroke-linecap:butt;stroke-width:34}
		.st3 {fill:#9cebff;stroke:none;stroke-linecap:butt;stroke-width:34}
		.st4 {fill:#32bedd;stroke:none;stroke-linecap:butt;stroke-width:34}
		.st5 {fill:#50e6ff;stroke:none;stroke-linecap:butt;stroke-width:34}
		.st6 {fill:#f04049;stroke:none;stroke-linecap:butt;stroke-width:34}
		.st7 {fill:url(#grad7-20);stroke:none;stroke-linecap:butt;stroke-width:34}
		.st8 {fill:none;fill-rule:evenodd;font-size:12px;overflow:visible;stroke-linecap:square;stroke-miterlimit:3}
	]]>
	</style>

	<defs id="Patterns_And_Gradients">
		<linearGradient id="grad0-6" x1="0" y1="0" x2="1" y2="0" gradientTransform="rotate(0 0.5 0.5)">
			<stop offset="0.18" stop-color="#5ea0ef" stop-opacity="1"/>
			<stop offset="0.56" stop-color="#5c9fee" stop-opacity="1"/>
			<stop offset="0.69" stop-color="#559ced" stop-opacity="1"/>
			<stop offset="0.78" stop-color="#4a97e9" stop-opacity="1"/>
			<stop offset="0.86" stop-color="#3990e4" stop-opacity="1"/>
			<stop offset="0.93" stop-color="#2387de" stop-opacity="1"/>
			<stop offset="0.99" stop-color="#087bd6" stop-opacity="1"/>
			<stop offset="1" stop-color="#0078d4" stop-opacity="1"/>
		</linearGradient>
		<radialGradient id="grad7-20" cx="0" cy="0" r="1.4">
			<stop offset="0.19" stop-color="#8c8e90" stop-opacity="1"/>
			<stop offset="0.35" stop-color="#848688" stop-opacity="1"/>
			<stop offset="0.6" stop-color="#6e7071" stop-opacity="1"/>
			<stop offset="0.91" stop-color="#4a4b4c" stop-opacity="1"/>
			<stop offset="1" stop-color="#3e3f3f" stop-opacity="1"/>
		</radialGradient>
	</defs>
	<g>
		<title>Page-1</title>
		<g id="group3720-1" transform="translate(34,-39.685)">
			<title>Azure Monitor</title>
			<g id="group3721-2">
				<title>g16</title>
				<g id="shape3722-3">
					<title>ellipse2</title>
					<ellipse cx="28.3465" cy="102.031" rx="28.3465" ry="28.3465" class="st1"/>
				</g>
				<g id="shape3723-7" transform="translate(3.66836,-3.68136)">
					<title>ellipse4</title>
					<ellipse cx="24.6781" cy="105.713" rx="24.6781" ry="24.6651" class="st2"/>
				</g>
				<g id="shape3724-9" transform="translate(7.40343,-13.4872)">
					<title>path6</title>
					<path d="M0 116.99 A20.8096 20.8833 -180 0 0 6.07 130.38 L12.74 123.68 A11.7721 11.8138 0 0 1 9.4 116.99 L0 116.99
								 Z" class="st3"/>
				</g>
				<g id="shape3725-11" transform="translate(14.5734,-29.819)">
					<title>path8</title>
					<path d="M27.55 116.02 A20.843 20.9168 -180 0 0 15.24 110.9 L15.24 120.24 A11.3719 11.4122 0 0 1 20.94 122.58
								 L27.55 116.02 ZM0 116.02 L6.67 122.71 A11.3719 11.4122 0 0 1 12.37 120.37 L12.37 110.9 A20.843 20.9168
								 -180 0 0 0 116.02 ZM23.04 124.66 A12.0056 12.0481 0 0 1 25.41 130.38 L34.72 130.38 A20.5428 20.6156
								 -180 0 0 29.61 118.1 L23.04 124.66 Z" class="st4"/>
				</g>
				<g id="shape3726-13" transform="translate(7.40343,-29.819)">
					<title>path10</title>
					<path d="M11.67 124.66 L5 117.96 A20.5428 20.6156 -180 0 0 0 130.38 L9.3 130.38 A12.0056 12.0481 0 0 1 11.67
								 124.66 Z" class="st5"/>
				</g>
				<g id="shape3727-15" transform="translate(29.8472,-27.6102)">
					<title>path12</title>
					<path d="M15.64 122.95 A1.50069 1.50601 -180 0 0 13.74 122.11 L0 127.67 L1.07 130.38 L14.81 124.92 A1.46735 1.47254
								 -180 0 0 15.64 122.95 Z" class="st6"/>
				</g>
				<g id="shape3728-17" transform="translate(24.3446,-24.3304)">
					<title>ellipse14</title>
					<ellipse cx="4.00185" cy="126.362" rx="4.00185" ry="4.01603" class="st7"/>
				</g>
			</g>
		</g>
	</g>
</svg>
