<?xml version="1.0" encoding="UTF-8" standalone="no"?>
<!DOCTYPE svg PUBLIC "-//W3C//DTD SVG 1.1//EN" "http://www.w3.org/Graphics/SVG/1.1/DTD/svg11.dtd">
<!-- Generated by Microsoft Visio, SVG Export Azure Active Directory Group.svg Page-1 -->
<svg xmlns="http://www.w3.org/2000/svg" xmlns:xlink="http://www.w3.org/1999/xlink" xmlns:ev="http://www.w3.org/2001/xml-events"
		width="1.73214in" height="1.57437in" viewBox="0 0 124.714 113.354" xml:space="preserve" color-interpolation-filters="sRGB"
		class="st5">
	<style type="text/css">
	<![CDATA[
		.st1 {fill:#0078d4;stroke:none;stroke-linecap:butt;stroke-width:34}
		.st2 {fill:#ffffff;fill-opacity:0.8;stroke:none;stroke-linecap:butt;stroke-width:34}
		.st3 {fill:url(#grad0-12);stroke:none;stroke-linecap:butt;stroke-width:34}
		.st4 {fill:url(#grad0-18);stroke:none;stroke-linecap:butt;stroke-width:34}
		.st5 {fill:none;fill-rule:evenodd;font-size:12px;overflow:visible;stroke-linecap:square;stroke-miterlimit:3}
	]]>
	</style>

	<defs id="Patterns_And_Gradients">
		<linearGradient id="grad0-12" x1="0" y1="0" x2="1" y2="0" gradientTransform="rotate(90 0.5 0.5)">
			<stop offset="0.22" stop-color="#32d4f5" stop-opacity="1"/>
			<stop offset="1" stop-color="#198ab3" stop-opacity="1"/>
		</linearGradient>
		<linearGradient id="grad0-18" x1="0" y1="0" x2="1" y2="0" gradientTransform="rotate(85.401203911388 0.5 0.5)">
			<stop offset="0.22" stop-color="#32d4f5" stop-opacity="1"/>
			<stop offset="1" stop-color="#198ab3" stop-opacity="1"/>
		</linearGradient>
	</defs>
	<g>
		<title>Page-1</title>
		<g id="group4226-1" transform="translate(34.0178,-34)">
			<title>Azure Active Directory Group</title>
			<g id="group4227-2">
				<title>Icon-identity-223</title>
				<g id="shape4228-3" transform="translate(28.5352,-7.51797)">
					<title>Sheet.4228</title>
					<path d="M25.64 113.35 A2.48543 2.4341 -180 0 0 28.16 110.92 a0.880911 0.862718 -180 0 0 -0.0629222 -0.400548
								 C27.12 102.82 22.62 96.53 14.06 96.53 C5.51 96.53 0.88 101.95 0 110.52 A2.54835 2.49572 -180 0 0
								 2.27 113.23 L25.64 113.23 L25.64 113.35 Z" class="st1"/>
				</g>
				<g id="shape4229-5" transform="translate(38.3511,-12.7867)">
					<title>Sheet.4229</title>
					<path d="M4.28 103.74 A7.67651 7.51797 0 0 1 0 102.51 L4.25 113.35 L8.43 102.6 A7.99112 7.82609 0 0 1 4.28 103.74
								 Z" class="st2"/>
				</g>
				<g id="shape4230-7" transform="translate(34.7331,-22.3999)">
					<title>Sheet.4230</title>
					<ellipse cx="7.89674" cy="105.621" rx="7.89674" ry="7.73365" class="st1"/>
				</g>
				<g id="shape4231-9">
					<title>Sheet.4231</title>
					<path d="M38.35 113.35 A3.74387 3.66655 -180 0 0 42.09 109.69 A2.07643 2.03355 -180 0 0 42.09 109.26 C40.62 97.73
								 33.92 88.37 21.14 88.37 C8.37 88.37 1.38 96.32 0 109.16 A3.77533 3.69736 -180 0 0 3.37 113.2 L38.29
								 113.2 L38.35 113.35 Z" class="st3"/>
				</g>
				<g id="shape4232-13" transform="translate(15.0069,-7.91852)">
					<title>Sheet.4232</title>
					<path d="M6.29 99.03 A11.7035 11.4618 0 0 1 -0 97.18 L6.29 113.35 L12.58 97.3 A11.9867 11.7391 0 0 1 6.29 99.03
								 Z" class="st2"/>
				</g>
				<g id="shape4233-15" transform="translate(9.40687,-22.2458)">
					<title>Sheet.4233</title>
					<ellipse cx="11.7979" cy="101.8" rx="11.7979" ry="11.5543" class="st4"/>
				</g>
			</g>
		</g>
	</g>
</svg>
