<?xml version="1.0" encoding="UTF-8" standalone="no"?>
<!DOCTYPE svg PUBLIC "-//W3C//DTD SVG 1.1//EN" "http://www.w3.org/Graphics/SVG/1.1/DTD/svg11.dtd">
<!-- Generated by Microsoft Visio, SVG Export Azure Information Protection.svg Page-1 -->
<svg xmlns="http://www.w3.org/2000/svg" xmlns:xlink="http://www.w3.org/1999/xlink" xmlns:ev="http://www.w3.org/2001/xml-events"
		width="0.768154in" height="1.41732in" viewBox="0 0 55.3071 102.047" xml:space="preserve" color-interpolation-filters="sRGB"
		class="st6">
	<style type="text/css">
	<![CDATA[
		.st1 {fill:url(#grad0-5);stroke:none;stroke-linecap:butt;stroke-width:0.75}
		.st2 {fill:#50e6ff;stroke:none;stroke-linecap:butt;stroke-width:0.75}
		.st3 {fill:#ffffff;fill-opacity:0.2;stroke:none;stroke-linecap:butt;stroke-width:0.75}
		.st4 {fill:#198ab3;stroke:none;stroke-linecap:butt;stroke-width:0.75}
		.st5 {fill:url(#grad0-15);stroke:none;stroke-linecap:butt;stroke-width:0.75}
		.st6 {fill:none;fill-rule:evenodd;font-size:12px;overflow:visible;stroke-linecap:square;stroke-miterlimit:3}
	]]>
	</style>

	<defs id="Patterns_And_Gradients">
		<linearGradient id="grad0-5" x1="0" y1="0" x2="1" y2="0" gradientTransform="rotate(88.546233687646 0.5 0.5)">
			<stop offset="0.22" stop-color="#32d4f5" stop-opacity="1"/>
			<stop offset="1" stop-color="#198ab3" stop-opacity="1"/>
		</linearGradient>
		<linearGradient id="grad0-15" x1="0" y1="0" x2="1" y2="0" gradientTransform="rotate(-99.914945678475 0.5 0.5)">
			<stop offset="0" stop-color="#cccccc" stop-opacity="1"/>
			<stop offset="1" stop-color="#fcfcfc" stop-opacity="1"/>
		</linearGradient>
	</defs>
	<g>
		<title>Page-1</title>
		<g id="group3975-1" transform="translate(4.53543,-39.685)">
			<title>Azure Information Protection</title>
			<g id="shape3976-2">
				<title>Sheet.3976</title>
				<path d="M42.95 72.59 L39.6 72.59 L39.6 62.91 A19.4328 18.2485 -180 0 0 34.62 50.6 A16.0212 15.0448 -180 0 0 22.38
							 45.35 A16.0212 15.0448 -180 0 0 10 50.6 A19.1652 17.9973 -180 0 0 5.02 62.91 L5.02 72.59 L2.31 72.59
							 A2.3413 2.19862 -180 0 0 0 74.75 L0 99.88 A2.3413 2.19862 -180 0 0 2.31 102.05 L42.95 102.05 A2.37475
							 2.23003 -180 0 0 45.29 99.88 L45.29 74.75 A2.37475 2.23003 -180 0 0 42.95 72.59 ZM31.67 72.59 L13.08
							 72.59 L13.08 62.75 A10.6362 9.988 0 0 1 15.99 56 A8.39523 7.88361 0 0 1 22.28 53.3 A8.49558 7.97784
							 0 0 1 28.6 56 A10.6696 10.0194 0 0 1 29.67 57.35 A10.0341 9.42264 0 0 1 31.71 62.72 L31.67 72.59 Z"
						class="st1"/>
			</g>
			<g id="shape3977-6" transform="translate(0.869626,-0.659585)">
				<title>Sheet.3977</title>
				<path d="M42.18 73.25 L1.47 73.25 A2.20751 2.07298 -180 0 0 0 73.78 L43.65 102.05 A2.24096 2.10439 -180 0 0 44.48
							 100.41 L44.48 75.29 A2.37475 2.23003 -180 0 0 42.18 73.25 Z" class="st2"/>
			</g>
			<g id="shape3978-8" transform="translate(0.0668943,-0.659585)">
				<title>Sheet.3978</title>
				<path d="M2.34 73.25 L43.01 73.25 A2.3413 2.19862 0 0 1 44.52 73.78 L0.84 102.05 A2.3413 2.19862 0 0 1 0 100.41 L0
							 75.29 A2.40819 2.26143 0 0 1 2.34 73.25 Z" class="st3"/>
			</g>
			<g id="shape3979-10" transform="translate(9.96725,-5.18245)">
				<title>Sheet.3979</title>
				<path d="M20.8 102.05 L0 92.31 L20.8 82.67 L21.74 84.49 L4.85 92.31 L21.74 100.26 L20.8 102.05 Z" class="st4"/>
			</g>
			<g id="shape3980-12" transform="translate(8.26145,-10.9303)">
				<title>Sheet.3980</title>
				<ellipse cx="4.18089" cy="98.1211" rx="4.18089" ry="3.9261" class="st5"/>
			</g>
			<g id="shape3981-16" transform="translate(26.8915,-19.3478)">
				<title>Sheet.3981</title>
				<ellipse cx="4.18089" cy="98.1211" rx="4.18089" ry="3.9261" class="st5"/>
			</g>
			<g id="shape3982-19" transform="translate(26.8915,-2.16721)">
				<title>Sheet.3982</title>
				<ellipse cx="4.18089" cy="98.1211" rx="4.18089" ry="3.9261" class="st5"/>
			</g>
		</g>
	</g>
</svg>
