<?xml version="1.0" encoding="UTF-8" standalone="no"?>
<!DOCTYPE svg PUBLIC "-//W3C//DTD SVG 1.1//EN" "http://www.w3.org/Graphics/SVG/1.1/DTD/svg11.dtd">
<!-- Generated by Microsoft Visio, SVG Export Azure Lighthouse Service Provider.svg Page-1 -->
<svg xmlns="http://www.w3.org/2000/svg" xmlns:xlink="http://www.w3.org/1999/xlink" xmlns:ev="http://www.w3.org/2001/xml-events"
		width="0.944882in" height="1.41732in" viewBox="0 0 68.0315 102.047" xml:space="preserve" color-interpolation-filters="sRGB"
		class="st5">
	<style type="text/css">
	<![CDATA[
		.st1 {fill:url(#grad0-5);stroke:none;stroke-linecap:butt;stroke-width:2.52454}
		.st2 {fill:#ffffff;fill-opacity:0.8;stroke:none;stroke-linecap:butt;stroke-width:2.52454}
		.st3 {fill:url(#grad0-11);stroke:none;stroke-linecap:butt;stroke-width:2.52454}
		.st4 {fill:url(#grad0-15);stroke:none;stroke-linecap:butt;stroke-width:2.52454}
		.st5 {fill:none;fill-rule:evenodd;font-size:12px;overflow:visible;stroke-linecap:square;stroke-miterlimit:3}
	]]>
	</style>

	<defs id="Patterns_And_Gradients">
		<linearGradient id="grad0-5" x1="0" y1="0" x2="1" y2="0" gradientTransform="rotate(90 0.5 0.5)">
			<stop offset="0.1" stop-color="#54aef0" stop-opacity="1"/>
			<stop offset="1" stop-color="#1988d9" stop-opacity="1"/>
		</linearGradient>
		<linearGradient id="grad0-11" x1="0" y1="0" x2="1" y2="0" gradientTransform="rotate(85.417782300505 0.5 0.5)">
			<stop offset="0.1" stop-color="#54aef0" stop-opacity="1"/>
			<stop offset="1" stop-color="#1988d9" stop-opacity="1"/>
		</linearGradient>
		<linearGradient id="grad0-15" x1="0" y1="0" x2="1" y2="0" gradientTransform="rotate(-90 0.5 0.5)">
			<stop offset="0" stop-color="#76bc2d" stop-opacity="1"/>
			<stop offset="0.6" stop-color="#81ce31" stop-opacity="1"/>
			<stop offset="0.82" stop-color="#86d633" stop-opacity="1"/>
		</linearGradient>
	</defs>
	<g>
		<title>Page-1</title>
		<g id="group3750-1" transform="translate(5.66929,-39.685)">
			<title>Azure-Lighthouse-Service-Provider</title>
			<g id="shape3751-2" transform="translate(2.79776E-13,-5.89759)">
				<title>path23</title>
				<path d="M29.73 83.4 A1.65693 1.61708 0 0 1 31.38 81.79 L40.9 81.79 A21.2152 20.705 -180 0 0 23.65 74.08 C9.1 74.08
							 1.46 82.99 0 97.54 A4.19105 4.09026 -180 0 0 3.77 102.05 L29.76 102.05 L29.73 83.4 Z" class="st1"/>
			</g>
			<g id="shape3752-6" transform="translate(16.4718,-14.744)">
				<title>path25</title>
				<path d="M7.18 86 A13.2879 12.9683 0 0 1 -0 83.94 L7.12 102.05 L14.17 84.04 A12.9955 12.683 0 0 1 7.18 86 Z"
						class="st2"/>
			</g>
			<g id="shape3753-8" transform="translate(10.3964,-30.8196)">
				<title>circle27</title>
				<ellipse cx="13.2554" cy="89.1106" rx="13.2554" ry="12.9366" class="st3"/>
			</g>
			<g id="shape3754-12" transform="translate(31.3842,0)">
				<title>path29</title>
				<path d="M8.87 94.63 L16.47 94.63 L16.47 102.05 L8.87 102.05 L8.87 94.63 ZM0 84.73 L7.6 84.73 L7.6 77.32 L1.1 77.32
							 A1.07213 1.04635 -180 0 0 0.03 78.36 L0 84.73 ZM1.07 102.05 L7.57 102.05 L7.57 94.63 L0 94.63 L0 100.97
							 A1.07213 1.04635 -180 0 0 1.07 102.05 ZM0 93.39 L7.6 93.39 L7.6 86.03 L0 86.03 L0 93.39 ZM17.71 102.05
							 L24.2 102.05 A1.03964 1.01464 -180 0 0 25.24 101 L25.24 94.66 L17.71 94.66 L17.71 102.05 ZM8.87 93.39
							 L16.47 93.39 L16.47 86.03 L8.87 86.03 L8.87 93.39 ZM17.71 93.39 L25.31 93.39 L25.31 86.03 L17.71 86.03
							 L17.71 93.39 ZM17.71 77.32 L17.71 84.73 L25.31 84.73 L25.31 78.39 A1.03964 1.01464 -180 0 0 24.27 77.35
							 L17.71 77.32 ZM8.87 84.73 L16.47 84.73 L16.47 77.32 L8.87 77.32 L8.87 84.73 Z" class="st4"/>
			</g>
		</g>
	</g>
</svg>
