<?xml version="1.0" encoding="UTF-8" standalone="no"?>
<!DOCTYPE svg PUBLIC "-//W3C//DTD SVG 1.1//EN" "http://www.w3.org/Graphics/SVG/1.1/DTD/svg11.dtd">
<!-- Generated by Microsoft Visio, SVG Export Client Application.svg Page-1 -->
<svg xmlns="http://www.w3.org/2000/svg" xmlns:xlink="http://www.w3.org/1999/xlink" xmlns:ev="http://www.w3.org/2001/xml-events"
		width="1.13208in" height="1.51092in" viewBox="0 0 81.5099 108.786" xml:space="preserve" color-interpolation-filters="sRGB"
		class="st2">
	<style type="text/css">
	<![CDATA[
		.st1 {fill:#0072c6;stroke:none;stroke-linecap:butt;stroke-width:12.4085}
		.st2 {fill:none;fill-rule:evenodd;font-size:12px;overflow:visible;stroke-linecap:square;stroke-miterlimit:3}
	]]>
	</style>

	<g>
		<title>Page-1</title>
		<g id="group3430-1" transform="translate(12.4085,-39.685)">
			<title>Client Application</title>
			<g id="group3431-2">
				<title> Applications</title>
				<g id="shape3432-3">
					<title>Sheet.3432</title>
					<path d="M0 52.09 L16.41 52.09 L16.41 68.5 L0 68.5 L0 52.09 ZM19.41 52.09 L37.32 52.09 L37.32 68.5 L19.41 68.5
								 L19.41 52.09 ZM40.29 52.09 L56.69 52.09 L56.69 68.5 L40.29 68.5 L40.29 52.09 ZM0 71.5 L16.41 71.5
								 L16.41 87.91 L0 87.91 L0 71.5 ZM19.41 71.5 L37.32 71.5 L37.32 87.91 L19.41 87.91 L19.41 71.5 ZM40.29
								 71.5 L56.69 71.5 L56.69 87.91 L40.29 87.91 L40.29 71.5 ZM0 90.88 L16.41 90.88 L16.41 108.79 L0 108.79
								 L0 90.88 ZM19.41 90.88 L37.32 90.88 L37.32 108.79 L19.41 108.79 L19.41 90.88 ZM40.29 90.88 L56.69
								 90.88 L56.69 108.79 L40.29 108.79 L40.29 90.88 Z" class="st1"/>
				</g>
			</g>
		</g>
	</g>
</svg>
