<?xml version="1.0" encoding="UTF-8" standalone="no"?>
<!DOCTYPE svg PUBLIC "-//W3C//DTD SVG 1.1//EN" "http://www.w3.org/Graphics/SVG/1.1/DTD/svg11.dtd">
<!-- Generated by Microsoft Visio, SVG Export Cloud Simple Node.svg Page-1 -->
<svg xmlns="http://www.w3.org/2000/svg" xmlns:xlink="http://www.w3.org/1999/xlink" xmlns:ev="http://www.w3.org/2001/xml-events"
		width="0.954735in" height="1.41732in" viewBox="0 0 68.7409 102.047" xml:space="preserve" color-interpolation-filters="sRGB"
		class="st11">
	<style type="text/css">
	<![CDATA[
		.st1 {fill:#81ba33}
		.st2 {stroke:#81ba33;stroke-linecap:butt;stroke-width:2.88424}
		.st3 {stroke:#81ba33;stroke-linecap:round;stroke-linejoin:round;stroke-width:2.88424}
		.st4 {fill:#ffffff;stroke:#81ba33;stroke-linecap:butt;stroke-width:1.92283}
		.st5 {fill:#eaeaea;stroke:#486385;stroke-linecap:butt;stroke-width:1.92283}
		.st6 {fill:none;stroke:#486385;stroke-linecap:butt;stroke-width:0.961415}
		.st7 {fill:#486385;stroke:none;stroke-linecap:butt;stroke-width:0.961415}
		.st8 {fill:#ffffff;fill-opacity:0.2;stroke:none;stroke-linecap:butt;stroke-width:0.961415}
		.st9 {fill:#f7f7f7;stroke:#81ba33;stroke-linecap:butt;stroke-width:1.34598}
		.st10 {fill:#81ba33;stroke:none;stroke-linecap:butt;stroke-width:0.961415}
		.st11 {fill:none;fill-rule:evenodd;font-size:12px;overflow:visible;stroke-linecap:square;stroke-miterlimit:3}
	]]>
	</style>

	<g>
		<title>Page-1</title>
		<g id="group3314-1" transform="translate(5.66929,-39.685)">
			<title>Cloud Simple Node</title>
			<g id="group3315-2">
				<title>g59</title>
				<g id="group3316-3" transform="translate(11.809,0)">
					<title>g11</title>
					<g id="shape3317-4" transform="translate(21.1588,-4.76921)">
						<title>path5</title>
						<path d="M0 102.05 L0 96.15 L0 102.05 Z" class="st1"/>
						<path d="M0 102.05 L0 96.15" class="st2"/>
					</g>
					<g id="shape3318-7" transform="translate(0,-2.42882)">
						<title>path7</title>
						<path d="M41.08 102.05 L26.29 102.05 L41.08 102.05 ZM14.79 102.05 L0 102.05 L14.79 102.05 Z" class="st1"/>
						<path d="M41.08 102.05 L26.29 102.05M14.79 102.05 L0 102.05" class="st3"/>
					</g>
					<g id="shape3319-10" transform="translate(16.0095,0)">
						<title>path9</title>
						<rect x="0" y="97.4855" width="10.2975" height="4.5617" class="st4"/>
					</g>
				</g>
				<g id="shape3320-12" transform="translate(9.26474,-11.0747)">
					<title>path13</title>
					<path d="M45.6 90.26 L1.83 90.26 C0.8 90.26 0 90.9 0 91.72 L0 100.59 C0 101.41 0.8 102.05 1.82 102.05 L45.6 102.05
								 C46.63 102.05 47.43 101.41 47.43 100.59 L47.43 91.72 C47.43 90.9 46.63 90.26 45.6 90.26 Z"
							class="st5"/>
				</g>
				<g id="shape3321-14" transform="translate(13.4275,-15.4124)">
					<title>path15</title>
					<path d="M1.71 102.05 C0.8 102.05 0 101.32 0 100.49 C0 99.66 0.8 98.93 1.71 98.93 C2.62 98.93 3.42 99.66 3.42
								 100.49 C3.42 101.32 2.62 102.05 1.71 102.05 L1.71 102.05 Z" class="st6"/>
				</g>
				<g id="group3322-16" transform="translate(43.2727,-13.9999)">
					<title>g23</title>
					<g id="shape3323-17">
						<title>rect17</title>
						<path d="M0 101.34 a0.729046 0.70744 -180 0 0 0.729029 0.707423 L8.02 102.05 a0.729046 0.70744 -180 0 0 0.729029
									 -0.707423 a0.729046 0.70744 -180 0 0 -0.729029 -0.707423 L0.73 100.63 a0.729046 0.70744 -180
									 0 0 -0.729029 0.707423 Z" class="st7"/>
					</g>
					<g id="shape3324-19" transform="translate(0,-2.4017)">
						<title>rect19</title>
						<path d="M0 101.34 a0.729046 0.70744 -180 0 0 0.729029 0.707423 L8.02 102.05 a0.729046 0.70744 -180 0 0 0.729029
									 -0.707423 a0.729046 0.70744 -180 0 0 -0.729029 -0.707423 L0.73 100.63 a0.729046 0.70744 -180
									 0 0 -0.729029 0.707423 Z" class="st7"/>
					</g>
					<g id="shape3325-21" transform="translate(0,-4.75978)">
						<title>rect21</title>
						<path d="M0 101.34 a0.729046 0.70744 -180 0 0 0.729029 0.707423 L8.02 102.05 a0.729046 0.70744 -180 0 0 0.729029
									 -0.707423 a0.729046 0.70744 -180 0 0 -0.729029 -0.707423 L0.73 100.63 a0.729046 0.70744 -180
									 0 0 -0.729029 0.707423 Z" class="st7"/>
					</g>
				</g>
				<g id="shape3326-23" transform="translate(9.26474,-25.9624)">
					<title>path25</title>
					<path d="M45.6 90.26 L1.83 90.26 C0.8 90.26 0 90.9 0 91.72 L0 100.59 C0 101.41 0.8 102.05 1.82 102.05 L45.6 102.05
								 C46.63 102.05 47.43 101.41 47.43 100.59 L47.43 91.72 C47.43 90.9 46.63 90.26 45.6 90.26 Z"
							class="st5"/>
				</g>
				<g id="shape3327-25" transform="translate(13.4275,-30.3001)">
					<title>path27</title>
					<path d="M1.71 102.05 C0.8 102.05 0 101.32 0 100.49 C0 99.66 0.8 98.93 1.71 98.93 C2.62 98.93 3.42 99.66 3.42
								 100.49 C3.42 101.32 2.62 102.05 1.71 102.05 L1.71 102.05 Z" class="st6"/>
				</g>
				<g id="group3328-27" transform="translate(43.2727,-28.8876)">
					<title>g35</title>
					<g id="shape3329-28">
						<title>rect29</title>
						<path d="M0 101.34 a0.729046 0.70744 -180 0 0 0.729029 0.707423 L8.02 102.05 a0.729046 0.70744 -180 0 0 0.729029
									 -0.707423 a0.729046 0.70744 -180 0 0 -0.729029 -0.707423 L0.73 100.63 a0.729046 0.70744 -180
									 0 0 -0.729029 0.707423 Z" class="st7"/>
					</g>
					<g id="shape3330-30" transform="translate(0,-2.4017)">
						<title>rect31</title>
						<path d="M0 101.34 a0.729046 0.70744 -180 0 0 0.729029 0.707423 L8.02 102.05 a0.729046 0.70744 -180 0 0 0.729029
									 -0.707423 a0.729046 0.70744 -180 0 0 -0.729029 -0.707423 L0.73 100.63 a0.729046 0.70744 -180
									 0 0 -0.729029 0.707423 Z" class="st7"/>
					</g>
					<g id="shape3331-32" transform="translate(0,-4.75978)">
						<title>rect33</title>
						<path d="M0 101.34 a0.729046 0.70744 -180 0 0 0.729029 0.707423 L8.02 102.05 a0.729046 0.70744 -180 0 0 0.729029
									 -0.707423 a0.729046 0.70744 -180 0 0 -0.729029 -0.707423 L0.73 100.63 a0.729046 0.70744 -180
									 0 0 -0.729029 0.707423 Z" class="st7"/>
					</g>
				</g>
				<g id="shape3332-34" transform="translate(9.26474,-40.8513)">
					<title>path37</title>
					<path d="M45.6 90.26 L1.83 90.26 C0.8 90.26 0 90.9 0 91.72 L0 100.59 C0 101.41 0.8 102.05 1.82 102.05 L45.6 102.05
								 C46.63 102.05 47.43 101.41 47.43 100.59 L47.43 91.72 C47.43 90.9 46.63 90.26 45.6 90.26 L45.6 90.26
								 Z" class="st5"/>
				</g>
				<g id="shape3333-36" transform="translate(13.4275,-45.189)">
					<title>path39</title>
					<path d="M1.71 102.05 C0.8 102.05 0 101.32 0 100.49 C0 99.66 0.8 98.93 1.71 98.93 C2.62 98.93 3.42 99.66 3.42
								 100.49 C3.42 101.32 2.62 102.05 1.71 102.05 L1.71 102.05 Z" class="st6"/>
				</g>
				<g id="group3334-38" transform="translate(43.2727,-43.7765)">
					<title>g47</title>
					<g id="shape3335-39">
						<title>rect41</title>
						<path d="M0 101.34 a0.729046 0.70744 -180 0 0 0.729029 0.707423 L8.02 102.05 a0.729046 0.70744 -180 0 0 0.729029
									 -0.707423 a0.729046 0.70744 -180 0 0 -0.729029 -0.707423 L0.73 100.63 a0.729046 0.70744 -180
									 0 0 -0.729029 0.707423 Z" class="st7"/>
					</g>
					<g id="shape3336-41" transform="translate(0,-2.4017)">
						<title>rect43</title>
						<path d="M0 101.34 a0.729046 0.70744 -180 0 0 0.729029 0.707423 L8.02 102.05 a0.729046 0.70744 -180 0 0 0.729029
									 -0.707423 a0.729046 0.70744 -180 0 0 -0.729029 -0.707423 L0.73 100.63 a0.729046 0.70744 -180
									 0 0 -0.729029 0.707423 Z" class="st7"/>
					</g>
					<g id="shape3337-43" transform="translate(0,-4.75978)">
						<title>rect45</title>
						<path d="M0 101.34 a0.729046 0.70744 -180 0 0 0.729029 0.707423 L8.02 102.05 a0.729046 0.70744 -180 0 0 0.729029
									 -0.707423 a0.729046 0.70744 -180 0 0 -0.729029 -0.707423 L0.73 100.63 a0.729046 0.70744 -180
									 0 0 -0.729029 0.707423 Z" class="st7"/>
					</g>
				</g>
				<g id="shape3338-45" transform="translate(7.9938,-9.59148)">
					<title>path49</title>
					<path d="M48.6 58.16 L48.57 58.16 L2.81 58.16 C1.25 58.16 0 59.77 0 61.58 L0 98.66 C0 100.45 1.25 102.05 2.81
								 102.05 L3.9 102.05 L48.6 58.16 Z" class="st8"/>
				</g>
				<g id="group3339-47" transform="translate(2.8777E-13,-28.3842)">
					<title>g57</title>
					<g id="shape3340-48">
						<title>circle51</title>
						<ellipse cx="14.5866" cy="87.8929" rx="14.5866" ry="14.1544" class="st9"/>
					</g>
					<g id="shape3341-50" transform="translate(3.07164,-7.52345)">
						<title>path53</title>
						<path d="M12.06 100.74 A6.55397 6.35974 0 0 1 10.44 101.54 A9.72403 9.43585 0 0 1 7.18 102.05 C6.2 102.05
									 5.28 101.91 4.41 101.62 A6.50658 6.31375 0 0 1 2.13 100.35 A6.23563 6.05083 0 0 1 0.57 98.23
									 C0.19 97.39 0 96.41 0 95.29 C0 94.2 0.18 93.22 0.55 92.38 C0.92 91.53 1.43 90.81 2.07 90.22
									 A6.57341 6.3786 0 0 1 4.33 88.88 A8.01081 7.7734 0 0 1 7.12 88.42 C7.65 88.42 8.13 88.45 8.56
									 88.52 C8.99 88.58 9.36 88.66 9.69 88.76 A5.77269 5.60161 0 0 1 11.1 89.38 C11.4 89.6 11.62 89.82
									 11.75 90.05 C11.88 90.29 11.94 90.53 11.94 90.78 C11.94 91.02 11.89 91.25 11.8 91.46 C11.7 91.67
									 11.58 91.87 11.45 92.03 A3.49569 3.3921 0 0 1 11.04 92.47 A2.10689 2.04445 0 0 1 10.7 92.72
									 A10.0533 9.75537 -180 0 0 10.2 92.28 A3.46167 3.35908 -180 0 0 9.47 91.82 A5.5552 5.39057 -180
									 0 0 8.49 91.46 A4.56493 4.42965 -180 0 0 7.25 91.31 C6.68 91.31 6.17 91.4 5.7 91.58 A3.46653
									 3.3638 -180 0 0 4.48 92.38 A3.6901 3.58074 -180 0 0 3.69 93.63 A4.88449 4.73974 -180 0 0 3.4
									 95.29 C3.4 95.92 3.51 96.47 3.71 96.95 C3.92 97.43 4.21 97.83 4.57 98.15 A3.60869 3.50175 -180
									 0 0 5.86 98.88 C6.36 99.04 6.9 99.12 7.49 99.12 C8.21 99.12 8.84 99.03 9.36 98.86 C9.89 98.68
									 10.29 98.5 10.56 98.31 L12.02 100.74 L12.06 100.74 Z" class="st10"/>
					</g>
					<g id="shape3342-52" transform="translate(12.6256,-7.52345)">
						<title>path55</title>
						<path d="M1.34 98.01 C1.42 98.07 1.6 98.17 1.87 98.3 C2.14 98.43 2.48 98.57 2.9 98.7 C3.31 98.83 3.79 98.95
									 4.34 99.06 C4.88 99.16 5.47 99.22 6.11 99.22 C6.63 99.22 7.04 99.18 7.35 99.11 C7.66 99.04 7.9
									 98.95 8.07 98.84 a0.826232 0.801747 -180 0 0 0.330493 -0.386725 C8.45 98.31 8.48 98.16 8.48
									 98.01 a0.939232 0.911397 -180 0 0 -0.379095 -0.745153 C7.85 97.07 7.38 96.91 6.69 96.8 L4.71
									 96.46 A11.3728 11.0358 0 0 1 3.15 96.08 A4.91487 4.76921 0 0 1 1.76 95.4 A3.50663 3.40271 0
									 0 1 0.76 94.29 C0.5 93.84 0.37 93.28 0.37 92.61 C0.37 92.03 0.48 91.49 0.7 90.98 C0.92 90.47
									 1.26 90.03 1.71 89.65 C2.17 89.27 2.74 88.97 3.43 88.75 C4.13 88.53 4.94 88.42 5.87 88.42 C6.55
									 88.42 7.14 88.46 7.64 88.52 A9.90264 9.60917 0 0 1 8.95 88.78 C9.31 88.88 9.6 88.98 9.83 89.08
									 C10.06 89.18 10.22 89.26 10.33 89.33 C10.55 89.45 10.76 89.63 10.96 89.85 A1.17738 1.14249 0
									 0 1 11.26 90.63 C11.26 90.84 11.22 91.05 11.14 91.24 A2.96472 2.87686 0 0 1 10.86 91.78 C10.75
									 91.95 10.63 92.09 10.5 92.2 A3.24661 3.15039 0 0 1 10.17 92.48 A3.37419 3.27419 -180 0 0 9.59
									 92.05 A4.82617 4.68314 -180 0 0 8.65 91.63 A8.59646 8.3417 -180 0 0 7.41 91.31 A7.84192 7.60952
									 -180 0 0 5.91 91.18 C5.41 91.18 5 91.22 4.71 91.3 C4.41 91.38 4.18 91.48 4.04 91.6 a0.854179
									 0.828864 -180 0 0 -0.291611 0.405589 A1.53825 1.49266 -180 0 0 3.68 92.42 C3.68 92.54 3.69 92.64
									 3.72 92.74 C3.76 92.84 3.83 92.94 3.96 93.04 C4.08 93.13 4.26 93.22 4.48 93.3 C4.71 93.38 5.02
									 93.46 5.41 93.54 L7.47 93.93 A11.3777 11.0405 0 0 1 9.38 94.45 C9.94 94.66 10.4 94.91 10.77
									 95.22 C11.15 95.52 11.43 95.88 11.62 96.31 C11.81 96.74 11.9 97.25 11.9 97.84 C11.9 99.16 11.39
									 100.19 10.38 100.93 C9.36 101.68 7.92 102.05 6.07 102.05 A11.7629 11.4143 0 0 1 3.74 101.84
									 A13.8054 13.3962 0 0 1 1.89 101.36 A10.9913 10.6656 0 0 1 0.59 100.84 C0.26 100.67 0.06 100.56
									 0 100.5 L1.34 98.01 Z" class="st7"/>
					</g>
				</g>
			</g>
		</g>
	</g>
</svg>
