<?xml version="1.0" encoding="UTF-8" standalone="no"?>
<!DOCTYPE svg PUBLIC "-//W3C//DTD SVG 1.1//EN" "http://www.w3.org/Graphics/SVG/1.1/DTD/svg11.dtd">
<!-- Generated by Microsoft Visio, SVG Export Cognitive Services Model Optimisation.svg Page-1 -->
<svg xmlns="http://www.w3.org/2000/svg" xmlns:xlink="http://www.w3.org/1999/xlink" xmlns:ev="http://www.w3.org/2001/xml-events"
		width="1.13434in" height="1.51205in" viewBox="0 0 81.6725 108.868" xml:space="preserve" color-interpolation-filters="sRGB"
		class="st3">
	<style type="text/css">
	<![CDATA[
		.st1 {fill:#0078d4;stroke:none;stroke-linecap:butt;stroke-width:12.4898}
		.st2 {fill:#50e6ff;stroke:none;stroke-linecap:butt;stroke-width:12.4898}
		.st3 {fill:none;fill-rule:evenodd;font-size:12px;overflow:visible;stroke-linecap:square;stroke-miterlimit:3}
	]]>
	</style>

	<g>
		<title>Page-1</title>
		<g id="group3105-1" transform="translate(12.4898,-39.685)">
			<title>Cognitive Services Model Optimisation</title>
			<g id="shape3106-2" transform="translate(42.2741,-42.2886)">
				<title>Sheet.3106</title>
				<path d="M0 94.46 L14.42 94.46 L14.42 108.87 L8.45 108.87 L8.45 100.42 L0 100.42 L0 94.46 Z" class="st1"/>
			</g>
			<g id="shape3107-4" transform="translate(2.80775E-13,-42.2886)">
				<title>Sheet.3107</title>
				<path d="M5.97 108.87 L0 108.87 L0 94.46 L14.42 94.46 L14.42 100.42 L5.97 100.42 L5.97 108.87 Z" class="st1"/>
			</g>
			<g id="shape3108-6" transform="translate(42.2741,2.84217E-13)">
				<title>Sheet.3108</title>
				<path d="M8.45 94.46 L14.42 94.46 L14.42 108.87 L0 108.87 L0 102.91 L8.45 102.91 L8.45 94.46 Z" class="st1"/>
			</g>
			<g id="shape3109-8" transform="translate(0.00057756,2.84217E-13)">
				<title>Sheet.3109</title>
				<path d="M0 108.87 L0 94.46 L5.97 94.46 L5.97 102.91 L14.42 102.91 L14.42 108.87 L0 108.87 Z" class="st1"/>
			</g>
			<g id="shape3110-10" transform="translate(11.442,-8.51507)">
				<title>Sheet.3110</title>
				<path d="M0 108.87 C0 99.42 7.65 91.78 17.11 91.78 C26.57 91.78 34.22 99.42 34.22 108.87 L0 108.87 Z" class="st2"/>
			</g>
			<g id="shape3111-12" transform="translate(18.9669,-30.2348)">
				<title>Sheet.3111</title>
				<path d="M19.14 99.31 C19.14 104.58 14.85 108.87 9.57 108.87 C4.29 108.87 0 104.58 0 99.31 C0 94.03 4.29 89.75 9.57
							 89.75 C14.85 89.75 19.14 94.03 19.14 99.31 Z" class="st2"/>
			</g>
		</g>
	</g>
</svg>
