<?xml version="1.0" encoding="UTF-8" standalone="no"?>
<!DOCTYPE svg PUBLIC "-//W3C//DTD SVG 1.1//EN" "http://www.w3.org/Graphics/SVG/1.1/DTD/svg11.dtd">
<!-- Generated by Microsoft Visio, SVG Export Cognitive Services Form Recogniser.svg Page-1 -->
<svg xmlns="http://www.w3.org/2000/svg" xmlns:xlink="http://www.w3.org/1999/xlink" xmlns:ev="http://www.w3.org/2001/xml-events"
		width="1.06551in" height="1.47793in" viewBox="0 0 76.7166 106.411" xml:space="preserve" color-interpolation-filters="sRGB"
		class="st2">
	<style type="text/css">
	<![CDATA[
		.st1 {fill:#0078d4;stroke:none;stroke-linecap:butt;stroke-width:10.0328}
		.st2 {fill:none;fill-rule:evenodd;font-size:12px;overflow:visible;stroke-linecap:square;stroke-miterlimit:3}
	]]>
	</style>

	<g>
		<title>Page-1</title>
		<g id="group3161-1" transform="translate(10.0328,-39.685)">
			<title>Cognitive Services Form Recogniser</title>
			<g id="shape3162-2" transform="translate(30.0313,-18.6452)">
				<title>Sheet.3162</title>
				<path d="M4.84 101.55 L0 101.55 L0 106.41 L4.84 106.41 L4.84 101.55 Z" class="st1"/>
			</g>
			<g id="shape3163-4" transform="translate(30.0313,-9.8515)">
				<title>Sheet.3163</title>
				<path d="M4.84 101.55 L0 101.55 L0 106.41 L4.84 106.41 L4.84 101.55 Z" class="st1"/>
			</g>
			<g id="shape3164-6" transform="translate(37.9917,-18.6452)">
				<title>Sheet.3164</title>
				<path d="M4.84 101.55 L0 101.55 L0 106.41 L4.84 106.41 L4.84 101.55 Z" class="st1"/>
			</g>
			<g id="shape3165-8" transform="translate(37.9917,-9.8515)">
				<title>Sheet.3165</title>
				<path d="M4.84 101.55 L0 101.55 L0 106.41 L4.84 106.41 L4.84 101.55 Z" class="st1"/>
			</g>
			<g id="shape3166-10" transform="translate(45.8225,-18.6452)">
				<title>Sheet.3166</title>
				<path d="M4.84 101.55 L0 101.55 L0 106.41 L4.84 106.41 L4.84 101.55 Z" class="st1"/>
			</g>
			<g id="shape3167-12" transform="translate(45.8225,-9.8515)">
				<title>Sheet.3167</title>
				<path d="M4.84 101.55 L0 101.55 L0 106.41 L4.84 106.41 L4.84 101.55 Z" class="st1"/>
			</g>
			<g id="shape3168-14" transform="translate(16.0509,-2.84217E-13)">
				<title>Sheet.3168</title>
				<path d="M29.1 73.26 C28.93 73.18 28.68 73.1 28.43 73.01 C26.32 72.29 21.98 71.28 14.61 71.66 C7.24 72.04 0 73.65
							 0 73.65 C0 73.65 1.64 83.5 3.83 88.44 C5.98 93.22 7.29 96.22 9.31 98.8 C12.89 103.7 17.69 106.41 23.63
							 106.41 C32.98 106.41 40.6 98.8 40.6 89.37 C40.64 81.93 35.84 75.55 29.1 73.26 ZM23.71 104.25 C15.54
							 104.25 8.93 97.62 8.93 89.46 C8.93 81.26 15.54 74.62 23.71 74.62 C31.88 74.62 38.49 81.26 38.49 89.46
							 C38.45 97.62 31.84 104.25 23.71 104.25 Z" class="st1"/>
			</g>
			<g id="shape3169-16" transform="translate(0,-6.71985)">
				<title>Sheet.3169</title>
				<path d="M41.15 64.64 L33.1 56.44 L0 56.44 L0 106.41 L23.04 106.41 C22.66 105.78 22.2 105.02 21.98 104.51 C21.86
							 104.25 21.73 103.96 21.65 103.7 L2.57 103.7 L2.57 58.93 L31.63 58.93 L31.63 65.87 L38.75 65.87 L38.75
							 76.31 L41.15 76.69 L41.15 64.64 Z" class="st1"/>
			</g>
			<g id="shape3170-18" transform="translate(8.13127,-39.3182)">
				<title>Sheet.3170</title>
				<path d="M24.85 106.41 L1.22 106.41 C0.55 106.41 0 105.86 0 105.18 C0 104.51 0.55 103.96 1.22 103.96 L24.85 103.96
							 C25.52 103.96 26.07 104.51 26.07 105.18 C26.07 105.86 25.52 106.41 24.85 106.41 Z" class="st1"/>
			</g>
			<g id="shape3171-20" transform="translate(8.13127,-15.3917)">
				<title>Sheet.3171</title>
				<path d="M1.22 103.96 C0.55 103.96 0 104.51 0 105.18 C0 105.86 0.55 106.41 1.22 106.41 L10.36 106.41 L9.35 103.92
							 L1.22 103.92 L1.22 103.96 Z" class="st1"/>
			</g>
			<g id="shape3172-22" transform="translate(8.13127,-23.465)">
				<title>Sheet.3172</title>
				<path d="M1.22 103.96 C0.55 103.96 0 104.51 0 105.18 C0 105.86 0.55 106.41 1.22 106.41 L7.62 106.41 L6.99 103.92
							 L1.22 103.92 L1.22 103.96 Z" class="st1"/>
			</g>
			<g id="shape3173-24" transform="translate(8.13127,-31.4562)">
				<title>Sheet.3173</title>
				<path d="M1.22 103.96 C0.55 103.96 0 104.51 0 105.18 C0 105.86 0.55 106.41 1.22 106.41 L5.9 106.41 L5.64 103.92 L1.22
							 103.92 L1.22 103.96 Z" class="st1"/>
			</g>
		</g>
	</g>
</svg>
