<?xml version="1.0" encoding="UTF-8" standalone="no"?>
<!DOCTYPE svg PUBLIC "-//W3C//DTD SVG 1.1//EN" "http://www.w3.org/Graphics/SVG/1.1/DTD/svg11.dtd">
<!-- Generated by Microsoft Visio, SVG Export Data Box Edge and Gateway.svg Page-1 -->
<svg xmlns="http://www.w3.org/2000/svg" xmlns:xlink="http://www.w3.org/1999/xlink" xmlns:ev="http://www.w3.org/2001/xml-events"
		width="1.57754in" height="1.34143in" viewBox="0 0 113.583 96.5826" xml:space="preserve" color-interpolation-filters="sRGB"
		class="st4">
	<style type="text/css">
	<![CDATA[
		.st1 {fill:url(#grad0-5);stroke:none;stroke-linecap:butt;stroke-width:28.4446}
		.st2 {fill:#50e6ff;stroke:none;stroke-linecap:butt;stroke-width:28.4446}
		.st3 {fill:#ffffff;stroke:none;stroke-linecap:butt;stroke-width:28.4446}
		.st4 {fill:none;fill-rule:evenodd;font-size:12px;overflow:visible;stroke-linecap:square;stroke-miterlimit:3}
	]]>
	</style>

	<defs id="Patterns_And_Gradients">
		<linearGradient id="grad0-5" x1="0" y1="0" x2="1" y2="0" gradientTransform="rotate(-90 0.5 0.5)">
			<stop offset="0" stop-color="#0078d4" stop-opacity="1"/>
			<stop offset="0.82" stop-color="#5ea0ef" stop-opacity="1"/>
		</linearGradient>
	</defs>
	<g>
		<title>Page-1</title>
		<g id="group2834-1" transform="translate(28.4453,-28.4453)">
			<title>Data Box Edge and Gateway</title>
			<g id="shape2835-2" transform="translate(3.74803,-3.04559)">
				<title>path11</title>
				<path d="M52.94 85.11 A11.874 11.5979 -180 0 0 42.61 73.94 A14.9606 14.6127 -180 0 0 27.18 59.94 A15.4016 15.0434
							 -180 0 0 12.41 69.73 A14.1102 13.7821 -180 0 0 0 83.08 A14.3937 14.059 -180 0 0 14.9 96.58 L16.22 96.58
							 L40.35 96.58 L41.01 96.58 A12 11.7209 -180 0 0 52.94 85.11 Z" class="st1"/>
			</g>
			<g id="shape2836-6">
				<title>path13</title>
				<path d="M0 84.92 A11.8425 11.5671 0 0 1 11.97 73.23 A11.874 11.5979 0 0 1 23.94 84.92 L23.94 96.58 L11.97 96.58
							 A11.8425 11.5671 0 0 1 0 84.92 Z" class="st2"/>
			</g>
			<g id="shape2837-8" transform="translate(4.18898,-4.09156)">
				<title>path15</title>
				<path d="M15.24 89.78 L15.24 88.06 L13.45 87.45 L13.01 86.28 L13.89 84.46 L13.89 84.28 L13.32 83.72 L12.66 82.99
							 L12.41 82.99 L10.65 83.91 L9.45 83.57 L8.66 81.63 L6.93 81.63 L6.33 83.39 L5.01 83.91 L2.96 82.95 L1.73
							 84.15 L1.73 84.37 L2.65 86.09 L2.11 87.38 L0 88.15 L0 89.88 L0.25 89.88 L2.11 90.49 L2.61 91.66 L1.67
							 93.66 L2.9 94.89 L3.15 94.89 L4.88 94.03 L6.11 94.52 L6.87 96.58 L8.63 96.58 L8.63 96.34 L9.23 94.49
							 L10.43 94 L12.5 94.95 L13.73 93.75 L13.73 93.51 L12.85 91.78 L13.2 90.58 L15.24 89.78 ZM7.84 91.38 A2.48819
							 2.43032 0 0 1 7.84 86.55 A2.45669 2.39956 0 0 1 10.33 88.95 A2.45669 2.39956 0 0 1 7.84 91.38 Z"
						class="st3"/>
			</g>
		</g>
	</g>
</svg>
