<?xml version="1.0" encoding="UTF-8" standalone="no"?>
<!DOCTYPE svg PUBLIC "-//W3C//DTD SVG 1.1//EN" "http://www.w3.org/Graphics/SVG/1.1/DTD/svg11.dtd">
<!-- Generated by Microsoft Visio, SVG Export DNS Zone (Private).svg Page-1 -->
<svg xmlns="http://www.w3.org/2000/svg" xmlns:xlink="http://www.w3.org/1999/xlink" xmlns:ev="http://www.w3.org/2001/xml-events"
		width="1.09075in" height="1.47195in" viewBox="0 0 78.5343 105.98" xml:space="preserve" color-interpolation-filters="sRGB"
		class="st5">
	<style type="text/css">
	<![CDATA[
		.st1 {fill:#0072c6;stroke:none;stroke-linecap:butt;stroke-width:12.24}
		.st2 {fill:#ffffff;fill-opacity:0.2;stroke:none;stroke-linecap:butt;stroke-width:12.24}
		.st3 {fill:#ffffff;fill-opacity:0.8;stroke:none;stroke-linecap:butt;stroke-width:12.24}
		.st4 {fill:#ffffff;stroke:none;stroke-linecap:butt;stroke-width:12.24}
		.st5 {fill:none;fill-rule:evenodd;font-size:12px;overflow:visible;stroke-linecap:square;stroke-miterlimit:3}
	]]>
	</style>

	<g>
		<title>Page-1</title>
		<g id="group2668-1" transform="translate(9.60135,-39.685)">
			<title>DNS Zone (Private)</title>
			<g id="group2669-2">
				<title>Sheet.2669</title>
				<g id="shape2670-3" transform="translate(2.63892,1.42109E-14)">
					<title>Sheet.2670</title>
					<ellipse cx="27.027" cy="78.9526" rx="27.027" ry="27.0275" class="st1"/>
				</g>
				<g id="shape2671-5" transform="translate(0,-7.91582)">
					<title>Sheet.2671</title>
					<path d="M10.55 105.98 C0 95.43 0 78.31 10.55 67.76 C21.11 57.2 38.22 57.2 48.78 67.76 L10.55 105.98 Z"
							class="st2"/>
				</g>
				<g id="shape2672-7" transform="translate(4.80108,-2.26599)">
					<title>Sheet.2672</title>
					<path d="M49.73 81.21 C49.73 75.64 47.84 70.27 44.36 65.9 L44.16 65.7 C44.06 65.6 44.06 65.5 43.96 65.4 L42.37
								 63.71 C37.7 58.93 31.53 56.35 24.86 56.35 L24.67 56.35 C18.1 56.45 12.03 58.93 7.36 63.61 L5.67
								 65.4 C5.57 65.5 5.57 65.6 5.47 65.7 L5.27 65.8 A25.347 25.3475 -180 0 0 0 81.21 C0 86.78 1.89 92.15
								 5.37 96.53 L5.57 96.73 C5.67 96.83 5.67 96.93 5.77 97.03 L7.36 98.72 C12.03 103.39 18.1 105.98 24.67
								 105.98 L24.86 105.98 A24.6886 24.6891 -180 0 0 42.37 98.72 L43.96 96.93 C44.06 96.83 44.06 96.73
								 44.16 96.63 L44.36 96.43 C47.84 92.25 49.73 86.78 49.73 81.21 ZM39.68 65 C39.58 65 39.49 65.1 39.39
								 65.1 C39.19 65.2 38.99 65.3 38.89 65.3 C38.49 65.5 37.99 65.6 37.5 65.8 C37.4 65.8 37.3 65.9 37.2
								 65.9 C36.6 66.1 36.1 66.2 35.51 66.39 C35.41 66.39 35.21 66.49 35.11 66.49 C34.21 64.11 33.12 62.02
								 31.83 60.43 C34.71 61.32 37.4 62.91 39.68 65 ZM24.67 59.23 L24.77 59.23 C27.45 59.23 30.24 62.12
								 32.22 67.09 C29.94 67.49 27.45 67.69 24.86 67.69 C22.28 67.69 19.69 67.49 17.31 67.09 C19.2 62.22
								 21.98 59.33 24.67 59.23 ZM17.6 60.53 C16.41 62.12 15.32 64.11 14.42 66.49 L14.22 66.49 C13.63 66.3
								 13.03 66.2 12.53 66 C12.43 66 12.33 65.9 12.23 65.9 C11.84 65.7 11.34 65.5 10.94 65.3 C10.74 65.2
								 10.64 65.2 10.44 65.1 C10.34 65 10.24 65 10.05 64.9 C12.33 63.01 14.82 61.42 17.6 60.53 ZM10.05
								 97.43 C10.14 97.43 10.24 97.33 10.34 97.33 C10.54 97.23 10.64 97.23 10.84 97.13 C11.24 96.93 11.74
								 96.83 12.23 96.63 C12.33 96.63 12.43 96.53 12.53 96.53 C13.13 96.33 13.63 96.23 14.22 96.03 L14.42
								 96.03 C15.32 98.32 16.41 100.41 17.6 102 C14.82 101.01 12.23 99.42 10.05 97.43 ZM24.77 103.2 L24.67
								 103.2 C21.98 103.1 19.2 100.31 17.31 95.44 C19.69 95.04 22.28 94.84 24.86 94.84 C27.45 94.84 29.84
								 95.04 32.22 95.44 C30.34 100.31 27.45 103.2 24.77 103.2 ZM31.83 102 C33.12 100.41 34.21 98.32 35.11
								 95.93 C35.21 95.93 35.41 96.03 35.51 96.03 C36.1 96.23 36.7 96.33 37.2 96.53 C37.3 96.53 37.4 96.63
								 37.5 96.63 C37.99 96.83 38.39 96.93 38.89 97.13 C39.09 97.23 39.19 97.23 39.39 97.33 C39.49 97.33
								 39.58 97.43 39.78 97.53 C37.4 99.52 34.71 101.11 31.83 102 ZM41.87 95.14 C41.57 95.14 41.38 95.04
								 41.08 94.94 C40.78 94.84 40.38 94.64 40.08 94.54 C39.98 94.54 39.88 94.44 39.78 94.44 C38.59 93.95
								 37.3 93.65 36 93.25 C36.3 92.06 36.6 90.86 36.8 89.67 L33.82 89.67 C33.62 90.76 33.42 91.76 33.12
								 92.65 C30.53 92.15 27.75 91.96 24.86 91.96 C21.88 91.96 19.1 92.25 16.41 92.75 C16.11 91.76 15.91
								 90.76 15.71 89.67 L12.73 89.67 C12.93 90.96 13.23 92.15 13.53 93.35 C12.33 93.65 11.14 94.04 10.05
								 94.44 C9.95 94.54 9.75 94.54 9.65 94.64 C9.35 94.74 8.95 94.94 8.65 95.04 C8.45 95.04 8.16 95.14
								 7.96 95.24 C4.97 91.66 3.28 87.18 2.98 82.61 L5.47 82.61 L5.47 79.72 L2.98 79.72 C3.28 75.15 4.97
								 70.77 7.86 67.29 L7.96 67.19 C8.16 67.29 8.45 67.39 8.65 67.49 C9.05 67.69 9.35 67.79 9.75 67.99
								 C9.85 67.99 9.95 68.09 10.05 68.09 C11.14 68.48 12.33 68.88 13.63 69.18 C13.33 70.27 13.13 71.37
								 12.93 72.46 L15.91 72.46 C16.11 71.57 16.31 70.57 16.51 69.78 C19.2 70.27 22.08 70.57 24.96 70.57
								 C27.85 70.57 30.63 70.27 33.22 69.88 C33.42 70.67 33.62 71.57 33.82 72.56 L36.8 72.56 C36.6 71.47
								 36.4 70.37 36.1 69.28 C37.4 68.98 38.59 68.58 39.78 68.09 C39.88 68.09 40.08 67.99 40.18 67.99 C40.58
								 67.89 40.88 67.69 41.28 67.59 C41.47 67.49 41.77 67.39 41.97 67.29 C44.86 70.87 46.65 75.25 46.94
								 79.82 L43.96 79.82 L43.96 82.71 L46.94 82.71 C46.45 87.18 44.76 91.66 41.87 95.14 Z" class="st3"/>
				</g>
				<g id="shape2673-9" transform="translate(12.7459,-20.3442)">
					<title>Sheet.2673</title>
					<path d="M10.67 99.14 C10.67 100.32 10.52 101.33 10.21 102.16 C9.9 103 9.46 103.68 8.89 104.21 C8.31 104.74 7.61
								 105.13 6.79 105.38 C5.96 105.63 4.98 105.75 3.84 105.75 L0.77 105.75 a0.819459 0.819474 0 0 1 -0.551351
								 -0.192436 C0.07 105.43 0 105.22 0 104.93 L0 93.73 C0 93.44 0.07 93.23 0.22 93.1 a0.81081 0.810825
								 0 0 1 0.551351 -0.193517 L4.07 92.91 C5.22 92.91 6.19 93.04 6.98 93.31 C7.78 93.58 8.45 93.97 9
								 94.5 A5.12432 5.12442 0 0 1 10.25 96.45 C10.53 97.22 10.67 98.12 10.67 99.14 ZM7.97 99.23 A6.43243
								 6.43255 -180 0 0 7.76 97.53 A3.62162 3.62169 -180 0 0 7.07 96.17 A3.17405 3.17411 -180 0 0 5.86
								 95.27 C5.37 95.06 4.72 94.95 3.92 94.95 L2.6 94.95 L2.6 103.69 L3.96 103.69 C4.67 103.69 5.28 103.6
								 5.77 103.41 C6.26 103.22 6.67 102.94 6.99 102.57 C7.32 102.2 7.57 101.73 7.73 101.17 C7.89 100.62
								 7.97 99.97 7.97 99.23 ZM23.41 104.84 a0.908107 0.908124 0 0 1 -0.294054 0.704878 a0.806486 0.806501
								 0 0 1 -0.316756 0.172976 A1.29838 1.2984 0 0 1 22.43 105.77 L21.32 105.77 C21.08 105.77 20.89 105.75
								 20.71 105.7 A1.18919 1.18921 0 0 1 20.25 105.45 A2.20648 2.20653 0 0 1 19.84 104.96 A8.98053 8.9807
								 0 0 1 19.39 104.15 L16.19 98.14 C16.01 97.78 15.82 97.4 15.63 96.98 A20.6292 20.6296 0 0 1 15.11
								 95.77 L15.09 95.77 A48.8356 48.8366 0 0 1 15.17 98.66 L15.17 105.38 a0.307027 0.307033 0 0 1 -0.0551351
								 0.179463 a0.411891 0.411899 0 0 1 -0.189189 0.134056 C14.84 105.73 14.72 105.76 14.56 105.78 A4.55675
								 4.55684 0 0 1 13.98 105.81 C13.75 105.81 13.55 105.8 13.4 105.78 C13.25 105.76 13.13 105.73 13.05
								 105.7 a0.371892 0.371899 0 0 1 -0.179459 -0.134056 a0.336216 0.336222 0 0 1 -0.0497297 -0.179463
								 L12.82 93.84 C12.82 93.53 12.91 93.29 13.09 93.14 a0.999999 1.00002 0 0 1 0.67027 -0.233518 L15.16
								 92.9 C15.41 92.9 15.62 92.92 15.79 92.97 C15.97 93.01 16.12 93.08 16.26 93.18 C16.39 93.28 16.52
								 93.42 16.64 93.59 C16.76 93.77 16.88 93.99 17 94.24 L19.51 98.94 C19.65 99.23 19.8 99.51 19.94 99.78
								 C20.08 100.05 20.22 100.33 20.35 100.6 L20.74 101.41 C20.86 101.68 20.98 101.94 21.1 102.21 L21.11
								 102.21 A64.4194 64.4206 0 0 1 21.06 99.32 L21.06 93.29 C21.06 93.23 21.07 93.17 21.11 93.11 a0.464864
								 0.464873 0 0 1 0.198919 -0.138381 C21.4 92.93 21.53 92.91 21.68 92.89 C21.83 92.87 22.03 92.87 22.26
								 92.87 C22.49 92.87 22.68 92.87 22.83 92.89 C22.98 92.91 23.1 92.93 23.18 92.97 C23.26 93.01 23.32
								 93.06 23.36 93.11 C23.39 93.17 23.41 93.23 23.41 93.29 L23.41 104.84 L23.41 104.84 ZM33.83 101.9
								 C33.83 102.58 33.7 103.17 33.45 103.68 A3.6681 3.66817 0 0 1 32.43 104.95 A4.46162 4.4617 0 0 1
								 30.92 105.72 A6.42161 6.42174 0 0 1 29.07 105.98 C28.63 105.98 28.22 105.94 27.84 105.87 A7.08864
								 7.08878 0 0 1 26.83 105.61 A4.28973 4.28981 0 0 1 26.1 105.28 A2.09621 2.09625 0 0 1 25.68 104.99
								 a0.756756 0.75677 0 0 1 -0.183784 -0.371899 A3.45081 3.45087 0 0 1 25.44 103.91 C25.44 103.71 25.44
								 103.54 25.46 103.4 C25.47 103.26 25.49 103.15 25.52 103.06 a0.37081 0.370817 0 0 1 0.118919 -0.183787
								 a0.290811 0.290816 0 0 1 0.174054 -0.0551361 C25.91 102.82 26.04 102.88 26.21 102.99 C26.38 103.09
								 26.59 103.22 26.86 103.35 C27.12 103.48 27.44 103.6 27.81 103.71 C28.17 103.82 28.6 103.87 29.08
								 103.87 A2.91892 2.91897 -180 0 0 29.93 103.76 C30.18 103.68 30.4 103.58 30.57 103.44 C30.75 103.3
								 30.88 103.13 30.98 102.92 C31.07 102.72 31.12 102.49 31.12 102.24 C31.12 101.94 31.04 101.69 30.88
								 101.49 A2.36432 2.36437 -180 0 0 30.26 100.93 A6.36432 6.36444 -180 0 0 29.39 100.47 C29.06 100.33
								 28.73 100.18 28.38 100.02 A9.23242 9.2326 0 0 1 27.38 99.48 C27.06 99.28 26.77 99.04 26.51 98.75
								 A3.44 3.44006 0 0 1 25.89 97.76 C25.73 97.37 25.65 96.91 25.65 96.37 C25.65 95.76 25.77 95.22 26
								 94.75 A3.35135 3.35141 0 0 1 26.92 93.59 C27.31 93.28 27.76 93.05 28.29 92.9 C28.82 92.75 29.38
								 92.67 29.96 92.67 A6.15134 6.15146 0 0 1 31.73 92.93 C31.99 93.01 32.23 93.1 32.43 93.2 C32.64 93.3
								 32.78 93.38 32.84 93.45 a0.728648 0.728662 0 0 1 0.134054 0.168652 C33 93.66 33.02 93.72 33.03 93.8
								 C33.05 93.87 33.06 93.97 33.07 94.09 A7.80324 7.80338 0 0 1 33.06 95.01 A1.95027 1.95031 0 0 1 33.01
								 95.33 a0.4 0.400007 0 0 1 -0.0994594 0.189193 a0.246486 0.246491 0 0 1 -0.174054 0.0594605 C32.67
								 95.58 32.55 95.54 32.39 95.44 C32.23 95.35 32.04 95.25 31.81 95.14 A5.75675 5.75686 -180 0 0 31
								 94.84 A3.53837 3.53844 -180 0 0 30 94.71 C29.72 94.71 29.47 94.74 29.26 94.81 A1.50378 1.50381 -180
								 0 0 28.73 95.1 A1.13513 1.13516 -180 0 0 28.41 95.54 A1.45081 1.45084 -180 0 0 28.3 96.09 C28.3
								 96.37 28.38 96.62 28.54 96.83 C28.69 97.04 28.9 97.22 29.16 97.38 C29.42 97.55 29.72 97.7 30.05
								 97.84 C30.38 97.98 30.72 98.13 31.07 98.29 C31.41 98.45 31.75 98.63 32.08 98.83 C32.41 99.04 32.7
								 99.28 32.96 99.56 C33.22 99.84 33.43 100.17 33.59 100.55 C33.75 100.94 33.83 101.38 33.83 101.9
								 Z" class="st4"/>
				</g>
			</g>
		</g>
	</g>
</svg>
