<?xml version="1.0" encoding="UTF-8" standalone="no"?>
<!DOCTYPE svg PUBLIC "-//W3C//DTD SVG 1.1//EN" "http://www.w3.org/Graphics/SVG/1.1/DTD/svg11.dtd">
<!-- Generated by Microsoft Visio, SVG Export ExpressRoute Connection.svg Page-1 -->
<svg xmlns="http://www.w3.org/2000/svg" xmlns:xlink="http://www.w3.org/1999/xlink" xmlns:ev="http://www.w3.org/2001/xml-events"
		width="0.944882in" height="1.41732in" viewBox="0 0 68.0315 102.047" xml:space="preserve" color-interpolation-filters="sRGB"
		class="st3">
	<style type="text/css">
	<![CDATA[
		.st1 {fill:#b8d432;stroke:none;stroke-linecap:butt;stroke-width:0.938305}
		.st2 {fill:#59b4d9;stroke:none;stroke-linecap:butt;stroke-width:0.938305}
		.st3 {fill:none;fill-rule:evenodd;font-size:12px;overflow:visible;stroke-linecap:square;stroke-miterlimit:3}
	]]>
	</style>

	<g>
		<title>Page-1</title>
		<g id="group2498-1" transform="translate(5.66929,-39.685)">
			<title>ExpressRoute Connection</title>
			<g id="group2499-2">
				<title>g8</title>
				<g id="shape2500-3" transform="translate(13.8331,-11.1118)">
					<title>path4</title>
					<path d="M29.03 71.32 L25.29 67.58 L13.15 79.82 L25.29 92.07 L29.03 88.55 L20.75 80.16 L29.03 71.32 ZM0 81.64
								 L8.28 89.91 L0 98.31 L3.74 102.05 L15.87 89.8 L3.74 77.56 L0 81.64 Z" class="st1"/>
				</g>
				<g id="shape2501-5">
					<title>path6</title>
					<path d="M28.35 45.35 C12.59 45.35 0 58.28 0 73.7 C0 89.46 12.93 102.05 28.35 102.05 C43.77 102.05 56.69 89.12
								 56.69 73.7 C56.69 58.28 44.11 45.35 28.35 45.35 ZM28.35 49.1 C41.95 49.1 52.95 60.09 52.95 73.7
								 C52.95 87.31 41.84 98.31 28.35 98.31 C14.85 98.31 3.74 87.19 3.74 73.7 C3.74 60.21 14.74 49.1 28.35
								 49.1 Z" class="st2"/>
				</g>
			</g>
		</g>
	</g>
</svg>
