<?xml version="1.0" encoding="UTF-8" standalone="no"?>
<!DOCTYPE svg PUBLIC "-//W3C//DTD SVG 1.1//EN" "http://www.w3.org/Graphics/SVG/1.1/DTD/svg11.dtd">
<!-- Generated by Microsoft Visio, SVG Export External Identitiy.svg Page-1 -->
<svg xmlns="http://www.w3.org/2000/svg" xmlns:xlink="http://www.w3.org/1999/xlink" xmlns:ev="http://www.w3.org/2001/xml-events"
		width="1.63333in" height="1.80092in" viewBox="0 0 117.6 129.666" xml:space="preserve" color-interpolation-filters="sRGB"
		class="st6">
	<style type="text/css">
	<![CDATA[
		.st1 {fill:#59b4d9;stroke:none;stroke-linecap:butt;stroke-width:33.288}
		.st2 {fill:#ffffff;stroke:none;stroke-linecap:butt;stroke-width:33.288}
		.st3 {fill:#0072c6}
		.st4 {stroke:none;stroke-linecap:butt;stroke-width:33.288}
		.st5 {fill:#ff8c00;stroke:none;stroke-linecap:butt;stroke-width:33.288}
		.st6 {fill:none;fill-rule:evenodd;font-size:12px;overflow:visible;stroke-linecap:square;stroke-miterlimit:3}
	]]>
	</style>

	<g>
		<title>Page-1</title>
		<g id="group2460-1" transform="translate(33.2881,-39.685)">
			<title>External Identitiy</title>
			<g id="group2461-2">
				<title> organizationalRelationships</title>
				<g id="shape2462-3" transform="translate(30.6419,-12.5546)">
					<title>Sheet.2462</title>
					<path d="M20.38 127.3 A2.29239 2.34142 0 0 1 18.07 129.67 L2.31 129.67 A2.29239 2.34142 0 0 1 0 127.3 L0 100.8
								 A2.29239 2.34142 0 0 1 2.31 98.44 L17.97 98.44 A2.29239 2.34142 0 0 1 20.29 100.8 L20.29 127.3 L20.38
								 127.3 Z" class="st1"/>
				</g>
				<g id="shape2463-5" transform="translate(34.3469,-22.0167)">
					<title>Sheet.2463</title>
					<path d="M0 112.63 L5.56 112.63 L5.56 119.26 L0 119.26 L0 112.63 ZM7.41 112.63 L12.97 112.63 L12.97 119.26 L7.41
								 119.26 L7.41 112.63 ZM0 123.04 L5.56 123.04 L5.56 129.67 L0 129.67 L0 123.04 ZM7.41 123.04 L12.97
								 123.04 L12.97 129.67 L7.41 129.67 L7.41 123.04 Z" class="st2"/>
				</g>
				<g id="shape2464-7" transform="translate(0,-12.5546)">
					<title>Sheet.2464</title>
					<path d="M20.38 127.3 A2.29239 2.34142 0 0 1 18.07 129.67 L2.32 129.67 A2.29239 2.34142 0 0 1 0 127.3 L0 100.8
								 A2.29239 2.34142 0 0 1 2.32 98.44 L17.97 98.44 A2.29239 2.34142 0 0 1 20.29 100.8 L20.38 127.3 Z"
							class="st3"/>
					<path d="M20.38 127.3 A2.29239 2.34142 0 0 1 18.07 129.67 L2.32 129.67 A2.29239 2.34142 0 0 1 0 127.3 L0 100.8
								 A2.29239 2.34142 0 0 1 2.32 98.44 L17.97 98.44 A2.29239 2.34142 0 0 1 20.29 100.8" class="st4"/>
				</g>
				<g id="shape2465-10" transform="translate(3.70501,-22.0167)">
					<title>Sheet.2465</title>
					<path d="M0 112.63 L5.56 112.63 L5.56 119.26 L0 119.26 L0 112.63 ZM7.41 112.63 L12.97 112.63 L12.97 119.26 L7.41
								 119.26 L7.41 112.63 ZM0 123.04 L5.56 123.04 L5.56 129.67 L0 129.67 L0 123.04 ZM7.41 123.04 L12.97
								 123.04 L12.97 129.67 L7.41 129.67 L7.41 123.04 Z" class="st1"/>
				</g>
				<g id="shape2466-12" transform="translate(14.0679,0)">
					<title>Sheet.2466</title>
					<path d="M11.91 129.67 A11.4897 11.7354 -180 0 0 23.32 119.04 L19.9 119.04 A8.0178 8.18929 0 0 1 11.97 126.23
								 A7.70697 7.87181 0 0 1 5.78 123.09 L9.55 119 L0 119 L0 129.37 L3.44 125.63 A10.9901 11.2252 -180
								 0 0 11.91 129.67 ZM11.41 76.41 A7.69864 7.86331 0 0 1 17.59 79.56 L13.83 83.64 L23.37 83.64 L23.37
								 73.27 L19.93 77.01 A11.0096 11.245 -180 0 0 11.46 72.97 A11.4869 11.7326 -180 0 0 0.06 83.64 L3.47
								 83.64 A8.01502 8.18646 0 0 1 11.41 76.41 Z" class="st5"/>
				</g>
			</g>
		</g>
	</g>
</svg>
