<?xml version="1.0" encoding="UTF-8" standalone="no"?>
<!DOCTYPE svg PUBLIC "-//W3C//DTD SVG 1.1//EN" "http://www.w3.org/Graphics/SVG/1.1/DTD/svg11.dtd">
<!-- Generated by Microsoft Visio, SVG Export Fusion Group.svg Page-1 -->
<svg xmlns="http://www.w3.org/2000/svg" xmlns:xlink="http://www.w3.org/1999/xlink" xmlns:ev="http://www.w3.org/2001/xml-events"
		width="1.14157in" height="1.24795in" viewBox="0 0 82.1929 89.8524" xml:space="preserve" color-interpolation-filters="sRGB"
		class="st3">
	<style type="text/css">
	<![CDATA[
		.st1 {fill:#ea7600;stroke:none;stroke-linecap:butt;stroke-width:12.75}
		.st2 {fill:#757676;stroke:none;stroke-linecap:butt;stroke-width:12.75}
		.st3 {fill:none;fill-rule:evenodd;font-size:12px;overflow:visible;stroke-linecap:square;stroke-miterlimit:3}
	]]>
	</style>

	<g>
		<title>Page-1</title>
		<g id="group2380-1" transform="translate(12.75,-31.748)">
			<title>Fusion Group</title>
			<g id="group2381-2">
				<title>Sheet.2381</title>
				<g id="group2382-3" transform="translate(5.7424,-11.7019)">
					<title>Sheet.2382</title>
					<g id="shape2383-4" transform="translate(30.1246,0)">
						<title>Sheet.2383</title>
						<path d="M3.59 68.17 L0 71.9 L5.27 77.31 L7.02 79.01 L5.27 80.71 L0 86.13 L3.59 89.85 L14.28 79.01 L3.59
									 68.17 Z" class="st1"/>
					</g>
					<g id="shape2384-6" transform="translate(0,-0.0815872)">
						<title>Sheet.2384</title>
						<path d="M33.23 79.12 L22.35 68.38 L16.61 74.05 L10.88 68.39 L0 79.12 L10.88 89.85 L16.62 84.19 L22.36 89.85
									 L33.23 79.12 Z" class="st1"/>
					</g>
				</g>
				<g id="shape2385-8">
					<title>Sheet.2385</title>
					<path d="M8.01 44.5 L0 52.47 L0 81.88 L8.01 89.85 L11.21 85.78 L4.23 78.82 L4.23 55.13 L11.21 48.17 L8.01 44.5
								 ZM48.69 44.5 L56.69 52.47 L56.69 81.88 L48.69 89.85 L45.48 85.78 L52.47 78.82 L52.47 55.13 L45.48
								 48.17 L48.69 44.5 Z" class="st2"/>
				</g>
			</g>
		</g>
	</g>
</svg>
