<?xml version="1.0" encoding="UTF-8" standalone="no"?>
<!DOCTYPE svg PUBLIC "-//W3C//DTD SVG 1.1//EN" "http://www.w3.org/Graphics/SVG/1.1/DTD/svg11.dtd">
<!-- Generated by Microsoft Visio, SVG Export Host Group.svg Page-1 -->
<svg xmlns="http://www.w3.org/2000/svg" xmlns:xlink="http://www.w3.org/1999/xlink" xmlns:ev="http://www.w3.org/2001/xml-events"
		width="0.944882in" height="1.41732in" viewBox="0 0 68.0315 102.047" xml:space="preserve" color-interpolation-filters="sRGB"
		class="st6">
	<style type="text/css">
	<![CDATA[
		.st1 {fill:#198ab3;stroke:none;stroke-linecap:butt;stroke-width:0.75}
		.st2 {fill:#32bedd;stroke:none;stroke-linecap:butt;stroke-width:0.75}
		.st3 {fill:url(#grad0-10);stroke:none;stroke-linecap:butt;stroke-width:0.75}
		.st4 {fill:#b4ec36;stroke:none;stroke-linecap:butt;stroke-width:0.75}
		.st5 {fill:none;stroke:none;stroke-linecap:butt;stroke-width:0.75}
		.st6 {fill:none;fill-rule:evenodd;font-size:12px;overflow:visible;stroke-linecap:square;stroke-miterlimit:3}
	]]>
	</style>

	<defs id="Patterns_And_Gradients">
		<linearGradient id="grad0-10" x1="0" y1="0" x2="1" y2="0" gradientTransform="rotate(-90 0.5 0.5)">
			<stop offset="0" stop-color="#198ab3" stop-opacity="1"/>
			<stop offset="0.1" stop-color="#1c93bb" stop-opacity="1"/>
			<stop offset="0.7" stop-color="#2cc2e5" stop-opacity="1"/>
			<stop offset="1" stop-color="#32d4f5" stop-opacity="1"/>
		</linearGradient>
	</defs>
	<g>
		<title>Page-1</title>
		<g id="group2321-1" transform="translate(5.66929,-39.685)">
			<title>Host Group</title>
			<g id="group2322-2">
				<title>g39</title>
				<g id="shape2323-3" transform="translate(2.8777E-13,-21.1215)">
					<title>path17</title>
					<path d="M46.75 66.48 L2.54 66.48 A2.50495 2.27979 -180 0 0 0 68.76 L0 79.08 A2.54179 2.31331 -180 0 0 2.54 81.4
								 L46.75 81.4 A2.54179 2.31331 -180 0 0 49.29 79.08 L49.29 68.76 A2.54179 2.31331 -180 0 0 46.75 66.48
								 ZM46.75 87.13 L2.54 87.13 A2.50495 2.27979 -180 0 0 0 89.41 L0 99.73 A2.54179 2.31331 -180 0 0 2.54
								 102.05 L46.75 102.05 A2.54179 2.31331 -180 0 0 49.29 99.73 L49.29 89.41 A2.50495 2.27979 -180 0
								 0 46.75 87.13 Z" class="st1"/>
				</g>
				<g id="shape2324-5" transform="translate(28.8806,-7.37578)">
					<title>path19</title>
					<rect x="0" y="67.6493" width="3.68375" height="34.3979" class="st2"/>
				</g>
				<g id="shape2325-7" transform="translate(7.51485,-38.4211)">
					<title>path21</title>
					<path d="M47.08 88.37 L2.1 88.37 A2.09974 1.911 -180 0 0 -0 90.28 L0 100.34 A2.09974 1.911 -180 0 0 2.1 102.05
								 L47.08 102.05 A2.09974 1.911 -180 0 0 49.18 100.14 L49.18 90.08 A2.09974 1.911 -180 0 0 47.08 88.37
								 Z" class="st3"/>
				</g>
				<g id="group2326-11" transform="translate(48.6255,-40.6003)">
					<title>g27</title>
					<g id="shape2327-12" transform="translate(0,-6.06825)">
						<title>rect23</title>
						<path d="M0 101.54 a0.552575 0.502906 -180 0 0 0.552563 0.502894 L3.32 102.05 a0.552575 0.502906 -180 0 0
									 0.552563 -0.502894 L3.87 99.03 a0.552575 0.502906 -180 0 0 -0.552563 -0.502894 L0.55 98.53 a0.552575
									 0.502906 -180 0 0 -0.552563 0.502894 L0 101.54 Z" class="st4"/>
					</g>
					<g id="shape2328-14">
						<title>rect25</title>
						<path d="M0 101.54 a0.552575 0.502906 -180 0 0 0.552563 0.502894 L3.32 102.05 a0.552575 0.502906 -180 0 0
									 0.552563 -0.502894 L3.87 99.03 a0.552575 0.502906 -180 0 0 -0.552563 -0.502894 L0.55 98.53 a0.552575
									 0.502906 -180 0 0 -0.552563 0.502894 L0 101.54 Z" class="st4"/>
					</g>
				</g>
				<g id="shape2329-16" transform="translate(7.51485,-17.5678)">
					<title>path29</title>
					<path d="M47.08 88.17 L2.1 88.17 A2.09974 1.911 -180 0 0 0 90.08 L0 100.14 A2.09974 1.911 -180 0 0 2.1 102.05
								 L47.08 102.05 A2.09974 1.911 -180 0 0 49.18 100.14 L49.18 90.08 A2.09974 1.911 -180 0 0 47.08 88.17
								 Z" class="st5"/>
				</g>
				<g id="shape2330-18" transform="translate(25.1969,0)">
					<title>circle31</title>
					<ellipse cx="5.56246" cy="96.9848" rx="5.56246" ry="5.06247" class="st5"/>
				</g>
				<g id="shape2331-20" transform="translate(7.51485,-17.7689)">
					<title>path21-5</title>
					<path d="M47.08 88.37 L2.1 88.37 A2.09974 1.911 -180 0 0 0 90.28 L0 100.34 A2.09974 1.911 -180 0 0 2.1 102.05
								 L47.08 102.05 A2.09974 1.911 -180 0 0 49.18 100.14 L49.18 90.08 A2.09974 1.911 -180 0 0 47.08 88.37
								 Z" class="st3"/>
				</g>
				<g id="group2332-23" transform="translate(48.6255,-19.9481)">
					<title>g27-1</title>
					<g id="shape2333-24" transform="translate(0,-6.06825)">
						<title>rect23-9</title>
						<path d="M0 101.54 a0.552575 0.502906 -180 0 0 0.552563 0.502894 L3.32 102.05 a0.552575 0.502906 -180 0 0
									 0.552563 -0.502894 L3.87 99.03 a0.552575 0.502906 -180 0 0 -0.552563 -0.502894 L0.55 98.53 a0.552575
									 0.502906 -180 0 0 -0.552563 0.502894 L0 101.54 Z" class="st4"/>
					</g>
					<g id="shape2334-26">
						<title>rect25-4</title>
						<path d="M0 101.54 a0.552575 0.502906 -180 0 0 0.552563 0.502894 L3.32 102.05 a0.552575 0.502906 -180 0 0
									 0.552563 -0.502894 L3.87 99.03 a0.552575 0.502906 -180 0 0 -0.552563 -0.502894 L0.55 98.53 a0.552575
									 0.502906 -180 0 0 -0.552563 0.502894 L0 101.54 Z" class="st4"/>
					</g>
				</g>
			</g>
		</g>
	</g>
</svg>
