<?xml version="1.0" encoding="UTF-8" standalone="no"?>
<!DOCTYPE svg PUBLIC "-//W3C//DTD SVG 1.1//EN" "http://www.w3.org/Graphics/SVG/1.1/DTD/svg11.dtd">
<!-- Generated by Microsoft Visio, SVG Export Hunting.svg Page-1 -->
<svg xmlns="http://www.w3.org/2000/svg" xmlns:xlink="http://www.w3.org/1999/xlink" xmlns:ev="http://www.w3.org/2001/xml-events"
		width="1.31865in" height="1.60421in" viewBox="0 0 94.9429 115.503" xml:space="preserve" color-interpolation-filters="sRGB"
		class="st3">
	<style type="text/css">
	<![CDATA[
		.st1 {fill:#0072c6;stroke:none;stroke-linecap:butt;stroke-width:19.125}
		.st2 {fill:#ae0d1a;stroke:none;stroke-linecap:butt;stroke-width:19.125}
		.st3 {fill:none;fill-rule:evenodd;font-size:12px;overflow:visible;stroke-linecap:square;stroke-miterlimit:3}
	]]>
	</style>

	<g>
		<title>Page-1</title>
		<g id="group2309-1" transform="translate(19.125,-39.685)">
			<title>Hunting</title>
			<g id="group2310-2">
				<title>g8</title>
				<g id="shape2311-3" transform="translate(7.93701,-7.93701)">
					<title>path4</title>
					<path d="M20.41 74.68 A20.4094 20.4094 -180 1 0 20.41 115.5 A20.4094 20.4094 -180 0 0 20.41 74.68 ZM20.41 108.54
								 A13.5514 13.5514 0 0 1 20.41 81.45 A13.5514 13.5514 0 0 1 20.41 108.54 Z" class="st1"/>
				</g>
				<g id="shape2312-5">
					<title>path6</title>
					<path d="M55.78 86.24 L29.26 86.24 L29.26 59.72 a0.914402 0.914402 -180 1 0 -1.8288 7.10543E-15 L27.43 86.24
								 L0.91 86.24 a0.914402 0.914402 -180 1 0 -1.27676E-14 1.8288 L27.43 88.07 L27.43 114.59 a0.914402
								 0.914402 -180 1 0 1.8288 1.42109E-14 L29.26 88.07 L55.78 88.07 a0.914402 0.914402 -180 1 0 0 -1.8288
								 Z" class="st2"/>
				</g>
			</g>
		</g>
	</g>
</svg>
