<?xml version="1.0" encoding="UTF-8" standalone="no"?>
<!DOCTYPE svg PUBLIC "-//W3C//DTD SVG 1.1//EN" "http://www.w3.org/Graphics/SVG/1.1/DTD/svg11.dtd">
<!-- Generated by Microsoft Visio, SVG Export Intune Exchange On-Premises Access.svg Page-1 -->
<svg xmlns="http://www.w3.org/2000/svg" xmlns:xlink="http://www.w3.org/1999/xlink" xmlns:ev="http://www.w3.org/2001/xml-events"
		width="0.724851in" height="1.41732in" viewBox="0 0 52.1893 102.047" xml:space="preserve" color-interpolation-filters="sRGB"
		class="st3">
	<style type="text/css">
	<![CDATA[
		.st1 {fill:url(#grad0-5);stroke:none;stroke-linecap:butt;stroke-width:0.75}
		.st2 {fill:#f2f2f2;stroke:none;stroke-linecap:butt;stroke-width:0.75}
		.st3 {fill:none;fill-rule:evenodd;font-size:12px;overflow:visible;stroke-linecap:square;stroke-miterlimit:3}
	]]>
	</style>

	<defs id="Patterns_And_Gradients">
		<linearGradient id="grad0-5" x1="0" y1="0" x2="1" y2="0" gradientTransform="rotate(90 0.5 0.5)">
			<stop offset="0" stop-color="#5ea0ef" stop-opacity="1"/>
			<stop offset="0.18" stop-color="#559cec" stop-opacity="1"/>
			<stop offset="0.47" stop-color="#3c91e5" stop-opacity="1"/>
			<stop offset="0.84" stop-color="#1380da" stop-opacity="1"/>
			<stop offset="1" stop-color="#0078d4" stop-opacity="1"/>
		</linearGradient>
	</defs>
	<g>
		<title>Page-1</title>
		<g id="group2184-1" transform="translate(4.25197,-39.685)">
			<title>Intune Exchange On-Premises Access</title>
			<g id="shape2185-2">
				<title>Sheet.2185</title>
				<path d="M42.52 47.26 L42.52 100.15 A2.3811 1.86753 0 0 1 40.14 102.05 L2.42 102.05 A2.3811 1.86753 0 0 1 0 100.15
							 L0 47.26 A2.3811 1.86753 0 0 1 2.42 45.35 L40.1 45.35 A2.3811 1.86753 0 0 1 42.52 47.26 Z" class="st1"/>
			</g>
			<g id="shape2186-6" transform="translate(5.01732,-1.20056)">
				<title>a1bc77ea-5288-41a0-8f9a-2d282cf</title>
				<path d="M0.64 52.46 L7.74 52.46 a0.595276 0.466883 0 0 1 0.595276 0.466883 L8.33 59.93 a0.595276 0.466883 0 0 1
							 -0.595276 0.466883 L0.64 60.39 a0.637795 0.500232 0 0 1 -0.637795 -0.466883 L0 52.92 a0.637795 0.500232
							 0 0 1 0.637795 -0.466883 ZM12.8 52.46 L19.69 52.46 a0.595276 0.466883 0 0 1 0.595276 0.466883 L20.28
							 59.93 a0.595276 0.466883 0 0 1 -0.595276 0.466883 L12.8 60.39 a0.595276 0.466883 0 0 1 -0.595276 -0.466883
							 L12.2 52.92 a0.595276 0.466883 0 0 1 0.595276 -0.466883 ZM24.96 52.46 L31.85 52.46 a0.637795 0.500232
							 0 0 1 0.637795 0.466883 L32.49 59.93 a0.637795 0.500232 0 0 1 -0.637795 0.466883 L24.96 60.39 a0.595276
							 0.466883 0 0 1 -0.595276 -0.466883 L24.36 52.92 a0.595276 0.466883 0 0 1 0.595276 -0.466883 ZM0.64 65.16
							 L7.74 65.16 a0.595276 0.466883 0 0 1 0.595276 0.466883 L8.33 72.63 a0.637795 0.500232 0 0 1 -0.595276
							 0.500232 L0.64 73.13 a0.637795 0.500232 0 0 1 -0.637795 -0.500232 L0 65.63 a0.637795 0.500232 0 0 1
							 0.637795 -0.466883 ZM12.8 65.16 L19.69 65.16 a0.595276 0.466883 0 0 1 0.595276 0.466883 L20.28 72.63
							 a0.637795 0.500232 0 0 1 -0.595276 0.500232 L12.8 73.13 a0.637795 0.500232 0 0 1 -0.595276 -0.500232
							 L12.2 65.63 a0.595276 0.466883 0 0 1 0.595276 -0.466883 ZM24.96 65.16 L31.85 65.16 a0.637795 0.500232
							 0 0 1 0.637795 0.466883 L32.49 72.63 a0.637795 0.500232 0 0 1 -0.637795 0.500232 L24.96 73.13 a0.637795
							 0.500232 0 0 1 -0.595276 -0.500232 L24.36 65.63 a0.595276 0.466883 0 0 1 0.595276 -0.466883 ZM0.64 77.9
							 L7.74 77.9 a0.595276 0.466883 0 0 1 0.595276 0.466883 L8.33 85.37 a0.595276 0.466883 0 0 1 -0.595276
							 0.466883 L0.64 85.84 a0.637795 0.500232 0 0 1 -0.637795 -0.466883 L0 78.24 a0.637795 0.500232 0 0 1
							 0.637795 -0.333488 ZM12.8 77.9 L19.69 77.9 a0.595276 0.466883 0 0 1 0.807874 0.333488 L20.49 85.24 a0.595276
							 0.466883 0 0 1 -0.595276 0.466883 L12.8 85.71 a0.595276 0.466883 0 0 1 -0.595276 -0.466883 L12.2 78.24
							 a0.595276 0.466883 0 0 1 0.595276 -0.333488 ZM12.8 90.61 L19.69 90.61 a0.595276 0.466883 0 0 1 0.595276
							 0.466883 L20.28 101.58 a0.595276 0.466883 0 0 1 -0.595276 0.466883 L12.8 102.05 a0.595276 0.466883 0
							 0 1 -0.595276 -0.466883 L12.2 91.08 a0.595276 0.466883 0 0 1 0.595276 -0.466883 ZM24.96 77.9 L31.85
							 77.9 a0.637795 0.500232 0 0 1 0.637795 0.466883 L32.49 85.37 a0.637795 0.500232 0 0 1 -0.637795 0.466883
							 L24.96 85.84 a0.595276 0.466883 0 0 1 -0.595276 -0.466883 L24.36 78.24 a0.595276 0.466883 0 0 1 0.595276
							 -0.333488 Z" class="st2"/>
			</g>
		</g>
	</g>
</svg>
