<?xml version="1.0" encoding="UTF-8" standalone="no"?>
<!DOCTYPE svg PUBLIC "-//W3C//DTD SVG 1.1//EN" "http://www.w3.org/Graphics/SVG/1.1/DTD/svg11.dtd">
<!-- Generated by Microsoft Visio, SVG Export Intune.svg Page-1 -->
<svg xmlns="http://www.w3.org/2000/svg" xmlns:xlink="http://www.w3.org/1999/xlink" xmlns:ev="http://www.w3.org/2001/xml-events"
		width="1.72945in" height="1.67575in" viewBox="0 0 124.52 120.654" xml:space="preserve" color-interpolation-filters="sRGB"
		class="st7">
	<style type="text/css">
	<![CDATA[
		.st1 {fill:url(#grad0-5);stroke:none;stroke-linecap:butt;stroke-width:33.9138}
		.st2 {fill:#ffffff;stroke:none;stroke-linecap:butt;stroke-width:33.9138}
		.st3 {fill:url(#grad0-11);stroke:none;stroke-linecap:butt;stroke-width:33.9138}
		.st4 {fill:#32bedd;stroke:none;stroke-linecap:butt;stroke-width:33.9138}
		.st5 {fill:url(#grad0-19);stroke:none;stroke-linecap:butt;stroke-width:33.9138}
		.st6 {fill:#0078d4;stroke:none;stroke-linecap:butt;stroke-width:33.9138}
		.st7 {fill:none;fill-rule:evenodd;font-size:12px;overflow:visible;stroke-linecap:square;stroke-miterlimit:3}
	]]>
	</style>

	<defs id="Patterns_And_Gradients">
		<linearGradient id="grad0-5" x1="0" y1="0" x2="1" y2="0" gradientTransform="rotate(-90 0.5 0.5)">
			<stop offset="0" stop-color="#0078d4" stop-opacity="1"/>
			<stop offset="0.82" stop-color="#5ea0ef" stop-opacity="1"/>
		</linearGradient>
		<linearGradient id="grad0-11" x1="0" y1="0" x2="1" y2="0" gradientTransform="rotate(-90 0.5 0.5)">
			<stop offset="0" stop-color="#1490df" stop-opacity="1"/>
			<stop offset="0.98" stop-color="#1f56a3" stop-opacity="1"/>
		</linearGradient>
		<linearGradient id="grad0-19" x1="0" y1="0" x2="1" y2="0" gradientTransform="rotate(-90 0.5 0.5)">
			<stop offset="0" stop-color="#d2ebff" stop-opacity="1"/>
			<stop offset="1" stop-color="#f0fffd" stop-opacity="1"/>
		</linearGradient>
	</defs>
	<g>
		<title>Page-1</title>
		<g id="group2253-1" transform="translate(33.9138,-35.7165)">
			<title>Intune</title>
			<g id="shape2254-2" transform="translate(0,-17.8649)">
				<title>rect21</title>
				<path d="M0 119.01 A1.66846 1.64809 -180 0 0 1.67 120.65 L48.72 120.65 A1.66846 1.64809 -180 0 0 50.39 119.01 L50.39
							 89.14 A1.66846 1.64809 -180 0 0 48.72 87.5 L1.67 87.5 A1.66846 1.64809 -180 0 0 -0 89.14 L0 119.01 Z"
						class="st1"/>
			</g>
			<g id="shape2255-6" transform="translate(2.80295,-20.6006)">
				<title>rect23</title>
				<path d="M0 119.73 a0.934337 0.922929 -180 0 0 0.934315 0.922908 L43.85 120.65 a0.934337 0.922929 -180 0 0 0.934315
							 -0.922908 L44.78 93.92 a0.934337 0.922929 -180 0 0 -0.934315 -0.922908 L0.93 93 a0.934337 0.922929 -180
							 0 0 -0.934315 0.922908 L0 119.73 Z" class="st2"/>
			</g>
			<g id="shape2256-8" transform="translate(12.4798,-5.04303)">
				<title>path25</title>
				<path d="M22.82 117.89 C17.82 117.13 17.62 113.57 17.65 108 L7.64 108 C7.64 113.73 7.44 117.29 2.47 117.89 A2.90305
							 2.86761 -180 0 0 0 120.65 L25.16 120.65 A2.93642 2.90057 -180 0 0 22.82 117.89 Z" class="st3"/>
			</g>
			<g id="shape2257-12" transform="translate(17.4058,2.70006E-13)">
				<title>path27</title>
				<path d="M38.22 84.96 L15.26 84.96 A7.7081 7.61399 -180 1 0 15.26 87.99 L17.63 87.99 L17.63 119.57 A1.10116 1.08771
							 -180 0 0 18.73 120.65 L38.19 120.65 A1.10116 1.08771 -180 0 0 39.29 119.57 L39.29 86.04 A1.10116 1.08771
							 -180 0 0 38.22 84.96 Z" class="st4"/>
			</g>
			<g id="shape2258-14" transform="translate(37.1057,-4.02124)">
				<title>rect29</title>
				<path d="M0 120.26 a0.40043 0.395541 -180 0 0 0.400421 0.395532 L17.18 120.65 a0.40043 0.395541 -180 0 0 0.400421
							 -0.395532 L17.59 92.37 a0.40043 0.395541 -180 0 0 -0.400421 -0.395532 L0.4 91.98 a0.40043 0.395541 -180
							 0 0 -0.400421 0.395532 L0 120.26 Z" class="st2"/>
			</g>
			<g id="shape2259-16" transform="translate(20.3214,-29.2364)">
				<title>circle31</title>
				<ellipse cx="4.87179" cy="115.842" rx="4.87179" ry="4.81231" class="st5"/>
			</g>
			<g id="shape2260-20" transform="translate(35.0368,-15.3043)">
				<title>path33</title>
				<path d="M12.95 116.45 L9.21 112.75 a0.20021 0.197766 -180 0 0 -0.333685 0.164805 L8.88 115.16 a0.20021 0.197766
							 0 0 1 -0.20021 0.197766 L0 115.36 L0 118.09 L8.68 118.09 a0.20021 0.197766 0 0 1 0.20021 0.197766 L8.88
							 120.57 a0.20021 0.197766 -180 0 0 0.333685 0 L12.95 117.04 a0.400421 0.395532 -180 0 0 -1.59872E-14
							 -0.593298 Z" class="st6"/>
			</g>
		</g>
	</g>
</svg>
