<?xml version="1.0" encoding="UTF-8" standalone="no"?>
<!DOCTYPE svg PUBLIC "-//W3C//DTD SVG 1.1//EN" "http://www.w3.org/Graphics/SVG/1.1/DTD/svg11.dtd">
<!-- Generated by Microsoft Visio, SVG Export Log Analytics Query Pack.svg Page-1 -->
<svg xmlns="http://www.w3.org/2000/svg" xmlns:xlink="http://www.w3.org/1999/xlink" xmlns:ev="http://www.w3.org/2001/xml-events"
		width="1.73185in" height="1.8108in" viewBox="0 0 124.693 130.378" xml:space="preserve" color-interpolation-filters="sRGB"
		class="st5">
	<style type="text/css">
	<![CDATA[
		.st1 {fill:#773adc;stroke:none;stroke-linecap:butt;stroke-width:34}
		.st2 {fill:url(#grad0-8);stroke:none;stroke-linecap:butt;stroke-width:34}
		.st3 {fill:url(#grad0-12);stroke:none;stroke-linecap:butt;stroke-width:34}
		.st4 {fill:#ffffff;stroke:none;stroke-linecap:butt;stroke-width:34}
		.st5 {fill:none;fill-rule:evenodd;font-size:12px;overflow:visible;stroke-linecap:square;stroke-miterlimit:3}
	]]>
	</style>

	<defs id="Patterns_And_Gradients">
		<linearGradient id="grad0-8" x1="0" y1="0" x2="1" y2="0" gradientTransform="rotate(-89.39027111272 0.5 0.5)">
			<stop offset="0" stop-color="#773adc" stop-opacity="1"/>
			<stop offset="0.155" stop-color="#7d43df" stop-opacity="1"/>
			<stop offset="0.41" stop-color="#8e5be6" stop-opacity="1"/>
			<stop offset="0.73" stop-color="#a981f2" stop-opacity="1"/>
			<stop offset="0.88" stop-color="#b796f9" stop-opacity="1"/>
		</linearGradient>
		<linearGradient id="grad0-12" x1="0" y1="0" x2="1" y2="0" gradientTransform="rotate(-90 0.5 0.5)">
			<stop offset="0" stop-color="#773adc" stop-opacity="1"/>
			<stop offset="0.87" stop-color="#b796f9" stop-opacity="1"/>
		</linearGradient>
	</defs>
	<g>
		<title>Page-1</title>
		<g id="group1973-1" transform="translate(34,-39.685)">
			<title>Log Analytics Query Pack</title>
			<g id="group1974-2">
				<title>Sheet.1974</title>
				<g id="shape1975-3" transform="translate(16.2016,-16.1372)">
					<title>Sheet.1975</title>
					<path d="M39.2 91.11 A4.40945 4.41337 -180 0 0 36.08 89.82 L4.41 89.82 A4.4315 4.43544 -180 0 0 -0 94.24 L0 125.96
								 A4.4315 4.43544 -180 0 0 4.41 130.38 L36.08 130.38 A4.40945 4.41337 -180 0 0 40.49 125.96 L40.49
								 94.23 A4.40945 4.41337 -180 0 0 39.2 91.11 Z" class="st1"/>
				</g>
				<g id="shape1976-5" transform="translate(7.68189,-7.60991)">
					<title>Sheet.1976</title>
					<path d="M39.2 91.11 A4.40945 4.41337 -180 0 0 36.09 89.82 L4.41 89.82 A4.4315 4.43544 -180 0 0 -0 94.24 L0 125.96
								 A4.4315 4.43544 -180 0 0 4.41 130.38 L36.1 130.38 A4.40945 4.41337 -180 0 0 40.51 125.96 L40.51
								 94.23 A4.41575 4.41968 -180 0 0 39.2 91.11 Z" class="st2"/>
				</g>
				<g id="shape1977-9">
					<title>Sheet.1977</title>
					<path d="M36.08 130.37 L4.41 130.37 A4.4315 4.43544 0 0 1 -0 125.96 L0 94.23 A4.4315 4.43544 0 0 1 4.41 89.82
								 L36.08 89.82 A4.40945 4.41337 0 0 1 40.49 94.23 L40.49 125.96 A4.40945 4.41337 0 0 1 36.08 130.38
								 L36.08 130.37 Z" class="st3"/>
				</g>
				<g id="shape1978-13" transform="translate(5.94646,-9.43516)">
					<title>Sheet.1978</title>
					<path d="M8.16 126.08 A1.04882 1.04975 -180 0 0 7.14 127.15 L7.14 129.3 A1.04882 1.04975 -180 0 0 8.16 130.38
								 L27.57 130.38 A1.05197 1.0529 -180 0 0 28.52 129.71 A1.04252 1.04345 -180 0 0 28.59 129.31 L28.59
								 127.16 A1.04567 1.0466 -180 0 0 27.57 126.09 L8.16 126.08 ZM0 127.12 A1.03937 1.04029 0 0 1 1.04
								 126.08 L3.25 126.08 A1.03937 1.04029 0 0 1 4.29 127.12 L4.29 129.33 A1.04252 1.04345 0 0 1 3.24
								 130.38 L1.04 130.38 A1.04252 1.04345 0 0 1 0 129.33 L0 127.12 L0 127.12 ZM8.16 117.39 A1.05197 1.0529
								 -180 0 0 7.14 118.46 L7.14 120.6 A1.04882 1.04975 -180 0 0 8.16 121.67 L27.57 121.67 A1.05197 1.0529
								 -180 0 0 28.52 121.01 A1.03937 1.04029 -180 0 0 28.59 120.6 L28.59 118.46 A1.04882 1.04975 -180
								 0 0 27.57 117.39 L8.17 117.39 L8.16 117.39 ZM0 118.43 A1.03937 1.04029 0 0 1 1.04 117.39 L3.25 117.39
								 A1.03937 1.04029 0 0 1 4.29 118.43 L4.29 120.64 A1.04252 1.04345 0 0 1 3.25 121.68 L1.04 121.68
								 A1.03937 1.04029 0 0 1 0 120.64 L0 118.43 ZM8.16 108.7 A1.04882 1.04975 -180 0 0 7.14 109.77 L7.14
								 111.91 A1.05197 1.0529 -180 0 0 8.16 112.98 L27.57 112.98 A1.04882 1.04975 -180 0 0 28.59 111.91
								 L28.59 109.77 A1.04567 1.0466 -180 0 0 27.57 108.7 L8.17 108.7 L8.16 108.7 ZM0 109.74 A1.03937 1.04029
								 0 0 1 1.04 108.7 L3.25 108.7 A1.04252 1.04345 0 0 1 4.29 109.74 L4.29 111.94 A1.04252 1.04345 0
								 0 1 3.25 112.99 L1.04 112.99 A1.04252 1.04345 0 0 1 0 111.94 L0 109.74 Z" class="st4"/>
				</g>
			</g>
		</g>
	</g>
</svg>
