<?xml version="1.0" encoding="UTF-8" standalone="no"?>
<!DOCTYPE svg PUBLIC "-//W3C//DTD SVG 1.1//EN" "http://www.w3.org/Graphics/SVG/1.1/DTD/svg11.dtd">
<!-- Generated by Microsoft Visio, SVG Export O365 - Access.svg Page-1 -->
<svg xmlns="http://www.w3.org/2000/svg" xmlns:xlink="http://www.w3.org/1999/xlink" xmlns:ev="http://www.w3.org/2001/xml-events"
		width="1.27938in" height="1.58457in" viewBox="0 0 92.1156 114.089" xml:space="preserve" color-interpolation-filters="sRGB"
		class="st9">
	<style type="text/css">
	<![CDATA[
		.st1 {fill:#881421;stroke:none;stroke-linecap:butt;stroke-width:17.7113}
		.st2 {fill:#af2031;stroke:none;stroke-linecap:butt;stroke-width:17.7113}
		.st3 {fill:#c94f60;stroke:none;stroke-linecap:butt;stroke-width:17.7113}
		.st4 {fill:#e08095;stroke:none;stroke-linecap:butt;stroke-width:17.7113}
		.st5 {fill:none;stroke:none;stroke-linecap:butt;stroke-width:17.7113}
		.st6 {fill:#000000;fill-opacity:0.098;stroke:none;stroke-linecap:butt;stroke-width:17.7113}
		.st7 {fill:#000000;fill-opacity:0.2;stroke:none;stroke-linecap:butt;stroke-width:17.7113}
		.st8 {fill:#ffffff;stroke:none;stroke-linecap:butt;stroke-width:17.7113}
		.st9 {fill:none;fill-rule:evenodd;font-size:12px;overflow:visible;stroke-linecap:square;stroke-miterlimit:3}
	]]>
	</style>

	<g>
		<title>Page-1</title>
		<g id="group1594-1" transform="translate(17.7113,-39.685)">
			<title>O365 - Access</title>
			<g id="shape1595-2" transform="translate(14.1732,-1.77165)">
				<title>path4-1</title>
				<path d="M0 93.72 L0 107.89 C0 111.31 9.52 114.09 21.26 114.09 C33 114.09 42.52 111.31 42.52 107.89 L42.52 93.72
							 L0 93.72 Z" class="st1"/>
			</g>
			<g id="shape1596-4" transform="translate(14.1732,-14.1732)">
				<title>path6-5</title>
				<path d="M0 93.72 L0 107.89 C0 111.31 9.52 114.09 21.26 114.09 C33 114.09 42.52 111.31 42.52 107.89 L42.52 93.72
							 L0 93.72 Z" class="st2"/>
			</g>
			<g id="shape1597-6" transform="translate(14.1732,-28.3465)">
				<title>path8</title>
				<path d="M0 93.72 L0 107.89 C0 111.31 9.52 114.09 21.26 114.09 C33 114.09 42.52 111.31 42.52 107.89 L42.52 93.72
							 L0 93.72 Z" class="st3"/>
			</g>
			<g id="shape1598-8" transform="translate(14.1732,-42.5197)">
				<title>ellipse10</title>
				<ellipse cx="21.2598" cy="107.888" rx="21.2598" ry="6.20079" class="st4"/>
			</g>
			<g id="shape1599-10">
				<title>rect12</title>
				<rect x="0" y="57.3964" width="56.6929" height="56.6929" class="st5"/>
			</g>
			<g id="shape1600-12" transform="translate(14.1732,-10.6299)">
				<title>path14</title>
				<path d="M15.35 80.43 L0 80.43 L0 114.09 L15.35 114.09 A2.3687 2.3687 -180 0 0 17.72 111.73 L17.72 82.79 A2.3687
							 2.3687 -180 0 0 15.35 80.43 Z" class="st6"/>
			</g>
			<g id="shape1601-14" transform="translate(14.1732,-8.85826)">
				<title>path16</title>
				<path d="M13.58 80.43 L0 80.43 L0 114.09 L13.58 114.09 A2.3687 2.3687 -180 0 0 15.94 111.73 L15.94 82.79 A2.3687
							 2.3687 -180 0 0 13.58 80.43 Z" class="st7"/>
			</g>
			<g id="shape1602-16" transform="translate(14.1732,-12.4016)">
				<title>path18</title>
				<path d="M13.58 83.97 L0 83.97 L0 114.09 L13.58 114.09 A2.3687 2.3687 -180 0 0 15.94 111.73 L15.94 86.33 A2.3687
							 2.3687 -180 0 0 13.58 83.97 Z" class="st7"/>
			</g>
			<g id="shape1603-18" transform="translate(14.1732,-12.4016)">
				<title>path20</title>
				<path d="M11.81 83.97 L0 83.97 L0 114.09 L11.81 114.09 A2.3687 2.3687 -180 0 0 14.17 111.73 L14.17 86.33 A2.3687
							 2.3687 -180 0 0 11.81 83.97 Z" class="st7"/>
			</g>
			<g id="shape1604-20" transform="translate(0,-14.1732)">
				<title>rect22</title>
				<path d="M0 111.73 A2.36167 2.36167 -180 0 0 2.36 114.09 L25.98 114.09 A2.36167 2.36167 -180 0 0 28.35 111.73 L28.35
							 88.1 A2.36167 2.36167 -180 0 0 25.98 85.74 L2.36 85.74 A2.36167 2.36167 -180 0 0 0 88.1 L0 111.73 Z"
						class="st2"/>
			</g>
			<g id="shape1605-22" transform="translate(5.66929,-19.4882)">
				<title>path24</title>
				<path d="M6.56 96.37 L10.56 96.37 L17.01 114.09 L13.22 114.09 L11.8 109.86 L5.16 109.86 L3.77 114.09 L0 114.09 L6.56
							 96.37 ZM10.95 107.13 L8.88 100.72 A8.23287 8.23287 0 0 1 8.5 99.28 L8.42 99.28 A8.30197 8.30197 0 0
							 1 8.05 100.76 L5.97 107.14 L10.95 107.13 Z" class="st8"/>
			</g>
		</g>
	</g>
</svg>
