<?xml version="1.0" encoding="UTF-8" standalone="no"?>
<!DOCTYPE svg PUBLIC "-//W3C//DTD SVG 1.1//EN" "http://www.w3.org/Graphics/SVG/1.1/DTD/svg11.dtd">
<!-- Generated by Microsoft Visio, SVG Export O365 - OneDrive.svg Page-1 -->
<svg xmlns="http://www.w3.org/2000/svg" xmlns:xlink="http://www.w3.org/1999/xlink" xmlns:ev="http://www.w3.org/2001/xml-events"
		width="1.34942in" height="1.13296in" viewBox="0 0 97.1581 81.5729" xml:space="preserve" color-interpolation-filters="sRGB"
		class="st5">
	<style type="text/css">
	<![CDATA[
		.st1 {fill:#0364b8;stroke:none;stroke-linecap:butt;stroke-width:18.6798}
		.st2 {fill:#0078d4;stroke:none;stroke-linecap:butt;stroke-width:18.6798}
		.st3 {fill:#1490df;stroke:none;stroke-linecap:butt;stroke-width:18.6798}
		.st4 {fill:#28a8ea;stroke:none;stroke-linecap:butt;stroke-width:18.6798}
		.st5 {fill:none;fill-rule:evenodd;font-size:12px;overflow:visible;stroke-linecap:square;stroke-miterlimit:3}
	]]>
	</style>

	<g>
		<title>Page-1</title>
		<g id="group1532-1" transform="translate(20.3325,-25.7953)">
			<title>O365 - OneDrive</title>
			<g id="group1533-2">
				<title>STYLE_COLOR</title>
				<g id="shape1534-3" transform="translate(13.1059,-19.5159)">
					<title>path4</title>
					<path d="M8.04 74.29 L8.04 74.29 L20.6 81.57 L28.08 78.52 L28.08 78.53 A12.1032 11.7207 0 0 1 32.89 77.56 C33.17
								 77.56 33.44 77.58 33.71 77.59 A18.6884 18.0978 -180 0 0 -0 72.14 C0.06 72.14 0.13 72.13 0.19 72.13
								 A14.8762 14.4061 0 0 1 8.04 74.29 Z" class="st1"/>
				</g>
				<g id="shape1535-5" transform="translate(-2.81775E-13,-6.20208)">
					<title>path6</title>
					<path d="M21.15 60.98 L21.15 60.98 A14.8762 14.4061 -180 0 0 13.3 58.82 C13.23 58.82 13.17 58.82 13.11 58.83
								 A14.9436 14.4713 -180 0 0 1.03 81.57 L12.1 77.06 L17.02 75.06 L27.98 70.59 L33.7 68.26 L21.15 60.98
								 Z" class="st2"/>
				</g>
				<g id="shape1536-7" transform="translate(33.7039,-6.18094)">
					<title>path8</title>
					<path d="M13.12 64.26 C12.84 64.24 12.57 64.23 12.3 64.23 A12.1032 11.7207 -180 0 0 7.48 65.19 L7.48 65.19 L0
								 68.24 L2.17 69.5 L9.28 73.62 L12.38 75.42 L22.99 81.57 A12.1469 11.7631 -180 0 0 13.12 64.26 L13.12
								 64.26 Z" class="st3"/>
				</g>
				<g id="shape1537-9" transform="translate(1.03328,0)">
					<title>path10</title>
					<path d="M45.05 69.24 L41.95 67.44 L34.84 63.32 L32.67 62.06 L26.95 64.39 L15.99 68.85 L11.07 70.86 L0 75.37
								 A14.9288 14.4571 -180 0 0 12.26 81.57 L44.97 81.57 A12.1435 11.7598 -180 0 0 55.66 75.39 L45.05
								 69.24 Z" class="st4"/>
				</g>
			</g>
		</g>
	</g>
</svg>
