<?xml version="1.0" encoding="UTF-8" standalone="no"?>
<!DOCTYPE svg PUBLIC "-//W3C//DTD SVG 1.1//EN" "http://www.w3.org/Graphics/SVG/1.1/DTD/svg11.dtd">
<!-- Generated by Microsoft Visio, SVG Export O365 - Project.svg Page-1 -->
<svg xmlns="http://www.w3.org/2000/svg" xmlns:xlink="http://www.w3.org/1999/xlink" xmlns:ev="http://www.w3.org/2001/xml-events"
		width="1.29964in" height="1.5947in" viewBox="0 0 93.5743 114.819" xml:space="preserve" color-interpolation-filters="sRGB"
		class="st9">
	<style type="text/css">
	<![CDATA[
		.st1 {fill:#33c481;stroke:none;stroke-linecap:butt;stroke-width:18.4407}
		.st2 {fill:#185c37;stroke:none;stroke-linecap:butt;stroke-width:18.4407}
		.st3 {fill:#21a366;stroke:none;stroke-linecap:butt;stroke-width:18.4407}
		.st4 {fill:#000000;fill-opacity:0.098;stroke:none;stroke-linecap:butt;stroke-width:18.4407}
		.st5 {fill:#000000;fill-opacity:0.2;stroke:none;stroke-linecap:butt;stroke-width:18.4407}
		.st6 {fill:#107c41;stroke:none;stroke-linecap:butt;stroke-width:18.4407}
		.st7 {fill:#f9f7f7;stroke:none;stroke-linecap:butt;stroke-width:18.4407}
		.st8 {fill:none;stroke:none;stroke-linecap:butt;stroke-width:18.4407}
		.st9 {fill:none;fill-rule:evenodd;font-size:12px;overflow:visible;stroke-linecap:square;stroke-miterlimit:3}
	]]>
	</style>

	<g>
		<title>Page-1</title>
		<g id="group1463-1" transform="translate(18.4407,-39.685)">
			<title>O365 - Project</title>
			<g id="group1464-2">
				<title>_32</title>
				<g id="shape1465-3" transform="translate(7.08661,-37.2047)">
					<title>path2</title>
					<path d="M2.24 98.87 L27.88 98.87 A2.23583 2.23583 90 0 1 30.12 101.11 L30.12 114.82 L0 114.82 L0 101.11 A2.23583
								 2.23583 90 0 1 2.24 98.87 Z" class="st1"/>
				</g>
				<g id="shape1466-5" transform="translate(19.4882,-3.54331)">
					<title>path4</title>
					<path d="M0 98.87 L34.97 98.87 A2.23583 2.23583 90 0 1 37.2 101.11 L37.2 112.58 A2.23583 2.23583 90 0 1 34.97
								 114.82 L2.24 114.82 A2.23583 2.23583 90 0 1 -0 112.58 L0 98.87 Z" class="st2"/>
				</g>
				<g id="shape1467-7" transform="translate(7.08661,-19.4882)">
					<title>path6</title>
					<path d="M0 97.1 L36.5 97.1 A2.48031 2.48031 90 0 1 38.98 99.58 L38.98 114.82 L2.48 114.82 A2.48031 2.48031 90
								 0 1 -0 112.34 L0 97.1 Z" class="st3"/>
				</g>
				<g id="shape1468-9" transform="translate(7.08661,-10.6299)">
					<title>path8</title>
					<path d="M12.4 104.19 L12.4 114.82 L22.44 114.82 A2.3687 2.3687 -90 0 0 24.8 112.46 L24.8 83.52 A2.3687 2.3687
								 -90 0 0 22.44 81.16 L0 81.16 L0 101.93 A2.25532 2.25531 -0 0 0 2.26 104.19 L12.4 104.19 Z"
							class="st4"/>
				</g>
				<g id="shape1469-11" transform="translate(7.08661,-8.85827)">
					<title>path10</title>
					<path d="M12.4 102.42 L12.4 114.82 L20.67 114.82 A2.3687 2.3687 -90 0 0 23.03 112.46 L23.03 83.52 A2.3687 2.3687
								 -90 0 0 20.67 81.16 L0 81.16 L0 100.16 A2.25532 2.25531 -0 0 0 2.26 102.42 L12.4 102.42 Z"
							class="st5"/>
				</g>
				<g id="shape1470-13" transform="translate(7.08661,-12.4016)">
					<title>path12</title>
					<path d="M12.4 105.96 L12.4 114.82 L20.67 114.82 A2.3687 2.3687 -90 0 0 23.03 112.46 L23.03 87.06 A2.3687 2.3687
								 -90 0 0 20.67 84.7 L0 84.7 L0 103.71 A2.25532 2.25531 -0 0 0 2.26 105.96 L12.4 105.96 Z"
							class="st5"/>
				</g>
				<g id="shape1471-15" transform="translate(7.08661,-12.4016)">
					<title>path14</title>
					<path d="M12.4 105.96 L12.4 114.82 L18.9 114.82 A2.3687 2.3687 -90 0 0 21.26 112.46 L21.26 87.06 A2.3687 2.3687
								 -90 0 0 18.9 84.7 L0 84.7 L0 103.71 A2.25532 2.25531 -0 0 0 2.26 105.96 L12.4 105.96 Z"
							class="st5"/>
				</g>
				<g id="shape1472-17" transform="translate(-2.89768E-13,-14.1732)">
					<title>rect16</title>
					<path d="M0 112.34 A2.36167 2.47884 -180 0 0 2.36 114.82 L25.98 114.82 A2.36167 2.47884 -180 0 0 28.35 112.34
								 L28.35 88.95 A2.36167 2.47884 -180 0 0 25.98 86.47 L2.36 86.47 A2.36167 2.47884 -180 0 0 -0 88.95
								 L0 112.34 Z" class="st6"/>
				</g>
				<g id="shape1473-19" transform="translate(7.16102,-19.5059)">
					<title>path18</title>
					<path d="M7.07 97.12 A7.37539 7.37539 90 0 1 11.95 98.54 A5.09882 5.09882 90 0 1 13.64 102.66 A4.83484 4.83484
								 90 0 1 12.81 105.47 A5.60728 5.60728 90 0 1 10.43 107.57 A8.09114 8.09114 90 0 1 6.85 108.32 L3.47
								 108.32 L3.47 114.82 L0 114.82 L0 97.12 L7.07 97.12 ZM3.47 105.41 L6.45 105.41 A3.88346 3.88346 -90
								 0 0 9.09 104.62 A1.94882 1.94882 -90 0 0 9.98 102.81 C9.98 100.85 8.84 99.87 6.56 99.87 L3.47 99.87
								 L3.47 105.41 Z" class="st7"/>
				</g>
				<g id="shape1474-21" transform="translate(1.71095E-06,0)">
					<title>path20</title>
					<rect x="0" y="58.1257" width="56.6929" height="56.6929" class="st8"/>
				</g>
			</g>
		</g>
	</g>
</svg>
