<?xml version="1.0" encoding="UTF-8" standalone="no"?>
<!DOCTYPE svg PUBLIC "-//W3C//DTD SVG 1.1//EN" "http://www.w3.org/Graphics/SVG/1.1/DTD/svg11.dtd">
<!-- Generated by Microsoft Visio, SVG Export Quickstart Center.svg Page-1 -->
<svg xmlns="http://www.w3.org/2000/svg" xmlns:xlink="http://www.w3.org/1999/xlink" xmlns:ev="http://www.w3.org/2001/xml-events"
		width="0.944882in" height="1.41732in" viewBox="0 0 68.0315 102.047" xml:space="preserve" color-interpolation-filters="sRGB"
		class="st9">
	<style type="text/css">
	<![CDATA[
		.st1 {fill:#ff8c00;stroke:none;stroke-linecap:butt;stroke-width:3.825}
		.st2 {fill:#dd5900;stroke:none;stroke-linecap:butt;stroke-width:3.825}
		.st3 {fill:#fcd116;stroke:none;stroke-linecap:butt;stroke-width:3.825}
		.st4 {fill:#ff8c00;fill-opacity:0.2;stroke:none;stroke-linecap:butt;stroke-width:3.825}
		.st5 {fill:#0072c6;stroke:none;stroke-linecap:butt;stroke-width:3.825}
		.st6 {fill:#ffffff;fill-opacity:0.6;stroke:none;stroke-linecap:butt;stroke-width:3.825}
		.st7 {fill:#ffffff;stroke:none;stroke-linecap:butt;stroke-width:3.825}
		.st8 {fill:#ff8c00;fill-opacity:0.4;stroke:none;stroke-linecap:butt;stroke-width:3.825}
		.st9 {fill:none;fill-rule:evenodd;font-size:12px;overflow:visible;stroke-linecap:square;stroke-miterlimit:3}
	]]>
	</style>

	<g>
		<title>Page-1</title>
		<g id="group1140-1" transform="translate(5.66929,-39.685)">
			<title>Quickstart Center</title>
			<g id="group1141-2">
				<title>Sheet.1141</title>
				<g id="shape1142-3" transform="translate(1.23965,-23.5704)">
					<title>Sheet.1142</title>
					<path d="M11.08 102.05 C11.08 102.05 4.67 97.22 0 98.63 C1.29 93.99 7.74 88.73 13.55 87.7 C20.38 88.48 21.57
								 89.68 21.57 89.68 L11.08 102.05 Z" class="st1"/>
				</g>
				<g id="shape1143-5" transform="translate(23.9978,-0.812173)">
					<title>Sheet.1143</title>
					<path d="M0 90.97 L12.37 80.47 C12.37 80.47 13.56 81.67 14.35 88.5 C13.31 94.31 8.05 100.75 3.41 102.05 C4.82
								 97.37 0 90.97 0 90.97 Z" class="st2"/>
				</g>
				<g id="shape1144-7" transform="translate(12.001,-12.0014)">
					<title>Sheet.1144</title>
					<path d="M44.69 57.36 C44.69 57.36 17.33 63.17 0 90.07 L11.97 102.05 C38.88 84.72 44.69 57.36 44.69 57.36 Z"
							class="st3"/>
				</g>
				<g id="shape1145-9" transform="translate(12.001,-12.0014)">
					<title>Sheet.1145</title>
					<path d="M44.69 57.36 C44.69 57.36 17.33 63.17 0 90.07 L11.97 102.05 C38.88 84.72 44.69 57.36 44.69 57.36 Z"
							class="st4"/>
				</g>
				<g id="shape1146-11" transform="translate(17.9885,-12.0014)">
					<title>Sheet.1146</title>
					<path d="M38.7 57.36 L0 96.06 L5.99 102.05 C32.89 84.72 38.7 57.36 38.7 57.36 Z" class="st2"/>
				</g>
				<g id="shape1147-13" transform="translate(13.507,-13.5074)">
					<title>Sheet.1147</title>
					<path d="M0 93.08 C13.49 73 32.33 64.84 39.42 62.63 C37.21 69.71 29.04 88.56 8.96 102.05 L0 93.08 Z"
							class="st1"/>
				</g>
				<g id="shape1148-15" transform="translate(40.8442,-40.8449)">
					<title>Sheet.1148</title>
					<path d="M15.85 86.2 C15.85 86.2 9.01 87.65 0 92.47 L9.58 102.05 C14.4 93.04 15.85 86.2 15.85 86.2 Z"
							class="st5"/>
				</g>
				<g id="shape1149-17">
					<title>Sheet.1149</title>
					<path d="M0 102.05 C0 102.05 0.01 87.67 12 78.07 L23.98 90.05 C14.38 102.04 0 102.05 0 102.05 Z" class="st1"/>
				</g>
				<g id="shape1150-19" transform="translate(4.05662,-4.052)">
					<title>Sheet.1150</title>
					<path d="M0 102.05 C0.34 98.65 2.51 90.48 9.62 83.8 L18.25 92.43 C11.55 99.57 3.39 101.71 0 102.05 Z"
							class="st3"/>
				</g>
				<g id="shape1151-21" transform="translate(8.29943,-8.29365)">
					<title>Sheet.1151</title>
					<path d="M0 102.05 C0.71 98.72 2.63 93.7 6.59 89.26 L12.79 95.45 C7.79 99.94 2.44 101.53 0 102.05 Z"
							class="st6"/>
				</g>
				<g id="shape1152-23" transform="translate(29.8095,-29.8103)">
					<title>Sheet.1152</title>
					<ellipse cx="6.16743" cy="95.8798" rx="6.16743" ry="6.16743" class="st7"/>
				</g>
				<g id="shape1153-25" transform="translate(31.3579,-31.3614)">
					<title>Sheet.1153</title>
					<ellipse cx="4.61786" cy="97.4294" rx="4.61786" ry="4.61786" class="st3"/>
				</g>
				<g id="shape1154-27" transform="translate(31.7912,-30.7161)">
					<title>Sheet.1154</title>
					<path d="M8.37 94.83 C9.45 97.14 8.45 99.89 6.14 100.97 C3.83 102.05 1.08 101.05 0 98.74 L8.37 94.83 Z"
							class="st8"/>
				</g>
				<g id="shape1155-29" transform="translate(11.5393,-11.5146)">
					<title>Sheet.1155</title>
					<path d="M4.28 100.16 C2.89 101.55 0 102.05 0 102.05 C0 102.05 0.61 99 1.86 97.74 L13.46 86.15 L15.87 88.57 L4.28
								 100.16 Z" class="st2"/>
				</g>
			</g>
		</g>
	</g>
</svg>
