<?xml version="1.0" encoding="UTF-8" standalone="no"?>
<!DOCTYPE svg PUBLIC "-//W3C//DTD SVG 1.1//EN" "http://www.w3.org/Graphics/SVG/1.1/DTD/svg11.dtd">
<!-- Generated by Microsoft Visio, SVG Export SAP HANA on Azure.svg Page-1 -->
<svg xmlns="http://www.w3.org/2000/svg" xmlns:xlink="http://www.w3.org/1999/xlink" xmlns:ev="http://www.w3.org/2001/xml-events"
		width="1.1274in" height="0.839291in" viewBox="0 0 81.1729 60.429" xml:space="preserve" color-interpolation-filters="sRGB"
		class="st4">
	<style type="text/css">
	<![CDATA[
		.st1 {fill:#0072c6;stroke:none;stroke-linecap:butt;stroke-width:12.24}
		.st2 {fill:#ffffff}
		.st3 {stroke:none;stroke-linecap:butt;stroke-width:12.24}
		.st4 {fill:none;fill-rule:evenodd;font-size:12px;overflow:visible;stroke-linecap:square;stroke-miterlimit:3}
	]]>
	</style>

	<g>
		<title>Page-1</title>
		<g id="group929-1" transform="translate(12.24,-19.8425)">
			<title>SAP HANA on Azure</title>
			<g id="group930-2">
				<title> Artboard 5</title>
				<g id="shape931-3" transform="translate(0,-0.00590428)">
					<title>Sheet.931</title>
					<path d="M0 60.43 L28.65 60.43 L56.69 32.09 L0 32.09 L0 60.43 Z" class="st1"/>
				</g>
				<g id="shape932-5" transform="translate(1.33228,-5.60789)">
					<title>Sheet.932</title>
					<path d="M31.39 43.59 L26.06 43.59 L26.06 56.26 L21.4 43.58 L16.78 43.58 L12.8 54.19 C12.38 51.51 9.62 50.59
								 7.44 49.9 C6 49.44 4.48 48.76 4.49 48.01 C4.51 47.39 5.31 46.82 6.91 46.91 A8.71417 8.71236 0 0
								 1 10.81 47.96 L12.66 44.74 A14.3882 14.3852 -180 0 0 6.62 43.3 L6.61 43.3 A7.33465 7.33312 -180
								 0 0 1.28 45.25 A4.49528 4.49434 -180 0 0 0 48.36 A4.17756 4.17669 -180 0 0 1.83 52.08 C2.94 52.83
								 4.17 53.39 5.46 53.74 C6.93 54.2 8.14 54.6 8.13 55.45 A1.2378 1.23754 0 0 1 7.78 56.28 A2.35276
								 2.35227 0 0 1 6.06 56.82 A7.36181 7.36028 0 0 1 1.65 55.55 L0 58.82 A12.3035 12.301 -180 0 0 6.04
								 60.43 L6.31 60.43 A7.27677 7.27526 -180 0 0 10.9 58.89 C10.97 58.84 11.03 58.78 11.1 58.72 L10.56
								 60.15 L15.4 60.15 L16.22 57.68 A8.80157 8.79974 -180 0 0 19.06 58.13 A8.93622 8.93436 -180 0 0 21.84
								 57.7 L22.63 60.15 L30.52 60.15 L30.52 55.03 L32.25 55.03 C36.41 55.03 38.87 52.91 38.87 49.36 C38.87
								 45.4 36.48 43.59 31.39 43.59 ZM19.07 54.43 A4.81299 4.81199 0 0 1 17.36 54.13 L19.05 48.8 L19.08
								 48.8 L20.74 54.15 A5.04331 5.04226 0 0 1 19.07 54.43 ZM31.7 51.37 L30.53 51.37 L30.53 47.07 L31.7
								 47.07 C33.27 47.07 34.52 47.59 34.52 49.19 C34.52 50.85 33.27 51.37 31.7 51.37 L31.7 51.37 Z"
							class="st2"/>
					<path d="M31.39 43.59 L26.06 43.59 L26.06 56.26 L21.4 43.58 L16.78 43.58 L12.8 54.19 C12.38 51.51 9.62 50.59
								 7.44 49.9 C6 49.44 4.48 48.76 4.49 48.01 C4.51 47.39 5.31 46.82 6.91 46.91 A8.71417 8.71236 0 0
								 1 10.81 47.96 L12.66 44.74 A14.3882 14.3852 -180 0 0 6.62 43.3 L6.61 43.3 A7.33465 7.33312 -180
								 0 0 1.28 45.25 A4.49528 4.49434 -180 0 0 0 48.36 A4.17756 4.17669 -180 0 0 1.83 52.08 C2.94 52.83
								 4.17 53.39 5.46 53.74 C6.93 54.2 8.14 54.6 8.13 55.45 A1.2378 1.23754 0 0 1 7.78 56.28 A2.35276
								 2.35227 0 0 1 6.06 56.82 A7.36181 7.36028 0 0 1 1.65 55.55 L0 58.82 A12.3035 12.301 -180 0 0 6.04
								 60.43 L6.31 60.43 A7.27677 7.27526 -180 0 0 10.9 58.89 C10.97 58.84 11.03 58.78 11.1 58.72 L10.56
								 60.15 L15.4 60.15 L16.22 57.68 A8.80157 8.79974 -180 0 0 19.06 58.13 A8.93622 8.93436 -180 0 0 21.84
								 57.7 L22.63 60.15 L30.52 60.15 L30.52 55.03 L32.25 55.03 C36.41 55.03 38.87 52.91 38.87 49.36 C38.87
								 45.4 36.48 43.59 31.39 43.59M19.07 54.43 A4.81299 4.81199 0 0 1 17.36 54.13 L19.05 48.8 L19.08 48.8
								 L20.74 54.15 A5.04331 5.04226 0 0 1 19.07 54.43M31.7 51.37 L30.53 51.37 L30.53 47.07 L31.7 47.07
								 C33.27 47.07 34.52 47.59 34.52 49.19 C34.52 50.85 33.27 51.37 31.7 51.37" class="st3"/>
				</g>
				<g id="shape933-8" transform="translate(34.8094,0)">
					<title>Sheet.933</title>
					<path d="M2 56.73 C2.93 56.73 3.7 57.5 3.7 58.43 C3.7 59.37 2.93 60.13 2 60.13 C1.06 60.13 0.3 59.37 0.3 58.43
								 C0.3 57.5 1.06 56.73 2 56.73 ZM2 56.44 A1.99606 1.99565 -180 1 0 2 60.43 A1.99606 1.99565 -180 0
								 0 2 56.44 Z" class="st1"/>
				</g>
				<g id="shape934-10" transform="translate(36.1843,-0.950589)">
					<title>Sheet.934</title>
					<path d="M0.99 59.51 a0.543307 0.543194 -180 0 0 0.54685 -0.539651 L1.53 58.93 C1.53 58.52 1.29 58.34 0.8 58.34
								 L0 58.34 L0 60.43 L0.32 60.43 L0.32 59.52 L0.68 59.52 L1.23 60.43 L1.59 60.43 L0.99 59.51 ZM0.32
								 59.25 L0.32 58.6 L0.75 58.6 C0.96 58.6 1.2 58.65 1.2 58.91 C1.2 59.24 0.96 59.25 0.69 59.25 L0.32
								 59.25 Z" class="st1"/>
				</g>
			</g>
		</g>
	</g>
</svg>
