<?xml version="1.0" encoding="UTF-8" standalone="no"?>
<!DOCTYPE svg PUBLIC "-//W3C//DTD SVG 1.1//EN" "http://www.w3.org/Graphics/SVG/1.1/DTD/svg11.dtd">
<!-- Generated by Microsoft Visio, SVG Export Storage Account Table.svg Page-1 -->
<svg xmlns="http://www.w3.org/2000/svg" xmlns:xlink="http://www.w3.org/1999/xlink" xmlns:ev="http://www.w3.org/2001/xml-events"
		width="1.1274in" height="1.3078in" viewBox="0 0 81.1729 94.1613" xml:space="preserve" color-interpolation-filters="sRGB"
		class="st6">
	<style type="text/css">
	<![CDATA[
		.st1 {fill:#a0a1a2;stroke:none;stroke-linecap:butt;stroke-width:12.24}
		.st2 {fill:#7a7a7a;stroke:none;stroke-linecap:butt;stroke-width:12.24}
		.st3 {fill:#ffffff;stroke:none;stroke-linecap:butt;stroke-width:12.24}
		.st4 {fill:#fcd116;stroke:none;stroke-linecap:butt;stroke-width:12.24}
		.st5 {fill:#ffffff;fill-opacity:0.2;stroke:none;stroke-linecap:butt;stroke-width:12.24}
		.st6 {fill:none;fill-rule:evenodd;font-size:12px;overflow:visible;stroke-linecap:square;stroke-miterlimit:3}
	]]>
	</style>

	<g>
		<title>Page-1</title>
		<g id="group516-1" transform="translate(12.24,-33.7323)">
			<title>Storage Account Table</title>
			<g id="group517-2">
				<title>g18</title>
				<g id="shape518-3">
					<title>path4</title>
					<path d="M0 92.01 C0 93.14 0.79 94.16 2.15 94.16 L54.54 94.16 C55.67 94.16 56.69 93.37 56.69 92.01 L56.69 54.57
								 L0 54.57 L0 92.01 Z" class="st1"/>
				</g>
				<g id="shape519-5" transform="translate(0,-39.5919)">
					<title>path6</title>
					<path d="M54.54 85.56 L2.15 85.56 C0.79 85.56 0 86.58 0 87.71 L0 94.16 L56.69 94.16 L56.69 87.71 C56.69 86.58
								 55.9 85.56 54.54 85.56 Z" class="st2"/>
				</g>
				<g id="shape520-7" transform="translate(21.3165,-27.2618)">
					<title>path8</title>
					<rect x="0" y="85.5642" width="14.2866" height="8.59709" class="st3"/>
				</g>
				<g id="shape521-9" transform="translate(21.3165,-15.6105)">
					<title>path10</title>
					<path d="M0 85.56 L14.29 85.56 L14.29 94.16 L0 94.16 L0 85.56 ZM17.01 85.56 L31.29 85.56 L31.29 94.16 L17.01
								 94.16 L17.01 85.56 Z" class="st4"/>
				</g>
				<g id="shape522-11" transform="translate(4.30866,-15.6105)">
					<title>path12</title>
					<path d="M34.02 73.91 L48.3 73.91 L48.3 82.51 L34.02 82.51 L34.02 73.91 ZM0 73.91 L14.29 73.91 L14.29 82.51 L0
								 82.51 L0 73.91 ZM0 85.56 L14.29 85.56 L14.29 94.16 L0 94.16 L0 85.56 Z" class="st3"/>
				</g>
				<g id="shape523-13" transform="translate(4.30866,-4.07231)">
					<title>path14</title>
					<path d="M0 85.56 L14.29 85.56 L14.29 94.16 L0 94.16 L0 85.56 ZM17.01 85.56 L31.29 85.56 L31.29 94.16 L17.01
								 94.16 L17.01 85.56 ZM34.02 85.56 L48.3 85.56 L48.3 94.16 L34.02 94.16 L34.02 85.56 Z" class="st4"/>
				</g>
				<g id="shape524-15">
					<title>path16</title>
					<path d="M2.15 45.97 C1.13 45.97 0 46.99 0 48.12 L0 92.01 C0 93.14 1.13 94.16 2.15 94.16 L4.54 94.16 L49.44 45.97
								 L2.15 45.97 Z" class="st5"/>
				</g>
			</g>
		</g>
	</g>
</svg>
