<?xml version="1.0" encoding="UTF-8" standalone="no"?>
<!DOCTYPE svg PUBLIC "-//W3C//DTD SVG 1.1//EN" "http://www.w3.org/Graphics/SVG/1.1/DTD/svg11.dtd">
<!-- Generated by Microsoft Visio, SVG Export Subscription.svg Page-1 -->
<svg xmlns="http://www.w3.org/2000/svg" xmlns:xlink="http://www.w3.org/1999/xlink" xmlns:ev="http://www.w3.org/2001/xml-events"
		width="1.41689in" height="1.8108in" viewBox="0 0 102.016 130.378" xml:space="preserve" color-interpolation-filters="sRGB"
		class="st3">
	<style type="text/css">
	<![CDATA[
		.st1 {fill:url(#grad6-6);stroke:none;stroke-linecap:butt;stroke-width:34}
		.st2 {fill:#ff9300;fill-opacity:0.75;stroke:none;stroke-linecap:butt;stroke-width:34}
		.st3 {fill:none;fill-rule:evenodd;font-size:12px;overflow:visible;stroke-linecap:square;stroke-miterlimit:3}
	]]>
	</style>

	<defs id="Patterns_And_Gradients">
		<radialGradient id="grad6-6" cx="1" cy="0" r="1.4">
			<stop offset="0.265" stop-color="#ffd70f" stop-opacity="1"/>
			<stop offset="0.485" stop-color="#ffcb12" stop-opacity="1"/>
			<stop offset="0.885" stop-color="#feac19" stop-opacity="1"/>
			<stop offset="1" stop-color="#fea11b" stop-opacity="1"/>
		</radialGradient>
	</defs>
	<g>
		<title>Page-1</title>
		<g id="group451-1" transform="translate(34,-39.685)">
			<title>Subscription</title>
			<g id="group452-2">
				<title>Sheet.452</title>
				<g id="shape453-3">
					<title>Sheet.453</title>
					<path d="M32.19 96.06 A6.27102 6.53178 -180 0 0 32.19 86.84 L21.41 75.59 A6.22869 6.48769 -180 0 0 12.59 75.59
								 L1.83 86.84 A6.27405 6.53493 -180 0 0 1.83 96.06 L10.79 105.42 A1.75673 1.82978 0 0 1 11.3 106.71
								 L11.3 124.11 A2.14074 2.22975 -180 0 0 11.92 125.68 L16.01 129.95 A1.41506 1.4739 -180 0 0 18.01
								 129.95 L21.97 125.81 L21.97 125.77 L24.3 123.34 a0.819406 0.853478 -180 0 0 3.90799E-14 -1.20306
								 L22.62 120.38 a0.907091 0.94481 0 0 1 -7.10543E-15 -1.31329 L24.3 117.31 a0.819406 0.853478 -180
								 0 0 -7.10543E-14 -1.20306 L22.62 114.37 a0.907091 0.94481 0 0 1 1.06581E-14 -1.31329 L24.31 111.3
								 a0.816382 0.850329 -180 0 0 -2.4869E-14 -1.19991 L21.97 107.65 L21.97 106.76 L32.19 96.06 ZM17.01
								 78.32 A3.55277 3.7005 0 1 1 13.46 82.02 A3.54975 3.69736 0 0 1 17.01 78.32 Z" class="st1"/>
				</g>
				<g id="shape454-7" transform="translate(8.38005,-5.74918)">
					<title>Sheet.454</title>
					<path d="M5.83 130.23 a0.761957 0.79364 -180 0 0 1.28807 -0.604678 L7.11 115.55 a0.810335 0.84403 -180 0 0 -0.350742
								 -0.699159 a0.76498 0.79679 -180 0 0 -1.17922 0.699159 L5.58 129.62 a0.810335 0.84403 -180 0 0 0.241891
								 0.604678 ZM0.96 96.34 L16.75 96.34 a0.95547 0.9952 0 0 1 0.95547 0.9952 L17.71 97.52 a0.958493 0.998349
								 0 0 1 -0.958493 0.998349 L0.96 98.52 a0.95547 0.9952 0 0 1 -0.95547 -0.9952 L0 97.34 a0.958493 0.998349
								 0 0 1 0.958493 -0.998349 L0.96 96.34 ZM0.96 99.88 L16.75 99.88 a0.95547 0.9952 0 0 1 0.95547 0.9952
								 L17.71 101.07 a0.95547 0.9952 0 0 1 -0.95547 0.9952 L0.96 102.06 a0.958493 0.998349 0 0 1 -0.958493
								 -0.998349 L0 100.88 a0.958493 0.998349 0 0 1 0.958493 -0.998349 Z" class="st2"/>
				</g>
			</g>
		</g>
	</g>
</svg>
