<?xml version="1.0" encoding="UTF-8" standalone="no"?>
<!DOCTYPE svg PUBLIC "-//W3C//DTD SVG 1.1//EN" "http://www.w3.org/Graphics/SVG/1.1/DTD/svg11.dtd">
<!-- Generated by Microsoft Visio, SVG Export Template Spec.svg Page-1 -->
<svg xmlns="http://www.w3.org/2000/svg" xmlns:xlink="http://www.w3.org/1999/xlink" xmlns:ev="http://www.w3.org/2001/xml-events"
		width="1.61374in" height="1.8108in" viewBox="0 0 116.189 130.378" xml:space="preserve" color-interpolation-filters="sRGB"
		class="st7">
	<style type="text/css">
	<![CDATA[
		.st1 {fill:#32bedd;stroke:none;stroke-linecap:butt;stroke-width:34}
		.st2 {fill:url(#grad0-8);stroke:none;stroke-linecap:butt;stroke-width:34}
		.st3 {fill:#ffffff;stroke:none;stroke-linecap:butt;stroke-width:34}
		.st4 {fill:#5e9624;stroke:none;stroke-linecap:butt;stroke-width:34}
		.st5 {fill:#76bc2d;stroke:none;stroke-linecap:butt;stroke-width:34}
		.st6 {fill:#86d633;stroke:none;stroke-linecap:butt;stroke-width:34}
		.st7 {fill:none;fill-rule:evenodd;font-size:12px;overflow:visible;stroke-linecap:square;stroke-miterlimit:3}
	]]>
	</style>

	<defs id="Patterns_And_Gradients">
		<linearGradient id="grad0-8" x1="0" y1="0" x2="1" y2="0" gradientTransform="rotate(-90 0.5 0.5)">
			<stop offset="0" stop-color="#198ab3" stop-opacity="1"/>
			<stop offset="0.62" stop-color="#31d0f1" stop-opacity="1"/>
			<stop offset="1" stop-color="#32d4f5" stop-opacity="1"/>
		</linearGradient>
	</defs>
	<g>
		<title>Page-1</title>
		<g id="group438-1" transform="translate(34,-39.685)">
			<title>Template Spec</title>
			<g id="group439-2">
				<title>Sheet.439</title>
				<g id="shape440-3">
					<title>Sheet.440</title>
					<path d="M14.75 73.69 L3.44 73.69 A3.44255 3.42158 -180 0 0 -0 77.11 L0 88.36 L6.89 88.36 L6.89 80.53 L14.75
								 80.53 L14.75 73.69 ZM44.75 73.69 L33.44 73.69 L33.44 80.53 L41.3 80.53 L41.3 88.36 L48.19 88.36
								 L48.19 77.11 A3.44255 3.42158 -180 0 0 44.75 73.69 ZM41.3 115.7 L41.3 123.52 L33.44 123.52 L33.44
								 130.38 L44.75 130.38 A3.44255 3.42158 -180 0 0 48.19 126.96 L48.19 115.7 L41.3 115.7 ZM6.89 123.53
								 L6.89 115.7 L0 115.7 L0 126.95 A3.44255 3.42158 -180 0 0 3.44 130.38 L14.75 130.38 L14.75 123.53
								 L6.89 123.53 Z" class="st1"/>
				</g>
				<g id="shape441-5" transform="translate(4.42566,-4.3987)">
					<title>Sheet.441</title>
					<path d="M1.97 130.38 L37.37 130.38 A1.97292 1.96091 -180 0 0 39.34 128.42 L39.34 84.42 A1.97292 1.96091 -180
								 0 0 37.37 82.47 L1.97 82.47 A1.97292 1.96091 -180 0 0 -0 84.42 L0 128.44 A1.97292 1.96091 -180 0
								 0 1.97 130.38 Z" class="st2"/>
				</g>
				<g id="shape442-9" transform="translate(8.34801,-8.30718)">
					<title>Sheet.442</title>
					<path d="M0.98 130.38 L30.51 130.38 a0.986461 0.980454 -180 0 0 0.983106 -0.977119 L31.49 91.28 a0.986461 0.980454
								 -180 0 0 -0.983106 -0.980454 L0.98 90.3 a0.986461 0.980454 -180 0 0 -0.983106 0.980454 L0 129.4
								 a0.986461 0.980454 -180 0 0 0.983106 0.977119 Z" class="st3"/>
				</g>
				<g id="shape443-11" transform="translate(15.2432,-14.1732)">
					<title>Sheet.443</title>
					<path d="M0.98 130.38 L16.72 130.38 a0.986461 0.980454 -180 0 0 0.983106 -0.977119 L17.7 125 a0.986461 0.980454
								 -180 0 0 -0.983106 -0.977119 L0.98 124.03 a0.986461 0.980454 -180 0 0 -0.983106 0.977119 L0 129.4
								 a0.986461 0.980454 -180 0 0 0.983106 0.977119 Z" class="st4"/>
				</g>
				<g id="shape444-13" transform="translate(15.2432,-25.1683)">
					<title>Sheet.444</title>
					<path d="M0.98 130.38 L16.72 130.38 a0.986461 0.980454 -180 0 0 0.983106 -0.977119 L17.7 125 a0.986461 0.980454
								 -180 0 0 -0.983106 -0.980454 L0.98 124.02 a0.986461 0.980454 -180 0 0 -0.983106 0.980454 L0 129.4
								 a0.986461 0.980454 -180 0 0 0.983106 0.977119 Z" class="st5"/>
				</g>
				<g id="shape445-15" transform="translate(15.2432,-36.1667)">
					<title>Sheet.445</title>
					<path d="M0.98 130.38 L16.72 130.38 a0.986461 0.980454 -180 0 0 0.983106 -0.977119 L17.7 125 a0.986461 0.980454
								 -180 0 0 -0.983106 -0.977119 L0.98 124.03 a0.986461 0.980454 -180 0 0 -0.983106 0.977119 L0 129.4
								 a0.986461 0.980454 -180 0 0 0.983106 0.977119 Z" class="st6"/>
				</g>
			</g>
		</g>
	</g>
</svg>
