<?xml version="1.0" encoding="UTF-8" standalone="no"?>
<!DOCTYPE svg PUBLIC "-//W3C//DTD SVG 1.1//EN" "http://www.w3.org/Graphics/SVG/1.1/DTD/svg11.dtd">
<!-- Generated by Microsoft Visio, SVG Export Web Hook.svg Page-1 -->
<svg xmlns="http://www.w3.org/2000/svg" xmlns:xlink="http://www.w3.org/1999/xlink" xmlns:ev="http://www.w3.org/2001/xml-events"
		width="1.1012in" height="1.42428in" viewBox="0 0 79.2867 102.548" xml:space="preserve" color-interpolation-filters="sRGB"
		class="st4">
	<style type="text/css">
	<![CDATA[
		.st1 {fill:#c73a63;stroke:none;stroke-linecap:butt;stroke-width:12.24}
		.st2 {fill:#4b4b4b;stroke:none;stroke-linecap:butt;stroke-width:12.24}
		.st3 {fill:#4a4a4a;stroke:none;stroke-linecap:butt;stroke-width:12.24}
		.st4 {fill:none;fill-rule:evenodd;font-size:12px;overflow:visible;stroke-linecap:square;stroke-miterlimit:3}
	]]>
	</style>

	<g>
		<title>Page-1</title>
		<g id="group65-1" transform="translate(11.8041,-37.7008)">
			<title>Web Hook</title>
			<g id="group66-2">
				<title>Sheet.66</title>
				<g id="shape67-3" transform="translate(7.74525,-8.59388)">
					<title>Sheet.67</title>
					<path d="M18.38 80.03 C16.1 83.88 13.91 87.61 11.68 91.32 C11.11 92.27 10.83 93.04 11.28 94.25 C12.55 97.59 10.77
								 100.83 7.42 101.72 C4.26 102.55 1.18 100.46 0.55 97.06 C0 94.06 2.32 91.11 5.62 90.64 C5.9 90.6
								 6.18 90.59 6.64 90.56 L11.67 82.1 C8.51 78.94 6.63 75.25 7.04 70.68 C7.34 67.45 8.6 64.66 10.91
								 62.37 C15.34 57.99 22.09 57.28 27.29 60.65 C32.3 63.88 34.59 70.17 32.64 75.56 L28.05 74.31 C28.66
								 71.31 28.21 68.62 26.2 66.32 C24.87 64.8 23.17 64 21.23 63.71 C17.35 63.12 13.54 65.62 12.41 69.46
								 C11.12 73.8 13.07 77.35 18.38 80.03 Z" class="st1"/>
				</g>
				<g id="shape68-5" transform="translate(22.3424,-2.55795E-13)">
					<title>Sheet.68</title>
					<path d="M10.29 66.88 L15.14 75.49 C23.31 72.94 29.47 77.49 31.68 82.36 C34.35 88.23 32.53 95.2 27.28 98.83 C21.9
								 102.55 15.1 101.91 10.33 97.13 L14.07 93.98 C18.78 97.05 22.9 96.9 25.96 93.27 C28.56 90.18 28.51
								 85.56 25.82 82.53 C22.73 79.03 18.58 78.92 13.57 82.28 C11.49 78.57 9.37 74.9 7.36 71.16 C6.68 69.9
								 5.93 69.17 4.4 68.91 C1.85 68.46 0.2 66.26 0.1 63.78 C0 61.34 1.43 59.13 3.67 58.27 C5.89 57.42
								 8.49 58.11 9.98 60 C11.2 61.55 11.59 63.29 10.95 65.2 C10.77 65.74 10.54 66.25 10.29 66.88 Z"
							class="st2"/>
				</g>
				<g id="shape69-7" transform="translate(0,-1.25713)">
					<title>Sheet.69</title>
					<path d="M36.47 91.42 L26.64 91.42 C25.69 95.32 23.66 98.46 20.15 100.47 C17.42 102.02 14.48 102.55 11.35 102.04
								 C5.59 101.11 0.88 95.89 0.47 90.02 C0 83.38 4.55 77.47 10.61 76.14 L11.87 80.73 C6.31 83.58 4.38
								 87.17 5.94 91.67 C7.31 95.62 11.2 97.79 15.42 96.95 C19.74 96.09 21.91 92.49 21.65 86.71 C25.74
								 86.71 29.83 86.66 33.92 86.73 C35.52 86.75 36.75 86.59 37.96 85.17 C39.94 82.84 43.58 83.05 45.72
								 85.25 C47.9 87.5 47.79 91.12 45.49 93.27 C43.26 95.35 39.74 95.24 37.66 93 C37.23 92.54 36.89 91.99
								 36.47 91.42 L36.47 91.42 Z" class="st3"/>
				</g>
			</g>
		</g>
	</g>
</svg>
