<?xml version="1.0" encoding="UTF-8" standalone="no"?>
<!DOCTYPE svg PUBLIC "-//W3C//DTD SVG 1.1//EN" "http://www.w3.org/Graphics/SVG/1.1/DTD/svg11.dtd">
<!-- Generated by Microsoft Visio, SVG Export Automation State Configuration (DSC).svg Page-1 -->
<svg xmlns="http://www.w3.org/2000/svg" xmlns:xlink="http://www.w3.org/1999/xlink" xmlns:ev="http://www.w3.org/2001/xml-events"
		width="0.969921in" height="1.42984in" viewBox="0 0 69.8343 102.949" xml:space="preserve" color-interpolation-filters="sRGB"
		class="st4">
	<style type="text/css">
	<![CDATA[
		.st1 {fill:#3999c6;stroke:none;stroke-linecap:butt;stroke-width:12.24}
		.st2 {fill:#ffffff;stroke:none;stroke-linecap:butt;stroke-width:12.24}
		.st3 {fill:#ffffff;fill-opacity:0.6;stroke:none;stroke-linecap:butt;stroke-width:12.24}
		.st4 {fill:none;fill-rule:evenodd;font-size:12px;overflow:visible;stroke-linecap:square;stroke-miterlimit:3}
	]]>
	</style>

	<g>
		<title>Page-1</title>
		<g id="group12046-1" transform="translate(12.24,-34.0157)">
			<title>Automation State Configuration (DSC).12046</title>
			<g id="group12047-2">
				<title>Sheet.12047</title>
				<g id="shape12048-3">
					<title>Sheet.12048</title>
					<rect x="0" y="46.2557" width="45.3543" height="56.6929" class="st1"/>
				</g>
				<g id="shape12049-5" transform="translate(4.50935,-7.93701)">
					<title>Sheet.12049</title>
					<path d="M0.63 97.61 L0.1 97.14 C0 97.04 0 96.86 0.1 96.67 L1.57 95.55 C1.67 95.45 1.67 95.45 1.78 95.45 C1.88
								 95.45 1.99 95.45 1.99 95.55 L5.86 99.29 L12.57 91.7 C12.67 91.61 12.78 91.61 12.88 91.61 C12.98
								 91.61 12.98 91.61 13.09 91.7 L14.66 92.73 C14.77 92.83 14.77 92.83 14.77 92.92 C14.77 93.02 14.77
								 93.11 14.66 93.11 L5.97 102.95 L0.63 97.61 Z" class="st2"/>
				</g>
				<g id="shape12050-7" transform="translate(22.6772,-11.9055)">
					<title>Sheet.12050</title>
					<rect x="0" y="99.5471" width="18.1417" height="3.40157" class="st3"/>
				</g>
				<g id="shape12051-9" transform="translate(4.50935,-22.6772)">
					<title>Sheet.12051</title>
					<path d="M0.63 97.61 L0.1 97.14 C0 97.04 0 96.86 0.1 96.67 L1.57 95.55 C1.67 95.45 1.67 95.45 1.78 95.45 C1.88
								 95.45 1.99 95.45 1.99 95.55 L5.86 99.29 L12.57 91.7 C12.67 91.61 12.78 91.61 12.88 91.61 C12.98
								 91.61 12.98 91.61 13.09 91.7 L14.66 92.73 C14.77 92.83 14.77 92.83 14.77 92.92 C14.77 93.02 14.77
								 93.11 14.66 93.11 L5.97 102.95 L0.63 97.61 Z" class="st2"/>
				</g>
				<g id="shape12052-11" transform="translate(22.6772,-26.6457)">
					<title>Sheet.12052</title>
					<rect x="0" y="99.5471" width="18.1417" height="3.40157" class="st3"/>
				</g>
				<g id="shape12053-13" transform="translate(4.50935,-37.4173)">
					<title>Sheet.12053</title>
					<path d="M0.63 97.61 L0.1 97.14 C0 97.04 0 96.86 0.1 96.67 L1.57 95.55 C1.67 95.45 1.67 95.45 1.78 95.45 C1.88
								 95.45 1.99 95.45 1.99 95.55 L5.86 99.29 L12.57 91.7 C12.67 91.61 12.78 91.61 12.88 91.61 C12.98
								 91.61 12.98 91.61 13.09 91.7 L14.66 92.73 C14.77 92.83 14.77 92.83 14.77 92.92 C14.77 93.02 14.77
								 93.11 14.66 93.11 L5.97 102.95 L0.63 97.61 Z" class="st2"/>
				</g>
				<g id="shape12054-15" transform="translate(22.6772,-41.3858)">
					<title>Sheet.12054</title>
					<rect x="0" y="99.5471" width="18.1417" height="3.40157" class="st3"/>
				</g>
			</g>
		</g>
	</g>
</svg>
