<?xml version="1.0" encoding="UTF-8" standalone="no"?>
<!DOCTYPE svg PUBLIC "-//W3C//DTD SVG 1.1//EN" "http://www.w3.org/Graphics/SVG/1.1/DTD/svg11.dtd">
<!-- Generated by Microsoft Visio, SVG Export Managed Disk Premium SSD.svg Page-1 -->
<svg xmlns="http://www.w3.org/2000/svg" xmlns:xlink="http://www.w3.org/1999/xlink" xmlns:ev="http://www.w3.org/2001/xml-events"
		width="1.49445in" height="1.20472in" viewBox="0 0 107.601 86.7402" xml:space="preserve" color-interpolation-filters="sRGB"
		class="st8">
	<style type="text/css">
	<![CDATA[
		.st1 {fill:#661db0;stroke:none;stroke-linecap:butt;stroke-width:0.749999}
		.st2 {fill:#945ccf;stroke:none;stroke-linecap:butt;stroke-width:0.749999}
		.st3 {fill:#ffffff;fill-opacity:0.25;stroke:none;stroke-linecap:butt;stroke-width:0.749999}
		.st4 {fill:#0072c6;stroke:none;stroke-linecap:butt;stroke-width:0.749999}
		.st5 {fill:#59b4d9;stroke:none;stroke-linecap:butt;stroke-width:0.749999}
		.st6 {visibility:visible}
		.st7 {fill:#000000;font-family:Calibri;font-size:0.666664em}
		.st8 {fill:none;fill-rule:evenodd;font-size:12px;overflow:visible;stroke-linecap:square;stroke-miterlimit:3}
	]]>
	</style>

	<g>
		<title>Page-1</title>
		<g id="group9107-1" transform="translate(24.0368,-33.7323)">
			<title>Managed Disk Premium SSD.9107</title>
			<desc>Managed Disk Premium SSD</desc>
			<g id="group9108-2">
				<title>Page-1</title>
				<g id="group9109-3">
					<title>Managed Disk Premium SSD</title>
					<g id="group9110-4">
						<title>Sheet.9110</title>
						<g id="shape9111-5">
							<title>Sheet.9111</title>
							<path d="M56.69 76.47 C56.69 82.15 44 86.74 28.35 86.74 C12.69 86.74 0 82.15 0 76.47 L0 70.95 L56.69
										 70.95 L56.69 76.47 Z" class="st1"/>
						</g>
					</g>
					<g id="group9112-7" transform="translate(0,-5.53254)">
						<title>Sheet.9112</title>
						<g id="shape9113-8">
							<title>Sheet.9113</title>
							<path d="M56.69 76.47 C56.69 82.15 44 86.74 28.35 86.74 C12.69 86.74 0 82.15 0 76.47 C0 70.8 12.69 66.21
										 28.35 66.21 C44 66.21 56.69 70.8 56.69 76.47 Z" class="st2"/>
						</g>
					</g>
					<g id="group9114-10" transform="translate(19.2573,-13.659)">
						<title>Sheet.9114</title>
						<g id="shape9115-11">
							<title>Sheet.9115</title>
							<path d="M18.18 84.01 C18.18 85.52 14.11 86.74 9.08 86.74 C4.07 86.74 0 85.52 0 84.01 C0 82.5 4.07 81.28
										 9.08 81.28 C14.11 81.28 18.18 82.5 18.18 84.01 Z" class="st1"/>
						</g>
					</g>
					<g id="group9116-13" transform="translate(30.1015,-18.2574)">
						<title>Sheet.9116</title>
						<g id="shape9117-14">
							<title>Sheet.9117</title>
							<path d="M18.74 82.17 C14.76 80.66 9.55 79.59 3.68 79.19 L0 85.99 C1.81 86.1 3.43 86.37 4.68 86.74 L18.74
										 82.17 Z" class="st3"/>
						</g>
					</g>
					<g id="group9118-16" transform="translate(6.69199,-5.66746)">
						<title>Sheet.9118</title>
						<g id="shape9119-17">
							<title>Sheet.9119</title>
							<path d="M0 83.29 C4.08 85.03 9.75 86.29 16.2 86.74 L20.5 78.79 C18.71 78.71 17.08 78.49 15.78 78.15
										 L0 83.29 Z" class="st3"/>
						</g>
					</g>
					<g id="group9120-19" transform="translate(0,-22.1256)">
						<title>Sheet.9120</title>
						<g id="shape9121-20">
							<title>Sheet.9121</title>
							<path d="M56.69 76.47 C56.69 82.15 44 86.74 28.35 86.74 C12.69 86.74 0 82.15 0 76.47 L0 70.95 L56.69
										 70.95 L56.69 76.47 Z" class="st4"/>
						</g>
					</g>
					<g id="group9122-22" transform="translate(0,-27.6582)">
						<title>Sheet.9122</title>
						<g id="shape9123-23">
							<title>Sheet.9123</title>
							<path d="M56.69 76.47 C56.69 82.15 44 86.74 28.35 86.74 C12.69 86.74 0 82.15 0 76.47 C0 70.8 12.69 66.21
										 28.35 66.21 C44 66.21 56.69 70.8 56.69 76.47 Z" class="st5"/>
						</g>
					</g>
					<g id="group9124-25" transform="translate(19.2573,-35.7846)">
						<title>Sheet.9124</title>
						<g id="shape9125-26">
							<title>Sheet.9125</title>
							<path d="M18.18 84.01 C18.18 85.52 14.11 86.74 9.08 86.74 C4.07 86.74 0 85.52 0 84.01 C0 82.5 4.07 81.28
										 9.08 81.28 C14.11 81.28 18.18 82.5 18.18 84.01 Z" class="st4"/>
						</g>
					</g>
					<g id="group9126-28" transform="translate(30.1015,-40.4397)">
						<title>Sheet.9126</title>
						<g id="shape9127-29">
							<title>Sheet.9127</title>
							<path d="M18.74 82.17 C14.76 80.66 9.55 79.59 3.68 79.19 L0 85.99 C1.81 86.1 3.43 86.37 4.68 86.74 L18.74
										 82.17 Z" class="st3"/>
						</g>
					</g>
					<g id="group9128-31" transform="translate(6.69199,-27.8498)">
						<title>Sheet.9128</title>
						<g id="shape9129-32">
							<title>Sheet.9129</title>
							<path d="M0 83.29 C4.08 85.03 9.75 86.29 16.2 86.74 L20.5 78.79 C18.71 78.71 17.08 78.49 15.78 78.15
										 L0 83.29 Z" class="st3"/>
						</g>
					</g>
				</g>
			</g>
			<g id="shape9107-34">
				<g id="shadow9107-35" transform="matrix(1,0,0,1,1.41732,1.41732)" class="st6"/>
				<text x="-17.45" y="101.17" class="st7">Managed Disk Premium SSD</text>			</g>
		</g>
	</g>
</svg>
