<?xml version="1.0" encoding="UTF-8" standalone="no"?>
<!DOCTYPE svg PUBLIC "-//W3C//DTD SVG 1.1//EN" "http://www.w3.org/Graphics/SVG/1.1/DTD/svg11.dtd">
<!-- Generated by Microsoft Visio, SVG Export Storage Account Blob Hot.svg Page-1 -->
<svg xmlns="http://www.w3.org/2000/svg" xmlns:xlink="http://www.w3.org/1999/xlink" xmlns:ev="http://www.w3.org/2001/xml-events"
		width="1.38274in" height="1.3078in" viewBox="0 0 99.5573 94.1613" xml:space="preserve" color-interpolation-filters="sRGB"
		class="st8">
	<style type="text/css">
	<![CDATA[
		.st1 {fill:#a0a1a2;stroke:none;stroke-width:12.24}
		.st2 {fill:#7a7a7a;stroke:none;stroke-width:12.24}
		.st3 {fill:#ffffff;stroke:none;stroke-width:12.24}
		.st4 {fill:#e71e27;stroke:none;stroke-width:0.859306}
		.st5 {fill:#ffffff;fill-opacity:0.2;stroke:none;stroke-width:12.24}
		.st6 {visibility:visible}
		.st7 {fill:#000000;font-family:Calibri;font-size:0.666664em}
		.st8 {fill:none;fill-rule:evenodd;font-size:12px;overflow:visible;stroke-linecap:square;stroke-miterlimit:3}
	]]>
	</style>

	<g>
		<title>Page-1</title>
		<g id="group8993-1" transform="translate(20.0149,-33.7323)">
			<title>Storage Account Blob Hot.8993</title>
			<desc>Storage Account Blob Hot</desc>
			<g id="group8994-2">
				<title>Page-1</title>
				<g id="group8995-3">
					<title>Azure Storage (Blog) Hot Tier</title>
					<g id="shape8996-4">
						<title>Sheet.8996</title>
						<path d="M0 92.01 C0 93.14 0.8 94.16 2.15 94.16 L54.54 94.16 C55.67 94.16 56.69 93.37 56.69 92.01 L56.69
									 54.57 L0 54.57 L0 92.01 Z" class="st1"/>
					</g>
					<g id="shape8997-6" transform="translate(0,-39.5915)">
						<title>Sheet.8997</title>
						<path d="M54.54 85.56 L2.15 85.56 C0.8 85.56 0 86.58 0 87.71 L0 94.16 L56.69 94.16 L56.69 87.71 C56.69 86.58
									 55.9 85.56 54.54 85.56 Z" class="st2"/>
					</g>
					<g id="shape8998-8" transform="translate(21.3171,-27.2613)">
						<title>Sheet.8998</title>
						<rect x="0" y="85.5642" width="14.287" height="8.59704" class="st3"/>
					</g>
					<g id="shape8999-10" transform="translate(21.3171,-15.6101)">
						<title>Sheet.8999</title>
						<rect x="0" y="85.5642" width="14.287" height="8.59704" class="st4"/>
					</g>
					<g id="shape9000-12" transform="translate(38.3255,-15.6101)">
						<title>Sheet.9000</title>
						<rect x="0" y="85.5642" width="14.287" height="8.59704" class="st4"/>
					</g>
					<g id="shape9001-14" transform="translate(38.3255,-27.2613)">
						<title>Sheet.9001</title>
						<rect x="0" y="85.5642" width="14.287" height="8.59704" class="st3"/>
					</g>
					<g id="shape9002-16" transform="translate(4.30878,-27.2613)">
						<title>Sheet.9002</title>
						<rect x="0" y="85.5642" width="14.287" height="8.59704" class="st3"/>
					</g>
					<g id="shape9003-18" transform="translate(4.30878,-15.6101)">
						<title>Sheet.9003</title>
						<rect x="0" y="85.5642" width="14.287" height="8.59704" class="st3"/>
					</g>
					<g id="shape9004-20" transform="translate(4.30878,-4.07196)">
						<title>Sheet.9004</title>
						<rect x="0" y="85.5642" width="14.287" height="8.59704" class="st4"/>
					</g>
					<g id="shape9005-22" transform="translate(21.3171,-4.07196)">
						<title>Sheet.9005</title>
						<rect x="0" y="85.5642" width="14.287" height="8.59704" class="st4"/>
					</g>
					<g id="shape9006-24" transform="translate(38.3255,-4.07196)">
						<title>Sheet.9006</title>
						<rect x="0" y="85.5642" width="14.287" height="8.59704" class="st4"/>
					</g>
					<g id="shape9007-26">
						<title>Sheet.9007</title>
						<path d="M2.15 45.98 C1.13 45.98 0 46.99 0 48.12 L0 56.49 L0 60.23 L0 92.01 C0 93.14 1.13 94.16 2.15 94.16
									 L4.53 94.16 L49.44 45.98 L2.15 45.98 Z" class="st5"/>
					</g>
				</g>
			</g>
			<g id="shape8993-28">
				<g id="shadow8993-29" transform="matrix(1,0,0,1,1.41732,1.41732)" class="st6"/>
				<text x="-13.43" y="108.59" class="st7">Storage Account Blob Hot</text>			</g>
		</g>
	</g>
</svg>
