<?xml version="1.0" encoding="UTF-8" standalone="no"?>
<!DOCTYPE svg PUBLIC "-//W3C//DTD SVG 1.1//EN" "http://www.w3.org/Graphics/SVG/1.1/DTD/svg11.dtd">
<!-- Generated by Microsoft Visio, SVG Export Maintenance Configuration.svg Page-1 -->
<svg xmlns="http://www.w3.org/2000/svg" xmlns:xlink="http://www.w3.org/1999/xlink" xmlns:ev="http://www.w3.org/2001/xml-events"
		width="1.84991in" height="1.81053in" viewBox="0 0 133.193 130.358" xml:space="preserve" color-interpolation-filters="sRGB"
		class="st7">
	<style type="text/css">
	<![CDATA[
		.st1 {fill:#7a7a7a;stroke:none;stroke-linecap:butt;stroke-width:38.25}
		.st2 {fill:#a0a1a2;stroke:none;stroke-linecap:butt;stroke-width:38.25}
		.st3 {fill:#59b4d9;stroke:none;stroke-linecap:butt;stroke-width:38.25}
		.st4 {fill:#ffffff;fill-opacity:0.2;stroke:none;stroke-linecap:butt;stroke-width:38.25}
		.st5 {fill:#ffffff;stroke:none;stroke-linecap:butt;stroke-width:38.25}
		.st6 {fill:#ffffff;fill-opacity:0.75;stroke:none;stroke-linecap:butt;stroke-width:38.25}
		.st7 {fill:none;fill-rule:evenodd;font-size:12px;overflow:visible;stroke-linecap:square;stroke-miterlimit:3}
	]]>
	</style>

	<g>
		<title>Page-1</title>
		<g id="group2546-1" transform="translate(38.2503,-38.25)">
			<title>Maintenance Configuration</title>
			<g id="group2547-2">
				<title> Icon204Asset 1</title>
				<g id="shape2548-3" transform="translate(9.67323,2.84217E-14)">
					<title>Sheet.2548</title>
					<path d="M27.07 119.29 L11.59 119.29 C13.39 125.89 10.88 126.81 0 126.81 L0 130.36 L37.03 130.36 L37.03 126.81
								 C26.4 126.81 25.26 125.89 27.07 119.29 Z" class="st1"/>
				</g>
				<g id="shape2549-5" transform="translate(0,-11.0697)">
					<title>Sheet.2549</title>
					<path d="M53.15 87.57 L3.05 87.57 A3.25984 3.26414 -180 0 0 -0 90.87 L0 127.2 A3.11811 3.12222 -180 0 0 3.05
								 130.36 L53.15 130.36 A3.54331 3.54798 -180 0 0 56.69 127.2 L56.69 90.87 A3.54331 3.54798 -180 0
								 0 53.15 87.57 ZM52.23 92 L52.23 125.96 L4.32 125.96 L4.32 92 L52.37 92 L52.23 92 Z" class="st2"/>
				</g>
				<g id="shape2550-7" transform="translate(4.32283,-15.4692)">
					<title>Sheet.2550</title>
					<path d="M48.05 130.36 L0 130.36 L0 96.4 L48.05 96.3 L48.05 130.36 Z" class="st3"/>
				</g>
				<g id="shape2551-9" transform="translate(0,-11.0697)">
					<title>Sheet.2551</title>
					<path d="M4.32 125.96 L4.32 92 L48.19 92 L53.15 87.57 L3.05 87.57 A3.25984 3.26414 -180 0 0 -0 90.87 L0 127.2
								 A3.11811 3.12222 -180 0 0 3.05 130.36 L4.32 130.36 L9.53 126.07 L4.32 126.07 L4.32 125.96 Z"
							class="st4"/>
				</g>
				<g id="shape2552-11" transform="translate(4.32283,-15.4692)">
					<title>Sheet.2552</title>
					<path d="M0 130.36 L0 96.4 L43.87 96.3 L0 96.4 L0 130.36 Z" class="st3"/>
				</g>
				<g id="shape2553-13" transform="translate(12.8673,-21.5824)">
					<title>Sheet.2553</title>
					<path d="M14.38 117.67 A6.09449 6.10252 -180 0 0 20.09 115.82 A5.63386 5.64128 -180 0 0 21.08 110.22 L18.14 113.76
								 L14.84 113.27 L13.67 110.18 L16.61 106.63 A6.05906 6.06704 -180 0 0 11.16 108.73 A5.63386 5.64128
								 -180 0 0 10.2 114.3 L0.6 125.86 A2.76378 2.76742 -180 0 0 0.99 129.73 A2.69291 2.69646 -180 0 0
								 4.85 129.34 L14.38 117.67 Z" class="st5"/>
				</g>
				<g id="shape2554-15" transform="translate(9.85039,-0.141919)">
					<title>Sheet.2554</title>
					<rect x="0" y="126.952" width="37.063" height="3.40606" class="st2"/>
				</g>
				<g id="shape2555-17" transform="translate(27.9567,-19.3719)">
					<title>Sheet.2555</title>
					<path d="M14.28 125.25 L14.56 123.62 L13 122.66 L13 121.42 L14.24 119.89 L13.82 119.25 L13.36 118.44 L13.11 118.44
								 L11.27 118.9 L10.2 118.33 L9.96 116.1 L8.33 115.71 L7.26 117.16 L5.99 117.16 L4.32 116.1 L2.87 117.16
								 L2.87 117.41 L3.33 119.25 L2.59 120.28 L0.39 120.35 L0 121.99 L0.39 122.13 L2.02 123.12 L2.16 124.26
								 L0.81 125.96 L1.7 127.41 L1.95 127.41 L3.93 126.99 L4.82 127.8 L5.07 129.97 L6.7 130.36 L6.7 130.15
								 L7.69 128.51 L8.89 128.3 L10.63 129.65 L12.05 128.76 L12.05 128.51 L11.62 126.67 L12.19 125.6 L14.28
								 125.25 ZM7.02 125.25 A2.33858 2.34166 0 0 1 5.24 122.41 A2.37402 2.37714 0 0 1 8.08 120.64 A2.40945
								 2.41262 0 0 1 9.85 123.48 A2.37402 2.37714 0 0 1 7.02 125.14 L7.02 125.25 Z" class="st6"/>
				</g>
			</g>
		</g>
	</g>
</svg>
