<?xml version="1.0" encoding="UTF-8" standalone="no"?>
<!DOCTYPE svg PUBLIC "-//W3C//DTD SVG 1.1//EN" "http://www.w3.org/Graphics/SVG/1.1/DTD/svg11.dtd">
<!-- Generated by Microsoft Visio, SVG Export Service Health.svg Page-1 -->
<svg xmlns="http://www.w3.org/2000/svg" xmlns:xlink="http://www.w3.org/1999/xlink" xmlns:ev="http://www.w3.org/2001/xml-events"
		width="1.72775in" height="1.69337in" viewBox="0 0 124.398 121.922" xml:space="preserve" color-interpolation-filters="sRGB"
		class="st5">
	<style type="text/css">
	<![CDATA[
		.st1 {fill:url(#grad0-6);stroke:none;stroke-linecap:butt;stroke-width:34}
		.st2 {fill:none}
		.st3 {stroke:none;stroke-linecap:butt;stroke-width:34}
		.st4 {fill:#ffffff}
		.st5 {fill:none;fill-rule:evenodd;font-size:12px;overflow:visible;stroke-linecap:square;stroke-miterlimit:3}
	]]>
	</style>

	<defs id="Patterns_And_Gradients">
		<linearGradient id="grad0-6" x1="0" y1="0" x2="1" y2="0" gradientTransform="rotate(-90 0.5 0.5)">
			<stop offset="0" stop-color="#1988d9" stop-opacity="1"/>
			<stop offset="0.22" stop-color="#218ddc" stop-opacity="1"/>
			<stop offset="0.56" stop-color="#379ce5" stop-opacity="1"/>
			<stop offset="0.9" stop-color="#54aef0" stop-opacity="1"/>
		</linearGradient>
	</defs>
	<g>
		<title>Page-1</title>
		<g id="group2419-1" transform="translate(33.8524,-34.0157)">
			<title>Service Health</title>
			<g id="group2420-2">
				<title>Icon-general-4</title>
				<g id="shape2421-3">
					<title>Sheet.2421</title>
					<path d="M28.36 121.92 C55.5 102.28 56.43 90.82 56.53 87.23 C56.69 82.21 56.03 69.1 42.76 68.06 A14.1318 14.2773
								 -180 0 0 28.36 77.62 A14.1981 14.3443 -180 0 0 13.8 68.06 C0.7 69.1 0 82.21 0.17 87.23 C0.17 90.82
								 1.23 102.28 28.36 121.92 Z" class="st1"/>
				</g>
				<g id="shape2422-7" transform="translate(0,-0.167574)">
					<title>Sheet.2422</title>
					<path d="M56.53 87.4 C56.69 82.37 56.03 69.27 42.76 68.23 A14.1318 14.2773 -180 0 0 28.36 77.78 A14.1981 14.3443
								 -180 0 0 13.8 68.23 C0.7 69.27 0 82.37 0.17 87.4 C0.17 90.99 0.96 102.28 28.13 121.92 L56.53 87.4
								 Z" class="st2"/>
					<path d="M56.53 87.4 C56.69 82.37 56.03 69.27 42.76 68.23 A14.1318 14.2773 -180 0 0 28.36 77.78 A14.1981 14.3443
								 -180 0 0 13.8 68.23 C0.7 69.27 0 82.37 0.17 87.4 C0.17 90.99 0.96 102.28 28.13 121.92" class="st3"/>
				</g>
				<g id="shape2423-10" transform="translate(4.34568,-12.9687)">
					<title>Sheet.2423</title>
					<path d="M52.18 98.23 L38.91 98.23 a0.563944 0.569751 -180 0 0 -0.431251 0.234604 L34.47 105.47 a0.53077 0.536237
								 0 0 1 -0.895675 -7.10543E-14 L27.83 94.44 A1.02837 1.03896 -180 0 0 25.97 94.44 L20.47 111.03 a0.53077
								 0.536237 0 0 1 -0.962021 -4.26326E-14 L14.8 100 A1.02837 1.03896 -180 0 0 12.97 100 L6.54 111.7
								 a0.53077 0.536237 0 0 1 -0.431251 0.268118 L0 111.97 A43.1251 43.5692 -180 0 0 2.99 116.06 L8.56
								 116.06 a0.431251 0.435692 -180 0 0 0.431251 -0.268118 L13 108.31 a0.53077 0.536237 0 0 1 0.928848
								 0 L19.44 121.25 A1.02837 1.03896 -180 0 0 21.36 121.25 L27.17 103.82 a0.497597 0.502722 0 0 1 0.928848
								 -4.26326E-14 L32.94 113.11 a0.995195 1.00544 -180 0 0 1.75818 0 L40.87 102.62 a0.53077 0.536237
								 0 0 1 0.431251 -0.268118 L52.02 102.35 L52.18 98.23 Z" class="st4"/>
					<path d="M52.18 98.23 L38.91 98.23 a0.563944 0.569751 -180 0 0 -0.431251 0.234604 L34.47 105.47 a0.53077 0.536237
								 0 0 1 -0.895675 -7.10543E-14 L27.83 94.44 A1.02837 1.03896 -180 0 0 25.97 94.44 L20.47 111.03 a0.53077
								 0.536237 0 0 1 -0.962021 -4.26326E-14 L14.8 100 A1.02837 1.03896 -180 0 0 12.97 100 L6.54 111.7
								 a0.53077 0.536237 0 0 1 -0.431251 0.268118 L0 111.97 A43.1251 43.5692 -180 0 0 2.99 116.06 L8.56
								 116.06 a0.431251 0.435692 -180 0 0 0.431251 -0.268118 L13 108.31 a0.53077 0.536237 0 0 1 0.928848
								 0 L19.44 121.25 A1.02837 1.03896 -180 0 0 21.36 121.25 L27.17 103.82 a0.497597 0.502722 0 0 1 0.928848
								 -4.26326E-14 L32.94 113.11 a0.995195 1.00544 -180 0 0 1.75818 0 L40.87 102.62 a0.53077 0.536237
								 0 0 1 0.431251 -0.268118 L52.02 102.35" class="st3"/>
				</g>
			</g>
		</g>
	</g>
</svg>
