<?xml version="1.0" encoding="UTF-8" standalone="no"?>
<!DOCTYPE svg PUBLIC "-//W3C//DTD SVG 1.1//EN" "http://www.w3.org/Graphics/SVG/1.1/DTD/svg11.dtd">
<!-- Generated by Microsoft Visio, SVG Export Node JS.svg Page-1 -->
<svg xmlns="http://www.w3.org/2000/svg" xmlns:xlink="http://www.w3.org/1999/xlink" xmlns:ev="http://www.w3.org/2001/xml-events"
		width="1.03684in" height="0.92866in" viewBox="0 0 74.6526 66.8635" xml:space="preserve" color-interpolation-filters="sRGB"
		class="st8">
	<style type="text/css">
	<![CDATA[
		.st1 {fill:#000000;stroke:none;stroke-linecap:butt;stroke-width:8.97979}
		.st2 {fill:#333333;stroke:none;stroke-linecap:butt;stroke-width:8.97979}
		.st3 {fill:#699f63;stroke:none;stroke-linecap:butt;stroke-width:8.97979}
		.st4 {fill:url(#grad0-14);stroke:none;stroke-linecap:butt;stroke-width:8.97979}
		.st5 {fill:#000000;stroke:none;stroke-linecap:butt;stroke-width:0.75}
		.st6 {visibility:visible}
		.st7 {fill:#000000;font-family:Calibri;font-size:0.666664em}
		.st8 {fill:none;fill-rule:evenodd;font-size:12px;overflow:visible;stroke-linecap:square;stroke-miterlimit:3}
	]]>
	</style>

	<defs id="Patterns_And_Gradients">
		<linearGradient id="grad0-14" x1="0" y1="0" x2="1" y2="0" gradientTransform="rotate(119.29862583422 0.5 0.5)">
			<stop offset="0" stop-color="#41873f" stop-opacity="1"/>
			<stop offset="0.33" stop-color="#418b3d" stop-opacity="1"/>
			<stop offset="0.64" stop-color="#409637" stop-opacity="1"/>
			<stop offset="0.93" stop-color="#3fa92d" stop-opacity="1"/>
			<stop offset="1" stop-color="#3fae2a" stop-opacity="1"/>
		</linearGradient>
	</defs>
	<g>
		<title>Page-1</title>
		<g id="group6555-1" transform="translate(8.97988,-23.868)">
			<title>Node JS.6555</title>
			<desc>Node JS</desc>
			<g id="group6556-2">
				<title>layer1</title>
				<g id="shape6557-3" transform="translate(21.646,-1.56319E-13)">
					<title>path41</title>
					<path d="M6.31 66.86 A1.09322 1.05481 0 0 1 5.77 66.72 L4.03 65.73 C3.76 65.59 3.89 65.54 3.98 65.51 A3.48009
								 3.35782 -180 0 0 4.77 65.17 a0.136653 0.131851 0 0 1 0.127398 -1.42109E-14 L6.26 65.94 a0.173093
								 0.167012 -180 0 0 0.163895 0 L11.64 63.03 a0.163983 0.158222 -180 0 0 0.081949 -0.140531 L11.72
								 57.07 a0.173093 0.167012 -180 0 0 -0.081949 -0.14053 L6.4 53.99 a0.163983 0.158222 -180 0 0 -0.136699
								 2.13163E-14 L1.04 56.9 a0.163983 0.158222 -180 0 0 -0.0819476 0.14053 L0.96 62.86 a0.163983 0.158222
								 -180 0 0 0.0819476 0.13189 L2.47 63.79 C3.24 64.16 3.72 63.72 3.72 63.28 L3.72 57.57 a0.154873 0.149432
								 0 0 1 0.154944 -0.1495 L4.54 57.42 a0.154873 0.149432 0 0 1 0.154944 0.1495 L4.69 63.31 A1.44852
								 1.39762 0 0 1 3.14 64.89 A2.232 2.15357 0 0 1 1.91 64.53 L0.55 63.77 A1.10233 1.0636 0 0 1 -0 62.89
								 L0 57.07 A1.10233 1.0636 0 0 1 0.55 56.19 L5.77 53.28 A1.14788 1.10755 0 0 1 6.87 53.28 L12.09 56.19
								 A1.10233 1.0636 0 0 1 12.64 57.07 L12.64 62.89 A1.10233 1.0636 0 0 1 12.09 63.77 L6.87 66.68 A1.09322
								 1.05481 0 0 1 6.31 66.86 L6.31 66.86 Z" class="st1"/>
				</g>
				<g id="shape6558-5" transform="translate(26.684,-3.79755)">
					<title>path43</title>
					<path d="M2.73 66.86 C0.45 66.86 0 65.85 0 65 a0.145763 0.140641 0 0 1 0.154944 -0.149502 L0.83 64.85 a0.154873
								 0.149432 0 0 1 0.145648 0.122922 C1.07 65.63 1.38 65.98 2.8 65.98 C3.9 65.98 4.36 65.74 4.36 65.18
								 C4.36 64.85 4.23 64.61 2.54 64.45 C1.11 64.31 0.23 64.01 0.23 62.9 C0.23 61.79 1.14 61.27 2.61 61.27
								 C4.28 61.27 5.11 61.84 5.21 63.03 a0.154873 0.149432 0 0 1 -0.154943 0.158134 L4.38 63.19 a0.154873
								 0.149432 0 0 1 -0.145648 -0.114281 C4.07 62.38 3.68 62.2 2.61 62.2 C1.53 62.2 1.27 62.6 1.27 62.9
								 C1.27 63.2 1.43 63.37 3.09 63.58 C4.75 63.78 5.46 64.07 5.46 65.16 C5.46 66.25 4.38 66.86 2.73 66.86
								 L2.73 66.86 ZM10.26 60.76 a1.01123 0.9757 0 1 1 -1.01124 -0.975709 a1.01123 0.9757 0 0 1 1.01124
								 0.975709 ZM8.44 60.76 a0.847247 0.817479 -180 1 0 0.838145 -0.808666 a0.847247 0.817479 -180 0 0
								 -0.865451 0.808666 L8.44 60.76 ZM8.9 60.22 L9.29 60.22 C9.43 60.22 9.68 60.22 9.68 60.51 a0.255085
								 0.246123 0 0 1 -0.209692 0.263786 C9.63 60.77 9.64 60.88 9.66 61.02 A1.11144 1.07239 -180 0 0 9.71
								 61.31 L9.42 61.31 L9.42 60.97 C9.42 60.95 9.42 60.87 9.3 60.87 L9.1 60.87 L9.1 61.3 L8.87 61.3 L8.9
								 60.22 ZM9.11 60.69 L9.28 60.69 a0.154873 0.149432 -180 0 0 0.173193 -0.158139 C9.46 60.39 9.35 60.39
								 9.29 60.39 L9.11 60.39 L9.11 60.69 Z" class="st1"/>
				</g>
				<g id="shape6559-7" transform="translate(0,-12.513)">
					<title>path45</title>
					<path d="M12.42 57.03 a0.665043 0.641677 -180 0 0 -0.337092 -0.562556 L6.54 53.4 a0.655933 0.632887 -180 0 0
								 -0.300592 -0.0877073 L6.19 53.31 a0.665043 0.641677 -180 0 0 -0.309888 0.0877073 L0.34 56.48 a0.674154
								 0.650467 -180 0 0 -0.337092 0.562587 L0 65.32 a0.327967 0.316443 -180 0 0 0.163898 0.281394 a0.318856
								 0.307653 -180 0 0 0.327795 0 L3.81 63.77 a0.674154 0.650467 -180 0 0 0.337091 -0.562587 L4.14 59.34
								 a0.665043 0.641677 0 0 1 0.337089 -0.56259 L5.88 58 a0.665043 0.641677 0 0 1 0.337092 -0.0877073
								 a0.655933 0.632887 0 0 1 0.337091 0.0877073 L7.96 58.78 a0.665043 0.641677 0 0 1 0.337089 0.56259
								 L8.3 63.21 a0.674154 0.650467 -180 0 0 0.337091 0.562587 L11.91 65.62 a0.327967 0.316443 -180 0
								 0 0.337092 1.42109E-14 a0.337077 0.325233 -180 0 0 0.163895 -0.281394 L12.42 57.03 ZM38.27 45.4
								 a0.209534 0.202172 -180 0 0 -0.255142 -2.84217E-14 C37.92 45.46 37.93 45.57 37.93 45.68 L37.93 53.93
								 C37.93 54.01 37.81 54.09 37.73 54.12 a0.309746 0.298863 0 0 1 -0.273391 1.56319E-13 L36.06 53.31
								 a0.683264 0.659257 -180 0 0 -0.674147 -1.13687E-13 L29.92 56.4 C29.71 56.51 29.7 56.72 29.7 56.96
								 L29.7 63.11 C29.7 63.34 29.7 63.55 29.92 63.68 L35.38 66.76 a0.619493 0.597726 -180 0 0 0.637719
								 -2.13163E-13 L41.38 63.68 C41.59 63.56 41.52 63.35 41.52 63.11 L41.52 47.78 C41.52 47.55 41.52 47.34
								 41.35 47.22 L38.27 45.4 ZM37.93 61.14 C37.93 61.2 37.81 61.25 37.76 61.28 L35.82 62.33 a0.209534
								 0.202172 0 0 1 -0.191445 1.06581E-13 L33.59 61.28 C33.53 61.22 33.37 61.22 33.37 61.14 L33.37 59.02
								 C33.37 58.96 33.53 58.9 33.58 58.88 L35.55 57.81 a0.227755 0.219752 0 0 1 0.200395 -1.42109E-14
								 L37.75 58.88 C37.81 58.88 37.94 58.96 37.94 59.02 L37.93 61.14 ZM56.36 59.1 a0.665043 0.641677 -180
								 0 0 0.337091 -0.562556 L56.69 57.04 a0.665043 0.641677 -180 0 0 -0.337091 -0.562587 L50.89 53.39
								 a0.665043 0.641677 -180 0 0 -0.674147 1.06581E-13 L44.68 56.48 a0.665043 0.641677 -180 0 0 -0.337088
								 0.562587 L44.34 63.19 a0.665043 0.641677 -180 0 0 0.337088 0.562556 L50.14 66.78 a0.665043 0.641677
								 -180 0 0 0.655934 7.10543E-14 L54.12 65.02 a0.337077 0.325233 -180 0 0 3.05533E-13 -0.562556 L48.55
								 61.37 a0.337077 0.325233 0 0 1 -0.163898 -0.281394 L48.38 59.16 a0.337077 0.325233 0 0 1 0.163898
								 -0.281394 L50.28 57.91 a0.337077 0.325233 0 0 1 0.337091 3.55271E-14 L52.36 58.88 a0.337077 0.325233
								 0 0 1 0.163898 0.281394 L52.52 60.68 a0.337077 0.325233 -180 0 0 0.501058 0.281394 L56.36 59.1 Z"
							class="st2"/>
				</g>
				<g id="shape6560-9" transform="translate(49.3046,-17.9768)">
					<title>path47</title>
					<path d="M1.13 64.27 a0.127543 0.123061 0 0 1 0.127398 0 L2.32 64.86 a0.127543 0.123061 0 0 1 0.0636991 0.105649
								 L2.39 66.15 a0.127543 0.123061 0 0 1 -0.0636991 0.105646 L1.26 66.85 a0.127543 0.123061 0 0 1 -0.127398
								 0 L0.06 66.26 a0.127543 0.123061 0 0 1 -0.0636991 -0.105646 L0 64.93 a0.127543 0.123061 0 0 1 0.0636991
								 -0.105313 L1.13 64.27 Z" class="st3"/>
				</g>
				<g id="shape6561-11" transform="translate(14.4216,-12.5808)">
					<title>_Clipping_Path_2</title>
					<path d="M6.47 53.38 a0.665043 0.641677 -180 0 0 -0.665021 7.10543E-15 L0.34 56.45 a0.665043 0.641677 -180 0
								 0 -0.337091 0.553784 L0 63.16 a0.665043 0.641677 -180 0 0 0.337091 0.553784 L5.8 66.78 a0.665043
								 0.641677 -180 0 0 0.665021 0 L11.93 63.71 a0.665043 0.641677 -180 0 0 0.337091 -0.553784 L12.27
								 57 a0.665043 0.641677 -180 0 0 -0.337091 -0.553784 L6.47 53.38 Z" class="st4"/>
				</g>
				<g id="group6562-15" transform="translate(14.4217,-12.5808)">
					<title>clip-path</title>
					<g id="shape6563-16">
						<title>_Clipping_Path_</title>
						<path d="M6.47 53.38 a0.665043 0.641677 -180 0 0 -0.665043 -7.10543E-15 L0.34 56.45 a0.665043 0.641677 -180
									 0 0 -0.337077 0.553776 L0 63.16 a0.665043 0.641677 -180 0 0 0.337077 0.553776 L5.8 66.78 a0.665043
									 0.641677 -180 0 0 0.665043 0 L11.93 63.71 a0.665043 0.641677 -180 0 0 0.337077 -0.553776 L12.27
									 57 a0.665043 0.641677 -180 0 0 -0.337077 -0.553776 L6.47 53.38 Z" class="st5"/>
					</g>
				</g>
			</g>
			<g id="shape6555-18">
				<g id="shadow6555-19" transform="matrix(1,0,0,1,1.41732,1.41732)" class="st6"/>
				<text x="15.55" y="79.17" class="st7">Node JS</text>			</g>
		</g>
	</g>
</svg>
