<?xml version="1.0" encoding="UTF-8" standalone="no"?>
<!DOCTYPE svg PUBLIC "-//W3C//DTD SVG 1.1//EN" "http://www.w3.org/Graphics/SVG/1.1/DTD/svg11.dtd">
<!-- Generated by Microsoft Visio, SVG Export REST.svg Page-1 -->
<svg xmlns="http://www.w3.org/2000/svg" xmlns:xlink="http://www.w3.org/1999/xlink" xmlns:ev="http://www.w3.org/2001/xml-events"
		width="0.944882in" height="1.41732in" viewBox="0 0 68.0315 102.047" xml:space="preserve" color-interpolation-filters="sRGB"
		class="st6">
	<style type="text/css">
	<![CDATA[
		.st1 {fill:#004b1c;stroke:none;stroke-linecap:butt;stroke-width:8.97581}
		.st2 {fill:#006020;stroke:none;stroke-linecap:butt;stroke-width:8.97581}
		.st3 {fill:#ffffff;stroke:none;stroke-linecap:butt;stroke-width:8.97581}
		.st4 {visibility:visible}
		.st5 {fill:#000000;font-family:Calibri;font-size:0.666664em}
		.st6 {fill:none;fill-rule:evenodd;font-size:12px;overflow:visible;stroke-linecap:square;stroke-miterlimit:3}
	]]>
	</style>

	<g>
		<title>Page-1</title>
		<g id="group6530-1" transform="translate(5.66929,-39.685)">
			<title>REST.6530</title>
			<desc>REST</desc>
			<g id="group6531-2">
				<title>layer1</title>
				<g id="shape6532-3" transform="translate(-43.8118,29.8889) rotate(-45)">
					<title>circle2</title>
					<ellipse cx="20.044" cy="82.0033" rx="20.044" ry="20.044" class="st1"/>
				</g>
				<g id="shape6533-5" transform="translate(14.1703,-14.1732)">
					<title>path4</title>
					<path d="M28.35 73.7 A20.044 20.044 0 0 1 28.35 102.05 L0 73.7 A20.044 20.044 0 0 1 28.35 73.7 Z" class="st2"/>
				</g>
				<g id="shape6534-7" transform="translate(13.0582,-22.9795)">
					<title>path6</title>
					<path d="M6.41 101.85 L4.64 98.48 A6.69857 6.69857 -180 0 0 4.13 97.64 A2.61865 2.61865 -180 0 0 3.62 97.11 A1.69404
								 1.69404 -180 0 0 3.06 96.82 A2.41174 2.41174 -180 0 0 2.41 96.74 L1.06 96.74 L1.06 101.85 L0 101.85
								 L0 90.08 L3.39 90.08 A4.2157 4.2157 0 0 1 4.68 90.27 A3.40748 3.40748 0 0 1 5.79 90.85 A2.84495
								 2.84495 0 0 1 6.56 91.82 A2.9872 2.9872 0 0 1 6.85 93.18 A3.38161 3.38161 0 0 1 6.67 94.33 A2.9484
								 2.9484 0 0 1 6.13 95.26 A3.18764 3.18764 0 0 1 5.28 95.95 A4.03466 4.03466 0 0 1 4.16 96.37 L4.16
								 96.4 A1.81042 1.81042 0 0 1 4.6 96.65 A2.61865 2.61865 0 0 1 4.98 97.03 A4.78469 4.78469 0 0 1 5.34
								 97.54 C5.46 97.73 5.59 97.95 5.72 98.19 L7.69 101.85 L6.41 101.85 ZM1.06 91.08 L1.06 95.74 L3 95.74
								 A3.2329 3.2329 -180 0 0 4.09 95.56 A2.40528 2.40528 -180 0 0 4.93 95.07 A2.22423 2.22423 -180 0
								 0 5.47 94.3 A2.58632 2.58632 -180 0 0 5.66 93.29 A2.04319 2.04319 -180 0 0 5.02 91.67 A2.78676 2.78676
								 -180 0 0 3.08 91.08 L1.06 91.08 ZM9.27 101.85 L9.27 90.08 L15.01 90.08 L15.01 91.08 L10.36 91.08
								 L10.36 95.39 L14.64 95.39 L14.64 96.37 L10.36 96.37 L10.36 100.84 L15.29 100.84 L15.29 101.85 L9.27
								 101.85 ZM16.85 100.13 A4.12518 4.12518 -180 0 0 17.5 100.53 A5.25669 5.25669 -180 0 0 18.98 101.01
								 A4.41614 4.41614 -180 0 0 19.7 101.07 A3.2329 3.2329 -180 0 0 21.71 100.55 A1.77163 1.77163 -180
								 0 0 22.35 99.07 A1.99793 1.99793 -180 0 0 22.2 98.25 A2.02379 2.02379 -180 0 0 21.71 97.61 A5.01099
								 5.01099 -180 0 0 20.88 97 C20.55 96.81 20.15 96.59 19.7 96.36 C19.25 96.12 18.82 95.87 18.41 95.58
								 A4.7071 4.7071 0 0 1 17.53 94.83 A2.5152 2.5152 0 0 1 17.03 94 A2.96134 2.96134 0 0 1 16.87 93 A2.65744
								 2.65744 0 0 1 17.17 91.7 A2.9872 2.9872 0 0 1 17.99 90.74 A3.78249 3.78249 0 0 1 19.2 90.12 A4.99806
								 4.99806 0 0 1 20.68 89.91 A6.11018 6.11018 0 0 1 23.01 90.3 L23.01 91.51 A4.82348 4.82348 -180 0
								 0 20.59 90.86 A3.73723 3.73723 -180 0 0 19.6 90.99 A2.58632 2.58632 -180 0 0 18.78 91.37 A1.80396
								 1.80396 -180 0 0 18.23 91.98 A1.7393 1.7393 -180 0 0 18.03 92.83 A2.09492 2.09492 -180 0 0 18.17
								 93.62 A1.88155 1.88155 -180 0 0 18.6 94.26 A4.11871 4.11871 -180 0 0 19.39 94.85 C19.71 95.04 20.11
								 95.26 20.59 95.5 A14.3929 14.3929 0 0 1 21.88 96.27 A5.03686 5.03686 0 0 1 22.8 97.05 A2.85788 2.85788
								 0 0 1 23.34 97.91 A2.7415 2.7415 0 0 1 23.52 98.92 A3.06479 3.06479 0 0 1 23.24 100.28 A2.64451
								 2.64451 0 0 1 22.4 101.27 A3.67257 3.67257 0 0 1 21.17 101.85 A5.88388 5.88388 0 0 1 19.6 102.05
								 A5.81922 5.81922 0 0 1 18.96 102 A7.6943 7.6943 0 0 1 18.18 101.87 A7.27402 7.27402 0 0 1 17.43
								 101.67 A2.71563 2.71563 0 0 1 16.85 101.41 L16.85 100.13 ZM28.9 91.08 L28.9 101.85 L27.81 101.85
								 L27.81 91.08 L24.41 91.08 L24.41 90.08 L32.3 90.08 L32.3 91.08 L28.9 91.08 Z" class="st3"/>
				</g>
			</g>
			<g id="shape6530-9">
				<g id="shadow6530-10" transform="matrix(1,0,0,1,1.41732,1.41732)" class="st4"/>
				<text x="20.43" y="117.75" class="st5">REST</text>			</g>
		</g>
	</g>
</svg>
