<?xml version="1.0" encoding="UTF-8" standalone="no"?>
<!DOCTYPE svg PUBLIC "-//W3C//DTD SVG 1.1//EN" "http://www.w3.org/Graphics/SVG/1.1/DTD/svg11.dtd">
<!-- Generated by Microsoft Visio, SVG Export Blockchain Streaming.svg Page-1 -->
<svg xmlns="http://www.w3.org/2000/svg" xmlns:xlink="http://www.w3.org/1999/xlink" xmlns:ev="http://www.w3.org/2001/xml-events"
		width="0.944882in" height="1.16535in" viewBox="0 0 68.0315 83.9055" xml:space="preserve" color-interpolation-filters="sRGB"
		class="st7">
	<style type="text/css">
	<![CDATA[
		.st1 {fill:#773adc;stroke:none;stroke-linecap:butt;stroke-width:0.75}
		.st2 {fill:#b796f9;stroke:none;stroke-linecap:butt;stroke-width:0.75}
		.st3 {fill:#a67af4;stroke:none;stroke-linecap:butt;stroke-width:0.75}
		.st4 {fill:#552f99;stroke:none;stroke-linecap:butt;stroke-width:0.75}
		.st5 {fill:#50e6ff;stroke:none;stroke-linecap:butt;stroke-width:0.75}
		.st6 {fill:#32bedd;stroke:none;stroke-linecap:butt;stroke-width:0.75}
		.st7 {fill:none;fill-rule:evenodd;font-size:12px;overflow:visible;stroke-linecap:square;stroke-miterlimit:3}
	]]>
	</style>

	<g>
		<title>Page-1</title>
		<g id="group5782-1" transform="translate(5.66929,-34.0157)">
			<title>Blockchain Streaming.5782</title>
			<g id="shape5783-2" transform="translate(26.7185,-8.06007)">
				<title>Sheet.5783</title>
				<path d="M16.85 55.95 L16.85 74.54 L0 83.91 L0 65.26 L16.85 55.95 Z" class="st1"/>
			</g>
			<g id="shape5784-4" transform="translate(9.83188,-26.677)">
				<title>Sheet.5784</title>
				<path d="M33.74 74.57 L16.89 83.91 L0 74.57 L16.89 65.23 L33.74 74.57 Z" class="st2"/>
			</g>
			<g id="shape5785-6" transform="translate(9.83188,-8.06007)">
				<title>Sheet.5785</title>
				<path d="M16.89 65.29 L16.89 83.91 L0 74.54 L0 55.95 L16.89 65.29 Z" class="st3"/>
			</g>
			<g id="shape5786-8" transform="translate(31.2194,-16.6734)">
				<title>Sheet.5786</title>
				<path d="M3.99 73.96 C6.22 72.75 8.01 73.72 8.01 76.14 A8.84231 8.37156 0 0 1 4.02 82.7 C1.79 83.91 0 82.94 0 80.52
							 A8.84231 8.37156 0 0 1 3.99 73.96 Z" class="st4"/>
			</g>
			<g id="shape5787-10" transform="translate(34.3477,-20.149)">
				<title>Sheet.5787</title>
				<path d="M12.07 83.91 L2.01 83.91 A2.01107 1.904 0 0 1 2.01 80.1 L12.07 80.1 A6.57587 6.22578 -180 0 0 18.45 73.66
							 A6.57587 6.22578 -180 0 0 12.07 67.19 A2.01107 1.904 0 0 1 12.07 63.38 A10.5661 10.0036 0 0 1 22.35
							 73.66 A10.5661 10.0036 0 0 1 12.07 83.91 Z" class="st5"/>
			</g>
			<g id="shape5788-12">
				<title>Sheet.5788</title>
				<path d="M37.73 75.97 L29.97 68.62 a0.414982 0.392889 -180 0 0 -0.638434 -2.84217E-14 L29.34 74.27 L10.18 74.27 A6.57587
							 6.22578 0 0 1 3.8 67.81 A6.60779 6.25601 0 0 1 9.83 61.43 L9.83 57.62 A10.6299 10.064 -180 0 0 0 67.87
							 A10.598 10.0338 -180 0 0 10.28 78.14 L29.43 78.14 L29.43 83.76 a0.414982 0.392889 -180 0 0 0.638434
							 7.10543E-14 L37.73 76.36 a0.351139 0.332445 -180 0 0 -9.23706E-14 -0.392889 Z" class="st6"/>
			</g>
		</g>
	</g>
</svg>
