<?xml version="1.0" encoding="UTF-8" standalone="no"?>
<!DOCTYPE svg PUBLIC "-//W3C//DTD SVG 1.1//EN" "http://www.w3.org/Graphics/SVG/1.1/DTD/svg11.dtd">
<!-- Generated by Microsoft Visio, SVG Export API Management Service.svg Page-1 -->
<svg xmlns="http://www.w3.org/2000/svg" xmlns:xlink="http://www.w3.org/1999/xlink" xmlns:ev="http://www.w3.org/2001/xml-events"
		width="1.73185in" height="1.677in" viewBox="0 0 124.693 120.744" xml:space="preserve" color-interpolation-filters="sRGB"
		class="st5">
	<style type="text/css">
	<![CDATA[
		.st1 {fill:url(#grad0-6);stroke:none;stroke-linecap:butt;stroke-width:34}
		.st2 {fill:url(#grad0-10);stroke:none;stroke-linecap:butt;stroke-width:34}
		.st3 {visibility:visible}
		.st4 {fill:#000000;font-family:Calibri;font-size:0.666664em}
		.st5 {fill:none;fill-rule:evenodd;font-size:12px;overflow:visible;stroke-linecap:square;stroke-miterlimit:3}
	]]>
	</style>

	<defs id="Patterns_And_Gradients">
		<linearGradient id="grad0-6" x1="0" y1="0" x2="1" y2="0" gradientTransform="rotate(-90 0.5 0.5)">
			<stop offset="0" stop-color="#198ab3" stop-opacity="1"/>
			<stop offset="0.09" stop-color="#1f9dc4" stop-opacity="1"/>
			<stop offset="0.24" stop-color="#28b5d9" stop-opacity="1"/>
			<stop offset="0.4" stop-color="#2dc6e9" stop-opacity="1"/>
			<stop offset="0.57" stop-color="#31d1f2" stop-opacity="1"/>
			<stop offset="0.78" stop-color="#32d4f5" stop-opacity="1"/>
		</linearGradient>
		<linearGradient id="grad0-10" x1="0" y1="0" x2="1" y2="0" gradientTransform="rotate(90 0.5 0.5)">
			<stop offset="0" stop-color="#c69aeb" stop-opacity="1"/>
			<stop offset="1" stop-color="#6f4bb2" stop-opacity="1"/>
		</linearGradient>
	</defs>
	<g>
		<title>Page-1</title>
		<g id="group8091-1" transform="translate(34,-35.7165)">
			<title>API Management Service.8091</title>
			<desc>API Management Service</desc>
			<g id="group8092-2">
				<title>Sheet.8092</title>
				<g id="shape8093-3">
					<title>Sheet.8093</title>
					<path d="M45.62 85.08 A16.1742 15.8124 -180 0 0 29.11 69.72 A16.6744 16.3015 -180 0 0 13.27 80.45 A15.3738 15.03
								 -180 0 0 0 95.22 A15.5739 15.2256 -180 0 0 15.97 109.89 A10.0046 9.78089 -180 0 0 17.37 109.89 L21.38
								 109.89 A4.90227 4.79263 0 0 1 21.01 108.06 A5.03566 4.92305 0 0 1 21.68 105.68 L15.97 105.68 A11.3719
								 11.1176 0 0 1 4.24 95.22 A11.1051 10.8568 0 0 1 13.94 84.55 L16.47 84.16 L17.31 81.78 A12.4391 12.1609
								 0 0 1 29.11 73.86 A12.0056 11.7371 0 0 1 41.39 85.11 L41.39 88.69 L45.02 89.18 A8.63733 8.44416
								 0 0 1 52.56 97.3 A8.77073 8.57458 0 0 1 43.82 105.58 L39.72 105.58 A13.0727 12.7804 -180 0 0 26.81
								 95.22 A2.13432 2.08659 -180 1 0 26.81 99.36 A8.83742 8.63978 0 0 1 26.81 116.6 A2.13432 2.08659
								 -180 1 0 26.81 120.74 A13.0727 12.7804 -180 0 0 39.72 109.85 L43.22 109.85 A2.13432 2.08659 -180
								 0 0 43.89 109.85 A13.0394 12.7478 -180 0 0 56.69 97.3 A12.8726 12.5847 -180 0 0 45.62 85.08 Z"
							class="st1"/>
				</g>
				<g id="shape8094-7" transform="translate(21.0097,-7.6943)">
					<title>Sheet.8094</title>
					<path d="M0 115.72 A5.13583 5.02097 -180 0 0 5.14 120.74 L5.27 120.74 A5.13583 5.02097 -180 0 0 10.4 115.72 L10.4
								 115.59 A5.13583 5.02097 -180 0 0 5.27 110.57 L5.14 110.57 A5.13583 5.02097 -180 0 0 0 115.59 L0
								 115.72 Z" class="st2"/>
				</g>
			</g>
			<g id="shape8091-11">
				<g id="shadow8091-12" transform="matrix(1,0,0,1,1.41732,1.41732)" class="st3"/>
				<text x="-12.33" y="135.6" class="st4">API Management Service</text>			</g>
		</g>
	</g>
</svg>
