<?xml version="1.0" encoding="UTF-8" standalone="no"?>
<!DOCTYPE svg PUBLIC "-//W3C//DTD SVG 1.1//EN" "http://www.w3.org/Graphics/SVG/1.1/DTD/svg11.dtd">
<!-- Generated by Microsoft Visio, SVG Export Management Group.svg Page-1 -->
<svg xmlns="http://www.w3.org/2000/svg" xmlns:xlink="http://www.w3.org/1999/xlink" xmlns:ev="http://www.w3.org/2001/xml-events"
		width="1.15266in" height="1.24087in" viewBox="0 0 82.9916 89.3424" xml:space="preserve" color-interpolation-filters="sRGB"
		class="st8">
	<style type="text/css">
	<![CDATA[
		.st1 {fill:#57a300;stroke:none;stroke-linecap:butt;stroke-width:12.24}
		.st2 {fill:#3999c6;stroke:none;stroke-linecap:butt;stroke-width:12.24}
		.st3 {fill:#804998;stroke:none;stroke-linecap:butt;stroke-width:12.24}
		.st4 {fill:#0072c6;stroke:none;stroke-linecap:butt;stroke-width:12.24}
		.st5 {fill:#7a7a7a;stroke:none;stroke-linecap:butt;stroke-width:12.24}
		.st6 {visibility:visible}
		.st7 {fill:#000000;font-family:Calibri;font-size:0.666664em}
		.st8 {fill:none;fill-rule:evenodd;font-size:12px;overflow:visible;stroke-linecap:square;stroke-miterlimit:3}
	]]>
	</style>

	<g>
		<title>Page-1</title>
		<g id="group7633-1" transform="translate(12.24,-31.748)">
			<title>Management Group.7633</title>
			<desc>Management Group</desc>
			<g id="group7634-2">
				<title> ManagementGroups</title>
				<g id="shape7635-3" transform="translate(10.292,-10.1205)">
					<title>Sheet.7635</title>
					<path d="M29.39 72.52 L29.07 73.3 L18.93 61.25 L18.05 61.97 L17.18 61.25 L7.04 73.3 L6.72 72.52 L0 88.48 L2.09
								 89.34 L6.72 78.36 L11.34 89.34 L13.43 88.48 L8.03 75.64 L18.05 63.72 L28.08 75.64 L22.68 88.48 L24.77
								 89.34 L29.39 78.36 L34.02 89.34 L36.11 88.48 L29.39 72.52 Z" class="st1"/>
				</g>
				<g id="shape7636-5" transform="translate(41.9528,-7.18484)">
					<title>Sheet.7636</title>
					<ellipse cx="3.40157" cy="85.9745" rx="3.40157" ry="3.3679" class="st2"/>
				</g>
				<g id="shape7637-7" transform="translate(30.6142,-7.18484)">
					<title>Sheet.7637</title>
					<ellipse cx="3.40157" cy="85.9745" rx="3.40157" ry="3.3679" class="st2"/>
				</g>
				<g id="shape7638-9" transform="translate(22.6772,-31.8827)">
					<title>Sheet.7638</title>
					<ellipse cx="5.66929" cy="83.7292" rx="5.66929" ry="5.61316" class="st3"/>
				</g>
				<g id="shape7639-11" transform="translate(12.4724,-19.5338)">
					<title>Sheet.7639</title>
					<ellipse cx="4.53543" cy="84.8518" rx="4.53543" ry="4.49053" class="st4"/>
				</g>
				<g id="shape7640-13" transform="translate(35.1496,-19.5338)">
					<title>Sheet.7640</title>
					<ellipse cx="4.53543" cy="84.8518" rx="4.53543" ry="4.49053" class="st4"/>
				</g>
				<g id="shape7641-15" transform="translate(19.2756,-7.18484)">
					<title>Sheet.7641</title>
					<ellipse cx="3.40157" cy="85.9745" rx="3.40157" ry="3.3679" class="st2"/>
				</g>
				<g id="shape7642-17" transform="translate(7.93701,-7.18484)">
					<title>Sheet.7642</title>
					<ellipse cx="3.40157" cy="85.9745" rx="3.40157" ry="3.3679" class="st2"/>
				</g>
				<g id="shape7643-19">
					<title>Sheet.7643</title>
					<path d="M10.77 89.34 A2.10217 2.08136 0 0 1 9.98 89.12 L2.27 84.63 A4.67717 4.63086 0 0 1 0 80.81 L0 52.52 A4.52863
								 4.48379 0 0 1 2.27 48.7 L9.98 44.21 A1.65317 1.6368 0 0 1 11.68 47.02 L3.97 51.51 A1.52617 1.51106
								 -180 0 0 3.4 52.52 L3.4 80.81 A1.52617 1.51106 -180 0 0 3.97 81.82 L11.68 86.31 A1.6509 1.63455
								 0 0 1 12.25 88.56 A1.93776 1.91858 0 0 1 10.77 89.34 ZM45.92 43.99 A2.10217 2.08136 0 0 1 46.71
								 44.21 L54.43 48.7 A4.67717 4.63086 0 0 1 56.69 52.52 L56.69 80.81 A4.52863 4.48379 0 0 1 54.43 84.63
								 L46.71 89.12 A1.65317 1.6368 0 0 1 45.01 86.31 L52.72 81.82 A1.52617 1.51106 -180 0 0 53.29 80.81
								 L53.29 52.52 A1.52617 1.51106 -180 0 0 52.72 51.51 L45.01 47.02 A1.6509 1.63455 0 0 1 44.45 44.77
								 A2.14186 2.12065 0 0 1 45.92 43.99 Z" class="st5"/>
				</g>
			</g>
			<g id="shape7633-21">
				<g id="shadow7633-22" transform="matrix(1,0,0,1,1.41732,1.41732)" class="st6"/>
				<text x="-4.64" y="103.35" class="st7">Management Group</text>			</g>
		</g>
	</g>
</svg>
