<?xml version="1.0" encoding="UTF-8" standalone="no"?>
<!DOCTYPE svg PUBLIC "-//W3C//DTD SVG 1.1//EN" "http://www.w3.org/Graphics/SVG/1.1/DTD/svg11.dtd">
<!-- Generated by Microsoft Visio, SVG Export Recovery Services Vault.svg Page-1 -->
<svg xmlns="http://www.w3.org/2000/svg" xmlns:xlink="http://www.w3.org/1999/xlink" xmlns:ev="http://www.w3.org/2001/xml-events"
		width="1.73185in" height="1.61381in" viewBox="0 0 124.693 116.194" xml:space="preserve" color-interpolation-filters="sRGB"
		class="st6">
	<style type="text/css">
	<![CDATA[
		.st1 {fill:url(#grad0-6);stroke:none;stroke-linecap:butt;stroke-width:34}
		.st2 {fill:#ffffff;stroke:none;stroke-linecap:butt;stroke-width:34}
		.st3 {fill:url(#grad0-12);stroke:none;stroke-linecap:butt;stroke-width:34}
		.st4 {visibility:visible}
		.st5 {fill:#000000;font-family:Calibri;font-size:0.666664em}
		.st6 {fill:none;fill-rule:evenodd;font-size:12px;overflow:visible;stroke-linecap:square;stroke-miterlimit:3}
	]]>
	</style>

	<defs id="Patterns_And_Gradients">
		<linearGradient id="grad0-6" x1="0" y1="0" x2="1" y2="0" gradientTransform="rotate(-90 0.5 0.5)">
			<stop offset="0" stop-color="#0078d4" stop-opacity="1"/>
			<stop offset="0.16" stop-color="#1380da" stop-opacity="1"/>
			<stop offset="0.53" stop-color="#3c91e5" stop-opacity="1"/>
			<stop offset="0.82" stop-color="#559cec" stop-opacity="1"/>
			<stop offset="1" stop-color="#5ea0ef" stop-opacity="1"/>
		</linearGradient>
		<linearGradient id="grad0-12" x1="0" y1="0" x2="1" y2="0" gradientTransform="rotate(-90 0.5 0.5)">
			<stop offset="0" stop-color="#198ab3" stop-opacity="1"/>
			<stop offset="0.13" stop-color="#21a0c7" stop-opacity="1"/>
			<stop offset="0.31" stop-color="#28b7db" stop-opacity="1"/>
			<stop offset="0.5" stop-color="#2ec7ea" stop-opacity="1"/>
			<stop offset="0.72" stop-color="#31d1f2" stop-opacity="1"/>
			<stop offset="1" stop-color="#32d4f5" stop-opacity="1"/>
		</linearGradient>
	</defs>
	<g>
		<title>Page-1</title>
		<g id="group7537-1" transform="translate(34,-34)">
			<title>Recovery Services Vault.7537</title>
			<desc>Recovery Services Vault</desc>
			<g id="group7538-2">
				<title>Sheet.7538</title>
				<g id="shape7539-3" transform="translate(13.4173,-17.8891)">
					<title>Sheet.7539</title>
					<path d="M43.28 106.63 A9.73228 9.53428 -180 0 0 34.83 97.37 A12.252 12.0027 -180 0 0 22.24 85.89 A12.5984 12.3421
								 -180 0 0 10.2 94.01 A11.5906 11.3547 -180 0 0 0 104.96 A11.7795 11.5399 -180 0 0 12.19 116.19 L33.51
								 116.19 A9.85827 9.6577 -180 0 0 43.28 106.63 Z" class="st1"/>
				</g>
				<g id="shape7540-7" transform="translate(23.2126,-21.962)">
					<title>Sheet.7540</title>
					<path d="M22.11 102.43 L16.35 96.94 C15.72 96.32 15.18 96.54 15.18 97.5 L15.18 99.96 a0.692913 0.678816 0 0 1
								 -0.724409 0.678816 C10.74 100.64 0.38 101.6 0 115.48 a0.724409 0.709671 -180 0 0 0.724409 0.709671
								 L4.41 116.19 a0.724409 0.709671 -180 0 0 0.724409 -0.771382 A8.69291 8.51605 0 0 1 14.58 105.15
								 a0.724409 0.709671 0 0 1 0.724409 0.709671 L15.31 108.14 C15.31 109.28 15.69 109.47 16.47 108.7
								 L22.11 103.61 a0.724409 0.709671 -180 0 0 -1.06581E-14 -1.1725 Z" class="st2"/>
				</g>
				<g id="shape7541-9">
					<title>Sheet.7541</title>
					<path d="M44.47 106.51 A9.98425 9.78112 -180 0 0 35.81 97.1 A12.5984 12.3421 -180 0 0 22.83 85.28 A12.9134 12.6507
								 -180 0 0 10.49 93.55 A11.9055 11.6633 -180 0 0 -0 104.78 A12.0945 11.8484 -180 0 0 12.6 116.17 L33.95
								 116.17 A1.48031 1.4502 -180 0 0 34.49 116.17 A10.1102 9.90454 -180 0 0 44.47 106.51 Z" class="st3"/>
				</g>
			</g>
			<g id="shape7537-13">
				<g id="shadow7537-14" transform="matrix(1,0,0,1,1.41732,1.41732)" class="st4"/>
				<text x="-10.16" y="130.62" class="st5">Recovery Services Vault</text>			</g>
		</g>
	</g>
</svg>
