<?xml version="1.0" encoding="UTF-8" standalone="no"?>
<!DOCTYPE svg PUBLIC "-//W3C//DTD SVG 1.1//EN" "http://www.w3.org/Graphics/SVG/1.1/DTD/svg11.dtd">
<!-- Generated by Microsoft Visio, SVG Export Resource Group.svg Page-1 -->
<svg xmlns="http://www.w3.org/2000/svg" xmlns:xlink="http://www.w3.org/1999/xlink" xmlns:ev="http://www.w3.org/2001/xml-events"
		width="1.73185in" height="1.7443in" viewBox="0 0 124.693 125.589" xml:space="preserve" color-interpolation-filters="sRGB"
		class="st8">
	<style type="text/css">
	<![CDATA[
		.st1 {fill:#949494;stroke:none;stroke-linecap:butt;stroke-width:34}
		.st2 {fill:#a3a3a3;stroke:none;stroke-linecap:butt;stroke-width:34}
		.st3 {fill:#32bedd;stroke:none;stroke-linecap:butt;stroke-width:34}
		.st4 {fill:#9cebff;stroke:none;stroke-linecap:butt;stroke-width:34}
		.st5 {fill:#50e6ff;stroke:none;stroke-linecap:butt;stroke-width:34}
		.st6 {visibility:visible}
		.st7 {fill:#000000;font-family:Calibri;font-size:0.666664em}
		.st8 {fill:none;fill-rule:evenodd;font-size:12px;overflow:visible;stroke-linecap:square;stroke-miterlimit:3}
	]]>
	</style>

	<g>
		<title>Page-1</title>
		<g id="group7526-1" transform="translate(34,-37.7008)">
			<title>Resource Group.7526</title>
			<desc>Resource Group</desc>
			<g id="group7527-2">
				<title>Sheet.7527</title>
				<g id="shape7528-3">
					<title>Sheet.7528</title>
					<path d="M0 119.08 a0.53358 0.537585 -180 0 0 0.26679 0.470387 L4.14 121.74 L10.67 125.53 a0.566929 0.571184
								 -180 0 0 0.767022 -0.201594 L13.64 121.57 a0.53358 0.537585 -180 0 0 -0.200093 -0.705581 L5.77 116.49
								 a0.566929 0.571184 0 0 1 -0.26679 -0.470387 L5.5 81.35 a0.53358 0.537585 0 0 1 0.26679 -0.470387
								 L13.44 76.51 a0.53358 0.537585 -180 0 0 0.200093 -0.705581 L11.44 72.04 a0.566929 0.571184 -180
								 0 0 -0.767022 -0.268793 L4.27 75.5 L0.27 77.75 a0.53358 0.537585 -180 0 0 -0.26679 0.470387 L0 119.08
								 Z" class="st1"/>
				</g>
				<g id="shape7529-5" transform="translate(0,-0.121621)">
					<title>Sheet.7529</title>
					<path d="M5.47 81.2 L5.67 81 L13.34 76.63 a0.466883 0.470387 -180 0 0 0.200093 -0.705581 L11.34 72.16 a0.500232
								 0.503986 -180 0 0 -0.733673 -0.268793 L4.17 75.63 L0.2 77.88 C0.2 77.88 0.03 77.88 0 78.08 L3 79.79
								 L5.47 81.2 ZM13.34 120.92 L5.67 116.55 a0.733673 0.73918 0 0 1 -0.233441 -0.302392 L0.03 119.61
								 L0.2 119.61 L4.04 121.79 L10.7 125.52 a0.500232 0.503986 -180 0 0 0.733673 -0.201594 L13.64 121.56
								 a0.466883 0.470387 -180 0 0 -0.300139 -0.638382 Z" class="st2"/>
				</g>
				<g id="shape7530-7" transform="translate(43.0152,0)">
					<title>Sheet.7530</title>
					<path d="M13.68 119.08 a0.53358 0.537585 0 0 1 -0.26679 0.470387 L9.54 121.74 L3.01 125.53 a0.566929 0.571184
								 0 0 1 -0.767022 -0.201594 L0.04 121.57 a0.53358 0.537585 0 0 1 0.200093 -0.705581 L7.91 116.49 a0.566929
								 0.571184 -180 0 0 0.26679 -0.470387 L8.18 81.35 a0.53358 0.537585 -180 0 0 -0.26679 -0.470387 L0.24
								 76.51 a0.53358 0.537585 0 0 1 -0.200093 -0.705581 L2.24 72.04 a0.566929 0.571184 0 0 1 0.767022
								 -0.268793 L9.41 75.44 L13.41 77.69 a0.53358 0.537585 0 0 1 0.26679 0.470387 L13.68 119.08 Z"
							class="st1"/>
				</g>
				<g id="shape7531-9" transform="translate(43.0854,-0.121621)">
					<title>Sheet.7531</title>
					<path d="M8.14 81.2 L7.94 81 L0.27 76.63 a0.466883 0.470387 0 0 1 -0.200093 -0.705581 L2.27 72.16 a0.500232 0.503986
								 0 0 1 0.733673 -0.268793 L9.44 75.56 L13.41 77.81 L13.61 78.01 L10.61 79.72 L8.14 81.2 ZM0.27 120.92
								 L7.94 116.55 a0.733673 0.73918 -180 0 0 0.233441 -0.302392 L13.57 119.61 L9.74 121.79 L3.07 125.52
								 a0.500232 0.503986 0 0 1 -0.733673 -0.201594 L0.13 121.56 a0.466883 0.470387 0 0 1 0.133395 -0.638382
								 Z" class="st2"/>
				</g>
				<g id="shape7532-11" transform="translate(28.3131,-6.23894)">
					<title>Sheet.7532</title>
					<path d="M17.74 94.58 L17.74 115.21 L0 125.59 L0 104.93 L17.74 94.58 Z" class="st3"/>
				</g>
				<g id="shape7533-13" transform="translate(10.6049,-26.8688)">
					<title>Sheet.7533</title>
					<path d="M35.45 115.21 L17.74 125.59 L0 115.21 L17.74 104.83 L35.45 115.21 Z" class="st4"/>
				</g>
				<g id="shape7534-15" transform="translate(10.6049,-6.23894)">
					<title>Sheet.7534</title>
					<path d="M17.71 104.96 L17.71 125.59 L0 115.21 L0 94.58 L17.71 104.96 Z" class="st5"/>
				</g>
				<g id="shape7535-17" transform="translate(10.6049,-6.23894)">
					<title>Sheet.7535</title>
					<path d="M0 115.21 L17.71 104.93 L17.71 125.59 L0 115.21 Z" class="st4"/>
				</g>
				<g id="shape7536-19" transform="translate(28.3131,-6.23894)">
					<title>Sheet.7536</title>
					<path d="M17.74 115.21 L0 104.93 L0 125.59 L17.74 115.21 Z" class="st5"/>
				</g>
			</g>
			<g id="shape7526-21">
				<g id="shadow7526-22" transform="matrix(1,0,0,1,1.41732,1.41732)" class="st6"/>
				<text x="2.2" y="140.87" class="st7">Resource Group</text>			</g>
		</g>
	</g>
</svg>
