<?xml version="1.0" encoding="UTF-8" standalone="no"?>
<!DOCTYPE svg PUBLIC "-//W3C//DTD SVG 1.1//EN" "http://www.w3.org/Graphics/SVG/1.1/DTD/svg11.dtd">
<!-- Generated by Microsoft Visio, SVG Export Usage and Quota.svg Page-1 -->
<svg xmlns="http://www.w3.org/2000/svg" xmlns:xlink="http://www.w3.org/1999/xlink" xmlns:ev="http://www.w3.org/2001/xml-events"
		width="1.1274in" height="1.3078in" viewBox="0 0 81.1729 94.1613" xml:space="preserve" color-interpolation-filters="sRGB"
		class="st9">
	<style type="text/css">
	<![CDATA[
		.st1 {fill:#e5e5e5;stroke:none;stroke-linecap:butt;stroke-width:12.24}
		.st2 {fill:#57a300;stroke:none;stroke-linecap:butt;stroke-width:12.24}
		.st3 {fill:#ffffff;fill-opacity:0.6;stroke:none;stroke-linecap:butt;stroke-width:12.24}
		.st4 {fill:#7a7a7a;stroke:none;stroke-linecap:butt;stroke-width:12.24}
		.st5 {fill:#ffffff;fill-opacity:0.7;stroke:none;stroke-linecap:butt;stroke-width:12.24}
		.st6 {fill:#1e1e1e;fill-opacity:0.2;stroke:none;stroke-linecap:butt;stroke-width:12.24}
		.st7 {visibility:visible}
		.st8 {fill:#000000;font-family:Calibri;font-size:0.666664em}
		.st9 {fill:none;fill-rule:evenodd;font-size:12px;overflow:visible;stroke-linecap:square;stroke-miterlimit:3}
	]]>
	</style>

	<g>
		<title>Page-1</title>
		<g id="group7420-1" transform="translate(12.24,-33.7323)">
			<title>Usage and Quota.7420</title>
			<desc>Usage and Quota</desc>
			<g id="group7421-2">
				<title>g36</title>
				<g id="shape7422-3">
					<title>path4</title>
					<path d="M0 82.68 L56.69 82.68 L56.69 94.16 L0 94.16 L0 82.68 Z" class="st1"/>
				</g>
				<g id="shape7423-5" transform="translate(2.26772,-2.29346)">
					<title>path6</title>
					<path d="M0 87.35 L52.16 87.35 L52.16 94.16 L0 94.16 L0 87.35 Z" class="st2"/>
				</g>
				<g id="shape7424-7" transform="translate(22.6772,-2.2946)">
					<title>path8</title>
					<path d="M0 87.27 L31.75 87.27 L31.75 94.16 L0 94.16 L0 87.27 Z" class="st3"/>
				</g>
				<g id="shape7425-9" transform="translate(20.4094,-2.27374E-13)">
					<title>path10</title>
					<rect x="0" y="82.6894" width="4.53543" height="11.4719" class="st4"/>
				</g>
				<g id="shape7426-11" transform="translate(20.4094,-0.0011473)">
					<title>path12</title>
					<rect x="0" y="82.6882" width="2.26772" height="11.473" class="st5"/>
				</g>
				<g id="shape7427-13" transform="translate(0,-18.3557)">
					<title>path14</title>
					<path d="M0 82.68 L56.69 82.68 L56.69 94.16 L0 94.16 L0 82.68 Z" class="st1"/>
				</g>
				<g id="shape7428-15" transform="translate(2.26772,-20.6514)">
					<title>path16</title>
					<path d="M0 87.35 L52.16 87.35 L52.16 94.16 L0 94.16 L0 87.35 Z" class="st2"/>
				</g>
				<g id="shape7429-17" transform="translate(40.8189,-20.6572)">
					<title>path18</title>
					<rect x="0" y="87.274" width="13.6063" height="6.88725" class="st3"/>
				</g>
				<g id="shape7430-19" transform="translate(38.5512,-18.3568)">
					<title>path20</title>
					<rect x="0" y="82.6894" width="4.53543" height="11.4719" class="st4"/>
				</g>
				<g id="shape7431-21" transform="translate(38.5512,-18.358)">
					<title>path22</title>
					<rect x="0" y="82.6882" width="2.26772" height="11.473" class="st5"/>
				</g>
				<g id="shape7432-23" transform="translate(0,-36.7125)">
					<title>path24</title>
					<path d="M0 82.68 L56.69 82.68 L56.69 94.16 L0 94.16 L0 82.68 Z" class="st1"/>
				</g>
				<g id="shape7433-25" transform="translate(2.26772,-39.0083)">
					<title>path26</title>
					<path d="M0 87.35 L52.16 87.35 L52.16 94.16 L0 94.16 L0 87.35 Z" class="st2"/>
				</g>
				<g id="shape7434-27" transform="translate(22.6772,-39.0071)">
					<title>path28</title>
					<path d="M0 87.27 L31.75 87.27 L31.75 94.16 L0 94.16 L0 87.27 Z" class="st3"/>
				</g>
				<g id="shape7435-29" transform="translate(20.4094,-36.7137)">
					<title>path30</title>
					<rect x="0" y="82.6894" width="4.53543" height="11.4719" class="st4"/>
				</g>
				<g id="shape7436-31" transform="translate(20.4094,-36.7148)">
					<title>path32</title>
					<rect x="0" y="82.6882" width="2.26772" height="11.473" class="st5"/>
				</g>
				<g id="shape7437-33" transform="translate(24.9449,-0.0011473)">
					<title>path34</title>
					<path d="M0 82.69 L2.27 82.69 L2.27 94.16 L0 94.16 L0 82.69 ZM0 46.01 L2.27 46.01 L2.27 57.48 L0 57.48 L0 46.01
								 ZM18.14 64.32 L20.41 64.32 L20.41 75.8 L18.14 75.8 L18.14 64.32 Z" class="st6"/>
				</g>
			</g>
			<g id="shape7420-35">
				<g id="shadow7420-36" transform="matrix(1,0,0,1,1.41732,1.41732)" class="st7"/>
				<text x="0.34" y="108.59" class="st8">Usage and Quota</text>			</g>
		</g>
	</g>
</svg>
