<?xml version="1.0" encoding="UTF-8" standalone="no"?>
<!DOCTYPE svg PUBLIC "-//W3C//DTD SVG 1.1//EN" "http://www.w3.org/Graphics/SVG/1.1/DTD/svg11.dtd">
<!-- Generated by Microsoft Visio, SVG Export IP Group.svg Page-1 -->
<svg xmlns="http://www.w3.org/2000/svg" xmlns:xlink="http://www.w3.org/1999/xlink" xmlns:ev="http://www.w3.org/2001/xml-events"
		width="1.73185in" height="1.57437in" viewBox="0 0 124.693 113.354" xml:space="preserve" color-interpolation-filters="sRGB"
		class="st8">
	<style type="text/css">
	<![CDATA[
		.st1 {fill:#83b9f9;stroke:none;stroke-linecap:butt;stroke-width:34}
		.st2 {fill:#1f56a3;stroke:none;stroke-linecap:butt;stroke-width:34}
		.st3 {fill:#f2f2f2;stroke:none;stroke-linecap:butt;stroke-width:34}
		.st4 {fill:url(#grad0-18);stroke:none;stroke-linecap:butt;stroke-width:34}
		.st5 {fill:#0078d4;stroke:none;stroke-linecap:butt;stroke-width:34}
		.st6 {visibility:visible}
		.st7 {fill:#000000;font-family:Calibri;font-size:0.666664em}
		.st8 {fill:none;fill-rule:evenodd;font-size:12px;overflow:visible;stroke-linecap:square;stroke-miterlimit:3}
	]]>
	</style>

	<defs id="Patterns_And_Gradients">
		<linearGradient id="grad0-18" x1="0" y1="0" x2="1" y2="0" gradientTransform="rotate(-90 0.5 0.5)">
			<stop offset="0" stop-color="#32bedd" stop-opacity="1"/>
			<stop offset="0.18" stop-color="#32caea" stop-opacity="1"/>
			<stop offset="0.41" stop-color="#32d2f2" stop-opacity="1"/>
			<stop offset="0.78" stop-color="#32d4f5" stop-opacity="1"/>
		</linearGradient>
	</defs>
	<g>
		<title>Page-1</title>
		<g id="group8330-1" transform="translate(34,-34)">
			<title>IP Group.8330</title>
			<desc>IP Group</desc>
			<g id="group8331-2">
				<title>Sheet.8331</title>
				<g id="shape8332-3" transform="translate(-2.8777E-13,-18.9828)">
					<title>Sheet.8332</title>
					<path d="M0 93.98 L31.84 93.98 L31.84 112.25 A1.0705 1.1011 0 0 1 30.77 113.35 L1.07 113.35 A1.0705 1.1011 0
								 0 1 0 112.25 L0 93.98 Z" class="st1"/>
				</g>
				<g id="shape8333-5" transform="translate(-2.8777E-13,-38.3567)">
					<title>Sheet.8333</title>
					<path d="M1.07 106.36 L30.77 106.36 A1.0705 1.1011 0 0 1 31.84 107.46 L31.84 113.35 L0 113.35 L0 107.46 A1.0705
								 1.1011 0 0 1 1.07 106.36 Z" class="st2"/>
				</g>
				<g id="shape8334-7" transform="translate(4.28198,-40.4285)">
					<title>Sheet.8334</title>
					<path d="M0 112.8 a0.536928 0.552278 -180 0 0 0.536915 0.552265 L22.74 113.35 a0.536928 0.552278 -180 0 0 0.536915
								 -0.552265 L23.27 111.09 a0.536928 0.552278 -180 0 0 -0.536915 -0.552265 L0.54 110.53 a0.536928 0.552278
								 -180 0 0 -0.536915 0.552265 L0 112.8 Z" class="st3"/>
				</g>
				<g id="shape8335-9" transform="translate(12.4091,-9.52571)">
					<title>Sheet.8335</title>
					<path d="M0 93.98 L31.87 93.98 L31.87 112.25 A1.0705 1.1011 0 0 1 30.8 113.35 L1.07 113.35 A1.0705 1.1011 0 0
								 1 0 112.25 L0 93.98 Z" class="st1"/>
				</g>
				<g id="shape8336-11" transform="translate(12.4424,-28.8961)">
					<title>Sheet.8336</title>
					<path d="M1.04 106.39 L30.74 106.39 A1.0705 1.1011 0 0 1 31.81 107.49 L31.81 113.35 L0 113.35 L0 107.49 A1.0705
								 1.1011 0 0 1 1.04 106.39 Z" class="st2"/>
				</g>
				<g id="shape8337-13" transform="translate(16.6944,-30.9371)">
					<title>Sheet.8337</title>
					<path d="M0 112.8 a0.536928 0.552278 -180 0 0 0.536915 0.552265 L22.74 113.35 a0.536928 0.552278 -180 0 0 0.536915
								 -0.552265 L23.27 111.09 a0.536928 0.552278 -180 0 0 -0.536915 -0.552265 L0.54 110.53 a0.536928 0.552278
								 -180 0 0 -0.536915 0.552265 L0 112.8 Z" class="st3"/>
				</g>
				<g id="shape8338-15" transform="translate(24.8515,1.42109E-14)">
					<title>Sheet.8338</title>
					<path d="M0 93.98 L31.84 93.98 L31.84 112.25 A1.0705 1.1011 0 0 1 30.77 113.35 L1.07 113.35 A1.0705 1.1011 0
								 0 1 0 112.25 L0 93.98 Z" class="st4"/>
				</g>
				<g id="shape8339-19" transform="translate(24.8515,-19.3739)">
					<title>Sheet.8339</title>
					<path d="M1.07 106.36 L30.77 106.36 A1.0705 1.1011 0 0 1 31.84 107.46 L31.84 113.35 L0 113.35 L0 107.46 A1.0705
								 1.1011 0 0 1 1.07 106.36 Z" class="st5"/>
				</g>
				<g id="group8340-21" transform="translate(31.0244,-8.22909)">
					<title>Sheet.8340</title>
					<g id="shape8341-22" transform="translate(14.33,1.42109E-14)">
						<title>Sheet.8341</title>
						<ellipse cx="2.58119" cy="110.699" rx="2.58119" ry="2.65499" class="st5"/>
					</g>
					<g id="shape8342-24" transform="translate(7.2767,1.42109E-14)">
						<title>Sheet.8342</title>
						<ellipse cx="2.58119" cy="110.699" rx="2.58119" ry="2.65499" class="st5"/>
					</g>
					<g id="shape8343-26">
						<title>Sheet.8343</title>
						<ellipse cx="2.58119" cy="110.699" rx="2.58119" ry="2.65499" class="st5"/>
					</g>
				</g>
				<g id="shape8344-28" transform="translate(29.1335,-21.4457)">
					<title>Sheet.8344</title>
					<path d="M0 112.8 a0.536928 0.552278 -180 0 0 0.536915 0.552265 L22.74 113.35 a0.536928 0.552278 -180 0 0 0.536915
								 -0.552265 L23.27 111.09 a0.536928 0.552278 -180 0 0 -0.536915 -0.552265 L0.54 110.53 a0.536928 0.552278
								 -180 0 0 -0.536915 0.552265 L0 112.8 Z" class="st3"/>
				</g>
			</g>
			<g id="shape8330-30">
				<g id="shadow8330-31" transform="matrix(1,0,0,1,1.41732,1.41732)" class="st6"/>
				<text x="14.14" y="127.36" class="st7">IP Group</text>			</g>
		</g>
	</g>
</svg>
