<?xml version="1.0" encoding="UTF-8" standalone="no"?>
<!DOCTYPE svg PUBLIC "-//W3C//DTD SVG 1.1//EN" "http://www.w3.org/Graphics/SVG/1.1/DTD/svg11.dtd">
<!-- Generated by Microsoft Visio, SVG Export Virtual Network Firewall.svg Page-1 -->
<svg xmlns="http://www.w3.org/2000/svg" xmlns:xlink="http://www.w3.org/1999/xlink" xmlns:ev="http://www.w3.org/2001/xml-events"
		width="1.73185in" height="1.61002in" viewBox="0 0 124.693 115.921" xml:space="preserve" color-interpolation-filters="sRGB"
		class="st9">
	<style type="text/css">
	<![CDATA[
		.st1 {fill:url(#grad0-6);stroke:none;stroke-linecap:butt;stroke-width:34}
		.st2 {fill:#50e6ff;stroke:none;stroke-linecap:butt;stroke-width:34}
		.st3 {fill:#1490df;stroke:none;stroke-linecap:butt;stroke-width:34}
		.st4 {fill:#57a300;stroke:none;stroke-linecap:butt;stroke-width:9.65909}
		.st5 {fill:#b8d432;fill-opacity:0.4;stroke:none;stroke-linecap:butt;stroke-width:9.65909}
		.st6 {fill:#ffffff;stroke:none;stroke-linecap:butt;stroke-width:9.65909}
		.st7 {visibility:visible}
		.st8 {fill:#000000;font-family:Calibri;font-size:0.666664em}
		.st9 {fill:none;fill-rule:evenodd;font-size:12px;overflow:visible;stroke-linecap:square;stroke-miterlimit:3}
	]]>
	</style>

	<defs id="Patterns_And_Gradients">
		<linearGradient id="grad0-6" x1="0" y1="0" x2="1" y2="0" gradientTransform="rotate(-90 0.5 0.5)">
			<stop offset="0" stop-color="#5e9624" stop-opacity="1"/>
			<stop offset="0.24" stop-color="#6fb02a" stop-opacity="1"/>
			<stop offset="0.5" stop-color="#7cc52f" stop-opacity="1"/>
			<stop offset="0.755" stop-color="#83d232" stop-opacity="1"/>
			<stop offset="1" stop-color="#86d633" stop-opacity="1"/>
		</linearGradient>
	</defs>
	<g>
		<title>Page-1</title>
		<g id="group8146-1" transform="translate(34,-33.7323)">
			<title>Virtual Network Firewall.8146</title>
			<desc>Virtual Network Firewall</desc>
			<g id="group8147-2" transform="translate(0,-14.2858)">
				<title>g12</title>
				<g id="shape8148-3" transform="translate(14.2109,-14.3751)">
					<title>path2</title>
					<path d="M29.56 113.32 A3.64766 3.64345 0 1 1 25.91 109.68 A3.64451 3.6403 0 0 1 29.56 113.32 ZM14.23 109.7 A3.64766
								 3.64345 -180 1 0 17.88 113.34 A3.64451 3.6403 -180 0 0 14.23 109.7 ZM2.58 109.7 A3.64766 3.64345
								 -180 1 0 6.23 113.35 A3.64766 3.64345 -180 0 0 2.58 109.71 L2.58 109.7 Z" class="st1"/>
				</g>
				<g id="shape8149-7" transform="translate(0.0125992,-1.42109E-13)">
					<title>path4</title>
					<path d="M19.45 113.55 L17.36 115.65 a0.94499 0.943898 0 0 1 -1.33559 0 L0.55 100.24 A1.88998 1.8878 0 0 1 0.55
								 97.57 L2.64 95.48 L19.45 112.22 a0.94499 0.943898 0 0 1 -1.06581E-14 1.33719 L19.45 113.55 Z"
							class="st2"/>
				</g>
				<g id="shape8150-9" transform="translate(-2.79776E-13,-13.6322)">
					<title>path6</title>
					<path d="M17.06 95.94 L19.17 98.03 a0.94499 0.943898 0 0 1 0 1.33719 L2.65 115.92 L0.55 113.83 A1.88998 1.8878
								 0 0 1 0.55 111.16 L15.74 95.95 a0.94499 0.943898 0 0 1 1.33874 0 L17.06 95.94 Z" class="st3"/>
				</g>
				<g id="shape8151-11" transform="translate(36.9341,-0.00629266)">
					<title>path8</title>
					<path d="M17.09 95.47 L19.18 97.57 A1.88998 1.8878 0 0 1 19.18 100.24 L3.7 115.65 a0.94499 0.943898 0 0 1 -1.33559
								 0 L0.28 113.55 a0.94499 0.943898 0 0 1 -8.65974E-15 -1.33404 L17.09 95.47 Z" class="st2"/>
				</g>
				<g id="shape8152-13" transform="translate(37.2365,-13.6416)">
					<title>path10</title>
					<path d="M18.89 113.83 L16.8 115.92 L0.28 99.37 a0.94499 0.943898 0 0 1 -1.32117E-14 -1.33404 L2.39 95.94 a0.94499
								 0.943898 0 0 1 1.33559 -1.42109E-14 L18.91 111.15 A1.88998 1.8878 0 0 1 18.9 113.82 L18.89 113.83
								 Z" class="st3"/>
				</g>
			</g>
			<g id="shape8153-15" transform="translate(30.4459,1.42109E-14)">
				<title>path10-7</title>
				<path d="M16.75 92.29 C10.83 91.64 9.84 89.1 9.84 89.1 C9.84 89.1 8.51 92.45 0 92.45 L0 106.19 C0 107.85 0.92 109.4
							 2.2 110.76 C5.11 113.85 9.84 115.92 9.84 115.92 C9.84 115.92 19.69 111.61 19.69 106.18 L19.69 92.45
							 C18.59 92.45 17.62 92.39 16.75 92.29 L16.75 92.29 Z" class="st4"/>
			</g>
			<g id="shape8154-17" transform="translate(30.4459,-5.23613)">
				<title>path12</title>
				<path d="M12.16 103.25 L16.59 97.63 C10.73 96.98 9.75 94.46 9.75 94.46 C9.75 94.46 8.43 97.78 0 97.78 L0 111.39 C0
							 113.03 0.92 114.57 2.18 115.92 L5.46 111.76 L12.16 103.25 Z" class="st5"/>
			</g>
			<g id="shape8155-19" transform="translate(35.8151,-8.03118)">
				<title>path14</title>
				<path d="M8.5 109.66 L8.05 109.66 L8.05 107.86 A3.57951 3.57537 -180 0 0 0.89 107.86 L0.89 109.66 L0.45 109.66 a0.452808
							 0.452285 -180 0 0 -0.448332 0.455862 L0 115.47 C0 115.72 0.2 115.92 0.45 115.92 L8.5 115.92 a0.452808
							 0.452285 -180 0 0 0.448332 -0.455862 L8.95 110.12 a0.454597 0.454072 -180 0 0 -0.449229 -0.456756 ZM4.47
							 106.08 C5.46 106.08 6.26 106.88 6.26 107.86 L6.26 109.66 L2.68 109.66 L2.68 107.86 C2.68 106.88 3.49
							 106.08 4.47 106.08 Z" class="st6"/>
			</g>
			<g id="shape8146-21">
				<g id="shadow8146-22" transform="matrix(1,0,0,1,1.41732,1.41732)" class="st7"/>
				<text x="-11.16" y="130.35" class="st8">Virtual Network Firewall</text>			</g>
		</g>
	</g>
</svg>
