<?xml version="1.0" encoding="UTF-8" standalone="no"?>
<!DOCTYPE svg PUBLIC "-//W3C//DTD SVG 1.1//EN" "http://www.w3.org/Graphics/SVG/1.1/DTD/svg11.dtd">
<!-- Generated by Microsoft Visio, SVG Export IoT Central.svg Page-1 -->
<svg xmlns="http://www.w3.org/2000/svg" xmlns:xlink="http://www.w3.org/1999/xlink" xmlns:ev="http://www.w3.org/2001/xml-events"
		width="0.755906in" height="1.33858in" viewBox="0 0 54.4252 96.378" xml:space="preserve" color-interpolation-filters="sRGB"
		class="st6">
	<style type="text/css">
	<![CDATA[
		.st1 {fill:#a3a3a3;stroke:none;stroke-linecap:butt;stroke-width:0.75}
		.st2 {fill:#949494;stroke:none;stroke-linecap:butt;stroke-width:0.75}
		.st3 {fill:#32bedd;stroke:none;stroke-linecap:butt;stroke-width:0.75}
		.st4 {fill:#9cebff;stroke:none;stroke-linecap:butt;stroke-width:0.75}
		.st5 {fill:#50e6ff;stroke:none;stroke-linecap:butt;stroke-width:0.75}
		.st6 {fill:none;fill-rule:evenodd;font-size:12px;overflow:visible;stroke-linecap:square;stroke-miterlimit:3}
	]]>
	</style>

	<g>
		<title>Page-1</title>
		<g id="group15596-1" transform="translate(4.53543,-34.0157)">
			<title>IoT Central.15596</title>
			<g id="shape15597-2">
				<title>Sheet.15597</title>
				<path d="M22.68 39.69 L0 53.83 L0 63.28 L8.81 69.1 L8.81 63.43 L4.19 60.54 L4.19 56.63 L22.68 44.98 L41.17 56.66
							 L41.17 79.28 L22.68 90.93 L0 76.79 L0 82.08 L22.68 96.38 L45.35 82.24 L45.35 53.89 L22.68 39.69 Z"
						class="st1"/>
			</g>
			<g id="shape15598-4" transform="translate(0,-39.748)">
				<title>Sheet.15598</title>
				<path d="M22.68 79.43 L0 93.57 L4.19 96.38 L22.68 84.72 L41.17 96.38 L45.35 93.57 L22.68 79.43 Z" class="st2"/>
			</g>
			<g id="shape15599-6" transform="translate(22.6772,-12.8189)">
				<title>Sheet.15599</title>
				<path d="M12.28 73.1 L12.28 88.6 L0 96.38 L0 80.88 L12.28 73.1 Z" class="st3"/>
			</g>
			<g id="shape15600-8" transform="translate(10.3997,-28.315)">
				<title>Sheet.15600</title>
				<path d="M24.55 88.6 L12.28 96.38 L0 88.6 L12.28 80.82 L24.55 88.6 Z" class="st4"/>
			</g>
			<g id="shape15601-10" transform="translate(10.3997,-12.8189)">
				<title>Sheet.15601</title>
				<path d="M12.28 80.88 L12.28 96.38 L0 88.6 L0 73.1 L12.28 80.88 Z" class="st5"/>
			</g>
			<g id="shape15602-12" transform="translate(10.3997,-12.8189)">
				<title>Sheet.15602</title>
				<path d="M0 88.6 L12.28 80.88 L12.28 96.38 L0 88.6 Z" class="st4"/>
			</g>
			<g id="shape15603-14" transform="translate(22.6772,-12.8189)">
				<title>Sheet.15603</title>
				<path d="M12.28 88.6 L0 80.88 L0 96.38 L12.28 88.6 Z" class="st5"/>
			</g>
		</g>
	</g>
</svg>
