<?xml version="1.0" encoding="UTF-8" standalone="no"?>
<!DOCTYPE svg PUBLIC "-//W3C//DTD SVG 1.1//EN" "http://www.w3.org/Graphics/SVG/1.1/DTD/svg11.dtd">
<!-- Generated by Microsoft Visio, SVG Export Application Service Environment.svg Page-1 -->
<svg xmlns="http://www.w3.org/2000/svg" xmlns:xlink="http://www.w3.org/1999/xlink" xmlns:ev="http://www.w3.org/2001/xml-events"
		width="1.73185in" height="1.73206in" viewBox="0 0 124.693 124.709" xml:space="preserve" color-interpolation-filters="sRGB"
		class="st4">
	<style type="text/css">
	<![CDATA[
		.st1 {fill:#949494;stroke:none;stroke-linecap:butt;stroke-width:34}
		.st2 {fill:url(#grad0-8);stroke:none;stroke-linecap:butt;stroke-width:34}
		.st3 {fill:none;stroke:none;stroke-linecap:butt;stroke-width:34}
		.st4 {fill:none;fill-rule:evenodd;font-size:12px;overflow:visible;stroke-linecap:square;stroke-miterlimit:3}
	]]>
	</style>

	<defs id="Patterns_And_Gradients">
		<linearGradient id="grad0-8" x1="0" y1="0" x2="1" y2="0" gradientTransform="rotate(90 0.5 0.5)">
			<stop offset="0.18" stop-color="#5ea0ef" stop-opacity="1"/>
			<stop offset="1" stop-color="#0078d4" stop-opacity="1"/>
		</linearGradient>
	</defs>
	<g>
		<title>Page-1</title>
		<g id="group4662-1" transform="translate(34,-34.0157)">
			<title>Application Service Environment</title>
			<g id="group4663-2">
				<title>Icon-web-47</title>
				<g id="shape4664-3" transform="translate(3.14961,-2.89764)">
					<title>Sheet.4664</title>
					<path d="M23.84 98.28 L0 98.28 L0 77.78 A3.46457 3.46457 0 0 1 3.43 74.31 L23.84 74.31 L23.84 98.28 ZM2.96 95.32
								 L20.88 95.32 L20.88 77.21 L3.43 77.21 a0.472441 0.472441 -180 0 0 -0.472441 0.472441 L2.96 95.32
								 ZM50.39 98.28 L26.55 98.28 L26.55 74.31 L46.96 74.31 A3.46457 3.46457 0 0 1 50.39 77.78 L50.39 98.28
								 ZM29.51 95.32 L47.43 95.32 L47.43 77.78 a0.472441 0.472441 -180 0 0 -0.472441 -0.566929 L29.51 77.21
								 L29.51 95.32 ZM23.84 124.71 L3.43 124.71 A3.43307 3.43307 0 0 1 0 121.31 L0 100.77 L23.84 100.77
								 L23.84 124.71 ZM2.96 103.73 L2.96 121.31 a0.472441 0.472441 -180 0 0 0.472441 0.472441 L20.88 121.78
								 L20.88 103.73 L2.96 103.73 ZM46.96 124.71 L26.55 124.71 L26.55 100.77 L50.39 100.77 L50.39 121.31
								 A3.43307 3.43307 0 0 1 46.96 124.71 ZM29.51 121.75 L46.96 121.75 a0.472441 0.472441 -180 0 0 0.472441
								 -0.472441 L47.43 103.73 L29.51 103.73 L29.51 121.75 Z" class="st1"/>
				</g>
				<g id="shape4665-5" transform="translate(10.5197,-15.2126)">
					<title>Sheet.4665</title>
					<path d="M35.69 116.68 A8.15748 8.15748 -180 0 0 28.72 108.8 A10.2047 10.2047 -180 0 0 18.3 98.98 A10.4567 10.4567
								 -180 0 0 8.38 105.81 A9.70079 9.70079 -180 0 0 0 115.26 A9.79528 9.79528 -180 0 0 10.05 124.71 L27.72
								 124.71 A8.22047 8.22047 -180 0 0 35.69 116.68 Z" class="st2"/>
				</g>
				<g id="shape4666-9">
					<title>Sheet.4666</title>
					<rect x="0" y="68.0157" width="56.6929" height="56.6929" class="st3"/>
				</g>
			</g>
		</g>
	</g>
</svg>
