<?xml version="1.0" encoding="UTF-8" standalone="no"?>
<!DOCTYPE svg PUBLIC "-//W3C//DTD SVG 1.1//EN" "http://www.w3.org/Graphics/SVG/1.1/DTD/svg11.dtd">
<!-- Generated by Microsoft Visio, SVG Export Blockchain Consortium.svg Page-1 -->
<svg xmlns="http://www.w3.org/2000/svg" xmlns:xlink="http://www.w3.org/1999/xlink" xmlns:ev="http://www.w3.org/2001/xml-events"
		width="0.944882in" height="1.33858in" viewBox="0 0 68.0315 96.378" xml:space="preserve" color-interpolation-filters="sRGB"
		class="st16">
	<style type="text/css">
	<![CDATA[
		.st1 {fill:#773adc;stroke:none;stroke-linecap:butt;stroke-width:0.75}
		.st2 {fill:#552f99;stroke:none;stroke-linecap:butt;stroke-width:0.75}
		.st3 {fill:#b796f9;stroke:none;stroke-linecap:butt;stroke-width:0.75}
		.st4 {fill:#a67af4;stroke:none;stroke-linecap:butt;stroke-width:0.75}
		.st5 {fill:#5e9624;stroke:none;stroke-linecap:butt;stroke-width:0.75}
		.st6 {fill:#76bc2d;stroke:none;stroke-linecap:butt;stroke-width:0.75}
		.st7 {fill:#32bedd;stroke:none;stroke-linecap:butt;stroke-width:0.75}
		.st8 {fill:#258277;stroke:none;stroke-linecap:butt;stroke-width:0.75}
		.st9 {fill:#37c2b1;stroke:none;stroke-linecap:butt;stroke-width:0.75}
		.st10 {fill:#d15900;stroke:none;stroke-linecap:butt;stroke-width:0.75}
		.st11 {fill:#f78d1e;stroke:none;stroke-linecap:butt;stroke-width:0.75}
		.st12 {fill:#207067;stroke:none;stroke-linecap:butt;stroke-width:0.75}
		.st13 {fill:#ffb34d;stroke:none;stroke-linecap:butt;stroke-width:0.75}
		.st14 {fill:#42e8ca;stroke:none;stroke-linecap:butt;stroke-width:0.75}
		.st15 {fill:#b4ec36;stroke:none;stroke-linecap:butt;stroke-width:0.75}
		.st16 {fill:none;fill-rule:evenodd;font-size:12px;overflow:visible;stroke-linecap:square;stroke-miterlimit:3}
	]]>
	</style>

	<g>
		<title>Page-1</title>
		<g id="group3730-1" transform="translate(5.66929,-34.0157)">
			<title>Blockchain Consortium</title>
			<g id="group3731-2">
				<title>Sheet.3731</title>
				<g id="shape3732-3" transform="translate(28.0243,-32.3502)">
					<title>Sheet.3732</title>
					<path d="M10.31 78.12 L10.31 90.29 L0 96.38 L0 84.21 L10.31 78.12 Z" class="st1"/>
				</g>
				<g id="shape3733-5" transform="translate(31.5676,-37.981)">
					<title>Sheet.3733</title>
					<path d="M2.25 90.2 C3.67 89.35 4.51 89.91 4.51 91.6 A5.72083 5.68851 0 0 1 2.25 95.54 C1.12 96.38 0 95.82 0
								 94.13 A5.72083 5.68851 0 0 1 2.25 90.2 Z" class="st2"/>
				</g>
				<g id="shape3734-7" transform="translate(17.3944,-44.5216)">
					<title>Sheet.3734</title>
					<path d="M20.94 90.29 L10.63 96.38 L0 90.29 L10.63 84.21 L20.94 90.29 Z" class="st3"/>
				</g>
				<g id="shape3735-9" transform="translate(17.3944,-32.3502)">
					<title>Sheet.3735</title>
					<path d="M10.63 84.21 L10.63 96.38 L0 90.29 L0 78.12 L10.63 84.21 Z" class="st4"/>
				</g>
				<g id="shape3736-11" transform="translate(19.7008,-38.1156)">
					<title>Sheet.3736</title>
					<path d="M2.58 90.29 C1.29 89.65 0 90.29 0 91.57 A4.64173 4.61551 -180 0 0 2.58 95.74 C3.87 96.38 5.15 95.74
								 5.15 94.46 A5.32462 5.29454 -180 0 0 2.58 90.29 Z" class="st1"/>
				</g>
				<g id="shape3737-13" transform="translate(46.3851,-16.3352)">
					<title>Sheet.3737</title>
					<path d="M10.31 78.12 L10.31 90.29 L0 96.38 L0 84.21 L10.31 78.12 Z" class="st5"/>
				</g>
				<g id="shape3738-15" transform="translate(36.0773,-16.3352)">
					<title>Sheet.3738</title>
					<path d="M10.31 84.21 L10.31 96.38 L0 90.29 L0 78.12 L10.31 84.21 Z" class="st6"/>
				</g>
				<g id="shape3739-17" transform="translate(38.9764,-21.46)">
					<title>Sheet.3739</title>
					<path d="M2.58 90.29 C1.29 89.65 0 90.29 0 91.57 A4.64173 4.61551 -180 0 0 2.58 95.74 C3.87 96.38 5.15 95.74
								 5.15 94.46 A5.32462 5.29454 -180 0 0 2.58 90.29 Z" class="st5"/>
				</g>
				<g id="group3740-19" transform="translate(33.1782,-30.7487)">
					<title>Sheet.3740</title>
					<g id="shape3741-20" transform="translate(0,-5.39063)">
						<title>Sheet.3741</title>
						<path d="M8.49 94.8 A16.5923 16.4986 -180 0 0 2.25 90.24 A1.66535 1.65595 -180 0 0 0 91.2 A1.43665 1.42853
									 -180 0 0 0.97 93.12 A13.7094 13.6319 0 0 1 5.67 96.38 L8.49 94.8 Z" class="st7"/>
					</g>
					<g id="shape3742-22" transform="translate(8.48461,0)">
						<title>Sheet.3742</title>
						<path d="M0 95.83 C0.06 96.02 0.16 96.19 0.21 96.38 L0.6 96.19 L0 95.83 Z" class="st7"/>
					</g>
				</g>
				<g id="shape3743-24" transform="translate(10.3078,-16.0149)">
					<title>Sheet.3743</title>
					<path d="M10.63 78.44 L10.63 90.29 L0 96.38 L0 84.53 L10.63 78.44 Z" class="st8"/>
				</g>
				<g id="shape3744-26" transform="translate(5.69544E-14,-16.0149)">
					<title>Sheet.3744</title>
					<path d="M10.31 84.53 L10.31 96.38 L0 90.29 L0 78.44 L10.31 84.53 Z" class="st9"/>
				</g>
				<g id="shape3745-28" transform="translate(14.6306,-35.6204)">
					<title>Sheet.3745</title>
					<path d="M8.56 90.68 A2.1582 2.146 -180 0 0 5.98 89.72 A21.2598 21.1397 -180 0 0 0 94.44 L3.41 96.38 A14.9656
								 14.8811 0 0 1 7.6 93.24 A2.1582 2.146 -180 0 0 8.56 90.68 Z" class="st7"/>
				</g>
				<g id="shape3746-30" transform="translate(28.9907,0)">
					<title>Sheet.3746</title>
					<path d="M10.31 78.12 L10.31 90.29 L0 96.38 L0 84.21 L10.31 78.12 Z" class="st10"/>
				</g>
				<g id="shape3747-32" transform="translate(18.6829,0)">
					<title>Sheet.3747</title>
					<path d="M10.31 84.21 L10.31 96.38 L0 90.29 L0 78.12 L10.31 84.21 Z" class="st11"/>
				</g>
				<g id="shape3748-34" transform="translate(34.9853,-18.9681)">
					<title>Sheet.3748</title>
					<path d="M6.89 90.36 A1.67824 1.66876 -180 0 0 4.31 90.68 A16.9435 16.8477 0 0 1 -0 94.54 L3.11 96.38 A19.2369
								 19.1283 -180 0 0 7.21 92.93 A1.67824 1.66876 -180 0 0 6.89 90.36 Z" class="st7"/>
				</g>
				<g id="shape3749-36" transform="translate(13.6095,-21.1045)">
					<title>Sheet.3749</title>
					<path d="M2.54 89.74 C4 88.94 5.07 89.61 5.07 91.2 A5.82713 5.79421 0 0 1 2.54 95.58 C1.07 96.38 0 95.71 0 94.12
								 A5.47602 5.44508 0 0 1 2.54 89.74 Z" class="st12"/>
				</g>
				<g id="shape3750-38" transform="translate(14.7047,-18.7855)">
					<title>Sheet.3750</title>
					<path d="M8.56 94.2 A13.7351 13.6575 0 0 1 3.33 90.18 A1.70401 1.69438 -180 0 0 0.76 89.86 A1.70401 1.69438 -180
								 0 0 0.43 92.42 A17.7938 17.6933 -180 0 0 4.88 96.38 L8.56 94.2 Z" class="st7"/>
				</g>
				<g id="shape3751-40" transform="translate(18.6829,-12.1714)">
					<title>Sheet.3751</title>
					<path d="M20.62 90.29 L10.31 96.38 L0 90.29 L10.31 84.21 L20.62 90.29 Z" class="st13"/>
				</g>
				<g id="shape3752-42" transform="translate(0,-27.866)">
					<title>Sheet.3752</title>
					<path d="M20.94 90.29 L10.31 96.38 L0 90.29 L10.31 84.21 L20.94 90.29 Z" class="st14"/>
				</g>
				<g id="shape3753-44" transform="translate(36.0773,-28.5066)">
					<title>Sheet.3753</title>
					<path d="M20.62 90.29 L10.31 96.38 L0 90.29 L10.31 84.53 L20.62 90.29 Z" class="st15"/>
				</g>
			</g>
		</g>
	</g>
</svg>
