<?xml version="1.0" encoding="UTF-8" standalone="no"?>
<!DOCTYPE svg PUBLIC "-//W3C//DTD SVG 1.1//EN" "http://www.w3.org/Graphics/SVG/1.1/DTD/svg11.dtd">
<!-- Generated by Microsoft Visio, SVG Export Firewall Policy.svg Page-1 -->
<svg xmlns="http://www.w3.org/2000/svg" xmlns:xlink="http://www.w3.org/1999/xlink" xmlns:ev="http://www.w3.org/2001/xml-events"
		width="1.36122in" height="1.27117in" viewBox="0 0 98.0076 91.5241" xml:space="preserve" color-interpolation-filters="sRGB"
		class="st6">
	<style type="text/css">
	<![CDATA[
		.st1 {fill:#821010;stroke:none;stroke-linecap:butt;stroke-width:20.6572}
		.st2 {fill:#e62323;stroke:none;stroke-linecap:butt;stroke-width:20.6572}
		.st3 {fill:#ff7381;stroke:none;stroke-linecap:butt;stroke-width:20.6572}
		.st4 {fill:#e6e6e6;stroke:none;stroke-linecap:butt;stroke-width:20.6572}
		.st5 {fill:#666666;stroke:none;stroke-linecap:butt;stroke-width:20.6572}
		.st6 {fill:none;fill-rule:evenodd;font-size:12px;overflow:visible;stroke-linecap:square;stroke-miterlimit:3}
	]]>
	</style>

	<g>
		<title>Page-1</title>
		<g id="group2754-1" transform="translate(20.6575,-34.0157)">
			<title>Firewall Policy</title>
			<g id="group2755-2">
				<title>g26</title>
				<g id="shape2756-3" transform="translate(-2.79776E-13,-7.05269)">
					<title>path4</title>
					<path d="M52.82 61.73 L2.23 61.73 A2.12226 2.08799 -180 0 0 -0 63.85 L0 89.44 A2.12226 2.08799 -180 0 0 2.16
								 91.52 L30.17 91.52 L30.17 81.45 A1.79114 1.76222 0 0 1 31.42 79.76 L31.89 79.76 A17.8843 17.5955
								 -180 0 0 43.56 75.58 A8.48709 8.35006 0 0 1 46.09 74.68 A14.6292 14.393 0 0 1 49.16 74.25 A14.3388
								 14.1073 0 0 1 52.23 74.54 C53.18 74.72 54.09 75.04 54.94 75.51 L54.94 63.85 A2.11838 2.08418 -180
								 0 0 52.82 61.73 L52.82 61.73 ZM37.38 82.03 L37.38 88.65 L52.23 88.65 L52.23 82.03 L37.38 82.03 Z"
							class="st1"/>
				</g>
				<g id="shape2757-5" transform="translate(3.1098,-27.4201)">
					<title>path6</title>
					<rect x="0" y="85.0468" width="14.8848" height="6.47735" class="st2"/>
				</g>
				<g id="shape2758-7" transform="translate(20.2273,-27.4201)">
					<title>path8</title>
					<rect x="0" y="85.0468" width="14.8848" height="6.47735" class="st3"/>
				</g>
				<g id="shape2759-9" transform="translate(3.1098,-18.7462)">
					<title>path10</title>
					<path d="M49.16 76.37 L34.27 76.37 L34.27 82.85 L49.16 82.85 L49.16 76.37 ZM6.18 85.05 L0 85.05 L0 91.52 L6.18
								 91.52 L6.18 85.05 Z" class="st2"/>
				</g>
				<g id="shape2760-11" transform="translate(11.5582,-18.7462)">
					<title>path12</title>
					<path d="M40.67 85.05 L40.67 86.34 A14.3388 14.1073 -180 0 0 37.6 85.95 A14.6312 14.395 -180 0 0 34.53 86.23
								 L34.53 85.05 L40.67 85.05 ZM14.89 85.05 L0 85.05 L0 91.52 L14.89 91.52 L14.89 85.05 Z" class="st3"/>
				</g>
				<g id="shape2761-13" transform="translate(3.1098,-10.038)">
					<title>path14</title>
					<path d="M40.45 76.34 L40.45 78.53 A17.8843 17.5955 0 0 1 28.78 82.71 L25.57 82.71 L25.57 76.34 L40.45 76.34
								 L40.45 76.34 ZM14.88 85.05 L0 85.05 L0 91.52 L14.88 91.52 L14.88 85.05 Z" class="st2"/>
				</g>
				<g id="shape2762-15" transform="translate(20.2273,-10.0742)">
					<title>path16</title>
					<rect x="0" y="85.0468" width="9.94711" height="6.47735" class="st3"/>
				</g>
				<g id="shape2763-17" transform="translate(23.7747,0)">
					<title>path18</title>
					<path d="M32.92 67.59 L32.92 71.01 L0 71.01 L0 90.59 a0.987546 0.971602 -180 0 0 1.02434 0.935405 L31.78 91.52
								 A1.0224 1.00589 -180 0 0 32.84 90.59 L32.84 67.6 L32.92 67.6 L32.92 67.59 ZM2.63 75.98 A1.35546
								 1.33357 0 1 1 3.99 77.31 A1.38837 1.36596 0 0 1 2.63 75.98 ZM3.99 88.07 A1.35352 1.33167 0 1 1 5.34
								 86.74 A1.39031 1.36786 0 0 1 3.99 88.07 L3.99 88.07 ZM3.99 82.39 A1.38837 1.36596 0 0 1 2.63 81.05
								 A1.35352 1.33167 0 1 1 5.34 81.05 A1.39031 1.36786 0 0 1 3.99 82.42 L3.99 82.39 L3.99 82.39 ZM29.26
								 87.28 C29.26 87.53 28.89 87.75 28.46 87.75 L8.16 87.75 C7.72 87.75 7.35 87.53 7.35 87.28 L7.35 86.02
								 C7.35 85.8 7.72 85.59 8.16 85.59 L28.46 85.59 C28.89 85.59 29.26 85.8 29.26 86.02 L29.26 87.28 ZM29.26
								 81.59 C29.26 81.84 28.89 82.06 28.46 82.06 L8.16 82.06 C7.72 82.06 7.35 81.84 7.35 81.59 L7.35 80.48
								 C7.35 80.22 7.72 80.05 8.16 80.05 L28.46 80.05 C28.89 80.05 29.26 80.22 29.26 80.48 L29.26 81.59
								 ZM29.26 76.52 C29.26 76.77 28.89 76.99 28.46 76.99 L8.16 76.99 C7.72 76.99 7.35 76.77 7.35 76.52
								 L7.35 75.4 C7.35 75.19 7.72 74.97 8.16 74.97 L28.46 74.97 C28.89 74.97 29.26 75.19 29.26 75.4 L29.26
								 76.52 Z" class="st4"/>
				</g>
				<g id="shape2764-19" transform="translate(23.7747,-3.45395)">
					<title>path20</title>
					<path d="M1.06 70.11 a0.917837 0.903019 -180 0 0 -1.06113 0.899208 L0 74.43 L32.92 74.43 L32.92 71.05 a0.948819
								 0.9335 -180 0 0 -0.987547 -0.863011 L1.06 70.19 L1.06 70.11 ZM28.45 83.5 L8.16 83.5 C7.72 83.5 7.35
								 83.68 7.35 83.93 L7.35 85.05 C7.35 85.3 7.72 85.52 8.16 85.52 L28.45 85.52 C28.89 85.52 29.26 85.3
								 29.26 85.05 L29.26 83.93 C29.26 83.68 28.89 83.5 28.46 83.5 L28.45 83.5 ZM28.45 78.43 L8.16 78.43
								 C7.72 78.43 7.35 78.64 7.35 78.86 L7.35 79.97 C7.35 80.22 7.72 80.44 8.16 80.44 L28.45 80.44 C28.89
								 80.44 29.26 80.22 29.26 79.97 L29.26 78.86 C29.26 78.68 28.89 78.43 28.46 78.43 L28.45 78.43 ZM28.45
								 89.18 L8.16 89.18 C7.72 89.18 7.35 89.4 7.35 89.62 L7.35 90.73 C7.35 90.98 7.72 91.2 8.16 91.2 L28.45
								 91.2 C28.89 91.2 29.26 90.98 29.26 90.73 L29.26 89.47 C29.26 89.47 28.89 89.19 28.46 89.19 L28.45
								 89.18 ZM3.99 80.76 A1.35352 1.33167 -180 1 0 3.99 78.1 A1.35352 1.33167 -180 0 0 3.99 80.76 ZM3.99
								 85.84 A1.35352 1.33167 -180 1 0 3.99 83.18 A1.35352 1.33167 -180 0 0 3.99 85.84 ZM3.99 91.52 A1.35352
								 1.33167 -180 1 0 3.99 88.86 A1.35352 1.33167 -180 0 0 3.99 91.52 Z" class="st5"/>
				</g>
			</g>
		</g>
	</g>
</svg>
