<?xml version="1.0" encoding="UTF-8" standalone="no"?>
<!-- Generated by Microsoft Visio, SVG Export Application Insights Performance.svg Page-1 -->
<svg xmlns:dc="http://purl.org/dc/elements/1.1/" xmlns:cc="http://creativecommons.org/ns#" xmlns:rdf="http://www.w3.org/1999/02/22-rdf-syntax-ns#" xmlns:svg="http://www.w3.org/2000/svg" xmlns="http://www.w3.org/2000/svg" xmlns:sodipodi="http://sodipodi.sourceforge.net/DTD/sodipodi-0.dtd" xmlns:inkscape="http://www.inkscape.org/namespaces/inkscape" width="53.718537" height="56.698899" viewBox="0 0 53.718537 56.698899" xml:space="preserve" class="st7" version="1.1" id="svg59" sodipodi:docname="Application Insights Performance.svg" style="font-size:12px;overflow:visible;color-interpolation-filters:sRGB;fill:none;fill-rule:evenodd;stroke-linecap:square;stroke-miterlimit:3" inkscape:version="0.92.5 (2060ec1f9f, 2020-04-08)">
  <metadata id="metadata65">
    <rdf:RDF>
      <cc:Work rdf:about="">
        <dc:format>image/svg+xml</dc:format>
        <dc:type rdf:resource="http://purl.org/dc/dcmitype/StillImage" />
      </cc:Work>
    </rdf:RDF>
  </metadata>
  <defs id="defs63" />
  <sodipodi:namedview pagecolor="#ffffff" bordercolor="#666666" borderopacity="1" objecttolerance="10" gridtolerance="10" guidetolerance="10" inkscape:pageopacity="0" inkscape:pageshadow="2" inkscape:window-width="640" inkscape:window-height="480" id="namedview61" showgrid="false" inkscape:zoom="1.7193066" inkscape:cx="35.812321" inkscape:cy="23.279613" inkscape:window-x="0" inkscape:window-y="0" inkscape:window-maximized="0" inkscape:current-layer="svg59" />
	<style type="text/css" id="style2">
	<![CDATA[
		.st1 {fill:#59b4d9;stroke:none;stroke-linecap:butt;stroke-width:12.24}
		.st2 {fill:#ffffff;stroke:none;stroke-linecap:butt;stroke-width:12.24}
		.st3 {fill:#3999c6;stroke:none;stroke-linecap:butt;stroke-width:12.24}
		.st4 {fill:#57a300;stroke:none;stroke-linecap:butt;stroke-width:12.24}
		.st5 {fill:#b8d432;stroke:none;stroke-linecap:butt;stroke-width:12.24}
		.st6 {fill:#dadde0;stroke:none;stroke-linecap:butt;stroke-width:12.24}
		.st7 {fill:none;fill-rule:evenodd;font-size:12px;overflow:visible;stroke-linecap:square;stroke-miterlimit:3}
	]]>
	</style>

	<g id="g57" transform="translate(-12.242223,-12.2354)">
		<title id="title4">Page-1</title>
		<g id="group13906-1" transform="translate(9.27018,-34.0157)">
			<title id="title6">Application Insights Performance.13906</title>
			<g id="group13907-2">
				<title id="title8">Sheet.13907</title>
				<g id="shape13908-3" transform="translate(0,-11.1789)">
					<title id="title10">Sheet.13908</title>
					<path d="m 39.45,98.32 c -4.16,3.19 -8.95,4.63 -13.74,4.63 -6.87,0 -13.57,-3.04 -18.04,-8.94 C 0,84.1 1.92,69.73 11.98,62.07 c 4.15,-3.2 8.94,-4.64 13.73,-4.64 6.87,0 13.58,3.04 18.05,8.95 7.66,10.06 5.75,24.27 -4.31,31.94 z" class="st1" id="path12" inkscape:connector-curvature="0" style="fill:#59b4d9;stroke:none;stroke-width:12.23999977;stroke-linecap:butt" />
				</g>
				<g id="shape13909-5" transform="translate(5.90884,-15.4907)">
					<title id="title15">Sheet.13909</title>
					<path d="m 29.38,88.58 c 1.6,2.07 4.8,2.55 6.87,0.95 l 0.32,-0.32 c 2.24,1.6 3.67,2.56 4.63,3.2 0.32,-0.64 0.48,-1.28 0.64,-1.92 -0.96,-0.64 -2.08,-1.59 -3.83,-3.03 0.64,-1.6 0.32,-3.36 -0.64,-4.63 -1.6,-1.92 -4.15,-2.4 -6.39,-1.28 -2.39,-2.08 -4.79,-4.47 -7.5,-7.19 8.3,-4.47 14.21,-3.83 14.21,-3.83 -0.96,-1.28 -2.08,-2.4 -3.35,-3.35 -3.52,-0.48 -8.95,-0.48 -15.18,2.87 -2.07,-2.23 -4.15,-4.47 -6.38,-7.03 -0.96,0.32 -2.08,0.8 -3.04,1.28 1.6,2.56 3.67,5.27 6.07,7.83 -2.08,1.43 -4.31,3.35 -6.39,5.43 C 9.1,77.88 8.94,78.2 8.62,78.36 7.35,78.04 6.07,78.2 4.95,78.67 2.87,74.2 3.03,70.69 3.35,68.77 2.4,69.73 1.6,70.69 0.96,71.81 0.48,74.04 0.32,77.24 1.92,81.07 0,83.47 0,86.82 1.92,89.37 2.08,89.53 2.24,89.85 2.4,90.01 1.6,92.89 1.12,95.6 1.12,98 c 0.16,0.32 0.16,0.48 0.48,0.8 1.11,1.43 2.39,2.55 3.83,3.67 -0.16,-2.56 0,-6.23 1.6,-10.38 1.11,0.16 2.07,-0.16 3.19,-0.48 0.64,0.48 1.12,0.96 1.92,1.6 2.23,1.75 4.47,3.19 6.54,4.15 -0.15,1.12 0.16,2.23 0.96,3.19 1.6,1.92 4.31,2.4 6.39,0.8 0.48,-0.32 0.8,-0.64 0.96,-1.12 3.51,0.8 6.71,0.96 8.94,0.96 0.32,0 1.92,-2.23 2.88,-3.51 -1.44,0.32 -5.59,0.8 -11.18,-0.8 -0.16,-0.64 -0.32,-1.28 -0.8,-1.76 -1.44,-1.91 -3.99,-2.23 -6.07,-0.95 -1.92,-1.12 -3.99,-2.4 -6.07,-4.16 -0.48,-0.32 -0.8,-0.64 -1.28,-0.96 1.28,-2.07 1.44,-4.63 0.32,-6.86 l 0.8,-0.8 c 2.08,-1.92 4.15,-3.51 5.91,-4.79 l -0.16,-0.16 0.16,0.16 c 2.88,2.55 5.91,5.11 8.63,7.34 -0.96,1.12 -0.8,3.2 0.31,4.64 z" class="st2" id="path17" inkscape:connector-curvature="0" style="fill:#ffffff;stroke:none;stroke-width:12.23999977;stroke-linecap:butt" />
				</g>
				<g id="shape13910-7" transform="translate(43.5976)">
					<title id="title20">Sheet.13910</title>
					<path d="m 0.16,102.95 h 0.16 c 7.03,0 12.62,-2.08 12.62,-4.63 V 73.88 H 0 v 29.07 z" class="st1" id="path22" inkscape:connector-curvature="0" style="fill:#59b4d9;stroke:none;stroke-width:12.23999977;stroke-linecap:butt" />
				</g>
				<g id="shape13911-9" transform="translate(31.3009)">
					<title id="title25">Sheet.13911</title>
					<path d="m 0,73.88 v 24.44 c 0,2.55 5.59,4.63 12.62,4.63 V 73.88 Z" class="st3" id="path27" inkscape:connector-curvature="0" style="fill:#3999c6;stroke:none;stroke-width:12.23999977;stroke-linecap:butt" />
				</g>
				<g id="shape13912-11" transform="translate(31.4606,-24.4338)">
					<title id="title30">Sheet.13912</title>
					<path d="m 25.23,98.32 c 0,2.55 -5.59,4.63 -12.61,4.63 C 5.59,102.95 0,100.87 0,98.32 c 0,-2.56 5.59,-4.63 12.62,-4.63 6.86,0 12.61,2.07 12.61,4.63 z" class="st2" id="path32" inkscape:connector-curvature="0" style="fill:#ffffff;stroke:none;stroke-width:12.23999977;stroke-linecap:butt" />
				</g>
				<g id="shape13913-13" transform="translate(34.0157,-26.3502)">
					<title id="title35">Sheet.13913</title>
					<path d="m 20.12,99.91 c 0,1.76 -4.47,3.04 -10.06,3.04 C 4.47,102.95 0,101.67 0,99.91 c 0,-1.75 4.47,-3.03 10.06,-3.03 5.59,0 10.06,1.44 10.06,3.03 z" class="st4" id="path37" inkscape:connector-curvature="0" style="fill:#57a300;stroke:none;stroke-width:12.23999977;stroke-linecap:butt" />
				</g>
				<g id="shape13914-15" transform="translate(33.856,-27.4681)">
					<title id="title40">Sheet.13914</title>
					<path d="m 18.05,102.95 c 1.27,-0.48 2.07,-1.12 2.07,-1.92 C 20.12,99.28 15.65,98 10.06,98 4.47,98 0,99.28 0,101.03 c 0,0.64 0.8,1.28 2.08,1.92 1.91,-0.64 4.79,-1.12 7.98,-1.12 3.35,-0.16 6.23,0.48 7.99,1.12 z" class="st5" id="path42" inkscape:connector-curvature="0" style="fill:#b8d432;stroke:none;stroke-width:12.23999977;stroke-linecap:butt" />
				</g>
				<g id="shape13915-17" transform="translate(15.1713,-3.35367)">
					<title id="title45">Sheet.13915</title>
					<path d="m 28.91,95.76 c -1.6,0 -2.88,1.12 -3.36,2.56 H 12.3 C 6.71,98.32 2.08,93.69 2.08,88.1 H 0 c 0,6.7 5.59,12.29 12.3,12.29 h 13.25 c 0.48,1.44 1.76,2.56 3.36,2.56 1.91,0 3.51,-1.6 3.51,-3.51 0,-2.08 -1.6,-3.68 -3.51,-3.68 z" class="st6" id="path47" inkscape:connector-curvature="0" style="fill:#dadde0;stroke:none;stroke-width:12.23999977;stroke-linecap:butt" />
				</g>
				<g id="shape13916-19" transform="translate(15.1713,-17.8862)">
					<title id="title50">Sheet.13916</title>
					<rect x="0" y="96.560699" width="2.0760801" height="6.3879299" class="st6" id="rect52" style="fill:#dadde0;stroke:none;stroke-width:12.23999977;stroke-linecap:butt" />
				</g>
			</g>
		</g>
	</g>
</svg>