<?xml version="1.0" encoding="UTF-8" standalone="no"?>
<!-- Generated by Microsoft Visio, SVG Export Automation Python Package.svg Page-1 -->
<svg xmlns:dc="http://purl.org/dc/elements/1.1/" xmlns:cc="http://creativecommons.org/ns#" xmlns:rdf="http://www.w3.org/1999/02/22-rdf-syntax-ns#" xmlns:svg="http://www.w3.org/2000/svg" xmlns="http://www.w3.org/2000/svg" xmlns:sodipodi="http://sodipodi.sourceforge.net/DTD/sodipodi-0.dtd" xmlns:inkscape="http://www.inkscape.org/namespaces/inkscape" width="56.689915" height="56.686282" viewBox="0 0 56.689915 56.686282" xml:space="preserve" class="st3" version="1.1" id="svg24" sodipodi:docname="Automation Python Package.svg" style="font-size:12px;overflow:visible;color-interpolation-filters:sRGB;fill:none;fill-rule:evenodd;stroke-linecap:square;stroke-miterlimit:3" inkscape:version="0.92.5 (2060ec1f9f, 2020-04-08)">
  <metadata id="metadata30">
    <rdf:RDF>
      <cc:Work rdf:about="">
        <dc:format>image/svg+xml</dc:format>
        <dc:type rdf:resource="http://purl.org/dc/dcmitype/StillImage" />
      </cc:Work>
    </rdf:RDF>
  </metadata>
  <defs id="defs28" />
  <sodipodi:namedview pagecolor="#ffffff" bordercolor="#666666" borderopacity="1" objecttolerance="10" gridtolerance="10" guidetolerance="10" inkscape:pageopacity="0" inkscape:pageshadow="2" inkscape:window-width="640" inkscape:window-height="480" id="namedview26" showgrid="false" inkscape:zoom="1.7017044" inkscape:cx="37.795438" inkscape:cy="23.983789" inkscape:window-x="0" inkscape:window-y="0" inkscape:window-maximized="0" inkscape:current-layer="svg24" />
	<style type="text/css" id="style2">
	<![CDATA[
		.st1 {fill:#0072c6;stroke:none;stroke-linecap:butt;stroke-width:13.3043}
		.st2 {fill:#fcd116;stroke:none;stroke-linecap:butt;stroke-width:13.3043}
		.st3 {fill:none;fill-rule:evenodd;font-size:12px;overflow:visible;stroke-linecap:square;stroke-miterlimit:3}
	]]>
	</style>

	<g id="g22" transform="translate(-13.3043,-13.308)">
		<title id="title4">Page-1</title>
		<g id="group13766-1" transform="translate(13.3043,-34.0157)">
			<title id="title6">Automation Python Package.13766</title>
			<g id="group13767-2">
				<title id="title8">Sheet.13767</title>
				<g id="shape13768-3" transform="translate(0,-14.0463)">
					<title id="title10">Sheet.13768</title>
					<path d="m 28.14,61.37 c -14.39,0 -13.49,6.24 -13.49,6.24 l 0.01,6.46 H 28.4 v 1.94 H 9.21 c 0,0 -9.21,-1.04 -9.21,13.48 0,14.52 8.04,14.01 8.04,14.01 h 4.16 v -6.74 c 0,0 0.38,-8.28 8.55,-8.28 h 13.62 c 0,0 7.65,0.37 7.65,-7.16 V 68.89 c 0,0 1.16,-7.52 -13.88,-7.52 z m -7.57,4.34 c 1.37,0 2.47,1.11 2.47,2.48 0,1.36 -1.1,2.47 -2.47,2.47 -1.37,0 -2.47,-1.11 -2.47,-2.47 0,-1.37 1.1,-2.48 2.47,-2.48 z" class="st1" id="path12" inkscape:connector-curvature="0" style="fill:#0072c6;stroke:none;stroke-width:13.30430031;stroke-linecap:butt" />
				</g>
				<g id="shape13769-5" transform="translate(13.5099)">
					<title id="title15">Sheet.13769</title>
					<path d="m 15.04,104.01 c 14.39,0 13.49,-6.24 13.49,-6.24 L 28.52,91.31 H 14.78 v -1.94 h 19.19 c 0,0 9.21,1.04 9.21,-13.48 0,-14.52 -8.03,-14.01 -8.03,-14.01 h -4.17 v 6.74 c 0,0 -0.38,8.28 -8.54,8.28 H 8.81 c 0,0 -7.65,-0.37 -7.65,7.15 v 12.44 c 0,0 -1.16,7.52 13.88,7.52 z m 7.57,-4.35 a 2.46855,2.46861 0 0 1 -2.47,-2.47 c 0,-1.36 1.11,-2.47 2.47,-2.47 1.37,0 2.47,1.11 2.47,2.47 a 2.46855,2.46861 0 0 1 -2.47,2.47 z" class="st2" id="path17" inkscape:connector-curvature="0" style="fill:#fcd116;stroke:none;stroke-width:13.30430031;stroke-linecap:butt" />
				</g>
			</g>
		</g>
	</g>
</svg>