<?xml version="1.0" encoding="UTF-8" standalone="no"?>
<!-- Generated by Microsoft Visio, SVG Export Automation State Configuration (DSC).svg Page-1 -->
<svg xmlns:dc="http://purl.org/dc/elements/1.1/" xmlns:cc="http://creativecommons.org/ns#" xmlns:rdf="http://www.w3.org/1999/02/22-rdf-syntax-ns#" xmlns:svg="http://www.w3.org/2000/svg" xmlns="http://www.w3.org/2000/svg" xmlns:sodipodi="http://sodipodi.sourceforge.net/DTD/sodipodi-0.dtd" xmlns:inkscape="http://www.inkscape.org/namespaces/inkscape" width="45.354061" height="56.692899" viewBox="0 0 45.354061 56.692899" xml:space="preserve" class="st4" version="1.1" id="svg49" sodipodi:docname="Automation State Configuration (DSC).svg" style="font-size:12px;overflow:visible;color-interpolation-filters:sRGB;fill:none;fill-rule:evenodd;stroke-linecap:square;stroke-miterlimit:3" inkscape:version="0.92.5 (2060ec1f9f, 2020-04-08)">
  <metadata id="metadata55">
    <rdf:RDF>
      <cc:Work rdf:about="">
        <dc:format>image/svg+xml</dc:format>
        <dc:type rdf:resource="http://purl.org/dc/dcmitype/StillImage" />
      </cc:Work>
    </rdf:RDF>
  </metadata>
  <defs id="defs53" />
  <sodipodi:namedview pagecolor="#ffffff" bordercolor="#666666" borderopacity="1" objecttolerance="10" gridtolerance="10" guidetolerance="10" inkscape:pageopacity="0" inkscape:pageshadow="2" inkscape:window-width="640" inkscape:window-height="480" id="namedview51" showgrid="false" inkscape:zoom="1.7193066" inkscape:cx="30.236048" inkscape:cy="23.277747" inkscape:window-x="0" inkscape:window-y="0" inkscape:window-maximized="0" inkscape:current-layer="svg49" />
	<style type="text/css" id="style2">
	<![CDATA[
		.st1 {fill:#3999c6;stroke:none;stroke-linecap:butt;stroke-width:12.24}
		.st2 {fill:#ffffff;stroke:none;stroke-linecap:butt;stroke-width:12.24}
		.st3 {fill:#ffffff;fill-opacity:0.6;stroke:none;stroke-linecap:butt;stroke-width:12.24}
		.st4 {fill:none;fill-rule:evenodd;font-size:12px;overflow:visible;stroke-linecap:square;stroke-miterlimit:3}
	]]>
	</style>

	<g id="g47" transform="translate(-12.240182,-12.239999)">
		<title id="title4">Page-1</title>
		<g id="group13727-1" transform="translate(12.24,-34.0157)">
			<title id="title6">Automation State Configuration (DSC).13727</title>
			<g id="group13728-2">
				<title id="title8">Sheet.13728</title>
				<g id="shape13729-3">
					<title id="title10">Sheet.13729</title>
					<rect x="0" y="46.255699" width="45.354301" height="56.692902" class="st1" id="rect12" style="fill:#3999c6;stroke:none;stroke-width:12.23999977;stroke-linecap:butt" />
				</g>
				<g id="shape13730-5" transform="translate(4.50935,-7.93701)">
					<title id="title15">Sheet.13730</title>
					<path d="M 0.63,97.61 0.1,97.14 C 0,97.04 0,96.86 0.1,96.67 l 1.47,-1.12 c 0.1,-0.1 0.1,-0.1 0.21,-0.1 0.1,0 0.21,0 0.21,0.1 l 3.87,3.74 6.71,-7.59 c 0.1,-0.09 0.21,-0.09 0.31,-0.09 0.1,0 0.1,0 0.21,0.09 l 1.57,1.03 c 0.11,0.1 0.11,0.1 0.11,0.19 0,0.1 0,0.19 -0.11,0.19 l -8.69,9.84 z" class="st2" id="path17" inkscape:connector-curvature="0" style="fill:#ffffff;stroke:none;stroke-width:12.23999977;stroke-linecap:butt" />
				</g>
				<g id="shape13731-7" transform="translate(22.6772,-11.9055)">
					<title id="title20">Sheet.13731</title>
					<rect x="0" y="99.547096" width="18.141701" height="3.4015701" class="st3" id="rect22" style="fill:#ffffff;fill-opacity:0.6;stroke:none;stroke-width:12.23999977;stroke-linecap:butt" />
				</g>
				<g id="shape13732-9" transform="translate(4.50935,-22.6772)">
					<title id="title25">Sheet.13732</title>
					<path d="M 0.63,97.61 0.1,97.14 C 0,97.04 0,96.86 0.1,96.67 l 1.47,-1.12 c 0.1,-0.1 0.1,-0.1 0.21,-0.1 0.1,0 0.21,0 0.21,0.1 l 3.87,3.74 6.71,-7.59 c 0.1,-0.09 0.21,-0.09 0.31,-0.09 0.1,0 0.1,0 0.21,0.09 l 1.57,1.03 c 0.11,0.1 0.11,0.1 0.11,0.19 0,0.1 0,0.19 -0.11,0.19 l -8.69,9.84 z" class="st2" id="path27" inkscape:connector-curvature="0" style="fill:#ffffff;stroke:none;stroke-width:12.23999977;stroke-linecap:butt" />
				</g>
				<g id="shape13733-11" transform="translate(22.6772,-26.6457)">
					<title id="title30">Sheet.13733</title>
					<rect x="0" y="99.547096" width="18.141701" height="3.4015701" class="st3" id="rect32" style="fill:#ffffff;fill-opacity:0.6;stroke:none;stroke-width:12.23999977;stroke-linecap:butt" />
				</g>
				<g id="shape13734-13" transform="translate(4.50935,-37.4173)">
					<title id="title35">Sheet.13734</title>
					<path d="M 0.63,97.61 0.1,97.14 C 0,97.04 0,96.86 0.1,96.67 l 1.47,-1.12 c 0.1,-0.1 0.1,-0.1 0.21,-0.1 0.1,0 0.21,0 0.21,0.1 l 3.87,3.74 6.71,-7.59 c 0.1,-0.09 0.21,-0.09 0.31,-0.09 0.1,0 0.1,0 0.21,0.09 l 1.57,1.03 c 0.11,0.1 0.11,0.1 0.11,0.19 0,0.1 0,0.19 -0.11,0.19 l -8.69,9.84 z" class="st2" id="path37" inkscape:connector-curvature="0" style="fill:#ffffff;stroke:none;stroke-width:12.23999977;stroke-linecap:butt" />
				</g>
				<g id="shape13735-15" transform="translate(22.6772,-41.3858)">
					<title id="title40">Sheet.13735</title>
					<rect x="0" y="99.547096" width="18.141701" height="3.4015701" class="st3" id="rect42" style="fill:#ffffff;fill-opacity:0.6;stroke:none;stroke-width:12.23999977;stroke-linecap:butt" />
				</g>
			</g>
		</g>
	</g>
</svg>