<?xml version="1.0" encoding="UTF-8" standalone="no"?>
<!-- Generated by Microsoft Visio, SVG Export Backup Center.svg Page-1 -->
<svg xmlns:dc="http://purl.org/dc/elements/1.1/" xmlns:cc="http://creativecommons.org/ns#" xmlns:rdf="http://www.w3.org/1999/02/22-rdf-syntax-ns#" xmlns:svg="http://www.w3.org/2000/svg" xmlns="http://www.w3.org/2000/svg" xmlns:sodipodi="http://sodipodi.sourceforge.net/DTD/sodipodi-0.dtd" xmlns:inkscape="http://www.inkscape.org/namespaces/inkscape" width="57.027831" height="51.036774" viewBox="0 0 57.027831 51.036774" xml:space="preserve" class="st5" version="1.1" id="svg53" sodipodi:docname="Backup Center.svg" style="font-size:12px;overflow:visible;color-interpolation-filters:sRGB;fill:none;fill-rule:evenodd;stroke-linecap:square;stroke-miterlimit:3" inkscape:version="0.92.5 (2060ec1f9f, 2020-04-08)">
  <metadata id="metadata57">
    <rdf:RDF>
      <cc:Work rdf:about="">
        <dc:format>image/svg+xml</dc:format>
        <dc:type rdf:resource="http://purl.org/dc/dcmitype/StillImage" />
      </cc:Work>
    </rdf:RDF>
  </metadata>
  <sodipodi:namedview pagecolor="#ffffff" bordercolor="#666666" borderopacity="1" objecttolerance="10" gridtolerance="10" guidetolerance="10" inkscape:pageopacity="0" inkscape:pageshadow="2" inkscape:window-width="640" inkscape:window-height="480" id="namedview55" showgrid="false" inkscape:zoom="1.4868353" inkscape:cx="38.016582" inkscape:cy="34.015994" inkscape:window-x="0" inkscape:window-y="0" inkscape:window-maximized="0" inkscape:current-layer="svg53" />
	<style type="text/css" id="style2">
	<![CDATA[
		.st1 {fill:url(#grad0-6);stroke:none;stroke-linecap:butt;stroke-width:34}
		.st2 {fill:#ffffff;stroke:none;stroke-linecap:butt;stroke-width:34}
		.st3 {fill:#50e6ff;stroke:none;stroke-linecap:butt;stroke-width:34}
		.st4 {fill:#0078d4;stroke:none;stroke-linecap:butt;stroke-width:34}
		.st5 {fill:none;fill-rule:evenodd;font-size:12px;overflow:visible;stroke-linecap:square;stroke-miterlimit:3}
	]]>
	</style>

	<defs id="Patterns_And_Gradients">
		<linearGradient id="grad0-6" x1="0" y1="107.21191" x2="35.642334" y2="107.21191" gradientTransform="scale(1.1999775,0.83334893)" gradientUnits="userSpaceOnUse">
			<stop offset="0" stop-color="#0078d4" stop-opacity="1" id="stop4" />
			<stop offset="0.15" stop-color="#1882db" stop-opacity="1" id="stop6" />
			<stop offset="0.375" stop-color="#378fe4" stop-opacity="1" id="stop8" />
			<stop offset="0.595" stop-color="#4c99ea" stop-opacity="1" id="stop10" />
			<stop offset="0.805" stop-color="#5a9eee" stop-opacity="1" id="stop12" />
			<stop offset="1" stop-color="#5ea0ef" stop-opacity="1" id="stop14" />
		</linearGradient>
	</defs>
	<g id="g51" transform="translate(-34.003471,-33.997817)">
		<title id="title18">Page-1</title>
		<g id="group13210-1" transform="translate(34.339,-34.0157)">
			<title id="title20">Backup Center.13210</title>
			<g id="group13211-2">
				<title id="title22">Sheet.13211</title>
				<g id="shape13212-3" transform="translate(13.9223,-21.3315)">
					<title id="title24">Sheet.13212</title>
					<path d="M 42.77,109.75 A 9.60365,9.4072 -180 0 0 34.43,100.7 12.1275,11.8794 -180 0 0 21.96,89.35 12.4323,12.178 -180 0 0 10.08,97.29 11.4719,11.2373 -180 0 0 0,108.1 11.6391,11.401 -180 0 0 12.05,119.04 8.17457,8.00736 -180 0 0 13.11,119 h 19.5 a 1.96662,1.92639 -180 0 0 0.51,-0.08 9.72165,9.52278 -180 0 0 9.65,-9.17 z" class="st1" id="path26" inkscape:connector-curvature="0" style="fill:url(#grad0-6);stroke:none;stroke-width:34;stroke-linecap:butt" />
				</g>
				<g id="shape13213-7" transform="translate(1.61103,-4.99256)">
					<title id="title29">Sheet.13213</title>
					<path d="m 32.39,101.63 0.06,1.38 1.41,0.19 a 8.32535,8.15505 0 0 1 7.21,7.8 8.45318,8.28026 0 0 1 -8.35,8.03 h -0.14 l -0.11,0.01 -0.11,-0.02 H 10.72 a 10.5935,10.3768 0 0 1 -4.05,-0.54 11.0622,10.8359 0 0 1 -3.63,-2.06 10.8951,10.6722 0 0 1 -2.43,-3.32 9.96092,9.75716 0 0 1 1.84,-10.31 10.3149,10.1039 0 0 1 6.42,-3.1 l 1.02,-0.12 0.36,-0.95 a 11.4293,11.1955 0 0 1 4.23,-5.33 11.2556,11.0254 0 0 1 6.55,-1.93 h 0.09 a 10.941,10.7171 0 0 1 11.27,10.27 z" class="st2" id="path31" inkscape:connector-curvature="0" style="fill:#ffffff;stroke:none;stroke-width:34;stroke-linecap:butt" />
				</g>
				<g id="shape13214-9" transform="translate(0,-3.35192)">
					<title id="title34">Sheet.13214</title>
					<path d="m 34.05,119.04 -0.28,-0.06 H 12.34 a 12.252,12.0014 0 0 1 -4.59,-0.62 12.6683,12.4092 0 0 1 -4.18,-2.38 12.5044,12.2486 0 0 1 -2.84,-3.85 11.6686,11.4299 0 0 1 2.11,-12.06 11.9636,11.7189 0 0 1 7.47,-3.62 v -0.02 a 12.9764,12.711 0 0 1 4.83,-6.1 12.4323,12.178 0 0 1 7.52,-2.22 12.6257,12.3674 0 0 1 12.96,11.81 l 0.05,0.04 a 9.94125,9.7379 0 0 1 8.63,9.34 10.0887,9.88238 0 0 1 -9.96,9.69 z M 22.6,91.32 a 9.63315,9.4361 -180 0 0 -9.2,6.21 l -0.71,1.88 -2.02,0.23 a 8.69901,8.52106 -180 0 0 -5.44,2.61 8.34501,8.17431 -180 0 0 -1.5,8.59 9.17755,8.98982 -180 0 0 2.04,2.77 9.17755,8.98982 -180 0 0 3.04,1.71 8.92517,8.7426 -180 0 0 3.41,0.46 h 21.96 a 6.82744,6.68778 -180 0 0 6.85,-6.47 6.64717,6.51119 -180 0 0 -5.8,-6.16 l -2.76,-0.36 -0.12,-2.74 a 9.31521,9.12466 -180 0 0 -9.57,-8.73 z" class="st3" id="path36" inkscape:connector-curvature="0" style="fill:#50e6ff;stroke:none;stroke-width:34;stroke-linecap:butt" />
				</g>
				<g id="shape13215-11" transform="translate(6.87193,-10.5309)">
					<title id="title39">Sheet.13215</title>
					<path d="m 8.52,115.31 v -0.97 l -1,-0.32 -0.26,-0.67 0.49,-1.01 v -0.11 L 7.42,111.91 7.05,111.52 H 6.92 L 5.94,112 5.25,111.83 4.83,110.75 H 3.85 l -0.33,0.98 -0.68,0.25 -1.15,-0.53 -0.71,0.7 v 0.12 l 0.49,0.96 -0.27,0.67 -1.2,0.41 v 0.97 h 0.14 l 1.04,0.34 0.3,0.66 -0.55,1.12 0.71,0.7 h 0.12 l 0.98,-0.5 0.69,0.27 0.43,1.17 h 0.99 v -0.13 l 0.35,-1.04 0.66,-0.27 1.16,0.52 0.69,-0.68 v -0.13 l -0.43,-0.93 0.2,-0.68 z m -4.16,0.89 a 1.39958,1.37095 0 1 1 0.51,-2.64 1.4258,1.39663 0 0 1 0.63,0.5 1.39958,1.37095 0 0 1 0.24,0.77 1.38319,1.35489 0 0 1 -1.31,1.37 z" class="st4" id="path41" inkscape:connector-curvature="0" style="fill:#0078d4;stroke:none;stroke-width:34;stroke-linecap:butt" />
				</g>
				<g id="shape13216-13" transform="translate(3.08087)">
					<title id="title44">Sheet.13216</title>
					<path d="m 8.1,115.71 a 11.5932,11.3561 0 1 1 11.67,-11.36 h -3.52 a 8.06969,7.90462 -180 1 0 -8.08,7.9 h 2.57 a 0.183551,0.179796 -180 0 0 0.183551,-0.0514 0.206495,0.202271 -180 0 0 0.05244,-0.0835 0.249105,0.244009 -180 0 0 0,-0.0963 L 10.98,109.22 a 0.28516,0.279326 0 0 1 0.17044,-0.21511 0.32777,0.321065 0 0 1 0.272049,0.0578 L 16.33,113.88 a 0.268771,0.263273 0 0 1 0,0.15732 0.258938,0.253641 0 0 1 -0.0885,0.13485 L 11.33,118.99 a 0.272049,0.266484 0 0 1 -0.137663,0.0578 0.245827,0.240799 0 0 1 -0.144219,-0.0225 0.268771,0.263273 0 0 1 -0.114719,-0.0931 0.24255,0.237588 0 0 1 -0.04589,-0.13806 L 10.89,115.95 a 0.245827,0.240799 -180 0 0 -0.07211,-0.17016 0.239272,0.234377 -180 0 0 -0.176996,-0.0706 z" class="st4" id="path46" inkscape:connector-curvature="0" style="fill:#0078d4;stroke:none;stroke-width:34;stroke-linecap:butt" />
				</g>
			</g>
		</g>
	</g>
</svg>