<?xml version="1.0" encoding="UTF-8" standalone="no"?>
<!-- Generated by Microsoft Visio, SVG Export Cost.svg Page-1 -->
<svg xmlns:dc="http://purl.org/dc/elements/1.1/" xmlns:cc="http://creativecommons.org/ns#" xmlns:rdf="http://www.w3.org/1999/02/22-rdf-syntax-ns#" xmlns:svg="http://www.w3.org/2000/svg" xmlns="http://www.w3.org/2000/svg" xmlns:sodipodi="http://sodipodi.sourceforge.net/DTD/sodipodi-0.dtd" xmlns:inkscape="http://www.inkscape.org/namespaces/inkscape" width="56.690189" height="48.192385" viewBox="0 0 56.690189 48.192385" xml:space="preserve" class="st5" version="1.1" id="svg53" sodipodi:docname="Cost.svg" style="font-size:12px;overflow:visible;color-interpolation-filters:sRGB;fill:none;fill-rule:evenodd;stroke-linecap:square;stroke-miterlimit:3" inkscape:version="0.92.5 (2060ec1f9f, 2020-04-08)">
  <metadata id="metadata57">
    <rdf:RDF>
      <cc:Work rdf:about="">
        <dc:format>image/svg+xml</dc:format>
        <dc:type rdf:resource="http://purl.org/dc/dcmitype/StillImage" />
      </cc:Work>
    </rdf:RDF>
  </metadata>
  <sodipodi:namedview pagecolor="#ffffff" bordercolor="#666666" borderopacity="1" objecttolerance="10" gridtolerance="10" guidetolerance="10" inkscape:pageopacity="0" inkscape:pageshadow="2" inkscape:window-width="640" inkscape:window-height="480" id="namedview55" showgrid="false" inkscape:zoom="1.472682" inkscape:cx="37.79527" inkscape:cy="32.127267" inkscape:window-x="0" inkscape:window-y="0" inkscape:window-maximized="0" inkscape:current-layer="svg53" />
	<style type="text/css" id="style2">
	<![CDATA[
		.st1 {fill:#0078d4;stroke:none;stroke-linecap:butt;stroke-width:36}
		.st2 {fill:url(#grad0-9);stroke:none;stroke-linecap:butt;stroke-width:36}
		.st3 {fill:#ffffff;stroke:none;stroke-linecap:butt;stroke-width:36}
		.st4 {fill:#e6e6e6;stroke:none;stroke-linecap:butt;stroke-width:36}
		.st5 {fill:none;fill-rule:evenodd;font-size:12px;overflow:visible;stroke-linecap:square;stroke-miterlimit:3}
	]]>
	</style>

	<defs id="Patterns_And_Gradients">
		<linearGradient id="grad0-9" x1="-7.5686968e-07" y1="107.03997" x2="40.124682" y2="107.03997" gradientTransform="scale(1.2244334,0.81670428)" gradientUnits="userSpaceOnUse">
			<stop offset="0.225" stop-color="#32d4f5" stop-opacity="1" id="stop4" />
			<stop offset="0.475" stop-color="#31d1f3" stop-opacity="1" id="stop6" />
			<stop offset="0.635" stop-color="#2ec9eb" stop-opacity="1" id="stop8" />
			<stop offset="0.77" stop-color="#29bade" stop-opacity="1" id="stop10" />
			<stop offset="0.89" stop-color="#22a5cb" stop-opacity="1" id="stop12" />
			<stop offset="1" stop-color="#198ab3" stop-opacity="1" id="stop14" />
			<stop offset="1" stop-color="#198ab3" stop-opacity="1" id="stop16" />
		</linearGradient>
	</defs>
	<g id="g51" transform="translate(-35.999995,-35.9976)">
		<title id="title20">Page-1</title>
		<g id="group13079-1" transform="translate(36,-36)">
			<title id="title22">Cost.13079</title>
			<g id="group13080-2">
				<title id="title24">Icon-nameAsset 7</title>
				<g id="group13081-3">
					<title id="title26">Sheet.13081</title>
					<g id="shape13082-4" transform="translate(0,-15.4224)">
						<title id="title28">Sheet.13082</title>
						<path d="m 49.13,116.34 a 3.77842,3.85389 0 0 1 -3.78,3.85 H 3.78 A 3.77842,3.85389 0 0 1 0,116.34 V 91.28 a 3.77842,3.85389 0 0 1 3.78,-3.86 h 41.57 a 3.77842,3.85389 0 0 1 3.78,3.86 z" class="st1" id="path30" inkscape:connector-curvature="0" style="fill:#0078d4;stroke:none;stroke-width:36;stroke-linecap:butt" />
					</g>
					<g id="shape13083-6" transform="translate(7.56017)">
						<title id="title33">Sheet.13083</title>
						<path d="m 49.13,116.33 a 3.78175,3.8573 0 0 1 -3.78,3.86 H 3.78 A 3.78175,3.8573 0 0 1 0,116.33 V 91.28 a 3.78175,3.8573 0 0 1 3.78,-3.86 h 41.57 a 3.78175,3.8573 0 0 1 3.78,3.86 z" class="st2" id="path35" inkscape:connector-curvature="0" style="fill:url(#grad0-9);stroke:none;stroke-width:36;stroke-linecap:butt" />
					</g>
					<g id="shape13084-10" transform="translate(13.2295,-5.78254)">
						<title id="title38">Sheet.13084</title>
						<path d="m 19.84,110.55 h 5.67 a 0.947105,0.966025 0 0 1 0.94377,0.96602 L 26.46,113.44 a 0.947105,0.966025 0 0 1 -0.94377,0.96602 L 19.84,114.41 a 0.947105,0.966025 0 0 1 -0.947105,-0.96603 L 18.9,111.52 a 0.947105,0.966025 0 0 1 0.947105,-0.96603 z m 9.45,0 h 5.67 a 0.947105,0.966025 0 0 1 0.94377,0.96602 L 35.9,113.44 a 0.947105,0.966025 0 0 1 -0.94377,0.96602 L 29.29,114.41 a 0.947105,0.966025 0 0 1 -0.94377,-0.96603 L 28.35,111.52 a 0.947105,0.966025 0 0 1 0.94377,-0.96603 z m -28.35,0 h 5.67 a 0.947105,0.966025 0 0 1 0.94377,0.96602 L 7.56,113.44 a 0.947105,0.966025 0 0 1 -0.94377,0.96602 L 0.94,114.41 a 0.947105,0.966025 0 0 1 -0.94377,-0.96603 L 0,111.52 a 0.947105,0.966025 0 0 1 0.94377,-0.96603 z m 0,7.71 h 13.23 a 0.94377,0.962623 0 0 1 0.94377,0.96262 0.947105,0.966025 0 0 1 -0.94377,0.96603 L 0.94,120.19 A 0.947105,0.966025 0 0 1 -0.00377,119.22397 0.94377,0.962623 0 0 1 0.94,118.26135 Z m 18.9,0 h 3.78 a 0.94377,0.962623 0 0 1 0.94377,0.96262 0.947105,0.966025 0 0 1 -0.94377,0.96603 l -3.78,0.001 A 0.947105,0.966025 0 0 1 18.892895,119.22397 0.947105,0.966025 0 0 1 19.84,118.26135 Z m -9.45,-7.71 h 5.67 a 0.947105,0.966025 0 0 1 0.947105,0.96602 L 17.01,113.44 a 0.947105,0.966025 0 0 1 -0.947105,0.96602 L 10.39,114.41 A 0.947105,0.966025 0 0 1 9.44623,113.44397 L 9.45,111.52 a 0.947105,0.966025 0 0 1 0.94377,-0.96603 z M 9.45,105.2 a 1.54071,1.57149 0 0 1 -1.61,1.5 H 1.6 A 1.54071,1.57149 0 0 1 0,105.2 v -4.29 c 0,-0.83 0.72,-1.93 1.6,-1.93 h 6.24 a 1.54405,1.57489 0 0 1 1.61,1.51 z" class="st3" id="path40" inkscape:connector-curvature="0" style="fill:#ffffff;stroke:none;stroke-width:36;stroke-linecap:butt" />
					</g>
					<g id="shape13085-12" transform="translate(0,-38.5525)">
						<title id="title43">Sheet.13085</title>
						<rect x="0" y="116.335" width="49.132702" height="3.8538899" class="st4" id="rect45" style="fill:#e6e6e6;stroke:none;stroke-width:36;stroke-linecap:butt" />
					</g>
				</g>
			</g>
		</g>
	</g>
</svg>