<?xml version="1.0" encoding="UTF-8" standalone="no"?>
<!DOCTYPE svg PUBLIC "-//W3C//DTD SVG 1.1//EN" "http://www.w3.org/Graphics/SVG/1.1/DTD/svg11.dtd">
<!-- Generated by Microsoft Visio, SVG Export Service Endpoint Policy.svg Page-1 -->
<svg xmlns="http://www.w3.org/2000/svg" xmlns:xlink="http://www.w3.org/1999/xlink" xmlns:ev="http://www.w3.org/2001/xml-events"
		width="1.6925in" height="1.72333in" viewBox="0 0 121.86 124.08" xml:space="preserve" color-interpolation-filters="sRGB"
		class="st6">
	<style type="text/css">
	<![CDATA[
		.st1 {fill:#0078d4;stroke:none;stroke-linecap:butt;stroke-width:34}
		.st2 {fill:url(#grad0-8);stroke:none;stroke-linecap:butt;stroke-width:34}
		.st3 {fill:#f2f2f2;stroke:none;stroke-linecap:butt;stroke-width:34}
		.st4 {fill:#5ea0ef;stroke:none;stroke-linecap:butt;stroke-width:34}
		.st5 {fill:#b3b3b3;stroke:none;stroke-linecap:butt;stroke-width:34}
		.st6 {fill:none;fill-rule:evenodd;font-size:12px;overflow:visible;stroke-linecap:square;stroke-miterlimit:3}
	]]>
	</style>

	<defs id="Patterns_And_Gradients">
		<linearGradient id="grad0-8" x1="0" y1="0" x2="1" y2="0" gradientTransform="rotate(-90 0.5 0.5)">
			<stop offset="0" stop-color="#0078d4" stop-opacity="1"/>
			<stop offset="0.82" stop-color="#5ea0ef" stop-opacity="1"/>
		</linearGradient>
	</defs>
	<g>
		<title>Page-1</title>
		<g id="group7421-1" transform="translate(34,-34.0157)">
			<title>Service Endpoint Policy.7421</title>
			<g id="group7422-2">
				<title>Icon-networking-85</title>
				<g id="shape7423-3" transform="translate(40.8994,-44.886)">
					<title>Sheet.7423</title>
					<path d="M0.23 120.78 A7.55931 7.61842 0 0 1 7.76 113.13 A6.08672 6.13431 0 0 1 12.96 119.33 A6.08672 6.13431
								 0 0 1 11.62 123.22 A2.32343 2.34159 0 0 1 9.82 124.08 L0 124.08 L0.23 120.78 Z" class="st1"/>
				</g>
				<g id="shape7424-5" transform="translate(4.93544,0)">
					<title>Sheet.7424</title>
					<path d="M36.88 68.08 L7.43 68.08 A7.49387 7.55246 -180 0 0 -0 75.63 L0 124.08 L29.45 124.08 A7.49387 7.55246
								 -180 0 0 36.95 116.53 L36.95 83.84 A84.2978 84.9569 0 0 1 36.95 73.95 C38.12 67.39 45.16 68.54 45.16
								 68.54 A36.4221 36.7069 -180 0 0 36.88 68.08 Z" class="st2"/>
				</g>
				<g id="shape7425-9" transform="translate(21.0031,-15.7206)">
					<title>Sheet.7425</title>
					<path d="M2.62 120.51 L2.62 105.01 A1.73439 1.74795 -180 0 0 3.5 103.49 A1.76711 1.78093 -180 0 0 1.73 101.71
								 A1.76711 1.78093 -180 0 0 0.88 105.01 L0.88 120.51 A1.79984 1.81391 -180 0 0 -0 122.06 A1.76711
								 1.78093 -180 1 0 3.5 122.06 A1.79984 1.81391 -180 0 0 2.62 120.51 Z" class="st3"/>
				</g>
				<g id="shape7426-11" transform="translate(2.67786E-13,-0.197881)">
					<title>Sheet.7426</title>
					<path d="M34.91 124.08 A6.02127 6.06835 0 0 1 32 113.39 a0.752659 0.758544 -180 0 0 -0.490865 -1.35219 L4.97
								 112.04 A6.054 6.10133 -180 0 0 4.97 124.05 A4.45051 4.4853 -180 0 0 5.92 124.05 L34.91 124.08 Z"
							class="st4"/>
				</g>
				<g id="shape7427-13" transform="translate(26.5335,-34.4643)">
					<title>Sheet.7427</title>
					<ellipse cx="1.79984" cy="122.266" rx="1.79984" ry="1.81391" class="st3"/>
				</g>
				<g id="shape7428-15" transform="translate(20.8067,-34.4643)">
					<title>Sheet.7428</title>
					<ellipse cx="1.79984" cy="122.266" rx="1.79984" ry="1.81391" class="st3"/>
				</g>
				<g id="shape7429-17" transform="translate(15.1127,-34.4643)">
					<title>Sheet.7429</title>
					<ellipse cx="1.79984" cy="122.266" rx="1.79984" ry="1.81391" class="st3"/>
				</g>
				<g id="shape7430-19" transform="translate(8.65278,-27.9131)">
					<title>Sheet.7430</title>
					<path d="M8.42 123.99 L9.47 122.94 a0.490865 0.494703 -180 0 0 7.10543E-15 -0.659603 L1.32 114.1 L0.28 115.15
								 a0.91628 0.923445 -180 0 0 -9.65894E-15 1.31921 L7.87 123.99 a0.490865 0.494703 -180 0 0 0.556313
								 1.42109E-14 Z" class="st5"/>
				</g>
				<g id="shape7431-21" transform="translate(8.65278,-34.5962)">
					<title>Sheet.7431</title>
					<path d="M9.41 115.17 L8.42 114.19 a0.490865 0.494703 -180 0 0 -0.654486 0 L0.28 121.67 a0.91628 0.923445 -180
								 0 0 -8.88178E-15 1.31921 L1.29 124.08 L9.41 115.83 a0.425416 0.428742 -180 0 0 -7.10543E-15 -0.659603
								 Z" class="st3"/>
				</g>
				<g id="shape7432-23" transform="translate(26.7399,-27.8742)">
					<title>Sheet.7432</title>
					<path d="M1.2 123.95 L0.15 122.87 a0.425416 0.428742 0 0 1 -4.60743E-15 -0.659603 L8.43 114.06 L9.45 115.11 a0.91628
								 0.923445 0 0 1 1.77636E-15 1.31921 L1.86 123.95 a0.490865 0.494703 0 0 1 -0.654486 0 Z"
							class="st5"/>
				</g>
				<g id="shape7433-25" transform="translate(26.9321,-34.5962)">
					<title>Sheet.7433</title>
					<path d="M0.12 115.17 L1.17 114.19 a0.490865 0.494703 0 0 1 0.654486 0 L9.26 121.7 a0.91628 0.923445 0 0 1 0
								 1.31921 L8.24 124.08 L0.12 115.83 a0.490865 0.494703 0 0 1 -4.55191E-15 -0.659603 Z" class="st3"/>
				</g>
			</g>
		</g>
	</g>
</svg>
