<?xml version="1.0" encoding="UTF-8" standalone="no"?>
<!-- Generated by Microsoft Visio, SVG Export Backlog.svg Page-1 -->
<svg xmlns:dc="http://purl.org/dc/elements/1.1/" xmlns:cc="http://creativecommons.org/ns#" xmlns:rdf="http://www.w3.org/1999/02/22-rdf-syntax-ns#" xmlns:svg="http://www.w3.org/2000/svg" xmlns="http://www.w3.org/2000/svg" xmlns:xlink="http://www.w3.org/1999/xlink" xmlns:sodipodi="http://sodipodi.sourceforge.net/DTD/sodipodi-0.dtd" xmlns:inkscape="http://www.inkscape.org/namespaces/inkscape" width="56.687846" height="45.354018" viewBox="0 0 56.687846 45.354018" xml:space="preserve" class="st3" version="1.1" id="svg52" sodipodi:docname="Backlog.svg" style="font-size:12px;overflow:visible;color-interpolation-filters:sRGB;fill:none;fill-rule:evenodd;stroke-linecap:square;stroke-miterlimit:3" inkscape:version="0.92.5 (2060ec1f9f, 2020-04-08)">
  <metadata id="metadata56">
    <rdf:RDF>
      <cc:Work rdf:about="">
        <dc:format>image/svg+xml</dc:format>
        <dc:type rdf:resource="http://purl.org/dc/dcmitype/StillImage" />
      </cc:Work>
    </rdf:RDF>
  </metadata>
  <sodipodi:namedview pagecolor="#ffffff" bordercolor="#666666" borderopacity="1" objecttolerance="10" gridtolerance="10" guidetolerance="10" inkscape:pageopacity="0" inkscape:pageshadow="2" inkscape:window-width="640" inkscape:window-height="480" id="namedview54" showgrid="false" inkscape:zoom="2.1095237" inkscape:cx="37.794657" inkscape:cy="10.584506" inkscape:window-x="0" inkscape:window-y="0" inkscape:window-maximized="0" inkscape:current-layer="svg52" />
	<style type="text/css" id="style2">
	<![CDATA[
		.st1 {fill:url(#grad0-6);stroke:none;stroke-linecap:butt;stroke-width:0.75}
		.st2 {fill:#a3a3a3;stroke:none;stroke-linecap:butt;stroke-width:0.75}
		.st3 {fill:none;fill-rule:evenodd;font-size:12px;overflow:visible;stroke-linecap:square;stroke-miterlimit:3}
	]]>
	</style>

	<defs id="Patterns_And_Gradients">
		<linearGradient id="grad0-6" x1="0" y1="0" x2="1" y2="0" gradientTransform="rotate(-90,0.5,0.5)">
			<stop offset="0.2" stop-color="#0078d4" stop-opacity="1" id="stop4" />
			<stop offset="0.285" stop-color="#1380da" stop-opacity="1" id="stop6" />
			<stop offset="0.76" stop-color="#5ea0ef" stop-opacity="1" id="stop8" />
		</linearGradient>
	<linearGradient inkscape:collect="always" xlink:href="#grad0-6" id="linearGradient4566" gradientTransform="scale(1.1975212,0.83505831)" x1="0.0048501348" y1="83.387161" x2="17.10169" y2="83.387161" gradientUnits="userSpaceOnUse" /><linearGradient inkscape:collect="always" xlink:href="#grad0-6" id="linearGradient4568" gradientTransform="scale(1.1976804,0.83494731)" x1="0.00030411739" y1="83.398246" x2="17.099417" y2="83.398246" gradientUnits="userSpaceOnUse" /><linearGradient inkscape:collect="always" xlink:href="#grad0-6" id="linearGradient4570" gradientTransform="scale(1.1975209,0.8350585)" x1="0.00030415788" y1="83.383372" x2="17.097148" y2="83.383372" gradientUnits="userSpaceOnUse" /></defs>
	<g id="g50" transform="translate(-5.6697789,-4.5371417)">
		<title id="title12">Page-1</title>
		<g id="group18163-1" transform="translate(5.66929,-34.0157)">
			<title id="title14">Backlog.18163</title>
			<g id="group18164-2">
				<title id="title16">Sheet.18164</title>
				<g id="shape18165-3" transform="translate(0,-31.0803)">
					<title id="title18">Sheet.18165</title>
					<path d="m 20,70.94 -0.95,-0.87 a 1.62813,1.49548 -180 0 0 -2.3,0 l -9.22,8.46 -3.8,-3.48 a 1.62813,1.49548 -180 0 0 -2.3,0 l -0.95,0.88 a 1.62813,1.49548 -180 0 0 0,2.11 l 5.9,5.43 a 1.62813,1.49548 -180 0 0 1.15,0.44 1.62813,1.49548 -180 0 0 1.15,-0.44 L 20,73.06 a 1.62813,1.49548 -180 0 0 0,-2.12 z" class="st1" id="path20" inkscape:connector-curvature="0" style="fill:url(#linearGradient4566);stroke:none;stroke-width:0.75;stroke-linecap:butt" />
				</g>
				<g id="shape18166-7" transform="translate(22.9384,-35.1061)">
					<title id="title23">Sheet.18166</title>
					<path d="m 0,81.14 a 3.00561,2.76072 -180 0 0 3.01,2.77 h 27.74 a 3.00561,2.76072 -180 0 0 3,-2.77 V 81 a 3.00561,2.76072 -180 0 0 -3,-2.76 H 3.01 A 3.00561,2.76072 -180 0 0 0,81 Z" class="st2" id="path25" inkscape:connector-curvature="0" style="fill:#a3a3a3;stroke:none;stroke-width:0.75;stroke-linecap:butt" />
				</g>
				<g id="shape18167-9" transform="translate(22.9384,-19.7804)">
					<title id="title28">Sheet.18167</title>
					<path d="m 0,81.14 a 3.00561,2.76072 -180 0 0 3.01,2.77 h 27.74 a 3.00561,2.76072 -180 0 0 3,-2.77 V 81 a 3.00561,2.76072 -180 0 0 -3,-2.76 H 3.01 A 3.00561,2.76072 -180 0 0 0,81 Z" class="st2" id="path30" inkscape:connector-curvature="0" style="fill:#a3a3a3;stroke:none;stroke-width:0.75;stroke-linecap:butt" />
				</g>
				<g id="shape18168-11" transform="translate(22.9384,-4.45771)">
					<title id="title33">Sheet.18168</title>
					<path d="m 0,81.14 a 3.00561,2.76072 -180 0 0 3.01,2.77 h 27.74 a 3.00561,2.76072 -180 0 0 3,-2.77 V 81 a 3.00561,2.76072 -180 0 0 -3,-2.76 H 3.01 A 3.00561,2.76072 -180 0 0 0,81 Z" class="st2" id="path35" inkscape:connector-curvature="0" style="fill:#a3a3a3;stroke:none;stroke-width:0.75;stroke-linecap:butt" />
				</g>
				<g id="shape18169-13" transform="translate(0,-15.5362)">
					<title id="title38">Sheet.18169</title>
					<path d="m 20,70.94 -0.95,-0.87 a 1.62813,1.49548 -180 0 0 -2.3,0 l -9.22,8.45 -3.8,-3.47 a 1.62813,1.49548 -180 0 0 -2.3,0 l -0.95,0.87 a 1.62813,1.49548 -180 0 0 0,2.12 l 5.9,5.43 a 1.62813,1.49548 -180 0 0 1.15,0.44 1.62813,1.49548 -180 0 0 1.15,-0.44 L 20,73.06 a 1.62813,1.49548 -180 0 0 0,-2.12 z" class="st1" id="path40" inkscape:connector-curvature="0" style="fill:url(#linearGradient4568);stroke:none;stroke-width:0.75;stroke-linecap:butt" />
				</g>
				<g id="shape18170-16">
					<title id="title43">Sheet.18170</title>
					<path d="m 20,70.95 -0.95,-0.88 a 1.62813,1.49548 -180 0 0 -1.15,-0.44 1.6086,1.47754 -180 0 0 -1.15,0.44 l -9.22,8.46 -3.8,-3.48 a 1.62813,1.49548 -180 0 0 -2.3,0 l -0.95,0.87 a 1.62813,1.49548 -180 0 0 0,2.12 l 5.9,5.43 a 1.62813,1.49548 -180 0 0 2.3,0 L 20,73.06 a 1.62813,1.49548 -180 0 0 0,-2.11 z" class="st1" id="path45" inkscape:connector-curvature="0" style="fill:url(#linearGradient4570);stroke:none;stroke-width:0.75;stroke-linecap:butt" />
				</g>
			</g>
		</g>
	</g>
</svg>