<?xml version="1.0" encoding="UTF-8" standalone="no"?>
<!DOCTYPE svg PUBLIC "-//W3C//DTD SVG 1.1//EN" "http://www.w3.org/Graphics/SVG/1.1/DTD/svg11.dtd">
<!-- Generated by Microsoft Visio, SVG Export Azure Compute Gallery.svg Page-1 -->
<svg xmlns="http://www.w3.org/2000/svg" xmlns:xlink="http://www.w3.org/1999/xlink" xmlns:ev="http://www.w3.org/2001/xml-events"
		width="1.73185in" height="1.73206in" viewBox="0 0 124.693 124.709" xml:space="preserve" color-interpolation-filters="sRGB"
		class="st6">
	<style type="text/css">
	<![CDATA[
		.st1 {fill:#773adc;stroke:none;stroke-linecap:butt;stroke-width:34}
		.st2 {fill:url(#grad0-8);stroke:none;stroke-linecap:butt;stroke-width:34}
		.st3 {fill:#50e6ff;stroke:none;stroke-linecap:butt;stroke-width:34}
		.st4 {fill:#c3f1ff;stroke:none;stroke-linecap:butt;stroke-width:34}
		.st5 {fill:#9cebff;stroke:none;stroke-linecap:butt;stroke-width:34}
		.st6 {fill:none;fill-rule:evenodd;font-size:12px;overflow:visible;stroke-linecap:square;stroke-miterlimit:3}
	]]>
	</style>

	<defs id="Patterns_And_Gradients">
		<linearGradient id="grad0-8" x1="0" y1="0" x2="1" y2="0" gradientTransform="rotate(-90 0.5 0.5)">
			<stop offset="0" stop-color="#773adc" stop-opacity="1"/>
			<stop offset="1" stop-color="#a67af4" stop-opacity="1"/>
		</linearGradient>
	</defs>
	<g>
		<title>Page-1</title>
		<g id="group11375-1" transform="translate(34,-34.0157)">
			<title>Azure Compute Gallery.11375</title>
			<g id="group11376-2">
				<title>Sheet.11376</title>
				<g id="shape11377-3">
					<title>Sheet.11377</title>
					<path d="M24.74 75.97 L22.83 75.97 A1.35748 1.35748 0 0 1 21.47 74.63 L21.47 69.37 A1.35748 1.35748 0 0 1 22.83
								 68.02 L24.74 68.02 A1.35433 1.35433 0 0 1 26.09 69.37 L26.09 74.63 A1.35433 1.35433 0 0 1 24.74
								 75.97 ZM34.58 74.63 L34.58 69.37 A1.35748 1.35748 -180 0 0 33.22 68.02 L31.31 68.02 A1.35748 1.35748
								 -180 0 0 29.95 69.37 L29.95 74.63 A1.35748 1.35748 -180 0 0 31.31 75.99 L33.22 75.99 A1.35748 1.35748
								 -180 0 0 34.58 74.63 ZM26.09 123.49 L26.09 119.47 A1.22205 1.22205 -180 0 0 24.88 118.25 L22.68
								 118.25 A1.22205 1.22205 -180 0 0 21.46 119.47 L21.46 123.49 A1.22205 1.22205 -180 0 0 22.68 124.71
								 L24.88 124.71 A1.22205 1.22205 -180 0 0 26.09 123.49 ZM34.58 123.49 L34.58 119.47 A1.22205 1.22205
								 -180 0 0 33.36 118.25 L31.18 118.25 A1.22205 1.22205 -180 0 0 29.96 119.47 L29.96 123.49 A1.22205
								 1.22205 -180 0 0 31.18 124.71 L33.36 124.71 A1.22205 1.22205 -180 0 0 34.58 123.49 ZM49.7 94.78
								 L55.29 94.78 A1.40157 1.40157 -180 0 0 56.69 93.38 L56.69 91.51 A1.40157 1.40157 -180 0 0 55.29
								 90.11 L49.69 90.11 A1.40157 1.40157 -180 0 0 48.29 91.51 L48.29 93.38 A1.40157 1.40157 -180 0 0
								 49.69 94.79 L49.7 94.78 ZM49.7 103.34 L55.29 103.34 A1.40157 1.40157 -180 0 0 56.69 101.94 L56.69
								 100.07 A1.39843 1.39843 -180 0 0 55.29 98.67 L49.69 98.67 A1.39843 1.39843 -180 0 0 48.29 100.07
								 L48.29 101.94 A1.40157 1.40157 -180 0 0 49.69 103.34 L49.7 103.34 ZM1.21 94.79 L5.09 94.79 A1.2126
								 1.2126 -180 0 0 6.3 93.57 L6.3 91.32 A1.2126 1.2126 -180 0 0 5.09 90.11 L1.21 90.11 A1.2126 1.2126
								 -180 0 0 0 91.32 L0 93.57 A1.2126 1.2126 -180 0 0 1.21 94.79 ZM1.21 103.35 L5.09 103.35 A1.2126
								 1.2126 -180 0 0 6.3 102.13 L6.3 99.89 A1.2126 1.2126 -180 0 0 5.09 98.67 L1.21 98.67 A1.2126 1.2126
								 -180 0 0 -0 99.89 L0 102.13 A1.2126 1.2126 -180 0 0 1.21 103.34 L1.21 103.35 Z" class="st1"/>
				</g>
				<g id="shape11378-5" transform="translate(5.46142,-5.2126)">
					<title>Sheet.11378</title>
					<path d="M0 121.94 A2.77172 2.77172 -180 0 0 2.77 124.71 L42.35 124.71 A2.77172 2.77172 -180 0 0 45.12 121.94
								 L45.12 81.94 A2.77172 2.77172 -180 0 0 42.35 79.17 L2.77 79.17 A2.77172 2.77172 -180 0 0 -0 81.94
								 L0 121.94 Z" class="st2"/>
				</g>
				<g id="shape11379-9" transform="translate(28.3591,-16.9701)">
					<title>Sheet.11379</title>
					<path d="M9.74 107.66 L9.74 119.01 L0 124.71 L0 113.33 L9.74 107.66 Z" class="st3"/>
				</g>
				<g id="shape11380-11" transform="translate(18.5921,-28.3213)">
					<title>Sheet.11380</title>
					<path d="M19.51 119.01 L9.77 124.71 L0 119.01 L9.77 113.31 L19.51 119.01 Z" class="st4"/>
				</g>
				<g id="shape11381-13" transform="translate(18.5921,-16.9701)">
					<title>Sheet.11381</title>
					<path d="M9.77 113.36 L9.77 124.71 L0 119.01 L0 107.66 L9.77 113.36 Z" class="st5"/>
				</g>
				<g id="shape11382-15" transform="translate(18.5921,-16.9701)">
					<title>Sheet.11382</title>
					<path d="M0 119.01 L9.77 113.33 L9.77 124.71 L0 119.01 Z" class="st4"/>
				</g>
				<g id="shape11383-17" transform="translate(28.3591,-16.9701)">
					<title>Sheet.11383</title>
					<path d="M9.74 119.01 L0 113.33 L0 124.71 L9.74 119.01 Z" class="st5"/>
				</g>
			</g>
		</g>
	</g>
</svg>
