<?xml version="1.0" encoding="UTF-8" standalone="no"?>
<!DOCTYPE svg PUBLIC "-//W3C//DTD SVG 1.1//EN" "http://www.w3.org/Graphics/SVG/1.1/DTD/svg11.dtd">
<!-- Generated by Microsoft Visio, SVG Export Azure Stack HCI.svg Page-1 -->
<svg xmlns="http://www.w3.org/2000/svg" xmlns:xlink="http://www.w3.org/1999/xlink" xmlns:ev="http://www.w3.org/2001/xml-events"
		width="1.73185in" height="1.73217in" viewBox="0 0 124.693 124.716" xml:space="preserve" color-interpolation-filters="sRGB"
		class="st7">
	<style type="text/css">
	<![CDATA[
		.st1 {fill:#5ea0ef;stroke:none;stroke-linecap:butt;stroke-width:34}
		.st2 {fill:#50e6ff;stroke:none;stroke-linecap:butt;stroke-width:34}
		.st3 {fill:url(#grad0-10);stroke:none;stroke-linecap:butt;stroke-width:34}
		.st4 {fill:#9cebff;stroke:none;stroke-linecap:butt;stroke-width:34}
		.st5 {fill:#32bedd;stroke:none;stroke-linecap:butt;stroke-width:34}
		.st6 {fill:#ffffff;stroke:none;stroke-linecap:butt;stroke-width:34}
		.st7 {fill:none;fill-rule:evenodd;font-size:12px;overflow:visible;stroke-linecap:square;stroke-miterlimit:3}
	]]>
	</style>

	<defs id="Patterns_And_Gradients">
		<linearGradient id="grad0-10" x1="0" y1="0" x2="1" y2="0" gradientTransform="rotate(-90 0.5 0.5)">
			<stop offset="0" stop-color="#0078d4" stop-opacity="1"/>
			<stop offset="1" stop-color="#5ea0ef" stop-opacity="1"/>
		</linearGradient>
	</defs>
	<g>
		<title>Page-1</title>
		<g id="group9185-1" transform="translate(34,-34.0157)">
			<title>Azure Stack HCI.9185</title>
			<g id="group9186-2">
				<title>Sheet.9186</title>
				<g id="shape9187-3" transform="translate(1.70394,-2.84217E-13)">
					<title>Sheet.9187</title>
					<path d="M53.63 115.8 C53.12 118.04 50.38 120.22 45.44 121.93 A67.5748 68.5879 0 0 1 7.48 121.98 C2.91 120.34
								 0.45 118.27 0.07 116.13 C0 115.75 0.07 109.88 0.07 109.88 L53.73 109.38 C53.73 109.38 53.69 115.53
								 53.63 115.8 Z" class="st1"/>
				</g>
				<g id="shape9188-5" transform="translate(0.561799,-5.25788) rotate(-0.575)">
					<title>Sheet.9188</title>
					<ellipse cx="26.8504" cy="115.295" rx="26.8504" ry="9.42104" class="st2"/>
				</g>
				<g id="shape9189-7" transform="translate(0,-15.911)">
					<title>Sheet.9189</title>
					<path d="M56.69 111.94 A12.737 12.928 -180 0 0 45.64 99.52 A16.063 16.3038 -180 0 0 29.1 83.93 A16.4661 16.713
								 -180 0 0 13.35 94.83 A15.2 15.4279 -180 0 0 0 109.67 A15.4331 15.6644 -180 0 0 15.96 124.72 C16.44
								 124.72 16.91 124.69 17.37 124.66 L43.22 124.66 A2.57953 2.6182 -180 0 0 43.9 124.55 A12.8913 13.0846
								 -180 0 0 56.69 111.94 Z" class="st3"/>
				</g>
				<g id="shape9190-11" transform="translate(14.0787,-29.3697)">
					<title>Sheet.9190</title>
					<path d="M0 123.76 a0.944904 0.959069 -180 0 0 0.944882 0.959047 L27.32 124.72 a0.944904 0.959069 -180 0 0 0.944882
								 -0.959047 L28.26 117.83 a0.944904 0.959069 -180 0 0 -0.944882 -0.959047 L0.94 116.87 a0.944904 0.959069
								 -180 0 0 -0.944882 0.959047 L0 123.76 Z" class="st4"/>
				</g>
				<g id="shape9191-13" transform="translate(14.0787,-20.2395)">
					<title>Sheet.9191</title>
					<path d="M0 123.76 a0.944904 0.959069 -180 0 0 0.944882 0.959047 L27.32 124.72 a0.944904 0.959069 -180 0 0 0.944882
								 -0.959047 L28.26 117.83 a0.944904 0.959069 -180 0 0 -0.944882 -0.959047 L0.94 116.87 a0.944904 0.959069
								 -180 0 0 -0.944882 0.959047 L0 123.76 Z" class="st2"/>
				</g>
				<g id="shape9192-15" transform="translate(14.0787,-10.9559)">
					<title>Sheet.9192</title>
					<path d="M0 123.76 a0.944904 0.959069 -180 0 0 0.944882 0.959047 L27.32 124.72 a0.944904 0.959069 -180 0 0 0.944882
								 -0.959047 L28.26 117.83 a0.944904 0.959069 -180 0 0 -0.944882 -0.959047 L0.94 116.87 a0.944904 0.959069
								 -180 0 0 -0.944882 0.959047 L0 123.76 Z" class="st5"/>
				</g>
				<g id="shape9193-17" transform="translate(37.9528,-12.3274)">
					<title>Sheet.9193</title>
					<path d="M1.63 103.35 L0.47 103.35 a0.472441 0.479524 0 0 1 -0.472441 -0.479524 L0 101.68 a0.472441 0.479524
								 0 0 1 0.472441 -0.479524 L1.64 101.2 a0.472441 0.479524 0 0 1 0.472441 0.479524 L2.11 102.87 a0.472441
								 0.479524 0 0 1 -0.475591 0.479524 ZM2.11 105.82 L2.11 104.64 a0.472441 0.479524 -180 0 0 -0.472441
								 -0.479524 L0.47 104.16 a0.472441 0.479524 -180 0 0 -0.472441 0.479524 L0 105.82 a0.472441 0.479524
								 -180 0 0 0.472441 0.479524 L1.64 106.3 a0.472441 0.479524 -180 0 0 0.469291 -0.479524 ZM2.11 112
								 L2.11 110.81 a0.472441 0.479524 -180 0 0 -0.472441 -0.479524 L0.47 110.33 a0.472441 0.479524 -180
								 0 0 -0.472441 0.479524 L0 111.99 a0.472441 0.479524 -180 0 0 0.472441 0.479524 L1.64 112.47 a0.472441
								 0.479524 -180 0 0 0.469291 -0.47313 ZM2.11 114.95 L2.11 113.77 a0.472441 0.479524 -180 0 0 -0.472441
								 -0.479524 L0.47 113.29 a0.472441 0.479524 -180 0 0 -0.472441 0.479524 L0 114.96 a0.472441 0.479524
								 -180 0 0 0.472441 0.479524 L1.64 115.44 a0.472441 0.479524 -180 0 0 0.469291 -0.479524 L2.11 114.95
								 ZM2.11 121.28 L2.11 120.1 a0.472441 0.479524 -180 0 0 -0.472441 -0.479524 L0.47 119.62 a0.472441
								 0.479524 -180 0 0 -0.472441 0.479524 L0 121.28 a0.472441 0.479524 -180 0 0 0.472441 0.479524 L1.64
								 121.76 a0.472441 0.479524 -180 0 0 0.469291 -0.479524 ZM2.11 124.24 L2.11 123.05 a0.472441 0.479524
								 -180 0 0 -0.472441 -0.479524 L0.47 122.57 a0.472441 0.479524 -180 0 0 -0.472441 0.479524 L0 124.24
								 a0.472441 0.479524 -180 0 0 0.472441 0.479524 L1.64 124.72 a0.472441 0.479524 -180 0 0 0.469291
								 -0.48272 L2.11 124.24 Z" class="st6"/>
				</g>
			</g>
		</g>
	</g>
</svg>
