<?xml version="1.0" encoding="UTF-8" standalone="no"?>
<!-- Generated by Microsoft Visio, SVG Export Cloud service (classic).svg Page-1 -->

<svg
   xmlns:dc="http://purl.org/dc/elements/1.1/"
   xmlns:cc="http://creativecommons.org/ns#"
   xmlns:rdf="http://www.w3.org/1999/02/22-rdf-syntax-ns#"
   xmlns:svg="http://www.w3.org/2000/svg"
   xmlns="http://www.w3.org/2000/svg"
   xmlns:sodipodi="http://sodipodi.sourceforge.net/DTD/sodipodi-0.dtd"
   xmlns:inkscape="http://www.inkscape.org/namespaces/inkscape"
   width="56.689999"
   height="48.180058"
   viewBox="0 0 56.69 48.180057"
   xml:space="preserve"
   class="st4"
   version="1.1"
   id="svg29"
   sodipodi:docname="Cloud service (classic).svg"
   style="font-size:12px;overflow:visible;color-interpolation-filters:sRGB;fill:none;fill-rule:evenodd;stroke-linecap:square;stroke-miterlimit:3"
   inkscape:version="0.92.5 (2060ec1f9f, 2020-04-08)"><metadata
   id="metadata35"><rdf:RDF><cc:Work
       rdf:about=""><dc:format>image/svg+xml</dc:format><dc:type
         rdf:resource="http://purl.org/dc/dcmitype/StillImage" /></cc:Work></rdf:RDF></metadata><defs
   id="defs33" /><sodipodi:namedview
   pagecolor="#ffffff"
   bordercolor="#666666"
   borderopacity="1"
   objecttolerance="10"
   gridtolerance="10"
   guidetolerance="10"
   inkscape:pageopacity="0"
   inkscape:pageshadow="2"
   inkscape:window-width="640"
   inkscape:window-height="480"
   id="namedview31"
   showgrid="false"
   inkscape:zoom="2.4988141"
   inkscape:cx="28.346449"
   inkscape:cy="13.201937"
   inkscape:window-x="0"
   inkscape:window-y="0"
   inkscape:window-maximized="0"
   inkscape:current-layer="svg29" />
	<style
   type="text/css"
   id="style2">
	<![CDATA[
		.st1 {fill:#59b4d9;stroke:none;stroke-linecap:butt;stroke-width:12.24}
		.st2 {fill:#ffffff;stroke:none;stroke-linecap:butt;stroke-width:12.24}
		.st3 {fill:#b8d432;stroke:none;stroke-linecap:butt;stroke-width:12.24}
		.st4 {fill:none;fill-rule:evenodd;font-size:12px;overflow:visible;stroke-linecap:square;stroke-miterlimit:3}
	]]>
	</style>

	<g
   id="g27"
   transform="translate(-12.24,-12.244281)">
		<title
   id="title4">Page-1</title>
		<g
   id="group12461-1"
   transform="translate(12.24,-34.0157)">
			<title
   id="title6">Cloud service (classic).12461</title>
			<g
   id="group12462-2">
				<title
   id="title8">Sheet.12462</title>
				<g
   id="shape12463-3">
					<title
   id="title10">Sheet.12463</title>
					<path
   d="m 49.14,62.9 c 0.22,-1.03 0.33,-2.02 0.33,-3 0,-7.52 -6.12,-13.64 -13.65,-13.64 a 13.6063,13.6275 -180 0 0 -12.25,7.65 9.82035,9.83562 -180 0 0 -6.94,-2.87 c -5.4,0 -9.79,4.4 -9.79,9.81 0,0.73 0.08,1.47 0.25,2.23 C 2.64,64.9 0,68.66 0,73.24 0,79.42 5.04,84.25 11.47,84.25 h 0.73 c 0.12,5.64 4.74,10.19 10.39,10.19 a 10.3612,10.3773 -180 0 0 9.07,-5.31 7.54016,7.55189 -180 0 0 4.94,1.85 c 3.88,0 7.09,-2.94 7.54,-6.73 h 1.09 c 6.43,0 11.46,-4.83 11.46,-11.01 0,-4.77 -2.88,-8.69 -7.55,-10.34 z"
   class="st1"
   id="path12"
   inkscape:connector-curvature="0"
   style="fill:#59b4d9;stroke:none;stroke-width:12.23999977;stroke-linecap:butt" />
				</g>
				<g
   id="shape12464-5"
   transform="translate(13.307,-8.04929)">
					<title
   id="title15">Sheet.12464</title>
					<path
   d="m 31.41,76.1 0.83,-1.98 -0.24,-0.21 -1.82,-1.58 0.01,-1.61 2.05,-1.84 -0.8,-1.99 -0.32,0.03 -2.41,0.17 -1.13,-1.14 0.16,-2.76 -1.98,-0.84 -0.21,0.24 -1.58,1.83 -1.6,-0.01 -1.84,-2.06 -1.99,0.81 0.03,0.32 0.17,2.41 -1.14,1.13 -2.75,-0.15 -0.84,1.97 0.24,0.21 1.83,1.59 -0.01,1.6 -2.06,1.84 0.81,1.99 0.32,-0.02 2.41,-0.17 1.12,1.14 -0.15,2.76 1.97,0.83 0.21,-0.24 1.58,-1.83 1.61,0.02 1.83,2.05 1.99,-0.8 -0.02,-0.32 -0.17,-2.42 1.14,-1.12 z m -9.99,-0.57 a 4.39025,4.39708 0 1 1 3.41,-8.1 4.39025,4.39708 0 0 1 -3.41,8.1 z m -2.57,10.51 v -2.15 l -0.31,-0.09 -2.29,-0.76 -0.61,-1.48 1.18,-2.49 -1.52,-1.52 -0.28,0.14 -2.16,1.09 -1.48,-0.61 -0.92,-2.6 H 8.31 l -0.1,0.3 -0.75,2.3 L 5.98,78.78 3.49,77.6 1.98,79.12 2.12,79.41 3.21,81.56 2.6,83.04 0,83.97 v 2.15 l 0.3,0.1 2.3,0.75 0.61,1.48 -1.18,2.5 1.52,1.52 0.28,-0.15 2.16,-1.09 1.47,0.61 0.93,2.6 h 2.14 l 0.1,-0.3 0.76,-2.3 1.47,-0.61 2.49,1.18 1.52,-1.52 -0.14,-0.28 -1.09,-2.16 0.61,-1.48 z M 9.42,89.4 A 4.39087,4.3977 0 1 1 9.43,80.61 4.39087,4.3977 0 0 1 9.42,89.4 Z"
   class="st2"
   id="path17"
   inkscape:connector-curvature="0"
   style="fill:#ffffff;stroke:none;stroke-width:12.23999977;stroke-linecap:butt" />
				</g>
				<g
   id="shape12465-7"
   transform="translate(19.8822,-14.6331)">
					<title
   id="title20">Sheet.12465</title>
					<path
   d="m 19.18,79.18 a 2.84939,2.85382 0 1 1 -5.25,-2.22 2.84939,2.85382 0 0 1 5.25,2.22 z M 5.7,91.59 a 2.85,2.8544309 0 0 1 -5.7,0 2.85,2.8544309 0 0 1 5.7,0 z"
   class="st3"
   id="path22"
   inkscape:connector-curvature="0"
   style="fill:#b8d432;stroke:none;stroke-width:12.23999977;stroke-linecap:butt" />
				</g>
			</g>
		</g>
	</g>
</svg>