<?xml version="1.0" encoding="UTF-8" standalone="no"?>
<!-- Generated by Microsoft Visio, SVG Export Compute and App.svg Page-1 -->

<svg
   xmlns:dc="http://purl.org/dc/elements/1.1/"
   xmlns:cc="http://creativecommons.org/ns#"
   xmlns:rdf="http://www.w3.org/1999/02/22-rdf-syntax-ns#"
   xmlns:svg="http://www.w3.org/2000/svg"
   xmlns="http://www.w3.org/2000/svg"
   xmlns:sodipodi="http://sodipodi.sourceforge.net/DTD/sodipodi-0.dtd"
   xmlns:inkscape="http://www.inkscape.org/namespaces/inkscape"
   width="0.78739864in"
   height="0.78735in"
   viewBox="0 0 56.692856 56.689282"
   xml:space="preserve"
   class="st9"
   version="1.1"
   id="svg74"
   sodipodi:docname="Compute and App.svg"
   style="font-size:12px;overflow:visible;color-interpolation-filters:sRGB;fill:none;fill-rule:evenodd;stroke-linecap:square;stroke-miterlimit:3"
   inkscape:version="0.92.5 (2060ec1f9f, 2020-04-08)"><metadata
   id="metadata80"><rdf:RDF><cc:Work
       rdf:about=""><dc:format>image/svg+xml</dc:format><dc:type
         rdf:resource="http://purl.org/dc/dcmitype/StillImage" /></cc:Work></rdf:RDF></metadata><defs
   id="defs78" /><sodipodi:namedview
   pagecolor="#ffffff"
   bordercolor="#666666"
   borderopacity="1"
   objecttolerance="10"
   gridtolerance="10"
   guidetolerance="10"
   inkscape:pageopacity="0"
   inkscape:pageshadow="2"
   inkscape:window-width="640"
   inkscape:window-height="480"
   id="namedview76"
   showgrid="false"
   inkscape:zoom="1.6115252"
   inkscape:cx="37.796403"
   inkscape:cy="27.863066"
   inkscape:window-x="0"
   inkscape:window-y="0"
   inkscape:window-maximized="0"
   inkscape:current-layer="svg74" />
	<style
   type="text/css"
   id="style2">
	<![CDATA[
		.st1 {fill:#7c7b7b;stroke:none;stroke-linecap:butt;stroke-width:19.125}
		.st2 {fill:#9fa0a2;stroke:none;stroke-linecap:butt;stroke-width:19.125}
		.st3 {fill:#ffffff;fill-opacity:0.2;stroke:none;stroke-linecap:butt;stroke-width:19.125}
		.st4 {fill:#5bb4da;stroke:none;stroke-linecap:butt;stroke-width:19.125}
		.st5 {fill:#b8d433;stroke:none;stroke-linecap:butt;stroke-width:19.125}
		.st6 {fill:#ffffff;stroke:none;stroke-linecap:butt;stroke-width:19.125}
		.st7 {fill:#ffffff;fill-opacity:0.7;stroke:none;stroke-linecap:butt;stroke-width:19.125}
		.st8 {fill:#ffffff;fill-opacity:0.4;stroke:none;stroke-linecap:butt;stroke-width:19.125}
		.st9 {fill:none;fill-rule:evenodd;font-size:12px;overflow:visible;stroke-linecap:square;stroke-miterlimit:3}
	]]>
	</style>

	<g
   id="g72"
   transform="translate(-19.124871,-19.125072)">
		<title
   id="title4">Page-1</title>
		<g
   id="group11537-1"
   transform="translate(19.1265,-34.0157)">
			<title
   id="title6">Compute and App.11537</title>
			<g
   id="group11538-2">
				<title
   id="title8"> Dashboard_computeapps-pathfind</title>
				<g
   id="shape11539-3"
   transform="translate(8.37998,-11.8077)">
					<title
   id="title10">path6</title>
					<path
   d="m 20.07,109.1 v -0.05 c 0,-3.2 0.97,-6.17 2.62,-8.65 l -0.04,0.06 H 9.96 c 1.59,5.61 -0.54,6.4 -9.96,6.4 v 2.97 h 20.07 z"
   class="st1"
   id="path12"
   inkscape:connector-curvature="0"
   style="fill:#7c7b7b;stroke:none;stroke-width:19.125;stroke-linecap:butt" />
				</g>
				<g
   id="shape11540-5"
   transform="translate(0,-21.1793)">
					<title
   id="title15">path8</title>
					<path
   d="m 44.2,102.73 a 15.6058,15.5808 0 0 1 4.63,0.7 L 48.71,103.4 V 77.16 A 3.018,3.01318 -180 0 0 45.77,74.32 H 2.65 A 2.76191,2.7575 -180 0 0 0,77.17 v -0.01 29.96 a 2.73345,2.72909 -180 0 0 2.64,2.71 H 31.1 c 2.84,-4.28 7.65,-7.07 13.1,-7.1 z"
   class="st2"
   id="path17"
   inkscape:connector-curvature="0"
   style="fill:#9fa0a2;stroke:none;stroke-width:19.125;stroke-linecap:butt" />
				</g>
				<g
   id="shape11541-7"
   transform="translate(0,-21.1793)">
					<title
   id="title20">path10</title>
					<path
   d="M 45.77,74.32 H 2.65 A 2.76191,2.7575 -180 0 0 0,77.17 v -0.01 29.96 a 2.73345,2.72909 -180 0 0 2.64,2.71 H 3.67 L 45.8,74.32 Z"
   class="st3"
   id="path22"
   inkscape:connector-curvature="0"
   style="fill:#ffffff;fill-opacity:0.2;stroke:none;stroke-width:19.125;stroke-linecap:butt" />
				</g>
				<g
   id="shape11542-9"
   transform="translate(3.69914,-24.9027)">
					<title
   id="title25">path12</title>
					<path
   d="m 40.51,106.45 h 0.71 V 81.79 H 0 v 28.04 h 30.77 a 15.5471,15.5222 0 0 1 9.73,-3.38 z"
   class="st4"
   id="path27"
   inkscape:connector-curvature="0"
   style="fill:#5bb4da;stroke:none;stroke-width:19.125;stroke-linecap:butt" />
				</g>
				<g
   id="shape11543-11"
   transform="translate(3.69914,-24.8885)">
					<title
   id="title30">path14</title>
					<path
   d="M 0,109.83 H 0.04 V 81.78 L 37.73,81.72 0,81.78 Z"
   class="st4"
   id="path32"
   inkscape:connector-curvature="0"
   style="fill:#5bb4da;stroke:none;stroke-width:19.125;stroke-linecap:butt" />
				</g>
				<g
   id="shape11544-13"
   transform="translate(23.4611,-53.9656)">
					<title
   id="title35">path16</title>
					<path
   d="m 1.39,109.14 v 0.01 a 0.682919,0.681828 0 0 1 -0.682919,0.68183 0.711374,0.710237 0 1 1 0,-1.42047 C 1.09,108.41 1.39,108.72 1.39,109.1 Z"
   class="st5"
   id="path37"
   inkscape:connector-curvature="0"
   style="fill:#b8d433;stroke:none;stroke-width:19.125;stroke-linecap:butt" />
				</g>
				<g
   id="shape11545-15"
   transform="translate(16.0913,-39.7733)">
					<title
   id="title40">path18</title>
					<path
   d="M 8.79,109.83 H 8.66 L 0.13,104.89 A 0.313004,0.312504 0 0 1 0.001953,104.6645 L 0,104.66 c 0,-0.09 0.05,-0.18 0.13,-0.23 v 0 l 8.53,-4.91 a 0.2721,0.271666 0 0 1 0.257873,0.0018 L 8.92,99.52 l 8.54,4.94 c 0.07,0.06 0.12,0.14 0.13,0.23 v 0 a 0.2721,0.271666 0 0 1 -0.126269,0.22728 L 17.46,104.92 8.92,109.83 H 8.78 Z"
   class="st6"
   id="path42"
   inkscape:connector-curvature="0"
   style="fill:#ffffff;stroke:none;stroke-width:19.125;stroke-linecap:butt" />
				</g>
				<g
   id="shape11546-17"
   transform="translate(14.8677,-27.7454)">
					<title
   id="title45">path20</title>
					<path
   d="m 8.79,109.82 c -0.02,0.01 -0.04,0.01 -0.06,0.01 -0.02,0 -0.05,0 -0.07,-0.01 v 0 L 0.13,104.91 A 0.313004,0.312504 0 0 1 0.001953,104.6845 L 0,94.74 c 0,-0.1 0.05,-0.18 0.13,-0.23 v 0 c 0.04,-0.03 0.08,-0.04 0.13,-0.04 0.05,0 0.1,0.01 0.14,0.04 l 8.53,4.93 a 0.268544,0.268115 0 0 1 0.128047,0.227276 L 9.06,109.61 a 0.273879,0.273441 0 0 1 -0.126269,0.21307 L 8.93,109.82 a 0.241867,0.241481 0 0 1 -0.129826,0 H 8.81 Z"
   class="st7"
   id="path47"
   inkscape:connector-curvature="0"
   style="fill:#ffffff;fill-opacity:0.7;stroke:none;stroke-width:19.125;stroke-linecap:butt" />
				</g>
				<g
   id="shape11547-19"
   transform="translate(25.8229,-27.7578)">
					<title
   id="title50">path22</title>
					<path
   d="M 0.26,109.83 H 0.11 a 0.254316,0.25391 0 0 1 -0.11382,-0.21307 L 0,99.73 c 0,-0.08 0.04,-0.16 0.11,-0.21 h 0.01 l 8.53,-4.93 a 0.302334,0.301851 0 0 1 0.2721,0.0018 L 8.92,94.59 c 0.07,0.06 0.12,0.14 0.13,0.23 v 9.83 a 0.314783,0.31428 0 0 1 -0.128047,0.22728 L 0.39,109.79 a 0.241867,0.241481 0 0 1 -0.129826,0 H 0.26 Z"
   class="st8"
   id="path52"
   inkscape:connector-curvature="0"
   style="fill:#ffffff;fill-opacity:0.4;stroke:none;stroke-width:19.125;stroke-linecap:butt" />
				</g>
				<g
   id="shape11548-21"
   transform="translate(32.3812)">
					<title
   id="title55">path24</title>
					<path
   d="m 19.36,107.12 a 12.7176,12.6973 0 0 1 -7.89,2.71 12.8047,12.7843 0 1 1 10.19,-20.53 l 0.02,0.03 a 12.634,12.6138 0 0 1 2.63,7.73 12.7016,12.6813 0 0 1 -4.92,10.04 z"
   class="st4"
   id="path57"
   inkscape:connector-curvature="0"
   style="fill:#5bb4da;stroke:none;stroke-width:19.125;stroke-linecap:butt" />
				</g>
				<g
   id="shape11549-23"
   transform="translate(33.15,-2.97589)">
					<title
   id="title60">path26</title>
					<path
   d="m 16.25,102.28 a 2.84372,2.83917 -180 0 0 3.86,0.51 H 20.1 l 0.16,-0.17 2.58,1.79 c 0.11,-0.28 0.22,-0.64 0.32,-1.02 l 0.02,-0.07 a 68.299,68.1899 0 0 1 -2.19,-1.72 2.71745,2.71311 -180 0 0 -3.93,-3.32 h 0.01 a 154.75,154.503 0 0 1 -4.27,-4 14.8268,14.8031 0 0 1 8.13,-2.15 h -0.01 c -0.58,-0.71 -1.21,-1.34 -1.9,-1.9 L 19,90.21 a 13.5232,13.5016 -180 0 0 -8.61,1.62 L 10.46,91.8 A 112.708,112.528 0 0 1 6.89,87.87 c -0.67,0.22 -1.23,0.45 -1.77,0.72 l 0.07,-0.03 a 27.7863,27.7419 -180 0 0 3.47,4.36 H 8.65 A 23.9804,23.9421 -180 0 0 5.12,95.96 L 5.11,95.97 4.68,96.46 A 3.65468,3.64884 -180 0 0 2.55,96.61 L 2.58,96.6 A 9.17316,9.15851 0 0 1 1.6,92.46 c 0,-0.49 0.04,-0.97 0.12,-1.44 l -0.01,0.05 c -0.51,0.5 -0.98,1.04 -1.4,1.62 l -0.02,0.04 a 8.02074,8.00793 -180 0 0 -0.21,1.82 c 0,1.2 0.26,2.35 0.73,3.37 L 0.78,97.87 C 0.3,98.51 0,99.33 0,100.21 c 0,0.88 0.3,1.69 0.79,2.35 l -0.01,-0.01 c 0.09,0.11 0.19,0.21 0.29,0.32 a 18.2556,18.2265 -180 0 0 -0.74,4.42 v 0.04 c 0.11,0.16 0.11,0.3 0.24,0.46 0.63,0.76 1.33,1.43 2.09,2.02 l 0.03,0.02 a 13.8789,13.8567 0 0 1 0.9,-5.89 l -0.03,0.1 a 3.82897,3.82285 -180 0 0 1.8,-0.29 H 5.34 l 1.04,0.87 c 1.08,0.87 2.3,1.65 3.59,2.31 l 0.12,0.05 a 2.60541,2.60124 -180 0 0 0.5,1.81 v -0.01 a 2.54138,2.53732 -180 0 0 3.56,0.47 h -0.01 a 2.96998,2.96524 -180 0 0 0.57,-0.61 v -0.01 c 1.47,0.33 3.15,0.52 4.87,0.52 h 0.13 v 0 c 0.65,-0.55 1.2,-1.17 1.67,-1.87 l 0.02,-0.03 a 12.9417,12.921 0 0 1 -2.26,0.19 13.3116,13.2903 0 0 1 -4.11,-0.64 l 0.1,0.02 a 2.39022,2.3864 -180 0 0 -0.46,-1.01 v 0 a 2.53249,2.52844 -180 0 0 -3.38,-0.57 l 0.01,-0.01 c -1.31,-0.71 -2.44,-1.47 -3.48,-2.32 l 0.04,0.03 c -0.24,-0.18 -0.49,-0.36 -0.7,-0.56 0.37,-0.59 0.59,-1.3 0.59,-2.06 0,-0.65 -0.16,-1.26 -0.44,-1.8 l 0.01,0.02 c 0.14,-0.16 0.3,-0.3 0.44,-0.44 A 26.5325,26.4901 0 0 1 11,95.47 l 0.09,-0.05 -0.13,-0.2 c 0.03,0.04 0.07,0.08 0.11,0.11 v 0 c 1.6,1.42 3.29,2.84 4.88,4.11 a 2.72456,2.72021 -180 0 0 0.3,2.84 z"
   class="st6"
   id="path62"
   inkscape:connector-curvature="0"
   style="fill:#ffffff;stroke:none;stroke-width:19.125;stroke-linecap:butt" />
				</g>
				<g
   id="shape11550-25"
   transform="translate(8.43689,-11.8059)">
					<title
   id="title65">path28</title>
					<path
   d="m 20.02,109.1 a 16.4327,16.4065 0 0 1 0.18,-2.3 l -0.01,0.09 H 0 v 2.94 h 20.02 z"
   class="st2"
   id="path67"
   inkscape:connector-curvature="0"
   style="fill:#9fa0a2;stroke:none;stroke-width:19.125;stroke-linecap:butt" />
				</g>
			</g>
		</g>
	</g>
</svg>