<?xml version="1.0" encoding="UTF-8" standalone="no"?>
<!-- Generated by Microsoft Visio, SVG Export Container Registry Task.svg Page-1 -->
<svg xmlns:dc="http://purl.org/dc/elements/1.1/" xmlns:cc="http://creativecommons.org/ns#" xmlns:rdf="http://www.w3.org/1999/02/22-rdf-syntax-ns#" xmlns:svg="http://www.w3.org/2000/svg" xmlns="http://www.w3.org/2000/svg" xmlns:sodipodi="http://sodipodi.sourceforge.net/DTD/sodipodi-0.dtd" xmlns:inkscape="http://www.inkscape.org/namespaces/inkscape" width="56.693581" height="56.694298" viewBox="0 0 56.693581 56.694298" xml:space="preserve" class="st11" version="1.1" id="svg111" sodipodi:docname="Container Registry Task.svg" style="font-size:12px;overflow:visible;color-interpolation-filters:sRGB;fill:none;fill-rule:evenodd;stroke-linecap:square;stroke-miterlimit:3" inkscape:version="0.92.5 (2060ec1f9f, 2020-04-08)">
  <metadata id="metadata117">
    <rdf:RDF>
      <cc:Work rdf:about="">
        <dc:format>image/svg+xml</dc:format>
        <dc:type rdf:resource="http://purl.org/dc/dcmitype/StillImage" />
      </cc:Work>
    </rdf:RDF>
  </metadata>
  <defs id="defs115" />
  <sodipodi:namedview pagecolor="#ffffff" bordercolor="#666666" borderopacity="1" objecttolerance="10" gridtolerance="10" guidetolerance="10" inkscape:pageopacity="0" inkscape:pageshadow="2" inkscape:window-width="640" inkscape:window-height="480" id="namedview113" showgrid="false" inkscape:zoom="1.7193066" inkscape:cx="37.795072" inkscape:cy="23.279613" inkscape:window-x="0" inkscape:window-y="0" inkscape:window-maximized="0" inkscape:current-layer="svg111" />
	<style type="text/css" id="style2">
	<![CDATA[
		.st1 {fill:#0072c6;stroke:none;stroke-linecap:butt;stroke-width:12.24}
		.st2 {fill:#59b4d9;stroke:none;stroke-linecap:butt;stroke-width:12.24}
		.st3 {fill:#a0a1a2;stroke:none;stroke-linecap:butt;stroke-width:12.24}
		.st4 {fill:#7a7a7a;fill-opacity:0.5;stroke:none;stroke-linecap:butt;stroke-width:12.24}
		.st5 {fill:#7a7a7a;stroke:none;stroke-linecap:butt;stroke-width:12.24}
		.st6 {fill:#ffffff;fill-opacity:0.15;stroke:none;stroke-linecap:butt;stroke-width:12.24}
		.st7 {fill:#ffffff;stroke:none;stroke-linecap:butt;stroke-width:12.24}
		.st8 {fill:#57a300;stroke:none;stroke-linecap:butt;stroke-width:12.24}
		.st9 {fill:#ffffff}
		.st10 {stroke:none;stroke-linecap:butt;stroke-width:12.24}
		.st11 {fill:none;fill-rule:evenodd;font-size:12px;overflow:visible;stroke-linecap:square;stroke-miterlimit:3}
	]]>
	</style>

	<g id="g109" transform="translate(-12.24016,-12.239998)">
		<title id="title4">Page-1</title>
		<g id="group11927-1" transform="translate(12.24,-34.0157)">
			<title id="title6">Container Registry Task.11927</title>
			<g id="group11928-2">
				<title id="title8">Sheet.11928</title>
				<g id="shape11929-3" transform="translate(2.65644,-11.5862)">
					<title id="title10">Sheet.11929</title>
					<path d="M 0,78.19 4.65,102.95 3.95,83.59 25.71,76.86 23.68,70.8 Z" class="st1" id="path12" inkscape:connector-curvature="0" style="fill:#0072c6;stroke:none;stroke-width:12.23999977;stroke-linecap:butt" />
				</g>
				<g id="shape11930-5" transform="translate(2.66988,-33.5529)">
					<title id="title15">Sheet.11930</title>
					<path d="m 1.15,102.95 a 1.16897,1.15931 0 0 1 -0.34,-2.27 l 21.05,-6.37 a 1.1697515,1.1600851 0 0 1 0.68,2.22 L 1.49,102.9 a 1.15497,1.14543 0 0 1 -0.34,0.05 z" class="st2" id="path17" inkscape:connector-curvature="0" style="fill:#59b4d9;stroke:none;stroke-width:12.23999977;stroke-linecap:butt" />
				</g>
				<g id="shape11931-7" transform="translate(1.16664,-30.1097)">
					<title id="title20">Sheet.11931</title>
					<ellipse cx="3.70292" cy="99.276299" rx="3.70292" ry="3.6723101" class="st1" id="ellipse22" style="fill:#0072c6;stroke:none;stroke-width:12.23999977;stroke-linecap:butt" />
				</g>
				<g id="shape11932-9" transform="translate(0,-28.9527)">
					<title id="title25">Sheet.11932</title>
					<path d="m 4.87,94.45 a 3.70292,3.67231 0 1 1 0,7.34 3.70292,3.67231 0 0 1 0,-7.34 z m 0,-1.16 C 2.19,93.29 0,95.46 0,98.12 c 0,2.66 2.18,4.83 4.87,4.83 2.69,0 4.87,-2.17 4.87,-4.83 0,-2.66 -2.18,-4.83 -4.87,-4.83 z" class="st2" id="path27" inkscape:connector-curvature="0" style="fill:#59b4d9;stroke:none;stroke-width:12.23999977;stroke-linecap:butt" />
				</g>
				<g id="shape11933-11" transform="rotate(-82.877,-14.182766,83.466771)">
					<title id="title30">Sheet.11933</title>
					<ellipse cx="2.3694501" cy="100.599" rx="2.3694501" ry="2.34986" class="st2" id="ellipse32" style="fill:#59b4d9;stroke:none;stroke-width:12.23999977;stroke-linecap:butt" />
				</g>
				<g id="shape11934-13" transform="translate(28.3225,-11.5862)">
					<title id="title35">Sheet.11934</title>
					<path d="M 25.71,78.19 21.06,102.95 21.76,83.59 0,76.86 2.03,70.8 Z" class="st1" id="path37" inkscape:connector-curvature="0" style="fill:#0072c6;stroke:none;stroke-width:12.23999977;stroke-linecap:butt" />
				</g>
				<g id="shape11935-15" transform="translate(30.7444,-33.5529)">
					<title id="title40">Sheet.11935</title>
					<path d="m 22.13,102.95 a 1.16897,1.15931 -180 0 0 0.33,-2.27 L 1.42,94.31 a 1.1697515,1.1600851 -180 0 0 -0.68,2.22 l 21.04,6.37 c 0.12,0.03 0.23,0.05 0.35,0.05 z" class="st2" id="path42" inkscape:connector-curvature="0" style="fill:#59b4d9;stroke:none;stroke-width:12.23999977;stroke-linecap:butt" />
				</g>
				<g id="shape11936-17" transform="translate(48.1204,-30.1097)">
					<title id="title45">Sheet.11936</title>
					<ellipse cx="3.70292" cy="99.276299" rx="3.70292" ry="3.6723101" class="st1" id="ellipse47" style="fill:#0072c6;stroke:none;stroke-width:12.23999977;stroke-linecap:butt" />
				</g>
				<g id="shape11937-19" transform="translate(46.9538,-28.9527)">
					<title id="title50">Sheet.11937</title>
					<path d="m 4.87,94.45 a 3.70292,3.67231 0 1 1 0,7.34 3.70292,3.67231 0 0 1 0,-7.34 z m 0,-1.16 C 2.19,93.29 0,95.46 0,98.12 c 0,2.66 2.18,4.83 4.87,4.83 2.69,0 4.87,-2.17 4.87,-4.83 0,-2.66 -2.19,-4.83 -4.87,-4.83 z" class="st2" id="path52" inkscape:connector-curvature="0" style="fill:#59b4d9;stroke:none;stroke-width:12.23999977;stroke-linecap:butt" />
				</g>
				<g id="shape11938-21" transform="rotate(-7.115,-225.68387,-312.853)">
					<title id="title55">Sheet.11938</title>
					<ellipse cx="2.3694501" cy="100.599" rx="2.3694501" ry="2.34986" class="st2" id="ellipse57" style="fill:#59b4d9;stroke:none;stroke-width:12.23999977;stroke-linecap:butt" />
				</g>
				<g id="shape11939-23" transform="translate(24.9124,-43.5286)">
					<title id="title60">Sheet.11939</title>
					<rect x="0" y="89.784302" width="6.8108501" height="13.1643" class="st1" id="rect62" style="fill:#0072c6;stroke:none;stroke-width:12.23999977;stroke-linecap:butt" />
				</g>
				<g id="shape11940-25" transform="translate(28.3225,-42.9096)">
					<title id="title65">Sheet.11940</title>
					<rect x="0" y="89.165298" width="2.34145" height="13.7833" class="st2" id="rect67" style="fill:#59b4d9;stroke:none;stroke-width:12.23999977;stroke-linecap:butt" />
				</g>
				<g id="shape11941-27" transform="translate(7.43384)">
					<title id="title70">Sheet.11941</title>
					<rect x="0" y="75.180702" width="41.888199" height="27.768" class="st3" id="rect72" style="fill:#a0a1a2;stroke:none;stroke-width:12.23999977;stroke-linecap:butt" />
				</g>
				<g id="shape11942-29" transform="translate(9.65629,-3.47099)">
					<title id="title75">Sheet.11942</title>
					<path d="m 0,82.9 h 2.33 v 20.05 H 0 Z m 14,-0.53 h 2.33 v 19.42 H 14 Z M 7,82.12 h 2.33 v 20.05 H 7 Z m 14,0 h 2.33 v 20.44 H 21 Z m 7,0 h 2.33 v 20.83 H 28 Z m 7,0 h 2.33 v 20.83 H 35 Z" class="st4" id="path77" inkscape:connector-curvature="0" style="fill:#7a7a7a;fill-opacity:0.5;stroke:none;stroke-width:12.23999977;stroke-linecap:butt" />
				</g>
				<g id="shape11943-31" transform="translate(9.72279,-2.314)">
					<title id="title80">Sheet.11943</title>
					<path d="m 0,79.81 h 37.27 v 2.31 H 0 Z m 0,20.82 h 37.27 v 2.32 H 0 Z" class="st5" id="path82" inkscape:connector-curvature="0" style="fill:#7a7a7a;stroke:none;stroke-width:12.23999977;stroke-linecap:butt" />
				</g>
				<g id="shape11944-33" transform="translate(7.323)">
					<title id="title85">Sheet.11944</title>
					<path d="M 42,77.98 0,102.95 h 42 z" class="st6" id="path87" inkscape:connector-curvature="0" style="fill:#ffffff;fill-opacity:0.15;stroke:none;stroke-width:12.23999977;stroke-linecap:butt" />
				</g>
				<g id="shape11945-35" transform="translate(19.9239,-33.782)">
					<title id="title90">Sheet.11945</title>
					<ellipse cx="8.0766497" cy="94.938797" rx="8.0766497" ry="8.0099001" class="st7" id="ellipse92" style="fill:#ffffff;stroke:none;stroke-width:12.23999977;stroke-linecap:butt" />
				</g>
				<g id="shape11946-37" transform="translate(19.8341,-33.6929)">
					<title id="title95">Sheet.11946</title>
					<ellipse cx="8.1664896" cy="94.849701" rx="8.1664896" ry="8.0989904" class="st8" id="ellipse97" style="fill:#57a300;stroke:none;stroke-width:12.23999977;stroke-linecap:butt" />
				</g>
				<g id="shape11947-39" transform="translate(21.8127,-35.6008)">
					<title id="title100">Sheet.11947</title>
					<path d="m 0,101.36 v 0.04 h 0.03 z m 6.26,-6.17 a 1.56563,1.55269 -180 1 0 0,3.1 1.56563,1.55269 -180 0 0 0,-3.1 z m -4.93,5.33 c 0.33,0.42 0.7,0.79 1.12,1.11 l 1.54,-1.19 c 0.38,0.23 0.79,0.41 1.24,0.51 l 0.24,1.92 c 0.26,0.03 0.52,0.08 0.79,0.08 0.27,0 0.53,-0.05 0.79,-0.08 l 0.24,-1.92 a 4.3889,4.35263 -180 0 0 1.24,-0.51 l 1.55,1.19 c 0.41,-0.32 0.79,-0.69 1.11,-1.11 L 9.99,99 c 0.23,-0.38 0.41,-0.8 0.52,-1.24 l 1.93,-0.24 c 0.03,-0.26 0.08,-0.51 0.08,-0.78 0,-0.27 -0.05,-0.52 -0.08,-0.78 L 10.51,95.72 A 4.30257,4.26701 -180 0 0 9.99,94.48 l 1.2,-1.53 a 6.29403,6.24201 -180 0 0 -1.11,-1.1 L 8.53,93.04 A 4.30957,4.27395 -180 0 0 7.29,92.53 L 7.05,90.61 C 6.79,90.58 6.53,90.53 6.26,90.53 c -0.27,0 -0.53,0.05 -0.79,0.08 L 5.23,92.53 A 4.32357,4.28784 -180 0 0 3.99,93.04 L 2.45,91.85 a 6.29403,6.24201 -180 0 0 -1.12,1.1 l 1.2,1.53 C 2.3,94.86 2.12,95.27 2.01,95.72 L 0.08,95.96 C 0.05,96.22 0,96.47 0,96.74 c 0,0.27 0.05,0.52 0.08,0.78 l 1.93,0.24 C 2.12,98.2 2.3,98.62 2.53,99 Z m 4.93,-0.68 a 3.13126,3.10538 0 1 1 0,-6.21 3.13126,3.10538 0 0 1 0,6.21 z" class="st9" id="path102" inkscape:connector-curvature="0" style="fill:#ffffff" />
					<path d="m 0,101.36 v 0.04 H 0.03 L 0,101.36 m 6.26,-6.17 a 1.56563,1.55269 -180 1 0 0,3.1 1.56563,1.55269 -180 0 0 0,-3.1 m -4.93,5.33 c 0.33,0.42 0.7,0.79 1.12,1.11 l 1.54,-1.19 c 0.38,0.23 0.79,0.41 1.24,0.51 l 0.24,1.92 c 0.26,0.03 0.52,0.08 0.79,0.08 0.27,0 0.53,-0.05 0.79,-0.08 l 0.24,-1.92 a 4.3889,4.35263 -180 0 0 1.24,-0.51 l 1.55,1.19 c 0.41,-0.32 0.79,-0.69 1.11,-1.11 L 9.99,99 c 0.23,-0.38 0.41,-0.8 0.52,-1.24 l 1.93,-0.24 c 0.03,-0.26 0.08,-0.51 0.08,-0.78 0,-0.27 -0.05,-0.52 -0.08,-0.78 L 10.51,95.72 A 4.30257,4.26701 -180 0 0 9.99,94.48 l 1.2,-1.53 a 6.29403,6.24201 -180 0 0 -1.11,-1.1 L 8.53,93.04 A 4.30957,4.27395 -180 0 0 7.29,92.53 L 7.05,90.61 C 6.79,90.58 6.53,90.53 6.26,90.53 c -0.27,0 -0.53,0.05 -0.79,0.08 L 5.23,92.53 A 4.32357,4.28784 -180 0 0 3.99,93.04 L 2.45,91.85 a 6.29403,6.24201 -180 0 0 -1.12,1.1 l 1.2,1.53 C 2.3,94.86 2.12,95.27 2.01,95.72 L 0.08,95.96 C 0.05,96.22 0,96.47 0,96.74 c 0,0.27 0.05,0.52 0.08,0.78 l 1.93,0.24 C 2.12,98.2 2.3,98.62 2.53,99 m 3.73,0.84 a 3.13126,3.10538 0 1 1 0,-6.21 3.13126,3.10538 0 0 1 0,6.21" class="st10" id="path104" inkscape:connector-curvature="0" style="stroke:none;stroke-width:12.23999977;stroke-linecap:butt" />
				</g>
			</g>
		</g>
	</g>
</svg>