<?xml version="1.0" encoding="UTF-8" standalone="no"?>
<!DOCTYPE svg PUBLIC "-//W3C//DTD SVG 1.1//EN" "http://www.w3.org/Graphics/SVG/1.1/DTD/svg11.dtd">
<!-- Generated by Microsoft Visio, SVG Export Container.svg Page-1 -->
<svg xmlns="http://www.w3.org/2000/svg" xmlns:xlink="http://www.w3.org/1999/xlink" xmlns:ev="http://www.w3.org/2001/xml-events"
		width="1.1274in" height="1.42984in" viewBox="0 0 81.1729 102.949" xml:space="preserve" color-interpolation-filters="sRGB"
		class="st4">
	<style type="text/css">
	<![CDATA[
		.st1 {fill:#59b4d9;stroke:none;stroke-linecap:butt;stroke-width:12.24}
		.st2 {fill:#804998;stroke:none;stroke-linecap:butt;stroke-width:12.24}
		.st3 {fill:#ffffff;fill-opacity:0.2;stroke:none;stroke-linecap:butt;stroke-width:12.24}
		.st4 {fill:none;fill-rule:evenodd;font-size:12px;overflow:visible;stroke-linecap:square;stroke-miterlimit:3}
	]]>
	</style>

	<g>
		<title>Page-1</title>
		<g id="group11187-1" transform="translate(12.24,-34.0157)">
			<title>Container.11187</title>
			<g id="group11188-2">
				<title>Sheet.11188</title>
				<g id="shape11189-3">
					<title>Sheet.11189</title>
					<path d="M0.94 46.26 C0.38 46.26 0 46.63 0 47.2 L0 58.54 C0 59.11 0.38 59.48 0.94 59.48 L6.61 59.48 C7.18 59.48
								 7.56 59.11 7.56 58.54 L7.56 53.82 L49.13 53.82 L49.13 58.54 C49.13 59.11 49.51 59.48 50.27 59.48
								 L55.75 59.48 C56.31 59.48 56.69 59.11 56.69 58.54 L56.69 47.2 C56.69 46.63 56.32 46.26 55.75 46.26
								 L0.94 46.26 ZM55.75 102.95 C56.32 102.95 56.69 102.57 56.69 102 L56.69 90.85 C56.69 90.29 56.32
								 89.91 55.75 89.91 L50.27 89.91 C49.7 89.91 49.32 90.29 49.32 90.85 L49.32 95.39 L7.56 95.39 L7.56
								 90.67 C7.56 90.1 7.18 89.72 6.43 89.72 L0.94 89.72 C0.38 89.72 0 90.1 0 90.85 L0 102 C0 102.57 0.38
								 102.95 0.94 102.95 L55.75 102.95 Z" class="st1"/>
				</g>
				<g id="shape11190-5" transform="translate(8.50394,-14.603)">
					<title>Sheet.11190</title>
					<path d="M28.05 84.33 L18.62 88 L18.62 72.82 L28.05 76.12 L28.05 84.33 ZM10.17 75.39 L10.17 85.31 L17.15 88.01
								 L17.15 72.94 L10.17 75.39 ZM10.9 84.58 L10.53 84.45 L10.53 76.25 L10.9 76.12 L11.27 76 L11.64 75.88
								 L11.64 84.82 L11.27 84.7 L10.9 84.58 ZM12.74 85.07 L12.25 84.94 L12.25 75.76 L12.74 75.63 L13.23
								 75.51 L13.72 75.39 L13.72 85.43 L13.23 85.31 L12.74 85.07 ZM14.94 85.8 L14.33 85.56 L14.33 75.14
								 L14.94 75.02 L15.56 74.78 L16.29 74.53 L16.29 86.17 L15.56 85.92 L14.94 85.8 ZM39.69 99.4 L30.38
								 102.95 L30.38 87.88 L39.69 91.19 L39.69 99.4 ZM21.8 90.33 L21.8 100.25 L28.78 102.95 L28.78 87.88
								 L21.8 90.33 ZM22.54 99.52 L22.17 99.4 L22.17 91.19 L22.54 91.07 L22.91 90.94 L23.27 90.82 L23.27
								 99.76 L22.91 99.64 L22.54 99.52 ZM24.37 100.13 L23.88 100.01 L23.88 90.82 L24.37 90.7 L24.86 90.58
								 L25.35 90.45 L25.35 100.5 L24.86 100.38 L24.37 100.13 ZM26.58 100.87 L25.97 100.62 L25.97 90.21
								 L26.58 90.09 L27.19 89.84 L27.93 89.6 L27.93 101.23 L27.19 100.99 L26.58 100.87 ZM17.88 99.4 L8.57
								 102.95 L8.57 87.88 L17.88 91.19 L17.88 99.4 ZM0 90.33 L0 100.25 L6.98 102.95 L6.98 87.88 L0 90.33
								 ZM0.73 99.52 L0.37 99.4 L0.37 91.19 L0.73 91.07 L1.1 90.94 L1.47 90.82 L1.47 99.76 L1.1 99.64 L0.73
								 99.52 ZM2.57 100.13 L2.08 100.01 L2.08 90.82 L2.57 90.7 L3.06 90.58 L3.55 90.45 L3.55 100.5 L3.06
								 100.38 L2.57 100.13 ZM4.78 100.87 L4.16 100.62 L4.16 90.21 L4.78 90.09 L5.39 89.84 L6.12 89.6 L6.12
								 101.23 L5.39 100.99 L4.78 100.87 Z" class="st2"/>
				</g>
				<g id="shape11191-7" transform="translate(17.0782,-14.6041)">
					<title>Sheet.11191</title>
					<path d="M19.48 84.33 L10.04 88.01 L10.04 72.82 L19.48 76.12 L19.48 84.33 ZM31.11 99.4 L21.8 102.95 L21.8 87.88
								 L31.11 91.19 L31.11 99.4 ZM9.31 99.4 L0 102.95 L0 87.88 L9.31 91.19 L9.31 99.4 Z" class="st3"/>
				</g>
			</g>
		</g>
	</g>
</svg>
