<?xml version="1.0" encoding="UTF-8" standalone="no"?>
<!-- Generated by Microsoft Visio, SVG Export HDInsight on AKS Cluster Pool.svg Page-1 -->

<svg
   xmlns:dc="http://purl.org/dc/elements/1.1/"
   xmlns:cc="http://creativecommons.org/ns#"
   xmlns:rdf="http://www.w3.org/1999/02/22-rdf-syntax-ns#"
   xmlns:svg="http://www.w3.org/2000/svg"
   xmlns="http://www.w3.org/2000/svg"
   xmlns:sodipodi="http://sodipodi.sourceforge.net/DTD/sodipodi-0.dtd"
   xmlns:inkscape="http://www.inkscape.org/namespaces/inkscape"
   width="0.78743058in"
   height="0.70921516in"
   viewBox="0 0 56.695 51.06341"
   xml:space="preserve"
   class="st6"
   version="1.1"
   id="svg41"
   sodipodi:docname="HDInsight on AKS Cluster Pool.svg"
   style="font-size:12px;overflow:visible;color-interpolation-filters:sRGB;fill:none;fill-rule:evenodd;stroke-linecap:square;stroke-miterlimit:3"
   inkscape:version="0.92.5 (2060ec1f9f, 2020-04-08)"><metadata
   id="metadata47"><rdf:RDF><cc:Work
       rdf:about=""><dc:format>image/svg+xml</dc:format><dc:type
         rdf:resource="http://purl.org/dc/dcmitype/StillImage" /></cc:Work></rdf:RDF></metadata><defs
   id="defs45" /><sodipodi:namedview
   pagecolor="#ffffff"
   bordercolor="#666666"
   borderopacity="1"
   objecttolerance="10"
   gridtolerance="10"
   guidetolerance="10"
   inkscape:pageopacity="0"
   inkscape:pageshadow="2"
   inkscape:window-width="640"
   inkscape:window-height="480"
   id="namedview43"
   showgrid="false"
   inkscape:zoom="1.963572"
   inkscape:cx="37.795281"
   inkscape:cy="14.770542"
   inkscape:window-x="0"
   inkscape:window-y="0"
   inkscape:window-maximized="0"
   inkscape:current-layer="svg41" />
	<style
   type="text/css"
   id="style2">
	<![CDATA[
		.st1 {fill:#949494;stroke:none;stroke-linecap:butt;stroke-width:0.749999}
		.st2 {fill:#773adc}
		.st3 {stroke:none;stroke-linecap:butt;stroke-width:0.749999}
		.st4 {fill:#a67af4;stroke:none;stroke-linecap:butt;stroke-width:0.749999}
		.st5 {fill:#0078d4;stroke:none;stroke-linecap:butt;stroke-width:0.749999}
		.st6 {fill:none;fill-rule:evenodd;font-size:12px;overflow:visible;stroke-linecap:square;stroke-miterlimit:3}
	]]>
	</style>

	<g
   id="g39"
   transform="translate(-5.66929,-5.0853374)">
		<title
   id="title4">Page-1</title>
		<g
   id="group12786-1"
   transform="translate(5.66929,-34.0157)">
			<title
   id="title6">HDInsight on AKS Cluster Pool.12786</title>
			<g
   id="group12787-2">
				<title
   id="title8">layer1</title>
				<g
   id="shape12788-3"
   transform="translate(43.245)">
					<title
   id="title10">path29730</title>
					<path
   d="M 13.45,45.24 A 0.539183,0.511318 -180 0 0 13.183389,44.798921 L 9.39,42.72 2.94,39.17 A 0.522421,0.495422 -180 0 0 2.223424,39.346232 L 0.05,42.93 a 0.543374,0.515292 -180 0 0 0.195339,0.694112 L 7.78,47.77 a 0.516833,0.490123 0 0 1 0.266611,0.438576 L 8.04,81.05 A 0.525214,0.498071 0 0 1 7.774445,81.487074 L 0.25,85.64 A 0.541977,0.513967 -180 0 0 0.054661,86.331458 L 2.22,89.91 a 0.533596,0.506019 -180 0 0 0.722172,0.190751 L 9.26,86.62 13.18,84.47 a 0.536389,0.508668 -180 0 0 0.269778,-0.441079 z"
   class="st1"
   id="path12"
   inkscape:connector-curvature="0"
   style="fill:#949494;stroke:none;stroke-width:0.74999899;stroke-linecap:butt" />
				</g>
				<g
   id="shape12789-5"
   transform="translate(0,-1.50197e-4)">
					<title
   id="title15">path29730-2</title>
					<path
   d="M 0,45.24 A 0.539183,0.511318 0 0 1 0.266611,44.798921 L 4.06,42.72 10.51,39.17 a 0.522421,0.495422 0 0 1 0.716576,0.176232 L 13.4,42.93 a 0.543374,0.515292 0 0 1 -0.195339,0.694112 L 5.67,47.77 A 0.516833,0.490123 -180 0 0 5.403389,48.208576 L 5.4,81.05 a 0.525214,0.498071 -180 0 0 0.265555,0.437074 L 13.2,85.64 a 0.541977,0.513967 0 0 1 0.195339,0.691458 L 11.22,89.91 a 0.533596,0.506019 0 0 1 -0.722172,0.190751 L 4.19,86.62 0.27,84.47 A 0.536389,0.508668 0 0 1 2.22e-4,84.028921 Z"
   class="st1"
   id="path17"
   inkscape:connector-curvature="0"
   style="fill:#949494;stroke:none;stroke-width:0.74999899;stroke-linecap:butt" />
				</g>
				<g
   id="shape12790-7"
   transform="translate(12.0862,-8.31391)">
					<title
   id="title20">path29720</title>
					<path
   d="m 16.17,57 c 0.28,0 0.55,0.07 0.78,0.2 l 13.17,7.17 c 0.48,0.27 0.78,0.76 0.78,1.29 v 14.37 c 0,0.53 -0.29,1.02 -0.78,1.28 L 16.99,88.5 a 1.57006,1.48891 0 0 1 -1.56,0 L 2.3,81.31 C 1.82,81.05 1.52,80.55 1.52,80.03 V 65.65 c 0,-0.52 0.3,-1.02 0.78,-1.28 l 13.09,-7.16 c 0.23,-0.13 0.51,-0.2 0.78,-0.2 z m 0,-1.43 a 3.07306,2.91425 -180 0 0 -1.54,0.39 L 1.54,63.12 A 3.08284,2.92352 -180 0 0 0,65.66 v 14.37 a 3.07306,2.91425 -180 0 0 1.54,2.53 l 13.13,7.19 a 3.09122,2.93147 -180 0 0 3.09,0 l 13.12,-7.19 a 3.08284,2.92352 -180 0 0 1.54,-2.53 V 65.66 A 3.07306,2.91425 -180 0 0 30.88,63.12 L 17.71,55.95 a 3.07725,2.91822 -180 0 0 -1.54,-0.38 z"
   class="st2"
   id="path22"
   inkscape:connector-curvature="0"
   style="fill:#773adc" />
					<path
   d="m 16.17,57 c 0.28,0 0.55,0.07 0.78,0.2 l 13.17,7.17 c 0.48,0.27 0.78,0.76 0.78,1.29 v 14.37 c 0,0.53 -0.29,1.02 -0.78,1.28 L 16.99,88.5 a 1.57006,1.48891 0 0 1 -1.56,0 L 2.3,81.31 C 1.82,81.05 1.52,80.55 1.52,80.03 V 65.65 c 0,-0.52 0.3,-1.02 0.78,-1.28 l 13.09,-7.16 c 0.23,-0.13 0.51,-0.2 0.78,-0.2 m 0,-1.44 a 3.07306,2.91425 -180 0 0 -1.54,0.39 L 1.54,63.12 A 3.08284,2.92352 -180 0 0 0,65.66 v 14.37 a 3.07306,2.91425 -180 0 0 1.54,2.53 l 13.13,7.19 a 3.09122,2.93147 -180 0 0 3.09,0 l 13.12,-7.19 a 3.08284,2.92352 -180 0 0 1.54,-2.53 V 65.66 A 3.07306,2.91425 -180 0 0 30.88,63.12 L 17.71,55.95 a 3.07725,2.91822 -180 0 0 -1.54,-0.38 v 0"
   class="st3"
   id="path24"
   inkscape:connector-curvature="0"
   style="stroke:none;stroke-width:0.74999899;stroke-linecap:butt" />
				</g>
				<g
   id="shape12791-10"
   transform="translate(17.1669,-18.4123)">
					<title
   id="title27">path29722</title>
					<path
   d="m 2.72,84.99 a 2.71827,2.57779 -180 1 0 0,5.15 2.71827,2.57779 -180 0 0 0,-5.15 z m 8.14,-13.71 a 2.7206004,2.58 -180 1 0 0,5.16 2.7206004,2.58 -180 1 0 0,-5.16 z m 8.13,13.71 a 2.71827,2.57779 -180 1 0 0,5.15 2.71827,2.57779 -180 0 0 0,-5.15 z"
   class="st4"
   id="path29"
   inkscape:connector-curvature="0"
   style="fill:#a67af4;stroke:none;stroke-width:0.74999899;stroke-linecap:butt" />
				</g>
				<g
   id="shape12792-12"
   transform="translate(15.5684,-14.1429)">
					<title
   id="title32">path29724</title>
					<path
   d="m 7.67,79.27 a 5.44212,5.16086 0 0 1 1.96,2.98 0.396705,0.376203 -180 0 0 0.396485,0.291383 L 14.9,82.54 c 0.03,0 0.06,-0.01 0.09,-0.01 0.01,-0.01 0.02,-0.01 0.04,-0.01 0.03,-0.01 0.06,-0.03 0.08,-0.05 l 0.03,-0.01 c 0.03,-0.02 0.05,-0.05 0.07,-0.08 0.01,-0.01 0.02,-0.01 0.02,-0.02 A 0.427435,0.405345 -180 0 0 15.282794,82.240843 5.4477,5.16616 0 0 1 17.26,79.24 0.395308,0.374878 -180 0 0 17.361893,78.739242 L 15.89,76.29 c 0,0 -0.01,0 -0.01,0 L 14.83,74.56 A 0.398101,0.377527 -180 0 0 14.331623,74.4078 5.7131,5.41785 0 0 1 12.49,74.73 5.20326,4.93435 0 0 1 10.59,74.41 0.409276,0.388125 -180 0 0 10.091623,74.59274 L 7.57,78.77 a 0.407879,0.3868 -180 0 0 0.103477,0.499156 z m 0.56,-6.5 A 5.34294,5.06681 0 0 1 7.02,69.59 H 4.14 A 0.405086,0.384151 -180 0 0 3.785223,69.783254 L 0.06,75.88 a 0.409276,0.388125 -180 0 0 0,0.392015 L 1.42,78.5 A 0.426038,0.40402 -180 0 0 1.963358,78.668221 5.28427,5.01118 0 0 1 4.32,78.15 c 0.19,-0.01 0.39,-0.01 0.58,0 A 0.463753,0.439786 -180 0 0 5.313379,77.955244 L 6.48,76.08 8.23,73.21 a 0.396705,0.376203 -180 0 0 0,-0.433069 z m 16.69,3.38 A 0.417657,0.396072 -180 0 0 24.86404,75.951239 L 21.22,69.79 A 0.395308,0.374878 -180 0 0 20.866807,69.595244 L 17.93,69.59 c 0,1.15 -0.4,2.27 -1.15,3.17 a 0.396705,0.376203 -180 0 0 0,0.431567 L 18.1,75.34 l 0.44,0.73 1.16,1.91 a 0.481912,0.457007 -180 0 0 0.07813,0.09412 0.409276,0.388125 -180 0 0 0.341051,0.111146 L 20.68,78.18 c 0.31,0 0.62,0.04 0.92,0.09 0.46,0.08 0.91,0.23 1.36,0.43 a 0.398101,0.377527 -180 0 0 0.544784,-0.111146 L 24.66,76.69 24.97,76.18 Z m -7.37,11.38 a 5.403,5.12377 0 0 1 -2.06,-2.5 0.406482,0.385475 -180 0 0 -0.398068,-0.250329 L 9.82,84.78 A 0.413467,0.392098 -180 0 0 9.421932,85.030329 5.37367,5.09596 0 0 1 7.38,87.52 0.426038,0.40402 -180 0 0 7.245903,88.049846 L 8.4,89.95 a 0.423245,0.401371 -180 0 0 0.354777,0.194756 L 16.18,90.14 a 0.426038,0.40402 -180 0 0 0.353193,-0.194756 L 17.68,88.07 a 0.410673,0.389449 -180 0 0 -0.132513,-0.529846 z"
   class="st5"
   id="path34"
   inkscape:connector-curvature="0"
   style="fill:#0078d4;stroke:none;stroke-width:0.74999899;stroke-linecap:butt" />
				</g>
			</g>
		</g>
	</g>
</svg>