<?xml version="1.0" encoding="UTF-8" standalone="no"?>
<!-- Generated by Microsoft Visio, SVG Export High Availability.svg Page-1 -->
<svg xmlns:dc="http://purl.org/dc/elements/1.1/" xmlns:cc="http://creativecommons.org/ns#" xmlns:rdf="http://www.w3.org/1999/02/22-rdf-syntax-ns#" xmlns:svg="http://www.w3.org/2000/svg" xmlns="http://www.w3.org/2000/svg" xmlns:sodipodi="http://sodipodi.sourceforge.net/DTD/sodipodi-0.dtd" xmlns:inkscape="http://www.inkscape.org/namespaces/inkscape" width="49.475331" height="56.692516" viewBox="0 0 49.475331 56.692516" xml:space="preserve" class="st6" version="1.1" id="svg48" sodipodi:docname="High Availability.svg" style="font-size:12px;overflow:visible;color-interpolation-filters:sRGB;fill:none;fill-rule:evenodd;stroke-linecap:square;stroke-miterlimit:3" inkscape:version="0.92.5 (2060ec1f9f, 2020-04-08)">
  <metadata id="metadata52">
    <rdf:RDF>
      <cc:Work rdf:about="">
        <dc:format>image/svg+xml</dc:format>
        <dc:type rdf:resource="http://purl.org/dc/dcmitype/StillImage" />
      </cc:Work>
    </rdf:RDF>
  </metadata>
  <sodipodi:namedview pagecolor="#ffffff" bordercolor="#666666" borderopacity="1" objecttolerance="10" gridtolerance="10" guidetolerance="10" inkscape:pageopacity="0" inkscape:pageshadow="2" inkscape:window-width="640" inkscape:window-height="480" id="namedview50" showgrid="false" inkscape:zoom="1.2913992" inkscape:cx="32.96885" inkscape:cy="37.794185" inkscape:window-x="0" inkscape:window-y="0" inkscape:window-maximized="0" inkscape:current-layer="svg48" />
	<style type="text/css" id="style2">
	<![CDATA[
		.st1 {fill:#198ab3;stroke:none;stroke-linecap:butt;stroke-width:40.1838}
		.st2 {fill:#32bedd;stroke:none;stroke-linecap:butt;stroke-width:40.1838}
		.st3 {fill:url(#grad6-11);stroke:none;stroke-linecap:butt;stroke-width:40.1838}
		.st4 {fill:none;stroke:none;stroke-linecap:butt;stroke-width:40.1838}
		.st5 {fill:#37c2b1;stroke:none;stroke-linecap:butt;stroke-width:40.1838}
		.st6 {fill:none;fill-rule:evenodd;font-size:12px;overflow:visible;stroke-linecap:square;stroke-miterlimit:3}
	]]>
	</style>

	<defs id="Patterns_And_Gradients">
		<radialGradient id="grad6-11" cx="41.074145" cy="98.132168" r="57.503802" gradientTransform="scale(1.015656,0.98458535)" fx="41.074145" fy="98.132168" gradientUnits="userSpaceOnUse">
			<stop offset="0" stop-color="#5ea0ef" stop-opacity="1" id="stop4" />
			<stop offset="1" stop-color="#0078d4" stop-opacity="1" id="stop6" />
		</radialGradient>
	</defs>
	<g id="g46" transform="translate(-40.183984,-40.183695)">
		<title id="title10">Page-1</title>
		<g id="group11851-1" transform="translate(40.1838,-40.1838)">
			<title id="title12">High Availability.11851</title>
			<g id="group11852-2">
				<title id="title14">Icon-nameAsset 6</title>
				<g id="group11853-3">
					<title id="title16">Sheet.11853</title>
					<g id="shape11854-4" transform="translate(18.0482,-3.1811)">
						<title id="title18">Sheet.11854</title>
						<path d="m 7.74,131.08 c 0,-0.52 -2.11,-0.52 -2.11,0 A 5.69875,5.52441 0 0 1 0,137.06 h 13.36 a 5.69225,5.51811 0 0 1 -5.62,-5.98 z" class="st1" id="path20" inkscape:connector-curvature="0" style="fill:#198ab3;stroke:none;stroke-width:40.18379974;stroke-linecap:butt" />
					</g>
					<g id="shape11855-6" transform="translate(1.48332)">
						<title id="title23">Sheet.11855</title>
						<path d="m 38.17,82.37 a 1.9494,1.88976 0 0 1 2.78,0 l 0.09,0.09 A 28.6205,27.7449 0 0 1 0.66,121.58 1.9494,1.88976 0 0 1 0.5,118.89 l 0.08,-0.08 a 1.9494,1.88976 0 0 1 2.69,-0.08 24.6924,23.937 -180 0 0 34.82,-33.75 1.9494,1.88976 0 0 1 0.08,-2.61 z m -4.78,54.69 h -20.3 a 1.6245,1.5748 0 0 1 -1.62,-1.57 1.6245,1.5748 0 0 1 1.62,-1.58 h 20.3 a 1.6245,1.5748 0 0 1 1.63,1.58 1.6245,1.5748 0 0 1 -1.63,1.57 z" class="st2" id="path25" inkscape:connector-curvature="0" style="fill:#32bedd;stroke:none;stroke-width:40.18379974;stroke-linecap:butt" />
					</g>
					<g id="shape11856-8" transform="translate(0,-16.252)">
						<title id="title28">Sheet.11856</title>
						<ellipse cx="20.858601" cy="116.84" rx="20.858601" ry="20.220501" class="st3" id="ellipse30" style="fill:url(#grad6-11);stroke:none;stroke-width:40.18379974;stroke-linecap:butt" />
					</g>
					<g id="shape11857-12" transform="translate(0,-16.252)">
						<title id="title33">Sheet.11857</title>
						<ellipse cx="20.858601" cy="116.84" rx="20.858601" ry="20.220501" class="st4" id="ellipse35" style="fill:none;stroke:none;stroke-width:40.18379974;stroke-linecap:butt" />
					</g>
					<g id="shape11858-14" transform="translate(0.393129,-16.2526)">
						<title id="title38">Sheet.11858</title>
						<path d="m 16.42,116.88 a 2.88836,2.8 -180 1 0 -4.08,0 2.88836,2.8 -180 0 0 4.08,0 z m 13.62,-4.25 a 7.90157,7.65984 -180 0 0 0,10.83 l 1.6,1.55 a 1.52703,1.48031 0 0 1 -0.03,2.08 1.53028,1.48346 0 0 1 -2.17,0 l 0.02,0.02 a 2.08261,2.0189 -180 0 0 -2.92,2.86 L 31,134.3 a 20.8391,20.2016 -180 0 0 9.79,-22.05 7.89832,7.65669 -180 0 0 -10.75,0.38 z m -18.87,-6.67 a 4.83831,4.69029 -180 0 0 6.84,-6.63 l -2.26,-2.19 a 20.8196,20.1827 -180 0 0 -9.04,4.52 z m -9,1.16 A 20.6669,20.0346 -180 0 0 0,112.94 l 2.42,2.35 a 2.8902876,2.8018686 -180 0 0 4.09,-3.96 z m 10.91,28.63 a 20.8326,20.1953 -180 0 0 15.04,-0.1 l -1.22,-1.18 a 9.00623,8.73071 -180 0 0 -12.74,0 9.23691,8.95433 -180 0 0 -1.08,1.28 z" class="st5" id="path40" inkscape:connector-curvature="0" style="fill:#37c2b1;stroke:none;stroke-width:40.18379974;stroke-linecap:butt" />
					</g>
				</g>
			</g>
		</g>
	</g>
</svg>