<?xml version="1.0" encoding="UTF-8" standalone="no"?>
<!DOCTYPE svg PUBLIC "-//W3C//DTD SVG 1.1//EN" "http://www.w3.org/Graphics/SVG/1.1/DTD/svg11.dtd">
<!-- Generated by Microsoft Visio, SVG Export Quantum Workspace.svg Page-1 -->
<svg xmlns="http://www.w3.org/2000/svg" xmlns:xlink="http://www.w3.org/1999/xlink" xmlns:ev="http://www.w3.org/2001/xml-events"
		width="1.57437in" height="1.73206in" viewBox="0 0 113.354 124.709" xml:space="preserve" color-interpolation-filters="sRGB"
		class="st3">
	<style type="text/css">
	<![CDATA[
		.st1 {fill:#0078d4;stroke:none;stroke-linecap:butt;stroke-width:34}
		.st2 {fill:#ffffff;stroke:none;stroke-linecap:butt;stroke-width:34}
		.st3 {fill:none;fill-rule:evenodd;font-size:12px;overflow:visible;stroke-linecap:square;stroke-miterlimit:3}
	]]>
	</style>

	<g>
		<title>Page-1</title>
		<g id="group10964-1" transform="translate(34,-34.0157)">
			<title>Quantum Workspace.10964</title>
			<g id="group10965-2">
				<title>Sheet.10965</title>
				<g id="shape10966-3" transform="translate(0.308533,0)">
					<title>Sheet.10966</title>
					<path d="M39.18 124.71 C38.88 124.71 38.88 124.71 39.18 124.71 L28.08 118.09 L22.52 121.24 L0 108.02 L0 81.24
								 L22.21 68.02 L44.74 81.24 L44.74 108.33 L39.49 111.48 L44.74 114.63 L44.74 121.87 L39.18 124.71
								 Z" class="st1"/>
				</g>
				<g id="shape10967-5">
					<title>Sheet.10967</title>
					<path d="M45.35 108.02 L45.35 81.24 L22.52 68.02 L22.21 68.02 L0 81.24 L0 108.33 L22.52 121.56 L28.08 118.41
								 L33.63 121.56 L39.18 124.71 L44.74 121.56 L44.74 114.31 L39.49 111.17 L45.35 108.02 C45.05 108.02
								 45.35 108.02 45.35 108.02 ZM33.94 114 L33.94 108.33 L38.88 111.17 L33.94 114 ZM22.21 94.16 L17.59
								 91.32 L22.21 88.49 L22.21 94.16 ZM22.83 88.49 L27.77 91.32 L22.83 94.16 L22.83 88.49 ZM21.91 94.79
								 L17.28 97.62 L17.28 91.95 L21.91 94.79 ZM22.21 95.1 L22.21 100.77 L17.59 97.94 L22.21 95.1 ZM22.83
								 95.1 L27.77 97.94 L22.83 100.77 L22.83 95.1 ZM23.14 94.79 L28.08 91.95 L28.08 97.62 L23.14 94.79
								 ZM23.14 88.17 L28.08 85.34 L28.08 91.01 L23.14 88.17 ZM17.28 91.01 L17.28 85.34 L22.21 88.17 L17.28
								 91.01 ZM16.66 97.62 L11.72 94.79 L16.66 91.95 L16.66 97.62 ZM21.91 101.4 L16.97 104.24 L16.97 98.57
								 L21.91 101.4 ZM27.77 98.57 L27.77 104.24 L22.83 101.4 L27.77 98.57 ZM28.39 91.95 L33.32 94.79 L28.39
								 97.62 L28.39 91.95 ZM28.69 91.32 L33.63 88.49 L33.63 94.16 L28.69 91.32 ZM28.39 91.01 L28.39 85.34
								 L33.32 88.17 L28.39 91.01 ZM22.83 87.54 L22.83 81.87 L27.77 84.71 L22.83 87.54 ZM22.21 87.54 L17.59
								 84.71 L22.21 81.87 L22.21 87.54 ZM16.66 91.01 L11.72 88.17 L16.66 85.34 L16.66 91.01 ZM16.35 91.32
								 L11.72 94.16 L11.72 88.49 L16.35 91.32 ZM16.35 97.94 L11.42 100.77 L11.42 95.1 L16.35 97.94 ZM16.66
								 98.57 L16.66 104.24 L11.72 101.4 L16.66 98.57 ZM22.21 101.72 L22.21 107.39 L17.28 104.55 L22.21
								 101.72 ZM22.83 101.72 L27.77 104.55 L22.83 107.39 L22.83 101.72 ZM28.39 98.57 L33.32 101.4 L28.39
								 104.24 L28.39 98.57 ZM28.69 97.94 L33.63 95.1 L33.63 100.77 L28.69 97.94 ZM33.94 88.49 L38.88 91.32
								 L33.94 94.16 L33.94 88.49 ZM28.69 84.71 L33.63 81.87 L33.63 87.54 L28.69 84.71 ZM23.14 81.56 L28.08
								 78.72 L28.08 84.39 L23.14 81.56 ZM17.28 84.39 L17.28 78.72 L22.21 81.56 L17.28 84.39 ZM11.72 87.54
								 L11.72 81.87 L16.66 84.71 L11.72 87.54 ZM11.11 94.16 L6.17 91.32 L11.11 88.49 L11.11 94.16 ZM11.11
								 100.77 L6.17 97.94 L11.11 95.1 L11.11 100.77 ZM16.35 104.55 L11.42 107.39 L11.42 101.72 L16.35 104.55
								 ZM21.91 108.02 L16.97 110.85 L16.97 105.18 L21.91 108.02 ZM27.77 105.18 L27.77 110.85 L22.83 108.02
								 L27.77 105.18 ZM33.63 101.72 L33.63 107.39 L28.69 104.55 L33.63 101.72 ZM33.94 95.1 L38.88 97.94
								 L33.94 100.77 L33.94 95.1 ZM34.25 94.79 L39.18 91.95 L39.18 97.62 L34.25 94.79 ZM34.25 88.17 L39.18
								 85.34 L39.18 91.01 L34.25 88.17 ZM33.94 87.54 L33.94 81.87 L38.88 84.71 L33.94 87.54 ZM28.39 84.39
								 L28.39 78.72 L33.32 81.56 L28.39 84.39 ZM22.83 80.93 L22.83 75.26 L27.77 78.09 L22.83 80.93 ZM22.21
								 80.93 L17.59 78.09 L22.21 75.26 L22.21 80.93 ZM16.66 84.39 L11.72 81.56 L16.66 78.72 L16.66 84.39
								 ZM11.11 87.54 L6.17 84.71 L11.11 81.87 L11.11 87.54 ZM10.8 88.17 L5.86 91.01 L5.86 85.34 L10.8 88.17
								 ZM10.8 94.79 L5.86 97.62 L5.86 91.95 L10.8 94.79 ZM10.8 101.4 L5.86 104.24 L5.86 98.57 L10.8 101.4
								 ZM11.11 101.72 L11.11 107.39 L6.17 104.55 L11.11 101.72 ZM16.66 105.18 L16.66 110.85 L11.72 108.02
								 L16.66 105.18 ZM22.21 108.33 L22.21 114 L17.28 111.17 L22.21 108.33 ZM22.83 108.33 L27.77 111.17
								 L22.83 114 L22.83 108.33 ZM28.39 105.18 L33.32 108.02 L28.39 110.85 L28.39 105.18 ZM33.94 101.72
								 L38.88 104.55 L33.94 107.39 L33.94 101.72 ZM34.25 101.4 L39.18 98.57 L39.18 104.24 L34.25 101.4
								 ZM39.49 91.95 L44.43 94.79 L39.49 97.62 L39.49 91.95 ZM39.49 85.34 L44.43 88.17 L39.49 91.01 L39.49
								 85.34 ZM34.25 81.56 L39.18 78.72 L39.18 84.39 L34.25 81.56 ZM28.69 78.09 L33.63 75.26 L33.63 80.93
								 L28.69 78.09 ZM23.14 74.94 L28.08 72.11 L28.08 77.78 L23.14 74.94 ZM17.28 77.78 L17.28 72.11 L22.21
								 74.94 L17.28 77.78 ZM11.72 80.93 L11.72 75.26 L16.66 78.09 L11.72 80.93 ZM5.86 84.39 L5.86 78.72
								 L10.8 81.56 L5.86 84.39 ZM5.55 91.01 L0.62 88.17 L5.55 85.34 L5.55 91.01 ZM5.55 97.62 L0.62 94.79
								 L5.55 91.95 L5.55 97.62 ZM5.55 104.24 L0.62 101.4 L5.55 98.57 L5.55 104.24 ZM10.8 108.02 L5.86 110.85
								 L5.86 105.18 L10.8 108.02 ZM16.35 111.17 L11.42 114 L11.42 108.33 L16.35 111.17 ZM21.91 114.63 L16.97
								 117.46 L16.97 111.8 L21.91 114.63 ZM27.77 111.8 L27.77 117.46 L22.83 114.63 L27.77 111.8 ZM33.63
								 108.33 L33.63 114 L28.69 111.17 L33.63 108.33 ZM39.18 111.8 L39.18 117.46 L34.25 114.63 L39.18 111.8
								 ZM34.25 108.02 L39.18 105.18 L39.18 110.85 L34.25 108.02 ZM39.49 98.57 L44.43 101.4 L39.49 104.24
								 L39.49 98.57 ZM39.8 97.94 L44.74 95.1 L44.74 100.77 L39.8 97.94 ZM39.8 91.32 L44.74 88.49 L44.74
								 94.16 L39.8 91.32 ZM39.8 84.71 L44.74 81.87 L44.74 87.54 L39.8 84.71 ZM39.49 84.39 L39.49 78.72
								 L44.43 81.56 L39.49 84.39 ZM33.94 80.93 L33.94 75.26 L38.88 78.09 L33.94 80.93 ZM28.39 77.78 L28.39
								 72.11 L33.32 74.94 L28.39 77.78 ZM22.83 74.31 L22.83 68.65 L27.77 71.48 L22.83 74.31 ZM22.21 74.31
								 L17.59 71.48 L22.21 68.65 L22.21 74.31 ZM16.66 77.78 L11.72 74.94 L16.66 72.11 L16.66 77.78 ZM11.11
								 80.93 L6.17 78.09 L11.11 75.26 L11.11 80.93 ZM5.55 84.39 L0.62 81.56 L5.55 78.72 L5.55 84.39 ZM5.25
								 84.71 L0.31 87.54 L0.31 81.87 L5.25 84.71 ZM5.25 91.32 L0.31 94.16 L0.31 88.49 L5.25 91.32 ZM5.25
								 97.94 L0.31 100.77 L0.31 95.1 L5.25 97.94 ZM5.25 104.55 L0.31 107.39 L0.31 101.72 L5.25 104.55 ZM5.55
								 105.18 L5.55 110.85 L0.62 108.02 L5.55 105.18 ZM11.11 108.33 L11.11 114 L6.17 111.17 L11.11 108.33
								 ZM16.66 111.8 L16.66 117.46 L11.72 114.63 L16.66 111.8 ZM22.21 114.94 L22.21 120.61 L17.28 117.78
								 L22.21 114.94 ZM22.83 114.94 L27.77 117.78 L22.83 120.61 L22.83 114.94 ZM28.39 111.8 L33.32 114.63
								 L28.39 117.46 L28.39 111.8 ZM38.88 117.78 L33.94 120.61 L33.94 114.94 L38.88 117.78 ZM39.18 118.41
								 L39.18 124.08 L34.25 121.24 L39.18 118.41 ZM39.49 118.41 L44.43 121.24 L39.49 124.08 L39.49 118.41
								 ZM39.8 117.78 L44.74 114.94 L44.74 120.61 L39.8 117.78 ZM39.49 117.46 L39.49 111.8 L44.43 114.63
								 L39.49 117.46 ZM39.49 105.18 L44.43 108.02 L39.49 110.85 L39.49 105.18 ZM39.8 104.55 L44.74 101.72
								 L44.74 107.39 L39.8 104.55 ZM33.63 114.94 L33.63 120.61 L28.69 117.78 L33.63 114.94 Z" class="st2"/>
				</g>
			</g>
		</g>
	</g>
</svg>
