<?xml version="1.0" encoding="UTF-8" standalone="no"?>
<!DOCTYPE svg PUBLIC "-//W3C//DTD SVG 1.1//EN" "http://www.w3.org/Graphics/SVG/1.1/DTD/svg11.dtd">
<!-- Generated by Microsoft Visio, SVG Export Reservation.svg Page-1 -->
<svg xmlns="http://www.w3.org/2000/svg" xmlns:xlink="http://www.w3.org/1999/xlink" xmlns:ev="http://www.w3.org/2001/xml-events"
		width="1.73209in" height="1.73206in" viewBox="0 0 124.71 124.709" xml:space="preserve" color-interpolation-filters="sRGB"
		class="st6">
	<style type="text/css">
	<![CDATA[
		.st1 {fill:#b0b0b0;stroke:none;stroke-linecap:butt;stroke-width:34}
		.st2 {fill:#ffffff;stroke:none;stroke-linecap:butt;stroke-width:34}
		.st3 {fill:#7a7a7a;stroke:none;stroke-linecap:butt;stroke-width:34}
		.st4 {fill:url(#grad0-24);stroke:none;stroke-linecap:butt;stroke-width:34}
		.st5 {fill:url(#grad3-32);stroke:none;stroke-linecap:butt;stroke-width:34}
		.st6 {fill:none;fill-rule:evenodd;font-size:12px;overflow:visible;stroke-linecap:square;stroke-miterlimit:3}
	]]>
	</style>

	<defs id="Patterns_And_Gradients">
		<linearGradient id="grad0-24" x1="0" y1="0" x2="1" y2="0" gradientTransform="rotate(0 0.5 0.5)">
			<stop offset="0" stop-color="#7956ba" stop-opacity="1"/>
			<stop offset="0.69" stop-color="#724eb4" stop-opacity="1"/>
			<stop offset="0.87" stop-color="#6f4bb2" stop-opacity="1"/>
		</linearGradient>
		<radialGradient id="grad3-32" cx="0.5" cy="0.5" r="0.73">
			<stop offset="0" stop-color="#7f7f7f" stop-opacity="1"/>
			<stop offset="1" stop-color="#5e5e5e" stop-opacity="1"/>
		</radialGradient>
	</defs>
	<g>
		<title>Page-1</title>
		<g id="group8289-1" transform="translate(34,-34.0157)">
			<title>Reservation.8289</title>
			<g id="group8290-2">
				<title>Sheet.8290</title>
				<g id="shape8291-3">
					<title>Sheet.8291</title>
					<ellipse cx="28.3465" cy="96.3622" rx="28.3465" ry="28.3465" class="st1"/>
				</g>
				<g id="shape8292-5" transform="translate(4.20195,-4.36869)">
					<title>Sheet.8292</title>
					<ellipse cx="24.0778" cy="100.631" rx="24.0778" ry="24.0778" class="st2"/>
				</g>
				<g id="shape8293-7" transform="translate(-47.5384,-3.36305) rotate(-45)">
					<title>Sheet.8293</title>
					<rect x="0" y="123.341" width="4.23529" height="1.3673" class="st3"/>
				</g>
				<g id="shape8294-9" transform="translate(44.9541,-27.6795)">
					<title>Sheet.8294</title>
					<rect x="0" y="123.341" width="4.23529" height="1.3673" class="st3"/>
				</g>
				<g id="shape8295-11" transform="translate(-45.7243,23.4162) rotate(-45)">
					<title>Sheet.8295</title>
					<rect x="0" y="120.473" width="1.3673" height="4.23529" class="st3"/>
				</g>
				<g id="shape8296-13" transform="translate(27.5127,-7.40343)">
					<title>Sheet.8296</title>
					<rect x="0" y="120.473" width="1.3673" height="4.23529" class="st3"/>
				</g>
				<g id="shape8297-15" transform="translate(-72.6116,-3.49564) rotate(-45)">
					<title>Sheet.8297</title>
					<rect x="0" y="120.473" width="1.3673" height="4.23529" class="st3"/>
				</g>
				<g id="shape8298-17" transform="translate(-74.4503,23.5575) rotate(-45)">
					<title>Sheet.8298</title>
					<rect x="0" y="123.341" width="4.23529" height="1.3673" class="st3"/>
				</g>
				<g id="shape8299-19" transform="translate(6.9032,-27.6795)">
					<title>Sheet.8299</title>
					<rect x="0" y="123.341" width="4.23529" height="1.3673" class="st3"/>
				</g>
				<g id="shape8300-21" transform="translate(5.56925,-2.30969)">
					<title>Sheet.8300</title>
					<path d="M22.81 70.33 A2.03428 2.03428 -180 0 0 20.78 72.39 A2.10097 2.10097 -180 0 0 22.84 74.49 A24.2112 24.2112
								 0 1 1 4.97 82.33 L6.67 84.8 L11.41 74.26 L0 75.59 L2.5 78.93 A28.3131 28.3131 -180 1 0 22.81 70.33
								 Z" class="st4"/>
				</g>
				<g id="shape8301-25" transform="translate(26.5456,-27.446)">
					<title>Sheet.8301</title>
					<path d="M-0 122.97 A1.73418 1.73418 -180 0 0 1.73 124.71 L2.07 124.71 A1.73418 1.73418 -180 0 0 3.8 122.97 L3.8
								 104.73 A1.73418 1.73418 -180 0 0 2.07 103 L1.73 103 A1.73418 1.73418 -180 0 0 -0 104.73 L0 122.97
								 Z" class="st3"/>
				</g>
				<g id="shape8302-27" transform="translate(118.243,183.788) rotate(135)">
					<title>Sheet.8302</title>
					<path d="M-0 122.97 A1.73418 1.73418 -180 0 0 1.73 124.71 L2.07 124.71 A1.73418 1.73418 -180 0 0 3.8 122.97 L3.8
								 112.84 A1.73418 1.73418 -180 0 0 2.07 111.1 L1.73 111.1 A1.73418 1.73418 -180 0 0 0 112.84 L0 122.97
								 Z" class="st3"/>
				</g>
				<g id="shape8303-29" transform="translate(24.2779,-24.3446)">
					<title>Sheet.8303</title>
					<ellipse cx="4.00185" cy="120.707" rx="4.00185" ry="4.00185" class="st5"/>
				</g>
			</g>
		</g>
	</g>
</svg>
