<?xml version="1.0" encoding="UTF-8" standalone="no"?>
<!-- Generated by Microsoft Visio, SVG Export Virtual Cluster.svg Page-1 -->

<svg
   xmlns:dc="http://purl.org/dc/elements/1.1/"
   xmlns:cc="http://creativecommons.org/ns#"
   xmlns:rdf="http://www.w3.org/1999/02/22-rdf-syntax-ns#"
   xmlns:svg="http://www.w3.org/2000/svg"
   xmlns="http://www.w3.org/2000/svg"
   xmlns:sodipodi="http://sodipodi.sourceforge.net/DTD/sodipodi-0.dtd"
   xmlns:inkscape="http://www.inkscape.org/namespaces/inkscape"
   width="0.78736806in"
   height="0.74815714in"
   viewBox="0 0 56.690408 53.867315"
   xml:space="preserve"
   class="st6"
   version="1.1"
   id="svg100"
   sodipodi:docname="Virtual Cluster.svg"
   style="font-size:12px;overflow:visible;color-interpolation-filters:sRGB;fill:none;fill-rule:evenodd;stroke-linecap:square;stroke-miterlimit:3"
   inkscape:version="0.92.5 (2060ec1f9f, 2020-04-08)"><metadata
   id="metadata104"><rdf:RDF><cc:Work
       rdf:about=""><dc:format>image/svg+xml</dc:format><dc:type
         rdf:resource="http://purl.org/dc/dcmitype/StillImage" /></cc:Work></rdf:RDF></metadata><sodipodi:namedview
   pagecolor="#ffffff"
   bordercolor="#666666"
   borderopacity="1"
   objecttolerance="10"
   gridtolerance="10"
   guidetolerance="10"
   inkscape:pageopacity="0"
   inkscape:pageshadow="2"
   inkscape:window-width="640"
   inkscape:window-height="480"
   id="namedview102"
   showgrid="false"
   inkscape:zoom="1.452272"
   inkscape:cx="37.795335"
   inkscape:cy="35.906077"
   inkscape:window-x="0"
   inkscape:window-y="0"
   inkscape:window-maximized="0"
   inkscape:current-layer="svg100" />
	<style
   type="text/css"
   id="style2">
	<![CDATA[
		.st1 {fill:#949494;stroke:none;stroke-linecap:butt;stroke-width:34}
		.st2 {fill:#003067;stroke:none;stroke-linecap:butt;stroke-width:34}
		.st3 {fill:#50e6ff;stroke:none;stroke-linecap:butt;stroke-width:34}
		.st4 {fill:url(#grad0-22);stroke:none;stroke-linecap:butt;stroke-width:34}
		.st5 {fill:url(#grad0-32);stroke:none;stroke-linecap:butt;stroke-width:34}
		.st6 {fill:none;fill-rule:evenodd;font-size:12px;overflow:visible;stroke-linecap:square;stroke-miterlimit:3}
	]]>
	</style>

	<defs
   id="Patterns_And_Gradients">
		<linearGradient
   id="grad0-22"
   x1="0"
   y1="75.201895"
   x2="28.529084"
   y2="75.201895"
   gradientTransform="scale(0.85106133,1.1750035)"
   gradientUnits="userSpaceOnUse">
			<stop
   offset="0"
   stop-color="#b3b2b3"
   stop-opacity="1"
   id="stop4" />
			<stop
   offset="0.38"
   stop-color="#afaeaf"
   stop-opacity="1"
   id="stop6" />
			<stop
   offset="0.76"
   stop-color="#a2a2a2"
   stop-opacity="1"
   id="stop8" />
			<stop
   offset="1"
   stop-color="#979797"
   stop-opacity="1"
   id="stop10" />
		</linearGradient>
		<linearGradient
   id="grad0-32"
   x1="0"
   y1="111.38326"
   x2="34.40079"
   y2="111.38326"
   gradientTransform="scale(1.1961934,0.83598519)"
   gradientUnits="userSpaceOnUse">
			<stop
   offset="0"
   stop-color="#0078d4"
   stop-opacity="1"
   id="stop13" />
			<stop
   offset="0.16"
   stop-color="#1380da"
   stop-opacity="1"
   id="stop15" />
			<stop
   offset="0.53"
   stop-color="#3c91e5"
   stop-opacity="1"
   id="stop17" />
			<stop
   offset="0.82"
   stop-color="#559cec"
   stop-opacity="1"
   id="stop19" />
			<stop
   offset="1"
   stop-color="#5ea0ef"
   stop-opacity="1"
   id="stop21" />
		</linearGradient>
	</defs>
	<g
   id="g98"
   transform="translate(-34.0001,-34.001242)">
		<title
   id="title25">Page-1</title>
		<g
   id="group12454-1"
   transform="translate(34,-34.0157)">
			<title
   id="title27">Virtual Cluster.12454</title>
			<g
   id="group12455-2">
				<title
   id="title29">Icon-databases-127</title>
				<g
   id="shape12456-3"
   transform="translate(0,-20.2873)">
					<title
   id="title31">path4</title>
					<path
   d="m 24.24,120.76 a 1.3006,1.28234 0 0 1 -1.4,1.12 H 1.4 A 1.3006,1.28234 0 0 1 0,120.76 V 89.59 a 1.3006,1.28234 0 0 1 1.4,-1.12 h 21.44 a 1.3006,1.28234 0 0 1 1.4,1.12 z"
   class="st1"
   id="path33"
   inkscape:connector-curvature="0"
   style="fill:#949494;stroke:none;stroke-width:34;stroke-linecap:butt" />
				</g>
				<g
   id="shape12457-5"
   transform="translate(3.56832,-36.7933)">
					<title
   id="title36">path6</title>
					<path
   d="m 0,119.25 a 2.63455,2.59756 0 0 1 2.63,-2.6 h 12.14 a 2.63455,2.59756 0 0 1 2.64,2.6 2.63455,2.59756 0 0 1 -2.64,2.63 H 2.63 A 2.63455,2.59756 0 0 1 0,119.28 Z m 0,-7.7 a 2.63455,2.59756 0 0 1 2.63,-2.63 h 12.14 a 2.63455,2.59756 0 0 1 2.64,2.63 2.63455,2.59756 0 0 1 -2.64,2.6 H 2.63 A 2.63455,2.59756 0 0 1 0,111.55 Z"
   class="st2"
   id="path38"
   inkscape:connector-curvature="0"
   style="fill:#003067;stroke:none;stroke-width:34;stroke-linecap:butt" />
				</g>
				<g
   id="shape12458-7"
   transform="translate(4.53543,-45.3751)">
					<title
   id="title41">circle8</title>
					<ellipse
   cx="1.76748"
   cy="120.136"
   rx="1.76748"
   ry="1.7426701"
   class="st3"
   id="ellipse43"
   style="fill:#50e6ff;stroke:none;stroke-width:34;stroke-linecap:butt" />
				</g>
				<g
   id="shape12459-9"
   transform="translate(4.53543,-37.6811)">
					<title
   id="title46">circle10</title>
					<ellipse
   cx="1.76748"
   cy="120.136"
   rx="1.76748"
   ry="1.7426701"
   class="st3"
   id="ellipse48"
   style="fill:#50e6ff;stroke:none;stroke-width:34;stroke-linecap:butt" />
				</g>
				<g
   id="shape12460-11"
   transform="translate(26.7457,-20.4188)">
					<title
   id="title51">path12</title>
					<path
   d="m 24.24,120.73 a 1.3006,1.28234 0 0 1 -1.4,1.15 H 1.4 A 1.3006,1.28234 0 0 1 0,120.73 V 89.59 a 1.3006,1.28234 0 0 1 1.4,-1.15 h 21.44 a 1.3006,1.28234 0 0 1 1.4,1.15 z"
   class="st1"
   id="path53"
   inkscape:connector-curvature="0"
   style="fill:#949494;stroke:none;stroke-width:34;stroke-linecap:butt" />
				</g>
				<g
   id="shape12461-13"
   transform="translate(30.314,-36.7933)">
					<title
   id="title56">path14</title>
					<path
   d="m 0,119.12 a 2.63455,2.59756 0 0 1 2.63,-2.6 h 12.08 a 2.63455,2.59756 0 0 1 2.63,2.6 2.63455,2.59756 0 0 1 -2.63,2.76 H 2.63 A 2.63455,2.59756 0 0 1 0,119.28 Z m 0,-7.73 a 2.63455,2.59756 0 0 1 2.63,-2.66 h 12.08 a 2.6679,2.63044 0 0 1 2.63,2.59 2.63455,2.59756 0 0 1 -2.63,2.67 H 2.63 A 2.63455,2.59756 0 0 1 0,111.39 Z"
   class="st2"
   id="path58"
   inkscape:connector-curvature="0"
   style="fill:#003067;stroke:none;stroke-width:34;stroke-linecap:butt" />
				</g>
				<g
   id="shape12462-15"
   transform="translate(31.2811,-45.5395)">
					<title
   id="title61">circle16</title>
					<ellipse
   cx="1.76748"
   cy="120.136"
   rx="1.76748"
   ry="1.7426701"
   class="st3"
   id="ellipse63"
   style="fill:#50e6ff;stroke:none;stroke-width:34;stroke-linecap:butt" />
				</g>
				<g
   id="shape12463-17"
   transform="translate(31.2811,-37.8126)">
					<title
   id="title66">circle18</title>
					<ellipse
   cx="1.76748"
   cy="120.136"
   rx="1.76748"
   ry="1.7426701"
   class="st3"
   id="ellipse68"
   style="fill:#50e6ff;stroke:none;stroke-width:34;stroke-linecap:butt" />
				</g>
				<g
   id="shape12464-19"
   transform="translate(4.06855)">
					<title
   id="title71">path20</title>
					<path
   d="m 24.28,120.73 a 1.3006,1.28234 0 0 1 -1.4,1.15 H 1.4 A 1.3006,1.28234 0 0 1 0,120.73 V 89.59 a 1.3006,1.28234 0 0 1 1.4,-1.22 h 21.44 a 1.3006,1.28234 0 0 1 1.44,1.22 z"
   class="st4"
   id="path73"
   inkscape:connector-curvature="0"
   style="fill:url(#grad0-22);stroke:none;stroke-width:34;stroke-linecap:butt" />
				</g>
				<g
   id="shape12465-23"
   transform="translate(7.63687,-16.5389)">
					<title
   id="title76">path22</title>
					<path
   d="m 0,119.28 a 2.63455,2.59756 0 0 1 2.63,-2.6 h 12.08 a 2.63455,2.59756 0 0 1 2.63,2.6 h 0.03 a 2.6679,2.63044 0 0 1 -2.63,2.6 H 2.63 A 2.63455,2.59756 0 0 1 0,119.28 Z m 0,-7.79 a 2.63455,2.59756 0 0 1 2.63,-2.6 h 12.08 a 2.63455,2.59756 0 0 1 2.66,2.6 2.6679,2.63044 0 0 1 -2.63,2.6 H 2.63 A 2.63455,2.59756 0 0 1 0,111.49 Z"
   class="st2"
   id="path78"
   inkscape:connector-curvature="0"
   style="fill:#003067;stroke:none;stroke-width:34;stroke-linecap:butt" />
				</g>
				<g
   id="shape12466-25"
   transform="translate(8.60398,-25.1207)">
					<title
   id="title81">circle24</title>
					<ellipse
   cx="1.76748"
   cy="120.136"
   rx="1.76748"
   ry="1.7426701"
   class="st3"
   id="ellipse83"
   style="fill:#50e6ff;stroke:none;stroke-width:34;stroke-linecap:butt" />
				</g>
				<g
   id="shape12467-27"
   transform="translate(8.60398,-17.3938)">
					<title
   id="title86">circle26</title>
					<ellipse
   cx="1.76748"
   cy="120.136"
   rx="1.76748"
   ry="1.7426701"
   class="st3"
   id="ellipse88"
   style="fill:#50e6ff;stroke:none;stroke-width:34;stroke-linecap:butt" />
				</g>
				<g
   id="shape12468-29"
   transform="translate(15.5405,-4.74435)">
					<title
   id="title91">path28</title>
					<path
   d="M 41.15,112.85 A 9.23761,9.1079 -180 0 0 33.12,104.1 11.6387,11.4753 -180 0 0 21.14,93.12 11.9389,11.7712 -180 0 0 9.7,100.78 11.0384,10.8834 -180 0 0 0,111.23 11.2385,11.0807 -180 0 0 11.61,121.85 h 19.77 a 1.33395,1.31522 -180 0 0 0.5,0 9.33766,9.20654 -180 0 0 9.27,-9 z"
   class="st5"
   id="path93"
   inkscape:connector-curvature="0"
   style="fill:url(#grad0-32);stroke:none;stroke-width:34;stroke-linecap:butt" />
				</g>
			</g>
		</g>
	</g>
</svg>