<?xml version="1.0" encoding="UTF-8" standalone="no"?>
<!DOCTYPE svg PUBLIC "-//W3C//DTD SVG 1.1//EN" "http://www.w3.org/Graphics/SVG/1.1/DTD/svg11.dtd">
<!-- Generated by Microsoft Visio, SVG Export Virtual Machine Updates.svg Page-1 -->
<svg xmlns="http://www.w3.org/2000/svg" xmlns:xlink="http://www.w3.org/1999/xlink" xmlns:ev="http://www.w3.org/2001/xml-events"
		width="1.73185in" height="1.65332in" viewBox="0 0 124.693 119.039" xml:space="preserve" color-interpolation-filters="sRGB"
		class="st5">
	<style type="text/css">
	<![CDATA[
		.st1 {fill:url(#grad0-6);stroke:none;stroke-linecap:butt;stroke-width:34}
		.st2 {fill:url(#grad0-10);stroke:none;stroke-linecap:butt;stroke-width:34}
		.st3 {fill:#ffffff;fill-opacity:0.8;stroke:none;stroke-linecap:butt;stroke-width:34}
		.st4 {fill:#ffffff;stroke:none;stroke-linecap:butt;stroke-width:34}
		.st5 {fill:none;fill-rule:evenodd;font-size:12px;overflow:visible;stroke-linecap:square;stroke-miterlimit:3}
	]]>
	</style>

	<defs id="Patterns_And_Gradients">
		<linearGradient id="grad0-6" x1="0" y1="0" x2="1" y2="0" gradientTransform="rotate(-90 0.5 0.5)">
			<stop offset="0" stop-color="#0078d4" stop-opacity="1"/>
			<stop offset="0.82" stop-color="#5ea0ef" stop-opacity="1"/>
		</linearGradient>
		<linearGradient id="grad0-10" x1="0" y1="0" x2="1" y2="0" gradientTransform="rotate(-90 0.5 0.5)">
			<stop offset="0" stop-color="#cccccc" stop-opacity="1"/>
			<stop offset="1" stop-color="#707070" stop-opacity="1"/>
		</linearGradient>
	</defs>
	<g>
		<title>Page-1</title>
		<g id="group10454-1" transform="translate(34,-34.0157)">
			<title>Virtual Machine Updates.10454</title>
			<g id="group10455-2">
				<title>Sheet.10455</title>
				<g id="shape10456-3" transform="translate(0,-14.2056)">
					<title>Sheet.10456</title>
					<path d="M0 117.2 A1.88981 1.84094 -180 0 0 1.89 119.04 L54.8 119.04 A1.88981 1.84094 -180 0 0 56.69 117.2 L56.69
								 84.06 A1.88981 1.84094 -180 0 0 54.8 82.22 L1.89 82.22 A1.88981 1.84094 -180 0 0 0 84.06 L0 117.2
								 Z" class="st1"/>
				</g>
				<g id="shape10457-7" transform="translate(14.1732,0)">
					<title>Sheet.10457</title>
					<path d="M25.54 115.97 C19.94 115.11 19.72 111.18 19.72 104.83 L8.6 104.83 C8.6 111.18 8.41 115.11 2.8 115.97
								 A3.14961 3.06817 -180 0 0 -0 119.04 L28.35 119.04 A3.14961 3.06817 -180 0 0 25.54 115.97 Z"
							class="st2"/>
				</g>
				<g id="shape10458-11" transform="translate(15.5559,-20.4156)">
					<title>Sheet.10458</title>
					<path d="M0 107.14 L0 115.08 a0.462992 0.451021 -180 0 0 0.462992 0.451021 a0.469291 0.457157 -180 0 0 0.270866
								 -0.0859087 L2.98 113.87 A13.1465 12.8065 -180 0 0 8.09 117.93 A12.863 12.5304 -180 0 0 13.36 119.04
								 A12.3118 11.9935 -180 0 0 15.51 118.86 A12.5764 12.2512 -180 0 0 19.05 117.72 A12.1197 11.8063 -180
								 0 0 22.05 115.65 A12.337 12.018 -180 0 0 25.54 109.56 a0.705512 0.687269 -180 0 0 -0.48189 -0.800792
								 a0.680315 0.662724 -180 0 0 -0.207874 -0.0306817 a0.702362 0.684201 -180 0 0 -0.674016 0.48477 A10.6205
								 10.3459 0 0 1 20.73 114.19 A10.0346 9.77518 0 0 1 15.18 116.37 A9.09606 8.86087 0 0 1 14.3 116.41
								 A9.95591 9.69848 0 0 1 9.48 115.18 A9.78268 9.52973 0 0 1 5.91 111.81 L9.02 109.62 a0.462992 0.451021
								 -180 0 0 -0.151181 -0.800792 L0.58 106.71 a0.40315 0.392725 -180 0 0 -0.119685 1.42109E-14 a0.459843
								 0.447952 -180 0 0 -0.459843 0.432612 Z" class="st3"/>
				</g>
				<g id="shape10459-13" transform="translate(15.6283,-32.3262)">
					<title>Sheet.10459</title>
					<path d="M25.52 118.58 L25.52 110.64 a0.466142 0.454089 -180 0 0 -0.466142 -0.451021 a0.459843 0.447952 -180
								 0 0 -0.267717 0.0859087 L22.68 111.76 A13.2063 12.8648 -180 0 0 17.32 107.6 A12.9575 12.6224 -180
								 0 0 12.23 106.57 A12.3748 12.0548 -180 0 0 -0 116.21 a0.629921 0.613633 -180 0 0 0.428346 0.696474
								 a0.708661 0.690338 -180 0 0 0.182677 0.0245453 a0.629921 0.613633 -180 0 0 0.592126 -0.426475 A10.7087
								 10.4318 0 0 1 4.67 111.5 A10.1197 9.85802 0 0 1 10.2 109.31 C10.49 109.28 10.79 109.26 11.08 109.26
								 A9.85827 9.60336 0 0 1 15.86 110.49 A9.6126 9.36405 0 0 1 19.5 114 L16.48 116.12 a0.462992 0.451021
								 -180 0 0 0.154331 0.800792 L24.93 119.02 a0.384252 0.374316 -180 0 0 0.116535 0.0153408 a0.462992
								 0.451021 -180 0 0 0.472441 -0.463293 Z" class="st4"/>
				</g>
			</g>
		</g>
	</g>
</svg>
