<?xml version="1.0" encoding="UTF-8" standalone="no"?>
<!-- Generated by Microsoft Visio, SVG Export Virtual Machine Restart.svg Page-1 -->

<svg
   xmlns:dc="http://purl.org/dc/elements/1.1/"
   xmlns:cc="http://creativecommons.org/ns#"
   xmlns:rdf="http://www.w3.org/1999/02/22-rdf-syntax-ns#"
   xmlns:svg="http://www.w3.org/2000/svg"
   xmlns="http://www.w3.org/2000/svg"
   xmlns:sodipodi="http://sodipodi.sourceforge.net/DTD/sodipodi-0.dtd"
   xmlns:inkscape="http://www.inkscape.org/namespaces/inkscape"
   width="0.5905968in"
   height="0.78749603in"
   viewBox="0 0 42.523186 56.699857"
   xml:space="preserve"
   class="st2"
   version="1.1"
   id="svg19"
   sodipodi:docname="Virtual Machine Restart.svg"
   style="font-size:12px;overflow:visible;color-interpolation-filters:sRGB;fill:none;fill-rule:evenodd;stroke-linecap:square;stroke-miterlimit:3"
   inkscape:version="0.92.5 (2060ec1f9f, 2020-04-08)"><metadata
   id="metadata25"><rdf:RDF><cc:Work
       rdf:about=""><dc:format>image/svg+xml</dc:format><dc:type
         rdf:resource="http://purl.org/dc/dcmitype/StillImage" /></cc:Work></rdf:RDF></metadata><defs
   id="defs23" /><sodipodi:namedview
   pagecolor="#ffffff"
   bordercolor="#666666"
   borderopacity="1"
   objecttolerance="10"
   gridtolerance="10"
   guidetolerance="10"
   inkscape:pageopacity="0"
   inkscape:pageshadow="2"
   inkscape:window-width="640"
   inkscape:window-height="480"
   id="namedview21"
   showgrid="false"
   inkscape:zoom="1.1323246"
   inkscape:cx="28.348633"
   inkscape:cy="37.800742"
   inkscape:window-x="0"
   inkscape:window-y="0"
   inkscape:window-maximized="0"
   inkscape:current-layer="svg19" />
	<style
   type="text/css"
   id="style2">
	<![CDATA[
		.st1 {fill:#000000;stroke:none;stroke-linecap:butt;stroke-width:49.8113}
		.st2 {fill:none;fill-rule:evenodd;font-size:12px;overflow:visible;stroke-linecap:square;stroke-miterlimit:3}
	]]>
	</style>

	<g
   id="g17"
   transform="translate(-49.811416,-49.808899)">
		<title
   id="title4">Page-1</title>
		<g
   id="group10968-1"
   transform="translate(49.8146,-49.8113)">
			<title
   id="title6">Virtual Machine Restart.10968</title>
			<g
   id="group10969-2">
				<title
   id="title8">Sheet.10969</title>
				<g
   id="shape10970-3">
					<title
   id="title10">Sheet.10970</title>
					<path
   d="m 24.8,113.89 h 11.7 l -3.9,-3.93 a 17.0079,17.1148 -180 0 0 -3.9,-3.21 14.5276,14.6189 -180 0 0 -3.9,-2.49 14.1732,14.2624 -180 0 0 -5.31,-1.07 13.8189,13.9058 -180 0 0 -6.38,1.42 11.6929,11.7665 -180 0 0 -4.96,3.57 12.0472,12.123 -180 0 0 -3.19,4.99 11.6929,11.7665 -180 0 0 -1.42,6.06 18.0709,18.1845 -180 0 0 1.07,6.06 25.1575,25.3157 -180 0 0 3.54,5 L 31.18,153.46 28.7,156.32 5.67,132.78 A 23.3858,23.5329 0 0 1 1.42,126.72 18.4252,18.5411 0 0 1 0,119.23 a 20.9055,21.037 0 0 1 0.71,-4.99 10.9843,11.0533 0 0 1 2.12,-4.63 17.7165,17.828 0 0 1 2.84,-4.28 l 3.9,-2.85 a 26.5748,26.7419 0 0 1 4.6,-2.14 l 5.32,-0.72 4.25,0.72 a 6.73228,6.77462 0 0 1 3.54,1.07 l 3.19,1.78 2.84,2.49 2.48,2.5 3.19,3.21 V 99.62 h 3.54 v 17.83 H 24.8 Z"
   class="st1"
   id="path12"
   inkscape:connector-curvature="0"
   style="fill:#000000;stroke:none;stroke-width:49.81129837;stroke-linecap:butt" />
				</g>
			</g>
		</g>
	</g>
</svg>