<?xml version="1.0" encoding="UTF-8" standalone="no"?>
<!DOCTYPE svg PUBLIC "-//W3C//DTD SVG 1.1//EN" "http://www.w3.org/Graphics/SVG/1.1/DTD/svg11.dtd">
<!-- Generated by Microsoft Visio, SVG Export Virtual Machine SQL High Availability.svg Page-1 -->
<svg xmlns="http://www.w3.org/2000/svg" xmlns:xlink="http://www.w3.org/1999/xlink" xmlns:ev="http://www.w3.org/2001/xml-events"
		width="1.73185in" height="1.65137in" viewBox="0 0 124.693 118.899" xml:space="preserve" color-interpolation-filters="sRGB"
		class="st12">
	<style type="text/css">
	<![CDATA[
		.st1 {fill:#83b9f9;stroke:none;stroke-linecap:butt;stroke-width:34}
		.st2 {fill:url(#grad0-8);stroke:none;stroke-linecap:butt;stroke-width:34}
		.st3 {fill:#848484;stroke:none;stroke-linecap:butt;stroke-width:34}
		.st4 {fill:#e8e8e8;stroke:none;stroke-linecap:butt;stroke-width:34}
		.st5 {fill:#9e9e9e;stroke:none;stroke-linecap:butt;stroke-width:34}
		.st6 {fill:url(#grad0-22);stroke:none;stroke-linecap:butt;stroke-width:34}
		.st7 {fill:url(#grad0-26);stroke:none;stroke-linecap:butt;stroke-width:34}
		.st8 {fill:#50e6ff;stroke:none;stroke-linecap:butt;stroke-width:34}
		.st9 {fill:#c3f1ff;stroke:none;stroke-linecap:butt;stroke-width:34}
		.st10 {fill:#9cebff;stroke:none;stroke-linecap:butt;stroke-width:34}
		.st11 {fill:none;stroke:none;stroke-linecap:butt;stroke-width:34}
		.st12 {fill:none;fill-rule:evenodd;font-size:12px;overflow:visible;stroke-linecap:square;stroke-miterlimit:3}
	]]>
	</style>

	<defs id="Patterns_And_Gradients">
		<linearGradient id="grad0-8" x1="0" y1="0" x2="1" y2="0" gradientTransform="rotate(-90 0.5 0.5)">
			<stop offset="0" stop-color="#a8a8a8" stop-opacity="1"/>
			<stop offset="1" stop-color="#e6e6e6" stop-opacity="1"/>
		</linearGradient>
		<linearGradient id="grad0-22" x1="0" y1="0" x2="1" y2="0" gradientTransform="rotate(-90 0.5 0.5)">
			<stop offset="0.15" stop-color="#cccccc" stop-opacity="1"/>
			<stop offset="1" stop-color="#707070" stop-opacity="1"/>
		</linearGradient>
		<linearGradient id="grad0-26" x1="0" y1="0" x2="1" y2="0" gradientTransform="rotate(-90 0.5 0.5)">
			<stop offset="0" stop-color="#0078d4" stop-opacity="1"/>
			<stop offset="0.82" stop-color="#5ea0ef" stop-opacity="1"/>
		</linearGradient>
	</defs>
	<g>
		<title>Page-1</title>
		<g id="group10654-1" transform="translate(34,-34.0157)">
			<title>Virtual Machine SQL High Availability.10654</title>
			<g id="group10655-2">
				<title>High_availability</title>
				<g id="shape10656-3" transform="translate(3.12372,0)">
					<title>Sheet.10656</title>
					<path d="M15.05 72.33 a0.51187 0.520649 0 0 1 -4.44089E-14 0.737586 L10.99 76.86 C10.62 77.19 10.35 77.07 10.35
								 76.57 L10.35 74.66 a0.495464 0.503962 -180 0 0 -0.515151 -0.480599 A5.87666 5.97745 -180 0 0 3.42
								 81.42 C3.42 81.42 3.42 81.45 3.42 81.47 a0.495464 0.503962 0 0 1 -0.495464 0.500624 L0.47 81.97
								 a0.492183 0.500624 0 0 1 -0.469214 -0.523987 C0.23 71.66 7.27 71.01 9.8 71.01 a0.492183 0.500624
								 -180 0 0 0.492183 -0.500624 L10.29 68.48 C10.29 67.99 10.57 67.87 10.91 68.2 L14.96 72.27 a0.515151
								 0.523987 0 0 1 0.0885929 0.0667499 ZM25.97 114.44 a0.51187 0.520649 0 0 1 3.90799E-14 -0.737586
								 L30.03 109.92 C30.39 109.58 30.69 109.7 30.69 110.2 L30.69 112.11 a0.495464 0.503962 -180 0 0 0.515151
								 0.480599 A5.87666 5.97745 -180 0 0 37.61 105.35 C37.61 105.35 37.61 105.32 37.61 105.31 a0.495464
								 0.503962 0 0 1 0.495464 -0.500624 L40.57 104.81 a0.492183 0.500624 0 0 1 0.469214 0.523987 C40.8
								 115.11 33.77 115.77 31.25 115.77 L31.22 115.77 a0.492183 0.500624 -180 0 0 -0.492183 0.500624 L30.73
								 118.29 C30.73 118.79 30.46 118.9 30.11 118.57 L26.05 114.51 a0.515151 0.523987 0 0 1 -0.0820305
								 -0.0667499 Z" class="st1"/>
				</g>
				<g id="shape10657-5" transform="translate(0,-13.1698)">
					<title>Sheet.10657</title>
					<path d="M0 117.91 a0.974545 0.991259 -180 0 0 0.974522 0.991236 L28.55 118.9 a0.974545 0.991259 -180 0 0 0.974522
								 -0.991236 L29.53 99.8 a0.974545 0.991259 -180 0 0 -0.974522 -0.991236 L0.97 98.81 a0.974545 0.991259
								 -180 0 0 -0.974522 0.991236 L0 117.91 Z" class="st2"/>
				</g>
				<g id="shape10658-9" transform="translate(14.7786,-17.375)">
					<title>Sheet.10658</title>
					<path d="M4.91 110.12 L4.91 115.96 L0 118.9 L0 113.05 L4.91 110.12 Z" class="st3"/>
				</g>
				<g id="shape10659-11" transform="translate(9.84038,-23.219)">
					<title>Sheet.10659</title>
					<path d="M9.84 115.96 L4.94 118.9 L0 115.96 L4.94 113.02 L9.84 115.96 Z" class="st4"/>
				</g>
				<g id="shape10660-13" transform="translate(9.84038,-17.375)">
					<title>Sheet.10660</title>
					<path d="M4.94 113.05 L4.94 118.9 L0 115.96 L0 110.12 L4.94 113.05 Z" class="st5"/>
				</g>
				<g id="shape10661-15" transform="translate(9.84038,-17.375)">
					<title>Sheet.10661</title>
					<path d="M0 115.96 L4.94 113.05 L4.94 118.9 L0 115.96 Z" class="st4"/>
				</g>
				<g id="shape10662-17" transform="translate(14.7786,-17.375)">
					<title>Sheet.10662</title>
					<path d="M4.91 115.96 L0 113.05 L0 118.9 L4.91 115.96 Z" class="st5"/>
				</g>
				<g id="shape10663-19" transform="translate(7.38931,-5.4568)">
					<title>Sheet.10663</title>
					<path d="M13.3 117.23 C10.38 116.75 10.28 114.6 10.28 111.15 L4.47 111.15 C4.47 114.57 4.47 116.75 1.44 117.23
								 A1.71608 1.74551 -180 0 0 0 118.9 L14.78 118.9 A1.71608 1.74551 -180 0 0 13.3 117.23 Z"
							class="st6"/>
				</g>
				<g id="shape10664-23" transform="translate(22.1253,-25.9423)">
					<title>Sheet.10664</title>
					<path d="M0 117.74 A1.14189 1.16148 -180 0 0 1.14 118.9 L33.43 118.9 A1.14189 1.16148 -180 0 0 34.57 117.74 L34.57
								 96.54 A1.14189 1.16148 -180 0 0 33.43 95.38 L1.14 95.38 A1.14189 1.16148 -180 0 0 0 96.54 L0 117.74
								 Z" class="st7"/>
				</g>
				<g id="shape10665-27" transform="translate(39.4304,-30.8618)">
					<title>Sheet.10665</title>
					<path d="M5.74 108.62 L5.74 115.46 L0 118.9 L0 112.06 L5.74 108.62 Z" class="st8"/>
				</g>
				<g id="shape10666-29" transform="translate(33.6489,-37.7037)">
					<title>Sheet.10666</title>
					<path d="M11.52 115.46 L5.78 118.9 L0 115.46 L5.78 112.02 L11.52 115.46 Z" class="st9"/>
				</g>
				<g id="shape10667-31" transform="translate(33.6489,-30.8618)">
					<title>Sheet.10667</title>
					<path d="M5.78 112.06 L5.78 118.9 L0 115.46 L0 108.62 L5.78 112.06 Z" class="st10"/>
				</g>
				<g id="shape10668-33" transform="translate(33.6489,-30.8618)">
					<title>Sheet.10668</title>
					<path d="M0 115.46 L5.78 112.06 L5.78 118.9 L0 115.46 Z" class="st9"/>
				</g>
				<g id="shape10669-35" transform="translate(39.4304,-30.8618)">
					<title>Sheet.10669</title>
					<path d="M5.74 115.46 L0 112.06 L0 118.9 L5.74 115.46 Z" class="st10"/>
				</g>
				<g id="shape10670-37" transform="translate(30.7778,-16.9011)">
					<title>Sheet.10670</title>
					<path d="M15.57 116.94 C12.15 116.38 12.03 113.86 12.03 109.82 L5.23 109.82 C5.23 113.82 5.23 116.38 1.69 116.94
								 A2.00483 2.03921 -180 0 0 -0 118.9 L17.3 118.9 A2.00811 2.04255 -180 0 0 15.57 116.94 Z"
							class="st11"/>
				</g>
			</g>
		</g>
	</g>
</svg>
