<?xml version="1.0" encoding="UTF-8" standalone="no"?>
<!-- Generated by Microsoft Visio, SVG Export Virtual Machine Linux.svg Page-1 -->

<svg
   xmlns:dc="http://purl.org/dc/elements/1.1/"
   xmlns:cc="http://creativecommons.org/ns#"
   xmlns:rdf="http://www.w3.org/1999/02/22-rdf-syntax-ns#"
   xmlns:svg="http://www.w3.org/2000/svg"
   xmlns="http://www.w3.org/2000/svg"
   xmlns:sodipodi="http://sodipodi.sourceforge.net/DTD/sodipodi-0.dtd"
   xmlns:inkscape="http://www.inkscape.org/namespaces/inkscape"
   width="0.78736138in"
   height="0.70868915in"
   viewBox="0 0 56.689928 51.025603"
   xml:space="preserve"
   class="st12"
   version="1.1"
   id="svg118"
   sodipodi:docname="Virtual Machine Linux.svg"
   style="font-size:12px;overflow:visible;color-interpolation-filters:sRGB;fill:none;fill-rule:evenodd;stroke-linecap:square;stroke-miterlimit:3"
   inkscape:version="0.92.5 (2060ec1f9f, 2020-04-08)"><metadata
   id="metadata122"><rdf:RDF><cc:Work
       rdf:about=""><dc:format>image/svg+xml</dc:format><dc:type
         rdf:resource="http://purl.org/dc/dcmitype/StillImage" /></cc:Work></rdf:RDF></metadata><sodipodi:namedview
   pagecolor="#ffffff"
   bordercolor="#666666"
   borderopacity="1"
   objecttolerance="10"
   gridtolerance="10"
   guidetolerance="10"
   inkscape:pageopacity="0"
   inkscape:pageshadow="2"
   inkscape:window-width="640"
   inkscape:window-height="480"
   id="namedview120"
   showgrid="false"
   inkscape:zoom="1.4869072"
   inkscape:cx="37.795348"
   inkscape:cy="34.006413"
   inkscape:window-x="0"
   inkscape:window-y="0"
   inkscape:window-maximized="0"
   inkscape:current-layer="svg118" />
	<style
   type="text/css"
   id="style2">
	<![CDATA[
		.st1 {fill:url(#grad0-6);stroke:none;stroke-linecap:butt;stroke-width:34}
		.st2 {fill:url(#grad0-10);stroke:none;stroke-linecap:butt;stroke-width:34}
		.st3 {fill:#ffffff;fill-opacity:0.32;stroke:none;stroke-linecap:butt;stroke-width:10.7234}
		.st4 {fill:#fbfbf9;fill-opacity:0.8;stroke:none;stroke-linecap:butt;stroke-width:10.7234}
		.st5 {fill:#ff8c00;fill-opacity:0.8;stroke:none;stroke-linecap:butt;stroke-width:10.7234}
		.st6 {fill:#1e1e1e;fill-opacity:0.8;stroke:none;stroke-linecap:butt;stroke-width:10.7234}
		.st7 {fill:#dda516;fill-opacity:0.8;stroke:none;stroke-linecap:butt;stroke-width:10.7234}
		.st8 {fill:#8c5f07;fill-opacity:0.8;stroke:none;stroke-linecap:butt;stroke-width:10.7234}
		.st9 {fill:#e3a906;fill-opacity:0.8;stroke:none;stroke-linecap:butt;stroke-width:10.7234}
		.st10 {fill:#fcd116;fill-opacity:0.8;stroke:none;stroke-linecap:butt;stroke-width:10.7234}
		.st11 {fill:#ffffff;fill-opacity:0.9;stroke:none;stroke-linecap:butt;stroke-width:10.7234}
		.st12 {fill:none;fill-rule:evenodd;font-size:12px;overflow:visible;stroke-linecap:square;stroke-miterlimit:3}
	]]>
	</style>

	<defs
   id="Patterns_And_Gradients">
		<linearGradient
   id="grad0-6"
   x1="0"
   y1="102.02082"
   x2="45.687261"
   y2="102.02082"
   gradientTransform="scale(1.2408273,0.80591393)"
   gradientUnits="userSpaceOnUse">
			<stop
   offset="0"
   stop-color="#0078d4"
   stop-opacity="1"
   id="stop4" />
			<stop
   offset="0.82"
   stop-color="#5ea0ef"
   stop-opacity="1"
   id="stop6" />
		</linearGradient>
		<linearGradient
   id="grad0-10"
   x1="-5.1155188e-05"
   y1="148.06968"
   x2="20.071208"
   y2="148.06968"
   gradientTransform="scale(1.4124743,0.7079775)"
   gradientUnits="userSpaceOnUse">
			<stop
   offset="0.15"
   stop-color="#cccccc"
   stop-opacity="1"
   id="stop9" />
			<stop
   offset="1"
   stop-color="#707070"
   stop-opacity="1"
   id="stop11" />
		</linearGradient>
	</defs>
	<g
   id="g116"
   transform="translate(-34.000079,-33.9987)">
		<title
   id="title15">Page-1</title>
		<g
   id="group11020-1"
   transform="translate(34,-34.0157)">
			<title
   id="title17">Virtual Machine Linux.11020</title>
			<g
   id="group11021-2">
				<title
   id="title19">g16</title>
				<g
   id="shape11022-3"
   transform="translate(0,-14.2056)">
					<title
   id="title21">rect2</title>
					<path
   d="m 0,117.2 a 1.88981,1.84094 -180 0 0 1.89,1.84 H 54.8 a 1.88981,1.84094 -180 0 0 1.89,-1.84 V 84.06 A 1.88981,1.84094 -180 0 0 54.8,82.22 H 1.89 A 1.88981,1.84094 -180 0 0 0,84.06 Z"
   class="st1"
   id="path23"
   inkscape:connector-curvature="0"
   style="fill:url(#grad0-6);stroke:none;stroke-width:34;stroke-linecap:butt" />
				</g>
				<g
   id="shape11023-7"
   transform="translate(14.1732)">
					<title
   id="title26">path14</title>
					<path
   d="m 25.54,115.97 c -5.6,-0.86 -5.82,-4.79 -5.82,-11.14 H 8.6 c 0,6.35 -0.19,10.28 -5.8,11.14 A 3.14961,3.06817 -180 0 0 0,119.04 h 28.35 a 3.14961,3.06817 -180 0 0 -2.81,-3.07 z"
   class="st2"
   id="path28"
   inkscape:connector-curvature="0"
   style="fill:url(#grad0-10);stroke:none;stroke-width:34;stroke-linecap:butt" />
				</g>
				<g
   id="group11024-11"
   transform="translate(17.5264,-20.6308)">
					<title
   id="title31">Layer_3</title>
					<g
   id="shape11025-12"
   transform="translate(10.8108,-18.293)">
						<title
   id="title33">path10</title>
						<path
   d="m 1.14,118.73 -0.51,0.31 -0.44,-0.78 c -0.17,-0.3 -0.19,-0.55 -0.08,-0.82 0.1,-0.23 0.3,-0.36 0.56,-0.36 h 0.06 c 0.28,0.02 0.56,0.31 0.65,0.56 0.09,0.27 0.09,0.9 -0.24,1.09 z"
   class="st3"
   id="path35"
   inkscape:connector-curvature="0"
   style="fill:#ffffff;fill-opacity:0.31999996;stroke:none;stroke-width:10.72340012;stroke-linecap:butt" />
					</g>
					<g
   id="shape11026-14"
   transform="translate(4.49299,-2.33695)">
						<title
   id="title38">path12</title>
						<path
   d="m 2.52,117.79 c 0,-0.03 -2.52,-3.96 -2.37,-4.64 1.18,-5.49 2.59,-6.29 3.11,-7.45 0.52,-1.16 0.22,-2.23 0.84,-2.25 0.61,-0.01 2.42,0.12 2.87,0.27 0.44,0.14 1.06,0.57 1.41,1.52 0.47,0.87 0.93,1.74 1.08,2.72 0.01,0.09 0.05,0.18 0.11,0.25 1.18,1.26 1.41,2.79 1.33,4.4 -0.02,0.41 -0.08,1.02 -0.13,1.23 -0.06,0.21 -1.64,5.2 -4.14,5.14 -2.49,-0.06 -3.82,-0.97 -4.11,-1.19 z"
   class="st4"
   id="path40"
   inkscape:connector-curvature="0"
   style="fill:#fbfbf9;fill-opacity:0.8;stroke:none;stroke-width:10.72340012;stroke-linecap:butt" />
					</g>
					<g
   id="shape11027-16"
   transform="translate(13.7124,-0.168376)">
						<title
   id="title43">path14-9</title>
						<path
   d="m 6.71,114.46 c -0.92,-0.04 -1.4,-0.58 -1.4,-1.09 -0.01,-0.6 0.25,-1.35 -0.64,-1.42 -0.89,-0.08 -2.71,-0.17 -3.19,-0.26 -1.07,-0.19 -1.12,0.23 -1.14,0.53 -0.01,0.15 0.13,1.55 -0.01,2.1 0.01,0.24 -0.01,0.47 -0.05,0.71 -0.1,0.64 -0.18,1.28 -0.26,1.92 -0.01,0.31 -0.01,0.63 -0.02,0.94 0.77,1.11 2.28,1.15 3.21,0.19 0.87,-0.87 1.93,-1.46 3.04,-1.99 0.31,-0.15 0.61,-0.37 0.77,-0.8 0.17,-0.43 0.01,-0.81 -0.31,-0.83 z"
   class="st5"
   id="path45"
   inkscape:connector-curvature="0"
   style="fill:#ff8c00;fill-opacity:0.8;stroke:none;stroke-width:10.72340012;stroke-linecap:butt" />
					</g>
					<g
   id="shape11028-18"
   transform="translate(3.04268,-4.15328)">
						<title
   id="title48">path16</title>
						<path
   d="m 5.24,117.91 c -0.13,0.6 -0.79,1.13 -1.14,1.08 -0.21,-0.11 -0.79,-0.86 -0.92,-1.04 -0.37,-0.56 -2.03,-2.87 -2.51,-2.69 -0.16,0.02 -0.24,0.13 -0.33,0.24 -0.03,0.01 -0.06,0.03 -0.09,0.04 -0.25,-0.52 -0.23,-1.04 0.05,-1.53 0.6,-1.08 0.89,-2.2 1.2,-3.4 0.1,-0.41 0.35,-0.74 0.62,-1.07 0.48,-0.6 0.47,-1.21 0.97,-1.8 0.32,-0.39 0.6,-0.8 0.57,-1.29 -0.08,-1.39 -0.27,-2.75 -0.21,-4.14 0.06,-1.37 1.29,-2.51 2.66,-3 1.43,-0.51 2.77,-0.26 3.92,0.74 0.9,0.78 1.29,1.81 1.36,2.97 0.01,0.21 0.02,0.42 0.01,0.63 -0.1,2.18 0.84,3.95 2.26,5.53 1.37,1.51 1.9,3.33 2.03,5.29 0.03,0.51 -0.14,0.99 -0.36,1.46 -0.3,0.66 -0.72,1.08 -1.11,1.25 -0.4,0.17 -1.94,0.29 -1.64,-0.7 0.15,-0.48 0.17,-0.69 -0.44,-0.81 0.04,-0.41 0.11,-0.81 0.13,-1.22 0.09,-1.62 -0.2,-2.9 -1.46,-4.05 -0.39,-0.35 -0.03,-0.41 -0.04,-0.73 -0.03,-0.86 -0.55,-1.73 -1.02,-2.6 -0.04,-0.15 -0.12,-0.3 -0.23,-0.42 0.04,-0.14 -0.05,-0.24 -0.1,-0.34 0.07,-0.28 0.19,-0.54 0.13,-0.83 0,-0.26 -2.65,-0.36 -2.98,-0.24 -0.14,-0.04 -1.55,-0.1 -1.55,-0.08 -0.19,0.14 -0.32,0.32 -0.38,0.54 -0.06,0.21 0.29,0.65 0.32,0.72 -0.01,0.29 -0.03,0.59 -0.04,0.88 -0.03,0.11 -0.06,0.21 -0.09,0.31 -0.23,0.34 -0.46,0.68 -0.68,1.02 -0.19,0.31 -0.42,0.61 -0.45,0.99 -0.15,0.39 0.4,0.9 -0.1,1.35 -0.5,0.45 -1,2.63 -1.01,3.14 -0.01,0.55 1.02,1.81 1.42,2.18 0.72,0.66 1.38,0.92 1.23,1.62 z"
   class="st6"
   id="path50"
   inkscape:connector-curvature="0"
   style="fill:#1e1e1e;fill-opacity:0.8;stroke:none;stroke-width:10.72340012;stroke-linecap:butt" />
					</g>
					<g
   id="shape11029-20"
   transform="translate(7.78003,-1.33153)">
						<title
   id="title53">path18</title>
						<path
   d="m 0,117.17 c 1.07,0.29 4.08,0.38 5.54,-1.05 0.24,-0.22 0.49,-0.43 0.73,-0.65 0.01,0.24 0,0.47 -0.04,0.71 -0.1,0.64 -0.18,1.28 -0.27,1.92 0,0.31 -0.01,0.63 -0.01,0.94 -1.35,-0.36 -3.37,-0.49 -3.98,-0.46 -0.6,0.03 -1.42,0.18 -1.9,0.3 z"
   class="st6"
   id="path55"
   inkscape:connector-curvature="0"
   style="fill:#1e1e1e;fill-opacity:0.8;stroke:none;stroke-width:10.72340012;stroke-linecap:butt" />
					</g>
					<g
   id="shape11030-22"
   transform="translate(19.0339,-5.67641)">
						<title
   id="title58">path20</title>
						<path
   d="M 0.07,119.04 C 0.04,119.01 0.02,118.98 0,118.95 c 0.02,0.03 0.04,0.06 0.07,0.09 z"
   class="st7"
   id="path60"
   inkscape:connector-curvature="0"
   style="fill:#dda516;fill-opacity:0.8;stroke:none;stroke-width:10.72340012;stroke-linecap:butt" />
					</g>
					<g
   id="shape11031-24"
   transform="translate(18.6216,-7.03213)">
						<title
   id="title63">path22</title>
						<path
   d="M 0.09,119.04 C 0.06,119.01 0.03,118.99 0,118.96 c 0.03,0.03 0.06,0.05 0.09,0.08 z"
   class="st7"
   id="path65"
   inkscape:connector-curvature="0"
   style="fill:#dda516;fill-opacity:0.8;stroke:none;stroke-width:10.72340012;stroke-linecap:butt" />
					</g>
					<g
   id="shape11032-26"
   transform="translate(7.16713,-4.01006)">
						<title
   id="title68">path24</title>
						<path
   d="m 0,118.97 c 0.01,0.02 0.03,0.05 0.04,0.07 C 0.03,119.02 0.01,118.99 0,118.97 Z"
   class="st8"
   id="path70"
   inkscape:connector-curvature="0"
   style="fill:#8c5f07;fill-opacity:0.8;stroke:none;stroke-width:10.72340012;stroke-linecap:butt" />
					</g>
					<g
   id="shape11033-28"
   transform="translate(18.6216,-7.11148)">
						<title
   id="title73">polygon26</title>
						<path
   d="m 0,119.04 v 0 z"
   class="st9"
   id="path75"
   inkscape:connector-curvature="0"
   style="fill:#e3a906;fill-opacity:0.8;stroke:none;stroke-width:10.72340012;stroke-linecap:butt" />
					</g>
					<g
   id="shape11034-30">
						<title
   id="title78">path28</title>
						<path
   d="m 6.73,114.34 c -0.78,-0.79 -1.38,-1.75 -1.93,-2.82 -0.29,-0.56 -1.17,-1.01 -1.5,-0.13 -0.33,0.89 -0.86,1.25 -1.71,1.14 -0.63,-0.09 -1.22,0.38 -0.96,1.16 0.29,0.83 0.61,1.48 -0.01,2.06 -0.62,0.58 -0.37,1.19 0.5,1.3 0.88,0.12 3.17,0.63 4.5,1.31 1.32,0.68 2.38,-0.61 2.52,-0.99 0.35,-0.95 -0.63,-2.25 -1.41,-3.03 z"
   class="st5"
   id="path80"
   inkscape:connector-curvature="0"
   style="fill:#ff8c00;fill-opacity:0.8;stroke:none;stroke-width:10.72340012;stroke-linecap:butt" />
					</g>
					<g
   id="shape11035-32"
   transform="translate(6.93369,-13.9559)">
						<title
   id="title83">path30</title>
						<path
   d="m 2.75,119.04 c -0.75,0 -1.24,-0.69 -1.6,-1.29 0,0 -1.15,-1.57 -0.73,-2.44 0.06,-0.12 0.16,-0.33 1.34,-1.04 l 0.22,-0.18 0.21,-0.11 0.14,-0.05 c 0.16,-0.05 0.35,-0.1 0.52,-0.1 h 0.09 l 0.15,0.04 0.35,0.11 2.88,1.04 0.08,0.42 c 0.07,0.34 -0.02,0.63 -0.09,0.87 l -0.11,0.41 -0.25,0.09 c -0.21,0.08 -0.55,0.43 -0.83,0.72 -0.27,0.28 -0.52,0.55 -0.79,0.71 -0.09,0.07 -0.19,0.14 -0.29,0.22 -0.42,0.29 -0.8,0.58 -1.29,0.58 z"
   class="st6"
   id="path85"
   inkscape:connector-curvature="0"
   style="fill:#1e1e1e;fill-opacity:0.8;stroke:none;stroke-width:10.72340012;stroke-linecap:butt" />
					</g>
					<g
   id="shape11036-34"
   transform="translate(7.29527,-14.0265)">
						<title
   id="title88">path32</title>
						<path
   d="m 4.31,115.67 c -0.51,0.42 -1.09,0.79 -1.82,0.81 -0.02,0.03 -0.02,0.03 0,0 0.01,-0.16 0,-0.31 -0.14,-0.43 -0.12,-0.1 -0.13,-0.24 -0.1,-0.36 0.14,-0.51 0.05,-1.03 0.07,-1.54 -0.13,-0.04 -0.44,0.07 -0.48,0.08 -0.07,0.03 -0.13,0.06 -0.19,0.09 -0.08,0.06 -0.15,0.12 -0.22,0.18 -0.09,0.06 -1.07,0.64 -1.17,0.84 -0.26,0.54 0.59,1.85 0.71,2 1,1.7 1.55,0.96 2.48,0.33 0.5,-0.32 1.15,-1.28 1.72,-1.48 0.07,-0.28 0.19,-0.54 0.13,-0.83 -0.35,0.01 -0.67,0.04 -0.99,0.31 z"
   class="st5"
   id="path90"
   inkscape:connector-curvature="0"
   style="fill:#ff8c00;fill-opacity:0.8;stroke:none;stroke-width:10.72340012;stroke-linecap:butt" />
					</g>
					<g
   id="shape11037-36"
   transform="translate(9.2075,-18.9007)">
						<title
   id="title93">path34</title>
						<path
   d="m 0,119.04 c 0,0 0,0 0.01,0 0,-0.01 0,-0.01 -0.01,-0.01 z"
   class="st9"
   id="path95"
   inkscape:connector-curvature="0"
   style="fill:#e3a906;fill-opacity:0.8;stroke:none;stroke-width:10.72340012;stroke-linecap:butt" />
					</g>
					<g
   id="shape11038-38"
   transform="translate(9.06346,-16.0664)">
						<title
   id="title98">path36</title>
						<path
   d="m 3.13,117.01 c 0.21,0.11 0.41,0.23 0.41,0.5 -0.4,0.03 -0.74,0.05 -1.09,0.34 -0.56,0.47 -1.31,1.17 -2.11,1.19 0.03,-0.25 -0.34,-0.62 -0.24,-1.05 0.13,-0.56 0.15,-1.23 0.18,-1.79 0.36,-0.14 0.69,-0.01 1.03,0.09 0.15,0.08 0.29,0.17 0.43,0.25 0.25,0.09 0.49,0.18 0.74,0.28 0.2,0.13 0.43,0.14 0.65,0.19 z"
   class="st10"
   id="path100"
   inkscape:connector-curvature="0"
   style="fill:#fcd116;fill-opacity:0.8;stroke:none;stroke-width:10.72340012;stroke-linecap:butt" />
					</g>
				</g>
				<g
   id="shape11039-40"
   transform="translate(25.7972,-39.4966)">
					<title
   id="title104">rect39</title>
					<rect
   x="0"
   y="118.072"
   width="0.99336499"
   height="0.96767998"
   class="st11"
   id="rect106"
   style="fill:#ffffff;fill-opacity:0.9;stroke:none;stroke-width:10.72340012;stroke-linecap:butt" />
				</g>
				<g
   id="shape11040-42"
   transform="translate(28.7773,-39.4966)">
					<title
   id="title109">rect41</title>
					<rect
   x="0"
   y="118.072"
   width="0.99336499"
   height="0.96767998"
   class="st11"
   id="rect111"
   style="fill:#ffffff;fill-opacity:0.9;stroke:none;stroke-width:10.72340012;stroke-linecap:butt" />
				</g>
			</g>
		</g>
	</g>
</svg>