<?xml version="1.0" encoding="UTF-8" standalone="no"?>
<!DOCTYPE svg PUBLIC "-//W3C//DTD SVG 1.1//EN" "http://www.w3.org/Graphics/SVG/1.1/DTD/svg11.dtd">
<!-- Generated by Microsoft Visio, SVG Export VM Image Definition.svg Page-1 -->
<svg xmlns="http://www.w3.org/2000/svg" xmlns:xlink="http://www.w3.org/1999/xlink" xmlns:ev="http://www.w3.org/2001/xml-events"
		width="1.73185in" height="1.69269in" viewBox="0 0 124.693 121.874" xml:space="preserve" color-interpolation-filters="sRGB"
		class="st7">
	<style type="text/css">
	<![CDATA[
		.st1 {fill:url(#grad0-6);stroke:none;stroke-linecap:butt;stroke-width:34}
		.st2 {fill:url(#grad0-10);stroke:none;stroke-linecap:butt;stroke-width:34}
		.st3 {fill:url(#grad0-14);stroke:none;stroke-linecap:butt;stroke-width:34}
		.st4 {fill:#50e6ff;stroke:none;stroke-linecap:butt;stroke-width:34}
		.st5 {fill:#c3f1ff;stroke:none;stroke-linecap:butt;stroke-width:34}
		.st6 {fill:#9cebff;stroke:none;stroke-linecap:butt;stroke-width:34}
		.st7 {fill:none;fill-rule:evenodd;font-size:12px;overflow:visible;stroke-linecap:square;stroke-miterlimit:3}
	]]>
	</style>

	<defs id="Patterns_And_Gradients">
		<linearGradient id="grad0-6" x1="0" y1="0" x2="1" y2="0" gradientTransform="rotate(90 0.5 0.5)">
			<stop offset="0" stop-color="#999999" stop-opacity="1"/>
			<stop offset="1" stop-color="#767676" stop-opacity="1"/>
		</linearGradient>
		<linearGradient id="grad0-10" x1="0" y1="0" x2="1" y2="0" gradientTransform="rotate(90 0.5 0.5)">
			<stop offset="0" stop-color="#b3b3b3" stop-opacity="1"/>
			<stop offset="1" stop-color="#999999" stop-opacity="1"/>
		</linearGradient>
		<linearGradient id="grad0-14" x1="0" y1="0" x2="1" y2="0" gradientTransform="rotate(90 0.5 0.5)">
			<stop offset="0" stop-color="#0078d4" stop-opacity="1"/>
			<stop offset="1" stop-color="#005ba1" stop-opacity="1"/>
		</linearGradient>
	</defs>
	<g>
		<title>Page-1</title>
		<g id="group10399-1" transform="translate(34,-34.0157)">
			<title>VM Image Definition.10399</title>
			<g id="group10400-2">
				<title>Sheet.10400</title>
				<g id="shape10401-3" transform="translate(9.85512,-3.14027)">
					<title>Sheet.10401</title>
					<path d="M46.84 98.05 A23.5118 23.8961 0 0 1 45.52 105.95 A24.8693 25.2758 0 0 1 44.92 107.5 A22.3811 22.7469
								 0 0 1 43.73 109.92 A23.4614 23.8449 0 0 1 29.1 121.19 L29.05 121.19 L28.86 121.24 L28.76 121.26
								 A22.9102 23.2847 0 0 1 25.92 121.75 A20.3276 20.6598 0 0 1 24.53 121.85 L24.27 121.85 C23.99 121.85
								 23.71 121.87 23.43 121.87 A23.4331 23.8161 0 0 1 1.15 105.45 A22.9543 23.3295 0 0 1 0.37 102.24
								 A23.4173 23.8001 0 0 1 0 98.03 A23.6882 24.0754 0 0 1 0.33 93.98 A23.4394 23.8225 0 0 1 23.42 74.19
								 C23.78 74.19 24.15 74.19 24.51 74.21 A23.4425 23.8257 0 0 1 46.84 98.05 Z" class="st1"/>
				</g>
				<g id="shape10402-7" transform="translate(22.2331,-15.7269)">
					<title>Sheet.10402</title>
					<ellipse cx="11.0394" cy="110.635" rx="11.0394" ry="11.239" class="st2"/>
				</g>
				<g id="shape10403-11">
					<title>Sheet.10403</title>
					<path d="M0 120.19 A1.65673 1.68381 -180 0 0 1.66 121.87 L32.71 121.87 A1.65673 1.68381 -180 0 0 34.37 120.19
								 L34.37 69.7 A1.65673 1.68381 -180 0 0 32.71 68.02 L1.66 68.02 A1.65673 1.68381 -180 0 0 -0 69.7
								 L0 120.19 Z" class="st3"/>
				</g>
				<g id="shape10404-15" transform="translate(17.1969,-15.8966)">
					<title>Sheet.10404</title>
					<path d="M9.25 105.28 L9.32 116.29 L0.07 121.87 L0 110.84 L9.25 105.28 Z" class="st4"/>
				</g>
				<g id="shape10405-17" transform="translate(7.85827,-26.9083)">
					<title>Sheet.10405</title>
					<path d="M18.59 116.29 L9.34 121.87 L0 116.4 L9.28 110.81 L18.59 116.29 Z" class="st5"/>
				</g>
				<g id="shape10406-19" transform="translate(7.85827,-15.8966)">
					<title>Sheet.10406</title>
					<path d="M9.34 110.86 L9.4 121.87 L0.07 116.4 L0 105.39 L9.34 110.86 Z" class="st6"/>
				</g>
				<g id="shape10407-21" transform="translate(7.92441,-15.8966)">
					<title>Sheet.10407</title>
					<path d="M0 116.4 L9.27 110.84 L9.34 121.87 L0 116.4 Z" class="st5"/>
				</g>
				<g id="shape10408-23" transform="translate(17.1969,-15.8966)">
					<title>Sheet.10408</title>
					<path d="M9.32 116.29 L0 110.84 L0.07 121.87 L9.32 116.29 Z" class="st6"/>
				</g>
			</g>
		</g>
	</g>
</svg>
