<?xml version="1.0" encoding="UTF-8" standalone="no"?>
<!-- Generated by Microsoft Visio, SVG Export VM Image Version.svg Page-1 -->

<svg
   xmlns:dc="http://purl.org/dc/elements/1.1/"
   xmlns:cc="http://creativecommons.org/ns#"
   xmlns:rdf="http://www.w3.org/1999/02/22-rdf-syntax-ns#"
   xmlns:svg="http://www.w3.org/2000/svg"
   xmlns="http://www.w3.org/2000/svg"
   xmlns:sodipodi="http://sodipodi.sourceforge.net/DTD/sodipodi-0.dtd"
   xmlns:inkscape="http://www.inkscape.org/namespaces/inkscape"
   width="56.690208"
   height="56.694252"
   viewBox="0 0 56.690208 56.694252"
   xml:space="preserve"
   class="st9"
   version="1.1"
   id="svg85"
   sodipodi:docname="VM Image Version.svg"
   style="font-size:12px;overflow:visible;color-interpolation-filters:sRGB;fill:none;fill-rule:evenodd;stroke-linecap:square;stroke-miterlimit:3"
   inkscape:version="0.92.5 (2060ec1f9f, 2020-04-08)"><metadata
   id="metadata89"><rdf:RDF><cc:Work
       rdf:about=""><dc:format>image/svg+xml</dc:format><dc:type
         rdf:resource="http://purl.org/dc/dcmitype/StillImage" /></cc:Work></rdf:RDF></metadata><sodipodi:namedview
   pagecolor="#ffffff"
   bordercolor="#666666"
   borderopacity="1"
   objecttolerance="10"
   gridtolerance="10"
   guidetolerance="10"
   inkscape:pageopacity="0"
   inkscape:pageshadow="2"
   inkscape:window-width="640"
   inkscape:window-height="480"
   id="namedview87"
   showgrid="false"
   inkscape:zoom="1.8924055"
   inkscape:cx="28.346509"
   inkscape:cy="28.339801"
   inkscape:window-x="0"
   inkscape:window-y="0"
   inkscape:window-maximized="0"
   inkscape:current-layer="svg85" />
	<style
   type="text/css"
   id="style2">
	<![CDATA[
		.st1 {fill:url(#grad0-6);stroke:none;stroke-linecap:butt;stroke-width:34}
		.st2 {fill:#ffffff;stroke:none;stroke-linecap:butt;stroke-width:34}
		.st3 {fill:url(#grad0-12);stroke:none;stroke-linecap:butt;stroke-width:34}
		.st4 {fill:url(#grad0-16);stroke:none;stroke-linecap:butt;stroke-width:34}
		.st5 {fill:url(#grad0-20);stroke:none;stroke-linecap:butt;stroke-width:34}
		.st6 {fill:#50e6ff;stroke:none;stroke-linecap:butt;stroke-width:34}
		.st7 {fill:#c3f1ff;stroke:none;stroke-linecap:butt;stroke-width:34}
		.st8 {fill:#9cebff;stroke:none;stroke-linecap:butt;stroke-width:34}
		.st9 {fill:none;fill-rule:evenodd;font-size:12px;overflow:visible;stroke-linecap:square;stroke-miterlimit:3}
	]]>
	</style>

	<defs
   id="Patterns_And_Gradients">
		<linearGradient
   id="grad0-6"
   x1="-4.0115227e-07"
   y1="97.56"
   x2="27.15"
   y2="97.56"
   gradientUnits="userSpaceOnUse">
			<stop
   offset="0.13"
   stop-color="#b796f9"
   stop-opacity="1"
   id="stop4" />
			<stop
   offset="1"
   stop-color="#773adc"
   stop-opacity="1"
   id="stop6" />
		</linearGradient>
		<linearGradient
   id="grad0-12"
   x1="-0.00010040485"
   y1="80.772577"
   x2="44.064949"
   y2="80.772577"
   gradientTransform="scale(1.0010234,0.99897766)"
   gradientUnits="userSpaceOnUse">
			<stop
   offset="0"
   stop-color="#999999"
   stop-opacity="1"
   id="stop9" />
			<stop
   offset="1"
   stop-color="#767676"
   stop-opacity="1"
   id="stop11" />
		</linearGradient>
		<linearGradient
   id="grad0-16"
   x1="0.003416135"
   y1="103.93648"
   x2="20.796763"
   y2="103.93648"
   gradientTransform="scale(1.000159,0.99984107)"
   gradientUnits="userSpaceOnUse">
			<stop
   offset="0"
   stop-color="#b3b3b3"
   stop-opacity="1"
   id="stop14" />
			<stop
   offset="1"
   stop-color="#999999"
   stop-opacity="1"
   id="stop16" />
		</linearGradient>
		<linearGradient
   id="grad0-20"
   x1="-1.0690679e-05"
   y1="60.237297"
   x2="40.195628"
   y2="60.237297"
   gradientTransform="scale(0.80531146,1.2417556)"
   gradientUnits="userSpaceOnUse">
			<stop
   offset="0"
   stop-color="#0078d4"
   stop-opacity="1"
   id="stop19" />
			<stop
   offset="1"
   stop-color="#005ba1"
   stop-opacity="1"
   id="stop21" />
		</linearGradient>
	</defs>
	<g
   id="g83"
   transform="translate(-33.999991,-34.00005)">
		<title
   id="title25">Page-1</title>
		<g
   id="group11464-1"
   transform="translate(34,-34.0157)">
			<title
   id="title27">VM Image Version.11464</title>
			<g
   id="group11465-2">
				<title
   id="title29">Sheet.11465</title>
				<g
   id="shape11466-3"
   transform="translate(29.5402)">
					<title
   id="title31">Sheet.11466</title>
					<path
   d="M 0,111.13 A 13.5767,13.5767 -180 0 0 13.58,124.71 13.5767,13.5767 -180 0 0 27.15,111.13 13.5767,13.5767 -180 0 0 13.58,97.56 13.5767,13.5767 -180 0 0 0,111.13 Z"
   class="st1"
   id="path33"
   inkscape:connector-curvature="0"
   style="fill:url(#grad0-6);stroke:none;stroke-width:34;stroke-linecap:butt" />
				</g>
				<g
   id="shape11467-7"
   transform="translate(36.1606,-5.64094)">
					<title
   id="title36">Sheet.11467</title>
					<path
   d="M 13.92,124.71 H 0 l 0.03,-0.08 2.84,-6.47 c 1.34,-3.06 2.68,-6.13 4.02,-9.19 a 0.179528,0.179528 0 0 1 0.198425,-0.12913 C 7.35,108.84 7.35,108.84 7.44,109.07 l 4.65,11.22 1.79,4.34 z m -2.74,-0.98 -4.63,-11.38 -5.01,11.39 z"
   class="st2"
   id="path38"
   inkscape:connector-curvature="0"
   style="fill:#ffffff;stroke:none;stroke-width:34;stroke-linecap:butt" />
				</g>
				<g
   id="shape11468-9"
   transform="translate(9.28504,-9.83622)">
					<title
   id="title41">Sheet.11468</title>
					<path
   d="m 44.11,102.77 a 22.2331,22.2331 0 0 1 -0.63,5.3 0.885039,0.885039 0 0 1 -1.34488,0.52598 A 14.9071,14.9071 -180 0 0 18.93,120.95 15.0488,15.0488 -180 0 0 19.4,124.71 22.085,22.085 0 0 1 1.09,109.63 22.0756,22.0756 0 0 1 0,102.77 a 21.915,21.915 0 0 1 0.31,-3.74 21.6126,21.6126 0 0 1 0.73,-3 22.0724,22.0724 0 0 1 21.01,-15.34 c 0.35,0 0.7,0 1.04,0.02 a 22.0819,22.0819 0 0 1 21.02,22.06 z"
   class="st3"
   id="path43"
   inkscape:connector-curvature="0"
   style="fill:url(#grad0-12);stroke:none;stroke-width:34;stroke-linecap:butt" />
				</g>
				<g
   id="shape11469-13"
   transform="translate(20.9355,-21.3953)">
					<title
   id="title46">Sheet.11469</title>
					<path
   d="m 20.8,114.33 a 10.211,10.211 0 0 1 -0.58,3.43 14.9512,14.9512 -180 0 0 -10.73,6.95 10.3937,10.3937 0 0 1 -7.41,-4.12 10.2299,10.2299 0 0 1 -1.63,-3.23 10.4346,10.4346 0 0 1 0,-6.04 10.3937,10.3937 0 0 1 9.95,-7.4 10.2331,10.2331 0 0 1 1.04,0.05 10.3937,10.3937 0 0 1 9.36,10.36 z"
   class="st4"
   id="path48"
   inkscape:connector-curvature="0"
   style="fill:url(#grad0-16);stroke:none;stroke-width:34;stroke-linecap:butt" />
				</g>
				<g
   id="shape11470-17"
   transform="translate(0,-6.78425)">
					<title
   id="title51">Sheet.11470</title>
					<path
   d="m 32.37,76.37 v 31.22 a 14.9071,14.9071 -180 0 0 -4.17,10.31 15.0488,15.0488 -180 0 0 0.48,3.76 15.3197,15.3197 -180 0 0 0.63,1.85 0.88189,0.88189 0 0 1 -0.825197,1.20315 L 1.57,124.71 A 1.5748,1.5748 0 0 1 0,123.13 V 76.37 A 1.5748,1.5748 0 0 1 1.57,74.8 h 29.24 a 1.5748,1.5748 0 0 1 1.56,1.57 z"
   class="st5"
   id="path53"
   inkscape:connector-curvature="0"
   style="fill:url(#grad0-20);stroke:none;stroke-width:34;stroke-linecap:butt" />
				</g>
				<g
   id="shape11471-21"
   transform="translate(16.1984,-21.5118)">
					<title
   id="title56">Sheet.11471</title>
					<path
   d="m 8.71,109.33 0.06,10.2 -8.71,5.18 L 0,114.48 Z"
   class="st6"
   id="path58"
   inkscape:connector-curvature="0"
   style="fill:#50e6ff;stroke:none;stroke-width:34;stroke-linecap:butt" />
				</g>
				<g
   id="shape11472-23"
   transform="translate(7.40157,-31.7165)">
					<title
   id="title61">Sheet.11472</title>
					<path
   d="M 17.51,119.53 8.8,124.71 0,119.64 8.73,114.46 Z"
   class="st7"
   id="path63"
   inkscape:connector-curvature="0"
   style="fill:#c3f1ff;stroke:none;stroke-width:34;stroke-linecap:butt" />
				</g>
				<g
   id="shape11473-25"
   transform="translate(7.40157,-21.5118)">
					<title
   id="title66">Sheet.11473</title>
					<path
   d="M 8.8,114.5 8.86,124.71 0.06,119.64 0,109.43 Z"
   class="st8"
   id="path68"
   inkscape:connector-curvature="0"
   style="fill:#9cebff;stroke:none;stroke-width:34;stroke-linecap:butt" />
				</g>
				<g
   id="shape11474-27"
   transform="translate(7.46457,-21.5118)">
					<title
   id="title71">Sheet.11474</title>
					<path
   d="m 0,119.64 8.73,-5.16 0.07,10.23 z"
   class="st7"
   id="path73"
   inkscape:connector-curvature="0"
   style="fill:#c3f1ff;stroke:none;stroke-width:34;stroke-linecap:butt" />
				</g>
				<g
   id="shape11475-29"
   transform="translate(16.1984,-21.5118)">
					<title
   id="title76">Sheet.11475</title>
					<path
   d="M 8.77,119.53 0,114.48 0.06,124.71 Z"
   class="st8"
   id="path78"
   inkscape:connector-curvature="0"
   style="fill:#9cebff;stroke:none;stroke-width:34;stroke-linecap:butt" />
				</g>
			</g>
		</g>
	</g>
</svg>