<?xml version="1.0" encoding="UTF-8" standalone="no"?>
<!-- Generated by Microsoft Visio, SVG Export Windows 365.svg Page-1 -->

<svg
   xmlns:dc="http://purl.org/dc/elements/1.1/"
   xmlns:cc="http://creativecommons.org/ns#"
   xmlns:rdf="http://www.w3.org/1999/02/22-rdf-syntax-ns#"
   xmlns:svg="http://www.w3.org/2000/svg"
   xmlns="http://www.w3.org/2000/svg"
   xmlns:sodipodi="http://sodipodi.sourceforge.net/DTD/sodipodi-0.dtd"
   xmlns:inkscape="http://www.inkscape.org/namespaces/inkscape"
   width="0.78736097in"
   height="0.47236103in"
   viewBox="0 0 56.689988 34.010008"
   xml:space="preserve"
   class="st2"
   version="1.1"
   id="svg19"
   sodipodi:docname="Windows 365.svg"
   style="font-size:12px;overflow:visible;color-interpolation-filters:sRGB;fill:none;fill-rule:evenodd;stroke-linecap:square;stroke-miterlimit:3"
   inkscape:version="0.92.5 (2060ec1f9f, 2020-04-08)"><metadata
   id="metadata25"><rdf:RDF><cc:Work
       rdf:about=""><dc:format>image/svg+xml</dc:format><dc:type
         rdf:resource="http://purl.org/dc/dcmitype/StillImage" /></cc:Work></rdf:RDF></metadata><defs
   id="defs23" /><sodipodi:namedview
   pagecolor="#ffffff"
   bordercolor="#666666"
   borderopacity="1"
   objecttolerance="10"
   gridtolerance="10"
   guidetolerance="10"
   inkscape:pageopacity="0"
   inkscape:pageshadow="2"
   inkscape:window-width="640"
   inkscape:window-height="480"
   id="namedview21"
   showgrid="false"
   inkscape:zoom="2.4778439"
   inkscape:cx="37.795283"
   inkscape:cy="2.2636772"
   inkscape:window-x="0"
   inkscape:window-y="0"
   inkscape:window-maximized="0"
   inkscape:current-layer="svg19" />
	<style
   type="text/css"
   id="style2">
	<![CDATA[
		.st1 {fill:#000000;stroke:none;stroke-linecap:butt;stroke-width:0.298828}
		.st2 {fill:none;fill-rule:evenodd;font-size:12px;overflow:visible;stroke-linecap:square;stroke-miterlimit:3}
	]]>
	</style>

	<g
   id="g17"
   transform="translate(-5.66929,-3.4043)">
		<title
   id="title4">Page-1</title>
		<g
   id="group12112-1"
   transform="translate(5.66929,-34.0157)">
			<title
   id="title6">Windows 365.12112</title>
			<g
   id="group12113-2">
				<title
   id="title8">Sheet.12113</title>
				<g
   id="shape12114-3">
					<title
   id="title10">Sheet.12114</title>
					<path
   d="m 45.98,51.02 c 1.48,0 2.86,0.27 4.15,0.8 1.29,0.53 2.43,1.25 3.41,2.15 0.98,0.91 1.74,1.99 2.29,3.25 0.56,1.25 0.84,2.59 0.86,4.01 0,1.42 -0.27,2.74 -0.83,3.96 -0.55,1.22 -1.31,2.3 -2.27,3.24 -0.96,0.94 -2.09,1.67 -3.4,2.21 -1.31,0.53 -2.69,0.79 -4.13,0.79 H 14.17 c -1.95,0 -3.79,-0.35 -5.51,-1.06 C 6.95,69.66 5.44,68.7 4.15,67.47 2.86,66.25 1.85,64.81 1.11,63.14 0.37,61.48 0,59.7 0,57.83 0,55.95 0.37,54.19 1.11,52.54 1.85,50.89 2.85,49.45 4.12,48.21 5.4,46.97 6.9,45.99 8.64,45.28 c 1.73,-0.71 3.58,-1.06 5.53,-1.06 0.85,0 1.71,0.08 2.58,0.24 0.74,-1.1 1.58,-2.08 2.54,-2.95 0.96,-0.87 2.03,-1.61 3.19,-2.23 1.16,-0.62 2.38,-1.08 3.65,-1.38 1.28,-0.31 2.6,-0.46 3.99,-0.48 2.05,0 3.98,0.34 5.78,1.03 1.81,0.69 3.43,1.64 4.85,2.85 1.42,1.2 2.57,2.65 3.46,4.33 0.88,1.68 1.47,3.48 1.77,5.39 z m 0.08,17.01 c 0.98,0 1.89,-0.18 2.74,-0.53 0.85,-0.35 1.61,-0.84 2.27,-1.46 0.67,-0.62 1.18,-1.34 1.53,-2.15 0.35,-0.82 0.53,-1.7 0.55,-2.66 0,-0.94 -0.18,-1.82 -0.55,-2.63 -0.37,-0.82 -0.88,-1.54 -1.53,-2.18 -0.64,-0.64 -1.39,-1.13 -2.24,-1.46 -0.85,-0.34 -1.77,-0.52 -2.77,-0.53 h -3.54 v -1.71 c 0,-1.64 -0.32,-3.18 -0.97,-4.62 -0.65,-1.43 -1.53,-2.7 -2.66,-3.8 -1.12,-1.1 -2.43,-1.95 -3.93,-2.55 -1.49,-0.6 -3.11,-0.91 -4.84,-0.93 -1.29,0 -2.54,0.18 -3.74,0.56 -1.2,0.37 -2.3,0.89 -3.29,1.56 -1,0.68 -1.89,1.48 -2.69,2.42 -0.79,0.94 -1.41,2.01 -1.85,3.19 -1.39,-0.62 -2.85,-0.93 -4.38,-0.93 -1.47,0 -2.85,0.27 -4.12,0.8 -1.27,0.53 -2.4,1.26 -3.38,2.18 -0.98,0.92 -1.74,2.01 -2.3,3.27 -0.55,1.25 -0.83,2.57 -0.83,3.96 0,1.41 0.28,2.73 0.83,3.96 0.56,1.22 1.31,2.3 2.27,3.24 0.96,0.94 2.09,1.67 3.38,2.2 1.29,0.54 2.68,0.8 4.15,0.8 z"
   class="st1"
   id="path12"
   inkscape:connector-curvature="0"
   style="fill:#000000;stroke:none;stroke-width:0.29882801;stroke-linecap:butt" />
				</g>
			</g>
		</g>
	</g>
</svg>