<?xml version="1.0" encoding="UTF-8" standalone="no"?>
<!DOCTYPE svg PUBLIC "-//W3C//DTD SVG 1.1//EN" "http://www.w3.org/Graphics/SVG/1.1/DTD/svg11.dtd">
<!-- Generated by Microsoft Visio, SVG Export Exchange Mailbox Server.svg Page-1 -->
<svg xmlns="http://www.w3.org/2000/svg" xmlns:xlink="http://www.w3.org/1999/xlink" xmlns:ev="http://www.w3.org/2001/xml-events"
		width="2.22026in" height="2.11776in" viewBox="0 0 159.859 152.479" xml:space="preserve" color-interpolation-filters="sRGB"
		class="st25">
	<style type="text/css">
	<![CDATA[
		.st1 {fill:url(#grad0-11);stroke:none;stroke-linecap:butt;stroke-width:35.9596}
		.st2 {fill:#003067;stroke:none;stroke-linecap:butt;stroke-width:35.9596}
		.st3 {fill:#50e6ff;stroke:none;stroke-linecap:butt;stroke-width:35.9596}
		.st4 {fill:#28a8ea;stroke:none;stroke-linecap:butt;stroke-width:16.1053}
		.st5 {fill:#0078d4;stroke:none;stroke-linecap:butt;stroke-width:16.1053}
		.st6 {fill:#50d9ff;stroke:none;stroke-linecap:butt;stroke-width:16.1053}
		.st7 {fill:#2086bb;stroke:none;stroke-linecap:butt;stroke-width:16.1053}
		.st8 {fill:#2497d2;stroke:none;stroke-linecap:butt;stroke-width:16.1053}
		.st9 {fill:#48c3e5;stroke:none;stroke-linecap:butt;stroke-width:16.1053}
		.st10 {fill:#1d78a8;stroke:none;stroke-linecap:butt;stroke-width:16.1053}
		.st11 {fill:#1d79a8;stroke:none;stroke-linecap:butt;stroke-width:16.1053}
		.st12 {fill:#176086;stroke:none;stroke-linecap:butt;stroke-width:16.1053}
		.st13 {fill:#2e7d92;stroke:none;stroke-linecap:butt;stroke-width:16.1053}
		.st14 {fill:#41afce;stroke:none;stroke-linecap:butt;stroke-width:16.1053}
		.st15 {fill:#838383;stroke:none;stroke-linecap:butt;stroke-width:16.1053}
		.st16 {fill:#155678;stroke:none;stroke-width:0.999998}
		.st17 {fill:none;stroke:none;stroke-linecap:butt;stroke-width:16.1053}
		.st18 {fill:#297083;stroke:none;stroke-linecap:butt;stroke-width:16.1053}
		.st19 {fill:#ffffff;stroke:none;stroke-linecap:butt;stroke-width:16.1053}
		.st20 {fill:url(#grad0-97);stroke:none;stroke-linecap:butt;stroke-width:63.4471}
		.st21 {fill:#000000;stroke:none;stroke-linecap:round;stroke-linejoin:round;stroke-width:0.749998}
		.st22 {fill:#50e6ff;stroke:none;stroke-linecap:butt;stroke-width:63.4471}
		.st23 {fill:#32bedd;stroke:none;stroke-linecap:butt;stroke-width:63.4471}
		.st24 {fill:#198ab3;stroke:none;stroke-linecap:butt;stroke-width:63.4471}
		.st25 {fill:none;fill-rule:evenodd;font-size:12px;overflow:visible;stroke-linecap:square;stroke-miterlimit:3}
	]]>
	</style>

	<defs id="Patterns_And_Gradients">
		<linearGradient id="grad0-11" x1="0" y1="0" x2="1" y2="0" gradientTransform="rotate(-90 0.5 0.5)">
			<stop offset="0" stop-color="#949494" stop-opacity="1"/>
			<stop offset="0.53" stop-color="#a2a2a2" stop-opacity="1"/>
			<stop offset="1" stop-color="#b3b3b3" stop-opacity="1"/>
		</linearGradient>
		<linearGradient id="grad0-97" x1="0" y1="0" x2="1" y2="0" gradientTransform="rotate(90 0.5 0.5)">
			<stop offset="0" stop-color="#005ba1" stop-opacity="1"/>
			<stop offset="0.26" stop-color="#00589d" stop-opacity="1"/>
			<stop offset="0.53" stop-color="#004f90" stop-opacity="1"/>
			<stop offset="0.8" stop-color="#003f7c" stop-opacity="1"/>
			<stop offset="1" stop-color="#003067" stop-opacity="1"/>
		</linearGradient>
	</defs>
	<g>
		<title>Page-1</title>
		<g id="group11295-1" transform="translate(48.2245,-61.6228)">
			<title>Exchange Mailbox Server.11295</title>
			<g id="group11296-2">
				<title>Page-1</title>
				<g id="group11297-3">
					<title>Sheet.11297</title>
					<g id="group11298-4">
						<title>Sheet.11298</title>
						<g id="group11299-5">
							<title>Icon-databases-136.149</title>
							<g id="group11300-6">
								<title>path4-5</title>
								<g id="group11301-7">
									<title>Sheet.11301</title>
									<g id="shape11302-8">
										<title>Sheet.11302</title>
										<path d="M31.85 150.61 A1.9042 1.88109 90 0 1 30.01 152.48 L1.85 152.48 A1.87136 1.84866
													 90 0 1 0 150.61 L0 99.45 A1.83852 1.81623 90 0 1 1.85 97.58 L30.01 97.58 A1.87136
													 1.84866 90 0 1 31.85 99.45 L31.85 150.61 Z" class="st1"/>
									</g>
								</g>
							</g>
							<g id="group11303-12" transform="translate(4.6703,-32.1413)">
								<title>path6-7</title>
								<g id="group11304-13">
									<title>Sheet.11304</title>
									<g id="shape11305-14">
										<title>Sheet.11305</title>
										<path d="M0 148.96 A3.5129 3.47029 90 0 1 3.44 145.48 L19.33 145.48 A3.5129 3.47029 90 0
													 1 22.89 148.96 A3.5129 3.47029 90 0 1 19.33 152.48 L3.44 152.48 A3.5129 3.47029
													 90 0 1 0 148.96 ZM0 138.59 A3.5129 3.47029 90 0 1 3.44 135.08 L19.33 135.08
													 A3.5129 3.47029 90 0 1 22.89 138.59 A3.5129 3.47029 90 0 1 19.33 142.07 L3.44
													 142.07 A3.5129 3.47029 90 0 1 0 138.59 Z" class="st2"/>
									</g>
								</g>
							</g>
							<g id="group11306-16" transform="translate(5.9676,-43.6672)">
								<title>circle8-5</title>
								<g id="group11307-17">
									<title>Sheet.11307</title>
									<g id="shape11308-18">
										<title>Sheet.11308</title>
										<ellipse cx="2.33514" cy="150.115" rx="2.33514" ry="2.36382" class="st3"/>
									</g>
								</g>
							</g>
							<g id="group11309-20" transform="translate(5.9676,-33.2928)">
								<title>circle10-2</title>
								<g id="group11310-21">
									<title>Sheet.11310</title>
									<g id="shape11311-22">
										<title>Sheet.11311</title>
										<ellipse cx="2.33514" cy="150.115" rx="2.33514" ry="2.36382" class="st3"/>
									</g>
								</g>
							</g>
						</g>
					</g>
					<g id="group11312-24" transform="translate(23.2009,-34.5989)">
						<title>Sheet.11312</title>
						<g id="group11313-25" transform="translate(3.18105,0)">
							<title>Sheet.11313</title>
							<g id="group11314-26">
								<title>Sheet.11314</title>
								<g id="shape11315-27">
									<title>Sheet.11315</title>
									<path d="M20.21 130.38 L14.68 130.38 C14.25 130.38 13.84 130.56 13.55 130.86 L0.46 144.11 C0.17
												 144.41 0 144.82 0 145.26 L0 150.86 C0 151.76 0.71 152.48 1.59 152.48 L7.13 152.48
												 C7.55 152.48 7.96 152.31 8.26 152.01 L21.35 138.74 C21.64 138.44 21.81 138.04 21.81
												 137.62 L21.81 131.99 C21.81 131.1 21.1 130.38 20.21 130.38 Z" class="st4"/>
								</g>
							</g>
						</g>
						<g id="group11316-29" transform="translate(14.079,-2.27374E-13)">
							<title>Sheet.11316</title>
							<g id="group11317-30">
								<title>Sheet.11317</title>
								<g id="shape11318-31">
									<title>Sheet.11318</title>
									<path d="M9.32 152.48 L3.77 152.48 C3.34 152.48 2.95 152.31 2.64 152.01 L0 149.32 L0 144.3 C0
												 142.72 1.27 141.43 2.84 141.43 L7.78 141.43 L10.45 144.11 C10.74 144.41 10.91 144.82
												 10.91 145.26 L10.91 150.86 C10.91 151.76 10.19 152.48 9.32 152.48 Z" class="st5"/>
								</g>
							</g>
						</g>
						<g id="group11319-33" transform="translate(3.18105,-11.0429)">
							<title>Sheet.11319</title>
							<g id="group11320-34">
								<title>Sheet.11320</title>
								<g id="shape11321-35">
									<title>Sheet.11321</title>
									<path d="M1.59 141.43 L7.13 141.43 C7.55 141.43 7.96 141.6 8.26 141.9 L10.91 144.59 L10.91 149.6
												 C10.91 151.19 9.64 152.48 8.06 152.48 L3.12 152.48 L0.46 149.8 C0.17 149.5 0 149.09
												 0 148.65 L0 143.03 C0 142.14 0.71 141.43 1.59 141.43 Z" class="st6"/>
								</g>
							</g>
						</g>
						<g id="group11322-37" transform="translate(3.18105,-3.22337)">
							<title>Sheet.11322</title>
							<g id="group11323-38">
								<title>Sheet.11323</title>
								<g id="shape11324-39">
									<title>Sheet.11324</title>
									<path d="M0 148.48 L0 152.48 L8.94 152.48 C8.94 152.48 8.94 152.48 8.94 152.48 C9.46 152.48 9.89
												 152.1 9.98 151.6 C9.71 151.86 9.33 152.01 8.94 152.02 L0 152.02 L0 148.48 Z"
											class="st7"/>
								</g>
							</g>
						</g>
						<g id="group11325-41" transform="translate(13.1559,-4.11837)">
							<title>Sheet.11325</title>
							<g id="group11326-42">
								<title>Sheet.11326</title>
								<g id="shape11327-43">
									<title>Sheet.11327</title>
									<path d="M0.47 144.24 C0.35 144.44 0.19 144.62 0.03 144.78 L0.03 151.38 C0.03 151.38 0.03 151.38
												 0.03 151.38 L0.03 152.29 C0.03 152.36 0.01 152.42 0 152.48 C0 152.48 0 152.48 0
												 152.48 C0.29 152.2 0.47 151.81 0.47 151.38 L0.47 144.24 Z" class="st8"/>
								</g>
							</g>
						</g>
						<g id="group11328-45" transform="translate(3.18105,-11.81)">
							<title>Sheet.11328</title>
							<g id="group11329-46">
								<title>Sheet.11329</title>
								<g id="shape11330-47">
									<title>Sheet.11330</title>
									<path d="M8.94 146.34 L0 146.34 L0 146.8 L8.49 146.8 C8.49 146.8 8.49 146.8 8.49 146.8 C8.49
												 146.8 8.49 146.8 8.49 146.8 L8.94 146.8 C8.94 146.8 8.94 146.8 8.94 146.8 C9.51
												 146.8 9.99 147.27 9.99 147.86 L9.99 147.87 L9.99 152.48 C10.16 152.32 10.31 152.14
												 10.45 151.94 L10.45 147.87 C10.45 147.02 9.76 146.34 8.94 146.34 Z" class="st9"/>
								</g>
							</g>
						</g>
						<g id="group11331-49" transform="translate(3.18105,-3.68769)">
							<title>Sheet.11331</title>
							<g id="group11332-50">
								<title>Sheet.11332</title>
								<g id="shape11333-51">
									<title>Sheet.11333</title>
									<path d="M0 148.94 L0 152.48 L8.94 152.48 C9.33 152.48 9.71 152.31 9.98 152.04 C9.98 152.04 9.98
												 152.04 9.98 152.04 C9.99 151.98 10 151.94 10 151.87 L10 150.95 C10 151.53 9.52 152.01
												 8.94 152.02 L0 152.02 L0 148.94 Z" class="st10"/>
								</g>
							</g>
						</g>
						<g id="group11334-53" transform="translate(13.1758,-5.21525)">
							<title>Sheet.11334</title>
							<g id="group11335-54">
								<title>Sheet.11335</title>
								<g id="shape11336-55">
									<title>Sheet.11336</title>
									<path d="M0 145.88 L0 152.48 L0 145.88 Z" class="st11"/>
								</g>
							</g>
						</g>
						<g id="group11337-57" transform="translate(3.18105,-4.14528)">
							<title>Sheet.11337</title>
							<g id="group11338-58">
								<title>Sheet.11338</title>
								<g id="shape11339-59">
									<title>Sheet.11339</title>
									<path d="M10 144.8 C9.85 144.93 9.71 145.05 9.53 145.16 L9.53 151.4 C9.53 151.99 9.06 152.48
												 8.49 152.48 L0 152.48 L0 149.39 L0 152.48 L8.94 152.48 C9.52 152.48 10 151.99 10
												 151.4 L10 144.8 Z" class="st12"/>
								</g>
							</g>
						</g>
						<g id="group11340-61" transform="translate(11.6617,-11.4668)">
							<title>Sheet.11340</title>
							<g id="group11341-62">
								<title>Sheet.11341</title>
								<g id="shape11342-63">
									<title>Sheet.11342</title>
									<path d="M0.45 146.46 C0.45 146.46 0.45 146.46 0.45 146.46 L0 146.46 C0.58 146.46 1.05 146.93
												 1.05 147.52 L1.05 152.48 C1.22 152.37 1.36 152.27 1.51 152.14 L1.51 147.52 C1.51
												 146.93 1.04 146.46 0.45 146.46 Z" class="st13"/>
								</g>
							</g>
						</g>
						<g id="group11343-65" transform="translate(3.18105,-17.4964)">
							<title>Sheet.11343</title>
							<g id="group11344-66">
								<title>Sheet.11344</title>
								<g id="shape11345-67">
									<title>Sheet.11345</title>
									<path d="M8.49 152.48 L0 152.48 L8.49 152.48 Z" class="st14"/>
								</g>
							</g>
						</g>
						<g id="group11346-69" transform="translate(3.18105,-7.22733)">
							<title>Sheet.11346</title>
							<g id="group11347-70">
								<title>Sheet.11347</title>
								<g id="shape11348-71">
									<title>Sheet.11348</title>
									<path d="M0 144.83 L0 152.48 C0 152.06 0.17 151.65 0.46 151.35 L3.12 148.65 L0.46 145.97 C0.17
												 145.67 0 145.26 0 144.83 Z" class="st15"/>
								</g>
							</g>
						</g>
						<g id="group11349-73" transform="translate(3.18105,-4.14528)">
							<title>Sheet.11349</title>
							<g id="group11350-74">
								<title>Sheet.11350</title>
								<g id="shape11351-75">
									<title>Sheet.11351</title>
									<path d="M9.53 145.16 C9.1 145.42 8.61 145.58 8.06 145.58 L3.12 145.58 L0.46 148.27 C0.17 148.57
												 0 148.96 0 149.39 L0 152.48 L8.49 152.48 C9.06 152.48 9.53 151.99 9.53 151.4 L9.53
												 145.16 Z" class="st16"/>
								</g>
							</g>
							<g id="group11352-77">
								<title>Sheet.11352</title>
								<g id="shape11353-78">
									<title>Sheet.11353</title>
									<path d="M9.53 145.16 C9.1 145.42 8.61 145.58 8.06 145.58 L3.12 145.58 L0.46 148.27 C0.17 148.57
												 0 148.96 0 149.39 L0 152.48 L8.49 152.48 C9.06 152.48 9.53 151.99 9.53 151.4 L9.53
												 145.16 Z" class="st17"/>
								</g>
							</g>
						</g>
						<g id="group11354-80" transform="translate(3.18105,-11.0496)">
							<title>Sheet.11354</title>
							<g id="group11355-81">
								<title>Sheet.11355</title>
								<g id="shape11356-82">
									<title>Sheet.11356</title>
									<path d="M8.49 146.04 L0 146.04 L0 148.65 C0 149.08 0.17 149.5 0.46 149.8 L3.12 152.48 L8.06
												 152.48 C8.61 152.48 9.11 152.32 9.53 152.06 L9.53 147.11 C9.53 146.51 9.06 146.04
												 8.49 146.04 Z" class="st18"/>
								</g>
							</g>
						</g>
						<g id="group11357-84" transform="translate(0,-4.60288)">
							<title>Sheet.11357</title>
							<g id="group11358-85">
								<title>Sheet.11358</title>
								<g id="shape11359-86">
									<title>Sheet.11359</title>
									<path d="M1.07 139.58 L11.67 139.58 C12.24 139.58 12.73 140.07 12.73 140.67 L12.73 151.4 C12.73
												 151.99 12.25 152.48 11.67 152.48 L1.07 152.48 C0.48 152.48 0 151.99 0 151.4 L0 140.67
												 C0 140.07 0.48 139.58 1.07 139.58 Z" class="st5"/>
								</g>
							</g>
						</g>
						<g id="group11360-88" transform="translate(4.11745,-7.55708)">
							<title>Sheet.11360</title>
							<g id="group11361-89">
								<title>Sheet.11361</title>
								<g id="shape11362-90">
									<title>Sheet.11362</title>
									<path d="M4.32 146.63 L1.36 146.63 L1.36 148.4 L4.14 148.4 L4.14 149.52 L1.36 149.52 L1.36 151.36
												 L4.49 151.36 L4.49 152.48 L0 152.48 L0 145.5 L4.32 145.5 L4.32 146.63 Z"
											class="st19"/>
								</g>
							</g>
						</g>
					</g>
					<g id="group11363-92" transform="translate(15.2226,-1.82435)">
						<title>Sheet.11363</title>
						<g id="group11364-93" transform="translate(30.7237,-13.8392)">
							<title>Sheet.11364</title>
							<g id="shape11365-94" transform="translate(0,302.678) scale(1,-1)">
								<title>Sheet.11365</title>
								<rect x="0" y="150.2" width="2.24072" height="2.27898" class="st20"/>
							</g>
						</g>
						<g id="group11366-98" transform="translate(7.77962,-6.26291)">
							<title>Sheet.11366</title>
							<g id="group11367-99">
								<title>Sheet.11367</title>
								<g id="shape11368-100">
									<title>Sheet.11368</title>
									<rect x="0" y="134.609" width="24.5151" height="17.8693" class="st21"/>
								</g>
							</g>
							<g id="group11369-102" transform="translate(0.364259,-0.332962)">
								<title>Icon-integration-214</title>
								<g id="group11370-103">
									<title>path4</title>
									<g id="group11371-104">
										<title>Sheet.11371</title>
										<g id="shape11372-105">
											<title>Sheet.11372</title>
											<path d="M23.79 135.34 L23.76 135.34 L23.76 135.28 L23.71 135.28 L11.38 135.35 L0.05
														 135.28 L0 135.28 L0 152.48 L23.76 152.48 L23.76 135.34 L23.79 135.34 Z"
													class="st22"/>
										</g>
									</g>
								</g>
								<g id="group11373-107">
									<title>path6</title>
									<g id="group11374-108">
										<title>Sheet.11374</title>
										<g id="shape11375-109">
											<title>Sheet.11375</title>
											<path d="M0 135.34 L0 152.48 L11.9 143.91 L0 135.34 Z" class="st23"/>
										</g>
									</g>
								</g>
								<g id="group11376-111" transform="translate(11.8936,0)">
									<title>path8</title>
									<g id="group11377-112">
										<title>Sheet.11377</title>
										<g id="shape11378-113">
											<title>Sheet.11378</title>
											<path d="M11.86 135.34 L0 143.91 L11.86 152.48 L11.86 135.34 Z" class="st24"/>
										</g>
									</g>
								</g>
								<g id="group11379-115" transform="translate(0,-1.583E-06)">
									<title>path10</title>
									<g id="group11380-116">
										<title>Sheet.11380</title>
										<g id="shape11381-117">
											<title>Sheet.11381</title>
											<path d="M11.86 143.91 L0 152.45 L0 152.48 L23.76 152.48 L23.76 152.45 L11.86 143.91 Z"
													class="st20"/>
										</g>
									</g>
								</g>
							</g>
						</g>
						<g id="group11382-120" transform="translate(5.42126,-4.85211)">
							<title>Sheet.11382</title>
							<g id="group11383-121">
								<title>Sheet.11383</title>
								<g id="shape11384-122">
									<title>Sheet.11384</title>
									<rect x="0" y="134.609" width="24.5151" height="17.8693" class="st21"/>
								</g>
							</g>
							<g id="group11385-124" transform="translate(0.364259,-0.332962)">
								<title>Icon-integration-214</title>
								<g id="group11386-125">
									<title>path4</title>
									<g id="group11387-126">
										<title>Sheet.11387</title>
										<g id="shape11388-127">
											<title>Sheet.11388</title>
											<path d="M23.79 135.34 L23.76 135.34 L23.76 135.28 L23.71 135.28 L11.38 135.35 L0.05
														 135.28 L0 135.28 L0 152.48 L23.76 152.48 L23.76 135.34 L23.79 135.34 Z"
													class="st22"/>
										</g>
									</g>
								</g>
								<g id="group11389-129">
									<title>path6</title>
									<g id="group11390-130">
										<title>Sheet.11390</title>
										<g id="shape11391-131">
											<title>Sheet.11391</title>
											<path d="M0 135.34 L0 152.48 L11.9 143.91 L0 135.34 Z" class="st23"/>
										</g>
									</g>
								</g>
								<g id="group11392-133" transform="translate(11.8936,0)">
									<title>path8</title>
									<g id="group11393-134">
										<title>Sheet.11393</title>
										<g id="shape11394-135">
											<title>Sheet.11394</title>
											<path d="M11.86 135.34 L0 143.91 L11.86 152.48 L11.86 135.34 Z" class="st24"/>
										</g>
									</g>
								</g>
								<g id="group11395-137" transform="translate(0,-1.583E-06)">
									<title>path10</title>
									<g id="group11396-138">
										<title>Sheet.11396</title>
										<g id="shape11397-139">
											<title>Sheet.11397</title>
											<path d="M11.86 143.91 L0 152.45 L0 152.48 L23.76 152.48 L23.76 152.45 L11.86 143.91 Z"
													class="st20"/>
										</g>
									</g>
								</g>
							</g>
						</g>
						<g id="group11398-142" transform="translate(2.82417,-3.22427)">
							<title>Sheet.11398</title>
							<g id="group11399-143">
								<title>Sheet.11399</title>
								<g id="shape11400-144">
									<title>Sheet.11400</title>
									<rect x="0" y="134.609" width="24.5151" height="17.8693" class="st21"/>
								</g>
							</g>
							<g id="group11401-146" transform="translate(0.364259,-0.332962)">
								<title>Icon-integration-214</title>
								<g id="group11402-147">
									<title>path4</title>
									<g id="group11403-148">
										<title>Sheet.11403</title>
										<g id="shape11404-149">
											<title>Sheet.11404</title>
											<path d="M23.79 135.34 L23.76 135.34 L23.76 135.28 L23.71 135.28 L11.38 135.35 L0.05
														 135.28 L0 135.28 L0 152.48 L23.76 152.48 L23.76 135.34 L23.79 135.34 Z"
													class="st22"/>
										</g>
									</g>
								</g>
								<g id="group11405-151">
									<title>path6</title>
									<g id="group11406-152">
										<title>Sheet.11406</title>
										<g id="shape11407-153">
											<title>Sheet.11407</title>
											<path d="M0 135.34 L0 152.48 L11.9 143.91 L0 135.34 Z" class="st23"/>
										</g>
									</g>
								</g>
								<g id="group11408-155" transform="translate(11.8936,0)">
									<title>path8</title>
									<g id="group11409-156">
										<title>Sheet.11409</title>
										<g id="shape11410-157">
											<title>Sheet.11410</title>
											<path d="M11.86 135.34 L0 143.91 L11.86 152.48 L11.86 135.34 Z" class="st24"/>
										</g>
									</g>
								</g>
								<g id="group11411-159" transform="translate(0,-1.583E-06)">
									<title>path10</title>
									<g id="group11412-160">
										<title>Sheet.11412</title>
										<g id="shape11413-161">
											<title>Sheet.11413</title>
											<path d="M11.86 143.91 L0 152.45 L0 152.48 L23.76 152.48 L23.76 152.45 L11.86 143.91 Z"
													class="st20"/>
										</g>
									</g>
								</g>
							</g>
						</g>
						<g id="group11414-164" transform="translate(26.9244,-1.42109E-13)">
							<title>Sheet.11414</title>
							<g id="shape11415-165">
								<title>Sheet.11415</title>
								<path d="M0 152.48 L0 142.53 L6.04 136.36 L6.04 146.31 L0 152.48 Z" class="st20"/>
							</g>
						</g>
						<g id="group11416-168" transform="translate(0.0131649,-9.97307)">
							<title>Sheet.11416</title>
							<g id="shape11417-169">
								<title>Sheet.11417</title>
								<path d="M0 152.48 L2.79 149.63 L2.79 152.48 L0 152.48 Z" class="st20"/>
							</g>
						</g>
						<g id="group11418-172" transform="translate(0,-0.0036791)">
							<title>Sheet.11418</title>
							<g id="shape11419-173">
								<title>Sheet.11419</title>
								<rect x="0" y="142.495" width="26.948" height="9.98411" class="st20"/>
							</g>
						</g>
					</g>
				</g>
			</g>
		</g>
	</g>
</svg>
