<?xml version="1.0" encoding="UTF-8" standalone="no"?>
<!DOCTYPE svg PUBLIC "-//W3C//DTD SVG 1.1//EN" "http://www.w3.org/Graphics/SVG/1.1/DTD/svg11.dtd">
<!-- Generated by Microsoft Visio, SVG Export Help and Support.svg Page-1 -->
<svg xmlns="http://www.w3.org/2000/svg" xmlns:xlink="http://www.w3.org/1999/xlink" xmlns:ev="http://www.w3.org/2001/xml-events"
		width="1.57467in" height="1.81146in" viewBox="0 0 113.376 130.425" xml:space="preserve" color-interpolation-filters="sRGB"
		class="st6">
	<style type="text/css">
	<![CDATA[
		.st1 {fill:url(#grad0-6);stroke:none;stroke-linecap:butt;stroke-width:34}
		.st2 {fill:#ffffff;fill-opacity:0.8;stroke:none;stroke-linecap:butt;stroke-width:34}
		.st3 {fill:#767676;stroke:none;stroke-linecap:butt;stroke-width:34}
		.st4 {visibility:visible}
		.st5 {fill:#000000;font-family:Calibri;font-size:0.666664em}
		.st6 {fill:none;fill-rule:evenodd;font-size:12px;overflow:visible;stroke-linecap:square;stroke-miterlimit:3}
	]]>
	</style>

	<defs id="Patterns_And_Gradients">
		<linearGradient id="grad0-6" x1="0" y1="0" x2="1" y2="0" gradientTransform="rotate(84.93979347712 0.5 0.5)">
			<stop offset="0.225" stop-color="#32d4f5" stop-opacity="1"/>
			<stop offset="0.39" stop-color="#30cff1" stop-opacity="1"/>
			<stop offset="0.585" stop-color="#2bc0e4" stop-opacity="1"/>
			<stop offset="0.795" stop-color="#23a9ce" stop-opacity="1"/>
			<stop offset="1" stop-color="#198ab3" stop-opacity="1"/>
		</linearGradient>
	</defs>
	<g>
		<title>Page-1</title>
		<g id="group7168-1" transform="translate(34.0221,-39.685)">
			<title>Help and Support.7168</title>
			<desc>Help and Support</desc>
			<g id="group7169-2">
				<title>g8</title>
				<g id="shape7170-3">
					<title>path2</title>
					<path d="M45.32 125.87 C44.02 115.37 38.93 106.47 29.55 103.59 A12.7087 12.853 -180 1 0 15.65 103.48 C6.2 106.04
								 1.15 114.1 0 125.9 A4.05033 4.09631 -180 0 0 3.62 130.4 A3.58298 3.62366 -180 0 0 4.03 130.43 L41.3
								 130.43 A4.03163 4.0774 -180 0 0 45.35 126.36 A4.19676 4.24441 -180 0 0 45.32 125.87 Z" class="st1"/>
				</g>
				<g id="shape7171-7" transform="translate(15.8119,-8.82282)">
					<title>path4</title>
					<path d="M6.89 114.47 A12.6744 12.8183 0 0 1 0 112.41 L6.82 130.43 L13.59 112.52 A12.6588 12.8025 0 0 1 6.89
								 114.47 Z" class="st2"/>
				</g>
				<g id="shape7172-9" transform="translate(6.86326,-26.4259)">
					<title>path6</title>
					<path d="M34.91 122.91 A19.9089 20.1349 -180 0 0 34.62 114.89 A19.3388 19.5583 -180 0 0 16.47 100.16 A17.27 17.466
								 -180 0 0 0.23 108.87 A1.83199 1.85279 -180 0 0 0.82 111.43 A1.69179 1.711 -180 0 0 3.11 110.91 A14.0671
								 14.2268 0 0 1 16.27 103.71 A15.8212 16.0008 0 0 1 31.09 115.3 A16.3322 16.5176 0 0 1 31.49 122.04
								 A2.91624 2.94934 -180 0 0 29.82 123.89 L28.97 126.73 A2.93069 2.96396 -180 1 0 34.57 128.45 L35.43
								 125.62 A2.92247 2.95564 -180 0 0 34.91 122.91 Z" class="st3"/>
				</g>
			</g>
			<g id="shape7168-11">
				<g id="shadow7168-12" transform="matrix(1,0,0,1,1.41732,1.41732)" class="st4"/>
				<text x="-5.74" y="146.13" class="st5">Help and Support</text>			</g>
		</g>
	</g>
</svg>
