<?xml version="1.0" encoding="UTF-8" standalone="no"?>
<!DOCTYPE svg PUBLIC "-//W3C//DTD SVG 1.1//EN" "http://www.w3.org/Graphics/SVG/1.1/DTD/svg11.dtd">
<!-- Generated by Microsoft Visio, SVG Export Cognitive Services Health Bot.svg Page-1 -->
<svg xmlns="http://www.w3.org/2000/svg" xmlns:xlink="http://www.w3.org/1999/xlink" xmlns:ev="http://www.w3.org/2001/xml-events"
		width="2.66681in" height="2.66681in" viewBox="0 0 192.01 192.01" xml:space="preserve" color-interpolation-filters="sRGB"
		class="st5">
	<style type="text/css">
	<![CDATA[
		.st1 {fill:#0071c6;stroke:none;stroke-linecap:butt;stroke-width:38.8142}
		.st2 {fill:#ffffff;stroke:none;stroke-linecap:butt;stroke-width:70.081}
		.st3 {fill:#0071c6;stroke:none;stroke-width:1}
		.st4 {fill:#0071c6;stroke:none;stroke-linecap:butt;stroke-width:39.367}
		.st5 {fill:none;fill-rule:evenodd;font-size:12px;overflow:visible;stroke-linecap:square;stroke-miterlimit:3}
	]]>
	</style>

	<g>
		<title>Page-1</title>
		<g id="group15209-1" transform="translate(67.8895,-67.6009)">
			<title>Cognitive Services Health Bot.15209</title>
			<g id="group15210-2">
				<title>Page-1</title>
				<g id="group15211-3">
					<title>Sheet.15211</title>
					<g id="group15212-4">
						<title>path1448</title>
						<g id="shape15213-5">
							<title>Sheet.15213</title>
							<ellipse cx="28.3465" cy="163.664" rx="28.3465" ry="28.3465" class="st1"/>
						</g>
					</g>
					<g id="group15214-7" transform="translate(2.19158,-2.48014)">
						<title>path1450</title>
						<g id="shape15215-8">
							<title>Sheet.15215</title>
							<ellipse cx="25.9241" cy="166.086" rx="25.9241" ry="25.9241" class="st2"/>
						</g>
					</g>
					<g id="group15216-10" transform="translate(6.18154,-10.1025)">
						<title>path1425-4-0-5-2-5</title>
						<g id="shape15217-11">
							<title>Sheet.15217</title>
							<path d="M12.77 157.91 C12.58 157.91 12.38 157.91 12.17 157.91 C12.17 157.91 3.92 157.75 1.47 167.35
										 C1.47 167.35 0 173.6 5.4 178.46 L21.94 192.01 L21.94 188.64 C18.29 185.79 9.4 178.36 9.4
										 178.36 C2.02 173.57 4.16 167.41 4.16 167.41 C5.71 160.8 11.82 160.48 11.82 160.48 C11.82
										 160.48 18.13 159.5 21.94 167.3 L21.94 162.93 C21.94 162.93 18.88 158.02 12.77 157.91 ZM21.94
										 188.64 L21.95 192.01 L38.49 178.46 C43.89 173.6 42.41 167.35 42.41 167.35 C39.97 157.75
										 31.71 157.91 31.71 157.91 C25.2 157.7 21.95 162.93 21.95 162.93 L21.95 167.3 C25.75 159.5
										 32.06 160.48 32.06 160.48 C32.06 160.48 38.18 160.8 39.73 167.41 C39.73 167.41 41.86 173.57
										 34.49 178.36 C34.49 178.36 25.59 185.79 21.94 188.64 Z" class="st3"/>
						</g>
					</g>
					<g id="group15218-13" transform="translate(26.3048,-26.8181)">
						<title>path1470-58</title>
						<g id="shape15219-14">
							<title>Sheet.15219</title>
							<ellipse cx="1.87438" cy="190.136" rx="1.87438" ry="1.87438" class="st4"/>
						</g>
					</g>
					<g id="group15220-16" transform="translate(32.5553,-26.8181)">
						<title>path1470-58.86</title>
						<g id="shape15221-17">
							<title>Sheet.15221</title>
							<ellipse cx="1.87438" cy="190.136" rx="1.87438" ry="1.87438" class="st4"/>
						</g>
					</g>
					<g id="group15222-19" transform="translate(20.3052,-26.8181)">
						<title>path1470-58.87</title>
						<g id="shape15223-20">
							<title>Sheet.15223</title>
							<ellipse cx="1.87438" cy="190.136" rx="1.87438" ry="1.87438" class="st4"/>
						</g>
					</g>
				</g>
			</g>
		</g>
	</g>
</svg>
