<?xml version="1.0" encoding="UTF-8" standalone="no"?>
<!DOCTYPE svg PUBLIC "-//W3C//DTD SVG 1.1//EN" "http://www.w3.org/Graphics/SVG/1.1/DTD/svg11.dtd">
<!-- Generated by Microsoft Visio, SVG Export Application Deployment Slot.svg Page-1 -->
<svg xmlns="http://www.w3.org/2000/svg" xmlns:xlink="http://www.w3.org/1999/xlink" xmlns:ev="http://www.w3.org/2001/xml-events"
		width="1.51278in" height="1.50858in" viewBox="0 0 108.92 108.618" xml:space="preserve" color-interpolation-filters="sRGB"
		class="st6">
	<style type="text/css">
	<![CDATA[
		.st1 {fill:#a0a1a2;stroke:none;stroke-linecap:butt;stroke-width:12.24}
		.st2 {fill:#59b4d9;stroke:none;stroke-linecap:butt;stroke-width:12.24}
		.st3 {fill:#b8d432;stroke:none;stroke-linecap:butt;stroke-width:12.24}
		.st4 {visibility:visible}
		.st5 {fill:#000000;font-family:Calibri;font-size:0.666664em}
		.st6 {fill:none;fill-rule:evenodd;font-size:12px;overflow:visible;stroke-linecap:square;stroke-miterlimit:3}
	]]>
	</style>

	<g>
		<title>Page-1</title>
		<g id="group5462-1" transform="translate(26.1136,-39.685)">
			<title>Application Deployment Slot.5462</title>
			<desc>Application Deployment Slot</desc>
			<g id="group5463-2">
				<title>Sheet.5463</title>
				<g id="shape5464-3">
					<title>Sheet.5464</title>
					<path d="M47.11 108.62 L6.74 108.62 C3.03 108.62 0 105.6 0 101.89 L0 90.71 A1.7778 1.77222 0 0 1 3.56 90.71 L3.56
								 101.89 A3.19617 3.18614 -180 0 0 6.75 105.07 L47.11 105.07 A3.19617 3.18614 -180 0 0 50.3 101.89
								 L50.3 90.71 A1.7778 1.77222 0 0 1 53.86 90.71 L53.86 101.89 A6.75745 6.73625 0 0 1 47.11 108.62
								 Z" class="st1"/>
				</g>
				<g id="shape5465-5" transform="translate(6.46058,-6.45732)">
					<title>Sheet.5465</title>
					<path d="M0 77.31 L11.23 77.31 L11.23 108.62 L0 108.62 L0 77.31 ZM14.85 77.31 L26.08 77.31 L26.08 108.62 L14.85
								 108.62 L14.85 77.31 Z" class="st2"/>
				</g>
				<g id="shape5466-7" transform="translate(17.7234,-6.45732)">
					<title>Sheet.5466</title>
					<path d="M18.45 77.31 L29.67 77.31 L29.67 108.62 L18.45 108.62 L18.45 77.31 ZM0 71.34 C0 64.19 5.83 58.38 13
								 58.38 C20.17 58.38 26.14 63.81 26.14 70.95 A1.7778 1.77222 0 1 1 22.58 70.95 C22.58 65.76 18.2 61.93
								 13 61.93 C7.79 61.93 3.55 66.15 3.55 71.34 L0 71.34 Z" class="st3"/>
				</g>
				<g id="shape5467-9" transform="translate(34.9269,-39.744)">
					<title>Sheet.5467</title>
					<path d="M14.03 101.63 L7.01 108.62 L0 101.63 L14.03 101.63 Z" class="st3"/>
				</g>
			</g>
			<g id="shape5462-11">
				<g id="shadow5462-12" transform="matrix(1,0,0,1,1.41732,1.41732)" class="st4"/>
				<text x="-19.53" y="124.32" class="st5">Application Deployment Slot</text>			</g>
		</g>
	</g>
</svg>
