<?xml version="1.0" encoding="UTF-8" standalone="no"?>
<!DOCTYPE svg PUBLIC "-//W3C//DTD SVG 1.1//EN" "http://www.w3.org/Graphics/SVG/1.1/DTD/svg11.dtd">
<!-- Generated by Microsoft Visio, SVG Export Event Grid System Topic.svg Page-1 -->
<svg xmlns="http://www.w3.org/2000/svg" xmlns:xlink="http://www.w3.org/1999/xlink" xmlns:ev="http://www.w3.org/2001/xml-events"
		width="1.73188in" height="1.67695in" viewBox="0 0 124.695 120.74" xml:space="preserve" color-interpolation-filters="sRGB"
		class="st9">
	<style type="text/css">
	<![CDATA[
		.st1 {fill:#a3a3a3;stroke:none;stroke-linecap:butt;stroke-width:34}
		.st2 {fill:#a3a3a3;fill-opacity:0.5;stroke:none;stroke-linecap:butt;stroke-width:34}
		.st3 {fill:#949494;stroke:none;stroke-linecap:butt;stroke-width:34}
		.st4 {fill:#6f4bb2;stroke:none;stroke-linecap:butt;stroke-width:34}
		.st5 {fill:url(#grad0-32);stroke:none;stroke-linecap:butt;stroke-width:34}
		.st6 {fill:url(#grad0-36);stroke:none;stroke-linecap:butt;stroke-width:34}
		.st7 {visibility:visible}
		.st8 {fill:#000000;font-family:Calibri;font-size:0.666664em}
		.st9 {fill:none;fill-rule:evenodd;font-size:12px;overflow:visible;stroke-linecap:square;stroke-miterlimit:3}
	]]>
	</style>

	<defs id="Patterns_And_Gradients">
		<linearGradient id="grad0-32" x1="0" y1="0" x2="1" y2="0" gradientTransform="rotate(-90 0.5 0.5)">
			<stop offset="0.04" stop-color="#32bedd" stop-opacity="1"/>
			<stop offset="0.495" stop-color="#50e6ff" stop-opacity="1"/>
			<stop offset="0.92" stop-color="#c3f1ff" stop-opacity="1"/>
		</linearGradient>
		<linearGradient id="grad0-36" x1="0" y1="0" x2="1" y2="0" gradientTransform="rotate(-90 0.5 0.5)">
			<stop offset="0.245" stop-color="#0078d4" stop-opacity="1"/>
			<stop offset="0.6" stop-color="#2e8ce1" stop-opacity="1"/>
			<stop offset="0.935" stop-color="#589eed" stop-opacity="1"/>
		</linearGradient>
	</defs>
	<g>
		<title>Page-1</title>
		<g id="group5310-1" transform="translate(34.0023,-35.7165)">
			<title>Event Grid System Topic.5310</title>
			<desc>Event Grid System Topic</desc>
			<g id="group5311-2">
				<title>Icon-integration-206</title>
				<g id="group5312-3" transform="translate(-5.79536E-14,-37.982)">
					<title>Sheet.5312</title>
					<g id="shape5313-4">
						<title>Sheet.5313</title>
						<path d="M1.93 107.73 L6.22 107.73 L6.22 119.77 a0.964844 0.97476 0 0 1 -0.964844 0.97476 L0.96 120.74 a0.964844
									 0.97476 0 0 1 -0.964844 -0.97476 L0 109.68 A1.89642 1.91591 0 0 1 1.93 107.73 Z" class="st1"/>
					</g>
					<g id="shape5314-6">
						<title>Sheet.5314</title>
						<path d="M1.93 107.73 L6.22 107.73 L6.22 119.77 a0.964844 0.97476 0 0 1 -0.964844 0.97476 L0.96 120.74 a0.964844
									 0.97476 0 0 1 -0.964844 -0.97476 L0 109.68 A1.89642 1.91591 0 0 1 1.93 107.73 Z" class="st2"/>
					</g>
				</g>
				<g id="group5315-8" transform="translate(50.4713,-37.982)">
					<title>Sheet.5315</title>
					<g id="shape5316-9">
						<title>Sheet.5316</title>
						<path d="M0 107.73 L4.29 107.73 A1.89642 1.91591 0 0 1 6.19 109.65 L6.19 119.77 a0.964844 0.97476 0 0 1 -0.964844
									 0.97476 L0.96 120.74 a0.964844 0.97476 0 0 1 -0.964844 -0.97476 L0 107.73 Z" class="st1"/>
					</g>
					<g id="shape5317-11">
						<title>Sheet.5317</title>
						<path d="M0 107.73 L4.29 107.73 A1.89642 1.91591 0 0 1 6.19 109.65 L6.19 119.77 a0.964844 0.97476 0 0 1 -0.964844
									 0.97476 L0.96 120.74 a0.964844 0.97476 0 0 1 -0.964844 -0.97476 L0 107.73 Z" class="st2"/>
					</g>
				</g>
				<g id="shape5318-13" transform="translate(0.0998115,-44.9062)">
					<title>Sheet.5318</title>
					<path d="M56.56 116.54 L56.56 120.74 L0 120.74 L0 116.54 A1.89642 1.91591 0 0 1 1.9 114.62 L54.66 114.62 A1.89642
								 1.91591 0 0 1 56.56 116.54 Z" class="st3"/>
				</g>
				<g id="group5319-15">
					<title>Sheet.5319</title>
					<g id="shape5320-16">
						<title>Sheet.5320</title>
						<path d="M0.96 107.63 L5.26 107.63 a0.964844 0.97476 0 0 1 0.964844 0.97476 L6.22 120.74 L1.93 120.74 A1.89642
									 1.91591 0 0 1 -0 118.76 L0 108.67 a0.964844 0.97476 0 0 1 0.964844 -1.04198 Z" class="st1"/>
					</g>
					<g id="shape5321-18">
						<title>Sheet.5321</title>
						<path d="M0.96 107.63 L5.26 107.63 a0.964844 0.97476 0 0 1 0.964844 0.97476 L6.22 120.74 L1.93 120.74 A1.89642
									 1.91591 0 0 1 -0 118.76 L0 108.67 a0.964844 0.97476 0 0 1 0.964844 -1.04198 Z" class="st2"/>
					</g>
				</g>
				<g id="group5322-20" transform="translate(50.4713,-0.13445)">
					<title>Sheet.5322</title>
					<g id="shape5323-21">
						<title>Sheet.5323</title>
						<path d="M0.96 107.77 L5.26 107.77 a0.964844 0.97476 0 0 1 0.964844 0.97476 L6.22 118.82 A1.89642 1.91591
									 0 0 1 4.33 120.74 L0 120.74 L0 108.81 a0.964844 0.97476 0 0 1 0.964844 -1.04198 Z" class="st1"/>
					</g>
					<g id="shape5324-23">
						<title>Sheet.5324</title>
						<path d="M0.96 107.77 L5.26 107.77 a0.964844 0.97476 0 0 1 0.964844 0.97476 L6.22 118.82 A1.89642 1.91591
									 0 0 1 4.33 120.74 L0 120.74 L0 108.81 a0.964844 0.97476 0 0 1 0.964844 -1.04198 Z" class="st2"/>
					</g>
				</g>
				<g id="shape5325-25">
					<title>Sheet.5325</title>
					<path d="M0 118.82 L0 114.62 L56.56 114.62 L56.56 118.82 A1.89642 1.91591 0 0 1 54.66 120.74 L1.9 120.74 A1.89642
								 1.91591 0 0 1 0 118.82 Z" class="st3"/>
				</g>
				<g id="shape5326-27" transform="translate(16.8856,-18.9648)">
					<title>Sheet.5326</title>
					<path d="M31.12 113.66 L25.07 107.47 a0.299434 0.302512 -180 0 0 -0.532328 0.235287 L24.54 111.5 a0.299434 0.302512
								 0 0 1 -0.332705 0.336124 L6.77 111.84 A3.4934 3.5293 -180 0 0 4.01 110.46 A3.65975 3.69736 -180
								 1 0 4.01 117.82 A3.59321 3.63014 -180 0 0 6.8 116.41 L24.2 116.41 a0.299434 0.302512 0 0 1 0.332705
								 0.302512 L24.54 120.45 a0.299434 0.302512 -180 0 0 0.532328 0.201674 L31.12 114.56 a0.66541 0.672248
								 -180 0 0 -2.13163E-14 -0.907535 Z" class="st4"/>
				</g>
				<g id="shape5327-29" transform="translate(12.863,-29.8889)">
					<title>Sheet.5327</title>
					<path d="M23.97 113.66 L17.91 107.57 a0.299434 0.302512 -180 0 0 -0.532328 0.235287 L17.38 111.67 a0.299434 0.302512
								 0 0 1 -0.299434 0.336124 L6.17 112.01 A3.55994 3.59653 -180 0 0 3.37 110.63 A3.65975 3.69736 -180
								 1 0 6.2 116.58 L17.08 116.58 a0.299434 0.302512 0 0 1 0.299434 0.302512 L17.38 120.45 a0.299434
								 0.302512 -180 0 0 0.532328 0.201674 L23.97 114.56 a0.66541 0.672248 -180 0 0 -1.77636E-14 -0.907535
								 Z" class="st5"/>
				</g>
				<g id="shape5328-33" transform="translate(12.9316,-7.73829)">
					<title>Sheet.5328</title>
					<path d="M23.9 113.55 L17.84 107.47 a0.299434 0.302512 -180 0 0 -0.532328 0.235287 L17.31 111.4 a0.332705 0.336124
								 0 0 1 -0.299434 0.336124 L6.1 111.74 A3.55994 3.59653 -180 0 0 3.3 110.36 A3.65975 3.69736 -180
								 1 0 6.13 116.41 L17.01 116.41 a0.299434 0.302512 0 0 1 0.299434 0.302512 L17.31 120.45 a0.299434
								 0.302512 -180 0 0 0.532328 0.201674 L23.9 114.56 a0.66541 0.672248 -180 0 0 -1.42109E-14 -1.00837
								 Z" class="st6"/>
				</g>
			</g>
			<g id="shape5310-37">
				<g id="shadow5310-38" transform="matrix(1,0,0,1,1.41732,1.41732)" class="st7"/>
				<text x="-11" y="135.59" class="st8">Event Grid System Topic</text>			</g>
		</g>
	</g>
</svg>
