<?xml version="1.0" encoding="UTF-8" standalone="no"?>
<!DOCTYPE svg PUBLIC "-//W3C//DTD SVG 1.1//EN" "http://www.w3.org/Graphics/SVG/1.1/DTD/svg11.dtd">
<!-- Generated by Microsoft Visio, SVG Export Event Hub.svg Page-1 -->
<svg xmlns="http://www.w3.org/2000/svg" xmlns:xlink="http://www.w3.org/1999/xlink" xmlns:ev="http://www.w3.org/2001/xml-events"
		width="1.73188in" height="1.67695in" viewBox="0 0 124.696 120.74" xml:space="preserve" color-interpolation-filters="sRGB"
		class="st8">
	<style type="text/css">
	<![CDATA[
		.st1 {fill:#76bc2d;stroke:none;stroke-linecap:butt;stroke-width:34}
		.st2 {fill:#86d633;stroke:none;stroke-linecap:butt;stroke-width:34}
		.st3 {fill:#999999;stroke:none;stroke-linecap:butt;stroke-width:34}
		.st4 {fill:#999999;fill-opacity:0.5;stroke:none;stroke-linecap:butt;stroke-width:34}
		.st5 {fill:#949494;stroke:none;stroke-linecap:butt;stroke-width:34}
		.st6 {visibility:visible}
		.st7 {fill:#000000;font-family:Calibri;font-size:0.666664em}
		.st8 {fill:none;fill-rule:evenodd;font-size:12px;overflow:visible;stroke-linecap:square;stroke-miterlimit:3}
	]]>
	</style>

	<g>
		<title>Page-1</title>
		<g id="group5152-1" transform="translate(34.0026,-35.7165)">
			<title>Event Hub.5152</title>
			<desc>Event Hub</desc>
			<g id="group5153-2">
				<title> Icon-analytics-144</title>
				<g id="shape5154-3" transform="translate(25.7786,-16.1092)">
					<title>Sheet.5154</title>
					<path d="M8.67 109.11 a0.867068 0.876231 0 0 1 -0.800371 0.909932 L0.9 110.02 a0.867068 0.876231 0 0 1 -0.900417
								 -0.808829 L0 103.96 a0.867068 0.876231 0 0 1 0.800371 -0.909932 L7.77 103.05 a0.867068 0.876231
								 0 0 1 0.900417 0.808829 L8.67 109.11 ZM21.04 114.44 a0.867068 0.876231 0 0 1 -0.800371 0.909932
								 L13.27 115.35 a0.867068 0.876231 0 0 1 -0.900417 -0.808829 L12.37 109.32 a0.867068 0.876231 0 0
								 1 0.800371 -0.909932 L20.14 108.41 a0.867068 0.876231 0 0 1 0.900417 0.808829 L21.04 114.44 ZM8.67
								 119.83 a0.867068 0.876231 0 0 1 -0.800371 0.909932 L0.9 120.74 a0.867068 0.876231 0 0 1 -0.900417
								 -0.808829 L0 114.67 a0.867068 0.876231 0 0 1 0.800371 -0.909932 L7.77 113.76 a0.867068 0.876231
								 0 0 1 0.900417 0.808829 L8.67 119.83 Z" class="st1"/>
				</g>
				<g id="shape5155-5" transform="translate(13.2395,-32.1846)">
					<title>Sheet.5155</title>
					<path d="M8.84 119.86 a0.833719 0.84253 0 0 1 -0.767022 0.876231 L0.9 120.74 a0.867068 0.876231 0 0 1 -0.900417
								 -0.775128 L0 114.51 a0.867068 0.876231 0 0 1 0.800371 -0.84253 L7.77 113.66 C8.5 113.66 8.84 114.03
								 8.84 114.57 L8.84 119.86 Z" class="st2"/>
				</g>
				<g id="shape5156-7" transform="translate(13.2395,-10.7507)">
					<title>Sheet.5156</title>
					<path d="M8.84 109.08 a0.833719 0.84253 0 0 1 -0.767022 0.909932 L0.9 109.99 a0.867068 0.876231 0 0 1 -0.900417
								 -0.909932 L0 103.75 a0.867068 0.876231 0 0 1 0.800371 -0.876231 L7.77 102.88 C8.5 102.88 8.84 103.25
								 8.84 103.75 L8.84 109.08 ZM8.84 119.83 a0.833719 0.84253 0 0 1 -0.767022 0.909932 L0.9 120.74 a0.867068
								 0.876231 0 0 1 -0.900417 -0.808829 L0 114.47 a0.833719 0.84253 0 0 1 0.800371 -0.876231 L7.77 113.6
								 C8.5 113.6 8.84 113.93 8.84 114.47 L8.84 119.83 Z" class="st1"/>
				</g>
				<g id="group5157-9" transform="translate(5.64548E-14,-37.9139)">
					<title>Sheet.5157</title>
					<g id="shape5158-10">
						<title>Sheet.5158</title>
						<path d="M1.9 107.63 L6.2 107.63 L6.2 119.76 a0.967114 0.977335 0 0 1 -0.967114 0.977335 L0.97 120.74 a0.967114
									 0.977335 0 0 1 -0.967114 -0.977335 L0 109.65 A1.90088 1.92097 0 0 1 1.9 107.63 Z" class="st3"/>
					</g>
					<g id="shape5159-12">
						<title>Sheet.5159</title>
						<path d="M1.9 107.63 L6.2 107.63 L6.2 119.76 a0.967114 0.977335 0 0 1 -0.967114 0.977335 L0.97 120.74 a0.967114
									 0.977335 0 0 1 -0.967114 -0.977335 L0 109.65 A1.90088 1.92097 0 0 1 1.9 107.63 Z" class="st4"/>
					</g>
				</g>
				<g id="group5160-14" transform="translate(50.4567,-38.015)">
					<title>Sheet.5160</title>
					<g id="shape5161-15">
						<title>Sheet.5161</title>
						<path d="M0.03 107.73 L4.34 107.73 A1.90088 1.92097 0 0 1 6.24 109.65 L6.24 119.76 a0.967114 0.977335 0 0
									 1 -0.967114 0.977335 L0.97 120.74 a0.967114 0.977335 0 0 1 -0.967114 -0.977335 L0 107.73 L0.03
									 107.73 Z" class="st3"/>
					</g>
					<g id="shape5162-17">
						<title>Sheet.5162</title>
						<path d="M0.03 107.73 L4.34 107.73 A1.90088 1.92097 0 0 1 6.24 109.65 L6.24 119.76 a0.967114 0.977335 0 0
									 1 -0.967114 0.977335 L0.97 120.74 a0.967114 0.977335 0 0 1 -0.967114 -0.977335 L0 107.73 L0.03
									 107.73 Z" class="st4"/>
					</g>
				</g>
				<g id="shape5163-19" transform="translate(0,-44.89)">
					<title>Sheet.5163</title>
					<path d="M56.69 116.53 L56.69 120.74 L0 120.74 L0 116.53 A1.90088 1.92097 0 0 1 1.9 114.61 L54.83 114.61 A1.90088
								 1.92097 0 0 1 56.69 116.53 Z" class="st5"/>
				</g>
				<g id="group5164-21">
					<title>Sheet.5164</title>
					<g id="shape5165-22">
						<title>Sheet.5165</title>
						<path d="M0.97 107.63 L5.27 107.63 a0.967114 0.977335 0 0 1 0.967114 0.977335 L6.24 120.74 L1.9 120.74 A1.90088
									 1.92097 0 0 1 0 118.82 L0 108.44 a0.967114 0.977335 0 0 1 0.967114 -0.808829 Z" class="st3"/>
					</g>
					<g id="shape5166-24">
						<title>Sheet.5166</title>
						<path d="M0.97 107.63 L5.27 107.63 a0.967114 0.977335 0 0 1 0.967114 0.977335 L6.24 120.74 L1.9 120.74 A1.90088
									 1.92097 0 0 1 0 118.82 L0 108.44 a0.967114 0.977335 0 0 1 0.967114 -0.808829 Z" class="st4"/>
					</g>
				</g>
				<g id="group5167-26" transform="translate(50.49,-0.101104)">
					<title>Sheet.5167</title>
					<g id="shape5168-27">
						<title>Sheet.5168</title>
						<path d="M0.93 107.73 L5.24 107.73 a0.967114 0.977335 0 0 1 0.967114 0.977335 L6.2 118.82 A1.90088 1.92097
									 0 0 1 4.3 120.74 L0 120.74 L0 108.54 a0.967114 0.977335 0 0 1 0.933766 -0.808829 Z"
								class="st3"/>
					</g>
					<g id="shape5169-29">
						<title>Sheet.5169</title>
						<path d="M0.93 107.73 L5.24 107.73 a0.967114 0.977335 0 0 1 0.967114 0.977335 L6.2 118.82 A1.90088 1.92097
									 0 0 1 4.3 120.74 L0 120.74 L0 108.54 a0.967114 0.977335 0 0 1 0.933766 -0.808829 Z"
								class="st4"/>
					</g>
				</g>
				<g id="shape5170-31">
					<title>Sheet.5170</title>
					<path d="M0 118.82 L0 114.61 L56.69 114.61 L56.69 118.82 A1.90088 1.92097 0 0 1 54.79 120.74 L1.9 120.74 A1.90088
								 1.92097 0 0 1 0 118.82 Z" class="st5"/>
				</g>
			</g>
			<g id="shape5152-33">
				<g id="shadow5152-34" transform="matrix(1,0,0,1,1.41732,1.41732)" class="st6"/>
				<text x="11.56" y="135.59" class="st7">Event Hub</text>			</g>
		</g>
	</g>
</svg>
