<?xml version="1.0" encoding="UTF-8" standalone="no"?>
<!DOCTYPE svg PUBLIC "-//W3C//DTD SVG 1.1//EN" "http://www.w3.org/Graphics/SVG/1.1/DTD/svg11.dtd">
<!-- Generated by Microsoft Visio, SVG Export SendGrid Account.svg Page-1 -->
<svg xmlns="http://www.w3.org/2000/svg" xmlns:xlink="http://www.w3.org/1999/xlink" xmlns:ev="http://www.w3.org/2001/xml-events"
		width="1.03395in" height="1.41732in" viewBox="0 0 74.4445 102.047" xml:space="preserve" color-interpolation-filters="sRGB"
		class="st6">
	<style type="text/css">
	<![CDATA[
		.st1 {fill:#005ba1;stroke:none;stroke-linecap:butt;stroke-width:0.75}
		.st2 {fill:#0078d4;stroke:none;stroke-linecap:butt;stroke-width:0.75}
		.st3 {fill:url(#grad0-11);stroke:none;stroke-linecap:butt;stroke-width:0.75}
		.st4 {visibility:visible}
		.st5 {fill:#000000;font-family:Calibri;font-size:0.666664em}
		.st6 {fill:none;fill-rule:evenodd;font-size:12px;overflow:visible;stroke-linecap:square;stroke-miterlimit:3}
	]]>
	</style>

	<defs id="Patterns_And_Gradients">
		<linearGradient id="grad0-11" x1="0" y1="0" x2="1" y2="0" gradientTransform="rotate(90 0.5 0.5)">
			<stop offset="0" stop-color="#32d4f5" stop-opacity="1"/>
			<stop offset="0.23" stop-color="#31d0f1" stop-opacity="1"/>
			<stop offset="0.46" stop-color="#2cc3e6" stop-opacity="1"/>
			<stop offset="0.7" stop-color="#25afd4" stop-opacity="1"/>
			<stop offset="0.94" stop-color="#1c92ba" stop-opacity="1"/>
			<stop offset="1" stop-color="#198ab3" stop-opacity="1"/>
		</linearGradient>
	</defs>
	<g>
		<title>Page-1</title>
		<g id="group5177-1" transform="translate(7.45868,-39.685)">
			<title>SendGrid Account.5177</title>
			<desc>SendGrid Account</desc>
			<g id="shape5178-2">
				<title>Sheet.5178</title>
				<path d="M18.89 83.14 L0 83.14 L0 66.13 A1.93967 1.90088 0 0 1 1.94 64.26 L18.95 64.26 L18.89 83.14 ZM37.81 83.14
							 L18.89 83.14 L18.89 102.05 L35.9 102.05 A1.93967 1.90088 -180 0 0 37.84 100.15 L37.81 83.14 Z"
						class="st1"/>
			</g>
			<g id="shape5179-4">
				<title>Sheet.5179</title>
				<path d="M37.81 83.14 L18.89 83.14 L18.89 64.26 L37.81 64.26 L37.81 83.14 ZM18.89 83.14 L0 83.14 L0 100.15 A1.93967
							 1.90088 -180 0 0 1.94 102.05 L18.95 102.05 L18.89 83.14 Z" class="st2"/>
			</g>
			<g id="shape5180-6" transform="translate(18.8863,-18.9088)">
				<title>Sheet.5180</title>
				<path d="M18.92 83.17 L0 83.17 L0 66.16 A1.93967 1.90088 0 0 1 1.94 64.26 L18.95 64.26 L18.92 83.17 ZM37.81 83.17
							 L18.92 83.17 L18.92 102.05 L36.24 102.05 A1.56535 1.53404 -180 0 0 37.81 100.55 L37.81 83.17 Z"
						class="st2"/>
			</g>
			<g id="shape5181-8" transform="translate(18.8863,-18.9088)">
				<title>Sheet.5181</title>
				<path d="M37.81 83.17 L18.92 83.17 L18.92 64.26 L36.24 64.26 A1.56535 1.53404 0 0 1 37.81 65.76 L37.81 83.17 ZM18.92
							 83.17 L0 83.17 L0 100.18 A1.93967 1.90088 -180 0 0 1.94 102.05 L18.95 102.05 L18.92 83.17 Z"
						class="st3"/>
			</g>
			<g id="shape5177-12">
				<g id="shadow5177-13" transform="matrix(1,0,0,1,1.41732,1.41732)" class="st4"/>
				<text x="-0.88" y="117.75" class="st5">SendGrid Account</text>			</g>
		</g>
	</g>
</svg>
