<?xml version="1.0" encoding="UTF-8" standalone="no"?>
<!DOCTYPE svg PUBLIC "-//W3C//DTD SVG 1.1//EN" "http://www.w3.org/Graphics/SVG/1.1/DTD/svg11.dtd">
<!-- Generated by Microsoft Visio, SVG Export Azure Batch.svg Page-1 -->
<svg xmlns="http://www.w3.org/2000/svg" xmlns:xlink="http://www.w3.org/1999/xlink" xmlns:ev="http://www.w3.org/2001/xml-events"
		width="0.944882in" height="1.33858in" viewBox="0 0 68.0315 96.378" xml:space="preserve" color-interpolation-filters="sRGB"
		class="st9">
	<style type="text/css">
	<![CDATA[
		.st1 {fill:#177acd;stroke:none;stroke-linecap:butt;stroke-width:0.100536}
		.st2 {fill:#ffffff;stroke:none;stroke-linecap:butt;stroke-width:0.0943546}
		.st3 {fill:#a7a8a9;stroke:none;stroke-linecap:butt;stroke-width:0.0847624}
		.st4 {fill:#ffffff;fill-opacity:0.2;stroke:none;stroke-linecap:butt;stroke-width:0.0955156}
		.st5 {fill:#ffffff;stroke:none;stroke-linecap:butt;stroke-width:0.109072}
		.st6 {fill:#ffffff;stroke:none;stroke-linecap:butt;stroke-width:0.0772262}
		.st7 {fill:#509ccc;stroke:none;stroke-linecap:butt;stroke-width:0.100536}
		.st8 {fill:#59afd5;stroke:none;stroke-linecap:butt;stroke-width:0.100536}
		.st9 {fill:none;fill-rule:evenodd;font-size:12px;overflow:visible;stroke-linecap:square;stroke-miterlimit:3}
	]]>
	</style>

	<g>
		<title>Page-1</title>
		<g id="group8933-1" transform="translate(5.66929,-34.0157)">
			<title>Azure Batch.8933</title>
			<g id="shape8934-2" transform="translate(0,-22.4809)">
				<title>path7</title>
				<path d="M32.25 68.7 L0 68.7 L0 94.69 C0 95.1 0.16 95.5 0.44 95.81 L0.43 95.82 C0.47 95.86 0.52 95.91 0.57 95.93
							 C0.86 96.21 1.25 96.38 1.7 96.38 L35.22 96.38 C36.07 96.38 36.92 95.68 36.92 94.68 L36.92 68.7 L32.25
							 68.7 Z" class="st1"/>
			</g>
			<g id="shape8935-4" transform="translate(16.173,-28.0231)">
				<title>path9</title>
				<path d="M0 84.02 L14.84 84.02 L14.84 86.92 L0 86.92 L0 84.02 ZM0 93.48 L14.84 93.48 L14.84 96.38 L0 96.38 L0 93.48
							 Z" class="st2"/>
			</g>
			<g id="shape8936-6" transform="translate(0,-50.1584)">
				<title>path17</title>
				<path d="M4.68 96.38 L36.91 96.38 L36.91 91.05 C36.91 90.45 36.21 89.84 35.21 89.84 L1.7 89.84 C0.85 89.84 0 90.34
							 0 91.05 L0 96.38 L4.68 96.38 Z" class="st3"/>
			</g>
			<g id="shape8937-8" transform="translate(0.0246706,-21.7456)">
				<title>path23</title>
				<path d="M28.15 67.97 L0 67.97 L0 94.84 C0 95.27 0.15 95.72 0.42 96.05 C0.68 96.38 32.22 67.97 32.22 67.97 L28.15
							 67.97 Z" class="st4"/>
			</g>
			<g id="shape8938-10" transform="translate(5.80265,-26.0482)">
				<title>path9-0</title>
				<path d="M0 94.14 L10.13 86.17 L11.9 88.24 L1.77 96.38 L0 94.14 Z" class="st5"/>
			</g>
			<g id="shape8939-12" transform="translate(2.33932,-26.0482)">
				<title>path9-0-9</title>
				<path d="M5.24 96.38 L0 90.81 L2.33 88.78 L7.64 94.5 L5.24 96.38 Z" class="st6"/>
			</g>
			<g id="shape8940-14" transform="translate(6.2869,-36.6612)">
				<title>path9-0-5</title>
				<path d="M0 94.14 L10.13 86.17 L11.9 88.24 L1.77 96.38 L0 94.14 Z" class="st5"/>
			</g>
			<g id="shape8941-16" transform="translate(2.82357,-36.6612)">
				<title>path9-0-9-8</title>
				<path d="M5.24 96.38 L0 90.81 L2.33 88.78 L7.64 94.5 L5.24 96.38 Z" class="st6"/>
			</g>
			<g id="shape8942-18" transform="translate(9.88607,-11.6081)">
				<title>path7-1</title>
				<path d="M32.25 68.7 L0 68.7 L0 94.69 C0 95.1 0.16 95.5 0.44 95.81 L0.43 95.82 C0.47 95.86 0.52 95.91 0.57 95.93
							 C0.86 96.21 1.25 96.38 1.7 96.38 L35.22 96.38 C36.07 96.38 36.92 95.68 36.92 94.68 L36.92 68.7 L32.25
							 68.7 Z" class="st7"/>
			</g>
			<g id="shape8943-20" transform="translate(26.059,-17.1503)">
				<title>path9-3</title>
				<path d="M0 84.02 L14.84 84.02 L14.84 86.92 L0 86.92 L0 84.02 ZM0 93.48 L14.84 93.48 L14.84 96.38 L0 96.38 L0 93.48
							 Z" class="st2"/>
			</g>
			<g id="shape8944-22" transform="translate(9.88607,-39.2855)">
				<title>path17-6</title>
				<path d="M4.68 96.38 L36.91 96.38 L36.91 91.05 C36.91 90.45 36.21 89.84 35.21 89.84 L1.7 89.84 C0.85 89.84 0 90.34
							 0 91.05 L0 96.38 L4.68 96.38 Z" class="st3"/>
			</g>
			<g id="shape8945-24" transform="translate(9.91074,-10.8728)">
				<title>path23-4</title>
				<path d="M28.15 67.97 L0 67.97 L0 94.84 C0 95.27 0.15 95.72 0.42 96.05 C0.68 96.38 32.22 67.97 32.22 67.97 L28.15
							 67.97 Z" class="st4"/>
			</g>
			<g id="shape8946-26" transform="translate(15.6887,-15.1754)">
				<title>path9-0-2</title>
				<path d="M0 94.14 L10.13 86.17 L11.9 88.24 L1.77 96.38 L0 94.14 Z" class="st5"/>
			</g>
			<g id="shape8947-28" transform="translate(12.2254,-15.1754)">
				<title>path9-0-9-5</title>
				<path d="M5.24 96.38 L0 90.81 L2.33 88.78 L7.64 94.5 L5.24 96.38 Z" class="st6"/>
			</g>
			<g id="shape8948-30" transform="translate(16.173,-25.7884)">
				<title>path9-0-5-1</title>
				<path d="M0 94.14 L10.13 86.17 L11.9 88.24 L1.77 96.38 L0 94.14 Z" class="st5"/>
			</g>
			<g id="shape8949-32" transform="translate(12.7096,-25.7884)">
				<title>path9-0-9-8-4</title>
				<path d="M5.24 96.38 L0 90.81 L2.33 88.78 L7.64 94.5 L5.24 96.38 Z" class="st6"/>
			</g>
			<g id="shape8950-34" transform="translate(26.059,-17.1503)">
				<title>path9-6</title>
				<path d="M0 84.02 L14.84 84.02 L14.84 86.92 L0 86.92 L0 84.02 ZM0 93.48 L14.84 93.48 L14.84 96.38 L0 96.38 L0 93.48
							 Z" class="st2"/>
			</g>
			<g id="shape8951-36" transform="translate(19.7721,-0.73524)">
				<title>path7-1-9</title>
				<path d="M32.25 68.7 L0 68.7 L0 94.69 C0 95.1 0.16 95.5 0.44 95.81 L0.43 95.82 C0.47 95.86 0.52 95.91 0.57 95.93
							 C0.86 96.21 1.25 96.38 1.7 96.38 L35.22 96.38 C36.07 96.38 36.92 95.68 36.92 94.68 L36.92 68.7 L32.25
							 68.7 Z" class="st8"/>
			</g>
			<g id="shape8952-38" transform="translate(35.9451,-6.27752)">
				<title>path9-3-0</title>
				<path d="M0 84.02 L14.84 84.02 L14.84 86.92 L0 86.92 L0 84.02 ZM0 93.48 L14.84 93.48 L14.84 96.38 L0 96.38 L0 93.48
							 Z" class="st2"/>
			</g>
			<g id="shape8953-40" transform="translate(19.7721,-28.4127)">
				<title>path17-6-4</title>
				<path d="M4.68 96.38 L36.91 96.38 L36.91 91.05 C36.91 90.45 36.21 89.84 35.21 89.84 L1.7 89.84 C0.85 89.84 0 90.34
							 0 91.05 L0 96.38 L4.68 96.38 Z" class="st3"/>
			</g>
			<g id="shape8954-42" transform="translate(19.7968,-2.84217E-13)">
				<title>path23-4-1</title>
				<path d="M28.15 67.97 L0 67.97 L0 94.84 C0 95.27 0.15 95.72 0.42 96.05 C0.68 96.38 32.22 67.97 32.22 67.97 L28.15
							 67.97 Z" class="st4"/>
			</g>
			<g id="shape8955-44" transform="translate(25.5748,-4.3026)">
				<title>path9-0-2-5</title>
				<path d="M0 94.14 L10.13 86.17 L11.9 88.24 L1.77 96.38 L0 94.14 Z" class="st5"/>
			</g>
			<g id="shape8956-46" transform="translate(22.1115,-4.3026)">
				<title>path9-0-9-5-3</title>
				<path d="M5.24 96.38 L0 90.81 L2.33 88.78 L7.64 94.5 L5.24 96.38 Z" class="st6"/>
			</g>
			<g id="shape8957-48" transform="translate(26.059,-14.9156)">
				<title>path9-0-5-1-4</title>
				<path d="M0 94.14 L10.13 86.17 L11.9 88.24 L1.77 96.38 L0 94.14 Z" class="st5"/>
			</g>
			<g id="shape8958-50" transform="translate(22.5957,-14.9156)">
				<title>path9-0-9-8-4-1</title>
				<path d="M5.24 96.38 L0 90.81 L2.33 88.78 L7.64 94.5 L5.24 96.38 Z" class="st6"/>
			</g>
		</g>
	</g>
</svg>
