<?xml version="1.0" encoding="UTF-8" standalone="no"?>
<!DOCTYPE svg PUBLIC "-//W3C//DTD SVG 1.1//EN" "http://www.w3.org/Graphics/SVG/1.1/DTD/svg11.dtd">
<!-- Generated by Microsoft Visio, SVG Export Active Directory Rights Management Server.svg Page-1 -->
<svg xmlns="http://www.w3.org/2000/svg" xmlns:xlink="http://www.w3.org/1999/xlink" xmlns:ev="http://www.w3.org/2001/xml-events"
		width="1.61021in" height="1.73206in" viewBox="0 0 115.935 124.709" xml:space="preserve" color-interpolation-filters="sRGB"
		class="st2">
	<style type="text/css">
	<![CDATA[
		.st1 {fill:url(#grad0-7);stroke:none;stroke-linecap:butt;stroke-width:34}
		.st2 {fill:none;fill-rule:evenodd;font-size:12px;overflow:visible;stroke-linecap:square;stroke-miterlimit:3}
	]]>
	</style>

	<defs id="Patterns_And_Gradients">
		<linearGradient id="grad0-7" x1="0" y1="0" x2="1" y2="0" gradientTransform="rotate(-90 0.5 0.5)">
			<stop offset="0" stop-color="#5e9624" stop-opacity="1"/>
			<stop offset="0.18" stop-color="#629c25" stop-opacity="1"/>
			<stop offset="0.44" stop-color="#6dae2a" stop-opacity="1"/>
			<stop offset="0.73" stop-color="#7fcb30" stop-opacity="1"/>
			<stop offset="0.82" stop-color="#86d633" stop-opacity="1"/>
		</linearGradient>
	</defs>
	<g>
		<title>Page-1</title>
		<g id="group11114-1" transform="translate(33.865,-34.0157)">
			<title>Active Directory Rights Management Server.11114</title>
			<g id="group11115-2">
				<title>Page-1</title>
				<g id="group11116-3">
					<title>Azure Rights Management</title>
					<g id="shape11117-4">
						<title>Sheet.11117</title>
						<path d="M46.85 91.17 L43.65 91.17 L43.65 87.34 C43.65 82.09 41.65 77.23 38.45 73.78 C35.12 70.2 29.24 68.02
									 24.16 68.02 C19.09 68.02 13.09 70.32 9.87 73.78 C6.54 77.23 4.54 82.09 4.54 87.34 L4.54 91.17
									 L1.34 91.17 C0 91.17 0.14 92.2 0.14 93.61 L0.14 122.27 C0.14 123.55 1.2 124.71 2.54 124.71 L45.65
									 124.71 C46.99 124.71 48.07 123.69 48.07 122.27 L48.07 93.61 C48.07 92.33 48.19 91.17 46.85 91.17
									 ZM28.96 112.29 C29.64 111.91 30.3 111.66 31.1 111.66 C33.12 111.66 34.72 113.19 34.72 115.12
									 C34.72 117.02 33.12 118.56 31.1 118.56 C29.1 118.56 27.5 117.02 27.5 115.12 C27.5 114.98 27.5
									 114.98 27.5 114.84 L18.15 110.24 C17.49 110.89 16.69 111.14 15.61 111.14 C13.61 111.14 12.01
									 109.61 12.01 107.69 C12.01 105.76 13.61 104.23 15.61 104.23 C16.55 104.23 17.49 104.62 18.03
									 105.13 L27.36 100.51 C27.36 100.51 27.36 100.39 27.36 100.39 C27.36 98.47 28.96 96.93 30.98
									 96.93 C32.98 96.93 34.58 98.47 34.58 100.39 C34.58 102.32 32.98 103.85 30.98 103.85 C30.18 103.85
									 29.36 103.6 28.7 103.08 L19.37 107.69 L28.96 112.29 ZM34.98 91.17 L13.09 91.17 L13.09 86.57
									 C13.09 83.51 14.15 81.58 16.03 79.65 C17.89 77.75 21.49 76.72 24.16 76.72 C26.84 76.72 30.3
									 77.75 32.18 79.65 C33.92 81.58 35.12 84.27 35.12 87.34 L35.12 91.17 L34.98 91.17 Z"
								class="st1"/>
					</g>
				</g>
			</g>
		</g>
	</g>
</svg>
