<?xml version="1.0" encoding="UTF-8" standalone="no"?>
<!DOCTYPE svg PUBLIC "-//W3C//DTD SVG 1.1//EN" "http://www.w3.org/Graphics/SVG/1.1/DTD/svg11.dtd">
<!-- Generated by Microsoft Visio, SVG Export Exchange Edge Transport Server.svg Page-1 -->
<svg xmlns="http://www.w3.org/2000/svg" xmlns:xlink="http://www.w3.org/1999/xlink" xmlns:ev="http://www.w3.org/2001/xml-events"
		width="2.30957in" height="1.97419in" viewBox="0 0 166.289 142.141" xml:space="preserve" color-interpolation-filters="sRGB"
		class="st4">
	<style type="text/css">
	<![CDATA[
		.st1 {fill:url(#grad0-10);stroke:none;stroke-linecap:butt;stroke-width:33.9999}
		.st2 {fill:#ffffff;stroke:none;stroke-linecap:round;stroke-linejoin:round;stroke-width:0.749998}
		.st3 {fill:url(#grad0-19);stroke:none;stroke-linecap:butt;stroke-width:63.4472}
		.st4 {fill:none;fill-rule:evenodd;font-size:12px;overflow:visible;stroke-linecap:square;stroke-miterlimit:3}
	]]>
	</style>

	<defs id="Patterns_And_Gradients">
		<linearGradient id="grad0-10" x1="0" y1="0" x2="1" y2="0" gradientTransform="rotate(-90 0.5 0.5)">
			<stop offset="0" stop-color="#0879e2" stop-opacity="1"/>
			<stop offset="0.325" stop-color="#0a7de4" stop-opacity="1"/>
			<stop offset="0.62" stop-color="#1088eb" stop-opacity="1"/>
			<stop offset="0.91" stop-color="#199af6" stop-opacity="1"/>
			<stop offset="1" stop-color="#1da2fa" stop-opacity="1"/>
		</linearGradient>
		<linearGradient id="grad0-19" x1="0" y1="0" x2="1" y2="0" gradientTransform="rotate(90 0.5 0.5)">
			<stop offset="0" stop-color="#005ba1" stop-opacity="1"/>
			<stop offset="0.26" stop-color="#00589d" stop-opacity="1"/>
			<stop offset="0.53" stop-color="#004f90" stop-opacity="1"/>
			<stop offset="0.8" stop-color="#003f7c" stop-opacity="1"/>
			<stop offset="1" stop-color="#003067" stop-opacity="1"/>
		</linearGradient>
	</defs>
	<g>
		<title>Page-1</title>
		<g id="group10886-1" transform="translate(54.7703,-42.584)">
			<title>Exchange Edge Transport Server.10886</title>
			<g id="group10887-2">
				<title>Page-1</title>
				<g id="group10888-3">
					<title>Sheet.10888</title>
					<g id="group10889-4">
						<title>Sheet.10889</title>
						<g id="group10890-5">
							<title>g8</title>
							<g id="group10891-6">
								<title>path6</title>
								<g id="shape10892-7">
									<title>Sheet.10892</title>
									<path d="M28.34 85.45 C12.58 85.45 0 98.37 0 113.8 C0 129.56 12.92 142.14 28.34 142.14 C43.76
												 142.14 56.69 129.22 56.69 113.8 C56.69 98.37 44.1 85.45 28.34 85.45 ZM28.34 89.18
												 C41.95 89.18 52.95 100.19 52.95 113.8 C52.95 127.4 41.83 138.41 28.34 138.41 C14.86
												 138.41 3.74 127.3 3.74 113.8 C3.74 100.29 14.74 89.18 28.34 89.18 Z" class="st1"/>
								</g>
							</g>
						</g>
						<g id="group10893-11" transform="translate(2.43757,-2.43269)">
							<title>Sheet.10893</title>
							<g id="shape10894-12">
								<title>Sheet.10894</title>
								<ellipse cx="25.9063" cy="116.227" rx="25.9063" ry="25.9141" class="st2"/>
							</g>
						</g>
					</g>
					<g id="group10895-14" transform="translate(8.67683,-20.9031)">
						<title>Sheet.10895</title>
						<g id="group10896-15" transform="translate(9.36706,0)">
							<title>path33</title>
							<g id="shape10897-16" transform="translate(0,269.125) scale(1,-1)">
								<title>Sheet.10897</title>
								<path d="M29.72 134.11 L21.14 127.04 a0.45942 0.378118 -0 0 0 -0.765703 0.315099 L20.37 131.64 a0.45942
											 0.378118 180 0 1 -0.45942 0.378118 L0 132.03 L0 137.26 L19.91 137.26 a0.45942 0.378118
											 180 0 1 0.45942 0.378118 L20.37 141.97 a0.45942 0.378118 -0 0 0 0.765703 -2.84217E-14
											 L29.72 135.23 a0.91884 0.756236 -0 0 0 9.23706E-14 -1.13435 L29.72 134.11 Z"
										class="st3"/>
							</g>
						</g>
						<g id="group10898-20" transform="translate(0,-0.00957407)">
							<title>path33.668</title>
							<g id="shape10899-21" transform="translate(30.0276,-1.7053E-13) scale(-1,1)">
								<title>Sheet.10899</title>
								<path d="M29.72 134.11 L21.14 127.04 a0.45942 0.378118 -0 0 0 -0.765703 0.315099 L20.37 131.64 a0.45942
											 0.378118 180 0 1 -0.45942 0.378118 L0 132.03 L0 137.26 L19.91 137.26 a0.45942 0.378118
											 180 0 1 0.45942 0.378118 L20.37 141.97 a0.45942 0.378118 -0 0 0 0.765703 -2.84217E-14
											 L29.72 135.23 a0.91884 0.756236 -0 0 0 9.59233E-14 -1.13435 L29.72 134.11 Z"
										class="st3"/>
							</g>
						</g>
					</g>
				</g>
			</g>
		</g>
	</g>
</svg>
