<?xml version="1.0" encoding="UTF-8" standalone="no"?>
<!-- Generated by Microsoft Visio, SVG Export Bastion.svg Page-1 -->

<svg
   xmlns:dc="http://purl.org/dc/elements/1.1/"
   xmlns:cc="http://creativecommons.org/ns#"
   xmlns:rdf="http://www.w3.org/1999/02/22-rdf-syntax-ns#"
   xmlns:svg="http://www.w3.org/2000/svg"
   xmlns="http://www.w3.org/2000/svg"
   xmlns:sodipodi="http://sodipodi.sourceforge.net/DTD/sodipodi-0.dtd"
   xmlns:inkscape="http://www.inkscape.org/namespaces/inkscape"
   width="0.77736056in"
   height="0.77203637in"
   viewBox="0 0 55.970019 55.586554"
   xml:space="preserve"
   class="st2"
   version="1.1"
   id="svg19"
   sodipodi:docname="Bastion.svg"
   style="font-size:12px;overflow:visible;color-interpolation-filters:sRGB;fill:none;fill-rule:evenodd;stroke-linecap:square;stroke-miterlimit:3"
   inkscape:version="0.92.5 (2060ec1f9f, 2020-04-08)"><metadata
   id="metadata25"><rdf:RDF><cc:Work
       rdf:about=""><dc:format>image/svg+xml</dc:format><dc:type
         rdf:resource="http://purl.org/dc/dcmitype/StillImage" /></cc:Work></rdf:RDF></metadata><defs
   id="defs23" /><sodipodi:namedview
   pagecolor="#ffffff"
   bordercolor="#666666"
   borderopacity="1"
   objecttolerance="10"
   gridtolerance="10"
   guidetolerance="10"
   inkscape:pageopacity="0"
   inkscape:pageshadow="2"
   inkscape:window-width="640"
   inkscape:window-height="480"
   id="namedview21"
   showgrid="false"
   inkscape:zoom="1.73066"
   inkscape:cx="37.31424"
   inkscape:cy="22.2533"
   inkscape:window-x="0"
   inkscape:window-y="0"
   inkscape:window-maximized="0"
   inkscape:current-layer="svg19" />
	<style
   type="text/css"
   id="style2">
	<![CDATA[
		.st1 {fill:#0072c6;stroke:none;stroke-linecap:butt;stroke-width:12.24}
		.st2 {fill:none;fill-rule:evenodd;font-size:12px;overflow:visible;stroke-linecap:square;stroke-miterlimit:3}
	]]>
	</style>

	<g
   id="g17"
   transform="translate(-12.241091,-12.239928)">
		<title
   id="title4">Page-1</title>
		<g
   id="group19370-1"
   transform="translate(12.0002,-34.0157)">
			<title
   id="title6">Bastion.19370</title>
			<g
   id="group19371-2">
				<title
   id="title8">Sheet.19371</title>
				<g
   id="shape19372-3">
					<title
   id="title10">Sheet.19372</title>
					<path
   d="m 25.13,87.71 c -7.32,5 -19.04,12.67 -20.17,13.56 -1.47,1 -3.61,0.56 -4.28,-0.33 C 0,99.94 0,97.83 1.47,96.83 2.37,96.27 17.81,85.93 22.54,82.71 l 2.71,2.89 c 1.24,1.22 -0.12,2.11 -0.12,2.11 z m -0.33,-7 c 0,0 -13.53,-14.34 -15.11,-15.9 -1.46,-1.67 -0.11,-3.56 0.68,-4.22 0.79,-0.67 3.16,-1.67 4.39,-0.45 1.24,1.23 16.35,17.23 17.47,18.46 1.13,1.22 1.02,3.11 -0.9,4.44 -0.33,0.22 -1.24,0.89 -2.59,1.78 -0.11,0.11 -0.68,0.56 -1.24,0.89 0,0 1.24,-0.89 0.34,-1.89 z m 9.69,-9.45 c 6.09,6.45 15.55,16.56 16.57,17.56 1.24,1.34 3.38,1.34 4.28,0.56 0.9,-0.78 1.35,-2.78 0.11,-4.11 C 54.78,84.49 42.04,71.04 38.21,66.92 l -3.27,2.23 c -1.58,0.89 -0.45,2.11 -0.45,2.11 z m 1.35,-6.56 c 0,0 16.34,-11.23 18.15,-12.56 1.8,-1.33 0.9,-3.45 0.22,-4.23 -0.67,-0.77 -2.7,-2.33 -4.17,-1.33 -1.46,1 -19.61,13.45 -20.96,14.45 -1.35,1 -1.69,2.78 0,4.56 0.22,0.33 1.01,1.11 2.14,2.33 0.11,0.12 0.56,0.67 1.01,1.12 0,0 -1.01,-1.12 0.12,-1.89 z"
   class="st1"
   id="path12"
   inkscape:connector-curvature="0"
   style="fill:#0072c6;stroke:none;stroke-width:12.23999977;stroke-linecap:butt" />
				</g>
			</g>
		</g>
	</g>
</svg>