<?xml version="1.0" encoding="UTF-8" standalone="no"?>
<!-- Generated by Microsoft Visio, SVG Export Data Box Gateway.svg Page-1 -->

<svg
   xmlns:dc="http://purl.org/dc/elements/1.1/"
   xmlns:cc="http://creativecommons.org/ns#"
   xmlns:rdf="http://www.w3.org/1999/02/22-rdf-syntax-ns#"
   xmlns:svg="http://www.w3.org/2000/svg"
   xmlns="http://www.w3.org/2000/svg"
   xmlns:sodipodi="http://sodipodi.sourceforge.net/DTD/sodipodi-0.dtd"
   xmlns:inkscape="http://www.inkscape.org/namespaces/inkscape"
   width="0.78741395in"
   height="0.55134916in"
   viewBox="0 0 56.693779 39.697062"
   xml:space="preserve"
   class="st5"
   version="1.1"
   id="svg46"
   sodipodi:docname="Data Box Gateway.svg"
   style="font-size:12px;overflow:visible;color-interpolation-filters:sRGB;fill:none;fill-rule:evenodd;stroke-linecap:square;stroke-miterlimit:3"
   inkscape:version="0.92.5 (2060ec1f9f, 2020-04-08)"><metadata
   id="metadata50"><rdf:RDF><cc:Work
       rdf:about=""><dc:format>image/svg+xml</dc:format><dc:type
         rdf:resource="http://purl.org/dc/dcmitype/StillImage" /></cc:Work></rdf:RDF></metadata><sodipodi:namedview
   pagecolor="#ffffff"
   bordercolor="#666666"
   borderopacity="1"
   objecttolerance="10"
   gridtolerance="10"
   guidetolerance="10"
   inkscape:pageopacity="0"
   inkscape:pageshadow="2"
   inkscape:window-width="640"
   inkscape:window-height="480"
   id="namedview48"
   showgrid="false"
   inkscape:zoom="2.1979234"
   inkscape:cx="37.800097"
   inkscape:cy="8.3322984"
   inkscape:window-x="0"
   inkscape:window-y="0"
   inkscape:window-maximized="0"
   inkscape:current-layer="svg46" />
	<style
   type="text/css"
   id="style2">
	<![CDATA[
		.st1 {fill:url(#grad0-8);stroke:none;stroke-width:6.822}
		.st2 {fill:#50e6ff;stroke:none;stroke-width:6.822}
		.st3 {fill:#ffffff;fill-opacity:0.75;stroke:none;stroke-width:6.822}
		.st4 {fill:#ffffff;stroke:none;stroke-width:6.822}
		.st5 {fill:none;fill-rule:evenodd;font-size:12px;overflow:visible;stroke-linecap:square;stroke-miterlimit:3}
	]]>
	</style>

	<defs
   id="Patterns_And_Gradients">
		<linearGradient
   id="grad0-8"
   x1="0"
   y1="48.807297"
   x2="47.438697"
   y2="48.807297"
   gradientTransform="scale(1.195016,0.83680891)"
   gradientUnits="userSpaceOnUse">
			<stop
   offset="0"
   stop-color="#0078d4"
   stop-opacity="1"
   id="stop4" />
			<stop
   offset="0.815"
   stop-color="#5ea0ef"
   stop-opacity="1"
   id="stop6" />
		</linearGradient>
	</defs>
	<g
   id="g44"
   transform="translate(-6.8185403,-6.817358)">
		<title
   id="title10">Page-1</title>
		<g
   id="group20403-1"
   transform="translate(6.82232,-34.0157)">
			<title
   id="title12">Data Box Gateway.20403</title>
			<g
   id="group20404-2">
				<title
   id="title14">g10</title>
				<g
   id="group20405-3">
					<title
   id="title16">g14-9</title>
					<g
   id="group20406-4">
						<title
   id="title18">Icon691_DataBox_Gateway</title>
						<g
   id="shape20407-5"
   transform="translate(0,-0.00938402)">
							<title
   id="title20">path4</title>
							<path
   d="M 56.69,68.1 A 12.7333,12.5715 -180 0 0 45.64,56.02 16.0568,15.8527 -180 0 0 29.1,40.85 16.475,16.2656 -180 0 0 13.36,51.45 15.2077,15.0144 -180 0 0 0,65.89 15.4263,15.2303 -180 0 0 15.96,80.53 c 0.48,0 0.95,-0.02 1.41,-0.06 h 25.87 a 2.53461,2.50241 -180 0 0 0.68,-0.1 12.8885,12.7247 -180 0 0 12.77,-12.27 z"
   class="st1"
   id="path22"
   inkscape:connector-curvature="0"
   style="fill:url(#grad0-8);stroke:none;stroke-width:6.82200003" />
						</g>
						<g
   id="shape20408-9"
   transform="translate(4.26586)">
							<title
   id="title25">path6</title>
							<path
   d="M 25.56,65.52 A 14.9162,14.7267 -180 1 0 10.65,80.53 H 25.57 V 65.52 Z"
   class="st2"
   id="path27"
   inkscape:connector-curvature="0"
   style="fill:#50e6ff;stroke:none;stroke-width:6.82200003" />
						</g>
						<g
   id="shape20409-11"
   transform="translate(3.86856,-6.57507)">
							<title
   id="title30">path8</title>
							<path
   d="m 0.16,75.85 5.65,4.61 A 0.535437,0.528633 -180 0 0 6.687609,80.053359 L 6.68,78.05 H 20.16 V 74.92 H 0.52 a 0.532268,0.525505 -180 0 0 -0.354846,0.932146 z"
   class="st3"
   id="path32"
   inkscape:connector-curvature="0"
   style="fill:#ffffff;fill-opacity:0.75;stroke:none;stroke-width:6.82200003" />
						</g>
						<g
   id="shape20410-13"
   transform="translate(6.20029,-14.9863)">
							<title
   id="title35">path10</title>
							<path
   d="m 18.85,79.6 -5.77,-4.62 a 0.535437,0.528633 -180 0 0 -0.874441,0.406641 L 12.21,77.4 H 0 v 3.13 h 18.51 a 0.532268,0.525505 -180 0 0 0.339004,-0.935274 z"
   class="st4"
   id="path37"
   inkscape:connector-curvature="0"
   style="fill:#ffffff;stroke:none;stroke-width:6.82200003" />
						</g>
					</g>
				</g>
			</g>
		</g>
	</g>
</svg>