<?xml version="1.0" encoding="UTF-8" standalone="no"?>
<!DOCTYPE svg PUBLIC "-//W3C//DTD SVG 1.1//EN" "http://www.w3.org/Graphics/SVG/1.1/DTD/svg11.dtd">
<!-- Generated by Microsoft Visio, SVG Export Data Box.svg Page-1 -->
<svg xmlns="http://www.w3.org/2000/svg" xmlns:xlink="http://www.w3.org/1999/xlink" xmlns:ev="http://www.w3.org/2001/xml-events"
		width="1.67952in" height="1.66643in" viewBox="0 0 120.926 119.983" xml:space="preserve" color-interpolation-filters="sRGB"
		class="st5">
	<style type="text/css">
	<![CDATA[
		.st1 {fill:url(#grad0-6);stroke:none;stroke-linecap:butt;stroke-width:32.1017}
		.st2 {fill:#50e6ff;stroke:none;stroke-linecap:butt;stroke-width:32.1017}
		.st3 {fill:#0078d4;stroke:none;stroke-linecap:butt;stroke-width:32.1016}
		.st4 {fill:#ffffff;stroke:none;stroke-linecap:butt;stroke-width:32.1016}
		.st5 {fill:none;fill-rule:evenodd;font-size:12px;overflow:visible;stroke-linecap:square;stroke-miterlimit:3}
	]]>
	</style>

	<defs id="Patterns_And_Gradients">
		<linearGradient id="grad0-6" x1="0" y1="0" x2="1" y2="0" gradientTransform="rotate(-90 0.5 0.5)">
			<stop offset="0" stop-color="#0078d4" stop-opacity="1"/>
			<stop offset="0.82" stop-color="#5ea0ef" stop-opacity="1"/>
		</linearGradient>
	</defs>
	<g>
		<title>Page-1</title>
		<g id="group10012-1" transform="translate(32.131,-34.0157)">
			<title>Data Box.10012</title>
			<g id="group10013-2" transform="translate(0,-13.9794)">
				<title>g15</title>
				<g id="shape10014-3">
					<title>path11</title>
					<path d="M56.69 107.49 A12.7559 12.6597 -180 0 0 45.64 95.33 A16.063 15.9418 -180 0 0 29.1 80.1 A16.4724 16.3482
								 -180 0 0 13.35 90.73 A15.2441 15.1291 -180 0 0 0 105.27 A15.4016 15.2854 -180 0 0 15.97 119.96 A9.98425
								 9.90892 -180 0 0 17.35 119.96 L43.21 119.96 A2.45669 2.43816 -180 0 0 43.91 119.96 A12.8819 12.7847
								 -180 0 0 56.69 107.49 Z" class="st1"/>
				</g>
				<g id="shape10015-7" transform="translate(4.24426,-0.0243671)">
					<title>path13</title>
					<path d="M25.58 104.92 A14.9291 14.8165 -180 1 0 10.68 119.98 L25.58 119.98 L25.58 104.92 Z" class="st2"/>
				</g>
			</g>
			<g id="shape10016-9" transform="translate(22.4495,-2.55795E-13)">
				<title>path17</title>
				<path d="M14.72 112.86 L7.63 119.86 a0.314961 0.312584 0 0 1 -0.503938 0 L0.07 112.86 a0.377953 0.375101 0 0 1 0.251972
							 -0.625173 L4.48 112.23 a0.346457 0.343843 -180 0 0 0.346456 -0.437614 L4.83 102.73 a0.346457 0.343843
							 0 0 1 0.377951 -0.312587 L9.58 102.42 a0.346457 0.343843 0 0 1 0.346456 0.343844 L9.93 111.79 a0.346457
							 0.343843 -180 0 0 0.377955 0.343842 L14.46 112.14 a0.383491 0.380597 0 0 1 0.251971 0.718945 Z"
						class="st3"/>
			</g>
			<g id="shape10017-11" transform="translate(22.4701,-14.035)">
				<title>path19</title>
				<path d="M0.05 109.64 L7.36 102.38 L14.7 109.64 a0.346457 0.343843 0 0 1 -0.251971 0.593913 L10.29 110.23 a0.377953
							 0.375101 -180 0 0 -0.377955 0.375098 L9.91 119.98 L4.81 119.98 L4.81 110.61 a0.377953 0.375101 -180
							 0 0 -0.346456 -0.406359 L0.3 110.2 a0.346457 0.343843 0 0 1 -0.251972 -0.562652 Z" class="st4"/>
			</g>
		</g>
	</g>
</svg>
