<?xml version="1.0" encoding="UTF-8" standalone="no"?>
<!DOCTYPE svg PUBLIC "-//W3C//DTD SVG 1.1//EN" "http://www.w3.org/Graphics/SVG/1.1/DTD/svg11.dtd">
<!-- Generated by Microsoft Visio, SVG Export Managed Disk Premium SSD.svg Page-1 -->
<svg xmlns="http://www.w3.org/2000/svg" xmlns:xlink="http://www.w3.org/1999/xlink" xmlns:ev="http://www.w3.org/2001/xml-events"
		width="0.944882in" height="1.20866in" viewBox="0 0 68.0315 87.0236" xml:space="preserve" color-interpolation-filters="sRGB"
		class="st6">
	<style type="text/css">
	<![CDATA[
		.st1 {fill:#661db0;stroke:none;stroke-linecap:butt;stroke-width:0.749999}
		.st2 {fill:#945ccf;stroke:none;stroke-linecap:butt;stroke-width:0.749999}
		.st3 {fill:#ffffff;fill-opacity:0.25;stroke:none;stroke-linecap:butt;stroke-width:0.749999}
		.st4 {fill:#0072c6;stroke:none;stroke-linecap:butt;stroke-width:0.749999}
		.st5 {fill:#59b4d9;stroke:none;stroke-linecap:butt;stroke-width:0.749999}
		.st6 {fill:none;fill-rule:evenodd;font-size:12px;overflow:visible;stroke-linecap:square;stroke-miterlimit:3}
	]]>
	</style>

	<g>
		<title>Page-1</title>
		<g id="group9954-1" transform="translate(5.66929,-34.0157)">
			<title>Managed Disk Premium SSD.9954</title>
			<g id="group9955-2">
				<title>Page-1</title>
				<g id="group9956-3">
					<title>Managed Disk Premium SSD</title>
					<g id="group9957-4">
						<title>Sheet.9957</title>
						<g id="shape9958-5">
							<title>Sheet.9958</title>
							<path d="M56.69 76.76 C56.69 82.43 44 87.02 28.35 87.02 C12.69 87.02 0 82.43 0 76.76 L0 71.23 L56.69
										 71.23 L56.69 76.76 Z" class="st1"/>
						</g>
					</g>
					<g id="group9959-7" transform="translate(0,-5.53254)">
						<title>Sheet.9959</title>
						<g id="shape9960-8">
							<title>Sheet.9960</title>
							<path d="M56.69 76.76 C56.69 82.43 44 87.02 28.35 87.02 C12.69 87.02 0 82.43 0 76.76 C0 71.09 12.69 66.49
										 28.35 66.49 C44 66.49 56.69 71.09 56.69 76.76 Z" class="st2"/>
						</g>
					</g>
					<g id="group9961-10" transform="translate(19.2573,-13.659)">
						<title>Sheet.9961</title>
						<g id="shape9962-11">
							<title>Sheet.9962</title>
							<path d="M18.18 84.3 C18.18 85.81 14.11 87.02 9.08 87.02 C4.07 87.02 0 85.81 0 84.3 C0 82.78 4.07 81.57
										 9.08 81.57 C14.11 81.57 18.18 82.78 18.18 84.3 Z" class="st1"/>
						</g>
					</g>
					<g id="group9963-13" transform="translate(30.1015,-18.2574)">
						<title>Sheet.9963</title>
						<g id="shape9964-14">
							<title>Sheet.9964</title>
							<path d="M18.74 82.46 C14.76 80.94 9.55 79.88 3.68 79.47 L0 86.28 C1.81 86.38 3.43 86.65 4.68 87.02 L18.74
										 82.46 Z" class="st3"/>
						</g>
					</g>
					<g id="group9965-16" transform="translate(6.69199,-5.66746)">
						<title>Sheet.9965</title>
						<g id="shape9966-17">
							<title>Sheet.9966</title>
							<path d="M0 83.58 C4.08 85.32 9.75 86.57 16.2 87.02 L20.5 79.07 C18.71 79 17.08 78.78 15.78 78.44 L0
										 83.58 Z" class="st3"/>
						</g>
					</g>
					<g id="group9967-19" transform="translate(0,-22.1256)">
						<title>Sheet.9967</title>
						<g id="shape9968-20">
							<title>Sheet.9968</title>
							<path d="M56.69 76.76 C56.69 82.43 44 87.02 28.35 87.02 C12.69 87.02 0 82.43 0 76.76 L0 71.23 L56.69
										 71.23 L56.69 76.76 Z" class="st4"/>
						</g>
					</g>
					<g id="group9969-22" transform="translate(0,-27.6582)">
						<title>Sheet.9969</title>
						<g id="shape9970-23">
							<title>Sheet.9970</title>
							<path d="M56.69 76.76 C56.69 82.43 44 87.02 28.35 87.02 C12.69 87.02 0 82.43 0 76.76 C0 71.09 12.69 66.49
										 28.35 66.49 C44 66.49 56.69 71.09 56.69 76.76 Z" class="st5"/>
						</g>
					</g>
					<g id="group9971-25" transform="translate(19.2573,-35.7846)">
						<title>Sheet.9971</title>
						<g id="shape9972-26">
							<title>Sheet.9972</title>
							<path d="M18.18 84.3 C18.18 85.81 14.11 87.02 9.08 87.02 C4.07 87.02 0 85.81 0 84.3 C0 82.78 4.07 81.57
										 9.08 81.57 C14.11 81.57 18.18 82.78 18.18 84.3 Z" class="st4"/>
						</g>
					</g>
					<g id="group9973-28" transform="translate(30.1015,-40.4397)">
						<title>Sheet.9973</title>
						<g id="shape9974-29">
							<title>Sheet.9974</title>
							<path d="M18.74 82.46 C14.76 80.94 9.55 79.88 3.68 79.47 L0 86.28 C1.81 86.38 3.43 86.65 4.68 87.02 L18.74
										 82.46 Z" class="st3"/>
						</g>
					</g>
					<g id="group9975-31" transform="translate(6.69199,-27.8498)">
						<title>Sheet.9975</title>
						<g id="shape9976-32">
							<title>Sheet.9976</title>
							<path d="M0 83.58 C4.08 85.32 9.75 86.57 16.2 87.02 L20.5 79.07 C18.71 79 17.08 78.78 15.78 78.44 L0
										 83.58 Z" class="st3"/>
						</g>
					</g>
				</g>
			</g>
		</g>
	</g>
</svg>
