<?xml version="1.0" encoding="UTF-8" standalone="no"?>
<!DOCTYPE svg PUBLIC "-//W3C//DTD SVG 1.1//EN" "http://www.w3.org/Graphics/SVG/1.1/DTD/svg11.dtd">
<!-- Generated by Microsoft Visio, SVG Export Managed Disk Standard SSD.svg Page-1 -->
<svg xmlns="http://www.w3.org/2000/svg" xmlns:xlink="http://www.w3.org/1999/xlink" xmlns:ev="http://www.w3.org/2001/xml-events"
		width="0.944882in" height="1.20866in" viewBox="0 0 68.0315 87.0236" xml:space="preserve" color-interpolation-filters="sRGB"
		class="st6">
	<style type="text/css">
	<![CDATA[
		.st1 {fill:#7fba00;stroke:none;stroke-linecap:butt;stroke-width:0.749999}
		.st2 {fill:#b8d432;stroke:none;stroke-linecap:butt;stroke-width:0.749999}
		.st3 {fill:#ffffff;fill-opacity:0.25;stroke:none;stroke-linecap:butt;stroke-width:0.749999}
		.st4 {fill:#0072c6;stroke:none;stroke-linecap:butt;stroke-width:0.749999}
		.st5 {fill:#59b4d9;stroke:none;stroke-linecap:butt;stroke-width:0.749999}
		.st6 {fill:none;fill-rule:evenodd;font-size:12px;overflow:visible;stroke-linecap:square;stroke-miterlimit:3}
	]]>
	</style>

	<g>
		<title>Page-1</title>
		<g id="group9899-1" transform="translate(5.66929,-34.0157)">
			<title>Managed Disk Standard SSD.9899</title>
			<g id="group9900-2">
				<title>Page-1</title>
				<g id="group9901-3">
					<title>Managed Disk Standard SSD</title>
					<g id="group9902-4">
						<title>Sheet.9902</title>
						<g id="shape9903-5">
							<title>Sheet.9903</title>
							<path d="M56.69 76.76 C56.69 82.43 44 87.02 28.35 87.02 C12.69 87.02 0 82.43 0 76.76 L0 71.22 L56.69
										 71.22 L56.69 76.76 Z" class="st1"/>
						</g>
					</g>
					<g id="group9904-7" transform="translate(0,-5.53254)">
						<title>Sheet.9904</title>
						<g id="shape9905-8">
							<title>Sheet.9905</title>
							<path d="M56.69 76.76 C56.69 82.43 44 87.02 28.35 87.02 C12.69 87.02 0 82.43 0 76.76 C0 71.09 12.69 66.49
										 28.35 66.49 C44 66.49 56.69 71.09 56.69 76.76 Z" class="st2"/>
						</g>
					</g>
					<g id="group9906-10" transform="translate(19.2573,-13.659)">
						<title>Sheet.9906</title>
						<g id="shape9907-11">
							<title>Sheet.9907</title>
							<path d="M18.18 84.3 C18.18 85.8 14.11 87.02 9.08 87.02 C4.07 87.02 0 85.8 0 84.3 C0 82.78 4.07 81.56
										 9.08 81.56 C14.11 81.56 18.18 82.78 18.18 84.3 Z" class="st1"/>
						</g>
					</g>
					<g id="group9908-13" transform="translate(30.1015,-18.2574)">
						<title>Sheet.9908</title>
						<g id="shape9909-14">
							<title>Sheet.9909</title>
							<path d="M18.74 82.45 C14.76 80.94 9.55 79.88 3.68 79.46 L0 86.27 C1.81 86.37 3.43 86.64 4.68 87.02 L18.74
										 82.45 Z" class="st3"/>
						</g>
					</g>
					<g id="group9910-16" transform="translate(6.69199,-5.66746)">
						<title>Sheet.9910</title>
						<g id="shape9911-17">
							<title>Sheet.9911</title>
							<path d="M0 83.57 C4.08 85.32 9.75 86.56 16.2 87.02 L20.5 79.06 C18.71 78.99 17.08 78.77 15.78 78.44
										 L0 83.57 Z" class="st3"/>
						</g>
					</g>
					<g id="group9912-19" transform="translate(0,-22.1256)">
						<title>Sheet.9912</title>
						<g id="shape9913-20">
							<title>Sheet.9913</title>
							<path d="M56.69 76.76 C56.69 82.43 44 87.02 28.35 87.02 C12.69 87.02 0 82.42 0 76.76 L0 71.22 L56.69
										 71.22 L56.69 76.76 Z" class="st4"/>
						</g>
					</g>
					<g id="group9914-22" transform="translate(0,-27.6582)">
						<title>Sheet.9914</title>
						<g id="shape9915-23">
							<title>Sheet.9915</title>
							<path d="M56.69 76.76 C56.69 82.43 44 87.02 28.35 87.02 C12.69 87.02 0 82.42 0 76.76 C0 71.09 12.69 66.49
										 28.35 66.49 C44 66.49 56.69 71.09 56.69 76.76 Z" class="st5"/>
						</g>
					</g>
					<g id="group9916-25" transform="translate(19.2573,-35.7846)">
						<title>Sheet.9916</title>
						<g id="shape9917-26">
							<title>Sheet.9917</title>
							<path d="M18.18 84.3 C18.18 85.8 14.11 87.02 9.08 87.02 C4.07 87.02 0 85.8 0 84.3 C0 82.78 4.07 81.56
										 9.08 81.56 C14.11 81.56 18.18 82.78 18.18 84.3 Z" class="st4"/>
						</g>
					</g>
					<g id="group9918-28" transform="translate(30.1015,-40.4397)">
						<title>Sheet.9918</title>
						<g id="shape9919-29">
							<title>Sheet.9919</title>
							<path d="M18.74 82.45 C14.76 80.94 9.55 79.88 3.68 79.46 L0 86.27 C1.81 86.37 3.43 86.64 4.68 87.02 L18.74
										 82.45 Z" class="st3"/>
						</g>
					</g>
					<g id="group9920-31" transform="translate(6.69199,-27.8498)">
						<title>Sheet.9920</title>
						<g id="shape9921-32">
							<title>Sheet.9921</title>
							<path d="M0 83.57 C4.08 85.32 9.75 86.56 16.2 87.02 L20.5 79.06 C18.71 78.99 17.08 78.77 15.78 78.44
										 L0 83.57 Z" class="st3"/>
						</g>
					</g>
				</g>
			</g>
		</g>
	</g>
</svg>
