<?xml version="1.0" encoding="UTF-8" standalone="no"?>
<!-- Generated by Microsoft Visio, SVG Export Managed Disk Standard HDD.svg Page-1 -->

<svg
   xmlns:dc="http://purl.org/dc/elements/1.1/"
   xmlns:cc="http://creativecommons.org/ns#"
   xmlns:rdf="http://www.w3.org/1999/02/22-rdf-syntax-ns#"
   xmlns:svg="http://www.w3.org/2000/svg"
   xmlns="http://www.w3.org/2000/svg"
   xmlns:sodipodi="http://sodipodi.sourceforge.net/DTD/sodipodi-0.dtd"
   xmlns:inkscape="http://www.inkscape.org/namespaces/inkscape"
   width="0.78736037in"
   height="0.66927993in"
   viewBox="0 0 56.689945 48.188199"
   xml:space="preserve"
   class="st4"
   version="1.1"
   id="svg97"
   sodipodi:docname="Managed Disk Standard HDD.svg"
   style="font-size:12px;overflow:visible;color-interpolation-filters:sRGB;fill:none;fill-rule:evenodd;stroke-linecap:square;stroke-miterlimit:3"
   inkscape:version="0.92.5 (2060ec1f9f, 2020-04-08)"><metadata
   id="metadata103"><rdf:RDF><cc:Work
       rdf:about=""><dc:format>image/svg+xml</dc:format><dc:type
         rdf:resource="http://purl.org/dc/dcmitype/StillImage" /></cc:Work></rdf:RDF></metadata><defs
   id="defs101" /><sodipodi:namedview
   pagecolor="#ffffff"
   bordercolor="#666666"
   borderopacity="1"
   objecttolerance="10"
   gridtolerance="10"
   guidetolerance="10"
   inkscape:pageopacity="0"
   inkscape:pageshadow="2"
   inkscape:window-width="640"
   inkscape:window-height="480"
   id="namedview99"
   showgrid="false"
   inkscape:zoom="2.0339329"
   inkscape:cx="37.795243"
   inkscape:cy="12.656653"
   inkscape:window-x="0"
   inkscape:window-y="0"
   inkscape:window-maximized="0"
   inkscape:current-layer="svg97" />
	<style
   type="text/css"
   id="style2">
	<![CDATA[
		.st1 {fill:#7fba00;stroke:none;stroke-linecap:butt;stroke-width:0.749999}
		.st2 {fill:#b8d432;stroke:none;stroke-linecap:butt;stroke-width:0.749999}
		.st3 {fill:#ffffff;fill-opacity:0.25;stroke:none;stroke-linecap:butt;stroke-width:0.749999}
		.st4 {fill:none;fill-rule:evenodd;font-size:12px;overflow:visible;stroke-linecap:square;stroke-miterlimit:3}
	]]>
	</style>

	<g
   id="g95"
   transform="translate(-5.669324,-4.8161)">
		<title
   id="title4">Page-1</title>
		<g
   id="group20283-1"
   transform="translate(5.66929,-34.0157)">
			<title
   id="title6">Managed Disk Standard HDD.20283</title>
			<g
   id="group20284-2">
				<title
   id="title8">Page-1</title>
				<g
   id="group20285-3">
					<title
   id="title10">Managed Disk Standard HDD</title>
					<g
   id="group20286-4">
						<title
   id="title12">Sheet.20286</title>
						<g
   id="shape20287-5">
							<title
   id="title14">Sheet.20287</title>
							<path
   d="M 56.69,76.76 C 56.69,82.43 44,87.02 28.35,87.02 12.69,87.02 0,82.43 0,76.76 v -5.53 h 56.69 z"
   class="st1"
   id="path16"
   inkscape:connector-curvature="0"
   style="fill:#7fba00;stroke:none;stroke-width:0.74999899;stroke-linecap:butt" />
						</g>
					</g>
					<g
   id="group20288-7"
   transform="translate(0,-5.53254)">
						<title
   id="title20">Sheet.20288</title>
						<g
   id="shape20289-8">
							<title
   id="title22">Sheet.20289</title>
							<path
   d="M 56.69,76.76 C 56.69,82.43 44,87.02 28.35,87.02 12.69,87.02 0,82.43 0,76.76 0,71.09 12.69,66.49 28.35,66.49 c 15.65,0 28.34,4.6 28.34,10.27 z"
   class="st2"
   id="path24"
   inkscape:connector-curvature="0"
   style="fill:#b8d432;stroke:none;stroke-width:0.74999899;stroke-linecap:butt" />
						</g>
					</g>
					<g
   id="group20290-10"
   transform="translate(19.2573,-13.659)">
						<title
   id="title28">Sheet.20290</title>
						<g
   id="shape20291-11">
							<title
   id="title30">Sheet.20291</title>
							<path
   d="m 18.18,84.3 c 0,1.51 -4.07,2.72 -9.1,2.72 C 4.07,87.02 0,85.81 0,84.3 c 0,-1.52 4.07,-2.73 9.08,-2.73 5.03,0 9.1,1.21 9.1,2.73 z"
   class="st1"
   id="path32"
   inkscape:connector-curvature="0"
   style="fill:#7fba00;stroke:none;stroke-width:0.74999899;stroke-linecap:butt" />
						</g>
					</g>
					<g
   id="group20292-13"
   transform="translate(30.1015,-18.2574)">
						<title
   id="title36">Sheet.20292</title>
						<g
   id="shape20293-14">
							<title
   id="title38">Sheet.20293</title>
							<path
   d="M 18.74,82.46 C 14.76,80.94 9.55,79.88 3.68,79.47 L 0,86.28 c 1.81,0.1 3.43,0.37 4.68,0.74 z"
   class="st3"
   id="path40"
   inkscape:connector-curvature="0"
   style="fill:#ffffff;fill-opacity:0.25;stroke:none;stroke-width:0.74999899;stroke-linecap:butt" />
						</g>
					</g>
					<g
   id="group20294-16"
   transform="translate(6.69199,-5.66746)">
						<title
   id="title44">Sheet.20294</title>
						<g
   id="shape20295-17">
							<title
   id="title46">Sheet.20295</title>
							<path
   d="m 0,83.58 c 4.08,1.74 9.75,2.99 16.2,3.44 l 4.3,-7.95 C 18.71,79 17.08,78.78 15.78,78.44 Z"
   class="st3"
   id="path48"
   inkscape:connector-curvature="0"
   style="fill:#ffffff;fill-opacity:0.25;stroke:none;stroke-width:0.74999899;stroke-linecap:butt" />
						</g>
					</g>
					<g
   id="group20296-19"
   transform="translate(0,-22.1256)">
						<title
   id="title52">Sheet.20296</title>
						<g
   id="shape20297-20">
							<title
   id="title54">Sheet.20297</title>
							<path
   d="M 56.69,76.76 C 56.69,82.43 44,87.02 28.35,87.02 12.69,87.02 0,82.43 0,76.76 v -5.53 h 56.69 z"
   class="st1"
   id="path56"
   inkscape:connector-curvature="0"
   style="fill:#7fba00;stroke:none;stroke-width:0.74999899;stroke-linecap:butt" />
						</g>
					</g>
					<g
   id="group20298-22"
   transform="translate(0,-27.6582)">
						<title
   id="title60">Sheet.20298</title>
						<g
   id="shape20299-23">
							<title
   id="title62">Sheet.20299</title>
							<path
   d="M 56.69,76.76 C 56.69,82.43 44,87.02 28.35,87.02 12.69,87.02 0,82.43 0,76.76 0,71.09 12.69,66.49 28.35,66.49 c 15.65,0 28.34,4.6 28.34,10.27 z"
   class="st2"
   id="path64"
   inkscape:connector-curvature="0"
   style="fill:#b8d432;stroke:none;stroke-width:0.74999899;stroke-linecap:butt" />
						</g>
					</g>
					<g
   id="group20300-25"
   transform="translate(19.2573,-35.7846)">
						<title
   id="title68">Sheet.20300</title>
						<g
   id="shape20301-26">
							<title
   id="title70">Sheet.20301</title>
							<path
   d="m 18.18,84.3 c 0,1.51 -4.07,2.72 -9.1,2.72 C 4.07,87.02 0,85.81 0,84.3 c 0,-1.52 4.07,-2.73 9.08,-2.73 5.03,0 9.1,1.21 9.1,2.73 z"
   class="st1"
   id="path72"
   inkscape:connector-curvature="0"
   style="fill:#7fba00;stroke:none;stroke-width:0.74999899;stroke-linecap:butt" />
						</g>
					</g>
					<g
   id="group20302-28"
   transform="translate(30.1015,-40.4397)">
						<title
   id="title76">Sheet.20302</title>
						<g
   id="shape20303-29">
							<title
   id="title78">Sheet.20303</title>
							<path
   d="M 18.74,82.46 C 14.76,80.94 9.55,79.88 3.68,79.47 L 0,86.28 c 1.81,0.1 3.43,0.37 4.68,0.74 z"
   class="st3"
   id="path80"
   inkscape:connector-curvature="0"
   style="fill:#ffffff;fill-opacity:0.25;stroke:none;stroke-width:0.74999899;stroke-linecap:butt" />
						</g>
					</g>
					<g
   id="group20304-31"
   transform="translate(6.69199,-27.8498)">
						<title
   id="title84">Sheet.20304</title>
						<g
   id="shape20305-32">
							<title
   id="title86">Sheet.20305</title>
							<path
   d="m 0,83.58 c 4.08,1.74 9.75,2.99 16.2,3.44 l 4.3,-7.95 C 18.71,79 17.08,78.78 15.78,78.44 Z"
   class="st3"
   id="path88"
   inkscape:connector-curvature="0"
   style="fill:#ffffff;fill-opacity:0.25;stroke:none;stroke-width:0.74999899;stroke-linecap:butt" />
						</g>
					</g>
				</g>
			</g>
		</g>
	</g>
</svg>