<?xml version="1.0" encoding="UTF-8" standalone="no"?>
<!-- Generated by Microsoft Visio, SVG Export Qumulo Scalable File Service.svg Page-1 -->
<svg xmlns:dc="http://purl.org/dc/elements/1.1/" xmlns:cc="http://creativecommons.org/ns#" xmlns:rdf="http://www.w3.org/1999/02/22-rdf-syntax-ns#" xmlns:svg="http://www.w3.org/2000/svg" xmlns="http://www.w3.org/2000/svg" xmlns:sodipodi="http://sodipodi.sourceforge.net/DTD/sodipodi-0.dtd" xmlns:inkscape="http://www.inkscape.org/namespaces/inkscape" width="34.02" height="56.684213" viewBox="0 0 34.02 56.684213" xml:space="preserve" class="st4" version="1.1" id="svg29" sodipodi:docname="Qumulo Scalable File Service.svg" style="font-size:12px;overflow:visible;color-interpolation-filters:sRGB;fill:none;fill-rule:evenodd;stroke-linecap:square;stroke-miterlimit:3" inkscape:version="0.92.5 (2060ec1f9f, 2020-04-08)">
  <metadata id="metadata35">
    <rdf:RDF>
      <cc:Work rdf:about="">
        <dc:format>image/svg+xml</dc:format>
        <dc:type rdf:resource="http://purl.org/dc/dcmitype/StillImage" />
      </cc:Work>
    </rdf:RDF>
  </metadata>
  <defs id="defs33" />
  <sodipodi:namedview pagecolor="#ffffff" bordercolor="#666666" borderopacity="1" objecttolerance="10" gridtolerance="10" guidetolerance="10" inkscape:pageopacity="0" inkscape:pageshadow="2" inkscape:window-width="640" inkscape:window-height="480" id="namedview31" showgrid="false" inkscape:zoom="1.487465" inkscape:cx="22.67729" inkscape:cy="33.969865" inkscape:window-x="0" inkscape:window-y="0" inkscape:window-maximized="0" inkscape:current-layer="svg29" />
	<style type="text/css" id="style2">
	<![CDATA[
		.st1 {fill:#00a3ca;stroke:none;stroke-linecap:butt;stroke-width:28.2857}
		.st2 {fill:#007cac;stroke:none;stroke-linecap:butt;stroke-width:28.2857}
		.st3 {fill:#1f4e84;fill-opacity:0.75;stroke:none;stroke-linecap:butt;stroke-width:28.2857}
		.st4 {fill:none;fill-rule:evenodd;font-size:12px;overflow:visible;stroke-linecap:square;stroke-miterlimit:3}
	]]>
	</style>

	<g id="g27" transform="translate(-28.285696,-28.2901)">
		<title id="title4">Page-1</title>
		<g id="group21045-1" transform="translate(28.2857,-34.0157)">
			<title id="title6">Qumulo Scalable File Service.21045</title>
			<g id="group21046-2">
				<title id="title8">Sheet.21046</title>
				<g id="shape21047-3" transform="translate(0,-21.9442)">
					<title id="title10">Sheet.21047</title>
					<path d="M 6.45,95.22 H 2.35 A 2.35452,2.4054 0 0 1 0,92.81 v -6.16 c 0,-1.33 1.05,-2.4 2.35,-2.4 h 6.03 c 1.31,0 2.36,1.07 2.36,2.4 v 4.42 c 0,2.29 1.82,4.15 4.07,4.15 h 13.32 a 5.88631,6.0135 0 0 1 5.89,6.01 v 11.75 a 5.88631,6.0135 0 0 1 -5.89,6.01 h -11.5 a 5.88631,6.0135 0 0 1 -5.89,-6.01 V 99.61 c 0,-2.43 -1.92,-4.39 -4.29,-4.39 z" class="st1" id="path12" inkscape:connector-curvature="0" style="fill:#00a3ca;stroke:none;stroke-width:28.28569984;stroke-linecap:butt" />
				</g>
				<g id="shape21048-5">
					<title id="title15">Sheet.21048</title>
					<path d="m 27.57,108.02 h 4.09 c 1.3,0 2.35,1.08 2.35,2.41 v 6.16 c 0,1.33 -1.05,2.4 -2.35,2.4 h -6.03 a 2.35452,2.4054 0 0 1 -2.36,-2.4 v -4.41 A 4.06691,4.15478 -180 0 0 19.2,108.02 H 5.89 A 5.88631,6.0135 0 0 1 0,102.01 V 90.26 a 5.88631,6.0135 0 0 1 5.89,-6.02 h 11.5 a 5.88631,6.0135 0 0 1 5.88,6.02 v 13.37 c 0,2.42 1.92,4.39 4.3,4.39 z" class="st2" id="path17" inkscape:connector-curvature="0" style="fill:#007cac;stroke:none;stroke-width:28.28569984;stroke-linecap:butt" />
				</g>
				<g id="shape21049-7" transform="translate(10.7381,-21.9462)">
					<title id="title20">Sheet.21049</title>
					<path d="m 0,106.19 h 6.65 a 5.88631,6.0135 0 0 1 5.89,6.02 v 6.78 H 5.89 A 5.88631,6.0135 0 0 1 0,112.98 v -6.78 z" class="st3" id="path22" inkscape:connector-curvature="0" style="fill:#1f4e84;fill-opacity:0.75;stroke:none;stroke-width:28.28569984;stroke-linecap:butt" />
				</g>
			</g>
		</g>
	</g>
</svg>