<?xml version="1.0" encoding="UTF-8" standalone="no"?>
<!DOCTYPE svg PUBLIC "-//W3C//DTD SVG 1.1//EN" "http://www.w3.org/Graphics/SVG/1.1/DTD/svg11.dtd">
<!-- Generated by Microsoft Visio, SVG Export Storage Sync Registered Server.svg Page-1 -->
<svg xmlns="http://www.w3.org/2000/svg" xmlns:xlink="http://www.w3.org/1999/xlink" xmlns:ev="http://www.w3.org/2001/xml-events"
		width="1.08803in" height="1.42984in" viewBox="0 0 78.3383 102.949" xml:space="preserve" color-interpolation-filters="sRGB"
		class="st8">
	<style type="text/css">
	<![CDATA[
		.st1 {fill:#7a7a7a;stroke:none;stroke-linecap:butt;stroke-width:12.24}
		.st2 {fill:#1e1e1e;stroke:none;stroke-linecap:butt;stroke-width:12.24}
		.st3 {fill:#b8d432;stroke:none;stroke-linecap:butt;stroke-width:12.24}
		.st4 {fill:#ffffff;fill-opacity:0.5;stroke:none;stroke-linecap:butt;stroke-width:12.24}
		.st5 {fill:#0072c6;stroke:none;stroke-linecap:butt;stroke-width:12.24}
		.st6 {fill:#ffffff;fill-opacity:0.15;stroke:none;stroke-linecap:butt;stroke-width:12.24}
		.st7 {fill:#ffffff;stroke:none;stroke-linecap:butt;stroke-width:12.24}
		.st8 {fill:none;fill-rule:evenodd;font-size:12px;overflow:visible;stroke-linecap:square;stroke-miterlimit:3}
	]]>
	</style>

	<g>
		<title>Page-1</title>
		<g id="group18665-1" transform="translate(12.24,-34.0157)">
			<title>Storage Sync Registered Server.18665</title>
			<g id="group18666-2">
				<title>Sheet.18666</title>
				<g id="shape18667-3" transform="translate(0,-13.6063)">
					<title>Sheet.18667</title>
					<path d="M13.46 68.79 C13.46 67 14.93 65.53 16.72 65.53 L23.56 65.53 L23.56 61.99 A2.12067 2.14299 -180 0 0 21.43
								 59.86 L2.14 59.86 C0.96 59.86 0 60.82 0 61.99 L0 100.82 C0 102 0.96 102.95 2.14 102.95 L13.46 102.95
								 L13.46 68.79 Z" class="st1"/>
				</g>
				<g id="shape18668-5" transform="translate(3.47835,-31.8694)">
					<title>Sheet.18668</title>
					<path d="M9.99 97.52 L2.69 97.52 A2.68955 2.71786 -180 0 0 0 100.24 A2.68955 2.71786 -180 0 0 2.69 102.95 L9.99
								 102.95 L9.99 97.52 Z" class="st2"/>
				</g>
				<g id="shape18669-7" transform="translate(4.62844,-32.7606)">
					<title>Sheet.18669</title>
					<ellipse cx="1.80313" cy="101.127" rx="1.80313" ry="1.82211" class="st3"/>
				</g>
				<g id="shape18670-9" transform="translate(3.47835,-39.8064)">
					<title>Sheet.18670</title>
					<path d="M9.99 97.52 L2.69 97.52 C1.21 97.52 0 98.74 0 100.24 C0 101.73 1.21 102.95 2.69 102.95 L9.99 102.95
								 L9.99 97.52 Z" class="st2"/>
				</g>
				<g id="shape18671-11" transform="translate(4.62844,-40.6976)">
					<title>Sheet.18671</title>
					<ellipse cx="1.80313" cy="101.127" rx="1.80313" ry="1.82211" class="st3"/>
				</g>
				<g id="shape18672-13" transform="translate(3.47835,-47.7422)">
					<title>Sheet.18672</title>
					<path d="M9.99 102.93 C9.99 101.13 11.45 99.67 13.24 99.67 L16.54 99.67 A2.69291 2.72126 -180 0 0 13.91 97.52
								 L2.69 97.52 C1.21 97.52 0 98.74 0 100.23 C0 101.73 1.21 102.95 2.69 102.95 L9.99 102.95 L9.99 102.93
								 Z" class="st2"/>
				</g>
				<g id="shape18673-15" transform="translate(4.62844,-48.6346)">
					<title>Sheet.18673</title>
					<ellipse cx="1.80313" cy="101.127" rx="1.80313" ry="1.82211" class="st3"/>
				</g>
				<g id="shape18674-17" transform="translate(14.5866,-6.80315)">
					<title>Sheet.18674</title>
					<path d="M23.56 100.82 C23.56 102 22.61 102.95 21.43 102.95 L2.14 102.95 C0.96 102.95 0 102 0 100.82 L0 61.99
								 C0 60.82 0.96 59.86 2.14 59.86 L21.43 59.86 A2.12067 2.14299 0 0 1 23.56 61.99 L23.56 100.82 Z"
							class="st1"/>
				</g>
				<g id="shape18675-19" transform="translate(18.065,-25.0662)">
					<title>Sheet.18675</title>
					<path d="M-0 100.24 A2.68955 2.71786 0 0 1 2.69 97.52 L13.91 97.52 A2.68955 2.71786 0 0 1 16.61 100.24 A2.68955
								 2.71786 0 0 1 13.91 102.95 L2.69 102.95 A2.68955 2.71786 0 0 1 0 100.24 Z" class="st2"/>
				</g>
				<g id="shape18676-21" transform="translate(19.2151,-25.9574)">
					<title>Sheet.18676</title>
					<ellipse cx="1.80313" cy="101.127" rx="1.80313" ry="1.82211" class="st3"/>
				</g>
				<g id="shape18677-23" transform="translate(18.065,-33.0032)">
					<title>Sheet.18677</title>
					<path d="M-0 100.24 A2.68955 2.71786 0 0 1 2.69 97.52 L13.91 97.52 A2.68955 2.71786 0 0 1 16.61 100.24 A2.68955
								 2.71786 0 0 1 13.91 102.95 L2.69 102.95 A2.68955 2.71786 0 0 1 0 100.24 Z" class="st2"/>
				</g>
				<g id="shape18678-25" transform="translate(19.2151,-33.8944)">
					<title>Sheet.18678</title>
					<ellipse cx="1.80313" cy="101.127" rx="1.80313" ry="1.82211" class="st3"/>
				</g>
				<g id="shape18679-27" transform="translate(18.065,-40.9402)">
					<title>Sheet.18679</title>
					<path d="M0 100.24 A2.68955 2.71786 0 0 1 2.69 97.52 L13.91 97.52 A2.68955 2.71786 0 0 1 16.61 100.24 A2.68955
								 2.71786 0 0 1 13.91 102.95 L2.69 102.95 A2.68843 2.71672 0 0 1 0 100.24 Z" class="st2"/>
				</g>
				<g id="shape18680-29" transform="translate(19.2151,-41.8314)">
					<title>Sheet.18680</title>
					<ellipse cx="1.80313" cy="101.127" rx="1.80313" ry="1.82211" class="st3"/>
				</g>
				<g id="shape18681-31" transform="translate(29.1732,-6.80315)">
					<title>Sheet.18681</title>
					<path d="M8.98 100.82 L8.98 81.18 C7.31 81.92 4.82 82.54 1.12 82.54 L0 82.54 L0 98.23 C0 99.79 0.58 101.37 1.71
								 102.95 L6.84 102.95 C8.02 102.95 8.98 102 8.98 100.82 Z" class="st4"/>
				</g>
				<g id="shape18682-33" transform="translate(30.2953,1.42109E-14)">
					<title>Sheet.18682</title>
					<path d="M11.78 72.33 C11.78 72.33 10.11 76.87 0 76.87 L0 91.43 C0 93.39 1.11 95.23 2.64 96.84 C6.11 100.49 11.78
								 102.95 11.78 102.95 C11.78 102.95 23.56 97.85 23.56 91.43 L23.56 76.87 C13.47 76.87 11.78 72.33
								 11.78 72.33 Z" class="st5"/>
				</g>
				<g id="shape18683-35" transform="translate(30.2953,-5.90967)">
					<title>Sheet.18683</title>
					<path d="M19.77 82.52 C13.04 81.58 11.78 78.24 11.78 78.24 C11.78 78.24 10.11 82.78 0 82.78 L0 97.33 C0 99.45
								 1.08 101.34 2.59 102.95 L19.77 82.52 Z" class="st6"/>
				</g>
				<g id="shape18684-37" transform="translate(34.305,-7.73291)">
					<title>Sheet.18684</title>
					<path d="M0.62 96.65 L0.1 96.09 a0.370276 0.374173 0 0 1 0.0213189 -0.529512 L1.61 94.16 a0.365787 0.369638 0
								 0 1 0.247972 -0.0997795 C1.97 94.06 2.06 94.11 2.13 94.19 L6.24 98.64 L13.31 89.49 a0.362421 0.366236
								 0 0 1 0.29061 -0.142866 C13.69 89.34 13.77 89.37 13.83 89.42 L15.45 90.68 C15.53 90.74 15.57 90.82
								 15.59 90.93 a0.360177 0.363969 0 0 1 -0.0785433 0.272126 L6.42 102.95 L0.62 96.65 Z" class="st7"/>
				</g>
			</g>
		</g>
	</g>
</svg>
