<?xml version="1.0" encoding="UTF-8" standalone="no"?>
<!DOCTYPE svg PUBLIC "-//W3C//DTD SVG 1.1//EN" "http://www.w3.org/Graphics/SVG/1.1/DTD/svg11.dtd">
<!-- Generated by Microsoft Visio, SVG Export Storage Account Lifecycle Management.svg Page-1 -->
<svg xmlns="http://www.w3.org/2000/svg" xmlns:xlink="http://www.w3.org/1999/xlink" xmlns:ev="http://www.w3.org/2001/xml-events"
		width="1.1274in" height="1.42984in" viewBox="0 0 81.1729 102.949" xml:space="preserve" color-interpolation-filters="sRGB"
		class="st5">
	<style type="text/css">
	<![CDATA[
		.st1 {fill:#ffffff;stroke:none;stroke-linecap:butt;stroke-width:12.24}
		.st2 {fill:#59b4d9;fill-opacity:0.2;stroke:none;stroke-linecap:butt;stroke-width:12.24}
		.st3 {fill:#3999c6;stroke:none;stroke-linecap:butt;stroke-width:12.24}
		.st4 {fill:#804998;stroke:none;stroke-linecap:butt;stroke-width:12.24}
		.st5 {fill:none;fill-rule:evenodd;font-size:12px;overflow:visible;stroke-linecap:square;stroke-miterlimit:3}
	]]>
	</style>

	<g>
		<title>Page-1</title>
		<g id="group18782-1" transform="translate(12.24,-34.0157)">
			<title>Storage Account Lifecycle Management.18782</title>
			<g id="group18783-2">
				<title>Sheet.18783</title>
				<g id="shape18784-3" transform="translate(9.64986,-1.1811)">
					<title>Sheet.18784</title>
					<path d="M33.17 102.95 C30.47 102.95 27.74 100.92 27.74 97.04 C27.74 95.22 28.42 93.58 29.61 92.32 L0 92.32 L0
								 58.07 C0 52.68 4.15 48.62 9.65 48.62 L42.96 48.62 L40.9 50.63 C39.79 51.72 38.6 54.49 38.6 56.89
								 L38.6 95.86 C38.6 99.13 37.18 102.95 33.17 102.95 Z" class="st1"/>
				</g>
				<g id="shape18785-5" transform="translate(9.64986,-1.1811)">
					<title>Sheet.18785</title>
					<path d="M33.17 102.95 C30.47 102.95 27.74 100.92 27.74 97.04 C27.74 95.22 28.42 93.58 29.61 92.32 L0 92.32 L0
								 58.07 C0 52.68 4.15 48.62 9.65 48.62 L42.96 48.62 L40.9 50.63 C39.79 51.72 38.6 54.49 38.6 56.89
								 L38.6 95.86 C38.6 99.13 37.18 102.95 33.17 102.95 Z" class="st2"/>
				</g>
				<g id="shape18786-7">
					<title>Sheet.18786</title>
					<path d="M50.66 46.26 L19.3 46.26 C13.27 46.26 8.44 50.98 8.44 56.89 L8.44 89.96 L6.63 89.96 C3.02 89.96 0 92.91
								 0 96.45 C0 100 3.02 102.95 6.63 102.95 L43.42 102.95 L44.39 102.83 C48.37 102.24 49.46 98.11 49.46
								 95.86 L49.46 55.7 L56.21 55.7 C56.45 54.88 56.69 54.05 56.69 52.99 C56.69 49.33 54.04 46.26 50.66
								 46.26 ZM47.04 55.7 L47.04 94.68 C47.04 96.45 46.44 100.59 42.82 100.59 C40.77 100.59 38.6 99.05
								 38.6 95.86 C38.6 92.91 40.65 90.78 43.42 90.07 L43.42 89.96 L10.86 89.96 L10.86 56.89 C10.86 52.16
								 14.47 48.62 19.3 48.62 L49.7 48.62 C48.37 49.92 47.04 52.99 47.04 55.7 Z" class="st3"/>
				</g>
				<g id="shape18787-9" transform="translate(14.5954,-17.8346)">
					<title>Sheet.18787</title>
					<path d="M14.35 77.2 C20.94 77.2 26.3 82.45 26.3 88.89 C26.3 95.34 20.94 100.59 14.35 100.59 C7.77 100.59 2.41
								 95.34 2.41 88.89 C2.41 82.45 7.77 77.2 14.35 77.2 ZM14.35 74.84 C6.43 74.84 0 81.13 0 88.89 C0 96.66
								 6.43 102.95 14.35 102.95 C22.28 102.95 28.71 96.66 28.71 88.89 C28.71 81.13 22.28 74.84 14.35 74.84
								 Z" class="st4"/>
				</g>
				<g id="shape18788-11" transform="translate(27.7433,-27.672)">
					<title>Sheet.18788</title>
					<path d="M7.51 100.9 L2.41 98.05 L2.41 90.46 A1.20623 1.1811 -180 1 0 0 90.46 L0 98.73 C0 98.78 0.02 98.82 0.03
								 98.87 C0.04 98.96 0.05 99.04 0.08 99.12 C0.1 99.18 0.13 99.24 0.17 99.29 A1.18211 1.15748 -180 0
								 0 0.32 99.52 C0.36 99.56 0.41 99.6 0.45 99.63 C0.51 99.67 0.54 99.73 0.6 99.76 L6.3 102.95 A1.20623
								 1.1811 -180 0 0 7.51 100.9 Z" class="st4"/>
				</g>
			</g>
		</g>
	</g>
</svg>
