<?xml version="1.0" encoding="UTF-8" standalone="no"?>
<!DOCTYPE svg PUBLIC "-//W3C//DTD SVG 1.1//EN" "http://www.w3.org/Graphics/SVG/1.1/DTD/svg11.dtd">
<!-- Generated by Microsoft Visio, SVG Export Storage Account Blob Hot.svg Page-1 -->
<svg xmlns="http://www.w3.org/2000/svg" xmlns:xlink="http://www.w3.org/1999/xlink" xmlns:ev="http://www.w3.org/2001/xml-events"
		width="1.1274in" height="1.31173in" viewBox="0 0 81.1729 94.4447" xml:space="preserve" color-interpolation-filters="sRGB"
		class="st6">
	<style type="text/css">
	<![CDATA[
		.st1 {fill:#a0a1a2;stroke:none;stroke-width:12.24}
		.st2 {fill:#7a7a7a;stroke:none;stroke-width:12.24}
		.st3 {fill:#ffffff;stroke:none;stroke-width:12.24}
		.st4 {fill:#e71e27;stroke:none;stroke-width:0.859306}
		.st5 {fill:#ffffff;fill-opacity:0.2;stroke:none;stroke-width:12.24}
		.st6 {fill:none;fill-rule:evenodd;font-size:12px;overflow:visible;stroke-linecap:square;stroke-miterlimit:3}
	]]>
	</style>

	<g>
		<title>Page-1</title>
		<g id="group14715-1" transform="translate(12.24,-34.0157)">
			<title>Storage Account Blob Hot.14715</title>
			<g id="group14716-2">
				<title>Page-1</title>
				<g id="group14717-3">
					<title>Azure Storage (Blog) Hot Tier</title>
					<g id="shape14718-4">
						<title>Sheet.14718</title>
						<path d="M0 92.3 C0 93.43 0.8 94.44 2.15 94.44 L54.54 94.44 C55.67 94.44 56.69 93.65 56.69 92.3 L56.69 54.85
									 L0 54.85 L0 92.3 Z" class="st1"/>
					</g>
					<g id="shape14719-6" transform="translate(0,-39.5915)">
						<title>Sheet.14719</title>
						<path d="M54.54 85.85 L2.15 85.85 C0.8 85.85 0 86.87 0 88 L0 94.44 L56.69 94.44 L56.69 88 C56.69 86.87 55.9
									 85.85 54.54 85.85 Z" class="st2"/>
					</g>
					<g id="shape14720-8" transform="translate(21.3171,-27.2613)">
						<title>Sheet.14720</title>
						<rect x="0" y="85.8477" width="14.287" height="8.59704" class="st3"/>
					</g>
					<g id="shape14721-10" transform="translate(21.3171,-15.6101)">
						<title>Sheet.14721</title>
						<rect x="0" y="85.8477" width="14.287" height="8.59704" class="st4"/>
					</g>
					<g id="shape14722-12" transform="translate(38.3255,-15.6101)">
						<title>Sheet.14722</title>
						<rect x="0" y="85.8477" width="14.287" height="8.59704" class="st4"/>
					</g>
					<g id="shape14723-14" transform="translate(38.3255,-27.2613)">
						<title>Sheet.14723</title>
						<rect x="0" y="85.8477" width="14.287" height="8.59704" class="st3"/>
					</g>
					<g id="shape14724-16" transform="translate(4.30878,-27.2613)">
						<title>Sheet.14724</title>
						<rect x="0" y="85.8477" width="14.287" height="8.59704" class="st3"/>
					</g>
					<g id="shape14725-18" transform="translate(4.30878,-15.6101)">
						<title>Sheet.14725</title>
						<rect x="0" y="85.8477" width="14.287" height="8.59704" class="st3"/>
					</g>
					<g id="shape14726-20" transform="translate(4.30878,-4.07196)">
						<title>Sheet.14726</title>
						<rect x="0" y="85.8477" width="14.287" height="8.59704" class="st4"/>
					</g>
					<g id="shape14727-22" transform="translate(21.3171,-4.07196)">
						<title>Sheet.14727</title>
						<rect x="0" y="85.8477" width="14.287" height="8.59704" class="st4"/>
					</g>
					<g id="shape14728-24" transform="translate(38.3255,-4.07196)">
						<title>Sheet.14728</title>
						<rect x="0" y="85.8477" width="14.287" height="8.59704" class="st4"/>
					</g>
					<g id="shape14729-26">
						<title>Sheet.14729</title>
						<path d="M2.15 46.26 C1.13 46.26 0 47.27 0 48.4 L0 56.77 L0 60.51 L0 92.3 C0 93.43 1.13 94.44 2.15 94.44
									 L4.53 94.44 L49.44 46.26 L2.15 46.26 Z" class="st5"/>
					</g>
				</g>
			</g>
		</g>
	</g>
</svg>
