<?xml version="1.0" encoding="UTF-8" standalone="no"?>
<!DOCTYPE svg PUBLIC "-//W3C//DTD SVG 1.1//EN" "http://www.w3.org/Graphics/SVG/1.1/DTD/svg11.dtd">
<!-- Generated by Microsoft Visio, SVG Export Authentication Context.svg Page-1 -->
<svg xmlns="http://www.w3.org/2000/svg" xmlns:xlink="http://www.w3.org/1999/xlink" xmlns:ev="http://www.w3.org/2001/xml-events"
		width="1.73185in" height="1.73206in" viewBox="0 0 124.693 124.709" xml:space="preserve" color-interpolation-filters="sRGB"
		class="st5">
	<style type="text/css">
	<![CDATA[
		.st1 {fill:#50e6ff;stroke:none;stroke-linecap:butt;stroke-width:34}
		.st2 {fill:#0078d4;stroke:none;stroke-linecap:butt;stroke-width:34}
		.st3 {fill:#ffffff;stroke:none;stroke-linecap:butt;stroke-width:34}
		.st4 {fill:url(#grad0-12);stroke:none;stroke-linecap:butt;stroke-width:34}
		.st5 {fill:none;fill-rule:evenodd;font-size:12px;overflow:visible;stroke-linecap:square;stroke-miterlimit:3}
	]]>
	</style>

	<defs id="Patterns_And_Gradients">
		<linearGradient id="grad0-12" x1="0" y1="0" x2="1" y2="0" gradientTransform="rotate(-90 0.5 0.5)">
			<stop offset="0" stop-color="#76bc2d" stop-opacity="1"/>
			<stop offset="0.6" stop-color="#81ce31" stop-opacity="1"/>
			<stop offset="0.82" stop-color="#86d633" stop-opacity="1"/>
		</linearGradient>
	</defs>
	<g>
		<title>Page-1</title>
		<g id="group13020-1" transform="translate(34,-34.0157)">
			<title>Authentication Context.13020</title>
			<g id="group13021-2">
				<title>MsPortalFx.base.images-46</title>
				<g id="shape13022-3" transform="translate(5.39025,-14.8661)">
					<title>Sheet.13022</title>
					<path d="M43.98 107.66 L26.35 107.66 a0.946281 0.922835 0 0 1 -0.946281 -0.922835 L25.41 100.18 L20.67 100.18
								 L20.67 106.74 a0.949511 0.925984 0 0 1 -0.946281 0.922835 L1.9 107.66 A1.89579 1.84882 -180 0 0
								 0 109.51 L0 118.02 L4.73 118.02 L4.73 113.29 a0.949511 0.925984 0 0 1 0.949511 -0.922835 L20.67
								 112.37 L20.67 124.71 L25.41 124.71 L25.41 112.39 L40.19 112.39 a0.946281 0.922835 0 0 1 0.946281
								 0.922835 L41.14 118.13 L45.89 118.13 L45.89 109.51 A1.89579 1.84882 -180 0 0 43.98 107.66 Z"
							class="st1"/>
				</g>
				<g id="shape13023-5" transform="translate(18.7512,-38.1701)">
					<title>Sheet.13023</title>
					<path d="M-0 123.03 A1.7182 1.67563 -180 0 0 1.72 124.71 L17.28 124.71 A1.7182 1.67563 -180 0 0 18.99 123.03
								 L18.99 107.86 A1.7182 1.67563 -180 0 0 17.28 106.19 L1.72 106.19 A1.7182 1.67563 -180 0 0 0 107.86
								 L0 123.03 Z" class="st2"/>
				</g>
				<g id="shape13024-7" transform="translate(22.3975,-41.726)">
					<title>Sheet.13024</title>
					<path d="M0 123.68 A1.05934 1.03309 -180 0 0 1.06 124.71 L10.64 124.71 A1.05934 1.03309 -180 0 0 11.7 123.68
								 L11.7 114.33 A1.05934 1.03309 -180 0 0 10.64 113.3 L1.06 113.3 A1.05934 1.03309 -180 0 0 -0 114.33
								 L0 123.68 Z" class="st3"/>
				</g>
				<g id="shape13025-9" transform="translate(0,-6.39685)">
					<title>Sheet.13025</title>
					<path d="M0 123.34 A1.40492 1.37011 -180 0 0 1.4 124.71 L14.1 124.71 A1.40492 1.37011 -180 0 0 15.51 123.34 L15.51
								 110.95 A1.40492 1.37011 -180 0 0 14.1 109.58 L1.4 109.58 A1.40492 1.37011 -180 0 0 0 110.95 L0 123.34
								 Z" class="st4"/>
				</g>
				<g id="shape13026-13" transform="translate(20.6729,0)">
					<title>Sheet.13026</title>
					<path d="M0 123.34 A1.40492 1.37011 -180 0 0 1.4 124.71 L14.1 124.71 A1.40492 1.37011 -180 0 0 15.51 123.34 L15.51
								 110.95 A1.40492 1.37011 -180 0 0 14.1 109.58 L1.4 109.58 A1.40492 1.37011 -180 0 0 0 110.95 L0 123.34
								 Z" class="st4"/>
				</g>
				<g id="shape13027-16" transform="translate(41.1842,-6.29606)">
					<title>Sheet.13027</title>
					<path d="M0 123.34 A1.40492 1.37011 -180 0 0 1.4 124.71 L14.1 124.71 A1.40492 1.37011 -180 0 0 15.51 123.34 L15.51
								 110.95 A1.40492 1.37011 -180 0 0 14.1 109.58 L1.4 109.58 A1.40492 1.37011 -180 0 0 0 110.95 L0 123.34
								 Z" class="st4"/>
				</g>
			</g>
		</g>
	</g>
</svg>
