<?xml version="1.0" encoding="UTF-8" standalone="no"?>
<!DOCTYPE svg PUBLIC "-//W3C//DTD SVG 1.1//EN" "http://www.w3.org/Graphics/SVG/1.1/DTD/svg11.dtd">
<!-- Generated by Microsoft Visio, SVG Export O365 - API Facebook.svg Page-1 -->
<svg xmlns="http://www.w3.org/2000/svg" xmlns:xlink="http://www.w3.org/1999/xlink" xmlns:ev="http://www.w3.org/2001/xml-events"
		width="0.944882in" height="1.33858in" viewBox="0 0 68.0315 96.378" xml:space="preserve" color-interpolation-filters="sRGB"
		class="st4">
	<style type="text/css">
	<![CDATA[
		.st1 {fill:#3b5998;stroke:none;stroke-width:0.75}
		.st2 {fill:#ffffff;stroke:none;stroke-width:0.75}
		.st3 {fill:none;stroke:none;stroke-width:0.75}
		.st4 {fill:none;fill-rule:evenodd;font-size:12px;overflow:visible;stroke-linecap:square;stroke-miterlimit:3}
	]]>
	</style>

	<g>
		<title>Page-1</title>
		<g id="group10725-1" transform="translate(5.66929,-34.0157)">
			<title>O365 - API Facebook.10725</title>
			<g id="group10726-2">
				<title>Page-1</title>
				<g id="group10727-3">
					<title>Power Automate API: Facebook</title>
					<g id="group10728-4">
						<title>rect5918</title>
						<g id="shape10729-5">
							<title>Sheet.10729</title>
							<rect x="0" y="39.685" width="56.6929" height="56.6929" class="st1"/>
						</g>
					</g>
					<g id="group10730-7" transform="translate(9.79135,-9.43024)">
						<title>path5920</title>
						<g id="shape10731-8">
							<title>Sheet.10731</title>
							<path d="M34.45 59.75 L2.05 59.75 A2.05497 2.05497 -180 0 0 0 61.8 L0 94.33 A2.05497 2.05497 -180 0 0
										 2.05 96.38 L19.58 96.38 L19.58 82.11 L14.87 82.11 L14.87 76.55 L19.58 76.55 L19.58 72.56
										 C19.58 67.85 22.48 65.31 26.72 65.31 L30.94 65.56 L30.94 70.51 L28.04 70.51 C25.75 70.51
										 25.26 71.6 25.26 73.17 L25.26 76.68 L30.7 76.68 L29.97 82.24 L25.26 82.24 L25.26 96.38 L34.57
										 96.38 A2.05497 2.05497 -180 0 0 36.62 94.33 L36.62 61.68 A2.05497 2.05497 -180 0 0 34.45
										 59.75 Z" class="st2"/>
						</g>
					</g>
					<g id="group10732-10" transform="translate(5.19791,-5.01643)">
						<title>rect5922</title>
						<g id="shape10733-11">
							<title>Sheet.10733</title>
							<rect x="0" y="50.7455" width="45.6929" height="45.6324" class="st3"/>
						</g>
					</g>
				</g>
			</g>
		</g>
	</g>
</svg>
