<?xml version="1.0" encoding="UTF-8" standalone="no"?>
<!DOCTYPE svg PUBLIC "-//W3C//DTD SVG 1.1//EN" "http://www.w3.org/Graphics/SVG/1.1/DTD/svg11.dtd">
<!-- Generated by Microsoft Visio, SVG Export Archive Storage.svg Page-1 -->
<svg xmlns="http://www.w3.org/2000/svg" xmlns:xlink="http://www.w3.org/1999/xlink" xmlns:ev="http://www.w3.org/2001/xml-events"
		width="0.944882in" height="1.29528in" viewBox="0 0 68.0315 93.2598" xml:space="preserve" color-interpolation-filters="sRGB"
		class="st11">
	<style type="text/css">
	<![CDATA[
		.st1 {fill:#3e3e3e;stroke:none;stroke-linecap:butt;stroke-width:0.940678}
		.st2 {fill:#ffffff;stroke:none;stroke-linecap:butt;stroke-width:0.940678}
		.st3 {fill:#804998;fill-opacity:0.85;stroke:none;stroke-linecap:butt;stroke-width:0.940678}
		.st4 {fill:#59b4d9;fill-opacity:0.5;stroke:none;stroke-linecap:butt;stroke-width:0.940678}
		.st5 {fill:#59b4d9;stroke:none;stroke-linecap:butt;stroke-width:0.940678}
		.st6 {fill:#ffffff;fill-opacity:0.25;stroke:none;stroke-linecap:butt;stroke-width:0.940678}
		.st7 {fill:#ffffff;fill-opacity:0.2;stroke:none;stroke-linecap:butt;stroke-width:0.940678}
		.st8 {fill:#ffffff;fill-opacity:0.4;stroke:none;stroke-linecap:butt;stroke-width:0.940678}
		.st9 {fill:#ffffff;fill-opacity:0.15;stroke:none;stroke-linecap:butt;stroke-width:0.940678}
		.st10 {fill:#ffffff;fill-opacity:0.6;stroke:none;stroke-linecap:butt;stroke-width:0.940678}
		.st11 {fill:none;fill-rule:evenodd;font-size:12px;overflow:visible;stroke-linecap:square;stroke-miterlimit:3}
	]]>
	</style>

	<g>
		<title>Page-1</title>
		<g id="group6988-1" transform="translate(5.66929,-34.0157)">
			<title>Archive Storage</title>
			<g id="shape6989-2">
				<title>path2</title>
				<path d="M49.89 93.26 L6.8 93.26 C3.05 93.26 0 90.25 0 86.53 L0 41.65 L56.69 41.65 L56.69 86.53 C56.69 90.25 53.65
							 93.26 49.89 93.26 Z" class="st1"/>
			</g>
			<g id="shape6990-4" transform="translate(4.53544,-21.3189)">
				<title>rect4</title>
				<rect x="0" y="79.7953" width="47.622" height="13.4646" class="st2"/>
			</g>
			<g id="shape6991-6" transform="translate(4.53544,-21.3189)">
				<title>rect6</title>
				<rect x="0" y="79.7953" width="47.622" height="13.4646" class="st3"/>
			</g>
			<g id="shape6992-8" transform="translate(4.53544,-4.48819)">
				<title>rect8</title>
				<rect x="0" y="79.7953" width="47.622" height="13.4646" class="st2"/>
			</g>
			<g id="shape6993-10" transform="translate(4.53544,-4.48819)">
				<title>rect10</title>
				<rect x="0" y="79.7953" width="47.622" height="13.4646" class="st4"/>
			</g>
			<g id="shape6994-12" transform="translate(4.53544,-38.1496)">
				<title>rect12</title>
				<rect x="0" y="79.7953" width="47.622" height="13.4646" class="st5"/>
			</g>
			<g id="shape6995-14" transform="translate(4.53544,-32.5394)">
				<title>rect14</title>
				<rect x="0" y="91.0157" width="47.622" height="2.24409" class="st6"/>
			</g>
			<g id="shape6996-16" transform="translate(4.53544,-49.3701)">
				<title>rect16</title>
				<rect x="0" y="91.0157" width="47.622" height="2.24409" class="st7"/>
			</g>
			<g id="shape6997-18" transform="translate(4.53544,-15.7087)">
				<title>rect18</title>
				<rect x="0" y="91.0157" width="47.622" height="2.24409" class="st8"/>
			</g>
			<g id="shape6998-20">
				<title>path20</title>
				<path d="M6.8 93.26 L9.86 93.26 L45.45 41.65 L0 41.65 L0 86.53 C0 90.25 3.05 93.26 6.8 93.26 Z" class="st9"/>
			</g>
			<g id="shape6999-22" transform="translate(11.0699,-28.2756)">
				<title>path22</title>
				<path d="M3.57 93.26 C4.08 93.26 4.52 92.88 4.58 92.37 L7.07 68.8 C7.13 68.2 6.66 67.68 6.05 67.68 L1.08 67.68 C0.47
							 67.68 0 68.2 0.07 68.8 L2.56 92.37 C2.62 92.88 3.05 93.26 3.57 93.26 Z" class="st5"/>
			</g>
			<g id="shape7000-24" transform="translate(12.0268,-29.1732)">
				<title>polygon24</title>
				<path d="M5.22 69.47 L2.71 93.26 L2.51 93.26 L0 69.47 L5.22 69.47 Z" class="st10"/>
			</g>
			<g id="shape7001-26" transform="translate(12.0268,-29.1732)">
				<title>polygon26</title>
				<path d="M2.61 69.47 L2.71 93.26 L2.51 93.26 L0 69.47 L2.61 69.47 Z" class="st10"/>
			</g>
			<g id="shape7002-28" transform="translate(39.7621,-23.563)">
				<title>path28</title>
				<path d="M4.46 93.26 C5.1 93.26 5.65 92.78 5.72 92.15 L8.83 64.37 C8.92 63.62 8.33 62.96 7.57 62.96 L1.35 62.96 C0.59
							 62.96 0 63.62 0.09 64.37 L3.19 92.15 C3.27 92.78 3.81 93.26 4.46 93.26 Z" class="st5"/>
			</g>
			<g id="shape7003-30" transform="translate(40.9572,-24.685)">
				<title>polygon30</title>
				<path d="M6.53 65.21 L3.39 93.26 L3.14 93.26 L0 65.21 L6.53 65.21 Z" class="st10"/>
			</g>
			<g id="shape7004-32" transform="translate(33.4375,-28.2756)">
				<title>path32</title>
				<path d="M3.57 93.26 C4.08 93.26 4.52 92.88 4.58 92.37 L7.06 68.8 C7.13 68.2 6.66 67.68 6.05 67.68 L1.08 67.68 C0.47
							 67.68 0 68.2 0.07 68.8 L2.56 92.37 C2.61 92.88 3.05 93.26 3.57 93.26 Z" class="st5"/>
			</g>
			<g id="shape7005-34" transform="translate(34.6473,-30.3906)">
				<title>path34</title>
				<path d="M0 70.91 L4.72 70.91 L2.36 93.26 L0 70.91 Z" class="st10"/>
			</g>
			<g id="shape7006-36" transform="translate(34.6473,-30.3906)">
				<title>path36</title>
				<path d="M0 70.91 L2.36 70.91 L2.36 93.26 L0 70.91 Z" class="st10"/>
			</g>
			<g id="shape7007-38" transform="translate(40.9572,-24.685)">
				<title>polygon38</title>
				<path d="M3.26 65.21 L3.39 93.26 L3.14 93.26 L0 65.21 L3.26 65.21 Z" class="st10"/>
			</g>
		</g>
	</g>
</svg>
