<?xml version="1.0" encoding="UTF-8" standalone="no"?>
<!DOCTYPE svg PUBLIC "-//W3C//DTD SVG 1.1//EN" "http://www.w3.org/Graphics/SVG/1.1/DTD/svg11.dtd">
<!-- Generated by Microsoft Visio, SVG Export Cognitive Services Bot.svg Page-1 -->
<svg xmlns="http://www.w3.org/2000/svg" xmlns:xlink="http://www.w3.org/1999/xlink" xmlns:ev="http://www.w3.org/2001/xml-events"
		width="0.944882in" height="1.33858in" viewBox="0 0 68.0315 96.378" xml:space="preserve" color-interpolation-filters="sRGB"
		class="st5">
	<style type="text/css">
	<![CDATA[
		.st1 {fill:none}
		.st2 {stroke:#50e6ff;stroke-linecap:butt;stroke-width:0.75}
		.st3 {fill:#50e6ff;stroke:none;stroke-linecap:butt;stroke-width:0.75}
		.st4 {fill:#0078d4;stroke:none;stroke-linecap:butt;stroke-width:0.75}
		.st5 {fill:none;fill-rule:evenodd;font-size:12px;overflow:visible;stroke-linecap:square;stroke-miterlimit:3}
	]]>
	</style>

	<g>
		<title>Page-1</title>
		<g id="group5090-1" transform="translate(5.66929,-34.0157)">
			<title>Cognitive Services Bot</title>
			<g id="shape5091-2" transform="translate(2.66959,-2.65748)">
				<title>Sheet.5091</title>
				<path d="M0 45 L51.37 96.38 L0 45 Z" class="st1"/>
				<path d="M0 45 L51.37 96.38" class="st2"/>
			</g>
			<g id="shape5092-5" transform="translate(2.65748,-2.65748)">
				<title>Sheet.5092</title>
				<path d="M0 96.38 L51.38 45 L0 96.38 Z" class="st1"/>
				<path d="M0 96.38 L51.38 45" class="st2"/>
			</g>
			<g id="shape5093-8" transform="translate(2.65748,-28.3597)">
				<title>Sheet.5093</title>
				<path d="M0 96.38 L51.38 96.38 L0 96.38 Z" class="st1"/>
				<path d="M0 96.38 L51.38 96.38" class="st2"/>
			</g>
			<g id="shape5094-11" transform="translate(28.3414,-2.6576)">
				<title>Sheet.5094</title>
				<path d="M0 44.94 L0 96.38 L0 44.94 Z" class="st1"/>
				<path d="M0 44.94 L0 96.38" class="st2"/>
			</g>
			<g id="shape5095-14" transform="translate(2.65748,-2.65748)">
				<title>Sheet.5095</title>
				<path d="M0 96.38 L51.38 70.68 L0 96.38 Z" class="st1"/>
				<path d="M0 96.38 L51.38 70.68" class="st2"/>
			</g>
			<g id="shape5096-17" transform="translate(2.65748,-2.65748)">
				<title>Sheet.5096</title>
				<path d="M51.38 96.38 L0 70.68 L51.38 96.38 Z" class="st1"/>
				<path d="M51.38 96.38 L0 70.68" class="st2"/>
			</g>
			<g id="shape5097-20" transform="translate(2.66959,-28.3597)">
				<title>Sheet.5097</title>
				<path d="M0 70.7 L51.37 96.38 L0 70.7 Z" class="st1"/>
				<path d="M0 70.7 L51.37 96.38" class="st2"/>
			</g>
			<g id="shape5098-23" transform="translate(2.65748,-28.3597)">
				<title>Sheet.5098</title>
				<path d="M51.38 70.7 L0 96.38 L51.38 70.7 Z" class="st1"/>
				<path d="M51.38 70.7 L0 96.38" class="st2"/>
			</g>
			<g id="shape5099-26" transform="translate(28.3465,-28.3597)">
				<title>Sheet.5099</title>
				<path d="M0 70.7 L25.69 96.38 L0 70.7 Z" class="st1"/>
				<path d="M0 70.7 L25.69 96.38" class="st2"/>
			</g>
			<g id="shape5100-29" transform="translate(2.65748,-28.3599)">
				<title>Sheet.5100</title>
				<path d="M25.68 70.64 L0 96.38 L25.68 70.64 Z" class="st1"/>
				<path d="M25.68 70.64 L0 96.38" class="st2"/>
			</g>
			<g id="shape5101-32" transform="translate(28.3465,-2.65748)">
				<title>Sheet.5101</title>
				<path d="M0 96.38 L25.69 70.68 L0 96.38 Z" class="st1"/>
				<path d="M0 96.38 L25.69 70.68" class="st2"/>
			</g>
			<g id="shape5102-35" transform="translate(2.54675,-2.6576)">
				<title>Sheet.5102</title>
				<path d="M25.8 96.38 L0 70.63 L25.8 96.38 Z" class="st1"/>
				<path d="M25.8 96.38 L0 70.63" class="st2"/>
			</g>
			<g id="shape5103-38" transform="translate(0,-51.378)">
				<title>Sheet.5103</title>
				<path d="M5.31 93.72 C5.31 95.19 4.12 96.38 2.66 96.38 C1.19 96.38 0 95.19 0 93.72 C0 92.25 1.19 91.06 2.66 91.06
							 C4.12 91.06 5.31 92.25 5.31 93.72 Z" class="st3"/>
			</g>
			<g id="shape5104-40" transform="translate(0,-25.7022)">
				<title>Sheet.5104</title>
				<path d="M5.31 93.72 C5.31 95.19 4.12 96.38 2.66 96.38 C1.19 96.38 0 95.19 0 93.72 C0 92.25 1.19 91.06 2.66 91.06
							 C4.12 91.06 5.31 92.25 5.31 93.72 Z" class="st4"/>
			</g>
			<g id="shape5105-42">
				<title>Sheet.5105</title>
				<path d="M5.31 93.72 C5.31 95.19 4.12 96.38 2.66 96.38 C1.19 96.38 0 95.19 0 93.72 C0 92.25 1.19 91.06 2.66 91.06
							 C4.12 91.06 5.31 92.25 5.31 93.72 Z" class="st4"/>
			</g>
			<g id="shape5106-44" transform="translate(25.689,-51.378)">
				<title>Sheet.5106</title>
				<path d="M5.31 93.72 C5.31 95.19 4.12 96.38 2.66 96.38 C1.19 96.38 0 95.19 0 93.72 C0 92.25 1.19 91.06 2.66 91.06
							 C4.12 91.06 5.31 92.25 5.31 93.72 Z" class="st4"/>
			</g>
			<g id="shape5107-46" transform="translate(25.689,-25.689)">
				<title>Sheet.5107</title>
				<path d="M5.31 93.72 C5.31 95.19 4.12 96.38 2.66 96.38 C1.19 96.38 0 95.19 0 93.72 C0 92.25 1.19 91.06 2.66 91.06
							 C4.12 91.06 5.31 92.25 5.31 93.72 Z" class="st3"/>
			</g>
			<g id="shape5108-48" transform="translate(25.689,1.42109E-14)">
				<title>Sheet.5108</title>
				<path d="M5.31 93.72 C5.31 95.19 4.12 96.38 2.66 96.38 C1.19 96.38 0 95.19 0 93.72 C0 92.25 1.19 91.06 2.66 91.06
							 C4.12 91.06 5.31 92.25 5.31 93.72 Z" class="st4"/>
			</g>
			<g id="shape5109-50" transform="translate(51.378,-51.378)">
				<title>Sheet.5109</title>
				<path d="M5.31 93.72 C5.31 95.19 4.12 96.38 2.66 96.38 C1.19 96.38 0 95.19 0 93.72 C0 92.25 1.19 91.06 2.66 91.06
							 C4.12 91.06 5.31 92.25 5.31 93.72 Z" class="st4"/>
			</g>
			<g id="shape5110-52" transform="translate(51.378,-25.7022)">
				<title>Sheet.5110</title>
				<path d="M5.31 93.72 C5.31 95.19 4.12 96.38 2.66 96.38 C1.19 96.38 0 95.19 0 93.72 C0 92.25 1.19 91.06 2.66 91.06
							 C4.12 91.06 5.31 92.25 5.31 93.72 Z" class="st4"/>
			</g>
			<g id="shape5111-54" transform="translate(51.378,1.42109E-14)">
				<title>Sheet.5111</title>
				<path d="M5.31 93.72 C5.31 95.19 4.12 96.38 2.66 96.38 C1.19 96.38 0 95.19 0 93.72 C0 92.25 1.19 91.06 2.66 91.06
							 C4.12 91.06 5.31 92.25 5.31 93.72 Z" class="st3"/>
			</g>
		</g>
	</g>
</svg>
