<?xml version="1.0" encoding="UTF-8" standalone="no"?>
<!DOCTYPE svg PUBLIC "-//W3C//DTD SVG 1.1//EN" "http://www.w3.org/Graphics/SVG/1.1/DTD/svg11.dtd">
<!-- Generated by Microsoft Visio, SVG Export Exchange Hub Transport Server.svg Page-1 -->
<svg xmlns="http://www.w3.org/2000/svg" xmlns:xlink="http://www.w3.org/1999/xlink" xmlns:ev="http://www.w3.org/2001/xml-events"
		width="2.20479in" height="2.0903in" viewBox="0 0 158.745 150.502" xml:space="preserve" color-interpolation-filters="sRGB"
		class="st24">
	<style type="text/css">
	<![CDATA[
		.st1 {fill:url(#grad0-11);stroke:none;stroke-linecap:butt;stroke-width:35.9597}
		.st2 {fill:#003067;stroke:none;stroke-linecap:butt;stroke-width:35.9597}
		.st3 {fill:#50e6ff;stroke:none;stroke-linecap:butt;stroke-width:35.9597}
		.st4 {fill:#50e6ff;stroke:none;stroke-linecap:butt;stroke-width:63.4472}
		.st5 {fill:#32bedd;stroke:none;stroke-linecap:butt;stroke-width:63.4472}
		.st6 {fill:#198ab3;stroke:none;stroke-linecap:butt;stroke-width:63.4472}
		.st7 {fill:url(#grad0-43);stroke:none;stroke-linecap:butt;stroke-width:63.4472}
		.st8 {fill:#28a8ea;stroke:none;stroke-linecap:butt;stroke-width:16.1053}
		.st9 {fill:#0078d4;stroke:none;stroke-linecap:butt;stroke-width:16.1053}
		.st10 {fill:#50d9ff;stroke:none;stroke-linecap:butt;stroke-width:16.1053}
		.st11 {fill:#2086bb;stroke:none;stroke-linecap:butt;stroke-width:16.1053}
		.st12 {fill:#2497d2;stroke:none;stroke-linecap:butt;stroke-width:16.1053}
		.st13 {fill:#48c3e5;stroke:none;stroke-linecap:butt;stroke-width:16.1053}
		.st14 {fill:#1d78a8;stroke:none;stroke-linecap:butt;stroke-width:16.1053}
		.st15 {fill:#1d79a8;stroke:none;stroke-linecap:butt;stroke-width:16.1053}
		.st16 {fill:#176086;stroke:none;stroke-linecap:butt;stroke-width:16.1053}
		.st17 {fill:#2e7d92;stroke:none;stroke-linecap:butt;stroke-width:16.1053}
		.st18 {fill:#41afce;stroke:none;stroke-linecap:butt;stroke-width:16.1053}
		.st19 {fill:#838383;stroke:none;stroke-linecap:butt;stroke-width:16.1053}
		.st20 {fill:#155678;stroke:none;stroke-width:0.999999}
		.st21 {fill:none;stroke:none;stroke-linecap:butt;stroke-width:16.1053}
		.st22 {fill:#297083;stroke:none;stroke-linecap:butt;stroke-width:16.1053}
		.st23 {fill:#ffffff;stroke:none;stroke-linecap:butt;stroke-width:16.1053}
		.st24 {fill:none;fill-rule:evenodd;font-size:12px;overflow:visible;stroke-linecap:square;stroke-miterlimit:3}
	]]>
	</style>

	<defs id="Patterns_And_Gradients">
		<linearGradient id="grad0-11" x1="0" y1="0" x2="1" y2="0" gradientTransform="rotate(-90 0.5 0.5)">
			<stop offset="0" stop-color="#949494" stop-opacity="1"/>
			<stop offset="0.53" stop-color="#a2a2a2" stop-opacity="1"/>
			<stop offset="1" stop-color="#b3b3b3" stop-opacity="1"/>
		</linearGradient>
		<linearGradient id="grad0-43" x1="0" y1="0" x2="1" y2="0" gradientTransform="rotate(90 0.5 0.5)">
			<stop offset="0" stop-color="#005ba1" stop-opacity="1"/>
			<stop offset="0.26" stop-color="#00589d" stop-opacity="1"/>
			<stop offset="0.53" stop-color="#004f90" stop-opacity="1"/>
			<stop offset="0.8" stop-color="#003f7c" stop-opacity="1"/>
			<stop offset="1" stop-color="#003067" stop-opacity="1"/>
		</linearGradient>
	</defs>
	<g>
		<title>Page-1</title>
		<g id="group3612-1" transform="translate(47.7198,-59.6462)">
			<title>Exchange Hub Transport Server</title>
			<g id="group3613-2">
				<title>Page-1</title>
				<g id="group3614-3">
					<title>Sheet.3614</title>
					<g id="group3615-4">
						<title>Sheet.3615</title>
						<g id="group3616-5">
							<title>Icon-databases-136.149</title>
							<g id="group3617-6">
								<title>path4-5</title>
								<g id="group3618-7">
									<title>Sheet.3618</title>
									<g id="shape3619-8">
										<title>Sheet.3619</title>
										<path d="M31.85 148.64 A1.90452 1.88109 90 0 1 30.01 150.5 L1.85 150.5 A1.87168 1.84866 90
													 0 1 0 148.64 L0 97.47 A1.83884 1.81623 90 0 1 1.85 95.61 L30.01 95.61 A1.87168
													 1.84866 90 0 1 31.85 97.47 L31.85 148.64 Z" class="st1"/>
									</g>
								</g>
							</g>
							<g id="group3620-12" transform="translate(4.6703,-32.1468)">
								<title>path6-7</title>
								<g id="group3621-13">
									<title>Sheet.3621</title>
									<g id="shape3622-14">
										<title>Sheet.3622</title>
										<path d="M-0 147 A3.5135 3.47029 90 0 1 3.44 143.51 L19.33 143.51 A3.5135 3.47029 90 0 1
													 22.89 147 A3.5135 3.47029 90 0 1 19.33 150.5 L3.44 150.5 A3.5135 3.47029 90
													 0 1 0 147 ZM0 136.62 A3.5135 3.47029 90 0 1 3.44 133.11 L19.33 133.11 A3.5135
													 3.47029 90 0 1 22.89 136.62 A3.5135 3.47029 90 0 1 19.33 140.1 L3.44 140.1 A3.5135
													 3.47029 90 0 1 0 136.62 Z" class="st2"/>
									</g>
								</g>
							</g>
							<g id="group3623-16" transform="translate(5.9676,-43.666)">
								<title>circle8-5</title>
								<g id="group3624-17">
									<title>Sheet.3624</title>
									<g id="shape3625-18">
										<title>Sheet.3625</title>
										<ellipse cx="2.33514" cy="148.138" rx="2.33514" ry="2.36423" class="st3"/>
									</g>
								</g>
							</g>
							<g id="group3626-20" transform="translate(5.9676,-33.2897)">
								<title>circle10-2</title>
								<g id="group3627-21">
									<title>Sheet.3627</title>
									<g id="shape3628-22">
										<title>Sheet.3628</title>
										<ellipse cx="2.33514" cy="148.138" rx="2.33514" ry="2.36423" class="st3"/>
									</g>
								</g>
							</g>
						</g>
					</g>
					<g id="group3629-24" transform="translate(15.7275,-3.80109)">
						<title>Data Share Invitation.1683</title>
						<g id="group3630-25">
							<title>Icon-integration-214</title>
							<g id="group3631-26">
								<title>path4</title>
								<g id="group3632-27">
									<title>Sheet.3632</title>
									<g id="shape3633-28">
										<title>Sheet.3633</title>
										<path d="M31.85 129.4 L31.81 129.4 L31.81 129.32 L31.74 129.32 L15.23 129.41 L0.07 129.32
													 L0 129.32 L0 150.5 L31.81 150.5 L31.81 129.4 L31.85 129.4 Z" class="st4"/>
									</g>
								</g>
							</g>
							<g id="group3634-30">
								<title>path6</title>
								<g id="group3635-31">
									<title>Sheet.3635</title>
									<g id="shape3636-32">
										<title>Sheet.3636</title>
										<path d="M0 129.4 L0 150.5 L15.93 139.96 L0 129.4 Z" class="st5"/>
									</g>
								</g>
							</g>
							<g id="group3637-34" transform="translate(15.9235,0)">
								<title>path8</title>
								<g id="group3638-35">
									<title>Sheet.3638</title>
									<g id="shape3639-36">
										<title>Sheet.3639</title>
										<path d="M15.89 129.4 L0 139.96 L15.89 150.5 L15.89 129.4 Z" class="st6"/>
									</g>
								</g>
							</g>
							<g id="group3640-38" transform="translate(0,-1.95001E-06)">
								<title>path10</title>
								<g id="group3641-39">
									<title>Sheet.3641</title>
									<g id="shape3642-40">
										<title>Sheet.3642</title>
										<path d="M15.89 139.96 L0 150.47 L0 150.5 L31.81 150.5 L31.81 150.47 L15.89 139.96 Z"
												class="st7"/>
									</g>
								</g>
							</g>
						</g>
					</g>
					<g id="group3643-44" transform="translate(23.2009,-34.6049)">
						<title>Sheet.3643</title>
						<g id="group3644-45" transform="translate(3.18105,0)">
							<title>Sheet.3644</title>
							<g id="group3645-46">
								<title>Sheet.3645</title>
								<g id="shape3646-47">
									<title>Sheet.3646</title>
									<path d="M20.21 128.41 L14.68 128.41 C14.25 128.41 13.84 128.59 13.55 128.89 L0.46 142.14 C0.17
												 142.45 0 142.85 0 143.29 L0 148.89 C0 149.79 0.71 150.5 1.59 150.5 L7.13 150.5 C7.55
												 150.5 7.96 150.35 8.26 150.04 L21.35 136.77 C21.64 136.47 21.81 136.07 21.81 135.64
												 L21.81 130.02 C21.81 129.13 21.1 128.41 20.21 128.41 Z" class="st8"/>
								</g>
							</g>
						</g>
						<g id="group3647-49" transform="translate(14.079,0)">
							<title>Sheet.3647</title>
							<g id="group3648-50">
								<title>Sheet.3648</title>
								<g id="shape3649-51">
									<title>Sheet.3649</title>
									<path d="M9.32 150.5 L3.77 150.5 C3.34 150.5 2.95 150.35 2.64 150.04 L0 147.35 L0 142.33 C0 140.75
												 1.27 139.46 2.84 139.46 L7.78 139.46 L10.45 142.14 C10.74 142.45 10.91 142.85 10.91
												 143.29 L10.91 148.89 C10.91 149.79 10.19 150.5 9.32 150.5 Z" class="st9"/>
								</g>
							</g>
						</g>
						<g id="group3650-53" transform="translate(3.18105,-11.0448)">
							<title>Sheet.3650</title>
							<g id="group3651-54">
								<title>Sheet.3651</title>
								<g id="shape3652-55">
									<title>Sheet.3652</title>
									<path d="M1.59 139.46 L7.13 139.46 C7.55 139.46 7.96 139.63 8.26 139.93 L10.91 142.62 L10.91
												 147.64 C10.91 149.22 9.64 150.5 8.06 150.5 L3.12 150.5 L0.46 147.83 C0.17 147.53
												 0 147.12 0 146.69 L0 141.06 C0 140.17 0.71 139.46 1.59 139.46 Z" class="st10"/>
								</g>
							</g>
						</g>
						<g id="group3653-57" transform="translate(3.18105,-3.22392)">
							<title>Sheet.3653</title>
							<g id="group3654-58">
								<title>Sheet.3654</title>
								<g id="shape3655-59">
									<title>Sheet.3655</title>
									<path d="M0 146.51 L0 150.5 L8.94 150.5 C8.94 150.5 8.94 150.5 8.94 150.5 C9.46 150.5 9.89 150.13
												 9.98 149.63 C9.71 149.89 9.33 150.04 8.94 150.06 L0 150.06 L0 146.51 Z"
											class="st11"/>
								</g>
							</g>
						</g>
						<g id="group3656-61" transform="translate(13.1559,-4.11907)">
							<title>Sheet.3656</title>
							<g id="group3657-62">
								<title>Sheet.3657</title>
								<g id="shape3658-63">
									<title>Sheet.3658</title>
									<path d="M0.47 142.27 C0.35 142.47 0.19 142.65 0.03 142.81 L0.03 149.41 C0.03 149.41 0.03 149.41
												 0.03 149.41 L0.03 150.33 C0.03 150.4 0.01 150.45 0 150.5 C0 150.5 0 150.5 0 150.5
												 C0.29 150.23 0.47 149.84 0.47 149.41 L0.47 142.27 Z" class="st12"/>
								</g>
							</g>
						</g>
						<g id="group3659-65" transform="translate(3.18105,-11.812)">
							<title>Sheet.3659</title>
							<g id="group3660-66">
								<title>Sheet.3660</title>
								<g id="shape3661-67">
									<title>Sheet.3661</title>
									<path d="M8.94 144.37 L0 144.37 L0 144.82 L8.49 144.82 C8.49 144.82 8.49 144.82 8.49 144.82 C8.49
												 144.82 8.49 144.82 8.49 144.82 L8.94 144.82 C8.94 144.82 8.94 144.82 8.94 144.82
												 C9.51 144.82 9.99 145.3 9.99 145.89 L9.99 145.9 L9.99 150.5 C10.16 150.36 10.31
												 150.16 10.45 149.97 L10.45 145.9 C10.45 145.05 9.76 144.37 8.94 144.37 Z"
											class="st13"/>
								</g>
							</g>
						</g>
						<g id="group3662-69" transform="translate(3.18105,-3.68832)">
							<title>Sheet.3662</title>
							<g id="group3663-70">
								<title>Sheet.3663</title>
								<g id="shape3664-71">
									<title>Sheet.3664</title>
									<path d="M0 146.98 L0 150.5 L8.94 150.5 C9.33 150.5 9.71 150.35 9.98 150.08 C9.98 150.08 9.98
												 150.08 9.98 150.08 C9.99 150.02 10 149.97 10 149.9 L10 148.98 C10 149.56 9.52 150.04
												 8.94 150.06 L0 150.06 L0 146.98 Z" class="st14"/>
								</g>
							</g>
						</g>
						<g id="group3665-73" transform="translate(13.1758,-5.21614)">
							<title>Sheet.3665</title>
							<g id="group3666-74">
								<title>Sheet.3666</title>
								<g id="shape3667-75">
									<title>Sheet.3667</title>
									<path d="M0 143.91 L0 150.5 L0 143.91 Z" class="st15"/>
								</g>
							</g>
						</g>
						<g id="group3668-77" transform="translate(3.18105,-4.14599)">
							<title>Sheet.3668</title>
							<g id="group3669-78">
								<title>Sheet.3669</title>
								<g id="shape3670-79">
									<title>Sheet.3670</title>
									<path d="M10 142.83 C9.85 142.96 9.71 143.08 9.53 143.19 L9.53 149.44 C9.53 150.03 9.06 150.5
												 8.49 150.5 L0 150.5 L0 147.42 L0 150.5 L8.94 150.5 C9.52 150.5 10 150.03 10 149.44
												 L10 142.83 Z" class="st16"/>
								</g>
							</g>
						</g>
						<g id="group3671-81" transform="translate(11.6617,-11.4687)">
							<title>Sheet.3671</title>
							<g id="group3672-82">
								<title>Sheet.3672</title>
								<g id="shape3673-83">
									<title>Sheet.3673</title>
									<path d="M0.45 144.48 C0.45 144.48 0.45 144.48 0.45 144.48 L0 144.48 C0.58 144.48 1.05 144.96
												 1.05 145.55 L1.05 150.5 C1.22 150.4 1.36 150.29 1.51 150.16 L1.51 145.55 C1.51 144.96
												 1.04 144.48 0.45 144.48 Z" class="st17"/>
								</g>
							</g>
						</g>
						<g id="group3674-85" transform="translate(3.18105,-17.4993)">
							<title>Sheet.3674</title>
							<g id="group3675-86">
								<title>Sheet.3675</title>
								<g id="shape3676-87">
									<title>Sheet.3676</title>
									<path d="M8.49 150.5 L0 150.5 L8.49 150.5 Z" class="st18"/>
								</g>
							</g>
						</g>
						<g id="group3677-89" transform="translate(3.18105,-7.22857)">
							<title>Sheet.3677</title>
							<g id="group3678-90">
								<title>Sheet.3678</title>
								<g id="shape3679-91">
									<title>Sheet.3679</title>
									<path d="M0 142.86 L0 150.5 C0 150.1 0.17 149.68 0.46 149.38 L3.12 146.69 L0.46 144 C0.17 143.7
												 0 143.29 0 142.86 Z" class="st19"/>
								</g>
							</g>
						</g>
						<g id="group3680-93" transform="translate(3.18105,-4.14599)">
							<title>Sheet.3680</title>
							<g id="group3681-94">
								<title>Sheet.3681</title>
								<g id="shape3682-95">
									<title>Sheet.3682</title>
									<path d="M9.53 143.19 C9.1 143.45 8.61 143.61 8.06 143.61 L3.12 143.61 L0.46 146.29 C0.17 146.6
												 0 147 0 147.42 L0 150.5 L8.49 150.5 C9.06 150.5 9.53 150.03 9.53 149.44 L9.53 143.19
												 Z" class="st20"/>
								</g>
							</g>
							<g id="group3683-97">
								<title>Sheet.3683</title>
								<g id="shape3684-98">
									<title>Sheet.3684</title>
									<path d="M9.53 143.19 C9.1 143.45 8.61 143.61 8.06 143.61 L3.12 143.61 L0.46 146.29 C0.17 146.6
												 0 147 0 147.42 L0 150.5 L8.49 150.5 C9.06 150.5 9.53 150.03 9.53 149.44 L9.53 143.19
												 Z" class="st21"/>
								</g>
							</g>
						</g>
						<g id="group3685-100" transform="translate(3.18105,-11.0515)">
							<title>Sheet.3685</title>
							<g id="group3686-101">
								<title>Sheet.3686</title>
								<g id="shape3687-102">
									<title>Sheet.3687</title>
									<path d="M8.49 144.07 L0 144.07 L0 146.69 C0 147.11 0.17 147.53 0.46 147.83 L3.12 150.5 L8.06
												 150.5 C8.61 150.5 9.11 150.36 9.53 150.1 L9.53 145.14 C9.53 144.55 9.06 144.07 8.49
												 144.07 Z" class="st22"/>
								</g>
							</g>
						</g>
						<g id="group3688-104" transform="translate(0,-4.60367)">
							<title>Sheet.3688</title>
							<g id="group3689-105">
								<title>Sheet.3689</title>
								<g id="shape3690-106">
									<title>Sheet.3690</title>
									<path d="M1.07 137.61 L11.67 137.61 C12.24 137.61 12.73 138.1 12.73 138.7 L12.73 149.44 C12.73
												 150.03 12.25 150.5 11.67 150.5 L1.07 150.5 C0.48 150.5 0 150.03 0 149.44 L0 138.7
												 C0 138.1 0.48 137.61 1.07 137.61 Z" class="st9"/>
								</g>
							</g>
						</g>
						<g id="group3691-108" transform="translate(4.11745,-7.55837)">
							<title>Sheet.3691</title>
							<g id="group3692-109">
								<title>Sheet.3692</title>
								<g id="shape3693-110">
									<title>Sheet.3693</title>
									<path d="M4.32 144.66 L1.36 144.66 L1.36 146.43 L4.14 146.43 L4.14 147.55 L1.36 147.55 L1.36
												 149.39 L4.49 149.39 L4.49 150.5 L0 150.5 L0 143.53 L4.32 143.53 L4.32 144.66 Z"
											class="st23"/>
								</g>
							</g>
						</g>
					</g>
				</g>
			</g>
		</g>
	</g>
</svg>
