<?xml version="1.0" encoding="UTF-8" standalone="no"?>
<!DOCTYPE svg PUBLIC "-//W3C//DTD SVG 1.1//EN" "http://www.w3.org/Graphics/SVG/1.1/DTD/svg11.dtd">
<!-- Generated by Microsoft Visio, SVG Export Mixed Reality Product Visualise.svg Page-1 -->
<svg xmlns="http://www.w3.org/2000/svg" xmlns:xlink="http://www.w3.org/1999/xlink" xmlns:ev="http://www.w3.org/2001/xml-events"
		width="0.947444in" height="1.33858in" viewBox="0 0 68.216 96.378" xml:space="preserve" color-interpolation-filters="sRGB"
		class="st7">
	<style type="text/css">
	<![CDATA[
		.st1 {fill:url(#grad0-7);stroke:none;stroke-linecap:butt;stroke-width:5.76152}
		.st2 {fill:url(#grad0-11);stroke:none;stroke-linecap:butt;stroke-width:5.76152}
		.st3 {fill:#000000;fill-opacity:0.32;stroke:none;stroke-linecap:butt;stroke-width:5.76152}
		.st4 {fill:#000000;fill-opacity:0.24;stroke:none;stroke-linecap:butt;stroke-width:5.76152}
		.st5 {fill:url(#grad0-19);stroke:none;stroke-linecap:butt;stroke-width:5.76152}
		.st6 {fill:url(#grad0-23);stroke:none;stroke-linecap:butt;stroke-width:5.76152}
		.st7 {fill:none;fill-rule:evenodd;font-size:12px;overflow:visible;stroke-linecap:square;stroke-miterlimit:3}
	]]>
	</style>

	<defs id="Patterns_And_Gradients">
		<linearGradient id="grad0-7" x1="0" y1="0" x2="1" y2="0" gradientTransform="rotate(-9.9541799587746 0.5 0.5)">
			<stop offset="0.21" stop-color="#158915" stop-opacity="1"/>
			<stop offset="1" stop-color="#065f18" stop-opacity="1"/>
		</linearGradient>
		<linearGradient id="grad0-11" x1="0" y1="0" x2="1" y2="0" gradientTransform="rotate(-100.59655691742 0.5 0.5)">
			<stop offset="0" stop-color="#34a117" stop-opacity="1"/>
			<stop offset="1" stop-color="#6ad116" stop-opacity="1"/>
		</linearGradient>
		<linearGradient id="grad0-19" x1="0" y1="0" x2="1" y2="0" gradientTransform="rotate(37.819527376282 0.5 0.5)">
			<stop offset="0" stop-color="#8fdc50" stop-opacity="1"/>
			<stop offset="1" stop-color="#7bca52" stop-opacity="1"/>
		</linearGradient>
		<linearGradient id="grad0-23" x1="0" y1="0" x2="1" y2="0" gradientTransform="rotate(86.583520278871 0.5 0.5)">
			<stop offset="0" stop-color="#c3f488" stop-opacity="1"/>
			<stop offset="1" stop-color="#8fdc50" stop-opacity="1"/>
		</linearGradient>
	</defs>
	<g>
		<title>Page-1</title>
		<g id="group2302-1" transform="translate(5.76152,-34.0157)">
			<title>Mixed Reality Product Visualise</title>
			<g id="group2303-2">
				<title>g23</title>
				<g id="group2304-3">
					<title>g21</title>
					<g id="shape2305-4">
						<title>path5</title>
						<path d="M55.53 65.89 C56.25 66.32 56.69 67.1 56.69 67.93 L56.69 78.52 C56.69 79.36 56.25 80.14 55.53 80.56
									 L29.55 95.94 C28.81 96.38 27.89 96.38 27.15 95.94 L1.16 80.56 C0.44 80.14 0 79.36 0 78.52 L0
									 67.93 C0 67.1 0.44 66.32 1.16 65.89 L27.15 50.51 C27.89 50.08 28.81 50.08 29.55 50.51 L55.53
									 65.89 Z" class="st1"/>
					</g>
					<g id="shape2306-8" transform="translate(4.7244,-7.99041)">
						<title>path7</title>
						<path d="M46.05 83.74 C46.79 83.31 47.24 82.53 47.24 81.68 L47.24 67.11 C47.24 66.26 46.79 65.47 46.05 65.05
									 L24.79 52.82 C24.07 52.41 23.17 52.41 22.45 52.82 L1.19 65.05 C0.45 65.47 0 66.26 0 67.11 L0
									 81.68 C0 82.53 0.45 83.31 1.19 83.74 L22.45 95.96 C23.17 96.38 24.07 96.38 24.79 95.96 L46.05
									 83.74 Z" class="st2"/>
					</g>
					<g id="shape2307-12" transform="translate(10.6299,-15.1084)">
						<title>path9</title>
						<path d="M16.54 56.4 C17.27 55.98 18.16 55.98 18.89 56.4 L34.25 65.27 C34.98 65.69 35.43 66.47 35.43 67.32
									 L35.43 85.04 C35.43 85.88 34.98 86.67 34.25 87.09 L18.89 95.96 C18.16 96.38 17.27 96.38 16.54
									 95.96 L1.18 87.09 C0.45 86.67 0 85.88 0 85.04 L0 67.32 C0 66.47 0.45 65.69 1.18 65.27 L16.54
									 56.4 Z" class="st3"/>
					</g>
					<g id="shape2308-14" transform="translate(10.6299,-16.069)">
						<title>path13</title>
						<path d="M16.54 56.4 C17.27 55.98 18.16 55.98 18.89 56.4 L34.25 65.27 C34.98 65.69 35.43 66.47 35.43 67.32
									 L35.43 85.04 C35.43 85.88 34.98 86.67 34.25 87.09 L18.89 95.96 C18.16 96.38 17.27 96.38 16.54
									 95.96 L1.18 87.09 C0.45 86.67 0 85.88 0 85.04 L0 67.32 C0 66.47 0.45 65.69 1.18 65.27 L16.54
									 56.4 Z" class="st4"/>
					</g>
					<g id="shape2309-16" transform="translate(10.6299,-16.2943)">
						<title>path17</title>
						<path d="M16.54 56.4 C17.27 55.98 18.16 55.98 18.89 56.4 L34.25 65.27 C34.98 65.69 35.43 66.47 35.43 67.32
									 L35.43 85.04 C35.43 85.88 34.98 86.67 34.25 87.09 L18.89 95.96 C18.16 96.38 17.27 96.38 16.54
									 95.96 L1.18 87.09 C0.45 86.67 0 85.88 0 85.04 L0 67.32 C0 66.47 0.45 65.69 1.18 65.27 L16.54
									 56.4 Z" class="st5"/>
					</g>
					<g id="shape2310-20" transform="translate(11.3546,-36.4711)">
						<title>path19</title>
						<path d="M15.81 76.58 C16.54 76.16 17.44 76.16 18.17 76.58 L33.39 85.36 C33.98 85.7 33.99 86.55 33.4 86.9
									 L18.19 95.94 C17.45 96.38 16.53 96.38 15.79 95.94 L0.58 86.9 C0 86.55 0.01 85.7 0.59 85.36 L15.81
									 76.58 Z" class="st6"/>
					</g>
				</g>
			</g>
		</g>
	</g>
</svg>
