<?xml version="1.0" encoding="UTF-8" standalone="no"?>
<!DOCTYPE svg PUBLIC "-//W3C//DTD SVG 1.1//EN" "http://www.w3.org/Graphics/SVG/1.1/DTD/svg11.dtd">
<!-- Generated by Microsoft Visio, SVG Export Playbook.svg Page-1 -->
<svg xmlns="http://www.w3.org/2000/svg" xmlns:xlink="http://www.w3.org/1999/xlink" xmlns:ev="http://www.w3.org/2001/xml-events"
		width="1.1274in" height="1.27236in" viewBox="0 0 81.1729 91.6101" xml:space="preserve" color-interpolation-filters="sRGB"
		class="st4">
	<style type="text/css">
	<![CDATA[
		.st1 {fill:#59b4d9;stroke:none;stroke-linecap:butt;stroke-width:12.24}
		.st2 {fill:#57a300;stroke:none;stroke-linecap:butt;stroke-width:12.24}
		.st3 {fill:#0072c6;stroke:none;stroke-linecap:butt;stroke-width:12.24}
		.st4 {fill:none;fill-rule:evenodd;font-size:12px;overflow:visible;stroke-linecap:square;stroke-miterlimit:3}
	]]>
	</style>

	<g>
		<title>Page-1</title>
		<g id="group1669-1" transform="translate(12.24,-34.0157)">
			<title>Playbook</title>
			<g id="group1670-2">
				<title>g18</title>
				<g id="shape1671-3" transform="translate(15.9874,-11.8062)">
					<title>path4</title>
					<path d="M13.49 76.41 L13.49 70.57 L10.66 70.57 L10.66 76.41 C10.66 77.47 9.75 78.4 8.28 78.87 L4.42 79.69 C1.81
								 80.51 0 82.61 0 84.95 L0 91.61 L2.83 91.61 L2.83 84.95 C2.83 83.9 3.74 82.96 5.22 82.49 L9.07 81.56
								 C11.68 80.86 13.49 78.75 13.49 76.41 Z" class="st1"/>
				</g>
				<g id="shape1672-5" transform="translate(12.4724,-6.42909)">
					<title>path6</title>
					<path d="M9.75 89.27 L9.75 83.9 C9.75 82.61 8.73 81.56 7.48 81.56 L2.27 81.56 C1.02 81.56 0 82.61 0 83.9 L0 89.27
								 C0 90.56 1.02 91.61 2.27 91.61 L7.48 91.61 C8.73 91.61 9.75 90.56 9.75 89.27 Z" class="st2"/>
				</g>
				<g id="shape1673-7" transform="translate(26.3055,-11.5724)">
					<title>path8</title>
					<path d="M0 76.18 L0 70.34 L2.83 70.34 L2.83 76.18 C2.83 77.23 3.74 78.17 5.22 78.63 L9.98 79.69 C12.59 80.51
								 14.4 82.61 14.4 84.95 L14.4 91.61 L11.57 91.61 L11.57 84.95 C11.57 83.9 10.66 82.96 9.18 82.49 L4.42
								 81.44 C1.81 80.62 0 78.52 0 76.18 Z" class="st1"/>
				</g>
				<g id="shape1674-9" transform="translate(34.4693,-6.19531)">
					<title>path10</title>
					<path d="M0 89.27 L0 83.9 C0 82.61 1.02 81.56 2.27 81.56 L7.48 81.56 C8.73 81.56 9.75 82.61 9.75 83.9 L9.75 89.27
								 C9.75 90.56 8.73 91.61 7.48 91.61 L2.27 91.61 C1.02 91.61 0 90.56 0 89.27 Z" class="st2"/>
				</g>
				<g id="shape1675-11" transform="translate(26.3055,-27.236)">
					<title>path12</title>
					<rect x="0" y="85.9992" width="3.1748" height="5.61085" class="st1"/>
				</g>
				<g id="shape1676-13" transform="translate(22.6772,-30.6259)">
					<title>path14</title>
					<path d="M7.37 84.01 L7.37 88.34 L3.17 88.34 L3.17 84.01 L7.37 84.01 ZM8.28 80.74 L2.27 80.74 C1.02 80.74 0 81.79
								 0 83.08 L0 89.27 C0 90.56 1.02 91.61 2.27 91.61 L8.28 91.61 C9.52 91.61 10.54 90.56 10.54 89.27
								 L10.54 83.08 C10.54 81.79 9.52 80.74 8.28 80.74 Z" class="st3"/>
				</g>
				<g id="shape1677-15">
					<title>path16</title>
					<path d="M8.96 91.61 C6.58 91.61 4.88 91.14 3.86 90.32 C2.83 89.39 2.38 87.87 2.38 85.65 L2.38 73.49 C2.38 71.5
								 1.59 70.45 0 70.45 L0 67.41 C1.59 67.41 2.38 66.36 2.38 64.26 L2.38 52.33 C2.38 50.11 2.83 48.48
								 3.86 47.54 C4.88 46.61 6.58 46.26 8.96 46.26 L8.96 49.29 C7.26 49.29 6.35 50.23 6.35 52.22 L6.35
								 63.91 C6.35 66.6 5.56 68.23 3.86 68.93 C5.44 69.63 6.35 71.27 6.35 73.96 L6.35 85.53 C6.35 86.58
								 6.58 87.4 6.92 87.87 C7.37 88.34 7.94 88.57 8.84 88.57 L8.96 91.61 C8.84 91.61 8.96 91.61 8.96 91.61
								 ZM47.74 46.26 C50.12 46.26 51.82 46.72 52.84 47.54 C53.86 48.48 54.31 50 54.31 52.22 L54.31 64.37
								 C54.31 66.36 55.11 67.41 56.69 67.41 L56.69 70.45 C55.11 70.45 54.31 71.5 54.31 73.61 L54.31 85.41
								 C54.31 87.64 53.86 89.27 52.84 90.21 C51.82 91.14 50.12 91.61 47.74 91.61 L47.74 88.57 C49.44 88.57
								 50.34 87.64 50.34 85.65 L50.34 73.96 C50.34 71.27 51.14 69.63 52.84 68.93 C51.25 68.23 50.34 66.6
								 50.34 63.91 L50.34 52.33 C50.34 51.28 50.12 50.46 49.78 50 C49.32 49.53 48.76 49.29 47.85 49.29
								 L47.74 46.26 Z" class="st1"/>
				</g>
			</g>
		</g>
	</g>
</svg>
