<?xml version="1.0" encoding="UTF-8" standalone="no"?>
<!DOCTYPE svg PUBLIC "-//W3C//DTD SVG 1.1//EN" "http://www.w3.org/Graphics/SVG/1.1/DTD/svg11.dtd">
<!-- Generated by Microsoft Visio, SVG Export Service Bus.svg Page-1 -->
<svg xmlns="http://www.w3.org/2000/svg" xmlns:xlink="http://www.w3.org/1999/xlink" xmlns:ev="http://www.w3.org/2001/xml-events"
		width="1.73192in" height="1.65332in" viewBox="0 0 124.698 119.039" xml:space="preserve" color-interpolation-filters="sRGB"
		class="st8">
	<style type="text/css">
	<![CDATA[
		.st1 {fill:#50e6ff;stroke:none;stroke-linecap:butt;stroke-width:34}
		.st2 {fill:#32bedd;stroke:none;stroke-linecap:butt;stroke-width:34}
		.st3 {fill:#198ab3;stroke:none;stroke-linecap:butt;stroke-width:34}
		.st4 {fill:url(#grad0-12);stroke:none;stroke-linecap:butt;stroke-width:34}
		.st5 {fill:#999999;stroke:none;stroke-linecap:butt;stroke-width:34}
		.st6 {fill:#999999;fill-opacity:0.5;stroke:none;stroke-linecap:butt;stroke-width:34}
		.st7 {fill:#949494;stroke:none;stroke-linecap:butt;stroke-width:34}
		.st8 {fill:none;fill-rule:evenodd;font-size:12px;overflow:visible;stroke-linecap:square;stroke-miterlimit:3}
	]]>
	</style>

	<defs id="Patterns_And_Gradients">
		<linearGradient id="grad0-12" x1="0" y1="0" x2="1" y2="0" gradientTransform="rotate(90 0.5 0.5)">
			<stop offset="0" stop-color="#005ba1" stop-opacity="1"/>
			<stop offset="0.26" stop-color="#00589d" stop-opacity="1"/>
			<stop offset="0.53" stop-color="#004f90" stop-opacity="1"/>
			<stop offset="0.8" stop-color="#003f7c" stop-opacity="1"/>
			<stop offset="1" stop-color="#003067" stop-opacity="1"/>
		</linearGradient>
	</defs>
	<g>
		<title>Page-1</title>
		<g id="group1123-1" transform="translate(34.0052,-34.0157)">
			<title>Service Bus</title>
			<g id="group1124-2">
				<title>Icon-integration-214</title>
				<g id="shape1125-3" transform="translate(13.7063,-11.3573)">
					<title>Sheet.1125</title>
					<path d="M29.28 99.49 L29.25 99.49 L29.25 99.43 L29.18 99.43 L14.64 89.42 L0.07 99.43 L0 99.43 L0 119.04 L29.25
								 119.04 L29.25 99.49 L29.28 99.49 Z" class="st1"/>
				</g>
				<g id="shape1126-5" transform="translate(13.7063,-11.3573)">
					<title>Sheet.1126</title>
					<path d="M0 99.49 L0 119.04 L14.64 109.27 L0 99.49 Z" class="st2"/>
				</g>
				<g id="shape1127-7" transform="translate(28.3465,-11.3573)">
					<title>Sheet.1127</title>
					<path d="M14.61 99.49 L0 109.27 L14.61 119.04 L14.61 99.49 Z" class="st3"/>
				</g>
				<g id="shape1128-9" transform="translate(13.7063,-11.3573)">
					<title>Sheet.1128</title>
					<path d="M14.61 109.27 L0 119.01 L0 119.04 L29.25 119.04 L29.25 119.01 L14.61 109.27 Z" class="st4"/>
				</g>
				<g id="group1129-13" transform="translate(5.64548E-14,-38.015)">
					<title>Sheet.1129</title>
					<g id="shape1130-14">
						<title>Sheet.1130</title>
						<path d="M1.9 106.03 L6.2 106.03 L6.2 118.06 a0.967114 0.977335 0 0 1 -0.967114 0.977335 L0.97 119.04 a0.967114
									 0.977335 0 0 1 -0.967114 -0.977335 L0 107.95 A1.90088 1.92097 0 0 1 1.9 106.03 Z" class="st5"/>
					</g>
					<g id="shape1131-16">
						<title>Sheet.1131</title>
						<path d="M1.9 106.03 L6.2 106.03 L6.2 118.06 a0.967114 0.977335 0 0 1 -0.967114 0.977335 L0.97 119.04 a0.967114
									 0.977335 0 0 1 -0.967114 -0.977335 L0 107.95 A1.90088 1.92097 0 0 1 1.9 106.03 Z" class="st6"/>
					</g>
				</g>
				<g id="group1132-18" transform="translate(50.49,-38.015)">
					<title>Sheet.1132</title>
					<g id="shape1133-19">
						<title>Sheet.1133</title>
						<path d="M0 106.03 L4.3 106.03 A1.90088 1.92097 0 0 1 6.2 107.95 L6.2 118.06 a0.967114 0.977335 0 0 1 -0.967114
									 0.977335 L0.93 119.04 a0.967114 0.977335 0 0 1 -0.933766 -0.977335 L0 106.03 Z" class="st5"/>
					</g>
					<g id="shape1134-21">
						<title>Sheet.1134</title>
						<path d="M0 106.03 L4.3 106.03 A1.90088 1.92097 0 0 1 6.2 107.95 L6.2 118.06 a0.967114 0.977335 0 0 1 -0.967114
									 0.977335 L0.93 119.04 a0.967114 0.977335 0 0 1 -0.933766 -0.977335 L0 106.03 Z" class="st6"/>
					</g>
				</g>
				<g id="shape1135-23" transform="translate(0,-44.89)">
					<title>Sheet.1135</title>
					<path d="M56.69 114.83 L56.69 119.04 L0 119.04 L0 114.83 A1.90088 1.92097 0 0 1 1.9 112.91 L54.83 112.91 A1.90088
								 1.92097 0 0 1 56.69 114.83 Z" class="st7"/>
				</g>
				<g id="group1136-25">
					<title>Sheet.1136</title>
					<g id="shape1137-26">
						<title>Sheet.1137</title>
						<path d="M0.97 105.93 L5.27 105.93 a0.967114 0.977335 0 0 1 0.967114 0.977335 L6.24 119.04 L1.9 119.04 A1.90088
									 1.92097 0 0 1 0 117.12 L0 107.01 a0.967114 0.977335 0 0 1 0.967114 -1.07844 Z" class="st5"/>
					</g>
					<g id="shape1138-28">
						<title>Sheet.1138</title>
						<path d="M0.97 105.93 L5.27 105.93 a0.967114 0.977335 0 0 1 0.967114 0.977335 L6.24 119.04 L1.9 119.04 A1.90088
									 1.92097 0 0 1 0 117.12 L0 107.01 a0.967114 0.977335 0 0 1 0.967114 -1.07844 Z" class="st6"/>
					</g>
				</g>
				<g id="group1139-30" transform="translate(50.49,-0.101104)">
					<title>Sheet.1139</title>
					<g id="shape1140-31">
						<title>Sheet.1140</title>
						<path d="M0.93 106.03 L5.24 106.03 a0.967114 0.977335 0 0 1 0.967114 0.977335 L6.2 117.12 A1.90088 1.92097
									 0 0 1 4.3 119.04 L0 119.04 L0 107.11 a0.967114 0.977335 0 0 1 0.933766 -1.07844 Z" class="st5"/>
					</g>
					<g id="shape1141-33">
						<title>Sheet.1141</title>
						<path d="M0.93 106.03 L5.24 106.03 a0.967114 0.977335 0 0 1 0.967114 0.977335 L6.2 117.12 A1.90088 1.92097
									 0 0 1 4.3 119.04 L0 119.04 L0 107.11 a0.967114 0.977335 0 0 1 0.933766 -1.07844 Z" class="st6"/>
					</g>
				</g>
				<g id="shape1142-35">
					<title>Sheet.1142</title>
					<path d="M0 117.12 L0 112.91 L56.69 112.91 L56.69 117.12 A1.90088 1.92097 0 0 1 54.79 119.04 L1.9 119.04 A1.90088
								 1.92097 0 0 1 0 117.12 Z" class="st7"/>
				</g>
			</g>
		</g>
	</g>
</svg>
