<?xml version="1.0" encoding="UTF-8" standalone="no"?>
<!-- Generated by Microsoft Visio, SVG Export API Management External Cache.svg Page-1 -->

<svg
   xmlns:dc="http://purl.org/dc/elements/1.1/"
   xmlns:cc="http://creativecommons.org/ns#"
   xmlns:rdf="http://www.w3.org/1999/02/22-rdf-syntax-ns#"
   xmlns:svg="http://www.w3.org/2000/svg"
   xmlns="http://www.w3.org/2000/svg"
   xmlns:sodipodi="http://sodipodi.sourceforge.net/DTD/sodipodi-0.dtd"
   xmlns:inkscape="http://www.inkscape.org/namespaces/inkscape"
   width="55.827415"
   height="47.792801"
   viewBox="0 0 55.827417 47.792803"
   xml:space="preserve"
   class="st4"
   version="1.1"
   id="svg79"
   sodipodi:docname="API Management External Cache.svg"
   style="font-size:12px;overflow:visible;color-interpolation-filters:sRGB;fill:none;fill-rule:evenodd;stroke-linecap:square;stroke-miterlimit:3"
   inkscape:version="0.92.5 (2060ec1f9f, 2020-04-08)"><metadata
   id="metadata85"><rdf:RDF><cc:Work
       rdf:about=""><dc:format>image/svg+xml</dc:format><dc:type
         rdf:resource="http://purl.org/dc/dcmitype/StillImage" /></cc:Work></rdf:RDF></metadata><defs
   id="defs83" /><sodipodi:namedview
   pagecolor="#ffffff"
   bordercolor="#666666"
   borderopacity="1"
   objecttolerance="10"
   gridtolerance="10"
   guidetolerance="10"
   inkscape:pageopacity="0"
   inkscape:pageshadow="2"
   inkscape:window-width="640"
   inkscape:window-height="480"
   id="namedview81"
   showgrid="false"
   inkscape:zoom="2.5040905"
   inkscape:cx="27.91526"
   inkscape:cy="12.911402"
   inkscape:window-x="0"
   inkscape:window-y="0"
   inkscape:window-maximized="0"
   inkscape:current-layer="svg79" />
	<style
   type="text/css"
   id="style2">
	<![CDATA[
		.st1 {fill:#ba141a;stroke:none;stroke-linecap:butt;stroke-width:12.24}
		.st2 {fill:#1e1e1e;fill-opacity:0.25;stroke:none;stroke-linecap:butt;stroke-width:12.24}
		.st3 {fill:#ffffff;stroke:none;stroke-linecap:butt;stroke-width:12.24}
		.st4 {fill:none;fill-rule:evenodd;font-size:12px;overflow:visible;stroke-linecap:square;stroke-miterlimit:3}
	]]>
	</style>

	<g
   id="g77"
   transform="translate(-12.238789,-12.2415)">
		<title
   id="title4">Page-1</title>
		<g
   id="group16091-1"
   transform="translate(11.8076,-34.0157)">
			<title
   id="title6">API Management External Cache.16091</title>
			<g
   id="group16092-2">
				<title
   id="title8">Sheet.16092</title>
				<g
   id="shape16093-3"
   transform="translate(0.334801)">
					<title
   id="title10">Sheet.16093</title>
					<path
   d="M 0.11,82.31 C 0,82.88 0.56,83.56 1.67,84.02 l 22.66,9.43 c 2.01,0.8 5.36,0.8 7.36,0 l 22.66,-9.43 c 1.12,-0.46 1.56,-1.14 1.56,-1.71 v -5.45 c 0.11,0.57 -0.44,1.25 -1.56,1.7 l -22.66,9.43 c -2,0.8 -5.35,0.8 -7.36,0 L 1.67,78.56 C 0.45,78.11 0,77.43 0.22,76.74 Z"
   class="st1"
   id="path12"
   inkscape:connector-curvature="0"
   style="fill:#ba141a;stroke:none;stroke-width:12.23999977;stroke-linecap:butt" />
				</g>
				<g
   id="shape16094-5"
   transform="translate(0,-5.45536)">
					<title
   id="title15">Sheet.16094</title>
					<path
   d="m 54.68,80.95 c 2.01,0.79 2.01,2.27 0,3.07 l -22.65,9.43 c -2.01,0.8 -5.36,0.8 -7.37,0 L 2.01,84.02 C 0,83.22 0,81.74 2.01,80.95 l 22.65,-9.43 c 2.01,-0.8 5.36,-0.8 7.37,0 z"
   class="st1"
   id="path17"
   inkscape:connector-curvature="0"
   style="fill:#ba141a;stroke:none;stroke-width:12.23999977;stroke-linecap:butt" />
				</g>
				<g
   id="shape16095-7"
   transform="translate(0.334801,-9.54687)">
					<title
   id="title20">Sheet.16095</title>
					<path
   d="M 0.11,82.31 C 0,82.88 0.56,83.56 1.67,84.02 l 22.66,9.43 c 2.01,0.8 5.36,0.8 7.36,0 l 22.66,-9.43 c 1.12,-0.46 1.56,-1.14 1.56,-1.71 v -5.45 c 0.11,0.57 -0.44,1.25 -1.56,1.7 l -22.66,9.43 c -2,0.8 -5.35,0.8 -7.36,0 L 1.67,78.56 C 0.45,78.11 0,77.43 0.22,76.74 Z"
   class="st1"
   id="path22"
   inkscape:connector-curvature="0"
   style="fill:#ba141a;stroke:none;stroke-width:12.23999977;stroke-linecap:butt" />
				</g>
				<g
   id="shape16096-9"
   transform="translate(0,-15.1159)">
					<title
   id="title25">Sheet.16096</title>
					<path
   d="m 54.68,80.95 c 2.01,0.79 2.01,2.27 0,3.07 l -22.65,9.43 c -2.01,0.8 -5.36,0.8 -7.37,0 L 2.01,84.13 C 0,83.34 0,81.86 2.01,81.06 l 22.65,-9.43 c 2.01,-0.8 5.36,-0.8 7.37,0 z"
   class="st1"
   id="path27"
   inkscape:connector-curvature="0"
   style="fill:#ba141a;stroke:none;stroke-width:12.23999977;stroke-linecap:butt" />
				</g>
				<g
   id="shape16097-11"
   transform="translate(0.334801,-19.2074)">
					<title
   id="title30">Sheet.16097</title>
					<path
   d="M 0.11,82.31 C 0,82.88 0.56,83.56 1.67,84.02 l 22.66,9.43 c 2.01,0.8 5.36,0.8 7.36,0 l 22.66,-9.43 c 1.12,-0.46 1.56,-1.14 1.56,-1.71 v -5.45 c 0.11,0.57 -0.44,1.25 -1.56,1.7 l -22.66,9.43 c -2,0.8 -5.35,0.8 -7.36,0 L 1.67,78.56 C 0.45,78.11 0,77.43 0.22,76.74 Z"
   class="st1"
   id="path32"
   inkscape:connector-curvature="0"
   style="fill:#ba141a;stroke:none;stroke-width:12.23999977;stroke-linecap:butt" />
				</g>
				<g
   id="shape16098-13"
   transform="translate(0.334801)">
					<title
   id="title35">Sheet.16098</title>
					<path
   d="M 0.11,82.31 C 0,82.88 0.56,83.56 1.67,84.02 l 22.66,9.43 c 2.01,0.8 5.36,0.8 7.36,0 l 22.66,-9.43 c 1.12,-0.46 1.56,-1.14 1.56,-1.71 v -5.45 c 0.11,0.57 -0.44,1.25 -1.56,1.7 l -22.66,9.43 c -2,0.8 -5.35,0.8 -7.36,0 L 1.67,78.56 C 0.45,78.11 0,77.43 0.22,76.74 Z"
   class="st2"
   id="path37"
   inkscape:connector-curvature="0"
   style="fill:#1e1e1e;fill-opacity:0.25;stroke:none;stroke-width:12.23999977;stroke-linecap:butt" />
				</g>
				<g
   id="shape16099-15"
   transform="translate(0.334801,-9.54687)">
					<title
   id="title40">Sheet.16099</title>
					<path
   d="M 0.11,82.31 C 0,82.88 0.56,83.56 1.67,84.02 l 22.66,9.43 c 2.01,0.8 5.36,0.8 7.36,0 l 22.66,-9.43 c 1.12,-0.46 1.56,-1.14 1.56,-1.71 v -5.45 c 0.11,0.57 -0.44,1.25 -1.56,1.7 l -22.66,9.43 c -2,0.8 -5.35,0.8 -7.36,0 L 1.67,78.56 C 0.45,78.11 0,77.43 0.22,76.74 Z"
   class="st2"
   id="path42"
   inkscape:connector-curvature="0"
   style="fill:#1e1e1e;fill-opacity:0.25;stroke:none;stroke-width:12.23999977;stroke-linecap:butt" />
				</g>
				<g
   id="shape16100-17"
   transform="translate(0.334801,-19.2074)">
					<title
   id="title45">Sheet.16100</title>
					<path
   d="M 0.11,82.31 C 0,82.88 0.56,83.56 1.67,84.02 l 22.66,9.43 c 2.01,0.8 5.36,0.8 7.36,0 l 22.66,-9.43 c 1.12,-0.46 1.56,-1.14 1.56,-1.71 v -5.45 c 0.11,0.57 -0.44,1.25 -1.56,1.7 l -22.66,9.43 c -2,0.8 -5.35,0.8 -7.36,0 L 1.67,78.56 C 0.45,78.11 0,77.43 0.22,76.74 Z"
   class="st2"
   id="path47"
   inkscape:connector-curvature="0"
   style="fill:#1e1e1e;fill-opacity:0.25;stroke:none;stroke-width:12.23999977;stroke-linecap:butt" />
				</g>
				<g
   id="shape16101-19"
   transform="translate(0,-24.6628)">
					<title
   id="title50">Sheet.16101</title>
					<path
   d="m 54.68,80.95 c 2.01,0.79 2.01,2.27 0,3.07 l -22.65,9.43 c -2.01,0.8 -5.36,0.8 -7.37,0 L 2.01,84.02 C 0,83.22 0,81.74 2.01,80.95 l 22.65,-9.43 c 2.01,-0.8 5.36,-0.8 7.37,0 z"
   class="st1"
   id="path52"
   inkscape:connector-curvature="0"
   style="fill:#ba141a;stroke:none;stroke-width:12.23999977;stroke-linecap:butt" />
				</g>
				<g
   id="shape16102-21"
   transform="translate(9.37442,-27.1631)">
					<title
   id="title55">Sheet.16102</title>
					<path
   d="m 11.94,86.74 c -2.57,1.14 -6.81,1.14 -9.37,0 -2.57,-1.13 -2.57,-3.06 0,-4.2 2.56,-1.14 6.8,-1.14 9.37,0 2.57,1.14 2.68,3.07 0,4.2 z m -1.67,3.07 13.28,-1.59 -3.57,6.03 z"
   class="st3"
   id="path57"
   inkscape:connector-curvature="0"
   style="fill:#ffffff;stroke:none;stroke-width:12.23999977;stroke-linecap:butt" />
				</g>
				<g
   id="shape16103-23"
   transform="translate(32.4757,-33.0731)">
					<title
   id="title60">Sheet.16103</title>
					<path
   d="M 7.92,94.25 0,90.61 l 7.92,-3.64 7.93,3.64 z"
   class="st2"
   id="path62"
   inkscape:connector-curvature="0"
   style="fill:#1e1e1e;fill-opacity:0.25;stroke:none;stroke-width:12.23999977;stroke-linecap:butt" />
				</g>
				<g
   id="shape16104-25"
   transform="translate(32.4757,-33.0731)">
					<title
   id="title65">Sheet.16104</title>
					<path
   d="M 7.92,94.25 0,90.61 7.92,86.97 Z"
   class="st2"
   id="path67"
   inkscape:connector-curvature="0"
   style="fill:#1e1e1e;fill-opacity:0.25;stroke:none;stroke-width:12.23999977;stroke-linecap:butt" />
				</g>
				<g
   id="shape16105-27"
   transform="translate(20.646,-38.7558)">
					<title
   id="title70">Sheet.16105</title>
					<path
   d="M 5.13,91.86 0,91.4 4.58,90.27 4.02,87.88 l 3.9,1.59 4.8,-1.02 -2.23,2.27 3.57,1.71 -5.24,-0.23 -2.57,2.05 z"
   class="st3"
   id="path72"
   inkscape:connector-curvature="0"
   style="fill:#ffffff;stroke:none;stroke-width:12.23999977;stroke-linecap:butt" />
				</g>
			</g>
		</g>
	</g>
</svg>