<?xml version="1.0" encoding="UTF-8" standalone="no"?>
<!-- Generated by Microsoft Visio, SVG Export SignalR Replica.svg Page-1 -->

<svg
   xmlns:dc="http://purl.org/dc/elements/1.1/"
   xmlns:cc="http://creativecommons.org/ns#"
   xmlns:rdf="http://www.w3.org/1999/02/22-rdf-syntax-ns#"
   xmlns:svg="http://www.w3.org/2000/svg"
   xmlns="http://www.w3.org/2000/svg"
   xmlns:sodipodi="http://sodipodi.sourceforge.net/DTD/sodipodi-0.dtd"
   xmlns:inkscape="http://www.inkscape.org/namespaces/inkscape"
   width="61.804291"
   height="58.088474"
   viewBox="0 0 61.80429 58.088476"
   xml:space="preserve"
   class="st5"
   version="1.1"
   id="svg53"
   sodipodi:docname="SignalR Replica.svg"
   style="font-size:12px;overflow:visible;color-interpolation-filters:sRGB;fill:none;fill-rule:evenodd;stroke-linecap:square;stroke-miterlimit:3"
   inkscape:version="0.92.5 (2060ec1f9f, 2020-04-08)"><metadata
   id="metadata57"><rdf:RDF><cc:Work
       rdf:about=""><dc:format>image/svg+xml</dc:format><dc:type
         rdf:resource="http://purl.org/dc/dcmitype/StillImage" /></cc:Work></rdf:RDF></metadata><sodipodi:namedview
   pagecolor="#ffffff"
   bordercolor="#666666"
   borderopacity="1"
   objecttolerance="10"
   gridtolerance="10"
   guidetolerance="10"
   inkscape:pageopacity="0"
   inkscape:pageshadow="2"
   inkscape:window-width="640"
   inkscape:window-height="480"
   id="namedview55"
   showgrid="false"
   inkscape:zoom="1.8756209"
   inkscape:cx="31.06949"
   inkscape:cy="29.178289"
   inkscape:window-x="0"
   inkscape:window-y="0"
   inkscape:window-maximized="0"
   inkscape:current-layer="svg53" />
	<style
   type="text/css"
   id="style2">
	<![CDATA[
		.st1 {fill:url(#grad0-6);stroke:none;stroke-linecap:butt;stroke-width:34}
		.st2 {fill:#ffffff;stroke:none;stroke-linecap:butt;stroke-width:34}
		.st3 {fill:url(#grad6-12);stroke:none;stroke-linecap:butt;stroke-width:34}
		.st4 {fill:#f2f2f2;stroke:none;stroke-linecap:butt;stroke-width:34}
		.st5 {fill:none;fill-rule:evenodd;font-size:12px;overflow:visible;stroke-linecap:square;stroke-miterlimit:3}
	]]>
	</style>

	<defs
   id="Patterns_And_Gradients">
		<linearGradient
   id="grad0-6"
   x1="2.3572306e-15"
   y1="105.70729"
   x2="36.457191"
   y2="105.70729"
   gradientTransform="scale(1.1303668,0.88466856)"
   gradientUnits="userSpaceOnUse">
			<stop
   offset="0"
   stop-color="#198ab3"
   stop-opacity="1"
   id="stop4" />
			<stop
   offset="0.13"
   stop-color="#21a0c7"
   stop-opacity="1"
   id="stop6" />
			<stop
   offset="0.31"
   stop-color="#28b7db"
   stop-opacity="1"
   id="stop8" />
			<stop
   offset="0.5"
   stop-color="#2ec7ea"
   stop-opacity="1"
   id="stop10" />
			<stop
   offset="0.72"
   stop-color="#31d1f2"
   stop-opacity="1"
   id="stop12" />
			<stop
   offset="1"
   stop-color="#32d4f5"
   stop-opacity="1"
   id="stop14" />
		</linearGradient>
		<radialGradient
   id="grad6-12"
   cx="41.021393"
   cy="83.066484"
   r="64.680661"
   gradientTransform="scale(0.98679486,1.0133818)"
   fx="41.021393"
   fy="83.066484"
   gradientUnits="userSpaceOnUse">
			<stop
   offset="0.18"
   stop-color="#5ea0ef"
   stop-opacity="1"
   id="stop17" />
			<stop
   offset="1"
   stop-color="#0078d4"
   stop-opacity="1"
   id="stop19" />
		</radialGradient>
	</defs>
	<g
   id="g51"
   transform="translate(-33.664511,-34.002315)">
		<title
   id="title23">Page-1</title>
		<g
   id="group14822-1"
   transform="translate(38.7752,-35.128)">
			<title
   id="title25">SignalR Replica.14822</title>
			<g
   id="group14823-2">
				<title
   id="title27">Sheet.14823</title>
				<g
   id="shape14824-3"
   transform="translate(15.4836,-24.3856)">
					<title
   id="title29">Sheet.14824</title>
					<path
   d="m 41.21,115.58 a 10.2421,10.5228 -180 0 0 -2.35,-6.55 9.10779,9.35742 -180 0 0 -5.69,-3.29 12.7961,13.1468 -180 0 0 -3.71,-8.81 11.2689,11.5778 -180 0 0 -8.29,-3.41 11.4802,11.7948 -180 0 0 -6.98,2.31 12.7072,13.0554 -180 0 0 -4.47,6.33 10.8241,11.1207 -180 0 0 -6.84,3.85 12.1845,12.5184 -180 0 0 -2.88,7.8 c 0.04,1.63 0.37,3.22 0.97,4.7 0.61,1.48 1.48,2.82 2.56,3.93 1.08,1.11 2.35,1.98 3.73,2.55 1.39,0.57 2.86,0.83 4.35,0.77 h 20.3 a 9.10779,9.35742 -180 0 0 6.55,-3 c 1.74,-1.91 2.73,-4.48 2.75,-7.18 z"
   class="st1"
   id="path31"
   inkscape:connector-curvature="0"
   style="fill:url(#grad0-6);stroke:none;stroke-width:34;stroke-linecap:butt" />
				</g>
				<g
   id="shape14825-7"
   transform="translate(23.3311,-28.4683)">
					<title
   id="title34">Sheet.14825</title>
					<path
   d="m 21.28,111.67 -5.54,-5.65 c -0.61,-0.64 -1.13,-0.41 -1.13,0.57 v 2.54 a 0.689478,0.708376 0 0 1 -0.429997,0.65506 0.65241,0.670291 0 0 1 -0.266895,0.0419 C 10.34,109.83 0.36,110.81 0,125.09 c 0,0.19 0.07,0.38 0.2,0.52 a 0.689478,0.708376 -180 0 0 0.493014,0.21708 L 4.24,125.82 a 0.685771,0.704567 -180 0 0 0.518962,-0.23613 0.71172,0.731227 -180 0 0 0.17793,-0.55984 A 8.6815,8.91944 0 0 1 6.9,117.31 c 0.89,-1.04 2,-1.83 3.24,-2.33 1.24,-0.49 2.58,-0.67 3.89,-0.52 0.19,0 0.37,0.08 0.5,0.21 a 0.715426,0.735035 0 0 1 0.203878,0.51795 L 14.73,117.54 c 0,1.17 0.37,1.36 1.13,0.57 l 5.42,-5.24 A 0.704306,0.72361 -180 0 0 21.583964,112.26826 0.72284,0.742652 -180 0 0 21.28,111.66652 Z"
   class="st2"
   id="path36"
   inkscape:connector-curvature="0"
   style="fill:#ffffff;stroke:none;stroke-width:34;stroke-linecap:butt" />
				</g>
				<g
   id="shape14826-9"
   transform="translate(0,-3.778)">
					<title
   id="title39">Sheet.14826</title>
					<path
   d="M 31.94,125.82 A 22.7665,23.3905 0 1 1 4.04,88.86 l 0.24,-0.17 a 22.7602,23.384 0 0 1 27.66,37.13 z"
   class="st3"
   id="path41"
   inkscape:connector-curvature="0"
   style="fill:url(#grad6-12);stroke:none;stroke-width:34;stroke-linecap:butt" />
				</g>
				<g
   id="shape14827-13"
   transform="translate(4.77829)">
					<title
   id="title44">Sheet.14827</title>
					<path
   d="m 20.2,125.82 -0.05,-0.06 -6.94,-7.12 -4.17,-4.13 a 0.214999,0.220891 0 0 1 0,-0.24755 C 9.24,113.74 9.45,113.22 9.67,112.7 l 0.36,-0.88 1.44,-3.66 a 0.214999,0.220891 0 0 1 0.240947,-0.16376 L 17.36,107.99 a 3.7736,3.87702 -180 0 0 3.01,-1.48 3.8292,3.93415 -180 0 0 0.96,-3.17 4.1517,4.26549 -180 0 0 -4.23,-3.82 H 0.7 A 0.748788,0.769311 0 0 1 0.16621,98.19846 L 8.34,89.81 a 0.374394,0.384656 0 0 1 0.507842,0.137105 L 8.85,93.17 h 8.03 a 10.7129,11.0065 0 0 1 4.45,0.93 c 1.26,0.58 2.39,1.41 3.32,2.45 a 10.5238,10.8123 0 0 1 2.81,7.32 c 0,1.46 -0.29,2.9 -0.86,4.23 a 10.2829,10.5647 0 0 1 -7.52,6.28 l -1.39,0.19 h 0.18 l 4.15,4.29 3.83,3.96 0.14,0.11 a 22.7602,23.384 0 0 1 -5.79,2.89 z"
   class="st4"
   id="path46"
   inkscape:connector-curvature="0"
   style="fill:#f2f2f2;stroke:none;stroke-width:34;stroke-linecap:butt" />
				</g>
			</g>
		</g>
	</g>
</svg>