<?xml version="1.0" encoding="UTF-8" standalone="no"?>
<!-- Generated by Microsoft Visio, SVG Export Collection.svg Page-1 -->
<svg xmlns:dc="http://purl.org/dc/elements/1.1/" xmlns:cc="http://creativecommons.org/ns#" xmlns:rdf="http://www.w3.org/1999/02/22-rdf-syntax-ns#" xmlns:svg="http://www.w3.org/2000/svg" xmlns="http://www.w3.org/2000/svg" xmlns:sodipodi="http://sodipodi.sourceforge.net/DTD/sodipodi-0.dtd" xmlns:inkscape="http://www.inkscape.org/namespaces/inkscape" width="56.689795" height="45.442334" viewBox="0 0 56.689795 45.442334" xml:space="preserve" class="st5" version="1.1" id="svg45" sodipodi:docname="Collection.svg" style="font-size:12px;overflow:visible;color-interpolation-filters:sRGB;fill:none;fill-rule:evenodd;stroke-linecap:square;stroke-miterlimit:3" inkscape:version="0.92.5 (2060ec1f9f, 2020-04-08)">
  <metadata id="metadata49">
    <rdf:RDF>
      <cc:Work rdf:about="">
        <dc:format>image/svg+xml</dc:format>
        <dc:type rdf:resource="http://purl.org/dc/dcmitype/StillImage" />
      </cc:Work>
    </rdf:RDF>
  </metadata>
  <sodipodi:namedview pagecolor="#ffffff" bordercolor="#666666" borderopacity="1" objecttolerance="10" gridtolerance="10" guidetolerance="10" inkscape:pageopacity="0" inkscape:pageshadow="2" inkscape:window-width="640" inkscape:window-height="480" id="namedview47" showgrid="false" inkscape:zoom="2.1095237" inkscape:cx="37.795143" inkscape:cy="10.696763" inkscape:window-x="0" inkscape:window-y="0" inkscape:window-maximized="0" inkscape:current-layer="svg45" />
	<style type="text/css" id="style2">
	<![CDATA[
		.st1 {fill:url(#grad0-6);stroke:none;stroke-width:0.750001}
		.st2 {fill:#ffffff;stroke:none;stroke-width:0.750001}
		.st3 {fill:#83b9f9;stroke:none;stroke-width:0.750001}
		.st4 {fill:#50e6ff;stroke:none;stroke-width:0.750001}
		.st5 {fill:none;fill-rule:evenodd;font-size:12px;overflow:visible;stroke-linecap:square;stroke-miterlimit:3}
	]]>
	</style>

	<defs id="Patterns_And_Gradients">
		<linearGradient id="grad0-6" x1="0" y1="57.357973" x2="46.016539" y2="57.357973" gradientTransform="scale(1.2319484,0.81172233)" gradientUnits="userSpaceOnUse">
			<stop offset="0.09" stop-color="#5ea0ef" stop-opacity="1" id="stop4" />
			<stop offset="1" stop-color="#0078d4" stop-opacity="1" id="stop6" />
		</linearGradient>
	</defs>
	<g id="g43" transform="translate(-5.6694146,-4.5330173)">
		<title id="title10">Page-1</title>
		<g id="group14158-1" transform="translate(5.66929,-34.0157)">
			<title id="title12">Collection.14158</title>
			<g id="group14159-2">
				<title id="title14">g14</title>
				<g id="shape14160-3" transform="translate(0,-8.01003)">
					<title id="title16">path2</title>
					<path d="M 1.73,46.56 H 55 a 1.6645,1.55342 0 0 1 1.69,1.43 V 82.48 A 1.63121,1.52235 0 0 1 55,83.91 H 1.73 A 1.6645,1.55342 0 0 1 0,82.48 V 48.05 a 1.6645,1.55342 0 0 1 1.73,-1.49 z" class="st1" id="path18" inkscape:connector-curvature="0" style="fill:url(#grad0-6);stroke:none;stroke-width:0.75000101" />
				</g>
				<g id="shape14161-7" transform="translate(6.27265,-30.4344)">
					<title id="title21">path4</title>
					<path d="m 0.3,73.75 h 9.55 a 0.46606,0.434958 0 0 1 0.46606,0.434958 L 10.32,83.5 A 0.43277,0.40389 0 0 1 9.887296,83.903828 L 0.47,83.91 A 0.46606,0.434958 0 0 1 0.00394,83.475042 L 0,74.15 a 0.46606,0.434958 0 0 1 0.332943,-0.403828 z" class="st2" id="path23" inkscape:connector-curvature="0" style="fill:#ffffff;stroke:none;stroke-width:0.75000101" />
				</g>
				<g id="shape14162-9" transform="translate(6.27265,-15.4283)">
					<title id="title26">path8</title>
					<path d="m 0.3,73.75 h 9.55 a 0.46606,0.434958 0 0 1 0.46606,0.434958 L 10.32,83.5 A 0.43277,0.40389 0 0 1 9.887296,83.903828 L 0.47,83.91 A 0.46606,0.434958 0 0 1 0.00394,83.475042 L 0,74.15 A 0.46606,0.434958 0 0 1 0.332943,73.746172 Z M 17.11,58.74 h 9.59 a 0.46606,0.434958 0 0 1 0.46606,0.434958 L 27.16,68.5 a 0.43277,0.40389 0 0 1 -0.432704,0.403828 L 17.31,68.9 A 0.46606,0.434958 0 0 1 16.84394,68.465042 L 16.84,59.14 a 0.43277,0.40389 0 0 1 0.299894,-0.403828 z" class="st2" id="path28" inkscape:connector-curvature="0" style="fill:#ffffff;stroke:none;stroke-width:0.75000101" />
				</g>
				<g id="shape14163-11" transform="translate(23.1174,-15.4283)">
					<title id="title31">path10</title>
					<path d="m 0.27,73.75 h 9.58 a 0.49935,0.466027 0 0 1 0.46606,0.434958 L 10.32,83.5 A 0.43277,0.40389 0 0 1 9.887296,83.903828 L 0.47,83.91 A 0.46606,0.434958 0 0 1 0.00394,83.475042 L 0,74.15 A 0.43277,0.40389 0 0 1 0.299894,73.746172 Z M 17.91,58.74 h 9.59 a 0.46606,0.434958 0 0 1 0.46606,0.434958 L 27.96,68.5 a 0.43277,0.40389 0 0 1 -0.432704,0.403828 L 18.08,68.9 A 0.46606,0.434958 0 0 1 17.61394,68.465042 L 17.61,59.14 a 0.43277,0.40389 0 0 1 0.299894,-0.403828 z" class="st3" id="path33" inkscape:connector-curvature="0" style="fill:#83b9f9;stroke:none;stroke-width:0.75000101" />
				</g>
				<g id="shape14164-13" transform="translate(37.1516)">
					<title id="title36">path6</title>
					<path d="m 0.73,59.2 8.86,4.79 8.89,4.75 a 0.53264,0.497095 0 0 1 0,0.838843 L 12.55,72.69 l 4.23,6.77 a 2.92952,2.73402 0 0 1 -1.07,3.7 l -0.86,0.46 A 2.89623,2.70295 0 0 1 10.89,82.66 L 6.66,75.82 0.77,78.93 A 0.49935,0.466027 0 0 1 0.004353,78.495042 L 0,59.64 a 0.53264,0.497095 0 0 1 0.732292,-0.434958 z" class="st4" id="path38" inkscape:connector-curvature="0" style="fill:#50e6ff;stroke:none;stroke-width:0.75000101" />
				</g>
			</g>
		</g>
	</g>
</svg>