<?xml version="1.0" encoding="UTF-8" standalone="no"?>
<!-- Generated by Microsoft Visio, SVG Export Entra Connect Health.svg Page-1 -->

<svg
   xmlns:dc="http://purl.org/dc/elements/1.1/"
   xmlns:cc="http://creativecommons.org/ns#"
   xmlns:rdf="http://www.w3.org/1999/02/22-rdf-syntax-ns#"
   xmlns:svg="http://www.w3.org/2000/svg"
   xmlns="http://www.w3.org/2000/svg"
   xmlns:sodipodi="http://sodipodi.sourceforge.net/DTD/sodipodi-0.dtd"
   xmlns:inkscape="http://www.inkscape.org/namespaces/inkscape"
   width="0.76811934in"
   height="0.66865289in"
   viewBox="0 0 55.304447 48.143256"
   xml:space="preserve"
   class="st7"
   version="1.1"
   id="svg64"
   sodipodi:docname="Entra Connect Health.svg"
   style="font-size:12px;overflow:visible;color-interpolation-filters:sRGB;fill:none;fill-rule:evenodd;stroke-linecap:square;stroke-miterlimit:3"
   inkscape:version="0.92.5 (2060ec1f9f, 2020-04-08)"><metadata
   id="metadata68"><rdf:RDF><cc:Work
       rdf:about=""><dc:format>image/svg+xml</dc:format><dc:type
         rdf:resource="http://purl.org/dc/dcmitype/StillImage" /></cc:Work></rdf:RDF></metadata><sodipodi:namedview
   pagecolor="#ffffff"
   bordercolor="#666666"
   borderopacity="1"
   objecttolerance="10"
   gridtolerance="10"
   guidetolerance="10"
   inkscape:pageopacity="0"
   inkscape:pageshadow="2"
   inkscape:window-width="640"
   inkscape:window-height="480"
   id="namedview66"
   showgrid="false"
   inkscape:zoom="1.5231781"
   inkscape:cx="36.870713"
   inkscape:cy="32.064952"
   inkscape:window-x="0"
   inkscape:window-y="0"
   inkscape:window-maximized="0"
   inkscape:current-layer="svg64" />
	<style
   type="text/css"
   id="style2">
	<![CDATA[
		.st1 {fill:url(#grad0-6);stroke:none;stroke-linecap:butt;stroke-width:34}
		.st2 {fill:url(#grad0-10);stroke:none;stroke-linecap:butt;stroke-width:34}
		.st3 {fill:url(#grad0-14);stroke:none;stroke-linecap:butt;stroke-width:34}
		.st4 {fill:url(#grad0-18)}
		.st5 {stroke:none;stroke-linecap:butt;stroke-width:34}
		.st6 {fill:#ffffff}
		.st7 {fill:none;fill-rule:evenodd;font-size:12px;overflow:visible;stroke-linecap:square;stroke-miterlimit:3}
	]]>
	</style>

	<defs
   id="Patterns_And_Gradients">
		<linearGradient
   id="grad0-6"
   x1="0.64554445"
   y1="73.058859"
   x2="52.137649"
   y2="73.058859"
   gradientTransform="scale(1.0740161,0.93108473)"
   gradientUnits="userSpaceOnUse">
			<stop
   offset="0"
   stop-color="#225086"
   stop-opacity="1"
   id="stop4" />
			<stop
   offset="1"
   stop-color="#0055c5"
   stop-opacity="1"
   id="stop6" />
		</linearGradient>
		<linearGradient
   id="grad0-10"
   x1="0"
   y1="100.8905"
   x2="24.803465"
   y2="100.8905"
   gradientTransform="scale(1.0817037,0.92446759)"
   gradientUnits="userSpaceOnUse">
			<stop
   offset="0"
   stop-color="#44dbf9"
   stop-opacity="1"
   id="stop9" />
			<stop
   offset="1"
   stop-color="#cbf8ff"
   stop-opacity="1"
   id="stop11" />
		</linearGradient>
		<linearGradient
   id="grad0-14"
   x1="0.70623004"
   y1="74.242116"
   x2="40.540799"
   y2="74.242116"
   gradientTransform="scale(0.98172707,1.018613)"
   gradientUnits="userSpaceOnUse">
			<stop
   offset="0"
   stop-color="#66ddff"
   stop-opacity="1"
   id="stop14" />
			<stop
   offset="1"
   stop-color="#0294e4"
   stop-opacity="1"
   id="stop16" />
		</linearGradient>
		<linearGradient
   id="grad0-18"
   x1="0"
   y1="94.252665"
   x2="26.57236"
   y2="94.252665"
   gradientTransform="scale(1.0398023,0.9617213)"
   gradientUnits="userSpaceOnUse">
			<stop
   offset="0"
   stop-color="#e62323"
   stop-opacity="1"
   id="stop19" />
			<stop
   offset="1"
   stop-color="#f04049"
   stop-opacity="1"
   id="stop21" />
		</linearGradient>
	</defs>
	<g
   id="g62"
   transform="translate(-33.999301,-34.008078)">
		<title
   id="title25">Page-1</title>
		<g
   id="group16016-1"
   transform="translate(33.3055,-34.0157)">
			<title
   id="title27">Entra Connect Health.16016</title>
			<g
   id="group16017-2">
				<title
   id="title29">g68854</title>
				<g
   id="shape16018-3">
					<title
   id="title31">path68842</title>
					<path
   d="M 54.92,94.89 31.87,69.54 a 4.76282,4.64524 -180 0 0 -7.04,0 L 1.78,94.89 C 0,96.85 0.46,99.81 2.77,101.22 l 23.04,14.05 c 1.54,0.93 3.53,0.93 5.07,0 l 23.04,-14.05 c 2.31,-1.41 2.77,-4.37 0.99,-6.33 z"
   class="st1"
   id="path33"
   inkscape:connector-curvature="0"
   style="fill:url(#grad0-6);stroke:none;stroke-width:34;stroke-linecap:butt" />
				</g>
				<g
   id="shape16019-7"
   transform="translate(14.9399,-12.4432)">
					<title
   id="title36">path68844</title>
					<path
   d="m 0,108.03 0.16,0.1 13.25,8.07 13.41,-8.17 h 0.01 -0.01 L 13.41,93.27 Z"
   class="st2"
   id="path38"
   inkscape:connector-curvature="0"
   style="fill:url(#grad0-10);stroke:none;stroke-width:34;stroke-linecap:butt" />
				</g>
				<g
   id="shape16020-11"
   transform="translate(0.00307279,-7.60021)">
					<title
   id="title41">path68846</title>
					<path
   d="m 31.87,77.14 a 4.76282,4.64524 -180 0 0 -7.04,0 L 1.78,102.49 c -1.78,1.96 -1.32,4.92 0.99,6.33 l 9.61,5.85 c 1.19,0.73 3.17,1.53 5.27,1.53 1.91,0 3.68,-0.53 5.15,-1.45 v -0.01 l 5.55,-3.38 -13.41,-8.17 13.74,-15.13 a 9.38122,9.14962 0 0 1 7.08,-3.07 c 1.45,0 2.82,0.32 4.04,0.87 l -7.93,-8.72 z"
   class="st3"
   id="path43"
   inkscape:connector-curvature="0"
   style="fill:url(#grad0-14);stroke:none;stroke-width:34;stroke-linecap:butt" />
				</g>
				<g
   id="shape16021-15"
   transform="translate(28.3618,-0.0329662)">
					<title
   id="title46">path68850</title>
					<path
   d="m 13.88,116.2 c 13.44,-9.4 13.75,-14.76 13.75,-16.43 0,-2.4 -0.25,-8.63 -6.66,-8.99 A 6.97215,6.80003 -180 0 0 13.82,95.34 6.93835,6.76706 -180 0 0 6.75,90.66 C 0.34,91.11 0,97.37 0,99.77 c 0,1.67 0.4,7.03 13.72,16.34 z"
   class="st4"
   id="path48"
   inkscape:connector-curvature="0"
   style="fill:url(#grad0-18)" />
					<path
   d="m 13.88,116.2 c 13.44,-9.4 13.75,-14.76 13.75,-16.43 0,-2.4 -0.25,-8.63 -6.66,-8.99 A 6.97215,6.80003 -180 0 0 13.82,95.34 6.93835,6.76706 -180 0 0 6.75,90.66 C 0.34,91.11 0,97.37 0,99.77 c 0,1.67 0.4,7.03 13.72,16.34"
   class="st5"
   id="path50"
   inkscape:connector-curvature="0"
   style="stroke:none;stroke-width:34;stroke-linecap:butt" />
				</g>
				<g
   id="shape16022-20"
   transform="translate(30.4882,-6.28158)">
					<title
   id="title53">path68852</title>
					<path
   d="m 25.5,105.06 h -6.14 a 0.516228,0.503484 -180 0 0 -0.43019,0.23975 L 17,108.5 A 0.245823,0.239754 0 0 1 16.665066,108.5929 0.236605,0.230763 0 0 1 16.56981,108.5 L 13.66,103.35 a 0.491646,0.479508 -180 0 0 -0.918763,0 L 10.16,111.14 a 0.245823,0.239754 0 0 1 -0.460918,0 L 7.37,105.9 a 0.491646,0.479508 -180 0 0 -0.888035,0 L 3.41,111.35 a 0.491646,0.479508 0 0 1 -0.460918,0.26972 L 0,111.62 c 0.45,0.67 0.95,1.32 1.47,1.94 h 2.55 a 0.528519,0.515472 -180 0 0 0.43019,-0.26972 L 6.63,109.34 9.7,115.9 a 0.491646,0.479508 -180 0 0 0.918763,0 L 13.69,107.12 16.3,112.1 a 0.491646,0.479508 -180 0 0 0.857307,0 L 20.23,107.24 a 0.528519,0.515472 0 0 1 0.43019,-0.23975 L 25.51,107 Z"
   class="st6"
   id="path55"
   inkscape:connector-curvature="0"
   style="fill:#ffffff" />
					<path
   d="m 25.5,105.06 h -6.14 a 0.516228,0.503484 -180 0 0 -0.43019,0.23975 L 17,108.5 A 0.245823,0.239754 0 0 1 16.665066,108.5929 0.236605,0.230763 0 0 1 16.56981,108.5 L 13.66,103.35 a 0.491646,0.479508 -180 0 0 -0.918763,0 L 10.16,111.14 a 0.245823,0.239754 0 0 1 -0.460918,0 L 7.37,105.9 a 0.491646,0.479508 -180 0 0 -0.888035,0 L 3.41,111.35 a 0.491646,0.479508 0 0 1 -0.460918,0.26972 L 0,111.62 c 0.45,0.67 0.95,1.32 1.47,1.94 h 2.55 a 0.528519,0.515472 -180 0 0 0.43019,-0.26972 L 6.63,109.34 9.7,115.9 a 0.491646,0.479508 -180 0 0 0.918763,0 L 13.69,107.12 16.3,112.1 a 0.491646,0.479508 -180 0 0 0.857307,0 L 20.23,107.24 a 0.528519,0.515472 0 0 1 0.43019,-0.23975 L 25.51,107"
   class="st5"
   id="path57"
   inkscape:connector-curvature="0"
   style="stroke:none;stroke-width:34;stroke-linecap:butt" />
				</g>
			</g>
		</g>
	</g>
</svg>