<?xml version="1.0" encoding="UTF-8" standalone="no"?>
<!DOCTYPE svg PUBLIC "-//W3C//DTD SVG 1.1//EN" "http://www.w3.org/Graphics/SVG/1.1/DTD/svg11.dtd">
<!-- Generated by Microsoft Visio, SVG Export Services Hub Connector.svg Page-1 -->
<svg xmlns="http://www.w3.org/2000/svg" xmlns:xlink="http://www.w3.org/1999/xlink" xmlns:ev="http://www.w3.org/2001/xml-events"
		width="1.29632in" height="1.48415in" viewBox="0 0 93.3352 106.859" xml:space="preserve" color-interpolation-filters="sRGB"
		class="st6">
	<style type="text/css">
	<![CDATA[
		.st1 {fill:#919191;stroke:none;stroke-linecap:butt;stroke-width:15.3}
		.st2 {fill:#ffffff;stroke:none;stroke-linecap:butt;stroke-width:15.3}
		.st3 {fill:#2f2f2f;stroke:none;stroke-linecap:butt;stroke-width:15.3}
		.st4 {visibility:visible}
		.st5 {fill:#000000;font-family:Calibri;font-size:0.666664em}
		.st6 {fill:none;fill-rule:evenodd;font-size:12px;overflow:visible;stroke-linecap:square;stroke-miterlimit:3}
	]]>
	</style>

	<g>
		<title>Page-1</title>
		<g id="group5146-1" transform="translate(16.9038,-37.7008)">
			<title>Services Hub Connector.5146</title>
			<desc>Services Hub Connector</desc>
			<g id="group5147-2">
				<title>Sheet.5147</title>
				<g id="shape5148-3" transform="translate(12.2244,-5.3409)">
					<title>Sheet.5148</title>
					<path d="M22.24 81.4 L26.52 81.41 A4.38236 4.42381 0 0 1 31.29 77.95 A4.39654 4.43811 0 0 1 35.18 82.83 A4.38378
								 4.42524 0 0 1 30.33 86.76 A4.39654 4.43811 0 0 1 26.53 83.31 L22.24 83.3 L22.24 93.89 L26.65 98.35
								 A7.67764 7.75025 0 0 1 31.31 96.74 C33.65 96.74 35.83 97.8 37.3 99.64 C37.33 99.68 37.36 99.73 37.39
								 99.77 A23.9528 24.1793 -180 0 0 44.47 82.6 C44.47 69.22 33.69 58.34 20.43 58.34 C12.41 58.34 5.31
								 62.32 0.94 68.43 L22.24 68.43 L22.24 81.4 ZM25.31 99.68 L21.04 95.36 L0 95.36 C4.25 102.26 11.81
								 106.86 20.43 106.86 C21.63 106.86 22.81 106.77 23.96 106.6 A7.68898 7.76169 0 0 1 25.31 99.68 Z"
							class="st1"/>
				</g>
				<g id="shape5149-5" transform="translate(0,-5.26839)">
					<title>Sheet.5149</title>
					<path d="M25.64 80.42 L19.51 80.42 L19.51 74.46 L16.17 74.46 L16.17 89.4 L19.51 89.4 L19.51 83.32 L25.64 83.32
								 L25.64 89.4 L28.99 89.4 L28.99 74.46 L25.64 74.46 L25.64 80.42 L25.64 80.42 ZM9.66 89.61 C10 89.57
								 10.34 89.51 10.68 89.44 C11.39 89.28 13.14 88.94 14.09 87.04 C14.38 86.46 14.56 85.78 14.56 84.95
								 C14.56 84.34 14.47 83.81 14.3 83.36 A3.66803 3.70272 -180 0 0 13.52 82.14 A5.62394 5.67712 -180
								 0 0 12.31 81.19 A13.0961 13.2199 -180 0 0 10.71 80.39 A18.1134 18.2847 0 0 1 9.55 79.86 A5.87622
								 5.93179 0 0 1 8.82 79.44 C8.77 79.41 8.71 79.37 8.67 79.34 C8.43 79.16 8.24 78.98 8.11 78.78 A1.18346
								 1.19466 0 0 1 7.91 78.11 A1.14803 1.15889 0 0 1 8.09 77.48 A1.55906 1.5738 0 0 1 8.58 77.01 C8.79
								 76.89 9.03 76.79 9.32 76.72 C9.34 76.71 9.35 76.71 9.37 76.7 C9.68 76.63 10.02 76.59 10.41 76.59
								 A6.68693 6.75017 0 0 1 12.2 76.85 C12.51 76.94 12.81 77.05 13.11 77.18 C13.4 77.31 13.67 77.47 13.92
								 77.64 L13.92 74.53 C13.23 74.2 11.52 73.95 10.22 73.95 L10.18 73.95 C6.64 73.97 5.18 75.83 4.87
								 76.39 C4.56 76.95 4.41 77.61 4.41 78.39 C4.41 79.38 4.69 80.23 5.26 80.93 C5.83 81.64 6.69 82.23
								 7.85 82.71 C8.12 82.82 8.39 82.94 8.64 83.05 C8.8 83.12 8.96 83.19 9.11 83.26 C9.51 83.44 9.84 83.63
								 10.14 83.82 C10.42 84.02 10.65 84.23 10.81 84.46 A1.27701 1.28908 0 0 1 10.9 85.84 A1.36772 1.38065
								 0 0 1 10.43 86.32 C10.22 86.45 9.98 86.56 9.65 86.64 A7.7811 7.85469 0 0 1 9 86.75 C5.18 87.31 1.26
								 85.32 0 84.77 L0 87.84 C1.22 88.15 5.48 90.11 9.66 89.61 ZM6.73 101.79 A2.51291 2.53668 -180 1 0
								 7.01 101.8 C6.91 101.8 6.83 101.79 6.73 101.79 Z" class="st2"/>
				</g>
				<g id="shape5150-7">
					<title>Sheet.5150</title>
					<path d="M49.52 94.3 A7.63228 7.70446 -180 0 0 43.54 91.4 C41.86 91.4 40.21 91.97 38.87 93.01 L34.46 88.55 L34.46
								 77.96 L38.75 77.96 A4.39937 4.44098 -180 0 0 43.04 81.44 A4.38378 4.42524 -180 0 0 47.4 77.49 A4.39654
								 4.43811 -180 0 0 43.03 72.58 A4.38236 4.42381 -180 0 0 38.74 76.07 L34.46 76.06 L34.46 63.08 L0
								 63.08 L0 79.5 C1.26 80.05 5.18 82.04 8.99 81.49 C9.2 81.46 9.42 81.42 9.64 81.37 C9.96 81.3 10.21
								 81.19 10.42 81.05 A1.36772 1.38065 -180 0 0 10.89 80.58 A1.27134 1.28336 -180 0 0 10.8 79.19 A2.66457
								 2.68977 -180 0 0 10.12 78.56 A6.96331 7.02916 -180 0 0 9.1 78 C8.95 77.93 8.79 77.86 8.63 77.78
								 A27.8277 28.0909 -180 0 0 7.84 77.45 C6.68 76.96 5.82 76.37 5.25 75.67 C4.68 74.97 4.4 74.12 4.4
								 73.12 C4.4 72.35 4.55 71.68 4.86 71.12 C5.17 70.56 6.63 68.7 10.17 68.69 L10.21 68.69 C11.51 68.69
								 13.21 68.94 13.91 69.26 L13.91 72.38 A5.34047 5.39098 -180 0 0 13.09 71.92 A6.42331 6.48405 -180
								 0 0 12.19 71.59 A7.73717 7.81034 -180 0 0 11.27 71.39 A6.01795 6.07486 -180 0 0 10.4 71.33 C10.02
								 71.33 9.67 71.37 9.36 71.44 C9.34 71.44 9.33 71.45 9.31 71.45 C9.03 71.52 8.78 71.62 8.58 71.74
								 A1.51937 1.53374 -180 0 0 8.08 72.22 A1.09417 1.10452 -180 0 0 7.91 72.84 A1.17638 1.1875 -180 0
								 0 8.1 73.51 C8.23 73.71 8.42 73.9 8.66 74.07 C8.7 74.11 8.76 74.14 8.81 74.18 C9.02 74.32 9.26 74.46
								 9.54 74.6 C9.88 74.77 10.27 74.94 10.71 75.13 C11.3 75.38 11.83 75.64 12.3 75.92 C12.77 76.2 13.18
								 76.52 13.51 76.88 C13.85 77.23 14.11 77.64 14.29 78.09 C14.47 78.55 14.55 79.08 14.55 79.68 C14.55
								 80.52 14.37 81.2 14.08 81.78 C13.14 83.68 11.38 84.02 10.67 84.17 A10.6257 10.7262 0 0 1 9.65 84.34
								 C5.48 84.84 1.22 82.88 0 82.57 L0 90.02 L5.8 90.02 L5.79 94.73 A4.38094 4.42238 -180 0 0 2.37 98.57
								 A4.3937 4.43525 -180 0 0 6.74 103.49 A4.38378 4.42524 -180 0 0 11.1 99.54 A4.39512 4.43668 -180
								 0 0 7.67 94.72 L7.68 90.02 L33.27 90.02 L37.54 94.34 A7.69465 7.76741 -180 0 0 36.18 101.25 A7.6252
								 7.69731 -180 0 0 43.55 106.86 C45.28 106.86 46.98 106.26 48.34 105.16 A7.66205 7.73451 -180 0 0
								 49.62 94.42 C49.58 94.38 49.56 94.34 49.52 94.29 L49.52 94.3 ZM40.54 76.73 A2.51433 2.53811 0 1
								 1 45.53 77.29 A2.51433 2.53811 0 0 1 40.54 76.73 ZM9.23 99.34 A2.5139 2.53767 0 1 1 4.24 98.78 A2.5139
								 2.53767 0 0 1 9.23 99.34 ZM28.99 84.13 L25.64 84.13 L25.64 78.05 L19.51 78.05 L19.51 84.12 L16.17
								 84.12 L16.17 69.19 L19.51 69.19 L19.51 75.15 L25.64 75.15 L25.64 69.19 L28.99 69.19 L28.99 84.13
								 ZM47.16 103.68 A5.78268 5.83736 0 0 1 39.03 102.78 A5.77559 5.83021 0 0 1 38.88 95.69 C39.17 95.29
								 39.52 94.91 39.93 94.58 C40.02 94.5 40.12 94.43 40.22 94.37 A5.7685 5.82306 0 0 1 43.54 93.3 A5.78126
								 5.83593 0 0 1 47.16 103.68 Z" class="st3"/>
				</g>
				<g id="shape5151-9" transform="translate(38.3896,-1.89142)">
					<title>Sheet.5151</title>
					<path d="M9.67 97.37 A5.77276 5.82735 -180 0 0 1.83 96.26 C1.73 96.33 1.63 96.4 1.54 96.47 C1.13 96.8 0.78 97.18
								 0.49 97.59 A5.77559 5.83021 -180 0 0 5.16 106.86 A5.78126 5.83593 -180 0 0 9.67 97.37 L9.67 97.37
								 Z" class="st2"/>
				</g>
			</g>
			<g id="shape5146-11">
				<g id="shadow5146-12" transform="matrix(1,0,0,1,1.41732,1.41732)" class="st4"/>
				<text x="-10.32" y="122.14" class="st5">Services Hub Connector</text>			</g>
		</g>
	</g>
</svg>
