<?xml version="1.0" encoding="UTF-8" standalone="no"?>
<!DOCTYPE svg PUBLIC "-//W3C//DTD SVG 1.1//EN" "http://www.w3.org/Graphics/SVG/1.1/DTD/svg11.dtd">
<!-- Generated by Microsoft Visio, SVG Export Application Insights Performance.svg Page-1 -->
<svg xmlns="http://www.w3.org/2000/svg" xmlns:xlink="http://www.w3.org/1999/xlink" xmlns:ev="http://www.w3.org/2001/xml-events"
		width="1.08615in" height="1.42984in" viewBox="0 0 78.2031 102.949" xml:space="preserve" color-interpolation-filters="sRGB"
		class="st7">
	<style type="text/css">
	<![CDATA[
		.st1 {fill:#59b4d9;stroke:none;stroke-linecap:butt;stroke-width:12.24}
		.st2 {fill:#ffffff;stroke:none;stroke-linecap:butt;stroke-width:12.24}
		.st3 {fill:#3999c6;stroke:none;stroke-linecap:butt;stroke-width:12.24}
		.st4 {fill:#57a300;stroke:none;stroke-linecap:butt;stroke-width:12.24}
		.st5 {fill:#b8d432;stroke:none;stroke-linecap:butt;stroke-width:12.24}
		.st6 {fill:#dadde0;stroke:none;stroke-linecap:butt;stroke-width:12.24}
		.st7 {fill:none;fill-rule:evenodd;font-size:12px;overflow:visible;stroke-linecap:square;stroke-miterlimit:3}
	]]>
	</style>

	<g>
		<title>Page-1</title>
		<g id="group12946-1" transform="translate(9.27018,-34.0157)">
			<title>Application Insights Performance.12946</title>
			<g id="group12947-2">
				<title>Sheet.12947</title>
				<g id="shape12948-3" transform="translate(-2.8777E-13,-11.1789)">
					<title>Sheet.12948</title>
					<path d="M39.45 98.32 C35.29 101.51 30.5 102.95 25.71 102.95 C18.84 102.95 12.14 99.91 7.67 94.01 C0 84.1 1.92
								 69.73 11.98 62.07 C16.13 58.87 20.92 57.43 25.71 57.43 C32.58 57.43 39.29 60.47 43.76 66.38 C51.42
								 76.44 49.51 90.65 39.45 98.32 Z" class="st1"/>
				</g>
				<g id="shape12949-5" transform="translate(5.90884,-15.4907)">
					<title>Sheet.12949</title>
					<path d="M29.38 88.58 C30.98 90.65 34.18 91.13 36.25 89.53 L36.57 89.21 C38.81 90.81 40.24 91.77 41.2 92.41 C41.52
								 91.77 41.68 91.13 41.84 90.49 C40.88 89.85 39.76 88.9 38.01 87.46 C38.65 85.86 38.33 84.1 37.37
								 82.83 C35.77 80.91 33.22 80.43 30.98 81.55 C28.59 79.47 26.19 77.08 23.48 74.36 C31.78 69.89 37.69
								 70.53 37.69 70.53 C36.73 69.25 35.61 68.13 34.34 67.18 C30.82 66.7 25.39 66.7 19.16 70.05 C17.09
								 67.82 15.01 65.58 12.78 63.02 C11.82 63.34 10.7 63.82 9.74 64.3 C11.34 66.86 13.41 69.57 15.81 72.13
								 C13.73 73.56 11.5 75.48 9.42 77.56 C9.1 77.88 8.94 78.2 8.62 78.36 C7.35 78.04 6.07 78.2 4.95 78.67
								 C2.87 74.2 3.03 70.69 3.35 68.77 C2.4 69.73 1.6 70.69 0.96 71.81 C0.48 74.04 0.32 77.24 1.92 81.07
								 C0 83.47 0 86.82 1.92 89.37 C2.08 89.53 2.24 89.85 2.4 90.01 C1.6 92.89 1.12 95.6 1.12 98 C1.28
								 98.32 1.28 98.48 1.6 98.8 C2.71 100.23 3.99 101.35 5.43 102.47 C5.27 99.91 5.43 96.24 7.03 92.09
								 C8.14 92.25 9.1 91.93 10.22 91.61 C10.86 92.09 11.34 92.57 12.14 93.21 C14.37 94.96 16.61 96.4 18.68
								 97.36 C18.53 98.48 18.84 99.59 19.64 100.55 C21.24 102.47 23.95 102.95 26.03 101.35 C26.51 101.03
								 26.83 100.71 26.99 100.23 C30.5 101.03 33.7 101.19 35.93 101.19 C36.25 101.19 37.85 98.96 38.81
								 97.68 C37.37 98 33.22 98.48 27.63 96.88 C27.47 96.24 27.31 95.6 26.83 95.12 C25.39 93.21 22.84 92.89
								 20.76 94.17 C18.84 93.05 16.77 91.77 14.69 90.01 C14.21 89.69 13.89 89.37 13.41 89.05 C14.69 86.98
								 14.85 84.42 13.73 82.19 L14.53 81.39 C16.61 79.47 18.68 77.88 20.44 76.6 L20.28 76.44 L20.44 76.6
								 C23.32 79.15 26.35 81.71 29.07 83.94 C28.11 85.06 28.27 87.14 29.38 88.58 Z" class="st2"/>
				</g>
				<g id="shape12950-7" transform="translate(43.5976,2.84217E-13)">
					<title>Sheet.12950</title>
					<path d="M0.16 102.95 L0.32 102.95 C7.35 102.95 12.94 100.87 12.94 98.32 L12.94 73.88 L0 73.88 L0 102.95 L0.16
								 102.95 Z" class="st1"/>
				</g>
				<g id="shape12951-9" transform="translate(31.3009,2.84217E-13)">
					<title>Sheet.12951</title>
					<path d="M0 73.88 L0 98.32 C0 100.87 5.59 102.95 12.62 102.95 L12.62 73.88 L0 73.88 Z" class="st3"/>
				</g>
				<g id="shape12952-11" transform="translate(31.4606,-24.4338)">
					<title>Sheet.12952</title>
					<path d="M25.23 98.32 C25.23 100.87 19.64 102.95 12.62 102.95 C5.59 102.95 0 100.87 0 98.32 C0 95.76 5.59 93.69
								 12.62 93.69 C19.48 93.69 25.23 95.76 25.23 98.32 Z" class="st2"/>
				</g>
				<g id="shape12953-13" transform="translate(34.0157,-26.3502)">
					<title>Sheet.12953</title>
					<path d="M20.12 99.91 C20.12 101.67 15.65 102.95 10.06 102.95 C4.47 102.95 0 101.67 0 99.91 C0 98.16 4.47 96.88
								 10.06 96.88 C15.65 96.88 20.12 98.32 20.12 99.91 Z" class="st4"/>
				</g>
				<g id="shape12954-15" transform="translate(33.856,-27.4681)">
					<title>Sheet.12954</title>
					<path d="M18.05 102.95 C19.32 102.47 20.12 101.83 20.12 101.03 C20.12 99.28 15.65 98 10.06 98 C4.47 98 0 99.28
								 0 101.03 C0 101.67 0.8 102.31 2.08 102.95 C3.99 102.31 6.87 101.83 10.06 101.83 C13.41 101.67 16.29
								 102.31 18.05 102.95 Z" class="st5"/>
				</g>
				<g id="shape12955-17" transform="translate(15.1713,-3.35367)">
					<title>Sheet.12955</title>
					<path d="M28.91 95.76 C27.31 95.76 26.03 96.88 25.55 98.32 L12.3 98.32 C6.71 98.32 2.08 93.69 2.08 88.1 L0 88.1
								 C0 94.8 5.59 100.39 12.3 100.39 L25.55 100.39 C26.03 101.83 27.31 102.95 28.91 102.95 C30.82 102.95
								 32.42 101.35 32.42 99.44 C32.42 97.36 30.82 95.76 28.91 95.76 Z" class="st6"/>
				</g>
				<g id="shape12956-19" transform="translate(15.1713,-17.8862)">
					<title>Sheet.12956</title>
					<rect x="0" y="96.5607" width="2.07608" height="6.38793" class="st6"/>
				</g>
			</g>
		</g>
	</g>
</svg>
