<?xml version="1.0" encoding="UTF-8" standalone="no"?>
<!DOCTYPE svg PUBLIC "-//W3C//DTD SVG 1.1//EN" "http://www.w3.org/Graphics/SVG/1.1/DTD/svg11.dtd">
<!-- Generated by Microsoft Visio, SVG Export Azure Managed Grafana.svg Page-1 -->
<svg xmlns="http://www.w3.org/2000/svg" xmlns:xlink="http://www.w3.org/1999/xlink" xmlns:ev="http://www.w3.org/2001/xml-events"
		width="0.856532in" height="1.33858in" viewBox="0 0 61.6703 96.378" xml:space="preserve" color-interpolation-filters="sRGB"
		class="st3">
	<style type="text/css">
	<![CDATA[
		.st1 {fill:url(#grad0-5)}
		.st2 {stroke:none;stroke-linecap:butt;stroke-width:5.32174}
		.st3 {fill:none;fill-rule:evenodd;font-size:12px;overflow:visible;stroke-linecap:square;stroke-miterlimit:3}
	]]>
	</style>

	<defs id="Patterns_And_Gradients">
		<linearGradient id="grad0-5" x1="0" y1="0" x2="1" y2="0" gradientTransform="rotate(90 0.5 0.5)">
			<stop offset="0.18" stop-color="#5ea0ef" stop-opacity="1"/>
			<stop offset="1" stop-color="#0078d4" stop-opacity="1"/>
		</linearGradient>
	</defs>
	<g>
		<title>Page-1</title>
		<g id="group12394-1" transform="translate(5.32174,-34.0157)">
			<title>Azure Managed Grafana.12394</title>
			<g id="shape12395-2">
				<title>Sheet.12395</title>
				<path d="M22.73 46.16 C22.73 46.16 22.71 46.24 22.68 46.38 C22.45 46.45 22.22 46.51 21.99 46.59 C21.67 46.69 21.35
							 46.81 21.03 46.93 C20.71 47.05 20.4 47.18 20.09 47.32 A19.2381 19.6779 -180 0 0 18.23 48.26 C17.64 48.59
							 17.06 48.97 16.49 49.37 L16.35 49.3 A14.3772 14.7059 -180 0 0 5.46 49.76 A15.7776 16.1383 -180 0 0 8.31
							 60.71 C8.17 61.09 8.05 61.49 7.93 61.88 A26.7158 27.3265 -180 0 0 6.99 66.27 C6.96 66.49 6.93 66.71
							 6.91 66.93 A14.2704 14.5966 -180 0 0 -0 75.14 C4.45 80.37 9.63 80.7 9.63 80.7 C9.63 80.7 9.64 80.69
							 9.65 80.68 A22.8007 23.3219 -180 0 0 11.93 84.1 A22.1734 22.6803 -180 0 0 13.06 85.4 A11.9784 12.2522
							 -180 0 0 13.29 94.09 A13.8263 14.1424 -180 0 0 22.18 91.32 C22.67 91.49 23.17 91.64 23.67 91.78 A22.4607
							 22.9741 -180 0 0 28.31 92.48 C28.7 92.5 29.09 92.51 29.48 92.5 L29.79 92.5 L30.03 92.5 L30.27 92.48
							 L30.28 92.49 C32.61 95.9 36.71 96.38 36.71 96.38 C39.63 93.23 39.8 90.1 39.8 89.43 L39.8 89.29 C39.8
							 89.24 39.8 89.19 39.79 89.15 A18.8051 19.235 -180 0 0 41.54 87.73 A18.1806 18.5962 -180 0 0 44.58 84.09
							 C44.66 83.96 44.73 83.84 44.81 83.71 A8.16184 8.34842 -180 0 0 50.44 81.62 A8.58443 8.78068 -180 0 0
							 47.52 76.06 C47.52 76.06 47.51 76.04 47.48 76.03 C47.46 76.01 47.44 76 47.44 76 A2.72084 2.78304 -180
							 0 0 47.37 75.95 A19.1986 19.6375 -180 0 0 47.46 74.18 L47.46 73.59 L47.43 73.35 L47.42 73.03 C47.41
							 72.92 47.4 72.83 47.39 72.73 C47.38 72.63 47.38 72.53 47.37 72.44 L47.33 72.14 L47.29 71.85 A13.5334
							 13.8428 -180 0 0 47.08 70.7 A14.2475 14.5732 -180 0 0 42.6 63.05 A14.0601 14.3815 -180 0 0 39.07 60.72
							 A13.8499 14.1665 -180 0 0 33.2 59.48 L32.96 59.49 L32.81 59.49 L32.71 59.49 L32.47 59.51 A11.8639 12.1351
							 -180 0 0 31.21 59.67 A11.0117 11.2635 -180 0 0 24.78 63.52 A10.8702 11.1187 -180 0 0 23 66.59 A10.6356
							 10.8788 -180 0 0 22.29 69.87 A9.40256 9.61751 -180 0 0 22.27 70.68 C22.27 70.75 22.27 70.82 22.28 70.88
							 L22.29 71.09 C22.3 71.23 22.31 71.35 22.32 71.48 A8.53516 8.73029 -180 0 0 22.61 73.07 A8.27425 8.46341
							 -180 0 0 25.9 77.71 A8.04942 8.23344 -180 0 0 28.15 78.81 A7.85443 8.03399 -180 0 0 30.39 79.14 C30.48
							 79.14 30.57 79.14 30.66 79.13 C30.7 79.13 30.75 79.13 30.8 79.13 L30.93 79.12 C31.01 79.11 31.09 79.1
							 31.16 79.1 C31.18 79.1 31.2 79.09 31.23 79.09 L31.3 79.08 C31.34 79.07 31.39 79.06 31.43 79.06 C31.53
							 79.05 31.61 79.03 31.69 79.01 C31.78 79 31.86 78.98 31.94 78.96 C32.11 78.92 32.27 78.87 32.42 78.82
							 A6.24038 6.38305 -180 0 0 33.3 78.44 A6.31463 6.45899 -180 0 0 34.06 77.97 C34.13 77.92 34.19 77.87
							 34.25 77.82 a0.567623 0.580599 -180 0 0 -0.624524 -0.96459 A3.69788 3.78241 0 0 1 33.45 76.95 A5.33621
							 5.4582 0 0 1 32.79 77.23 A5.66096 5.79038 0 0 1 32.07 77.41 C31.95 77.43 31.82 77.45 31.69 77.46 A1.50233
							 1.53667 0 0 1 31.5 77.47 C31.43 77.47 31.36 77.48 31.31 77.48 C31.25 77.47 31.18 77.48 31.12 77.48 C31.04
							 77.48 30.96 77.47 30.88 77.47 L30.85 77.47 L30.8 77.46 C30.76 77.46 30.73 77.45 30.69 77.45 C30.62 77.44
							 30.55 77.43 30.49 77.42 A6.08911 6.22831 0 0 1 28.81 76.92 A6.00168 6.13888 0 0 1 27.27 75.88 A5.86359
							 5.99764 0 0 1 26.06 74.34 A5.67554 5.80529 0 0 1 25.34 71.35 C25.35 71.26 25.35 71.16 25.35 71.07 L25.35
							 71.02 L25.36 70.94 C25.36 70.9 25.37 70.85 25.37 70.8 C25.39 70.61 25.42 70.42 25.45 70.24 A7.2764 7.44275
							 0 0 1 28.5 65.4 A7.10778 7.27027 0 0 1 29.53 64.8 A7.27293 7.4392 0 0 1 30.66 64.38 A7.105 7.26743 0
							 0 1 31.85 64.17 C32.05 64.15 32.25 64.14 32.45 64.14 L32.59 64.14 L32.76 64.15 L32.92 64.15 L33.09 64.16
							 A9.26933 9.48123 0 0 1 36.86 65.32 A9.09585 9.30379 0 0 1 40.57 69.24 A8.78914 8.99006 0 0 1 41.41 71.89
							 C41.44 72.12 41.47 72.35 41.49 72.59 L41.51 72.76 L41.51 72.94 C41.51 73 41.51 73.05 41.52 73.11 C41.53
							 73.17 41.52 73.24 41.52 73.28 L41.52 73.6 L41.5 74.01 C41.48 74.27 41.46 74.52 41.43 74.78 C41.4 75.03
							 41.36 75.27 41.31 75.53 C41.27 75.78 41.21 76.02 41.15 76.27 A11.4496 11.7114 0 0 1 40.69 77.71 A11.7869
							 12.0563 0 0 1 34.65 84.24 A11.6106 11.876 0 0 1 31.78 85.14 A11.2976 11.5559 0 0 1 30.28 85.29 L29.52
							 85.29 A15.4431 15.7961 0 0 1 28.71 85.25 A15.3272 15.6776 0 0 1 25.56 84.67 A15.5333 15.8884 0 0 1 17.71
							 79.3 A15.7436 16.1035 0 0 1 15.99 76.58 A15.5597 15.9154 0 0 1 14.86 73.59 A15.33 15.6804 0 0 1 14.34
							 70.45 L14.33 70.25 L14.33 70.07 L14.32 69.9 L14.32 69.26 C14.32 69.14 14.33 69.01 14.33 68.88 C14.35
							 68.35 14.39 67.81 14.46 67.28 C14.53 66.74 14.61 66.2 14.72 65.66 C14.83 65.12 14.96 64.6 15.1 64.07
							 A20.4892 20.9577 0 0 1 16.19 61.06 A16.2945 16.667 0 0 1 19.55 56.1 A14.1344 14.4575 0 0 1 20.61 55.13
							 C20.97 54.83 21.35 54.55 21.75 54.29 A13.3072 13.6114 0 0 1 22.95 53.57 C23.16 53.45 23.37 53.35 23.58
							 53.25 L23.9 53.1 A16.3965 16.7714 0 0 1 25.54 52.47 C25.66 52.44 25.77 52.4 25.88 52.37 C25.99 52.33
							 26.11 52.3 26.22 52.27 C26.44 52.2 26.67 52.15 26.9 52.09 C27.02 52.06 27.13 52.04 27.25 52.01 C27.37
							 51.99 27.48 51.96 27.6 51.94 C27.71 51.92 27.83 51.9 27.94 51.88 L28.12 51.84 L28.3 51.82 C28.41 51.8
							 28.53 51.78 28.65 51.76 C28.78 51.74 28.91 51.73 29.04 51.71 C29.15 51.69 29.32 51.67 29.43 51.66 L29.68
							 51.63 L29.84 51.62 L29.93 51.61 L30.03 51.6 L30.42 51.58 L30.62 51.56 L30.75 51.56 L31.09 51.55 C31.54
							 51.53 32 51.53 32.43 51.55 A18.5969 19.0221 0 0 1 35.04 51.84 A18.1861 18.6019 0 0 1 39.77 53.45 A19.0827
							 19.5189 0 0 1 43.63 56.02 C43.7 56.09 43.77 56.15 43.84 56.21 C43.91 56.27 43.98 56.33 44.04 56.39 C44.18
							 56.51 44.31 56.64 44.44 56.77 C44.57 56.89 44.69 57.02 44.82 57.14 C44.95 57.27 45.07 57.4 45.19 57.53
							 A21.959 22.461 0 0 1 46.51 59.09 A19.9341 20.3898 0 0 1 48.45 62.2 C48.48 62.26 48.51 62.32 48.54 62.39
							 C48.58 62.45 48.61 62.51 48.63 62.57 C48.69 62.7 48.75 62.82 48.81 62.94 C48.86 63.07 48.92 63.18 48.97
							 63.3 C49.02 63.42 49.07 63.54 49.12 63.66 A21.3088 21.7959 0 0 1 50.16 66.82 a0.437861 0.447871 -180
							 0 0 0.862537 -0.0993691 A18.7447 19.1733 -180 0 0 50.4 61.45 A19.8564 20.3103 -180 0 0 48.96 57.54 A20.8765
							 21.3537 -180 0 0 44.84 51.77 A8.07093 8.25544 -180 0 0 43.89 45.85 A8.56847 8.76436 -180 0 0 38.3 47.3
							 A20.304 20.7681 -180 0 0 36.38 46.57 A22.0304 22.5341 -180 0 0 34.74 46.1 A22.5349 23.0501 -180 0 0
							 32.72 45.72 A10.3699 10.6069 -180 0 0 27.69 39.69 A11.0131 11.2649 -180 0 0 22.73 46.16 L22.73 46.16
							 Z" class="st1"/>
				<path d="M22.73 46.16 C22.73 46.16 22.71 46.24 22.68 46.38 C22.45 46.45 22.22 46.51 21.99 46.59 C21.67 46.69 21.35
							 46.81 21.03 46.93 C20.71 47.05 20.4 47.18 20.09 47.32 A19.2381 19.6779 -180 0 0 18.23 48.26 C17.64 48.59
							 17.06 48.97 16.49 49.37 L16.35 49.3 A14.3772 14.7059 -180 0 0 5.46 49.76 A15.7776 16.1383 -180 0 0 8.31
							 60.71 C8.17 61.09 8.05 61.49 7.93 61.88 A26.7158 27.3265 -180 0 0 6.99 66.27 C6.96 66.49 6.93 66.71
							 6.91 66.93 A14.2704 14.5966 -180 0 0 -0 75.14 C4.45 80.37 9.63 80.7 9.63 80.7 C9.63 80.7 9.64 80.69
							 9.65 80.68 A22.8007 23.3219 -180 0 0 11.93 84.1 A22.1734 22.6803 -180 0 0 13.06 85.4 A11.9784 12.2522
							 -180 0 0 13.29 94.09 A13.8263 14.1424 -180 0 0 22.18 91.32 C22.67 91.49 23.17 91.64 23.67 91.78 A22.4607
							 22.9741 -180 0 0 28.31 92.48 C28.7 92.5 29.09 92.51 29.48 92.5 L29.79 92.5 L30.03 92.5 L30.27 92.48
							 L30.28 92.49 C32.61 95.9 36.71 96.38 36.71 96.38 C39.63 93.23 39.8 90.1 39.8 89.43 L39.8 89.29 C39.8
							 89.24 39.8 89.19 39.79 89.15 A18.8051 19.235 -180 0 0 41.54 87.73 A18.1806 18.5962 -180 0 0 44.58 84.09
							 C44.66 83.96 44.73 83.84 44.81 83.71 A8.16184 8.34842 -180 0 0 50.44 81.62 A8.58443 8.78068 -180 0 0
							 47.52 76.06 C47.52 76.06 47.51 76.04 47.48 76.03 C47.46 76.01 47.44 76 47.44 76 A2.72084 2.78304 -180
							 0 0 47.37 75.95 A19.1986 19.6375 -180 0 0 47.46 74.18 L47.46 73.59 L47.43 73.35 L47.42 73.03 C47.41
							 72.92 47.4 72.83 47.39 72.73 C47.38 72.63 47.38 72.53 47.37 72.44 L47.33 72.14 L47.29 71.85 A13.5334
							 13.8428 -180 0 0 47.08 70.7 A14.2475 14.5732 -180 0 0 42.6 63.05 A14.0601 14.3815 -180 0 0 39.07 60.72
							 A13.8499 14.1665 -180 0 0 33.2 59.48 L32.96 59.49 L32.81 59.49 L32.71 59.49 L32.47 59.51 A11.8639 12.1351
							 -180 0 0 31.21 59.67 A11.0117 11.2635 -180 0 0 24.78 63.52 A10.8702 11.1187 -180 0 0 23 66.59 A10.6356
							 10.8788 -180 0 0 22.29 69.87 A9.40256 9.61751 -180 0 0 22.27 70.68 C22.27 70.75 22.27 70.82 22.28 70.88
							 L22.29 71.09 C22.3 71.23 22.31 71.35 22.32 71.48 A8.53516 8.73029 -180 0 0 22.61 73.07 A8.27425 8.46341
							 -180 0 0 25.9 77.71 A8.04942 8.23344 -180 0 0 28.15 78.81 A7.85443 8.03399 -180 0 0 30.39 79.14 C30.48
							 79.14 30.57 79.14 30.66 79.13 C30.7 79.13 30.75 79.13 30.8 79.13 L30.93 79.12 C31.01 79.11 31.09 79.1
							 31.16 79.1 C31.18 79.1 31.2 79.09 31.23 79.09 L31.3 79.08 C31.34 79.07 31.39 79.06 31.43 79.06 C31.53
							 79.05 31.61 79.03 31.69 79.01 C31.78 79 31.86 78.98 31.94 78.96 C32.11 78.92 32.27 78.87 32.42 78.82
							 A6.24038 6.38305 -180 0 0 33.3 78.44 A6.31463 6.45899 -180 0 0 34.06 77.97 C34.13 77.92 34.19 77.87
							 34.25 77.82 a0.567623 0.580599 -180 0 0 -0.624524 -0.96459 A3.69788 3.78241 0 0 1 33.45 76.95 A5.33621
							 5.4582 0 0 1 32.79 77.23 A5.66096 5.79038 0 0 1 32.07 77.41 C31.95 77.43 31.82 77.45 31.69 77.46 A1.50233
							 1.53667 0 0 1 31.5 77.47 C31.43 77.47 31.36 77.48 31.31 77.48 C31.25 77.47 31.18 77.48 31.12 77.48 C31.04
							 77.48 30.96 77.47 30.88 77.47 L30.85 77.47 L30.8 77.46 C30.76 77.46 30.73 77.45 30.69 77.45 C30.62 77.44
							 30.55 77.43 30.49 77.42 A6.08911 6.22831 0 0 1 28.81 76.92 A6.00168 6.13888 0 0 1 27.27 75.88 A5.86359
							 5.99764 0 0 1 26.06 74.34 A5.67554 5.80529 0 0 1 25.34 71.35 C25.35 71.26 25.35 71.16 25.35 71.07 L25.35
							 71.02 L25.36 70.94 C25.36 70.9 25.37 70.85 25.37 70.8 C25.39 70.61 25.42 70.42 25.45 70.24 A7.2764 7.44275
							 0 0 1 28.5 65.4 A7.10778 7.27027 0 0 1 29.53 64.8 A7.27293 7.4392 0 0 1 30.66 64.38 A7.105 7.26743 0
							 0 1 31.85 64.17 C32.05 64.15 32.25 64.14 32.45 64.14 L32.59 64.14 L32.76 64.15 L32.92 64.15 L33.09 64.16
							 A9.26933 9.48123 0 0 1 36.86 65.32 A9.09585 9.30379 0 0 1 40.57 69.24 A8.78914 8.99006 0 0 1 41.41 71.89
							 C41.44 72.12 41.47 72.35 41.49 72.59 L41.51 72.76 L41.51 72.94 C41.51 73 41.51 73.05 41.52 73.11 C41.53
							 73.17 41.52 73.24 41.52 73.28 L41.52 73.6 L41.5 74.01 C41.48 74.27 41.46 74.52 41.43 74.78 C41.4 75.03
							 41.36 75.27 41.31 75.53 C41.27 75.78 41.21 76.02 41.15 76.27 A11.4496 11.7114 0 0 1 40.69 77.71 A11.7869
							 12.0563 0 0 1 34.65 84.24 A11.6106 11.876 0 0 1 31.78 85.14 A11.2976 11.5559 0 0 1 30.28 85.29 L29.52
							 85.29 A15.4431 15.7961 0 0 1 28.71 85.25 A15.3272 15.6776 0 0 1 25.56 84.67 A15.5333 15.8884 0 0 1 17.71
							 79.3 A15.7436 16.1035 0 0 1 15.99 76.58 A15.5597 15.9154 0 0 1 14.86 73.59 A15.33 15.6804 0 0 1 14.34
							 70.45 L14.33 70.25 L14.33 70.07 L14.32 69.9 L14.32 69.26 C14.32 69.14 14.33 69.01 14.33 68.88 C14.35
							 68.35 14.39 67.81 14.46 67.28 C14.53 66.74 14.61 66.2 14.72 65.66 C14.83 65.12 14.96 64.6 15.1 64.07
							 A20.4892 20.9577 0 0 1 16.19 61.06 A16.2945 16.667 0 0 1 19.55 56.1 A14.1344 14.4575 0 0 1 20.61 55.13
							 C20.97 54.83 21.35 54.55 21.75 54.29 A13.3072 13.6114 0 0 1 22.95 53.57 C23.16 53.45 23.37 53.35 23.58
							 53.25 L23.9 53.1 A16.3965 16.7714 0 0 1 25.54 52.47 C25.66 52.44 25.77 52.4 25.88 52.37 C25.99 52.33
							 26.11 52.3 26.22 52.27 C26.44 52.2 26.67 52.15 26.9 52.09 C27.02 52.06 27.13 52.04 27.25 52.01 C27.37
							 51.99 27.48 51.96 27.6 51.94 C27.71 51.92 27.83 51.9 27.94 51.88 L28.12 51.84 L28.3 51.82 C28.41 51.8
							 28.53 51.78 28.65 51.76 C28.78 51.74 28.91 51.73 29.04 51.71 C29.15 51.69 29.32 51.67 29.43 51.66 L29.68
							 51.63 L29.84 51.62 L29.93 51.61 L30.03 51.6 L30.42 51.58 L30.62 51.56 L30.75 51.56 L31.09 51.55 C31.54
							 51.53 32 51.53 32.43 51.55 A18.5969 19.0221 0 0 1 35.04 51.84 A18.1861 18.6019 0 0 1 39.77 53.45 A19.0827
							 19.5189 0 0 1 43.63 56.02 C43.7 56.09 43.77 56.15 43.84 56.21 C43.91 56.27 43.98 56.33 44.04 56.39 C44.18
							 56.51 44.31 56.64 44.44 56.77 C44.57 56.89 44.69 57.02 44.82 57.14 C44.95 57.27 45.07 57.4 45.19 57.53
							 A21.959 22.461 0 0 1 46.51 59.09 A19.9341 20.3898 0 0 1 48.45 62.2 C48.48 62.26 48.51 62.32 48.54 62.39
							 C48.58 62.45 48.61 62.51 48.63 62.57 C48.69 62.7 48.75 62.82 48.81 62.94 C48.86 63.07 48.92 63.18 48.97
							 63.3 C49.02 63.42 49.07 63.54 49.12 63.66 A21.3088 21.7959 0 0 1 50.16 66.82 a0.437861 0.447871 -180
							 0 0 0.862537 -0.0993691 A18.7447 19.1733 -180 0 0 50.4 61.45 A19.8564 20.3103 -180 0 0 48.96 57.54 A20.8765
							 21.3537 -180 0 0 44.84 51.77 A8.07093 8.25544 -180 0 0 43.89 45.85 A8.56847 8.76436 -180 0 0 38.3 47.3
							 A20.304 20.7681 -180 0 0 36.38 46.57 A22.0304 22.5341 -180 0 0 34.74 46.1 A22.5349 23.0501 -180 0 0
							 32.72 45.72 A10.3699 10.6069 -180 0 0 27.69 39.69 A11.0131 11.2649 -180 0 0 22.73 46.16" class="st2"/>
			</g>
		</g>
	</g>
</svg>
