<?xml version="1.0" encoding="UTF-8" standalone="no"?>
<!DOCTYPE svg PUBLIC "-//W3C//DTD SVG 1.1//EN" "http://www.w3.org/Graphics/SVG/1.1/DTD/svg11.dtd">
<!-- Generated by Microsoft Visio, SVG Export Azure LightHouse My Role.svg Page-1 -->
<svg xmlns="http://www.w3.org/2000/svg" xmlns:xlink="http://www.w3.org/1999/xlink" xmlns:ev="http://www.w3.org/2001/xml-events"
		width="1.1274in" height="1.42984in" viewBox="0 0 81.1729 102.949" xml:space="preserve" color-interpolation-filters="sRGB"
		class="st7">
	<style type="text/css">
	<![CDATA[
		.st1 {fill:#0072c6;stroke:none;stroke-linecap:butt;stroke-width:12.24}
		.st2 {fill:#ffffff;stroke:none;stroke-linecap:butt;stroke-width:12.24}
		.st3 {fill:#7a7a7a;stroke:none;stroke-linecap:butt;stroke-width:12.24}
		.st4 {fill:#804998;stroke:none;stroke-linecap:butt;stroke-width:12.24}
		.st5 {fill:#3999c6;stroke:none;stroke-linecap:butt;stroke-width:12.24}
		.st6 {fill:#ffffff;fill-opacity:0.2;stroke:none;stroke-linecap:butt;stroke-width:12.24}
		.st7 {fill:none;fill-rule:evenodd;font-size:12px;overflow:visible;stroke-linecap:square;stroke-miterlimit:3}
	]]>
	</style>

	<g>
		<title>Page-1</title>
		<g id="group12488-1" transform="translate(12.24,-34.0157)">
			<title>Azure LightHouse My Role.12488</title>
			<g id="group12489-2">
				<title>g22</title>
				<g id="shape12490-3">
					<title>path4</title>
					<path d="M14.17 102.95 L1.7 102.95 A1.70079 1.7355 0 0 1 0 101.21 L0 88.49 A1.70079 1.7355 0 0 1 1.7 86.75 L14.17
								 86.75 A1.70079 1.7355 0 0 1 15.87 88.49 L15.87 101.21 A1.70079 1.7355 0 0 1 14.17 102.95 Z"
							class="st1"/>
				</g>
				<g id="shape12491-5" transform="translate(3.40157,-3.47099)">
					<title>path6</title>
					<rect x="0" y="93.6927" width="9.07087" height="9.25599" class="st2"/>
				</g>
				<g id="shape12492-7" transform="translate(19.2756,2.98428E-13)">
					<title>path8</title>
					<path d="M14.17 102.95 L1.7 102.95 A1.70079 1.7355 0 0 1 -0 101.21 L0 88.49 A1.70079 1.7355 0 0 1 1.7 86.75 L14.17
								 86.75 A1.70079 1.7355 0 0 1 15.87 88.49 L15.87 101.21 A1.70079 1.7355 0 0 1 14.17 102.95 Z"
							class="st1"/>
				</g>
				<g id="shape12493-9" transform="translate(22.6772,-3.47099)">
					<title>path10</title>
					<rect x="0" y="93.6927" width="9.07087" height="9.25599" class="st2"/>
				</g>
				<g id="shape12494-11" transform="translate(26.0787,-16.198)">
					<title>path12</title>
					<rect x="0" y="87.9077" width="2.26772" height="15.041" class="st3"/>
				</g>
				<g id="shape12495-13" transform="translate(14.7402,-31.239)">
					<title>path14</title>
					<path d="M24.94 90.22 C24.94 97.25 19.36 102.95 12.47 102.95 C5.58 102.95 0 97.25 0 90.22 C0 83.19 5.58 77.49
								 12.47 77.49 C19.36 77.49 24.94 83.19 24.94 90.22 Z" class="st4"/>
				</g>
				<g id="shape12496-15" transform="translate(36.2835,2.98428E-13)">
					<title>path16</title>
					<path d="M16.89 77.49 C16.89 81.15 13.9 84.11 10.2 84.11 C6.51 84.11 3.51 81.15 3.51 77.49 C3.51 73.84 6.51 70.88
								 10.2 70.88 C13.9 70.88 16.89 73.84 16.89 77.49 ZM14.38 86.75 L10.2 93.32 L6.03 86.75 L0 86.75 L0
								 102.95 L20.41 102.95 L20.41 86.75 L14.38 86.75 Z" class="st5"/>
				</g>
				<g id="shape12497-17" transform="translate(14.7662,-35.7848)">
					<title>path18</title>
					<path d="M20.46 86.59 C16.04 82.07 8.86 82.07 4.43 86.59 C0 91.1 0 98.43 4.43 102.95 L20.46 86.59 Z"
							class="st6"/>
				</g>
				<g id="shape12498-19" transform="translate(6.80315,-16.198)">
					<title>path20</title>
					<path d="M31.86 93.69 L2.27 93.69 A2.26772 2.314 -180 0 0 0 96.01 L0 102.95 L2.27 102.95 L2.27 96.01 L32.22 96.01
								 A7.40409 7.5552 0 0 1 31.86 93.69 Z" class="st3"/>
				</g>
			</g>
		</g>
	</g>
</svg>
