<?xml version="1.0" encoding="UTF-8" standalone="no"?>
<!DOCTYPE svg PUBLIC "-//W3C//DTD SVG 1.1//EN" "http://www.w3.org/Graphics/SVG/1.1/DTD/svg11.dtd">
<!-- Generated by Microsoft Visio, SVG Export Shared Dashboard.svg Page-1 -->
<svg xmlns="http://www.w3.org/2000/svg" xmlns:xlink="http://www.w3.org/1999/xlink" xmlns:ev="http://www.w3.org/2001/xml-events"
		width="1.73185in" height="1.49588in" viewBox="0 0 124.693 107.703" xml:space="preserve" color-interpolation-filters="sRGB"
		class="st3">
	<style type="text/css">
	<![CDATA[
		.st1 {fill:url(#grad0-6);stroke:none;stroke-linecap:butt;stroke-width:34}
		.st2 {fill:#ffffff;stroke:none;stroke-linecap:butt;stroke-width:34}
		.st3 {fill:none;fill-rule:evenodd;font-size:12px;overflow:visible;stroke-linecap:square;stroke-miterlimit:3}
	]]>
	</style>

	<defs id="Patterns_And_Gradients">
		<linearGradient id="grad0-6" x1="0" y1="0" x2="1" y2="0" gradientTransform="rotate(90 0.5 0.5)">
			<stop offset="0.09" stop-color="#6cc6b9" stop-opacity="1"/>
			<stop offset="0.465" stop-color="#6ac4b7" stop-opacity="1"/>
			<stop offset="0.635" stop-color="#62bdb0" stop-opacity="1"/>
			<stop offset="0.77" stop-color="#56b1a4" stop-opacity="1"/>
			<stop offset="0.88" stop-color="#439f93" stop-opacity="1"/>
			<stop offset="0.975" stop-color="#2c897d" stop-opacity="1"/>
			<stop offset="1" stop-color="#258277" stop-opacity="1"/>
		</linearGradient>
	</defs>
	<g>
		<title>Page-1</title>
		<g id="group11751-1" transform="translate(34,-34.0157)">
			<title>Shared Dashboard.11751</title>
			<g id="group11752-2">
				<title>g10</title>
				<g id="shape11753-3">
					<title>path2</title>
					<path d="M1.73 68.02 L54.95 68.02 A1.64724 1.62786 0 0 1 56.69 69.55 L56.69 106.17 A1.64724 1.62786 0 0 1 54.97
								 107.7 L1.73 107.7 A1.64724 1.62786 0 0 1 -0 106.17 L0 69.55 A1.64724 1.62786 0 0 1 1.73 68.02 Z"
							class="st1"/>
				</g>
				<g id="shape11754-7" transform="translate(22.9575,-20.1507)">
					<title>path4</title>
					<path d="M0.49 92.84 L25.97 92.84 a0.48189 0.47622 0 0 1 0.497638 0.460658 L26.47 107.24 a0.48189 0.47622 0 0
								 1 -0.497638 0.460658 L0.49 107.7 a0.47874 0.473108 0 0 1 -0.494488 -0.460658 L0 93.3 a0.47874 0.473108
								 0 0 1 0.494488 -0.460658 Z" class="st2"/>
				</g>
				<g id="shape11755-9" transform="translate(7.03307,-5.10147)">
					<title>rect6</title>
					<path d="M0 107.24 a0.469302 0.463781 -180 0 0 0.469291 0.46377 L10.26 107.7 a0.469302 0.463781 -180 0 0 0.469291
								 -0.46377 L10.72 78.25 a0.469302 0.463781 -180 0 0 -0.469291 -0.46377 L0.47 77.79 a0.469302 0.463781
								 -180 0 0 -0.469291 0.46377 L0 107.24 Z" class="st2"/>
				</g>
				<g id="shape11756-11" transform="translate(22.9575,-5.09836)">
					<title>path8</title>
					<path d="M16.12 96.88 L26 96.88 a0.466142 0.460658 0 0 1 0.475591 0.448208 L26.47 107.25 a0.466142 0.460658 0
								 0 1 -0.475591 0.45132 L16.12 107.7 a0.466142 0.460658 0 0 1 -0.472441 -0.45132 L15.64 97.32 a0.462992
								 0.457545 0 0 1 0.472441 -0.43887 ZM0.45 96.88 L10.18 96.88 a0.466142 0.460658 0 0 1 0.466142 0.460658
								 L10.64 107.24 a0.466142 0.460658 0 0 1 -0.466142 0.460658 L0.45 107.7 a0.453543 0.448208 0 0 1 -0.453543
								 -0.448208 L0 97.32 a0.453543 0.448208 0 0 1 0.453543 -0.43887 Z" class="st2"/>
				</g>
			</g>
		</g>
	</g>
</svg>
