<?xml version="1.0" encoding="UTF-8" standalone="no"?>
<!DOCTYPE svg PUBLIC "-//W3C//DTD SVG 1.1//EN" "http://www.w3.org/Graphics/SVG/1.1/DTD/svg11.dtd">
<!-- Generated by Microsoft Visio, SVG Export Cognitive Services Form Recogniser.svg Page-1 -->
<svg xmlns="http://www.w3.org/2000/svg" xmlns:xlink="http://www.w3.org/1999/xlink" xmlns:ev="http://www.w3.org/2001/xml-events"
		width="1.06551in" height="1.39919in" viewBox="0 0 76.7166 100.741" xml:space="preserve" color-interpolation-filters="sRGB"
		class="st2">
	<style type="text/css">
	<![CDATA[
		.st1 {fill:#0078d4;stroke:none;stroke-linecap:butt;stroke-width:10.0328}
		.st2 {fill:none;fill-rule:evenodd;font-size:12px;overflow:visible;stroke-linecap:square;stroke-miterlimit:3}
	]]>
	</style>

	<g>
		<title>Page-1</title>
		<g id="group3782-1" transform="translate(10.0328,-34.0157)">
			<title>Cognitive Services Form Recogniser</title>
			<g id="shape3783-2" transform="translate(30.0313,-18.6452)">
				<title>Sheet.3783</title>
				<path d="M4.84 95.88 L0 95.88 L0 100.74 L4.84 100.74 L4.84 95.88 Z" class="st1"/>
			</g>
			<g id="shape3784-4" transform="translate(30.0313,-9.8515)">
				<title>Sheet.3784</title>
				<path d="M4.84 95.88 L0 95.88 L0 100.74 L4.84 100.74 L4.84 95.88 Z" class="st1"/>
			</g>
			<g id="shape3785-6" transform="translate(37.9917,-18.6452)">
				<title>Sheet.3785</title>
				<path d="M4.84 95.88 L0 95.88 L0 100.74 L4.84 100.74 L4.84 95.88 Z" class="st1"/>
			</g>
			<g id="shape3786-8" transform="translate(37.9917,-9.8515)">
				<title>Sheet.3786</title>
				<path d="M4.84 95.88 L0 95.88 L0 100.74 L4.84 100.74 L4.84 95.88 Z" class="st1"/>
			</g>
			<g id="shape3787-10" transform="translate(45.8225,-18.6452)">
				<title>Sheet.3787</title>
				<path d="M4.84 95.88 L0 95.88 L0 100.74 L4.84 100.74 L4.84 95.88 Z" class="st1"/>
			</g>
			<g id="shape3788-12" transform="translate(45.8225,-9.8515)">
				<title>Sheet.3788</title>
				<path d="M4.84 95.88 L0 95.88 L0 100.74 L4.84 100.74 L4.84 95.88 Z" class="st1"/>
			</g>
			<g id="shape3789-14" transform="translate(16.0509,-2.84217E-13)">
				<title>Sheet.3789</title>
				<path d="M29.1 67.6 C28.93 67.51 28.68 67.43 28.43 67.34 C26.32 66.62 21.98 65.61 14.61 65.99 C7.24 66.37 0 67.98
							 0 67.98 C0 67.98 1.64 77.83 3.83 82.77 C5.98 87.55 7.29 90.55 9.31 93.13 C12.89 98.04 17.69 100.74 23.63
							 100.74 C32.98 100.74 40.6 93.13 40.6 83.7 C40.64 76.26 35.84 69.88 29.1 67.6 ZM23.71 98.59 C15.54 98.59
							 8.93 91.95 8.93 83.79 C8.93 75.59 15.54 68.95 23.71 68.95 C31.88 68.95 38.49 75.59 38.49 83.79 C38.45
							 91.95 31.84 98.59 23.71 98.59 Z" class="st1"/>
			</g>
			<g id="shape3790-16" transform="translate(0,-6.71985)">
				<title>Sheet.3790</title>
				<path d="M41.15 58.97 L33.1 50.77 L0 50.77 L0 100.74 L23.04 100.74 C22.66 100.11 22.2 99.35 21.98 98.84 C21.86 98.59
							 21.73 98.29 21.65 98.04 L2.57 98.04 L2.57 53.26 L31.63 53.26 L31.63 60.2 L38.75 60.2 L38.75 70.64 L41.15
							 71.02 L41.15 58.97 Z" class="st1"/>
			</g>
			<g id="shape3791-18" transform="translate(8.13127,-39.3182)">
				<title>Sheet.3791</title>
				<path d="M24.85 100.74 L1.22 100.74 C0.55 100.74 0 100.19 0 99.52 C0 98.84 0.55 98.29 1.22 98.29 L24.85 98.29 C25.52
							 98.29 26.07 98.84 26.07 99.52 C26.07 100.19 25.52 100.74 24.85 100.74 Z" class="st1"/>
			</g>
			<g id="shape3792-20" transform="translate(8.13127,-15.3917)">
				<title>Sheet.3792</title>
				<path d="M1.22 98.29 C0.55 98.29 0 98.84 0 99.52 C0 100.19 0.55 100.74 1.22 100.74 L10.36 100.74 L9.35 98.25 L1.22
							 98.25 L1.22 98.29 Z" class="st1"/>
			</g>
			<g id="shape3793-22" transform="translate(8.13127,-23.465)">
				<title>Sheet.3793</title>
				<path d="M1.22 98.29 C0.55 98.29 0 98.84 0 99.52 C0 100.19 0.55 100.74 1.22 100.74 L7.62 100.74 L6.99 98.25 L1.22
							 98.25 L1.22 98.29 Z" class="st1"/>
			</g>
			<g id="shape3794-24" transform="translate(8.13127,-31.4562)">
				<title>Sheet.3794</title>
				<path d="M1.22 98.29 C0.55 98.29 0 98.84 0 99.52 C0 100.19 0.55 100.74 1.22 100.74 L5.9 100.74 L5.64 98.25 L1.22
							 98.25 L1.22 98.29 Z" class="st1"/>
			</g>
		</g>
	</g>
</svg>
