<?xml version="1.0" encoding="UTF-8" standalone="no"?>
<!DOCTYPE svg PUBLIC "-//W3C//DTD SVG 1.1//EN" "http://www.w3.org/Graphics/SVG/1.1/DTD/svg11.dtd">
<!-- Generated by Microsoft Visio, SVG Export Cognitive Services Personaliser.svg Page-1 -->
<svg xmlns="http://www.w3.org/2000/svg" xmlns:xlink="http://www.w3.org/1999/xlink" xmlns:ev="http://www.w3.org/2001/xml-events"
		width="1.06609in" height="1.39919in" viewBox="0 0 76.7585 100.741" xml:space="preserve" color-interpolation-filters="sRGB"
		class="st2">
	<style type="text/css">
	<![CDATA[
		.st1 {fill:#0078d4;stroke:none;stroke-linecap:butt;stroke-width:10.0328}
		.st2 {fill:none;fill-rule:evenodd;font-size:12px;overflow:visible;stroke-linecap:square;stroke-miterlimit:3}
	]]>
	</style>

	<g>
		<title>Page-1</title>
		<g id="group3698-1" transform="translate(10.0328,-34.0157)">
			<title>Cognitive Services Personaliser</title>
			<g id="shape3699-2">
				<title>Sheet.3699</title>
				<path d="M28.35 44.05 C24.11 44.05 20.09 44.97 16.29 46.71 L17.43 49.15 C20.85 47.52 24.49 46.71 28.29 46.71 C42.41
							 46.71 53.92 58.22 53.92 72.34 C53.92 80.54 50.01 87.87 43.99 92.6 L43.99 87 C43.99 83.69 41.27 80.97
							 37.96 80.97 L30.63 80.97 C36.38 80 40.78 75 40.78 68.97 C40.78 62.24 35.3 56.76 28.56 56.76 C21.83 56.76
							 16.35 62.24 16.35 68.97 C16.35 75 20.74 80 26.5 80.97 L19.17 80.97 C15.86 80.97 13.14 83.69 13.14 87
							 L13.14 92.98 C6.84 88.31 2.72 80.81 2.72 72.4 C2.72 66.42 4.78 60.67 8.58 56.05 L8.58 62.51 L11.3 62.51
							 L11.3 51.65 L0.43 51.65 L0.43 54.37 L6.41 54.37 C2.28 59.47 0 65.77 0 72.4 C0 88.03 12.71 100.74 28.35
							 100.74 C43.99 100.74 56.69 88.03 56.69 72.4 C56.69 56.76 43.93 44.05 28.35 44.05 ZM19.11 68.97 C19.11
							 63.76 23.35 59.47 28.62 59.47 C33.83 59.47 38.12 63.71 38.12 68.97 C38.12 74.19 33.89 78.48 28.62 78.48
							 C23.35 78.42 19.11 74.19 19.11 68.97 ZM8.58 54.37 L8.58 54.53 L8.42 54.37 L8.58 54.37 ZM15.86 94.77
							 L15.86 87 C15.86 85.16 17.38 83.69 19.17 83.69 L37.96 83.69 C39.8 83.69 41.27 85.21 41.27 87 L41.27
							 94.44 C37.47 96.67 33.02 97.97 28.29 97.97 C23.79 97.97 19.55 96.83 15.86 94.77 Z" class="st1"/>
			</g>
		</g>
	</g>
</svg>
