<?xml version="1.0" encoding="UTF-8" standalone="no"?>
<!DOCTYPE svg PUBLIC "-//W3C//DTD SVG 1.1//EN" "http://www.w3.org/Graphics/SVG/1.1/DTD/svg11.dtd">
<!-- Generated by Microsoft Visio, SVG Export Container Kubernetes Service.svg Page-1 -->
<svg xmlns="http://www.w3.org/2000/svg" xmlns:xlink="http://www.w3.org/1999/xlink" xmlns:ev="http://www.w3.org/2001/xml-events"
		width="1.67323in" height="1.62402in" viewBox="0 0 120.473 116.929" xml:space="preserve" color-interpolation-filters="sRGB"
		class="st4">
	<style type="text/css">
	<![CDATA[
		.st1 {fill:url(#grad0-5);stroke:none;stroke-linecap:butt;stroke-width:31.89}
		.st2 {fill:none;stroke:none;stroke-linecap:butt;stroke-width:31.89}
		.st3 {fill:#341a6e;stroke:none;stroke-linecap:butt;stroke-width:31.89}
		.st4 {fill:none;fill-rule:evenodd;font-size:12px;overflow:visible;stroke-linecap:square;stroke-miterlimit:3}
	]]>
	</style>

	<defs id="Patterns_And_Gradients">
		<linearGradient id="grad0-5" x1="0" y1="0" x2="1" y2="0" gradientTransform="rotate(0 0.5 0.5)">
			<stop offset="0" stop-color="#b77af4" stop-opacity="1"/>
			<stop offset="1" stop-color="#773adc" stop-opacity="1"/>
		</linearGradient>
	</defs>
	<g>
		<title>Page-1</title>
		<g id="group3524-1" transform="translate(31.89,-34.0157)">
			<title>Container Kubernetes Service</title>
			<g id="shape3525-2" transform="translate(9.21887,-34.8501)">
				<title>polygon41</title>
				<path d="M0 102.46 L0 114.97 L8.97 116.93 L17.97 113.24 L17.97 103.9 L8.97 100.76 L0 102.46 Z" class="st1"/>
			</g>
			<g id="shape3526-6" transform="translate(9.40701,-35.0051)">
				<title>path43</title>
				<path d="M9.12 116.89 L17.34 113.49 a0.627134 0.641807 -180 0 0 0.376281 -0.449264 L17.72 104.57 a0.658491 0.673897
							 -180 0 0 -0.407638 -0.577626 L9 101.1 L8.62 101.1 L0.47 102.64 a0.627134 0.641807 -180 0 0 -0.470351
							 0.577626 L0 114.55 a0.595777 0.609716 -180 0 0 0.470351 0.609715 L8.72 116.92 A1.00341 1.02689 -180
							 0 0 9.12 116.89 L9.12 116.89 Z" class="st2"/>
			</g>
			<g id="shape3527-8" transform="translate(9.21887,-34.8501)">
				<title>path45</title>
				<path d="M0 102.46 L0 114.97 L9.06 116.93 L9.06 100.88 L0 102.46 ZM3.83 114.01 L1.29 113.5 L1.29 103.87 L3.83 103.45
							 L3.83 114.01 ZM7.78 114.75 L4.86 114.27 L4.86 103.26 L7.78 102.75 L7.78 114.75 Z" class="st3"/>
			</g>
			<g id="shape3528-10" transform="translate(28.6287,-34.6896)">
				<title>polygon47</title>
				<path d="M0 102.46 L0 114.97 L8.97 116.93 L17.94 113.21 L17.94 103.9 L8.97 100.76 L0 102.46 Z" class="st1"/>
			</g>
			<g id="shape3529-13" transform="translate(28.6287,-34.6896)">
				<title>path49</title>
				<path d="M0 102.46 L0 114.97 L9 116.93 L9 100.88 L0 102.46 ZM3.79 114.01 L1.25 113.5 L1.25 103.87 L3.79 103.45 L3.79
							 114.01 ZM7.75 114.75 L4.83 114.27 L4.83 103.26 L7.75 102.71 L7.75 114.75 Z" class="st3"/>
			</g>
			<g id="shape3530-15" transform="translate(0.0313567,-17.5855)">
				<title>polygon51</title>
				<path d="M0 102.46 L0 114.97 L8.97 116.93 L17.97 113.24 L17.97 103.9 L8.97 100.76 L0 102.46 Z" class="st1"/>
			</g>
			<g id="shape3531-18" transform="translate(0,-17.6818)">
				<title>path53</title>
				<path d="M0 102.55 L0 114.97 L9.06 116.93 L9.06 100.88 L0 102.55 ZM3.79 114.14 L1.25 113.59 L1.25 103.96 L3.79 103.52
							 L3.79 114.14 ZM7.78 114.97 L4.86 114.49 L4.86 103.36 L7.78 102.84 L7.78 114.97 Z" class="st3"/>
			</g>
			<g id="shape3532-20" transform="translate(19.3784,-17.6818)">
				<title>polygon55</title>
				<path d="M0 102.42 L0 114.94 L8.97 116.93 L17.94 113.21 L17.94 103.87 L8.97 100.72 L0 102.42 Z" class="st1"/>
			</g>
			<g id="shape3533-23" transform="translate(19.3784,-17.6818)">
				<title>path57</title>
				<path d="M0 102.42 L0 114.97 L9.03 116.93 L9.03 100.88 L0 102.42 ZM3.79 114.01 L1.25 113.46 L1.25 103.84 L3.79 103.39
							 L3.79 114.01 ZM7.75 114.72 L4.83 114.23 L4.83 103.23 L7.75 102.71 L7.75 114.72 Z" class="st3"/>
			</g>
			<g id="shape3534-25" transform="translate(38.7255,-17.5534)">
				<title>polygon59</title>
				<path d="M0 102.46 L0 114.97 L8.97 116.93 L17.97 113.24 L17.97 103.9 L8.97 100.76 L0 102.46 Z" class="st1"/>
			</g>
			<g id="shape3535-28" transform="translate(38.7255,-17.6818)">
				<title>path61</title>
				<path d="M0 102.58 L0 114.97 L9.06 116.93 L9.06 100.88 L0 102.58 ZM3.83 114.17 L1.29 113.62 L1.29 104 L3.83 103.55
							 L3.83 114.17 ZM7.78 114.88 L4.86 114.39 L4.86 103.39 L7.78 102.87 L7.78 114.88 Z" class="st3"/>
			</g>
			<g id="shape3536-30" transform="translate(8.99937,-0.128361)">
				<title>polygon63</title>
				<path d="M0 102.42 L0 114.94 L8.97 116.93 L17.97 113.21 L17.97 103.9 L8.97 100.76 L0 102.42 Z" class="st1"/>
			</g>
			<g id="shape3537-33" transform="translate(9.15616,-0.35007)">
				<title>path65</title>
				<path d="M9.16 116.89 L17.34 113.69 a0.564421 0.577626 -180 0 0 0.37628 -0.577626 L17.72 104.76 a0.627134 0.641807
							 -180 0 0 -0.407636 -0.705987 L9.03 101.17 a0.533064 0.545536 -180 0 0 -0.37628 0 L0.5 102.68 a0.595777
							 0.609716 -180 0 0 -0.501707 0.609716 L0 114.65 a0.595777 0.609716 -180 0 0 0.470351 0.609716 L8.72 116.89
							 a0.721204 0.738078 -180 0 0 0.438993 0 Z" class="st2"/>
			</g>
			<g id="shape3538-35" transform="translate(8.99937,-0.128361)">
				<title>path67</title>
				<path d="M0 102.42 L0 114.94 L9.06 116.93 L9.06 100.63 L0 102.42 ZM3.83 114.01 L1.29 113.46 L1.29 103.84 L3.83 103.39
							 L3.83 114.01 ZM7.78 114.75 L4.86 114.27 L4.86 103.23 L7.78 102.71 L7.78 114.75 Z" class="st3"/>
			</g>
			<g id="shape3539-37" transform="translate(28.3778,-2.41585E-13)">
				<title>polygon69</title>
				<path d="M0 102.46 L0 114.97 L8.97 116.93 L17.97 113.24 L17.97 103.9 L8.97 100.76 L0 102.46 Z" class="st1"/>
			</g>
			<g id="shape3540-40" transform="translate(28.3778,-4.92679E-08)">
				<title>path71</title>
				<path d="M0 102.46 L0 114.97 L9.06 116.93 L9.06 100.88 L0 102.46 ZM3.83 114.04 L1.29 113.5 L1.29 103.87 L3.83 103.42
							 L3.83 114.04 ZM7.78 114.75 L4.86 114.27 L4.86 103.26 L7.78 102.75 L7.78 114.75 Z" class="st3"/>
			</g>
		</g>
	</g>
</svg>
