<?xml version="1.0" encoding="UTF-8" standalone="no"?>
<!DOCTYPE svg PUBLIC "-//W3C//DTD SVG 1.1//EN" "http://www.w3.org/Graphics/SVG/1.1/DTD/svg11.dtd">
<!-- Generated by Microsoft Visio, SVG Export Cost Management and Billing.svg Page-1 -->
<svg xmlns="http://www.w3.org/2000/svg" xmlns:xlink="http://www.w3.org/1999/xlink" xmlns:ev="http://www.w3.org/2001/xml-events"
		width="0.897638in" height="1.33858in" viewBox="0 0 64.6299 96.378" xml:space="preserve" color-interpolation-filters="sRGB"
		class="st7">
	<style type="text/css">
	<![CDATA[
		.st1 {fill:#ffcc00;stroke:none;stroke-width:4.91887}
		.st2 {fill:#ffca00}
		.st3 {stroke:none;stroke-width:4.91887}
		.st4 {fill:url(#grad7-10);stroke:none;stroke-width:4.91887}
		.st5 {fill:#ff6600;stroke:none;stroke-width:4.91887}
		.st6 {fill:#aa4400;stroke:none;stroke-width:4.91887}
		.st7 {fill:none;fill-rule:evenodd;font-size:12px;overflow:visible;stroke-linecap:square;stroke-miterlimit:3}
	]]>
	</style>

	<defs id="Patterns_And_Gradients">
		<radialGradient id="grad7-10" cx="0" cy="0" r="1.4">
			<stop offset="0" stop-color="#76bc2d" stop-opacity="1"/>
			<stop offset="0.41" stop-color="#74b92c" stop-opacity="1"/>
			<stop offset="0.66" stop-color="#6fb12a" stop-opacity="1"/>
			<stop offset="0.88" stop-color="#66a227" stop-opacity="1"/>
			<stop offset="1" stop-color="#5e9624" stop-opacity="1"/>
		</radialGradient>
	</defs>
	<g>
		<title>Page-1</title>
		<g id="group3430-1" transform="translate(5.38583,-34.0157)">
			<title>Cost Management and Billing</title>
			<g id="shape3431-2" transform="translate(21.1225,-18.2977)">
				<title>path17</title>
				<path d="M8.95 90.51 A3.17187 3.33292 0 0 1 7.96 93.15 A4.72608 4.96604 0 0 1 5.14 94.38 L5.14 96.38 L3.74 96.38
							 L3.74 94.31 A7.4856 7.86568 0 0 1 0.26 93.38 L0.26 90.68 A5.70936 5.99925 -180 0 0 1.84 91.51 A7.89794
							 8.29896 -180 0 0 3.74 91.98 L3.74 88.51 A7.67591 8.06566 0 0 1 0.86 86.75 A3.64764 3.83285 0 0 1 1.05
							 81.58 A4.47233 4.69941 0 0 1 3.74 80.31 L3.74 78.48 L5.11 78.48 L5.11 80.28 A7.00982 7.36574 0 0 1 8.03
							 80.95 L8.03 83.61 A7.23185 7.59905 -180 0 0 5.11 82.58 L5.11 86.38 A7.42216 7.79902 0 0 1 8.03 88.18
							 A3.17187 3.33292 0 0 1 8.95 90.51 ZM3.74 85.75 L3.74 82.65 A1.26875 1.33317 -180 0 0 2.6 84.05 C2.6
							 84.75 3.02 85.31 3.87 85.75 L3.74 85.75 ZM6.44 90.65 C6.44 90.01 6 89.51 5.11 89.08 L5.11 92.08 C6 91.91
							 6.44 91.45 6.44 90.65 Z" class="st1"/>
			</g>
			<g id="shape3432-4" transform="translate(34.7002,-6.69916)">
				<title>path19</title>
				<path d="M16.11 76.41 L4.69 76.41 A14.0514 14.7648 0 0 1 -0 87.41 L7.58 96.38 A25.3749 26.6633 -180 0 0 16.11 76.38
							 L16.11 76.41 Z" class="st2"/>
				<path d="M16.11 76.41 L4.69 76.41 A14.0514 14.7648 0 0 1 -0 87.41 L7.58 96.38 A25.3749 26.6633 -180 0 0 16.11 76.38"
						class="st3"/>
			</g>
			<g id="shape3433-7">
				<title>path21</title>
				<path d="M25.37 84.51 A14.0514 14.7648 0 0 1 25.37 54.98 L25.37 43.05 A25.3749 26.6633 -180 0 0 0 69.71 A25.3749
							 26.6633 -180 0 0 25.37 96.38 A25.3749 26.6633 -180 0 0 42.31 89.71 L34.7 80.75 A13.8928 14.5982 0 0
							 1 25.37 84.51 Z" class="st4"/>
			</g>
			<g id="shape3434-11" transform="translate(24.2013,-25.5635)">
				<title>path23</title>
				<path d="M0 65.25 L0 79.11 A16.1448 16.9645 0 0 1 16.4 96.38 L29.66 96.38 A29.6252 31.1294 -180 0 0 0 65.25 Z"
						class="st5"/>
			</g>
			<g id="shape3435-13" transform="translate(24.2013,-25.5635)">
				<title>path25</title>
				<path d="M16.46 96.38 A16.2717 17.0979 -180 0 0 0.41 79.11 L0 79.11 L1.05 81.18 A14.2734 14.9981 0 0 1 14.46 95.34
							 L16.46 96.38 Z" class="st6"/>
			</g>
		</g>
	</g>
</svg>
