<?xml version="1.0" encoding="UTF-8" standalone="no"?>
<!DOCTYPE svg PUBLIC "-//W3C//DTD SVG 1.1//EN" "http://www.w3.org/Graphics/SVG/1.1/DTD/svg11.dtd">
<!-- Generated by Microsoft Visio, SVG Export Data Lake Analytics.svg Page-1 -->
<svg xmlns="http://www.w3.org/2000/svg" xmlns:xlink="http://www.w3.org/1999/xlink" xmlns:ev="http://www.w3.org/2001/xml-events"
		width="0.952566in" height="1.34229in" viewBox="0 0 68.5848 96.6448" xml:space="preserve" color-interpolation-filters="sRGB"
		class="st5">
	<style type="text/css">
	<![CDATA[
		.st1 {fill:#a0a1a2;stroke:none;stroke-linecap:butt;stroke-width:6.12}
		.st2 {fill:#7a7a7a;stroke:none;stroke-linecap:butt;stroke-width:6.12}
		.st3 {fill:#ffffff;stroke:none;stroke-linecap:butt;stroke-width:6.12}
		.st4 {fill:#59b4d9;stroke:none;stroke-linecap:butt;stroke-width:6.12}
		.st5 {fill:none;fill-rule:evenodd;font-size:12px;overflow:visible;stroke-linecap:square;stroke-miterlimit:3}
	]]>
	</style>

	<g>
		<title>Page-1</title>
		<g id="group3327-1" transform="translate(5.93671,-34.0157)">
			<title>Data Lake Analytics</title>
			<g id="group3328-2">
				<title>Sheet.3328</title>
				<g id="shape3329-3" transform="translate(4.7338,-4.63491)">
					<title>Sheet.3329</title>
					<path d="M42.04 96.64 L5.13 96.64 C2.31 96.64 0 94.33 0 91.5 L0 54.48 C0 51.65 2.31 49.33 5.13 49.33 L42.04 49.33
								 C44.86 49.33 47.17 51.65 47.17 54.48 L47.17 91.5 C47.17 94.33 44.86 96.64 42.04 96.64 ZM5.13 52.73
								 C4.17 52.73 3.44 53.52 3.44 54.42 L3.44 91.44 C3.44 92.41 4.23 93.14 5.13 93.14 L42.04 93.14 C43
								 93.14 43.73 92.35 43.73 91.44 L43.73 54.42 C43.73 53.46 42.94 52.73 42.04 52.73 L5.13 52.73 Z"
							class="st1"/>
				</g>
				<g id="shape3330-5">
					<title>Sheet.3330</title>
					<path d="M23.33 40.63 C22.09 40.06 20.63 39.95 19.33 40.46 C18.03 40.91 16.96 41.87 16.4 43.17 L15.61 44.81 L32.23
								 44.81 L23.33 40.63 ZM56.19 59.34 C55.73 58.04 54.78 56.97 53.48 56.4 L51.85 55.61 L51.85 72.34 L56.02
								 63.41 C56.64 62.11 56.69 60.7 56.19 59.34 ZM0.68 77.26 C0.11 78.5 0 79.97 0.51 81.27 C0.96 82.57
								 1.92 83.64 3.21 84.21 L4.85 85 L4.85 68.33 L0.68 77.26 ZM37.19 96.14 C37.87 96.48 38.66 96.64 39.39
								 96.64 C40.01 96.64 40.58 96.53 41.2 96.31 C42.49 95.85 43.56 94.89 44.13 93.59 L44.91 91.95 L28.29
								 91.95 L37.19 96.14 Z" class="st2"/>
				</g>
				<g id="shape3331-7" transform="translate(8.17144,-8.13936)">
					<title>Sheet.3331</title>
					<path d="M1.69 56.23 C0.73 56.23 0 57.02 0 57.93 L0 94.95 C0 95.91 0.79 96.64 1.69 96.64 L38.6 96.64 C39.56 96.64
								 40.29 95.85 40.29 94.95 L40.29 57.93 C40.29 56.97 39.5 56.23 38.6 56.23 L1.69 56.23 Z" class="st3"/>
				</g>
				<g id="shape3332-9" transform="translate(19.6678,-13.6786)">
					<title>Sheet.3332</title>
					<path d="M16.79 78.5 L9.64 78.5 L12.62 68.5 C12.68 68.21 12.57 67.93 12.34 67.82 C12.29 67.76 12.17 67.76 12.12
								 67.76 C11.95 67.76 11.78 67.87 11.67 67.99 L0.11 84.89 C0 85.06 0 85.28 0.06 85.45 C0.17 85.62 0.34
								 85.74 0.56 85.74 L7.5 85.74 L4.4 95.91 C4.34 96.19 4.45 96.48 4.68 96.59 C4.73 96.64 4.85 96.64
								 4.9 96.64 C5.07 96.64 5.24 96.53 5.35 96.42 L17.24 79.35 C17.3 79.24 17.36 79.12 17.36 79.01 C17.36
								 78.73 17.08 78.5 16.79 78.5 Z" class="st4"/>
				</g>
			</g>
		</g>
	</g>
</svg>
