<?xml version="1.0" encoding="UTF-8" standalone="no"?>
<!DOCTYPE svg PUBLIC "-//W3C//DTD SVG 1.1//EN" "http://www.w3.org/Graphics/SVG/1.1/DTD/svg11.dtd">
<!-- Generated by Microsoft Visio, SVG Export Managed Identity.svg Page-1 -->
<svg xmlns="http://www.w3.org/2000/svg" xmlns:xlink="http://www.w3.org/1999/xlink" xmlns:ev="http://www.w3.org/2001/xml-events"
		width="0.950789in" height="1.36119in" viewBox="0 0 68.4568 98.0058" xml:space="preserve" color-interpolation-filters="sRGB"
		class="st10">
	<style type="text/css">
	<![CDATA[
		.st1 {fill:#fcd116;stroke:none;stroke-linecap:butt;stroke-width:7.92}
		.st2 {fill:#ffffff;fill-opacity:0.5;stroke:none;stroke-linecap:butt;stroke-width:7.92}
		.st3 {fill:#ff8c00;fill-opacity:0.4;stroke:none;stroke-linecap:butt;stroke-width:7.92}
		.st4 {fill:#50e6ff;stroke:none;stroke-linecap:butt;stroke-width:18.6403}
		.st5 {fill:#ffffff;stroke:none;stroke-linecap:butt;stroke-width:18.6403}
		.st6 {fill:url(#grad0-19);stroke:none;stroke-linecap:butt;stroke-width:18.6403}
		.st7 {fill:#53b1e0;stroke:none;stroke-linecap:butt;stroke-width:18.6403}
		.st8 {fill:#9cebff;stroke:none;stroke-linecap:butt;stroke-width:18.6403}
		.st9 {fill:url(#grad0-27);stroke:none;stroke-linecap:butt;stroke-width:18.6403}
		.st10 {fill:none;fill-rule:evenodd;font-size:12px;overflow:visible;stroke-linecap:square;stroke-miterlimit:3}
	]]>
	</style>

	<defs id="Patterns_And_Gradients">
		<linearGradient id="grad0-19" x1="0" y1="0" x2="1" y2="0" gradientTransform="rotate(-133.54829372701 0.5 0.5)">
			<stop offset="0" stop-color="#1988d9" stop-opacity="1"/>
			<stop offset="0.9" stop-color="#54aef0" stop-opacity="1"/>
		</linearGradient>
		<linearGradient id="grad0-27" x1="0" y1="0" x2="1" y2="0" gradientTransform="rotate(65.834982258294 0.5 0.5)">
			<stop offset="0.1" stop-color="#54aef0" stop-opacity="1"/>
			<stop offset="0.29" stop-color="#4fabee" stop-opacity="1"/>
			<stop offset="0.51" stop-color="#41a2e9" stop-opacity="1"/>
			<stop offset="0.74" stop-color="#2a93e0" stop-opacity="1"/>
			<stop offset="0.88" stop-color="#1988d9" stop-opacity="1"/>
		</linearGradient>
	</defs>
	<g>
		<title>Page-1</title>
		<g id="group2060-1" transform="translate(7.29677,-34.0157)">
			<title>Managed Identity</title>
			<g id="group2061-2">
				<title> MSI_2</title>
				<g id="shape2062-3">
					<title>path6</title>
					<path d="M17.25 90.13 C15.91 89.17 15.73 88.71 16.43 87.87 L23.85 79.38 L23.85 73.51 L33.54 63.83 C36.03 61.34
								 36.03 57.3 33.54 54.81 L22.53 43.8 C20.04 41.31 16 41.31 13.5 43.8 L2.49 54.81 C0 57.3 0 61.34 2.49
								 63.83 L12.95 74.28 L12.95 75.16 L9.97 78.14 L12.92 81.09 L9.97 84.03 L12.92 86.98 L9.97 89.93 L12.95
								 92.9 L12.95 92.94 L18.02 98.01 L21.85 93.34 L17.25 90.13 ZM14.39 50.09 C14.39 46.86 18.3 45.24 20.58
								 47.53 C22.86 49.81 21.25 53.71 18.02 53.71 C16.02 53.71 14.39 52.09 14.39 50.09 Z" class="st1"/>
				</g>
				<g id="shape2063-5" transform="translate(7.91124,-32.907)">
					<title>path8</title>
					<path d="M0 90.11 L20.92 90.11 L20.92 93.12 L0 93.12 L0 90.11 ZM0 95 L20.92 95 L20.92 98.01 L0 98.01 L0 95 Z"
							class="st2"/>
				</g>
				<g id="shape2064-7" transform="translate(18.8516,-13.6516)">
					<title>path22</title>
					<path d="M2.28 95.73 L2.28 88.12 L0 89.24 L0 98.01 L2.28 95.73 Z" class="st3"/>
				</g>
			</g>
			<g id="group2065-9" transform="translate(17.5476,-1.23692)">
				<title>g16</title>
				<g id="shape2066-10">
					<title>path2</title>
					<path d="M1.4 88.3 L12.39 95.43 L23.57 88.27 L24.97 89.91 L12.39 98.01 L0 89.91 L1.4 88.3 Z" class="st4"/>
				</g>
				<g id="shape2067-12" transform="translate(2.23361,-4.0627)">
					<title>path4</title>
					<path d="M0 91.45 L10.16 79.36 L20.52 91.46 L10.16 98.01 L0 91.45 Z" class="st5"/>
				</g>
				<g id="shape2068-14" transform="translate(2.23361,-4.0627)">
					<title>path6-5</title>
					<path d="M10.16 79.36 L10.16 98.01 L0 91.45 L10.16 79.36 Z" class="st4"/>
				</g>
				<g id="shape2069-16" transform="translate(12.3889,-4.0627)">
					<title>path8-1</title>
					<path d="M0 79.36 L0 98.01 L10.36 91.46 L0 79.36 Z" class="st6"/>
				</g>
				<g id="shape2070-20" transform="translate(12.3889,-4.0627)">
					<title>path10-1</title>
					<path d="M0 88.99 L10.36 91.46 L0 98.01 L0 88.99 Z" class="st7"/>
				</g>
				<g id="shape2071-22" transform="translate(2.23361,-4.0627)">
					<title>path12-6</title>
					<path d="M10.16 98.01 L0 91.45 L10.16 88.99 L10.16 98.01 Z" class="st8"/>
				</g>
				<g id="shape2072-24" transform="translate(12.3889,1.13687E-13)">
					<title>path14-3</title>
					<path d="M0 98.01 L12.58 89.91 L11.18 88.27 L0 95.43 L0 98.01 Z" class="st9"/>
				</g>
			</g>
		</g>
	</g>
</svg>
