<?xml version="1.0" encoding="UTF-8" standalone="no"?>
<!DOCTYPE svg PUBLIC "-//W3C//DTD SVG 1.1//EN" "http://www.w3.org/Graphics/SVG/1.1/DTD/svg11.dtd">
<!-- Generated by Microsoft Visio, SVG Export Security Baseline.svg Page-1 -->
<svg xmlns="http://www.w3.org/2000/svg" xmlns:xlink="http://www.w3.org/1999/xlink" xmlns:ev="http://www.w3.org/2001/xml-events"
		width="1.77116in" height="1.8499in" viewBox="0 0 127.524 133.193" xml:space="preserve" color-interpolation-filters="sRGB"
		class="st6">
	<style type="text/css">
	<![CDATA[
		.st1 {fill:#57a300;stroke:none;stroke-linecap:butt;stroke-width:38.25}
		.st2 {fill:#b8d432;fill-opacity:0.4;stroke:none;stroke-linecap:butt;stroke-width:38.25}
		.st3 {fill:#ffffff;stroke:none;stroke-linecap:butt;stroke-width:38.25}
		.st4 {fill:#3898c6;stroke:none;stroke-linecap:butt;stroke-width:38.25}
		.st5 {fill:#3999c6;stroke:none;stroke-linecap:butt;stroke-width:38.25}
		.st6 {fill:none;fill-rule:evenodd;font-size:12px;overflow:visible;stroke-linecap:square;stroke-miterlimit:3}
	]]>
	</style>

	<g>
		<title>Page-1</title>
		<g id="group1073-1" transform="translate(38.25,-38.25)">
			<title>Security Baseline</title>
			<g id="group1074-2">
				<title>Sheet.1074</title>
				<g id="shape1075-3" transform="translate(2.51799E-13,-10.627)">
					<title>Sheet.1075</title>
					<path d="M31.01 92.62 C20.06 91.5 18.22 87.13 18.22 87.13 C18.22 87.13 15.76 92.88 0 92.88 L0 116.47 C0 119.33
								 1.71 122 4.08 124.33 C9.45 129.63 18.22 133.19 18.22 133.19 C18.22 133.19 36.45 125.8 36.45 116.47
								 L36.45 92.88 C34.42 92.88 32.62 92.78 31.01 92.62 Z" class="st1"/>
				</g>
				<g id="shape1076-5" transform="translate(-2.51799E-13,-19.4859)">
					<title>Sheet.1076</title>
					<path d="M22.73 111.23 L31.01 101.47 C20.06 100.36 18.22 95.99 18.22 95.99 C18.22 95.99 15.76 101.74 0 101.74
								 L0 125.33 C0 128.19 1.71 130.86 4.08 133.19 L10.2 125.99 L22.73 111.23 Z" class="st2"/>
				</g>
				<g id="shape1077-7" transform="translate(21.8673,-3.37698)">
					<title>Sheet.1077</title>
					<path d="M0 108.22 L25.51 108.22 L25.51 133.02 L0.08 133.19 L0 108.22 Z" class="st3"/>
				</g>
				<g id="shape1078-9" transform="translate(25.5118,-7.08706)">
					<title>Sheet.1078</title>
					<path d="M7.29 115.48 L18.22 115.48 L18.22 119.02 L7.29 119.02 L7.29 115.48 ZM7.29 122.56 L18.22 122.56 L18.22
								 126.11 L7.29 126.11 L7.29 122.56 ZM7.29 129.65 L18.22 129.65 L18.22 133.19 L7.29 133.19 L7.29 129.65
								 ZM0 115.48 L3.64 115.48 L3.64 119.02 L0 119.02 L0 115.48 ZM0 122.56 L3.64 122.56 L3.64 126.11 L0
								 126.11 L0 122.56 ZM0 129.65 L3.64 129.65 L3.64 133.19 L0 133.19 L0 129.65 Z" class="st4"/>
				</g>
				<g id="shape1079-11" transform="translate(18.2227,0)">
					<title>Sheet.1079</title>
					<path d="M31.54 97.76 L1.26 97.76 A1.25737 1.22252 -180 0 0 0 98.98 L0 131.97 C0 132.65 0.56 133.19 1.26 133.19
								 L31.53 133.19 A1.26101 1.22606 -180 0 0 32.8 131.97 L32.8 98.98 A1.25737 1.22252 -180 0 0 31.54
								 97.76 ZM3.64 129.65 L3.64 104.84 L29.16 104.84 L29.16 129.65 L3.64 129.65 Z" class="st5"/>
				</g>
			</g>
		</g>
	</g>
</svg>
