<?xml version="1.0" encoding="UTF-8" standalone="no"?>
<!DOCTYPE svg PUBLIC "-//W3C//DTD SVG 1.1//EN" "http://www.w3.org/Graphics/SVG/1.1/DTD/svg11.dtd">
<!-- Generated by Microsoft Visio, SVG Export Bonsai.svg Page-1 -->
<svg xmlns="http://www.w3.org/2000/svg" xmlns:xlink="http://www.w3.org/1999/xlink" xmlns:ev="http://www.w3.org/2001/xml-events"
		width="0.944882in" height="1.34646in" viewBox="0 0 68.0315 96.9449" xml:space="preserve" color-interpolation-filters="sRGB"
		class="st7">
	<style type="text/css">
	<![CDATA[
		.st1 {fill:#52a646;stroke:none;stroke-linecap:butt;stroke-width:3.77778}
		.st2 {fill:#52a646}
		.st3 {stroke:none;stroke-linecap:butt;stroke-width:3.77778}
		.st4 {fill:#473a4b}
		.st5 {visibility:visible}
		.st6 {fill:#000000;font-family:Calibri;font-size:0.666664em}
		.st7 {fill:none;fill-rule:evenodd;font-size:12px;overflow:visible;stroke-linecap:square;stroke-miterlimit:3}
	]]>
	</style>

	<g>
		<title>Page-1</title>
		<g id="group5091-1" transform="translate(5.66929,-37.7008)">
			<title>Bonsai.5091</title>
			<desc>Bonsai</desc>
			<g id="group5092-2">
				<title> bonsai-logomark</title>
				<g id="group5093-3">
					<title>Sheet.5093</title>
					<g id="shape5094-4" transform="translate(8.08543,-32.8423)">
						<title>Sheet.5094</title>
						<path d="M3.74 85.66 a0.316386 0.309412 -180 0 0 0.312871 -0.309412 L4.05 83.52 a0.316386 0.309412 0 0 1
									 0.312871 -0.309412 L11.88 83.21 a0.316386 0.309412 -180 0 0 0.312871 -0.309412 L12.19 82.58
									 a0.316386 0.309412 -180 0 0 -0.312871 -0.309412 L8.42 82.27 a0.316386 0.309412 0 0 1 -0.312871
									 -0.305974 L8.11 81.05 a0.316386 0.309412 0 0 1 0.312871 -0.309412 L13.57 80.74 a0.316386 0.309412
									 0 0 1 0.312871 0.309412 L13.88 84.45 a0.316386 0.309412 0 0 1 -0.312871 0.309412 L10.12 84.76
									 a0.316386 0.309412 -180 0 0 -0.312871 0.309412 L9.8 87.82 a0.316386 0.309412 -180 0 0 0.312871
									 0.309412 L14.91 88.13 a0.316386 0.309412 0 0 1 0.312871 0.309412 L15.22 89.36 a0.316386 0.309412
									 0 0 1 -0.312871 0.309412 L7.09 89.67 a0.316386 0.309412 0 0 1 -0.312871 -0.309412 L6.78 88.44
									 a0.316386 0.309412 0 0 1 0.312871 -0.309412 L7.79 88.13 a0.316386 0.309412 -180 0 0 0.312871
									 -0.309412 L8.11 85.07 a0.316386 0.309412 -180 0 0 -0.312871 -0.309412 L6.06 84.76 a0.316386
									 0.309412 -180 0 0 -0.312871 0.309412 L5.75 86.9 a0.316386 0.309412 0 0 1 -0.312871 0.305974
									 L0.31 87.2 a0.316386 0.309412 0 0 1 -0.312871 -0.305974 L0 85.97 a0.316386 0.309412 0 0 1 0.312871
									 -0.309412 L3.74 85.66 ZM23.96 87.72 a0.316386 0.309412 -180 0 0 0.312871 0.309412 L31.45 88.03
									 a0.316386 0.309412 -180 0 0 0.312871 -0.309412 L31.76 87.4 a0.316386 0.309412 -180 0 0 -0.312871
									 -0.309412 L29.38 87.1 a0.312871 0.305974 0 0 1 -0.312871 -0.305974 L29.07 85.86 a0.316386 0.309412
									 0 0 1 0.312871 -0.309412 L33.14 85.56 a0.316386 0.309412 0 0 1 0.312871 0.309412 L33.45 89.26
									 a0.316386 0.309412 0 0 1 -0.312871 0.309412 L29.71 89.57 a0.316386 0.309412 -180 0 0 -0.312871
									 0.309412 L29.4 90.17 a0.316386 0.309412 -180 0 0 0.312871 0.309412 L35.83 90.48 a0.316386 0.309412
									 0 0 1 0.312871 0.309412 L36.15 95.12 a0.316386 0.309412 -180 0 0 0.312871 0.309412 L39.22 95.43
									 a0.316386 0.309412 0 0 1 0.312871 0.305974 L39.53 96.64 a0.316386 0.309412 0 0 1 -0.312871 0.309412
									 L34.8 96.94 a0.316386 0.309412 0 0 1 -0.312871 -0.309412 L34.49 92.32 a0.316386 0.309412 -180
									 0 0 -0.312871 -0.309412 L28.02 92.01 a0.316386 0.309412 0 0 1 -0.312871 -0.309412 L27.71 89.89
									 a0.316386 0.309412 -180 0 0 -0.312871 -0.309412 L27 89.58 a0.316386 0.309412 -180 0 0 -0.312871
									 0.309412 L26.69 91.71 a0.316386 0.309412 0 0 1 -0.312871 0.309412 L25.32 92.02 a0.316386 0.309412
									 0 0 1 -0.312871 -0.309412 L25.01 89.89 a0.316386 0.309412 -180 0 0 -0.312871 -0.309412 L22.63
									 89.58 a0.316386 0.309412 0 0 1 -0.312871 -0.309412 L22.32 87.41 a0.316386 0.309412 -180 0 0
									 -0.312871 -0.309412 L21.61 87.1 a0.316386 0.309412 -180 0 0 -0.312871 0.309412 L21.3 89.27 a0.316386
									 0.309412 0 0 1 -0.312871 0.309412 L17.89 89.58 a0.316386 0.309412 0 0 1 -0.312871 -0.309412
									 L17.58 88.34 a0.316386 0.309412 0 0 1 0.312871 -0.309412 L19.3 88.03 a0.316386 0.309412 -180
									 0 0 0.312871 -0.309412 L19.61 85.86 a0.316386 0.309412 0 0 1 0.312871 -0.309412 L23.63 85.56
									 a0.316386 0.309412 0 0 1 0.312871 0.309412 L23.96 87.72 ZM19.85 94.66 a0.316386 0.309412 -180
									 0 0 -0.312871 0.309412 L19.54 95.59 a0.312871 0.305974 0 0 1 -0.312871 0.305974 L15.43 95.89
									 a0.312871 0.305974 0 0 1 -0.312871 -0.305974 L15.12 94.66 a0.316386 0.309412 0 0 1 0.312871
									 -0.309412 L17.54 94.35 a0.316386 0.309412 -180 0 0 0.312871 -0.309412 L17.85 93.42 a0.316386
									 0.309412 0 0 1 0.312871 -0.305974 L21.26 93.12 a0.316386 0.309412 0 0 1 0.312871 0.305974 L21.57
									 94.35 a0.316386 0.309412 0 0 1 -0.312871 0.309412 L19.85 94.66 Z" class="st1"/>
					</g>
					<g id="shape5095-6" transform="translate(12.3039,-30.2055)">
						<title>Sheet.5095</title>
						<path d="M2.01 77.2 a0.316386 0.309412 -180 0 0 -0.312871 0.309412 L1.7 79.37 a0.316386 0.309412 0 0 1 -0.312871
									 0.309412 L0.31 79.68 a0.316386 0.309412 0 0 1 -0.312871 -0.309412 L0 76 a0.316386 0.309412 0
									 0 1 0.312871 -0.299098 L6.13 75.7 a0.316386 0.309412 0 0 1 0.312871 0.309412 L6.45 76.91 a0.316386
									 0.309412 0 0 1 -0.312871 0.309412 L2.01 77.2 ZM16.53 75.46 a0.316386 0.309412 -180 0 0 0.312871
									 0.309412 L18.95 75.77 a0.316386 0.309412 0 0 1 0.312871 0.309412 L19.26 76.97 a0.316386 0.309412
									 0 0 1 -0.312871 0.305974 L15.18 77.28 a0.316386 0.309412 0 0 1 -0.312871 -0.305974 L14.86 75.14
									 a0.316386 0.309412 -180 0 0 -0.312871 -0.309412 L10.1 74.83 a0.316386 0.309412 -180 0 0 -0.312871
									 0.309412 L9.78 75.46 a0.316386 0.309412 -180 0 0 0.312871 0.31285 L12.16 75.77 a0.316386 0.309412
									 0 0 1 0.312871 0.309412 L12.48 77.91 a0.316386 0.309412 -180 0 0 0.312871 0.305974 L19.59 78.21
									 a0.316386 0.309412 0 0 1 0.312871 0.309412 L19.9 81.92 a0.316386 0.309412 0 0 1 -0.312871 0.309412
									 L18.53 82.23 a0.316386 0.309412 0 0 1 -0.312871 -0.309412 L18.22 80.06 a0.316386 0.309412 -180
									 0 0 -0.312871 -0.309412 L11.09 79.75 a0.316386 0.309412 0 0 1 -0.312871 -0.309412 L10.78 77.59
									 a0.316386 0.309412 -180 0 0 -0.312871 -0.309412 L8.4 77.28 a0.312871 0.305974 0 0 1 -0.312871
									 -0.305974 L8.09 73.6 a0.316386 0.309412 0 0 1 0.312871 -0.309412 L16.21 73.29 a0.316386 0.309412
									 0 0 1 0.312871 0.309412 L16.53 75.46 ZM30.58 82.42 a0.316386 0.309412 -180 0 0 -0.312871 -0.309412
									 L23.09 82.11 a0.316386 0.309412 -180 0 0 -0.312871 0.309412 L22.77 84.26 a0.316386 0.309412
									 0 0 1 -0.312871 0.309412 L21.41 84.56 a0.316386 0.309412 0 0 1 -0.312871 -0.309412 L21.09 80.88
									 a0.316386 0.309412 0 0 1 0.312871 -0.309412 L24.86 80.57 a0.312871 0.305974 -180 0 0 0.312871
									 -0.305974 L25.17 79.94 a0.312871 0.305974 -180 0 0 -0.312871 -0.305974 L22.1 79.64 a0.316386
									 0.309412 0 0 1 -0.312871 -0.309412 L21.79 78.41 a0.312871 0.305974 0 0 1 0.312871 -0.305974
									 L26.53 78.11 a0.312871 0.305974 0 0 1 0.312871 0.305974 L26.84 80.27 a0.316386 0.309412 -180
									 0 0 0.312871 0.305974 L31.94 80.57 a0.316386 0.309412 0 0 1 0.312871 0.309412 L32.25 83.02 a0.316386
									 0.309412 0 0 1 -0.312871 0.305974 L30.89 83.32 a0.316386 0.309412 0 0 1 -0.312871 -0.305974
									 L30.58 82.42 ZM33.27 86.14 a0.316386 0.309412 -180 0 0 -0.312871 -0.309412 L30.9 85.83 a0.316386
									 0.309412 0 0 1 -0.312871 -0.309412 L30.58 84.6 a0.316386 0.309412 0 0 1 0.312871 -0.309412 L34.65
									 84.29 a0.316386 0.309412 0 0 1 0.312871 0.309412 L34.97 89.21 a0.316386 0.309412 0 0 1 -0.312871
									 0.305974 L33.6 89.52 a0.316386 0.309412 0 0 1 -0.312871 -0.305974 L33.27 86.14 ZM40.52 94.78
									 a0.316386 0.309412 -180 0 0 -0.312871 -0.309412 L38.09 94.47 a0.316386 0.309412 0 0 1 -0.312871
									 -0.309412 L37.78 92.33 a0.316386 0.309412 -180 0 0 -0.312871 -0.309412 L33.36 92.02 a0.316386
									 0.309412 0 0 1 -0.312871 -0.305974 L33.04 90.79 a0.316386 0.309412 0 0 1 0.312871 -0.309412
									 L39.18 90.48 a0.316386 0.309412 0 0 1 0.312871 0.309412 L39.5 92.65 a0.316386 0.309412 -180
									 0 0 0.312871 0.309412 L41.87 92.96 a0.316386 0.309412 0 0 1 0.312871 0.305974 L42.18 96.64 a0.316386
									 0.309412 0 0 1 -0.312871 0.309412 L40.82 96.94 a0.316386 0.309412 0 0 1 -0.312871 -0.309412
									 L40.52 94.78 Z" class="st1"/>
					</g>
					<g id="shape5096-8" transform="translate(20.3893,-20.1118)">
						<title>Sheet.5096</title>
						<path d="M29.06 87.41 a0.316386 0.309412 -180 0 0 -0.312871 0.309412 L28.75 88.95 a0.316386 0.309412 0 0
									 1 -0.312871 0.309412 L27.38 89.26 a0.316386 0.309412 0 0 1 -0.312871 -0.309412 L27.07 86.2 a0.316386
									 0.309412 0 0 1 0.312871 -0.309412 L31.17 85.89 a0.316386 0.309412 0 0 1 0.312871 0.309412 L31.48
									 87.12 a0.316386 0.309412 0 0 1 -0.312871 0.309412 L29.06 87.41 ZM6.73 71.96 a0.316386 0.309412
									 -180 0 0 -0.312871 0.309412 L6.42 74.1 a0.312871 0.305974 0 0 1 -0.312871 0.305974 L0.31 74.41
									 a0.316386 0.309412 0 0 1 -0.312871 -0.305974 L0 73.18 a0.316386 0.309412 0 0 1 0.312871 -0.309412
									 L4.43 72.87 a0.316386 0.309412 -180 0 0 0.312871 -0.309412 L4.75 72.26 a0.316386 0.309412 -180
									 0 0 -0.312871 -0.309412 L3.7 71.95 a0.316386 0.309412 0 0 1 -0.312871 -0.309412 L3.39 70.73
									 a0.316386 0.309412 0 0 1 0.312871 -0.309412 L7.46 70.42 a0.316386 0.309412 0 0 1 0.312871 0.309412
									 L7.77 71.65 a0.316386 0.309412 0 0 1 -0.312871 0.309412 L6.73 71.96 ZM22.43 89.36 a0.316386
									 0.309412 -180 0 0 -0.312871 0.309412 L22.12 91.53 a0.316386 0.309412 0 0 1 -0.312871 0.309412
									 L20.75 91.84 a0.316386 0.309412 0 0 1 -0.312871 -0.309412 L20.44 88.15 a0.316386 0.309412 0
									 0 1 0.312871 -0.309412 L24.18 87.84 a0.316386 0.309412 -180 0 0 0.312871 -0.305974 L24.49 87.22
									 a0.316386 0.309412 -180 0 0 -0.312871 -0.305974 L18.71 86.92 a0.316386 0.309412 0 0 1 -0.312871
									 -0.309412 L18.4 82.3 a0.316386 0.309412 -180 0 0 -0.312871 -0.309412 L17.71 81.99 a0.316386
									 0.309412 -180 0 0 -0.312871 0.309412 L17.4 87.54 a0.316386 0.309412 0 0 1 -0.312871 0.305974
									 L13.29 87.85 a0.316386 0.309412 0 0 1 -0.312871 -0.305974 L12.98 83.54 a0.316386 0.309412 -180
									 0 0 -0.302325 -0.302536 L10.61 83.23 a0.316386 0.309412 0 0 1 -0.312871 -0.305974 L10.3 79.83
									 a0.312871 0.305974 -180 0 0 -0.312871 -0.305974 L3.13 79.53 a0.316386 0.309412 0 0 1 -0.312871
									 -0.309412 L2.81 78.29 a0.316386 0.309412 0 0 1 0.312871 -0.309412 L11.62 77.98 a0.316386 0.309412
									 0 0 1 0.312871 0.309412 L11.93 81.38 a0.316386 0.309412 -180 0 0 0.312871 0.309412 L14.36 81.69
									 a0.316386 0.309412 0 0 1 0.312871 0.309412 L14.67 85.84 a0.316386 0.309412 -180 0 0 0.312871
									 0.305974 L15.38 86.15 a0.312871 0.305974 -180 0 0 0.312871 -0.305974 L15.7 80.76 a0.316386 0.309412
									 0 0 1 0.312871 -0.305974 L21.13 80.46 a0.312871 0.305974 0 0 1 0.312871 0.305974 L21.44 81.69
									 a0.316386 0.309412 0 0 1 -0.312871 0.309412 L20.41 82 a0.316386 0.309412 -180 0 0 -0.312871
									 0.309412 L20.1 85.06 a0.316386 0.309412 -180 0 0 0.312871 0.309412 L25.89 85.37 a0.312871 0.305974
									 0 0 1 0.312871 0.305974 L26.2 89.04 a0.316386 0.309412 0 0 1 -0.312871 0.309412 L22.43 89.36
									 ZM28.28 92.63 a0.316386 0.309412 -180 0 0 -0.312871 0.309412 L27.97 96.64 a0.316386 0.309412
									 0 0 1 -0.312871 0.309412 L26.6 96.94 a0.316386 0.309412 0 0 1 -0.312871 -0.309412 L26.29 92.95
									 a0.316386 0.309412 -180 0 0 -0.312871 -0.309412 L23.87 92.64 a0.316386 0.309412 0 0 1 -0.312871
									 -0.309412 L23.55 91.4 a0.316386 0.309412 0 0 1 0.312871 -0.309412 L30.01 91.09 a0.312871 0.305974
									 -180 0 0 0.312871 -0.305974 L30.33 88.95 a0.316386 0.309412 0 0 1 0.312871 -0.309412 L31.69
									 88.64 a0.316386 0.309412 0 0 1 0.312871 0.309412 L32.01 92.32 a0.316386 0.309412 0 0 1 -0.312871
									 0.309412 L28.28 92.63 Z" class="st1"/>
					</g>
					<g id="shape5097-10" transform="translate(2.81232,-14.6249)">
						<title>Sheet.5097</title>
						<path d="M48.78 89.57 a0.316386 0.309412 -180 0 0 -0.312871 0.309412 L48.47 90.17 a0.316386 0.309412 -180
									 0 0 0.312871 0.309412 L53.57 90.48 a0.316386 0.309412 0 0 1 0.312871 0.305974 L53.88 94.18 a0.316386
									 0.309412 0 0 1 -0.312871 0.309412 L50.47 94.49 a0.316386 0.309412 0 0 1 -0.312871 -0.309412
									 L50.16 93.26 a0.316386 0.309412 0 0 1 0.312871 -0.309412 L51.88 92.95 a0.316386 0.309412 -180
									 0 0 0.312871 -0.305974 L52.19 92.33 a0.316386 0.309412 -180 0 0 -0.312871 -0.309412 L48.79 92.02
									 a0.316386 0.309412 -180 0 0 -0.312871 0.309412 L48.47 94.18 a0.316386 0.309412 0 0 1 -0.312871
									 0.309412 L46.05 94.49 a0.312871 0.305974 -180 0 0 -0.312871 0.305974 L45.74 95.12 a0.316386
									 0.309412 -180 0 0 0.312871 0.309412 L52.2 95.43 a0.316386 0.309412 0 0 1 0.312871 0.309412 L52.51
									 96.64 a0.316386 0.309412 0 0 1 -0.312871 0.309412 L44.39 96.94 a0.316386 0.309412 0 0 1 -0.312871
									 -0.309412 L44.08 94.8 a0.316386 0.309412 -180 0 0 -0.312871 -0.305974 L41.66 94.5 a0.316386
									 0.309412 0 0 1 -0.312871 -0.309412 L41.34 92.33 a0.316386 0.309412 -180 0 0 -0.312871 -0.309412
									 L37.22 92.02 a0.316386 0.309412 0 0 1 -0.312871 -0.309412 L36.91 88.34 a0.312871 0.305974 0
									 0 1 0.312871 -0.305974 L41.37 88.03 a0.316386 0.309412 0 0 1 0.312871 0.305974 L41.69 89.26
									 a0.316386 0.309412 0 0 1 -0.312871 0.309412 L38.94 89.57 a0.316386 0.309412 -180 0 0 -0.312871
									 0.309412 L38.62 90.17 a0.316386 0.309412 -180 0 0 0.312871 0.309412 L42.73 90.48 a0.316386 0.309412
									 0 0 1 0.312871 0.305974 L43.05 92.64 C43.05 92.81 43.19 92.95 43.36 92.95 L46.45 92.95 a0.316386
									 0.309412 -180 0 0 0.312871 -0.305974 L46.77 88.34 a0.312871 0.305974 0 0 1 0.312871 -0.305974
									 L50.53 88.03 a0.316386 0.309412 -180 0 0 0.312871 -0.309412 L50.85 85.87 a0.316386 0.309412
									 0 0 1 0.312871 -0.309412 L52.21 85.56 a0.316386 0.309412 0 0 1 0.312871 0.309412 L52.53 89.26
									 a0.316386 0.309412 0 0 1 -0.312871 0.309412 L48.78 89.57 ZM1.98 71.63 a0.316386 0.309412 -180
									 0 0 -0.312871 0.309412 L1.67 72.23 a0.316386 0.309412 -180 0 0 0.312871 0.309412 L5.43 72.54
									 a0.316386 0.309412 0 0 1 0.312871 0.309412 L5.75 74.69 a0.316386 0.309412 -180 0 0 0.312871
									 0.309412 L9.15 75 a0.316386 0.309412 -180 0 0 0.312871 -0.309412 L9.47 70.4 a0.316386 0.309412
									 0 0 1 0.309356 -0.309412 L10.83 70.09 a0.312871 0.305974 0 0 1 0.312871 0.305974 L11.14 72.23
									 a0.316386 0.309412 -180 0 0 0.312871 0.309412 L16.27 72.54 a0.316386 0.309412 0 0 1 0.312871
									 0.309412 L16.58 76.24 a0.316386 0.309412 0 0 1 -0.312871 0.309412 L13.84 76.55 a0.316386 0.309412
									 0 0 1 -0.312871 -0.309412 L13.53 75.32 a0.316386 0.309412 0 0 1 0.312871 -0.309412 L14.57 75.01
									 a0.316386 0.309412 -180 0 0 0.312871 -0.309412 L14.88 74.38 a0.316386 0.309412 -180 0 0 -0.312871
									 -0.309412 L11.48 74.07 a0.316386 0.309412 -180 0 0 -0.312871 0.309412 L11.16 76.23 a0.316386
									 0.309412 0 0 1 -0.312871 0.309412 L6.06 76.54 a0.316386 0.309412 -180 0 0 -0.312871 0.309412
									 L5.75 78.08 a0.316386 0.309412 0 0 1 -0.312871 0.309412 L4.38 78.39 a0.316386 0.309412 0 0 1
									 -0.312871 -0.309412 L4.07 74.38 a0.316386 0.309412 -180 0 0 -0.312871 -0.309412 L0.31 74.07
									 a0.316386 0.309412 0 0 1 -0.312871 -0.309412 L0 70.4 a0.316386 0.309412 0 0 1 0.312871 -0.305974
									 L8.13 70.09 a0.312871 0.305974 0 0 1 0.312871 0.305974 L8.44 71.32 a0.316386 0.309412 0 0 1
									 -0.312871 0.309412 L1.98 71.63 ZM19.27 78.35 a0.316386 0.309412 -180 0 0 0.312871 0.309412 L21.65
									 78.66 a0.316386 0.309412 0 0 1 0.312871 0.309412 L21.96 79.89 a0.316386 0.309412 0 0 1 -0.312871
									 0.309412 L17.89 80.2 a0.316386 0.309412 0 0 1 -0.312871 -0.309412 L17.58 72.8 a0.316386 0.309412
									 0 0 1 0.312871 -0.309412 L18.94 72.49 a0.316386 0.309412 0 0 1 0.312871 0.309412 L19.27 78.35
									 Z" class="st1"/>
					</g>
					<g id="shape5098-12" transform="translate(2.81232,-31.4431)">
						<title>Sheet.5098</title>
						<path d="M1.99 93.26 a0.316386 0.309412 -180 0 0 -0.312871 0.309412 L1.68 96.64 a0.316386 0.309412 0 0 1
									 -0.312871 0.309412 L0.31 96.94 a0.316386 0.309412 0 0 1 -0.312871 -0.309412 L0 92.03 a0.316386
									 0.309412 0 0 1 0.312871 -0.305974 L2.71 91.72 a0.316386 0.309412 0 0 1 0.312871 0.305974 L3.02
									 92.95 a0.316386 0.309412 0 0 1 -0.312871 0.309412 L1.99 93.26 Z" class="st1"/>
					</g>
					<g id="shape5099-14" transform="translate(0,-24.1066)">
						<title>Sheet.5099</title>
						<path d="M1.69 90.17 a0.316386 0.309412 -180 0 0 0.312871 0.309412 L5.11 90.48 a0.316386 0.309412 -180 0
									 0 0.312871 -0.309412 L5.43 89.55 a0.316386 0.309412 0 0 1 0.312871 -0.309412 L10.51 89.24 a0.312871
									 0.305974 -180 0 0 0.312871 -0.305974 L10.83 87.1 a0.316386 0.309412 0 0 1 0.312871 -0.309412
									 L18.99 86.79 a0.316386 0.309412 0 0 1 0.312871 0.309412 L19.3 90.17 a0.316386 0.309412 -180
									 0 0 0.312871 0.309412 L21.72 90.48 a0.316386 0.309412 0 0 1 0.312871 0.309412 L22.03 91.71 a0.316386
									 0.309412 0 0 1 -0.312871 0.309412 L17.92 92.02 a0.316386 0.309412 0 0 1 -0.312871 -0.309412
									 L17.61 91.09 a0.316386 0.309412 -180 0 0 -0.312871 -0.309412 L15.23 90.78 a0.316386 0.309412
									 0 0 1 -0.312871 -0.305974 L14.92 89.55 a0.316386 0.309412 0 0 1 0.312871 -0.309412 L17.29 89.24
									 a0.316386 0.309412 -180 0 0 0.312871 -0.305974 L17.61 88.61 a0.316386 0.309412 -180 0 0 -0.312871
									 -0.305974 L12.85 88.31 a0.316386 0.309412 -180 0 0 -0.312871 0.305974 L12.54 92.92 a0.316386
									 0.309412 0 0 1 -0.312871 0.309412 L10.15 93.23 a0.312871 0.305974 -180 0 0 -0.312871 0.305974
									 L9.83 95.39 a0.316386 0.309412 0 0 1 -0.312871 0.309412 L4.7 95.7 a0.316386 0.309412 -180 0
									 0 -0.312871 0.309412 L4.39 96.64 a0.316386 0.309412 0 0 1 -0.312871 0.309412 L3.02 96.94 a0.316386
									 0.309412 0 0 1 -0.312871 -0.309412 L2.71 93.23 a0.316386 0.309412 0 0 1 0.312871 -0.309412 L4.07
									 92.92 a0.316386 0.309412 0 0 1 0.312871 0.309412 L4.39 93.85 a0.316386 0.309412 -180 0 0 0.312871
									 0.305974 L7.82 94.16 a0.316386 0.309412 -180 0 0 0.312871 -0.305974 L8.13 92.02 a0.316386 0.309412
									 0 0 1 0.312871 -0.309412 L10.51 91.71 a0.316386 0.309412 -180 0 0 0.312871 -0.309412 L10.83
									 91.09 a0.316386 0.309412 -180 0 0 -0.312871 -0.309412 L7.42 90.78 a0.316386 0.309412 -180 0
									 0 -0.312871 0.309412 L7.11 91.71 a0.316386 0.309412 0 0 1 -0.312871 0.309412 L0.31 92.02 a0.316386
									 0.309412 0 0 1 -0.312871 -0.309412 L0 87.1 a0.316386 0.309412 0 0 1 0.312871 -0.309412 L1.37
									 86.79 a0.316386 0.309412 0 0 1 0.312871 0.309412 L1.69 90.17 ZM32 88.16 L32 89.4 a0.316386 0.309412
									 0 0 1 -0.312871 0.305974 L27.03 89.7 a0.312871 0.305974 0 0 1 -0.312871 -0.305974 L26.72 88.16
									 L32 88.16 Z" class="st2"/>
						<path d="M1.69 90.17 a0.316386 0.309412 -180 0 0 0.312871 0.309412 L5.11 90.48 a0.316386 0.309412 -180 0
									 0 0.312871 -0.309412 L5.43 89.55 a0.316386 0.309412 0 0 1 0.312871 -0.309412 L10.51 89.24 a0.312871
									 0.305974 -180 0 0 0.312871 -0.305974 L10.83 87.1 a0.316386 0.309412 0 0 1 0.312871 -0.309412
									 L18.99 86.79 a0.316386 0.309412 0 0 1 0.312871 0.309412 L19.3 90.17 a0.316386 0.309412 -180
									 0 0 0.312871 0.309412 L21.72 90.48 a0.316386 0.309412 0 0 1 0.312871 0.309412 L22.03 91.71 a0.316386
									 0.309412 0 0 1 -0.312871 0.309412 L17.92 92.02 a0.316386 0.309412 0 0 1 -0.312871 -0.309412
									 L17.61 91.09 a0.316386 0.309412 -180 0 0 -0.312871 -0.309412 L15.23 90.78 a0.316386 0.309412
									 0 0 1 -0.312871 -0.305974 L14.92 89.55 a0.316386 0.309412 0 0 1 0.312871 -0.309412 L17.29 89.24
									 a0.316386 0.309412 -180 0 0 0.312871 -0.305974 L17.61 88.61 a0.316386 0.309412 -180 0 0 -0.312871
									 -0.305974 L12.85 88.31 a0.316386 0.309412 -180 0 0 -0.312871 0.305974 L12.54 92.92 a0.316386
									 0.309412 0 0 1 -0.312871 0.309412 L10.15 93.23 a0.312871 0.305974 -180 0 0 -0.312871 0.305974
									 L9.83 95.39 a0.316386 0.309412 0 0 1 -0.312871 0.309412 L4.7 95.7 a0.316386 0.309412 -180 0
									 0 -0.312871 0.309412 L4.39 96.64 a0.316386 0.309412 0 0 1 -0.312871 0.309412 L3.02 96.94 a0.316386
									 0.309412 0 0 1 -0.312871 -0.309412 L2.71 93.23 a0.316386 0.309412 0 0 1 0.312871 -0.309412 L4.07
									 92.92 a0.316386 0.309412 0 0 1 0.312871 0.309412 L4.39 93.85 a0.316386 0.309412 -180 0 0 0.312871
									 0.305974 L7.82 94.16 a0.316386 0.309412 -180 0 0 0.312871 -0.305974 L8.13 92.02 a0.316386 0.309412
									 0 0 1 0.312871 -0.309412 L10.51 91.71 a0.316386 0.309412 -180 0 0 0.312871 -0.309412 L10.83
									 91.09 a0.316386 0.309412 -180 0 0 -0.312871 -0.309412 L7.42 90.78 a0.316386 0.309412 -180 0
									 0 -0.312871 0.309412 L7.11 91.71 a0.316386 0.309412 0 0 1 -0.312871 0.309412 L0.31 92.02 a0.316386
									 0.309412 0 0 1 -0.312871 -0.309412 L0 87.1 a0.316386 0.309412 0 0 1 0.312871 -0.309412 L1.37
									 86.79 a0.316386 0.309412 0 0 1 0.312871 0.309412 L1.69 90.17M32 88.16 L32 89.4 a0.316386 0.309412
									 0 0 1 -0.312871 0.305974 L27.03 89.7 a0.312871 0.305974 0 0 1 -0.312871 -0.305974 L26.72 88.16"
								class="st3"/>
					</g>
					<g id="shape5100-17" transform="translate(15.826,-4.734)">
						<title>Sheet.5100</title>
						<path d="M28.84 85.66 C28.84 85.52 25.59 85.15 23.54 84.52 A18.9515 18.5338 0 0 1 20.24 83.2 C19.74 82.95
									 20.07 82.41 20.26 82.22 C20.97 81.48 22.7 80.26 22.59 80.1 C22.49 79.94 20.57 81.38 19.14 82.25
									 a0.970251 0.948863 0 0 1 -0.801512 0.0996993 C14.66 81.24 9.96 79.91 9.96 78 C9.96 76.08 12.92
									 75.7 17.13 75.76 C18.54 75.78 21.22 74.97 22.26 74.5 C22.33 74.46 22.31 74.35 22.23 74.37 C20.72
									 74.84 18.46 75.38 16.64 75.16 C13.5 74.78 12.93 74.56 11.89 74.84 C11.73 74.89 11.63 74.72 11.71
									 74.57 C12.17 73.7 13.14 72.81 15.27 72.04 C15.33 72.01 15.27 71.93 15.22 71.94 C13.32 72.25
									 11.28 72.78 10.32 73.75 a0.123039 0.120327 0 0 1 -0.200378 -0.0825098 C9.98 72.29 8.14 71.65
									 7.6 71.54 C7.55 71.54 7.49 71.58 7.54 71.61 C8.29 72.06 9.72 73.41 8.87 74.71 C6.66 78.1 2.54
									 78.75 1.78 81.72 C1.13 84.28 7.55 88.32 7.55 90.68 C7.55 94.26 0.16 96.39 0.16 96.39 a0.295294
									 0.288784 -180 0 0 0.123039 0.550065 L23.53 96.94 a0.372633 0.364418 -180 0 0 0.376148 -0.491621
									 C22.14 90.34 9.84 86.27 7.3 84.05 C6.67 83.49 6.16 82.88 6.52 82.11 C7.72 79.56 19.62 84.58
									 24.39 85.4 C25.41 85.58 28.83 85.77 28.83 85.64 L28.84 85.66 Z" class="st4"/>
						<path d="M28.84 85.66 C28.84 85.52 25.59 85.15 23.54 84.52 A18.9515 18.5338 0 0 1 20.24 83.2 C19.74 82.95
									 20.07 82.41 20.26 82.22 C20.97 81.48 22.7 80.26 22.59 80.1 C22.49 79.94 20.57 81.38 19.14 82.25
									 a0.970251 0.948863 0 0 1 -0.801512 0.0996993 C14.66 81.24 9.96 79.91 9.96 78 C9.96 76.08 12.92
									 75.7 17.13 75.76 C18.54 75.78 21.22 74.97 22.26 74.5 C22.33 74.46 22.31 74.35 22.23 74.37 C20.72
									 74.84 18.46 75.38 16.64 75.16 C13.5 74.78 12.93 74.56 11.89 74.84 C11.73 74.89 11.63 74.72 11.71
									 74.57 C12.17 73.7 13.14 72.81 15.27 72.04 C15.33 72.01 15.27 71.93 15.22 71.94 C13.32 72.25
									 11.28 72.78 10.32 73.75 a0.123039 0.120327 0 0 1 -0.200378 -0.0825098 C9.98 72.29 8.14 71.65
									 7.6 71.54 C7.55 71.54 7.49 71.58 7.54 71.61 C8.29 72.06 9.72 73.41 8.87 74.71 C6.66 78.1 2.54
									 78.75 1.78 81.72 C1.13 84.28 7.55 88.32 7.55 90.68 C7.55 94.26 0.16 96.39 0.16 96.39 a0.295294
									 0.288784 -180 0 0 0.123039 0.550065 L23.53 96.94 a0.372633 0.364418 -180 0 0 0.376148 -0.491621
									 C22.14 90.34 9.84 86.27 7.3 84.05 C6.67 83.49 6.16 82.88 6.52 82.11 C7.72 79.56 19.62 84.58
									 24.39 85.4 C25.41 85.58 28.83 85.77 28.83 85.64" class="st3"/>
					</g>
					<g id="shape5101-20" transform="translate(11.9524,1.42109E-14)">
						<title>Sheet.5101</title>
						<path d="M7.41 73.25 C6.36 72.19 3.99 70.2 3.24 69.58 a0.0499633 0.0488619 -180 1 0 -0.0773389 0.0618823
									 C3.75 70.62 4.46 71.92 4.81 72.47 a0.158193 0.154706 0 0 1 -0.144132 0.237216 C3.66 72.65 1.38
									 72.58 0.06 72.54 a0.0597619 0.0584444 -180 0 0 -8.11851E-16 0.116889 A29.6208 28.9678 0 0 1
									 6.18 74.38 a0.326933 0.319725 -180 0 0 0.323417 -0.037817 C6.78 74.14 7.07 73.94 7.38 73.74
									 a0.319902 0.31285 -180 0 0 0.0527311 -0.470993 L7.41 73.25 ZM28.13 96.94 C29.76 96.94 31.11
									 95.54 31.3 93.74 a0.421848 0.412549 -180 0 0 -0.418333 -0.46068 L1.12 93.28 a0.421848 0.412549
									 -180 0 0 -0.414818 0.457242 C0.91 95.54 2.25 96.94 3.87 96.94 L28.13 96.94 Z" class="st4"/>
						<path d="M7.41 73.25 C6.36 72.19 3.99 70.2 3.24 69.58 a0.0499633 0.0488619 -180 1 0 -0.0773389 0.0618823
									 C3.75 70.62 4.46 71.92 4.81 72.47 a0.158193 0.154706 0 0 1 -0.144132 0.237216 C3.66 72.65 1.38
									 72.58 0.06 72.54 a0.0597619 0.0584444 -180 0 0 -8.11851E-16 0.116889 A29.6208 28.9678 0 0 1
									 6.18 74.38 a0.326933 0.319725 -180 0 0 0.323417 -0.037817 C6.78 74.14 7.07 73.94 7.38 73.74
									 a0.319902 0.31285 -180 0 0 0.0527311 -0.470993M28.13 96.94 C29.76 96.94 31.11 95.54 31.3 93.74
									 a0.421848 0.412549 -180 0 0 -0.418333 -0.46068 L1.12 93.28 a0.421848 0.412549 -180 0 0 -0.414818
									 0.457242 C0.91 95.54 2.25 96.94 3.87 96.94 L28.13 96.94" class="st3"/>
					</g>
				</g>
			</g>
			<g id="shape5091-23">
				<g id="shadow5091-24" transform="matrix(1,0,0,1,1.41732,1.41732)" class="st5"/>
				<text x="17.56" y="112.22" class="st6">Bonsai</text>			</g>
		</g>
	</g>
</svg>
