<?xml version="1.0" encoding="UTF-8" standalone="no"?>
<!DOCTYPE svg PUBLIC "-//W3C//DTD SVG 1.1//EN" "http://www.w3.org/Graphics/SVG/1.1/DTD/svg11.dtd">
<!-- Generated by Microsoft Visio, SVG Export Cognitive Services Language.svg Page-1 -->
<svg xmlns="http://www.w3.org/2000/svg" xmlns:xlink="http://www.w3.org/1999/xlink" xmlns:ev="http://www.w3.org/2001/xml-events"
		width="1.49093in" height="0.92126in" viewBox="0 0 107.347 66.3307" xml:space="preserve" color-interpolation-filters="sRGB"
		class="st4">
	<style type="text/css">
	<![CDATA[
		.st1 {fill:#3176bc;stroke:#3176bc;stroke-linecap:butt;stroke-width:0.075}
		.st2 {visibility:visible}
		.st3 {fill:#000000;font-family:Calibri;font-size:0.666664em}
		.st4 {fill:none;fill-rule:evenodd;font-size:12px;overflow:visible;stroke-linecap:square;stroke-miterlimit:3}
	]]>
	</style>

	<g>
		<title>Page-1</title>
		<g id="group4906-1" transform="translate(23.9095,-25.7953)">
			<title>Cognitive Services Language.4906</title>
			<desc>Cognitive Services Language</desc>
			<g id="group4907-2">
				<title>g12</title>
				<g id="shape4908-3">
					<title>path1491-5</title>
					<path d="M4.21 66.15 C4.21 66.09 4.01 65.04 3.76 63.8 C3.51 62.57 3.25 61.11 3.17 60.56 L3.02 59.57 L5.04 58.43
								 C7.27 57.16 9.9 54.9 9.9 54.25 C9.9 53.96 9.35 53.59 8.08 53.03 C2.97 50.75 0 44.88 1.14 39.29 C2.29
								 33.71 7.36 29.48 12.91 29.5 C19.14 29.52 24.18 33.51 25.94 39.82 C26.52 41.92 26.54 46.72 25.97
								 49.03 C23.83 57.77 16.69 64.23 7.39 65.88 C5.37 66.23 4.21 66.33 4.21 66.15 L4.21 66.15 ZM10.22
								 62.16 C17.43 59.82 22.52 53.84 23.47 46.55 C24.61 37.9 18.85 31.24 11.39 32.59 C6.39 33.49 3.03
								 38.34 3.94 43.33 C4.75 47.78 7.69 50.56 12.25 51.16 C13.24 51.29 14.1 51.44 14.14 51.48 C14.35 51.67
								 13.35 54.47 12.73 55.46 C11.8 56.93 9.66 58.97 7.83 60.1 C6.51 60.92 6.34 61.11 6.34 61.79 C6.34
								 62.21 6.41 62.63 6.5 62.72 C6.82 63.04 8.06 62.86 10.22 62.16 ZM34.36 66.15 C34.36 66.09 34.16 65.04
								 33.91 63.8 C33.67 62.57 33.4 61.11 33.32 60.56 L33.17 59.57 L35.19 58.43 C37.42 57.16 40.06 54.9
								 40.06 54.25 C40.06 53.96 39.5 53.59 38.24 53.03 C33.12 50.75 30.15 44.88 31.29 39.29 C32.43 33.73
								 37.54 29.48 43.06 29.5 C49.29 29.52 54.33 33.51 56.09 39.82 C56.68 41.92 56.69 46.72 56.12 49.03
								 C53.98 57.77 46.84 64.23 37.54 65.88 C35.52 66.23 34.36 66.33 34.36 66.15 L34.36 66.15 ZM40.37 62.16
								 C47.59 59.82 52.67 53.84 53.62 46.55 C54.76 37.9 49 31.24 41.54 32.59 C36.54 33.49 33.18 38.34 34.09
								 43.33 C34.9 47.78 37.84 50.56 42.4 51.16 C43.39 51.29 44.25 51.44 44.29 51.48 C44.5 51.67 43.51
								 54.47 42.88 55.46 C41.95 56.93 39.81 58.97 37.98 60.1 C36.66 60.92 36.49 61.11 36.49 61.79 C36.49
								 62.21 36.57 62.63 36.65 62.72 C36.97 63.04 38.21 62.86 40.37 62.16 Z" class="st1"/>
				</g>
			</g>
			<g id="shape4906-5">
				<g id="shadow4906-6" transform="matrix(1,0,0,1,1.41732,1.41732)" class="st2"/>
				<text x="-17.33" y="79.06" class="st3">Cognitive Services Language</text>			</g>
		</g>
	</g>
</svg>
