<?xml version="1.0" encoding="UTF-8" standalone="no"?>
<!DOCTYPE svg PUBLIC "-//W3C//DTD SVG 1.1//EN" "http://www.w3.org/Graphics/SVG/1.1/DTD/svg11.dtd">
<!-- Generated by Microsoft Visio, SVG Export Cognitive Services Ink Recogniser.svg Page-1 -->
<svg xmlns="http://www.w3.org/2000/svg" xmlns:xlink="http://www.w3.org/1999/xlink" xmlns:ev="http://www.w3.org/2001/xml-events"
		width="1.71798in" height="1.47222in" viewBox="0 0 123.694 106" xml:space="preserve" color-interpolation-filters="sRGB"
		class="st4">
	<style type="text/css">
	<![CDATA[
		.st1 {fill:#0078d4;stroke:none;stroke-linecap:butt;stroke-width:10.0328}
		.st2 {visibility:visible}
		.st3 {fill:#000000;font-family:Calibri;font-size:0.666664em}
		.st4 {fill:none;fill-rule:evenodd;font-size:12px;overflow:visible;stroke-linecap:square;stroke-miterlimit:3}
	]]>
	</style>

	<g>
		<title>Page-1</title>
		<g id="group4935-1" transform="translate(32.0834,-39.685)">
			<title>Cognitive Services Ink Recogniser.4935</title>
			<desc>Cognitive Services Ink Recogniser</desc>
			<g id="shape4936-2" transform="translate(16.6226,0)">
				<title>Sheet.4936</title>
				<path d="M31.21 51.48 L28.21 50.03 C26.74 49.31 24.97 49.89 24.19 51.31 L23.07 53.4 C22.27 53.1 21.35 53.44 20.96
							 54.22 L18.94 58.17 L16.82 57.12 C15.25 56.34 13.32 56.96 12.55 58.51 L5.79 71.85 C5.37 72.66 5.7 73.66
							 6.52 74.07 C7.36 74.51 8.4 74.18 8.83 73.35 L15.53 60.33 L17.37 61.25 L1.2 93.03 L1.18 98.04 C1.18 98.94
							 1.46 99.75 1.93 100.43 L0.43 103.26 C0 104.1 0.34 105.14 1.2 105.57 C2.05 106 3.09 105.66 3.52 104.82
							 L4.86 102.23 C5.68 102.34 6.54 102.23 7.36 101.82 L12.69 99.19 L32.54 59.94 C32.96 59.11 32.64 58.13
							 31.82 57.7 L32.73 55.8 C33.51 54.19 32.82 52.26 31.21 51.48 ZM10.08 96.57 L5.82 98.76 C5.31 99.02 4.69
							 98.65 4.69 98.08 L4.66 93.93 L23.24 57.33 L28.66 60.01 L10.08 96.57 ZM28.68 56.14 L26.21 54.93 L27.03
							 53.3 L29.52 54.53 L28.68 56.14 Z" class="st1"/>
			</g>
			<g id="shape4937-4" transform="translate(41.7712,-21.267)">
				<title>Sheet.4937</title>
				<path d="M7.93 92.08 C7 92.09 6.24 92.86 6.24 93.78 C6.24 94.71 7.02 95.48 7.97 95.48 C8.01 95.48 8.07 95.48 8.12
							 95.46 C10 95.59 11.49 97.12 11.49 99 C11.49 100.95 9.89 102.54 7.92 102.55 L1.77 102.55 L0 106 L7.92
							 106 C11.79 105.98 14.92 102.83 14.92 99 C14.92 95.17 11.8 92.09 7.93 92.08 Z" class="st1"/>
			</g>
			<g id="shape4938-6" transform="translate(2.79776E-13,-0.288502)">
				<title>Sheet.4938</title>
				<path d="M13.73 102.54 L12.47 102.54 C7.56 102.54 3.57 98.62 3.57 93.76 C3.57 88.92 7.56 84.99 12.47 84.99 L16.91
							 84.99 L18.71 81.56 L12.39 81.56 C5.54 81.56 0 87.03 0 93.78 C0 100.53 5.54 106 12.39 106 L13.73 106
							 C13.48 105.48 13.35 104.9 13.35 104.27 C13.34 103.66 13.48 103.07 13.73 102.54 Z" class="st1"/>
			</g>
			<g id="shape4935-8">
				<g id="shadow4935-9" transform="matrix(1,0,0,1,1.41732,1.41732)" class="st2"/>
				<text x="-25.5" y="121.7" class="st3">Cognitive Services Ink Recogniser</text>			</g>
		</g>
	</g>
</svg>
