<?xml version="1.0" encoding="UTF-8" standalone="no"?>
<!DOCTYPE svg PUBLIC "-//W3C//DTD SVG 1.1//EN" "http://www.w3.org/Graphics/SVG/1.1/DTD/svg11.dtd">
<!-- Generated by Microsoft Visio, SVG Export Cognitive Services Content Extraction.svg Page-1 -->
<svg xmlns="http://www.w3.org/2000/svg" xmlns:xlink="http://www.w3.org/1999/xlink" xmlns:ev="http://www.w3.org/2001/xml-events"
		width="1.45056in" height="1.51205in" viewBox="0 0 104.44 108.868" xml:space="preserve" color-interpolation-filters="sRGB"
		class="st6">
	<style type="text/css">
	<![CDATA[
		.st1 {fill:#50e6ff;stroke:none;stroke-linecap:butt;stroke-width:12.4898}
		.st2 {fill:#0078d4;stroke:none;stroke-linecap:butt;stroke-width:12.4898}
		.st3 {visibility:visible}
		.st4 {fill:#000000;font-family:Calibri;font-size:0.666664em}
		.st5 {font-size:1em}
		.st6 {fill:none;fill-rule:evenodd;font-size:12px;overflow:visible;stroke-linecap:square;stroke-miterlimit:3}
	]]>
	</style>

	<g>
		<title>Page-1</title>
		<g id="group5037-1" transform="translate(24.3868,-39.685)">
			<title>Cognitive Services Content Extraction.5037</title>
			<desc>Cognitive Services Content Extraction</desc>
			<g id="shape5038-2" transform="translate(20.7792,-10.4292)">
				<title>Sheet.5038</title>
				<path d="M30.22 79.28 L0 79.28 L0 108.87 L30.22 108.87 L30.22 79.28 Z" class="st1"/>
			</g>
			<g id="shape5039-4" transform="translate(20.7225,-9.99613)">
				<title>Sheet.5039</title>
				<path d="M0.02 98.68 L0.02 108.87 L30.27 108.87 L30.27 102.63 L30.27 102.7 L25.47 97.98 L20.69 102.7 L8.05 90.61
							 L0 98.51 L0.02 98.68 Z" class="st2"/>
			</g>
			<g id="shape5040-6" transform="translate(39.1207,-28.7741)">
				<title>Sheet.5040</title>
				<path d="M7.87 105.01 C7.87 107.15 6.11 108.87 3.93 108.87 C1.76 108.87 0 107.13 0 105.01 C0 102.88 1.73 101.12 3.9
							 101.12 C6.08 101.12 7.87 102.86 7.87 105.01 Z" class="st2"/>
			</g>
			<g id="shape5041-8" transform="translate(0.0224644,-42.583)">
				<title>Sheet.5041</title>
				<path d="M17 94.76 L0 94.76 L0 106.32 L2.62 106.32 L2.62 108.87 L5.24 106.32 L17 106.32 L17 94.76 Z" class="st2"/>
			</g>
			<g id="shape5042-10" transform="translate(0,-0.0227933)">
				<title>Sheet.5042</title>
				<path d="M16.99 88.95 L0 88.95 L0 108.87 L16.99 108.87 L16.99 88.95 Z" class="st1"/>
			</g>
			<g id="shape5043-12" transform="translate(20.7337,-5.68434E-14)">
				<title>Sheet.5043</title>
				<path d="M30.29 102.2 L0 102.2 L0 108.87 L30.29 108.87 L30.29 102.2 Z" class="st2"/>
			</g>
			<g id="shape5044-14" transform="translate(20.7792,-51.7506)">
				<title>Sheet.5044</title>
				<path d="M30.23 103.98 L0 103.98 L0 108.87 L30.23 108.87 L30.23 103.98 Z" class="st2"/>
			</g>
			<g id="shape5045-16" transform="translate(0.0792388,-35.9187)">
				<title>Sheet.5045</title>
				<path d="M16.94 104.79 L0 104.79 L0 108.87 L16.94 108.87 L16.94 104.79 Z" class="st2"/>
			</g>
			<g id="shape5046-18" transform="translate(0.0792388,-30.4639)">
				<title>Sheet.5046</title>
				<path d="M16.94 104.79 L0 104.79 L0 108.87 L16.94 108.87 L16.94 104.79 Z" class="st2"/>
			</g>
			<g id="shape5047-20" transform="translate(0.0792388,-25.0093)">
				<title>Sheet.5047</title>
				<path d="M16.94 104.79 L0 104.79 L0 108.87 L16.94 108.87 L16.94 104.79 Z" class="st1"/>
			</g>
			<g id="shape5048-22" transform="translate(20.7792,-45.1413)">
				<title>Sheet.5048</title>
				<path d="M30.23 103.98 L0 103.98 L0 108.87 L30.23 108.87 L30.23 103.98 Z" class="st2"/>
			</g>
			<g id="shape5037-24">
				<g id="shadow5037-25" transform="matrix(1,0,0,1,1.41732,1.41732)" class="st3"/>
				<text x="-17.8" y="124.57" class="st4">Cognitive Services Content <tspan x="9.02" dy="1.2em" class="st5">Extraction</tspan></text>			</g>
		</g>
	</g>
</svg>
