<?xml version="1.0" encoding="UTF-8" standalone="no"?>
<!DOCTYPE svg PUBLIC "-//W3C//DTD SVG 1.1//EN" "http://www.w3.org/Graphics/SVG/1.1/DTD/svg11.dtd">
<!-- Generated by Microsoft Visio, SVG Export Cognitive Services Bot.svg Page-1 -->
<svg xmlns="http://www.w3.org/2000/svg" xmlns:xlink="http://www.w3.org/1999/xlink" xmlns:ev="http://www.w3.org/2001/xml-events"
		width="1.21738in" height="1.41732in" viewBox="0 0 87.6514 102.047" xml:space="preserve" color-interpolation-filters="sRGB"
		class="st7">
	<style type="text/css">
	<![CDATA[
		.st1 {fill:none}
		.st2 {stroke:#50e6ff;stroke-linecap:butt;stroke-width:0.75}
		.st3 {fill:#50e6ff;stroke:none;stroke-linecap:butt;stroke-width:0.75}
		.st4 {fill:#0078d4;stroke:none;stroke-linecap:butt;stroke-width:0.75}
		.st5 {visibility:visible}
		.st6 {fill:#000000;font-family:Calibri;font-size:0.666664em}
		.st7 {fill:none;fill-rule:evenodd;font-size:12px;overflow:visible;stroke-linecap:square;stroke-miterlimit:3}
	]]>
	</style>

	<g>
		<title>Page-1</title>
		<g id="group4931-1" transform="translate(14.0619,-39.685)">
			<title>Cognitive Services Bot.4931</title>
			<desc>Cognitive Services Bot</desc>
			<g id="shape4932-2" transform="translate(2.66959,-2.65748)">
				<title>Sheet.4932</title>
				<path d="M0 50.67 L51.37 102.05 L0 50.67 Z" class="st1"/>
				<path d="M0 50.67 L51.37 102.05" class="st2"/>
			</g>
			<g id="shape4933-5" transform="translate(2.65748,-2.65748)">
				<title>Sheet.4933</title>
				<path d="M0 102.05 L51.38 50.67 L0 102.05 Z" class="st1"/>
				<path d="M0 102.05 L51.38 50.67" class="st2"/>
			</g>
			<g id="shape4934-8" transform="translate(2.65748,-28.3597)">
				<title>Sheet.4934</title>
				<path d="M0 102.05 L51.38 102.05 L0 102.05 Z" class="st1"/>
				<path d="M0 102.05 L51.38 102.05" class="st2"/>
			</g>
			<g id="shape4935-11" transform="translate(28.3414,-2.6576)">
				<title>Sheet.4935</title>
				<path d="M0 50.61 L0 102.05 L0 50.61 Z" class="st1"/>
				<path d="M0 50.61 L0 102.05" class="st2"/>
			</g>
			<g id="shape4936-14" transform="translate(2.65748,-2.65748)">
				<title>Sheet.4936</title>
				<path d="M0 102.05 L51.38 76.35 L0 102.05 Z" class="st1"/>
				<path d="M0 102.05 L51.38 76.35" class="st2"/>
			</g>
			<g id="shape4937-17" transform="translate(2.65748,-2.65748)">
				<title>Sheet.4937</title>
				<path d="M51.38 102.05 L0 76.35 L51.38 102.05 Z" class="st1"/>
				<path d="M51.38 102.05 L0 76.35" class="st2"/>
			</g>
			<g id="shape4938-20" transform="translate(2.66959,-28.3597)">
				<title>Sheet.4938</title>
				<path d="M0 76.37 L51.37 102.05 L0 76.37 Z" class="st1"/>
				<path d="M0 76.37 L51.37 102.05" class="st2"/>
			</g>
			<g id="shape4939-23" transform="translate(2.65748,-28.3597)">
				<title>Sheet.4939</title>
				<path d="M51.38 76.37 L0 102.05 L51.38 76.37 Z" class="st1"/>
				<path d="M51.38 76.37 L0 102.05" class="st2"/>
			</g>
			<g id="shape4940-26" transform="translate(28.3465,-28.3597)">
				<title>Sheet.4940</title>
				<path d="M0 76.37 L25.69 102.05 L0 76.37 Z" class="st1"/>
				<path d="M0 76.37 L25.69 102.05" class="st2"/>
			</g>
			<g id="shape4941-29" transform="translate(2.65748,-28.3599)">
				<title>Sheet.4941</title>
				<path d="M25.68 76.31 L0 102.05 L25.68 76.31 Z" class="st1"/>
				<path d="M25.68 76.31 L0 102.05" class="st2"/>
			</g>
			<g id="shape4942-32" transform="translate(28.3465,-2.65748)">
				<title>Sheet.4942</title>
				<path d="M0 102.05 L25.69 76.35 L0 102.05 Z" class="st1"/>
				<path d="M0 102.05 L25.69 76.35" class="st2"/>
			</g>
			<g id="shape4943-35" transform="translate(2.54675,-2.6576)">
				<title>Sheet.4943</title>
				<path d="M25.8 102.05 L0 76.3 L25.8 102.05 Z" class="st1"/>
				<path d="M25.8 102.05 L0 76.3" class="st2"/>
			</g>
			<g id="shape4944-38" transform="translate(0,-51.378)">
				<title>Sheet.4944</title>
				<path d="M5.31 99.39 C5.31 100.86 4.12 102.05 2.66 102.05 C1.19 102.05 0 100.86 0 99.39 C0 97.92 1.19 96.73 2.66
							 96.73 C4.12 96.73 5.31 97.92 5.31 99.39 Z" class="st3"/>
			</g>
			<g id="shape4945-40" transform="translate(0,-25.7022)">
				<title>Sheet.4945</title>
				<path d="M5.31 99.39 C5.31 100.86 4.12 102.05 2.66 102.05 C1.19 102.05 0 100.86 0 99.39 C0 97.92 1.19 96.73 2.66
							 96.73 C4.12 96.73 5.31 97.92 5.31 99.39 Z" class="st4"/>
			</g>
			<g id="shape4946-42">
				<title>Sheet.4946</title>
				<path d="M5.31 99.39 C5.31 100.86 4.12 102.05 2.66 102.05 C1.19 102.05 0 100.86 0 99.39 C0 97.92 1.19 96.73 2.66
							 96.73 C4.12 96.73 5.31 97.92 5.31 99.39 Z" class="st4"/>
			</g>
			<g id="shape4947-44" transform="translate(25.689,-51.378)">
				<title>Sheet.4947</title>
				<path d="M5.31 99.39 C5.31 100.86 4.12 102.05 2.66 102.05 C1.19 102.05 0 100.86 0 99.39 C0 97.92 1.19 96.73 2.66
							 96.73 C4.12 96.73 5.31 97.92 5.31 99.39 Z" class="st4"/>
			</g>
			<g id="shape4948-46" transform="translate(25.689,-25.689)">
				<title>Sheet.4948</title>
				<path d="M5.31 99.39 C5.31 100.86 4.12 102.05 2.66 102.05 C1.19 102.05 0 100.86 0 99.39 C0 97.92 1.19 96.73 2.66
							 96.73 C4.12 96.73 5.31 97.92 5.31 99.39 Z" class="st3"/>
			</g>
			<g id="shape4949-48" transform="translate(25.689,1.42109E-14)">
				<title>Sheet.4949</title>
				<path d="M5.31 99.39 C5.31 100.86 4.12 102.05 2.66 102.05 C1.19 102.05 0 100.86 0 99.39 C0 97.92 1.19 96.73 2.66
							 96.73 C4.12 96.73 5.31 97.92 5.31 99.39 Z" class="st4"/>
			</g>
			<g id="shape4950-50" transform="translate(51.378,-51.378)">
				<title>Sheet.4950</title>
				<path d="M5.31 99.39 C5.31 100.86 4.12 102.05 2.66 102.05 C1.19 102.05 0 100.86 0 99.39 C0 97.92 1.19 96.73 2.66
							 96.73 C4.12 96.73 5.31 97.92 5.31 99.39 Z" class="st4"/>
			</g>
			<g id="shape4951-52" transform="translate(51.378,-25.7022)">
				<title>Sheet.4951</title>
				<path d="M5.31 99.39 C5.31 100.86 4.12 102.05 2.66 102.05 C1.19 102.05 0 100.86 0 99.39 C0 97.92 1.19 96.73 2.66
							 96.73 C4.12 96.73 5.31 97.92 5.31 99.39 Z" class="st4"/>
			</g>
			<g id="shape4952-54" transform="translate(51.378,1.42109E-14)">
				<title>Sheet.4952</title>
				<path d="M5.31 99.39 C5.31 100.86 4.12 102.05 2.66 102.05 C1.19 102.05 0 100.86 0 99.39 C0 97.92 1.19 96.73 2.66
							 96.73 C4.12 96.73 5.31 97.92 5.31 99.39 Z" class="st3"/>
			</g>
			<g id="shape4931-56">
				<g id="shadow4931-57" transform="matrix(1,0,0,1,1.41732,1.41732)" class="st5"/>
				<text x="-7.48" y="117.75" class="st6">Cognitive Services Bot</text>			</g>
		</g>
	</g>
</svg>
