<?xml version="1.0" encoding="UTF-8" standalone="no"?>
<!DOCTYPE svg PUBLIC "-//W3C//DTD SVG 1.1//EN" "http://www.w3.org/Graphics/SVG/1.1/DTD/svg11.dtd">
<!-- Generated by Microsoft Visio, SVG Export Machine Learning Studio Workspace (classic).svg Page-1 -->
<svg xmlns="http://www.w3.org/2000/svg" xmlns:xlink="http://www.w3.org/1999/xlink" xmlns:ev="http://www.w3.org/2001/xml-events"
		width="1.73185in" height="1.8108in" viewBox="0 0 124.693 130.378" xml:space="preserve" color-interpolation-filters="sRGB"
		class="st8">
	<style type="text/css">
	<![CDATA[
		.st1 {fill:#c9c9c9;stroke:none;stroke-linecap:butt;stroke-width:34}
		.st2 {fill:#a0a1a2;stroke:none;stroke-linecap:butt;stroke-width:34}
		.st3 {fill:#59b4d9;stroke:none;stroke-linecap:butt;stroke-width:34}
		.st4 {fill:#d5ecf6;stroke:none;stroke-linecap:butt;stroke-width:34}
		.st5 {visibility:visible}
		.st6 {fill:#000000;font-family:Calibri;font-size:0.666664em}
		.st7 {font-size:1em}
		.st8 {fill:none;fill-rule:evenodd;font-size:12px;overflow:visible;stroke-linecap:square;stroke-miterlimit:3}
	]]>
	</style>

	<g>
		<title>Page-1</title>
		<g id="group4699-1" transform="translate(34,-39.685)">
			<title>Machine Learning Studio Workspace (classic).4699</title>
			<desc>Machine Learning Studio Workspace (classic)</desc>
			<g id="group4700-2">
				<title>Sheet.4700</title>
				<g id="shape4701-3" transform="translate(10.2362,-18.8976)">
					<title>Sheet.4701</title>
					<path d="M0 98.88 L0.94 98.88 L0.94 130.38 L0 130.38 L0 98.88 ZM36.22 98.88 L37.17 98.88 L37.17 130.38 L36.22
								 130.38 L36.22 98.88 ZM18.11 98.88 L19.06 98.88 L19.06 105.18 L18.11 105.18 L18.11 98.88 ZM27.18
								 98.88 L28.13 98.88 L28.13 105.18 L27.18 105.18 L27.18 98.88 ZM9.07 98.88 L10.02 98.88 L10.02 105.18
								 L9.07 105.18 L9.07 98.88 Z" class="st1"/>
				</g>
				<g id="shape4702-5" transform="translate(0,-15.748)">
					<title>Sheet.4702</title>
					<path d="M0 89.43 L0 130.38 L10.11 130.38 L11.72 127.23 L3.15 127.23 L3.15 95.73 L53.54 95.73 L53.54 127.23 L43.18
								 127.23 L44.76 130.38 L56.69 130.38 L56.69 89.43 L0 89.43 Z" class="st2"/>
				</g>
				<g id="shape4703-7" transform="translate(8.75591,0)">
					<title>Sheet.4703</title>
					<path d="M28.13 95.54 A2.45669 2.45669 -180 0 0 31.28 93.24 L31.28 91.8 A2.70866 2.70866 -180 0 0 28.35 89.69
								 L10.14 89.69 A2.61417 2.61417 -180 0 0 6.99 91.8 L6.99 93.4 A2.4252 2.4252 -180 0 0 10.14 95.54
								 L10.14 105.18 L0 124.71 L3.84 130.38 L33.76 130.38 L37.7 124.71 L28.13 105.18 L28.13 95.54 Z"
							class="st3"/>
				</g>
				<g id="shape4704-9" transform="translate(14.5512,-5.73228)">
					<title>Sheet.4704</title>
					<path d="M23.24 122.91 L10.68 122.91 L6.14 130.38 L0 130.38 L10.77 111.13 L10.77 101.31 L17.01 101.31 L17.01
								 111.13 L23.24 122.91 Z" class="st4"/>
				</g>
				<g id="shape4705-11" transform="translate(3.14961,-25.1685)">
					<title>Sheet.4705</title>
					<path d="M0 111.48 L50.39 111.48 L50.39 112.43 L0 112.43 L0 111.48 ZM10.58 121.4 L0 121.4 L0 120.46 L9.67 120.46
								 L10.58 121.4 ZM50.39 121.4 L38.61 121.4 L39.62 120.46 L50.39 120.46 L50.39 121.4 ZM0 129.43 L12.6
								 129.42 L12.6 130.37 L0 130.38 L0 129.43 ZM36.93 130.34 L36.93 129.4 L50.38 129.41 L50.38 130.36
								 L36.93 130.34 Z" class="st1"/>
				</g>
			</g>
			<g id="shape4699-13">
				<g id="shadow4699-14" transform="matrix(1,0,0,1,1.41732,1.41732)" class="st5"/>
				<text x="-11.99" y="146.08" class="st6">Machine Learning Studio <tspan x="-3.39" dy="1.2em" class="st7">Workspace (classic)</tspan></text>			</g>
		</g>
	</g>
</svg>
