<?xml version="1.0" encoding="UTF-8" standalone="no"?>
<!DOCTYPE svg PUBLIC "-//W3C//DTD SVG 1.1//EN" "http://www.w3.org/Graphics/SVG/1.1/DTD/svg11.dtd">
<!-- Generated by Microsoft Visio, SVG Export Custom Control.svg Page-1 -->
<svg xmlns="http://www.w3.org/2000/svg" xmlns:xlink="http://www.w3.org/1999/xlink" xmlns:ev="http://www.w3.org/2001/xml-events"
		width="1.73185in" height="1.73206in" viewBox="0 0 124.693 124.709" xml:space="preserve" color-interpolation-filters="sRGB"
		class="st4">
	<style type="text/css">
	<![CDATA[
		.st1 {fill:url(#grad0-6);stroke:none;stroke-linecap:butt;stroke-width:34}
		.st2 {fill:#773adc;stroke:none;stroke-linecap:butt;stroke-width:34}
		.st3 {fill:#b3b3b3;stroke:none;stroke-linecap:butt;stroke-width:34}
		.st4 {fill:none;fill-rule:evenodd;font-size:12px;overflow:visible;stroke-linecap:square;stroke-miterlimit:3}
	]]>
	</style>

	<defs id="Patterns_And_Gradients">
		<linearGradient id="grad0-6" x1="0" y1="0" x2="1" y2="0" gradientTransform="rotate(-90 0.5 0.5)">
			<stop offset="0" stop-color="#32bedd" stop-opacity="1"/>
			<stop offset="0.175" stop-color="#32caea" stop-opacity="1"/>
			<stop offset="0.41" stop-color="#32d2f2" stop-opacity="1"/>
			<stop offset="0.775" stop-color="#32d4f5" stop-opacity="1"/>
		</linearGradient>
	</defs>
	<g>
		<title>Page-1</title>
		<g id="group7978-1" transform="translate(34,-34.0157)">
			<title>Custom Control.7978</title>
			<g id="group7979-2">
				<title>MsPortalFx.base.images-21</title>
				<g id="shape7980-3" transform="translate(12.6092,-11.9096)">
					<title>Sheet.7980</title>
					<path d="M0 123.68 A1.01049 1.02988 -180 0 0 1.01 124.71 L24.75 124.71 A1.01049 1.02988 -180 0 0 25.77 123.68
								 L25.77 99.48 A1.01049 1.02988 -180 0 0 24.75 98.45 L1.01 98.45 A1.01049 1.02988 -180 0 0 0 99.48
								 L0 123.68 Z" class="st1"/>
				</g>
				<g id="shape7981-7" transform="translate(29.3269,-28.513)">
					<title>Sheet.7981</title>
					<path d="M25.35 96.53 L1 96.53 A1.00046 1.01966 -180 0 0 0 97.55 L0 102.06 A1.00046 1.01966 -180 0 0 1 103.08
								 L18.91 103.08 A2.0176 2.05631 0 0 1 20.93 105.14 L20.93 123.69 A1.00046 1.01966 -180 0 0 21.93 124.71
								 L26.37 124.71 A1.00046 1.01966 -180 0 0 27.37 123.69 L27.37 98.59 A2.02094 2.05971 -180 0 0 25.35
								 96.53 Z" class="st2"/>
				</g>
				<g id="shape7982-9">
					<title>Sheet.7982</title>
					<path d="M46.13 100.52 L46.13 116.85 A1.84085 1.87617 0 0 1 44.29 118.73 L7.7 118.73 A1.84085 1.87617 0 0 1 5.86
								 116.85 L5.86 81.65 A1.84085 1.87617 0 0 1 7.7 79.78 L26.05 79.78 A1.00046 1.01966 -180 0 0 27.05
								 78.76 L27.05 74.83 A1.00046 1.01966 -180 0 0 26.05 73.81 L1.84 73.81 A1.84085 1.87617 -180 0 0 0
								 75.68 L0 122.83 A1.84085 1.87617 -180 0 0 1.84 124.71 L50.15 124.71 A1.84419 1.87957 -180 0 0 52
								 122.83 L52 100.52 A1.00046 1.01966 -180 0 0 51 99.5 L47.14 99.5 A1.00046 1.01966 -180 0 0 46.13
								 100.52 Z" class="st3"/>
				</g>
			</g>
		</g>
	</g>
</svg>
