<?xml version="1.0" encoding="UTF-8" standalone="no"?>
<!DOCTYPE svg PUBLIC "-//W3C//DTD SVG 1.1//EN" "http://www.w3.org/Graphics/SVG/1.1/DTD/svg11.dtd">
<!-- Generated by Microsoft Visio, SVG Export Azure v2.svg Page-1 -->
<svg xmlns="http://www.w3.org/2000/svg" xmlns:xlink="http://www.w3.org/1999/xlink" xmlns:ev="http://www.w3.org/2001/xml-events"
		width="0.944882in" height="1.29528in" viewBox="0 0 68.0315 93.2598" xml:space="preserve" color-interpolation-filters="sRGB"
		class="st4">
	<style type="text/css">
	<![CDATA[
		.st1 {fill:url(#grad0-8);stroke:none;stroke-linecap:butt;stroke-width:0.75}
		.st2 {fill:url(#grad0-13);stroke:none;stroke-linecap:butt;stroke-width:0.75}
		.st3 {fill:url(#grad0-18);stroke:none;stroke-linecap:butt;stroke-width:0.75}
		.st4 {fill:none;fill-rule:evenodd;font-size:12px;overflow:visible;stroke-linecap:square;stroke-miterlimit:3}
	]]>
	</style>

	<defs id="Patterns_And_Gradients">
		<linearGradient id="grad0-8" x1="0" y1="0" x2="1" y2="0" gradientTransform="rotate(160 0.5 0.5)">
			<stop offset="0" stop-color="#0c3f76" stop-opacity="1"/>
			<stop offset="0.99" stop-color="#0667ba" stop-opacity="1"/>
		</linearGradient>
		<linearGradient id="grad0-13" x1="0" y1="0" x2="1" y2="0" gradientTransform="rotate(160 0.5 0.5)">
			<stop offset="0" stop-color="#000000" stop-opacity="1"/>
			<stop offset="0.33" stop-color="#0266b0" stop-opacity="1"/>
			<stop offset="0.99" stop-color="#0078d4" stop-opacity="1"/>
		</linearGradient>
		<linearGradient id="grad0-18" x1="0" y1="0" x2="1" y2="0" gradientTransform="rotate(90 0.5 0.5)">
			<stop offset="0" stop-color="#3ac5ef" stop-opacity="1"/>
			<stop offset="1" stop-color="#2994e0" stop-opacity="1"/>
		</linearGradient>
	</defs>
	<g>
		<title>Page-1</title>
		<g id="group8134-1" transform="translate(5.66929,-34.0157)">
			<title>Azure v2.8134</title>
			<g id="group8135-2">
				<title>Page-1</title>
				<g id="group8136-3">
					<title>g841</title>
					<g id="group8137-4" transform="translate(0,-0.309169)">
						<title>path910</title>
						<g id="shape8138-5">
							<title>Sheet.8138</title>
							<path d="M0.85 88.93 L16.77 42.59 C17.87 39.71 20.92 39.82 21.86 42.5 L28.54 62.1 L19.34 89.3 C18.4 91.92
										 18.5 93.17 15.12 93.26 L2.77 93.26 C0.71 93.22 0 91.4 0.85 88.93 Z" class="st1"/>
						</g>
					</g>
					<g id="group8139-9" transform="translate(16.7033,-0.0278181)">
						<title>path922</title>
						<g id="shape8140-10">
							<title>Sheet.8140</title>
							<path d="M17.22 74.75 L3.17 74.7 C0 74.57 0.62 76.73 1.96 77.88 L16.59 91.55 L17.54 92.41 C18.41 93.22
										 19.06 93.23 19.06 93.23 C20.29 93.25 20.76 93.23 20.76 93.23 C22.42 93.26 23.11 91.83 22.44
										 89.76 L17.22 74.75 Z" class="st2"/>
						</g>
					</g>
					<g id="group8141-14" transform="translate(19.1599,2.70006E-13)">
						<title>path920-4</title>
						<g id="shape8142-15">
							<title>Sheet.8142</title>
							<path d="M0 40.15 C0 40.15 15.68 40.09 17.23 40.1 C20.19 40.01 20.49 40.85 21.86 44.82 L36.69 88.72 C37.07
										 90.17 37.53 91.61 36.81 92.4 C36.08 93.22 34.3 93.13 32.5 93.14 C32.5 93.14 19.7 93.22 15.94
										 93.21 C15.94 93.21 17.63 93.26 18.36 92.88 C20.17 91.98 19.26 90.82 18.8 89.27 L2.93 43.3
										 C1.97 39.96 0 40.15 0 40.15 Z" class="st3"/>
						</g>
					</g>
				</g>
			</g>
		</g>
	</g>
</svg>
