<?xml version="1.0" encoding="UTF-8" standalone="no"?>
<!DOCTYPE svg PUBLIC "-//W3C//DTD SVG 1.1//EN" "http://www.w3.org/Graphics/SVG/1.1/DTD/svg11.dtd">
<!-- Generated by Microsoft Visio, SVG Export Free Services.svg Page-1 -->
<svg xmlns="http://www.w3.org/2000/svg" xmlns:xlink="http://www.w3.org/1999/xlink" xmlns:ev="http://www.w3.org/2001/xml-events"
		width="0.944882in" height="1.25502in" viewBox="0 0 68.0315 90.3611" xml:space="preserve" color-interpolation-filters="sRGB"
		class="st10">
	<style type="text/css">
	<![CDATA[
		.st1 {fill:#7a7a7a;stroke:none;stroke-linecap:butt;stroke-width:5.32174}
		.st2 {fill:#a0a1a2;stroke:none;stroke-linecap:butt;stroke-width:5.32174}
		.st3 {fill:#ffffff;fill-opacity:0.2;stroke:none;stroke-linecap:butt;stroke-width:5.32174}
		.st4 {fill:#59b4d9;stroke:none;stroke-linecap:butt;stroke-width:5.32174}
		.st5 {fill:#b8d432;stroke:none;stroke-linecap:butt;stroke-width:5.32174}
		.st6 {fill:#ffffff;stroke:none;stroke-linecap:butt;stroke-width:5.32174}
		.st7 {fill:#ffffff;fill-opacity:0.7;stroke:none;stroke-linecap:butt;stroke-width:5.32174}
		.st8 {fill:#ffffff;fill-opacity:0.4;stroke:none;stroke-linecap:butt;stroke-width:5.32174}
		.st9 {fill:#ba141a;stroke:none;stroke-linecap:butt;stroke-width:5.32174}
		.st10 {fill:none;fill-rule:evenodd;font-size:12px;overflow:visible;stroke-linecap:square;stroke-miterlimit:3}
	]]>
	</style>

	<g>
		<title>Page-1</title>
		<g id="group8086-1" transform="translate(5.66929,-34.0157)">
			<title>Free Services.8086</title>
			<g id="group8087-2">
				<title>g26</title>
				<g id="shape8088-3" transform="translate(9.87348,2.55795E-13)">
					<title>path4</title>
					<path d="M26.91 79.74 L10.35 79.74 C12.21 86.11 10.88 87.05 0 87.05 L0 90.36 L37.05 90.36 L37.05 87.05 C26.12
								 87.05 25.06 86.11 26.91 79.74 Z" class="st1"/>
				</g>
				<g id="shape8089-5" transform="translate(0,-10.6191)">
					<title>path6</title>
					<path d="M53.24 49.96 L3.08 49.96 C1.38 49.96 0 51.46 0 53.12 L0 87.25 C0 88.91 1.38 90.36 3.08 90.36 L53.24
								 90.36 C54.94 90.36 56.64 88.91 56.64 87.25 L56.64 53.12 C56.69 51.46 54.94 49.96 53.24 49.96 Z"
							class="st2"/>
				</g>
				<g id="shape8090-7" transform="translate(0,-10.6191)">
					<title>path8</title>
					<path d="M53.3 49.96 L3.08 49.96 C1.38 49.96 0 51.46 0 53.12 L0 87.25 C0 88.91 1.38 90.36 3.08 90.36 L4.25 90.36
								 L53.3 49.96 Z" class="st3"/>
				</g>
				<g id="shape8091-9" transform="translate(4.29974,-14.8668)">
					<title>path10</title>
					<rect x="0" y="58.4519" width="47.9873" height="31.9092" class="st4"/>
				</g>
				<g id="shape8092-11" transform="translate(4.29974,-14.8668)">
					<title>path12</title>
					<path d="M0 90.36 L0.11 90.36 L0.11 58.45 L43.9 58.4 L0 58.45 L0 90.36 Z" class="st4"/>
				</g>
				<g id="shape8093-13" transform="translate(9.8204,0)">
					<title>path14</title>
					<rect x="0" y="87.0459" width="37.0521" height="3.31524" class="st2"/>
				</g>
				<g id="shape8094-15" transform="translate(27.3379,-47.9156)">
					<title>path16</title>
					<path d="M1.59 89.58 C1.59 90 1.22 90.36 0.8 90.36 C0.37 90.36 0 90 0 89.58 C0 89.17 0.37 88.81 0.8 88.81 C1.22
								 88.81 1.59 89.17 1.59 89.58 Z" class="st5"/>
				</g>
				<g id="shape8095-17" transform="translate(21.0741,-25.7449)">
					<title>path18</title>
					<path d="M7.33 90.36 C7.27 90.36 7.27 90.36 7.22 90.31 L0.11 86.32 C0.05 86.27 0 86.22 0 86.11 C0 86.06 0.05
								 85.96 0.11 85.96 L7.17 81.97 C7.22 81.92 7.33 81.92 7.38 81.97 L14.49 85.96 C14.54 86.01 14.6 86.06
								 14.6 86.11 C14.6 86.17 14.54 86.27 14.49 86.27 L7.43 90.26 L7.33 90.36 Z" class="st6"/>
				</g>
				<g id="shape8096-19" transform="translate(20.0655,-16.0582)">
					<title>path20</title>
					<path d="M7.27 90.36 C7.22 90.36 7.22 90.36 7.17 90.31 L0.11 86.32 C0.05 86.27 0 86.22 0 86.11 L0 78.19 C0 78.14
								 0.05 78.03 0.11 77.98 C0.16 77.93 0.27 77.93 0.32 77.98 L7.38 81.97 C7.43 82.02 7.48 82.07 7.48
								 82.18 L7.48 90.15 C7.48 90.21 7.43 90.31 7.38 90.36 L7.27 90.36 Z" class="st7"/>
				</g>
				<g id="shape8097-21" transform="translate(29.1427,-16.0582)">
					<title>path22</title>
					<path d="M0.21 90.36 C0.16 90.36 0.16 90.36 0.11 90.31 C0.05 90.26 0 90.21 0 90.1 L0 82.23 C0 82.18 0.05 82.07
								 0.11 82.02 L7.17 78.03 C7.22 77.98 7.33 77.98 7.38 78.03 C7.43 78.08 7.48 78.14 7.48 78.19 L7.48
								 86.11 C7.48 86.17 7.43 86.27 7.38 86.32 L0.32 90.31 C0.32 90.36 0.27 90.36 0.21 90.36 Z"
							class="st8"/>
				</g>
				<g id="shape8098-23" transform="translate(14.4917,-29.63)">
					<title>path24</title>
					<path d="M4.57 73.63 C14.23 80.26 13.96 88.96 13.96 88.96 C13.96 88.96 11.31 80.67 0 77.26 L6.05 77.41 L4.57
								 73.63 ZM21.5 77.83 C13.85 82.23 13.38 89.17 13.38 89.17 C13.38 89.17 15.98 82.69 24.68 80.83 L20.12
								 80.62 L21.5 77.83 ZM13.91 88.08 C13.8 87.93 11.63 84.71 7.86 83.21 C5.41 82.28 3.56 81.97 2.28 82.44
								 C1.59 82.69 1.11 83.11 0.85 83.73 C0.42 84.77 0.48 86.79 5.52 88.76 C9.29 90.26 13.16 89.38 13.32
								 89.33 L14.44 88.91 L13.91 88.08 ZM7.22 84.77 C9.24 85.54 10.78 86.94 11.63 87.93 C10.3 88.03 8.23
								 88.03 6.21 87.2 C3.29 86.06 2.23 84.87 2.44 84.3 C2.49 84.2 2.55 84.04 2.87 83.99 C3.24 83.83 4.46
								 83.68 7.22 84.77 ZM14.33 89.17 C14.49 89.22 18.26 90.36 22.19 89.22 C24.68 88.44 26.33 87.51 27.02
								 86.42 C27.39 85.8 27.5 85.18 27.28 84.56 C26.97 83.47 25.59 81.97 20.38 83.52 C16.51 84.71 14.01
								 87.77 13.91 87.87 L13.22 88.76 L14.33 89.17 ZM21.71 87.62 C19.64 88.24 17.57 88.08 16.24 87.87 C17.2
								 86.99 18.84 85.7 20.91 85.08 C23.94 84.15 25.48 84.4 25.69 85.03 C25.75 85.13 25.75 85.28 25.59
								 85.54 C25.37 85.85 24.58 86.74 21.71 87.62 Z" class="st9"/>
				</g>
			</g>
		</g>
	</g>
</svg>
