<?xml version="1.0" encoding="UTF-8" standalone="no"?>
<!-- Generated by Microsoft Visio, SVG Export Maintenance Configuration.svg Page-1 -->

<svg
   xmlns:dc="http://purl.org/dc/elements/1.1/"
   xmlns:cc="http://creativecommons.org/ns#"
   xmlns:rdf="http://www.w3.org/1999/02/22-rdf-syntax-ns#"
   xmlns:svg="http://www.w3.org/2000/svg"
   xmlns="http://www.w3.org/2000/svg"
   xmlns:sodipodi="http://sodipodi.sourceforge.net/DTD/sodipodi-0.dtd"
   xmlns:inkscape="http://www.inkscape.org/namespaces/inkscape"
   width="0.7899648in"
   height="0.76191777in"
   viewBox="0 0 56.877463 54.857869"
   xml:space="preserve"
   class="st6"
   version="1.1"
   id="svg59"
   sodipodi:docname="Maintenance Configuration.svg"
   style="font-size:12px;overflow:visible;color-interpolation-filters:sRGB;fill:none;fill-rule:evenodd;stroke-linecap:square;stroke-miterlimit:3"
   inkscape:version="0.92.5 (2060ec1f9f, 2020-04-08)"><metadata
   id="metadata63"><rdf:RDF><cc:Work
       rdf:about=""><dc:format>image/svg+xml</dc:format><dc:type
         rdf:resource="http://purl.org/dc/dcmitype/StillImage" /></cc:Work></rdf:RDF></metadata><sodipodi:namedview
   pagecolor="#ffffff"
   bordercolor="#666666"
   borderopacity="1"
   objecttolerance="10"
   gridtolerance="10"
   guidetolerance="10"
   inkscape:pageopacity="0"
   inkscape:pageshadow="2"
   inkscape:window-width="640"
   inkscape:window-height="480"
   id="namedview61"
   showgrid="false"
   inkscape:zoom="1.8979166"
   inkscape:cx="37.795281"
   inkscape:cy="18.152096"
   inkscape:window-x="0"
   inkscape:window-y="0"
   inkscape:window-maximized="0"
   inkscape:current-layer="svg59" />
	<style
   type="text/css"
   id="style2">
	<![CDATA[
		.st1 {fill:url(#grad1-5);stroke:none;stroke-linecap:butt;stroke-width:2.67628}
		.st2 {fill:#ffffff;stroke:none;stroke-linecap:butt;stroke-width:2.67628}
		.st3 {fill:#7a7a7a;stroke:none;stroke-linecap:butt;stroke-width:2.67628}
		.st4 {fill:url(#grad1-13);stroke:none;stroke-linecap:butt;stroke-width:2.67628}
		.st5 {fill:#949494;stroke:none;stroke-linecap:butt;stroke-width:2.67628}
		.st6 {fill:none;fill-rule:evenodd;font-size:12px;overflow:visible;stroke-linecap:square;stroke-miterlimit:3}
	]]>
	</style>

	<defs
   id="Patterns_And_Gradients">
		<radialGradient
   id="grad1-5"
   cx="45.52151"
   cy="92.560154"
   r="63.730113"
   gradientTransform="scale(0.99249784,1.0075589)"
   fx="45.52151"
   fy="92.560154"
   gradientUnits="userSpaceOnUse">
			<stop
   offset="0.185"
   stop-color="#5ea0ef"
   stop-opacity="1"
   id="stop4" />
			<stop
   offset="0.555"
   stop-color="#5c9fee"
   stop-opacity="1"
   id="stop6" />
			<stop
   offset="0.69"
   stop-color="#559ced"
   stop-opacity="1"
   id="stop8" />
			<stop
   offset="0.785"
   stop-color="#4a97e9"
   stop-opacity="1"
   id="stop10" />
			<stop
   offset="0.86"
   stop-color="#3990e4"
   stop-opacity="1"
   id="stop12" />
			<stop
   offset="0.93"
   stop-color="#2387de"
   stop-opacity="1"
   id="stop14" />
			<stop
   offset="0.985"
   stop-color="#087bd6"
   stop-opacity="1"
   id="stop16" />
			<stop
   offset="1"
   stop-color="#0078d4"
   stop-opacity="1"
   id="stop18" />
		</radialGradient>
		<radialGradient
   id="grad1-13"
   cx="6.4494271"
   cy="92.560208"
   r="9.0291978"
   gradientTransform="scale(0.99249747,1.0075592)"
   fx="6.4494271"
   fy="92.560208"
   gradientUnits="userSpaceOnUse">
			<stop
   offset="0"
   stop-color="#7f7f7f"
   stop-opacity="1"
   id="stop21" />
			<stop
   offset="1"
   stop-color="#5e5e5e"
   stop-opacity="1"
   id="stop23" />
		</radialGradient>
	</defs>
	<g
   id="g57"
   transform="translate(-5.66929,-5.3860699)">
		<title
   id="title27">Page-1</title>
		<g
   id="group19261-1"
   transform="translate(5.66929,-34.0157)">
			<title
   id="title29">Maintenance Configuration.19261</title>
			<g
   id="shape19262-2"
   transform="translate(0,-7.99261)">
				<title
   id="title31">circle2</title>
				<ellipse
   cx="22.59"
   cy="70.327003"
   rx="22.59"
   ry="22.9328"
   class="st1"
   id="ellipse33"
   style="fill:url(#grad1-5);stroke:none;stroke-width:2.67628002;stroke-linecap:butt" />
			</g>
			<g
   id="shape19263-6"
   transform="translate(3.01094,-10.9579)">
				<title
   id="title36">circle4</title>
				<ellipse
   cx="19.6691"
   cy="73.292297"
   rx="19.6691"
   ry="19.967501"
   class="st2"
   id="ellipse38"
   style="fill:#ffffff;stroke:none;stroke-width:2.67628002;stroke-linecap:butt" />
			</g>
			<g
   id="shape19264-8"
   transform="translate(5.76802,-14.0504)">
				<title
   id="title41">path6</title>
				<path
   d="m 16.37,89.83 h 1.08 v 3.43 H 16.37 Z M 4.48,64.55 5.25,63.77 7.63,66.19 6.86,66.97 Z M 4.64,88.04 7.03,85.62 7.8,86.4 5.41,88.82 Z M 0,75.81 h 3.37 v 1.1 H 0 Z m 25.06,6.7 -5.74,-5.8 a 1.38175,1.40272 -180 0 0 -0.94,-0.4 1.3207,1.34074 -180 0 0 0.18,-0.66 V 60.89 a 1.38497,1.40598 -180 0 0 -1.38,-1.4 h -0.27 a 1.38497,1.40598 -180 0 0 -1.38,1.4 v 14.78 a 1.38497,1.40598 -180 0 0 1.38,1.4 h 0.16 a 1.37211,1.39293 -180 0 0 0.11,1.81 l 5.72,5.8 a 1.38818,1.40924 -180 0 0 1.95,0 l 0.19,-0.19 a 1.38818,1.40924 -180 0 0 0,-1.98 z"
   class="st3"
   id="path43"
   inkscape:connector-curvature="0"
   style="fill:#7a7a7a;stroke:none;stroke-width:2.67628002;stroke-linecap:butt" />
			</g>
			<g
   id="shape19265-10"
   transform="translate(19.4923,-27.7122)">
				<title
   id="title46">circle8</title>
				<ellipse
   cx="3.20052"
   cy="90.010803"
   rx="3.20052"
   ry="3.24909"
   class="st4"
   id="ellipse48"
   style="fill:url(#grad1-13);stroke:none;stroke-width:2.67628002;stroke-linecap:butt" />
			</g>
			<g
   id="shape19266-14"
   transform="translate(20.5399)">
				<title
   id="title51">path10</title>
				<path
   d="M 7.43,91.61 25.22,70.98 a 9.31879,9.4602 -180 0 0 8.88,-2.85 8.6472,8.77841 -180 0 0 1.79,-8.68 l -4.71,5.36 -5.03,-0.94 -1.67,-4.85 4.71,-5.29 a 9.20954,9.34929 -180 0 0 -8.5,2.89 8.50581,8.63488 -180 0 0 -1.73,8.65 L 0,87.27 a 4.20631,4.27014 -180 0 0 6.33,5.62 z"
   class="st5"
   id="path53"
   inkscape:connector-curvature="0"
   style="fill:#949494;stroke:none;stroke-width:2.67628002;stroke-linecap:butt" />
			</g>
		</g>
	</g>
</svg>