<?xml version="1.0" encoding="UTF-8" standalone="no"?>
<!DOCTYPE svg PUBLIC "-//W3C//DTD SVG 1.1//EN" "http://www.w3.org/Graphics/SVG/1.1/DTD/svg11.dtd">
<!-- Generated by Microsoft Visio, SVG Export Property.svg Page-1 -->
<svg xmlns="http://www.w3.org/2000/svg" xmlns:xlink="http://www.w3.org/1999/xlink" xmlns:ev="http://www.w3.org/2001/xml-events"
		width="1.00929in" height="1.42984in" viewBox="0 0 72.669 102.949" xml:space="preserve" color-interpolation-filters="sRGB"
		class="st7">
	<style type="text/css">
	<![CDATA[
		.st1 {fill:#e5e5e5;stroke:none;stroke-linecap:butt;stroke-width:12.24}
		.st2 {fill:#59b4d9;stroke:none;stroke-linecap:butt;stroke-width:12.24}
		.st3 {fill:#ffffff;fill-opacity:0.6;stroke:none;stroke-linecap:butt;stroke-width:12.24}
		.st4 {fill:#7a7a7a;stroke:none;stroke-linecap:butt;stroke-width:12.24}
		.st5 {fill:#ffffff;fill-opacity:0.7;stroke:none;stroke-linecap:butt;stroke-width:12.24}
		.st6 {fill:#1e1e1e;fill-opacity:0.2;stroke:none;stroke-linecap:butt;stroke-width:12.24}
		.st7 {fill:none;fill-rule:evenodd;font-size:12px;overflow:visible;stroke-linecap:square;stroke-miterlimit:3}
	]]>
	</style>

	<g>
		<title>Page-1</title>
		<g id="group8020-1" transform="translate(12.24,-34.0157)">
			<title>Property.8020</title>
			<g id="group8021-2">
				<title>g36</title>
				<g id="shape8022-3">
					<title>path4</title>
					<rect x="0" y="46.2557" width="11.4762" height="56.6929" class="st1"/>
				</g>
				<g id="shape8023-5" transform="translate(2.29455,-2.26772)">
					<title>path6</title>
					<rect x="0" y="50.7912" width="6.81596" height="52.1575" class="st2"/>
				</g>
				<g id="shape8024-7" transform="translate(2.29455,-2.26772)">
					<title>path8</title>
					<rect x="0" y="71.2006" width="6.88709" height="31.748" class="st3"/>
				</g>
				<g id="shape8025-9" transform="translate(2.40807E-13,-31.748)">
					<title>path10</title>
					<rect x="0" y="98.4132" width="11.4716" height="4.53543" class="st4"/>
				</g>
				<g id="shape8026-11" transform="translate(0.00114727,-34.0157)">
					<title>path12</title>
					<path d="M0 100.68 L11.47 100.68 L11.47 102.95 L0 102.95 L0 100.68 Z" class="st5"/>
				</g>
				<g id="shape8027-13" transform="translate(18.3564,0)">
					<title>path14</title>
					<rect x="0" y="46.2557" width="11.4762" height="56.6929" class="st1"/>
				</g>
				<g id="shape8028-15" transform="translate(20.6509,-2.26772)">
					<title>path16</title>
					<rect x="0" y="50.7912" width="6.81596" height="52.1575" class="st2"/>
				</g>
				<g id="shape8029-17" transform="translate(20.6567,-2.26772)">
					<title>path18</title>
					<rect x="0" y="89.3424" width="6.88709" height="13.6063" class="st3"/>
				</g>
				<g id="shape8030-19" transform="translate(18.3564,-13.6063)">
					<title>path20</title>
					<rect x="0" y="98.4132" width="11.4716" height="4.53543" class="st4"/>
				</g>
				<g id="shape8031-21" transform="translate(18.3575,-15.874)">
					<title>path22</title>
					<rect x="0" y="100.681" width="11.4727" height="2.26772" class="st5"/>
				</g>
				<g id="shape8032-23" transform="translate(36.7128,0)">
					<title>path24</title>
					<rect x="0" y="46.2557" width="11.4762" height="56.6929" class="st1"/>
				</g>
				<g id="shape8033-25" transform="translate(39.0073,-2.26772)">
					<title>path26</title>
					<rect x="0" y="50.7912" width="6.81596" height="52.1575" class="st2"/>
				</g>
				<g id="shape8034-27" transform="translate(39.0073,-2.26772)">
					<title>path28</title>
					<rect x="0" y="71.2006" width="6.88709" height="31.748" class="st3"/>
				</g>
				<g id="shape8035-29" transform="translate(36.7128,-31.748)">
					<title>path30</title>
					<rect x="0" y="98.4132" width="11.4716" height="4.53543" class="st4"/>
				</g>
				<g id="shape8036-31" transform="translate(36.7139,-34.0157)">
					<title>path32</title>
					<rect x="0" y="100.681" width="11.4727" height="2.26772" class="st5"/>
				</g>
				<g id="shape8037-33" transform="translate(0.00114727,-11.3386)">
					<title>path34</title>
					<path d="M0 82.54 L11.47 82.54 L11.47 84.81 L0 84.81 L0 82.54 ZM36.68 82.54 L48.15 82.54 L48.15 84.81 L36.68
								 84.81 L36.68 82.54 ZM18.36 100.68 L29.84 100.68 L29.84 102.95 L18.36 102.95 L18.36 100.68 Z"
							class="st6"/>
				</g>
			</g>
		</g>
	</g>
</svg>
