<?xml version="1.0" encoding="UTF-8" standalone="no"?>
<!DOCTYPE svg PUBLIC "-//W3C//DTD SVG 1.1//EN" "http://www.w3.org/Graphics/SVG/1.1/DTD/svg11.dtd">
<!-- Generated by Microsoft Visio, SVG Export Blockchain Streaming.svg Page-1 -->
<svg xmlns="http://www.w3.org/2000/svg" xmlns:xlink="http://www.w3.org/1999/xlink" xmlns:ev="http://www.w3.org/2001/xml-events"
		width="1.19226in" height="1.13386in" viewBox="0 0 85.8425 81.6378" xml:space="preserve" color-interpolation-filters="sRGB"
		class="st9">
	<style type="text/css">
	<![CDATA[
		.st1 {fill:#773adc;stroke:none;stroke-linecap:butt;stroke-width:0.75}
		.st2 {fill:#b796f9;stroke:none;stroke-linecap:butt;stroke-width:0.75}
		.st3 {fill:#a67af4;stroke:none;stroke-linecap:butt;stroke-width:0.75}
		.st4 {fill:#552f99;stroke:none;stroke-linecap:butt;stroke-width:0.75}
		.st5 {fill:#50e6ff;stroke:none;stroke-linecap:butt;stroke-width:0.75}
		.st6 {fill:#32bedd;stroke:none;stroke-linecap:butt;stroke-width:0.75}
		.st7 {visibility:visible}
		.st8 {fill:#000000;font-family:Calibri;font-size:0.666664em}
		.st9 {fill:none;fill-rule:evenodd;font-size:12px;overflow:visible;stroke-linecap:square;stroke-miterlimit:3}
	]]>
	</style>

	<g>
		<title>Page-1</title>
		<g id="group5813-1" transform="translate(13.1575,-31.748)">
			<title>Blockchain Streaming.5813</title>
			<desc>Blockchain Streaming</desc>
			<g id="shape5814-2" transform="translate(26.7185,-8.06007)">
				<title>Sheet.5814</title>
				<path d="M16.85 53.68 L16.85 72.27 L0 81.64 L0 62.99 L16.85 53.68 Z" class="st1"/>
			</g>
			<g id="shape5815-4" transform="translate(9.83188,-26.677)">
				<title>Sheet.5815</title>
				<path d="M33.74 72.3 L16.89 81.64 L0 72.3 L16.89 62.96 L33.74 72.3 Z" class="st2"/>
			</g>
			<g id="shape5816-6" transform="translate(9.83188,-8.06007)">
				<title>Sheet.5816</title>
				<path d="M16.89 63.02 L16.89 81.64 L0 72.27 L0 53.68 L16.89 63.02 Z" class="st3"/>
			</g>
			<g id="shape5817-8" transform="translate(31.2194,-16.6734)">
				<title>Sheet.5817</title>
				<path d="M3.99 71.69 C6.22 70.49 8.01 71.45 8.01 73.87 A8.84231 8.37156 0 0 1 4.02 80.43 C1.79 81.64 0 80.67 0 78.25
							 A8.84231 8.37156 0 0 1 3.99 71.69 Z" class="st4"/>
			</g>
			<g id="shape5818-10" transform="translate(34.3477,-20.149)">
				<title>Sheet.5818</title>
				<path d="M12.07 81.64 L2.01 81.64 A2.01107 1.904 0 0 1 2.01 77.83 L12.07 77.83 A6.57587 6.22578 -180 0 0 18.45 71.39
							 A6.57587 6.22578 -180 0 0 12.07 64.92 A2.01107 1.904 0 0 1 12.07 61.12 A10.5661 10.0036 0 0 1 22.35
							 71.39 A10.5661 10.0036 0 0 1 12.07 81.64 Z" class="st5"/>
			</g>
			<g id="shape5819-12">
				<title>Sheet.5819</title>
				<path d="M37.73 73.7 L29.97 66.35 a0.414982 0.392889 -180 0 0 -0.638434 -2.84217E-14 L29.34 72.01 L10.18 72.01 A6.57587
							 6.22578 0 0 1 3.8 65.54 A6.60779 6.25601 0 0 1 9.83 59.16 L9.83 55.35 A10.6299 10.064 -180 0 0 0 65.6
							 A10.598 10.0338 -180 0 0 10.28 75.87 L29.43 75.87 L29.43 81.5 a0.414982 0.392889 -180 0 0 0.638434 7.10543E-14
							 L37.73 74.09 a0.351139 0.332445 -180 0 0 -9.23706E-14 -0.392889 Z" class="st6"/>
			</g>
			<g id="shape5813-14">
				<g id="shadow5813-15" transform="matrix(1,0,0,1,1.41732,1.41732)" class="st7"/>
				<text x="-6.57" y="95.64" class="st8">Blockchain Streaming</text>			</g>
		</g>
	</g>
</svg>
