<?xml version="1.0" encoding="UTF-8" standalone="no"?>
<!DOCTYPE svg PUBLIC "-//W3C//DTD SVG 1.1//EN" "http://www.w3.org/Graphics/SVG/1.1/DTD/svg11.dtd">
<!-- Generated by Microsoft Visio, SVG Export Cloud Simple Virtual Machine.svg Page-1 -->
<svg xmlns="http://www.w3.org/2000/svg" xmlns:xlink="http://www.w3.org/1999/xlink" xmlns:ev="http://www.w3.org/2001/xml-events"
		width="1.55646in" height="0.992126in" viewBox="0 0 112.065 71.4331" xml:space="preserve" color-interpolation-filters="sRGB"
		class="st5">
	<style type="text/css">
	<![CDATA[
		.st1 {fill:#83bc41;stroke:none;stroke-linecap:butt;stroke-width:1.09899}
		.st2 {fill:#496487;stroke:none;stroke-linecap:butt;stroke-width:1.09899}
		.st3 {visibility:visible}
		.st4 {fill:#000000;font-family:Calibri;font-size:0.666664em}
		.st5 {fill:none;fill-rule:evenodd;font-size:12px;overflow:visible;stroke-linecap:square;stroke-miterlimit:3}
	]]>
	</style>

	<g>
		<title>Page-1</title>
		<g id="group5894-1" transform="translate(26.2688,-27.7795)">
			<title>Cloud Simple Virtual Machine.5894</title>
			<desc>Cloud Simple Virtual Machine</desc>
			<g id="shape5895-2" transform="translate(0,-0.0289961)">
				<title>path7</title>
				<path d="M31.5 67.69 A17.4316 18.8493 0 0 1 29.46 68.92 A22.7952 24.6491 0 0 1 26.7 70.13 A24.9406 26.969 0 0 1 23.17
							 71.06 A25.9329 28.042 0 0 1 18.71 71.43 A21.9504 23.7356 0 0 1 11.45 70.16 A17.0427 18.4288 0 0 1 5.51
							 66.39 A16.493 17.8343 0 0 1 1.49 60.22 A19.2686 20.8357 0 0 1 -0 51.77 A20.2341 21.8797 0 0 1 1.45 43.25
							 A16.3723 17.7039 0 0 1 5.47 36.97 A17.083 18.4723 0 0 1 11.52 33.11 A22.7952 24.6491 0 0 1 19.01 31.81
							 A25.9329 28.042 0 0 1 24.78 32.4 A15.0582 16.2829 0 0 1 28.65 33.85 A9.74828 10.5411 0 0 1 29.73 34.62
							 A3.7545 4.05985 0 0 1 31.22 39.71 A2.38679 2.58091 0 0 1 30.83 40.43 C29.49 42.3 26.71 41.22 25.13 40.43
							 A14.0123 15.1519 -180 0 0 19.32 39.27 A13.5698 14.6735 -180 0 0 14.94 40.01 A9.38624 10.1496 -180 0
							 0 11.41 42.29 A10.0567 10.8746 -180 0 0 9.06 46.1 A13.1676 14.2385 -180 0 0 8.21 51.53 A13.4089 14.4995
							 -180 0 0 9.1 57.14 A9.38624 10.1496 -180 0 0 11.6 60.95 A10.1908 11.0196 -180 0 0 15.27 63.15 A14.7498
							 15.9494 -180 0 0 19.76 63.84 A13.9185 15.0504 -180 0 0 25.33 62.82 A25.0613 27.0995 -180 0 0 28.2 61.28
							 L31.5 67.69 Z" class="st1"/>
			</g>
			<g id="shape5896-4" transform="translate(23.2108,0)">
				<title>path9</title>
				<path d="M3 61.01 A10.5796 11.4401 -180 0 0 4.73 61.98 A30.9478 33.4648 -180 0 0 7.8 63.21 A31.7389 34.3202 -180
							 0 0 11.99 64.3 A29.3521 31.7393 -180 0 0 17.11 64.75 A15.6884 16.9644 -180 0 0 22.98 63.73 A3.27178
							 3.53787 -180 0 0 25.26 60.25 A3.35223 3.62487 -180 0 0 23.81 57.08 A12.068 13.0495 -180 0 0 18.62 55.54
							 L13.26 54.86 A25.3026 27.3605 0 0 1 8.21 53.77 A13.0067 14.0645 0 0 1 4.18 51.64 A8.79625 9.51165 0
							 0 1 1.6 48.31 A9.56056 10.3381 0 0 1 0.67 43.57 A10.3115 11.1501 0 0 1 1.53 39.04 A9.38624 10.1496 0
							 0 1 4.21 35.27 A13.5564 14.659 0 0 1 9.09 32.69 A26.7106 28.8829 0 0 1 16.39 31.75 A31.1087 33.6388
							 0 0 1 27.56 33.46 A11.116 12.0201 0 0 1 29.86 34.82 A3.24496 3.50887 0 0 1 31.2 39.53 C30.01 41.96 27.49
							 40.81 27.26 40.68 A16.6807 18.0373 -180 0 0 25.44 39.81 A25.3294 27.3895 -180 0 0 16.52 38.2 C11.16
							 38.2 8.47 39.72 8.47 42.77 A3.01701 3.26238 -180 0 0 9.99 45.67 A10.9685 11.8606 -180 0 0 14.35 47.03
							 L21.39 48.03 A18.7725 20.2993 0 0 1 30.3 51.45 A8.20626 8.87367 0 0 1 33.48 59.09 A9.88237 10.6861 0
							 0 1 29.37 68.07 C26.62 70.31 22.67 71.43 17.51 71.43 A38.0277 41.1205 0 0 1 10.69 70.82 A41.1117 44.4554
							 0 0 1 5.4 69.46 A26.2949 28.4335 0 0 1 1.8 67.91 A10.9551 11.8461 0 0 1 -0 66.79 L3 61.01 Z"
						class="st2"/>
			</g>
			<g id="shape5897-6" transform="translate(23.1706,-2.02993)">
				<title>path11</title>
				<path d="M4.77 63.99 L4.24 63.75 C3.55 64.14 2.9 64.5 2.13 64.84 L0.94 66.85 L0 68.82 A8.30012 8.97517 -180 0 0 1.73
							 69.98 A8.82307 9.54065 -180 0 0 5.24 71.43 L6.26 70.94 A17.4316 18.8493 -180 0 0 8.3 69.71 L5.52 64.36
							 L4.77 63.99 Z" class="st1"/>
			</g>
			<g id="shape5894-8">
				<g id="shadow5894-9" transform="matrix(1,0,0,1,1.41732,1.41732)" class="st3"/>
				<text x="-19.69" y="84.59" class="st4">Cloud Simple Virtual Machine</text>			</g>
		</g>
	</g>
</svg>
