<?xml version="1.0" encoding="UTF-8" standalone="no"?>
<!DOCTYPE svg PUBLIC "-//W3C//DTD SVG 1.1//EN" "http://www.w3.org/Graphics/SVG/1.1/DTD/svg11.dtd">
<!-- Generated by Microsoft Visio, SVG Export Container Instance.svg Page-1 -->
<svg xmlns="http://www.w3.org/2000/svg" xmlns:xlink="http://www.w3.org/1999/xlink" xmlns:ev="http://www.w3.org/2001/xml-events"
		width="1.64755in" height="1.78845in" viewBox="0 0 118.624 128.769" xml:space="preserve" color-interpolation-filters="sRGB"
		class="st8">
	<style type="text/css">
	<![CDATA[
		.st1 {fill:url(#grad0-5);stroke:none;stroke-linecap:butt;stroke-width:32.3827}
		.st2 {fill:#f2f2f2;stroke:none;stroke-linecap:butt;stroke-width:32.3827}
		.st3 {fill:#a67af4;stroke:none;stroke-linecap:butt;stroke-width:32.3827}
		.st4 {fill:#552f99;stroke:none;stroke-linecap:butt;stroke-width:32.3827}
		.st5 {fill:#b77af4;fill-opacity:0.75;stroke:none;stroke-linecap:butt;stroke-width:32.3827}
		.st6 {visibility:visible}
		.st7 {fill:#000000;font-family:Calibri;font-size:0.666664em}
		.st8 {fill:none;fill-rule:evenodd;font-size:12px;overflow:visible;stroke-linecap:square;stroke-miterlimit:3}
	]]>
	</style>

	<defs id="Patterns_And_Gradients">
		<linearGradient id="grad0-5" x1="0" y1="0" x2="1" y2="0" gradientTransform="rotate(-90 0.5 0.5)">
			<stop offset="0" stop-color="#0078d4" stop-opacity="1"/>
			<stop offset="0.16" stop-color="#1380da" stop-opacity="1"/>
			<stop offset="0.53" stop-color="#3c91e5" stop-opacity="1"/>
			<stop offset="0.82" stop-color="#559cec" stop-opacity="1"/>
			<stop offset="1" stop-color="#5ea0ef" stop-opacity="1"/>
		</linearGradient>
	</defs>
	<g>
		<title>Page-1</title>
		<g id="group5842-1" transform="translate(32.3827,-39.685)">
			<title>Container Instance.5842</title>
			<desc>Container Instance</desc>
			<g id="shape5843-2" transform="translate(0,-19.0722)">
				<title>path17</title>
				<path d="M53.86 116.98 A12.0535 11.8923 -180 0 0 43.37 105.53 A15.2104 15.0069 -180 0 0 27.68 91.15 A15.6568 15.4474
							 -180 0 0 12.76 101.18 A14.4451 14.2519 -180 0 0 -0 114.87 A14.6364 14.4406 -180 0 0 15.15 128.74 L16.49
							 128.74 L40.98 128.74 A2.04081 2.01351 -180 0 0 41.61 128.74 A12.2449 12.0811 -180 0 0 53.86 116.98 Z"
						class="st1"/>
			</g>
			<g id="shape5844-6" transform="translate(18.4524,-24.634)">
				<title>path19</title>
				<path d="M0.11 117.03 L8.33 108.92 a0.988518 0.975294 0 0 1 1.40306 0 L18 117.06 a0.446427 0.440455 0 0 1 -0.318877
							 0.755066 L12.61 117.82 a0.41454 0.408994 -180 0 0 -0.446427 0.408994 L12.16 128.42 a0.350764 0.346072
							 0 0 1 -0.350765 0.346072 L6.26 128.77 a0.350764 0.346072 0 0 1 -0.350764 -0.346072 L5.91 118.35 a0.41454
							 0.408994 -180 0 0 -0.286989 -0.566301 L0.39 117.79 a0.446427 0.440455 0 0 1 -0.286989 -0.755066 Z"
						class="st2"/>
			</g>
			<g id="shape5845-8" transform="translate(27.0726,-0.0629223)">
				<title>path21</title>
				<path d="M15.69 107.91 a0.446427 0.440455 -180 0 0 -0.28699 -0.408994 L0.41 102.5 L0 102.5 L0 128.77 L0.41 128.77
							 L15.43 122.85 a0.41454 0.408994 -180 0 0 0.255102 -0.408994 L15.69 107.91 Z" class="st3"/>
			</g>
			<g id="shape5846-10" transform="translate(12.213,-2.55795E-13)">
				<title>path23</title>
				<path d="M14.76 102.53 L0.38 105.14 a0.446427 0.440455 -180 0 0 -0.382652 0.408994 L0 125.18 a0.446427 0.440455 -180
							 0 0 0.350764 0.440455 L14.76 128.77 a0.446427 0.440455 -180 0 0 0.510202 -0.440455 L15.27 103.16 a0.446427
							 0.440455 -180 0 0 -0.510202 -0.629222 Z" class="st4"/>
			</g>
			<g id="shape5847-12" transform="translate(20.3124,-3.27196)">
				<title>polygon25</title>
				<path d="M5.01 108.85 L0 109.7 L0 127.98 L5.01 128.77 L5.01 108.85 Z" class="st5"/>
			</g>
			<g id="shape5848-14" transform="translate(14.1581,-4.46748)">
				<title>polygon27</title>
				<path d="M4.37 111.18 L0 111.91 L0 127.89 L4.37 128.77 L4.37 111.18 Z" class="st5"/>
			</g>
			<g id="shape5842-16">
				<g id="shadow5842-17" transform="matrix(1,0,0,1,1.41732,1.41732)" class="st6"/>
				<text x="-3.69" y="144.47" class="st7">Container Instance</text>			</g>
		</g>
	</g>
</svg>
