<?xml version="1.0" encoding="UTF-8" standalone="no"?>
<!DOCTYPE svg PUBLIC "-//W3C//DTD SVG 1.1//EN" "http://www.w3.org/Graphics/SVG/1.1/DTD/svg11.dtd">
<!-- Generated by Microsoft Visio, SVG Export Virtual Machine Availability Set.svg Page-1 -->
<svg xmlns="http://www.w3.org/2000/svg" xmlns:xlink="http://www.w3.org/1999/xlink" xmlns:ev="http://www.w3.org/2001/xml-events"
		width="1.73185in" height="1.8108in" viewBox="0 0 124.693 130.378" xml:space="preserve" color-interpolation-filters="sRGB"
		class="st9">
	<style type="text/css">
	<![CDATA[
		.st1 {fill:#0078d4;stroke:none;stroke-linecap:butt;stroke-width:34}
		.st2 {fill:#50e6ff;stroke:none;stroke-linecap:butt;stroke-width:34}
		.st3 {fill:#c3f1ff;stroke:none;stroke-linecap:butt;stroke-width:34}
		.st4 {fill:#9cebff;stroke:none;stroke-linecap:butt;stroke-width:34}
		.st5 {fill:url(#grad0-16);stroke:none;stroke-linecap:butt;stroke-width:34}
		.st6 {fill:url(#grad0-30);stroke:none;stroke-linecap:butt;stroke-width:34}
		.st7 {visibility:visible}
		.st8 {fill:#000000;font-family:Calibri;font-size:0.666664em}
		.st9 {fill:none;fill-rule:evenodd;font-size:12px;overflow:visible;stroke-linecap:square;stroke-miterlimit:3}
	]]>
	</style>

	<defs id="Patterns_And_Gradients">
		<linearGradient id="grad0-16" x1="0" y1="0" x2="1" y2="0" gradientTransform="rotate(-90 0.5 0.5)">
			<stop offset="0" stop-color="#0078d4" stop-opacity="1"/>
			<stop offset="0.82" stop-color="#5ea0ef" stop-opacity="1"/>
		</linearGradient>
		<linearGradient id="grad0-30" x1="0" y1="0" x2="1" y2="0" gradientTransform="rotate(-90 0.5 0.5)">
			<stop offset="0.15" stop-color="#cccccc" stop-opacity="1"/>
			<stop offset="1" stop-color="#707070" stop-opacity="1"/>
		</linearGradient>
	</defs>
	<g>
		<title>Page-1</title>
		<g id="group5649-1" transform="translate(34,-39.685)">
			<title>Virtual Machine Availability Set.5649</title>
			<desc>Virtual Machine Availability Set</desc>
			<g id="group5650-2">
				<title>Icon-compute-25</title>
				<g id="shape5651-3">
					<title>Sheet.5651</title>
					<path d="M5.4 73.69 L11.97 73.69 L11.97 75.59 L5.4 75.59 L5.4 73.69 ZM53.79 75.59 L54.86 75.59 L54.86 76.62 L56.69
								 76.62 L56.69 73.69 L53.79 73.69 L53.79 75.59 ZM3.03 128.34 L2.1 128.34 L2.1 127.28 L0 127.28 L0
								 130.38 L3.03 130.38 L3.03 128.34 ZM54.86 127.38 L54.86 128.34 L53.79 128.34 L53.79 130.38 L56.69
								 130.38 L56.69 127.38 L54.86 127.38 ZM2.1 76.55 L2.1 75.59 L3.03 75.59 L3.03 73.69 L0 73.69 L0 76.55
								 L2.1 76.55 Z" class="st1"/>
				</g>
				<g id="shape5652-5" transform="translate(9.5711,-26.9125)">
					<title>Sheet.5652</title>
					<path d="M-0 129.41 a0.967137 0.967137 -180 0 0 0.967114 0.967114 L28.35 130.38 a0.967137 0.967137 -180 0 0 0.967114
								 -0.967114 L29.31 111.74 a0.967137 0.967137 -180 0 0 -0.967114 -0.967114 L0.97 110.77 a0.967137 0.967137
								 -180 0 0 -0.967114 0.967114 L0 129.41 Z" class="st1"/>
				</g>
				<g id="shape5653-7" transform="translate(24.2446,-30.981)">
					<title>Sheet.5653</title>
					<path d="M4.87 121.81 L4.87 127.51 L0 130.38 L0 124.64 L4.87 121.81 Z" class="st2"/>
				</g>
				<g id="shape5654-9" transform="translate(19.3423,-36.6836)">
					<title>Sheet.5654</title>
					<path d="M9.77 127.51 L4.9 130.38 L0 127.51 L4.9 124.64 L9.77 127.51 Z" class="st3"/>
				</g>
				<g id="shape5655-11" transform="translate(19.3423,-30.981)">
					<title>Sheet.5655</title>
					<path d="M4.9 124.68 L4.9 130.38 L0 127.51 L0 121.81 L4.9 124.68 Z" class="st4"/>
				</g>
				<g id="shape5656-13" transform="translate(18.0417,-15.9741)">
					<title>Sheet.5656</title>
					<path d="M-0 129.41 a0.967137 0.967137 -180 0 0 0.967114 0.967114 L28.35 130.38 a0.967137 0.967137 -180 0 0 0.967114
								 -0.967114 L29.31 111.74 a0.967137 0.967137 -180 0 0 -0.967114 -0.967114 L0.97 110.77 a0.967137 0.967137
								 -180 0 0 -0.967114 0.967114 L0 129.41 Z" class="st5"/>
				</g>
				<g id="shape5657-17" transform="translate(32.7151,-20.076)">
					<title>Sheet.5657</title>
					<path d="M4.87 121.81 L4.87 127.51 L0 130.38 L0 124.68 L4.87 121.81 Z" class="st2"/>
				</g>
				<g id="shape5658-19" transform="translate(27.8129,-25.7786)">
					<title>Sheet.5658</title>
					<path d="M9.77 127.51 L4.9 130.38 L0 127.51 L4.9 124.64 L9.77 127.51 Z" class="st3"/>
				</g>
				<g id="shape5659-21" transform="translate(27.8129,-20.076)">
					<title>Sheet.5659</title>
					<path d="M4.9 124.68 L4.9 130.38 L0 127.51 L0 121.81 L4.9 124.68 Z" class="st4"/>
				</g>
				<g id="shape5660-23" transform="translate(27.8129,-20.076)">
					<title>Sheet.5660</title>
					<path d="M0 127.51 L4.9 124.68 L4.9 130.38 L0 127.51 Z" class="st3"/>
				</g>
				<g id="shape5661-25" transform="translate(32.7151,-20.076)">
					<title>Sheet.5661</title>
					<path d="M4.87 127.51 L0 124.68 L0 130.38 L4.87 127.51 Z" class="st4"/>
				</g>
				<g id="shape5662-27" transform="translate(25.3784,-8.43724)">
					<title>Sheet.5662</title>
					<path d="M13.21 128.74 C10.3 128.28 10.2 126.18 10.2 122.81 L4.44 122.81 C4.44 126.14 4.44 128.28 1.43 128.74
								 A1.70079 1.70079 -180 0 0 -0 130.38 L14.67 130.38 A1.70079 1.70079 -180 0 0 13.21 128.74 Z"
							class="st6"/>
				</g>
				<g id="shape5663-31" transform="translate(0,-0.133395)">
					<title>Sheet.5663</title>
					<path d="M15.24 73.82 L21.81 73.82 L21.81 75.72 L15.24 75.72 L15.24 73.82 ZM25.04 73.82 L31.61 73.82 L31.61 75.72
								 L25.04 75.72 L25.04 73.82 ZM34.88 73.82 L41.45 73.82 L41.45 75.72 L34.88 75.72 L34.88 73.82 ZM44.72
								 73.82 L51.29 73.82 L51.29 75.72 L44.72 75.72 L44.72 73.82 ZM5.47 128.48 L12.04 128.48 L12.04 130.38
								 L5.47 130.38 L5.47 128.48 ZM15.27 128.48 L21.84 128.48 L21.84 130.38 L15.27 130.38 L15.27 128.48
								 ZM25.11 128.48 L31.68 128.48 L31.68 130.38 L25.11 130.38 L25.11 128.48 ZM34.95 128.48 L41.52 128.48
								 L41.52 130.38 L34.95 130.38 L34.95 128.48 ZM44.75 128.48 L51.32 128.48 L51.32 130.38 L44.75 130.38
								 L44.75 128.48 ZM54.79 78.99 L56.69 78.99 L56.69 85.56 L54.79 85.56 L54.79 78.99 ZM54.79 88.79 L56.69
								 88.79 L56.69 95.36 L54.79 95.36 L54.79 88.79 ZM54.79 98.63 L56.69 98.63 L56.69 105.2 L54.79 105.2
								 L54.79 98.63 ZM54.79 108.43 L56.69 108.43 L56.69 115 L54.79 115 L54.79 108.43 ZM54.79 118.27 L56.69
								 118.27 L56.69 124.84 L54.79 124.84 L54.79 118.27 ZM0 78.92 L1.9 78.92 L1.9 85.49 L0 85.49 L0 78.92
								 ZM0 88.76 L1.9 88.76 L1.9 95.33 L0 95.33 L0 88.76 ZM0 98.56 L1.9 98.56 L1.9 105.13 L0 105.13 L0
								 98.56 ZM0 108.4 L1.9 108.4 L1.9 114.97 L0 114.97 L0 108.4 ZM0 118.21 L1.9 118.21 L1.9 124.78 L0
								 124.78 L0 118.21 Z" class="st1"/>
				</g>
			</g>
			<g id="shape5649-33">
				<g id="shadow5649-34" transform="matrix(1,0,0,1,1.41732,1.41732)" class="st7"/>
				<text x="-22.32" y="146.08" class="st8">Virtual Machine Availability Set</text>			</g>
		</g>
	</g>
</svg>
