<?xml version="1.0" encoding="UTF-8" standalone="no"?>
<!-- Generated by Microsoft Visio, SVG Export API Management Policy Fragment.svg Page-1 -->
<svg xmlns:dc="http://purl.org/dc/elements/1.1/" xmlns:cc="http://creativecommons.org/ns#" xmlns:rdf="http://www.w3.org/1999/02/22-rdf-syntax-ns#" xmlns:svg="http://www.w3.org/2000/svg" xmlns="http://www.w3.org/2000/svg" xmlns:sodipodi="http://sodipodi.sourceforge.net/DTD/sodipodi-0.dtd" xmlns:inkscape="http://www.inkscape.org/namespaces/inkscape" width="56.692928" height="53.858331" viewBox="0 0 56.692928 53.858331" xml:space="preserve" class="st6" version="1.1" id="svg58" sodipodi:docname="API Management Policy Fragment.svg" style="font-size:12px;overflow:visible;color-interpolation-filters:sRGB;fill:none;fill-rule:evenodd;stroke-linecap:square;stroke-miterlimit:3" inkscape:version="0.92.5 (2060ec1f9f, 2020-04-08)">
  <metadata id="metadata64">
    <rdf:RDF>
      <cc:Work rdf:about="">
        <dc:format>image/svg+xml</dc:format>
        <dc:type rdf:resource="http://purl.org/dc/dcmitype/StillImage" />
      </cc:Work>
    </rdf:RDF>
  </metadata>
  <defs id="defs62" />
  <sodipodi:namedview pagecolor="#ffffff" bordercolor="#666666" borderopacity="1" objecttolerance="10" gridtolerance="10" guidetolerance="10" inkscape:pageopacity="0" inkscape:pageshadow="2" inkscape:window-width="640" inkscape:window-height="480" id="namedview60" showgrid="false" inkscape:zoom="1.7679873" inkscape:cx="37.795224" inkscape:cy="21.388461" inkscape:window-x="0" inkscape:window-y="0" inkscape:window-maximized="0" inkscape:current-layer="svg58" />
	<style type="text/css" id="style2">
	<![CDATA[
		.st1 {fill:#57a300}
		.st2 {stroke:none;stroke-linecap:butt;stroke-width:12.24}
		.st3 {fill:#a0a1a2;stroke:none;stroke-linecap:butt;stroke-width:12.24}
		.st4 {fill:#57a300;stroke:none;stroke-linecap:butt;stroke-width:12.24}
		.st5 {fill:#0399c6;stroke:none;stroke-linecap:butt;stroke-width:12.24}
		.st6 {fill:none;fill-rule:evenodd;font-size:12px;overflow:visible;stroke-linecap:square;stroke-miterlimit:3}
	]]>
	</style>

	<g id="g56" transform="translate(-12.24,-12.240038)">
		<title id="title4">Page-1</title>
		<g id="group15610-1" transform="translate(12.24,-34.0157)">
			<title id="title6">API Management Policy Fragment.15610</title>
			<g id="group15611-2">
				<title id="title8">Sheet.15611</title>
				<g id="shape15612-3" transform="translate(50.2841,-4.89621)">
					<title id="title10">Sheet.15612</title>
					<path d="m 0,95.22 v 4.89 z" class="st1" id="path12" inkscape:connector-curvature="0" style="fill:#57a300" />
					<path d="m 0,95.22 v 4.89" class="st2" id="path14" inkscape:connector-curvature="0" style="stroke:none;stroke-width:12.23999977;stroke-linecap:butt" />
				</g>
				<g id="shape15613-6" transform="translate(14.7895,-24.481)">
					<title id="title17">Sheet.15613</title>
					<path d="M 36.97,74.41 H 0 v 4.9 h 35.74 v 15.91 h -7.39 v 4.89 h 8.62 c 2.04,0 3.7,-1.65 3.7,-3.67 V 78.08 c 0,-2.02 -1.66,-3.67 -3.7,-3.67 z" class="st3" id="path19" inkscape:connector-curvature="0" style="fill:#a0a1a2;stroke:none;stroke-width:12.23999977;stroke-linecap:butt" />
				</g>
				<g id="shape15614-8" transform="translate(36.9736,-20.8089)">
					<title id="title22">Sheet.15614</title>
					<path d="M 7.39,100.11 0,93.99 7.39,87.87 Z" class="st3" id="path24" inkscape:connector-curvature="0" style="fill:#a0a1a2;stroke:none;stroke-width:12.23999977;stroke-linecap:butt" />
				</g>
				<g id="shape15615-10" transform="translate(1.23245,-3.67215)">
					<title id="title27">Sheet.15615</title>
					<path d="M 4.93,95.22 V 79.31 h 12.32 v -4.9 H 3.7 C 1.66,74.41 0,76.06 0,78.08 v 18.36 c 0,2.02 1.66,3.67 3.7,3.67 h 33.27 v -4.89 z" class="st4" id="path29" inkscape:connector-curvature="0" style="fill:#57a300;stroke:none;stroke-width:12.23999977;stroke-linecap:butt" />
				</g>
				<g id="shape15616-12" transform="translate(22.0609)">
					<title id="title32">Sheet.15616</title>
					<path d="m 13.68,87.87 7.39,6.12 -7.39,6.12 z m 13.31,2.45 v 4.9 z M 0,71.96 v 4.9 z" class="st1" id="path34" inkscape:connector-curvature="0" style="fill:#57a300" />
					<path d="m 13.68,87.87 7.39,6.12 -7.39,6.12 V 87.87 m 13.31,2.45 v 4.9 M 0,71.96 v 4.9" class="st2" id="path36" inkscape:connector-curvature="0" style="stroke:none;stroke-width:12.23999977;stroke-linecap:butt" />
				</g>
				<g id="shape15617-15" transform="translate(20.9517,-19.5848)">
					<title id="title39">Sheet.15617</title>
					<path d="M 0,98.38 V 87.16 C 0,86.18 0.81,85.4 1.8,85.43 h 11.29 a 1.75009,1.73815 0 0 1 1.7,1.68 v 11.22 c 0.03,0.97 -0.76,1.78 -1.75,1.78 H 1.75 A 1.74762,1.73571 0 0 1 0,98.38 Z" class="st5" id="path41" inkscape:connector-curvature="0" style="fill:#0399c6;stroke:none;stroke-width:12.23999977;stroke-linecap:butt" />
				</g>
				<g id="shape15618-17" transform="translate(0,-41.6178)">
					<title id="title44">Sheet.15618</title>
					<ellipse cx="6.1622701" cy="93.993797" rx="6.1622701" ry="6.1202598" class="st5" id="ellipse46" style="fill:#0399c6;stroke:none;stroke-width:12.23999977;stroke-linecap:butt" />
				</g>
				<g id="shape15619-19" transform="translate(44.3684)">
					<title id="title49">Sheet.15619</title>
					<ellipse cx="6.1622701" cy="93.993797" rx="6.1622701" ry="6.1202598" class="st5" id="ellipse51" style="fill:#0399c6;stroke:none;stroke-width:12.23999977;stroke-linecap:butt" />
				</g>
			</g>
		</g>
	</g>
</svg>