<?xml version="1.0" encoding="UTF-8" standalone="no"?>
<!-- Generated by Microsoft Visio, SVG Export API Connection.svg Page-1 -->
<svg xmlns:dc="http://purl.org/dc/elements/1.1/" xmlns:cc="http://creativecommons.org/ns#" xmlns:rdf="http://www.w3.org/1999/02/22-rdf-syntax-ns#" xmlns:svg="http://www.w3.org/2000/svg" xmlns="http://www.w3.org/2000/svg" xmlns:sodipodi="http://sodipodi.sourceforge.net/DTD/sodipodi-0.dtd" xmlns:inkscape="http://www.inkscape.org/namespaces/inkscape" width="56.725213" height="56.692901" viewBox="0 0 56.725213 56.692901" xml:space="preserve" class="st5" version="1.1" id="svg66" sodipodi:docname="API Connection.svg" style="font-size:12px;overflow:visible;color-interpolation-filters:sRGB;fill:none;fill-rule:evenodd;stroke-linecap:square;stroke-miterlimit:3" inkscape:version="0.92.5 (2060ec1f9f, 2020-04-08)">
  <metadata id="metadata70">
    <rdf:RDF>
      <cc:Work rdf:about="">
        <dc:format>image/svg+xml</dc:format>
        <dc:type rdf:resource="http://purl.org/dc/dcmitype/StillImage" />
      </cc:Work>
    </rdf:RDF>
  </metadata>
  <sodipodi:namedview pagecolor="#ffffff" bordercolor="#666666" borderopacity="1" objecttolerance="10" gridtolerance="10" guidetolerance="10" inkscape:pageopacity="0" inkscape:pageshadow="2" inkscape:window-width="640" inkscape:window-height="480" id="namedview68" showgrid="false" inkscape:zoom="1.4193119" inkscape:cx="37.816639" inkscape:cy="37.78433" inkscape:window-x="0" inkscape:window-y="0" inkscape:window-maximized="0" inkscape:current-layer="svg66" />
	<style type="text/css" id="style2">
	<![CDATA[
		.st1 {fill:url(#grad0-6);stroke:none;stroke-linecap:butt;stroke-width:34}
		.st2 {fill:url(#grad0-10);stroke:none;stroke-linecap:butt;stroke-width:34}
		.st3 {fill:url(#grad0-14);stroke:none;stroke-linecap:butt;stroke-width:34}
		.st4 {fill:none;stroke:none;stroke-linecap:butt;stroke-width:34}
		.st5 {fill:none;fill-rule:evenodd;font-size:12px;overflow:visible;stroke-linecap:square;stroke-miterlimit:3}
	]]>
	</style>

	<defs id="Patterns_And_Gradients">
		<linearGradient id="grad0-6" x1="0" y1="116.78162" x2="31.965553" y2="116.78162" gradientTransform="scale(1.1927445,0.83840251)" gradientUnits="userSpaceOnUse">
			<stop offset="0" stop-color="#5e9624" stop-opacity="1" id="stop4" />
			<stop offset="0.01" stop-color="#5e9724" stop-opacity="1" id="stop6" />
			<stop offset="0.35" stop-color="#6cab29" stop-opacity="1" id="stop8" />
			<stop offset="0.68" stop-color="#73b82c" stop-opacity="1" id="stop10" />
			<stop offset="1" stop-color="#76bc2d" stop-opacity="1" id="stop12" />
		</linearGradient>
		<linearGradient id="grad0-10" x1="-0.01360887" y1="116.78084" x2="31.951732" y2="116.78084" gradientTransform="scale(1.1927366,0.83840808)" gradientUnits="userSpaceOnUse">
			<stop offset="0" stop-color="#0078d4" stop-opacity="1" id="stop15" />
			<stop offset="0.82" stop-color="#5ea0ef" stop-opacity="1" id="stop17" />
		</linearGradient>
		<linearGradient id="grad0-14" x1="0" y1="156.80849" x2="15.396396" y2="156.80849" gradientTransform="scale(1.3808427,0.72419547)" gradientUnits="userSpaceOnUse">
			<stop offset="0" stop-color="#005ba1" stop-opacity="1" id="stop20" />
			<stop offset="0.14" stop-color="#035da3" stop-opacity="1" id="stop22" />
			<stop offset="0.3" stop-color="#0b63aa" stop-opacity="1" id="stop24" />
			<stop offset="0.47" stop-color="#196eb6" stop-opacity="1" id="stop26" />
			<stop offset="0.65" stop-color="#2d7cc6" stop-opacity="1" id="stop28" />
			<stop offset="0.84" stop-color="#468edb" stop-opacity="1" id="stop30" />
			<stop offset="1" stop-color="#5ea0ef" stop-opacity="1" id="stop32" />
		</linearGradient>
	</defs>
	<g id="g64" transform="translate(-34.000869,-34.000001)">
		<title id="title36">Page-1</title>
		<g id="group15711-1" transform="translate(34.0166,-34.0157)">
			<title id="title38">API Connection.15711</title>
			<g id="group15712-2">
				<title id="title40">Icon-web-48</title>
				<g id="shape15713-3" transform="translate(18.5827,-9.44882)">
					<title id="title42">Sheet.15713</title>
					<path d="M 26.08,97.91 H 11.81 A 12.5984,12.5984 -180 0 0 0,108.96 h 4.47 a 7.84252,7.84252 0 0 1 7.34,-6.3 h 14.27 a 8.15748,8.15748 0 0 1 7.68,8.54 8.18898,8.18898 0 0 1 -7.68,8.56 H 11.81 a 7.84252,7.84252 0 0 1 -7.34,-6.3 H 0 a 12.5984,12.5984 -180 0 0 11.81,11.25 H 26.08 A 12.7874,12.7874 -180 0 0 38.11,111.29 12.7874,12.7874 -180 0 0 26.08,97.91 Z" class="st1" id="path44" inkscape:connector-curvature="0" style="fill:url(#grad0-6);stroke:none;stroke-width:34;stroke-linecap:butt" />
				</g>
				<g id="shape15714-7" transform="translate(0,-20.4409)">
					<title id="title47">Sheet.15714</title>
					<path d="M 26.3,119.95 H 12.03 a 8.15748,8.15748 0 0 1 -7.68,-8.63 8.18898,8.18898 0 0 1 7.68,-8.56 H 26.3 a 7.84252,7.84252 0 0 1 7.34,6.3 h 4.47 A 12.5984,12.5984 -180 0 0 26.3,97.91 H 12.03 A 12.7874,12.7874 -180 0 0 0,111.32 12.7874,12.7874 -180 0 0 12.03,124.71 H 26.3 a 12.5984,12.5984 -180 0 0 11.81,-11.06 h -4.47 a 7.84252,7.84252 0 0 1 -7.34,6.3 z" class="st2" id="path49" inkscape:connector-curvature="0" style="fill:url(#grad0-10);stroke:none;stroke-width:34;stroke-linecap:butt" />
				</g>
				<g id="shape15715-11" transform="translate(16.8504,-20.3465)">
					<title id="title52">Sheet.15715</title>
					<path d="M 9.45,119.86 H 0 v 4.85 h 9.45 a 12.5984,12.5984 -180 0 0 11.81,-11.15 h -4.47 a 7.84252,7.84252 0 0 1 -7.34,6.3 z" class="st3" id="path54" inkscape:connector-curvature="0" style="fill:url(#grad0-14);stroke:none;stroke-width:34;stroke-linecap:butt" />
				</g>
				<g id="shape15716-15">
					<title id="title57">Sheet.15716</title>
					<rect x="0" y="68.015701" width="56.692902" height="56.692902" class="st4" id="rect59" style="fill:none;stroke:none;stroke-width:34;stroke-linecap:butt" />
				</g>
			</g>
		</g>
	</g>
</svg>