<?xml version="1.0" encoding="UTF-8" standalone="no"?>
<!DOCTYPE svg PUBLIC "-//W3C//DTD SVG 1.1//EN" "http://www.w3.org/Graphics/SVG/1.1/DTD/svg11.dtd">
<!-- Generated by Microsoft Visio, SVG Export API Management Power Platform.svg Page-1 -->
<svg xmlns="http://www.w3.org/2000/svg" xmlns:xlink="http://www.w3.org/1999/xlink" xmlns:ev="http://www.w3.org/2001/xml-events"
		width="0.964485in" height="1.34838in" viewBox="0 0 69.4429 97.0837" xml:space="preserve" color-interpolation-filters="sRGB"
		class="st6">
	<style type="text/css">
	<![CDATA[
		.st1 {fill:url(#grad0-6);stroke:none;stroke-linecap:butt;stroke-width:6.375}
		.st2 {fill:#000000;fill-opacity:0.32;stroke:none;stroke-linecap:butt;stroke-width:6.375}
		.st3 {fill:#000000;fill-opacity:0.24;stroke:none;stroke-linecap:butt;stroke-width:6.375}
		.st4 {fill:url(#grad0-14);stroke:none;stroke-linecap:butt;stroke-width:6.375}
		.st5 {fill:url(#grad0-18);stroke:none;stroke-linecap:butt;stroke-width:6.375}
		.st6 {fill:none;fill-rule:evenodd;font-size:12px;overflow:visible;stroke-linecap:square;stroke-miterlimit:3}
	]]>
	</style>

	<defs id="Patterns_And_Gradients">
		<linearGradient id="grad0-6" x1="0" y1="0" x2="1" y2="0" gradientTransform="rotate(-115.03978431968 0.5 0.5)">
			<stop offset="0" stop-color="#742774" stop-opacity="1"/>
			<stop offset="1" stop-color="#bb35a4" stop-opacity="1"/>
		</linearGradient>
		<linearGradient id="grad0-14" x1="0" y1="0" x2="1" y2="0" gradientTransform="rotate(54.535327906065 0.5 0.5)">
			<stop offset="0" stop-color="#e48cc7" stop-opacity="1"/>
			<stop offset="1" stop-color="#d467b9" stop-opacity="1"/>
		</linearGradient>
		<linearGradient id="grad0-18" x1="0" y1="0" x2="1" y2="0" gradientTransform="rotate(71.042949528272 0.5 0.5)">
			<stop offset="0" stop-color="#e9a1cb" stop-opacity="1"/>
			<stop offset="1" stop-color="#e48cc7" stop-opacity="1"/>
		</linearGradient>
	</defs>
	<g>
		<title>Page-1</title>
		<g id="group14185-1" transform="translate(6.375,-34.0157)">
			<title>API Management Power Platform.14185</title>
			<g id="group14186-2">
				<title>Sheet.14186</title>
				<g id="shape14187-3" transform="translate(0,-1.157)">
					<title>Sheet.14187</title>
					<path d="M23.81 97.08 L0 69.32 L23.81 41.55 L47.62 69.32 L23.81 97.08 Z" class="st1"/>
				</g>
				<g id="shape14188-7" transform="translate(20.0838,-2.84217E-13)">
					<title>Sheet.14188</title>
					<path d="M11.66 41.55 L36.61 69.32 L11.66 97.08 L0.6 84.76 A2.26772 2.314 0 0 1 0.6 81.63 L10.26 70.88 A2.26772
								 2.314 -180 0 0 10.26 67.75 L0.6 56.99 A2.26772 2.314 0 0 1 0.6 53.87 L11.66 41.55 Z" class="st2"/>
				</g>
				<g id="shape14189-9" transform="translate(20.0838,-0.937169)">
					<title>Sheet.14189</title>
					<path d="M11.66 41.55 L36.61 69.32 L11.66 97.08 L0.6 84.76 A2.26772 2.314 0 0 1 0.6 81.63 L10.26 70.88 A2.26772
								 2.314 -180 0 0 10.26 67.75 L0.6 57 A2.26772 2.314 0 0 1 0.6 53.87 L11.66 41.55 Z" class="st3"/>
				</g>
				<g id="shape14190-11" transform="translate(20.0838,-1.157)">
					<title>Sheet.14190</title>
					<path d="M11.66 41.55 L36.61 69.32 L11.66 97.08 L0.6 84.76 A2.26772 2.314 0 0 1 0.6 81.63 L10.26 70.88 A2.26772
								 2.314 -180 0 0 10.26 67.75 L0.6 56.99 A2.26772 2.314 0 0 1 0.6 53.87 L11.66 41.55 Z" class="st4"/>
				</g>
				<g id="shape14191-15" transform="translate(32.9608,-16.1508)">
					<title>Sheet.14191</title>
					<path d="M9.59 72.29 A2.26772 2.314 0 0 1 12.93 72.29 L23.73 84.31 L12.93 96.33 A2.26772 2.314 0 0 1 9.59 96.33
								 L0.89 86.65 A3.40157 3.47099 0 0 1 0.89 81.96 L9.59 72.29 Z" class="st5"/>
				</g>
			</g>
		</g>
	</g>
</svg>
