<?xml version="1.0" encoding="UTF-8" standalone="no"?>
<!-- Generated by Microsoft Visio, SVG Export App Service Access Restriction.svg Page-1 -->
<svg xmlns:dc="http://purl.org/dc/elements/1.1/" xmlns:cc="http://creativecommons.org/ns#" xmlns:rdf="http://www.w3.org/1999/02/22-rdf-syntax-ns#" xmlns:svg="http://www.w3.org/2000/svg" xmlns="http://www.w3.org/2000/svg" xmlns:sodipodi="http://sodipodi.sourceforge.net/DTD/sodipodi-0.dtd" xmlns:inkscape="http://www.inkscape.org/namespaces/inkscape" width="57.00958" height="56.996702" viewBox="0 0 57.00958 56.996702" xml:space="preserve" class="st7" version="1.1" id="svg80" sodipodi:docname="App Service Access Restriction.svg" style="font-size:12px;overflow:visible;color-interpolation-filters:sRGB;fill:none;fill-rule:evenodd;stroke-linecap:square;stroke-miterlimit:3" inkscape:version="0.92.5 (2060ec1f9f, 2020-04-08)">
  <metadata id="metadata84">
    <rdf:RDF>
      <cc:Work rdf:about="">
        <dc:format>image/svg+xml</dc:format>
        <dc:type rdf:resource="http://purl.org/dc/dcmitype/StillImage" />
      </cc:Work>
    </rdf:RDF>
  </metadata>
  <sodipodi:namedview pagecolor="#ffffff" bordercolor="#666666" borderopacity="1" objecttolerance="10" gridtolerance="10" guidetolerance="10" inkscape:pageopacity="0" inkscape:pageshadow="2" inkscape:window-width="640" inkscape:window-height="480" id="namedview82" showgrid="false" inkscape:zoom="1.414974" inkscape:cx="37.883912" inkscape:cy="37.934757" inkscape:window-x="0" inkscape:window-y="0" inkscape:window-maximized="0" inkscape:current-layer="svg80" />
	<style type="text/css" id="style2">
	<![CDATA[
		.st1 {fill:#76bc2d;stroke:none;stroke-linecap:butt;stroke-width:34}
		.st2 {fill:url(#grad0-8);stroke:none;stroke-linecap:butt;stroke-width:34}
		.st3 {fill:url(#grad3-12);stroke:none;stroke-linecap:butt;stroke-width:34}
		.st4 {fill:#83b9f9;stroke:none;stroke-linecap:butt;stroke-width:34}
		.st5 {fill:url(#grad0-18);stroke:none;stroke-linecap:butt;stroke-width:34}
		.st6 {fill:#ffffff;stroke:none;stroke-linecap:butt;stroke-width:34}
		.st7 {fill:none;fill-rule:evenodd;font-size:12px;overflow:visible;stroke-linecap:square;stroke-miterlimit:3}
	]]>
	</style>

	<defs id="Patterns_And_Gradients">
		<linearGradient id="grad0-8" x1="0" y1="71.416878" x2="41.918945" y2="71.416878" gradientTransform="scale(0.90603424,1.103711)" gradientUnits="userSpaceOnUse">
			<stop offset="0" stop-color="#5e9624" stop-opacity="1" id="stop4" />
			<stop offset="1" stop-color="#76bc2d" stop-opacity="1" id="stop6" />
		</linearGradient>
		<radialGradient id="grad3-12" cx="11.731203" cy="113.27976" r="21.533543" gradientTransform="scale(0.99842851,1.001574)" fx="11.731203" fy="113.27976" gradientUnits="userSpaceOnUse">
			<stop offset="0" stop-color="#5ea0ef" stop-opacity="1" id="stop9" />
			<stop offset="1" stop-color="#0078d4" stop-opacity="1" id="stop11" />
		</radialGradient>
		<linearGradient id="grad0-18" x1="0" y1="115.59367" x2="9.3376823" y2="115.59367" gradientTransform="scale(0.99872534,1.0012763)" gradientUnits="userSpaceOnUse">
			<stop offset="0" stop-color="#cccccc" stop-opacity="1" id="stop14" />
			<stop offset="1" stop-color="#fcfcfc" stop-opacity="1" id="stop16" />
		</linearGradient>
	</defs>
	<g id="g78" transform="translate(-34,-33.999943)">
		<title id="title20">Page-1</title>
		<g id="group15496-1" transform="translate(34,-37.2326)">
			<title id="title22">App Service Access Restriction.15496</title>
			<g id="group15497-2">
				<title id="title24">Sheet.15497</title>
				<g id="shape15498-3" transform="translate(0,-0.0974574)">
					<title id="title26">Sheet.15498</title>
					<path d="m 25.84,111.59 a 16.4274,16.4693 0 0 1 6.22,-11.07 l 0.1,-0.11 A 16.522,16.5642 0 0 1 44.55,97.2 h 0.05 c 0,-0.26 0.06,-0.51 0.06,-0.77 V 79.03 A 1.38814,1.39169 -180 0 0 43.29,77.66 C 29.49,77.3 32.67,71.33 22.33,71.33 c -10.34,0 -7.16,5.96 -20.96,6.33 A 1.38814,1.39169 -180 0 0 0,79.04 v 17.4 c 0,14.46 17.74,26.08 21.6,28.44 a 1.41653,1.42015 -180 0 0 1.47,0 c 0.94,-0.57 2.68,-1.69 4.79,-3.26 a 16.4053,16.4472 0 0 1 -2.02,-10.03 z" class="st1" id="path28" inkscape:connector-curvature="0" style="fill:#76bc2d;stroke:none;stroke-width:34;stroke-linecap:butt" />
				</g>
				<g id="shape15499-5" transform="translate(3.34416,-3.84928)">
					<title id="title31">Sheet.15499</title>
					<path d="m 22.5,115.34 a 16.4274,16.4693 0 0 1 6.22,-11.07 l 0.1,-0.11 a 16.6041,16.6465 0 0 1 9.12,-3.35 c 0,-0.16 0.04,-0.32 0.04,-0.47 V 86.14 A 1.57743,1.58146 -180 0 0 36.49,84.58 17.4275,17.472 0 0 1 26.17,81.1 10.3101,10.3364 -180 0 0 18.99,78.85 10.3069,10.3333 -180 0 0 11.8,81.1 17.4369,17.4815 0 0 1 1.49,84.58 1.57743,1.58146 -180 0 0 0,86.14 v 14.23 c 0,12.38 15.57,22.62 19,24.72 a 60.7627,60.9179 -180 0 0 4.15,-2.83 16.4305,16.4725 0 0 1 -0.65,-6.92 z" class="st2" id="path33" inkscape:connector-curvature="0" style="fill:url(#grad0-8);stroke:none;stroke-width:34;stroke-linecap:butt" />
				</g>
				<g id="shape15500-9" transform="translate(30.571)">
					<title id="title36">Sheet.15500</title>
					<path d="M 20.76,125.09 A 14.701737,14.739237 0 1 1 2.62,101.89 l 0.17,-0.18 a 14.7206,14.7582 0 0 1 17.97,23.38 z" class="st3" id="path38" inkscape:connector-curvature="0" style="fill:url(#grad3-12);stroke:none;stroke-width:34;stroke-linecap:butt" />
				</g>
				<g id="shape15501-13" transform="translate(29.5737,-1.56565)">
					<title id="title41">Sheet.15501</title>
					<path d="m 1.39,117.99 a 43.5781,43.6895 -180 0 0 -1.38,4.51 l 1.02,1.56 1.03,1.03 a 24.9613,25.0251 0 0 1 1.89,-6.06 4.36002,4.37116 0 0 1 -2.56,-1.04 z M 3.1,110.02 A 23.5574,23.6176 0 0 1 1.89,105 12.7772,12.8098 -180 0 0 0,107.42 a 18.4086,18.4557 -180 0 0 1.03,4.16 4.71337,4.72541 0 0 1 2.07,-1.56 z" class="st4" id="path43" inkscape:connector-curvature="0" style="fill:#83b9f9;stroke:none;stroke-width:34;stroke-linecap:butt" />
				</g>
				<g id="shape15502-15" transform="translate(29.5674,-7.45817)">
					<title id="title46">Sheet.15502</title>
					<ellipse cx="4.66289" cy="120.416" rx="4.66289" ry="4.6747999" class="st5" id="ellipse48" style="fill:url(#grad0-18);stroke:none;stroke-width:34;stroke-linecap:butt" />
				</g>
				<g id="shape15503-19" transform="translate(35.101,-1.03267)">
					<title id="title51">Sheet.15503</title>
					<path d="m 6.04,122.65 a 3.65964,3.66899 0 0 1 0.87,-2.26 15.9541,15.9949 0 0 1 -4.32,-3.29 4.76069,4.77285 0 0 1 -2.59,1.37 32.4099,32.4927 -180 0 0 2.59,2.42 14.0581,14.094 -180 0 0 3.45,2.08 z m 10.88,0.34 a 22.8381,22.8964 0 0 1 -4.84,-0.52 v 0.18 a 2.86146,2.86877 0 0 1 -0.86,2.08 22.3396,22.3967 -180 0 0 5.87,0.34 c 0.68,-0.69 1.38,-1.56 2.07,-2.25 a 9.23429,9.25788 0 0 1 -2.24,0.17 z M 8.28,107.75 a 23.2514,23.3107 0 0 1 10.19,-2.42 11.4427,11.4719 -180 0 0 -2.59,-2.42 26.4441,26.5116 -180 0 0 -8.12,1.9 16.0646,16.1056 -180 0 0 -1.72,0.86 32.4099,32.4927 0 0 1 -3.46,-5.01 3.32838,3.33688 -180 0 0 -1.55,0.51 36.2021,36.2946 -180 0 0 3.63,5.38 17.112,17.1557 -180 0 0 -3.79,2.95 4.94052,4.95314 0 0 1 2.25,1.89 15.5251,15.5647 0 0 1 3.28,-2.59 38.4893,38.5877 -180 0 0 6.39,5.54 3.59655,3.60573 0 0 1 1.02,-1.73 47.5091,47.6305 0 0 1 -5.53,-4.86 z" class="st4" id="path53" inkscape:connector-curvature="0" style="fill:#83b9f9;stroke:none;stroke-width:34;stroke-linecap:butt" />
				</g>
				<g id="shape15504-21" transform="translate(47.8751,-7.8061)">
					<title id="title56">Sheet.15504</title>
					<ellipse cx="3.28106" cy="121.801" rx="3.28106" ry="3.2894399" class="st6" id="ellipse58" style="fill:#ffffff;stroke:none;stroke-width:34;stroke-linecap:butt" />
				</g>
				<g id="shape15505-23" transform="translate(53.2951,-7.03118)">
					<title id="title61">Sheet.15505</title>
					<path d="M 3.4,123.32 A 2.30936,2.31526 -180 0 0 2.95,123.01 C 2.74,122.88 2.27,122.66 2.27,122.66 L 1.58,122.32 1.02,121.98 A 3.55553,3.56462 0 0 1 0,123.56 c 0.24,0.12 0.36,0.17 0.71,0.34 l 0.68,0.34 a 17.1183,17.162 -180 0 0 1.55,0.85 13.3924,13.4266 -180 0 0 0.46,-1.77 z" class="st4" id="path63" inkscape:connector-curvature="0" style="fill:#83b9f9;stroke:none;stroke-width:34;stroke-linecap:butt" />
				</g>
				<g id="shape15506-25" transform="translate(29.5674,-7.45817)">
					<title id="title66">Sheet.15506</title>
					<ellipse cx="4.66289" cy="120.416" rx="4.66289" ry="4.6747999" class="st6" id="ellipse68" style="fill:#ffffff;stroke:none;stroke-width:34;stroke-linecap:butt" />
				</g>
				<g id="shape15507-27" transform="translate(41.1394,-0.360573)">
					<title id="title71">Sheet.15507</title>
					<ellipse cx="3.1075399" cy="121.975" rx="3.1075399" ry="3.1154799" class="st6" id="ellipse73" style="fill:#ffffff;stroke:none;stroke-width:34;stroke-linecap:butt" />
				</g>
			</g>
		</g>
	</g>
</svg>