<?xml version="1.0" encoding="UTF-8" standalone="no"?>
<!DOCTYPE svg PUBLIC "-//W3C//DTD SVG 1.1//EN" "http://www.w3.org/Graphics/SVG/1.1/DTD/svg11.dtd">
<!-- Generated by Microsoft Visio, SVG Export App Service Quota.svg Page-1 -->
<svg xmlns="http://www.w3.org/2000/svg" xmlns:xlink="http://www.w3.org/1999/xlink" xmlns:ev="http://www.w3.org/2001/xml-events"
		width="1.73185in" height="1.73206in" viewBox="0 0 124.693 124.709" xml:space="preserve" color-interpolation-filters="sRGB"
		class="st4">
	<style type="text/css">
	<![CDATA[
		.st1 {fill:url(#grad3-6);stroke:none;stroke-linecap:butt;stroke-width:34}
		.st2 {fill:#0078d4;stroke:none;stroke-linecap:butt;stroke-width:34}
		.st3 {fill:#005ba1;stroke:none;stroke-linecap:butt;stroke-width:34}
		.st4 {fill:none;fill-rule:evenodd;font-size:12px;overflow:visible;stroke-linecap:square;stroke-miterlimit:3}
	]]>
	</style>

	<defs id="Patterns_And_Gradients">
		<radialGradient id="grad3-6" cx="0.5" cy="0.5" r="0.73">
			<stop offset="0.5" stop-color="#b3b3b3" stop-opacity="1"/>
			<stop offset="1" stop-color="#999999" stop-opacity="1"/>
		</radialGradient>
	</defs>
	<g>
		<title>Page-1</title>
		<g id="group13908-1" transform="translate(34,-34.0157)">
			<title>App Service Quota.13908</title>
			<g id="group13909-2">
				<title>Sheet.13909</title>
				<g id="shape13910-3" transform="translate(2.73071,-2.17565)">
					<title>Sheet.13910</title>
					<path d="M26.62 70.19 A27.3449 27.3753 -180 0 0 -0 103.77 L11.57 101.06 A15.474 15.4912 0 1 1 26.62 113.04 A15.1181
								 15.1349 0 0 1 24.69 112.85 L23.2 124.71 A27.348 27.3785 -180 0 0 53.96 97.56 A27.4677 27.4983 -180
								 0 0 26.62 70.19 Z" class="st1"/>
				</g>
				<g id="shape13911-7">
					<title>Sheet.13911</title>
					<path d="M28.4 124.71 L28.4 112.06 A15.4583 15.4755 0 0 1 12.7 96.83 L12.7 96.31 L0 96.31 A28.3717 28.4032 -180
								 0 0 28.37 124.71 L28.4 124.71 Z" class="st2"/>
				</g>
				<g id="shape13912-9" transform="translate(12.6362,-12.6503)">
					<title>Sheet.13912</title>
					<path d="M0 108.96 A15.5811 15.5984 -180 0 0 15.37 124.71 L15.76 124.71 L14.76 122.82 A13.6661 13.6813 0 0 1
								 1.91 109.89 L0 108.96 Z" class="st3"/>
				</g>
				<g id="shape13913-11" transform="translate(20.3874,-21.7249)">
					<title>Sheet.13913</title>
					<path d="M3.63 116.94 A3.50236 3.50626 0 0 1 1 115.91 A3.84882 3.8531 0 0 1 0 113.11 A4.22362 4.22832 0 0 1 1.06
								 110.08 A3.72598 3.73013 0 0 1 3.9 108.96 A3.46457 3.46842 0 0 1 6.55 109.97 A4.0063 4.01076 0 0
								 1 7.5 112.83 A4.16378 4.16841 0 0 1 6.44 115.83 A3.69449 3.6986 0 0 1 3.63 116.94 ZM14.81 109.17
								 L4.84 124.5 L2.23 124.5 L12.19 109.17 L14.81 109.17 ZM3.84 110.83 C2.8 110.83 2.26 111.56 2.26 113.01
								 C2.26 114.38 2.76 115.06 3.74 115.06 C4.73 115.06 5.26 114.34 5.26 112.92 C5.26 111.49 4.81 110.83
								 3.84 110.83 ZM13.17 124.71 A3.48346 3.48734 0 0 1 10.54 123.67 A3.84882 3.8531 0 0 1 9.53 120.89
								 A4.21732 4.22201 0 0 1 10.6 117.85 A3.71024 3.71436 0 0 1 13.43 116.73 A3.46457 3.46842 0 0 1 16.09
								 117.73 A3.9748 3.97922 0 0 1 17.04 120.57 A4.20472 4.2094 0 0 1 15.98 123.59 A3.69134 3.69544 0
								 0 1 13.17 124.71 ZM13.34 118.6 C12.31 118.6 11.79 119.33 11.79 120.77 C11.79 122.14 12.29 122.83
								 13.3 122.83 C14.3 122.83 14.81 122.11 14.81 120.69 A2.55118 2.55402 -180 0 0 14.41 119.15 A1.25984
								 1.26124 -180 0 0 13.34 118.61 L13.34 118.6 Z" class="st2"/>
				</g>
			</g>
		</g>
	</g>
</svg>
