<?xml version="1.0" encoding="UTF-8" standalone="no"?>
<!-- Generated by Microsoft Visio, SVG Export App Spaces.svg Page-1 -->

<svg
   xmlns:dc="http://purl.org/dc/elements/1.1/"
   xmlns:cc="http://creativecommons.org/ns#"
   xmlns:rdf="http://www.w3.org/1999/02/22-rdf-syntax-ns#"
   xmlns:svg="http://www.w3.org/2000/svg"
   xmlns="http://www.w3.org/2000/svg"
   xmlns:sodipodi="http://sodipodi.sourceforge.net/DTD/sodipodi-0.dtd"
   xmlns:inkscape="http://www.inkscape.org/namespaces/inkscape"
   width="0.78738302in"
   height="0.78750247in"
   viewBox="0 0 56.691401 56.699863"
   xml:space="preserve"
   class="st4"
   version="1.1"
   id="svg32"
   sodipodi:docname="App Spaces.svg"
   style="font-size:12px;overflow:visible;color-interpolation-filters:sRGB;fill:none;fill-rule:evenodd;stroke-linecap:square;stroke-miterlimit:3"
   inkscape:version="0.92.5 (2060ec1f9f, 2020-04-08)"><metadata
   id="metadata36"><rdf:RDF><cc:Work
       rdf:about=""><dc:format>image/svg+xml</dc:format><dc:type
         rdf:resource="http://purl.org/dc/dcmitype/StillImage" /></cc:Work></rdf:RDF></metadata><sodipodi:namedview
   pagecolor="#ffffff"
   bordercolor="#666666"
   borderopacity="1"
   objecttolerance="10"
   gridtolerance="10"
   guidetolerance="10"
   inkscape:pageopacity="0"
   inkscape:pageshadow="2"
   inkscape:window-width="640"
   inkscape:window-height="480"
   id="namedview34"
   showgrid="false"
   inkscape:zoom="1.6462421"
   inkscape:cx="37.837317"
   inkscape:cy="26.327816"
   inkscape:window-x="0"
   inkscape:window-y="0"
   inkscape:window-maximized="0"
   inkscape:current-layer="svg32" />
	<style
   type="text/css"
   id="style2">
	<![CDATA[
		.st1 {fill:url(#grad0-5);stroke:none;stroke-linecap:butt;stroke-width:16.7488}
		.st2 {fill:#32bedd;stroke:none;stroke-linecap:butt;stroke-width:16.8086}
		.st3 {fill:#50e6ff;stroke:none;stroke-linecap:butt;stroke-width:16.2232}
		.st4 {fill:none;fill-rule:evenodd;font-size:12px;overflow:visible;stroke-linecap:square;stroke-miterlimit:3}
	]]>
	</style>

	<defs
   id="Patterns_And_Gradients">
		<linearGradient
   id="grad0-5"
   x1="5.6837508e-15"
   y1="65.795904"
   x2="51.816326"
   y2="65.795904"
   gradientTransform="scale(1.0938637,0.91419064)"
   gradientUnits="userSpaceOnUse">
			<stop
   offset="0"
   stop-color="#5ea0ef"
   stop-opacity="1"
   id="stop4" />
			<stop
   offset="1"
   stop-color="#0078d4"
   stop-opacity="1"
   id="stop6" />
		</linearGradient>
	</defs>
	<g
   id="g30"
   transform="translate(-16.7458,-16.804429)">
		<title
   id="title10">Page-1</title>
		<g
   id="group17103-1"
   transform="translate(16.7458,-34.0157)">
			<title
   id="title12">App Spaces.17103</title>
			<g
   id="shape17104-2"
   transform="translate(0,-3.63391)">
				<title
   id="title14">path17288</title>
				<path
   d="m 9.66,81.17 c 0,9.47 7.73,17.17 17.23,17.17 7.8,0 14.14,-6.32 14.14,-14.09 0,-0.58 0.44,-1.06 1.02,-1.11 a 1.12572,1.12198 0 0 1 1.21,0.91 13.6345,13.5893 0 0 1 0.22,2.44 c 0,9.65 -7.88,17.5 -17.56,17.5 -12.34,0 -22.38,-10.01 -22.38,-22.31 a 1.77,1.7641289 -180 1 0 -3.54,0 c 0,14.24 11.63,25.84 25.92,25.84 11.64,0 21.1,-9.43 21.1,-21.03 0,-9.47 -7.73,-17.17 -17.23,-17.17 -7.8,0 -14.14,6.32 -14.14,14.09 a 1.12572,1.12198 0 0 1 -1.02,1.12 1.12572,1.12198 0 0 1 -1.21,-0.92 13.6345,13.5893 0 0 1 -0.22,-2.44 c 0,-9.64 7.88,-17.49 17.55,-17.49 12.35,0 22.39,10.01 22.39,22.31 a 1.77,1.7641289 -180 1 0 3.54,0 C 56.68,71.74 45.04,60.15 30.75,60.15 19.12,60.15 9.66,69.58 9.66,81.17 Z"
   class="st1"
   id="path16"
   inkscape:connector-curvature="0"
   style="fill:url(#grad0-5);stroke:none;stroke-width:16.74880028;stroke-linecap:butt" />
			</g>
			<g
   id="shape17105-6"
   transform="translate(2.97139)">
				<title
   id="title19">path17290</title>
				<path
   d="m 44.24,100.43 v 4.73 a 2.37007,2.3622 -180 0 0 2.37,2.36 h 4.74 a 2.37007,2.3622 -180 0 0 2.37,-2.36 v -4.73 a 2.37007,2.3622 -180 0 0 -2.37,-2.36 h -4.74 a 2.37007,2.3622 -180 0 0 -2.37,2.36 z M 0,58.7 v 3.15 a 1.58004,1.5748 -180 0 0 1.58,1.57 H 4.74 A 1.58004,1.5748 -180 0 0 6.32,61.85 V 58.7 A 1.58004,1.5748 -180 0 0 4.74,57.12 H 1.58 A 1.58004,1.5748 -180 0 0 0,58.7 Z m 47.4,-6.3 v 3.15 a 1.58004,1.5748 -180 0 0 1.58,1.57 h 3.16 a 1.58004,1.5748 -180 0 0 1.58,-1.57 V 52.4 A 1.58004,1.5748 -180 0 0 52.14,50.82 H 48.98 A 1.58004,1.5748 -180 0 0 47.4,52.4 Z"
   class="st2"
   id="path21"
   inkscape:connector-curvature="0"
   style="fill:#32bedd;stroke:none;stroke-width:16.80859947;stroke-linecap:butt" />
			</g>
			<g
   id="shape17106-8"
   transform="translate(22.3418,-18.8373)">
				<title
   id="title24">path17292</title>
				<path
   d="M 0,102.96 V 106 a 1.52503,1.51997 -180 0 0 1.53,1.52 H 4.58 A 1.52503,1.51997 -180 0 0 6.1,106 v -3.04 A 1.52503,1.51997 -180 0 0 4.58,101.44 H 1.53 A 1.52503,1.51997 -180 0 0 0,102.96 Z M 6.1,90.8 v 3.04 a 1.52503,1.51997 -180 0 0 1.53,1.52 h 3.05 A 1.52503,1.51997 -180 0 0 12.2,93.84 V 90.8 A 1.52503,1.51997 -180 0 0 10.68,89.28 H 7.63 A 1.52503,1.51997 -180 0 0 6.1,90.8 Z"
   class="st3"
   id="path26"
   inkscape:connector-curvature="0"
   style="fill:#50e6ff;stroke:none;stroke-width:16.22319984;stroke-linecap:butt" />
			</g>
		</g>
	</g>
</svg>