<?xml version="1.0" encoding="UTF-8" standalone="no"?>
<!DOCTYPE svg PUBLIC "-//W3C//DTD SVG 1.1//EN" "http://www.w3.org/Graphics/SVG/1.1/DTD/svg11.dtd">
<!-- Generated by Microsoft Visio, SVG Export Application Proxy.svg Page-1 -->
<svg xmlns="http://www.w3.org/2000/svg" xmlns:xlink="http://www.w3.org/1999/xlink" xmlns:ev="http://www.w3.org/2001/xml-events"
		width="2.4874in" height="2.4874in" viewBox="0 0 179.093 179.093" xml:space="preserve" color-interpolation-filters="sRGB"
		class="st4">
	<style type="text/css">
	<![CDATA[
		.st1 {fill:#0072c6;stroke:none;stroke-linecap:butt;stroke-width:61.2}
		.st2 {fill:#b8d432;stroke:none;stroke-linecap:butt;stroke-width:61.2}
		.st3 {fill:#ffffff;stroke:none;stroke-linecap:butt;stroke-width:61.2}
		.st4 {fill:none;fill-rule:evenodd;font-size:12px;overflow:visible;stroke-linecap:square;stroke-miterlimit:3}
	]]>
	</style>

	<g>
		<title>Page-1</title>
		<g id="group7098-1" transform="translate(61.2,-61.2)">
			<title>Application Proxy.7098</title>
			<g id="group7099-2">
				<title>Sheet.7099</title>
				<g id="shape7100-3" transform="translate(0,-8.5859)">
					<title>Sheet.7100</title>
					<path d="M0 130.99 L13.66 130.99 L13.66 144.91 L0 144.91 L0 130.99 ZM16.15 130.99 L31.06 130.99 L31.06 144.91
								 L16.15 144.91 L16.15 130.99 ZM33.54 130.99 L47.2 130.99 L47.2 144.91 L33.54 144.91 L33.54 130.99
								 ZM0 147.44 L13.66 147.44 L13.66 161.37 L0 161.37 L0 147.44 ZM16.15 147.44 L31.06 147.44 L31.06 161.37
								 L16.15 161.37 L16.15 147.44 ZM33.54 147.44 L47.2 147.44 L47.2 161.37 L33.54 161.37 L33.54 147.44
								 ZM0 163.9 L13.66 163.9 L13.66 179.09 L0 179.09 L0 163.9 ZM16.15 163.9 L31.06 163.9 L31.06 179.09
								 L16.15 179.09 L16.15 163.9 ZM33.54 163.9 L47.2 163.9 L47.2 179.09 L33.54 179.09 L33.54 163.9 Z"
							class="st1"/>
				</g>
				<g id="shape7101-5" transform="translate(8.30551,-2.55795E-13)">
					<title>Sheet.7101</title>
					<path d="M24.14 179.09 A4.53543 4.62151 0 0 1 20.96 177.71 L1.35 157.73 A4.54252 4.62873 0 0 1 0 154.49 A4.53543
								 4.62151 0 0 1 1.35 151.24 L20.96 131.26 C21.83 130.37 22.99 129.88 24.15 129.88 C25.31 129.88 26.47
								 130.37 27.34 131.26 L47.04 151.33 C47.91 152.22 48.39 153.31 48.39 154.58 A4.53543 4.62151 0 0 1
								 47.03 157.83 L27.33 177.71 A4.53543 4.62151 0 0 1 24.14 179.09 Z" class="st2"/>
				</g>
				<g id="shape7102-7" transform="translate(14.485,-4.33266)">
					<title>Sheet.7102</title>
					<path d="M17.96 138.55 L11.59 145.05 L16.13 145.05 L16.13 154.49 L19.9 154.49 L19.9 145.05 L24.34 145.05 L17.96
								 138.55 ZM17.96 179.09 L24.34 172.6 L19.8 172.6 L19.8 163.35 L16.03 163.35 L16.03 172.6 L11.59 172.6
								 L17.96 179.09 ZM20.96 158.82 L27.33 165.32 L27.33 160.79 L35.93 160.79 L35.93 156.85 L27.33 156.85
								 L27.33 152.32 L20.96 158.82 ZM15.07 158.82 L8.69 152.32 L8.69 156.85 L0 156.85 L0 160.79 L8.69 160.79
								 L8.69 165.32 L15.07 158.82 Z" class="st3"/>
				</g>
			</g>
		</g>
	</g>
</svg>
