<?xml version="1.0" encoding="UTF-8" standalone="no"?>
<!DOCTYPE svg PUBLIC "-//W3C//DTD SVG 1.1//EN" "http://www.w3.org/Graphics/SVG/1.1/DTD/svg11.dtd">
<!-- Generated by Microsoft Visio, SVG Export Application Configuration.svg Page-1 -->
<svg xmlns="http://www.w3.org/2000/svg" xmlns:xlink="http://www.w3.org/1999/xlink" xmlns:ev="http://www.w3.org/2001/xml-events"
		width="1.1274in" height="1.42984in" viewBox="0 0 81.1729 102.949" xml:space="preserve" color-interpolation-filters="sRGB"
		class="st5">
	<style type="text/css">
	<![CDATA[
		.st1 {fill:#59b4d9;stroke:none;stroke-linecap:butt;stroke-width:12.24}
		.st2 {fill:#fcd116;stroke:none;stroke-linecap:butt;stroke-width:12.24}
		.st3 {fill:#57a300;stroke:none;stroke-linecap:butt;stroke-width:12.24}
		.st4 {fill:#ffffff;fill-opacity:0.2;stroke:none;stroke-linecap:butt;stroke-width:12.24}
		.st5 {fill:none;fill-rule:evenodd;font-size:12px;overflow:visible;stroke-linecap:square;stroke-miterlimit:3}
	]]>
	</style>

	<g>
		<title>Page-1</title>
		<g id="group7780-1" transform="translate(12.24,-34.0157)">
			<title>Application Configuration.7780</title>
			<g id="group7781-2">
				<title> Azure_AppConfiguration</title>
				<g id="shape7782-3" transform="translate(-2.79776E-13,-18.8826)">
					<title>Sheet.7782</title>
					<path d="M48.66 81.02 C48.66 80.58 48.77 80.02 48.77 79.57 A14.23 14.3959 -180 0 0 34.39 65.25 A13.9547 14.1174
								 -180 0 0 22.78 71.07 A10.2909 10.4109 -180 0 0 17.03 69.39 A10.8315 10.9578 -180 0 0 6.2 80.25 L6.2
								 81.14 A10.7224 10.8474 -180 0 0 0 90.98 A11.9759 12.1155 -180 0 0 12.39 102.95 L42.91 102.95 A11.9759
								 12.1155 -180 0 0 55.3 90.98 A10.4893 10.6116 -180 0 0 48.66 81.02 Z" class="st1"/>
				</g>
				<g id="shape7783-5" transform="translate(21.4869,-0.826599)">
					<title>Sheet.7783</title>
					<path d="M4.84 88.77 L6.01 91.57 L3.39 96.21 L6.26 99.12 L11 96.87 L13.77 98.05 L15.21 102.43 L15.36 102.95 L19.44
								 102.95 L21.15 98.05 L23.92 96.87 L28 99 L28.51 99.26 L31.38 96.35 L29.2 91.79 L30.36 88.99 L34.7
								 87.52 L35.21 87.37 L35.21 83.24 L30.37 81.51 L29.21 78.71 L31.31 74.59 L31.57 74.07 L28.8 71.16
								 L24.21 73.41 L21.45 72.23 L19.99 67.85 L19.73 67.33 L15.83 67.33 L14.12 72.23 L11.36 73.41 L7.28
								 71.28 L6.77 71.02 L4.04 74.33 L6.01 78.57 L4.84 81.37 L0.51 82.84 L0 83.1 L0 87.04 L4.84 88.77 ZM11.98
								 85.2 A5.64387 5.70968 0 1 1 17.62 90.9 A5.5794 5.64446 0 0 1 11.98 85.2 Z" class="st2"/>
				</g>
				<g id="shape7784-7" transform="translate(5.36242,-2.84217E-13)">
					<title>Sheet.7784</title>
					<path d="M3.4 97.89 L4.48 99.06 L4.02 101.83 L5.96 102.73 L7.89 100.76 L9.46 100.83 L10.96 102.72 L11.13 102.95
								 L13.14 102.2 L13.1 99.47 L14.25 98.38 L16.65 98.68 L16.94 98.72 L17.84 96.76 L15.94 94.91 L16.02
								 93.31 L17.89 91.79 L18.11 91.63 L17.37 89.6 L14.67 89.63 L13.6 88.47 L13.9 86.05 L13.93 85.75 L12.04
								 84.82 L10.18 86.77 L8.61 86.7 L7.11 84.8 L6.89 84.6 L4.97 85.31 L5.01 88.04 L3.85 89.13 L1.47 88.83
								 L1.17 88.8 L0.42 90.93 L2.15 92.66 L2.08 94.25 L0.2 95.77 L0 95.99 L0.71 97.93 L3.4 97.89 ZM6.28
								 94.82 A2.96328 2.99783 0 1 1 10.08 96.6 A2.92981 2.96397 0 0 1 6.28 94.82 Z" class="st3"/>
				</g>
				<g id="shape7785-9" transform="translate(2.79776E-13,-19.2187)">
					<title>Sheet.7785</title>
					<path d="M7.75 96.8 C7.75 92.21 10.07 88.63 14.38 86.39 L14.38 85.5 A11.6039 11.7392 0 0 1 31.96 75.65 A15.2888
								 15.4671 0 0 1 44.35 69.28 A14.9788 15.1535 -180 0 0 34.39 65.47 A14.349 14.5163 -180 0 0 22.78 71.4
								 A10.2909 10.4109 -180 0 0 17.03 69.73 A10.8315 10.9578 -180 0 0 6.2 80.58 L6.2 81.48 A10.7224 10.8474
								 -180 0 0 0 91.31 A11.7254 11.8621 -180 0 0 9.3 102.95 A12.4148 12.5595 0 0 1 7.75 96.8 Z"
							class="st4"/>
				</g>
			</g>
		</g>
	</g>
</svg>
