<?xml version="1.0" encoding="UTF-8" standalone="no"?>
<!DOCTYPE svg PUBLIC "-//W3C//DTD SVG 1.1//EN" "http://www.w3.org/Graphics/SVG/1.1/DTD/svg11.dtd">
<!-- Generated by Microsoft Visio, SVG Export Azure Maps Account.svg Page-1 -->
<svg xmlns="http://www.w3.org/2000/svg" xmlns:xlink="http://www.w3.org/1999/xlink" xmlns:ev="http://www.w3.org/2001/xml-events"
		width="0.944882in" height="1.33858in" viewBox="0 0 68.0315 96.378" xml:space="preserve" color-interpolation-filters="sRGB"
		class="st5">
	<style type="text/css">
	<![CDATA[
		.st1 {fill:url(#grad0-6);stroke:none;stroke-linecap:butt;stroke-width:5.32174}
		.st2 {fill:#9cebff;stroke:none;stroke-linecap:butt;stroke-width:5.32174}
		.st3 {fill:#ffffff;fill-opacity:0.7;stroke:none;stroke-linecap:butt;stroke-width:5.32174}
		.st4 {fill:#32bedd;stroke:none;stroke-linecap:butt;stroke-width:5.32174}
		.st5 {fill:none;fill-rule:evenodd;font-size:12px;overflow:visible;stroke-linecap:square;stroke-miterlimit:3}
	]]>
	</style>

	<defs id="Patterns_And_Gradients">
		<linearGradient id="grad0-6" x1="0" y1="0" x2="1" y2="0" gradientTransform="rotate(-90 0.5 0.5)">
			<stop offset="0" stop-color="#198ab3" stop-opacity="1"/>
			<stop offset="0.44" stop-color="#28b7db" stop-opacity="1"/>
			<stop offset="0.775" stop-color="#32d4f5" stop-opacity="1"/>
		</linearGradient>
	</defs>
	<g>
		<title>Page-1</title>
		<g id="group7697-1" transform="translate(5.66929,-34.0157)">
			<title>Azure Maps Account.7697</title>
			<g id="group7698-2">
				<title> atlasicon</title>
				<g id="shape7699-3">
					<title>Sheet.7699</title>
					<path d="M43.74 87.87 C32.78 96.38 17.04 94.38 8.52 83.44 C0 72.5 2 56.77 12.96 48.26 C13.03 48.19 13.1 48.12
								 13.24 48.05 C24.27 39.69 40.01 41.9 48.39 52.91 C56.69 63.92 54.62 79.43 43.74 87.87 Z"
							class="st1"/>
				</g>
				<g id="shape7700-7" transform="translate(13.6722,-17.0145)">
					<title>Sheet.7700</title>
					<path d="M18.68 66.71 L0 96.38 L23.41 87.3 L18.68 66.71 L18.68 66.71 Z" class="st2"/>
				</g>
				<g id="shape7701-9" transform="translate(28.5612,-12.582)">
					<title>Sheet.7701</title>
					<path d="M0 68.28 L11.6 96.38 L3.79 62.28 L0 68.28 L0 68.28 Z" class="st3"/>
				</g>
				<g id="shape7702-11" transform="translate(27.9168,-12.5109)">
					<title>Sheet.7702</title>
					<path d="M0 86.37 L7.02 83.65 L12.24 96.38 L0 86.37 L0 86.37 Z" class="st4"/>
				</g>
			</g>
		</g>
	</g>
</svg>
