<?xml version="1.0" encoding="UTF-8" standalone="no"?>
<!-- Generated by Microsoft Visio, SVG Export Container App.svg Page-1 -->

<svg
   xmlns:dc="http://purl.org/dc/elements/1.1/"
   xmlns:cc="http://creativecommons.org/ns#"
   xmlns:rdf="http://www.w3.org/1999/02/22-rdf-syntax-ns#"
   xmlns:svg="http://www.w3.org/2000/svg"
   xmlns="http://www.w3.org/2000/svg"
   xmlns:sodipodi="http://sodipodi.sourceforge.net/DTD/sodipodi-0.dtd"
   xmlns:inkscape="http://www.inkscape.org/namespaces/inkscape"
   width="0.78750461in"
   height="0.74795675in"
   viewBox="0 0 56.700494 53.853027"
   xml:space="preserve"
   class="st8"
   version="1.1"
   id="svg75"
   sodipodi:docname="Container App.svg"
   style="font-size:12px;overflow:visible;color-interpolation-filters:sRGB;fill:none;fill-rule:evenodd;stroke-linecap:square;stroke-miterlimit:3"
   inkscape:version="0.92.5 (2060ec1f9f, 2020-04-08)"><metadata
   id="metadata79"><rdf:RDF><cc:Work
       rdf:about=""><dc:format>image/svg+xml</dc:format><dc:type
         rdf:resource="http://purl.org/dc/dcmitype/StillImage" /></cc:Work></rdf:RDF></metadata><sodipodi:namedview
   pagecolor="#ffffff"
   bordercolor="#666666"
   borderopacity="1"
   objecttolerance="10"
   gridtolerance="10"
   guidetolerance="10"
   inkscape:pageopacity="0"
   inkscape:pageshadow="2"
   inkscape:window-width="640"
   inkscape:window-height="480"
   id="namedview77"
   showgrid="false"
   inkscape:zoom="1.4523234"
   inkscape:cx="37.801161"
   inkscape:cy="35.894529"
   inkscape:window-x="0"
   inkscape:window-y="0"
   inkscape:window-maximized="0"
   inkscape:current-layer="svg75" />
	<style
   type="text/css"
   id="style2">
	<![CDATA[
		.st1 {fill:#32bedd;stroke:none;stroke-linecap:butt;stroke-width:34}
		.st2 {fill:#ffffff;stroke:none;stroke-linecap:butt;stroke-width:34}
		.st3 {fill:#a67af4;stroke:none;stroke-linecap:butt;stroke-width:34}
		.st4 {fill:url(#grad0-12);stroke:none;stroke-linecap:butt;stroke-width:34}
		.st5 {fill:url(#grad0-16);stroke:none;stroke-linecap:butt;stroke-width:34}
		.st6 {fill:#b796f9;fill-opacity:0.5;stroke:none;stroke-linecap:butt;stroke-width:34}
		.st7 {fill:#773adc;stroke:none;stroke-linecap:butt;stroke-width:34}
		.st8 {fill:none;fill-rule:evenodd;font-size:12px;overflow:visible;stroke-linecap:square;stroke-miterlimit:3}
	]]>
	</style>

	<defs
   id="Patterns_And_Gradients">
		<linearGradient
   id="grad0-12"
   x1="-0.0036785412"
   y1="58.74412"
   x2="22.122485"
   y2="58.74412"
   gradientTransform="scale(0.66357827,1.5069812)"
   gradientUnits="userSpaceOnUse">
			<stop
   offset="0"
   stop-color="#773adc"
   stop-opacity="1"
   id="stop4" />
			<stop
   offset="1"
   stop-color="#552f99"
   stop-opacity="1"
   id="stop6" />
		</linearGradient>
		<linearGradient
   id="grad0-16"
   x1="-0.0012920248"
   y1="67.001843"
   x2="25.197383"
   y2="67.001843"
   gradientTransform="scale(0.75648462,1.3219039)"
   gradientUnits="userSpaceOnUse">
			<stop
   offset="0"
   stop-color="#a67af4"
   stop-opacity="1"
   id="stop9" />
			<stop
   offset="1"
   stop-color="#773adc"
   stop-opacity="1"
   id="stop11" />
		</linearGradient>
	</defs>
	<g
   id="g73"
   transform="translate(-33.996544,-34.004944)">
		<title
   id="title15">Page-1</title>
		<g
   id="group14265-1"
   transform="translate(34.0017,-34.0157)">
			<title
   id="title17">Container App.14265</title>
			<g
   id="group14266-2">
				<title
   id="title19">Sheet.14266</title>
				<g
   id="shape14267-3"
   transform="translate(4.0063,-1.73935)">
					<title
   id="title21">Sheet.14267</title>
					<path
   d="m 49.32,104.63 a 26.6079,26.0533 0 0 1 -25.04,17.24 25.6693,25.1343 0 0 1 -7.34,-1.01 6.71811,6.57809 -180 0 0 0.57,-2.56 c 0.03,0 0.1,0.03 0.13,0.03 a 23.3764,22.8891 -180 0 0 6.64,0.92 24.0819,23.58 -180 0 0 21.58,-13.2 l 0.03,-0.03 z M 7.28,112.31 A 6.37795,6.24502 -180 0 0 5.26,114.04 27.0866,26.5221 0 0 1 0,106.52 l 3.28,0.71 v 0.8 a 1.88976,1.85038 -180 0 0 1.48,1.82 l 0.44,0.09 a 19.326,18.9232 -180 0 0 1.95,2.25 z M 34.9,71.88 a 7.1811,7.03143 -180 0 0 -0.85,2.5 C 33.98,74.35 33.89,74.32 33.83,74.29 A 23.5559,23.0649 -180 0 0 24.28,72.35 24.0724,23.5707 -180 0 0 5.7,80.98 l -0.91,0.19 a 1.88976,1.85038 -180 0 0 -1.51,1.78 v 1.42 L 0.06,84.96 A 26.6268,26.0718 0 0 1 24.28,69.76 27.0866,26.5221 0 0 1 34.9,71.88 Z M 49.13,86.51 45.7,85.34 A 20.7874,20.3541 -180 0 0 43.43,81.76 C 43.37,81.67 43.31,81.6 43.28,81.54 a 6.56063,6.42389 -180 0 0 2.26,-1.39 24.5984,24.0857 0 0 1 3.59,6.36 z"
   class="st1"
   id="path23"
   inkscape:connector-curvature="0"
   style="fill:#32bedd;stroke:none;stroke-width:34;stroke-linecap:butt" />
				</g>
				<g
   id="shape14268-5"
   transform="translate(26.6835,-11.1701)">
					<title
   id="title26">Sheet.14268</title>
					<path
   d="m 5.04,115.08 8,1.73 -12.41,5.03 c -0.06,0 -0.09,0.03 -0.16,0.03 a 0.485039,0.47493 0 0 1 -0.472441,-0.46259 L 0,88.99 a 0.485039,0.47493 0 0 1 0.472441,-0.462594 0.283465,0.277556 0 0 1 0.15748,0.03084 L 14.68,93.37 5.07,95.13 A 1.77953,1.74244 -180 0 0 3.69,96.8 v 16.65 a 1.69134,1.65609 -180 0 0 1.35,1.63 z"
   class="st2"
   id="path28"
   inkscape:connector-curvature="0"
   style="fill:#ffffff;stroke:none;stroke-width:34;stroke-linecap:butt" />
				</g>
				<g
   id="shape14269-7"
   transform="translate(0,-17.7143)">
					<title
   id="title31">Sheet.14269</title>
					<path
   d="m 3.46,102.38 3.82,-0.71 v 20.2 L 3.4,121.04 0.28,120.36 a 0.349606,0.342319 0 0 1 -0.283465,-0.37008 L 0,103.34 a 0.377953,0.370075 0 0 1 0.283465,-0.37007 z"
   class="st3"
   id="path33"
   inkscape:connector-curvature="0"
   style="fill:#a67af4;stroke:none;stroke-width:34;stroke-linecap:butt" />
				</g>
				<g
   id="shape14270-9"
   transform="translate(26.6835,-11.1701)">
					<title
   id="title36">Sheet.14270</title>
					<path
   d="m 5.04,115.08 8,1.73 -12.41,5.03 c -0.06,0 -0.09,0.03 -0.16,0.03 a 0.485039,0.47493 0 0 1 -0.472441,-0.46259 L 0,88.99 a 0.485039,0.47493 0 0 1 0.472441,-0.462594 0.283465,0.277556 0 0 1 0.15748,0.03084 L 14.68,93.37 5.07,95.13 A 1.77953,1.74244 -180 0 0 3.69,96.8 v 16.65 a 1.69134,1.65609 -180 0 0 1.35,1.63 z"
   class="st4"
   id="path38"
   inkscape:connector-curvature="0"
   style="fill:url(#grad0-12);stroke:none;stroke-width:34;stroke-linecap:butt" />
				</g>
				<g
   id="shape14271-13"
   transform="translate(8.62362,-11.2009)">
					<title
   id="title41">Sheet.14271</title>
					<path
   d="M 18.42,88.57 0.44,91.89 A 0.55748,0.545861 -180 0 0 -9.45e-4,92.429693 L 0,117.49 a 0.55748,0.545861 -180 0 0 0.431496,0.53661 L 18.4,121.87 a 0.554331,0.542777 -180 0 0 0.661417,-0.53661 L 19.06,89.12 a 0.551181,0.539693 -180 0 0 -0.541732,-0.548945 z"
   class="st5"
   id="path43"
   inkscape:connector-curvature="0"
   style="fill:url(#grad0-16);stroke:none;stroke-width:34;stroke-linecap:butt" />
				</g>
				<g
   id="shape14272-17"
   transform="translate(11.052,-15.1669)">
					<title
   id="title46">Sheet.14272</title>
					<path
   d="m 7.68,97.53 v 23.32 l 6.26,1.02 V 96.43 Z M 0,98.79 v 20.43 l 5.45,1.12 V 97.87 Z"
   class="st6"
   id="path48"
   inkscape:connector-curvature="0"
   style="fill:#b796f9;fill-opacity:0.5;stroke:none;stroke-width:34;stroke-linecap:butt" />
				</g>
				<g
   id="shape14273-19"
   transform="translate(40.9576,-44.5572)">
					<title
   id="title51">Sheet.14273</title>
					<path
   d="m 9.44,118.06 a 5.52756,5.41235 0 1 1 -5.55,-5.43 5.53071,5.41543 0 0 1 5.55,5.43 z"
   class="st1"
   id="path53"
   inkscape:connector-curvature="0"
   style="fill:#32bedd;stroke:none;stroke-width:34;stroke-linecap:butt" />
				</g>
				<g
   id="shape14274-21"
   transform="translate(9.10551)">
					<title
   id="title56">Sheet.14274</title>
					<ellipse
   cx="5.5401602"
   cy="116.449"
   rx="5.5401602"
   ry="5.4246802"
   class="st1"
   id="ellipse58"
   style="fill:#32bedd;stroke:none;stroke-width:34;stroke-linecap:butt" />
				</g>
				<g
   id="shape14275-23"
   transform="translate(43.7228,-16.6952)">
					<title
   id="title61">Sheet.14275</title>
					<path
   d="m 12.97,104.51 v 11.86 a 0.699213,0.684639 0 0 1 -0.418898,0.61679 L 10.14,117.96 0.47,121.87 H 0.43 a 0.39685,0.388579 0 0 1 -0.119685,0 0.314961,0.308396 0 0 1 -0.314961,-0.3084 L 0,100.03 A 0.314961,0.308396 0 0 1 0.170079,99.758612 L 0.23,99.75 a 0.0976378,0.0956027 0 0 1 0.0598425,0 0.173228,0.169618 0 0 1 0.107087,0.02467 L 0.47,99.78 9.98,103 l 2.52,0.87 a 0.670866,0.656883 0 0 1 0.472441,0.63838 z"
   class="st7"
   id="path63"
   inkscape:connector-curvature="0"
   style="fill:#773adc;stroke:none;stroke-width:34;stroke-linecap:butt" />
				</g>
				<g
   id="shape14276-25"
   transform="translate(31.7039,-16.6657)">
					<title
   id="title66">Sheet.14276</title>
					<path
   d="m 12.26,99.71 -11.97,2.2 a 0.371654,0.363907 -180 0 0 -0.292913,0.36082 L 0,118.95 a 0.371654,0.363907 -180 0 0 0.286614,0.35774 L 12.26,121.87 a 0.362205,0.354655 -180 0 0 0.431496,-0.27756 0.343307,0.336152 -180 0 0 0,-0.0802 L 12.69,100.06 a 0.368504,0.360823 -180 0 0 -0.362205,-0.363907 0.258268,0.252885 -180 0 0 -0.06299,0.0062 z"
   class="st3"
   id="path68"
   inkscape:connector-curvature="0"
   style="fill:#a67af4;stroke:none;stroke-width:34;stroke-linecap:butt" />
				</g>
			</g>
		</g>
	</g>
</svg>