<?xml version="1.0" encoding="UTF-8" standalone="no"?>
<!DOCTYPE svg PUBLIC "-//W3C//DTD SVG 1.1//EN" "http://www.w3.org/Graphics/SVG/1.1/DTD/svg11.dtd">
<!-- Generated by Microsoft Visio, SVG Export DICOM service.svg Page-1 -->
<svg xmlns="http://www.w3.org/2000/svg" xmlns:xlink="http://www.w3.org/1999/xlink" xmlns:ev="http://www.w3.org/2001/xml-events"
		width="1.73185in" height="1.49584in" viewBox="0 0 124.693 107.701" xml:space="preserve" color-interpolation-filters="sRGB"
		class="st4">
	<style type="text/css">
	<![CDATA[
		.st1 {fill:url(#grad0-6);stroke:none;stroke-linecap:butt;stroke-width:34}
		.st2 {fill:#ffffff;stroke:none;stroke-linecap:butt;stroke-width:34}
		.st3 {fill:url(#grad0-12);stroke:none;stroke-linecap:butt;stroke-width:34}
		.st4 {fill:none;fill-rule:evenodd;font-size:12px;overflow:visible;stroke-linecap:square;stroke-miterlimit:3}
	]]>
	</style>

	<defs id="Patterns_And_Gradients">
		<linearGradient id="grad0-6" x1="0" y1="0" x2="1" y2="0" gradientTransform="rotate(-90 0.5 0.5)">
			<stop offset="0" stop-color="#0078d4" stop-opacity="1"/>
			<stop offset="0.155" stop-color="#1380da" stop-opacity="1"/>
			<stop offset="0.53" stop-color="#3c91e5" stop-opacity="1"/>
			<stop offset="0.82" stop-color="#559cec" stop-opacity="1"/>
			<stop offset="1" stop-color="#5ea0ef" stop-opacity="1"/>
		</linearGradient>
		<linearGradient id="grad0-12" x1="0" y1="0" x2="1" y2="0" gradientTransform="rotate(-90 0.5 0.5)">
			<stop offset="0" stop-color="#ef7100" stop-opacity="1"/>
			<stop offset="1" stop-color="#faa21d" stop-opacity="1"/>
		</linearGradient>
	</defs>
	<g>
		<title>Page-1</title>
		<g id="group13577-1" transform="translate(34,-34.0157)">
			<title>DICOM service.13577</title>
			<g id="group13578-2">
				<title>Sheet.13578</title>
				<g id="shape13579-3" transform="translate(0,-1.06908)">
					<title>Sheet.13579</title>
					<path d="M0 105.86 A1.88981 1.84329 -180 0 0 1.89 107.7 L54.8 107.7 A1.88981 1.84329 -180 0 0 56.69 105.86 L56.69
								 70.93 A1.88981 1.84329 -180 0 0 54.8 69.08 L1.89 69.08 A1.88981 1.84329 -180 0 0 0 70.93 L0 105.86
								 Z" class="st1"/>
				</g>
				<g id="shape13580-7" transform="translate(3.65354,-4.8846)">
					<title>Sheet.13580</title>
					<path d="M1.16 86.37 A1.15906 1.13052 0 0 1 0 85.24 L0 77.84 A1.15591 1.12745 0 0 1 1.16 76.72 L8.26 76.72 A1.15906
								 1.13052 0 0 1 8.26 78.98 L2.33 78.98 L2.33 85.24 A1.15591 1.12745 0 0 1 1.17 86.37 L1.16 86.37 ZM48.22
								 86.37 A1.15591 1.12745 0 0 1 47.07 85.24 L47.07 78.98 L41.12 78.98 A1.15906 1.13052 0 0 1 41.12
								 76.72 L48.22 76.72 A1.15906 1.13052 0 0 1 49.39 77.84 L49.39 85.24 A1.15591 1.12745 0 0 1 48.23
								 86.37 L48.22 86.37 ZM8.26 107.7 L1.16 107.7 A1.15906 1.13052 0 0 1 0 106.57 L0 99.17 A1.15906 1.13052
								 0 1 1 2.32 99.17 L2.32 105.44 L8.26 105.44 A1.15906 1.13052 0 0 1 8.26 107.7 ZM48.22 107.7 L41.12
								 107.7 A1.15906 1.13052 0 1 1 41.12 105.44 L47.06 105.44 L47.06 99.17 A1.15906 1.13052 0 0 1 49.37
								 99.17 L49.37 106.57 A1.15591 1.12745 0 0 1 48.21 107.7 L48.22 107.7 Z" class="st2"/>
				</g>
				<g id="shape13581-9" transform="translate(11.9237,-2.13163E-13)">
					<title>Sheet.13581</title>
					<path d="M24.61 77.15 A1.34173 1.3087 -180 0 0 22.55 77.05 A8.46929 8.2608 0 0 1 16.25 79.57 A8.47874 8.27002
								 0 0 1 9.99 77.08 A1.34173 1.3087 -180 0 0 7.92 77.21 L0.19 87.65 A1.02992 1.00457 -180 0 0 0.19
								 88.82 C2.64 92.16 15.6 107.7 32.61 88.82 A1.02992 1.00457 -180 0 0 32.66 87.56 L24.61 77.15 Z"
							class="st3"/>
				</g>
			</g>
		</g>
	</g>
</svg>
