<?xml version="1.0" encoding="UTF-8" standalone="no"?>
<!-- Generated by Microsoft Visio, SVG Export Event Hub Cluster.svg Page-1 -->

<svg
   xmlns:dc="http://purl.org/dc/elements/1.1/"
   xmlns:cc="http://creativecommons.org/ns#"
   xmlns:rdf="http://www.w3.org/1999/02/22-rdf-syntax-ns#"
   xmlns:svg="http://www.w3.org/2000/svg"
   xmlns="http://www.w3.org/2000/svg"
   xmlns:sodipodi="http://sodipodi.sourceforge.net/DTD/sodipodi-0.dtd"
   xmlns:inkscape="http://www.inkscape.org/namespaces/inkscape"
   width="0.78745008in"
   height="0.63003564in"
   viewBox="0 0 56.696314 45.362663"
   xml:space="preserve"
   class="st7"
   version="1.1"
   id="svg105"
   sodipodi:docname="Event Hub Cluster.svg"
   style="font-size:12px;overflow:visible;color-interpolation-filters:sRGB;fill:none;fill-rule:evenodd;stroke-linecap:square;stroke-miterlimit:3"
   inkscape:version="0.92.5 (2060ec1f9f, 2020-04-08)"><metadata
   id="metadata111"><rdf:RDF><cc:Work
       rdf:about=""><dc:format>image/svg+xml</dc:format><dc:type
         rdf:resource="http://purl.org/dc/dcmitype/StillImage" /></cc:Work></rdf:RDF></metadata><defs
   id="defs109" /><sodipodi:namedview
   pagecolor="#ffffff"
   bordercolor="#666666"
   borderopacity="1"
   objecttolerance="10"
   gridtolerance="10"
   guidetolerance="10"
   inkscape:pageopacity="0"
   inkscape:pageshadow="2"
   inkscape:window-width="640"
   inkscape:window-height="480"
   id="namedview107"
   showgrid="false"
   inkscape:zoom="1.5612629"
   inkscape:cx="37.795252"
   inkscape:cy="30.232438"
   inkscape:window-x="0"
   inkscape:window-y="0"
   inkscape:window-maximized="0"
   inkscape:current-layer="svg105" />
	<style
   type="text/css"
   id="style2">
	<![CDATA[
		.st1 {fill:#b3b3b3;stroke:none;stroke-linecap:butt;stroke-width:34}
		.st2 {fill:#b3b3b3;fill-opacity:0.5;stroke:none;stroke-linecap:butt;stroke-width:34}
		.st3 {fill:#76bc2d;stroke:none;stroke-linecap:butt;stroke-width:34}
		.st4 {fill:#5e9624;stroke:none;stroke-linecap:butt;stroke-width:34}
		.st5 {fill:#86d633;stroke:none;stroke-linecap:butt;stroke-width:34}
		.st6 {fill:#949494;stroke:none;stroke-linecap:butt;stroke-width:34}
		.st7 {fill:none;fill-rule:evenodd;font-size:12px;overflow:visible;stroke-linecap:square;stroke-miterlimit:3}
	]]>
	</style>

	<g
   id="g103"
   transform="translate(-34.000237,-33.996717)">
		<title
   id="title4">Page-1</title>
		<g
   id="group16582-1"
   transform="translate(34,-34.0157)">
			<title
   id="title6">Event Hub Cluster.16582</title>
			<g
   id="group16583-2">
				<title
   id="title8"> Icon-analytics-149</title>
				<g
   id="group16584-3"
   transform="translate(27.8632,-18.8078)">
					<title
   id="title10">Sheet.16584</title>
					<g
   id="shape16585-4"
   transform="translate(0,-0.0326525)">
						<title
   id="title12">Sheet.16585</title>
						<path
   d="m 1.07,107 h 2.16 v 5.91 a 0.466608,0.457135 0 0 1 -0.466608,0.45713 L 0.47,113.37 A 0.466608,0.457135 0 0 1 0.003392,112.91287 L 0,107.95 a 0.966546,0.946923 0 0 1 1.06653,-0.94692 z"
   class="st1"
   id="path14"
   inkscape:connector-curvature="0"
   style="fill:#b3b3b3;stroke:none;stroke-width:34;stroke-linecap:butt" />
					</g>
					<g
   id="shape16586-6"
   transform="translate(0,-0.0326525)">
						<title
   id="title17">Sheet.16586</title>
						<path
   d="m 1.07,107 h 2.16 v 5.91 a 0.466608,0.457135 0 0 1 -0.466608,0.45713 L 0.47,113.37 A 0.466608,0.457135 0 0 1 0.003392,112.91287 L 0,107.95 a 0.966546,0.946923 0 0 1 1.06653,-0.94692 z"
   class="st2"
   id="path19"
   inkscape:connector-curvature="0"
   style="fill:#b3b3b3;fill-opacity:0.5;stroke:none;stroke-width:34;stroke-linecap:butt" />
					</g>
					<g
   id="shape16587-8"
   transform="translate(25.6635)">
						<title
   id="title22">Sheet.16587</title>
						<path
   d="m 0,106.97 h 2.17 a 0.966546,0.946923 0 0 1 0.966546,0.94692 L 3.13,112.91 a 0.466608,0.457135 0 0 1 -0.466608,0.45713 L 0.47,113.37 a 0.466608,0.457135 0 0 1 -0.466608,-0.45713 z"
   class="st1"
   id="path24"
   inkscape:connector-curvature="0"
   style="fill:#b3b3b3;stroke:none;stroke-width:34;stroke-linecap:butt" />
					</g>
					<g
   id="shape16588-10"
   transform="translate(25.6635)">
						<title
   id="title27">Sheet.16588</title>
						<path
   d="m 0,106.97 h 2.17 a 0.966546,0.946923 0 0 1 0.966546,0.94692 L 3.13,112.91 a 0.466608,0.457135 0 0 1 -0.466608,0.45713 L 0.47,113.37 a 0.466608,0.457135 0 0 1 -0.466608,-0.45713 z"
   class="st2"
   id="path29"
   inkscape:connector-curvature="0"
   style="fill:#b3b3b3;fill-opacity:0.5;stroke:none;stroke-width:34;stroke-linecap:butt" />
					</g>
					<g
   id="shape16589-12"
   transform="translate(0.133317,-3.49382)">
						<title
   id="title32">Sheet.16589</title>
						<path
   d="m 28.66,111.31 v 2.06 H 0 v -2.06 a 0.966546,0.946923 0 0 1 0.966546,-0.94692 L 27.63,110.37 a 0.966546,0.946923 0 0 1 1.0332,0.94692 z"
   class="st1"
   id="path34"
   inkscape:connector-curvature="0"
   style="fill:#b3b3b3;stroke:none;stroke-width:34;stroke-linecap:butt" />
					</g>
				</g>
				<g
   id="group16590-14"
   transform="translate(27.9632)">
					<title
   id="title38">Sheet.16590</title>
					<g
   id="shape16591-15"
   transform="translate(0,-0.0326525)">
						<title
   id="title40">Sheet.16591</title>
						<path
   d="m 0.37,107 h 2.16 a 0.466608,0.457135 0 0 1 0.466608,0.45713 L 3,113.37 H 0.97 A 0.966546,0.946923 0 0 1 0.003454,112.42308 L 0,107.36 a 0.466608,0.457135 0 0 1 0.366621,-0.35918 z"
   class="st1"
   id="path42"
   inkscape:connector-curvature="0"
   style="fill:#b3b3b3;stroke:none;stroke-width:34;stroke-linecap:butt" />
					</g>
					<g
   id="shape16592-17"
   transform="translate(0,-0.0326525)">
						<title
   id="title45">Sheet.16592</title>
						<path
   d="m 0.37,107 h 2.16 a 0.466608,0.457135 0 0 1 0.466608,0.45713 L 3,113.37 H 0.97 A 0.966546,0.946923 0 0 1 0.003454,112.42308 L 0,107.36 a 0.466608,0.457135 0 0 1 0.366621,-0.35918 z"
   class="st2"
   id="path47"
   inkscape:connector-curvature="0"
   style="fill:#b3b3b3;fill-opacity:0.5;stroke:none;stroke-width:34;stroke-linecap:butt" />
					</g>
					<g
   id="shape16593-19"
   transform="translate(25.5301)">
						<title
   id="title50">Sheet.16593</title>
						<path
   d="m 0.5,106.97 h 2.17 a 0.466608,0.457135 0 0 1 0.466608,0.45713 L 3.13,112.42 a 0.966546,0.946923 0 0 1 -0.966546,0.94692 L 0,113.37 v -6.04 a 0.466608,0.457135 0 0 1 0.499938,-0.35918 z"
   class="st1"
   id="path52"
   inkscape:connector-curvature="0"
   style="fill:#b3b3b3;stroke:none;stroke-width:34;stroke-linecap:butt" />
					</g>
					<g
   id="shape16594-21"
   transform="translate(25.5301)">
						<title
   id="title55">Sheet.16594</title>
						<path
   d="m 0.5,106.97 h 2.17 a 0.466608,0.457135 0 0 1 0.466608,0.45713 L 3.13,112.42 a 0.966546,0.946923 0 0 1 -0.966546,0.94692 L 0,113.37 v -6.04 a 0.466608,0.457135 0 0 1 0.499938,-0.35918 z"
   class="st2"
   id="path57"
   inkscape:connector-curvature="0"
   style="fill:#b3b3b3;fill-opacity:0.5;stroke:none;stroke-width:34;stroke-linecap:butt" />
					</g>
					<g
   id="shape16595-23"
   transform="translate(0.0333292)">
						<title
   id="title60">Sheet.16595</title>
						<path
   d="m 0,112.42 v -2.05 h 28.7 v 2.05 a 0.966546,0.946923 0 0 1 -0.966546,0.94692 L 1.07,113.37 a 0.966546,0.946923 0 0 1 -1.06653,-0.94692 z"
   class="st1"
   id="path62"
   inkscape:connector-curvature="0"
   style="fill:#b3b3b3;stroke:none;stroke-width:34;stroke-linecap:butt" />
					</g>
				</g>
				<g
   id="shape16596-25"
   transform="translate(41.2282,-13.3549)">
					<title
   id="title66">Sheet.16596</title>
					<path
   d="m 4.07,112.95 a 0.433279,0.424483 0 0 1 -0.366621,0.42448 L 0.43,113.37 a 0.39995,0.39183 0 0 1 -0.433279,-0.39183 L 0,110.53 a 0.466608,0.457135 0 0 1 0.366621,-0.42448 L 3.7,110.1 a 0.39995,0.39183 0 0 1 0.433279,0.39183 z"
   class="st3"
   id="path68"
   inkscape:connector-curvature="0"
   style="fill:#76bc2d;stroke:none;stroke-width:34;stroke-linecap:butt" />
				</g>
				<g
   id="shape16597-27"
   transform="translate(41.2282,-8.39169)">
					<title
   id="title71">Sheet.16597</title>
					<path
   d="m 10.03,110.46 a 0.433279,0.424483 0 0 1 -0.366621,0.42448 L 6.33,110.89 A 0.39995,0.39183 0 0 1 5.896721,110.49817 L 5.9,108.08 a 0.366621,0.359178 0 0 1 0.366621,-0.39183 L 9.6,107.69 a 0.366621,0.359178 0 0 1 0.433279,0.35918 z m -5.96,2.49 a 0.39995,0.39183 0 0 1 -0.366621,0.42448 L 0.43,113.37 a 0.39995,0.39183 0 0 1 -0.433279,-0.35918 L 0,110.56 a 0.39995,0.39183 0 0 1 0.433279,-0.42448 L 3.77,110.14 a 0.366621,0.359178 0 0 1 0.433279,0.35918 L 4.2,112.95 Z"
   class="st4"
   id="path73"
   inkscape:connector-curvature="0"
   style="fill:#5e9624;stroke:none;stroke-width:34;stroke-linecap:butt" />
				</g>
				<g
   id="shape16598-29"
   transform="translate(34.9956,-15.6895)">
					<title
   id="title76">Sheet.16598</title>
					<path
   d="m 4.33,112.86 a 0.366621,0.359178 0 0 1 -0.366621,0.39183 L 0.63,113.26 a 0.37449,0.366887 0 0 1 -0.633254,-0.39183 L 0,110.35 a 0.366621,0.359178 0 0 1 0.366621,-0.39183 L 3.7,109.96 c 0.33,0 0.5,0.16 0.5,0.39 z"
   class="st5"
   id="path78"
   inkscape:connector-curvature="0"
   style="fill:#86d633;stroke:none;stroke-width:34;stroke-linecap:butt" />
				</g>
				<g
   id="shape16599-31"
   transform="translate(35.2289,-10.8733)">
					<title
   id="title81">Sheet.16599</title>
					<path
   d="m 4.1,112.95 a 0.39995,0.39183 0 0 1 -0.366621,0.42448 L 0.4,113.37 A 0.39995,0.39183 0 0 1 5e-5,112.97817 L 0,110.5 a 0.39995,0.39183 0 0 1 0.366621,-0.42448 L 3.7,110.07 c 0.33,0 0.5,0.17 0.5,0.43 z"
   class="st3"
   id="path83"
   inkscape:connector-curvature="0"
   style="fill:#76bc2d;stroke:none;stroke-width:34;stroke-linecap:butt" />
				</g>
				<g
   id="shape16600-33"
   transform="translate(34.9956,-5.95566)">
					<title
   id="title86">Sheet.16600</title>
					<path
   d="m 4.33,112.93 a 0.366621,0.359178 0 0 1 -0.366621,0.42448 L 0.63,113.35 a 0.39995,0.39183 0 0 1 -0.633254,-0.42448 L 0,110.38 a 0.39995,0.39183 0 0 1 0.366621,-0.42448 L 3.7,109.95 a 0.433279,0.424483 0 0 1 0.499938,0.42448 z"
   class="st4"
   id="path88"
   inkscape:connector-curvature="0"
   style="fill:#5e9624;stroke:none;stroke-width:34;stroke-linecap:butt" />
				</g>
				<g
   id="shape16601-35"
   transform="translate(0,-9.24066)">
					<title
   id="title91">Sheet.16601</title>
					<path
   d="M 42.69,89.44 A 0.933217,0.91427 -180 0 0 41.6568,88.52573 L 15,88.52 a 0.933217,0.91427 -180 0 0 -0.966546,0.91427 L 14.03,94.43 a 0.499938,0.489788 -180 0 0 0.499938,0.457135 L 16.66,94.89 a 0.466608,0.457135 -180 0 0 0.466608,-0.457135 L 17.13,91.49 h 22.4 v 2.94 a 0.499938,0.489788 -180 0 0 0.499938,0.457135 L 42.19,94.89 a 0.499938,0.489788 -180 0 0 0.499938,-0.457135 z m -25.56,18.02 a 0.466608,0.457135 -180 0 0 -0.466608,-0.45714 L 14.5,107 a 0.499938,0.489788 -180 0 0 -0.499938,0.45713 L 14,112.46 a 0.833229,0.816313 -180 0 0 0.699913,0.91427 L 26.3,113.37 V 110.4 H 17.13 Z M 28.7,78.2 A 0.966546,0.946923 -180 0 0 27.733454,77.253077 L 1.07,77.26 A 0.966546,0.946923 -180 0 0 0.103454,78.206923 L 0.1,83.2 a 0.466608,0.457135 -180 0 0 0.366621,0.359178 L 2.67,83.56 A 0.466608,0.457135 -180 0 0 3.136608,83.102865 L 3.13,80.29 h 22.4 v 2.97 a 0.499938,0.489788 -180 0 0 0.499938,0.293873 L 28.33,83.56 a 0.499938,0.489788 -180 0 0 0.499938,-0.457135 L 28.83,78.2 Z M 3.13,96.23 A 0.499938,0.489788 -180 0 0 2.663392,95.740212 L 0.47,95.74 A 0.499938,0.489788 -180 0 0 0.003392,96.229788 L 0,101.19 c 0,0.49 0.33,0.91 0.7,0.91 H 12.3 V 99.17 H 3.13 Z"
   class="st6"
   id="path93"
   inkscape:connector-curvature="0"
   style="fill:#949494;stroke:none;stroke-width:34;stroke-linecap:butt" />
				</g>
				<g
   id="shape16602-37"
   transform="translate(6.19923,-14.5957)">
					<title
   id="title96">Sheet.16602</title>
					<path
   d="m 18.2,103.02 a 0.366621,0.359178 0 0 1 -0.366621,0.39183 L 14.5,103.41 a 0.366621,0.359178 0 0 1 -0.433279,-0.35918 L 14.06,100.54 a 0.366621,0.359178 0 0 1 0.366621,-0.42448 L 17.76,100.11 c 0.34,0 0.5,0.17 0.5,0.43 z m 0,2.48 c 0,-0.26 -0.17,-0.26 -0.5,-0.26 h -3.34 a 0.39995,0.39183 -180 0 0 -0.366621,0.42448 L 14,108.21 a 0.39995,0.39183 -180 0 0 0.433279,0.35918 L 17.76,108.57 a 0.39995,0.39183 -180 0 0 0.366621,-0.42448 z m 0,4.96 c 0,-0.22 -0.17,-0.39 -0.5,-0.39 h -3.34 a 0.366621,0.359178 -180 0 0 -0.366621,0.39183 L 14,113.01 a 0.366621,0.359178 -180 0 0 0.433279,0.35918 L 17.76,113.37 a 0.366621,0.359178 -180 0 0 0.366621,-0.42448 z M 4.2,89.27 A 0.433279,0.424483 -180 0 0 3.700062,88.910822 L 0.37,88.91 A 0.39995,0.39183 -180 0 0 0.003379,89.334483 L 0,91.88 a 0.39995,0.39183 -180 0 0 0.366621,0.293873 L 3.7,92.18 a 0.366621,0.359178 -180 0 0 0.366621,-0.424483 z m 0,4.97 c 0,-0.23 -0.17,-0.4 -0.5,-0.4 H 0.37 A 0.366621,0.359178 -180 0 0 0.003379,94.23183 L 0,96.75 a 0.366621,0.359178 -180 0 0 0.39995,0.359178 L 3.73,97.11 a 0.366621,0.359178 -180 0 0 0.366621,-0.39183 z m 0,4.99 C 4.2,98.97 4.03,98.81 3.7,98.81 H 0.37 A 0.39995,0.39183 -180 0 0 0.003379,99.234483 L 0,101.71 a 0.39995,0.39183 -180 0 0 0.39995,0.39183 L 3.73,102.1 a 0.39995,0.39183 -180 0 0 0.366621,-0.42448 z"
   class="st3"
   id="path98"
   inkscape:connector-curvature="0"
   style="fill:#76bc2d;stroke:none;stroke-width:34;stroke-linecap:butt" />
				</g>
			</g>
		</g>
	</g>
</svg>