<?xml version="1.0" encoding="UTF-8" standalone="no"?>
<!-- Generated by Microsoft Visio, SVG Export Event Grid Partner Configuration.svg Page-1 -->
<svg xmlns:dc="http://purl.org/dc/elements/1.1/" xmlns:cc="http://creativecommons.org/ns#" xmlns:rdf="http://www.w3.org/1999/02/22-rdf-syntax-ns#" xmlns:svg="http://www.w3.org/2000/svg" xmlns="http://www.w3.org/2000/svg" xmlns:sodipodi="http://sodipodi.sourceforge.net/DTD/sodipodi-0.dtd" xmlns:inkscape="http://www.inkscape.org/namespaces/inkscape" width="56.693185" height="45.358938" viewBox="0 0 56.693185 45.358938" xml:space="preserve" class="st3" version="1.1" id="svg35" sodipodi:docname="Event Grid Partner Configuration.svg" style="font-size:12px;overflow:visible;color-interpolation-filters:sRGB;fill:none;fill-rule:evenodd;stroke-linecap:square;stroke-miterlimit:3" inkscape:version="0.92.5 (2060ec1f9f, 2020-04-08)">
  <metadata id="metadata39">
    <rdf:RDF>
      <cc:Work rdf:about="">
        <dc:format>image/svg+xml</dc:format>
        <dc:type rdf:resource="http://purl.org/dc/dcmitype/StillImage" />
      </cc:Work>
    </rdf:RDF>
  </metadata>
  <sodipodi:namedview pagecolor="#ffffff" bordercolor="#666666" borderopacity="1" objecttolerance="10" gridtolerance="10" guidetolerance="10" inkscape:pageopacity="0" inkscape:pageshadow="2" inkscape:window-width="640" inkscape:window-height="480" id="namedview37" showgrid="false" inkscape:zoom="1.5612629" inkscape:cx="37.795252" inkscape:cy="30.225663" inkscape:window-x="0" inkscape:window-y="0" inkscape:window-maximized="0" inkscape:current-layer="svg35" />
	<style type="text/css" id="style2">
	<![CDATA[
		.st1 {fill:url(#grad0-6);stroke:none;stroke-linecap:butt;stroke-width:34}
		.st2 {fill:url(#grad0-10);stroke:none;stroke-linecap:butt;stroke-width:34}
		.st3 {fill:none;fill-rule:evenodd;font-size:12px;overflow:visible;stroke-linecap:square;stroke-miterlimit:3}
	]]>
	</style>

	<defs id="Patterns_And_Gradients">
		<linearGradient id="grad0-6" x1="0" y1="91.602297" x2="20.618931" y2="91.602297" gradientTransform="scale(0.98986705,1.0102367)" gradientUnits="userSpaceOnUse">
			<stop offset="0" stop-color="#50e6ff" stop-opacity="1" id="stop4" />
			<stop offset="1" stop-color="#5ea0ef" stop-opacity="1" id="stop6" />
		</linearGradient>
		<linearGradient id="grad0-10" x1="0" y1="71.248069" x2="40.395242" y2="71.248069" gradientTransform="scale(0.98476944,1.0154661)" gradientUnits="userSpaceOnUse">
			<stop offset="0" stop-color="#c69aeb" stop-opacity="1" id="stop9" />
			<stop offset="0.995" stop-color="#6f4bb2" stop-opacity="1" id="stop11" />
		</linearGradient>
	</defs>
	<g id="g33" transform="translate(-34.000237,-33.99536)">
		<title id="title15">Page-1</title>
		<g id="group14893-1" transform="translate(34,-34.0157)">
			<title id="title17">Event Grid Partner Configuration.14893</title>
			<g id="group14894-2">
				<title id="title19">Sheet.14894</title>
				<g id="shape14895-3">
					<title id="title21">Sheet.14895</title>
					<path d="m 20.41,103.95 v -2.44 l -2.43,-0.83 -0.63,-1.67 1.23,-2.52 V 96.21 L 17.83,95.43 16.92,94.5 H 16.6 L 14.22,95.72 12.6,95.26 11.57,92.54 H 9.21 L 8.42,95.02 6.63,95.83 3.97,94.29 2.22,95.85 v 0.32 l 1.19,2.4 -0.67,1.66 -2.74,1.2 v 2.52 h 0.36 l 2.52,0.85 0.67,1.67 -1.26,2.8 1.67,1.7 h 0.31 l 2.39,-1.21 1.62,0.69 1.04,2.92 h 2.34 V 113 l 0.83,-2.55 1.58,-0.69 2.78,1.28 1.66,-1.7 v -0.32 l -1.19,-2.39 0.44,-1.71 z m -9.97,2.23 a 3.33543,3.41124 0 1 1 3.3,-3.45 v 0.04 a 3.33228,3.40802 0 0 1 -3.3,3.25 z" class="st1" id="path23" inkscape:connector-curvature="0" style="fill:url(#grad0-6);stroke:none;stroke-width:34;stroke-linecap:butt" />
				</g>
				<g id="shape14896-7" transform="translate(16.9134,-4.33894)">
					<title id="title26">Sheet.14896</title>
					<path d="m 39.78,94.65 v -4.76 l -0.24,-0.2 -4.84,-1.7 -1.22,-3.25 2.46,-4.87 0.24,-0.53 -1.47,-1.61 -1.75,-1.91 -0.63,0.32 -4.64,2.44 -3.2,-0.94 -2.03,-5.29 h -4.6 L 17.63,72.6 16.05,77.43 12.8,78.69 7.44,76.09 4.17,79.42 4.48,80.06 6.9,84.77 5.6,88.03 0,90.1 v 4.75 l 0.67,0.2 4.93,1.67 1.31,3.47 -2.54,5.47 3.25,3.36 0.63,-0.29 4.65,-2.42 3.18,1.34 2.02,5.72 h 4.69 v -1.01 l 1.63,-5.04 3.15,-1.34 5.43,2.56 3.26,-3.33 -0.32,-0.64 -2.27,-4.38 0.91,-3.33 z m -19.49,4.38 a 6.51339,6.66142 0 1 1 6.47,-6.7 6.55118,6.70007 0 0 1 -6.47,6.7 z" class="st2" id="path28" inkscape:connector-curvature="0" style="fill:url(#grad0-10);stroke:none;stroke-width:34;stroke-linecap:butt" />
				</g>
			</g>
		</g>
	</g>
</svg>