<?xml version="1.0" encoding="UTF-8" standalone="no"?>
<!DOCTYPE svg PUBLIC "-//W3C//DTD SVG 1.1//EN" "http://www.w3.org/Graphics/SVG/1.1/DTD/svg11.dtd">
<!-- Generated by Microsoft Visio, SVG Export Event Grid Subscription.svg Page-1 -->
<svg xmlns="http://www.w3.org/2000/svg" xmlns:xlink="http://www.w3.org/1999/xlink" xmlns:ev="http://www.w3.org/2001/xml-events"
		width="1.73192in" height="1.65332in" viewBox="0 0 124.698 119.039" xml:space="preserve" color-interpolation-filters="sRGB"
		class="st8">
	<style type="text/css">
	<![CDATA[
		.st1 {fill:#32bedd;stroke:none;stroke-linecap:butt;stroke-width:34}
		.st2 {fill:#ffffff;stroke:none;stroke-linecap:butt;stroke-width:34}
		.st3 {fill:#50e6ff;stroke:none;stroke-linecap:butt;stroke-width:34}
		.st4 {fill:url(#grad0-18);stroke:none;stroke-linecap:butt;stroke-width:34}
		.st5 {fill:#999999;stroke:none;stroke-linecap:butt;stroke-width:34}
		.st6 {fill:#999999;fill-opacity:0.5;stroke:none;stroke-linecap:butt;stroke-width:34}
		.st7 {fill:#949494;stroke:none;stroke-linecap:butt;stroke-width:34}
		.st8 {fill:none;fill-rule:evenodd;font-size:12px;overflow:visible;stroke-linecap:square;stroke-miterlimit:3}
	]]>
	</style>

	<defs id="Patterns_And_Gradients">
		<linearGradient id="grad0-18" x1="0" y1="0" x2="1" y2="0" gradientTransform="rotate(90 0.5 0.5)">
			<stop offset="0" stop-color="#c69aeb" stop-opacity="1"/>
			<stop offset="1" stop-color="#6f4bb2" stop-opacity="1"/>
		</linearGradient>
	</defs>
	<g>
		<title>Page-1</title>
		<g id="group7605-1" transform="translate(34.0052,-34.0157)">
			<title>Event Grid Subscription.7605</title>
			<g id="group7606-2">
				<title>Icon-integration-221</title>
				<g id="shape7607-3" transform="translate(8.50394,-14.1545)">
					<title>Sheet.7607</title>
					<path d="M32.18 104.82 L32.18 102.8 L17.11 102.8 L10.04 109.91 L4.84 109.91 L16.91 97.57 L25.14 97.57 L25.14
								 95.65 L16.07 95.65 L2 109.91 L0 109.91 L0 111.93 L6.04 111.93 L13.17 119.04 L30.18 119.04 L30.18
								 117.02 L13.91 117.02 L8.87 111.93 L21.11 111.93 L21.11 109.91 L12.91 109.91 L17.91 104.82 L32.18
								 104.82 Z" class="st1"/>
				</g>
				<g id="shape7608-5" transform="translate(28.7133,-19.3445)">
					<title>Sheet.7608</title>
					<ellipse cx="2.90134" cy="116.107" rx="2.90134" ry="2.932" class="st2"/>
				</g>
				<g id="shape7609-7" transform="translate(31.748,-33.5664)">
					<title>Sheet.7609</title>
					<ellipse cx="2.90134" cy="116.107" rx="2.90134" ry="2.932" class="st2"/>
				</g>
				<g id="shape7610-9" transform="translate(38.7846,-26.4554)">
					<title>Sheet.7610</title>
					<ellipse cx="2.90134" cy="116.107" rx="2.90134" ry="2.932" class="st2"/>
				</g>
				<g id="shape7611-11" transform="translate(35.7832,-12.2335)">
					<title>Sheet.7611</title>
					<ellipse cx="2.90134" cy="116.107" rx="2.90134" ry="2.932" class="st2"/>
				</g>
				<g id="shape7612-13" transform="translate(31.0477,-32.9598)">
					<title>Sheet.7612</title>
					<ellipse cx="3.50162" cy="115.501" rx="3.50162" ry="3.53863" class="st3"/>
				</g>
				<g id="shape7613-15" transform="translate(38.0843,-25.8488)">
					<title>Sheet.7613</title>
					<ellipse cx="3.50162" cy="115.501" rx="3.50162" ry="3.53863" class="st4"/>
				</g>
				<g id="shape7614-19" transform="translate(35.183,-11.6269)">
					<title>Sheet.7614</title>
					<ellipse cx="3.50162" cy="115.501" rx="3.50162" ry="3.53863" class="st4"/>
				</g>
				<g id="shape7615-22" transform="translate(28.113,-18.7379)">
					<title>Sheet.7615</title>
					<ellipse cx="3.50162" cy="115.501" rx="3.50162" ry="3.53863" class="st3"/>
				</g>
				<g id="group7616-24" transform="translate(5.64548E-14,-38.015)">
					<title>Sheet.7616</title>
					<g id="shape7617-25">
						<title>Sheet.7617</title>
						<path d="M1.9 106.03 L6.2 106.03 L6.2 118.06 a0.967114 0.977335 0 0 1 -0.967114 0.977335 L0.97 119.04 a0.967114
									 0.977335 0 0 1 -0.967114 -0.977335 L0 107.95 A1.90088 1.92097 0 0 1 1.9 106.03 Z" class="st5"/>
					</g>
					<g id="shape7618-27">
						<title>Sheet.7618</title>
						<path d="M1.9 106.03 L6.2 106.03 L6.2 118.06 a0.967114 0.977335 0 0 1 -0.967114 0.977335 L0.97 119.04 a0.967114
									 0.977335 0 0 1 -0.967114 -0.977335 L0 107.95 A1.90088 1.92097 0 0 1 1.9 106.03 Z" class="st6"/>
					</g>
				</g>
				<g id="group7619-29" transform="translate(50.49,-38.015)">
					<title>Sheet.7619</title>
					<g id="shape7620-30">
						<title>Sheet.7620</title>
						<path d="M0 106.03 L4.3 106.03 A1.90088 1.92097 0 0 1 6.2 107.95 L6.2 118.06 a0.967114 0.977335 0 0 1 -0.967114
									 0.977335 L0.93 119.04 a0.967114 0.977335 0 0 1 -0.933766 -0.977335 L0 106.03 Z" class="st5"/>
					</g>
					<g id="shape7621-32">
						<title>Sheet.7621</title>
						<path d="M0 106.03 L4.3 106.03 A1.90088 1.92097 0 0 1 6.2 107.95 L6.2 118.06 a0.967114 0.977335 0 0 1 -0.967114
									 0.977335 L0.93 119.04 a0.967114 0.977335 0 0 1 -0.933766 -0.977335 L0 106.03 Z" class="st6"/>
					</g>
				</g>
				<g id="shape7622-34" transform="translate(0,-44.89)">
					<title>Sheet.7622</title>
					<path d="M56.69 114.83 L56.69 119.04 L0 119.04 L0 114.83 A1.90088 1.92097 0 0 1 1.9 112.91 L54.83 112.91 A1.90088
								 1.92097 0 0 1 56.69 114.83 Z" class="st7"/>
				</g>
				<g id="group7623-36">
					<title>Sheet.7623</title>
					<g id="shape7624-37">
						<title>Sheet.7624</title>
						<path d="M0.97 105.93 L5.27 105.93 a0.967114 0.977335 0 0 1 0.967114 0.977335 L6.24 119.04 L1.9 119.04 A1.90088
									 1.92097 0 0 1 0 117.12 L0 107.01 a0.967114 0.977335 0 0 1 0.967114 -1.07844 Z" class="st5"/>
					</g>
					<g id="shape7625-39">
						<title>Sheet.7625</title>
						<path d="M0.97 105.93 L5.27 105.93 a0.967114 0.977335 0 0 1 0.967114 0.977335 L6.24 119.04 L1.9 119.04 A1.90088
									 1.92097 0 0 1 0 117.12 L0 107.01 a0.967114 0.977335 0 0 1 0.967114 -1.07844 Z" class="st6"/>
					</g>
				</g>
				<g id="group7626-41" transform="translate(50.49,-0.101104)">
					<title>Sheet.7626</title>
					<g id="shape7627-42">
						<title>Sheet.7627</title>
						<path d="M0.93 106.03 L5.24 106.03 a0.967114 0.977335 0 0 1 0.967114 0.977335 L6.2 117.12 A1.90088 1.92097
									 0 0 1 4.3 119.04 L0 119.04 L0 107.11 a0.967114 0.977335 0 0 1 0.933766 -1.07844 Z" class="st5"/>
					</g>
					<g id="shape7628-44">
						<title>Sheet.7628</title>
						<path d="M0.93 106.03 L5.24 106.03 a0.967114 0.977335 0 0 1 0.967114 0.977335 L6.2 117.12 A1.90088 1.92097
									 0 0 1 4.3 119.04 L0 119.04 L0 107.11 a0.967114 0.977335 0 0 1 0.933766 -1.07844 Z" class="st6"/>
					</g>
				</g>
				<g id="shape7629-46">
					<title>Sheet.7629</title>
					<path d="M0 117.12 L0 112.91 L56.69 112.91 L56.69 117.12 A1.90088 1.92097 0 0 1 54.79 119.04 L1.9 119.04 A1.90088
								 1.92097 0 0 1 0 117.12 Z" class="st7"/>
				</g>
			</g>
		</g>
	</g>
</svg>
