<?xml version="1.0" encoding="UTF-8" standalone="no"?>
<!-- Generated by Microsoft Visio, SVG Export Function App.svg Page-1 -->

<svg
   xmlns:dc="http://purl.org/dc/elements/1.1/"
   xmlns:cc="http://creativecommons.org/ns#"
   xmlns:rdf="http://www.w3.org/1999/02/22-rdf-syntax-ns#"
   xmlns:svg="http://www.w3.org/2000/svg"
   xmlns="http://www.w3.org/2000/svg"
   xmlns:sodipodi="http://sodipodi.sourceforge.net/DTD/sodipodi-0.dtd"
   xmlns:inkscape="http://www.inkscape.org/namespaces/inkscape"
   width="56.698994"
   height="49.994884"
   viewBox="0 0 56.698993 49.994884"
   xml:space="preserve"
   class="st4"
   version="1.1"
   id="svg51"
   sodipodi:docname="Function App.svg"
   style="font-size:12px;overflow:visible;color-interpolation-filters:sRGB;fill:none;fill-rule:evenodd;stroke-linecap:square;stroke-miterlimit:3"
   inkscape:version="0.92.5 (2060ec1f9f, 2020-04-08)"><metadata
   id="metadata55"><rdf:RDF><cc:Work
       rdf:about=""><dc:format>image/svg+xml</dc:format><dc:type
         rdf:resource="http://purl.org/dc/dcmitype/StillImage" /></cc:Work></rdf:RDF></metadata><sodipodi:namedview
   pagecolor="#ffffff"
   bordercolor="#666666"
   borderopacity="1"
   objecttolerance="10"
   gridtolerance="10"
   guidetolerance="10"
   inkscape:pageopacity="0"
   inkscape:pageshadow="2"
   inkscape:window-width="640"
   inkscape:window-height="480"
   id="namedview53"
   showgrid="false"
   inkscape:zoom="1.9825435"
   inkscape:cx="28.345741"
   inkscape:cy="24.479684"
   inkscape:window-x="0"
   inkscape:window-y="0"
   inkscape:window-maximized="0"
   inkscape:current-layer="svg51" />
	<style
   type="text/css"
   id="style2">
	<![CDATA[
		.st1 {fill:#50e6ff;stroke:none;stroke-linecap:butt;stroke-width:34}
		.st2 {fill:#1490df;stroke:none;stroke-linecap:butt;stroke-width:34}
		.st3 {fill:url(#grad0-14);stroke:none;stroke-linecap:butt;stroke-width:34}
		.st4 {fill:none;fill-rule:evenodd;font-size:12px;overflow:visible;stroke-linecap:square;stroke-miterlimit:3}
	]]>
	</style>

	<defs
   id="Patterns_And_Gradients">
		<linearGradient
   id="grad0-14"
   x1="0"
   y1="51.212077"
   x2="37.641015"
   y2="51.212077"
   gradientTransform="scale(0.75289733,1.3282023)"
   gradientUnits="userSpaceOnUse">
			<stop
   offset="0"
   stop-color="#fea11b"
   stop-opacity="1"
   id="stop4" />
			<stop
   offset="0.285"
   stop-color="#fea51a"
   stop-opacity="1"
   id="stop6" />
			<stop
   offset="0.545"
   stop-color="#feb018"
   stop-opacity="1"
   id="stop8" />
			<stop
   offset="0.8"
   stop-color="#ffc314"
   stop-opacity="1"
   id="stop10" />
			<stop
   offset="1"
   stop-color="#ffd70f"
   stop-opacity="1"
   id="stop12" />
		</linearGradient>
	</defs>
	<g
   id="g49"
   transform="translate(-34.000759,-34.0043)">
		<title
   id="title16">Page-1</title>
		<g
   id="group14950-1"
   transform="translate(34,-34.0157)">
			<title
   id="title18">Function App.14950</title>
			<g
   id="group14951-2">
				<title
   id="title20">Sheet.14951</title>
				<g
   id="shape14952-3"
   transform="translate(0.00843084,-11.0299)">
					<title
   id="title22">Sheet.14952</title>
					<path
   d="m 17.16,116.92 -1.89,1.88 a 0.94473,0.939085 0 0 1 -1.25964,0 L 0.47,105.34 a 1.91465,1.90321 0 0 1 0,-2.5 l 1.58,-1.88 15.11,15.02 a 0.592031,0.588493 0 0 1 0,0.93909 z"
   class="st1"
   id="path24"
   inkscape:connector-curvature="0"
   style="fill:#50e6ff;stroke:none;stroke-width:34;stroke-linecap:butt" />
				</g>
				<g
   id="shape14953-5"
   transform="translate(0,-23.1641)">
					<title
   id="title27">Sheet.14953</title>
					<path
   d="m 14.97,101.51 1.89,1.88 a 0.94473,0.939085 0 0 1 0,1.25211 L 2.37,119.04 0.48,117.16 a 1.88946,1.87817 0 0 1 0,-2.5 L 14.02,101.2 a 1.15572,1.14881 0 0 1 0.95,0.31 z"
   class="st2"
   id="path29"
   inkscape:connector-curvature="0"
   style="fill:#1490df;stroke:none;stroke-width:34;stroke-linecap:butt" />
				</g>
				<g
   id="shape14954-7"
   transform="translate(38.9745,-10.7169)">
					<title
   id="title32">Sheet.14954</title>
					<path
   d="m 15.36,100.64 1.89,1.88 a 1.91465,1.90321 0 0 1 0,2.51 L 3.39,118.8 a 0.94473,0.939085 0 0 1 -1.25964,0 L 0.24,116.92 a 0.94473,0.939085 0 0 1 0,-1.25211 z"
   class="st1"
   id="path34"
   inkscape:connector-curvature="0"
   style="fill:#50e6ff;stroke:none;stroke-width:34;stroke-linecap:butt" />
				</g>
				<g
   id="shape14955-9"
   transform="translate(38.9745,-23.1641)">
					<title
   id="title37">Sheet.14955</title>
					<path
   d="m 16.93,117.16 -1.89,1.88 -14.8,-14.71 a 0.94473,0.939085 0 0 1 0,-1.25211 L 2.13,101.2 a 0.94473,0.939085 0 0 1 1.25964,0 L 16.93,114.66 a 1.88946,1.87817 0 0 1 0,2.5 z"
   class="st2"
   id="path39"
   inkscape:connector-curvature="0"
   style="fill:#1490df;stroke:none;stroke-width:34;stroke-linecap:butt" />
				</g>
				<g
   id="shape14956-11"
   transform="translate(14.0223)">
					<title
   id="title42">Sheet.14956</title>
					<path
   d="M 11.97,95.88 H 0.63 A 0.677056,0.673011 0 0 1 1.8e-4,95.253943 L 0,94.94 13.54,68.33 c 0.32,0 0.32,-0.31 0.63,-0.31 H 27.4 a 0.677056,0.673011 0 0 1 0.62982,0.626057 L 28.03,68.95 12.28,89.93 h 15.43 a 0.677056,0.673011 0 0 1 0.62982,0.626057 0.31491,0.313028 0 0 1 -0.31491,0.313028 L 2.2,117.47 c -0.31,0 -1.89,1.57 -1.26,-0.62 z"
   class="st3"
   id="path44"
   inkscape:connector-curvature="0"
   style="fill:url(#grad0-14);stroke:none;stroke-width:34;stroke-linecap:butt" />
				</g>
			</g>
		</g>
	</g>
</svg>