<?xml version="1.0" encoding="UTF-8" standalone="no"?>
<!DOCTYPE svg PUBLIC "-//W3C//DTD SVG 1.1//EN" "http://www.w3.org/Graphics/SVG/1.1/DTD/svg11.dtd">
<!-- Generated by Microsoft Visio, SVG Export Function App Advanced Tool.svg Page-1 -->
<svg xmlns="http://www.w3.org/2000/svg" xmlns:xlink="http://www.w3.org/1999/xlink" xmlns:ev="http://www.w3.org/2001/xml-events"
		width="1.57437in" height="1.73206in" viewBox="0 0 113.354 124.709" xml:space="preserve" color-interpolation-filters="sRGB"
		class="st7">
	<style type="text/css">
	<![CDATA[
		.st1 {fill:#005ba1;stroke:none;stroke-linecap:butt;stroke-width:34}
		.st2 {fill:#0078d4;stroke:none;stroke-linecap:butt;stroke-width:34}
		.st3 {fill:url(#grad0-10);stroke:none;stroke-linecap:butt;stroke-width:34}
		.st4 {fill:url(#grad0-14);stroke:none;stroke-linecap:butt;stroke-width:34}
		.st5 {fill:#ffffff;fill-opacity:0.6;stroke:none;stroke-linecap:butt;stroke-width:34}
		.st6 {fill:#ffffff;fill-opacity:0.5;stroke:none;stroke-linecap:butt;stroke-width:34}
		.st7 {fill:none;fill-rule:evenodd;font-size:12px;overflow:visible;stroke-linecap:square;stroke-miterlimit:3}
	]]>
	</style>

	<defs id="Patterns_And_Gradients">
		<linearGradient id="grad0-10" x1="0" y1="0" x2="1" y2="0" gradientTransform="rotate(-90 0.5 0.5)">
			<stop offset="0" stop-color="#0078d4" stop-opacity="1"/>
			<stop offset="1" stop-color="#83b9f9" stop-opacity="1"/>
		</linearGradient>
		<linearGradient id="grad0-14" x1="0" y1="0" x2="1" y2="0" gradientTransform="rotate(-90 0.5 0.5)">
			<stop offset="0" stop-color="#5ea0ef" stop-opacity="1"/>
			<stop offset="1" stop-color="#83b9f9" stop-opacity="1"/>
		</linearGradient>
	</defs>
	<g>
		<title>Page-1</title>
		<g id="group13344-1" transform="translate(34,-34.0157)">
			<title>Function App Advanced Tool.13344</title>
			<g id="group13345-2">
				<title>Sheet.13345</title>
				<g id="shape13346-3" transform="translate(11.9652,-46.4031)">
					<title>Sheet.13346</title>
					<path d="M29.44 124.71 L0 124.71 L0 120.9 L29.44 120.9 A2.41511 2.48189 0 0 1 30.39 121.1 L33.02 122.24 a0.594582
								 0.611024 0 0 1 -1.42109E-14 1.12756 L30.39 124.51 A2.47027 2.53858 0 0 1 29.44 124.71 Z"
							class="st1"/>
				</g>
				<g id="shape13347-5" transform="translate(13.1758,-14.5953)">
					<title>Sheet.13347</title>
					<path d="M28.45 116.94 L30.88 123.11 A1.16158 1.1937 0 0 1 29.52 124.71 L22.81 122.99 A3.35295 3.44567 0 0 1
								 21.25 122.08 L0 100.25 L6.3 93.78 L27.72 115.79 A3.40505 3.49921 0 0 1 28.45 116.94 Z" class="st2"/>
				</g>
				<g id="shape13348-7">
					<title>Sheet.13348</title>
					<path d="M-0 114.41 A10.0177 10.2963 -180 0 0 10.02 124.71 A10.0177 10.2963 -180 0 0 20.03 114.41 L20.03 78.31
								 A10.0177 10.2963 -180 0 0 10.02 68.02 A10.0177 10.2963 -180 0 0 0 78.31 L0 114.41 Z" class="st3"/>
				</g>
				<g id="shape13349-11" transform="translate(10.0159,0)">
					<title>Sheet.13349</title>
					<path d="M0 124.71 L0 68.02 A10.019 10.2961 0 0 1 10.02 78.31 L10.02 114.41 A10.019 10.2961 0 0 1 0 124.71 Z"
							class="st4"/>
				</g>
				<g id="shape13350-15" transform="translate(5.70063,-42.4315)">
					<title>Sheet.13350</title>
					<ellipse cx="4.31532" cy="120.274" rx="4.31532" ry="4.43465" class="st5"/>
				</g>
				<g id="shape13351-17" transform="translate(10.0159,-42.4315)">
					<title>Sheet.13351</title>
					<path d="M4.32 120.27 A4.31532 4.43465 0 0 1 0 124.71 L0 115.84 A4.31532 4.43465 0 0 1 4.32 120.27 Z"
							class="st6"/>
				</g>
			</g>
		</g>
	</g>
</svg>
