<?xml version="1.0" encoding="UTF-8" standalone="no"?>
<!-- Generated by Microsoft Visio, SVG Export Function App Proxy.svg Page-1 -->

<svg
   xmlns:dc="http://purl.org/dc/elements/1.1/"
   xmlns:cc="http://creativecommons.org/ns#"
   xmlns:rdf="http://www.w3.org/1999/02/22-rdf-syntax-ns#"
   xmlns:svg="http://www.w3.org/2000/svg"
   xmlns="http://www.w3.org/2000/svg"
   xmlns:sodipodi="http://sodipodi.sourceforge.net/DTD/sodipodi-0.dtd"
   xmlns:inkscape="http://www.inkscape.org/namespaces/inkscape"
   width="0.78736019in"
   height="0.51180494in"
   viewBox="0 0 56.690001 36.849997"
   xml:space="preserve"
   class="st2"
   version="1.1"
   id="svg29"
   sodipodi:docname="Function App Proxy.svg"
   style="font-size:12px;overflow:visible;color-interpolation-filters:sRGB;fill:none;fill-rule:evenodd;stroke-linecap:square;stroke-miterlimit:3"
   inkscape:version="0.92.5 (2060ec1f9f, 2020-04-08)"><metadata
   id="metadata35"><rdf:RDF><cc:Work
       rdf:about=""><dc:format>image/svg+xml</dc:format><dc:type
         rdf:resource="http://purl.org/dc/dcmitype/StillImage" /></cc:Work></rdf:RDF></metadata><defs
   id="defs33" /><sodipodi:namedview
   pagecolor="#ffffff"
   bordercolor="#666666"
   borderopacity="1"
   objecttolerance="10"
   gridtolerance="10"
   guidetolerance="10"
   inkscape:pageopacity="0"
   inkscape:pageshadow="2"
   inkscape:window-width="640"
   inkscape:window-height="480"
   id="namedview31"
   showgrid="false"
   inkscape:zoom="2.0541744"
   inkscape:cx="37.795222"
   inkscape:cy="12.094983"
   inkscape:window-x="0"
   inkscape:window-y="0"
   inkscape:window-maximized="0"
   inkscape:current-layer="svg29" />
	<style
   type="text/css"
   id="style2">
	<![CDATA[
		.st1 {fill:#57a300;stroke:none;stroke-linecap:butt;stroke-width:15.3}
		.st2 {fill:none;fill-rule:evenodd;font-size:12px;overflow:visible;stroke-linecap:square;stroke-miterlimit:3}
	]]>
	</style>

	<g
   id="g27"
   transform="translate(-15.3,-15.3043)">
		<title
   id="title4">Page-1</title>
		<g
   id="group16422-1"
   transform="translate(15.3,-34.0157)">
			<title
   id="title6">Function App Proxy.16422</title>
			<g
   id="group16423-2">
				<title
   id="title8">Sheet.16423</title>
				<g
   id="shape16424-3"
   transform="translate(12.0258)">
					<title
   id="title10">Sheet.16424</title>
					<path
   d="M 31.5,64.38 C 30.92,60.87 29.21,57.5 26.63,54.73 23.19,51.22 18.75,49.32 13.89,49.32 9.16,49.32 4.58,51.22 1.15,54.73 0,55.9 0,57.8 1.15,59.11 c 1.14,1.17 3,1.17 4.29,0 2.29,-2.34 5.3,-3.51 8.45,-3.51 3.15,0 6.15,1.32 8.44,3.51 4.73,4.83 4.73,12.58 0,17.26 -2.29,2.34 -5.29,3.51 -8.44,3.51 -3.15,0 -6.16,-1.32 -8.45,-3.51 -1.15,-1.17 -3.01,-1.17 -4.29,0 -1.15,1.17 -1.15,3.07 0,4.39 3.43,3.51 7.87,5.41 12.74,5.41 4.72,0 9.3,-1.9 12.74,-5.41 2.86,-2.93 4.44,-6.44 5.01,-10.24 h 5.58 c -0.28,-1.9 -0.71,-3.95 -1.14,-6.14 z"
   class="st1"
   id="path12"
   inkscape:connector-curvature="0"
   style="fill:#57a300;stroke:none;stroke-width:15.30000019;stroke-linecap:butt" />
				</g>
				<g
   id="shape16425-5"
   transform="translate(18.8976,-11.4061)">
					<title
   id="title15">Sheet.16425</title>
					<ellipse
   cx="7.1581998"
   cy="78.854599"
   rx="7.1581998"
   ry="7.3115902"
   class="st1"
   id="ellipse17"
   style="fill:#57a300;stroke:none;stroke-width:15.30000019;stroke-linecap:butt" />
				</g>
				<g
   id="shape16426-7"
   transform="translate(0,-15.5006)">
					<title
   id="title20">Sheet.16426</title>
					<path
   d="m 0,79.73 h 25.63 v 6.44 H 0 Z m 42.38,0 h 14.31 v 6.44 H 42.38 Z"
   class="st1"
   id="path22"
   inkscape:connector-curvature="0"
   style="fill:#57a300;stroke:none;stroke-width:15.30000019;stroke-linecap:butt" />
				</g>
			</g>
		</g>
	</g>
</svg>