<?xml version="1.0" encoding="UTF-8" standalone="no"?>
<!DOCTYPE svg PUBLIC "-//W3C//DTD SVG 1.1//EN" "http://www.w3.org/Graphics/SVG/1.1/DTD/svg11.dtd">
<!-- Generated by Microsoft Visio, SVG Export Function App File.svg Page-1 -->
<svg xmlns="http://www.w3.org/2000/svg" xmlns:xlink="http://www.w3.org/1999/xlink" xmlns:ev="http://www.w3.org/2001/xml-events"
		width="1.73185in" height="1.57458in" viewBox="0 0 124.693 113.37" xml:space="preserve" color-interpolation-filters="sRGB"
		class="st6">
	<style type="text/css">
	<![CDATA[
		.st1 {fill:url(#grad0-6);stroke:none;stroke-linecap:butt;stroke-width:34}
		.st2 {fill:#0078d4;stroke:none;stroke-linecap:butt;stroke-width:34}
		.st3 {fill:url(#grad0-12);stroke:none;stroke-linecap:butt;stroke-width:34}
		.st4 {fill:#f2f2f2;stroke:none;stroke-linecap:butt;stroke-width:34}
		.st5 {fill:url(#grad0-18);stroke:none;stroke-linecap:butt;stroke-width:34}
		.st6 {fill:none;fill-rule:evenodd;font-size:12px;overflow:visible;stroke-linecap:square;stroke-miterlimit:3}
	]]>
	</style>

	<defs id="Patterns_And_Gradients">
		<linearGradient id="grad0-6" x1="0" y1="0" x2="1" y2="0" gradientTransform="rotate(-90 0.5 0.5)">
			<stop offset="0" stop-color="#0078d4" stop-opacity="1"/>
			<stop offset="0.5" stop-color="#4093e6" stop-opacity="1"/>
			<stop offset="0.775" stop-color="#5ea0ef" stop-opacity="1"/>
		</linearGradient>
		<linearGradient id="grad0-12" x1="0" y1="0" x2="1" y2="0" gradientTransform="rotate(44.919 0.5 0.5)">
			<stop offset="0" stop-color="#5ea0ef" stop-opacity="1"/>
			<stop offset="0.37" stop-color="#9fc6f5" stop-opacity="1"/>
			<stop offset="0.8" stop-color="#e4effc" stop-opacity="1"/>
			<stop offset="1" stop-color="#ffffff" stop-opacity="1"/>
		</linearGradient>
		<linearGradient id="grad0-18" x1="0" y1="0" x2="1" y2="0" gradientTransform="rotate(135.081 0.5 0.5)">
			<stop offset="0" stop-color="#ffffff" stop-opacity="1"/>
			<stop offset="0.2" stop-color="#e4effc" stop-opacity="1"/>
			<stop offset="0.63" stop-color="#9fc6f5" stop-opacity="1"/>
			<stop offset="1" stop-color="#5ea0ef" stop-opacity="1"/>
		</linearGradient>
	</defs>
	<g>
		<title>Page-1</title>
		<g id="group12827-1" transform="translate(34,-34.0157)">
			<title>Function App File.12827</title>
			<g id="group12828-2">
				<title>MsPortalFx.base.images-27</title>
				<g id="shape12829-3">
					<title>Sheet.12829</title>
					<path d="M0 80.03 L56.69 80.03 L56.69 111.49 A1.89421 1.88479 0 0 1 54.8 113.37 L1.89 113.37 A1.89421 1.88479
								 0 0 1 0 111.49 L0 80.03 Z" class="st1"/>
				</g>
				<g id="shape12830-7" transform="translate(0,-33.3355)">
					<title>Sheet.12830</title>
					<path d="M1.9 101.35 L54.79 101.35 A1.89421 1.88479 0 0 1 56.68 103.24 L56.68 113.37 L0 113.37 L0 103.24 A1.89421
								 1.88479 0 0 1 1.9 101.35 Z" class="st2"/>
				</g>
				<g id="shape12831-9" transform="translate(-60.1737,24.8693) rotate(-44.919)">
					<title>Sheet.12831</title>
					<path d="M1.05 100.01 L2.68 100.01 L2.68 112.85 a0.523576 0.520971 0 0 1 -0.523576 0.520971 L0.52 113.37 a0.523576
								 0.520971 0 0 1 -0.523576 -0.520971 L0 101.05 A1.04715 1.04194 0 0 1 1.05 100.01 L1.05 100.01 Z"
							class="st3"/>
				</g>
				<g id="shape12832-13" transform="translate(10.8419,-15.795)">
					<title>Sheet.12832</title>
					<path d="M1.46 113.37 L0.31 112.22 A1.04715 1.04194 0 0 1 0.31 110.75 L8.85 102.27 a0.523576 0.520971 0 0 1 0.740343
								 0 L10.74 103.42 a0.523576 0.520971 0 0 1 1.77636E-15 0.736659 L1.46 113.37 L1.46 113.37 Z"
							class="st4"/>
				</g>
				<g id="shape12833-15" transform="translate(-34.4523,175.966) rotate(-135.081)">
					<title>Sheet.12833</title>
					<path d="M0.52 100 L2.16 100 a0.523576 0.520971 0 0 1 0.523576 0.520971 L2.68 113.37 L1.05 113.37 A1.04715 1.04194
								 0 0 1 0 112.33 L0 100.52 a0.523576 0.520971 0 0 1 0.523576 -0.520971 L0.52 100 Z" class="st5"/>
				</g>
				<g id="shape12834-19" transform="translate(34.2759,-15.7917)">
					<title>Sheet.12834</title>
					<path d="M0.15 103.43 L1.31 102.27 a0.523576 0.520971 0 0 1 0.740343 0 L10.58 110.75 A1.04715 1.04194 0 0 1 10.59
								 112.22 L9.44 113.37 L0.16 104.17 a0.523576 0.520971 0 0 1 -0.00666975 -0.743296 Z" class="st4"/>
				</g>
				<g id="shape12835-21" transform="translate(57.6052,-0.93049) rotate(17.752)">
					<title>Sheet.12835</title>
					<path d="M0 113 a0.373515 0.371657 -180 0 0 0.373506 0.371648 L2.31 113.37 a0.373515 0.371657 -180 0 0 0.373506
								 -0.371648 L2.69 88.41 a0.373515 0.371657 -180 0 0 -0.373506 -0.371648 L0.37 88.04 a0.373515 0.371657
								 -180 0 0 -0.373506 0.371648 L0 113 Z" class="st4"/>
				</g>
			</g>
		</g>
	</g>
</svg>
