<?xml version="1.0" encoding="UTF-8" standalone="no"?>
<!-- Generated by Microsoft Visio, SVG Export Function App Advanced Tool.svg Page-1 -->

<svg
   xmlns:dc="http://purl.org/dc/elements/1.1/"
   xmlns:cc="http://creativecommons.org/ns#"
   xmlns:rdf="http://www.w3.org/1999/02/22-rdf-syntax-ns#"
   xmlns:svg="http://www.w3.org/2000/svg"
   xmlns="http://www.w3.org/2000/svg"
   xmlns:sodipodi="http://sodipodi.sourceforge.net/DTD/sodipodi-0.dtd"
   xmlns:inkscape="http://www.inkscape.org/namespaces/inkscape"
   width="0.62986505in"
   height="0.78735679in"
   viewBox="0 0 45.350027 56.69"
   xml:space="preserve"
   class="st7"
   version="1.1"
   id="svg55"
   sodipodi:docname="Function App Advanced Tool.svg"
   style="font-size:12px;overflow:visible;color-interpolation-filters:sRGB;fill:none;fill-rule:evenodd;stroke-linecap:square;stroke-miterlimit:3"
   inkscape:version="0.92.5 (2060ec1f9f, 2020-04-08)"><metadata
   id="metadata59"><rdf:RDF><cc:Work
       rdf:about=""><dc:format>image/svg+xml</dc:format><dc:type
         rdf:resource="http://purl.org/dc/dcmitype/StillImage" /></cc:Work></rdf:RDF></metadata><sodipodi:namedview
   pagecolor="#ffffff"
   bordercolor="#666666"
   borderopacity="1"
   objecttolerance="10"
   gridtolerance="10"
   guidetolerance="10"
   inkscape:pageopacity="0"
   inkscape:pageshadow="2"
   inkscape:window-width="640"
   inkscape:window-height="480"
   id="namedview57"
   showgrid="false"
   inkscape:zoom="1.4193119"
   inkscape:cx="30.235833"
   inkscape:cy="37.786193"
   inkscape:window-x="0"
   inkscape:window-y="0"
   inkscape:window-maximized="0"
   inkscape:current-layer="svg55" />
	<style
   type="text/css"
   id="style2">
	<![CDATA[
		.st1 {fill:#005ba1;stroke:none;stroke-linecap:butt;stroke-width:34}
		.st2 {fill:#0078d4;stroke:none;stroke-linecap:butt;stroke-width:34}
		.st3 {fill:url(#grad0-10);stroke:none;stroke-linecap:butt;stroke-width:34}
		.st4 {fill:url(#grad0-14);stroke:none;stroke-linecap:butt;stroke-width:34}
		.st5 {fill:#ffffff;fill-opacity:0.6;stroke:none;stroke-linecap:butt;stroke-width:34}
		.st6 {fill:#ffffff;fill-opacity:0.5;stroke:none;stroke-linecap:butt;stroke-width:34}
		.st7 {fill:none;fill-rule:evenodd;font-size:12px;overflow:visible;stroke-linecap:square;stroke-miterlimit:3}
	]]>
	</style>

	<defs
   id="Patterns_And_Gradients">
		<linearGradient
   id="grad0-10"
   x1="-1.0883175e-06"
   y1="40.431875"
   x2="33.697191"
   y2="40.431875"
   gradientTransform="scale(0.59441158,1.682336)"
   gradientUnits="userSpaceOnUse">
			<stop
   offset="0"
   stop-color="#0078d4"
   stop-opacity="1"
   id="stop4" />
			<stop
   offset="1"
   stop-color="#83b9f9"
   stop-opacity="1"
   id="stop6" />
		</linearGradient>
		<linearGradient
   id="grad0-14"
   x1="0"
   y1="28.596789"
   x2="23.833461"
   y2="28.596789"
   gradientTransform="scale(0.42041737,2.3785887)"
   gradientUnits="userSpaceOnUse">
			<stop
   offset="0"
   stop-color="#5ea0ef"
   stop-opacity="1"
   id="stop9" />
			<stop
   offset="1"
   stop-color="#83b9f9"
   stop-opacity="1"
   id="stop11" />
		</linearGradient>
	</defs>
	<g
   id="g53"
   transform="translate(-34.000632,-34.0043)">
		<title
   id="title15">Page-1</title>
		<g
   id="group16495-1"
   transform="translate(34,-34.0157)">
			<title
   id="title17">Function App Advanced Tool.16495</title>
			<g
   id="group16496-2">
				<title
   id="title19">Sheet.16496</title>
				<g
   id="shape16497-3"
   transform="translate(11.9652,-46.4031)">
					<title
   id="title21">Sheet.16497</title>
					<path
   d="M 29.44,124.71 H 0 v -3.81 h 29.44 a 2.41511,2.48189 0 0 1 0.95,0.2 l 2.63,1.14 a 0.594582,0.611024 0 0 1 0,1.12756 L 30.39,124.51 a 2.47027,2.53858 0 0 1 -0.95,0.2 z"
   class="st1"
   id="path23"
   inkscape:connector-curvature="0"
   style="fill:#005ba1;stroke:none;stroke-width:34;stroke-linecap:butt" />
				</g>
				<g
   id="shape16498-5"
   transform="translate(13.1758,-14.5953)">
					<title
   id="title26">Sheet.16498</title>
					<path
   d="m 28.45,116.94 2.43,6.17 a 1.16158,1.1937 0 0 1 -1.36,1.6 l -6.71,-1.72 a 3.35295,3.44567 0 0 1 -1.56,-0.91 L 0,100.25 6.3,93.78 27.72,115.79 a 3.40505,3.49921 0 0 1 0.73,1.15 z"
   class="st2"
   id="path28"
   inkscape:connector-curvature="0"
   style="fill:#0078d4;stroke:none;stroke-width:34;stroke-linecap:butt" />
				</g>
				<g
   id="shape16499-7">
					<title
   id="title31">Sheet.16499</title>
					<path
   d="m 0,114.41 a 10.0177,10.2963 -180 0 0 10.02,10.3 10.0177,10.2963 -180 0 0 10.01,-10.3 V 78.31 A 10.0177,10.2963 -180 0 0 10.02,68.02 10.0177,10.2963 -180 0 0 0,78.31 Z"
   class="st3"
   id="path33"
   inkscape:connector-curvature="0"
   style="fill:url(#grad0-10);stroke:none;stroke-width:34;stroke-linecap:butt" />
				</g>
				<g
   id="shape16500-11"
   transform="translate(10.0159)">
					<title
   id="title36">Sheet.16500</title>
					<path
   d="M 0,124.71 V 68.02 a 10.019,10.2961 0 0 1 10.02,10.29 v 36.1 A 10.019,10.2961 0 0 1 0,124.71 Z"
   class="st4"
   id="path38"
   inkscape:connector-curvature="0"
   style="fill:url(#grad0-14);stroke:none;stroke-width:34;stroke-linecap:butt" />
				</g>
				<g
   id="shape16501-15"
   transform="translate(5.70063,-42.4315)">
					<title
   id="title41">Sheet.16501</title>
					<ellipse
   cx="4.31532"
   cy="120.274"
   rx="4.31532"
   ry="4.4346499"
   class="st5"
   id="ellipse43"
   style="fill:#ffffff;fill-opacity:0.6;stroke:none;stroke-width:34;stroke-linecap:butt" />
				</g>
				<g
   id="shape16502-17"
   transform="translate(10.0159,-42.4315)">
					<title
   id="title46">Sheet.16502</title>
					<path
   d="M 4.32,120.27 A 4.31532,4.43465 0 0 1 0,124.71 v -8.87 a 4.31532,4.43465 0 0 1 4.32,4.43 z"
   class="st6"
   id="path48"
   inkscape:connector-curvature="0"
   style="fill:#ffffff;fill-opacity:0.5;stroke:none;stroke-width:34;stroke-linecap:butt" />
				</g>
			</g>
		</g>
	</g>
</svg>