<?xml version="1.0" encoding="UTF-8" standalone="no"?>
<!DOCTYPE svg PUBLIC "-//W3C//DTD SVG 1.1//EN" "http://www.w3.org/Graphics/SVG/1.1/DTD/svg11.dtd">
<!-- Generated by Microsoft Visio, SVG Export Integration Service Environment.svg Page-1 -->
<svg xmlns="http://www.w3.org/2000/svg" xmlns:xlink="http://www.w3.org/1999/xlink" xmlns:ev="http://www.w3.org/2001/xml-events"
		width="1.1274in" height="1.42984in" viewBox="0 0 81.1729 102.949" xml:space="preserve" color-interpolation-filters="sRGB"
		class="st7">
	<style type="text/css">
	<![CDATA[
		.st1 {fill:#0072c6;stroke:none;stroke-linecap:butt;stroke-width:12.24}
		.st2 {fill:#ffffff;fill-opacity:0.8;stroke:none;stroke-linecap:butt;stroke-width:12.24}
		.st3 {fill:#3999c6;stroke:none;stroke-linecap:butt;stroke-width:12.24}
		.st4 {fill:#57a300;stroke:none;stroke-linecap:butt;stroke-width:12.24}
		.st5 {fill:#804998;stroke:none;stroke-linecap:butt;stroke-width:12.24}
		.st6 {fill:#ffffff;stroke:none;stroke-linecap:butt;stroke-width:12.24}
		.st7 {fill:none;fill-rule:evenodd;font-size:12px;overflow:visible;stroke-linecap:square;stroke-miterlimit:3}
	]]>
	</style>

	<g>
		<title>Page-1</title>
		<g id="group6880-1" transform="translate(12.24,-34.0157)">
			<title>Integration Service Environment.6880</title>
			<g id="group6881-2">
				<title>Sheet.6881</title>
				<g id="shape6882-3">
					<title>Sheet.6882</title>
					<ellipse cx="28.3465" cy="74.6022" rx="28.3465" ry="28.3465" class="st1"/>
				</g>
				<g id="shape6883-5" transform="translate(3.43953,-3.43953)">
					<title>Sheet.6883</title>
					<ellipse cx="24.9069" cy="78.0417" rx="24.9069" ry="24.9069" class="st2"/>
				</g>
				<g id="shape6884-7" transform="translate(15.3,-18.3837)">
					<title>Sheet.6884</title>
					<path d="M14.11 87.53 L14.11 81.6 L11.15 81.6 L11.15 87.53 C11.15 88.6 10.2 89.55 8.66 90.02 L4.63 90.85 C1.9
								 91.68 0 93.82 0 96.19 L0 102.95 L2.97 102.95 L2.97 96.19 C2.97 95.12 3.91 94.17 5.46 93.7 L9.49
								 92.75 C12.22 92.04 14.11 89.9 14.11 87.53 Z" class="st3"/>
				</g>
				<g id="shape6885-9" transform="translate(27.279,-18.3837)">
					<title>Sheet.6885</title>
					<path d="M0 87.53 L0 81.6 L2.97 81.6 L2.97 87.53 C2.97 88.6 3.91 89.55 5.46 90.02 L9.49 90.85 C12.22 91.68 14.11
								 93.82 14.11 96.19 L14.11 102.95 L11.15 102.95 L11.15 96.19 C11.15 95.12 10.2 94.17 8.66 93.7 L4.63
								 92.75 C1.9 92.04 0 89.9 0 87.53 Z" class="st3"/>
				</g>
				<g id="shape6886-11" transform="translate(11.7418,-12.6907)">
					<title>Sheet.6886</title>
					<path d="M10.2 100.34 L10.2 94.88 C10.2 93.58 9.13 92.51 7.83 92.51 L2.37 92.51 C1.07 92.51 0 93.58 0 94.88 L0
								 100.34 C0 101.64 1.07 102.71 2.37 102.71 L7.83 102.71 C9.13 102.71 10.2 101.64 10.2 100.34 ZM23.01
								 100.58 L23.01 95.12 C23.01 93.82 24.08 92.75 25.38 92.75 L30.84 92.75 C32.14 92.75 33.21 93.82 33.21
								 95.12 L33.21 100.58 C33.21 101.88 32.14 102.95 30.84 102.95 L25.38 102.95 C24.08 102.95 23.01 101.88
								 23.01 100.58 Z" class="st4"/>
				</g>
				<g id="shape6887-13" transform="translate(22.4162,-36.6488)">
					<title>Sheet.6887</title>
					<path d="M8.29 94.66 L8.29 99.38 L3.57 99.38 L3.57 94.66 L8.29 94.66 ZM9.31 91.09 L2.55 91.09 C1.15 91.09 0 92.24
								 0 93.64 L0 100.4 C0 101.8 1.15 102.95 2.55 102.95 L9.31 102.95 C10.71 102.95 11.86 101.8 11.86 100.4
								 L11.86 93.64 C11.86 92.24 10.71 91.09 9.31 91.09 Z" class="st5"/>
				</g>
				<g id="shape6888-15" transform="translate(25.9744,-40.2069)">
					<title>Sheet.6888</title>
					<rect x="0" y="98.2045" width="4.74418" height="4.74418" class="st6"/>
				</g>
			</g>
		</g>
	</g>
</svg>
