<?xml version="1.0" encoding="UTF-8" standalone="no"?>
<!DOCTYPE svg PUBLIC "-//W3C//DTD SVG 1.1//EN" "http://www.w3.org/Graphics/SVG/1.1/DTD/svg11.dtd">
<!-- Generated by Microsoft Visio, SVG Export Logic App.svg Page-1 -->
<svg xmlns="http://www.w3.org/2000/svg" xmlns:xlink="http://www.w3.org/1999/xlink" xmlns:ev="http://www.w3.org/2001/xml-events"
		width="1.75028in" height="1.55447in" viewBox="0 0 126.02 111.922" xml:space="preserve" color-interpolation-filters="sRGB"
		class="st5">
	<style type="text/css">
	<![CDATA[
		.st1 {fill:#949494;stroke:none;stroke-linecap:butt;stroke-width:34.6637}
		.st2 {fill:#005ba1;stroke:none;stroke-linecap:butt;stroke-width:34.6637}
		.st3 {fill:#0078d4;stroke:none;stroke-linecap:butt;stroke-width:34.6637}
		.st4 {fill:url(#grad0-14);stroke:none;stroke-linecap:butt;stroke-width:34.6637}
		.st5 {fill:none;fill-rule:evenodd;font-size:12px;overflow:visible;stroke-linecap:square;stroke-miterlimit:3}
	]]>
	</style>

	<defs id="Patterns_And_Gradients">
		<linearGradient id="grad0-14" x1="0" y1="0" x2="1" y2="0" gradientTransform="rotate(90 0.5 0.5)">
			<stop offset="0" stop-color="#76bc2d" stop-opacity="1"/>
			<stop offset="1" stop-color="#5e9624" stop-opacity="1"/>
		</linearGradient>
	</defs>
	<g>
		<title>Page-1</title>
		<g id="group7484-1" transform="translate(34.6637,-34.6954)">
			<title>Logic App.7484</title>
			<g id="group7485-2">
				<title>g28</title>
				<g id="shape7486-3">
					<title>path16</title>
					<path d="M8.97 111.92 A8.30384 8.02076 0 0 1 3.87 110.7 A5.66929 5.47602 0 0 1 2.37 106.32 L2.37 94.95 C2.37
								 93.08 1.6 92.08 0 92.08 L0 89.24 C1.6 89.24 2.37 88.25 2.37 86.28 L2.37 75.1 A5.96943 5.76593 0
								 0 1 3.87 70.63 A7.63687 7.37652 0 0 1 8.97 69.4 L8.97 72.27 C7.27 72.27 6.34 73.14 6.34 75.01 L6.34
								 85.96 C6.34 88.47 5.57 90.02 3.87 90.66 A4.73553 4.57409 0 0 1 6.34 95.36 L6.34 106.22 A4.1686 4.02649
								 -180 0 0 6.9 108.41 A2.46781 2.38368 -180 0 0 8.84 109.05 L8.84 111.92 L8.97 111.92 Z" class="st1"/>
				</g>
				<g id="shape7487-5" transform="translate(47.7221,0)">
					<title>path18</title>
					<path d="M0 69.4 A8.30384 8.02076 0 0 1 5.1 70.63 A5.66929 5.47602 0 0 1 6.6 75.01 L6.6 86.38 C6.6 88.25 7.37
								 89.24 8.97 89.24 L8.97 92.08 C7.37 92.08 6.6 93.08 6.6 95.04 L6.6 106.09 A6.00278 5.79814 0 0 1
								 5.1 110.6 A7.60352 7.34431 0 0 1 0 111.92 L0 109.05 C1.7 109.05 2.63 108.19 2.63 106.32 L2.63 95.36
								 C2.63 92.85 3.4 91.31 5.1 90.66 A4.73553 4.57409 0 0 1 2.63 85.96 L2.63 75.1 A4.1686 4.02649 -180
								 0 0 2.07 72.91 A2.46781 2.38368 -180 0 0 0.13 72.27 L0 69.4 Z" class="st1"/>
				</g>
				<g id="shape7488-7" transform="translate(13.8064,-16.2348)">
					<title>path20</title>
					<path d="M15.91 104.8 L15.91 100.71 L12.91 100.71 L12.91 104.8 a0.600278 0.579814 0 0 1 -0.600278 0.579814 L1.2
								 105.38 A1.20056 1.15963 -180 0 0 -0 106.54 L0 111.86 L3 111.86 L3 108.93 a0.600278 0.579814 0 0
								 1 0.566929 -0.579814 L25.38 108.35 a0.600278 0.579814 0 0 1 0.600278 0.579814 L25.98 111.92 L28.95
								 111.92 L28.95 106.54 A1.20056 1.15963 -180 0 0 27.78 105.38 L16.51 105.38 a0.600278 0.579814 0 0
								 1 -0.600278 -0.579814 Z" class="st2"/>
				</g>
				<g id="shape7489-9" transform="translate(21.2432,-26.7037)">
					<title>path22</title>
					<path d="M12.47 98.71 L1.27 98.71 A1.26725 1.22405 -180 0 0 -0 99.91 L0 110.73 A1.2339 1.19184 -180 0 0 1.27
								 111.92 L12.47 111.92 A1.2339 1.19184 -180 0 0 13.77 110.73 L13.77 99.91 A1.26725 1.22405 -180 0
								 0 12.47 98.71 ZM11.41 108.93 a0.833719 0.805297 0 0 1 -0.833719 0.773085 L3.13 109.7 a0.833719 0.805297
								 0 0 1 -0.833719 -0.773085 L2.3 101.74 a0.833719 0.805297 0 0 1 0.833719 -0.805297 L10.44 100.94
								 a0.833719 0.805297 0 0 1 0.833719 0.805297 L11.41 108.93 Z" class="st3"/>
				</g>
				<g id="shape7490-11" transform="translate(10.2714,-6.79671)">
					<title>rect24</title>
					<path d="M-0 111.05 a0.900438 0.869741 -180 0 0 0.900417 0.869721 L8.9 111.92 a0.900438 0.869741 -180 0 0 0.900417
								 -0.869721 L9.8 103.32 a0.900438 0.869741 -180 0 0 -0.900417 -0.869721 L0.9 102.45 a0.900438 0.869741
								 -180 0 0 -0.900417 0.869721 L0 111.05 Z" class="st4"/>
				</g>
				<g id="shape7491-15" transform="translate(36.2835,-6.73228)">
					<title>rect26</title>
					<path d="M-0 111.05 a0.900438 0.869741 -180 0 0 0.900417 0.869721 L8.9 111.92 a0.900438 0.869741 -180 0 0 0.900417
								 -0.869721 L9.8 103.32 a0.900438 0.869741 -180 0 0 -0.900417 -0.869721 L0.9 102.45 a0.900438 0.869741
								 -180 0 0 -0.900417 0.869721 L0 111.05 Z" class="st4"/>
				</g>
			</g>
		</g>
	</g>
</svg>
