<?xml version="1.0" encoding="UTF-8" standalone="no"?>
<!DOCTYPE svg PUBLIC "-//W3C//DTD SVG 1.1//EN" "http://www.w3.org/Graphics/SVG/1.1/DTD/svg11.dtd">
<!-- Generated by Microsoft Visio, SVG Export Service Endpoint.svg Page-1 -->
<svg xmlns="http://www.w3.org/2000/svg" xmlns:xlink="http://www.w3.org/1999/xlink" xmlns:ev="http://www.w3.org/2001/xml-events"
		width="1.08566in" height="1.42799in" viewBox="0 0 78.1677 102.815" xml:space="preserve" color-interpolation-filters="sRGB"
		class="st6">
	<style type="text/css">
	<![CDATA[
		.st1 {fill:#3999c6;stroke:none;stroke-linecap:butt;stroke-width:12.24}
		.st2 {fill:#57a300;stroke:none;stroke-linecap:butt;stroke-width:12.24}
		.st3 {fill:#59b4d9;stroke:none;stroke-linecap:butt;stroke-width:12.24}
		.st4 {fill:#ffffff;stroke:none;stroke-linecap:butt;stroke-width:12.24}
		.st5 {fill:#ffffff;fill-opacity:0.2;stroke:none;stroke-linecap:butt;stroke-width:12.24}
		.st6 {fill:none;fill-rule:evenodd;font-size:12px;overflow:visible;stroke-linecap:square;stroke-miterlimit:3}
	]]>
	</style>

	<g>
		<title>Page-1</title>
		<g id="group6799-1" transform="translate(12.24,-34.0157)">
			<title>Service Endpoint.6799</title>
			<g id="group6800-2">
				<title>g24</title>
				<g id="shape6801-3" transform="translate(0.586231,-25.775)">
					<title>path4</title>
					<path d="M52.74 88.1 C53.27 87.57 53.17 86.72 52.74 86.18 L50.21 83.62 L38.79 72.43 C38.26 71.9 37.52 71.9 36.99
								 72.43 C36.47 72.96 36.36 73.82 36.99 74.35 L48.94 86.18 A1.34061 1.35218 0 0 1 48.94 88.1 L36.78
								 100.36 A1.34061 1.35218 -180 0 0 36.78 102.28 C37.31 102.82 38.16 102.71 38.58 102.28 L49.89 90.98
								 L50 90.88 L52.74 88.1 ZM0.53 88.1 C0 87.57 0.11 86.72 0.53 86.18 L3.07 83.62 L14.48 72.43 C15.01
								 71.9 15.75 71.9 16.28 72.43 C16.81 72.96 16.91 73.82 16.28 74.35 L4.55 86.18 A1.34061 1.35218 -180
								 0 0 4.55 88.1 L16.49 100.36 A1.34061 1.35218 0 0 1 16.49 102.28 C15.96 102.82 15.12 102.71 14.69
								 102.28 L3.17 91.09 L3.07 90.98 L0.53 88.1 Z" class="st1"/>
				</g>
				<g id="shape6802-5" transform="translate(11.9291,-37.2422)">
					<title>path6</title>
					<path d="M7.95 98.8 C7.95 101.11 6.08 102.82 4.09 102.82 C2.11 102.82 0 100.87 0 98.8 C0 96.74 1.64 94.79 4.09
								 94.79 C6.43 94.79 7.95 96.74 7.95 98.8 Z" class="st2"/>
				</g>
				<g id="shape6803-7" transform="translate(34.6513,-37.2422)">
					<title>circle8</title>
					<ellipse cx="3.97637" cy="98.8048" rx="3.97637" ry="4.0107" class="st2"/>
				</g>
				<g id="shape6804-9">
					<title>path10</title>
					<path d="M45.44 86.77 C45.04 86.77 44.65 86.81 44.26 86.87 L44.26 86.86 C44.26 78.15 37.32 71.09 28.76 71.09
								 C21.92 71.09 16.12 75.6 14.06 81.85 A10.4033 10.4931 -180 0 0 10.6 81.25 C4.74 81.25 0 86.07 0 92.03
								 C0 97.99 4.74 102.81 10.6 102.81 L10.61 102.81 L10.61 102.82 L44.9 102.82 L44.9 102.81 L44.93 102.82
								 C45.02 102.82 45.1 102.81 45.19 102.8 C45.27 102.81 45.36 102.82 45.44 102.82 A7.95275 8.02139 -180
								 0 0 45.44 86.77 Z" class="st3"/>
				</g>
				<g id="shape6805-11" transform="translate(24.9943,-12.605)">
					<title>path12</title>
					<rect x="0" y="76.4594" width="4.54443" height="26.356" class="st4"/>
				</g>
				<g id="shape6806-13">
					<title>path14</title>
					<path d="M23.95 83.36 A15.3408 15.4733 0 0 1 31.92 71.43 C30.9 71.21 29.85 71.09 28.76 71.09 C21.92 71.09 16.12
								 75.59 14.06 81.85 A10.3976 10.4874 -180 0 0 10.6 81.25 C4.74 81.25 0 86.07 0 92.03 C0 97.99 4.74
								 102.81 10.6 102.81 L10.61 102.81 L10.61 102.82 L15.07 102.82 A11.8712 11.9736 0 0 1 12.5 95.37 C12.5
								 88.88 17.59 83.61 23.95 83.36 Z" class="st5"/>
				</g>
				<g id="shape6807-15" transform="translate(23.2902,-37.2422)">
					<title>path16</title>
					<path d="M7.95 98.8 C7.95 101.11 6.08 102.82 4.09 102.82 C2.11 102.82 0 100.87 0 98.8 C0 96.74 1.87 94.79 4.09
								 94.79 C6.32 94.79 7.95 96.74 7.95 98.8 Z" class="st2"/>
				</g>
				<g id="shape6808-17" transform="translate(22.6085,-9.05157)">
					<title>path18</title>
					<path d="M6.93 94.01 L6.93 80.18 C6.67 80.17 6.42 80.14 6.15 80.14 C4.85 80.14 3.59 80.31 2.39 80.61 L2.39 94.11
								 C0.99 94.95 0 96.45 0 98.12 C0 100.53 2.31 102.82 4.76 102.82 C7.27 102.82 9.32 100.71 9.32 98.12
								 A4.66145 4.70168 -180 0 0 6.93 94.01 Z" class="st4"/>
				</g>
				<g id="shape6809-19" transform="translate(23.9718,-10.4278)">
					<title>path20</title>
					<path d="M6.59 99.49 C6.59 101.41 5.04 102.82 3.39 102.82 C1.74 102.82 0 101.2 0 99.49 C0 97.78 1.55 96.17 3.39
								 96.17 C5.23 96.17 6.59 97.78 6.59 99.49 Z" class="st2"/>
				</g>
				<g id="shape6810-21" transform="translate(26.1305,-13.751)">
					<title>path22</title>
					<rect x="0" y="78.7513" width="2.27221" height="24.0642" class="st2"/>
				</g>
			</g>
		</g>
	</g>
</svg>
