<?xml version="1.0" encoding="UTF-8" standalone="no"?>
<!DOCTYPE svg PUBLIC "-//W3C//DTD SVG 1.1//EN" "http://www.w3.org/Graphics/SVG/1.1/DTD/svg11.dtd">
<!-- Generated by Microsoft Visio, SVG Export Azure Monitor Private Link Scope.svg Page-1 -->
<svg xmlns="http://www.w3.org/2000/svg" xmlns:xlink="http://www.w3.org/1999/xlink" xmlns:ev="http://www.w3.org/2001/xml-events"
		width="1.45626in" height="1.73637in" viewBox="0 0 104.85 125.018" xml:space="preserve" color-interpolation-filters="sRGB"
		class="st5">
	<style type="text/css">
	<![CDATA[
		.st1 {fill:#7a7a7a;stroke:none;stroke-linecap:butt;stroke-width:34}
		.st2 {fill:#1490df;stroke:none;stroke-linecap:butt;stroke-width:34}
		.st3 {fill:url(#grad0-10);stroke:none;stroke-linecap:butt;stroke-width:34}
		.st4 {fill:url(#grad0-14);stroke:none;stroke-linecap:butt;stroke-width:34}
		.st5 {fill:none;fill-rule:evenodd;font-size:12px;overflow:visible;stroke-linecap:square;stroke-miterlimit:3}
	]]>
	</style>

	<defs id="Patterns_And_Gradients">
		<linearGradient id="grad0-10" x1="0" y1="0" x2="1" y2="0" gradientTransform="rotate(90 0.5 0.5)">
			<stop offset="0.23" stop-color="#5ea0ef" stop-opacity="1"/>
			<stop offset="0.32" stop-color="#5b9fee" stop-opacity="1"/>
			<stop offset="0.48" stop-color="#509aeb" stop-opacity="1"/>
			<stop offset="0.57" stop-color="#3f92e6" stop-opacity="1"/>
			<stop offset="0.75" stop-color="#2688df" stop-opacity="1"/>
			<stop offset="0.93" stop-color="#127fd9" stop-opacity="1"/>
		</linearGradient>
		<linearGradient id="grad0-14" x1="0" y1="0" x2="1" y2="0" gradientTransform="rotate(90 0.5 0.5)">
			<stop offset="0.02" stop-color="#5ea0ef" stop-opacity="1"/>
			<stop offset="0.14" stop-color="#5b9fee" stop-opacity="1"/>
			<stop offset="0.23" stop-color="#5b9fee" stop-opacity="1"/>
			<stop offset="0.34" stop-color="#509aeb" stop-opacity="1"/>
			<stop offset="0.44" stop-color="#3f92e6" stop-opacity="1"/>
			<stop offset="0.63" stop-color="#2688df" stop-opacity="1"/>
			<stop offset="0.93" stop-color="#127fd9" stop-opacity="1"/>
		</linearGradient>
	</defs>
	<g>
		<title>Page-1</title>
		<g id="group7540-1" transform="translate(34,-34.0157)">
			<title>Azure Monitor Private Link Scope</title>
			<g id="group7541-2">
				<title>Sheet.7541</title>
				<g id="shape7542-3" transform="translate(16.3059,-22.0419)">
					<title>Sheet.7542</title>
					<rect x="0" y="98.9797" width="3.99383" height="26.0386" class="st1"/>
				</g>
				<g id="shape7543-5" transform="translate(14.1623,-44.6209)">
					<title>Sheet.7543</title>
					<path d="M10 120.73 A5.85762 6.06152 0 1 1 4.14 114.67 A5.85762 6.06152 0 0 1 10 120.73 Z" class="st2"/>
				</g>
				<g id="shape7544-7" transform="translate(3.19684,-6.88492)">
					<title>Sheet.7544</title>
					<path d="M14.31 108.47 L7.92 108.47 A7.98767 8.2657 -180 0 0 6.68 124.89 A8.56915 8.86742 0 0 1 6.76 121.82 A5.04662
								 5.22228 0 0 1 7.92 111.5 L14.31 111.5 A5.05886 5.23495 0 1 1 14.31 121.97 L12.55 121.97 A3.79491
								 3.927 -180 0 0 12.17 123.64 A3.67249 3.80032 -180 0 0 12.42 125.02 L14.31 125.02 A7.99073 8.26887
								 -180 0 0 14.31 108.48 L14.31 108.47 Z" class="st3"/>
				</g>
				<g id="shape7545-11" transform="translate(11.1154,-2.84217E-13)">
					<title>Sheet.7545</title>
					<path d="M15.61 108.6 A9.18123 9.50081 0 0 1 15.71 109.86 A8.37022 8.66157 0 0 1 15.53 111.67 A5.04356 5.21911
								 0 0 1 14.38 121.99 L7.99 121.99 A5.05886 5.23495 0 1 1 7.99 111.52 L9.74 111.52 A3.60822 3.73382
								 -180 0 0 9.86 108.49 L7.99 108.49 A7.98767 8.2657 -180 0 0 7.99 125.02 L14.38 125.02 A7.98767 8.2657
								 -180 0 0 15.6 108.59 L15.61 108.6 Z" class="st4"/>
				</g>
				<g id="shape7546-15" transform="translate(0,-40.4291)">
					<title>Sheet.7546</title>
					<path d="M9.84 120.35 A5.76581 5.96651 0 0 1 8.46 116.65 A4.89666 5.0671 0 0 1 9.79 113.2 A1.3527 1.39979 -180
								 0 0 7.95 111.15 A7.65102 7.91734 -180 0 0 5.76 116.65 A8.47121 8.76608 -180 0 0 7.9 122.29 A1.34964
								 1.39662 -180 0 0 8.88 122.73 A1.33434 1.38078 -180 0 0 9.8 122.34 A1.34964 1.39662 -180 0 0 9.84
								 120.35 ZM3.74 125 A1.34046 1.38712 0 0 1 2.72 124.52 A12.3212 12.7501 0 0 1 0 116.72 A13.123 13.5798
								 0 0 1 2.7 108.97 A1.35047 1.39748 0 0 1 4.8 110.72 A10.5033 10.8689 -180 0 0 2.71 116.74 A9.5546
								 9.88718 -180 0 0 4.77 122.7 A1.3527 1.39979 0 0 1 3.75 125.02 L3.74 125 ZM28.47 111.16 A1.3527 1.39979
								 -180 0 0 26.63 113.2 A4.89666 5.0671 0 0 1 27.97 116.69 A5.76887 5.96968 0 0 1 26.58 120.39 A1.35075
								 1.39777 -180 0 0 28.54 122.32 A8.47121 8.76608 -180 0 0 30.67 116.66 A7.65102 7.91734 -180 0 0 28.47
								 111.16 ZM33.12 125.02 A1.34964 1.39662 0 0 1 32.1 122.7 A9.6862 10.0234 -180 0 0 34.16 116.74 A10.5003
								 10.8658 -180 0 0 32.07 110.72 A1.3527 1.39979 0 0 1 34.16 108.98 A13.1598 13.6178 0 0 1 36.85 116.74
								 A12.3243 12.7533 0 0 1 34.13 124.54 A1.3374 1.38395 0 0 1 33.12 125.02 Z" class="st2"/>
				</g>
			</g>
		</g>
	</g>
</svg>
