<?xml version="1.0" encoding="UTF-8" standalone="no"?>
<!DOCTYPE svg PUBLIC "-//W3C//DTD SVG 1.1//EN" "http://www.w3.org/Graphics/SVG/1.1/DTD/svg11.dtd">
<!-- Generated by Microsoft Visio, SVG Export Azure Cosmos DB Firewall and VNET.svg Page-1 -->
<svg xmlns="http://www.w3.org/2000/svg" xmlns:xlink="http://www.w3.org/1999/xlink" xmlns:ev="http://www.w3.org/2001/xml-events"
		width="1.12236in" height="1.42788in" viewBox="0 0 80.8097 102.807" xml:space="preserve" color-interpolation-filters="sRGB"
		class="st5">
	<style type="text/css">
	<![CDATA[
		.st1 {fill:#3999c6;stroke:none;stroke-linecap:butt;stroke-width:12.24}
		.st2 {fill:#57a300;stroke:none;stroke-linecap:butt;stroke-width:12.24}
		.st3 {fill:#b8d432;fill-opacity:0.4;stroke:none;stroke-linecap:butt;stroke-width:12.24}
		.st4 {fill:#ffffff;stroke:none;stroke-linecap:butt;stroke-width:12.24}
		.st5 {fill:none;fill-rule:evenodd;font-size:12px;overflow:visible;stroke-linecap:square;stroke-miterlimit:3}
	]]>
	</style>

	<g>
		<title>Page-1</title>
		<g id="group8097-1" transform="translate(12.0584,-34.0157)">
			<title>Azure Cosmos DB Firewall and VNET</title>
			<g id="group8098-2">
				<title>Sheet.8098</title>
				<g id="shape8099-3" transform="translate(0,-23.893)">
					<title>Sheet.8099</title>
					<path d="M56.13 87.2 C56.69 86.63 56.58 85.73 56.13 85.16 L53.43 82.45 L41.28 70.57 C40.72 70.01 39.93 70.01
								 39.37 70.57 C38.81 71.14 38.7 72.04 39.37 72.61 L52.08 85.16 C52.65 85.73 52.65 86.63 52.08 87.2
								 L39.15 100.21 A1.43079 1.43641 -180 0 0 39.15 102.24 C39.71 102.81 40.61 102.69 41.06 102.24 L53.1
								 90.25 L53.21 90.14 L56.13 87.2 ZM0.56 87.2 C0 86.63 0.11 85.73 0.56 85.16 L3.26 82.45 L15.41 70.57
								 C15.97 70.01 16.76 70.01 17.32 70.57 C17.88 71.14 18 72.04 17.32 72.61 L4.84 85.16 A1.43079 1.43641
								 -180 0 0 4.84 87.2 L17.55 100.21 C18.11 100.77 18.11 101.68 17.55 102.24 C16.98 102.81 16.08 102.69
								 15.63 102.24 L3.37 90.37 L3.26 90.25 L0.56 87.2 Z" class="st1"/>
				</g>
				<g id="shape8100-5" transform="translate(13.1035,-36.9847)">
					<title>Sheet.8100</title>
					<path d="M7.65 99.07 C7.65 101.22 5.85 102.81 3.94 102.81 C2.03 102.81 0 101 0 99.07 C0 97.15 1.57 95.34 3.94
								 95.34 C6.19 95.34 7.65 97.15 7.65 99.07 ZM19.01 99.07 C19.01 101.22 17.21 102.81 15.3 102.81 C13.39
								 102.81 11.36 101 11.36 99.07 C11.36 97.15 13.16 95.34 15.3 95.34 C17.44 95.34 19.01 97.15 19.01
								 99.07 Z" class="st2"/>
				</g>
				<g id="shape8101-7" transform="translate(36.164,-36.9847)">
					<title>Sheet.8101</title>
					<ellipse cx="3.71216" cy="99.0749" rx="3.71216" ry="3.7324" class="st2"/>
				</g>
				<g id="shape8102-9" transform="translate(27.2199,-2.84217E-13)">
					<title>Sheet.8102</title>
					<path d="M21.09 72.91 C13.64 72.09 12.39 68.86 12.39 68.86 C12.39 68.86 10.72 73.1 0 73.1 L0 90.49 C0 92.59 1.16
								 94.56 2.77 96.28 C6.43 100.18 12.39 102.81 12.39 102.81 C12.39 102.81 24.79 97.36 24.79 90.49 L24.79
								 73.1 C23.41 73.1 22.18 73.03 21.09 72.91 Z" class="st2"/>
				</g>
				<g id="shape8103-11" transform="translate(27.2199,-6.62558)">
					<title>Sheet.8103</title>
					<path d="M15.31 86.77 L20.89 79.66 C13.51 78.84 12.28 75.65 12.28 75.65 C12.28 75.65 10.62 79.85 0 79.85 L0 97.07
								 C0 99.15 1.15 101.1 2.75 102.81 L6.87 97.55 L15.31 86.77 Z" class="st3"/>
				</g>
				<g id="shape8104-13" transform="translate(33.9795,-10.1623)">
					<title>Sheet.8104</title>
					<path d="M10.7 94.89 L10.14 94.89 L10.14 92.61 A4.50641 4.52412 -180 0 0 1.13 92.61 L1.13 94.89 L0.56 94.89 a0.570061
								 0.572302 -180 0 0 -0.564428 0.576826 L0 102.23 C0 102.55 0.25 102.81 0.56 102.81 L10.7 102.81 a0.570061
								 0.572302 -180 0 0 0.564428 -0.576826 L11.27 95.47 a0.572314 0.574564 -180 0 0 -0.565555 -0.577957
								 ZM5.63 90.35 C6.88 90.35 7.89 91.36 7.89 92.61 L7.89 94.89 L3.38 94.89 L3.38 92.61 C3.38 91.36 4.39
								 90.35 5.63 90.35 Z" class="st4"/>
				</g>
			</g>
		</g>
	</g>
</svg>
