<?xml version="1.0" encoding="UTF-8" standalone="no"?>
<!DOCTYPE svg PUBLIC "-//W3C//DTD SVG 1.1//EN" "http://www.w3.org/Graphics/SVG/1.1/DTD/svg11.dtd">
<!-- Generated by Microsoft Visio, SVG Export Azure.svg Page-1 -->
<svg xmlns="http://www.w3.org/2000/svg" xmlns:xlink="http://www.w3.org/1999/xlink" xmlns:ev="http://www.w3.org/2001/xml-events"
		width="0.944882in" height="1.29528in" viewBox="0 0 68.0315 93.2598" xml:space="preserve" color-interpolation-filters="sRGB"
		class="st4">
	<style type="text/css">
	<![CDATA[
		.st1 {fill:url(#grad0-11);stroke:none;stroke-linecap:butt;stroke-width:0.832953}
		.st2 {fill:url(#grad0-17);stroke:none;stroke-linecap:butt;stroke-width:0.832953}
		.st3 {fill:url(#grad0-23);stroke:none;stroke-linecap:butt;stroke-width:0.832953}
		.st4 {fill:none;fill-rule:evenodd;font-size:12px;overflow:visible;stroke-linecap:square;stroke-miterlimit:3}
	]]>
	</style>

	<defs id="Patterns_And_Gradients">
		<linearGradient id="grad0-11" x1="0" y1="0" x2="1" y2="0" gradientTransform="rotate(129.24612929083 0.5 0.5)">
			<stop offset="0" stop-color="#0c3f76" stop-opacity="1"/>
			<stop offset="0.99" stop-color="#0667ba" stop-opacity="1"/>
		</linearGradient>
		<linearGradient id="grad0-17" x1="0" y1="0" x2="1" y2="0" gradientTransform="rotate(162.09711718654 0.5 0.5)">
			<stop offset="0" stop-color="#000000" stop-opacity="1"/>
			<stop offset="0.33" stop-color="#0266b0" stop-opacity="1"/>
			<stop offset="0.99" stop-color="#0078d4" stop-opacity="1"/>
		</linearGradient>
		<linearGradient id="grad0-23" x1="0" y1="0" x2="1" y2="0" gradientTransform="rotate(66.315652589859 0.5 0.5)">
			<stop offset="0" stop-color="#3ac5ef" stop-opacity="1"/>
			<stop offset="1" stop-color="#2994e0" stop-opacity="1"/>
		</linearGradient>
	</defs>
	<g>
		<title>Page-1</title>
		<g id="group8706-1" transform="translate(5.66929,-34.0157)">
			<title>Azure</title>
			<g id="group8707-2">
				<title>Page-1</title>
				<g id="group8708-3">
					<title>Azure v2.8134</title>
					<g id="group8709-4">
						<title>Page-1</title>
						<g id="group8710-5">
							<title>g841</title>
							<g id="group8711-6" transform="translate(0,-0.055497)">
								<title>path910</title>
								<g id="group8712-7">
									<title>Sheet.8712</title>
									<g id="shape8713-8">
										<title>path34</title>
										<path d="M0.85 88.68 L16.77 42.34 C17.87 39.46 20.92 39.57 21.86 42.25 L28.54 61.85 L19.34
													 89.05 C18.4 91.67 18.51 93.16 15.13 93.25 L2.82 93.26 C0.76 93.22 0 91.15 0.85
													 88.68 Z" class="st1"/>
									</g>
								</g>
							</g>
							<g id="group8714-12" transform="translate(16.7042,-0.0278616)">
								<title>path922</title>
								<g id="group8715-13">
									<title>Sheet.8715</title>
									<g id="shape8716-14">
										<title>path42</title>
										<path d="M17.33 74.7 L3.17 74.7 C0 74.57 0.62 76.73 1.96 77.88 L16.59 91.55 L17.54 92.41
													 C18.41 93.22 19.06 93.23 19.06 93.23 C20.29 93.25 20.76 93.23 20.76 93.23 C22.42
													 93.26 23.11 91.83 22.44 89.76 L17.33 74.7 Z" class="st2"/>
									</g>
								</g>
							</g>
							<g id="group8717-18" transform="translate(19.1609,0)">
								<title>path920-4</title>
								<g id="group8718-19">
									<title>Sheet.8718</title>
									<g id="shape8719-20">
										<title>path50</title>
										<path d="M0 40.15 C0 40.15 15.68 40.09 17.23 40.1 C20.19 40.01 20.49 40.85 21.86 44.82 L36.69
													 88.72 C37.07 90.17 37.53 91.61 36.81 92.4 C36.08 93.22 34.32 93.2 32.52 93.21
													 C32.52 93.21 19.7 93.22 15.94 93.21 C15.94 93.21 17.63 93.26 18.36 92.88 C20.17
													 91.98 19.26 90.82 18.8 89.27 L2.93 43.3 C1.97 39.96 0 40.15 0 40.15 Z"
												class="st3"/>
									</g>
								</g>
							</g>
						</g>
					</g>
				</g>
			</g>
		</g>
	</g>
</svg>
