<?xml version="1.0" encoding="UTF-8" standalone="no"?>
<!DOCTYPE svg PUBLIC "-//W3C//DTD SVG 1.1//EN" "http://www.w3.org/Graphics/SVG/1.1/DTD/svg11.dtd">
<!-- Generated by Microsoft Visio, SVG Export CDN Origin.svg Page-1 -->
<svg xmlns="http://www.w3.org/2000/svg" xmlns:xlink="http://www.w3.org/1999/xlink" xmlns:ev="http://www.w3.org/2001/xml-events"
		width="1.72356in" height="1.57722in" viewBox="0 0 124.096 113.56" xml:space="preserve" color-interpolation-filters="sRGB"
		class="st6">
	<style type="text/css">
	<![CDATA[
		.st1 {fill:#5e9624;stroke:none;stroke-linecap:butt;stroke-width:34}
		.st2 {fill:url(#grad0-12);stroke:none;stroke-linecap:butt;stroke-width:34}
		.st3 {fill:url(#grad0-16);stroke:none;stroke-linecap:butt;stroke-width:34}
		.st4 {fill:url(#grad0-20);stroke:none;stroke-linecap:butt;stroke-width:34}
		.st5 {fill:#e6e6e6;stroke:none;stroke-linecap:butt;stroke-width:34}
		.st6 {fill:none;fill-rule:evenodd;font-size:12px;overflow:visible;stroke-linecap:square;stroke-miterlimit:3}
	]]>
	</style>

	<defs id="Patterns_And_Gradients">
		<linearGradient id="grad0-12" x1="0" y1="0" x2="1" y2="0" gradientTransform="rotate(90 0.5 0.5)">
			<stop offset="0" stop-color="#76bc2d" stop-opacity="1"/>
			<stop offset="0.31" stop-color="#72b62c" stop-opacity="1"/>
			<stop offset="1" stop-color="#5e9624" stop-opacity="1"/>
		</linearGradient>
		<linearGradient id="grad0-16" x1="0" y1="0" x2="1" y2="0" gradientTransform="rotate(89.999999999999 0.5 0.5)">
			<stop offset="0" stop-color="#76bc2d" stop-opacity="1"/>
			<stop offset="0.31" stop-color="#72b62c" stop-opacity="1"/>
			<stop offset="1" stop-color="#5e9624" stop-opacity="1"/>
		</linearGradient>
		<linearGradient id="grad0-20" x1="0" y1="0" x2="1" y2="0" gradientTransform="rotate(90 0.5 0.5)">
			<stop offset="0" stop-color="#76bc2d" stop-opacity="1"/>
			<stop offset="0.31" stop-color="#72b62c" stop-opacity="1"/>
			<stop offset="1" stop-color="#5e9624" stop-opacity="1"/>
		</linearGradient>
	</defs>
	<g>
		<title>Page-1</title>
		<g id="group6973-1" transform="translate(33.5087,-34.1028)">
			<title>CDN Origin</title>
			<g id="group6974-2">
				<title>MsPortalFx.base.images-30</title>
				<g id="shape6975-3" transform="translate(-57.3583,111.759) rotate(-90)">
					<title>Sheet.6975</title>
					<path d="M0 111.72 A1.87721 1.84467 -180 0 0 1.88 113.56 L5.98 113.56 A1.87721 1.84467 -180 0 0 7.86 111.72 L7.86
								 59.69 A1.87721 1.84467 -180 0 0 5.98 57.85 L1.88 57.85 A1.87721 1.84467 -180 0 0 0 59.69 L0 111.72
								 Z" class="st1"/>
				</g>
				<g id="shape6976-5" transform="translate(-57.3583,94.9929) rotate(-90)">
					<title>Sheet.6976</title>
					<path d="M0 111.72 A1.87721 1.84467 -180 0 0 1.88 113.56 L5.98 113.56 A1.87721 1.84467 -180 0 0 7.86 111.72 L7.86
								 59.69 A1.87721 1.84467 -180 0 0 5.98 57.85 L1.88 57.85 A1.87721 1.84467 -180 0 0 0 59.69 L0 111.72
								 Z" class="st1"/>
				</g>
				<g id="shape6977-7" transform="translate(-57.3583,77.9611) rotate(-90)">
					<title>Sheet.6977</title>
					<path d="M0 111.72 A1.87721 1.84467 -180 0 0 1.88 113.56 L5.98 113.56 A1.87721 1.84467 -180 0 0 7.86 111.72 L7.86
								 59.69 A1.87721 1.84467 -180 0 0 5.98 57.85 L1.88 57.85 A1.87721 1.84467 -180 0 0 0 59.69 L0 111.72
								 Z" class="st1"/>
				</g>
				<g id="shape6978-9" transform="translate(-57.1901,111.759) rotate(-90)">
					<title>Sheet.6978</title>
					<path d="M0 111.72 A1.87721 1.84467 -180 0 0 1.88 113.56 L5.98 113.56 A1.87721 1.84467 -180 0 0 7.86 111.72 L7.86
								 78.77 A1.87721 1.84467 -180 0 0 5.98 76.92 L1.88 76.92 A1.87721 1.84467 -180 0 0 -0 78.77 L0 111.72
								 Z" class="st2"/>
				</g>
				<g id="shape6979-13" transform="translate(-56.9724,94.996) rotate(-90)">
					<title>Sheet.6979</title>
					<path d="M0 111.72 A1.87721 1.84467 -180 0 0 1.88 113.56 L5.98 113.56 A1.87721 1.84467 -180 0 0 7.86 111.72 L7.86
								 103.82 A1.87721 1.84467 -180 0 0 5.98 101.97 L1.88 101.97 A1.87721 1.84467 -180 0 0 0 103.82 L0
								 111.72 Z" class="st3"/>
				</g>
				<g id="shape6980-17" transform="translate(-57.1901,77.9611) rotate(-90)">
					<title>Sheet.6980</title>
					<path d="M0 111.72 A1.87721 1.84467 -180 0 0 1.88 113.56 L5.98 113.56 A1.87721 1.84467 -180 0 0 7.86 111.72 L7.86
								 78.77 A1.87721 1.84467 -180 0 0 5.98 76.92 L1.88 76.92 A1.87721 1.84467 -180 0 0 -0 78.77 L0 111.72
								 Z" class="st4"/>
				</g>
				<g id="shape6981-21" transform="translate(-90.8771,113.663) rotate(-90)">
					<title>Sheet.6981</title>
					<path d="M0 111.74 A1.85516 1.82301 -180 0 0 1.86 113.56 L10.01 113.56 A1.85516 1.82301 -180 0 0 11.86 111.74
								 A1.85516 1.82301 -180 0 0 10.01 109.91 L1.86 109.91 A1.85516 1.82301 -180 0 0 -0 111.74 Z"
							class="st5"/>
				</g>
				<g id="shape6982-23" transform="translate(-65.8976,96.8382) rotate(-90)">
					<title>Sheet.6982</title>
					<path d="M0 111.74 A1.85516 1.82301 -180 0 0 1.86 113.56 L10.01 113.56 A1.85516 1.82301 -180 0 0 11.86 111.74
								 A1.85516 1.82301 -180 0 0 10.01 109.91 L1.86 109.91 A1.85516 1.82301 -180 0 0 -0 111.74 Z"
							class="st5"/>
				</g>
				<g id="shape6983-25" transform="translate(-90.8771,79.9642) rotate(-90)">
					<title>Sheet.6983</title>
					<path d="M0 111.74 A1.85516 1.82301 -180 0 0 1.86 113.56 L10.01 113.56 A1.85516 1.82301 -180 0 0 11.86 111.74
								 A1.85516 1.82301 -180 0 0 10.01 109.91 L1.86 109.91 A1.85516 1.82301 -180 0 0 -0 111.74 Z"
							class="st5"/>
				</g>
			</g>
		</g>
	</g>
</svg>
