<?xml version="1.0" encoding="UTF-8" standalone="no"?>
<!DOCTYPE svg PUBLIC "-//W3C//DTD SVG 1.1//EN" "http://www.w3.org/Graphics/SVG/1.1/DTD/svg11.dtd">
<!-- Generated by Microsoft Visio, SVG Export Function App Proxy.svg Page-1 -->
<svg xmlns="http://www.w3.org/2000/svg" xmlns:xlink="http://www.w3.org/1999/xlink" xmlns:ev="http://www.w3.org/2001/xml-events"
		width="1.2124in" height="1.19675in" viewBox="0 0 87.2929 86.1661" xml:space="preserve" color-interpolation-filters="sRGB"
		class="st2">
	<style type="text/css">
	<![CDATA[
		.st1 {fill:#57a300;stroke:none;stroke-linecap:butt;stroke-width:15.3}
		.st2 {fill:none;fill-rule:evenodd;font-size:12px;overflow:visible;stroke-linecap:square;stroke-miterlimit:3}
	]]>
	</style>

	<g>
		<title>Page-1</title>
		<g id="group4301-1" transform="translate(15.3,-34.0157)">
			<title>Function App Proxy</title>
			<g id="group4302-2">
				<title>Sheet.4302</title>
				<g id="shape4303-3" transform="translate(12.0258,0)">
					<title>Sheet.4303</title>
					<path d="M31.5 64.38 C30.92 60.87 29.21 57.5 26.63 54.73 C23.19 51.22 18.75 49.32 13.89 49.32 C9.16 49.32 4.58
								 51.22 1.15 54.73 C0 55.9 0 57.8 1.15 59.11 C2.29 60.28 4.15 60.28 5.44 59.11 C7.73 56.77 10.74 55.6
								 13.89 55.6 C17.04 55.6 20.04 56.92 22.33 59.11 C27.06 63.94 27.06 71.69 22.33 76.37 C20.04 78.71
								 17.04 79.88 13.89 79.88 C10.74 79.88 7.73 78.56 5.44 76.37 C4.29 75.2 2.43 75.2 1.15 76.37 C0 77.54
								 0 79.44 1.15 80.76 C4.58 84.27 9.02 86.17 13.89 86.17 C18.61 86.17 23.19 84.27 26.63 80.76 C29.49
								 77.83 31.07 74.32 31.64 70.52 L37.22 70.52 C36.94 68.62 36.51 66.57 36.08 64.38 L31.5 64.38 Z"
							class="st1"/>
				</g>
				<g id="shape4304-5" transform="translate(18.8976,-11.4061)">
					<title>Sheet.4304</title>
					<ellipse cx="7.1582" cy="78.8546" rx="7.1582" ry="7.31159" class="st1"/>
				</g>
				<g id="shape4305-7" transform="translate(0,-15.5006)">
					<title>Sheet.4305</title>
					<path d="M0 79.73 L25.63 79.73 L25.63 86.17 L0 86.17 L0 79.73 ZM42.38 79.73 L56.69 79.73 L56.69 86.17 L42.38
								 86.17 L42.38 79.73 Z" class="st1"/>
				</g>
			</g>
		</g>
	</g>
</svg>
