<?xml version="1.0" encoding="UTF-8" standalone="no"?>
<!DOCTYPE svg PUBLIC "-//W3C//DTD SVG 1.1//EN" "http://www.w3.org/Graphics/SVG/1.1/DTD/svg11.dtd">
<!-- Generated by Microsoft Visio, SVG Export Policy Exemption.svg Page-1 -->
<svg xmlns="http://www.w3.org/2000/svg" xmlns:xlink="http://www.w3.org/1999/xlink" xmlns:ev="http://www.w3.org/2001/xml-events"
		width="1.8499in" height="1.8499in" viewBox="0 0 133.193 133.193" xml:space="preserve" color-interpolation-filters="sRGB"
		class="st3">
	<style type="text/css">
	<![CDATA[
		.st1 {fill:#b8d432;stroke:none;stroke-linecap:butt;stroke-width:38.25}
		.st2 {fill:#ffffff;stroke:none;stroke-linecap:butt;stroke-width:38.25}
		.st3 {fill:none;fill-rule:evenodd;font-size:12px;overflow:visible;stroke-linecap:square;stroke-miterlimit:3}
	]]>
	</style>

	<g>
		<title>Page-1</title>
		<g id="group2243-1" transform="translate(38.25,-38.25)">
			<title>Policy Exemption</title>
			<g id="group2244-2">
				<title>Sheet.2244</title>
				<g id="shape2245-3">
					<title>Sheet.2245</title>
					<path d="M28.35 76.5 C12.76 76.5 0 89.26 0 104.85 C0 120.44 12.76 133.19 28.35 133.19 C43.94 133.19 56.69 120.44
								 56.69 104.85 C56.69 89.26 43.94 76.5 28.35 76.5 Z" class="st1"/>
				</g>
				<g id="shape2246-5" transform="translate(3.54331,-3.54331)">
					<title>Sheet.2246</title>
					<ellipse cx="24.8031" cy="108.39" rx="24.8031" ry="24.8031" class="st2"/>
				</g>
				<g id="shape2247-7" transform="translate(13.8189,-13.4646)">
					<title>Sheet.2247</title>
					<path d="M29.06 107.68 L25.16 103.78 C24.8 103.43 24.09 103.43 23.74 103.78 L0.35 127.52 C0 127.88 0 128.59 0.35
								 128.94 L3.9 132.84 C4.25 133.19 4.96 133.19 5.31 132.84 L28.7 109.1 C29.06 108.74 29.41 108.04 29.06
								 107.68 Z" class="st1"/>
				</g>
			</g>
		</g>
	</g>
</svg>
