<?xml version="1.0" encoding="UTF-8" standalone="no"?>
<!DOCTYPE svg PUBLIC "-//W3C//DTD SVG 1.1//EN" "http://www.w3.org/Graphics/SVG/1.1/DTD/svg11.dtd">
<!-- Generated by Microsoft Visio, SVG Export Virtual Machine Scale Set.svg Page-1 -->
<svg xmlns="http://www.w3.org/2000/svg" xmlns:xlink="http://www.w3.org/1999/xlink" xmlns:ev="http://www.w3.org/2001/xml-events"
		width="1.7116in" height="1.72194in" viewBox="0 0 123.235 123.98" xml:space="preserve" color-interpolation-filters="sRGB"
		class="st8">
	<style type="text/css">
	<![CDATA[
		.st1 {fill:#005ba1;stroke:none;stroke-linecap:butt;stroke-width:33.271}
		.st2 {fill:#50e6ff;stroke:none;stroke-linecap:butt;stroke-width:33.271}
		.st3 {fill:#c3f1ff;stroke:none;stroke-linecap:butt;stroke-width:33.271}
		.st4 {fill:#9cebff;stroke:none;stroke-linecap:butt;stroke-width:33.271}
		.st5 {fill:#0078d4;stroke:none;stroke-linecap:butt;stroke-width:33.271}
		.st6 {fill:url(#grad0-22);stroke:none;stroke-linecap:butt;stroke-width:33.271}
		.st7 {fill:url(#grad0-36);stroke:none;stroke-linecap:butt;stroke-width:33.271}
		.st8 {fill:none;fill-rule:evenodd;font-size:12px;overflow:visible;stroke-linecap:square;stroke-miterlimit:3}
	]]>
	</style>

	<defs id="Patterns_And_Gradients">
		<linearGradient id="grad0-22" x1="0" y1="0" x2="1" y2="0" gradientTransform="rotate(-90 0.5 0.5)">
			<stop offset="0" stop-color="#0078d4" stop-opacity="1"/>
			<stop offset="0.82" stop-color="#5ea0ef" stop-opacity="1"/>
		</linearGradient>
		<linearGradient id="grad0-36" x1="0" y1="0" x2="1" y2="0" gradientTransform="rotate(-90 0.5 0.5)">
			<stop offset="0.15" stop-color="#cccccc" stop-opacity="1"/>
			<stop offset="1" stop-color="#707070" stop-opacity="1"/>
		</linearGradient>
	</defs>
	<g>
		<title>Page-1</title>
		<g id="group369-1" transform="translate(33.271,-34.0157)">
			<title>Virtual Machine Scale Set</title>
			<g id="group370-2">
				<title>layer1</title>
				<g id="shape371-3" transform="translate(0,-34.1825)">
					<title>rect16</title>
					<path d="M0 122.85 A1.13388 1.13388 -180 0 0 1.13 123.98 L32.58 123.98 A1.13388 1.13388 -180 0 0 33.72 122.85
								 L33.72 102.6 A1.13388 1.13388 -180 0 0 32.58 101.47 L1.13 101.47 A1.13388 1.13388 -180 0 0 -0 102.6
								 L0 122.85 Z" class="st1"/>
				</g>
				<g id="shape372-5" transform="translate(16.8745,-38.8846)">
					<title>polygon18</title>
					<path d="M0 123.98 L0 117.44 L5.6 114.14 L5.6 120.71 L0 123.98 Z" class="st2"/>
				</g>
				<g id="shape373-7" transform="translate(11.2385,-45.421)">
					<title>polygon20</title>
					<path d="M0 120.68 L5.64 117.38 L11.24 120.68 L5.64 123.98 L0 120.68 Z" class="st3"/>
				</g>
				<g id="shape374-9" transform="translate(11.2385,-38.8846)">
					<title>polygon22</title>
					<path d="M0 120.71 L0 114.14 L5.64 117.44 L5.64 123.98 L0 120.71 Z" class="st4"/>
				</g>
				<g id="shape375-11" transform="translate(13.2395,-21.2765)">
					<title>rect24</title>
					<path d="M0 122.85 A1.13388 1.13388 -180 0 0 1.13 123.98 L32.58 123.98 A1.13388 1.13388 -180 0 0 33.72 122.85
								 L33.72 102.6 A1.13388 1.13388 -180 0 0 32.58 101.47 L1.13 101.47 A1.13388 1.13388 -180 0 0 -0 102.6
								 L0 122.85 Z" class="st5"/>
				</g>
				<g id="shape376-13" transform="translate(30.1139,-25.9453)">
					<title>polygon26</title>
					<path d="M0 123.98 L0 117.41 L5.6 114.14 L5.6 120.68 L0 123.98 Z" class="st2"/>
				</g>
				<g id="shape377-15" transform="translate(24.478,-32.515)">
					<title>polygon28</title>
					<path d="M0 120.71 L5.64 117.41 L11.24 120.71 L5.64 123.98 L0 120.71 Z" class="st3"/>
				</g>
				<g id="shape378-17" transform="translate(24.478,-25.9453)">
					<title>polygon30</title>
					<path d="M0 120.68 L0 114.14 L5.64 117.41 L5.64 123.98 L0 120.68 Z" class="st4"/>
				</g>
				<g id="shape379-19" transform="translate(22.9773,-8.73734)">
					<title>rect32</title>
					<path d="M0 122.85 A1.13388 1.13388 -180 0 0 1.13 123.98 L32.58 123.98 A1.13388 1.13388 -180 0 0 33.72 122.85
								 L33.72 102.6 A1.13388 1.13388 -180 0 0 32.58 101.47 L1.13 101.47 A1.13388 1.13388 -180 0 0 -0 102.6
								 L0 122.85 Z" class="st6"/>
				</g>
				<g id="shape380-23" transform="translate(39.8518,-13.4062)">
					<title>polygon34</title>
					<path d="M0 123.98 L0 117.41 L5.6 114.14 L5.6 120.68 L0 123.98 Z" class="st2"/>
				</g>
				<g id="shape381-25" transform="translate(34.2158,-19.9426)">
					<title>polygon36</title>
					<path d="M0 120.68 L5.64 117.38 L11.24 120.68 L5.64 123.98 L0 120.68 Z" class="st3"/>
				</g>
				<g id="shape382-27" transform="translate(34.2158,-13.4062)">
					<title>polygon38</title>
					<path d="M0 120.68 L0 114.14 L5.64 117.44 L5.64 123.98 L0 120.68 Z" class="st4"/>
				</g>
				<g id="shape383-29" transform="translate(34.2158,-13.4062)">
					<title>polygon40</title>
					<path d="M0 120.68 L5.64 117.41 L5.64 123.98 L0 120.68 Z" class="st3"/>
				</g>
				<g id="shape384-31" transform="translate(39.8518,-13.4062)">
					<title>polygon42</title>
					<path d="M5.6 120.68 L0 117.41 L0 123.98 L5.6 120.68 Z" class="st4"/>
				</g>
				<g id="shape385-33" transform="translate(31.5813,-5.68434E-14)">
					<title>path44</title>
					<path d="M15.01 122.08 C11.67 121.55 11.67 119.14 11.67 115.41 L5 115.41 C5 119.28 5 121.68 1.67 122.08 A1.96758
								 1.96758 -180 0 0 0 123.98 L16.67 123.98 A1.96758 1.96758 -180 0 0 15.01 122.08 Z" class="st7"/>
				</g>
			</g>
		</g>
	</g>
</svg>
