<?xml version="1.0" encoding="UTF-8" standalone="no"?>
<!DOCTYPE svg PUBLIC "-//W3C//DTD SVG 1.1//EN" "http://www.w3.org/Graphics/SVG/1.1/DTD/svg11.dtd">
<!-- Generated by Microsoft Visio, SVG Export Web App File.svg Page-1 -->
<svg xmlns="http://www.w3.org/2000/svg" xmlns:xlink="http://www.w3.org/1999/xlink" xmlns:ev="http://www.w3.org/2001/xml-events"
		width="1.74438in" height="1.5869in" viewBox="0 0 125.596 114.257" xml:space="preserve" color-interpolation-filters="sRGB"
		class="st6">
	<style type="text/css">
	<![CDATA[
		.st1 {fill:url(#grad0-6);stroke:none;stroke-linecap:butt;stroke-width:34.4513}
		.st2 {fill:#0078d4;stroke:none;stroke-linecap:butt;stroke-width:34.4513}
		.st3 {fill:url(#grad0-12);stroke:none;stroke-linecap:butt;stroke-width:34.4513}
		.st4 {fill:#f2f2f2;stroke:none;stroke-linecap:butt;stroke-width:34.4513}
		.st5 {fill:url(#grad0-18);stroke:none;stroke-linecap:butt;stroke-width:34.4513}
		.st6 {fill:none;fill-rule:evenodd;font-size:12px;overflow:visible;stroke-linecap:square;stroke-miterlimit:3}
	]]>
	</style>

	<defs id="Patterns_And_Gradients">
		<linearGradient id="grad0-6" x1="0" y1="0" x2="1" y2="0" gradientTransform="rotate(-90 0.5 0.5)">
			<stop offset="0" stop-color="#0078d4" stop-opacity="1"/>
			<stop offset="0.5" stop-color="#4093e6" stop-opacity="1"/>
			<stop offset="0.775" stop-color="#5ea0ef" stop-opacity="1"/>
		</linearGradient>
		<linearGradient id="grad0-12" x1="0" y1="0" x2="1" y2="0" gradientTransform="rotate(44.919 0.5 0.5)">
			<stop offset="0" stop-color="#5ea0ef" stop-opacity="1"/>
			<stop offset="0.37" stop-color="#9fc6f5" stop-opacity="1"/>
			<stop offset="0.8" stop-color="#e4effc" stop-opacity="1"/>
			<stop offset="1" stop-color="#ffffff" stop-opacity="1"/>
		</linearGradient>
		<linearGradient id="grad0-18" x1="0" y1="0" x2="1" y2="0" gradientTransform="rotate(135.081 0.5 0.5)">
			<stop offset="0" stop-color="#ffffff" stop-opacity="1"/>
			<stop offset="0.2" stop-color="#e4effc" stop-opacity="1"/>
			<stop offset="0.63" stop-color="#9fc6f5" stop-opacity="1"/>
			<stop offset="1" stop-color="#5ea0ef" stop-opacity="1"/>
		</linearGradient>
	</defs>
	<g>
		<title>Page-1</title>
		<g id="group117-1" transform="translate(34.4513,-34.4513)">
			<title>Web App File</title>
			<g id="group118-2">
				<title>MsPortalFx.base.images-27</title>
				<g id="shape119-3">
					<title>path4</title>
					<path d="M0 80.92 L56.69 80.92 L56.69 112.37 A1.89421 1.88479 0 0 1 54.8 114.26 L1.89 114.26 A1.89421 1.88479
								 0 0 1 0 112.37 L0 80.92 Z" class="st1"/>
				</g>
				<g id="shape120-7" transform="translate(0,-33.3355)">
					<title>path6</title>
					<path d="M1.9 102.24 L54.79 102.24 A1.89421 1.88479 0 0 1 56.68 104.12 L56.68 114.26 L0 114.26 L0 104.12 A1.89421
								 1.88479 0 0 1 1.9 102.24 Z" class="st2"/>
				</g>
				<g id="shape121-9" transform="translate(-60.7999,25.1282) rotate(-44.919)">
					<title>path8</title>
					<path d="M1.05 100.9 L2.68 100.9 L2.68 113.74 a0.523576 0.520971 0 0 1 -0.523576 0.520971 L0.52 114.26 a0.523576
								 0.520971 0 0 1 -0.523576 -0.520971 L0 101.94 A1.04715 1.04194 0 0 1 1.05 100.9 L1.05 100.9 Z"
							class="st3"/>
				</g>
				<g id="shape122-13" transform="translate(10.8419,-15.795)">
					<title>path10</title>
					<path d="M1.46 114.26 L0.31 113.11 A1.04715 1.04194 0 0 1 0.31 111.63 L8.85 103.16 a0.523576 0.520971 0 0 1 0.740343
								 0 L10.74 104.31 a0.523576 0.520971 0 0 1 1.77636E-15 0.736659 L1.46 114.26 L1.46 114.26 Z"
							class="st4"/>
				</g>
				<g id="shape123-15" transform="translate(-35.0785,177.481) rotate(-135.081)">
					<title>path12</title>
					<path d="M0.52 100.88 L2.16 100.88 a0.523576 0.520971 0 0 1 0.523576 0.520971 L2.68 114.26 L1.05 114.26 A1.04715
								 1.04194 0 0 1 0 113.22 L0 101.4 a0.523576 0.520971 0 0 1 0.523576 -0.520971 L0.52 100.88 Z"
							class="st5"/>
				</g>
				<g id="shape124-19" transform="translate(34.2759,-15.7917)">
					<title>path14</title>
					<path d="M0.15 104.31 L1.31 103.16 a0.523576 0.520971 0 0 1 0.740343 1.42109E-14 L10.58 111.63 A1.04715 1.04194
								 0 0 1 10.59 113.11 L9.44 114.26 L0.16 105.06 a0.523576 0.520971 0 0 1 -0.00666975 -0.743296 Z"
							class="st4"/>
				</g>
				<g id="shape125-21" transform="translate(57.8756,-0.888264) rotate(17.752)">
					<title>rect16</title>
					<path d="M0 113.89 a0.373515 0.371657 -180 0 0 0.373506 0.371648 L2.31 114.26 a0.373515 0.371657 -180 0 0 0.373506
								 -0.371648 L2.69 89.3 a0.373515 0.371657 -180 0 0 -0.373506 -0.371648 L0.37 88.93 a0.373515 0.371657
								 -180 0 0 -0.373506 0.371648 L0 113.89 Z" class="st4"/>
				</g>
			</g>
		</g>
	</g>
</svg>
