<?xml version="1.0" encoding="UTF-8" standalone="no"?>
<!DOCTYPE svg PUBLIC "-//W3C//DTD SVG 1.1//EN" "http://www.w3.org/Graphics/SVG/1.1/DTD/svg11.dtd">
<!-- Generated by Microsoft Visio, SVG Export Azure Cache for Redis.svg Page-1 -->
<svg xmlns="http://www.w3.org/2000/svg" xmlns:xlink="http://www.w3.org/1999/xlink" xmlns:ev="http://www.w3.org/2001/xml-events"
		width="1.73185in" height="1.57458in" viewBox="0 0 124.693 113.37" xml:space="preserve" color-interpolation-filters="sRGB"
		class="st7">
	<style type="text/css">
	<![CDATA[
		.st1 {fill:url(#grad0-6);stroke:none;stroke-linecap:butt;stroke-width:34}
		.st2 {fill:#e8e8e8;stroke:none;stroke-linecap:butt;stroke-width:34}
		.st3 {fill:#50e6ff;stroke:none;stroke-linecap:butt;stroke-width:34}
		.st4 {fill:#32bedd;stroke:none;stroke-linecap:butt;stroke-width:34}
		.st5 {fill:#50e6ff}
		.st6 {stroke:none;stroke-linecap:butt;stroke-width:34}
		.st7 {fill:none;fill-rule:evenodd;font-size:12px;overflow:visible;stroke-linecap:square;stroke-miterlimit:3}
	]]>
	</style>

	<defs id="Patterns_And_Gradients">
		<linearGradient id="grad0-6" x1="0" y1="0" x2="1" y2="0" gradientTransform="rotate(0 0.5 0.5)">
			<stop offset="0" stop-color="#005ba1" stop-opacity="1"/>
			<stop offset="0.07" stop-color="#0060a9" stop-opacity="1"/>
			<stop offset="0.36" stop-color="#0071c8" stop-opacity="1"/>
			<stop offset="0.52" stop-color="#0078d4" stop-opacity="1"/>
			<stop offset="1" stop-color="#005ba1" stop-opacity="1"/>
		</linearGradient>
	</defs>
	<g>
		<title>Page-1</title>
		<g id="group8062-1" transform="translate(34,-34.0157)">
			<title>Azure Cache for Redis.8062</title>
			<g id="group8063-2">
				<title>Icon-databases-137</title>
				<g id="shape8064-3" transform="translate(30.0139,-14.8236)">
					<title>Sheet.8064</title>
					<path d="M13.34 91.18 C5.97 91.18 0 89.32 0 87 L0 109.21 C0 111.47 5.87 113.34 13.17 113.37 L13.34 113.37 C20.71
								 113.37 26.68 111.5 26.68 109.21 L26.68 87 C26.68 89.32 20.71 91.18 13.34 91.18 Z" class="st1"/>
				</g>
				<g id="shape8065-7" transform="translate(30.0139,-37.0099)">
					<title>Sheet.8065</title>
					<path d="M26.68 109.18 C26.68 111.5 20.71 113.37 13.34 113.37 C5.97 113.37 0 111.5 0 109.18 C0 106.86 5.97 105.03
								 13.34 105.03 C20.71 105.03 26.68 106.89 26.68 109.18 Z" class="st2"/>
				</g>
				<g id="shape8066-9" transform="translate(33.1153,-38.8751)">
					<title>Sheet.8066</title>
					<path d="M20.48 110.72 C20.48 112.19 15.87 113.37 10.24 113.37 C4.6 113.37 0 112.19 0 110.72 C0 109.25 4.6 108.07
								 10.24 108.07 C15.87 108.07 20.48 109.25 20.48 110.72 Z" class="st3"/>
				</g>
				<g id="shape8067-11" transform="translate(35.2497,-38.8751)">
					<title>Sheet.8067</title>
					<path d="M8.1 111.34 A28.8467 28.3056 -180 0 0 -0 112.32 A26.012 25.5241 -180 0 0 8.1 113.37 A26.012 25.5241
								 -180 0 0 16.21 112.32 A28.8467 28.3056 -180 0 0 8.1 111.34 Z" class="st4"/>
				</g>
				<g id="shape8068-13" transform="translate(0,-14.8236)">
					<title>Sheet.8068</title>
					<path d="M13.34 91.18 C5.97 91.18 0 89.32 0 87 L0 109.21 C0 111.47 5.87 113.34 13.34 113.37 C20.71 113.37 26.68
								 111.5 26.68 109.21 L26.68 87 C26.68 89.32 20.71 91.18 13.34 91.18 Z" class="st1"/>
				</g>
				<g id="shape8069-16" transform="translate(0,-37.0099)">
					<title>Sheet.8069</title>
					<path d="M26.68 109.18 C26.68 111.5 20.71 113.37 13.34 113.37 C5.97 113.37 0 111.5 0 109.18 C0 106.86 5.97 105.03
								 13.34 105.03 C20.71 105.03 26.68 106.89 26.68 109.18 Z" class="st2"/>
				</g>
				<g id="shape8070-18" transform="translate(3.10144,-38.8751)">
					<title>Sheet.8070</title>
					<path d="M20.48 110.72 C20.48 112.19 15.87 113.37 10.24 113.37 C4.6 113.37 0 112.19 0 110.72 C0 109.25 4.6 108.07
								 10.24 108.07 C15.87 108.07 20.48 109.25 20.48 110.72 Z" class="st3"/>
				</g>
				<g id="shape8071-20" transform="translate(5.23576,-38.8751)">
					<title>Sheet.8071</title>
					<path d="M8.1 111.34 A28.8467 28.3056 -180 0 0 0 112.32 A26.012 25.5241 -180 0 0 8.1 113.37 A26.012 25.5241 -180
								 0 0 16.21 112.32 A28.8467 28.3056 -180 0 0 8.1 111.34 Z" class="st4"/>
				</g>
				<g id="shape8072-22" transform="translate(15.0069,0)">
					<title>Sheet.8072</title>
					<path d="M13.34 91.18 C5.97 91.18 0 89.32 0 87 L0 109.21 C0 111.5 5.87 113.34 13.17 113.37 L13.34 113.37 C20.71
								 113.37 26.68 111.5 26.68 109.21 L26.68 87 C26.68 89.32 20.71 91.18 13.34 91.18 Z" class="st1"/>
				</g>
				<g id="shape8073-25" transform="translate(15.0069,-22.1863)">
					<title>Sheet.8073</title>
					<path d="M26.68 109.18 C26.68 111.5 20.71 113.37 13.34 113.37 C5.97 113.37 0 111.5 0 109.18 C0 106.86 5.97 105.03
								 13.34 105.03 C20.71 105.03 26.68 106.89 26.68 109.18 Z" class="st2"/>
				</g>
				<g id="shape8074-27" transform="translate(18.1084,-24.0515)">
					<title>Sheet.8074</title>
					<path d="M20.48 110.72 C20.48 112.19 15.87 113.37 10.24 113.37 C4.6 113.37 0 112.19 0 110.72 C0 109.25 4.6 108.2
								 10.24 108.2 C15.87 108.2 20.48 109.38 20.48 110.85 L20.48 110.72 Z" class="st5"/>
					<path d="M20.48 110.72 C20.48 112.19 15.87 113.37 10.24 113.37 C4.6 113.37 0 112.19 0 110.72 C0 109.25 4.6 108.2
								 10.24 108.2 C15.87 108.2 20.48 109.38 20.48 110.85" class="st6"/>
				</g>
				<g id="shape8075-30" transform="translate(20.2427,-24.0515)">
					<title>Sheet.8075</title>
					<path d="M8.1 111.47 A28.8467 28.3056 -180 0 0 0 112.45 A26.012 25.5241 -180 0 0 8.1 113.37 A26.012 25.5241 -180
								 0 0 16.21 112.32 A28.8467 28.3056 -180 0 0 8.1 111.47 Z" class="st4"/>
				</g>
			</g>
		</g>
	</g>
</svg>
