<?xml version="1.0" encoding="UTF-8" standalone="no"?>
<!DOCTYPE svg PUBLIC "-//W3C//DTD SVG 1.1//EN" "http://www.w3.org/Graphics/SVG/1.1/DTD/svg11.dtd">
<!-- Generated by Microsoft Visio, SVG Export App Task.svg Page-1 -->
<svg xmlns="http://www.w3.org/2000/svg" xmlns:xlink="http://www.w3.org/1999/xlink" xmlns:ev="http://www.w3.org/2001/xml-events"
		width="1.66472in" height="1.6985in" viewBox="0 0 119.86 122.292" xml:space="preserve" color-interpolation-filters="sRGB"
		class="st5">
	<style type="text/css">
	<![CDATA[
		.st1 {fill:#50e6ff;stroke:none;stroke-linecap:butt;stroke-width:31.5833}
		.st2 {fill:#0078d4;stroke:none;stroke-linecap:butt;stroke-width:31.5833}
		.st3 {fill:#ffffff;stroke:none;stroke-linecap:butt;stroke-width:31.5833}
		.st4 {fill:url(#grad0-12);stroke:none;stroke-linecap:butt;stroke-width:31.5833}
		.st5 {fill:none;fill-rule:evenodd;font-size:12px;overflow:visible;stroke-linecap:square;stroke-miterlimit:3}
	]]>
	</style>

	<defs id="Patterns_And_Gradients">
		<linearGradient id="grad0-12" x1="0" y1="0" x2="1" y2="0" gradientTransform="rotate(-90 0.5 0.5)">
			<stop offset="0" stop-color="#76bc2d" stop-opacity="1"/>
			<stop offset="0.6" stop-color="#81ce31" stop-opacity="1"/>
			<stop offset="0.82" stop-color="#86d633" stop-opacity="1"/>
		</linearGradient>
	</defs>
	<g>
		<title>Page-1</title>
		<g id="group7935-1" transform="translate(31.5833,-34.0157)">
			<title>App Task</title>
			<g id="group7936-2">
				<title>MsPortalFx.base.images-46</title>
				<g id="shape7937-3" transform="translate(5.39025,-14.8661)">
					<title>path4</title>
					<path d="M43.98 105.25 L26.35 105.25 a0.946281 0.922835 0 0 1 -0.946281 -0.922835 L25.41 97.76 L20.67 97.76 L20.67
								 104.32 a0.949511 0.925984 0 0 1 -0.946281 0.922835 L1.9 105.25 A1.89579 1.84882 -180 0 0 -0 107.1
								 L0 115.6 L4.73 115.6 L4.73 110.87 a0.949511 0.925984 0 0 1 0.949511 -0.922835 L20.67 109.95 L20.67
								 122.29 L25.41 122.29 L25.41 109.97 L40.19 109.97 a0.946281 0.922835 0 0 1 0.946281 0.922835 L41.14
								 115.71 L45.89 115.71 L45.89 107.1 A1.89579 1.84882 -180 0 0 43.98 105.25 Z" class="st1"/>
				</g>
				<g id="shape7938-5" transform="translate(18.7512,-38.1701)">
					<title>rect6</title>
					<path d="M0 120.62 A1.7182 1.67563 -180 0 0 1.72 122.29 L17.28 122.29 A1.7182 1.67563 -180 0 0 18.99 120.62 L18.99
								 105.44 A1.7182 1.67563 -180 0 0 17.28 103.77 L1.72 103.77 A1.7182 1.67563 -180 0 0 -0 105.44 L0
								 120.62 Z" class="st2"/>
				</g>
				<g id="shape7939-7" transform="translate(22.3975,-41.726)">
					<title>rect8</title>
					<path d="M-0 121.26 A1.05934 1.03309 -180 0 0 1.06 122.29 L10.64 122.29 A1.05934 1.03309 -180 0 0 11.7 121.26
								 L11.7 111.92 A1.05934 1.03309 -180 0 0 10.64 110.88 L1.06 110.88 A1.05934 1.03309 -180 0 0 -0 111.92
								 L0 121.26 Z" class="st3"/>
				</g>
				<g id="shape7940-9" transform="translate(0,-6.39685)">
					<title>rect10</title>
					<path d="M0 120.92 A1.40492 1.37011 -180 0 0 1.4 122.29 L14.1 122.29 A1.40492 1.37011 -180 0 0 15.51 120.92 L15.51
								 108.54 A1.40492 1.37011 -180 0 0 14.1 107.17 L1.4 107.17 A1.40492 1.37011 -180 0 0 0 108.54 L0 120.92
								 Z" class="st4"/>
				</g>
				<g id="shape7941-13" transform="translate(20.6729,1.42109E-14)">
					<title>rect12</title>
					<path d="M0 120.92 A1.40492 1.37011 -180 0 0 1.4 122.29 L14.1 122.29 A1.40492 1.37011 -180 0 0 15.51 120.92 L15.51
								 108.54 A1.40492 1.37011 -180 0 0 14.1 107.17 L1.4 107.17 A1.40492 1.37011 -180 0 0 0 108.54 L0 120.92
								 Z" class="st4"/>
				</g>
				<g id="shape7942-16" transform="translate(41.1842,-6.29606)">
					<title>rect14</title>
					<path d="M0 120.92 A1.40492 1.37011 -180 0 0 1.4 122.29 L14.1 122.29 A1.40492 1.37011 -180 0 0 15.51 120.92 L15.51
								 108.54 A1.40492 1.37011 -180 0 0 14.1 107.17 L1.4 107.17 A1.40492 1.37011 -180 0 0 0 108.54 L0 120.92
								 Z" class="st4"/>
				</g>
			</g>
		</g>
	</g>
</svg>
