<?xml version="1.0" encoding="UTF-8" standalone="no"?>
<!DOCTYPE svg PUBLIC "-//W3C//DTD SVG 1.1//EN" "http://www.w3.org/Graphics/SVG/1.1/DTD/svg11.dtd">
<!-- Generated by Microsoft Visio, SVG Export Azure Stack Plan.svg Page-1 -->
<svg xmlns="http://www.w3.org/2000/svg" xmlns:xlink="http://www.w3.org/1999/xlink" xmlns:ev="http://www.w3.org/2001/xml-events"
		width="1.82135in" height="1.97884in" viewBox="0 0 131.137 142.477" xml:space="preserve" color-interpolation-filters="sRGB"
		class="st6">
	<style type="text/css">
	<![CDATA[
		.st1 {fill:#ffffff;stroke:none;stroke-linecap:butt;stroke-width:42.8916}
		.st2 {fill:url(#grad0-9)}
		.st3 {stroke:none;stroke-linecap:butt;stroke-width:42.8916}
		.st4 {fill:#0078d4;stroke:none;stroke-linecap:butt;stroke-width:42.8916}
		.st5 {fill:#83b9f9;stroke:none;stroke-linecap:butt;stroke-width:42.8916}
		.st6 {fill:none;fill-rule:evenodd;font-size:12px;overflow:visible;stroke-linecap:square;stroke-miterlimit:3}
	]]>
	</style>

	<defs id="Patterns_And_Gradients">
		<linearGradient id="grad0-9" x1="0" y1="0" x2="1" y2="0" gradientTransform="rotate(-90 0.5 0.5)">
			<stop offset="0" stop-color="#0078d4" stop-opacity="1"/>
			<stop offset="0.82" stop-color="#5ea0ef" stop-opacity="1"/>
		</linearGradient>
	</defs>
	<g>
		<title>Page-1</title>
		<g id="group6041-1" transform="translate(42.8916,-42.8919)">
			<title>Azure Stack Plan</title>
			<g id="group6042-2">
				<title>g23</title>
				<g id="group6043-3">
					<title>g17</title>
					<g id="shape6044-4" transform="translate(0.330571,-0.405432)">
						<title>path11</title>
						<path d="M25.65 86.59 L1.88 86.59 A1.88425 1.9258 -180 0 0 -0 88.52 L0 140.55 A1.88425 1.9258 -180 0 0 1.88
									 142.48 L42.81 142.48 A1.88425 1.9258 -180 0 0 44.69 140.55 L44.69 106.12 A1.88425 1.9258 -180
									 0 0 42.81 104.2 L29.22 104.2 A1.8512 1.89202 0 0 1 27.37 102.31 L27.37 88.52 A1.8512 1.89202
									 -180 0 0 25.65 86.59 Z" class="st1"/>
					</g>
					<g id="shape6045-6">
						<title>path13</title>
						<path d="M24.96 88.62 L24.96 101.7 A4.69411 4.79761 -180 0 0 29.65 106.49 L42.51 106.49 L42.51 139.64 L2.84
									 139.64 L2.84 88.62 L24.99 88.62 L24.96 88.62 ZM25.98 85.78 L1.92 85.78 A1.88425 1.9258 -180
									 0 0 0 87.71 L0 140.55 A1.88425 1.9258 -180 0 0 1.92 142.48 L43.44 142.48 A1.88425 1.9258 -180
									 0 0 45.35 140.55 L45.35 105.58 A1.88425 1.9258 -180 0 0 43.44 103.66 L29.65 103.66 A1.88425
									 1.9258 0 0 1 27.77 101.7 L27.77 87.71 A1.88425 1.9258 -180 0 0 25.98 85.78 Z" class="st2"/>
						<path d="M24.96 88.62 L24.96 101.7 A4.69411 4.79761 -180 0 0 29.65 106.49 L42.51 106.49 L42.51 139.64 L2.84
									 139.64 L2.84 88.62 L24.99 88.62M25.98 85.78 L1.92 85.78 A1.88425 1.9258 -180 0 0 0 87.71 L0
									 140.55 A1.88425 1.9258 -180 0 0 1.92 142.48 L43.44 142.48 A1.88425 1.9258 -180 0 0 45.35 140.55
									 L45.35 105.58 A1.88425 1.9258 -180 0 0 43.44 103.66 L29.65 103.66 A1.88425 1.9258 0 0 1 27.77
									 101.7 L27.77 87.71 A1.88425 1.9258 -180 0 0 25.98 85.78" class="st3"/>
					</g>
					<g id="shape6046-11" transform="translate(27.1068,-38.4823)">
						<title>path15</title>
						<path d="M17.52 142.48 L0 124.67 L0 139.1 A3.30571 3.3786 -180 0 0 3.31 142.48 L17.52 142.48 Z" class="st4"/>
					</g>
				</g>
				<g id="shape6047-13" transform="translate(14.4994,-10.7777)">
					<title>path19</title>
					<path d="M22.26 123.18 L1.57 123.18 A1.35534 1.38523 -180 0 0 1.57 125.96 L22.39 125.96 A1.35534 1.38523 -180
								 0 0 22.39 123.18 L22.26 123.18 ZM22.26 131.43 L1.57 131.43 A1.35534 1.38523 -180 1 0 1.57 134.17
								 L22.39 134.17 A1.35534 1.38523 -180 1 0 22.39 131.43 L22.26 131.43 ZM22.26 139.71 L1.57 139.71 A1.35534
								 1.38523 -180 0 0 1.57 142.48 L22.39 142.48 A1.35534 1.38523 -180 0 0 22.39 139.71 L22.26 139.71
								 Z" class="st5"/>
				</g>
				<g id="shape6048-15" transform="translate(7.40479,-8.18395)">
					<title>path21</title>
					<path d="M1.36 124.75 L1.36 120.29 A2.04954 2.09473 0 0 1 0.73 120.52 L0 120.73 L0 119.34 A7.57007 7.73699 -180
								 0 0 1.02 118.94 A4.23131 4.32461 -180 0 0 2.05 118.46 L3.11 118.46 L3.11 124.75 L1.36 124.75 ZM0.07
								 133.53 L0.07 133.02 A3.30571 3.3786 0 0 1 0.07 132.15 A7.4709 7.63564 0 0 1 0.43 131.4 A6.14862
								 6.2842 0 0 1 1.36 130.52 A2.87597 2.93938 -180 0 0 2.05 129.95 C2.05 129.95 2.05 129.71 2.28 129.65
								 a0.462799 0.473004 -180 0 0 -1.37668E-14 -0.371646 C2.28 128.83 2.05 128.63 1.55 128.63 A2.21483
								 2.26366 -180 0 0 0.13 129.21 L0.13 127.69 A3.57017 3.64889 0 0 1 1.06 127.31 A4.16519 4.25704 0
								 0 1 1.98 127.31 A2.314 2.36502 0 0 1 3.5 127.82 A1.68591 1.72309 0 0 1 4.07 129.14 A2.47928 2.53395
								 0 0 1 3.77 130.29 A3.80157 3.88539 0 0 1 2.71 131.23 L2.05 131.64 a0.595028 0.608148 -180 0 0 -0.198343
								 0.33786 L4.26 131.98 L4.26 133.4 L0.07 133.53 ZM4.17 140.56 A1.48757 1.52037 0 0 1 3.54 141.94 A3.04125
								 3.10831 0 0 1 1.79 142.45 A3.63628 3.71646 0 0 1 0.93 142.45 L0.17 142.21 L0.17 140.76 A1.6198 1.65551
								 -180 0 0 0.79 141 A2.38011 2.43259 -180 0 0 1.52 141 A1.98343 2.02716 -180 0 0 2.21 141 a0.628085
								 0.641934 -180 0 0 0.2314 -0.439218 a0.495856 0.50679 -180 0 0 -0.396685 -0.50679 A3.30571 3.3786
								 -180 0 0 1.26 139.88 L0.79 139.88 L0.79 138.57 L1.29 138.57 a0.991713 1.01358 -180 0 0 0.760313
								 -0.202716 a0.396685 0.405432 -180 0 0 0.2314 -0.439218 C2.28 137.92 2.28 137.62 2.28 137.55 C2.28
								 137.48 1.98 137.55 1.72 137.55 A2.57845 2.63531 -180 0 0 0.56 137.89 L0.56 136.5 A4.06602 4.15568
								 0 0 1 2.08 136.17 A2.67762 2.73667 0 0 1 3.7 136.61 A1.25617 1.28387 0 0 1 4.23 137.75 A1.48757
								 1.52037 0 0 1 3.93 138.7 A1.48757 1.52037 0 0 1 3.07 139.21 A1.3884 1.41901 0 0 1 4.07 139.71 A1.91731
								 1.95959 0 0 1 4.17 140.56 Z" class="st4"/>
				</g>
			</g>
		</g>
	</g>
</svg>
