<?xml version="1.0" encoding="UTF-8" standalone="no"?>
<!DOCTYPE svg PUBLIC "-//W3C//DTD SVG 1.1//EN" "http://www.w3.org/Graphics/SVG/1.1/DTD/svg11.dtd">
<!-- Generated by Microsoft Visio, SVG Export Enterprise Certification Authority Root.svg Page-1 -->
<svg xmlns="http://www.w3.org/2000/svg" xmlns:xlink="http://www.w3.org/1999/xlink" xmlns:ev="http://www.w3.org/2001/xml-events"
		width="1.64096in" height="1.74977in" viewBox="0 0 118.149 125.984" xml:space="preserve" color-interpolation-filters="sRGB"
		class="st12">
	<style type="text/css">
	<![CDATA[
		.st1 {fill:url(#grad0-11);stroke:none;stroke-linecap:butt;stroke-width:35.9596}
		.st2 {fill:#003067;stroke:none;stroke-linecap:butt;stroke-width:35.9596}
		.st3 {fill:#50e6ff;stroke:none;stroke-linecap:butt;stroke-width:35.9596}
		.st4 {fill:#773adc;stroke:none;stroke-linecap:butt;stroke-width:33.9999}
		.st5 {fill:#f9f9f9;fill-opacity:0.5;stroke:none;stroke-linecap:butt;stroke-width:33.9999}
		.st6 {fill:url(#grad0-38);stroke:none;stroke-linecap:butt;stroke-width:33.9997}
		.st7 {fill:#ffffff;stroke:none;stroke-linecap:butt;stroke-width:33.9997}
		.st8 {fill:#d15900;stroke:none;stroke-linecap:butt;stroke-width:33.9997}
		.st9 {fill:#b31b1b;stroke:none;stroke-linecap:butt;stroke-width:33.9997}
		.st10 {fill:#e62323;stroke:none;stroke-linecap:butt;stroke-width:33.9997}
		.st11 {fill:#ffb34d;stroke:none;stroke-linecap:butt;stroke-width:33.9997}
		.st12 {fill:none;fill-rule:evenodd;font-size:12px;overflow:visible;stroke-linecap:square;stroke-miterlimit:3}
	]]>
	</style>

	<defs id="Patterns_And_Gradients">
		<linearGradient id="grad0-11" x1="0" y1="0" x2="1" y2="0" gradientTransform="rotate(-90 0.5 0.5)">
			<stop offset="0" stop-color="#949494" stop-opacity="1"/>
			<stop offset="0.53" stop-color="#a2a2a2" stop-opacity="1"/>
			<stop offset="1" stop-color="#b3b3b3" stop-opacity="1"/>
		</linearGradient>
		<linearGradient id="grad0-38" x1="0" y1="0" x2="1" y2="0" gradientTransform="rotate(-90 0.5 0.5)">
			<stop offset="0" stop-color="#e27908" stop-opacity="1"/>
			<stop offset="0.325" stop-color="#e47d0a" stop-opacity="1"/>
			<stop offset="0.62" stop-color="#eb8810" stop-opacity="1"/>
			<stop offset="0.91" stop-color="#f69a19" stop-opacity="1"/>
			<stop offset="1" stop-color="#faa21d" stop-opacity="1"/>
		</linearGradient>
	</defs>
	<g>
		<title>Page-1</title>
		<g id="group4177-1" transform="translate(35.9599,-35.1059)">
			<title>Enterprise Certification Authority Root</title>
			<g id="group4178-2">
				<title>Page-1</title>
				<g id="group4179-3">
					<title>Sheet.4179</title>
					<g id="group4180-4" transform="translate(0,-0.85375)">
						<title>Sheet.4180</title>
						<g id="group4181-5">
							<title>Icon-databases-136.149</title>
							<g id="group4182-6">
								<title>path4-5</title>
								<g id="group4183-7">
									<title>Sheet.4183</title>
									<g id="shape4184-8">
										<title>Sheet.4184</title>
										<path d="M31.81 124.14 A1.87883 1.87567 180 0 1 29.97 125.98 L1.84 125.98 A1.84644 1.84332
													 180 0 1 -0 124.14 L0 73.76 A1.81404 1.81098 180 0 1 1.84 71.92 L29.97 71.92
													 A1.84644 1.84332 180 0 1 31.81 73.76 L31.81 124.14 Z" class="st1"/>
									</g>
								</g>
							</g>
							<g id="group4185-12" transform="translate(4.66468,-31.6599)">
								<title>path6-7</title>
								<g id="group4186-13">
									<title>Sheet.4186</title>
									<g id="shape4187-14">
										<title>Sheet.4187</title>
										<path d="M0 122.53 A3.46611 3.46028 180 0 1 3.44 119.1 L19.3 119.1 A3.46611 3.46028 180 0
													 1 22.87 122.53 A3.46611 3.46028 180 0 1 19.3 125.98 L3.44 125.98 A3.46611 3.46028
													 180 0 1 0 122.53 ZM0 112.31 A3.46611 3.46028 180 0 1 3.44 108.86 L19.3 108.86
													 A3.46611 3.46028 180 0 1 22.87 112.31 A3.46611 3.46028 180 0 1 19.3 115.74 L3.44
													 115.74 A3.46611 3.46028 180 0 1 0 112.31 Z" class="st2"/>
									</g>
								</g>
							</g>
							<g id="group4188-16" transform="translate(5.96042,-43.0065)">
								<title>circle8-5</title>
								<g id="group4189-17">
									<title>Sheet.4189</title>
									<g id="shape4190-18">
										<title>Sheet.4190</title>
										<ellipse cx="2.33233" cy="123.655" rx="2.33233" ry="2.32841" class="st3"/>
									</g>
								</g>
							</g>
							<g id="group4191-20" transform="translate(5.96042,-32.7874)">
								<title>circle10-2</title>
								<g id="group4192-21">
									<title>Sheet.4192</title>
									<g id="shape4193-22">
										<title>Sheet.4193</title>
										<ellipse cx="2.33233" cy="123.655" rx="2.33233" ry="2.32841" class="st3"/>
									</g>
								</g>
							</g>
						</g>
					</g>
					<g id="group4194-24" transform="translate(15.3788,1.42109E-14)">
						<title>Sheet.4194</title>
						<g id="group4195-25" transform="translate(0.0190229,1.42109E-14)">
							<title>Sheet.4195</title>
							<g id="shape4196-26">
								<title>Sheet.4196</title>
								<path d="M16.4 96.87 L0 119.42 L16.4 125.98 L32.79 119.42 L16.4 96.87 Z" class="st4"/>
							</g>
						</g>
						<g id="group4197-28">
							<title>Sheet.4197</title>
							<g id="shape4198-29">
								<title>Sheet.4198</title>
								<path d="M16.4 96.87 L0 119.42 L16.4 125.98 L16.4 96.87 Z" class="st5"/>
							</g>
						</g>
					</g>
					<g id="group4199-31" transform="translate(23.2528,-34.7383)">
						<title>Management Certificate.741</title>
						<g id="group4200-32">
							<title>g14</title>
							<g id="group4201-33" transform="translate(0,-4.95314)">
								<title>rect2</title>
								<g id="group4202-34">
									<title>Sheet.4202</title>
									<g id="shape4203-35">
										<title>Sheet.4203</title>
										<path d="M0 125.19 a0.825239 0.800253 -0 0 0 0.8218 0.795008 L23.93 125.98 a0.825239 0.800253
													 -0 0 0 0.829339 -0.795008 L24.76 109.78 a0.825239 0.800253 -0 0 0 -0.829339
													 -0.795008 L0.83 108.99 a0.825239 0.800253 -0 0 0 -0.8218 0.795008 L0 125.19
													 Z" class="st6"/>
									</g>
								</g>
							</g>
							<g id="group4204-39" transform="translate(1.44413,-6.4507)">
								<title>rect4</title>
								<g id="group4205-40">
									<title>Sheet.4205</title>
									<g id="shape4206-41">
										<title>Sheet.4206</title>
										<path d="M-0 125.58 a0.412618 0.400128 -0 0 0 0.412608 0.400118 L21.45 125.98 a0.412618 0.400128
													 -0 0 0 0.412608 -0.400118 L21.88 112.37 a0.412618 0.400128 -0 0 0 -0.412608
													 -0.400118 L0.41 111.98 a0.412618 0.400128 -0 0 0 -0.412608 0.400118 L0 125.58
													 Z" class="st7"/>
									</g>
								</g>
							</g>
							<g id="group4207-43" transform="translate(4.76151,-10.1271)">
								<title>path6</title>
								<g id="group4208-44">
									<title>Sheet.4208</title>
									<g id="shape4209-45">
										<title>Sheet.4209</title>
										<path d="M15.79 125.6 a0.398854 0.386781 0 0 1 -0.398854 0.386781 L6.47 125.98 a0.398854
													 0.386781 0 1 1 -1.06581E-14 -0.772228 L15.4 125.22 a0.397479 0.385448 0 0 1
													 0.398854 0.385448 L15.79 125.6 ZM15.79 123.21 a0.397479 0.385448 0 0 1 -0.398854
													 0.385448 L6.47 123.58 a0.398854 0.386781 0 1 1 -1.06581E-14 -0.772228 L15.4
													 122.81 a0.398854 0.386781 0 0 1 0.398854 0.386781 L15.79 123.21 ZM15.79 119.71
													 a0.398854 0.386781 0 0 1 -0.398854 0.386781 L0.42 120.1 a0.398854 0.386781 0
													 1 1 -1.07137E-14 -0.772228 L15.4 119.33 a0.397479 0.385448 0 0 1 0.398854 0.385448
													 L15.79 119.71 Z" class="st8"/>
									</g>
								</g>
							</g>
							<g id="group4210-47" transform="translate(2.12769,1.42109E-14)">
								<title>path8</title>
								<g id="group4211-48">
									<title>Sheet.4211</title>
									<g id="shape4212-49">
										<title>Sheet.4212</title>
										<path d="M4.93 119.94 A3.47279 3.36766 0 0 1 0.29 119.94 L0 125.54 a0.457996 0.444131 -0
													 0 0 0.783952 0.333432 L2.57 124.11 L4.38 125.88 a0.457996 0.444131 -0 0 0 0.789456
													 -0.324096 L4.93 119.94 Z" class="st9"/>
									</g>
								</g>
							</g>
							<g id="group4213-51" transform="translate(0.640918,-4.87069)">
								<title>ellipse10</title>
								<g id="group4214-52">
									<title>Sheet.4214</title>
									<g id="shape4215-53">
										<title>Sheet.4215</title>
										<ellipse cx="4.14397" cy="121.952" rx="4.14397" ry="4.03186" class="st10"/>
									</g>
								</g>
							</g>
							<g id="group4216-55" transform="translate(1.6408,-5.84376)">
								<title>ellipse12</title>
								<g id="group4217-56">
									<title>Sheet.4217</title>
									<g id="shape4218-57">
										<title>Sheet.4218</title>
										<ellipse cx="3.14407" cy="122.926" rx="3.14407" ry="3.05824" class="st11"/>
									</g>
								</g>
							</g>
						</g>
					</g>
				</g>
			</g>
		</g>
	</g>
</svg>
