<?xml version="1.0" encoding="UTF-8" standalone="no"?>
<!DOCTYPE svg PUBLIC "-//W3C//DTD SVG 1.1//EN" "http://www.w3.org/Graphics/SVG/1.1/DTD/svg11.dtd">
<!-- Generated by Microsoft Visio, SVG Export Regulatory Compliance.svg Page-1 -->
<svg xmlns="http://www.w3.org/2000/svg" xmlns:xlink="http://www.w3.org/1999/xlink" xmlns:ev="http://www.w3.org/2001/xml-events"
		width="1.46629in" height="1.67803in" viewBox="0 0 105.573 120.818" xml:space="preserve" color-interpolation-filters="sRGB"
		class="st4">
	<style type="text/css">
	<![CDATA[
		.st1 {fill:#7138e3;stroke:none;stroke-linecap:butt;stroke-width:30.1093}
		.st2 {fill:url(#grad0-7);stroke:none;stroke-linecap:butt;stroke-width:30.1093}
		.st3 {fill:#ffffff}
		.st4 {fill:none;fill-rule:evenodd;font-size:12px;overflow:visible;stroke-linecap:square;stroke-miterlimit:3}
	]]>
	</style>

	<defs id="Patterns_And_Gradients">
		<linearGradient id="grad0-7" x1="0" y1="0" x2="1" y2="0" gradientTransform="rotate(90.31367395372 0.5 0.5)">
			<stop offset="0" stop-color="#ad8af2" stop-opacity="1"/>
			<stop offset="0.16" stop-color="#9569ed" stop-opacity="1"/>
			<stop offset="0.385" stop-color="#814cea" stop-opacity="1"/>
			<stop offset="0.66" stop-color="#6b2be8" stop-opacity="1"/>
			<stop offset="1" stop-color="#7138e3" stop-opacity="1"/>
		</linearGradient>
	</defs>
	<g>
		<title>Page-1</title>
		<g id="group1529-1" transform="translate(30.1093,-34.0157)">
			<title>Regulatory Compliance</title>
			<g id="shape1530-2">
				<title>path4</title>
				<path d="M45.35 90.59 C45.35 105.83 27.34 118.1 23.42 120.6 A1.4268 1.46886 0 0 1 21.93 120.6 C18.01 118.11 0 105.84
							 0 90.59 L0 72.25 C0 71.87 0.15 71.5 0.41 71.23 A1.40177 1.44309 0 0 1 1.39 70.79 C15.4 70.41 12.18 64.13
							 22.68 64.13 C33.18 64.13 29.95 70.41 43.97 70.79 A1.40177 1.44309 0 0 1 44.94 71.22 A1.43181 1.47401
							 0 0 1 45.35 72.25 L45.35 90.59 L45.35 90.59 Z" class="st1"/>
			</g>
			<g id="shape1531-4" transform="translate(3.02851,-3.65402)">
				<title>path6-0-7</title>
				<path d="M38.87 94.15 C38.87 107.6 23.43 118.42 20.08 120.63 A1.19401 1.2292 0 0 1 18.8 120.63 C15.44 118.43 0 107.61
							 0 94.15 L0 77.97 C0 77.63 0.12 77.3 0.35 77.06 A1.18399 1.2189 0 0 1 1.19 76.68 C13.2 76.35 10.44 70.8
							 19.44 70.8 C28.44 70.8 25.67 76.35 37.68 76.68 A1.18399 1.2189 0 0 1 38.52 77.06 C38.74 77.3 38.87 77.62
							 38.87 77.96 L38.87 94.15 Z" class="st2"/>
			</g>
			<g id="shape1532-8" transform="translate(9.09527,-18.2257)">
				<title>path8-3</title>
				<path d="M28.46 112.8 L28.4 112.86 C27.82 113.7 26.67 113.93 25.86 113.34 L14.34 105.07 L16.48 101.92 L28.05 110.19
							 C28.86 110.78 29.03 111.97 28.46 112.8 L28.46 112.8 ZM17.57 99.48 L12.56 106.92 L5.87 102.16 L10.89
							 94.67 L17.57 99.48 ZM11.58 109.83 L12.84 107.99 L4.78 102.22 L3.51 104.06 A1.53417 1.5794 -180 0 0 3.86
							 106.2 L9.5 110.24 A1.597 1.64408 -180 0 0 11.58 109.83 ZM19.81 97.52 L18.55 99.42 L10.48 93.66 L11.75
							 91.81 C12.21 91.1 13.13 90.98 13.82 91.46 L19.47 95.5 A1.39542 1.43655 0 0 1 19.81 97.52 ZM14.28 117.25
							 L2.42 117.25 A2.43478 2.50655 -180 0 0 0 119.75 L0 120.82 L16.7 120.82 L16.7 119.75 A2.43478 2.50655
							 -180 0 0 14.28 117.25 Z" class="st3"/>
			</g>
		</g>
	</g>
</svg>
