<?xml version="1.0" encoding="UTF-8" standalone="no"?>
<!DOCTYPE svg PUBLIC "-//W3C//DTD SVG 1.1//EN" "http://www.w3.org/Graphics/SVG/1.1/DTD/svg11.dtd">
<!-- Generated by Microsoft Visio, SVG Export Slack.svg Page-1 -->
<svg xmlns="http://www.w3.org/2000/svg" xmlns:xlink="http://www.w3.org/1999/xlink" xmlns:ev="http://www.w3.org/2001/xml-events"
		width="0.975097in" height="1.35316in" viewBox="0 0 70.207 97.4278" xml:space="preserve" color-interpolation-filters="sRGB"
		class="st9">
	<style type="text/css">
	<![CDATA[
		.st1 {fill:#dfa22f;stroke:none;stroke-linecap:butt;stroke-width:7.32422}
		.st2 {fill:#3cb187;stroke:none;stroke-linecap:butt;stroke-width:7.32422}
		.st3 {fill:#ce1e5b;stroke:none;stroke-width:0.999999}
		.st4 {fill:none;stroke:none;stroke-linecap:butt;stroke-width:7.32422}
		.st5 {fill:#392538;stroke:none;stroke-width:0.999999}
		.st6 {fill:#bb242a;stroke:none;stroke-linecap:butt;stroke-width:7.32422}
		.st7 {fill:#72c5cd;stroke:none;stroke-width:0.999999}
		.st8 {fill:#248c73;stroke:none;stroke-linecap:butt;stroke-width:7.32422}
		.st9 {fill:none;fill-rule:evenodd;font-size:12px;overflow:visible;stroke-linecap:square;stroke-miterlimit:3}
	]]>
	</style>

	<g>
		<title>Page-1</title>
		<g id="group985-1" transform="translate(6.7935,-34.0157)">
			<title>Slack</title>
			<g id="group986-2">
				<title>Page-1</title>
				<g id="group987-3">
					<title>Slack</title>
					<g id="group988-4" transform="translate(26.3022,-6.44333)">
						<title>Sheet.988</title>
						<g id="shape989-5">
							<title>Sheet.989</title>
							<path d="M10.25 51.21 C9.42 48.61 6.61 47.18 4.02 48.03 C1.42 48.88 0 51.67 0.85 54.26 L13.64 93.63 C14.52
										 96.07 17.15 97.43 19.67 96.7 C22.28 95.95 23.89 93.16 23.05 90.58 L10.25 51.21 Z"
									class="st1"/>
						</g>
					</g>
					<g id="group990-7" transform="translate(6.47264,2.70006E-13)">
						<title>Sheet.990</title>
						<g id="shape991-8">
							<title>Sheet.991</title>
							<path d="M10.25 51.21 C9.42 48.61 6.63 47.18 4.02 48.03 C1.42 48.88 0 51.67 0.85 54.26 L13.64 93.63 C14.52
										 96.07 17.15 97.43 19.67 96.7 C22.28 95.95 23.89 93.16 23.05 90.58 L10.25 51.21 Z"
									class="st2"/>
						</g>
					</g>
					<g id="group992-10" transform="translate(6.44333,-6.42769)">
						<title>Sheet.992</title>
						<g id="shape993-11">
							<title>Sheet.993</title>
							<path d="M46.22 83.81 C48.83 82.96 50.25 80.17 49.4 77.57 C48.56 74.97 45.76 73.54 43.16 74.39 L3.8 87.18
										 C1.37 88.06 0 90.69 0.72 93.21 C1.48 95.84 4.27 97.43 6.85 96.59 L46.22 83.81 Z"
									class="st3"/>
						</g>
						<g id="shape994-13">
							<title>Sheet.994</title>
							<path d="M46.22 83.81 C48.83 82.96 50.25 80.17 49.4 77.57 C48.56 74.97 45.76 73.54 43.16 74.39 L3.8 87.18
										 C1.37 88.06 0 90.69 0.72 93.21 C1.48 95.84 4.27 97.43 6.85 96.59 L46.22 83.81 Z"
									class="st4"/>
						</g>
					</g>
					<g id="group995-15" transform="translate(15.3841,-8.9386)">
						<title>Sheet.995</title>
						<g id="shape996-16">
							<title>Sheet.996</title>
							<path d="M3.05 97.43 L12.47 94.37 L9.42 84.96 L0 88.03 L3.05 97.43 Z" class="st5"/>
						</g>
						<g id="shape997-18">
							<title>Sheet.997</title>
							<path d="M3.05 97.43 L12.47 94.37 L9.42 84.96 L0 88.03 L3.05 97.43 Z" class="st4"/>
						</g>
					</g>
					<g id="group998-20" transform="translate(35.213,-15.3819)">
						<title>Sheet.998</title>
						<g id="shape999-21">
							<title>Sheet.999</title>
							<path d="M3.05 97.43 C6.61 96.28 9.92 95.21 12.47 94.37 L9.42 84.96 L0 88.03 L3.05 97.43 Z" class="st6"/>
						</g>
					</g>
					<g id="group1000-23" transform="translate(2.8777E-13,-26.2572)">
						<title>Sheet.1000</title>
						<g id="shape1001-24">
							<title>Sheet.1001</title>
							<path d="M46.22 83.81 C48.83 82.96 50.25 80.17 49.4 77.57 C48.56 74.97 45.76 73.54 43.16 74.39 L3.8 87.19
										 C1.37 88.06 0 90.69 0.72 93.21 C1.48 95.84 4.27 97.43 6.85 96.59 L46.22 83.81 Z"
									class="st7"/>
						</g>
						<g id="shape1002-26">
							<title>Sheet.1002</title>
							<path d="M46.22 83.81 C48.83 82.96 50.25 80.17 49.4 77.57 C48.56 74.97 45.76 73.54 43.16 74.39 L3.8 87.19
										 C1.37 88.06 0 90.69 0.72 93.21 C1.48 95.84 4.27 97.43 6.85 96.59 L46.22 83.81 Z"
									class="st4"/>
						</g>
					</g>
					<g id="group1003-28" transform="translate(8.93924,-28.7675)">
						<title>Sheet.1003</title>
						<g id="shape1004-29">
							<title>Sheet.1004</title>
							<path d="M3.05 97.43 C5.62 96.59 8.93 95.52 12.47 94.37 C11.32 90.81 10.24 87.51 9.42 84.96 L0 88.03
										 L3.05 97.43 Z" class="st8"/>
						</g>
					</g>
				</g>
			</g>
		</g>
	</g>
</svg>
