<?xml version="1.0" encoding="UTF-8" standalone="no"?>
<!DOCTYPE svg PUBLIC "-//W3C//DTD SVG 1.1//EN" "http://www.w3.org/Graphics/SVG/1.1/DTD/svg11.dtd">
<!-- Generated by Microsoft Visio, SVG Export SQL Managed Instance.svg Page-1 -->
<svg xmlns="http://www.w3.org/2000/svg" xmlns:xlink="http://www.w3.org/1999/xlink" xmlns:ev="http://www.w3.org/2001/xml-events"
		width="1.73185in" height="1.73207in" viewBox="0 0 124.693 124.709" xml:space="preserve" color-interpolation-filters="sRGB"
		class="st6">
	<style type="text/css">
	<![CDATA[
		.st1 {fill:url(#grad0-6);stroke:none;stroke-linecap:butt;stroke-width:34}
		.st2 {fill:#003067;stroke:none;stroke-linecap:butt;stroke-width:34}
		.st3 {fill:#50e6ff;stroke:none;stroke-linecap:butt;stroke-width:34}
		.st4 {fill:url(#grad0-16);stroke:none;stroke-linecap:butt;stroke-width:34}
		.st5 {fill:#f2f2f2;stroke:none;stroke-linecap:butt;stroke-width:34}
		.st6 {fill:none;fill-rule:evenodd;font-size:12px;overflow:visible;stroke-linecap:square;stroke-miterlimit:3}
	]]>
	</style>

	<defs id="Patterns_And_Gradients">
		<linearGradient id="grad0-6" x1="0" y1="0" x2="1" y2="0" gradientTransform="rotate(-90 0.5 0.5)">
			<stop offset="0" stop-color="#949494" stop-opacity="1"/>
			<stop offset="0.53" stop-color="#a2a2a2" stop-opacity="1"/>
			<stop offset="1" stop-color="#b3b3b3" stop-opacity="1"/>
		</linearGradient>
		<linearGradient id="grad0-16" x1="0" y1="0" x2="1" y2="0" gradientTransform="rotate(-90 0.5 0.5)">
			<stop offset="0" stop-color="#0078d4" stop-opacity="1"/>
			<stop offset="0.16" stop-color="#1380da" stop-opacity="1"/>
			<stop offset="0.53" stop-color="#3c91e5" stop-opacity="1"/>
			<stop offset="0.82" stop-color="#559cec" stop-opacity="1"/>
			<stop offset="1" stop-color="#5ea0ef" stop-opacity="1"/>
		</linearGradient>
	</defs>
	<g>
		<title>Page-1</title>
		<g id="group885-1" transform="translate(34.0003,-34.0157)">
			<title>SQL Managed Instance</title>
			<g id="group886-2">
				<title>Icon-databases-136</title>
				<g id="shape887-3" transform="translate(-2.81775E-13,-0.202716)">
					<title>Sheet.887</title>
					<path d="M32.75 122.78 A1.93423 1.95959 0 0 1 30.85 124.71 L1.9 124.71 A1.90088 1.9258 0 0 1 0 122.78 L0 70.14
								 A1.86753 1.89202 0 0 1 1.9 68.22 L30.85 68.22 A1.90088 1.9258 0 0 1 32.75 70.14 L32.75 122.78 Z"
							class="st1"/>
				</g>
				<g id="shape888-7" transform="translate(4.80222,-33.2792)">
					<title>Sheet.888</title>
					<path d="M-0 121.09 A3.56832 3.6151 0 0 1 3.53 117.51 L19.88 117.51 A3.56832 3.6151 0 0 1 23.54 121.09 A3.56832
								 3.6151 0 0 1 19.88 124.71 L3.53 124.71 A3.56832 3.6151 0 0 1 0 121.09 ZM0 110.42 A3.56832 3.6151
								 0 0 1 3.53 106.8 L19.88 106.8 A3.56832 3.6151 0 0 1 23.54 110.42 A3.56832 3.6151 0 0 1 19.88 114
								 L3.53 114 A3.56832 3.6151 0 0 1 0 110.42 Z" class="st2"/>
				</g>
				<g id="shape889-9" transform="translate(6.13617,-45.1381)">
					<title>Sheet.889</title>
					<ellipse cx="2.40111" cy="122.276" rx="2.40111" ry="2.43259" class="st3"/>
				</g>
				<g id="shape890-11" transform="translate(6.13617,-34.4617)">
					<title>Sheet.890</title>
					<ellipse cx="2.40111" cy="122.276" rx="2.40111" ry="2.43259" class="st3"/>
				</g>
				<g id="shape891-13" transform="translate(6.93654,-2.84217E-13)">
					<title>Sheet.891</title>
					<path d="M49.76 113.53 A11.2052 11.3521 -180 0 0 40.05 102.65 A14.0732 14.2577 -180 0 0 25.55 89.13 A14.4067
								 14.5956 -180 0 0 11.74 98.52 A13.3395 13.5144 -180 0 0 -0 111.53 A13.5396 13.7171 -180 0 0 14.01
								 124.71 L38.65 124.71 A11.3052 11.4535 -180 0 0 49.76 113.53 Z" class="st4"/>
				</g>
				<g id="shape892-17" transform="translate(14.8402,-3.75025)">
					<title>Sheet.892</title>
					<path d="M28.88 118.53 L28.88 107.17 L25.78 107.17 L25.78 121.09 L33.95 121.09 L33.95 118.53 L28.88 118.53 ZM5.2
								 112.95 A7.43678 7.53428 0 0 1 3.5 111.9 A1.46735 1.48658 0 0 1 3.1 110.82 A1.13386 1.14872 0 0 1
								 3.6 109.81 A2.20102 2.22988 0 0 1 5 109.4 A5.5359 5.60848 0 0 1 8.34 110.38 L8.34 107.48 A9.6378
								 9.76415 -180 0 0 5 106.97 A5.63594 5.70983 -180 0 0 1.37 108.09 A3.66836 3.71646 -180 0 0 0 111.09
								 A4.46874 4.52732 -180 0 0 3.13 115.15 A8.37054 8.48029 0 0 1 5.17 116.36 A1.40065 1.41901 0 0 1
								 5.67 117.44 A1.13386 1.14872 0 0 1 5.17 118.46 A2.50116 2.53395 0 0 1 3.67 118.86 A5.43585 5.50712
								 0 0 1 0.07 117.44 L0.07 120.55 A7.50347 7.60185 -180 0 0 3.5 121.33 A6.36962 6.45313 -180 0 0 7.34
								 120.38 A3.56832 3.6151 -180 0 0 8.77 117.31 A3.33488 3.3786 -180 0 0 7.94 114.94 A7.87031 7.9735
								 -180 0 0 5.2 112.95 ZM22.41 118.29 A7.90366 8.00728 -180 0 0 23.51 114.03 A7.60352 7.70321 -180
								 0 0 22.68 110.25 A5.90273 5.98012 -180 0 0 20.38 107.75 A6.46966 6.55448 -180 0 0 16.84 106.87 A7.37008
								 7.46671 -180 0 0 13.51 107.85 A6.23622 6.31798 -180 0 0 11.07 110.45 A8.40389 8.51407 -180 0 0 10.17
								 114.3 A7.53682 7.63564 -180 0 0 10.97 117.85 A6.23622 6.31798 -180 0 0 13.24 120.35 A6.66975 6.7572
								 -180 0 0 16.57 121.33 L19.41 124.71 L23.41 124.71 L19.44 120.99 A6.06948 6.14905 -180 0 0 22.41
								 118.29 ZM19.31 117.44 A3.06809 3.10831 0 0 1 16.77 118.63 A3.03474 3.07453 0 0 1 14.27 117.41 A5.00232
								 5.0679 0 0 1 13.34 114.03 A4.86892 4.93276 0 0 1 14.31 110.65 A3.06809 3.10831 0 0 1 16.87 109.4
								 A2.86799 2.9056 0 0 1 19.34 110.65 A5.13571 5.20304 0 0 1 20.28 114.03 A4.90227 4.96654 0 0 1 19.31
								 117.44 Z" class="st5"/>
				</g>
			</g>
		</g>
	</g>
</svg>
