<?xml version="1.0" encoding="UTF-8" standalone="no"?>
<!DOCTYPE svg PUBLIC "-//W3C//DTD SVG 1.1//EN" "http://www.w3.org/Graphics/SVG/1.1/DTD/svg11.dtd">
<!-- Generated by Microsoft Visio, SVG Export Active Directory Rights Management Server.svg Page-1 -->
<svg xmlns="http://www.w3.org/2000/svg" xmlns:xlink="http://www.w3.org/1999/xlink" xmlns:ev="http://www.w3.org/2001/xml-events"
		width="1.60159in" height="1.73342in" viewBox="0 0 115.314 124.806" xml:space="preserve" color-interpolation-filters="sRGB"
		class="st8">
	<style type="text/css">
	<![CDATA[
		.st1 {fill:url(#grad0-11);stroke:none;stroke-linecap:butt;stroke-width:35.9597}
		.st2 {fill:#003067;stroke:none;stroke-linecap:butt;stroke-width:35.9597}
		.st3 {fill:#50e6ff;stroke:none;stroke-linecap:butt;stroke-width:35.9597}
		.st4 {fill:#ffffff;stroke:#ffffff;stroke-linecap:round;stroke-linejoin:round;stroke-width:0.75}
		.st5 {fill:url(#grad0-31);stroke:none;stroke-linecap:butt;stroke-width:34}
		.st6 {fill:#773adc;stroke:none;stroke-linecap:butt;stroke-width:34}
		.st7 {fill:#f9f9f9;fill-opacity:0.5;stroke:none;stroke-linecap:butt;stroke-width:34}
		.st8 {fill:none;fill-rule:evenodd;font-size:12px;overflow:visible;stroke-linecap:square;stroke-miterlimit:3}
	]]>
	</style>

	<defs id="Patterns_And_Gradients">
		<linearGradient id="grad0-11" x1="0" y1="0" x2="1" y2="0" gradientTransform="rotate(-90 0.5 0.5)">
			<stop offset="0" stop-color="#949494" stop-opacity="1"/>
			<stop offset="0.53" stop-color="#a2a2a2" stop-opacity="1"/>
			<stop offset="1" stop-color="#b3b3b3" stop-opacity="1"/>
		</linearGradient>
		<linearGradient id="grad0-31" x1="0" y1="0" x2="1" y2="0" gradientTransform="rotate(-90 0.5 0.5)">
			<stop offset="0" stop-color="#5e9624" stop-opacity="1"/>
			<stop offset="0.18" stop-color="#629c25" stop-opacity="1"/>
			<stop offset="0.44" stop-color="#6dae2a" stop-opacity="1"/>
			<stop offset="0.73" stop-color="#7fcb30" stop-opacity="1"/>
			<stop offset="0.82" stop-color="#86d633" stop-opacity="1"/>
		</linearGradient>
	</defs>
	<g>
		<title>Page-1</title>
		<g id="group15891-1" transform="translate(35.9599,-34.0157)">
			<title>Active Directory Rights Management Server.15891</title>
			<g id="group15892-2">
				<title>Page-1</title>
				<g id="group15893-3">
					<title>Sheet.15893</title>
					<g id="group15894-4" transform="translate(-2.29816E-13,-2.32733)">
						<title>Sheet.15894</title>
						<g id="group15895-5">
							<title>Icon-databases-136.149</title>
							<g id="group15896-6">
								<title>path4-5</title>
								<g id="group15897-7">
									<title>Sheet.15897</title>
									<g id="shape15898-8">
										<title>Sheet.15898</title>
										<path d="M29.96 123.02 A1.8212 1.76972 90 0 1 28.23 124.81 L1.74 124.81 A1.78979 1.73921
													 90 0 1 -0 123.02 L0 74.09 A1.75839 1.70869 90 0 1 1.74 72.3 L28.23 72.3 A1.78979
													 1.73921 90 0 1 29.96 74.09 L29.96 123.02 Z" class="st1"/>
									</g>
								</g>
							</g>
							<g id="group15899-12" transform="translate(4.39379,-30.7405)">
								<title>path6-7</title>
								<g id="group15900-13">
									<title>Sheet.15900</title>
									<g id="shape15901-14">
										<title>Sheet.15901</title>
										<path d="M-0 121.45 A3.3598 3.26483 90 0 1 3.24 118.11 L18.18 118.11 A3.3598 3.26483 90 0
													 1 21.54 121.45 A3.3598 3.26483 90 0 1 18.18 124.81 L3.24 124.81 A3.3598 3.26483
													 90 0 1 0 121.45 ZM-0 111.52 A3.3598 3.26483 90 0 1 3.24 108.17 L18.18 108.17
													 A3.3598 3.26483 90 0 1 21.54 111.52 A3.3598 3.26483 90 0 1 18.18 114.85 L3.24
													 114.85 A3.3598 3.26483 90 0 1 -0 111.52 Z" class="st2"/>
									</g>
								</g>
							</g>
							<g id="group15902-16" transform="translate(5.61428,-41.7622)">
								<title>circle8-5</title>
								<g id="group15903-17">
									<title>Sheet.15903</title>
									<g id="shape15904-18">
										<title>Sheet.15904</title>
										<ellipse cx="2.19689" cy="122.546" rx="2.19689" ry="2.2608" class="st3"/>
									</g>
								</g>
							</g>
							<g id="group15905-20" transform="translate(5.61428,-31.8399)">
								<title>circle10-2</title>
								<g id="group15906-21">
									<title>Sheet.15906</title>
									<g id="shape15907-22">
										<title>Sheet.15907</title>
										<ellipse cx="2.19689" cy="122.546" rx="2.19689" ry="2.2608" class="st3"/>
									</g>
								</g>
							</g>
						</g>
					</g>
					<g id="group15908-24" transform="translate(21.571,-2.10247)">
						<title>Sheet.15908</title>
						<g id="shape15909-25">
							<title>Sheet.15909</title>
							<rect x="0" y="111.157" width="16.9416" height="13.6492" class="st4"/>
						</g>
					</g>
					<g id="group15910-27" transform="translate(17.2651,0)">
						<title>Azure Rights Management</title>
						<g id="shape15911-28">
							<title>Sheet.15911</title>
							<path d="M24.37 106.58 L22.7 106.58 L22.7 104.5 C22.7 101.65 21.66 99.01 20 97.13 C18.26 95.18 15.21
										 94 12.57 94 C9.93 94 6.81 95.25 5.14 97.13 C3.4 99.01 2.36 101.65 2.36 104.5 L2.36 106.58
										 L0.7 106.58 C0 106.58 0.07 107.14 0.07 107.91 L0.07 123.48 C0.07 124.18 0.62 124.81 1.32
										 124.81 L23.74 124.81 C24.44 124.81 25 124.25 25 123.48 L25 107.91 C25 107.21 25.06 106.58
										 24.37 106.58 ZM15.06 118.06 C15.42 117.85 15.76 117.71 16.18 117.71 C17.22 117.71 18.06
										 118.55 18.06 119.59 C18.06 120.63 17.22 121.46 16.18 121.46 C15.14 121.46 14.3 120.63 14.3
										 119.59 C14.3 119.52 14.3 119.52 14.3 119.44 L9.44 116.94 C9.1 117.3 8.68 117.44 8.12 117.44
										 C7.08 117.44 6.25 116.6 6.25 115.56 C6.25 114.51 7.08 113.68 8.12 113.68 C8.61 113.68 9.1
										 113.89 9.38 114.17 L14.23 111.66 C14.23 111.66 14.23 111.59 14.23 111.59 C14.23 110.55 15.06
										 109.71 16.11 109.71 C17.15 109.71 17.98 110.55 17.98 111.59 C17.98 112.64 17.15 113.47 16.11
										 113.47 C15.7 113.47 15.27 113.33 14.93 113.06 L10.07 115.56 L15.06 118.06 ZM18.19 106.58
										 L6.81 106.58 L6.81 104.08 C6.81 102.42 7.36 101.37 8.34 100.32 C9.3 99.29 11.18 98.73 12.57
										 98.73 C13.96 98.73 15.76 99.29 16.74 100.32 C17.64 101.37 18.26 102.83 18.26 104.5 L18.26
										 106.58 L18.19 106.58 Z" class="st5"/>
						</g>
					</g>
					<g id="group15912-32" transform="translate(21.841,-35.173)">
						<title>Sheet.15912</title>
						<g id="group15913-33" transform="translate(0.0136334,0)">
							<title>Sheet.15913</title>
							<g id="shape15914-34">
								<title>Sheet.15914</title>
								<path d="M11.75 103.29 L0 119.95 L11.75 124.81 L23.5 119.95 L11.75 103.29 Z" class="st6"/>
							</g>
						</g>
						<g id="group15915-36">
							<title>Sheet.15915</title>
							<g id="shape15916-37">
								<title>Sheet.15916</title>
								<path d="M11.75 103.29 L0 119.95 L11.75 124.81 L11.75 103.29 Z" class="st7"/>
							</g>
						</g>
					</g>
				</g>
			</g>
		</g>
	</g>
</svg>
