<?xml version="1.0" encoding="UTF-8" standalone="no"?>
<!DOCTYPE svg PUBLIC "-//W3C//DTD SVG 1.1//EN" "http://www.w3.org/Graphics/SVG/1.1/DTD/svg11.dtd">
<!-- Generated by Microsoft Visio, SVG Export O365 - Yammer.svg Page-1 -->
<svg xmlns="http://www.w3.org/2000/svg" xmlns:xlink="http://www.w3.org/1999/xlink" xmlns:ev="http://www.w3.org/2001/xml-events"
		width="1.29064in" height="1.5902in" viewBox="0 0 92.926 114.494" xml:space="preserve" color-interpolation-filters="sRGB"
		class="st10">
	<style type="text/css">
	<![CDATA[
		.st1 {fill:#28a8ea;stroke:none;stroke-linecap:butt;stroke-width:18.1165}
		.st2 {fill:#0078d4;stroke:none;stroke-linecap:butt;stroke-width:18.1165}
		.st3 {fill:#0358a7;stroke:none;stroke-linecap:butt;stroke-width:18.1165}
		.st4 {fill:#000000;fill-opacity:0.098;stroke:none;stroke-linecap:butt;stroke-width:18.1165}
		.st5 {fill:#000000;fill-opacity:0.2;stroke:none;stroke-linecap:butt;stroke-width:18.1165}
		.st6 {fill:#ffffff;stroke:none;stroke-linecap:butt;stroke-width:18.1165}
		.st7 {fill:none;stroke:none;stroke-linecap:butt;stroke-width:18.1165}
		.st8 {visibility:visible}
		.st9 {fill:#000000;font-family:Calibri;font-size:0.666664em}
		.st10 {fill:none;fill-rule:evenodd;font-size:12px;overflow:visible;stroke-linecap:square;stroke-miterlimit:3}
	]]>
	</style>

	<g>
		<title>Page-1</title>
		<g id="group8690-1" transform="translate(18.1165,-39.685)">
			<title>O365 - Yammer.8690</title>
			<desc>O365 - Yammer</desc>
			<g id="group8691-2">
				<title>g22</title>
				<g id="shape8692-3" transform="translate(20.2669,-28.3465)">
					<title>path2</title>
					<path d="M0.2 103.36 a0.737008 0.737008 0 0 1 -0.100984 -0.875197 a0.726378 0.726378 0 0 1 0.113386 -0.147047
								 L15.32 87.21 A1.47756 1.47756 0 0 1 17.45 87.25 A40.0748 40.0748 0 0 1 26.75 104.16 L17.61 114.49
								 L4.01 110.24 A16.4037 16.4037 -180 0 0 0.2 103.36 L0.2 103.36 Z" class="st1"/>
				</g>
				<g id="shape8693-5" transform="translate(24.2717,-12.3325)">
					<title>path4</title>
					<path d="M29.99 87.78 A1.47402 1.47402 -180 0 0 28.17 86.7 L0 94.22 A16.6163 16.6163 0 0 1 0.01 102.79 L9.4 114.49
								 L22.77 108.91 L28.16 110.36 A1.47402 1.47402 -180 0 0 29.98 109.28 A47.6008 47.6008 -180 0 0 29.99
								 87.78 Z" class="st2"/>
				</g>
				<g id="shape8694-7" transform="translate(20.2973,-0.628414)">
					<title>path6</title>
					<path d="M3.98 91.09 A16.4091 16.4091 0 0 1 0.21 97.95 a0.73878 0.73878 -180 0 0 0.0106299 1.03465 L15.32 114.06
								 A1.47756 1.47756 -180 0 0 17.45 114.02 A39.9508 39.9508 -180 0 0 26.75 97.2 L3.98 91.09 Z"
							class="st3"/>
				</g>
				<g id="shape8695-9" transform="translate(20.2669,-10.6299)">
					<title>path8</title>
					<path d="M11.62 112.13 L11.62 83.19 A2.3687 2.3687 -180 0 0 9.26 80.83 L3.96 80.83 L0.21 84.59 a0.722835 0.722835
								 -180 0 0 -0.113386 0.145276 a0.737008 0.737008 -180 0 0 0.100984 0.875197 A16.4037 16.4037 0 0 1
								 4.01 92.48 L4.01 92.48 L4 92.48 A16.6217 16.6217 0 0 1 4.01 101.05 A16.3346 16.3346 0 0 1 3.27 103.19
								 A16.4356 16.4356 0 0 1 0.24 107.91 a0.73878 0.73878 -180 0 0 0.0106299 1.03465 L5.8 114.49 L9.26
								 114.49 A2.3687 2.3687 -180 0 0 11.62 112.13 Z" class="st4"/>
				</g>
				<g id="shape8696-11" transform="translate(20.2669,-8.86004)">
					<title>path10</title>
					<path d="M9.85 112.13 L9.85 83.2 A2.3687 2.3687 -180 0 0 7.49 80.83 L2.19 80.83 L0.21 82.82 a0.722835 0.722835
								 -180 0 0 -0.113386 0.145276 a0.737008 0.737008 -180 0 0 0.100984 0.875197 A16.4037 16.4037 0 0 1
								 4.01 90.71 L4.01 90.71 L4 90.71 A16.6217 16.6217 0 0 1 4.01 99.28 A16.3346 16.3346 0 0 1 3.27 101.42
								 A16.4356 16.4356 0 0 1 0.24 106.14 a0.73878 0.73878 -180 0 0 0.0106299 1.03465 L7.58 114.49 A2.3687
								 2.3687 -180 0 0 9.85 112.13 Z" class="st5"/>
				</g>
				<g id="shape8697-13" transform="translate(20.2669,-12.4016)">
					<title>path12</title>
					<path d="M9.85 112.13 L9.85 86.74 A2.3687 2.3687 -180 0 0 7.49 84.38 L2.19 84.38 L0.21 86.36 a0.722835 0.722835
								 -180 0 0 -0.113386 0.145276 a0.737008 0.737008 -180 0 0 0.100984 0.875197 A16.4037 16.4037 0 0 1
								 4.01 94.25 L4.01 94.25 L4 94.26 A16.6217 16.6217 0 0 1 4.01 102.82 A16.3346 16.3346 0 0 1 3.27 104.96
								 A16.4356 16.4356 0 0 1 0.24 109.68 a0.73878 0.73878 -180 0 0 0.0106299 1.03465 L4.03 114.49 L7.49
								 114.49 A2.3687 2.3687 -180 0 0 9.85 112.13 Z" class="st5"/>
				</g>
				<g id="shape8698-15" transform="translate(20.2669,-12.4016)">
					<title>path14</title>
					<path d="M8.08 112.13 L8.08 86.74 A2.3687 2.3687 -180 0 0 5.72 84.38 L2.19 84.38 L0.21 86.36 a0.722835 0.722835
								 -180 0 0 -0.113386 0.145276 a0.737008 0.737008 -180 0 0 0.100984 0.875197 A16.4037 16.4037 0 0 1
								 4.01 94.25 L4.01 94.25 L4 94.26 A16.6217 16.6217 0 0 1 4.01 102.82 A16.3346 16.3346 0 0 1 3.27 104.96
								 A16.4356 16.4356 0 0 1 0.24 109.68 a0.73878 0.73878 -180 0 0 0.0106299 1.03465 L4.03 114.49 L5.72
								 114.49 A2.3687 2.3687 -180 0 0 8.08 112.13 Z" class="st5"/>
				</g>
				<g id="shape8699-17" transform="translate(0,-14.1732)">
					<title>path16</title>
					<path d="M2.36 86.15 L25.98 86.15 A2.36161 2.36161 0 0 1 28.35 88.51 L28.35 112.13 A2.36161 2.36161 0 0 1 25.98
								 114.49 L2.36 114.49 A2.36161 2.36161 0 0 1 0 112.13 L0 88.51 A2.36161 2.36161 0 0 1 2.36 86.15 Z"
							class="st2"/>
				</g>
				<g id="shape8700-19" transform="translate(7.31693,-19.4882)">
					<title>path18</title>
					<path d="M6.55 104.34 A5.95453 5.95453 0 0 1 6.94 105.4 L6.98 105.4 A5.03858 5.03858 0 0 1 7.36 104.36 L10.95
								 97.61 A1.57677 1.57677 0 0 1 12.34 96.78 A1.57677 1.57677 0 0 1 13.7 99.14 L8.75 107.77 A1.57677
								 1.57677 -180 0 0 8.54 108.55 L8.54 112.92 A1.57677 1.57677 0 0 1 6.96 114.49 L6.64 114.49 A1.57677
								 1.57677 0 0 1 5.07 112.92 L5.07 108.6 A1.57677 1.57677 -180 0 0 4.86 107.83 L0 99.12 A1.57677 1.57677
								 0 0 1 1.37 96.78 L1.68 96.78 A1.57677 1.57677 0 0 1 3.08 97.63 L6.55 104.34 Z" class="st6"/>
				</g>
				<g id="shape8701-21">
					<title>path20</title>
					<rect x="0" y="57.8016" width="56.6929" height="56.6929" class="st7"/>
				</g>
			</g>
			<g id="shape8690-23">
				<g id="shadow8690-24" transform="matrix(1,0,0,1,1.41732,1.41732)" class="st8"/>
				<text x="2.94" y="130.2" class="st9">O365 - Yammer</text>			</g>
		</g>
	</g>
</svg>
