<?xml version="1.0" encoding="UTF-8" standalone="no"?>
<!DOCTYPE svg PUBLIC "-//W3C//DTD SVG 1.1//EN" "http://www.w3.org/Graphics/SVG/1.1/DTD/svg11.dtd">
<!-- Generated by Microsoft Visio, SVG Export O365 - SharePoint.svg Page-1 -->
<svg xmlns="http://www.w3.org/2000/svg" xmlns:xlink="http://www.w3.org/1999/xlink" xmlns:ev="http://www.w3.org/2001/xml-events"
		width="1.29289in" height="1.59133in" viewBox="0 0 93.088 114.576" xml:space="preserve" color-interpolation-filters="sRGB"
		class="st11">
	<style type="text/css">
	<![CDATA[
		.st1 {fill:#036c70;stroke:none;stroke-linecap:butt;stroke-width:18.1976}
		.st2 {fill:#1a9ba1;stroke:none;stroke-linecap:butt;stroke-width:18.1976}
		.st3 {fill:#37c6d0;stroke:none;stroke-linecap:butt;stroke-width:18.1976}
		.st4 {fill:#000000;fill-opacity:0.098;stroke:none;stroke-linecap:butt;stroke-width:18.1976}
		.st5 {fill:#000000;fill-opacity:0.2;stroke:none;stroke-linecap:butt;stroke-width:18.1976}
		.st6 {fill:#03787c;stroke:none;stroke-linecap:butt;stroke-width:18.1976}
		.st7 {fill:#ffffff;stroke:none;stroke-linecap:butt;stroke-width:18.1976}
		.st8 {fill:none;stroke:none;stroke-linecap:butt;stroke-width:18.1976}
		.st9 {visibility:visible}
		.st10 {fill:#000000;font-family:Calibri;font-size:0.666664em}
		.st11 {fill:none;fill-rule:evenodd;font-size:12px;overflow:visible;stroke-linecap:square;stroke-miterlimit:3}
	]]>
	</style>

	<g>
		<title>Page-1</title>
		<g id="group8523-1" transform="translate(18.1976,-39.685)">
			<title>O365 - SharePoint.8523</title>
			<desc>O365 - SharePoint</desc>
			<g id="group8524-2">
				<title>g22</title>
				<g id="shape8525-3" transform="translate(9.74409,-23.0315)">
					<title>circle2</title>
					<ellipse cx="16.8307" cy="97.7448" rx="16.8307" ry="16.8307" class="st1"/>
				</g>
				<g id="shape8526-5" transform="translate(27.9035,-10.6299)">
					<title>circle4</title>
					<ellipse cx="14.3947" cy="100.181" rx="14.3947" ry="14.3947" class="st2"/>
				</g>
				<g id="shape8527-7" transform="translate(16.8307,0)">
					<title>circle6</title>
					<ellipse cx="11.5157" cy="103.06" rx="11.5157" ry="11.5157" class="st3"/>
				</g>
				<g id="shape8528-9" transform="translate(10.3341,-10.6299)">
					<title>path8</title>
					<path d="M19.19 80.91 L0 80.91 A16.8413 16.8413 -180 0 0 16.24 102.17 C16.73 102.17 17.22 102.15 17.7 102.11
								 L17.71 102.18 A11.5157 11.5157 -180 0 0 6.5 113.69 C6.5 113.99 6.51 114.28 6.53 114.58 L19.19 114.58
								 A2.3687 2.3687 -180 0 0 21.56 112.21 L21.56 83.28 A2.3687 2.3687 -180 0 0 19.19 80.91 Z"
							class="st4"/>
				</g>
				<g id="shape8529-11" transform="translate(9.95138,-8.85827)">
					<title>path10</title>
					<path d="M17.81 80.91 L0 80.91 A16.8396 16.8396 -180 0 0 16.62 100.4 C17.11 100.4 17.6 100.38 18.08 100.34 L18.09
								 100.41 A11.5246 11.5246 -180 0 0 7.19 114.58 L17.81 114.58 A2.3687 2.3687 -180 0 0 20.17 112.21
								 L20.17 83.28 A2.3687 2.3687 -180 0 0 17.81 80.91 Z" class="st5"/>
				</g>
				<g id="shape8530-13" transform="translate(9.95138,-12.4016)">
					<title>path12</title>
					<path d="M17.81 84.46 L0 84.46 A16.8396 16.8396 -180 0 0 16.62 103.95 C17.11 103.95 17.6 103.92 18.08 103.88
								 L18.09 103.95 A11.5157 11.5157 -180 0 0 6.91 114.58 L17.81 114.58 A2.3687 2.3687 -180 0 0 20.17
								 112.21 L20.17 86.82 A2.3687 2.3687 -180 0 0 17.81 84.46 Z" class="st5"/>
				</g>
				<g id="shape8531-15" transform="translate(9.95138,-12.4016)">
					<title>path14</title>
					<path d="M16.03 84.46 L0 84.46 A16.8396 16.8396 -180 0 0 16.62 103.95 C17.11 103.95 17.6 103.92 18.08 103.88
								 L18.09 103.95 A11.5157 11.5157 -180 0 0 6.91 114.58 L16.03 114.58 A2.3687 2.3687 -180 0 0 18.4 112.21
								 L18.4 86.82 A2.3687 2.3687 -180 0 0 16.03 84.46 Z" class="st5"/>
				</g>
				<g id="shape8532-17" transform="translate(0,-14.1732)">
					<title>path16</title>
					<path d="M2.36 86.23 L25.98 86.23 A2.36161 2.36161 0 0 1 28.35 88.59 L28.35 112.21 A2.36161 2.36161 0 0 1 25.98
								 114.58 L2.36 114.58 A2.36161 2.36161 0 0 1 0 112.21 L0 88.59 A2.36161 2.36161 0 0 1 2.36 86.23 Z"
							class="st6"/>
				</g>
				<g id="shape8533-19" transform="translate(8.08051,-19.4882)">
					<title>path18</title>
					<path d="M1.96 105.41 A4.68602 4.68602 0 0 1 0.51 103.87 A4.18287 4.18287 0 0 1 -0 101.76 A4.05709 4.05709 0
								 0 1 0.94 99.03 A5.56654 5.56654 0 0 1 3.45 97.39 A10.598 10.598 0 0 1 6.88 96.86 A13.0287 13.0287
								 0 0 1 11.4 97.49 L11.4 100.68 A7.06181 7.06181 -180 0 0 9.35 99.85 A9.91417 9.91417 -180 0 0 6.96
								 99.56 A5.18386 5.18386 -180 0 0 4.51 100.08 A1.6122 1.6122 -180 0 0 3.54 101.55 A1.49528 1.49528
								 -180 0 0 3.95 102.6 A3.75945 3.75945 -180 0 0 5.06 103.39 C5.53 103.62 6.22 103.93 7.14 104.31 A2.18268
								 2.18268 0 0 1 7.44 104.43 A17.1797 17.1797 0 0 1 10.07 105.73 A4.70197 4.70197 0 0 1 11.62 107.29
								 A4.53189 4.53189 0 0 1 12.19 109.65 A4.3937 4.3937 0 0 1 11.3 112.5 A4.94114 4.94114 0 0 1 8.94
								 114.08 A10.7167 10.7167 0 0 1 5.57 114.58 A17.7661 17.7661 0 0 1 2.52 114.32 A10.474 10.474 0 0
								 1 0.04 113.61 L0.04 110.24 A7.97244 7.97244 -180 0 0 2.54 111.43 A9.76713 9.76713 -180 0 0 5.3 111.88
								 A4.74803 4.74803 -180 0 0 7.81 111.35 A1.67776 1.67776 -180 0 0 8.65 109.85 A1.60157 1.60157 -180
								 0 0 8.18 108.7 A4.79055 4.79055 -180 0 0 6.88 107.79 C6.32 107.51 5.5 107.15 4.42 106.69 A13.9252
								 13.9252 0 0 1 1.96 105.41 Z" class="st7"/>
				</g>
				<g id="shape8534-21">
					<title>path20</title>
					<rect x="0" y="57.8826" width="56.6929" height="56.6929" class="st8"/>
				</g>
			</g>
			<g id="shape8523-23">
				<g id="shadow8523-24" transform="matrix(1,0,0,1,1.41732,1.41732)" class="st9"/>
				<text x="-1.19" y="130.28" class="st10">O365 - SharePoint</text>			</g>
		</g>
	</g>
</svg>
