<?xml version="1.0" encoding="UTF-8" standalone="no"?>
<!DOCTYPE svg PUBLIC "-//W3C//DTD SVG 1.1//EN" "http://www.w3.org/Graphics/SVG/1.1/DTD/svg11.dtd">
<!-- Generated by Microsoft Visio, SVG Export Active Directory Federation Proxy.svg Page-1 -->
<svg xmlns="http://www.w3.org/2000/svg" xmlns:xlink="http://www.w3.org/1999/xlink" xmlns:ev="http://www.w3.org/2001/xml-events"
		width="2.06405in" height="2.07277in" viewBox="0 0 148.612 149.24" xml:space="preserve" color-interpolation-filters="sRGB"
		class="st10">
	<style type="text/css">
	<![CDATA[
		.st1 {fill:url(#grad0-11);stroke:none;stroke-linecap:butt;stroke-width:35.9596}
		.st2 {fill:#003067;stroke:none;stroke-linecap:butt;stroke-width:35.9596}
		.st3 {fill:#50e6ff;stroke:none;stroke-linecap:butt;stroke-width:35.9596}
		.st4 {fill:url(#grad0-31);stroke:none;stroke-linecap:butt;stroke-width:33.9999}
		.st5 {fill:#ffffff;stroke:none;stroke-linecap:round;stroke-linejoin:round;stroke-width:0.749997}
		.st6 {fill:url(#grad0-41);stroke:none;stroke-linecap:butt;stroke-width:63.4471}
		.st7 {fill:url(#grad0-59);stroke:none;stroke-linecap:butt;stroke-width:9.52776}
		.st8 {fill:#ffffff;stroke:none;stroke-width:0.999997}
		.st9 {fill:none;stroke:none;stroke-linecap:butt;stroke-width:0.749997;visibility:hidden}
		.st10 {fill:none;fill-rule:evenodd;font-size:12px;overflow:visible;stroke-linecap:square;stroke-miterlimit:3}
	]]>
	</style>

	<defs id="Patterns_And_Gradients">
		<linearGradient id="grad0-11" x1="0" y1="0" x2="1" y2="0" gradientTransform="rotate(-90 0.5 0.5)">
			<stop offset="0" stop-color="#949494" stop-opacity="1"/>
			<stop offset="0.53" stop-color="#a2a2a2" stop-opacity="1"/>
			<stop offset="1" stop-color="#b3b3b3" stop-opacity="1"/>
		</linearGradient>
		<linearGradient id="grad0-31" x1="0" y1="0" x2="1" y2="0" gradientTransform="rotate(-90 0.5 0.5)">
			<stop offset="0" stop-color="#0879e2" stop-opacity="1"/>
			<stop offset="0.325" stop-color="#0a7de4" stop-opacity="1"/>
			<stop offset="0.62" stop-color="#1088eb" stop-opacity="1"/>
			<stop offset="0.91" stop-color="#199af6" stop-opacity="1"/>
			<stop offset="1" stop-color="#1da2fa" stop-opacity="1"/>
		</linearGradient>
		<linearGradient id="grad0-41" x1="0" y1="0" x2="1" y2="0" gradientTransform="rotate(0 0.5 0.5)">
			<stop offset="0" stop-color="#0379d5" stop-opacity="1"/>
			<stop offset="1" stop-color="#5c9fee" stop-opacity="1"/>
		</linearGradient>
		<linearGradient id="grad0-59" x1="0" y1="0" x2="1" y2="0" gradientTransform="rotate(-89.652058299692 0.5 0.5)">
			<stop offset="0" stop-color="#0078d4" stop-opacity="1"/>
			<stop offset="0.16" stop-color="#1380da" stop-opacity="1"/>
			<stop offset="0.53" stop-color="#3c91e5" stop-opacity="1"/>
			<stop offset="0.82" stop-color="#559cec" stop-opacity="1"/>
			<stop offset="1" stop-color="#5ea0ef" stop-opacity="1"/>
		</linearGradient>
	</defs>
	<g>
		<title>Page-1</title>
		<g id="group15644-1" transform="translate(42.5644,-57.8214)">
			<title>Active Directory Federation Proxy.15644</title>
			<g id="group15645-2">
				<title>Page-1</title>
				<g id="group15646-3">
					<title>Sheet.15646</title>
					<g id="group15647-4" transform="translate(2.43805E-13,-1.46809)">
						<title>Sheet.15647</title>
						<g id="group15648-5">
							<title>Icon-databases-136.149</title>
							<g id="group15649-6">
								<title>path4-5</title>
								<g id="group15650-7">
									<title>Sheet.15650</title>
									<g id="shape15651-8">
										<title>Sheet.15651</title>
										<path d="M31.9 147.41 A1.88381 1.87311 -180 0 1 30.05 149.24 L1.85 149.24 A1.85134 1.84081
													 -180 0 1 -0 147.41 L0 97.09 A1.81885 1.80851 -180 0 1 1.85 95.25 L30.05 95.25
													 A1.85134 1.84081 -180 0 1 31.9 97.09 L31.9 147.41 Z" class="st1"/>
									</g>
								</g>
							</g>
							<g id="group15652-12" transform="translate(4.67705,-31.6166)">
								<title>path6-7</title>
								<g id="group15653-13">
									<title>Sheet.15653</title>
									<g id="shape15654-14">
										<title>Sheet.15654</title>
										<path d="M0 145.79 A3.47531 3.45556 -180 0 1 3.45 142.36 L19.36 142.36 A3.47531 3.45556 -180
													 0 1 22.93 145.79 A3.47531 3.45556 -180 0 1 19.36 149.24 L3.45 149.24 A3.47531
													 3.45556 -180 0 1 -0 145.79 ZM0 135.58 A3.47531 3.45556 -180 0 1 3.45 132.13
													 L19.36 132.13 A3.47531 3.45556 -180 0 1 22.93 135.58 A3.47531 3.45556 -180 0
													 1 19.36 139.01 L3.45 139.01 A3.47531 3.45556 -180 0 1 0 135.58 Z" class="st2"/>
									</g>
								</g>
							</g>
							<g id="group15655-16" transform="translate(5.97622,-42.9459)">
								<title>circle8-5</title>
								<g id="group15656-17">
									<title>Sheet.15656</title>
									<g id="shape15657-18">
										<title>Sheet.15657</title>
										<ellipse cx="2.33852" cy="146.915" rx="2.33852" ry="2.32524" class="st3"/>
									</g>
								</g>
							</g>
							<g id="group15658-20" transform="translate(5.97622,-32.7407)">
								<title>circle10-2</title>
								<g id="group15659-21">
									<title>Sheet.15659</title>
									<g id="shape15660-22">
										<title>Sheet.15660</title>
										<ellipse cx="2.33852" cy="146.915" rx="2.33852" ry="2.32524" class="st3"/>
									</g>
								</g>
							</g>
						</g>
					</g>
					<g id="group15661-24" transform="translate(15.5816,2.84217E-13)">
						<title>Sheet.15661</title>
						<g id="group15662-25">
							<title>Sheet.15662</title>
							<g id="group15663-26">
								<title>g8</title>
								<g id="group15664-27">
									<title>path6</title>
									<g id="shape15665-28">
										<title>Sheet.15665</title>
										<path d="M16.28 117.03 C7.23 117.03 0 124.37 0 133.13 C0 142.09 7.42 149.24 16.28 149.24
													 C25.13 149.24 32.56 141.9 32.56 133.13 C32.56 124.37 25.33 117.03 16.28 117.03
													 ZM16.28 119.15 C24.09 119.15 30.4 125.4 30.4 133.13 C30.4 140.87 24.02 147.12
													 16.28 147.12 C8.53 147.12 2.15 140.8 2.15 133.13 C2.15 125.47 8.47 119.15 16.28
													 119.15 Z" class="st4"/>
									</g>
								</g>
							</g>
							<g id="group15666-32" transform="translate(1.39999,-1.38131)">
								<title>Sheet.15666</title>
								<g id="shape15667-33">
									<title>Sheet.15667</title>
									<ellipse cx="14.8791" cy="134.517" rx="14.8791" ry="14.723" class="st5"/>
								</g>
							</g>
						</g>
						<g id="group15668-35" transform="translate(5.30109,-5.65425)">
							<title>Sheet.15668</title>
							<g id="group15669-36" transform="translate(0.00028371,0)">
								<title>Sheet.15669</title>
								<g id="group15670-37">
									<title>path33</title>
									<g id="shape15671-38" transform="translate(0,287.631) scale(1,-1)">
										<title>Sheet.15671</title>
										<path d="M21.49 143.48 L15.28 138.43 a0.332346 0.270582 -0 0 0 -0.553912 0.225486 L14.74
													 141.72 a0.332346 0.270582 180 0 1 -0.332346 0.270582 L0 141.99 L0 145.74 L14.4
													 145.74 a0.332346 0.270582 180 0 1 0.332346 0.270582 L14.74 149.12 a0.332346
													 0.270582 -0 0 0 0.553912 0 L21.49 144.29 a0.664692 0.541163 -0 0 0 4.9738E-14
													 -0.811746 L21.49 143.48 Z" class="st6"/>
									</g>
								</g>
							</g>
							<g id="group15672-42" transform="translate(0,-9.09726)">
								<title>path33.668</title>
								<g id="shape15673-43" transform="translate(21.7171,-1.13687E-13) scale(-1,1)">
									<title>Sheet.15673</title>
									<path d="M21.49 143.48 L15.28 138.43 a0.332346 0.270582 -0 0 0 -0.553912 0.225486 L14.74 141.72
												 a0.332346 0.270582 180 0 1 -0.332346 0.270582 L0 141.99 L0 145.74 L14.4 145.74 a0.332346
												 0.270582 180 0 1 0.332346 0.270582 L14.74 149.12 a0.332346 0.270582 -0 0 0 0.553912
												 0 L21.49 144.29 a0.664692 0.541163 -0 0 0 2.84217E-14 -0.811746 L21.49 143.48 Z"
											class="st6"/>
								</g>
							</g>
						</g>
					</g>
					<g id="group15674-46" transform="translate(23.0396,-35.9215)">
						<title>Sheet.15674</title>
						<g id="group15675-47" transform="translate(1.97728,-1.20673)">
							<title>Sheet.15675</title>
							<g id="shape15676-48">
								<title>Sheet.15676</title>
								<path d="M0 149.24 L10.6 131.64 L21.25 149.24 L0 149.24 Z" class="st5"/>
							</g>
						</g>
						<g id="group15677-50">
							<title>Page-1</title>
							<g id="group15678-51">
								<title>ADFS</title>
								<g id="group15679-52">
									<title>Sheet.15679</title>
									<g id="group15680-53">
										<title>Sheet.15680</title>
										<g id="group15681-54">
											<title>Sheet.15681</title>
											<g id="group15682-55">
												<title>path14-5-6</title>
												<g id="shape15683-56">
													<title>Sheet.15683</title>
													<path d="M24.66 147.77 L13.46 129.26 C12.96 128.47 12.18 128.47 11.69 129.26
																 L0.49 147.77 C0 148.55 0.39 149.13 1.38 149.13 L23.77 149.13 C24.76
																 149.24 25.15 148.55 24.66 147.77 ZM19.16 147.38 L14.24 147.38 L14.24
																 144.45 L16.22 144.45 L16.22 142.49 L13.27 142.49 L12.27 142.49 L9.34
																 142.49 L9.34 144.45 L11.3 144.45 L11.3 147.38 L6.39 147.38 L6.39
																 144.45 L8.36 144.45 L8.36 141.52 L9.35 141.52 L12.27 141.52 L12.27
																 139.55 L10.31 139.55 L10.31 136.63 L15.22 136.63 L15.22 139.55 L13.24
																 139.55 L13.24 141.52 L16.19 141.52 L17.18 141.52 L17.18 144.45 L19.15
																 144.45 L19.15 147.38 L19.16 147.38 Z" class="st7"/>
												</g>
											</g>
											<g id="group15684-60" transform="translate(10.3095,-9.68702)">
												<title>rect1197</title>
												<g id="shape15685-61">
													<title>Sheet.15685</title>
													<rect x="0" y="146.312" width="4.90988" height="2.92764" class="st8"/>
												</g>
												<g id="shape15686-63">
													<title>Sheet.15686</title>
													<rect x="0" y="146.312" width="4.90988" height="2.92764" class="st9"/>
												</g>
											</g>
										</g>
									</g>
								</g>
							</g>
						</g>
					</g>
				</g>
			</g>
		</g>
	</g>
</svg>
