<?xml version="1.0" encoding="UTF-8" standalone="no"?>
<!DOCTYPE svg PUBLIC "-//W3C//DTD SVG 1.1//EN" "http://www.w3.org/Graphics/SVG/1.1/DTD/svg11.dtd">
<!-- Generated by Microsoft Visio, SVG Export Azure Active Directory Sync Primary.svg Page-1 -->
<svg xmlns="http://www.w3.org/2000/svg" xmlns:xlink="http://www.w3.org/1999/xlink" xmlns:ev="http://www.w3.org/2001/xml-events"
		width="1.64095in" height="1.737in" viewBox="0 0 118.149 125.064" xml:space="preserve" color-interpolation-filters="sRGB"
		class="st13">
	<style type="text/css">
	<![CDATA[
		.st1 {fill:url(#grad0-11);stroke:none;stroke-linecap:butt;stroke-width:35.9595}
		.st2 {fill:#003067;stroke:none;stroke-linecap:butt;stroke-width:35.9595}
		.st3 {fill:#50e6ff;stroke:none;stroke-linecap:butt;stroke-width:35.9595}
		.st4 {fill:url(#grad0-31);stroke:none;stroke-linecap:butt;stroke-width:33.9999}
		.st5 {fill:#ffffff;stroke:none;stroke-linecap:round;stroke-linejoin:round;stroke-width:0.749997}
		.st6 {fill:#50e6ff;stroke:none;stroke-linecap:butt;stroke-width:33.9999}
		.st7 {fill:#ffffff;stroke:none;stroke-linecap:butt;stroke-width:33.9999}
		.st8 {fill:url(#grad0-50);stroke:none;stroke-linecap:butt;stroke-width:33.9999}
		.st9 {fill:#53b1e0;stroke:none;stroke-linecap:butt;stroke-width:33.9999}
		.st10 {fill:#9cebff;stroke:none;stroke-linecap:butt;stroke-width:33.9999}
		.st11 {fill:url(#grad0-61);stroke:none;stroke-linecap:butt;stroke-width:33.9999}
		.st12 {fill:url(#grad0-67);stroke:none;stroke-linecap:butt;stroke-width:33.9999}
		.st13 {fill:none;fill-rule:evenodd;font-size:12px;overflow:visible;stroke-linecap:square;stroke-miterlimit:3}
	]]>
	</style>

	<defs id="Patterns_And_Gradients">
		<linearGradient id="grad0-11" x1="0" y1="0" x2="1" y2="0" gradientTransform="rotate(-90 0.5 0.5)">
			<stop offset="0" stop-color="#949494" stop-opacity="1"/>
			<stop offset="0.53" stop-color="#a2a2a2" stop-opacity="1"/>
			<stop offset="1" stop-color="#b3b3b3" stop-opacity="1"/>
		</linearGradient>
		<linearGradient id="grad0-31" x1="0" y1="0" x2="1" y2="0" gradientTransform="rotate(-90 0.5 0.5)">
			<stop offset="0" stop-color="#0879e2" stop-opacity="1"/>
			<stop offset="0.325" stop-color="#0a7de4" stop-opacity="1"/>
			<stop offset="0.62" stop-color="#1088eb" stop-opacity="1"/>
			<stop offset="0.91" stop-color="#199af6" stop-opacity="1"/>
			<stop offset="1" stop-color="#1da2fa" stop-opacity="1"/>
		</linearGradient>
		<linearGradient id="grad0-50" x1="0" y1="0" x2="1" y2="0" gradientTransform="rotate(-133.54829310906 0.5 0.5)">
			<stop offset="0" stop-color="#1988d9" stop-opacity="1"/>
			<stop offset="0.9" stop-color="#54aef0" stop-opacity="1"/>
		</linearGradient>
		<linearGradient id="grad0-61" x1="0" y1="0" x2="1" y2="0" gradientTransform="rotate(65.834982258294 0.5 0.5)">
			<stop offset="0.1" stop-color="#54aef0" stop-opacity="1"/>
			<stop offset="0.29" stop-color="#4fabee" stop-opacity="1"/>
			<stop offset="0.51" stop-color="#41a2e9" stop-opacity="1"/>
			<stop offset="0.74" stop-color="#2a93e0" stop-opacity="1"/>
			<stop offset="0.88" stop-color="#1988d9" stop-opacity="1"/>
		</linearGradient>
		<linearGradient id="grad0-67" x1="0" y1="0" x2="1" y2="0" gradientTransform="rotate(-90 0.5 0.5)">
			<stop offset="0" stop-color="#5e9624" stop-opacity="1"/>
			<stop offset="0.18" stop-color="#629c25" stop-opacity="1"/>
			<stop offset="0.44" stop-color="#6dae2a" stop-opacity="1"/>
			<stop offset="0.73" stop-color="#7fcb30" stop-opacity="1"/>
			<stop offset="0.82" stop-color="#86d633" stop-opacity="1"/>
		</linearGradient>
	</defs>
	<g>
		<title>Page-1</title>
		<g id="group15488-1" transform="translate(35.9598,-34.0157)">
			<title>Azure Active Directory Sync Primary.15488</title>
			<g id="group15489-2">
				<title>Page-1</title>
				<g id="group15490-3">
					<title>Sheet.15490</title>
					<g id="group15491-4" transform="translate(2.43805E-13,-2.33866)">
						<title>Sheet.15491</title>
						<g id="group15492-5">
							<title>Icon-databases-136.149</title>
							<g id="group15493-6">
								<title>path4-5</title>
								<g id="group15494-7">
									<title>Sheet.15494</title>
									<g id="shape15495-8">
										<title>Sheet.15495</title>
										<path d="M31.93 123.27 A1.88556 1.83007 -180 0 1 30.08 125.06 L1.85 125.06 A1.85306 1.79851
													 -180 0 1 -0 123.27 L0 74.11 A1.82054 1.76695 -180 0 1 1.85 72.31 L30.08 72.31
													 A1.85306 1.79851 -180 0 1 31.93 74.11 L31.93 123.27 Z" class="st1"/>
									</g>
								</g>
							</g>
							<g id="group15496-12" transform="translate(4.6814,-30.8901)">
								<title>path6-7</title>
								<g id="group15497-13">
									<title>Sheet.15497</title>
									<g id="shape15498-14">
										<title>Sheet.15498</title>
										<path d="M-0 121.7 A3.47854 3.37615 -180 0 1 3.45 118.35 L19.37 118.35 A3.47854 3.37615 -180
													 0 1 22.95 121.7 A3.47854 3.37615 -180 0 1 19.37 125.06 L3.45 125.06 A3.47854
													 3.37615 -180 0 1 -0 121.7 ZM0 111.72 A3.47854 3.37615 -180 0 1 3.45 108.34 L19.37
													 108.34 A3.47854 3.37615 -180 0 1 22.95 111.72 A3.47854 3.37615 -180 0 1 19.37
													 115.07 L3.45 115.07 A3.47854 3.37615 -180 0 1 -0 111.72 Z" class="st2"/>
									</g>
								</g>
							</g>
							<g id="group15499-16" transform="translate(5.98178,-41.9627)">
								<title>circle8-5</title>
								<g id="group15500-17">
									<title>Sheet.15500</title>
									<g id="shape15501-18">
										<title>Sheet.15501</title>
										<ellipse cx="2.34069" cy="122.792" rx="2.34069" ry="2.2718" class="st3"/>
									</g>
								</g>
							</g>
							<g id="group15502-20" transform="translate(5.98178,-31.9921)">
								<title>circle10-2</title>
								<g id="group15503-21">
									<title>Sheet.15503</title>
									<g id="shape15504-22">
										<title>Sheet.15504</title>
										<ellipse cx="2.34069" cy="122.792" rx="2.34069" ry="2.2718" class="st3"/>
									</g>
								</g>
							</g>
						</g>
					</g>
					<g id="group15505-24" transform="translate(15.961,-2.84217E-13)">
						<title>Sheet.15505</title>
						<g id="group15506-25">
							<title>Sheet.15506</title>
							<g id="group15507-26">
								<title>g8</title>
								<g id="group15508-27">
									<title>path6</title>
									<g id="shape15509-28">
										<title>Sheet.15509</title>
										<path d="M16.04 94.07 C7.12 94.07 0 101.14 0 109.57 C0 118.19 7.31 125.06 16.04 125.06 C24.77
													 125.06 32.09 118 32.09 109.57 C32.09 101.14 24.96 94.07 16.04 94.07 ZM16.04
													 96.12 C23.75 96.12 29.97 102.13 29.97 109.57 C29.97 117.01 23.68 123.02 16.04
													 123.02 C8.41 123.02 2.12 116.94 2.12 109.57 C2.12 102.19 8.34 96.12 16.04 96.12
													 Z" class="st4"/>
									</g>
								</g>
							</g>
							<g id="group15510-32" transform="translate(1.37973,-1.33237)">
								<title>Sheet.15510</title>
								<g id="shape15511-33">
									<title>Sheet.15511</title>
									<ellipse cx="14.6637" cy="110.901" rx="14.6637" ry="14.1633" class="st5"/>
								</g>
							</g>
						</g>
					</g>
					<g id="group15512-35" transform="translate(23.3341,-35.0936)">
						<title>Azure Active Directory.2479</title>
						<g id="group15513-36">
							<title>Sheet.15513</title>
							<g id="group15514-37">
								<title>Sheet.15514</title>
								<g id="shape15515-38">
									<title>Sheet.15515</title>
									<path d="M1.4 115.83 L12.33 122.61 L23.46 115.81 L24.85 117.36 L12.33 125.06 L0 117.36 L1.4 115.83
												 Z" class="st6"/>
								</g>
							</g>
							<g id="group15516-40" transform="translate(2.22272,-3.86412)">
								<title>Sheet.15516</title>
								<g id="shape15517-41">
									<title>Sheet.15517</title>
									<path d="M0 118.83 L10.11 107.33 L20.42 118.84 L10.11 125.06 L0 118.83 Z" class="st7"/>
								</g>
							</g>
							<g id="group15518-43" transform="translate(2.22272,-3.86412)">
								<title>Sheet.15518</title>
								<g id="shape15519-44">
									<title>Sheet.15519</title>
									<path d="M10.11 107.33 L10.11 125.06 L0 118.83 L10.11 107.33 Z" class="st6"/>
								</g>
							</g>
							<g id="group15520-46" transform="translate(12.3285,-3.86412)">
								<title>Sheet.15520</title>
								<g id="shape15521-47">
									<title>Sheet.15521</title>
									<path d="M0 107.33 L0 125.06 L10.32 118.84 L0 107.33 Z" class="st8"/>
								</g>
							</g>
							<g id="group15522-51" transform="translate(12.3285,-3.86412)">
								<title>Sheet.15522</title>
								<g id="shape15523-52">
									<title>Sheet.15523</title>
									<path d="M0 116.49 L10.32 118.84 L0 125.06 L0 116.49 Z" class="st9"/>
								</g>
							</g>
							<g id="group15524-54" transform="translate(2.22272,-3.86412)">
								<title>Sheet.15524</title>
								<g id="shape15525-55">
									<title>Sheet.15525</title>
									<path d="M10.11 125.06 L0 118.83 L10.11 116.49 L10.11 125.06 Z" class="st10"/>
								</g>
							</g>
							<g id="group15526-57" transform="translate(12.3285,-9.9476E-14)">
								<title>Sheet.15526</title>
								<g id="shape15527-58">
									<title>Sheet.15527</title>
									<path d="M0 125.06 L12.52 117.36 L11.13 115.81 L0 122.61 L0 125.06 Z" class="st11"/>
								</g>
							</g>
						</g>
					</g>
					<g id="group15528-62" transform="translate(107.057,21.6716) rotate(45)">
						<title>g8.2492</title>
						<g id="group15529-63">
							<title>path6</title>
							<g id="shape15530-64" transform="translate(18.2173,-1.56319E-13) scale(-1,1)">
								<title>Sheet.15530</title>
								<path d="M8.78 106.65 L8.68 106.65 C6.61 106.65 4.69 107.35 3.14 108.46 L0 105.43 L0 113.41 L8.26
											 113.41 L5.14 110.4 A5.84669 5.64718 0 0 1 8.78 109.22 C11.88 109.22 14.45 111.32 14.99
											 114.07 L17.72 114.07 A9.02335 8.71544 -180 0 0 8.78 106.65 ZM18.12 117.06 L9.96 117.06
											 L10 117.09 L9.96 117.09 L12.98 120 C11.96 120.7 10.73 121.06 9.34 121.06 C6.55 121.06
											 4.17 119.24 3.35 116.78 L0.5 116.78 A9.03814 8.72973 -180 0 0 9.34 123.64 L9.44 123.64
											 C11.48 123.64 13.37 122.96 14.91 121.87 L18.22 125.06 L18.22 117.06 L18.12 117.06 Z"
										class="st12"/>
							</g>
						</g>
					</g>
				</g>
			</g>
		</g>
	</g>
</svg>
