<?xml version="1.0" encoding="UTF-8" standalone="no"?>
<!-- Generated by Microsoft Visio, SVG Export FTP Server.svg Page-1 -->

<svg
   xmlns:dc="http://purl.org/dc/elements/1.1/"
   xmlns:cc="http://creativecommons.org/ns#"
   xmlns:rdf="http://www.w3.org/1999/02/22-rdf-syntax-ns#"
   xmlns:svg="http://www.w3.org/2000/svg"
   xmlns="http://www.w3.org/2000/svg"
   xmlns:sodipodi="http://sodipodi.sourceforge.net/DTD/sodipodi-0.dtd"
   xmlns:inkscape="http://www.inkscape.org/namespaces/inkscape"
   width="0.70860583in"
   height="0.78735888in"
   viewBox="0 0 51.019458 56.690022"
   xml:space="preserve"
   class="st8"
   version="1.1"
   id="svg159"
   sodipodi:docname="FTP Server.svg"
   style="font-size:12px;overflow:visible;color-interpolation-filters:sRGB;fill:none;fill-rule:evenodd;stroke-linecap:square;stroke-miterlimit:3"
   inkscape:version="0.92.5 (2060ec1f9f, 2020-04-08)"><metadata
   id="metadata163"><rdf:RDF><cc:Work
       rdf:about=""><dc:format>image/svg+xml</dc:format><dc:type
         rdf:resource="http://purl.org/dc/dcmitype/StillImage" /></cc:Work></rdf:RDF></metadata><sodipodi:namedview
   pagecolor="#ffffff"
   bordercolor="#666666"
   borderopacity="1"
   objecttolerance="10"
   gridtolerance="10"
   guidetolerance="10"
   inkscape:pageopacity="0"
   inkscape:pageshadow="2"
   inkscape:window-width="640"
   inkscape:window-height="480"
   id="namedview161"
   showgrid="false"
   inkscape:zoom="1.3012356"
   inkscape:cx="27.287671"
   inkscape:cy="32.847366"
   inkscape:window-x="0"
   inkscape:window-y="0"
   inkscape:window-maximized="0"
   inkscape:current-layer="svg159" />
	<style
   type="text/css"
   id="style2">
	<![CDATA[
		.st1 {fill:url(#grad0-11);stroke:none;stroke-linecap:butt;stroke-width:35.9596}
		.st2 {fill:#003067;stroke:none;stroke-linecap:butt;stroke-width:35.9596}
		.st3 {fill:#50e6ff;stroke:none;stroke-linecap:butt;stroke-width:35.9596}
		.st4 {fill:#f9f9f9;fill-opacity:0.5;stroke:none;stroke-linecap:butt;stroke-width:43.3719}
		.st5 {fill:url(#grad0-35);stroke:none;stroke-linecap:butt;stroke-width:0.749997}
		.st6 {fill:#0078d4;stroke:none;stroke-linecap:butt;stroke-width:0.749997}
		.st7 {fill:#f2f2f2;stroke:none;stroke-linecap:butt;stroke-width:0.749997}
		.st8 {fill:none;fill-rule:evenodd;font-size:12px;overflow:visible;stroke-linecap:square;stroke-miterlimit:3}
	]]>
	</style>

	<defs
   id="Patterns_And_Gradients">
		<linearGradient
   id="grad0-11"
   x1="-0.00015220891"
   y1="62.393016"
   x2="43.413216"
   y2="62.393016"
   gradientTransform="scale(0.77787373,1.2855557)"
   gradientUnits="userSpaceOnUse">
			<stop
   offset="0"
   stop-color="#949494"
   stop-opacity="1"
   id="stop4" />
			<stop
   offset="0.53"
   stop-color="#a2a2a2"
   stop-opacity="1"
   id="stop6" />
			<stop
   offset="1"
   stop-color="#b3b3b3"
   stop-opacity="1"
   id="stop8" />
		</linearGradient>
		<linearGradient
   id="grad0-35"
   x1="0"
   y1="144.39594"
   x2="27.484132"
   y2="144.39594"
   gradientTransform="scale(1.2636382,0.79136573)"
   gradientUnits="userSpaceOnUse">
			<stop
   offset="0"
   stop-color="#32bedd"
   stop-opacity="1"
   id="stop11" />
			<stop
   offset="0.175"
   stop-color="#32caea"
   stop-opacity="1"
   id="stop13" />
			<stop
   offset="0.41"
   stop-color="#32d2f2"
   stop-opacity="1"
   id="stop15" />
			<stop
   offset="0.775"
   stop-color="#32d4f5"
   stop-opacity="1"
   id="stop17" />
		</linearGradient>
	</defs>
	<g
   id="g157"
   transform="translate(-35.96004,-35.958078)">
		<title
   id="title21">Page-1</title>
		<g
   id="group16342-1"
   transform="translate(35.9598,-43.3719)">
			<title
   id="title23">FTP Server.16342</title>
			<g
   id="group16343-2">
				<title
   id="title25">Page-1</title>
				<g
   id="group16344-3">
					<title
   id="title27">Sheet.16344</title>
					<g
   id="group16345-4"
   transform="translate(0,-0.879719)">
						<title
   id="title29">Sheet.16345</title>
						<g
   id="group16346-5">
							<title
   id="title31">Icon-databases-136.149</title>
							<g
   id="group16347-6">
								<title
   id="title33">path4-5</title>
								<g
   id="group16348-7">
									<title
   id="title35">Sheet.16348</title>
									<g
   id="shape16349-8">
										<title
   id="title37">Sheet.16349</title>
										<path
   d="m 33.77,134.12 a 1.99423,1.93635 -180 0 1 -1.96,1.9 H 1.96 A 1.95986,1.90296 -180 0 1 0,134.12 V 82.1 a 1.92547,1.86957 -180 0 1 1.96,-1.89 h 29.85 a 1.95986,1.90296 -180 0 1 1.96,1.89 z"
   class="st1"
   id="path39"
   inkscape:connector-curvature="0"
   style="fill:url(#grad0-11);stroke:none;stroke-width:35.95959854;stroke-linecap:butt" />
									</g>
								</g>
							</g>
							<g
   id="group16350-12"
   transform="translate(4.95121,-32.684)">
								<title
   id="title44">path6-7</title>
								<g
   id="group16351-13">
									<title
   id="title46">Sheet.16351</title>
									<g
   id="shape16352-14">
										<title
   id="title48">Sheet.16352</title>
										<path
   d="m 0,132.46 a 3.67902,3.57222 -180 0 1 3.65,-3.54 h 16.84 a 3.67902,3.57222 -180 0 1 3.78,3.54 3.67902,3.57222 -180 0 1 -3.78,3.56 H 3.65 A 3.67902,3.57222 -180 0 1 0,132.46 Z M 0,121.9 a 3.67902,3.57222 -180 0 1 3.65,-3.57 h 16.84 a 3.67902,3.57222 -180 0 1 3.78,3.57 3.67902,3.57222 -180 0 1 -3.78,3.55 H 3.65 A 3.67902,3.57222 -180 0 1 0,121.9 Z"
   class="st2"
   id="path50"
   inkscape:connector-curvature="0"
   style="fill:#003067;stroke:none;stroke-width:35.95959854;stroke-linecap:butt" />
									</g>
								</g>
							</g>
							<g
   id="group16353-16"
   transform="translate(6.32654,-44.4017)">
								<title
   id="title55">circle8-5</title>
								<g
   id="group16354-17">
									<title
   id="title57">Sheet.16354</title>
									<g
   id="shape16355-18">
										<title
   id="title59">Sheet.16355</title>
										<ellipse
   cx="2.4756"
   cy="133.621"
   rx="2.4756"
   ry="2.4037399"
   class="st3"
   id="ellipse61"
   style="fill:#50e6ff;stroke:none;stroke-width:35.95959854;stroke-linecap:butt" />
									</g>
								</g>
							</g>
							<g
   id="group16356-20"
   transform="translate(6.32654,-33.852)">
								<title
   id="title66">circle10-2</title>
								<g
   id="group16357-21">
									<title
   id="title68">Sheet.16357</title>
									<g
   id="shape16358-22">
										<title
   id="title70">Sheet.16358</title>
										<ellipse
   cx="2.4756"
   cy="133.621"
   rx="2.4756"
   ry="2.4037399"
   class="st3"
   id="ellipse72"
   style="fill:#50e6ff;stroke:none;stroke-width:35.95959854;stroke-linecap:butt" />
									</g>
								</g>
							</g>
						</g>
					</g>
					<g
   id="group16359-24"
   transform="translate(16.0763)">
						<title
   id="title79">Sheet.16359</title>
						<g
   id="group16360-25">
							<title
   id="title81">path20-6</title>
							<g
   id="group16361-26">
								<title
   id="title83">Sheet.16361</title>
								<g
   id="shape16362-27">
									<title
   id="title85">Sheet.16362</title>
									<path
   d="M 17.44,106.01 0,129.26 l 17.44,6.76 z"
   class="st4"
   id="path87"
   inkscape:connector-curvature="0"
   style="fill:#f9f9f9;fill-opacity:0.5;stroke:none;stroke-width:43.37189865;stroke-linecap:butt" />
								</g>
							</g>
						</g>
						<g
   id="group16363-29"
   transform="translate(0.213362,-0.215879)">
							<title
   id="title92">Sheet.16363</title>
							<g
   id="group16364-30">
								<title
   id="title94">Sheet.16364</title>
								<g
   id="group16365-31">
									<title
   id="title96">Sheet.16365</title>
									<g
   id="shape16366-32">
										<title
   id="title98">Sheet.16366</title>
										<path
   d="m 0,114.27 h 34.73 v 20.53 a 1.23104,1.16158 90 0 1 -1.15,1.22 H 1.16 A 1.23104,1.16158 90 0 1 0,134.8 Z"
   class="st5"
   id="path100"
   inkscape:connector-curvature="0"
   style="fill:url(#grad0-35);stroke:none;stroke-width:0.74999702;stroke-linecap:butt" />
									</g>
								</g>
							</g>
							<g
   id="group16367-36"
   transform="translate(0,-21.7628)">
								<title
   id="title105">Sheet.16367</title>
								<g
   id="group16368-37">
									<title
   id="title107">Sheet.16368</title>
									<g
   id="shape16369-38">
										<title
   id="title109">Sheet.16369</title>
										<path
   d="m 1.16,128.18 h 32.41 a 1.23104,1.16158 90 0 1 1.16,1.23 v 6.61 H 0 v -6.61 a 1.23104,1.16158 90 0 1 1.16,-1.23 z"
   class="st6"
   id="path111"
   inkscape:connector-curvature="0"
   style="fill:#0078d4;stroke:none;stroke-width:0.74999702;stroke-linecap:butt" />
									</g>
								</g>
							</g>
							<g
   id="group16370-40"
   transform="translate(4.88802,-24.1737)">
								<title
   id="title116">Sheet.16370</title>
								<g
   id="group16371-41">
									<title
   id="title118">Sheet.16371</title>
									<g
   id="shape16372-42">
										<title
   id="title120">Sheet.16372</title>
										<path
   d="m 0,135.42 a 0.605177,0.571031 -90 0 0 0.571018,0.60516 L 24.39,136.02 a 0.605177,0.571031 -90 0 0 0.571018,-0.60516 L 24.96,133.53 a 0.605177,0.571031 -90 0 0 -0.571018,-0.60516 L 0.57,132.93 a 0.605177,0.571031 -90 0 0 -0.571018,0.60516 z"
   class="st7"
   id="path122"
   inkscape:connector-curvature="0"
   style="fill:#f2f2f2;stroke:none;stroke-width:0.74999702;stroke-linecap:butt" />
									</g>
								</g>
							</g>
							<g
   id="group16373-44"
   transform="translate(8.3124,-4.11789)">
								<title
   id="title127">Sheet.16373</title>
								<g
   id="group16374-45">
									<title
   id="title129">Sheet.16374</title>
									<g
   id="group16375-46">
										<title
   id="title131">Sheet.16375</title>
										<g
   id="shape16376-47">
											<title
   id="title133">Sheet.16376</title>
											<path
   d="M 3.87,135.62 8.32,122.86 A 0.62127,0.586216 -90 0 0 7.770694,122.02474 L 5.01,122.02 a 0.618969,0.584045 -90 0 0 -0.547134,0.40498 L 0,135.19 a 0.618969,0.584045 -90 0 0 0.547134,0.83296 L 3.32,136.02 a 0.62127,0.586216 -90 0 0 0.549306,-0.40267 z"
   class="st7"
   id="path135"
   inkscape:connector-curvature="0"
   style="fill:#f2f2f2;stroke:none;stroke-width:0.74999702;stroke-linecap:butt" />
										</g>
									</g>
								</g>
								<g
   id="group16377-49"
   transform="translate(9.78113)">
									<title
   id="title140">Sheet.16377</title>
									<g
   id="group16378-50">
										<title
   id="title142">Sheet.16378</title>
										<g
   id="shape16379-51">
											<title
   id="title144">Sheet.16379</title>
											<path
   d="M 3.87,135.62 8.32,122.86 A 0.618969,0.584045 -90 0 0 7.772866,122.02474 L 5.01,122.02 a 0.618969,0.584045 -90 0 0 -0.549306,0.40498 L 0,135.19 a 0.618969,0.584045 -90 0 0 0.549306,0.83296 L 3.33,136.02 a 0.618969,0.584045 -90 0 0 0.547134,-0.40267 z"
   class="st7"
   id="path146"
   inkscape:connector-curvature="0"
   style="fill:#f2f2f2;stroke:none;stroke-width:0.74999702;stroke-linecap:butt" />
										</g>
									</g>
								</g>
							</g>
						</g>
					</g>
				</g>
			</g>
		</g>
	</g>
</svg>