<?xml version="1.0" encoding="UTF-8" standalone="no"?>
<!-- Generated by Microsoft Visio, SVG Export Server Cluster.svg Page-1 -->

<svg
   xmlns:dc="http://purl.org/dc/elements/1.1/"
   xmlns:cc="http://creativecommons.org/ns#"
   xmlns:rdf="http://www.w3.org/1999/02/22-rdf-syntax-ns#"
   xmlns:svg="http://www.w3.org/2000/svg"
   xmlns="http://www.w3.org/2000/svg"
   xmlns:xlink="http://www.w3.org/1999/xlink"
   xmlns:sodipodi="http://sodipodi.sourceforge.net/DTD/sodipodi-0.dtd"
   xmlns:inkscape="http://www.inkscape.org/namespaces/inkscape"
   width="0.78734308in"
   height="0.74805212in"
   viewBox="0 0 56.688938 53.859893"
   xml:space="preserve"
   class="st5"
   version="1.1"
   id="svg180"
   sodipodi:docname="Server Cluster.svg"
   style="font-size:12px;overflow:visible;color-interpolation-filters:sRGB;fill:none;fill-rule:evenodd;stroke-linecap:square;stroke-miterlimit:3"
   inkscape:version="0.92.5 (2060ec1f9f, 2020-04-08)"><metadata
   id="metadata184"><rdf:RDF><cc:Work
       rdf:about=""><dc:format>image/svg+xml</dc:format><dc:type
         rdf:resource="http://purl.org/dc/dcmitype/StillImage" /></cc:Work></rdf:RDF></metadata><sodipodi:namedview
   pagecolor="#ffffff"
   bordercolor="#666666"
   borderopacity="1"
   objecttolerance="10"
   gridtolerance="10"
   guidetolerance="10"
   inkscape:pageopacity="0"
   inkscape:pageshadow="2"
   inkscape:window-width="640"
   inkscape:window-height="480"
   id="namedview182"
   showgrid="false"
   inkscape:zoom="1.4295212"
   inkscape:cx="37.795495"
   inkscape:cy="34.601857"
   inkscape:window-x="0"
   inkscape:window-y="0"
   inkscape:window-maximized="0"
   inkscape:current-layer="svg180" />
	<style
   type="text/css"
   id="style2">
	<![CDATA[
		.st1 {fill:url(#grad0-10);stroke:none;stroke-linecap:butt;stroke-width:33.9999}
		.st2 {fill:#003067;stroke:none;stroke-linecap:butt;stroke-width:35.9595}
		.st3 {fill:#50e6ff;stroke:none;stroke-linecap:butt;stroke-width:35.9595}
		.st4 {fill:url(#grad0-48);stroke:none;stroke-linecap:butt;stroke-width:35.9595}
		.st5 {fill:none;fill-rule:evenodd;font-size:12px;overflow:visible;stroke-linecap:square;stroke-miterlimit:3}
	]]>
	</style>

	<defs
   id="Patterns_And_Gradients">
		<linearGradient
   id="grad0-10"
   x1="0"
   y1="0"
   x2="1"
   y2="0"
   gradientTransform="rotate(-90,0.5,0.5)">
			<stop
   offset="0"
   stop-color="#0879e2"
   stop-opacity="1"
   id="stop4" />
			<stop
   offset="0.325"
   stop-color="#0a7de4"
   stop-opacity="1"
   id="stop6" />
			<stop
   offset="0.62"
   stop-color="#1088eb"
   stop-opacity="1"
   id="stop8" />
			<stop
   offset="0.91"
   stop-color="#199af6"
   stop-opacity="1"
   id="stop10" />
			<stop
   offset="1"
   stop-color="#1da2fa"
   stop-opacity="1"
   id="stop12" />
		</linearGradient>
		<linearGradient
   id="grad0-48"
   x1="-0.00021871152"
   y1="56.148272"
   x2="39.65286"
   y2="56.148272"
   gradientTransform="scale(0.77371468,1.2924661)"
   gradientUnits="userSpaceOnUse">
			<stop
   offset="0"
   stop-color="#949494"
   stop-opacity="1"
   id="stop15" />
			<stop
   offset="0.53"
   stop-color="#a2a2a2"
   stop-opacity="1"
   id="stop17" />
			<stop
   offset="1"
   stop-color="#b3b3b3"
   stop-opacity="1"
   id="stop19" />
		</linearGradient>
	<linearGradient
   inkscape:collect="always"
   xlink:href="#grad0-10"
   id="linearGradient4694"
   gradientTransform="scale(0.78651484,1.2714318)"
   x1="-0.00030278271"
   y1="66.019758"
   x2="31.366223"
   y2="66.019758"
   gradientUnits="userSpaceOnUse" /><linearGradient
   inkscape:collect="always"
   xlink:href="#grad0-10"
   id="linearGradient4696"
   gradientTransform="scale(0.78651484,1.2714318)"
   x1="-0.00030278271"
   y1="66.019758"
   x2="31.366223"
   y2="66.019758"
   gradientUnits="userSpaceOnUse" /></defs>
	<g
   id="g178"
   transform="translate(-33.999762,-34.000621)">
		<title
   id="title23">Page-1</title>
		<g
   id="group15036-1"
   transform="translate(34,-35.9595)">
			<title
   id="title25">Server Cluster.15036</title>
			<g
   id="group15037-2">
				<title
   id="title27">Page-1</title>
				<g
   id="group15038-3">
					<title
   id="title29">Sheet.15038</title>
					<g
   id="group15039-4"
   transform="translate(32.0187,-13.9796)">
						<title
   id="title31">Sheet.15039</title>
						<g
   id="group15040-5">
							<title
   id="title33">path4-5</title>
							<g
   id="group15041-6">
								<title
   id="title35">Sheet.15041</title>
								<g
   id="shape15042-7">
									<title
   id="title37">Sheet.15042</title>
									<path
   d="m 24.67,122.46 a 1.45703,1.38351 0 0 1 -1.44,1.36 H 1.44 A 1.43191,1.35965 0 0 1 0,122.46 V 85.3 a 1.40678,1.3358 0 0 1 1.44,-1.36 h 21.79 a 1.43191,1.35965 0 0 1 1.44,1.36 z"
   class="st1"
   id="path39"
   inkscape:connector-curvature="0"
   style="fill:url(#linearGradient4694);stroke:none;stroke-width:33.99990082;stroke-linecap:butt" />
								</g>
							</g>
						</g>
						<g
   id="group15043-11"
   transform="translate(3.19968,-23.8019)">
							<title
   id="title44">path6-7</title>
							<g
   id="group15044-12">
								<title
   id="title46">Sheet.15044</title>
								<g
   id="shape15045-13">
									<title
   id="title48">Sheet.15045</title>
									<path
   d="m 0,121.26 a 2.68797,2.55233 0 0 1 2.66,-2.52 h 12.32 a 2.68797,2.55233 0 0 1 2.76,2.52 2.68797,2.55233 0 0 1 -2.76,2.56 H 2.66 A 2.68797,2.55233 0 0 1 0,121.26 Z m 0,-7.53 a 2.68797,2.55233 0 0 1 2.66,-2.56 h 12.32 a 2.68797,2.55233 0 0 1 2.76,2.56 2.68797,2.55233 0 0 1 -2.76,2.52 H 2.66 A 2.68797,2.55233 0 0 1 0,113.73 Z"
   class="st2"
   id="path50"
   inkscape:connector-curvature="0"
   style="fill:#003067;stroke:none;stroke-width:35.95949936;stroke-linecap:butt" />
								</g>
							</g>
						</g>
						<g
   id="group15046-15"
   transform="translate(4.17711,-32.1509)">
							<title
   id="title55">circle10-2</title>
							<g
   id="group15047-16">
								<title
   id="title57">Sheet.15047</title>
								<g
   id="shape15048-17">
									<title
   id="title59">Sheet.15048</title>
									<ellipse
   cx="1.80872"
   cy="122.1"
   rx="1.80872"
   ry="1.71746"
   class="st3"
   id="ellipse61"
   style="fill:#50e6ff;stroke:none;stroke-width:35.95949936;stroke-linecap:butt" />
								</g>
							</g>
						</g>
						<g
   id="group15049-19"
   transform="translate(4.17711,-24.5085)">
							<title
   id="title66">circle10-2.416</title>
							<g
   id="group15050-20">
								<title
   id="title68">Sheet.15050</title>
								<g
   id="shape15051-21">
									<title
   id="title70">Sheet.15051</title>
									<ellipse
   cx="1.80872"
   cy="122.1"
   rx="1.80872"
   ry="1.71746"
   class="st3"
   id="ellipse72"
   style="fill:#50e6ff;stroke:none;stroke-width:35.95949936;stroke-linecap:butt" />
								</g>
							</g>
						</g>
					</g>
					<g
   id="group15052-23"
   transform="translate(0,-13.9796)">
						<title
   id="title78">Sheet.15052</title>
						<g
   id="group15053-24">
							<title
   id="title80">path4-5</title>
							<g
   id="group15054-25">
								<title
   id="title82">Sheet.15054</title>
								<g
   id="shape15055-26">
									<title
   id="title84">Sheet.15055</title>
									<path
   d="m 24.67,122.46 a 1.45703,1.38351 0 0 1 -1.44,1.36 H 1.44 A 1.43191,1.35965 0 0 1 0,122.46 V 85.3 a 1.40678,1.3358 0 0 1 1.44,-1.36 h 21.79 a 1.43191,1.35965 0 0 1 1.44,1.36 z"
   class="st1"
   id="path86"
   inkscape:connector-curvature="0"
   style="fill:url(#linearGradient4696);stroke:none;stroke-width:33.99990082;stroke-linecap:butt" />
								</g>
							</g>
						</g>
						<g
   id="group15056-29"
   transform="translate(3.19968,-23.8019)">
							<title
   id="title91">path6-7</title>
							<g
   id="group15057-30">
								<title
   id="title93">Sheet.15057</title>
								<g
   id="shape15058-31">
									<title
   id="title95">Sheet.15058</title>
									<path
   d="m 0,121.26 a 2.68797,2.55233 0 0 1 2.66,-2.52 h 12.32 a 2.68797,2.55233 0 0 1 2.76,2.52 2.68797,2.55233 0 0 1 -2.76,2.56 H 2.66 A 2.68797,2.55233 0 0 1 0,121.26 Z m 0,-7.53 a 2.68797,2.55233 0 0 1 2.66,-2.56 h 12.32 a 2.68797,2.55233 0 0 1 2.76,2.56 2.68797,2.55233 0 0 1 -2.76,2.52 H 2.66 A 2.68797,2.55233 0 0 1 0,113.73 Z"
   class="st2"
   id="path97"
   inkscape:connector-curvature="0"
   style="fill:#003067;stroke:none;stroke-width:35.95949936;stroke-linecap:butt" />
								</g>
							</g>
						</g>
						<g
   id="group15059-33"
   transform="translate(4.17711,-32.1509)">
							<title
   id="title102">circle10-2</title>
							<g
   id="group15060-34">
								<title
   id="title104">Sheet.15060</title>
								<g
   id="shape15061-35">
									<title
   id="title106">Sheet.15061</title>
									<ellipse
   cx="1.80872"
   cy="122.1"
   rx="1.80872"
   ry="1.71746"
   class="st3"
   id="ellipse108"
   style="fill:#50e6ff;stroke:none;stroke-width:35.95949936;stroke-linecap:butt" />
								</g>
							</g>
						</g>
						<g
   id="group15062-37"
   transform="translate(4.17711,-24.5085)">
							<title
   id="title113">circle10-2.416</title>
							<g
   id="group15063-38">
								<title
   id="title115">Sheet.15063</title>
								<g
   id="shape15064-39">
									<title
   id="title117">Sheet.15064</title>
									<ellipse
   cx="1.80872"
   cy="122.1"
   rx="1.80872"
   ry="1.71746"
   class="st3"
   id="ellipse119"
   style="fill:#50e6ff;stroke:none;stroke-width:35.95949936;stroke-linecap:butt" />
								</g>
							</g>
						</g>
					</g>
					<g
   id="group15065-41"
   transform="translate(13.7923)">
						<title
   id="title125">Sheet.15065</title>
						<g
   id="group15066-42">
							<title
   id="title127">Icon-databases-136.149</title>
							<g
   id="group15067-43">
								<title
   id="title129">path4-5</title>
								<g
   id="group15068-44">
									<title
   id="title131">Sheet.15068</title>
									<g
   id="shape15069-45">
										<title
   id="title133">Sheet.15069</title>
										<path
   d="m 30.68,122.07 a 1.81215,1.7777 -180 0 1 -1.77,1.75 H 1.78 A 1.78091,1.74704 -180 0 1 0,122.07 V 74.31 a 1.74966,1.71639 -180 0 1 1.78,-1.74 h 27.13 a 1.78091,1.74704 -180 0 1 1.77,1.74 z"
   class="st4"
   id="path135"
   inkscape:connector-curvature="0"
   style="fill:url(#grad0-48);stroke:none;stroke-width:35.95949936;stroke-linecap:butt" />
									</g>
								</g>
							</g>
							<g
   id="group15070-49"
   transform="translate(4.49913,-30.0062)">
								<title
   id="title140">path6-7</title>
								<g
   id="group15071-50">
									<title
   id="title142">Sheet.15071</title>
									<g
   id="shape15072-51">
										<title
   id="title144">Sheet.15072</title>
										<path
   d="m 0,120.55 a 3.3431,3.27954 -180 0 1 3.31,-3.27 h 15.31 a 3.3431,3.27954 -180 0 1 3.43,3.27 3.3431,3.27954 -180 0 1 -3.43,3.27 H 3.31 A 3.3431,3.27954 -180 0 1 0,120.55 Z m 0,-9.7 a 3.3431,3.27954 -180 0 1 3.31,-3.27 h 15.31 a 3.3431,3.27954 -180 0 1 3.43,3.27 3.3431,3.27954 -180 0 1 -3.43,3.25 H 3.31 A 3.3431,3.27954 -180 0 1 0,110.85 Z"
   class="st2"
   id="path146"
   inkscape:connector-curvature="0"
   style="fill:#003067;stroke:none;stroke-width:35.95949936;stroke-linecap:butt" />
									</g>
								</g>
							</g>
							<g
   id="group15073-53"
   transform="translate(5.74889,-40.7646)">
								<title
   id="title151">circle8-5</title>
								<g
   id="group15074-54">
									<title
   id="title153">Sheet.15074</title>
									<g
   id="shape15075-55">
										<title
   id="title155">Sheet.15075</title>
										<ellipse
   cx="2.2495601"
   cy="121.611"
   rx="2.2495601"
   ry="2.20679"
   class="st3"
   id="ellipse157"
   style="fill:#50e6ff;stroke:none;stroke-width:35.95949936;stroke-linecap:butt" />
									</g>
								</g>
							</g>
							<g
   id="group15076-57"
   transform="translate(5.74889,-31.0793)">
								<title
   id="title162">circle10-2</title>
								<g
   id="group15077-58">
									<title
   id="title164">Sheet.15077</title>
									<g
   id="shape15078-59">
										<title
   id="title166">Sheet.15078</title>
										<ellipse
   cx="2.2495601"
   cy="121.611"
   rx="2.2495601"
   ry="2.20679"
   class="st3"
   id="ellipse168"
   style="fill:#50e6ff;stroke:none;stroke-width:35.95949936;stroke-linecap:butt" />
									</g>
								</g>
							</g>
						</g>
					</g>
				</g>
			</g>
		</g>
	</g>
</svg>