<?xml version="1.0" encoding="UTF-8" standalone="no"?>
<!DOCTYPE svg PUBLIC "-//W3C//DTD SVG 1.1//EN" "http://www.w3.org/Graphics/SVG/1.1/DTD/svg11.dtd">
<!-- Generated by Microsoft Visio, SVG Export Server Cluster.svg Page-1 -->
<svg xmlns="http://www.w3.org/2000/svg" xmlns:xlink="http://www.w3.org/1999/xlink" xmlns:ev="http://www.w3.org/2001/xml-events"
		width="1.73184in" height="1.71969in" viewBox="0 0 124.693 123.818" xml:space="preserve" color-interpolation-filters="sRGB"
		class="st5">
	<style type="text/css">
	<![CDATA[
		.st1 {fill:url(#grad0-10);stroke:none;stroke-linecap:butt;stroke-width:33.9999}
		.st2 {fill:#003067;stroke:none;stroke-linecap:butt;stroke-width:35.9595}
		.st3 {fill:#50e6ff;stroke:none;stroke-linecap:butt;stroke-width:35.9595}
		.st4 {fill:url(#grad0-48);stroke:none;stroke-linecap:butt;stroke-width:35.9595}
		.st5 {fill:none;fill-rule:evenodd;font-size:12px;overflow:visible;stroke-linecap:square;stroke-miterlimit:3}
	]]>
	</style>

	<defs id="Patterns_And_Gradients">
		<linearGradient id="grad0-10" x1="0" y1="0" x2="1" y2="0" gradientTransform="rotate(-90 0.5 0.5)">
			<stop offset="0" stop-color="#0879e2" stop-opacity="1"/>
			<stop offset="0.325" stop-color="#0a7de4" stop-opacity="1"/>
			<stop offset="0.62" stop-color="#1088eb" stop-opacity="1"/>
			<stop offset="0.91" stop-color="#199af6" stop-opacity="1"/>
			<stop offset="1" stop-color="#1da2fa" stop-opacity="1"/>
		</linearGradient>
		<linearGradient id="grad0-48" x1="0" y1="0" x2="1" y2="0" gradientTransform="rotate(-90 0.5 0.5)">
			<stop offset="0" stop-color="#949494" stop-opacity="1"/>
			<stop offset="0.53" stop-color="#a2a2a2" stop-opacity="1"/>
			<stop offset="1" stop-color="#b3b3b3" stop-opacity="1"/>
		</linearGradient>
	</defs>
	<g>
		<title>Page-1</title>
		<g id="group11420-1" transform="translate(34,-35.9595)">
			<title>Server Cluster.11420</title>
			<g id="group11421-2">
				<title>Page-1</title>
				<g id="group11422-3">
					<title>Sheet.11422</title>
					<g id="group11423-4" transform="translate(32.0187,-13.9796)">
						<title>Sheet.11423</title>
						<g id="group11424-5">
							<title>path4-5</title>
							<g id="group11425-6">
								<title>Sheet.11425</title>
								<g id="shape11426-7">
									<title>Sheet.11426</title>
									<path d="M24.67 122.46 A1.45703 1.38351 0 0 1 23.23 123.82 L1.44 123.82 A1.43191 1.35965 0 0
												 1 0 122.46 L0 85.3 A1.40678 1.3358 0 0 1 1.44 83.94 L23.23 83.94 A1.43191 1.35965
												 0 0 1 24.67 85.3 L24.67 122.46 Z" class="st1"/>
								</g>
							</g>
						</g>
						<g id="group11427-11" transform="translate(3.19968,-23.8019)">
							<title>path6-7</title>
							<g id="group11428-12">
								<title>Sheet.11428</title>
								<g id="shape11429-13">
									<title>Sheet.11429</title>
									<path d="M-0 121.26 A2.68797 2.55233 0 0 1 2.66 118.74 L14.98 118.74 A2.68797 2.55233 0 0 1 17.74
												 121.26 A2.68797 2.55233 0 0 1 14.98 123.82 L2.66 123.82 A2.68797 2.55233 0 0 1 -0
												 121.26 ZM0 113.73 A2.68797 2.55233 0 0 1 2.66 111.17 L14.98 111.17 A2.68797 2.55233
												 0 0 1 17.74 113.73 A2.68797 2.55233 0 0 1 14.98 116.25 L2.66 116.25 A2.68797 2.55233
												 0 0 1 -0 113.73 Z" class="st2"/>
								</g>
							</g>
						</g>
						<g id="group11430-15" transform="translate(4.17711,-32.1509)">
							<title>circle10-2</title>
							<g id="group11431-16">
								<title>Sheet.11431</title>
								<g id="shape11432-17">
									<title>Sheet.11432</title>
									<ellipse cx="1.80872" cy="122.1" rx="1.80872" ry="1.71746" class="st3"/>
								</g>
							</g>
						</g>
						<g id="group11433-19" transform="translate(4.17711,-24.5085)">
							<title>circle10-2.416</title>
							<g id="group11434-20">
								<title>Sheet.11434</title>
								<g id="shape11435-21">
									<title>Sheet.11435</title>
									<ellipse cx="1.80872" cy="122.1" rx="1.80872" ry="1.71746" class="st3"/>
								</g>
							</g>
						</g>
					</g>
					<g id="group11436-23" transform="translate(0,-13.9796)">
						<title>Sheet.11436</title>
						<g id="group11437-24">
							<title>path4-5</title>
							<g id="group11438-25">
								<title>Sheet.11438</title>
								<g id="shape11439-26">
									<title>Sheet.11439</title>
									<path d="M24.67 122.46 A1.45703 1.38351 0 0 1 23.23 123.82 L1.44 123.82 A1.43191 1.35965 0 0
												 1 0 122.46 L0 85.3 A1.40678 1.3358 0 0 1 1.44 83.94 L23.23 83.94 A1.43191 1.35965
												 0 0 1 24.67 85.3 L24.67 122.46 Z" class="st1"/>
								</g>
							</g>
						</g>
						<g id="group11440-29" transform="translate(3.19968,-23.8019)">
							<title>path6-7</title>
							<g id="group11441-30">
								<title>Sheet.11441</title>
								<g id="shape11442-31">
									<title>Sheet.11442</title>
									<path d="M-0 121.26 A2.68797 2.55233 0 0 1 2.66 118.74 L14.98 118.74 A2.68797 2.55233 0 0 1 17.74
												 121.26 A2.68797 2.55233 0 0 1 14.98 123.82 L2.66 123.82 A2.68797 2.55233 0 0 1 -0
												 121.26 ZM0 113.73 A2.68797 2.55233 0 0 1 2.66 111.17 L14.98 111.17 A2.68797 2.55233
												 0 0 1 17.74 113.73 A2.68797 2.55233 0 0 1 14.98 116.25 L2.66 116.25 A2.68797 2.55233
												 0 0 1 -0 113.73 Z" class="st2"/>
								</g>
							</g>
						</g>
						<g id="group11443-33" transform="translate(4.17711,-32.1509)">
							<title>circle10-2</title>
							<g id="group11444-34">
								<title>Sheet.11444</title>
								<g id="shape11445-35">
									<title>Sheet.11445</title>
									<ellipse cx="1.80872" cy="122.1" rx="1.80872" ry="1.71746" class="st3"/>
								</g>
							</g>
						</g>
						<g id="group11446-37" transform="translate(4.17711,-24.5085)">
							<title>circle10-2.416</title>
							<g id="group11447-38">
								<title>Sheet.11447</title>
								<g id="shape11448-39">
									<title>Sheet.11448</title>
									<ellipse cx="1.80872" cy="122.1" rx="1.80872" ry="1.71746" class="st3"/>
								</g>
							</g>
						</g>
					</g>
					<g id="group11449-41" transform="translate(13.7923,-2.55795E-13)">
						<title>Sheet.11449</title>
						<g id="group11450-42">
							<title>Icon-databases-136.149</title>
							<g id="group11451-43">
								<title>path4-5</title>
								<g id="group11452-44">
									<title>Sheet.11452</title>
									<g id="shape11453-45">
										<title>Sheet.11453</title>
										<path d="M30.68 122.07 A1.81215 1.7777 -180 0 1 28.91 123.82 L1.78 123.82 A1.78091 1.74704
													 -180 0 1 -0 122.07 L0 74.31 A1.74966 1.71639 -180 0 1 1.78 72.57 L28.91 72.57
													 A1.78091 1.74704 -180 0 1 30.68 74.31 L30.68 122.07 Z" class="st4"/>
									</g>
								</g>
							</g>
							<g id="group11454-49" transform="translate(4.49913,-30.0062)">
								<title>path6-7</title>
								<g id="group11455-50">
									<title>Sheet.11455</title>
									<g id="shape11456-51">
										<title>Sheet.11456</title>
										<path d="M0 120.55 A3.3431 3.27954 -180 0 1 3.31 117.28 L18.62 117.28 A3.3431 3.27954 -180
													 0 1 22.05 120.55 A3.3431 3.27954 -180 0 1 18.62 123.82 L3.31 123.82 A3.3431
													 3.27954 -180 0 1 0 120.55 ZM0 110.85 A3.3431 3.27954 -180 0 1 3.31 107.58 L18.62
													 107.58 A3.3431 3.27954 -180 0 1 22.05 110.85 A3.3431 3.27954 -180 0 1 18.62
													 114.1 L3.31 114.1 A3.3431 3.27954 -180 0 1 -0 110.85 Z" class="st2"/>
									</g>
								</g>
							</g>
							<g id="group11457-53" transform="translate(5.74889,-40.7646)">
								<title>circle8-5</title>
								<g id="group11458-54">
									<title>Sheet.11458</title>
									<g id="shape11459-55">
										<title>Sheet.11459</title>
										<ellipse cx="2.24956" cy="121.611" rx="2.24956" ry="2.20679" class="st3"/>
									</g>
								</g>
							</g>
							<g id="group11460-57" transform="translate(5.74889,-31.0793)">
								<title>circle10-2</title>
								<g id="group11461-58">
									<title>Sheet.11461</title>
									<g id="shape11462-59">
										<title>Sheet.11462</title>
										<ellipse cx="2.24956" cy="121.611" rx="2.24956" ry="2.20679" class="st3"/>
									</g>
								</g>
							</g>
						</g>
					</g>
				</g>
			</g>
		</g>
	</g>
</svg>
