<?xml version="1.0" encoding="UTF-8" standalone="no"?>
<!DOCTYPE svg PUBLIC "-//W3C//DTD SVG 1.1//EN" "http://www.w3.org/Graphics/SVG/1.1/DTD/svg11.dtd">
<!-- Generated by Microsoft Visio, SVG Export O365 - API Dropbox.svg Page-1 -->
<svg xmlns="http://www.w3.org/2000/svg" xmlns:xlink="http://www.w3.org/1999/xlink" xmlns:ev="http://www.w3.org/2001/xml-events"
		width="0.944882in" height="1.33858in" viewBox="0 0 68.0315 96.378" xml:space="preserve" color-interpolation-filters="sRGB"
		class="st3">
	<style type="text/css">
	<![CDATA[
		.st1 {fill:#007ee5;stroke:none;stroke-width:0.75}
		.st2 {fill:#ffffff;stroke:none;stroke-width:0.75}
		.st3 {fill:none;fill-rule:evenodd;font-size:12px;overflow:visible;stroke-linecap:square;stroke-miterlimit:3}
	]]>
	</style>

	<g>
		<title>Page-1</title>
		<g id="group16423-1" transform="translate(5.66929,-34.0157)">
			<title>O365 - API Dropbox.16423</title>
			<g id="group16424-2">
				<title>Page-1</title>
				<g id="group16425-3">
					<title>Power Automate API: Dropbox</title>
					<g id="group16426-4">
						<title>rect5928</title>
						<g id="shape16427-5">
							<title>Sheet.16427</title>
							<rect x="0" y="39.685" width="56.6929" height="56.6929" class="st1"/>
						</g>
					</g>
					<g id="group16428-7" transform="translate(7.6155,-31.7932)">
						<title>polygon5930</title>
						<g id="shape16429-8">
							<title>Sheet.16429</title>
							<path d="M21.16 88.64 L12.45 81.39 L0 89.49 L8.58 96.38 L21.16 88.64 Z" class="st2"/>
						</g>
					</g>
					<g id="group16430-10" transform="translate(7.6155,-16.804)">
						<title>polygon5932</title>
						<g id="shape16431-11">
							<title>Sheet.16431</title>
							<path d="M8.58 81.39 L0 88.28 L12.45 96.38 L21.16 89.13 L8.58 81.39 Z" class="st2"/>
						</g>
					</g>
					<g id="group16432-13" transform="translate(28.7696,-16.804)">
						<title>polygon5934</title>
						<g id="shape16433-14">
							<title>Sheet.16433</title>
							<path d="M12.58 81.39 L0 89.13 L8.7 96.38 L21.16 88.28 L12.58 81.39 Z" class="st2"/>
						</g>
					</g>
					<g id="group16434-16" transform="translate(28.7696,-31.7932)">
						<title>polygon5936</title>
						<g id="shape16435-17">
							<title>Sheet.16435</title>
							<path d="M12.58 96.38 L21.16 89.49 L8.7 81.39 L0 88.64 L12.58 96.38 Z" class="st2"/>
						</g>
					</g>
					<g id="group16436-19" transform="translate(16.3189,-7.49613)">
						<title>polygon5938</title>
						<g id="shape16437-20">
							<title>Sheet.16437</title>
							<path d="M0 88.89 L12.45 96.38 L24.9 88.89 L24.9 86.23 L21.28 88.64 L12.45 81.39 L3.75 88.64 L0 86.23
										 L0 88.89 Z" class="st2"/>
						</g>
					</g>
				</g>
			</g>
		</g>
	</g>
</svg>
