<?xml version="1.0" encoding="UTF-8" standalone="no"?>
<!DOCTYPE svg PUBLIC "-//W3C//DTD SVG 1.1//EN" "http://www.w3.org/Graphics/SVG/1.1/DTD/svg11.dtd">
<!-- Generated by Microsoft Visio, SVG Export App Gateway Configuration.svg Page-1 -->
<svg xmlns="http://www.w3.org/2000/svg" xmlns:xlink="http://www.w3.org/1999/xlink" xmlns:ev="http://www.w3.org/2001/xml-events"
		width="1.73185in" height="1.61398in" viewBox="0 0 124.693 116.207" xml:space="preserve" color-interpolation-filters="sRGB"
		class="st7">
	<style type="text/css">
	<![CDATA[
		.st1 {fill:#a3a3a3;stroke:none;stroke-linecap:butt;stroke-width:34}
		.st2 {fill:url(#grad0-8);stroke:none;stroke-linecap:butt;stroke-width:34}
		.st3 {fill:#9cebff;stroke:none;stroke-linecap:butt;stroke-width:34}
		.st4 {fill:#005ba1;stroke:none;stroke-linecap:butt;stroke-width:34}
		.st5 {fill:#83b9f9;stroke:none;stroke-linecap:butt;stroke-width:34}
		.st6 {fill:#5ea0ef;stroke:none;stroke-linecap:butt;stroke-width:34}
		.st7 {fill:none;fill-rule:evenodd;font-size:12px;overflow:visible;stroke-linecap:square;stroke-miterlimit:3}
	]]>
	</style>

	<defs id="Patterns_And_Gradients">
		<linearGradient id="grad0-8" x1="0" y1="0" x2="1" y2="0" gradientTransform="rotate(-90 0.5 0.5)">
			<stop offset="0" stop-color="#0078d4" stop-opacity="1"/>
			<stop offset="0.155" stop-color="#1380da" stop-opacity="1"/>
			<stop offset="0.53" stop-color="#3c91e5" stop-opacity="1"/>
			<stop offset="0.82" stop-color="#559cec" stop-opacity="1"/>
			<stop offset="1" stop-color="#5ea0ef" stop-opacity="1"/>
		</linearGradient>
	</defs>
	<g>
		<title>Page-1</title>
		<g id="group13731-1" transform="translate(34,-34.0157)">
			<title>App Gateway Configuration.13731</title>
			<g id="group13732-2">
				<title>MsPortalFx.base.images-78</title>
				<g id="shape13733-3" transform="translate(14.9036,-38.1699)">
					<title>Sheet.13733</title>
					<path d="M27.23 116.21 L24.4 116.21 L24.4 108.95 a0.333488 0.324243 -180 0 0 -0.0867068 1.13687E-13 L2.92 108.95
								 a0.310144 0.301546 -180 0 0 -0.0867068 1.42109E-14 L2.83 116.21 L0 116.21 L0 108.81 A2.82131 2.74309
								 0 0 1 2.92 106.19 L24.31 106.19 A2.82131 2.74309 0 0 1 27.23 108.81 L27.23 116.21 Z" class="st1"/>
				</g>
				<g id="shape13734-5">
					<title>Sheet.13734</title>
					<path d="M0 114.37 A1.89092 1.8385 -180 0 0 1.89 116.21 L54.8 116.21 A1.89092 1.8385 -180 0 0 56.69 114.37 L56.69
								 79.55 A1.89092 1.8385 -180 0 0 54.8 77.71 L1.89 77.71 A1.89092 1.8385 -180 0 0 -0 79.55 L0 114.37
								 Z" class="st2"/>
				</g>
				<g id="shape13735-9" transform="translate(0,-24.4025)">
					<title>Sheet.13735</title>
					<rect x="0" y="111.956" width="56.6929" height="4.25082" class="st3"/>
				</g>
				<g id="shape13736-11" transform="translate(20.3994,-18.5272)">
					<title>Sheet.13736</title>
					<path d="M0 110.33 L16.28 110.33 L16.28 115.3 a0.937101 0.911122 0 0 1 -0.937101 0.911122 L0.94 116.21 a0.937101
								 0.911122 0 0 1 -0.937101 -0.911122 L0.01 110.33 L0 110.33 Z" class="st4"/>
				</g>
				<g id="shape13737-13" transform="translate(0,-3.41428)">
					<title>Sheet.13737</title>
					<path d="M0 101.67 L0 111.38 L15.49 116.21 L18.39 107.4 L0 101.67 Z" class="st5"/>
				</g>
				<g id="shape13738-15" transform="translate(43.4924,-2.75282)">
					<title>Sheet.13738</title>
					<path d="M13.2 100.52 A9.0642 8.81292 -180 1 0 13.2 116.21 L13.2 100.52 Z" class="st6"/>
				</g>
			</g>
		</g>
	</g>
</svg>
