<?xml version="1.0" encoding="UTF-8" standalone="no"?>
<!DOCTYPE svg PUBLIC "-//W3C//DTD SVG 1.1//EN" "http://www.w3.org/Graphics/SVG/1.1/DTD/svg11.dtd">
<!-- Generated by Microsoft Visio, SVG Export Container App.svg Page-1 -->
<svg xmlns="http://www.w3.org/2000/svg" xmlns:xlink="http://www.w3.org/1999/xlink" xmlns:ev="http://www.w3.org/2001/xml-events"
		width="1.73187in" height="1.69269in" viewBox="0 0 124.695 121.874" xml:space="preserve" color-interpolation-filters="sRGB"
		class="st8">
	<style type="text/css">
	<![CDATA[
		.st1 {fill:#32bedd;stroke:none;stroke-linecap:butt;stroke-width:34}
		.st2 {fill:#ffffff;stroke:none;stroke-linecap:butt;stroke-width:34}
		.st3 {fill:#a67af4;stroke:none;stroke-linecap:butt;stroke-width:34}
		.st4 {fill:url(#grad0-12);stroke:none;stroke-linecap:butt;stroke-width:34}
		.st5 {fill:url(#grad0-16);stroke:none;stroke-linecap:butt;stroke-width:34}
		.st6 {fill:#b796f9;fill-opacity:0.5;stroke:none;stroke-linecap:butt;stroke-width:34}
		.st7 {fill:#773adc;stroke:none;stroke-linecap:butt;stroke-width:34}
		.st8 {fill:none;fill-rule:evenodd;font-size:12px;overflow:visible;stroke-linecap:square;stroke-miterlimit:3}
	]]>
	</style>

	<defs id="Patterns_And_Gradients">
		<linearGradient id="grad0-12" x1="0" y1="0" x2="1" y2="0" gradientTransform="rotate(0 0.5 0.5)">
			<stop offset="0" stop-color="#773adc" stop-opacity="1"/>
			<stop offset="1" stop-color="#552f99" stop-opacity="1"/>
		</linearGradient>
		<linearGradient id="grad0-16" x1="0" y1="0" x2="1" y2="0" gradientTransform="rotate(90 0.5 0.5)">
			<stop offset="0" stop-color="#a67af4" stop-opacity="1"/>
			<stop offset="1" stop-color="#773adc" stop-opacity="1"/>
		</linearGradient>
	</defs>
	<g>
		<title>Page-1</title>
		<g id="group13122-1" transform="translate(34.0017,-34.0157)">
			<title>Container App.13122</title>
			<g id="group13123-2">
				<title>Sheet.13123</title>
				<g id="shape13124-3" transform="translate(4.0063,-1.73935)">
					<title>Sheet.13124</title>
					<path d="M49.32 104.63 A26.6079 26.0533 0 0 1 24.28 121.87 A25.6693 25.1343 0 0 1 16.94 120.86 A6.71811 6.57809
								 -180 0 0 17.51 118.3 C17.54 118.3 17.61 118.33 17.64 118.33 A23.3764 22.8891 -180 0 0 24.28 119.25
								 A24.0819 23.58 -180 0 0 45.86 106.05 L45.89 106.02 L49.32 104.63 ZM7.28 112.31 A6.37795 6.24502
								 -180 0 0 5.26 114.04 A27.0866 26.5221 0 0 1 -0 106.52 L3.28 107.23 L3.28 108.03 A1.88976 1.85038
								 -180 0 0 4.76 109.85 L5.2 109.94 A19.326 18.9232 -180 0 0 7.15 112.19 L7.28 112.31 ZM34.9 71.88
								 A7.1811 7.03143 -180 0 0 34.05 74.38 C33.98 74.35 33.89 74.32 33.83 74.29 A23.5559 23.0649 -180
								 0 0 24.28 72.35 A24.0724 23.5707 -180 0 0 5.7 80.98 L4.79 81.17 A1.88976 1.85038 -180 0 0 3.28 82.95
								 L3.28 84.37 L0.06 84.96 A26.6268 26.0718 0 0 1 24.28 69.76 A27.0866 26.5221 0 0 1 34.9 71.88 ZM49.13
								 86.51 L45.7 85.34 A20.7874 20.3541 -180 0 0 43.43 81.76 C43.37 81.67 43.31 81.6 43.28 81.54 A6.56063
								 6.42389 -180 0 0 45.54 80.15 A24.5984 24.0857 0 0 1 49.13 86.51 Z" class="st1"/>
				</g>
				<g id="shape13125-5" transform="translate(26.6835,-11.1701)">
					<title>Sheet.13125</title>
					<path d="M5.04 115.08 L13.04 116.81 L0.63 121.84 C0.57 121.84 0.54 121.87 0.47 121.87 a0.485039 0.47493 0 0 1
								 -0.472441 -0.462594 L0 88.99 a0.485039 0.47493 0 0 1 0.472441 -0.462594 a0.283465 0.277556 0 0 1
								 0.15748 0.0308396 L14.68 93.37 L5.07 95.13 A1.77953 1.74244 -180 0 0 3.69 96.8 L3.69 113.45 A1.69134
								 1.65609 -180 0 0 5.04 115.08 Z" class="st2"/>
				</g>
				<g id="shape13126-7" transform="translate(1.13409E-13,-17.7143)">
					<title>Sheet.13126</title>
					<path d="M3.46 102.38 L7.28 101.67 L7.28 121.87 L3.4 121.04 L0.28 120.36 a0.349606 0.342319 0 0 1 -0.283465 -0.370075
								 L0 103.34 a0.377953 0.370075 0 0 1 0.283465 -0.370075 L3.46 102.38 Z" class="st3"/>
				</g>
				<g id="shape13127-9" transform="translate(26.6835,-11.1701)">
					<title>Sheet.13127</title>
					<path d="M5.04 115.08 L13.04 116.81 L0.63 121.84 C0.57 121.84 0.54 121.87 0.47 121.87 a0.485039 0.47493 0 0 1
								 -0.472441 -0.462594 L0 88.99 a0.485039 0.47493 0 0 1 0.472441 -0.462594 a0.283465 0.277556 0 0 1
								 0.15748 0.0308396 L14.68 93.37 L5.07 95.13 A1.77953 1.74244 -180 0 0 3.69 96.8 L3.69 113.45 A1.69134
								 1.65609 -180 0 0 5.04 115.08 Z" class="st4"/>
				</g>
				<g id="shape13128-13" transform="translate(8.62362,-11.2009)">
					<title>Sheet.13128</title>
					<path d="M18.42 88.57 L0.44 91.89 a0.55748 0.545861 -180 0 0 -0.440945 0.539693 L0 117.49 a0.55748 0.545861 -180
								 0 0 0.431496 0.536609 L18.4 121.87 a0.554331 0.542777 -180 0 0 0.661417 -0.536609 L19.06 89.12 a0.551181
								 0.539693 -180 0 0 -0.541732 -0.548945 L18.42 88.57 Z" class="st5"/>
				</g>
				<g id="shape13129-17" transform="translate(11.052,-15.1669)">
					<title>Sheet.13129</title>
					<path d="M7.68 97.53 L7.68 120.85 L13.94 121.87 L13.94 96.43 L7.68 97.53 ZM0 98.79 L0 119.22 L5.45 120.34 L5.45
								 97.87 L0 98.79 Z" class="st6"/>
				</g>
				<g id="shape13130-19" transform="translate(40.9576,-44.5572)">
					<title>Sheet.13130</title>
					<path d="M9.44 118.06 A5.52756 5.41235 0 1 1 3.89 112.63 A5.53071 5.41543 0 0 1 9.44 118.06 Z" class="st1"/>
				</g>
				<g id="shape13131-21" transform="translate(9.10551,1.42109E-14)">
					<title>Sheet.13131</title>
					<ellipse cx="5.54016" cy="116.449" rx="5.54016" ry="5.42468" class="st1"/>
				</g>
				<g id="shape13132-23" transform="translate(43.7228,-16.6952)">
					<title>Sheet.13132</title>
					<path d="M12.97 104.51 L12.97 116.37 a0.699213 0.684639 0 0 1 -0.418898 0.616792 L10.14 117.96 L0.47 121.87 L0.43
								 121.87 a0.39685 0.388579 0 0 1 -0.119685 0 a0.314961 0.308396 0 0 1 -0.314961 -0.308396 L0 100.03
								 a0.314961 0.308396 0 0 1 0.170079 -0.271388 L0.23 99.75 a0.0976378 0.0956027 0 0 1 0.0598425 -1.7053E-13
								 a0.173228 0.169618 0 0 1 0.107087 0.0246717 L0.47 99.78 L9.98 103 L12.5 103.87 a0.670866 0.656883
								 0 0 1 0.472441 0.63838 Z" class="st7"/>
				</g>
				<g id="shape13133-25" transform="translate(31.7039,-16.6657)">
					<title>Sheet.13133</title>
					<path d="M12.26 99.71 L0.29 101.91 a0.371654 0.363907 -180 0 0 -0.292913 0.360823 L0 118.95 a0.371654 0.363907
								 -180 0 0 0.286614 0.357739 L12.26 121.87 a0.362205 0.354655 -180 0 0 0.431496 -0.277556 a0.343307
								 0.336152 -180 0 0 2.30926E-14 -0.0801829 L12.69 100.06 a0.368504 0.360823 -180 0 0 -0.362205 -0.363907
								 a0.258268 0.252885 -180 0 0 -0.0629921 0.00616792 Z" class="st3"/>
				</g>
			</g>
		</g>
	</g>
</svg>
