<?xml version="1.0" encoding="UTF-8" standalone="no"?>
<!DOCTYPE svg PUBLIC "-//W3C//DTD SVG 1.1//EN" "http://www.w3.org/Graphics/SVG/1.1/DTD/svg11.dtd">
<!-- Generated by Microsoft Visio, SVG Export SendGrid Account.svg Page-1 -->
<svg xmlns="http://www.w3.org/2000/svg" xmlns:xlink="http://www.w3.org/1999/xlink" xmlns:ev="http://www.w3.org/2001/xml-events"
		width="0.944882in" height="1.33858in" viewBox="0 0 68.0315 96.378" xml:space="preserve" color-interpolation-filters="sRGB"
		class="st4">
	<style type="text/css">
	<![CDATA[
		.st1 {fill:#005ba1;stroke:none;stroke-linecap:butt;stroke-width:0.75}
		.st2 {fill:#0078d4;stroke:none;stroke-linecap:butt;stroke-width:0.75}
		.st3 {fill:url(#grad0-11);stroke:none;stroke-linecap:butt;stroke-width:0.75}
		.st4 {fill:none;fill-rule:evenodd;font-size:12px;overflow:visible;stroke-linecap:square;stroke-miterlimit:3}
	]]>
	</style>

	<defs id="Patterns_And_Gradients">
		<linearGradient id="grad0-11" x1="0" y1="0" x2="1" y2="0" gradientTransform="rotate(90 0.5 0.5)">
			<stop offset="0" stop-color="#32d4f5" stop-opacity="1"/>
			<stop offset="0.23" stop-color="#31d0f1" stop-opacity="1"/>
			<stop offset="0.46" stop-color="#2cc3e6" stop-opacity="1"/>
			<stop offset="0.7" stop-color="#25afd4" stop-opacity="1"/>
			<stop offset="0.94" stop-color="#1c92ba" stop-opacity="1"/>
			<stop offset="1" stop-color="#198ab3" stop-opacity="1"/>
		</linearGradient>
	</defs>
	<g>
		<title>Page-1</title>
		<g id="group12700-1" transform="translate(5.66929,-34.0157)">
			<title>SendGrid Account.12700</title>
			<g id="shape12701-2">
				<title>Sheet.12701</title>
				<path d="M18.89 77.47 L0 77.47 L0 60.46 A1.93967 1.90088 0 0 1 1.94 58.59 L18.95 58.59 L18.89 77.47 ZM37.81 77.47
							 L18.89 77.47 L18.89 96.38 L35.9 96.38 A1.93967 1.90088 -180 0 0 37.84 94.48 L37.81 77.47 Z"
						class="st1"/>
			</g>
			<g id="shape12702-4">
				<title>Sheet.12702</title>
				<path d="M37.81 77.47 L18.89 77.47 L18.89 58.59 L37.81 58.59 L37.81 77.47 ZM18.89 77.47 L0 77.47 L0 94.48 A1.93967
							 1.90088 -180 0 0 1.94 96.38 L18.95 96.38 L18.89 77.47 Z" class="st2"/>
			</g>
			<g id="shape12703-6" transform="translate(18.8863,-18.9088)">
				<title>Sheet.12703</title>
				<path d="M18.92 77.5 L0 77.5 L0 60.49 A1.93967 1.90088 0 0 1 1.94 58.59 L18.95 58.59 L18.92 77.5 ZM37.81 77.5 L18.92
							 77.5 L18.92 96.38 L36.24 96.38 A1.56535 1.53404 -180 0 0 37.81 94.88 L37.81 77.5 Z" class="st2"/>
			</g>
			<g id="shape12704-8" transform="translate(18.8863,-18.9088)">
				<title>Sheet.12704</title>
				<path d="M37.81 77.5 L18.92 77.5 L18.92 58.59 L36.24 58.59 A1.56535 1.53404 0 0 1 37.81 60.09 L37.81 77.5 ZM18.92
							 77.5 L0 77.5 L0 94.51 A1.93967 1.90088 -180 0 0 1.94 96.38 L18.95 96.38 L18.92 77.5 Z" class="st3"/>
			</g>
		</g>
	</g>
</svg>
