<?xml version="1.0" encoding="UTF-8" standalone="no"?>
<!DOCTYPE svg PUBLIC "-//W3C//DTD SVG 1.1//EN" "http://www.w3.org/Graphics/SVG/1.1/DTD/svg11.dtd">
<!-- Generated by Microsoft Visio, SVG Export Elasticsearch.svg Page-1 -->
<svg xmlns="http://www.w3.org/2000/svg" xmlns:xlink="http://www.w3.org/1999/xlink" xmlns:ev="http://www.w3.org/2001/xml-events"
		width="0.944882in" height="1.33858in" viewBox="0 0 68.0315 96.378" xml:space="preserve" color-interpolation-filters="sRGB"
		class="st8">
	<style type="text/css">
	<![CDATA[
		.st1 {fill:#ffffff;stroke:none;stroke-linecap:butt;stroke-width:2.448}
		.st2 {fill:#f4bd19;stroke:none;stroke-linecap:butt;stroke-width:2.448}
		.st3 {fill:#3cbeb1;stroke:none;stroke-linecap:butt;stroke-width:2.448}
		.st4 {fill:#e9478c;stroke:none;stroke-linecap:butt;stroke-width:2.448}
		.st5 {fill:#2c458f;stroke:none;stroke-linecap:butt;stroke-width:2.448}
		.st6 {fill:#95c63d;stroke:none;stroke-linecap:butt;stroke-width:2.448}
		.st7 {fill:#176655;stroke:none;stroke-linecap:butt;stroke-width:2.448}
		.st8 {fill:none;fill-rule:evenodd;font-size:12px;overflow:visible;stroke-linecap:square;stroke-miterlimit:3}
	]]>
	</style>

	<g>
		<title>Page-1</title>
		<g id="group14309-1" transform="translate(5.66929,-34.0157)">
			<title>Elasticsearch.14309</title>
			<g id="group14310-2">
				<title>Sheet.14310</title>
				<g id="shape14311-3">
					<title>Sheet.14311</title>
					<path d="M56.69 69.38 C56.69 64.59 53.73 60.46 49.33 58.83 A16.6648 16.7332 -180 0 0 49.61 55.76 C49.61 46.89
								 42.44 39.69 33.6 39.69 C28.46 39.69 23.65 42.15 20.64 46.38 C19.16 45.21 17.35 44.61 15.46 44.61
								 C10.78 44.61 6.94 48.42 6.94 53.16 C6.94 54.18 7.13 55.21 7.45 56.14 C3.01 57.67 0 61.94 0 66.68
								 C0 71.47 2.96 75.65 7.4 77.28 C7.22 78.25 7.13 79.28 7.13 80.35 C7.13 89.18 14.3 96.38 23.09 96.38
								 C28.28 96.38 33.04 93.87 36.05 89.69 C37.53 90.85 39.38 91.5 41.28 91.5 C45.96 91.5 49.8 87.69 49.8
								 82.95 C49.8 81.93 49.61 80.9 49.29 79.97 C53.64 78.39 56.69 74.12 56.69 69.38 L56.69 69.38 Z"
							class="st1"/>
				</g>
				<g id="shape14312-5" transform="translate(19.7152,-26.5341)">
					<title>Sheet.14312</title>
					<path d="M2.45 90.57 L15.09 96.38 L27.86 85.13 A14.2445 14.303 -180 0 0 28.14 82.3 C28.14 74.4 21.75 67.99 13.88
								 67.99 C9.16 67.99 4.77 70.31 2.13 74.21 L0 85.27 L2.45 90.57 L2.45 90.57 Z" class="st2"/>
				</g>
				<g id="shape14313-7" transform="translate(8.7932,-1.67289)">
					<title>Sheet.14313</title>
					<path d="M0.28 79.14 C0.09 80.07 0 81.04 0 82.02 C0 89.92 6.43 96.38 14.3 96.38 C19.07 96.38 23.46 94.01 26.15
								 90.1 L28.23 79.04 L25.41 73.65 L12.73 67.85 L0.28 79.14 Z" class="st3"/>
				</g>
				<g id="shape14314-9" transform="translate(8.56175,-38.8486)">
					<title>Sheet.14314</title>
					<path d="M0.42 94.33 L9.07 96.38 L11.01 86.48 C9.81 85.55 8.38 85.09 6.85 85.09 C3.1 85.09 0 88.15 0 91.96 C0
								 92.75 0.14 93.59 0.42 94.33 L0.42 94.33 Z" class="st4"/>
				</g>
				<g id="shape14315-11" transform="translate(1.66606,-20.7255)">
					<title>Sheet.14315</title>
					<path d="M6.57 78.3 C2.68 79.56 0 83.32 0 87.41 C0 91.41 2.45 94.98 6.16 96.38 L18.33 85.32 L16.11 80.53 L6.57
								 78.3 L6.57 78.3 Z" class="st5"/>
				</g>
				<g id="shape14316-13" transform="translate(37.1627,-6.55213)">
					<title>Sheet.14316</title>
					<path d="M0 94.94 C1.2 95.87 2.64 96.38 4.12 96.38 C7.87 96.38 10.97 93.31 10.97 89.5 C10.97 88.66 10.83 87.87
								 10.55 87.13 L1.9 85.09 L0 94.94 Z" class="st6"/>
				</g>
				<g id="shape14317-15" transform="translate(36.376,-17.8908)">
					<title>Sheet.14317</title>
					<path d="M2.55 94.15 L12.08 96.38 C15.97 95.08 18.65 91.36 18.65 87.27 C18.65 83.27 16.2 79.74 12.5 78.3 L0 89.27
								 L2.55 94.15 L2.55 94.15 Z" class="st7"/>
				</g>
			</g>
		</g>
	</g>
</svg>
