<?xml version="1.0" encoding="UTF-8" standalone="no"?>
<!-- Generated by Microsoft Visio, SVG Export SQL Database Dynamic Data Masking.svg Page-1 -->
<svg xmlns:dc="http://purl.org/dc/elements/1.1/" xmlns:cc="http://creativecommons.org/ns#" xmlns:rdf="http://www.w3.org/1999/02/22-rdf-syntax-ns#" xmlns:svg="http://www.w3.org/2000/svg" xmlns="http://www.w3.org/2000/svg" xmlns:sodipodi="http://sodipodi.sourceforge.net/DTD/sodipodi-0.dtd" xmlns:inkscape="http://www.inkscape.org/namespaces/inkscape" width="51.024945" height="56.689702" viewBox="0 0 51.024945 56.689702" xml:space="preserve" class="st8" version="1.1" id="svg59" sodipodi:docname="SQL Database Dynamic Data Masking.svg" style="font-size:12px;overflow:visible;color-interpolation-filters:sRGB;fill:none;fill-rule:evenodd;stroke-linecap:square;stroke-miterlimit:3" inkscape:version="0.92.5 (2060ec1f9f, 2020-04-08)">
  <metadata id="metadata65">
    <rdf:RDF>
      <cc:Work rdf:about="">
        <dc:format>image/svg+xml</dc:format>
        <dc:type rdf:resource="http://purl.org/dc/dcmitype/StillImage" />
      </cc:Work>
    </rdf:RDF>
  </metadata>
  <defs id="defs63" />
  <sodipodi:namedview pagecolor="#ffffff" bordercolor="#666666" borderopacity="1" objecttolerance="10" gridtolerance="10" guidetolerance="10" inkscape:pageopacity="0" inkscape:pageshadow="2" inkscape:window-width="640" inkscape:window-height="480" id="namedview61" showgrid="false" inkscape:zoom="1.4768313" inkscape:cx="34.015239" inkscape:cy="34.544172" inkscape:window-x="0" inkscape:window-y="0" inkscape:window-maximized="0" inkscape:current-layer="svg59" />
	<style type="text/css" id="style2">
	<![CDATA[
		.st1 {fill:#3999c6;stroke:none;stroke-linecap:butt;stroke-width:29.1429}
		.st2 {fill:#5ab4d9;stroke:none;stroke-linecap:butt;stroke-width:29.1429}
		.st3 {fill:#ffffff;stroke:none;stroke-linecap:butt;stroke-width:29.1429}
		.st4 {fill:#bebec0;stroke:none;stroke-linecap:butt;stroke-width:29.1429}
		.st5 {fill:#ffffff;fill-opacity:0.25;stroke:none;stroke-linecap:butt;stroke-width:29.1429}
		.st6 {fill:#b8d433;stroke:none;stroke-linecap:butt;stroke-width:29.1429}
		.st7 {fill:#111111;fill-opacity:0.25;stroke:none;stroke-linecap:butt;stroke-width:29.1429}
		.st8 {fill:none;fill-rule:evenodd;font-size:12px;overflow:visible;stroke-linecap:square;stroke-miterlimit:3}
	]]>
	</style>

	<g id="g57" transform="translate(-29.143605,-29.1446)">
		<title id="title4">Page-1</title>
		<g id="group19931-1" transform="translate(29.1429,-34.0157)">
			<title id="title6">SQL Database Dynamic Data Masking.19931</title>
			<g id="group19932-2">
				<title id="title8">Sheet.19932</title>
				<g id="shape19933-3" transform="translate(0,-4.25197)">
					<title id="title10">Sheet.19933</title>
					<path d="m 0,74.5 v 38.26 c 0,3.97 8.89,7.09 20.07,7.09 V 74.5 Z" class="st1" id="path12" inkscape:connector-curvature="0" style="fill:#3999c6;stroke:none;stroke-width:29.14290047;stroke-linecap:butt" />
				</g>
				<g id="shape19934-5" transform="translate(19.7788,-3.9685)">
					<title id="title15">Sheet.19934</title>
					<path d="m 0,119.85 c 11.47,0 20.35,-3.12 20.35,-7.09 V 74.21 H 0 Z" class="st2" id="path17" inkscape:connector-curvature="0" style="fill:#5ab4d9;stroke:none;stroke-width:29.14290047;stroke-linecap:butt" />
				</g>
				<g id="shape19935-7" transform="translate(0.28665,-42.5197)">
					<title id="title20">Sheet.19935</title>
					<path d="m 40.13,112.76 c 0,3.97 -8.89,7.09 -20.06,7.09 C 8.89,119.85 0,116.73 0,112.76 c 0,-3.96 8.89,-7.08 20.07,-7.08 11.17,0 20.06,3.12 20.06,7.08 z" class="st3" id="path22" inkscape:connector-curvature="0" style="fill:#ffffff;stroke:none;stroke-width:29.14290047;stroke-linecap:butt" />
				</g>
				<g id="shape19936-9" transform="translate(4.29974,-45.0709)">
					<title id="title25">Sheet.19936</title>
					<path d="m 31.82,115.03 c 0,2.55 -7.17,4.82 -16.05,4.82 -8.89,0 -15.77,-2.27 -15.77,-4.82 0,-2.55 7.17,-4.82 16.05,-4.82 8.89,0 15.77,2.27 15.77,4.82 z" class="st4" id="path27" inkscape:connector-curvature="0" style="fill:#bebec0;stroke:none;stroke-width:29.14290047;stroke-linecap:butt" />
				</g>
				<g id="shape19937-11" transform="translate(4.29974,-47.0551)">
					<title id="title30">Sheet.19937</title>
					<path d="m 28.66,119.85 c 2.01,-0.85 3.44,-1.7 3.44,-2.83 0,-2.55 -7.16,-4.82 -16.05,-4.82 -8.88,0 -16.05,2.27 -16.05,4.82 0,1.13 1.15,1.98 3.44,2.83 2.87,-1.13 7.45,-1.98 12.61,-1.98 4.88,0.28 9.46,0.85 12.61,1.98 z" class="st5" id="path32" inkscape:connector-curvature="0" style="fill:#ffffff;fill-opacity:0.25;stroke:none;stroke-width:29.14290047;stroke-linecap:butt" />
				</g>
				<g id="shape19938-13" transform="translate(18.3456)">
					<title id="title35">Sheet.19938</title>
					<path d="m 32.68,94.62 c 0,0 -4.02,-2.26 -16.34,-2.26 C 4.01,92.36 0,94.62 0,94.62 l 13.19,13.04 0.57,11.34 c 0,0 1.15,0.85 2.87,0.85 1.43,0 2.86,-0.85 2.86,-0.85 l 0.58,-11.34 z" class="st4" id="path37" inkscape:connector-curvature="0" style="fill:#bebec0;stroke:none;stroke-width:29.14290047;stroke-linecap:butt" />
				</g>
				<g id="shape19939-15" transform="translate(34.6846)">
					<title id="title40">Sheet.19939</title>
					<path d="m 16.34,94.62 c 0,0 -4.01,-2.26 -16.34,-2.26 v 27.49 c 1.43,0 2.87,-0.85 2.87,-0.85 l 0.57,-11.34 z" class="st5" id="path42" inkscape:connector-curvature="0" style="fill:#ffffff;fill-opacity:0.25;stroke:none;stroke-width:29.14290047;stroke-linecap:butt" />
				</g>
				<g id="shape19940-17" transform="translate(0,-26.0787)">
					<title id="title45">Sheet.19940</title>
					<path d="M 0,106.81 19.49,89.24 c 4.59,0 8.89,0.28 12.9,1.41 L 0,119.85 Z" class="st6" id="path47" inkscape:connector-curvature="0" style="fill:#b8d433;stroke:none;stroke-width:29.14290047;stroke-linecap:butt" />
				</g>
				<g id="shape19941-19" transform="translate(0,-24.9449)">
					<title id="title50">Sheet.19941</title>
					<path d="m 0,119.85 v -1.13 l 32.39,-29.2 0.86,0.28 z" class="st7" id="path52" inkscape:connector-curvature="0" style="fill:#111111;fill-opacity:0.25;stroke:none;stroke-width:29.14290047;stroke-linecap:butt" />
				</g>
			</g>
		</g>
	</g>
</svg>