<?xml version="1.0" encoding="UTF-8" standalone="no"?>
<!-- Generated by Microsoft Visio, SVG Export Stream Analytics Cluster.svg Page-1 -->
<svg xmlns:dc="http://purl.org/dc/elements/1.1/" xmlns:cc="http://creativecommons.org/ns#" xmlns:rdf="http://www.w3.org/1999/02/22-rdf-syntax-ns#" xmlns:svg="http://www.w3.org/2000/svg" xmlns="http://www.w3.org/2000/svg" xmlns:xlink="http://www.w3.org/1999/xlink" xmlns:sodipodi="http://sodipodi.sourceforge.net/DTD/sodipodi-0.dtd" xmlns:inkscape="http://www.inkscape.org/namespaces/inkscape" width="56.68816" height="53.626313" viewBox="0 0 56.68816 53.626313" xml:space="preserve" class="st7" version="1.1" id="svg98" sodipodi:docname="Stream Analytics Cluster.svg" style="font-size:12px;overflow:visible;color-interpolation-filters:sRGB;fill:none;fill-rule:evenodd;stroke-linecap:square;stroke-miterlimit:3" inkscape:version="0.92.5 (2060ec1f9f, 2020-04-08)">
  <metadata id="metadata102">
    <rdf:RDF>
      <cc:Work rdf:about="">
        <dc:format>image/svg+xml</dc:format>
        <dc:type rdf:resource="http://purl.org/dc/dcmitype/StillImage" />
      </cc:Work>
    </rdf:RDF>
  </metadata>
  <sodipodi:namedview pagecolor="#ffffff" bordercolor="#666666" borderopacity="1" objecttolerance="10" gridtolerance="10" guidetolerance="10" inkscape:pageopacity="0" inkscape:pageshadow="2" inkscape:window-width="640" inkscape:window-height="480" id="namedview100" showgrid="false" inkscape:zoom="1.4523234" inkscape:cx="37.795237" inkscape:cy="35.58259" inkscape:window-x="0" inkscape:window-y="0" inkscape:window-maximized="0" inkscape:current-layer="svg98" />
	<style type="text/css" id="style2">
	<![CDATA[
		.st1 {fill:#949494;stroke:none;stroke-linecap:butt;stroke-width:34}
		.st2 {fill:#003067;stroke:none;stroke-linecap:butt;stroke-width:34}
		.st3 {fill:#50e6ff;stroke:none;stroke-linecap:butt;stroke-width:34}
		.st4 {fill:url(#grad0-12);stroke:none;stroke-linecap:butt;stroke-width:34}
		.st5 {fill:url(#grad0-19);stroke:none;stroke-linecap:butt;stroke-width:34}
		.st6 {fill:#32bedd;stroke:none;stroke-linecap:butt;stroke-width:34}
		.st7 {fill:none;fill-rule:evenodd;font-size:12px;overflow:visible;stroke-linecap:square;stroke-miterlimit:3}
	]]>
	</style>

	<defs id="Patterns_And_Gradients">
		<linearGradient id="grad0-12" x1="0" y1="0" x2="1" y2="0" gradientTransform="rotate(-90,0.5,0.5)">
			<stop offset="0" stop-color="#b3b2b3" stop-opacity="1" id="stop4" />
			<stop offset="0.38" stop-color="#afaeaf" stop-opacity="1" id="stop6" />
			<stop offset="0.76" stop-color="#a2a2a2" stop-opacity="1" id="stop8" />
			<stop offset="1" stop-color="#979797" stop-opacity="1" id="stop10" />
		</linearGradient>
		<linearGradient id="grad0-19" x1="4.673538e-16" y1="87.809887" x2="27.993499" y2="87.809887" gradientTransform="scale(0.95022061,1.0523872)" gradientUnits="userSpaceOnUse">
			<stop offset="0" stop-color="#949494" stop-opacity="1" id="stop13" />
			<stop offset="0.33" stop-color="#9b9b9b" stop-opacity="1" id="stop15" />
			<stop offset="0.82" stop-color="#aeafb0" stop-opacity="1" id="stop17" />
			<stop offset="1" stop-color="#b6b8b9" stop-opacity="1" id="stop19" />
		</linearGradient>
	<linearGradient inkscape:collect="always" xlink:href="#grad0-12" id="linearGradient4612" gradientTransform="scale(0.8386242,1.1924292)" x1="0" y1="68.395424" x2="33.61458" y2="68.395424" gradientUnits="userSpaceOnUse" /><linearGradient inkscape:collect="always" xlink:href="#grad0-12" id="linearGradient4614" gradientTransform="scale(1.016001,0.98425098)" x1="0" y1="123.50508" x2="0.31496031" y2="123.50508" gradientUnits="userSpaceOnUse" /></defs>
	<g id="g96" transform="translate(-34.000261,-33.9977)">
		<title id="title23">Page-1</title>
		<g id="group14380-1" transform="translate(34,-34.0157)">
			<title id="title25">Stream Analytics Cluster.14380</title>
			<g id="group14381-2">
				<title id="title27"> Cluster</title>
				<g id="shape14382-3" transform="translate(0,-14.2566)">
					<title id="title29">Sheet.14382</title>
					<path d="m 19.32,120.61 c 0.32,-0.32 0.95,-0.64 1.27,-0.95 0,-0.32 0.31,-0.64 0.31,-0.95 0.64,-0.95 1.59,-1.59 2.54,-1.9 0.31,-0.64 0.63,-0.96 0.95,-1.27 0.63,-0.64 1.58,-0.95 2.53,-1.27 L 26.6,113 l -1.58,-2.85 3.17,-3.17 V 83.54 c 0,-0.63 -0.64,-1.27 -1.59,-1.27 H 1.58 C 0.95,82.27 0,82.91 0,83.54 v 37.07 c 0,0.95 0.95,1.26 1.58,1.26 h 16.79 c 0.32,-0.31 0.63,-0.95 0.95,-1.26 z" class="st1" id="path31" inkscape:connector-curvature="0" style="fill:#949494;stroke:none;stroke-width:34;stroke-linecap:butt" />
				</g>
				<g id="shape14383-5" transform="translate(4.11736,-33.5822)">
					<title id="title34">Sheet.14383</title>
					<path d="m 0,118.71 c 0,-1.59 1.27,-3.17 3.17,-3.17 h 14.25 c 1.58,0 3.17,1.27 3.17,3.17 0,1.58 -1.27,3.16 -3.17,3.16 H 3.17 C 1.58,121.56 0,120.29 0,118.71 Z m 0,-9.19 c 0,-1.59 1.27,-3.17 3.17,-3.17 h 14.25 c 1.58,0 3.17,1.27 3.17,3.17 0,1.58 -1.27,3.17 -3.17,3.17 H 3.17 C 1.58,112.37 0,111.1 0,109.52 Z" class="st2" id="path36" inkscape:connector-curvature="0" style="fill:#003067;stroke:none;stroke-width:34;stroke-linecap:butt" />
				</g>
				<g id="shape14384-7" transform="translate(5.06752,-43.7202)">
					<title id="title39">Sheet.14384</title>
					<ellipse cx="2.2170401" cy="119.656" rx="2.2170401" ry="2.21769" class="st3" id="ellipse41" style="fill:#50e6ff;stroke:none;stroke-width:34;stroke-linecap:butt" />
				</g>
				<g id="shape14385-9" transform="translate(10.4518)">
					<title id="title44">Sheet.14385</title>
					<path d="m 14.89,116.81 c -2.22,-0.64 -4.12,-1.91 -5.71,-3.49 -1.9,-1.9 -1.9,-4.75 0,-6.97 0.32,-0.32 0.96,-0.63 1.27,-0.95 0,-0.32 0.32,-0.63 0.32,-0.95 0.63,-0.95 1.58,-1.58 2.53,-1.9 0.32,-0.64 0.64,-0.95 0.95,-1.27 0.64,-0.63 1.59,-0.95 2.54,-1.27 l -0.64,-1.26 -1.58,-2.85 6.65,-6.34 4.43,2.22 0.64,-1.9 1.9,-1.91 v -5.06 c 0,-0.95 -0.95,-1.59 -1.59,-1.27 H 1.58 C 0.63,81.64 0,82.27 0,83.22 v 37.07 c 0,0.95 0.95,1.58 1.58,1.27 h 18.06 z" class="st4" id="path46" inkscape:connector-curvature="0" style="fill:url(#linearGradient4612);stroke:none;stroke-width:34;stroke-linecap:butt" />
				</g>
				<g id="shape14386-13" transform="translate(35.7894,-0.316813)">
					<title id="title49">Sheet.14386</title>
					<path d="m 0.32,121.87 v -0.31 L 0,121.87 Z" class="st4" id="path51" inkscape:connector-curvature="0" style="fill:url(#linearGradient4614);stroke:none;stroke-width:34;stroke-linecap:butt" />
				</g>
				<g id="shape14387-16" transform="translate(30.0884,-0.316813)">
					<title id="title54">Sheet.14387</title>
					<path d="m 26.6,108.25 v -3.48 l -0.31,-0.32 -3.49,-1.27 -0.95,-2.22 1.9,-3.48 0.32,-0.32 -1.27,-1.26 -1.26,-1.27 -0.32,0.31 -3.48,1.91 -2.22,-0.64 -1.58,-3.8 h -3.49 l -0.31,0.32 -1.27,3.48 -2.54,0.95 -4.11,-1.9 -2.22,1.9 0.32,0.32 1.9,3.48 c 1.9,-1.26 4.11,-1.58 6.01,-1.58 2.54,0 4.76,0.63 6.97,2.22 0.32,0 0.32,0.31 0.64,0.63 0.95,0.64 1.58,1.59 1.9,2.54 0.31,0.63 0.31,1.26 0.31,2.21 0,3.49 -2.85,6.34 -6.33,6.34 -1.27,0 -2.54,-0.32 -3.49,-1.27 -2.21,1.9 -4.75,3.17 -7.6,3.49 l -0.31,0.63 2.53,2.54 h 0.63 l 3.49,-1.9 2.53,0.95 1.59,4.11 h 3.48 v -0.63 l 1.27,-3.8 2.21,-0.95 4.12,1.9 2.53,-2.54 -0.31,-0.31 -1.9,-3.49 0.63,-2.53 z" class="st5" id="path56" inkscape:connector-curvature="0" style="fill:url(#grad0-19);stroke:none;stroke-width:34;stroke-linecap:butt" />
				</g>
				<g id="shape14388-20" transform="translate(24.0707,-12.0389)">
					<title id="title59">Sheet.14388</title>
					<path d="m 5.7,121.87 c -1.9,0 -3.48,-0.63 -5.07,-1.9 -0.31,-0.31 -0.63,-0.63 -0.31,-1.26 0.31,-0.64 0.95,-0.64 1.26,-0.32 l 0.32,0.32 c 0.95,0.95 2.22,1.58 3.8,1.26 1.27,0 2.53,-0.31 3.48,-1.26 1.27,-1.27 3.17,-1.9 5.07,-1.9 1.9,0 3.49,0.63 5.07,1.9 0.32,0.31 0.32,0.95 0,1.26 -0.32,0.32 -0.95,0.32 -1.27,0 -0.95,-0.95 -2.21,-1.58 -3.8,-1.58 -1.26,0 -2.53,0.63 -3.48,1.58 -1.59,1.27 -3.17,1.9 -5.07,1.9 z" class="st3" id="path61" inkscape:connector-curvature="0" style="fill:#50e6ff;stroke:none;stroke-width:34;stroke-linecap:butt" />
				</g>
				<g id="shape14389-22" transform="translate(26.9212,-15.5239)">
					<title id="title64">Sheet.14389</title>
					<path d="m 2.85,121.87 c -0.95,0 -1.9,-0.31 -2.53,-0.95 -0.32,-0.31 -0.32,-0.95 0,-1.26 0.31,-0.32 0.95,-0.32 1.26,0 0.32,0.31 0.64,0.63 1.27,0.63 0.32,0 0.95,-0.32 1.27,-0.63 4.11,-4.12 10.77,-4.12 14.88,0 0.32,0.31 0.32,0.95 0,1.26 -0.31,0.32 -0.95,0.32 -1.26,0 -3.49,-3.48 -8.87,-3.48 -12.36,0 -0.95,0.64 -1.58,0.95 -2.53,0.95 z" class="st3" id="path66" inkscape:connector-curvature="0" style="fill:#50e6ff;stroke:none;stroke-width:34;stroke-linecap:butt" />
				</g>
				<g id="shape14390-24" transform="translate(21.8537,-8.55396)">
					<title id="title69">Sheet.14390</title>
					<path d="m 7.92,121.87 c -2.85,0 -5.39,-0.95 -7.6,-3.16 -0.32,-0.32 -0.32,-0.95 0,-1.27 0.31,-0.32 0.95,-0.32 1.26,0 3.49,3.48 8.87,3.48 12.36,0 0.63,-0.63 1.58,-0.95 2.21,-0.95 0.95,0 1.9,0.32 2.54,0.95 0.31,0.32 0.31,0.95 0,1.27 -0.32,0.31 -0.95,0.31 -1.27,0 -0.32,-0.32 -0.63,-0.64 -1.27,-0.64 -0.31,0 -0.95,0.32 -1.26,0.64 -1.59,2.21 -4.12,3.16 -6.97,3.16 z" class="st6" id="path71" inkscape:connector-curvature="0" style="fill:#32bedd;stroke:none;stroke-width:34;stroke-linecap:butt" />
				</g>
				<g id="shape14391-26" transform="translate(13.9357,-20.2761)">
					<title id="title74">Sheet.14391</title>
					<path d="m 17.74,109.84 2.53,1.26 c 0.32,-0.31 0.32,-0.95 0.32,-1.26 0,-1.59 -1.27,-3.17 -3.17,-3.17 H 3.17 c -1.59,0 -3.17,1.26 -3.17,3.17 0,1.9 1.27,3.16 3.17,3.16 h 11.4 z m -6.97,11.4 c 0.63,-0.63 1.58,-0.95 2.53,-1.27 l -0.63,-0.95 -1.58,-2.85 0.31,-0.32 H 3.17 c -1.59,0 -3.17,1.59 -2.85,3.17 0,1.59 1.26,2.85 2.85,2.85 h 6.65 c 0.63,0 0.63,-0.31 0.95,-0.63 z" class="st2" id="path76" inkscape:connector-curvature="0" style="fill:#003067;stroke:none;stroke-width:34;stroke-linecap:butt" />
				</g>
				<g id="shape14392-28" transform="translate(5.06752,-34.5327)">
					<title id="title79">Sheet.14392</title>
					<ellipse cx="2.2170401" cy="119.656" rx="2.2170401" ry="2.21769" class="st3" id="ellipse81" style="fill:#50e6ff;stroke:none;stroke-width:34;stroke-linecap:butt" />
				</g>
				<g id="shape14393-30" transform="translate(15.2026,-30.0973)">
					<title id="title84">Sheet.14393</title>
					<ellipse cx="2.2170401" cy="119.656" rx="2.2170401" ry="2.21769" class="st3" id="ellipse86" style="fill:#50e6ff;stroke:none;stroke-width:34;stroke-linecap:butt" />
				</g>
				<g id="shape14394-32" transform="translate(15.2026,-20.9097)">
					<title id="title89">Sheet.14394</title>
					<ellipse cx="2.2170401" cy="119.656" rx="2.2170401" ry="2.21769" class="st3" id="ellipse91" style="fill:#50e6ff;stroke:none;stroke-width:34;stroke-linecap:butt" />
				</g>
			</g>
		</g>
	</g>
</svg>