<?xml version="1.0" encoding="UTF-8" standalone="no"?>
<!DOCTYPE svg PUBLIC "-//W3C//DTD SVG 1.1//EN" "http://www.w3.org/Graphics/SVG/1.1/DTD/svg11.dtd">
<!-- Generated by Microsoft Visio, SVG Export Cognitive Services Health and Life Science.svg Page-1 -->
<svg xmlns="http://www.w3.org/2000/svg" xmlns:xlink="http://www.w3.org/1999/xlink" xmlns:ev="http://www.w3.org/2001/xml-events"
		width="1.76669in" height="1.42621in" viewBox="0 0 127.202 102.687" xml:space="preserve" color-interpolation-filters="sRGB"
		class="st6">
	<style type="text/css">
	<![CDATA[
		.st1 {fill:#0078d4;stroke:none;stroke-linecap:butt;stroke-width:6.30928}
		.st2 {fill:#50e6ff;stroke:none;stroke-linecap:butt;stroke-width:6.30928}
		.st3 {visibility:visible}
		.st4 {fill:#000000;font-family:Calibri;font-size:0.666664em}
		.st5 {font-size:1em}
		.st6 {fill:none;fill-rule:evenodd;font-size:12px;overflow:visible;stroke-linecap:square;stroke-miterlimit:3}
	]]>
	</style>

	<g>
		<title>Page-1</title>
		<g id="group4944-1" transform="translate(32.933,-39.685)">
			<title>Cognitive Services Health and Life Science.4944</title>
			<desc>Cognitive Services Health and Life Science</desc>
			<g id="shape4945-2">
				<title>Sheet.4945</title>
				<path d="M28.35 45.99 C12.69 45.99 0 58.69 0 74.34 C0 90 12.69 102.69 28.35 102.69 C44 102.69 56.69 90 56.69 74.34
							 C56.69 58.69 44 45.99 28.35 45.99 ZM28.35 46.44 C43.73 46.44 56.25 58.95 56.25 74.34 C56.25 89.73 43.73
							 102.24 28.35 102.24 C12.96 102.24 0.44 89.73 0.44 74.34 C0.44 58.95 12.96 46.44 28.35 46.44 Z"
						class="st1"/>
			</g>
			<g id="shape4946-4" transform="translate(6.64368,-6.6437)">
				<title>Sheet.4946</title>
				<path d="M21.7 59.28 C9.72 59.28 0 69 0 80.98 C0 92.97 9.72 102.69 21.7 102.69 C33.69 102.69 43.41 92.97 43.41 80.98
							 C43.41 69 33.69 59.28 21.7 59.28 ZM21.7 59.72 C33.43 59.72 42.96 69.26 42.96 80.98 C42.96 92.71 33.43
							 102.25 21.7 102.25 C9.98 102.25 0.44 92.71 0.44 80.98 C0.44 69.26 9.98 59.72 21.7 59.72 Z" class="st1"/>
			</g>
			<g id="shape4947-6" transform="translate(12.8445,-12.8445)">
				<title>Sheet.4947</title>
				<path d="M15.28 72.13 C6.84 72.13 0 78.97 0 87.41 C0 95.85 6.84 102.69 15.28 102.69 C23.72 102.69 30.56 95.85 30.56
							 87.41 C30.56 78.97 23.72 72.13 15.28 72.13 ZM15.28 72.57 C23.46 72.57 30.12 79.23 30.12 87.41 C30.12
							 95.59 23.46 102.24 15.28 102.24 C7.1 102.24 0.44 95.59 0.44 87.41 C0.44 79.23 7.1 72.57 15.28 72.57
							 Z" class="st1"/>
			</g>
			<g id="shape4948-8" transform="translate(23.0315,-23.0315)">
				<title>Sheet.4948</title>
				<path d="M10.63 97.37 C10.63 100.31 8.25 102.69 5.31 102.69 C2.38 102.69 0 100.31 0 97.37 C0 94.44 2.38 92.06 5.31
							 92.06 C8.25 92.06 10.63 94.44 10.63 97.37 Z" class="st1"/>
			</g>
			<g id="shape4949-10" transform="translate(38.0905,-17.7165)">
				<title>Sheet.4949</title>
				<path d="M5.31 100.03 C5.31 101.5 4.12 102.69 2.66 102.69 C1.19 102.69 0 101.5 0 100.03 C0 98.56 1.19 97.37 2.66
							 97.37 C4.12 97.37 5.31 98.56 5.31 100.03 Z" class="st1"/>
			</g>
			<g id="shape4950-12" transform="translate(10.6299,-24.8031)">
				<title>Sheet.4950</title>
				<path d="M5.31 100.03 C5.31 101.5 4.12 102.69 2.66 102.69 C1.19 102.69 0 101.5 0 100.03 C0 98.56 1.19 97.37 2.66
							 97.37 C4.12 97.37 5.31 98.56 5.31 100.03 Z" class="st1"/>
			</g>
			<g id="shape4951-14" transform="translate(30.1181,-46.063)">
				<title>Sheet.4951</title>
				<path d="M5.31 100.03 C5.31 101.5 4.12 102.69 2.66 102.69 C1.19 102.69 0 101.5 0 100.03 C0 98.56 1.19 97.37 2.66
							 97.37 C4.12 97.37 5.31 98.56 5.31 100.03 Z" class="st2"/>
			</g>
			<g id="shape4952-16" transform="translate(40.748,-1.77165)">
				<title>Sheet.4952</title>
				<path d="M5.31 100.03 C5.31 101.5 4.12 102.69 2.66 102.69 C1.19 102.69 0 101.5 0 100.03 C0 98.56 1.19 97.37 2.66
							 97.37 C4.12 97.37 5.31 98.56 5.31 100.03 Z" class="st1"/>
			</g>
			<g id="shape4953-18" transform="translate(3.54331,-8.85827)">
				<title>Sheet.4953</title>
				<path d="M5.31 100.03 C5.31 101.5 4.12 102.69 2.66 102.69 C1.19 102.69 0 101.5 0 100.03 C0 98.56 1.19 97.37 2.66
							 97.37 C4.12 97.37 5.31 98.56 5.31 100.03 Z" class="st2"/>
			</g>
			<g id="shape4954-20" transform="translate(47.8346,-42.5197)">
				<title>Sheet.4954</title>
				<path d="M5.31 100.03 C5.31 101.5 4.12 102.69 2.66 102.69 C1.19 102.69 0 101.5 0 100.03 C0 98.56 1.19 97.37 2.66
							 97.37 C4.12 97.37 5.31 98.56 5.31 100.03 Z" class="st1"/>
			</g>
			<g id="shape4944-22">
				<g id="shadow4944-23" transform="matrix(1,0,0,1,1.41732,1.41732)" class="st3"/>
				<text x="-26.35" y="118.39" class="st4">Cognitive Services Health and Life <tspan x="16.13" dy="1.2em" class="st5">Science</tspan></text>			</g>
		</g>
	</g>
</svg>
