<?xml version="1.0" encoding="UTF-8" standalone="no"?>
<!DOCTYPE svg PUBLIC "-//W3C//DTD SVG 1.1//EN" "http://www.w3.org/Graphics/SVG/1.1/DTD/svg11.dtd">
<!-- Generated by Microsoft Visio, SVG Export Cognitive Services Personaliser.svg Page-1 -->
<svg xmlns="http://www.w3.org/2000/svg" xmlns:xlink="http://www.w3.org/1999/xlink" xmlns:ev="http://www.w3.org/2001/xml-events"
		width="1.61468in" height="1.47793in" viewBox="0 0 116.257 106.411" xml:space="preserve" color-interpolation-filters="sRGB"
		class="st4">
	<style type="text/css">
	<![CDATA[
		.st1 {fill:#0078d4;stroke:none;stroke-linecap:butt;stroke-width:10.0328}
		.st2 {visibility:visible}
		.st3 {fill:#000000;font-family:Calibri;font-size:0.666664em}
		.st4 {fill:none;fill-rule:evenodd;font-size:12px;overflow:visible;stroke-linecap:square;stroke-miterlimit:3}
	]]>
	</style>

	<g>
		<title>Page-1</title>
		<g id="group4886-1" transform="translate(28.3648,-39.685)">
			<title>Cognitive Services Personaliser.4886</title>
			<desc>Cognitive Services Personaliser</desc>
			<g id="shape4887-2">
				<title>Sheet.4887</title>
				<path d="M28.35 49.72 C24.11 49.72 20.09 50.64 16.29 52.38 L17.43 54.82 C20.85 53.19 24.49 52.38 28.29 52.38 C42.41
							 52.38 53.92 63.89 53.92 78.01 C53.92 86.21 50.01 93.54 43.99 98.27 L43.99 92.67 C43.99 89.36 41.27 86.64
							 37.96 86.64 L30.63 86.64 C36.38 85.67 40.78 80.67 40.78 74.64 C40.78 67.91 35.3 62.42 28.56 62.42 C21.83
							 62.42 16.35 67.91 16.35 74.64 C16.35 80.67 20.74 85.67 26.5 86.64 L19.17 86.64 C15.86 86.64 13.14 89.36
							 13.14 92.67 L13.14 98.65 C6.84 93.98 2.72 86.48 2.72 78.06 C2.72 72.09 4.78 66.33 8.58 61.72 L8.58 68.18
							 L11.3 68.18 L11.3 57.32 L0.43 57.32 L0.43 60.04 L6.41 60.04 C2.28 65.14 0 71.44 0 78.06 C0 93.7 12.71
							 106.41 28.35 106.41 C43.99 106.41 56.69 93.7 56.69 78.06 C56.69 62.42 43.93 49.72 28.35 49.72 ZM19.11
							 74.64 C19.11 69.43 23.35 65.14 28.62 65.14 C33.83 65.14 38.12 69.38 38.12 74.64 C38.12 79.86 33.89 84.15
							 28.62 84.15 C23.35 84.09 19.11 79.86 19.11 74.64 ZM8.58 60.04 L8.58 60.2 L8.42 60.04 L8.58 60.04 ZM15.86
							 100.44 L15.86 92.67 C15.86 90.83 17.38 89.36 19.17 89.36 L37.96 89.36 C39.8 89.36 41.27 90.88 41.27
							 92.67 L41.27 100.11 C37.47 102.34 33.02 103.64 28.29 103.64 C23.79 103.64 19.55 102.5 15.86 100.44 Z"
						class="st1"/>
			</g>
			<g id="shape4886-4">
				<g id="shadow4886-5" transform="matrix(1,0,0,1,1.41732,1.41732)" class="st2"/>
				<text x="-21.78" y="122.11" class="st3">Cognitive Services Personaliser</text>			</g>
		</g>
	</g>
</svg>
