<?xml version="1.0" encoding="UTF-8" standalone="no"?>
<!DOCTYPE svg PUBLIC "-//W3C//DTD SVG 1.1//EN" "http://www.w3.org/Graphics/SVG/1.1/DTD/svg11.dtd">
<!-- Generated by Microsoft Visio, SVG Export Cognitive Services.svg Page-1 -->
<svg xmlns="http://www.w3.org/2000/svg" xmlns:xlink="http://www.w3.org/1999/xlink" xmlns:ev="http://www.w3.org/2001/xml-events"
		width="1.73185in" height="1.49573in" viewBox="0 0 124.693 107.692" xml:space="preserve" color-interpolation-filters="sRGB"
		class="st6">
	<style type="text/css">
	<![CDATA[
		.st1 {fill:url(#grad0-6);stroke:none;stroke-linecap:butt;stroke-width:34}
		.st2 {fill:#9cebff;stroke:none;stroke-linecap:butt;stroke-width:34}
		.st3 {fill:#f2f2f2;stroke:none;stroke-linecap:butt;stroke-width:34}
		.st4 {visibility:visible}
		.st5 {fill:#000000;font-family:Calibri;font-size:0.666664em}
		.st6 {fill:none;fill-rule:evenodd;font-size:12px;overflow:visible;stroke-linecap:square;stroke-miterlimit:3}
	]]>
	</style>

	<defs id="Patterns_And_Gradients">
		<linearGradient id="grad0-6" x1="0" y1="0" x2="1" y2="0" gradientTransform="rotate(-90 0.5 0.5)">
			<stop offset="0" stop-color="#0078d4" stop-opacity="1"/>
			<stop offset="0.16" stop-color="#1380da" stop-opacity="1"/>
			<stop offset="0.53" stop-color="#3c91e5" stop-opacity="1"/>
			<stop offset="0.82" stop-color="#559cec" stop-opacity="1"/>
			<stop offset="1" stop-color="#5ea0ef" stop-opacity="1"/>
		</linearGradient>
	</defs>
	<g>
		<title>Page-1</title>
		<g id="group5078-1" transform="translate(34,-34)">
			<title>Cognitive Services.5078</title>
			<desc>Cognitive Services</desc>
			<g id="group5079-2">
				<title>Icon-machinelearning-162</title>
				<g id="shape5080-3">
					<title>Sheet.5080</title>
					<path d="M56.69 95.24 A12.5984 12.4329 -180 0 0 45.64 83.18 A16.063 15.8519 -180 0 0 29.1 68.01 A16.5354 16.3181
								 -180 0 0 13.29 78.51 A15.1181 14.9194 -180 0 0 0 93.03 A15.4331 15.2302 -180 0 0 15.97 107.67 L43.21
								 107.67 A2.45669 2.42441 -180 0 0 43.91 107.67 A12.9134 12.7437 -180 0 0 56.69 95.24 Z" class="st1"/>
				</g>
				<g id="shape5081-7" transform="translate(7.52092,-0.0242297)">
					<title>Sheet.5081</title>
					<path d="M9.55 92.18 L6.78 92.18 A3.43307 3.38795 -180 1 0 6.78 93.71 L9.55 93.71 a0.629921 0.621643 0 0 1 0.629921
								 0.621643 L10.18 107.69 L11.72 107.69 L11.72 94.33 A2.17323 2.14467 -180 0 0 9.55 92.18 ZM3.41 94.92
								 A2.01575 1.98926 0 1 1 5.42 92.93 A2.01575 1.98926 0 0 1 3.41 94.92 Z" class="st2"/>
				</g>
				<g id="shape5082-9" transform="translate(18.8976,-9.05107)">
					<title>Sheet.5082</title>
					<path d="M9.26 101.89 L9.26 98.78 A2.20472 2.17575 -180 0 0 7.06 96.61 L2.17 96.61 a0.629921 0.621643 0 0 1 -0.629921
								 -0.621643 L1.54 79.48 L0.82 79.86 L0 80.29 L0 95.83 A2.17323 2.14467 -180 0 0 2.17 97.98 L7.06 97.98
								 a0.661417 0.652725 0 0 1 0.661417 0.652725 L7.72 101.74 A3.40157 3.35687 -180 0 0 5.04 105.03 A3.43307
								 3.38795 -180 1 0 9.26 101.74 L9.26 101.89 ZM8.47 107.18 A2.01575 1.98926 0 1 1 10.49 105.19 A2.01575
								 1.98926 0 0 1 8.47 107.18 Z" class="st3"/>
				</g>
				<g id="shape5083-11" transform="translate(26.5644,-0.0242297)">
					<title>Sheet.5083</title>
					<path d="M19.2 86.31 A3.43307 3.38795 -180 0 0 18.41 92.99 L18.41 93.61 a0.661417 0.652725 0 0 1 -0.661417 0.652725
								 L11.45 94.26 L11.45 83.32 A2.17323 2.14467 -180 0 0 9.28 81.18 L6.03 81.18 A3.40157 3.35687 -180
								 0 0 2.7 78.54 A3.43307 3.38795 -180 1 0 6.03 82.7 L9.4 82.7 a0.629921 0.621643 0 0 1 0.629921 0.621643
								 L10.03 107.69 L11.58 107.69 L11.58 95.79 L17.88 95.79 A2.20472 2.17575 -180 0 0 20.08 93.61 L20.08
								 92.99 A3.43307 3.38795 -180 0 0 22.76 89.7 A3.43307 3.38795 -180 0 0 19.2 86.31 ZM2.7 83.91 A2.01575
								 1.98926 0 1 1 4.71 81.93 A2.01575 1.98926 0 0 1 2.7 83.91 ZM19.2 91.69 A2.01575 1.98926 0 1 1 21.18
								 89.7 A2.01575 1.98926 0 0 1 19.2 91.69 Z" class="st2"/>
				</g>
			</g>
			<g id="shape5078-13">
				<g id="shadow5078-14" transform="matrix(1,0,0,1,1.41732,1.41732)" class="st4"/>
				<text x="-0.95" y="120.84" class="st5">Cognitive Services</text>			</g>
		</g>
	</g>
</svg>
