<?xml version="1.0" encoding="UTF-8" standalone="no"?>
<!DOCTYPE svg PUBLIC "-//W3C//DTD SVG 1.1//EN" "http://www.w3.org/Graphics/SVG/1.1/DTD/svg11.dtd">
<!-- Generated by Microsoft Visio, SVG Export 1ES.svg Page-1 -->
<svg xmlns="http://www.w3.org/2000/svg" xmlns:xlink="http://www.w3.org/1999/xlink" xmlns:ev="http://www.w3.org/2001/xml-events"
		width="0.944882in" height="1.33858in" viewBox="0 0 68.0315 96.378" xml:space="preserve" color-interpolation-filters="sRGB"
		class="st6">
	<style type="text/css">
	<![CDATA[
		.st1 {fill:#971400;stroke:none;stroke-linecap:butt;stroke-width:4.78125}
		.st2 {fill:#d83b01;stroke:none;stroke-linecap:butt;stroke-width:4.78125}
		.st3 {fill:#f08b66;stroke:none;stroke-linecap:butt;stroke-width:4.78125}
		.st4 {fill:#b92701;stroke:none;stroke-linecap:butt;stroke-width:4.78125}
		.st5 {fill:#e56334;stroke:none;stroke-linecap:butt;stroke-width:4.78125}
		.st6 {fill:none;fill-rule:evenodd;font-size:12px;overflow:visible;stroke-linecap:square;stroke-miterlimit:3}
	]]>
	</style>

	<g>
		<title>Page-1</title>
		<g id="group17099-1" transform="translate(5.66929,-34.0157)">
			<title>1ES.17099</title>
			<g id="group17100-2">
				<title>Sheet.17100</title>
				<g id="shape17101-3">
					<title>Sheet.17101</title>
					<path d="M0 71.28 A2.23095 2.19592 -180 0 0 1.33 73.29 L53.59 95.75 C55.06 96.38 56.69 95.32 56.69 93.73 L56.69
								 87.24 A2.23184 2.19679 -180 0 0 55.36 85.23 L3.1 62.77 C1.64 62.14 0 63.21 0 64.79 L0 71.28 Z"
							class="st1"/>
				</g>
				<g id="shape17102-5" transform="translate(0,-14.3038)">
					<title>Sheet.17102</title>
					<path d="M0 85.58 L0 79.09 C0 77.51 1.64 76.45 3.1 77.08 L29.65 88.49 C31.33 89.21 31.46 91.52 29.87 92.41 L23.33
								 96.09 A2.20482 2.1702 0 0 1 21.35 96.2 L1.33 87.6 A2.2314 2.19636 0 0 1 -0 85.58 Z" class="st2"/>
				</g>
				<g id="shape17103-7" transform="translate(0,-22.4597)">
					<title>Sheet.17103</title>
					<path d="M56.69 87.24 A2.2314 2.19636 -180 0 0 55.36 85.23 L3.1 62.77 C1.64 62.14 0 63.21 0 64.79 L0 71.28 A2.2314
								 2.19636 -180 0 0 1.33 73.29 L53.59 95.75 C55.06 96.38 56.69 95.32 56.69 93.73 L56.69 87.24 Z"
							class="st3"/>
				</g>
				<g id="shape17104-9" transform="translate(24.0896,-22.4593)">
					<title>Sheet.17104</title>
					<path d="M32.6 87.24 L32.6 93.73 C32.6 95.32 30.97 96.38 29.5 95.75 L1.78 83.84 C0 83.07 0 80.57 1.79 79.81 L9.36
								 76.57 A2.20438 2.16977 0 0 1 11.12 76.57 L31.27 85.23 A2.23095 2.19592 0 0 1 32.6 87.24 L32.6 87.24
								 Z" class="st2"/>
				</g>
				<g id="shape17105-11">
					<title>Sheet.17105</title>
					<path d="M0 87.24 A2.2314 2.19636 0 0 1 1.33 85.23 L53.59 62.77 C55.06 62.14 56.69 63.21 56.69 64.79 L56.69 71.28
								 A2.2314 2.19636 0 0 1 55.36 73.29 L3.1 95.75 C1.64 96.38 0 95.32 0 93.73 L0 87.24 Z" class="st4"/>
				</g>
				<g id="shape17106-13" transform="translate(0,-22.4597)">
					<title>Sheet.17106</title>
					<path d="M56.69 71.28 A2.2314 2.19636 0 0 1 55.36 73.29 L3.1 95.75 C1.64 96.38 0 95.32 0 93.73 L0 87.24 A2.2314
								 2.19636 0 0 1 1.33 85.23 L53.59 62.77 C55.06 62.14 56.69 63.21 56.69 64.79 L56.69 71.28 Z"
							class="st5"/>
				</g>
			</g>
		</g>
	</g>
</svg>
