<?xml version="1.0" encoding="UTF-8" standalone="no"?>
<!DOCTYPE svg PUBLIC "-//W3C//DTD SVG 1.1//EN" "http://www.w3.org/Graphics/SVG/1.1/DTD/svg11.dtd">
<!-- Generated by Microsoft Visio, SVG Export Budget.svg Page-1 -->
<svg xmlns="http://www.w3.org/2000/svg" xmlns:xlink="http://www.w3.org/1999/xlink" xmlns:ev="http://www.w3.org/2001/xml-events"
		width="1.07653in" height="1.42984in" viewBox="0 0 77.5101 102.949" xml:space="preserve" color-interpolation-filters="sRGB"
		class="st4">
	<style type="text/css">
	<![CDATA[
		.st1 {fill:#ff8c00;stroke:none;stroke-linecap:butt;stroke-width:12.24}
		.st2 {fill:#57a300;fill-opacity:0.2;stroke:none;stroke-linecap:butt;stroke-width:12.24}
		.st3 {fill:#57a300;stroke:none;stroke-linecap:butt;stroke-width:12.24}
		.st4 {fill:none;fill-rule:evenodd;font-size:12px;overflow:visible;stroke-linecap:square;stroke-miterlimit:3}
	]]>
	</style>

	<g>
		<title>Page-1</title>
		<g id="group1125-1" transform="translate(12.24,-34.0157)">
			<title>Budget</title>
			<g id="group1126-2">
				<title>g30</title>
				<g id="shape1127-3" transform="translate(16.2509,-50.2413)">
					<title>circle4</title>
					<ellipse cx="3.19493" cy="99.7228" rx="3.19493" ry="3.22581" class="st1"/>
				</g>
				<g id="shape1128-5" transform="translate(-5.59552E-14,-26.1762)">
					<title>circle6</title>
					<ellipse cx="3.19493" cy="99.7228" rx="3.19493" ry="3.22581" class="st1"/>
				</g>
				<g id="shape1129-7" transform="translate(1.08339,-37.1149)">
					<title>circle8</title>
					<ellipse cx="3.19493" cy="99.7228" rx="3.19493" ry="3.22581" class="st1"/>
				</g>
				<g id="shape1130-9" transform="translate(6.50036,-45.8658)">
					<title>circle10</title>
					<ellipse cx="3.19493" cy="99.7228" rx="3.19493" ry="3.22581" class="st1"/>
				</g>
				<g id="shape1131-11" transform="translate(16.2509,-50.2413)">
					<title>circle12</title>
					<ellipse cx="3.19493" cy="99.7228" rx="3.19493" ry="3.22581" class="st2"/>
				</g>
				<g id="shape1132-13" transform="translate(-5.59552E-14,-26.1762)">
					<title>circle14</title>
					<ellipse cx="3.19493" cy="99.7228" rx="3.19493" ry="3.22581" class="st2"/>
				</g>
				<g id="shape1133-15" transform="translate(1.08339,-37.1149)">
					<title>circle16</title>
					<ellipse cx="3.19493" cy="99.7228" rx="3.19493" ry="3.22581" class="st2"/>
				</g>
				<g id="shape1134-17" transform="translate(6.50036,-45.8658)">
					<title>circle18</title>
					<ellipse cx="3.19493" cy="99.7228" rx="3.19493" ry="3.22581" class="st2"/>
				</g>
				<g id="shape1135-19" transform="translate(24.5909,-42.255)">
					<title>circle20</title>
					<ellipse cx="2.43764" cy="100.487" rx="2.43764" ry="2.4612" class="st3"/>
				</g>
				<g id="shape1136-21" transform="translate(24.5909,-11.6267)">
					<title>circle22</title>
					<ellipse cx="2.43764" cy="100.487" rx="2.43764" ry="2.4612" class="st3"/>
				</g>
				<g id="shape1137-23" transform="translate(18.474,-18.0685)">
					<title>path24</title>
					<path d="M17.11 96.55 C17.11 100.26 13.47 102.95 8.45 102.95 C4.04 102.95 1.27 101.27 0 97.82 L4.31 97 C4.87
								 98.21 6.1 99.6 8.81 99.6 C11.52 99.6 12.53 97.96 12.53 96.92 C12.53 94.76 9.96 94.02 8.85 93.8 C4.15
								 92.85 0.82 91.77 0.82 86.33 C0.82 81.87 4.93 80.28 8.45 80.28 C12.3 80.28 14.8 81.57 16.1 84.21
								 L12.38 85.4 C11.59 84.06 10.26 83.35 8.51 83.35 C5.96 83.35 5.28 85.13 5.28 86.07 C5.28 87.36 6.56
								 88.5 8.54 88.96 C11.02 89.54 12.76 89.99 13.78 90.42 C15.39 91.1 17.11 93.07 17.11 96.55 Z"
							class="st3"/>
				</g>
				<g id="shape1138-25" transform="translate(5.65207,0)">
					<title>path26</title>
					<path d="M44.6 62.05 C40.17 53.18 30.74 47.6 21.38 47.22 L21.38 51.4 C29.19 51.78 37.2 56.55 40.89 63.93 C46.3
								 74.75 41.98 87.99 31.26 93.45 C21.83 98.26 9.81 94.94 3.42 86.72 L0 89.17 C7.56 99.07 21.82 102.95
								 33.13 97.19 C45.91 90.68 51.04 74.95 44.6 62.05 Z" class="st3"/>
				</g>
				<g id="shape1139-27" transform="translate(2.7204,-9.00252)">
					<title>path28</title>
					<path d="M0 102.95 L1.1 89.82 L12.49 93.98 L0 102.95 Z" class="st3"/>
				</g>
			</g>
		</g>
	</g>
</svg>
