<?xml version="1.0" encoding="UTF-8" standalone="no"?>
<!DOCTYPE svg PUBLIC "-//W3C//DTD SVG 1.1//EN" "http://www.w3.org/Graphics/SVG/1.1/DTD/svg11.dtd">
<!-- Generated by Microsoft Visio, SVG Export Intune Device Compliance.svg Page-1 -->
<svg xmlns="http://www.w3.org/2000/svg" xmlns:xlink="http://www.w3.org/1999/xlink" xmlns:ev="http://www.w3.org/2001/xml-events"
		width="1.75252in" height="1.86051in" viewBox="0 0 126.181 133.957" xml:space="preserve" color-interpolation-filters="sRGB"
		class="st8">
	<style type="text/css">
	<![CDATA[
		.st1 {fill:url(#grad0-6);stroke:none;stroke-linecap:butt;stroke-width:37.5789}
		.st2 {fill:#f2f2f2;stroke:none;stroke-linecap:butt;stroke-width:37.5789}
		.st3 {fill:url(#grad0-14);stroke:none;stroke-linecap:butt;stroke-width:37.5789}
		.st4 {fill:#76bc2d;stroke:none;stroke-linecap:butt;stroke-width:37.5789}
		.st5 {fill:#ffffff;stroke:none;stroke-linecap:butt;stroke-width:37.5789}
		.st6 {visibility:visible}
		.st7 {fill:#000000;font-family:Calibri;font-size:0.666664em}
		.st8 {fill:none;fill-rule:evenodd;font-size:12px;overflow:visible;stroke-linecap:square;stroke-miterlimit:3}
	]]>
	</style>

	<defs id="Patterns_And_Gradients">
		<linearGradient id="grad0-6" x1="0" y1="0" x2="1" y2="0" gradientTransform="rotate(-90 0.5 0.5)">
			<stop offset="0" stop-color="#0078d4" stop-opacity="1"/>
			<stop offset="0.17" stop-color="#1c84dc" stop-opacity="1"/>
			<stop offset="0.38" stop-color="#3990e4" stop-opacity="1"/>
			<stop offset="0.59" stop-color="#4d99ea" stop-opacity="1"/>
			<stop offset="0.8" stop-color="#5a9eee" stop-opacity="1"/>
			<stop offset="1" stop-color="#5ea0ef" stop-opacity="1"/>
		</linearGradient>
		<linearGradient id="grad0-14" x1="0" y1="0" x2="1" y2="0" gradientTransform="rotate(-90 0.5 0.5)">
			<stop offset="0" stop-color="#d2ebff" stop-opacity="1"/>
			<stop offset="1" stop-color="#f0fffd" stop-opacity="1"/>
		</linearGradient>
	</defs>
	<g>
		<title>Page-1</title>
		<g id="group6935-1" transform="translate(37.5789,-39.685)">
			<title>Intune Device Compliance.6935</title>
			<desc>Intune Device Compliance</desc>
			<g id="group6936-2">
				<title>layer1</title>
				<g id="shape6937-3" transform="translate(2.57794E-13,-0.0334147)">
					<title>rect24</title>
					<path d="M0 132.26 A1.6854 1.70082 -180 0 0 1.69 133.96 L31.92 133.96 A1.6854 1.70082 -180 0 0 33.61 132.26 L33.61
								 79 A1.6854 1.70082 -180 0 0 31.92 77.3 L1.69 77.3 A1.6854 1.70082 -180 0 0 0 79 L0 132.26 Z"
							class="st1"/>
				</g>
				<g id="shape6938-7" transform="translate(14.9039,-1.20054)">
					<title>rect26</title>
					<path d="M0 133.06 a0.892272 0.900437 -180 0 0 0.892251 0.900416 L2.88 133.96 a0.892272 0.900437 -180 0 0 0.892251
								 -0.900416 L3.77 131.62 a0.892272 0.900437 -180 0 0 -0.892251 -0.900416 L0.89 130.72 a0.892272 0.900437
								 -180 0 0 -0.892251 0.900416 L0 133.06 Z" class="st2"/>
				</g>
				<g id="shape6939-9" transform="translate(12.9211,-53.7582)">
					<title>rect28</title>
					<path d="M0 133.46 a0.495707 0.500243 -180 0 0 0.495695 0.500231 L7.24 133.96 a0.495707 0.500243 -180 0 0 0.495695
								 -0.500231 L7.73 133.42 a0.495707 0.500243 -180 0 0 -0.495695 -0.500231 L0.5 132.92 a0.495707 0.500243
								 -180 0 0 -0.495695 0.500231 L0 133.46 Z" class="st2"/>
				</g>
				<g id="shape6940-11" transform="translate(3.13945,-6.36971)">
					<title>rect30</title>
					<path d="M0 133.32 a0.627895 0.633641 -180 0 0 0.627881 0.633626 L26.67 133.96 a0.627895 0.633641 -180 0 0 0.627881
								 -0.633626 L27.3 89.07 a0.627895 0.633641 -180 0 0 -0.627881 -0.633626 L0.63 88.44 a0.627895 0.633641
								 -180 0 0 -0.627881 0.633626 L0 133.32 Z" class="st3"/>
				</g>
				<g id="shape6941-15" transform="translate(26.1728,0)">
					<title>rect32</title>
					<path d="M0 133.02 a0.925319 0.933786 -180 0 0 0.925298 0.933765 L23.93 133.96 a0.925319 0.933786 -180 0 0 0.925298
								 -0.933765 L24.85 109.81 a0.925319 0.933786 -180 0 0 -0.925298 -0.933765 L0.93 108.88 a0.925319 0.933786
								 -180 0 0 -0.925298 0.933765 L0 133.02 Z" class="st4"/>
				</g>
				<g id="shape6942-17" transform="translate(29.1254,-5.58092)">
					<title>path34</title>
					<path d="M8.2 132.33 L6.77 133.77 a0.627881 0.633626 0 0 1 -0.888034 0 L0.18 128.02 a0.627881 0.633626 0 0 1
								 -4.16334E-15 -0.896165 L1.19 126.11 a0.627881 0.633626 0 0 1 0.888034 0 L8.22 132.31 L8.2 132.33
								 Z" class="st5"/>
				</g>
				<g id="shape6943-19" transform="translate(33.7162,-5.59769)">
					<title>path36</title>
					<path d="M1.43 133.75 L0 132.31 L13.09 119.1 a0.627881 0.633626 0 0 1 0.888034 1.42109E-14 L14.98 120.12 a0.627881
								 0.633626 0 0 1 2.66454E-14 0.896157 L2.34 133.77 a0.627881 0.633626 0 0 1 -0.888034 0 L1.43 133.75
								 Z" class="st5"/>
				</g>
			</g>
			<g id="shape6935-21">
				<g id="shadow6935-22" transform="matrix(1,0,0,1,1.41732,1.41732)" class="st6"/>
				<text x="-16.87" y="149.66" class="st7">Intune Device Compliance</text>			</g>
		</g>
	</g>
</svg>
