<?xml version="1.0" encoding="UTF-8" standalone="no"?>
<!DOCTYPE svg PUBLIC "-//W3C//DTD SVG 1.1//EN" "http://www.w3.org/Graphics/SVG/1.1/DTD/svg11.dtd">
<!-- Generated by Microsoft Visio, SVG Export Intune Device Enrolment.svg Page-1 -->
<svg xmlns="http://www.w3.org/2000/svg" xmlns:xlink="http://www.w3.org/1999/xlink" xmlns:ev="http://www.w3.org/2001/xml-events"
		width="1.65149in" height="1.63677in" viewBox="0 0 118.907 117.847" xml:space="preserve" color-interpolation-filters="sRGB"
		class="st11">
	<style type="text/css">
	<![CDATA[
		.st1 {fill:#0078d4;stroke:none;stroke-linecap:butt;stroke-width:31.1071}
		.st2 {fill:url(#grad0-8);stroke:none;stroke-linecap:butt;stroke-width:31.1071}
		.st3 {fill:url(#grad0-12);stroke:none;stroke-linecap:butt;stroke-width:31.1071}
		.st4 {fill:#f2f2f2;stroke:none;stroke-linecap:butt;stroke-width:31.1071}
		.st5 {fill:none;stroke:none;stroke-linecap:butt;stroke-width:31.1071}
		.st6 {fill:url(#grad0-8);stroke:none;stroke-linecap:butt;stroke-width:23.451}
		.st7 {fill:#76bc2d;stroke:none;stroke-linecap:butt;stroke-width:31.1071}
		.st8 {fill:#ffffff;stroke:none;stroke-linecap:butt;stroke-width:31.1071}
		.st9 {visibility:visible}
		.st10 {fill:#000000;font-family:Calibri;font-size:0.666664em}
		.st11 {fill:none;fill-rule:evenodd;font-size:12px;overflow:visible;stroke-linecap:square;stroke-miterlimit:3}
	]]>
	</style>

	<defs id="Patterns_And_Gradients">
		<linearGradient id="grad0-8" x1="0" y1="0" x2="1" y2="0" gradientTransform="rotate(-90 0.5 0.5)">
			<stop offset="0" stop-color="#d2ebff" stop-opacity="1"/>
			<stop offset="1" stop-color="#f0fffd" stop-opacity="1"/>
		</linearGradient>
		<linearGradient id="grad0-12" x1="0" y1="0" x2="1" y2="0" gradientTransform="rotate(-90 0.5 0.5)">
			<stop offset="0" stop-color="#0078d4" stop-opacity="1"/>
			<stop offset="0.17" stop-color="#1c84dc" stop-opacity="1"/>
			<stop offset="0.38" stop-color="#3990e4" stop-opacity="1"/>
			<stop offset="0.59" stop-color="#4d99ea" stop-opacity="1"/>
			<stop offset="0.8" stop-color="#5a9eee" stop-opacity="1"/>
			<stop offset="1" stop-color="#5ea0ef" stop-opacity="1"/>
		</linearGradient>
	</defs>
	<g>
		<title>Page-1</title>
		<g id="group6776-1" transform="translate(31.1071,-35.7165)">
			<title>Intune Device Enrolment.6776</title>
			<desc>Intune Device Enrolment</desc>
			<g id="group6777-2">
				<title>layer1</title>
				<g id="shape6778-3" transform="translate(0,-13.0279)">
					<title>rect25</title>
					<path d="M0 115.93 A1.8898 1.92064 -180 0 0 1.89 117.85 L50.65 117.85 A1.8898 1.92064 -180 0 0 52.54 115.93 L52.54
								 81.77 A1.8898 1.92064 -180 0 0 50.65 79.85 L1.89 79.85 A1.8898 1.92064 -180 0 0 -0 81.77 L0 115.93
								 Z" class="st1"/>
				</g>
				<g id="shape6779-5" transform="translate(3.0552,-16.0368)">
					<title>rect27</title>
					<path d="M0 116.89 a0.944902 0.960319 -180 0 0 0.94488 0.960297 L45.48 117.85 a0.944902 0.960319 -180 0 0 0.94488
								 -0.960297 L46.43 86.48 a0.944902 0.960319 -180 0 0 -0.94488 -0.960297 L0.94 85.52 a0.944902 0.960319
								 -180 0 0 -0.94488 0.960297 L0 116.89 Z" class="st2"/>
				</g>
				<g id="shape6780-9" transform="translate(32.441,1.42109E-14)">
					<title>rect29</title>
					<path d="M0 116.89 a0.944902 0.960319 -180 0 0 0.94488 0.960297 L23.31 117.85 a0.944902 0.960319 -180 0 0 0.94488
								 -0.960297 L24.25 77.67 a0.944902 0.960319 -180 0 0 -0.94488 -0.960297 L0.94 76.71 a0.944902 0.960319
								 -180 0 0 -0.94488 0.960297 L0 116.89 Z" class="st3"/>
				</g>
				<g id="shape6781-13" transform="translate(41.7951,-38.9881)">
					<title>rect31</title>
					<path d="M-0 117.5 a0.346464 0.352117 -180 0 0 0.346456 0.352109 L5.23 117.85 a0.346464 0.352117 -180 0 0 0.346456
								 -0.352109 L5.57 117.43 a0.346464 0.352117 -180 0 0 -0.346456 -0.352109 L0.35 117.08 a0.346464 0.352117
								 -180 0 0 -0.346456 0.352109 L0 117.5 Z" class="st4"/>
				</g>
				<g id="shape6782-15" transform="translate(34.7402,-4.60941)">
					<title>rect33</title>
					<path d="M0 117.4 a0.440954 0.448149 -180 0 0 0.440944 0.448138 L19.24 117.85 a0.440954 0.448149 -180 0 0 0.440944
								 -0.448138 L19.68 85.23 a0.440954 0.448149 -180 0 0 -0.440944 -0.448138 L0.44 84.78 a0.440954 0.448149
								 -180 0 0 -0.440944 0.448138 L0 117.4 Z" class="st5"/>
				</g>
				<g id="shape6783-17" transform="translate(23.5591,-49.0711)">
					<title>rect35</title>
					<path d="M-0 117.5 a0.346464 0.352117 -180 0 0 0.346456 0.352109 L5.23 117.85 a0.346464 0.352117 -180 0 0 0.346456
								 -0.352109 L5.57 117.43 a0.346464 0.352117 -180 0 0 -0.346456 -0.352109 L0.35 117.08 a0.346464 0.352117
								 -180 0 0 -0.346456 0.352109 L0 117.5 Z" class="st4"/>
				</g>
				<g id="shape6784-19" transform="translate(43.2127,-0.896177)">
					<title>rect41</title>
					<path d="M0 117.21 a0.629934 0.640213 -180 0 0 0.62992 0.640198 L2.08 117.85 a0.629934 0.640213 -180 0 0 0.62992
								 -0.640198 L2.71 116.15 a0.629934 0.640213 -180 0 0 -0.62992 -0.640198 L0.63 115.51 a0.629934 0.640213
								 -180 0 0 -0.62992 0.640198 L0 117.21 Z" class="st4"/>
				</g>
				<g id="shape6785-21" transform="translate(34.7402,-4.60942)">
					<title>rect30</title>
					<path d="M0 117.39 a0.45115 0.458511 -180 0 0 0.45114 0.458501 L19.16 117.85 a0.45115 0.458511 -180 0 0 0.45114
								 -0.458501 L19.61 85.37 a0.45115 0.458511 -180 0 0 -0.45114 -0.458501 L0.45 84.91 a0.45115 0.458511
								 -180 0 0 -0.45114 0.458501 L0 117.39 Z" class="st6"/>
				</g>
				<g id="shape6786-24" transform="translate(10.6389,-0.108042)">
					<title>rect37</title>
					<path d="M0 104.44 A13.1971 13.4125 -180 0 0 13.2 117.85 L13.32 117.85 A13.1971 13.4125 -180 0 0 26.52 104.44
								 L26.52 104.31 A13.1971 13.4125 -180 0 0 13.32 90.89 L13.2 90.89 A13.1971 13.4125 -180 0 0 -0 104.31
								 L0 104.44 Z" class="st7"/>
				</g>
				<g id="shape6787-26" transform="translate(14.419,-4.07698)">
					<title>path39</title>
					<path d="M17.45 106.58 L11.15 106.58 L11.15 100.18 A1.48031 1.50446 -180 0 0 9.73 98.86 L9.23 98.86 A1.48031
								 1.50446 -180 0 0 7.75 100.37 L7.75 106.77 L1.45 106.77 A1.48031 1.50446 -180 0 0 -0 108.28 L0 108.47
								 A1.48031 1.50446 -180 0 0 1.45 109.97 L7.75 109.97 L7.75 116.37 A1.48031 1.50446 -180 0 0 9.23 117.85
								 L9.73 117.85 A1.48031 1.50446 -180 0 0 11.21 116.37 L11.21 109.97 L17.51 109.97 A1.48031 1.50446
								 -180 0 0 18.99 108.47 L18.99 107.96 A1.48031 1.50446 -180 0 0 17.45 106.58 L17.45 106.58 Z"
							class="st8"/>
				</g>
			</g>
			<g id="shape6776-28">
				<g id="shadow6776-29" transform="matrix(1,0,0,1,1.41732,1.41732)" class="st9"/>
				<text x="-12.07" y="132.7" class="st10">Intune Device Enrolment</text>			</g>
		</g>
	</g>
</svg>
