<?xml version="1.0" encoding="UTF-8" standalone="no"?>
<!DOCTYPE svg PUBLIC "-//W3C//DTD SVG 1.1//EN" "http://www.w3.org/Graphics/SVG/1.1/DTD/svg11.dtd">
<!-- Generated by Microsoft Visio, SVG Export Intune Managed Desktop.svg Page-1 -->
<svg xmlns="http://www.w3.org/2000/svg" xmlns:xlink="http://www.w3.org/1999/xlink" xmlns:ev="http://www.w3.org/2001/xml-events"
		width="1.36566in" height="1.20472in" viewBox="0 0 98.3274 86.7402" xml:space="preserve" color-interpolation-filters="sRGB"
		class="st8">
	<style type="text/css">
	<![CDATA[
		.st1 {fill:url(#grad0-5);stroke:none;stroke-linecap:butt;stroke-width:0.75}
		.st2 {fill:#ffffff;stroke:none;stroke-linecap:butt;stroke-width:0.75}
		.st3 {fill:url(#grad0-11);stroke:none;stroke-linecap:butt;stroke-width:0.75}
		.st4 {fill:#86d633;stroke:none;stroke-linecap:butt;stroke-width:0.75}
		.st5 {fill:#5e9624;stroke:none;stroke-linecap:butt;stroke-width:0.75}
		.st6 {visibility:visible}
		.st7 {fill:#000000;font-family:Calibri;font-size:0.666664em}
		.st8 {fill:none;fill-rule:evenodd;font-size:12px;overflow:visible;stroke-linecap:square;stroke-miterlimit:3}
	]]>
	</style>

	<defs id="Patterns_And_Gradients">
		<linearGradient id="grad0-5" x1="0" y1="0" x2="1" y2="0" gradientTransform="rotate(-90 0.5 0.5)">
			<stop offset="0" stop-color="#0078d4" stop-opacity="1"/>
			<stop offset="0.82" stop-color="#5ea0ef" stop-opacity="1"/>
		</linearGradient>
		<linearGradient id="grad0-11" x1="0" y1="0" x2="1" y2="0" gradientTransform="rotate(-90 0.5 0.5)">
			<stop offset="0" stop-color="#1490df" stop-opacity="1"/>
			<stop offset="0.98" stop-color="#1f56a3" stop-opacity="1"/>
		</linearGradient>
	</defs>
	<g>
		<title>Page-1</title>
		<g id="group6888-1" transform="translate(19.3999,-33.7323)">
			<title>Intune Managed Desktop.6888</title>
			<desc>Intune Managed Desktop</desc>
			<g id="shape6889-2" transform="translate(0,-15.2017)">
				<title>Sheet.6889</title>
				<path d="M0 85.09 A1.6224 1.6494 -180 0 0 1.62 86.74 L47.05 86.74 A1.6224 1.6494 -180 0 0 48.67 85.09 L48.67 55.4
							 A1.6224 1.6494 -180 0 0 47.05 53.75 L1.62 53.75 A1.6224 1.6494 -180 0 0 0 55.4 L0 85.09 Z" class="st1"/>
			</g>
			<g id="shape6890-6" transform="translate(2.70394,-17.9506)">
				<title>Sheet.6890</title>
				<path d="M-0 85.83 a0.892322 0.907172 -180 0 0 0.892301 0.907151 L42.37 86.74 a0.892322 0.907172 -180 0 0 0.892301
							 -0.907151 L43.26 60.16 a0.892322 0.907172 -180 0 0 -0.892301 -0.907151 L0.89 59.25 a0.892322 0.907172
							 -180 0 0 -0.892301 0.907151 L0 85.83 Z" class="st2"/>
			</g>
			<g id="shape6891-8" transform="translate(12.1677,-2.47405)">
				<title>Sheet.6891</title>
				<path d="M21.93 83.99 C17.12 83.22 16.93 79.7 16.95 74.01 L7.38 74.01 C7.38 79.7 7.22 83.22 2.41 83.99 A2.83914 2.88639
							 -180 0 0 -0 86.74 L24.34 86.74 A2.83914 2.88639 -180 0 0 21.93 83.99 Z" class="st3"/>
			</g>
			<g id="shape6892-12" transform="translate(87.5558,102.962) rotate(135)">
				<title>Sheet.6892</title>
				<path d="M16.22 74.81 L18.79 74.81 a0.784144 0.797194 0 0 1 0.784144 0.797194 L19.58 85.94 a0.784144 0.797194 0 0
							 1 -0.784144 0.797194 L17.01 86.74 a0.784144 0.797194 0 0 1 -0.784144 -0.797194 L16.22 74.95 L16.22 74.81
							 Z" class="st4"/>
			</g>
			<g id="shape6893-14" transform="translate(-4.46981,126.906) rotate(-135)">
				<title>Sheet.6893</title>
				<path d="M27.34 62.22 L29.91 62.22 L29.91 85.94 a0.784144 0.797194 0 0 1 -0.784144 0.797194 L27.36 86.74 a0.784144
							 0.797194 0 0 1 -0.784144 -0.797194 L26.58 63.02 a0.784144 0.797194 0 0 1 0.784144 -0.797194 L27.34 62.22
							 Z" class="st5"/>
			</g>
			<g id="shape6888-16">
				<g id="shadow6888-17" transform="matrix(1,0,0,1,1.41732,1.41732)" class="st6"/>
				<text x="-12.82" y="101.17" class="st7">Intune Managed Desktop</text>			</g>
		</g>
	</g>
</svg>
