<?xml version="1.0" encoding="UTF-8" standalone="no"?>
<!DOCTYPE svg PUBLIC "-//W3C//DTD SVG 1.1//EN" "http://www.w3.org/Graphics/SVG/1.1/DTD/svg11.dtd">
<!-- Generated by Microsoft Visio, SVG Export Intune Software Update.svg Page-1 -->
<svg xmlns="http://www.w3.org/2000/svg" xmlns:xlink="http://www.w3.org/1999/xlink" xmlns:ev="http://www.w3.org/2001/xml-events"
		width="1.30929in" height="1.13386in" viewBox="0 0 94.2688 81.6378" xml:space="preserve" color-interpolation-filters="sRGB"
		class="st8">
	<style type="text/css">
	<![CDATA[
		.st1 {fill:#0078d4;stroke:none;stroke-linecap:butt;stroke-width:0.75}
		.st2 {fill:url(#grad0-7);stroke:none;stroke-linecap:butt;stroke-width:0.75}
		.st3 {fill:#f2f2f2;stroke:none;stroke-linecap:butt;stroke-width:0.75}
		.st4 {fill:#76bc2d;stroke:none;stroke-linecap:butt;stroke-width:0.75}
		.st5 {fill:#ffffff;stroke:none;stroke-linecap:butt;stroke-width:0.75}
		.st6 {visibility:visible}
		.st7 {fill:#000000;font-family:Calibri;font-size:0.666664em}
		.st8 {fill:none;fill-rule:evenodd;font-size:12px;overflow:visible;stroke-linecap:square;stroke-miterlimit:3}
	]]>
	</style>

	<defs id="Patterns_And_Gradients">
		<linearGradient id="grad0-7" x1="0" y1="0" x2="1" y2="0" gradientTransform="rotate(-90 0.5 0.5)">
			<stop offset="0" stop-color="#d2ebff" stop-opacity="1"/>
			<stop offset="1" stop-color="#f0fffd" stop-opacity="1"/>
		</linearGradient>
	</defs>
	<g>
		<title>Page-1</title>
		<g id="group6730-1" transform="translate(17.3708,-31.748)">
			<title>Intune Software Update.6730</title>
			<desc>Intune Software Update</desc>
			<g id="shape6731-2" transform="translate(0,-8.44271)">
				<title>Sheet.6731</title>
				<path d="M0 79.91 A1.88981 1.72892 -180 0 0 1.89 81.64 L54.8 81.64 A1.88981 1.72892 -180 0 0 56.69 79.91 L56.69 46.46
							 A1.88981 1.72892 -180 0 0 54.8 44.73 L1.89 44.73 A1.88981 1.72892 -180 0 0 -0 46.46 L0 79.91 Z"
						class="st1"/>
			</g>
			<g id="shape6732-4" transform="translate(3.30709,-11.353)">
				<title>Sheet.6732</title>
				<path d="M0 80.69 a1.03939 0.950907 -180 0 0 1.03937 0.950885 L49.07 81.64 a1.03939 0.950907 -180 0 0 1.03937 -0.950885
							 L50.11 51.18 a1.03939 0.950907 -180 0 0 -1.03937 -0.950885 L1.04 50.23 a1.03939 0.950907 -180 0 0 -1.03937
							 0.950885 L0 80.69 Z" class="st2"/>
			</g>
			<g id="shape6733-8" transform="translate(25.4173,-43.4526)">
				<title>Sheet.6733</title>
				<path d="M0 81.29 a0.377962 0.345784 -180 0 0 0.377953 0.345776 L5.64 81.64 a0.377962 0.345784 -180 0 0 0.377953
							 -0.345776 L6.02 81.23 a0.377962 0.345784 -180 0 0 -0.377953 -0.345776 L0.38 80.89 a0.377962 0.345784
							 -180 0 0 -0.377953 0.345776 L0 81.29 Z" class="st3"/>
			</g>
			<g id="shape6734-10" transform="translate(27.2441,0)">
				<title>Sheet.6734</title>
				<ellipse cx="13.2913" cy="69.478" rx="13.2913" ry="12.1598" class="st4"/>
			</g>
			<g id="shape6735-12" transform="translate(29.7574,-4.50552)">
				<title>Sheet.6735</title>
				<path d="M2.84 72.11 A8.69291 7.95286 -180 0 0 2.59 74.99 A8.34646 7.63589 -180 0 0 3.72 77.87 A7.9685 7.29012 -180
							 0 0 5.23 79.6 A9.19685 8.41389 -180 0 0 7.16 80.84 A11.3701 10.4021 -180 0 0 9.42 81.56 A8.66142 7.92404
							 -180 0 0 11.82 81.56 L11.6 79.46 a0.440945 0.403406 -180 0 0 -0.440945 -0.403406 L9.93 79.05 A6.29921
							 5.76294 0 0 1 8.42 78.57 A7.62205 6.97316 0 0 1 7.09 77.87 A4.7874 4.37983 0 0 1 6.09 76.72 A5.32283
							 4.86968 0 0 1 5.33 74.79 A5.92126 5.41716 0 0 1 5.33 72.74 L6.12 73.95 a0.472441 0.43222 -180 0 0 0.629921
							 0.144073 L7.72 73.58 a0.472441 0.43222 -180 0 0 0.15748 -0.576294 L5.23 68.91 a0.503937 0.461035 -180
							 0 0 -0.661417 -0.144073 L0.13 71.19 a0.440945 0.403406 -180 0 0 -1.02696E-14 0.576294 L0.67 72.63 a0.472441
							 0.43222 -180 0 0 0.661417 0.172888 L2.84 72.11 Z" class="st5"/>
			</g>
			<g id="shape6736-14" transform="translate(40.063,-6.76741)">
				<title>Sheet.6736</title>
				<path d="M1.83 71.15 A7.81102 7.14604 0 0 1 3.34 71.64 A6.29921 5.76294 0 0 1 4.66 72.5 A5.03937 4.61035 0 0 1 5.7
							 73.65 A5.6063 5.12902 0 0 1 6.43 75.58 A5.95276 5.44598 0 0 1 6.43 77.63 L5.64 76.42 a0.472441 0.43222
							 -180 0 0 -0.629921 -0.172888 L4.06 76.76 a0.472441 0.43222 -180 0 0 -0.15748 0.605109 L6.52 81.43 a0.503937
							 0.461035 -180 0 0 0.661417 0.172888 L11.62 79.18 a0.472441 0.43222 -180 0 0 0.188976 -0.605109 L11.24
							 77.71 a0.503937 0.461035 -180 0 0 -0.661417 -0.144073 L9.04 78.41 A8.25197 7.54945 -180 0 0 9.29 75.29
							 A9.07087 8.29863 -180 0 0 8.19 72.41 A9.73228 8.90374 -180 0 0 6.68 70.71 A8.7874 8.0393 -180 0 0 2.33
							 68.61 A7.77953 7.11723 -180 0 0 0.41 68.61 a0.440945 0.403406 -180 0 0 -0.409449 0.461035 L0 70.74 a0.472441
							 0.43222 -180 0 0 0.440945 0.374591 A8.06299 7.37656 0 0 1 1.83 71.15 Z" class="st5"/>
			</g>
			<g id="shape6730-16">
				<g id="shadow6730-17" transform="matrix(1,0,0,1,1.41732,1.41732)" class="st6"/>
				<text x="-10.79" y="95.64" class="st7">Intune Software Update</text>			</g>
		</g>
	</g>
</svg>
