<?xml version="1.0" encoding="UTF-8" standalone="no"?>
<!DOCTYPE svg PUBLIC "-//W3C//DTD SVG 1.1//EN" "http://www.w3.org/Graphics/SVG/1.1/DTD/svg11.dtd">
<!-- Generated by Microsoft Visio, SVG Export Intune Exchange Access.svg Page-1 -->
<svg xmlns="http://www.w3.org/2000/svg" xmlns:xlink="http://www.w3.org/1999/xlink" xmlns:ev="http://www.w3.org/2001/xml-events"
		width="1.78572in" height="1.90383in" viewBox="0 0 128.572 137.076" xml:space="preserve" color-interpolation-filters="sRGB"
		class="st8">
	<style type="text/css">
	<![CDATA[
		.st1 {fill:#0078d4;stroke:none;stroke-linecap:butt;stroke-width:40.1916}
		.st2 {fill:url(#grad0-8);stroke:none;stroke-linecap:butt;stroke-width:40.1916}
		.st3 {fill:#ffbd02;stroke:none;stroke-linecap:butt;stroke-width:40.1916}
		.st4 {fill:#ffe452;stroke:none;stroke-linecap:butt;stroke-width:40.1916}
		.st5 {fill:#ffd400;fill-opacity:0.5;stroke:none;stroke-linecap:butt;stroke-width:40.1916}
		.st6 {visibility:visible}
		.st7 {fill:#000000;font-family:Calibri;font-size:0.666664em}
		.st8 {fill:none;fill-rule:evenodd;font-size:12px;overflow:visible;stroke-linecap:square;stroke-miterlimit:3}
	]]>
	</style>

	<defs id="Patterns_And_Gradients">
		<linearGradient id="grad0-8" x1="0" y1="0" x2="1" y2="0" gradientTransform="rotate(-90 0.5 0.5)">
			<stop offset="0" stop-color="#0078d4" stop-opacity="1"/>
			<stop offset="0.06" stop-color="#0a7cd7" stop-opacity="1"/>
			<stop offset="0.34" stop-color="#2e8ce1" stop-opacity="1"/>
			<stop offset="0.59" stop-color="#4897e9" stop-opacity="1"/>
			<stop offset="0.82" stop-color="#589eed" stop-opacity="1"/>
			<stop offset="1" stop-color="#5ea0ef" stop-opacity="1"/>
		</linearGradient>
	</defs>
	<g>
		<title>Page-1</title>
		<g id="group6897-1" transform="translate(40.1916,-40.1916)">
			<title>Intune Exchange Access.6897</title>
			<desc>Intune Exchange Access</desc>
			<g id="group6898-2">
				<title>layer1</title>
				<g id="shape6899-3">
					<title>path19</title>
					<path d="M48.19 106.85 C48.19 122.09 29.06 134.35 24.88 136.85 A1.46337 1.43343 0 0 1 23.31 136.85 C19.13 134.39
								 0 122.12 0 106.85 L0 88.52 A1.4974 1.46677 0 0 1 1.46 87.05 C16.37 86.68 12.93 80.38 24.09 80.38
								 C35.26 80.38 31.82 86.68 46.73 87.05 A1.4974 1.46677 0 0 1 48.19 88.52 L48.19 106.85 Z"
							class="st1"/>
				</g>
				<g id="shape6900-5" transform="translate(1.97384,-2.39052)">
					<title>path21</title>
					<path d="M44.24 109.38 C44.24 123.38 26.68 134.61 22.84 136.88 A1.36127 1.33343 0 0 1 21.41 136.88 C17.56 134.61
								 0 123.38 0 109.38 L0 92.71 A1.3953 1.36676 0 0 1 1.36 91.11 C15.04 90.87 11.91 85.14 22.12 85.14
								 C32.33 85.14 29.2 90.87 42.88 91.11 A1.3953 1.36676 0 0 1 44.24 92.44 L44.24 109.38 Z" class="st2"/>
				</g>
				<g id="shape6901-9" transform="translate(13.2724,-18.356)">
					<title>path23</title>
					<path d="M20.52 122.61 L19.16 122.61 L19.16 117.87 A8.91632 8.73395 -180 0 0 16.78 111.84 A8.06553 7.90056 -180
								 0 0 4.93 111.84 A8.88229 8.70061 -180 0 0 2.55 117.87 L2.55 122.61 L1.19 122.61 A1.08902 1.06674
								 -180 0 0 -0 123.74 L0 136.01 A1.08902 1.06674 -180 0 0 1.12 137.08 L20.52 137.08 A1.08902 1.06674
								 -180 0 0 21.64 136.01 L21.64 123.74 A1.08902 1.06674 -180 0 0 20.52 122.61 L20.52 122.61 ZM15.25
								 122.61 L6.4 122.61 L6.4 117.81 A4.86654 4.767 0 0 1 7.79 114.47 A4.04978 3.96695 0 0 1 13.85 114.47
								 A5.30895 5.20037 0 0 1 14.4 115.14 A4.76445 4.667 0 0 1 15.25 117.77 L15.25 122.61 Z" class="st3"/>
				</g>
				<g id="shape6902-11" transform="translate(13.2723,-18.6899)">
					<title>path25</title>
					<path d="M1.12 122.94 L20.52 122.94 A1.08902 1.06674 0 0 1 21.24 123.21 L0.41 137.08 A1.12305 1.10008 0 0 1 0
								 136.28 L0 124.08 A1.08902 1.06674 0 0 1 1.12 122.94 L1.12 122.94 Z" class="st4"/>
				</g>
				<g id="shape6903-13" transform="translate(13.6808,-18.6897)">
					<title>path27</title>
					<path d="M20.11 122.94 L0.71 122.94 A1.08902 1.06674 -180 0 0 0 123.21 L20.83 137.08 A1.02095 1.00007 -180 0
								 0 21.24 136.28 L21.24 124.08 A1.08902 1.06674 -180 0 0 20.11 122.94 L20.11 122.94 Z" class="st5"/>
				</g>
			</g>
			<g id="shape6897-15">
				<g id="shadow6897-16" transform="matrix(1,0,0,1,1.41732,1.41732)" class="st6"/>
				<text x="-14.54" y="152.78" class="st7">Intune Exchange Access</text>			</g>
		</g>
	</g>
</svg>
