<?xml version="1.0" encoding="UTF-8" standalone="no"?>
<!DOCTYPE svg PUBLIC "-//W3C//DTD SVG 1.1//EN" "http://www.w3.org/Graphics/SVG/1.1/DTD/svg11.dtd">
<!-- Generated by Microsoft Visio, SVG Export Cognitive Services Customised Experience.svg Page-1 -->
<svg xmlns="http://www.w3.org/2000/svg" xmlns:xlink="http://www.w3.org/1999/xlink" xmlns:ev="http://www.w3.org/2001/xml-events"
		width="1.13434in" height="1.43331in" viewBox="0 0 81.6725 103.198" xml:space="preserve" color-interpolation-filters="sRGB"
		class="st3">
	<style type="text/css">
	<![CDATA[
		.st1 {fill:#0078d4;stroke:none;stroke-linecap:butt;stroke-width:12.4898}
		.st2 {fill:#50e6ff;stroke:none;stroke-linecap:butt;stroke-width:12.4898}
		.st3 {fill:none;fill-rule:evenodd;font-size:12px;overflow:visible;stroke-linecap:square;stroke-miterlimit:3}
	]]>
	</style>

	<g>
		<title>Page-1</title>
		<g id="group4758-1" transform="translate(12.4898,-34.0157)">
			<title>Cognitive Services Customised Experience</title>
			<g id="shape4759-2" transform="translate(42.2713,-42.2687)">
				<title>Sheet.4759</title>
				<path d="M0 88.78 L14.42 88.78 L14.42 103.2 L8.45 103.2 L8.45 94.75 L0 94.75 L0 88.78 Z" class="st1"/>
			</g>
			<g id="shape4760-4" transform="translate(16.9031,-42.2733)">
				<title>Sheet.4760</title>
				<path d="M5.97 103.2 L0 103.2 L0 88.78 L14.42 88.78 L14.42 94.75 L5.97 94.75 L5.97 103.2 Z" class="st1"/>
			</g>
			<g id="shape4761-6" transform="translate(42.2713,-16.9495)">
				<title>Sheet.4761</title>
				<path d="M8.45 88.78 L14.42 88.78 L14.42 103.2 L0 103.2 L0 97.23 L8.45 97.23 L8.45 88.78 Z" class="st1"/>
			</g>
			<g id="shape4762-8" transform="translate(16.9031,-16.9403)">
				<title>Sheet.4762</title>
				<path d="M0 103.2 L0 88.78 L5.97 88.78 L5.97 97.23 L14.42 97.23 L14.42 103.2 L0 103.2 Z" class="st1"/>
			</g>
			<g id="shape4763-10" transform="translate(25.3632,-33.8128)">
				<title>Sheet.4763</title>
				<path d="M2.98 103.2 C1.33 103.2 0 101.87 0 100.22 C0 98.56 1.33 97.23 2.98 97.23 C4.63 97.23 5.97 98.56 5.97 100.22
							 C5.97 101.86 4.62 103.2 2.98 103.2 Z" class="st2"/>
			</g>
			<g id="shape4764-12" transform="translate(33.817,-42.2649)">
				<title>Sheet.4764</title>
				<path d="M2.98 103.2 C1.33 103.2 0 101.87 0 100.22 C0 98.56 1.33 97.23 2.98 97.23 C4.63 97.23 5.97 98.56 5.97 100.22
							 C5.97 101.86 4.62 103.2 2.98 103.2 Z" class="st2"/>
			</g>
			<g id="shape4765-14" transform="translate(42.2713,-33.8128)">
				<title>Sheet.4765</title>
				<path d="M2.98 103.2 C1.33 103.2 0 101.87 0 100.22 C0 98.56 1.33 97.23 2.98 97.23 C4.63 97.23 5.97 98.56 5.97 100.22
							 C5.97 101.86 4.62 103.2 2.98 103.2 Z" class="st2"/>
			</g>
			<g id="shape4766-16" transform="translate(33.817,-25.3608)">
				<title>Sheet.4766</title>
				<path d="M2.98 103.2 C1.33 103.2 0 101.87 0 100.22 C0 98.56 1.33 97.23 2.98 97.23 C4.63 97.23 5.97 98.56 5.97 100.22
							 C5.97 101.86 4.62 103.2 2.98 103.2 Z" class="st2"/>
			</g>
			<g id="shape4767-18" transform="translate(33.817,-33.8128)">
				<title>Sheet.4767</title>
				<path d="M2.98 103.2 C1.33 103.2 0 101.87 0 100.22 C0 98.56 1.33 97.23 2.98 97.23 C4.63 97.23 5.97 98.56 5.97 100.22
							 C5.97 101.86 4.62 103.2 2.98 103.2 Z" class="st2"/>
			</g>
			<g id="shape4768-20" transform="translate(-1.1291E-13,-50.7216)">
				<title>Sheet.4768</title>
				<path d="M2.98 103.2 C1.33 103.2 0 101.87 0 100.22 C0 98.56 1.33 97.23 2.98 97.23 C4.63 97.23 5.97 98.56 5.97 100.22
							 C5.97 101.86 4.62 103.2 2.98 103.2 Z" class="st2"/>
			</g>
			<g id="shape4769-22" transform="translate(8.45438,-50.7216)">
				<title>Sheet.4769</title>
				<path d="M5.97 97.23 L0 97.23 L0 103.2 L5.97 103.2 L5.97 97.23 Z" class="st2"/>
			</g>
			<g id="shape4770-24" transform="translate(0.000577625,-42.2649)">
				<title>Sheet.4770</title>
				<path d="M5.97 97.23 L0 97.23 L0 103.2 L5.97 103.2 L5.97 97.23 Z" class="st2"/>
			</g>
			<g id="shape4771-26" transform="translate(8.45438,-42.2649)">
				<title>Sheet.4771</title>
				<path d="M5.97 97.23 L0 97.23 L0 103.2 L5.97 103.2 L5.97 97.23 Z" class="st2"/>
			</g>
			<g id="shape4772-28" transform="translate(0.000577625,-33.8128)">
				<title>Sheet.4772</title>
				<path d="M5.97 97.23 L0 97.23 L0 103.2 L5.97 103.2 L5.97 97.23 Z" class="st2"/>
			</g>
			<g id="shape4773-30" transform="translate(8.45438,-33.8128)">
				<title>Sheet.4773</title>
				<path d="M2.98 103.2 C1.33 103.2 0 101.87 0 100.22 C0 98.56 1.33 97.23 2.98 97.23 C4.63 97.23 5.97 98.56 5.97 100.22
							 C5.97 101.86 4.62 103.2 2.98 103.2 Z" class="st2"/>
			</g>
			<g id="shape4774-32" transform="translate(0.000577625,-16.9087)">
				<title>Sheet.4774</title>
				<path d="M5.97 97.23 L0 97.23 L0 103.2 L5.97 103.2 L5.97 97.23 Z" class="st2"/>
			</g>
			<g id="shape4775-34" transform="translate(8.45438,-8.45672)">
				<title>Sheet.4775</title>
				<path d="M5.97 97.23 L0 97.23 L0 103.2 L5.97 103.2 L5.97 97.23 Z" class="st2"/>
			</g>
			<g id="shape4776-36" transform="translate(50.7252,-5.68434E-14)">
				<title>Sheet.4776</title>
				<path d="M2.98 103.2 C1.33 103.2 0 101.87 0 100.22 C0 98.56 1.33 97.23 2.98 97.23 C4.63 97.23 5.97 98.56 5.97 100.22
							 C5.97 101.86 4.62 103.2 2.98 103.2 Z" class="st2"/>
			</g>
			<g id="shape4777-38" transform="translate(33.817,-5.68434E-14)">
				<title>Sheet.4777</title>
				<path d="M5.97 97.23 L0 97.23 L0 103.2 L5.97 103.2 L5.97 97.23 Z" class="st2"/>
			</g>
			<g id="shape4778-40" transform="translate(42.2713,-8.45672)">
				<title>Sheet.4778</title>
				<path d="M5.97 97.23 L0 97.23 L0 103.2 L5.97 103.2 L5.97 97.23 Z" class="st2"/>
			</g>
			<g id="shape4779-42" transform="translate(16.9087,-5.68434E-14)">
				<title>Sheet.4779</title>
				<path d="M2.98 103.2 C1.33 103.2 0 101.87 0 100.22 C0 98.56 1.33 97.23 2.98 97.23 C4.63 97.23 5.97 98.56 5.97 100.22
							 C5.97 101.86 4.62 103.2 2.98 103.2 Z" class="st2"/>
			</g>
			<g id="shape4780-44" transform="translate(8.45438,-5.68434E-14)">
				<title>Sheet.4780</title>
				<path d="M5.97 97.23 L0 97.23 L0 103.2 L5.97 103.2 L5.97 97.23 Z" class="st2"/>
			</g>
			<g id="shape4781-46" transform="translate(25.3632,-8.45672)">
				<title>Sheet.4781</title>
				<path d="M5.97 97.23 L0 97.23 L0 103.2 L5.97 103.2 L5.97 97.23 Z" class="st2"/>
			</g>
		</g>
	</g>
</svg>
