<?xml version="1.0" encoding="UTF-8" standalone="no"?>
<!DOCTYPE svg PUBLIC "-//W3C//DTD SVG 1.1//EN" "http://www.w3.org/Graphics/SVG/1.1/DTD/svg11.dtd">
<!-- Generated by Microsoft Visio, SVG Export Managed Disk Standard HDD.svg Page-1 -->
<svg xmlns="http://www.w3.org/2000/svg" xmlns:xlink="http://www.w3.org/1999/xlink" xmlns:ev="http://www.w3.org/2001/xml-events"
		width="1.52571in" height="1.20472in" viewBox="0 0 109.851 86.7402" xml:space="preserve" color-interpolation-filters="sRGB"
		class="st6">
	<style type="text/css">
	<![CDATA[
		.st1 {fill:#7fba00;stroke:none;stroke-linecap:butt;stroke-width:0.749999}
		.st2 {fill:#b8d432;stroke:none;stroke-linecap:butt;stroke-width:0.749999}
		.st3 {fill:#ffffff;fill-opacity:0.25;stroke:none;stroke-linecap:butt;stroke-width:0.749999}
		.st4 {visibility:visible}
		.st5 {fill:#000000;font-family:Calibri;font-size:0.666664em}
		.st6 {fill:none;fill-rule:evenodd;font-size:12px;overflow:visible;stroke-linecap:square;stroke-miterlimit:3}
	]]>
	</style>

	<g>
		<title>Page-1</title>
		<g id="group9075-1" transform="translate(25.1618,-33.7323)">
			<title>Managed Disk Standard HDD.9075</title>
			<desc>Managed Disk Standard HDD</desc>
			<g id="group9076-2">
				<title>Page-1</title>
				<g id="group9077-3">
					<title>Managed Disk Standard HDD</title>
					<g id="group9078-4">
						<title>Sheet.9078</title>
						<g id="shape9079-5">
							<title>Sheet.9079</title>
							<path d="M56.69 76.47 C56.69 82.15 44 86.74 28.35 86.74 C12.69 86.74 0 82.15 0 76.47 L0 70.95 L56.69
										 70.95 L56.69 76.47 Z" class="st1"/>
						</g>
					</g>
					<g id="group9080-7" transform="translate(0,-5.53254)">
						<title>Sheet.9080</title>
						<g id="shape9081-8">
							<title>Sheet.9081</title>
							<path d="M56.69 76.47 C56.69 82.15 44 86.74 28.35 86.74 C12.69 86.74 0 82.15 0 76.47 C0 70.8 12.69 66.21
										 28.35 66.21 C44 66.21 56.69 70.8 56.69 76.47 Z" class="st2"/>
						</g>
					</g>
					<g id="group9082-10" transform="translate(19.2573,-13.659)">
						<title>Sheet.9082</title>
						<g id="shape9083-11">
							<title>Sheet.9083</title>
							<path d="M18.18 84.01 C18.18 85.52 14.11 86.74 9.08 86.74 C4.07 86.74 0 85.52 0 84.01 C0 82.5 4.07 81.28
										 9.08 81.28 C14.11 81.28 18.18 82.5 18.18 84.01 Z" class="st1"/>
						</g>
					</g>
					<g id="group9084-13" transform="translate(30.1015,-18.2574)">
						<title>Sheet.9084</title>
						<g id="shape9085-14">
							<title>Sheet.9085</title>
							<path d="M18.74 82.17 C14.76 80.66 9.55 79.59 3.68 79.19 L0 85.99 C1.81 86.1 3.43 86.37 4.68 86.74 L18.74
										 82.17 Z" class="st3"/>
						</g>
					</g>
					<g id="group9086-16" transform="translate(6.69199,-5.66746)">
						<title>Sheet.9086</title>
						<g id="shape9087-17">
							<title>Sheet.9087</title>
							<path d="M0 83.29 C4.08 85.03 9.75 86.29 16.2 86.74 L20.5 78.79 C18.71 78.71 17.08 78.49 15.78 78.15
										 L0 83.29 Z" class="st3"/>
						</g>
					</g>
					<g id="group9088-19" transform="translate(0,-22.1256)">
						<title>Sheet.9088</title>
						<g id="shape9089-20">
							<title>Sheet.9089</title>
							<path d="M56.69 76.47 C56.69 82.15 44 86.74 28.35 86.74 C12.69 86.74 0 82.15 0 76.47 L0 70.95 L56.69
										 70.95 L56.69 76.47 Z" class="st1"/>
						</g>
					</g>
					<g id="group9090-22" transform="translate(0,-27.6582)">
						<title>Sheet.9090</title>
						<g id="shape9091-23">
							<title>Sheet.9091</title>
							<path d="M56.69 76.47 C56.69 82.15 44 86.74 28.35 86.74 C12.69 86.74 0 82.15 0 76.47 C0 70.8 12.69 66.21
										 28.35 66.21 C44 66.21 56.69 70.8 56.69 76.47 Z" class="st2"/>
						</g>
					</g>
					<g id="group9092-25" transform="translate(19.2573,-35.7846)">
						<title>Sheet.9092</title>
						<g id="shape9093-26">
							<title>Sheet.9093</title>
							<path d="M18.18 84.01 C18.18 85.52 14.11 86.74 9.08 86.74 C4.07 86.74 0 85.52 0 84.01 C0 82.5 4.07 81.28
										 9.08 81.28 C14.11 81.28 18.18 82.5 18.18 84.01 Z" class="st1"/>
						</g>
					</g>
					<g id="group9094-28" transform="translate(30.1015,-40.4397)">
						<title>Sheet.9094</title>
						<g id="shape9095-29">
							<title>Sheet.9095</title>
							<path d="M18.74 82.17 C14.76 80.66 9.55 79.59 3.68 79.19 L0 85.99 C1.81 86.1 3.43 86.37 4.68 86.74 L18.74
										 82.17 Z" class="st3"/>
						</g>
					</g>
					<g id="group9096-31" transform="translate(6.69199,-27.8498)">
						<title>Sheet.9096</title>
						<g id="shape9097-32">
							<title>Sheet.9097</title>
							<path d="M0 83.29 C4.08 85.03 9.75 86.29 16.2 86.74 L20.5 78.79 C18.71 78.71 17.08 78.49 15.78 78.15
										 L0 83.29 Z" class="st3"/>
						</g>
					</g>
				</g>
			</g>
			<g id="shape9075-34">
				<g id="shadow9075-35" transform="matrix(1,0,0,1,1.41732,1.41732)" class="st4"/>
				<text x="-18.58" y="101.17" class="st5">Managed Disk Standard HDD</text>			</g>
		</g>
	</g>
</svg>
