<?xml version="1.0" encoding="UTF-8" standalone="no"?>
<!DOCTYPE svg PUBLIC "-//W3C//DTD SVG 1.1//EN" "http://www.w3.org/Graphics/SVG/1.1/DTD/svg11.dtd">
<!-- Generated by Microsoft Visio, SVG Export Event Hub.svg Page-1 -->
<svg xmlns="http://www.w3.org/2000/svg" xmlns:xlink="http://www.w3.org/1999/xlink" xmlns:ev="http://www.w3.org/2001/xml-events"
		width="1.73188in" height="1.65332in" viewBox="0 0 124.696 119.039" xml:space="preserve" color-interpolation-filters="sRGB"
		class="st6">
	<style type="text/css">
	<![CDATA[
		.st1 {fill:#76bc2d;stroke:none;stroke-linecap:butt;stroke-width:34}
		.st2 {fill:#86d633;stroke:none;stroke-linecap:butt;stroke-width:34}
		.st3 {fill:#999999;stroke:none;stroke-linecap:butt;stroke-width:34}
		.st4 {fill:#999999;fill-opacity:0.5;stroke:none;stroke-linecap:butt;stroke-width:34}
		.st5 {fill:#949494;stroke:none;stroke-linecap:butt;stroke-width:34}
		.st6 {fill:none;fill-rule:evenodd;font-size:12px;overflow:visible;stroke-linecap:square;stroke-miterlimit:3}
	]]>
	</style>

	<g>
		<title>Page-1</title>
		<g id="group8592-1" transform="translate(34.0026,-34.0157)">
			<title>Event Hub.8592</title>
			<g id="group8593-2">
				<title> Icon-analytics-144</title>
				<g id="shape8594-3" transform="translate(25.7786,-16.1092)">
					<title>Sheet.8594</title>
					<path d="M8.67 107.41 a0.867068 0.876231 0 0 1 -0.800371 0.909932 L0.9 108.32 a0.867068 0.876231 0 0 1 -0.900417
								 -0.808829 L0 102.26 a0.867068 0.876231 0 0 1 0.800371 -0.909932 L7.77 101.35 a0.867068 0.876231
								 0 0 1 0.900417 0.808829 L8.67 107.41 ZM21.04 112.74 a0.867068 0.876231 0 0 1 -0.800371 0.909932
								 L13.27 113.65 a0.867068 0.876231 0 0 1 -0.900417 -0.808829 L12.37 107.61 a0.867068 0.876231 0 0
								 1 0.800371 -0.909932 L20.14 106.7 a0.867068 0.876231 0 0 1 0.900417 0.808829 L21.04 112.74 ZM8.67
								 118.13 a0.867068 0.876231 0 0 1 -0.800371 0.909932 L0.9 119.04 a0.867068 0.876231 0 0 1 -0.900417
								 -0.808829 L0 112.97 a0.867068 0.876231 0 0 1 0.800371 -0.909932 L7.77 112.06 a0.867068 0.876231
								 0 0 1 0.900417 0.808829 L8.67 118.13 Z" class="st1"/>
				</g>
				<g id="shape8595-5" transform="translate(13.2395,-32.1846)">
					<title>Sheet.8595</title>
					<path d="M8.84 118.16 a0.833719 0.84253 0 0 1 -0.767022 0.876231 L0.9 119.04 a0.867068 0.876231 0 0 1 -0.900417
								 -0.775128 L0 112.8 a0.867068 0.876231 0 0 1 0.800371 -0.84253 L7.77 111.96 C8.5 111.96 8.84 112.33
								 8.84 112.87 L8.84 118.16 Z" class="st2"/>
				</g>
				<g id="shape8596-7" transform="translate(13.2395,-10.7507)">
					<title>Sheet.8596</title>
					<path d="M8.84 107.38 a0.833719 0.84253 0 0 1 -0.767022 0.909932 L0.9 108.29 a0.867068 0.876231 0 0 1 -0.900417
								 -0.909932 L0 102.05 a0.867068 0.876231 0 0 1 0.800371 -0.876231 L7.77 101.18 C8.5 101.18 8.84 101.55
								 8.84 102.05 L8.84 107.38 ZM8.84 118.13 a0.833719 0.84253 0 0 1 -0.767022 0.909932 L0.9 119.04 a0.867068
								 0.876231 0 0 1 -0.900417 -0.808829 L0 112.77 a0.833719 0.84253 0 0 1 0.800371 -0.876231 L7.77 111.89
								 C8.5 111.89 8.84 112.23 8.84 112.77 L8.84 118.13 Z" class="st1"/>
				</g>
				<g id="group8597-9" transform="translate(5.64548E-14,-37.9139)">
					<title>Sheet.8597</title>
					<g id="shape8598-10">
						<title>Sheet.8598</title>
						<path d="M1.9 105.93 L6.2 105.93 L6.2 118.06 a0.967114 0.977335 0 0 1 -0.967114 0.977335 L0.97 119.04 a0.967114
									 0.977335 0 0 1 -0.967114 -0.977335 L0 107.95 A1.90088 1.92097 0 0 1 1.9 105.93 Z" class="st3"/>
					</g>
					<g id="shape8599-12">
						<title>Sheet.8599</title>
						<path d="M1.9 105.93 L6.2 105.93 L6.2 118.06 a0.967114 0.977335 0 0 1 -0.967114 0.977335 L0.97 119.04 a0.967114
									 0.977335 0 0 1 -0.967114 -0.977335 L0 107.95 A1.90088 1.92097 0 0 1 1.9 105.93 Z" class="st4"/>
					</g>
				</g>
				<g id="group8600-14" transform="translate(50.4567,-38.015)">
					<title>Sheet.8600</title>
					<g id="shape8601-15">
						<title>Sheet.8601</title>
						<path d="M0.03 106.03 L4.34 106.03 A1.90088 1.92097 0 0 1 6.24 107.95 L6.24 118.06 a0.967114 0.977335 0 0
									 1 -0.967114 0.977335 L0.97 119.04 a0.967114 0.977335 0 0 1 -0.967114 -0.977335 L0 106.03 L0.03
									 106.03 Z" class="st3"/>
					</g>
					<g id="shape8602-17">
						<title>Sheet.8602</title>
						<path d="M0.03 106.03 L4.34 106.03 A1.90088 1.92097 0 0 1 6.24 107.95 L6.24 118.06 a0.967114 0.977335 0 0
									 1 -0.967114 0.977335 L0.97 119.04 a0.967114 0.977335 0 0 1 -0.967114 -0.977335 L0 106.03 L0.03
									 106.03 Z" class="st4"/>
					</g>
				</g>
				<g id="shape8603-19" transform="translate(0,-44.89)">
					<title>Sheet.8603</title>
					<path d="M56.69 114.83 L56.69 119.04 L0 119.04 L0 114.83 A1.90088 1.92097 0 0 1 1.9 112.91 L54.83 112.91 A1.90088
								 1.92097 0 0 1 56.69 114.83 Z" class="st5"/>
				</g>
				<g id="group8604-21">
					<title>Sheet.8604</title>
					<g id="shape8605-22">
						<title>Sheet.8605</title>
						<path d="M0.97 105.93 L5.27 105.93 a0.967114 0.977335 0 0 1 0.967114 0.977335 L6.24 119.04 L1.9 119.04 A1.90088
									 1.92097 0 0 1 0 117.12 L0 106.74 a0.967114 0.977335 0 0 1 0.967114 -0.808829 Z" class="st3"/>
					</g>
					<g id="shape8606-24">
						<title>Sheet.8606</title>
						<path d="M0.97 105.93 L5.27 105.93 a0.967114 0.977335 0 0 1 0.967114 0.977335 L6.24 119.04 L1.9 119.04 A1.90088
									 1.92097 0 0 1 0 117.12 L0 106.74 a0.967114 0.977335 0 0 1 0.967114 -0.808829 Z" class="st4"/>
					</g>
				</g>
				<g id="group8607-26" transform="translate(50.49,-0.101104)">
					<title>Sheet.8607</title>
					<g id="shape8608-27">
						<title>Sheet.8608</title>
						<path d="M0.93 106.03 L5.24 106.03 a0.967114 0.977335 0 0 1 0.967114 0.977335 L6.2 117.12 A1.90088 1.92097
									 0 0 1 4.3 119.04 L0 119.04 L0 106.84 a0.967114 0.977335 0 0 1 0.933766 -0.808829 Z"
								class="st3"/>
					</g>
					<g id="shape8609-29">
						<title>Sheet.8609</title>
						<path d="M0.93 106.03 L5.24 106.03 a0.967114 0.977335 0 0 1 0.967114 0.977335 L6.2 117.12 A1.90088 1.92097
									 0 0 1 4.3 119.04 L0 119.04 L0 106.84 a0.967114 0.977335 0 0 1 0.933766 -0.808829 Z"
								class="st4"/>
					</g>
				</g>
				<g id="shape8610-31">
					<title>Sheet.8610</title>
					<path d="M0 117.12 L0 112.91 L56.69 112.91 L56.69 117.12 A1.90088 1.92097 0 0 1 54.79 119.04 L1.9 119.04 A1.90088
								 1.92097 0 0 1 0 117.12 Z" class="st5"/>
				</g>
			</g>
		</g>
	</g>
</svg>
