<?xml version="1.0" encoding="UTF-8" standalone="no"?>
<!DOCTYPE svg PUBLIC "-//W3C//DTD SVG 1.1//EN" "http://www.w3.org/Graphics/SVG/1.1/DTD/svg11.dtd">
<!-- Generated by Microsoft Visio, SVG Export Built-in Endpoint.svg Page-1 -->
<svg xmlns="http://www.w3.org/2000/svg" xmlns:xlink="http://www.w3.org/1999/xlink" xmlns:ev="http://www.w3.org/2001/xml-events"
		width="1.92227in" height="1.64668in" viewBox="0 0 138.404 118.561" xml:space="preserve" color-interpolation-filters="sRGB"
		class="st3">
	<style type="text/css">
	<![CDATA[
		.st1 {fill:#ff8c00;stroke:none;stroke-linecap:butt;stroke-width:40.8553}
		.st2 {fill:#7a7a7a;stroke:none;stroke-linecap:butt;stroke-width:40.8553}
		.st3 {fill:none;fill-rule:evenodd;font-size:12px;overflow:visible;stroke-linecap:square;stroke-miterlimit:3}
	]]>
	</style>

	<g>
		<title>Page-1</title>
		<g id="group16071-1" transform="translate(40.8553,-40.8553)">
			<title>Built-in Endpoint.16071</title>
			<g id="group16072-2">
				<title>g10</title>
				<g id="shape16073-3" transform="translate(16.198,-16.378)">
					<title>path4</title>
					<rect x="0" y="114.467" width="40.4949" height="4.09449" class="st1"/>
				</g>
				<g id="shape16074-5" transform="translate(10.2293,-10.5269)">
					<title>path6</title>
					<path d="M7.99 118.56 A7.81552 7.90236 0 1 1 7.99 102.76 A7.81552 7.90236 0 0 1 7.99 118.56 Z" class="st1"/>
				</g>
				<g id="shape16075-7">
					<title>path8</title>
					<path d="M21.9 82.08 C29.11 84.26 32.24 87.2 35.06 93.99 L30.75 93.99 C28.84 88.53 23.48 86.34 18.22 85.81 A14.1732
								 14.3307 -180 0 0 18.22 114.47 C23.67 114.27 28.6 111.44 30.75 106.28 L35.06 106.28 C32.64 114.19
								 25.94 117.77 18.22 118.56 A18.2227 18.4252 0 0 1 18.22 81.71 L21.9 82.08 Z" class="st2"/>
				</g>
			</g>
		</g>
	</g>
</svg>
