<?xml version="1.0" encoding="UTF-8" standalone="no"?>
<!-- Generated by Microsoft Visio, SVG Export App Service API Definition.svg Page-1 -->

<svg
   xmlns:dc="http://purl.org/dc/elements/1.1/"
   xmlns:cc="http://creativecommons.org/ns#"
   xmlns:rdf="http://www.w3.org/1999/02/22-rdf-syntax-ns#"
   xmlns:svg="http://www.w3.org/2000/svg"
   xmlns="http://www.w3.org/2000/svg"
   xmlns:sodipodi="http://sodipodi.sourceforge.net/DTD/sodipodi-0.dtd"
   xmlns:inkscape="http://www.inkscape.org/namespaces/inkscape"
   width="0.62985766in"
   height="0.78737205in"
   viewBox="0 0 45.349495 56.691098"
   xml:space="preserve"
   class="st5"
   version="1.1"
   id="svg57"
   sodipodi:docname="App Service API Definition.svg"
   style="font-size:12px;overflow:visible;color-interpolation-filters:sRGB;fill:none;fill-rule:evenodd;stroke-linecap:square;stroke-miterlimit:3"
   inkscape:version="0.92.5 (2060ec1f9f, 2020-04-08)"><metadata
   id="metadata61"><rdf:RDF><cc:Work
       rdf:about=""><dc:format>image/svg+xml</dc:format><dc:type
         rdf:resource="http://purl.org/dc/dcmitype/StillImage" /></cc:Work></rdf:RDF></metadata><sodipodi:namedview
   pagecolor="#ffffff"
   bordercolor="#666666"
   borderopacity="1"
   objecttolerance="10"
   gridtolerance="10"
   guidetolerance="10"
   inkscape:pageopacity="0"
   inkscape:pageshadow="2"
   inkscape:window-width="640"
   inkscape:window-height="480"
   id="namedview59"
   showgrid="false"
   inkscape:zoom="1.4193119"
   inkscape:cx="30.235832"
   inkscape:cy="37.786193"
   inkscape:window-x="0"
   inkscape:window-y="0"
   inkscape:window-maximized="0"
   inkscape:current-layer="svg57" />
	<style
   type="text/css"
   id="style2">
	<![CDATA[
		.st1 {fill:#32bedd;stroke:none;stroke-linecap:butt;stroke-width:34}
		.st2 {fill:url(#grad0-8);stroke:none;stroke-linecap:butt;stroke-width:34}
		.st3 {fill:url(#grad0-18)}
		.st4 {stroke:none;stroke-linecap:butt;stroke-width:34}
		.st5 {fill:none;fill-rule:evenodd;font-size:12px;overflow:visible;stroke-linecap:square;stroke-miterlimit:3}
	]]>
	</style>

	<defs
   id="Patterns_And_Gradients">
		<linearGradient
   id="grad0-8"
   x1="-1.0776082e-06"
   y1="116.49409"
   x2="6.9696505"
   y2="116.49409"
   gradientTransform="scale(0.99000675,1.0100941)"
   gradientUnits="userSpaceOnUse">
			<stop
   offset="0"
   stop-color="#c69aeb"
   stop-opacity="1"
   id="stop4" />
			<stop
   offset="1"
   stop-color="#6f4bb2"
   stop-opacity="1"
   id="stop6" />
		</linearGradient>
		<linearGradient
   id="grad0-18"
   x1="-1.6746838e-08"
   y1="60.837596"
   x2="50.703959"
   y2="60.837596"
   gradientTransform="scale(0.89440747,1.1180586)"
   gradientUnits="userSpaceOnUse">
			<stop
   offset="0"
   stop-color="#50e6ff"
   stop-opacity="1"
   id="stop9" />
			<stop
   offset="1"
   stop-color="#32bedd"
   stop-opacity="1"
   id="stop11" />
		</linearGradient>
	</defs>
	<g
   id="g55"
   transform="translate(-34.000633,-34.0032)">
		<title
   id="title15">Page-1</title>
		<g
   id="group14787-1"
   transform="translate(34,-34.0157)">
			<title
   id="title17">App Service API Definition.14787</title>
			<g
   id="group14788-2">
				<title
   id="title19">Sheet.14788</title>
				<g
   id="shape14789-3"
   transform="translate(10.0119,-30.6811)">
					<title
   id="title21">Sheet.14789</title>
					<path
   d="M 9.34,117.57 H 3.48 A 3.47408,3.54646 0 0 1 0,114.03 V 98.7 h 3.24 v 15.33 a 0.2314,0.23622 -180 0 0 0.2314,0.23622 L 9.33,114.26 Z M 22.17,98.7 v 15.33 a 0.2314,0.23622 0 0 1 -0.243741,0.23622 L 19.27,114.26 v -0.06 a 8.66977,8.85039 -180 0 0 -8.55,-7.18 1.4165721,1.4460771 -180 1 0 -0.35,2.87 1.67533,1.71024 -180 0 0 0.35,0 5.86212,5.98425 0 0 1 0,11.94 1.4165689,1.4460772 -180 0 0 -0.35,2.87 1.34212,1.37008 -180 0 0 0.35,0 8.65743,8.8378 -180 0 0 8.48,-7.13 h 2.72 a 3.47408,3.54646 -180 0 0 3.48,-3.54 V 98.7 Z"
   class="st1"
   id="path23"
   inkscape:connector-curvature="0"
   style="fill:#32bedd;stroke:none;stroke-width:34;stroke-linecap:butt" />
				</g>
				<g
   id="shape14790-5"
   transform="translate(15.9635,-36.0189)">
					<title
   id="title26">Sheet.14790</title>
					<path
   d="m 0,121.23 a 3.40628,3.47725 -180 0 0 3.41,3.48 h 0.08 a 3.40628,3.47725 -180 0 0 3.41,-3.48 v -0.09 A 3.40628,3.47725 -180 0 0 3.49,117.67 H 3.41 A 3.40628,3.47725 -180 0 0 0,121.14 Z"
   class="st2"
   id="path28"
   inkscape:connector-curvature="0"
   style="fill:url(#grad0-8);stroke:none;stroke-width:34;stroke-linecap:butt" />
				</g>
				<g
   id="shape14791-9"
   transform="translate(10.774,-20.5008)">
					<title
   id="title31">Sheet.14791</title>
					<path
   d="m 0,123.23 a 1.45014,1.48035 -180 0 0 1.45,1.48 h 21.17 a 1.45014,1.48035 -180 0 0 1.45,-1.48 v -0.34 a 1.45014,1.48035 -180 0 0 -1.45,-1.48 H 1.45 A 1.45014,1.48035 -180 0 0 0,122.89 Z"
   class="st1"
   id="path33"
   inkscape:connector-curvature="0"
   style="fill:#32bedd;stroke:none;stroke-width:34;stroke-linecap:butt" />
				</g>
				<g
   id="shape14792-11"
   transform="translate(10.774,-14.5953)">
					<title
   id="title36">Sheet.14792</title>
					<path
   d="m 0,123.23 a 1.45014,1.48035 -180 0 0 1.45,1.48 h 21.17 a 1.45014,1.48035 -180 0 0 1.45,-1.48 v -0.34 a 1.45014,1.48035 -180 0 0 -1.45,-1.48 H 1.45 A 1.45014,1.48035 -180 0 0 0,122.89 Z"
   class="st1"
   id="path38"
   inkscape:connector-curvature="0"
   style="fill:#32bedd;stroke:none;stroke-width:34;stroke-linecap:butt" />
				</g>
				<g
   id="shape14793-13"
   transform="translate(10.774,-8.68661)">
					<title
   id="title41">Sheet.14793</title>
					<path
   d="m 0,123.23 a 1.45014,1.48035 -180 0 0 1.45,1.48 h 12.27 a 1.45014,1.48035 -180 0 0 1.45,-1.48 v -0.34 a 1.45014,1.48035 -180 0 0 -1.45,-1.48 H 1.45 A 1.45014,1.48035 -180 0 0 0,122.89 Z"
   class="st1"
   id="path43"
   inkscape:connector-curvature="0"
   style="fill:#32bedd;stroke:none;stroke-width:34;stroke-linecap:butt" />
				</g>
				<g
   id="shape14794-15">
					<title
   id="title46">Sheet.14794</title>
					<path
   d="m 42.28,71.17 v 50.39 H 3.09 V 71.17 H 42.27 Z M 43.5,68.02 H 1.85 A 1.8512,1.88976 -180 0 0 0,69.91 v 52.91 a 1.8512,1.88976 -180 0 0 1.85,1.89 H 43.5 a 1.8512,1.88976 -180 0 0 1.85,-1.89 V 69.91 A 1.8512,1.88976 -180 0 0 43.5,68.02 Z"
   class="st3"
   id="path48"
   inkscape:connector-curvature="0"
   style="fill:url(#grad0-18)" />
					<path
   d="m 42.28,71.17 v 50.39 H 3.09 V 71.17 H 42.27 M 43.5,68.02 H 1.85 A 1.8512,1.88976 -180 0 0 0,69.91 v 52.91 a 1.8512,1.88976 -180 0 0 1.85,1.89 H 43.5 a 1.8512,1.88976 -180 0 0 1.85,-1.89 V 69.91 A 1.8512,1.88976 -180 0 0 43.5,68.02"
   class="st4"
   id="path50"
   inkscape:connector-curvature="0"
   style="stroke:none;stroke-width:34;stroke-linecap:butt" />
				</g>
			</g>
		</g>
	</g>
</svg>