<?xml version="1.0" encoding="UTF-8" standalone="no"?>
<!-- Generated by Microsoft Visio, SVG Export Service Endpoint Policy.svg Page-1 -->

<svg
   xmlns:dc="http://purl.org/dc/elements/1.1/"
   xmlns:cc="http://creativecommons.org/ns#"
   xmlns:rdf="http://www.w3.org/1999/02/22-rdf-syntax-ns#"
   xmlns:svg="http://www.w3.org/2000/svg"
   xmlns="http://www.w3.org/2000/svg"
   xmlns:sodipodi="http://sodipodi.sourceforge.net/DTD/sodipodi-0.dtd"
   xmlns:inkscape="http://www.inkscape.org/namespaces/inkscape"
   width="0.74823821in"
   height="0.77866393in"
   viewBox="0 0 53.873151 56.063911"
   xml:space="preserve"
   class="st6"
   version="1.1"
   id="svg75"
   sodipodi:docname="Service Endpoint Policy.svg"
   style="font-size:12px;overflow:visible;color-interpolation-filters:sRGB;fill:none;fill-rule:evenodd;stroke-linecap:square;stroke-miterlimit:3"
   inkscape:version="0.92.5 (2060ec1f9f, 2020-04-08)"><metadata
   id="metadata79"><rdf:RDF><cc:Work
       rdf:about=""><dc:format>image/svg+xml</dc:format><dc:type
         rdf:resource="http://purl.org/dc/dcmitype/StillImage" /></cc:Work></rdf:RDF></metadata><sodipodi:namedview
   pagecolor="#ffffff"
   bordercolor="#666666"
   borderopacity="1"
   objecttolerance="10"
   gridtolerance="10"
   guidetolerance="10"
   inkscape:pageopacity="0"
   inkscape:pageshadow="2"
   inkscape:window-width="640"
   inkscape:window-height="480"
   id="namedview77"
   showgrid="false"
   inkscape:zoom="1.4265018"
   inkscape:cx="35.923224"
   inkscape:cy="37.365665"
   inkscape:window-x="0"
   inkscape:window-y="0"
   inkscape:window-maximized="0"
   inkscape:current-layer="svg75" />
	<style
   type="text/css"
   id="style2">
	<![CDATA[
		.st1 {fill:#0078d4;stroke:none;stroke-linecap:butt;stroke-width:34}
		.st2 {fill:url(#grad0-8);stroke:none;stroke-linecap:butt;stroke-width:34}
		.st3 {fill:#f2f2f2;stroke:none;stroke-linecap:butt;stroke-width:34}
		.st4 {fill:#5ea0ef;stroke:none;stroke-linecap:butt;stroke-width:34}
		.st5 {fill:#b3b3b3;stroke:none;stroke-linecap:butt;stroke-width:34}
		.st6 {fill:none;fill-rule:evenodd;font-size:12px;overflow:visible;stroke-linecap:square;stroke-miterlimit:3}
	]]>
	</style>

	<defs
   id="Patterns_And_Gradients">
		<linearGradient
   id="grad0-8"
   x1="0"
   y1="61.044555"
   x2="50.317455"
   y2="61.044555"
   gradientTransform="scale(0.89750167,1.1142041)"
   gradientUnits="userSpaceOnUse">
			<stop
   offset="0"
   stop-color="#0078d4"
   stop-opacity="1"
   id="stop4" />
			<stop
   offset="0.82"
   stop-color="#5ea0ef"
   stop-opacity="1"
   id="stop6" />
		</linearGradient>
	</defs>
	<g
   id="g73"
   transform="translate(-33.987647,-34.00039)">
		<title
   id="title10">Page-1</title>
		<g
   id="group13758-1"
   transform="translate(34,-34.0157)">
			<title
   id="title12">Service Endpoint Policy.13758</title>
			<g
   id="group13759-2">
				<title
   id="title14">Icon-networking-85</title>
				<g
   id="shape13760-3"
   transform="translate(40.8994,-44.886)">
					<title
   id="title16">Sheet.13760</title>
					<path
   d="m 0.23,120.78 a 7.55931,7.61842 0 0 1 7.53,-7.65 6.08672,6.13431 0 0 1 5.2,6.2 6.08672,6.13431 0 0 1 -1.34,3.89 2.32343,2.34159 0 0 1 -1.8,0.86 H 0 Z"
   class="st1"
   id="path18"
   inkscape:connector-curvature="0"
   style="fill:#0078d4;stroke:none;stroke-width:34;stroke-linecap:butt" />
				</g>
				<g
   id="shape13761-5"
   transform="translate(4.93544)">
					<title
   id="title21">Sheet.13761</title>
					<path
   d="M 36.88,68.08 H 7.43 A 7.49387,7.55246 -180 0 0 0,75.63 v 48.45 h 29.45 a 7.49387,7.55246 -180 0 0 7.5,-7.55 V 83.84 a 84.2978,84.9569 0 0 1 0,-9.89 c 1.17,-6.56 8.21,-5.41 8.21,-5.41 a 36.4221,36.7069 -180 0 0 -8.28,-0.46 z"
   class="st2"
   id="path23"
   inkscape:connector-curvature="0"
   style="fill:url(#grad0-8);stroke:none;stroke-width:34;stroke-linecap:butt" />
				</g>
				<g
   id="shape13762-9"
   transform="translate(21.0031,-15.7206)">
					<title
   id="title26">Sheet.13762</title>
					<path
   d="m 2.62,120.51 v -15.5 a 1.73439,1.74795 -180 0 0 0.88,-1.52 1.76711,1.78093 -180 0 0 -1.77,-1.78 1.76711,1.78093 -180 0 0 -0.85,3.3 v 15.5 a 1.79984,1.81391 -180 0 0 -0.88,1.55 1.76711,1.78093 -180 1 0 3.5,0 1.79984,1.81391 -180 0 0 -0.88,-1.55 z"
   class="st3"
   id="path28"
   inkscape:connector-curvature="0"
   style="fill:#f2f2f2;stroke:none;stroke-width:34;stroke-linecap:butt" />
				</g>
				<g
   id="shape13763-11"
   transform="translate(0,-0.197881)">
					<title
   id="title31">Sheet.13763</title>
					<path
   d="M 34.91,124.08 A 6.02127,6.06835 0 0 1 32,113.39 0.752659,0.758544 -180 0 0 31.509135,112.03781 L 4.97,112.04 a 6.054,6.10133 -180 0 0 0,12.01 4.45051,4.4853 -180 0 0 0.95,0 z"
   class="st4"
   id="path33"
   inkscape:connector-curvature="0"
   style="fill:#5ea0ef;stroke:none;stroke-width:34;stroke-linecap:butt" />
				</g>
				<g
   id="shape13764-13"
   transform="translate(26.5335,-34.4643)">
					<title
   id="title36">Sheet.13764</title>
					<ellipse
   cx="1.79984"
   cy="122.266"
   rx="1.79984"
   ry="1.81391"
   class="st3"
   id="ellipse38"
   style="fill:#f2f2f2;stroke:none;stroke-width:34;stroke-linecap:butt" />
				</g>
				<g
   id="shape13765-15"
   transform="translate(20.8067,-34.4643)">
					<title
   id="title41">Sheet.13765</title>
					<ellipse
   cx="1.79984"
   cy="122.266"
   rx="1.79984"
   ry="1.81391"
   class="st3"
   id="ellipse43"
   style="fill:#f2f2f2;stroke:none;stroke-width:34;stroke-linecap:butt" />
				</g>
				<g
   id="shape13766-17"
   transform="translate(15.1127,-34.4643)">
					<title
   id="title46">Sheet.13766</title>
					<ellipse
   cx="1.79984"
   cy="122.266"
   rx="1.79984"
   ry="1.81391"
   class="st3"
   id="ellipse48"
   style="fill:#f2f2f2;stroke:none;stroke-width:34;stroke-linecap:butt" />
				</g>
				<g
   id="shape13767-19"
   transform="translate(8.65278,-27.9131)">
					<title
   id="title51">Sheet.13767</title>
					<path
   d="m 8.42,123.99 1.05,-1.05 a 0.490865,0.494703 -180 0 0 0,-0.6596 L 1.32,114.1 0.28,115.15 a 0.91628,0.923445 -180 0 0 0,1.31921 L 7.87,123.99 a 0.490865,0.494703 -180 0 0 0.556313,0 z"
   class="st5"
   id="path53"
   inkscape:connector-curvature="0"
   style="fill:#b3b3b3;stroke:none;stroke-width:34;stroke-linecap:butt" />
				</g>
				<g
   id="shape13768-21"
   transform="translate(8.65278,-34.5962)">
					<title
   id="title56">Sheet.13768</title>
					<path
   d="m 9.41,115.17 -0.99,-0.98 a 0.490865,0.494703 -180 0 0 -0.654486,0 L 0.28,121.67 a 0.91628,0.923445 -180 0 0 0,1.31921 l 1.01,1.09079 8.12,-8.25 a 0.425416,0.428742 -180 0 0 0,-0.6596 z"
   class="st3"
   id="path58"
   inkscape:connector-curvature="0"
   style="fill:#f2f2f2;stroke:none;stroke-width:34;stroke-linecap:butt" />
				</g>
				<g
   id="shape13769-23"
   transform="translate(26.7399,-27.8742)">
					<title
   id="title61">Sheet.13769</title>
					<path
   d="m 1.2,123.95 -1.05,-1.08 a 0.425416,0.428742 0 0 1 0,-0.6596 l 8.28,-8.1504 1.02,1.05 a 0.91628,0.923445 0 0 1 0,1.31921 L 1.86,123.95 a 0.490865,0.494703 0 0 1 -0.654486,0 z"
   class="st5"
   id="path63"
   inkscape:connector-curvature="0"
   style="fill:#b3b3b3;stroke:none;stroke-width:34;stroke-linecap:butt" />
				</g>
				<g
   id="shape13770-25"
   transform="translate(26.9321,-34.5962)">
					<title
   id="title66">Sheet.13770</title>
					<path
   d="m 0.12,115.17 1.05,-0.98 a 0.490865,0.494703 0 0 1 0.654486,0 L 9.26,121.7 a 0.91628,0.923445 0 0 1 0,1.31921 L 8.24,124.08 0.12,115.83 a 0.490865,0.494703 0 0 1 0,-0.6596 z"
   class="st3"
   id="path68"
   inkscape:connector-curvature="0"
   style="fill:#f2f2f2;stroke:none;stroke-width:34;stroke-linecap:butt" />
				</g>
			</g>
		</g>
	</g>
</svg>