<?xml version="1.0" encoding="UTF-8" standalone="no"?>
<!-- Generated by Microsoft Visio, SVG Export Web Hook.svg Page-1 -->

<svg
   xmlns:dc="http://purl.org/dc/elements/1.1/"
   xmlns:cc="http://creativecommons.org/ns#"
   xmlns:rdf="http://www.w3.org/1999/02/22-rdf-syntax-ns#"
   xmlns:svg="http://www.w3.org/2000/svg"
   xmlns="http://www.w3.org/2000/svg"
   xmlns:sodipodi="http://sodipodi.sourceforge.net/DTD/sodipodi-0.dtd"
   xmlns:inkscape="http://www.inkscape.org/namespaces/inkscape"
   width="0.76119167in"
   height="0.71227914in"
   viewBox="0 0 54.806008 51.283993"
   xml:space="preserve"
   class="st4"
   version="1.1"
   id="svg29"
   sodipodi:docname="Web Hook.svg"
   style="font-size:12px;overflow:visible;color-interpolation-filters:sRGB;fill:none;fill-rule:evenodd;stroke-linecap:square;stroke-miterlimit:3"
   inkscape:version="0.92.5 (2060ec1f9f, 2020-04-08)"><metadata
   id="metadata35"><rdf:RDF><cc:Work
       rdf:about=""><dc:format>image/svg+xml</dc:format><dc:type
         rdf:resource="http://purl.org/dc/dcmitype/StillImage" /></cc:Work></rdf:RDF></metadata><defs
   id="defs33" /><sodipodi:namedview
   pagecolor="#ffffff"
   bordercolor="#666666"
   borderopacity="1"
   objecttolerance="10"
   gridtolerance="10"
   guidetolerance="10"
   inkscape:pageopacity="0"
   inkscape:pageshadow="2"
   inkscape:window-width="640"
   inkscape:window-height="480"
   id="namedview31"
   showgrid="false"
   inkscape:zoom="1.7903527"
   inkscape:cx="36.536691"
   inkscape:cy="18.791653"
   inkscape:window-x="0"
   inkscape:window-y="0"
   inkscape:window-maximized="0"
   inkscape:current-layer="svg29" />
	<style
   type="text/css"
   id="style2">
	<![CDATA[
		.st1 {fill:#c73a63;stroke:none;stroke-linecap:butt;stroke-width:12.24}
		.st2 {fill:#4b4b4b;stroke:none;stroke-linecap:butt;stroke-width:12.24}
		.st3 {fill:#4a4a4a;stroke:none;stroke-linecap:butt;stroke-width:12.24}
		.st4 {fill:none;fill-rule:evenodd;font-size:12px;overflow:visible;stroke-linecap:square;stroke-miterlimit:3}
	]]>
	</style>

	<g
   id="g27"
   transform="translate(-12.240728,-12.24129)">
		<title
   id="title4">Page-1</title>
		<g
   id="group13673-1"
   transform="translate(11.8041,-34.0157)">
			<title
   id="title6">Web Hook.13673</title>
			<g
   id="group13674-2">
				<title
   id="title8">Sheet.13674</title>
				<g
   id="shape13675-3"
   transform="translate(7.74525,-8.59388)">
					<title
   id="title10">Sheet.13675</title>
					<path
   d="m 18.38,76.35 c -2.28,3.85 -4.47,7.58 -6.7,11.28 -0.57,0.95 -0.85,1.72 -0.4,2.93 1.27,3.34 -0.51,6.59 -3.86,7.47 C 4.26,98.86 1.18,96.78 0.55,93.38 0,90.37 2.32,87.42 5.62,86.95 5.9,86.91 6.18,86.91 6.64,86.87 l 5.03,-8.46 C 8.51,75.26 6.63,71.57 7.04,67 c 0.3,-3.23 1.56,-6.02 3.87,-8.31 4.43,-4.38 11.18,-5.09 16.38,-1.73 5.01,3.23 7.3,9.53 5.35,14.91 l -4.59,-1.25 c 0.61,-2.99 0.16,-5.68 -1.85,-7.99 -1.33,-1.52 -3.03,-2.31 -4.97,-2.61 -3.88,-0.59 -7.69,1.92 -8.82,5.75 -1.29,4.35 0.66,7.9 5.97,10.58 z"
   class="st1"
   id="path12"
   inkscape:connector-curvature="0"
   style="fill:#c73a63;stroke:none;stroke-width:12.23999977;stroke-linecap:butt" />
				</g>
				<g
   id="shape13676-5"
   transform="translate(22.3424)">
					<title
   id="title15">Sheet.13676</title>
					<path
   d="m 10.29,63.2 4.85,8.6 c 8.17,-2.54 14.33,2.01 16.54,6.87 2.67,5.88 0.85,12.84 -4.4,16.47 -5.38,3.72 -12.18,3.09 -16.95,-1.7 l 3.74,-3.14 c 4.71,3.06 8.83,2.92 11.89,-0.71 2.6,-3.1 2.55,-7.71 -0.14,-10.75 C 22.73,75.35 18.58,75.24 13.57,78.6 11.49,74.89 9.37,71.21 7.36,67.48 6.68,66.22 5.93,65.49 4.4,65.22 1.85,64.78 0.2,62.57 0.1,60.1 0,57.66 1.43,55.45 3.67,54.58 c 2.22,-0.85 4.82,-0.16 6.31,1.74 1.22,1.54 1.61,3.29 0.97,5.2 -0.18,0.53 -0.41,1.04 -0.66,1.68 z"
   class="st2"
   id="path17"
   inkscape:connector-curvature="0"
   style="fill:#4b4b4b;stroke:none;stroke-width:12.23999977;stroke-linecap:butt" />
				</g>
				<g
   id="shape13677-7"
   transform="translate(0,-1.25713)">
					<title
   id="title20">Sheet.13677</title>
					<path
   d="m 36.47,87.74 h -9.83 c -0.95,3.89 -2.98,7.04 -6.49,9.04 -2.73,1.55 -5.67,2.08 -8.8,1.57 C 5.59,97.42 0.88,92.21 0.47,86.34 0,79.69 4.55,73.78 10.61,72.45 l 1.26,4.6 c -5.56,2.85 -7.49,6.44 -5.93,10.93 1.37,3.96 5.26,6.12 9.48,5.28 4.32,-0.85 6.49,-4.46 6.23,-10.24 4.09,0 8.18,-0.04 12.27,0.02 1.6,0.03 2.83,-0.14 4.04,-1.56 1.98,-2.32 5.62,-2.11 7.76,0.09 2.18,2.24 2.07,5.86 -0.23,8.01 -2.23,2.08 -5.75,1.97 -7.83,-0.27 -0.43,-0.46 -0.77,-1.01 -1.19,-1.57 z"
   class="st3"
   id="path22"
   inkscape:connector-curvature="0"
   style="fill:#4a4a4a;stroke:none;stroke-width:12.23999977;stroke-linecap:butt" />
				</g>
			</g>
		</g>
	</g>
</svg>