<?xml version="1.0" encoding="UTF-8" standalone="no"?>
<!-- Generated by Microsoft Visio, SVG Export IoT Asset.svg Page-1 -->

<svg
   xmlns:dc="http://purl.org/dc/elements/1.1/"
   xmlns:cc="http://creativecommons.org/ns#"
   xmlns:rdf="http://www.w3.org/1999/02/22-rdf-syntax-ns#"
   xmlns:svg="http://www.w3.org/2000/svg"
   xmlns="http://www.w3.org/2000/svg"
   xmlns:xlink="http://www.w3.org/1999/xlink"
   xmlns:sodipodi="http://sodipodi.sourceforge.net/DTD/sodipodi-0.dtd"
   xmlns:inkscape="http://www.inkscape.org/namespaces/inkscape"
   width="0.78736061in"
   height="0.79199284in"
   viewBox="0 0 56.689872 57.023651"
   xml:space="preserve"
   class="st6"
   version="1.1"
   id="svg60"
   sodipodi:docname="IoT Asset.svg"
   style="font-size:12px;overflow:visible;color-interpolation-filters:sRGB;fill:none;fill-rule:evenodd;stroke-linecap:square;stroke-miterlimit:3"
   inkscape:version="0.92.5 (2060ec1f9f, 2020-04-08)"><metadata
   id="metadata64"><rdf:RDF><cc:Work
       rdf:about=""><dc:format>image/svg+xml</dc:format><dc:type
         rdf:resource="http://purl.org/dc/dcmitype/StillImage" /></cc:Work></rdf:RDF></metadata><sodipodi:namedview
   pagecolor="#ffffff"
   bordercolor="#666666"
   borderopacity="1"
   objecttolerance="10"
   gridtolerance="10"
   guidetolerance="10"
   inkscape:pageopacity="0"
   inkscape:pageshadow="2"
   inkscape:window-width="640"
   inkscape:window-height="480"
   id="namedview62"
   showgrid="false"
   inkscape:zoom="1.4155851"
   inkscape:cx="37.795225"
   inkscape:cy="38.007623"
   inkscape:window-x="0"
   inkscape:window-y="0"
   inkscape:window-maximized="0"
   inkscape:current-layer="svg60" />
	<style
   type="text/css"
   id="style2">
	<![CDATA[
		.st1 {fill:url(#grad0-6);stroke:none;stroke-linecap:butt;stroke-width:34}
		.st2 {fill:url(#grad0-10);stroke:none;stroke-linecap:butt;stroke-width:34}
		.st3 {fill:url(#grad0-14);stroke:none;stroke-linecap:butt;stroke-width:34}
		.st4 {fill:#7de3fc;stroke:none;stroke-linecap:butt;stroke-width:34}
		.st5 {fill:#198ab3;stroke:none;stroke-linecap:butt;stroke-width:34}
		.st6 {fill:none;fill-rule:evenodd;font-size:12px;overflow:visible;stroke-linecap:square;stroke-miterlimit:3}
	]]>
	</style>

	<defs
   id="Patterns_And_Gradients">
		<linearGradient
   id="grad0-6"
   x1="0"
   y1="0"
   x2="1"
   y2="0">
			<stop
   offset="0.535"
   stop-color="#773adc"
   stop-opacity="1"
   id="stop4" />
			<stop
   offset="1"
   stop-color="#552f99"
   stop-opacity="1"
   id="stop6" />
		</linearGradient>
		<linearGradient
   id="grad0-10"
   x1="-0.00053960063"
   y1="138.55713"
   x2="9.6276647"
   y2="138.55713"
   gradientTransform="scale(1.1851264,0.84379182)"
   gradientUnits="userSpaceOnUse">
			<stop
   offset="0.535"
   stop-color="#773adc"
   stop-opacity="1"
   id="stop9" />
			<stop
   offset="1"
   stop-color="#552f99"
   stop-opacity="1"
   id="stop11" />
		</linearGradient>
		<linearGradient
   id="grad0-14"
   x1="0.76058359"
   y1="87.282791"
   x2="20.572492"
   y2="87.282791"
   gradientTransform="scale(0.85648352,1.1675648)"
   gradientUnits="userSpaceOnUse">
			<stop
   offset="0.505"
   stop-color="#b796f9"
   stop-opacity="1"
   id="stop14" />
			<stop
   offset="1"
   stop-color="#a67af4"
   stop-opacity="1"
   id="stop16" />
		</linearGradient>
	<linearGradient
   inkscape:collect="always"
   xlink:href="#grad0-6"
   id="linearGradient4574"
   x1="-0.0036276467"
   y1="121.46895"
   x2="13.056978"
   y2="121.46895"
   gradientTransform="scale(1.0759406,0.92941935)"
   gradientUnits="userSpaceOnUse" /><linearGradient
   inkscape:collect="always"
   xlink:href="#grad0-6"
   id="linearGradient4576"
   x1="0"
   y1="94.472297"
   x2="11.344644"
   y2="94.472297"
   gradientTransform="scale(0.84626472,1.1816633)"
   gradientUnits="userSpaceOnUse" /></defs>
	<g
   id="g58"
   transform="translate(-34.000281,-34.00065)">
		<title
   id="title20">Page-1</title>
		<g
   id="group23217-1"
   transform="translate(34,-34.0157)">
			<title
   id="title22">IoT Asset.23217</title>
			<g
   id="group23218-2">
				<title
   id="title24">Sheet.23218</title>
				<g
   id="shape23219-3"
   transform="translate(16.0743,-17.0432)">
					<title
   id="title26">Sheet.23219</title>
					<path
   d="m 8.09,124.78 5.67,-5.41 a 0.966955,0.959783 -180 0 0 -0.75314,-1.64082 L 11.99,117.82 A 1.92434,1.91006 0 0 1 9.9,116.09 c -0.13,-1.38 1.54,-1.92 0.6,-2.9 A 0.960572,0.953448 -180 0 0 9.14371,113.1583 L 0.29,121.64 a 0.966955,0.959783 -180 0 0 -0.0287214,1.3494 0.957381,0.95028 -180 0 0 1.3531,0.0317 A 1.94029,1.9259 0 0 1 4.09,122.84 l 2.76,2.01 a 0.957381,0.95028 -180 0 0 1.23183,-0.0824 z"
   class="st1"
   id="path28"
   inkscape:connector-curvature="0"
   style="fill:url(#linearGradient4574);stroke:none;stroke-width:34;stroke-linecap:butt" />
				</g>
				<g
   id="shape23220-7"
   transform="translate(29.9884,-22.4108)">
					<title
   id="title31">Sheet.23220</title>
					<path
   d="m 8.61,123.41 1.4,-1.38 c 0.32,-0.31 0.83,-0.31 1.15,0.01 0.32,0.31 0.32,0.83 0,1.14 l -1.64,1.62 a 0.82973,0.823576 0 0 1 -0.57762,0.23757 L 5.69,125.02 A 0.890364,0.883761 0 0 1 4.96239,124.5702 L 3.56,121.77 0.81,121.76 A 0.810583,0.804571 0 0 1 -5.83e-4,120.94593 C 0,120.5 0.37,120.14 0.82,120.14 l 2.75,0.01 1.41,-2.79 a 0.871217,0.864755 0 0 1 0.730801,-0.44663 L 8.97,116.93 a 0.82973,0.823576 0 0 1 0.57762,0.24074 L 11.17,118.8 c 0.32,0.31 0.32,0.83 0,1.14 -0.32,0.32 -0.84,0.32 -1.15,0 l -1.39,-1.39 -2.42,-0.01 -1.23,2.43 1.21,2.44 2.42,0.01 z"
   class="st2"
   id="path33"
   inkscape:connector-curvature="0"
   style="fill:url(#grad0-10);stroke:none;stroke-width:34;stroke-linecap:butt" />
				</g>
				<g
   id="shape23221-11"
   transform="translate(14.8745,-7.4597)">
					<title
   id="title36">Sheet.23221</title>
					<path
   d="M 7.36,111.35 A 3.85505,3.82646 -180 0 0 2.41,110.78 C 0.46,112.06 0,114.85 1.7,116.79 l 7.65,8.25 c 0.49,-2.74 2.87,-4.32 5.24,-4.1 1.17,0.12 2.24,0.64 3.03,1.49 z m 6.09,-1.22 h 3.1 a 1.03397,1.0263 -180 0 0 1.04,-1.02 v -6.17 a 1.03716,1.02947 -180 0 0 -1.03,-1.03 h -3.1 a 4.14227,4.11155 -180 1 0 -0.01,8.22 z"
   class="st3"
   id="path38"
   inkscape:connector-curvature="0"
   style="fill:url(#grad0-14);stroke:none;stroke-width:34;stroke-linecap:butt" />
				</g>
				<g
   id="shape23222-15"
   transform="translate(23.4558)">
					<title
   id="title41">Sheet.23222</title>
					<path
   d="m 4.56,111.64 c -2.47,0.12 -4.53,2.22 -4.56,4.81 v 7.63 c 0,0.53 0.43,0.96 0.96,0.96 h 7.68 a 0.960572,0.953448 -180 0 0 0.960572,-0.95345 L 9.6,116.45 c -0.04,-2.77 -2.4,-4.94 -5.04,-4.81 z"
   class="st1"
   id="path43"
   inkscape:connector-curvature="0"
   style="fill:url(#linearGradient4576);stroke:none;stroke-width:34;stroke-linecap:butt" />
				</g>
				<g
   id="shape23223-18"
   transform="translate(0,-8.78376)">
					<title
   id="title46">Sheet.23223</title>
					<path
   d="m 48.27,105.2 c 0,-0.67 -0.03,-1.33 -0.09,-1.98 a 4.28268,4.25092 0 0 1 -2.54,0.83 c -0.1,0 -0.19,-0.01 -0.29,-0.01 a 16.8914,16.7661 0 0 1 -1.67,8.58 1.4399677,1.4292924 -180 0 0 2.59,1.25 c 1.33,-2.71 2.01,-5.63 2.01,-8.67 z m -36.97,0 c 0,-1.64 0.24,-3.22 0.68,-4.72 a 6.24212,6.19583 0 0 1 -2.6,-1.32 19.8178,19.6708 -180 0 0 -0.96,6.04 c 0,3.04 0.68,5.96 2.01,8.67 a 1.43926,1.42859 -180 1 0 2.58,-1.25 16.8946,16.7693 0 0 1 -1.71,-7.42 z M 28.35,79.66 c 4.99,0 9.65,1.44 13.58,3.91 0.43,-0.87 1.05,-1.64 1.82,-2.23 A 28.1789,27.9699 -180 0 0 20.82,77.82 c 0.65,0.71 1.06,1.64 1.11,2.66 a 25.4823,25.2933 0 0 1 6.42,-0.82 z M 45.7,95.5 A 19.9391,19.7912 -180 0 0 28.35,85.43 c -4.36,0 -8.39,1.4 -11.68,3.77 0.84,0.51 1.55,1.21 2.06,2.04 a 16.9584,16.8326 0 0 1 9.62,-2.95 17.0573,16.9308 0 0 1 14.58,8.16 c 0.74,-0.6 1.68,-0.95 2.71,-0.95 z M 0,104.94 c 0,7.62 3.02,14.76 8.5,20.1 A 1.4408657,1.4301874 -180 0 0 10.52,123 25.2844,25.0969 0 0 1 2.88,104.94 25.4663,25.2775 0 0 1 14.57,83.7 4.27949,4.24775 0 0 1 13.35,81.09 28.3385,28.1283 -180 0 0 0,104.94 Z M 52.41,90.1 c -0.6,0.75 -1.38,1.35 -2.28,1.76 a 25.3163,25.1286 0 0 1 3.69,13.08 c 0,6.76 -2.65,13.1 -7.46,17.88 a 1.43743,1.42677 -180 1 0 2.03,2.02 28.1598,27.9509 -180 0 0 8.3,-19.9 28.1661,27.9572 -180 0 0 -4.28,-14.84 z"
   class="st4"
   id="path48"
   inkscape:connector-curvature="0"
   style="fill:#7de3fc;stroke:none;stroke-width:34;stroke-linecap:butt" />
				</g>
				<g
   id="shape23224-20"
   transform="translate(8.62919,-31.185)">
					<title
   id="title51">Sheet.23224</title>
					<path
   d="m 4.8,112.11 a 4.79648,4.7609 -180 0 0 0,9.52 4.79648,4.7609 -180 0 0 0,-9.52 z M 9,100.24 A 2.88172,2.86035 -180 0 0 9.01,105.96 2.88172,2.86035 -180 0 0 9,100.24 Z m 29.92,3.64 a 4.79648,4.7609 -180 0 0 0,9.52 4.79648,4.7609 -180 0 0 0,-9.52 z m -1.91,15.44 a 2.88172,2.86035 -180 0 0 0,5.72 2.88172,2.86035 -180 0 0 0,-5.72 z"
   class="st5"
   id="path53"
   inkscape:connector-curvature="0"
   style="fill:#198ab3;stroke:none;stroke-width:34;stroke-linecap:butt" />
				</g>
			</g>
		</g>
	</g>
</svg>