<?xml version="1.0" encoding="UTF-8" standalone="no"?>
<!DOCTYPE svg PUBLIC "-//W3C//DTD SVG 1.1//EN" "http://www.w3.org/Graphics/SVG/1.1/DTD/svg11.dtd">
<!-- Generated by Microsoft Visio, SVG Export IoT Windows 10 Core.svg Page-1 -->
<svg xmlns="http://www.w3.org/2000/svg" xmlns:xlink="http://www.w3.org/1999/xlink" xmlns:ev="http://www.w3.org/2001/xml-events"
		width="1.71072in" height="1.72144in" viewBox="0 0 123.172 123.943" xml:space="preserve" color-interpolation-filters="sRGB"
		class="st6">
	<style type="text/css">
	<![CDATA[
		.st1 {fill:url(#grad0-6);stroke:none;stroke-linecap:butt;stroke-width:33.2348}
		.st2 {fill:#32bedd;stroke:none;stroke-linecap:butt;stroke-width:33.2348}
		.st3 {fill:#50e6ff;stroke:none;stroke-linecap:butt;stroke-width:33.2348}
		.st4 {fill:#f2f2f2;stroke:none;stroke-linecap:butt;stroke-width:33.2348}
		.st5 {fill:#86d633;stroke:none;stroke-linecap:butt;stroke-width:33.2348}
		.st6 {fill:none;fill-rule:evenodd;font-size:12px;overflow:visible;stroke-linecap:square;stroke-miterlimit:3}
	]]>
	</style>

	<defs id="Patterns_And_Gradients">
		<linearGradient id="grad0-6" x1="0" y1="0" x2="1" y2="0" gradientTransform="rotate(-90 0.5 0.5)">
			<stop offset="0" stop-color="#0078d4" stop-opacity="1"/>
			<stop offset="0.06" stop-color="#0a7cd7" stop-opacity="1"/>
			<stop offset="0.34" stop-color="#2e8ce1" stop-opacity="1"/>
			<stop offset="0.59" stop-color="#4897e9" stop-opacity="1"/>
			<stop offset="0.82" stop-color="#589eed" stop-opacity="1"/>
			<stop offset="1" stop-color="#5ea0ef" stop-opacity="1"/>
		</linearGradient>
	</defs>
	<g>
		<title>Page-1</title>
		<g id="group15421-1" transform="translate(33.2348,-34.0157)">
			<title>IoT Windows 10 Core.15421</title>
			<g id="group15422-2">
				<title>layer1</title>
				<g id="shape15423-3">
					<title>path17</title>
					<path d="M48.79 78.29 L44.26 73.83 L43.8 73.83 L37.7 77.16 L33.33 75.2 L30.58 67.25 L24.25 67.32 L23.95 68.21
								 L21.79 75.13 L17.42 77.03 L10.01 73.7 L5.61 78.19 L6.07 79.09 L9.35 85.51 L7.61 89.93 L0 92.82 L0
								 99.3 L0.89 99.6 L7.71 101.73 L9.58 106.15 L6.3 113.7 L10.86 118.19 L11.68 117.73 L18.01 114.4 L20.04
								 116.93 L25.29 123.94 L31.63 123.94 L31.92 123.05 L34.19 118.99 L37.79 117.16 L44.95 116.73 L49.41
								 112.11 L49.41 111.67 L50.29 108.35 L52.89 100.47 L48.79 78.29 ZM27.92 110.11 A14.3373 14.5306 0
								 1 1 42.22 95.71 A14.3045 14.4974 0 0 1 27.92 110.11 Z" class="st1"/>
				</g>
				<g id="shape15424-7" transform="translate(18.0775,-15.8181)">
					<title>path19</title>
					<path d="M19.72 111.17 C19.72 117.62 11.88 122.8 10.17 123.87 a0.754593 0.76477 0 0 1 -0.655958 0 C7.81 122.8
								 0 117.62 0 111.17 L0 103.42 a0.62336 0.631767 0 0 1 0.590241 -0.631756 C6.69 102.79 5.28 99.96 9.84
								 99.96 C14.4 99.96 13.12 102.62 19.09 102.79 a0.656168 0.665018 0 0 1 0.623722 0.631756 L19.72 111.17
								 Z" class="st2"/>
				</g>
				<g id="shape15425-9" transform="translate(18.8979,-16.8163)">
					<title>path21</title>
					<path d="M18.08 112.23 C18.08 118.15 10.89 122.9 9.32 123.87 a0.62336 0.631767 0 0 1 -0.590244 -1.42109E-14 C7.15
								 122.9 0 118.15 0 112.23 L0 105.11 a0.557743 0.565265 0 0 1 0.524519 -0.565276 C6.13 104.55 4.86
								 101.96 9.02 101.96 C13.19 101.96 11.94 104.42 17.52 104.55 a0.590551 0.598516 0 0 1 0.557999 0.565276
								 L18.08 112.23 Z" class="st3"/>
				</g>
				<g id="shape15426-11" transform="translate(23.4889,-23.4752)">
					<title>path23</title>
					<path d="M8.4 117.73 L7.84 117.73 L7.84 115.86 A3.74016 3.7906 -180 0 0 6.86 113.3 A3.08399 3.12558 -180 0 0
								 4.43 112.24 A3.28084 3.32509 -180 0 0 2 113.3 A3.74016 3.7906 -180 0 0 1.02 115.86 L1.02 117.86
								 L0.46 117.86 a0.459318 0.465512 -180 0 0 -0.460039 0.46549 L0 123.51 a0.459318 0.465512 -180 0 0
								 0.460039 0.432314 L8.4 123.94 a0.426509 0.432261 -180 0 0 0.4588 -0.432314 L8.86 118.19 a0.459318
								 0.465512 -180 0 0 -0.4588 -0.465493 L8.4 117.73 ZM6.24 117.73 L2.63 117.73 L2.63 115.86 A1.9357
								 1.9618 0 0 1 3.18 114.47 A1.70604 1.72905 0 0 1 4.43 113.9 A1.64042 1.66254 0 0 1 5.68 114.47 L5.91
								 114.73 A2.19816 2.22781 0 0 1 6.24 115.86 L6.24 117.73 Z" class="st4"/>
				</g>
				<g id="shape15427-13" transform="translate(15.7761,-1.08317)">
					<title>path25</title>
					<path d="M29.5 74.82 L31.83 69.93 a0.492126 0.498763 -180 0 0 -0.229397 -0.698237 L31.34 69.23 L13.26 70.63 a0.524934
								 0.532014 -180 0 0 -0.4588 0.565275 a0.426509 0.432261 -180 0 0 -1.86517E-13 0.266049 L23.04 86.42
								 a0.524934 0.532014 -180 0 0 0.721679 1.56319E-13 L23.92 86.22 L25.96 81.93 a0.557743 0.565265 0
								 0 1 0.68944 -0.266049 A20.7677 21.0478 0 0 1 34.26 96.8 A21.063 21.3471 0 0 1 13.62 118.61 A21.916
								 22.2116 0 0 1 3.42 116.28 a0.524934 0.532014 -180 0 0 -0.689441 0.19944 L0.04 121.4 a0.524934 0.532014
								 -180 0 0 0.19716 0.698236 A27.9528 28.3298 -180 0 0 37.8 110.1 A27.2638 27.6315 -180 0 0 40.92 96.53
								 A27.6247 27.9972 -180 0 0 29.63 75.45 a0.557743 0.565265 0 0 1 -0.131441 -0.631756 L29.5 74.82 Z"
							class="st5"/>
				</g>
			</g>
		</g>
	</g>
</svg>
