<?xml version="1.0" encoding="UTF-8" standalone="no"?>
<!-- Generated by Microsoft Visio, SVG Export IoT Hub Device.svg Page-1 -->

<svg
   xmlns:dc="http://purl.org/dc/elements/1.1/"
   xmlns:cc="http://creativecommons.org/ns#"
   xmlns:rdf="http://www.w3.org/1999/02/22-rdf-syntax-ns#"
   xmlns:svg="http://www.w3.org/2000/svg"
   xmlns="http://www.w3.org/2000/svg"
   xmlns:sodipodi="http://sodipodi.sourceforge.net/DTD/sodipodi-0.dtd"
   xmlns:inkscape="http://www.inkscape.org/namespaces/inkscape"
   width="0.78735721in"
   height="0.78735721in"
   viewBox="0 0 56.689786 56.689998"
   xml:space="preserve"
   class="st4"
   version="1.1"
   id="svg34"
   sodipodi:docname="IoT Hub Device.svg"
   style="font-size:12px;overflow:visible;color-interpolation-filters:sRGB;fill:none;fill-rule:evenodd;stroke-linecap:square;stroke-miterlimit:3"
   inkscape:version="0.92.5 (2060ec1f9f, 2020-04-08)"><metadata
   id="metadata40"><rdf:RDF><cc:Work
       rdf:about=""><dc:format>image/svg+xml</dc:format><dc:type
         rdf:resource="http://purl.org/dc/dcmitype/StillImage" /></cc:Work></rdf:RDF></metadata><defs
   id="defs38" /><sodipodi:namedview
   pagecolor="#ffffff"
   bordercolor="#666666"
   borderopacity="1"
   objecttolerance="10"
   gridtolerance="10"
   guidetolerance="10"
   inkscape:pageopacity="0"
   inkscape:pageshadow="2"
   inkscape:window-width="640"
   inkscape:window-height="480"
   id="namedview36"
   showgrid="false"
   inkscape:zoom="1.6696778"
   inkscape:cx="37.79508"
   inkscape:cy="25.319606"
   inkscape:window-x="0"
   inkscape:window-y="0"
   inkscape:window-maximized="0"
   inkscape:current-layer="svg34" />
	<style
   type="text/css"
   id="style2">
	<![CDATA[
		.st1 {fill:#a0a1a2;stroke:none;stroke-linecap:butt;stroke-width:15.3}
		.st2 {fill:#00188f;stroke:none;stroke-linecap:butt;stroke-width:15.3}
		.st3 {fill:#e5e5e5;stroke:none;stroke-linecap:butt;stroke-width:15.3}
		.st4 {fill:none;fill-rule:evenodd;font-size:12px;overflow:visible;stroke-linecap:square;stroke-miterlimit:3}
	]]>
	</style>

	<g
   id="g32"
   transform="translate(-15.300164,-15.3043)">
		<title
   id="title4">Page-1</title>
		<g
   id="group21871-1"
   transform="translate(15.3,-34.0157)">
			<title
   id="title6">IoT Hub Device.21871</title>
			<g
   id="group21872-2">
				<title
   id="title8">Sheet.21872</title>
				<g
   id="shape21873-3">
					<title
   id="title10">Sheet.21873</title>
					<path
   d="M 6.85,66.68 H 0.43 v -3.87 h 6.42 v -7.04 h 7.72 v -6.45 h 3.85 v 6.45 h 3.86 v -6.45 h 3.14 v 6.45 h 5.14 v -6.45 h 3.14 v 6.45 h 5.14 v -6.45 h 3.14 v 6.45 h 7.72 v 7.04 h 6.99 v 3.87 H 49.7 v 5.17 h 6.99 v 3.87 H 49.7 v 3.88 h 6.99 v 3.88 H 49.7 v 5.16 h 6.85 v 4.45 h -6.71 v 6.46 h -7.71 v 6.46 h -3.14 v -6.46 h -4.43 v 6.46 H 30.7 v -6.46 h -5.14 v 6.46 h -3.14 v -6.46 h -4.43 v 6.46 H 14.14 V 99.55 H 6.43 V 92.52 H 0.29 v -4.6 H 6.43 V 82.76 H 0.71 V 78.88 H 6.43 V 74.43 H 0 V 71.28 H 7 C 6.85,71.13 6.85,68.55 6.85,66.68 Z M 47.41,96.97 V 58.93 H 10.14 v 38.04 z"
   class="st1"
   id="path12"
   inkscape:connector-curvature="0"
   style="fill:#a0a1a2;stroke:none;stroke-width:15.30000019;stroke-linecap:butt" />
				</g>
				<g
   id="shape21874-5"
   transform="translate(9.42502,-9.04216)">
					<title
   id="title15">Sheet.21874</title>
					<rect
   x="0"
   y="67.974197"
   width="37.842899"
   height="38.0345"
   class="st2"
   id="rect17"
   style="fill:#00188f;stroke:none;stroke-width:15.30000019;stroke-linecap:butt" />
				</g>
				<g
   id="shape21875-7"
   transform="translate(13.9947,-13.635)">
					<title
   id="title20">Sheet.21875</title>
					<rect
   x="0"
   y="77.016296"
   width="28.8463"
   height="28.9923"
   class="st3"
   id="rect22"
   style="fill:#e5e5e5;stroke:none;stroke-width:15.30000019;stroke-linecap:butt" />
				</g>
				<g
   id="shape21876-9"
   transform="translate(17.422,-16.6491)">
					<title
   id="title25">Sheet.21876</title>
					<rect
   x="0"
   y="83.044403"
   width="21.8489"
   height="22.964199"
   class="st2"
   id="rect27"
   style="fill:#00188f;stroke:none;stroke-width:15.30000019;stroke-linecap:butt" />
				</g>
			</g>
		</g>
	</g>
</svg>