<?xml version="1.0" encoding="UTF-8" standalone="no"?>
<!DOCTYPE svg PUBLIC "-//W3C//DTD SVG 1.1//EN" "http://www.w3.org/Graphics/SVG/1.1/DTD/svg11.dtd">
<!-- Generated by Microsoft Visio, SVG Export Exchange Client Access Server.svg Page-1 -->
<svg xmlns="http://www.w3.org/2000/svg" xmlns:xlink="http://www.w3.org/1999/xlink" xmlns:ev="http://www.w3.org/2001/xml-events"
		width="1.59908in" height="1.74979in" viewBox="0 0 115.134 125.985" xml:space="preserve" color-interpolation-filters="sRGB"
		class="st26">
	<style type="text/css">
	<![CDATA[
		.st1 {fill:url(#grad0-11);stroke:none;stroke-linecap:butt;stroke-width:35.9597}
		.st2 {fill:#003067;stroke:none;stroke-linecap:butt;stroke-width:35.9597}
		.st3 {fill:#50e6ff;stroke:none;stroke-linecap:butt;stroke-width:35.9597}
		.st4 {fill:#28a8ea;stroke:none;stroke-linecap:butt;stroke-width:16.1053}
		.st5 {fill:#0078d4;stroke:none;stroke-linecap:butt;stroke-width:16.1053}
		.st6 {fill:#50d9ff;stroke:none;stroke-linecap:butt;stroke-width:16.1053}
		.st7 {fill:#2086bb;stroke:none;stroke-linecap:butt;stroke-width:16.1053}
		.st8 {fill:#2497d2;stroke:none;stroke-linecap:butt;stroke-width:16.1053}
		.st9 {fill:#48c3e5;stroke:none;stroke-linecap:butt;stroke-width:16.1053}
		.st10 {fill:#1d78a8;stroke:none;stroke-linecap:butt;stroke-width:16.1053}
		.st11 {fill:#1d79a8;stroke:none;stroke-linecap:butt;stroke-width:16.1053}
		.st12 {fill:#176086;stroke:none;stroke-linecap:butt;stroke-width:16.1053}
		.st13 {fill:#2e7d92;stroke:none;stroke-linecap:butt;stroke-width:16.1053}
		.st14 {fill:#41afce;stroke:none;stroke-linecap:butt;stroke-width:16.1053}
		.st15 {fill:#838383;stroke:none;stroke-linecap:butt;stroke-width:16.1053}
		.st16 {fill:#155678;stroke:none;stroke-width:1}
		.st17 {fill:none;stroke:none;stroke-linecap:butt;stroke-width:16.1053}
		.st18 {fill:#297083;stroke:none;stroke-linecap:butt;stroke-width:16.1053}
		.st19 {fill:#ffffff;stroke:none;stroke-linecap:butt;stroke-width:16.1053}
		.st20 {fill:#0078d4;stroke:none;stroke-linecap:butt;stroke-width:30.988}
		.st21 {fill:url(#grad0-101);stroke:none;stroke-linecap:butt;stroke-width:30.988}
		.st22 {fill:url(#grad0-106);stroke:none;stroke-linecap:butt;stroke-width:30.988}
		.st23 {fill:#f2f2f2;stroke:none;stroke-linecap:butt;stroke-width:30.988}
		.st24 {fill:none;stroke:none;stroke-linecap:butt;stroke-width:30.988}
		.st25 {fill:url(#grad0-101);stroke:none;stroke-linecap:butt;stroke-width:23.451}
		.st26 {fill:none;fill-rule:evenodd;font-size:12px;overflow:visible;stroke-linecap:square;stroke-miterlimit:3}
	]]>
	</style>

	<defs id="Patterns_And_Gradients">
		<linearGradient id="grad0-11" x1="0" y1="0" x2="1" y2="0" gradientTransform="rotate(-90 0.5 0.5)">
			<stop offset="0" stop-color="#949494" stop-opacity="1"/>
			<stop offset="0.53" stop-color="#a2a2a2" stop-opacity="1"/>
			<stop offset="1" stop-color="#b3b3b3" stop-opacity="1"/>
		</linearGradient>
		<linearGradient id="grad0-101" x1="0" y1="0" x2="1" y2="0" gradientTransform="rotate(-90 0.5 0.5)">
			<stop offset="0" stop-color="#d2ebff" stop-opacity="1"/>
			<stop offset="1" stop-color="#f0fffd" stop-opacity="1"/>
		</linearGradient>
		<linearGradient id="grad0-106" x1="0" y1="0" x2="1" y2="0" gradientTransform="rotate(-90 0.5 0.5)">
			<stop offset="0" stop-color="#0078d4" stop-opacity="1"/>
			<stop offset="0.17" stop-color="#1c84dc" stop-opacity="1"/>
			<stop offset="0.38" stop-color="#3990e4" stop-opacity="1"/>
			<stop offset="0.59" stop-color="#4d99ea" stop-opacity="1"/>
			<stop offset="0.8" stop-color="#5a9eee" stop-opacity="1"/>
			<stop offset="1" stop-color="#5ea0ef" stop-opacity="1"/>
		</linearGradient>
	</defs>
	<g>
		<title>Page-1</title>
		<g id="group11695-1" transform="translate(35.96,-35.1017)">
			<title>Exchange Client Access Server.11695</title>
			<g id="group11696-2">
				<title>Page-1</title>
				<g id="group11697-3">
					<title>Sheet.11697</title>
					<g id="group11698-4" transform="translate(-2.3781E-13,-0.858058)">
						<title>Sheet.11698</title>
						<g id="group11699-5">
							<title>Icon-databases-136.149</title>
							<g id="group11700-6">
								<title>path4-5</title>
								<g id="group11701-7">
									<title>Sheet.11701</title>
									<g id="shape11702-8">
										<title>Sheet.11702</title>
										<path d="M31.85 124.14 A1.88109 1.87569 180 0 1 30.01 125.98 L1.85 125.98 A1.84866 1.84335
													 180 0 1 0 124.14 L0 73.76 A1.81623 1.81101 180 0 1 1.85 71.92 L30.01 71.92 A1.84866
													 1.84335 180 0 1 31.85 73.76 L31.85 124.14 Z" class="st1"/>
									</g>
								</g>
							</g>
							<g id="group11703-12" transform="translate(4.6703,-31.6602)">
								<title>path6-7</title>
								<g id="group11704-13">
									<title>Sheet.11704</title>
									<g id="shape11705-14">
										<title>Sheet.11705</title>
										<path d="M-0 122.53 A3.47029 3.46032 180 0 1 3.44 119.1 L19.33 119.1 A3.47029 3.46032 180
													 0 1 22.89 122.53 A3.47029 3.46032 180 0 1 19.33 125.98 L3.44 125.98 A3.47029
													 3.46032 180 0 1 0 122.53 ZM-0 112.31 A3.47029 3.46032 180 0 1 3.44 108.86 L19.33
													 108.86 A3.47029 3.46032 180 0 1 22.89 112.31 A3.47029 3.46032 180 0 1 19.33
													 115.74 L3.44 115.74 A3.47029 3.46032 180 0 1 -0 112.31 Z" class="st2"/>
									</g>
								</g>
							</g>
							<g id="group11706-16" transform="translate(5.9676,-43.007)">
								<title>circle8-5</title>
								<g id="group11707-17">
									<title>Sheet.11707</title>
									<g id="shape11708-18">
										<title>Sheet.11708</title>
										<ellipse cx="2.33514" cy="123.656" rx="2.33514" ry="2.32844" class="st3"/>
									</g>
								</g>
							</g>
							<g id="group11709-20" transform="translate(5.9676,-32.7878)">
								<title>circle10-2</title>
								<g id="group11710-21">
									<title>Sheet.11710</title>
									<g id="shape11711-22">
										<title>Sheet.11711</title>
										<ellipse cx="2.33514" cy="123.656" rx="2.33514" ry="2.32844" class="st3"/>
									</g>
								</g>
							</g>
						</g>
					</g>
					<g id="group11712-24" transform="translate(23.2009,-34.9392)">
						<title>Sheet.11712</title>
						<g id="group11713-25" transform="translate(3.18105,1.42109E-14)">
							<title>Sheet.11713</title>
							<g id="group11714-26">
								<title>Sheet.11714</title>
								<g id="shape11715-27">
									<title>Sheet.11715</title>
									<path d="M20.21 104.23 L14.68 104.23 C14.25 104.23 13.84 104.4 13.55 104.7 L0.46 117.75 C0.17
												 118.05 0 118.44 0 118.88 L0 124.4 C0 125.28 0.71 125.98 1.59 125.98 L7.13 125.98
												 C7.55 125.98 7.96 125.82 8.26 125.53 L21.35 112.46 C21.64 112.17 21.81 111.77 21.81
												 111.35 L21.81 105.81 C21.81 104.94 21.1 104.23 20.21 104.23 Z" class="st4"/>
								</g>
							</g>
						</g>
						<g id="group11716-29" transform="translate(14.079,-2.13163E-13)">
							<title>Sheet.11716</title>
							<g id="group11717-30">
								<title>Sheet.11717</title>
								<g id="shape11718-31">
									<title>Sheet.11718</title>
									<path d="M9.32 125.98 L3.77 125.98 C3.34 125.98 2.95 125.82 2.64 125.53 L0 122.88 L0 117.94 C0
												 116.38 1.27 115.11 2.84 115.11 L7.78 115.11 L10.45 117.75 C10.74 118.05 10.91 118.44
												 10.91 118.88 L10.91 124.4 C10.91 125.28 10.19 125.98 9.32 125.98 Z" class="st5"/>
								</g>
							</g>
						</g>
						<g id="group11719-33" transform="translate(3.18105,-10.8776)">
							<title>Sheet.11719</title>
							<g id="group11720-34">
								<title>Sheet.11720</title>
								<g id="shape11721-35">
									<title>Sheet.11721</title>
									<path d="M1.59 115.11 L7.13 115.11 C7.55 115.11 7.96 115.27 8.26 115.57 L10.91 118.22 L10.91
												 123.16 C10.91 124.73 9.64 125.98 8.06 125.98 L3.12 125.98 L0.46 123.35 C0.17 123.05
												 0 122.66 0 122.22 L0 116.69 C0 115.81 0.71 115.11 1.59 115.11 Z" class="st6"/>
								</g>
							</g>
						</g>
						<g id="group11722-37" transform="translate(3.18105,-3.17512)">
							<title>Sheet.11722</title>
							<g id="group11723-38">
								<title>Sheet.11723</title>
								<g id="shape11724-39">
									<title>Sheet.11724</title>
									<path d="M0 122.05 L0 125.98 L8.94 125.98 C8.94 125.98 8.94 125.98 8.94 125.98 C9.46 125.98 9.89
												 125.61 9.98 125.12 C9.71 125.38 9.33 125.53 8.94 125.54 L0 125.54 L0 122.05 Z"
											class="st7"/>
								</g>
							</g>
						</g>
						<g id="group11725-41" transform="translate(13.1559,-4.05672)">
							<title>Sheet.11725</title>
							<g id="group11726-42">
								<title>Sheet.11726</title>
								<g id="shape11727-43">
									<title>Sheet.11727</title>
									<path d="M0.47 117.88 C0.35 118.07 0.19 118.25 0.03 118.4 L0.03 124.91 C0.03 124.91 0.03 124.91
												 0.03 124.91 L0.03 125.81 C0.03 125.88 0.01 125.94 0 125.98 C0 125.98 0 125.98 0
												 125.98 C0.29 125.72 0.47 125.33 0.47 124.91 L0.47 117.88 Z" class="st8"/>
								</g>
							</g>
						</g>
						<g id="group11728-45" transform="translate(3.18105,-11.6332)">
							<title>Sheet.11728</title>
							<g id="group11729-46">
								<title>Sheet.11729</title>
								<g id="shape11730-47">
									<title>Sheet.11730</title>
									<path d="M8.94 119.95 L0 119.95 L0 120.39 L8.49 120.39 C8.49 120.39 8.49 120.39 8.49 120.39 C8.49
												 120.39 8.49 120.39 8.49 120.39 L8.94 120.39 C8.94 120.39 8.94 120.39 8.94 120.39
												 C9.51 120.39 9.99 120.86 9.99 121.44 L9.99 121.45 L9.99 125.98 C10.16 125.84 10.31
												 125.65 10.45 125.45 L10.45 121.45 C10.45 120.62 9.76 119.95 8.94 119.95 Z"
											class="st9"/>
								</g>
							</g>
						</g>
						<g id="group11731-49" transform="translate(3.18105,-3.63249)">
							<title>Sheet.11731</title>
							<g id="group11732-50">
								<title>Sheet.11732</title>
								<g id="shape11733-51">
									<title>Sheet.11733</title>
									<path d="M0 122.5 L0 125.98 L8.94 125.98 C9.33 125.98 9.71 125.82 9.98 125.56 C9.98 125.56 9.98
												 125.56 9.98 125.56 C9.99 125.51 10 125.45 10 125.39 L10 124.49 C10 125.06 9.52 125.53
												 8.94 125.54 L0 125.54 L0 122.5 Z" class="st10"/>
								</g>
							</g>
						</g>
						<g id="group11734-53" transform="translate(13.1758,-5.13719)">
							<title>Sheet.11734</title>
							<g id="group11735-54">
								<title>Sheet.11735</title>
								<g id="shape11736-55">
									<title>Sheet.11736</title>
									<path d="M0 119.48 L0 125.98 L0 119.48 Z" class="st11"/>
								</g>
							</g>
						</g>
						<g id="group11737-57" transform="translate(3.18105,-4.08324)">
							<title>Sheet.11737</title>
							<g id="group11738-58">
								<title>Sheet.11738</title>
								<g id="shape11739-59">
									<title>Sheet.11739</title>
									<path d="M10 118.43 C9.85 118.56 9.71 118.68 9.53 118.77 L9.53 124.94 C9.53 125.52 9.06 125.98
												 8.49 125.98 L0 125.98 L0 122.95 L0 125.98 L8.94 125.98 C9.52 125.98 10 125.52 10
												 124.94 L10 118.43 Z" class="st12"/>
								</g>
							</g>
						</g>
						<g id="group11740-61" transform="translate(11.6617,-11.2952)">
							<title>Sheet.11740</title>
							<g id="group11741-62">
								<title>Sheet.11741</title>
								<g id="shape11742-63">
									<title>Sheet.11742</title>
									<path d="M0.45 120.05 C0.45 120.05 0.45 120.05 0.45 120.05 L0 120.05 C0.58 120.05 1.05 120.53
												 1.05 121.11 L1.05 125.98 C1.22 125.89 1.36 125.77 1.51 125.65 L1.51 121.11 C1.51
												 120.53 1.04 120.05 0.45 120.05 Z" class="st13"/>
								</g>
							</g>
						</g>
						<g id="group11743-65" transform="translate(3.18105,-17.2345)">
							<title>Sheet.11743</title>
							<g id="group11744-66">
								<title>Sheet.11744</title>
								<g id="shape11745-67">
									<title>Sheet.11745</title>
									<path d="M8.49 125.98 L0 125.98 L8.49 125.98 Z" class="st14"/>
								</g>
							</g>
						</g>
						<g id="group11746-69" transform="translate(3.18105,-7.11915)">
							<title>Sheet.11746</title>
							<g id="group11747-70">
								<title>Sheet.11747</title>
								<g id="shape11748-71">
									<title>Sheet.11748</title>
									<path d="M0 118.46 L0 125.98 C0 125.57 0.17 125.17 0.46 124.87 L3.12 122.22 L0.46 119.59 C0.17
												 119.29 0 118.88 0 118.46 Z" class="st15"/>
								</g>
							</g>
						</g>
						<g id="group11749-73" transform="translate(3.18105,-4.08324)">
							<title>Sheet.11749</title>
							<g id="group11750-74">
								<title>Sheet.11750</title>
								<g id="shape11751-75">
									<title>Sheet.11751</title>
									<path d="M9.53 118.77 C9.1 119.04 8.61 119.18 8.06 119.18 L3.12 119.18 L0.46 121.84 C0.17 122.13
												 0 122.53 0 122.95 L0 125.98 L8.49 125.98 C9.06 125.98 9.53 125.52 9.53 124.94 L9.53
												 118.77 Z" class="st16"/>
								</g>
							</g>
							<g id="group11752-77">
								<title>Sheet.11752</title>
								<g id="shape11753-78">
									<title>Sheet.11753</title>
									<path d="M9.53 118.77 C9.1 119.04 8.61 119.18 8.06 119.18 L3.12 119.18 L0.46 121.84 C0.17 122.13
												 0 122.53 0 122.95 L0 125.98 L8.49 125.98 C9.06 125.98 9.53 125.52 9.53 124.94 L9.53
												 118.77 Z" class="st17"/>
								</g>
							</g>
						</g>
						<g id="group11754-80" transform="translate(3.18105,-10.8842)">
							<title>Sheet.11754</title>
							<g id="group11755-81">
								<title>Sheet.11755</title>
								<g id="shape11756-82">
									<title>Sheet.11756</title>
									<path d="M8.49 119.64 L0 119.64 L0 122.22 C0 122.65 0.17 123.05 0.46 123.35 L3.12 125.98 L8.06
												 125.98 C8.61 125.98 9.11 125.84 9.53 125.57 L9.53 120.7 C9.53 120.12 9.06 119.64
												 8.49 119.64 Z" class="st18"/>
								</g>
							</g>
						</g>
						<g id="group11757-84" transform="translate(0,-4.53399)">
							<title>Sheet.11757</title>
							<g id="group11758-85">
								<title>Sheet.11758</title>
								<g id="shape11759-86">
									<title>Sheet.11759</title>
									<path d="M1.07 113.29 L11.67 113.29 C12.24 113.29 12.73 113.76 12.73 114.36 L12.73 124.94 C12.73
												 125.52 12.25 125.98 11.67 125.98 L1.07 125.98 C0.48 125.98 0 125.52 0 124.94 L0
												 114.36 C0 113.76 0.48 113.29 1.07 113.29 Z" class="st5"/>
								</g>
							</g>
						</g>
						<g id="group11760-88" transform="translate(4.11745,-7.44396)">
							<title>Sheet.11760</title>
							<g id="group11761-89">
								<title>Sheet.11761</title>
								<g id="shape11762-90">
									<title>Sheet.11762</title>
									<path d="M4.32 120.22 L1.36 120.22 L1.36 121.97 L4.14 121.97 L4.14 123.08 L1.36 123.08 L1.36
												 124.89 L4.49 124.89 L4.49 125.98 L0 125.98 L0 119.12 L4.32 119.12 L4.32 120.22 Z"
											class="st19"/>
								</g>
							</g>
						</g>
					</g>
					<g id="group11763-92" transform="translate(15.495,2.98428E-13)">
						<title>Intune Device.1900</title>
						<g id="group11764-93">
							<title>layer1</title>
							<g id="group11765-94" transform="translate(1.65867E-13,-7.46073)">
								<title>rect25</title>
								<g id="shape11766-95">
									<title>Sheet.11766</title>
									<path d="M0 124.89 A1.09902 1.08975 -90 0 0 1.09 125.98 L29.21 125.98 A1.09902 1.08975 -90 0
												 0 30.29 124.89 L30.29 105.35 A1.09902 1.08975 -90 0 0 29.21 104.25 L1.09 104.25
												 A1.09902 1.08975 -90 0 0 -0 105.35 L0 124.89 Z" class="st20"/>
								</g>
							</g>
							<g id="group11767-97" transform="translate(1.76178,-9.17658)">
								<title>rect27</title>
								<g id="shape11768-98">
									<title>Sheet.11768</title>
									<path d="M0 125.44 a0.549507 0.544878 -90 0 0 0.544865 0.549495 L26.23 125.98 a0.549507 0.544878
												 -90 0 0 0.544865 -0.549495 L26.78 108.03 a0.549507 0.544878 -90 0 0 -0.544865 -0.549495
												 L0.55 107.48 a0.549507 0.544878 -90 0 0 -0.544865 0.549495 L0 125.44 Z"
											class="st21"/>
								</g>
							</g>
							<g id="group11769-102" transform="translate(18.7071,1.42109E-14)">
								<title>rect29</title>
								<g id="shape11770-103">
									<title>Sheet.11770</title>
									<path d="M0 125.44 a0.549507 0.544878 -90 0 0 0.544865 0.549495 L13.44 125.98 a0.549507 0.544878
												 -90 0 0 0.544865 -0.549495 L13.98 102.99 a0.549507 0.544878 -90 0 0 -0.544865 -0.549495
												 L0.55 102.44 a0.549507 0.544878 -90 0 0 -0.544865 0.549495 L0 125.44 Z"
											class="st22"/>
								</g>
							</g>
							<g id="group11771-107" transform="translate(24.1014,-22.3142)">
								<title>rect31</title>
								<g id="shape11772-108">
									<title>Sheet.11772</title>
									<path d="M-0 125.78 a0.201486 0.199788 -90 0 0 0.199783 0.201481 L3.02 125.98 a0.201486 0.199788
												 -90 0 0 0.199783 -0.201481 L3.21 125.74 a0.201486 0.199788 -90 0 0 -0.199783 -0.201481
												 L0.2 125.54 a0.201486 0.199788 -90 0 0 -0.199783 0.201481 L0 125.78 Z"
											class="st23"/>
								</g>
							</g>
							<g id="group11773-110" transform="translate(20.0287,-2.64346)">
								<title>rect33</title>
								<g id="shape11774-111">
									<title>Sheet.11774</title>
									<path d="M0 125.73 a0.256437 0.254276 -90 0 0 0.25427 0.256431 L11.1 125.98 a0.256437 0.254276
												 -90 0 0 0.25427 -0.256431 L11.35 107.32 a0.256437 0.254276 -90 0 0 -0.25427 -0.256431
												 L0.25 107.06 a0.256437 0.254276 -90 0 0 -0.25427 0.256431 L0 125.73 Z"
											class="st24"/>
								</g>
							</g>
							<g id="group11775-113" transform="translate(13.5856,-28.0839)">
								<title>rect35</title>
								<g id="shape11776-114">
									<title>Sheet.11776</title>
									<path d="M-0 125.78 a0.201486 0.199788 -90 0 0 0.199783 0.201481 L3.02 125.98 a0.201486 0.199788
												 -90 0 0 0.199783 -0.201481 L3.21 125.74 a0.201486 0.199788 -90 0 0 -0.199783 -0.201481
												 L0.2 125.54 a0.201486 0.199788 -90 0 0 -0.199783 0.201481 L0 125.78 Z"
											class="st23"/>
								</g>
							</g>
							<g id="group11777-116" transform="translate(24.9188,-0.514873)">
								<title>rect37</title>
								<g id="shape11778-117">
									<title>Sheet.11778</title>
									<path d="M0 125.62 a0.366338 0.363252 -90 0 0 0.363243 0.36633 L1.2 125.98 a0.366338 0.363252
												 -90 0 0 0.363243 -0.36633 L1.57 125.01 a0.366338 0.363252 -90 0 0 -0.363243 -0.36633
												 L0.37 124.65 a0.366338 0.363252 -90 0 0 -0.363243 0.36633 L0 125.62 Z"
											class="st23"/>
								</g>
							</g>
							<g id="group11779-119" transform="translate(20.0315,-2.63759)">
								<title>rect30</title>
								<g id="shape11780-120">
									<title>Sheet.11780</title>
									<path d="M0 125.72 a0.263375 0.261155 -90 0 0 0.261149 0.263368 L11.09 125.98 a0.263375 0.261155
												 -90 0 0 0.261149 -0.263368 L11.35 107.32 a0.263375 0.261155 -90 0 0 -0.261149 -0.263368
												 L0.26 107.06 a0.263375 0.261155 -90 0 0 -0.261149 0.263368 L0 125.72 Z"
											class="st25"/>
								</g>
							</g>
						</g>
					</g>
				</g>
			</g>
		</g>
	</g>
</svg>
