<?xml version="1.0" encoding="UTF-8" standalone="no"?>
<!-- Generated by Microsoft Visio, SVG Export O365 - Access.svg Page-1 -->
<svg xmlns:dc="http://purl.org/dc/elements/1.1/" xmlns:cc="http://creativecommons.org/ns#" xmlns:rdf="http://www.w3.org/1999/02/22-rdf-syntax-ns#" xmlns:svg="http://www.w3.org/2000/svg" xmlns="http://www.w3.org/2000/svg" xmlns:sodipodi="http://sodipodi.sourceforge.net/DTD/sodipodi-0.dtd" xmlns:inkscape="http://www.inkscape.org/namespaces/inkscape" width="56.693229" height="56.69289" viewBox="0 0 56.693229 56.69289" xml:space="preserve" class="st9" version="1.1" id="svg66" sodipodi:docname="O365 - Access.svg" style="font-size:12px;overflow:visible;color-interpolation-filters:sRGB;fill:none;fill-rule:evenodd;stroke-linecap:square;stroke-miterlimit:3" inkscape:version="0.92.5 (2060ec1f9f, 2020-04-08)">
  <metadata id="metadata72">
    <rdf:RDF>
      <cc:Work rdf:about="">
        <dc:format>image/svg+xml</dc:format>
        <dc:type rdf:resource="http://purl.org/dc/dcmitype/StillImage" />
      </cc:Work>
    </rdf:RDF>
  </metadata>
  <defs id="defs70" />
  <sodipodi:namedview pagecolor="#ffffff" bordercolor="#666666" borderopacity="1" objecttolerance="10" gridtolerance="10" guidetolerance="10" inkscape:pageopacity="0" inkscape:pageshadow="2" inkscape:window-width="640" inkscape:window-height="480" id="namedview68" showgrid="false" inkscape:zoom="1.6325437" inkscape:cx="37.795247" inkscape:cy="26.925659" inkscape:window-x="0" inkscape:window-y="0" inkscape:window-maximized="0" inkscape:current-layer="svg66" />
	<style type="text/css" id="style2">
	<![CDATA[
		.st1 {fill:#881421;stroke:none;stroke-linecap:butt;stroke-width:17.7113}
		.st2 {fill:#af2031;stroke:none;stroke-linecap:butt;stroke-width:17.7113}
		.st3 {fill:#c94f60;stroke:none;stroke-linecap:butt;stroke-width:17.7113}
		.st4 {fill:#e08095;stroke:none;stroke-linecap:butt;stroke-width:17.7113}
		.st5 {fill:none;stroke:none;stroke-linecap:butt;stroke-width:17.7113}
		.st6 {fill:#000000;fill-opacity:0.098;stroke:none;stroke-linecap:butt;stroke-width:17.7113}
		.st7 {fill:#000000;fill-opacity:0.2;stroke:none;stroke-linecap:butt;stroke-width:17.7113}
		.st8 {fill:#ffffff;stroke:none;stroke-linecap:butt;stroke-width:17.7113}
		.st9 {fill:none;fill-rule:evenodd;font-size:12px;overflow:visible;stroke-linecap:square;stroke-miterlimit:3}
	]]>
	</style>

	<g id="g64" transform="translate(-17.711285,-17.7114)">
		<title id="title4">Page-1</title>
		<g id="group21881-1" transform="translate(17.7113,-34.0157)">
			<title id="title6">O365 - Access.21881</title>
			<g id="shape21882-2" transform="translate(14.1732,-1.77165)">
				<title id="title8">path4-1</title>
				<path d="m 0,88.05 v 14.17 c 0,3.42 9.52,6.2 21.26,6.2 11.74,0 21.26,-2.78 21.26,-6.2 V 88.05 Z" class="st1" id="path10" inkscape:connector-curvature="0" style="fill:#881421;stroke:none;stroke-width:17.7112999;stroke-linecap:butt" />
			</g>
			<g id="shape21883-4" transform="translate(14.1732,-14.1732)">
				<title id="title13">path6-5</title>
				<path d="m 0,88.05 v 14.17 c 0,3.42 9.52,6.2 21.26,6.2 11.74,0 21.26,-2.78 21.26,-6.2 V 88.05 Z" class="st2" id="path15" inkscape:connector-curvature="0" style="fill:#af2031;stroke:none;stroke-width:17.7112999;stroke-linecap:butt" />
			</g>
			<g id="shape21884-6" transform="translate(14.1732,-28.3465)">
				<title id="title18">path8</title>
				<path d="m 0,88.05 v 14.17 c 0,3.42 9.52,6.2 21.26,6.2 11.74,0 21.26,-2.78 21.26,-6.2 V 88.05 Z" class="st3" id="path20" inkscape:connector-curvature="0" style="fill:#c94f60;stroke:none;stroke-width:17.7112999;stroke-linecap:butt" />
			</g>
			<g id="shape21885-8" transform="translate(14.1732,-42.5197)">
				<title id="title23">ellipse10</title>
				<ellipse cx="21.2598" cy="102.219" rx="21.2598" ry="6.2007899" class="st4" id="ellipse25" style="fill:#e08095;stroke:none;stroke-width:17.7112999;stroke-linecap:butt" />
			</g>
			<g id="shape21886-10">
				<title id="title28">rect12</title>
				<rect x="0" y="51.7271" width="56.692902" height="56.692902" class="st5" id="rect30" style="fill:none;stroke:none;stroke-width:17.7112999;stroke-linecap:butt" />
			</g>
			<g id="shape21887-12" transform="translate(14.1732,-10.6299)">
				<title id="title33">path14</title>
				<path d="M 15.35,74.76 H 0 v 33.66 h 15.35 a 2.3687,2.3687 -180 0 0 2.37,-2.36 V 77.12 a 2.3687,2.3687 -180 0 0 -2.37,-2.36 z" class="st6" id="path35" inkscape:connector-curvature="0" style="fill:#000000;fill-opacity:0.09800002;stroke:none;stroke-width:17.7112999;stroke-linecap:butt" />
			</g>
			<g id="shape21888-14" transform="translate(14.1732,-8.85826)">
				<title id="title38">path16</title>
				<path d="M 13.58,74.76 H 0 v 33.66 h 13.58 a 2.3687,2.3687 -180 0 0 2.36,-2.36 V 77.12 a 2.3687,2.3687 -180 0 0 -2.36,-2.36 z" class="st7" id="path40" inkscape:connector-curvature="0" style="fill:#000000;fill-opacity:0.2;stroke:none;stroke-width:17.7112999;stroke-linecap:butt" />
			</g>
			<g id="shape21889-16" transform="translate(14.1732,-12.4016)">
				<title id="title43">path18</title>
				<path d="M 13.58,78.3 H 0 v 30.12 h 13.58 a 2.3687,2.3687 -180 0 0 2.36,-2.36 V 80.66 A 2.3687,2.3687 -180 0 0 13.58,78.3 Z" class="st7" id="path45" inkscape:connector-curvature="0" style="fill:#000000;fill-opacity:0.2;stroke:none;stroke-width:17.7112999;stroke-linecap:butt" />
			</g>
			<g id="shape21890-18" transform="translate(14.1732,-12.4016)">
				<title id="title48">path20</title>
				<path d="M 11.81,78.3 H 0 v 30.12 h 11.81 a 2.3687,2.3687 -180 0 0 2.36,-2.36 V 80.66 A 2.3687,2.3687 -180 0 0 11.81,78.3 Z" class="st7" id="path50" inkscape:connector-curvature="0" style="fill:#000000;fill-opacity:0.2;stroke:none;stroke-width:17.7112999;stroke-linecap:butt" />
			</g>
			<g id="shape21891-20" transform="translate(0,-14.1732)">
				<title id="title53">rect22</title>
				<path d="m 0,106.06 a 2.36167,2.36167 -180 0 0 2.36,2.36 h 23.62 a 2.36167,2.36167 -180 0 0 2.37,-2.36 V 82.44 A 2.36167,2.36167 -180 0 0 25.98,80.07 H 2.36 A 2.36167,2.36167 -180 0 0 0,82.44 Z" class="st2" id="path55" inkscape:connector-curvature="0" style="fill:#af2031;stroke:none;stroke-width:17.7112999;stroke-linecap:butt" />
			</g>
			<g id="shape21892-22" transform="translate(5.66929,-19.4882)">
				<title id="title58">path24</title>
				<path d="m 6.56,90.7 h 4 l 6.45,17.72 H 13.22 L 11.8,104.19 H 5.16 l -1.39,4.23 H 0 Z m 4.39,10.76 -2.07,-6.41 A 8.23287,8.23287 0 0 1 8.5,93.61 H 8.42 a 8.30197,8.30197 0 0 1 -0.37,1.48 l -2.08,6.38 z" class="st8" id="path60" inkscape:connector-curvature="0" style="fill:#ffffff;stroke:none;stroke-width:17.7112999;stroke-linecap:butt" />
			</g>
		</g>
	</g>
</svg>