<?xml version="1.0" encoding="UTF-8" standalone="no"?>
<!DOCTYPE svg PUBLIC "-//W3C//DTD SVG 1.1//EN" "http://www.w3.org/Graphics/SVG/1.1/DTD/svg11.dtd">
<!-- Generated by Microsoft Visio, SVG Export Application Gateway.svg Page-1 -->
<svg xmlns="http://www.w3.org/2000/svg" xmlns:xlink="http://www.w3.org/1999/xlink" xmlns:ev="http://www.w3.org/2001/xml-events"
		width="1.71056in" height="1.72142in" viewBox="0 0 123.16 123.942" xml:space="preserve" color-interpolation-filters="sRGB"
		class="st9">
	<style type="text/css">
	<![CDATA[
		.st1 {fill:url(#grad0-6);stroke:none;stroke-linecap:butt;stroke-width:34}
		.st2 {fill:#ffffff;stroke:none;stroke-linecap:butt;stroke-width:34}
		.st3 {fill:#0078d4}
		.st4 {stroke:none;stroke-linecap:butt;stroke-width:34}
		.st5 {fill:url(#grad0-20);stroke:none;stroke-linecap:butt;stroke-width:34}
		.st6 {fill:#f2f2f2;fill-opacity:0.55;stroke:none;stroke-linecap:butt;stroke-width:34}
		.st7 {fill:none;stroke:none;stroke-linecap:butt;stroke-width:34}
		.st8 {fill:#f2f2f2;stroke:none;stroke-linecap:butt;stroke-width:34}
		.st9 {fill:none;fill-rule:evenodd;font-size:12px;overflow:visible;stroke-linecap:square;stroke-miterlimit:3}
	]]>
	</style>

	<defs id="Patterns_And_Gradients">
		<linearGradient id="grad0-6" x1="0" y1="0" x2="1" y2="0" gradientTransform="rotate(-45 0.5 0.5)">
			<stop offset="0" stop-color="#5e9624" stop-opacity="1"/>
			<stop offset="0.55" stop-color="#6dad2a" stop-opacity="1"/>
			<stop offset="1" stop-color="#76bc2d" stop-opacity="1"/>
		</linearGradient>
		<linearGradient id="grad0-20" x1="0" y1="0" x2="1" y2="0" gradientTransform="rotate(-90.454718861693 0.5 0.5)">
			<stop offset="0" stop-color="#cccccc" stop-opacity="1"/>
			<stop offset="0.12" stop-color="#d7d7d7" stop-opacity="1"/>
			<stop offset="0.42" stop-color="#ebebeb" stop-opacity="1"/>
			<stop offset="0.72" stop-color="#f8f8f8" stop-opacity="1"/>
			<stop offset="1" stop-color="#fcfcfc" stop-opacity="1"/>
		</linearGradient>
	</defs>
	<g>
		<title>Page-1</title>
		<g id="group8484-1" transform="translate(33.2336,-34.0157)">
			<title>Application Gateway.8484</title>
			<g id="group8485-2">
				<title>Icon-networking-76</title>
				<g id="shape8486-3" transform="translate(-59.294,36.3018) rotate(-45)">
					<title>Sheet.8486</title>
					<path d="M0 122.09 A1.85026 1.85026 -180 0 0 1.85 123.94 L38.24 123.94 A1.85026 1.85026 -180 0 0 40.09 122.09
								 L40.09 85.7 A1.85026 1.85026 -180 0 0 38.24 83.85 L1.85 83.85 A1.85026 1.85026 -180 0 0 -0 85.7
								 L0 122.09 Z" class="st1"/>
				</g>
				<g id="group8487-7" transform="translate(12.1473,-8.55108)">
					<title>Sheet.8487</title>
					<g id="shape8488-8" transform="translate(13.6671,-14.8945)">
						<title>Sheet.8488</title>
						<path d="M8.7 123.94 L17.92 123.94 a0.357059 0.357059 -180 0 0 0.324599 -0.357059 L18.24 114.4 a0.324599
									 0.324599 -180 0 0 -0.584278 -0.227219 L15.12 116.7 L15.12 116.87 a0.324599 0.324599 0 0 1 -0.454438
									 -1.42109E-14 L3.41 105.76 a0.324599 0.324599 -180 0 0 -0.454438 -5.68434E-14 L0.1 108.62 a0.357059
									 0.357059 -180 0 0 1.45439E-14 0.486898 L11.16 120.18 a0.357059 0.357059 0 0 1 1.59872E-14 0.486898
									 L11 120.83 L8.47 123.36 a0.357059 0.357059 -180 0 0 0.227219 0.584278 Z" class="st2"/>
					</g>
					<g id="shape8489-10" transform="translate(0,-14.8945)">
						<title>Sheet.8489</title>
						<path d="M9.48 123.94 L0.26 123.94 a0.357059 0.357059 0 0 1 -0.259679 -0.357059 L0 114.4 a0.324599 0.324599
									 0 0 1 0.551818 -0.227219 L3.12 116.7 L3.12 116.87 a0.324599 0.324599 -180 0 0 0.454438 1.42109E-14
									 L14.77 105.76 a0.324599 0.324599 0 0 1 0.454438 8.52651E-14 L18.08 108.62 a0.357059 0.357059
									 0 0 1 3.55271E-15 0.486898 L7.01 120.18 a0.357059 0.357059 -180 0 0 -1.77636E-15 0.486898 L7.01
									 120.83 L9.54 123.36 a0.357059 0.357059 0 0 1 -0.0649197 0.584278 Z" class="st2"/>
					</g>
					<g id="shape8490-12" transform="translate(9.08531,1.42109E-14)">
						<title>Sheet.8490</title>
						<path d="M0.07 117.36 L6.56 123.85 a0.324599 0.324599 -180 0 0 0.454438 0 L13.51 117.36 a0.324599 0.324599
									 -180 0 0 -0.227219 -0.551818 L9.48 116.81 a0.357059 0.357059 0 0 1 -0.324599 -0.324599 L9.16
									 100.9 a0.324599 0.324599 -180 0 0 -0.324599 -0.357059 L4.81 100.54 a0.357059 0.357059 -180 0
									 0 -0.357059 0.357059 L4.45 116.48 a0.324599 0.324599 0 0 1 -0.324599 0.324599 L0.3 116.81 a0.324599
									 0.324599 -180 0 0 -0.227219 0.551818 Z" class="st2"/>
					</g>
				</g>
				<g id="shape8491-14" transform="translate(21.6361,-32.2422)">
					<title>Sheet.8491</title>
					<path d="M12.1 123.88 A8.79663 8.79663 0 0 1 1.32 109.98 A8.79663 8.79663 0 0 1 12 123.94 L12.1 123.88 Z"
							class="st3"/>
					<path d="M12.1 123.88 A8.79663 8.79663 0 0 1 1.32 109.98 A8.79663 8.79663 0 0 1 12 123.94" class="st4"/>
				</g>
				<g id="shape8492-17" transform="translate(20.7816,-36.7217)">
					<title>Sheet.8492</title>
					<ellipse cx="2.82401" cy="121.118" rx="2.82401" ry="2.82401" class="st5"/>
				</g>
				<g id="shape8493-21" transform="translate(20.7816,-32.9888)">
					<title>Sheet.8493</title>
					<path d="M0.03 122.09 L0.65 123.07 L1.1 123.72 A19.2812 19.2812 0 0 1 2.21 120.14 A2.75909 2.75909 0 0 1 0.75
								 119.4 A21.7806 21.7806 -180 0 0 0.03 122.09 ZM1.88 114.72 A12.9839 12.9839 0 0 1 1.1 111.7 A8.05005
								 8.05005 -180 0 0 0 113.2 A11.3934 11.3934 -180 0 0 0.65 115.6 A3.24599 3.24599 0 0 1 1.88 114.72
								 ZM4.9 119.3 A2.82401 2.82401 0 0 1 3.34 120.14 A14.9965 14.9965 -180 0 0 4.84 121.48 A13.4384 13.4384
								 -180 0 0 6.95 122.74 L6.95 122.51 A1.72037 1.72037 0 0 1 7.6 121.22 A11.6856 11.6856 0 0 1 4.9 119.3
								 ZM13.41 122.74 A13.4384 13.4384 0 0 1 10.58 122.42 A1.78529 1.78529 0 0 1 10.06 123.68 A12.4646
								 12.4646 -180 0 0 13.57 123.94 A9.51074 9.51074 -180 0 0 14.77 122.58 L13.41 122.74 Z" class="st6"/>
				</g>
				<g id="shape8494-23" transform="translate(27.728,-32.5993)">
					<title>Sheet.8494</title>
					<ellipse cx="1.81775" cy="122.125" rx="1.81775" ry="1.81775" class="st7"/>
				</g>
				<g id="shape8495-25" transform="translate(31.7531,-36.9813)">
					<title>Sheet.8495</title>
					<ellipse cx="1.94759" cy="121.995" rx="1.94759" ry="1.94759" class="st8"/>
				</g>
				<g id="shape8496-27" transform="translate(24.6444,-36.1374)">
					<title>Sheet.8496</title>
					<path d="M4.41 116.87 A13.9253 13.9253 0 0 1 10.52 115.5 A7.27101 7.27101 -180 0 0 8.99 114.04 A14.6069 14.6069
								 -180 0 0 4.15 115.18 C3.83 115.18 3.54 115.54 3.21 115.7 A18.989 18.989 0 0 1 1.17 112.68 L0.06
								 113.1 A17.366 17.366 -180 0 0 2.17 116.35 A12.7243 12.7243 -180 0 0 -0 118.13 A2.82401 2.82401 0
								 0 1 1.4 119.27 A10.6793 10.6793 0 0 1 3.38 117.71 A29.7332 29.7332 -180 0 0 7.17 120.96 A1.85021
								 1.85021 0 0 1 7.82 119.92 A27.3961 27.3961 0 0 1 4.41 116.87 ZM12.01 122.29 L11.43 122.29 L11.1
								 122.09 A1.98005 1.98005 0 0 1 10.45 123.07 L10.84 123.29 L11.2 123.49 L12.11 123.94 A11.6206 11.6206
								 -180 0 0 12.4 122.81 L12.01 122.29 Z" class="st6"/>
				</g>
				<g id="shape8497-29" transform="translate(20.7816,-36.7217)">
					<title>Sheet.8497</title>
					<ellipse cx="2.82401" cy="121.118" rx="2.82401" ry="2.82401" class="st8"/>
				</g>
				<g id="shape8498-31" transform="translate(27.728,-32.5993)">
					<title>Sheet.8498</title>
					<ellipse cx="1.81775" cy="122.125" rx="1.81775" ry="1.81775" class="st8"/>
				</g>
			</g>
		</g>
	</g>
</svg>
