<?xml version="1.0" encoding="UTF-8" standalone="no"?>
<!-- Generated by Microsoft Visio, SVG Export NAT Gateway.svg Page-1 -->
<svg xmlns:dc="http://purl.org/dc/elements/1.1/" xmlns:cc="http://creativecommons.org/ns#" xmlns:rdf="http://www.w3.org/1999/02/22-rdf-syntax-ns#" xmlns:svg="http://www.w3.org/2000/svg" xmlns="http://www.w3.org/2000/svg" xmlns:sodipodi="http://sodipodi.sourceforge.net/DTD/sodipodi-0.dtd" xmlns:inkscape="http://www.inkscape.org/namespaces/inkscape" width="55.173483" height="55.17309" viewBox="0 0 55.173483 55.17309" xml:space="preserve" class="st5" version="1.1" id="svg67" sodipodi:docname="NAT Gateway.svg" style="font-size:12px;overflow:visible;color-interpolation-filters:sRGB;fill:none;fill-rule:evenodd;stroke-linecap:square;stroke-miterlimit:3" inkscape:version="0.92.5 (2060ec1f9f, 2020-04-08)">
  <metadata id="metadata71">
    <rdf:RDF>
      <cc:Work rdf:about="">
        <dc:format>image/svg+xml</dc:format>
        <dc:type rdf:resource="http://purl.org/dc/dcmitype/StillImage" />
      </cc:Work>
    </rdf:RDF>
  </metadata>
  <sodipodi:namedview pagecolor="#ffffff" bordercolor="#666666" borderopacity="1" objecttolerance="10" gridtolerance="10" guidetolerance="10" inkscape:pageopacity="0" inkscape:pageshadow="2" inkscape:window-width="640" inkscape:window-height="480" id="namedview69" showgrid="false" inkscape:zoom="1.4280265" inkscape:cx="36.780163" inkscape:cy="36.265048" inkscape:window-x="0" inkscape:window-y="0" inkscape:window-maximized="0" inkscape:current-layer="svg67" />
	<style type="text/css" id="style2">
	<![CDATA[
		.st1 {fill:url(#grad0-6);stroke:none;stroke-linecap:butt;stroke-width:34}
		.st2 {fill:#9cebff;stroke:none;stroke-linecap:butt;stroke-width:34}
		.st3 {fill:#ffffff;stroke:none;stroke-linecap:butt;stroke-width:34}
		.st4 {fill:#86d633;stroke:none;stroke-linecap:butt;stroke-width:34}
		.st5 {fill:none;fill-rule:evenodd;font-size:12px;overflow:visible;stroke-linecap:square;stroke-miterlimit:3}
	]]>
	</style>

	<defs id="Patterns_And_Gradients">
		<linearGradient id="grad0-6" x1="-1.5302749e-06" y1="83.859998" x2="40.090002" y2="83.859998" gradientUnits="userSpaceOnUse">
			<stop offset="0" stop-color="#238ab0" stop-opacity="1" id="stop4" />
			<stop offset="0.11" stop-color="#2da4c8" stop-opacity="1" id="stop6" />
			<stop offset="0.775" stop-color="#3ed3f2" stop-opacity="1" id="stop8" />
		</linearGradient>
	</defs>
	<g id="g65" transform="translate(-34.000244,-33.999376)">
		<title id="title12">Page-1</title>
		<g id="group18607-1" transform="translate(33.2388,-34.0157)">
			<title id="title14">NAT Gateway.18607</title>
			<g id="group18608-2">
				<title id="title16">Icon-310-NATService</title>
				<g id="shape18609-3" transform="rotate(-45,14.17323,89.730356)">
					<title id="title18">Sheet.18609</title>
					<path d="m 0,122.11 a 1.83763,1.83763 -180 0 0 1.84,1.84 h 36.41 a 1.83763,1.83763 -180 0 0 1.84,-1.84 V 85.7 A 1.83763,1.83763 -180 0 0 38.25,83.86 H 1.84 A 1.83763,1.83763 -180 0 0 0,85.7 Z" class="st1" id="path20" inkscape:connector-curvature="0" style="fill:url(#grad0-6);stroke:none;stroke-width:34;stroke-linecap:butt" />
				</g>
				<g id="shape18610-7" transform="translate(12.1431,-11.0433)">
					<title id="title23">Sheet.18610</title>
					<path d="m 32.04,109.96 -1.12,-1.11 v -4.29 h -8.88 v 4.73 h 3.98 l -10,10.01 -10.01,-10.01 h 4.05 v -4.73 H 0.3 v 4.73 h 0.37 l -0.67,0.67 13.99,13.99 2.03,-2.03 2.03,2.03 z" class="st2" id="path25" inkscape:connector-curvature="0" style="fill:#9cebff;stroke:none;stroke-width:34;stroke-linecap:butt" />
				</g>
				<g id="shape18611-9" transform="rotate(-45.121,-19.030345,98.029691)">
					<title id="title28">Sheet.18611</title>
					<ellipse cx="4.9033298" cy="119.019" rx="4.9033298" ry="4.9282098" class="st3" id="ellipse30" style="fill:#ffffff;stroke:none;stroke-width:34;stroke-linecap:butt" />
				</g>
				<g id="shape18612-11" transform="rotate(-45.061,-22.681608,96.520786)">
					<title id="title33">Sheet.18612</title>
					<ellipse cx="2.7859099" cy="121.134" rx="2.7859099" ry="2.8139" class="st4" id="ellipse35" style="fill:#86d633;stroke:none;stroke-width:34;stroke-linecap:butt" />
				</g>
				<g id="shape18613-13" transform="rotate(-45.121,-3.4232976,60.470664)">
					<title id="title38">Sheet.18613</title>
					<ellipse cx="4.9033298" cy="119.019" rx="4.9033298" ry="4.9282098" class="st3" id="ellipse40" style="fill:#ffffff;stroke:none;stroke-width:34;stroke-linecap:butt" />
				</g>
				<g id="shape18614-15" transform="rotate(-45.061,-7.0715051,58.906316)">
					<title id="title43">Sheet.18614</title>
					<ellipse cx="2.7859099" cy="121.134" rx="2.7859099" ry="2.8139" class="st4" id="ellipse45" style="fill:#86d633;stroke:none;stroke-width:34;stroke-linecap:butt" />
				</g>
				<g id="shape18615-17" transform="translate(21.4879,-8.34446)">
					<title id="title48">Sheet.18615</title>
					<path d="M 13.2,90.91 6.99,84.69 a 0.466392,0.466392 -180 0 0 -0.662277,0 L 0.1,90.91 a 0.466392,0.466392 -180 0 0 0.329584,0.799085 L 3.96,91.7 a 0.332693,0.332693 0 0 1 0.332693,0.332693 L 4.3,123.95 H 9.04 V 92.04 A 0.332693,0.332693 0 0 1 9.350928,91.707307 L 12.86,91.7 a 0.466392,0.466392 -180 0 0 0.338911,-0.799085 z" class="st3" id="path50" inkscape:connector-curvature="0" style="fill:#ffffff;stroke:none;stroke-width:34;stroke-linecap:butt" />
				</g>
				<g id="shape18616-19" transform="rotate(-45.121,7.5743276,87.326027)">
					<title id="title53">Sheet.18616</title>
					<ellipse cx="4.9033298" cy="119.019" rx="4.9033298" ry="4.9282098" class="st3" id="ellipse55" style="fill:#ffffff;stroke:none;stroke-width:34;stroke-linecap:butt" />
				</g>
				<g id="shape18617-21" transform="rotate(-45.061,3.954022,85.78653)">
					<title id="title58">Sheet.18617</title>
					<ellipse cx="2.7859099" cy="121.134" rx="2.7859099" ry="2.8139" class="st4" id="ellipse60" style="fill:#86d633;stroke:none;stroke-width:34;stroke-linecap:butt" />
				</g>
			</g>
		</g>
	</g>
</svg>