<?xml version="1.0" encoding="UTF-8" standalone="no"?>
<!-- Generated by Microsoft Visio, SVG Export Network Security Group (classic).svg Page-1 -->
<svg xmlns:dc="http://purl.org/dc/elements/1.1/" xmlns:cc="http://creativecommons.org/ns#" xmlns:rdf="http://www.w3.org/1999/02/22-rdf-syntax-ns#" xmlns:svg="http://www.w3.org/2000/svg" xmlns="http://www.w3.org/2000/svg" xmlns:sodipodi="http://sodipodi.sourceforge.net/DTD/sodipodi-0.dtd" xmlns:inkscape="http://www.inkscape.org/namespaces/inkscape" width="42.519803" height="56.696899" viewBox="0 0 42.519803 56.696899" xml:space="preserve" class="st5" version="1.1" id="svg42" sodipodi:docname="Network Security Group (classic).svg" style="font-size:12px;overflow:visible;color-interpolation-filters:sRGB;fill:none;fill-rule:evenodd;stroke-linecap:square;stroke-miterlimit:3" inkscape:version="0.92.5 (2060ec1f9f, 2020-04-08)">
  <metadata id="metadata48">
    <rdf:RDF>
      <cc:Work rdf:about="">
        <dc:format>image/svg+xml</dc:format>
        <dc:type rdf:resource="http://purl.org/dc/dcmitype/StillImage" />
      </cc:Work>
    </rdf:RDF>
  </metadata>
  <defs id="defs46" />
  <sodipodi:namedview pagecolor="#ffffff" bordercolor="#666666" borderopacity="1" objecttolerance="10" gridtolerance="10" guidetolerance="10" inkscape:pageopacity="0" inkscape:pageshadow="2" inkscape:window-width="640" inkscape:window-height="480" id="namedview44" showgrid="false" inkscape:zoom="1.7193066" inkscape:cx="28.346323" inkscape:cy="23.279613" inkscape:window-x="0" inkscape:window-y="0" inkscape:window-maximized="0" inkscape:current-layer="svg42" />
	<style type="text/css" id="style2">
	<![CDATA[
		.st1 {fill:#0072c6;stroke:none;stroke-linecap:butt;stroke-width:12.24}
		.st2 {fill:#3999c6;fill-opacity:0.4;stroke:none;stroke-linecap:butt;stroke-width:12.24}
		.st3 {fill:#ffffff;fill-opacity:0.3;stroke:none;stroke-linecap:butt;stroke-width:12.24}
		.st4 {fill:#ffffff;fill-opacity:0.7;stroke:none;stroke-linecap:butt;stroke-width:12.24}
		.st5 {fill:none;fill-rule:evenodd;font-size:12px;overflow:visible;stroke-linecap:square;stroke-miterlimit:3}
	]]>
	</style>

	<g id="g40" transform="translate(-12.240156,-12.2374)">
		<title id="title4">Page-1</title>
		<g id="group18536-1" transform="translate(12.24,-34.0157)">
			<title id="title6">Network Security Group (classic).18536</title>
			<g id="group18537-2">
				<title id="title8">Sheet.18537</title>
				<g id="shape18538-3">
					<title id="title10">Sheet.18538</title>
					<path d="M 36.25,53.07 C 23.47,51.71 21.26,46.26 21.26,46.26 c 0,0 -2.9,7.04 -21.26,7.04 v 29.08 c 0,3.53 1.97,6.82 4.76,9.66 6.28,6.48 16.5,10.91 16.5,10.91 0,0 21.26,-9.09 21.26,-20.57 V 53.3 c -2.32,0 -4.41,-0.11 -6.27,-0.23 z" class="st1" id="path12" inkscape:connector-curvature="0" style="fill:#0072c6;stroke:none;stroke-width:12.23999977;stroke-linecap:butt" />
				</g>
				<g id="shape18539-5" transform="translate(0,-10.9069)">
					<title id="title15">Sheet.18539</title>
					<path d="M 26.6,75.91 36.25,63.98 C 23.47,62.62 21.26,57.16 21.26,57.16 c 0,0 -2.9,7.05 -21.26,7.05 v 29.08 c 0,3.52 1.97,6.82 4.76,9.66 l 7.21,-8.86 z" class="st2" id="path17" inkscape:connector-curvature="0" style="fill:#3999c6;fill-opacity:0.4;stroke:none;stroke-width:12.23999977;stroke-linecap:butt" />
				</g>
				<g id="group18540-7" transform="translate(4.29844,-5.68065)">
					<title id="title20">Sheet.18540</title>
					<g id="shape18541-8" transform="translate(0.116174)">
						<title id="title22">Sheet.18541</title>
						<path d="m 0,79.66 v 6.93 c 0,2.84 1.63,5.45 3.83,7.72 5,5.23 13.13,8.64 13.13,8.64 V 79.66 Z" class="st3" id="path24" inkscape:connector-curvature="0" style="fill:#ffffff;fill-opacity:0.3;stroke:none;stroke-width:12.23999977;stroke-linecap:butt" />
					</g>
					<g id="shape18542-10">
						<title id="title27">Sheet.18542</title>
						<path d="m 16.96,102.95 c 0,0 16.96,-7.27 16.96,-16.36 V 79.66 H 16.96 Z m 0,-45.22 c 0,0 -2.32,5.68 -16.96,5.68 v 16.25 h 16.96 z" class="st4" id="path29" inkscape:connector-curvature="0" style="fill:#ffffff;fill-opacity:0.7;stroke:none;stroke-width:12.23999977;stroke-linecap:butt" />
					</g>
					<g id="shape18543-12" transform="translate(16.9614,-23.2907)">
						<title id="title32">Sheet.18543</title>
						<path d="M 11.85,86.47 C 1.74,85.34 0,81.13 0,81.13 v 21.82 H 16.96 V 86.7 c -1.86,0 -3.6,-0.11 -5.11,-0.23 z" class="st3" id="path34" inkscape:connector-curvature="0" style="fill:#ffffff;fill-opacity:0.3;stroke:none;stroke-width:12.23999977;stroke-linecap:butt" />
					</g>
				</g>
			</g>
		</g>
	</g>
</svg>