<?xml version="1.0" encoding="UTF-8" standalone="no"?>
<!-- Generated by Microsoft Visio, SVG Export Private Link.svg Page-1 -->
<svg xmlns:dc="http://purl.org/dc/elements/1.1/" xmlns:cc="http://creativecommons.org/ns#" xmlns:rdf="http://www.w3.org/1999/02/22-rdf-syntax-ns#" xmlns:svg="http://www.w3.org/2000/svg" xmlns="http://www.w3.org/2000/svg" xmlns:sodipodi="http://sodipodi.sourceforge.net/DTD/sodipodi-0.dtd" xmlns:inkscape="http://www.inkscape.org/namespaces/inkscape" width="56.689572" height="53.746176" viewBox="0 0 56.689572 53.746176" xml:space="preserve" class="st6" version="1.1" id="svg83" sodipodi:docname="Private Link.svg" style="font-size:12px;overflow:visible;color-interpolation-filters:sRGB;fill:none;fill-rule:evenodd;stroke-linecap:square;stroke-miterlimit:3" inkscape:version="0.92.5 (2060ec1f9f, 2020-04-08)">
  <metadata id="metadata87">
    <rdf:RDF>
      <cc:Work rdf:about="">
        <dc:format>image/svg+xml</dc:format>
        <dc:type rdf:resource="http://purl.org/dc/dcmitype/StillImage" />
      </cc:Work>
    </rdf:RDF>
  </metadata>
  <sodipodi:namedview pagecolor="#ffffff" bordercolor="#666666" borderopacity="1" objecttolerance="10" gridtolerance="10" guidetolerance="10" inkscape:pageopacity="0" inkscape:pageshadow="2" inkscape:window-width="640" inkscape:window-height="480" id="namedview85" showgrid="false" inkscape:zoom="1.7679873" inkscape:cx="37.792145" inkscape:cy="21.382835" inkscape:window-x="0" inkscape:window-y="0" inkscape:window-maximized="0" inkscape:current-layer="svg83" />
	<style type="text/css" id="style2">
	<![CDATA[
		.st1 {fill:#7a7a7a;stroke:none;stroke-linecap:butt;stroke-width:12.24}
		.st2 {fill:#1490df;stroke:none;stroke-linecap:butt;stroke-width:12.24}
		.st3 {fill:url(#grad0-10);stroke:none;stroke-linecap:butt;stroke-width:12.24}
		.st4 {fill:url(#grad0-14);stroke:none;stroke-linecap:butt;stroke-width:12.24}
		.st5 {fill:#50e6ff;stroke:none;stroke-linecap:butt;stroke-width:12.24}
		.st6 {fill:none;fill-rule:evenodd;font-size:12px;overflow:visible;stroke-linecap:square;stroke-miterlimit:3}
	]]>
	</style>

	<defs id="Patterns_And_Gradients">
		<linearGradient id="grad0-10" x1="-0.034831008" y1="99.65131" x2="16.816167" y2="99.65131" gradientTransform="scale(1.163743,0.85929628)" gradientUnits="userSpaceOnUse">
			<stop offset="0.23" stop-color="#5ea0ef" stop-opacity="1" id="stop4" />
			<stop offset="0.32" stop-color="#5b9fee" stop-opacity="1" id="stop6" />
			<stop offset="0.48" stop-color="#509aeb" stop-opacity="1" id="stop8" />
			<stop offset="0.57" stop-color="#3f92e6" stop-opacity="1" id="stop10" />
			<stop offset="0.75" stop-color="#2688df" stop-opacity="1" id="stop12" />
			<stop offset="0.93" stop-color="#127fd9" stop-opacity="1" id="stop14" />
		</linearGradient>
		<linearGradient id="grad0-14" x1="0.12930716" y1="99.534542" x2="16.96056" y2="99.534542" gradientTransform="scale(1.1623793,0.86030435)" gradientUnits="userSpaceOnUse">
			<stop offset="0.02" stop-color="#5ea0ef" stop-opacity="1" id="stop17" />
			<stop offset="0.14" stop-color="#5b9fee" stop-opacity="1" id="stop19" />
			<stop offset="0.23" stop-color="#5b9fee" stop-opacity="1" id="stop21" />
			<stop offset="0.34" stop-color="#509aeb" stop-opacity="1" id="stop23" />
			<stop offset="0.44" stop-color="#3f92e6" stop-opacity="1" id="stop25" />
			<stop offset="0.63" stop-color="#2688df" stop-opacity="1" id="stop27" />
			<stop offset="0.93" stop-color="#127fd9" stop-opacity="1" id="stop29" />
		</linearGradient>
	</defs>
	<g id="g81" transform="translate(-12.24231,-12.347973)">
		<title id="title33">Page-1</title>
		<g id="group18434-1" transform="translate(12.24,-34.0157)">
			<title id="title35">Private Link.18434</title>
			<g id="group18435-2">
				<title id="title37">Artboard 1</title>
				<g id="shape18436-3" transform="translate(25.9891,-25.0122)">
					<title id="title39">Sheet.18436</title>
					<rect x="0" y="77.302696" width="3.53601" height="22.8113" class="st1" id="rect41" style="fill:#7a7a7a;stroke:none;stroke-width:12.23999977;stroke-linecap:butt" />
				</g>
				<g id="shape18437-5" transform="translate(22.571,-43.2371)">
					<title id="title44">Sheet.18437</title>
					<path d="m 10.37,94.8 a 5.18614,5.31057 0 1 1 -10.37,0 5.18614,5.31057 0 0 1 10.37,0 z" class="st2" id="path46" inkscape:connector-curvature="0" style="fill:#1490df;stroke:none;stroke-width:12.23999977;stroke-linecap:butt" />
				</g>
				<g id="shape18438-7" transform="translate(14.3953,-11.7358)">
					<title id="title49">Sheet.18438</title>
					<path d="M 12.65,85.63 H 7 A 7.07202,7.24168 -180 0 0 5.9,100.02 7.55527,7.73653 0 0 1 5.97,97.33 4.46716,4.57433 0 0 1 7,88.29 h 5.65 a 4.47894,4.5864 0 0 1 0,9.17 H 11.1 a 3.37099,3.45187 -180 0 0 -0.33,1.45 3.2767,3.35531 -180 0 0 0.22,1.2 h 1.66 a 7.07202,7.24168 -180 0 0 0,-14.48 z" class="st3" id="path51" inkscape:connector-curvature="0" style="fill:url(#grad0-10);stroke:none;stroke-width:12.23999977;stroke-linecap:butt" />
				</g>
				<g id="shape18439-11" transform="translate(21.3923,-5.7011)">
					<title id="title54">Sheet.18439</title>
					<path d="m 13.83,85.73 a 8.25068,8.44863 0 0 1 0.08,1.11 7.37847,7.55549 0 0 1 -0.15,1.58 4.46716,4.57433 0 0 1 -1.03,9.04 H 7.07 a 4.47894,4.5864 0 1 1 0,-9.17 H 8.63 A 3.32385,3.40359 -180 0 0 8.96,86.84 3.2767,3.35531 -180 0 0 8.73,85.63 H 7.07 a 7.07202,7.24168 -180 0 0 0,14.48 h 5.66 a 7.07202,7.24168 -180 0 0 1.1,-14.38 z" class="st4" id="path56" inkscape:connector-curvature="0" style="fill:url(#grad0-14);stroke:none;stroke-width:12.23999977;stroke-linecap:butt" />
				</g>
				<g id="shape18440-15" transform="translate(0,-1.05515)">
					<title id="title59">Sheet.18440</title>
					<path d="m 17.57,98.51 -1.29,1.34 a 0.884002,0.90521 0 0 1 -1.24939,0 L 0.52,85.03 a 1.77979,1.82249 0 0 1 0,-2.57 l 1.31,-1.33 15.74,16.1 a 0.872215,0.893141 0 0 1 0,1.27936 z" class="st5" id="path61" inkscape:connector-curvature="0" style="fill:#50e6ff;stroke:none;stroke-width:12.23999977;stroke-linecap:butt" />
				</g>
				<g id="shape18441-17" transform="translate(0,-14.6446)">
					<title id="title64">Sheet.18441</title>
					<path d="m 16.01,81.44 1.45,1.49 a 0.884002,0.90521 0 0 1 0,1.27936 L 1.97,100.11 0.52,98.64 a 1.77979,1.82249 0 0 1 0,-2.57 L 14.76,81.44 a 0.884002,0.90521 0 0 1 1.24939,0 z" class="st2" id="path66" inkscape:connector-curvature="0" style="fill:#1490df;stroke:none;stroke-width:12.23999977;stroke-linecap:butt" />
				</g>
				<g id="shape18442-19" transform="translate(38.8442)">
					<title id="title69">Sheet.18442</title>
					<path d="m 0.26,98.5 a 0.872215,0.893141 0 0 1 0,-1.27936 L 16.02,81.14 l 1.31,1.34 a 1.77979,1.82249 0 0 1 0,2.57 L 2.81,99.84 a 0.872215,0.893141 0 0 1 -1.24939,0 z" class="st5" id="path71" inkscape:connector-curvature="0" style="fill:#50e6ff;stroke:none;stroke-width:12.23999977;stroke-linecap:butt" />
				</g>
				<g id="shape18443-21" transform="translate(38.9707,-13.5825)">
					<title id="title74">Sheet.18443</title>
					<path d="M 2.95,81.44 17.2,96.07 a 1.768,1.81042 0 0 1 0,2.56 l -1.45,1.48 -15.5,-15.9 a 0.907575,0.929349 0 0 1 0,-1.29143 L 1.7,81.44 a 0.884002,0.90521 0 0 1 1.24939,0 z" class="st2" id="path76" inkscape:connector-curvature="0" style="fill:#1490df;stroke:none;stroke-width:12.23999977;stroke-linecap:butt" />
				</g>
			</g>
		</g>
	</g>
</svg>