<?xml version="1.0" encoding="UTF-8" standalone="no"?>
<!DOCTYPE svg PUBLIC "-//W3C//DTD SVG 1.1//EN" "http://www.w3.org/Graphics/SVG/1.1/DTD/svg11.dtd">
<!-- Generated by Microsoft Visio, SVG Export CDN Profile.svg Page-1 -->
<svg xmlns="http://www.w3.org/2000/svg" xmlns:xlink="http://www.w3.org/1999/xlink" xmlns:ev="http://www.w3.org/2001/xml-events"
		width="1.73559in" height="1.41714in" viewBox="0 0 124.962 102.034" xml:space="preserve" color-interpolation-filters="sRGB"
		class="st5">
	<style type="text/css">
	<![CDATA[
		.st1 {fill:#b3b3b3;stroke:none;stroke-linecap:butt;stroke-width:34}
		.st2 {fill:#a3a3a3;stroke:none;stroke-linecap:butt;stroke-width:34}
		.st3 {fill:#7a7a7a;stroke:none;stroke-linecap:butt;stroke-width:34}
		.st4 {fill:url(#grad0-12);stroke:none;stroke-linecap:butt;stroke-width:34}
		.st5 {fill:none;fill-rule:evenodd;font-size:12px;overflow:visible;stroke-linecap:square;stroke-miterlimit:3}
	]]>
	</style>

	<defs id="Patterns_And_Gradients">
		<linearGradient id="grad0-12" x1="0" y1="0" x2="1" y2="0" gradientTransform="rotate(90 0.5 0.5)">
			<stop offset="0.18" stop-color="#5ea0ef" stop-opacity="1"/>
			<stop offset="1" stop-color="#0078d4" stop-opacity="1"/>
		</linearGradient>
	</defs>
	<g>
		<title>Page-1</title>
		<g id="group8456-1" transform="translate(34.2693,-34.0157)">
			<title>CDN Profile.8456</title>
			<g id="group8457-2">
				<title>g10</title>
				<g id="shape8458-3" transform="translate(-79.9696,83.8602) rotate(-90)">
					<title>rect2</title>
					<path d="M0 100.34 A1.63783 1.69107 -180 0 0 1.64 102.03 L2.08 102.03 A1.63783 1.69107 -180 0 0 3.72 100.34 L3.72
								 86.62 A1.63783 1.69107 -180 0 0 2.08 84.93 L1.64 84.93 A1.63783 1.69107 -180 0 0 0 86.62 L0 100.34
								 Z" class="st1"/>
				</g>
				<g id="shape8459-5" transform="translate(-85.198,91.6324) rotate(-90)">
					<title>rect4</title>
					<path d="M0 100.34 A1.63783 1.69107 -180 0 0 1.64 102.03 L2.08 102.03 A1.63783 1.69107 -180 0 0 3.72 100.34 L3.72
								 86.62 A1.63783 1.69107 -180 0 0 2.08 84.93 L1.64 84.93 A1.63783 1.69107 -180 0 0 0 86.62 L0 100.34
								 Z" class="st2"/>
				</g>
				<g id="shape8460-7" transform="translate(-79.9696,99.4047) rotate(-90)">
					<title>rect6</title>
					<path d="M0 100.34 A1.63783 1.69107 -180 0 0 1.64 102.03 L2.08 102.03 A1.63783 1.69107 -180 0 0 3.72 100.34 L3.72
								 86.62 A1.63783 1.69107 -180 0 0 2.08 84.93 L1.64 84.93 A1.63783 1.69107 -180 0 0 0 86.62 L0 100.34
								 Z" class="st3"/>
				</g>
				<g id="shape8461-9" transform="translate(11.3386,0)">
					<title>path8</title>
					<path d="M45.35 91.37 A10.3307 10.6665 -180 0 0 36.5 81.03 A13.0079 13.4307 -180 0 0 23.24 68.02 A13.3228 13.7559
								 -180 0 0 10.65 77.12 A12.252 12.6502 -180 0 0 0 89.48 A12.5984 13.0079 -180 0 0 12.79 102.03 L35.18
								 102.03 A10.4567 10.7966 -180 0 0 45.35 91.37 Z" class="st4"/>
				</g>
			</g>
		</g>
	</g>
</svg>
