<?xml version="1.0" encoding="UTF-8" standalone="no"?>
<!-- Generated by Microsoft Visio, SVG Export Connected Device.svg Page-1 -->

<svg
   xmlns:dc="http://purl.org/dc/elements/1.1/"
   xmlns:cc="http://creativecommons.org/ns#"
   xmlns:rdf="http://www.w3.org/1999/02/22-rdf-syntax-ns#"
   xmlns:svg="http://www.w3.org/2000/svg"
   xmlns="http://www.w3.org/2000/svg"
   xmlns:sodipodi="http://sodipodi.sourceforge.net/DTD/sodipodi-0.dtd"
   xmlns:inkscape="http://www.inkscape.org/namespaces/inkscape"
   width="0.78736067in"
   height="0.78736067in"
   viewBox="0 0 56.689999 56.689999"
   xml:space="preserve"
   class="st2"
   version="1.1"
   id="svg19"
   sodipodi:docname="Connected Device.svg"
   style="font-size:12px;overflow:visible;color-interpolation-filters:sRGB;fill:none;fill-rule:evenodd;stroke-linecap:square;stroke-miterlimit:3"
   inkscape:version="0.92.5 (2060ec1f9f, 2020-04-08)"><metadata
   id="metadata25"><rdf:RDF><cc:Work
       rdf:about=""><dc:format>image/svg+xml</dc:format><dc:type
         rdf:resource="http://purl.org/dc/dcmitype/StillImage" /></cc:Work></rdf:RDF></metadata><defs
   id="defs23" /><sodipodi:namedview
   pagecolor="#ffffff"
   bordercolor="#666666"
   borderopacity="1"
   objecttolerance="10"
   gridtolerance="10"
   guidetolerance="10"
   inkscape:pageopacity="0"
   inkscape:pageshadow="2"
   inkscape:window-width="640"
   inkscape:window-height="480"
   id="namedview21"
   showgrid="false"
   inkscape:zoom="1.2646658"
   inkscape:cx="37.795046"
   inkscape:cy="37.797713"
   inkscape:window-x="0"
   inkscape:window-y="0"
   inkscape:window-maximized="0"
   inkscape:current-layer="svg19" />
	<style
   type="text/css"
   id="style2">
	<![CDATA[
		.st1 {fill:#000000;stroke:none;stroke-linecap:butt;stroke-width:41.6327}
		.st2 {fill:none;fill-rule:evenodd;font-size:12px;overflow:visible;stroke-linecap:square;stroke-miterlimit:3}
	]]>
	</style>

	<g
   id="g17"
   transform="translate(-41.6327,-41.6373)">
		<title
   id="title4">Page-1</title>
		<g
   id="group20461-1"
   transform="translate(41.6327,-41.6327)">
			<title
   id="title6">Connected Device.20461</title>
			<g
   id="group20462-2">
				<title
   id="title8">Sheet.20462</title>
				<g
   id="shape20463-3">
					<title
   id="title10">Sheet.20463</title>
					<path
   d="m 7.33,119.52 a 12.3413,12.3413 0 0 1 0.77,-5.4 10.7987,10.7987 0 0 1 3.08,-4.24 l 6.56,-6.95 19.28,19.29 -6.94,6.55 a 10.7987,10.7987 0 0 1 -4.24,3.09 11.9556,11.9556 0 0 1 -5.01,1.16 L 16.2,132.24 12.73,130.32 2.7,139.96 0,137.26 9.64,127.23 a 15.8123,15.8123 0 0 1 -1.93,-3.47 17.355,17.355 0 0 1 -0.38,-4.24 z m 13.5,9.64 3.47,-0.77 a 9.25599,9.25599 -180 0 0 3.08,-2.32 l 4.24,-3.85 -13.88,-13.89 -3.86,4.25 -2.31,3.08 a 11.9556,11.9556 -180 0 0 -0.39,3.86 10.7987,10.7987 -180 0 0 0.39,3.47 l 2.31,3.08 3.09,2.32 z M 47.05,95.99 a 15.8123,15.8123 0 0 1 1.93,3.47 19.2833,19.2833 0 0 1 0.77,4.63 11.9556,11.9556 0 0 1 -1.16,5.01 10.7987,10.7987 0 0 1 -3.08,4.25 l -6.56,6.94 -19.28,-19.28 6.94,-6.56 a 10.7987,10.7987 0 0 1 4.24,-3.09 12.3413,12.3413 0 0 1 5.4,-0.77 h 4.24 l 3.48,1.93 10.02,-9.25 2.7,2.69 z m -4.24,14.66 a 9.25599,9.25599 -180 0 0 2.31,-3.09 11.1843,11.1843 -180 0 0 0.77,-3.47 11.57,11.57 -180 0 0 -0.77,-3.86 L 42.81,97.15 39.72,95.22 A 5.78499,5.78499 -180 0 0 36.25,94.45 H 32.4 l -3.09,2.31 -4.24,3.86 13.88,13.88 z"
   class="st1"
   id="path12"
   inkscape:connector-curvature="0"
   style="fill:#000000;stroke:none;stroke-width:41.63270187;stroke-linecap:butt" />
				</g>
			</g>
		</g>
	</g>
</svg>