<?xml version="1.0" encoding="UTF-8" standalone="no"?>
<!-- Generated by Microsoft Visio, SVG Export Custom IP Prefix.svg Page-1 -->
<svg xmlns:dc="http://purl.org/dc/elements/1.1/" xmlns:cc="http://creativecommons.org/ns#" xmlns:rdf="http://www.w3.org/1999/02/22-rdf-syntax-ns#" xmlns:svg="http://www.w3.org/2000/svg" xmlns="http://www.w3.org/2000/svg" xmlns:sodipodi="http://sodipodi.sourceforge.net/DTD/sodipodi-0.dtd" xmlns:inkscape="http://www.inkscape.org/namespaces/inkscape" width="56.687696" height="56.694102" viewBox="0 0 56.687696 56.694102" xml:space="preserve" class="st6" version="1.1" id="svg45" sodipodi:docname="Custom IP Prefix.svg" style="font-size:12px;overflow:visible;color-interpolation-filters:sRGB;fill:none;fill-rule:evenodd;stroke-linecap:square;stroke-miterlimit:3" inkscape:version="0.92.5 (2060ec1f9f, 2020-04-08)">
  <metadata id="metadata49">
    <rdf:RDF>
      <cc:Work rdf:about="">
        <dc:format>image/svg+xml</dc:format>
        <dc:type rdf:resource="http://purl.org/dc/dcmitype/StillImage" />
      </cc:Work>
    </rdf:RDF>
  </metadata>
  <sodipodi:namedview pagecolor="#ffffff" bordercolor="#666666" borderopacity="1" objecttolerance="10" gridtolerance="10" guidetolerance="10" inkscape:pageopacity="0" inkscape:pageshadow="2" inkscape:window-width="640" inkscape:window-height="480" id="namedview47" showgrid="false" inkscape:zoom="1.4193119" inkscape:cx="37.795128" inkscape:cy="37.786193" inkscape:window-x="0" inkscape:window-y="0" inkscape:window-maximized="0" inkscape:current-layer="svg45" />
	<style type="text/css" id="style2">
	<![CDATA[
		.st1 {fill:#005ba1;stroke:none;stroke-linecap:butt;stroke-width:34}
		.st2 {fill:url(#grad0-8);stroke:none;stroke-linecap:butt;stroke-width:34}
		.st3 {fill:#0078d4;stroke:none;stroke-linecap:butt;stroke-width:34}
		.st4 {fill:#ffffff;stroke:none;stroke-linecap:butt;stroke-width:34}
		.st5 {fill:#50e6ff;stroke:none;stroke-linecap:butt;stroke-width:34}
		.st6 {fill:none;fill-rule:evenodd;font-size:12px;overflow:visible;stroke-linecap:square;stroke-miterlimit:3}
	]]>
	</style>

	<defs id="Patterns_And_Gradients">
		<linearGradient id="grad0-8" x1="0" y1="128.94767" x2="33.323409" y2="128.94767" gradientTransform="scale(1.3011874,0.76852881)" gradientUnits="userSpaceOnUse">
			<stop offset="0.195" stop-color="#5ea0ef" stop-opacity="1" id="stop4" />
			<stop offset="1" stop-color="#0078d4" stop-opacity="1" id="stop6" />
		</linearGradient>
	</defs>
	<g id="g43" transform="translate(-34.000441,-34.000199)">
		<title id="title10">Page-1</title>
		<g id="group18849-1" transform="translate(34,-34.0157)">
			<title id="title12">Custom IP Prefix.18849</title>
			<g id="group18850-2">
				<title id="title14">Sheet.18850</title>
				<g id="shape18851-3" transform="translate(0,-21.2441)">
					<title id="title16">Sheet.18851</title>
					<path d="m 44.13,90.74 v 27.02 h -0.24 l -1.87,0.02 H 41.9 a 0.907894,0.907087 -180 0 0 -0.129249,0 A 14.8163,14.8031 -180 0 0 31.16,123.91 c -0.08,0.12 -0.16,0.23 -0.24,0.35 a 0.658853,0.658268 -180 0 0 -0.08512,0.12284 0.750273,0.749606 -180 0 0 -0.0725,0.12913 l -0.03238,0.068 -0.04,0.13 h -2.14 a 1.80633,1.80472 -180 0 0 -0.24,-1.14 3.3321,3.32913 -180 0 0 -0.58,-0.74 l -5.16,-5.62 a 2.12788,2.12598 -180 0 0 -0.69,-0.57 2.0995,2.09764 -180 0 0 -0.94,-0.23 2.06483,2.06299 -180 0 0 -1.62,0.78 l -5.55,5.73 a 2.10896,2.10709 -180 0 0 -0.73,1.79 H 1.48 A 1.48478,1.48346 0 0 1 0,123.23 V 90.71 a 1.47848,1.47717 0 0 1 1.48,-1.45 h 41.17 a 1.48478,1.48346 0 0 1 1.48,1.48 z" class="st1" id="path18" inkscape:connector-curvature="0" style="fill:#005ba1;stroke:none;stroke-width:34;stroke-linecap:butt" />
				</g>
				<g id="shape18852-5" transform="translate(4.902,-16.822)">
					<title id="title21">Sheet.18852</title>
					<path d="m 43.36,99.1 v 15.08 A 14.8163,14.8031 -180 0 0 23.88,124.71 H 1.45 A 1.45326,1.45197 0 0 1 0,123.26 V 99.1 Z" class="st2" id="path23" inkscape:connector-curvature="0" style="fill:url(#grad0-8);stroke:none;stroke-width:34;stroke-linecap:butt" />
				</g>
				<g id="shape18853-9" transform="translate(4.90515,-42.4283)">
					<title id="title26">Sheet.18853</title>
					<path d="M 1.45,115.48 H 41.9 a 1.45326,1.45197 0 0 1 1.46,1.46 v 7.77 H 0 v -7.8 a 1.45011,1.44882 0 0 1 1.45,-1.43 z" class="st3" id="path28" inkscape:connector-curvature="0" style="fill:#0078d4;stroke:none;stroke-width:34;stroke-linecap:butt" />
				</g>
				<g id="shape18854-11" transform="translate(12.3511,-30.1915)">
					<title id="title31">Sheet.18854</title>
					<path d="m 25.1,118.97 a 3.36677,3.36378 0 1 1 -3.37,3.36 3.36677,3.36378 0 0 1 3.37,-3.36 z m -14.09,3.36 a 3.36677,3.36378 -180 1 0 3.37,-3.36 3.36362,3.36063 -180 0 0 -3.37,3.36 z M 0,122.33 A 3.36677,3.36378 -180 1 0 3.36,118.97 3.36362,3.36063 -180 0 0 0,122.33 Z" class="st4" id="path33" inkscape:connector-curvature="0" style="fill:#ffffff;stroke:none;stroke-width:34;stroke-linecap:butt" />
				</g>
				<g id="shape18855-13" transform="translate(14.0881)">
					<title id="title36">Sheet.18855</title>
					<path d="m 36.2,117.78 h 4.75 a 13.3725,13.3606 -180 0 0 1.65,-6.01 h -5.21 a 16.6037,16.589 0 0 1 -1.19,6.01 z m 1.19,-6.96 h 5.21 a 13.3284,13.3165 -180 0 0 -1.64,-6.02 h -4.84 a 15.5035,15.4898 0 0 1 1.27,6.01 z m -7.07,13.89 a 13.5081,13.4961 -180 0 0 10.06,-5.99 h -4.65 a 16.112,16.0976 0 0 1 -5.41,5.99 z m 5.32,-20.87 h 4.73 A 13.4923,13.4803 -180 0 0 30.02,97.85 h -0.21 l 0.21,0.11 a 16.8433,16.8283 0 0 1 5.62,5.88 z m -6.33,0 h 5.29 a 15.1221,15.1087 -180 0 0 -0.71,-1.04 16.2664,16.252 -180 0 0 -3.87,-3.71 c -0.23,-0.16 -0.46,-0.32 -0.7,-0.46 z m 0,6.97 h 7.13 a 14.3403,14.3276 -180 0 0 -1.37,-6.02 h -5.76 z m 0,6.96 h 5.82 a 15.3901,15.3764 -180 0 0 1.31,-6.01 h -7.13 z m 5.36,0.94 h -5.36 v 5.52 a 15.7116,15.6976 -180 0 0 5.36,-5.51 z m -6.3,0 H 23.4 a 15.5193,15.5055 -180 0 0 4.97,5.27 z m 0,-20.09 a 14.9802,14.9669 -180 0 0 -4.82,4.82 l -0.23,0.39 h 5.04 z m 0,13.12 h -6.75 a 15.2797,15.2661 -180 0 0 1.31,6.02 h 5.44 z m 0,-6.96 h -5.5 a 15.6769,15.663 -180 0 0 -0.83,2.52 15.4184,15.4047 -180 0 0 -0.42,3.51 h 6.74 z m -0.66,19.93 a 16.2002,16.1858 0 0 1 -5.38,-5.99 h -4.45 c 0.05,0.07 0.09,0.14 0.14,0.2 a 12.6727,12.6614 -180 0 0 1.12,1.43 13.5175,13.5055 -180 0 0 8.57,4.36 z m 0.1,-26.86 a 13.527,13.515 -180 0 0 -9.68,5.6 c -0.1,0.13 -0.18,0.26 -0.27,0.38 h 4.42 l 0.21,-0.38 a 15.7085,15.6945 0 0 1 5.32,-5.6 z M 15.62,110.8 h 5.05 a 16.1876,16.1732 0 0 1 0.39,-3.51 16.9095,16.8945 0 0 1 0.77,-2.5 h -4.54 a 13.2748,13.263 -180 0 0 -1.06,2.52 13.631,13.6189 -180 0 0 -0.6,3.5 z m 1.67,6.98 h 4.57 c -0.06,-0.14 -0.11,-0.28 -0.16,-0.42 a 16.3137,16.2992 0 0 1 -0.99,-4.54 14.5452,14.5323 0 0 1 -0.05,-1.05 h -5.04 c 0,0.22 0.02,0.44 0.04,0.66 a 12.4426,12.4315 -180 0 0 0.21,1.44 13.3032,13.2913 -180 0 0 1.42,3.91 z m -1.07,0.79 A 13.2117,13.2 0 0 1 4.39,104.45 0.630482,0.629921 -180 0 0 4.345866,104.17598 0.652549,0.651969 -180 0 0 3.983339,103.78543 0.731359,0.730709 -180 0 0 3.712232,103.72873 L 1.19,103.73 c -0.97,0 -1.19,-0.53 -0.57,-1.16 l 5.6,-5.76 a 0.712444,0.711811 0 0 1 0.264802,-0.23622 0.734511,0.733858 0 0 1 0.668311,0 0.699835,0.699213 0 0 1 0.26165,0.23622 L 12.6,102.44 a 2.43996,2.4378 0 0 1 0.38,0.48 c 0.17,0.3 0.1,0.48 -0.19,0.59 a 2.32648,2.32441 0 0 1 -0.76,0.1 H 9.71 A 0.721902,0.72126 -180 0 0 8.984946,104.33441 8.64706,8.63937 -180 0 0 14.45,113.34 a 14.5578,14.5449 -180 0 0 1.77,5.22 z" class="st5" id="path38" inkscape:connector-curvature="0" style="fill:#50e6ff;stroke:none;stroke-width:34;stroke-linecap:butt" />
				</g>
			</g>
		</g>
	</g>
</svg>