<?xml version="1.0" encoding="UTF-8" standalone="no"?>
<!DOCTYPE svg PUBLIC "-//W3C//DTD SVG 1.1//EN" "http://www.w3.org/Graphics/SVG/1.1/DTD/svg11.dtd">
<!-- Generated by Microsoft Visio, SVG Export DNS Zone (Public).svg Page-1 -->
<svg xmlns="http://www.w3.org/2000/svg" xmlns:xlink="http://www.w3.org/1999/xlink" xmlns:ev="http://www.w3.org/2001/xml-events"
		width="1.64572in" height="1.68639in" viewBox="0 0 118.492 121.42" xml:space="preserve" color-interpolation-filters="sRGB"
		class="st4">
	<style type="text/css">
	<![CDATA[
		.st1 {fill:url(#grad7-6);stroke:none;stroke-linecap:butt;stroke-width:0.696362}
		.st2 {fill:#5ea0ef;stroke:none;stroke-linecap:butt;stroke-width:33.5821}
		.st3 {fill:#ffffff;stroke:none;stroke-linecap:butt;stroke-width:33.5821}
		.st4 {fill:none;fill-rule:evenodd;font-size:12px;overflow:visible;stroke-linecap:square;stroke-miterlimit:3}
	]]>
	</style>

	<defs id="Patterns_And_Gradients">
		<radialGradient id="grad7-6" cx="0" cy="0" r="1.4">
			<stop offset="0.18" stop-color="#5ea0ef" stop-opacity="1"/>
			<stop offset="1" stop-color="#0078d4" stop-opacity="1"/>
		</radialGradient>
	</defs>
	<g>
		<title>Page-1</title>
		<g id="group10217-1" transform="translate(30.7111,-34.0157)">
			<title>DNS Zone (Public).10217</title>
			<g id="group10218-2">
				<title>layer1</title>
				<g id="shape10219-3">
					<title>path822</title>
					<ellipse cx="28.3465" cy="93.0733" rx="28.3465" ry="28.3465" class="st1"/>
				</g>
				<g id="shape10220-7" transform="translate(4.11147,-3.92906)">
					<title>path11-4</title>
					<path d="M24.42 71.53 A25.6637 25.6637 -180 1 0 50.09 97.19 A25.6971 25.6971 -180 0 0 24.42 71.53 ZM41.61 80.17
								 A24.5958 24.5958 0 0 1 34.43 82.84 A29.4682 29.4682 -180 0 0 30.26 73.83 A24.0284 24.0284 0 0 1
								 41.61 80.17 ZM24.42 72.96 A21.9927 21.9927 0 0 1 28.06 73.26 A24.9629 24.9629 0 0 1 33.17 83.27
								 A50.4597 50.4597 0 0 1 14.98 83.27 A24.6291 24.6291 0 0 1 20.02 73.46 A24.4957 24.4957 0 0 1 24.42
								 72.96 L24.42 72.96 ZM17.75 73.83 A29.1011 29.1011 -180 0 0 13.51 82.77 A18.622 18.622 0 0 1 7.17
								 80.2 A24.529 24.529 0 0 1 17.75 73.83 ZM6.8 113.88 A17.5875 17.5875 0 0 1 12.74 111.34 A23.628 23.628
								 -180 0 0 17.25 120.42 A24.1953 24.1953 0 0 1 6.8 113.88 ZM28.19 121.22 A23.628 23.628 0 0 1 24.42
								 121.42 A22.7936 22.7936 0 0 1 19.62 120.92 A20.0237 20.0237 0 0 1 14.04 110.91 A49.1582 49.1582
								 0 0 1 33.67 110.91 A20.0237 20.0237 0 0 1 28.03 120.92 L28.19 121.22 ZM30.63 120.69 A23.7948 23.7948
								 -180 0 0 35.24 111.34 A22.293 22.293 0 0 1 41.91 114.11 A23.7948 23.7948 0 0 1 30.63 120.55 L30.63
								 120.69 ZM35.57 109.94 C35.84 108.74 36.07 107.5 36.24 106.2 L34.7 106.57 C34.54 107.6 34.37 108.64
								 34.13 109.61 A50.8268 50.8268 -180 0 0 13.81 109.61 C13.58 108.71 13.41 107.74 13.24 106.74 a0.934439
								 0.934439 0 0 1 0 -0.300203 L11.71 106 A7.87599 7.87599 -180 0 0 11.71 106.94 C11.71 108 12.07 109.01
								 12.27 109.97 A19.69 19.69 -180 0 0 5.6 112.81 A24.1619 24.1619 0 0 1 5.97 81.44 A20.9915 20.9915
								 -180 0 0 12.91 84.31 C12.68 85.11 12.48 85.98 12.31 86.85 C12.14 87.71 12.31 87.68 12.04 88.08 L13.61
								 87.71 L13.61 87.15 C13.81 86.28 14.01 85.44 14.24 84.64 A49.6921 49.6921 -180 0 0 24.42 85.44 A50.0592
								 50.0592 -180 0 0 33.7 84.58 C33.93 85.48 34.17 86.45 34.37 87.41 L35.9 87.78 C35.66 86.58 35.39
								 85.47 35.1 84.44 A25.7972 25.7972 -180 0 0 42.78 81.41 A24.0952 24.0952 0 0 1 42.98 113.08 A24.2954
								 24.2954 -180 0 0 35.57 109.84 L35.57 109.94 Z" class="st2"/>
				</g>
				<g id="shape10221-9" transform="translate(9.34963,-21.0513)">
					<title>path13-4</title>
					<path d="M0.03 107.5 A26.4313 26.4313 0 0 1 3.9 107.24 A8.14297 8.14297 0 0 1 9.61 108.97 A6.67456 6.67456 0
								 0 1 11.58 113.84 A7.37539 7.37539 0 0 1 9.54 119.32 A8.67693 8.67693 0 0 1 3.34 121.35 A30.6029
								 30.6029 0 0 1 -0 121.19 L0.03 107.5 ZM1.87 119.95 A13.3491 13.3491 -180 0 0 3.7 119.95 A5.4064 5.4064
								 -180 0 0 9.68 113.91 A5.00592 5.00592 -180 0 0 3.97 108.51 A10.5792 10.5792 -180 0 0 1.87 108.51
								 L1.87 119.95 ZM13.95 121.22 L13.95 107.17 L15.92 107.17 L20.42 114.18 A40.6481 40.6481 0 0 1 22.96
								 118.75 C22.79 116.88 22.76 115.18 22.76 112.98 L22.76 107.17 L24.43 107.17 L24.43 121.22 L22.59
								 121.22 L18.19 114.18 C17.22 112.61 16.29 110.84 15.55 109.51 L15.55 121.32 L13.95 121.22 ZM27.4
								 119.02 A6.67456 6.67456 -180 0 0 30.74 119.92 C32.61 119.92 33.67 118.95 33.67 117.52 C33.67 116.08
								 32.94 115.45 31.04 114.75 C29.13 114.04 27.3 112.74 27.3 110.74 A4.07148 4.07148 0 0 1 31.87 106.94
								 A6.67456 6.67456 0 0 1 34.97 107.6 L34.44 109.1 A5.43977 5.43977 -180 0 0 31.77 108.44 C29.84 108.44
								 29.1 109.57 29.1 110.54 C29.1 111.51 29.97 112.51 31.9 113.24 C33.84 113.98 35.51 115.31 35.51 117.38
								 C35.51 119.45 33.91 121.42 30.57 121.42 A7.20853 7.20853 0 0 1 27 120.52 L27.4 119.02 Z"
							class="st3"/>
				</g>
			</g>
		</g>
	</g>
</svg>
