<?xml version="1.0" encoding="UTF-8" standalone="no"?>
<!-- Generated by Microsoft Visio, SVG Export ExpressRoute Peering.svg Page-1 -->
<svg xmlns:dc="http://purl.org/dc/elements/1.1/" xmlns:cc="http://creativecommons.org/ns#" xmlns:rdf="http://www.w3.org/1999/02/22-rdf-syntax-ns#" xmlns:svg="http://www.w3.org/2000/svg" xmlns="http://www.w3.org/2000/svg" xmlns:xlink="http://www.w3.org/1999/xlink" xmlns:sodipodi="http://sodipodi.sourceforge.net/DTD/sodipodi-0.dtd" xmlns:inkscape="http://www.inkscape.org/namespaces/inkscape" width="57.987958" height="57.997818" viewBox="0 0 57.987958 57.997818" xml:space="preserve" class="st4" version="1.1" id="svg65" sodipodi:docname="ExpressRoute Peering.svg" style="font-size:12px;overflow:visible;color-interpolation-filters:sRGB;fill:none;fill-rule:evenodd;stroke-linecap:square;stroke-miterlimit:3" inkscape:version="0.92.5 (2060ec1f9f, 2020-04-08)">
  <metadata id="metadata69">
    <rdf:RDF>
      <cc:Work rdf:about="">
        <dc:format>image/svg+xml</dc:format>
        <dc:type rdf:resource="http://purl.org/dc/dcmitype/StillImage" />
      </cc:Work>
    </rdf:RDF>
  </metadata>
  <sodipodi:namedview pagecolor="#ffffff" bordercolor="#666666" borderopacity="1" objecttolerance="10" gridtolerance="10" guidetolerance="10" inkscape:pageopacity="0" inkscape:pageshadow="2" inkscape:window-width="640" inkscape:window-height="480" id="namedview67" showgrid="false" inkscape:zoom="1.4046094" inkscape:cx="38.653884" inkscape:cy="38.64968" inkscape:window-x="0" inkscape:window-y="0" inkscape:window-maximized="0" inkscape:current-layer="svg65" />
	<style type="text/css" id="style2">
	<![CDATA[
		.st1 {fill:#cccccc;stroke:none;stroke-linecap:butt;stroke-width:34}
		.st2 {fill:#ffffff;stroke:none;stroke-linecap:butt;stroke-width:34}
		.st3 {fill:url(#grad0-10);stroke:none;stroke-linecap:butt;stroke-width:34}
		.st4 {fill:none;fill-rule:evenodd;font-size:12px;overflow:visible;stroke-linecap:square;stroke-miterlimit:3}
	]]>
	</style>

	<defs id="Patterns_And_Gradients">
		<linearGradient id="grad0-10" x1="0" y1="0" x2="1" y2="0" gradientTransform="rotate(-90,0.5,0.5)">
			<stop offset="0" stop-color="#773adc" stop-opacity="1" id="stop4" />
			<stop offset="1" stop-color="#a67af4" stop-opacity="1" id="stop6" />
		</linearGradient>
	<linearGradient inkscape:collect="always" xlink:href="#grad0-10" id="linearGradient4579" gradientTransform="scale(0.99624232,1.0037719)" x1="-1.8612521" y1="112.83451" x2="10.840738" y2="112.83451" gradientUnits="userSpaceOnUse" /><linearGradient inkscape:collect="always" xlink:href="#grad0-10" id="linearGradient4581" gradientTransform="scale(0.99624232,1.0037719)" x1="-1.8612521" y1="112.83451" x2="10.840738" y2="112.83451" gradientUnits="userSpaceOnUse" /><linearGradient inkscape:collect="always" xlink:href="#grad0-10" id="linearGradient4583" gradientTransform="scale(0.99624235,1.0037718)" x1="-1.8612365" y1="112.83451" x2="10.840753" y2="112.83451" gradientUnits="userSpaceOnUse" /><linearGradient inkscape:collect="always" xlink:href="#grad0-10" id="linearGradient4585" gradientTransform="scale(0.99624235,1.0037718)" x1="-1.8612365" y1="112.83451" x2="10.840753" y2="112.83451" gradientUnits="userSpaceOnUse" /></defs>
	<g id="g63" transform="translate(-34.003542,-33.996504)">
		<title id="title10">Page-1</title>
		<g id="group18755-1" transform="translate(35.2951,-34.0157)">
			<title id="title12">ExpressRoute Peering.18755</title>
			<g id="group18756-2">
				<title id="title14">Sheet.18756</title>
				<g id="shape18757-3" transform="translate(2.71899,-4.10282)">
					<title id="title16">Sheet.18757</title>
					<path d="M 48.82,100.29 26.39,77.35 25.23,78.49 24.09,77.34 0,101.44 25.24,126.01 48.78,102.58 47.65,101.44 Z M 26.85,82.48 45.36,101.42 26.85,119.84 Z m -3.22,-0.07 v 37.48 l -19,-18.47 z" class="st1" id="path18" inkscape:connector-curvature="0" style="fill:#cccccc;stroke:none;stroke-width:34;stroke-linecap:butt" />
				</g>
				<g id="shape18758-5" transform="translate(22.9214,-46.5527)">
					<title id="title21">Sheet.18758</title>
					<ellipse cx="5.0320702" cy="120.943" rx="5.0320702" ry="5.0700998" class="st2" id="ellipse23" style="fill:#ffffff;stroke:none;stroke-width:34;stroke-linecap:butt" />
				</g>
				<g id="shape18759-7" transform="translate(23.4751,-45.2479)">
					<title id="title26">Sheet.18759</title>
					<path d="m 4.48,126.01 a 6.32713,6.37495 0 1 1 6.32,-6.37 6.33358,6.38144 0 0 1 -6.32,6.37 z m 0,-10.13 a 3.737,3.76525 -180 1 0 3.73,3.76 3.74022,3.76849 -180 0 0 -3.73,-3.76 z" class="st3" id="path28" inkscape:connector-curvature="0" style="fill:url(#linearGradient4579);stroke:none;stroke-width:34;stroke-linecap:butt" />
				</g>
				<g id="shape18760-11" transform="translate(22.9214,-1.30485)">
					<title id="title31">Sheet.18760</title>
					<ellipse cx="5.0320702" cy="120.943" rx="5.0320702" ry="5.0700998" class="st2" id="ellipse33" style="fill:#ffffff;stroke:none;stroke-width:34;stroke-linecap:butt" />
				</g>
				<g id="shape18761-13" transform="translate(23.4751)">
					<title id="title36">Sheet.18761</title>
					<path d="m 4.48,126.01 a 6.32713,6.37495 0 1 1 6.32,-6.37 6.33358,6.38144 0 0 1 -6.32,6.37 z m 0,-10.14 a 3.737,3.76525 -180 1 0 3.73,3.77 3.74022,3.76849 -180 0 0 -3.73,-3.77 z" class="st3" id="path38" inkscape:connector-curvature="0" style="fill:url(#linearGradient4581);stroke:none;stroke-width:34;stroke-linecap:butt" />
				</g>
				<g id="shape18762-16" transform="translate(45.3337,-23.6139)">
					<title id="title41">Sheet.18762</title>
					<ellipse cx="5.0320702" cy="120.943" rx="5.0320702" ry="5.0700998" class="st2" id="ellipse43" style="fill:#ffffff;stroke:none;stroke-width:34;stroke-linecap:butt" />
				</g>
				<g id="shape18763-18" transform="translate(45.8964,-22.3123)">
					<title id="title46">Sheet.18763</title>
					<path d="m 4.47,126.01 a 6.32713,6.37495 0 1 1 6.33,-6.36 6.33358,6.38144 0 0 1 -6.33,6.36 z m 0,-10.13 a 3.737,3.76525 -180 1 0 3.75,3.77 3.74022,3.76849 -180 0 0 -3.75,-3.77 z" class="st3" id="path48" inkscape:connector-curvature="0" style="fill:url(#linearGradient4583);stroke:none;stroke-width:34;stroke-linecap:butt" />
				</g>
				<g id="shape18764-21" transform="translate(0,-23.6139)">
					<title id="title51">Sheet.18764</title>
					<ellipse cx="5.0320702" cy="120.943" rx="5.0320702" ry="5.0700998" class="st2" id="ellipse53" style="fill:#ffffff;stroke:none;stroke-width:34;stroke-linecap:butt" />
				</g>
				<g id="shape18765-23" transform="translate(0.562685,-22.3123)">
					<title id="title56">Sheet.18765</title>
					<path d="m 4.47,126.01 a 6.32713,6.37495 0 1 1 6.33,-6.36 6.33358,6.38144 0 0 1 -6.33,6.36 z m 0,-10.13 a 3.737,3.76525 -180 1 0 3.74,3.77 3.74022,3.76849 -180 0 0 -3.74,-3.77 z" class="st3" id="path58" inkscape:connector-curvature="0" style="fill:url(#linearGradient4585);stroke:none;stroke-width:34;stroke-linecap:butt" />
				</g>
			</g>
		</g>
	</g>
</svg>