<?xml version="1.0" encoding="UTF-8" standalone="no"?>
<!DOCTYPE svg PUBLIC "-//W3C//DTD SVG 1.1//EN" "http://www.w3.org/Graphics/SVG/1.1/DTD/svg11.dtd">
<!-- Generated by Microsoft Visio, SVG Export Network Function Manager Network Function.svg Page-1 -->
<svg xmlns="http://www.w3.org/2000/svg" xmlns:xlink="http://www.w3.org/1999/xlink" xmlns:ev="http://www.w3.org/2001/xml-events"
		width="1.76036in" height="1.6927in" viewBox="0 0 126.746 121.874" xml:space="preserve" color-interpolation-filters="sRGB"
		class="st7">
	<style type="text/css">
	<![CDATA[
		.st1 {fill:url(#grad0-6);stroke:none;stroke-linecap:butt;stroke-width:34}
		.st2 {fill:url(#grad0-10);stroke:none;stroke-linecap:butt;stroke-width:34}
		.st3 {fill:#ffffff;stroke:none;stroke-linecap:butt;stroke-width:34}
		.st4 {fill:#ffffff;fill-opacity:0.6;stroke:none;stroke-linecap:butt;stroke-width:34}
		.st5 {fill:#b796f9;stroke:none;stroke-linecap:butt;stroke-width:34}
		.st6 {fill:url(#grad0-20);stroke:none;stroke-linecap:butt;stroke-width:34}
		.st7 {fill:none;fill-rule:evenodd;font-size:12px;overflow:visible;stroke-linecap:square;stroke-miterlimit:3}
	]]>
	</style>

	<defs id="Patterns_And_Gradients">
		<linearGradient id="grad0-6" x1="0" y1="0" x2="1" y2="0" gradientTransform="rotate(90 0.5 0.5)">
			<stop offset="0" stop-color="#9d79eb" stop-opacity="1"/>
			<stop offset="1" stop-color="#7548d6" stop-opacity="1"/>
		</linearGradient>
		<linearGradient id="grad0-10" x1="0" y1="0" x2="1" y2="0" gradientTransform="rotate(90.110180853557 0.5 0.5)">
			<stop offset="0" stop-color="#3cd4c2" stop-opacity="1"/>
			<stop offset="1" stop-color="#37c2b1" stop-opacity="1"/>
		</linearGradient>
		<linearGradient id="grad0-20" x1="0" y1="0" x2="1" y2="0" gradientTransform="rotate(90.110145640843 0.5 0.5)">
			<stop offset="0" stop-color="#3cd4c2" stop-opacity="1"/>
			<stop offset="1" stop-color="#37c2b1" stop-opacity="1"/>
		</linearGradient>
	</defs>
	<g>
		<title>Page-1</title>
		<g id="group16667-1" transform="translate(36.0529,-34.0157)">
			<title>Network Function Manager Network Function.16667</title>
			<g id="group16668-2">
				<title>Sheet.16668</title>
				<g id="shape16669-3" transform="translate(0,-13.2964)">
					<title>Sheet.16669</title>
					<path d="M11.72 84.88 A24.6742 24.8139 -180 0 0 7.57 93.24 L2.45 93.24 A19.2902 19.3995 0 0 1 11.72 84.88 ZM1.26
								 109.48 L7.2 109.48 A25.9027 26.0494 0 0 1 6.2 102.66 A33.1193 33.3069 0 0 1 7.03 95.3 L1.45 95.3
								 A18.9814 19.0889 -180 0 0 1.26 109.48 ZM13.05 120.92 A28.7759 28.9389 0 0 1 7.85 111.54 L2.17 111.54
								 A19.2667 19.3758 -180 0 0 13.05 120.92 ZM10.03 111.54 A20.6731 20.7902 -180 0 0 17.2 121.85 C17.39
								 121.87 17.58 121.87 17.76 121.87 C17.76 121.82 17.73 121.77 17.73 121.71 L17.73 113.91 A2.62484
								 2.6397 0 0 1 18.23 112.42 L18.23 111.54 L10.03 111.54 ZM8.25 102.66 A24.221 24.3582 -180 0 0 9.36
								 109.48 L18.26 109.48 L18.26 95.3 L9.11 95.3 A31.2396 31.4165 -180 0 0 8.25 102.66 ZM9.68 93.24 L18.26
								 93.24 L18.26 83.41 A18.5786 18.6838 -180 0 0 16.41 83.58 A15.7558 15.845 -180 0 0 9.68 93.24 ZM21.54
								 83.52 A19.2567 19.3657 -180 0 0 20.29 83.42 L20.29 93.24 L28.4 93.24 A15.4134 15.5007 -180 0 0 21.54
								 83.52 ZM20.29 109.48 L28.72 109.48 A24.3486 24.4865 -180 0 0 29.83 102.66 A31.0651 31.241 -180 0
								 0 28.97 95.3 L20.29 95.3 L20.29 109.48 ZM26.23 84.73 A24.3754 24.5135 0 0 1 30.51 93.24 L35.91 93.24
								 A19.2869 19.3961 -180 0 0 26.23 84.73 ZM31.04 95.3 A33.0824 33.2697 0 0 1 31.87 102.65 A25.953 26.1
								 0 0 1 30.86 109.48 L37.09 109.48 A18.9814 19.0889 -180 0 0 36.9 95.3 L31.04 95.3 Z" class="st1"/>
				</g>
				<g id="shape16670-7" transform="translate(19.1765,5.68434E-14)">
					<title>Sheet.16670</title>
					<path d="M0 120.61 A1.25539 1.2625 -180 0 0 1.26 121.87 L36.26 121.87 A1.25539 1.2625 -180 0 0 37.52 120.61 L37.52
								 112.82 A1.25539 1.2625 -180 0 0 36.26 111.56 L1.26 111.56 A1.25539 1.2625 -180 0 0 0 112.82 L0 120.61
								 Z" class="st2"/>
				</g>
				<g id="shape16671-11" transform="translate(50.8659,-5.69123)">
					<title>Sheet.16671</title>
					<path d="M0 121.24 a0.627694 0.631248 -180 0 0 0.627679 0.631234 L2.18 121.87 a0.627694 0.631248 -180 0 0 0.627679
								 -0.631234 L2.8 119.69 a0.627694 0.631248 -180 0 0 -0.627679 -0.631234 L0.63 119.06 a0.627694 0.631248
								 -180 0 0 -0.627679 0.631234 L0 121.24 Z" class="st3"/>
				</g>
				<g id="shape16672-13" transform="translate(50.8659,-1.80594)">
					<title>Sheet.16672</title>
					<path d="M0 121.24 a0.627694 0.631248 -180 0 0 0.627679 0.631234 L2.18 121.87 a0.627694 0.631248 -180 0 0 0.627679
								 -0.631234 L2.8 119.69 a0.627694 0.631248 -180 0 0 -0.627679 -0.631234 L0.63 119.06 a0.627694 0.631248
								 -180 0 0 -0.627679 0.631234 L0 121.24 Z" class="st4"/>
				</g>
				<g id="shape16673-15" transform="translate(0,-11.1698)">
					<title>Sheet.16673</title>
					<path d="M17.77 119.75 C17.59 119.75 17.4 119.75 17.21 119.72 A20.6731 20.7902 0 0 1 10.04 109.41 L18.24 109.41
								 L18.24 110.3 A2.65505 2.67008 0 0 1 20.43 109.07 L38.56 109.07 A20.6731 20.7902 -180 0 0 38.41 91.52
								 L38.21 91.11 A21.2505 21.3708 -180 0 0 22.05 79.4 A4.48774 4.51315 -180 0 0 21.06 79.28 A20.5557
								 20.6721 -180 0 0 17.01 79.29 A5.8203 5.85326 -180 0 0 15.86 79.47 A21.2672 21.3877 -180 0 0 0.17
								 91.12 L0.13 91.12 L0.13 91.16 A21.1464 21.2662 -180 0 0 16.53 121.69 a0.533695 0.536717 -180 0 0
								 0.161115 0.0236291 A20.371 20.4864 -180 0 0 19.08 121.87 A2.66176 2.67684 0 0 1 17.77 119.75 ZM37.1
								 107.35 L30.87 107.35 A25.953 26.1 -180 0 0 31.88 100.52 A33.0824 33.2697 -180 0 0 31.05 93.17 L36.92
								 93.17 A18.9814 19.0889 0 0 1 37.1 107.35 ZM35.91 91.12 L30.51 91.12 A24.3754 24.5135 -180 0 0 26.23
								 82.61 A19.2869 19.3961 0 0 1 35.91 91.12 ZM20.29 81.29 C20.71 81.32 21.12 81.35 21.54 81.4 A15.4134
								 15.5007 0 0 1 28.4 91.11 L20.29 91.11 L20.29 81.29 ZM20.29 93.17 L28.97 93.17 A31.0651 31.241 0
								 0 1 29.83 100.53 A24.3486 24.4865 0 0 1 28.72 107.35 L20.29 107.35 L20.29 93.17 ZM18.26 107.35 L9.36
								 107.35 A24.221 24.3582 0 0 1 8.25 100.53 A31.2396 31.4165 0 0 1 9.11 93.17 L18.26 93.17 L18.26 107.35
								 ZM16.4 81.47 C17.01 81.38 17.62 81.32 18.25 81.29 L18.25 91.12 L9.68 91.12 A15.7558 15.845 0 0 1
								 16.4 81.47 ZM11.7 82.77 A24.6742 24.8139 -180 0 0 7.57 91.12 L2.45 91.12 A19.2902 19.3995 0 0 1
								 11.72 82.75 L11.7 82.77 ZM1.45 93.17 L7.04 93.17 A33.1193 33.3069 -180 0 0 6.21 100.53 A25.9027
								 26.0494 -180 0 0 7.21 107.35 L1.26 107.35 A18.9814 19.0889 0 0 1 1.45 93.17 ZM2.17 109.41 L7.85
								 109.41 A28.7759 28.9389 -180 0 0 13.06 118.79 A19.2667 19.3758 0 0 1 2.17 109.41 Z" class="st5"/>
				</g>
				<g id="shape16674-17" transform="translate(19.1765,-12.2027)">
					<title>Sheet.16674</title>
					<path d="M0 120.61 A1.25539 1.2625 -180 0 0 1.26 121.87 L36.26 121.87 A1.25539 1.2625 -180 0 0 37.52 120.61 L37.52
								 112.82 A1.25539 1.2625 -180 0 0 36.26 111.56 L1.26 111.56 A1.25539 1.2625 -180 0 0 0 112.82 L0 120.61
								 Z" class="st6"/>
				</g>
				<g id="shape16675-21" transform="translate(50.8659,-17.8973)">
					<title>Sheet.16675</title>
					<path d="M0 121.24 a0.627694 0.631248 -180 0 0 0.627679 0.631234 L2.18 121.87 a0.627694 0.631248 -180 0 0 0.627679
								 -0.631234 L2.8 119.69 a0.627694 0.631248 -180 0 0 -0.627679 -0.631234 L0.63 119.06 a0.627694 0.631248
								 -180 0 0 -0.627679 0.631234 L0 121.24 Z" class="st3"/>
				</g>
				<g id="shape16676-23" transform="translate(50.8659,-14.0087)">
					<title>Sheet.16676</title>
					<path d="M0 121.24 a0.627694 0.631248 -180 0 0 0.627679 0.631234 L2.18 121.87 a0.627694 0.631248 -180 0 0 0.627679
								 -0.631234 L2.8 119.69 a0.627694 0.631248 -180 0 0 -0.627679 -0.631234 L0.63 119.06 a0.627694 0.631248
								 -180 0 0 -0.627679 0.631234 L0 121.24 Z" class="st4"/>
				</g>
			</g>
		</g>
	</g>
</svg>
