<?xml version="1.0" encoding="UTF-8" standalone="no"?>
<!-- Generated by Microsoft Visio, SVG Export Peering.svg Page-1 -->

<svg
   xmlns:dc="http://purl.org/dc/elements/1.1/"
   xmlns:cc="http://creativecommons.org/ns#"
   xmlns:rdf="http://www.w3.org/1999/02/22-rdf-syntax-ns#"
   xmlns:svg="http://www.w3.org/2000/svg"
   xmlns="http://www.w3.org/2000/svg"
   xmlns:sodipodi="http://sodipodi.sourceforge.net/DTD/sodipodi-0.dtd"
   xmlns:inkscape="http://www.inkscape.org/namespaces/inkscape"
   width="0.78745443in"
   height="0.67463946in"
   viewBox="0 0 56.696627 48.574075"
   xml:space="preserve"
   class="st5"
   version="1.1"
   id="svg40"
   sodipodi:docname="Peering.svg"
   style="font-size:12px;overflow:visible;color-interpolation-filters:sRGB;fill:none;fill-rule:evenodd;stroke-linecap:square;stroke-miterlimit:3"
   inkscape:version="0.92.5 (2060ec1f9f, 2020-04-08)"><metadata
   id="metadata44"><rdf:RDF><cc:Work
       rdf:about=""><dc:format>image/svg+xml</dc:format><dc:type
         rdf:resource="http://purl.org/dc/dcmitype/StillImage" /></cc:Work></rdf:RDF></metadata><sodipodi:namedview
   pagecolor="#ffffff"
   bordercolor="#666666"
   borderopacity="1"
   objecttolerance="10"
   gridtolerance="10"
   guidetolerance="10"
   inkscape:pageopacity="0"
   inkscape:pageshadow="2"
   inkscape:window-width="640"
   inkscape:window-height="480"
   id="namedview42"
   showgrid="false"
   inkscape:zoom="1.5183239"
   inkscape:cx="37.801656"
   inkscape:cy="32.379084"
   inkscape:window-x="0"
   inkscape:window-y="0"
   inkscape:window-maximized="0"
   inkscape:current-layer="svg40" />
	<style
   type="text/css"
   id="style2">
	<![CDATA[
		.st1 {fill:url(#grad0-6);stroke:none;stroke-linecap:butt;stroke-width:34}
		.st2 {fill:#ffffff;stroke:none;stroke-linecap:butt;stroke-width:34}
		.st3 {fill:#0078d4;stroke:none;stroke-linecap:butt;stroke-width:34}
		.st4 {fill:#83b9f9;stroke:none;stroke-linecap:butt;stroke-width:34}
		.st5 {fill:none;fill-rule:evenodd;font-size:12px;overflow:visible;stroke-linecap:square;stroke-miterlimit:3}
	]]>
	</style>

	<defs
   id="Patterns_And_Gradients">
		<linearGradient
   id="grad0-6"
   x1="0"
   y1="100.10265"
   x2="37.366229"
   y2="100.10265"
   gradientTransform="scale(1.1791396,0.84807601)"
   gradientUnits="userSpaceOnUse">
			<stop
   offset="0"
   stop-color="#773adc"
   stop-opacity="1"
   id="stop4" />
			<stop
   offset="1"
   stop-color="#a67af4"
   stop-opacity="1"
   id="stop6" />
		</linearGradient>
	</defs>
	<g
   id="g38"
   transform="translate(-33.995384,-33.998257)">
		<title
   id="title10">Page-1</title>
		<g
   id="group17703-1"
   transform="translate(34,-34.3816)">
			<title
   id="title12">Peering.17703</title>
			<g
   id="group17704-2">
				<title
   id="title14">Sheet.17704</title>
				<g
   id="shape17705-3"
   transform="translate(12.632,-16.5148)">
					<title
   id="title16">Sheet.17705</title>
					<path
   d="M 44.06,106.56 A 9.91165,9.96904 -180 0 0 35.47,96.88 12.4683,12.5405 -180 0 0 22.65,84.9 12.8272,12.9015 -180 0 0 10.39,93.38 11.7976,11.8659 -180 0 0 0,104.83 11.9928,12.0623 -180 0 0 12.3,116.58 h 21.82 a 10.0376,10.0957 -180 0 0 9.94,-10.02 z"
   class="st1"
   id="path18"
   inkscape:connector-curvature="0"
   style="fill:url(#grad0-6);stroke:none;stroke-width:34;stroke-linecap:butt" />
				</g>
				<g
   id="shape17706-7"
   transform="translate(22.6066,-20.7678)">
					<title
   id="title21">Sheet.17706</title>
					<path
   d="m 22.51,102.18 -5.87,-5.74 c -0.63,-0.63 -1.18,-0.42 -1.18,0.58 v 2.58 a 0.705277,0.70936 0 0 1 -0.705277,0.71253 L 14.72,100.31 c -3.78,0 -14.34,1.01 -14.72,15.52 a 0.736762,0.741028 -180 0 0 0.736762,0.7442 L 4.49,116.58 a 0.739911,0.744195 -180 0 0 0.743059,-0.74103 L 5.23,115.77 a 8.85689,8.90817 0 0 1 9.62,-10.75 0.739911,0.744195 0 0 1 0.736762,0.7442 L 15.58,108.15 c 0,1.19 0.39,1.39 1.19,0.58 l 5.74,-5.32 a 0.736762,0.741028 -180 0 0 0.19521,-1.02921 0.821773,0.826531 -180 0 0 -0.19521,-0.19634 z"
   class="st2"
   id="path23"
   inkscape:connector-curvature="0"
   style="fill:#ffffff;stroke:none;stroke-width:34;stroke-linecap:butt" />
				</g>
				<g
   id="shape17707-9"
   transform="translate(0.406178)">
					<title
   id="title26">Sheet.17707</title>
					<ellipse
   cx="16.9361"
   cy="99.541603"
   rx="16.9361"
   ry="17.0341"
   class="st3"
   id="ellipse28"
   style="fill:#0078d4;stroke:none;stroke-width:34;stroke-linecap:butt" />
				</g>
				<g
   id="shape17708-11"
   transform="translate(0,-0.918368)">
					<title
   id="title31">Sheet.17708</title>
					<path
   d="m 34.65,99.88 h -0.03 a 17.3171,17.4173 -180 1 0 0,1.15 h 0.03 z m -7.18,0 a 19.9304,20.0458 -180 0 0 -1.39,-7.25 h 5.35 a 15.9663,16.0588 0 0 1 2.03,7.25 z m -26.26,1.15 h 6.23 a 19.8674,19.9824 -180 0 0 1.43,7.26 H 3.25 A 15.9537,16.0461 0 0 1 1.22,101.03 Z M 24.3,91.49 h -6.39 v -6.52 a 18.2144,18.3199 0 0 1 6.39,6.52 z m -7.53,0 h -5.98 a 19.3038,19.4156 0 0 1 5.98,-6.06 z m 0,1.14 v 7.25 H 8.58 a 17.3171,17.4173 0 0 1 1.64,-7.25 z M 7.43,99.88 H 1.22 a 15.9632,16.0556 0 0 1 2.02,-7.25 h 5.72 a 18.6489,18.7569 -180 0 0 -1.53,7.25 z m 1.15,1.15 h 8.18 v 7.26 h -6.61 a 18.3876,18.494 0 0 1 -1.57,-7.26 z m 8.18,8.41 v 6.43 a 18.6993,18.8075 0 0 1 -6.06,-6.43 z m 1.15,0 h 6.29 a 18.8693,18.9785 0 0 1 -6.29,6.59 z m 0,-1.15 v -7.26 h 8.43 a 18.3876,18.494 0 0 1 -1.58,7.26 z m 0,-8.41 v -7.25 h 6.92 a 18.5072,18.6144 0 0 1 1.5,7.25 z m 12.9,-8.39 h -5.27 a 18.7717,18.8804 -180 0 0 -6.5,-7.13 16.1332,16.2266 0 0 1 11.78,7.13 z M 16.44,84.27 A 20.2924,20.4099 -180 0 0 9.53,91.49 H 3.86 A 16.1426,16.2361 0 0 1 16.44,84.27 Z M 3.87,109.44 h 5.55 a 19.329,19.4409 -180 0 0 6.34,7.14 16.1395,16.2329 0 0 1 -11.89,-7.14 z m 15.31,7.11 a 19.2723,19.3839 -180 0 0 6.31,-7.11 h 5.33 a 16.1489,16.2424 0 0 1 -11.64,7.11 z m 12.26,-8.26 h -5.39 a 19.8013,19.9159 -180 0 0 1.43,-7.26 h 5.98 a 15.9947,16.0873 0 0 1 -2.02,7.26 z"
   class="st4"
   id="path33"
   inkscape:connector-curvature="0"
   style="fill:#83b9f9;stroke:none;stroke-width:34;stroke-linecap:butt" />
				</g>
			</g>
		</g>
	</g>
</svg>