<?xml version="1.0" encoding="UTF-8" standalone="no"?>
<!DOCTYPE svg PUBLIC "-//W3C//DTD SVG 1.1//EN" "http://www.w3.org/Graphics/SVG/1.1/DTD/svg11.dtd">
<!-- Generated by Microsoft Visio, SVG Export Private Link.svg Page-1 -->
<svg xmlns="http://www.w3.org/2000/svg" xmlns:xlink="http://www.w3.org/1999/xlink" xmlns:ev="http://www.w3.org/2001/xml-events"
		width="1.1274in" height="1.39047in" viewBox="0 0 81.1729 100.114" xml:space="preserve" color-interpolation-filters="sRGB"
		class="st6">
	<style type="text/css">
	<![CDATA[
		.st1 {fill:#7a7a7a;stroke:none;stroke-linecap:butt;stroke-width:12.24}
		.st2 {fill:#1490df;stroke:none;stroke-linecap:butt;stroke-width:12.24}
		.st3 {fill:url(#grad0-10);stroke:none;stroke-linecap:butt;stroke-width:12.24}
		.st4 {fill:url(#grad0-14);stroke:none;stroke-linecap:butt;stroke-width:12.24}
		.st5 {fill:#50e6ff;stroke:none;stroke-linecap:butt;stroke-width:12.24}
		.st6 {fill:none;fill-rule:evenodd;font-size:12px;overflow:visible;stroke-linecap:square;stroke-miterlimit:3}
	]]>
	</style>

	<defs id="Patterns_And_Gradients">
		<linearGradient id="grad0-10" x1="0" y1="0" x2="1" y2="0" gradientTransform="rotate(90 0.5 0.5)">
			<stop offset="0.23" stop-color="#5ea0ef" stop-opacity="1"/>
			<stop offset="0.32" stop-color="#5b9fee" stop-opacity="1"/>
			<stop offset="0.48" stop-color="#509aeb" stop-opacity="1"/>
			<stop offset="0.57" stop-color="#3f92e6" stop-opacity="1"/>
			<stop offset="0.75" stop-color="#2688df" stop-opacity="1"/>
			<stop offset="0.93" stop-color="#127fd9" stop-opacity="1"/>
		</linearGradient>
		<linearGradient id="grad0-14" x1="0" y1="0" x2="1" y2="0" gradientTransform="rotate(90 0.5 0.5)">
			<stop offset="0.02" stop-color="#5ea0ef" stop-opacity="1"/>
			<stop offset="0.14" stop-color="#5b9fee" stop-opacity="1"/>
			<stop offset="0.23" stop-color="#5b9fee" stop-opacity="1"/>
			<stop offset="0.34" stop-color="#509aeb" stop-opacity="1"/>
			<stop offset="0.44" stop-color="#3f92e6" stop-opacity="1"/>
			<stop offset="0.63" stop-color="#2688df" stop-opacity="1"/>
			<stop offset="0.93" stop-color="#127fd9" stop-opacity="1"/>
		</linearGradient>
	</defs>
	<g>
		<title>Page-1</title>
		<g id="group8923-1" transform="translate(12.24,-34.0157)">
			<title>Private Link.8923</title>
			<g id="group8924-2">
				<title>Artboard 1</title>
				<g id="shape8925-3" transform="translate(25.9891,-25.0122)">
					<title>Sheet.8925</title>
					<rect x="0" y="77.3027" width="3.53601" height="22.8113" class="st1"/>
				</g>
				<g id="shape8926-5" transform="translate(22.571,-43.2371)">
					<title>Sheet.8926</title>
					<path d="M10.37 94.8 A5.18614 5.31057 0 1 1 0 94.8 A5.18614 5.31057 0 0 1 10.37 94.8 Z" class="st2"/>
				</g>
				<g id="shape8927-7" transform="translate(14.3953,-11.7358)">
					<title>Sheet.8927</title>
					<path d="M12.65 85.63 L7 85.63 A7.07202 7.24168 -180 0 0 5.9 100.02 A7.55527 7.73653 0 0 1 5.97 97.33 A4.46716
								 4.57433 0 0 1 7 88.29 L12.65 88.29 A4.47894 4.5864 0 0 1 12.65 97.46 L11.1 97.46 A3.37099 3.45187
								 -180 0 0 10.77 98.91 A3.2767 3.35531 -180 0 0 10.99 100.11 L12.65 100.11 A7.07202 7.24168 -180 0
								 0 12.65 85.63 Z" class="st3"/>
				</g>
				<g id="shape8928-11" transform="translate(21.3923,-5.7011)">
					<title>Sheet.8928</title>
					<path d="M13.83 85.73 A8.25068 8.44863 0 0 1 13.91 86.84 A7.37847 7.55549 0 0 1 13.76 88.42 A4.46716 4.57433
								 0 0 1 12.73 97.46 L7.07 97.46 A4.47894 4.5864 0 1 1 7.07 88.29 L8.63 88.29 A3.32385 3.40359 -180
								 0 0 8.96 86.84 A3.2767 3.35531 -180 0 0 8.73 85.63 L7.07 85.63 A7.07202 7.24168 -180 0 0 7.07 100.11
								 L12.73 100.11 A7.07202 7.24168 -180 0 0 13.83 85.73 Z" class="st4"/>
				</g>
				<g id="shape8929-15" transform="translate(0,-1.05515)">
					<title>Sheet.8929</title>
					<path d="M17.57 98.51 L16.28 99.85 a0.884002 0.90521 0 0 1 -1.24939 0 L0.52 85.03 A1.77979 1.82249 0 0 1 0.52
								 82.46 L1.83 81.13 L17.57 97.23 a0.872215 0.893141 0 0 1 -1.42109E-14 1.27936 Z" class="st5"/>
				</g>
				<g id="shape8930-17" transform="translate(0,-14.6446)">
					<title>Sheet.8930</title>
					<path d="M16.01 81.44 L17.46 82.93 a0.884002 0.90521 0 0 1 7.10543E-15 1.27936 L1.97 100.11 L0.52 98.64 A1.77979
								 1.82249 0 0 1 0.52 96.07 L14.76 81.44 a0.884002 0.90521 0 0 1 1.24939 -1.42109E-14 Z" class="st2"/>
				</g>
				<g id="shape8931-19" transform="translate(38.8442,0)">
					<title>Sheet.8931</title>
					<path d="M0.26 98.5 a0.872215 0.893141 0 0 1 -8.77076E-15 -1.27936 L16.02 81.14 L17.33 82.48 A1.77979 1.82249
								 0 0 1 17.33 85.05 L2.81 99.84 a0.872215 0.893141 0 0 1 -1.24939 0 L0.26 98.5 Z" class="st5"/>
				</g>
				<g id="shape8932-21" transform="translate(38.9707,-13.5825)">
					<title>Sheet.8932</title>
					<path d="M2.95 81.44 L17.2 96.07 A1.768 1.81042 0 0 1 17.2 98.63 L15.75 100.11 L0.25 84.21 a0.907575 0.929349
								 0 0 1 -6.66134E-15 -1.29143 L1.7 81.44 a0.884002 0.90521 0 0 1 1.24939 0 Z" class="st2"/>
				</g>
			</g>
		</g>
	</g>
</svg>
