<?xml version="1.0" encoding="UTF-8" standalone="no"?>
<!DOCTYPE svg PUBLIC "-//W3C//DTD SVG 1.1//EN" "http://www.w3.org/Graphics/SVG/1.1/DTD/svg11.dtd">
<!-- Generated by Microsoft Visio, SVG Export Public IP Prefix.svg Page-1 -->
<svg xmlns="http://www.w3.org/2000/svg" xmlns:xlink="http://www.w3.org/1999/xlink" xmlns:ev="http://www.w3.org/2001/xml-events"
		width="1.73185in" height="1.57458in" viewBox="0 0 124.693 113.37" xml:space="preserve" color-interpolation-filters="sRGB"
		class="st5">
	<style type="text/css">
	<![CDATA[
		.st1 {fill:url(#grad0-6);stroke:none;stroke-linecap:butt;stroke-width:34}
		.st2 {fill:#767676;stroke:none;stroke-linecap:butt;stroke-width:34}
		.st3 {fill:#f2f2f2;stroke:none;stroke-linecap:butt;stroke-width:34}
		.st4 {fill:url(#grad0-14);stroke:none;stroke-linecap:butt;stroke-width:34}
		.st5 {fill:none;fill-rule:evenodd;font-size:12px;overflow:visible;stroke-linecap:square;stroke-miterlimit:3}
	]]>
	</style>

	<defs id="Patterns_And_Gradients">
		<linearGradient id="grad0-6" x1="0" y1="0" x2="1" y2="0" gradientTransform="rotate(-90 0.5 0.5)">
			<stop offset="0" stop-color="#32bedd" stop-opacity="1"/>
			<stop offset="0.18" stop-color="#32caea" stop-opacity="1"/>
			<stop offset="0.41" stop-color="#32d2f2" stop-opacity="1"/>
			<stop offset="0.78" stop-color="#32d4f5" stop-opacity="1"/>
		</linearGradient>
		<linearGradient id="grad0-14" x1="0" y1="0" x2="1" y2="0" gradientTransform="rotate(90 0.5 0.5)">
			<stop offset="0" stop-color="#32bedd" stop-opacity="1"/>
			<stop offset="0.18" stop-color="#32caea" stop-opacity="1"/>
			<stop offset="0.41" stop-color="#32d2f2" stop-opacity="1"/>
			<stop offset="0.78" stop-color="#32d4f5" stop-opacity="1"/>
		</linearGradient>
	</defs>
	<g>
		<title>Page-1</title>
		<g id="group10031-1" transform="translate(34,-34.0157)">
			<title>Public IP Prefix.10031</title>
			<g id="group10032-2">
				<title>Lighthouse-GS-networking-372</title>
				<g id="shape10033-3" transform="translate(-2.81775E-13,-18.984)">
					<title>Sheet.10033</title>
					<path d="M0 94 L31.84 94 L31.84 112.27 A1.07087 1.10146 0 0 1 30.77 113.37 L1.07 113.37 A1.07087 1.10146 0 0
								 1 0 112.27 L0 94 Z" class="st1"/>
				</g>
				<g id="shape10034-7" transform="translate(-2.81775E-13,-38.3568)">
					<title>Sheet.10034</title>
					<path d="M1.07 106.37 L30.77 106.37 A1.07087 1.10146 0 0 1 31.84 107.47 L31.84 113.37 L0 113.37 L0 107.47 A1.07087
								 1.10146 0 0 1 1.07 106.37 Z" class="st2"/>
				</g>
				<g id="shape10035-9" transform="translate(4.28346,-40.4301)">
					<title>Sheet.10035</title>
					<path d="M0 112.82 a0.535445 0.550744 -180 0 0 0.535433 0.550731 L22.74 113.37 a0.535445 0.550744 -180 0 0 0.535433
								 -0.550731 L23.28 111.1 a0.535445 0.550744 -180 0 0 -0.535433 -0.550731 L0.54 110.55 a0.535445 0.550744
								 -180 0 0 -0.535433 0.550731 L0 112.82 Z" class="st3"/>
				</g>
				<g id="shape10036-11" transform="translate(12.4094,-9.52441)">
					<title>Sheet.10036</title>
					<path d="M0 94 L31.87 94 L31.87 112.27 A1.07087 1.10146 0 0 1 30.8 113.37 L1.07 113.37 A1.07087 1.10146 0 0 1
								 0 112.27 L0 94 Z" class="st4"/>
				</g>
				<g id="shape10037-15" transform="translate(12.4409,-28.8972)">
					<title>Sheet.10037</title>
					<path d="M1.04 106.4 L30.74 106.4 A1.07087 1.10146 0 0 1 31.81 107.51 L31.81 113.37 L0 113.37 L0 107.51 A1.07087
								 1.10146 0 0 1 1.04 106.4 Z" class="st2"/>
				</g>
				<g id="shape10038-17" transform="translate(16.6929,-30.9381)">
					<title>Sheet.10038</title>
					<path d="M0 112.82 a0.535445 0.550744 -180 0 0 0.535433 0.550731 L22.74 113.37 a0.535445 0.550744 -180 0 0 0.535433
								 -0.550731 L23.28 111.1 a0.535445 0.550744 -180 0 0 -0.535433 -0.550731 L0.54 110.55 a0.535445 0.550744
								 -180 0 0 -0.535433 0.550731 L0 112.82 Z" class="st3"/>
				</g>
				<g id="shape10039-19" transform="translate(24.8504,0)">
					<title>Sheet.10039</title>
					<path d="M0 94 L31.84 94 L31.84 112.27 A1.07087 1.10146 0 0 1 30.77 113.37 L1.07 113.37 A1.07087 1.10146 0 0
								 1 0 112.27 L0 94 Z" class="st4"/>
				</g>
				<g id="shape10040-22" transform="translate(24.8504,-19.3728)">
					<title>Sheet.10040</title>
					<path d="M1.07 106.37 L30.77 106.37 A1.07087 1.10146 0 0 1 31.84 107.47 L31.84 113.37 L0 113.37 L0 107.47 A1.07087
								 1.10146 0 0 1 1.07 106.37 Z" class="st2"/>
				</g>
				<g id="group10041-24" transform="translate(31.0236,-8.22857)">
					<title>Sheet.10041</title>
					<g id="shape10042-25" transform="translate(14.3307,0)">
						<title>Sheet.10042</title>
						<ellipse cx="2.58268" cy="110.714" rx="2.58268" ry="2.65647" class="st3"/>
					</g>
					<g id="shape10043-27" transform="translate(7.27559,0)">
						<title>Sheet.10043</title>
						<ellipse cx="2.58268" cy="110.714" rx="2.58268" ry="2.65647" class="st3"/>
					</g>
					<g id="shape10044-29">
						<title>Sheet.10044</title>
						<ellipse cx="2.58268" cy="110.714" rx="2.58268" ry="2.65647" class="st3"/>
					</g>
				</g>
				<g id="shape10045-31" transform="translate(29.1339,-21.4461)">
					<title>Sheet.10045</title>
					<path d="M0 112.82 a0.535445 0.550744 -180 0 0 0.535433 0.550731 L22.74 113.37 a0.535445 0.550744 -180 0 0 0.535433
								 -0.550731 L23.28 111.1 a0.535445 0.550744 -180 0 0 -0.535433 -0.550731 L0.54 110.55 a0.535445 0.550744
								 -180 0 0 -0.535433 0.550731 L0 112.82 Z" class="st3"/>
				</g>
			</g>
		</g>
	</g>
</svg>
