<?xml version="1.0" encoding="UTF-8" standalone="no"?>
<!DOCTYPE svg PUBLIC "-//W3C//DTD SVG 1.1//EN" "http://www.w3.org/Graphics/SVG/1.1/DTD/svg11.dtd">
<!-- Generated by Microsoft Visio, SVG Export Relay.svg Page-1 -->
<svg xmlns="http://www.w3.org/2000/svg" xmlns:xlink="http://www.w3.org/1999/xlink" xmlns:ev="http://www.w3.org/2001/xml-events"
		width="1.73192in" height="1.65332in" viewBox="0 0 124.698 119.039" xml:space="preserve" color-interpolation-filters="sRGB"
		class="st6">
	<style type="text/css">
	<![CDATA[
		.st1 {fill:#949494;stroke:none;stroke-linecap:butt;stroke-width:34}
		.st2 {fill:#86d633;stroke:none;stroke-linecap:butt;stroke-width:34}
		.st3 {fill:url(#grad0-10);stroke:none;stroke-linecap:butt;stroke-width:34}
		.st4 {fill:#999999;stroke:none;stroke-linecap:butt;stroke-width:34}
		.st5 {fill:#999999;fill-opacity:0.5;stroke:none;stroke-linecap:butt;stroke-width:34}
		.st6 {fill:none;fill-rule:evenodd;font-size:12px;overflow:visible;stroke-linecap:square;stroke-miterlimit:3}
	]]>
	</style>

	<defs id="Patterns_And_Gradients">
		<linearGradient id="grad0-10" x1="0" y1="0" x2="1" y2="0" gradientTransform="rotate(-90 0.5 0.5)">
			<stop offset="0" stop-color="#6f4bb2" stop-opacity="1"/>
			<stop offset="1" stop-color="#c69aeb" stop-opacity="1"/>
		</linearGradient>
	</defs>
	<g>
		<title>Page-1</title>
		<g id="group8231-1" transform="translate(34.0052,-34.0157)">
			<title>Relay.8231</title>
			<g id="group8232-2">
				<title>Icon-integration-209</title>
				<g id="shape8233-3" transform="translate(17.6645,-17.6815)">
					<title>Sheet.8233</title>
					<path d="M21.66 117.76 L11.73 101.66 L10.83 102.23 L9.97 101.66 L0 117.76 L2.03 119.01 L10.83 104.76 L19.66 119.04
								 L21.66 117.76 Z" class="st1"/>
				</g>
				<g id="shape8234-5" transform="translate(23.1971,-29.1997)">
					<title>Sheet.8234</title>
					<ellipse cx="5.13269" cy="113.853" rx="5.13269" ry="5.18656" class="st2"/>
				</g>
				<g id="shape8235-7" transform="translate(13.2983,-13.2022)">
					<title>Sheet.8235</title>
					<ellipse cx="5.13269" cy="113.853" rx="5.13269" ry="5.18656" class="st3"/>
				</g>
				<g id="shape8236-11" transform="translate(33.1292,-13.2022)">
					<title>Sheet.8236</title>
					<ellipse cx="5.13269" cy="113.853" rx="5.13269" ry="5.18656" class="st3"/>
				</g>
				<g id="group8237-14" transform="translate(-1.13909E-13,-37.9225)">
					<title>Sheet.8237</title>
					<g id="shape8238-15">
						<title>Sheet.8238</title>
						<path d="M1.9 105.94 L6.2 105.94 L6.2 118.06 a0.966546 0.97669 0 0 1 -0.966546 0.97669 L0.97 119.04 a0.966546
									 0.97669 0 0 1 -0.966546 -0.97669 L0 107.96 A1.89976 1.9197 0 0 1 1.9 105.94 Z" class="st4"/>
					</g>
					<g id="shape8239-17">
						<title>Sheet.8239</title>
						<path d="M1.9 105.94 L6.2 105.94 L6.2 118.06 a0.966546 0.97669 0 0 1 -0.966546 0.97669 L0.97 119.04 a0.966546
									 0.97669 0 0 1 -0.966546 -0.97669 L0 107.96 A1.89976 1.9197 0 0 1 1.9 105.94 Z" class="st5"/>
					</g>
				</g>
				<g id="group8240-19" transform="translate(50.427,-38.0235)">
					<title>Sheet.8240</title>
					<g id="shape8241-20">
						<title>Sheet.8241</title>
						<path d="M0.03 106.04 L4.3 106.04 A1.89976 1.9197 0 0 1 6.2 107.96 L6.2 118.06 a0.966546 0.97669 0 0 1 -0.966546
									 0.97669 L0.97 119.04 a0.966546 0.97669 0 0 1 -0.966546 -0.97669 L0 106.04 L0.03 106.04 Z"
								class="st4"/>
					</g>
					<g id="shape8242-22">
						<title>Sheet.8242</title>
						<path d="M0.03 106.04 L4.3 106.04 A1.89976 1.9197 0 0 1 6.2 107.96 L6.2 118.06 a0.966546 0.97669 0 0 1 -0.966546
									 0.97669 L0.97 119.04 a0.966546 0.97669 0 0 1 -0.966546 -0.97669 L0 106.04 L0.03 106.04 Z"
								class="st5"/>
					</g>
				</g>
				<g id="shape8243-24" transform="translate(0,-44.8604)">
					<title>Sheet.8243</title>
					<path d="M56.66 114.8 L56.66 119.04 L0 119.04 L0 114.8 A1.89976 1.9197 0 0 1 1.9 112.88 L54.76 112.88 A1.89976
								 1.9197 0 0 1 56.66 114.8 Z" class="st1"/>
				</g>
				<g id="group8244-26" transform="translate(1.1291E-13,-0.033679)">
					<title>Sheet.8244</title>
					<g id="shape8245-27">
						<title>Sheet.8245</title>
						<path d="M0.97 105.94 L5.27 105.94 a0.966546 0.97669 0 0 1 0.966546 0.97669 L6.23 119.04 L1.9 119.04 A1.89976
									 1.9197 0 0 1 0 117.12 L0 107.02 a0.966546 0.97669 0 0 1 0.966546 -1.07773 Z" class="st4"/>
					</g>
					<g id="shape8246-29">
						<title>Sheet.8246</title>
						<path d="M0.97 105.94 L5.27 105.94 a0.966546 0.97669 0 0 1 0.966546 0.97669 L6.23 119.04 L1.9 119.04 A1.89976
									 1.9197 0 0 1 0 117.12 L0 107.02 a0.966546 0.97669 0 0 1 0.966546 -1.07773 Z" class="st5"/>
					</g>
				</g>
				<g id="group8247-31" transform="translate(50.4604,-0.134716)">
					<title>Sheet.8247</title>
					<g id="shape8248-32">
						<title>Sheet.8248</title>
						<path d="M0.93 106.04 L5.27 106.04 a0.966546 0.97669 0 0 1 0.966546 0.97669 L6.23 117.12 A1.89976 1.9197
									 0 0 1 4.33 119.04 L0 119.04 L0 106.91 a0.966546 0.97669 0 0 1 0.933217 -0.875653 Z"
								class="st4"/>
					</g>
					<g id="shape8249-34">
						<title>Sheet.8249</title>
						<path d="M0.93 106.04 L5.27 106.04 a0.966546 0.97669 0 0 1 0.966546 0.97669 L6.23 117.12 A1.89976 1.9197
									 0 0 1 4.33 119.04 L0 119.04 L0 106.91 a0.966546 0.97669 0 0 1 0.933217 -0.875653 Z"
								class="st5"/>
					</g>
				</g>
				<g id="shape8250-36">
					<title>Sheet.8250</title>
					<path d="M0 117.12 L0 112.88 L56.66 112.88 L56.66 117.12 A1.89976 1.9197 0 0 1 54.76 119.04 L1.9 119.04 A1.89976
								 1.9197 0 0 1 -0 117.12 Z" class="st1"/>
				</g>
			</g>
		</g>
	</g>
</svg>
