<?xml version="1.0" encoding="UTF-8" standalone="no"?>
<!DOCTYPE svg PUBLIC "-//W3C//DTD SVG 1.1//EN" "http://www.w3.org/Graphics/SVG/1.1/DTD/svg11.dtd">
<!-- Generated by Microsoft Visio, SVG Export Virtual Network Gateway.svg Page-1 -->
<svg xmlns="http://www.w3.org/2000/svg" xmlns:xlink="http://www.w3.org/1999/xlink" xmlns:ev="http://www.w3.org/2001/xml-events"
		width="1.535in" height="1.73208in" viewBox="0 0 110.52 124.71" xml:space="preserve" color-interpolation-filters="sRGB"
		class="st5">
	<style type="text/css">
	<![CDATA[
		.st1 {fill:url(#grad0-6);stroke:none;stroke-linecap:butt;stroke-width:34}
		.st2 {fill:#50e6ff;stroke:none;stroke-linecap:butt;stroke-width:34}
		.st3 {fill:#ffffff;fill-opacity:0.2;stroke:none;stroke-linecap:butt;stroke-width:34}
		.st4 {fill:#ffffff;stroke:none;stroke-linecap:butt;stroke-width:34}
		.st5 {fill:none;fill-rule:evenodd;font-size:12px;overflow:visible;stroke-linecap:square;stroke-miterlimit:3}
	]]>
	</style>

	<defs id="Patterns_And_Gradients">
		<linearGradient id="grad0-6" x1="0" y1="0" x2="1" y2="0" gradientTransform="rotate(88.546233687646 0.5 0.5)">
			<stop offset="0.22" stop-color="#32d4f5" stop-opacity="1"/>
			<stop offset="0.47" stop-color="#31d1f3" stop-opacity="1"/>
			<stop offset="0.63" stop-color="#2ec9eb" stop-opacity="1"/>
			<stop offset="0.77" stop-color="#29bade" stop-opacity="1"/>
			<stop offset="0.89" stop-color="#22a5cb" stop-opacity="1"/>
			<stop offset="1" stop-color="#198ab3" stop-opacity="1"/>
			<stop offset="1" stop-color="#198ab3" stop-opacity="1"/>
		</linearGradient>
	</defs>
	<g>
		<title>Page-1</title>
		<g id="group8832-1" transform="translate(34,-34.0157)">
			<title>Virtual Network Gateway.8832</title>
			<g id="group8833-2">
				<title>Icon-networking-63</title>
				<g id="shape8834-3">
					<title>Sheet.8834</title>
					<path d="M40.26 95.25 L37.13 95.25 L37.13 85.57 A18.2182 18.2485 -180 0 0 32.45 73.26 A15.0199 15.0448 -180 0
								 0 20.98 68.02 A15.0199 15.0448 -180 0 0 9.38 73.26 A17.9674 17.9973 -180 0 0 4.7 85.57 L4.7 95.25
								 L2.16 95.25 A2.19497 2.19862 -180 0 0 0 97.42 L0 122.54 A2.19497 2.19862 -180 0 0 2.16 124.71 L40.26
								 124.71 A2.22633 2.23003 -180 0 0 42.46 122.54 L42.46 97.42 A2.22633 2.23003 -180 0 0 40.26 95.25
								 ZM29.69 95.25 L12.26 95.25 L12.26 85.42 A9.97143 9.988 0 0 1 14.99 78.66 A7.87053 7.88361 0 0 1
								 20.88 75.96 A7.9646 7.97784 0 0 1 26.81 78.66 A10.0028 10.0194 0 0 1 27.81 80.02 A9.40701 9.42264
								 0 0 1 29.73 85.39 L29.69 95.25 Z" class="st1"/>
				</g>
				<g id="shape8835-7" transform="translate(0.815274,-0.659585)">
					<title>Sheet.8835</title>
					<path d="M39.54 95.91 L1.38 95.91 A2.06954 2.07298 -180 0 0 0 96.44 L40.92 124.71 A2.1009 2.10439 -180 0 0 41.7
								 123.08 L41.7 97.95 A2.22633 2.23003 -180 0 0 39.54 95.91 Z" class="st2"/>
				</g>
				<g id="shape8836-9" transform="translate(0.0627134,-0.659585)">
					<title>Sheet.8836</title>
					<path d="M2.19 95.91 L40.32 95.91 A2.19497 2.19862 0 0 1 41.74 96.44 L0.78 124.71 A2.19497 2.19862 0 0 1 -0 123.08
								 L0 97.95 A2.25768 2.26143 0 0 1 2.19 95.91 Z" class="st3"/>
				</g>
				<g id="shape8837-11" transform="translate(5.39335,-2.38608)">
					<title>Sheet.8837</title>
					<path d="M12.1 103.7 L15.87 99.93 a0.219497 0.219862 0 0 1 0.28221 -1.27898E-13 L19.88 103.7 a0.18814 0.188453
								 0 0 1 6.75016E-14 0.314088 L17.69 104.01 a0.18814 0.188453 -180 0 0 -0.18814 0.188453 L17.5 109.04
								 a0.18814 0.188453 0 0 1 -0.18814 0.188453 L14.83 109.22 a0.156783 0.157044 0 0 1 -0.18814 -0.188453
								 L14.64 104.2 a0.219497 0.219862 -180 0 0 -0.219497 -0.188453 L12.23 104.01 a0.18814 0.188453 0 0
								 1 -0.125427 -0.314088 ZM19.85 120.91 L16.12 124.65 a0.18814 0.188453 0 0 1 -0.28221 1.42109E-14
								 L12.1 120.91 a0.18814 0.188453 0 0 1 -3.37508E-14 -0.314088 L14.3 120.59 a0.219497 0.219862 -180
								 0 0 0.219497 -0.188453 L14.52 115.54 a0.18814 0.188453 0 0 1 0.18814 -0.188453 L17.03 115.35 a0.18814
								 0.188453 0 0 1 0.18814 0.188453 L17.21 120.41 a0.18814 0.188453 -180 0 0 0.18814 0.188453 L19.6
								 120.59 a0.200781 0.201115 0 0 1 0.250854 0.314088 ZM5.11 116.04 L5.11 113.84 a0.18814 0.188453 -180
								 0 0 -0.18814 -0.188453 L0.19 113.65 a0.18814 0.188453 0 0 1 -0.18814 -0.188453 L0 111.23 a0.18814
								 0.188453 0 0 1 0.18814 -0.282679 L4.92 110.95 a0.18814 0.188453 -180 0 0 0.18814 -0.188453 L5.11
								 108.56 a0.219497 0.219862 0 0 1 0.344924 -0.157044 L9.19 112.18 a0.18814 0.188453 0 0 1 -2.66454E-14
								 0.251271 L5.46 116.2 a0.219497 0.219862 0 0 1 -0.344924 -0.157044 ZM26.84 108.56 L26.84 110.76 a0.18814
								 0.188453 -180 0 0 0.18814 0.188453 L31.86 110.95 C31.86 110.95 32.08 110.95 32.08 111.14 L32.08
								 113.46 a0.219497 0.219862 0 0 1 -0.219497 0.188453 L27.03 113.65 a0.18814 0.188453 -180 0 0 -0.18814
								 0.188453 L26.84 116.04 a0.18814 0.188453 0 0 1 -0.313567 0.157044 L22.8 112.43 L22.8 112.18 L26.53
								 108.41 C26.53 108.41 26.84 108.38 26.84 108.56 Z" class="st4"/>
				</g>
			</g>
		</g>
	</g>
</svg>
