<?xml version="1.0" encoding="UTF-8" standalone="no"?>
<!-- Generated by Microsoft Visio, SVG Export Azure AD Connect Health.svg Page-1 -->
<svg xmlns:dc="http://purl.org/dc/elements/1.1/" xmlns:cc="http://creativecommons.org/ns#" xmlns:rdf="http://www.w3.org/1999/02/22-rdf-syntax-ns#" xmlns:svg="http://www.w3.org/2000/svg" xmlns="http://www.w3.org/2000/svg" xmlns:sodipodi="http://sodipodi.sourceforge.net/DTD/sodipodi-0.dtd" xmlns:inkscape="http://www.inkscape.org/namespaces/inkscape" width="56.693361" height="53.856701" viewBox="0 0 56.693361 53.856701" xml:space="preserve" class="st10" version="1.1" id="svg80" sodipodi:docname="Azure AD Connect Health.svg" style="font-size:12px;overflow:visible;color-interpolation-filters:sRGB;fill:none;fill-rule:evenodd;stroke-linecap:square;stroke-miterlimit:3" inkscape:version="0.92.5 (2060ec1f9f, 2020-04-08)">
  <metadata id="metadata84">
    <rdf:RDF>
      <cc:Work rdf:about="">
        <dc:format>image/svg+xml</dc:format>
        <dc:type rdf:resource="http://purl.org/dc/dcmitype/StillImage" />
      </cc:Work>
    </rdf:RDF>
  </metadata>
  <sodipodi:namedview pagecolor="#ffffff" bordercolor="#666666" borderopacity="1" objecttolerance="10" gridtolerance="10" guidetolerance="10" inkscape:pageopacity="0" inkscape:pageshadow="2" inkscape:window-width="640" inkscape:window-height="480" id="namedview82" showgrid="false" inkscape:zoom="1.4523234" inkscape:cx="37.795237" inkscape:cy="35.889642" inkscape:window-x="0" inkscape:window-y="0" inkscape:window-maximized="0" inkscape:current-layer="svg80" />
	<style type="text/css" id="style2">
	<![CDATA[
		.st1 {fill:#50e6ff;stroke:none;stroke-linecap:butt;stroke-width:34}
		.st2 {fill:#ffffff;stroke:none;stroke-linecap:butt;stroke-width:34}
		.st3 {fill:url(#grad0-12);stroke:none;stroke-linecap:butt;stroke-width:34}
		.st4 {fill:#53b1e0;stroke:none;stroke-linecap:butt;stroke-width:34}
		.st5 {fill:#9cebff;stroke:none;stroke-linecap:butt;stroke-width:34}
		.st6 {fill:url(#grad0-20);stroke:none;stroke-linecap:butt;stroke-width:34}
		.st7 {fill:#f04049}
		.st8 {stroke:none;stroke-linecap:butt;stroke-width:34}
		.st9 {fill:#ffffff}
		.st10 {fill:none;fill-rule:evenodd;font-size:12px;overflow:visible;stroke-linecap:square;stroke-miterlimit:3}
	]]>
	</style>

	<defs id="Patterns_And_Gradients">
		<linearGradient id="grad0-12" x1="0" y1="57.982622" x2="31.862796" y2="57.982622" gradientTransform="scale(0.73722343,1.3564409)" gradientUnits="userSpaceOnUse">
			<stop offset="0" stop-color="#1988d9" stop-opacity="1" id="stop4" />
			<stop offset="0.9" stop-color="#54aef0" stop-opacity="1" id="stop6" />
		</linearGradient>
		<linearGradient id="grad0-20" x1="0" y1="111.69615" x2="25.359929" y2="111.69615" gradientTransform="scale(1.1246088,0.88919807)" gradientUnits="userSpaceOnUse">
			<stop offset="0.1" stop-color="#54aef0" stop-opacity="1" id="stop9" />
			<stop offset="0.29" stop-color="#4fabee" stop-opacity="1" id="stop11" />
			<stop offset="0.51" stop-color="#41a2e9" stop-opacity="1" id="stop13" />
			<stop offset="0.74" stop-color="#2a93e0" stop-opacity="1" id="stop15" />
			<stop offset="0.88" stop-color="#1988d9" stop-opacity="1" id="stop17" />
		</linearGradient>
	</defs>
	<g id="g78" transform="translate(-34.000261,-33.9976)">
		<title id="title21">Page-1</title>
		<g id="group9018-1" transform="translate(34,-34.0157)">
			<title id="title23">Azure AD Connect Health</title>
			<g id="group9019-2">
				<title id="title25">Icon-identity-224</title>
				<g id="shape9020-3" transform="translate(0,-1.22113)">
					<title id="title27">Sheet.9020</title>
					<path d="M 3.21,99.38 28.08,115.9 53.42,99.32 56.6,103.11 28.08,121.87 0,103.11 Z" class="st1" id="path29" inkscape:connector-curvature="0" style="fill:#50e6ff;stroke:none;stroke-width:34;stroke-linecap:butt" />
				</g>
				<g id="shape9021-5" transform="translate(5.06243,-10.6367)">
					<title id="title32">Sheet.9021</title>
					<path d="M 0,106.67 23.02,78.65 46.51,106.71 23.02,121.87 Z" class="st2" id="path34" inkscape:connector-curvature="0" style="fill:#ffffff;stroke:none;stroke-width:34;stroke-linecap:butt" />
				</g>
				<g id="shape9022-7" transform="translate(5.06243,-10.6367)">
					<title id="title37">Sheet.9022</title>
					<path d="m 23.02,78.65 v 43.22 L 0,106.67 Z" class="st1" id="path39" inkscape:connector-curvature="0" style="fill:#50e6ff;stroke:none;stroke-width:34;stroke-linecap:butt" />
				</g>
				<g id="shape9023-9" transform="translate(28.0792,-10.6367)">
					<title id="title42">Sheet.9023</title>
					<path d="m 0,78.65 v 43.22 l 23.49,-15.16 z" class="st3" id="path44" inkscape:connector-curvature="0" style="fill:url(#grad0-12);stroke:none;stroke-width:34;stroke-linecap:butt" />
				</g>
				<g id="shape9024-13" transform="translate(28.0792,-10.6367)">
					<title id="title47">Sheet.9024</title>
					<path d="M 0,100.99 23.49,106.71 0,121.87 Z" class="st4" id="path49" inkscape:connector-curvature="0" style="fill:#53b1e0;stroke:none;stroke-width:34;stroke-linecap:butt" />
				</g>
				<g id="shape9025-15" transform="translate(5.06243,-10.6367)">
					<title id="title52">Sheet.9025</title>
					<path d="M 23.02,121.87 0,106.67 23.02,100.99 Z" class="st5" id="path54" inkscape:connector-curvature="0" style="fill:#9cebff;stroke:none;stroke-width:34;stroke-linecap:butt" />
				</g>
				<g id="shape9026-17" transform="translate(28.0792,-1.22113)">
					<title id="title57">Sheet.9026</title>
					<path d="M 0,121.87 28.52,103.11 25.34,99.32 0,115.9 Z" class="st6" id="path59" inkscape:connector-curvature="0" style="fill:url(#grad0-20);stroke:none;stroke-width:34;stroke-linecap:butt" />
				</g>
				<g id="shape9027-21" transform="translate(28.3936)">
					<title id="title62">Sheet.9027</title>
					<path d="m 14.21,121.87 c 13.77,-10.09 14.09,-15.84 14.09,-17.64 0,-2.57 -0.25,-9.25 -6.82,-9.64 A 7.13771,7.29465 -180 0 0 14.15,99.48 7.10627,7.26251 -180 0 0 6.92,94.46 C 0.35,94.94 0,101.66 0,104.23 c 0,1.8 0.41,7.55 14.06,17.55 z" class="st7" id="path64" inkscape:connector-curvature="0" style="fill:#f04049" />
					<path d="m 14.21,121.87 c 13.77,-10.09 14.09,-15.84 14.09,-17.64 0,-2.57 -0.25,-9.25 -6.82,-9.64 A 7.13771,7.29465 -180 0 0 14.15,99.48 7.10627,7.26251 -180 0 0 6.92,94.46 C 0.35,94.94 0,101.66 0,104.23 c 0,1.8 0.41,7.55 14.06,17.55" class="st8" id="path66" inkscape:connector-curvature="0" style="stroke:none;stroke-width:34;stroke-linecap:butt" />
				</g>
				<g id="shape9028-24" transform="translate(30.5632,-6.70233)">
					<title id="title69">Sheet.9028</title>
					<path d="m 26.13,109.91 h -6.29 a 0.534542,0.546295 -180 0 0 -0.440211,0.25708 L 17.42,113.6 a 0.251549,0.25708 0 0 1 -0.440211,0 L 13.99,108.07 a 0.503099,0.51416 -180 0 0 -0.94331,0 L 10.41,116.43 a 0.251549,0.25708 0 0 1 -0.471655,0 L 7.55,110.81 a 0.503099,0.51416 -180 0 0 -0.911866,0 L 3.49,116.65 a 0.503099,0.51416 0 0 1 -0.471655,0.28922 L 0,116.94 a 22.4193,22.9123 -180 0 0 1.51,2.09 h 2.61 a 0.534542,0.546295 -180 0 0 0.440211,-0.28921 L 6.79,114.5 l 3.15,7.04 a 0.503099,0.51416 -180 0 0 0.94331,0 l 3.13669,-9.42 2.68,5.34 a 0.503099,0.51416 -180 0 0 0.880422,0 L 20.72,112.25 a 0.534542,0.546295 0 0 1 0.440211,-0.25708 L 26.13,111.99 Z" class="st9" id="path71" inkscape:connector-curvature="0" style="fill:#ffffff" />
					<path d="m 26.13,109.91 h -6.29 a 0.534542,0.546295 -180 0 0 -0.440211,0.25708 L 17.42,113.6 a 0.251549,0.25708 0 0 1 -0.440211,0 L 13.99,108.07 a 0.503099,0.51416 -180 0 0 -0.94331,0 L 10.41,116.43 a 0.251549,0.25708 0 0 1 -0.471655,0 L 7.55,110.81 a 0.503099,0.51416 -180 0 0 -0.911866,0 L 3.49,116.65 a 0.503099,0.51416 0 0 1 -0.471655,0.28922 L 0,116.94 a 22.4193,22.9123 -180 0 0 1.51,2.09 h 2.61 a 0.534542,0.546295 -180 0 0 0.440211,-0.28921 L 6.79,114.5 l 3.15,7.04 a 0.503099,0.51416 -180 0 0 0.94331,0 l 3.13669,-9.42 2.68,5.34 a 0.503099,0.51416 -180 0 0 0.880422,0 L 20.72,112.25 a 0.534542,0.546295 0 0 1 0.440211,-0.25708 L 26.13,111.99" class="st8" id="path73" inkscape:connector-curvature="0" style="stroke:none;stroke-width:34;stroke-linecap:butt" />
				</g>
			</g>
		</g>
	</g>
</svg>