<?xml version="1.0" encoding="UTF-8" standalone="no"?>
<!-- Generated by Microsoft Visio, SVG Export Azure Front Door.svg Page-1 -->
<svg xmlns:dc="http://purl.org/dc/elements/1.1/" xmlns:cc="http://creativecommons.org/ns#" xmlns:rdf="http://www.w3.org/1999/02/22-rdf-syntax-ns#" xmlns:svg="http://www.w3.org/2000/svg" xmlns="http://www.w3.org/2000/svg" xmlns:sodipodi="http://sodipodi.sourceforge.net/DTD/sodipodi-0.dtd" xmlns:inkscape="http://www.inkscape.org/namespaces/inkscape" width="56.689889" height="51.035511" viewBox="0 0 56.689889 51.035511" xml:space="preserve" class="st4" version="1.1" id="svg35" sodipodi:docname="Azure Front Door.svg" style="font-size:12px;overflow:visible;color-interpolation-filters:sRGB;fill:none;fill-rule:evenodd;stroke-linecap:square;stroke-miterlimit:3" inkscape:version="0.92.5 (2060ec1f9f, 2020-04-08)">
  <metadata id="metadata39">
    <rdf:RDF>
      <cc:Work rdf:about="">
        <dc:format>image/svg+xml</dc:format>
        <dc:type rdf:resource="http://purl.org/dc/dcmitype/StillImage" />
      </cc:Work>
    </rdf:RDF>
  </metadata>
  <sodipodi:namedview pagecolor="#ffffff" bordercolor="#666666" borderopacity="1" objecttolerance="10" gridtolerance="10" guidetolerance="10" inkscape:pageopacity="0" inkscape:pageshadow="2" inkscape:window-width="640" inkscape:window-height="480" id="namedview37" showgrid="false" inkscape:zoom="1.4868082" inkscape:cx="37.795322" inkscape:cy="34.014388" inkscape:window-x="0" inkscape:window-y="0" inkscape:window-maximized="0" inkscape:current-layer="svg35" />
	<style type="text/css" id="style2">
	<![CDATA[
		.st1 {fill:url(#grad0-6);stroke:none;stroke-linecap:butt;stroke-width:34}
		.st2 {fill:#f2f2f2;stroke:none;stroke-linecap:butt;stroke-width:34}
		.st3 {fill:#50e6ff;stroke:none;stroke-linecap:butt;stroke-width:34}
		.st4 {fill:none;fill-rule:evenodd;font-size:12px;overflow:visible;stroke-linecap:square;stroke-miterlimit:3}
	]]>
	</style>

	<defs id="Patterns_And_Gradients">
		<linearGradient id="grad0-6" x1="0" y1="91.581421" x2="48.259723" y2="91.581421" gradientTransform="scale(1.1746856,0.85129164)" gradientUnits="userSpaceOnUse">
			<stop offset="0" stop-color="#0078d4" stop-opacity="1" id="stop4" />
			<stop offset="0.82" stop-color="#5ea0ef" stop-opacity="1" id="stop6" />
		</linearGradient>
	</defs>
	<g id="g33" transform="translate(-34.000121,-33.998788)">
		<title id="title10">Page-1</title>
		<g id="group8302-1" transform="translate(34,-34.0157)">
			<title id="title12">Azure Front Door</title>
			<g id="group8303-2">
				<title id="title14">Icon-networking-73</title>
				<g id="shape8304-3" transform="translate(0,-9.94801)">
					<title id="title16">Sheet.8304</title>
					<path d="M 56.69,106.15 A 12.5984,12.8685 -180 0 0 45.64,93.83 16.063,16.4073 -180 0 0 29.1,77.97 16.4724,16.8256 -180 0 0 13.35,88.94 15.2126,15.5387 -180 0 0 0,103.87 15.4331,15.7639 -180 0 0 15.97,119.02 h 27.24 a 2.45669,2.50936 -180 0 0 0.7,0 12.8819,13.158 -180 0 0 12.78,-12.87 z" class="st1" id="path18" inkscape:connector-curvature="0" style="fill:url(#grad0-6);stroke:none;stroke-width:34;stroke-linecap:butt" />
				</g>
				<g id="shape8305-7" transform="translate(20.8819,-10.0053)">
					<title id="title21">Sheet.8305</title>
					<rect x="0" y="96.526802" width="15.937" height="22.519899" class="st2" id="rect23" style="fill:#f2f2f2;stroke:none;stroke-width:34;stroke-linecap:butt" />
				</g>
				<g id="shape8306-9" transform="translate(27.748)">
					<title id="title26">Sheet.8306</title>
					<path d="M 11.97,85.07 0.98,78.64 A 0.787402,0.804282 -180 0 0 0.003622,79.122569 L 0,118.24 a 0.787402,0.804282 -180 0 0 0.755906,0.80428 L 1.01,119.05 12,112.42 a 0.787402,0.804282 -180 0 0 0.535433,-0.73994 L 12.54,85.94 a 0.818898,0.836453 -180 0 0 -0.566929,-0.868624 z" class="st3" id="path28" inkscape:connector-curvature="0" style="fill:#50e6ff;stroke:none;stroke-width:34;stroke-linecap:butt" />
				</g>
			</g>
		</g>
	</g>
</svg>