<?xml version="1.0" encoding="UTF-8" standalone="no"?>
<!-- Generated by Microsoft Visio, SVG Export Azure Stack Offer.svg Page-1 -->
<svg xmlns:dc="http://purl.org/dc/elements/1.1/" xmlns:cc="http://creativecommons.org/ns#" xmlns:rdf="http://www.w3.org/1999/02/22-rdf-syntax-ns#" xmlns:svg="http://www.w3.org/2000/svg" xmlns="http://www.w3.org/2000/svg" xmlns:sodipodi="http://sodipodi.sourceforge.net/DTD/sodipodi-0.dtd" xmlns:inkscape="http://www.inkscape.org/namespaces/inkscape" width="56.70767" height="56.693047" viewBox="0 0 56.70767 56.693047" xml:space="preserve" class="st4" version="1.1" id="svg41" sodipodi:docname="Azure Stack Offer.svg" style="font-size:12px;overflow:visible;color-interpolation-filters:sRGB;fill:none;fill-rule:evenodd;stroke-linecap:square;stroke-miterlimit:3" inkscape:version="0.92.5 (2060ec1f9f, 2020-04-08)">
  <metadata id="metadata45">
    <rdf:RDF>
      <cc:Work rdf:about="">
        <dc:format>image/svg+xml</dc:format>
        <dc:type rdf:resource="http://purl.org/dc/dcmitype/StillImage" />
      </cc:Work>
    </rdf:RDF>
  </metadata>
  <sodipodi:namedview pagecolor="#ffffff" bordercolor="#666666" borderopacity="1" objecttolerance="10" gridtolerance="10" guidetolerance="10" inkscape:pageopacity="0" inkscape:pageshadow="2" inkscape:window-width="640" inkscape:window-height="480" id="namedview43" showgrid="false" inkscape:zoom="1.4175768" inkscape:cx="37.812155" inkscape:cy="37.797914" inkscape:window-x="0" inkscape:window-y="0" inkscape:window-maximized="0" inkscape:current-layer="svg41" />
	<style type="text/css" id="style2">
	<![CDATA[
		.st1 {fill:url(#grad0-6);stroke:none;stroke-linecap:butt;stroke-width:34.0841}
		.st2 {fill:#005ba1;stroke:none;stroke-linecap:butt;stroke-width:34.0841}
		.st3 {fill:#ffffff;stroke:none;stroke-linecap:butt;stroke-width:34.0841}
		.st4 {fill:none;fill-rule:evenodd;font-size:12px;overflow:visible;stroke-linecap:square;stroke-miterlimit:3}
	]]>
	</style>

	<defs id="Patterns_And_Gradients">
		<linearGradient id="grad0-6" x1="-0.0082235079" y1="68.178893" x2="56.692217" y2="68.178893" gradientTransform="scale(1.0001304,0.99986957)" gradientUnits="userSpaceOnUse">
			<stop offset="0" stop-color="#0078d4" stop-opacity="1" id="stop4" />
			<stop offset="0.16" stop-color="#1380da" stop-opacity="1" id="stop6" />
			<stop offset="0.53" stop-color="#3c91e5" stop-opacity="1" id="stop8" />
			<stop offset="0.82" stop-color="#559cec" stop-opacity="1" id="stop10" />
			<stop offset="1" stop-color="#5ea0ef" stop-opacity="1" id="stop12" />
		</linearGradient>
	</defs>
	<g id="g39" transform="translate(-34.076056,-34.0859)">
		<title id="title16">Page-1</title>
		<g id="group7788-1" transform="translate(34.0841,-34.0841)">
			<title id="title18">Azure Stack Offer</title>
			<g id="group7789-2">
				<title id="title20">g23</title>
				<g id="shape7790-3">
					<title id="title22">path17</title>
					<path d="m 56.09,76.48 -7.76,-7.74 a 2.03278,2.06909 -180 0 0 -1.4,-0.57 l -14.06,0.54 a 1.76619,1.79774 -180 0 0 -1.2,0.68 l -31.1,31.27 a 1.83283,1.86558 -180 0 0 0,2.72 l 20.67,20.93 a 1.89948,1.93342 -180 0 0 2.66,0 L 54.99,92.86 a 1.76619,1.79774 -180 0 0 0.57,-1.19 l 1.13,-13.56 a 1.93281,1.96734 -180 0 0 -0.6,-1.63 z m -9.23,5.12 a 3.33243,3.39196 0 1 1 3.33,-3.39 3.33243,3.39196 0 0 1 -3.33,3.39 z" class="st1" id="path24" inkscape:connector-curvature="0" style="fill:url(#grad0-6);stroke:none;stroke-width:34.08409882;stroke-linecap:butt" />
				</g>
				<g id="shape7791-7" transform="translate(42.548,-42.3054)">
					<title id="title27">path19</title>
					<path d="m 4.31,114.14 a 6.16499,6.27512 -180 1 0 6.2,6.27 6.16499,6.27512 -180 0 0 -6.2,-6.27 z m 3.34,6.95 a 3.4012551,3.4620158 0 1 1 -6.67,-1.36 3.33243,3.39196 0 0 1 2.7,-2.74 3.33243,3.39196 0 0 1 4.03,4.1 z" class="st2" id="path29" inkscape:connector-curvature="0" style="fill:#005ba1;stroke:none;stroke-width:34.08409882;stroke-linecap:butt" />
				</g>
				<g id="shape7792-9" transform="translate(8.10615,-7.9844)">
					<title id="title32">path21</title>
					<path d="m 22.69,91.65 -1.26,-1.29 -1.2,1.29 -1.64,-1.66 2.8,-2.95 2.9,2.95 z m -15.36,13.03 -1.63,-1.66 3.6,-3.67 0.93,0.85 -0.83,-0.85 1.53,1.77 z m 8.4,-11.81 1.63,1.7 -3.53,3.6 L 12.2,96.5 Z M 2.9,111.8 0,108.85 2.9,106 l 1.63,1.66 -1.26,1.19 1.26,1.29 z m 4.66,1.43 3.87,3.97 -1.67,1.66 -3.86,-3.94 z m 8.14,11.63 -2.9,-2.95 1.76,-1.66 1.14,1.19 1.2,-1.09 1.63,1.66 z m 7.86,-11.09 1.67,1.66 -3.7,3.6 -1.64,-1.67 z m 4.5,-1.26 -1.73,-1.66 3.6,-3.66 1.63,1.66 -3.33,3.66 -0.8,-0.81 z m 6.43,-6.51 -1.77,-1.49 z m 0,0 -1.77,-1.49 1.17,-1.32 -1.17,-1.16 1.64,-1.79 2.9,2.95 z m -7.06,-12.85 3.86,3.93 -1.66,1.7 -3.87,-3.94 z" class="st3" id="path34" inkscape:connector-curvature="0" style="fill:#ffffff;stroke:none;stroke-width:34.08409882;stroke-linecap:butt" />
				</g>
			</g>
		</g>
	</g>
</svg>