<?xml version="1.0" encoding="UTF-8" standalone="no"?>
<!-- Generated by Microsoft Visio, SVG Export Cognitive Services Customised Experience.svg Page-1 -->
<svg xmlns:dc="http://purl.org/dc/elements/1.1/" xmlns:cc="http://creativecommons.org/ns#" xmlns:rdf="http://www.w3.org/1999/02/22-rdf-syntax-ns#" xmlns:svg="http://www.w3.org/2000/svg" xmlns="http://www.w3.org/2000/svg" xmlns:sodipodi="http://sodipodi.sourceforge.net/DTD/sodipodi-0.dtd" xmlns:inkscape="http://www.inkscape.org/namespaces/inkscape" width="56.695198" height="56.693113" viewBox="0 0 56.695198 56.693113" xml:space="preserve" class="st3" version="1.1" id="svg126" sodipodi:docname="Cognitive Services Customised Experience.svg" style="font-size:12px;overflow:visible;color-interpolation-filters:sRGB;fill:none;fill-rule:evenodd;stroke-linecap:square;stroke-miterlimit:3" inkscape:version="0.92.5 (2060ec1f9f, 2020-04-08)">
  <metadata id="metadata132">
    <rdf:RDF>
      <cc:Work rdf:about="">
        <dc:format>image/svg+xml</dc:format>
        <dc:type rdf:resource="http://purl.org/dc/dcmitype/StillImage" />
      </cc:Work>
    </rdf:RDF>
  </metadata>
  <defs id="defs130" />
  <sodipodi:namedview pagecolor="#ffffff" bordercolor="#666666" borderopacity="1" objecttolerance="10" gridtolerance="10" guidetolerance="10" inkscape:pageopacity="0" inkscape:pageshadow="2" inkscape:window-width="640" inkscape:window-height="480" id="namedview128" showgrid="false" inkscape:zoom="1.7151442" inkscape:cx="37.795259" inkscape:cy="23.447062" inkscape:window-x="0" inkscape:window-y="0" inkscape:window-maximized="0" inkscape:current-layer="svg126" />
	<style type="text/css" id="style2">
	<![CDATA[
		.st1 {fill:#0078d4;stroke:none;stroke-linecap:butt;stroke-width:12.4898}
		.st2 {fill:#50e6ff;stroke:none;stroke-linecap:butt;stroke-width:12.4898}
		.st3 {fill:none;fill-rule:evenodd;font-size:12px;overflow:visible;stroke-linecap:square;stroke-miterlimit:3}
	]]>
	</style>

	<g id="g124" transform="translate(-12.4898,-12.491172)">
		<title id="title4">Page-1</title>
		<g id="group6778-1" transform="translate(12.4898,-34.0157)">
			<title id="title6">Cognitive Services Customised Experience</title>
			<g id="shape6779-2" transform="translate(42.2713,-42.2687)">
				<title id="title8">Sheet.6779</title>
				<path d="M 0,88.78 H 14.42 V 103.2 H 8.45 V 94.75 H 0 Z" class="st1" id="path10" inkscape:connector-curvature="0" style="fill:#0078d4;stroke:none;stroke-width:12.48980045;stroke-linecap:butt" />
			</g>
			<g id="shape6780-4" transform="translate(16.9031,-42.2733)">
				<title id="title13">Sheet.6780</title>
				<path d="M 5.97,103.2 H 0 V 88.78 h 14.42 v 5.97 H 5.97 Z" class="st1" id="path15" inkscape:connector-curvature="0" style="fill:#0078d4;stroke:none;stroke-width:12.48980045;stroke-linecap:butt" />
			</g>
			<g id="shape6781-6" transform="translate(42.2713,-16.9495)">
				<title id="title18">Sheet.6781</title>
				<path d="m 8.45,88.78 h 5.97 V 103.2 H 0 v -5.97 h 8.45 z" class="st1" id="path20" inkscape:connector-curvature="0" style="fill:#0078d4;stroke:none;stroke-width:12.48980045;stroke-linecap:butt" />
			</g>
			<g id="shape6782-8" transform="translate(16.9031,-16.9403)">
				<title id="title23">Sheet.6782</title>
				<path d="M 0,103.2 V 88.78 h 5.97 v 8.45 h 8.45 v 5.97 z" class="st1" id="path25" inkscape:connector-curvature="0" style="fill:#0078d4;stroke:none;stroke-width:12.48980045;stroke-linecap:butt" />
			</g>
			<g id="shape6783-10" transform="translate(25.3632,-33.8128)">
				<title id="title28">Sheet.6783</title>
				<path d="M 2.98,103.2 C 1.33,103.2 0,101.87 0,100.22 c 0,-1.66 1.33,-2.99 2.98,-2.99 1.65,0 2.99,1.33 2.99,2.99 0,1.64 -1.35,2.98 -2.99,2.98 z" class="st2" id="path30" inkscape:connector-curvature="0" style="fill:#50e6ff;stroke:none;stroke-width:12.48980045;stroke-linecap:butt" />
			</g>
			<g id="shape6784-12" transform="translate(33.817,-42.2649)">
				<title id="title33">Sheet.6784</title>
				<path d="M 2.98,103.2 C 1.33,103.2 0,101.87 0,100.22 c 0,-1.66 1.33,-2.99 2.98,-2.99 1.65,0 2.99,1.33 2.99,2.99 0,1.64 -1.35,2.98 -2.99,2.98 z" class="st2" id="path35" inkscape:connector-curvature="0" style="fill:#50e6ff;stroke:none;stroke-width:12.48980045;stroke-linecap:butt" />
			</g>
			<g id="shape6785-14" transform="translate(42.2713,-33.8128)">
				<title id="title38">Sheet.6785</title>
				<path d="M 2.98,103.2 C 1.33,103.2 0,101.87 0,100.22 c 0,-1.66 1.33,-2.99 2.98,-2.99 1.65,0 2.99,1.33 2.99,2.99 0,1.64 -1.35,2.98 -2.99,2.98 z" class="st2" id="path40" inkscape:connector-curvature="0" style="fill:#50e6ff;stroke:none;stroke-width:12.48980045;stroke-linecap:butt" />
			</g>
			<g id="shape6786-16" transform="translate(33.817,-25.3608)">
				<title id="title43">Sheet.6786</title>
				<path d="M 2.98,103.2 C 1.33,103.2 0,101.87 0,100.22 c 0,-1.66 1.33,-2.99 2.98,-2.99 1.65,0 2.99,1.33 2.99,2.99 0,1.64 -1.35,2.98 -2.99,2.98 z" class="st2" id="path45" inkscape:connector-curvature="0" style="fill:#50e6ff;stroke:none;stroke-width:12.48980045;stroke-linecap:butt" />
			</g>
			<g id="shape6787-18" transform="translate(33.817,-33.8128)">
				<title id="title48">Sheet.6787</title>
				<path d="M 2.98,103.2 C 1.33,103.2 0,101.87 0,100.22 c 0,-1.66 1.33,-2.99 2.98,-2.99 1.65,0 2.99,1.33 2.99,2.99 0,1.64 -1.35,2.98 -2.99,2.98 z" class="st2" id="path50" inkscape:connector-curvature="0" style="fill:#50e6ff;stroke:none;stroke-width:12.48980045;stroke-linecap:butt" />
			</g>
			<g id="shape6788-20" transform="translate(0,-50.7216)">
				<title id="title53">Sheet.6788</title>
				<path d="M 2.98,103.2 C 1.33,103.2 0,101.87 0,100.22 c 0,-1.66 1.33,-2.99 2.98,-2.99 1.65,0 2.99,1.33 2.99,2.99 0,1.64 -1.35,2.98 -2.99,2.98 z" class="st2" id="path55" inkscape:connector-curvature="0" style="fill:#50e6ff;stroke:none;stroke-width:12.48980045;stroke-linecap:butt" />
			</g>
			<g id="shape6789-22" transform="translate(8.45438,-50.7216)">
				<title id="title58">Sheet.6789</title>
				<path d="M 5.97,97.23 H 0 v 5.97 h 5.97 z" class="st2" id="path60" inkscape:connector-curvature="0" style="fill:#50e6ff;stroke:none;stroke-width:12.48980045;stroke-linecap:butt" />
			</g>
			<g id="shape6790-24" transform="translate(5.77625e-4,-42.2649)">
				<title id="title63">Sheet.6790</title>
				<path d="M 5.97,97.23 H 0 v 5.97 h 5.97 z" class="st2" id="path65" inkscape:connector-curvature="0" style="fill:#50e6ff;stroke:none;stroke-width:12.48980045;stroke-linecap:butt" />
			</g>
			<g id="shape6791-26" transform="translate(8.45438,-42.2649)">
				<title id="title68">Sheet.6791</title>
				<path d="M 5.97,97.23 H 0 v 5.97 h 5.97 z" class="st2" id="path70" inkscape:connector-curvature="0" style="fill:#50e6ff;stroke:none;stroke-width:12.48980045;stroke-linecap:butt" />
			</g>
			<g id="shape6792-28" transform="translate(5.77625e-4,-33.8128)">
				<title id="title73">Sheet.6792</title>
				<path d="M 5.97,97.23 H 0 v 5.97 h 5.97 z" class="st2" id="path75" inkscape:connector-curvature="0" style="fill:#50e6ff;stroke:none;stroke-width:12.48980045;stroke-linecap:butt" />
			</g>
			<g id="shape6793-30" transform="translate(8.45438,-33.8128)">
				<title id="title78">Sheet.6793</title>
				<path d="M 2.98,103.2 C 1.33,103.2 0,101.87 0,100.22 c 0,-1.66 1.33,-2.99 2.98,-2.99 1.65,0 2.99,1.33 2.99,2.99 0,1.64 -1.35,2.98 -2.99,2.98 z" class="st2" id="path80" inkscape:connector-curvature="0" style="fill:#50e6ff;stroke:none;stroke-width:12.48980045;stroke-linecap:butt" />
			</g>
			<g id="shape6794-32" transform="translate(5.77625e-4,-16.9087)">
				<title id="title83">Sheet.6794</title>
				<path d="M 5.97,97.23 H 0 v 5.97 h 5.97 z" class="st2" id="path85" inkscape:connector-curvature="0" style="fill:#50e6ff;stroke:none;stroke-width:12.48980045;stroke-linecap:butt" />
			</g>
			<g id="shape6795-34" transform="translate(8.45438,-8.45672)">
				<title id="title88">Sheet.6795</title>
				<path d="M 5.97,97.23 H 0 v 5.97 h 5.97 z" class="st2" id="path90" inkscape:connector-curvature="0" style="fill:#50e6ff;stroke:none;stroke-width:12.48980045;stroke-linecap:butt" />
			</g>
			<g id="shape6796-36" transform="translate(50.7252)">
				<title id="title93">Sheet.6796</title>
				<path d="M 2.98,103.2 C 1.33,103.2 0,101.87 0,100.22 c 0,-1.66 1.33,-2.99 2.98,-2.99 1.65,0 2.99,1.33 2.99,2.99 0,1.64 -1.35,2.98 -2.99,2.98 z" class="st2" id="path95" inkscape:connector-curvature="0" style="fill:#50e6ff;stroke:none;stroke-width:12.48980045;stroke-linecap:butt" />
			</g>
			<g id="shape6797-38" transform="translate(33.817)">
				<title id="title98">Sheet.6797</title>
				<path d="M 5.97,97.23 H 0 v 5.97 h 5.97 z" class="st2" id="path100" inkscape:connector-curvature="0" style="fill:#50e6ff;stroke:none;stroke-width:12.48980045;stroke-linecap:butt" />
			</g>
			<g id="shape6798-40" transform="translate(42.2713,-8.45672)">
				<title id="title103">Sheet.6798</title>
				<path d="M 5.97,97.23 H 0 v 5.97 h 5.97 z" class="st2" id="path105" inkscape:connector-curvature="0" style="fill:#50e6ff;stroke:none;stroke-width:12.48980045;stroke-linecap:butt" />
			</g>
			<g id="shape6799-42" transform="translate(16.9087)">
				<title id="title108">Sheet.6799</title>
				<path d="M 2.98,103.2 C 1.33,103.2 0,101.87 0,100.22 c 0,-1.66 1.33,-2.99 2.98,-2.99 1.65,0 2.99,1.33 2.99,2.99 0,1.64 -1.35,2.98 -2.99,2.98 z" class="st2" id="path110" inkscape:connector-curvature="0" style="fill:#50e6ff;stroke:none;stroke-width:12.48980045;stroke-linecap:butt" />
			</g>
			<g id="shape6800-44" transform="translate(8.45438)">
				<title id="title113">Sheet.6800</title>
				<path d="M 5.97,97.23 H 0 v 5.97 h 5.97 z" class="st2" id="path115" inkscape:connector-curvature="0" style="fill:#50e6ff;stroke:none;stroke-width:12.48980045;stroke-linecap:butt" />
			</g>
			<g id="shape6801-46" transform="translate(25.3632,-8.45672)">
				<title id="title118">Sheet.6801</title>
				<path d="M 5.97,97.23 H 0 v 5.97 h 5.97 z" class="st2" id="path120" inkscape:connector-curvature="0" style="fill:#50e6ff;stroke:none;stroke-width:12.48980045;stroke-linecap:butt" />
			</g>
		</g>
	</g>
</svg>