<?xml version="1.0" encoding="UTF-8" standalone="no"?>
<!-- Generated by Microsoft Visio, SVG Export Cognitive Services Text Translator.svg Page-1 -->
<svg xmlns:dc="http://purl.org/dc/elements/1.1/" xmlns:cc="http://creativecommons.org/ns#" xmlns:rdf="http://www.w3.org/1999/02/22-rdf-syntax-ns#" xmlns:svg="http://www.w3.org/2000/svg" xmlns="http://www.w3.org/2000/svg" xmlns:sodipodi="http://sodipodi.sourceforge.net/DTD/sodipodi-0.dtd" xmlns:inkscape="http://www.inkscape.org/namespaces/inkscape" width="56.69" height="56.689787" viewBox="0 0 56.69 56.689787" xml:space="preserve" class="st5" version="1.1" id="svg55" sodipodi:docname="Cognitive Services Text Translator.svg" style="font-size:12px;overflow:visible;color-interpolation-filters:sRGB;fill:none;fill-rule:evenodd;stroke-linecap:square;stroke-miterlimit:3" inkscape:version="0.92.5 (2060ec1f9f, 2020-04-08)">
  <metadata id="metadata59">
    <rdf:RDF>
      <cc:Work rdf:about="">
        <dc:format>image/svg+xml</dc:format>
        <dc:type rdf:resource="http://purl.org/dc/dcmitype/StillImage" />
      </cc:Work>
    </rdf:RDF>
  </metadata>
  <sodipodi:namedview pagecolor="#ffffff" bordercolor="#666666" borderopacity="1" objecttolerance="10" gridtolerance="10" guidetolerance="10" inkscape:pageopacity="0" inkscape:pageshadow="2" inkscape:window-width="640" inkscape:window-height="480" id="namedview57" showgrid="false" inkscape:zoom="1.5679147" inkscape:cx="37.795391" inkscape:cy="29.906237" inkscape:window-x="0" inkscape:window-y="0" inkscape:window-maximized="0" inkscape:current-layer="svg55" />
	<style type="text/css" id="style2">
	<![CDATA[
		.st1 {fill:url(#grad0-6);stroke:none;stroke-linecap:butt;stroke-width:22.1803}
		.st2 {fill:#ffffff;stroke:none;stroke-linecap:butt;stroke-width:22.1803}
		.st3 {fill:url(#grad0-12);stroke:none;stroke-linecap:butt;stroke-width:22.1803}
		.st4 {fill:url(#grad0-16);stroke:none;stroke-linecap:butt;stroke-width:22.1803}
		.st5 {fill:none;fill-rule:evenodd;font-size:12px;overflow:visible;stroke-linecap:square;stroke-miterlimit:3}
	]]>
	</style>

	<defs id="Patterns_And_Gradients">
		<linearGradient id="grad0-6" x1="-9.552185e-09" y1="56.2" x2="56.69" y2="56.2" gradientUnits="userSpaceOnUse">
			<stop offset="0" stop-color="#5ea0ef" stop-opacity="1" id="stop4" />
			<stop offset="1" stop-color="#0078d4" stop-opacity="1" id="stop6" />
		</linearGradient>
		<linearGradient id="grad0-12" x1="-3.4232682e-06" y1="88.52117" x2="18.207016" y2="88.52117" gradientTransform="scale(0.94543598,1.0577131)" gradientUnits="userSpaceOnUse">
			<stop offset="0" stop-color="#ffffff" stop-opacity="1" id="stop9" />
			<stop offset="1" stop-color="#ffffff" stop-opacity="1" id="stop11" />
		</linearGradient>
		<linearGradient id="grad0-16" x1="0.24746759" y1="88.458222" x2="18.448258" y2="88.458222" gradientTransform="scale(0.94480479,1.0584197)" gradientUnits="userSpaceOnUse">
			<stop offset="0" stop-color="#ffffff" stop-opacity="1" id="stop14" />
			<stop offset="1" stop-color="#ffffff" stop-opacity="1" id="stop16" />
		</linearGradient>
	</defs>
	<g id="g53" transform="translate(-22.1803,-22.184516)">
		<title id="title20">Page-1</title>
		<g id="group6568-1" transform="translate(22.1803,-34.0157)">
			<title id="title22">Cognitive Services Text Translator</title>
			<g id="group6569-2">
				<title id="title24">g12</title>
				<g id="shape6570-3">
					<title id="title26">rect2</title>
					<path d="m 0,111 a 1.88981,1.88981 -180 0 0 1.89,1.89 H 54.8 A 1.88981,1.88981 -180 0 0 56.69,111 V 58.09 A 1.88981,1.88981 -180 0 0 54.8,56.2 H 1.89 A 1.88981,1.88981 -180 0 0 0,58.09 Z" class="st1" id="path28" inkscape:connector-curvature="0" style="fill:url(#grad0-6);stroke:none;stroke-width:22.18029976;stroke-linecap:butt" />
				</g>
				<g id="shape6571-7" transform="translate(33.9402,-6.86614)">
					<title id="title31">path4</title>
					<path d="m 7.89,94 a 11.178,11.178 -180 0 0 -6.13,1.69 v 2.96 a 8.87874,8.87874 0 0 1 5.88,-2.21 c 2.48,0 3.72,1.54 3.72,4.6 L 5.95,101.8 C 1.98,102.35 0,104.31 0,107.68 a 4.93858,4.93858 -180 0 0 1.52,3.78 5.92756,5.92756 -180 0 0 4.22,1.43 6.05039,6.05039 -180 0 0 5.55,-3.24 h 0.07 v 2.82 h 2.89 V 100.73 C 14.25,96.24 12.13,94 7.89,94 Z m 3.46,11.13 a 5.37323,5.37323 0 0 1 -1.4,3.81 4.62992,4.62992 0 0 1 -3.54,1.51 3.6378,3.6378 0 0 1 -2.52,-0.84 2.75276,2.75276 0 0 1 -0.95,-2.15 2.87559,2.87559 0 0 1 1.02,-2.52 7.07717,7.07717 0 0 1 3.04,-1.01 l 4.35,-0.6 z" class="st2" id="path33" inkscape:connector-curvature="0" style="fill:#ffffff;stroke:none;stroke-width:22.18029976;stroke-linecap:butt" />
				</g>
				<g id="shape6572-9" transform="translate(31.3291,-28.442)">
					<title id="title36">path6</title>
					<path d="m 12.08,112.64 4.84,-4.98 c 0.53,-0.52 0.33,-0.97 -0.5,-0.97 h -2.16 a 0.629921,0.629921 0 0 1 -0.629921,-0.62992 C 13.7,102.85 12.8,93.94 0.63,93.63 A 0.629921,0.629921 -180 0 0 7.9e-5,94.259921 L 0,97.41 A 0.629921,0.629921 -180 0 0 0.680315,98.039921 7.47402,7.47402 0 0 1 9.7,106.06 0.629921,0.629921 0 0 1 9.070079,106.68992 L 7.1,106.69 c -1.02,0 -1.19,0.31 -0.51,0.97 l 4.49,4.98 a 0.629921,0.629921 -180 0 0 1.00157,0 z" class="st3" id="path38" inkscape:connector-curvature="0" style="fill:url(#grad0-12);stroke:none;stroke-width:22.18029976;stroke-linecap:butt" />
				</g>
				<g id="shape6573-13" transform="translate(8.86614,-6.40315)">
					<title id="title41">path8</title>
					<path d="M 5.37,93.88 0.53,98.86 C 0,99.38 0.19,99.84 1.03,99.84 h 2.15 a 0.629921,0.629921 0 0 1 0.629921,0.62992 C 3.73,103.68 4.63,112.59 16.8,112.89 a 0.629921,0.629921 -180 0 0 0.629921,-0.62992 L 17.43,109.11 A 0.629921,0.629921 -180 0 0 16.752835,108.48008 7.47402,7.47402 0 0 1 7.74,100.44 0.629921,0.629921 0 0 1 8.369921,99.810079 L 10.36,99.81 c 1.01,0 1.18,-0.31 0.5,-0.97 L 6.38,93.88 a 0.629921,0.629921 -180 0 0 -1.01102,0 z" class="st4" id="path43" inkscape:connector-curvature="0" style="fill:url(#grad0-16);stroke:none;stroke-width:22.18029976;stroke-linecap:butt" />
				</g>
				<g id="shape6574-17" transform="translate(7.06457,-29.0142)">
					<title id="title46">path10</title>
					<path d="m 13.82,99.07 a 8.25197,8.25197 0 0 1 4.46,2.35 6.29921,6.29921 0 0 1 -0.05,9.13 9.5622,9.5622 0 0 1 -6.03,2.34 l -0.89,-2.03 a 8.60157,8.60157 -180 0 0 5.04,-1.45 4.09449,4.09449 -180 0 0 1.78,-3.39 4.46614,4.46614 -180 0 0 -1.38,-3.23 6.44409,6.44409 -180 0 0 -3.45,-1.8 20.4315,20.4315 0 0 1 -3.58,7.24 6.94488,6.94488 -180 0 0 0.82,1.44 l -1.68,1.17 a 6.99528,6.99528 0 0 1 -0.69,-1.04 7.28504,7.28504 0 0 1 -4.55,2 3.5874,3.5874 0 0 1 -2.58,-1 3.92441,3.92441 0 0 1 -1.04,-2.95 7.50551,7.50551 0 0 1 1.68,-4.59 10.4472,10.4472 0 0 1 4.3,-3.34 C 6.03,98.24 6.09,97.06 6.15,96.39 4.4,96.46 3.01,96.49 2,96.49 L 1.66,94.54 C 2.75,94.58 4.3,94.57 6.3,94.49 A 38.2677,38.2677 0 0 1 6.96,90.2 l 1.95,0.28 -0.54,3.86 a 76,76 -180 0 0 8.16,-0.97 l 0.41,1.89 a 85.0772,85.0772 0 0 1 -8.75,1.01 22.1858,22.1858 -180 0 0 -0.18,2.92 12.7811,12.7811 0 0 1 2.94,-0.38 c 0.26,0 0.51,0 0.77,0.02 a 7.55906,7.55906 -180 0 0 0.36,-1.61 l 2,0.29 a 11.9433,11.9433 0 0 1 -0.26,1.56 z m -6.55,8.73 a 21.8898,21.8898 0 0 1 -1.2,-5.74 7.77323,7.77323 -180 0 0 -2.87,2.52 5.54646,5.54646 -180 0 0 -1.06,3.15 2.16693,2.16693 -180 0 0 0.45,1.6 1.36693,1.36693 -180 0 0 0.92,0.41 5.03937,5.03937 -180 0 0 1.65,-0.43 6.14803,6.14803 -180 0 0 2.11,-1.51 z m 3.91,-6.96 a 11.6535,11.6535 -180 0 0 -3.07,0.46 18.0535,18.0535 -180 0 0 0.72,4.61 18.8976,18.8976 -180 0 0 2.35,-5.07 z" class="st2" id="path48" inkscape:connector-curvature="0" style="fill:#ffffff;stroke:none;stroke-width:22.18029976;stroke-linecap:butt" />
				</g>
			</g>
		</g>
	</g>
</svg>