<?xml version="1.0" encoding="UTF-8" standalone="no"?>
<!-- Generated by Microsoft Visio, SVG Export File Share.svg Page-1 -->
<svg xmlns:dc="http://purl.org/dc/elements/1.1/" xmlns:cc="http://creativecommons.org/ns#" xmlns:rdf="http://www.w3.org/1999/02/22-rdf-syntax-ns#" xmlns:svg="http://www.w3.org/2000/svg" xmlns="http://www.w3.org/2000/svg" xmlns:sodipodi="http://sodipodi.sourceforge.net/DTD/sodipodi-0.dtd" xmlns:inkscape="http://www.inkscape.org/namespaces/inkscape" width="56.692477" height="56.693137" viewBox="0 0 56.692477 56.693137" xml:space="preserve" class="st6" version="1.1" id="svg63" sodipodi:docname="File Share.svg" style="font-size:12px;overflow:visible;color-interpolation-filters:sRGB;fill:none;fill-rule:evenodd;stroke-linecap:square;stroke-miterlimit:3" inkscape:version="0.92.5 (2060ec1f9f, 2020-04-08)">
  <metadata id="metadata67">
    <rdf:RDF>
      <cc:Work rdf:about="">
        <dc:format>image/svg+xml</dc:format>
        <dc:type rdf:resource="http://purl.org/dc/dcmitype/StillImage" />
      </cc:Work>
    </rdf:RDF>
  </metadata>
  <sodipodi:namedview pagecolor="#ffffff" bordercolor="#666666" borderopacity="1" objecttolerance="10" gridtolerance="10" guidetolerance="10" inkscape:pageopacity="0" inkscape:pageshadow="2" inkscape:window-width="640" inkscape:window-height="480" id="namedview65" showgrid="false" inkscape:zoom="1.4193119" inkscape:cx="37.795128" inkscape:cy="37.784163" inkscape:window-x="0" inkscape:window-y="0" inkscape:window-maximized="0" inkscape:current-layer="svg63" />
	<style type="text/css" id="style2">
	<![CDATA[
		.st1 {fill:#005ba1;stroke:none;stroke-linecap:butt;stroke-width:34}
		.st2 {fill:#50e5ff;stroke:none;stroke-linecap:butt;stroke-width:34}
		.st3 {fill:#0078d4;stroke:none;stroke-linecap:butt;stroke-width:34}
		.st4 {fill:#ffffff;stroke:none;stroke-linecap:butt;stroke-width:34}
		.st5 {fill:url(#grad0-18);stroke:none;stroke-linecap:butt;stroke-width:34}
		.st6 {fill:none;fill-rule:evenodd;font-size:12px;overflow:visible;stroke-linecap:square;stroke-miterlimit:3}
	]]>
	</style>

	<defs id="Patterns_And_Gradients">
		<linearGradient id="grad0-18" x1="-0.0022827725" y1="112.34184" x2="33.920177" y2="112.34184" gradientTransform="scale(1.1727533,0.85269425)" gradientUnits="userSpaceOnUse">
			<stop offset="0" stop-color="#32d4f5" stop-opacity="1" id="stop4" />
			<stop offset="0.23" stop-color="#31d0f1" stop-opacity="1" id="stop6" />
			<stop offset="0.46" stop-color="#2cc3e6" stop-opacity="1" id="stop8" />
			<stop offset="0.7" stop-color="#25afd4" stop-opacity="1" id="stop10" />
			<stop offset="0.94" stop-color="#1c92ba" stop-opacity="1" id="stop12" />
			<stop offset="1" stop-color="#198ab3" stop-opacity="1" id="stop14" />
		</linearGradient>
	</defs>
	<g id="g61" transform="translate(-34.000441,-33.999639)">
		<title id="title18">Page-1</title>
		<g id="group4686-1" transform="translate(34,-34.0157)">
			<title id="title20">File Share</title>
			<g id="group4687-2">
				<title id="title22">g16</title>
				<g id="shape4688-3" transform="translate(10.2362,-7.33044)">
					<title id="title24">path2</title>
					<path d="m 44.19,87.65 h -2.87 a 13.1024,13.0878 -180 0 0 -1.73,0 2.14173,2.13936 0 0 1 -1.86,-3.15 l 1.23,-2.2 a 5.76378,5.75738 -180 0 0 -1.61,-0.91 l -2.92,5.22 a 2.20472,2.20228 0 0 1 -1.89,1.1 h -2.62 a 2.07874,2.07643 -180 0 0 -1.01,0.25 l -4.94,3.15 a 0.787402,0.786528 0 0 1 -0.503937,0 H 6.36 A 0.913386,0.912372 -180 0 0 5.509606,92.11676 L 5.51,107.28 0,108.98 l 0.41,1.76 5.1,-0.76 v 9.13 a 0.913386,0.912372 -180 0 0 0.913386,0.91237 L 35.94,120.02 l 3.62,4.69 1.54,-0.98 -2.14,-3.71 h 5.29 a 0.913386,0.912372 -180 0 0 0.944882,-0.91237 L 45.2,88.59 a 0.944882,0.943833 -180 0 0 -1.00787,-0.943833 z" class="st1" id="path26" inkscape:connector-curvature="0" style="fill:#005ba1;stroke:none;stroke-width:34;stroke-linecap:butt" />
				</g>
				<g id="shape4689-5" transform="translate(46.5827,-49.8344)">
					<title id="title29">circle4</title>
					<ellipse cx="3.4330699" cy="121.279" rx="3.4330699" ry="3.42926" class="st2" id="ellipse31" style="fill:#50e5ff;stroke:none;stroke-width:34;stroke-linecap:butt" />
				</g>
				<g id="shape4690-7" transform="translate(47.748)">
					<title id="title34">circle6</title>
					<ellipse cx="4.4724398" cy="120.241" rx="4.4724398" ry="4.4674802" class="st2" id="ellipse36" style="fill:#50e5ff;stroke:none;stroke-width:34;stroke-linecap:butt" />
				</g>
				<g id="shape4691-9" transform="translate(0,-15.1013)">
					<title id="title39">circle8</title>
					<ellipse cx="5.5748" cy="119.14" rx="5.5748" ry="5.5686202" class="st2" id="ellipse41" style="fill:#50e5ff;stroke:none;stroke-width:34;stroke-linecap:butt" />
				</g>
				<g id="shape4692-11" transform="translate(21.6063,-36.8095)">
					<title id="title44">path10</title>
					<path d="M 26.17,119.8 4.41,116.65 H 3.97 a 3.14961,3.14611 -180 0 0 -3.15,2.74 L 0,124.71 h 28.79 v -1.29 a 3.14961,3.14611 -180 0 0 -2.62,-3.62 z" class="st3" id="path46" inkscape:connector-curvature="0" style="fill:#0078d4;stroke:none;stroke-width:34;stroke-linecap:butt" />
				</g>
				<g id="shape4693-13" transform="translate(22.9921,-36.8095)">
					<title id="title49">path12</title>
					<path d="M 24.57,121.15 2.83,118.01 H 2.55 a 1.82677,1.82474 -180 0 0 -1.79,1.57 L 0,124.71 h 25.89 l 0.22,-1.48 a 1.82677,1.82474 -180 0 0 -1.54,-2.08 z" class="st4" id="path51" inkscape:connector-curvature="0" style="fill:#ffffff;stroke:none;stroke-width:34;stroke-linecap:butt" />
				</g>
				<g id="shape4694-15" transform="translate(15.748,-12.0181)">
					<title id="title54">path14</title>
					<path d="m 0.82,95.8 h 19.05 a 1.03937,1.03822 0 0 1 0.67,0.28 l 3.15,3.15 a 0.913386,0.912372 -180 0 0 0.661417,0.28315 L 38.83,99.51 a 0.944882,0.943833 0 0 1 0.944882,0.91237 L 39.78,123.8 a 0.944882,0.943833 0 0 1 -0.944882,0.91237 L 1.04,124.71 A 0.913386,0.912372 0 0 1 6.3e-4,123.79763 L 0,96.8 a 0.944882,0.943833 0 0 1 0.818898,-1.00676 z" class="st5" id="path56" inkscape:connector-curvature="0" style="fill:url(#grad0-18);stroke:none;stroke-width:34;stroke-linecap:butt" />
				</g>
			</g>
		</g>
	</g>
</svg>