<?xml version="1.0" encoding="UTF-8" standalone="no"?>
<!-- Generated by Microsoft Visio, SVG Export IP Group.svg Page-1 -->
<svg xmlns:dc="http://purl.org/dc/elements/1.1/" xmlns:cc="http://creativecommons.org/ns#" xmlns:rdf="http://www.w3.org/1999/02/22-rdf-syntax-ns#" xmlns:svg="http://www.w3.org/2000/svg" xmlns="http://www.w3.org/2000/svg" xmlns:sodipodi="http://sodipodi.sourceforge.net/DTD/sodipodi-0.dtd" xmlns:inkscape="http://www.inkscape.org/namespaces/inkscape" width="56.691284" height="45.356698" viewBox="0 0 56.691284 45.356698" xml:space="preserve" class="st6" version="1.1" id="svg87" sodipodi:docname="IP Group.svg" style="font-size:12px;overflow:visible;color-interpolation-filters:sRGB;fill:none;fill-rule:evenodd;stroke-linecap:square;stroke-miterlimit:3" inkscape:version="0.92.5 (2060ec1f9f, 2020-04-08)">
  <metadata id="metadata91">
    <rdf:RDF>
      <cc:Work rdf:about="">
        <dc:format>image/svg+xml</dc:format>
        <dc:type rdf:resource="http://purl.org/dc/dcmitype/StillImage" />
      </cc:Work>
    </rdf:RDF>
  </metadata>
  <sodipodi:namedview pagecolor="#ffffff" bordercolor="#666666" borderopacity="1" objecttolerance="10" gridtolerance="10" guidetolerance="10" inkscape:pageopacity="0" inkscape:pageshadow="2" inkscape:window-width="640" inkscape:window-height="480" id="namedview89" showgrid="false" inkscape:zoom="1.5612629" inkscape:cx="37.795252" inkscape:cy="30.225663" inkscape:window-x="0" inkscape:window-y="0" inkscape:window-maximized="0" inkscape:current-layer="svg87" />
	<style type="text/css" id="style2">
	<![CDATA[
		.st1 {fill:#83b9f9;stroke:none;stroke-linecap:butt;stroke-width:34}
		.st2 {fill:#1f56a3;stroke:none;stroke-linecap:butt;stroke-width:34}
		.st3 {fill:#f2f2f2;stroke:none;stroke-linecap:butt;stroke-width:34}
		.st4 {fill:url(#grad0-18);stroke:none;stroke-linecap:butt;stroke-width:34}
		.st5 {fill:#0078d4;stroke:none;stroke-linecap:butt;stroke-width:34}
		.st6 {fill:none;fill-rule:evenodd;font-size:12px;overflow:visible;stroke-linecap:square;stroke-miterlimit:3}
	]]>
	</style>

	<defs id="Patterns_And_Gradients">
		<linearGradient id="grad0-18" x1="0" y1="120.51735" x2="24.834267" y2="120.51735" gradientTransform="scale(1.2820995,0.77997069)" gradientUnits="userSpaceOnUse">
			<stop offset="0" stop-color="#32bedd" stop-opacity="1" id="stop4" />
			<stop offset="0.18" stop-color="#32caea" stop-opacity="1" id="stop6" />
			<stop offset="0.41" stop-color="#32d2f2" stop-opacity="1" id="stop8" />
			<stop offset="0.78" stop-color="#32d4f5" stop-opacity="1" id="stop10" />
		</linearGradient>
	</defs>
	<g id="g85" transform="translate(-34.000237,-33.9976)">
		<title id="title14">Page-1</title>
		<g id="group3867-1" transform="translate(34,-34.0157)">
			<title id="title16">IP Group</title>
			<g id="group3868-2">
				<title id="title18">Sheet.3868</title>
				<g id="shape3869-3" transform="translate(0,-18.9828)">
					<title id="title20">Sheet.3869</title>
					<path d="m 0,94 h 31.84 v 18.27 a 1.0705,1.1011 0 0 1 -1.07,1.1 H 1.07 A 1.0705,1.1011 0 0 1 0,112.27 Z" class="st1" id="path22" inkscape:connector-curvature="0" style="fill:#83b9f9;stroke:none;stroke-width:34;stroke-linecap:butt" />
				</g>
				<g id="shape3870-5" transform="translate(0,-38.3567)">
					<title id="title25">Sheet.3870</title>
					<path d="m 1.07,106.37 h 29.7 a 1.0705,1.1011 0 0 1 1.07,1.1 v 5.9 H 0 v -5.9 a 1.0705,1.1011 0 0 1 1.07,-1.1 z" class="st2" id="path27" inkscape:connector-curvature="0" style="fill:#1f56a3;stroke:none;stroke-width:34;stroke-linecap:butt" />
				</g>
				<g id="shape3871-7" transform="translate(4.28198,-40.4285)">
					<title id="title30">Sheet.3871</title>
					<path d="m 0,112.82 a 0.536928,0.552278 -180 0 0 0.536915,0.55226 L 22.74,113.37 a 0.536928,0.552278 -180 0 0 0.536915,-0.55227 L 23.27,111.1 a 0.536928,0.552278 -180 0 0 -0.536915,-0.55227 L 0.54,110.55 a 0.536928,0.552278 -180 0 0 -0.536915,0.55227 z" class="st3" id="path32" inkscape:connector-curvature="0" style="fill:#f2f2f2;stroke:none;stroke-width:34;stroke-linecap:butt" />
				</g>
				<g id="shape3872-9" transform="translate(12.4091,-9.52571)">
					<title id="title35">Sheet.3872</title>
					<path d="m 0,94 h 31.87 v 18.27 a 1.0705,1.1011 0 0 1 -1.07,1.1 H 1.07 A 1.0705,1.1011 0 0 1 0,112.27 Z" class="st1" id="path37" inkscape:connector-curvature="0" style="fill:#83b9f9;stroke:none;stroke-width:34;stroke-linecap:butt" />
				</g>
				<g id="shape3873-11" transform="translate(12.4424,-28.8961)">
					<title id="title40">Sheet.3873</title>
					<path d="m 1.04,106.4 h 29.7 a 1.0705,1.1011 0 0 1 1.07,1.1 v 5.87 H 0 v -5.87 a 1.0705,1.1011 0 0 1 1.04,-1.1 z" class="st2" id="path42" inkscape:connector-curvature="0" style="fill:#1f56a3;stroke:none;stroke-width:34;stroke-linecap:butt" />
				</g>
				<g id="shape3874-13" transform="translate(16.6944,-30.9371)">
					<title id="title45">Sheet.3874</title>
					<path d="m 0,112.82 a 0.536928,0.552278 -180 0 0 0.536915,0.55226 L 22.74,113.37 a 0.536928,0.552278 -180 0 0 0.536915,-0.55227 L 23.27,111.1 a 0.536928,0.552278 -180 0 0 -0.536915,-0.55227 L 0.54,110.55 a 0.536928,0.552278 -180 0 0 -0.536915,0.55227 z" class="st3" id="path47" inkscape:connector-curvature="0" style="fill:#f2f2f2;stroke:none;stroke-width:34;stroke-linecap:butt" />
				</g>
				<g id="shape3875-15" transform="translate(24.8515)">
					<title id="title50">Sheet.3875</title>
					<path d="m 0,94 h 31.84 v 18.27 a 1.0705,1.1011 0 0 1 -1.07,1.1 H 1.07 A 1.0705,1.1011 0 0 1 0,112.27 Z" class="st4" id="path52" inkscape:connector-curvature="0" style="fill:url(#grad0-18);stroke:none;stroke-width:34;stroke-linecap:butt" />
				</g>
				<g id="shape3876-19" transform="translate(24.8515,-19.3739)">
					<title id="title55">Sheet.3876</title>
					<path d="m 1.07,106.37 h 29.7 a 1.0705,1.1011 0 0 1 1.07,1.1 v 5.9 H 0 v -5.9 a 1.0705,1.1011 0 0 1 1.07,-1.1 z" class="st5" id="path57" inkscape:connector-curvature="0" style="fill:#0078d4;stroke:none;stroke-width:34;stroke-linecap:butt" />
				</g>
				<g id="group3877-21" transform="translate(31.0244,-8.22909)">
					<title id="title60">Sheet.3877</title>
					<g id="shape3878-22" transform="translate(14.33)">
						<title id="title62">Sheet.3878</title>
						<ellipse cx="2.5811901" cy="110.715" rx="2.5811901" ry="2.65499" class="st5" id="ellipse64" style="fill:#0078d4;stroke:none;stroke-width:34;stroke-linecap:butt" />
					</g>
					<g id="shape3879-24" transform="translate(7.2767)">
						<title id="title67">Sheet.3879</title>
						<ellipse cx="2.5811901" cy="110.715" rx="2.5811901" ry="2.65499" class="st5" id="ellipse69" style="fill:#0078d4;stroke:none;stroke-width:34;stroke-linecap:butt" />
					</g>
					<g id="shape3880-26">
						<title id="title72">Sheet.3880</title>
						<ellipse cx="2.5811901" cy="110.715" rx="2.5811901" ry="2.65499" class="st5" id="ellipse74" style="fill:#0078d4;stroke:none;stroke-width:34;stroke-linecap:butt" />
					</g>
				</g>
				<g id="shape3881-28" transform="translate(29.1335,-21.4457)">
					<title id="title78">Sheet.3881</title>
					<path d="m 0,112.82 a 0.536928,0.552278 -180 0 0 0.536915,0.55226 L 22.74,113.37 a 0.536928,0.552278 -180 0 0 0.536915,-0.55227 L 23.27,111.1 a 0.536928,0.552278 -180 0 0 -0.536915,-0.55227 L 0.54,110.55 a 0.536928,0.552278 -180 0 0 -0.536915,0.55227 z" class="st3" id="path80" inkscape:connector-curvature="0" style="fill:#f2f2f2;stroke:none;stroke-width:34;stroke-linecap:butt" />
				</g>
			</g>
		</g>
	</g>
</svg>