<?xml version="1.0" encoding="UTF-8" standalone="no"?>
<!-- Generated by Microsoft Visio, SVG Export Lab Account.svg Page-1 -->
<svg xmlns:dc="http://purl.org/dc/elements/1.1/" xmlns:cc="http://creativecommons.org/ns#" xmlns:rdf="http://www.w3.org/1999/02/22-rdf-syntax-ns#" xmlns:svg="http://www.w3.org/2000/svg" xmlns="http://www.w3.org/2000/svg" xmlns:sodipodi="http://sodipodi.sourceforge.net/DTD/sodipodi-0.dtd" xmlns:inkscape="http://www.inkscape.org/namespaces/inkscape" width="53.409093" height="56.700334" viewBox="0 0 53.409093 56.700334" xml:space="preserve" class="st5" version="1.1" id="svg55" sodipodi:docname="Lab Account.svg" style="font-size:12px;overflow:visible;color-interpolation-filters:sRGB;fill:none;fill-rule:evenodd;stroke-linecap:square;stroke-miterlimit:3" inkscape:version="0.92.5 (2060ec1f9f, 2020-04-08)">
  <metadata id="metadata59">
    <rdf:RDF>
      <cc:Work rdf:about="">
        <dc:format>image/svg+xml</dc:format>
        <dc:type rdf:resource="http://purl.org/dc/dcmitype/StillImage" />
      </cc:Work>
    </rdf:RDF>
  </metadata>
  <sodipodi:namedview pagecolor="#ffffff" bordercolor="#666666" borderopacity="1" objecttolerance="10" gridtolerance="10" guidetolerance="10" inkscape:pageopacity="0" inkscape:pageshadow="2" inkscape:window-width="640" inkscape:window-height="480" id="namedview57" showgrid="false" inkscape:zoom="1.4193119" inkscape:cx="35.612181" inkscape:cy="37.788897" inkscape:window-x="0" inkscape:window-y="0" inkscape:window-maximized="0" inkscape:current-layer="svg55" />
	<style type="text/css" id="style2">
	<![CDATA[
		.st1 {fill:url(#grad0-6);stroke:none;stroke-linecap:butt;stroke-width:34}
		.st2 {fill:url(#grad0-10);stroke:none;stroke-linecap:butt;stroke-width:34}
		.st3 {fill:#faa21d;stroke:none;stroke-linecap:butt;stroke-width:34}
		.st4 {fill:#ffffff;stroke:none;stroke-linecap:butt;stroke-width:34}
		.st5 {fill:none;fill-rule:evenodd;font-size:12px;overflow:visible;stroke-linecap:square;stroke-miterlimit:3}
	]]>
	</style>

	<defs id="Patterns_And_Gradients">
		<linearGradient id="grad0-6" x1="0.48711286" y1="74.194815" x2="39.380002" y2="74.194815" gradientTransform="scale(0.90680543,1.1027724)" gradientUnits="userSpaceOnUse">
			<stop offset="0" stop-color="#5ea0ef" stop-opacity="1" id="stop4" />
			<stop offset="1" stop-color="#0078d4" stop-opacity="1" id="stop6" />
		</linearGradient>
		<linearGradient id="grad0-10" x1="0.0035261781" y1="66.145012" x2="31.963821" y2="66.145012" gradientTransform="scale(0.78665473,1.2712057)" gradientUnits="userSpaceOnUse">
			<stop offset="0" stop-color="#ffbd02" stop-opacity="1" id="stop9" />
			<stop offset="1" stop-color="#ffd400" stop-opacity="1" id="stop11" />
		</linearGradient>
	</defs>
	<g id="g53" transform="translate(-33.99965,-33.995995)">
		<title id="title15">Page-1</title>
		<g id="group3583-1" transform="translate(33.5575,-34.0157)">
			<title id="title17">Lab Account</title>
			<g id="group3584-2">
				<title id="title19">Sheet.3584</title>
				<g id="shape3585-3" transform="translate(0,-13.8083)">
					<title id="title21">Sheet.3585</title>
					<path d="m 35.71,121.64 -6.59,-6.67 -0.18,-0.17 a 5.89947,5.99866 0 0 1 0.17,-8.48 l 2.42,-2.46 -1.87,-2.78 a 1.59266,1.61943 0 0 1 -0.28,-0.92 V 86.57 a 0.793011,0.806344 0 0 1 0.793011,-0.806344 L 30.92,85.77 a 1.58934,1.61606 -180 0 0 1.59,-1.62 v -0.73 a 1.58602,1.61269 -180 0 0 -1.59,-1.6 H 13.31 a 1.58934,1.61606 -180 0 0 -1.59,1.62 v 0.71 a 1.59266,1.61943 -180 0 0 1.59,1.62 h 0.74 a 0.796329,0.809717 0 0 1 0.796329,0.806344 L 14.84,100.13 a 1.60925,1.6363 0 0 1 -0.27,0.91 L 0.72,121.56 c -0.72,1.07 0.04,3.15 1.33,3.15 h 33.66 z" class="st1" id="path23" inkscape:connector-curvature="0" style="fill:url(#grad0-6);stroke:none;stroke-width:34;stroke-linecap:butt" />
				</g>
				<g id="shape3586-7" transform="translate(28.7067)">
					<title id="title26">Sheet.3586</title>
					<path d="m 23.76,100.14 a 4.49926,4.5749 -180 0 0 0.14,-6.46 l -0.14,-0.14 -8,-8.05 A 4.49594,4.57153 -180 0 0 9.39,85.37 L 9.28,85.49 1.39,93.54 A 4.49262,4.56816 -180 0 0 1.25,100 l 0.14,0.14 6.63,6.71 a 1.21108,1.23145 0 0 1 0.38,0.91 v 12.46 a 1.57275,1.59919 -180 0 0 0.45,1.12 l 2.98,3.04 a 1.012,1.02902 -180 0 0 1.43,0.06 l 0.06,-0.06 2.9,-2.95 1.71,-1.74 a 0.633745,0.6444 -180 0 0 0,-0.87045 L 16.69,117.56 a 0.663608,0.674764 0 0 1 0,-0.93455 L 17.93,115.37 a 0.633745,0.6444 -180 0 0 0,-0.87045 L 16.69,113.24 a 0.663608,0.674764 0 0 1 0,-0.93455 L 17.93,111.05 a 0.610519,0.620783 -180 0 0 0,-0.84683 L 16.22,108.44 V 107.8 Z M 12.52,92.72 a 2.6113,2.6552 0 0 1 -0.05,-5.3 h 0.05 a 2.6113,2.6552 0 0 1 0,5.3 z" class="st2" id="path28" inkscape:connector-curvature="0" style="fill:url(#grad0-10);stroke:none;stroke-width:34;stroke-linecap:butt" />
				</g>
				<g id="shape3587-11" transform="translate(39.0002,-4.20332)">
					<title id="title31">Sheet.3587</title>
					<path d="m 0.18,124.61 a 0.564066,0.57355 -180 0 0 0.945641,-0.43185 L 1.12,114.11 A 0.603883,0.614036 -180 0 0 0.851239,113.6073 0.564066,0.57355 -180 0 0 -0.004815,114.11 L 0,124.18 a 0.550794,0.560055 -180 0 0 0.179174,0.43185 z" class="st3" id="path33" inkscape:connector-curvature="0" style="fill:#faa21d;stroke:none;stroke-width:34;stroke-linecap:butt" />
				</g>
				<g id="shape3588-13" transform="translate(34.9058,-26.9425)">
					<title id="title36">Sheet.3588</title>
					<path d="m 0,124 a 0.696804,0.708519 -180 0 0 0.696788,0.7085 L 12.28,124.71 a 0.696804,0.708519 -180 0 0 0.696788,-0.7085 L 12.98,123.86 a 0.696804,0.708519 -180 0 0 -0.696788,-0.7085 L 0.7,123.15 a 0.696804,0.708519 -180 0 0 -0.696788,0.7085 z" class="st3" id="path38" inkscape:connector-curvature="0" style="fill:#faa21d;stroke:none;stroke-width:34;stroke-linecap:butt" />
				</g>
				<g id="shape3589-15" transform="translate(34.9058,-24.4054)">
					<title id="title41">Sheet.3589</title>
					<path d="m 0,124 a 0.696804,0.708519 -180 0 0 0.696788,0.7085 L 12.28,124.71 a 0.696804,0.708519 -180 0 0 0.696788,-0.7085 L 12.98,123.86 a 0.696804,0.708519 -180 0 0 -0.696788,-0.7085 L 0.7,123.15 a 0.696804,0.708519 -180 0 0 -0.696788,0.7085 z" class="st3" id="path43" inkscape:connector-curvature="0" style="fill:#faa21d;stroke:none;stroke-width:34;stroke-linecap:butt" />
				</g>
				<g id="shape3590-17" transform="translate(6.59082,-17.8265)">
					<title id="title46">Sheet.3590</title>
					<path d="m 22.68,118.84 a 4.39308,4.46694 0 0 1 -0.18,-0.17 5.64066,5.7355 0 0 1 -0.07,-7.89 l -2.32,-3.41 a 2.59802,2.6417 0 0 1 -0.46,-1.49 v -6.71 a 1.22104,1.24157 -180 0 0 -1.22,-1.24 h -5.97 a 1.22436,1.24494 -180 0 0 -1.23,1.24 v 6.28 a 3.85888,3.92376 0 0 1 -0.66,2.21 L 0.06,123.25 a 0.915779,0.931175 -180 0 0 0.753195,1.45749 L 28.47,124.71 Z" class="st4" id="path48" inkscape:connector-curvature="0" style="fill:#ffffff;stroke:none;stroke-width:34;stroke-linecap:butt" />
				</g>
			</g>
		</g>
	</g>
</svg>