<?xml version="1.0" encoding="UTF-8" standalone="no"?>
<!-- Generated by Microsoft Visio, SVG Export Storage Account (classic).svg Page-1 -->
<svg xmlns:dc="http://purl.org/dc/elements/1.1/" xmlns:cc="http://creativecommons.org/ns#" xmlns:rdf="http://www.w3.org/1999/02/22-rdf-syntax-ns#" xmlns:svg="http://www.w3.org/2000/svg" xmlns="http://www.w3.org/2000/svg" xmlns:sodipodi="http://sodipodi.sourceforge.net/DTD/sodipodi-0.dtd" xmlns:inkscape="http://www.inkscape.org/namespaces/inkscape" width="56.689782" height="45.353896" viewBox="0 0 56.689782 45.353896" xml:space="preserve" class="st6" version="1.1" id="svg49" sodipodi:docname="Storage Account (classic).svg" style="font-size:12px;overflow:visible;color-interpolation-filters:sRGB;fill:none;fill-rule:evenodd;stroke-linecap:square;stroke-miterlimit:3" inkscape:version="0.92.5 (2060ec1f9f, 2020-04-08)">
  <metadata id="metadata53">
    <rdf:RDF>
      <cc:Work rdf:about="">
        <dc:format>image/svg+xml</dc:format>
        <dc:type rdf:resource="http://purl.org/dc/dcmitype/StillImage" />
      </cc:Work>
    </rdf:RDF>
  </metadata>
  <sodipodi:namedview pagecolor="#ffffff" bordercolor="#666666" borderopacity="1" objecttolerance="10" gridtolerance="10" guidetolerance="10" inkscape:pageopacity="0" inkscape:pageshadow="2" inkscape:window-width="640" inkscape:window-height="480" id="namedview51" showgrid="false" inkscape:zoom="1.5612629" inkscape:cx="37.795252" inkscape:cy="30.225663" inkscape:window-x="0" inkscape:window-y="0" inkscape:window-maximized="0" inkscape:current-layer="svg49" />
	<style type="text/css" id="style2">
	<![CDATA[
		.st1 {fill:url(#grad0-6);stroke:none;stroke-linecap:butt;stroke-width:34}
		.st2 {fill:#198ab3;stroke:none;stroke-linecap:butt;stroke-width:34}
		.st3 {fill:#ffffff;stroke:none;stroke-linecap:butt;stroke-width:34}
		.st4 {fill:#9cebff;stroke:none;stroke-linecap:butt;stroke-width:34}
		.st5 {fill:#50e6ff;stroke:none;stroke-linecap:butt;stroke-width:34}
		.st6 {fill:none;fill-rule:evenodd;font-size:12px;overflow:visible;stroke-linecap:square;stroke-miterlimit:3}
	]]>
	</style>

	<defs id="Patterns_And_Gradients">
		<linearGradient id="grad0-6" x1="0" y1="104.3574" x2="43.474643" y2="104.3574" gradientTransform="scale(1.3039785,0.76688381)" gradientUnits="userSpaceOnUse">
			<stop offset="0" stop-color="#32bedd" stop-opacity="1" id="stop4" />
			<stop offset="0.18" stop-color="#32caea" stop-opacity="1" id="stop6" />
			<stop offset="0.41" stop-color="#32d2f2" stop-opacity="1" id="stop8" />
			<stop offset="0.78" stop-color="#32d4f5" stop-opacity="1" id="stop10" />
		</linearGradient>
	</defs>
	<g id="g47" transform="translate(-34.000237,-34.0004)">
		<title id="title14">Page-1</title>
		<g id="group1089-1" transform="translate(34,-34.0157)">
			<title id="title16">Storage Account (classic)</title>
			<g id="group1090-2">
				<title id="title18">Icon-storage-87</title>
				<g id="shape1091-3">
					<title id="title20">Sheet.1091</title>
					<path d="m 0,80.03 h 56.69 v 31.45 a 1.90088,1.89115 0 0 1 -1.9,1.89 H 1.9 A 1.90088,1.89115 0 0 1 0,111.48 Z" class="st1" id="path22" inkscape:connector-curvature="0" style="fill:url(#grad0-6);stroke:none;stroke-width:34;stroke-linecap:butt" />
				</g>
				<g id="shape1092-7" transform="translate(0,-33.3439)">
					<title id="title25">Sheet.1092</title>
					<path d="m 1.9,101.36 h 52.89 a 1.90088,1.89115 0 0 1 1.9,1.89 v 10.12 H 0 v -10.15 a 1.90088,1.89115 0 0 1 1.9,-1.86 z" class="st2" id="path27" inkscape:connector-curvature="0" style="fill:#198ab3;stroke:none;stroke-width:34;stroke-linecap:butt" />
				</g>
				<g id="shape1093-9" transform="translate(6.8365,-23.2578)">
					<title id="title30">Sheet.1093</title>
					<path d="m 0.87,106.93 h 41.25 a 0.900417,0.895806 0 0 1 0.867068,0.89581 L 42.99,112.47 a 0.900417,0.895806 0 0 1 -0.867068,0.89581 L 0.87,113.37 A 0.900417,0.895806 0 0 1 0.002932,112.47419 L 0,107.83 a 0.900417,0.895806 0 0 1 0.867068,-0.89581 z" class="st3" id="path32" inkscape:connector-curvature="0" style="fill:#ffffff;stroke:none;stroke-width:34;stroke-linecap:butt" />
				</g>
				<g id="shape1094-11" transform="translate(6.86985,-13.9679)">
					<title id="title35">Sheet.1094</title>
					<path d="m 0.87,106.9 h 41.25 a 0.900417,0.895806 0 0 1 0.867068,0.89581 L 42.99,112.47 a 0.900417,0.895806 0 0 1 -0.867068,0.89581 L 0.87,113.37 A 0.900417,0.895806 0 0 1 0.002932,112.47419 L 0,107.96 a 0.900417,0.895806 0 0 1 0.867068,-1.0617 z" class="st4" id="path37" inkscape:connector-curvature="0" style="fill:#9cebff;stroke:none;stroke-width:34;stroke-linecap:butt" />
				</g>
				<g id="shape1095-13" transform="translate(6.86985,-4.61174)">
					<title id="title40">Sheet.1095</title>
					<path d="m 0.87,106.9 h 41.25 a 0.900417,0.895806 0 0 1 0.867068,0.89581 L 42.99,112.47 a 0.900417,0.895806 0 0 1 -0.867068,0.89581 L 0.87,113.37 A 0.900417,0.895806 0 0 1 0.002932,112.47419 L 0,107.8 a 0.900417,0.895806 0 0 1 0.867068,-0.89581 z" class="st5" id="path42" inkscape:connector-curvature="0" style="fill:#50e6ff;stroke:none;stroke-width:34;stroke-linecap:butt" />
				</g>
			</g>
		</g>
	</g>
</svg>