<?xml version="1.0" encoding="UTF-8" standalone="no"?>
<!DOCTYPE svg PUBLIC "-//W3C//DTD SVG 1.1//EN" "http://www.w3.org/Graphics/SVG/1.1/DTD/svg11.dtd">
<!-- Generated by Microsoft Visio, SVG Export Extended Security Updates.svg Page-1 -->
<svg xmlns="http://www.w3.org/2000/svg" xmlns:xlink="http://www.w3.org/1999/xlink" xmlns:ev="http://www.w3.org/2001/xml-events"
		width="1.61374in" height="1.8108in" viewBox="0 0 116.189 130.378" xml:space="preserve" color-interpolation-filters="sRGB"
		class="st8">
	<style type="text/css">
	<![CDATA[
		.st1 {fill:#0078d4;stroke:none;stroke-linecap:butt;stroke-width:34}
		.st2 {fill:url(#grad0-8);stroke:none;stroke-linecap:butt;stroke-width:34}
		.st3 {fill:#ffbd02;stroke:none;stroke-linecap:butt;stroke-width:34}
		.st4 {fill:#ffe452;stroke:none;stroke-linecap:butt;stroke-width:34}
		.st5 {fill:#ffd400;fill-opacity:0.5;stroke:none;stroke-linecap:butt;stroke-width:34}
		.st6 {visibility:visible}
		.st7 {fill:#000000;font-family:Calibri;font-size:0.666664em}
		.st8 {fill:none;fill-rule:evenodd;font-size:12px;overflow:visible;stroke-linecap:square;stroke-miterlimit:3}
	]]>
	</style>

	<defs id="Patterns_And_Gradients">
		<linearGradient id="grad0-8" x1="0" y1="0" x2="1" y2="0" gradientTransform="rotate(-90 0.5 0.5)">
			<stop offset="0" stop-color="#0078d4" stop-opacity="1"/>
			<stop offset="0.06" stop-color="#0a7cd7" stop-opacity="1"/>
			<stop offset="0.34" stop-color="#2e8ce1" stop-opacity="1"/>
			<stop offset="0.59" stop-color="#4897e9" stop-opacity="1"/>
			<stop offset="0.82" stop-color="#589eed" stop-opacity="1"/>
			<stop offset="1" stop-color="#5ea0ef" stop-opacity="1"/>
		</linearGradient>
	</defs>
	<g>
		<title>Page-1</title>
		<g id="group9091-1" transform="translate(34,-39.685)">
			<title>Extended Security Updates.9091</title>
			<desc>Extended Security Updates</desc>
			<g id="group9092-2">
				<title>Extended Security Updates icon</title>
				<g id="shape9093-3">
					<title>Sheet.9093</title>
					<path d="M48.19 100.15 C48.19 115.39 29.06 127.66 24.88 130.16 A1.46337 1.43343 0 0 1 23.31 130.16 C19.13 127.69
								 0 115.42 0 100.15 L0 81.82 A1.4974 1.46677 0 0 1 1.46 80.35 C16.37 79.99 12.93 73.69 24.09 73.69
								 C35.26 73.69 31.82 79.99 46.73 80.35 A1.4974 1.46677 0 0 1 48.19 81.82 L48.19 100.15 Z"
							class="st1"/>
				</g>
				<g id="shape9094-5" transform="translate(1.97384,-2.39058)">
					<title>Sheet.9094</title>
					<path d="M44.24 102.68 C44.24 116.68 26.68 127.91 22.84 130.18 A1.36127 1.33343 0 0 1 21.41 130.18 C17.56 127.91
								 0 116.68 0 102.68 L0 86.01 A1.3953 1.36676 0 0 1 1.36 84.41 C15.04 84.18 11.91 78.44 22.12 78.44
								 C32.33 78.44 29.2 84.18 42.88 84.41 A1.3953 1.36676 0 0 1 44.24 85.74 L44.24 102.68 Z" class="st2"/>
				</g>
				<g id="shape9095-9" transform="translate(13.2724,-18.3569)">
					<title>Sheet.9095</title>
					<path d="M20.52 115.91 L19.16 115.91 L19.16 111.18 A8.91632 8.73395 -180 0 0 16.78 105.14 A8.06553 7.90055 -180
								 0 0 4.93 105.14 A8.88229 8.70061 -180 0 0 2.55 111.18 L2.55 115.91 L1.19 115.91 A1.08902 1.06674
								 -180 0 0 -0 117.04 L0 129.31 A1.08902 1.06674 -180 0 0 1.12 130.38 L20.52 130.38 A1.08902 1.06674
								 -180 0 0 21.64 129.31 L21.64 117.04 A1.08902 1.06674 -180 0 0 20.52 115.91 ZM15.25 115.91 L6.4 115.91
								 L6.4 111.11 A4.86654 4.767 0 0 1 7.79 107.78 A4.04978 3.96694 0 0 1 13.85 107.78 A5.30896 5.20036
								 0 0 1 14.4 108.44 A4.76445 4.66699 0 0 1 15.25 111.08 L15.25 115.91 Z" class="st3"/>
				</g>
				<g id="shape9096-11" transform="translate(13.2724,-18.6902)">
					<title>Sheet.9096</title>
					<path d="M1.12 116.24 L20.52 116.24 A1.08902 1.06674 0 0 1 21.24 116.51 L0.41 130.38 A1.12305 1.10008 0 0 1 0
								 129.58 L0 117.38 A1.08902 1.06674 0 0 1 1.12 116.24 Z" class="st4"/>
				</g>
				<g id="shape9097-13" transform="translate(13.6808,-18.6902)">
					<title>Sheet.9097</title>
					<path d="M20.11 116.24 L0.71 116.24 A1.08902 1.06674 -180 0 0 0 116.51 L20.83 130.38 A1.02095 1.00007 -180 0
								 0 21.24 129.58 L21.24 117.38 A1.08902 1.06674 -180 0 0 20.11 116.24 Z" class="st5"/>
				</g>
			</g>
			<g id="shape9091-15">
				<g id="shadow9091-16" transform="matrix(1,0,0,1,1.41732,1.41732)" class="st6"/>
				<text x="-19.69" y="146.08" class="st7">Extended Security Updates</text>			</g>
		</g>
	</g>
</svg>
