<?xml version="1.0" encoding="UTF-8" standalone="no"?>
<!DOCTYPE svg PUBLIC "-//W3C//DTD SVG 1.1//EN" "http://www.w3.org/Graphics/SVG/1.1/DTD/svg11.dtd">
<!-- Generated by Microsoft Visio, SVG Export Network Security Group.svg Page-1 -->
<svg xmlns="http://www.w3.org/2000/svg" xmlns:xlink="http://www.w3.org/1999/xlink" xmlns:ev="http://www.w3.org/2001/xml-events"
		width="1.57437in" height="1.8108in" viewBox="0 0 113.354 130.378" xml:space="preserve" color-interpolation-filters="sRGB"
		class="st7">
	<style type="text/css">
	<![CDATA[
		.st1 {fill:#0078d4;stroke:none;stroke-linecap:butt;stroke-width:34}
		.st2 {fill:#6bb9f2;stroke:none;stroke-linecap:butt;stroke-width:34}
		.st3 {fill:url(#grad0-10);stroke:none;stroke-linecap:butt;stroke-width:34}
		.st4 {fill:#50e6ff;stroke:none;stroke-linecap:butt;stroke-width:34}
		.st5 {visibility:visible}
		.st6 {fill:#000000;font-family:Calibri;font-size:0.666664em}
		.st7 {fill:none;fill-rule:evenodd;font-size:12px;overflow:visible;stroke-linecap:square;stroke-miterlimit:3}
	]]>
	</style>

	<defs id="Patterns_And_Gradients">
		<linearGradient id="grad0-10" x1="0" y1="0" x2="1" y2="0" gradientTransform="rotate(90 0.5 0.5)">
			<stop offset="0" stop-color="#5ea0ef" stop-opacity="1"/>
			<stop offset="0.18" stop-color="#559cec" stop-opacity="1"/>
			<stop offset="0.47" stop-color="#3c91e5" stop-opacity="1"/>
			<stop offset="0.84" stop-color="#1380da" stop-opacity="1"/>
			<stop offset="1" stop-color="#0078d4" stop-opacity="1"/>
		</linearGradient>
	</defs>
	<g>
		<title>Page-1</title>
		<g id="group9013-1" transform="translate(34,-39.685)">
			<title>Network Security Group.9013</title>
			<desc>Network Security Group</desc>
			<g id="group9014-2">
				<title>Icon-networking-67</title>
				<g id="shape9015-3">
					<title>Sheet.9015</title>
					<path d="M45.35 100.15 C45.35 115.39 27.33 127.68 23.42 130.17 A1.41732 1.44901 0 0 1 21.94 130.17 C18.02 127.68
								 0 115.39 0 100.15 L0 81.81 A1.41732 1.44901 0 0 1 1.39 80.36 C15.41 79.99 12.17 73.69 22.68 73.69
								 C33.18 73.69 29.95 79.99 43.97 80.36 A1.41732 1.44901 0 0 1 45.35 81.81 L45.35 100.15 Z"
							class="st1"/>
				</g>
				<g id="shape9016-5" transform="translate(1.87949,-2.35317)">
					<title>Sheet.9016</title>
					<path d="M41.6 102.66 C41.6 116.64 25.08 127.86 21.48 130.19 A1.32489 1.35451 0 0 1 20.12 130.19 C16.51 127.92
								 0 116.64 0 102.66 L0 85.83 A1.29408 1.32301 0 0 1 1.26 84.51 C14.11 84.17 11.15 78.4 20.8 78.4 C30.44
								 78.4 27.48 84.17 40.33 84.51 A1.29408 1.32301 0 0 1 41.6 85.83 L41.6 102.66 Z" class="st2"/>
				</g>
				<g id="shape9017-7" transform="translate(1.97193,-2.35487)">
					<title>Sheet.9017</title>
					<path d="M20.71 104.39 L20.71 78.4 C30.35 78.4 27.39 84.17 40.24 84.51 A1.32489 1.35451 0 0 1 41.5 85.87 L41.5
								 102.69 A15.0668 15.4037 0 0 1 41.5 104.39 L20.71 104.39 ZM20.71 104.39 L0 104.39 C1.23 117.56 16.58
								 128.02 20.03 130.19 A1.20164 1.22851 -180 0 0 20.58 130.38 L20.71 130.38 L20.71 104.39 Z"
							class="st3"/>
				</g>
				<g id="shape9018-11" transform="translate(1.94894,-2.35487)">
					<title>Sheet.9018</title>
					<path d="M1.19 84.51 C14.04 84.17 11.08 78.4 20.73 78.4 L20.73 104.39 L0.02 104.39 A15.0668 15.4037 0 0 1 0.02
								 102.69 L0.02 85.87 A1.32489 1.35451 0 0 1 1.19 84.51 ZM41.43 104.39 L20.73 104.39 L20.73 130.38
								 A1.20164 1.22851 -180 0 0 21.28 130.19 C24.86 128.02 40.2 117.56 41.43 104.39 Z" class="st4"/>
				</g>
			</g>
			<g id="shape9013-13">
				<g id="shadow9013-14" transform="matrix(1,0,0,1,1.41732,1.41732)" class="st5"/>
				<text x="-16.54" y="146.08" class="st6">Network Security Group</text>			</g>
		</g>
	</g>
</svg>
