<?xml version="1.0" encoding="UTF-8" standalone="no"?>
<!DOCTYPE svg PUBLIC "-//W3C//DTD SVG 1.1//EN" "http://www.w3.org/Graphics/SVG/1.1/DTD/svg11.dtd">
<!-- Generated by Microsoft Visio, SVG Export Security Center Coverage.svg Page-1 -->
<svg xmlns="http://www.w3.org/2000/svg" xmlns:xlink="http://www.w3.org/1999/xlink" xmlns:ev="http://www.w3.org/2001/xml-events"
		width="1.60454in" height="1.65209in" viewBox="0 0 115.527 118.951" xml:space="preserve" color-interpolation-filters="sRGB"
		class="st8">
	<style type="text/css">
	<![CDATA[
		.st1 {fill:none;stroke:none;stroke-linecap:butt;stroke-width:32.2105}
		.st2 {fill:url(#grad0-8);stroke:none;stroke-linecap:butt;stroke-width:32.2105}
		.st3 {fill:url(#grad0-12);stroke:none;stroke-linecap:butt;stroke-width:32.2105}
		.st4 {fill:#0078d4;stroke:none;stroke-linecap:butt;stroke-width:32.2105}
		.st5 {fill:#3c3b41;stroke:none;stroke-linecap:butt;stroke-width:32.2105}
		.st6 {visibility:visible}
		.st7 {fill:#000000;font-family:Calibri;font-size:0.666664em}
		.st8 {fill:none;fill-rule:evenodd;font-size:12px;overflow:visible;stroke-linecap:square;stroke-miterlimit:3}
	]]>
	</style>

	<defs id="Patterns_And_Gradients">
		<linearGradient id="grad0-8" x1="0" y1="0" x2="1" y2="0" gradientTransform="rotate(0 0.5 0.5)">
			<stop offset="0" stop-color="#dfa500" stop-opacity="1"/>
			<stop offset="0.28" stop-color="#efb700" stop-opacity="1"/>
			<stop offset="0.51" stop-color="#ffca00" stop-opacity="1"/>
			<stop offset="1" stop-color="#e1a800" stop-opacity="1"/>
		</linearGradient>
		<linearGradient id="grad0-12" x1="0" y1="0" x2="1" y2="0" gradientTransform="rotate(90 0.5 0.5)">
			<stop offset="0.045" stop-color="#e2e3e4" stop-opacity="1"/>
			<stop offset="1" stop-color="#aaaaaa" stop-opacity="1"/>
		</linearGradient>
	</defs>
	<g>
		<title>Page-1</title>
		<g id="group8979-1" transform="translate(26.6232,-35.7165)">
			<title>Security Center Coverage.8979</title>
			<desc>Security Center Coverage</desc>
			<g id="group8980-2">
				<title>Sheet.8980</title>
				<g id="shape8981-3" transform="translate(5.66164,1.42109E-14)">
					<title>Sheet.8981</title>
					<path d="M0 67.93 L51.03 67.93 L51.03 118.95 L0 118.95 L0 67.93 Z" class="st1"/>
				</g>
				<g id="shape8982-5" transform="translate(2.79776E-13,-20.2821)">
					<title>Sheet.8982</title>
					<path d="M11.63 99.85 A2.69048 2.69008 0 0 1 14.81 99.92 L24.29 106.99 A2.83507 2.83465 0 0 1 24.25 111.56 L14.73
								 118.44 A2.55156 2.55118 0 0 1 11.73 118.49 C8.09 115.82 0 108.23 11.63 99.85 Z" class="st2"/>
				</g>
				<g id="shape8983-9" transform="translate(26.695,-3.40157)">
					<title>Sheet.8983</title>
					<path d="M28.27 118.61 L24.14 79.83 L4.14 79.83 L0 118.95 L28.27 118.95 L28.27 118.61 Z" class="st3"/>
				</g>
				<g id="shape8984-13" transform="translate(28.517,-38.778)">
					<title>Sheet.8984</title>
					<path d="M18.87 111.81 L16.11 109.77 L15.79 109.51 A5.67014 5.66929 -180 0 0 8.78 109.42 L0.62 115.68 A1.82295
								 1.82268 -180 0 0 1.72 118.95 L22.55 118.95 A1.83996 1.83969 -180 0 0 23.7 115.68 L18.87 111.81 Z"
							class="st4"/>
				</g>
				<g id="shape8985-15" transform="translate(37.3776,-26.1921)">
					<title>Sheet.8985</title>
					<path d="M7.25 114.53 A3.80183 3.80126 -180 0 0 3.46 110.79 A3.51549 3.51496 -180 0 0 -0 114.53 L0 118.95 L7.24
								 118.95 L7.25 114.53 Z" class="st5"/>
				</g>
				<g id="shape8986-17" transform="translate(24.9713,1.42109E-14)">
					<title>Sheet.8986</title>
					<path d="M8.28 111.81 L3.57 111.81 A3.57219 3.57165 -180 1 0 3.57 118.95 L28.15 118.95 A3.57219 3.57165 -180
								 1 0 28.15 111.81 L8.28 111.81 Z" class="st4"/>
				</g>
			</g>
			<g id="shape8979-19">
				<g id="shadow8979-20" transform="matrix(1,0,0,1,1.41732,1.41732)" class="st6"/>
				<text x="-12.72" y="133.8" class="st7">Security Center Coverage</text>			</g>
		</g>
	</g>
</svg>
