<?xml version="1.0" encoding="UTF-8" standalone="no"?>
<!DOCTYPE svg PUBLIC "-//W3C//DTD SVG 1.1//EN" "http://www.w3.org/Graphics/SVG/1.1/DTD/svg11.dtd">
<!-- Generated by Microsoft Visio, SVG Export Secure Score.svg Page-1 -->
<svg xmlns="http://www.w3.org/2000/svg" xmlns:xlink="http://www.w3.org/1999/xlink" xmlns:ev="http://www.w3.org/2001/xml-events"
		width="1.52466in" height="1.78595in" viewBox="0 0 109.775 128.588" xml:space="preserve" color-interpolation-filters="sRGB"
		class="st6">
	<style type="text/css">
	<![CDATA[
		.st1 {fill:#1b93eb;stroke:none;stroke-linecap:butt;stroke-width:32.2105}
		.st2 {fill:url(#grad0-8);stroke:none;stroke-linecap:butt;stroke-width:32.2105}
		.st3 {fill:#ffffff;stroke:none;stroke-linecap:butt;stroke-width:32.2105}
		.st4 {visibility:visible}
		.st5 {fill:#000000;font-family:Calibri;font-size:0.666664em}
		.st6 {fill:none;fill-rule:evenodd;font-size:12px;overflow:visible;stroke-linecap:square;stroke-miterlimit:3}
	]]>
	</style>

	<defs id="Patterns_And_Gradients">
		<linearGradient id="grad0-8" x1="0" y1="0" x2="1" y2="0" gradientTransform="rotate(-90 0.5 0.5)">
			<stop offset="0" stop-color="#1b93eb" stop-opacity="1"/>
			<stop offset="0.21" stop-color="#2095eb" stop-opacity="1"/>
			<stop offset="0.44" stop-color="#2e9ced" stop-opacity="1"/>
			<stop offset="0.69" stop-color="#45a7ef" stop-opacity="1"/>
			<stop offset="0.95" stop-color="#64b6f1" stop-opacity="1"/>
			<stop offset="1" stop-color="#6bb9f2" stop-opacity="1"/>
		</linearGradient>
	</defs>
	<g>
		<title>Page-1</title>
		<g id="group9004-1" transform="translate(32.2105,-39.685)">
			<title>Secure Score.9004</title>
			<desc>Secure Score</desc>
			<g id="group9005-2">
				<title>Sheet.9005</title>
				<g id="shape9006-3">
					<title>Sheet.9006</title>
					<path d="M45.35 98.28 C45.35 113.64 27.53 125.67 23.65 128.34 A1.47743 1.52352 0 0 1 22.03 128.34 C18.14 126
								 0 113.66 0 98.28 L0 79.91 A1.3969 1.44047 0 0 1 1.3 78.57 C15.55 78.24 12.31 71.9 22.67 71.9 C33.04
								 71.9 29.8 78.24 43.73 78.57 A1.48363 1.5299 0 0 1 45.35 79.91 L45.35 98.28 Z" class="st1"/>
				</g>
				<g id="shape9007-5" transform="translate(1.94513,-2.33819)">
					<title>Sheet.9007</title>
					<path d="M41.45 100.95 C41.45 114.98 24.94 126.33 21.37 128.34 a0.988051 1.01887 0 0 1 -1.29469 0 C16.52 126
								 0 114.98 0 100.95 L0 84.25 A1.78097 1.83652 0 0 1 0.97 82.58 C13.6 82.25 10.69 76.57 20.42 76.57
								 C30.15 76.57 27.23 82.58 39.85 82.58 A1.3938 1.43728 0 0 1 41.15 83.92 L41.45 100.95 Z"
							class="st2"/>
				</g>
				<g id="shape9008-9" transform="translate(11.5162,-20.1126)">
					<title>Sheet.9008</title>
					<path d="M10.29 107.19 a0.969467 0.999708 0 0 1 1.7407 0 L14.74 112.85 a0.972564 1.0029 -180 0 0 0.730972 0.54936
								 L21.53 114.31 a0.972564 1.0029 0 0 1 0.538937 1.70877 L17.68 120.42 a0.96637 0.996514 -180 0 0 -0.27876
								 0.887919 L18.44 127.53 a0.969467 0.999708 0 0 1 -1.40929 1.05401 L11.61 125.65 a0.972564 1.0029
								 -180 0 0 -0.904423 -1.42109E-14 L5.28 128.59 a0.969467 0.999708 0 0 1 -1.40929 -1.05401 L4.91 121.31
								 a0.96637 0.996514 -180 0 0 -0.27876 -0.887919 L0.24 116.01 a0.972564 1.0029 0 0 1 0.538937 -1.70877
								 L6.84 113.4 a0.972564 1.0029 -180 0 0 0.730972 -0.54936 L10.29 107.19 Z" class="st3"/>
				</g>
			</g>
			<g id="shape9004-11">
				<g id="shadow9004-12" transform="matrix(1,0,0,1,1.41732,1.41732)" class="st4"/>
				<text x="1.74" y="144.29" class="st5">Secure Score</text>			</g>
		</g>
	</g>
</svg>
