<?xml version="1.0" encoding="UTF-8" standalone="no"?>
<!DOCTYPE svg PUBLIC "-//W3C//DTD SVG 1.1//EN" "http://www.w3.org/Graphics/SVG/1.1/DTD/svg11.dtd">
<!-- Generated by Microsoft Visio, SVG Export Sentinel.svg Page-1 -->
<svg xmlns="http://www.w3.org/2000/svg" xmlns:xlink="http://www.w3.org/1999/xlink" xmlns:ev="http://www.w3.org/2001/xml-events"
		width="1.27643in" height="1.64215in" viewBox="0 0 91.9033 118.235" xml:space="preserve" color-interpolation-filters="sRGB"
		class="st6">
	<style type="text/css">
	<![CDATA[
		.st1 {fill:#0072c6;stroke:none;stroke-linecap:butt;stroke-width:21.8571}
		.st2 {fill:#ffffff;fill-opacity:0.15;stroke:none;stroke-linecap:butt;stroke-width:21.8571}
		.st3 {fill:#ffffff;stroke:none;stroke-linecap:butt;stroke-width:21.8571}
		.st4 {visibility:visible}
		.st5 {fill:#000000;font-family:Calibri;font-size:0.666664em}
		.st6 {fill:none;fill-rule:evenodd;font-size:12px;overflow:visible;stroke-linecap:square;stroke-miterlimit:3}
	]]>
	</style>

	<g>
		<title>Page-1</title>
		<g id="group8966-1" transform="translate(21.8571,-39.685)">
			<title>Sentinel.8966</title>
			<desc>Sentinel</desc>
			<g id="group8967-2">
				<title>Sheet.8967</title>
				<g id="shape8968-3">
					<title>Sheet.8968</title>
					<path d="M23.05 117.54 C17.64 114.11 0 101.72 0 87.26 L0 68.76 L1.89 68.62 C9.43 68.13 12.36 66.12 14.94 64.34
								 C17.14 62.85 19.04 61.54 24.1 61.54 C29.16 61.54 31.14 62.9 33.23 64.35 C35.82 66.12 38.76 68.16
								 46.3 68.64 L48.19 68.76 L48.19 87.26 C48.19 101.72 30.54 114.11 25.13 117.56 L24.08 118.24 L23.05
								 117.54 Z" class="st1"/>
				</g>
				<g id="shape8969-5" transform="translate(1.14498,-6.40276)">
					<title>Sheet.8969</title>
					<path d="M15.91 118.23 L31.72 71.9 L31.47 71.73 C29.43 70.34 27.67 69.12 22.96 69.12 C18.25 69.12 16.56 70.3
								 14.44 71.75 C11.73 73.61 8.67 75.72 0.81 76.2 L0 76.27 L0 93.66 C0 103.63 8.94 112.69 15.91 118.24
								 L15.91 118.23 Z" class="st2"/>
				</g>
				<g id="shape8970-7" transform="translate(5.77999,-28.3518)">
					<title>Sheet.8970</title>
					<path d="M18.32 106.43 L18.33 106.43 A12.6051 12.9703 0 0 1 30.88 118.18 L30.89 118.24 L36.62 118.24 C36.08 108.26
								 28.09 100.37 18.31 100.37 C8.52 100.37 0.53 108.26 0 118.19 L0 118.24 L5.73 118.24 C6.33 111.59
								 11.72 106.43 18.28 106.43 L18.32 106.43 L18.32 106.43 L18.32 106.43 Z" class="st3"/>
				</g>
				<g id="shape8971-9" transform="translate(17.3314,-20.1986)">
					<title>Sheet.8971</title>
					<path d="M13.54 111.27 A6.77173 6.96791 0 1 1 0 111.27 A6.77173 6.96791 0 1 1 13.54 111.27 Z" class="st3"/>
				</g>
			</g>
			<g id="shape8966-11">
				<g id="shadow8966-12" transform="matrix(1,0,0,1,1.41732,1.41732)" class="st4"/>
				<text x="10.9" y="133.94" class="st5">Sentinel</text>			</g>
		</g>
	</g>
</svg>
