<?xml version="1.0" encoding="UTF-8" standalone="no"?>
<!DOCTYPE svg PUBLIC "-//W3C//DTD SVG 1.1//EN" "http://www.w3.org/Graphics/SVG/1.1/DTD/svg11.dtd">
<!-- Generated by Microsoft Visio, SVG Export WAF policy.svg Page-1 -->
<svg xmlns="http://www.w3.org/2000/svg" xmlns:xlink="http://www.w3.org/1999/xlink" xmlns:ev="http://www.w3.org/2001/xml-events"
		width="1.74371in" height="1.83527in" viewBox="0 0 125.547 132.139" xml:space="preserve" color-interpolation-filters="sRGB"
		class="st11">
	<style type="text/css">
	<![CDATA[
		.st1 {fill:url(#grad7-6);stroke:none;stroke-linecap:butt;stroke-width:34}
		.st2 {fill:#83b9f9;stroke:none;stroke-linecap:butt;stroke-width:34}
		.st3 {fill:url(#grad0-12);stroke:none;stroke-linecap:butt;stroke-width:34}
		.st4 {fill:none;stroke:none;stroke-linecap:butt;stroke-width:34}
		.st5 {fill:#f2f2f2;stroke:none;stroke-linecap:butt;stroke-width:34}
		.st6 {fill:#821010;stroke:none;stroke-linecap:butt;stroke-width:34}
		.st7 {fill:#e62323;stroke:none;stroke-linecap:butt;stroke-width:34}
		.st8 {fill:#ff7381;stroke:none;stroke-linecap:butt;stroke-width:34}
		.st9 {visibility:visible}
		.st10 {fill:#000000;font-family:Calibri;font-size:0.666664em}
		.st11 {fill:none;fill-rule:evenodd;font-size:12px;overflow:visible;stroke-linecap:square;stroke-miterlimit:3}
	]]>
	</style>

	<defs id="Patterns_And_Gradients">
		<radialGradient id="grad7-6" cx="0" cy="0" r="1.4">
			<stop offset="0.185" stop-color="#5ea0ef" stop-opacity="1"/>
			<stop offset="1" stop-color="#0078d4" stop-opacity="1"/>
		</radialGradient>
		<linearGradient id="grad0-12" x1="0" y1="0" x2="1" y2="0" gradientTransform="rotate(-90.44863169121 0.5 0.5)">
			<stop offset="0" stop-color="#cccccc" stop-opacity="1"/>
			<stop offset="0.125" stop-color="#d7d7d7" stop-opacity="1"/>
			<stop offset="0.42" stop-color="#ebebeb" stop-opacity="1"/>
			<stop offset="0.715" stop-color="#f8f8f8" stop-opacity="1"/>
			<stop offset="1" stop-color="#fcfcfc" stop-opacity="1"/>
		</linearGradient>
	</defs>
	<g>
		<title>Page-1</title>
		<g id="group8941-1" transform="translate(37.6888,-39.685)">
			<title>WAF policy.8941</title>
			<desc>WAF policy</desc>
			<g id="group8942-2">
				<title>Icon-362Artboard 1</title>
				<g id="shape8943-3" transform="translate(2.22562,-7.67022)">
					<title>Sheet.8943</title>
					<path d="M38.9 132.14 A27.7843 28.3865 0 0 1 4.63 87.45 L4.96 87.12 A27.8137 28.4165 0 0 1 38.9 132.14 Z"
							class="st1"/>
				</g>
				<g id="shape8944-7" transform="translate(0,-10.6716)">
					<title>Sheet.8944</title>
					<path d="M2.61 118.47 A84.2931 86.1199 -180 0 0 0 127.14 L1.96 130.14 L3.92 132.14 A46.5107 47.5187 0 0 1 7.51
								 120.47 A8.255 8.4339 0 0 1 2.61 118.47 ZM5.88 103.13 A44.5718 45.5377 0 0 1 3.59 93.45 A24.6475
								 25.1817 -180 0 0 0 98.12 A34.4301 35.1763 -180 0 0 1.96 106.13 A8.9111 9.10421 0 0 1 5.88 103.13
								 Z" class="st2"/>
				</g>
				<g id="shape8945-9" transform="translate(-2.65787E-13,-22.0102)">
					<title>Sheet.8945</title>
					<ellipse cx="8.81317" cy="123.135" rx="8.81317" ry="9.00417" class="st3"/>
				</g>
				<g id="shape8946-13" transform="translate(10.4452,-9.63074)">
					<title>Sheet.8946</title>
					<path d="M11.42 127.43 A6.87427 7.02325 0 0 1 13.06 123.09 A30.0301 30.6809 0 0 1 4.9 116.76 A8.97964 9.17425
								 0 0 1 0 119.43 A62.6714 64.0296 -180 0 0 4.9 124.1 A26.6843 27.2626 -180 0 0 11.42 128.1 L11.42
								 127.43 ZM31.99 128.1 A43.5077 44.4506 0 0 1 22.85 127.1 L22.85 127.43 A5.40541 5.52256 0 0 1 21.22
								 131.43 A42.3261 43.2434 -180 0 0 32.31 132.1 C33.62 130.76 34.93 129.1 36.23 127.76 A17.2444 17.6182
								 0 0 1 31.99 128.1 Z" class="st2"/>
				</g>
				<g id="shape8947-15" transform="translate(21.8697,-8.33719)">
					<title>Sheet.8947</title>
					<ellipse cx="5.87545" cy="126.136" rx="5.87545" ry="6.00278" class="st4"/>
				</g>
				<g id="shape8948-17" transform="translate(12.0773,-30.3474)">
					<title>Sheet.8948</title>
					<path d="M14.04 119.47 A43.9614 44.9141 0 0 1 33.29 114.8 A21.9676 22.4437 -180 0 0 28.4 110.13 A50.0555 51.1403
								 -180 0 0 13.06 113.8 A30.1933 30.8476 -180 0 0 9.79 115.46 A61.1144 62.4389 0 0 1 3.26 105.79 A6.20186
								 6.33627 -180 0 0 0.33 106.79 A68.9484 70.4426 -180 0 0 7.18 117.13 A32.1224 32.8185 -180 0 0 -0
								 122.8 A9.30279 9.5044 0 0 1 4.24 126.47 A29.2499 29.8838 0 0 1 10.45 121.47 A72.9959 74.5779 -180
								 0 0 22.52 132.14 A6.77309 6.91987 0 0 1 24.48 128.8 A91.0433 93.0164 0 0 1 14.04 119.47 Z"
							class="st2"/>
				</g>
				<g id="shape8949-19" transform="translate(34.5999,-22.6772)">
					<title>Sheet.8949</title>
					<ellipse cx="6.20186" cy="125.803" rx="6.20186" ry="6.33627" class="st5"/>
				</g>
				<g id="shape8950-21" transform="translate(44.7187,-21.3432)">
					<title>Sheet.8950</title>
					<path d="M6.53 128.8 C6.2 128.47 5.88 128.47 5.55 128.14 C5.22 127.8 4.9 127.8 4.57 127.47 L4.24 127.47 L3.26
								 126.8 L2.94 126.8 L1.96 126.14 A4.75258 4.85558 0 0 1 0 129.14 C0.33 129.47 0.65 129.47 1.31 129.8
								 L1.63 129.8 C1.96 130.14 2.28 130.14 2.61 130.47 C3.59 131.14 4.57 131.47 5.55 132.14 C5.88 131.14
								 6.2 129.8 6.53 128.8 Z" class="st2"/>
				</g>
				<g id="shape8951-23" transform="translate(-2.65787E-13,-22.0102)">
					<title>Sheet.8951</title>
					<ellipse cx="8.81317" cy="123.135" rx="8.81317" ry="9.00417" class="st5"/>
				</g>
				<g id="shape8952-25" transform="translate(21.8697,-8.33719)">
					<title>Sheet.8952</title>
					<ellipse cx="5.87545" cy="126.136" rx="5.87545" ry="6.00278" class="st5"/>
				</g>
				<g id="shape8953-27" transform="translate(11.4245,0)">
					<title>Sheet.8953</title>
					<path d="M1.31 107.79 L40.8 107.79 C41.45 107.79 42.43 108.46 42.43 109.13 L42.43 130.47 A1.74958 1.78749 0 0
								 1 40.8 132.14 L1.31 132.14 A1.49497 1.52737 0 0 1 0 130.47 L0 109.46 A1.49497 1.52737 0 0 1 1.31
								 107.79 Z" class="st6"/>
				</g>
				<g id="shape8954-29" transform="translate(13.0565,-16.3409)">
					<title>Sheet.8954</title>
					<rect x="0" y="126.803" width="11.7509" height="5.3358" class="st7"/>
				</g>
				<g id="shape8955-31" transform="translate(26.7659,-16.3409)">
					<title>Sheet.8955</title>
					<rect x="0" y="126.803" width="11.7509" height="5.3358" class="st8"/>
				</g>
				<g id="shape8956-33" transform="translate(13.0565,-9.33766)">
					<title>Sheet.8956</title>
					<path d="M27.09 119.8 L38.84 119.8 L38.84 125.14 L27.09 125.14 L27.09 119.8 ZM0 126.8 L4.9 126.8 L4.9 132.14
								 L0 132.14 L0 126.8 Z" class="st7"/>
				</g>
				<g id="shape8957-35" transform="translate(19.9112,-9.33766)">
					<title>Sheet.8957</title>
					<path d="M27.09 126.8 L31.99 126.8 L31.99 132.14 L27.09 132.14 L27.09 126.8 ZM0 126.8 L11.75 126.8 L11.75 132.14
								 L0 132.14 L0 126.8 Z" class="st8"/>
				</g>
				<g id="shape8958-37" transform="translate(13.0565,-2.33441)">
					<title>Sheet.8958</title>
					<path d="M20.24 119.8 L31.99 119.8 L31.99 125.14 L20.24 125.14 L20.24 119.8 ZM0 126.8 L11.75 126.8 L11.75 132.14
								 L0 132.14 L0 126.8 Z" class="st7"/>
				</g>
				<g id="shape8959-39" transform="translate(26.7659,-2.33441)">
					<title>Sheet.8959</title>
					<rect x="0" y="126.803" width="11.7509" height="5.3358" class="st8"/>
				</g>
				<g id="shape8960-41" transform="translate(40.1489,-2.33441)">
					<title>Sheet.8960</title>
					<rect x="0" y="126.803" width="11.7509" height="5.3358" class="st7"/>
				</g>
			</g>
			<g id="shape8941-43">
				<g id="shadow8941-44" transform="matrix(1,0,0,1,1.41732,1.41732)" class="st9"/>
				<text x="8.77" y="147.84" class="st10">WAF policy</text>			</g>
		</g>
	</g>
</svg>
