<?xml version="1.0" encoding="UTF-8" standalone="no"?>
<!DOCTYPE svg PUBLIC "-//W3C//DTD SVG 1.1//EN" "http://www.w3.org/Graphics/SVG/1.1/DTD/svg11.dtd">
<!-- Generated by Microsoft Visio, SVG Export User Setting.svg Page-1 -->
<svg xmlns="http://www.w3.org/2000/svg" xmlns:xlink="http://www.w3.org/1999/xlink" xmlns:ev="http://www.w3.org/2001/xml-events"
		width="1.73213in" height="1.61395in" viewBox="0 0 124.713 116.205" xml:space="preserve" color-interpolation-filters="sRGB"
		class="st5">
	<style type="text/css">
	<![CDATA[
		.st1 {fill:#0078d4;stroke:none;stroke-linecap:butt;stroke-width:34}
		.st2 {fill:url(#grad0-8);stroke:none;stroke-linecap:butt;stroke-width:34}
		.st3 {fill:#ffffff;fill-opacity:0.8;stroke:none;stroke-linecap:butt;stroke-width:34}
		.st4 {fill:url(#grad0-14);stroke:none;stroke-linecap:butt;stroke-width:34}
		.st5 {fill:none;fill-rule:evenodd;font-size:12px;overflow:visible;stroke-linecap:square;stroke-miterlimit:3}
	]]>
	</style>

	<defs id="Patterns_And_Gradients">
		<linearGradient id="grad0-8" x1="0" y1="0" x2="1" y2="0" gradientTransform="rotate(90 0.5 0.5)">
			<stop offset="0.225" stop-color="#32d4f5" stop-opacity="1"/>
			<stop offset="0.475" stop-color="#31d1f3" stop-opacity="1"/>
			<stop offset="0.89" stop-color="#22a5cb" stop-opacity="1"/>
			<stop offset="1" stop-color="#198ab3" stop-opacity="1"/>
			<stop offset="1" stop-color="#198ab3" stop-opacity="1"/>
		</linearGradient>
		<linearGradient id="grad0-14" x1="0" y1="0" x2="1" y2="0" gradientTransform="rotate(85.400860112072 0.5 0.5)">
			<stop offset="0.225" stop-color="#32d4f5" stop-opacity="1"/>
			<stop offset="0.475" stop-color="#31d1f3" stop-opacity="1"/>
			<stop offset="0.89" stop-color="#22a5cb" stop-opacity="1"/>
			<stop offset="1" stop-color="#198ab3" stop-opacity="1"/>
			<stop offset="1" stop-color="#198ab3" stop-opacity="1"/>
		</linearGradient>
	</defs>
	<g>
		<title>Page-1</title>
		<g id="group10339-1" transform="translate(34.0204,-34.0157)">
			<title>User Setting.10339</title>
			<g id="group10340-2">
				<title>g10</title>
				<g id="shape10341-3" transform="translate(17.573,-5.73831)">
					<title>path2</title>
					<path d="M39.12 98.49 L39.12 93.96 L38.49 93.73 L33.72 92.12 L32.45 89.03 L34.88 83.79 L31.75 80.61 L31.12 80.93
								 L26.65 83.23 L23.6 81.95 L21.65 76.47 L17.21 76.47 L16.98 77.11 L15.4 81.96 L12.35 83.24 L7.29 80.78
								 L4.16 83.96 L4.47 84.6 L6.74 89.13 L5.48 92.22 L0 94.21 L0 98.73 L0.63 98.96 L5.4 100.57 L6.67 103.66
								 L4.22 108.89 L7.35 112.07 L7.98 111.75 L12.44 109.44 L15.49 110.73 L17.45 116.2 L21.91 116.2 L22.15
								 115.56 L23.71 110.72 L26.76 109.44 L31.93 111.9 L35.06 108.72 L34.74 108.08 L32.47 103.55 L33.74
								 100.46 L39.12 98.49 ZM19.56 105.06 A8.58591 8.71325 0 1 1 28.14 96.35 A8.57643 8.70364 0 0 1 19.56
								 105.06 Z" class="st1"/>
				</g>
				<g id="shape10342-5">
					<title>path4</title>
					<path d="M39.26 116.2 A3.83807 3.895 -180 0 0 43.11 112.33 A4.46354 4.52974 -180 0 0 43.08 111.86 C41.57 99.62
								 34.7 89.66 21.58 89.66 C8.23 89.66 1.34 98.1 0 111.89 A3.85387 3.91103 -180 0 0 3.44 116.18 A3.15891
								 3.20576 -180 0 0 3.83 116.2 L39.26 116.2 Z" class="st2"/>
				</g>
				<g id="shape10343-9" transform="translate(15.2354,-8.41191)">
					<title>path6</title>
					<path d="M6.55 100.97 A12.0291 12.2075 0 0 1 -0 99.02 L6.48 116.2 L12.92 99.13 A12.0354 12.2139 0 0 1 6.55 100.97
								 Z" class="st3"/>
				</g>
				<g id="shape10344-11" transform="translate(9.59992,-23.6393)">
					<title>circle8</title>
					<ellipse cx="12.0955" cy="103.93" rx="12.0955" ry="12.2749" class="st4"/>
				</g>
			</g>
		</g>
	</g>
</svg>
