<?xml version="1.0" encoding="UTF-8" standalone="no"?>
<!DOCTYPE svg PUBLIC "-//W3C//DTD SVG 1.1//EN" "http://www.w3.org/Graphics/SVG/1.1/DTD/svg11.dtd">
<!-- Generated by Microsoft Visio, SVG Export IoT Edge Device.svg Page-1 -->
<svg xmlns="http://www.w3.org/2000/svg" xmlns:xlink="http://www.w3.org/1999/xlink" xmlns:ev="http://www.w3.org/2001/xml-events"
		width="1.75424in" height="1.75561in" viewBox="0 0 126.305 126.404" xml:space="preserve" color-interpolation-filters="sRGB"
		class="st6">
	<style type="text/css">
	<![CDATA[
		.st1 {fill:url(#grad0-6);stroke:none;stroke-linecap:butt;stroke-width:34}
		.st2 {fill:#e6e6e6;stroke:none;stroke-linecap:butt;stroke-width:34}
		.st3 {fill:#50e6ff;stroke:none;stroke-linecap:butt;stroke-width:34}
		.st4 {visibility:visible}
		.st5 {fill:#000000;font-family:Calibri;font-size:0.666664em}
		.st6 {fill:none;fill-rule:evenodd;font-size:12px;overflow:visible;stroke-linecap:square;stroke-miterlimit:3}
	]]>
	</style>

	<defs id="Patterns_And_Gradients">
		<linearGradient id="grad0-6" x1="0" y1="0" x2="1" y2="0" gradientTransform="rotate(90 0.5 0.5)">
			<stop offset="0" stop-color="#5ea0ef" stop-opacity="1"/>
			<stop offset="0.815" stop-color="#0078d4" stop-opacity="1"/>
		</linearGradient>
	</defs>
	<g>
		<title>Page-1</title>
		<g id="group7355-1" transform="translate(35.6122,-37.7008)">
			<title>IoT Edge Device.7355</title>
			<desc>IoT Edge Device</desc>
			<g id="group7356-2">
				<title>Sheet.7356</title>
				<g id="shape7357-3" transform="translate(3.90195,-1.50739)">
					<title>Sheet.7357</title>
					<ellipse cx="25.6475" cy="100.56" rx="25.6475" ry="25.8443" class="st1"/>
				</g>
				<g id="shape7358-7" transform="translate(10.3562,0)">
					<title>Sheet.7358</title>
					<path d="M19.19 126.4 A27.1434 27.3517 0 1 1 46.34 99.05 A27.1726 27.381 0 0 1 19.19 126.4 ZM19.19 74.72 A24.1516
								 24.3369 -180 1 0 43.34 99.05 A24.1743 24.3597 -180 0 0 19.19 74.72 Z" class="st2"/>
				</g>
				<g id="shape7359-9" transform="translate(-2.71783E-13,-3.10914)">
					<title>Sheet.7359</title>
					<path d="M46.78 104.51 A7.74185 7.80124 -180 0 0 40.06 97.01 A9.75908 9.83394 -180 0 0 30.02 87.6 A10.0116 10.0884
								 -180 0 0 20.43 94.18 A9.23453 9.30537 -180 0 0 12.33 103.14 A9.38995 9.46198 -180 0 0 22.05 112.22
								 C22.34 112.22 22.62 112.22 22.9 112.18 L38.62 112.18 A1.4603 1.4715 -180 0 0 39.03 112.12 A7.82928
								 7.88934 -180 0 0 46.78 104.51 ZM9.4 102.16 A5.50446 5.54668 0 1 1 3.89 96.61 A5.50446 5.54668 0
								 0 1 9.4 102.16 ZM44.78 75.65 A5.50446 5.54668 -180 1 0 50.28 81.2 A5.50446 5.54668 -180 0 0 44.78
								 75.65 ZM44.78 116.94 A5.50446 5.54668 -180 1 0 50.28 122.48 A5.50446 5.54668 -180 0 0 44.78 116.94
								 Z" class="st3"/>
				</g>
			</g>
			<g id="shape7355-11">
				<g id="shadow7355-12" transform="matrix(1,0,0,1,1.41732,1.41732)" class="st4"/>
				<text x="2.69" y="141.68" class="st5">IoT Edge Device</text>			</g>
		</g>
	</g>
</svg>
