<?xml version="1.0" encoding="UTF-8" standalone="no"?>
<!DOCTYPE svg PUBLIC "-//W3C//DTD SVG 1.1//EN" "http://www.w3.org/Graphics/SVG/1.1/DTD/svg11.dtd">
<!-- Generated by Microsoft Visio, SVG Export IoT Windows 10 Core.svg Page-1 -->
<svg xmlns="http://www.w3.org/2000/svg" xmlns:xlink="http://www.w3.org/1999/xlink" xmlns:ev="http://www.w3.org/2001/xml-events"
		width="1.71072in" height="1.80018in" viewBox="0 0 123.172 129.613" xml:space="preserve" color-interpolation-filters="sRGB"
		class="st8">
	<style type="text/css">
	<![CDATA[
		.st1 {fill:url(#grad0-6);stroke:none;stroke-linecap:butt;stroke-width:33.2348}
		.st2 {fill:#32bedd;stroke:none;stroke-linecap:butt;stroke-width:33.2348}
		.st3 {fill:#50e6ff;stroke:none;stroke-linecap:butt;stroke-width:33.2348}
		.st4 {fill:#f2f2f2;stroke:none;stroke-linecap:butt;stroke-width:33.2348}
		.st5 {fill:#86d633;stroke:none;stroke-linecap:butt;stroke-width:33.2348}
		.st6 {visibility:visible}
		.st7 {fill:#000000;font-family:Calibri;font-size:0.666664em}
		.st8 {fill:none;fill-rule:evenodd;font-size:12px;overflow:visible;stroke-linecap:square;stroke-miterlimit:3}
	]]>
	</style>

	<defs id="Patterns_And_Gradients">
		<linearGradient id="grad0-6" x1="0" y1="0" x2="1" y2="0" gradientTransform="rotate(-90 0.5 0.5)">
			<stop offset="0" stop-color="#0078d4" stop-opacity="1"/>
			<stop offset="0.06" stop-color="#0a7cd7" stop-opacity="1"/>
			<stop offset="0.34" stop-color="#2e8ce1" stop-opacity="1"/>
			<stop offset="0.59" stop-color="#4897e9" stop-opacity="1"/>
			<stop offset="0.82" stop-color="#589eed" stop-opacity="1"/>
			<stop offset="1" stop-color="#5ea0ef" stop-opacity="1"/>
		</linearGradient>
	</defs>
	<g>
		<title>Page-1</title>
		<g id="group7300-1" transform="translate(33.2348,-39.685)">
			<title>IoT Windows 10 Core.7300</title>
			<desc>IoT Windows 10 Core</desc>
			<g id="group7301-2">
				<title>layer1</title>
				<g id="shape7302-3">
					<title>path17</title>
					<path d="M48.79 83.96 L44.26 79.5 L43.8 79.5 L37.7 82.83 L33.33 80.87 L30.58 72.92 L24.25 72.99 L23.95 73.88
								 L21.79 80.8 L17.42 82.7 L10.01 79.37 L5.61 83.86 L6.07 84.76 L9.35 91.17 L7.61 95.6 L0 98.49 L0
								 104.97 L0.89 105.27 L7.71 107.4 L9.58 111.82 L6.3 119.37 L10.86 123.86 L11.68 123.39 L18.01 120.07
								 L20.04 122.6 L25.29 129.61 L31.63 129.61 L31.92 128.71 L34.19 124.66 L37.79 122.83 L44.95 122.4
								 L49.41 117.78 L49.41 117.34 L50.29 114.02 L52.89 106.14 L48.79 83.96 ZM27.92 115.78 A14.3373 14.5306
								 0 1 1 42.22 101.38 A14.3045 14.4974 0 0 1 27.92 115.78 Z" class="st1"/>
				</g>
				<g id="shape7303-7" transform="translate(18.0775,-15.8181)">
					<title>path19</title>
					<path d="M19.72 116.83 C19.72 123.29 11.88 128.47 10.17 129.54 a0.754593 0.76477 0 0 1 -0.655958 0 C7.81 128.47
								 0 123.29 0 116.83 L0 109.09 a0.62336 0.631767 0 0 1 0.590241 -0.631756 C6.69 108.46 5.28 105.63
								 9.84 105.63 C14.4 105.63 13.12 108.29 19.09 108.46 a0.656168 0.665018 0 0 1 0.623722 0.631756 L19.72
								 116.83 Z" class="st2"/>
				</g>
				<g id="shape7304-9" transform="translate(18.8979,-16.8163)">
					<title>path21</title>
					<path d="M18.08 117.9 C18.08 123.82 10.89 128.57 9.32 129.54 a0.62336 0.631767 0 0 1 -0.590244 0 C7.15 128.57
								 0 123.82 0 117.9 L0 110.78 a0.557743 0.565265 0 0 1 0.524519 -0.565276 C6.13 110.22 4.86 107.63
								 9.02 107.63 C13.19 107.63 11.94 110.09 17.52 110.22 a0.590551 0.598516 0 0 1 0.557999 0.565276 L18.08
								 117.9 Z" class="st3"/>
				</g>
				<g id="shape7305-11" transform="translate(23.4889,-23.4752)">
					<title>path23</title>
					<path d="M8.4 123.39 L7.84 123.39 L7.84 121.53 A3.74016 3.7906 -180 0 0 6.86 118.97 A3.08399 3.12558 -180 0 0
								 4.43 117.91 A3.28084 3.32509 -180 0 0 2 118.97 A3.74016 3.7906 -180 0 0 1.02 121.53 L1.02 123.53
								 L0.46 123.53 a0.459318 0.465512 -180 0 0 -0.460039 0.46549 L0 129.18 a0.459318 0.465512 -180 0 0
								 0.460039 0.432314 L8.4 129.61 a0.426509 0.432261 -180 0 0 0.4588 -0.432314 L8.86 123.86 a0.459318
								 0.465512 -180 0 0 -0.4588 -0.465493 L8.4 123.39 ZM6.24 123.39 L2.63 123.39 L2.63 121.53 A1.9357
								 1.9618 0 0 1 3.18 120.14 A1.70604 1.72905 0 0 1 4.43 119.57 A1.64042 1.66254 0 0 1 5.68 120.14 L5.91
								 120.4 A2.19816 2.22781 0 0 1 6.24 121.53 L6.24 123.39 Z" class="st4"/>
				</g>
				<g id="shape7306-13" transform="translate(15.7761,-1.08317)">
					<title>path25</title>
					<path d="M29.5 80.49 L31.83 75.6 a0.492126 0.498763 -180 0 0 -0.229397 -0.698237 L31.34 74.9 L13.26 76.3 a0.524934
								 0.532014 -180 0 0 -0.4588 0.565275 a0.426509 0.432261 -180 0 0 -1.86517E-13 0.266049 L23.04 92.09
								 a0.524934 0.532014 -180 0 0 0.721679 1.56319E-13 L23.92 91.89 L25.96 87.6 a0.557743 0.565265 0 0
								 1 0.68944 -0.266049 A20.7677 21.0478 0 0 1 34.26 102.47 A21.063 21.3471 0 0 1 13.62 124.28 A21.916
								 22.2116 0 0 1 3.42 121.95 a0.524934 0.532014 -180 0 0 -0.689441 0.19944 L0.04 127.07 a0.524934 0.532014
								 -180 0 0 0.19716 0.698236 A27.9528 28.3298 -180 0 0 37.8 115.77 A27.2638 27.6315 -180 0 0 40.92
								 102.2 A27.6247 27.9972 -180 0 0 29.63 81.12 a0.557743 0.565265 0 0 1 -0.131441 -0.631756 L29.5 80.49
								 Z" class="st5"/>
				</g>
			</g>
			<g id="shape7300-15">
				<g id="shadow7300-16" transform="matrix(1,0,0,1,1.41732,1.41732)" class="st6"/>
				<text x="-6.33" y="145.32" class="st7">IoT Windows 10 Core</text>			</g>
		</g>
	</g>
</svg>
