<?xml version="1.0" encoding="UTF-8" standalone="no"?>
<!DOCTYPE svg PUBLIC "-//W3C//DTD SVG 1.1//EN" "http://www.w3.org/Graphics/SVG/1.1/DTD/svg11.dtd">
<!-- Generated by Microsoft Visio, SVG Export Azure Stack Hub.svg Page-1 -->
<svg xmlns="http://www.w3.org/2000/svg" xmlns:xlink="http://www.w3.org/1999/xlink" xmlns:ev="http://www.w3.org/2001/xml-events"
		width="1.73185in" height="1.8108in" viewBox="0 0 124.693 130.378" xml:space="preserve" color-interpolation-filters="sRGB"
		class="st7">
	<style type="text/css">
	<![CDATA[
		.st1 {fill:url(#grad0-5);stroke:none;stroke-linecap:butt;stroke-width:34}
		.st2 {fill:#f2f2f2;stroke:none;stroke-linecap:butt;stroke-width:34}
		.st3 {fill:#50e6ff;stroke:none;stroke-linecap:butt;stroke-width:34}
		.st4 {fill:url(#grad0-13);stroke:none;stroke-linecap:butt;stroke-width:34}
		.st5 {visibility:visible}
		.st6 {fill:#000000;font-family:Calibri;font-size:0.666664em}
		.st7 {fill:none;fill-rule:evenodd;font-size:12px;overflow:visible;stroke-linecap:square;stroke-miterlimit:3}
	]]>
	</style>

	<defs id="Patterns_And_Gradients">
		<linearGradient id="grad0-5" x1="0" y1="0" x2="1" y2="0" gradientTransform="rotate(90 0.5 0.5)">
			<stop offset="0" stop-color="#5ea0ef" stop-opacity="1"/>
			<stop offset="0.18" stop-color="#559cec" stop-opacity="1"/>
			<stop offset="0.47" stop-color="#3c91e5" stop-opacity="1"/>
			<stop offset="0.84" stop-color="#1380da" stop-opacity="1"/>
			<stop offset="1" stop-color="#0078d4" stop-opacity="1"/>
		</linearGradient>
		<linearGradient id="grad0-13" x1="0" y1="0" x2="1" y2="0" gradientTransform="rotate(-90 0.5 0.5)">
			<stop offset="0" stop-color="#198ab3" stop-opacity="1"/>
			<stop offset="0" stop-color="#198ab3" stop-opacity="1"/>
			<stop offset="0.14" stop-color="#22a5cb" stop-opacity="1"/>
			<stop offset="0.3" stop-color="#29bade" stop-opacity="1"/>
			<stop offset="0.47" stop-color="#2ec9eb" stop-opacity="1"/>
			<stop offset="0.68" stop-color="#31d1f3" stop-opacity="1"/>
			<stop offset="1" stop-color="#32d4f5" stop-opacity="1"/>
		</linearGradient>
	</defs>
	<g>
		<title>Page-1</title>
		<g id="group5933-1" transform="translate(34,-39.685)">
			<title>Azure Stack Hub.5933</title>
			<desc>Azure Stack Hub</desc>
			<g id="shape5934-2" transform="translate(22.6703,-0.30138)">
				<title>Sheet.5934</title>
				<path d="M32.1 73.99 L1.96 73.99 A1.96086 1.90874 -180 0 0 -0 75.86 L0 117.65 A36.0179 35.0605 0 0 1 4.88 114.3 L10.6
							 114.3 L13.76 118.39 L13.76 124.58 L9.77 127.4 L4.23 126.73 L0 122.84 L0 128.5 A1.96086 1.90874 -180
							 0 0 1.96 130.38 L32.1 130.38 A1.92646 1.87525 -180 0 0 34.02 128.5 L34.02 75.86 A1.92646 1.87525 -180
							 0 0 32.1 73.99 Z" class="st1"/>
			</g>
			<g id="shape5935-6" transform="translate(26.6952,-1.60736)">
				<title>Sheet.5935</title>
				<path d="M0.48 81.15 L6.02 81.15 a0.481615 0.468813 0 0 1 0.481615 0.468813 L6.5 88.59 a0.481615 0.468813 0 0 1 -0.481615
							 0.468813 L0.48 89.06 a0.481615 0.468813 0 0 1 -0.481615 -0.468813 L0 81.62 a0.481615 0.468813 0 0 1
							 0.481615 -0.468813 ZM10.22 81.15 L15.76 81.15 a0.481615 0.468813 0 0 1 0.481615 0.468813 L16.24 88.59
							 a0.481615 0.468813 0 0 1 -0.481615 0.468813 L10.22 89.06 a0.481615 0.468813 0 0 1 -0.481615 -0.468813
							 L9.74 81.62 a0.481615 0.468813 0 0 1 0.481615 -0.468813 ZM19.99 81.15 L25.53 81.15 a0.481615 0.468813
							 0 0 1 0.481615 0.468813 L26.01 88.59 a0.481615 0.468813 0 0 1 -0.481615 0.468813 L19.99 89.06 a0.481615
							 0.468813 0 0 1 -0.481615 -0.468813 L19.51 81.62 a0.481615 0.468813 0 0 1 0.481615 -0.468813 ZM0.48 93.74
							 L6.02 93.74 a0.481615 0.468813 0 0 1 0.481615 0.468813 L6.5 101.24 a0.481615 0.468813 0 0 1 -0.481615
							 0.468813 L0.48 101.71 a0.481615 0.468813 0 0 1 -0.481615 -0.468813 L0 94.28 a0.481615 0.468813 0 0 1
							 0.481615 -0.535787 ZM10.22 93.74 L15.76 93.74 a0.481615 0.468813 0 0 1 0.481615 0.468813 L16.24 101.24
							 a0.481615 0.468813 0 0 1 -0.481615 0.468813 L10.22 101.71 a0.481615 0.468813 0 0 1 -0.481615 -0.468813
							 L9.74 94.28 a0.481615 0.468813 0 0 1 0.481615 -0.535787 ZM19.99 93.74 L25.53 93.74 a0.481615 0.468813
							 0 0 1 0.481615 0.468813 L26.01 101.24 a0.481615 0.468813 0 0 1 -0.481615 0.468813 L19.99 101.71 a0.481615
							 0.468813 0 0 1 -0.481615 -0.468813 L19.51 94.28 a0.481615 0.468813 0 0 1 0.481615 -0.535787 ZM0.48 106.47
							 L6.02 106.47 a0.481615 0.468813 0 0 1 0.481615 0.468813 L6.5 113.84 a0.481615 0.468813 0 0 1 -0.481615
							 0.468813 L0.48 114.3 a0.481615 0.468813 0 0 1 -0.481615 -0.468813 L0 106.94 a0.481615 0.468813 0 0 1
							 0.481615 -0.468813 ZM10.22 106.47 L15.76 106.47 a0.481615 0.468813 0 0 1 0.481615 0.468813 L16.24 113.84
							 a0.481615 0.468813 0 0 1 -0.481615 0.468813 L10.22 114.3 a0.481615 0.468813 0 0 1 -0.481615 -0.468813
							 L9.74 106.94 a0.481615 0.468813 0 0 1 0.481615 -0.468813 ZM10.22 119.13 L15.76 119.13 a0.481615 0.468813
							 0 0 1 0.481615 0.468813 L16.24 129.91 a0.481615 0.468813 0 0 1 -0.481615 0.468813 L10.22 130.38 a0.481615
							 0.468813 0 0 1 -0.481615 -0.468813 L9.74 119.6 a0.481615 0.468813 0 0 1 0.481615 -0.468813 ZM19.99 106.47
							 L25.53 106.47 a0.481615 0.468813 0 0 1 0.481615 0.468813 L26.01 113.84 a0.481615 0.468813 0 0 1 -0.481615
							 0.468813 L19.99 114.3 a0.481615 0.468813 0 0 1 -0.481615 -0.468813 L19.51 106.94 a0.481615 0.468813
							 0 0 1 0.481615 -0.468813 Z" class="st2"/>
			</g>
			<g id="shape5936-8" transform="translate(10.0451,-7.94596)">
				<title>Sheet.5936</title>
				<path d="M20.02 123.52 A4.47214 4.35327 -180 0 0 15.76 126.87 L0.28 126.87 A9.70109 9.44324 -180 0 0 0 129.05 L0
							 129.25 L15.76 129.25 A4.43773 4.31978 -180 1 0 20.02 123.52 Z" class="st3"/>
			</g>
			<g id="shape5937-10" transform="translate(10.2859,0)">
				<title>Sheet.5937</title>
				<path d="M31.82 113.77 A11.2147 10.9167 -180 0 0 20.12 103.35 A11.4899 11.1845 -180 0 0 9.12 110.65 A10.9395 10.6488
							 -180 0 0 0.38 117.35 L14.62 117.35 A5.91698 5.75971 0 1 1 19.78 125.62 A5.95138 5.79319 0 0 1 14.52
							 122.27 L0 122.27 A11.0083 10.7157 -180 0 0 10.94 130.38 L30 130.38 L30.48 130.38 A9.04747 8.80699 -180
							 0 0 39.42 122.27 A8.94427 8.70653 -180 0 0 31.82 113.77 Z" class="st4"/>
			</g>
			<g id="shape5938-14" transform="translate(2.89768E-13,-7.90617)">
				<title>Sheet.5938</title>
				<path d="M30.07 123.48 A4.47214 4.35327 -180 0 0 25.8 126.83 L10.32 126.83 A7.63703 7.43404 0 0 1 8.7 126.63 A7.98104
							 7.7689 0 0 1 2.44 119.3 A8.01544 7.80239 0 0 1 9.56 111.63 L10.32 111.63 L10.56 110.96 A8.80667 8.57258
							 0 0 1 19.02 105.23 A9.08187 8.84048 0 0 1 26.87 109.49 A10.5955 10.3139 0 0 1 29.45 109.18 A11.4211
							 11.1176 -180 0 0 19.13 102.86 A11.2835 10.9836 -180 0 0 8.5 109.39 A10.3203 10.046 -180 0 0 0 119.16
							 A10.3203 10.046 -180 0 0 7.71 128.67 A6.88021 6.69733 -180 0 0 10.22 129.08 L25.8 129.08 A4.43773 4.31978
							 -180 1 0 30.07 123.48 Z" class="st3"/>
			</g>
			<g id="shape5933-16">
				<g id="shadow5933-17" transform="matrix(1,0,0,1,1.41732,1.41732)" class="st5"/>
				<text x="1.86" y="146.08" class="st6">Azure Stack Hub</text>			</g>
		</g>
	</g>
</svg>
