<?xml version="1.0" encoding="UTF-8" standalone="no"?>
<!DOCTYPE svg PUBLIC "-//W3C//DTD SVG 1.1//EN" "http://www.w3.org/Graphics/SVG/1.1/DTD/svg11.dtd">
<!-- Generated by Microsoft Visio, SVG Export Container Service Fabric Cluster.svg Page-1 -->
<svg xmlns="http://www.w3.org/2000/svg" xmlns:xlink="http://www.w3.org/1999/xlink" xmlns:ev="http://www.w3.org/2001/xml-events"
		width="1.70647in" height="1.73119in" viewBox="0 0 122.866 124.645" xml:space="preserve" color-interpolation-filters="sRGB"
		class="st6">
	<style type="text/css">
	<![CDATA[
		.st1 {fill:#e27908;stroke:none;stroke-linecap:butt;stroke-width:33.0863}
		.st2 {fill:url(#grad0-7);stroke:none;stroke-linecap:butt;stroke-width:33.0863}
		.st3 {fill:url(#grad0-11);stroke:none;stroke-linecap:butt;stroke-width:33.0863}
		.st4 {visibility:visible}
		.st5 {fill:#000000;font-family:Calibri;font-size:0.666664em}
		.st6 {fill:none;fill-rule:evenodd;font-size:12px;overflow:visible;stroke-linecap:square;stroke-miterlimit:3}
	]]>
	</style>

	<defs id="Patterns_And_Gradients">
		<linearGradient id="grad0-7" x1="0" y1="0" x2="1" y2="0" gradientTransform="rotate(-90.037192623929 0.5 0.5)">
			<stop offset="0" stop-color="#ef7100" stop-opacity="1"/>
			<stop offset="1" stop-color="#faa21d" stop-opacity="1"/>
		</linearGradient>
		<linearGradient id="grad0-11" x1="0" y1="0" x2="1" y2="0" gradientTransform="rotate(-90 0.5 0.5)">
			<stop offset="0" stop-color="#ef7100" stop-opacity="1"/>
			<stop offset="1" stop-color="#faa21d" stop-opacity="1"/>
		</linearGradient>
	</defs>
	<g>
		<title>Page-1</title>
		<g id="group5660-1" transform="translate(33.0863,-37.7008)">
			<title>Container Service Fabric Cluster.5660</title>
			<desc>Container Service Fabric Cluster</desc>
			<g id="shape5661-2" transform="translate(5.721,-6.23419)">
				<title>path29</title>
				<path d="M45.25 98.17 L26.63 84.96 L22.63 82.03 L18.68 84.93 L0 98.17 L7.27 120.02 L8.79 124.65 L36.59 124.65 L38.04
							 120.02 L45.25 98.33 L45.25 98.17 ZM12.15 120.02 L5.69 100.03 L22.63 87.88 L39.69 100.06 L33.23 120.05
							 L12.15 120.02 Z" class="st1"/>
			</g>
			<g id="shape5662-4" transform="translate(7.66033,2.70006E-13)">
				<title>circle31</title>
				<ellipse cx="7.98355" cy="116.708" rx="7.98355" ry="7.93735" class="st2"/>
			</g>
			<g id="shape5663-8" transform="translate(32.613,2.70006E-13)">
				<title>circle33</title>
				<ellipse cx="7.98355" cy="116.708" rx="7.98355" ry="7.93735" class="st3"/>
			</g>
			<g id="shape5664-12" transform="translate(40.7258,-23.7799)">
				<title>circle35</title>
				<ellipse cx="7.98355" cy="116.708" rx="7.98355" ry="7.93735" class="st3"/>
			</g>
			<g id="shape5665-15" transform="translate(0,-23.7799)">
				<title>circle37</title>
				<ellipse cx="7.98355" cy="116.708" rx="7.98355" ry="7.93735" class="st3"/>
			</g>
			<g id="shape5666-18" transform="translate(20.3629,-37.9836)">
				<title>circle39</title>
				<ellipse cx="7.98355" cy="116.708" rx="7.98355" ry="7.93735" class="st3"/>
			</g>
			<g id="shape5660-21">
				<g id="shadow5660-22" transform="matrix(1,0,0,1,1.41732,1.41732)" class="st4"/>
				<text x="-23.3" y="139.92" class="st5">Container Service Fabric Cluster</text>			</g>
		</g>
	</g>
</svg>
