<?xml version="1.0" encoding="UTF-8" standalone="no"?>
<!DOCTYPE svg PUBLIC "-//W3C//DTD SVG 1.1//EN" "http://www.w3.org/Graphics/SVG/1.1/DTD/svg11.dtd">
<!-- Generated by Microsoft Visio, SVG Export Container Batch Account.svg Page-1 -->
<svg xmlns="http://www.w3.org/2000/svg" xmlns:xlink="http://www.w3.org/1999/xlink" xmlns:ev="http://www.w3.org/2001/xml-events"
		width="1.71254in" height="1.73422in" viewBox="0 0 123.303 124.864" xml:space="preserve" color-interpolation-filters="sRGB"
		class="st9">
	<style type="text/css">
	<![CDATA[
		.st1 {fill:#949494;stroke:none;stroke-linecap:butt;stroke-width:33.3051}
		.st2 {fill:url(#grad0-9);stroke:none;stroke-linecap:butt;stroke-width:33.3051}
		.st3 {fill:#83b9f9;stroke:none;stroke-linecap:butt;stroke-width:33.3051}
		.st4 {fill:#005ba1;stroke:none;stroke-linecap:butt;stroke-width:33.3051}
		.st5 {fill:#ffffff;stroke:none;stroke-linecap:butt;stroke-width:33.3051}
		.st6 {fill:#0078d4;stroke:none;stroke-linecap:butt;stroke-width:33.3051}
		.st7 {visibility:visible}
		.st8 {fill:#000000;font-family:Calibri;font-size:0.666664em}
		.st9 {fill:none;fill-rule:evenodd;font-size:12px;overflow:visible;stroke-linecap:square;stroke-miterlimit:3}
	]]>
	</style>

	<defs id="Patterns_And_Gradients">
		<linearGradient id="grad0-9" x1="0" y1="0" x2="1" y2="0" gradientTransform="rotate(-90 0.5 0.5)">
			<stop offset="0" stop-color="#0078d4" stop-opacity="1"/>
			<stop offset="1" stop-color="#5ea0ef" stop-opacity="1"/>
		</linearGradient>
	</defs>
	<g>
		<title>Page-1</title>
		<g id="group5710-1" transform="translate(33.3051,-37.7008)">
			<title>Container Batch Account.5710</title>
			<desc>Container Batch Account</desc>
			<g id="group5711-2">
				<title>g39</title>
				<g id="shape5712-3" transform="translate(35.0162,-24.9001)">
					<title>path11</title>
					<path d="M14.87 124.47 L21.11 118.12 C21.61 117.58 21.44 117.15 20.71 117.15 L17.57 117.15 a0.767022 0.769404
								 0 0 1 -0.900417 -0.802856 C16.67 112.4 15.67 101.39 0.67 100.99 a0.767022 0.769404 -180 0 0 -0.666975
								 0.769404 L0 105.67 a0.800371 0.802856 -180 0 0 0.833719 0.769404 A9.17091 9.19939 0 0 1 11.94 116.48
								 a0.767022 0.769404 0 0 1 -0.767022 0.769404 L8.27 117.25 C7.54 117.25 7.34 117.68 7.84 118.22 L13.64
								 124.57 a0.733673 0.735951 -180 0 0 1.2339 -0.100357 Z" class="st1"/>
				</g>
				<g id="group5713-5" transform="translate(-2.8777E-13,-24.9554)">
					<title>g17</title>
					<g id="shape5714-6">
						<title>rect13</title>
						<path d="M-0 122.96 A1.90092 1.90683 -180 0 0 1.9 124.86 L39.65 124.86 A1.90092 1.90683 -180 0 0 41.55 122.96
									 L41.55 97.87 A1.90092 1.90683 -180 0 0 39.65 95.96 L1.9 95.96 A1.90092 1.90683 -180 0 0 0 97.87
									 L0 122.96 Z" class="st2"/>
					</g>
					<g id="shape5715-10" transform="translate(0,-22.0451)">
						<title>path15</title>
						<path d="M1.9 118.01 L40.19 118.01 A1.3673 1.37155 0 0 1 41.55 119.38 L41.55 124.86 L0 124.86 L0 119.88 A1.90088
									 1.90678 0 0 1 1.9 118.01 Z" class="st3"/>
					</g>
				</g>
				<g id="shape5716-12" transform="translate(30.2807,0)">
					<title>rect19</title>
					<path d="M-0 123.66 A1.20058 1.20431 -180 0 0 1.2 124.86 L25.21 124.86 A1.20058 1.20431 -180 0 0 26.41 123.66
								 L26.41 107.7 A1.20058 1.20431 -180 0 0 25.21 106.5 L1.2 106.5 A1.20058 1.20431 -180 0 0 0 107.7
								 L0 123.66 Z" class="st4"/>
				</g>
				<g id="shape5717-14" transform="translate(5.3358,-40.0425)">
					<title>path21</title>
					<path d="M0.63 120.58 L30.21 120.58 a0.633627 0.635594 0 0 1 0.633627 0.602142 L30.85 124.26 a0.633627 0.635594
								 0 0 1 -0.633627 0.602142 L0.63 124.86 a0.633627 0.635594 0 0 1 -0.633627 -0.602142 L0 121.25 a0.633627
								 0.635594 0 0 1 0.633627 -0.669047 Z" class="st5"/>
				</g>
				<g id="shape5718-16" transform="translate(5.36915,-33.8872)">
					<title>path23</title>
					<path d="M0.63 120.58 L30.21 120.58 a0.633627 0.635594 0 0 1 0.633627 0.602142 L30.85 124.3 a0.633627 0.635594
								 0 0 1 -0.633627 0.56869 L0.63 124.86 a0.600278 0.602142 0 0 1 -0.633627 -0.56869 L0 121.18 a0.600278
								 0.602142 0 0 1 0.633627 -0.602142 Z" class="st5"/>
				</g>
				<g id="shape5719-18" transform="translate(5.36915,-27.6651)">
					<title>path25</title>
					<path d="M0.63 120.58 L30.21 120.58 a0.633627 0.635594 0 0 1 0.633627 0.602142 L30.85 124.26 a0.633627 0.635594
								 0 0 1 -0.633627 0.602142 L0.63 124.86 a0.600278 0.602142 0 0 1 -0.633627 -0.602142 L0 121.18 a0.600278
								 0.602142 0 0 1 0.633627 -0.602142 Z" class="st5"/>
				</g>
				<g id="group5720-20" transform="translate(25.912,-3.94738)">
					<title>g31</title>
					<g id="shape5721-21" transform="translate(1.66744E-06,-1.84741E-13)">
						<title>rect27</title>
						<path d="M-0 123.66 A1.20058 1.20431 -180 0 0 1.2 124.86 L25.21 124.86 A1.20058 1.20431 -180 0 0 26.41 123.66
									 L26.41 107.7 A1.20058 1.20431 -180 0 0 25.21 106.5 L1.2 106.5 A1.20058 1.20431 -180 0 0 -0 107.7
									 L0 123.66 Z" class="st6"/>
					</g>
					<g id="shape5722-23" transform="translate(1.3789E-13,-14.1503)">
						<title>path29</title>
						<path d="M1.2 120.65 L25.55 120.65 a0.867068 0.869761 0 0 1 0.867068 0.869761 L26.41 124.86 L0 124.86 L0
									 121.69 A1.20056 1.20428 0 0 1 1.2 120.65 Z" class="st3"/>
					</g>
				</g>
				<g id="shape5723-25" transform="translate(29.3136,-13.5147)">
					<title>path33</title>
					<path d="M0.4 122.12 L19.21 122.12 a0.400185 0.401428 0 0 1 0.400185 0.367976 L19.61 124.46 a0.400185 0.401428
								 0 0 1 -0.400185 0.401428 L0.4 124.86 a0.400185 0.401428 0 0 1 -0.400185 -0.401428 L0 122.49 a0.366836
								 0.367976 0 0 1 0.400185 -0.367976 Z" class="st5"/>
				</g>
				<g id="shape5724-27" transform="translate(29.3136,-9.60082)">
					<title>path35</title>
					<path d="M0.4 122.12 L19.21 122.12 a0.400185 0.401428 0 0 1 0.400185 0.401428 L19.61 124.5 a0.366836 0.367976
								 0 0 1 -0.400185 0.367976 L0.4 124.86 a0.400185 0.401428 0 0 1 -0.400185 -0.367976 L0 122.52 a0.400185
								 0.401428 0 0 1 0.400185 -0.401428 Z" class="st5"/>
				</g>
				<g id="shape5725-29" transform="translate(29.3136,-5.65344)">
					<title>path37</title>
					<path d="M0.4 122.12 L19.21 122.12 a0.400185 0.401428 0 0 1 0.400185 0.401428 L19.61 124.5 a0.366836 0.367976
								 0 0 1 -0.400185 0.367976 L0.4 124.86 a0.400185 0.401428 0 0 1 -0.400185 -0.367976 L0 122.52 a0.400185
								 0.401428 0 0 1 0.400185 -0.401428 Z" class="st5"/>
				</g>
			</g>
			<g id="shape5710-31">
				<g id="shadow5710-32" transform="matrix(1,0,0,1,1.41732,1.41732)" class="st7"/>
				<text x="-12.04" y="140.14" class="st8">Container Batch Account</text>			</g>
		</g>
	</g>
</svg>
