<?xml version="1.0" encoding="UTF-8" standalone="no"?>
<!DOCTYPE svg PUBLIC "-//W3C//DTD SVG 1.1//EN" "http://www.w3.org/Graphics/SVG/1.1/DTD/svg11.dtd">
<!-- Generated by Microsoft Visio, SVG Export Virtual Machine Windows.svg Page-1 -->
<svg xmlns="http://www.w3.org/2000/svg" xmlns:xlink="http://www.w3.org/1999/xlink" xmlns:ev="http://www.w3.org/2001/xml-events"
		width="1.73185in" height="1.67695in" viewBox="0 0 124.693 120.74" xml:space="preserve" color-interpolation-filters="sRGB"
		class="st7">
	<style type="text/css">
	<![CDATA[
		.st1 {fill:url(#grad0-6);stroke:none;stroke-linecap:butt;stroke-width:34}
		.st2 {fill:url(#grad0-10);stroke:none;stroke-linecap:butt;stroke-width:34}
		.st3 {fill:#804998;fill-opacity:0.2;stroke:none;stroke-linecap:butt;stroke-width:14.0489}
		.st4 {fill:#ffffff;fill-opacity:0.8;stroke:none;stroke-linecap:butt;stroke-width:14.0489}
		.st5 {visibility:visible}
		.st6 {fill:#000000;font-family:Calibri;font-size:0.666664em}
		.st7 {fill:none;fill-rule:evenodd;font-size:12px;overflow:visible;stroke-linecap:square;stroke-miterlimit:3}
	]]>
	</style>

	<defs id="Patterns_And_Gradients">
		<linearGradient id="grad0-6" x1="0" y1="0" x2="1" y2="0" gradientTransform="rotate(-90 0.5 0.5)">
			<stop offset="0" stop-color="#0078d4" stop-opacity="1"/>
			<stop offset="0.82" stop-color="#5ea0ef" stop-opacity="1"/>
		</linearGradient>
		<linearGradient id="grad0-10" x1="0" y1="0" x2="1" y2="0" gradientTransform="rotate(-90 0.5 0.5)">
			<stop offset="0.15" stop-color="#cccccc" stop-opacity="1"/>
			<stop offset="1" stop-color="#707070" stop-opacity="1"/>
		</linearGradient>
	</defs>
	<g>
		<title>Page-1</title>
		<g id="group5379-1" transform="translate(34,-35.7165)">
			<title>Virtual Machine Windows.5379</title>
			<desc>Virtual Machine Windows</desc>
			<g id="group5380-2">
				<title>g16</title>
				<g id="shape5381-3" transform="translate(0,-14.2056)">
					<title>rect2</title>
					<path d="M0 118.9 A1.88981 1.84094 -180 0 0 1.89 120.74 L54.8 120.74 A1.88981 1.84094 -180 0 0 56.69 118.9 L56.69
								 85.76 A1.88981 1.84094 -180 0 0 54.8 83.92 L1.89 83.92 A1.88981 1.84094 -180 0 0 0 85.76 L0 118.9
								 Z" class="st1"/>
				</g>
				<g id="shape5382-7" transform="translate(14.1732,1.42109E-14)">
					<title>path14</title>
					<path d="M25.54 117.67 C19.94 116.81 19.72 112.89 19.72 106.53 L8.6 106.53 C8.6 112.89 8.41 116.81 2.8 117.67
								 A3.14961 3.06817 -180 0 0 0 120.74 L28.35 120.74 A3.14961 3.06817 -180 0 0 25.54 117.67 Z"
							class="st2"/>
				</g>
				<g id="shape5383-11" transform="translate(14.2042,-20.5365)">
					<title>path10</title>
					<path d="M26.59 120.74 L1.07 118.73 C0.47 118.69 0 118.19 0 117.6 L0 98.52 C0 97.93 0.47 97.43 1.07 97.39 C1.07
								 97.39 26.6 95.38 26.6 95.38 C27.34 95.38 27.85 95.89 27.85 96.52 L27.85 119.6 C27.85 119.91 27.73
								 120.2 27.51 120.41 C27.29 120.62 27 120.74 26.69 120.74 L26.59 120.74 Z" class="st3"/>
				</g>
				<g id="shape5384-13" transform="translate(28.1308,-34.1029)">
					<title>polygon12</title>
					<path d="M0 120.74 L12.76 120.74 L12.76 110.08 L0 111.08 L0 120.74 Z" class="st4"/>
				</g>
				<g id="shape5385-15" transform="translate(15.3703,-34.1029)">
					<title>polygon14</title>
					<path d="M0 120.74 L10.94 120.74 L10.94 111.23 L0 112.09 L0 120.74 Z" class="st4"/>
				</g>
				<g id="shape5386-17" transform="translate(28.1308,-21.6737)">
					<title>polygon16</title>
					<path d="M0 110.09 L12.76 110.09 L12.76 120.74 L0 119.74 L0 110.09 Z" class="st4"/>
				</g>
				<g id="shape5387-19" transform="translate(15.3703,-22.8172)">
					<title>polygon18</title>
					<path d="M0 111.23 L10.94 111.23 L10.94 120.74 L0 119.88 L0 111.23 Z" class="st4"/>
				</g>
			</g>
			<g id="shape5379-21">
				<g id="shadow5379-22" transform="matrix(1,0,0,1,1.41732,1.41732)" class="st5"/>
				<text x="-13.67" y="135.59" class="st6">Virtual Machine Windows</text>			</g>
		</g>
	</g>
</svg>
