<?xml version="1.0" encoding="UTF-8" standalone="no"?>
<!DOCTYPE svg PUBLIC "-//W3C//DTD SVG 1.1//EN" "http://www.w3.org/Graphics/SVG/1.1/DTD/svg11.dtd">
<!-- Generated by Microsoft Visio, SVG Export Mixed Reality Voice Assistant.svg Page-1 -->
<svg xmlns="http://www.w3.org/2000/svg" xmlns:xlink="http://www.w3.org/1999/xlink" xmlns:ev="http://www.w3.org/2001/xml-events"
		width="0.883322in" height="1.34717in" viewBox="0 0 63.5992 96.9965" xml:space="preserve" color-interpolation-filters="sRGB"
		class="st4">
	<style type="text/css">
	<![CDATA[
		.st1 {fill:url(#grad0-5);stroke:none;stroke-linecap:butt;stroke-width:6.28779}
		.st2 {fill:url(#grad0-9);stroke:none;stroke-linecap:butt;stroke-width:6.28779}
		.st3 {fill:url(#grad0-13);stroke:none;stroke-linecap:butt;stroke-width:6.28779}
		.st4 {fill:none;fill-rule:evenodd;font-size:12px;overflow:visible;stroke-linecap:square;stroke-miterlimit:3}
	]]>
	</style>

	<defs id="Patterns_And_Gradients">
		<linearGradient id="grad0-5" x1="0" y1="0" x2="1" y2="0" gradientTransform="rotate(64.635301322492 0.5 0.5)">
			<stop offset="0" stop-color="#0078d4" stop-opacity="1"/>
			<stop offset="1" stop-color="#2064ae" stop-opacity="1"/>
		</linearGradient>
		<linearGradient id="grad0-9" x1="0" y1="0" x2="1" y2="0" gradientTransform="rotate(68.248481004702 0.5 0.5)">
			<stop offset="0" stop-color="#00b1f2" stop-opacity="1"/>
			<stop offset="0.995" stop-color="#0095e6" stop-opacity="1"/>
		</linearGradient>
		<linearGradient id="grad0-13" x1="0" y1="0" x2="1" y2="0" gradientTransform="rotate(69.594331324328 0.5 0.5)">
			<stop offset="0" stop-color="#7cecff" stop-opacity="1"/>
			<stop offset="1" stop-color="#00ccf9" stop-opacity="1"/>
		</linearGradient>
	</defs>
	<g>
		<title>Page-1</title>
		<g id="group20198-1" transform="translate(6.28779,-34.0157)">
			<title>Mixed Reality Voice Assistant.20198</title>
			<g id="shape20199-2">
				<title>path5</title>
				<path d="M25.51 40.3 L51.02 54.62 L51.02 73.7 L26.74 87.33 C25.98 87.76 25.51 88.55 25.51 89.4 L25.51 95.51 C25.51
							 96.42 24.5 97 23.69 96.54 L0 83.25 L0 54.62 L25.51 40.3 Z" class="st1"/>
			</g>
			<g id="shape20200-6" transform="translate(0,-9.54306)">
				<title>path15</title>
				<path d="M25.51 49.85 L51.02 64.16 L51.02 72.32 C51.02 73.18 50.56 73.97 49.8 74.39 L26.74 87.33 C25.98 87.76 25.51
							 88.55 25.51 89.4 L25.51 95.51 C25.51 96.42 24.5 97 23.69 96.54 L1.22 83.93 C0.47 83.51 0 82.72 0 81.86
							 L0 64.16 L25.51 49.85 Z" class="st2"/>
			</g>
			<g id="shape20201-10" transform="translate(2.51799E-13,-19.0861)">
				<title>path17</title>
				<path d="M25.51 59.39 L50.1 73.19 C50.51 73.42 50.51 73.99 50.1 74.22 L26.74 87.33 C25.98 87.76 25.51 88.55 25.51
							 89.4 L25.51 95.51 C25.51 96.42 24.5 97 23.69 96.54 L1.22 83.93 C0.47 83.51 0 82.72 0 81.86 L0 73.7 L25.51
							 59.39 Z" class="st3"/>
			</g>
		</g>
	</g>
</svg>
