<?xml version="1.0" encoding="UTF-8" standalone="no"?>
<!DOCTYPE svg PUBLIC "-//W3C//DTD SVG 1.1//EN" "http://www.w3.org/Graphics/SVG/1.1/DTD/svg11.dtd">
<!-- Generated by Microsoft Visio, SVG Export Application Insights User.svg Page-1 -->
<svg xmlns="http://www.w3.org/2000/svg" xmlns:xlink="http://www.w3.org/1999/xlink" xmlns:ev="http://www.w3.org/2001/xml-events"
		width="0.930551in" height="1.42984in" viewBox="0 0 66.9997 102.949" xml:space="preserve" color-interpolation-filters="sRGB"
		class="st3">
	<style type="text/css">
	<![CDATA[
		.st1 {fill:#59b4d9;stroke:none;stroke-linecap:butt;stroke-width:12.24}
		.st2 {fill:#ffffff;fill-opacity:0.2;stroke:none;stroke-linecap:butt;stroke-width:12.24}
		.st3 {fill:none;fill-rule:evenodd;font-size:12px;overflow:visible;stroke-linecap:square;stroke-miterlimit:3}
	]]>
	</style>

	<g>
		<title>Page-1</title>
		<g id="group12900-1" transform="translate(12.24,-34.0157)">
			<title>Application Insights User.12900</title>
			<g id="group12901-2">
				<title>Sheet.12901</title>
				<g id="shape12902-3" transform="translate(0.00114918,0)">
					<title>Sheet.12902</title>
					<path d="M33.16 57.9 C33.16 64.33 27.83 69.54 21.26 69.54 C14.68 69.54 9.36 64.33 9.36 57.9 C9.36 51.47 14.68
								 46.26 21.26 46.26 C27.83 46.26 33.16 51.47 33.16 57.9 ZM29.96 73.53 L21.26 85.46 L12.55 73.53 L0
								 73.53 L0 102.95 L42.52 102.95 L42.52 73.53 L29.96 73.53 Z" class="st1"/>
				</g>
				<g id="shape12903-5">
					<title>Sheet.12903</title>
					<path d="M9.36 57.9 C9.36 64.23 14.53 69.38 20.97 69.53 L23.96 46.57 A11.917 11.7581 -180 0 0 21.26 46.26 C14.69
								 46.26 9.36 51.47 9.36 57.9 ZM12.56 73.53 L0 73.53 L0 102.95 L16.67 102.95 L19.3 82.78 L12.56 73.53
								 Z" class="st2"/>
				</g>
			</g>
		</g>
	</g>
</svg>
