<?xml version="1.0" encoding="UTF-8" standalone="no"?>
<!-- Generated by Microsoft Visio, SVG Export Audit logs.svg Page-1 -->

<svg
   xmlns:dc="http://purl.org/dc/elements/1.1/"
   xmlns:cc="http://creativecommons.org/ns#"
   xmlns:rdf="http://www.w3.org/1999/02/22-rdf-syntax-ns#"
   xmlns:svg="http://www.w3.org/2000/svg"
   xmlns="http://www.w3.org/2000/svg"
   xmlns:sodipodi="http://sodipodi.sourceforge.net/DTD/sodipodi-0.dtd"
   xmlns:inkscape="http://www.inkscape.org/namespaces/inkscape"
   width="0.74805367in"
   height="0.78735912in"
   viewBox="0 0 53.859833 56.689997"
   xml:space="preserve"
   class="st2"
   version="1.1"
   id="svg19"
   sodipodi:docname="Audit logs.svg"
   style="font-size:12px;overflow:visible;color-interpolation-filters:sRGB;fill:none;fill-rule:evenodd;stroke-linecap:square;stroke-miterlimit:3"
   inkscape:version="0.92.5 (2060ec1f9f, 2020-04-08)"><metadata
   id="metadata25"><rdf:RDF><cc:Work
       rdf:about=""><dc:format>image/svg+xml</dc:format><dc:type
         rdf:resource="http://purl.org/dc/dcmitype/StillImage" /></cc:Work></rdf:RDF></metadata><defs
   id="defs23" /><sodipodi:namedview
   pagecolor="#ffffff"
   bordercolor="#666666"
   borderopacity="1"
   objecttolerance="10"
   gridtolerance="10"
   guidetolerance="10"
   inkscape:pageopacity="0"
   inkscape:pageshadow="2"
   inkscape:window-width="640"
   inkscape:window-height="480"
   id="namedview21"
   showgrid="false"
   inkscape:zoom="1.8365233"
   inkscape:cx="35.905404"
   inkscape:cy="18.900351"
   inkscape:window-x="0"
   inkscape:window-y="0"
   inkscape:window-maximized="0"
   inkscape:current-layer="svg19" />
	<style
   type="text/css"
   id="style2">
	<![CDATA[
		.st1 {fill:#000000;stroke:none;stroke-linecap:butt;stroke-width:0.298828}
		.st2 {fill:none;fill-rule:evenodd;font-size:12px;overflow:visible;stroke-linecap:square;stroke-miterlimit:3}
	]]>
	</style>

	<g
   id="g17"
   transform="translate(-5.3859292,-5.6743)">
		<title
   id="title4">Page-1</title>
		<g
   id="group15570-1"
   transform="translate(5.38583,-34.0157)">
			<title
   id="title6">Audit logs.15570</title>
			<g
   id="group15571-2">
				<title
   id="title8">Sheet.15571</title>
				<g
   id="shape15572-3">
					<title
   id="title10">Sheet.15572</title>
					<path
   d="m 25.39,75.12 c -0.27,0.55 -0.46,1.12 -0.59,1.71 -0.13,0.59 -0.26,1.2 -0.37,1.83 H 7.18 V 75.12 Z M 7.18,85.75 V 82.2 h 17.2 c 0.09,0.61 0.22,1.21 0.39,1.8 0.17,0.59 0.38,1.18 0.64,1.75 z m -3.59,7.08 h 37.84 l 3.56,3.55 H 0 V 39.69 h 31.28 l 15.4,15.19 V 70.61 C 46.13,70.13 45.56,69.69 44.97,69.3 44.37,68.92 43.74,68.58 43.09,68.28 V 57.4 H 28.72 V 43.23 H 3.59 Z M 32.31,45.75 v 8.11 h 8.22 z m 0.68,22.28 c -2.04,0.76 -3.79,1.94 -5.25,3.54 H 7.18 V 68.03 Z M 7.18,53.86 H 25.13 V 57.4 H 7.18 Z m 32.32,7.08 v 3.55 H 7.18 v -3.55 z m 14.36,33.67 c 0,0.48 -0.18,0.89 -0.53,1.24 -0.36,0.35 -0.78,0.53 -1.27,0.53 -0.48,0 -0.9,-0.18 -1.26,-0.53 l -8.16,-8.03 c -0.73,0.48 -1.52,0.84 -2.36,1.08 -0.84,0.24 -1.7,0.37 -2.58,0.39 -1.23,0 -2.39,-0.23 -3.48,-0.69 -1.08,-0.46 -2.04,-1.09 -2.86,-1.88 -0.82,-0.8 -1.47,-1.74 -1.93,-2.83 -0.47,-1.09 -0.71,-2.24 -0.71,-3.46 0,-1.21 0.24,-2.36 0.71,-3.43 0.46,-1.07 1.1,-2 1.9,-2.8 0.81,-0.79 1.76,-1.43 2.86,-1.91 1.11,-0.48 2.28,-0.72 3.51,-0.72 1.24,0 2.39,0.24 3.48,0.7 1.08,0.46 2.03,1.09 2.83,1.91 0.81,0.81 1.45,1.75 1.94,2.82 0.48,1.07 0.73,2.22 0.73,3.43 0,0.87 -0.12,1.72 -0.37,2.55 -0.24,0.83 -0.61,1.61 -1.12,2.33 l 8.14,8.05 c 0.35,0.35 0.53,0.77 0.53,1.25 z M 32.31,80.43 c 0,0.74 0.15,1.43 0.43,2.08 0.28,0.65 0.66,1.21 1.15,1.69 0.48,0.48 1.05,0.86 1.71,1.13 0.65,0.28 1.35,0.42 2.1,0.42 0.75,0 1.45,-0.14 2.1,-0.42 0.66,-0.27 1.23,-0.65 1.72,-1.13 0.48,-0.48 0.87,-1.04 1.15,-1.69 0.28,-0.65 0.42,-1.34 0.42,-2.08 0,-0.74 -0.14,-1.43 -0.42,-2.07 -0.28,-0.65 -0.67,-1.21 -1.15,-1.69 -0.49,-0.48 -1.06,-0.86 -1.72,-1.14 -0.65,-0.27 -1.35,-0.41 -2.1,-0.41 -0.75,0 -1.45,0.14 -2.1,0.41 -0.66,0.28 -1.23,0.66 -1.71,1.14 -0.49,0.48 -0.87,1.04 -1.15,1.69 -0.28,0.64 -0.43,1.33 -0.43,2.07 z"
   class="st1"
   id="path12"
   inkscape:connector-curvature="0"
   style="fill:#000000;stroke:none;stroke-width:0.29882801;stroke-linecap:butt" />
				</g>
			</g>
		</g>
	</g>
</svg>