<?xml version="1.0" encoding="UTF-8" standalone="no"?>
<!DOCTYPE svg PUBLIC "-//W3C//DTD SVG 1.1//EN" "http://www.w3.org/Graphics/SVG/1.1/DTD/svg11.dtd">
<!-- Generated by Microsoft Visio, SVG Export Audit logs.svg Page-1 -->
<svg xmlns="http://www.w3.org/2000/svg" xmlns:xlink="http://www.w3.org/1999/xlink" xmlns:ev="http://www.w3.org/2001/xml-events"
		width="0.897638in" height="1.33858in" viewBox="0 0 64.6299 96.378" xml:space="preserve" color-interpolation-filters="sRGB"
		class="st2">
	<style type="text/css">
	<![CDATA[
		.st1 {fill:#000000;stroke:none;stroke-linecap:butt;stroke-width:0.298828}
		.st2 {fill:none;fill-rule:evenodd;font-size:12px;overflow:visible;stroke-linecap:square;stroke-miterlimit:3}
	]]>
	</style>

	<g>
		<title>Page-1</title>
		<g id="group12883-1" transform="translate(5.38583,-34.0157)">
			<title>Audit logs.12883</title>
			<g id="group12884-2">
				<title>Sheet.12884</title>
				<g id="shape12885-3">
					<title>Sheet.12885</title>
					<path d="M25.39 75.12 C25.12 75.67 24.93 76.24 24.8 76.83 C24.67 77.42 24.54 78.03 24.43 78.66 L7.18 78.66 L7.18
								 75.12 L25.39 75.12 ZM7.18 85.75 L7.18 82.2 L24.38 82.2 C24.47 82.81 24.6 83.41 24.77 84 C24.94 84.59
								 25.15 85.18 25.41 85.75 L7.18 85.75 ZM3.59 92.83 L41.43 92.83 L44.99 96.38 L0 96.38 L0 39.69 L31.28
								 39.69 L46.68 54.88 L46.68 70.61 C46.13 70.13 45.56 69.69 44.97 69.3 C44.37 68.92 43.74 68.58 43.09
								 68.28 L43.09 57.4 L28.72 57.4 L28.72 43.23 L3.59 43.23 L3.59 92.83 ZM32.31 45.75 L32.31 53.86 L40.53
								 53.86 L32.31 45.75 ZM32.99 68.03 C30.95 68.79 29.2 69.97 27.74 71.57 L7.18 71.57 L7.18 68.03 L32.99
								 68.03 ZM7.18 53.86 L25.13 53.86 L25.13 57.4 L7.18 57.4 L7.18 53.86 ZM39.5 60.94 L39.5 64.49 L7.18
								 64.49 L7.18 60.94 L39.5 60.94 ZM53.86 94.61 C53.86 95.09 53.68 95.5 53.33 95.85 C52.97 96.2 52.55
								 96.38 52.06 96.38 C51.58 96.38 51.16 96.2 50.8 95.85 L42.64 87.82 C41.91 88.3 41.12 88.66 40.28
								 88.9 C39.44 89.14 38.58 89.27 37.7 89.29 C36.47 89.29 35.31 89.06 34.22 88.6 C33.14 88.14 32.18
								 87.51 31.36 86.72 C30.54 85.92 29.89 84.98 29.43 83.89 C28.96 82.8 28.72 81.65 28.72 80.43 C28.72
								 79.22 28.96 78.07 29.43 77 C29.89 75.93 30.53 75 31.33 74.2 C32.14 73.41 33.09 72.77 34.19 72.29
								 C35.3 71.81 36.47 71.57 37.7 71.57 C38.94 71.57 40.09 71.81 41.18 72.27 C42.26 72.73 43.21 73.36
								 44.01 74.18 C44.82 74.99 45.46 75.93 45.95 77 C46.43 78.07 46.68 79.22 46.68 80.43 C46.68 81.3 46.56
								 82.15 46.31 82.98 C46.07 83.81 45.7 84.59 45.19 85.31 L53.33 93.36 C53.68 93.71 53.86 94.13 53.86
								 94.61 ZM32.31 80.43 C32.31 81.17 32.46 81.86 32.74 82.51 C33.02 83.16 33.4 83.72 33.89 84.2 C34.37
								 84.68 34.94 85.06 35.6 85.33 C36.25 85.61 36.95 85.75 37.7 85.75 C38.45 85.75 39.15 85.61 39.8 85.33
								 C40.46 85.06 41.03 84.68 41.52 84.2 C42 83.72 42.39 83.16 42.67 82.51 C42.95 81.86 43.09 81.17 43.09
								 80.43 C43.09 79.69 42.95 79 42.67 78.36 C42.39 77.71 42 77.15 41.52 76.67 C41.03 76.19 40.46 75.81
								 39.8 75.53 C39.15 75.26 38.45 75.12 37.7 75.12 C36.95 75.12 36.25 75.26 35.6 75.53 C34.94 75.81
								 34.37 76.19 33.89 76.67 C33.4 77.15 33.02 77.71 32.74 78.36 C32.46 79 32.31 79.69 32.31 80.43 Z"
							class="st1"/>
				</g>
			</g>
		</g>
	</g>
</svg>
