<?xml version="1.0" encoding="UTF-8" standalone="no"?>
<!DOCTYPE svg PUBLIC "-//W3C//DTD SVG 1.1//EN" "http://www.w3.org/Graphics/SVG/1.1/DTD/svg11.dtd">
<!-- Generated by Microsoft Visio, SVG Export Automation Event Grid.svg Page-1 -->
<svg xmlns="http://www.w3.org/2000/svg" xmlns:xlink="http://www.w3.org/1999/xlink" xmlns:ev="http://www.w3.org/2001/xml-events"
		width="1.12613in" height="1.42984in" viewBox="0 0 81.0814 102.949" xml:space="preserve" color-interpolation-filters="sRGB"
		class="st4">
	<style type="text/css">
	<![CDATA[
		.st1 {fill:#0072c6;stroke:none;stroke-linecap:butt;stroke-width:12.24}
		.st2 {fill:#59b4d9;stroke:none;stroke-linecap:butt;stroke-width:12.24}
		.st3 {fill:#b8d432;stroke:none;stroke-linecap:butt;stroke-width:12.24}
		.st4 {fill:none;fill-rule:evenodd;font-size:12px;overflow:visible;stroke-linecap:square;stroke-miterlimit:3}
	]]>
	</style>

	<g>
		<title>Page-1</title>
		<g id="group12131-1" transform="translate(12.24,-34.0157)">
			<title>Automation Event Grid.12131</title>
			<g id="group12132-2">
				<title>Sheet.12132</title>
				<g id="shape12133-3" transform="translate(7.92417,-15.874)">
					<title>Sheet.12133</title>
					<path d="M36.22 87.07 L36.22 84.81 L19.25 84.81 L19.24 84.8 L11.31 92.74 L5.46 92.74 L19.04 79.14 L28.3 79.14
								 L28.3 76.87 L18.11 76.87 L18.11 76.88 L18.1 76.87 L2.25 92.74 L0 92.74 L0 95.01 L6.79 95.01 L14.72
								 102.95 L14.72 102.95 L33.96 102.95 L33.96 100.68 L15.65 100.68 L9.99 95.01 L23.77 95.01 L23.77 92.74
								 L14.51 92.74 L20.17 87.07 L36.22 87.07 Z" class="st1"/>
				</g>
				<g id="shape12134-5" transform="translate(30.6779,-21.6567)">
					<title>Sheet.12134</title>
					<ellipse cx="3.28287" cy="99.6605" rx="3.28287" ry="3.28819" class="st2"/>
				</g>
				<g id="shape12135-7" transform="translate(-35.4363,-6.01822) rotate(-45.001)">
					<title>Sheet.12135</title>
					<ellipse cx="3.28287" cy="99.6605" rx="3.28287" ry="3.28819" class="st2"/>
				</g>
				<g id="shape12136-9" transform="translate(-27.5121,1.91879) rotate(-45.001)">
					<title>Sheet.12136</title>
					<ellipse cx="3.28287" cy="99.6605" rx="3.28287" ry="3.28819" class="st3"/>
				</g>
				<g id="shape12137-11" transform="translate(-30.9082,17.7928) rotate(-45.001)">
					<title>Sheet.12137</title>
					<ellipse cx="3.28287" cy="99.6605" rx="3.28287" ry="3.28819" class="st3"/>
				</g>
				<g id="shape12138-13">
					<title>Sheet.12138</title>
					<path d="M0.91 46.26 C0.34 46.26 0 46.6 0 47.16 L0 58.5 C0 59.07 0.34 59.41 0.91 59.41 L6.58 59.41 C7.14 59.41
								 7.48 59.07 7.48 58.5 L7.48 53.85 L49.1 53.85 L49.1 58.61 C49.1 59.18 49.44 59.52 50.23 59.52 L55.67
								 59.52 C56.24 59.52 56.58 59.18 56.58 58.61 L56.58 47.28 C56.69 46.6 56.35 46.26 55.79 46.26 L0.91
								 46.26 ZM55.7 102.95 C56.26 102.95 56.6 102.61 56.6 102.04 L56.6 90.93 C56.6 90.36 56.26 90.02 55.7
								 90.02 L50.26 90.02 C49.7 90.02 49.36 90.36 49.36 90.93 L49.36 95.47 L7.58 95.47 L7.58 90.7 C7.58
								 90.14 7.24 89.8 6.45 89.8 L0.91 89.8 C0.34 89.8 0 90.14 0 90.93 L0 102.04 C0 102.61 0.34 102.95
								 0.91 102.95 L55.7 102.95 Z" class="st1"/>
				</g>
			</g>
		</g>
	</g>
</svg>
