<?xml version="1.0" encoding="UTF-8" standalone="no"?>
<!DOCTYPE svg PUBLIC "-//W3C//DTD SVG 1.1//EN" "http://www.w3.org/Graphics/SVG/1.1/DTD/svg11.dtd">
<!-- Generated by Microsoft Visio, SVG Export Automation Runbook.svg Page-1 -->
<svg xmlns="http://www.w3.org/2000/svg" xmlns:xlink="http://www.w3.org/1999/xlink" xmlns:ev="http://www.w3.org/2001/xml-events"
		width="1.08652in" height="1.42984in" viewBox="0 0 78.2293 102.949" xml:space="preserve" color-interpolation-filters="sRGB"
		class="st3">
	<style type="text/css">
	<![CDATA[
		.st1 {fill:#7a7a7a;stroke:none;stroke-linecap:butt;stroke-width:12.24}
		.st2 {fill:#59b4d9;stroke:none;stroke-linecap:butt;stroke-width:12.24}
		.st3 {fill:none;fill-rule:evenodd;font-size:12px;overflow:visible;stroke-linecap:square;stroke-miterlimit:3}
	]]>
	</style>

	<g>
		<title>Page-1</title>
		<g id="group12797-1" transform="translate(12.24,-34.0157)">
			<title>Automation Runbook.12797</title>
			<g id="group12798-2">
				<title>Sheet.12798</title>
				<g id="shape12799-3" transform="translate(7.79375,-14.088)">
					<title>Sheet.12799</title>
					<path d="M35.48 86.7 L2.68 86.7 C1.28 86.7 0 87.84 0 89.54 L0 101.7 L4.54 102.95 L4.54 91.13 L33.5 91.13 L33.5
								 102.84 L38.04 101.59 L38.04 89.54 C38.04 87.84 36.76 86.7 35.48 86.7 Z" class="st1"/>
				</g>
				<g id="shape12800-5" transform="translate(24.5445,-26.2446)">
					<title>Sheet.12800</title>
					<rect x="0" y="91.1329" width="4.53666" height="11.8158" class="st1"/>
				</g>
				<g id="shape12801-7">
					<title>Sheet.12801</title>
					<path d="M34.2 46.26 L19.54 46.26 C18.03 46.26 16.75 47.51 16.75 48.98 L16.75 62.28 C16.75 63.75 18.03 65 19.54
								 65 L34.08 65 C35.6 65 36.87 63.75 36.87 62.28 L36.87 48.98 C36.99 47.51 35.71 46.26 34.2 46.26 ZM17.33
								 84.2 L2.79 84.2 C1.28 84.2 0 85.45 0 86.93 L0 100.22 C0 101.7 1.28 102.95 2.79 102.95 L17.33 102.95
								 C18.84 102.95 20.12 101.7 20.12 100.22 L20.12 86.93 C20.12 85.45 18.84 84.2 17.33 84.2 ZM50.95 84.2
								 L36.41 84.2 C34.9 84.2 33.62 85.45 33.62 86.93 L33.62 100.22 C33.62 101.7 34.9 102.95 36.41 102.95
								 L50.95 102.95 C52.46 102.95 53.74 101.7 53.74 100.22 L53.74 86.93 C53.86 85.45 52.58 84.2 50.95
								 84.2 Z" class="st2"/>
				</g>
			</g>
		</g>
	</g>
</svg>
