<?xml version="1.0" encoding="UTF-8" standalone="no"?>
<!DOCTYPE svg PUBLIC "-//W3C//DTD SVG 1.1//EN" "http://www.w3.org/Graphics/SVG/1.1/DTD/svg11.dtd">
<!-- Generated by Microsoft Visio, SVG Export Automation Job.svg Page-1 -->
<svg xmlns="http://www.w3.org/2000/svg" xmlns:xlink="http://www.w3.org/1999/xlink" xmlns:ev="http://www.w3.org/2001/xml-events"
		width="1.1274in" height="1.42984in" viewBox="0 0 81.1729 102.949" xml:space="preserve" color-interpolation-filters="sRGB"
		class="st6">
	<style type="text/css">
	<![CDATA[
		.st1 {fill:#59b4d9;stroke:none;stroke-linecap:butt;stroke-width:12.24}
		.st2 {fill:#ffffff;fill-opacity:0.9;stroke:none;stroke-linecap:butt;stroke-width:12.24}
		.st3 {fill:#3999c6;stroke:none;stroke-linecap:butt;stroke-width:12.24}
		.st4 {fill:#57a300;stroke:none;stroke-linecap:butt;stroke-width:12.24}
		.st5 {fill:#0072c6;stroke:none;stroke-linecap:butt;stroke-width:12.24}
		.st6 {fill:none;fill-rule:evenodd;font-size:12px;overflow:visible;stroke-linecap:square;stroke-miterlimit:3}
	]]>
	</style>

	<g>
		<title>Page-1</title>
		<g id="group12549-1" transform="translate(12.24,-34.0157)">
			<title>Automation Job.12549</title>
			<g id="group12550-2">
				<title>Sheet.12550</title>
				<g id="shape12551-3">
					<title>Sheet.12551</title>
					<path d="M53.29 102.95 L3.4 102.95 C1.52 102.95 0 101.43 0 99.55 L0 49.66 C0 47.78 1.52 46.26 3.4 46.26 L53.29
								 46.26 C55.17 46.26 56.69 47.78 56.69 49.66 L56.69 99.55 C56.69 101.43 55.17 102.95 53.29 102.95
								 Z" class="st1"/>
				</g>
				<g id="shape12552-5" transform="translate(3.40157,-3.40157)">
					<title>Sheet.12552</title>
					<rect x="0" y="53.0589" width="49.8898" height="49.8898" class="st2"/>
				</g>
				<g id="shape12553-7" transform="translate(7.93701,-9.07087)">
					<title>Sheet.12553</title>
					<path d="M13.63 87.07 L2.25 87.07 C1.01 87.07 0 88.08 0 89.32 L0 100.71 C0 101.94 1.01 102.95 2.25 102.95 L13.64
								 102.95 C14.88 102.95 15.89 101.94 15.89 100.7 L15.89 89.32 A2.26772 2.26772 -180 0 0 13.63 87.07
								 ZM13.63 64.4 L2.25 64.4 C1.01 64.4 0 65.41 0 66.64 L0 78.04 C0 79.26 1.01 80.27 2.25 80.27 L13.64
								 80.27 C14.88 80.27 15.89 79.26 15.89 78.03 L15.89 66.64 A2.26772 2.26772 -180 0 0 13.63 64.4 Z"
							class="st3"/>
				</g>
				<g id="shape12554-9" transform="translate(30.3874,-31.9255)">
					<title>Sheet.12554</title>
					<path d="M0.76 95.9 L0.16 95.26 a0.644031 0.644031 0 0 1 -0.15874 -0.419528 C0.01 94.69 0.08 94.54 0.19 94.44
								 L1.93 92.84 C2.04 92.74 2.18 92.68 2.31 92.68 C2.47 92.68 2.63 92.75 2.73 92.88 L7.37 97.85 L15.45
								 87.49 C15.57 87.35 15.73 87.26 15.91 87.26 C16.04 87.26 16.16 87.31 16.26 87.39 L18.13 88.83 C18.26
								 88.92 18.32 89.04 18.36 89.2 a0.578268 0.578268 0 0 1 -0.124724 0.430866 L7.99 102.74 a0.544252
								 0.544252 0 0 1 -0.827717 0.0340157 L0.76 95.9 Z" class="st4"/>
				</g>
				<g id="shape12555-11" transform="translate(31.68,-9.00283)">
					<title>Sheet.12555</title>
					<path d="M16.01 89.34 L13.61 86.94 L8.01 92.54 L2.4 86.94 L0 89.34 L5.6 94.94 L0 100.54 L2.4 102.95 L8.01 97.35
								 L13.61 102.95 L16.01 100.54 L10.41 94.94 L16.01 89.34 Z" class="st5"/>
				</g>
			</g>
		</g>
	</g>
</svg>
