<?xml version="1.0" encoding="UTF-8" standalone="no"?>
<!DOCTYPE svg PUBLIC "-//W3C//DTD SVG 1.1//EN" "http://www.w3.org/Graphics/SVG/1.1/DTD/svg11.dtd">
<!-- Generated by Microsoft Visio, SVG Export Azure LightHouse My customers.svg Page-1 -->
<svg xmlns="http://www.w3.org/2000/svg" xmlns:xlink="http://www.w3.org/1999/xlink" xmlns:ev="http://www.w3.org/2001/xml-events"
		width="1.7321in" height="1.57458in" viewBox="0 0 124.711 113.37" xml:space="preserve" color-interpolation-filters="sRGB"
		class="st5">
	<style type="text/css">
	<![CDATA[
		.st1 {fill:#0078d4;stroke:none;stroke-linecap:butt;stroke-width:34}
		.st2 {fill:#ffffff;fill-opacity:0.8;stroke:none;stroke-linecap:butt;stroke-width:34}
		.st3 {fill:url(#grad0-12);stroke:none;stroke-linecap:butt;stroke-width:34}
		.st4 {fill:url(#grad0-18);stroke:none;stroke-linecap:butt;stroke-width:34}
		.st5 {fill:none;fill-rule:evenodd;font-size:12px;overflow:visible;stroke-linecap:square;stroke-miterlimit:3}
	]]>
	</style>

	<defs id="Patterns_And_Gradients">
		<linearGradient id="grad0-12" x1="0" y1="0" x2="1" y2="0" gradientTransform="rotate(90 0.5 0.5)">
			<stop offset="0.22" stop-color="#32d4f5" stop-opacity="1"/>
			<stop offset="0.47" stop-color="#31d1f3" stop-opacity="1"/>
			<stop offset="0.63" stop-color="#2ec9eb" stop-opacity="1"/>
			<stop offset="0.77" stop-color="#29bade" stop-opacity="1"/>
			<stop offset="0.89" stop-color="#22a5cb" stop-opacity="1"/>
			<stop offset="1" stop-color="#198ab3" stop-opacity="1"/>
			<stop offset="1" stop-color="#198ab3" stop-opacity="1"/>
		</linearGradient>
		<linearGradient id="grad0-18" x1="0" y1="0" x2="1" y2="0" gradientTransform="rotate(85.401203911388 0.5 0.5)">
			<stop offset="0.22" stop-color="#32d4f5" stop-opacity="1"/>
			<stop offset="0.47" stop-color="#31d1f3" stop-opacity="1"/>
			<stop offset="0.63" stop-color="#2ec9eb" stop-opacity="1"/>
			<stop offset="0.77" stop-color="#29bade" stop-opacity="1"/>
			<stop offset="0.89" stop-color="#22a5cb" stop-opacity="1"/>
			<stop offset="1" stop-color="#198ab3" stop-opacity="1"/>
			<stop offset="1" stop-color="#198ab3" stop-opacity="1"/>
		</linearGradient>
	</defs>
	<g>
		<title>Page-1</title>
		<g id="group6316-1" transform="translate(34.0182,-34.0157)">
			<title>Azure LightHouse My customers.6316</title>
			<g id="group6317-2">
				<title>Sheet.6317</title>
				<g id="shape6318-3" transform="translate(28.5233,-7.51797)">
					<title>Sheet.6318</title>
					<path d="M25.63 113.37 A2.48713 2.4341 -180 0 0 28.15 110.94 a0.881515 0.862718 -180 0 0 2.4869E-14 -0.400548
								 C27.17 102.83 22.7 96.55 14.1 96.55 C5.51 96.55 0.88 101.97 0 110.54 A2.48713 2.4341 -180 0 0 2.24
								 113.25 L25.63 113.25 L25.63 113.37 Z" class="st1"/>
				</g>
				<g id="shape6319-5" transform="translate(38.3459,-12.7867)">
					<title>Sheet.6319</title>
					<path d="M4.25 103.76 A7.58733 7.42554 0 0 1 0 102.52 L4.22 113.37 L8.44 102.62 A8.1855 8.01096 0 0 1 4.25 103.76
								 Z" class="st2"/>
				</g>
				<g id="shape6320-7" transform="translate(34.6939,-22.3999)">
					<title>Sheet.6320</title>
					<ellipse cx="7.90215" cy="105.636" rx="7.90215" ry="7.73365" class="st1"/>
				</g>
				<g id="shape6321-9">
					<title>Sheet.6321</title>
					<path d="M38.31 113.37 A3.74644 3.66655 -180 0 0 42.06 109.7 A2.07786 2.03355 -180 0 0 42.06 109.27 C40.61 97.75
								 33.91 88.38 21.09 88.38 C8.28 88.38 1.32 96.33 0 109.18 A3.77792 3.69736 -180 0 0 3.34 113.22 L38.28
								 113.22 L38.31 113.37 Z" class="st3"/>
				</g>
				<g id="shape6322-13" transform="translate(14.9858,-7.91852)">
					<title>Sheet.6322</title>
					<path d="M6.3 99.04 A11.6486 11.4002 0 0 1 0 97.19 L6.3 113.37 L12.59 97.32 A11.869 11.6159 0 0 1 6.3 99.04 Z"
							class="st2"/>
				</g>
				<g id="shape6323-15" transform="translate(9.38184,-22.2458)">
					<title>Sheet.6323</title>
					<ellipse cx="11.806" cy="101.816" rx="11.806" ry="11.5543" class="st4"/>
				</g>
			</g>
		</g>
	</g>
</svg>
