<?xml version="1.0" encoding="UTF-8" standalone="no"?>
<!-- Generated by Microsoft Visio, SVG Export Azure Arc SCVMM Management Server.svg Page-1 -->
<svg xmlns:dc="http://purl.org/dc/elements/1.1/" xmlns:cc="http://creativecommons.org/ns#" xmlns:rdf="http://www.w3.org/1999/02/22-rdf-syntax-ns#" xmlns:svg="http://www.w3.org/2000/svg" xmlns="http://www.w3.org/2000/svg" xmlns:sodipodi="http://sodipodi.sourceforge.net/DTD/sodipodi-0.dtd" xmlns:inkscape="http://www.inkscape.org/namespaces/inkscape" width="56.660661" height="56.692553" viewBox="0 0 56.660661 56.692553" xml:space="preserve" class="st7" version="1.1" id="svg55" sodipodi:docname="Azure Arc SCVMM Management Server.svg" style="font-size:12px;overflow:visible;color-interpolation-filters:sRGB;fill:none;fill-rule:evenodd;stroke-linecap:square;stroke-miterlimit:3" inkscape:version="0.92.5 (2060ec1f9f, 2020-04-08)">
  <metadata id="metadata59">
    <rdf:RDF>
      <cc:Work rdf:about="">
        <dc:format>image/svg+xml</dc:format>
        <dc:type rdf:resource="http://purl.org/dc/dcmitype/StillImage" />
      </cc:Work>
    </rdf:RDF>
  </metadata>
  <sodipodi:namedview pagecolor="#ffffff" bordercolor="#666666" borderopacity="1" objecttolerance="10" gridtolerance="10" guidetolerance="10" inkscape:pageopacity="0" inkscape:pageshadow="2" inkscape:window-width="640" inkscape:window-height="480" id="namedview57" showgrid="false" inkscape:zoom="1.4193119" inkscape:cx="37.775004" inkscape:cy="37.781209" inkscape:window-x="0" inkscape:window-y="0" inkscape:window-maximized="0" inkscape:current-layer="svg55" />
	<style type="text/css" id="style2">
	<![CDATA[
		.st1 {fill:#5ea0ef;stroke:none;stroke-linecap:butt;stroke-width:34}
		.st2 {fill:#50e6ff;stroke:none;stroke-linecap:butt;stroke-width:34}
		.st3 {fill:#005ba1;stroke:none;stroke-linecap:butt;stroke-width:34}
		.st4 {fill:#0078d4;stroke:none;stroke-linecap:butt;stroke-width:34}
		.st5 {fill:#ffffff;stroke:none;stroke-linecap:butt;stroke-width:34}
		.st6 {fill:url(#grad0-18);stroke:none;stroke-linecap:butt;stroke-width:34}
		.st7 {fill:none;fill-rule:evenodd;font-size:12px;overflow:visible;stroke-linecap:square;stroke-miterlimit:3}
	]]>
	</style>

	<defs id="Patterns_And_Gradients">
		<linearGradient id="grad0-18" x1="-3.028049e-15" y1="122.4643" x2="23.856437" y2="122.4643" gradientTransform="scale(1.1732682,0.85232002)" gradientUnits="userSpaceOnUse">
			<stop offset="0.18" stop-color="#5ea0ef" stop-opacity="1" id="stop4" />
			<stop offset="1" stop-color="#0078d4" stop-opacity="1" id="stop6" />
		</linearGradient>
	</defs>
	<g id="g53" transform="translate(-34.001121,-33.998)">
		<title id="title10">Page-1</title>
		<g id="group13628-1" transform="translate(33.9718,-34.0157)">
			<title id="title12">Azure Arc SCVMM Management Server.13628</title>
			<g id="group13629-2">
				<title id="title14">g18</title>
				<g id="shape13630-3">
					<title id="title16">path2</title>
					<path d="m 56.6,115.4 c -0.53,2.34 -3.42,4.61 -8.65,6.4 A 71.3313,71.6463 0 0 1 7.9,121.85 c -4.82,-1.7 -7.42,-3.89 -7.82,-6.1 -0.08,-0.39 0,-6.37 0,-6.37 l 56.61,-0.53 c 0,0 -0.03,6.27 -0.09,6.55 z" class="st1" id="path18" inkscape:connector-curvature="0" style="fill:#5ea0ef;stroke:none;stroke-width:34;stroke-linecap:butt" />
				</g>
				<g id="shape13631-5" transform="translate(0.0094441,-5.46642)">
					<title id="title21">path4</title>
					<path d="m 56.68,114.42 v 0.08 c -0.04,5.4 -12.65,9.9 -28.23,10.05 -15.14,0.16 -27.53,-3.83 -28.38,-9.01 A 3.05044,3.06391 0 0 1 0.02,115 c -0.02,-2.38 2.4,-4.59 6.45,-6.34 a 59.778,60.042 0 0 1 21.79,-3.79 59.7717,60.0356 0 0 1 21.9,3.36 c 3.99,1.63 6.42,3.75 6.52,6.08 z" class="st2" id="path23" inkscape:connector-curvature="0" style="fill:#50e6ff;stroke:none;stroke-width:34;stroke-linecap:butt" />
				</g>
				<g id="shape13632-7" transform="translate(4.26873,-12.7863)">
					<title id="title26">rect6</title>
					<path d="m 0,122.93 a 1.77238,1.78021 -180 0 0 1.77,1.78 h 35.3 a 1.77238,1.78021 -180 0 0 1.77,-1.78 v -11.08 a 1.77238,1.78021 -180 0 0 -1.77,-1.78 H 1.77 A 1.77238,1.78021 -180 0 0 0,111.85 Z" class="st3" id="path28" inkscape:connector-curvature="0" style="fill:#005ba1;stroke:none;stroke-width:34;stroke-linecap:butt" />
				</g>
				<g id="shape13633-9" transform="translate(4.26873,-27.4197)">
					<title id="title31">rect8</title>
					<path d="m 0,122.93 a 1.77238,1.78021 -180 0 0 1.77,1.78 h 35.3 a 1.77238,1.78021 -180 0 0 1.77,-1.78 v -11.08 a 1.77238,1.78021 -180 0 0 -1.77,-1.78 H 1.77 A 1.77238,1.78021 -180 0 0 0,111.85 Z" class="st4" id="path33" inkscape:connector-curvature="0" style="fill:#0078d4;stroke:none;stroke-width:34;stroke-linecap:butt" />
				</g>
				<g id="shape13634-11" transform="translate(4.26873,-42.0563)">
					<title id="title36">rect10</title>
					<path d="m 0,122.93 a 1.77238,1.78021 -180 0 0 1.77,1.78 h 35.3 a 1.77238,1.78021 -180 0 0 1.77,-1.78 v -11.08 a 1.77238,1.78021 -180 0 0 -1.77,-1.78 H 1.77 A 1.77238,1.78021 -180 0 0 0,111.85 Z" class="st1" id="path38" inkscape:connector-curvature="0" style="fill:#5ea0ef;stroke:none;stroke-width:34;stroke-linecap:butt" />
				</g>
				<g id="shape13635-13" transform="translate(7.81656,-17.9529)">
					<title id="title41">path12</title>
					<path d="M 0,93.29 A 2.14066,2.15012 0 0 1 2.14,91.14 2.13751,2.14695 0 0 1 4.28,93.29 2.13751,2.14695 0 0 1 2.14,95.44 2.14066,2.15012 0 0 1 0,93.29 Z m 14.67,0 A 0.661087,0.664006 -180 0 0 14.005765,92.622832 L 7.2,92.62 a 0.66423699,0.66717 -180 1 0 0,1.33434 l 6.81,0.0057 a 0.664235,0.667168 -180 0 0 0.664235,-0.667168 z m 0,14.63 a 0.661087,0.664006 -180 0 0 -0.664235,-0.66717 L 7.2,107.25 a 0.66423699,0.66717 -180 0 0 0,1.33434 l 6.81,0.006 a 0.661087,0.664006 -180 0 0 0.664235,-0.66717 z m 0,14.64 a 0.661087,0.664006 -180 0 0 -0.664235,-0.66717 L 7.2,121.89 a 0.664235,0.667168 -180 1 0 0,1.33117 l 6.81,-0.001 a 0.661087,0.664006 -180 0 0 0.664235,-0.66401 z M 2.14,110.07 a 2.13751,2.14695 -180 0 0 2.14,-2.15 2.14066,2.15012 -180 0 0 -2.14,-2.15 2.14381,2.15328 -180 0 0 -2.14,2.15 2.14066,2.15012 -180 0 0 2.14,2.15 z m 0,14.64 a 2.14066,2.15012 -180 0 0 2.14,-2.15 2.13751,2.14695 -180 0 0 -2.14,-2.15 2.14066,2.15012 -180 0 0 -2.14,2.15 2.14381,2.15328 -180 0 0 2.14,2.15 z" class="st5" id="path43" inkscape:connector-curvature="0" style="fill:#ffffff;stroke:none;stroke-width:34;stroke-linecap:butt" />
				</g>
				<g id="shape13636-15" transform="translate(24.4602,-12.7895)">
					<title id="title46">path16</title>
					<path d="m 27.99,118.32 a 6.35903,6.38711 -180 0 0 -5.44,-6.15 8.02433,8.05977 -180 0 0 -8.16,-7.79 8.1597,8.19573 -180 0 0 -7.82,5.45 7.55528,7.58864 -180 0 0 -6.57,7.36 7.69379,7.72777 -180 0 0 7.87,7.52 h 13.81 a 6.42199,6.45035 -180 0 0 6.31,-6.39 z" class="st6" id="path48" inkscape:connector-curvature="0" style="fill:url(#grad0-18);stroke:none;stroke-width:34;stroke-linecap:butt" />
				</g>
			</g>
		</g>
	</g>
</svg>