<?xml version="1.0" encoding="UTF-8" standalone="no"?>
<!DOCTYPE svg PUBLIC "-//W3C//DTD SVG 1.1//EN" "http://www.w3.org/Graphics/SVG/1.1/DTD/svg11.dtd">
<!-- Generated by Microsoft Visio, SVG Export Azure Role Based Access Control.svg Page-1 -->
<svg xmlns="http://www.w3.org/2000/svg" xmlns:xlink="http://www.w3.org/1999/xlink" xmlns:ev="http://www.w3.org/2001/xml-events"
		width="0.944882in" height="1.33858in" viewBox="0 0 68.0315 96.378" xml:space="preserve" color-interpolation-filters="sRGB"
		class="st3">
	<style type="text/css">
	<![CDATA[
		.st1 {fill:url(#grad0-9);stroke:none;stroke-linecap:butt;stroke-width:1.15109}
		.st2 {fill:url(#grad0-14);stroke:none;stroke-linecap:butt;stroke-width:1.15109}
		.st3 {fill:none;fill-rule:evenodd;font-size:12px;overflow:visible;stroke-linecap:square;stroke-miterlimit:3}
	]]>
	</style>

	<defs id="Patterns_And_Gradients">
		<linearGradient id="grad0-9" x1="0" y1="0" x2="1" y2="0" gradientTransform="rotate(89.928501126486 0.5 0.5)">
			<stop offset="0.22" stop-color="#32d4f5" stop-opacity="1"/>
			<stop offset="1" stop-color="#198ab3" stop-opacity="1"/>
		</linearGradient>
		<linearGradient id="grad0-14" x1="0" y1="0" x2="1" y2="0" gradientTransform="rotate(89.619091264739 0.5 0.5)">
			<stop offset="0.22" stop-color="#32d4f5" stop-opacity="1"/>
			<stop offset="1" stop-color="#198ab3" stop-opacity="1"/>
		</linearGradient>
	</defs>
	<g>
		<title>Page-1</title>
		<g id="group1170-1" transform="translate(5.66929,-34.0157)">
			<title>Azure Role Based Access Control</title>
			<g id="group1171-2">
				<title>paths</title>
				<g id="group1172-3">
					<title>Microsoft_account</title>
					<g id="group1173-4">
						<title>group1068-2156_1_</title>
						<g id="group1174-5">
							<title>Sheet.1174</title>
							<g id="shape1175-6">
								<title>path5</title>
								<path d="M56.69 73.5 L28.42 39.69 L0 73.36 L28.28 96.38 L56.69 73.5 ZM24.76 85.15 L24.76 70.84 C22.09
											 69.43 20.4 66.63 20.4 63.26 C20.4 58.63 23.92 54.84 28.28 54.84 C32.64 54.84 36.15 58.63
											 36.15 63.26 C36.15 66.49 34.33 69.43 31.79 70.7 L31.79 73.5 L31.65 73.64 L28.98 76.45
											 L31.79 79.4 L31.79 79.54 L29.26 82.35 L31.65 85.01 L28.14 88.66 L24.76 85.15 Z"
										class="st1"/>
							</g>
						</g>
						<g id="group1176-10" transform="translate(25.4776,-32.4349)">
							<title>Sheet.1176</title>
							<g id="shape1177-11">
								<title>path10</title>
								<path d="M5.77 93.43 C5.77 92.03 4.08 90.91 2.81 90.91 C1.41 90.91 0 91.89 0 93.29 C0 94.69 1.41
											 96.24 2.81 96.24 C4.08 96.38 5.77 94.97 5.77 93.43 Z" class="st2"/>
							</g>
						</g>
					</g>
				</g>
			</g>
		</g>
	</g>
</svg>
