<?xml version="1.0" encoding="UTF-8" standalone="no"?>
<!DOCTYPE svg PUBLIC "-//W3C//DTD SVG 1.1//EN" "http://www.w3.org/Graphics/SVG/1.1/DTD/svg11.dtd">
<!-- Generated by Microsoft Visio, SVG Export Azure Lighthouse.svg Page-1 -->
<svg xmlns="http://www.w3.org/2000/svg" xmlns:xlink="http://www.w3.org/1999/xlink" xmlns:ev="http://www.w3.org/2001/xml-events"
		width="1.61823in" height="1.73206in" viewBox="0 0 116.513 124.709" xml:space="preserve" color-interpolation-filters="sRGB"
		class="st4">
	<style type="text/css">
	<![CDATA[
		.st1 {fill:url(#grad0-6);stroke:none;stroke-linecap:butt;stroke-width:34}
		.st2 {fill:#83b9f9;stroke:none;stroke-linecap:butt;stroke-width:34}
		.st3 {fill:#0078d4;stroke:none;stroke-linecap:butt;stroke-width:34}
		.st4 {fill:none;fill-rule:evenodd;font-size:12px;overflow:visible;stroke-linecap:square;stroke-miterlimit:3}
	]]>
	</style>

	<defs id="Patterns_And_Gradients">
		<linearGradient id="grad0-6" x1="0" y1="0" x2="1" y2="0" gradientTransform="rotate(-90 0.5 0.5)">
			<stop offset="0" stop-color="#0078d4" stop-opacity="1"/>
			<stop offset="0.16" stop-color="#1380da" stop-opacity="1"/>
			<stop offset="0.53" stop-color="#3c91e5" stop-opacity="1"/>
			<stop offset="0.82" stop-color="#559cec" stop-opacity="1"/>
			<stop offset="1" stop-color="#5ea0ef" stop-opacity="1"/>
		</linearGradient>
	</defs>
	<g>
		<title>Page-1</title>
		<g id="group11755-1" transform="translate(34.1619,-34.0157)">
			<title>Azure Lighthouse.11755</title>
			<g id="group11756-2">
				<title>Icon471-AzureLighthouse</title>
				<g id="shape11757-3">
					<title>Sheet.11757</title>
					<path d="M48.19 122.21 L36.88 92.38 a0.88189 0.89634 -180 0 0 -0.818898 -0.576218 L28 91.8 L28 84.69 A4.09449
								 4.16158 -180 1 0 19.84 84.69 L19.84 91.8 L12.57 91.8 a0.913386 0.928352 -180 0 0 -0.850394 0.576218
								 L0 122.21 A1.73228 1.76067 -180 0 0 1.42 124.71 L46.77 124.71 A1.73228 1.76067 -180 0 0 48.19 122.21
								 Z" class="st1"/>
				</g>
				<g id="shape11758-7" transform="translate(1.41732,0)">
					<title>Sheet.11758</title>
					<path d="M4.94 105.95 L32.13 91.8 L34.49 91.8 a0.88189 0.89634 0 0 1 0.850394 0.60823 L37.95 99.29 L0 118.75
								 L4.94 105.95 ZM24.38 124.64 L43.28 113.12 L46.71 122.21 A1.76378 1.79268 0 0 1 45.26 124.71 L24.38
								 124.64 Z" class="st2"/>
				</g>
				<g id="shape11759-9" transform="translate(10.4567,-32.9085)">
					<title>Sheet.11759</title>
					<path d="M13.23 100.96 L0.25 108.61 a0.503937 0.512194 -180 0 0 -0.251969 0.44817 L0 110.24 a0.503937 0.512194
								 -180 0 0 0.503937 0.512194 L2.46 110.75 L2.46 124.71 L4.91 124.71 L4.91 110.75 L22.05 110.75 L22.05
								 124.71 L24.47 124.71 L24.47 110.75 L26.46 110.75 a0.503937 0.512194 -180 0 0 0.503937 -0.512194
								 L26.96 109.05 a0.503937 0.512194 -180 0 0 -0.251969 -0.44817 L13.64 100.96 a0.692913 0.704267 -180
								 0 0 -0.409449 2.84217E-14 Z" class="st3"/>
				</g>
			</g>
		</g>
	</g>
</svg>
