<?xml version="1.0" encoding="UTF-8" standalone="no"?>
<!DOCTYPE svg PUBLIC "-//W3C//DTD SVG 1.1//EN" "http://www.w3.org/Graphics/SVG/1.1/DTD/svg11.dtd">
<!-- Generated by Microsoft Visio, SVG Export Azure Arc PostgreSQL Server Group.svg Page-1 -->
<svg xmlns="http://www.w3.org/2000/svg" xmlns:xlink="http://www.w3.org/1999/xlink" xmlns:ev="http://www.w3.org/2001/xml-events"
		width="1.68993in" height="1.73206in" viewBox="0 0 121.675 124.709" xml:space="preserve" color-interpolation-filters="sRGB"
		class="st11">
	<style type="text/css">
	<![CDATA[
		.st1 {fill:#5ea0ef;stroke:none;stroke-linecap:butt;stroke-width:34}
		.st2 {fill:#50e6ff;stroke:none;stroke-linecap:butt;stroke-width:34}
		.st3 {fill:url(#grad0-10);stroke:none;stroke-linecap:butt;stroke-width:34}
		.st4 {fill:#e8e8e8;stroke:none;stroke-linecap:butt;stroke-width:34}
		.st5 {fill:#50e6ff}
		.st6 {stroke:none;stroke-linecap:butt;stroke-width:34}
		.st7 {fill:#198ab3;stroke:none;stroke-linecap:butt;stroke-width:34}
		.st8 {fill:#f2f2f2;stroke:none;stroke-linecap:butt;stroke-width:34}
		.st9 {fill:#76bc2d;stroke:none;stroke-linecap:butt;stroke-width:34}
		.st10 {fill:#ffffff;stroke:none;stroke-linecap:butt;stroke-width:34}
		.st11 {fill:none;fill-rule:evenodd;font-size:12px;overflow:visible;stroke-linecap:square;stroke-miterlimit:3}
	]]>
	</style>

	<defs id="Patterns_And_Gradients">
		<linearGradient id="grad0-10" x1="0" y1="0" x2="1" y2="0" gradientTransform="rotate(0 0.5 0.5)">
			<stop offset="0" stop-color="#005ba1" stop-opacity="1"/>
			<stop offset="1" stop-color="#005ba1" stop-opacity="1"/>
		</linearGradient>
	</defs>
	<g>
		<title>Page-1</title>
		<g id="group10126-1" transform="translate(33.9071,-34.0157)">
			<title>Azure Arc PostgreSQL Server Group.10126</title>
			<g id="group10127-2">
				<title>Sheet.10127</title>
				<g id="shape10128-3" transform="translate(0.0746201,0)">
					<title>Sheet.10128</title>
					<path d="M53.61 115.83 C53.11 118.05 50.37 120.23 45.42 121.93 A67.5472 68.2711 0 0 1 7.47 121.99 C2.91 120.36
								 0.45 118.29 0.07 116.16 C0 115.79 0.07 109.94 0.07 109.94 L53.69 109.44 C53.69 109.44 53.67 115.56
								 53.61 115.83 Z" class="st1"/>
				</g>
				<g id="shape10129-5" transform="translate(-1.06428,-5.23261) rotate(-0.575)">
					<title>Sheet.10129</title>
					<ellipse cx="26.8374" cy="115.331" rx="26.8374" ry="9.37799" class="st2"/>
				</g>
				<g id="shape10130-7" transform="translate(7.96373,-9.88204)">
					<title>Sheet.10130</title>
					<path d="M17.46 90.67 C7.82 90.67 0 87.92 0 84.29 L0 118.32 C0 121.82 7.68 124.65 17.21 124.71 L17.46 124.71
								 C27.11 124.71 34.92 121.95 34.92 118.32 L34.92 84.29 C34.92 87.84 27.1 90.67 17.46 90.67 Z"
							class="st3"/>
				</g>
				<g id="shape10131-11" transform="translate(7.96373,-43.918)">
					<title>Sheet.10131</title>
					<path d="M34.92 118.32 C34.92 121.87 27.1 124.71 17.46 124.71 C7.82 124.71 0 121.97 0 118.32 C0 114.68 7.82 111.93
								 17.46 111.93 C27.11 111.93 34.92 114.69 34.92 118.32 Z" class="st4"/>
				</g>
				<g id="shape10132-13" transform="translate(12.0225,-46.7519)">
					<title>Sheet.10132</title>
					<path d="M26.8 120.63 C26.8 122.89 20.78 124.71 13.39 124.71 C6.01 124.71 0 122.88 0 120.63 C0 118.38 6.02 116.58
								 13.4 116.58 C20.79 116.58 26.8 118.4 26.8 120.64 L26.8 120.63 Z" class="st5"/>
					<path d="M26.8 120.63 C26.8 122.89 20.78 124.71 13.39 124.71 C6.01 124.71 0 122.88 0 120.63 C0 118.38 6.02 116.58
								 13.4 116.58 C20.79 116.58 26.8 118.4 26.8 120.64" class="st6"/>
				</g>
				<g id="shape10133-16" transform="translate(14.8295,-46.7488)">
					<title>Sheet.10133</title>
					<path d="M10.6 121.63 A31.4626 31.7998 -180 0 0 -0 123.22 A31.1089 31.4424 -180 0 0 10.6 124.71 A30.3047 30.6295
								 -180 0 0 21.19 123.13 A32.32 32.6664 -180 0 0 10.6 121.63 Z" class="st7"/>
				</g>
				<g id="shape10134-18" transform="translate(13.728,-14.5568)">
					<title>Sheet.10134</title>
					<path d="M20.42 106.19 L20.42 107.34 A14.4795 14.6347 -180 0 0 20.21 109.08 A4.3279 4.37429 -180 0 0 20.34 110.34
								 A2.30008 2.32473 0 0 1 20.34 111.33 A4.54696 4.59569 0 0 1 19.66 113.7 a0.97323 0.983661 -180 0
								 0 -1.77636E-14 0.192937 L19.93 114.22 A28.7557 29.0639 -180 0 0 22.82 107.67 C23.58 105.06 23.66
								 103.19 23.06 102.39 A7.02228 7.09754 -180 0 0 15.77 100.02 A8.88425 8.97946 0 0 1 18.24 101.87 A6.19926
								 6.2657 0 0 1 20.42 106.19 ZM19.58 106.41 A3.12936 3.1629 -180 0 0 17.43 106.65 C16.64 107.15 16.88
								 108.17 17.43 109.41 A21.5707 21.8018 -180 0 0 18.37 111.75 L18.61 112.19 C18.75 112.4 18.83 112.6
								 18.92 112.74 L19.14 113.09 A3.4861 3.52347 -180 0 0 19.63 111.3 A7.16623 7.24303 -180 0 0 19.63
								 110.4 A4.1464 4.19084 -180 0 0 19.5 109.05 A16.4197 16.5957 0 0 1 19.71 107.15 A2.17177 2.19505
								 0 0 1 19.68 106.32 L19.58 106.41 ZM18.76 107.53 A1.04833 1.05957 0 0 1 18.27 107.81 a0.873091 0.882448
								 0 0 1 -0.381782 2.84217E-14 a0.625872 0.632579 0 0 1 -0.190891 -0.521878 C17.7 107.09 18.01 106.93
								 18.35 106.88 L18.87 106.88 C18.87 106.88 19.12 106.88 19.12 107.09 a0.544508 0.550344 0 0 1 -0.247219
								 0.357407 L18.76 107.53 ZM6 110 L6 109.52 A2.86023 2.89089 -180 0 0 6 109.05 A14.6517 14.8087 0 0
								 1 6 106.3 A13.9601 14.1097 0 0 1 6.82 103.27 A6.54975 6.61994 0 0 1 8.38 100.68 A12.9242 13.0628
								 -180 0 0 4.71 100.13 A5.06956 5.12389 -180 0 0 1.72 100.96 A5.44195 5.50028 -180 0 0 0 105.97 A33.5686
								 33.9284 -180 0 0 1.36 112.13 C2.3 115.27 3.35 117.19 4.27 117.51 C4.68 117.65 5.12 117.51 5.55 116.93
								 C6.32 115.98 7.03 115.19 7.43 114.72 A5.11024 5.16501 0 0 1 6.1 109.9 L6 110 ZM6.71 111.1 A5.94578
								 6.0095 -180 0 0 6.87 112.64 A4.13388 4.17819 -180 0 0 7.58 113.85 A2.70689 2.73591 -180 0 0 9.59
								 114.76 A5.66101 5.72168 0 0 1 10.22 113.11 A11.2657 11.3864 -180 0 0 10.79 111.49 A18.0564 18.2499
								 -180 0 0 10.79 108.43 A1.56468 1.58145 -180 0 0 10.63 107.61 A1.22045 1.23353 -180 0 0 10.29 106.84
								 A1.76809 1.78704 -180 0 0 9.53 106.4 L8.99 106.4 A4.24341 4.28889 -180 0 0 7.68 106.78 A5.41692
								 5.47497 -180 0 0 6.81 107.31 L6.81 109.29 A2.98854 3.02057 0 0 1 6.81 109.7 L6.81 110.77 L6.71 111.1
								 ZM8.51 107.4 A1.27052 1.28414 0 0 1 9.27 107.4 A1.68359 1.70164 0 0 1 9.79 107.56 C10.03 107.56
								 10.06 107.88 10.03 107.95 A1.03582 1.04692 0 0 1 9.72 108.31 a0.707235 0.714815 0 0 1 -0.162727
								 -0.110701 a0.938807 0.948869 0 0 1 -0.763563 -0.768584 L8.51 107.4 ZM10.52 115.65 a0.625872 0.632579
								 -180 0 0 -0.353617 0.164471 L9.79 116.29 C9.32 116.86 9.13 117.06 7.8 117.33 A1.41447 1.42963 -180
								 0 0 7.09 117.61 A1.56468 1.58145 -180 0 0 7.75 117.92 A3.22011 3.25462 -180 0 0 9.7 117.92 A4.75036
								 4.80128 -180 0 0 10.76 117.21 A1.63665 1.6542 -180 0 0 11.31 116.36 a0.97323 0.983661 -180 0 0 -0.272254
								 -0.771747 a0.406816 0.411177 -180 0 0 -0.406816 -0.0537692 L10.52 115.65 ZM23.07 115.65 A4.40926
								 4.45652 0 0 1 20 115.65 a0.625872 0.632579 -180 0 0 -0.381782 0 a0.823021 0.831842 -180 0 0 -0.463145
								 0.385873 A3.18256 3.21667 -180 0 0 19.15 116.89 A4.92248 4.97524 -180 0 0 22.15 116.62 A3.6989 3.73854
								 -180 0 0 23.45 115.67 L23.07 115.65 ZM16.53 109.76 C16.15 108.63 15.59 107.01 17.02 106.02 A3.68638
								 3.72589 0 0 1 19.46 105.61 A8.64642 8.73908 -180 0 0 17.72 102.45 L17.44 102.17 L17.27 102 A1.00139
								 1.01213 -180 0 0 17.11 101.84 A6.39641 6.46496 -180 0 0 15.28 100.68 A7.16936 7.2462 -180 0 0 12.26
								 100.08 A4.17769 4.22247 -180 0 0 10.36 100.39 A4.73159 4.7823 -180 0 0 9.54 100.71 A5.69856 5.75963
								 -180 0 0 7.52 103.46 A16.135 16.3079 -180 0 0 6.94 106.19 A4.51566 4.56406 0 0 1 9.66 105.55 A2.28756
								 2.31208 0 0 1 11.76 108.04 L11.76 108.06 A19.3363 19.5435 0 0 1 11.76 111.55 A10.2299 10.3395 0
								 0 1 11.14 113.29 C10.97 113.76 10.76 114.24 10.65 114.63 A1.36127 1.37586 0 0 1 11.68 115.02 A1.80564
								 1.82499 0 0 1 12.2 116.48 L12.26 116.48 L12.26 117.14 A17.781 17.9716 -180 0 0 12.91 123.85 A1.43638
								 1.45177 -180 0 0 13.57 124.43 A1.64917 1.66685 -180 0 0 14.41 124.71 A3.55182 3.58989 -180 0 0 17.14
								 123.76 A2.86023 2.89089 -180 0 0 17.92 121.94 C18.12 120.7 18.52 117.27 18.58 116.44 A1.95272 1.97365
								 0 0 1 18.82 115.23 A1.71176 1.7301 0 0 1 19.56 114.57 A14.5922 14.7486 0 0 1 16.64 109.6 L16.53
								 109.76 Z" class="st8"/>
				</g>
				<g id="shape10135-20" transform="translate(-41.0041,22.36) rotate(-40.155)">
					<title>Sheet.10135</title>
					<ellipse cx="8.37729" cy="118.566" rx="8.37729" ry="6.14235" class="st9"/>
				</g>
				<g id="shape10136-22" transform="translate(35.6867,-12.3333)">
					<title>Sheet.10136</title>
					<path d="M4.11 122.57 A2.93847 2.96996 0 0 1 4.23 117.54 C7.36 115.27 7.56 118.54 5.05 118.97 C5.05 120.14 8.32
								 120.01 9.74 117.39 C11.33 114.42 6.67 112.55 2.64 117.04 C0.06 119.92 0 123.85 2.28 124.71 A6.88459
								 6.95837 -180 0 0 11.11 117.43 C8.92 122.56 5.83 123.3 4.11 122.57 Z" class="st10"/>
				</g>
			</g>
		</g>
	</g>
</svg>
