<?xml version="1.0" encoding="UTF-8" standalone="no"?>
<!-- Generated by Microsoft Visio, SVG Export Azure Arc SQL Managed Instance.svg Page-1 -->
<svg xmlns:dc="http://purl.org/dc/elements/1.1/" xmlns:cc="http://creativecommons.org/ns#" xmlns:rdf="http://www.w3.org/1999/02/22-rdf-syntax-ns#" xmlns:svg="http://www.w3.org/2000/svg" xmlns="http://www.w3.org/2000/svg" xmlns:sodipodi="http://sodipodi.sourceforge.net/DTD/sodipodi-0.dtd" xmlns:inkscape="http://www.inkscape.org/namespaces/inkscape" width="53.67215" height="56.695463" viewBox="0 0 53.67215 56.695463" xml:space="preserve" class="st7" version="1.1" id="svg60" sodipodi:docname="Azure Arc SQL Managed Instance.svg" style="font-size:12px;overflow:visible;color-interpolation-filters:sRGB;fill:none;fill-rule:evenodd;stroke-linecap:square;stroke-miterlimit:3" inkscape:version="0.92.5 (2060ec1f9f, 2020-04-08)">
  <metadata id="metadata64">
    <rdf:RDF>
      <cc:Work rdf:about="">
        <dc:format>image/svg+xml</dc:format>
        <dc:type rdf:resource="http://purl.org/dc/dcmitype/StillImage" />
      </cc:Work>
    </rdf:RDF>
  </metadata>
  <sodipodi:namedview pagecolor="#ffffff" bordercolor="#666666" borderopacity="1" objecttolerance="10" gridtolerance="10" guidetolerance="10" inkscape:pageopacity="0" inkscape:pageshadow="2" inkscape:window-width="640" inkscape:window-height="480" id="namedview62" showgrid="false" inkscape:zoom="1.4193119" inkscape:cx="35.783208" inkscape:cy="37.786009" inkscape:window-x="0" inkscape:window-y="0" inkscape:window-maximized="0" inkscape:current-layer="svg60" />
	<style type="text/css" id="style2">
	<![CDATA[
		.st1 {fill:#5ea0ef;stroke:none;stroke-linecap:butt;stroke-width:34}
		.st2 {fill:#50e6ff;stroke:none;stroke-linecap:butt;stroke-width:34}
		.st3 {fill:url(#grad0-10);stroke:none;stroke-linecap:butt;stroke-width:34}
		.st4 {fill:#003067;stroke:none;stroke-linecap:butt;stroke-width:34}
		.st5 {fill:url(#grad0-18);stroke:none;stroke-linecap:butt;stroke-width:34}
		.st6 {fill:#f2f2f2;stroke:none;stroke-linecap:butt;stroke-width:34}
		.st7 {fill:none;fill-rule:evenodd;font-size:12px;overflow:visible;stroke-linecap:square;stroke-miterlimit:3}
	]]>
	</style>

	<defs id="Patterns_And_Gradients">
		<linearGradient id="grad0-10" x1="-0.00021805479" y1="61.486653" x2="33.649612" y2="61.486653" gradientTransform="scale(0.7628617,1.3108536)" gradientUnits="userSpaceOnUse">
			<stop offset="0" stop-color="#949494" stop-opacity="1" id="stop4" />
			<stop offset="1" stop-color="#b3b3b3" stop-opacity="1" id="stop6" />
		</linearGradient>
		<linearGradient id="grad0-18" x1="0" y1="114.82995" x2="32.92706" y2="114.82995" gradientTransform="scale(1.1847399,0.84406716)" gradientUnits="userSpaceOnUse">
			<stop offset="0" stop-color="#0078d4" stop-opacity="1" id="stop9" />
			<stop offset="1" stop-color="#5ea0ef" stop-opacity="1" id="stop11" />
		</linearGradient>
	</defs>
	<g id="g58" transform="translate(-34.000259,-33.9987)">
		<title id="title15">Page-1</title>
		<g id="group13605-1" transform="translate(33.907,-34.0157)">
			<title id="title17">Azure Arc SQL Managed Instance.13605</title>
			<g id="group13606-2">
				<title id="title19">Sheet.13606</title>
				<g id="shape13607-3" transform="translate(0.0746201)">
					<title id="title21">Sheet.13607</title>
					<path d="m 53.61,115.85 c -0.5,2.21 -3.24,4.39 -8.19,6.09 a 67.5472,68.1646 0 0 1 -37.95,0.05 c -4.56,-1.62 -7.02,-3.69 -7.4,-5.82 -0.07,-0.37 0,-6.2 0,-6.2 l 53.62,-0.51 c 0,0 -0.02,6.12 -0.08,6.39 z" class="st1" id="path23" inkscape:connector-curvature="0" style="fill:#5ea0ef;stroke:none;stroke-width:34;stroke-linecap:butt" />
				</g>
				<g id="shape13608-5" transform="rotate(-0.575,-521.07445,103.45205)">
					<title id="title26">Sheet.13608</title>
					<ellipse cx="26.8374" cy="115.345" rx="26.8374" ry="9.3633604" class="st2" id="ellipse28" style="fill:#50e6ff;stroke:none;stroke-width:34;stroke-linecap:butt" />
				</g>
				<g id="shape13609-7" transform="translate(5.53848,-12.5856)">
					<title id="title31">Sheet.13609</title>
					<path d="m 25.67,123.21 a 1.51461,1.52845 0 0 1 -1.49,1.5 H 1.49 A 1.48957,1.50319 0 0 1 0,123.21 V 82.1 a 1.46454,1.47793 0 0 1 1.44,-1.5 h 22.74 a 1.48957,1.50319 0 0 1 1.49,1.5 z" class="st3" id="path33" inkscape:connector-curvature="0" style="fill:url(#grad0-10);stroke:none;stroke-width:34;stroke-linecap:butt" />
				</g>
				<g id="shape13610-11" transform="translate(9.3031,-38.3925)">
					<title id="title36">Sheet.13610</title>
					<path d="m 0,121.87 a 2.79452,2.82006 0 0 1 2.77,-2.8 h 12.81 a 2.79452,2.82006 0 0 1 2.87,2.74 v 0.06 a 2.81642,2.84217 0 0 1 -2.79,2.84 H 2.77 A 2.79452,2.82006 0 0 1 0,121.87 Z m 2.77,-5.54 h 12.86 a 2.79452,2.82006 -180 0 0 2.82,-2.8 0.707235,0.7137 -180 0 0 0,-0.0821 2.79452,2.82006 -180 0 0 -2.87,-2.7379 H 2.77 a 2.78513,2.81059 -180 0 0 0,5.62 z" class="st4" id="path38" inkscape:connector-curvature="0" style="fill:#003067;stroke:none;stroke-width:34;stroke-linecap:butt" />
				</g>
				<g id="shape13611-13" transform="translate(10.342,-39.8949)">
					<title id="title41">Sheet.13611</title>
					<path d="m 1.88,113.13 a 1.87761,1.89478 0 1 1 -1.88,1.9 1.87761,1.89478 0 0 1 1.88,-1.9 z M 0,123.37 a 1.87761,1.89478 -180 1 0 1.88,-1.9 1.87761,1.89478 -180 0 0 -1.88,1.9 z" class="st2" id="path43" inkscape:connector-curvature="0" style="fill:#50e6ff;stroke:none;stroke-width:34;stroke-linecap:butt" />
				</g>
				<g id="shape13612-15" transform="translate(10.9679,-12.4277)">
					<title id="title46">Sheet.13612</title>
					<path d="M 39.01,115.98 A 8.78098,8.86125 -180 0 0 31.4,107.49 11.0279,11.1287 -180 0 0 20.03,96.93 11.3001,11.4034 -180 0 0 9.21,104.26 10.4583,10.5539 -180 0 0 0,114.42 10.6085,10.7055 -180 0 0 10.98,124.71 H 30.3 a 8.85921,8.9402 -180 0 0 8.71,-8.73 z" class="st5" id="path48" inkscape:connector-curvature="0" style="fill:url(#grad0-18);stroke:none;stroke-width:34;stroke-linecap:butt" />
				</g>
				<g id="shape13613-19" transform="translate(17.1766,-15.3552)">
					<title id="title51">Sheet.13613</title>
					<path d="m 22.63,119.88 v -8.86 H 20.2 v 10.88 h 6.41 v -2 z M 4.07,115.53 A 5.79557,5.84855 0 0 1 2.74,114.71 1.1516,1.16213 0 0 1 2.43,113.87 0.894996,0.903178 0 0 1 2.824299,113.07735 1.73679,1.75267 0 0 1 3.92,112.76 a 4.34042,4.3801 0 0 1 2.61,0.76 v -2.26 a 7.51046,7.57911 -180 0 0 -2.61,-0.4 4.41239,4.45273 -180 0 0 -2.85,0.87 2.87901,2.90533 -180 0 0 -1.07,2.35 3.49549,3.52745 -180 0 0 2.46,3.16 6.53723,6.59699 0 0 1 1.59,0.94 1.10466,1.11476 0 0 1 0.39,0.85 0.894996,0.903178 0 0 1 -0.394299,0.79265 A 1.97462,1.99268 0 0 1 2.87,120.14 4.24967,4.28851 0 0 1 0.06,119.03 v 2.43 a 5.91136,5.96539 -180 0 0 2.69,0.6 4.97255,5.018 -180 0 0 3,-0.74 2.81642,2.84217 -180 0 0 1.13,-2.4 2.61927,2.64322 -180 0 0 -0.65,-1.84 6.17109,6.2275 -180 0 0 -2.16,-1.55 z m 13.5,4.16 a 6.18674,6.24329 -180 0 0 0.87,-3.33 5.97707,6.03171 -180 0 0 -0.66,-2.95 4.61267,4.65484 -180 0 0 -1.8,-1.95 5.06643,5.11274 -180 0 0 -2.79,-0.68 5.77054,5.82328 -180 0 0 -2.61,0.77 4.88806,4.93274 -180 0 0 -1.91,2.03 6.61546,6.67594 -180 0 0 -0.71,3 5.90823,5.96224 -180 0 0 0.63,2.77 4.9037,4.94853 -180 0 0 1.78,1.96 5.23854,5.28643 -180 0 0 2.61,0.76 l 2.22,2.64 h 3.13 l -3.11,-2.9 a 4.74098,4.78431 -180 0 0 2.35,-2.12 z m -2.43,-0.66 A 2.55981,2.58321 0 0 1 11.2,119 a 3.92421,3.96009 0 0 1 -0.74,-2.64 3.82095,3.85587 0 0 1 0.76,-2.63 2.40648,2.42847 0 0 1 2.01,-0.98 2.25314,2.27373 0 0 1 1.94,0.98 4.03061,4.06746 0 0 1 0.73,2.63 3.84285,3.87798 0 0 1 -0.77,2.68 z" class="st6" id="path53" inkscape:connector-curvature="0" style="fill:#f2f2f2;stroke:none;stroke-width:34;stroke-linecap:butt" />
				</g>
			</g>
		</g>
	</g>
</svg>