<?xml version="1.0" encoding="UTF-8" standalone="no"?>
<!DOCTYPE svg PUBLIC "-//W3C//DTD SVG 1.1//EN" "http://www.w3.org/Graphics/SVG/1.1/DTD/svg11.dtd">
<!-- Generated by Microsoft Visio, SVG Export Azure Workbook.svg Page-1 -->
<svg xmlns="http://www.w3.org/2000/svg" xmlns:xlink="http://www.w3.org/1999/xlink" xmlns:ev="http://www.w3.org/2001/xml-events"
		width="1.73185in" height="1.73206in" viewBox="0 0 124.693 124.709" xml:space="preserve" color-interpolation-filters="sRGB"
		class="st4">
	<style type="text/css">
	<![CDATA[
		.st1 {fill:url(#grad0-6);stroke:none;stroke-linecap:butt;stroke-width:34}
		.st2 {fill:url(#grad0-10);stroke:none;stroke-linecap:butt;stroke-width:34}
		.st3 {fill:url(#grad0-14);stroke:none;stroke-linecap:butt;stroke-width:34}
		.st4 {fill:none;fill-rule:evenodd;font-size:12px;overflow:visible;stroke-linecap:square;stroke-miterlimit:3}
	]]>
	</style>

	<defs id="Patterns_And_Gradients">
		<linearGradient id="grad0-6" x1="0" y1="0" x2="1" y2="0" gradientTransform="rotate(-121.48146355827 0.5 0.5)">
			<stop offset="0" stop-color="#0078d4" stop-opacity="1"/>
			<stop offset="1" stop-color="#289bf2" stop-opacity="1"/>
		</linearGradient>
		<linearGradient id="grad0-10" x1="0" y1="0" x2="1" y2="0" gradientTransform="rotate(65.416554844273 0.5 0.5)">
			<stop offset="0" stop-color="#00ccf9" stop-opacity="1"/>
			<stop offset="1" stop-color="#0095e6" stop-opacity="1"/>
		</linearGradient>
		<linearGradient id="grad0-14" x1="0" y1="0" x2="1" y2="0" gradientTransform="rotate(75.680747519145 0.5 0.5)">
			<stop offset="0" stop-color="#7cecff" stop-opacity="1"/>
			<stop offset="1" stop-color="#50e6ff" stop-opacity="1"/>
		</linearGradient>
	</defs>
	<g>
		<title>Page-1</title>
		<g id="group9536-1" transform="translate(34,-34.0157)">
			<title>Azure Workbook.9536</title>
			<g id="group9537-2">
				<title>Sheet.9537</title>
				<g id="shape9538-3">
					<title>Sheet.9538</title>
					<path d="M24.48 79.61 L0 104.09 L0 119.56 A5.15591 5.15591 -180 0 0 5.15 124.71 L51.54 124.71 A5.15591 5.15591
								 -180 0 0 56.69 119.56 L56.69 73.17 A5.15591 5.15591 -180 0 0 51.54 68.02 L48.96 68.02 L30.92 86.05
								 L24.48 79.61 Z" class="st1"/>
				</g>
				<g id="shape9539-7" transform="translate(0.523132,-2.70006E-13)">
					<title>Sheet.9539</title>
					<path d="M23.96 95.07 L1.32 117.71 A3.76063 3.76063 -180 0 0 0.12 122.05 A5.14961 5.14961 -180 0 0 4.63 124.71
								 L51.02 124.71 A5.15591 5.15591 -180 0 0 56.17 119.56 L56.17 75.75 L30.4 101.51 L23.96 95.07 Z"
							class="st2"/>
				</g>
				<g id="shape9540-11" transform="translate(2.79776E-13,-20.6142)">
					<title>Sheet.9540</title>
					<path d="M30.92 106.67 L48.96 88.63 L5.15 88.63 A5.15591 5.15591 -180 0 0 0 93.78 L0 124.71 L24.48 100.23 L30.92
								 106.67 Z" class="st3"/>
				</g>
			</g>
		</g>
	</g>
</svg>
