<?xml version="1.0" encoding="UTF-8" standalone="no"?>
<!-- Generated by Microsoft Visio, SVG Export Carbon Emission Details.svg Page-1 -->

<svg
   xmlns:dc="http://purl.org/dc/elements/1.1/"
   xmlns:cc="http://creativecommons.org/ns#"
   xmlns:rdf="http://www.w3.org/1999/02/22-rdf-syntax-ns#"
   xmlns:svg="http://www.w3.org/2000/svg"
   xmlns="http://www.w3.org/2000/svg"
   xmlns:sodipodi="http://sodipodi.sourceforge.net/DTD/sodipodi-0.dtd"
   xmlns:inkscape="http://www.inkscape.org/namespaces/inkscape"
   width="0.78766876in"
   height="0.78798664in"
   viewBox="0 0 56.712042 56.735349"
   xml:space="preserve"
   class="st7"
   version="1.1"
   id="svg55"
   sodipodi:docname="Carbon Emission Details.svg"
   style="font-size:12px;overflow:visible;color-interpolation-filters:sRGB;fill:none;fill-rule:evenodd;stroke-linecap:square;stroke-miterlimit:3"
   inkscape:version="0.92.5 (2060ec1f9f, 2020-04-08)"><metadata
   id="metadata59"><rdf:RDF><cc:Work
       rdf:about=""><dc:format>image/svg+xml</dc:format><dc:type
         rdf:resource="http://purl.org/dc/dcmitype/StillImage" /></cc:Work></rdf:RDF></metadata><sodipodi:namedview
   pagecolor="#ffffff"
   bordercolor="#666666"
   borderopacity="1"
   objecttolerance="10"
   gridtolerance="10"
   guidetolerance="10"
   inkscape:pageopacity="0"
   inkscape:pageshadow="2"
   inkscape:window-width="640"
   inkscape:window-height="480"
   id="namedview57"
   showgrid="false"
   inkscape:zoom="1.4193119"
   inkscape:cx="37.810461"
   inkscape:cy="37.841055"
   inkscape:window-x="0"
   inkscape:window-y="0"
   inkscape:window-maximized="0"
   inkscape:current-layer="svg55" />
	<style
   type="text/css"
   id="style2">
	<![CDATA[
		.st1 {fill:#005ba1;stroke:none;stroke-linecap:butt;stroke-width:34}
		.st2 {fill:#0078d4;stroke:none;stroke-linecap:butt;stroke-width:34}
		.st3 {fill:#5ea0ef;stroke:none;stroke-linecap:butt;stroke-width:34}
		.st4 {fill:#ffffff;stroke:none;stroke-linecap:butt;stroke-width:34}
		.st5 {fill:url(#grad0-14);stroke:none;stroke-linecap:butt;stroke-width:34}
		.st6 {fill:url(#grad0-18);stroke:none;stroke-linecap:butt;stroke-width:34}
		.st7 {fill:none;fill-rule:evenodd;font-size:12px;overflow:visible;stroke-linecap:square;stroke-miterlimit:3}
	]]>
	</style>

	<defs
   id="Patterns_And_Gradients">
		<linearGradient
   id="grad0-14"
   x1="-0.00073045229"
   y1="100.02058"
   x2="27.693547"
   y2="100.02058"
   gradientTransform="scale(1.0237569,0.97679435)"
   gradientUnits="userSpaceOnUse">
			<stop
   offset="0.495"
   stop-color="#5e9624"
   stop-opacity="1"
   id="stop4" />
			<stop
   offset="1"
   stop-color="#365615"
   stop-opacity="1"
   id="stop6" />
		</linearGradient>
		<linearGradient
   id="grad0-18"
   x1="-0.00072652009"
   y1="100.8609"
   x2="27.544466"
   y2="100.8609"
   gradientTransform="scale(1.0292979,0.97153602)"
   gradientUnits="userSpaceOnUse">
			<stop
   offset="0"
   stop-color="#76bc2d"
   stop-opacity="1"
   id="stop9" />
			<stop
   offset="1"
   stop-color="#86d633"
   stop-opacity="1"
   id="stop11" />
		</linearGradient>
	</defs>
	<g
   id="g53"
   transform="translate(-34.00046,-34.0001)">
		<title
   id="title15">Page-1</title>
		<g
   id="group14871-1"
   transform="translate(34,-34.0157)">
			<title
   id="title17">Carbon Emission Details.14871</title>
			<g
   id="group14872-2">
				<title
   id="title19">Sheet.14872</title>
				<g
   id="shape14873-3"
   transform="translate(0,-16.9942)">
					<title
   id="title21">Sheet.14873</title>
					<path
   d="M 31.68,118.4 V 86.33 A 1.32351,1.32519 -180 0 0 30.36,85.01 H 1.32 A 1.32036,1.32203 -180 0 0 0,86.33 v 37.06 c 0,0.73 0.59,1.32 1.32,1.32 h 27.05 c 0.39,-2.18 1.55,-4.41 3.32,-6.31 z"
   class="st1"
   id="path23"
   inkscape:connector-curvature="0"
   style="fill:#005ba1;stroke:none;stroke-width:34;stroke-linecap:butt" />
				</g>
				<g
   id="shape14874-5"
   transform="translate(4.78986,-12.7094)">
					<title
   id="title26">Sheet.14874</title>
					<path
   d="m 23.43,122.04 c 0,-2.68 1.27,-5.58 3.49,-7.95 a 15.0944,15.1134 0 0 1 4.76,-3.41 V 86.33 A 1.32036,1.32203 -180 0 0 30.36,85.01 H 1.32 A 1.32351,1.32519 -180 0 0 0,86.33 v 37.06 c 0,0.73 0.59,1.32 1.32,1.32 h 22.45 a 10.6637,10.6772 0 0 1 -0.34,-2.67 z"
   class="st2"
   id="path28"
   inkscape:connector-curvature="0"
   style="fill:#0078d4;stroke:none;stroke-width:34;stroke-linecap:butt" />
				</g>
				<g
   id="shape14875-7"
   transform="translate(9.63014,-8.38676)">
					<title
   id="title31">Sheet.14875</title>
					<path
   d="m 19.34,124.35 0.16,-0.3 c 0.1,-0.2 0.21,-0.41 0.33,-0.61 l -0.8,-2.69 a 10.6543,10.6677 0 0 1 -0.44,-3.04 c 0,-2.68 1.27,-5.57 3.49,-7.94 a 15.2141,15.2333 0 0 1 9.09,-4.66 l 0.52,-0.06 V 86.33 A 1.32036,1.32203 -180 0 0 30.37,85.01 H 1.32 A 1.32351,1.32519 -180 0 0 0,86.33 v 37.06 c 0,0.73 0.59,1.32 1.32,1.32 h 17.85 c 0.06,-0.12 0.11,-0.24 0.17,-0.36 z"
   class="st3"
   id="path33"
   inkscape:connector-curvature="0"
   style="fill:#5ea0ef;stroke:none;stroke-width:34;stroke-linecap:butt" />
				</g>
				<g
   id="shape14876-9"
   transform="translate(15.1479,-20.0642)">
					<title
   id="title36">Sheet.14876</title>
					<path
   d="M 21,106.57 H 7.32 A 0.299366,0.299744 0 0 1 7.020634,106.27341 L 7.02,105.23 a 0.296215,0.296589 0 0 1 0.28361,-0.31236 L 21,104.91 a 0.315123,0.31552 0 0 1 0.315123,0.31236 L 21.31,106.25 a 0.315123,0.31552 0 0 1 -0.30882,0.32183 z m -16.09,1 v -3.65 A 0.630245,0.631041 -180 0 0 4.276604,103.29527 L 0.63,103.29 a 0.627094,0.627885 -180 0 0 -0.627094,0.62789 L 0,107.56 c 0,0.34 0.28,0.62 0.63,0.62 h 3.64 a 0.630245,0.631041 -180 0 0 0.630245,-0.62788 z m 16.41,6.96 v -1.03 a 0.315123,0.31552 -180 0 0 -0.315123,-0.31552 L 7.32,113.18 a 0.315123,0.31552 -180 0 0 -0.299366,0.31552 L 7.02,114.52 a 0.315123,0.31552 -180 0 0 0.299366,0.31552 L 21,114.83 a 0.315123,0.31552 -180 0 0 0.315123,-0.31552 z m -16.41,1.31 v -3.65 A 0.627094,0.627885 -180 0 0 4.282906,111.56211 L 0.63,111.56 a 0.627094,0.627885 -180 0 0 -0.627094,0.62789 L 0,115.82 a 0.630245,0.631041 -180 0 0 0.627094,0.62788 L 4.27,116.45 a 0.630245,0.631041 -180 0 0 0.630245,-0.62789 z m 0,8.26 v -3.65 A 0.627094,0.627885 -180 0 0 4.282906,119.82211 L 0.63,119.82 a 0.627094,0.627885 -180 0 0 -0.627094,0.62788 L 0,124.08 a 0.630245,0.631041 -180 0 0 0.627094,0.62789 L 4.27,124.71 a 0.630245,0.631041 -180 0 0 0.630245,-0.62789 z m 11.65,-2.65 0.01,-0.01 H 7.32 a 0.315123,0.31552 -180 0 0 -0.299366,0.31552 L 7.02,122.78 a 0.315123,0.31552 -180 0 0 0.299366,0.31552 L 15.23,123.09 c 0.4,-0.57 0.84,-1.12 1.33,-1.65 z"
   class="st4"
   id="path38"
   inkscape:connector-curvature="0"
   style="fill:#ffffff;stroke:none;stroke-width:34;stroke-linecap:butt" />
				</g>
				<g
   id="shape14877-11"
   transform="translate(28.361)">
					<title
   id="title41">Sheet.14877</title>
					<path
   d="m 0,122.76 c 0.15,-2.49 1.28,-5.53 3.18,-8.39 0.61,-1.05 1.38,-2.11 2.28,-3.15 a 22.9409,22.9699 0 0 1 11.58,-7.1 1.28885,1.29048 -180 1 0 -0.62,-2.5 25.4651,25.4972 -180 0 0 -12.9,7.9 23.3758,23.4053 -180 0 0 -1.87,2.44 9.20158,9.21319 0 0 1 -0.38,-2.63 c 0,-2.37 1.2,-4.94 3.11,-6.98 a 13.7299,13.7472 0 0 1 8.23,-4.21 c 7.22,-0.96 11.7,-0.16 14.34,0.59 a 1.9317,1.93414 0 0 1 0.54,3.47 c -0.15,0.1 -0.38,0.33 -0.67,0.88 -0.28,0.53 -0.55,1.24 -0.82,2.13 -0.23,0.73 -0.44,1.52 -0.68,2.38 l -0.14,0.55 c -0.29,1.06 -0.61,2.19 -0.99,3.32 -0.75,2.22 -1.81,4.6 -3.6,6.42 -1.85,1.89 -4.36,3.07 -7.72,3.07 -3.43,0 -5.82,-1.39 -7.35,-2.99 -1.04,1.91 -1.58,3.71 -1.66,5.04 A 1.93485,1.93729 0 0 1 0,122.76 Z"
   class="st5"
   id="path43"
   inkscape:connector-curvature="0"
   style="fill:url(#grad0-14);stroke:none;stroke-width:34;stroke-linecap:butt" />
				</g>
				<g
   id="shape14878-15"
   transform="translate(28.361,-0.0031552)">
					<title
   id="title46">Sheet.14878</title>
					<path
   d="m 0,122.76 c 0.15,-2.49 1.28,-5.53 3.18,-8.39 0.61,-1.05 1.38,-2.11 2.28,-3.14 a 22.9409,22.9699 0 0 1 11.58,-7.1 c 4.96,-1.17 9.86,-4.08 6.34,-6.14 1.79,0.22 2.95,0.57 3.57,0.74 a 1.9317,1.93414 0 0 1 0.54,3.47 c -0.15,0.1 -0.38,0.33 -0.67,0.88 -0.28,0.53 -0.55,1.24 -0.82,2.13 -0.23,0.73 -0.44,1.52 -0.68,2.38 l -0.14,0.55 c -0.29,1.06 -0.61,2.19 -0.99,3.32 -0.75,2.22 -1.81,4.6 -3.6,6.42 -1.85,1.89 -4.36,3.07 -7.72,3.07 -3.43,0 -5.82,-1.39 -7.35,-2.99 -1.04,1.91 -1.58,3.71 -1.66,5.04 A 1.93485,1.93729 0 0 1 0,122.76 Z"
   class="st6"
   id="path48"
   inkscape:connector-curvature="0"
   style="fill:url(#grad0-18);stroke:none;stroke-width:34;stroke-linecap:butt" />
				</g>
			</g>
		</g>
	</g>
</svg>