<?xml version="1.0" encoding="UTF-8" standalone="no"?>
<!-- Generated by Microsoft Visio, SVG Export Cost Analysis.svg Page-1 -->

<svg
   xmlns:dc="http://purl.org/dc/elements/1.1/"
   xmlns:cc="http://creativecommons.org/ns#"
   xmlns:rdf="http://www.w3.org/1999/02/22-rdf-syntax-ns#"
   xmlns:svg="http://www.w3.org/2000/svg"
   xmlns="http://www.w3.org/2000/svg"
   xmlns:sodipodi="http://sodipodi.sourceforge.net/DTD/sodipodi-0.dtd"
   xmlns:inkscape="http://www.inkscape.org/namespaces/inkscape"
   width="0.71131855in"
   height="0.78741723in"
   viewBox="0 0 51.214894 56.694328"
   xml:space="preserve"
   class="st7"
   version="1.1"
   id="svg59"
   sodipodi:docname="Cost Analysis.svg"
   style="font-size:12px;overflow:visible;color-interpolation-filters:sRGB;fill:none;fill-rule:evenodd;stroke-linecap:square;stroke-miterlimit:3"
   inkscape:version="0.92.5 (2060ec1f9f, 2020-04-08)"><metadata
   id="metadata65"><rdf:RDF><cc:Work
       rdf:about=""><dc:format>image/svg+xml</dc:format><dc:type
         rdf:resource="http://purl.org/dc/dcmitype/StillImage" /></cc:Work></rdf:RDF></metadata><defs
   id="defs63" /><sodipodi:namedview
   pagecolor="#ffffff"
   bordercolor="#666666"
   borderopacity="1"
   objecttolerance="10"
   gridtolerance="10"
   guidetolerance="10"
   inkscape:pageopacity="0"
   inkscape:pageshadow="2"
   inkscape:window-width="640"
   inkscape:window-height="480"
   id="namedview61"
   showgrid="false"
   inkscape:zoom="1.7193066"
   inkscape:cx="34.141226"
   inkscape:cy="23.279613"
   inkscape:window-x="0"
   inkscape:window-y="0"
   inkscape:window-maximized="0"
   inkscape:current-layer="svg59" />
	<style
   type="text/css"
   id="style2">
	<![CDATA[
		.st1 {fill:#57a300;stroke:none;stroke-linecap:butt;stroke-width:12.24}
		.st2 {fill:#000000;stroke:none;stroke-linecap:butt;stroke-width:12.24}
		.st3 {fill:#000000;fill-opacity:0.4;stroke:none;stroke-linecap:butt;stroke-width:12.24}
		.st4 {fill:#ffffff;stroke:none;stroke-linecap:butt;stroke-width:12.24}
		.st5 {fill:#b8d432;stroke:none;stroke-linecap:butt;stroke-width:12.24}
		.st6 {fill:#ffffff;fill-opacity:0.5;stroke:none;stroke-linecap:butt;stroke-width:12.24}
		.st7 {fill:none;fill-rule:evenodd;font-size:12px;overflow:visible;stroke-linecap:square;stroke-miterlimit:3}
	]]>
	</style>

	<g
   id="g57"
   transform="translate(-12.240224,-12.23997)">
		<title
   id="title4">Page-1</title>
		<g
   id="group14756-1"
   transform="translate(12.24,-34.0157)">
			<title
   id="title6">Cost Analysis.14756</title>
			<g
   id="group14757-2">
				<title
   id="title8">g22</title>
				<g
   id="shape14758-3"
   transform="translate(9.22542,-48.8125)">
					<title
   id="title10">circle4</title>
					<ellipse
   cx="4.0279799"
   cy="99.0084"
   rx="4.0279799"
   ry="3.9402299"
   class="st1"
   id="ellipse12"
   style="fill:#57a300;stroke:none;stroke-width:12.23999977;stroke-linecap:butt" />
				</g>
				<g
   id="shape14759-5"
   transform="translate(9.22542,-1.94788)">
					<title
   id="title15">circle6</title>
					<ellipse
   cx="4.0279799"
   cy="99.0084"
   rx="4.0279799"
   ry="3.9402299"
   class="st1"
   id="ellipse17"
   style="fill:#57a300;stroke:none;stroke-width:12.23999977;stroke-linecap:butt" />
				</g>
				<g
   id="shape14760-7"
   transform="translate(0,-11.7029)">
					<title
   id="title20">path8</title>
					<path
   d="m 27.45,93 c 0,5.76 -5.84,9.95 -13.89,9.95 C 6.47,102.95 2.04,100.34 0,94.97 L 6.91,93.7 c 0.9,1.89 2.87,4.05 7.22,4.05 4.36,0 5.98,-2.56 5.98,-4.17 0,-3.35 -4.13,-4.52 -5.91,-4.86 C 6.65,87.26 1.31,85.57 1.31,77.11 c 0,-6.94 6.6,-9.4 12.25,-9.4 6.18,0 10.19,2 12.27,6.11 l -5.97,1.85 c -1.25,-2.09 -3.39,-3.19 -6.2,-3.19 -4.09,0 -5.18,2.76 -5.18,4.22 0,2.01 2.05,3.78 5.23,4.5 3.98,0.9 6.77,1.6 8.4,2.27 2.58,1.06 5.34,4.13 5.34,9.53 z"
   class="st1"
   id="path22"
   inkscape:connector-curvature="0"
   style="fill:#57a300;stroke:none;stroke-width:12.23999977;stroke-linecap:butt" />
				</g>
				<g
   id="shape14761-9"
   transform="translate(37.4053)">
					<title
   id="title25">path10</title>
					<path
   d="m 11.34,102.95 c -0.66,0 -1.28,-0.25 -1.74,-0.71 L 0,92.86 l 3.49,-3.42 9.6,9.39 a 2.46912,2.41533 0 0 1 -1.75,4.12 z"
   class="st2"
   id="path27"
   inkscape:connector-curvature="0"
   style="fill:#000000;stroke:none;stroke-width:12.23999977;stroke-linecap:butt" />
				</g>
				<g
   id="shape14762-11"
   transform="translate(38.3832,-7.01046)">
					<title
   id="title30">path12</title>
					<path
   d="m 0,100.83 3.49,-3.42 2.17,2.12 a 13.3283,13.038 0 0 1 -3.49,3.42 z"
   class="st3"
   id="path32"
   inkscape:connector-curvature="0"
   style="fill:#000000;fill-opacity:0.4;stroke:none;stroke-width:12.23999977;stroke-linecap:butt" />
				</g>
				<g
   id="shape14763-13"
   transform="translate(16.4166,-8.9992)">
					<title
   id="title35">circle14</title>
					<ellipse
   cx="12.7977"
   cy="90.429802"
   rx="12.7977"
   ry="12.5188"
   class="st4"
   id="ellipse37"
   style="fill:#ffffff;stroke:none;stroke-width:12.23999977;stroke-linecap:butt" />
				</g>
				<g
   id="shape14764-15"
   transform="translate(18.2322,-10.0723)">
					<title
   id="title40">path16</title>
					<path
   d="m 0,86.43 c 1.97,0.89 4.48,3 4.48,5.51 0,1.42 -1.68,4.28 -4.26,5.29 0.76,2.17 2.62,4.12 4.22,5.72 C 9.94,101 12.85,96.42 12.85,91.47 12.85,84.86 8.86,81.11 5.7,79.81 5.45,79.71 0.95,83.3 0,86.43 Z"
   class="st5"
   id="path42"
   inkscape:connector-curvature="0"
   style="fill:#b8d432;stroke:none;stroke-width:12.23999977;stroke-linecap:butt" />
				</g>
				<g
   id="shape14765-17"
   transform="translate(17.4804,-10.0398)">
					<title
   id="title45">path18</title>
					<path
   d="m 11.73,81.19 c 5.8,0 10.51,4.61 10.51,10.28 0,5.67 -4.71,10.28 -10.51,10.28 -5.79,0 -10.5,-4.61 -10.5,-10.28 0,-5.67 4.71,-10.28 10.5,-10.28 z m 0,-1.2 C 5.25,79.99 0,85.13 0,91.47 c 0,6.34 5.25,11.48 11.73,11.48 6.48,0 11.74,-5.14 11.74,-11.48 0,-6.34 -5.26,-11.48 -11.74,-11.48 z"
   class="st6"
   id="path47"
   inkscape:connector-curvature="0"
   style="fill:#ffffff;fill-opacity:0.5;stroke:none;stroke-width:12.23999977;stroke-linecap:butt" />
				</g>
				<g
   id="shape14766-19"
   transform="translate(13.3762,-6.00828)">
					<title
   id="title50">path20</title>
					<path
   d="m 0,87.45 c 0,8.56 7.09,15.5 15.85,15.5 8.75,0 15.84,-6.94 15.84,-15.5 0,-8.56 -7.09,-15.5 -15.84,-15.5 C 7.09,71.95 0,78.89 0,87.45 Z m 4.1,0 c 0,-6.35 5.26,-11.49 11.75,-11.49 6.48,0 11.74,5.14 11.74,11.49 0,6.34 -5.26,11.48 -11.74,11.48 C 9.36,98.93 4.1,93.79 4.1,87.45 Z"
   class="st2"
   id="path52"
   inkscape:connector-curvature="0"
   style="fill:#000000;stroke:none;stroke-width:12.23999977;stroke-linecap:butt" />
				</g>
			</g>
		</g>
	</g>
</svg>