<?xml version="1.0" encoding="UTF-8" standalone="no"?>
<!DOCTYPE svg PUBLIC "-//W3C//DTD SVG 1.1//EN" "http://www.w3.org/Graphics/SVG/1.1/DTD/svg11.dtd">
<!-- Generated by Microsoft Visio, SVG Export Cost exports.svg Page-1 -->
<svg xmlns="http://www.w3.org/2000/svg" xmlns:xlink="http://www.w3.org/1999/xlink" xmlns:ev="http://www.w3.org/2001/xml-events"
		width="1.1274in" height="1.39047in" viewBox="0 0 81.1729 100.114" xml:space="preserve" color-interpolation-filters="sRGB"
		class="st3">
	<style type="text/css">
	<![CDATA[
		.st1 {fill:#3999c6;stroke:none;stroke-linecap:butt;stroke-width:12.24}
		.st2 {fill:#57a300;stroke:none;stroke-linecap:butt;stroke-width:12.24}
		.st3 {fill:none;fill-rule:evenodd;font-size:12px;overflow:visible;stroke-linecap:square;stroke-miterlimit:3}
	]]>
	</style>

	<g>
		<title>Page-1</title>
		<g id="group11917-1" transform="translate(12.24,-34.0157)">
			<title>Cost exports.11917</title>
			<g id="group11918-2">
				<title> LogicAppsAlt</title>
				<g id="shape11919-3">
					<title>Sheet.11919</title>
					<path d="M0 46.26 L13.61 46.26 L13.61 55.42 L0 55.42 L0 46.26 ZM0 61.15 L13.61 61.15 L13.61 70.32 L0 70.32 L0
								 61.15 ZM19.28 76.05 L32.88 76.05 L32.88 85.22 L19.28 85.22 L19.28 76.05 ZM19.28 90.95 L32.88 90.95
								 L32.88 100.11 L19.28 100.11 L19.28 90.95 ZM0 90.95 L13.61 90.95 L13.61 100.11 L0 100.11 L0 90.95
								 ZM19.28 46.26 L32.88 46.26 L32.88 55.42 L19.28 55.42 L19.28 46.26 Z" class="st1"/>
				</g>
				<g id="shape11920-5" transform="translate(19.2756,-19.4807)">
					<title>Sheet.11920</title>
					<path d="M21.54 71.47 L21.54 80.63 L0 80.63 L0 89.8 L21.54 89.8 L21.54 100.11 L37.42 85.6 L21.54 71.47 Z"
							class="st2"/>
				</g>
			</g>
		</g>
	</g>
</svg>
