<?xml version="1.0" encoding="UTF-8" standalone="no"?>
<!DOCTYPE svg PUBLIC "-//W3C//DTD SVG 1.1//EN" "http://www.w3.org/Graphics/SVG/1.1/DTD/svg11.dtd">
<!-- Generated by Microsoft Visio, SVG Export Cost Management for AWS.svg Page-1 -->
<svg xmlns="http://www.w3.org/2000/svg" xmlns:xlink="http://www.w3.org/1999/xlink" xmlns:ev="http://www.w3.org/2001/xml-events"
		width="1.1274in" height="1.42984in" viewBox="0 0 81.1729 102.949" xml:space="preserve" color-interpolation-filters="sRGB"
		class="st6">
	<style type="text/css">
	<![CDATA[
		.st1 {fill:#59b4d9;stroke:none;stroke-linecap:butt;stroke-width:12.24}
		.st2 {fill:#ffffff;fill-opacity:0.2;stroke:none;stroke-linecap:butt;stroke-width:12.24}
		.st3 {fill:#3999c6;fill-opacity:0.4;stroke:none;stroke-linecap:butt;stroke-width:12.24}
		.st4 {fill:#3999c6;stroke:none;stroke-linecap:butt;stroke-width:12.24}
		.st5 {fill:#ffffff;stroke:none;stroke-linecap:butt;stroke-width:12.24}
		.st6 {fill:none;fill-rule:evenodd;font-size:12px;overflow:visible;stroke-linecap:square;stroke-miterlimit:3}
	]]>
	</style>

	<g>
		<title>Page-1</title>
		<g id="group12147-1" transform="translate(12.24,-34.0157)">
			<title>Cost Management for AWS.12147</title>
			<g id="group12148-2">
				<title>Sheet.12148</title>
				<g id="shape12149-3" transform="translate(0,-25.8815)">
					<title>Sheet.12149</title>
					<path d="M38.65 85.36 C38.66 85.17 38.68 84.98 38.68 84.78 C38.68 77.8 33.11 72.14 26.25 72.14 A12.4238 12.6536
								 -180 0 0 15.19 79.01 A11.9833 12.205 -180 0 0 11.99 78.56 C5.37 78.56 0 84.02 0 90.75 C0 90.89 0.02
								 91.02 0.02 91.15 C0.02 91.28 0 91.4 0 91.53 C0 97.84 5.13 102.95 11.47 102.95 L36.94 102.95 C41.87
								 102.95 45.86 98.97 45.86 94.07 C45.86 89.75 42.76 86.15 38.65 85.36 Z" class="st1"/>
				</g>
				<g id="shape12150-5" transform="translate(0,-25.8815)">
					<title>Sheet.12150</title>
					<path d="M38.65 85.36 C38.66 85.17 38.68 84.98 38.68 84.78 C38.68 77.8 33.11 72.14 26.25 72.14 A12.4238 12.6536
								 -180 0 0 15.19 79.01 A11.9833 12.205 -180 0 0 11.99 78.56 C5.37 78.56 0 84.02 0 90.75 C0 90.89 0.02
								 91.02 0.02 91.15 C0.02 91.28 0 91.4 0 91.53 C0 97.84 5.13 102.95 11.47 102.95 L36.94 102.95 C41.87
								 102.95 45.86 98.97 45.86 94.07 C45.86 89.75 42.76 86.15 38.65 85.36 Z" class="st2"/>
				</g>
				<g id="shape12151-7" transform="translate(4.90078,-18.2625)">
					<title>Sheet.12151</title>
					<path d="M25.51 97.28 L11.82 83.35 C11.83 83.23 11.86 83.12 11.86 83.01 C11.86 79.67 9.2 76.97 5.93 76.97 C2.66
								 76.97 0 79.67 0 83.01 C0 86.34 2.66 89.04 5.93 89.04 C6.04 89.04 6.15 89.02 6.26 89.01 L19.95 102.95
								 L25.51 97.28 Z" class="st3"/>
				</g>
				<g id="shape12152-9" transform="translate(3.69071,0)">
					<title>Sheet.12152</title>
					<path d="M8.33 82.61 C8.33 82.39 8.3 82.17 8.3 81.95 C8.3 73.88 14.74 67.33 22.67 67.33 C28.24 67.33 33.06 70.56
								 35.45 75.28 A13.8613 14.1178 0 0 1 39.14 74.76 C46.8 74.76 53 81.07 53 88.85 C53 89.01 52.98 89.15
								 52.98 89.31 C52.98 89.46 53 89.6 53 89.75 C53 97.04 47.07 102.95 39.75 102.95 L10.31 102.95 C4.61
								 102.95 0 98.35 0 92.68 C0 87.69 3.59 83.53 8.33 82.61 Z" class="st4"/>
				</g>
				<g id="shape12153-11" transform="translate(6.05034,-17.9139)">
					<title>Sheet.12153</title>
					<path d="M20.51 92.64 C19.77 92.64 19.06 92.79 18.41 93.05 L9.41 83.88 A4.75557 4.84355 -180 0 0 9.56 82.72 A4.77977
								 4.8682 -180 1 0 0 82.72 A4.77977 4.8682 -180 0 0 4.78 87.59 A4.74347 4.83122 -180 0 0 6.02 87.4
								 L14.98 96.54 A5.87488 5.98357 -180 0 0 14.58 98.68 A5.92934 6.03903 -180 1 0 20.51 92.64 Z"
							class="st5"/>
				</g>
			</g>
		</g>
	</g>
</svg>
