<?xml version="1.0" encoding="UTF-8" standalone="no"?>
<!-- Generated by Microsoft Visio, SVG Export Dynatrace.svg Page-1 -->

<svg
   xmlns:dc="http://purl.org/dc/elements/1.1/"
   xmlns:cc="http://creativecommons.org/ns#"
   xmlns:rdf="http://www.w3.org/1999/02/22-rdf-syntax-ns#"
   xmlns:svg="http://www.w3.org/2000/svg"
   xmlns="http://www.w3.org/2000/svg"
   xmlns:sodipodi="http://sodipodi.sourceforge.net/DTD/sodipodi-0.dtd"
   xmlns:inkscape="http://www.inkscape.org/namespaces/inkscape"
   width="0.78344792in"
   height="0.78091198in"
   viewBox="0 0 56.408248 56.225802"
   xml:space="preserve"
   class="st7"
   version="1.1"
   id="svg44"
   sodipodi:docname="Dynatrace.svg"
   style="font-size:12px;overflow:visible;color-interpolation-filters:sRGB;fill:none;fill-rule:evenodd;stroke-linecap:square;stroke-miterlimit:3"
   inkscape:version="0.92.5 (2060ec1f9f, 2020-04-08)"><metadata
   id="metadata50"><rdf:RDF><cc:Work
       rdf:about=""><dc:format>image/svg+xml</dc:format><dc:type
         rdf:resource="http://purl.org/dc/dcmitype/StillImage" /></cc:Work></rdf:RDF></metadata><defs
   id="defs48" /><sodipodi:namedview
   pagecolor="#ffffff"
   bordercolor="#666666"
   borderopacity="1"
   objecttolerance="10"
   gridtolerance="10"
   guidetolerance="10"
   inkscape:pageopacity="0"
   inkscape:pageshadow="2"
   inkscape:window-width="640"
   inkscape:window-height="480"
   id="namedview46"
   showgrid="false"
   inkscape:zoom="1.8365233"
   inkscape:cx="37.611655"
   inkscape:cy="18.588573"
   inkscape:window-x="0"
   inkscape:window-y="0"
   inkscape:window-maximized="0"
   inkscape:current-layer="svg44" />
	<style
   type="text/css"
   id="style2">
	<![CDATA[
		.st1 {fill:#1496ff;stroke:none;stroke-linecap:butt;stroke-width:0.298828}
		.st2 {fill:#1284ea;stroke:none;stroke-linecap:butt;stroke-width:0.298828}
		.st3 {fill:#b4dc00;stroke:none;stroke-linecap:butt;stroke-width:0.298828}
		.st4 {fill:#6f2da8;stroke:none;stroke-linecap:butt;stroke-width:0.298828}
		.st5 {fill:#591f91;stroke:none;stroke-linecap:butt;stroke-width:0.298828}
		.st6 {fill:#73be28;stroke:none;stroke-linecap:butt;stroke-width:0.298828}
		.st7 {fill:none;fill-rule:evenodd;font-size:12px;overflow:visible;stroke-linecap:square;stroke-miterlimit:3}
	]]>
	</style>

	<g
   id="g42"
   transform="translate(-5.8070247,-5.9046608)">
		<title
   id="title4">Page-1</title>
		<g
   id="group13340-1"
   transform="translate(5.66929,-34.0157)">
			<title
   id="title6">Dynatrace.13340</title>
			<g
   id="group13341-2">
				<title
   id="title8">Sheet.13341</title>
				<g
   id="shape13342-3"
   transform="translate(0.142318,-6.0922)">
					<title
   id="title10">Sheet.13342</title>
					<path
   d="m 19.08,50.7 c -0.72,3.83 -1.65,9.48 -2.13,15.21 -0.86,10.13 -0.33,16.91 -0.33,16.91 L 2.16,96.38 c 0,0 -1.12,-7.61 -1.68,-16.16 C 0.13,74.95 0.03,70.26 0,67.44 0,67.28 0.09,67.12 0.09,66.96 0.09,66.78 0.33,64.88 2.21,63.13 4.27,61.19 19.29,49.58 19.08,50.7 Z"
   class="st1"
   id="path12"
   inkscape:connector-curvature="0"
   style="fill:#1496ff;stroke:none;stroke-width:0.29882801;stroke-linecap:butt" />
				</g>
				<g
   id="shape13343-5"
   transform="translate(0.15069,-34.6379)">
					<title
   id="title15">Sheet.13343</title>
					<path
   d="m 19.07,79.25 c -0.72,3.83 -1.65,9.48 -2.13,15.21 0,0 -16.02,-1.88 -16.94,1.92 C 0,96.19 0.27,93.86 2.15,92.1 4.21,90.17 19.28,78.13 19.07,79.25 Z"
   class="st2"
   id="path17"
   inkscape:connector-curvature="0"
   style="fill:#1284ea;stroke:none;stroke-width:0.29882801;stroke-linecap:butt" />
				</g>
				<g
   id="shape13344-7"
   transform="translate(0,-34.6379)">
					<title
   id="title20">Sheet.13344</title>
					<path
   d="m 0.14,95.5 c 0.01,0.27 0.01,0.56 0.01,0.88 0.17,-0.7 0.44,-1.18 1.02,-1.91 1.19,-1.49 3.11,-1.88 3.88,-1.98 3.92,-0.5 9.7,-1.12 15.54,-1.3 10.31,-0.32 17.13,0.53 17.13,0.53 L 52.18,78.16 c 0,0 -7.59,-1.42 -16.23,-2.42 -5.65,-0.66 -10.64,-1 -13.42,-1.16 -0.19,-0.02 -2.2,-0.26 -4.07,1.5 C 16.39,78.01 6.04,87.68 1.88,91.57 0,93.34 0.14,95.32 0.14,95.5 Z"
   class="st3"
   id="path22"
   inkscape:connector-curvature="0"
   style="fill:#b4dc00;stroke:none;stroke-width:0.29882801;stroke-linecap:butt" />
				</g>
				<g
   id="shape13345-9"
   transform="translate(4.49,-0.266551)">
					<title
   id="title25">Sheet.13345</title>
					<path
   d="M 47.16,78.43 C 43.24,78.95 37.47,79.59 31.63,79.78 21.31,80.12 14.46,79.27 14.46,79.27 L 0,92.82 c 0,0 7.66,1.48 16.31,2.45 5.28,0.6 9.99,0.93 12.85,1.1 0.2,0.01 0.54,-0.17 0.72,-0.15 0.19,0 2.21,-0.36 4.08,-2.12 2.06,-1.94 14.35,-15.82 13.2,-15.67 z"
   class="st4"
   id="path27"
   inkscape:connector-curvature="0"
   style="fill:#6f2da8;stroke:none;stroke-width:0.29882801;stroke-linecap:butt" />
				</g>
				<g
   id="shape13346-11"
   transform="translate(33.3332,-0.285787)">
					<title
   id="title30">Sheet.13346</title>
					<path
   d="M 18.31,78.45 C 14.4,78.97 8.62,79.61 2.78,79.8 2.78,79.8 3.9,95.65 0,96.37 0.19,96.38 2.84,96.24 4.72,94.48 6.78,92.54 19.46,78.3 18.31,78.45 Z"
   class="st5"
   id="path32"
   inkscape:connector-curvature="0"
   style="fill:#591f91;stroke:none;stroke-width:0.29882801;stroke-linecap:butt" />
				</g>
				<g
   id="shape13347-13"
   transform="translate(33.3332)">
					<title
   id="title35">Sheet.13347</title>
					<path
   d="M 0.89,96.13 C 0.62,96.11 0.32,96.1 0,96.08 0.71,95.95 1.22,95.71 1.99,95.17 3.55,94.07 4.04,92.2 4.18,91.45 4.89,87.62 5.8,81.97 6.27,76.23 7.1,66.1 6.58,59.35 6.58,59.35 L 21.04,45.8 c 0,0 1.07,7.53 1.66,16.09 0.38,5.59 0.49,10.51 0.51,13.25 0,0.19 0.15,2.17 -1.73,3.93 C 19.43,81.01 9.1,90.71 4.95,94.61 3.08,96.38 1.08,96.14 0.89,96.13 Z"
   class="st6"
   id="path37"
   inkscape:connector-curvature="0"
   style="fill:#73be28;stroke:none;stroke-width:0.29882801;stroke-linecap:butt" />
				</g>
			</g>
		</g>
	</g>
</svg>