<?xml version="1.0" encoding="UTF-8" standalone="no"?>
<!-- Generated by Microsoft Visio, SVG Export Microsoft Graph Data Connect.svg Page-1 -->

<svg
   xmlns:dc="http://purl.org/dc/elements/1.1/"
   xmlns:cc="http://creativecommons.org/ns#"
   xmlns:rdf="http://www.w3.org/1999/02/22-rdf-syntax-ns#"
   xmlns:svg="http://www.w3.org/2000/svg"
   xmlns="http://www.w3.org/2000/svg"
   xmlns:sodipodi="http://sodipodi.sourceforge.net/DTD/sodipodi-0.dtd"
   xmlns:inkscape="http://www.inkscape.org/namespaces/inkscape"
   width="0.78736037in"
   height="0.66930491in"
   viewBox="0 0 56.689945 48.189997"
   xml:space="preserve"
   class="st11"
   version="1.1"
   id="svg64"
   sodipodi:docname="Microsoft Graph Data Connect.svg"
   style="font-size:12px;overflow:visible;color-interpolation-filters:sRGB;fill:none;fill-rule:evenodd;stroke-linecap:square;stroke-miterlimit:3"
   inkscape:version="0.92.5 (2060ec1f9f, 2020-04-08)"><metadata
   id="metadata70"><rdf:RDF><cc:Work
       rdf:about=""><dc:format>image/svg+xml</dc:format><dc:type
         rdf:resource="http://purl.org/dc/dcmitype/StillImage" /></cc:Work></rdf:RDF></metadata><defs
   id="defs68" /><sodipodi:namedview
   pagecolor="#ffffff"
   bordercolor="#666666"
   borderopacity="1"
   objecttolerance="10"
   gridtolerance="10"
   guidetolerance="10"
   inkscape:pageopacity="0"
   inkscape:pageshadow="2"
   inkscape:window-width="640"
   inkscape:window-height="480"
   id="namedview66"
   showgrid="false"
   inkscape:zoom="2.0339329"
   inkscape:cx="37.795243"
   inkscape:cy="12.656653"
   inkscape:window-x="0"
   inkscape:window-y="0"
   inkscape:window-maximized="0"
   inkscape:current-layer="svg64" />
	<style
   type="text/css"
   id="style2">
	<![CDATA[
		.st1 {fill:#41a4ed;stroke:none;stroke-linecap:butt;stroke-width:2.39062}
		.st2 {fill:#2b7cd2;stroke:none;stroke-linecap:butt;stroke-width:2.39062}
		.st3 {fill:#0358a6;stroke:none;stroke-linecap:butt;stroke-width:2.39062}
		.st4 {fill:#103f90;stroke:none;stroke-linecap:butt;stroke-width:2.39062}
		.st5 {fill:#163870;stroke:none;stroke-linecap:butt;stroke-width:2.39062}
		.st6 {fill:#112d56;stroke:none;stroke-linecap:butt;stroke-width:2.39062}
		.st7 {fill:#0078d3;stroke:none;stroke-linecap:butt;stroke-width:2.39062}
		.st8 {fill:#2770c0;stroke:none;stroke-linecap:butt;stroke-width:2.39062}
		.st9 {fill:#036dc0;stroke:none;stroke-linecap:butt;stroke-width:2.39062}
		.st10 {fill:#ffffff;stroke:none;stroke-linecap:butt;stroke-width:2.39062}
		.st11 {fill:none;fill-rule:evenodd;font-size:12px;overflow:visible;stroke-linecap:square;stroke-miterlimit:3}
	]]>
	</style>

	<g
   id="g62"
   transform="translate(-5.669324,-4.8143)">
		<title
   id="title4">Page-1</title>
		<g
   id="group14537-1"
   transform="translate(5.66929,-34.0157)">
			<title
   id="title6">Microsoft Graph Data Connect.14537</title>
			<g
   id="group14538-2">
				<title
   id="title8"> graph_color256</title>
				<g
   id="shape14539-3"
   transform="translate(15.1589,-24.0047)">
					<title
   id="title10">Sheet.14539</title>
					<path
   d="M 0,64.44 H 26.55 L 4.12,72.56 Z M 39.89,87.02 H 28.97 L 26.55,64.44 Z"
   class="st1"
   id="path12"
   inkscape:connector-curvature="0"
   style="fill:#41a4ed;stroke:none;stroke-width:2.39061999;stroke-linecap:butt" />
				</g>
				<g
   id="shape14540-5"
   transform="translate(19.2778,-24.0047)">
					<title
   id="title15">Sheet.14540</title>
					<path
   d="m 0,72.56 22.43,-8.12 2.42,22.58 z"
   class="st2"
   id="path17"
   inkscape:connector-curvature="0"
   style="fill:#2b7cd2;stroke:none;stroke-width:2.39061999;stroke-linecap:butt" />
				</g>
				<g
   id="shape14541-7"
   transform="translate(19.2778,-10.1432)">
					<title
   id="title20">Sheet.14541</title>
					<path
   d="M 0,58.7 0.62,87.02 24.81,73.16 Z"
   class="st3"
   id="path22"
   inkscape:connector-curvature="0"
   style="fill:#0358a6;stroke:none;stroke-width:2.39061999;stroke-linecap:butt" />
				</g>
				<g
   id="shape14542-9"
   transform="translate(1.87729,-1.42567)">
					<title
   id="title25">Sheet.14542</title>
					<path
   d="M 0,64.44 17.4,49.98 18.03,78.31 Z M 18.03,78.31 42.25,64.44 39.84,87.02 Z"
   class="st4"
   id="path27"
   inkscape:connector-curvature="0"
   style="fill:#103f90;stroke:none;stroke-width:2.39061999;stroke-linecap:butt" />
				</g>
				<g
   id="shape14543-11"
   transform="translate(1.87729,-1.42545)">
					<title
   id="title30">Sheet.14543</title>
					<path
   d="m 0,64.44 18.03,13.87 -4.75,8.71 z"
   class="st5"
   id="path32"
   inkscape:connector-curvature="0"
   style="fill:#163870;stroke:none;stroke-width:2.39061999;stroke-linecap:butt" />
				</g>
				<g
   id="shape14544-13"
   transform="translate(15.1589,-1.42545)">
					<title
   id="title35">Sheet.14544</title>
					<path
   d="m 0,87.02 4.74,-8.71 21.81,8.71 z"
   class="st6"
   id="path37"
   inkscape:connector-curvature="0"
   style="fill:#112d56;stroke:none;stroke-width:2.39061999;stroke-linecap:butt" />
				</g>
				<g
   id="shape14545-15"
   transform="translate(1.87729,-1.42567)">
					<title
   id="title40">Sheet.14545</title>
					<path
   d="M 0,64.44 13.28,41.87 17.4,49.98 Z M 39.84,87.02 53.14,64.44 H 42.25 Z"
   class="st7"
   id="path42"
   inkscape:connector-curvature="0"
   style="fill:#0078d3;stroke:none;stroke-width:2.39061999;stroke-linecap:butt" />
				</g>
				<g
   id="shape14546-17"
   transform="translate(44.1264,-24.0047)">
					<title
   id="title45">Sheet.14546</title>
					<path
   d="m 0,87.02 v 0 z"
   class="st8"
   id="path47"
   inkscape:connector-curvature="0"
   style="fill:#2770c0;stroke:none;stroke-width:2.39061999;stroke-linecap:butt" />
				</g>
				<g
   id="shape14547-19"
   transform="translate(41.7127,-1.42567)">
					<title
   id="title50">Sheet.14547</title>
					<path
   d="M 13.31,64.44 H 2.41 v 0 0 L 0,87.02 Z"
   class="st9"
   id="path52"
   inkscape:connector-curvature="0"
   style="fill:#036dc0;stroke:none;stroke-width:2.39061999;stroke-linecap:butt" />
				</g>
				<g
   id="shape14548-21">
					<title
   id="title55">Sheet.14548</title>
					<path
   d="M 56.17,62.05 43.04,39.72 42.52,38.83 H 14.17 L 13.65,39.72 0.52,62.05 0,62.93 l 0.52,0.88 13.13,22.33 0.52,0.88 h 28.35 l 0.52,-0.88 13.13,-22.33 0.52,-0.88 z m -1.9,0.3 H 45.41 A 2.20969,2.16883 -180 0 0 44.63,61.41 L 42.6,42.51 Z M 21.77,75.03 A 2.19397,2.1534 -180 0 0 20.76,74.48 L 20.24,51.29 a 2.20084,2.16014 -180 0 0 1.07,-0.75 l 20.1,11.7 a 2.18356,2.14318 -180 0 0 -0.12,1.61 z M 42.42,61.25 21.75,49.23 a 2.19397,2.1534 -180 0 0 -0.09,-0.59 l 19.46,-7.05 2.09,19.45 a 2.18068,2.14036 -180 0 0 -0.79,0.21 z M 20.84,47.5 a 2.18711,2.14666 -180 0 0 -1.29,-0.42 c -0.04,0 -0.07,0.01 -0.11,0.01 L 16.16,40.6 h 23.73 z m -2.81,3.3 a 2.19818,2.15753 -180 0 0 0.83,0.5 l 0.53,23.28 A 2.19596,2.15535 -180 0 0 18.84,74.9 L 3.36,63 Z m 1.81,27.9 a 2.17625,2.13601 -180 0 0 1.91,-0.57 l 17.83,7.13 H 16.27 Z M 41.13,84.42 22.4,76.93 a 2.04914,2.01124 -180 0 0 0,-0.7 L 42.11,64.95 a 2.18755,2.14709 -180 0 0 1.06,0.39 z M 14.9,41.14 l 3.26,6.43 a 2.17028,2.13014 -180 0 0 -0.78,2.01 L 2.81,61.69 Z M 2.94,64.39 18.1,76.05 a 2.17803,2.13775 -180 0 0 0.53,2.01 l -3.68,6.76 z M 42.63,83.3 44.59,65 a 2.20039,2.1597 -180 0 0 0.93,-1.3 h 8.64 z"
   class="st10"
   id="path57"
   inkscape:connector-curvature="0"
   style="fill:#ffffff;stroke:none;stroke-width:2.39061999;stroke-linecap:butt" />
				</g>
			</g>
		</g>
	</g>
</svg>