<?xml version="1.0" encoding="UTF-8" standalone="no"?>
<!DOCTYPE svg PUBLIC "-//W3C//DTD SVG 1.1//EN" "http://www.w3.org/Graphics/SVG/1.1/DTD/svg11.dtd">
<!-- Generated by Microsoft Visio, SVG Export Policy Initiative.svg Page-1 -->
<svg xmlns="http://www.w3.org/2000/svg" xmlns:xlink="http://www.w3.org/1999/xlink" xmlns:ev="http://www.w3.org/2001/xml-events"
		width="1.1274in" height="1.42984in" viewBox="0 0 81.1729 102.949" xml:space="preserve" color-interpolation-filters="sRGB"
		class="st6">
	<style type="text/css">
	<![CDATA[
		.st1 {fill:#804998;stroke:none;stroke-linecap:butt;stroke-width:12.24}
		.st2 {fill:#59b4d9;stroke:none;stroke-linecap:butt;stroke-width:12.24}
		.st3 {fill:#ffffff;fill-opacity:0.8;stroke:none;stroke-linecap:butt;stroke-width:12.24}
		.st4 {fill:#3999c6;fill-opacity:0.8;stroke:none;stroke-linecap:butt;stroke-width:12.24}
		.st5 {fill:#ffffff;fill-opacity:0.2;stroke:none;stroke-linecap:butt;stroke-width:12.24}
		.st6 {fill:none;fill-rule:evenodd;font-size:12px;overflow:visible;stroke-linecap:square;stroke-miterlimit:3}
	]]>
	</style>

	<g>
		<title>Page-1</title>
		<g id="group11932-1" transform="translate(12.24,-34.0157)">
			<title>Policy Initiative.11932</title>
			<g id="group11933-2">
				<title>Sheet.11933</title>
				<g id="shape11934-3" transform="translate(0,-19.2756)">
					<title>Sheet.11934</title>
					<path d="M6.8 96.15 L0 102.95 L56.69 102.95 L49.89 96.15 L6.8 96.15 Z" class="st1"/>
				</g>
				<g id="shape11935-5" transform="translate(6.80315,-3.40157)">
					<title>Sheet.11935</title>
					<path d="M35.17 63.04 L29.78 57.59 L27.53 55.33 L0 55.33 L0 102.95 L37.42 102.95 L37.42 65.3 L35.17 63.04 Z"
							class="st2"/>
				</g>
				<g id="shape11936-7" transform="translate(9.05046,-5.66929)">
					<title>Sheet.11936</title>
					<path d="M25.06 59.86 L0 59.86 L0 102.95 L32.92 102.95 L32.92 67.8 L25.06 67.8 L25.06 59.86 Z" class="st3"/>
				</g>
				<g id="shape11937-9" transform="translate(11.3386,-9.07087)">
					<title>Sheet.11937</title>
					<path d="M36.3 63.04 L30.91 57.59 L28.66 55.33 L0 55.33 L0 102.95 L38.55 102.95 L38.55 65.3 L36.3 63.04 Z"
							class="st2"/>
				</g>
				<g id="shape11938-11" transform="translate(13.5859,-11.3386)">
					<title>Sheet.11938</title>
					<path d="M26.19 59.86 L0 59.86 L0 102.95 L34.06 102.95 L34.06 67.8 L26.19 67.8 L26.19 59.86 Z" class="st3"/>
				</g>
				<g id="shape11939-13" transform="translate(20.4094,-18.2835)">
					<title>Sheet.11939</title>
					<path d="M0 85.45 L0 96.94 C0 97.03 0.05 97.11 0.13 97.16 L10.08 102.9 C10.16 102.95 10.25 102.95 10.33 102.9
								 L20.28 97.16 a0.25285 0.25285 -180 0 0 0.126992 -0.221102 L20.41 85.45 a0.256252 0.256252 -180 0
								 0 -0.126992 -0.221102 L10.33 79.48 a0.256252 0.256252 -180 0 0 -0.255118 8.52651E-14 L0.13 85.23
								 a0.255118 0.255118 -180 0 0 -0.128126 0.221102 Z" class="st4"/>
				</g>
				<g id="shape11940-15">
					<title>Sheet.11940</title>
					<rect x="0" y="83.6731" width="56.6929" height="19.2756" class="st1"/>
				</g>
				<g id="shape11941-17">
					<title>Sheet.11941</title>
					<path d="M0 83.67 L0 102.95 L20.41 102.95 L35.15 83.67 L0 83.67 Z" class="st5"/>
				</g>
			</g>
		</g>
	</g>
</svg>
