<?xml version="1.0" encoding="UTF-8" standalone="no"?>
<!DOCTYPE svg PUBLIC "-//W3C//DTD SVG 1.1//EN" "http://www.w3.org/Graphics/SVG/1.1/DTD/svg11.dtd">
<!-- Generated by Microsoft Visio, SVG Export Review Access.svg Page-1 -->
<svg xmlns="http://www.w3.org/2000/svg" xmlns:xlink="http://www.w3.org/1999/xlink" xmlns:ev="http://www.w3.org/2001/xml-events"
		width="1.44677in" height="1.69463in" viewBox="0 0 104.167 122.013" xml:space="preserve" color-interpolation-filters="sRGB"
		class="st7">
	<style type="text/css">
	<![CDATA[
		.st1 {fill:url(#grad0-6);stroke:none;stroke-linecap:butt;stroke-width:31.3047}
		.st2 {fill:#ffffff;fill-opacity:0.8;stroke:none;stroke-linecap:butt;stroke-width:31.3047}
		.st3 {fill:url(#grad0-12);stroke:none;stroke-linecap:butt;stroke-width:31.3047}
		.st4 {fill:#ffffff;fill-opacity:0.74;stroke:none;stroke-linecap:butt;stroke-width:10.7973}
		.st5 {fill:#7a7a7a;stroke:none;stroke-linecap:butt;stroke-width:10.7973}
		.st6 {fill:#000000;fill-opacity:0.4;stroke:none;stroke-linecap:butt;stroke-width:10.7973}
		.st7 {fill:none;fill-rule:evenodd;font-size:12px;overflow:visible;stroke-linecap:square;stroke-miterlimit:3}
	]]>
	</style>

	<defs id="Patterns_And_Gradients">
		<linearGradient id="grad0-6" x1="0" y1="0" x2="1" y2="0" gradientTransform="rotate(90 0.5 0.5)">
			<stop offset="0.22" stop-color="#32d4f5" stop-opacity="1"/>
			<stop offset="0.47" stop-color="#31d1f3" stop-opacity="1"/>
			<stop offset="0.63" stop-color="#2ec9eb" stop-opacity="1"/>
			<stop offset="0.77" stop-color="#29bade" stop-opacity="1"/>
			<stop offset="0.89" stop-color="#22a5cb" stop-opacity="1"/>
			<stop offset="1" stop-color="#198ab3" stop-opacity="1"/>
			<stop offset="1" stop-color="#198ab3" stop-opacity="1"/>
		</linearGradient>
		<linearGradient id="grad0-12" x1="0" y1="0" x2="1" y2="0" gradientTransform="rotate(85.386704019704 0.5 0.5)">
			<stop offset="0.22" stop-color="#32d4f5" stop-opacity="1"/>
			<stop offset="0.47" stop-color="#31d1f3" stop-opacity="1"/>
			<stop offset="0.63" stop-color="#2ec9eb" stop-opacity="1"/>
			<stop offset="0.77" stop-color="#29bade" stop-opacity="1"/>
			<stop offset="0.89" stop-color="#22a5cb" stop-opacity="1"/>
			<stop offset="1" stop-color="#198ab3" stop-opacity="1"/>
			<stop offset="1" stop-color="#198ab3" stop-opacity="1"/>
		</linearGradient>
	</defs>
	<g>
		<title>Page-1</title>
		<g id="group5854-1" transform="translate(31.3244,-34.0157)">
			<title>Review Access.5854</title>
			<g id="group5855-2">
				<title>Icon-networking-82</title>
				<g id="shape5856-3" transform="translate(-2.51799E-13,-9.7765)">
					<title>path4</title>
					<path d="M37.84 122.01 A3.73479 3.64213 -90 0 0 41.54 118.4 L41.54 117.78 C40.06 105.87 33.44 96.18 20.8 96.18
								 C8.16 96.18 1.29 104.39 0 117.78 A3.82739 3.73243 -90 0 0 3.31 121.98 L37.84 121.98 L37.84 122.01
								 Z" class="st1"/>
				</g>
				<g id="shape5857-7" transform="translate(14.4782,-17.956)">
					<title>path6</title>
					<path d="M6.32 107.17 A11.9143 11.6187 90 0 1 0 105.28 L6.26 122.01 L12.46 105.38 A11.8217 11.5284 90 0 1 6.32
								 107.17 Z" class="st2"/>
				</g>
				<g id="shape5858-9" transform="translate(9.15046,-32.8026)">
					<title>circle8</title>
					<ellipse cx="11.6488" cy="110.068" rx="11.6488" ry="11.9452" class="st3"/>
				</g>
				<g id="shape5859-13" transform="translate(26.0977,-7.31915)">
					<title>circle6</title>
					<ellipse cx="8.95438" cy="112.831" rx="8.95438" ry="9.18221" class="st4"/>
				</g>
				<g id="shape5860-15" transform="translate(41.8865,0)">
					<title>path10</title>
					<path d="M7.36 122.01 C7.84 122.01 8.28 121.83 8.61 121.49 C8.95 121.15 9.13 120.69 9.14 120.21 A1.80344 1.75869
								 -90 0 0 8.62 118.92 L2.5 112.64 L0 115.21 L6.11 121.48 C6.44 121.82 6.89 122.01 7.36 122.01 Z"
							class="st5"/>
				</g>
				<g id="shape5861-17" transform="translate(42.4011,-4.52985)">
					<title>path12</title>
					<path d="M1.7 122.01 A6.04163 5.89173 -90 0 0 4.19 119.46 L4.2 119.44 L2.5 117.7 L0 120.27 L1.7 122.01 L1.7 122.01
								 Z" class="st6"/>
				</g>
				<g id="shape5862-19" transform="translate(22.6977,-3.83257)">
					<title>path14</title>
					<path d="M12.35 96.68 C5.53 96.68 0 102.35 0 109.34 C0 116.34 5.53 122.01 12.35 122.01 C19.18 122.01 24.71 116.34
								 24.71 109.34 C24.71 102.35 19.18 96.68 12.35 96.68 ZM12.35 118.53 C7.42 118.53 3.4 114.41 3.4 109.34
								 C3.4 104.28 7.42 100.16 12.35 100.16 C17.29 100.16 21.31 104.28 21.31 109.34 C21.31 114.41 17.29
								 118.53 12.35 118.53 Z" class="st5"/>
				</g>
			</g>
		</g>
	</g>
</svg>
