<?xml version="1.0" encoding="UTF-8" standalone="no"?>
<!DOCTYPE svg PUBLIC "-//W3C//DTD SVG 1.1//EN" "http://www.w3.org/Graphics/SVG/1.1/DTD/svg11.dtd">
<!-- Generated by Microsoft Visio, SVG Export Azure Maps Account.svg Page-1 -->
<svg xmlns="http://www.w3.org/2000/svg" xmlns:xlink="http://www.w3.org/1999/xlink" xmlns:ev="http://www.w3.org/2001/xml-events"
		width="1.15391in" height="1.41732in" viewBox="0 0 83.0814 102.047" xml:space="preserve" color-interpolation-filters="sRGB"
		class="st7">
	<style type="text/css">
	<![CDATA[
		.st1 {fill:url(#grad0-6);stroke:none;stroke-linecap:butt;stroke-width:5.32174}
		.st2 {fill:#9cebff;stroke:none;stroke-linecap:butt;stroke-width:5.32174}
		.st3 {fill:#ffffff;fill-opacity:0.7;stroke:none;stroke-linecap:butt;stroke-width:5.32174}
		.st4 {fill:#32bedd;stroke:none;stroke-linecap:butt;stroke-width:5.32174}
		.st5 {visibility:visible}
		.st6 {fill:#000000;font-family:Calibri;font-size:0.666664em}
		.st7 {fill:none;fill-rule:evenodd;font-size:12px;overflow:visible;stroke-linecap:square;stroke-miterlimit:3}
	]]>
	</style>

	<defs id="Patterns_And_Gradients">
		<linearGradient id="grad0-6" x1="0" y1="0" x2="1" y2="0" gradientTransform="rotate(-90 0.5 0.5)">
			<stop offset="0" stop-color="#198ab3" stop-opacity="1"/>
			<stop offset="0.44" stop-color="#28b7db" stop-opacity="1"/>
			<stop offset="0.775" stop-color="#32d4f5" stop-opacity="1"/>
		</linearGradient>
	</defs>
	<g>
		<title>Page-1</title>
		<g id="group5246-1" transform="translate(11.7771,-39.685)">
			<title>Azure Maps Account.5246</title>
			<desc>Azure Maps Account</desc>
			<g id="group5247-2">
				<title> atlasicon</title>
				<g id="shape5248-3">
					<title>Sheet.5248</title>
					<path d="M43.74 93.54 C32.78 102.05 17.04 100.05 8.52 89.11 C0 78.17 2 62.44 12.96 53.93 C13.03 53.86 13.1 53.79
								 13.24 53.72 C24.27 45.35 40.01 47.57 48.39 58.58 C56.69 69.59 54.62 85.1 43.74 93.54 Z"
							class="st1"/>
				</g>
				<g id="shape5249-7" transform="translate(13.6722,-17.0145)">
					<title>Sheet.5249</title>
					<path d="M18.68 72.38 L0 102.05 L23.41 92.97 L18.68 72.38 L18.68 72.38 Z" class="st2"/>
				</g>
				<g id="shape5250-9" transform="translate(28.5612,-12.582)">
					<title>Sheet.5250</title>
					<path d="M0 73.95 L11.6 102.05 L3.79 67.95 L0 73.95 L0 73.95 Z" class="st3"/>
				</g>
				<g id="shape5251-11" transform="translate(27.9168,-12.5109)">
					<title>Sheet.5251</title>
					<path d="M0 92.04 L7.02 89.32 L12.24 102.05 L0 92.04 L0 92.04 Z" class="st4"/>
				</g>
			</g>
			<g id="shape5246-13">
				<g id="shadow5246-14" transform="matrix(1,0,0,1,1.41732,1.41732)" class="st5"/>
				<text x="-5.19" y="117.75" class="st6">Azure Maps Account</text>			</g>
		</g>
	</g>
</svg>
