<?xml version="1.0" encoding="UTF-8" standalone="no"?>
<!DOCTYPE svg PUBLIC "-//W3C//DTD SVG 1.1//EN" "http://www.w3.org/Graphics/SVG/1.1/DTD/svg11.dtd">
<!-- Generated by Microsoft Visio, SVG Export 1ES CloudTest Account.svg Page-1 -->
<svg xmlns="http://www.w3.org/2000/svg" xmlns:xlink="http://www.w3.org/1999/xlink" xmlns:ev="http://www.w3.org/2001/xml-events"
		width="1.73212in" height="1.57459in" viewBox="0 0 124.713 113.371" xml:space="preserve" color-interpolation-filters="sRGB"
		class="st4">
	<style type="text/css">
	<![CDATA[
		.st1 {fill:#0078d4;stroke:none;stroke-linecap:butt;stroke-width:34}
		.st2 {fill:#ffffff;fill-opacity:0.8;stroke:none;stroke-linecap:butt;stroke-width:34}
		.st3 {fill:url(#grad0-12);stroke:none;stroke-linecap:butt;stroke-width:34}
		.st4 {fill:none;fill-rule:evenodd;font-size:12px;overflow:visible;stroke-linecap:square;stroke-miterlimit:3}
	]]>
	</style>

	<defs id="Patterns_And_Gradients">
		<linearGradient id="grad0-12" x1="0" y1="0" x2="1" y2="0" gradientTransform="rotate(84.938814516933 0.5 0.5)">
			<stop offset="0" stop-color="#32d4f5" stop-opacity="1"/>
			<stop offset="0.21" stop-color="#30cff0" stop-opacity="1"/>
			<stop offset="0.465" stop-color="#2bc0e3" stop-opacity="1"/>
			<stop offset="0.75" stop-color="#23a7cd" stop-opacity="1"/>
			<stop offset="1" stop-color="#198ab3" stop-opacity="1"/>
		</linearGradient>
	</defs>
	<g>
		<title>Page-1</title>
		<g id="group16794-1" transform="translate(34.0199,-34.0157)">
			<title>1ES CloudTest Account.16794</title>
			<g id="group16795-2">
				<title>Sheet.16795</title>
				<g id="shape16796-3" transform="translate(28.4223,-7.46764)">
					<title>Sheet.16796</title>
					<path d="M25.74 113.37 A2.52924 2.46864 -180 0 0 28.27 110.92 A2.44388 2.38533 -180 0 0 28.25 110.61 C27.27 102.9
								 22.75 96.62 14.15 96.62 C5.4 96.62 0.87 101.94 0 110.64 A2.52924 2.46864 -180 0 0 2.25 113.35 L2.51
								 113.35 L25.74 113.37 Z" class="st1"/>
				</g>
				<g id="shape16797-5" transform="translate(38.2737,-12.7721)">
					<title>Sheet.16797</title>
					<path d="M4.29 103.76 A7.87542 7.68673 0 0 1 0 102.53 L4.25 113.37 L8.47 102.6 A7.90387 7.71451 0 0 1 4.29 103.76
								 Z" class="st2"/>
				</g>
				<g id="shape16798-7" transform="translate(34.6348,-22.3782)">
					<title>Sheet.16798</title>
					<ellipse cx="7.93233" cy="105.628" rx="7.93233" ry="7.74228" class="st1"/>
				</g>
				<g id="shape16799-9">
					<title>Sheet.16799</title>
					<path d="M42.17 109.28 C40.96 99.85 36.22 91.86 27.5 89.27 A11.8242 11.5409 -180 1 0 14.56 89.16 C5.77 91.48
								 1.07 98.71 0 109.31 A3.77489 3.68445 -180 0 0 3.37 113.35 C3.49 113.36 3.62 113.37 3.75 113.37 L38.43
								 113.37 A3.75276 3.66285 -180 0 0 42.19 109.72 A3.57887 3.49313 -180 0 0 42.17 109.28 Z"
							class="st3"/>
				</g>
				<g id="shape16800-13" transform="translate(14.7139,-7.91508)">
					<title>Sheet.16800</title>
					<path d="M6.41 99.03 A11.7736 11.4915 0 0 1 0 97.18 L6.34 113.37 L12.64 97.3 A11.7705 11.4884 0 0 1 6.41 99.03
								 Z" class="st2"/>
				</g>
			</g>
		</g>
	</g>
</svg>
