<?xml version="1.0" encoding="UTF-8" standalone="no"?>
<!-- Generated by Microsoft Visio, SVG Export 1ES CloudTest Account.svg Page-1 -->

<svg
   xmlns:dc="http://purl.org/dc/elements/1.1/"
   xmlns:cc="http://creativecommons.org/ns#"
   xmlns:rdf="http://www.w3.org/1999/02/22-rdf-syntax-ns#"
   xmlns:svg="http://www.w3.org/2000/svg"
   xmlns="http://www.w3.org/2000/svg"
   xmlns:sodipodi="http://sodipodi.sourceforge.net/DTD/sodipodi-0.dtd"
   xmlns:inkscape="http://www.inkscape.org/namespaces/inkscape"
   width="0.78766149in"
   height="0.62993139in"
   viewBox="0 0 56.71179 45.355269"
   xml:space="preserve"
   class="st4"
   version="1.1"
   id="svg51"
   sodipodi:docname="1ES CloudTest Account.svg"
   style="font-size:12px;overflow:visible;color-interpolation-filters:sRGB;fill:none;fill-rule:evenodd;stroke-linecap:square;stroke-miterlimit:3"
   inkscape:version="0.92.5 (2060ec1f9f, 2020-04-08)"><metadata
   id="metadata55"><rdf:RDF><cc:Work
       rdf:about=""><dc:format>image/svg+xml</dc:format><dc:type
         rdf:resource="http://purl.org/dc/dcmitype/StillImage" /></cc:Work></rdf:RDF></metadata><sodipodi:namedview
   pagecolor="#ffffff"
   bordercolor="#666666"
   borderopacity="1"
   objecttolerance="10"
   gridtolerance="10"
   guidetolerance="10"
   inkscape:pageopacity="0"
   inkscape:pageshadow="2"
   inkscape:window-width="640"
   inkscape:window-height="480"
   id="namedview53"
   showgrid="false"
   inkscape:zoom="1.561253"
   inkscape:cx="37.808069"
   inkscape:cy="30.224942"
   inkscape:window-x="0"
   inkscape:window-y="0"
   inkscape:window-maximized="0"
   inkscape:current-layer="svg51" />
	<style
   type="text/css"
   id="style2">
	<![CDATA[
		.st1 {fill:#0078d4;stroke:none;stroke-linecap:butt;stroke-width:34}
		.st2 {fill:#ffffff;fill-opacity:0.8;stroke:none;stroke-linecap:butt;stroke-width:34}
		.st3 {fill:url(#grad0-12);stroke:none;stroke-linecap:butt;stroke-width:34}
		.st4 {fill:none;fill-rule:evenodd;font-size:12px;overflow:visible;stroke-linecap:square;stroke-miterlimit:3}
	]]>
	</style>

	<defs
   id="Patterns_And_Gradients">
		<linearGradient
   id="grad0-12"
   x1="-0.020297679"
   y1="65.614213"
   x2="43.734192"
   y2="65.614213"
   gradientTransform="scale(0.9647058,1.0365855)"
   gradientUnits="userSpaceOnUse">
			<stop
   offset="0"
   stop-color="#32d4f5"
   stop-opacity="1"
   id="stop4" />
			<stop
   offset="0.21"
   stop-color="#30cff0"
   stop-opacity="1"
   id="stop6" />
			<stop
   offset="0.465"
   stop-color="#2bc0e3"
   stop-opacity="1"
   id="stop8" />
			<stop
   offset="0.75"
   stop-color="#23a7cd"
   stop-opacity="1"
   id="stop10" />
			<stop
   offset="1"
   stop-color="#198ab3"
   stop-opacity="1"
   id="stop12" />
		</linearGradient>
	</defs>
	<g
   id="g49"
   transform="translate(-34.000424,-33.999039)">
		<title
   id="title16">Page-1</title>
		<g
   id="group17525-1"
   transform="translate(34.0199,-34.0157)">
			<title
   id="title18">1ES CloudTest Account.17525</title>
			<g
   id="group17526-2">
				<title
   id="title20">Sheet.17526</title>
				<g
   id="shape17527-3"
   transform="translate(28.4223,-7.46764)">
					<title
   id="title22">Sheet.17527</title>
					<path
   d="m 25.74,113.37 a 2.52924,2.46864 -180 0 0 2.53,-2.45 2.44388,2.38533 -180 0 0 -0.02,-0.31 C 27.27,102.9 22.75,96.62 14.15,96.62 5.4,96.62 0.87,101.94 0,110.64 a 2.52924,2.46864 -180 0 0 2.25,2.71 h 0.26 z"
   class="st1"
   id="path24"
   inkscape:connector-curvature="0"
   style="fill:#0078d4;stroke:none;stroke-width:34;stroke-linecap:butt" />
				</g>
				<g
   id="shape17528-5"
   transform="translate(38.2737,-12.7721)">
					<title
   id="title27">Sheet.17528</title>
					<path
   d="M 4.29,103.76 A 7.87542,7.68673 0 0 1 0,102.53 l 4.25,10.84 4.22,-10.77 a 7.90387,7.71451 0 0 1 -4.18,1.16 z"
   class="st2"
   id="path29"
   inkscape:connector-curvature="0"
   style="fill:#ffffff;fill-opacity:0.8;stroke:none;stroke-width:34;stroke-linecap:butt" />
				</g>
				<g
   id="shape17529-7"
   transform="translate(34.6348,-22.3782)">
					<title
   id="title32">Sheet.17529</title>
					<ellipse
   cx="7.9323301"
   cy="105.628"
   rx="7.9323301"
   ry="7.74228"
   class="st1"
   id="ellipse34"
   style="fill:#0078d4;stroke:none;stroke-width:34;stroke-linecap:butt" />
				</g>
				<g
   id="shape17530-9">
					<title
   id="title37">Sheet.17530</title>
					<path
   d="M 42.17,109.28 C 40.96,99.85 36.22,91.86 27.5,89.27 A 11.8242,11.5409 -180 1 0 14.56,89.16 C 5.77,91.48 1.07,98.71 0,109.31 a 3.77489,3.68445 -180 0 0 3.37,4.04 c 0.12,0.01 0.25,0.02 0.38,0.02 h 34.68 a 3.75276,3.66285 -180 0 0 3.76,-3.65 3.57887,3.49313 -180 0 0 -0.02,-0.44 z"
   class="st3"
   id="path39"
   inkscape:connector-curvature="0"
   style="fill:url(#grad0-12);stroke:none;stroke-width:34;stroke-linecap:butt" />
				</g>
				<g
   id="shape17531-13"
   transform="translate(14.7139,-7.91508)">
					<title
   id="title42">Sheet.17531</title>
					<path
   d="M 6.41,99.03 A 11.7736,11.4915 0 0 1 0,97.18 l 6.34,16.19 6.3,-16.07 a 11.7705,11.4884 0 0 1 -6.23,1.73 z"
   class="st2"
   id="path44"
   inkscape:connector-curvature="0"
   style="fill:#ffffff;fill-opacity:0.8;stroke:none;stroke-width:34;stroke-linecap:butt" />
				</g>
			</g>
		</g>
	</g>
</svg>