<?xml version="1.0" encoding="UTF-8" standalone="no"?>
<!DOCTYPE svg PUBLIC "-//W3C//DTD SVG 1.1//EN" "http://www.w3.org/Graphics/SVG/1.1/DTD/svg11.dtd">
<!-- Generated by Microsoft Visio, SVG Export Blueprint.svg Page-1 -->
<svg xmlns="http://www.w3.org/2000/svg" xmlns:xlink="http://www.w3.org/1999/xlink" xmlns:ev="http://www.w3.org/2001/xml-events"
		width="1.72225in" height="1.6988in" viewBox="0 0 124.002 122.314" xml:space="preserve" color-interpolation-filters="sRGB"
		class="st4">
	<style type="text/css">
	<![CDATA[
		.st1 {fill:#198ab3;stroke:none;stroke-linecap:butt;stroke-width:34}
		.st2 {fill:url(#grad0-8);stroke:none;stroke-linecap:butt;stroke-width:34}
		.st3 {fill:#ffffff;stroke:none;stroke-linecap:butt;stroke-width:34}
		.st4 {fill:none;fill-rule:evenodd;font-size:12px;overflow:visible;stroke-linecap:square;stroke-miterlimit:3}
	]]>
	</style>

	<defs id="Patterns_And_Gradients">
		<linearGradient id="grad0-8" x1="0" y1="0" x2="1" y2="0" gradientTransform="rotate(-90 0.5 0.5)">
			<stop offset="0" stop-color="#198ab3" stop-opacity="1"/>
			<stop offset="0" stop-color="#198ab3" stop-opacity="1"/>
			<stop offset="0.11" stop-color="#22a5cb" stop-opacity="1"/>
			<stop offset="0.23" stop-color="#29bade" stop-opacity="1"/>
			<stop offset="0.37" stop-color="#2ec9eb" stop-opacity="1"/>
			<stop offset="0.53" stop-color="#31d1f3" stop-opacity="1"/>
			<stop offset="0.78" stop-color="#32d4f5" stop-opacity="1"/>
		</linearGradient>
	</defs>
	<g>
		<title>Page-1</title>
		<g id="group16656-1" transform="translate(34,-34.4553)">
			<title>Blueprint.16656</title>
			<g id="group16657-2">
				<title>Icon-manage-304</title>
				<g id="shape16658-3" transform="translate(44.8486,2.70006E-13)">
					<title>Sheet.16658</title>
					<path d="M3.42 110.1 A6.84335 6.74684 0 0 1 10.92 117.36 A6.21824 6.13055 0 0 1 0.86 121.42 A2.20435 2.17326
								 0 0 1 0 119.67 L0 110.07 L3.42 110.1 Z" class="st1"/>
				</g>
				<g id="shape16659-5" transform="translate(0.0707316,-4.17105)">
					<title>Sheet.16659</title>
					<path d="M55.87 114.24 L55.87 85.04 A7.53427 7.42802 -180 0 0 48.33 77.68 L0 77.68 L0 106.87 A7.53427 7.42802
								 -180 0 0 7.53 114.3 L40.17 114.3 A84.7523 83.5571 0 0 1 50.04 114.3 C56.62 115.34 55.44 122.31 55.44
								 122.31 A36.6185 36.1021 -180 0 0 55.87 114.24 Z" class="st2"/>
				</g>
				<g id="shape16660-9" transform="translate(0,-18.9946)">
					<title>Sheet.16660</title>
					<path d="M0.04 122.31 L0.04 122.09 A6.05374 5.96836 0 0 1 10.7 119.17 a0.756717 0.746045 -180 0 0 1.31603 -0.486551
								 L12.01 93.32 A4.4745 4.4114 -180 0 0 12.01 92.37 A6.08664 6.0008 -180 0 0 0.04 92.37 A3.02687 2.98418
								 -180 0 0 0.04 93.32 L0.04 122.31 Z" class="st1"/>
				</g>
				<g id="shape16661-11" transform="translate(21.8839,-18.5567)">
					<title>Sheet.16661</title>
					<path d="M17.11 112.34 a0.921221 0.908229 -180 0 0 -0.921221 -0.908229 L12.9 111.43 C12.7 110.98 12.54 110.49
								 12.34 110.04 C11.61 108.19 10.82 106.34 10.07 104.52 L9.8 103.91 A4.5403 4.47627 -180 1 0 7.5 103.91
								 L7.21 104.55 C6.38 106.37 5.59 108.22 4.8 110.07 L4.21 111.5 L0.92 111.5 a0.921221 0.908229 -180
								 0 0 -0.921221 0.908229 a0.88832 0.875792 -180 0 0 0.921221 0.908229 L3.55 113.31 A170.87 168.46
								 -180 0 0 0.56 121.32 a0.758325 0.74763 -180 0 0 1.38183 0.616298 C2.96 120.19 3.92 118.4 4.84 116.65
								 C5.43 115.55 5.99 114.45 6.55 113.41 L10.69 113.41 L12.27 116.65 C13.19 118.44 14.11 120.22 15.07
								 121.97 a0.756717 0.746045 -180 0 0 1.38183 -0.583861 C15.86 119.48 15.2 117.59 14.54 115.71 L13.65
								 113.34 L16.09 113.34 a0.88832 0.875792 -180 0 0 1.01992 -1.00554 ZM6.12 99.56 A2.66496 2.62738 0
								 0 1 11.45 99.56 A2.66496 2.62738 0 0 1 6.12 99.56 ZM7.53 111.43 L7.53 111.2 L8.62 108.87 L9.67 111.17
								 L9.67 111.43 L7.53 111.43 Z" class="st3"/>
				</g>
			</g>
		</g>
	</g>
</svg>
