<?xml version="1.0" encoding="UTF-8" standalone="no"?>
<!-- Generated by Microsoft Visio, SVG Export Blueprint.svg Page-1 -->

<svg
   xmlns:dc="http://purl.org/dc/elements/1.1/"
   xmlns:cc="http://creativecommons.org/ns#"
   xmlns:rdf="http://www.w3.org/1999/02/22-rdf-syntax-ns#"
   xmlns:svg="http://www.w3.org/2000/svg"
   xmlns="http://www.w3.org/2000/svg"
   xmlns:sodipodi="http://sodipodi.sourceforge.net/DTD/sodipodi-0.dtd"
   xmlns:inkscape="http://www.inkscape.org/namespaces/inkscape"
   width="0.77783763in"
   height="0.7541303in"
   viewBox="0 0 56.00431 54.29756"
   xml:space="preserve"
   class="st4"
   version="1.1"
   id="svg50"
   sodipodi:docname="Blueprint.svg"
   style="font-size:12px;overflow:visible;color-interpolation-filters:sRGB;fill:none;fill-rule:evenodd;stroke-linecap:square;stroke-miterlimit:3"
   inkscape:version="0.92.5 (2060ec1f9f, 2020-04-08)"><metadata
   id="metadata54"><rdf:RDF><cc:Work
       rdf:about=""><dc:format>image/svg+xml</dc:format><dc:type
         rdf:resource="http://purl.org/dc/dcmitype/StillImage" /></cc:Work></rdf:RDF></metadata><sodipodi:namedview
   pagecolor="#ffffff"
   bordercolor="#666666"
   borderopacity="1"
   objecttolerance="10"
   gridtolerance="10"
   guidetolerance="10"
   inkscape:pageopacity="0"
   inkscape:pageshadow="2"
   inkscape:window-width="640"
   inkscape:window-height="480"
   id="namedview52"
   showgrid="false"
   inkscape:zoom="1.4470999"
   inkscape:cx="37.332663"
   inkscape:cy="36.202444"
   inkscape:window-x="0"
   inkscape:window-y="0"
   inkscape:window-maximized="0"
   inkscape:current-layer="svg50" />
	<style
   type="text/css"
   id="style2">
	<![CDATA[
		.st1 {fill:#198ab3;stroke:none;stroke-linecap:butt;stroke-width:34}
		.st2 {fill:url(#grad0-8);stroke:none;stroke-linecap:butt;stroke-width:34}
		.st3 {fill:#ffffff;stroke:none;stroke-linecap:butt;stroke-width:34}
		.st4 {fill:none;fill-rule:evenodd;font-size:12px;overflow:visible;stroke-linecap:square;stroke-miterlimit:3}
	]]>
	</style>

	<defs
   id="Patterns_And_Gradients">
		<linearGradient
   id="grad0-8"
   x1="-2.393809e-07"
   y1="86.963747"
   x2="49.963856"
   y2="86.963747"
   gradientTransform="scale(1.1195127,0.89324575)"
   gradientUnits="userSpaceOnUse">
			<stop
   offset="0"
   stop-color="#198ab3"
   stop-opacity="1"
   id="stop4" />
			<stop
   offset="0"
   stop-color="#198ab3"
   stop-opacity="1"
   id="stop6" />
			<stop
   offset="0.11"
   stop-color="#22a5cb"
   stop-opacity="1"
   id="stop8" />
			<stop
   offset="0.23"
   stop-color="#29bade"
   stop-opacity="1"
   id="stop10" />
			<stop
   offset="0.37"
   stop-color="#2ec9eb"
   stop-opacity="1"
   id="stop12" />
			<stop
   offset="0.53"
   stop-color="#31d1f3"
   stop-opacity="1"
   id="stop14" />
			<stop
   offset="0.78"
   stop-color="#32d4f5"
   stop-opacity="1"
   id="stop16" />
		</linearGradient>
	</defs>
	<g
   id="g48"
   transform="translate(-34.001615,-34.011361)">
		<title
   id="title20">Page-1</title>
		<g
   id="group19700-1"
   transform="translate(34,-34.4553)">
			<title
   id="title22">Blueprint.19700</title>
			<g
   id="group19701-2">
				<title
   id="title24">Icon-manage-304</title>
				<g
   id="shape19702-3"
   transform="translate(44.8486)">
					<title
   id="title26">Sheet.19702</title>
					<path
   d="m 3.42,110.1 a 6.84335,6.74684 0 0 1 7.5,7.26 A 6.21824,6.13055 0 0 1 0.86,121.42 2.20435,2.17326 0 0 1 0,119.67 v -9.6 z"
   class="st1"
   id="path28"
   inkscape:connector-curvature="0"
   style="fill:#198ab3;stroke:none;stroke-width:34;stroke-linecap:butt" />
				</g>
				<g
   id="shape19703-5"
   transform="translate(0.0707316,-4.17105)">
					<title
   id="title31">Sheet.19703</title>
					<path
   d="M 55.87,114.24 V 85.04 A 7.53427,7.42802 -180 0 0 48.33,77.68 H 0 v 29.19 a 7.53427,7.42802 -180 0 0 7.53,7.43 h 32.64 a 84.7523,83.5571 0 0 1 9.87,0 c 6.58,1.04 5.4,8.01 5.4,8.01 a 36.6185,36.1021 -180 0 0 0.43,-8.07 z"
   class="st2"
   id="path33"
   inkscape:connector-curvature="0"
   style="fill:url(#grad0-8);stroke:none;stroke-width:34;stroke-linecap:butt" />
				</g>
				<g
   id="shape19704-9"
   transform="translate(0,-18.9946)">
					<title
   id="title36">Sheet.19704</title>
					<path
   d="m 0.04,122.31 v -0.22 a 6.05374,5.96836 0 0 1 10.66,-2.92 0.756717,0.746045 -180 0 0 1.31603,-0.48655 L 12.01,93.32 a 4.4745,4.4114 -180 0 0 0,-0.95 6.08664,6.0008 -180 0 0 -11.97,0 3.02687,2.98418 -180 0 0 0,0.95 z"
   class="st1"
   id="path38"
   inkscape:connector-curvature="0"
   style="fill:#198ab3;stroke:none;stroke-width:34;stroke-linecap:butt" />
				</g>
				<g
   id="shape19705-11"
   transform="translate(21.8839,-18.5567)">
					<title
   id="title41">Sheet.19705</title>
					<path
   d="m 17.11,112.34 a 0.921221,0.908229 -180 0 0 -0.921221,-0.90823 L 12.9,111.43 c -0.2,-0.45 -0.36,-0.94 -0.56,-1.39 -0.73,-1.85 -1.52,-3.7 -2.27,-5.52 L 9.8,103.91 a 4.5403,4.47627 -180 1 0 -2.3,0 l -0.29,0.64 c -0.83,1.82 -1.62,3.67 -2.41,5.52 L 4.21,111.5 H 0.92 a 0.921221,0.908229 -180 0 0 -0.921221,0.90823 0.88832,0.875792 -180 0 0 0.921221,0.90823 l 2.63,-0.006 a 170.87,168.46 -180 0 0 -2.99,8.01 0.758325,0.74763 -180 0 0 1.38183,0.6163 C 2.96,120.19 3.92,118.4 4.84,116.65 c 0.59,-1.1 1.15,-2.2 1.71,-3.24 h 4.14 l 1.58,3.24 c 0.92,1.79 1.84,3.57 2.8,5.32 a 0.756717,0.746045 -180 0 0 1.38183,-0.58386 C 15.86,119.48 15.2,117.59 14.54,115.71 l -0.89,-2.37 h 2.44 a 0.88832,0.875792 -180 0 0 1.01992,-1.00554 z M 6.12,99.56 a 2.665,2.6274194 0 0 1 5.33,0 2.665,2.6274194 0 0 1 -5.33,0 z m 1.41,11.87 v -0.23 l 1.09,-2.33 1.05,2.3 v 0.26 z"
   class="st3"
   id="path43"
   inkscape:connector-curvature="0"
   style="fill:#ffffff;stroke:none;stroke-width:34;stroke-linecap:butt" />
				</g>
			</g>
		</g>
	</g>
</svg>