<?xml version="1.0" encoding="UTF-8" standalone="no"?>
<!DOCTYPE svg PUBLIC "-//W3C//DTD SVG 1.1//EN" "http://www.w3.org/Graphics/SVG/1.1/DTD/svg11.dtd">
<!-- Generated by Microsoft Visio, SVG Export Chef.svg Page-1 -->
<svg xmlns="http://www.w3.org/2000/svg" xmlns:xlink="http://www.w3.org/1999/xlink" xmlns:ev="http://www.w3.org/2001/xml-events"
		width="0.944882in" height="1.33858in" viewBox="0 0 68.0315 96.378" xml:space="preserve" color-interpolation-filters="sRGB"
		class="st5">
	<style type="text/css">
	<![CDATA[
		.st1 {fill:#435363;stroke:none;stroke-linecap:butt;stroke-width:0.75}
		.st2 {fill:#f38b00;stroke:none;stroke-linecap:butt;stroke-width:0.75}
		.st3 {fill:#f38b00;stroke:none;stroke-width:0.999999}
		.st4 {fill:none;stroke:none;stroke-linecap:butt;stroke-width:0.75}
		.st5 {fill:none;fill-rule:evenodd;font-size:12px;overflow:visible;stroke-linecap:square;stroke-miterlimit:3}
	]]>
	</style>

	<g>
		<title>Page-1</title>
		<g id="group9809-1" transform="translate(5.66929,-34.0157)">
			<title>Chef.9809</title>
			<g id="group9810-2">
				<title>Page-1</title>
				<g id="group9811-3">
					<title>chef-2</title>
					<g id="group9812-4" transform="translate(9.20634,-10.783)">
						<title>Sheet.9812</title>
						<g id="shape9813-5">
							<title>Sheet.9813</title>
							<path d="M18.25 91.58 C10.94 91.58 4.99 85.85 4.99 78.82 C4.99 71.77 10.94 66.05 18.25 66.05 C24.3 66.05
										 29.4 69.94 30.99 75.27 L36.12 75.27 C34.42 67.27 27.05 61.24 18.25 61.24 C8.19 61.24 0 69.12
										 0 78.82 C0 88.5 8.19 96.38 18.25 96.38 C27.05 96.38 34.42 90.35 36.12 82.35 L30.99 82.35
										 C29.4 87.68 24.3 91.58 18.25 91.58 Z" class="st1"/>
						</g>
					</g>
					<g id="group9814-7" transform="translate(18.5141,-16.1685)">
						<title>Sheet.9814</title>
						<g id="shape9815-8">
							<title>Sheet.9815</title>
							<path d="M0 92.8 C2.3 95.01 5.45 96.38 8.94 96.38 L8.94 91.29 C6.91 91.29 5.07 90.48 3.73 89.21 L0 92.8
										 Z" class="st1"/>
						</g>
					</g>
					<g id="group9816-10" transform="translate(30.1275,-31.8885)">
						<title>Sheet.9816</title>
						<g id="shape9817-11">
							<title>Sheet.9817</title>
							<path d="M1.92 88.58 L0 93.32 C1.57 93.91 2.88 94.98 3.7 96.38 L9.43 96.38 C8.3 92.8 5.51 89.92 1.92
										 88.58 Z" class="st1"/>
						</g>
					</g>
					<g id="group9818-13">
						<title>Sheet.9818</title>
						<g id="shape9819-14">
							<title>Sheet.9819</title>
							<path d="M27.46 91.56 C20.71 91.56 14.6 88.92 10.17 84.67 L6.63 88.06 C11.97 93.2 19.32 96.38 27.46 96.38
										 C42.49 96.38 54.88 85.56 56.69 71.58 L51.65 71.58 C49.87 82.88 39.7 91.56 27.46 91.56 ZM27.46
										 44.49 C32.94 44.49 38 46.23 42.08 49.17 L45.08 45.31 C40.17 41.78 34.06 39.69 27.46 39.69
										 C14.96 39.69 4.28 47.17 0 57.74 L4.66 59.49 C8.22 50.71 17.1 44.49 27.46 44.49 Z"
									class="st2"/>
						</g>
					</g>
					<g id="group9820-16" transform="translate(48.2052,-31.8874)">
						<title>Sheet.9820</title>
						<g id="shape9821-17">
							<title>Sheet.9821</title>
							<path d="M3.45 96.38 L8.49 96.38 C7.94 92.2 6.46 88.32 4.25 84.91 L0 87.45 C1.73 90.12 2.93 93.14 3.45
										 96.38 Z" class="st1"/>
						</g>
					</g>
					<g id="group9822-19" transform="translate(34.2984,-31.8873)">
						<title>Sheet.9822</title>
						<g id="shape9823-20">
							<title>Sheet.9823</title>
							<path d="M11.67 96.38 L16.72 96.38 C15.4 88.21 9.59 81.45 1.81 78.53 L0 83 C5.92 85.23 10.41 90.24 11.67
										 96.38 Z" class="st3"/>
						</g>
						<g id="shape9824-22">
							<title>Sheet.9824</title>
							<path d="M11.67 96.38 L16.72 96.38 C15.4 88.21 9.59 81.45 1.81 78.53 L0 83 C5.92 85.23 10.41 90.24 11.67
										 96.38 Z" class="st4"/>
						</g>
					</g>
					<g id="group9825-24" transform="translate(5.23325,-34.9263)">
						<title>Sheet.9825</title>
						<g id="shape9826-25">
							<title>Sheet.9826</title>
							<path d="M22.22 84.8 L22.22 80.02 C12.13 80.02 3.46 86.08 0 94.64 L4.65 96.38 C7.39 89.61 14.24 84.8
										 22.22 84.8 Z" class="st1"/>
						</g>
					</g>
					<g id="group9827-27" transform="translate(3.60984,-7.04507)">
						<title>Sheet.9827</title>
						<g id="shape9828-28">
							<title>Sheet.9828</title>
							<path d="M4.98 75.08 L0 75.08 C0 84.71 6.22 92.98 14.99 96.38 L16.85 91.92 C9.9 89.24 4.98 82.7 4.98
										 75.08 Z" class="st2"/>
						</g>
					</g>
					<g id="group9829-30" transform="translate(27.4588,-5.39855)">
						<title>Sheet.9829</title>
						<g id="shape9830-31">
							<title>Sheet.9830</title>
							<path d="M0 91.58 L0 96.38 C11.9 96.38 21.79 87.94 23.57 76.97 L18.5 76.97 C16.79 85.29 9.15 91.58 0
										 91.58 Z" class="st1"/>
						</g>
					</g>
				</g>
			</g>
		</g>
	</g>
</svg>
