<?xml version="1.0" encoding="UTF-8" standalone="no"?>
<!DOCTYPE svg PUBLIC "-//W3C//DTD SVG 1.1//EN" "http://www.w3.org/Graphics/SVG/1.1/DTD/svg11.dtd">
<!-- Generated by Microsoft Visio, SVG Export Deployment Script.svg Page-1 -->
<svg xmlns="http://www.w3.org/2000/svg" xmlns:xlink="http://www.w3.org/1999/xlink" xmlns:ev="http://www.w3.org/2001/xml-events"
		width="1.73259in" height="1.73206in" viewBox="0 0 124.747 124.709" xml:space="preserve" color-interpolation-filters="sRGB"
		class="st4">
	<style type="text/css">
	<![CDATA[
		.st1 {fill:#0078d4;stroke:none;stroke-linecap:butt;stroke-width:34}
		.st2 {fill:url(#grad0-8);stroke:none;stroke-linecap:butt;stroke-width:34}
		.st3 {fill:#c3f1ff;stroke:none;stroke-linecap:butt;stroke-width:34}
		.st4 {fill:none;fill-rule:evenodd;font-size:12px;overflow:visible;stroke-linecap:square;stroke-miterlimit:3}
	]]>
	</style>

	<defs id="Patterns_And_Gradients">
		<linearGradient id="grad0-8" x1="0" y1="0" x2="1" y2="0" gradientTransform="rotate(90 0.5 0.5)">
			<stop offset="0" stop-color="#5ea0ef" stop-opacity="1"/>
			<stop offset="0.2" stop-color="#5a9eee" stop-opacity="1"/>
			<stop offset="0.41" stop-color="#4d99ea" stop-opacity="1"/>
			<stop offset="0.62" stop-color="#3990e4" stop-opacity="1"/>
			<stop offset="0.835" stop-color="#1c84dc" stop-opacity="1"/>
			<stop offset="1" stop-color="#0078d4" stop-opacity="1"/>
		</linearGradient>
	</defs>
	<g>
		<title>Page-1</title>
		<g id="group3132-1" transform="translate(34.0268,-34.0157)">
			<title>Deployment Script</title>
			<g id="group3133-2">
				<title>deployment-script</title>
				<g id="shape3134-3">
					<title>Sheet.3134</title>
					<path d="M46.79 85.5 L55.69 85.5 A1.02769 1.02677 -180 0 0 56.69 84.24 L53.16 68.82 A1.02769 1.02677 -180 0 0
								 52.15 68.02 L43.25 68.02 A1.02769 1.02677 -180 0 0 42.25 69.28 L45.78 84.7 A1.02769 1.02677 -180
								 0 0 46.78 85.5 L46.79 85.5 ZM4.54 124.71 L13.44 124.71 A1.02769 1.02677 -180 0 0 14.44 123.45 L10.91
								 108.03 A1.02769 1.02677 -180 0 0 9.91 107.23 L1.01 107.23 A1.02769 1.02677 -180 0 0 -0 108.49 L3.53
								 123.91 A1.02769 1.02677 -180 0 0 4.54 124.71 Z" class="st1"/>
				</g>
				<g id="shape3135-5" transform="translate(3.78604,0)">
					<title>Sheet.3135</title>
					<path d="M35.87 124.71 L0.92 124.71 a0.945723 0.944882 0 0 1 -0.920503 -1.15591 L12.55 68.75 a0.945723 0.944882
								 0 0 1 0.926808 -0.733858 L48.42 68.02 a0.945723 0.944882 0 0 1 0.923656 1.15591 L36.79 123.97 a0.945723
								 0.944882 0 0 1 -0.923656 0.733858 L35.87 124.71 Z" class="st2"/>
				</g>
				<g id="shape3136-9" transform="translate(19.5197,-14.6835)">
					<title>Sheet.3136</title>
					<path d="M18.91 111.11 L5.31 95.61 L1.43 99.01 L11.64 110.64 L0 120.83 L3.4 124.71 L18.91 111.11 Z" class="st3"/>
				</g>
			</g>
		</g>
	</g>
</svg>
