<?xml version="1.0" encoding="UTF-8" standalone="no"?>
<!DOCTYPE svg PUBLIC "-//W3C//DTD SVG 1.1//EN" "http://www.w3.org/Graphics/SVG/1.1/DTD/svg11.dtd">
<!-- Generated by Microsoft Visio, SVG Export GitHub.svg Page-1 -->
<svg xmlns="http://www.w3.org/2000/svg" xmlns:xlink="http://www.w3.org/1999/xlink" xmlns:ev="http://www.w3.org/2001/xml-events"
		width="0.944882in" height="1.25197in" viewBox="0 0 68.0315 90.1417" xml:space="preserve" color-interpolation-filters="sRGB"
		class="st2">
	<style type="text/css">
	<![CDATA[
		.st1 {fill:#1b1f23;stroke:none;stroke-linecap:butt;stroke-width:0.75}
		.st2 {fill:none;fill-rule:evenodd;font-size:12px;overflow:visible;stroke-linecap:square;stroke-miterlimit:3}
	]]>
	</style>

	<g>
		<title>Page-1</title>
		<g id="group16888-1" transform="translate(5.66929,-34.0157)">
			<title>GitHub.16888</title>
			<g id="group16889-2">
				<title>Page-1</title>
				<g id="group16890-3">
					<title>github-2</title>
					<g id="group16891-4">
						<title>Sheet.16891</title>
						<g id="shape16892-5">
							<title>Sheet.16892</title>
							<path d="M28.35 39.12 C12.68 39.12 0 50.78 0 65.17 C0 76.7 8.11 86.42 19.39 89.88 C20.8 90.11 21.32 89.33
										 21.32 88.64 C21.32 88.03 21.29 85.97 21.29 83.79 C14.17 84.99 12.33 82.2 11.76 80.74 C11.45
										 79.98 10.06 77.67 8.85 77.05 C7.86 76.57 6.44 75.35 8.82 75.32 C11.06 75.29 12.65 77.22
										 13.18 78 C15.73 81.94 19.81 80.82 21.43 80.14 C21.69 78.45 22.43 77.31 23.24 76.66 C16.93
										 76 10.35 73.76 10.35 63.81 C10.35 60.97 11.45 58.62 13.26 56.8 C12.96 56.15 11.97 53.47
										 13.53 49.9 C13.53 49.9 15.91 49.22 21.32 52.56 C23.59 51.98 26 51.69 28.41 51.69 C30.82
										 51.69 33.23 51.98 35.5 52.56 C40.93 49.18 43.29 49.9 43.29 49.9 C44.85 53.47 43.86 56.15
										 43.57 56.8 C45.39 58.62 46.49 60.94 46.49 63.81 C46.49 73.79 39.86 76 33.56 76.66 C34.58
										 77.48 35.46 79.04 35.46 81.47 C35.46 84.96 35.43 87.77 35.43 88.64 C35.43 89.33 35.97 90.14
										 37.39 89.88 C48.58 86.42 56.69 76.66 56.69 65.17 C56.69 50.78 44 39.12 28.35 39.12 Z"
									class="st1"/>
						</g>
					</g>
				</g>
			</g>
		</g>
	</g>
</svg>
