<?xml version="1.0" encoding="UTF-8" standalone="no"?>
<!DOCTYPE svg PUBLIC "-//W3C//DTD SVG 1.1//EN" "http://www.w3.org/Graphics/SVG/1.1/DTD/svg11.dtd">
<!-- Generated by Microsoft Visio, SVG Export Kafka.svg Page-1 -->
<svg xmlns="http://www.w3.org/2000/svg" xmlns:xlink="http://www.w3.org/1999/xlink" xmlns:ev="http://www.w3.org/2001/xml-events"
		width="0.944882in" height="0.862642in" viewBox="0 0 68.0315 62.1102" xml:space="preserve"
		color-interpolation-filters="sRGB" class="st2">
	<style type="text/css">
	<![CDATA[
		.st1 {fill:#231f20;stroke:none;stroke-linecap:butt;stroke-width:0.75}
		.st2 {fill:none;fill-rule:evenodd;font-size:12px;overflow:visible;stroke-linecap:square;stroke-miterlimit:3}
	]]>
	</style>

	<g>
		<title>Page-1</title>
		<g id="group2990-1" transform="translate(5.66929,-34.0157)">
			<title>Kafka</title>
			<g id="shape2991-2">
				<title>Sheet.2991</title>
				<path d="M5.51 38.91 C5.22 38.63 4.82 38.4 4.41 38.4 C3.95 38.4 3.6 38.57 3.31 38.85 C3.02 39.13 2.84 39.53 2.84
							 39.98 C2.84 40.43 3.02 40.82 3.31 41.1 C3.6 41.39 4 41.55 4.41 41.55 C4.87 41.55 5.22 41.39 5.51 41.1
							 C5.8 40.82 5.98 40.43 5.98 39.98 C5.98 39.58 5.8 39.19 5.51 38.91 ZM4.41 60.36 C4.87 60.36 5.22 60.2
							 5.51 59.91 C5.8 59.63 5.98 59.24 5.98 58.79 C5.98 58.34 5.8 57.94 5.51 57.66 C5.22 57.38 4.82 57.21
							 4.41 57.21 C3.95 57.21 3.6 57.38 3.31 57.66 C3.02 57.94 2.84 58.34 2.84 58.79 C2.84 59.24 3.02 59.63
							 3.31 59.91 C3.54 60.2 3.95 60.36 4.41 60.36 ZM13.06 55.58 C13.46 55.46 13.81 55.24 14.04 54.85 L14.1
							 54.79 C14.27 54.45 14.33 54 14.22 53.66 C14.1 53.27 13.87 52.93 13.46 52.71 C13.11 52.48 12.65 52.48
							 12.3 52.59 C11.9 52.71 11.55 52.93 11.32 53.32 C11.08 53.72 11.03 54.11 11.14 54.51 C11.26 54.9 11.49
							 55.24 11.9 55.46 C12.19 55.69 12.65 55.69 13.06 55.58 ZM6.03 47.81 C5.63 47.41 5.05 47.13 4.41 47.13
							 C3.77 47.13 3.19 47.41 2.79 47.81 C2.38 48.2 2.09 48.76 2.09 49.38 C2.09 50 2.32 50.57 2.79 51.02 C3.19
							 51.41 3.77 51.69 4.41 51.69 C5.05 51.69 5.63 51.41 6.03 51.02 C6.44 50.62 6.73 50.06 6.73 49.38 C6.67
							 48.76 6.44 48.2 6.03 47.81 ZM5.11 45.1 C6.03 45.27 6.85 45.67 7.49 46.34 C7.6 46.45 7.66 46.57 7.78
							 46.68 L9.34 45.78 C9.11 45.16 9.11 44.48 9.28 43.86 C9.52 43.02 10.04 42.29 10.91 41.84 C11.72 41.39
							 12.65 41.27 13.46 41.5 C14.33 41.72 15.09 42.29 15.55 43.07 C16.02 43.86 16.13 44.82 15.9 45.67 C15.67
							 46.51 15.15 47.24 14.27 47.69 L14.1 47.75 C13.35 48.09 12.53 48.14 11.72 47.97 C11.08 47.81 10.5 47.47
							 10.04 46.96 L8.47 47.86 C8.65 48.31 8.76 48.88 8.76 49.38 C8.76 49.95 8.65 50.45 8.47 50.9 L10.04 51.8
							 C10.5 51.3 11.08 50.96 11.72 50.79 C12.59 50.57 13.52 50.68 14.33 51.13 L14.39 51.13 C15.2 51.58 15.73
							 52.31 15.96 53.16 C16.19 54 16.07 54.9 15.61 55.69 L15.61 55.75 C15.15 56.53 14.39 57.04 13.58 57.27
							 C12.71 57.49 11.78 57.38 10.97 56.93 C10.15 56.48 9.57 55.69 9.34 54.9 C9.17 54.28 9.17 53.61 9.4 52.99
							 L7.83 52.09 C7.72 52.2 7.66 52.31 7.54 52.42 C6.91 53.04 6.09 53.49 5.16 53.66 L5.16 55.46 C5.8 55.58
							 6.44 55.92 6.85 56.37 C7.49 56.99 7.83 57.83 7.83 58.73 C7.83 59.63 7.43 60.48 6.85 61.1 C6.21 61.72
							 5.4 62.11 4.41 62.11 C3.48 62.11 2.61 61.72 1.97 61.1 C1.33 60.48 0.99 59.63 0.99 58.73 C0.99 57.77
							 1.39 56.93 1.97 56.37 C2.44 55.92 3.02 55.58 3.66 55.46 L3.66 53.66 C2.73 53.49 1.91 53.1 1.28 52.42
							 C0.46 51.64 0 50.57 0 49.38 C0 48.2 0.52 47.13 1.28 46.34 C1.91 45.72 2.73 45.27 3.66 45.1 L3.66 43.3
							 C3.02 43.19 2.44 42.85 1.97 42.4 C1.33 41.78 0.99 40.93 0.99 39.98 C0.99 39.08 1.39 38.18 1.97 37.61
							 C2.61 36.99 3.42 36.6 4.41 36.6 C5.34 36.6 6.21 36.99 6.85 37.61 C7.49 38.23 7.83 39.08 7.83 39.98 C7.83
							 40.93 7.43 41.78 6.85 42.34 C6.38 42.79 5.8 43.13 5.16 43.24 C5.11 43.3 5.11 45.1 5.11 45.1 ZM13.98
							 43.92 C13.75 43.53 13.4 43.3 13 43.19 C12.59 43.07 12.19 43.13 11.78 43.36 C11.37 43.58 11.14 43.92
							 11.03 44.31 C10.91 44.71 10.97 45.16 11.2 45.5 C11.43 45.89 11.78 46.12 12.19 46.23 C12.59 46.34 13
							 46.29 13.4 46.06 C13.75 45.83 14.04 45.5 14.1 45.1 C14.27 44.71 14.22 44.26 13.98 43.92 Z" class="st1"/>
			</g>
			<g id="shape2992-4" transform="translate(21.0641,-7.77187)">
				<title>Sheet.2992</title>
				<path d="M0 52.2 L1.74 52.2 L1.74 57.55 L4.29 54.79 L6.44 54.79 L3.31 58 L6.38 62.11 L4.35 62.11 L1.74 58.39 L1.74
							 62.05 L0 62.05 L0 52.2 Z" class="st1"/>
			</g>
			<g id="shape2993-6" transform="translate(27.7368,-7.60278)">
				<title>Sheet.2993</title>
				<path d="M1.8 58.28 C1.8 59.18 2.44 60.53 4.06 60.53 C5.05 60.53 5.69 60.03 6.03 59.35 C6.21 59.01 6.27 58.67 6.32
							 58.34 C6.32 58 6.27 57.6 6.09 57.32 C5.8 56.65 5.11 56.03 4 56.03 C2.61 55.97 1.8 57.15 1.8 58.28 ZM8.07
							 61.88 L6.27 61.88 L6.27 60.81 C5.8 61.66 4.82 62.11 3.77 62.11 C1.39 62.11 0 60.31 0 58.22 C0 55.92
							 1.68 54.34 3.77 54.34 C5.11 54.34 5.92 55.07 6.27 55.63 L6.27 54.56 L8.07 54.56 L8.07 61.88 Z"
						class="st1"/>
			</g>
			<g id="shape2994-8" transform="translate(36.8477,-7.82818)">
				<title>Sheet.2994</title>
				<path d="M0.93 56.14 L0 56.14 L0 54.79 L0.93 54.79 L0.93 54.39 C0.93 52.2 2.61 52.09 3.89 52.09 L3.89 53.44 C3.42
							 53.44 2.73 53.44 2.73 54.45 L2.73 54.79 L3.89 54.79 L3.89 56.14 L2.73 56.14 L2.73 62.11 L0.93 62.11
							 L0.93 56.14 Z" class="st1"/>
			</g>
			<g id="shape2995-10" transform="translate(41.9539,-7.77187)">
				<title>Sheet.2995</title>
				<path d="M0 52.2 L1.74 52.2 L1.74 57.55 L4.29 54.79 L6.44 54.79 L3.37 58 L6.44 62.11 L4.41 62.11 L1.74 58.39 L1.74
							 62.05 L0 62.05 L0 52.2 Z" class="st1"/>
			</g>
			<g id="shape2996-12" transform="translate(48.6851,-7.60278)">
				<title>Sheet.2996</title>
				<path d="M1.74 58.28 C1.74 59.18 2.38 60.53 4 60.53 C4.99 60.53 5.63 60.03 5.98 59.35 C6.15 59.01 6.21 58.67 6.27
							 58.34 C6.27 58 6.21 57.6 6.03 57.32 C5.74 56.65 5.05 56.03 3.95 56.03 C2.55 55.97 1.74 57.15 1.74 58.28
							 ZM8.01 61.88 L6.27 61.88 L6.27 60.81 C5.8 61.66 4.82 62.11 3.77 62.11 C1.39 62.11 0 60.31 0 58.22 C0
							 55.92 1.68 54.34 3.77 54.34 C5.11 54.34 5.92 55.07 6.27 55.63 L6.27 54.56 L8.01 54.56 L8.01 61.88 Z"
						class="st1"/>
			</g>
		</g>
	</g>
</svg>
