<?xml version="1.0" encoding="UTF-8" standalone="no"?>
<!DOCTYPE svg PUBLIC "-//W3C//DTD SVG 1.1//EN" "http://www.w3.org/Graphics/SVG/1.1/DTD/svg11.dtd">
<!-- Generated by Microsoft Visio, SVG Export Node JS.svg Page-1 -->
<svg xmlns="http://www.w3.org/2000/svg" xmlns:xlink="http://www.w3.org/1999/xlink" xmlns:ev="http://www.w3.org/2001/xml-events"
		width="1.03684in" height="1.0696in" viewBox="0 0 74.6526 77.0113" xml:space="preserve" color-interpolation-filters="sRGB"
		class="st6">
	<style type="text/css">
	<![CDATA[
		.st1 {fill:#000000;stroke:none;stroke-linecap:butt;stroke-width:8.97979}
		.st2 {fill:#333333;stroke:none;stroke-linecap:butt;stroke-width:8.97979}
		.st3 {fill:#699f63;stroke:none;stroke-linecap:butt;stroke-width:8.97979}
		.st4 {fill:url(#grad0-14);stroke:none;stroke-linecap:butt;stroke-width:8.97979}
		.st5 {fill:#000000;stroke:none;stroke-linecap:butt;stroke-width:0.75}
		.st6 {fill:none;fill-rule:evenodd;font-size:12px;overflow:visible;stroke-linecap:square;stroke-miterlimit:3}
	]]>
	</style>

	<defs id="Patterns_And_Gradients">
		<linearGradient id="grad0-14" x1="0" y1="0" x2="1" y2="0" gradientTransform="rotate(119.29862583422 0.5 0.5)">
			<stop offset="0" stop-color="#41873f" stop-opacity="1"/>
			<stop offset="0.33" stop-color="#418b3d" stop-opacity="1"/>
			<stop offset="0.64" stop-color="#409637" stop-opacity="1"/>
			<stop offset="0.93" stop-color="#3fa92d" stop-opacity="1"/>
			<stop offset="1" stop-color="#3fae2a" stop-opacity="1"/>
		</linearGradient>
	</defs>
	<g>
		<title>Page-1</title>
		<g id="group16044-1" transform="translate(8.97988,-34.0157)">
			<title>Node JS.16044</title>
			<g id="group16045-2">
				<title>layer1</title>
				<g id="shape16046-3" transform="translate(21.646,-1.7053E-13)">
					<title>path41</title>
					<path d="M6.31 77.01 A1.09322 1.05481 0 0 1 5.77 76.87 L4.03 75.88 C3.76 75.74 3.89 75.68 3.98 75.66 A3.48009
								 3.35782 -180 0 0 4.77 75.31 a0.136653 0.131851 0 0 1 0.127398 -1.42109E-14 L6.26 76.09 a0.173093
								 0.167012 -180 0 0 0.163895 0 L11.64 73.18 a0.163983 0.158222 -180 0 0 0.081949 -0.140531 L11.72
								 67.22 a0.173093 0.167012 -180 0 0 -0.081949 -0.14053 L6.4 64.13 a0.163983 0.158222 -180 0 0 -0.136699
								 1.42109E-14 L1.04 67.04 a0.163983 0.158222 -180 0 0 -0.0819476 0.14053 L0.96 73 a0.163983 0.158222
								 -180 0 0 0.0819476 0.13189 L2.47 73.93 C3.24 74.31 3.72 73.86 3.72 73.42 L3.72 67.72 a0.154873 0.149432
								 0 0 1 0.154944 -0.1495 L4.54 67.57 a0.154873 0.149432 0 0 1 0.154944 0.1495 L4.69 73.46 A1.44852
								 1.39762 0 0 1 3.14 75.03 A2.232 2.15357 0 0 1 1.91 74.68 L0.55 73.92 A1.10233 1.0636 0 0 1 -0 73.04
								 L0 67.22 A1.10233 1.0636 0 0 1 0.55 66.34 L5.77 63.43 A1.14788 1.10755 0 0 1 6.87 63.43 L12.09 66.34
								 A1.10233 1.0636 0 0 1 12.64 67.22 L12.64 73.04 A1.10233 1.0636 0 0 1 12.09 73.92 L6.87 76.83 A1.09322
								 1.05481 0 0 1 6.31 77.01 L6.31 77.01 Z" class="st1"/>
				</g>
				<g id="shape16047-5" transform="translate(26.684,-3.79755)">
					<title>path43</title>
					<path d="M2.73 77.01 C0.45 77.01 0 76 0 75.15 a0.145763 0.140641 0 0 1 0.154944 -0.149502 L0.83 75 a0.154873
								 0.149432 0 0 1 0.145648 0.122922 C1.07 75.78 1.38 76.12 2.8 76.12 C3.9 76.12 4.36 75.89 4.36 75.32
								 C4.36 75 4.23 74.76 2.54 74.59 C1.11 74.45 0.23 74.15 0.23 73.05 C0.23 71.94 1.14 71.42 2.61 71.42
								 C4.28 71.42 5.11 71.98 5.21 73.18 a0.154873 0.149432 0 0 1 -0.154943 0.158134 L4.38 73.34 a0.154873
								 0.149432 0 0 1 -0.145648 -0.114281 C4.07 72.53 3.68 72.34 2.61 72.34 C1.53 72.34 1.27 72.75 1.27
								 73.05 C1.27 73.35 1.43 73.52 3.09 73.72 C4.75 73.93 5.46 74.22 5.46 75.31 C5.46 76.4 4.38 77.01
								 2.73 77.01 L2.73 77.01 ZM10.26 70.91 a1.01123 0.9757 0 1 1 -1.01124 -0.975709 a1.01123 0.9757 0
								 0 1 1.01124 0.975709 ZM8.44 70.91 a0.847247 0.817479 -180 1 0 0.838145 -0.808666 a0.847247 0.817479
								 -180 0 0 -0.865451 0.808666 L8.44 70.91 ZM8.9 70.37 L9.29 70.37 C9.43 70.37 9.68 70.37 9.68 70.66
								 a0.255085 0.246123 0 0 1 -0.209692 0.263786 C9.63 70.92 9.64 71.03 9.66 71.17 A1.11144 1.07239 -180
								 0 0 9.71 71.46 L9.42 71.46 L9.42 71.11 C9.42 71.1 9.42 71.02 9.3 71.02 L9.1 71.02 L9.1 71.45 L8.87
								 71.45 L8.9 70.37 ZM9.11 70.84 L9.28 70.84 a0.154873 0.149432 -180 0 0 0.173193 -0.158139 C9.46 70.53
								 9.35 70.53 9.29 70.53 L9.11 70.53 L9.11 70.84 Z" class="st1"/>
				</g>
				<g id="shape16048-7" transform="translate(0,-12.513)">
					<title>path45</title>
					<path d="M12.42 67.18 a0.665043 0.641677 -180 0 0 -0.337092 -0.562556 L6.54 63.55 a0.655933 0.632887 -180 0 0
								 -0.300592 -0.0877073 L6.19 63.46 a0.665043 0.641677 -180 0 0 -0.309888 0.0877073 L0.34 66.63 a0.674154
								 0.650467 -180 0 0 -0.337092 0.562587 L0 75.47 a0.327967 0.316443 -180 0 0 0.163898 0.281394 a0.318856
								 0.307653 -180 0 0 0.327795 0 L3.81 73.92 a0.674154 0.650467 -180 0 0 0.337091 -0.562587 L4.14 69.49
								 a0.665043 0.641677 0 0 1 0.337089 -0.56259 L5.88 68.15 a0.665043 0.641677 0 0 1 0.337092 -0.0877073
								 a0.655933 0.632887 0 0 1 0.337091 0.0877073 L7.96 68.93 a0.665043 0.641677 0 0 1 0.337089 0.56259
								 L8.3 73.36 a0.674154 0.650467 -180 0 0 0.337091 0.562587 L11.91 75.77 a0.327967 0.316443 -180 0
								 0 0.337092 1.42109E-14 a0.337077 0.325233 -180 0 0 0.163895 -0.281394 L12.42 67.18 ZM38.27 55.55
								 a0.209534 0.202172 -180 0 0 -0.255142 -2.84217E-14 C37.92 55.61 37.93 55.72 37.93 55.83 L37.93 64.08
								 C37.93 64.16 37.81 64.23 37.73 64.27 a0.309746 0.298863 0 0 1 -0.273391 1.56319E-13 L36.06 63.46
								 a0.683264 0.659257 -180 0 0 -0.674147 -1.13687E-13 L29.92 66.55 C29.71 66.66 29.7 66.87 29.7 67.11
								 L29.7 73.26 C29.7 73.49 29.7 73.7 29.92 73.82 L35.38 76.91 a0.619493 0.597726 -180 0 0 0.637719
								 -2.13163E-13 L41.38 73.82 C41.59 73.71 41.52 73.5 41.52 73.26 L41.52 57.93 C41.52 57.7 41.52 57.48
								 41.35 57.37 L38.27 55.55 ZM37.93 71.28 C37.93 71.35 37.81 71.4 37.76 71.43 L35.82 72.48 a0.209534
								 0.202172 0 0 1 -0.191445 9.9476E-14 L33.59 71.43 C33.53 71.37 33.37 71.37 33.37 71.28 L33.37 69.17
								 C33.37 69.1 33.53 69.05 33.58 69.03 L35.55 67.96 a0.227755 0.219752 0 0 1 0.200395 -2.84217E-14
								 L37.75 69.03 C37.81 69.03 37.94 69.1 37.94 69.17 L37.93 71.28 ZM56.36 69.25 a0.665043 0.641677 -180
								 0 0 0.337091 -0.562556 L56.69 67.19 a0.665043 0.641677 -180 0 0 -0.337091 -0.562587 L50.89 63.54
								 a0.665043 0.641677 -180 0 0 -0.674147 1.06581E-13 L44.68 66.63 a0.665043 0.641677 -180 0 0 -0.337088
								 0.562587 L44.34 73.34 a0.665043 0.641677 -180 0 0 0.337088 0.562556 L50.14 76.93 a0.665043 0.641677
								 -180 0 0 0.655934 7.10543E-14 L54.12 75.17 a0.337077 0.325233 -180 0 0 3.05533E-13 -0.562556 L48.55
								 71.52 a0.337077 0.325233 0 0 1 -0.163898 -0.281394 L48.38 69.31 a0.337077 0.325233 0 0 1 0.163898
								 -0.281394 L50.28 68.06 a0.337077 0.325233 0 0 1 0.337091 2.84217E-14 L52.36 69.03 a0.337077 0.325233
								 0 0 1 0.163898 0.281394 L52.52 70.83 a0.337077 0.325233 -180 0 0 0.501058 0.281394 L56.36 69.25
								 Z" class="st2"/>
				</g>
				<g id="shape16049-9" transform="translate(49.3046,-17.9768)">
					<title>path47</title>
					<path d="M1.13 74.42 a0.127543 0.123061 0 0 1 0.127398 0 L2.32 75.01 a0.127543 0.123061 0 0 1 0.0636991 0.105649
								 L2.39 76.3 a0.127543 0.123061 0 0 1 -0.0636991 0.105646 L1.26 76.99 a0.127543 0.123061 0 0 1 -0.127398
								 0 L0.06 76.41 a0.127543 0.123061 0 0 1 -0.0636991 -0.105646 L0 75.08 a0.127543 0.123061 0 0 1 0.0636991
								 -0.105313 L1.13 74.42 Z" class="st3"/>
				</g>
				<g id="shape16050-11" transform="translate(14.4216,-12.5808)">
					<title>_Clipping_Path_2</title>
					<path d="M6.47 63.53 a0.665043 0.641677 -180 0 0 -0.665021 7.10543E-15 L0.34 66.6 a0.665043 0.641677 -180 0 0
								 -0.337091 0.553784 L0 73.3 a0.665043 0.641677 -180 0 0 0.337091 0.553784 L5.8 76.93 a0.665043 0.641677
								 -180 0 0 0.665021 0 L11.93 73.86 a0.665043 0.641677 -180 0 0 0.337091 -0.553784 L12.27 67.15 a0.665043
								 0.641677 -180 0 0 -0.337091 -0.553784 L6.47 63.53 Z" class="st4"/>
				</g>
				<g id="group16051-15" transform="translate(14.4217,-12.5808)">
					<title>clip-path</title>
					<g id="shape16052-16">
						<title>_Clipping_Path_</title>
						<path d="M6.47 63.53 a0.665043 0.641677 -180 0 0 -0.665043 -7.10543E-15 L0.34 66.6 a0.665043 0.641677 -180
									 0 0 -0.337077 0.553776 L0 73.3 a0.665043 0.641677 -180 0 0 0.337077 0.553776 L5.8 76.93 a0.665043
									 0.641677 -180 0 0 0.665043 0 L11.93 73.86 a0.665043 0.641677 -180 0 0 0.337077 -0.553776 L12.27
									 67.15 a0.665043 0.641677 -180 0 0 -0.337077 -0.553776 L6.47 63.53 Z" class="st5"/>
					</g>
				</g>
			</g>
		</g>
	</g>
</svg>
