<?xml version="1.0" encoding="UTF-8" standalone="no"?>
<!DOCTYPE svg PUBLIC "-//W3C//DTD SVG 1.1//EN" "http://www.w3.org/Graphics/SVG/1.1/DTD/svg11.dtd">
<!-- Generated by Microsoft Visio, SVG Export Template Spec.svg Page-1 -->
<svg xmlns="http://www.w3.org/2000/svg" xmlns:xlink="http://www.w3.org/1999/xlink" xmlns:ev="http://www.w3.org/2001/xml-events"
		width="1.61374in" height="1.73206in" viewBox="0 0 116.189 124.709" xml:space="preserve" color-interpolation-filters="sRGB"
		class="st7">
	<style type="text/css">
	<![CDATA[
		.st1 {fill:#32bedd;stroke:none;stroke-linecap:butt;stroke-width:34}
		.st2 {fill:url(#grad0-8);stroke:none;stroke-linecap:butt;stroke-width:34}
		.st3 {fill:#ffffff;stroke:none;stroke-linecap:butt;stroke-width:34}
		.st4 {fill:#5e9624;stroke:none;stroke-linecap:butt;stroke-width:34}
		.st5 {fill:#76bc2d;stroke:none;stroke-linecap:butt;stroke-width:34}
		.st6 {fill:#86d633;stroke:none;stroke-linecap:butt;stroke-width:34}
		.st7 {fill:none;fill-rule:evenodd;font-size:12px;overflow:visible;stroke-linecap:square;stroke-miterlimit:3}
	]]>
	</style>

	<defs id="Patterns_And_Gradients">
		<linearGradient id="grad0-8" x1="0" y1="0" x2="1" y2="0" gradientTransform="rotate(-90 0.5 0.5)">
			<stop offset="0" stop-color="#198ab3" stop-opacity="1"/>
			<stop offset="0.62" stop-color="#31d0f1" stop-opacity="1"/>
			<stop offset="1" stop-color="#32d4f5" stop-opacity="1"/>
		</linearGradient>
	</defs>
	<g>
		<title>Page-1</title>
		<g id="group13195-1" transform="translate(34,-34.0157)">
			<title>Template Spec.13195</title>
			<g id="group13196-2">
				<title>Sheet.13196</title>
				<g id="shape13197-3">
					<title>Sheet.13197</title>
					<path d="M14.75 68.02 L3.44 68.02 A3.44255 3.42158 -180 0 0 -0 71.44 L0 82.69 L6.89 82.69 L6.89 74.86 L14.75
								 74.86 L14.75 68.02 ZM44.75 68.02 L33.44 68.02 L33.44 74.86 L41.3 74.86 L41.3 82.69 L48.19 82.69
								 L48.19 71.44 A3.44255 3.42158 -180 0 0 44.75 68.02 ZM41.3 110.04 L41.3 117.86 L33.44 117.86 L33.44
								 124.71 L44.75 124.71 A3.44255 3.42158 -180 0 0 48.19 121.29 L48.19 110.04 L41.3 110.04 ZM6.89 117.87
								 L6.89 110.04 L0 110.04 L0 121.28 A3.44255 3.42158 -180 0 0 3.44 124.71 L14.75 124.71 L14.75 117.87
								 L6.89 117.87 Z" class="st1"/>
				</g>
				<g id="shape13198-5" transform="translate(4.42566,-4.3987)">
					<title>Sheet.13198</title>
					<path d="M1.97 124.71 L37.37 124.71 A1.97292 1.96091 -180 0 0 39.34 122.75 L39.34 78.75 A1.97292 1.96091 -180
								 0 0 37.37 76.8 L1.97 76.8 A1.97292 1.96091 -180 0 0 -0 78.75 L0 122.77 A1.97292 1.96091 -180 0 0
								 1.97 124.71 Z" class="st2"/>
				</g>
				<g id="shape13199-9" transform="translate(8.34801,-8.30718)">
					<title>Sheet.13199</title>
					<path d="M0.98 124.71 L30.51 124.71 a0.986461 0.980454 -180 0 0 0.983106 -0.977119 L31.49 85.61 a0.986461 0.980454
								 -180 0 0 -0.983106 -0.980454 L0.98 84.63 a0.986461 0.980454 -180 0 0 -0.983106 0.980454 L0 123.73
								 a0.986461 0.980454 -180 0 0 0.983106 0.977119 Z" class="st3"/>
				</g>
				<g id="shape13200-11" transform="translate(15.2432,-14.1732)">
					<title>Sheet.13200</title>
					<path d="M0.98 124.71 L16.72 124.71 a0.986461 0.980454 -180 0 0 0.983106 -0.977119 L17.7 119.33 a0.986461 0.980454
								 -180 0 0 -0.983106 -0.977119 L0.98 118.36 a0.986461 0.980454 -180 0 0 -0.983106 0.977119 L0 123.73
								 a0.986461 0.980454 -180 0 0 0.983106 0.977119 Z" class="st4"/>
				</g>
				<g id="shape13201-13" transform="translate(15.2432,-25.1683)">
					<title>Sheet.13201</title>
					<path d="M0.98 124.71 L16.72 124.71 a0.986461 0.980454 -180 0 0 0.983106 -0.977119 L17.7 119.33 a0.986461 0.980454
								 -180 0 0 -0.983106 -0.980454 L0.98 118.35 a0.986461 0.980454 -180 0 0 -0.983106 0.980454 L0 123.73
								 a0.986461 0.980454 -180 0 0 0.983106 0.977119 Z" class="st5"/>
				</g>
				<g id="shape13202-15" transform="translate(15.2432,-36.1667)">
					<title>Sheet.13202</title>
					<path d="M0.98 124.71 L16.72 124.71 a0.986461 0.980454 -180 0 0 0.983106 -0.977119 L17.7 119.33 a0.986461 0.980454
								 -180 0 0 -0.983106 -0.977119 L0.98 118.36 a0.986461 0.980454 -180 0 0 -0.983106 0.977119 L0 123.73
								 a0.986461 0.980454 -180 0 0 0.983106 0.977119 Z" class="st6"/>
				</g>
			</g>
		</g>
	</g>
</svg>
