<?xml version="1.0" encoding="UTF-8" standalone="no"?>
<!-- Generated by Microsoft Visio, SVG Export Template.svg Page-1 -->

<svg
   xmlns:dc="http://purl.org/dc/elements/1.1/"
   xmlns:cc="http://creativecommons.org/ns#"
   xmlns:rdf="http://www.w3.org/1999/02/22-rdf-syntax-ns#"
   xmlns:svg="http://www.w3.org/2000/svg"
   xmlns="http://www.w3.org/2000/svg"
   xmlns:sodipodi="http://sodipodi.sourceforge.net/DTD/sodipodi-0.dtd"
   xmlns:inkscape="http://www.inkscape.org/namespaces/inkscape"
   width="0.70860749in"
   height="0.78735709in"
   viewBox="0 0 51.019792 56.689998"
   xml:space="preserve"
   class="st3"
   version="1.1"
   id="svg29"
   sodipodi:docname="Template.svg"
   style="font-size:12px;overflow:visible;color-interpolation-filters:sRGB;fill:none;fill-rule:evenodd;stroke-linecap:square;stroke-miterlimit:3"
   inkscape:version="0.92.5 (2060ec1f9f, 2020-04-08)"><metadata
   id="metadata35"><rdf:RDF><cc:Work
       rdf:about=""><dc:format>image/svg+xml</dc:format><dc:type
         rdf:resource="http://purl.org/dc/dcmitype/StillImage" /></cc:Work></rdf:RDF></metadata><defs
   id="defs33" /><sodipodi:namedview
   pagecolor="#ffffff"
   bordercolor="#666666"
   borderopacity="1"
   objecttolerance="10"
   gridtolerance="10"
   guidetolerance="10"
   inkscape:pageopacity="0"
   inkscape:pageshadow="2"
   inkscape:window-width="640"
   inkscape:window-height="480"
   id="namedview31"
   showgrid="false"
   inkscape:zoom="1.7193066"
   inkscape:cx="34.01556"
   inkscape:cy="23.279613"
   inkscape:window-x="0"
   inkscape:window-y="0"
   inkscape:window-maximized="0"
   inkscape:current-layer="svg29" />
	<style
   type="text/css"
   id="style2">
	<![CDATA[
		.st1 {fill:#59b4d9;stroke:none;stroke-linecap:butt;stroke-width:12.24}
		.st2 {fill:#ffffff;fill-opacity:0.8;stroke:none;stroke-linecap:butt;stroke-width:12.24}
		.st3 {fill:none;fill-rule:evenodd;font-size:12px;overflow:visible;stroke-linecap:square;stroke-miterlimit:3}
	]]>
	</style>

	<g
   id="g27"
   transform="translate(-12.240154,-12.2443)">
		<title
   id="title4">Page-1</title>
		<g
   id="group19381-1"
   transform="translate(12.24,-34.0157)">
			<title
   id="title6">Template.19381</title>
			<g
   id="group19382-2">
				<title
   id="title8">Sheet.19382</title>
				<g
   id="shape19383-3">
					<title
   id="title10">Sheet.19383</title>
					<path
   d="M 48.7,53.97 43.14,48.52 40.82,46.26 H 0 v 56.69 H 51.02 V 56.23 Z"
   class="st1"
   id="path12"
   inkscape:connector-curvature="0"
   style="fill:#59b4d9;stroke:none;stroke-width:12.23999977;stroke-linecap:butt" />
				</g>
				<g
   id="shape19384-5"
   transform="translate(2.31926,-2.26772)">
					<title
   id="title15">Sheet.19384</title>
					<path
   d="M 38.27,50.79 H 0 v 52.16 H 46.39 V 58.73 h -8.12 z"
   class="st2"
   id="path17"
   inkscape:connector-curvature="0"
   style="fill:#ffffff;fill-opacity:0.8;stroke:none;stroke-width:12.23999977;stroke-linecap:butt" />
				</g>
				<g
   id="shape19385-7"
   transform="translate(7.28826,-22.5706)">
					<title
   id="title20">Sheet.19385</title>
					<path
   d="m 4.59,99.07 c 0,1.23 -0.31,2.18 -0.93,2.86 -0.62,0.68 -1.44,1.02 -2.47,1.02 -0.49,0 -0.88,-0.06 -1.19,-0.17 v -1.61 c 0.28,0.19 0.64,0.28 1.08,0.28 1.17,0 1.76,-0.88 1.76,-2.65 v -6.36 h 1.75 z m 2.03,3.29 v -1.76 c 0.16,0.14 0.35,0.27 0.58,0.39 0.22,0.11 0.46,0.21 0.71,0.29 0.25,0.08 0.5,0.14 0.75,0.18 0.25,0.05 0.48,0.07 0.69,0.07 0.74,0 1.29,-0.12 1.65,-0.36 0.36,-0.24 0.54,-0.59 0.54,-1.05 0,-0.24 -0.06,-0.45 -0.18,-0.63 a 1.89831,1.85613 -180 0 0 -0.51,-0.5 5.3053,5.1874 -180 0 0 -0.76,-0.43 C 9.8,98.43 9.48,98.28 9.15,98.14 8.79,97.95 8.46,97.76 8.15,97.57 A 4.26395,4.1692 0 0 1 7.34,96.93 2.73788,2.67704 0 0 1 6.8,96.14 2.63931,2.58066 0 0 1 6.61,95.11 c 0,-0.49 0.11,-0.91 0.33,-1.27 0.23,-0.35 0.52,-0.65 0.89,-0.88 a 4.03782,3.94809 0 0 1 1.25,-0.52 5.95585,5.8235 0 0 1 1.43,-0.17 c 1.1,0 1.91,0.12 2.41,0.37 v 1.69 c -0.6,-0.42 -1.37,-0.63 -2.31,-0.63 -0.26,0 -0.52,0.02 -0.78,0.07 a 2.31346,2.26205 -180 0 0 -0.69,0.24 1.50984,1.47628 -180 0 0 -0.5,0.42 1.06686,1.04315 -180 0 0 -0.19,0.63 c 0,0.23 0.05,0.43 0.15,0.6 0.09,0.16 0.24,0.32 0.43,0.46 0.19,0.14 0.42,0.27 0.69,0.4 0.27,0.14 0.59,0.28 0.95,0.43 0.37,0.19 0.71,0.39 1.04,0.59 0.33,0.21 0.61,0.44 0.86,0.69 0.25,0.25 0.45,0.53 0.59,0.83 0.15,0.31 0.22,0.65 0.22,1.04 0,0.53 -0.11,0.97 -0.32,1.33 -0.22,0.36 -0.51,0.65 -0.88,0.88 -0.36,0.22 -0.79,0.38 -1.26,0.49 a 6.57277,6.42671 0 0 1 -2.17,0.11 9.15758,8.95408 0 0 1 -0.79,-0.12 C 7.69,102.74 7.44,102.68 7.2,102.61 6.95,102.54 6.76,102.46 6.62,102.36 Z m 13.06,0.59 c -1.53,0 -2.75,-0.48 -3.66,-1.45 -0.92,-0.97 -1.38,-2.22 -1.38,-3.77 0,-1.66 0.47,-2.98 1.4,-3.97 0.94,-0.99 2.2,-1.49 3.8,-1.49 1.49,0 2.68,0.48 3.59,1.44 0.91,0.96 1.36,2.22 1.36,3.77 0,1.69 -0.46,3.02 -1.39,4 -0.93,0.98 -2.17,1.47 -3.72,1.47 z m 0.07,-9.17 c -0.96,0 -1.75,0.35 -2.36,1.05 -0.6,0.71 -0.91,1.64 -0.91,2.79 0,1.15 0.3,2.08 0.89,2.78 0.59,0.7 1.36,1.05 2.31,1.05 1.01,0 1.81,-0.33 2.4,-1 0.58,-0.67 0.87,-1.6 0.87,-2.81 0,-1.23 -0.28,-2.18 -0.85,-2.86 -0.57,-0.67 -1.35,-1 -2.35,-1 z m 15.94,9 h -1.92 l -5.05,-7.6 a 3.44641,3.36983 0 0 1 -0.31,-0.6 h -0.05 c 0.04,0.22 0.06,0.7 0.06,1.42 v 6.78 H 26.73 V 92.44 h 2.04 l 4.88,7.42 c 0.2,0.31 0.34,0.52 0.4,0.63 h 0.03 C 34.03,100.22 34,99.75 34,99.1 v -6.66 h 1.69 z"
   class="st1"
   id="path22"
   inkscape:connector-curvature="0"
   style="fill:#59b4d9;stroke:none;stroke-width:12.23999977;stroke-linecap:butt" />
				</g>
			</g>
		</g>
	</g>
</svg>