<?xml version="1.0" encoding="UTF-8" standalone="no"?>
<!DOCTYPE svg PUBLIC "-//W3C//DTD SVG 1.1//EN" "http://www.w3.org/Graphics/SVG/1.1/DTD/svg11.dtd">
<!-- Generated by Microsoft Visio, SVG Export Active Directory Federation Services.7790.svg Page-1 -->
<svg xmlns="http://www.w3.org/2000/svg" xmlns:xlink="http://www.w3.org/1999/xlink" xmlns:ev="http://www.w3.org/2001/xml-events"
		width="1.03465in" height="1.26768in" viewBox="0 0 74.4945 91.2726" xml:space="preserve" color-interpolation-filters="sRGB"
		class="st5">
	<style type="text/css">
	<![CDATA[
		.st1 {fill:#ffffff;stroke:none;stroke-linecap:round;stroke-linejoin:round;stroke-width:0.75}
		.st2 {fill:url(#grad0-16);stroke:none;stroke-linecap:butt;stroke-width:9.52779}
		.st3 {fill:#ffffff;stroke:none;stroke-width:0.999999}
		.st4 {fill:none;stroke:none;stroke-linecap:butt;stroke-width:0.75;visibility:hidden}
		.st5 {fill:none;fill-rule:evenodd;font-size:12px;overflow:visible;stroke-linecap:square;stroke-miterlimit:3}
	]]>
	</style>

	<defs id="Patterns_And_Gradients">
		<linearGradient id="grad0-16" x1="0" y1="0" x2="1" y2="0" gradientTransform="rotate(-89.652058299692 0.5 0.5)">
			<stop offset="0" stop-color="#0078d4" stop-opacity="1"/>
			<stop offset="0.16" stop-color="#1380da" stop-opacity="1"/>
			<stop offset="0.53" stop-color="#3c91e5" stop-opacity="1"/>
			<stop offset="0.82" stop-color="#559cec" stop-opacity="1"/>
			<stop offset="1" stop-color="#5ea0ef" stop-opacity="1"/>
		</linearGradient>
	</defs>
	<g>
		<title>Page-1</title>
		<g id="group7790-1" transform="translate(8.90081,-34.0157)">
			<title>Active Directory Federation Services.7790</title>
			<g id="group7791-2">
				<title>Page-1</title>
				<g id="group7792-3">
					<title>Sheet.7792</title>
					<g id="group7793-4" transform="translate(4.457,-2.79928)">
						<title>Sheet.7793</title>
						<g id="shape7794-5">
							<title>Sheet.7794</title>
							<path d="M0 91.27 L23.89 50.43 L47.9 91.27 L0 91.27 Z" class="st1"/>
						</g>
					</g>
					<g id="group7795-7">
						<title>Page-1</title>
						<g id="group7796-8">
							<title>ADFS</title>
							<g id="group7797-9">
								<title>Sheet.7797</title>
								<g id="group7798-10">
									<title>Sheet.7798</title>
									<g id="group7799-11">
										<title>Sheet.7799</title>
										<g id="group7800-12">
											<title>path14-5-6</title>
											<g id="shape7801-13">
												<title>Sheet.7801</title>
												<path d="M55.6 87.86 L30.34 44.92 C29.23 43.08 27.45 43.08 26.35 44.92 L1.1 87.86
															 C0 89.68 0.89 91.03 3.1 91.03 L53.6 91.03 C55.81 91.27 56.69 89.68 55.6
															 87.86 ZM43.19 86.95 L32.11 86.95 L32.11 80.15 L36.55 80.15 L36.55 75.6
															 L29.92 75.6 L27.66 75.6 L21.05 75.6 L21.05 80.15 L25.47 80.15 L25.47
															 86.95 L14.4 86.95 L14.4 80.15 L18.85 80.15 L18.85 73.35 L21.08 73.35
															 L27.66 73.35 L27.66 68.79 L23.24 68.79 L23.24 62 L34.31 62 L34.31 68.79
															 L29.85 68.79 L29.85 73.35 L36.5 73.35 L38.73 73.35 L38.73 80.15 L43.16
															 80.15 L43.16 86.95 L43.19 86.95 Z" class="st2"/>
											</g>
										</g>
										<g id="group7802-17" transform="translate(23.2386,-22.48)">
											<title>rect1197</title>
											<g id="shape7803-18">
												<title>Sheet.7803</title>
												<rect x="0" y="84.4813" width="11.0674" height="6.79128" class="st3"/>
											</g>
											<g id="shape7804-20">
												<title>Sheet.7804</title>
												<rect x="0" y="84.4813" width="11.0674" height="6.79128" class="st4"/>
											</g>
										</g>
									</g>
								</g>
							</g>
						</g>
					</g>
				</g>
			</g>
		</g>
	</g>
</svg>
