<?xml version="1.0" encoding="UTF-8" standalone="no"?>
<!-- Generated by Microsoft Visio, SVG Export Activator.svg Page-1 -->

<svg
   xmlns:dc="http://purl.org/dc/elements/1.1/"
   xmlns:cc="http://creativecommons.org/ns#"
   xmlns:rdf="http://www.w3.org/1999/02/22-rdf-syntax-ns#"
   xmlns:svg="http://www.w3.org/2000/svg"
   xmlns="http://www.w3.org/2000/svg"
   xmlns:sodipodi="http://sodipodi.sourceforge.net/DTD/sodipodi-0.dtd"
   xmlns:inkscape="http://www.inkscape.org/namespaces/inkscape"
   width="0.78758234in"
   height="0.78749001in"
   viewBox="0 0 56.705926 56.699421"
   xml:space="preserve"
   class="st7"
   version="1.1"
   id="svg93"
   sodipodi:docname="Activator.svg"
   style="font-size:12px;overflow:visible;color-interpolation-filters:sRGB;fill:none;fill-rule:evenodd;stroke-linecap:square;stroke-miterlimit:3"
   inkscape:version="0.92.5 (2060ec1f9f, 2020-04-08)"><metadata
   id="metadata97"><rdf:RDF><cc:Work
       rdf:about=""><dc:format>image/svg+xml</dc:format><dc:type
         rdf:resource="http://purl.org/dc/dcmitype/StillImage" /></cc:Work></rdf:RDF></metadata><sodipodi:namedview
   pagecolor="#ffffff"
   bordercolor="#666666"
   borderopacity="1"
   objecttolerance="10"
   gridtolerance="10"
   guidetolerance="10"
   inkscape:pageopacity="0"
   inkscape:pageshadow="2"
   inkscape:window-width="640"
   inkscape:window-height="480"
   id="namedview95"
   showgrid="false"
   inkscape:zoom="1.8365233"
   inkscape:cx="37.808544"
   inkscape:cy="18.900384"
   inkscape:window-x="0"
   inkscape:window-y="0"
   inkscape:window-maximized="0"
   inkscape:current-layer="svg93" />
	<style
   type="text/css"
   id="style2">
	<![CDATA[
		.st1 {fill:#73262f;stroke:none;stroke-linecap:butt;stroke-width:0.75}
		.st2 {fill:url(#grad0-7);stroke:none;stroke-linecap:butt;stroke-width:0.75}
		.st3 {fill:url(#grad0-11);stroke:none;stroke-linecap:butt;stroke-width:0.75}
		.st4 {fill:url(#grad0-15);stroke:none;stroke-linecap:butt;stroke-width:0.75}
		.st5 {fill:url(#grad0-19);stroke:none;stroke-linecap:butt;stroke-width:0.75}
		.st6 {fill:url(#grad0-23);stroke:none;stroke-linecap:butt;stroke-width:0.75}
		.st7 {fill:none;fill-rule:evenodd;font-size:12px;overflow:visible;stroke-linecap:square;stroke-miterlimit:3}
	]]>
	</style>

	<defs
   id="Patterns_And_Gradients">
		<linearGradient
   id="grad0-7"
   x1="-0.13190351"
   y1="97.575686"
   x2="35.668451"
   y2="97.575686"
   gradientTransform="scale(1.383856,0.72261854)"
   gradientUnits="userSpaceOnUse">
			<stop
   offset="0.12"
   stop-color="#f0364c"
   stop-opacity="1"
   id="stop4" />
			<stop
   offset="0.26"
   stop-color="#f0364c"
   stop-opacity="1"
   id="stop6" />
			<stop
   offset="0.505"
   stop-color="#f0364c"
   stop-opacity="1"
   id="stop8" />
			<stop
   offset="0.65"
   stop-color="#f0364c"
   stop-opacity="1"
   id="stop10" />
			<stop
   offset="1"
   stop-color="#f0364c"
   stop-opacity="1"
   id="stop12" />
		</linearGradient>
		<linearGradient
   id="grad0-11"
   x1="0"
   y1="44.609375"
   x2="48.836674"
   y2="44.609375"
   gradientTransform="scale(0.96955825,1.0313975)"
   gradientUnits="userSpaceOnUse">
			<stop
   offset="0.165"
   stop-color="#920b18"
   stop-opacity="1"
   id="stop15" />
			<stop
   offset="0.55"
   stop-color="#f0364c"
   stop-opacity="1"
   id="stop17" />
			<stop
   offset="0.8"
   stop-color="#ff5c39"
   stop-opacity="1"
   id="stop19" />
		</linearGradient>
		<linearGradient
   id="grad0-15"
   x1="-0.062265574"
   y1="82.253341"
   x2="20.527633"
   y2="82.253341"
   gradientTransform="scale(1.064906,0.93905)"
   gradientUnits="userSpaceOnUse">
			<stop
   offset="0.115"
   stop-color="#6e0811"
   stop-opacity="1"
   id="stop22" />
			<stop
   offset="0.7"
   stop-color="#6e0811"
   stop-opacity="1"
   id="stop24" />
		</linearGradient>
		<linearGradient
   id="grad0-19"
   x1="-0.0095307997"
   y1="72.075858"
   x2="29.237166"
   y2="72.075858"
   gradientTransform="scale(1.051282,0.9512196)"
   gradientUnits="userSpaceOnUse">
			<stop
   offset="0"
   stop-color="#920b18"
   stop-opacity="1"
   id="stop27" />
			<stop
   offset="0.025"
   stop-color="#a41322"
   stop-opacity="1"
   id="stop29" />
			<stop
   offset="0.075"
   stop-color="#bf1f31"
   stop-opacity="1"
   id="stop31" />
			<stop
   offset="0.125"
   stop-color="#d5293d"
   stop-opacity="1"
   id="stop33" />
			<stop
   offset="0.185"
   stop-color="#e43045"
   stop-opacity="1"
   id="stop35" />
			<stop
   offset="0.25"
   stop-color="#ed344a"
   stop-opacity="1"
   id="stop37" />
			<stop
   offset="0.35"
   stop-color="#f0364c"
   stop-opacity="1"
   id="stop39" />
			<stop
   offset="0.75"
   stop-color="#ff5c39"
   stop-opacity="1"
   id="stop41" />
		</linearGradient>
		<linearGradient
   id="grad0-23"
   x1="0"
   y1="71.522135"
   x2="21.693597"
   y2="71.522135"
   gradientTransform="scale(0.96716883,1.0339456)"
   gradientUnits="userSpaceOnUse">
			<stop
   offset="0.5"
   stop-color="#6e0811"
   stop-opacity="1"
   id="stop44" />
			<stop
   offset="0.58"
   stop-color="#6e0811"
   stop-opacity="1"
   id="stop46" />
			<stop
   offset="0.72"
   stop-color="#6e0811"
   stop-opacity="1"
   id="stop48" />
			<stop
   offset="0.9"
   stop-color="#6e0811"
   stop-opacity="1"
   id="stop50" />
			<stop
   offset="1"
   stop-color="#6e0811"
   stop-opacity="1"
   id="stop52" />
		</linearGradient>
	</defs>
	<g
   id="g91"
   transform="translate(-5.6593577,-5.6649)">
		<title
   id="title56">Page-1</title>
		<g
   id="group11874-1"
   transform="translate(5.66929,-34.0157)">
			<title
   id="title58">Activator</title>
			<g
   id="shape11875-2"
   transform="translate(7.22413,-30.8225)">
				<title
   id="title60">Sheet.11875</title>
				<path
   d="M 2.28,87.76 H 21.07 A 11.1067,11.1047 0 0 1 31.9,96.38 H 49.36 C 48.1,81.88 35.92,70.51 21.07,70.51 h -6.45 c -0.68,0 -1.29,0.27 -1.74,0.71 L 0.53,83.56 a 2.46657,2.46614 -180 0 0 1.75,4.2 z"
   class="st1"
   id="path62"
   inkscape:connector-curvature="0"
   style="fill:#73262f;stroke:none;stroke-width:0.75;stroke-linecap:butt" />
			</g>
			<g
   id="shape11876-4"
   transform="translate(7.22413,-30.8225)">
				<title
   id="title65">Sheet.11876</title>
				<path
   d="M 2.28,87.76 H 21.07 A 11.1067,11.1047 0 0 1 31.9,96.38 H 49.36 C 48.1,81.88 35.92,70.51 21.07,70.51 h -6.45 c -0.68,0 -1.29,0.27 -1.74,0.71 L 0.53,83.56 a 2.46657,2.46614 -180 0 0 1.75,4.2 z"
   class="st2"
   id="path67"
   inkscape:connector-curvature="0"
   style="fill:url(#grad0-7);stroke:none;stroke-width:0.75;stroke-linecap:butt" />
			</g>
			<g
   id="shape11877-8"
   transform="translate(9.34605)">
				<title
   id="title70">Sheet.11877</title>
				<path
   d="m 36.82,46.01 a 4.92322,4.92236 0 0 1 0.34,7.29 l -8.82,8.8 a 11.0273,11.0254 0 0 1 1.72,5.93 c 0,6.13 -4.97,11.09 -11.11,11.09 A 11.0627,11.0608 0 0 1 12.2,76.83 L 0,89.14 a 28.3174,28.3124 -180 0 0 18.95,7.24 c 15.68,0 28.4,-12.69 28.4,-28.35 0,-8.89 -4.11,-16.82 -10.53,-22.02 z"
   class="st3"
   id="path72"
   inkscape:connector-curvature="0"
   style="fill:url(#grad0-11);stroke:none;stroke-width:0.75;stroke-linecap:butt" />
			</g>
			<g
   id="shape11878-12"
   transform="translate(12.8798,-0.205982)">
				<title
   id="title75">Sheet.11878</title>
				<path
   d="M 21.86,77.24 A 11.1393,11.1373 0 0 1 9.47,77.62 l -8.08,8.06 a 4.92322,4.92236 -180 0 0 1.27,7.9 28.5201,28.5151 -180 0 0 19.2,2.25 z"
   class="st4"
   id="path77"
   inkscape:connector-curvature="0"
   style="fill:url(#grad0-15);stroke:none;stroke-width:0.75;stroke-linecap:butt" />
			</g>
			<g
   id="shape11879-16"
   transform="translate(0,-3.00472)">
				<title
   id="title80">Sheet.11879</title>
				<path
   d="M 15.54,96.38 A 28.3486,28.3436 0 0 1 8.18,91.07 28.2224,28.2175 0 0 1 0,73.8 4.91755,4.91669 0 0 1 1.44,70 4.93031,4.92945 0 0 1 4.94,68.56 h 23.34 a 2.46374,2.46331 0 0 1 1.73,4.21 L 14.27,88.48 a 4.92322,4.92236 -180 0 0 1.27,7.9 z"
   class="st5"
   id="path82"
   inkscape:connector-curvature="0"
   style="fill:url(#grad0-19);stroke:none;stroke-width:0.75;stroke-linecap:butt" />
			</g>
			<g
   id="shape11880-20"
   transform="translate(26.982,-34.2694)">
				<title
   id="title85">Sheet.11880</title>
				<path
   d="M 19.53,80.59 H 19.52 C 14.59,76.46 8.25,73.95 1.31,73.95 H 0 v 17.26 h 1.31 a 11.0911,11.0891 0 0 1 9.39,5.17 v -0.01 l 8.83,-8.8 a 4.92322,4.92236 -180 0 0 0,-6.98 z"
   class="st6"
   id="path87"
   inkscape:connector-curvature="0"
   style="fill:url(#grad0-23);stroke:none;stroke-width:0.75;stroke-linecap:butt" />
			</g>
		</g>
	</g>
</svg>