<?xml version="1.0" encoding="UTF-8" standalone="no"?>
<!DOCTYPE svg PUBLIC "-//W3C//DTD SVG 1.1//EN" "http://www.w3.org/Graphics/SVG/1.1/DTD/svg11.dtd">
<!-- Generated by Microsoft Visio, SVG Export Activity.svg Page-1 -->
<svg xmlns="http://www.w3.org/2000/svg" xmlns:xlink="http://www.w3.org/1999/xlink" xmlns:ev="http://www.w3.org/2001/xml-events"
		width="1.5748in" height="1.88046in" viewBox="0 0 113.386 135.393" xml:space="preserve" color-interpolation-filters="sRGB"
		class="st7">
	<style type="text/css">
	<![CDATA[
		.st1 {fill:#ffffff;stroke:none;stroke-linecap:butt;stroke-width:7.67604}
		.st2 {fill:#3999c6;stroke:none;stroke-linecap:butt;stroke-width:7.67604}
		.st3 {fill:#a0a1a2;stroke:none;stroke-linecap:butt;stroke-width:7.67604}
		.st4 {fill:#59b4d9;stroke:none;stroke-linecap:butt;stroke-width:7.67604}
		.st5 {fill:#7a7a7a;stroke:none;stroke-linecap:butt;stroke-width:7.67604}
		.st6 {fill:#000000;stroke:none;stroke-linecap:butt;stroke-width:7.67604}
		.st7 {fill:none;fill-rule:evenodd;font-size:12px;overflow:visible;stroke-linecap:square;stroke-miterlimit:3}
	]]>
	</style>

	<g>
		<title>Page-1</title>
		<g id="group5361-1" transform="translate(28.3465,-70.8661)">
			<title>Activity</title>
			<g id="group5362-2">
				<title>Page-1</title>
				<g id="group5363-3">
					<title>Activity</title>
					<g id="group5364-4" transform="translate(4.82304,-4.65209)">
						<title>path7</title>
						<g id="shape5365-5">
							<title>path10</title>
							<path d="M21.05 88.13 A23.5588 23.3248 -180 0 0 5.14 96.69 A23.5702 23.3361 -180 0 0 0 113.88 A23.5656
										 23.3316 -180 0 0 8.65 129.62 C13.36 133.4 19.5 135.39 26 134.71 C32.5 134.03 38.09 130.82
										 41.91 126.15 C45.72 121.49 47.73 115.41 47.04 108.97 C46.36 102.48 43.03 96.92 38.24 93.09
										 C34.22 89.86 29.08 88 23.58 88 C22.75 88 21.9 88.04 21.05 88.13 Z" class="st1"/>
						</g>
					</g>
					<g id="group5366-7" transform="translate(16.3368,-2.84217E-13)">
						<title>path9</title>
						<g id="shape5367-8">
							<title>path15</title>
							<path d="M40.36 103.81 C39.53 95.98 35.49 89.27 29.78 84.7 C28.67 83.82 27.48 83.04 26.25 82.33 L24.01
										 86.6 A22.5987 22.3743 0 0 1 26.72 88.44 C31.52 92.27 34.84 97.82 35.53 104.31 C36.22 110.75
										 34.21 116.84 30.4 121.5 C26.58 126.17 20.99 129.38 14.49 130.06 C10.13 130.51 5.95 129.75
										 2.23 128.07 L0 132.34 C4.53 134.42 9.67 135.39 15 134.83 A28.4069 28.1248 -180 0 0 34.16
										 124.52 A28.4001 28.118 -180 0 0 40.36 103.81 Z" class="st2"/>
						</g>
					</g>
					<g id="group5368-10" transform="translate(2.8777E-13,-3.05813)">
						<title>path11</title>
						<g id="shape5369-11">
							<title>path20</title>
							<path d="M13.46 128.03 A23.561 23.327 0 0 1 4.83 112.28 A23.561 23.327 0 0 1 9.96 95.09 A23.5519 23.318
										 0 0 1 25.87 86.54 C31.13 85.99 36.15 87.18 40.35 89.65 L42.58 85.39 A28.3191 28.0379 -180
										 0 0 25.36 81.76 A28.4411 28.1586 -180 0 0 6.19 92.07 L6.18 92.08 A28.4366 28.1542 -180 0
										 0 -0 112.78 A28.4308 28.1485 -180 0 0 10.42 131.76 C12.22 133.21 14.22 134.41 16.34 135.39
										 L18.57 131.13 A23.7321 23.4964 0 0 1 13.46 128.03 Z" class="st3"/>
						</g>
					</g>
					<g id="group5370-13" transform="translate(2.8777E-13,-3.05813)">
						<title>path13</title>
						<g id="shape5371-14">
							<title>path25</title>
							<path d="M13.46 128.03 A23.561 23.327 0 0 1 4.83 112.28 A23.561 23.327 0 0 1 9.96 95.09 A23.5519 23.318
										 0 0 1 25.87 86.54 C31.13 85.99 36.15 87.18 40.35 89.65 L42.58 85.39 A28.3191 28.0379 -180
										 0 0 25.36 81.76 A28.4411 28.1586 -180 0 0 6.19 92.07 L6.18 92.08 A28.4366 28.1542 -180 0
										 0 -0 112.78 A28.4308 28.1485 -180 0 0 10.42 131.76 C12.22 133.21 14.22 134.41 16.34 135.39
										 L18.57 131.13 A23.7321 23.4964 0 0 1 13.46 128.03 Z" class="st4"/>
						</g>
					</g>
					<g id="group5372-16" transform="translate(27.9395,-21.2217)">
						<title>path15</title>
						<g id="shape5373-17">
							<title>path30</title>
							<path d="M12.38 135.39 L1.43 131.53 A2.28039 2.25774 0 1 1 2.96 127.28 L13.91 131.14 A2.28039 2.25774
										 0 1 1 12.38 135.39 Z" class="st5"/>
						</g>
					</g>
					<g id="group5374-19" transform="translate(25.8392,-25.4945)">
						<title>path17</title>
						<g id="shape5375-20">
							<title>path35</title>
							<path d="M2.28 135.39 A2.28039 2.25774 0 0 1 0 133.13 L0 113.92 A2.28073 2.25808 0 1 1 4.56 113.92 L4.56
										 133.13 A2.28039 2.25774 0 0 1 2.28 135.39 Z" class="st5"/>
						</g>
					</g>
					<g id="group5376-22" transform="translate(24.7891,-24.4585)">
						<title>circle19</title>
						<g id="shape5377-23">
							<title>ellipse40</title>
							<ellipse cx="3.33052" cy="132.096" rx="3.33052" ry="3.29744" class="st6"/>
						</g>
					</g>
					<g id="group5378-25" transform="translate(13.4155,-14.1809)">
						<title>path21</title>
						<g id="shape5379-26">
							<title>path45</title>
							<path d="M0.93 106.16 L3.79 108.99 L2.87 109.91 L0 107.07 L0.93 106.16 ZM14.27 100.72 L15.57 100.72 L15.57
										 104.74 L14.27 104.74 L14.27 100.72 ZM28.78 106.29 L29.71 107.2 L26.84 110.04 L25.92 109.13
										 L28.78 106.29 ZM30.96 120.28 L35.01 120.28 L35.01 121.58 L30.96 121.58 L30.96 120.28 ZM26.65
										 131.64 L29.52 134.48 L28.6 135.39 L25.73 132.55 L26.65 131.64 Z" class="st5"/>
						</g>
					</g>
					<g id="group5380-28" transform="translate(13.4155,-8.81087)">
						<title>path23</title>
						<g id="shape5381-29">
							<title>path50</title>
							<path d="M26.65 126.26 L29.52 129.1 L28.6 130.02 L25.73 127.18 L26.65 126.26 ZM14.27 131.37 L15.57 131.37
										 L15.57 135.39 L14.27 135.39 L14.27 131.37 ZM0.93 100.79 L3.79 103.63 L2.87 104.54 L0 101.71
										 L0.93 100.79 ZM3.07 126.39 L3.99 127.3 L1.12 130.13 L0.2 129.23 L3.07 126.39 Z"
									class="st5"/>
						</g>
					</g>
					<g id="group5382-31" transform="translate(7.99508,-14.0624)">
						<title>path25</title>
						<g id="shape5383-32">
							<title>path55</title>
							<path d="M8.49 131.64 L9.41 132.55 L6.55 135.39 L5.62 134.48 L8.49 131.64 ZM0 120.17 L4.06 120.17 L4.06
										 121.46 L0 121.46 L0 120.17 Z" class="st5"/>
						</g>
					</g>
				</g>
			</g>
		</g>
	</g>
</svg>
