<?xml version="1.0" encoding="UTF-8" standalone="no"?>
<!-- Generated by Microsoft Visio, SVG Export AKS Service and Ingress.svg Page-1 -->

<svg
   xmlns:dc="http://purl.org/dc/elements/1.1/"
   xmlns:cc="http://creativecommons.org/ns#"
   xmlns:rdf="http://www.w3.org/1999/02/22-rdf-syntax-ns#"
   xmlns:svg="http://www.w3.org/2000/svg"
   xmlns="http://www.w3.org/2000/svg"
   xmlns:xlink="http://www.w3.org/1999/xlink"
   xmlns:sodipodi="http://sodipodi.sourceforge.net/DTD/sodipodi-0.dtd"
   xmlns:inkscape="http://www.inkscape.org/namespaces/inkscape"
   width="56.696301"
   height="53.85371"
   viewBox="0 0 56.6963 53.85371"
   xml:space="preserve"
   class="st4"
   version="1.1"
   id="svg40"
   sodipodi:docname="AKS Service and Ingress.svg"
   style="font-size:12px;overflow:visible;color-interpolation-filters:sRGB;fill:none;fill-rule:evenodd;stroke-linecap:square;stroke-miterlimit:3"
   inkscape:version="0.92.5 (2060ec1f9f, 2020-04-08)"><metadata
   id="metadata44"><rdf:RDF><cc:Work
       rdf:about=""><dc:format>image/svg+xml</dc:format><dc:type
         rdf:resource="http://purl.org/dc/dcmitype/StillImage" /></cc:Work></rdf:RDF></metadata><sodipodi:namedview
   pagecolor="#ffffff"
   bordercolor="#666666"
   borderopacity="1"
   objecttolerance="10"
   gridtolerance="10"
   guidetolerance="10"
   inkscape:pageopacity="0"
   inkscape:pageshadow="2"
   inkscape:window-width="640"
   inkscape:window-height="480"
   id="namedview42"
   showgrid="false"
   inkscape:zoom="1.9364261"
   inkscape:cx="28.3465"
   inkscape:cy="26.917308"
   inkscape:window-x="0"
   inkscape:window-y="0"
   inkscape:window-maximized="0"
   inkscape:current-layer="svg40" />
	<style
   type="text/css"
   id="style2">
	<![CDATA[
		.st1 {fill:#a3a3a3;stroke:none;stroke-linecap:butt;stroke-width:34}
		.st2 {fill:#773adc;stroke:none;stroke-linecap:butt;stroke-width:34}
		.st3 {fill:url(#grad0-10);stroke:none;stroke-linecap:butt;stroke-width:34}
		.st4 {fill:none;fill-rule:evenodd;font-size:12px;overflow:visible;stroke-linecap:square;stroke-miterlimit:3}
	]]>
	</style>

	<defs
   id="Patterns_And_Gradients">
		<linearGradient
   id="grad0-10"
   x1="0"
   y1="0"
   x2="1"
   y2="0"
   gradientTransform="rotate(90,0.5,0.5)">
			<stop
   offset="0"
   stop-color="#a67af4"
   stop-opacity="1"
   id="stop4" />
			<stop
   offset="1"
   stop-color="#773adc"
   stop-opacity="1"
   id="stop6" />
		</linearGradient>
	<linearGradient
   inkscape:collect="always"
   xlink:href="#grad0-10"
   id="linearGradient4554"
   gradientTransform="scale(1.0032457,0.99676479)"
   x1="0"
   y1="106.83564"
   x2="15.429919"
   y2="106.83564"
   gradientUnits="userSpaceOnUse" /><linearGradient
   inkscape:collect="always"
   xlink:href="#grad0-10"
   id="linearGradient4556"
   gradientTransform="scale(1.0035691,0.99644355)"
   x1="0"
   y1="106.87007"
   x2="15.434911"
   y2="106.87007"
   gradientUnits="userSpaceOnUse" /></defs>
	<g
   id="g38"
   transform="translate(-34,-34.0006)">
		<title
   id="title10">Page-1</title>
		<g
   id="group10958-1"
   transform="translate(34,-34.0157)">
			<title
   id="title12">AKS Service and Ingress</title>
			<g
   id="group10959-2">
				<title
   id="title14">Sheet.10959</title>
				<g
   id="shape10960-3"
   transform="translate(5.44567,-15.3433)">
					<title
   id="title16">Sheet.10960</title>
					<path
   d="m 25.37,110.29 v -6.67 h -4.73 v 6.67 a 0.944882,0.939388 0 0 1 -0.944882,0.93939 L 1.89,111.23 A 1.88976,1.87878 -180 0 0 0,113.11 v 8.66 h 4.72 v -4.79 a 0.944882,0.939388 0 0 1 0.944882,-0.93939 L 40.12,116.04 a 0.944882,0.939388 0 0 1 0.944882,0.93939 L 41.07,121.87 h 4.72 v -8.76 A 1.88976,1.87878 -180 0 0 43.9,111.23 H 26.31 a 0.944882,0.939388 0 0 1 -0.944882,-0.93939 z"
   class="st1"
   id="path18"
   inkscape:connector-curvature="0"
   style="fill:#a3a3a3;stroke:none;stroke-width:34;stroke-linecap:butt" />
				</g>
				<g
   id="shape10961-5"
   transform="translate(17.4425,-32.3337)">
					<title
   id="title21">Sheet.10961</title>
					<path
   d="M 19.69,100.35 H 1.96 A 1.95906,1.94767 -180 0 0 0,102.3 v 17.61 a 1.95906,1.94767 -180 0 0 1.94,1.96 h 17.75 a 1.95906,1.94767 -180 0 0 1.96,-1.93 v -17.65 a 1.95591,1.94453 -180 0 0 -1.95,-1.94 z m -1.7,16.6 a 1.29764,1.29009 0 0 1 -1.3,1.29 H 4.94 a 1.30079,1.29322 0 0 1 -1.3,-1.29 v -11.7 a 1.29764,1.29009 0 0 1 1.3,-1.29 h 11.77 a 1.29449,1.28696 0 0 1 1.29,1.29 z"
   class="st2"
   id="path23"
   inkscape:connector-curvature="0"
   style="fill:#773adc;stroke:none;stroke-width:34;stroke-linecap:butt" />
				</g>
				<g
   id="shape10962-7">
					<title
   id="title26">Sheet.10962</title>
					<path
   d="m 15.48,120.31 v -12.26 a 1.5748,1.56565 -180 0 0 -1.57,-1.56 H 1.57 A 1.5748,1.56565 -180 0 0 0,108.05 v 12.26 a 1.5748,1.56565 -180 0 0 1.57,1.56 h 12.34 a 1.5748,1.56565 -180 0 0 1.57,-1.56 z"
   class="st3"
   id="path28"
   inkscape:connector-curvature="0"
   style="fill:url(#linearGradient4554);stroke:none;stroke-width:34;stroke-linecap:butt" />
				</g>
				<g
   id="shape10963-11"
   transform="translate(41.2063)">
					<title
   id="title31">Sheet.10963</title>
					<path
   d="m 15.49,120.31 v -12.26 a 1.5748,1.56565 -180 0 0 -1.58,-1.56 H 1.57 A 1.5748,1.56565 -180 0 0 0,108.05 v 12.26 a 1.5748,1.56565 -180 0 0 1.57,1.56 h 12.34 a 1.5748,1.56565 -180 0 0 1.58,-1.56 z"
   class="st3"
   id="path33"
   inkscape:connector-curvature="0"
   style="fill:url(#linearGradient4556);stroke:none;stroke-width:34;stroke-linecap:butt" />
				</g>
			</g>
		</g>
	</g>
</svg>