<?xml version="1.0" encoding="UTF-8" standalone="no"?>
<!-- Generated by Microsoft Visio, SVG Export API Management Authorisation.svg Page-1 -->
<svg xmlns:dc="http://purl.org/dc/elements/1.1/" xmlns:cc="http://creativecommons.org/ns#" xmlns:rdf="http://www.w3.org/1999/02/22-rdf-syntax-ns#" xmlns:svg="http://www.w3.org/2000/svg" xmlns="http://www.w3.org/2000/svg" xmlns:sodipodi="http://sodipodi.sourceforge.net/DTD/sodipodi-0.dtd" xmlns:inkscape="http://www.inkscape.org/namespaces/inkscape" width="56.698896" height="56.691405" viewBox="0 0 56.698896 56.691405" xml:space="preserve" class="st8" version="1.1" id="svg65" sodipodi:docname="API Management Authorisation.svg" style="font-size:12px;overflow:visible;color-interpolation-filters:sRGB;fill:none;fill-rule:evenodd;stroke-linecap:square;stroke-miterlimit:3" inkscape:version="0.92.5 (2060ec1f9f, 2020-04-08)">
  <metadata id="metadata69">
    <rdf:RDF>
      <cc:Work rdf:about="">
        <dc:format>image/svg+xml</dc:format>
        <dc:type rdf:resource="http://purl.org/dc/dcmitype/StillImage" />
      </cc:Work>
    </rdf:RDF>
  </metadata>
  <sodipodi:namedview pagecolor="#ffffff" bordercolor="#666666" borderopacity="1" objecttolerance="10" gridtolerance="10" guidetolerance="10" inkscape:pageopacity="0" inkscape:pageshadow="2" inkscape:window-width="640" inkscape:window-height="480" id="namedview67" showgrid="false" inkscape:zoom="1.8350838" inkscape:cx="37.800697" inkscape:cy="18.949281" inkscape:window-x="0" inkscape:window-y="0" inkscape:window-maximized="0" inkscape:current-layer="svg65" />
	<style type="text/css" id="style2">
	<![CDATA[
		.st1 {fill:#32bedd;stroke:none;stroke-linecap:butt;stroke-width:5.74466}
		.st2 {fill:#0078d4;stroke:none;stroke-linecap:butt;stroke-width:5.74466}
		.st3 {fill:url(#grad0-10);stroke:none;stroke-linecap:butt;stroke-width:5.74466}
		.st4 {fill:#c3f1ff;stroke:none;stroke-linecap:butt;stroke-width:5.74466}
		.st5 {fill:#5ea0ef;stroke:none;stroke-linecap:butt;stroke-width:5.74466}
		.st6 {fill:url(#grad0-18);stroke:none;stroke-linecap:butt;stroke-width:5.74466}
		.st7 {fill:#50e6ff;stroke:none;stroke-linecap:butt;stroke-width:5.74466}
		.st8 {fill:none;fill-rule:evenodd;font-size:12px;overflow:visible;stroke-linecap:square;stroke-miterlimit:3}
	]]>
	</style>

	<defs id="Patterns_And_Gradients">
		<linearGradient id="grad0-10" x1="-2.830095" y1="78.238266" x2="18.679251" y2="78.238266" gradientTransform="scale(1.0048583,0.9951652)" gradientUnits="userSpaceOnUse">
			<stop offset="0" stop-color="#5ea0ef" stop-opacity="1" id="stop4" />
			<stop offset="0.995" stop-color="#0078d4" stop-opacity="1" id="stop6" />
		</linearGradient>
		<linearGradient id="grad0-18" x1="0" y1="75.305431" x2="21.602024" y2="75.305431" gradientTransform="scale(1.0047429,0.99527947)" gradientUnits="userSpaceOnUse">
			<stop offset="0" stop-color="#50e6ff" stop-opacity="1" id="stop9" />
			<stop offset="0.995" stop-color="#32bedd" stop-opacity="1" id="stop11" />
		</linearGradient>
	</defs>
	<g id="g63" transform="translate(-5.7406127,-5.7472)">
		<title id="title15">Page-1</title>
		<g id="group10611-1" transform="translate(5.74469,-34.0157)">
			<title id="title17">API Management Authorisation</title>
			<g id="group10612-2">
				<title id="title19">layer1</title>
				<g id="shape10613-3" transform="translate(47.5462,-47.6315)">
					<title id="title21">path4</title>
					<path d="M 2.98,96.45 0,93.5 5.94,87.62 a 0.779806,0.772463 0 0 1 1.1015,0 L 8.92,89.48 a 0.779806,0.772463 0 0 1 0,1.0928 z" class="st1" id="path23" inkscape:connector-curvature="0" style="fill:#32bedd;stroke:none;stroke-width:5.7446599;stroke-linecap:butt" />
				</g>
				<g id="shape10614-5">
					<title id="title26">path6</title>
					<path d="m 6.09,87.46 2.99,2.96 -5.86,5.81 a 0.774754,0.767458 0 0 1 -1.09476,0 L 0.23,94.36 A 0.774754,0.767458 0 0 1 0.221606,93.26888 Z" class="st2" id="path28" inkscape:connector-curvature="0" style="fill:#0078d4;stroke:none;stroke-width:5.7446599;stroke-linecap:butt" />
				</g>
				<g id="shape10615-7" transform="translate(7.00473,-7.1715)">
					<title id="title31">path8</title>
					<path d="M 0,82.41 A 10.0218,9.92741 -180 0 0 14.17,96.45 L 18.77,91.9 4.6,77.86 Z" class="st3" id="path33" inkscape:connector-curvature="0" style="fill:url(#grad0-10);stroke:none;stroke-width:5.7446599;stroke-linecap:butt" />
				</g>
				<g id="shape10616-11" transform="translate(16.7767,-16.9633)">
					<title id="title36">path10</title>
					<path d="m 7.88,82.46 0.28,0.28 a 1.5074,1.49321 0 0 1 0,2.11 L 2.41,90.55 0,88.16 5.75,82.46 a 1.50909,1.49487 0 0 1 2.13,0 z m 5.96,5.9 0.27,0.28 a 1.5074,1.49321 0 0 1 0,2.11 l -5.75,5.7 -2.41,-2.38 5.76,-5.71 a 1.50909,1.49487 0 0 1 2.13,0 z" class="st4" id="path38" inkscape:connector-curvature="0" style="fill:#c3f1ff;stroke:none;stroke-width:5.7446599;stroke-linecap:butt" />
				</g>
				<g id="shape10617-13" transform="translate(10.4811,-10.7378)">
					<title id="title41">path12</title>
					<path d="M 19.21,93.12 3.37,77.43 a 0.754543,0.747437 -180 0 0 -1.06781,0 L 0.22,79.49 a 0.754543,0.747437 -180 0 0 0,1.05609 L 16.06,96.23 a 0.754543,0.747437 -180 0 0 1.06781,0 L 19.21,94.17 a 0.754543,0.747437 -180 0 0 0,-1.05609 z" class="st5" id="path43" inkscape:connector-curvature="0" style="fill:#5ea0ef;stroke:none;stroke-width:5.7446599;stroke-linecap:butt" />
				</g>
				<g id="shape10618-15" transform="translate(30.9193,-30.9226)">
					<title id="title46">path14</title>
					<path d="M 18.77,91.9 A 10.024481,9.9300512 -180 0 0 4.59,77.86 L 0,82.42 14.17,96.45 Z" class="st6" id="path48" inkscape:connector-curvature="0" style="fill:url(#grad0-18);stroke:none;stroke-width:5.7446599;stroke-linecap:butt" />
				</g>
				<g id="shape10619-19" transform="translate(25.3592,-25.2988)">
					<title id="title51">path16</title>
					<path d="M 6.68,96.02 6.41,95.74 a 1.5074,1.49321 0 0 1 0,-2.11 l 5.75,-5.7 2.41,2.39 -5.76,5.7 a 1.5074,1.49321 0 0 1 -2.12,0 z M 0.72,90.12 0.44,89.84 a 1.5074,1.49321 0 0 1 0,-2.11 l 5.75,-5.7 2.42,2.39 -5.75,5.7 a 1.5074,1.49321 0 0 1 -2.14,0 z" class="st4" id="path53" inkscape:connector-curvature="0" style="fill:#c3f1ff;stroke:none;stroke-width:5.7446599;stroke-linecap:butt" />
				</g>
				<g id="shape10620-21" transform="translate(26.7846,-26.7034)">
					<title id="title56">path18</title>
					<path d="m 0.22,80.55 15.84,15.68 a 0.754543,0.747437 -180 0 0 1.06613,0 L 19.21,94.18 a 0.754543,0.747437 -180 0 0 0,-1.05609 L 3.37,77.43 a 0.754543,0.747437 -180 0 0 -1.06613,0 L 0.22,79.49 a 0.754543,0.747437 -180 0 0 0,1.05609 z" class="st7" id="path58" inkscape:connector-curvature="0" style="fill:#50e6ff;stroke:none;stroke-width:5.7446599;stroke-linecap:butt" />
				</g>
			</g>
		</g>
	</g>
</svg>