<?xml version="1.0" encoding="UTF-8" standalone="no"?>
<!-- Generated by Microsoft Visio, SVG Export API Center.svg Page-1 -->

<svg
   xmlns:dc="http://purl.org/dc/elements/1.1/"
   xmlns:cc="http://creativecommons.org/ns#"
   xmlns:rdf="http://www.w3.org/1999/02/22-rdf-syntax-ns#"
   xmlns:svg="http://www.w3.org/2000/svg"
   xmlns="http://www.w3.org/2000/svg"
   xmlns:sodipodi="http://sodipodi.sourceforge.net/DTD/sodipodi-0.dtd"
   xmlns:inkscape="http://www.inkscape.org/namespaces/inkscape"
   width="0.79203612in"
   height="0.80173594in"
   viewBox="0 0 57.026727 57.724876"
   xml:space="preserve"
   class="st3"
   version="1.1"
   id="svg35"
   sodipodi:docname="API Center.svg"
   style="font-size:12px;overflow:visible;color-interpolation-filters:sRGB;fill:none;fill-rule:evenodd;stroke-linecap:square;stroke-miterlimit:3"
   inkscape:version="0.92.5 (2060ec1f9f, 2020-04-08)"><metadata
   id="metadata39"><rdf:RDF><cc:Work
       rdf:about=""><dc:format>image/svg+xml</dc:format><dc:type
         rdf:resource="http://purl.org/dc/dcmitype/StillImage" /></cc:Work></rdf:RDF></metadata><sodipodi:namedview
   pagecolor="#ffffff"
   bordercolor="#666666"
   borderopacity="1"
   objecttolerance="10"
   gridtolerance="10"
   guidetolerance="10"
   inkscape:pageopacity="0"
   inkscape:pageshadow="2"
   inkscape:window-width="640"
   inkscape:window-height="480"
   id="namedview37"
   showgrid="false"
   inkscape:zoom="1.407843"
   inkscape:cx="38.020355"
   inkscape:cy="38.468676"
   inkscape:window-x="0"
   inkscape:window-y="0"
   inkscape:window-maximized="0"
   inkscape:current-layer="svg35" />
	<style
   type="text/css"
   id="style2">
	<![CDATA[
		.st1 {fill:url(#grad0-6);stroke:none;stroke-linecap:butt;stroke-width:34}
		.st2 {fill:url(#grad0-10);stroke:none;stroke-linecap:butt;stroke-width:34}
		.st3 {fill:none;fill-rule:evenodd;font-size:12px;overflow:visible;stroke-linecap:square;stroke-miterlimit:3}
	]]>
	</style>

	<defs
   id="Patterns_And_Gradients">
		<linearGradient
   id="grad0-6"
   x1="-0.33878346"
   y1="67.591527"
   x2="57.036077"
   y2="67.591527"
   gradientTransform="scale(0.99393232,1.0061047)"
   gradientUnits="userSpaceOnUse">
			<stop
   offset="0"
   stop-color="#198ab3"
   stop-opacity="1"
   id="stop4" />
			<stop
   offset="1"
   stop-color="#32bedd"
   stop-opacity="1"
   id="stop6" />
		</linearGradient>
		<linearGradient
   id="grad0-10"
   x1="0"
   y1="97.264999"
   x2="21.876052"
   y2="97.264999"
   gradientTransform="scale(0.94761155,1.0552847)"
   gradientUnits="userSpaceOnUse">
			<stop
   offset="0"
   stop-color="#6f4bb2"
   stop-opacity="1"
   id="stop9" />
			<stop
   offset="1"
   stop-color="#c69aeb"
   stop-opacity="1"
   id="stop11" />
		</linearGradient>
	</defs>
	<g
   id="g33"
   transform="translate(-33.999172,-33.988719)">
		<title
   id="title15">Page-1</title>
		<g
   id="group11400-1"
   transform="translate(34.3359,-34.0157)">
			<title
   id="title17">API Center</title>
			<g
   id="group11401-2">
				<title
   id="title19">Sheet.11401</title>
				<g
   id="shape11402-3">
					<title
   id="title21">Sheet.11402</title>
					<path
   d="m 37.18,109.03 a 5.70415,5.7693 -180 0 0 -3,0.04 l -4.1,-6.8 a 0.443656,0.448723 -180 0 0 -0.602105,-0.15705 L 27.78,103.1 a 0.446825,0.451928 -180 0 0 -0.158449,0.62501 L 31.73,110.54 a 5.70098,5.76609 -180 0 0 1.33,9.15 c 0.87,0.45 1.8,0.68 2.71,0.68 1.47,0 2.91,-0.58 4.04,-1.69 a 5.70415,5.7693 -180 0 0 -2.63,-9.65 z m 1.35,6.29 a 2.85208,2.88465 0 1 1 -0.31,-2.18 2.82672,2.85901 0 0 1 0.31,2.18 z M 49.79,85.06 a 6.90836,6.98726 -180 0 0 -6.67,5.23 h -8.05 a 0.443656,0.448723 -180 0 0 -0.446825,0.451928 L 34.62,93.32 a 0.443656,0.448723 -180 0 0 0.446825,0.451928 L 43.12,93.77 A 6.90202,6.98085 -180 0 0 49.79,99 c 3.81,0 6.9,-3.13 6.9,-6.97 0,-3.84 -3.09,-6.97 -6.9,-6.97 z m 3.39,7.65 a 3.44467,3.48401 0 0 1 -2.71,2.74 3.45418,3.49363 0 0 1 -4.06,-4.1 3.45418,3.49363 0 0 1 6.77,1.36 z M 9.09,77.49 a 4.67107,4.72441 -180 0 0 2.5,-0.05 l 2.8,4.63 a 0.443656,0.448723 -180 0 0 0.602105,0.157053 L 16.28,81.48 a 0.446825,0.451928 -180 0 0 0.158449,-0.625007 L 13.63,76.2 A 4.74712,4.80134 -180 0 0 7.34,69.03 4.76297,4.81736 -180 0 0 5.91,74.82 c 0.62,1.36 1.77,2.32 3.18,2.67 z M 8.83,70.9 a 2.38941,2.41669 0 0 1 1.99,-0.4 2.37356,2.40067 0 1 1 -2.78,3.23 2.38307,2.41028 0 0 1 0.79,-2.83 z m 8.61,32.35 -2.63,-1.53 a 0.443656,0.448723 -180 0 0 -0.608443,0.16667 L 9.54,110.15 A 7.85271,7.9424 -180 0 0 0,115.5 a 7.8337,7.92317 -180 0 0 3.65,9.2 7.8337,7.92317 -180 0 0 7.37,0.19 7.8337,7.92317 -180 0 0 1.93,-12.79 l 4.66,-8.23 a 0.449994,0.455133 -180 0 0 -0.164787,-0.61539 z m -6.52,16.49 -0.67,0.75 a 3.67918,3.7212 0 0 1 -1.91,1.18 c -0.94,0.21 -1.91,0.06 -2.76,-0.42 a 3.89467,3.93915 0 0 1 -1.85,-2.39 3.92636,3.9712 0 0 1 7.55,-2.12 c 0.29,1.02 0.16,2.09 -0.36,3.01 z"
   class="st1"
   id="path23"
   inkscape:connector-curvature="0"
   style="fill:url(#grad0-6);stroke:none;stroke-width:34;stroke-linecap:butt" />
				</g>
				<g
   id="shape11403-7"
   transform="translate(12.115,-22.1566)">
					<title
   id="title26">Sheet.11403</title>
					<path
   d="m 18.98,107.13 -6.89,-4.02 a 3.48587,3.52568 -180 0 0 -3.47,0 l -6.88,4.02 A 3.47002,3.50966 -180 0 0 0,110.17 v 8.03 c 0,1.25 0.66,2.41 1.74,3.04 l 6.89,4.02 a 3.48587,3.52568 -180 0 0 3.47,0 l 6.89,-4.02 c 1.07,-0.63 1.74,-1.79 1.74,-3.04 v -8.03 a 3.47002,3.50966 -180 0 0 -1.75,-3.04 z"
   class="st2"
   id="path28"
   inkscape:connector-curvature="0"
   style="fill:url(#grad0-10);stroke:none;stroke-width:34;stroke-linecap:butt" />
				</g>
			</g>
		</g>
	</g>
</svg>