<?xml version="1.0" encoding="UTF-8" standalone="no"?>
<!-- Generated by Microsoft Visio, SVG Export API Management Named Value.svg Page-1 -->

<svg
   xmlns:dc="http://purl.org/dc/elements/1.1/"
   xmlns:cc="http://creativecommons.org/ns#"
   xmlns:rdf="http://www.w3.org/1999/02/22-rdf-syntax-ns#"
   xmlns:svg="http://www.w3.org/2000/svg"
   xmlns="http://www.w3.org/2000/svg"
   xmlns:sodipodi="http://sodipodi.sourceforge.net/DTD/sodipodi-0.dtd"
   xmlns:inkscape="http://www.inkscape.org/namespaces/inkscape"
   width="0.78735948in"
   height="0.62993622in"
   viewBox="0 0 56.68979 45.355505"
   xml:space="preserve"
   class="st5"
   version="1.1"
   id="svg77"
   sodipodi:docname="API Management Named Value.svg"
   style="font-size:12px;overflow:visible;color-interpolation-filters:sRGB;fill:none;fill-rule:evenodd;stroke-linecap:square;stroke-miterlimit:3"
   inkscape:version="0.92.5 (2060ec1f9f, 2020-04-08)"><metadata
   id="metadata81"><rdf:RDF><cc:Work
       rdf:about=""><dc:format>image/svg+xml</dc:format><dc:type
         rdf:resource="http://purl.org/dc/dcmitype/StillImage" /></cc:Work></rdf:RDF></metadata><sodipodi:namedview
   pagecolor="#ffffff"
   bordercolor="#666666"
   borderopacity="1"
   objecttolerance="10"
   gridtolerance="10"
   guidetolerance="10"
   inkscape:pageopacity="0"
   inkscape:pageshadow="2"
   inkscape:window-width="640"
   inkscape:window-height="480"
   id="namedview79"
   showgrid="false"
   inkscape:zoom="1.5612629"
   inkscape:cx="37.795262"
   inkscape:cy="30.225663"
   inkscape:window-x="0"
   inkscape:window-y="0"
   inkscape:window-maximized="0"
   inkscape:current-layer="svg77" />
	<style
   type="text/css"
   id="style2">
	<![CDATA[
		.st1 {fill:url(#grad0-6);stroke:none;stroke-linecap:butt;stroke-width:34}
		.st2 {fill:#0078d4;stroke:none;stroke-linecap:butt;stroke-width:34}
		.st3 {fill:#ffffff;fill-opacity:0.9;stroke:none;stroke-linecap:butt;stroke-width:34}
		.st4 {fill:#ffd400;stroke:none;stroke-linecap:butt;stroke-width:34}
		.st5 {fill:none;fill-rule:evenodd;font-size:12px;overflow:visible;stroke-linecap:square;stroke-miterlimit:3}
	]]>
	</style>

	<defs
   id="Patterns_And_Gradients">
		<linearGradient
   id="grad0-6"
   x1="0"
   y1="104.3574"
   x2="43.474643"
   y2="104.3574"
   gradientTransform="scale(1.3039785,0.76688381)"
   gradientUnits="userSpaceOnUse">
			<stop
   offset="0"
   stop-color="#0078d4"
   stop-opacity="1"
   id="stop4" />
			<stop
   offset="0.5"
   stop-color="#4093e6"
   stop-opacity="1"
   id="stop6" />
			<stop
   offset="0.775"
   stop-color="#5ea0ef"
   stop-opacity="1"
   id="stop8" />
		</linearGradient>
	</defs>
	<g
   id="g75"
   transform="translate(-34.000229,-33.998791)">
		<title
   id="title12">Page-1</title>
		<g
   id="group11310-1"
   transform="translate(34,-34.0157)">
			<title
   id="title14">API Management Named Value</title>
			<g
   id="group11311-2">
				<title
   id="title16">MsPortalFx.base.images-4</title>
				<g
   id="shape11312-3">
					<title
   id="title18">Sheet.11312</title>
					<path
   d="m 0,80.03 h 56.69 v 31.46 a 1.89421,1.88479 0 0 1 -1.89,1.88 H 1.89 A 1.89421,1.88479 0 0 1 0,111.49 Z"
   class="st1"
   id="path20"
   inkscape:connector-curvature="0"
   style="fill:url(#grad0-6);stroke:none;stroke-width:34;stroke-linecap:butt" />
				</g>
				<g
   id="shape11313-7"
   transform="translate(0,-33.3355)">
					<title
   id="title23">Sheet.11313</title>
					<path
   d="m 1.9,101.35 h 52.89 a 1.89421,1.88479 0 0 1 1.89,1.89 v 10.13 H 0 v -10.13 a 1.89421,1.88479 0 0 1 1.9,-1.89 z"
   class="st2"
   id="path25"
   inkscape:connector-curvature="0"
   style="fill:#0078d4;stroke:none;stroke-width:34;stroke-linecap:butt" />
				</g>
				<g
   id="shape11314-9"
   transform="translate(6.01612,-22.7734)">
					<title
   id="title28">Sheet.11314</title>
					<path
   d="m 0,112.43 a 0.943792,0.939097 -180 0 0 0.94377,0.93908 L 11.23,113.37 a 0.943792,0.939097 -180 0 0 0.94377,-0.93907 L 12.17,108.17 a 0.943792,0.939097 -180 0 0 -0.94377,-0.93908 L 0.94,107.23 a 0.943792,0.939097 -180 0 0 -0.94377,0.93908 z"
   class="st3"
   id="path30"
   inkscape:connector-curvature="0"
   style="fill:#ffffff;fill-opacity:0.9;stroke:none;stroke-width:34;stroke-linecap:butt" />
				</g>
				<g
   id="shape11315-11"
   transform="translate(22.3437,-22.8597)">
					<title
   id="title33">Sheet.11315</title>
					<path
   d="m 0,112.43 a 0.943792,0.939097 -180 0 0 0.94377,0.93908 L 11.23,113.37 a 0.943792,0.939097 -180 0 0 0.94377,-0.93907 L 12.17,108.17 a 0.943792,0.939097 -180 0 0 -0.94377,-0.93908 L 0.94,107.23 a 0.943792,0.939097 -180 0 0 -0.94377,0.93908 z"
   class="st3"
   id="path35"
   inkscape:connector-curvature="0"
   style="fill:#ffffff;fill-opacity:0.9;stroke:none;stroke-width:34;stroke-linecap:butt" />
				</g>
				<g
   id="shape11316-13"
   transform="translate(38.6712,-22.8597)">
					<title
   id="title38">Sheet.11316</title>
					<path
   d="m 0,112.43 a 0.943792,0.939097 -180 0 0 0.94377,0.93908 L 11.23,113.37 a 0.943792,0.939097 -180 0 0 0.94377,-0.93907 L 12.17,108.17 a 0.943792,0.939097 -180 0 0 -0.94377,-0.93908 L 0.94,107.23 a 0.943792,0.939097 -180 0 0 -0.94377,0.93908 z"
   class="st3"
   id="path40"
   inkscape:connector-curvature="0"
   style="fill:#ffffff;fill-opacity:0.9;stroke:none;stroke-width:34;stroke-linecap:butt" />
				</g>
				<g
   id="shape11317-15"
   transform="translate(6.1962,-13.9932)">
					<title
   id="title43">Sheet.11317</title>
					<path
   d="m 0,112.43 a 0.943792,0.939097 -180 0 0 0.94377,0.93908 L 11.23,113.37 a 0.943792,0.939097 -180 0 0 0.94377,-0.93907 L 12.17,108.17 a 0.943792,0.939097 -180 0 0 -0.94377,-0.93908 L 0.94,107.23 a 0.943792,0.939097 -180 0 0 -0.94377,0.93908 z"
   class="st3"
   id="path45"
   inkscape:connector-curvature="0"
   style="fill:#ffffff;fill-opacity:0.9;stroke:none;stroke-width:34;stroke-linecap:butt" />
				</g>
				<g
   id="shape11318-17"
   transform="translate(22.5238,-14.0795)">
					<title
   id="title48">Sheet.11318</title>
					<path
   d="m 0,112.43 a 0.943792,0.939097 -180 0 0 0.94377,0.93908 L 11.23,113.37 a 0.943792,0.939097 -180 0 0 0.94377,-0.93907 L 12.17,108.17 a 0.943792,0.939097 -180 0 0 -0.94377,-0.93908 L 0.94,107.23 a 0.943792,0.939097 -180 0 0 -0.94377,0.93908 z"
   class="st4"
   id="path50"
   inkscape:connector-curvature="0"
   style="fill:#ffd400;stroke:none;stroke-width:34;stroke-linecap:butt" />
				</g>
				<g
   id="shape11319-19"
   transform="translate(38.8513,-14.0795)">
					<title
   id="title53">Sheet.11319</title>
					<path
   d="m 0,112.43 a 0.943792,0.939097 -180 0 0 0.94377,0.93908 L 11.23,113.37 a 0.943792,0.939097 -180 0 0 0.94377,-0.93907 L 12.17,108.17 a 0.943792,0.939097 -180 0 0 -0.94377,-0.93908 L 0.94,107.23 a 0.943792,0.939097 -180 0 0 -0.94377,0.93908 z"
   class="st4"
   id="path55"
   inkscape:connector-curvature="0"
   style="fill:#ffd400;stroke:none;stroke-width:34;stroke-linecap:butt" />
				</g>
				<g
   id="shape11320-21"
   transform="translate(6.1962,-5.12675)">
					<title
   id="title58">Sheet.11320</title>
					<path
   d="m 0,112.43 a 0.943792,0.939097 -180 0 0 0.94377,0.93908 L 11.23,113.37 a 0.943792,0.939097 -180 0 0 0.94377,-0.93907 L 12.17,108.17 a 0.943792,0.939097 -180 0 0 -0.94377,-0.93908 L 0.94,107.23 a 0.943792,0.939097 -180 0 0 -0.94377,0.93908 z"
   class="st4"
   id="path60"
   inkscape:connector-curvature="0"
   style="fill:#ffd400;stroke:none;stroke-width:34;stroke-linecap:butt" />
				</g>
				<g
   id="shape11321-23"
   transform="translate(22.5238,-5.21303)">
					<title
   id="title63">Sheet.11321</title>
					<path
   d="m 0,112.43 a 0.943792,0.939097 -180 0 0 0.94377,0.93908 L 11.23,113.37 a 0.943792,0.939097 -180 0 0 0.94377,-0.93907 L 12.17,108.17 a 0.943792,0.939097 -180 0 0 -0.94377,-0.93908 L 0.94,107.23 a 0.943792,0.939097 -180 0 0 -0.94377,0.93908 z"
   class="st4"
   id="path65"
   inkscape:connector-curvature="0"
   style="fill:#ffd400;stroke:none;stroke-width:34;stroke-linecap:butt" />
				</g>
				<g
   id="shape11322-25"
   transform="translate(38.8513,-5.21303)">
					<title
   id="title68">Sheet.11322</title>
					<path
   d="m 0,112.43 a 0.943792,0.939097 -180 0 0 0.94377,0.93908 L 11.23,113.37 a 0.943792,0.939097 -180 0 0 0.94377,-0.93907 L 12.17,108.17 a 0.943792,0.939097 -180 0 0 -0.94377,-0.93908 L 0.94,107.23 a 0.943792,0.939097 -180 0 0 -0.94377,0.93908 z"
   class="st4"
   id="path70"
   inkscape:connector-curvature="0"
   style="fill:#ffd400;stroke:none;stroke-width:34;stroke-linecap:butt" />
				</g>
			</g>
		</g>
	</g>
</svg>