<?xml version="1.0" encoding="UTF-8" standalone="no"?>
<!DOCTYPE svg PUBLIC "-//W3C//DTD SVG 1.1//EN" "http://www.w3.org/Graphics/SVG/1.1/DTD/svg11.dtd">
<!-- Generated by Microsoft Visio, SVG Export API Connection.svg Page-1 -->
<svg xmlns="http://www.w3.org/2000/svg" xmlns:xlink="http://www.w3.org/1999/xlink" xmlns:ev="http://www.w3.org/2001/xml-events"
		width="1.73231in" height="1.73206in" viewBox="0 0 124.726 124.709" xml:space="preserve" color-interpolation-filters="sRGB"
		class="st5">
	<style type="text/css">
	<![CDATA[
		.st1 {fill:url(#grad0-6);stroke:none;stroke-linecap:butt;stroke-width:34}
		.st2 {fill:url(#grad0-10);stroke:none;stroke-linecap:butt;stroke-width:34}
		.st3 {fill:url(#grad0-14);stroke:none;stroke-linecap:butt;stroke-width:34}
		.st4 {fill:none;stroke:none;stroke-linecap:butt;stroke-width:34}
		.st5 {fill:none;fill-rule:evenodd;font-size:12px;overflow:visible;stroke-linecap:square;stroke-miterlimit:3}
	]]>
	</style>

	<defs id="Patterns_And_Gradients">
		<linearGradient id="grad0-6" x1="0" y1="0" x2="1" y2="0" gradientTransform="rotate(-90 0.5 0.5)">
			<stop offset="0" stop-color="#5e9624" stop-opacity="1"/>
			<stop offset="0.01" stop-color="#5e9724" stop-opacity="1"/>
			<stop offset="0.35" stop-color="#6cab29" stop-opacity="1"/>
			<stop offset="0.68" stop-color="#73b82c" stop-opacity="1"/>
			<stop offset="1" stop-color="#76bc2d" stop-opacity="1"/>
		</linearGradient>
		<linearGradient id="grad0-10" x1="0" y1="0" x2="1" y2="0" gradientTransform="rotate(-90 0.5 0.5)">
			<stop offset="0" stop-color="#0078d4" stop-opacity="1"/>
			<stop offset="0.82" stop-color="#5ea0ef" stop-opacity="1"/>
		</linearGradient>
		<linearGradient id="grad0-14" x1="0" y1="0" x2="1" y2="0" gradientTransform="rotate(110.18752416876 0.5 0.5)">
			<stop offset="0" stop-color="#005ba1" stop-opacity="1"/>
			<stop offset="0.14" stop-color="#035da3" stop-opacity="1"/>
			<stop offset="0.3" stop-color="#0b63aa" stop-opacity="1"/>
			<stop offset="0.47" stop-color="#196eb6" stop-opacity="1"/>
			<stop offset="0.65" stop-color="#2d7cc6" stop-opacity="1"/>
			<stop offset="0.84" stop-color="#468edb" stop-opacity="1"/>
			<stop offset="1" stop-color="#5ea0ef" stop-opacity="1"/>
		</linearGradient>
	</defs>
	<g>
		<title>Page-1</title>
		<g id="group5224-1" transform="translate(34.0166,-34.0157)">
			<title>API Connection</title>
			<g id="group5225-2">
				<title>Icon-web-48</title>
				<g id="shape5226-3" transform="translate(18.5827,-9.44882)">
					<title>Sheet.5226</title>
					<path d="M26.08 97.91 L11.81 97.91 A12.5984 12.5984 -180 0 0 0 108.96 L4.47 108.96 A7.84252 7.84252 0 0 1 11.81
								 102.66 L26.08 102.66 A8.15748 8.15748 0 0 1 33.76 111.2 A8.18898 8.18898 0 0 1 26.08 119.76 L11.81
								 119.76 A7.84252 7.84252 0 0 1 4.47 113.46 L0 113.46 A12.5984 12.5984 -180 0 0 11.81 124.71 L26.08
								 124.71 A12.7874 12.7874 -180 0 0 38.11 111.29 A12.7874 12.7874 -180 0 0 26.08 97.91 Z" class="st1"/>
				</g>
				<g id="shape5227-7" transform="translate(0,-20.4409)">
					<title>Sheet.5227</title>
					<path d="M26.3 119.95 L12.03 119.95 A8.15748 8.15748 0 0 1 4.35 111.32 A8.18898 8.18898 0 0 1 12.03 102.76 L26.3
								 102.76 A7.84252 7.84252 0 0 1 33.64 109.06 L38.11 109.06 A12.5984 12.5984 -180 0 0 26.3 97.91 L12.03
								 97.91 A12.7874 12.7874 -180 0 0 0 111.32 A12.7874 12.7874 -180 0 0 12.03 124.71 L26.3 124.71 A12.5984
								 12.5984 -180 0 0 38.11 113.65 L33.64 113.65 A7.84252 7.84252 0 0 1 26.3 119.95 Z" class="st2"/>
				</g>
				<g id="shape5228-11" transform="translate(16.8504,-20.3465)">
					<title>Sheet.5228</title>
					<path d="M9.45 119.86 L0 119.86 L0 124.71 L9.45 124.71 A12.5984 12.5984 -180 0 0 21.26 113.56 L16.79 113.56 A7.84252
								 7.84252 0 0 1 9.45 119.86 Z" class="st3"/>
				</g>
				<g id="shape5229-15">
					<title>Sheet.5229</title>
					<rect x="0" y="68.0157" width="56.6929" height="56.6929" class="st4"/>
				</g>
			</g>
		</g>
	</g>
</svg>
