<?xml version="1.0" encoding="UTF-8" standalone="no"?>
<!DOCTYPE svg PUBLIC "-//W3C//DTD SVG 1.1//EN" "http://www.w3.org/Graphics/SVG/1.1/DTD/svg11.dtd">
<!-- Generated by Microsoft Visio, SVG Export App Gateway Listener.svg Page-1 -->
<svg xmlns="http://www.w3.org/2000/svg" xmlns:xlink="http://www.w3.org/1999/xlink" xmlns:ev="http://www.w3.org/2001/xml-events"
		width="1.73185in" height="1.61396in" viewBox="0 0 124.693 116.205" xml:space="preserve" color-interpolation-filters="sRGB"
		class="st6">
	<style type="text/css">
	<![CDATA[
		.st1 {fill:#999999;stroke:none;stroke-linecap:butt;stroke-width:34}
		.st2 {fill:#999999;fill-opacity:0.5;stroke:none;stroke-linecap:butt;stroke-width:34}
		.st3 {fill:#949494;stroke:none;stroke-linecap:butt;stroke-width:34}
		.st4 {fill:url(#grad0-30);stroke:none;stroke-linecap:butt;stroke-width:34}
		.st5 {fill:url(#grad0-34);stroke:none;stroke-linecap:butt;stroke-width:34}
		.st6 {fill:none;fill-rule:evenodd;font-size:12px;overflow:visible;stroke-linecap:square;stroke-miterlimit:3}
	]]>
	</style>

	<defs id="Patterns_And_Gradients">
		<linearGradient id="grad0-30" x1="0" y1="0" x2="1" y2="0" gradientTransform="rotate(-90 0.5 0.5)">
			<stop offset="0" stop-color="#773adc" stop-opacity="1"/>
			<stop offset="1" stop-color="#a67af4" stop-opacity="1"/>
		</linearGradient>
		<linearGradient id="grad0-34" x1="0" y1="0" x2="1" y2="0" gradientTransform="rotate(-90 0.5 0.5)">
			<stop offset="0" stop-color="#1b93eb" stop-opacity="1"/>
			<stop offset="1" stop-color="#6bb9f2" stop-opacity="1"/>
		</linearGradient>
	</defs>
	<g>
		<title>Page-1</title>
		<g id="group9471-1" transform="translate(34,-34.0157)">
			<title>App Gateway Listener</title>
			<g id="group9472-2">
				<title>MsPortalFx.base.images-64</title>
				<g id="group9473-3" transform="translate(0.883764,-35.8071)">
					<title>Sheet.9473</title>
					<g id="shape9474-4">
						<title>Sheet.9474</title>
						<path d="M1.83 103.82 L5.95 103.82 L5.95 115.29 a0.913779 0.910041 0 0 1 -0.913779 0.910041 L0.91 116.2 a0.913779
									 0.910041 0 0 1 -0.913779 -0.910041 L0 105.64 A1.82756 1.82008 0 0 1 1.83 103.82 Z" class="st1"/>
					</g>
					<g id="shape9475-6">
						<title>Sheet.9475</title>
						<path d="M1.83 103.82 L5.95 103.82 L5.95 115.29 a0.913779 0.910041 0 0 1 -0.913779 0.910041 L0.91 116.2 a0.913779
									 0.910041 0 0 1 -0.913779 -0.910041 L0 105.64 A1.82756 1.82008 0 0 1 1.83 103.82 Z" class="st2"/>
					</g>
				</g>
				<g id="group9476-8" transform="translate(49.2607,-35.8071)">
					<title>Sheet.9476</title>
					<g id="shape9477-9">
						<title>Sheet.9477</title>
						<path d="M0 103.82 L4.12 103.82 A1.82756 1.82008 0 0 1 5.95 105.64 L5.95 115.29 a0.913779 0.910041 0 0 1
									 -0.913779 0.910041 L0.91 116.2 a0.913779 0.910041 0 0 1 -0.913779 -0.910041 L0 103.82 Z"
								class="st1"/>
					</g>
					<g id="shape9478-11">
						<title>Sheet.9478</title>
						<path d="M0 103.82 L4.12 103.82 A1.82756 1.82008 0 0 1 5.95 105.64 L5.95 115.29 a0.913779 0.910041 0 0 1
									 -0.913779 0.910041 L0.91 116.2 a0.913779 0.910041 0 0 1 -0.913779 -0.910041 L0 103.82 Z"
								class="st2"/>
					</g>
				</g>
				<g id="shape9479-13" transform="translate(0.883764,-42.3999)">
					<title>Sheet.9479</title>
					<path d="M54.33 112.22 L54.33 116.2 L0 116.2 L0 112.22 A1.81088 1.80347 0 0 1 1.81 110.42 L52.5 110.42 A1.81088
								 1.80347 0 0 1 54.33 112.22 Z" class="st3"/>
				</g>
				<g id="group9480-15" transform="translate(0.883764,-0.00332132)">
					<title>Sheet.9480</title>
					<g id="shape9481-16">
						<title>Sheet.9481</title>
						<path d="M0.91 103.82 L5.04 103.82 a0.913779 0.910041 0 0 1 0.913779 0.910041 L5.95 116.2 L1.83 116.2 A1.82756
									 1.82008 0 0 1 -0 114.38 L0 104.73 a0.913779 0.910041 0 0 1 0.913779 -0.910041 Z" class="st1"/>
					</g>
					<g id="shape9482-18">
						<title>Sheet.9482</title>
						<path d="M0.91 103.82 L5.04 103.82 a0.913779 0.910041 0 0 1 0.913779 0.910041 L5.95 116.2 L1.83 116.2 A1.82756
									 1.82008 0 0 1 -0 114.38 L0 104.73 a0.913779 0.910041 0 0 1 0.913779 -0.910041 Z" class="st2"/>
					</g>
				</g>
				<g id="group9483-20" transform="translate(49.2607,-2.27374E-13)">
					<title>Sheet.9483</title>
					<g id="shape9484-21">
						<title>Sheet.9484</title>
						<path d="M0.91 103.82 L5.04 103.82 a0.913779 0.910041 0 0 1 0.913779 0.910041 L5.95 114.38 A1.82756 1.82008
									 0 0 1 4.12 116.2 L0 116.2 L0 104.73 a0.913779 0.910041 0 0 1 0.913779 -0.910041 Z" class="st1"/>
					</g>
					<g id="shape9485-23">
						<title>Sheet.9485</title>
						<path d="M0.91 103.82 L5.04 103.82 a0.913779 0.910041 0 0 1 0.913779 0.910041 L5.95 114.38 A1.82756 1.82008
									 0 0 1 4.12 116.2 L0 116.2 L0 104.73 a0.913779 0.910041 0 0 1 0.913779 -0.910041 Z" class="st2"/>
					</g>
				</g>
				<g id="shape9486-25" transform="translate(0.883764,-0.00332132)">
					<title>Sheet.9486</title>
					<path d="M0 114.4 L0 110.42 L54.33 110.42 L54.33 114.4 A1.81088 1.80347 0 0 1 52.52 116.2 L1.81 116.2 A1.81088
								 1.80347 0 0 1 0 114.4 Z" class="st3"/>
				</g>
				<g id="shape9487-27" transform="translate(0,-13.144)">
					<title>Sheet.9487</title>
					<path d="M14.97 93.57 L25.39 103.95 A1.2406 1.23553 0 0 1 25.39 105.7 L14.97 116.08 a0.553603 0.551338 0 0 1
								 -0.947128 -0.391915 L14.02 109.31 a0.553603 0.551338 -180 0 0 -0.553603 -0.55466 L0.44 108.76 a0.440214
								 0.438414 0 0 1 -0.443549 -0.441735 L0 101.34 a0.440214 0.438414 0 0 1 0.443549 -0.438414 L13.47
								 100.9 a0.553603 0.551338 -180 0 0 0.553603 -0.55466 L14.02 93.96 a0.553603 0.551338 0 0 1 0.947128
								 -0.385273 Z" class="st4"/>
				</g>
				<g id="shape9488-31" transform="translate(30.9384,-13.144)">
					<title>Sheet.9488</title>
					<path d="M14.97 93.57 L25.39 103.95 A1.24727 1.24217 0 0 1 25.39 105.7 L14.97 116.08 a0.553603 0.551338 0 0 1
								 -0.947128 -0.391915 L14.02 109.31 a0.556938 0.55466 -180 0 0 -0.556938 -0.55466 L0.44 108.76 a0.440214
								 0.438414 0 0 1 -0.440214 -0.441735 L0 101.34 a0.440214 0.438414 0 0 1 0.440214 -0.441735 L13.47
								 100.9 a0.556938 0.55466 -180 0 0 0.556938 -0.55466 L14.02 93.96 a0.553603 0.551338 0 0 1 0.947128
								 -0.385273 Z" class="st5"/>
				</g>
			</g>
		</g>
	</g>
</svg>
