<?xml version="1.0" encoding="UTF-8" standalone="no"?>
<!DOCTYPE svg PUBLIC "-//W3C//DTD SVG 1.1//EN" "http://www.w3.org/Graphics/SVG/1.1/DTD/svg11.dtd">
<!-- Generated by Microsoft Visio, SVG Export App Service API Definition.svg Page-1 -->
<svg xmlns="http://www.w3.org/2000/svg" xmlns:xlink="http://www.w3.org/1999/xlink" xmlns:ev="http://www.w3.org/2001/xml-events"
		width="1.57437in" height="1.73206in" viewBox="0 0 113.354 124.709" xml:space="preserve" color-interpolation-filters="sRGB"
		class="st5">
	<style type="text/css">
	<![CDATA[
		.st1 {fill:#32bedd;stroke:none;stroke-linecap:butt;stroke-width:34}
		.st2 {fill:url(#grad0-8);stroke:none;stroke-linecap:butt;stroke-width:34}
		.st3 {fill:url(#grad0-18)}
		.st4 {stroke:none;stroke-linecap:butt;stroke-width:34}
		.st5 {fill:none;fill-rule:evenodd;font-size:12px;overflow:visible;stroke-linecap:square;stroke-miterlimit:3}
	]]>
	</style>

	<defs id="Patterns_And_Gradients">
		<linearGradient id="grad0-8" x1="0" y1="0" x2="1" y2="0" gradientTransform="rotate(90 0.5 0.5)">
			<stop offset="0" stop-color="#c69aeb" stop-opacity="1"/>
			<stop offset="1" stop-color="#6f4bb2" stop-opacity="1"/>
		</linearGradient>
		<linearGradient id="grad0-18" x1="0" y1="0" x2="1" y2="0" gradientTransform="rotate(90 0.5 0.5)">
			<stop offset="0" stop-color="#50e6ff" stop-opacity="1"/>
			<stop offset="1" stop-color="#32bedd" stop-opacity="1"/>
		</linearGradient>
	</defs>
	<g>
		<title>Page-1</title>
		<g id="group9394-1" transform="translate(34,-34.0157)">
			<title>App Service API Definition</title>
			<g id="group9395-2">
				<title>Sheet.9395</title>
				<g id="shape9396-3" transform="translate(10.0119,-30.6811)">
					<title>Sheet.9396</title>
					<path d="M9.34 117.57 L3.48 117.57 A3.47408 3.54646 0 0 1 -0 114.03 L0 98.7 L3.24 98.7 L3.24 114.03 a0.2314 0.23622
								 -180 0 0 0.2314 0.23622 L9.33 114.26 L9.34 117.57 ZM22.17 98.7 L22.17 114.03 a0.2314 0.23622 0 0
								 1 -0.243741 0.23622 L19.27 114.26 L19.27 114.2 A8.66977 8.85039 -180 0 0 10.72 107.02 A1.41633 1.44583
								 -180 1 0 10.37 109.89 A1.67533 1.71024 -180 0 0 10.72 109.89 A5.86212 5.98425 0 0 1 10.72 121.83
								 A1.41617 1.44567 -180 0 0 10.37 124.7 A1.34212 1.37008 -180 0 0 10.72 124.7 A8.65743 8.8378 -180
								 0 0 19.2 117.57 L21.92 117.57 A3.47408 3.54646 -180 0 0 25.4 114.03 L25.4 98.7 L22.17 98.7 Z"
							class="st1"/>
				</g>
				<g id="shape9397-5" transform="translate(15.9635,-36.0189)">
					<title>Sheet.9397</title>
					<path d="M-0 121.23 A3.40628 3.47725 -180 0 0 3.41 124.71 L3.49 124.71 A3.40628 3.47725 -180 0 0 6.9 121.23 L6.9
								 121.14 A3.40628 3.47725 -180 0 0 3.49 117.67 L3.41 117.67 A3.40628 3.47725 -180 0 0 0 121.14 L0
								 121.23 Z" class="st2"/>
				</g>
				<g id="shape9398-9" transform="translate(10.774,-20.5008)">
					<title>Sheet.9398</title>
					<path d="M0 123.23 A1.45014 1.48035 -180 0 0 1.45 124.71 L22.62 124.71 A1.45014 1.48035 -180 0 0 24.07 123.23
								 L24.07 122.89 A1.45014 1.48035 -180 0 0 22.62 121.41 L1.45 121.41 A1.45014 1.48035 -180 0 0 0 122.89
								 L0 123.23 Z" class="st1"/>
				</g>
				<g id="shape9399-11" transform="translate(10.774,-14.5953)">
					<title>Sheet.9399</title>
					<path d="M0 123.23 A1.45014 1.48035 -180 0 0 1.45 124.71 L22.62 124.71 A1.45014 1.48035 -180 0 0 24.07 123.23
								 L24.07 122.89 A1.45014 1.48035 -180 0 0 22.62 121.41 L1.45 121.41 A1.45014 1.48035 -180 0 0 0 122.89
								 L0 123.23 Z" class="st1"/>
				</g>
				<g id="shape9400-13" transform="translate(10.774,-8.68661)">
					<title>Sheet.9400</title>
					<path d="M-0 123.23 A1.45014 1.48035 -180 0 0 1.45 124.71 L13.72 124.71 A1.45014 1.48035 -180 0 0 15.17 123.23
								 L15.17 122.89 A1.45014 1.48035 -180 0 0 13.72 121.41 L1.45 121.41 A1.45014 1.48035 -180 0 0 0 122.89
								 L0 123.23 Z" class="st1"/>
				</g>
				<g id="shape9401-15">
					<title>Sheet.9401</title>
					<path d="M42.28 71.17 L42.28 121.56 L3.09 121.56 L3.09 71.17 L42.27 71.17 L42.28 71.17 ZM43.5 68.02 L1.85 68.02
								 A1.8512 1.88976 -180 0 0 -0 69.91 L0 122.82 A1.8512 1.88976 -180 0 0 1.85 124.71 L43.5 124.71 A1.8512
								 1.88976 -180 0 0 45.35 122.82 L45.35 69.91 A1.8512 1.88976 -180 0 0 43.5 68.02 Z" class="st3"/>
					<path d="M42.28 71.17 L42.28 121.56 L3.09 121.56 L3.09 71.17 L42.27 71.17M43.5 68.02 L1.85 68.02 A1.8512 1.88976
								 -180 0 0 -0 69.91 L0 122.82 A1.8512 1.88976 -180 0 0 1.85 124.71 L43.5 124.71 A1.8512 1.88976 -180
								 0 0 45.35 122.82 L45.35 69.91 A1.8512 1.88976 -180 0 0 43.5 68.02" class="st4"/>
				</g>
			</g>
		</g>
	</g>
</svg>
