<?xml version="1.0" encoding="UTF-8" standalone="no"?>
<!-- Generated by Microsoft Visio, SVG Export App Log Stream.svg Page-1 -->
<svg xmlns:dc="http://purl.org/dc/elements/1.1/" xmlns:cc="http://creativecommons.org/ns#" xmlns:rdf="http://www.w3.org/1999/02/22-rdf-syntax-ns#" xmlns:svg="http://www.w3.org/2000/svg" xmlns="http://www.w3.org/2000/svg" xmlns:sodipodi="http://sodipodi.sourceforge.net/DTD/sodipodi-0.dtd" xmlns:inkscape="http://www.inkscape.org/namespaces/inkscape" width="48.191506" height="56.704884" viewBox="0 0 48.191506 56.704884" xml:space="preserve" class="st4" version="1.1" id="svg45" sodipodi:docname="App Log Stream.svg" style="font-size:12px;overflow:visible;color-interpolation-filters:sRGB;fill:none;fill-rule:evenodd;stroke-linecap:square;stroke-miterlimit:3" inkscape:version="0.92.5 (2060ec1f9f, 2020-04-08)">
  <metadata id="metadata49">
    <rdf:RDF>
      <cc:Work rdf:about="">
        <dc:format>image/svg+xml</dc:format>
        <dc:type rdf:resource="http://purl.org/dc/dcmitype/StillImage" />
      </cc:Work>
    </rdf:RDF>
  </metadata>
  <sodipodi:namedview pagecolor="#ffffff" bordercolor="#666666" borderopacity="1" objecttolerance="10" gridtolerance="10" guidetolerance="10" inkscape:pageopacity="0" inkscape:pageshadow="2" inkscape:window-width="640" inkscape:window-height="480" id="namedview47" showgrid="false" inkscape:zoom="1.3127915" inkscape:cx="32.127171" inkscape:cy="37.806572" inkscape:window-x="0" inkscape:window-y="0" inkscape:window-maximized="0" inkscape:current-layer="svg45" />
	<style type="text/css" id="style2">
	<![CDATA[
		.st1 {fill:#d15900;stroke:none;stroke-linecap:butt;stroke-width:39.0614}
		.st2 {fill:#ffffff;stroke:none;stroke-linecap:butt;stroke-width:39.0614}
		.st3 {fill:url(#grad0-10);stroke:none;stroke-linecap:butt;stroke-width:39.0614}
		.st4 {fill:none;fill-rule:evenodd;font-size:12px;overflow:visible;stroke-linecap:square;stroke-miterlimit:3}
	]]>
	</style>

	<defs id="Patterns_And_Gradients">
		<linearGradient id="grad0-10" x1="-0.00041375817" y1="75.834636" x2="46.690864" y2="75.834636" gradientTransform="scale(0.90874339,1.1004207)" gradientUnits="userSpaceOnUse">
			<stop offset="0" stop-color="#ef7100" stop-opacity="1" id="stop4" />
			<stop offset="0.9" stop-color="#f78d1e" stop-opacity="1" id="stop6" />
		</linearGradient>
	</defs>
	<g id="g43" transform="translate(-39.061024,-39.06372)">
		<title id="title10">Page-1</title>
		<g id="group10458-1" transform="translate(39.0614,-39.0615)">
			<title id="title12">App Log Stream</title>
			<g id="group10459-2">
				<title id="title14">MsPortalFx.base.images-59</title>
				<g id="shape10460-3" transform="translate(0.0101987,-0.1434)">
					<title id="title16">path4</title>
					<path d="m 0.05,83.64 4.12,-4.7 a 2.00915,1.97091 0 0 1 1.51,-0.66 h 39.48 a 2.76385,2.71126 0 0 1 3.02,2.77 v 48.35 a 2.00575,1.96758 0 0 1 -0.65,1.46 l -4.45,3.97 H 2.72 L 0,133.7 Z" class="st1" id="path18" inkscape:connector-curvature="0" style="fill:#d15900;stroke:none;stroke-width:39.06140137;stroke-linecap:butt" />
				</g>
				<g id="shape10461-5" transform="translate(3.37238,-2.25438)">
					<title id="title21">path6</title>
					<path d="M 0,85.72 2.52,82.9 a 1.77458,1.74081 0 0 1 1.34,-0.59 h 36.87 a 1.77458,1.74081 0 0 1 1.77,1.74 v 45.97 a 1.77118,1.73747 0 0 1 -0.58,1.29 l -3.93,3.52 z" class="st2" id="path23" inkscape:connector-curvature="0" style="fill:#ffffff;stroke:none;stroke-width:39.06140137;stroke-linecap:butt" />
				</g>
				<g id="shape10462-7">
					<title id="title26">path8</title>
					<path d="M 41.12,83.45 H 0.19 A 0.190376,0.186753 -180 0 0 -3.76e-4,83.636753 L 0,133.54 a 1.30884,1.28393 -180 0 0 1.32,1.29 h 39.8 a 1.30884,1.28393 -180 0 0 1.31,-1.29 V 84.73 a 1.31224,1.28726 -180 0 0 -1.31,-1.28 z" class="st3" id="path28" inkscape:connector-curvature="0" style="fill:url(#grad0-10);stroke:none;stroke-width:39.06140137;stroke-linecap:butt" />
				</g>
				<g id="shape10463-11" transform="translate(13.2379,-19.6475)">
					<title id="title31">path10</title>
					<path d="m 15.95,128.99 a 7.69324,7.54683 0 0 1 -2.16,5.3 1.30544,1.28059 0 0 1 -1.96,0.21 1.33943,1.31394 0 0 1 0.02,-1.98 5.32033,5.21908 -180 0 0 0,-7.25 1.32583,1.3006 0 1 1 1.95,-1.74 7.85642,7.7069 0 0 1 2.15,5.46 z m -15.95,0 a 8.09779,7.94368 0 0 1 2.16,-5.44 1.33263,1.30727 0 1 1 1.94,1.76 5.32033,5.21908 -180 0 0 0,7.19 1.35983,1.33395 0 0 1 0,2.03 A 1.29524,1.27059 0 0 1 2.24,134.36 8.04679,7.89365 0 0 1 0,128.99 Z m 5.76,-0.12 a 2.23352,2.19101 0 0 1 2.24,-2.19 2.26072,2.21769 0 0 1 0,4.43 2.20972,2.16767 0 0 1 -2.24,-2.24 z" class="st2" id="path33" inkscape:connector-curvature="0" style="fill:#ffffff;stroke:none;stroke-width:39.06140137;stroke-linecap:butt" />
				</g>
				<g id="shape10464-13" transform="translate(6.415,-16.9731)">
					<title id="title36">path12</title>
					<path d="m 29.58,126.12 a 11.4532,11.2352 0 0 1 -3.24,7.9 1.94796,1.91088 0 0 1 -2.91,0.33 1.99895,1.96091 0 0 1 0.03,-2.96 7.93121,7.78027 -180 0 0 0,-10.81 1.97855,1.9409 0 1 1 2.91,-2.59 11.6843,11.462 0 0 1 3.21,8.13 z M 0,125.88 a 11.4532,11.2352 -180 0 0 3.24,7.89 1.94796,1.91088 -180 0 0 2.9,0.33 1.99895,1.96091 -180 0 0 -0.02,-2.98 7.93461,7.7836 0 0 1 0,-10.81 1.97855,1.9409 -180 1 0 -2.9,-2.59 11.7013,11.4786 -180 0 0 -3.22,8.16 z" class="st2" id="path38" inkscape:connector-curvature="0" style="fill:#ffffff;stroke:none;stroke-width:39.06140137;stroke-linecap:butt" />
				</g>
			</g>
		</g>
	</g>
</svg>