<?xml version="1.0" encoding="UTF-8" standalone="no"?>
<!DOCTYPE svg PUBLIC "-//W3C//DTD SVG 1.1//EN" "http://www.w3.org/Graphics/SVG/1.1/DTD/svg11.dtd">
<!-- Generated by Microsoft Visio, SVG Export App Function.svg Page-1 -->
<svg xmlns="http://www.w3.org/2000/svg" xmlns:xlink="http://www.w3.org/1999/xlink" xmlns:ev="http://www.w3.org/2001/xml-events"
		width="1.64166in" height="1.95475in" viewBox="0 0 118.2 140.742" xml:space="preserve" color-interpolation-filters="sRGB"
		class="st5">
	<style type="text/css">
	<![CDATA[
		.st1 {fill:#0078d4;stroke:none;stroke-linecap:butt;stroke-width:30.7534}
		.st2 {fill:#5ea0ef;stroke:none;stroke-linecap:butt;stroke-width:30.7534}
		.st3 {fill:url(#grad0-10);stroke:none;stroke-linecap:butt;stroke-width:30.7534}
		.st4 {fill:#949494;stroke:none;stroke-linecap:butt;stroke-width:30.7534}
		.st5 {fill:none;fill-rule:evenodd;font-size:12px;overflow:visible;stroke-linecap:square;stroke-miterlimit:3}
	]]>
	</style>

	<defs id="Patterns_And_Gradients">
		<linearGradient id="grad0-10" x1="0" y1="0" x2="1" y2="0" gradientTransform="rotate(0 0.5 0.5)">
			<stop offset="0" stop-color="#0078d4" stop-opacity="1"/>
			<stop offset="0.38" stop-color="#2989e0" stop-opacity="1"/>
			<stop offset="0.785" stop-color="#4f9aeb" stop-opacity="1"/>
			<stop offset="1" stop-color="#5ea0ef" stop-opacity="1"/>
		</linearGradient>
	</defs>
	<g>
		<title>Page-1</title>
		<g id="group5202-1" transform="translate(30.7534,-64.6299)">
			<title>App Function</title>
			<g id="group5203-2">
				<title>g10</title>
				<g id="shape5204-3" transform="translate(30.0169,-9.20935)">
					<title>path2</title>
					<path d="M6.06 133.1 C6.21 133.7 6.33 134.28 6.48 134.85 C6.85 136.3 7.2 137.74 7.63 139.17 A2.09391 2.06481
								 -180 0 0 9.14 140.74 A2.20411 2.17348 -180 0 0 10.98 140.21 A11.5747 11.4139 -180 0 0 13.8 137.31
								 C14.06 136.93 14.27 136.53 14.52 136.12 L13.85 135.8 A9.188 9.06031 0 0 1 13.05 136.98 A11.7322
								 11.5691 0 0 1 11.46 138.43 C11.04 138.74 10.69 138.6 10.45 138.16 A4.18466 4.12651 0 0 1 10.06 137.16
								 C9.46 134.76 8.88 132.35 8.3 129.95 L7.93 128.39 C7.75 127.77 7.59 127.24 7.45 126.7 A8.40396 8.28717
								 -180 0 0 5.5 122.92 a0.503797 0.496796 -180 0 0 -0.525838 -0.164564 C3.51 123.02 2.03 123.27 0.57
								 123.53 C0 123.63 0 123.64 0.09 124.28 L0.43 124.28 C0.86 124.28 1.3 124.27 1.73 124.31 A2.85905
								 2.81931 0 0 1 4.44 126.71 C4.9 128.21 5.26 129.74 5.65 131.27 L6.06 133.1 Z" class="st1"/>
				</g>
				<g id="shape5205-5" transform="translate(27.0122,-9.20003)">
					<title>path4</title>
					<path d="M9.14 133.09 C8.29 134.41 7.51 135.73 6.63 136.97 A28.2221 27.8299 0 0 1 4.31 139.67 A3.62734 3.57693
								 0 0 1 2.27 140.74 A1.97111 1.94371 0 0 1 0.03 139.52 A1.47676 1.45623 0 0 1 0.48 137.93 A1.38544
								 1.36619 0 0 1 2.17 137.77 A9.13132 9.00442 0 0 1 3.06 138.39 C3.47 138.7 3.69 138.74 4.07 138.39
								 A10.1421 10.0011 -180 0 0 5.58 136.74 C6.65 135.16 7.64 133.54 8.64 131.92 L11.01 128.36 C11.2 128.1
								 11.35 127.9 11.49 127.69 A17.6329 17.3878 0 0 1 13.88 124.54 A6.64382 6.55149 0 0 1 16.42 122.81
								 A2.12225 2.09275 0 0 1 18.63 123.2 A1.53658 1.51523 0 0 1 18.96 124.91 A1.25949 1.24199 0 0 1 17.74
								 125.68 A2.65753 2.6206 0 0 1 16.51 125.49 A2.04982 2.02134 -180 0 0 13.83 126.19 C12.98 127.27 12.21
								 128.41 11.43 129.53 L9.14 133.09 Z" class="st2"/>
				</g>
				<g id="shape5206-7" transform="translate(8.71884,-8.21265)">
					<title>path6</title>
					<path d="M25.6 106.48 A3.41952 3.372 -180 0 0 23.44 105.88 A8.92351 8.79949 -180 0 0 18.99 107.2 A10.649 10.501
								 -180 0 0 15.24 110.79 A21.4429 21.1449 -180 0 0 12.96 116.71 L8.83 116.71 L8.66 117.4 L8.34 118.61
								 L8.05 119.75 L12.19 119.75 L8.96 132.54 A8.77552 8.65356 0 0 1 7.64 136.01 A2.51899 2.48398 0 0
								 1 5.82 136.53 A17.4944 17.2512 0 0 1 3.61 136.38 A10.6459 10.4979 -180 0 0 2.42 136.29 A2.6103 2.57402
								 -180 0 0 0.73 136.82 A1.96796 1.94061 -180 0 0 -0 138.38 A2.17892 2.14864 -180 0 0 0.94 140.14 A3.57066
								 3.52104 -180 0 0 3.15 140.74 A9.60678 9.47327 -180 0 0 9.81 137.95 A16.1813 15.9565 -180 0 0 14.12
								 129.98 L16.64 119.75 L21.3 119.75 L21.46 119.03 L21.74 117.82 L22 116.71 L17.42 116.71 L18.02 114.19
								 A11.0961 10.9419 0 0 1 19.37 110.74 C19.8 110.1 20.23 109.77 20.66 109.77 A5.66772 5.58895 0 0 1
								 21.77 109.92 A13.7285 13.5377 -180 0 0 24.25 110.29 A2.25134 2.22006 -180 0 0 25.84 109.7 A2.06872
								 2.03997 -180 0 0 26.49 108.19 A2.12854 2.09896 -180 0 0 25.6 106.48 ZM1.49 139.39 A1.45471 1.4345
								 0 0 1 1.07 138.92 A1.45471 1.4345 -180 0 0 1.49 139.39 A2.04668 2.01823 -180 0 0 2.29 139.73 A2.04668
								 2.01823 0 0 1 1.48 139.39 L1.49 139.39 Z" class="st3"/>
				</g>
				<g id="shape5207-11">
					<title>path8</title>
					<path d="M6.49 112.54 L6.49 101.12 C6.49 99.63 7.04 98.74 8.09 98.41 A1.55547 1.53386 -180 0 0 9.15 96.94 A1.57437
								 1.55249 -180 0 0 7.46 95.39 A6.00463 5.92118 -180 0 0 3.94 96.58 A6.15577 6.07022 -180 0 0 2.43
								 101.24 L2.43 112.89 C2.43 114.5 1.93 115.49 0.93 115.83 A1.28468 1.26683 -180 0 0 -0 117 L0 119.1
								 A1.28783 1.26993 -180 0 0 0.94 120.28 C1.95 120.62 2.45 121.6 2.45 123.22 L2.45 134.87 A6.15577
								 6.07022 -180 0 0 3.95 139.55 A6.00463 5.92118 -180 0 0 7.48 140.74 A1.57437 1.55249 -180 0 0 9.17
								 139.19 A1.55547 1.53386 -180 0 0 8.1 137.72 C7.05 137.39 6.5 136.5 6.5 135.01 L6.5 123.57 C6.5 120.94
								 5.81 119.18 4.07 118.5 C4.07 118.5 3.36 118.35 3.36 118.05 C3.36 117.71 4.24 117.46 4.24 117.46
								 C5.98 116.78 6.49 115.17 6.49 112.54 ZM50.19 112.54 L50.19 101.12 C50.19 99.63 49.64 98.74 48.59
								 98.41 A1.55547 1.53386 0 0 1 47.53 96.94 A1.57437 1.55249 0 0 1 49.22 95.39 A6.00463 5.92118 0 0
								 1 52.74 96.58 A6.15577 6.07022 0 0 1 54.25 101.26 L54.25 112.89 C54.25 114.5 54.75 115.49 55.75
								 115.83 A1.28468 1.26683 0 0 1 56.69 117 L56.69 119.1 A1.28783 1.26993 0 0 1 55.75 120.28 C54.75
								 120.62 54.25 121.6 54.25 123.22 L54.25 134.87 A6.15577 6.07022 0 0 1 52.74 139.55 A6.00463 5.92118
								 0 0 1 49.22 140.74 A1.57437 1.55249 0 0 1 47.53 139.19 A1.55547 1.53386 0 0 1 48.59 137.72 C49.64
								 137.39 50.19 136.5 50.19 135.01 L50.19 123.57 C50.19 120.94 50.89 119.18 52.62 118.5 C52.62 118.5
								 53.33 118.35 53.34 118.05 C53.34 117.71 52.45 117.46 52.45 117.46 C50.71 116.78 50.19 115.17 50.19
								 112.54 Z" class="st4"/>
				</g>
			</g>
		</g>
	</g>
</svg>
