<?xml version="1.0" encoding="UTF-8" standalone="no"?>
<!-- Generated by Microsoft Visio, SVG Export App Service Connector.svg Page-1 -->
<svg xmlns:dc="http://purl.org/dc/elements/1.1/" xmlns:cc="http://creativecommons.org/ns#" xmlns:rdf="http://www.w3.org/1999/02/22-rdf-syntax-ns#" xmlns:svg="http://www.w3.org/2000/svg" xmlns="http://www.w3.org/2000/svg" xmlns:sodipodi="http://sodipodi.sourceforge.net/DTD/sodipodi-0.dtd" xmlns:inkscape="http://www.inkscape.org/namespaces/inkscape" width="61.554528" height="63.582034" viewBox="0 0 61.554528 63.582034" xml:space="preserve" class="st8" version="1.1" id="svg65" sodipodi:docname="App Service Connector.svg" style="font-size:12px;overflow:visible;color-interpolation-filters:sRGB;fill:none;fill-rule:evenodd;stroke-linecap:square;stroke-miterlimit:3" inkscape:version="0.92.5 (2060ec1f9f, 2020-04-08)">
  <metadata id="metadata69">
    <rdf:RDF>
      <cc:Work rdf:about="">
        <dc:format>image/svg+xml</dc:format>
        <dc:type rdf:resource="http://purl.org/dc/dcmitype/StillImage" />
      </cc:Work>
    </rdf:RDF>
  </metadata>
  <sodipodi:namedview pagecolor="#ffffff" bordercolor="#666666" borderopacity="1" objecttolerance="10" gridtolerance="10" guidetolerance="10" inkscape:pageopacity="0" inkscape:pageshadow="2" inkscape:window-width="640" inkscape:window-height="480" id="namedview67" showgrid="false" inkscape:zoom="1.3450126" inkscape:cx="41.032326" inkscape:cy="42.381126" inkscape:window-x="0" inkscape:window-y="0" inkscape:window-maximized="0" inkscape:current-layer="svg65" />
	<style type="text/css" id="style2">
	<![CDATA[
		.st1 {fill:url(#grad0-6);stroke:none;stroke-linecap:butt;stroke-width:34}
		.st2 {fill:#b796f9;stroke:none;stroke-linecap:butt;stroke-width:34}
		.st3 {fill:url(#grad0-12);stroke:none;stroke-linecap:butt;stroke-width:34}
		.st4 {fill:#f2f2f2;stroke:none;stroke-linecap:butt;stroke-width:34}
		.st5 {fill:#32bedd;stroke:none;stroke-linecap:butt;stroke-width:34}
		.st6 {fill:#9cebff;stroke:none;stroke-linecap:butt;stroke-width:34}
		.st7 {fill:#50e6ff;stroke:none;stroke-linecap:butt;stroke-width:34}
		.st8 {fill:none;fill-rule:evenodd;font-size:12px;overflow:visible;stroke-linecap:square;stroke-miterlimit:3}
	]]>
	</style>

	<defs id="Patterns_And_Gradients">
		<linearGradient id="grad0-6" x1="-6.0005645" y1="84.494314" x2="41.975402" y2="84.494314" gradientTransform="scale(0.99688248,1.0031273)" gradientUnits="userSpaceOnUse">
			<stop offset="0" stop-color="#773adc" stop-opacity="1" id="stop4" />
			<stop offset="1" stop-color="#a67af4" stop-opacity="1" id="stop6" />
		</linearGradient>
		<linearGradient id="grad0-12" x1="-3.3504666" y1="109.79233" x2="21.387512" y2="109.79233" gradientTransform="scale(0.9968434,1.0031666)" gradientUnits="userSpaceOnUse">
			<stop offset="0" stop-color="#ffffff" stop-opacity="1" id="stop9" />
			<stop offset="0.995" stop-color="#ffffff" stop-opacity="1" id="stop11" />
		</linearGradient>
	</defs>
	<g id="g63" transform="translate(-34.002292,-34.002251)">
		<title id="title15">Page-1</title>
		<g id="group10346-1" transform="translate(38.8603,-34.0157)">
			<title id="title17">App Service Connector</title>
			<g id="group10347-2">
				<title id="title19">Sheet.10347</title>
				<g id="shape10348-3" transform="translate(1.12385,-16.7406)">
					<title id="title21">Sheet.10348</title>
					<path d="m 25.64,123.53 a 1.52896,1.53854 0 0 1 0.76,-1.33 l 14.22,-8.31 a 1.52539,1.53494 0 0 1 0.73,-0.2 23.9132,24.063 -180 1 0 -15.71,17.91 z" class="st1" id="path23" inkscape:connector-curvature="0" style="fill:url(#grad0-6);stroke:none;stroke-width:34;stroke-linecap:butt" />
				</g>
				<g id="shape10349-7" transform="translate(0,-21.4533)">
					<title id="title26">Sheet.10349</title>
					<path d="m 0,128.28 a 24.0132,24.1637 -180 0 0 3.49,3.32 l 5.94,-5.98 -3.39,-3.41 z" class="st2" id="path28" inkscape:connector-curvature="0" style="fill:#b796f9;stroke:none;stroke-width:34;stroke-linecap:butt" />
				</g>
				<g id="shape10350-9" transform="translate(7.075,-28.7398)">
					<title id="title31">Sheet.10350</title>
					<path d="m 0,115.39 a 11.387596,11.459006 -180 1 0 16.1,16.21 l 5.22,-5.26 -16.1,-16.2 z" class="st3" id="path33" inkscape:connector-curvature="0" style="fill:url(#grad0-12);stroke:none;stroke-width:34;stroke-linecap:butt" />
				</g>
				<g id="shape10351-13" transform="translate(18.1725,-40.0415)">
					<title id="title36">Sheet.10351</title>
					<path d="m 8.95,115.45 0.32,0.32 a 1.71472,1.72546 0 0 1 0,2.44 L 2.74,124.78 0,122.02 6.54,115.45 a 1.71472,1.72546 0 0 1 2.42,0 z m 6.78,6.81 0.31,0.32 a 1.71472,1.72546 0 0 1 0,2.44 l -6.54,6.58 -2.73,-2.76 6.53,-6.57 a 1.71472,1.72546 0 0 1 2.43,0 z" class="st4" id="path38" inkscape:connector-curvature="0" style="fill:#f2f2f2;stroke:none;stroke-width:34;stroke-linecap:butt" />
				</g>
				<g id="shape10352-15" transform="rotate(-45,-24.278443,79.20276)">
					<title id="title41">Sheet.10352</title>
					<path d="m 0,130.73 a 0.85738,0.862752 -180 0 0 0.85736,0.86273 L 4.19,131.6 a 0.85738,0.862752 -180 0 0 0.85736,-0.86273 L 5.05,105.13 A 0.85738,0.862752 -180 0 0 4.19264,104.26727 L 0.86,104.27 a 0.85738,0.862752 -180 0 0 -0.85736,0.86273 z" class="st2" id="path43" inkscape:connector-curvature="0" style="fill:#b796f9;stroke:none;stroke-width:34;stroke-linecap:butt" />
				</g>
				<g id="shape10353-17" transform="translate(42.4965)">
					<title id="title46">Sheet.10353</title>
					<path d="m 14.2,106.76 v 16.53 L 0,131.6 v -16.56 z" class="st5" id="path48" inkscape:connector-curvature="0" style="fill:#32bedd;stroke:none;stroke-width:34;stroke-linecap:butt" />
				</g>
				<g id="shape10354-19" transform="translate(28.2786,-16.5321)">
					<title id="title51">Sheet.10354</title>
					<path d="M 28.41,123.29 14.22,131.6 0,123.27 14.22,114.96 Z" class="st6" id="path53" inkscape:connector-curvature="0" style="fill:#9cebff;stroke:none;stroke-width:34;stroke-linecap:butt" />
				</g>
				<g id="shape10355-21" transform="translate(28.2786)">
					<title id="title56">Sheet.10355</title>
					<path d="M 14.22,115.06 V 131.6 L 0,123.29 v -16.55 z" class="st7" id="path58" inkscape:connector-curvature="0" style="fill:#50e6ff;stroke:none;stroke-width:34;stroke-linecap:butt" />
				</g>
			</g>
		</g>
	</g>
</svg>