<?xml version="1.0" encoding="UTF-8" standalone="no"?>
<!-- Generated by Microsoft Visio, SVG Export App Service WebJob.svg Page-1 -->

<svg
   xmlns:dc="http://purl.org/dc/elements/1.1/"
   xmlns:cc="http://creativecommons.org/ns#"
   xmlns:rdf="http://www.w3.org/1999/02/22-rdf-syntax-ns#"
   xmlns:svg="http://www.w3.org/2000/svg"
   xmlns="http://www.w3.org/2000/svg"
   xmlns:xlink="http://www.w3.org/1999/xlink"
   xmlns:sodipodi="http://sodipodi.sourceforge.net/DTD/sodipodi-0.dtd"
   xmlns:inkscape="http://www.inkscape.org/namespaces/inkscape"
   width="0.75462651in"
   height="0.7990191in"
   viewBox="0 0 54.333288 57.52943"
   xml:space="preserve"
   class="st11"
   version="1.1"
   id="svg116"
   sodipodi:docname="App Service WebJob.svg"
   style="font-size:12px;overflow:visible;color-interpolation-filters:sRGB;fill:none;fill-rule:evenodd;stroke-linecap:square;stroke-miterlimit:3"
   inkscape:version="0.92.5 (2060ec1f9f, 2020-04-08)"><metadata
   id="metadata120"><rdf:RDF><cc:Work
       rdf:about=""><dc:format>image/svg+xml</dc:format><dc:type
         rdf:resource="http://purl.org/dc/dcmitype/StillImage" /></cc:Work></rdf:RDF></metadata><sodipodi:namedview
   pagecolor="#ffffff"
   bordercolor="#666666"
   borderopacity="1"
   objecttolerance="10"
   gridtolerance="10"
   guidetolerance="10"
   inkscape:pageopacity="0"
   inkscape:pageshadow="2"
   inkscape:window-width="640"
   inkscape:window-height="480"
   id="namedview118"
   showgrid="false"
   inkscape:zoom="1.4095625"
   inkscape:cx="36.222797"
   inkscape:cy="38.358273"
   inkscape:window-x="0"
   inkscape:window-y="0"
   inkscape:window-maximized="0"
   inkscape:current-layer="svg116" />
	<style
   type="text/css"
   id="style2">
	<![CDATA[
		.st1 {fill:url(#grad7-6);stroke:none;stroke-linecap:butt;stroke-width:34}
		.st2 {fill:#ffffff;fill-opacity:0.6;stroke:none;stroke-linecap:butt;stroke-width:34}
		.st3 {fill:#f2f2f2;fill-opacity:0.55;stroke:none;stroke-linecap:butt;stroke-width:34}
		.st4 {fill:url(#grad0-14);stroke:none;stroke-linecap:butt;stroke-width:34}
		.st5 {fill:url(#grad0-20);stroke:none;stroke-linecap:butt;stroke-width:34}
		.st6 {fill:#f2f2f2;fill-opacity:0.7;stroke:none;stroke-linecap:butt;stroke-width:34}
		.st7 {fill:#f2f2f2;stroke:none;stroke-linecap:butt;stroke-width:34}
		.st8 {fill:url(#grad0-35);stroke:none;stroke-linecap:butt;stroke-width:34}
		.st9 {fill:#50e6ff;stroke:none;stroke-linecap:butt;stroke-width:34}
		.st10 {fill:#ffffff;stroke:none;stroke-linecap:butt;stroke-width:34}
		.st11 {fill:none;fill-rule:evenodd;font-size:12px;overflow:visible;stroke-linecap:square;stroke-miterlimit:3}
	]]>
	</style>

	<defs
   id="Patterns_And_Gradients">
		<radialGradient
   id="grad7-6"
   cx="-4.9382299"
   cy="82.459267"
   r="65.544531"
   gradientTransform="scale(0.99023128,1.0098651)"
   fx="-4.9382299"
   fy="82.459267"
   gradientUnits="userSpaceOnUse">
			<stop
   offset="0.185"
   stop-color="#5ea0ef"
   stop-opacity="1"
   id="stop4" />
			<stop
   offset="1"
   stop-color="#0078d4"
   stop-opacity="1"
   id="stop6" />
		</radialGradient>
		<linearGradient
   id="grad0-14"
   x1="0"
   y1="0"
   x2="1"
   y2="0"
   gradientTransform="rotate(-90.455522,0.5,0.5)">
			<stop
   offset="0"
   stop-color="#cccccc"
   stop-opacity="1"
   id="stop9" />
			<stop
   offset="0.125"
   stop-color="#d7d7d7"
   stop-opacity="1"
   id="stop11" />
			<stop
   offset="1"
   stop-color="#fcfcfc"
   stop-opacity="1"
   id="stop13" />
		</linearGradient>
		<linearGradient
   id="grad0-20"
   x1="0"
   y1="114.58845"
   x2="9.8199856"
   y2="114.58845"
   gradientTransform="scale(0.99074282,1.0093437)"
   gradientUnits="userSpaceOnUse">
			<stop
   offset="0"
   stop-color="#cccccc"
   stop-opacity="1"
   id="stop16" />
			<stop
   offset="0.125"
   stop-color="#d7d7d7"
   stop-opacity="1"
   id="stop18" />
			<stop
   offset="1"
   stop-color="#fcfcfc"
   stop-opacity="1"
   id="stop20" />
		</linearGradient>
		<linearGradient
   id="grad0-35"
   x1="0"
   y1="96.262763"
   x2="28.083654"
   y2="96.262763"
   gradientTransform="scale(0.99025577,1.0098401)"
   gradientUnits="userSpaceOnUse">
			<stop
   offset="0"
   stop-color="#32bedd"
   stop-opacity="1"
   id="stop23" />
			<stop
   offset="0.575"
   stop-color="#32ceef"
   stop-opacity="1"
   id="stop25" />
			<stop
   offset="1"
   stop-color="#32d4f5"
   stop-opacity="1"
   id="stop27" />
		</linearGradient>
	<linearGradient
   inkscape:collect="always"
   xlink:href="#grad0-14"
   id="linearGradient4630"
   gradientTransform="scale(0.99074253,1.009344)"
   x1="0"
   y1="109.29161"
   x2="15.117086"
   y2="109.29161"
   gradientUnits="userSpaceOnUse" /><linearGradient
   inkscape:collect="always"
   xlink:href="#grad0-14"
   id="linearGradient4632"
   gradientTransform="scale(0.99074253,1.009344)"
   x1="0"
   y1="109.29161"
   x2="15.117086"
   y2="109.29161"
   gradientUnits="userSpaceOnUse" /></defs>
	<g
   id="g114"
   transform="translate(-33.998813,-34.024883)">
		<title
   id="title31">Page-1</title>
		<g
   id="group9887-1"
   transform="translate(34.4735,-34.0157)">
			<title
   id="title33">App Service WebJob</title>
			<g
   id="group9888-2">
				<title
   id="title35">MsPortalFx.base.images-77</title>
				<g
   id="shape9889-3"
   transform="translate(4.41388,-15.2323)">
					<title
   id="title37">Sheet.9889</title>
					<path
   d="M 32.69,125.57 A 23.298567,23.735993 0 1 1 4.13,88.06 l 0.25,-0.18 a 23.2967,23.7341 0 0 1 28.31,37.69 z"
   class="st1"
   id="path39"
   inkscape:connector-curvature="0"
   style="fill:url(#grad7-6);stroke:none;stroke-width:34;stroke-linecap:butt" />
				</g>
				<g
   id="shape9890-7"
   transform="translate(2.66559,-17.6842)">
					<title
   id="title42">Sheet.9890</title>
					<path
   d="m 13.82,104.33 a 35.6754,36.3452 0 0 1 24.43,-10 22.9643,23.3955 -180 0 0 -4.07,-4.05 39.5875,40.3307 -180 0 0 -12.87,3.1 33.9686,34.6064 -180 0 0 -11.19,7.86 7.50455,7.64545 0 0 1 3.7,3.09 z m -11.53,9.53 a 51.8926,52.8669 -180 0 0 -2.29,7.33 24.6103,25.0724 -180 0 0 1.71,2.57 21.6763,22.0832 -180 0 0 1.51,1.81 48.901,49.8192 0 0 1 2.97,-9.69 7.45341,7.59335 0 0 1 -3.9,-2.02 z"
   class="st2"
   id="path44"
   inkscape:connector-curvature="0"
   style="fill:#ffffff;fill-opacity:0.6;stroke:none;stroke-width:34;stroke-linecap:butt" />
				</g>
				<g
   id="shape9891-9"
   transform="translate(2.71992,-39.6209)">
					<title
   id="title47">Sheet.9891</title>
					<path
   d="m 4.92,123.14 a 32.7253,33.3398 0 0 1 -1.89,-8.23 23.2584,23.695 -180 0 0 -3.03,4.07 36.3114,36.9932 -180 0 0 1.57,6.59 7.44702,7.58684 0 0 1 3.35,-2.43 z"
   class="st3"
   id="path49"
   inkscape:connector-curvature="0"
   style="fill:#f2f2f2;fill-opacity:0.55;stroke:none;stroke-width:34;stroke-linecap:butt" />
				</g>
				<g
   id="shape9892-11"
   transform="translate(2.66239,-27.2475)">
					<title
   id="title52">Sheet.9892</title>
					<ellipse
   cx="7.4885702"
   cy="117.942"
   rx="7.4885702"
   ry="7.6291699"
   class="st4"
   id="ellipse54"
   style="fill:url(#linearGradient4630);stroke:none;stroke-width:34;stroke-linecap:butt" />
				</g>
				<g
   id="shape9893-15"
   transform="translate(11.5253,-16.7985)">
					<title
   id="title57">Sheet.9893</title>
					<path
   d="m 9.54,121.42 a 4.84216,4.93307 0 0 1 1.47,-3.54 32.9427,33.5612 0 0 1 -6.92,-5.18 7.4662,7.60638 0 0 1 -4.09,2.28 32.6422,33.2551 -180 0 0 3.98,3.58 33.8792,34.5152 -180 0 0 5.61,3.48 4.47461,4.55862 0 0 1 -0.05,-0.62 z m 17.27,0.6 a 32.882,33.4993 0 0 1 -7.55,-0.9 c 0,0.1 0.01,0.2 0.01,0.3 a 4.84216,4.93307 0 0 1 -1.38,3.47 37.967,38.6799 -180 0 0 9.35,0.68 22.9643,23.3955 -180 0 0 3.15,-3.75 33.6139,34.245 0 0 1 -3.58,0.2 z"
   class="st3"
   id="path59"
   inkscape:connector-curvature="0"
   style="fill:#f2f2f2;fill-opacity:0.55;stroke:none;stroke-width:34;stroke-linecap:butt" />
				</g>
				<g
   id="shape9894-17"
   transform="translate(21.069,-15.991)">
					<title
   id="title62">Sheet.9894</title>
					<ellipse
   cx="4.8645401"
   cy="120.615"
   rx="4.8645401"
   ry="4.9558702"
   class="st5"
   id="ellipse64"
   style="fill:url(#grad0-20);stroke:none;stroke-width:34;stroke-linecap:butt" />
				</g>
				<g
   id="shape9895-21"
   transform="translate(12.9476,-34.1896)">
					<title
   id="title67">Sheet.9895</title>
					<path
   d="m 18.97,125.57 a 5.07548,5.17077 0 0 1 1.68,-2.76 69.2381,70.5381 0 0 1 -12.23,-11.59 46.587,47.4617 0 0 1 -5.44,-8.15 23.0986,23.5322 -180 0 0 -2.98,1.17 48.6166,49.5294 -180 0 0 5.85,8.89 72.2649,73.6217 -180 0 0 13.12,12.44 z"
   class="st6"
   id="path69"
   inkscape:connector-curvature="0"
   style="fill:#f2f2f2;fill-opacity:0.7;stroke:none;stroke-width:34;stroke-linecap:butt" />
				</g>
				<g
   id="shape9896-23"
   transform="translate(31.8528,-27.9736)">
					<title
   id="title72">Sheet.9896</title>
					<ellipse
   cx="5.16817"
   cy="120.306"
   rx="5.16817"
   ry="5.2652001"
   class="st7"
   id="ellipse74"
   style="fill:#f2f2f2;stroke:none;stroke-width:34;stroke-linecap:butt" />
				</g>
				<g
   id="shape9897-25"
   transform="translate(40.2587,-26.5832)">
					<title
   id="title77">Sheet.9897</title>
					<path
   d="M 5.44,122.46 C 5.12,122.3 4.87,122.16 4.56,121.99 L 4.48,121.95 C 4.21,121.8 3.94,121.65 3.67,121.5 L 3.52,121.42 2.79,121 2.61,120.9 C 2.32,120.73 2.03,120.57 1.75,120.39 A 4.90928,5.00145 0 0 1 0,122.98 c 0.34,0.2 0.68,0.4 1.03,0.6 l 0.23,0.13 0.95,0.54 0.1,0.05 c 0.77,0.42 1.55,0.85 2.36,1.27 a 22.715,23.1415 -180 0 0 0.78,-3.11 z"
   class="st3"
   id="path79"
   inkscape:connector-curvature="0"
   style="fill:#f2f2f2;fill-opacity:0.55;stroke:none;stroke-width:34;stroke-linecap:butt" />
				</g>
				<g
   id="shape9898-27"
   transform="translate(2.66239,-27.2475)">
					<title
   id="title82">Sheet.9898</title>
					<ellipse
   cx="7.4885702"
   cy="117.942"
   rx="7.4885702"
   ry="7.6291699"
   class="st4"
   id="ellipse84"
   style="fill:url(#linearGradient4632);stroke:none;stroke-width:34;stroke-linecap:butt" />
				</g>
				<g
   id="shape9899-30"
   transform="translate(21.069,-15.991)">
					<title
   id="title87">Sheet.9899</title>
					<ellipse
   cx="4.8645401"
   cy="120.615"
   rx="4.8645401"
   ry="4.9558702"
   class="st7"
   id="ellipse89"
   style="fill:#f2f2f2;stroke:none;stroke-width:34;stroke-linecap:butt" />
				</g>
				<g
   id="shape9900-32"
   transform="translate(26.0486,-6.51882)">
					<title
   id="title92">Sheet.9900</title>
					<path
   d="m 27.81,108.33 -1.01,-3.12 h -4.12 l -1.55,-1.84 0.5,-4.17 -2.87,-1.47 -0.35,0.37 -2.56,2.6 -2.38,-0.17 -2.56,-3.32 -3.06,1.03 -0.02,0.49 v 3.7 L 6.02,104.01 2,103.5 l -1.44,2.91 0.36,0.37 2.56,2.6 -0.17,2.42 -3.31,2.64 1.01,3.11 0.49,0.02 h 3.63 l 1.55,1.85 -0.5,4.17 2.87,1.46 0.35,-0.36 2.56,-2.61 2.38,0.17 2.55,3.32 3.07,-1.03 0.02,-0.49 v -3.7 l 1.8,-1.58 4.1,0.5 1.44,-2.91 -0.36,-0.37 -2.56,-2.6 0.17,-2.43 z m -11.95,9.05 a 6.20372,6.3202 0 1 1 3.94,-7.98 6.20052,6.31694 0 0 1 -3.94,7.98 z"
   class="st8"
   id="path94"
   inkscape:connector-curvature="0"
   style="fill:url(#grad0-35);stroke:none;stroke-width:34;stroke-linecap:butt" />
				</g>
				<g
   id="shape9901-36">
					<title
   id="title97">Sheet.9901</title>
					<path
   d="m 22.26,115.43 v -2.59 l -0.36,-0.13 -2.72,-0.91 -0.71,-1.75 1.38,-3 -1.79,-1.83 -0.36,0.19 -2.53,1.3 -1.74,-0.73 -1.1,-3.1 H 9.79 l -0.13,0.36 -0.89,2.77 -1.74,0.73 -2.89,-1.41 -1.78,1.81 0.17,0.37 1.28,2.58 -0.71,1.77 -3.1,1.12 v 2.6 l 0.35,0.14 2.72,0.91 0.71,1.76 -1.38,3 1.78,1.81 0.36,-0.18 2.54,-1.3 1.73,0.72 1.12,3.13 h 2.53 l 0.14,-0.36 0.89,-2.77 1.73,-0.72 2.94,1.4 1.78,-1.81 -0.18,-0.37 -1.27,-2.58 0.71,-1.77 z m -11.13,3.75 a 4.88691,4.97866 0 1 1 4.88,-4.98 4.88371,4.9754 0 0 1 -4.88,4.98 z"
   class="st9"
   id="path99"
   inkscape:connector-curvature="0"
   style="fill:#50e6ff;stroke:none;stroke-width:34;stroke-linecap:butt" />
				</g>
				<g
   id="shape9902-38"
   transform="translate(33.7545,-14.3922)">
					<title
   id="title102">Sheet.9902</title>
					<ellipse
   cx="6.2037201"
   cy="119.251"
   rx="6.2037201"
   ry="6.3202"
   class="st10"
   id="ellipse104"
   style="fill:#ffffff;stroke:none;stroke-width:34;stroke-linecap:butt" />
				</g>
				<g
   id="shape9903-40"
   transform="translate(6.24527,-6.39183)">
					<title
   id="title107">Sheet.9903</title>
					<ellipse
   cx="4.8837099"
   cy="120.596"
   rx="4.8837099"
   ry="4.9754"
   class="st10"
   id="ellipse109"
   style="fill:#ffffff;stroke:none;stroke-width:34;stroke-linecap:butt" />
				</g>
			</g>
		</g>
	</g>
</svg>