<?xml version="1.0" encoding="UTF-8" standalone="no"?>
<!DOCTYPE svg PUBLIC "-//W3C//DTD SVG 1.1//EN" "http://www.w3.org/Graphics/SVG/1.1/DTD/svg11.dtd">
<!-- Generated by Microsoft Visio, SVG Export App Task.svg Page-1 -->
<svg xmlns="http://www.w3.org/2000/svg" xmlns:xlink="http://www.w3.org/1999/xlink" xmlns:ev="http://www.w3.org/2001/xml-events"
		width="1.66472in" height="2.21031in" viewBox="0 0 119.86 159.142" xml:space="preserve" color-interpolation-filters="sRGB"
		class="st5">
	<style type="text/css">
	<![CDATA[
		.st1 {fill:#50e6ff;stroke:none;stroke-linecap:butt;stroke-width:31.5833}
		.st2 {fill:#0078d4;stroke:none;stroke-linecap:butt;stroke-width:31.5833}
		.st3 {fill:#ffffff;stroke:none;stroke-linecap:butt;stroke-width:31.5833}
		.st4 {fill:url(#grad0-12);stroke:none;stroke-linecap:butt;stroke-width:31.5833}
		.st5 {fill:none;fill-rule:evenodd;font-size:12px;overflow:visible;stroke-linecap:square;stroke-miterlimit:3}
	]]>
	</style>

	<defs id="Patterns_And_Gradients">
		<linearGradient id="grad0-12" x1="0" y1="0" x2="1" y2="0" gradientTransform="rotate(-90 0.5 0.5)">
			<stop offset="0" stop-color="#76bc2d" stop-opacity="1"/>
			<stop offset="0.6" stop-color="#81ce31" stop-opacity="1"/>
			<stop offset="0.82" stop-color="#86d633" stop-opacity="1"/>
		</linearGradient>
	</defs>
	<g>
		<title>Page-1</title>
		<g id="group5138-1" transform="translate(31.5833,-70.8661)">
			<title>App Task</title>
			<g id="group5139-2">
				<title>MsPortalFx.base.images-46</title>
				<g id="shape5140-3" transform="translate(5.39025,-14.8661)">
					<title>path4</title>
					<path d="M43.98 142.1 L26.35 142.1 a0.946281 0.922835 0 0 1 -0.946281 -0.922835 L25.41 134.61 L20.67 134.61 L20.67
								 141.17 a0.949511 0.925984 0 0 1 -0.946281 0.922835 L1.9 142.1 A1.89579 1.84882 -180 0 0 -0 143.95
								 L0 152.45 L4.73 152.45 L4.73 147.73 a0.949511 0.925984 0 0 1 0.949511 -0.922835 L20.67 146.8 L20.67
								 159.14 L25.41 159.14 L25.41 146.82 L40.19 146.82 a0.946281 0.922835 0 0 1 0.946281 0.922835 L41.14
								 152.56 L45.89 152.56 L45.89 143.95 A1.89579 1.84882 -180 0 0 43.98 142.1 Z" class="st1"/>
				</g>
				<g id="shape5141-5" transform="translate(18.7512,-38.1701)">
					<title>rect6</title>
					<path d="M0 157.47 A1.7182 1.67563 -180 0 0 1.72 159.14 L17.28 159.14 A1.7182 1.67563 -180 0 0 18.99 157.47 L18.99
								 142.3 A1.7182 1.67563 -180 0 0 17.28 140.62 L1.72 140.62 A1.7182 1.67563 -180 0 0 -0 142.3 L0 157.47
								 Z" class="st2"/>
				</g>
				<g id="shape5142-7" transform="translate(22.3975,-41.726)">
					<title>rect8</title>
					<path d="M-0 158.11 A1.05934 1.03309 -180 0 0 1.06 159.14 L10.64 159.14 A1.05934 1.03309 -180 0 0 11.7 158.11
								 L11.7 148.77 A1.05934 1.03309 -180 0 0 10.64 147.73 L1.06 147.73 A1.05934 1.03309 -180 0 0 -0 148.77
								 L0 158.11 Z" class="st3"/>
				</g>
				<g id="shape5143-9" transform="translate(0,-6.39685)">
					<title>rect10</title>
					<path d="M0 157.77 A1.40492 1.37011 -180 0 0 1.4 159.14 L14.1 159.14 A1.40492 1.37011 -180 0 0 15.51 157.77 L15.51
								 145.39 A1.40492 1.37011 -180 0 0 14.1 144.02 L1.4 144.02 A1.40492 1.37011 -180 0 0 0 145.39 L0 157.77
								 Z" class="st4"/>
				</g>
				<g id="shape5144-13" transform="translate(20.6729,0)">
					<title>rect12</title>
					<path d="M0 157.77 A1.40492 1.37011 -180 0 0 1.4 159.14 L14.1 159.14 A1.40492 1.37011 -180 0 0 15.51 157.77 L15.51
								 145.39 A1.40492 1.37011 -180 0 0 14.1 144.02 L1.4 144.02 A1.40492 1.37011 -180 0 0 0 145.39 L0 157.77
								 Z" class="st4"/>
				</g>
				<g id="shape5145-16" transform="translate(41.1842,-6.29606)">
					<title>rect14</title>
					<path d="M0 157.77 A1.40492 1.37011 -180 0 0 1.4 159.14 L14.1 159.14 A1.40492 1.37011 -180 0 0 15.51 157.77 L15.51
								 145.39 A1.40492 1.37011 -180 0 0 14.1 144.02 L1.4 144.02 A1.40492 1.37011 -180 0 0 0 145.39 L0 157.77
								 Z" class="st4"/>
				</g>
			</g>
		</g>
	</g>
</svg>
