<?xml version="1.0" encoding="UTF-8" standalone="no"?>
<!DOCTYPE svg PUBLIC "-//W3C//DTD SVG 1.1//EN" "http://www.w3.org/Graphics/SVG/1.1/DTD/svg11.dtd">
<!-- Generated by Microsoft Visio, SVG Export App Service Editor.svg Page-1 -->
<svg xmlns="http://www.w3.org/2000/svg" xmlns:xlink="http://www.w3.org/1999/xlink" xmlns:ev="http://www.w3.org/2001/xml-events"
		width="1.66573in" height="1.85237in" viewBox="0 0 119.933 133.371" xml:space="preserve" color-interpolation-filters="sRGB"
		class="st5">
	<style type="text/css">
	<![CDATA[
		.st1 {fill:url(#grad0-6);stroke:none;stroke-linecap:butt;stroke-width:32.3169}
		.st2 {fill:#50e6ff;stroke:none;stroke-linecap:butt;stroke-width:32.3169}
		.st3 {fill:url(#grad0-12);stroke:none;stroke-linecap:butt;stroke-width:32.3169}
		.st4 {fill:url(#grad0-18);stroke:none;stroke-linecap:butt;stroke-width:32.3169}
		.st5 {fill:none;fill-rule:evenodd;font-size:12px;overflow:visible;stroke-linecap:square;stroke-miterlimit:3}
	]]>
	</style>

	<defs id="Patterns_And_Gradients">
		<linearGradient id="grad0-6" x1="0" y1="0" x2="1" y2="0" gradientTransform="rotate(145.74015247583 0.5 0.5)">
			<stop offset="0" stop-color="#0078d4" stop-opacity="1"/>
			<stop offset="0.325" stop-color="#1b84dc" stop-opacity="1"/>
			<stop offset="1" stop-color="#5ea0ef" stop-opacity="1"/>
		</linearGradient>
		<linearGradient id="grad0-12" x1="0" y1="0" x2="1" y2="0" gradientTransform="rotate(235.94706667981 0.5 0.5)">
			<stop offset="0" stop-color="#0078d4" stop-opacity="1"/>
			<stop offset="0.325" stop-color="#1b84dc" stop-opacity="1"/>
			<stop offset="1" stop-color="#5ea0ef" stop-opacity="1"/>
		</linearGradient>
		<linearGradient id="grad0-18" x1="0" y1="0" x2="1" y2="0" gradientTransform="rotate(-40.067755307994 0.5 0.5)">
			<stop offset="0" stop-color="#0078d4" stop-opacity="1"/>
			<stop offset="0.325" stop-color="#1b84dc" stop-opacity="1"/>
			<stop offset="1" stop-color="#5ea0ef" stop-opacity="1"/>
		</linearGradient>
	</defs>
	<g>
		<title>Page-1</title>
		<g id="group5152-1" transform="translate(31.633,-61.5118)">
			<title>App Service Editor</title>
			<g id="group5153-2">
				<title>g12</title>
				<g id="shape5154-3" transform="translate(-79.0191,34.6514) rotate(-44.919)">
					<title>path2</title>
					<path d="M1.69 112.09 L4.32 112.09 L4.32 132.54 a0.842785 0.828593 0 0 1 -0.842785 0.828593 L0.84 133.37 a0.842785
								 0.828593 0 0 1 -0.842785 -0.828593 L0 113.75 A1.68557 1.65719 0 0 1 1.69 112.09 Z" class="st1"/>
				</g>
				<g id="shape5155-7" transform="translate(0.68383,-16.3663)">
					<title>path4</title>
					<path d="M2.35 133.37 L0.49 131.53 A1.68557 1.65719 0 0 1 0.49 129.19 L14.25 115.71 a0.842785 0.828593 0 0 1
								 1.1911 2.84217E-14 L17.31 117.54 a0.842785 0.828593 0 0 1 7.10543E-15 1.17104 L2.35 133.37 L2.35
								 133.37 Z" class="st2"/>
				</g>
				<g id="shape5156-9" transform="translate(-37.6098,208.464) rotate(-135.081)">
					<title>path6</title>
					<path d="M0.84 112.09 L3.48 112.09 a0.842785 0.828593 0 0 1 0.842785 0.828593 L4.32 133.37 L1.69 133.37 A1.68557
								 1.65719 0 0 1 0 131.71 L0 112.92 a0.842785 0.828593 0 0 1 0.842785 -0.828593 Z" class="st3"/>
				</g>
				<g id="shape5157-13" transform="translate(38.4436,-16.3541)">
					<title>path8</title>
					<path d="M0.24 117.54 L2.1 115.71 a0.842785 0.828593 0 0 1 1.1911 0 L17.04 129.19 A1.68557 1.65719 0 0 1 17.04
								 131.54 L15.19 133.37 L0.25 118.73 a0.842785 0.828593 0 0 1 -1.65423E-14 -1.17409 L0.24 117.54 Z"
							class="st2"/>
				</g>
				<g id="shape5158-15" transform="translate(61.0556,5.04259) rotate(17.752)">
					<title>rect10</title>
					<path d="M0 132.78 a0.600226 0.590119 -180 0 0 0.600212 0.590105 L3.73 133.37 a0.600226 0.590119 -180 0 0 0.600212
								 -0.590105 L4.33 93.65 a0.600226 0.590119 -180 0 0 -0.600212 -0.590105 L0.6 93.06 a0.600226 0.590119
								 -180 0 0 -0.600212 0.590105 L0 132.78 Z" class="st4"/>
				</g>
			</g>
		</g>
	</g>
</svg>
