<?xml version="1.0" encoding="UTF-8" standalone="no"?>
<!DOCTYPE svg PUBLIC "-//W3C//DTD SVG 1.1//EN" "http://www.w3.org/Graphics/SVG/1.1/DTD/svg11.dtd">
<!-- Generated by Microsoft Visio, SVG Export App Metric.svg Page-1 -->
<svg xmlns="http://www.w3.org/2000/svg" xmlns:xlink="http://www.w3.org/1999/xlink" xmlns:ev="http://www.w3.org/2001/xml-events"
		width="1.69248in" height="2.24388in" viewBox="0 0 121.858 161.559" xml:space="preserve" color-interpolation-filters="sRGB"
		class="st5">
	<style type="text/css">
	<![CDATA[
		.st1 {fill:#b796f9;stroke:none;stroke-linecap:butt;stroke-width:34}
		.st2 {fill:#0078d4;stroke:none;stroke-linecap:butt;stroke-width:34}
		.st3 {fill:#005ba1;stroke:none;stroke-linecap:butt;stroke-width:34}
		.st4 {fill:#5ea0ef;stroke:none;stroke-linecap:butt;stroke-width:34}
		.st5 {fill:none;fill-rule:evenodd;font-size:12px;overflow:visible;stroke-linecap:square;stroke-miterlimit:3}
	]]>
	</style>

	<g>
		<title>Page-1</title>
		<g id="group5188-1" transform="translate(34,-70.8661)">
			<title>App Metric</title>
			<g id="group5189-2">
				<title>Sheet.5189</title>
				<g id="shape5190-3" transform="translate(2.1893,-23.6476)">
					<title>Sheet.5190</title>
					<path d="M45.38 128.51 L30.97 153.86 L15.74 138.51 L0 158.63 L3.72 161.49 L16.16 145.59 L32 161.56 L49.48 130.81
								 L45.38 128.51 Z" class="st1"/>
				</g>
				<g id="shape5191-5" transform="translate(14.8518,-2.84217E-13)">
					<title>Sheet.5191</title>
					<path d="M0 160.55 A1.02242 1.01048 -180 0 0 1.02 161.56 L8.28 161.56 A1.02242 1.01048 -180 0 0 9.31 160.55 L9.31
								 135.5 A1.02242 1.01048 -180 0 0 8.28 134.49 L1.02 134.49 A1.02242 1.01048 -180 0 0 0 135.5 L0 160.55
								 Z" class="st2"/>
				</g>
				<g id="shape5192-7" transform="translate(29.7001,2.84217E-13)">
					<title>Sheet.5192</title>
					<path d="M0 160.55 A1.02242 1.01048 -180 0 0 1.02 161.56 L8.28 161.56 A1.02242 1.01048 -180 0 0 9.31 160.55 L9.31
								 144.87 A1.02242 1.01048 -180 0 0 8.28 143.86 L1.02 143.86 A1.02242 1.01048 -180 0 0 -0 144.87 L0
								 160.55 Z" class="st3"/>
				</g>
				<g id="shape5193-9" transform="translate(44.5519,0)">
					<title>Sheet.5193</title>
					<path d="M0 160.55 A1.02242 1.01048 -180 0 0 1.02 161.56 L8.28 161.56 A1.02242 1.01048 -180 0 0 9.31 160.55 L9.31
								 126.44 A1.02242 1.01048 -180 0 0 8.28 125.43 L1.02 125.43 A1.02242 1.01048 -180 0 0 0 126.44 L0
								 160.55 Z" class="st3"/>
				</g>
				<g id="shape5194-11">
					<title>Sheet.5194</title>
					<path d="M0 160.55 A1.02242 1.01048 -180 0 0 1.02 161.56 L8.28 161.56 A1.02242 1.01048 -180 0 0 9.31 160.55 L9.31
								 144.87 A1.02242 1.01048 -180 0 0 8.28 143.86 L1.02 143.86 A1.02242 1.01048 -180 0 0 -0 144.87 L0
								 160.55 Z" class="st4"/>
				</g>
			</g>
		</g>
	</g>
</svg>
