<?xml version="1.0" encoding="UTF-8" standalone="no"?>
<!DOCTYPE svg PUBLIC "-//W3C//DTD SVG 1.1//EN" "http://www.w3.org/Graphics/SVG/1.1/DTD/svg11.dtd">
<!-- Generated by Microsoft Visio, SVG Export App Metric.svg Page-1 -->
<svg xmlns="http://www.w3.org/2000/svg" xmlns:xlink="http://www.w3.org/1999/xlink" xmlns:ev="http://www.w3.org/2001/xml-events"
		width="1.69248in" height="1.73206in" viewBox="0 0 121.858 124.709" xml:space="preserve" color-interpolation-filters="sRGB"
		class="st5">
	<style type="text/css">
	<![CDATA[
		.st1 {fill:#b796f9;stroke:none;stroke-linecap:butt;stroke-width:34}
		.st2 {fill:#0078d4;stroke:none;stroke-linecap:butt;stroke-width:34}
		.st3 {fill:#005ba1;stroke:none;stroke-linecap:butt;stroke-width:34}
		.st4 {fill:#5ea0ef;stroke:none;stroke-linecap:butt;stroke-width:34}
		.st5 {fill:none;fill-rule:evenodd;font-size:12px;overflow:visible;stroke-linecap:square;stroke-miterlimit:3}
	]]>
	</style>

	<g>
		<title>Page-1</title>
		<g id="group5531-1" transform="translate(34,-34.0157)">
			<title>App Metric</title>
			<g id="group5532-2">
				<title>Sheet.5532</title>
				<g id="shape5533-3" transform="translate(2.1893,-23.6476)">
					<title>Sheet.5533</title>
					<path d="M45.38 91.66 L30.97 117.01 L15.74 101.66 L0 121.78 L3.72 124.64 L16.16 108.74 L32 124.71 L49.48 93.96
								 L45.38 91.66 Z" class="st1"/>
				</g>
				<g id="shape5534-5" transform="translate(14.8518,-2.70006E-13)">
					<title>Sheet.5534</title>
					<path d="M0 123.7 A1.02242 1.01048 -180 0 0 1.02 124.71 L8.28 124.71 A1.02242 1.01048 -180 0 0 9.31 123.7 L9.31
								 98.65 A1.02242 1.01048 -180 0 0 8.28 97.64 L1.02 97.64 A1.02242 1.01048 -180 0 0 0 98.65 L0 123.7
								 Z" class="st2"/>
				</g>
				<g id="shape5535-7" transform="translate(29.7001,2.98428E-13)">
					<title>Sheet.5535</title>
					<path d="M0 123.7 A1.02242 1.01048 -180 0 0 1.02 124.71 L8.28 124.71 A1.02242 1.01048 -180 0 0 9.31 123.7 L9.31
								 108.02 A1.02242 1.01048 -180 0 0 8.28 107.01 L1.02 107.01 A1.02242 1.01048 -180 0 0 -0 108.02 L0
								 123.7 Z" class="st3"/>
				</g>
				<g id="shape5536-9" transform="translate(44.5519,1.42109E-14)">
					<title>Sheet.5536</title>
					<path d="M0 123.7 A1.02242 1.01048 -180 0 0 1.02 124.71 L8.28 124.71 A1.02242 1.01048 -180 0 0 9.31 123.7 L9.31
								 89.59 A1.02242 1.01048 -180 0 0 8.28 88.58 L1.02 88.58 A1.02242 1.01048 -180 0 0 0 89.59 L0 123.7
								 Z" class="st3"/>
				</g>
				<g id="shape5537-11">
					<title>Sheet.5537</title>
					<path d="M0 123.7 A1.02242 1.01048 -180 0 0 1.02 124.71 L8.28 124.71 A1.02242 1.01048 -180 0 0 9.31 123.7 L9.31
								 108.02 A1.02242 1.01048 -180 0 0 8.28 107.01 L1.02 107.01 A1.02242 1.01048 -180 0 0 -0 108.02 L0
								 123.7 Z" class="st4"/>
				</g>
			</g>
		</g>
	</g>
</svg>
