<?xml version="1.0" encoding="UTF-8" standalone="no"?>
<!-- Generated by Microsoft Visio, SVG Export Application Project Operations.svg Page-1 -->
<svg xmlns:dc="http://purl.org/dc/elements/1.1/" xmlns:cc="http://creativecommons.org/ns#" xmlns:rdf="http://www.w3.org/1999/02/22-rdf-syntax-ns#" xmlns:svg="http://www.w3.org/2000/svg" xmlns="http://www.w3.org/2000/svg" xmlns:sodipodi="http://sodipodi.sourceforge.net/DTD/sodipodi-0.dtd" xmlns:inkscape="http://www.inkscape.org/namespaces/inkscape" width="53.726332" height="56.698898" viewBox="0 0 53.726332 56.698898" xml:space="preserve" class="st6" version="1.1" id="svg68" sodipodi:docname="Application Project Operations.svg" style="font-size:12px;overflow:visible;color-interpolation-filters:sRGB;fill:none;fill-rule:evenodd;stroke-linecap:square;stroke-miterlimit:3" inkscape:version="0.92.5 (2060ec1f9f, 2020-04-08)">
  <metadata id="metadata72">
    <rdf:RDF>
      <cc:Work rdf:about="">
        <dc:format>image/svg+xml</dc:format>
        <dc:type rdf:resource="http://purl.org/dc/dcmitype/StillImage" />
      </cc:Work>
    </rdf:RDF>
  </metadata>
  <sodipodi:namedview pagecolor="#ffffff" bordercolor="#666666" borderopacity="1" objecttolerance="10" gridtolerance="10" guidetolerance="10" inkscape:pageopacity="0" inkscape:pageshadow="2" inkscape:window-width="640" inkscape:window-height="480" id="namedview70" showgrid="false" inkscape:zoom="1.8365233" inkscape:cx="35.905404" inkscape:cy="18.900351" inkscape:window-x="0" inkscape:window-y="0" inkscape:window-maximized="0" inkscape:current-layer="svg68" />
	<style type="text/css" id="style2">
	<![CDATA[
		.st1 {fill:url(#grad0-7);stroke:none;stroke-linecap:butt;stroke-width:0.75}
		.st2 {fill:#000000;fill-opacity:0.24;stroke:none;stroke-linecap:butt;stroke-width:0.75}
		.st3 {fill:#000000;fill-opacity:0.32;stroke:none;stroke-linecap:butt;stroke-width:0.75}
		.st4 {fill:url(#grad0-15);stroke:none;stroke-linecap:butt;stroke-width:0.75}
		.st5 {fill:url(#grad0-23);stroke:none;stroke-linecap:butt;stroke-width:0.75}
		.st6 {fill:none;fill-rule:evenodd;font-size:12px;overflow:visible;stroke-linecap:square;stroke-miterlimit:3}
	]]>
	</style>

	<defs id="Patterns_And_Gradients">
		<linearGradient id="grad0-7" x1="0" y1="34.923065" x2="47.171691" y2="34.923065" gradientTransform="scale(0.85178206,1.1740092)" gradientUnits="userSpaceOnUse">
			<stop offset="0" stop-color="#922717" stop-opacity="1" id="stop4" />
			<stop offset="1" stop-color="#d83b01" stop-opacity="1" id="stop6" />
		</linearGradient>
		<linearGradient id="grad0-15" x1="0" y1="34.923065" x2="47.171691" y2="34.923065" gradientTransform="scale(0.85178206,1.1740092)" gradientUnits="userSpaceOnUse">
			<stop offset="0" stop-color="#f69b63" stop-opacity="1" id="stop9" />
			<stop offset="1" stop-color="#d83b01" stop-opacity="1" id="stop11" />
		</linearGradient>
		<linearGradient id="grad0-23" x1="0" y1="28.434395" x2="38.407239" y2="28.434395" gradientTransform="scale(0.69352184,1.4419157)" gradientUnits="userSpaceOnUse">
			<stop offset="0" stop-color="#f69b63" stop-opacity="1" id="stop14" />
			<stop offset="1" stop-color="#ffb685" stop-opacity="1" id="stop16" />
		</linearGradient>
	</defs>
	<g id="g66" transform="translate(-5.3859292,-5.6654)">
		<title id="title20">Page-1</title>
		<g id="group9727-1" transform="translate(5.38583,-34.0157)">
			<title id="title22">Application Project Operations</title>
			<g id="group9728-2">
				<title id="title24">Sheet.9728</title>
				<g id="group9729-3">
					<title id="title26">Sheet.9729</title>
					<g id="shape9730-4" transform="translate(13.5465,-1.3189)">
						<title id="title28">Sheet.9730</title>
						<path d="M 0,43.65 C 0,42.19 1.15,41 2.57,41 h 19.87 c 0.89,0 1.71,0.48 2.18,1.25 l 15.17,25.04 c 0.52,0.86 0.52,1.94 0,2.8 L 24.68,95.13 c -0.47,0.77 -1.29,1.25 -2.18,1.25 H 2.57 C 1.15,96.38 0,95.19 0,93.73 Z" class="st1" id="path30" inkscape:connector-curvature="0" style="fill:url(#grad0-7);stroke:none;stroke-width:0.75;stroke-linecap:butt" />
					</g>
					<g id="shape9731-8" transform="translate(0,-1.06831)">
						<title id="title33">Sheet.9731</title>
						<path d="M 0,43.65 C 0,42.19 1.15,41 2.57,41 h 21.3 l 15.92,26.29 c 0.52,0.86 0.52,1.94 0,2.8 L 23.93,96.38 H 2.57 C 1.15,96.38 0,95.19 0,93.73 Z" class="st2" id="path35" inkscape:connector-curvature="0" style="fill:#000000;fill-opacity:0.23999999;stroke:none;stroke-width:0.75;stroke-linecap:butt" />
					</g>
					<g id="shape9732-10">
						<title id="title38">Sheet.9732</title>
						<path d="M 0,43.65 C 0,42.19 1.15,41 2.57,41 h 21.3 l 15.92,26.29 c 0.52,0.86 0.52,1.94 0,2.8 L 23.93,96.38 H 2.57 C 1.15,96.38 0,95.19 0,93.73 Z" class="st3" id="path40" inkscape:connector-curvature="0" style="fill:#000000;fill-opacity:0.31999996;stroke:none;stroke-width:0.75;stroke-linecap:butt" />
					</g>
					<g id="shape9733-12" transform="translate(0,-1.3189)">
						<title id="title43">Sheet.9733</title>
						<path d="M 0,43.65 C 0,42.19 1.15,41 2.57,41 h 21.3 l 15.92,26.29 c 0.52,0.86 0.52,1.94 0,2.8 L 23.93,96.38 H 2.57 C 1.15,96.38 0,95.19 0,93.73 Z" class="st4" id="path45" inkscape:connector-curvature="0" style="fill:url(#grad0-15);stroke:none;stroke-width:0.75;stroke-linecap:butt" />
					</g>
					<g id="shape9734-16">
						<title id="title48">Sheet.9734</title>
						<path d="M 0,43.65 C 0,42.19 1.15,41 2.57,41 h 7.75 l 15.93,26.29 c 0.51,0.86 0.52,1.94 0,2.8 L 10.38,96.38 H 2.57 C 1.15,96.38 0,95.19 0,93.73 Z" class="st3" id="path50" inkscape:connector-curvature="0" style="fill:#000000;fill-opacity:0.31999996;stroke:none;stroke-width:0.75;stroke-linecap:butt" />
					</g>
					<g id="shape9735-18" transform="translate(0,-1.06831)">
						<title id="title53">Sheet.9735</title>
						<path d="M 0,43.65 C 0,42.19 1.15,41 2.57,41 h 7.75 l 15.93,26.29 c 0.51,0.86 0.52,1.94 0,2.8 L 10.38,96.38 H 2.57 C 1.15,96.38 0,95.19 0,93.73 Z" class="st2" id="path55" inkscape:connector-curvature="0" style="fill:#000000;fill-opacity:0.23999999;stroke:none;stroke-width:0.75;stroke-linecap:butt" />
					</g>
					<g id="shape9736-20" transform="translate(0,-1.3189)">
						<title id="title58">Sheet.9736</title>
						<path d="M 0,43.65 C 0,42.19 1.15,41 2.57,41 h 7.75 l 15.93,26.29 c 0.51,0.86 0.52,1.94 0,2.8 L 10.38,96.38 H 2.57 C 1.15,96.38 0,95.19 0,93.73 Z" class="st5" id="path60" inkscape:connector-curvature="0" style="fill:url(#grad0-23);stroke:none;stroke-width:0.75;stroke-linecap:butt" />
					</g>
				</g>
			</g>
		</g>
	</g>
</svg>