<?xml version="1.0" encoding="UTF-8" standalone="no"?>
<!-- Generated by Microsoft Visio, SVG Export Application Security Group.svg Page-1 -->

<svg
   xmlns:dc="http://purl.org/dc/elements/1.1/"
   xmlns:cc="http://creativecommons.org/ns#"
   xmlns:rdf="http://www.w3.org/1999/02/22-rdf-syntax-ns#"
   xmlns:svg="http://www.w3.org/2000/svg"
   xmlns="http://www.w3.org/2000/svg"
   xmlns:sodipodi="http://sodipodi.sourceforge.net/DTD/sodipodi-0.dtd"
   xmlns:inkscape="http://www.inkscape.org/namespaces/inkscape"
   width="0.62985766in"
   height="0.78740102in"
   viewBox="0 0 45.349495 56.693184"
   xml:space="preserve"
   class="st11"
   version="1.1"
   id="svg70"
   sodipodi:docname="Application Security Group.svg"
   style="font-size:12px;overflow:visible;color-interpolation-filters:sRGB;fill:none;fill-rule:evenodd;stroke-linecap:square;stroke-miterlimit:3"
   inkscape:version="0.92.5 (2060ec1f9f, 2020-04-08)"><metadata
   id="metadata74"><rdf:RDF><cc:Work
       rdf:about=""><dc:format>image/svg+xml</dc:format><dc:type
         rdf:resource="http://purl.org/dc/dcmitype/StillImage" /></cc:Work></rdf:RDF></metadata><sodipodi:namedview
   pagecolor="#ffffff"
   bordercolor="#666666"
   borderopacity="1"
   objecttolerance="10"
   gridtolerance="10"
   guidetolerance="10"
   inkscape:pageopacity="0"
   inkscape:pageshadow="2"
   inkscape:window-width="640"
   inkscape:window-height="480"
   id="namedview72"
   showgrid="false"
   inkscape:zoom="1.4193119"
   inkscape:cx="30.235833"
   inkscape:cy="37.790437"
   inkscape:window-x="0"
   inkscape:window-y="0"
   inkscape:window-maximized="0"
   inkscape:current-layer="svg70" />
	<style
   type="text/css"
   id="style2">
	<![CDATA[
		.st1 {fill:#1b93eb;stroke:none;stroke-linecap:butt;stroke-width:34}
		.st2 {fill:url(#grad0-8);stroke:none;stroke-linecap:butt;stroke-width:34}
		.st3 {fill:#1f56a3;stroke:none;stroke-linecap:butt;stroke-width:34}
		.st4 {fill:#1490df;stroke:none;stroke-linecap:butt;stroke-width:34}
		.st5 {fill:#ffffff;stroke:none;stroke-linecap:butt;stroke-width:34}
		.st6 {fill:#0078d4;stroke:none;stroke-linecap:butt;stroke-width:34}
		.st7 {fill:#83b9f9;stroke:none;stroke-linecap:butt;stroke-width:34}
		.st8 {fill:#5ea0ef;stroke:none;stroke-linecap:butt;stroke-width:34}
		.st9 {fill:#5ea0ef;fill-opacity:0.2;stroke:none;stroke-linecap:butt;stroke-width:34}
		.st10 {fill:#83b9f9;fill-opacity:0.2;stroke:none;stroke-linecap:butt;stroke-width:34}
		.st11 {fill:none;fill-rule:evenodd;font-size:12px;overflow:visible;stroke-linecap:square;stroke-miterlimit:3}
	]]>
	</style>

	<defs
   id="Patterns_And_Gradients">
		<linearGradient
   id="grad0-8"
   x1="-2.2924711e-05"
   y1="65.062972"
   x2="46.50217"
   y2="65.062972"
   gradientTransform="scale(0.89458232,1.1178401)"
   gradientUnits="userSpaceOnUse">
			<stop
   offset="0"
   stop-color="#6bb9f2"
   stop-opacity="1"
   id="stop4" />
			<stop
   offset="1"
   stop-color="#1b93eb"
   stop-opacity="1"
   id="stop6" />
		</linearGradient>
	</defs>
	<g
   id="g68"
   transform="translate(-34.000632,-34.0043)">
		<title
   id="title10">Page-1</title>
		<g
   id="group9356-1"
   transform="translate(34,-34.0157)">
			<title
   id="title12">Application Security Group</title>
			<g
   id="group9357-2">
				<title
   id="title14">Icon-networking-83</title>
				<g
   id="shape9358-3">
					<title
   id="title16">Sheet.9358</title>
					<path
   d="m 45.35,94.48 c 0,15.24 -18.02,27.53 -21.93,30.02 a 1.41732,1.44901 0 0 1 -1.48,0 C 18.02,122.01 0,109.72 0,94.48 V 76.14 a 1.41732,1.44901 0 0 1 1.39,-1.45 c 14.02,-0.37 10.78,-6.67 21.29,-6.67 10.5,0 7.27,6.3 21.29,6.67 a 1.41732,1.44901 0 0 1 1.38,1.45 z"
   class="st1"
   id="path18"
   inkscape:connector-curvature="0"
   style="fill:#1b93eb;stroke:none;stroke-width:34;stroke-linecap:butt" />
				</g>
				<g
   id="shape9359-5"
   transform="translate(1.87949,-2.35317)">
					<title
   id="title21">Sheet.9359</title>
					<path
   d="m 41.6,96.99 c 0,13.98 -16.52,25.2 -20.12,27.53 a 1.32489,1.35451 0 0 1 -1.36,0 C 16.51,122.25 0,110.97 0,96.99 V 80.17 a 1.29408,1.32301 0 0 1 1.26,-1.33 c 12.85,-0.34 9.89,-6.11 19.54,-6.11 9.64,0 6.68,5.77 19.53,6.11 a 1.29408,1.32301 0 0 1 1.27,1.33 z"
   class="st2"
   id="path23"
   inkscape:connector-curvature="0"
   style="fill:url(#grad0-8);stroke:none;stroke-width:34;stroke-linecap:butt" />
				</g>
				<g
   id="shape9360-9"
   transform="translate(14.05,-14.2935)">
					<title
   id="title26">Sheet.9360</title>
					<path
   d="m 14.94,123.07 c -3.45,-0.47 -3.42,-2.77 -3.39,-6.3 H 5.02 c 0,3.69 0,5.99 -3.39,6.3 A 1.78706,1.82702 -180 0 0 0,124.71 h 16.61 a 1.81787,1.85852 -180 0 0 -1.67,-1.64 z"
   class="st3"
   id="path28"
   inkscape:connector-curvature="0"
   style="fill:#1f56a3;stroke:none;stroke-width:34;stroke-linecap:butt" />
				</g>
				<g
   id="shape9361-11"
   transform="translate(7.33311,-22.2946)">
					<title
   id="title31">Sheet.9361</title>
					<path
   d="m 0,123.67 a 1.0168,1.03953 -180 0 0 1.02,1.04 h 27.91 a 1.0168,1.03953 -180 0 0 1.02,-1.04 v -19.59 a 1.0168,1.03953 -180 0 0 -1.02,-1.04 H 1.02 A 1.0168,1.03953 -180 0 0 0,104.08 Z"
   class="st4"
   id="path33"
   inkscape:connector-curvature="0"
   style="fill:#1490df;stroke:none;stroke-width:34;stroke-linecap:butt" />
				</g>
				<g
   id="shape9362-13"
   transform="translate(9.05854,-24.3106)">
					<title
   id="title36">Sheet.9362</title>
					<path
   d="m 0,124.2 a 0.492993,0.504017 -180 0 0 0.492982,0.50401 L 25.97,124.71 a 0.492993,0.504017 -180 0 0 0.492982,-0.50401 L 26.47,107.23 a 0.492993,0.504017 -180 0 0 -0.492982,-0.50401 L 0.49,106.72 a 0.492993,0.504017 -180 0 0 -0.492982,0.50401 z"
   class="st5"
   id="path38"
   inkscape:connector-curvature="0"
   style="fill:#ffffff;stroke:none;stroke-width:34;stroke-linecap:butt" />
				</g>
				<g
   id="shape9363-15"
   transform="translate(22.3074,-26.9566)">
					<title
   id="title41">Sheet.9363</title>
					<path
   d="m 5.36,115.2 0.03,6.33 -5.39,3.18 v -6.33 z"
   class="st6"
   id="path43"
   inkscape:connector-curvature="0"
   style="fill:#0078d4;stroke:none;stroke-width:34;stroke-linecap:butt" />
				</g>
				<g
   id="shape9364-17"
   transform="translate(16.9154,-33.2882)">
					<title
   id="title46">Sheet.9364</title>
					<path
   d="M 10.75,121.53 5.39,124.71 0,121.53 5.36,118.35 Z"
   class="st7"
   id="path48"
   inkscape:connector-curvature="0"
   style="fill:#83b9f9;stroke:none;stroke-width:34;stroke-linecap:butt" />
				</g>
				<g
   id="shape9365-19"
   transform="translate(16.9154,-26.9566)">
					<title
   id="title51">Sheet.9365</title>
					<path
   d="M 5.39,118.38 5.36,124.71 0,121.53 v -6.33 z"
   class="st8"
   id="path53"
   inkscape:connector-curvature="0"
   style="fill:#5ea0ef;stroke:none;stroke-width:34;stroke-linecap:butt" />
				</g>
				<g
   id="shape9366-21"
   transform="translate(22.3074,-26.9566)">
					<title
   id="title56">Sheet.9366</title>
					<path
   d="m 0,118.38 v 6.33 l 5.36,-3.18 z"
   class="st9"
   id="path58"
   inkscape:connector-curvature="0"
   style="fill:#5ea0ef;fill-opacity:0.2;stroke:none;stroke-width:34;stroke-linecap:butt" />
				</g>
				<g
   id="shape9367-23"
   transform="translate(16.9154,-26.8621)">
					<title
   id="title61">Sheet.9367</title>
					<path
   d="m 5.36,118.35 0.03,0.03 v 6.33 H 5.36 L 0,121.53 Z"
   class="st10"
   id="path63"
   inkscape:connector-curvature="0"
   style="fill:#83b9f9;fill-opacity:0.2;stroke:none;stroke-width:34;stroke-linecap:butt" />
				</g>
			</g>
		</g>
	</g>
</svg>