<?xml version="1.0" encoding="UTF-8" standalone="no"?>
<!DOCTYPE svg PUBLIC "-//W3C//DTD SVG 1.1//EN" "http://www.w3.org/Graphics/SVG/1.1/DTD/svg11.dtd">
<!-- Generated by Microsoft Visio, SVG Export Application Registration.svg Page-1 -->
<svg xmlns="http://www.w3.org/2000/svg" xmlns:xlink="http://www.w3.org/1999/xlink" xmlns:ev="http://www.w3.org/2001/xml-events"
		width="1.73185in" height="2.24388in" viewBox="0 0 124.693 161.559" xml:space="preserve" color-interpolation-filters="sRGB"
		class="st5">
	<style type="text/css">
	<![CDATA[
		.st1 {fill:url(#grad0-6);stroke:none;stroke-linecap:butt;stroke-width:34}
		.st2 {fill:#32bedd;stroke:none;stroke-linecap:butt;stroke-width:34}
		.st3 {fill:#9cebff;stroke:none;stroke-linecap:butt;stroke-width:34}
		.st4 {fill:#50e6ff;stroke:none;stroke-linecap:butt;stroke-width:34}
		.st5 {fill:none;fill-rule:evenodd;font-size:12px;overflow:visible;stroke-linecap:square;stroke-miterlimit:3}
	]]>
	</style>

	<defs id="Patterns_And_Gradients">
		<linearGradient id="grad0-6" x1="0" y1="0" x2="1" y2="0" gradientTransform="rotate(90 0.5 0.5)">
			<stop offset="0" stop-color="#5ea0ef" stop-opacity="1"/>
			<stop offset="0.18" stop-color="#589eed" stop-opacity="1"/>
			<stop offset="0.41" stop-color="#4897e9" stop-opacity="1"/>
			<stop offset="0.66" stop-color="#2e8ce1" stop-opacity="1"/>
			<stop offset="0.94" stop-color="#0a7cd7" stop-opacity="1"/>
			<stop offset="1" stop-color="#0078d4" stop-opacity="1"/>
		</linearGradient>
	</defs>
	<g>
		<title>Page-1</title>
		<g id="group5079-1" transform="translate(34,-70.8661)">
			<title>Application Registration</title>
			<g id="group5080-2">
				<title>Icon-identity-232</title>
				<g id="shape5081-3" transform="translate(2.8777E-13,-8.50059)">
					<title>Sheet.5081</title>
					<path d="M17.07 147.1 L31.73 147.1 L31.73 161.56 L17.07 161.56 L17.07 147.1 ZM0.14 127.82 L14.8 127.82 L14.8
								 113.37 L2.03 113.37 A2.032 2.00801 -180 0 0 -0 115.37 L0.14 127.82 ZM2.17 161.56 L14.8 161.56 L14.8
								 147.1 L0 147.1 L0 159.55 A2.032 2.00801 -180 0 0 2.03 161.56 L2.17 161.56 ZM0.14 144.83 L14.8 144.83
								 L14.8 130.23 L0 130.23 L0.14 144.83 ZM34.27 161.56 L46.87 161.56 A2.032 2.00801 -180 0 0 48.9 159.55
								 L48.9 147.1 L34.14 147.1 L34.27 161.56 ZM17.34 144.83 L31.73 144.83 L31.73 130.23 L17.07 130.23
								 L17.34 144.83 ZM34.27 144.83 L48.67 144.83 L48.67 130.23 L34.14 130.23 L34.27 144.83 ZM34.27 113.5
								 L34.27 127.82 L48.67 127.82 L48.67 115.37 A2.032 2.00801 -180 0 0 46.63 113.37 L34.27 113.5 ZM17.34
								 127.96 L31.73 127.96 L31.73 113.37 L17.07 113.37 L17.34 127.96 Z" class="st1"/>
				</g>
				<g id="shape5082-7" transform="translate(43.5865,0)">
					<title>Sheet.5082</title>
					<path d="M13.11 138.9 L13.11 154 L0 161.56 L0 146.47 L13.11 138.9 Z" class="st2"/>
				</g>
				<g id="shape5083-9" transform="translate(30.4801,-15.0601)">
					<title>Sheet.5083</title>
					<path d="M26.21 153.96 L13.11 161.56 L0 153.96 L13.11 146.4 L26.21 153.96 Z" class="st3"/>
				</g>
				<g id="shape5084-11" transform="translate(30.4801,0)">
					<title>Sheet.5084</title>
					<path d="M13.11 146.5 L13.11 161.56 L0 154 L0 138.9 L13.11 146.5 Z" class="st4"/>
				</g>
				<g id="shape5085-13" transform="translate(30.4801,2.84217E-13)">
					<title>Sheet.5085</title>
					<path d="M0 154 L13.11 146.47 L13.11 161.56 L0 154 Z" class="st3"/>
				</g>
				<g id="shape5086-15" transform="translate(43.5865,2.84217E-13)">
					<title>Sheet.5086</title>
					<path d="M13.11 154 L0 146.47 L0 161.56 L13.11 154 Z" class="st4"/>
				</g>
			</g>
		</g>
	</g>
</svg>
