<?xml version="1.0" encoding="UTF-8" standalone="no"?>
<!DOCTYPE svg PUBLIC "-//W3C//DTD SVG 1.1//EN" "http://www.w3.org/Graphics/SVG/1.1/DTD/svg11.dtd">
<!-- Generated by Microsoft Visio, SVG Export Application Intelligent Order Management.svg Page-1 -->
<svg xmlns="http://www.w3.org/2000/svg" xmlns:xlink="http://www.w3.org/1999/xlink" xmlns:ev="http://www.w3.org/2001/xml-events"
		width="0.897638in" height="1.33858in" viewBox="0 0 64.6299 96.378" xml:space="preserve" color-interpolation-filters="sRGB"
		class="st6">
	<style type="text/css">
	<![CDATA[
		.st1 {fill:url(#grad0-6);stroke:none;stroke-linecap:butt;stroke-width:0.75}
		.st2 {fill:#000000;fill-opacity:0.24;stroke:none;stroke-linecap:butt;stroke-width:0.75}
		.st3 {fill:#000000;fill-opacity:0.32;stroke:none;stroke-linecap:butt;stroke-width:0.75}
		.st4 {fill:url(#grad0-17);stroke:none;stroke-linecap:butt;stroke-width:0.75}
		.st5 {fill:url(#grad0-25);stroke:none;stroke-linecap:butt;stroke-width:0.75}
		.st6 {fill:none;fill-rule:evenodd;font-size:12px;overflow:visible;stroke-linecap:square;stroke-miterlimit:3}
	]]>
	</style>

	<defs id="Patterns_And_Gradients">
		<linearGradient id="grad0-6" x1="0" y1="0" x2="1" y2="0" gradientTransform="rotate(-101.67127847452 0.5 0.5)">
			<stop offset="0" stop-color="#6b2929" stop-opacity="1"/>
			<stop offset="1" stop-color="#b6311d" stop-opacity="1"/>
		</linearGradient>
		<linearGradient id="grad0-17" x1="0" y1="0" x2="1" y2="0" gradientTransform="rotate(-107.79125688999 0.5 0.5)">
			<stop offset="0" stop-color="#d83b01" stop-opacity="1"/>
			<stop offset="1" stop-color="#ed7e43" stop-opacity="1"/>
		</linearGradient>
		<linearGradient id="grad0-25" x1="0" y1="0" x2="1" y2="0" gradientTransform="rotate(77.802668533159 0.5 0.5)">
			<stop offset="0" stop-color="#f8b48a" stop-opacity="1"/>
			<stop offset="1" stop-color="#ed7e43" stop-opacity="1"/>
		</linearGradient>
	</defs>
	<g>
		<title>Page-1</title>
		<g id="group9292-1" transform="translate(5.38583,-34.0157)">
			<title>Application Intelligent Order Management</title>
			<g id="group9293-2">
				<title>Sheet.9293</title>
				<g id="shape9294-3" transform="translate(35.9055,-38.1809)">
					<title>Sheet.9294</title>
					<path d="M17.95 77.87 L0 77.87 L0 96.38 L17.95 96.38 L17.95 77.87 Z" class="st1"/>
				</g>
				<g id="shape9295-7" transform="translate(1.96185E-07,-1.157)">
					<title>Sheet.9295</title>
					<path d="M17.95 77.87 L0 77.87 L0 96.38 L17.95 96.38 L17.95 77.87 Z" class="st1"/>
				</g>
				<g id="shape9296-10" transform="translate(8.97649,-0.925598)">
					<title>Sheet.9296</title>
					<path d="M26.93 96.38 L26.93 50.1 C26.93 44.99 30.95 40.84 35.91 40.84 L8.98 40.84 L8.98 87.12 C8.98 92.23 4.96
								 96.38 0 96.38 L26.93 96.38 Z" class="st2"/>
				</g>
				<g id="shape9297-12" transform="translate(8.97649,1.42109E-14)">
					<title>Sheet.9297</title>
					<path d="M26.93 96.38 L26.93 50.1 C26.93 44.99 30.95 40.84 35.91 40.84 L8.98 40.84 L8.98 87.12 C8.98 92.23 4.96
								 96.38 0 96.38 L26.93 96.38 Z" class="st3"/>
				</g>
				<g id="shape9298-14" transform="translate(8.97649,-1.157)">
					<title>Sheet.9298</title>
					<path d="M26.93 96.38 L26.93 50.1 C26.93 44.99 30.95 40.84 35.91 40.84 L8.98 40.84 L8.98 87.12 C8.98 92.23 4.96
								 96.38 0 96.38 L26.93 96.38 Z" class="st4"/>
				</g>
				<g id="shape9299-18" transform="translate(0,-10.1816)">
					<title>Sheet.9299</title>
					<path d="M0 68.61 L44.88 68.61 C49.84 68.61 53.86 64.47 53.86 59.35 L53.86 87.12 L8.98 87.12 C4.02 87.12 0 91.27
								 0 96.38 L0 68.61 Z" class="st2"/>
				</g>
				<g id="shape9300-20" transform="translate(0,-9.25598)">
					<title>Sheet.9300</title>
					<path d="M0 68.61 L44.88 68.61 C49.84 68.61 53.86 64.47 53.86 59.35 L53.86 87.12 L8.98 87.12 C4.02 87.12 0 91.27
								 0 96.38 L0 68.61 Z" class="st3"/>
				</g>
				<g id="shape9301-22" transform="translate(0,-10.413)">
					<title>Sheet.9301</title>
					<path d="M0 68.61 L44.88 68.61 C49.84 68.61 53.86 64.47 53.86 59.35 L53.86 87.12 L8.98 87.12 C4.02 87.12 0 91.27
								 0 96.38 L0 68.61 Z" class="st5"/>
				</g>
			</g>
		</g>
	</g>
</svg>
