<?xml version="1.0" encoding="UTF-8" standalone="no"?>
<!-- Generated by Microsoft Visio, SVG Export Application Server Instance for SAP Solution.svg Page-1 -->

<svg
   xmlns:dc="http://purl.org/dc/elements/1.1/"
   xmlns:cc="http://creativecommons.org/ns#"
   xmlns:rdf="http://www.w3.org/1999/02/22-rdf-syntax-ns#"
   xmlns:svg="http://www.w3.org/2000/svg"
   xmlns="http://www.w3.org/2000/svg"
   xmlns:sodipodi="http://sodipodi.sourceforge.net/DTD/sodipodi-0.dtd"
   xmlns:inkscape="http://www.inkscape.org/namespaces/inkscape"
   width="0.78895038in"
   height="0.74792975in"
   viewBox="0 0 56.804318 53.850764"
   xml:space="preserve"
   class="st8"
   version="1.1"
   id="svg69"
   sodipodi:docname="Application Server Instance for SAP Solution.svg"
   style="font-size:12px;overflow:visible;color-interpolation-filters:sRGB;fill:none;fill-rule:evenodd;stroke-linecap:square;stroke-miterlimit:3"
   inkscape:version="0.92.5 (2060ec1f9f, 2020-04-08)"><metadata
   id="metadata73"><rdf:RDF><cc:Work
       rdf:about=""><dc:format>image/svg+xml</dc:format><dc:type
         rdf:resource="http://purl.org/dc/dcmitype/StillImage" /></cc:Work></rdf:RDF></metadata><sodipodi:namedview
   pagecolor="#ffffff"
   bordercolor="#666666"
   borderopacity="1"
   objecttolerance="10"
   gridtolerance="10"
   guidetolerance="10"
   inkscape:pageopacity="0"
   inkscape:pageshadow="2"
   inkscape:window-width="640"
   inkscape:window-height="480"
   id="namedview71"
   showgrid="false"
   inkscape:zoom="1.4523148"
   inkscape:cx="37.870671"
   inkscape:cy="35.889893"
   inkscape:window-x="0"
   inkscape:window-y="0"
   inkscape:window-maximized="0"
   inkscape:current-layer="svg69" />
	<style
   type="text/css"
   id="style2">
	<![CDATA[
		.st1 {fill:url(#grad0-6);stroke:none;stroke-linecap:butt;stroke-width:34}
		.st2 {fill:#003067;stroke:none;stroke-linecap:butt;stroke-width:34}
		.st3 {fill:#50e6ff;stroke:none;stroke-linecap:butt;stroke-width:34}
		.st4 {fill:url(#grad0-16);stroke:none;stroke-linecap:butt;stroke-width:34}
		.st5 {fill:#ffffff;fill-opacity:0.6;stroke:none;stroke-linecap:butt;stroke-width:34}
		.st6 {fill:#ffffff;fill-opacity:0.9;stroke:none;stroke-linecap:butt;stroke-width:34}
		.st7 {fill:#ffffff;fill-opacity:0.75;stroke:none;stroke-linecap:butt;stroke-width:34}
		.st8 {fill:none;fill-rule:evenodd;font-size:12px;overflow:visible;stroke-linecap:square;stroke-miterlimit:3}
	]]>
	</style>

	<defs
   id="Patterns_And_Gradients">
		<linearGradient
   id="grad0-6"
   x1="-0.00032053507"
   y1="52.959812"
   x2="41.774055"
   y2="52.959812"
   gradientTransform="scale(0.77733804,1.2864416)"
   gradientUnits="userSpaceOnUse">
			<stop
   offset="0"
   stop-color="#005ba1"
   stop-opacity="1"
   id="stop4" />
			<stop
   offset="1"
   stop-color="#0078d4"
   stop-opacity="1"
   id="stop6" />
		</linearGradient>
		<linearGradient
   id="grad0-16"
   x1="-1.109401e-07"
   y1="140.44344"
   x2="30.373446"
   y2="140.44344"
   gradientTransform="scale(1.4016312,0.71345446)"
   gradientUnits="userSpaceOnUse">
			<stop
   offset="0"
   stop-color="#32bedd"
   stop-opacity="1"
   id="stop9" />
			<stop
   offset="0.3"
   stop-color="#36c3e1"
   stop-opacity="1"
   id="stop11" />
			<stop
   offset="0.66"
   stop-color="#41d1ee"
   stop-opacity="1"
   id="stop13" />
			<stop
   offset="1"
   stop-color="#50e6ff"
   stop-opacity="1"
   id="stop15" />
		</linearGradient>
	</defs>
	<g
   id="g67"
   transform="translate(-34.000051,-34.003614)">
		<title
   id="title19">Page-1</title>
		<g
   id="group10340-1"
   transform="translate(34.0003,-34.0157)">
			<title
   id="title21">Application Server Instance for SAP Solution</title>
			<g
   id="group10341-2">
				<title
   id="title23">Sheet.10341</title>
				<g
   id="shape10342-3"
   transform="translate(0,-0.110475)">
					<title
   id="title25">Sheet.10342</title>
					<path
   d="m 32.44,120.07 a 1.81725,1.7676 0 0 1 -1.78,1.8 H 1.82 A 1.82069,1.77095 0 0 1 0,120.1 V 69.93 a 1.82069,1.77095 0 0 1 1.79,-1.8 h 28.83 a 1.81725,1.7676 0 0 1 1.85,1.73 0.209947,0.204211 0 0 1 0,0.06361 z"
   class="st1"
   id="path27"
   inkscape:connector-curvature="0"
   style="fill:url(#grad0-6);stroke:none;stroke-width:34;stroke-linecap:butt" />
				</g>
				<g
   id="shape10343-7"
   transform="translate(4.61884,-31.5691)">
					<title
   id="title30">Sheet.10343</title>
					<path
   d="m 0,118.43 a 3.50371,3.40799 0 0 1 3.5,-3.42 h 16.42 a 3.51059,3.41468 0 0 1 3.42,3.42 3.51059,3.41468 0 0 1 -3.48,3.44 H 3.57 A 3.54157,3.44481 0 0 1 0,118.46 Z m 0,-10.18 a 3.54501,3.44816 0 0 1 3.54,-3.45 h 16.38 a 3.51059,3.41468 0 0 1 3.42,3.45 3.51059,3.41468 0 0 1 -3.51,3.41 H 3.57 A 3.51059,3.41468 0 0 1 0,108.31 Z"
   class="st2"
   id="path32"
   inkscape:connector-curvature="0"
   style="fill:#003067;stroke:none;stroke-width:34;stroke-linecap:butt" />
				</g>
				<g
   id="shape10344-9"
   transform="translate(6.05061,-42.8878)">
					<title
   id="title35">Sheet.10344</title>
					<ellipse
   cx="2.3713701"
   cy="119.568"
   rx="2.3713701"
   ry="2.3065901"
   class="st3"
   id="ellipse37"
   style="fill:#50e6ff;stroke:none;stroke-width:34;stroke-linecap:butt" />
				</g>
				<g
   id="shape10345-11"
   transform="translate(6.05061,-32.7073)">
					<title
   id="title40">Sheet.10345</title>
					<ellipse
   cx="2.3713701"
   cy="119.568"
   rx="2.3713701"
   ry="2.3065901"
   class="st3"
   id="ellipse42"
   style="fill:#50e6ff;stroke:none;stroke-width:34;stroke-linecap:butt" />
				</g>
				<g
   id="shape10346-13"
   transform="translate(14.2317)">
					<title
   id="title45">Sheet.10346</title>
					<path
   d="m 1.44,121.87 h 20.49 a 1.43521,1.396 -180 0 0 1.03,-0.41 l 19.2,-18.88 A 1.43865,1.39935 -180 0 0 41.13,100.2 H 1.44 A 1.43865,1.39935 -180 0 0 0,101.6 v 18.87 a 1.43865,1.39935 -180 0 0 1.44,1.4 z"
   class="st4"
   id="path47"
   inkscape:connector-curvature="0"
   style="fill:url(#grad0-16);stroke:none;stroke-width:34;stroke-linecap:butt" />
				</g>
				<g
   id="shape10347-17"
   transform="translate(29.427,-3.16026)">
					<title
   id="title50">Sheet.10347</title>
					<path
   d="m 7.15,109.78 v 8.05 L 0,121.87 v -8.06 z"
   class="st5"
   id="path52"
   inkscape:connector-curvature="0"
   style="fill:#ffffff;fill-opacity:0.6;stroke:none;stroke-width:34;stroke-linecap:butt" />
				</g>
				<g
   id="shape10348-19"
   transform="translate(22.2682,-11.2115)">
					<title
   id="title55">Sheet.10348</title>
					<path
   d="M 14.31,117.83 7.16,121.87 0,117.82 7.16,113.78 Z"
   class="st6"
   id="path57"
   inkscape:connector-curvature="0"
   style="fill:#ffffff;fill-opacity:0.9;stroke:none;stroke-width:34;stroke-linecap:butt" />
				</g>
				<g
   id="shape10349-21"
   transform="translate(22.2682,-3.16026)">
					<title
   id="title60">Sheet.10349</title>
					<path
   d="m 7.16,113.82 v 8.05 L 0,117.83 v -8.06 z"
   class="st7"
   id="path62"
   inkscape:connector-curvature="0"
   style="fill:#ffffff;fill-opacity:0.75;stroke:none;stroke-width:34;stroke-linecap:butt" />
				</g>
			</g>
		</g>
	</g>
</svg>