<?xml version="1.0" encoding="UTF-8" standalone="no"?>
<!DOCTYPE svg PUBLIC "-//W3C//DTD SVG 1.1//EN" "http://www.w3.org/Graphics/SVG/1.1/DTD/svg11.dtd">
<!-- Generated by Microsoft Visio, SVG Export Application Group.svg Page-1 -->
<svg xmlns="http://www.w3.org/2000/svg" xmlns:xlink="http://www.w3.org/1999/xlink" xmlns:ev="http://www.w3.org/2001/xml-events"
		width="1.73185in" height="2.24388in" viewBox="0 0 124.693 161.559" xml:space="preserve" color-interpolation-filters="sRGB"
		class="st3">
	<style type="text/css">
	<![CDATA[
		.st1 {fill:url(#grad0-6);stroke:none;stroke-linecap:butt;stroke-width:34}
		.st2 {fill:#ffffff;stroke:none;stroke-linecap:butt;stroke-width:34}
		.st3 {fill:none;fill-rule:evenodd;font-size:12px;overflow:visible;stroke-linecap:square;stroke-miterlimit:3}
	]]>
	</style>

	<defs id="Patterns_And_Gradients">
		<linearGradient id="grad0-6" x1="0" y1="0" x2="1" y2="0" gradientTransform="rotate(-90 0.5 0.5)">
			<stop offset="0" stop-color="#005ba1" stop-opacity="1"/>
			<stop offset="0.17" stop-color="#0063ae" stop-opacity="1"/>
			<stop offset="0.575" stop-color="#0072ca" stop-opacity="1"/>
			<stop offset="0.815" stop-color="#0078d4" stop-opacity="1"/>
		</linearGradient>
	</defs>
	<g>
		<title>Page-1</title>
		<g id="group5098-1" transform="translate(34,-70.8661)">
			<title>Application Group</title>
			<g id="group5099-2">
				<title>Application Group</title>
				<g id="shape5100-3">
					<title>Sheet.5100</title>
					<ellipse cx="28.3465" cy="133.213" rx="28.3465" ry="28.3465" class="st1"/>
				</g>
				<g id="shape5101-7" transform="translate(14.7402,-14.7402)">
					<title>Sheet.5101</title>
					<path d="M9.52 153.4 L17.69 153.4 L17.69 161.56 L9.52 161.56 L9.52 153.4 ZM0 142.51 L8.16 142.51 L8.16 134.35
								 L1.14 134.35 A1.13719 1.13719 -180 0 0 0 135.49 L0 142.51 ZM1.14 161.56 L8.16 161.56 L8.16 153.4
								 L0 153.4 L0 160.42 A1.13719 1.13719 -180 0 0 1.14 161.56 ZM0 152.03 L8.16 152.03 L8.16 143.87 L0
								 143.87 L0 152.03 ZM19.05 161.56 L26.07 161.56 A1.13719 1.13719 -180 0 0 27.21 160.42 L27.21 153.4
								 L19.05 153.4 L19.05 161.56 ZM9.52 152.03 L17.69 152.03 L17.69 143.87 L9.52 143.87 L9.52 152.03 ZM19.05
								 152.03 L27.21 152.03 L27.21 143.87 L19.05 143.87 L19.05 152.03 ZM19.05 134.36 L19.05 142.51 L27.21
								 142.51 L27.21 135.49 A1.13719 1.13719 -180 0 0 26.07 134.35 L19.05 134.36 ZM9.52 142.51 L17.69 142.51
								 L17.69 134.35 L9.52 134.35 L9.52 142.51 Z" class="st2"/>
				</g>
			</g>
		</g>
	</g>
</svg>
