<?xml version="1.0" encoding="UTF-8" standalone="no"?>
<!DOCTYPE svg PUBLIC "-//W3C//DTD SVG 1.1//EN" "http://www.w3.org/Graphics/SVG/1.1/DTD/svg11.dtd">
<!-- Generated by Microsoft Visio, SVG Export Application Finance.svg Page-1 -->
<svg xmlns="http://www.w3.org/2000/svg" xmlns:xlink="http://www.w3.org/1999/xlink" xmlns:ev="http://www.w3.org/2001/xml-events"
		width="0.897638in" height="1.33858in" viewBox="0 0 64.6299 96.378" xml:space="preserve" color-interpolation-filters="sRGB"
		class="st6">
	<style type="text/css">
	<![CDATA[
		.st1 {fill:url(#grad0-7);stroke:none;stroke-linecap:butt;stroke-width:0.75}
		.st2 {fill:#000000;fill-opacity:0.32;stroke:none;stroke-linecap:butt;stroke-width:0.75}
		.st3 {fill:#000000;fill-opacity:0.24;stroke:none;stroke-linecap:butt;stroke-width:0.75}
		.st4 {fill:url(#grad0-15);stroke:none;stroke-linecap:butt;stroke-width:0.75}
		.st5 {fill:url(#grad0-23);stroke:none;stroke-linecap:butt;stroke-width:0.75}
		.st6 {fill:none;fill-rule:evenodd;font-size:12px;overflow:visible;stroke-linecap:square;stroke-miterlimit:3}
	]]>
	</style>

	<defs id="Patterns_And_Gradients">
		<linearGradient id="grad0-7" x1="0" y1="0" x2="1" y2="0" gradientTransform="rotate(81.557838940216 0.5 0.5)">
			<stop offset="0" stop-color="#158915" stop-opacity="1"/>
			<stop offset="1" stop-color="#065f18" stop-opacity="1"/>
		</linearGradient>
		<linearGradient id="grad0-15" x1="0" y1="0" x2="1" y2="0" gradientTransform="rotate(83.370335174544 0.5 0.5)">
			<stop offset="0" stop-color="#6ad116" stop-opacity="1"/>
			<stop offset="1" stop-color="#34a117" stop-opacity="1"/>
		</linearGradient>
		<linearGradient id="grad0-23" x1="0" y1="0" x2="1" y2="0" gradientTransform="rotate(86.368984583909 0.5 0.5)">
			<stop offset="0" stop-color="#c3f488" stop-opacity="1"/>
			<stop offset="1" stop-color="#8fdc50" stop-opacity="1"/>
		</linearGradient>
	</defs>
	<g>
		<title>Page-1</title>
		<g id="group9560-1" transform="translate(5.38583,-34.0157)">
			<title>Application Finance</title>
			<g id="group9561-2">
				<title>Sheet.9561</title>
				<g id="group9562-3">
					<title>Sheet.9562</title>
					<g id="shape9563-4" transform="translate(0,-1.58756)">
						<title>Sheet.9563</title>
						<path d="M37.19 41.27 L53.86 53.08 L53.86 96.38 L0 96.38 L0 68.83 L37.19 41.27 Z" class="st1"/>
					</g>
					<g id="shape9564-8">
						<title>Sheet.9564</title>
						<path d="M35.67 64.4 C36.57 65.08 37.8 65.08 38.71 64.41 L53.86 53.08 L53.86 96.38 L0 96.38 L0 81.95 L28.3
									 61.09 C29.2 60.42 30.42 60.43 31.32 61.11 L35.67 64.4 Z" class="st2"/>
					</g>
					<g id="shape9565-10">
						<title>Sheet.9565</title>
						<path d="M35.67 64.4 C36.57 65.08 37.8 65.08 38.71 64.41 L53.86 53.08 L53.86 96.38 L0 96.38 L0 81.95 L28.3
									 61.09 C29.2 60.42 30.42 60.43 31.32 61.11 L35.67 64.4 Z" class="st3"/>
					</g>
					<g id="shape9566-12" transform="translate(0,-1.58756)">
						<title>Sheet.9566</title>
						<path d="M35.67 64.4 C36.57 65.08 37.8 65.08 38.71 64.41 L53.86 53.08 L53.86 96.38 L0 96.38 L0 81.95 L28.3
									 61.09 C29.2 60.42 30.42 60.43 31.32 61.11 L35.67 64.4 Z" class="st4"/>
					</g>
					<g id="shape9567-16" transform="translate(16.6704,-1.33827)">
						<title>Sheet.9567</title>
						<path d="M37.19 96.38 L37.19 77.35 L32.92 74.2 C32.02 73.54 30.81 73.54 29.91 74.2 L0 96.38 L37.19 96.38 Z"
								class="st3"/>
					</g>
					<g id="shape9568-18" transform="translate(16.6704,-0.0262406)">
						<title>Sheet.9568</title>
						<path d="M37.19 96.38 L37.19 77.35 L32.92 74.2 C32.02 73.54 30.81 73.54 29.91 74.2 L0 96.38 L37.19 96.38 Z"
								class="st2"/>
					</g>
					<g id="shape9569-20" transform="translate(16.6704,-1.58749)">
						<title>Sheet.9569</title>
						<path d="M37.19 96.38 L37.19 77.35 L32.92 74.2 C32.02 73.54 30.81 73.54 29.91 74.2 L0 96.38 L37.19 96.38 Z"
								class="st5"/>
					</g>
				</g>
			</g>
		</g>
	</g>
</svg>
