<?xml version="1.0" encoding="UTF-8" standalone="no"?>
<!DOCTYPE svg PUBLIC "-//W3C//DTD SVG 1.1//EN" "http://www.w3.org/Graphics/SVG/1.1/DTD/svg11.dtd">
<!-- Generated by Microsoft Visio, SVG Export Application Insights.svg Page-1 -->
<svg xmlns="http://www.w3.org/2000/svg" xmlns:xlink="http://www.w3.org/1999/xlink" xmlns:ev="http://www.w3.org/2001/xml-events"
		width="1.4993in" height="2.24389in" viewBox="0 0 107.95 161.56" xml:space="preserve" color-interpolation-filters="sRGB"
		class="st5">
	<style type="text/css">
	<![CDATA[
		.st1 {fill:#cecece;stroke:none;stroke-linecap:butt;stroke-width:34}
		.st2 {fill:url(#grad3-8);stroke:none;stroke-linecap:butt;stroke-width:34}
		.st3 {fill:url(#grad0-12);stroke:none;stroke-linecap:butt;stroke-width:34}
		.st4 {fill:#999999;stroke:none;stroke-linecap:butt;stroke-width:34}
		.st5 {fill:none;fill-rule:evenodd;font-size:12px;overflow:visible;stroke-linecap:square;stroke-miterlimit:3}
	]]>
	</style>

	<defs id="Patterns_And_Gradients">
		<radialGradient id="grad3-8" cx="0.5" cy="0.5" r="0.73">
			<stop offset="0" stop-color="#b77af4" stop-opacity="1"/>
			<stop offset="0.21" stop-color="#b378f2" stop-opacity="1"/>
			<stop offset="0.43" stop-color="#a672ed" stop-opacity="1"/>
			<stop offset="0.65" stop-color="#9267e4" stop-opacity="1"/>
			<stop offset="0.88" stop-color="#7559d8" stop-opacity="1"/>
			<stop offset="1" stop-color="#624fd0" stop-opacity="1"/>
		</radialGradient>
		<linearGradient id="grad0-12" x1="0" y1="0" x2="1" y2="0" gradientTransform="rotate(89.445837686356 0.5 0.5)">
			<stop offset="0" stop-color="#f2f2f2" stop-opacity="1"/>
			<stop offset="0.23" stop-color="#f1f1f2" stop-opacity="1"/>
			<stop offset="0.37" stop-color="#ededf1" stop-opacity="1"/>
			<stop offset="0.48" stop-color="#e7e5f0" stop-opacity="1"/>
			<stop offset="0.58" stop-color="#dedbee" stop-opacity="1"/>
			<stop offset="0.67" stop-color="#d3ceeb" stop-opacity="1"/>
			<stop offset="0.76" stop-color="#c4bee8" stop-opacity="1"/>
			<stop offset="0.84" stop-color="#b4abe5" stop-opacity="1"/>
			<stop offset="0.92" stop-color="#a095e1" stop-opacity="1"/>
			<stop offset="0.99" stop-color="#8b7ddc" stop-opacity="1"/>
			<stop offset="1" stop-color="#897bdc" stop-opacity="1"/>
		</linearGradient>
	</defs>
	<g>
		<title>Page-1</title>
		<g id="group5092-1" transform="translate(34.1323,-70.8661)">
			<title>Application Insights</title>
			<g id="group5093-2">
				<title>Sheet.5093</title>
				<g id="shape5094-3" transform="translate(13.1276,-1.42109E-13)">
					<title>Sheet.5094</title>
					<path d="M10.84 161.19 L13.56 158.29 L13.56 150.55 L0 150.55 L0 158.29 L2.72 161.19 A1.07438 1.06716 -180 0 0
								 3.36 161.56 L10.07 161.56 A1.07438 1.06716 -180 0 0 10.84 161.19 Z" class="st1"/>
				</g>
				<g id="shape5095-5" transform="translate(0,-11.0051)">
					<title>Sheet.5095</title>
					<path d="M19.84 115.87 A19.7754 19.6424 -180 0 0 0 137.78 C0.91 146.02 8.8 149.85 11.05 160.29 A1.64515 1.63409
								 -180 0 0 12.62 161.56 L27.06 161.56 A1.64515 1.63409 -180 0 0 28.64 160.29 C30.89 149.85 38.71 146.02
								 39.69 137.78 A19.7754 19.6424 -180 0 0 19.84 115.87 Z" class="st2"/>
				</g>
				<g id="shape5096-9" transform="translate(7.21851,-14.8736)">
					<title>Sheet.5096</title>
					<path d="M20.88 130.71 A4.70043 4.66883 -180 0 0 16.35 135.51 L16.35 138.08 L9.27 138.08 L9.27 135.51 A4.734
								 4.70218 -180 0 0 4.53 130.71 A4.70043 4.66883 -180 0 0 -0 135.51 A4.734 4.70218 -180 0 0 4.53 140.35
								 L6.68 140.35 L6.68 160.36 A1.20868 1.20056 -180 0 0 9.1 160.36 L9.1 140.35 L16.35 140.35 L16.35
								 160.36 A1.20868 1.20056 -180 1 0 18.77 160.36 L18.77 140.35 L20.88 140.35 A4.70043 4.66883 -180
								 0 0 25.42 135.51 A4.70043 4.66883 -180 0 0 20.88 130.71 ZM6.68 138.08 L4.4 138.08 A2.48451 2.46781
								 0 0 1 2.12 135.51 A2.48451 2.46781 0 0 1 4.4 132.95 A2.48451 2.46781 0 0 1 6.68 135.51 L6.68 138.08
								 ZM21.05 138.08 L18.77 138.08 L18.77 135.38 A2.28306 2.26772 0 1 1 23.3 135.38 A2.45094 2.43446 0
								 0 1 21.05 138.08 Z" class="st3"/>
				</g>
				<g id="shape5097-13" transform="translate(12.9933,-2.13432)">
					<title>Sheet.5097</title>
					<path d="M0 158.03 L13.7 155.39 L13.7 153.89 L0 156.56 L0 158.03 ZM13.7 159.06 L13.7 157.59 L0 160.29 L0 160.43
								 L1.04 161.56 L13.7 159.06 Z" class="st4"/>
				</g>
			</g>
		</g>
	</g>
</svg>
