<?xml version="1.0" encoding="UTF-8" standalone="no"?>
<!DOCTYPE svg PUBLIC "-//W3C//DTD SVG 1.1//EN" "http://www.w3.org/Graphics/SVG/1.1/DTD/svg11.dtd">
<!-- Generated by Microsoft Visio, SVG Export Automation Account.svg Page-1 -->
<svg xmlns="http://www.w3.org/2000/svg" xmlns:xlink="http://www.w3.org/1999/xlink" xmlns:ev="http://www.w3.org/2001/xml-events"
		width="1.73185in" height="2.24388in" viewBox="0 0 124.693 161.559" xml:space="preserve" color-interpolation-filters="sRGB"
		class="st3">
	<style type="text/css">
	<![CDATA[
		.st1 {fill:url(#grad0-6);stroke:none;stroke-linecap:butt;stroke-width:34}
		.st2 {fill:url(#grad0-10);stroke:none;stroke-linecap:butt;stroke-width:34}
		.st3 {fill:none;fill-rule:evenodd;font-size:12px;overflow:visible;stroke-linecap:square;stroke-miterlimit:3}
	]]>
	</style>

	<defs id="Patterns_And_Gradients">
		<linearGradient id="grad0-6" x1="0" y1="0" x2="1" y2="0" gradientTransform="rotate(-90 0.5 0.5)">
			<stop offset="0" stop-color="#0078d4" stop-opacity="1"/>
			<stop offset="0.065" stop-color="#0a7cd7" stop-opacity="1"/>
			<stop offset="0.34" stop-color="#2e8ce1" stop-opacity="1"/>
			<stop offset="0.595" stop-color="#4897e9" stop-opacity="1"/>
			<stop offset="0.82" stop-color="#589eed" stop-opacity="1"/>
			<stop offset="1" stop-color="#5ea0ef" stop-opacity="1"/>
		</linearGradient>
		<linearGradient id="grad0-10" x1="0" y1="0" x2="1" y2="0" gradientTransform="rotate(-90 0.5 0.5)">
			<stop offset="0" stop-color="#fea11b" stop-opacity="1"/>
			<stop offset="0.285" stop-color="#fea51a" stop-opacity="1"/>
			<stop offset="0.545" stop-color="#feb018" stop-opacity="1"/>
			<stop offset="0.8" stop-color="#ffc314" stop-opacity="1"/>
			<stop offset="1" stop-color="#ffd70f" stop-opacity="1"/>
		</linearGradient>
	</defs>
	<g>
		<title>Page-1</title>
		<g id="group5003-1" transform="translate(34,-70.8661)">
			<title>Automation Account</title>
			<g id="group5004-2">
				<title>Sheet.5004</title>
				<g id="shape5005-3" transform="translate(0,-0.0445949)">
					<title>Sheet.5005</title>
					<path d="M56.69 136.29 L56.69 129.84 L55.78 129.5 L48.87 127.23 L47.05 122.81 L50.56 115.33 L46.03 110.8 L45.13
								 111.26 L38.66 114.54 L34.24 112.73 L31.4 104.91 L24.94 104.91 L24.6 105.82 L22.33 112.73 L17.91
								 114.54 L10.54 111.04 L6 115.56 L6.46 116.47 L9.75 122.92 L7.94 127.34 L0 130.18 L0 136.63 L0.91
								 136.97 L7.82 139.24 L9.64 143.66 L6.13 151.14 L10.66 155.67 L11.57 155.21 L18.04 151.93 L22.46 153.74
								 L25.3 161.56 L31.76 161.56 L32.1 160.65 L34.37 153.74 L38.79 151.93 L46.27 155.43 L50.81 150.9 L50.35
								 150 L47.07 143.54 L48.88 139.12 L56.69 136.29 ZM28.34 145.66 A12.4341 12.4229 0 1 1 40.78 133.23
								 A12.4341 12.4229 0 0 1 28.34 145.66 Z" class="st1"/>
				</g>
				<g id="shape5006-7" transform="translate(14.5383,-2.84217E-13)">
					<title>Sheet.5006</title>
					<path d="M12.08 138.01 L0.64 138.01 a0.615326 0.614773 0 0 1 -0.637644 -0.576549 a0.516492 0.516027 0 0 1 0.0573879
								 -0.235716 L13.78 110.09 a0.659961 0.659368 0 0 1 0.593009 -0.340833 L27.9 109.75 a0.615326 0.614773
								 0 0 1 0.637644 0.576549 a0.526056 0.525583 0 0 1 -0.111588 0.318535 L12.32 131.87 L28.03 131.87
								 a0.615326 0.614773 0 0 1 0.637644 0.576549 a0.545185 0.544695 0 0 1 -0.165787 0.385428 L2.38 159.97
								 C2.14 160.11 0.39 161.56 1.25 159.36 L12.08 138.01 Z" class="st2"/>
				</g>
			</g>
		</g>
	</g>
</svg>
