<?xml version="1.0" encoding="UTF-8" standalone="no"?>
<!DOCTYPE svg PUBLIC "-//W3C//DTD SVG 1.1//EN" "http://www.w3.org/Graphics/SVG/1.1/DTD/svg11.dtd">
<!-- Generated by Microsoft Visio, SVG Export Automation Linked Workspace.svg Page-1 -->
<svg xmlns="http://www.w3.org/2000/svg" xmlns:xlink="http://www.w3.org/1999/xlink" xmlns:ev="http://www.w3.org/2001/xml-events"
		width="1.73189in" height="1.73208in" viewBox="0 0 124.696 124.71" xml:space="preserve" color-interpolation-filters="sRGB"
		class="st4">
	<style type="text/css">
	<![CDATA[
		.st1 {fill:url(#grad0-6);stroke:none;stroke-linecap:butt;stroke-width:34}
		.st2 {fill:url(#grad0-10);stroke:none;stroke-linecap:butt;stroke-width:34}
		.st3 {fill:#ffffff;stroke:none;stroke-linecap:butt;stroke-width:34}
		.st4 {fill:none;fill-rule:evenodd;font-size:12px;overflow:visible;stroke-linecap:square;stroke-miterlimit:3}
	]]>
	</style>

	<defs id="Patterns_And_Gradients">
		<linearGradient id="grad0-6" x1="0" y1="0" x2="1" y2="0" gradientTransform="rotate(-90 0.5 0.5)">
			<stop offset="0" stop-color="#1988d9" stop-opacity="1"/>
			<stop offset="0.9" stop-color="#54aef0" stop-opacity="1"/>
		</linearGradient>
		<linearGradient id="grad0-10" x1="0" y1="0" x2="1" y2="0" gradientTransform="rotate(-90 0.5 0.5)">
			<stop offset="0" stop-color="#198ab3" stop-opacity="1"/>
			<stop offset="0.01" stop-color="#198bb4" stop-opacity="1"/>
			<stop offset="0.44" stop-color="#27b2d7" stop-opacity="1"/>
			<stop offset="0.79" stop-color="#2fcbed" stop-opacity="1"/>
			<stop offset="1" stop-color="#32d4f5" stop-opacity="1"/>
		</linearGradient>
	</defs>
	<g>
		<title>Page-1</title>
		<g id="group8612-1" transform="translate(34,-34.0157)">
			<title>Automation Linked Workspace</title>
			<g id="group8613-2">
				<title>Sheet.8613</title>
				<g id="shape8614-3">
					<title>Sheet.8614</title>
					<path d="M16.91 110.22 L31.4 110.22 L31.4 124.71 L16.91 124.71 L16.91 110.22 ZM2.01 124.71 L14.49 124.71 L14.49
								 110.22 L0 110.22 L0 122.7 A2.01277 2.01277 -180 0 0 2.01 124.71 ZM0 107.94 L14.49 107.94 L14.49
								 93.31 L0 93.31 L0 107.94 Z" class="st1"/>
				</g>
				<g id="shape8615-7" transform="translate(16.7731,-16.6053)">
					<title>Sheet.8615</title>
					<path d="M19.96 84.62 A19.7587 19.7587 0 0 1 39.92 104.75 A19.7587 19.7587 0 0 1 19.96 124.71 L0 124.71 L0 104.58
								 A19.7587 19.7587 0 0 1 19.96 84.62 Z" class="st2"/>
				</g>
				<g id="shape8616-11" transform="translate(23.6165,-25.8976)">
					<title>Sheet.8616</title>
					<path d="M0 111.02 L4.56 111.02 L4.56 124.71 L0 124.71 L0 111.02 ZM9.12 115.59 L13.69 115.59 L13.69 124.71 L9.12
								 124.71 L9.12 115.59 ZM18.25 106.46 L22.81 106.46 L22.81 124.71 L18.25 124.71 L18.25 106.46 Z"
							class="st3"/>
				</g>
			</g>
		</g>
	</g>
</svg>
