<?xml version="1.0" encoding="UTF-8" standalone="no"?>
<!-- Generated by Microsoft Visio, SVG Export Automation Identity.svg Page-1 -->
<svg xmlns:dc="http://purl.org/dc/elements/1.1/" xmlns:cc="http://creativecommons.org/ns#" xmlns:rdf="http://www.w3.org/1999/02/22-rdf-syntax-ns#" xmlns:svg="http://www.w3.org/2000/svg" xmlns="http://www.w3.org/2000/svg" xmlns:sodipodi="http://sodipodi.sourceforge.net/DTD/sodipodi-0.dtd" xmlns:inkscape="http://www.inkscape.org/namespaces/inkscape" width="42.516841" height="56.692025" viewBox="0 0 42.516841 56.692025" xml:space="preserve" class="st8" version="1.1" id="svg59" sodipodi:docname="Automation Identity.svg" style="font-size:12px;overflow:visible;color-interpolation-filters:sRGB;fill:none;fill-rule:evenodd;stroke-linecap:square;stroke-miterlimit:3" inkscape:version="0.92.5 (2060ec1f9f, 2020-04-08)">
  <metadata id="metadata65">
    <rdf:RDF>
      <cc:Work rdf:about="">
        <dc:format>image/svg+xml</dc:format>
        <dc:type rdf:resource="http://purl.org/dc/dcmitype/StillImage" />
      </cc:Work>
    </rdf:RDF>
  </metadata>
  <defs id="defs63" />
  <sodipodi:namedview pagecolor="#ffffff" bordercolor="#666666" borderopacity="1" objecttolerance="10" gridtolerance="10" guidetolerance="10" inkscape:pageopacity="0" inkscape:pageshadow="2" inkscape:window-width="640" inkscape:window-height="480" id="namedview61" showgrid="false" inkscape:zoom="1.7946134" inkscape:cx="28.350221" inkscape:cy="20.399904" inkscape:window-x="0" inkscape:window-y="0" inkscape:window-maximized="0" inkscape:current-layer="svg59" />
	<style type="text/css" id="style2">
	<![CDATA[
		.st1 {fill:#fcd116;stroke:none;stroke-linecap:butt;stroke-width:7.92}
		.st2 {fill:#ffffff;fill-opacity:0.5;stroke:none;stroke-linecap:butt;stroke-width:7.92}
		.st3 {fill:#59b4d9;stroke:none;stroke-linecap:butt;stroke-width:7.92}
		.st4 {fill:#ffffff;stroke:none;stroke-linecap:butt;stroke-width:7.92}
		.st5 {fill:#b8d432;stroke:none;stroke-linecap:butt;stroke-width:7.92}
		.st6 {fill:#ffffff;fill-opacity:0.098;stroke:none;stroke-linecap:butt;stroke-width:7.92}
		.st7 {fill:#ff8c00;fill-opacity:0.4;stroke:none;stroke-linecap:butt;stroke-width:7.92}
		.st8 {fill:none;fill-rule:evenodd;font-size:12px;overflow:visible;stroke-linecap:square;stroke-miterlimit:3}
	]]>
	</style>

	<g id="g57" transform="translate(-7.9171877,-7.9222855)">
		<title id="title4">Page-1</title>
		<g id="group9290-1" transform="translate(7.92,-34.0157)">
			<title id="title6">Automation Identity</title>
			<g id="group9291-2">
				<title id="title8"> MSI_2</title>
				<g id="shape9292-3" transform="translate(0,-2.73658)">
					<title id="title10">Sheet.9292</title>
					<path d="m 15.82,91.08 a 2.83533,2.87434 0 0 1 0,-4.07 l 6.22,-6.31 v -5.64 l 9.19,-9.32 a 6.05654,6.13986 -180 0 0 0,-8.68 L 20.78,46.47 a 6.0571,6.14043 -180 0 0 -8.56,0 L 1.77,57.06 a 6.05542,6.13873 -180 0 0 0,8.68 l 9.92,10.06 v 0.85 l -2.82,2.86 2.8,2.84 -2.8,2.83 2.8,2.84 -2.8,2.83 2.82,2.87 v 0.03 l 4.81,4.88 3.39,-3.43 z M 13.06,52.52 A 3.43763,3.48493 0 1 1 16.5,56 3.43819,3.48549 0 0 1 13.06,52.52 Z" class="st1" id="path12" inkscape:connector-curvature="0" style="fill:#fcd116;stroke:none;stroke-width:7.92000008;stroke-linecap:butt" />
				</g>
				<g id="shape9293-5" transform="translate(6.91435,-34.4031)">
					<title id="title15">Sheet.9293</title>
					<path d="m 0,91.03 h 19.84 v 2.89 H 0 Z m 0,4.71 h 19.84 v 2.89 H 0 Z" class="st2" id="path17" inkscape:connector-curvature="0" style="fill:#ffffff;fill-opacity:0.5;stroke:none;stroke-width:7.92000008;stroke-linecap:butt" />
				</g>
				<g id="shape9294-7" transform="translate(18.2088)">
					<title id="title20">Sheet.9294</title>
					<path d="M 12.16,98.63 A 2.22465,2.25525 0 0 1 10.57,97.96 L 0.66,87.91 a 2.24142,2.27226 0 0 1 0,-3.21 l 9.91,-10.05 a 2.23975,2.27056 0 0 1 3.17,0 l 9.91,10.05 a 2.2403,2.27113 0 0 1 0,3.21 l -9.91,10.05 a 2.22465,2.25525 0 0 1 -1.58,0.67 z" class="st3" id="path22" inkscape:connector-curvature="0" style="fill:#59b4d9;stroke:none;stroke-width:7.92000008;stroke-linecap:butt" />
				</g>
				<g id="shape9295-9" transform="translate(22.5107,-3.36836)">
					<title id="title25">Sheet.9295</title>
					<path d="m 14.47,87.75 a 1.89749,1.9236 -180 0 0 -1.58,2.98 L 9.12,94.55 A 2.23192,2.26262 -180 0 0 8.8,94.36 v -9.73 a 1.90141,1.92757 -180 1 0 -1.89,0 v 9.73 A 2.19724,2.22747 -180 0 0 6.6,94.54 L 2.83,90.72 a 1.95342,1.98029 -180 1 0 -0.98,0.77 l 3.97,4.02 a 2.2129,2.24335 -180 1 0 4.07,0.01 l 3.98,-4.03 a 1.8768,1.90262 -180 0 0 0.6,0.11 1.90141,1.92757 -180 0 0 0,-3.85 z" class="st4" id="path27" inkscape:connector-curvature="0" style="fill:#ffffff;stroke:none;stroke-width:7.92000008;stroke-linecap:butt" />
				</g>
				<g id="shape9296-11" transform="translate(29.9102,-11.4514)">
					<title id="title30">Sheet.9296</title>
					<path d="m 0,91.42 0.87,-0.88 7.11,7.21 -0.87,0.88 z" class="st2" id="path32" inkscape:connector-curvature="0" style="fill:#ffffff;fill-opacity:0.5;stroke:none;stroke-width:7.92000008;stroke-linecap:butt" />
				</g>
				<g id="shape9297-13" transform="translate(22.8498,-11.4446)">
					<title id="title35">Sheet.9297</title>
					<path d="m 0,97.75 7.11,-7.21 0.87,0.88 -7.11,7.21 z" class="st2" id="path37" inkscape:connector-curvature="0" style="fill:#ffffff;fill-opacity:0.5;stroke:none;stroke-width:7.92000008;stroke-linecap:butt" />
				</g>
				<g id="shape9298-15" transform="translate(22.9989,-4.66738)">
					<title id="title40">Sheet.9298</title>
					<path d="M 8.66,97.68 A 1.31756,1.33569 0 1 1 7.34,96.35 1.317,1.33512 0 0 1 8.66,97.68 Z M 8.42,84.26 A 1.05696,1.0715 0 1 1 7.36,83.19 1.0564,1.07093 0 0 1 8.42,84.26 Z M 1.8,90.97 A 1.05696,1.0715 0 1 1 0.75,89.9 1.05752,1.07207 0 0 1 1.8,90.97 Z m 13.24,0 a 1.05752,1.07207 0 1 1 -1.06,-1.07 1.05752,1.07207 0 0 1 1.06,1.07 z" class="st5" id="path42" inkscape:connector-curvature="0" style="fill:#b8d432;stroke:none;stroke-width:7.92000008;stroke-linecap:butt" />
				</g>
				<g id="shape9299-17" transform="translate(18.2088,-5.02584)">
					<title id="title45">Sheet.9299</title>
					<path d="m 13.74,79.67 a 2.23695,2.26772 -180 0 0 -3.17,0 L 0.66,89.72 a 2.24142,2.27226 -180 0 0 0,3.22 L 6.27,98.63 16.83,82.8 Z" class="st6" id="path47" inkscape:connector-curvature="0" style="fill:#ffffff;fill-opacity:0.09800002;stroke:none;stroke-width:7.92000008;stroke-linecap:butt" />
				</g>
				<g id="shape9300-19" transform="translate(17.2938,-15.8735)">
					<title id="title50">Sheet.9300</title>
					<path d="M 2.16,96.44 V 89.11 L 0,90.19 v 8.44 z" class="st7" id="path52" inkscape:connector-curvature="0" style="fill:#ff8c00;fill-opacity:0.4;stroke:none;stroke-width:7.92000008;stroke-linecap:butt" />
				</g>
			</g>
		</g>
	</g>
</svg>