<?xml version="1.0" encoding="UTF-8" standalone="no"?>
<!DOCTYPE svg PUBLIC "-//W3C//DTD SVG 1.1//EN" "http://www.w3.org/Graphics/SVG/1.1/DTD/svg11.dtd">
<!-- Generated by Microsoft Visio, SVG Export Azure Synapse Analytics Spark Pool.svg Page-1 -->
<svg xmlns="http://www.w3.org/2000/svg" xmlns:xlink="http://www.w3.org/1999/xlink" xmlns:ev="http://www.w3.org/2001/xml-events"
		width="0.944882in" height="1.33858in" viewBox="0 0 68.0315 96.378" xml:space="preserve" color-interpolation-filters="sRGB"
		class="st6">
	<style type="text/css">
	<![CDATA[
		.st1 {fill:#0078d4;stroke:none;stroke-linecap:butt;stroke-width:0.75}
		.st2 {fill:url(#grad0-12);stroke:none;stroke-linecap:butt;stroke-width:0.75}
		.st3 {fill:#50e6ff;stroke:none;stroke-linecap:butt;stroke-width:0.75}
		.st4 {fill:url(#grad0-20);stroke:none;stroke-linecap:butt;stroke-width:0.75}
		.st5 {fill:#000000;stroke:none;stroke-linecap:butt;stroke-width:0.75}
		.st6 {fill:none;fill-rule:evenodd;font-size:12px;overflow:visible;stroke-linecap:square;stroke-miterlimit:3}
	]]>
	</style>

	<defs id="Patterns_And_Gradients">
		<linearGradient id="grad0-12" x1="0" y1="0" x2="1" y2="0" gradientTransform="rotate(-90 0.5 0.5)">
			<stop offset="0.2" stop-color="#005ba1" stop-opacity="1"/>
			<stop offset="1" stop-color="#0078d4" stop-opacity="1"/>
		</linearGradient>
		<linearGradient id="grad0-20" x1="0" y1="0" x2="1" y2="0" gradientTransform="rotate(-90 0.5 0.5)">
			<stop offset="0" stop-color="#198ab3" stop-opacity="1"/>
			<stop offset="0.17" stop-color="#32bedd" stop-opacity="1"/>
			<stop offset="0.5" stop-color="#50e6ff" stop-opacity="1"/>
			<stop offset="0.5" stop-color="#4fe4fd" stop-opacity="1"/>
			<stop offset="0.5" stop-color="#4bddf8" stop-opacity="1"/>
			<stop offset="0.5" stop-color="#44d2ee" stop-opacity="1"/>
			<stop offset="0.5" stop-color="#3ac1e0" stop-opacity="1"/>
			<stop offset="0.5" stop-color="#2dabce" stop-opacity="1"/>
			<stop offset="0.5" stop-color="#1d90b8" stop-opacity="1"/>
			<stop offset="0.5" stop-color="#198ab3" stop-opacity="1"/>
			<stop offset="0.66" stop-color="#32bedd" stop-opacity="1"/>
			<stop offset="0.975" stop-color="#50e6ff" stop-opacity="1"/>
		</linearGradient>
	</defs>
	<g>
		<title>Page-1</title>
		<g id="group7118-1" transform="translate(5.66929,-34.0157)">
			<title>Azure Synapse Analytics Spark Pool</title>
			<g id="group7119-2">
				<title>Page-1</title>
				<g id="group7120-3">
					<title>Sheet.7120</title>
					<g id="group7121-4" transform="translate(0,-9.48043)">
						<title>Sheet.7121</title>
						<g id="group7122-5">
							<title>Sheet.7122</title>
							<g id="shape7123-6">
								<title>Sheet.7123</title>
								<path d="M21.2 49.17 L0 60.94 L0 84.47 L21.2 96.38 L42.39 84.6 L42.39 60.99 L21.2 49.17 ZM38.47 82.13
											 L21.2 91.84 L3.91 82.23 L3.91 63.27 L21.2 53.57 L38.47 63.3 L38.47 82.13 Z"
										class="st1"/>
							</g>
						</g>
						<g id="group7124-8" transform="translate(0,-33.0995)">
							<title>Sheet.7124</title>
							<g id="shape7125-9">
								<title>Sheet.7125</title>
								<path d="M21.2 82.27 L0 94.04 L3.91 96.38 L21.2 86.67 L38.47 96.38 L42.39 94.04 L21.2 82.27 Z"
										class="st2"/>
							</g>
						</g>
						<g id="group7126-13" transform="translate(6.64957,-5.89864)">
							<title>Sheet.7126</title>
							<g id="shape7127-14">
								<title>Sheet.7127</title>
								<path d="M24.64 82.54 A1.97085 1.91463 -180 0 0 23.77 81.79 A15.7532 15.3039 -180 0 0 11.68 73.01
											 L29.17 63.19 L25.1 60.92 L5.18 72.11 A2.02484 1.96709 -180 0 0 6.2 75.79 A1.84665 1.79399
											 -180 0 0 6.44 75.72 L6.78 77.1 A11.6604 11.3278 0 0 1 19.85 82.96 L0 94.11 L4.05 96.38
											 L23.91 85.23 A1.96815 1.91201 -180 0 0 24.55 84.6 L24.76 84.56 C24.73 84.48 24.71 84.41
											 24.69 84.34 A1.98434 1.92774 -180 0 0 24.64 82.54 Z" class="st3"/>
							</g>
						</g>
						<g id="group7128-16" transform="translate(9.32238,-15.2857)">
							<title>Sheet.7128</title>
							<g id="shape7129-17">
								<title>Sheet.7129</title>
								<path d="M20.21 88.09 A4.99459 4.85214 -180 1 0 25.22 92.94 A4.99459 4.85214 -180 0 0 20.21 88.09
											 ZM3.52 78.26 A4.99459 4.85214 -180 1 0 8.52 83.11 A4.99459 4.85214 -180 0 0 3.52 78.26
											 Z" class="st4"/>
							</g>
						</g>
					</g>
					<g id="group7130-21" transform="translate(34.4427,2.98428E-13)">
						<title>Sheet.7130</title>
						<g id="group7131-22">
							<title>Sheet.7131</title>
							<g id="shape7132-23">
								<title>Sheet.7132</title>
								<path d="M22.25 89.81 L19.02 91.59 L22.25 93.36 L21.55 94.6 L18.3 92.82 L18.3 96.38 L16.9 96.38 L16.9
											 92.82 L13.67 94.6 L12.96 93.36 L16.19 91.59 L12.96 89.81 L13.67 88.58 L16.9 90.35 L16.9
											 86.79 L18.3 86.79 L18.3 90.35 L21.55 88.58 L22.25 89.81 ZM8.45 78.59 L8.45 82.69 L11.27
											 82.69 L7.04 88.17 L7.04 84.06 L4.23 84.06 L8.45 78.59 ZM10.71 92.27 C10.77 92.35 10.84
											 92.44 10.91 92.56 C10.97 92.68 11.03 92.79 11.08 92.91 C11.14 93.03 11.17 93.16 11.22
											 93.28 C11.25 93.41 11.27 93.54 11.27 93.63 L9.85 93.63 L9.85 95 L8.45 95 L8.45 93.63
											 L7.04 93.63 L7.04 95 L5.64 95 L5.64 93.63 L4.23 93.63 L4.23 95 L2.81 95 L2.81 93.63
											 L1.41 93.63 L1.41 92.27 L0 92.27 L0 90.9 L1.41 90.9 L1.41 89.54 L0 89.54 L0 88.17 L1.41
											 88.17 L1.41 86.79 L0 86.79 L0 85.43 L1.41 85.43 L1.41 84.06 L0 84.06 L0 82.69 L1.41
											 82.69 L1.41 81.33 L0 81.33 L0 79.95 L1.41 79.95 L1.41 78.59 L0 78.59 L0 77.22 L1.41
											 77.22 L1.41 75.85 L2.81 75.85 L2.81 74.49 L4.23 74.49 L4.23 75.85 L5.64 75.85 L5.64
											 74.49 L7.04 74.49 L7.04 75.85 L8.45 75.85 L8.45 74.49 L9.85 74.49 L9.85 75.85 L11.27
											 75.85 L11.27 74.49 L12.68 74.49 L12.68 75.85 L14.08 75.85 L14.08 74.49 L15.49 74.49
											 L15.49 75.85 L16.9 75.85 L16.9 74.49 L18.3 74.49 L18.3 75.85 L19.72 75.85 L19.72 77.22
											 L21.13 77.22 L21.13 78.59 L19.72 78.59 L19.72 79.95 L21.13 79.95 L21.13 81.33 L19.72
											 81.33 L19.72 82.69 L21.13 82.69 L21.13 84.06 L19.72 84.06 L19.72 85.43 L18.3 85.43 L18.3
											 77.22 L2.81 77.22 L2.81 92.27 L10.71 92.27 Z" class="st5"/>
							</g>
						</g>
					</g>
				</g>
			</g>
		</g>
	</g>
</svg>
