<?xml version="1.0" encoding="UTF-8" standalone="no"?>
<!DOCTYPE svg PUBLIC "-//W3C//DTD SVG 1.1//EN" "http://www.w3.org/Graphics/SVG/1.1/DTD/svg11.dtd">
<!-- Generated by Microsoft Visio, SVG Export Azure Active Directory Risky sign-in.svg Page-1 -->
<svg xmlns="http://www.w3.org/2000/svg" xmlns:xlink="http://www.w3.org/1999/xlink" xmlns:ev="http://www.w3.org/2001/xml-events"
		width="1.5748in" height="1.85039in" viewBox="0 0 113.386 133.228" xml:space="preserve" color-interpolation-filters="sRGB"
		class="st4">
	<style type="text/css">
	<![CDATA[
		.st1 {fill:#57a300;stroke:none;stroke-linecap:butt;stroke-width:0.489424}
		.st2 {fill:#0072c6;stroke:none;stroke-linecap:butt;stroke-width:0.489424}
		.st3 {fill:#ff8c00;stroke:none;stroke-linecap:butt;stroke-width:0.489424}
		.st4 {fill:none;fill-rule:evenodd;font-size:12px;overflow:visible;stroke-linecap:square;stroke-miterlimit:3}
	]]>
	</style>

	<g>
		<title>Page-1</title>
		<g id="group4887-1" transform="translate(28.3465,-70.8661)">
			<title>Azure-Active-Directory-Risky-Sign-in</title>
			<g id="group4888-2">
				<title>g16</title>
				<g id="shape4889-3" transform="translate(0,-16.5648)">
					<title>path10</title>
					<path d="M28.52 118.37 L19.03 109.45 L26.58 109.45 L39.37 121.34 L26.78 133.23 L19.03 133.23 L28.52 124.31 L1.7
								 124.31 C0.73 124.31 0 123.22 0 122.25 L0 119.79 C0 118.83 0.73 118.36 1.7 118.36 L28.52 118.37 Z"
							class="st1"/>
				</g>
				<g id="shape4890-5" transform="translate(3.77134,-0.215907)">
					<title>path12</title>
					<path d="M1.53 91.78 A4.70288 4.66465 -180 0 0 8.18 91.68 L8.29 91.58 A19.0156 18.861 0 0 1 35.18 91.86 C35.26
								 91.94 35.34 92.02 35.42 92.1 A18.9207 18.7668 0 0 1 40.71 106.55 A4.8393 4.79996 0 0 1 42.86 108.48
								 L42.87 108.5 L42.88 108.52 L47.69 116.81 A28.4812 28.2497 -180 0 0 41.93 84.99 A28.843 28.6085 -180
								 0 0 21.68 76.75 A28.5358 28.3038 -180 0 0 1.43 84.99 C1.4 85.02 1.36 85.05 1.33 85.09 A4.70288 4.66465
								 -180 0 0 1.43 91.68 C1.46 91.72 1.5 91.75 1.53 91.78 ZM22.33 131.18 A4.90217 4.86232 0 0 1 23.01
								 128.83 L25.99 123.55 A18.9574 18.8033 0 0 1 8.18 118.29 A5.19873 5.15647 -180 0 0 8.08 118.2 A4.70288
								 4.66465 -180 0 0 1.43 118.29 C1.39 118.33 1.36 118.36 1.33 118.39 A4.70288 4.66465 -180 0 0 1.43
								 124.99 A28.8436 28.6091 -180 0 0 21.68 133.23 C22.04 133.23 22.4 133.22 22.76 133.21 A4.57892 4.54169
								 0 0 1 22.33 131.18 Z" class="st2"/>
				</g>
				<g id="shape4891-7" transform="translate(28.7179,2.84217E-13)">
					<title>path14</title>
					<path d="M27.85 129.79 L21.86 119.79 L15.88 109.47 A2.22718 2.20907 -180 0 0 13.99 108.3 A2.22718 2.20907 -180
								 0 0 12.1 109.48 L6.11 119.16 L0.12 129.79 A2.20998 2.19201 -180 0 0 2.01 133.23 L25.96 133.23 A2.20998
								 2.19201 -180 0 0 27.85 129.79 ZM14.3 115.73 L15.88 115.73 L15.25 124.79 L12.73 124.79 L12.41 115.73
								 L14.3 115.73 ZM13.99 129.47 A1.89029 1.87492 0 0 1 12.1 127.6 A1.89029 1.87492 0 0 1 13.99 125.73
								 A1.89029 1.87492 0 0 1 15.88 127.6 A1.89029 1.87492 0 0 1 13.99 129.47 L13.99 129.47 Z"
							class="st3"/>
				</g>
			</g>
		</g>
	</g>
</svg>
