<?xml version="1.0" encoding="UTF-8" standalone="no"?>
<!-- Generated by Microsoft Visio, SVG Export Azure Database for MySQL.svg Page-1 -->

<svg
   xmlns:dc="http://purl.org/dc/elements/1.1/"
   xmlns:cc="http://creativecommons.org/ns#"
   xmlns:rdf="http://www.w3.org/1999/02/22-rdf-syntax-ns#"
   xmlns:svg="http://www.w3.org/2000/svg"
   xmlns="http://www.w3.org/2000/svg"
   xmlns:sodipodi="http://sodipodi.sourceforge.net/DTD/sodipodi-0.dtd"
   xmlns:inkscape="http://www.inkscape.org/namespaces/inkscape"
   width="0.59055233in"
   height="0.78748322in"
   viewBox="0 0 42.519769 56.699102"
   xml:space="preserve"
   class="st6"
   version="1.1"
   id="svg55"
   sodipodi:docname="Azure Database for MySQL.svg"
   style="font-size:12px;overflow:visible;color-interpolation-filters:sRGB;fill:none;fill-rule:evenodd;stroke-linecap:square;stroke-miterlimit:3"
   inkscape:version="0.92.5 (2060ec1f9f, 2020-04-08)"><metadata
   id="metadata59"><rdf:RDF><cc:Work
       rdf:about=""><dc:format>image/svg+xml</dc:format><dc:type
         rdf:resource="http://purl.org/dc/dcmitype/StillImage" /></cc:Work></rdf:RDF></metadata><sodipodi:namedview
   pagecolor="#ffffff"
   bordercolor="#666666"
   borderopacity="1"
   objecttolerance="10"
   gridtolerance="10"
   guidetolerance="10"
   inkscape:pageopacity="0"
   inkscape:pageshadow="2"
   inkscape:window-width="640"
   inkscape:window-height="480"
   id="namedview57"
   showgrid="false"
   inkscape:zoom="1.4193119"
   inkscape:cx="28.346509"
   inkscape:cy="37.786193"
   inkscape:window-x="0"
   inkscape:window-y="0"
   inkscape:window-maximized="0"
   inkscape:current-layer="svg55" />
	<style
   type="text/css"
   id="style2">
	<![CDATA[
		.st1 {fill:url(#grad0-6);stroke:none;stroke-linecap:butt;stroke-width:34}
		.st2 {fill:#e8e8e8;stroke:none;stroke-linecap:butt;stroke-width:34}
		.st3 {fill:#50e6ff;stroke:none;stroke-linecap:butt;stroke-width:34}
		.st4 {fill:#198ab3;stroke:none;stroke-linecap:butt;stroke-width:34}
		.st5 {fill:#f2f2f2;stroke:none;stroke-linecap:butt;stroke-width:34}
		.st6 {fill:none;fill-rule:evenodd;font-size:12px;overflow:visible;stroke-linecap:square;stroke-miterlimit:3}
	]]>
	</style>

	<defs
   id="Patterns_And_Gradients">
		<linearGradient
   id="grad0-6"
   x1="0"
   y1="70.5925"
   x2="45.626519"
   y2="70.5925"
   gradientTransform="scale(0.93191419,1.0730602)"
   gradientUnits="userSpaceOnUse">
			<stop
   offset="0"
   stop-color="#005ba1"
   stop-opacity="1"
   id="stop4" />
			<stop
   offset="0.07"
   stop-color="#0060a9"
   stop-opacity="1"
   id="stop6" />
			<stop
   offset="0.36"
   stop-color="#0071c8"
   stop-opacity="1"
   id="stop8" />
			<stop
   offset="0.52"
   stop-color="#0078d4"
   stop-opacity="1"
   id="stop10" />
			<stop
   offset="0.64"
   stop-color="#0074cd"
   stop-opacity="1"
   id="stop12" />
			<stop
   offset="0.82"
   stop-color="#006abb"
   stop-opacity="1"
   id="stop14" />
			<stop
   offset="1"
   stop-color="#005ba1"
   stop-opacity="1"
   id="stop16" />
		</linearGradient>
	</defs>
	<g
   id="g53"
   transform="translate(-34.000303,-33.9952)">
		<title
   id="title20">Page-1</title>
		<g
   id="group9348-1"
   transform="translate(34,-34.0157)">
			<title
   id="title22">Azure Database for MySQL</title>
			<g
   id="group9349-2">
				<title
   id="title24">Icon-databases-122</title>
				<g
   id="shape9350-3">
					<title
   id="title26">Sheet.9350</title>
					<path
   d="M 21.26,83.49 C 9.52,83.49 0,80.15 0,75.75 v 41.22 c 0,4.24 9.35,7.67 20.96,7.74 h 0.3 c 11.74,0 21.26,-3.34 21.26,-7.74 V 75.75 c 0,4.3 -9.52,7.74 -21.26,7.74 z"
   class="st1"
   id="path28"
   inkscape:connector-curvature="0"
   style="fill:url(#grad0-6);stroke:none;stroke-width:34;stroke-linecap:butt" />
				</g>
				<g
   id="shape9351-7"
   transform="translate(0,-41.2191)">
					<title
   id="title31">Sheet.9351</title>
					<path
   d="m 42.52,116.97 c 0,4.3 -9.52,7.74 -21.26,7.74 C 9.52,124.71 0,121.37 0,116.97 c 0,-4.4 9.52,-7.74 21.26,-7.74 11.74,0 21.26,3.34 21.26,7.74 z"
   class="st2"
   id="path33"
   inkscape:connector-curvature="0"
   style="fill:#e8e8e8;stroke:none;stroke-width:34;stroke-linecap:butt" />
				</g>
				<g
   id="shape9352-9"
   transform="translate(4.94184,-44.654)">
					<title
   id="title36">Sheet.9352</title>
					<path
   d="m 32.64,119.77 c 0,2.74 -7.33,4.94 -16.32,4.94 -8.99,0 -16.32,-2.2 -16.32,-4.94 0,-2.73 7.33,-4.9 16.32,-4.9 8.99,0 16.32,2.2 16.32,4.9 z"
   class="st3"
   id="path38"
   inkscape:connector-curvature="0"
   style="fill:#50e6ff;stroke:none;stroke-width:34;stroke-linecap:butt" />
				</g>
				<g
   id="shape9353-11"
   transform="translate(8.358,-44.654)">
					<title
   id="title41">Sheet.9353</title>
					<path
   d="m 12.9,121.01 a 38.3075,38.5178 -180 0 0 -12.9,1.9 37.8763,38.0843 -180 0 0 12.9,1.8 36.9808,37.1839 -180 0 0 12.9,-1.94 39.2694,39.4849 -180 0 0 -12.9,-1.76 z"
   class="st4"
   id="path43"
   inkscape:connector-curvature="0"
   style="fill:#198ab3;stroke:none;stroke-width:34;stroke-linecap:butt" />
				</g>
				<g
   id="shape9354-13"
   transform="translate(4.8755,-15.107)">
					<title
   id="title46">Sheet.9354</title>
					<path
   d="m 28.46,111.47 v 5.44 h -3.32 a 1.2935,1.3006 0 0 1 -0.96,-0.47 v -4.97 H 19.7 v 5.94 a 3.05133,3.06809 -180 0 0 3.32,2.96 h 4.94 l 0.86,-0.43 c 0,0 -0.36,1.37 -0.86,1.43 h -7.89 v 3.34 h 8.82 a 4.01317,4.0352 -180 0 0 4.08,-4.24 v -9 z m -10.32,0 v -1.63 a 2.32167,2.33441 -180 0 0 -1.59,-2.57 5.771,5.80269 -180 0 0 -1.66,-0.27 3.11767,3.13478 -180 0 0 -3.02,1.93 l -2.58,6.34 -3.32,-6.34 A 3.0845,3.10144 -180 0 0 3.12,107 4.776,4.80222 -180 0 0 1.43,107.3 C 0.27,107.67 0,108.43 0,109.74 v 11.03 h 3.88 v -7.43 l 2.09,5.23 a 3.582,3.60167 -180 0 0 3.32,2.2 c 1.46,0 2.05,-0.86 2.65,-2.2 l 2.22,-5.03 v 7.17 h 3.92 v -9.24 z"
   class="st5"
   id="path48"
   inkscape:connector-curvature="0"
   style="fill:#f2f2f2;stroke:none;stroke-width:34;stroke-linecap:butt" />
				</g>
			</g>
		</g>
	</g>
</svg>