<?xml version="1.0" encoding="UTF-8" standalone="no"?>
<!DOCTYPE svg PUBLIC "-//W3C//DTD SVG 1.1//EN" "http://www.w3.org/Graphics/SVG/1.1/DTD/svg11.dtd">
<!-- Generated by Microsoft Visio, SVG Export Azure AD B2B.svg Page-1 -->
<svg xmlns="http://www.w3.org/2000/svg" xmlns:xlink="http://www.w3.org/1999/xlink" xmlns:ev="http://www.w3.org/2001/xml-events"
		width="1.6076in" height="1.63057in" viewBox="0 0 115.747 117.401" xml:space="preserve" color-interpolation-filters="sRGB"
		class="st11">
	<style type="text/css">
	<![CDATA[
		.st1 {fill:#50e6ff;stroke:none;stroke-linecap:butt;stroke-width:29.5271}
		.st2 {fill:#ffffff;stroke:none;stroke-linecap:butt;stroke-width:29.5271}
		.st3 {fill:url(#grad0-12);stroke:none;stroke-linecap:butt;stroke-width:29.5271}
		.st4 {fill:#53b1e0;stroke:none;stroke-linecap:butt;stroke-width:29.5271}
		.st5 {fill:#9cebff;stroke:none;stroke-linecap:butt;stroke-width:29.5271}
		.st6 {fill:#5ea0ef;stroke:none;stroke-linecap:butt;stroke-width:29.5271}
		.st7 {fill:#773adc;stroke:none;stroke-linecap:butt;stroke-width:27.2242}
		.st8 {fill:#ffffff;fill-opacity:0.8;stroke:none;stroke-linecap:butt;stroke-width:27.2242}
		.st9 {fill:#a67af4;stroke:none;stroke-linecap:butt;stroke-width:29.5271}
		.st10 {fill:#ffffff;fill-opacity:0.8;stroke:none;stroke-linecap:butt;stroke-width:29.5271}
		.st11 {fill:none;fill-rule:evenodd;font-size:12px;overflow:visible;stroke-linecap:square;stroke-miterlimit:3}
	]]>
	</style>

	<defs id="Patterns_And_Gradients">
		<linearGradient id="grad0-12" x1="0" y1="0" x2="1" y2="0" gradientTransform="rotate(-133.56953888094 0.5 0.5)">
			<stop offset="0" stop-color="#1988d9" stop-opacity="1"/>
			<stop offset="0.9" stop-color="#54aef0" stop-opacity="1"/>
		</linearGradient>
	</defs>
	<g>
		<title>Page-1</title>
		<g id="group6848-1" transform="translate(29.5271,-34.0157)">
			<title>Azure AD B2B</title>
			<g id="group6849-2">
				<title>layer1</title>
				<g id="shape6850-3" transform="translate(0,-1.17538)">
					<title>path4</title>
					<path d="M3.18 94.9 L28.13 111.39 L53.51 94.84 L56.69 98.6 L28.13 117.4 L0 98.63 L3.18 94.9 Z" class="st1"/>
				</g>
				<g id="shape6851-5" transform="translate(5.07086,-10.5934)">
					<title>path6</title>
					<path d="M0 102.2 L23.06 74.14 L46.58 102.23 L23.06 117.4 L0 102.2 Z" class="st2"/>
				</g>
				<g id="shape6852-7" transform="translate(5.07086,-10.5934)">
					<title>path8</title>
					<path d="M23.06 74.14 L23.06 117.4 L0 102.2 L23.06 74.14 Z" class="st1"/>
				</g>
				<g id="shape6853-9" transform="translate(28.126,-10.5934)">
					<title>path10</title>
					<path d="M0 74.14 L0 117.4 L23.53 102.23 L0 74.14 Z" class="st3"/>
				</g>
				<g id="shape6854-13" transform="translate(28.126,-10.5934)">
					<title>path12</title>
					<path d="M0 96.48 L23.53 102.23 L0 117.4 L0 96.48 Z" class="st4"/>
				</g>
				<g id="shape6855-15" transform="translate(5.07086,-10.5934)">
					<title>path14</title>
					<path d="M23.06 117.4 L0 102.2 L23.06 96.48 L23.06 117.4 Z" class="st5"/>
				</g>
				<g id="shape6856-17" transform="translate(28.126,-1.17538)">
					<title>path16</title>
					<path d="M0 117.4 L28.57 98.6 L25.39 94.84 L0 111.39 L0 117.4 Z" class="st6"/>
				</g>
				<g id="shape6857-19" transform="translate(41.461,-5.68557)">
					<title>path18-6</title>
					<path d="M12.35 117.25 A1.37328 1.21328 -90 0 0 13.57 115.87 A7.80272 6.89363 -90 0 0 6.81 108.07 C2.59 108.07
								 0.41 111.03 0 115.87 A1.40449 1.24085 -90 0 0 1.08 117.4 L12.35 117.4 L12.35 117.25 Z" class="st7"/>
				</g>
				<g id="shape6858-21" transform="translate(46.2039,-8.68155)">
					<title>path20-8</title>
					<path d="M2.07 112.06 A4.21347 3.72256 90 0 1 0 111.38 L2.04 117.4 L4.05 111.41 A4.3071 3.80528 90 0 1 2.07 112.06
								 L2.07 112.06 Z" class="st8"/>
				</g>
				<g id="shape6859-23" transform="translate(44.4667,-14.0189)">
					<title>circle22-3</title>
					<ellipse cx="3.80528" cy="113.094" rx="3.80528" ry="4.3071" class="st7"/>
				</g>
				<g id="shape6860-25" transform="translate(25.138,-2.55795E-13)">
					<title>path24</title>
					<path d="M21.04 117.4 A2.04724 2.08932 -180 0 0 23.12 115.28 L23.12 115.02 C22.3 108.43 18.61 103.03 11.56 103.03
								 C4.5 103.03 0.69 107.6 0 115.05 A2.04724 2.08932 -180 0 0 1.83 117.37 L21.07 117.37 L21.04 117.4
								 Z" class="st9"/>
				</g>
				<g id="shape6861-27" transform="translate(33.2955,-4.4356)">
					<title>path26</title>
					<path d="M3.5 109.04 A6.29921 6.42866 0 0 1 0 107.98 L3.46 117.4 L6.93 108.18 A6.29921 6.42866 0 0 1 3.5 109.04
								 L3.5 109.04 Z" class="st10"/>
				</g>
				<g id="shape6862-29" transform="translate(30.2719,-12.793)">
					<title>circle28</title>
					<ellipse cx="6.48819" cy="110.78" rx="6.48819" ry="6.62152" class="st9"/>
				</g>
			</g>
		</g>
	</g>
</svg>
