<?xml version="1.0" encoding="UTF-8" standalone="no"?>
<!-- Generated by Microsoft Visio, SVG Export Azure Quantum.svg Page-1 -->

<svg
   xmlns:dc="http://purl.org/dc/elements/1.1/"
   xmlns:cc="http://creativecommons.org/ns#"
   xmlns:rdf="http://www.w3.org/1999/02/22-rdf-syntax-ns#"
   xmlns:svg="http://www.w3.org/2000/svg"
   xmlns="http://www.w3.org/2000/svg"
   xmlns:sodipodi="http://sodipodi.sourceforge.net/DTD/sodipodi-0.dtd"
   xmlns:inkscape="http://www.inkscape.org/namespaces/inkscape"
   width="0.63096499in"
   height="0.78739482in"
   viewBox="0 0 45.429722 56.69241"
   xml:space="preserve"
   class="st6"
   version="1.1"
   id="svg55"
   sodipodi:docname="Azure Quantum.svg"
   style="font-size:12px;overflow:visible;color-interpolation-filters:sRGB;fill:none;fill-rule:evenodd;stroke-linecap:square;stroke-miterlimit:3"
   inkscape:version="0.92.5 (2060ec1f9f, 2020-04-08)"><metadata
   id="metadata59"><rdf:RDF><cc:Work
       rdf:about=""><dc:format>image/svg+xml</dc:format><dc:type
         rdf:resource="http://purl.org/dc/dcmitype/StillImage" /></cc:Work></rdf:RDF></metadata><sodipodi:namedview
   pagecolor="#ffffff"
   bordercolor="#666666"
   borderopacity="1"
   objecttolerance="10"
   gridtolerance="10"
   guidetolerance="10"
   inkscape:pageopacity="0"
   inkscape:pageshadow="2"
   inkscape:window-width="640"
   inkscape:window-height="480"
   id="namedview57"
   showgrid="false"
   inkscape:zoom="1.4193037"
   inkscape:cx="30.288555"
   inkscape:cy="37.78255"
   inkscape:window-x="0"
   inkscape:window-y="0"
   inkscape:window-maximized="0"
   inkscape:current-layer="svg55" />
	<style
   type="text/css"
   id="style2">
	<![CDATA[
		.st1 {fill:url(#grad0-6);stroke:none;stroke-linecap:butt;stroke-width:34}
		.st2 {fill:url(#grad0-10);stroke:none;stroke-linecap:butt;stroke-width:34}
		.st3 {fill:#773adc;stroke:none;stroke-linecap:butt;stroke-width:34}
		.st4 {fill:url(#grad0-16);stroke:none;stroke-linecap:butt;stroke-width:34}
		.st5 {fill:#552f99;stroke:none;stroke-linecap:butt;stroke-width:34}
		.st6 {fill:none;fill-rule:evenodd;font-size:12px;overflow:visible;stroke-linecap:square;stroke-miterlimit:3}
	]]>
	</style>

	<defs
   id="Patterns_And_Gradients">
		<linearGradient
   id="grad0-6"
   x1="0"
   y1="59.516159"
   x2="30.855936"
   y2="59.516159"
   gradientTransform="scale(0.72465797,1.3799614)"
   gradientUnits="userSpaceOnUse">
			<stop
   offset="0"
   stop-color="#773adc"
   stop-opacity="1"
   id="stop4" />
			<stop
   offset="1"
   stop-color="#a67af4"
   stop-opacity="1"
   id="stop6" />
		</linearGradient>
		<linearGradient
   id="grad0-10"
   x1="0"
   y1="83.46753"
   x2="43.81586"
   y2="83.46753"
   gradientTransform="scale(1.020635,0.9797822)"
   gradientUnits="userSpaceOnUse">
			<stop
   offset="0"
   stop-color="#552f99"
   stop-opacity="1"
   id="stop9" />
			<stop
   offset="1"
   stop-color="#773adc"
   stop-opacity="1"
   id="stop11" />
		</linearGradient>
		<linearGradient
   id="grad0-16"
   x1="0"
   y1="55.689516"
   x2="38.736582"
   y2="55.689516"
   gradientTransform="scale(0.75716541,1.3207154)"
   gradientUnits="userSpaceOnUse">
			<stop
   offset="0"
   stop-color="#a67af4"
   stop-opacity="1"
   id="stop14" />
			<stop
   offset="1"
   stop-color="#773adc"
   stop-opacity="1"
   id="stop16" />
		</linearGradient>
	</defs>
	<g
   id="g53"
   transform="translate(-33.999963,-33.999184)">
		<title
   id="title20">Page-1</title>
		<g
   id="group8723-1"
   transform="translate(34.0514,-34.0157)">
			<title
   id="title22">Azure Quantum</title>
			<g
   id="group8724-2">
				<title
   id="title24">Sheet.8724</title>
				<g
   id="shape8725-3"
   transform="translate(0.273598,-0.441122)">
					<title
   id="title26">Sheet.8725</title>
					<path
   d="m 7.63,82.13 7.72,4.01 7.01,38.57 L 0,111.78 Z"
   class="st1"
   id="path28"
   inkscape:connector-curvature="0"
   style="fill:url(#grad0-6);stroke:none;stroke-width:34;stroke-linecap:butt" />
				</g>
				<g
   id="shape8726-7"
   transform="translate(0.273598,-13.366)">
					<title
   id="title31">Sheet.8726</title>
					<path
   d="M 37.71,85.78 30,81.78 8.04,94.81 A 1.15729,1.15952 -180 0 0 7.51,95.52 L 0,124.71 22.36,111.43 44.72,124.35 Z"
   class="st2"
   id="path33"
   inkscape:connector-curvature="0"
   style="fill:url(#grad0-10);stroke:none;stroke-width:34;stroke-linecap:butt" />
				</g>
				<g
   id="shape8727-11"
   transform="translate(15.6234,-1.23531)">
					<title
   id="title36">Sheet.8727</title>
					<path
   d="M 0,86.94 22.36,73.65 29.37,112.21 8.45,124.65 A 1.16043,1.16267 0 0 1 6.71,123.86 Z"
   class="st3"
   id="path38"
   inkscape:connector-curvature="0"
   style="fill:#773adc;stroke:none;stroke-width:34;stroke-linecap:butt" />
				</g>
				<g
   id="shape8728-13"
   transform="translate(15.3341,-1.4305)">
					<title
   id="title41">Sheet.8728</title>
					<path
   d="m 22.59,108.43 5.73,-3.33 -0.05,-0.28 -5.72,3.33 v -8.16 l 5.42,3.15 -0.06,-0.33 -5.35,-3.12 V 99.5 l -0.17,0.1 4.48,-2.6 -0.05,-0.27 -4.34,2.52 v -8.23 l 3.69,2.14 -0.06,-0.31 -3.5,-2.03 2.83,-1.65 -0.05,-0.26 -2.91,1.69 v -8.3 l 1.92,1.13 -0.06,-0.33 -1.89,-1.11 v -8.22 a 1.4246,1.42734 -180 0 0 -0.24,-0.22 l -0.79,0.47 0.78,-0.45 v 8.27 l -7.01,-4.09 -0.47,0.27 v 8.11 L 7.81,82.12 5.44,83.53 7.36,82.41 V 90.6 L 0.38,86.54 0,86.77 0.25,88.12 v -1.36 l 7.05,4.1 v 0.02 l -5.88,3.44 0.06,0.32 6,-3.5 v 8.22 l -5.72,-3.31 0.08,0.42 5.41,3.15 -4.34,2.52 0.05,0.29 4.43,-2.57 v 8.2 l -3.77,-2.21 0.06,0.34 3.59,2.08 -2.88,1.67 0.06,0.31 2.9,-1.68 v 8.32 l -1.86,-1.09 0.07,0.34 1.57,0.92 -1.26,0.72 0.05,0.28 1.34,-0.77 v 7.21 a 1.1793,1.18158 -180 0 0 0.26,0.21 v -7.41 l 6.96,4.03 0.25,-0.15 -7.08,-4.09 7.09,-4.12 v 8.22 l 0.25,-0.15 v -8.07 l 6.88,3.99 0.25,-0.15 -6.99,-4.06 7.07,-4.12 v 8.11 l 0.25,-0.15 v -7.94 l 6.72,3.9 a 1.20446,1.20678 -180 0 0 0.16,-0.21 z m -7.62,-30.52 7.04,4.12 -7.04,4.1 z m -0.23,8.91 v 8.15 L 7.82,90.94 7.88,90.9 7.78,90.86 Z m 0,8.46 -7.01,4.08 V 91.2 Z M 7.62,82.3 14.7,86.43 v 0.1 l -7.08,4.13 z m 7.11,21.67 -7.09,4.09 v -8.2 z M 7.59,116.8 v -8.16 l 7.01,4.1 z m 7.24,-4.25 -7.17,-4.18 7.17,-4.15 z m 0.04,-8.8 -7.08,-4.1 7.08,-4.11 z m 0.1,-17.3 7.23,-4.21 v 8.54 l -7.23,-4.23 z m 0.17,8.9 0.12,-0.07 -0.06,-0.01 7,-4.1 v 8.28 z m 6.99,4.35 -7.01,4.07 v -8.14 z m -7.16,-12.86 7.07,4.12 -7.07,4.12 z m 0.09,25.63 v -8.12 l 6.98,4.07 z m 7.23,-4.21 -7.15,-4.17 7.15,-4.15 z"
   class="st4"
   id="path43"
   inkscape:connector-curvature="0"
   style="fill:url(#grad0-16);stroke:none;stroke-width:34;stroke-linecap:butt" />
				</g>
				<g
   id="shape8729-17">
					<title
   id="title46">Sheet.8729</title>
					<path
   d="m 38.53,72.52 c 0,-0.08 -0.1,-0.11 -0.14,-0.18 A 0.70758,0.708946 -180 0 0 38.07552,71.842162 L 31.07,68.2 a 1.67303,1.67626 -180 0 0 -1.62,0.05 L 7.66,81.2 A 0.512603,0.513592 -180 0 0 7.408416,81.653725 L 7.41,81.67 c 0,0.03 -0.05,0.04 -0.06,0.07 L 0,110.31 a 1.68561,1.68887 -180 0 0 0.78,1.87 l 21.6,12.48 h 0.04 a 0.490589,0.491536 -180 0 0 0.210702,0.0473 0.518892,0.519894 -180 0 0 0.261019,-0.0725 L 44.56,111.8 a 1.67618,1.67941 -180 0 0 0.79,-1.75 z m -8.54,-3.39 a 0.62896,0.630174 0 0 1 0.62896,-0.0189 L 36.93,72.41 21.87,81.35 15.92,84.88 a 0.654119,0.655381 0 0 1 -0.62896,0.01575 L 8.96,81.61 Z M 1.3,111.29 A 0.657264,0.658532 0 0 1 0.98552,110.559 L 8.21,82.39 l 6.61,3.42 0.07,0.03 a 0.654119,0.655381 0 0 1 0.339639,0.463178 L 15.27,86.54 l 4.54,24.96 2.13,11.72 z M 44.04,110.91 23.01,123.4 16.27,86.36 a 0.660408,0.661683 0 0 1 0.31448,-0.677437 L 37.62,73.19 l 6.74,37.05 a 0.654119,0.655381 0 0 1 -0.31448,0.67744 z"
   class="st5"
   id="path48"
   inkscape:connector-curvature="0"
   style="fill:#552f99;stroke:none;stroke-width:34;stroke-linecap:butt" />
				</g>
			</g>
		</g>
	</g>
</svg>