<?xml version="1.0" encoding="UTF-8" standalone="no"?>
<!DOCTYPE svg PUBLIC "-//W3C//DTD SVG 1.1//EN" "http://www.w3.org/Graphics/SVG/1.1/DTD/svg11.dtd">
<!-- Generated by Microsoft Visio, SVG Export Azure Synapse Analytics.svg Page-1 -->
<svg xmlns="http://www.w3.org/2000/svg" xmlns:xlink="http://www.w3.org/1999/xlink" xmlns:ev="http://www.w3.org/2001/xml-events"
		width="1.61374in" height="2.24388in" viewBox="0 0 116.189 161.559" xml:space="preserve" color-interpolation-filters="sRGB"
		class="st6">
	<style type="text/css">
	<![CDATA[
		.st1 {fill:#0078d4;stroke:none;stroke-linecap:butt;stroke-width:34}
		.st2 {fill:url(#grad0-8);stroke:none;stroke-linecap:butt;stroke-width:34}
		.st3 {fill:#50e6ff;stroke:none;stroke-linecap:butt;stroke-width:34}
		.st4 {fill:url(#grad0-16);stroke:none;stroke-linecap:butt;stroke-width:34}
		.st5 {fill:none;stroke:none;stroke-linecap:butt;stroke-width:34}
		.st6 {fill:none;fill-rule:evenodd;font-size:12px;overflow:visible;stroke-linecap:square;stroke-miterlimit:3}
	]]>
	</style>

	<defs id="Patterns_And_Gradients">
		<linearGradient id="grad0-8" x1="0" y1="0" x2="1" y2="0" gradientTransform="rotate(-90 0.5 0.5)">
			<stop offset="0.2" stop-color="#005ba1" stop-opacity="1"/>
			<stop offset="1" stop-color="#0078d4" stop-opacity="1"/>
		</linearGradient>
		<linearGradient id="grad0-16" x1="0" y1="0" x2="1" y2="0" gradientTransform="rotate(-90 0.5 0.5)">
			<stop offset="0" stop-color="#198ab3" stop-opacity="1"/>
			<stop offset="0.35" stop-color="#32bedd" stop-opacity="1"/>
			<stop offset="0.8" stop-color="#50e6ff" stop-opacity="1"/>
		</linearGradient>
	</defs>
	<g>
		<title>Page-1</title>
		<g id="group4140-1" transform="translate(34,-70.8661)">
			<title>Azure Synapse Analytics</title>
			<g id="group4141-2">
				<title>arcadia_icon_1</title>
				<g id="shape4142-3">
					<title>path4</title>
					<path d="M24.09 104.87 L0 119.01 L0 147.35 L24.09 161.56 L48.19 147.42 L48.19 119.07 L24.09 104.87 ZM43.74 144.46
								 L24.09 156.11 L4.45 144.58 L4.45 121.81 L24.09 110.16 L43.74 121.84 L43.74 144.46 Z" class="st1"/>
				</g>
				<g id="shape4143-5" transform="translate(0,-39.748)">
					<title>path6</title>
					<path d="M24.09 144.61 L0 158.76 L4.45 161.56 L24.09 149.91 L43.74 161.56 L48.19 158.76 L24.09 144.61 Z"
							class="st2"/>
				</g>
				<g id="shape4144-9" transform="translate(14.1805,-20.189)">
					<title>path8</title>
					<path d="M17.03 161.56 A13.2596 13.6063 -180 0 0 1.07 151.51 L0 146.91 A17.8637 18.3307 0 0 1 21.49 160.49 L17.03
								 161.56 Z" class="st3"/>
				</g>
				<g id="shape4145-11" transform="translate(7.55063,-7.08661)">
					<title>path10</title>
					<path d="M28.02 144.93 A2.27133 2.33071 -180 0 0 24.95 144.08 L0 158.82 L4.6 161.56 L27.19 148.17 A2.33271 2.3937
								 -180 0 0 28.02 144.93 ZM28.55 119.01 L5.89 132.43 A2.33271 2.3937 -180 0 0 5.06 135.57 A2.30202
								 2.3622 -180 0 0 7.06 136.74 A2.11786 2.17323 -180 0 0 8.2 136.43 L33.18 121.62 L28.55 119.01 Z"
							class="st3"/>
				</g>
				<g id="shape4146-13" transform="translate(27.9005,-16.6929)">
					<title>circle12</title>
					<ellipse cx="5.67832" cy="155.732" rx="5.67832" ry="5.82677" class="st4"/>
				</g>
				<g id="shape4147-17" transform="translate(8.93184,-28.3465)">
					<title>circle14</title>
					<ellipse cx="5.67832" cy="155.732" rx="5.67832" ry="5.82677" class="st5"/>
				</g>
				<g id="shape4148-19" transform="translate(9.33199,-28.4858)">
					<title>circle12-3</title>
					<ellipse cx="5.67832" cy="155.732" rx="5.67832" ry="5.82677" class="st4"/>
				</g>
			</g>
		</g>
	</g>
</svg>
