<?xml version="1.0" encoding="UTF-8" standalone="no"?>
<!DOCTYPE svg PUBLIC "-//W3C//DTD SVG 1.1//EN" "http://www.w3.org/Graphics/SVG/1.1/DTD/svg11.dtd">
<!-- Generated by Microsoft Visio, SVG Export Azure Active Directory Domain Services.svg Page-1 -->
<svg xmlns="http://www.w3.org/2000/svg" xmlns:xlink="http://www.w3.org/1999/xlink" xmlns:ev="http://www.w3.org/2001/xml-events"
		width="1.73185in" height="2.12183in" viewBox="0 0 124.693 152.772" xml:space="preserve" color-interpolation-filters="sRGB"
		class="st9">
	<style type="text/css">
	<![CDATA[
		.st1 {fill:#50e6ff;stroke:none;stroke-linecap:butt;stroke-width:34}
		.st2 {fill:#ffffff;stroke:none;stroke-linecap:butt;stroke-width:34}
		.st3 {fill:url(#grad0-12);stroke:none;stroke-linecap:butt;stroke-width:34}
		.st4 {fill:#53b1e0;stroke:none;stroke-linecap:butt;stroke-width:34}
		.st5 {fill:#9cebff;stroke:none;stroke-linecap:butt;stroke-width:34}
		.st6 {fill:url(#grad0-20);stroke:none;stroke-linecap:butt;stroke-width:34}
		.st7 {fill:#773adc;stroke:none;stroke-linecap:butt;stroke-width:34}
		.st8 {fill:#f9f9f9;fill-opacity:0.5;stroke:none;stroke-linecap:butt;stroke-width:34}
		.st9 {fill:none;fill-rule:evenodd;font-size:12px;overflow:visible;stroke-linecap:square;stroke-miterlimit:3}
	]]>
	</style>

	<defs id="Patterns_And_Gradients">
		<linearGradient id="grad0-12" x1="0" y1="0" x2="1" y2="0" gradientTransform="rotate(-133.54829310906 0.5 0.5)">
			<stop offset="0" stop-color="#1988d9" stop-opacity="1"/>
			<stop offset="0.9" stop-color="#54aef0" stop-opacity="1"/>
		</linearGradient>
		<linearGradient id="grad0-20" x1="0" y1="0" x2="1" y2="0" gradientTransform="rotate(65.834982258294 0.5 0.5)">
			<stop offset="0.1" stop-color="#54aef0" stop-opacity="1"/>
			<stop offset="0.29" stop-color="#4fabee" stop-opacity="1"/>
			<stop offset="0.51" stop-color="#41a2e9" stop-opacity="1"/>
			<stop offset="0.74" stop-color="#2a93e0" stop-opacity="1"/>
			<stop offset="0.88" stop-color="#1988d9" stop-opacity="1"/>
		</linearGradient>
	</defs>
	<g>
		<title>Page-1</title>
		<g id="group4933-1" transform="translate(34,-67.748)">
			<title>Azure Active Directory Domain Services</title>
			<g id="group4934-2">
				<title>Icon-identity-222</title>
				<g id="shape4935-3">
					<title>Sheet.4935</title>
					<path d="M3.18 130.97 L28.13 146.98 L53.51 130.9 L56.69 134.55 L28.13 152.77 L0 134.58 L3.18 130.97 Z"
							class="st1"/>
				</g>
				<g id="shape4936-5" transform="translate(5.07087,-9.12694)">
					<title>Sheet.4936</title>
					<path d="M0 138.04 L23.06 110.87 L46.58 138.07 L23.06 152.77 L0 138.04 Z" class="st2"/>
				</g>
				<g id="shape4937-7" transform="translate(5.07087,-9.12694)">
					<title>Sheet.4937</title>
					<path d="M23.06 110.87 L23.06 152.77 L0 138.04 L23.06 110.87 Z" class="st1"/>
				</g>
				<g id="shape4938-9" transform="translate(28.126,-9.12694)">
					<title>Sheet.4938</title>
					<path d="M0 110.87 L0 152.77 L23.53 138.07 L0 110.87 Z" class="st3"/>
				</g>
				<g id="shape4939-13" transform="translate(28.126,-9.12694)">
					<title>Sheet.4939</title>
					<path d="M0 132.52 L23.53 138.07 L0 152.77 L0 132.52 Z" class="st4"/>
				</g>
				<g id="shape4940-15" transform="translate(5.07087,-9.12694)">
					<title>Sheet.4940</title>
					<path d="M23.06 152.77 L0 138.04 L23.06 132.52 L23.06 152.77 Z" class="st5"/>
				</g>
				<g id="shape4941-17" transform="translate(28.126,2.55795E-13)">
					<title>Sheet.4941</title>
					<path d="M0 152.77 L28.57 134.55 L25.39 130.9 L0 146.98 L0 152.77 Z" class="st6"/>
				</g>
				<g id="shape4942-21" transform="translate(28.5354,-0.342649)">
					<title>Sheet.4942</title>
					<path d="M14.08 127.6 L0 147.1 L14.08 152.77 L28.16 147.1 L14.08 127.6 Z" class="st7"/>
				</g>
				<g id="shape4943-23" transform="translate(28.5354,-0.342649)">
					<title>Sheet.4943</title>
					<path d="M14.08 127.6 L0 147.1 L14.08 152.77 L14.08 127.6 Z" class="st8"/>
				</g>
			</g>
		</g>
	</g>
</svg>
