<?xml version="1.0" encoding="UTF-8" standalone="no"?>
<!-- Generated by Microsoft Visio, SVG Export Azure Arc Custom Location .svg Page-1 -->

<svg
   xmlns:dc="http://purl.org/dc/elements/1.1/"
   xmlns:cc="http://creativecommons.org/ns#"
   xmlns:rdf="http://www.w3.org/1999/02/22-rdf-syntax-ns#"
   xmlns:svg="http://www.w3.org/2000/svg"
   xmlns="http://www.w3.org/2000/svg"
   xmlns:sodipodi="http://sodipodi.sourceforge.net/DTD/sodipodi-0.dtd"
   xmlns:inkscape="http://www.inkscape.org/namespaces/inkscape"
   width="0.78563917in"
   height="0.78748in"
   viewBox="0 0 56.566018 56.6987"
   xml:space="preserve"
   class="st3"
   version="1.1"
   id="svg37"
   sodipodi:docname="Azure Arc Custom Location .svg"
   style="font-size:12px;overflow:visible;color-interpolation-filters:sRGB;fill:none;fill-rule:evenodd;stroke-linecap:square;stroke-miterlimit:3"
   inkscape:version="0.92.5 (2060ec1f9f, 2020-04-08)"><metadata
   id="metadata41"><rdf:RDF><cc:Work
       rdf:about=""><dc:format>image/svg+xml</dc:format><dc:type
         rdf:resource="http://purl.org/dc/dcmitype/StillImage" /></cc:Work></rdf:RDF></metadata><sodipodi:namedview
   pagecolor="#ffffff"
   bordercolor="#666666"
   borderopacity="1"
   objecttolerance="10"
   gridtolerance="10"
   guidetolerance="10"
   inkscape:pageopacity="0"
   inkscape:pageshadow="2"
   inkscape:window-width="640"
   inkscape:window-height="480"
   id="namedview39"
   showgrid="false"
   inkscape:zoom="1.8365233"
   inkscape:cx="37.710878"
   inkscape:cy="18.900351"
   inkscape:window-x="0"
   inkscape:window-y="0"
   inkscape:window-maximized="0"
   inkscape:current-layer="svg37" />
	<style
   type="text/css"
   id="style2">
	<![CDATA[
		.st1 {fill:url(#grad0-6);stroke:none;stroke-linecap:butt;stroke-width:1.06679}
		.st2 {fill:url(#grad0-10);stroke:none;stroke-linecap:butt;stroke-width:1.06679}
		.st3 {fill:none;fill-rule:evenodd;font-size:12px;overflow:visible;stroke-linecap:square;stroke-miterlimit:3}
	]]>
	</style>

	<defs
   id="Patterns_And_Gradients">
		<linearGradient
   id="grad0-6"
   x1="0.036626256"
   y1="133.61992"
   x2="32.802855"
   y2="133.61992"
   gradientTransform="scale(1.7263556,0.57925495)"
   gradientUnits="userSpaceOnUse">
			<stop
   offset="0"
   stop-color="#9cebff"
   stop-opacity="1"
   id="stop4" />
			<stop
   offset="1"
   stop-color="#33bedd"
   stop-opacity="1"
   id="stop6" />
		</linearGradient>
		<linearGradient
   id="grad0-10"
   x1="0.15956262"
   y1="39.234176"
   x2="34.321929"
   y2="39.234176"
   gradientTransform="scale(0.76153292,1.3131409)"
   gradientUnits="userSpaceOnUse">
			<stop
   offset="0"
   stop-color="#b77af4"
   stop-opacity="1"
   id="stop9" />
			<stop
   offset="0.62"
   stop-color="#8c4fe4"
   stop-opacity="1"
   id="stop11" />
			<stop
   offset="0.995"
   stop-color="#773adc"
   stop-opacity="1"
   id="stop13" />
		</linearGradient>
	</defs>
	<g
   id="g35"
   transform="translate(-5.7326072,-5.6656)">
		<title
   id="title17">Page-1</title>
		<g
   id="group9749-1"
   transform="translate(5.66929,-34.0157)">
			<title
   id="title19">Azure Arc Custom Location </title>
			<g
   id="group9750-2">
				<title
   id="title21">layer1</title>
				<g
   id="shape9751-3">
					<title
   id="title23">path8</title>
					<path
   d="m 21.63,87.58 h 13.43 l 2.02,8.8 H 19.61 Z M 11.27,80.75 h 10.3 l 1.04,-3.35 h -7.56 c -0.32,0 -0.65,0.06 -0.97,0.13 a 1.67031,1.68328 -180 0 0 -0.59,0.26 z M 1.63,96.38 h 15.05 l 2.74,-8.8 H 5.93 L 0.33,94.8 C 0,95.2 0,95.59 0.2,95.85 c 0.26,0.33 0.78,0.53 1.43,0.53 z m 5.15,-9.85 h 12.97 l 1.56,-5.12 H 10.75 Z m 33.23,9.85 h 15.12 c 0.65,0 1.11,-0.2 1.37,-0.46 0.19,-0.26 0.19,-0.66 -0.13,-1.05 L 50.76,87.64 H 37.34 Z M 21.9,86.53 H 34.86 L 33.69,81.41 H 23.07 l -1.18,5.12 z m 15.11,0 H 49.98 L 46.01,81.41 H 35.38 Z m -2.86,-9.13 1.04,3.35 h 10.3 L 43.2,77.79 C 43.14,77.66 42.95,77.6 42.62,77.53 A 3.84349,3.87333 -180 0 0 41.71,77.4 Z M 23.2,80.75 H 33.5 L 32.71,77.4 h -8.73 z"
   class="st1"
   id="path25"
   inkscape:connector-curvature="0"
   style="fill:url(#grad0-6);stroke:none;stroke-width:1.06678998;stroke-linecap:butt" />
				</g>
				<g
   id="shape9752-7"
   transform="translate(15.2914,-11.8387)">
					<title
   id="title28">path10</title>
					<path
   d="M 13.16,51.52 A 13.5331,13.6381 -180 0 0 3.78,55.79 C 1.37,58.42 0,61.96 0.13,65.58 v 0.19 c 0,6.18 7.76,20.76 11.27,29.43 0.14,0.32 0.4,0.65 0.66,0.85 0.32,0.2 0.65,0.33 1.04,0.33 0.39,0 0.72,-0.13 1.04,-0.33 0.33,-0.2 0.52,-0.53 0.65,-0.85 3.59,-8.81 11.34,-23.45 11.34,-29.43 A 13.8867,13.9945 -180 0 0 22.55,55.93 C 20.07,53.3 16.69,51.65 13.17,51.52 Z m 0,19.25 c -1.17,0 -2.28,-0.33 -3.19,-0.99 A 6.45023,6.50032 0 0 1 7.82,67.15 C 7.37,66.1 7.3,64.92 7.49,63.74 7.69,62.62 8.28,61.57 9.06,60.72 a 5.61508,5.65868 0 0 1 2.93,-1.58 c 1.11,-0.2 2.28,-0.13 3.32,0.33 1.05,0.46 1.96,1.18 2.61,2.17 0.65,0.98 0.98,2.1 0.98,3.28 0,1.58 -0.59,3.02 -1.7,4.14 -1.04,1.11 -2.54,1.71 -4.04,1.71 z"
   class="st2"
   id="path30"
   inkscape:connector-curvature="0"
   style="fill:url(#grad0-10);stroke:none;stroke-width:1.06678998;stroke-linecap:butt" />
				</g>
			</g>
		</g>
	</g>
</svg>