<?xml version="1.0" encoding="UTF-8" standalone="no"?>
<!DOCTYPE svg PUBLIC "-//W3C//DTD SVG 1.1//EN" "http://www.w3.org/Graphics/SVG/1.1/DTD/svg11.dtd">
<!-- Generated by Microsoft Visio, SVG Export Azure API for FHIR.svg Page-1 -->
<svg xmlns="http://www.w3.org/2000/svg" xmlns:xlink="http://www.w3.org/1999/xlink" xmlns:ev="http://www.w3.org/2001/xml-events"
		width="1.5748in" height="1.94165in" viewBox="0 0 113.386 139.799" xml:space="preserve" color-interpolation-filters="sRGB"
		class="st4">
	<style type="text/css">
	<![CDATA[
		.st1 {fill:#ff8c00;stroke:none;stroke-linecap:butt;stroke-width:12.24}
		.st2 {fill:#ba141a;fill-opacity:0.25;stroke:none;stroke-linecap:butt;stroke-width:12.24}
		.st3 {fill:#ffffff;stroke:none;stroke-linecap:butt;stroke-width:12.24}
		.st4 {fill:none;fill-rule:evenodd;font-size:12px;overflow:visible;stroke-linecap:square;stroke-miterlimit:3}
	]]>
	</style>

	<g>
		<title>Page-1</title>
		<g id="group4837-1" transform="translate(28.3465,-70.8661)">
			<title>Azure API for FHIR</title>
			<g id="group4838-2">
				<title>Sheet.4838</title>
				<g id="shape4839-3">
					<title>Sheet.4839</title>
					<path d="M41.84 83.11 C35.76 83.11 30.53 86.8 28.29 92.08 C26.04 86.8 20.82 83.11 14.73 83.11 C4.71 83.11 0 92.67
								 0 100.82 C0 125.63 28.29 139.8 28.29 139.8 C28.29 139.8 56.58 125.63 56.58 100.82 C56.58 92.67 51.86
								 83.11 41.84 83.11 Z" class="st1"/>
				</g>
				<g id="shape4840-5" transform="translate(0.128473,2.84217E-13)">
					<title>Sheet.4840</title>
					<path d="M28.16 115 C15.53 115 4.69 110.29 0 103.56 C1.96 126.66 28.16 139.8 28.16 139.8 C28.16 139.8 54.36 126.66
								 56.32 103.56 C51.63 110.29 40.79 115 28.16 115 Z" class="st2"/>
				</g>
				<g id="shape4841-7" transform="translate(27.2267,-9.56693)">
					<title>Sheet.4841</title>
					<ellipse cx="4.59672" cy="135.193" rx="4.59672" ry="4.6063" class="st3"/>
				</g>
				<g id="shape4842-9" transform="translate(2.63899,-12.4996)">
					<title>Sheet.4842</title>
					<path d="M1.66 100.45 C1.66 100.45 0 106.4 6.88 112.36 L9.06 109.57 C9.02 109.54 5.31 106.54 5.04 102.17 C4.81
								 98.6 6.59 96.68 6.59 96.68 C4.62 97.58 2.98 98.81 1.66 100.45 ZM52.52 105.55 C53.57 110.15 53.18
								 114.69 51.33 118.86 C48.01 126.36 40.15 132.44 28.61 136.45 L29.76 139.8 C39.71 136.35 47.27 131.36
								 51.79 125.23 C53.19 121.59 54.05 117.62 54.05 113.32 C54.05 110.76 53.47 108.05 52.52 105.55 Z"
							class="st3"/>
				</g>
				<g id="shape4843-11" transform="translate(3.01144,-15.5679)">
					<title>Sheet.4843</title>
					<path d="M6.63 113.06 C0 119.69 8.21 131.35 14.88 138.03 L16.13 139.28 A1.76797 1.77165 -180 0 0 18.63 139.28
								 L21.13 136.78 A1.76797 1.77165 -180 1 0 18.63 134.27 L17.29 135.61 C8.13 126.42 5.18 119.19 8.96
								 115.39 C12.74 111.6 19.96 114.56 29.13 123.75 L27.79 125.08 A1.76797 1.77165 -180 1 0 30.29 127.59
								 L32.79 125.08 A1.76797 1.77165 -180 0 0 32.79 122.58 L31.54 121.32 C24.88 114.64 13.25 106.42 6.63
								 113.06 Z" class="st3"/>
				</g>
			</g>
		</g>
	</g>
</svg>
