<?xml version="1.0" encoding="UTF-8" standalone="no"?>
<!DOCTYPE svg PUBLIC "-//W3C//DTD SVG 1.1//EN" "http://www.w3.org/Graphics/SVG/1.1/DTD/svg11.dtd">
<!-- Generated by Microsoft Visio, SVG Export Azure Percept Speech.svg Page-1 -->
<svg xmlns="http://www.w3.org/2000/svg" xmlns:xlink="http://www.w3.org/1999/xlink" xmlns:ev="http://www.w3.org/2001/xml-events"
		width="1.5748in" height="1.59055in" viewBox="0 0 113.386 114.52" xml:space="preserve" color-interpolation-filters="sRGB"
		class="st7">
	<style type="text/css">
	<![CDATA[
		.st1 {fill:url(#grad0-6);stroke:none;stroke-linecap:butt;stroke-width:0.75}
		.st2 {fill:#ffffff;fill-opacity:0.8;stroke:none;stroke-linecap:butt;stroke-width:0.75}
		.st3 {fill:#ffffff;fill-opacity:0.6;stroke:none;stroke-linecap:butt;stroke-width:0.75}
		.st4 {fill:#ffffff;fill-opacity:0.4;stroke:none;stroke-linecap:butt;stroke-width:0.75}
		.st5 {fill:#50e6ff;stroke:none;stroke-linecap:butt;stroke-width:0.75}
		.st6 {fill:#ffffff;stroke:none;stroke-linecap:butt;stroke-width:0.75}
		.st7 {fill:none;fill-rule:evenodd;font-size:12px;overflow:visible;stroke-linecap:square;stroke-miterlimit:3}
	]]>
	</style>

	<defs id="Patterns_And_Gradients">
		<linearGradient id="grad0-6" x1="0" y1="0" x2="1" y2="0" gradientTransform="rotate(90 0.5 0.5)">
			<stop offset="0" stop-color="#5ea0ef" stop-opacity="1"/>
			<stop offset="1" stop-color="#0078d4" stop-opacity="1"/>
		</linearGradient>
	</defs>
	<g>
		<title>Page-1</title>
		<g id="group4304-1" transform="translate(28.3465,-64.6299)">
			<title>Azure Percept Speech</title>
			<g id="group4305-2">
				<title>a6a92309-3633-4dc9-b48f-6bfbef8</title>
				<g id="shape4306-3">
					<title>Sheet.4306</title>
					<path d="M47.4 77.77 L47.4 106.24 A2.74646 2.34892 0 0 1 44.65 108.6 L30.9 108.6 a0.456693 0.390589 -180 0 0
								 -0.456693 0.390589 L30.44 113.82 a0.916535 0.783871 0 0 1 -1.47087 0.622248 L20.17 108.68 a0.440945
								 0.37712 -180 0 0 -0.277165 -0.0808115 L2.75 108.6 A2.75906 2.35969 0 0 1 0 106.24 L0 77.77 A2.74961
								 2.35161 0 0 1 2.75 75.42 L44.64 75.42 A2.75591 2.357 0 0 1 47.4 77.77 Z" class="st1"/>
				</g>
				<g id="group4307-7" transform="translate(10.5606,-14.1369)">
					<title>Sheet.4307</title>
					<g id="shape4308-8" transform="translate(0,-5.05072)">
						<title>Sheet.4308</title>
						<path d="M1.03 114.52 a1.02362 0.875457 0 0 1 -1.02677 -0.875457 L0 106.62 a1.02677 0.878151 0 0 1 2.05354
									 0 L2.05 113.64 a1.02362 0.875457 0 0 1 -1.02677 0.875457 Z" class="st2"/>
					</g>
					<g id="shape4309-10" transform="translate(4.84409,-1.42498)">
						<title>Sheet.4309</title>
						<path d="M1.03 114.52 a1.02677 0.878151 0 0 1 -1.02677 -0.878151 L0 100.1 a1.02677 0.878151 0 1 1 2.05354
									 -1.42109E-14 L2.05 113.64 a1.02677 0.878151 0 0 1 -1.02677 0.878151 Z" class="st2"/>
					</g>
					<g id="shape4310-12" transform="translate(14.5323,0)">
						<title>Sheet.4310</title>
						<path d="M1.03 114.52 a1.02677 0.878151 0 0 1 -1.02677 -0.878151 L0 97.12 a1.02677 0.878151 0 0 1 2.05354
									 0 L2.05 113.64 a1.02677 0.878151 0 0 1 -1.02677 0.878151 Z" class="st3"/>
					</g>
					<g id="shape4311-14" transform="translate(19.3795,-2.788)">
						<title>Sheet.4311</title>
						<path d="M1.03 114.52 a1.02362 0.875457 0 0 1 -1.02677 -0.875457 L0 102.76 a1.02677 0.878151 0 1 1 2.05039
									 -1.42109E-14 L2.05 113.66 a1.02047 0.872764 0 0 1 -1.02362 0.861989 Z" class="st4"/>
					</g>
					<g id="shape4312-16" transform="translate(9.68819,-4.14293)">
						<title>Sheet.4312</title>
						<path d="M1.03 114.52 a1.02677 0.878151 0 0 1 -1.02677 -0.878151 L0 104.11 a1.02677 0.878151 0 0 1 2.05354
									 0 L2.05 113.64 a1.02677 0.878151 0 0 1 -1.02677 0.878151 Z" class="st3"/>
					</g>
					<g id="shape4313-18" transform="translate(24.2236,-0.956269)">
						<title>Sheet.4313</title>
						<path d="M1.03 114.52 a1.02362 0.875457 0 0 1 -1.02677 -0.875457 L0 99.3 a1.02677 0.878151 0 1 1 2.05039
									 -1.42109E-14 L2.05 113.64 a1.02047 0.872764 0 0 1 -1.02362 0.878151 Z" class="st4"/>
					</g>
				</g>
				<g id="shape4314-20" transform="translate(27.1244,-20.0657)">
					<title>Sheet.4314</title>
					<ellipse cx="14.7843" cy="101.875" rx="14.7843" ry="12.6443" class="st5"/>
				</g>
				<g id="shape4315-22" transform="translate(34.252,-26.1813)">
					<title>Sheet.4315</title>
					<path d="M15.2 108.27 A10.4283 8.91889 0 0 1 14.99 110.06 A11.1181 9.50881 0 0 1 14.39 111.76 A9.89921 8.46635
								 0 0 1 13.41 113.32 A11.7449 10.0449 0 0 1 12.41 114.4 a0.462992 0.395976 0 0 1 -0.670866 -1.42109E-14
								 L11.65 114.32 a0.469291 0.401364 0 0 1 -3.55271E-15 -0.557599 A9.1748 7.84679 -180 0 0 12.53 112.8
								 A9.35433 8.00033 -180 0 0 13.95 109.86 A9.59055 8.20236 -180 0 0 13.95 106.65 A9.04252 7.73366 -180
								 0 0 13.41 105.13 A9.76378 8.35052 -180 0 0 12.53 103.72 A9.00472 7.70133 -180 0 0 11.65 102.75 a0.475591
								 0.406751 0 0 1 2.84217E-14 -0.560293 L11.74 102.11 a0.466142 0.39867 0 0 1 0.670866 -4.26326E-14
								 A10.5701 9.04011 0 0 1 13.41 103.19 A10.1921 8.71686 0 0 1 14.38 104.76 A11.4016 9.75125 0 0 1 14.99
								 106.45 A9.68504 8.28317 0 0 1 15.2 108.27 ZM11.69 105.84 A7.55906 6.46492 -180 0 0 10.41 104.07
								 a0.459843 0.393282 -180 0 0 -0.674016 0 L9.64 104.15 a0.462992 0.395976 -180 0 0 -0.0283465 0.538743
								 A6.3748 5.45208 0 0 1 9.61 111.88 a0.459843 0.393282 -180 0 0 0.0283465 0.538743 L9.73 112.5 a0.466142
								 0.39867 -180 0 0 0.674016 0 A7.55906 6.46492 -180 0 0 11.69 110.74 A7.48661 6.40296 -180 0 0 11.69
								 105.86 L11.69 105.84 ZM8 106.6 A3.21575 2.75028 0 0 1 8.43 107.23 A3.21575 2.75028 0 0 1 8.43 109.32
								 A3.07717 2.63176 0 0 1 8 109.95 a0.462992 0.395976 -180 0 0 0.0440945 0.519887 L8.14 110.55 a0.472441
								 0.404057 -180 0 0 0.699213 -0.0242434 A3.98425 3.40755 -180 0 0 9.42 109.67 A4.25827 3.6419 -180
								 0 0 9.73 108.28 A4.3748 3.74157 -180 0 0 9.42 106.89 A4.14488 3.54493 -180 0 0 8.84 106.04 a0.469291
								 0.401364 -180 0 0 -0.699213 -0.0350183 L8.05 106.09 a0.459843 0.393282 -180 0 0 -0.0503937 0.509112
								 ZM2.06 105.54 L0.94 105.54 a0.944882 0.808115 -180 0 0 -0.944882 0.808115 L0 110.2 a0.944882 0.808115
								 -180 0 0 0.944882 0.808115 L2.06 111.01 a0.944882 0.808115 0 0 1 0.661417 0.234353 L5.51 113.62
								 a0.469291 0.401364 -180 0 0 0.330709 0.118523 a0.554331 0.474094 -180 0 0 0.554331 -0.476788 L6.39
								 103.3 a0.56378 0.482175 -180 0 0 -0.56063 -0.482175 a0.459843 0.393282 -180 0 0 -0.330709 0.118523
								 L2.72 105.31 a0.944882 0.808115 0 0 1 -0.661417 0.23166 Z" class="st6"/>
				</g>
			</g>
		</g>
	</g>
</svg>
