<?xml version="1.0" encoding="UTF-8" standalone="no"?>
<!-- Generated by Microsoft Visio, SVG Export Azure Lighthouse Service Provider.svg Page-1 -->
<svg xmlns:dc="http://purl.org/dc/elements/1.1/" xmlns:cc="http://creativecommons.org/ns#" xmlns:rdf="http://www.w3.org/1999/02/22-rdf-syntax-ns#" xmlns:svg="http://www.w3.org/2000/svg" xmlns="http://www.w3.org/2000/svg" xmlns:sodipodi="http://sodipodi.sourceforge.net/DTD/sodipodi-0.dtd" xmlns:inkscape="http://www.inkscape.org/namespaces/inkscape" width="56.717411" height="56.694898" viewBox="0 0 56.717411 56.694898" xml:space="preserve" class="st5" version="1.1" id="svg49" sodipodi:docname="Azure Lighthouse Service Provider.svg" style="font-size:12px;overflow:visible;color-interpolation-filters:sRGB;fill:none;fill-rule:evenodd;stroke-linecap:square;stroke-miterlimit:3" inkscape:version="0.92.5 (2060ec1f9f, 2020-04-08)">
  <metadata id="metadata53">
    <rdf:RDF>
      <cc:Work rdf:about="">
        <dc:format>image/svg+xml</dc:format>
        <dc:type rdf:resource="http://purl.org/dc/dcmitype/StillImage" />
      </cc:Work>
    </rdf:RDF>
  </metadata>
  <sodipodi:namedview pagecolor="#ffffff" bordercolor="#666666" borderopacity="1" objecttolerance="10" gridtolerance="10" guidetolerance="10" inkscape:pageopacity="0" inkscape:pageshadow="2" inkscape:window-width="640" inkscape:window-height="480" id="namedview51" showgrid="false" inkscape:zoom="1.8365233" inkscape:cx="37.825894" inkscape:cy="18.900351" inkscape:window-x="0" inkscape:window-y="0" inkscape:window-maximized="0" inkscape:current-layer="svg49" />
	<style type="text/css" id="style2">
	<![CDATA[
		.st1 {fill:url(#grad0-5);stroke:none;stroke-linecap:butt;stroke-width:2.52454}
		.st2 {fill:#ffffff;fill-opacity:0.8;stroke:none;stroke-linecap:butt;stroke-width:2.52454}
		.st3 {fill:url(#grad0-11);stroke:none;stroke-linecap:butt;stroke-width:2.52454}
		.st4 {fill:url(#grad0-15);stroke:none;stroke-linecap:butt;stroke-width:2.52454}
		.st5 {fill:none;fill-rule:evenodd;font-size:12px;overflow:visible;stroke-linecap:square;stroke-miterlimit:3}
	]]>
	</style>

	<defs id="Patterns_And_Gradients">
		<linearGradient id="grad0-5" x1="-0.019045381" y1="82.715561" x2="33.820434" y2="82.715561" gradientTransform="scale(1.2093281,0.82690547)" gradientUnits="userSpaceOnUse">
			<stop offset="0.1" stop-color="#54aef0" stop-opacity="1" id="stop4" />
			<stop offset="1" stop-color="#1988d9" stop-opacity="1" id="stop6" />
		</linearGradient>
		<linearGradient id="grad0-11" x1="0" y1="71.368145" x2="26.190059" y2="71.368145" gradientTransform="scale(1.0122466,0.98790153)" gradientUnits="userSpaceOnUse">
			<stop offset="0.1" stop-color="#54aef0" stop-opacity="1" id="stop9" />
			<stop offset="1" stop-color="#1988d9" stop-opacity="1" id="stop11" />
		</linearGradient>
		<linearGradient id="grad0-15" x1="-0.00054819312" y1="72.486603" x2="25.018206" y2="72.486603" gradientTransform="scale(1.0116763,0.98845851)" gradientUnits="userSpaceOnUse">
			<stop offset="0" stop-color="#76bc2d" stop-opacity="1" id="stop14" />
			<stop offset="0.6" stop-color="#81ce31" stop-opacity="1" id="stop16" />
			<stop offset="0.82" stop-color="#86d633" stop-opacity="1" id="stop18" />
		</linearGradient>
	</defs>
	<g id="g47" transform="translate(-5.6463451,-5.6693997)">
		<title id="title22">Page-1</title>
		<g id="group8124-1" transform="translate(5.66929,-34.0157)">
			<title id="title24">Azure-Lighthouse-Service-Provider</title>
			<g id="shape8125-2" transform="translate(0,-5.89759)">
				<title id="title26">path23</title>
				<path d="m 29.73,77.73 a 1.65693,1.61708 0 0 1 1.65,-1.61 H 40.9 A 21.2152,20.705 -180 0 0 23.65,68.41 C 9.1,68.41 1.46,77.32 0,91.88 a 4.19105,4.09026 -180 0 0 3.77,4.5 h 25.99 z" class="st1" id="path28" inkscape:connector-curvature="0" style="fill:url(#grad0-5);stroke:none;stroke-width:2.52453995;stroke-linecap:butt" />
			</g>
			<g id="shape8126-6" transform="translate(16.4718,-14.744)">
				<title id="title31">path25</title>
				<path d="M 7.18,80.33 A 13.2879,12.9683 0 0 1 0,78.27 l 7.12,18.11 7.05,-18.01 a 12.9955,12.683 0 0 1 -6.99,1.96 z" class="st2" id="path33" inkscape:connector-curvature="0" style="fill:#ffffff;fill-opacity:0.8;stroke:none;stroke-width:2.52453995;stroke-linecap:butt" />
			</g>
			<g id="shape8127-8" transform="translate(10.3964,-30.8196)">
				<title id="title36">circle27</title>
				<ellipse cx="13.2554" cy="83.441299" rx="13.2554" ry="12.9366" class="st3" id="ellipse38" style="fill:url(#grad0-11);stroke:none;stroke-width:2.52453995;stroke-linecap:butt" />
			</g>
			<g id="shape8128-12" transform="translate(31.3842)">
				<title id="title41">path29</title>
				<path d="m 8.87,88.96 h 7.6 v 7.42 H 8.87 Z M 0,79.07 H 7.6 V 71.65 H 1.1 a 1.07213,1.04635 -180 0 0 -1.07,1.04 z m 1.07,17.31 h 6.5 V 88.96 H 0 v 6.34 a 1.07213,1.04635 -180 0 0 1.07,1.08 z M 0,87.72 H 7.6 V 80.37 H 0 Z m 17.71,8.66 h 6.49 a 1.03964,1.01464 -180 0 0 1.04,-1.05 V 88.99 H 17.71 Z M 8.87,87.72 h 7.6 v -7.35 h -7.6 z m 8.84,0 h 7.6 v -7.35 h -7.6 z m 0,-16.07 v 7.42 h 7.6 v -6.35 a 1.03964,1.01464 -180 0 0 -1.04,-1.04 z m -8.84,7.42 h 7.6 v -7.42 h -7.6 z" class="st4" id="path43" inkscape:connector-curvature="0" style="fill:url(#grad0-15);stroke:none;stroke-width:2.52453995;stroke-linecap:butt" />
			</g>
		</g>
	</g>
</svg>