<?xml version="1.0" encoding="UTF-8" standalone="no"?>
<!DOCTYPE svg PUBLIC "-//W3C//DTD SVG 1.1//EN" "http://www.w3.org/Graphics/SVG/1.1/DTD/svg11.dtd">
<!-- Generated by Microsoft Visio, SVG Export Azure Firewall TLS Inspection.svg Page-1 -->
<svg xmlns="http://www.w3.org/2000/svg" xmlns:xlink="http://www.w3.org/1999/xlink" xmlns:ev="http://www.w3.org/2001/xml-events"
		width="1.73188in" height="1.75042in" viewBox="0 0 124.695 126.03" xml:space="preserve" color-interpolation-filters="sRGB"
		class="st6">
	<style type="text/css">
	<![CDATA[
		.st1 {fill:url(#grad0-6);stroke:none;stroke-linecap:butt;stroke-width:34}
		.st2 {fill:#37c2b1;stroke:none;stroke-linecap:butt;stroke-width:34}
		.st3 {fill:#3cd4c2;stroke:none;stroke-linecap:butt;stroke-width:34}
		.st4 {fill:#42e8ca;fill-opacity:0.5;stroke:none;stroke-linecap:butt;stroke-width:34}
		.st5 {fill:#ffffff;fill-opacity:0.8;stroke:none;stroke-linecap:butt;stroke-width:34}
		.st6 {fill:none;fill-rule:evenodd;font-size:12px;overflow:visible;stroke-linecap:square;stroke-miterlimit:3}
	]]>
	</style>

	<defs id="Patterns_And_Gradients">
		<linearGradient id="grad0-6" x1="0" y1="0" x2="1" y2="0" gradientTransform="rotate(90 0.5 0.5)">
			<stop offset="0" stop-color="#5ea0ef" stop-opacity="1"/>
			<stop offset="1" stop-color="#0078d4" stop-opacity="1"/>
		</linearGradient>
	</defs>
	<g>
		<title>Page-1</title>
		<g id="group7731-1" transform="translate(34,-34.0157)">
			<title>Azure Firewall TLS Inspection</title>
			<g id="group7732-2">
				<title>Sheet.7732</title>
				<g id="shape7733-3" transform="translate(4.02537,-13.2605)">
					<title>Sheet.7733</title>
					<path d="M25.14 123.24 A4.0126 4.11645 0 0 1 25.16 122.72 A3.79843 3.89673 0 0 1 28.09 119.28 L28.09 116.13 A12.7276
								 13.057 0 0 1 31.51 107.02 A11.685 11.9875 0 0 1 32.17 106.35 A11.8173 12.1232 0 0 1 40.22 103.12
								 C40.37 103.12 40.51 103.16 40.66 103.17 A22.3433 22.9216 -180 1 0 25.14 126.03 L25.14 123.24 Z"
							class="st1"/>
				</g>
				<g id="shape7734-7" transform="translate(31.715,-2.27374E-13)">
					<title>Sheet.7734</title>
					<path d="M23.68 108.55 L22.11 108.55 L22.11 102.83 A10.2803 10.5464 -180 0 0 19.36 95.54 A9.30394 9.54473 -180
								 0 0 6.22 95.02 A9.92756 10.1845 -180 0 0 5.7 95.54 A10.2583 10.5238 -180 0 0 2.95 102.83 L2.95 108.55
								 L1.38 108.55 A1.25984 1.29245 -180 0 0 0 109.71 A1.11181 1.14059 -180 0 0 0 109.92 L0 124.74 A1.25984
								 1.29245 -180 0 0 1.26 126.03 L23.68 126.03 A1.25984 1.29245 -180 0 0 24.98 124.78 L24.98 109.92
								 A1.25984 1.29245 -180 0 0 23.8 108.55 L23.68 108.55 ZM17.6 108.55 L7.39 108.55 L7.39 102.75 A5.60945
								 5.75463 0 0 1 9 98.73 A4.67087 4.79175 0 0 1 15.6 98.32 A4.60787 4.72713 0 0 1 15.99 98.73 A6.0252
								 6.18114 0 0 1 16.62 99.53 A5.48346 5.62538 0 0 1 17.6 102.71 L17.6 108.55 Z" class="st2"/>
				</g>
				<g id="shape7735-9" transform="translate(31.7291,-0.407121)">
					<title>Sheet.7735</title>
					<path d="M1.29 108.96 L23.66 108.96 A1.25984 1.29245 0 0 1 24.48 109.28 L0.47 126.03 A1.28504 1.3183 0 0 1 0
								 125.06 L0 110.33 A1.25984 1.29245 0 0 1 1.17 108.96 L1.29 108.96 Z" class="st3"/>
				</g>
				<g id="shape7736-11" transform="translate(32.2079,-0.407121)">
					<title>Sheet.7736</title>
					<path d="M23.19 108.96 L0.83 108.96 A1.2378 1.26983 -180 0 0 -0 109.28 L24.01 126.03 A1.17165 1.20198 -180 0
								 0 24.48 125.06 L24.48 110.33 A1.25984 1.29245 -180 0 0 23.31 108.96 L23.19 108.96 Z" class="st4"/>
				</g>
				<g id="shape7737-13" transform="translate(2.81775E-13,-25.0412)">
					<title>Sheet.7737</title>
					<path d="M28.42 115.67 L19.23 106.04 a0.456693 0.468513 -180 0 0 -0.645669 -0.0420046 a0.440945 0.452357 -180
								 0 0 -0.154331 0.365117 L18.43 111.93 a0.491339 0.504055 0 0 1 -0.488189 0.500824 L0.29 112.43 A22.3969
								 22.9765 -180 0 0 0 115.95 A22.7433 23.3319 -180 0 0 0.26 119.26 L17.95 119.26 a0.488189 0.500824
								 0 0 1 0.472441 0.510517 L18.43 125.55 a0.456693 0.468513 -180 0 0 0.444094 0.481437 a0.466142 0.478206
								 -180 0 0 0.359055 -0.158325 L28.42 116.35 a0.425197 0.436201 -180 0 0 0.0535433 -0.620375 L28.42
								 115.67 Z" class="st5"/>
				</g>
			</g>
		</g>
	</g>
</svg>
