<?xml version="1.0" encoding="UTF-8" standalone="no"?>
<!DOCTYPE svg PUBLIC "-//W3C//DTD SVG 1.1//EN" "http://www.w3.org/Graphics/SVG/1.1/DTD/svg11.dtd">
<!-- Generated by Microsoft Visio, SVG Export Azure Monitor for SAP Solution.svg Page-1 -->
<svg xmlns="http://www.w3.org/2000/svg" xmlns:xlink="http://www.w3.org/1999/xlink" xmlns:ev="http://www.w3.org/2001/xml-events"
		width="1.73185in" height="1.57469in" viewBox="0 0 124.693 113.378" xml:space="preserve" color-interpolation-filters="sRGB"
		class="st7">
	<style type="text/css">
	<![CDATA[
		.st1 {fill:url(#grad0-6);stroke:none;stroke-linecap:butt;stroke-width:34}
		.st2 {fill:#50e6ff;stroke:none;stroke-linecap:butt;stroke-width:34}
		.st3 {fill:url(#grad0-12);stroke:none;stroke-linecap:butt;stroke-width:34}
		.st4 {fill:#9cebff;stroke:none;stroke-linecap:butt;stroke-width:34}
		.st5 {fill:#32bedd;stroke:none;stroke-linecap:butt;stroke-width:34}
		.st6 {fill:#767676;stroke:none;stroke-linecap:butt;stroke-width:34}
		.st7 {fill:none;fill-rule:evenodd;font-size:12px;overflow:visible;stroke-linecap:square;stroke-miterlimit:3}
	]]>
	</style>

	<defs id="Patterns_And_Gradients">
		<linearGradient id="grad0-6" x1="0" y1="0" x2="1" y2="0" gradientTransform="rotate(-90 0.5 0.5)">
			<stop offset="0" stop-color="#0078d4" stop-opacity="1"/>
			<stop offset="1" stop-color="#5ea0ef" stop-opacity="1"/>
		</linearGradient>
		<linearGradient id="grad0-12" x1="0" y1="0" x2="1" y2="0" gradientTransform="rotate(90 0.5 0.5)">
			<stop offset="0" stop-color="#ffffff" stop-opacity="1"/>
			<stop offset="1" stop-color="#f2f2f2" stop-opacity="1"/>
		</linearGradient>
	</defs>
	<g>
		<title>Page-1</title>
		<g id="group4013-1" transform="translate(34,-34.0157)">
			<title>Azure Monitor for SAP Solution</title>
			<g id="group4014-2">
				<title>Sheet.4014</title>
				<g id="shape4015-3" transform="translate(0,-4.76007)">
					<title>Sheet.4015</title>
					<path d="M56.69 100.66 A12.737 12.8675 -180 0 0 45.64 88.29 A16.063 16.2275 -180 0 0 29.1 72.78 A16.4693 16.638
								 -180 0 0 13.35 83.63 A15.2 15.3557 -180 0 0 0 98.4 A15.4331 15.5911 -180 0 0 15.96 113.38 C16.44
								 113.38 16.91 113.36 17.37 113.32 L43.22 113.32 A2.57953 2.60595 -180 0 0 43.9 113.21 A12.8882 13.0202
								 -180 0 0 56.69 100.66 Z" class="st1"/>
				</g>
				<g id="shape4016-7" transform="translate(15.8551,-2.13163E-13)">
					<title>Sheet.4016</title>
					<path d="M20.18 88.42 C32.35 88.42 39.78 97.57 40.37 110.06 A3.13071 3.16278 0 0 1 37.25 113.38 L3.12 113.38
								 A3.14961 3.18187 0 0 1 0 110.06 C0.61 97.57 8.04 88.42 20.18 88.42 Z" class="st2"/>
				</g>
				<g id="shape4017-9" transform="translate(17.937,-2.11912)">
					<title>Sheet.4017</title>
					<path d="M1.04 113.38 A1.02047 1.03092 0 0 1 0.29 113.06 A1.03622 1.04683 0 0 1 0 112.28 C0.58 100.34 8.72 92.66
								 18.1 92.66 C27.48 92.66 35.64 100.34 36.21 112.28 A1.03622 1.04683 0 0 1 35.92 113.06 A1.02047 1.03092
								 0 0 1 35.17 113.38 L1.04 113.38 Z" class="st3"/>
				</g>
				<g id="shape4018-13" transform="translate(37.0803,-11.3847)">
					<title>Sheet.4018</title>
					<path d="M8.75 108.51 A14.6394 14.7893 -180 0 0 0 104.74 L0 111.62 A8.18898 8.27285 0 0 1 4.07 113.38 L8.75 108.51
								 Z" class="st4"/>
				</g>
				<g id="shape4019-15" transform="translate(26.252,-11.3943)">
					<title>Sheet.4019</title>
					<path d="M0 108.52 L4.68 113.38 A8.18898 8.27285 0 0 1 8.75 111.63 L8.75 104.75 A14.6394 14.7893 -180 0 0 0 108.52
								 Z" class="st2"/>
				</g>
				<g id="shape4020-17" transform="translate(42.6205,-5.64145)">
					<title>Sheet.4020</title>
					<path d="M0 109.16 A8.67087 8.75968 0 0 1 1.69 113.38 L8.3 113.38 A15.515 15.6739 -180 0 0 4.68 104.29 L0 109.16
								 Z" class="st4"/>
				</g>
				<g id="shape4021-19" transform="translate(21.1465,-5.64463)">
					<title>Sheet.4021</title>
					<path d="M8.31 109.16 L3.63 104.29 A15.537 15.6961 -180 0 0 0 113.38 L6.61 113.38 A8.64567 8.73422 0 0 1 8.31
								 109.16 ZM27.07 107.65 A1.04252 1.0532 -180 0 0 25.73 107.05 L15.96 110.98 L16.72 112.94 L26.49 109.02
								 A1.04567 1.05638 -180 0 0 27.07 107.65 Z" class="st5"/>
				</g>
				<g id="shape4022-21" transform="translate(33.1906,-3.74188)">
					<title>Sheet.4022</title>
					<ellipse cx="2.84724" cy="110.501" rx="2.84724" ry="2.87641" class="st6"/>
				</g>
			</g>
		</g>
	</g>
</svg>
