<?xml version="1.0" encoding="UTF-8" standalone="no"?>
<!DOCTYPE svg PUBLIC "-//W3C//DTD SVG 1.1//EN" "http://www.w3.org/Graphics/SVG/1.1/DTD/svg11.dtd">
<!-- Generated by Microsoft Visio, SVG Export Azure Database for PostgreSQL.svg Page-1 -->
<svg xmlns="http://www.w3.org/2000/svg" xmlns:xlink="http://www.w3.org/1999/xlink" xmlns:ev="http://www.w3.org/2001/xml-events"
		width="1.535in" height="1.73206in" viewBox="0 0 110.52 124.709" xml:space="preserve" color-interpolation-filters="sRGB"
		class="st6">
	<style type="text/css">
	<![CDATA[
		.st1 {fill:url(#grad0-6);stroke:none;stroke-linecap:butt;stroke-width:34}
		.st2 {fill:#e8e8e8;stroke:none;stroke-linecap:butt;stroke-width:34}
		.st3 {fill:#50e6ff;stroke:none;stroke-linecap:butt;stroke-width:34}
		.st4 {fill:#198ab3;stroke:none;stroke-linecap:butt;stroke-width:34}
		.st5 {fill:#f2f2f2;stroke:none;stroke-linecap:butt;stroke-width:34}
		.st6 {fill:none;fill-rule:evenodd;font-size:12px;overflow:visible;stroke-linecap:square;stroke-miterlimit:3}
	]]>
	</style>

	<defs id="Patterns_And_Gradients">
		<linearGradient id="grad0-6" x1="0" y1="0" x2="1" y2="0" gradientTransform="rotate(-0.0087329700482936 0.5 0.5)">
			<stop offset="0" stop-color="#005ba1" stop-opacity="1"/>
			<stop offset="0.07" stop-color="#0060a9" stop-opacity="1"/>
			<stop offset="0.36" stop-color="#0071c8" stop-opacity="1"/>
			<stop offset="0.52" stop-color="#0078d4" stop-opacity="1"/>
			<stop offset="0.64" stop-color="#0074cd" stop-opacity="1"/>
			<stop offset="0.82" stop-color="#006abb" stop-opacity="1"/>
			<stop offset="1" stop-color="#005ba1" stop-opacity="1"/>
		</linearGradient>
	</defs>
	<g>
		<title>Page-1</title>
		<g id="group4241-1" transform="translate(34,-34.0157)">
			<title>Azure Database for PostgreSQL</title>
			<g id="group4242-2">
				<title>Icon-databases-131</title>
				<g id="shape4243-3">
					<title>Sheet.4243</title>
					<path d="M21.26 83.49 C9.52 83.49 0 80.15 0 75.75 L0 116.97 C0 121.21 9.35 124.64 20.96 124.71 L21.26 124.71
								 C33 124.71 42.52 121.37 42.52 116.97 L42.52 75.75 C42.52 80.02 33 83.49 21.26 83.49 Z" class="st1"/>
				</g>
				<g id="shape4244-7" transform="translate(0,-41.2191)">
					<title>Sheet.4244</title>
					<path d="M42.52 116.97 C42.52 121.24 33 124.71 21.26 124.71 C9.52 124.71 0 121.37 0 116.97 C0 112.57 9.52 109.23
								 21.26 109.23 C33 109.23 42.52 112.57 42.52 116.97 Z" class="st2"/>
				</g>
				<g id="shape4245-9" transform="translate(4.94184,-44.654)">
					<title>Sheet.4245</title>
					<path d="M32.6 119.77 C32.6 122.51 25.31 124.71 16.32 124.71 C7.33 124.71 0 122.51 0 119.81 C0 117.11 7.3 114.87
								 16.32 114.87 C25.34 114.87 32.6 117.07 32.6 119.77 Z" class="st3"/>
				</g>
				<g id="shape4246-11" transform="translate(8.32484,-44.654)">
					<title>Sheet.4246</title>
					<path d="M12.94 121.01 A38.6392 38.8513 -180 0 0 0 122.91 A38.2412 38.4511 -180 0 0 12.94 124.71 A38.0422 38.251
								 -180 0 0 25.84 122.77 A39.5679 39.7851 -180 0 0 12.94 121.01 Z" class="st4"/>
				</g>
				<g id="shape4247-13" transform="translate(6.33484,-5.90273)">
					<title>Sheet.4247</title>
					<path d="M24.88 102.26 L24.88 103.67 A16.9813 17.0746 -180 0 0 24.61 105.77 C24.61 106.17 24.61 106.77 24.78
								 107.3 C24.94 107.83 24.78 108.2 24.78 108.5 A5.572 5.60259 0 0 1 23.95 111.37 A1.42617 1.434 -180
								 0 0 23.95 111.6 L24.28 112 A34.9908 35.183 -180 0 0 27.79 104.07 C28.72 100.9 28.82 98.63 28.09
								 97.66 A8.557 8.60398 -180 0 0 19.2 94.79 A10.9118 10.9717 0 0 1 22.22 97.03 A7.562 7.60352 0 0 1
								 24.88 102.26 ZM23.85 102.53 A3.81417 3.83511 -180 0 0 21.23 102.83 C20.26 103.43 20.56 104.67 21.23
								 106.17 A25.7705 25.912 -180 0 0 22.39 109 L22.69 109.53 C22.85 109.8 22.95 110.04 23.05 110.2 L23.32
								 110.64 A4.24534 4.26864 -180 0 0 23.91 108.47 A9.48567 9.53775 -180 0 0 23.91 107.37 C23.91 106.8
								 23.91 106.17 23.75 105.73 A20.2317 20.3428 0 0 1 24.01 103.43 A2.56378 2.57786 0 0 1 23.98 102.43
								 L23.85 102.53 ZM22.85 103.9 A1.32667 1.33395 0 0 1 22.25 104.23 A1.0945 1.10051 0 0 1 21.79 104.23
								 a0.762834 0.767022 0 0 1 -0.232167 -0.633627 C21.56 103.37 21.92 103.17 22.35 103.1 L22.98 103.1
								 C22.98 103.1 23.28 103.1 23.28 103.37 a0.663334 0.666975 0 0 1 -0.2985 0.433534 L22.85 103.9 ZM7.3
								 106.87 L7.3 106.3 A3.31667 3.33488 -180 0 0 7.3 105.73 A18.4075 18.5086 0 0 1 7.3 102.4 A17.313
								 17.4081 0 0 1 8.29 98.73 A7.99317 8.03705 0 0 1 10.22 95.6 A15.8537 15.9407 -180 0 0 5.74 94.93
								 A6.20217 6.23622 -180 0 0 2.09 95.93 A6.63334 6.66975 -180 0 0 0 102 A40.6955 40.9189 -180 0 0 1.66
								 109.47 C2.79 113.27 4.08 115.6 5.21 115.97 C5.7 116.14 6.24 115.97 6.77 115.27 C7.69 114.14 8.56
								 113.17 9.05 112.6 A6.23534 6.26957 0 0 1 7.43 106.77 L7.3 106.87 ZM8.16 108.2 A7.23034 7.27003 -180
								 0 0 8.36 110.07 A4.975 5.00232 -180 0 0 9.22 111.54 A3.54883 3.56832 -180 0 0 10.38 112.37 A3.61517
								 3.63502 -180 0 0 11.67 112.64 C11.67 112.07 12.14 111.37 12.44 110.64 A14.4275 14.5067 -180 0 0
								 13.13 108.67 A21.9232 22.0435 -180 0 0 13.13 104.97 C13.13 104.67 13.13 104.33 12.94 103.97 A1.4925
								 1.50069 -180 0 0 12.54 103.07 A2.189 2.20102 -180 0 0 11.61 102.53 L10.95 102.53 A5.174 5.20241
								 -180 0 0 9.35 103 A6.63334 6.66975 -180 0 0 8.29 103.63 L8.29 106.03 A2.85233 2.86799 0 0 1 8.29
								 106.53 L8.29 107.83 L8.16 108.2 ZM10.35 103.73 A1.52567 1.53404 0 0 1 11.28 103.73 A1.99 2.00093
								 0 0 1 11.91 103.93 C12.21 103.93 12.24 104.3 12.21 104.4 A1.22717 1.2339 0 0 1 11.81 104.83 a0.995
								 1.00046 0 0 1 -0.199 -0.133395 A1.12767 1.13386 0 0 1 10.68 103.77 L10.35 103.73 ZM12.8 113.74 a0.762834
								 0.767022 -180 0 0 -0.431167 0.200093 L11.91 114.5 C11.34 115.2 11.11 115.44 9.49 115.77 A1.72467
								 1.73414 -180 0 0 8.62 116.1 A1.92367 1.93423 -180 0 0 9.42 116.47 A3.91367 3.93516 -180 0 0 11.81
								 116.47 A5.63834 5.66929 -180 0 0 13.1 115.6 A2.02317 2.03428 -180 0 0 13.76 114.57 A1.194 1.20056
								 -180 0 0 13.43 113.64 a0.4975 0.500232 -180 0 0 -0.4975 -0.0666975 L12.8 113.74 ZM28.09 113.74 A5.40617
								 5.43585 0 0 1 24.34 113.74 a0.729667 0.733673 -180 0 0 -0.464334 -1.42109E-14 a0.995 1.00046 -180
								 0 0 -0.563834 0.466883 A3.61517 3.63502 -180 0 0 23.32 115.24 A5.97 6.00278 -180 0 0 26.96 114.9
								 A4.51067 4.53543 -180 0 0 28.56 113.77 L28.09 113.74 ZM20.13 106.6 C19.67 105.23 19 103.27 20.73
								 102.06 A4.4775 4.50208 0 0 1 23.68 101.56 A10.547 10.6049 -180 0 0 21.56 97.73 L21.23 97.4 L21.03
								 97.2 A1.12767 1.13386 -180 0 0 20.83 97 A7.761 7.80361 -180 0 0 18.61 95.6 A8.72284 8.77073 -180
								 0 0 14.93 94.86 A5.04134 5.06901 -180 0 0 12.6 95.23 A5.8705 5.90273 -180 0 0 11.61 95.6 A6.965
								 7.00324 -180 0 0 9.15 98.93 A19.3693 19.4757 -180 0 0 8.46 102.26 A5.50567 5.5359 0 0 1 11.77 101.5
								 A2.786 2.8013 0 0 1 14.33 104.53 A24.079 24.2112 0 0 1 14.33 108.77 A12.8355 12.906 0 0 1 13.57
								 110.87 C13.37 111.44 13.1 112.04 12.97 112.5 A1.65833 1.66744 0 0 1 14.23 112.97 A2.189 2.20102
								 0 0 1 14.86 114.74 L14.93 114.74 L14.93 115.54 A21.7242 21.8434 -180 0 0 15.72 123.67 A1.791 1.80083
								 -180 0 0 16.52 124.38 A1.99 2.00093 -180 0 0 17.55 124.71 A4.31167 4.33534 -180 0 0 20.86 123.57
								 A3.4825 3.50162 -180 0 0 21.82 121.37 C22.06 119.87 22.55 115.7 22.62 114.7 A2.388 2.40111 0 0 1
								 22.92 113.24 A2.0895 2.10097 0 0 1 23.81 112.44 A17.7773 17.8749 0 0 1 20.26 106.4 L20.13 106.6
								 Z" class="st5"/>
				</g>
			</g>
		</g>
	</g>
</svg>
