<?xml version="1.0" encoding="UTF-8" standalone="no"?>
<!DOCTYPE svg PUBLIC "-//W3C//DTD SVG 1.1//EN" "http://www.w3.org/Graphics/SVG/1.1/DTD/svg11.dtd">
<!-- Generated by Microsoft Visio, SVG Export Azure LightHouse My Role.svg Page-1 -->
<svg xmlns="http://www.w3.org/2000/svg" xmlns:xlink="http://www.w3.org/1999/xlink" xmlns:ev="http://www.w3.org/2001/xml-events"
		width="1.5748in" height="1.94165in" viewBox="0 0 113.386 139.799" xml:space="preserve" color-interpolation-filters="sRGB"
		class="st7">
	<style type="text/css">
	<![CDATA[
		.st1 {fill:#0072c6;stroke:none;stroke-linecap:butt;stroke-width:12.24}
		.st2 {fill:#ffffff;stroke:none;stroke-linecap:butt;stroke-width:12.24}
		.st3 {fill:#7a7a7a;stroke:none;stroke-linecap:butt;stroke-width:12.24}
		.st4 {fill:#804998;stroke:none;stroke-linecap:butt;stroke-width:12.24}
		.st5 {fill:#3999c6;stroke:none;stroke-linecap:butt;stroke-width:12.24}
		.st6 {fill:#ffffff;fill-opacity:0.2;stroke:none;stroke-linecap:butt;stroke-width:12.24}
		.st7 {fill:none;fill-rule:evenodd;font-size:12px;overflow:visible;stroke-linecap:square;stroke-miterlimit:3}
	]]>
	</style>

	<g>
		<title>Page-1</title>
		<g id="group4476-1" transform="translate(28.3465,-70.8661)">
			<title>Azure LightHouse My Role</title>
			<g id="group4477-2">
				<title>g22</title>
				<g id="shape4478-3">
					<title>path4</title>
					<path d="M14.17 139.8 L1.7 139.8 A1.70079 1.7355 0 0 1 0 138.06 L0 125.34 A1.70079 1.7355 0 0 1 1.7 123.6 L14.17
								 123.6 A1.70079 1.7355 0 0 1 15.87 125.34 L15.87 138.06 A1.70079 1.7355 0 0 1 14.17 139.8 Z"
							class="st1"/>
				</g>
				<g id="shape4479-5" transform="translate(3.40157,-3.47099)">
					<title>path6</title>
					<rect x="0" y="130.543" width="9.07087" height="9.25599" class="st2"/>
				</g>
				<g id="shape4480-7" transform="translate(19.2756,3.12639E-13)">
					<title>path8</title>
					<path d="M14.17 139.8 L1.7 139.8 A1.70079 1.7355 0 0 1 -0 138.06 L0 125.34 A1.70079 1.7355 0 0 1 1.7 123.6 L14.17
								 123.6 A1.70079 1.7355 0 0 1 15.87 125.34 L15.87 138.06 A1.70079 1.7355 0 0 1 14.17 139.8 Z"
							class="st1"/>
				</g>
				<g id="shape4481-9" transform="translate(22.6772,-3.47099)">
					<title>path10</title>
					<rect x="0" y="130.543" width="9.07087" height="9.25599" class="st2"/>
				</g>
				<g id="shape4482-11" transform="translate(26.0787,-16.198)">
					<title>path12</title>
					<rect x="0" y="124.758" width="2.26772" height="15.041" class="st3"/>
				</g>
				<g id="shape4483-13" transform="translate(14.7402,-31.239)">
					<title>path14</title>
					<path d="M24.94 127.07 C24.94 134.1 19.36 139.8 12.47 139.8 C5.58 139.8 0 134.1 0 127.07 C0 120.04 5.58 114.35
								 12.47 114.35 C19.36 114.35 24.94 120.04 24.94 127.07 Z" class="st4"/>
				</g>
				<g id="shape4484-15" transform="translate(36.2835,3.12639E-13)">
					<title>path16</title>
					<path d="M16.89 114.35 C16.89 118 13.9 120.96 10.2 120.96 C6.51 120.96 3.51 118 3.51 114.35 C3.51 110.69 6.51
								 107.73 10.2 107.73 C13.9 107.73 16.89 110.69 16.89 114.35 ZM14.38 123.6 L10.2 130.17 L6.03 123.6
								 L0 123.6 L0 139.8 L20.41 139.8 L20.41 123.6 L14.38 123.6 Z" class="st5"/>
				</g>
				<g id="shape4485-17" transform="translate(14.7662,-35.7848)">
					<title>path18</title>
					<path d="M20.46 123.44 C16.04 118.92 8.86 118.92 4.43 123.44 C0 127.95 0 135.28 4.43 139.8 L20.46 123.44 Z"
							class="st6"/>
				</g>
				<g id="shape4486-19" transform="translate(6.80315,-16.198)">
					<title>path20</title>
					<path d="M31.86 130.54 L2.27 130.54 A2.26772 2.314 -180 0 0 0 132.86 L0 139.8 L2.27 139.8 L2.27 132.86 L32.22
								 132.86 A7.40409 7.5552 0 0 1 31.86 130.54 Z" class="st3"/>
				</g>
			</g>
		</g>
	</g>
</svg>
