<?xml version="1.0" encoding="UTF-8" standalone="no"?>
<!DOCTYPE svg PUBLIC "-//W3C//DTD SVG 1.1//EN" "http://www.w3.org/Graphics/SVG/1.1/DTD/svg11.dtd">
<!-- Generated by Microsoft Visio, SVG Export Azure Arc SQL Server.svg Page-1 -->
<svg xmlns="http://www.w3.org/2000/svg" xmlns:xlink="http://www.w3.org/1999/xlink" xmlns:ev="http://www.w3.org/2001/xml-events"
		width="1.68991in" height="1.73206in" viewBox="0 0 121.674 124.709" xml:space="preserve" color-interpolation-filters="sRGB"
		class="st6">
	<style type="text/css">
	<![CDATA[
		.st1 {fill:#5ea0ef;stroke:none;stroke-linecap:butt;stroke-width:34}
		.st2 {fill:#50e6ff;stroke:none;stroke-linecap:butt;stroke-width:34}
		.st3 {fill:url(#grad0-10);stroke:none;stroke-linecap:butt;stroke-width:34}
		.st4 {fill:url(#grad0-14);stroke:none;stroke-linecap:butt;stroke-width:34}
		.st5 {fill:#ffffff;stroke:none;stroke-linecap:butt;stroke-width:34}
		.st6 {fill:none;fill-rule:evenodd;font-size:12px;overflow:visible;stroke-linecap:square;stroke-miterlimit:3}
	]]>
	</style>

	<defs id="Patterns_And_Gradients">
		<linearGradient id="grad0-10" x1="0" y1="0" x2="1" y2="0" gradientTransform="rotate(-90 0.5 0.5)">
			<stop offset="0" stop-color="#0078d4" stop-opacity="1"/>
			<stop offset="0.82" stop-color="#5ea0ef" stop-opacity="1"/>
		</linearGradient>
		<linearGradient id="grad0-14" x1="0" y1="0" x2="1" y2="0" gradientTransform="rotate(-90 0.5 0.5)">
			<stop offset="0.15" stop-color="#cccccc" stop-opacity="1"/>
			<stop offset="1" stop-color="#707070" stop-opacity="1"/>
		</linearGradient>
	</defs>
	<g>
		<title>Page-1</title>
		<g id="group4412-1" transform="translate(33.907,-34.0157)">
			<title>Azure Arc SQL Server</title>
			<g id="group4413-2">
				<title>Sheet.4413</title>
				<g id="shape4414-3" transform="translate(0.0731126,2.98428E-13)">
					<title>Sheet.4414</title>
					<path d="M53.61 115.87 C53.11 118.08 50.37 120.25 45.42 121.95 A67.5753 68.0126 0 0 1 7.47 122 C2.91 120.38 0.45
								 118.31 0.07 116.2 C0 115.83 0.07 110.01 0.07 110.01 L53.69 109.51 C53.69 109.51 53.67 115.6 53.61
								 115.87 Z" class="st1"/>
				</g>
				<g id="shape4415-5" transform="translate(-1.06468,-5.20829) rotate(-0.575)">
					<title>Sheet.4415</title>
					<ellipse cx="26.8374" cy="115.37" rx="26.8374" ry="9.33859" class="st2"/>
				</g>
				<g id="shape4416-7" transform="translate(4.32904,-26.3685)">
					<title>Sheet.4416</title>
					<path d="M-0 123.19 A1.50526 1.515 -180 0 0 1.51 124.71 L43.69 124.71 A1.50526 1.515 -180 0 0 45.19 123.19 L45.19
								 95.9 A1.50526 1.515 -180 0 0 43.69 94.38 L1.51 94.38 A1.50526 1.515 -180 0 0 -0 95.9 L0 123.19 Z"
							class="st3"/>
				</g>
				<g id="shape4417-11" transform="translate(15.6291,-14.6771)">
					<title>Sheet.4417</title>
					<path d="M20.37 122.19 C15.9 121.48 15.73 118.25 15.73 113.02 L6.85 113.02 C6.85 118.25 6.7 121.48 2.23 122.19
								 A2.50349 2.51969 -180 0 0 0 124.71 L22.59 124.71 A2.50349 2.51969 -180 0 0 20.37 122.19 Z"
							class="st4"/>
				</g>
				<g id="shape4418-15" transform="translate(12.8065,-34.2268)">
					<title>Sheet.4418</title>
					<path d="M24.13 119.71 L24.13 110.3 L21.44 110.3 L21.44 121.79 L28.24 121.79 L28.24 119.71 L24.13 119.71 ZM4.42
								 115.06 A5.49828 5.53386 0 0 1 3.01 114.21 A1.21732 1.2252 0 0 1 2.66 113.29 a0.97636 0.982678 0
								 0 1 0.428722 -0.840945 A1.85571 1.86772 0 0 1 4.24 112.15 A4.46246 4.49134 0 0 1 6.92 112.95 L6.92
								 110.56 A7.51046 7.55906 -180 0 0 4.24 110.12 A4.669 4.69922 -180 0 0 1.21 111.06 A3.01357 3.03307
								 -180 0 0 0.08 113.55 A3.71455 3.73859 -180 0 0 2.44 116.9 A6.62485 6.66772 0 0 1 4.14 117.9 A1.0984
								 1.10551 0 0 1 4.57 118.8 A1.07024 1.07717 0 0 1 4.14 119.66 A2.07163 2.08504 0 0 1 3.01 120.01 A4.53444
								 4.56378 0 0 1 -0 118.82 L0 121.52 A6.07721 6.11654 -180 0 0 2.95 122.17 A5.36685 5.40158 -180 0
								 0 6.21 121.11 A3.00418 3.02362 -180 0 0 7.39 118.57 A2.68499 2.70236 -180 0 0 6.69 116.62 A6.80635
								 6.8504 -180 0 0 4.42 115.06 ZM18.77 119.49 A6.44022 6.48189 -180 0 0 19.68 115.97 A6.57165 6.61418
								 -180 0 0 18.98 112.92 A5.00697 5.03937 -180 0 0 17.05 110.83 A5.55461 5.59056 -180 0 0 14.35 110.12
								 A5.98646 6.0252 -180 0 0 11.37 110.88 A5.09146 5.12441 -180 0 0 9.32 113.04 A6.64676 6.68977 -180
								 0 0 8.49 116.22 A6.54662 6.58898 -180 0 0 9.13 119.14 A5.12902 5.16221 -180 0 0 11.04 121.19 A5.54835
								 5.58426 -180 0 0 13.73 122.01 L16.09 124.71 L19.44 124.71 L16.19 121.56 A4.77227 4.80315 -180 0
								 0 18.75 119.49 L18.77 119.49 ZM16.08 118.79 A2.52852 2.54488 0 0 1 13.99 119.76 A2.47219 2.48819
								 0 0 1 11.89 118.76 A4.15579 4.18268 0 0 1 11.08 116.06 A4.23402 4.26142 0 0 1 11.89 113.35 A2.68186
								 2.69921 0 0 1 14.04 112.35 A2.41273 2.42835 0 0 1 16.11 113.35 A4.4343 4.463 0 0 1 16.86 116.06
								 A4.03061 4.0567 0 0 1 16.19 118.79 L16.08 118.79 Z" class="st5"/>
				</g>
			</g>
		</g>
	</g>
</svg>
