<?xml version="1.0" encoding="UTF-8" standalone="no"?>
<!DOCTYPE svg PUBLIC "-//W3C//DTD SVG 1.1//EN" "http://www.w3.org/Graphics/SVG/1.1/DTD/svg11.dtd">
<!-- Generated by Microsoft Visio, SVG Export Azure Synapse Analytics Pipeline.svg Page-1 -->
<svg xmlns="http://www.w3.org/2000/svg" xmlns:xlink="http://www.w3.org/1999/xlink" xmlns:ev="http://www.w3.org/2001/xml-events"
		width="0.944882in" height="1.29528in" viewBox="0 0 68.0315 93.2598" xml:space="preserve" color-interpolation-filters="sRGB"
		class="st6">
	<style type="text/css">
	<![CDATA[
		.st1 {fill:#0078d4;stroke:none;stroke-linecap:butt;stroke-width:0.749999}
		.st2 {fill:url(#grad0-12);stroke:none;stroke-linecap:butt;stroke-width:0.749999}
		.st3 {fill:#50e6ff;stroke:none;stroke-linecap:butt;stroke-width:0.749999}
		.st4 {fill:url(#grad0-20);stroke:none;stroke-linecap:butt;stroke-width:0.749999}
		.st5 {fill:#000000;stroke:none;stroke-linecap:butt;stroke-width:0.749999}
		.st6 {fill:none;fill-rule:evenodd;font-size:12px;overflow:visible;stroke-linecap:square;stroke-miterlimit:3}
	]]>
	</style>

	<defs id="Patterns_And_Gradients">
		<linearGradient id="grad0-12" x1="0" y1="0" x2="1" y2="0" gradientTransform="rotate(-90 0.5 0.5)">
			<stop offset="0.2" stop-color="#005ba1" stop-opacity="1"/>
			<stop offset="1" stop-color="#0078d4" stop-opacity="1"/>
		</linearGradient>
		<linearGradient id="grad0-20" x1="0" y1="0" x2="1" y2="0" gradientTransform="rotate(-90 0.5 0.5)">
			<stop offset="0" stop-color="#198ab3" stop-opacity="1"/>
			<stop offset="0.17" stop-color="#32bedd" stop-opacity="1"/>
			<stop offset="0.5" stop-color="#50e6ff" stop-opacity="1"/>
			<stop offset="0.5" stop-color="#4fe4fd" stop-opacity="1"/>
			<stop offset="0.5" stop-color="#4bddf8" stop-opacity="1"/>
			<stop offset="0.5" stop-color="#44d2ee" stop-opacity="1"/>
			<stop offset="0.5" stop-color="#3ac1e0" stop-opacity="1"/>
			<stop offset="0.5" stop-color="#2dabce" stop-opacity="1"/>
			<stop offset="0.5" stop-color="#1d90b8" stop-opacity="1"/>
			<stop offset="0.5" stop-color="#198ab3" stop-opacity="1"/>
			<stop offset="0.66" stop-color="#32bedd" stop-opacity="1"/>
			<stop offset="0.975" stop-color="#50e6ff" stop-opacity="1"/>
		</linearGradient>
	</defs>
	<g>
		<title>Page-1</title>
		<g id="group7303-1" transform="translate(5.66929,-34.0157)">
			<title>Azure Synapse Analytics Pipeline</title>
			<g id="group7304-2">
				<title>Page-1</title>
				<g id="group7305-3">
					<title>Sheet.7305</title>
					<g id="group7306-4" transform="translate(0,-5.87641)">
						<title>Sheet.7306</title>
						<g id="group7307-5">
							<title>Sheet.7307</title>
							<g id="shape7308-6">
								<title>Sheet.7308</title>
								<path d="M20.82 45.28 L0 57.25 L0 81.16 L20.82 93.26 L41.65 81.29 L41.65 57.31 L20.82 45.28 ZM37.79
											 78.78 L20.82 88.65 L3.84 78.89 L3.84 59.63 L20.82 49.76 L37.79 59.65 L37.79 78.78 Z"
										class="st1"/>
							</g>
						</g>
						<g id="group7309-8" transform="translate(0,-33.6389)">
							<title>Sheet.7309</title>
							<g id="shape7310-9">
								<title>Sheet.7310</title>
								<path d="M20.82 78.92 L0 90.89 L3.84 93.26 L20.82 83.4 L37.79 93.26 L41.65 90.89 L20.82 78.92 Z"
										class="st2"/>
							</g>
						</g>
						<g id="group7311-13" transform="translate(6.53258,-5.99476)">
							<title>Sheet.7311</title>
							<g id="shape7312-14">
								<title>Sheet.7312</title>
								<path d="M24.21 79.2 A1.93617 1.94583 -180 0 0 23.35 78.44 A15.476 15.5533 -180 0 0 11.48 69.51 L28.65
											 59.54 L24.66 57.24 L5.09 68.6 A1.98921 1.99914 -180 0 0 6.09 72.33 A1.81416 1.82322
											 -180 0 0 6.33 72.27 L6.66 73.67 A11.4552 11.5124 0 0 1 19.5 79.63 L0 90.95 L3.98 93.26
											 L23.49 81.93 A1.93352 1.94317 -180 0 0 24.12 81.3 L24.32 81.26 C24.3 81.18 24.28 81.1
											 24.25 81.03 A1.94943 1.95916 -180 0 0 24.21 79.2 Z" class="st3"/>
							</g>
						</g>
						<g id="group7313-16" transform="translate(9.15442,-15.5387)">
							<title>Sheet.7313</title>
							<g id="shape7314-17">
								<title>Sheet.7314</title>
								<path d="M19.86 84.84 A4.90672 4.93121 -180 1 0 24.78 89.78 A4.90672 4.93121 -180 0 0 19.86 84.84
											 ZM3.46 74.85 A4.90672 4.93121 -180 1 0 8.38 79.79 A4.90672 4.93121 -180 0 0 3.46 74.85
											 Z" class="st4"/>
							</g>
						</g>
					</g>
					<g id="group7315-21" transform="translate(31.581,0)">
						<title>Sheet.7315</title>
						<g id="group7316-22">
							<title>Sheet.7316</title>
							<g id="shape7317-23">
								<title>Sheet.7317</title>
								<path d="M25.11 85.38 C25.11 85.8 25.1 86.24 25.07 86.7 C25.03 87.16 24.98 87.63 24.89 88.09 C24.81
											 88.55 24.71 89.01 24.59 89.45 C24.47 89.9 24.31 90.33 24.13 90.71 C24 91.01 23.83 91.3
											 23.65 91.6 C23.47 91.92 23.26 92.18 23.01 92.43 C22.75 92.68 22.48 92.88 22.19 93.02
											 C21.91 93.17 21.58 93.25 21.19 93.26 L16.88 93.26 L16.88 93.23 C16.73 93.25 16.6 93.26
											 16.48 93.26 C16.22 93.26 15.98 93.22 15.74 93.14 C15.52 93.06 15.31 92.94 15.11 92.78
											 C14.91 92.62 14.73 92.45 14.54 92.27 C14.36 92.1 14.22 91.89 14.09 91.68 L11.05 91.68
											 C10.91 91.89 10.76 92.1 10.6 92.29 C10.43 92.48 10.24 92.64 10.03 92.78 C9.82 92.92
											 9.6 93.04 9.38 93.13 C9.16 93.22 8.91 93.26 8.63 93.26 L3.92 93.26 C3.55 93.26 3.22
											 93.18 2.93 93.04 C2.64 92.89 2.36 92.69 2.11 92.43 C1.86 92.17 1.64 91.91 1.46 91.6
											 C1.28 91.31 1.13 91.01 0.98 90.71 C0.8 90.32 0.65 89.89 0.52 89.45 C0.4 89.01 0.31 88.56
											 0.23 88.1 C0.16 87.64 0.1 87.17 0.07 86.7 C0.02 86.24 0 85.79 0 85.38 C0 84.94 0.01
											 84.5 0.04 84.04 C0.08 83.59 0.13 83.12 0.22 82.66 C0.3 82.2 0.4 81.75 0.52 81.29 C0.65
											 80.84 0.8 80.42 0.98 80.04 C1.11 79.73 1.27 79.44 1.46 79.14 C1.65 78.83 1.86 78.56
											 2.11 78.31 C2.35 78.07 2.63 77.86 2.92 77.72 C3.21 77.57 3.54 77.49 3.92 77.48 L8.63
											 77.48 C8.89 77.48 9.14 77.53 9.37 77.61 C9.6 77.69 9.82 77.81 10.03 77.95 C10.24 78.1
											 10.43 78.27 10.58 78.46 C10.74 78.65 10.9 78.85 11.05 79.06 L14.09 79.06 C14.22 78.86
											 14.37 78.66 14.54 78.47 C14.72 78.28 14.9 78.11 15.1 77.97 C15.3 77.82 15.51 77.71 15.74
											 77.62 C15.99 77.54 16.23 77.49 16.48 77.48 L21.19 77.48 C21.56 77.48 21.89 77.56 22.18
											 77.71 C22.48 77.85 22.75 78.05 23.01 78.31 C23.26 78.57 23.47 78.84 23.64 79.14 C23.82
											 79.43 23.98 79.73 24.13 80.04 C24.31 80.43 24.47 80.85 24.59 81.29 C24.71 81.74 24.81
											 82.19 24.88 82.65 C24.96 83.1 25.01 83.57 25.06 84.04 C25.09 84.5 25.11 84.95 25.11
											 85.38 ZM3.92 91.68 C4.1 91.68 4.26 91.63 4.41 91.51 C4.57 91.39 4.71 91.26 4.85 91.08
											 C4.98 90.91 5.09 90.73 5.19 90.55 C5.28 90.37 5.37 90.2 5.44 90.07 C5.59 89.72 5.72
											 89.35 5.83 88.97 C5.93 88.58 6.02 88.19 6.08 87.77 C6.15 87.36 6.19 86.96 6.23 86.54
											 C6.26 86.13 6.28 85.75 6.28 85.38 C6.28 85.01 6.26 84.62 6.24 84.2 C6.22 83.79 6.17
											 83.38 6.09 82.98 C6.02 82.58 5.93 82.18 5.83 81.78 C5.72 81.39 5.59 81.02 5.44 80.67
											 C5.37 80.54 5.3 80.38 5.2 80.2 C5.1 80.03 4.98 79.85 4.85 79.68 C4.7 79.51 4.56 79.36
											 4.41 79.24 C4.27 79.13 4.1 79.07 3.92 79.06 C3.75 79.06 3.59 79.12 3.43 79.23 C3.28
											 79.35 3.13 79.49 3.01 79.67 C2.87 79.84 2.76 80.01 2.66 80.19 C2.56 80.37 2.48 80.54
											 2.42 80.67 C2.26 81.02 2.13 81.39 2.03 81.77 C1.92 82.16 1.83 82.56 1.77 82.97 C1.7
											 83.38 1.65 83.79 1.62 84.2 C1.58 84.62 1.57 85.01 1.57 85.38 C1.57 85.75 1.58 86.13
											 1.6 86.54 C1.63 86.96 1.68 87.36 1.75 87.76 C1.83 88.17 1.92 88.57 2.03 88.96 C2.13
											 89.35 2.26 89.72 2.42 90.07 C2.47 90.2 2.55 90.36 2.65 90.54 C2.75 90.72 2.86 90.9 3.01
											 91.07 C3.14 91.23 3.29 91.38 3.43 91.5 C3.58 91.61 3.74 91.67 3.92 91.68 ZM10.99 85.38
											 C10.99 85.01 10.97 84.62 10.95 84.2 C10.93 83.79 10.87 83.38 10.81 82.98 C10.73 82.58
											 10.64 82.18 10.54 81.78 C10.43 81.39 10.29 81.02 10.14 80.67 C10.08 80.54 10 80.38 9.9
											 80.2 C9.82 80.03 9.69 79.85 9.55 79.68 C9.41 79.51 9.27 79.36 9.12 79.24 C8.98 79.13
											 8.81 79.07 8.63 79.06 L6.34 79.06 C6.62 79.5 6.85 79.97 7.05 80.5 C7.25 81.01 7.4 81.55
											 7.52 82.1 C7.63 82.65 7.71 83.21 7.77 83.77 C7.81 84.34 7.84 84.87 7.84 85.38 C7.84
											 85.88 7.82 86.42 7.78 86.98 C7.72 87.54 7.64 88.09 7.52 88.64 C7.4 89.18 7.24 89.72
											 7.05 90.25 C6.86 90.77 6.63 91.26 6.34 91.68 L8.63 91.68 C8.8 91.68 8.97 91.63 9.12
											 91.51 C9.28 91.39 9.43 91.26 9.55 91.08 C9.68 90.91 9.79 90.73 9.89 90.55 C9.99 90.37
											 10.07 90.2 10.14 90.07 C10.29 89.72 10.43 89.35 10.54 88.97 C10.64 88.58 10.73 88.19
											 10.8 87.77 C10.86 87.36 10.91 86.96 10.94 86.54 C10.97 86.13 10.99 85.75 10.99 85.38
											 ZM16.48 91.68 C16.66 91.68 16.81 91.63 16.97 91.51 C17.12 91.39 17.27 91.26 17.4 91.08
											 C17.54 90.91 17.65 90.73 17.75 90.55 C17.85 90.37 17.93 90.2 17.99 90.07 C18.15 89.72
											 18.27 89.35 18.38 88.97 C18.49 88.58 18.57 88.19 18.64 87.77 C18.71 87.36 18.75 86.96
											 18.78 86.54 C18.82 86.13 18.84 85.75 18.84 85.38 C18.84 85.01 18.83 84.62 18.79 84.2
											 C18.77 83.79 18.73 83.38 18.65 82.98 C18.58 82.58 18.49 82.18 18.38 81.78 C18.27 81.39
											 18.15 81.02 17.99 80.67 C17.94 80.54 17.86 80.38 17.76 80.2 C17.66 80.03 17.54 79.85
											 17.4 79.68 C17.26 79.51 17.12 79.36 16.97 79.24 C16.82 79.13 16.67 79.07 16.48 79.06
											 C16.32 79.06 16.17 79.12 16.02 79.23 C15.86 79.35 15.73 79.49 15.6 79.66 C15.46 79.81
											 15.35 79.99 15.25 80.18 C15.15 80.37 15.07 80.53 15 80.64 L11.81 80.64 C12.07 81.39
											 12.26 82.16 12.38 82.97 C12.49 83.78 12.54 84.57 12.56 85.38 C12.56 86.17 12.5 86.97
											 12.39 87.77 C12.27 88.58 12.08 89.35 11.81 90.1 L15 90.1 C15.06 90.23 15.14 90.38 15.24
											 90.56 C15.34 90.74 15.45 90.91 15.59 91.08 C15.72 91.24 15.85 91.39 16 91.51 C16.15
											 91.64 16.31 91.69 16.48 91.68 ZM23.54 85.38 C23.54 85.01 23.53 84.62 23.51 84.2 C23.49
											 83.79 23.43 83.38 23.36 82.98 C23.28 82.58 23.2 82.18 23.1 81.78 C22.98 81.39 22.85
											 81.02 22.69 80.67 C22.64 80.54 22.56 80.38 22.47 80.2 C22.37 80.03 22.25 79.85 22.11
											 79.68 C21.97 79.51 21.83 79.36 21.68 79.24 C21.54 79.13 21.37 79.07 21.19 79.06 L18.9
											 79.06 C19.17 79.5 19.41 79.97 19.61 80.5 C19.81 81.01 19.96 81.55 20.08 82.1 C20.19
											 82.65 20.28 83.21 20.32 83.77 C20.37 84.34 20.4 84.87 20.41 85.38 C20.41 85.88 20.38
											 86.42 20.33 86.98 C20.29 87.54 20.2 88.09 20.08 88.64 C19.95 89.18 19.8 89.72 19.61
											 90.25 C19.42 90.77 19.18 91.26 18.9 91.68 L21.19 91.68 C21.36 91.68 21.52 91.63 21.68
											 91.51 C21.84 91.39 21.98 91.26 22.11 91.08 C22.24 90.91 22.36 90.73 22.45 90.55 C22.55
											 90.37 22.64 90.2 22.69 90.07 C22.85 89.72 22.98 89.35 23.1 88.97 C23.2 88.58 23.28 88.19
											 23.35 87.77 C23.42 87.36 23.46 86.96 23.5 86.54 C23.53 86.13 23.54 85.75 23.54 85.38
											 Z" class="st5"/>
							</g>
						</g>
					</g>
				</g>
			</g>
		</g>
	</g>
</svg>
