<?xml version="1.0" encoding="UTF-8" standalone="no"?>
<!-- Generated by Microsoft Visio, SVG Export Azure HDInsight on AKS.svg Page-1 -->

<svg
   xmlns:dc="http://purl.org/dc/elements/1.1/"
   xmlns:cc="http://creativecommons.org/ns#"
   xmlns:rdf="http://www.w3.org/1999/02/22-rdf-syntax-ns#"
   xmlns:svg="http://www.w3.org/2000/svg"
   xmlns="http://www.w3.org/2000/svg"
   xmlns:sodipodi="http://sodipodi.sourceforge.net/DTD/sodipodi-0.dtd"
   xmlns:inkscape="http://www.inkscape.org/namespaces/inkscape"
   width="0.70860761in"
   height="0.78726363in"
   viewBox="0 0 51.0198 56.68326"
   xml:space="preserve"
   class="st4"
   version="1.1"
   id="svg40"
   sodipodi:docname="Azure HDInsight on AKS.svg"
   style="font-size:12px;overflow:visible;color-interpolation-filters:sRGB;fill:none;fill-rule:evenodd;stroke-linecap:square;stroke-miterlimit:3"
   inkscape:version="0.92.5 (2060ec1f9f, 2020-04-08)"><metadata
   id="metadata44"><rdf:RDF><cc:Work
       rdf:about=""><dc:format>image/svg+xml</dc:format><dc:type
         rdf:resource="http://purl.org/dc/dcmitype/StillImage" /></cc:Work></rdf:RDF></metadata><sodipodi:namedview
   pagecolor="#ffffff"
   bordercolor="#666666"
   borderopacity="1"
   objecttolerance="10"
   gridtolerance="10"
   guidetolerance="10"
   inkscape:pageopacity="0"
   inkscape:pageshadow="2"
   inkscape:window-width="640"
   inkscape:window-height="480"
   id="namedview42"
   showgrid="false"
   inkscape:zoom="1.6696778"
   inkscape:cx="34.015563"
   inkscape:cy="25.310611"
   inkscape:window-x="0"
   inkscape:window-y="0"
   inkscape:window-maximized="0"
   inkscape:current-layer="svg40" />
	<style
   type="text/css"
   id="style2">
	<![CDATA[
		.st1 {fill:#773adc;stroke:none;stroke-linecap:butt;stroke-width:15.3}
		.st2 {fill:url(#grad6-8);stroke:none;stroke-linecap:butt;stroke-width:15.3}
		.st3 {fill:url(#grad6-12);stroke:none;stroke-linecap:butt;stroke-width:15.3}
		.st4 {fill:none;fill-rule:evenodd;font-size:12px;overflow:visible;stroke-linecap:square;stroke-miterlimit:3}
	]]>
	</style>

	<defs
   id="Patterns_And_Gradients">
		<radialGradient
   id="grad6-8"
   cx="32.505851"
   cy="78.934827"
   r="45.510185"
   gradientTransform="scale(1.0512414,0.95125628)"
   fx="32.505851"
   fy="78.934827"
   gradientUnits="userSpaceOnUse">
			<stop
   offset="0.39"
   stop-color="#a67af4"
   stop-opacity="1"
   id="stop4" />
			<stop
   offset="1"
   stop-color="#773adc"
   stop-opacity="1"
   id="stop6" />
		</radialGradient>
		<radialGradient
   id="grad6-12"
   cx="36.385542"
   cy="78.092577"
   r="50.934064"
   gradientTransform="scale(1.0798245,0.92607641)"
   fx="36.385542"
   fy="78.092577"
   gradientUnits="userSpaceOnUse">
			<stop
   offset="0"
   stop-color="#5ea0ef"
   stop-opacity="1"
   id="stop9" />
			<stop
   offset="1"
   stop-color="#0078d4"
   stop-opacity="1"
   id="stop11" />
		</radialGradient>
	</defs>
	<g
   id="g38"
   transform="translate(-15.300162,-15.304292)">
		<title
   id="title15">Page-1</title>
		<g
   id="group9144-1"
   transform="translate(15.3,-34.0157)">
			<title
   id="title17">Azure HDInsight on AKS</title>
			<g
   id="group9145-2">
				<title
   id="title19">Sheet.9145</title>
				<g
   id="shape9146-3">
					<title
   id="title21">Sheet.9146</title>
					<path
   d="m 25.45,51.68 c 0.43,0 0.85,0.11 1.23,0.32 L 47.4,63.76 c 0.76,0.43 1.24,1.24 1.24,2.11 v 23.56 c 0,0.87 -0.48,1.67 -1.23,2.11 l -20.66,11.78 a 2.47171,2.44197 0 0 1 -2.47,0 L 3.62,91.54 A 2.4674,2.43772 0 0 1 2.39,89.43 V 65.86 c 0,-0.86 0.48,-1.67 1.23,-2.1 L 24.22,52 a 2.45306,2.42355 0 0 1 1.23,-0.32 z m 0,-2.36 c -0.84,0 -1.68,0.21 -2.43,0.64 L 2.43,61.71 A 4.85017,4.79183 -180 0 0 0,65.86 v 23.57 c 0,1.71 0.92,3.29 2.42,4.15 l 20.67,11.78 a 4.84156,4.78332 -180 0 0 4.85,0 L 48.6,93.58 a 4.85017,4.79183 -180 0 0 2.42,-4.15 V 65.87 A 4.85591,4.7975 -180 0 0 48.59,61.71 L 27.86,49.95 a 4.84013,4.78191 -180 0 0 -2.41,-0.63 z"
   class="st1"
   id="path23"
   inkscape:connector-curvature="0"
   style="fill:#773adc;stroke:none;stroke-width:15.30000019;stroke-linecap:butt" />
				</g>
				<g
   id="shape9147-5"
   transform="translate(7.99396,-16.5541)">
					<title
   id="title26">Sheet.9147</title>
					<path
   d="m 4.28,97.55 a 4.2814974,4.23 -180 1 0 0,8.46 4.2814974,4.23 -180 0 0 0,-8.46 z m 25.61,0 a 4.2814974,4.23 -180 1 0 0,8.46 4.2814974,4.23 -180 0 0 0,-8.46 z M 17.09,75.09 a 4.27922,4.22775 -180 1 0 0,8.45 4.27922,4.22775 -180 0 0 0,-8.45 z"
   class="st2"
   id="path28"
   inkscape:connector-curvature="0"
   style="fill:url(#grad6-8);stroke:none;stroke-width:15.30000019;stroke-linecap:butt" />
				</g>
				<g
   id="shape9148-9"
   transform="translate(5.48327,-9.55982)">
					<title
   id="title31">Sheet.9148</title>
					<path
   d="m 12.07,88.18 a 8.56419,8.46117 0 0 1 3.07,4.89 0.622589,0.6151 -180 0 0 0.625458,0.480458 L 23.45,93.55 c 0.04,0 0.08,-0.01 0.13,-0.03 0.02,0 0.04,0 0.06,-0.01 a 0.66706,0.659036 -180 0 0 0.130543,-0.07653 C 23.79,93.42 23.81,93.41 23.83,93.4 a 0.655584,0.647697 -180 0 0 0.10759,-0.119052 C 23.94,93.27 23.96,93.26 23.96,93.24 A 0.61972,0.612265 -180 0 0 24.0432,93.041581 8.55701,8.45408 0 0 1 27.15,88.13 0.621155,0.613683 -180 0 0 27.313537,87.307977 L 24.99,83.29 24.98,83.3 23.33,80.45 A 0.626893,0.619352 -180 0 0 22.542439,80.199141 8.95295,8.84525 0 0 1 19.65,80.73 8.21703,8.11818 0 0 1 16.67,80.2 0.646976,0.639194 -180 0 0 15.881004,80.496212 L 11.9,87.35 a 0.645542,0.637776 -180 0 0 0.163537,0.822023 z M 12.94,77.53 A 8.44082,8.33928 0 0 1 11.05,72.32 H 6.52 A 0.629762,0.622186 -180 0 0 5.964834,72.641723 L 0.09,82.63 a 0.65128,0.643445 -180 0 0 0,0.637776 L 2.24,86.92 c 0.17,0.3 0.54,0.41 0.85,0.28 a 8.36766,8.267 0 0 1 3.7,-0.85 6.22589,6.151 0 0 1 0.93,0 0.718703,0.710058 -180 0 0 0.645542,-0.321723 L 10.19,82.94 l 2.75,-4.7 a 0.622589,0.6151 -180 0 0 0,-0.705806 z m 26.28,5.53 A 0.674233,0.666122 -180 0 0 39.13393,82.734025 L 33.4,72.64 A 0.6355,0.627855 -180 0 0 32.844834,72.319695 L 28.22,72.32 a 8.49246,8.3903 0 0 1 -1.81,5.19 0.628327,0.620769 -180 0 0 0,0.70864 l 2.07,3.52136 0.7,1.19 1.82,3.13 c 0.03,0.06 0.07,0.11 0.12,0.15 a 0.645542,0.637776 -180 0 0 0.539386,0.182829 L 32.54,86.39 c 0.49,0 0.97,0.06 1.46,0.15 0.72,0.14 1.42,0.37 2.13,0.7 0.28,0.18 0.67,0.1 0.85,-0.18 l 1.83,-3.11 0.48,-0.84 C 39.27,83.09 39.24,83.08 39.22,83.06 Z M 27.61,101.73 A 8.52546,8.4229 0 0 1 24.37,97.62 0.649845,0.642028 -180 0 0 23.744542,97.207571 L 15.44,97.21 A 0.648411,0.640611 -180 0 0 14.815976,97.621011 8.42217,8.32086 0 0 1 11.6,101.71 0.668494,0.660453 -180 0 0 11.391992,102.58021 L 13.22,105.69 a 0.674233,0.666122 -180 0 0 0.553731,0.32172 L 25.46,106.01 a 0.662756,0.654784 -180 0 0 0.553731,-0.32172 L 27.82,102.6 a 0.649845,0.642028 -180 0 0 -0.206573,-0.86879 z"
   class="st3"
   id="path33"
   inkscape:connector-curvature="0"
   style="fill:url(#grad6-12);stroke:none;stroke-width:15.30000019;stroke-linecap:butt" />
				</g>
			</g>
		</g>
	</g>
</svg>