<?xml version="1.0" encoding="UTF-8" standalone="no"?>
<!DOCTYPE svg PUBLIC "-//W3C//DTD SVG 1.1//EN" "http://www.w3.org/Graphics/SVG/1.1/DTD/svg11.dtd">
<!-- Generated by Microsoft Visio, SVG Export Azure Resource Mover.svg Page-1 -->
<svg xmlns="http://www.w3.org/2000/svg" xmlns:xlink="http://www.w3.org/1999/xlink" xmlns:ev="http://www.w3.org/2001/xml-events"
		width="1.57285in" height="2.24388in" viewBox="0 0 113.245 161.559" xml:space="preserve" color-interpolation-filters="sRGB"
		class="st5">
	<style type="text/css">
	<![CDATA[
		.st1 {fill:#32bedd;stroke:none;stroke-linecap:butt;stroke-width:34}
		.st2 {fill:#9cebff;stroke:none;stroke-linecap:butt;stroke-width:34}
		.st3 {fill:#50e6ff;stroke:none;stroke-linecap:butt;stroke-width:34}
		.st4 {fill:#773adc;stroke:none;stroke-linecap:butt;stroke-width:34}
		.st5 {fill:none;fill-rule:evenodd;font-size:12px;overflow:visible;stroke-linecap:square;stroke-miterlimit:3}
	]]>
	</style>

	<g>
		<title>Page-1</title>
		<g id="group4260-1" transform="translate(33.8908,-70.8661)">
			<title>Azure Resource Mover</title>
			<g id="group4261-2">
				<title>Sheet.4261</title>
				<g id="shape4262-3" transform="translate(24.3363,-6.34464)">
					<title>Sheet.4262</title>
					<path d="M21.02 123.83 L21.02 148.94 L0 161.56 L0 136.41 L21.02 123.83 Z" class="st1"/>
				</g>
				<g id="shape4263-5" transform="translate(3.31831,-31.4589)">
					<title>Sheet.4263</title>
					<path d="M42.04 148.95 L21.02 161.56 L0 148.94 L21.02 136.33 L42.04 148.95 Z" class="st2"/>
				</g>
				<g id="shape4264-7" transform="translate(3.31831,-6.34464)">
					<title>Sheet.4264</title>
					<path d="M21.02 136.44 L21.02 161.56 L0 148.94 L0 123.83 L21.02 136.44 Z" class="st3"/>
				</g>
				<g id="shape4265-9" transform="translate(3.31831,-6.34464)">
					<title>Sheet.4265</title>
					<path d="M0 148.94 L21.02 136.41 L21.02 161.56 L0 148.94 Z" class="st2"/>
				</g>
				<g id="shape4266-11" transform="translate(24.3363,-6.34464)">
					<title>Sheet.4266</title>
					<path d="M21.02 148.94 L0 136.41 L0 161.56 L21.02 148.94 Z" class="st3"/>
				</g>
				<g id="shape4267-13">
					<title>Sheet.4267</title>
					<path d="M35.21 151.13 L25.03 161.45 a0.512858 0.529517 0 0 1 -0.873079 -0.38453 L24.21 155.33 L24.21 154.98
								 C12.08 154.86 0 148.05 0.11 136 C1.82 138.7 10.42 145.93 24.29 146.08 L24.29 145.98 L24.34 140.25
								 a0.512858 0.529517 0 0 1 0.879185 -0.368771 L35.21 150.39 a0.509805 0.526365 0 0 1 2.84217E-14 0.743846
								 Z" class="st4"/>
				</g>
			</g>
		</g>
	</g>
</svg>
