<?xml version="1.0" encoding="UTF-8" standalone="no"?>
<!DOCTYPE svg PUBLIC "-//W3C//DTD SVG 1.1//EN" "http://www.w3.org/Graphics/SVG/1.1/DTD/svg11.dtd">
<!-- Generated by Microsoft Visio, SVG Export Azure Active Directory Verifyable Credentials.svg Page-1 -->
<svg xmlns="http://www.w3.org/2000/svg" xmlns:xlink="http://www.w3.org/1999/xlink" xmlns:ev="http://www.w3.org/2001/xml-events"
		width="1.57916in" height="2.23715in" viewBox="0 0 113.699 161.074" xml:space="preserve" color-interpolation-filters="sRGB"
		class="st8">
	<style type="text/css">
	<![CDATA[
		.st1 {fill:#59285f;stroke:none;stroke-linecap:butt;stroke-width:34}
		.st2 {fill:#a33a85;stroke:none;stroke-linecap:butt;stroke-width:34}
		.st3 {fill:url(#grad0-10);stroke:none;stroke-linecap:butt;stroke-width:34}
		.st4 {fill:#773adc;stroke:none;stroke-linecap:butt;stroke-width:34}
		.st5 {fill:url(#grad0-18);stroke:none;stroke-linecap:butt;stroke-width:34}
		.st6 {fill:#f2f2f2;stroke:none;stroke-linecap:butt;stroke-width:34}
		.st7 {fill:url(#grad0-24);stroke:none;stroke-linecap:butt;stroke-width:34}
		.st8 {fill:none;fill-rule:evenodd;font-size:12px;overflow:visible;stroke-linecap:square;stroke-miterlimit:3}
	]]>
	</style>

	<defs id="Patterns_And_Gradients">
		<linearGradient id="grad0-10" x1="0" y1="0" x2="1" y2="0" gradientTransform="rotate(82.99389483292 0.5 0.5)">
			<stop offset="0.5" stop-color="#b796f9" stop-opacity="1"/>
			<stop offset="0.9" stop-color="#a67af4" stop-opacity="1"/>
		</linearGradient>
		<linearGradient id="grad0-18" x1="0" y1="0" x2="1" y2="0" gradientTransform="rotate(86.984781726576 0.5 0.5)">
			<stop offset="0" stop-color="#a67af4" stop-opacity="1"/>
			<stop offset="0.24" stop-color="#9065db" stop-opacity="1"/>
			<stop offset="0.75" stop-color="#653eab" stop-opacity="1"/>
			<stop offset="1" stop-color="#552f99" stop-opacity="1"/>
		</linearGradient>
		<linearGradient id="grad0-24" x1="0" y1="0" x2="1" y2="0" gradientTransform="rotate(85.003129347312 0.5 0.5)">
			<stop offset="0" stop-color="#a67af4" stop-opacity="1"/>
			<stop offset="0.24" stop-color="#9065db" stop-opacity="1"/>
			<stop offset="0.75" stop-color="#653eab" stop-opacity="1"/>
			<stop offset="1" stop-color="#552f99" stop-opacity="1"/>
		</linearGradient>
	</defs>
	<g>
		<title>Page-1</title>
		<g id="group4851-1" transform="translate(34,-70.8661)">
			<title>Azure Active Directory Verifyable Credentials</title>
			<g id="group4852-2">
				<title>Sheet.4852</title>
				<g id="shape4853-3" transform="translate(173.149,104.866) rotate(90)">
					<title>Sheet.4853</title>
					<path d="M0 159.45 A1.59417 1.62755 -180 0 0 1.59 161.07 L44.68 161.07 A1.59417 1.62755 -180 0 0 46.28 159.45
								 L46.28 129.08 A1.59417 1.62755 -180 0 0 44.68 127.45 L1.59 127.45 A1.59417 1.62755 -180 0 0 0 129.08
								 L0 159.45 Z" class="st1"/>
				</g>
				<g id="shape4854-5" transform="translate(166.94,109.615) rotate(90)">
					<title>Sheet.4854</title>
					<path d="M0 159.45 A1.59417 1.62755 -180 0 0 1.59 161.07 L44.68 161.07 A1.59417 1.62755 -180 0 0 46.28 159.45
								 L46.28 129.08 A1.59417 1.62755 -180 0 0 44.68 127.45 L1.59 127.45 A1.59417 1.62755 -180 0 0 0 129.08
								 L0 159.45 Z" class="st2"/>
				</g>
				<g id="shape4855-7">
					<title>Sheet.4855</title>
					<path d="M-0 159.45 A1.59417 1.62755 -180 0 0 1.59 161.07 L31.34 161.07 A1.59417 1.62755 -180 0 0 32.93 159.45
								 L32.93 115.45 A1.59417 1.62755 -180 0 0 31.34 113.83 L1.59 113.83 A1.59417 1.62755 -180 0 0 0 115.45
								 L0 159.45 Z" class="st3"/>
				</g>
				<g id="shape4856-11" transform="translate(25.9406,310.299) rotate(180)">
					<title>Sheet.4856</title>
					<path d="M0 160.22 a0.833018 0.850463 -180 0 0 0.832999 0.850444 L18.1 161.07 a0.833018 0.850463 -180 0 0 0.832999
								 -0.850444 L18.94 158.48 a0.833018 0.850463 -180 0 0 -0.832999 -0.850444 L0.83 157.63 a0.833018 0.850463
								 -180 0 0 -0.832999 0.850444 L0 160.22 Z" class="st4"/>
				</g>
				<g id="shape4857-13" transform="translate(25.9406,303.616) rotate(180)">
					<title>Sheet.4857</title>
					<path d="M0 160.22 a0.833018 0.850463 -180 0 0 0.832999 0.850444 L18.1 161.07 a0.833018 0.850463 -180 0 0 0.832999
								 -0.850444 L18.94 158.48 a0.833018 0.850463 -180 0 0 -0.832999 -0.850444 L0.83 157.63 a0.833018 0.850463
								 -180 0 0 -0.832999 0.850444 L0 160.22 Z" class="st4"/>
				</g>
				<g id="shape4858-15" transform="translate(8.20912,-22.4317)">
					<title>Sheet.4858</title>
					<path d="M15.05 161.06 A1.41773 1.44742 -180 0 0 16.52 159.62 a0.767665 0.783742 -180 0 0 1.42109E-14 -0.176759
								 A8.37572 8.55113 -180 0 0 8.3 150.9 C3.29 150.9 0.54 154.15 0 159.41 A1.48306 1.51412 -180 0 0 1.32
								 161.07 L15.04 161.07 L15.05 161.06 Z" class="st5"/>
				</g>
				<g id="shape4859-19" transform="translate(14.0989,-25.6234)">
					<title>Sheet.4859</title>
					<path d="M2.47 155.21 A4.60599 4.70245 0 0 1 0 154.45 L2.47 161.07 L4.94 154.5 A4.70073 4.79917 0 0 1 2.47 155.21
								 Z" class="st6"/>
				</g>
				<g id="shape4860-21" transform="translate(11.9004,-31.4864)">
					<title>Sheet.4860</title>
					<ellipse cx="4.63213" cy="156.345" rx="4.63213" ry="4.72913" class="st7"/>
				</g>
			</g>
		</g>
	</g>
</svg>
