<?xml version="1.0" encoding="UTF-8" standalone="no"?>
<!DOCTYPE svg PUBLIC "-//W3C//DTD SVG 1.1//EN" "http://www.w3.org/Graphics/SVG/1.1/DTD/svg11.dtd">
<!-- Generated by Microsoft Visio, SVG Export Azure Synapse Analytics Private Link Hub.svg Page-1 -->
<svg xmlns="http://www.w3.org/2000/svg" xmlns:xlink="http://www.w3.org/1999/xlink" xmlns:ev="http://www.w3.org/2001/xml-events"
		width="1.61374in" height="2.24388in" viewBox="0 0 116.189 161.559" xml:space="preserve" color-interpolation-filters="sRGB"
		class="st5">
	<style type="text/css">
	<![CDATA[
		.st1 {fill:url(#grad0-6);stroke:none;stroke-linecap:butt;stroke-width:34}
		.st2 {fill:url(#grad0-10);stroke:none;stroke-linecap:butt;stroke-width:34}
		.st3 {fill:#0078d4;stroke:none;stroke-linecap:butt;stroke-width:34}
		.st4 {fill:url(#grad0-16);stroke:none;stroke-linecap:butt;stroke-width:34}
		.st5 {fill:none;fill-rule:evenodd;font-size:12px;overflow:visible;stroke-linecap:square;stroke-miterlimit:3}
	]]>
	</style>

	<defs id="Patterns_And_Gradients">
		<linearGradient id="grad0-6" x1="0" y1="0" x2="1" y2="0" gradientTransform="rotate(90 0.5 0.5)">
			<stop offset="0.23" stop-color="#5ea0ef" stop-opacity="1"/>
			<stop offset="0.32" stop-color="#5b9fee" stop-opacity="1"/>
			<stop offset="0.48" stop-color="#509aeb" stop-opacity="1"/>
			<stop offset="0.57" stop-color="#3f92e6" stop-opacity="1"/>
			<stop offset="0.75" stop-color="#2688df" stop-opacity="1"/>
			<stop offset="0.93" stop-color="#127fd9" stop-opacity="1"/>
		</linearGradient>
		<linearGradient id="grad0-10" x1="0" y1="0" x2="1" y2="0" gradientTransform="rotate(90 0.5 0.5)">
			<stop offset="0.2" stop-color="#50e6ff" stop-opacity="1"/>
			<stop offset="0.65" stop-color="#32bedd" stop-opacity="1"/>
			<stop offset="1" stop-color="#198ab3" stop-opacity="1"/>
		</linearGradient>
		<linearGradient id="grad0-16" x1="0" y1="0" x2="1" y2="0" gradientTransform="rotate(-90 0.5 0.5)">
			<stop offset="0.2" stop-color="#005ba1" stop-opacity="1"/>
			<stop offset="1" stop-color="#0078d4" stop-opacity="1"/>
		</linearGradient>
	</defs>
	<g>
		<title>Page-1</title>
		<g id="group4134-1" transform="translate(34,-70.8661)">
			<title>Azure Synapse Analytics Private Link Hub</title>
			<g id="group4135-2">
				<title>Sheet.4135</title>
				<g id="shape4136-3" transform="translate(8.75508,-23.4803)">
					<title>Sheet.4136</title>
					<path d="M14.53 144.89 L8.03 144.89 A8.11539 8.32756 -180 0 0 6.78 161.44 A8.66788 8.89449 0 0 1 6.86 158.35
								 A5.12583 5.25984 0 0 1 8.03 147.95 L14.53 147.95 A5.14118 5.27559 0 0 1 14.53 158.5 L12.74 158.5
								 A3.91344 4.01575 -180 0 0 12.36 160.17 A3.78759 3.88661 -180 0 0 12.62 161.56 L14.53 161.56 A8.11846
								 8.33071 -180 0 0 14.53 144.9 L14.53 144.89 Z" class="st1"/>
				</g>
				<g id="shape4137-7" transform="translate(16.9442,-16.5543)">
					<title>Sheet.4137</title>
					<path d="M15.71 145.02 A9.337 9.5811 0 0 1 15.81 146.3 A8.3548 8.57323 0 0 1 15.63 148.11 A5.1289 5.26299 0 0
								 1 14.46 158.51 L7.96 158.51 A5.14118 5.27559 0 0 1 7.96 147.96 L9.75 147.96 A3.66789 3.76378 -180
								 0 0 9.87 144.9 L7.96 144.9 A8.11846 8.33071 -180 0 0 7.96 161.56 L14.46 161.56 A8.11539 8.32756
								 -180 0 0 15.71 145.01 L15.71 145.02 Z" class="st2"/>
				</g>
				<g id="shape4138-11">
					<title>Sheet.4138</title>
					<path d="M24.09 104.87 L0 119.01 L0 147.26 L24.09 161.56 L48.19 147.42 L48.19 119.07 L24.09 104.87 ZM43.74 144.46
								 L24.09 156.11 L4.45 144.58 L4.45 121.81 L24.09 110.16 L43.74 121.84 L43.74 144.46 Z" class="st3"/>
				</g>
				<g id="shape4139-13" transform="translate(0,-39.6693)">
					<title>Sheet.4139</title>
					<path d="M24.09 144.61 L0 158.76 L4.45 161.56 L24.09 149.91 L43.74 161.56 L48.19 158.76 L24.09 144.61 Z"
							class="st4"/>
				</g>
			</g>
		</g>
	</g>
</svg>
