<?xml version="1.0" encoding="UTF-8" standalone="no"?>
<!-- Generated by Microsoft Visio, SVG Export Azure AD Group.svg Page-1 -->

<svg
   xmlns:dc="http://purl.org/dc/elements/1.1/"
   xmlns:cc="http://creativecommons.org/ns#"
   xmlns:rdf="http://www.w3.org/1999/02/22-rdf-syntax-ns#"
   xmlns:svg="http://www.w3.org/2000/svg"
   xmlns="http://www.w3.org/2000/svg"
   xmlns:sodipodi="http://sodipodi.sourceforge.net/DTD/sodipodi-0.dtd"
   xmlns:inkscape="http://www.inkscape.org/namespaces/inkscape"
   width="0.7877273in"
   height="0.62991667in"
   viewBox="0 0 56.716331 45.354097"
   xml:space="preserve"
   class="st5"
   version="1.1"
   id="svg55"
   sodipodi:docname="Azure AD Group.svg"
   style="font-size:12px;overflow:visible;color-interpolation-filters:sRGB;fill:none;fill-rule:evenodd;stroke-linecap:square;stroke-miterlimit:3"
   inkscape:version="0.92.5 (2060ec1f9f, 2020-04-08)"><metadata
   id="metadata59"><rdf:RDF><cc:Work
       rdf:about=""><dc:format>image/svg+xml</dc:format><dc:type
         rdf:resource="http://purl.org/dc/dcmitype/StillImage" /></cc:Work></rdf:RDF></metadata><sodipodi:namedview
   pagecolor="#ffffff"
   bordercolor="#666666"
   borderopacity="1"
   objecttolerance="10"
   gridtolerance="10"
   guidetolerance="10"
   inkscape:pageopacity="0"
   inkscape:pageshadow="2"
   inkscape:window-width="640"
   inkscape:window-height="480"
   id="namedview57"
   showgrid="false"
   inkscape:zoom="1.5612629"
   inkscape:cx="37.809722"
   inkscape:cy="30.225663"
   inkscape:window-x="0"
   inkscape:window-y="0"
   inkscape:window-maximized="0"
   inkscape:current-layer="svg55" />
	<style
   type="text/css"
   id="style2">
	<![CDATA[
		.st1 {fill:#0078d4;stroke:none;stroke-linecap:butt;stroke-width:34}
		.st2 {fill:#ffffff;fill-opacity:0.8;stroke:none;stroke-linecap:butt;stroke-width:34}
		.st3 {fill:url(#grad0-12);stroke:none;stroke-linecap:butt;stroke-width:34}
		.st4 {fill:url(#grad0-18);stroke:none;stroke-linecap:butt;stroke-width:34}
		.st5 {fill:none;fill-rule:evenodd;font-size:12px;overflow:visible;stroke-linecap:square;stroke-miterlimit:3}
	]]>
	</style>

	<defs
   id="Patterns_And_Gradients">
		<linearGradient
   id="grad0-12"
   x1="-0.013981939"
   y1="114.73977"
   x2="32.429408"
   y2="114.73977"
   gradientTransform="scale(1.2982549,0.77026476)"
   gradientUnits="userSpaceOnUse">
			<stop
   offset="0.22"
   stop-color="#32d4f5"
   stop-opacity="1"
   id="stop4" />
			<stop
   offset="1"
   stop-color="#198ab3"
   stop-opacity="1"
   id="stop6" />
		</linearGradient>
		<linearGradient
   id="grad0-18"
   x1="0"
   y1="91.208235"
   x2="23.35093"
   y2="91.208235"
   gradientTransform="scale(1.0104865,0.98962229)"
   gradientUnits="userSpaceOnUse">
			<stop
   offset="0.22"
   stop-color="#32d4f5"
   stop-opacity="1"
   id="stop9" />
			<stop
   offset="1"
   stop-color="#198ab3"
   stop-opacity="1"
   id="stop11" />
		</linearGradient>
	</defs>
	<g
   id="g53"
   transform="translate(-33.999821,-34.000202)">
		<title
   id="title15">Page-1</title>
		<g
   id="group8734-1"
   transform="translate(34.0178,-34.0157)">
			<title
   id="title17">Azure AD Group</title>
			<g
   id="group8735-2">
				<title
   id="title19">Icon-identity-223</title>
				<g
   id="shape8736-3"
   transform="translate(28.5352,-7.51797)">
					<title
   id="title21">Sheet.8736</title>
					<path
   d="m 25.64,113.37 a 2.48543,2.4341 -180 0 0 2.52,-2.43 0.880911,0.862718 -180 0 0 -0.06292,-0.40055 C 27.12,102.83 22.62,96.55 14.06,96.55 5.51,96.55 0.88,101.97 0,110.54 a 2.54835,2.49572 -180 0 0 2.27,2.71 h 23.37 z"
   class="st1"
   id="path23"
   inkscape:connector-curvature="0"
   style="fill:#0078d4;stroke:none;stroke-width:34;stroke-linecap:butt" />
				</g>
				<g
   id="shape8737-5"
   transform="translate(38.3511,-12.7867)">
					<title
   id="title26">Sheet.8737</title>
					<path
   d="M 4.28,103.76 A 7.67651,7.51797 0 0 1 0,102.52 l 4.25,10.85 4.18,-10.75 a 7.99112,7.82609 0 0 1 -4.15,1.14 z"
   class="st2"
   id="path28"
   inkscape:connector-curvature="0"
   style="fill:#ffffff;fill-opacity:0.8;stroke:none;stroke-width:34;stroke-linecap:butt" />
				</g>
				<g
   id="shape8738-7"
   transform="translate(34.7331,-22.3999)">
					<title
   id="title31">Sheet.8738</title>
					<ellipse
   cx="7.89674"
   cy="105.636"
   rx="7.89674"
   ry="7.7336502"
   class="st1"
   id="ellipse33"
   style="fill:#0078d4;stroke:none;stroke-width:34;stroke-linecap:butt" />
				</g>
				<g
   id="shape8739-9">
					<title
   id="title36">Sheet.8739</title>
					<path
   d="m 38.35,113.37 a 3.74387,3.66655 -180 0 0 3.74,-3.67 2.07643,2.03355 -180 0 0 0,-0.43 C 40.62,97.75 33.92,88.38 21.14,88.38 8.37,88.38 1.38,96.33 0,109.18 a 3.77533,3.69736 -180 0 0 3.37,4.04 h 34.92 z"
   class="st3"
   id="path38"
   inkscape:connector-curvature="0"
   style="fill:url(#grad0-12);stroke:none;stroke-width:34;stroke-linecap:butt" />
				</g>
				<g
   id="shape8740-13"
   transform="translate(15.0069,-7.91852)">
					<title
   id="title41">Sheet.8740</title>
					<path
   d="M 6.29,99.04 A 11.7035,11.4618 0 0 1 0,97.19 l 6.29,16.18 6.29,-16.05 a 11.9867,11.7391 0 0 1 -6.29,1.72 z"
   class="st2"
   id="path43"
   inkscape:connector-curvature="0"
   style="fill:#ffffff;fill-opacity:0.8;stroke:none;stroke-width:34;stroke-linecap:butt" />
				</g>
				<g
   id="shape8741-15"
   transform="translate(9.40687,-22.2458)">
					<title
   id="title46">Sheet.8741</title>
					<ellipse
   cx="11.7979"
   cy="101.816"
   rx="11.7979"
   ry="11.5543"
   class="st4"
   id="ellipse48"
   style="fill:url(#grad0-18);stroke:none;stroke-width:34;stroke-linecap:butt" />
				</g>
			</g>
		</g>
	</g>
</svg>