<?xml version="1.0" encoding="UTF-8" standalone="no"?>
<!DOCTYPE svg PUBLIC "-//W3C//DTD SVG 1.1//EN" "http://www.w3.org/Graphics/SVG/1.1/DTD/svg11.dtd">
<!-- Generated by Microsoft Visio, SVG Export Azure Synapse Analytics Dedicated SQL Pool.svg Page-1 -->
<svg xmlns="http://www.w3.org/2000/svg" xmlns:xlink="http://www.w3.org/1999/xlink" xmlns:ev="http://www.w3.org/2001/xml-events"
		width="0.897638in" height="1.33858in" viewBox="0 0 64.6299 96.378" xml:space="preserve" color-interpolation-filters="sRGB"
		class="st6">
	<style type="text/css">
	<![CDATA[
		.st1 {fill:#0078d4;stroke:none;stroke-linecap:butt;stroke-width:0.749999}
		.st2 {fill:url(#grad0-12);stroke:none;stroke-linecap:butt;stroke-width:0.749999}
		.st3 {fill:#50e6ff;stroke:none;stroke-linecap:butt;stroke-width:0.749999}
		.st4 {fill:url(#grad0-20);stroke:none;stroke-linecap:butt;stroke-width:0.749999}
		.st5 {fill:#000000;stroke:none;stroke-linecap:butt;stroke-width:0.749999}
		.st6 {fill:none;fill-rule:evenodd;font-size:12px;overflow:visible;stroke-linecap:square;stroke-miterlimit:3}
	]]>
	</style>

	<defs id="Patterns_And_Gradients">
		<linearGradient id="grad0-12" x1="0" y1="0" x2="1" y2="0" gradientTransform="rotate(-90 0.5 0.5)">
			<stop offset="0.2" stop-color="#005ba1" stop-opacity="1"/>
			<stop offset="1" stop-color="#0078d4" stop-opacity="1"/>
		</linearGradient>
		<linearGradient id="grad0-20" x1="0" y1="0" x2="1" y2="0" gradientTransform="rotate(-90 0.5 0.5)">
			<stop offset="0" stop-color="#198ab3" stop-opacity="1"/>
			<stop offset="0.17" stop-color="#32bedd" stop-opacity="1"/>
			<stop offset="0.5" stop-color="#50e6ff" stop-opacity="1"/>
			<stop offset="0.5" stop-color="#4fe4fd" stop-opacity="1"/>
			<stop offset="0.5" stop-color="#4bddf8" stop-opacity="1"/>
			<stop offset="0.5" stop-color="#44d2ee" stop-opacity="1"/>
			<stop offset="0.5" stop-color="#3ac1e0" stop-opacity="1"/>
			<stop offset="0.5" stop-color="#2dabce" stop-opacity="1"/>
			<stop offset="0.5" stop-color="#1d90b8" stop-opacity="1"/>
			<stop offset="0.5" stop-color="#198ab3" stop-opacity="1"/>
			<stop offset="0.66" stop-color="#32bedd" stop-opacity="1"/>
			<stop offset="0.975" stop-color="#50e6ff" stop-opacity="1"/>
		</linearGradient>
	</defs>
	<g>
		<title>Page-1</title>
		<g id="group7318-1" transform="translate(5.38583,-34.0157)">
			<title>Azure Synapse Analytics Dedicated SQL Pool</title>
			<g id="group7319-2">
				<title>Page-1</title>
				<g id="group7320-3">
					<title>Sheet.7320</title>
					<g id="group7321-4" transform="translate(-2.67786E-13,-11.5278)">
						<title>Sheet.7321</title>
						<g id="group7322-5">
							<title>Sheet.7322</title>
							<g id="shape7323-6">
								<title>Sheet.7323</title>
								<path d="M19.94 51.22 L0 62.48 L0 84.98 L19.94 96.38 L39.89 85.11 L39.89 62.53 L19.94 51.22 ZM36.19
											 82.75 L19.94 92.04 L3.68 82.86 L3.68 64.72 L19.94 55.43 L36.19 64.74 L36.19 82.75 Z"
										class="st1"/>
							</g>
						</g>
						<g id="group7324-8" transform="translate(0,-31.6642)">
							<title>Sheet.7324</title>
							<g id="shape7325-9">
								<title>Sheet.7325</title>
								<path d="M19.94 82.88 L0 94.14 L3.68 96.38 L19.94 87.09 L36.19 96.38 L39.89 94.14 L19.94 82.88 Z"
										class="st2"/>
							</g>
						</g>
						<g id="group7326-13" transform="translate(6.25658,-5.64284)">
							<title>Sheet.7326</title>
							<g id="shape7327-14">
								<title>Sheet.7327</title>
								<path d="M23.19 83.14 A1.85437 1.83161 -180 0 0 22.37 82.42 A14.8222 14.6402 -180 0 0 10.99 74.02
											 L27.44 64.63 L23.61 62.47 L4.88 73.17 A1.90517 1.88178 -180 0 0 5.84 76.68 A1.73752
											 1.71619 -180 0 0 6.06 76.62 L6.38 77.93 A10.9713 10.8366 0 0 1 18.67 83.55 L0 94.21
											 L3.81 96.38 L22.49 85.71 A1.85183 1.8291 -180 0 0 23.1 85.12 L23.29 85.07 C23.27 85.01
											 23.25 84.93 23.23 84.86 A1.86707 1.84415 -180 0 0 23.19 83.14 Z" class="st3"/>
							</g>
						</g>
						<g id="group7328-16" transform="translate(8.76765,-14.6265)">
							<title>Sheet.7328</title>
							<g id="shape7329-17">
								<title>Sheet.7329</title>
								<path d="M19.02 88.45 A4.69941 4.64173 -180 1 0 23.73 93.1 A4.69941 4.64173 -180 0 0 19.02 88.45
											 ZM3.32 79.05 A4.69941 4.64173 -180 1 0 8.02 83.7 A4.69941 4.64173 -180 0 0 3.32 79.05
											 Z" class="st4"/>
							</g>
						</g>
					</g>
					<g id="group7330-21" transform="translate(30.0954,1.42109E-14)">
						<title>Sheet.7330</title>
						<g id="group7331-22">
							<title>Sheet.7331</title>
							<g id="shape7332-23">
								<title>Sheet.7332</title>
								<path d="M16.34 81.71 C16.45 81.7 16.57 81.7 16.68 81.7 C16.78 81.7 16.9 81.7 17.02 81.7 C17.31 81.7
											 17.67 81.71 18.12 81.74 C18.56 81.77 19.03 81.82 19.53 81.9 C20.03 81.98 20.53 82.09
											 21.04 82.23 C21.54 82.38 21.99 82.56 22.4 82.77 C22.79 82.98 23.12 83.25 23.38 83.56
											 C23.63 83.88 23.76 84.24 23.76 84.64 L23.76 93.45 C23.76 93.85 23.65 94.2 23.39 94.5
											 C23.14 94.8 22.82 95.06 22.42 95.28 C22.01 95.5 21.56 95.68 21.07 95.82 C20.57 95.96
											 20.08 96.07 19.58 96.16 C19.07 96.25 18.61 96.3 18.17 96.34 C17.73 96.36 17.37 96.37
											 17.08 96.38 C16.8 96.38 16.43 96.36 15.99 96.34 C15.55 96.3 15.08 96.24 14.59 96.16
											 C14.1 96.07 13.59 95.97 13.1 95.83 C12.6 95.69 12.15 95.51 11.76 95.29 C11.35 95.07
											 11.02 94.81 10.78 94.51 C10.53 94.21 10.4 93.86 10.39 93.45 L10.39 84.64 C10.39 84.31
											 10.47 84.02 10.62 83.76 C10.77 83.5 10.96 83.28 11.2 83.08 C11.46 82.89 11.74 82.72
											 12.05 82.58 C12.36 82.43 12.68 82.32 13.01 82.22 C13.34 82.13 13.67 82.05 13.98 81.99
											 C14.3 81.93 14.59 81.89 14.85 81.85 L14.85 78.78 L2.97 78.78 L2.97 87.58 L1.48 87.58
											 L1.48 78.78 L0 78.78 L0 77.3 L8.91 72.91 L17.82 77.3 L17.82 78.78 L16.34 78.78 L16.34
											 81.71 ZM3.28 77.3 L14.55 77.3 L8.91 74.52 L3.28 77.3 ZM22.28 93.45 L22.28 86.56 C21.91
											 86.76 21.5 86.91 21.07 87.05 C20.64 87.18 20.2 87.28 19.75 87.37 C19.3 87.45 18.84 87.5
											 18.4 87.52 C17.94 87.56 17.5 87.57 17.08 87.58 C16.67 87.58 16.23 87.56 15.77 87.52
											 C15.31 87.5 14.86 87.44 14.42 87.37 C13.97 87.29 13.52 87.19 13.09 87.06 C12.66 86.93
											 12.25 86.77 11.89 86.56 L11.89 93.45 C11.89 93.53 11.92 93.61 11.99 93.68 C12.08 93.76
											 12.15 93.82 12.22 93.86 C12.51 94.06 12.86 94.24 13.26 94.38 C13.67 94.51 14.11 94.62
											 14.57 94.69 C15.02 94.77 15.46 94.83 15.9 94.86 C16.33 94.9 16.72 94.91 17.08 94.91
											 C17.42 94.91 17.82 94.89 18.27 94.86 C18.71 94.83 19.15 94.78 19.6 94.7 C20.05 94.63
											 20.48 94.51 20.88 94.38 C21.3 94.23 21.65 94.06 21.94 93.86 C22 93.82 22.08 93.76 22.15
											 93.68 C22.23 93.61 22.27 93.53 22.28 93.45 ZM17.08 86.11 C17.42 86.11 17.82 86.09 18.27
											 86.06 C18.71 86.03 19.15 85.98 19.6 85.9 C20.05 85.83 20.48 85.71 20.88 85.56 C21.3
											 85.43 21.65 85.25 21.94 85.06 C22 85.02 22.08 84.95 22.15 84.88 C22.23 84.81 22.27 84.72
											 22.28 84.64 C22.28 84.55 22.24 84.47 22.14 84.38 C22.04 84.3 21.97 84.24 21.9 84.19
											 C21.6 83.99 21.24 83.84 20.84 83.7 C20.43 83.57 20.01 83.47 19.56 83.38 C19.12 83.3
											 18.68 83.25 18.26 83.22 C17.82 83.19 17.42 83.18 17.08 83.17 C16.73 83.17 16.35 83.19
											 15.91 83.22 C15.47 83.25 15.03 83.31 14.6 83.38 C14.16 83.46 13.73 83.56 13.32 83.69
											 C12.91 83.82 12.56 83.98 12.26 84.19 C12.21 84.24 12.12 84.29 12.04 84.37 C11.94 84.46
											 11.89 84.55 11.89 84.64 C11.89 84.72 11.92 84.81 11.99 84.88 C12.08 84.95 12.15 85.02
											 12.22 85.06 C12.51 85.26 12.86 85.43 13.26 85.56 C13.67 85.71 14.11 85.82 14.57 85.89
											 C15.02 85.97 15.46 86.03 15.9 86.06 C16.33 86.1 16.72 86.11 17.08 86.11 ZM4.46 87.58
											 L4.46 86.11 L5.94 86.11 L5.94 87.58 L4.46 87.58 ZM7.43 87.58 L7.43 86.11 L8.91 86.11
											 L8.91 87.58 L7.43 87.58 ZM4.46 84.64 L4.46 83.17 L5.94 83.17 L5.94 84.64 L4.46 84.64
											 ZM4.46 81.71 L4.46 80.24 L5.94 80.24 L5.94 81.71 L4.46 81.71 ZM7.43 84.64 L7.43 83.17
											 L8.91 83.17 L8.91 84.64 L7.43 84.64 Z" class="st5"/>
							</g>
						</g>
					</g>
				</g>
			</g>
		</g>
	</g>
</svg>
