<?xml version="1.0" encoding="UTF-8" standalone="no"?>
<!DOCTYPE svg PUBLIC "-//W3C//DTD SVG 1.1//EN" "http://www.w3.org/Graphics/SVG/1.1/DTD/svg11.dtd">
<!-- Generated by Microsoft Visio, SVG Export Azure LightHouse Projection.svg Page-1 -->
<svg xmlns="http://www.w3.org/2000/svg" xmlns:xlink="http://www.w3.org/1999/xlink" xmlns:ev="http://www.w3.org/2001/xml-events"
		width="0.944882in" height="1.16535in" viewBox="0 0 68.0315 83.9055" xml:space="preserve" color-interpolation-filters="sRGB"
		class="st3">
	<style type="text/css">
	<![CDATA[
		.st1 {fill:#59b4d9;stroke:none;stroke-linecap:butt;stroke-width:0.097958}
		.st2 {fill:#0077d3;stroke:none;stroke-linecap:butt;stroke-width:0.097958}
		.st3 {fill:none;fill-rule:evenodd;font-size:12px;overflow:visible;stroke-linecap:square;stroke-miterlimit:3}
	]]>
	</style>

	<g>
		<title>Page-1</title>
		<g id="group6249-1" transform="translate(5.66929,-34.0157)">
			<title>Azure LightHouse Projection</title>
			<g id="group6250-2">
				<title>g1535</title>
				<g id="shape6251-3">
					<title>path1557</title>
					<path d="M0 82.62 L0 81.34 L1.4 81.34 C2.49 81.34 20.25 81.34 40.55 81.34 L41.65 81.34 L41.65 82.62 L41.65 83.91
								 L20.83 83.91 L0 83.91 L0 82.62 ZM41.51 58.39 L41.54 54.15 L41.25 53.54 C41.09 53.2 40.78 52.79 40.56
								 52.63 C39.63 51.94 40.13 51.96 27.89 51.96 L16.66 51.96 L17.19 51.43 C17.94 50.67 19 50.02 19.96
								 49.73 C20.84 49.47 20.81 49.51 20.94 48.41 C21.16 46.52 22.96 44.74 25.03 44.37 C26.35 44.13 27.95
								 44.57 28.97 45.45 C29.63 46.01 29.71 45.95 30.26 44.5 C30.79 43.13 31.34 42.31 32.51 41.18 C34.35
								 39.4 36.4 38.55 38.91 38.55 C40.8 38.55 41.79 38.78 43.5 39.64 C44.24 40.01 44.72 40.38 45.6 41.24
								 C46.6 42.21 46.82 42.5 47.36 43.57 C47.71 44.26 48.06 45.16 48.16 45.61 C48.41 46.81 48.39 48.7
								 48.1 49.81 C47.97 50.31 47.86 50.82 47.86 50.93 C47.86 51.2 48.23 51.22 48.92 50.98 C50.85 50.31
								 53.32 50.91 54.89 52.42 C56.15 53.63 56.69 54.92 56.69 56.68 C56.68 58.84 55.6 60.66 53.65 61.77
								 C52.38 62.49 52.33 62.5 46.67 62.57 L41.47 62.63 L41.51 58.39 ZM20.53 62.39 C17.63 61.78 15.39 59.2
								 15.25 56.31 L15.21 55.46 L26.58 55.46 L37.95 55.46 L37.95 59.02 L37.95 62.57 L29.63 62.56 C22.99
								 62.56 21.15 62.52 20.53 62.39 L20.53 62.39 Z" class="st1"/>
				</g>
				<g id="shape6252-5" transform="translate(1.46705,-3.0256)">
					<title>path1537</title>
					<path d="M1.31 83.77 C0.89 83.62 0.46 83.22 0.24 82.8 C0.01 82.36 0 82.07 0 69.7 C0 61.07 0.04 56.95 0.13 56.73
								 C0.32 56.24 0.95 55.66 1.43 55.53 C1.7 55.45 8.41 55.41 19.86 55.41 L37.88 55.41 L38.4 55.66 C38.68
								 55.79 39.06 56.09 39.24 56.32 L39.56 56.73 L39.6 69.27 C39.62 76.17 39.6 81.99 39.56 82.2 C39.46
								 82.73 38.64 83.59 38.09 83.74 C37.58 83.87 3.46 83.91 3.46 83.77 C3.46 83.72 3.66 83.52 3.91 83.33
								 C4.15 83.14 4.79 82.6 5.33 82.14 L6.31 81.29 L21.52 81.29 C35.12 81.29 36.75 81.27 36.88 81.11 C37.01
								 80.96 37.02 78.75 36.96 69.6 C36.92 63.38 36.84 58.24 36.79 58.2 C36.63 58.05 2.84 57.97 2.66 58.11
								 C2.54 58.21 2.51 59.44 2.51 64.28 C2.51 69.61 2.53 70.34 2.69 70.5 C2.86 70.66 3.51 70.68 8.03 70.68
								 C11.07 70.68 13.26 70.63 13.37 70.57 C13.52 70.48 13.54 70.14 13.51 68.47 C13.48 67.09 13.51 66.49
								 13.6 66.49 C13.75 66.49 19.22 71.37 19.22 71.51 C19.22 71.56 17.97 72.78 16.44 74.23 L13.67 76.86
								 L13.61 74.73 C13.57 73.56 13.5 72.54 13.45 72.46 C13.31 72.25 2.86 72.25 2.65 72.45 C2.43 72.67
								 2.45 80.98 2.66 81.16 C2.75 81.23 3.46 81.3 4.32 81.32 L5.83 81.35 L4.34 82.6 L2.85 83.85 L2.17
								 83.85 C1.8 83.84 1.41 83.81 1.31 83.77 L1.31 83.77 Z" class="st2"/>
				</g>
			</g>
		</g>
	</g>
</svg>
