<?xml version="1.0" encoding="UTF-8" standalone="no"?>
<!-- Generated by Microsoft Visio, SVG Export Azure Firewall Web Category.svg Page-1 -->

<svg
   xmlns:dc="http://purl.org/dc/elements/1.1/"
   xmlns:cc="http://creativecommons.org/ns#"
   xmlns:rdf="http://www.w3.org/1999/02/22-rdf-syntax-ns#"
   xmlns:svg="http://www.w3.org/2000/svg"
   xmlns="http://www.w3.org/2000/svg"
   xmlns:sodipodi="http://sodipodi.sourceforge.net/DTD/sodipodi-0.dtd"
   xmlns:inkscape="http://www.inkscape.org/namespaces/inkscape"
   width="55.191509"
   height="56.691055"
   viewBox="0 0 55.19151 56.691055"
   xml:space="preserve"
   class="st6"
   version="1.1"
   id="svg55"
   sodipodi:docname="Azure Firewall Web Category.svg"
   style="font-size:12px;overflow:visible;color-interpolation-filters:sRGB;fill:none;fill-rule:evenodd;stroke-linecap:square;stroke-miterlimit:3"
   inkscape:version="0.92.5 (2060ec1f9f, 2020-04-08)"><metadata
   id="metadata59"><rdf:RDF><cc:Work
       rdf:about=""><dc:format>image/svg+xml</dc:format><dc:type
         rdf:resource="http://purl.org/dc/dcmitype/StillImage" /></cc:Work></rdf:RDF></metadata><sodipodi:namedview
   pagecolor="#ffffff"
   bordercolor="#666666"
   borderopacity="1"
   objecttolerance="10"
   gridtolerance="10"
   guidetolerance="10"
   inkscape:pageopacity="0"
   inkscape:pageshadow="2"
   inkscape:window-width="640"
   inkscape:window-height="480"
   id="namedview57"
   showgrid="false"
   inkscape:zoom="1.8924055"
   inkscape:cx="27.595308"
   inkscape:cy="28.339842"
   inkscape:window-x="0"
   inkscape:window-y="0"
   inkscape:window-maximized="0"
   inkscape:current-layer="svg55" />
	<style
   type="text/css"
   id="style2">
	<![CDATA[
		.st1 {fill:url(#grad0-6);stroke:none;stroke-linecap:butt;stroke-width:34}
		.st2 {fill:#8bc1fd;stroke:none;stroke-linecap:butt;stroke-width:34}
		.st3 {fill:#ffffff;stroke:none;stroke-linecap:butt;stroke-width:34}
		.st4 {fill:#d15900;stroke:none;stroke-linecap:butt;stroke-width:34}
		.st5 {fill:url(#grad0-16);stroke:none;stroke-linecap:butt;stroke-width:34}
		.st6 {fill:none;fill-rule:evenodd;font-size:12px;overflow:visible;stroke-linecap:square;stroke-miterlimit:3}
	]]>
	</style>

	<defs
   id="Patterns_And_Gradients">
		<linearGradient
   id="grad0-6"
   x1="-1.373129"
   y1="75.603526"
   x2="48.117287"
   y2="75.603526"
   gradientTransform="scale(1.003068,0.99694142)"
   gradientUnits="userSpaceOnUse">
			<stop
   offset="0"
   stop-color="#5ea0ef"
   stop-opacity="1"
   id="stop4" />
			<stop
   offset="1"
   stop-color="#0078d4"
   stop-opacity="1"
   id="stop6" />
		</linearGradient>
		<linearGradient
   id="grad0-16"
   x1="0"
   y1="101.14046"
   x2="23.905591"
   y2="101.14046"
   gradientTransform="scale(1.0026943,0.99731294)"
   gradientUnits="userSpaceOnUse">
			<stop
   offset="0.245"
   stop-color="#faa21d"
   stop-opacity="1"
   id="stop9" />
			<stop
   offset="1"
   stop-color="#f78d1e"
   stop-opacity="1"
   id="stop11" />
		</linearGradient>
	</defs>
	<g
   id="g53"
   transform="translate(-33.997191,-34.003285)">
		<title
   id="title15">Page-1</title>
		<g
   id="group8535-1"
   transform="translate(35.3265,-34.0157)">
			<title
   id="title17">Azure Firewall Web Category</title>
			<g
   id="group8536-2">
				<title
   id="title19">Sheet.8536</title>
				<g
   id="shape8537-3"
   transform="translate(0.397356,-7.08661)">
					<title
   id="title21">Sheet.8537</title>
					<path
   d="M 48.17,102.16 H 32.12 a 4.02111,4 -180 0 0 -3.83,3.05 5.40158,5.37323 -180 0 0 -0.1,1.42 h -0.6 a 3.98944,3.9685 -180 0 0 -3.95,3.94 v 14.14 A 24.7599,24.6299 0 0 1 8.22,80.61 l 0.25,-0.18 a 24.763,24.6331 0 0 1 39.7,21.73 z"
   class="st1"
   id="path23"
   inkscape:connector-curvature="0"
   style="fill:url(#grad0-6);stroke:none;stroke-width:34;stroke-linecap:butt" />
				</g>
				<g
   id="shape8538-7"
   transform="translate(0,-6.74016)">
					<title
   id="title26">Sheet.8538</title>
					<path
   d="M 46.51,89.21 46.26,88.74 A 25.0512,24.9197 -180 0 0 27.17,75.01 6.98469,6.94803 -180 0 0 26,74.88 C 25.27,74.82 24.54,74.76 23.78,74.76 A 23.1831,23.0614 -180 0 0 21.21,74.88 6.43377,6.4 -180 0 0 19.85,75.1 25.143,25.011 -180 0 0 1.3,88.74 H 1.25 v 0.03 a 25.0132,24.8819 -180 0 0 11.37,33.32 24.4369,24.3087 -180 0 0 8.01,2.4 0.402111,0.4 -180 0 0 0.189974,0.0315 A 26.6849,26.5449 -180 0 0 24.02,124.71 v -14.49 a 3.92929,3.90866 0 0 1 1.04,-2.64 V 91.14 h 10.26 a 36.095,35.9055 0 0 1 1.05,8.6 c -0.03,0.69 -0.07,1.38 -0.13,2.08 h 2.44 c 0.06,-0.7 0.09,-1.39 0.09,-2.08 a 39.5398,39.3323 -180 0 0 -0.98,-8.6 h 6.94 a 22.3757,22.2583 0 0 1 1.61,10.68 h 2.44 c 0.06,-0.7 0.09,-1.39 0.09,-2.08 A 24.82,24.6898 -180 0 0 46.51,89.21 Z M 2.82,91.13 H 9.4 a 39.5398,39.3323 -180 0 0 -0.98,8.6 30.1551,29.9969 -180 0 0 1.21,8 H 2.6 A 22.363,22.2457 0 0 1 2.82,91.14 Z m 1.17,-2.39 a 22.6923,22.5732 0 0 1 10.96,-9.79 29.3382,29.1843 -180 0 0 -4.91,9.79 z m 6.36,21.39 a 34.3979,34.2173 -180 0 0 6.18,10.96 22.6417,22.5228 0 0 1 -12.86,-10.96 z m 2.6,0 h 9.72 v 12.12 c -0.41,-0.03 -0.82,-0.03 -1.23,-0.06 a 24.7314,24.6016 0 0 1 -8.49,-12.06 z m -0.79,-2.4 a 27.7456,27.6 0 0 1 -1.3,-8 34.5119,34.3307 0 0 1 1.01,-8.6 h 10.8 v 16.6 z m 0.38,-18.99 a 18.5098,18.4126 0 0 1 7.95,-11.31 17.0248,16.9354 0 0 1 2.18,-0.22 V 88.74 Z M 25.08,88.71 V 77.24 c 0.5,0 0.98,0.07 1.49,0.1 2.56,0.94 6.04,5.04 8.1,11.37 z m 12.09,0.03 a 28.6195,28.4693 -180 0 0 -5.06,-9.98 22.8918,22.7717 0 0 1 11.46,9.98 z"
   class="st2"
   id="path28"
   inkscape:connector-curvature="0"
   style="fill:#8bc1fd;stroke:none;stroke-width:34;stroke-linecap:butt" />
				</g>
				<g
   id="shape8539-9"
   transform="translate(25.3622)">
					<title
   id="title31">Sheet.8539</title>
					<path
   d="m 28.5,99.01 v 18.64 a 2.60897,2.59528 0 0 1 -2.6,2.59 h -1.93 v 1.89 a 2.6153,2.60157 0 0 1 -2.63,2.58 H 2.63 A 2.6343,2.62047 0 0 1 0,122.13 v -18.74 a 2.6438,2.62992 0 0 1 1.93,-2.4 1.70343,1.69449 0 0 1 0.7,-0.12 h 1.93 v -1.86 a 2.6343,2.62047 0 0 1 2.6,-2.62 H 25.9 a 2.51398,2.50079 0 0 1 1.84,0.79 2.61214,2.59843 0 0 1 0.76,1.83 z"
   class="st3"
   id="path33"
   inkscape:connector-curvature="0"
   style="fill:#ffffff;stroke:none;stroke-width:34;stroke-linecap:butt" />
				</g>
				<g
   id="shape8540-11"
   transform="translate(29.9216,-4.47244)">
					<title
   id="title36">Sheet.8540</title>
					<path
   d="m 23.94,103.48 v 18.65 a 2.60897,2.59528 0 0 1 -2.6,2.58 H 2.6 A 2.55198,2.53858 0 0 1 0.51,123.64 2.50448,2.49134 0 0 1 0,122.13 v -18.65 a 2.6343,2.62047 0 0 1 2.6,-2.61 h 18.74 a 2.51398,2.50079 0 0 1 1.84,0.78 2.61214,2.59843 0 0 1 0.76,1.83 z"
   class="st4"
   id="path38"
   inkscape:connector-curvature="0"
   style="fill:#d15900;stroke:none;stroke-width:34;stroke-linecap:butt" />
				</g>
				<g
   id="shape8541-13"
   transform="translate(25.3622)">
					<title
   id="title41">Sheet.8541</title>
					<path
   d="m 23.97,103.48 v 18.65 a 2.6153,2.60157 0 0 1 -2.63,2.58 H 2.63 A 2.6343,2.62047 0 0 1 0,122.13 v -18.74 a 2.6438,2.62992 0 0 1 1.93,-2.4 1.70343,1.69449 0 0 1 0.7,-0.12 h 18.71 a 1.84274,1.83307 0 0 1 0.6,0.09 0.459103,0.456693 0 0 1 0.221636,0.063 2.5963,2.58268 0 0 1 1.808364,2.457 z"
   class="st5"
   id="path43"
   inkscape:connector-curvature="0"
   style="fill:url(#grad0-16);stroke:none;stroke-width:34;stroke-linecap:butt" />
				</g>
				<g
   id="shape8542-17"
   transform="translate(28.8736,-5.54016)">
					<title
   id="title46">Sheet.8542</title>
					<path
   d="m 16.32,122.19 a 0.633245,0.629921 0 0 1 0.601583,0.62992 L 16.92,124.08 a 0.633245,0.629921 0 0 1 -0.604749,0.62992 L 4.84,124.71 A 0.633245,0.629921 0 0 1 4.238417,124.08008 L 4.24,122.82 a 0.633245,0.629921 0 0 1 0.604749,-0.62992 z m -16.3,1.91 a 0.614248,0.611024 -180 0 0 0.614248,0.61102 L 1.94,124.71 a 0.614248,0.611024 -180 0 0 0.614248,-0.62992 L 2.55,122.78 A 0.614248,0.611024 -180 0 0 1.916755,122.16898 L 0.61,122.17 a 0.614248,0.611024 -180 0 0 -0.614248,0.61102 z m 4.82,-7.03 a 0.633245,0.629921 -180 0 0 -0.604749,0.62992 L 4.24,118.96 a 0.633245,0.629921 -180 0 0 0.604749,0.62992 L 16.32,119.59 a 0.633245,0.629921 -180 0 0 0.604749,-0.62992 L 16.92,117.7 a 0.633245,0.629921 -180 0 0 -0.604749,-0.62992 z m -4.82,1.92 a 0.614248,0.611024 -180 0 0 0.614248,0.61102 L 1.93,119.6 a 0.633245,0.629921 -180 0 0 0.633245,-0.61102 L 2.57,117.69 A 0.633245,0.629921 -180 0 0 1.936755,117.06008 L 0.63,117.06 a 0.633245,0.629921 -180 0 0 -0.614248,0.62992 z m 4.82,-7.02 a 0.633245,0.629921 -180 0 0 -0.604749,0.62992 L 4.24,113.86 a 0.633245,0.629921 -180 0 0 0.604749,0.62992 L 16.32,114.49 a 0.633245,0.629921 -180 0 0 0.604749,-0.62992 L 16.92,112.6 a 0.633245,0.629921 -180 0 0 -0.601583,-0.62992 z m -4.82,1.89 a 0.614248,0.611024 -180 0 0 0.614248,0.62992 L 1.93,114.49 a 0.633245,0.629921 -180 0 0 0.633245,-0.62992 L 2.57,112.56 A 0.633245,0.629921 -180 0 0 1.936755,111.94898 L 0.63,111.95 a 0.614248,0.611024 -180 0 0 -0.614248,0.61102 z"
   class="st3"
   id="path48"
   inkscape:connector-curvature="0"
   style="fill:#ffffff;stroke:none;stroke-width:34;stroke-linecap:butt" />
				</g>
			</g>
		</g>
	</g>
</svg>