<?xml version="1.0" encoding="UTF-8" standalone="no"?>
<!-- Generated by Microsoft Visio, SVG Export Azure Managed Lustre.svg Page-1 -->
<svg xmlns:dc="http://purl.org/dc/elements/1.1/" xmlns:cc="http://creativecommons.org/ns#" xmlns:rdf="http://www.w3.org/1999/02/22-rdf-syntax-ns#" xmlns:svg="http://www.w3.org/2000/svg" xmlns="http://www.w3.org/2000/svg" xmlns:sodipodi="http://sodipodi.sourceforge.net/DTD/sodipodi-0.dtd" xmlns:inkscape="http://www.inkscape.org/namespaces/inkscape" width="56.693601" height="53.865399" viewBox="0 0 56.693601 53.865399" xml:space="preserve" class="st7" version="1.1" id="svg78" sodipodi:docname="Azure Managed Lustre.svg" style="font-size:12px;overflow:visible;color-interpolation-filters:sRGB;fill:none;fill-rule:evenodd;stroke-linecap:square;stroke-miterlimit:3" inkscape:version="0.92.5 (2060ec1f9f, 2020-04-08)">
  <metadata id="metadata82">
    <rdf:RDF>
      <cc:Work rdf:about="">
        <dc:format>image/svg+xml</dc:format>
        <dc:type rdf:resource="http://purl.org/dc/dcmitype/StillImage" />
      </cc:Work>
    </rdf:RDF>
  </metadata>
  <sodipodi:namedview pagecolor="#ffffff" bordercolor="#666666" borderopacity="1" objecttolerance="10" gridtolerance="10" guidetolerance="10" inkscape:pageopacity="0" inkscape:pageshadow="2" inkscape:window-width="640" inkscape:window-height="480" id="namedview80" showgrid="false" inkscape:zoom="1.4522891" inkscape:cx="37.795198" inkscape:cy="35.900936" inkscape:window-x="0" inkscape:window-y="0" inkscape:window-maximized="0" inkscape:current-layer="svg78" />
	<style type="text/css" id="style2">
	<![CDATA[
		.st1 {fill:url(#grad0-6);stroke:none;stroke-linecap:butt;stroke-width:34}
		.st2 {fill:#ffffff;stroke:none;stroke-linecap:butt;stroke-width:34}
		.st3 {fill:url(#grad0-12);stroke:none;stroke-linecap:butt;stroke-width:34}
		.st4 {fill:#005ba1;stroke:none;stroke-linecap:butt;stroke-width:34}
		.st5 {fill:#ffffff;fill-opacity:0.8;stroke:none;stroke-linecap:butt;stroke-width:34}
		.st6 {fill:#7de2fb;stroke:none;stroke-linecap:butt;stroke-width:34}
		.st7 {fill:none;fill-rule:evenodd;font-size:12px;overflow:visible;stroke-linecap:square;stroke-miterlimit:3}
	]]>
	</style>

	<defs id="Patterns_And_Gradients">
		<linearGradient id="grad0-6" x1="0" y1="95.403753" x2="33.657644" y2="95.403753" gradientTransform="scale(1.0588976,0.94437835)" gradientUnits="userSpaceOnUse">
			<stop offset="0" stop-color="#0078d4" stop-opacity="1" id="stop4" />
			<stop offset="1" stop-color="#5ea0ef" stop-opacity="1" id="stop6" />
		</linearGradient>
		<linearGradient id="grad0-12" x1="0" y1="95.378908" x2="33.647693" y2="95.378908" gradientTransform="scale(1.0586164,0.94462922)" gradientUnits="userSpaceOnUse">
			<stop offset="0" stop-color="#32bedd" stop-opacity="1" id="stop9" />
			<stop offset="1" stop-color="#50e6ff" stop-opacity="1" id="stop11" />
		</linearGradient>
	</defs>
	<g id="g76" transform="translate(-34.000327,-33.998903)">
		<title id="title15">Page-1</title>
		<g id="group8083-1" transform="translate(34,-34.0157)">
			<title id="title17">Azure Managed Lustre</title>
			<g id="group8084-2">
				<title id="title19">Sheet.8084</title>
				<g id="shape8085-3" transform="translate(21.0539,-11.0019)">
					<title id="title21">Sheet.8085</title>
					<path d="M 33.47,90.1 H 15.96 v 18.76 a 3.44513,3.42204 0 0 1 -3.54,3.31 H 0 v 7.78 a 2.0658,2.05195 -180 0 0 2.17,1.93 h 8.81 c 0,-0.19 -0.03,-0.38 -0.03,-0.57 a 6.865,6.8189981 0 0 1 13.73,0 c 0,0.19 0,0.38 -0.03,0.57 h 8.82 a 2.0658,2.05195 -180 0 0 2.17,-1.93 V 92.04 A 2.0658,2.05195 -180 0 0 33.47,90.1 Z" class="st1" id="path23" inkscape:connector-curvature="0" style="fill:url(#grad0-6);stroke:none;stroke-width:34;stroke-linecap:butt" />
				</g>
				<g id="shape8086-7" transform="translate(36.9896,-31.8735)">
					<title id="title26">Sheet.8086</title>
					<path d="m 0,115.79 h 13.91 a 1.08558,1.07831 0 0 1 1.08,1.08 v 3.93 a 1.08558,1.07831 0 0 1 -1.08,1.08 H 0 Z" class="st2" id="path28" inkscape:connector-curvature="0" style="fill:#ffffff;stroke:none;stroke-width:34;stroke-linecap:butt" />
				</g>
				<g id="shape8087-9" transform="translate(0,-22.0831)">
					<title id="title31">Sheet.8087</title>
					<path d="M 33.47,90.1 H 2.16 A 2.0658,2.05195 -180 0 0 0,92.03 v 27.91 a 2.0658,2.05195 -180 0 0 2.16,1.93 h 8.94 a 6.86152,6.81554 0 0 1 6.71,-8.28 6.85513,6.80919 0 0 1 6.7,8.29 h 8.95 a 2.0658,2.05195 -180 0 0 2.16,-1.93 V 92.04 A 2.0658,2.05195 -180 0 0 33.47,90.1 Z" class="st3" id="path33" inkscape:connector-curvature="0" style="fill:url(#grad0-12);stroke:none;stroke-width:34;stroke-linecap:butt" />
				</g>
				<g id="shape8088-13" transform="translate(16.4721)">
					<title id="title36">Sheet.8088</title>
					<path d="M 22.41,121.88 H 1.34 A 1.34101,1.33203 0 0 1 0,120.55 v -19.29 a 1.34101,1.33203 0 1 1 2.68,0 v 17.95 h 18.36 v -8.17 a 1.34101,1.33203 0 1 1 2.68,0 v 9.51 a 1.34101,1.33203 0 0 1 -1.31,1.33 z" class="st4" id="path38" inkscape:connector-curvature="0" style="fill:#005ba1;stroke:none;stroke-width:34;stroke-linecap:butt" />
				</g>
				<g id="shape8089-15" transform="translate(4.70951,-42.9579)">
					<title id="title41">Sheet.8089</title>
					<path d="m 0,120.8 a 1.08241,1.07516 -180 0 0 1.08,1.08 h 24.06 a 1.08241,1.07516 -180 0 0 1.09,-1.08 v -3.93 A 1.08241,1.07516 -180 0 0 25.14,115.8 H 1.08 A 1.08241,1.07516 -180 0 0 0,116.87 Z" class="st2" id="path43" inkscape:connector-curvature="0" style="fill:#ffffff;stroke:none;stroke-width:34;stroke-linecap:butt" />
				</g>
				<g id="shape8090-17" transform="translate(4.70951,-33.1294)">
					<title id="title46">Sheet.8090</title>
					<path d="m 0,120.8 a 1.08241,1.07516 -180 0 0 1.08,1.08 h 24.06 a 1.08241,1.07516 -180 0 0 1.09,-1.08 v -3.93 A 1.08241,1.07516 -180 0 0 25.14,115.8 H 1.08 A 1.08241,1.07516 -180 0 0 0,116.87 Z" class="st5" id="path48" inkscape:connector-curvature="0" style="fill:#ffffff;fill-opacity:0.8;stroke:none;stroke-width:34;stroke-linecap:butt" />
				</g>
				<g id="shape8091-19" transform="translate(12.299,-18.0616)">
					<title id="title51">Sheet.8091</title>
					<ellipse cx="5.5237002" cy="116.39" rx="5.5237002" ry="5.48668" class="st6" id="ellipse53" style="fill:#7de2fb;stroke:none;stroke-width:34;stroke-linecap:butt" />
				</g>
				<g id="shape8092-21" transform="translate(33.3465,-6.07975)">
					<title id="title56">Sheet.8092</title>
					<ellipse cx="5.5237002" cy="116.39" rx="5.5237002" ry="5.48668" class="st6" id="ellipse58" style="fill:#7de2fb;stroke:none;stroke-width:34;stroke-linecap:butt" />
				</g>
				<g id="group8093-23" transform="translate(36.3319,-22.0482)">
					<title id="title61">Sheet.8093</title>
					<g id="shape8094-24" transform="translate(0.664121)">
						<title id="title63">Sheet.8094</title>
						<path d="M 13.9,115.8 H 0.02 L 0,120.33 v 1.55 h 13.91 a 1.08558,1.07831 -180 0 0 1.08,-1.08 v -3.93 A 1.08558,1.07831 -180 0 0 13.9,115.8 Z" class="st5" id="path65" inkscape:connector-curvature="0" style="fill:#ffffff;fill-opacity:0.8;stroke:none;stroke-width:34;stroke-linecap:butt" />
					</g>
					<g id="shape8095-26">
						<title id="title68">Sheet.8095</title>
						<path d="M 0.61,120.17 A 3.17373,3.15246 0 0 1 0,121.86 v 0.02 h 0.67 v -2.64 z" class="st5" id="path70" inkscape:connector-curvature="0" style="fill:#ffffff;fill-opacity:0.8;stroke:none;stroke-width:34;stroke-linecap:butt" />
					</g>
				</g>
			</g>
		</g>
	</g>
</svg>