<?xml version="1.0" encoding="UTF-8" standalone="no"?>
<!-- Generated by Microsoft Visio, SVG Export Azure Center for SAP.svg Page-1 -->

<svg
   xmlns:dc="http://purl.org/dc/elements/1.1/"
   xmlns:cc="http://creativecommons.org/ns#"
   xmlns:rdf="http://www.w3.org/1999/02/22-rdf-syntax-ns#"
   xmlns:svg="http://www.w3.org/2000/svg"
   xmlns="http://www.w3.org/2000/svg"
   xmlns:sodipodi="http://sodipodi.sourceforge.net/DTD/sodipodi-0.dtd"
   xmlns:inkscape="http://www.inkscape.org/namespaces/inkscape"
   width="0.78671998in"
   height="0.78744376in"
   viewBox="0 0 56.644076 56.695933"
   xml:space="preserve"
   class="st6"
   version="1.1"
   id="svg74"
   sodipodi:docname="Azure Center for SAP.svg"
   style="font-size:12px;overflow:visible;color-interpolation-filters:sRGB;fill:none;fill-rule:evenodd;stroke-linecap:square;stroke-miterlimit:3"
   inkscape:version="0.92.5 (2060ec1f9f, 2020-04-08)"><metadata
   id="metadata80"><rdf:RDF><cc:Work
       rdf:about=""><dc:format>image/svg+xml</dc:format><dc:type
         rdf:resource="http://purl.org/dc/dcmitype/StillImage" /></cc:Work></rdf:RDF></metadata><defs
   id="defs78" /><sodipodi:namedview
   pagecolor="#ffffff"
   bordercolor="#666666"
   borderopacity="1"
   objecttolerance="10"
   gridtolerance="10"
   guidetolerance="10"
   inkscape:pageopacity="0"
   inkscape:pageshadow="2"
   inkscape:window-width="640"
   inkscape:window-height="480"
   id="namedview76"
   showgrid="false"
   inkscape:zoom="1.4193037"
   inkscape:cx="37.762808"
   inkscape:cy="37.79065"
   inkscape:window-x="0"
   inkscape:window-y="0"
   inkscape:window-maximized="0"
   inkscape:current-layer="svg74" />
	<style
   type="text/css"
   id="style2">
	<![CDATA[
		.st1 {fill:#32bedd;stroke:none;stroke-linecap:butt;stroke-width:34}
		.st2 {fill:#9cebff;stroke:none;stroke-linecap:butt;stroke-width:34}
		.st3 {fill:#50e6ff;stroke:none;stroke-linecap:butt;stroke-width:34}
		.st4 {fill:#005ba1;stroke:none;stroke-linecap:butt;stroke-width:34}
		.st5 {fill:#00ffff;stroke:none;stroke-linecap:butt;stroke-width:34}
		.st6 {fill:none;fill-rule:evenodd;font-size:12px;overflow:visible;stroke-linecap:square;stroke-miterlimit:3}
	]]>
	</style>

	<g
   id="g72"
   transform="translate(-33.997276,-34.001701)">
		<title
   id="title4">Page-1</title>
		<g
   id="group9472-1"
   transform="translate(37.3029,-34.0157)">
			<title
   id="title6">Azure Center for SAP</title>
			<g
   id="group9473-2">
				<title
   id="title8">Sheet.9473</title>
				<g
   id="shape9474-3"
   transform="translate(24.5546,-28.7949)">
					<title
   id="title10">Sheet.9474</title>
					<path
   d="m 7.74,111.23 v 8.97 L 0,124.71 v -8.98 z"
   class="st1"
   id="path12"
   inkscape:connector-curvature="0"
   style="fill:#32bedd;stroke:none;stroke-width:34;stroke-linecap:butt" />
				</g>
				<g
   id="shape9475-5"
   transform="translate(16.8116,-37.765)">
					<title
   id="title15">Sheet.9475</title>
					<path
   d="M 15.48,120.2 7.74,124.71 0,120.19 7.74,115.69 Z"
   class="st2"
   id="path17"
   inkscape:connector-curvature="0"
   style="fill:#9cebff;stroke:none;stroke-width:34;stroke-linecap:butt" />
				</g>
				<g
   id="shape9476-7"
   transform="translate(16.8116,-28.7949)">
					<title
   id="title20">Sheet.9476</title>
					<path
   d="m 7.74,115.74 v 8.97 L 0,120.2 v -8.98 z"
   class="st3"
   id="path22"
   inkscape:connector-curvature="0"
   style="fill:#50e6ff;stroke:none;stroke-width:34;stroke-linecap:butt" />
				</g>
				<g
   id="shape9477-9"
   transform="translate(15.3362,-12.8603)">
					<title
   id="title25">Sheet.9477</title>
					<path
   d="m 7.73,111.24 v 8.96 L 0,124.71 v -8.98 z"
   class="st1"
   id="path27"
   inkscape:connector-curvature="0"
   style="fill:#32bedd;stroke:none;stroke-width:34;stroke-linecap:butt" />
				</g>
				<g
   id="shape9478-11"
   transform="translate(7.59318,-21.8271)">
					<title
   id="title30">Sheet.9478</title>
					<path
   d="M 15.48,120.2 7.74,124.71 0,120.19 7.74,115.69 Z"
   class="st2"
   id="path32"
   inkscape:connector-curvature="0"
   style="fill:#9cebff;stroke:none;stroke-width:34;stroke-linecap:butt" />
				</g>
				<g
   id="shape9479-13"
   transform="translate(7.59318,-12.8603)">
					<title
   id="title35">Sheet.9479</title>
					<path
   d="m 7.74,115.74 v 8.97 L 0,120.2 v -8.98 z"
   class="st3"
   id="path37"
   inkscape:connector-curvature="0"
   style="fill:#50e6ff;stroke:none;stroke-width:34;stroke-linecap:butt" />
				</g>
				<g
   id="shape9480-15"
   transform="translate(34.0694,-12.8336)">
					<title
   id="title40">Sheet.9480</title>
					<path
   d="m 7.73,111.24 v 8.96 L 0,124.71 v -8.98 z"
   class="st1"
   id="path42"
   inkscape:connector-curvature="0"
   style="fill:#32bedd;stroke:none;stroke-width:34;stroke-linecap:butt" />
				</g>
				<g
   id="shape9481-17"
   transform="translate(26.323,-21.8004)">
					<title
   id="title45">Sheet.9481</title>
					<path
   d="M 15.48,120.2 7.75,124.71 0,120.19 7.75,115.69 Z"
   class="st2"
   id="path47"
   inkscape:connector-curvature="0"
   style="fill:#9cebff;stroke:none;stroke-width:34;stroke-linecap:butt" />
				</g>
				<g
   id="shape9482-19"
   transform="translate(26.323,-12.8336)">
					<title
   id="title50">Sheet.9482</title>
					<path
   d="m 7.75,115.74 v 8.97 L 0,120.2 v -8.98 z"
   class="st3"
   id="path52"
   inkscape:connector-curvature="0"
   style="fill:#50e6ff;stroke:none;stroke-width:34;stroke-linecap:butt" />
				</g>
				<g
   id="shape9483-21"
   transform="translate(26.6994,-9.52991)">
					<title
   id="title55">Sheet.9483</title>
					<path
   d="m 0.32,77.59 1.79,1 0.72,0.4 a 0.959139,0.96108 0 0 1 0.033303,1.66854 L 2.15,81.09 0,82.39 a 23.5022,23.5498 0 0 1 17.11,37.65 0.526194,0.527259 -180 0 0 -0.0766,0.15684 L 16.14,123.53 a 0.955808,0.957743 -180 0 0 1.17228,1.17465 L 19.98,123.99 A 0.459587,0.460518 -180 0 0 20.229776,123.82982 28.2846,28.3419 -180 0 0 0.32,77.59 Z"
   class="st4"
   id="path57"
   inkscape:connector-curvature="0"
   style="fill:#005ba1;stroke:none;stroke-width:34;stroke-linecap:butt" />
				</g>
				<g
   id="shape9484-23"
   transform="translate(1.55194)">
					<title
   id="title60">Sheet.9484</title>
					<path
   d="m 41.23,116.98 -0.8,0.21 a 0.955808,0.957743 0 0 1 -1.16895,-1.17465 L 39.47,115.22 40.06,113.01 A 23.5122,23.5598 0 0 1 3.9,109.44 0.459587,0.460518 -180 0 0 3.726822,109.28316 L 1.39,108.09 a 0.959139,0.96108 -180 0 0 -1.39208,0.90435 L 0.17,112.33 A 0.516203,0.517248 -180 0 0 0.2599192,112.58696 28.5111,28.5688 -180 0 0 4.28,117.19 a 28.2413,28.2985 -180 0 0 39.18,-0.8 z"
   class="st5"
   id="path62"
   inkscape:connector-curvature="0"
   style="fill:#00ffff;stroke:none;stroke-width:34;stroke-linecap:butt" />
				</g>
				<g
   id="shape9485-25"
   transform="translate(0,-14.7625)">
					<title
   id="title65">Sheet.9485</title>
					<path
   d="M 0.04,122.17 0,121.34 a 0.955808,0.957743 0 0 1 1.39208,-0.90101 L 2.13,120.82 4.04,121.8 A 23.5189,23.5665 0 0 1 23.88,87.57 0.456257,0.45718 -180 0 0 24.096472,87.50326 L 26.7,85.93 A 0.955808,0.957743 -180 0 0 26.6667,84.26146 L 24.08,82.84 A 0.502882,0.5039 -180 0 0 23.823564,82.779933 28.2846,28.3419 -180 0 0 0.17,124.71 Z"
   class="st1"
   id="path67"
   inkscape:connector-curvature="0"
   style="fill:#32bedd;stroke:none;stroke-width:34;stroke-linecap:butt" />
				</g>
			</g>
		</g>
	</g>
</svg>