<?xml version="1.0" encoding="UTF-8" standalone="no"?>
<!-- Generated by Microsoft Visio, SVG Export Azure Attestation.svg Page-1 -->

<svg
   xmlns:dc="http://purl.org/dc/elements/1.1/"
   xmlns:cc="http://creativecommons.org/ns#"
   xmlns:rdf="http://www.w3.org/1999/02/22-rdf-syntax-ns#"
   xmlns:svg="http://www.w3.org/2000/svg"
   xmlns="http://www.w3.org/2000/svg"
   xmlns:sodipodi="http://sodipodi.sourceforge.net/DTD/sodipodi-0.dtd"
   xmlns:inkscape="http://www.inkscape.org/namespaces/inkscape"
   width="0.62985957in"
   height="0.78732622in"
   viewBox="0 0 45.349863 56.687628"
   xml:space="preserve"
   class="st4"
   version="1.1"
   id="svg59"
   sodipodi:docname="Azure Attestation.svg"
   style="font-size:12px;overflow:visible;color-interpolation-filters:sRGB;fill:none;fill-rule:evenodd;stroke-linecap:square;stroke-miterlimit:3"
   inkscape:version="0.92.5 (2060ec1f9f, 2020-04-08)"><metadata
   id="metadata63"><rdf:RDF><cc:Work
       rdf:about=""><dc:format>image/svg+xml</dc:format><dc:type
         rdf:resource="http://purl.org/dc/dcmitype/StillImage" /></cc:Work></rdf:RDF></metadata><sodipodi:namedview
   pagecolor="#ffffff"
   bordercolor="#666666"
   borderopacity="1"
   objecttolerance="10"
   gridtolerance="10"
   guidetolerance="10"
   inkscape:pageopacity="0"
   inkscape:pageshadow="2"
   inkscape:window-width="640"
   inkscape:window-height="480"
   id="namedview61"
   showgrid="false"
   inkscape:zoom="1.8365233"
   inkscape:cx="30.236154"
   inkscape:cy="18.897191"
   inkscape:window-x="0"
   inkscape:window-y="0"
   inkscape:window-maximized="0"
   inkscape:current-layer="svg59" />
	<style
   type="text/css"
   id="style2">
	<![CDATA[
		.st1 {fill:url(#grad0-6);stroke:none;stroke-linecap:butt;stroke-width:0.75}
		.st2 {fill:url(#grad0-10);stroke:none;stroke-linecap:butt;stroke-width:0.75}
		.st3 {fill:#ffffff;stroke:none;stroke-linecap:butt;stroke-width:0.75}
		.st4 {fill:none;fill-rule:evenodd;font-size:12px;overflow:visible;stroke-linecap:square;stroke-miterlimit:3}
	]]>
	</style>

	<defs
   id="Patterns_And_Gradients">
		<linearGradient
   id="grad0-6"
   x1="-9.0475874e-07"
   y1="35.499775"
   x2="50.7029"
   y2="35.499775"
   gradientTransform="scale(0.89442618,1.1180353)"
   gradientUnits="userSpaceOnUse">
			<stop
   offset="0"
   stop-color="#5e9624"
   stop-opacity="1"
   id="stop4" />
			<stop
   offset="0.315"
   stop-color="#619a25"
   stop-opacity="1"
   id="stop6" />
			<stop
   offset="0.66"
   stop-color="#69a728"
   stop-opacity="1"
   id="stop8" />
			<stop
   offset="1"
   stop-color="#76bc2d"
   stop-opacity="1"
   id="stop10" />
		</linearGradient>
		<linearGradient
   id="grad0-10"
   x1="0"
   y1="39.69789"
   x2="46.494567"
   y2="39.69789"
   gradientTransform="scale(0.89429805,1.1181954)"
   gradientUnits="userSpaceOnUse">
			<stop
   offset="0"
   stop-color="#5e9624"
   stop-opacity="1"
   id="stop13" />
			<stop
   offset="0.545"
   stop-color="#6dad2a"
   stop-opacity="1"
   id="stop15" />
			<stop
   offset="1"
   stop-color="#76bc2d"
   stop-opacity="1"
   id="stop17" />
		</linearGradient>
	</defs>
	<g
   id="g57"
   transform="translate(-4.5355116,-5.6743)">
		<title
   id="title21">Page-1</title>
		<g
   id="group9607-1"
   transform="translate(4.53543,-34.0157)">
			<title
   id="title23">Azure Attestation</title>
			<g
   id="group9608-2">
				<title
   id="title25">Sheet.9608</title>
				<g
   id="shape9609-3">
					<title
   id="title27">Sheet.9609</title>
					<path
   d="m 45.35,66.16 c 0,15.24 -18.01,27.51 -21.93,30 a 1.41065,1.44285 0 0 1 -1.49,0 C 18.01,93.67 0,81.4 0,66.16 V 47.82 a 1.42636,1.45892 0 0 1 1.39,-1.46 c 14.01,-0.39 10.79,-6.67 21.29,-6.67 10.5,0 7.27,6.28 21.28,6.67 a 1.42636,1.45892 0 0 1 1.39,1.46 z"
   class="st1"
   id="path29"
   inkscape:connector-curvature="0"
   style="fill:url(#grad0-6);stroke:none;stroke-width:0.75;stroke-linecap:butt" />
				</g>
				<g
   id="shape9610-7"
   transform="translate(1.88819,-2.35241)">
					<title
   id="title32">Sheet.9610</title>
					<path
   d="m 41.58,68.66 c 0,13.98 -16.52,25.24 -20.1,27.52 a 1.29754,1.32716 0 0 1 -1.37,0 C 16.52,93.9 0,82.64 0,68.66 V 51.84 a 1.30069,1.33038 0 0 1 1.28,-1.33 c 12.84,-0.35 9.88,-6.12 19.51,-6.12 9.63,0 6.67,5.78 19.52,6.12 a 1.30069,1.33038 0 0 1 1.27,1.33 z"
   class="st2"
   id="path34"
   inkscape:connector-curvature="0"
   style="fill:url(#grad0-10);stroke:none;stroke-width:0.75;stroke-linecap:butt" />
				</g>
				<g
   id="group9611-11"
   transform="translate(10.4055,-13.4396)">
					<title
   id="title37">Sheet.9611</title>
					<g
   id="shape9612-12"
   transform="translate(0,-5.916)">
						<title
   id="title39">Sheet.9612</title>
						<path
   d="M 22.39,91.09 H 2.15 A 2.14896,2.19801 -180 0 0 0,93.29 v 2.72 a 0.35816,0.366336 -180 0 0 0.35816,0.366336 L 24.19,96.38 a 0.35816,0.366336 -180 0 0 0.35816,-0.366336 L 24.54,93.29 a 2.14896,2.19801 -180 0 0 -2.15,-2.2 z"
   class="st3"
   id="path41"
   inkscape:connector-curvature="0"
   style="fill:#ffffff;stroke:none;stroke-width:0.75;stroke-linecap:butt" />
					</g>
					<g
   id="shape9613-14"
   transform="translate(1.98245)">
						<title
   id="title44">Sheet.9613</title>
						<path
   d="M 20.32,93.18 H 0.25 a 0.254482,0.260291 -180 0 0 -0.254482,0.260291 L 0,94.81 a 1.53003,1.56496 -180 0 0 1.53,1.57 h 17.52 a 1.53003,1.56496 -180 0 0 1.53,-1.57 v -1.37 a 0.254482,0.260291 -180 0 0 -0.254482,-0.260291 z"
   class="st3"
   id="path46"
   inkscape:connector-curvature="0"
   style="fill:#ffffff;stroke:none;stroke-width:0.75;stroke-linecap:butt" />
					</g>
					<g
   id="shape9614-16"
   transform="translate(4.89171,-14.0493)">
						<title
   id="title49">Sheet.9614</title>
						<path
   d="m 12.04,87.25 c 1.42,-2.1 2.41,-1.7 1.6,-6.56 -0.8,-4.87 -6.09,-4.82 -6.41,-4.82 -0.33,0 -5.62,-0.06 -6.42,4.82 -0.81,4.87 0.18,4.46 1.6,6.56 a 27.7888,28.4231 0 0 1 1.29,9.13 h 7.05 a 27.8579,28.4938 0 0 1 1.29,-9.13 z"
   class="st3"
   id="path51"
   inkscape:connector-curvature="0"
   style="fill:#ffffff;stroke:none;stroke-width:0.75;stroke-linecap:butt" />
					</g>
				</g>
			</g>
		</g>
	</g>
</svg>