<?xml version="1.0" encoding="UTF-8" standalone="no"?>
<!DOCTYPE svg PUBLIC "-//W3C//DTD SVG 1.1//EN" "http://www.w3.org/Graphics/SVG/1.1/DTD/svg11.dtd">
<!-- Generated by Microsoft Visio, SVG Export Azure AD Authentication Method.svg Page-1 -->
<svg xmlns="http://www.w3.org/2000/svg" xmlns:xlink="http://www.w3.org/1999/xlink" xmlns:ev="http://www.w3.org/2001/xml-events"
		width="1.73185in" height="1.69269in" viewBox="0 0 124.693 121.874" xml:space="preserve" color-interpolation-filters="sRGB"
		class="st9">
	<style type="text/css">
	<![CDATA[
		.st1 {fill:#50e6ff;stroke:none;stroke-linecap:butt;stroke-width:34}
		.st2 {fill:#ffffff;stroke:none;stroke-linecap:butt;stroke-width:34}
		.st3 {fill:url(#grad0-12);stroke:none;stroke-linecap:butt;stroke-width:34}
		.st4 {fill:#53b1e0;stroke:none;stroke-linecap:butt;stroke-width:34}
		.st5 {fill:#9cebff;stroke:none;stroke-linecap:butt;stroke-width:34}
		.st6 {fill:url(#grad0-20);stroke:none;stroke-linecap:butt;stroke-width:34}
		.st7 {fill:#ffca00;stroke:none;stroke-linecap:butt;stroke-width:34}
		.st8 {fill:#ff9300;fill-opacity:0.75;stroke:none;stroke-linecap:butt;stroke-width:34}
		.st9 {fill:none;fill-rule:evenodd;font-size:12px;overflow:visible;stroke-linecap:square;stroke-miterlimit:3}
	]]>
	</style>

	<defs id="Patterns_And_Gradients">
		<linearGradient id="grad0-12" x1="0" y1="0" x2="1" y2="0" gradientTransform="rotate(-133.50152230549 0.5 0.5)">
			<stop offset="0" stop-color="#1988d9" stop-opacity="1"/>
			<stop offset="0.9" stop-color="#54aef0" stop-opacity="1"/>
		</linearGradient>
		<linearGradient id="grad0-20" x1="0" y1="0" x2="1" y2="0" gradientTransform="rotate(65.832309755673 0.5 0.5)">
			<stop offset="0.1" stop-color="#54aef0" stop-opacity="1"/>
			<stop offset="0.29" stop-color="#4fabee" stop-opacity="1"/>
			<stop offset="0.51" stop-color="#41a2e9" stop-opacity="1"/>
			<stop offset="0.74" stop-color="#2a93e0" stop-opacity="1"/>
			<stop offset="0.88" stop-color="#1988d9" stop-opacity="1"/>
		</linearGradient>
	</defs>
	<g>
		<title>Page-1</title>
		<g id="group8422-1" transform="translate(34,-34.0157)">
			<title>Azure AD Authentication Method</title>
			<g id="group8423-2">
				<title>Icon-identity-227</title>
				<g id="shape8424-3" transform="translate(0,-2.82519)">
					<title>Sheet.8424</title>
					<path d="M3.2 100.05 L28.12 116.05 L53.49 100.02 L56.69 103.66 L28.12 121.87 L0 103.69 L3.2 100.05 Z"
							class="st1"/>
				</g>
				<g id="shape8425-5" transform="translate(5.06072,-11.9484)">
					<title>Sheet.8425</title>
					<path d="M0 107.14 L23.06 79.96 L46.6 107.18 L23.06 121.87 L0 107.14 Z" class="st2"/>
				</g>
				<g id="shape8426-7" transform="translate(5.06072,-11.9484)">
					<title>Sheet.8426</title>
					<path d="M23.06 79.96 L23.06 121.87 L0 107.14 L23.06 79.96 Z" class="st1"/>
				</g>
				<g id="shape8427-9" transform="translate(28.1222,-11.9484)">
					<title>Sheet.8427</title>
					<path d="M0 79.96 L0 121.87 L23.54 107.18 L0 79.96 Z" class="st3"/>
				</g>
				<g id="shape8428-13" transform="translate(28.1222,-11.9484)">
					<title>Sheet.8428</title>
					<path d="M0 101.6 L23.54 107.18 L0 121.87 L0 101.6 Z" class="st4"/>
				</g>
				<g id="shape8429-15" transform="translate(5.06072,-11.9484)">
					<title>Sheet.8429</title>
					<path d="M23.06 121.87 L0 107.14 L23.06 101.6 L23.06 121.87 Z" class="st5"/>
				</g>
				<g id="shape8430-17" transform="translate(28.1222,-2.82519)">
					<title>Sheet.8430</title>
					<path d="M0 121.87 L28.57 103.66 L25.37 100.02 L0 116.05 L0 121.87 Z" class="st6"/>
				</g>
				<g id="shape8431-21" transform="translate(32.6502,-2.55795E-13)">
					<title>Sheet.8431</title>
					<path d="M19.14 102.48 A3.71547 3.67464 -180 0 0 19.14 97.25 L12.74 90.92 A3.71547 3.67464 -180 0 0 7.48 90.92
								 L1.08 97.25 A3.77953 3.73799 -180 0 0 1.08 102.48 L6.43 107.77 A1.02496 1.01369 0 0 1 6.71 108.5
								 L6.71 118.32 A1.15308 1.1404 -180 0 0 7.1 119.21 L9.53 121.61 a0.800747 0.791947 -180 0 0 1.18511
								 0 L13.06 119.3 L14.47 117.91 a0.480448 0.475168 -180 0 0 0 -0.665236 L13.47 116.26 a0.512478 0.506846
								 0 0 1 1.24345E-14 -0.760269 L14.47 114.52 a0.512478 0.506846 -180 0 0 -1.95399E-14 -0.696914 L13.47
								 112.84 a0.480448 0.475168 0 0 1 8.88178E-15 -0.728591 L14.47 111.1 a0.480448 0.475168 -180 0 0 2.4869E-14
								 -0.665236 L13.06 109.04 L13.06 108.53 L19.14 102.48 ZM10.11 92.44 A2.11397 2.09074 0 1 1 8 94.53
								 A2.11397 2.09074 0 0 1 10.11 92.44 Z" class="st7"/>
				</g>
				<g id="shape8432-23" transform="translate(41.0176,-3.07901)">
					<title>Sheet.8432</title>
					<path d="M0.14 121.78 a0.448419 0.44349 -180 0 0 0.768717 -0.348457 L0.91 113.32 a0.512478 0.506846 -180 0 0
								 -0.192179 -0.411813 a0.448419 0.44349 -180 0 0 -0.704658 0.411813 L0.01 121.27 a0.480448 0.475168
								 -180 0 0 0.12812 0.506846 Z" class="st8"/>
				</g>
				<g id="shape8433-25" transform="translate(37.6351,-21.2617)">
					<title>Sheet.8433</title>
					<path d="M-0 121.3 a0.576551 0.570215 -180 0 0 0.576538 0.570202 L9.96 121.87 a0.576551 0.570215 -180 0 0 0.576538
								 -0.570202 L10.54 121.21 a0.576551 0.570215 -180 0 0 -0.576538 -0.570202 L0.58 120.64 a0.576551 0.570215
								 -180 0 0 -0.576538 0.570202 L0 121.3 Z" class="st8"/>
				</g>
				<g id="shape8434-27" transform="translate(37.6351,-19.266)">
					<title>Sheet.8434</title>
					<path d="M-0 121.3 a0.576551 0.570215 -180 0 0 0.576538 0.570202 L9.96 121.87 a0.576551 0.570215 -180 0 0 0.576538
								 -0.570202 L10.54 121.21 a0.576551 0.570215 -180 0 0 -0.576538 -0.570202 L0.58 120.64 a0.576551 0.570215
								 -180 0 0 -0.576538 0.570202 L0 121.3 Z" class="st8"/>
				</g>
			</g>
		</g>
	</g>
</svg>
