<?xml version="1.0" encoding="UTF-8" standalone="no"?>
<!DOCTYPE svg PUBLIC "-//W3C//DTD SVG 1.1//EN" "http://www.w3.org/Graphics/SVG/1.1/DTD/svg11.dtd">
<!-- Generated by Microsoft Visio, SVG Export Azure Role Based Access Control.svg Page-1 -->
<svg xmlns="http://www.w3.org/2000/svg" xmlns:xlink="http://www.w3.org/1999/xlink" xmlns:ev="http://www.w3.org/2001/xml-events"
		width="1.5748in" height="1.85039in" viewBox="0 0 113.386 133.228" xml:space="preserve" color-interpolation-filters="sRGB"
		class="st3">
	<style type="text/css">
	<![CDATA[
		.st1 {fill:url(#grad0-9);stroke:none;stroke-linecap:butt;stroke-width:1.15109}
		.st2 {fill:url(#grad0-14);stroke:none;stroke-linecap:butt;stroke-width:1.15109}
		.st3 {fill:none;fill-rule:evenodd;font-size:12px;overflow:visible;stroke-linecap:square;stroke-miterlimit:3}
	]]>
	</style>

	<defs id="Patterns_And_Gradients">
		<linearGradient id="grad0-9" x1="0" y1="0" x2="1" y2="0" gradientTransform="rotate(89.928501126486 0.5 0.5)">
			<stop offset="0.22" stop-color="#32d4f5" stop-opacity="1"/>
			<stop offset="1" stop-color="#198ab3" stop-opacity="1"/>
		</linearGradient>
		<linearGradient id="grad0-14" x1="0" y1="0" x2="1" y2="0" gradientTransform="rotate(89.619091264739 0.5 0.5)">
			<stop offset="0.22" stop-color="#32d4f5" stop-opacity="1"/>
			<stop offset="1" stop-color="#198ab3" stop-opacity="1"/>
		</linearGradient>
	</defs>
	<g>
		<title>Page-1</title>
		<g id="group4252-1" transform="translate(28.3465,-70.8661)">
			<title>Azure Role Based Access Control</title>
			<g id="group4253-2">
				<title>paths</title>
				<g id="group4254-3">
					<title>Microsoft_account</title>
					<g id="group4255-4">
						<title>group1068-2156_1_</title>
						<g id="group4256-5">
							<title>Sheet.4256</title>
							<g id="shape4257-6">
								<title>path5</title>
								<path d="M56.69 110.35 L28.42 76.54 L0 110.21 L28.28 133.23 L56.69 110.35 ZM24.76 122 L24.76 107.69
											 C22.09 106.29 20.4 103.48 20.4 100.11 C20.4 95.48 23.92 91.69 28.28 91.69 C32.64 91.69
											 36.15 95.48 36.15 100.11 C36.15 103.34 34.33 106.29 31.79 107.55 L31.79 110.35 L31.65
											 110.5 L28.98 113.3 L31.79 116.25 L31.79 116.39 L29.26 119.2 L31.65 121.86 L28.14 125.51
											 L24.76 122 Z" class="st1"/>
							</g>
						</g>
						<g id="group4258-10" transform="translate(25.4776,-32.4349)">
							<title>Sheet.4258</title>
							<g id="shape4259-11">
								<title>path10</title>
								<path d="M5.77 130.28 C5.77 128.88 4.08 127.76 2.81 127.76 C1.41 127.76 0 128.74 0 130.14 C0 131.54
											 1.41 133.09 2.81 133.09 C4.08 133.23 5.77 131.83 5.77 130.28 Z" class="st2"/>
							</g>
						</g>
					</g>
				</g>
			</g>
		</g>
	</g>
</svg>
