<?xml version="1.0" encoding="UTF-8" standalone="no"?>
<!DOCTYPE svg PUBLIC "-//W3C//DTD SVG 1.1//EN" "http://www.w3.org/Graphics/SVG/1.1/DTD/svg11.dtd">
<!-- Generated by Microsoft Visio, SVG Export Azure Cosmos DB.svg Page-1 -->
<svg xmlns="http://www.w3.org/2000/svg" xmlns:xlink="http://www.w3.org/1999/xlink" xmlns:ev="http://www.w3.org/2001/xml-events"
		width="1.67609in" height="2.16917in" viewBox="0 0 120.679 156.18" xml:space="preserve" color-interpolation-filters="sRGB"
		class="st4">
	<style type="text/css">
	<![CDATA[
		.st1 {fill:#50e6ff;stroke:none;stroke-linecap:butt;stroke-width:33.0148}
		.st2 {fill:url(#grad7-11);stroke:none;stroke-linecap:butt;stroke-width:0.799132}
		.st3 {fill:#f2f2f2;stroke:none;stroke-linecap:butt;stroke-width:33.0148}
		.st4 {fill:none;fill-rule:evenodd;font-size:12px;overflow:visible;stroke-linecap:square;stroke-miterlimit:3}
	]]>
	</style>

	<defs id="Patterns_And_Gradients">
		<radialGradient id="grad7-11" cx="0" cy="0" r="1.4">
			<stop offset="0.185" stop-color="#5ea0ef" stop-opacity="1"/>
			<stop offset="1" stop-color="#0078d4" stop-opacity="1"/>
		</radialGradient>
	</defs>
	<g>
		<title>Page-1</title>
		<g id="group4630-1" transform="translate(31.9894,-69.3071)">
			<title>Azure Cosmos DB</title>
			<g id="group4631-2">
				<title>layer1</title>
				<g id="shape4632-3" transform="translate(1.32222,-38.8194)">
					<title>path14</title>
					<path d="M7.59 156.18 a0.562494 0.557297 0 0 1 -0.56611 -0.560881 A6.46707 6.40733 -180 0 0 0.57 149.22 a0.565708
								 0.560482 0 0 1 -0.566113 -0.557272 a0.565708 0.560482 0 0 1 0.566113 -0.560884 A6.46707 6.40733
								 -180 0 0 7.02 141.7 a0.562494 0.557297 0 0 1 0.56611 -0.560884 a0.562494 0.557297 0 0 1 0.566114
								 0.560884 A6.46707 6.40733 -180 0 0 14.61 148.1 a0.562494 0.557297 0 0 1 0.566113 0.560884 a0.562494
								 0.557297 0 0 1 -0.566113 0.560884 A6.46385 6.40414 -180 0 0 8.16 155.62 a0.568922 0.563667 0 0 1
								 -0.566114 0.560884 L7.59 156.18 Z" class="st1"/>
				</g>
				<g id="shape4633-5" transform="translate(43.5231,-2.55795E-13)">
					<title>path16</title>
					<path d="M6.07 156.18 a0.453209 0.449023 0 0 1 -0.453134 -0.448948 A5.17173 5.12395 -180 0 0 0.45 150.61 a0.453209
								 0.449023 0 0 1 -0.453134 -0.445336 a0.453209 0.449023 0 0 1 0.453134 -0.448946 A5.16851 5.12077
								 -180 0 0 5.62 144.6 a0.453209 0.449023 0 0 1 0.453134 -0.448946 a0.453209 0.449023 0 0 1 0.453134
								 0.448946 A5.16851 5.12077 -180 0 0 11.69 149.72 a0.453209 0.449023 0 1 1 0 0.897894 A5.17173 5.12395
								 -180 0 0 6.52 155.73 a0.453209 0.449023 0 0 1 -0.453134 0.445339 Z" class="st1"/>
				</g>
				<g id="group4634-7" transform="translate(7.65415,-7.43718)">
					<title>g26</title>
					<g id="shape4635-8" transform="translate(0.88498,0)">
						<title>path1554</title>
						<ellipse cx="19.7561" cy="136.607" rx="19.7561" ry="19.5736" class="st2"/>
					</g>
					<g id="shape4636-12" transform="translate(0,-6.25559)">
						<title>path20-2-1-1</title>
						<path d="M10.42 155.99 C17.61 156.18 17.63 145.4 10.43 145.56 C10.45 145.42 10.46 145.27 10.45 145.12 C10.43
									 142.22 8.04 139.89 5.12 139.91 L1.17 139.91 C0 145.08 1.95 151.65 5.98 155.99 L10.42 155.99
									 Z" class="st3"/>
					</g>
					<g id="shape4637-14" transform="translate(21.0893,-16.4572)">
						<title>path22-2-2-2</title>
						<path d="M19.01 149.46 C19.01 149.41 19.01 149.37 18.99 149.32 A19.2148 19.0373 -180 0 0 14.47 140.15 A5.866
									 5.81182 -180 0 0 13.54 139.86 A5.80493 5.75131 -180 0 0 6.15 145.16 A6.4285 6.36911 -180 0 0
									 5.5 145.12 A5.58315 5.53158 -180 0 0 3.64 155.86 A4.66388 4.62079 -180 0 0 5.37 156.18 L11.9
									 156.18 A43.2413 42.8418 -180 0 0 19.01 149.46 Z" class="st3"/>
					</g>
				</g>
				<g id="shape4638-16" transform="translate(0,-8.26195)">
					<title>path28</title>
					<path d="M54.67 121.06 C52.65 117.72 47.92 116.42 41.32 117.4 A46.9473 46.5136 -180 0 0 34.63 118.84 A20.7512
								 20.5595 0 0 1 39.54 121.28 C40.31 121.11 41.09 120.91 41.84 120.8 A24.0747 23.8523 0 0 1 45.38 120.51
								 A7.03278 6.96781 0 0 1 51.68 122.82 C52.91 124.85 51.87 128.33 48.83 132.38 A53.7519 53.2553 0 0
								 1 33.57 145.28 A53.8644 53.3668 0 0 1 14.85 152.48 C9.82 153.22 6.22 152.48 4.99 150.45 C3.76 148.43
								 4.8 144.95 7.84 140.92 C8.22 140.42 8.31 140.17 8.74 139.67 A20.0955 19.9098 0 0 1 8.82 134.48 A37.131
								 36.788 -180 0 0 5.06 138.85 C1.08 144.12 0 148.87 2.02 152.2 A10.1731 10.0791 -180 0 0 11.34 156.18
								 A27.109 26.8586 -180 0 0 15.36 155.86 A57.3904 56.8603 -180 0 0 35.35 148.22 A57.2393 56.7106 -180
								 0 0 51.62 134.42 C55.61 129.13 56.69 124.39 54.67 121.05 L54.67 121.06 Z" class="st1"/>
				</g>
			</g>
		</g>
	</g>
</svg>
