<?xml version="1.0" encoding="UTF-8" standalone="no"?>
<!-- Generated by Microsoft Visio, SVG Export Azure Database for PostgreSQL Group.svg Page-1 -->

<svg
   xmlns:dc="http://purl.org/dc/elements/1.1/"
   xmlns:cc="http://creativecommons.org/ns#"
   xmlns:rdf="http://www.w3.org/1999/02/22-rdf-syntax-ns#"
   xmlns:svg="http://www.w3.org/2000/svg"
   xmlns="http://www.w3.org/2000/svg"
   xmlns:sodipodi="http://sodipodi.sourceforge.net/DTD/sodipodi-0.dtd"
   xmlns:inkscape="http://www.inkscape.org/namespaces/inkscape"
   width="0.66189629in"
   height="0.74073786in"
   viewBox="0 0 47.656722 53.333423"
   xml:space="preserve"
   class="st9"
   version="1.1"
   id="svg69"
   sodipodi:docname="Azure Database for PostgreSQL Group.svg"
   style="font-size:12px;overflow:visible;color-interpolation-filters:sRGB;fill:none;fill-rule:evenodd;stroke-linecap:square;stroke-miterlimit:3"
   inkscape:version="0.92.5 (2060ec1f9f, 2020-04-08)"><metadata
   id="metadata75"><rdf:RDF><cc:Work
       rdf:about=""><dc:format>image/svg+xml</dc:format><dc:type
         rdf:resource="http://purl.org/dc/dcmitype/StillImage" /></cc:Work></rdf:RDF></metadata><defs
   id="defs73" /><sodipodi:namedview
   pagecolor="#ffffff"
   bordercolor="#666666"
   borderopacity="1"
   objecttolerance="10"
   gridtolerance="10"
   guidetolerance="10"
   inkscape:pageopacity="0"
   inkscape:pageshadow="2"
   inkscape:window-width="640"
   inkscape:window-height="480"
   id="namedview71"
   showgrid="false"
   inkscape:zoom="1.6433259"
   inkscape:cx="31.769691"
   inkscape:cy="21.976175"
   inkscape:window-x="0"
   inkscape:window-y="0"
   inkscape:window-maximized="0"
   inkscape:current-layer="svg69" />
	<style
   type="text/css"
   id="style2">
	<![CDATA[
		.st1 {fill:#3998c5;stroke:none;stroke-linecap:butt;stroke-width:17}
		.st2 {fill:#59b3d8;stroke:none;stroke-linecap:butt;stroke-width:17}
		.st3 {fill:#ffffff;stroke:none;stroke-linecap:butt;stroke-width:17}
		.st4 {fill:#7fb900;stroke:none;stroke-linecap:butt;stroke-width:17}
		.st5 {fill:#b7d332;stroke:none;stroke-linecap:butt;stroke-width:17}
		.st6 {fill:#336790;stroke:none;stroke-linecap:butt;stroke-width:17}
		.st7 {fill:#00791e;stroke:none;stroke-linecap:butt;stroke-width:17}
		.st8 {fill:#ffffff;fill-opacity:0.2;stroke:none;stroke-linecap:butt;stroke-width:17}
		.st9 {fill:none;fill-rule:evenodd;font-size:12px;overflow:visible;stroke-linecap:square;stroke-miterlimit:3}
	]]>
	</style>

	<g
   id="g67"
   transform="translate(-17.000064,-17.0033)">
		<title
   id="title4">Page-1</title>
		<g
   id="group8216-1"
   transform="translate(17,-34.0157)">
			<title
   id="title6">Azure Database for PostgreSQL Group</title>
			<g
   id="group8217-2">
				<title
   id="title8">Sheet.8217</title>
				<g
   id="shape8218-3"
   transform="translate(0,-3.44039)">
					<title
   id="title10">Sheet.8218</title>
					<path
   d="m 0,61.74 v 38.68 c 0,4.07 9.2,7.29 20.47,7.29 V 61.74 Z"
   class="st1"
   id="path12"
   inkscape:connector-curvature="0"
   style="fill:#3998c5;stroke:none;stroke-width:17;stroke-linecap:butt" />
				</g>
				<g
   id="shape8219-5"
   transform="translate(20.2533,-3.44039)">
					<title
   id="title15">Sheet.8219</title>
					<path
   d="m 0,107.71 h 0.33 c 11.38,0 20.46,-3.22 20.46,-7.29 V 61.74 H 0 Z"
   class="st2"
   id="path17"
   inkscape:connector-curvature="0"
   style="fill:#59b3d8;stroke:none;stroke-width:17;stroke-linecap:butt" />
				</g>
				<g
   id="shape8220-7"
   transform="translate(0,-42.121)">
					<title
   id="title20">Sheet.8220</title>
					<path
   d="m 41.05,100.42 c 0,3.97 -9.19,7.29 -20.46,7.29 C 9.32,107.71 0,104.39 0,100.42 c 0,-3.96 9.2,-7.28 20.47,-7.28 11.28,0 20.58,3.32 20.58,7.28 z"
   class="st3"
   id="path22"
   inkscape:connector-curvature="0"
   style="fill:#ffffff;stroke:none;stroke-width:17;stroke-linecap:butt" />
				</g>
				<g
   id="shape8221-9"
   transform="translate(4.16534,-45.0143)">
					<title
   id="title25">Sheet.8221</title>
					<path
   d="m 32.72,102.89 c 0,2.68 -7.33,4.82 -16.31,4.82 -8.98,0 -16.41,-2.14 -16.41,-4.82 0,-2.68 7.33,-4.82 16.31,-4.82 8.98,0 16.41,2.14 16.41,4.82 z"
   class="st4"
   id="path27"
   inkscape:connector-curvature="0"
   style="fill:#7fb900;stroke:none;stroke-width:17;stroke-linecap:butt" />
				</g>
				<g
   id="shape8222-11"
   transform="translate(4.16534,-46.9433)">
					<title
   id="title30">Sheet.8222</title>
					<path
   d="m 29.22,107.71 c 2.19,-0.85 3.4,-1.82 3.4,-2.89 0,-2.68 -7.34,-4.83 -16.31,-4.83 -8.98,0 -16.31,2.15 -16.31,4.83 0,1.07 1.31,2.14 3.39,2.89 a 37.2457,36.6126 0 0 1 12.92,-1.82 40.0282,39.3477 0 0 1 12.91,1.82 z"
   class="st5"
   id="path32"
   inkscape:connector-curvature="0"
   style="fill:#b7d332;stroke:none;stroke-width:17;stroke-linecap:butt" />
				</g>
				<g
   id="shape8223-13"
   transform="translate(6.77018,-10.4283)">
					<title
   id="title35">Sheet.8223</title>
					<path
   d="M 25.29,97.46 C 22.04,98.12 21.81,97.03 21.81,97.03 25.25,92.04 26.69,85.7 25.45,84.15 22.06,79.91 16.2,81.92 16.1,81.97 h -0.03 a 11.6187,11.4212 -180 0 0 -2.17,-0.22 5.39327,5.30158 -180 0 0 -3.44,1 c 0,0 -10.46,-4.21 -9.97,5.3 0.11,2.03 2.96,15.32 6.37,11.31 1.25,-1.47 2.46,-2.71 2.46,-2.71 a 3.17216,3.11823 -180 0 0 2.07,0.51 l 0.05,-0.04 a 2.23014,2.19223 -180 0 0 0.03,0.57 c -0.88,0.96 -0.62,1.13 -2.38,1.48 -1.76,0.35 -0.73,1 -0.05,1.16 a 3.61156,3.55017 -180 0 0 4.03,-1.27 l -0.05,0.2 a 5.82665,5.7276 0 0 1 0.54,3.1 8.69333,8.54555 -180 0 0 0.2,3 c 0.28,0.72 0.55,2.35 2.86,1.86 a 3.39938,3.3416 -180 0 0 3.07,-3.2 c 0.1,-1.24 0.33,-1.07 0.34,-2.17 l 0.18,-0.53 c 0.21,-1.69 0.03,-2.23 1.22,-1.98 l 0.29,0.03 a 6.6212,6.50864 -180 0 0 2.69,-0.45 c 1.45,-0.65 2.31,-1.75 0.88,-1.46 z"
   class="st6"
   id="path37"
   inkscape:connector-curvature="0"
   style="fill:#336790;stroke:none;stroke-width:17;stroke-linecap:butt" />
				</g>
				<g
   id="shape8224-15"
   transform="translate(17.0059,-28.2381)">
					<title
   id="title40">Sheet.8224</title>
					<path
   d="m 1.3,106.92 a 1.38744,1.36386 -180 0 0 -0.47,-0.14 1.01124,0.994047 -180 0 0 -0.693721,0.0961 0.258829,0.254429 -180 0 0 -0.0722313,0.0725 0.234752,0.230761 -180 0 0 -0.0361156,0.0932 C 0,107.25 0.32,107.65 0.73,107.71 a 0.711779,0.699679 -180 0 0 0.0978132,0 0.765952,0.752931 -180 0 0 0.690711,-0.43342 L 1.53,107.24 c 0.01,-0.06 -0.01,-0.2 -0.23,-0.32 z m 9.01,-0.33 a 1.32123,1.29877 -180 0 0 -0.47,-0.01 c -0.34,0.05 -0.67,0.2 -0.64,0.39 v 0.02 a 0.677168,0.665657 -180 0 0 0.254314,0.29585 0.686197,0.674532 -180 0 0 0.3747,0.10798 L 9.92,107.4 a 0.82163,0.807663 -180 0 0 0.463484,-0.24999 0.529696,0.520691 -180 0 0 0.174559,-0.34614 C 10.55,106.7 10.46,106.62 10.31,106.59 Z"
   class="st3"
   id="path42"
   inkscape:connector-curvature="0"
   style="fill:#ffffff;stroke:none;stroke-width:17;stroke-linecap:butt" />
				</g>
				<g
   id="shape8225-17"
   transform="translate(6.78974,-10.4786)">
					<title
   id="title45">Sheet.8225</title>
					<path
   d="M 26.26,97.47 C 26.1,97 25.41,97.14 25.19,97.19 c -2.3,0.46 -2.94,0 -3.07,-0.13 a 26.5465,26.0952 -180 0 0 3.55,-7.81 c 0.63,-2.48 0.62,-4.46 -0.03,-5.27 a 7.42628,7.30003 -180 0 0 -5.77,-2.79 11.2094,11.0188 -180 0 0 -3.86,0.5 h -0.02 l -0.05,0.02 -0.04,0.01 A 9.06502,8.91092 -180 0 0 13.86,81.46 5.82064,5.72169 -180 0 0 10.41,82.42 15.2378,14.9788 -180 0 0 7.1,81.61 6.85745,6.74088 -180 0 0 2.22,82.47 C 0.71,83.52 0,85.41 0.14,88.08 c 0.06,1.26 1.95,11.3 4.9,12.26 A 1.80578,1.77508 -180 0 0 7.05,99.56 C 8.1,98.32 9.08,97.3 9.33,97.04 a 3.61156,3.55017 -180 0 0 1.72,0.44 1.20385,1.18339 -180 0 0 0.01,0.18 c -0.11,0.12 -0.21,0.24 -0.31,0.37 -0.4,0.5 -0.49,0.61 -1.77,0.87 -0.52,0.11 -1.2,0.3 -1.22,0.81 -0.02,0.5 0.71,0.82 1.14,0.92 a 3.89748,3.83122 -180 0 0 3.96,-0.94 26.1838,25.7387 -180 0 0 0.38,5.96 2.83508,2.78688 -180 0 0 2.73,2.06 4.29325,4.22026 -180 0 0 0.9,-0.1 3.437,3.37858 -180 0 0 3.17,-3.16 c 0.19,-1.06 0.52,-3.65 0.66,-4.95 a 3.36026,3.30314 -180 0 0 1.22,0.18 6.77168,6.65657 -180 0 0 2.55,-0.47 c 0.84,-0.38 1.99,-1.15 1.79,-1.74 z m -6.08,1.38 c -0.06,0.73 -0.49,4.24 -0.71,5.51 a 2.86969,2.8209 0 0 1 -2.71,2.68 2.29184,2.25288 0 0 1 -2.96,-1.6 A 31.9458,31.4027 0 0 1 13.48,98.49 0.267858,0.263304 -180 0 0 13.4499,98.359827 1.49127,1.46592 -180 0 0 13.4,98.09 1.50482,1.47924 -180 0 0 13.12,97.58 1.48977,1.46444 -180 0 0 12.67,97.22 L 12.63,97.2 a 1.09701,1.07836 -180 0 0 -0.94,-0.05 7.56622,7.4376 0 0 1 0.39,-1.22 l 0.06,-0.16 c 0.07,-0.18 0.15,-0.36 0.24,-0.56 a 7.99961,7.86362 -180 0 0 0.42,-5.71 1.9984,1.96443 -180 0 0 -0.86,-1.31 2.00893,1.97478 -180 0 0 -1.57,-0.29 5.94553,5.84446 -180 0 0 -2.3,0.81 8.74751,8.5988 0 0 1 2.02,-5.27 4.98998,4.90515 0 0 1 3.77,-1.38 7.77539,7.64322 0 0 1 5.66,2.42 9.12822,8.97305 0 0 1 2.06,3.32 c -1.55,-0.18 -2.59,0.09 -3.11,0.81 -1.08,1.53 0.64,4.56 1.47,6.02 0.14,0.24 0.29,0.5 0.33,0.61 a 5.47904,5.3859 -180 0 0 0.88,1.38 2.87721,2.8283 0 0 1 0.3,0.39 l -0.07,0.02 c -0.44,0.12 -1.26,0.34 -1.19,1.82 z M 5.24,99.79 C 4.25,99.47 3.15,97.53 2.15,94.32 A 35.5889,34.9839 0 0 1 0.74,88.06 C 0.62,85.6 1.23,83.88 2.57,82.96 a 5.4354,5.343 0 0 1 3.16,-0.84 13.7194,13.4862 0 0 1 4.13,0.74 2.25723,2.21886 -180 0 0 -0.19,0.17 9.79636,9.62983 -180 0 0 -2.21,6.33 v 0.02 a 18.8779,18.557 0 0 1 -0.07,3.65 4.07354,4.00429 -180 0 0 1.08,3.36 3.40089,3.34307 -180 0 0 0.37,0.32 C 8.46,97.1 7.56,98.05 6.6,99.19 6.13,99.74 5.69,99.93 5.24,99.79 Z m 2.74,-6.68 a 19.4558,19.1251 -180 0 0 0.08,-3.68 4.59872,4.52055 0 0 1 3.05,-0.93 1.31371,1.29137 0 0 1 1.1,1.12 7.40671,7.2808 0 0 1 -0.38,5.35 c -0.09,0.19 -0.18,0.4 -0.26,0.6 l -0.06,0.16 A 9.42768,9.26742 -180 0 0 11.12,96.91 2.9675,2.91705 0 0 1 8.89,95.99 3.49419,3.43479 0 0 1 7.98,93.1 Z m 3.67,4.8 0.03,-0.04 a 0.49358,0.48519 0 0 1 0.300964,-0.207093 0.504114,0.495544 0 0 1 0.364166,0.04881 L 12.39,97.74 A 0.902891,0.887542 0 0 1 12.787272,98.91156 3.32866,3.27207 0 0 1 9.07,100.08 1.60263,1.57539 0 0 1 8.38,99.75 1.6553,1.62716 0 0 1 9.11,99.49 c 1.43,-0.29 1.63,-0.48 2.12,-1.08 0.11,-0.13 0.24,-0.3 0.42,-0.5 z m 9.18,-2.89 c -0.06,-0.14 -0.19,-0.36 -0.36,-0.67 l -0.01,-0.01 c -0.71,-1.24 -2.37,-4.17 -1.49,-5.4 a 2.00141,1.96738 0 0 1 1.72,-0.61 7.33147,7.20684 0 0 1 0.94,0.07 7.69413,7.56334 0 0 1 -0.12,1.23 10.15,9.97745 -180 0 0 -0.14,1.29 9.90772,9.73929 -180 0 0 0.11,1.47 5.26686,5.17733 0 0 1 -0.33,3.22 3.95918,3.89187 0 0 1 -0.32,-0.59 z m 4.08,-5.31 a 29.836,29.3288 0 0 1 -3.11,6.77 2.6244,2.57979 -180 0 0 -0.19,-0.23 l -0.07,-0.09 -0.02,-0.02 a 5.51967,5.42584 -180 0 0 0.53,-3.83 9.17939,9.02334 0 0 1 -0.1,-1.37 9.95888,9.78959 0 0 1 0.14,-1.23 7.51055,7.38287 -180 0 0 0.12,-1.5 0.498095,0.489627 -180 0 0 0.01655,-0.190822 A 9.29676,9.13872 -180 0 0 16.89,82.05 c 4.87,-1.17 7.4,1.2 8.28,2.29 0.65,0.81 0.55,2.72 -0.26,5.37 z m -3.38,7.88 a 1.60414,1.57687 -180 0 0 0.22,-0.07 1.61918,1.59166 -180 0 0 0.15,0.11 4.89066,4.80752 -180 0 0 3.42,0.12 1.98184,1.94815 0 0 1 0.31,-0.04 3.88995,3.82383 0 0 1 -1.38,0.96 5.37671,5.28531 0 0 1 -3.4,0.25 c -0.06,-0.03 -0.07,-0.06 -0.07,-0.07 -0.06,-1.03 0.35,-1.15 0.76,-1.26 z"
   class="st3"
   id="path47"
   inkscape:connector-curvature="0"
   style="fill:#ffffff;stroke:none;stroke-width:17;stroke-linecap:butt" />
				</g>
				<g
   id="shape8226-19"
   transform="rotate(-40.155,17.956702,59.046439)">
					<title
   id="title50">Sheet.8226</title>
					<ellipse
   cx="10.0296"
   cy="100.555"
   rx="10.0296"
   ry="7.1535902"
   class="st7"
   id="ellipse52"
   style="fill:#00791e;stroke:none;stroke-width:17;stroke-linecap:butt" />
				</g>
				<g
   id="shape8227-21"
   transform="translate(34.1744,-3.66967)">
					<title
   id="title55">Sheet.8227</title>
					<path
   d="M 12.16,93.19 A 5.85976,5.76015 -180 0 0 8.55,91.3 L 0,107.71 a 10.9445,10.7585 -180 0 0 9.18,-2.69 c 4.24,-3.51 5.57,-8.81 2.98,-11.83 z"
   class="st8"
   id="path57"
   inkscape:connector-curvature="0"
   style="fill:#ffffff;fill-opacity:0.2;stroke:none;stroke-width:17;stroke-linecap:butt" />
				</g>
				<g
   id="shape8228-23"
   transform="translate(31.2686,-6.26278)">
					<title
   id="title60">Sheet.8228</title>
					<path
   d="m 4.93,105.23 c -2.04,-0.84 -2.18,-4.16 0.14,-5.85 3.76,-2.65 3.99,1.17 0.98,1.66 -0.01,1.37 3.93,1.21 5.61,-1.85 1.9,-3.46 -3.67,-5.64 -8.5,-0.41 -3.09,3.35 -3.16,7.93 -0.44,8.93 A 8.24339,8.10326 -180 0 0 13.3,99.23 c -2.61,5.99 -6.31,6.86 -8.37,6 z"
   class="st3"
   id="path62"
   inkscape:connector-curvature="0"
   style="fill:#ffffff;stroke:none;stroke-width:17;stroke-linecap:butt" />
				</g>
			</g>
		</g>
	</g>
</svg>