<?xml version="1.0" encoding="UTF-8" standalone="no"?>
<!DOCTYPE svg PUBLIC "-//W3C//DTD SVG 1.1//EN" "http://www.w3.org/Graphics/SVG/1.1/DTD/svg11.dtd">
<!-- Generated by Microsoft Visio, SVG Export Backlog.svg Page-1 -->
<svg xmlns="http://www.w3.org/2000/svg" xmlns:xlink="http://www.w3.org/1999/xlink" xmlns:ev="http://www.w3.org/2001/xml-events"
		width="1.5748in" height="1.59055in" viewBox="0 0 113.386 114.52" xml:space="preserve" color-interpolation-filters="sRGB"
		class="st3">
	<style type="text/css">
	<![CDATA[
		.st1 {fill:url(#grad0-6);stroke:none;stroke-linecap:butt;stroke-width:0.75}
		.st2 {fill:#a3a3a3;stroke:none;stroke-linecap:butt;stroke-width:0.75}
		.st3 {fill:none;fill-rule:evenodd;font-size:12px;overflow:visible;stroke-linecap:square;stroke-miterlimit:3}
	]]>
	</style>

	<defs id="Patterns_And_Gradients">
		<linearGradient id="grad0-6" x1="0" y1="0" x2="1" y2="0" gradientTransform="rotate(-90 0.5 0.5)">
			<stop offset="0.2" stop-color="#0078d4" stop-opacity="1"/>
			<stop offset="0.285" stop-color="#1380da" stop-opacity="1"/>
			<stop offset="0.76" stop-color="#5ea0ef" stop-opacity="1"/>
		</linearGradient>
	</defs>
	<g>
		<title>Page-1</title>
		<g id="group4080-1" transform="translate(28.3465,-64.6299)">
			<title>Backlog</title>
			<g id="group4081-2">
				<title>Sheet.4081</title>
				<g id="shape4082-3" transform="translate(2.79776E-13,-31.0803)">
					<title>Sheet.4082</title>
					<path d="M20 101.56 L19.05 100.68 A1.62813 1.49548 -180 0 0 16.75 100.68 L7.53 109.14 L3.73 105.66 A1.62813 1.49548
								 -180 0 0 1.43 105.66 L0.48 106.54 A1.62813 1.49548 -180 0 0 0.48 108.65 L6.38 114.08 A1.62813 1.49548
								 -180 0 0 7.53 114.52 A1.62813 1.49548 -180 0 0 8.68 114.08 L20 103.67 A1.62813 1.49548 -180 0 0
								 20 101.56 Z" class="st1"/>
				</g>
				<g id="shape4083-7" transform="translate(22.9384,-35.1061)">
					<title>Sheet.4083</title>
					<path d="M0 111.76 A3.00561 2.76072 -180 0 0 3.01 114.52 L30.75 114.52 A3.00561 2.76072 -180 0 0 33.75 111.76
								 L33.75 111.61 A3.00561 2.76072 -180 0 0 30.75 108.85 L3.01 108.85 A3.00561 2.76072 -180 0 0 0 111.61
								 L0 111.76 Z" class="st2"/>
				</g>
				<g id="shape4084-9" transform="translate(22.9384,-19.7804)">
					<title>Sheet.4084</title>
					<path d="M0 111.76 A3.00561 2.76072 -180 0 0 3.01 114.52 L30.75 114.52 A3.00561 2.76072 -180 0 0 33.75 111.76
								 L33.75 111.61 A3.00561 2.76072 -180 0 0 30.75 108.85 L3.01 108.85 A3.00561 2.76072 -180 0 0 0 111.61
								 L0 111.76 Z" class="st2"/>
				</g>
				<g id="shape4085-11" transform="translate(22.9384,-4.45771)">
					<title>Sheet.4085</title>
					<path d="M0 111.76 A3.00561 2.76072 -180 0 0 3.01 114.52 L30.75 114.52 A3.00561 2.76072 -180 0 0 33.75 111.76
								 L33.75 111.61 A3.00561 2.76072 -180 0 0 30.75 108.85 L3.01 108.85 A3.00561 2.76072 -180 0 0 0 111.61
								 L0 111.76 Z" class="st2"/>
				</g>
				<g id="shape4086-13" transform="translate(2.79776E-13,-15.5362)">
					<title>Sheet.4086</title>
					<path d="M20 101.56 L19.05 100.68 A1.62813 1.49548 -180 0 0 16.75 100.68 L7.53 109.14 L3.73 105.66 A1.62813 1.49548
								 -180 0 0 1.43 105.66 L0.48 106.54 A1.62813 1.49548 -180 0 0 0.48 108.65 L6.38 114.08 A1.62813 1.49548
								 -180 0 0 7.53 114.52 A1.62813 1.49548 -180 0 0 8.68 114.08 L20 103.67 A1.62813 1.49548 -180 0 0
								 20 101.56 Z" class="st1"/>
				</g>
				<g id="shape4087-16">
					<title>Sheet.4087</title>
					<path d="M20 101.56 L19.05 100.69 A1.62813 1.49548 -180 0 0 17.9 100.25 A1.6086 1.47754 -180 0 0 16.75 100.69
								 L7.53 109.14 L3.73 105.67 A1.62813 1.49548 -180 0 0 1.43 105.67 L0.48 106.54 A1.62813 1.49548 -180
								 0 0 0.48 108.65 L6.38 114.08 A1.62813 1.49548 -180 0 0 8.68 114.08 L20 103.67 A1.62813 1.49548 -180
								 0 0 20 101.56 Z" class="st1"/>
				</g>
			</g>
		</g>
	</g>
</svg>
