<?xml version="1.0" encoding="UTF-8" standalone="no"?>
<!DOCTYPE svg PUBLIC "-//W3C//DTD SVG 1.1//EN" "http://www.w3.org/Graphics/SVG/1.1/DTD/svg11.dtd">
<!-- Generated by Microsoft Visio, SVG Export Bastion.svg Page-1 -->
<svg xmlns="http://www.w3.org/2000/svg" xmlns:xlink="http://www.w3.org/1999/xlink" xmlns:ev="http://www.w3.org/2001/xml-events"
		width="1.5748in" height="1.93227in" viewBox="0 0 113.386 139.124" xml:space="preserve" color-interpolation-filters="sRGB"
		class="st2">
	<style type="text/css">
	<![CDATA[
		.st1 {fill:#0072c6;stroke:none;stroke-linecap:butt;stroke-width:12.24}
		.st2 {fill:none;fill-rule:evenodd;font-size:12px;overflow:visible;stroke-linecap:square;stroke-miterlimit:3}
	]]>
	</style>

	<g>
		<title>Page-1</title>
		<g id="group4051-1" transform="translate(28.3465,-70.8661)">
			<title>Bastion</title>
			<g id="group4052-2">
				<title>Sheet.4052</title>
				<g id="shape4053-3">
					<title>Sheet.4053</title>
					<path d="M25.13 124.56 C17.81 129.56 6.09 137.23 4.96 138.12 C3.49 139.12 1.35 138.68 0.68 137.79 C0 136.79 0
								 134.68 1.47 133.68 C2.37 133.12 17.81 122.78 22.54 119.56 L25.25 122.45 C26.49 123.67 25.13 124.56
								 25.13 124.56 ZM24.8 117.56 C24.8 117.56 11.27 103.22 9.69 101.66 C8.23 99.99 9.58 98.1 10.37 97.44
								 C11.16 96.77 13.53 95.77 14.76 96.99 C16 98.22 31.11 114.22 32.23 115.45 C33.36 116.67 33.25 118.56
								 31.33 119.89 C31 120.11 30.09 120.78 28.74 121.67 C28.63 121.78 28.06 122.23 27.5 122.56 C27.5 122.56
								 28.74 121.67 27.84 120.67 L24.8 117.56 ZM34.49 108.11 C40.58 114.56 50.04 124.67 51.06 125.67 C52.3
								 127.01 54.44 127.01 55.34 126.23 C56.24 125.45 56.69 123.45 55.45 122.12 C54.78 121.34 42.04 107.89
								 38.21 103.77 L34.94 106 C33.36 106.89 34.49 108.11 34.49 108.11 ZM35.84 101.55 C35.84 101.55 52.18
								 90.32 53.99 88.99 C55.79 87.66 54.89 85.54 54.21 84.77 C53.54 83.99 51.51 82.43 50.04 83.43 C48.58
								 84.43 30.43 96.88 29.08 97.88 C27.73 98.88 27.39 100.66 29.08 102.44 C29.3 102.77 30.09 103.55 31.22
								 104.77 C31.33 104.89 31.78 105.44 32.23 105.89 C32.23 105.89 31.22 104.77 32.35 104 L35.84 101.55
								 Z" class="st1"/>
				</g>
			</g>
		</g>
	</g>
</svg>
