<?xml version="1.0" encoding="UTF-8" standalone="no"?>
<!DOCTYPE svg PUBLIC "-//W3C//DTD SVG 1.1//EN" "http://www.w3.org/Graphics/SVG/1.1/DTD/svg11.dtd">
<!-- Generated by Microsoft Visio, SVG Export Blockchain Connection.svg Page-1 -->
<svg xmlns="http://www.w3.org/2000/svg" xmlns:xlink="http://www.w3.org/1999/xlink" xmlns:ev="http://www.w3.org/2001/xml-events"
		width="1.66763in" height="2.08972in" viewBox="0 0 120.069 150.46" xml:space="preserve" color-interpolation-filters="sRGB"
		class="st5">
	<style type="text/css">
	<![CDATA[
		.st1 {fill:#773adc;stroke:none;stroke-linecap:butt;stroke-width:31.6881}
		.st2 {fill:#b796f9;stroke:none;stroke-linecap:butt;stroke-width:31.6881}
		.st3 {fill:#a67af4;stroke:none;stroke-linecap:butt;stroke-width:31.6881}
		.st4 {fill:#32bedd;stroke:none;stroke-linecap:butt;stroke-width:31.6881}
		.st5 {fill:none;fill-rule:evenodd;font-size:12px;overflow:visible;stroke-linecap:square;stroke-miterlimit:3}
	]]>
	</style>

	<g>
		<title>Page-1</title>
		<g id="group4021-1" transform="translate(31.6881,-67.748)">
			<title>Blockchain Connection</title>
			<g id="group4022-2">
				<title>layer1</title>
				<g id="shape4023-3" transform="translate(28.4156,-9.92362)">
					<title>polygon4</title>
					<path d="M17.73 119.67 L17.73 140.18 L0 150.46 L0 129.94 L17.73 119.67 Z" class="st1"/>
				</g>
				<g id="shape4024-5" transform="translate(10.6876,-30.4112)">
					<title>polygon6</title>
					<path d="M35.46 140.15 L17.73 150.46 L0 140.15 L17.73 129.85 L35.46 140.15 Z" class="st2"/>
				</g>
				<g id="shape4025-7" transform="translate(10.6876,-9.92362)">
					<title>polygon8</title>
					<path d="M17.73 129.97 L17.73 150.46 L0 140.18 L0 119.67 L17.73 129.97 Z" class="st3"/>
				</g>
				<g id="shape4026-9" transform="translate(14.8367,-19.1681)">
					<title>path10</title>
					<path d="M4.21 139.5 C1.89 138.19 0 139.25 0 141.9 A9.20977 9.15068 -180 0 0 4.21 149.12 C6.51 150.46 8.42 149.4
								 8.42 146.74 A9.4298 9.3693 -180 0 0 4.21 139.5 Z" class="st1"/>
				</g>
				<g id="shape4027-11">
					<title>path12</title>
					<path d="M56.58 141.66 L48.44 133.54 a0.440058 0.437234 -180 0 0 -0.660539 2.27374E-13 L47.78 139.79 L10.56 139.79
								 A6.28654 6.2462 0 1 1 10.56 127.29 L18.07 127.29 A2.13742 2.12371 -180 0 0 20.18 125.17 A2.10599
								 2.09248 -180 0 0 18.07 123.08 L10.56 123.08 A10.5614 10.4936 -180 0 0 10.56 144.07 L47.65 144.07
								 L47.65 150.31 a0.440058 0.437234 -180 0 0 0.660528 -8.52651E-14 L56.58 142.22 a0.408625 0.406003
								 -180 0 0 1.13687E-13 -0.561867 L56.58 141.66 Z" class="st4"/>
				</g>
			</g>
		</g>
	</g>
</svg>
