<?xml version="1.0" encoding="UTF-8" standalone="no"?>
<!DOCTYPE svg PUBLIC "-//W3C//DTD SVG 1.1//EN" "http://www.w3.org/Graphics/SVG/1.1/DTD/svg11.dtd">
<!-- Generated by Microsoft Visio, SVG Export Blockchain DevKit.svg Page-1 -->
<svg xmlns="http://www.w3.org/2000/svg" xmlns:xlink="http://www.w3.org/1999/xlink" xmlns:ev="http://www.w3.org/2001/xml-events"
		width="0.944882in" height="1.33858in" viewBox="0 0 68.0315 96.378" xml:space="preserve" color-interpolation-filters="sRGB"
		class="st6">
	<style type="text/css">
	<![CDATA[
		.st1 {fill:#773adc;stroke:none;stroke-linecap:butt;stroke-width:0.75}
		.st2 {fill:#b796f9;stroke:none;stroke-linecap:butt;stroke-width:0.75}
		.st3 {fill:#a67af4;stroke:none;stroke-linecap:butt;stroke-width:0.75}
		.st4 {fill:#198ab3;stroke:none;stroke-linecap:butt;stroke-width:0.75}
		.st5 {fill:url(#grad0-15);stroke:none;stroke-linecap:butt;stroke-width:0.75}
		.st6 {fill:none;fill-rule:evenodd;font-size:12px;overflow:visible;stroke-linecap:square;stroke-miterlimit:3}
	]]>
	</style>

	<defs id="Patterns_And_Gradients">
		<linearGradient id="grad0-15" x1="0" y1="0" x2="1" y2="0" gradientTransform="rotate(90 0.5 0.5)">
			<stop offset="0" stop-color="#32d4f5" stop-opacity="1"/>
			<stop offset="1" stop-color="#198ab3" stop-opacity="1"/>
		</linearGradient>
	</defs>
	<g>
		<title>Page-1</title>
		<g id="group6737-1" transform="translate(5.66929,-34.0157)">
			<title>Blockchain DevKit</title>
			<g id="group6738-2">
				<title>Sheet.6738</title>
				<g id="group6739-3" transform="translate(0,-3.84406)">
					<title>Sheet.6739</title>
					<g id="shape6740-4" transform="translate(22.7928,2.84217E-13)">
						<title>Sheet.6740</title>
						<path d="M22.8 56.78 L22.8 83.13 L0 96.38 L0 69.98 L22.8 56.78 Z" class="st1"/>
					</g>
					<g id="shape6741-6" transform="translate(0,-26.3603)">
						<title>Sheet.6741</title>
						<path d="M45.59 83.14 L22.8 96.38 L0 83.13 L22.8 69.89 L45.59 83.14 Z" class="st2"/>
					</g>
					<g id="shape6742-8">
						<title>Sheet.6742</title>
						<path d="M22.79 70.02 L22.79 96.38 L0 83.13 L0 56.77 L22.79 70.02 Z" class="st3"/>
					</g>
				</g>
				<g id="shape6743-10" transform="translate(28.6463,1.42109E-14)">
					<title>b27129ef-d9eb-4579-8bb0-024170d</title>
					<path d="M23.78 73.26 L23.92 73.39 a0.251488 0.249892 -180 0 0 0.330906 -4.26326E-14 L25.57 72.28 L28.01 68.3
								 a0.254797 0.25318 -180 0 0 -0.0363996 -0.309077 L27.59 67.61 a0.254797 0.25318 -180 0 0 -0.330906
								 -0.0295925 L23.44 70.11 L22.36 71.5 a0.248179 0.246604 -180 0 0 0.0231634 0.328805 L22.53 71.98
								 L14.59 80.1 L12.95 78.41 L11.14 80.28 A3.2528 3.23215 0 0 1 10.29 82.87 A2.86895 2.85074 0 0 1 7.81
								 83.77 L0.14 91.62 a0.502977 0.499784 -180 0 0 -5.38458E-15 0.697067 L3.92 96.22 a0.502977 0.499784
								 -180 0 0 0.727993 0 L12.26 88.36 A3.11051 3.09077 0 0 1 13.17 85.77 A2.87888 2.8606 0 0 1 15.65
								 84.87 L17.47 83 L15.83 81.32 L23.78 73.26 Z" class="st4"/>
				</g>
				<g id="shape6744-12" transform="translate(28.9311,-0.0389779)">
					<title>Sheet.6744</title>
					<path d="M26.62 91.15 L24.73 89.22 L12.69 76.86 L12.09 76.22 A6.71739 6.67474 -180 0 0 10.52 69.65 A6.22765 6.18811
								 -180 0 0 4.92 67.86 a0.251488 0.249892 -180 0 0 -0.135671 0.424159 L7.94 71.47 a0.254797 0.25318
								 0 0 1 0.0661812 0.23674 L7.16 74.98 a0.254797 0.25318 0 0 1 -0.178689 0.180843 L3.76 76.05 a0.254797
								 0.25318 0 0 1 -0.248179 -0.0690491 L0.43 72.81 a0.254797 0.25318 -180 0 0 -0.433487 0.131522 A6.61812
								 6.5761 -180 0 0 1.74 78.69 A6.12507 6.08618 -180 0 0 7.86 80.32 L7.98 80.43 L8.64 81.13 L22.44 95.48
								 A2.85572 2.83759 -180 0 0 26.48 95.61 C26.53 95.57 26.57 95.53 26.62 95.48 A3.00793 2.98884 -180
								 0 0 27.47 93.31 A3.2892 3.26832 -180 0 0 26.62 91.15 Z" class="st5"/>
				</g>
			</g>
		</g>
	</g>
</svg>
