<?xml version="1.0" encoding="UTF-8" standalone="no"?>
<!-- Generated by Microsoft Visio, SVG Export Capacity Reservation Group.svg Page-1 -->

<svg
   xmlns:dc="http://purl.org/dc/elements/1.1/"
   xmlns:cc="http://creativecommons.org/ns#"
   xmlns:rdf="http://www.w3.org/1999/02/22-rdf-syntax-ns#"
   xmlns:svg="http://www.w3.org/2000/svg"
   xmlns="http://www.w3.org/2000/svg"
   xmlns:sodipodi="http://sodipodi.sourceforge.net/DTD/sodipodi-0.dtd"
   xmlns:inkscape="http://www.inkscape.org/namespaces/inkscape"
   width="48.184601"
   height="56.695568"
   viewBox="0 0 48.1846 56.695568"
   xml:space="preserve"
   class="st6"
   version="1.1"
   id="svg49"
   sodipodi:docname="Capacity Reservation Group.svg"
   style="font-size:12px;overflow:visible;color-interpolation-filters:sRGB;fill:none;fill-rule:evenodd;stroke-linecap:square;stroke-miterlimit:3"
   inkscape:version="0.92.5 (2060ec1f9f, 2020-04-08)"><metadata
   id="metadata55"><rdf:RDF><cc:Work
       rdf:about=""><dc:format>image/svg+xml</dc:format><dc:type
         rdf:resource="http://purl.org/dc/dcmitype/StillImage" /></cc:Work></rdf:RDF></metadata><defs
   id="defs53" /><sodipodi:namedview
   pagecolor="#ffffff"
   bordercolor="#666666"
   borderopacity="1"
   objecttolerance="10"
   gridtolerance="10"
   guidetolerance="10"
   inkscape:pageopacity="0"
   inkscape:pageshadow="2"
   inkscape:window-width="640"
   inkscape:window-height="480"
   id="namedview51"
   showgrid="false"
   inkscape:zoom="1.8924055"
   inkscape:cx="24.094552"
   inkscape:cy="28.339864"
   inkscape:window-x="0"
   inkscape:window-y="0"
   inkscape:window-maximized="0"
   inkscape:current-layer="svg49" />
	<style
   type="text/css"
   id="style2">
	<![CDATA[
		.st1 {fill:#a33a85;stroke:none;stroke-linecap:butt;stroke-width:34}
		.st2 {fill:#59285f;stroke:none;stroke-linecap:butt;stroke-width:34}
		.st3 {fill:#a33a85;fill-opacity:0.6;stroke:none;stroke-linecap:butt;stroke-width:34}
		.st4 {fill:#dc92bf;fill-opacity:0.6;stroke:none;stroke-linecap:butt;stroke-width:34}
		.st5 {fill:#ce74b6;fill-opacity:0.6;stroke:none;stroke-linecap:butt;stroke-width:34}
		.st6 {fill:none;fill-rule:evenodd;font-size:12px;overflow:visible;stroke-linecap:square;stroke-miterlimit:3}
	]]>
	</style>

	<g
   id="g47"
   transform="translate(-33.999949,-33.998795)">
		<title
   id="title4">Page-1</title>
		<g
   id="group7631-1"
   transform="translate(34,-34.0157)">
			<title
   id="title6">Capacity Reservation Group</title>
			<g
   id="group7632-2">
				<title
   id="title8">Sheet.7632</title>
				<g
   id="shape7633-3"
   transform="translate(4.09808,-13.9264)">
					<title
   id="title10">Sheet.7633</title>
					<path
   d="m 39.99,112.8 -5.32,3.18 -5.34,3.15 -9.35,5.58 -9.32,-5.58 -5.32,-3.15 -5.34,-3.18 4.19,-2.48 15.79,9.38 15.81,-9.38 z"
   class="st1"
   id="path12"
   inkscape:connector-curvature="0"
   style="fill:#a33a85;stroke:none;stroke-width:34;stroke-linecap:butt" />
				</g>
				<g
   id="shape7634-5"
   transform="translate(4.09808,-8.50952)">
					<title
   id="title15">Sheet.7634</title>
					<path
   d="m 39.99,107.39 v 5.41 L 19.98,124.71 0,112.8 v -5.41 l 5.34,3.18 5.32,3.15 9.32,5.57 9.35,-5.57 5.34,-3.15 z"
   class="st2"
   id="path17"
   inkscape:connector-curvature="0"
   style="fill:#59285f;stroke:none;stroke-width:34;stroke-linecap:butt" />
				</g>
				<g
   id="shape7635-7"
   transform="translate(4.09808,-24.3822)">
					<title
   id="title20">Sheet.7635</title>
					<path
   d="m 39.99,112.84 -5.32,3.14 -3.45,2.05 -1.89,1.14 -9.35,5.54 -9.32,-5.54 -1.9,-1.14 L 5.34,115.98 0,112.84 19.98,100.9 Z"
   class="st1"
   id="path22"
   inkscape:connector-curvature="0"
   style="fill:#a33a85;stroke:none;stroke-width:34;stroke-linecap:butt" />
				</g>
				<g
   id="shape7636-9"
   transform="translate(4.09808,-18.9338)">
					<title
   id="title25">Sheet.7636</title>
					<path
   d="m 39.99,107.39 v 5.41 l -4.2,2.52 -15.81,9.39 L 4.19,115.32 0,112.8 v -5.41 l 5.34,3.15 3.42,2.04 1.9,1.14 9.32,5.54 9.35,-5.54 1.89,-1.14 3.45,-2.04 z"
   class="st2"
   id="path27"
   inkscape:connector-curvature="0"
   style="fill:#59285f;stroke:none;stroke-width:34;stroke-linecap:butt" />
				</g>
				<g
   id="shape7637-11"
   transform="translate(24.0945)">
					<title
   id="title30">Sheet.7637</title>
					<path
   d="m 24.09,83.12 v 26.5 a 1.75543,1.77938 0 0 1 -0.87,1.55 L 0.89,124.46 A 1.75854,1.78253 0 0 1 0,124.71 V 96.43 l 23.86,-14.2 a 1.76786,1.79197 0 0 1 0.23,0.89 z"
   class="st3"
   id="path32"
   inkscape:connector-curvature="0"
   style="fill:#a33a85;fill-opacity:0.6;stroke:none;stroke-width:34;stroke-linecap:butt" />
				</g>
				<g
   id="shape7638-13"
   transform="translate(0.233022,-28.2748)">
					<title
   id="title35">Sheet.7638</title>
					<path
   d="m 47.72,110.51 -23.86,14.16 v 0.04 L 0,110.5 a 1.71194,1.73529 0 0 1 0.64,-0.66 L 22.99,96.53 a 1.76786,1.79197 0 0 1 1.77,0 l 22.33,13.31 a 1.76165,1.78568 0 0 1 0.63,0.67 z"
   class="st4"
   id="path37"
   inkscape:connector-curvature="0"
   style="fill:#dc92bf;fill-opacity:0.6;stroke:none;stroke-width:34;stroke-linecap:butt" />
				</g>
				<g
   id="shape7639-15">
					<title
   id="title40">Sheet.7639</title>
					<path
   d="m 24.09,96.43 v 28.28 a 1.69951,1.72269 0 0 1 -0.88,-0.24 L 0.87,111.17 A 1.75543,1.77938 0 0 1 0,109.62 V 83.11 a 1.75233,1.77623 0 0 1 0.23,-0.88 z"
   class="st5"
   id="path42"
   inkscape:connector-curvature="0"
   style="fill:#ce74b6;fill-opacity:0.6;stroke:none;stroke-width:34;stroke-linecap:butt" />
				</g>
			</g>
		</g>
	</g>
</svg>