<?xml version="1.0" encoding="UTF-8" standalone="no"?>
<!-- Generated by Microsoft Visio, SVG Export Carbon Optimisation.svg Page-1 -->

<svg
   xmlns:dc="http://purl.org/dc/elements/1.1/"
   xmlns:cc="http://creativecommons.org/ns#"
   xmlns:rdf="http://www.w3.org/1999/02/22-rdf-syntax-ns#"
   xmlns:svg="http://www.w3.org/2000/svg"
   xmlns="http://www.w3.org/2000/svg"
   xmlns:sodipodi="http://sodipodi.sourceforge.net/DTD/sodipodi-0.dtd"
   xmlns:inkscape="http://www.inkscape.org/namespaces/inkscape"
   width="0.78808916in"
   height="0.78851515in"
   viewBox="0 0 56.742656 56.773402"
   xml:space="preserve"
   class="st4"
   version="1.1"
   id="svg45"
   sodipodi:docname="Carbon Optimisation.svg"
   style="font-size:12px;overflow:visible;color-interpolation-filters:sRGB;fill:none;fill-rule:evenodd;stroke-linecap:square;stroke-miterlimit:3"
   inkscape:version="0.92.5 (2060ec1f9f, 2020-04-08)"><metadata
   id="metadata49"><rdf:RDF><cc:Work
       rdf:about=""><dc:format>image/svg+xml</dc:format><dc:type
         rdf:resource="http://purl.org/dc/dcmitype/StillImage" /></cc:Work></rdf:RDF></metadata><sodipodi:namedview
   pagecolor="#ffffff"
   bordercolor="#666666"
   borderopacity="1"
   objecttolerance="10"
   gridtolerance="10"
   guidetolerance="10"
   inkscape:pageopacity="0"
   inkscape:pageshadow="2"
   inkscape:window-width="640"
   inkscape:window-height="480"
   id="namedview47"
   showgrid="false"
   inkscape:zoom="1.4193119"
   inkscape:cx="37.839319"
   inkscape:cy="37.864085"
   inkscape:window-x="0"
   inkscape:window-y="0"
   inkscape:window-maximized="0"
   inkscape:current-layer="svg45" />
	<style
   type="text/css"
   id="style2">
	<![CDATA[
		.st1 {fill:url(#grad0-6);stroke:none;stroke-linecap:butt;stroke-width:34}
		.st2 {fill:url(#grad0-10);stroke:none;stroke-linecap:butt;stroke-width:34}
		.st3 {fill:url(#grad0-14);stroke:none;stroke-linecap:butt;stroke-width:34}
		.st4 {fill:none;fill-rule:evenodd;font-size:12px;overflow:visible;stroke-linecap:square;stroke-miterlimit:3}
	]]>
	</style>

	<defs
   id="Patterns_And_Gradients">
		<linearGradient
   id="grad0-6"
   x1="-0.031837322"
   y1="101.55096"
   x2="47.440857"
   y2="101.55096"
   gradientTransform="scale(1.1949616,0.836847)"
   gradientUnits="userSpaceOnUse">
			<stop
   offset="0"
   stop-color="#0078d4"
   stop-opacity="1"
   id="stop4" />
			<stop
   offset="1"
   stop-color="#5ea0ef"
   stop-opacity="1"
   id="stop6" />
		</linearGradient>
		<linearGradient
   id="grad0-10"
   x1="-0.0037956427"
   y1="98.6372"
   x2="29.038027"
   y2="98.6372"
   gradientTransform="scale(1.0237826,0.97676992)"
   gradientUnits="userSpaceOnUse">
			<stop
   offset="0.495"
   stop-color="#5e9624"
   stop-opacity="1"
   id="stop9" />
			<stop
   offset="1"
   stop-color="#365615"
   stop-opacity="1"
   id="stop11" />
		</linearGradient>
		<linearGradient
   id="grad0-14"
   x1="-0.0082380823"
   y1="99.400262"
   x2="28.910316"
   y2="99.400262"
   gradientTransform="scale(1.0284559,0.97233145)"
   gradientUnits="userSpaceOnUse">
			<stop
   offset="0"
   stop-color="#76bc2d"
   stop-opacity="1"
   id="stop14" />
			<stop
   offset="1"
   stop-color="#86d633"
   stop-opacity="1"
   id="stop16" />
		</linearGradient>
	</defs>
	<g
   id="g43"
   transform="translate(-33.975937,-33.979318)">
		<title
   id="title20">Page-1</title>
		<g
   id="group8217-1"
   transform="translate(34.0139,-34.0157)">
			<title
   id="title22">Carbon Optimisation</title>
			<g
   id="group8218-2">
				<title
   id="title24">Sheet.8218</title>
				<g
   id="shape8219-3"
   transform="translate(0,-16.9876)">
					<title
   id="title26">Sheet.8219</title>
					<path
   d="m 29.83,116.59 a 16.8263,16.8159 0 0 1 10.05,-5.14 52.5378,52.5052 0 0 1 6.86,-0.48 c 3.35,0 6.34,0.38 9.11,1.16 0.29,0.08 0.57,0.2 0.83,0.33 0.01,-0.17 0.01,-0.34 0.01,-0.52 a 12.7687,12.7608 -180 0 0 -11.57,-12.7 17.025,17.0144 -180 0 0 -33.6,0 12.7719,12.7639 -180 0 0 1.19,25.47 h 13.26 c 0.23,-2.79 1.6,-5.71 3.87,-8.12 z"
   class="st1"
   id="path28"
   inkscape:connector-curvature="0"
   style="fill:url(#grad0-6);stroke:none;stroke-width:34;stroke-linecap:butt" />
				</g>
				<g
   id="shape8220-7"
   transform="translate(26.9717)">
					<title
   id="title31">Sheet.8220</title>
					<path
   d="m 0,122.56 c 0.16,-2.6 1.34,-5.78 3.33,-8.77 0.64,-1.1 1.44,-2.21 2.39,-3.29 a 24.0273,24.0124 0 0 1 12.15,-7.43 1.35039,1.34955 -180 0 0 -0.66,-2.61 26.7134,26.6968 -180 0 0 -13.51,8.26 24.8848,24.8694 -180 0 0 -1.97,2.55 9.59389,9.58793 0 0 1 -0.4,-2.75 c 0,-2.48 1.26,-5.17 3.26,-7.3 a 14.3766,14.3677 0 0 1 8.63,-4.41 c 7.57,-1.01 12.26,-0.17 15.03,0.61 a 2.02723,2.02597 0 0 1 0.57,3.64 c -0.15,0.1 -0.4,0.35 -0.7,0.91 a 13.5569,13.5485 -180 0 0 -0.87,2.23 c -0.23,0.77 -0.46,1.6 -0.7,2.5 l -0.16,0.57 a 59.9027,59.8655 0 0 1 -1.03,3.47 c -0.79,2.33 -1.9,4.81 -3.77,6.72 -1.95,1.98 -4.58,3.21 -8.1,3.21 -3.59,0 -6.1,-1.45 -7.7,-3.12 -1.09,1.99 -1.66,3.87 -1.74,5.26 A 2.0288592,2.0275966 0 1 1 0,122.56 Z"
   class="st2"
   id="path33"
   inkscape:connector-curvature="0"
   style="fill:url(#grad0-10);stroke:none;stroke-width:34;stroke-linecap:butt" />
				</g>
				<g
   id="shape8221-11"
   transform="translate(26.9717)">
					<title
   id="title36">Sheet.8221</title>
					<path
   d="m 0,122.56 c 0.16,-2.6 1.34,-5.78 3.33,-8.77 0.64,-1.1 1.44,-2.21 2.39,-3.29 a 24.0273,24.0124 0 0 1 12.15,-7.43 c 5.19,-1.22 10.32,-4.27 6.64,-6.42 1.87,0.24 3.08,0.59 3.74,0.77 a 2.02408,2.02282 0 0 1 0.57,3.64 c -0.16,0.1 -0.41,0.35 -0.71,0.91 a 13.5569,13.5485 -180 0 0 -0.86,2.23 c -0.24,0.77 -0.46,1.6 -0.71,2.5 l -0.15,0.57 a 59.9027,59.8655 0 0 1 -1.03,3.47 c -0.79,2.33 -1.9,4.81 -3.78,6.72 -1.94,1.98 -4.57,3.21 -8.1,3.21 -3.59,0 -6.09,-1.45 -7.69,-3.12 -1.1,1.99 -1.66,3.87 -1.75,5.26 A 2.02476,2.0235 0 1 1 0,122.56 Z"
   class="st3"
   id="path38"
   inkscape:connector-curvature="0"
   style="fill:url(#grad0-14);stroke:none;stroke-width:34;stroke-linecap:butt" />
				</g>
			</g>
		</g>
	</g>
</svg>