<?xml version="1.0" encoding="UTF-8" standalone="no"?>
<!DOCTYPE svg PUBLIC "-//W3C//DTD SVG 1.1//EN" "http://www.w3.org/Graphics/SVG/1.1/DTD/svg11.dtd">
<!-- Generated by Microsoft Visio, SVG Export CDN Profile.svg Page-1 -->
<svg xmlns="http://www.w3.org/2000/svg" xmlns:xlink="http://www.w3.org/1999/xlink" xmlns:ev="http://www.w3.org/2001/xml-events"
		width="1.73559in" height="1.75572in" viewBox="0 0 124.962 126.412" xml:space="preserve" color-interpolation-filters="sRGB"
		class="st5">
	<style type="text/css">
	<![CDATA[
		.st1 {fill:#b3b3b3;stroke:none;stroke-linecap:butt;stroke-width:34}
		.st2 {fill:#a3a3a3;stroke:none;stroke-linecap:butt;stroke-width:34}
		.st3 {fill:#7a7a7a;stroke:none;stroke-linecap:butt;stroke-width:34}
		.st4 {fill:url(#grad0-12);stroke:none;stroke-linecap:butt;stroke-width:34}
		.st5 {fill:none;fill-rule:evenodd;font-size:12px;overflow:visible;stroke-linecap:square;stroke-miterlimit:3}
	]]>
	</style>

	<defs id="Patterns_And_Gradients">
		<linearGradient id="grad0-12" x1="0" y1="0" x2="1" y2="0" gradientTransform="rotate(90 0.5 0.5)">
			<stop offset="0.18" stop-color="#5ea0ef" stop-opacity="1"/>
			<stop offset="1" stop-color="#0078d4" stop-opacity="1"/>
		</linearGradient>
	</defs>
	<g>
		<title>Page-1</title>
		<g id="group3918-1" transform="translate(34.2693,-58.3937)">
			<title>CDN Profile</title>
			<g id="group3919-2">
				<title>g10</title>
				<g id="shape3920-3" transform="translate(-104.348,108.238) rotate(-90)">
					<title>rect2</title>
					<path d="M0 124.72 A1.63783 1.69107 -180 0 0 1.64 126.41 L2.08 126.41 A1.63783 1.69107 -180 0 0 3.72 124.72 L3.72
								 111 A1.63783 1.69107 -180 0 0 2.08 109.31 L1.64 109.31 A1.63783 1.69107 -180 0 0 0 111 L0 124.72
								 Z" class="st1"/>
				</g>
				<g id="shape3921-5" transform="translate(-109.576,116.01) rotate(-90)">
					<title>rect4</title>
					<path d="M0 124.72 A1.63783 1.69107 -180 0 0 1.64 126.41 L2.08 126.41 A1.63783 1.69107 -180 0 0 3.72 124.72 L3.72
								 111 A1.63783 1.69107 -180 0 0 2.08 109.31 L1.64 109.31 A1.63783 1.69107 -180 0 0 0 111 L0 124.72
								 Z" class="st2"/>
				</g>
				<g id="shape3922-7" transform="translate(-104.348,123.783) rotate(-90)">
					<title>rect6</title>
					<path d="M0 124.72 A1.63783 1.69107 -180 0 0 1.64 126.41 L2.08 126.41 A1.63783 1.69107 -180 0 0 3.72 124.72 L3.72
								 111 A1.63783 1.69107 -180 0 0 2.08 109.31 L1.64 109.31 A1.63783 1.69107 -180 0 0 0 111 L0 124.72
								 Z" class="st3"/>
				</g>
				<g id="shape3923-9" transform="translate(11.3386,1.42109E-14)">
					<title>path8</title>
					<path d="M45.35 115.75 A10.3307 10.6665 -180 0 0 36.5 105.4 A13.0079 13.4307 -180 0 0 23.24 92.4 A13.3228 13.7559
								 -180 0 0 10.65 101.5 A12.252 12.6502 -180 0 0 0 113.86 A12.5984 13.0079 -180 0 0 12.79 126.41 L35.18
								 126.41 A10.4567 10.7966 -180 0 0 45.35 115.75 Z" class="st4"/>
				</g>
			</g>
		</g>
	</g>
</svg>
