<?xml version="1.0" encoding="UTF-8" standalone="no"?>
<!DOCTYPE svg PUBLIC "-//W3C//DTD SVG 1.1//EN" "http://www.w3.org/Graphics/SVG/1.1/DTD/svg11.dtd">
<!-- Generated by Microsoft Visio, SVG Export Certification Authority Policy Web Service.svg Page-1 -->
<svg xmlns="http://www.w3.org/2000/svg" xmlns:xlink="http://www.w3.org/1999/xlink" xmlns:ev="http://www.w3.org/2001/xml-events"
		width="1.60158in" height="1.73321in" viewBox="0 0 115.314 124.791" xml:space="preserve" color-interpolation-filters="sRGB"
		class="st15">
	<style type="text/css">
	<![CDATA[
		.st1 {fill:url(#grad0-11);stroke:none;stroke-linecap:butt;stroke-width:35.9597}
		.st2 {fill:#003067;stroke:none;stroke-linecap:butt;stroke-width:35.9597}
		.st3 {fill:#50e6ff;stroke:none;stroke-linecap:butt;stroke-width:35.9597}
		.st4 {fill:url(#grad0-31);stroke:none;stroke-linecap:butt;stroke-width:33.9998}
		.st5 {fill:#ffffff;stroke:none;stroke-linecap:butt;stroke-width:33.9998}
		.st6 {fill:#d15900;stroke:none;stroke-linecap:butt;stroke-width:33.9998}
		.st7 {fill:#b31b1b;stroke:none;stroke-linecap:butt;stroke-width:33.9998}
		.st8 {fill:#e62323;stroke:none;stroke-linecap:butt;stroke-width:33.9998}
		.st9 {fill:#ffb34d;stroke:none;stroke-linecap:butt;stroke-width:33.9998}
		.st10 {fill:#32bedd;stroke:none;stroke-linecap:butt;stroke-width:34}
		.st11 {fill:#50e6ff;stroke:none;stroke-linecap:butt;stroke-width:34}
		.st12 {fill:url(#grad7-84);stroke:none;stroke-linecap:butt;stroke-width:35.4334}
		.st13 {fill:#83b9f9;stroke:none;stroke-linecap:butt;stroke-width:35.4334}
		.st14 {fill:#f2f2f2;stroke:none;stroke-linecap:butt;stroke-width:35.4334}
		.st15 {fill:none;fill-rule:evenodd;font-size:12px;overflow:visible;stroke-linecap:square;stroke-miterlimit:3}
	]]>
	</style>

	<defs id="Patterns_And_Gradients">
		<linearGradient id="grad0-11" x1="0" y1="0" x2="1" y2="0" gradientTransform="rotate(-90 0.5 0.5)">
			<stop offset="0" stop-color="#949494" stop-opacity="1"/>
			<stop offset="0.53" stop-color="#a2a2a2" stop-opacity="1"/>
			<stop offset="1" stop-color="#b3b3b3" stop-opacity="1"/>
		</linearGradient>
		<linearGradient id="grad0-31" x1="0" y1="0" x2="1" y2="0" gradientTransform="rotate(-90 0.5 0.5)">
			<stop offset="0" stop-color="#e27908" stop-opacity="1"/>
			<stop offset="0.325" stop-color="#e47d0a" stop-opacity="1"/>
			<stop offset="0.62" stop-color="#eb8810" stop-opacity="1"/>
			<stop offset="0.91" stop-color="#f69a19" stop-opacity="1"/>
			<stop offset="1" stop-color="#faa21d" stop-opacity="1"/>
		</linearGradient>
		<radialGradient id="grad7-84" cx="0" cy="0" r="1.4">
			<stop offset="0.185" stop-color="#5ea0ef" stop-opacity="1"/>
			<stop offset="1" stop-color="#0078d4" stop-opacity="1"/>
		</radialGradient>
	</defs>
	<g>
		<title>Page-1</title>
		<g id="group6581-1" transform="translate(35.9599,-34.0157)">
			<title>Certification Authority Policy Web Service</title>
			<g id="group6582-2">
				<title>Page-1</title>
				<g id="group6583-3">
					<title>Sheet.6583</title>
					<g id="group6584-4" transform="translate(2.21823E-13,-2.32292)">
						<title>Sheet.6584</title>
						<g id="group6585-5">
							<title>Icon-databases-136.149</title>
							<g id="group6586-6">
								<title>path4-5</title>
								<g id="group6587-7">
									<title>Sheet.6587</title>
									<g id="shape6588-8">
										<title>Sheet.6588</title>
										<path d="M29.88 123 A1.82114 1.76485 90 0 1 28.15 124.79 L1.73 124.79 A1.78973 1.73442 90
													 0 1 0 123 L0 74.08 A1.75833 1.70399 90 0 1 1.73 72.3 L28.15 72.3 A1.78973 1.73442
													 90 0 1 29.88 74.08 L29.88 123 Z" class="st1"/>
									</g>
								</g>
							</g>
							<g id="group6589-12" transform="translate(4.3817,-30.7393)">
								<title>path6-7</title>
								<g id="group6590-13">
									<title>Sheet.6590</title>
									<g id="shape6591-14">
										<title>Sheet.6591</title>
										<path d="M-0 121.44 A3.35967 3.25584 90 0 1 3.23 118.11 L18.13 118.11 A3.35967 3.25584 90
													 0 1 21.48 121.44 A3.35967 3.25584 90 0 1 18.13 124.79 L3.23 124.79 A3.35967
													 3.25584 90 0 1 -0 121.44 ZM-0 111.5 A3.35967 3.25584 90 0 1 3.23 108.15 L18.13
													 108.15 A3.35967 3.25584 90 0 1 21.48 111.5 A3.35967 3.25584 90 0 1 18.13 114.85
													 L3.23 114.85 A3.35967 3.25584 90 0 1 -0 111.5 Z" class="st2"/>
									</g>
								</g>
							</g>
							<g id="group6592-16" transform="translate(5.59883,-41.7597)">
								<title>circle8-5</title>
								<g id="group6593-17">
									<title>Sheet.6593</title>
									<g id="shape6594-18">
										<title>Sheet.6594</title>
										<ellipse cx="2.19084" cy="122.53" rx="2.19084" ry="2.26071" class="st3"/>
									</g>
								</g>
							</g>
							<g id="group6595-20" transform="translate(5.59883,-31.8378)">
								<title>circle10-2</title>
								<g id="group6596-21">
									<title>Sheet.6596</title>
									<g id="shape6597-22">
										<title>Sheet.6597</title>
										<ellipse cx="2.19084" cy="122.53" rx="2.19084" ry="2.26071" class="st3"/>
									</g>
								</g>
							</g>
						</g>
					</g>
					<g id="group6598-24" transform="translate(21.8441,-35.1387)">
						<title>Management Certificate.208</title>
						<g id="group6599-25">
							<title>g14</title>
							<g id="group6600-26" transform="translate(0,-4.86355)">
								<title>rect2</title>
								<g id="group6601-27">
									<title>Sheet.6601</title>
									<g id="shape6602-28">
										<title>Sheet.6602</title>
										<path d="M-0 124.01 a0.785459 0.783629 -90 0 0 0.780364 0.780311 L22.72 124.79 a0.785459
													 0.783629 -90 0 0 0.787523 -0.780311 L23.51 108.88 a0.785459 0.783629 -90 0 0
													 -0.787523 -0.780311 L0.78 108.1 a0.785459 0.783629 -90 0 0 -0.780364 0.780311
													 L0 124.01 Z" class="st4"/>
									</g>
								</g>
							</g>
							<g id="group6603-32" transform="translate(1.37131,-6.338)">
								<title>rect4</title>
								<g id="group6604-33">
									<title>Sheet.6604</title>
									<g id="shape6605-34">
										<title>Sheet.6605</title>
										<path d="M0 124.4 a0.39273 0.391813 -90 0 0 0.391805 0.392721 L20.38 124.79 a0.39273 0.391813
													 -90 0 0 0.391805 -0.392721 L20.77 111.43 a0.39273 0.391813 -90 0 0 -0.391805
													 -0.392721 L0.4 111.05 a0.39273 0.391813 -90 0 0 -0.391805 0.392721 L0 124.4
													 Z" class="st5"/>
									</g>
								</g>
							</g>
							<g id="group6606-36" transform="translate(4.5171,-9.94608)">
								<title>path6</title>
								<g id="group6607-37">
									<title>Sheet.6607</title>
									<g id="shape6608-38">
										<title>Sheet.6608</title>
										<path d="M15 124.41 a0.37963 0.378744 90 0 1 -0.378744 0.37963 L6.14 124.79 a0.37963 0.378744
													 90 1 1 -3.55271E-15 -0.757952 L14.62 124.04 a0.378321 0.377438 90 0 1 0.378744
													 0.378321 L15 124.41 ZM15 122.07 a0.378321 0.377438 90 0 1 -0.378744 0.378321
													 L6.14 122.44 a0.37963 0.378744 90 1 1 -3.55271E-15 -0.757952 L14.62 121.68 a0.37963
													 0.378744 90 0 1 0.378744 0.37963 L15 122.07 ZM15 118.64 a0.37963 0.378744 90
													 0 1 -0.378744 0.37963 L0.4 119.02 a0.37963 0.378744 90 1 1 -4.996E-15 -0.757952
													 L14.62 118.26 a0.378321 0.377438 90 0 1 0.378744 0.378321 L15 118.64 Z"
												class="st6"/>
									</g>
								</g>
							</g>
							<g id="group6609-40" transform="translate(2.02041,0)">
								<title>path8</title>
								<g id="group6610-41">
									<title>Sheet.6610</title>
									<g id="shape6611-42">
										<title>Sheet.6611</title>
										<path d="M4.68 118.86 A3.3054 3.29768 90 0 1 0.27 118.86 L0 124.35 a0.43592 0.434903 -90
													 0 0 0.744424 0.327268 L2.44 122.95 L4.16 124.69 a0.43592 0.434903 -90 0 0 0.74965
													 -0.318105 L4.68 118.86 Z" class="st7"/>
									</g>
								</g>
							</g>
							<g id="group6612-44" transform="translate(0.608602,-4.78631)">
								<title>ellipse10</title>
								<g id="group6613-45">
									<title>Sheet.6613</title>
									<g id="shape6614-46">
										<title>Sheet.6614</title>
										<ellipse cx="3.93502" cy="120.834" rx="3.93502" ry="3.95732" class="st8"/>
									</g>
								</g>
							</g>
							<g id="group6615-48" transform="translate(1.55807,-5.74152)">
								<title>ellipse12</title>
								<g id="group6616-49">
									<title>Sheet.6616</title>
									<g id="shape6617-50">
										<title>Sheet.6617</title>
										<ellipse cx="2.98554" cy="121.789" rx="2.98554" ry="3.0017" class="st9"/>
									</g>
								</g>
							</g>
						</g>
					</g>
					<g id="group6618-52" transform="translate(15.2903,-2.84217E-13)">
						<title>Sheet.6618</title>
						<g id="group6619-53" transform="translate(24.3567,-21.0152)">
							<title>ellipse19</title>
							<g id="shape6620-54">
								<title>Sheet.6620</title>
								<ellipse cx="2.29723" cy="122.437" rx="2.29723" ry="2.35421" class="st10"/>
							</g>
						</g>
						<g id="group6621-56" transform="translate(24.3567,-13.3273)">
							<title>ellipse21</title>
							<g id="shape6622-57">
								<title>Sheet.6622</title>
								<ellipse cx="2.29723" cy="122.437" rx="2.29723" ry="2.35421" class="st10"/>
							</g>
						</g>
						<g id="group6623-59" transform="translate(24.3567,-5.65768)">
							<title>ellipse23</title>
							<g id="shape6624-60">
								<title>Sheet.6624</title>
								<ellipse cx="2.29723" cy="122.437" rx="2.29723" ry="2.35421" class="st10"/>
							</g>
						</g>
						<g id="group6625-62" transform="translate(19.1111,-17.0792)">
							<title>ellipse25</title>
							<g id="shape6626-63">
								<title>Sheet.6626</title>
								<ellipse cx="2.29723" cy="122.437" rx="2.29723" ry="2.35421" class="st11"/>
							</g>
						</g>
						<g id="group6627-65" transform="translate(19.1111,-9.39133)">
							<title>ellipse27</title>
							<g id="shape6628-66">
								<title>Sheet.6628</title>
								<ellipse cx="2.29723" cy="122.437" rx="2.29723" ry="2.35421" class="st11"/>
							</g>
						</g>
						<g id="group6629-68" transform="translate(0.00963828,-21.8782)">
							<title>path29</title>
							<g id="shape6630-69">
								<title>Sheet.6630</title>
								<path d="M2.55 124.79 a0.441414 0.434123 90 0 1 0.162796 -0.147138 L13.24 118.41 C13.38 118.41 22.28
											 123.52 22.28 123.52 a0.441414 0.434123 -90 0 0 0.651185 -0.386237 L22.94 121.13 a0.441414
											 0.434123 -90 0 0 -0.217062 -0.386237 C22.72 120.74 13.38 115.37 13.25 115.45 L0.2 123.06
											 L0 123.21 L2.55 124.79 Z" class="st10"/>
							</g>
						</g>
						<g id="group6631-71" transform="translate(13.4849,0)">
							<title>path31</title>
							<g id="shape6632-72">
								<title>Sheet.6632</title>
								<path d="M8.77 116.81 L0.2 121.83 a0.643728 0.633096 90 0 1 -0.198973 0 L0 124.78 a0.367845 0.361769
											 -90 0 0 0.198973 0 L9.24 119.52 a0.441414 0.434123 -90 0 0 0.217062 -0.367845 L9.46
											 117.2 a0.441414 0.434123 -90 0 0 -0.687361 -0.386237 L8.77 116.81 Z" class="st10"/>
							</g>
						</g>
						<g id="group6633-74" transform="translate(0,-0.000331572)">
							<title>path33</title>
							<g id="shape6634-75">
								<title>Sheet.6634</title>
								<path d="M13.49 121.89 a0.570159 0.560742 90 0 1 -0.23515 1.42109E-14 L2.72 115.58 a0.404629 0.397946
											 90 0 1 -0.217062 -0.367845 L2.5 103.13 a0.49659 0.488388 90 0 1 -4.84057E-14 -0.220706
											 L0.01 101.33 a0.514983 0.506476 -90 0 0 -2.68674E-14 0.239099 L0.01 116.78 a0.441414
											 0.434123 -90 0 0 0.198973 0.386237 L13.27 124.78 a0.441414 0.434123 -90 0 0 0.217062
											 -2.84217E-14 L13.49 121.89 Z" class="st11"/>
							</g>
						</g>
						<g id="group6635-77" transform="translate(8.50333,-10.7461)">
							<title>Application Service</title>
							<g id="group6636-78">
								<title>g22</title>
								<g id="group6637-79">
									<title>path59</title>
									<g id="group6638-80">
										<title>Sheet.6638</title>
										<g id="shape6639-81">
											<title>Sheet.6639</title>
											<ellipse cx="4.73013" cy="119.989" rx="4.73013" ry="4.80215" class="st12"/>
										</g>
									</g>
								</g>
								<g id="group6640-85" transform="translate(0.658842,-1.489)">
									<title>path4-3</title>
									<g id="group6641-86">
										<title>Sheet.6641</title>
										<g id="shape6642-87">
											<title>Sheet.6642</title>
											<path d="M0.46 122.42 C0.27 122.9 0.12 123.41 0 123.92 C0.1 124.1 0.22 124.25 0.34 124.42
														 C0.44 124.54 0.54 124.67 0.65 124.79 C0.78 124.12 0.99 123.46 1.25 122.83
														 C0.96 122.77 0.68 122.63 0.46 122.42 ZM1 119.86 C0.81 119.33 0.68 118.77
														 0.61 118.2 C0.39 118.45 0.19 118.72 0.01 119.01 C0.08 119.47 0.18 119.93
														 0.32 120.36 C0.5 120.13 0.74 119.97 1 119.86 Z" class="st13"/>
										</g>
									</g>
								</g>
								<g id="group6643-89" transform="translate(2.45367,-1.27999)">
									<title>path8-3</title>
									<g id="group6644-90">
										<title>Sheet.6644</title>
										<g id="shape6645-91">
											<title>Sheet.6645</title>
											<path d="M1.93 123.92 C1.93 123.65 2.04 123.39 2.23 123.2 C1.72 122.91 1.24 122.56 0.83
														 122.16 C0.6 122.39 0.32 122.56 0 122.61 C0.24 122.88 0.51 123.12 0.8 123.35
														 C1.15 123.61 1.54 123.85 1.94 124.05 C1.93 124 1.93 123.96 1.93 123.92 ZM5.42
														 124.04 C4.91 124.04 4.4 123.98 3.9 123.86 C3.9 123.87 3.9 123.89 3.9 123.92
														 C3.9 124.18 3.81 124.43 3.62 124.61 C4.24 124.74 4.9 124.79 5.53 124.76
														 C5.76 124.53 5.98 124.26 6.17 123.99 C5.92 124.02 5.66 124.04 5.43 124.04
														 L5.42 124.04 Z" class="st13"/>
										</g>
									</g>
								</g>
								<g id="group6646-93" transform="translate(2.70897,-4.826)">
									<title>path12-4</title>
									<g id="group6647-94">
										<title>Sheet.6647</title>
										<g id="shape6648-95">
											<title>Sheet.6648</title>
											<path d="M2.39 122.63 C3.42 122.11 4.56 121.82 5.71 121.81 C5.47 121.5 5.19 121.24 4.89
														 120.99 C3.99 121.05 3.09 121.27 2.26 121.62 C2.08 121.71 1.9 121.8 1.73
														 121.89 C1.31 121.38 0.91 120.82 0.6 120.24 C0.4 120.3 0.22 120.37 0.03 120.47
														 C0.34 121.09 0.73 121.69 1.17 122.23 C0.75 122.51 0.35 122.84 0 123.22 C0.31
														 123.33 0.57 123.55 0.75 123.84 C1.07 123.51 1.43 123.22 1.81 122.97 C2.44
														 123.63 3.14 124.24 3.87 124.79 C3.92 124.57 4.04 124.38 4.21 124.24 C3.56
														 123.75 2.96 123.22 2.39 122.63 Z" class="st13"/>
										</g>
									</g>
								</g>
								<g id="group6649-97" transform="translate(6.56716,-3.5721)">
									<title>circle14-8</title>
									<g id="group6650-98">
										<title>Sheet.6650</title>
										<g id="shape6651-99">
											<title>Sheet.6651</title>
											<ellipse cx="1.04613" cy="123.729" rx="1.04613" ry="1.06206" class="st14"/>
										</g>
									</g>
								</g>
								<g id="group6652-101" transform="translate(0.656642,-3.42508)">
									<title>circle18-3</title>
									<g id="group6653-102">
										<title>Sheet.6653</title>
										<g id="shape6654-103">
											<title>Sheet.6654</title>
											<ellipse cx="1.51619" cy="123.252" rx="1.51619" ry="1.53928" class="st14"/>
										</g>
									</g>
								</g>
								<g id="group6655-105" transform="translate(4.38331,-1.1538)">
									<title>circle20-2</title>
									<g id="group6656-106">
										<title>Sheet.6656</title>
										<g id="shape6657-107">
											<title>Sheet.6657</title>
											<ellipse cx="0.985082" cy="123.791" rx="0.985082" ry="1.00008" class="st14"/>
										</g>
									</g>
								</g>
							</g>
						</g>
					</g>
				</g>
			</g>
		</g>
	</g>
</svg>
