<?xml version="1.0" encoding="UTF-8" standalone="no"?>
<!DOCTYPE svg PUBLIC "-//W3C//DTD SVG 1.1//EN" "http://www.w3.org/Graphics/SVG/1.1/DTD/svg11.dtd">
<!-- Generated by Microsoft Visio, SVG Export Certificate.svg Page-1 -->
<svg xmlns="http://www.w3.org/2000/svg" xmlns:xlink="http://www.w3.org/1999/xlink" xmlns:ev="http://www.w3.org/2001/xml-events"
		width="0.897638in" height="1.33858in" viewBox="0 0 64.6299 96.378" xml:space="preserve" color-interpolation-filters="sRGB"
		class="st3">
	<style type="text/css">
	<![CDATA[
		.st1 {fill:#0072c6;stroke:none;stroke-linecap:butt;stroke-width:5.32174}
		.st2 {fill:#a0a1a2;stroke:none;stroke-linecap:butt;stroke-width:5.32174}
		.st3 {fill:none;fill-rule:evenodd;font-size:12px;overflow:visible;stroke-linecap:square;stroke-miterlimit:3}
	]]>
	</style>

	<g>
		<title>Page-1</title>
		<g id="group5498-1" transform="translate(5.38583,-34.0157)">
			<title>Certificate</title>
			<g id="group5499-2">
				<title>Sheet.5499</title>
				<g id="group5500-3" transform="translate(9.37312,-9.45699)">
					<title>Sheet.5500</title>
					<g id="shape5501-4" transform="translate(10.0178,-3.91999)">
						<title>Sheet.5501</title>
						<path d="M34.32 96.38 L4.07 96.38 C4.07 94.07 4.02 91.77 4.12 89.52 C4.12 89.22 4.51 88.83 4.81 88.64 C8.98
									 85.79 10.76 81.92 9.62 77.02 C8.48 72.22 5.11 69.57 0.25 68.74 C0.2 68.74 0.15 68.69 0 68.64
									 L0 53.16 C0.69 53.11 1.24 53.06 1.83 53.06 C9.57 53.06 17.36 53.06 25.09 53.11 C25.89 53.11
									 26.93 53.55 27.47 54.09 C29.61 56.2 31.59 58.35 33.57 60.61 C34.02 61.1 34.42 61.78 34.42 62.42
									 C34.47 73.49 34.47 84.62 34.47 95.69 C34.47 95.89 34.42 96.08 34.32 96.38 Z" class="st1"/>
					</g>
					<g id="shape5502-6">
						<title>Sheet.5502</title>
						<path d="M9.17 84.52 C3.97 84.52 0 80.65 0 75.55 C0 70.51 4.07 66.49 9.17 66.49 C14.23 66.49 18.4 70.55 18.4
									 75.55 C18.35 80.6 14.33 84.52 9.17 84.52 ZM15.18 75.6 C15.18 72.32 12.5 69.62 9.17 69.62 C5.85
									 69.62 3.17 72.27 3.12 75.6 C3.12 78.88 5.8 81.58 9.13 81.63 C12.45 81.58 15.18 78.88 15.18 75.6
									 ZM5.95 96.38 L5.95 86.19 L12.3 86.19 L12.3 96.33 C11.56 95.35 10.91 94.71 10.46 93.98 C9.62
									 92.7 8.88 92.56 7.98 93.93 C7.44 94.61 6.79 95.35 5.95 96.38 Z" class="st1"/>
					</g>
					<g id="shape5503-8" transform="translate(4.71136,-16.415)">
						<title>Sheet.5503</title>
						<path d="M4.36 96.33 C6.79 96.38 8.73 94.47 8.78 92.11 C8.83 89.66 6.84 87.66 4.36 87.66 C1.98 87.66 0 89.66
									 0 92.02 C0.05 94.37 1.98 96.28 4.36 96.33 Z" class="st1"/>
					</g>
					<g id="shape5504-10" transform="translate(4.71136,-16.415)">
						<title>Sheet.5504</title>
						<path d="M4.36 96.33 C1.98 96.28 0 94.37 0 91.97 C0 89.62 1.98 87.66 4.36 87.61 C6.79 87.61 8.83 89.62 8.78
									 92.07 C8.78 94.52 6.79 96.38 4.36 96.33 Z" class="st1"/>
					</g>
				</g>
				<g id="shape5505-12">
					<title>Sheet.5505</title>
					<path d="M10.27 83.15 C5.8 75.8 8.68 68.59 13.44 65.21 C18.7 61.44 25.89 61.98 30.5 66.54 C35.16 71.14 35.66
								 78.39 31.69 83.64 C28.32 88.05 21.08 91.04 13.84 86.68 C13.04 87.41 12.2 88.15 11.41 88.93 L5.31
								 95.25 C4.22 96.38 3.67 96.38 2.58 95.35 C0 92.95 0 92.85 2.58 90.45 L10.27 83.15 ZM21.18 85.55 C26.68
								 85.55 31.05 81.24 31.05 75.8 C31.05 70.36 26.68 66 21.18 66 C15.62 66 11.21 70.36 11.26 75.85 C11.31
								 81.24 15.67 85.55 21.18 85.55 Z" class="st2"/>
				</g>
			</g>
		</g>
	</g>
</svg>
