<?xml version="1.0" encoding="UTF-8" standalone="no"?>
<!-- Generated by Microsoft Visio, SVG Export Certificate Configuration.svg Page-1 -->
<svg xmlns:dc="http://purl.org/dc/elements/1.1/" xmlns:cc="http://creativecommons.org/ns#" xmlns:rdf="http://www.w3.org/1999/02/22-rdf-syntax-ns#" xmlns:svg="http://www.w3.org/2000/svg" xmlns="http://www.w3.org/2000/svg" xmlns:sodipodi="http://sodipodi.sourceforge.net/DTD/sodipodi-0.dtd" xmlns:inkscape="http://www.inkscape.org/namespaces/inkscape" width="56.689597" height="56.69" viewBox="0 0 56.689597 56.69" xml:space="preserve" class="st3" version="1.1" id="svg34" sodipodi:docname="Certificate Configuration.svg" style="font-size:12px;overflow:visible;color-interpolation-filters:sRGB;fill:none;fill-rule:evenodd;stroke-linecap:square;stroke-miterlimit:3" inkscape:version="0.92.5 (2060ec1f9f, 2020-04-08)">
  <metadata id="metadata38">
    <rdf:RDF>
      <cc:Work rdf:about="">
        <dc:format>image/svg+xml</dc:format>
        <dc:type rdf:resource="http://purl.org/dc/dcmitype/StillImage" />
      </cc:Work>
    </rdf:RDF>
  </metadata>
  <sodipodi:namedview pagecolor="#ffffff" bordercolor="#666666" borderopacity="1" objecttolerance="10" gridtolerance="10" guidetolerance="10" inkscape:pageopacity="0" inkscape:pageshadow="2" inkscape:window-width="640" inkscape:window-height="480" id="namedview36" showgrid="false" inkscape:zoom="1.4193119" inkscape:cx="37.795128" inkscape:cy="37.786193" inkscape:window-x="0" inkscape:window-y="0" inkscape:window-maximized="0" inkscape:current-layer="svg34" />
	<style type="text/css" id="style2">
	<![CDATA[
		.st1 {fill:url(#grad0-6);stroke:none;stroke-linecap:butt;stroke-width:34}
		.st2 {fill:#ffffff;stroke:none;stroke-linecap:butt;stroke-width:34}
		.st3 {fill:none;fill-rule:evenodd;font-size:12px;overflow:visible;stroke-linecap:square;stroke-miterlimit:3}
	]]>
	</style>

	<defs id="Patterns_And_Gradients">
		<linearGradient id="grad0-6" x1="0" y1="68.02" x2="56.69" y2="68.02" gradientUnits="userSpaceOnUse">
			<stop offset="0" stop-color="#32bedd" stop-opacity="1" id="stop4" />
			<stop offset="0.225" stop-color="#32c9e9" stop-opacity="1" id="stop6" />
			<stop offset="0.545" stop-color="#32d1f2" stop-opacity="1" id="stop8" />
			<stop offset="1" stop-color="#32d4f5" stop-opacity="1" id="stop10" />
		</linearGradient>
	</defs>
	<g id="g32" transform="translate(-34.000441,-34.0043)">
		<title id="title14">Page-1</title>
		<g id="group7304-1" transform="translate(34,-34.0157)">
			<title id="title16">Certificate Configuration</title>
			<g id="group7305-2">
				<title id="title18"> MsPortalFx.base.images-76</title>
				<g id="shape7306-3">
					<title id="title20">Sheet.7306</title>
					<path d="m 56.69,99.55 v -6.37 l -1,-0.34 -7,-2.35 -1.67,-4.36 3.67,-7.38 -4.67,-4.7 -1,0.34 -6.34,3.35 -4.33,-1.67 -3,-8.05 h -6.34 l -0.33,1 -2.34,6.71 -4.33,2.01 L 10.67,74.05 6,78.75 6.34,79.76 9.67,86.13 8,90.49 0,93.51 v 6.37 l 1,0.34 7,2.35 1.67,4.36 -3.67,7.38 4.67,4.7 1,-0.34 6.34,-3.35 4.33,1.67 3.01,7.72 h 6.33 l 0.33,-1.01 2.34,-7.04 4.33,-1.68 7.34,3.69 4.67,-4.7 -0.33,-0.67 -3.34,-6.37 1.67,-4.36 z" class="st1" id="path22" inkscape:connector-curvature="0" style="fill:url(#grad0-6);stroke:none;stroke-width:34;stroke-linecap:butt" />
				</g>
				<g id="shape7307-7" transform="translate(13.673,-13.083)">
					<title id="title25">Sheet.7307</title>
					<path d="m 25.68,101.23 -2.67,2.34 c 3.67,4.03 3.34,10.4 -1,14.09 -4.34,3.69 -10.34,3.36 -14.01,-1 -3.33,-3.69 -3.33,-9.4 0,-13.09 h 0.34 l 2,1.68 h 0.33 v -0.33 L 10,98.21 C 10,97.87 9.67,97.87 9.34,97.87 L 3,98.88 c 0,0 -0.33,0 -0.33,0.33 l 2,1.68 v 0.34 c -4.67,5.7 -4,14.09 1.67,18.78 5.67,4.7 14,4.03 18.67,-1.68 5,-5.03 5,-12.41 0.67,-17.1 z" class="st2" id="path27" inkscape:connector-curvature="0" style="fill:#ffffff;stroke:none;stroke-width:34;stroke-linecap:butt" />
				</g>
			</g>
		</g>
	</g>
</svg>