<?xml version="1.0" encoding="UTF-8" standalone="no"?>
<!-- Generated by Microsoft Visio, SVG Export Certification Authority Online Responder.svg Page-1 -->

<svg
   xmlns:dc="http://purl.org/dc/elements/1.1/"
   xmlns:cc="http://creativecommons.org/ns#"
   xmlns:rdf="http://www.w3.org/1999/02/22-rdf-syntax-ns#"
   xmlns:svg="http://www.w3.org/2000/svg"
   xmlns="http://www.w3.org/2000/svg"
   xmlns:xlink="http://www.w3.org/1999/xlink"
   xmlns:sodipodi="http://sodipodi.sourceforge.net/DTD/sodipodi-0.dtd"
   xmlns:inkscape="http://www.inkscape.org/namespaces/inkscape"
   width="45.352264"
   height="56.688469"
   viewBox="0 0 45.352263 56.68847"
   xml:space="preserve"
   class="st13"
   version="1.1"
   id="svg224"
   sodipodi:docname="Certification Authority Online Responder.svg"
   style="font-size:12px;overflow:visible;color-interpolation-filters:sRGB;fill:none;fill-rule:evenodd;stroke-linecap:square;stroke-miterlimit:3"
   inkscape:version="0.92.5 (2060ec1f9f, 2020-04-08)"><metadata
   id="metadata228"><rdf:RDF><cc:Work
       rdf:about=""><dc:format>image/svg+xml</dc:format><dc:type
         rdf:resource="http://purl.org/dc/dcmitype/StillImage" /></cc:Work></rdf:RDF></metadata><sodipodi:namedview
   pagecolor="#ffffff"
   bordercolor="#666666"
   borderopacity="1"
   objecttolerance="10"
   gridtolerance="10"
   guidetolerance="10"
   inkscape:pageopacity="0"
   inkscape:pageshadow="2"
   inkscape:window-width="640"
   inkscape:window-height="480"
   id="namedview226"
   showgrid="false"
   inkscape:zoom="1.8890125"
   inkscape:cx="21.697266"
   inkscape:cy="28.447801"
   inkscape:window-x="0"
   inkscape:window-y="0"
   inkscape:window-maximized="0"
   inkscape:current-layer="svg224" />
	<style
   type="text/css"
   id="style2">
	<![CDATA[
		.st1 {fill:url(#grad0-12);stroke:none;stroke-linecap:butt;stroke-width:35.9597}
		.st2 {fill:#003067;stroke:none;stroke-linecap:butt;stroke-width:35.9597}
		.st3 {fill:#50e6ff;stroke:none;stroke-linecap:butt;stroke-width:35.9597}
		.st4 {fill:url(#grad0-32);stroke:none;stroke-linecap:butt;stroke-width:33.9998}
		.st5 {fill:#ffffff;stroke:none;stroke-linecap:butt;stroke-width:33.9998}
		.st6 {fill:#d15900;stroke:none;stroke-linecap:butt;stroke-width:33.9998}
		.st7 {fill:#b31b1b;stroke:none;stroke-linecap:butt;stroke-width:33.9998}
		.st8 {fill:#e62323;stroke:none;stroke-linecap:butt;stroke-width:33.9998}
		.st9 {fill:#ffb34d;stroke:none;stroke-linecap:butt;stroke-width:33.9998}
		.st10 {fill:url(#grad0-59);stroke:none;stroke-linecap:butt;stroke-width:34}
		.st11 {fill:#ffffff;stroke:none;stroke-linecap:round;stroke-linejoin:round;stroke-width:0.749999}
		.st12 {fill:url(#grad0-68);stroke:none;stroke-linecap:butt;stroke-width:34}
		.st13 {fill:none;fill-rule:evenodd;font-size:12px;overflow:visible;stroke-linecap:square;stroke-miterlimit:3}
	]]>
	</style>

	<defs
   id="Patterns_And_Gradients">
		<linearGradient
   id="grad0-12"
   x1="-8.5428113e-05"
   y1="54.613117"
   x2="39.820468"
   y2="54.613117"
   gradientTransform="scale(0.75589267,1.3229391)"
   gradientUnits="userSpaceOnUse">
			<stop
   offset="0"
   stop-color="#949494"
   stop-opacity="1"
   id="stop4" />
			<stop
   offset="0.53"
   stop-color="#a2a2a2"
   stop-opacity="1"
   id="stop6" />
			<stop
   offset="1"
   stop-color="#b3b3b3"
   stop-opacity="1"
   id="stop8" />
		</linearGradient>
		<linearGradient
   id="grad0-32"
   x1="0"
   y1="128.81959"
   x2="19.704262"
   y2="128.81959"
   gradientTransform="scale(1.1888113,0.8411764)"
   gradientUnits="userSpaceOnUse">
			<stop
   offset="0"
   stop-color="#e27908"
   stop-opacity="1"
   id="stop11" />
			<stop
   offset="0.325"
   stop-color="#e47d0a"
   stop-opacity="1"
   id="stop13" />
			<stop
   offset="0.62"
   stop-color="#eb8810"
   stop-opacity="1"
   id="stop15" />
			<stop
   offset="0.91"
   stop-color="#f69a19"
   stop-opacity="1"
   id="stop17" />
			<stop
   offset="1"
   stop-color="#faa21d"
   stop-opacity="1"
   id="stop19" />
		</linearGradient>
		<linearGradient
   id="grad0-59"
   x1="0"
   y1="92.886252"
   x2="30.602941"
   y2="92.886252"
   gradientTransform="scale(0.98846709,1.0116675)"
   gradientUnits="userSpaceOnUse">
			<stop
   offset="0"
   stop-color="#0879e2"
   stop-opacity="1"
   id="stop22" />
			<stop
   offset="0.325"
   stop-color="#0a7de4"
   stop-opacity="1"
   id="stop24" />
			<stop
   offset="0.62"
   stop-color="#1088eb"
   stop-opacity="1"
   id="stop26" />
			<stop
   offset="0.91"
   stop-color="#199af6"
   stop-opacity="1"
   id="stop28" />
			<stop
   offset="1"
   stop-color="#1da2fa"
   stop-opacity="1"
   id="stop30" />
		</linearGradient>
		<linearGradient
   id="grad0-68"
   x1="0"
   y1="0"
   x2="1"
   y2="0">
			<stop
   offset="0"
   stop-color="#5e9624"
   stop-opacity="1"
   id="stop33" />
			<stop
   offset="0.18"
   stop-color="#629c25"
   stop-opacity="1"
   id="stop35" />
			<stop
   offset="0.44"
   stop-color="#6dae2a"
   stop-opacity="1"
   id="stop37" />
			<stop
   offset="0.73"
   stop-color="#7fcb30"
   stop-opacity="1"
   id="stop39" />
			<stop
   offset="0.82"
   stop-color="#86d633"
   stop-opacity="1"
   id="stop41" />
		</linearGradient>
	<linearGradient
   inkscape:collect="always"
   xlink:href="#grad0-68"
   id="linearGradient4738"
   x1="-3.3006011e-08"
   y1="185.70393"
   x2="7.1953224"
   y2="185.70393"
   gradientTransform="scale(1.5440587,0.64764378)"
   gradientUnits="userSpaceOnUse" /><linearGradient
   inkscape:collect="always"
   xlink:href="#grad0-68"
   id="linearGradient4740"
   x1="-2.3972917e-08"
   y1="255.67794"
   x2="9.9065495"
   y2="255.67794"
   gradientTransform="scale(2.1258663,0.47039646)"
   gradientUnits="userSpaceOnUse" /></defs>
	<g
   id="g222"
   transform="translate(-35.959735,-34.22583)">
		<title
   id="title45">Page-1</title>
		<g
   id="group7412-1"
   transform="translate(35.9598,-34.0157)">
			<title
   id="title47">Certification Authority Online Responder</title>
			<g
   id="group7413-2">
				<title
   id="title49">Page-1</title>
				<g
   id="group7414-3">
					<title
   id="title51">Sheet.7414</title>
					<g
   id="group7415-4"
   transform="translate(0,-2.26999)">
						<title
   id="title53">Sheet.7415</title>
						<g
   id="group7416-5">
							<title
   id="title55">Sheet.7416</title>
							<g
   id="group7417-6">
								<title
   id="title57">Icon-databases-136.149</title>
								<g
   id="group7418-7">
									<title
   id="title59">path4-5</title>
									<g
   id="group7419-8">
										<title
   id="title61">Sheet.7419</title>
										<g
   id="shape7420-9">
											<title
   id="title63">Sheet.7420</title>
											<path
   d="m 30.1,123.14 a 1.8279,1.77758 90 0 1 -1.75,1.79 H 1.74 A 1.79637,1.74694 90 0 1 0,123.14 V 74.03 a 1.76486,1.71629 90 0 1 1.74,-1.78 h 26.61 a 1.79637,1.74694 90 0 1 1.75,1.78 z"
   class="st1"
   id="path65"
   inkscape:connector-curvature="0"
   style="fill:url(#grad0-12);stroke:none;stroke-width:35.95970154;stroke-linecap:butt" />
										</g>
									</g>
								</g>
								<g
   id="group7421-13"
   transform="translate(4.41332,-30.8535)">
									<title
   id="title70">path6-7</title>
									<g
   id="group7422-14">
										<title
   id="title72">Sheet.7422</title>
										<g
   id="shape7423-15">
											<title
   id="title74">Sheet.7423</title>
											<path
   d="m 0,121.57 a 3.37215,3.27934 90 0 1 3.25,-3.35 h 15.01 a 3.37215,3.27934 90 0 1 3.37,3.35 3.37215,3.27934 90 0 1 -3.37,3.36 H 3.25 A 3.37215,3.27934 90 0 1 0,121.57 Z m 0,-9.96 a 3.37215,3.27934 90 0 1 3.25,-3.38 h 15.01 a 3.37215,3.27934 90 0 1 3.37,3.38 3.37215,3.27934 90 0 1 -3.37,3.34 H 3.25 A 3.37215,3.27934 90 0 1 0,111.61 Z"
   class="st2"
   id="path76"
   inkscape:connector-curvature="0"
   style="fill:#003067;stroke:none;stroke-width:35.95970154;stroke-linecap:butt" />
										</g>
									</g>
								</g>
								<g
   id="group7424-17"
   transform="translate(5.63923,-41.9139)">
									<title
   id="title81">circle8-5</title>
									<g
   id="group7425-18">
										<title
   id="title83">Sheet.7425</title>
										<g
   id="shape7426-19">
											<title
   id="title85">Sheet.7426</title>
											<ellipse
   cx="2.20665"
   cy="122.664"
   rx="2.20665"
   ry="2.26911"
   class="st3"
   id="ellipse87"
   style="fill:#50e6ff;stroke:none;stroke-width:35.95970154;stroke-linecap:butt" />
										</g>
									</g>
								</g>
								<g
   id="group7427-21"
   transform="translate(5.63923,-31.9551)">
									<title
   id="title92">circle10-2</title>
									<g
   id="group7428-22">
										<title
   id="title94">Sheet.7428</title>
										<g
   id="shape7429-23">
											<title
   id="title96">Sheet.7429</title>
											<ellipse
   cx="2.20665"
   cy="122.664"
   rx="2.20665"
   ry="2.26911"
   class="st3"
   id="ellipse98"
   style="fill:#50e6ff;stroke:none;stroke-width:35.95970154;stroke-linecap:butt" />
										</g>
									</g>
								</g>
							</g>
						</g>
						<g
   id="group7430-25"
   transform="translate(21.9262,-33.0215)">
							<title
   id="title105">Management Certificate.1159</title>
							<g
   id="group7431-26">
								<title
   id="title107">g14</title>
								<g
   id="group7432-27"
   transform="translate(0,-4.82698)">
									<title
   id="title109">rect2</title>
									<g
   id="group7433-28">
										<title
   id="title111">Sheet.7433</title>
										<g
   id="shape7434-29">
											<title
   id="title113">Sheet.7434</title>
											<path
   d="m 0,124.16 a 0.78077,0.779871 0 0 0 0.777516,0.77476 L 22.64,124.93 a 0.78077,0.779871 0 0 0 0.784649,-0.77476 L 23.42,109.14 a 0.78077,0.779871 0 0 0 -0.784649,-0.77476 L 0.78,108.36 a 0.78077,0.779871 0 0 0 -0.777516,0.77476 z"
   class="st4"
   id="path115"
   inkscape:connector-curvature="0"
   style="fill:url(#grad0-32);stroke:none;stroke-width:33.99980164;stroke-linecap:butt" />
										</g>
									</g>
								</g>
								<g
   id="group7435-33"
   transform="translate(1.36631,-6.28682)">
									<title
   id="title120">rect4</title>
									<g
   id="group7436-34">
										<title
   id="title122">Sheet.7436</title>
										<g
   id="shape7437-35">
											<title
   id="title124">Sheet.7437</title>
											<path
   d="m 0,124.54 a 0.390383,0.389936 0 0 0 0.390374,0.38993 L 20.3,124.92 a 0.390383,0.389936 0 0 0 0.390374,-0.38993 L 20.7,111.67 a 0.390383,0.389936 0 0 0 -0.390374,-0.38993 L 0.39,111.28 a 0.390383,0.389936 0 0 0 -0.390374,0.38993 z"
   class="st5"
   id="path126"
   inkscape:connector-curvature="0"
   style="fill:#ffffff;stroke:none;stroke-width:33.99980164;stroke-linecap:butt" />
										</g>
									</g>
								</g>
								<g
   id="group7438-37"
   transform="translate(4.50493,-9.8743)">
									<title
   id="title131">path6</title>
									<g
   id="group7439-38">
										<title
   id="title133">Sheet.7439</title>
										<g
   id="shape7440-39">
											<title
   id="title135">Sheet.7440</title>
											<path
   d="m 14.94,124.55 a 0.377362,0.37693 0 0 1 -0.377362,0.37693 L 6.12,124.93 a 0.377362,0.37693 0 1 1 0,-0.75256 l 8.45,0.0126 a 0.37606,0.37563 0 0 1 0.377362,0.37563 z m 0,-2.32 a 0.37606,0.37563 0 0 1 -0.377362,0.37563 L 6.12,122.6 a 0.377362,0.37693 0 1 1 0,-0.75256 l 8.45,0.003 a 0.377362,0.37693 0 0 1 0.377362,0.37693 z m 0,-3.4 a 0.377362,0.37693 0 0 1 -0.377362,0.37693 L 0.4,119.21 a 0.377362,0.37693 0 1 1 0,-0.75256 l 14.17,-0.007 a 0.37606,0.37563 0 0 1 0.377362,0.37563 z"
   class="st6"
   id="path137"
   inkscape:connector-curvature="0"
   style="fill:#d15900;stroke:none;stroke-width:33.99980164;stroke-linecap:butt" />
										</g>
									</g>
								</g>
								<g
   id="group7441-41"
   transform="translate(2.01303)">
									<title
   id="title142">path8</title>
									<g
   id="group7442-42">
										<title
   id="title144">Sheet.7442</title>
										<g
   id="shape7443-43">
											<title
   id="title146">Sheet.7443</title>
											<path
   d="m 4.67,119.04 a 3.28565,3.28189 0 0 1 -4.4,0 L 0,124.5 a 0.433316,0.432819 0 0 0 0.741708,0.32494 L 2.43,123.1 l 1.71,1.73 a 0.433316,0.432819 0 0 0 0.746916,-0.31584 z"
   class="st7"
   id="path148"
   inkscape:connector-curvature="0"
   style="fill:#b31b1b;stroke:none;stroke-width:33.99980164;stroke-linecap:butt" />
										</g>
									</g>
								</g>
								<g
   id="group7444-45"
   transform="translate(0.606382,-4.74942)">
									<title
   id="title153">ellipse10</title>
									<g
   id="group7445-46">
										<title
   id="title155">Sheet.7445</title>
										<g
   id="shape7446-47">
											<title
   id="title157">Sheet.7446</title>
											<ellipse
   cx="3.92066"
   cy="121.004"
   rx="3.92066"
   ry="3.9291699"
   class="st8"
   id="ellipse159"
   style="fill:#e62323;stroke:none;stroke-width:33.99980164;stroke-linecap:butt" />
										</g>
									</g>
								</g>
								<g
   id="group7447-49"
   transform="translate(1.55239,-5.69864)">
									<title
   id="title164">ellipse12</title>
									<g
   id="group7448-50">
										<title
   id="title166">Sheet.7448</title>
										<g
   id="shape7449-51">
											<title
   id="title168">Sheet.7449</title>
											<ellipse
   cx="2.9746499"
   cy="121.952"
   rx="2.9746499"
   ry="2.98034"
   class="st9"
   id="ellipse170"
   style="fill:#ffb34d;stroke:none;stroke-width:33.99980164;stroke-linecap:butt" />
										</g>
									</g>
								</g>
							</g>
						</g>
					</g>
					<g
   id="group7450-53"
   transform="translate(15.1022)">
						<title
   id="title178">Sheet.7450</title>
						<g
   id="group7451-54">
							<title
   id="title180">g8</title>
							<g
   id="group7452-55">
								<title
   id="title182">path6</title>
								<g
   id="shape7453-56">
									<title
   id="title184">Sheet.7453</title>
									<path
   d="M 15.12,93.97 C 6.71,93.97 0,101.04 0,109.46 c 0,8.6 6.89,15.47 15.12,15.47 8.23,0 15.13,-7.05 15.13,-15.47 0,-8.42 -6.72,-15.49 -15.13,-15.49 z m 0,2.05 c 7.27,0 13.13,6 13.13,13.44 0,7.42 -5.93,13.43 -13.13,13.43 C 7.93,122.89 2,116.82 2,109.46 2,102.09 7.87,96.02 15.12,96.02 Z"
   class="st10"
   id="path186"
   inkscape:connector-curvature="0"
   style="fill:url(#grad0-59);stroke:none;stroke-width:34;stroke-linecap:butt" />
								</g>
							</g>
						</g>
						<g
   id="group7454-60"
   transform="translate(1.30072,-1.33172)">
							<title
   id="title191">Sheet.7454</title>
							<g
   id="shape7455-61">
								<title
   id="title193">Sheet.7455</title>
								<ellipse
   cx="13.824"
   cy="110.786"
   rx="13.824"
   ry="14.1465"
   class="st11"
   id="ellipse195"
   style="fill:#ffffff;stroke:none;stroke-width:0.74999899;stroke-linecap:round;stroke-linejoin:round" />
							</g>
						</g>
						<g
   id="group7456-63"
   transform="rotate(-45,-1.9155102,107.86583)">
							<title
   id="title199">Sheet.7456</title>
							<g
   id="group7457-64"
   transform="rotate(-90,2.238,122.565)">
								<title
   id="title201">Rounded process.1213</title>
								<g
   id="shape7458-65">
									<title
   id="title203">Sheet.7458</title>
									<path
   d="m 0,122.6 a 2.27639,2.32951 -180 0 0 2.28,2.33 h 6.55 a 2.27639,2.32951 -180 0 0 2.28,-2.33 v 0 A 2.27639,2.32951 -180 0 0 8.83,120.27 H 2.28 A 2.27639,2.32951 -180 0 0 0,122.6 Z"
   class="st12"
   id="path205"
   inkscape:connector-curvature="0"
   style="fill:url(#linearGradient4738);stroke:none;stroke-width:34;stroke-linecap:butt" />
								</g>
							</g>
							<g
   id="group7459-69"
   transform="translate(0,-1.20821e-4)">
								<title
   id="title209">Rounded process</title>
								<g
   id="shape7460-70">
									<title
   id="title211">Sheet.7460</title>
									<path
   d="m 0,122.6 a 2.27639,2.32951 -180 0 0 2.28,2.33 h 16.5 a 2.27639,2.32951 -180 0 0 2.28,-2.33 v 0 a 2.27639,2.32951 -180 0 0 -2.28,-2.33 H 2.28 A 2.27639,2.32951 -180 0 0 0,122.6 Z"
   class="st12"
   id="path213"
   inkscape:connector-curvature="0"
   style="fill:url(#linearGradient4740);stroke:none;stroke-width:34;stroke-linecap:butt" />
								</g>
							</g>
						</g>
					</g>
				</g>
			</g>
		</g>
	</g>
</svg>