<?xml version="1.0" encoding="UTF-8" standalone="no"?>
<!DOCTYPE svg PUBLIC "-//W3C//DTD SVG 1.1//EN" "http://www.w3.org/Graphics/SVG/1.1/DTD/svg11.dtd">
<!-- Generated by Microsoft Visio, SVG Export Cloud Simple Node.svg Page-1 -->
<svg xmlns="http://www.w3.org/2000/svg" xmlns:xlink="http://www.w3.org/1999/xlink" xmlns:ev="http://www.w3.org/2001/xml-events"
		width="1.5748in" height="1.85039in" viewBox="0 0 113.386 133.228" xml:space="preserve" color-interpolation-filters="sRGB"
		class="st11">
	<style type="text/css">
	<![CDATA[
		.st1 {fill:#81ba33}
		.st2 {stroke:#81ba33;stroke-linecap:butt;stroke-width:2.88424}
		.st3 {stroke:#81ba33;stroke-linecap:round;stroke-linejoin:round;stroke-width:2.88424}
		.st4 {fill:#ffffff;stroke:#81ba33;stroke-linecap:butt;stroke-width:1.92283}
		.st5 {fill:#eaeaea;stroke:#486385;stroke-linecap:butt;stroke-width:1.92283}
		.st6 {fill:none;stroke:#486385;stroke-linecap:butt;stroke-width:0.961415}
		.st7 {fill:#486385;stroke:none;stroke-linecap:butt;stroke-width:0.961415}
		.st8 {fill:#ffffff;fill-opacity:0.2;stroke:none;stroke-linecap:butt;stroke-width:0.961415}
		.st9 {fill:#f7f7f7;stroke:#81ba33;stroke-linecap:butt;stroke-width:1.34598}
		.st10 {fill:#81ba33;stroke:none;stroke-linecap:butt;stroke-width:0.961415}
		.st11 {fill:none;fill-rule:evenodd;font-size:12px;overflow:visible;stroke-linecap:square;stroke-miterlimit:3}
	]]>
	</style>

	<g>
		<title>Page-1</title>
		<g id="group3840-1" transform="translate(28.3465,-70.8661)">
			<title>Cloud Simple Node</title>
			<g id="group3841-2">
				<title>g59</title>
				<g id="group3842-3" transform="translate(11.809,0)">
					<title>g11</title>
					<g id="shape3843-4" transform="translate(21.1588,-4.76921)">
						<title>path5</title>
						<path d="M0 133.23 L0 127.33 L0 133.23 Z" class="st1"/>
						<path d="M0 133.23 L0 127.33" class="st2"/>
					</g>
					<g id="shape3844-7" transform="translate(0,-2.42882)">
						<title>path7</title>
						<path d="M41.08 133.23 L26.29 133.23 L41.08 133.23 ZM14.79 133.23 L0 133.23 L14.79 133.23 Z" class="st1"/>
						<path d="M41.08 133.23 L26.29 133.23M14.79 133.23 L0 133.23" class="st3"/>
					</g>
					<g id="shape3845-10" transform="translate(16.0095,0)">
						<title>path9</title>
						<rect x="0" y="128.667" width="10.2975" height="4.5617" class="st4"/>
					</g>
				</g>
				<g id="shape3846-12" transform="translate(9.26474,-11.0747)">
					<title>path13</title>
					<path d="M45.6 121.44 L1.83 121.44 C0.8 121.44 0 122.08 0 122.9 L0 131.77 C0 132.59 0.8 133.23 1.82 133.23 L45.6
								 133.23 C46.63 133.23 47.43 132.59 47.43 131.77 L47.43 122.9 C47.43 122.08 46.63 121.44 45.6 121.44
								 Z" class="st5"/>
				</g>
				<g id="shape3847-14" transform="translate(13.4275,-15.4124)">
					<title>path15</title>
					<path d="M1.71 133.23 C0.8 133.23 0 132.5 0 131.67 C0 130.84 0.8 130.11 1.71 130.11 C2.62 130.11 3.42 130.84
								 3.42 131.67 C3.42 132.5 2.62 133.23 1.71 133.23 L1.71 133.23 Z" class="st6"/>
				</g>
				<g id="group3848-16" transform="translate(43.2727,-13.9999)">
					<title>g23</title>
					<g id="shape3849-17">
						<title>rect17</title>
						<path d="M0 132.52 a0.729046 0.70744 -180 0 0 0.729029 0.707423 L8.02 133.23 a0.729046 0.70744 -180 0 0 0.729029
									 -0.707423 a0.729046 0.70744 -180 0 0 -0.729029 -0.707423 L0.73 131.81 a0.729046 0.70744 -180
									 0 0 -0.729029 0.707423 Z" class="st7"/>
					</g>
					<g id="shape3850-19" transform="translate(0,-2.4017)">
						<title>rect19</title>
						<path d="M0 132.52 a0.729046 0.70744 -180 0 0 0.729029 0.707423 L8.02 133.23 a0.729046 0.70744 -180 0 0 0.729029
									 -0.707423 a0.729046 0.70744 -180 0 0 -0.729029 -0.707423 L0.73 131.81 a0.729046 0.70744 -180
									 0 0 -0.729029 0.707423 Z" class="st7"/>
					</g>
					<g id="shape3851-21" transform="translate(0,-4.75978)">
						<title>rect21</title>
						<path d="M0 132.52 a0.729046 0.70744 -180 0 0 0.729029 0.707423 L8.02 133.23 a0.729046 0.70744 -180 0 0 0.729029
									 -0.707423 a0.729046 0.70744 -180 0 0 -0.729029 -0.707423 L0.73 131.81 a0.729046 0.70744 -180
									 0 0 -0.729029 0.707423 Z" class="st7"/>
					</g>
				</g>
				<g id="shape3852-23" transform="translate(9.26474,-25.9624)">
					<title>path25</title>
					<path d="M45.6 121.44 L1.83 121.44 C0.8 121.44 0 122.08 0 122.9 L0 131.77 C0 132.59 0.8 133.23 1.82 133.23 L45.6
								 133.23 C46.63 133.23 47.43 132.59 47.43 131.77 L47.43 122.9 C47.43 122.08 46.63 121.44 45.6 121.44
								 Z" class="st5"/>
				</g>
				<g id="shape3853-25" transform="translate(13.4275,-30.3001)">
					<title>path27</title>
					<path d="M1.71 133.23 C0.8 133.23 0 132.5 0 131.67 C0 130.84 0.8 130.11 1.71 130.11 C2.62 130.11 3.42 130.84
								 3.42 131.67 C3.42 132.5 2.62 133.23 1.71 133.23 L1.71 133.23 Z" class="st6"/>
				</g>
				<g id="group3854-27" transform="translate(43.2727,-28.8876)">
					<title>g35</title>
					<g id="shape3855-28">
						<title>rect29</title>
						<path d="M0 132.52 a0.729046 0.70744 -180 0 0 0.729029 0.707423 L8.02 133.23 a0.729046 0.70744 -180 0 0 0.729029
									 -0.707423 a0.729046 0.70744 -180 0 0 -0.729029 -0.707423 L0.73 131.81 a0.729046 0.70744 -180
									 0 0 -0.729029 0.707423 Z" class="st7"/>
					</g>
					<g id="shape3856-30" transform="translate(0,-2.4017)">
						<title>rect31</title>
						<path d="M0 132.52 a0.729046 0.70744 -180 0 0 0.729029 0.707423 L8.02 133.23 a0.729046 0.70744 -180 0 0 0.729029
									 -0.707423 a0.729046 0.70744 -180 0 0 -0.729029 -0.707423 L0.73 131.81 a0.729046 0.70744 -180
									 0 0 -0.729029 0.707423 Z" class="st7"/>
					</g>
					<g id="shape3857-32" transform="translate(0,-4.75978)">
						<title>rect33</title>
						<path d="M0 132.52 a0.729046 0.70744 -180 0 0 0.729029 0.707423 L8.02 133.23 a0.729046 0.70744 -180 0 0 0.729029
									 -0.707423 a0.729046 0.70744 -180 0 0 -0.729029 -0.707423 L0.73 131.81 a0.729046 0.70744 -180
									 0 0 -0.729029 0.707423 Z" class="st7"/>
					</g>
				</g>
				<g id="shape3858-34" transform="translate(9.26474,-40.8513)">
					<title>path37</title>
					<path d="M45.6 121.44 L1.83 121.44 C0.8 121.44 0 122.08 0 122.9 L0 131.77 C0 132.59 0.8 133.23 1.82 133.23 L45.6
								 133.23 C46.63 133.23 47.43 132.59 47.43 131.77 L47.43 122.9 C47.43 122.08 46.63 121.44 45.6 121.44
								 L45.6 121.44 Z" class="st5"/>
				</g>
				<g id="shape3859-36" transform="translate(13.4275,-45.189)">
					<title>path39</title>
					<path d="M1.71 133.23 C0.8 133.23 0 132.5 0 131.67 C0 130.84 0.8 130.11 1.71 130.11 C2.62 130.11 3.42 130.84
								 3.42 131.67 C3.42 132.5 2.62 133.23 1.71 133.23 L1.71 133.23 Z" class="st6"/>
				</g>
				<g id="group3860-38" transform="translate(43.2727,-43.7765)">
					<title>g47</title>
					<g id="shape3861-39">
						<title>rect41</title>
						<path d="M0 132.52 a0.729046 0.70744 -180 0 0 0.729029 0.707423 L8.02 133.23 a0.729046 0.70744 -180 0 0 0.729029
									 -0.707423 a0.729046 0.70744 -180 0 0 -0.729029 -0.707423 L0.73 131.81 a0.729046 0.70744 -180
									 0 0 -0.729029 0.707423 Z" class="st7"/>
					</g>
					<g id="shape3862-41" transform="translate(0,-2.4017)">
						<title>rect43</title>
						<path d="M0 132.52 a0.729046 0.70744 -180 0 0 0.729029 0.707423 L8.02 133.23 a0.729046 0.70744 -180 0 0 0.729029
									 -0.707423 a0.729046 0.70744 -180 0 0 -0.729029 -0.707423 L0.73 131.81 a0.729046 0.70744 -180
									 0 0 -0.729029 0.707423 Z" class="st7"/>
					</g>
					<g id="shape3863-43" transform="translate(0,-4.75978)">
						<title>rect45</title>
						<path d="M0 132.52 a0.729046 0.70744 -180 0 0 0.729029 0.707423 L8.02 133.23 a0.729046 0.70744 -180 0 0 0.729029
									 -0.707423 a0.729046 0.70744 -180 0 0 -0.729029 -0.707423 L0.73 131.81 a0.729046 0.70744 -180
									 0 0 -0.729029 0.707423 Z" class="st7"/>
					</g>
				</g>
				<g id="shape3864-45" transform="translate(7.9938,-9.59148)">
					<title>path49</title>
					<path d="M48.6 89.34 L48.57 89.34 L2.81 89.34 C1.25 89.34 0 90.95 0 92.76 L0 129.84 C0 131.63 1.25 133.23 2.81
								 133.23 L3.9 133.23 L48.6 89.34 Z" class="st8"/>
				</g>
				<g id="group3865-47" transform="translate(2.8777E-13,-28.3842)">
					<title>g57</title>
					<g id="shape3866-48">
						<title>circle51</title>
						<ellipse cx="14.5866" cy="119.074" rx="14.5866" ry="14.1544" class="st9"/>
					</g>
					<g id="shape3867-50" transform="translate(3.07164,-7.52345)">
						<title>path53</title>
						<path d="M12.06 131.93 A6.55397 6.35974 0 0 1 10.44 132.72 A9.72403 9.43585 0 0 1 7.18 133.23 C6.2 133.23
									 5.28 133.09 4.41 132.8 A6.50658 6.31375 0 0 1 2.13 131.53 A6.23563 6.05083 0 0 1 0.57 129.42
									 C0.19 128.57 0 127.59 0 126.47 C0 125.38 0.18 124.41 0.55 123.56 C0.92 122.71 1.43 121.99 2.07
									 121.4 A6.57341 6.3786 0 0 1 4.33 120.06 A8.01081 7.7734 0 0 1 7.12 119.6 C7.65 119.6 8.13 119.63
									 8.56 119.7 C8.99 119.76 9.36 119.84 9.69 119.94 A5.77269 5.60161 0 0 1 11.1 120.57 C11.4 120.78
									 11.62 121 11.75 121.24 C11.88 121.47 11.94 121.71 11.94 121.96 C11.94 122.2 11.89 122.43 11.8
									 122.64 C11.7 122.86 11.58 123.05 11.45 123.22 A3.49569 3.3921 0 0 1 11.04 123.65 A2.10689 2.04445
									 0 0 1 10.7 123.91 A10.0533 9.75537 -180 0 0 10.2 123.46 A3.46167 3.35908 -180 0 0 9.47 123 A5.5552
									 5.39057 -180 0 0 8.49 122.64 A4.56493 4.42965 -180 0 0 7.25 122.49 C6.68 122.49 6.17 122.58
									 5.7 122.76 A3.46653 3.3638 -180 0 0 4.48 123.56 A3.6901 3.58074 -180 0 0 3.69 124.81 A4.88449
									 4.73974 -180 0 0 3.4 126.47 C3.4 127.1 3.51 127.66 3.71 128.13 C3.92 128.61 4.21 129.01 4.57
									 129.33 A3.60869 3.50175 -180 0 0 5.86 130.06 C6.36 130.22 6.9 130.3 7.49 130.3 C8.21 130.3 8.84
									 130.21 9.36 130.04 C9.89 129.86 10.29 129.68 10.56 129.49 L12.02 131.93 L12.06 131.93 Z"
								class="st10"/>
					</g>
					<g id="shape3868-52" transform="translate(12.6256,-7.52345)">
						<title>path55</title>
						<path d="M1.34 129.19 C1.42 129.25 1.6 129.35 1.87 129.48 C2.14 129.61 2.48 129.75 2.9 129.88 C3.31 130.01
									 3.79 130.13 4.34 130.24 C4.88 130.34 5.47 130.4 6.11 130.4 C6.63 130.4 7.04 130.36 7.35 130.29
									 C7.66 130.22 7.9 130.13 8.07 130.02 a0.826232 0.801747 -180 0 0 0.330493 -0.386725 C8.45 129.49
									 8.48 129.34 8.48 129.19 a0.939232 0.911397 -180 0 0 -0.379095 -0.745153 C7.85 128.25 7.38 128.09
									 6.69 127.98 L4.71 127.64 A11.3728 11.0358 0 0 1 3.15 127.26 A4.91487 4.76921 0 0 1 1.76 126.59
									 A3.50663 3.40271 0 0 1 0.76 125.47 C0.5 125.02 0.37 124.46 0.37 123.79 C0.37 123.21 0.48 122.67
									 0.7 122.16 C0.92 121.65 1.26 121.21 1.71 120.83 C2.17 120.45 2.74 120.15 3.43 119.93 C4.13 119.71
									 4.94 119.6 5.87 119.6 C6.55 119.6 7.14 119.64 7.64 119.71 A9.90264 9.60917 0 0 1 8.95 119.96
									 C9.31 120.06 9.6 120.16 9.83 120.26 C10.06 120.36 10.22 120.45 10.33 120.51 C10.55 120.63 10.76
									 120.81 10.96 121.03 A1.17738 1.14249 0 0 1 11.26 121.81 C11.26 122.02 11.22 122.23 11.14 122.42
									 A2.96472 2.87686 0 0 1 10.86 122.96 C10.75 123.13 10.63 123.27 10.5 123.39 A3.24661 3.15039
									 0 0 1 10.17 123.66 A3.37419 3.27419 -180 0 0 9.59 123.24 A4.82617 4.68314 -180 0 0 8.65 122.81
									 A8.59646 8.3417 -180 0 0 7.41 122.49 A7.84192 7.60952 -180 0 0 5.91 122.36 C5.41 122.36 5 122.4
									 4.71 122.48 C4.41 122.56 4.18 122.66 4.04 122.78 a0.854179 0.828864 -180 0 0 -0.291611 0.405589
									 A1.53825 1.49266 -180 0 0 3.68 123.6 C3.68 123.72 3.69 123.82 3.72 123.92 C3.76 124.02 3.83
									 124.12 3.96 124.22 C4.08 124.31 4.26 124.4 4.48 124.48 C4.71 124.56 5.02 124.64 5.41 124.72
									 L7.47 125.11 A11.3777 11.0405 0 0 1 9.38 125.63 C9.94 125.84 10.4 126.09 10.77 126.4 C11.15
									 126.7 11.43 127.06 11.62 127.49 C11.81 127.92 11.9 128.43 11.9 129.02 C11.9 130.34 11.39 131.37
									 10.38 132.11 C9.36 132.86 7.92 133.23 6.07 133.23 A11.7629 11.4143 0 0 1 3.74 133.02 A13.8054
									 13.3962 0 0 1 1.89 132.54 A10.9913 10.6656 0 0 1 0.59 132.02 C0.26 131.86 0.06 131.74 0 131.68
									 L1.34 129.19 Z" class="st7"/>
					</g>
				</g>
			</g>
		</g>
	</g>
</svg>
