<?xml version="1.0" encoding="UTF-8" standalone="no"?>
<!DOCTYPE svg PUBLIC "-//W3C//DTD SVG 1.1//EN" "http://www.w3.org/Graphics/SVG/1.1/DTD/svg11.dtd">
<!-- Generated by Microsoft Visio, SVG Export Cloud App Security.svg Page-1 -->
<svg xmlns="http://www.w3.org/2000/svg" xmlns:xlink="http://www.w3.org/1999/xlink" xmlns:ev="http://www.w3.org/2001/xml-events"
		width="0.944882in" height="1.16535in" viewBox="0 0 68.0315 83.9055" xml:space="preserve" color-interpolation-filters="sRGB"
		class="st5">
	<style type="text/css">
	<![CDATA[
		.st1 {fill:none;stroke:#fea11b;stroke-linecap:butt;stroke-width:2.68275}
		.st2 {fill:url(#grad0-8);stroke:none;stroke-linecap:butt;stroke-width:1.12564}
		.st3 {fill:#000000;stroke:#000000;stroke-linecap:butt;stroke-width:3.22922}
		.st4 {fill:#000000;stroke:#000000;stroke-linecap:butt;stroke-width:2.75991}
		.st5 {fill:none;fill-rule:evenodd;font-size:12px;overflow:visible;stroke-linecap:square;stroke-miterlimit:3}
	]]>
	</style>

	<defs id="Patterns_And_Gradients">
		<linearGradient id="grad0-8" x1="0" y1="0" x2="1" y2="0" gradientTransform="rotate(-90.032128289245 0.5 0.5)">
			<stop offset="0" stop-color="#0078d4" stop-opacity="1"/>
			<stop offset="0.065" stop-color="#0a7cd7" stop-opacity="1"/>
			<stop offset="0.34" stop-color="#2e8ce1" stop-opacity="1"/>
			<stop offset="0.595" stop-color="#4897e9" stop-opacity="1"/>
			<stop offset="0.82" stop-color="#589eed" stop-opacity="1"/>
			<stop offset="1" stop-color="#5ea0ef" stop-opacity="1"/>
		</linearGradient>
	</defs>
	<g>
		<title>Page-1</title>
		<g id="group6428-1" transform="translate(5.66929,-34.0157)">
			<title>Cloud App Security</title>
			<g id="group6429-2">
				<title>g8</title>
				<g id="shape6430-3" transform="translate(18.3199,-22.533)">
					<title>path53</title>
					<ellipse cx="10.6327" cy="72.4948" rx="10.6327" ry="11.4107" class="st1"/>
				</g>
				<g id="shape6431-5">
					<title>path6-9</title>
					<path d="M49.91 61.85 C49.95 61.35 49.98 60.85 49.98 60.35 C49.98 52.41 43.38 45.98 35.28 45.98 C30.47 45.98
								 26.06 48.25 23.34 51.96 A11.1539 11.0272 -180 0 0 17.46 50.32 C11.34 50.32 6.35 55.21 6.35 61.21
								 L6.37 62.08 C2.23 64.15 0 67.58 0 71.88 C0 78.63 5.57 83.91 12.67 83.91 L44.02 83.91 C51.13 83.91
								 56.69 78.63 56.69 71.88 C56.69 67.42 54.25 63.85 49.91 61.85 Z" class="st2"/>
				</g>
				<g id="shape6432-9" transform="translate(26.2961,-18.0594)">
					<title>path875</title>
					<ellipse cx="2.50496" cy="81.429" rx="2.50496" ry="2.47648" class="st3"/>
				</g>
				<g id="shape6433-11" transform="translate(26.6903,-1.67639)">
					<title>rect893</title>
					<rect x="0" y="72.6911" width="4.29724" height="11.2144" class="st4"/>
				</g>
			</g>
		</g>
	</g>
</svg>
