<?xml version="1.0" encoding="UTF-8" standalone="no"?>
<!DOCTYPE svg PUBLIC "-//W3C//DTD SVG 1.1//EN" "http://www.w3.org/Graphics/SVG/1.1/DTD/svg11.dtd">
<!-- Generated by Microsoft Visio, SVG Export Cloud Simple Service.svg Page-1 -->
<svg xmlns="http://www.w3.org/2000/svg" xmlns:xlink="http://www.w3.org/1999/xlink" xmlns:ev="http://www.w3.org/2001/xml-events"
		width="1.5748in" height="1.85039in" viewBox="0 0 113.386 133.228" xml:space="preserve" color-interpolation-filters="sRGB"
		class="st4">
	<style type="text/css">
	<![CDATA[
		.st1 {fill:#e4e4e4;stroke:none;stroke-linecap:butt;stroke-width:0.972542}
		.st2 {fill:#81ba33;stroke:none;stroke-linecap:butt;stroke-width:0.972542}
		.st3 {fill:#486385;stroke:none;stroke-linecap:butt;stroke-width:0.972542}
		.st4 {fill:none;fill-rule:evenodd;font-size:12px;overflow:visible;stroke-linecap:square;stroke-miterlimit:3}
	]]>
	</style>

	<g>
		<title>Page-1</title>
		<g id="group3835-1" transform="translate(28.3465,-70.8661)">
			<title>Cloud Simple Service</title>
			<g id="group3836-2">
				<title>g11</title>
				<g id="shape3837-3">
					<title>rect5</title>
					<path d="M-0 130.87 A2.36226 2.36226 -180 0 0 2.36 133.23 L54.33 133.23 A2.36226 2.36226 -180 0 0 56.69 130.87
								 L56.69 78.9 A2.36226 2.36226 -180 0 0 54.33 76.54 L2.36 76.54 A2.36226 2.36226 -180 0 0 0 78.9 L0
								 130.87 Z" class="st1"/>
				</g>
				<g id="shape3838-5" transform="translate(4.88858,-12.7654)">
					<title>path7</title>
					<path d="M26.3 130.3 C25.98 130.53 25.54 130.8 24.96 131.13 C24.38 131.45 23.65 131.77 22.78 132.08 C21.9 132.39
								 20.87 132.66 19.68 132.89 C18.49 133.12 17.15 133.23 15.65 133.23 C13.53 133.23 11.52 132.91 9.63
								 132.27 C7.73 131.64 6.07 130.68 4.64 129.41 C3.22 128.14 2.09 126.56 1.25 124.66 C0.42 122.77 0
								 120.56 0 118.05 C0 115.59 0.4 113.4 1.21 111.49 C2.01 109.58 3.12 107.97 4.52 106.66 C5.92 105.34
								 7.56 104.34 9.44 103.65 C11.32 102.95 13.35 102.61 15.52 102.61 C16.68 102.61 17.73 102.68 18.66
								 102.82 C19.59 102.96 20.42 103.14 21.14 103.37 A12.5787 12.5787 0 0 1 22.99 104.09 C23.5 104.35
								 23.91 104.57 24.22 104.77 C24.87 105.25 25.33 105.75 25.62 106.28 C25.9 106.8 26.04 107.34 26.04
								 107.91 C26.04 108.45 25.94 108.96 25.72 109.44 A6.11811 6.11811 0 0 1 24.96 110.73 A7.62402 7.62402
								 0 0 1 24.07 111.71 A4.59449 4.59449 0 0 1 23.33 112.28 C23.04 111.99 22.68 111.66 22.24 111.28 A7.54724
								 7.54724 -180 0 0 20.66 110.24 A12.1134 12.1134 -180 0 0 18.51 109.44 C17.71 109.21 16.81 109.1 15.82
								 109.1 C14.58 109.1 13.45 109.3 12.43 109.71 A7.55906 7.55906 -180 0 0 9.78 111.49 C9.03 112.27 8.45
								 113.21 8.04 114.31 C7.63 115.42 7.42 116.66 7.42 118.05 C7.42 119.46 7.65 120.7 8.1 121.78 C8.55
								 122.85 9.18 123.75 9.97 124.47 A7.86969 7.86969 -180 0 0 12.79 126.1 C13.88 126.47 15.06 126.66
								 16.33 126.66 C17.91 126.66 19.28 126.46 20.42 126.06 C21.57 125.67 22.44 125.26 23.03 124.83 L26.21
								 130.3 L26.3 130.3 Z" class="st2"/>
				</g>
				<g id="shape3839-7" transform="translate(25.7244,-12.7654)">
					<title>path9</title>
					<path d="M2.93 124.15 C3.1 124.29 3.48 124.51 4.07 124.81 C4.67 125.11 5.41 125.4 6.32 125.7 C7.22 126 8.27 126.27
								 9.46 126.51 C10.65 126.75 11.93 126.87 13.32 126.87 C14.45 126.87 15.35 126.79 16.03 126.63 C16.71
								 126.48 17.23 126.27 17.6 126.02 C17.97 125.76 18.21 125.48 18.32 125.15 C18.43 124.82 18.49 124.49
								 18.49 124.15 C18.49 123.47 18.21 122.92 17.66 122.48 C17.11 122.04 16.09 121.69 14.59 121.44 L10.26
								 120.67 A24.802 24.802 0 0 1 6.87 119.83 A10.7185 10.7185 0 0 1 3.84 118.3 A7.64646 7.64646 0 0 1
								 1.65 115.8 C1.09 114.78 0.81 113.52 0.81 112.02 C0.81 110.72 1.05 109.5 1.53 108.35 A7.96299 7.96299
								 0 0 1 3.73 105.36 C4.72 104.52 5.97 103.84 7.48 103.35 C9 102.85 10.77 102.61 12.81 102.61 C14.28
								 102.61 15.56 102.69 16.67 102.84 C17.77 103 18.72 103.19 19.51 103.41 C20.3 103.64 20.94 103.87
								 21.44 104.09 C21.93 104.32 22.29 104.5 22.52 104.64 C23 104.93 23.46 105.32 23.9 105.81 C24.34 106.31
								 24.56 106.89 24.56 107.57 C24.56 108.05 24.47 108.51 24.3 108.95 A6.46535 6.46535 0 0 1 23.69 110.16
								 C23.45 110.52 23.19 110.84 22.9 111.11 A7.16929 7.16929 0 0 1 22.18 111.73 C21.9 111.44 21.47 111.13
								 20.91 110.77 A10.5248 10.5248 -180 0 0 18.87 109.82 C18.08 109.53 17.18 109.29 16.16 109.1 A17.1024
								 17.1024 -180 0 0 12.89 108.8 C11.79 108.8 10.91 108.89 10.26 109.07 C9.61 109.26 9.13 109.49 8.8
								 109.75 C8.47 110.02 8.26 110.33 8.16 110.67 A3.35433 3.35433 -180 0 0 8.01 111.6 C8.01 111.85 8.05
								 112.09 8.12 112.32 C8.19 112.55 8.36 112.76 8.63 112.98 C8.9 113.19 9.28 113.39 9.78 113.57 C10.27
								 113.75 10.94 113.93 11.79 114.1 L16.29 114.99 C17.87 115.3 19.26 115.69 20.46 116.16 C21.66 116.62
								 22.68 117.2 23.5 117.88 A6.4252 6.4252 0 0 1 25.34 120.34 C25.75 121.3 25.95 122.44 25.95 123.77
								 C25.95 126.74 24.85 129.06 22.63 130.73 C20.41 132.39 17.28 133.23 13.23 133.23 C11.39 133.23 9.71
								 133.07 8.16 132.76 C6.62 132.45 5.27 132.09 4.11 131.68 C2.96 131.27 2.01 130.88 1.29 130.51 C0.57
								 130.15 0.14 129.89 0 129.75 L2.93 124.15 Z" class="st3"/>
				</g>
			</g>
		</g>
	</g>
</svg>
