<?xml version="1.0" encoding="UTF-8" standalone="no"?>
<!-- Generated by Microsoft Visio, SVG Export Clusters (Operator Nexus).svg Page-1 -->

<svg
   xmlns:dc="http://purl.org/dc/elements/1.1/"
   xmlns:cc="http://creativecommons.org/ns#"
   xmlns:rdf="http://www.w3.org/1999/02/22-rdf-syntax-ns#"
   xmlns:svg="http://www.w3.org/2000/svg"
   xmlns="http://www.w3.org/2000/svg"
   xmlns:xlink="http://www.w3.org/1999/xlink"
   xmlns:sodipodi="http://sodipodi.sourceforge.net/DTD/sodipodi-0.dtd"
   xmlns:inkscape="http://www.inkscape.org/namespaces/inkscape"
   width="0.787413in"
   height="0.59057367in"
   viewBox="0 0 56.693901 42.521276"
   xml:space="preserve"
   class="st5"
   version="1.1"
   id="svg341"
   sodipodi:docname="Clusters (Operator Nexus).svg"
   style="font-size:12px;overflow:visible;color-interpolation-filters:sRGB;fill:none;fill-rule:evenodd;stroke-linecap:square;stroke-miterlimit:3"
   inkscape:version="0.92.5 (2060ec1f9f, 2020-04-08)"><metadata
   id="metadata345"><rdf:RDF><cc:Work
       rdf:about=""><dc:format>image/svg+xml</dc:format><dc:type
         rdf:resource="http://purl.org/dc/dcmitype/StillImage" /></cc:Work></rdf:RDF></metadata><sodipodi:namedview
   pagecolor="#ffffff"
   bordercolor="#666666"
   borderopacity="1"
   objecttolerance="10"
   gridtolerance="10"
   guidetolerance="10"
   inkscape:pageopacity="0"
   inkscape:pageshadow="2"
   inkscape:window-width="640"
   inkscape:window-height="480"
   id="namedview343"
   showgrid="false"
   inkscape:zoom="1.8922191"
   inkscape:cx="37.795157"
   inkscape:cy="17.005084"
   inkscape:window-x="0"
   inkscape:window-y="0"
   inkscape:window-maximized="0"
   inkscape:current-layer="svg341" />
	<style
   type="text/css"
   id="style2">
	<![CDATA[
		.st1 {fill:url(#grad0-6);stroke:none;stroke-linecap:butt;stroke-width:17}
		.st2 {fill:#0078d4;stroke:none;stroke-linecap:butt;stroke-width:17}
		.st3 {fill:#50e6ff;stroke:none;stroke-linecap:butt;stroke-width:17}
		.st4 {fill:#ffffff;stroke:none;stroke-linecap:butt;stroke-width:17}
		.st5 {fill:none;fill-rule:evenodd;font-size:12px;overflow:visible;stroke-linecap:square;stroke-miterlimit:3}
	]]>
	</style>

	<defs
   id="Patterns_And_Gradients">
		<linearGradient
   id="grad0-6"
   x1="0"
   y1="0"
   x2="1"
   y2="0"
   gradientTransform="rotate(-92.765762,0.5,0.5)">
			<stop
   offset="0"
   stop-color="#0078d4"
   stop-opacity="1"
   id="stop4" />
			<stop
   offset="0.16"
   stop-color="#1380da"
   stop-opacity="1"
   id="stop6" />
			<stop
   offset="0.53"
   stop-color="#3c91e5"
   stop-opacity="1"
   id="stop8" />
			<stop
   offset="0.82"
   stop-color="#559cec"
   stop-opacity="1"
   id="stop10" />
			<stop
   offset="1"
   stop-color="#5ea0ef"
   stop-opacity="1"
   id="stop12" />
		</linearGradient>
	<linearGradient
   inkscape:collect="always"
   xlink:href="#grad0-6"
   id="linearGradient4855"
   gradientTransform="scale(1.1820623,0.8459791)"
   x1="0"
   y1="71.519712"
   x2="39.050395"
   y2="71.519712"
   gradientUnits="userSpaceOnUse" /><linearGradient
   inkscape:collect="always"
   xlink:href="#grad0-6"
   id="linearGradient4857"
   gradientTransform="scale(1.1820623,0.8459791)"
   x1="0"
   y1="71.519712"
   x2="39.050395"
   y2="71.519712"
   gradientUnits="userSpaceOnUse" /><linearGradient
   inkscape:collect="always"
   xlink:href="#grad0-6"
   id="linearGradient4859"
   gradientTransform="scale(1.1820623,0.8459791)"
   x1="0"
   y1="71.519712"
   x2="39.050395"
   y2="71.519712"
   gradientUnits="userSpaceOnUse" /><linearGradient
   inkscape:collect="always"
   xlink:href="#grad0-6"
   id="linearGradient4861"
   gradientTransform="scale(1.1820623,0.8459791)"
   x1="0"
   y1="71.519712"
   x2="39.050395"
   y2="71.519712"
   gradientUnits="userSpaceOnUse" /><linearGradient
   inkscape:collect="always"
   xlink:href="#grad0-6"
   id="linearGradient4863"
   gradientTransform="scale(1.1820623,0.8459791)"
   x1="0"
   y1="71.519712"
   x2="39.050395"
   y2="71.519712"
   gradientUnits="userSpaceOnUse" /><linearGradient
   inkscape:collect="always"
   xlink:href="#grad0-6"
   id="linearGradient4865"
   gradientTransform="scale(1.1820623,0.8459791)"
   x1="0"
   y1="71.519712"
   x2="39.050395"
   y2="71.519712"
   gradientUnits="userSpaceOnUse" /><linearGradient
   inkscape:collect="always"
   xlink:href="#grad0-6"
   id="linearGradient4867"
   gradientTransform="scale(1.1820623,0.8459791)"
   x1="0"
   y1="71.519712"
   x2="39.050395"
   y2="71.519712"
   gradientUnits="userSpaceOnUse" /><linearGradient
   inkscape:collect="always"
   xlink:href="#grad0-6"
   id="linearGradient4869"
   gradientTransform="scale(1.1820623,0.8459791)"
   x1="0"
   y1="71.519712"
   x2="39.050395"
   y2="71.519712"
   gradientUnits="userSpaceOnUse" /><linearGradient
   inkscape:collect="always"
   xlink:href="#grad0-6"
   id="linearGradient4871"
   gradientTransform="scale(1.1820623,0.8459791)"
   x1="0"
   y1="71.519712"
   x2="39.050395"
   y2="71.519712"
   gradientUnits="userSpaceOnUse" /></defs>
	<g
   id="g339"
   transform="translate(-17,-17.003039)">
		<title
   id="title16">Page-1</title>
		<g
   id="group7584-1"
   transform="translate(17,-34.0157)">
			<title
   id="title18">Clusters (Operator Nexus)</title>
			<g
   id="group7585-2">
				<title
   id="title20">Sheet.7585</title>
				<g
   id="shape7586-3"
   transform="translate(10.5339,-9.48561)">
					<title
   id="title22">Sheet.7586</title>
					<path
   d="M 43.49,76.4 A 10.5071,10.2757 -180 0 0 37.03,73.02 13.4535,13.1573 -180 0 0 32.82,64 13.178,12.8877 -180 0 0 23.4,60.51 13.5291,13.2312 -180 0 0 15.46,62.88 13.7465,13.4437 -180 0 0 10.39,69.36 12.4866,12.2116 -180 0 0 2.62,73.3 12.6661,12.3872 -180 0 0 0,77.73 H 19.03 V 93.54 H 35.6 a 10.6079,10.3743 -180 0 0 7.44,-3.08 10.822,10.5837 -180 0 0 3.12,-7.35 10.6929,10.4574 -180 0 0 -2.67,-6.71 z"
   class="st1"
   id="path24"
   inkscape:connector-curvature="0"
   style="fill:url(#linearGradient4855);stroke:none;stroke-width:17;stroke-linecap:butt" />
				</g>
				<g
   id="shape7587-7"
   transform="translate(0,-18.8711)">
					<title
   id="title27">Sheet.7587</title>
					<path
   d="M 29.68,86.07 H 0 v 7.47 h 29.68 z"
   class="st2"
   id="path29"
   inkscape:connector-curvature="0"
   style="fill:#0078d4;stroke:none;stroke-width:17;stroke-linecap:butt" />
				</g>
				<g
   id="shape7588-9"
   transform="translate(2.75266,-20.8286)">
					<title
   id="title32">Sheet.7588</title>
					<path
   d="m 1.76,93.54 a 1.8149676,1.775 -180 1 0 0,-3.55 1.8149676,1.775 -180 0 0 0,3.55 z"
   class="st3"
   id="path34"
   inkscape:connector-curvature="0"
   style="fill:#50e6ff;stroke:none;stroke-width:17;stroke-linecap:butt" />
				</g>
				<g
   id="shape7589-11"
   transform="translate(0,-9.48253)">
					<title
   id="title37">Sheet.7589</title>
					<path
   d="M 29.68,86.08 H 0 v 7.46 h 29.68 z"
   class="st2"
   id="path39"
   inkscape:connector-curvature="0"
   style="fill:#0078d4;stroke:none;stroke-width:17;stroke-linecap:butt" />
				</g>
				<g
   id="shape7590-13"
   transform="translate(2.69921,-11.4385)">
					<title
   id="title42">Sheet.7590</title>
					<path
   d="m 1.81,93.54 a 1.8149676,1.775 -180 1 0 0,-3.55 1.8149676,1.775 -180 0 0 0,3.55 z"
   class="st3"
   id="path44"
   inkscape:connector-curvature="0"
   style="fill:#50e6ff;stroke:none;stroke-width:17;stroke-linecap:butt" />
				</g>
				<g
   id="shape7591-15">
					<title
   id="title47">Sheet.7591</title>
					<path
   d="M 29.68,86.08 H 0 v 7.46 h 29.68 z"
   class="st2"
   id="path49"
   inkscape:connector-curvature="0"
   style="fill:#0078d4;stroke:none;stroke-width:17;stroke-linecap:butt" />
				</g>
				<g
   id="shape7592-17"
   transform="translate(2.69921,-1.95749)">
					<title
   id="title52">Sheet.7592</title>
					<path
   d="m 1.81,93.54 a 1.8149676,1.775 -180 1 0 0,-3.55 1.8149676,1.775 -180 0 0 0,3.55 z"
   class="st3"
   id="path54"
   inkscape:connector-curvature="0"
   style="fill:#50e6ff;stroke:none;stroke-width:17;stroke-linecap:butt" />
				</g>
				<g
   id="shape7593-19"
   transform="translate(10.5339,-9.48561)">
					<title
   id="title57">Sheet.7593</title>
					<path
   d="M 43.49,76.4 A 10.5071,10.2757 -180 0 0 37.03,73.02 13.4535,13.1573 -180 0 0 32.82,64 13.178,12.8877 -180 0 0 23.4,60.51 13.5291,13.2312 -180 0 0 15.46,62.88 13.7465,13.4437 -180 0 0 10.39,69.36 12.4866,12.2116 -180 0 0 2.62,73.3 12.6661,12.3872 -180 0 0 0,77.73 H 19.03 V 93.54 H 35.6 a 10.6079,10.3743 -180 0 0 7.44,-3.08 10.822,10.5837 -180 0 0 3.12,-7.35 10.6929,10.4574 -180 0 0 -2.67,-6.71 z"
   class="st1"
   id="path59"
   inkscape:connector-curvature="0"
   style="fill:url(#linearGradient4857);stroke:none;stroke-width:17;stroke-linecap:butt" />
				</g>
				<g
   id="shape7594-22"
   transform="translate(0,-18.8711)">
					<title
   id="title62">Sheet.7594</title>
					<path
   d="M 29.68,86.07 H 0 v 7.47 h 29.68 z"
   class="st2"
   id="path64"
   inkscape:connector-curvature="0"
   style="fill:#0078d4;stroke:none;stroke-width:17;stroke-linecap:butt" />
				</g>
				<g
   id="shape7595-24"
   transform="translate(2.75266,-20.8286)">
					<title
   id="title67">Sheet.7595</title>
					<path
   d="m 1.76,93.54 a 1.8149676,1.775 -180 1 0 0,-3.55 1.8149676,1.775 -180 0 0 0,3.55 z"
   class="st3"
   id="path69"
   inkscape:connector-curvature="0"
   style="fill:#50e6ff;stroke:none;stroke-width:17;stroke-linecap:butt" />
				</g>
				<g
   id="shape7596-26"
   transform="translate(0,-9.48253)">
					<title
   id="title72">Sheet.7596</title>
					<path
   d="M 29.68,86.08 H 0 v 7.46 h 29.68 z"
   class="st2"
   id="path74"
   inkscape:connector-curvature="0"
   style="fill:#0078d4;stroke:none;stroke-width:17;stroke-linecap:butt" />
				</g>
				<g
   id="shape7597-28"
   transform="translate(2.69921,-11.4385)">
					<title
   id="title77">Sheet.7597</title>
					<path
   d="m 1.81,93.54 a 1.8149676,1.775 -180 1 0 0,-3.55 1.8149676,1.775 -180 0 0 0,3.55 z"
   class="st3"
   id="path79"
   inkscape:connector-curvature="0"
   style="fill:#50e6ff;stroke:none;stroke-width:17;stroke-linecap:butt" />
				</g>
				<g
   id="shape7598-30">
					<title
   id="title82">Sheet.7598</title>
					<path
   d="M 29.68,86.08 H 0 v 7.46 h 29.68 z"
   class="st2"
   id="path84"
   inkscape:connector-curvature="0"
   style="fill:#0078d4;stroke:none;stroke-width:17;stroke-linecap:butt" />
				</g>
				<g
   id="shape7599-32"
   transform="translate(2.69921,-1.95749)">
					<title
   id="title87">Sheet.7599</title>
					<path
   d="m 1.81,93.54 a 1.8149676,1.775 -180 1 0 0,-3.55 1.8149676,1.775 -180 0 0 0,3.55 z"
   class="st3"
   id="path89"
   inkscape:connector-curvature="0"
   style="fill:#50e6ff;stroke:none;stroke-width:17;stroke-linecap:butt" />
				</g>
				<g
   id="shape7600-34"
   transform="translate(10.5339,-9.48561)">
					<title
   id="title92">Sheet.7600</title>
					<path
   d="M 43.49,76.4 A 10.5071,10.2757 -180 0 0 37.03,73.02 13.4535,13.1573 -180 0 0 32.82,64 13.178,12.8877 -180 0 0 23.4,60.51 13.5291,13.2312 -180 0 0 15.46,62.88 13.7465,13.4437 -180 0 0 10.39,69.36 12.4866,12.2116 -180 0 0 2.62,73.3 12.6661,12.3872 -180 0 0 0,77.73 H 19.03 V 93.54 H 35.6 a 10.6079,10.3743 -180 0 0 7.44,-3.08 10.822,10.5837 -180 0 0 3.12,-7.35 10.6929,10.4574 -180 0 0 -2.67,-6.71 z"
   class="st1"
   id="path94"
   inkscape:connector-curvature="0"
   style="fill:url(#linearGradient4859);stroke:none;stroke-width:17;stroke-linecap:butt" />
				</g>
				<g
   id="shape7601-37"
   transform="translate(0,-18.8711)">
					<title
   id="title97">Sheet.7601</title>
					<path
   d="M 29.68,86.07 H 0 v 7.47 h 29.68 z"
   class="st2"
   id="path99"
   inkscape:connector-curvature="0"
   style="fill:#0078d4;stroke:none;stroke-width:17;stroke-linecap:butt" />
				</g>
				<g
   id="shape7602-39"
   transform="translate(2.75266,-20.8286)">
					<title
   id="title102">Sheet.7602</title>
					<path
   d="m 1.76,93.54 a 1.8149676,1.775 -180 1 0 0,-3.55 1.8149676,1.775 -180 0 0 0,3.55 z"
   class="st3"
   id="path104"
   inkscape:connector-curvature="0"
   style="fill:#50e6ff;stroke:none;stroke-width:17;stroke-linecap:butt" />
				</g>
				<g
   id="shape7603-41"
   transform="translate(0,-9.48253)">
					<title
   id="title107">Sheet.7603</title>
					<path
   d="M 29.68,86.08 H 0 v 7.46 h 29.68 z"
   class="st2"
   id="path109"
   inkscape:connector-curvature="0"
   style="fill:#0078d4;stroke:none;stroke-width:17;stroke-linecap:butt" />
				</g>
				<g
   id="shape7604-43"
   transform="translate(2.69921,-11.4385)">
					<title
   id="title112">Sheet.7604</title>
					<path
   d="m 1.81,93.54 a 1.8149676,1.775 -180 1 0 0,-3.55 1.8149676,1.775 -180 0 0 0,3.55 z"
   class="st3"
   id="path114"
   inkscape:connector-curvature="0"
   style="fill:#50e6ff;stroke:none;stroke-width:17;stroke-linecap:butt" />
				</g>
				<g
   id="shape7605-45">
					<title
   id="title117">Sheet.7605</title>
					<path
   d="M 29.68,86.08 H 0 v 7.46 h 29.68 z"
   class="st2"
   id="path119"
   inkscape:connector-curvature="0"
   style="fill:#0078d4;stroke:none;stroke-width:17;stroke-linecap:butt" />
				</g>
				<g
   id="shape7606-47"
   transform="translate(2.69921,-1.95749)">
					<title
   id="title122">Sheet.7606</title>
					<path
   d="m 1.81,93.54 a 1.8149676,1.775 -180 1 0 0,-3.55 1.8149676,1.775 -180 0 0 0,3.55 z"
   class="st3"
   id="path124"
   inkscape:connector-curvature="0"
   style="fill:#50e6ff;stroke:none;stroke-width:17;stroke-linecap:butt" />
				</g>
				<g
   id="shape7607-49"
   transform="translate(10.5339,-9.48561)">
					<title
   id="title127">Sheet.7607</title>
					<path
   d="M 43.49,76.4 A 10.5071,10.2757 -180 0 0 37.03,73.02 13.4535,13.1573 -180 0 0 32.82,64 13.178,12.8877 -180 0 0 23.4,60.51 13.5291,13.2312 -180 0 0 15.46,62.88 13.7465,13.4437 -180 0 0 10.39,69.36 12.4866,12.2116 -180 0 0 2.62,73.3 12.6661,12.3872 -180 0 0 0,77.73 H 19.03 V 93.54 H 35.6 a 10.6079,10.3743 -180 0 0 7.44,-3.08 10.822,10.5837 -180 0 0 3.12,-7.35 10.6929,10.4574 -180 0 0 -2.67,-6.71 z"
   class="st1"
   id="path129"
   inkscape:connector-curvature="0"
   style="fill:url(#linearGradient4861);stroke:none;stroke-width:17;stroke-linecap:butt" />
				</g>
				<g
   id="shape7608-52"
   transform="translate(0,-18.8711)">
					<title
   id="title132">Sheet.7608</title>
					<path
   d="M 29.68,86.07 H 0 v 7.47 h 29.68 z"
   class="st2"
   id="path134"
   inkscape:connector-curvature="0"
   style="fill:#0078d4;stroke:none;stroke-width:17;stroke-linecap:butt" />
				</g>
				<g
   id="shape7609-54"
   transform="translate(2.75266,-20.8286)">
					<title
   id="title137">Sheet.7609</title>
					<path
   d="m 1.76,93.54 a 1.8149676,1.775 -180 1 0 0,-3.55 1.8149676,1.775 -180 0 0 0,3.55 z"
   class="st3"
   id="path139"
   inkscape:connector-curvature="0"
   style="fill:#50e6ff;stroke:none;stroke-width:17;stroke-linecap:butt" />
				</g>
				<g
   id="shape7610-56"
   transform="translate(0,-9.48253)">
					<title
   id="title142">Sheet.7610</title>
					<path
   d="M 29.68,86.08 H 0 v 7.46 h 29.68 z"
   class="st2"
   id="path144"
   inkscape:connector-curvature="0"
   style="fill:#0078d4;stroke:none;stroke-width:17;stroke-linecap:butt" />
				</g>
				<g
   id="shape7611-58"
   transform="translate(2.69921,-11.4385)">
					<title
   id="title147">Sheet.7611</title>
					<path
   d="m 1.81,93.54 a 1.8149676,1.775 -180 1 0 0,-3.55 1.8149676,1.775 -180 0 0 0,3.55 z"
   class="st3"
   id="path149"
   inkscape:connector-curvature="0"
   style="fill:#50e6ff;stroke:none;stroke-width:17;stroke-linecap:butt" />
				</g>
				<g
   id="shape7612-60">
					<title
   id="title152">Sheet.7612</title>
					<path
   d="M 29.68,86.08 H 0 v 7.46 h 29.68 z"
   class="st2"
   id="path154"
   inkscape:connector-curvature="0"
   style="fill:#0078d4;stroke:none;stroke-width:17;stroke-linecap:butt" />
				</g>
				<g
   id="shape7613-62"
   transform="translate(2.69921,-1.95749)">
					<title
   id="title157">Sheet.7613</title>
					<path
   d="m 1.81,93.54 a 1.8149676,1.775 -180 1 0 0,-3.55 1.8149676,1.775 -180 0 0 0,3.55 z"
   class="st3"
   id="path159"
   inkscape:connector-curvature="0"
   style="fill:#50e6ff;stroke:none;stroke-width:17;stroke-linecap:butt" />
				</g>
				<g
   id="shape7614-64"
   transform="translate(10.5339,-9.48561)">
					<title
   id="title162">Sheet.7614</title>
					<path
   d="M 43.49,76.4 A 10.5071,10.2757 -180 0 0 37.03,73.02 13.4535,13.1573 -180 0 0 32.82,64 13.178,12.8877 -180 0 0 23.4,60.51 13.5291,13.2312 -180 0 0 15.46,62.88 13.7465,13.4437 -180 0 0 10.39,69.36 12.4866,12.2116 -180 0 0 2.62,73.3 12.6661,12.3872 -180 0 0 0,77.73 H 19.03 V 93.54 H 35.6 a 10.6079,10.3743 -180 0 0 7.44,-3.08 10.822,10.5837 -180 0 0 3.12,-7.35 10.6929,10.4574 -180 0 0 -2.67,-6.71 z"
   class="st1"
   id="path164"
   inkscape:connector-curvature="0"
   style="fill:url(#linearGradient4863);stroke:none;stroke-width:17;stroke-linecap:butt" />
				</g>
				<g
   id="shape7615-67"
   transform="translate(0,-18.8711)">
					<title
   id="title167">Sheet.7615</title>
					<path
   d="M 29.68,86.07 H 0 v 7.47 h 29.68 z"
   class="st2"
   id="path169"
   inkscape:connector-curvature="0"
   style="fill:#0078d4;stroke:none;stroke-width:17;stroke-linecap:butt" />
				</g>
				<g
   id="shape7616-69"
   transform="translate(2.75266,-20.8286)">
					<title
   id="title172">Sheet.7616</title>
					<path
   d="m 1.76,93.54 a 1.8149676,1.775 -180 1 0 0,-3.55 1.8149676,1.775 -180 0 0 0,3.55 z"
   class="st3"
   id="path174"
   inkscape:connector-curvature="0"
   style="fill:#50e6ff;stroke:none;stroke-width:17;stroke-linecap:butt" />
				</g>
				<g
   id="shape7617-71"
   transform="translate(0,-9.48253)">
					<title
   id="title177">Sheet.7617</title>
					<path
   d="M 29.68,86.08 H 0 v 7.46 h 29.68 z"
   class="st2"
   id="path179"
   inkscape:connector-curvature="0"
   style="fill:#0078d4;stroke:none;stroke-width:17;stroke-linecap:butt" />
				</g>
				<g
   id="shape7618-73"
   transform="translate(2.69921,-11.4385)">
					<title
   id="title182">Sheet.7618</title>
					<path
   d="m 1.81,93.54 a 1.8149676,1.775 -180 1 0 0,-3.55 1.8149676,1.775 -180 0 0 0,3.55 z"
   class="st3"
   id="path184"
   inkscape:connector-curvature="0"
   style="fill:#50e6ff;stroke:none;stroke-width:17;stroke-linecap:butt" />
				</g>
				<g
   id="shape7619-75">
					<title
   id="title187">Sheet.7619</title>
					<path
   d="M 29.68,86.08 H 0 v 7.46 h 29.68 z"
   class="st2"
   id="path189"
   inkscape:connector-curvature="0"
   style="fill:#0078d4;stroke:none;stroke-width:17;stroke-linecap:butt" />
				</g>
				<g
   id="shape7620-77"
   transform="translate(2.69921,-1.95749)">
					<title
   id="title192">Sheet.7620</title>
					<path
   d="m 1.81,93.54 a 1.8149676,1.775 -180 1 0 0,-3.55 1.8149676,1.775 -180 0 0 0,3.55 z"
   class="st3"
   id="path194"
   inkscape:connector-curvature="0"
   style="fill:#50e6ff;stroke:none;stroke-width:17;stroke-linecap:butt" />
				</g>
				<g
   id="shape7621-79"
   transform="translate(10.5339,-9.48561)">
					<title
   id="title197">Sheet.7621</title>
					<path
   d="M 43.49,76.4 A 10.5071,10.2757 -180 0 0 37.03,73.02 13.4535,13.1573 -180 0 0 32.82,64 13.178,12.8877 -180 0 0 23.4,60.51 13.5291,13.2312 -180 0 0 15.46,62.88 13.7465,13.4437 -180 0 0 10.39,69.36 12.4866,12.2116 -180 0 0 2.62,73.3 12.6661,12.3872 -180 0 0 0,77.73 H 19.03 V 93.54 H 35.6 a 10.6079,10.3743 -180 0 0 7.44,-3.08 10.822,10.5837 -180 0 0 3.12,-7.35 10.6929,10.4574 -180 0 0 -2.67,-6.71 z"
   class="st1"
   id="path199"
   inkscape:connector-curvature="0"
   style="fill:url(#linearGradient4865);stroke:none;stroke-width:17;stroke-linecap:butt" />
				</g>
				<g
   id="shape7622-82"
   transform="translate(0,-18.8711)">
					<title
   id="title202">Sheet.7622</title>
					<path
   d="M 29.68,86.07 H 0 v 7.47 h 29.68 z"
   class="st2"
   id="path204"
   inkscape:connector-curvature="0"
   style="fill:#0078d4;stroke:none;stroke-width:17;stroke-linecap:butt" />
				</g>
				<g
   id="shape7623-84"
   transform="translate(2.75266,-20.8286)">
					<title
   id="title207">Sheet.7623</title>
					<path
   d="m 1.76,93.54 a 1.8149676,1.775 -180 1 0 0,-3.55 1.8149676,1.775 -180 0 0 0,3.55 z"
   class="st3"
   id="path209"
   inkscape:connector-curvature="0"
   style="fill:#50e6ff;stroke:none;stroke-width:17;stroke-linecap:butt" />
				</g>
				<g
   id="shape7624-86"
   transform="translate(0,-9.48253)">
					<title
   id="title212">Sheet.7624</title>
					<path
   d="M 29.68,86.08 H 0 v 7.46 h 29.68 z"
   class="st2"
   id="path214"
   inkscape:connector-curvature="0"
   style="fill:#0078d4;stroke:none;stroke-width:17;stroke-linecap:butt" />
				</g>
				<g
   id="shape7625-88"
   transform="translate(2.69921,-11.4385)">
					<title
   id="title217">Sheet.7625</title>
					<path
   d="m 1.81,93.54 a 1.8149676,1.775 -180 1 0 0,-3.55 1.8149676,1.775 -180 0 0 0,3.55 z"
   class="st3"
   id="path219"
   inkscape:connector-curvature="0"
   style="fill:#50e6ff;stroke:none;stroke-width:17;stroke-linecap:butt" />
				</g>
				<g
   id="shape7626-90">
					<title
   id="title222">Sheet.7626</title>
					<path
   d="M 29.68,86.08 H 0 v 7.46 h 29.68 z"
   class="st2"
   id="path224"
   inkscape:connector-curvature="0"
   style="fill:#0078d4;stroke:none;stroke-width:17;stroke-linecap:butt" />
				</g>
				<g
   id="shape7627-92"
   transform="translate(2.69921,-1.95749)">
					<title
   id="title227">Sheet.7627</title>
					<path
   d="m 1.81,93.54 a 1.8149676,1.775 -180 1 0 0,-3.55 1.8149676,1.775 -180 0 0 0,3.55 z"
   class="st3"
   id="path229"
   inkscape:connector-curvature="0"
   style="fill:#50e6ff;stroke:none;stroke-width:17;stroke-linecap:butt" />
				</g>
				<g
   id="shape7628-94"
   transform="translate(10.5339,-9.48561)">
					<title
   id="title232">Sheet.7628</title>
					<path
   d="M 43.49,76.4 A 10.5071,10.2757 -180 0 0 37.03,73.02 13.4535,13.1573 -180 0 0 32.82,64 13.178,12.8877 -180 0 0 23.4,60.51 13.5291,13.2312 -180 0 0 15.46,62.88 13.7465,13.4437 -180 0 0 10.39,69.36 12.4866,12.2116 -180 0 0 2.62,73.3 12.6661,12.3872 -180 0 0 0,77.73 H 19.03 V 93.54 H 35.6 a 10.6079,10.3743 -180 0 0 7.44,-3.08 10.822,10.5837 -180 0 0 3.12,-7.35 10.6929,10.4574 -180 0 0 -2.67,-6.71 z"
   class="st1"
   id="path234"
   inkscape:connector-curvature="0"
   style="fill:url(#linearGradient4867);stroke:none;stroke-width:17;stroke-linecap:butt" />
				</g>
				<g
   id="shape7629-97"
   transform="translate(0,-18.8711)">
					<title
   id="title237">Sheet.7629</title>
					<path
   d="M 29.68,86.07 H 0 v 7.47 h 29.68 z"
   class="st2"
   id="path239"
   inkscape:connector-curvature="0"
   style="fill:#0078d4;stroke:none;stroke-width:17;stroke-linecap:butt" />
				</g>
				<g
   id="shape7630-99"
   transform="translate(2.75266,-20.8286)">
					<title
   id="title242">Sheet.7630</title>
					<path
   d="m 1.76,93.54 a 1.8149676,1.775 -180 1 0 0,-3.55 1.8149676,1.775 -180 0 0 0,3.55 z"
   class="st3"
   id="path244"
   inkscape:connector-curvature="0"
   style="fill:#50e6ff;stroke:none;stroke-width:17;stroke-linecap:butt" />
				</g>
				<g
   id="shape7631-101"
   transform="translate(0,-9.48253)">
					<title
   id="title247">Sheet.7631</title>
					<path
   d="M 29.68,86.08 H 0 v 7.46 h 29.68 z"
   class="st2"
   id="path249"
   inkscape:connector-curvature="0"
   style="fill:#0078d4;stroke:none;stroke-width:17;stroke-linecap:butt" />
				</g>
				<g
   id="shape7632-103"
   transform="translate(2.69921,-11.4385)">
					<title
   id="title252">Sheet.7632</title>
					<path
   d="m 1.81,93.54 a 1.8149676,1.775 -180 1 0 0,-3.55 1.8149676,1.775 -180 0 0 0,3.55 z"
   class="st3"
   id="path254"
   inkscape:connector-curvature="0"
   style="fill:#50e6ff;stroke:none;stroke-width:17;stroke-linecap:butt" />
				</g>
				<g
   id="shape7633-105">
					<title
   id="title257">Sheet.7633</title>
					<path
   d="M 29.68,86.08 H 0 v 7.46 h 29.68 z"
   class="st2"
   id="path259"
   inkscape:connector-curvature="0"
   style="fill:#0078d4;stroke:none;stroke-width:17;stroke-linecap:butt" />
				</g>
				<g
   id="shape7634-107"
   transform="translate(2.69921,-1.95749)">
					<title
   id="title262">Sheet.7634</title>
					<path
   d="m 1.81,93.54 a 1.8149676,1.775 -180 1 0 0,-3.55 1.8149676,1.775 -180 0 0 0,3.55 z"
   class="st3"
   id="path264"
   inkscape:connector-curvature="0"
   style="fill:#50e6ff;stroke:none;stroke-width:17;stroke-linecap:butt" />
				</g>
				<g
   id="shape7635-109"
   transform="translate(10.5339,-9.48561)">
					<title
   id="title267">Sheet.7635</title>
					<path
   d="M 43.49,76.4 A 10.5071,10.2757 -180 0 0 37.03,73.02 13.4535,13.1573 -180 0 0 32.82,64 13.178,12.8877 -180 0 0 23.4,60.51 13.5291,13.2312 -180 0 0 15.46,62.88 13.7465,13.4437 -180 0 0 10.39,69.36 12.4866,12.2116 -180 0 0 2.62,73.3 12.6661,12.3872 -180 0 0 0,77.73 H 19.03 V 93.54 H 35.6 a 10.6079,10.3743 -180 0 0 7.44,-3.08 10.822,10.5837 -180 0 0 3.12,-7.35 10.6929,10.4574 -180 0 0 -2.67,-6.71 z"
   class="st1"
   id="path269"
   inkscape:connector-curvature="0"
   style="fill:url(#linearGradient4869);stroke:none;stroke-width:17;stroke-linecap:butt" />
				</g>
				<g
   id="shape7636-112"
   transform="translate(0,-18.8711)">
					<title
   id="title272">Sheet.7636</title>
					<path
   d="M 29.68,86.07 H 0 v 7.47 h 29.68 z"
   class="st2"
   id="path274"
   inkscape:connector-curvature="0"
   style="fill:#0078d4;stroke:none;stroke-width:17;stroke-linecap:butt" />
				</g>
				<g
   id="shape7637-114"
   transform="translate(2.75266,-20.8286)">
					<title
   id="title277">Sheet.7637</title>
					<path
   d="m 1.76,93.54 a 1.8149676,1.775 -180 1 0 0,-3.55 1.8149676,1.775 -180 0 0 0,3.55 z"
   class="st3"
   id="path279"
   inkscape:connector-curvature="0"
   style="fill:#50e6ff;stroke:none;stroke-width:17;stroke-linecap:butt" />
				</g>
				<g
   id="shape7638-116"
   transform="translate(0,-9.48253)">
					<title
   id="title282">Sheet.7638</title>
					<path
   d="M 29.68,86.08 H 0 v 7.46 h 29.68 z"
   class="st2"
   id="path284"
   inkscape:connector-curvature="0"
   style="fill:#0078d4;stroke:none;stroke-width:17;stroke-linecap:butt" />
				</g>
				<g
   id="shape7639-118"
   transform="translate(2.69921,-11.4385)">
					<title
   id="title287">Sheet.7639</title>
					<path
   d="m 1.81,93.54 a 1.8149676,1.775 -180 1 0 0,-3.55 1.8149676,1.775 -180 0 0 0,3.55 z"
   class="st3"
   id="path289"
   inkscape:connector-curvature="0"
   style="fill:#50e6ff;stroke:none;stroke-width:17;stroke-linecap:butt" />
				</g>
				<g
   id="shape7640-120">
					<title
   id="title292">Sheet.7640</title>
					<path
   d="M 29.68,86.08 H 0 v 7.46 h 29.68 z"
   class="st2"
   id="path294"
   inkscape:connector-curvature="0"
   style="fill:#0078d4;stroke:none;stroke-width:17;stroke-linecap:butt" />
				</g>
				<g
   id="shape7641-122"
   transform="translate(2.69921,-1.95749)">
					<title
   id="title297">Sheet.7641</title>
					<path
   d="m 1.81,93.54 a 1.8149676,1.775 -180 1 0 0,-3.55 1.8149676,1.775 -180 0 0 0,3.55 z"
   class="st3"
   id="path299"
   inkscape:connector-curvature="0"
   style="fill:#50e6ff;stroke:none;stroke-width:17;stroke-linecap:butt" />
				</g>
				<g
   id="shape7642-124"
   transform="translate(10.5339,-9.48561)">
					<title
   id="title302">Sheet.7642</title>
					<path
   d="M 43.49,76.4 A 10.5071,10.2757 -180 0 0 37.03,73.02 13.4535,13.1573 -180 0 0 32.82,64 13.178,12.8877 -180 0 0 23.4,60.51 13.5291,13.2312 -180 0 0 15.46,62.88 13.7465,13.4437 -180 0 0 10.39,69.36 12.4866,12.2116 -180 0 0 2.62,73.3 12.6661,12.3872 -180 0 0 0,77.73 H 19.03 V 93.54 H 35.6 a 10.6079,10.3743 -180 0 0 7.44,-3.08 10.822,10.5837 -180 0 0 3.12,-7.35 10.6929,10.4574 -180 0 0 -2.67,-6.71 z"
   class="st1"
   id="path304"
   inkscape:connector-curvature="0"
   style="fill:url(#linearGradient4871);stroke:none;stroke-width:17;stroke-linecap:butt" />
				</g>
				<g
   id="shape7643-127"
   transform="translate(0,-18.8711)">
					<title
   id="title307">Sheet.7643</title>
					<path
   d="M 29.68,86.07 H 0 v 7.47 h 29.68 z"
   class="st3"
   id="path309"
   inkscape:connector-curvature="0"
   style="fill:#50e6ff;stroke:none;stroke-width:17;stroke-linecap:butt" />
				</g>
				<g
   id="shape7644-129"
   transform="translate(2.75266,-20.8286)">
					<title
   id="title312">Sheet.7644</title>
					<path
   d="m 1.76,93.54 a 1.8149676,1.775 -180 1 0 0,-3.55 1.8149676,1.775 -180 0 0 0,3.55 z"
   class="st4"
   id="path314"
   inkscape:connector-curvature="0"
   style="fill:#ffffff;stroke:none;stroke-width:17;stroke-linecap:butt" />
				</g>
				<g
   id="shape7645-131"
   transform="translate(0,-9.48253)">
					<title
   id="title317">Sheet.7645</title>
					<path
   d="M 29.68,86.08 H 0 v 7.46 h 29.68 z"
   class="st3"
   id="path319"
   inkscape:connector-curvature="0"
   style="fill:#50e6ff;stroke:none;stroke-width:17;stroke-linecap:butt" />
				</g>
				<g
   id="shape7646-133"
   transform="translate(2.69921,-11.4385)">
					<title
   id="title322">Sheet.7646</title>
					<path
   d="m 1.81,93.54 a 1.8149676,1.775 -180 1 0 0,-3.55 1.8149676,1.775 -180 0 0 0,3.55 z"
   class="st4"
   id="path324"
   inkscape:connector-curvature="0"
   style="fill:#ffffff;stroke:none;stroke-width:17;stroke-linecap:butt" />
				</g>
				<g
   id="shape7647-135">
					<title
   id="title327">Sheet.7647</title>
					<path
   d="M 29.68,86.08 H 0 v 7.46 h 29.68 z"
   class="st3"
   id="path329"
   inkscape:connector-curvature="0"
   style="fill:#50e6ff;stroke:none;stroke-width:17;stroke-linecap:butt" />
				</g>
				<g
   id="shape7648-137"
   transform="translate(2.69921,-1.95749)">
					<title
   id="title332">Sheet.7648</title>
					<path
   d="m 1.81,93.54 a 1.8149676,1.775 -180 1 0 0,-3.55 1.8149676,1.775 -180 0 0 0,3.55 z"
   class="st4"
   id="path334"
   inkscape:connector-curvature="0"
   style="fill:#ffffff;stroke:none;stroke-width:17;stroke-linecap:butt" />
				</g>
			</g>
		</g>
	</g>
</svg>