<?xml version="1.0" encoding="UTF-8" standalone="no"?>
<!DOCTYPE svg PUBLIC "-//W3C//DTD SVG 1.1//EN" "http://www.w3.org/Graphics/SVG/1.1/DTD/svg11.dtd">
<!-- Generated by Microsoft Visio, SVG Export Cognitive Services Health and Life Science.svg Page-1 -->
<svg xmlns="http://www.w3.org/2000/svg" xmlns:xlink="http://www.w3.org/1999/xlink" xmlns:ev="http://www.w3.org/2001/xml-events"
		width="0.962659in" height="1.34747in" viewBox="0 0 69.3115 97.0179" xml:space="preserve" color-interpolation-filters="sRGB"
		class="st3">
	<style type="text/css">
	<![CDATA[
		.st1 {fill:#0078d4;stroke:none;stroke-linecap:butt;stroke-width:6.30928}
		.st2 {fill:#50e6ff;stroke:none;stroke-linecap:butt;stroke-width:6.30928}
		.st3 {fill:none;fill-rule:evenodd;font-size:12px;overflow:visible;stroke-linecap:square;stroke-miterlimit:3}
	]]>
	</style>

	<g>
		<title>Page-1</title>
		<g id="group6293-1" transform="translate(6.30928,-34.0157)">
			<title>Cognitive Services Health and Life Science</title>
			<g id="shape6294-2">
				<title>Sheet.6294</title>
				<path d="M28.35 40.33 C12.69 40.33 0 53.02 0 68.67 C0 84.33 12.69 97.02 28.35 97.02 C44 97.02 56.69 84.33 56.69 68.67
							 C56.69 53.02 44 40.33 28.35 40.33 ZM28.35 40.77 C43.73 40.77 56.25 53.29 56.25 68.67 C56.25 84.06 43.73
							 96.58 28.35 96.58 C12.96 96.58 0.44 84.06 0.44 68.67 C0.44 53.29 12.96 40.77 28.35 40.77 Z"
						class="st1"/>
			</g>
			<g id="shape6295-4" transform="translate(6.64368,-6.6437)">
				<title>Sheet.6295</title>
				<path d="M21.7 53.61 C9.72 53.61 0 63.33 0 75.32 C0 87.3 9.72 97.02 21.7 97.02 C33.69 97.02 43.41 87.3 43.41 75.32
							 C43.41 63.33 33.69 53.61 21.7 53.61 ZM21.7 54.05 C33.43 54.05 42.96 63.59 42.96 75.32 C42.96 87.04 33.43
							 96.58 21.7 96.58 C9.98 96.58 0.44 87.04 0.44 75.32 C0.44 63.59 9.98 54.05 21.7 54.05 Z" class="st1"/>
			</g>
			<g id="shape6296-6" transform="translate(12.8445,-12.8445)">
				<title>Sheet.6296</title>
				<path d="M15.28 66.46 C6.84 66.46 0 73.3 0 81.74 C0 90.18 6.84 97.02 15.28 97.02 C23.72 97.02 30.56 90.18 30.56 81.74
							 C30.56 73.3 23.72 66.46 15.28 66.46 ZM15.28 66.9 C23.46 66.9 30.12 73.56 30.12 81.74 C30.12 89.92 23.46
							 96.57 15.28 96.57 C7.1 96.57 0.44 89.92 0.44 81.74 C0.44 73.56 7.1 66.9 15.28 66.9 Z" class="st1"/>
			</g>
			<g id="shape6297-8" transform="translate(23.0315,-23.0315)">
				<title>Sheet.6297</title>
				<path d="M10.63 91.7 C10.63 94.64 8.25 97.02 5.31 97.02 C2.38 97.02 0 94.64 0 91.7 C0 88.77 2.38 86.39 5.31 86.39
							 C8.25 86.39 10.63 88.77 10.63 91.7 Z" class="st1"/>
			</g>
			<g id="shape6298-10" transform="translate(38.0905,-17.7165)">
				<title>Sheet.6298</title>
				<path d="M5.31 94.36 C5.31 95.83 4.12 97.02 2.66 97.02 C1.19 97.02 0 95.83 0 94.36 C0 92.89 1.19 91.7 2.66 91.7 C4.12
							 91.7 5.31 92.89 5.31 94.36 Z" class="st1"/>
			</g>
			<g id="shape6299-12" transform="translate(10.6299,-24.8031)">
				<title>Sheet.6299</title>
				<path d="M5.31 94.36 C5.31 95.83 4.12 97.02 2.66 97.02 C1.19 97.02 0 95.83 0 94.36 C0 92.89 1.19 91.7 2.66 91.7 C4.12
							 91.7 5.31 92.89 5.31 94.36 Z" class="st1"/>
			</g>
			<g id="shape6300-14" transform="translate(30.1181,-46.063)">
				<title>Sheet.6300</title>
				<path d="M5.31 94.36 C5.31 95.83 4.12 97.02 2.66 97.02 C1.19 97.02 0 95.83 0 94.36 C0 92.89 1.19 91.7 2.66 91.7 C4.12
							 91.7 5.31 92.89 5.31 94.36 Z" class="st2"/>
			</g>
			<g id="shape6301-16" transform="translate(40.748,-1.77165)">
				<title>Sheet.6301</title>
				<path d="M5.31 94.36 C5.31 95.83 4.12 97.02 2.66 97.02 C1.19 97.02 0 95.83 0 94.36 C0 92.89 1.19 91.7 2.66 91.7 C4.12
							 91.7 5.31 92.89 5.31 94.36 Z" class="st1"/>
			</g>
			<g id="shape6302-18" transform="translate(3.54331,-8.85827)">
				<title>Sheet.6302</title>
				<path d="M5.31 94.36 C5.31 95.83 4.12 97.02 2.66 97.02 C1.19 97.02 0 95.83 0 94.36 C0 92.89 1.19 91.7 2.66 91.7 C4.12
							 91.7 5.31 92.89 5.31 94.36 Z" class="st2"/>
			</g>
			<g id="shape6303-20" transform="translate(47.8346,-42.5197)">
				<title>Sheet.6303</title>
				<path d="M5.31 94.36 C5.31 95.83 4.12 97.02 2.66 97.02 C1.19 97.02 0 95.83 0 94.36 C0 92.89 1.19 91.7 2.66 91.7 C4.12
							 91.7 5.31 92.89 5.31 94.36 Z" class="st1"/>
			</g>
		</g>
	</g>
</svg>
