<?xml version="1.0" encoding="UTF-8" standalone="no"?>
<!DOCTYPE svg PUBLIC "-//W3C//DTD SVG 1.1//EN" "http://www.w3.org/Graphics/SVG/1.1/DTD/svg11.dtd">
<!-- Generated by Microsoft Visio, SVG Export Cognitive Services Anomaly Detector.svg Page-1 -->
<svg xmlns="http://www.w3.org/2000/svg" xmlns:xlink="http://www.w3.org/1999/xlink" xmlns:ev="http://www.w3.org/2001/xml-events"
		width="1.06609in" height="1.16297in" viewBox="0 0 76.7585 83.7336" xml:space="preserve" color-interpolation-filters="sRGB"
		class="st2">
	<style type="text/css">
	<![CDATA[
		.st1 {fill:#0078d4;stroke:none;stroke-linecap:butt;stroke-width:10.0328}
		.st2 {fill:none;fill-rule:evenodd;font-size:12px;overflow:visible;stroke-linecap:square;stroke-miterlimit:3}
	]]>
	</style>

	<g>
		<title>Page-1</title>
		<g id="group3650-1" transform="translate(10.0328,-34.0157)">
			<title>Cognitive Services Anomaly Detector</title>
			<g id="shape3651-2" transform="translate(51.0979,0)">
				<title>Sheet.3651</title>
				<path d="M5.59 44.05 L0 44.05 L0 83.73 L5.59 83.73 L5.59 44.05 Z" class="st1"/>
			</g>
			<g id="shape3652-4" transform="translate(30.6776,0)">
				<title>Sheet.3652</title>
				<path d="M5.59 44.05 L0 44.05 L0 83.73 L5.59 83.73 L5.59 44.05 Z" class="st1"/>
			</g>
			<g id="shape3653-6" transform="translate(10.2132,0)">
				<title>Sheet.3653</title>
				<path d="M5.59 44.05 L0 44.05 L0 83.73 L5.59 83.73 L5.59 44.05 Z" class="st1"/>
			</g>
			<g id="shape3654-8" transform="translate(-2.84772E-14,-0.0393109)">
				<title>Sheet.3654</title>
				<path d="M5.59 53.4 L0 53.4 L0 83.73 L5.59 83.73 L5.59 53.4 Z" class="st1"/>
			</g>
			<g id="shape3655-10" transform="translate(20.4202,-0.0393109)">
				<title>Sheet.3655</title>
				<path d="M5.59 53.4 L0 53.4 L0 83.73 L5.59 83.73 L5.59 53.4 Z" class="st1"/>
			</g>
			<g id="shape3656-12" transform="translate(40.8845,-0.042199)">
				<title>Sheet.3656</title>
				<path d="M5.6 77.81 L0 77.81 L0 83.73 L5.6 83.73 L5.6 77.81 Z" class="st1"/>
			</g>
		</g>
	</g>
</svg>
