<?xml version="1.0" encoding="UTF-8" standalone="no"?>
<!-- Generated by Microsoft Visio, SVG Export Cognitive Services Face API.svg Page-1 -->
<svg xmlns:dc="http://purl.org/dc/elements/1.1/" xmlns:cc="http://creativecommons.org/ns#" xmlns:rdf="http://www.w3.org/1999/02/22-rdf-syntax-ns#" xmlns:svg="http://www.w3.org/2000/svg" xmlns="http://www.w3.org/2000/svg" xmlns:sodipodi="http://sodipodi.sourceforge.net/DTD/sodipodi-0.dtd" xmlns:inkscape="http://www.inkscape.org/namespaces/inkscape" width="56.689602" height="56.69003" viewBox="0 0 56.689602 56.69003" xml:space="preserve" class="st3" version="1.1" id="svg30" sodipodi:docname="Cognitive Services Face API.svg" style="font-size:12px;overflow:visible;color-interpolation-filters:sRGB;fill:none;fill-rule:evenodd;stroke-linecap:square;stroke-miterlimit:3" inkscape:version="0.92.5 (2060ec1f9f, 2020-04-08)">
  <metadata id="metadata34">
    <rdf:RDF>
      <cc:Work rdf:about="">
        <dc:format>image/svg+xml</dc:format>
        <dc:type rdf:resource="http://purl.org/dc/dcmitype/StillImage" />
      </cc:Work>
    </rdf:RDF>
  </metadata>
  <sodipodi:namedview pagecolor="#ffffff" bordercolor="#666666" borderopacity="1" objecttolerance="10" gridtolerance="10" guidetolerance="10" inkscape:pageopacity="0" inkscape:pageshadow="2" inkscape:window-width="640" inkscape:window-height="480" id="namedview32" showgrid="false" inkscape:zoom="1.4193119" inkscape:cx="37.79513" inkscape:cy="37.786211" inkscape:window-x="0" inkscape:window-y="0" inkscape:window-maximized="0" inkscape:current-layer="svg30" />
	<style type="text/css" id="style2">
	<![CDATA[
		.st1 {fill:url(#grad0-6);stroke:none;stroke-linecap:butt;stroke-width:34}
		.st2 {fill:#50e6ff;stroke:none;stroke-linecap:butt;stroke-width:34}
		.st3 {fill:none;fill-rule:evenodd;font-size:12px;overflow:visible;stroke-linecap:square;stroke-miterlimit:3}
	]]>
	</style>

	<defs id="Patterns_And_Gradients">
		<linearGradient id="grad0-6" x1="0.79051181" y1="68.309518" x2="45.513873" y2="68.309518" gradientTransform="scale(0.9063658,1.1033073)" gradientUnits="userSpaceOnUse">
			<stop offset="0.225" stop-color="#5ea0ef" stop-opacity="1" id="stop4" />
			<stop offset="1" stop-color="#0078d4" stop-opacity="1" id="stop6" />
		</linearGradient>
	</defs>
	<g id="g28" transform="translate(-34.00044,-34.004286)">
		<title id="title10">Page-1</title>
		<g id="group6732-1" transform="translate(34,-34.0157)">
			<title id="title12">Cognitive Services Face API</title>
			<g id="group6733-2">
				<title id="title14">Sheet.6733</title>
				<g id="shape6734-3" transform="translate(7.558,-3.26614)">
					<title id="title16">Sheet.6734</title>
					<path d="M 41.03,101.83 C 40.48,100.57 37.87,99.94 38.43,97 A 20.7695,20.7118 -180 0 0 37.98,84.34 16.0604,16.0157 -180 0 0 24.49,75.52 39.9535,39.8425 -180 0 0 17.48,75.52 16.0667,16.022 -180 0 0 3.99,84.34 20.7442,20.6866 -180 0 0 3.54,97 c 0.56,2.94 -2.05,3.57 -2.59,4.83 -0.95,2.18 1.26,7.23 1.96,9.36 0.7,2.13 3.95,1.02 4.77,2.89 2.61,5.9 5.94,10.15 12.44,10.58 a 4.36172,4.34961 -180 0 0 0.61,0.05 h 0.51 a 4.29224,4.28031 -180 0 0 0.61,-0.05 c 6.51,-0.43 9.83,-4.68 12.44,-10.58 0.82,-1.87 4.08,-0.76 4.78,-2.89 0.69,-2.14 2.88,-7.19 1.96,-9.36 z" class="st1" id="path18" inkscape:connector-curvature="0" style="fill:url(#grad0-6);stroke:none;stroke-width:34;stroke-linecap:butt" />
				</g>
				<g id="shape6735-7">
					<title id="title21">Sheet.6735</title>
					<path d="M 1.82,83.47 A 1.81291,1.80787 0 0 1 0,81.67 V 69.82 a 1.81291,1.80787 0 0 1 1.82,-1.8 h 11.11 a 1.81607,1.81102 0 0 1 0,3.61 H 3.64 v 10.04 a 1.81291,1.80787 0 0 1 -1.82,1.8 z m 53.06,0 a 1.81291,1.80787 0 0 1 -1.82,-1.8 V 71.63 h -9.31 a 1.81607,1.81102 0 0 1 0,-3.61 h 11.13 a 1.81291,1.80787 0 0 1 1.81,1.8 v 11.85 a 1.81291,1.80787 0 0 1 -1.81,1.8 z M 12.94,124.71 H 1.82 A 1.81291,1.80787 0 0 1 0,122.9 v -11.84 a 1.81607,1.81102 0 0 1 3.63,0 v 10.03 h 9.31 a 1.81607,1.81102 0 0 1 0,3.62 z m 41.94,0 H 43.76 a 1.81607,1.81102 0 0 1 0,-3.62 h 9.3 v -10.03 a 1.81607,1.81102 0 0 1 3.63,0 v 11.84 a 1.81291,1.80787 0 0 1 -1.81,1.81 z" class="st2" id="path23" inkscape:connector-curvature="0" style="fill:#50e6ff;stroke:none;stroke-width:34;stroke-linecap:butt" />
				</g>
			</g>
		</g>
	</g>
</svg>