<?xml version="1.0" encoding="UTF-8" standalone="no"?>
<!DOCTYPE svg PUBLIC "-//W3C//DTD SVG 1.1//EN" "http://www.w3.org/Graphics/SVG/1.1/DTD/svg11.dtd">
<!-- Generated by Microsoft Visio, SVG Export Cognitive Services Anomaly Detector.svg Page-1 -->
<svg xmlns="http://www.w3.org/2000/svg" xmlns:xlink="http://www.w3.org/1999/xlink" xmlns:ev="http://www.w3.org/2001/xml-events"
		width="1.5748in" height="1.54486in" viewBox="0 0 113.386 111.23" xml:space="preserve" color-interpolation-filters="sRGB"
		class="st2">
	<style type="text/css">
	<![CDATA[
		.st1 {fill:#0078d4;stroke:none;stroke-linecap:butt;stroke-width:10.0328}
		.st2 {fill:none;fill-rule:evenodd;font-size:12px;overflow:visible;stroke-linecap:square;stroke-miterlimit:3}
	]]>
	</style>

	<g>
		<title>Page-1</title>
		<g id="group3803-1" transform="translate(28.3465,-61.5118)">
			<title>Cognitive Services Anomaly Detector</title>
			<g id="shape3804-2" transform="translate(51.0979,0)">
				<title>Sheet.3804</title>
				<path d="M5.59 71.54 L0 71.54 L0 111.23 L5.59 111.23 L5.59 71.54 Z" class="st1"/>
			</g>
			<g id="shape3805-4" transform="translate(30.6776,0)">
				<title>Sheet.3805</title>
				<path d="M5.59 71.54 L0 71.54 L0 111.23 L5.59 111.23 L5.59 71.54 Z" class="st1"/>
			</g>
			<g id="shape3806-6" transform="translate(10.2132,0)">
				<title>Sheet.3806</title>
				<path d="M5.59 71.54 L0 71.54 L0 111.23 L5.59 111.23 L5.59 71.54 Z" class="st1"/>
			</g>
			<g id="shape3807-8" transform="translate(-2.84772E-14,-0.0393109)">
				<title>Sheet.3807</title>
				<path d="M5.59 80.89 L0 80.89 L0 111.23 L5.59 111.23 L5.59 80.89 Z" class="st1"/>
			</g>
			<g id="shape3808-10" transform="translate(20.4202,-0.0393109)">
				<title>Sheet.3808</title>
				<path d="M5.59 80.89 L0 80.89 L0 111.23 L5.59 111.23 L5.59 80.89 Z" class="st1"/>
			</g>
			<g id="shape3809-12" transform="translate(40.8845,-0.042199)">
				<title>Sheet.3809</title>
				<path d="M5.6 105.31 L0 105.31 L0 111.23 L5.6 111.23 L5.6 105.31 Z" class="st1"/>
			</g>
		</g>
	</g>
</svg>
