<?xml version="1.0" encoding="UTF-8" standalone="no"?>
<!DOCTYPE svg PUBLIC "-//W3C//DTD SVG 1.1//EN" "http://www.w3.org/Graphics/SVG/1.1/DTD/svg11.dtd">
<!-- Generated by Microsoft Visio, SVG Export Cognitive Services Intelligence.svg Page-1 -->
<svg xmlns="http://www.w3.org/2000/svg" xmlns:xlink="http://www.w3.org/1999/xlink" xmlns:ev="http://www.w3.org/2001/xml-events"
		width="1.49606in" height="1.85039in" viewBox="0 0 107.717 133.228" xml:space="preserve" color-interpolation-filters="sRGB"
		class="st2">
	<style type="text/css">
	<![CDATA[
		.st1 {fill:#389cd6;stroke:none;stroke-linecap:butt;stroke-width:5.31712}
		.st2 {fill:none;fill-rule:evenodd;font-size:12px;overflow:visible;stroke-linecap:square;stroke-miterlimit:3}
	]]>
	</style>

	<g>
		<title>Page-1</title>
		<g id="group3646-1" transform="translate(26.9291,-70.8661)">
			<title>Cognitive Services Intelligence</title>
			<g id="group3647-2">
				<title>Sheet.3647</title>
				<g id="shape3648-3" transform="translate(16.4567,-23.3245)">
					<title>Sheet.3648</title>
					<path d="M0.94 130.37 C0.94 130.09 0.75 129.9 0.47 129.9 C0.19 129.9 0 130.09 0 130.37 L0 132.75 C0 133.04 0.19
								 133.23 0.47 133.23 C0.75 133.23 0.94 133.04 0.94 132.75 L0.94 130.37 Z" class="st1"/>
				</g>
				<g id="shape3649-5" transform="translate(20.5241,-35.2248)">
					<title>Sheet.3649</title>
					<path d="M0.47 129.9 C0.19 129.9 0 130.09 0 130.37 L0 132.75 C0 133.04 0.19 133.23 0.47 133.23 C0.75 133.23 0.94
								 133.04 0.94 132.75 L0.94 130.37 C0.94 130.09 0.7 129.9 0.47 129.9 Z" class="st1"/>
				</g>
				<g id="shape3650-7" transform="translate(20.5241,-39.9849)">
					<title>Sheet.3650</title>
					<path d="M0.47 129.9 C0.19 129.9 0 130.09 0 130.37 L0 132.75 C0 133.04 0.19 133.23 0.47 133.23 C0.75 133.23 0.94
								 133.04 0.94 132.75 L0.94 130.37 C0.94 130.09 0.7 129.9 0.47 129.9 Z" class="st1"/>
				</g>
				<g id="shape3651-9" transform="translate(16.4567,-28.0847)">
					<title>Sheet.3651</title>
					<path d="M0.47 133.23 C0.75 133.23 0.94 133.04 0.94 132.75 L0.94 130.37 C0.94 130.09 0.75 129.9 0.47 129.9 C0.19
								 129.9 0 130.09 0 130.37 L0 132.75 C0 133.04 0.19 133.23 0.47 133.23 Z" class="st1"/>
				</g>
				<g id="shape3652-11" transform="translate(20.5241,-16.0892)">
					<title>Sheet.3652</title>
					<path d="M0.47 133.23 C0.75 133.23 0.94 133.04 0.94 132.75 L0.94 130.37 C0.94 130.09 0.75 129.9 0.47 129.9 C0.19
								 129.9 0 130.09 0 130.37 L0 132.75 C0 132.99 0.19 133.23 0.47 133.23 Z" class="st1"/>
				</g>
				<g id="shape3653-13" transform="translate(17.2515,-32.3687)">
					<title>Sheet.3653</title>
					<path d="M0.51 133.23 C0.61 133.23 0.65 133.23 0.75 133.18 L2.76 131.99 C2.99 131.85 3.04 131.56 2.95 131.32
								 C2.81 131.09 2.52 131.04 2.29 131.13 L0.28 132.32 C0.05 132.47 0 132.75 0.09 132.99 C0.19 133.18
								 0.33 133.23 0.51 133.23 Z" class="st1"/>
				</g>
				<g id="shape3654-15" transform="translate(17.2982,-20.2305)">
					<title>Sheet.3654</title>
					<path d="M2.52 133.23 C2.66 133.23 2.85 133.13 2.95 132.99 C3.09 132.75 2.99 132.47 2.81 132.32 L0.79 131.09
								 C0.56 130.94 0.28 131.04 0.14 131.23 C0 131.47 0.09 131.75 0.28 131.9 L2.29 133.13 C2.34 133.23
								 2.43 133.23 2.52 133.23 Z" class="st1"/>
				</g>
				<g id="shape3655-17" transform="translate(18.1865,-43.317)">
					<title>Sheet.3655</title>
					<path d="M1.03 132.66 C1.5 133.04 2.01 133.23 2.62 133.23 C2.71 133.23 2.81 133.23 2.85 133.23 C4.21 133.09 5.24
								 131.85 5.1 130.47 C5.05 129.8 4.72 129.18 4.21 128.75 C3.69 128.33 3.04 128.14 2.38 128.18 C1.03
								 128.33 0 129.56 0.14 130.94 C0.19 131.61 0.51 132.23 1.03 132.66 ZM1.78 129.99 C1.96 129.75 2.2
								 129.61 2.52 129.61 C2.57 129.61 2.62 129.61 2.62 129.61 C2.85 129.61 3.09 129.71 3.32 129.85 C3.55
								 130.04 3.69 130.28 3.69 130.61 C3.74 131.23 3.32 131.75 2.71 131.8 C2.1 131.85 1.59 131.42 1.54
								 130.8 C1.5 130.52 1.59 130.23 1.78 129.99 Z" class="st1"/>
				</g>
				<g id="shape3656-19" transform="translate(18.2333,-8.6634)">
					<title>Sheet.3656</title>
					<path d="M4.16 128.75 C3.88 128.52 3.55 128.37 3.23 128.28 L3.23 127.66 C3.23 127.37 3.04 127.18 2.76 127.18
								 C2.48 127.18 2.29 127.37 2.29 127.66 L2.29 128.18 C0.94 128.33 0 129.56 0.09 130.94 C0.23 132.23
								 1.31 133.23 2.57 133.23 C2.66 133.23 2.76 133.23 2.81 133.23 C4.16 133.09 5.19 131.85 5.05 130.47
								 C4.96 129.8 4.68 129.18 4.16 128.75 ZM2.66 131.85 C2.38 131.9 2.1 131.8 1.87 131.61 C1.64 131.42
								 1.5 131.18 1.5 130.85 C1.5 130.52 1.54 130.28 1.73 130.04 C1.87 129.85 2.06 129.75 2.29 129.66 C2.34
								 129.66 2.43 129.61 2.48 129.61 C2.52 129.61 2.57 129.61 2.57 129.61 C2.81 129.61 3.04 129.71 3.23
								 129.85 C3.23 129.85 3.27 129.85 3.27 129.9 C3.51 130.09 3.65 130.32 3.65 130.66 C3.69 131.23 3.27
								 131.75 2.66 131.85 Z" class="st1"/>
				</g>
				<g id="shape3657-21">
					<title>Sheet.3657</title>
					<path d="M53.44 97.96 L46.28 93.67 L46.28 85.01 C46.28 84.77 46.14 84.53 45.96 84.39 L33.33 76.68 C33.1 76.54
								 32.82 76.54 32.63 76.68 L26.88 80.2 L21.18 76.68 C20.94 76.54 20.66 76.54 20.48 76.68 L7.85 84.39
								 C7.62 84.53 7.53 84.77 7.53 85.01 L7.53 93.67 L0.37 97.96 C0.14 98.1 0 98.34 0 98.57 L0 112.33 C0
								 112.57 0.14 112.81 0.33 112.95 L7.48 117.38 L7.48 124.18 C7.48 124.42 7.62 124.66 7.81 124.8 L21.41
								 133.13 C21.51 133.18 21.65 133.23 21.79 133.23 C21.93 133.23 22.07 133.18 22.21 133.09 L26.93 129.66
								 L31.65 133.09 C31.79 133.18 31.93 133.23 32.07 133.23 C32.21 133.23 32.31 133.18 32.45 133.13 L46.05
								 124.8 C46.28 124.66 46.38 124.42 46.38 124.18 L46.38 117.38 L53.53 112.95 C53.72 112.81 53.86 112.57
								 53.86 112.33 L53.86 98.57 C53.81 98.34 53.67 98.1 53.44 97.96 ZM21.74 131.66 L8.88 123.76 L8.88
								 117.38 L11.87 115.52 C12.3 115.85 12.86 116.09 13.42 116.09 C14.77 116.09 15.9 114.95 15.9 113.57
								 C15.9 112.19 14.77 111.05 13.42 111.05 C12.06 111.05 10.94 112.19 10.94 113.57 C10.94 113.85 10.99
								 114.09 11.08 114.33 L8.18 116.14 L1.4 111.95 L1.4 105.95 L5.66 105.95 C5.94 107.05 6.92 107.86 8.04
								 107.86 C9.4 107.86 10.52 106.71 10.52 105.33 C10.52 103.95 9.4 102.81 8.04 102.81 C6.97 102.81 6.03
								 103.53 5.7 104.52 L1.4 104.52 L1.4 99 L8.23 94.91 L11.08 96.67 C10.99 96.91 10.94 97.19 10.94 97.43
								 C10.94 98.81 12.06 99.96 13.42 99.96 C14.77 99.96 15.9 98.81 15.9 97.43 C15.9 96.05 14.77 94.91
								 13.42 94.91 C12.81 94.91 12.3 95.15 11.87 95.48 L8.88 93.67 L8.88 85.44 L20.8 78.15 L26.18 81.39
								 L26.18 104.72 L24.59 104.72 C24.31 103.62 23.33 102.81 22.21 102.81 C20.85 102.81 19.73 103.95 19.73
								 105.33 C19.73 106.71 20.85 107.86 22.21 107.86 C23.28 107.86 24.22 107.14 24.54 106.14 L26.18 106.14
								 L26.18 128.47 L21.74 131.66 ZM12.34 113.57 C12.34 113.57 12.34 113.57 12.34 113.57 C12.34 112.95
								 12.86 112.47 13.42 112.47 C14.03 112.47 14.49 112.95 14.49 113.57 C14.49 114.19 14.03 114.66 13.42
								 114.66 C13.37 114.66 13.32 114.66 13.23 114.66 C12.76 114.57 12.34 114.09 12.34 113.57 ZM6.97 105.33
								 C6.97 105 7.11 104.72 7.34 104.52 C7.53 104.33 7.81 104.24 8.09 104.24 C8.7 104.24 9.16 104.72 9.16
								 105.33 C9.16 105.95 8.7 106.43 8.09 106.43 C7.71 106.43 7.39 106.24 7.2 105.95 C7.06 105.76 6.97
								 105.57 6.97 105.33 ZM12.34 97.48 C12.34 96.91 12.76 96.48 13.28 96.39 C13.32 96.39 13.37 96.39 13.42
								 96.39 C14.03 96.39 14.49 96.86 14.49 97.48 C14.49 98.1 14.03 98.57 13.42 98.57 C12.86 98.57 12.34
								 98.1 12.34 97.48 C12.34 97.48 12.34 97.48 12.34 97.48 ZM23.28 105.33 C23.28 105.95 22.81 106.43
								 22.21 106.43 C21.6 106.43 21.13 105.95 21.13 105.33 C21.13 104.72 21.6 104.24 22.21 104.24 C22.81
								 104.24 23.28 104.72 23.28 105.33 ZM52.41 111.95 L45.63 116.14 L42.73 114.33 C42.82 114.09 42.87
								 113.81 42.87 113.57 C42.87 112.19 41.75 111.05 40.39 111.05 C39.04 111.05 37.92 112.19 37.92 113.57
								 C37.92 114.95 39.04 116.09 40.39 116.09 C41 116.09 41.52 115.85 41.94 115.52 L44.93 117.38 L44.93
								 123.8 L32.07 131.71 L27.63 128.47 L27.63 106.14 L29.27 106.14 C29.59 107.14 30.53 107.86 31.6 107.86
								 C32.96 107.86 34.08 106.71 34.08 105.33 C34.08 103.95 32.96 102.81 31.6 102.81 C30.44 102.81 29.45
								 103.62 29.22 104.72 L27.63 104.72 L27.63 81.39 L32.96 78.11 L44.88 85.39 L44.88 93.62 L41.89 95.48
								 C41.47 95.15 40.91 94.91 40.35 94.91 C38.99 94.91 37.87 96.05 37.87 97.43 C37.87 98.81 38.99 99.96
								 40.35 99.96 C41.7 99.96 42.82 98.81 42.82 97.43 C42.82 97.15 42.78 96.91 42.68 96.67 L45.54 94.91
								 L52.36 99 L52.36 104.52 L48.01 104.52 C47.69 103.53 46.75 102.81 45.68 102.81 C44.32 102.81 43.2
								 103.95 43.2 105.33 C43.2 106.71 44.32 107.86 45.68 107.86 C46.85 107.86 47.83 107.05 48.06 105.95
								 L52.32 105.95 L52.32 111.95 L52.41 111.95 ZM41.47 113.57 C41.47 114.14 41.05 114.57 40.53 114.66
								 C40.49 114.66 40.44 114.66 40.35 114.66 C39.74 114.66 39.27 114.19 39.27 113.57 C39.27 112.95 39.74
								 112.47 40.35 112.47 C40.95 112.43 41.42 112.95 41.47 113.57 C41.47 113.57 41.47 113.57 41.47 113.57
								 ZM30.53 105.33 C30.53 104.72 31 104.24 31.6 104.24 C32.21 104.24 32.68 104.72 32.68 105.33 C32.68
								 105.95 32.21 106.43 31.6 106.43 C31 106.43 30.53 105.95 30.53 105.33 ZM41.47 97.48 C41.47 97.48
								 41.47 97.48 41.47 97.48 C41.47 98.1 41 98.57 40.39 98.57 C39.79 98.57 39.32 98.1 39.32 97.48 C39.32
								 96.86 39.79 96.39 40.39 96.39 C40.44 96.39 40.49 96.39 40.53 96.39 C41.05 96.48 41.47 96.91 41.47
								 97.48 ZM46.8 105.33 C46.8 105.57 46.75 105.76 46.61 105.95 C46.42 106.24 46.1 106.43 45.72 106.43
								 C45.12 106.43 44.65 105.95 44.65 105.33 C44.65 104.72 45.12 104.24 45.72 104.24 C46 104.24 46.24
								 104.33 46.47 104.52 C46.66 104.72 46.8 105 46.8 105.33 Z" class="st1"/>
				</g>
				<g id="shape3658-23" transform="translate(32.3524,-16.0892)">
					<title>Sheet.3658</title>
					<path d="M0.47 133.23 C0.75 133.23 0.94 133.04 0.94 132.75 L0.94 130.37 C0.94 130.09 0.75 129.9 0.47 129.9 C0.19
								 129.9 0 130.09 0 130.37 L0 132.75 C0 132.99 0.23 133.23 0.47 133.23 Z" class="st1"/>
				</g>
				<g id="shape3659-25" transform="translate(32.3524,-35.2248)">
					<title>Sheet.3659</title>
					<path d="M0.47 129.9 C0.19 129.9 0 130.09 0 130.37 L0 132.75 C0 133.04 0.19 133.23 0.47 133.23 C0.75 133.23 0.94
								 133.04 0.94 132.75 L0.94 130.37 C0.94 130.09 0.75 129.9 0.47 129.9 Z" class="st1"/>
				</g>
				<g id="shape3660-27" transform="translate(32.3524,-39.9849)">
					<title>Sheet.3660</title>
					<path d="M0.47 129.9 C0.19 129.9 0 130.09 0 130.37 L0 132.75 C0 133.04 0.19 133.23 0.47 133.23 C0.75 133.23 0.94
								 133.04 0.94 132.75 L0.94 130.37 C0.94 130.09 0.75 129.9 0.47 129.9 Z" class="st1"/>
				</g>
				<g id="shape3661-29" transform="translate(36.4198,-23.3245)">
					<title>Sheet.3661</title>
					<path d="M0.47 129.9 C0.19 129.9 0 130.09 0 130.37 L0 132.75 C0 133.04 0.19 133.23 0.47 133.23 C0.75 133.23 0.94
								 133.04 0.94 132.75 L0.94 130.37 C0.94 130.13 0.7 129.9 0.47 129.9 Z" class="st1"/>
				</g>
				<g id="shape3662-31" transform="translate(36.4198,-28.0847)">
					<title>Sheet.3662</title>
					<path d="M0.47 129.9 C0.19 129.9 0 130.09 0 130.37 L0 132.75 C0 133.04 0.19 133.23 0.47 133.23 C0.75 133.23 0.94
								 133.04 0.94 132.75 L0.94 130.37 C0.94 130.13 0.7 129.9 0.47 129.9 Z" class="st1"/>
				</g>
				<g id="shape3663-33" transform="translate(33.4277,-20.1829)">
					<title>Sheet.3663</title>
					<path d="M2.29 131.09 L0.28 132.32 C0.05 132.47 0 132.75 0.14 132.99 C0.23 133.13 0.37 133.23 0.56 133.23 C0.65
								 133.23 0.75 133.23 0.79 133.18 L2.81 131.94 C3.04 131.8 3.09 131.51 2.95 131.28 C2.81 130.99 2.52
								 130.94 2.29 131.09 Z" class="st1"/>
				</g>
				<g id="shape3664-35" transform="translate(33.4744,-32.3687)">
					<title>Sheet.3664</title>
					<path d="M2.57 133.23 C2.71 133.23 2.9 133.13 2.99 132.99 C3.13 132.75 3.04 132.47 2.81 132.32 L0.79 131.13 C0.56
								 130.99 0.28 131.09 0.14 131.32 C0 131.56 0.09 131.85 0.33 131.99 L2.34 133.18 C2.38 133.23 2.48
								 133.23 2.57 133.23 Z" class="st1"/>
				</g>
				<g id="shape3665-37" transform="translate(30.3888,-43.317)">
					<title>Sheet.3665</title>
					<path d="M5.1 130.94 C5.14 130.28 4.96 129.61 4.53 129.09 C4.11 128.56 3.51 128.23 2.85 128.18 C1.5 128.04 0.28
								 129.04 0.14 130.47 C0 131.9 0.98 133.09 2.38 133.23 C2.48 133.23 2.57 133.23 2.62 133.23 C3.18 133.23
								 3.74 133.04 4.21 132.66 C4.68 132.23 5 131.61 5.1 130.94 ZM3.27 131.56 C3.09 131.71 2.81 131.8 2.48
								 131.8 C2.2 131.75 1.92 131.61 1.73 131.42 C1.54 131.18 1.45 130.9 1.5 130.61 C1.54 130.32 1.68 130.04
								 1.87 129.85 C2.06 129.71 2.29 129.61 2.57 129.61 C2.62 129.61 2.66 129.61 2.66 129.61 C3.27 129.66
								 3.69 130.23 3.65 130.8 C3.65 131.09 3.51 131.37 3.27 131.56 Z" class="st1"/>
				</g>
				<g id="shape3666-39" transform="translate(30.3888,-8.6158)">
					<title>Sheet.3666</title>
					<path d="M2.9 128.18 L2.9 127.66 C2.9 127.37 2.71 127.18 2.43 127.18 C2.15 127.18 1.96 127.37 1.96 127.66 L1.96
								 128.28 C1.64 128.37 1.31 128.52 1.03 128.75 C0.51 129.18 0.19 129.8 0.14 130.47 C0 131.85 0.98 133.09
								 2.38 133.23 C2.48 133.23 2.57 133.23 2.62 133.23 C3.18 133.23 3.74 133.04 4.21 132.66 C4.72 132.23
								 5.05 131.61 5.1 130.94 C5.14 130.28 4.96 129.61 4.53 129.09 C4.11 128.56 3.55 128.23 2.9 128.18
								 ZM2.48 131.8 C2.2 131.75 1.92 131.61 1.73 131.42 C1.54 131.18 1.45 130.9 1.5 130.61 C1.54 130.28
								 1.68 129.99 1.92 129.85 C2.1 129.71 2.34 129.61 2.57 129.61 C2.62 129.61 2.66 129.61 2.66 129.61
								 C2.71 129.61 2.81 129.61 2.85 129.66 C3.37 129.8 3.69 130.28 3.65 130.85 C3.6 131.13 3.46 131.42
								 3.27 131.61 C3.09 131.71 2.81 131.8 2.48 131.8 Z" class="st1"/>
				</g>
			</g>
		</g>
	</g>
</svg>
