<?xml version="1.0" encoding="UTF-8" standalone="no"?>
<!-- Generated by Microsoft Visio, SVG Export Cognitive Services Enterprise Bot.svg Page-1 -->

<svg
   xmlns:dc="http://purl.org/dc/elements/1.1/"
   xmlns:cc="http://creativecommons.org/ns#"
   xmlns:rdf="http://www.w3.org/1999/02/22-rdf-syntax-ns#"
   xmlns:svg="http://www.w3.org/2000/svg"
   xmlns="http://www.w3.org/2000/svg"
   xmlns:sodipodi="http://sodipodi.sourceforge.net/DTD/sodipodi-0.dtd"
   xmlns:inkscape="http://www.inkscape.org/namespaces/inkscape"
   width="0.55124861in"
   height="0.78737026in"
   viewBox="0 0 39.689879 56.6908"
   xml:space="preserve"
   class="st3"
   version="1.1"
   id="svg66"
   sodipodi:docname="Cognitive Services Enterprise Bot.svg"
   style="font-size:12px;overflow:visible;color-interpolation-filters:sRGB;fill:none;fill-rule:evenodd;stroke-linecap:square;stroke-miterlimit:3"
   inkscape:version="0.92.5 (2060ec1f9f, 2020-04-08)"><metadata
   id="metadata72"><rdf:RDF><cc:Work
       rdf:about=""><dc:format>image/svg+xml</dc:format><dc:type
         rdf:resource="http://purl.org/dc/dcmitype/StillImage" /></cc:Work></rdf:RDF></metadata><defs
   id="defs70" /><sodipodi:namedview
   pagecolor="#ffffff"
   bordercolor="#666666"
   borderopacity="1"
   objecttolerance="10"
   gridtolerance="10"
   guidetolerance="10"
   inkscape:pageopacity="0"
   inkscape:pageshadow="2"
   inkscape:window-width="640"
   inkscape:window-height="480"
   id="namedview68"
   showgrid="false"
   inkscape:zoom="1.8365233"
   inkscape:cx="26.4566"
   inkscape:cy="18.900351"
   inkscape:window-x="0"
   inkscape:window-y="0"
   inkscape:window-maximized="0"
   inkscape:current-layer="svg66" />
	<style
   type="text/css"
   id="style2">
	<![CDATA[
		.st1 {fill:#0078d4;stroke:none;stroke-linecap:butt;stroke-width:0.75}
		.st2 {fill:#50e6ff;stroke:none;stroke-linecap:butt;stroke-width:0.75}
		.st3 {fill:none;fill-rule:evenodd;font-size:12px;overflow:visible;stroke-linecap:square;stroke-miterlimit:3}
	]]>
	</style>

	<g
   id="g64"
   transform="translate(-3.968572,-5.6735)">
		<title
   id="title4">Page-1</title>
		<g
   id="group7418-1"
   transform="translate(3.9685,-34.0157)">
			<title
   id="title6">Cognitive Services Enterprise Bot</title>
			<g
   id="shape7419-2">
				<title
   id="title8">Sheet.7419</title>
				<path
   d="m 39.69,55.14 h -3.8 V 65.87 H 3.86 V 55.14 H 0 v 41.24 h 39.69 z"
   class="st1"
   id="path10"
   inkscape:connector-curvature="0"
   style="fill:#0078d4;stroke:none;stroke-width:0.75;stroke-linecap:butt" />
			</g>
			<g
   id="shape7420-4"
   transform="translate(3.66128,-4.45445)">
				<title
   id="title13">Sheet.7420</title>
				<path
   d="M 32.36,74.85 H 0 V 96.38 H 32.3 V 74.85 Z"
   class="st2"
   id="path15"
   inkscape:connector-curvature="0"
   style="fill:#50e6ff;stroke:none;stroke-width:0.75;stroke-linecap:butt" />
			</g>
			<g
   id="shape7421-6"
   transform="translate(5.03416,-12.7559)">
				<title
   id="title18">Sheet.7421</title>
				<path
   d="M 1.5,96.38 0,95.37 0.13,95.16 c 1.24,-1.89 3.4,-3.03 5.69,-3.03 2.35,0 4.51,1.14 5.69,3.03 l 0.13,0.21 -1.57,0.94 -0.13,-0.2 C 9.09,94.76 7.52,93.88 5.75,93.88 c -1.7,0 -3.27,0.88 -4.18,2.23 z"
   class="st1"
   id="path20"
   inkscape:connector-curvature="0"
   style="fill:#0078d4;stroke:none;stroke-width:0.75;stroke-linecap:butt" />
			</g>
			<g
   id="shape7422-8"
   transform="translate(23.0788,-12.7559)">
				<title
   id="title23">Sheet.7422</title>
				<path
   d="m 11.51,95.16 c -1.18,-1.89 -3.34,-3.03 -5.69,-3.03 -2.35,0 -4.45,1.14 -5.69,3.03 L 0,95.37 l 1.5,1.01 0.13,-0.2 c 0.85,-1.35 2.49,-2.23 4.19,-2.23 1.76,0 3.33,0.88 4.18,2.23 l 0.13,0.2 1.57,-0.95 z"
   class="st1"
   id="path25"
   inkscape:connector-curvature="0"
   style="fill:#0078d4;stroke:none;stroke-width:0.75;stroke-linecap:butt" />
			</g>
			<g
   id="shape7423-10"
   transform="translate(26.1515,-33.0709)">
				<title
   id="title28">Sheet.7423</title>
				<path
   d="m 4.9,81.19 v 9.25 c -0.19,0 -0.45,0.07 -0.58,0.27 -0.14,0.13 -0.27,0.4 -0.27,0.61 0,0.2 0.07,0.47 0.27,0.6 0.13,0.14 0.39,0.27 0.58,0.27 v 4.19 H 0 V 81.19 Z"
   class="st2"
   id="path30"
   inkscape:connector-curvature="0"
   style="fill:#50e6ff;stroke:none;stroke-width:0.75;stroke-linecap:butt" />
			</g>
			<g
   id="shape7424-12"
   transform="translate(19.6137,-48.2565)">
				<title
   id="title33">Sheet.7424</title>
				<path
   d="M 3.27,94.69 H 0 v 1.69 h 3.27 z"
   class="st1"
   id="path35"
   inkscape:connector-curvature="0"
   style="fill:#0078d4;stroke:none;stroke-width:0.75;stroke-linecap:butt" />
			</g>
			<g
   id="shape7425-14"
   transform="translate(9.80687,-43.1946)">
				<title
   id="title38">Sheet.7425</title>
				<path
   d="M 4.9,94.69 H 0 v 1.69 h 4.9 z"
   class="st1"
   id="path40"
   inkscape:connector-curvature="0"
   style="fill:#0078d4;stroke:none;stroke-width:0.75;stroke-linecap:butt" />
			</g>
			<g
   id="shape7426-16"
   transform="translate(9.80687,-39.82)">
				<title
   id="title43">Sheet.7426</title>
				<path
   d="M 4.9,94.69 H 0 v 1.69 h 4.9 z"
   class="st1"
   id="path45"
   inkscape:connector-curvature="0"
   style="fill:#0078d4;stroke:none;stroke-width:0.75;stroke-linecap:butt" />
			</g>
			<g
   id="shape7427-18"
   transform="translate(9.80687,-36.4455)">
				<title
   id="title48">Sheet.7427</title>
				<path
   d="M 4.9,94.69 H 0 v 1.69 h 4.9 z"
   class="st1"
   id="path50"
   inkscape:connector-curvature="0"
   style="fill:#0078d4;stroke:none;stroke-width:0.75;stroke-linecap:butt" />
			</g>
			<g
   id="shape7428-20"
   transform="translate(6.53787,-33.0708)">
				<title
   id="title53">Sheet.7428</title>
				<path
   d="m 4.9,72.76 v 8.43 H 0 V 96.38 H 19.61 V 72.76 Z M 9.81,94.69 H 1.63 V 82.88 H 9.81 Z M 11.44,79.51 H 8.17 v -3.38 h 3.27 z m 4.9,15.18 h -3.26 v -3.37 h 3.26 z m 0,-5.06 h -3.26 v -3.38 h 3.26 z m 0,-5.06 h -3.26 v -3.38 h 3.26 z m 0,-5.06 h -3.26 v -3.38 h 3.26 z"
   class="st1"
   id="path55"
   inkscape:connector-curvature="0"
   style="fill:#0078d4;stroke:none;stroke-width:0.75;stroke-linecap:butt" />
			</g>
			<g
   id="shape7429-22"
   transform="translate(28.5053,-33.0034)">
				<title
   id="title58">Sheet.7429</title>
				<path
   d="M 4.97,91.25 C 4.97,90.78 4.84,90.3 4.64,89.9 4.45,89.49 4.05,89.16 3.66,88.95 3.27,88.75 2.81,88.62 2.35,88.68 c -0.45,0 -0.85,0.21 -1.24,0.48 -0.39,0.27 -0.65,0.6 -0.85,1.08 -0.19,0.4 -0.26,0.87 -0.19,1.35 0.06,0.47 0.26,0.87 0.52,1.28 0.26,0.34 0.65,0.61 1.11,0.81 v 2.7 h 1.63 v -2.7 c 0.46,-0.2 0.92,-0.47 1.18,-0.95 0.33,-0.47 0.46,-1.01 0.46,-1.48 z M 2.55,92.06 C 2.42,92.06 2.22,91.99 2.09,91.92 1.96,91.86 1.83,91.72 1.77,91.52 1.7,91.38 1.7,91.18 1.7,91.05 c 0,-0.14 0.13,-0.34 0.2,-0.41 0.13,-0.13 0.26,-0.2 0.39,-0.2 0.13,0 0.33,0 0.46,0.07 0.13,0.06 0.26,0.13 0.39,0.33 0.06,0.14 0.13,0.27 0.13,0.48 0,0.2 -0.07,0.47 -0.26,0.6 -0.07,0.07 -0.26,0.14 -0.46,0.14 z"
   class="st1"
   id="path60"
   inkscape:connector-curvature="0"
   style="fill:#0078d4;stroke:none;stroke-width:0.75;stroke-linecap:butt" />
			</g>
		</g>
	</g>
</svg>