<?xml version="1.0" encoding="UTF-8" standalone="no"?>
<!-- Generated by Microsoft Visio, SVG Export Cognitive Services Bot.svg Page-1 -->
<svg xmlns:dc="http://purl.org/dc/elements/1.1/" xmlns:cc="http://creativecommons.org/ns#" xmlns:rdf="http://www.w3.org/1999/02/22-rdf-syntax-ns#" xmlns:svg="http://www.w3.org/2000/svg" xmlns="http://www.w3.org/2000/svg" xmlns:sodipodi="http://sodipodi.sourceforge.net/DTD/sodipodi-0.dtd" xmlns:inkscape="http://www.inkscape.org/namespaces/inkscape" width="56.687855" height="56.697997" viewBox="0 0 56.687855 56.697997" xml:space="preserve" class="st5" version="1.1" id="svg140" sodipodi:docname="Cognitive Services Bot.svg" style="font-size:12px;overflow:visible;color-interpolation-filters:sRGB;fill:none;fill-rule:evenodd;stroke-linecap:square;stroke-miterlimit:3" inkscape:version="0.92.5 (2060ec1f9f, 2020-04-08)">
  <metadata id="metadata146">
    <rdf:RDF>
      <cc:Work rdf:about="">
        <dc:format>image/svg+xml</dc:format>
        <dc:type rdf:resource="http://purl.org/dc/dcmitype/StillImage" />
      </cc:Work>
    </rdf:RDF>
  </metadata>
  <defs id="defs144" />
  <sodipodi:namedview pagecolor="#ffffff" bordercolor="#666666" borderopacity="1" objecttolerance="10" gridtolerance="10" guidetolerance="10" inkscape:pageopacity="0" inkscape:pageshadow="2" inkscape:window-width="640" inkscape:window-height="480" id="namedview142" showgrid="false" inkscape:zoom="1.8365233" inkscape:cx="37.795184" inkscape:cy="18.900351" inkscape:window-x="0" inkscape:window-y="0" inkscape:window-maximized="0" inkscape:current-layer="svg140" />
	<style type="text/css" id="style2">
	<![CDATA[
		.st1 {fill:none}
		.st2 {stroke:#50e6ff;stroke-linecap:butt;stroke-width:0.75}
		.st3 {fill:#50e6ff;stroke:none;stroke-linecap:butt;stroke-width:0.75}
		.st4 {fill:#0078d4;stroke:none;stroke-linecap:butt;stroke-width:0.75}
		.st5 {fill:none;fill-rule:evenodd;font-size:12px;overflow:visible;stroke-linecap:square;stroke-miterlimit:3}
	]]>
	</style>

	<g id="g138" transform="translate(-5.6693772,-5.6663)">
		<title id="title4">Page-1</title>
		<g id="group6868-1" transform="translate(5.66929,-34.0157)">
			<title id="title6">Cognitive Services Bot</title>
			<g id="shape6869-2" transform="translate(2.66959,-2.65748)">
				<title id="title8">Sheet.6869</title>
				<path d="M 0,45 51.37,96.38 Z" class="st1" id="path10" inkscape:connector-curvature="0" style="fill:none" />
				<path d="M 0,45 51.37,96.38" class="st2" id="path12" inkscape:connector-curvature="0" style="stroke:#50e6ff;stroke-width:0.75;stroke-linecap:butt" />
			</g>
			<g id="shape6870-5" transform="translate(2.65748,-2.65748)">
				<title id="title15">Sheet.6870</title>
				<path d="M 0,96.38 51.38,45 Z" class="st1" id="path17" inkscape:connector-curvature="0" style="fill:none" />
				<path d="M 0,96.38 51.38,45" class="st2" id="path19" inkscape:connector-curvature="0" style="stroke:#50e6ff;stroke-width:0.75;stroke-linecap:butt" />
			</g>
			<g id="shape6871-8" transform="translate(2.65748,-28.3597)">
				<title id="title22">Sheet.6871</title>
				<path d="M 0,96.38 H 51.38 Z" class="st1" id="path24" inkscape:connector-curvature="0" style="fill:none" />
				<path d="M 0,96.38 H 51.38" class="st2" id="path26" inkscape:connector-curvature="0" style="stroke:#50e6ff;stroke-width:0.75;stroke-linecap:butt" />
			</g>
			<g id="shape6872-11" transform="translate(28.3414,-2.6576)">
				<title id="title29">Sheet.6872</title>
				<path d="M 0,44.94 V 96.38 Z" class="st1" id="path31" inkscape:connector-curvature="0" style="fill:none" />
				<path d="M 0,44.94 V 96.38" class="st2" id="path33" inkscape:connector-curvature="0" style="stroke:#50e6ff;stroke-width:0.75;stroke-linecap:butt" />
			</g>
			<g id="shape6873-14" transform="translate(2.65748,-2.65748)">
				<title id="title36">Sheet.6873</title>
				<path d="M 0,96.38 51.38,70.68 Z" class="st1" id="path38" inkscape:connector-curvature="0" style="fill:none" />
				<path d="M 0,96.38 51.38,70.68" class="st2" id="path40" inkscape:connector-curvature="0" style="stroke:#50e6ff;stroke-width:0.75;stroke-linecap:butt" />
			</g>
			<g id="shape6874-17" transform="translate(2.65748,-2.65748)">
				<title id="title43">Sheet.6874</title>
				<path d="M 51.38,96.38 0,70.68 Z" class="st1" id="path45" inkscape:connector-curvature="0" style="fill:none" />
				<path d="M 51.38,96.38 0,70.68" class="st2" id="path47" inkscape:connector-curvature="0" style="stroke:#50e6ff;stroke-width:0.75;stroke-linecap:butt" />
			</g>
			<g id="shape6875-20" transform="translate(2.66959,-28.3597)">
				<title id="title50">Sheet.6875</title>
				<path d="M 0,70.7 51.37,96.38 Z" class="st1" id="path52" inkscape:connector-curvature="0" style="fill:none" />
				<path d="M 0,70.7 51.37,96.38" class="st2" id="path54" inkscape:connector-curvature="0" style="stroke:#50e6ff;stroke-width:0.75;stroke-linecap:butt" />
			</g>
			<g id="shape6876-23" transform="translate(2.65748,-28.3597)">
				<title id="title57">Sheet.6876</title>
				<path d="M 51.38,70.7 0,96.38 Z" class="st1" id="path59" inkscape:connector-curvature="0" style="fill:none" />
				<path d="M 51.38,70.7 0,96.38" class="st2" id="path61" inkscape:connector-curvature="0" style="stroke:#50e6ff;stroke-width:0.75;stroke-linecap:butt" />
			</g>
			<g id="shape6877-26" transform="translate(28.3465,-28.3597)">
				<title id="title64">Sheet.6877</title>
				<path d="M 0,70.7 25.69,96.38 Z" class="st1" id="path66" inkscape:connector-curvature="0" style="fill:none" />
				<path d="M 0,70.7 25.69,96.38" class="st2" id="path68" inkscape:connector-curvature="0" style="stroke:#50e6ff;stroke-width:0.75;stroke-linecap:butt" />
			</g>
			<g id="shape6878-29" transform="translate(2.65748,-28.3599)">
				<title id="title71">Sheet.6878</title>
				<path d="M 25.68,70.64 0,96.38 Z" class="st1" id="path73" inkscape:connector-curvature="0" style="fill:none" />
				<path d="M 25.68,70.64 0,96.38" class="st2" id="path75" inkscape:connector-curvature="0" style="stroke:#50e6ff;stroke-width:0.75;stroke-linecap:butt" />
			</g>
			<g id="shape6879-32" transform="translate(28.3465,-2.65748)">
				<title id="title78">Sheet.6879</title>
				<path d="M 0,96.38 25.69,70.68 Z" class="st1" id="path80" inkscape:connector-curvature="0" style="fill:none" />
				<path d="M 0,96.38 25.69,70.68" class="st2" id="path82" inkscape:connector-curvature="0" style="stroke:#50e6ff;stroke-width:0.75;stroke-linecap:butt" />
			</g>
			<g id="shape6880-35" transform="translate(2.54675,-2.6576)">
				<title id="title85">Sheet.6880</title>
				<path d="M 25.8,96.38 0,70.63 Z" class="st1" id="path87" inkscape:connector-curvature="0" style="fill:none" />
				<path d="M 25.8,96.38 0,70.63" class="st2" id="path89" inkscape:connector-curvature="0" style="stroke:#50e6ff;stroke-width:0.75;stroke-linecap:butt" />
			</g>
			<g id="shape6881-38" transform="translate(0,-51.378)">
				<title id="title92">Sheet.6881</title>
				<path d="m 5.31,93.72 c 0,1.47 -1.19,2.66 -2.65,2.66 C 1.19,96.38 0,95.19 0,93.72 c 0,-1.47 1.19,-2.66 2.66,-2.66 1.46,0 2.65,1.19 2.65,2.66 z" class="st3" id="path94" inkscape:connector-curvature="0" style="fill:#50e6ff;stroke:none;stroke-width:0.75;stroke-linecap:butt" />
			</g>
			<g id="shape6882-40" transform="translate(0,-25.7022)">
				<title id="title97">Sheet.6882</title>
				<path d="m 5.31,93.72 c 0,1.47 -1.19,2.66 -2.65,2.66 C 1.19,96.38 0,95.19 0,93.72 c 0,-1.47 1.19,-2.66 2.66,-2.66 1.46,0 2.65,1.19 2.65,2.66 z" class="st4" id="path99" inkscape:connector-curvature="0" style="fill:#0078d4;stroke:none;stroke-width:0.75;stroke-linecap:butt" />
			</g>
			<g id="shape6883-42">
				<title id="title102">Sheet.6883</title>
				<path d="m 5.31,93.72 c 0,1.47 -1.19,2.66 -2.65,2.66 C 1.19,96.38 0,95.19 0,93.72 c 0,-1.47 1.19,-2.66 2.66,-2.66 1.46,0 2.65,1.19 2.65,2.66 z" class="st4" id="path104" inkscape:connector-curvature="0" style="fill:#0078d4;stroke:none;stroke-width:0.75;stroke-linecap:butt" />
			</g>
			<g id="shape6884-44" transform="translate(25.689,-51.378)">
				<title id="title107">Sheet.6884</title>
				<path d="m 5.31,93.72 c 0,1.47 -1.19,2.66 -2.65,2.66 C 1.19,96.38 0,95.19 0,93.72 c 0,-1.47 1.19,-2.66 2.66,-2.66 1.46,0 2.65,1.19 2.65,2.66 z" class="st4" id="path109" inkscape:connector-curvature="0" style="fill:#0078d4;stroke:none;stroke-width:0.75;stroke-linecap:butt" />
			</g>
			<g id="shape6885-46" transform="translate(25.689,-25.689)">
				<title id="title112">Sheet.6885</title>
				<path d="m 5.31,93.72 c 0,1.47 -1.19,2.66 -2.65,2.66 C 1.19,96.38 0,95.19 0,93.72 c 0,-1.47 1.19,-2.66 2.66,-2.66 1.46,0 2.65,1.19 2.65,2.66 z" class="st3" id="path114" inkscape:connector-curvature="0" style="fill:#50e6ff;stroke:none;stroke-width:0.75;stroke-linecap:butt" />
			</g>
			<g id="shape6886-48" transform="translate(25.689)">
				<title id="title117">Sheet.6886</title>
				<path d="m 5.31,93.72 c 0,1.47 -1.19,2.66 -2.65,2.66 C 1.19,96.38 0,95.19 0,93.72 c 0,-1.47 1.19,-2.66 2.66,-2.66 1.46,0 2.65,1.19 2.65,2.66 z" class="st4" id="path119" inkscape:connector-curvature="0" style="fill:#0078d4;stroke:none;stroke-width:0.75;stroke-linecap:butt" />
			</g>
			<g id="shape6887-50" transform="translate(51.378,-51.378)">
				<title id="title122">Sheet.6887</title>
				<path d="m 5.31,93.72 c 0,1.47 -1.19,2.66 -2.65,2.66 C 1.19,96.38 0,95.19 0,93.72 c 0,-1.47 1.19,-2.66 2.66,-2.66 1.46,0 2.65,1.19 2.65,2.66 z" class="st4" id="path124" inkscape:connector-curvature="0" style="fill:#0078d4;stroke:none;stroke-width:0.75;stroke-linecap:butt" />
			</g>
			<g id="shape6888-52" transform="translate(51.378,-25.7022)">
				<title id="title127">Sheet.6888</title>
				<path d="m 5.31,93.72 c 0,1.47 -1.19,2.66 -2.65,2.66 C 1.19,96.38 0,95.19 0,93.72 c 0,-1.47 1.19,-2.66 2.66,-2.66 1.46,0 2.65,1.19 2.65,2.66 z" class="st4" id="path129" inkscape:connector-curvature="0" style="fill:#0078d4;stroke:none;stroke-width:0.75;stroke-linecap:butt" />
			</g>
			<g id="shape6889-54" transform="translate(51.378)">
				<title id="title132">Sheet.6889</title>
				<path d="m 5.31,93.72 c 0,1.47 -1.19,2.66 -2.65,2.66 C 1.19,96.38 0,95.19 0,93.72 c 0,-1.47 1.19,-2.66 2.66,-2.66 1.46,0 2.65,1.19 2.65,2.66 z" class="st3" id="path134" inkscape:connector-curvature="0" style="fill:#50e6ff;stroke:none;stroke-width:0.75;stroke-linecap:butt" />
			</g>
		</g>
	</g>
</svg>