<?xml version="1.0" encoding="UTF-8" standalone="no"?>
<!DOCTYPE svg PUBLIC "-//W3C//DTD SVG 1.1//EN" "http://www.w3.org/Graphics/SVG/1.1/DTD/svg11.dtd">
<!-- Generated by Microsoft Visio, SVG Export Cognitive Services Content Extraction.svg Page-1 -->
<svg xmlns="http://www.w3.org/2000/svg" xmlns:xlink="http://www.w3.org/1999/xlink" xmlns:ev="http://www.w3.org/2001/xml-events"
		width="1.0556in" height="1.43331in" viewBox="0 0 76.0032 103.198" xml:space="preserve" color-interpolation-filters="sRGB"
		class="st3">
	<style type="text/css">
	<![CDATA[
		.st1 {fill:#50e6ff;stroke:none;stroke-linecap:butt;stroke-width:12.4898}
		.st2 {fill:#0078d4;stroke:none;stroke-linecap:butt;stroke-width:12.4898}
		.st3 {fill:none;fill-rule:evenodd;font-size:12px;overflow:visible;stroke-linecap:square;stroke-miterlimit:3}
	]]>
	</style>

	<g>
		<title>Page-1</title>
		<g id="group6401-1" transform="translate(12.4898,-34.0157)">
			<title>Cognitive Services Content Extraction</title>
			<g id="shape6402-2" transform="translate(20.7792,-10.4292)">
				<title>Sheet.6402</title>
				<path d="M30.22 73.61 L0 73.61 L0 103.2 L30.22 103.2 L30.22 73.61 Z" class="st1"/>
			</g>
			<g id="shape6403-4" transform="translate(20.7225,-9.99613)">
				<title>Sheet.6403</title>
				<path d="M0.02 93.01 L0.02 103.2 L30.27 103.2 L30.27 96.97 L30.27 97.03 L25.47 92.31 L20.69 97.03 L8.05 84.94 L0
							 92.84 L0.02 93.01 Z" class="st2"/>
			</g>
			<g id="shape6404-6" transform="translate(39.1207,-28.7741)">
				<title>Sheet.6404</title>
				<path d="M7.87 99.34 C7.87 101.48 6.11 103.2 3.93 103.2 C1.76 103.2 0 101.47 0 99.34 C0 97.21 1.73 95.45 3.9 95.45
							 C6.08 95.45 7.87 97.19 7.87 99.34 Z" class="st2"/>
			</g>
			<g id="shape6405-8" transform="translate(0.0224644,-42.583)">
				<title>Sheet.6405</title>
				<path d="M17 89.09 L0 89.09 L0 100.65 L2.62 100.65 L2.62 103.2 L5.24 100.65 L17 100.65 L17 89.09 Z" class="st2"/>
			</g>
			<g id="shape6406-10" transform="translate(0,-0.0227933)">
				<title>Sheet.6406</title>
				<path d="M16.99 83.28 L0 83.28 L0 103.2 L16.99 103.2 L16.99 83.28 Z" class="st1"/>
			</g>
			<g id="shape6407-12" transform="translate(20.7337,-5.68434E-14)">
				<title>Sheet.6407</title>
				<path d="M30.29 96.53 L0 96.53 L0 103.2 L30.29 103.2 L30.29 96.53 Z" class="st2"/>
			</g>
			<g id="shape6408-14" transform="translate(20.7792,-51.7506)">
				<title>Sheet.6408</title>
				<path d="M30.23 98.31 L0 98.31 L0 103.2 L30.23 103.2 L30.23 98.31 Z" class="st2"/>
			</g>
			<g id="shape6409-16" transform="translate(0.0792388,-35.9187)">
				<title>Sheet.6409</title>
				<path d="M16.94 99.12 L0 99.12 L0 103.2 L16.94 103.2 L16.94 99.12 Z" class="st2"/>
			</g>
			<g id="shape6410-18" transform="translate(0.0792388,-30.4639)">
				<title>Sheet.6410</title>
				<path d="M16.94 99.12 L0 99.12 L0 103.2 L16.94 103.2 L16.94 99.12 Z" class="st2"/>
			</g>
			<g id="shape6411-20" transform="translate(0.0792388,-25.0093)">
				<title>Sheet.6411</title>
				<path d="M16.94 99.12 L0 99.12 L0 103.2 L16.94 103.2 L16.94 99.12 Z" class="st1"/>
			</g>
			<g id="shape6412-22" transform="translate(20.7792,-45.1413)">
				<title>Sheet.6412</title>
				<path d="M30.23 98.31 L0 98.31 L0 103.2 L30.23 103.2 L30.23 98.31 Z" class="st2"/>
			</g>
		</g>
	</g>
</svg>
