<?xml version="1.0" encoding="UTF-8" standalone="no"?>
<!DOCTYPE svg PUBLIC "-//W3C//DTD SVG 1.1//EN" "http://www.w3.org/Graphics/SVG/1.1/DTD/svg11.dtd">
<!-- Generated by Microsoft Visio, SVG Export Cognitive Services Enterprise Bot.svg Page-1 -->
<svg xmlns="http://www.w3.org/2000/svg" xmlns:xlink="http://www.w3.org/1999/xlink" xmlns:ev="http://www.w3.org/2001/xml-events"
		width="1.10236in" height="1.85039in" viewBox="0 0 79.3701 133.228" xml:space="preserve" color-interpolation-filters="sRGB"
		class="st3">
	<style type="text/css">
	<![CDATA[
		.st1 {fill:#0078d4;stroke:none;stroke-linecap:butt;stroke-width:0.75}
		.st2 {fill:#50e6ff;stroke:none;stroke-linecap:butt;stroke-width:0.75}
		.st3 {fill:none;fill-rule:evenodd;font-size:12px;overflow:visible;stroke-linecap:square;stroke-miterlimit:3}
	]]>
	</style>

	<g>
		<title>Page-1</title>
		<g id="group3700-1" transform="translate(19.8425,-70.8661)">
			<title>Cognitive Services Enterprise Bot</title>
			<g id="shape3701-2">
				<title>Sheet.3701</title>
				<path d="M39.69 91.99 L35.89 91.99 L35.89 102.72 L3.86 102.72 L3.86 91.99 L0 91.99 L0 133.23 L39.69 133.23 L39.69
							 91.99 Z" class="st1"/>
			</g>
			<g id="shape3702-4" transform="translate(3.66128,-4.45445)">
				<title>Sheet.3702</title>
				<path d="M32.36 111.7 L0 111.7 L0 133.23 L32.3 133.23 L32.3 111.7 L32.36 111.7 Z" class="st2"/>
			</g>
			<g id="shape3703-6" transform="translate(5.03416,-12.7559)">
				<title>Sheet.3703</title>
				<path d="M1.5 133.23 L0 132.22 L0.13 132.01 C1.37 130.12 3.53 128.98 5.82 128.98 C8.17 128.98 10.33 130.12 11.51
							 132.01 L11.64 132.22 L10.07 133.16 L9.94 132.96 C9.09 131.61 7.52 130.73 5.75 130.73 C4.05 130.73 2.48
							 131.61 1.57 132.96 L1.5 133.23 Z" class="st1"/>
			</g>
			<g id="shape3704-8" transform="translate(23.0788,-12.7559)">
				<title>Sheet.3704</title>
				<path d="M11.51 132.01 C10.33 130.12 8.17 128.98 5.82 128.98 C3.47 128.98 1.37 130.12 0.13 132.01 L0 132.22 L1.5
							 133.23 L1.63 133.03 C2.48 131.68 4.12 130.8 5.82 130.8 C7.58 130.8 9.15 131.68 10 133.03 L10.13 133.23
							 L11.7 132.28 L11.51 132.01 Z" class="st1"/>
			</g>
			<g id="shape3705-10" transform="translate(26.1515,-33.0709)">
				<title>Sheet.3705</title>
				<path d="M4.9 118.04 L4.9 127.29 C4.71 127.29 4.45 127.36 4.32 127.56 C4.18 127.69 4.05 127.96 4.05 128.17 C4.05
							 128.37 4.12 128.64 4.32 128.77 C4.45 128.91 4.71 129.04 4.9 129.04 L4.9 133.23 L0 133.23 L0 118.04 L4.9
							 118.04 Z" class="st2"/>
			</g>
			<g id="shape3706-12" transform="translate(19.6137,-48.2565)">
				<title>Sheet.3706</title>
				<path d="M3.27 131.54 L0 131.54 L0 133.23 L3.27 133.23 L3.27 131.54 Z" class="st1"/>
			</g>
			<g id="shape3707-14" transform="translate(9.80687,-43.1946)">
				<title>Sheet.3707</title>
				<path d="M4.9 131.54 L0 131.54 L0 133.23 L4.9 133.23 L4.9 131.54 Z" class="st1"/>
			</g>
			<g id="shape3708-16" transform="translate(9.80687,-39.82)">
				<title>Sheet.3708</title>
				<path d="M4.9 131.54 L0 131.54 L0 133.23 L4.9 133.23 L4.9 131.54 Z" class="st1"/>
			</g>
			<g id="shape3709-18" transform="translate(9.80687,-36.4455)">
				<title>Sheet.3709</title>
				<path d="M4.9 131.54 L0 131.54 L0 133.23 L4.9 133.23 L4.9 131.54 Z" class="st1"/>
			</g>
			<g id="shape3710-20" transform="translate(6.53787,-33.0708)">
				<title>Sheet.3710</title>
				<path d="M4.9 109.61 L4.9 118.04 L0 118.04 L0 133.23 L19.61 133.23 L19.61 109.61 L4.9 109.61 ZM9.81 131.54 L1.63
							 131.54 L1.63 119.73 L9.81 119.73 L9.81 131.54 ZM11.44 116.36 L8.17 116.36 L8.17 112.98 L11.44 112.98
							 L11.44 116.36 ZM16.34 131.54 L13.08 131.54 L13.08 128.17 L16.34 128.17 L16.34 131.54 ZM16.34 126.48
							 L13.08 126.48 L13.08 123.1 L16.34 123.1 L16.34 126.48 ZM16.34 121.42 L13.08 121.42 L13.08 118.04 L16.34
							 118.04 L16.34 121.42 ZM16.34 116.36 L13.08 116.36 L13.08 112.98 L16.34 112.98 L16.34 116.36 Z"
						class="st1"/>
			</g>
			<g id="shape3711-22" transform="translate(28.5053,-33.0034)">
				<title>Sheet.3711</title>
				<path d="M4.97 128.1 C4.97 127.63 4.84 127.15 4.64 126.75 C4.45 126.34 4.05 126.01 3.66 125.8 C3.27 125.6 2.81 125.47
							 2.35 125.53 C1.9 125.53 1.5 125.74 1.11 126.01 C0.72 126.28 0.46 126.61 0.26 127.09 C0.07 127.49 0 127.96
							 0.07 128.44 C0.13 128.91 0.33 129.31 0.59 129.72 C0.85 130.06 1.24 130.33 1.7 130.53 L1.7 133.23 L3.33
							 133.23 L3.33 130.53 C3.79 130.33 4.25 130.06 4.51 129.58 C4.84 129.11 4.97 128.57 4.97 128.1 ZM2.55
							 128.91 C2.42 128.91 2.22 128.84 2.09 128.77 C1.96 128.71 1.83 128.57 1.77 128.37 C1.7 128.23 1.7 128.03
							 1.7 127.9 C1.7 127.76 1.83 127.56 1.9 127.49 C2.03 127.36 2.16 127.29 2.29 127.29 C2.42 127.29 2.62
							 127.29 2.75 127.36 C2.88 127.42 3.01 127.49 3.14 127.69 C3.2 127.83 3.27 127.96 3.27 128.17 C3.27 128.37
							 3.2 128.64 3.01 128.77 C2.94 128.84 2.75 128.91 2.55 128.91 Z" class="st1"/>
			</g>
		</g>
	</g>
</svg>
