<?xml version="1.0" encoding="UTF-8" standalone="no"?>
<!DOCTYPE svg PUBLIC "-//W3C//DTD SVG 1.1//EN" "http://www.w3.org/Graphics/SVG/1.1/DTD/svg11.dtd">
<!-- Generated by Microsoft Visio, SVG Export Cognitive Services.svg Page-1 -->
<svg xmlns="http://www.w3.org/2000/svg" xmlns:xlink="http://www.w3.org/1999/xlink" xmlns:ev="http://www.w3.org/2001/xml-events"
		width="1.73185in" height="1.49595in" viewBox="0 0 124.693 107.708" xml:space="preserve" color-interpolation-filters="sRGB"
		class="st4">
	<style type="text/css">
	<![CDATA[
		.st1 {fill:url(#grad0-6);stroke:none;stroke-linecap:butt;stroke-width:34}
		.st2 {fill:#9cebff;stroke:none;stroke-linecap:butt;stroke-width:34}
		.st3 {fill:#f2f2f2;stroke:none;stroke-linecap:butt;stroke-width:34}
		.st4 {fill:none;fill-rule:evenodd;font-size:12px;overflow:visible;stroke-linecap:square;stroke-miterlimit:3}
	]]>
	</style>

	<defs id="Patterns_And_Gradients">
		<linearGradient id="grad0-6" x1="0" y1="0" x2="1" y2="0" gradientTransform="rotate(-90 0.5 0.5)">
			<stop offset="0" stop-color="#0078d4" stop-opacity="1"/>
			<stop offset="0.16" stop-color="#1380da" stop-opacity="1"/>
			<stop offset="0.53" stop-color="#3c91e5" stop-opacity="1"/>
			<stop offset="0.82" stop-color="#559cec" stop-opacity="1"/>
			<stop offset="1" stop-color="#5ea0ef" stop-opacity="1"/>
		</linearGradient>
	</defs>
	<g>
		<title>Page-1</title>
		<g id="group3543-1" transform="translate(34,-34.0157)">
			<title>Cognitive Services</title>
			<g id="group3544-2">
				<title>Icon-machinelearning-162</title>
				<g id="shape3545-3">
					<title>Sheet.3545</title>
					<path d="M56.69 95.25 A12.5984 12.4329 -180 0 0 45.64 83.19 A16.063 15.8519 -180 0 0 29.1 68.02 A16.5354 16.3181
								 -180 0 0 13.29 78.53 A15.1181 14.9194 -180 0 0 0 93.04 A15.4331 15.2302 -180 0 0 15.97 107.68 L43.21
								 107.68 A2.45669 2.42441 -180 0 0 43.91 107.68 A12.9134 12.7437 -180 0 0 56.69 95.25 Z" class="st1"/>
				</g>
				<g id="shape3546-7" transform="translate(7.52092,-0.0242297)">
					<title>Sheet.3546</title>
					<path d="M9.55 92.2 L6.78 92.2 A3.43307 3.38795 -180 1 0 6.78 93.72 L9.55 93.72 a0.629921 0.621643 0 0 1 0.629921
								 0.621643 L10.18 107.71 L11.72 107.71 L11.72 94.34 A2.17323 2.14467 -180 0 0 9.55 92.2 ZM3.41 94.93
								 A2.01575 1.98926 0 1 1 5.42 92.94 A2.01575 1.98926 0 0 1 3.41 94.93 Z" class="st2"/>
				</g>
				<g id="shape3547-9" transform="translate(18.8976,-9.05107)">
					<title>Sheet.3547</title>
					<path d="M9.26 101.91 L9.26 98.8 A2.20472 2.17575 -180 0 0 7.06 96.62 L2.17 96.62 a0.629921 0.621643 0 0 1 -0.629921
								 -0.621643 L1.54 79.5 L0.82 79.87 L0 80.31 L0 95.85 A2.17323 2.14467 -180 0 0 2.17 97.99 L7.06 97.99
								 a0.661417 0.652725 0 0 1 0.661417 0.652725 L7.72 101.75 A3.40157 3.35687 -180 0 0 5.04 105.05 A3.43307
								 3.38795 -180 1 0 9.26 101.75 L9.26 101.91 ZM8.47 107.19 A2.01575 1.98926 0 1 1 10.49 105.2 A2.01575
								 1.98926 0 0 1 8.47 107.19 Z" class="st3"/>
				</g>
				<g id="shape3548-11" transform="translate(26.5644,-0.0242297)">
					<title>Sheet.3548</title>
					<path d="M19.2 86.32 A3.43307 3.38795 -180 0 0 18.41 93.01 L18.41 93.63 a0.661417 0.652725 0 0 1 -0.661417 0.652725
								 L11.45 94.28 L11.45 83.34 A2.17323 2.14467 -180 0 0 9.28 81.2 L6.03 81.2 A3.40157 3.35687 -180 0
								 0 2.7 78.55 A3.43307 3.38795 -180 1 0 6.03 82.72 L9.4 82.72 a0.629921 0.621643 0 0 1 0.629921 0.621643
								 L10.03 107.71 L11.58 107.71 L11.58 95.8 L17.88 95.8 A2.20472 2.17575 -180 0 0 20.08 93.63 L20.08
								 93.01 A3.43307 3.38795 -180 0 0 22.76 89.71 A3.43307 3.38795 -180 0 0 19.2 86.32 ZM2.7 83.93 A2.01575
								 1.98926 0 1 1 4.71 81.94 A2.01575 1.98926 0 0 1 2.7 83.93 ZM19.2 91.7 A2.01575 1.98926 0 1 1 21.18
								 89.71 A2.01575 1.98926 0 0 1 19.2 91.7 Z" class="st2"/>
				</g>
			</g>
		</g>
	</g>
</svg>
