<?xml version="1.0" encoding="UTF-8" standalone="no"?>
<!DOCTYPE svg PUBLIC "-//W3C//DTD SVG 1.1//EN" "http://www.w3.org/Graphics/SVG/1.1/DTD/svg11.dtd">
<!-- Generated by Microsoft Visio, SVG Export Cognitive Services Customised Experience.svg Page-1 -->
<svg xmlns="http://www.w3.org/2000/svg" xmlns:xlink="http://www.w3.org/1999/xlink" xmlns:ev="http://www.w3.org/2001/xml-events"
		width="1.13434in" height="1.43331in" viewBox="0 0 81.6725 103.198" xml:space="preserve" color-interpolation-filters="sRGB"
		class="st3">
	<style type="text/css">
	<![CDATA[
		.st1 {fill:#0078d4;stroke:none;stroke-linecap:butt;stroke-width:12.4898}
		.st2 {fill:#50e6ff;stroke:none;stroke-linecap:butt;stroke-width:12.4898}
		.st3 {fill:none;fill-rule:evenodd;font-size:12px;overflow:visible;stroke-linecap:square;stroke-miterlimit:3}
	]]>
	</style>

	<g>
		<title>Page-1</title>
		<g id="group3841-1" transform="translate(12.4898,-34.0157)">
			<title>Cognitive Services Customised Experience</title>
			<g id="shape3842-2" transform="translate(42.2713,-42.2687)">
				<title>Sheet.3842</title>
				<path d="M0 88.78 L14.42 88.78 L14.42 103.2 L8.45 103.2 L8.45 94.75 L0 94.75 L0 88.78 Z" class="st1"/>
			</g>
			<g id="shape3843-4" transform="translate(16.9031,-42.2733)">
				<title>Sheet.3843</title>
				<path d="M5.97 103.2 L0 103.2 L0 88.78 L14.42 88.78 L14.42 94.75 L5.97 94.75 L5.97 103.2 Z" class="st1"/>
			</g>
			<g id="shape3844-6" transform="translate(42.2713,-16.9495)">
				<title>Sheet.3844</title>
				<path d="M8.45 88.78 L14.42 88.78 L14.42 103.2 L0 103.2 L0 97.23 L8.45 97.23 L8.45 88.78 Z" class="st1"/>
			</g>
			<g id="shape3845-8" transform="translate(16.9031,-16.9403)">
				<title>Sheet.3845</title>
				<path d="M0 103.2 L0 88.78 L5.97 88.78 L5.97 97.23 L14.42 97.23 L14.42 103.2 L0 103.2 Z" class="st1"/>
			</g>
			<g id="shape3846-10" transform="translate(25.3632,-33.8128)">
				<title>Sheet.3846</title>
				<path d="M2.98 103.2 C1.33 103.2 0 101.87 0 100.22 C0 98.56 1.33 97.23 2.98 97.23 C4.63 97.23 5.97 98.56 5.97 100.22
							 C5.97 101.86 4.62 103.2 2.98 103.2 Z" class="st2"/>
			</g>
			<g id="shape3847-12" transform="translate(33.817,-42.2649)">
				<title>Sheet.3847</title>
				<path d="M2.98 103.2 C1.33 103.2 0 101.87 0 100.22 C0 98.56 1.33 97.23 2.98 97.23 C4.63 97.23 5.97 98.56 5.97 100.22
							 C5.97 101.86 4.62 103.2 2.98 103.2 Z" class="st2"/>
			</g>
			<g id="shape3848-14" transform="translate(42.2713,-33.8128)">
				<title>Sheet.3848</title>
				<path d="M2.98 103.2 C1.33 103.2 0 101.87 0 100.22 C0 98.56 1.33 97.23 2.98 97.23 C4.63 97.23 5.97 98.56 5.97 100.22
							 C5.97 101.86 4.62 103.2 2.98 103.2 Z" class="st2"/>
			</g>
			<g id="shape3849-16" transform="translate(33.817,-25.3608)">
				<title>Sheet.3849</title>
				<path d="M2.98 103.2 C1.33 103.2 0 101.87 0 100.22 C0 98.56 1.33 97.23 2.98 97.23 C4.63 97.23 5.97 98.56 5.97 100.22
							 C5.97 101.86 4.62 103.2 2.98 103.2 Z" class="st2"/>
			</g>
			<g id="shape3850-18" transform="translate(33.817,-33.8128)">
				<title>Sheet.3850</title>
				<path d="M2.98 103.2 C1.33 103.2 0 101.87 0 100.22 C0 98.56 1.33 97.23 2.98 97.23 C4.63 97.23 5.97 98.56 5.97 100.22
							 C5.97 101.86 4.62 103.2 2.98 103.2 Z" class="st2"/>
			</g>
			<g id="shape3851-20" transform="translate(-1.1291E-13,-50.7216)">
				<title>Sheet.3851</title>
				<path d="M2.98 103.2 C1.33 103.2 0 101.87 0 100.22 C0 98.56 1.33 97.23 2.98 97.23 C4.63 97.23 5.97 98.56 5.97 100.22
							 C5.97 101.86 4.62 103.2 2.98 103.2 Z" class="st2"/>
			</g>
			<g id="shape3852-22" transform="translate(8.45438,-50.7216)">
				<title>Sheet.3852</title>
				<path d="M5.97 97.23 L0 97.23 L0 103.2 L5.97 103.2 L5.97 97.23 Z" class="st2"/>
			</g>
			<g id="shape3853-24" transform="translate(0.000577625,-42.2649)">
				<title>Sheet.3853</title>
				<path d="M5.97 97.23 L0 97.23 L0 103.2 L5.97 103.2 L5.97 97.23 Z" class="st2"/>
			</g>
			<g id="shape3854-26" transform="translate(8.45438,-42.2649)">
				<title>Sheet.3854</title>
				<path d="M5.97 97.23 L0 97.23 L0 103.2 L5.97 103.2 L5.97 97.23 Z" class="st2"/>
			</g>
			<g id="shape3855-28" transform="translate(0.000577625,-33.8128)">
				<title>Sheet.3855</title>
				<path d="M5.97 97.23 L0 97.23 L0 103.2 L5.97 103.2 L5.97 97.23 Z" class="st2"/>
			</g>
			<g id="shape3856-30" transform="translate(8.45438,-33.8128)">
				<title>Sheet.3856</title>
				<path d="M2.98 103.2 C1.33 103.2 0 101.87 0 100.22 C0 98.56 1.33 97.23 2.98 97.23 C4.63 97.23 5.97 98.56 5.97 100.22
							 C5.97 101.86 4.62 103.2 2.98 103.2 Z" class="st2"/>
			</g>
			<g id="shape3857-32" transform="translate(0.000577625,-16.9087)">
				<title>Sheet.3857</title>
				<path d="M5.97 97.23 L0 97.23 L0 103.2 L5.97 103.2 L5.97 97.23 Z" class="st2"/>
			</g>
			<g id="shape3858-34" transform="translate(8.45438,-8.45672)">
				<title>Sheet.3858</title>
				<path d="M5.97 97.23 L0 97.23 L0 103.2 L5.97 103.2 L5.97 97.23 Z" class="st2"/>
			</g>
			<g id="shape3859-36" transform="translate(50.7252,-5.68434E-14)">
				<title>Sheet.3859</title>
				<path d="M2.98 103.2 C1.33 103.2 0 101.87 0 100.22 C0 98.56 1.33 97.23 2.98 97.23 C4.63 97.23 5.97 98.56 5.97 100.22
							 C5.97 101.86 4.62 103.2 2.98 103.2 Z" class="st2"/>
			</g>
			<g id="shape3860-38" transform="translate(33.817,-5.68434E-14)">
				<title>Sheet.3860</title>
				<path d="M5.97 97.23 L0 97.23 L0 103.2 L5.97 103.2 L5.97 97.23 Z" class="st2"/>
			</g>
			<g id="shape3861-40" transform="translate(42.2713,-8.45672)">
				<title>Sheet.3861</title>
				<path d="M5.97 97.23 L0 97.23 L0 103.2 L5.97 103.2 L5.97 97.23 Z" class="st2"/>
			</g>
			<g id="shape3862-42" transform="translate(16.9087,-5.68434E-14)">
				<title>Sheet.3862</title>
				<path d="M2.98 103.2 C1.33 103.2 0 101.87 0 100.22 C0 98.56 1.33 97.23 2.98 97.23 C4.63 97.23 5.97 98.56 5.97 100.22
							 C5.97 101.86 4.62 103.2 2.98 103.2 Z" class="st2"/>
			</g>
			<g id="shape3863-44" transform="translate(8.45438,-5.68434E-14)">
				<title>Sheet.3863</title>
				<path d="M5.97 97.23 L0 97.23 L0 103.2 L5.97 103.2 L5.97 97.23 Z" class="st2"/>
			</g>
			<g id="shape3864-46" transform="translate(25.3632,-8.45672)">
				<title>Sheet.3864</title>
				<path d="M5.97 97.23 L0 97.23 L0 103.2 L5.97 103.2 L5.97 97.23 Z" class="st2"/>
			</g>
		</g>
	</g>
</svg>
