<?xml version="1.0" encoding="UTF-8" standalone="no"?>
<!DOCTYPE svg PUBLIC "-//W3C//DTD SVG 1.1//EN" "http://www.w3.org/Graphics/SVG/1.1/DTD/svg11.dtd">
<!-- Generated by Microsoft Visio, SVG Export Cognitive Services Language.svg Page-1 -->
<svg xmlns="http://www.w3.org/2000/svg" xmlns:xlink="http://www.w3.org/1999/xlink" xmlns:ev="http://www.w3.org/2001/xml-events"
		width="1.5748in" height="1.39567in" viewBox="0 0 113.386 100.488" xml:space="preserve" color-interpolation-filters="sRGB"
		class="st2">
	<style type="text/css">
	<![CDATA[
		.st1 {fill:#3176bc;stroke:#3176bc;stroke-linecap:butt;stroke-width:0.075}
		.st2 {fill:none;fill-rule:evenodd;font-size:12px;overflow:visible;stroke-linecap:square;stroke-miterlimit:3}
	]]>
	</style>

	<g>
		<title>Page-1</title>
		<g id="group3638-1" transform="translate(28.3465,-59.9528)">
			<title>Cognitive Services Language</title>
			<g id="group3639-2">
				<title>g12</title>
				<g id="shape3640-3">
					<title>path1491-5</title>
					<path d="M4.21 100.3 C4.21 100.25 4.01 99.2 3.76 97.96 C3.51 96.72 3.25 95.27 3.17 94.72 L3.02 93.73 L5.04 92.58
								 C7.27 91.32 9.9 89.06 9.9 88.41 C9.9 88.12 9.35 87.75 8.08 87.19 C2.97 84.91 0 79.03 1.14 73.45
								 C2.29 67.87 7.36 63.64 12.91 63.65 C19.14 63.67 24.18 67.67 25.94 73.98 C26.52 76.08 26.54 80.87
								 25.97 83.19 C23.83 91.93 16.69 98.39 7.39 100.03 C5.37 100.39 4.21 100.49 4.21 100.3 L4.21 100.3
								 ZM10.22 96.31 C17.43 93.98 22.52 87.99 23.47 80.71 C24.61 72.05 18.85 65.4 11.39 66.75 C6.39 67.65
								 3.03 72.5 3.94 77.48 C4.75 81.94 7.69 84.71 12.25 85.32 C13.24 85.45 14.1 85.59 14.14 85.64 C14.35
								 85.83 13.35 88.62 12.73 89.62 C11.8 91.09 9.66 93.12 7.83 94.26 C6.51 95.08 6.34 95.27 6.34 95.95
								 C6.34 96.37 6.41 96.79 6.5 96.87 C6.82 97.2 8.06 97.01 10.22 96.31 ZM34.36 100.3 C34.36 100.25 34.16
								 99.2 33.91 97.96 C33.67 96.72 33.4 95.27 33.32 94.72 L33.17 93.73 L35.19 92.58 C37.42 91.32 40.06
								 89.06 40.06 88.41 C40.06 88.12 39.5 87.75 38.24 87.19 C33.12 84.91 30.15 79.03 31.29 73.45 C32.43
								 67.89 37.54 63.64 43.06 63.65 C49.29 63.67 54.33 67.67 56.09 73.98 C56.68 76.08 56.69 80.87 56.12
								 83.19 C53.98 91.93 46.84 98.39 37.54 100.03 C35.52 100.39 34.36 100.49 34.36 100.3 L34.36 100.3
								 ZM40.37 96.31 C47.59 93.98 52.67 87.99 53.62 80.71 C54.76 72.05 49 65.4 41.54 66.75 C36.54 67.65
								 33.18 72.5 34.09 77.48 C34.9 81.94 37.84 84.71 42.4 85.32 C43.39 85.45 44.25 85.59 44.29 85.64 C44.5
								 85.83 43.51 88.62 42.88 89.62 C41.95 91.09 39.81 93.12 37.98 94.26 C36.66 95.08 36.49 95.27 36.49
								 95.95 C36.49 96.37 36.57 96.79 36.65 96.87 C36.97 97.2 38.21 97.01 40.37 96.31 Z" class="st1"/>
				</g>
			</g>
		</g>
	</g>
</svg>
