<?xml version="1.0" encoding="UTF-8" standalone="no"?>
<!-- Generated by Microsoft Visio, SVG Export Cognitive Services Language.svg Page-1 -->

<svg
   xmlns:dc="http://purl.org/dc/elements/1.1/"
   xmlns:cc="http://creativecommons.org/ns#"
   xmlns:rdf="http://www.w3.org/1999/02/22-rdf-syntax-ns#"
   xmlns:svg="http://www.w3.org/2000/svg"
   xmlns="http://www.w3.org/2000/svg"
   xmlns:sodipodi="http://sodipodi.sourceforge.net/DTD/sodipodi-0.dtd"
   xmlns:inkscape="http://www.inkscape.org/namespaces/inkscape"
   width="0.787359in"
   height="0.78738469in"
   viewBox="0 0 56.689756 56.692008"
   xml:space="preserve"
   class="st7"
   version="1.1"
   id="svg55"
   sodipodi:docname="Cognitive Services Language.svg"
   style="font-size:12px;overflow:visible;color-interpolation-filters:sRGB;fill:none;fill-rule:evenodd;stroke-linecap:square;stroke-miterlimit:3"
   inkscape:version="0.92.5 (2060ec1f9f, 2020-04-08)"><metadata
   id="metadata59"><rdf:RDF><cc:Work
       rdf:about=""><dc:format>image/svg+xml</dc:format><dc:type
         rdf:resource="http://purl.org/dc/dcmitype/StillImage" /></cc:Work></rdf:RDF></metadata><sodipodi:namedview
   pagecolor="#ffffff"
   bordercolor="#666666"
   borderopacity="1"
   objecttolerance="10"
   gridtolerance="10"
   guidetolerance="10"
   inkscape:pageopacity="0"
   inkscape:pageshadow="2"
   inkscape:window-width="640"
   inkscape:window-height="480"
   id="namedview57"
   showgrid="false"
   inkscape:zoom="1.4193119"
   inkscape:cx="37.795128"
   inkscape:cy="37.786193"
   inkscape:window-x="0"
   inkscape:window-y="0"
   inkscape:window-maximized="0"
   inkscape:current-layer="svg55" />
	<style
   type="text/css"
   id="style2">
	<![CDATA[
		.st1 {fill:#faa21d;stroke:none;stroke-linecap:butt;stroke-width:34}
		.st2 {fill:url(#grad0-8);stroke:none;stroke-linecap:butt;stroke-width:34}
		.st3 {fill:#f78d1e;stroke:none;stroke-linecap:butt;stroke-width:34}
		.st4 {fill:url(#grad0-14);stroke:none;stroke-linecap:butt;stroke-width:34}
		.st5 {fill:#9cebff;stroke:none;stroke-linecap:butt;stroke-width:34}
		.st6 {fill:#f2f2f2;stroke:none;stroke-linecap:butt;stroke-width:34}
		.st7 {fill:none;fill-rule:evenodd;font-size:12px;overflow:visible;stroke-linecap:square;stroke-miterlimit:3}
	]]>
	</style>

	<defs
   id="Patterns_And_Gradients">
		<linearGradient
   id="grad0-8"
   x1="-0.0011062826"
   y1="83.683256"
   x2="32.686499"
   y2="83.683256"
   gradientTransform="scale(0.93313175,1.07166)"
   gradientUnits="userSpaceOnUse">
			<stop
   offset="0"
   stop-color="#ffb34d"
   stop-opacity="1"
   id="stop4" />
			<stop
   offset="1"
   stop-color="#faa21d"
   stop-opacity="1"
   id="stop6" />
		</linearGradient>
		<linearGradient
   id="grad0-14"
   x1="0"
   y1="109.70442"
   x2="27.093687"
   y2="109.70442"
   gradientTransform="scale(1.0969345,0.91163146)"
   gradientUnits="userSpaceOnUse">
			<stop
   offset="0"
   stop-color="#50e6ff"
   stop-opacity="1"
   id="stop9" />
			<stop
   offset="1"
   stop-color="#32bedd"
   stop-opacity="1"
   id="stop11" />
		</linearGradient>
	</defs>
	<g
   id="g53"
   transform="translate(-34.000441,-34.00229)">
		<title
   id="title15">Page-1</title>
		<g
   id="group7327-1"
   transform="translate(34,-34.0157)">
			<title
   id="title17">Cognitive Services Language</title>
			<g
   id="group7328-2">
				<title
   id="title19">Sheet.7328</title>
				<g
   id="shape7329-3">
					<title
   id="title21">Sheet.7329</title>
					<path
   d="M 1.14,77.9 A 1.14016,1.14016 0 0 1 0,76.76 v -7.61 a 1.14016,1.14016 0 0 1 1.14,-1.13 h 7.14 a 1.13701,1.13701 0 1 1 0,2.27 h -6 v 6.47 A 1.14331,1.14331 0 0 1 1.14,77.9 Z m 55.55,-1.14 v -7.61 a 1.14016,1.14016 -180 0 0 -1.14,-1.13 h -7.13 a 1.13701,1.13701 -180 1 0 0,2.27 h 5.98 v 6.47 a 1.14016,1.14016 -180 1 0 2.28,0 z M 9.42,123.57 a 1.13701,1.13701 -180 0 0 -1.14,-1.14 h -6 v -6.46 a 1.14016,1.14016 -180 0 0 -2.28,0 v 7.6 a 1.14016,1.14016 -180 0 0 1.14,1.14 h 7.14 a 1.14016,1.14016 -180 0 0 1.14,-1.14 z m 47.27,0 v -7.6 a 1.14016,1.14016 -180 1 0 -2.28,0 v 6.46 h -5.98 a 1.14,1.14 -180 0 0 0,2.28 h 7.14 a 1.14016,1.14016 -180 0 0 1.12,-1.14 z"
   class="st1"
   id="path23"
   inkscape:connector-curvature="0"
   style="fill:#faa21d;stroke:none;stroke-width:34;stroke-linecap:butt" />
				</g>
				<g
   id="shape7330-5"
   transform="translate(22.0472,-14.3055)">
					<title
   id="title26">Sheet.7330</title>
					<path
   d="m 30.5,90.72 v 32.95 a 1.00157,1.00157 0 0 1 -0.94,1.04 H 11.43 a 0.885039,0.885039 0 0 1 -0.885039,-0.88504 L 10.54,108.36 A 2.97638,2.97638 -180 0 0 7.61,105.63 H 0.88 A 0.885039,0.885039 0 0 1 0.00126,104.74811 L 0,90.72 A 0.995276,0.995276 0 0 1 0.944882,89.68063 L 29.54,89.68 a 1.00157,1.00157 0 0 1 0.96,1.04 z"
   class="st2"
   id="path28"
   inkscape:connector-curvature="0"
   style="fill:url(#grad0-8);stroke:none;stroke-width:34;stroke-linecap:butt" />
				</g>
				<g
   id="shape7331-9"
   transform="translate(41.0803,-36.5197)">
					<title
   id="title31">Sheet.7331</title>
					<path
   d="M 6.54,124.71 H 0.9 A 1.02992,1.02992 0 0 1 0,123.59 1.03307,1.03307 0 0 1 0.9,122.46 h 5.64 a 1.03307,1.03307 0 0 1 0.9,1.13 1.02992,1.02992 0 0 1 -0.9,1.12 z"
   class="st3"
   id="path33"
   inkscape:connector-curvature="0"
   style="fill:#f78d1e;stroke:none;stroke-width:34;stroke-linecap:butt" />
				</g>
				<g
   id="shape7332-11"
   transform="translate(1.54016,-7.35748)">
					<title
   id="title36">Sheet.7332</title>
					<path
   d="M 28.11,100.01 H 1.61 A 1.66929,1.66929 -180 0 0 0,101.51 v 17.92 a 1.65039,1.65039 -180 0 0 1.61,1.5 h 8.77 a 0.251969,0.251969 0 0 1 0.255118,0.24882 L 10.63,124.19 a 0.601575,0.601575 -180 0 0 0.655118,0.51654 0.570079,0.570079 -180 0 0 0.270866,-0.11024 L 12.43,124.03 l 2.43,-1.61 2.2,-1.47 a 0.346457,0.346457 0 0 1 0.16378,-0.0535 L 28.11,120.9 a 1.60315,1.60315 -180 0 0 1.61,-1.47 v -17.92 a 1.64724,1.64724 -180 0 0 -1.61,-1.5 z"
   class="st4"
   id="path38"
   inkscape:connector-curvature="0"
   style="fill:url(#grad0-14);stroke:none;stroke-width:34;stroke-linecap:butt" />
				</g>
				<g
   id="shape7333-15"
   transform="translate(5.17795,-17.6)">
					<title
   id="title41">Sheet.7333</title>
					<path
   d="M 5.22,124.71 H 0.9 c -0.5,0 -0.9,-0.54 -0.9,-1.2 0,-0.66 0.4,-1.19 0.9,-1.19 h 4.32 c 0.49,0 0.9,0.53 0.9,1.19 0,0.66 -0.4,1.2 -0.9,1.2 z"
   class="st5"
   id="path43"
   inkscape:connector-curvature="0"
   style="fill:#9cebff;stroke:none;stroke-width:34;stroke-linecap:butt" />
				</g>
				<g
   id="shape7334-17"
   transform="translate(4.95433,-17.6)">
					<title
   id="title46">Sheet.7334</title>
					<path
   d="m 33.22,105.79 h -11.2 a 1.125,1.125 0 1 1 0,-2.25 h 11.2 a 1.125,1.125 0 1 1 0,2.25 z m 10.57,4.88 a 1.12441,1.12441 -180 0 0 -1.13,-1.12 H 31.95 a 1.125,1.125 -180 1 0 0,2.25 h 10.71 a 1.12441,1.12441 -180 0 0 1.13,-1.13 z m -30.34,6.91 a 1.12126,1.12126 -180 0 0 -1.13,-1.12 H 1.12 a 1.12126,1.12126 -180 1 0 0,2.24 h 11.2 a 1.12126,1.12126 -180 0 0 1.13,-1.12 z m 9.45,6 a 1.12441,1.12441 -180 0 0 -1.13,-1.12 H 9.26 a 1.125,1.125 -180 1 0 0,2.25 h 12.51 a 1.12441,1.12441 -180 0 0 1.12,-1.13 z"
   class="st6"
   id="path48"
   inkscape:connector-curvature="0"
   style="fill:#f2f2f2;stroke:none;stroke-width:34;stroke-linecap:butt" />
				</g>
			</g>
		</g>
	</g>
</svg>