<?xml version="1.0" encoding="UTF-8" standalone="no"?>
<!DOCTYPE svg PUBLIC "-//W3C//DTD SVG 1.1//EN" "http://www.w3.org/Graphics/SVG/1.1/DTD/svg11.dtd">
<!-- Generated by Microsoft Visio, SVG Export Cognitive Services Health and Life Science.svg Page-1 -->
<svg xmlns="http://www.w3.org/2000/svg" xmlns:xlink="http://www.w3.org/1999/xlink" xmlns:ev="http://www.w3.org/2001/xml-events"
		width="1.5748in" height="1.85928in" viewBox="0 0 113.386 133.868" xml:space="preserve" color-interpolation-filters="sRGB"
		class="st3">
	<style type="text/css">
	<![CDATA[
		.st1 {fill:#0078d4;stroke:none;stroke-linecap:butt;stroke-width:6.30928}
		.st2 {fill:#50e6ff;stroke:none;stroke-linecap:butt;stroke-width:6.30928}
		.st3 {fill:none;fill-rule:evenodd;font-size:12px;overflow:visible;stroke-linecap:square;stroke-miterlimit:3}
	]]>
	</style>

	<g>
		<title>Page-1</title>
		<g id="group3676-1" transform="translate(28.3465,-70.8661)">
			<title>Cognitive Services Health and Life Science</title>
			<g id="shape3677-2">
				<title>Sheet.3677</title>
				<path d="M28.35 77.18 C12.69 77.18 0 89.87 0 105.52 C0 121.18 12.69 133.87 28.35 133.87 C44 133.87 56.69 121.18 56.69
							 105.52 C56.69 89.87 44 77.18 28.35 77.18 ZM28.35 77.62 C43.73 77.62 56.25 90.14 56.25 105.52 C56.25
							 120.91 43.73 133.43 28.35 133.43 C12.96 133.43 0.44 120.91 0.44 105.52 C0.44 90.14 12.96 77.62 28.35
							 77.62 Z" class="st1"/>
			</g>
			<g id="shape3678-4" transform="translate(6.64368,-6.6437)">
				<title>Sheet.3678</title>
				<path d="M21.7 90.46 C9.72 90.46 0 100.18 0 112.17 C0 124.15 9.72 133.87 21.7 133.87 C33.69 133.87 43.41 124.15 43.41
							 112.17 C43.41 100.18 33.69 90.46 21.7 90.46 ZM21.7 90.9 C33.43 90.9 42.96 100.44 42.96 112.17 C42.96
							 123.89 33.43 133.43 21.7 133.43 C9.98 133.43 0.44 123.89 0.44 112.17 C0.44 100.44 9.98 90.9 21.7 90.9
							 Z" class="st1"/>
			</g>
			<g id="shape3679-6" transform="translate(12.8445,-12.8445)">
				<title>Sheet.3679</title>
				<path d="M15.28 103.31 C6.84 103.31 0 110.15 0 118.59 C0 127.03 6.84 133.87 15.28 133.87 C23.72 133.87 30.56 127.03
							 30.56 118.59 C30.56 110.15 23.72 103.31 15.28 103.31 ZM15.28 103.75 C23.46 103.75 30.12 110.41 30.12
							 118.59 C30.12 126.77 23.46 133.42 15.28 133.42 C7.1 133.42 0.44 126.77 0.44 118.59 C0.44 110.41 7.1
							 103.75 15.28 103.75 Z" class="st1"/>
			</g>
			<g id="shape3680-8" transform="translate(23.0315,-23.0315)">
				<title>Sheet.3680</title>
				<path d="M10.63 128.55 C10.63 131.49 8.25 133.87 5.31 133.87 C2.38 133.87 0 131.49 0 128.55 C0 125.62 2.38 123.24
							 5.31 123.24 C8.25 123.24 10.63 125.62 10.63 128.55 Z" class="st1"/>
			</g>
			<g id="shape3681-10" transform="translate(38.0905,-17.7165)">
				<title>Sheet.3681</title>
				<path d="M5.31 131.21 C5.31 132.68 4.12 133.87 2.66 133.87 C1.19 133.87 0 132.68 0 131.21 C0 129.74 1.19 128.55 2.66
							 128.55 C4.12 128.55 5.31 129.74 5.31 131.21 Z" class="st1"/>
			</g>
			<g id="shape3682-12" transform="translate(10.6299,-24.8031)">
				<title>Sheet.3682</title>
				<path d="M5.31 131.21 C5.31 132.68 4.12 133.87 2.66 133.87 C1.19 133.87 0 132.68 0 131.21 C0 129.74 1.19 128.55 2.66
							 128.55 C4.12 128.55 5.31 129.74 5.31 131.21 Z" class="st1"/>
			</g>
			<g id="shape3683-14" transform="translate(30.1181,-46.063)">
				<title>Sheet.3683</title>
				<path d="M5.31 131.21 C5.31 132.68 4.12 133.87 2.66 133.87 C1.19 133.87 0 132.68 0 131.21 C0 129.74 1.19 128.55 2.66
							 128.55 C4.12 128.55 5.31 129.74 5.31 131.21 Z" class="st2"/>
			</g>
			<g id="shape3684-16" transform="translate(40.748,-1.77165)">
				<title>Sheet.3684</title>
				<path d="M5.31 131.21 C5.31 132.68 4.12 133.87 2.66 133.87 C1.19 133.87 0 132.68 0 131.21 C0 129.74 1.19 128.55 2.66
							 128.55 C4.12 128.55 5.31 129.74 5.31 131.21 Z" class="st1"/>
			</g>
			<g id="shape3685-18" transform="translate(3.54331,-8.85827)">
				<title>Sheet.3685</title>
				<path d="M5.31 131.21 C5.31 132.68 4.12 133.87 2.66 133.87 C1.19 133.87 0 132.68 0 131.21 C0 129.74 1.19 128.55 2.66
							 128.55 C4.12 128.55 5.31 129.74 5.31 131.21 Z" class="st2"/>
			</g>
			<g id="shape3686-20" transform="translate(47.8346,-42.5197)">
				<title>Sheet.3686</title>
				<path d="M5.31 131.21 C5.31 132.68 4.12 133.87 2.66 133.87 C1.19 133.87 0 132.68 0 131.21 C0 129.74 1.19 128.55 2.66
							 128.55 C4.12 128.55 5.31 129.74 5.31 131.21 Z" class="st1"/>
			</g>
		</g>
	</g>
</svg>
