<?xml version="1.0" encoding="UTF-8" standalone="no"?>
<!DOCTYPE svg PUBLIC "-//W3C//DTD SVG 1.1//EN" "http://www.w3.org/Graphics/SVG/1.1/DTD/svg11.dtd">
<!-- Generated by Microsoft Visio, SVG Export Cognitive Services Bot.svg Page-1 -->
<svg xmlns="http://www.w3.org/2000/svg" xmlns:xlink="http://www.w3.org/1999/xlink" xmlns:ev="http://www.w3.org/2001/xml-events"
		width="1.5748in" height="1.85039in" viewBox="0 0 113.386 133.228" xml:space="preserve" color-interpolation-filters="sRGB"
		class="st5">
	<style type="text/css">
	<![CDATA[
		.st1 {fill:none}
		.st2 {stroke:#50e6ff;stroke-linecap:butt;stroke-width:0.75}
		.st3 {fill:#50e6ff;stroke:none;stroke-linecap:butt;stroke-width:0.75}
		.st4 {fill:#0078d4;stroke:none;stroke-linecap:butt;stroke-width:0.75}
		.st5 {fill:none;fill-rule:evenodd;font-size:12px;overflow:visible;stroke-linecap:square;stroke-miterlimit:3}
	]]>
	</style>

	<g>
		<title>Page-1</title>
		<g id="group3781-1" transform="translate(28.3465,-70.8661)">
			<title>Cognitive Services Bot</title>
			<g id="shape3782-2" transform="translate(2.66959,-2.65748)">
				<title>Sheet.3782</title>
				<path d="M0 81.85 L51.37 133.23 L0 81.85 Z" class="st1"/>
				<path d="M0 81.85 L51.37 133.23" class="st2"/>
			</g>
			<g id="shape3783-5" transform="translate(2.65748,-2.65748)">
				<title>Sheet.3783</title>
				<path d="M0 133.23 L51.38 81.85 L0 133.23 Z" class="st1"/>
				<path d="M0 133.23 L51.38 81.85" class="st2"/>
			</g>
			<g id="shape3784-8" transform="translate(2.65748,-28.3597)">
				<title>Sheet.3784</title>
				<path d="M0 133.23 L51.38 133.23 L0 133.23 Z" class="st1"/>
				<path d="M0 133.23 L51.38 133.23" class="st2"/>
			</g>
			<g id="shape3785-11" transform="translate(28.3414,-2.6576)">
				<title>Sheet.3785</title>
				<path d="M0 81.79 L0 133.23 L0 81.79 Z" class="st1"/>
				<path d="M0 81.79 L0 133.23" class="st2"/>
			</g>
			<g id="shape3786-14" transform="translate(2.65748,-2.65748)">
				<title>Sheet.3786</title>
				<path d="M0 133.23 L51.38 107.53 L0 133.23 Z" class="st1"/>
				<path d="M0 133.23 L51.38 107.53" class="st2"/>
			</g>
			<g id="shape3787-17" transform="translate(2.65748,-2.65748)">
				<title>Sheet.3787</title>
				<path d="M51.38 133.23 L0 107.53 L51.38 133.23 Z" class="st1"/>
				<path d="M51.38 133.23 L0 107.53" class="st2"/>
			</g>
			<g id="shape3788-20" transform="translate(2.66959,-28.3597)">
				<title>Sheet.3788</title>
				<path d="M0 107.55 L51.37 133.23 L0 107.55 Z" class="st1"/>
				<path d="M0 107.55 L51.37 133.23" class="st2"/>
			</g>
			<g id="shape3789-23" transform="translate(2.65748,-28.3597)">
				<title>Sheet.3789</title>
				<path d="M51.38 107.55 L0 133.23 L51.38 107.55 Z" class="st1"/>
				<path d="M51.38 107.55 L0 133.23" class="st2"/>
			</g>
			<g id="shape3790-26" transform="translate(28.3465,-28.3597)">
				<title>Sheet.3790</title>
				<path d="M0 107.55 L25.69 133.23 L0 107.55 Z" class="st1"/>
				<path d="M0 107.55 L25.69 133.23" class="st2"/>
			</g>
			<g id="shape3791-29" transform="translate(2.65748,-28.3599)">
				<title>Sheet.3791</title>
				<path d="M25.68 107.49 L0 133.23 L25.68 107.49 Z" class="st1"/>
				<path d="M25.68 107.49 L0 133.23" class="st2"/>
			</g>
			<g id="shape3792-32" transform="translate(28.3465,-2.65748)">
				<title>Sheet.3792</title>
				<path d="M0 133.23 L25.69 107.53 L0 133.23 Z" class="st1"/>
				<path d="M0 133.23 L25.69 107.53" class="st2"/>
			</g>
			<g id="shape3793-35" transform="translate(2.54675,-2.6576)">
				<title>Sheet.3793</title>
				<path d="M25.8 133.23 L0 107.48 L25.8 133.23 Z" class="st1"/>
				<path d="M25.8 133.23 L0 107.48" class="st2"/>
			</g>
			<g id="shape3794-38" transform="translate(0,-51.378)">
				<title>Sheet.3794</title>
				<path d="M5.31 130.57 C5.31 132.04 4.12 133.23 2.66 133.23 C1.19 133.23 0 132.04 0 130.57 C0 129.1 1.19 127.91 2.66
							 127.91 C4.12 127.91 5.31 129.1 5.31 130.57 Z" class="st3"/>
			</g>
			<g id="shape3795-40" transform="translate(0,-25.7022)">
				<title>Sheet.3795</title>
				<path d="M5.31 130.57 C5.31 132.04 4.12 133.23 2.66 133.23 C1.19 133.23 0 132.04 0 130.57 C0 129.1 1.19 127.91 2.66
							 127.91 C4.12 127.91 5.31 129.1 5.31 130.57 Z" class="st4"/>
			</g>
			<g id="shape3796-42">
				<title>Sheet.3796</title>
				<path d="M5.31 130.57 C5.31 132.04 4.12 133.23 2.66 133.23 C1.19 133.23 0 132.04 0 130.57 C0 129.1 1.19 127.91 2.66
							 127.91 C4.12 127.91 5.31 129.1 5.31 130.57 Z" class="st4"/>
			</g>
			<g id="shape3797-44" transform="translate(25.689,-51.378)">
				<title>Sheet.3797</title>
				<path d="M5.31 130.57 C5.31 132.04 4.12 133.23 2.66 133.23 C1.19 133.23 0 132.04 0 130.57 C0 129.1 1.19 127.91 2.66
							 127.91 C4.12 127.91 5.31 129.1 5.31 130.57 Z" class="st4"/>
			</g>
			<g id="shape3798-46" transform="translate(25.689,-25.689)">
				<title>Sheet.3798</title>
				<path d="M5.31 130.57 C5.31 132.04 4.12 133.23 2.66 133.23 C1.19 133.23 0 132.04 0 130.57 C0 129.1 1.19 127.91 2.66
							 127.91 C4.12 127.91 5.31 129.1 5.31 130.57 Z" class="st3"/>
			</g>
			<g id="shape3799-48" transform="translate(25.689,0)">
				<title>Sheet.3799</title>
				<path d="M5.31 130.57 C5.31 132.04 4.12 133.23 2.66 133.23 C1.19 133.23 0 132.04 0 130.57 C0 129.1 1.19 127.91 2.66
							 127.91 C4.12 127.91 5.31 129.1 5.31 130.57 Z" class="st4"/>
			</g>
			<g id="shape3800-50" transform="translate(51.378,-51.378)">
				<title>Sheet.3800</title>
				<path d="M5.31 130.57 C5.31 132.04 4.12 133.23 2.66 133.23 C1.19 133.23 0 132.04 0 130.57 C0 129.1 1.19 127.91 2.66
							 127.91 C4.12 127.91 5.31 129.1 5.31 130.57 Z" class="st4"/>
			</g>
			<g id="shape3801-52" transform="translate(51.378,-25.7022)">
				<title>Sheet.3801</title>
				<path d="M5.31 130.57 C5.31 132.04 4.12 133.23 2.66 133.23 C1.19 133.23 0 132.04 0 130.57 C0 129.1 1.19 127.91 2.66
							 127.91 C4.12 127.91 5.31 129.1 5.31 130.57 Z" class="st4"/>
			</g>
			<g id="shape3802-54" transform="translate(51.378,0)">
				<title>Sheet.3802</title>
				<path d="M5.31 130.57 C5.31 132.04 4.12 133.23 2.66 133.23 C1.19 133.23 0 132.04 0 130.57 C0 129.1 1.19 127.91 2.66
							 127.91 C4.12 127.91 5.31 129.1 5.31 130.57 Z" class="st3"/>
			</g>
		</g>
	</g>
</svg>
