<?xml version="1.0" encoding="UTF-8" standalone="no"?>
<!DOCTYPE svg PUBLIC "-//W3C//DTD SVG 1.1//EN" "http://www.w3.org/Graphics/SVG/1.1/DTD/svg11.dtd">
<!-- Generated by Microsoft Visio, SVG Export Cognitive Services Content Moderator.svg Page-1 -->
<svg xmlns="http://www.w3.org/2000/svg" xmlns:xlink="http://www.w3.org/1999/xlink" xmlns:ev="http://www.w3.org/2001/xml-events"
		width="1.49606in" height="1.911in" viewBox="0 0 107.717 137.592" xml:space="preserve" color-interpolation-filters="sRGB"
		class="st2">
	<style type="text/css">
	<![CDATA[
		.st1 {fill:#0078d4;stroke:none;stroke-linecap:butt;stroke-width:10.0328}
		.st2 {fill:none;fill-rule:evenodd;font-size:12px;overflow:visible;stroke-linecap:square;stroke-miterlimit:3}
	]]>
	</style>

	<g>
		<title>Page-1</title>
		<g id="group3765-1" transform="translate(26.9291,-70.8661)">
			<title>Cognitive Services Content Moderator</title>
			<g id="shape3766-2">
				<title>Sheet.3766</title>
				<path d="M49.68 104.39 C49.68 116.32 38.96 130.86 26.87 133.4 C14.77 130.86 4.05 116.32 4.05 104.39 L4.05 92.39 C4.24
							 92.2 4.43 92.01 4.74 91.82 C5.86 90.93 7.17 89.98 8.85 89.09 C13.59 86.55 19.57 85.03 26.87 85.03 C34.16
							 85.03 40.14 86.55 44.88 89.09 C46.5 89.98 47.87 90.87 49 91.82 C49.25 92.01 49.49 92.26 49.68 92.39
							 L49.68 104.39 ZM53.36 90.17 C53.05 89.79 52.49 89.28 51.68 88.58 C50.37 87.5 48.75 86.42 46.88 85.41
							 C41.58 82.55 34.91 80.9 26.93 80.9 C18.95 80.9 12.28 82.61 6.98 85.41 C5.11 86.42 3.49 87.5 2.18 88.58
							 C1.37 89.28 0.81 89.79 0.5 90.17 L0 90.74 L0 104.33 C0 118.36 12.28 134.86 26.56 137.53 L26.93 137.59
							 L27.3 137.53 C41.58 134.8 53.86 118.29 53.86 104.33 L53.86 90.74 L53.36 90.17 Z" class="st1"/>
			</g>
			<g id="shape3767-4" transform="translate(23.1986,-11.5306)">
				<title>Sheet.3767</title>
				<path d="M3.68 130.23 C2.68 130.23 1.81 130.55 1.06 131.24 C0.37 131.94 0 132.83 0 133.91 C0 134.93 0.37 135.81 1
							 136.51 C1.68 137.21 2.56 137.59 3.62 137.59 C4.68 137.59 5.55 137.21 6.23 136.51 C6.92 135.81 7.23 134.93
							 7.23 133.85 C7.23 132.83 6.92 131.94 6.23 131.24 C5.61 130.61 4.74 130.23 3.68 130.23 Z" class="st1"/>
			</g>
			<g id="shape3768-6" transform="translate(24.3578,-22.9927)">
				<title>Sheet.3768</title>
				<path d="M0 137.59 L4.11 137.59 L4.11 113.34 L0 113.34 L0 137.59 Z" class="st1"/>
			</g>
		</g>
	</g>
</svg>
