<?xml version="1.0" encoding="UTF-8" standalone="no"?>
<!DOCTYPE svg PUBLIC "-//W3C//DTD SVG 1.1//EN" "http://www.w3.org/Graphics/SVG/1.1/DTD/svg11.dtd">
<!-- Generated by Microsoft Visio, SVG Export Commit.svg Page-1 -->
<svg xmlns="http://www.w3.org/2000/svg" xmlns:xlink="http://www.w3.org/1999/xlink" xmlns:ev="http://www.w3.org/2001/xml-events"
		width="1.5748in" height="1.85039in" viewBox="0 0 113.386 133.228" xml:space="preserve" color-interpolation-filters="sRGB"
		class="st5">
	<style type="text/css">
	<![CDATA[
		.st1 {fill:url(#grad0-6);stroke:none;stroke-linecap:butt;stroke-width:0.75}
		.st2 {fill:url(#grad0-10);stroke:none;stroke-linecap:butt;stroke-width:0.75}
		.st3 {fill:#ffffff;stroke:none;stroke-linecap:butt;stroke-width:0.75}
		.st4 {fill:#b4ec36;stroke:none;stroke-linecap:butt;stroke-width:0.75}
		.st5 {fill:none;fill-rule:evenodd;font-size:12px;overflow:visible;stroke-linecap:square;stroke-miterlimit:3}
	]]>
	</style>

	<defs id="Patterns_And_Gradients">
		<linearGradient id="grad0-6" x1="0" y1="0" x2="1" y2="0" gradientTransform="rotate(-90 0.5 0.5)">
			<stop offset="0" stop-color="#773adc" stop-opacity="1"/>
			<stop offset="0.23" stop-color="#8952e5" stop-opacity="1"/>
			<stop offset="0.55" stop-color="#9e6ff0" stop-opacity="1"/>
			<stop offset="0.735" stop-color="#a67af4" stop-opacity="1"/>
		</linearGradient>
		<linearGradient id="grad0-10" x1="0" y1="0" x2="1" y2="0" gradientTransform="rotate(-90 0.5 0.5)">
			<stop offset="0" stop-color="#773adc" stop-opacity="1"/>
			<stop offset="0.735" stop-color="#a67af4" stop-opacity="1"/>
		</linearGradient>
	</defs>
	<g>
		<title>Page-1</title>
		<g id="group3568-1" transform="translate(28.3465,-70.8661)">
			<title>Commit</title>
			<g id="group3569-2">
				<title>Sheet.3569</title>
				<g id="shape3570-3" transform="translate(15.9307,-27.0681)">
					<title>Sheet.3570</title>
					<path d="M0.13 116.01 L11.47 104.02 A1.35433 1.43165 0 0 1 13.39 104.02 L24.72 116.01 a0.604724 0.639248 0 0
								 1 -0.425197 1.09205 L17.31 117.1 a0.601575 0.635918 -180 0 0 -0.604724 0.635918 L16.71 132.72 a0.485039
								 0.51273 0 0 1 -0.48189 0.509401 L8.6 133.23 a0.485039 0.51273 0 0 1 -0.48189 -0.509401 L8.12 117.74
								 a0.601575 0.635918 -180 0 0 -0.604724 -0.635918 L0.54 117.1 a0.604724 0.639248 0 0 1 -0.409449 -1.08872
								 Z" class="st1"/>
				</g>
				<g id="shape3571-7">
					<title>Sheet.3571</title>
					<path d="M0 131.29 A1.82996 1.93444 -180 0 0 1.83 133.23 L54.86 133.23 A1.82996 1.93444 -180 0 0 56.69 131.29
								 L56.69 115.85 A1.82996 1.93444 -180 0 0 54.86 113.91 L1.83 113.91 A1.82996 1.93444 -180 0 0 0 115.85
								 L0 131.29 Z" class="st2"/>
				</g>
				<g id="shape3572-11" transform="translate(9.43307,-4.39483)">
					<title>Sheet.3572</title>
					<path d="M0 132.41 a0.771671 0.815726 -180 0 0 0.771654 0.815707 L8.71 133.23 a0.771671 0.815726 -180 0 0 0.771654
								 -0.815707 L9.49 124.02 a0.771671 0.815726 -180 0 0 -0.771654 -0.815707 L0.77 123.2 a0.771671 0.815726
								 -180 0 0 -0.771654 0.815707 L0 132.41 Z" class="st3"/>
				</g>
				<g id="shape3573-13" transform="translate(23.6031,-4.39483)">
					<title>Sheet.3573</title>
					<path d="M0 132.41 a0.771671 0.815726 -180 0 0 0.771654 0.815707 L8.71 133.23 a0.771671 0.815726 -180 0 0 0.771654
								 -0.815707 L9.49 124.02 a0.771671 0.815726 -180 0 0 -0.771654 -0.815707 L0.77 123.2 a0.771671 0.815726
								 -180 0 0 -0.771654 0.815707 L0 132.41 Z" class="st4"/>
				</g>
				<g id="shape3574-15" transform="translate(37.7732,-4.39483)">
					<title>Sheet.3574</title>
					<path d="M0 132.41 a0.771671 0.815726 -180 0 0 0.771654 0.815707 L8.71 133.23 a0.771671 0.815726 -180 0 0 0.771654
								 -0.815707 L9.49 124.02 a0.771671 0.815726 -180 0 0 -0.771654 -0.815707 L0.77 123.2 a0.771671 0.815726
								 -180 0 0 -0.771654 0.815707 L0 132.41 Z" class="st4"/>
				</g>
			</g>
		</g>
	</g>
</svg>
