<?xml version="1.0" encoding="UTF-8" standalone="no"?>
<!DOCTYPE svg PUBLIC "-//W3C//DTD SVG 1.1//EN" "http://www.w3.org/Graphics/SVG/1.1/DTD/svg11.dtd">
<!-- Generated by Microsoft Visio, SVG Export Conditional Access.svg Page-1 -->
<svg xmlns="http://www.w3.org/2000/svg" xmlns:xlink="http://www.w3.org/1999/xlink" xmlns:ev="http://www.w3.org/2001/xml-events"
		width="1.73185in" height="1.73206in" viewBox="0 0 124.693 124.709" xml:space="preserve" color-interpolation-filters="sRGB"
		class="st5">
	<style type="text/css">
	<![CDATA[
		.st1 {fill:#86d633;stroke:none;stroke-linecap:butt;stroke-width:34}
		.st2 {fill:url(#grad0-8);stroke:none;stroke-linecap:butt;stroke-width:34}
		.st3 {fill:#9cebff;stroke:none;stroke-linecap:butt;stroke-width:34}
		.st4 {fill:#0078d4;stroke:none;stroke-linecap:butt;stroke-width:34}
		.st5 {fill:none;fill-rule:evenodd;font-size:12px;overflow:visible;stroke-linecap:square;stroke-miterlimit:3}
	]]>
	</style>

	<defs id="Patterns_And_Gradients">
		<linearGradient id="grad0-8" x1="0" y1="0" x2="1" y2="0" gradientTransform="rotate(-124.76538136097 0.5 0.5)">
			<stop offset="0" stop-color="#5e9624" stop-opacity="1"/>
			<stop offset="0.26" stop-color="#70a828" stop-opacity="1"/>
			<stop offset="0.79" stop-color="#9fd732" stop-opacity="1"/>
			<stop offset="1" stop-color="#b4ec36" stop-opacity="1"/>
		</linearGradient>
	</defs>
	<g>
		<title>Page-1</title>
		<g id="group4726-1" transform="translate(34,-34.0157)">
			<title>Conditional Access</title>
			<g id="group4727-2">
				<title>Icon-intune-336</title>
				<g id="shape4728-3" transform="translate(0,-9.40651)">
					<title>Sheet.4728</title>
					<path d="M39.7 99.5 C39.7 112.21 23.91 122.44 20.49 124.51 A1.1755 1.16721 0 0 1 19.18 124.51 C15.75 122.44 0
								 112.21 0 99.5 L0 84.19 A1.24268 1.2339 0 0 1 1.21 82.99 C13.47 82.66 10.65 77.42 19.85 77.42 C29.05
								 77.42 26.2 82.66 38.42 82.99 A1.27626 1.26725 0 0 1 39.66 84.19 L39.7 99.5 Z" class="st1"/>
				</g>
				<g id="shape4729-5" transform="translate(1.64571,-11.3605)">
					<title>Sheet.4729</title>
					<path d="M36.41 101.59 C36.41 113.26 21.93 122.63 18.81 124.53 A1.10833 1.10051 0 0 1 17.6 124.53 C14.44 122.63
								 0 113.26 0 101.59 L0 87.71 A1.10833 1.10051 0 0 1 1.11 86.61 C12.36 86.15 9.91 81.34 18.2 81.34
								 C26.5 81.34 24.05 86.15 35.27 86.45 A1.14192 1.13386 0 0 1 36.41 87.55 L36.41 101.59 Z"
							class="st2"/>
				</g>
				<g id="shape4730-9" transform="translate(18.002,1.42109E-14)">
					<title>Sheet.4730</title>
					<path d="M1.24 95.19 L37.45 95.19 A1.1755 1.16721 0 0 1 38.69 96.3 L38.69 123.61 A1.1755 1.16721 0 0 1 37.45
								 124.71 L1.24 124.71 A1.20909 1.20056 0 0 1 0 123.61 L0 96.36 A1.20909 1.20056 0 0 1 1.24 95.19 Z"
							class="st3"/>
				</g>
				<g id="shape4731-11" transform="translate(18.002,-4.46874)">
					<title>Sheet.4731</title>
					<path d="M1.18 99.66 L37.52 99.66 A1.10833 1.10051 0 0 1 38.69 100.7 L38.69 104.83 L0 104.83 L0 100.83 A1.10833
								 1.10051 0 0 1 1.18 99.8 L1.18 99.66 ZM33.42 115.54 L9.54 115.54 C9 115.54 8.6 115.8 8.6 116.07 L8.6
								 117.51 C8.6 117.81 9 118.04 9.54 118.04 L33.42 118.04 C33.96 118.04 34.39 117.81 34.39 117.51 L34.39
								 116.17 C34.39 115.8 33.85 115.54 33.42 115.54 ZM33.42 109.53 L9.54 109.53 C9 109.53 8.6 109.77 8.6
								 110.07 L8.6 111.37 C8.6 111.67 9 111.9 9.54 111.9 L33.42 111.9 C33.96 111.9 34.39 111.67 34.39 111.37
								 L34.39 110.07 C34.39 109.77 33.85 109.53 33.42 109.53 ZM33.42 122.31 L9.54 122.31 C9 122.31 8.6
								 122.54 8.6 122.84 L8.6 124.18 C8.6 124.48 9 124.71 9.54 124.71 L33.42 124.71 C33.96 124.71 34.39
								 124.48 34.39 124.18 L34.39 122.84 C34.39 122.54 33.85 122.31 33.42 122.31 Z" class="st4"/>
				</g>
				<g id="shape4732-13" transform="translate(21.0583,-16.9078)">
					<title>Sheet.4732</title>
					<ellipse cx="1.57853" cy="123.141" rx="1.57853" ry="1.56739" class="st4"/>
				</g>
				<g id="shape4733-15" transform="translate(21.0583,-10.8717)">
					<title>Sheet.4733</title>
					<ellipse cx="1.57853" cy="123.141" rx="1.57853" ry="1.56739" class="st4"/>
				</g>
				<g id="shape4734-17" transform="translate(21.0583,-4.1019)">
					<title>Sheet.4734</title>
					<ellipse cx="1.57853" cy="123.141" rx="1.57853" ry="1.56739" class="st4"/>
				</g>
			</g>
		</g>
	</g>
</svg>
