<?xml version="1.0" encoding="UTF-8" standalone="no"?>
<!-- Generated by Microsoft Visio, SVG Export Configuration Management.svg Page-1 -->

<svg
   xmlns:dc="http://purl.org/dc/elements/1.1/"
   xmlns:cc="http://creativecommons.org/ns#"
   xmlns:rdf="http://www.w3.org/1999/02/22-rdf-syntax-ns#"
   xmlns:svg="http://www.w3.org/2000/svg"
   xmlns="http://www.w3.org/2000/svg"
   xmlns:sodipodi="http://sodipodi.sourceforge.net/DTD/sodipodi-0.dtd"
   xmlns:inkscape="http://www.inkscape.org/namespaces/inkscape"
   width="0.70860749in"
   height="0.78735709in"
   viewBox="0 0 51.019792 56.689998"
   xml:space="preserve"
   class="st5"
   version="1.1"
   id="svg34"
   sodipodi:docname="Configuration Management.svg"
   style="font-size:12px;overflow:visible;color-interpolation-filters:sRGB;fill:none;fill-rule:evenodd;stroke-linecap:square;stroke-miterlimit:3"
   inkscape:version="0.92.5 (2060ec1f9f, 2020-04-08)"><metadata
   id="metadata40"><rdf:RDF><cc:Work
       rdf:about=""><dc:format>image/svg+xml</dc:format><dc:type
         rdf:resource="http://purl.org/dc/dcmitype/StillImage" /></cc:Work></rdf:RDF></metadata><defs
   id="defs38" /><sodipodi:namedview
   pagecolor="#ffffff"
   bordercolor="#666666"
   borderopacity="1"
   objecttolerance="10"
   gridtolerance="10"
   guidetolerance="10"
   inkscape:pageopacity="0"
   inkscape:pageshadow="2"
   inkscape:window-width="640"
   inkscape:window-height="480"
   id="namedview36"
   showgrid="false"
   inkscape:zoom="1.7193066"
   inkscape:cx="34.01556"
   inkscape:cy="23.279613"
   inkscape:window-x="0"
   inkscape:window-y="0"
   inkscape:window-maximized="0"
   inkscape:current-layer="svg34" />
	<style
   type="text/css"
   id="style2">
	<![CDATA[
		.st1 {fill:#a0a1a2;stroke:none;stroke-linecap:butt;stroke-width:12.24}
		.st2 {fill:#3999c6;stroke:none;stroke-linecap:butt;stroke-width:12.24}
		.st3 {fill:#ffffff;stroke:none;stroke-linecap:butt;stroke-width:12.24}
		.st4 {fill:#000000;fill-opacity:0.2;stroke:none;stroke-linecap:butt;stroke-width:12.24}
		.st5 {fill:none;fill-rule:evenodd;font-size:12px;overflow:visible;stroke-linecap:square;stroke-miterlimit:3}
	]]>
	</style>

	<g
   id="g32"
   transform="translate(-12.240154,-12.2443)">
		<title
   id="title4">Page-1</title>
		<g
   id="group7115-1"
   transform="translate(12.24,-34.0157)">
			<title
   id="title6">Configuration Management</title>
			<g
   id="group7116-2">
				<title
   id="title8">g12</title>
				<g
   id="shape7117-3">
					<title
   id="title10">path4</title>
					<path
   d="M 40.82,46.26 H 0 v 56.69 H 51.02 V 56.33 Z"
   class="st1"
   id="path12"
   inkscape:connector-curvature="0"
   style="fill:#a0a1a2;stroke:none;stroke-width:12.23999977;stroke-linecap:butt" />
				</g>
				<g
   id="shape7118-5"
   transform="translate(2.55118,-2.51969)">
					<title
   id="title15">path6</title>
					<path
   d="M 36.99,51.3 H 0 v 51.65 H 45.92 V 60.11 h -8.93 z"
   class="st2"
   id="path17"
   inkscape:connector-curvature="0"
   style="fill:#3999c6;stroke:none;stroke-width:12.23999977;stroke-linecap:butt" />
				</g>
				<g
   id="shape7119-7"
   transform="translate(7.35123,-8.69039)">
					<title
   id="title20">path8</title>
					<path
   d="m 16.88,72.58 c 0,-0.7 0.59,-1.26 1.32,-1.26 h 15.23 c 0.73,0 1.31,0.56 1.31,1.26 0,0.7 -0.58,1.26 -1.31,1.26 H 18.2 c -0.73,0 -1.32,-0.56 -1.32,-1.26 z m 0,12.6 c 0,-0.7 0.59,-1.26 1.32,-1.26 h 15.23 c 0.73,0 1.31,0.56 1.31,1.26 0,0.7 -0.58,1.26 -1.31,1.26 H 18.2 c -0.73,0 -1.32,-0.56 -1.32,-1.26 z M 0.62,71.92 0.13,71.4 C 0,71.26 0,71.04 0.15,70.91 l 1.41,-1.29 a 0.344409,0.340157 0 0 1 0.491102,0.02016 L 5.95,73.76 l 6.7,-8.48 a 0.345685,0.341417 0 0 1 0.491102,-0.05795 L 14.67,66.39 a 0.334205,0.330079 0 0 1 0.133937,0.225512 0.339307,0.335118 0 0 1 -0.07526,0.251969 L 6.12,77.75 Z m 0,12.6 L 0.13,84 C 0,83.86 0,83.64 0.15,83.51 l 1.41,-1.3 a 0.344409,0.340157 0 0 1 0.491102,0.02016 L 5.95,86.36 l 6.7,-8.48 a 0.345685,0.341417 0 0 1 0.491102,-0.05795 L 14.67,78.99 a 0.334205,0.330079 0 0 1 0.133937,0.225512 0.339307,0.335118 0 0 1 -0.07526,0.251969 L 6.12,90.35 Z m 16.26,13.26 c 0,-0.7 0.59,-1.26 1.32,-1.26 h 15.23 c 0.73,0 1.31,0.56 1.31,1.26 0,0.7 -0.58,1.26 -1.31,1.26 H 18.2 c -0.73,0 -1.32,-0.56 -1.32,-1.26 z M 0.62,97.12 0.13,96.6 C 0,96.46 0,96.24 0.15,96.11 l 1.41,-1.3 a 0.344409,0.340157 0 0 1 0.491102,0.02016 L 5.95,98.96 l 6.7,-8.48 a 0.345685,0.341417 0 0 1 0.491102,-0.05795 L 14.67,91.59 a 0.334205,0.330079 0 0 1 0.133937,0.225512 0.339307,0.335118 0 0 1 -0.07526,0.251969 L 6.12,102.95 Z"
   class="st3"
   id="path22"
   inkscape:connector-curvature="0"
   style="fill:#ffffff;stroke:none;stroke-width:12.23999977;stroke-linecap:butt" />
				</g>
				<g
   id="shape7120-9"
   transform="translate(39.5433,-44.0945)">
					<title
   id="title25">path10</title>
					<rect
   x="0"
   y="101.689"
   width="8.9291296"
   height="1.25984"
   class="st4"
   id="rect27"
   style="fill:#000000;fill-opacity:0.2;stroke:none;stroke-width:12.23999977;stroke-linecap:butt" />
				</g>
			</g>
		</g>
	</g>
</svg>