<?xml version="1.0" encoding="UTF-8" standalone="no"?>
<!DOCTYPE svg PUBLIC "-//W3C//DTD SVG 1.1//EN" "http://www.w3.org/Graphics/SVG/1.1/DTD/svg11.dtd">
<!-- Generated by Microsoft Visio, SVG Export Connection Monitor.svg Page-1 -->
<svg xmlns="http://www.w3.org/2000/svg" xmlns:xlink="http://www.w3.org/1999/xlink" xmlns:ev="http://www.w3.org/2001/xml-events"
		width="1.5748in" height="1.94165in" viewBox="0 0 113.386 139.799" xml:space="preserve" color-interpolation-filters="sRGB"
		class="st10">
	<style type="text/css">
	<![CDATA[
		.st1 {fill:#7a7a7a;stroke:none;stroke-linecap:butt;stroke-width:12.24}
		.st2 {fill:#a0a1a2;stroke:none;stroke-linecap:butt;stroke-width:12.24}
		.st3 {fill:#ffffff;fill-opacity:0.2;stroke:none;stroke-linecap:butt;stroke-width:12.24}
		.st4 {fill:#59b4d9;stroke:none;stroke-linecap:butt;stroke-width:12.24}
		.st5 {fill:#b8d432;stroke:none;stroke-linecap:butt;stroke-width:12.24}
		.st6 {fill:#ffffff;stroke:none;stroke-linecap:butt;stroke-width:12.24}
		.st7 {fill:#ffffff;fill-opacity:0.7;stroke:none;stroke-linecap:butt;stroke-width:12.24}
		.st8 {fill:#ffffff;fill-opacity:0.4;stroke:none;stroke-linecap:butt;stroke-width:12.24}
		.st9 {fill:#804998;stroke:none;stroke-linecap:butt;stroke-width:12.24}
		.st10 {fill:none;fill-rule:evenodd;font-size:12px;overflow:visible;stroke-linecap:square;stroke-miterlimit:3}
	]]>
	</style>

	<g>
		<title>Page-1</title>
		<g id="group3500-1" transform="translate(28.3465,-70.8661)">
			<title>Connection Monitor</title>
			<g id="group3501-2">
				<title>g28</title>
				<g id="shape3502-3" transform="translate(9.08904,-4.52152)">
					<title>path4</title>
					<path d="M26.61 127.67 L11.17 127.67 C13.02 134.35 10.92 136.32 0 136.32 L0 139.8 L36.75 139.8 L36.75 136.3 C25.83
								 136.3 24.76 134.36 26.61 127.67 Z" class="st1"/>
				</g>
				<g id="shape3503-5" transform="translate(2.8777E-13,-16.6531)">
					<title>path6</title>
					<path d="M51.09 99.76 L3.1 99.76 C1.38 99.76 0 101.32 0 103.06 L0 136.53 C0 138.26 1.38 139.8 3.1 139.8 L51.09
								 139.8 C52.8 139.8 54.54 138.26 54.54 136.53 L54.54 103.06 C54.53 101.31 52.8 99.76 51.09 99.76 Z"
							class="st2"/>
				</g>
				<g id="shape3504-7" transform="translate(0,-16.6519)">
					<title>path8</title>
					<path d="M50.96 99.76 L50.93 99.76 L3.09 99.76 C1.38 99.76 0 101.32 0 103.06 L0 136.53 C0 138.26 1.38 139.8 3.09
								 139.8 L4.28 139.8 L50.96 99.76 Z" class="st3"/>
				</g>
				<g id="shape3505-9" transform="translate(4.54452,-20.7526)">
					<title>path10</title>
					<rect x="0" y="108.496" width="45.4452" height="31.3028" class="st4"/>
				</g>
				<g id="shape3506-11" transform="translate(4.47863,-21.1132)">
					<title>path12</title>
					<path d="M0 139.8 L0.07 139.8 L0.07 108.68 L41.57 108.61 L41.57 108.61 L0 108.68 L0 139.8 Z" class="st4"/>
				</g>
				<g id="shape3507-13" transform="translate(9.08904,-4.52152)">
					<title>path14</title>
					<path d="M0 136.32 L36.75 136.3 L36.75 139.8 L0 139.8 L0 136.32 Z" class="st2"/>
				</g>
				<g id="shape3508-15" transform="translate(26.4593,-53.551)">
					<title>path16</title>
					<path d="M1.61 138.98 a0.806653 0.823149 0 1 1 -1.61331 0 a0.806653 0.823149 0 1 1 1.61331 -2.84217E-14 Z"
							class="st5"/>
				</g>
				<g id="shape3509-17" transform="translate(17.4476,-37.8022)">
					<title>path18</title>
					<path d="M9.85 139.8 a0.299938 0.306072 0 0 1 -0.145425 -0.0417371 L0.14 134.13 a0.290849 0.296797 0 0 1 -4.82947E-15
								 -0.51128 L9.65 128.02 a0.289713 0.295638 0 0 1 0.285169 -2.84217E-14 L19.5 133.65 a0.287441 0.293319
								 0 0 1 0.142016 0.25506 a0.285169 0.291 0 0 1 -0.142016 0.25506 L10 139.76 a0.291986 0.297957 0 0
								 1 -0.146561 0.0428965 Z" class="st6"/>
				</g>
				<g id="shape3510-19" transform="translate(16.0206,-23.9548)">
					<title>path20</title>
					<path d="M9.83 139.8 a0.270399 0.275929 0 0 1 -0.145425 -0.0394184 L0.15 134.21 a0.279488 0.285204 0 0 1 -0.147697
								 -0.252741 L0 122.82 C0 122.71 0.06 122.62 0.15 122.57 a0.289713 0.295638 0 0 1 0.290849 -1.42109E-14
								 L9.97 128.11 a0.29653 0.302594 0 0 1 0.14088 0.253901 L10.11 139.51 C10.11 139.61 10.05 139.71 9.97
								 139.76 a0.304483 0.31071 0 0 1 -0.144289 0.0405777 Z" class="st7"/>
				</g>
				<g id="shape3511-21" transform="translate(28.4033,-23.9548)">
					<title>path22</title>
					<path d="M0.29 139.8 a0.310164 0.316506 0 0 1 -0.149969 -0.0394184 a0.293122 0.299116 0 0 1 -0.139744 -0.253901
								 L0 128.44 a0.295394 0.301435 0 0 1 0.139744 -0.252741 L9.67 122.64 a0.286305 0.29216 0 0 1 0.286305
								 -7.10543E-14 C10.05 122.69 10.1 122.78 10.1 122.89 L10.1 133.95 a0.279488 0.285204 0 0 1 -0.146561
								 0.252741 L0.43 139.76 a0.247676 0.252741 0 0 1 -0.138608 0.0405777 Z" class="st8"/>
				</g>
				<g id="shape3512-23" transform="translate(29.653,3.12639E-13)">
					<title>circle24</title>
					<ellipse cx="13.52" cy="126.003" rx="13.52" ry="13.7964" class="st9"/>
				</g>
				<g id="shape3513-25" transform="translate(33.3818,-3.80503)">
					<title>path26</title>
					<path d="M12.85 136.13 A6.80542 6.94459 0 0 1 9.79 136.88 A6.93494 7.07676 0 0 1 2.86 129.81 A6.93494 7.07676
								 0 0 1 9.79 122.74 C13.2 122.74 16.03 125.34 16.61 128.65 L13.2 128.65 L17.74 135.02 L22.29 128.65
								 L19.5 128.65 C18.9 123.72 14.78 119.82 9.79 119.82 C4.39 119.82 0 124.3 0 129.81 C0 135.32 4.39
								 139.8 9.79 139.8 A9.73777 9.93691 -180 0 0 14.56 138.52 L12.85 136.13 Z" class="st6"/>
				</g>
			</g>
		</g>
	</g>
</svg>
