<?xml version="1.0" encoding="UTF-8" standalone="no"?>
<!-- Generated by Microsoft Visio, SVG Export Container Batch Account.svg Page-1 -->
<svg xmlns:dc="http://purl.org/dc/elements/1.1/" xmlns:cc="http://creativecommons.org/ns#" xmlns:rdf="http://www.w3.org/1999/02/22-rdf-syntax-ns#" xmlns:svg="http://www.w3.org/2000/svg" xmlns="http://www.w3.org/2000/svg" xmlns:sodipodi="http://sodipodi.sourceforge.net/DTD/sodipodi-0.dtd" xmlns:inkscape="http://www.inkscape.org/namespaces/inkscape" width="56.690713" height="53.8605" viewBox="0 0 56.690713 53.8605" xml:space="preserve" class="st7" version="1.1" id="svg86" sodipodi:docname="Container Batch Account.svg" style="font-size:12px;overflow:visible;color-interpolation-filters:sRGB;fill:none;fill-rule:evenodd;stroke-linecap:square;stroke-miterlimit:3" inkscape:version="0.92.5 (2060ec1f9f, 2020-04-08)">
  <metadata id="metadata90">
    <rdf:RDF>
      <cc:Work rdf:about="">
        <dc:format>image/svg+xml</dc:format>
        <dc:type rdf:resource="http://purl.org/dc/dcmitype/StillImage" />
      </cc:Work>
    </rdf:RDF>
  </metadata>
  <sodipodi:namedview pagecolor="#ffffff" bordercolor="#666666" borderopacity="1" objecttolerance="10" gridtolerance="10" guidetolerance="10" inkscape:pageopacity="0" inkscape:pageshadow="2" inkscape:window-width="640" inkscape:window-height="480" id="namedview88" showgrid="false" inkscape:zoom="1.4606505" inkscape:cx="37.795169" inkscape:cy="35.433031" inkscape:window-x="0" inkscape:window-y="0" inkscape:window-maximized="0" inkscape:current-layer="svg86" />
	<style type="text/css" id="style2">
	<![CDATA[
		.st1 {fill:#949494;stroke:none;stroke-linecap:butt;stroke-width:33.3051}
		.st2 {fill:url(#grad0-9);stroke:none;stroke-linecap:butt;stroke-width:33.3051}
		.st3 {fill:#83b9f9;stroke:none;stroke-linecap:butt;stroke-width:33.3051}
		.st4 {fill:#005ba1;stroke:none;stroke-linecap:butt;stroke-width:33.3051}
		.st5 {fill:#ffffff;stroke:none;stroke-linecap:butt;stroke-width:33.3051}
		.st6 {fill:#0078d4;stroke:none;stroke-linecap:butt;stroke-width:33.3051}
		.st7 {fill:none;fill-rule:evenodd;font-size:12px;overflow:visible;stroke-linecap:square;stroke-miterlimit:3}
	]]>
	</style>

	<defs id="Patterns_And_Gradients">
		<linearGradient id="grad0-9" x1="-2.1910533e-06" y1="110.64816" x2="34.652489" y2="110.64816" gradientTransform="scale(1.1990481,0.83399487)" gradientUnits="userSpaceOnUse">
			<stop offset="0" stop-color="#0078d4" stop-opacity="1" id="stop4" />
			<stop offset="1" stop-color="#5ea0ef" stop-opacity="1" id="stop6" />
		</linearGradient>
	</defs>
	<g id="g84" transform="translate(-33.305097,-33.3038)">
		<title id="title10">Page-1</title>
		<g id="group6366-1" transform="translate(33.3051,-34.0157)">
			<title id="title12">Container Batch Account</title>
			<g id="group6367-2">
				<title id="title14">g39</title>
				<g id="shape6368-3" transform="translate(35.0162,-24.9001)">
					<title id="title16">path11</title>
					<path d="m 14.87,120.79 6.24,-6.36 c 0.5,-0.53 0.33,-0.97 -0.4,-0.97 h -3.14 a 0.767022,0.769404 0 0 1 -0.900417,-0.80286 C 16.67,108.71 15.67,97.71 0.67,97.31 A 0.767022,0.769404 -180 0 0 0.003025,98.079404 L 0,101.99 A 0.800371,0.802856 -180 0 0 0.833719,102.7594 9.17091,9.19939 0 0 1 11.94,112.79 0.767022,0.769404 0 0 1 11.172978,113.5594 L 8.27,113.56 c -0.73,0 -0.93,0.44 -0.43,0.97 l 5.8,6.36 a 0.733673,0.735951 -180 0 0 1.2339,-0.10036 z" class="st1" id="path18" inkscape:connector-curvature="0" style="fill:#949494;stroke:none;stroke-width:33.30509949;stroke-linecap:butt" />
				</g>
				<g id="group6369-5" transform="translate(0,-24.9554)">
					<title id="title21">g17</title>
					<g id="shape6370-6">
						<title id="title23">rect13</title>
						<path d="m 0,119.27 a 1.90092,1.90683 -180 0 0 1.9,1.91 h 37.75 a 1.90092,1.90683 -180 0 0 1.9,-1.91 V 94.18 a 1.90092,1.90683 -180 0 0 -1.9,-1.9 H 1.9 A 1.90092,1.90683 -180 0 0 0,94.18 Z" class="st2" id="path25" inkscape:connector-curvature="0" style="fill:url(#grad0-9);stroke:none;stroke-width:33.30509949;stroke-linecap:butt" />
					</g>
					<g id="shape6371-10" transform="translate(0,-22.0451)">
						<title id="title28">path15</title>
						<path d="m 1.9,114.32 h 38.29 a 1.3673,1.37155 0 0 1 1.36,1.37 v 5.49 H 0 v -4.99 a 1.90088,1.90678 0 0 1 1.9,-1.87 z" class="st3" id="path30" inkscape:connector-curvature="0" style="fill:#83b9f9;stroke:none;stroke-width:33.30509949;stroke-linecap:butt" />
					</g>
				</g>
				<g id="shape6372-12" transform="translate(30.2807)">
					<title id="title34">rect19</title>
					<path d="m 0,119.97 a 1.20058,1.20431 -180 0 0 1.2,1.21 h 24.01 a 1.20058,1.20431 -180 0 0 1.2,-1.21 v -15.95 a 1.20058,1.20431 -180 0 0 -1.2,-1.21 H 1.2 A 1.20058,1.20431 -180 0 0 0,104.02 Z" class="st4" id="path36" inkscape:connector-curvature="0" style="fill:#005ba1;stroke:none;stroke-width:33.30509949;stroke-linecap:butt" />
				</g>
				<g id="shape6373-14" transform="translate(5.3358,-40.0425)">
					<title id="title39">path21</title>
					<path d="m 0.63,116.9 h 29.58 a 0.633627,0.635594 0 0 1 0.633627,0.60214 L 30.85,120.58 a 0.633627,0.635594 0 0 1 -0.633627,0.60214 L 0.63,121.18 a 0.633627,0.635594 0 0 1 -0.633627,-0.60214 L 0,117.57 a 0.633627,0.635594 0 0 1 0.633627,-0.66905 z" class="st5" id="path41" inkscape:connector-curvature="0" style="fill:#ffffff;stroke:none;stroke-width:33.30509949;stroke-linecap:butt" />
				</g>
				<g id="shape6374-16" transform="translate(5.36915,-33.8872)">
					<title id="title44">path23</title>
					<path d="m 0.63,116.9 h 29.58 a 0.633627,0.635594 0 0 1 0.633627,0.60214 L 30.85,120.61 a 0.633627,0.635594 0 0 1 -0.633627,0.56869 L 0.63,121.18 a 0.600278,0.602142 0 0 1 -0.633627,-0.56869 L 0,117.5 a 0.600278,0.602142 0 0 1 0.633627,-0.60214 z" class="st5" id="path46" inkscape:connector-curvature="0" style="fill:#ffffff;stroke:none;stroke-width:33.30509949;stroke-linecap:butt" />
				</g>
				<g id="shape6375-18" transform="translate(5.36915,-27.6651)">
					<title id="title49">path25</title>
					<path d="m 0.63,116.9 h 29.58 a 0.633627,0.635594 0 0 1 0.633627,0.60214 L 30.85,120.58 a 0.633627,0.635594 0 0 1 -0.633627,0.60214 L 0.63,121.18 a 0.600278,0.602142 0 0 1 -0.633627,-0.60214 L 0,117.5 a 0.600278,0.602142 0 0 1 0.633627,-0.60214 z" class="st5" id="path51" inkscape:connector-curvature="0" style="fill:#ffffff;stroke:none;stroke-width:33.30509949;stroke-linecap:butt" />
				</g>
				<g id="group6376-20" transform="translate(25.912,-3.94738)">
					<title id="title54">g31</title>
					<g id="shape6377-21" transform="translate(1.66744e-6)">
						<title id="title56">rect27</title>
						<path d="m 0,119.97 a 1.20058,1.20431 -180 0 0 1.2,1.21 h 24.01 a 1.20058,1.20431 -180 0 0 1.2,-1.21 v -15.95 a 1.20058,1.20431 -180 0 0 -1.2,-1.21 H 1.2 A 1.20058,1.20431 -180 0 0 0,104.02 Z" class="st6" id="path58" inkscape:connector-curvature="0" style="fill:#0078d4;stroke:none;stroke-width:33.30509949;stroke-linecap:butt" />
					</g>
					<g id="shape6378-23" transform="translate(0,-14.1503)">
						<title id="title61">path29</title>
						<path d="m 1.2,116.96 h 24.35 a 0.867068,0.869761 0 0 1 0.867068,0.86976 L 26.41,121.18 H 0 V 118 a 1.20056,1.20428 0 0 1 1.2,-1.04 z" class="st3" id="path63" inkscape:connector-curvature="0" style="fill:#83b9f9;stroke:none;stroke-width:33.30509949;stroke-linecap:butt" />
					</g>
				</g>
				<g id="shape6379-25" transform="translate(29.3136,-13.5147)">
					<title id="title67">path33</title>
					<path d="m 0.4,118.44 h 18.81 a 0.400185,0.401428 0 0 1 0.400185,0.36798 L 19.61,120.78 a 0.400185,0.401428 0 0 1 -0.400185,0.40143 L 0.4,121.18 A 0.400185,0.401428 0 0 1 -1.85e-4,120.77857 L 0,118.8 a 0.366836,0.367976 0 0 1 0.400185,-0.36798 z" class="st5" id="path69" inkscape:connector-curvature="0" style="fill:#ffffff;stroke:none;stroke-width:33.30509949;stroke-linecap:butt" />
				</g>
				<g id="shape6380-27" transform="translate(29.3136,-9.60082)">
					<title id="title72">path35</title>
					<path d="m 0.4,118.44 h 18.81 a 0.400185,0.401428 0 0 1 0.400185,0.40143 L 19.61,120.81 a 0.366836,0.367976 0 0 1 -0.400185,0.36798 L 0.4,121.18 A 0.400185,0.401428 0 0 1 -1.85e-4,120.81202 L 0,118.84 a 0.400185,0.401428 0 0 1 0.400185,-0.40143 z" class="st5" id="path74" inkscape:connector-curvature="0" style="fill:#ffffff;stroke:none;stroke-width:33.30509949;stroke-linecap:butt" />
				</g>
				<g id="shape6381-29" transform="translate(29.3136,-5.65344)">
					<title id="title77">path37</title>
					<path d="m 0.4,118.44 h 18.81 a 0.400185,0.401428 0 0 1 0.400185,0.40143 L 19.61,120.81 a 0.366836,0.367976 0 0 1 -0.400185,0.36798 L 0.4,121.18 A 0.400185,0.401428 0 0 1 -1.85e-4,120.81202 L 0,118.84 a 0.400185,0.401428 0 0 1 0.400185,-0.40143 z" class="st5" id="path79" inkscape:connector-curvature="0" style="fill:#ffffff;stroke:none;stroke-width:33.30509949;stroke-linecap:butt" />
				</g>
			</g>
		</g>
	</g>
</svg>