<?xml version="1.0" encoding="UTF-8" standalone="no"?>
<!-- Generated by Microsoft Visio, SVG Export Container.svg Page-1 -->

<svg
   xmlns:dc="http://purl.org/dc/elements/1.1/"
   xmlns:cc="http://creativecommons.org/ns#"
   xmlns:rdf="http://www.w3.org/1999/02/22-rdf-syntax-ns#"
   xmlns:svg="http://www.w3.org/2000/svg"
   xmlns="http://www.w3.org/2000/svg"
   xmlns:sodipodi="http://sodipodi.sourceforge.net/DTD/sodipodi-0.dtd"
   xmlns:inkscape="http://www.inkscape.org/namespaces/inkscape"
   width="0.78735709in"
   height="0.78735709in"
   viewBox="0 0 56.689778 56.689998"
   xml:space="preserve"
   class="st4"
   version="1.1"
   id="svg29"
   sodipodi:docname="Container.svg"
   style="font-size:12px;overflow:visible;color-interpolation-filters:sRGB;fill:none;fill-rule:evenodd;stroke-linecap:square;stroke-miterlimit:3"
   inkscape:version="0.92.5 (2060ec1f9f, 2020-04-08)"><metadata
   id="metadata35"><rdf:RDF><cc:Work
       rdf:about=""><dc:format>image/svg+xml</dc:format><dc:type
         rdf:resource="http://purl.org/dc/dcmitype/StillImage" /></cc:Work></rdf:RDF></metadata><defs
   id="defs33" /><sodipodi:namedview
   pagecolor="#ffffff"
   bordercolor="#666666"
   borderopacity="1"
   objecttolerance="10"
   gridtolerance="10"
   guidetolerance="10"
   inkscape:pageopacity="0"
   inkscape:pageshadow="2"
   inkscape:window-width="640"
   inkscape:window-height="480"
   id="namedview31"
   showgrid="false"
   inkscape:zoom="1.7193066"
   inkscape:cx="37.795072"
   inkscape:cy="23.279613"
   inkscape:window-x="0"
   inkscape:window-y="0"
   inkscape:window-maximized="0"
   inkscape:current-layer="svg29" />
	<style
   type="text/css"
   id="style2">
	<![CDATA[
		.st1 {fill:#59b4d9;stroke:none;stroke-linecap:butt;stroke-width:12.24}
		.st2 {fill:#804998;stroke:none;stroke-linecap:butt;stroke-width:12.24}
		.st3 {fill:#ffffff;fill-opacity:0.2;stroke:none;stroke-linecap:butt;stroke-width:12.24}
		.st4 {fill:none;fill-rule:evenodd;font-size:12px;overflow:visible;stroke-linecap:square;stroke-miterlimit:3}
	]]>
	</style>

	<g
   id="g27"
   transform="translate(-12.24016,-12.2443)">
		<title
   id="title4">Page-1</title>
		<g
   id="group7039-1"
   transform="translate(12.24,-34.0157)">
			<title
   id="title6">Container</title>
			<g
   id="group7040-2">
				<title
   id="title8">Sheet.7040</title>
				<g
   id="shape7041-3">
					<title
   id="title10">Sheet.7041</title>
					<path
   d="M 0.94,46.26 C 0.38,46.26 0,46.63 0,47.2 v 11.34 c 0,0.57 0.38,0.94 0.94,0.94 h 5.67 c 0.57,0 0.95,-0.37 0.95,-0.94 v -4.72 h 41.57 v 4.72 c 0,0.57 0.38,0.94 1.14,0.94 h 5.48 c 0.56,0 0.94,-0.37 0.94,-0.94 V 47.2 c 0,-0.57 -0.37,-0.94 -0.94,-0.94 z m 54.81,56.69 c 0.57,0 0.94,-0.38 0.94,-0.95 V 90.85 c 0,-0.56 -0.37,-0.94 -0.94,-0.94 h -5.48 c -0.57,0 -0.95,0.38 -0.95,0.94 v 4.54 H 7.56 V 90.67 C 7.56,90.1 7.18,89.72 6.43,89.72 H 0.94 C 0.38,89.72 0,90.1 0,90.85 V 102 c 0,0.57 0.38,0.95 0.94,0.95 z"
   class="st1"
   id="path12"
   inkscape:connector-curvature="0"
   style="fill:#59b4d9;stroke:none;stroke-width:12.23999977;stroke-linecap:butt" />
				</g>
				<g
   id="shape7042-5"
   transform="translate(8.50394,-14.603)">
					<title
   id="title15">Sheet.7042</title>
					<path
   d="M 28.05,84.33 18.62,88 V 72.82 l 9.43,3.3 z M 10.17,75.39 v 9.92 l 6.98,2.7 V 72.94 Z m 0.73,9.19 -0.37,-0.13 v -8.2 L 10.9,76.12 11.27,76 11.64,75.88 v 8.94 L 11.27,84.7 Z m 1.84,0.49 -0.49,-0.13 v -9.18 l 0.49,-0.13 0.49,-0.12 0.49,-0.12 v 10.04 l -0.49,-0.12 z m 2.2,0.73 -0.61,-0.24 V 75.14 l 0.61,-0.12 0.62,-0.24 0.73,-0.25 v 11.64 l -0.73,-0.25 z m 24.75,13.6 -9.31,3.55 V 87.88 l 9.31,3.31 z M 21.8,90.33 v 9.92 l 6.98,2.7 V 87.88 Z m 0.74,9.19 -0.37,-0.12 v -8.21 l 0.37,-0.12 0.37,-0.13 0.36,-0.12 v 8.94 l -0.36,-0.12 z m 1.83,0.61 -0.49,-0.12 v -9.19 l 0.49,-0.12 0.49,-0.12 0.49,-0.13 v 10.05 l -0.49,-0.12 z m 2.21,0.74 -0.61,-0.25 V 90.21 l 0.61,-0.12 0.61,-0.25 0.74,-0.24 v 11.63 l -0.74,-0.24 z m -8.7,-1.47 -9.31,3.55 V 87.88 l 9.31,3.31 z M 0,90.33 v 9.92 l 6.98,2.7 V 87.88 Z M 0.73,99.52 0.37,99.4 V 91.19 L 0.73,91.07 1.1,90.94 1.47,90.82 v 8.94 L 1.1,99.64 Z m 1.84,0.61 -0.49,-0.12 V 90.82 L 2.57,90.7 3.06,90.58 3.55,90.45 v 10.05 l -0.49,-0.12 z m 2.21,0.74 -0.62,-0.25 V 90.21 L 4.78,90.09 5.39,89.84 6.12,89.6 v 11.63 l -0.73,-0.24 z"
   class="st2"
   id="path17"
   inkscape:connector-curvature="0"
   style="fill:#804998;stroke:none;stroke-width:12.23999977;stroke-linecap:butt" />
				</g>
				<g
   id="shape7043-7"
   transform="translate(17.0782,-14.6041)">
					<title
   id="title20">Sheet.7043</title>
					<path
   d="m 19.48,84.33 -9.44,3.68 V 72.82 l 9.44,3.3 z M 31.11,99.4 21.8,102.95 V 87.88 l 9.31,3.31 z M 9.31,99.4 0,102.95 V 87.88 l 9.31,3.31 z"
   class="st3"
   id="path22"
   inkscape:connector-curvature="0"
   style="fill:#ffffff;fill-opacity:0.2;stroke:none;stroke-width:12.23999977;stroke-linecap:butt" />
				</g>
			</g>
		</g>
	</g>
</svg>