<?xml version="1.0" encoding="UTF-8" standalone="no"?>
<!-- Generated by Microsoft Visio, SVG Export Container Registry Connected Registry.svg Page-1 -->

<svg
   xmlns:dc="http://purl.org/dc/elements/1.1/"
   xmlns:cc="http://creativecommons.org/ns#"
   xmlns:rdf="http://www.w3.org/1999/02/22-rdf-syntax-ns#"
   xmlns:svg="http://www.w3.org/2000/svg"
   xmlns="http://www.w3.org/2000/svg"
   xmlns:sodipodi="http://sodipodi.sourceforge.net/DTD/sodipodi-0.dtd"
   xmlns:inkscape="http://www.inkscape.org/namespaces/inkscape"
   width="0.78733563in"
   height="0.70933151in"
   viewBox="0 0 56.688074 51.071953"
   xml:space="preserve"
   class="st7"
   version="1.1"
   id="svg82"
   sodipodi:docname="Container Registry Connected Registry.svg"
   style="font-size:12px;overflow:visible;color-interpolation-filters:sRGB;fill:none;fill-rule:evenodd;stroke-linecap:square;stroke-miterlimit:3"
   inkscape:version="0.92.5 (2060ec1f9f, 2020-04-08)"><metadata
   id="metadata86"><rdf:RDF><cc:Work
       rdf:about=""><dc:format>image/svg+xml</dc:format><dc:type
         rdf:resource="http://purl.org/dc/dcmitype/StillImage" /></cc:Work></rdf:RDF></metadata><sodipodi:namedview
   pagecolor="#ffffff"
   bordercolor="#666666"
   borderopacity="1"
   objecttolerance="10"
   gridtolerance="10"
   guidetolerance="10"
   inkscape:pageopacity="0"
   inkscape:pageshadow="2"
   inkscape:window-width="640"
   inkscape:window-height="480"
   id="namedview84"
   showgrid="false"
   inkscape:zoom="1.4866104"
   inkscape:cx="37.795271"
   inkscape:cy="34.046923"
   inkscape:window-x="0"
   inkscape:window-y="0"
   inkscape:window-maximized="0"
   inkscape:current-layer="svg82" />
	<style
   type="text/css"
   id="style2">
	<![CDATA[
		.st1 {fill:url(#grad0-6);stroke:none;stroke-linecap:butt;stroke-width:34}
		.st2 {fill:url(#grad0-10);stroke:none;stroke-linecap:butt;stroke-width:34}
		.st3 {fill:#9cebff;stroke:none;stroke-linecap:butt;stroke-width:34}
		.st4 {fill:#ffffff;fill-opacity:0.8;stroke:none;stroke-linecap:butt;stroke-width:34}
		.st5 {fill:#50e6ff;stroke:none;stroke-linecap:butt;stroke-width:34}
		.st6 {fill:#005ba1;stroke:none;stroke-linecap:butt;stroke-width:34}
		.st7 {fill:none;fill-rule:evenodd;font-size:12px;overflow:visible;stroke-linecap:square;stroke-miterlimit:3}
	]]>
	</style>

	<defs
   id="Patterns_And_Gradients">
		<linearGradient
   id="grad0-6"
   x1="0"
   y1="95.875901"
   x2="46.656307"
   y2="95.875901"
   gradientTransform="scale(1.1970515,0.83538597)"
   gradientUnits="userSpaceOnUse">
			<stop
   offset="0"
   stop-color="#0078d4"
   stop-opacity="1"
   id="stop4" />
			<stop
   offset="0.155"
   stop-color="#1380da"
   stop-opacity="1"
   id="stop6" />
			<stop
   offset="0.53"
   stop-color="#3c91e5"
   stop-opacity="1"
   id="stop8" />
			<stop
   offset="0.82"
   stop-color="#559cec"
   stop-opacity="1"
   id="stop10" />
			<stop
   offset="1"
   stop-color="#5ea0ef"
   stop-opacity="1"
   id="stop12" />
		</linearGradient>
		<linearGradient
   id="grad0-10"
   x1="0"
   y1="119.06"
   x2="5.2"
   y2="119.06"
   gradientTransform="scale(0)"
   gradientUnits="userSpaceOnUse">
			<stop
   offset="0"
   stop-color="#0078d4"
   stop-opacity="1"
   id="stop15" />
			<stop
   offset="0.155"
   stop-color="#1380da"
   stop-opacity="1"
   id="stop17" />
			<stop
   offset="0.53"
   stop-color="#3c91e5"
   stop-opacity="1"
   id="stop19" />
			<stop
   offset="0.82"
   stop-color="#559cec"
   stop-opacity="1"
   id="stop21" />
			<stop
   offset="1"
   stop-color="#5ea0ef"
   stop-opacity="1"
   id="stop23" />
		</linearGradient>
	</defs>
	<g
   id="g80"
   transform="translate(-34.000206,-33.994783)">
		<title
   id="title27">Page-1</title>
		<g
   id="group6938-1"
   transform="translate(34,-34.033)">
			<title
   id="title29">Container Registry Connected Registry</title>
			<g
   id="group6939-2">
				<title
   id="title31">Sheet.6939</title>
				<g
   id="shape6940-3"
   transform="translate(0,-12.0656)">
					<title
   id="title33">Sheet.6940</title>
					<path
   d="m 16.24,119.04 6.91,-6.8 a 1.81161,1.78412 0 0 1 3.09,1.27 v 4.13 h 9.54 a 1.5888,1.56468 0 0 1 0.32,0.07 1.51775,1.49472 0 0 1 0.32,-0.07 h 9.52 v -4.13 a 1.81484,1.7873 0 0 1 1.82,-1.79 1.80193,1.77458 0 0 1 1.29,0.53 l 3.06,3.02 a 12.6426,12.4507 -180 0 0 3.74,-8.4 A 12.536,12.3457 -180 0 0 44.94,95.01 15.8234,15.5832 -180 0 0 28.67,80.1 16.2173,15.9712 -180 0 0 13.17,90.51 14.9579,14.7309 -180 0 0 0,104.71 15.1937,14.9631 -180 0 0 15.72,119.06 c 0.18,0 0.36,-0.01 0.52,-0.02 z"
   class="st1"
   id="path35"
   inkscape:connector-curvature="0"
   style="fill:url(#grad0-6);stroke:none;stroke-width:34;stroke-linecap:butt" />
				</g>
				<g
   id="shape6941-7"
   transform="translate(37.4142,-12.1419)">
					<title
   id="title38">Sheet.6941</title>
					<path
   d="M 5.2,119.06 H 0 5.14 Z"
   class="st2"
   id="path40"
   inkscape:connector-curvature="0"
   style="fill:url(#grad0-10);stroke:none;stroke-width:34;stroke-linecap:butt" />
				</g>
				<g
   id="shape6942-11"
   transform="translate(12.2583,-16.9854)">
					<title
   id="title43">Sheet.6942</title>
					<path
   d="m 0,118.39 a 0.68139,0.671048 -180 0 0 0.681374,0.67103 L 7.43,119.06 a 0.68139,0.671048 -180 0 0 0.681374,-0.67103 L 8.12,111.74 A 0.68139,0.671048 -180 0 0 7.438626,111.06897 L 0.68,111.07 a 0.68139,0.671048 -180 0 0 -0.681374,0.67103 z"
   class="st3"
   id="path45"
   inkscape:connector-curvature="0"
   style="fill:#9cebff;stroke:none;stroke-width:34;stroke-linecap:butt" />
				</g>
				<g
   id="shape6943-13"
   transform="translate(35.3378,-16.9854)">
					<title
   id="title48">Sheet.6943</title>
					<path
   d="m 0,118.39 a 0.68139,0.671048 -180 0 0 0.681374,0.67103 L 7.43,119.06 a 0.68139,0.671048 -180 0 0 0.681374,-0.67103 L 8.12,111.74 A 0.68139,0.671048 -180 0 0 7.438626,111.06897 L 0.68,111.07 a 0.68139,0.671048 -180 0 0 -0.681374,0.67103 z"
   class="st3"
   id="path50"
   inkscape:connector-curvature="0"
   style="fill:#9cebff;stroke:none;stroke-width:34;stroke-linecap:butt" />
				</g>
				<g
   id="shape6944-15"
   transform="translate(23.7996,-28.4343)">
					<title
   id="title53">Sheet.6944</title>
					<path
   d="m 0,118.39 a 0.68139,0.671048 -180 0 0 0.681374,0.67103 L 7.43,119.06 a 0.68139,0.671048 -180 0 0 0.681374,-0.67103 L 8.12,111.74 A 0.68139,0.671048 -180 0 0 7.438626,111.06897 L 0.68,111.07 a 0.68139,0.671048 -180 0 0 -0.681374,0.67103 z"
   class="st4"
   id="path55"
   inkscape:connector-curvature="0"
   style="fill:#ffffff;fill-opacity:0.8;stroke:none;stroke-width:34;stroke-linecap:butt" />
				</g>
				<g
   id="shape6945-17"
   transform="translate(12.2583,-28.4343)">
					<title
   id="title58">Sheet.6945</title>
					<path
   d="m 0,118.39 a 0.68139,0.671048 -180 0 0 0.681374,0.67103 L 7.43,119.06 a 0.68139,0.671048 -180 0 0 0.681374,-0.67103 L 8.12,111.74 A 0.68139,0.671048 -180 0 0 7.438626,111.06897 L 0.68,111.07 a 0.68139,0.671048 -180 0 0 -0.681374,0.67103 z"
   class="st4"
   id="path60"
   inkscape:connector-curvature="0"
   style="fill:#ffffff;fill-opacity:0.8;stroke:none;stroke-width:34;stroke-linecap:butt" />
				</g>
				<g
   id="shape6946-19"
   transform="translate(36.0676,-0.00309773)">
					<title
   id="title63">Sheet.6946</title>
					<path
   d="m 11.98,101.13 8.35,8.22 a 0.997841,0.982697 0 0 1 0,1.38659 L 11.98,118.97 a 0.445638,0.438874 0 0 1 -0.762105,-0.31803 L 11.22,113.6 a 0.442409,0.435694 -180 0 0 -0.442409,-0.43887 L 0.36,113.16 A 0.355219,0.349827 0 0 1 0.004781,112.81017 L 0,107.28 a 0.355219,0.349827 0 0 1 0.355219,-0.34983 L 10.8,106.93 a 0.442409,0.435694 -180 0 0 0.442409,-0.43887 L 11.24,101.44 a 0.445638,0.438874 0 0 1 0.7395,-0.31166 z"
   class="st5"
   id="path65"
   inkscape:connector-curvature="0"
   style="fill:#50e6ff;stroke:none;stroke-width:34;stroke-linecap:butt" />
				</g>
				<g
   id="shape6947-21"
   transform="translate(15.4622)">
					<title
   id="title68">Sheet.6947</title>
					<path
   d="m 8.66,118.96 -8.37,-8.22 a 0.991383,0.976336 0 0 1 0,-1.38659 L 8.66,101.12 a 0.445638,0.438874 0 0 1 0.758876,0.31803 L 9.42,106.5 a 0.445638,0.438874 -180 0 0 0.445638,0.43887 L 20.31,106.94 a 0.355219,0.349827 0 0 1 0.355219,0.34983 L 20.67,112.81 a 0.355219,0.349827 0 0 1 -0.355219,0.34983 L 9.86,113.16 a 0.445638,0.438874 -180 0 0 -0.445638,0.43887 L 9.42,118.66 a 0.442409,0.435694 0 0 1 -0.758876,0.30848 z"
   class="st6"
   id="path70"
   inkscape:connector-curvature="0"
   style="fill:#005ba1;stroke:none;stroke-width:34;stroke-linecap:butt" />
				</g>
				<g
   id="shape6948-23"
   transform="translate(23.7932,-16.9918)">
					<title
   id="title73">Sheet.6948</title>
					<path
   d="m 0.64,116.64 a 1.81484,1.7873 0 0 1 1.81,1.79 v 0.63 h 4.99 a 0.684603,0.674213 -180 0 0 0.684603,-0.67103 L 8.12,111.75 A 0.681374,0.671033 -180 0 0 7.435397,111.07897 L 0.68,111.08 a 0.678145,0.667852 -180 0 0 -0.681374,0.67103 L 0,116.76 a 1.80839,1.78094 0 0 1 0.64,-0.12 z"
   class="st3"
   id="path75"
   inkscape:connector-curvature="0"
   style="fill:#9cebff;stroke:none;stroke-width:34;stroke-linecap:butt" />
				</g>
			</g>
		</g>
	</g>
</svg>