<?xml version="1.0" encoding="UTF-8" standalone="no"?>
<!DOCTYPE svg PUBLIC "-//W3C//DTD SVG 1.1//EN" "http://www.w3.org/Graphics/SVG/1.1/DTD/svg11.dtd">
<!-- Generated by Microsoft Visio, SVG Export CORS.svg Page-1 -->
<svg xmlns="http://www.w3.org/2000/svg" xmlns:xlink="http://www.w3.org/1999/xlink" xmlns:ev="http://www.w3.org/2001/xml-events"
		width="1.74304in" height="2.21407in" viewBox="0 0 125.499 159.413" xml:space="preserve" color-interpolation-filters="sRGB"
		class="st4">
	<style type="text/css">
	<![CDATA[
		.st1 {fill:url(#grad0-6);stroke:none;stroke-linecap:butt;stroke-width:31.8538}
		.st2 {fill:#ffffff;fill-opacity:0.7;stroke:none;stroke-linecap:butt;stroke-width:31.8538}
		.st3 {fill:#ffffff;stroke:none;stroke-linecap:butt;stroke-width:31.8538}
		.st4 {fill:none;fill-rule:evenodd;font-size:12px;overflow:visible;stroke-linecap:square;stroke-miterlimit:3}
	]]>
	</style>

	<defs id="Patterns_And_Gradients">
		<linearGradient id="grad0-6" x1="0" y1="0" x2="1" y2="0" gradientTransform="rotate(90 0.5 0.5)">
			<stop offset="0" stop-color="#86d633" stop-opacity="1"/>
			<stop offset="0.125" stop-color="#81ce31" stop-opacity="1"/>
			<stop offset="1" stop-color="#5e9624" stop-opacity="1"/>
		</linearGradient>
	</defs>
	<g>
		<title>Page-1</title>
		<g id="group3413-1" transform="translate(33.4786,-70.8661)">
			<title>CORS</title>
			<g id="group3414-2">
				<title>g10</title>
				<g id="shape3415-3" transform="translate(0,-2.36012)">
					<title>path2</title>
					<path d="M10.38 159.41 A30.6413 30.2877 0 0 1 29.04 105.08 A30.3349 29.9848 0 0 1 47.62 111.32 A30.6413 30.2877
								 0 1 1 10.38 159.41 Z" class="st1"/>
				</g>
				<g id="shape3416-7" transform="translate(3.90577,-19.1479)">
					<title>path4</title>
					<path d="M38.88 124.99 A30.2736 29.9243 -180 0 0 34.16 123.11 A141.689 140.054 0 0 1 9.91 148.27 C9.85 148.33
								 9.82 148.39 9.76 148.44 A43.9941 43.4864 0 0 1 5.96 143.45 a0.636659 0.629311 -180 0 0 -1.13032
								 0.10769 A128.013 126.535 -180 0 0 0 158.29 a0.653682 0.646138 -180 0 0 0.524307 0.794211 A44.0486
								 43.5403 -180 0 0 18.23 157.96 a0.640063 0.632677 -180 0 0 0.238321 -1.09709 C17.31 155.9 15.2 154.09
								 12.9 151.79 A123.498 122.073 -180 0 0 38.88 124.99 Z" class="st2"/>
				</g>
				<g id="shape3417-9" transform="translate(4.49477,-15.746)">
					<title>path6</title>
					<path d="M45.53 136.92 A51.8417 51.2434 0 0 1 40.63 141.3 A52.9039 52.2934 -180 0 0 5.57 124.81 A28.8165 28.4839
								 -180 0 0 0 130.4 C1.25 130.44 2.52 130.53 3.79 130.66 A47.1059 46.5623 0 0 1 34.19 145.96 C32.15
								 147.31 30.05 148.6 27.91 149.83 a0.636659 0.629311 -180 0 0 0.108947 1.14084 A73.3247 72.4785 0
								 0 1 45.18 159.34 a0.643468 0.636042 -180 0 0 1.00095 -0.380279 A72.368 71.5329 -180 0 0 46.63 137.28
								 a0.636659 0.629311 -180 0 0 -1.09628 -0.360087 Z" class="st3"/>
				</g>
				<g id="shape3418-11" transform="translate(3.59936,2.84217E-13)">
					<title>path8</title>
					<path d="M37.59 146.64 a0.680918 0.67306 -180 0 0 -0.493666 -1.00959 C31.65 144.91 24.01 143.17 21.21 142.51
								 a0.54133 0.535083 -180 0 0 -0.619636 0.743732 C21.27 144.74 22.59 147.49 23.38 148.76 A76.4603 75.5779
								 0 0 1 0 149.93 A31.4448 31.0819 -180 0 0 4.56 155.22 A87.5491 86.5387 -180 0 0 25.63 153.24 A43.1566
								 42.6586 0 0 1 27.82 158.96 a0.653682 0.646138 -180 0 0 1.14054 0.212014 A127.209 125.741 -180 0
								 0 37.59 146.64 Z" class="st2"/>
				</g>
			</g>
		</g>
	</g>
</svg>
