<?xml version="1.0" encoding="UTF-8" standalone="no"?>
<!DOCTYPE svg PUBLIC "-//W3C//DTD SVG 1.1//EN" "http://www.w3.org/Graphics/SVG/1.1/DTD/svg11.dtd">
<!-- Generated by Microsoft Visio, SVG Export Cost Analysis.svg Page-1 -->
<svg xmlns="http://www.w3.org/2000/svg" xmlns:xlink="http://www.w3.org/1999/xlink" xmlns:ev="http://www.w3.org/2001/xml-events"
		width="1.05128in" height="1.42984in" viewBox="0 0 75.6921 102.949" xml:space="preserve" color-interpolation-filters="sRGB"
		class="st7">
	<style type="text/css">
	<![CDATA[
		.st1 {fill:#57a300;stroke:none;stroke-linecap:butt;stroke-width:12.24}
		.st2 {fill:#000000;stroke:none;stroke-linecap:butt;stroke-width:12.24}
		.st3 {fill:#000000;fill-opacity:0.4;stroke:none;stroke-linecap:butt;stroke-width:12.24}
		.st4 {fill:#ffffff;stroke:none;stroke-linecap:butt;stroke-width:12.24}
		.st5 {fill:#b8d432;stroke:none;stroke-linecap:butt;stroke-width:12.24}
		.st6 {fill:#ffffff;fill-opacity:0.5;stroke:none;stroke-linecap:butt;stroke-width:12.24}
		.st7 {fill:none;fill-rule:evenodd;font-size:12px;overflow:visible;stroke-linecap:square;stroke-miterlimit:3}
	]]>
	</style>

	<g>
		<title>Page-1</title>
		<g id="group3446-1" transform="translate(12.24,-34.0157)">
			<title>Cost Analysis</title>
			<g id="group3447-2">
				<title>g22</title>
				<g id="shape3448-3" transform="translate(9.22542,-48.8125)">
					<title>circle4</title>
					<ellipse cx="4.02798" cy="99.0084" rx="4.02798" ry="3.94023" class="st1"/>
				</g>
				<g id="shape3449-5" transform="translate(9.22542,-1.94788)">
					<title>circle6</title>
					<ellipse cx="4.02798" cy="99.0084" rx="4.02798" ry="3.94023" class="st1"/>
				</g>
				<g id="shape3450-7" transform="translate(0,-11.7029)">
					<title>path8</title>
					<path d="M27.45 93 C27.45 98.76 21.61 102.95 13.56 102.95 C6.47 102.95 2.04 100.34 0 94.97 L6.91 93.7 C7.81 95.59
								 9.78 97.75 14.13 97.75 C18.49 97.75 20.11 95.19 20.11 93.58 C20.11 90.23 15.98 89.06 14.2 88.72
								 C6.65 87.26 1.31 85.57 1.31 77.11 C1.31 70.17 7.91 67.71 13.56 67.71 C19.74 67.71 23.75 69.71 25.83
								 73.82 L19.86 75.67 C18.61 73.58 16.47 72.48 13.66 72.48 C9.57 72.48 8.48 75.24 8.48 76.7 C8.48 78.71
								 10.53 80.48 13.71 81.2 C17.69 82.1 20.48 82.8 22.11 83.47 C24.69 84.53 27.45 87.6 27.45 93 Z"
							class="st1"/>
				</g>
				<g id="shape3451-9" transform="translate(37.4053,2.84217E-13)">
					<title>path10</title>
					<path d="M11.34 102.95 C10.68 102.95 10.06 102.7 9.6 102.24 L0 92.86 L3.49 89.44 L13.09 98.83 A2.46912 2.41533
								 0 0 1 11.34 102.95 Z" class="st2"/>
				</g>
				<g id="shape3452-11" transform="translate(38.3832,-7.01046)">
					<title>path12</title>
					<path d="M0 100.83 L3.49 97.41 L5.66 99.53 A13.3283 13.038 0 0 1 2.17 102.95 L0 100.83 Z" class="st3"/>
				</g>
				<g id="shape3453-13" transform="translate(16.4166,-8.9992)">
					<title>circle14</title>
					<ellipse cx="12.7977" cy="90.4298" rx="12.7977" ry="12.5188" class="st4"/>
				</g>
				<g id="shape3454-15" transform="translate(18.2322,-10.0723)">
					<title>path16</title>
					<path d="M0 86.43 C1.97 87.32 4.48 89.43 4.48 91.94 C4.48 93.36 2.8 96.22 0.22 97.23 C0.98 99.4 2.84 101.35 4.44
								 102.95 C9.94 101 12.85 96.42 12.85 91.47 C12.85 84.86 8.86 81.11 5.7 79.81 C5.45 79.71 0.95 83.3
								 0 86.43 Z" class="st5"/>
				</g>
				<g id="shape3455-17" transform="translate(17.4804,-10.0398)">
					<title>path18</title>
					<path d="M11.73 81.19 C17.53 81.19 22.24 85.8 22.24 91.47 C22.24 97.14 17.53 101.75 11.73 101.75 C5.94 101.75
								 1.23 97.14 1.23 91.47 C1.23 85.8 5.94 81.19 11.73 81.19 ZM11.73 79.99 C5.25 79.99 0 85.13 0 91.47
								 C0 97.81 5.25 102.95 11.73 102.95 C18.21 102.95 23.47 97.81 23.47 91.47 C23.47 85.13 18.21 79.99
								 11.73 79.99 Z" class="st6"/>
				</g>
				<g id="shape3456-19" transform="translate(13.3762,-6.00828)">
					<title>path20</title>
					<path d="M0 87.45 C0 96.01 7.09 102.95 15.85 102.95 C24.6 102.95 31.69 96.01 31.69 87.45 C31.69 78.89 24.6 71.95
								 15.85 71.95 C7.09 71.95 0 78.89 0 87.45 ZM4.1 87.45 C4.1 81.1 9.36 75.96 15.85 75.96 C22.33 75.96
								 27.59 81.1 27.59 87.45 C27.59 93.79 22.33 98.93 15.85 98.93 C9.36 98.93 4.1 93.79 4.1 87.45 Z"
							class="st2"/>
				</g>
			</g>
		</g>
	</g>
</svg>
