<?xml version="1.0" encoding="UTF-8" standalone="no"?>
<!DOCTYPE svg PUBLIC "-//W3C//DTD SVG 1.1//EN" "http://www.w3.org/Graphics/SVG/1.1/DTD/svg11.dtd">
<!-- Generated by Microsoft Visio, SVG Export Custom Location.svg Page-1 -->
<svg xmlns="http://www.w3.org/2000/svg" xmlns:xlink="http://www.w3.org/1999/xlink" xmlns:ev="http://www.w3.org/2001/xml-events"
		width="0.867111in" height="1.35875in" viewBox="0 0 62.432 97.8298" xml:space="preserve" color-interpolation-filters="sRGB"
		class="st5">
	<style type="text/css">
	<![CDATA[
		.st1 {fill:#50e6ff;stroke:none;stroke-width:7.12109}
		.st2 {fill:url(#grad0-9);stroke:none;stroke-width:7.12109}
		.st3 {fill:#32bedd;stroke:none;stroke-width:7.12109}
		.st4 {fill:url(#grad0-15);stroke:none;stroke-width:7.12109}
		.st5 {fill:none;fill-rule:evenodd;font-size:12px;overflow:visible;stroke-linecap:square;stroke-miterlimit:3}
	]]>
	</style>

	<defs id="Patterns_And_Gradients">
		<linearGradient id="grad0-9" x1="0" y1="0" x2="1" y2="0" gradientTransform="rotate(90 0.5 0.5)">
			<stop offset="0" stop-color="#b77af4" stop-opacity="1"/>
			<stop offset="0.62" stop-color="#8c4fe4" stop-opacity="1"/>
			<stop offset="0.995" stop-color="#773adc" stop-opacity="1"/>
		</linearGradient>
		<linearGradient id="grad0-15" x1="0" y1="0" x2="1" y2="0" gradientTransform="rotate(-119.73567096071 0.5 0.5)">
			<stop offset="0.3" stop-color="#198ab3" stop-opacity="1"/>
			<stop offset="0.995" stop-color="#50e6ff" stop-opacity="1"/>
		</linearGradient>
	</defs>
	<g>
		<title>Page-1</title>
		<g id="group3359-1" transform="translate(7.12109,-34.0157)">
			<title>Custom Location</title>
			<g id="group3360-2">
				<title>g10</title>
				<g id="group3361-3">
					<title>g14-9</title>
					<g id="shape3362-4" transform="translate(0.00327181,-5.79848)">
						<title>path4</title>
						<path d="M4.29 86.41 L0 97.83 L44.22 97.83 L39.92 86.41 A1.47232 1.5022 -180 0 0 38.57 85.41 L5.64 85.41
									 A1.46577 1.49552 -180 0 0 4.29 86.41 L4.29 86.41 Z" class="st1"/>
					</g>
					<g id="shape3363-6" transform="translate(7.96032,-9.17127)">
						<title>path6</title>
						<path d="M13.72 50.31 A14.1604 14.4478 -180 0 0 0 65.19 L0 65.38 C0 71.96 8.18 87.37 11.9 96.6 A1.94346 1.9829
									 -180 0 0 15.5 96.6 C19.22 87.29 27.42 71.76 27.42 65.39 A14.3338 14.6247 -180 0 0 13.72 50.31
									 ZM13.72 70.73 A6.09539 6.2191 0 1 1 13.72 58.29 A6.09539 6.2191 0 1 1 13.72 70.73 Z"
								class="st2"/>
					</g>
					<g id="shape3364-10">
						<title>path8</title>
						<path d="M0 92.03 L44.22 92.03 L44.22 96.28 A1.52139 1.55227 0 0 1 42.7 97.83 L1.52 97.83 A1.52139 1.55227
									 0 0 1 0 96.28 L0 92.03 L0 92.03 Z" class="st3"/>
					</g>
					<g id="shape3365-12" transform="translate(23.4622,-3.80584)">
						<title>path10</title>
						<path d="M7.35 97.11 L0 73.23 A1.01753 1.03819 0 0 1 1.37 71.96 L24.11 81.84 A1.01753 1.03819 0 0 1 24.19
									 83.72 L15.03 88.65 A1.0568 1.07824 -180 0 0 14.66 88.98 L9.16 97.38 A1.01426 1.03485 0 0 1 7.35
									 97.11 Z" class="st4"/>
					</g>
				</g>
			</g>
		</g>
	</g>
</svg>
