<?xml version="1.0" encoding="UTF-8" standalone="no"?>
<!DOCTYPE svg PUBLIC "-//W3C//DTD SVG 1.1//EN" "http://www.w3.org/Graphics/SVG/1.1/DTD/svg11.dtd">
<!-- Generated by Microsoft Visio, SVG Export Custom Location.svg Page-1 -->
<svg xmlns="http://www.w3.org/2000/svg" xmlns:xlink="http://www.w3.org/1999/xlink" xmlns:ev="http://www.w3.org/2001/xml-events"
		width="1.33858in" height="1.87056in" viewBox="0 0 96.378 134.68" xml:space="preserve" color-interpolation-filters="sRGB"
		class="st5">
	<style type="text/css">
	<![CDATA[
		.st1 {fill:#50e6ff;stroke:none;stroke-width:7.12109}
		.st2 {fill:url(#grad0-9);stroke:none;stroke-width:7.12109}
		.st3 {fill:#32bedd;stroke:none;stroke-width:7.12109}
		.st4 {fill:url(#grad0-15);stroke:none;stroke-width:7.12109}
		.st5 {fill:none;fill-rule:evenodd;font-size:12px;overflow:visible;stroke-linecap:square;stroke-miterlimit:3}
	]]>
	</style>

	<defs id="Patterns_And_Gradients">
		<linearGradient id="grad0-9" x1="0" y1="0" x2="1" y2="0" gradientTransform="rotate(90 0.5 0.5)">
			<stop offset="0" stop-color="#b77af4" stop-opacity="1"/>
			<stop offset="0.62" stop-color="#8c4fe4" stop-opacity="1"/>
			<stop offset="0.995" stop-color="#773adc" stop-opacity="1"/>
		</linearGradient>
		<linearGradient id="grad0-15" x1="0" y1="0" x2="1" y2="0" gradientTransform="rotate(-119.73567096071 0.5 0.5)">
			<stop offset="0.3" stop-color="#198ab3" stop-opacity="1"/>
			<stop offset="0.995" stop-color="#50e6ff" stop-opacity="1"/>
		</linearGradient>
	</defs>
	<g>
		<title>Page-1</title>
		<g id="group3366-1" transform="translate(24.0945,-70.8661)">
			<title>Custom Location</title>
			<g id="group3367-2">
				<title>g10</title>
				<g id="group3368-3">
					<title>g14-9</title>
					<g id="shape3369-4" transform="translate(0.00327181,-5.79848)">
						<title>path4</title>
						<path d="M4.29 123.26 L0 134.68 L44.22 134.68 L39.92 123.26 A1.47232 1.5022 -180 0 0 38.57 122.26 L5.64 122.26
									 A1.46577 1.49552 -180 0 0 4.29 123.26 L4.29 123.26 Z" class="st1"/>
					</g>
					<g id="shape3370-6" transform="translate(7.96032,-9.17127)">
						<title>path6</title>
						<path d="M13.72 87.16 A14.1604 14.4478 -180 0 0 0 102.04 L0 102.23 C0 108.81 8.18 124.22 11.9 133.45 A1.94346
									 1.9829 -180 0 0 15.5 133.45 C19.22 124.14 27.42 108.61 27.42 102.24 A14.3338 14.6247 -180 0
									 0 13.72 87.16 ZM13.72 107.58 A6.09539 6.2191 0 1 1 13.72 95.14 A6.09539 6.2191 0 1 1 13.72 107.58
									 Z" class="st2"/>
					</g>
					<g id="shape3371-10">
						<title>path8</title>
						<path d="M0 128.88 L44.22 128.88 L44.22 133.13 A1.52139 1.55227 0 0 1 42.7 134.68 L1.52 134.68 A1.52139 1.55227
									 0 0 1 0 133.13 L0 128.88 L0 128.88 Z" class="st3"/>
					</g>
					<g id="shape3372-12" transform="translate(23.4622,-3.80584)">
						<title>path10</title>
						<path d="M7.35 133.96 L0 110.08 A1.01753 1.03819 0 0 1 1.37 108.81 L24.11 118.69 A1.01753 1.03819 0 0 1 24.19
									 120.57 L15.03 125.5 A1.0568 1.07824 -180 0 0 14.66 125.83 L9.16 134.23 A1.01426 1.03485 0 0
									 1 7.35 133.96 Z" class="st4"/>
					</g>
				</g>
			</g>
		</g>
	</g>
</svg>
