<?xml version="1.0" encoding="UTF-8" standalone="no"?>
<!DOCTYPE svg PUBLIC "-//W3C//DTD SVG 1.1//EN" "http://www.w3.org/Graphics/SVG/1.1/DTD/svg11.dtd">
<!-- Generated by Microsoft Visio, SVG Export Data Box Edge.svg Page-1 -->
<svg xmlns="http://www.w3.org/2000/svg" xmlns:xlink="http://www.w3.org/1999/xlink" xmlns:ev="http://www.w3.org/2001/xml-events"
		width="1.57754in" height="1.41879in" viewBox="0 0 113.583 102.153" xml:space="preserve" color-interpolation-filters="sRGB"
		class="st4">
	<style type="text/css">
	<![CDATA[
		.st1 {fill:url(#grad0-5);stroke:none;stroke-linecap:butt;stroke-width:28.4446}
		.st2 {fill:#50e6ff;stroke:none;stroke-linecap:butt;stroke-width:28.4446}
		.st3 {fill:#ffffff;stroke:none;stroke-linecap:butt;stroke-width:28.4446}
		.st4 {fill:none;fill-rule:evenodd;font-size:12px;overflow:visible;stroke-linecap:square;stroke-miterlimit:3}
	]]>
	</style>

	<defs id="Patterns_And_Gradients">
		<linearGradient id="grad0-5" x1="0" y1="0" x2="1" y2="0" gradientTransform="rotate(-90 0.5 0.5)">
			<stop offset="0" stop-color="#0078d4" stop-opacity="1"/>
			<stop offset="0.82" stop-color="#5ea0ef" stop-opacity="1"/>
		</linearGradient>
	</defs>
	<g>
		<title>Page-1</title>
		<g id="group4619-1" transform="translate(28.4453,-34.0157)">
			<title>Data Box Edge</title>
			<g id="shape4620-2" transform="translate(3.74803,-3.04559)">
				<title>path11</title>
				<path d="M52.94 90.68 A11.874 11.5979 -180 0 0 42.61 79.51 A14.9606 14.6127 -180 0 0 27.18 65.51 A15.4016 15.0434
							 -180 0 0 12.41 75.3 A14.1102 13.7821 -180 0 0 0 88.65 A14.3937 14.059 -180 0 0 14.9 102.15 L16.22 102.15
							 L40.35 102.15 L41.01 102.15 A12 11.7209 -180 0 0 52.94 90.68 Z" class="st1"/>
			</g>
			<g id="shape4621-6">
				<title>path13</title>
				<path d="M0 90.49 A11.8425 11.5671 0 0 1 11.97 78.8 A11.874 11.5979 0 0 1 23.94 90.49 L23.94 102.15 L11.97 102.15
							 A11.8425 11.5671 0 0 1 0 90.49 Z" class="st2"/>
			</g>
			<g id="shape4622-8" transform="translate(4.18898,-4.09156)">
				<title>path15</title>
				<path d="M15.24 95.35 L15.24 93.63 L13.45 93.02 L13.01 91.85 L13.89 90.03 L13.89 89.85 L13.32 89.29 L12.66 88.56
							 L12.41 88.56 L10.65 89.48 L9.45 89.14 L8.66 87.2 L6.93 87.2 L6.33 88.96 L5.01 89.48 L2.96 88.52 L1.73
							 89.72 L1.73 89.94 L2.65 91.66 L2.11 92.95 L0 93.72 L0 95.45 L0.25 95.45 L2.11 96.06 L2.61 97.23 L1.67
							 99.23 L2.9 100.46 L3.15 100.46 L4.88 99.6 L6.11 100.09 L6.87 102.15 L8.63 102.15 L8.63 101.91 L9.23
							 100.06 L10.43 99.57 L12.5 100.52 L13.73 99.32 L13.73 99.08 L12.85 97.35 L13.2 96.15 L15.24 95.35 ZM7.84
							 96.95 A2.48819 2.43032 0 0 1 7.84 92.12 A2.45669 2.39956 0 0 1 10.33 94.52 A2.45669 2.39956 0 0 1 7.84
							 96.95 Z" class="st3"/>
			</g>
		</g>
	</g>
</svg>
