<?xml version="1.0" encoding="UTF-8" standalone="no"?>
<!-- Generated by Microsoft Visio, SVG Export Data Collection Data source.svg Page-1 -->

<svg
   xmlns:dc="http://purl.org/dc/elements/1.1/"
   xmlns:cc="http://creativecommons.org/ns#"
   xmlns:rdf="http://www.w3.org/1999/02/22-rdf-syntax-ns#"
   xmlns:svg="http://www.w3.org/2000/svg"
   xmlns="http://www.w3.org/2000/svg"
   xmlns:xlink="http://www.w3.org/1999/xlink"
   xmlns:sodipodi="http://sodipodi.sourceforge.net/DTD/sodipodi-0.dtd"
   xmlns:inkscape="http://www.inkscape.org/namespaces/inkscape"
   width="0.78734809in"
   height="0.74800223in"
   viewBox="0 0 56.688971 53.856302"
   xml:space="preserve"
   class="st5"
   version="1.1"
   id="svg80"
   sodipodi:docname="Data Collection Data source.svg"
   style="font-size:12px;overflow:visible;color-interpolation-filters:sRGB;fill:none;fill-rule:evenodd;stroke-linecap:square;stroke-miterlimit:3"
   inkscape:version="0.92.5 (2060ec1f9f, 2020-04-08)"><metadata
   id="metadata84"><rdf:RDF><cc:Work
       rdf:about=""><dc:format>image/svg+xml</dc:format><dc:type
         rdf:resource="http://purl.org/dc/dcmitype/StillImage" /></cc:Work></rdf:RDF></metadata><sodipodi:namedview
   pagecolor="#ffffff"
   bordercolor="#666666"
   borderopacity="1"
   objecttolerance="10"
   gridtolerance="10"
   guidetolerance="10"
   inkscape:pageopacity="0"
   inkscape:pageshadow="2"
   inkscape:window-width="640"
   inkscape:window-height="480"
   id="namedview82"
   showgrid="false"
   inkscape:zoom="1.4523234"
   inkscape:cx="37.795237"
   inkscape:cy="35.889642"
   inkscape:window-x="0"
   inkscape:window-y="0"
   inkscape:window-maximized="0"
   inkscape:current-layer="svg80" />
	<style
   type="text/css"
   id="style2">
	<![CDATA[
		.st1 {fill:#5ea0ef;stroke:none;stroke-linecap:butt;stroke-width:34}
		.st2 {fill:#83b9f9;stroke:none;stroke-linecap:butt;stroke-width:34}
		.st3 {fill:url(#grad0-10);stroke:none;stroke-linecap:butt;stroke-width:34}
		.st4 {fill:#ffffff;stroke:none;stroke-linecap:butt;stroke-width:34}
		.st5 {fill:none;fill-rule:evenodd;font-size:12px;overflow:visible;stroke-linecap:square;stroke-miterlimit:3}
	]]>
	</style>

	<defs
   id="Patterns_And_Gradients">
		<linearGradient
   id="grad0-10"
   x1="0"
   y1="0"
   x2="1"
   y2="0"
   gradientTransform="rotate(90,0.5,0.5)">
			<stop
   offset="0"
   stop-color="#5ea0ef"
   stop-opacity="1"
   id="stop4" />
			<stop
   offset="1"
   stop-color="#0078d4"
   stop-opacity="1"
   id="stop6" />
		</linearGradient>
	<linearGradient
   inkscape:collect="always"
   xlink:href="#grad0-10"
   id="linearGradient4594"
   gradientTransform="scale(1.3449187,0.74353938)"
   x1="-5.9490388e-06"
   y1="141.60649"
   x2="22.298746"
   y2="141.60649"
   gradientUnits="userSpaceOnUse" /><linearGradient
   inkscape:collect="always"
   xlink:href="#grad0-10"
   id="linearGradient4596"
   gradientTransform="scale(1.3449189,0.74353928)"
   x1="-5.949038e-06"
   y1="141.60651"
   x2="22.298749"
   y2="141.60651"
   gradientUnits="userSpaceOnUse" /></defs>
	<g
   id="g78"
   transform="translate(-34.000261,-33.998)">
		<title
   id="title10">Page-1</title>
		<g
   id="group6627-1"
   transform="translate(34,-34.0157)">
			<title
   id="title12">Data Collection Data source</title>
			<g
   id="group6628-2">
				<title
   id="title14">Sheet.6628</title>
				<g
   id="shape6629-3"
   transform="translate(7.38898,-5.1712)">
					<title
   id="title16">Sheet.6629</title>
					<path
   d="M 4.58,91.8 V 83.75 A 0.894488,0.89769 0 0 1 5.474488,82.85547 L 22.72,82.86 v -4.5 H 1.79 A 1.78898,1.79538 -180 0 0 0,80.16 V 91.92 Z M 0,107.9 v 12.18 a 1.78898,1.79538 -180 0 0 1.79,1.79 h 20.83 v -4.49 H 5.47 A 0.894488,0.89769 0 0 1 4.575512,116.48547 L 4.58,107.78 Z"
   class="st1"
   id="path18"
   inkscape:connector-curvature="0"
   style="fill:#5ea0ef;stroke:none;stroke-width:34;stroke-linecap:butt" />
				</g>
				<g
   id="shape6630-5"
   transform="translate(0,-16.5693)">
					<title
   id="title21">Sheet.6630</title>
					<path
   d="m 0,103.17 v 16.85 a 1.85512,1.86176 -180 0 0 1.86,1.85 h 16.78 a 1.85197,1.8586 -180 0 0 1.86,-1.84 V 103.17 A 1.85512,1.86176 -180 0 0 18.66,101.3 H 1.86 A 1.85512,1.86176 -180 0 0 0,103.16 Z m 15.81,1.61 a 1.22835,1.23274 0 0 1 1.23,1.24 v 11.16 a 1.2315,1.2359 0 0 1 -1.23,1.24 H 4.67 A 1.2315,1.2359 0 0 1 3.45,117.18 V 106 a 1.2315,1.2359 0 0 1 1.22,-1.23 z"
   class="st2"
   id="path23"
   inkscape:connector-curvature="0"
   style="fill:#83b9f9;stroke:none;stroke-width:34;stroke-linecap:butt" />
				</g>
				<g
   id="shape6631-7"
   transform="translate(26.6992)">
					<title
   id="title26">Sheet.6631</title>
					<path
   d="M 28.5,105.29 H 1.49 A 1.48976,1.4951 -180 0 0 0,106.79 v 13.59 a 1.48976,1.4951 -180 0 0 1.49,1.49 H 28.5 a 1.48976,1.4951 -180 0 0 1.49,-1.49 V 106.79 A 1.48976,1.4951 -180 0 0 28.5,105.3 Z"
   class="st3"
   id="path28"
   inkscape:connector-curvature="0"
   style="fill:url(#linearGradient4594);stroke:none;stroke-width:34;stroke-linecap:butt" />
				</g>
				<g
   id="shape6632-11"
   transform="translate(26.6992,-37.2763)">
					<title
   id="title31">Sheet.6632</title>
					<path
   d="M 28.5,105.29 H 1.49 A 1.48976,1.4951 -180 0 0 0,106.79 v 13.59 a 1.48976,1.4951 -180 0 0 1.49,1.49 H 28.5 a 1.48976,1.4951 -180 0 0 1.49,-1.48 v -13.6 a 1.48976,1.4951 -180 0 0 -1.49,-1.5 z"
   class="st3"
   id="path33"
   inkscape:connector-curvature="0"
   style="fill:url(#linearGradient4596);stroke:none;stroke-width:34;stroke-linecap:butt" />
				</g>
				<g
   id="shape6633-14"
   transform="translate(32.1701,-4.25139)">
					<title
   id="title36">Sheet.6633</title>
					<path
   d="m 0,121.52 a 0.349614,0.350866 -180 0 0 0.349606,0.35086 L 4.45,121.87 a 0.349614,0.350866 -180 0 0 0.349606,-0.35086 L 4.8,118.47 A 0.349614,0.350866 -180 0 0 4.450394,118.11914 L 0.35,118.12 a 0.349614,0.350866 -180 0 0 -0.349606,0.35086 z"
   class="st4"
   id="path38"
   inkscape:connector-curvature="0"
   style="fill:#ffffff;stroke:none;stroke-width:34;stroke-linecap:butt" />
				</g>
				<g
   id="shape6634-16"
   transform="translate(39.1748,-4.25139)">
					<title
   id="title41">Sheet.6634</title>
					<path
   d="m 0,121.46 a 0.415758,0.417246 -180 0 0 0.415748,0.41724 L 4.38,121.87 a 0.415758,0.417246 -180 0 0 0.415748,-0.41724 L 4.8,116.91 A 0.415758,0.417246 -180 0 0 4.384252,116.49276 L 0.42,116.49 a 0.415758,0.417246 -180 0 0 -0.415748,0.41724 z"
   class="st4"
   id="path43"
   inkscape:connector-curvature="0"
   style="fill:#ffffff;stroke:none;stroke-width:34;stroke-linecap:butt" />
				</g>
				<g
   id="shape6635-18"
   transform="translate(46.1795,-4.25139)">
					<title
   id="title46">Sheet.6635</title>
					<path
   d="m 0,121.37 a 0.507098,0.508914 -180 0 0 0.507087,0.5089 L 4.29,121.87 a 0.507098,0.508914 -180 0 0 0.507087,-0.5089 L 4.8,114.46 A 0.507098,0.508914 -180 0 0 4.292913,113.9511 L 0.51,113.95 a 0.507098,0.508914 -180 0 0 -0.507087,0.5089 z"
   class="st4"
   id="path48"
   inkscape:connector-curvature="0"
   style="fill:#ffffff;stroke:none;stroke-width:34;stroke-linecap:butt" />
				</g>
				<g
   id="shape6636-20"
   transform="translate(36.7402,-44.8055)">
					<title
   id="title51">Sheet.6636</title>
					<ellipse
   cx="1.77323"
   cy="120.094"
   rx="1.77323"
   ry="1.77958"
   class="st4"
   id="ellipse53"
   style="fill:#ffffff;stroke:none;stroke-width:34;stroke-linecap:butt" />
				</g>
				<g
   id="shape6637-22"
   transform="translate(42.9354,-40.9145)">
					<title
   id="title56">Sheet.6637</title>
					<ellipse
   cx="1.77323"
   cy="120.094"
   rx="1.77323"
   ry="1.77958"
   class="st4"
   id="ellipse58"
   style="fill:#ffffff;stroke:none;stroke-width:34;stroke-linecap:butt" />
				</g>
				<g
   id="shape6638-24"
   transform="translate(47.8583,-47.6693)">
					<title
   id="title61">Sheet.6638</title>
					<ellipse
   cx="1.77323"
   cy="120.094"
   rx="1.77323"
   ry="1.77958"
   class="st4"
   id="ellipse63"
   style="fill:#ffffff;stroke:none;stroke-width:34;stroke-linecap:butt" />
				</g>
				<g
   id="shape6639-26"
   transform="translate(31.5874,-40.3645)">
					<title
   id="title66">Sheet.6639</title>
					<ellipse
   cx="1.77323"
   cy="120.094"
   rx="1.77323"
   ry="1.77958"
   class="st4"
   id="ellipse68"
   style="fill:#ffffff;stroke:none;stroke-width:34;stroke-linecap:butt" />
				</g>
				<g
   id="shape6640-28"
   transform="translate(32.5134,-41.2432)">
					<title
   id="title71">Sheet.6640</title>
					<path
   d="M 1.06,121.87 0,120.78 l 5.87,-5.71 6.16,4.34 4.81,-6.43 1.21,0.91 -5.69,7.61 -6.34,-4.46 z"
   class="st4"
   id="path73"
   inkscape:connector-curvature="0"
   style="fill:#ffffff;stroke:none;stroke-width:34;stroke-linecap:butt" />
				</g>
			</g>
		</g>
	</g>
</svg>