<?xml version="1.0" encoding="UTF-8" standalone="no"?>
<!DOCTYPE svg PUBLIC "-//W3C//DTD SVG 1.1//EN" "http://www.w3.org/Graphics/SVG/1.1/DTD/svg11.dtd">
<!-- Generated by Microsoft Visio, SVG Export Data Box Gateway.svg Page-1 -->
<svg xmlns="http://www.w3.org/2000/svg" xmlns:xlink="http://www.w3.org/1999/xlink" xmlns:ev="http://www.w3.org/2001/xml-events"
		width="1.5748in" height="1.50037in" viewBox="0 0 113.386 108.026" xml:space="preserve" color-interpolation-filters="sRGB"
		class="st5">
	<style type="text/css">
	<![CDATA[
		.st1 {fill:url(#grad0-8);stroke:none;stroke-width:6.822}
		.st2 {fill:#50e6ff;stroke:none;stroke-width:6.822}
		.st3 {fill:#ffffff;fill-opacity:0.75;stroke:none;stroke-width:6.822}
		.st4 {fill:#ffffff;stroke:none;stroke-width:6.822}
		.st5 {fill:none;fill-rule:evenodd;font-size:12px;overflow:visible;stroke-linecap:square;stroke-miterlimit:3}
	]]>
	</style>

	<defs id="Patterns_And_Gradients">
		<linearGradient id="grad0-8" x1="0" y1="0" x2="1" y2="0" gradientTransform="rotate(-90 0.5 0.5)">
			<stop offset="0" stop-color="#0078d4" stop-opacity="1"/>
			<stop offset="0.815" stop-color="#5ea0ef" stop-opacity="1"/>
		</linearGradient>
	</defs>
	<g>
		<title>Page-1</title>
		<g id="group3314-1" transform="translate(28.3465,-61.5118)">
			<title>Data Box Gateway</title>
			<g id="group3315-2">
				<title>g10</title>
				<g id="group3316-3">
					<title>g14-9</title>
					<g id="group3317-4">
						<title>Icon691_DataBox_Gateway</title>
						<g id="shape3318-5" transform="translate(0,-0.00938402)">
							<title>path4</title>
							<path d="M56.69 95.6 A12.7333 12.5715 -180 0 0 45.64 83.51 A16.0568 15.8527 -180 0 0 29.1 68.35 A16.475
										 16.2656 -180 0 0 13.36 78.95 A15.2077 15.0144 -180 0 0 0 93.39 A15.4263 15.2303 -180 0 0
										 15.96 108.03 C16.44 108.03 16.91 108 17.37 107.96 L43.24 107.96 A2.53461 2.50241 -180 0
										 0 43.92 107.86 A12.8885 12.7247 -180 0 0 56.69 95.6 Z" class="st1"/>
						</g>
						<g id="shape3319-9" transform="translate(4.26586,1.42109E-14)">
							<title>path6</title>
							<path d="M25.56 93.01 A14.9162 14.7267 -180 1 0 10.65 108.03 L25.57 108.03 L25.57 93.01 L25.56 93.01 Z"
									class="st2"/>
						</g>
						<g id="shape3320-11" transform="translate(3.86856,-6.57507)">
							<title>path8</title>
							<path d="M0.16 103.35 L5.81 107.95 a0.535437 0.528633 -180 0 0 0.877609 -0.406641 L6.68 105.54 L20.16
										 105.54 L20.16 102.41 L0.52 102.41 a0.532268 0.525505 -180 0 0 -0.354846 0.932146 Z"
									class="st3"/>
						</g>
						<g id="shape3321-13" transform="translate(6.20029,-14.9863)">
							<title>path10</title>
							<path d="M18.85 107.09 L13.08 102.47 a0.535437 0.528633 -180 0 0 -0.874441 0.406641 L12.21 104.9 L0 104.9
										 L0 108.03 L18.51 108.03 a0.532268 0.525505 -180 0 0 0.339004 -0.935274 Z" class="st4"/>
						</g>
					</g>
				</g>
			</g>
		</g>
	</g>
</svg>
