<?xml version="1.0" encoding="UTF-8" standalone="no"?>
<!DOCTYPE svg PUBLIC "-//W3C//DTD SVG 1.1//EN" "http://www.w3.org/Graphics/SVG/1.1/DTD/svg11.dtd">
<!-- Generated by Microsoft Visio, SVG Export Deployment Script.svg Page-1 -->
<svg xmlns="http://www.w3.org/2000/svg" xmlns:xlink="http://www.w3.org/1999/xlink" xmlns:ev="http://www.w3.org/2001/xml-events"
		width="1.73259in" height="2.24388in" viewBox="0 0 124.747 161.559" xml:space="preserve" color-interpolation-filters="sRGB"
		class="st4">
	<style type="text/css">
	<![CDATA[
		.st1 {fill:#0078d4;stroke:none;stroke-linecap:butt;stroke-width:34}
		.st2 {fill:url(#grad0-8);stroke:none;stroke-linecap:butt;stroke-width:34}
		.st3 {fill:#c3f1ff;stroke:none;stroke-linecap:butt;stroke-width:34}
		.st4 {fill:none;fill-rule:evenodd;font-size:12px;overflow:visible;stroke-linecap:square;stroke-miterlimit:3}
	]]>
	</style>

	<defs id="Patterns_And_Gradients">
		<linearGradient id="grad0-8" x1="0" y1="0" x2="1" y2="0" gradientTransform="rotate(90 0.5 0.5)">
			<stop offset="0" stop-color="#5ea0ef" stop-opacity="1"/>
			<stop offset="0.2" stop-color="#5a9eee" stop-opacity="1"/>
			<stop offset="0.41" stop-color="#4d99ea" stop-opacity="1"/>
			<stop offset="0.62" stop-color="#3990e4" stop-opacity="1"/>
			<stop offset="0.835" stop-color="#1c84dc" stop-opacity="1"/>
			<stop offset="1" stop-color="#0078d4" stop-opacity="1"/>
		</linearGradient>
	</defs>
	<g>
		<title>Page-1</title>
		<g id="group3182-1" transform="translate(34.0268,-70.8661)">
			<title>Deployment Script</title>
			<g id="group3183-2">
				<title>deployment-script</title>
				<g id="shape3184-3">
					<title>Sheet.3184</title>
					<path d="M46.79 122.35 L55.69 122.35 A1.02769 1.02677 -180 0 0 56.69 121.09 L53.16 105.67 A1.02769 1.02677 -180
								 0 0 52.15 104.87 L43.25 104.87 A1.02769 1.02677 -180 0 0 42.25 106.13 L45.78 121.55 A1.02769 1.02677
								 -180 0 0 46.78 122.35 L46.79 122.35 ZM4.54 161.56 L13.44 161.56 A1.02769 1.02677 -180 0 0 14.44
								 160.3 L10.91 144.88 A1.02769 1.02677 -180 0 0 9.91 144.08 L1.01 144.08 A1.02769 1.02677 -180 0 0
								 -0 145.34 L3.53 160.76 A1.02769 1.02677 -180 0 0 4.54 161.56 Z" class="st1"/>
				</g>
				<g id="shape3185-5" transform="translate(3.78604,0)">
					<title>Sheet.3185</title>
					<path d="M35.87 161.56 L0.92 161.56 a0.945723 0.944882 0 0 1 -0.920503 -1.15591 L12.55 105.6 a0.945723 0.944882
								 0 0 1 0.926808 -0.733858 L48.42 104.87 a0.945723 0.944882 0 0 1 0.923656 1.15591 L36.79 160.83 a0.945723
								 0.944882 0 0 1 -0.923656 0.733858 L35.87 161.56 Z" class="st2"/>
				</g>
				<g id="shape3186-9" transform="translate(19.5197,-14.6835)">
					<title>Sheet.3186</title>
					<path d="M18.91 147.96 L5.31 132.46 L1.43 135.86 L11.64 147.49 L0 157.69 L3.4 161.56 L18.91 147.96 Z"
							class="st3"/>
				</g>
			</g>
		</g>
	</g>
</svg>
