<?xml version="1.0" encoding="UTF-8" standalone="no"?>
<!DOCTYPE svg PUBLIC "-//W3C//DTD SVG 1.1//EN" "http://www.w3.org/Graphics/SVG/1.1/DTD/svg11.dtd">
<!-- Generated by Microsoft Visio, SVG Export DevOps Starter.svg Page-1 -->
<svg xmlns="http://www.w3.org/2000/svg" xmlns:xlink="http://www.w3.org/1999/xlink" xmlns:ev="http://www.w3.org/2001/xml-events"
		width="1.5748in" height="1.73815in" viewBox="0 0 113.386 125.147" xml:space="preserve" color-interpolation-filters="sRGB"
		class="st7">
	<style type="text/css">
	<![CDATA[
		.st1 {fill:url(#grad0-6);stroke:none;stroke-linecap:butt;stroke-width:6.375}
		.st2 {fill:#ffffff;stroke:none;stroke-linecap:butt;stroke-width:6.375}
		.st3 {fill:url(#grad0-12);stroke:none;stroke-linecap:butt;stroke-width:6.375}
		.st4 {fill:#417be9;stroke:none;stroke-linecap:butt;stroke-width:6.375}
		.st5 {fill:#1453c8;stroke:none;stroke-linecap:butt;stroke-width:6.375}
		.st6 {fill:#88aef1;stroke:none;stroke-linecap:butt;stroke-width:6.375}
		.st7 {fill:none;fill-rule:evenodd;font-size:12px;overflow:visible;stroke-linecap:square;stroke-miterlimit:3}
	]]>
	</style>

	<defs id="Patterns_And_Gradients">
		<linearGradient id="grad0-6" x1="0" y1="0" x2="1" y2="0" gradientTransform="rotate(-90.793646945956 0.5 0.5)">
			<stop offset="0" stop-color="#2889e0" stop-opacity="1"/>
			<stop offset="1" stop-color="#50e6ff" stop-opacity="1"/>
		</linearGradient>
		<linearGradient id="grad0-12" x1="0" y1="0" x2="1" y2="0" gradientTransform="rotate(-119.69106579898 0.5 0.5)">
			<stop offset="0" stop-color="#c398e9" stop-opacity="1"/>
			<stop offset="1" stop-color="#704cb3" stop-opacity="1"/>
		</linearGradient>
	</defs>
	<g>
		<title>Page-1</title>
		<g id="group3164-1" transform="translate(28.3465,-67.748)">
			<title>DevOps Starter</title>
			<g id="group3165-2">
				<title>Sheet.3165</title>
				<g id="shape3166-3" transform="translate(0,-13.0364)">
					<title>Sheet.3166</title>
					<path d="M55.79 114.85 C54.1 120.92 49.99 122.93 45.56 124.78 C45.25 124.91 44.53 125.15 43.4 125.15 L24.3 125.15
								 C20.7 125.15 15.21 125.09 12.66 125.06 C11.25 125.04 10.36 124.65 9.94 124.45 C4.58 121.81 1.41
								 117.55 0.8 112.15 C0.55 109.9 0 100.78 13.5 97.27 C18 88.92 22.95 87.6 29.25 87.16 C37.35 87.16
								 44.09 92.87 44.99 101.66 C49.49 102.54 56.69 106.94 55.79 114.85 Z" class="st1"/>
				</g>
				<g id="shape3167-7" transform="translate(18.5265,0)">
					<title>Sheet.3167</title>
					<path d="M33.89 108.42 C33.89 117.66 26.31 125.15 16.95 125.15 C7.59 125.15 0 117.66 0 108.42 C0 99.19 7.59 91.7
								 16.95 91.7 C26.3 91.7 33.89 99.19 33.89 108.42 Z" class="st2"/>
				</g>
				<g id="shape3168-9" transform="translate(18.5265,0)">
					<title>Sheet.3168</title>
					<path d="M16.95 122.95 C25.07 122.95 31.66 116.44 31.66 108.42 C31.66 100.4 25.07 93.9 16.95 93.9 C8.82 93.9
								 2.23 100.4 2.23 108.42 C2.23 116.44 8.82 122.95 16.95 122.95 ZM16.95 125.15 C26.3 125.15 33.89 117.66
								 33.89 108.42 C33.89 99.19 26.31 91.7 16.95 91.7 C7.59 91.7 0 99.19 0 108.42 C0 117.66 7.59 125.15
								 16.95 125.15 L16.95 125.15 Z" class="st3"/>
				</g>
				<g id="shape3169-13" transform="translate(23.4105,-8.86293)">
					<title>Sheet.3169</title>
					<path d="M18.34 114.33 C16.41 114.33 14.85 115.88 14.85 117.79 C14.85 118.9 14.6 119.96 14.15 120.91 C12.97 123.41
								 10.4 125.15 7.42 125.15 C3.32 125.15 0 121.85 0 117.79 A7.44576 7.34797 0 0 1 2.17 112.6 A7.39118
								 7.29411 0 0 1 6.53 110.48 L6.53 112.23 A5.66418 5.58979 -180 0 0 3.13 114.11 A5.6929 5.61814 -180
								 0 0 1.75 117.79 A5.69405 5.61927 -180 0 0 3.33 121.68 A5.65039 5.57618 -180 0 0 7.42 123.42 A5.63488
								 5.56087 -180 0 0 10.07 122.77 A5.70325 5.62834 -180 0 0 13.1 117.79 C13.1 116.62 13.49 115.54 14.15
								 114.67 A5.22582 5.15719 0 0 1 18.34 112.6 C21.09 112.6 23.34 114.69 23.57 117.36 L21.81 117.36 C21.6
								 115.65 20.13 114.33 18.34 114.33 Z" class="st4"/>
				</g>
				<g id="shape3170-15" transform="translate(23.1226,-8.57887)">
					<title>Sheet.3170</title>
					<path d="M14.42 120.67 C13.23 123.15 10.67 124.86 7.71 124.86 C3.61 124.86 0.29 121.57 0.29 117.51 A7.44576 7.34797
								 0 0 1 2.45 112.31 A7.39578 7.29865 0 0 1 6.82 110.2 L6.82 111.95 A5.66418 5.58979 -180 0 0 3.42
								 113.83 A5.69233 5.61757 -180 0 0 2.03 117.51 A5.69463 5.61984 -180 0 0 3.62 121.4 A5.65039 5.57618
								 -180 0 0 7.71 123.13 A5.63488 5.56087 -180 0 0 10.36 122.48 A5.70325 5.62834 -180 0 0 13.39 117.51
								 A5.25684 5.18781 0 0 1 14.44 114.39 A5.22582 5.15719 0 0 1 18.63 112.31 C21.28 112.31 23.47 114.26
								 23.82 116.79 C23.84 116.88 23.85 116.98 23.85 117.07 L22.1 117.07 C21.88 115.36 20.41 114.04 18.63
								 114.04 C16.7 114.04 15.14 115.59 15.14 117.51 A7.45208 7.35421 0 0 1 14.42 120.67 L14.42 120.67
								 ZM7.01 109.99 a0.287259 0.283487 0 0 1 0.0965191 0.212615 L7.11 111.95 a0.287259 0.283487 0 0 1
								 -0.242447 0.280652 A5.37634 5.30574 -180 0 0 3.63 114.01 A5.40507 5.33408 -180 0 0 2.32 117.5 A5.40622
								 5.33522 -180 0 0 3.82 121.2 A5.36313 5.2927 -180 0 0 7.71 122.85 A5.34704 5.27682 -180 0 0 10.23
								 122.23 A5.41599 5.34486 -180 0 0 13.1 117.5 C13.1 116.27 13.51 115.13 14.21 114.22 A5.51365 5.44124
								 0 0 1 18.63 112.03 C21.53 112.03 23.91 114.24 24.14 117.05 a0.287259 0.283487 0 0 1 -0.286685 0.307299
								 L22.1 117.36 a0.287259 0.283487 0 0 1 -0.284961 -0.248901 C21.62 115.54 20.27 114.33 18.63 114.33
								 C16.86 114.33 15.42 115.75 15.42 117.5 C15.42 118.66 15.16 119.76 14.7 120.74 C13.47 123.34 10.8
								 125.15 7.71 125.15 C3.45 125.15 0 121.72 0 117.51 C0 115.4 0.86 113.49 2.25 112.11 A7.67844 7.5776
								 0 0 1 6.79 109.92 a0.287259 0.283487 0 0 1 0.225211 0.0691707 L7.01 109.99 Z" class="st4"/>
				</g>
				<g id="shape3171-17" transform="translate(39.2919,-10.8853)">
					<title>Sheet.3171</title>
					<path d="M2.42 125.15 A5.17124 5.10333 0 0 1 0 124.56 L0.89 122.98 A3.44711 3.40184 -180 0 0 2.42 123.33 C4.08
								 123.33 5.47 122.17 5.87 120.6 L7.68 120.6 C7.26 123.18 5.06 125.15 2.42 125.15 Z" class="st5"/>
				</g>
				<g id="shape3172-19" transform="translate(39.0062,-10.6013)">
					<title>Sheet.3172</title>
					<path d="M0.01 124.35 a0.287259 0.283487 0 0 1 0.0241298 -0.219419 L0.93 122.56 a0.287259 0.283487 0 0 1 0.378033
								 -0.116796 A3.1587 3.11722 -180 0 0 2.7 122.76 C4.22 122.76 5.51 121.7 5.87 120.24 a0.287259 0.283487
								 0 0 1 0.279216 -0.21545 L7.97 120.03 a0.287259 0.283487 0 0 1 0.283812 0.328844 C7.81 123.07 5.5
								 125.15 2.7 125.15 A5.45908 5.38738 0 0 1 0.15 124.52 a0.287259 0.283487 0 0 1 -0.141332 -0.170092
								 ZM7.92 120.6 C7.38 123.04 5.25 124.86 2.7 124.86 A5.16779 5.09992 0 0 1 0.29 124.27 L1.18 122.69
								 A3.44711 3.40184 -180 0 0 2.7 123.04 C4.36 123.04 5.76 121.88 6.15 120.31 L7.97 120.31 A5.69118
								 5.61644 0 0 1 7.92 120.6 Z" class="st5"/>
				</g>
				<g id="shape3173-21" transform="translate(31.0952,-19.4801)">
					<title>Sheet.3173</title>
					<path d="M4.33 125.15 A5.83941 5.76272 -180 0 0 3.23 124.05 A5.98304 5.90446 -180 0 0 0 122.84 L0 121.1 C1.31
								 121.17 2.54 121.55 3.6 122.18 C4.38 122.63 5.07 123.22 5.64 123.91 L4.33 125.15 Z" class="st6"/>
				</g>
				<g id="shape3174-23" transform="translate(30.8074,-19.1971)">
					<title>Sheet.3174</title>
					<path d="M4.6 125.15 a0.287259 0.283487 0 0 1 -0.206827 -0.111694 A5.5487 5.47583 -180 0 0 3.34 123.99 A5.69578
								 5.62097 -180 0 0 0.27 122.84 a0.287259 0.283487 0 0 1 -0.267151 -0.28292 L0 120.82 a0.287259 0.283487
								 0 0 1 0.302771 -0.283487 C1.66 120.61 2.93 121.01 4.03 121.65 C4.84 122.13 5.56 122.74 6.15 123.45
								 a0.287259 0.283487 0 0 1 -0.0241298 0.383841 L4.82 125.07 a0.287259 0.283487 0 0 1 -0.221764 0.0788093
								 L4.6 125.15 ZM4.44 124.64 C4.5 124.71 4.56 124.79 4.62 124.86 L5.92 123.63 A7.68361 7.5827 -180
								 0 0 3.88 121.89 A7.83931 7.73635 -180 0 0 0.29 120.82 L0.29 122.56 C1.5 122.64 2.62 123.08 3.52
								 123.76 C3.86 124.02 4.17 124.32 4.44 124.64 L4.44 124.64 Z" class="st6"/>
				</g>
			</g>
		</g>
	</g>
</svg>
