<?xml version="1.0" encoding="UTF-8" standalone="no"?>
<!DOCTYPE svg PUBLIC "-//W3C//DTD SVG 1.1//EN" "http://www.w3.org/Graphics/SVG/1.1/DTD/svg11.dtd">
<!-- Generated by Microsoft Visio, SVG Export DNS Zone (Public).svg Page-1 -->
<svg xmlns="http://www.w3.org/2000/svg" xmlns:xlink="http://www.w3.org/1999/xlink" xmlns:ev="http://www.w3.org/2001/xml-events"
		width="1.64572in" height="2.1982in" viewBox="0 0 118.492 158.27" xml:space="preserve" color-interpolation-filters="sRGB"
		class="st4">
	<style type="text/css">
	<![CDATA[
		.st1 {fill:url(#grad7-6);stroke:none;stroke-linecap:butt;stroke-width:0.696362}
		.st2 {fill:#5ea0ef;stroke:none;stroke-linecap:butt;stroke-width:33.5821}
		.st3 {fill:#ffffff;stroke:none;stroke-linecap:butt;stroke-width:33.5821}
		.st4 {fill:none;fill-rule:evenodd;font-size:12px;overflow:visible;stroke-linecap:square;stroke-miterlimit:3}
	]]>
	</style>

	<defs id="Patterns_And_Gradients">
		<radialGradient id="grad7-6" cx="0" cy="0" r="1.4">
			<stop offset="0.18" stop-color="#5ea0ef" stop-opacity="1"/>
			<stop offset="1" stop-color="#0078d4" stop-opacity="1"/>
		</radialGradient>
	</defs>
	<g>
		<title>Page-1</title>
		<g id="group3113-1" transform="translate(30.7111,-70.8661)">
			<title>DNS Zone (Public)</title>
			<g id="group3114-2">
				<title>layer1</title>
				<g id="shape3115-3">
					<title>path822</title>
					<ellipse cx="28.3465" cy="129.924" rx="28.3465" ry="28.3465" class="st1"/>
				</g>
				<g id="shape3116-7" transform="translate(4.11147,-3.92906)">
					<title>path11-4</title>
					<path d="M24.42 108.38 A25.6637 25.6637 -180 1 0 50.09 134.04 A25.6971 25.6971 -180 0 0 24.42 108.38 ZM41.61
								 117.02 A24.5958 24.5958 0 0 1 34.43 119.69 A29.4682 29.4682 -180 0 0 30.26 110.68 A24.0284 24.0284
								 0 0 1 41.61 117.02 ZM24.42 109.81 A21.9927 21.9927 0 0 1 28.06 110.11 A24.9629 24.9629 0 0 1 33.17
								 120.12 A50.4597 50.4597 0 0 1 14.98 120.12 A24.6291 24.6291 0 0 1 20.02 110.31 A24.4957 24.4957
								 0 0 1 24.42 109.81 L24.42 109.81 ZM17.75 110.68 A29.1011 29.1011 -180 0 0 13.51 119.62 A18.622 18.622
								 0 0 1 7.17 117.05 A24.529 24.529 0 0 1 17.75 110.68 ZM6.8 150.73 A17.5875 17.5875 0 0 1 12.74 148.19
								 A23.628 23.628 -180 0 0 17.25 157.27 A24.1953 24.1953 0 0 1 6.8 150.73 ZM28.19 158.07 A23.628 23.628
								 0 0 1 24.42 158.27 A22.7936 22.7936 0 0 1 19.62 157.77 A20.0237 20.0237 0 0 1 14.04 147.76 A49.1582
								 49.1582 0 0 1 33.67 147.76 A20.0237 20.0237 0 0 1 28.03 157.77 L28.19 158.07 ZM30.63 157.54 A23.7948
								 23.7948 -180 0 0 35.24 148.19 A22.293 22.293 0 0 1 41.91 150.96 A23.7948 23.7948 0 0 1 30.63 157.4
								 L30.63 157.54 ZM35.57 146.79 C35.84 145.59 36.07 144.35 36.24 143.05 L34.7 143.42 C34.54 144.45
								 34.37 145.49 34.13 146.46 A50.8268 50.8268 -180 0 0 13.81 146.46 C13.58 145.56 13.41 144.59 13.24
								 143.59 a0.934439 0.934439 0 0 1 0 -0.300203 L11.71 142.85 A7.87599 7.87599 -180 0 0 11.71 143.79
								 C11.71 144.86 12.07 145.86 12.27 146.82 A19.69 19.69 -180 0 0 5.6 149.66 A24.1619 24.1619 0 0 1
								 5.97 118.29 A20.9915 20.9915 -180 0 0 12.91 121.16 C12.68 121.96 12.48 122.83 12.31 123.7 C12.14
								 124.56 12.31 124.53 12.04 124.93 L13.61 124.56 L13.61 124 C13.81 123.13 14.01 122.29 14.24 121.49
								 A49.6921 49.6921 -180 0 0 24.42 122.29 A50.0592 50.0592 -180 0 0 33.7 121.43 C33.93 122.33 34.17
								 123.3 34.37 124.26 L35.9 124.63 C35.66 123.43 35.39 122.32 35.1 121.29 A25.7972 25.7972 -180 0 0
								 42.78 118.26 A24.0952 24.0952 0 0 1 42.98 149.93 A24.2954 24.2954 -180 0 0 35.57 146.69 L35.57 146.79
								 Z" class="st2"/>
				</g>
				<g id="shape3117-9" transform="translate(9.34963,-21.0513)">
					<title>path13-4</title>
					<path d="M0.03 144.35 A26.4313 26.4313 0 0 1 3.9 144.09 A8.14297 8.14297 0 0 1 9.61 145.82 A6.67456 6.67456 0
								 0 1 11.58 150.69 A7.37539 7.37539 0 0 1 9.54 156.17 A8.67693 8.67693 0 0 1 3.34 158.2 A30.6029 30.6029
								 0 0 1 -0 158.04 L0.03 144.35 ZM1.87 156.8 A13.3491 13.3491 -180 0 0 3.7 156.8 A5.4064 5.4064 -180
								 0 0 9.68 150.76 A5.00592 5.00592 -180 0 0 3.97 145.36 A10.5792 10.5792 -180 0 0 1.87 145.36 L1.87
								 156.8 ZM13.95 158.07 L13.95 144.02 L15.92 144.02 L20.42 151.03 A40.6481 40.6481 0 0 1 22.96 155.6
								 C22.79 153.73 22.76 152.03 22.76 149.83 L22.76 144.02 L24.43 144.02 L24.43 158.07 L22.59 158.07
								 L18.19 151.03 C17.22 149.46 16.29 147.69 15.55 146.36 L15.55 158.17 L13.95 158.07 ZM27.4 155.87
								 A6.67456 6.67456 -180 0 0 30.74 156.77 C32.61 156.77 33.67 155.8 33.67 154.37 C33.67 152.93 32.94
								 152.3 31.04 151.6 C29.13 150.89 27.3 149.59 27.3 147.59 A4.07148 4.07148 0 0 1 31.87 143.79 A6.67456
								 6.67456 0 0 1 34.97 144.45 L34.44 145.96 A5.43977 5.43977 -180 0 0 31.77 145.29 C29.84 145.29 29.1
								 146.42 29.1 147.39 C29.1 148.36 29.97 149.36 31.9 150.09 C33.84 150.83 35.51 152.16 35.51 154.23
								 C35.51 156.3 33.91 158.27 30.57 158.27 A7.20853 7.20853 0 0 1 27 157.37 L27.4 155.87 Z"
							class="st3"/>
				</g>
			</g>
		</g>
	</g>
</svg>
