<?xml version="1.0" encoding="UTF-8" standalone="no"?>
<!-- Generated by Microsoft Visio, SVG Export Enterprise Certification Authority Offline Root.svg Page-1 -->

<svg
   xmlns:dc="http://purl.org/dc/elements/1.1/"
   xmlns:cc="http://creativecommons.org/ns#"
   xmlns:rdf="http://www.w3.org/1999/02/22-rdf-syntax-ns#"
   xmlns:svg="http://www.w3.org/2000/svg"
   xmlns="http://www.w3.org/2000/svg"
   xmlns:sodipodi="http://sodipodi.sourceforge.net/DTD/sodipodi-0.dtd"
   xmlns:inkscape="http://www.inkscape.org/namespaces/inkscape"
   width="0.66925508in"
   height="0.78741843in"
   viewBox="0 0 48.186317 56.694305"
   xml:space="preserve"
   class="st13"
   version="1.1"
   id="svg185"
   sodipodi:docname="Enterprise Certification Authority Offline Root.svg"
   style="font-size:12px;overflow:visible;color-interpolation-filters:sRGB;fill:none;fill-rule:evenodd;stroke-linecap:square;stroke-miterlimit:3"
   inkscape:version="0.92.5 (2060ec1f9f, 2020-04-08)"><metadata
   id="metadata189"><rdf:RDF><cc:Work
       rdf:about=""><dc:format>image/svg+xml</dc:format><dc:type
         rdf:resource="http://purl.org/dc/dcmitype/StillImage" /></cc:Work></rdf:RDF></metadata><sodipodi:namedview
   pagecolor="#ffffff"
   bordercolor="#666666"
   borderopacity="1"
   objecttolerance="10"
   gridtolerance="10"
   guidetolerance="10"
   inkscape:pageopacity="0"
   inkscape:pageshadow="2"
   inkscape:window-width="640"
   inkscape:window-height="480"
   id="namedview187"
   showgrid="false"
   inkscape:zoom="1.4059268"
   inkscape:cx="30.81964"
   inkscape:cy="37.425218"
   inkscape:window-x="0"
   inkscape:window-y="0"
   inkscape:window-maximized="0"
   inkscape:current-layer="svg185" />
	<style
   type="text/css"
   id="style2">
	<![CDATA[
		.st1 {fill:url(#grad0-11);stroke:none;stroke-linecap:butt;stroke-width:35.9597}
		.st2 {fill:#003067;stroke:none;stroke-linecap:butt;stroke-width:35.9597}
		.st3 {fill:#50e6ff;stroke:none;stroke-linecap:butt;stroke-width:35.9597}
		.st4 {fill:#ffffff;fill-opacity:0.75;stroke:none;stroke-linecap:butt;stroke-width:35.9597}
		.st5 {fill:url(#grad0-34);stroke:none;stroke-linecap:butt;stroke-width:33.9998}
		.st6 {fill:#ffffff;stroke:none;stroke-linecap:butt;stroke-width:33.9998}
		.st7 {fill:#d15900;stroke:none;stroke-linecap:butt;stroke-width:33.9998}
		.st8 {fill:#b31b1b;stroke:none;stroke-linecap:butt;stroke-width:33.9998}
		.st9 {fill:#e62323;stroke:none;stroke-linecap:butt;stroke-width:33.9998}
		.st10 {fill:#ffb34d;stroke:none;stroke-linecap:butt;stroke-width:33.9998}
		.st11 {fill:#773adc;stroke:none;stroke-linecap:butt;stroke-width:34}
		.st12 {fill:#f9f9f9;fill-opacity:0.5;stroke:none;stroke-linecap:butt;stroke-width:34}
		.st13 {fill:none;fill-rule:evenodd;font-size:12px;overflow:visible;stroke-linecap:square;stroke-miterlimit:3}
	]]>
	</style>

	<defs
   id="Patterns_And_Gradients">
		<linearGradient
   id="grad0-11"
   x1="-0.00026635694"
   y1="55.371508"
   x2="41.371113"
   y2="55.371508"
   gradientTransform="scale(0.76841055,1.3013877)"
   gradientUnits="userSpaceOnUse">
			<stop
   offset="0"
   stop-color="#949494"
   stop-opacity="1"
   id="stop4" />
			<stop
   offset="0.53"
   stop-color="#a2a2a2"
   stop-opacity="1"
   id="stop6" />
			<stop
   offset="1"
   stop-color="#b3b3b3"
   stop-opacity="1"
   id="stop8" />
		</linearGradient>
		<linearGradient
   id="grad0-34"
   x1="0"
   y1="131.74369"
   x2="20.470399"
   y2="131.74369"
   gradientTransform="scale(1.2090078,0.82712454)"
   gradientUnits="userSpaceOnUse">
			<stop
   offset="0"
   stop-color="#e27908"
   stop-opacity="1"
   id="stop11" />
			<stop
   offset="0.325"
   stop-color="#e47d0a"
   stop-opacity="1"
   id="stop13" />
			<stop
   offset="0.62"
   stop-color="#eb8810"
   stop-opacity="1"
   id="stop15" />
			<stop
   offset="0.91"
   stop-color="#f69a19"
   stop-opacity="1"
   id="stop17" />
			<stop
   offset="1"
   stop-color="#faa21d"
   stop-opacity="1"
   id="stop19" />
		</linearGradient>
	</defs>
	<g
   id="g183"
   transform="translate(-35.959942,-34.322698)">
		<title
   id="title23">Page-1</title>
		<g
   id="group6106-1"
   transform="translate(35.9599,-34.883)">
			<title
   id="title25">Enterprise Certification Authority Offline Root</title>
			<g
   id="group6107-2">
				<title
   id="title27">Page-1</title>
				<g
   id="group6108-3">
					<title
   id="title29">Sheet.6108</title>
					<g
   id="group6109-4"
   transform="translate(0,-1.21412)">
						<title
   id="title31">Sheet.6109</title>
						<g
   id="group6110-5">
							<title
   id="title33">Icon-databases-136.149</title>
							<g
   id="group6111-6">
								<title
   id="title35">path4-5</title>
								<g
   id="group6112-7">
									<title
   id="title37">Sheet.6112</title>
									<g
   id="shape6113-8">
										<title
   id="title39">Sheet.6113</title>
										<path
   d="m 31.79,124.06 a 1.87777,1.86752 -180 0 1 -1.84,1.84 H 1.84 A 1.8454,1.83531 -180 0 1 0,124.06 V 73.89 a 1.81302,1.80311 -180 0 1 1.84,-1.83 h 28.11 a 1.8454,1.83531 -180 0 1 1.84,1.83 z"
   class="st1"
   id="path41"
   inkscape:connector-curvature="0"
   style="fill:url(#grad0-11);stroke:none;stroke-width:35.95970154;stroke-linecap:butt" />
									</g>
								</g>
							</g>
							<g
   id="group6114-12"
   transform="translate(4.66205,-31.5222)">
								<title
   id="title46">path6-7</title>
								<g
   id="group6115-13">
									<title
   id="title48">Sheet.6115</title>
									<g
   id="shape6116-14">
										<title
   id="title50">Sheet.6116</title>
										<path
   d="m 0,122.46 a 3.46416,3.44524 -180 0 1 3.43,-3.43 h 15.86 a 3.46416,3.44524 -180 0 1 3.56,3.43 3.46416,3.44524 -180 0 1 -3.56,3.44 H 3.43 A 3.46416,3.44524 -180 0 1 0,122.46 Z m 0,-10.19 a 3.46416,3.44524 -180 0 1 3.43,-3.44 h 15.86 a 3.46416,3.44524 -180 0 1 3.56,3.44 3.46416,3.44524 -180 0 1 -3.56,3.42 H 3.43 A 3.46416,3.44524 -180 0 1 0,112.27 Z"
   class="st2"
   id="path52"
   inkscape:connector-curvature="0"
   style="fill:#003067;stroke:none;stroke-width:35.95970154;stroke-linecap:butt" />
									</g>
								</g>
							</g>
							<g
   id="group6117-16"
   transform="translate(5.95706,-42.8242)">
								<title
   id="title57">circle8-5</title>
								<g
   id="group6118-17">
									<title
   id="title59">Sheet.6118</title>
									<g
   id="shape6119-18">
										<title
   id="title61">Sheet.6119</title>
										<ellipse
   cx="2.3310201"
   cy="123.577"
   rx="2.3310201"
   ry="2.31829"
   class="st3"
   id="ellipse63"
   style="fill:#50e6ff;stroke:none;stroke-width:35.95970154;stroke-linecap:butt" />
									</g>
								</g>
							</g>
							<g
   id="group6120-20"
   transform="translate(5.95706,-32.6496)">
								<title
   id="title68">circle10-2</title>
								<g
   id="group6121-21">
									<title
   id="title70">Sheet.6121</title>
									<g
   id="shape6122-22">
										<title
   id="title72">Sheet.6122</title>
										<ellipse
   cx="2.3310201"
   cy="123.577"
   rx="2.3310201"
   ry="2.31829"
   class="st3"
   id="ellipse74"
   style="fill:#50e6ff;stroke:none;stroke-width:35.95970154;stroke-linecap:butt" />
									</g>
								</g>
							</g>
						</g>
					</g>
					<g
   id="group6123-24"
   transform="translate(0,-1.07664)">
						<title
   id="title81">Sheet.6123</title>
						<g
   id="shape6124-25">
							<title
   id="title83">Sheet.6124</title>
							<path
   d="m 31.79,124.06 a 1.87777,1.86752 -180 0 1 -1.84,1.84 H 1.84 A 1.8454,1.83531 -180 0 1 0,124.06 V 73.89 a 1.81302,1.80311 -180 0 1 1.84,-1.83 h 28.11 a 1.8454,1.83531 -180 0 1 1.84,1.83 z"
   class="st4"
   id="path85"
   inkscape:connector-curvature="0"
   style="fill:#ffffff;fill-opacity:0.75;stroke:none;stroke-width:35.95970154;stroke-linecap:butt" />
						</g>
					</g>
					<g
   id="group6125-27"
   transform="translate(23.1191,-34.8277)">
						<title
   id="title89">Management Certificate.1189</title>
						<g
   id="group6126-28">
							<title
   id="title91">g14</title>
							<g
   id="group6127-29"
   transform="translate(0,-4.93504)">
								<title
   id="title93">rect2</title>
								<g
   id="group6128-30">
									<title
   id="title95">Sheet.6128</title>
									<g
   id="shape6129-31">
										<title
   id="title97">Sheet.6129</title>
										<path
   d="m 0,125.1 a 0.824774,0.796774 0 0 0 0.821337,0.79155 L 23.92,125.9 a 0.824774,0.796774 0 0 0 0.828872,-0.79155 L 24.74,109.76 a 0.824774,0.796774 0 0 0 -0.828872,-0.79155 L 0.83,108.97 a 0.824774,0.796774 0 0 0 -0.821337,0.79155 z"
   class="st5"
   id="path99"
   inkscape:connector-curvature="0"
   style="fill:url(#grad0-34);stroke:none;stroke-width:33.99980164;stroke-linecap:butt" />
									</g>
								</g>
							</g>
							<g
   id="group6130-35"
   transform="translate(1.44332,-6.42308)">
								<title
   id="title104">rect4</title>
								<g
   id="group6131-36">
									<title
   id="title106">Sheet.6131</title>
									<g
   id="shape6132-37">
										<title
   id="title108">Sheet.6132</title>
										<path
   d="m 0,125.5 a 0.412385,0.398388 0 0 0 0.412376,0.39838 L 21.44,125.89 a 0.412385,0.398388 0 0 0 0.412376,-0.39838 L 21.86,112.35 a 0.412385,0.398388 0 0 0 -0.412376,-0.39838 L 0.41,111.95 a 0.412385,0.398388 0 0 0 -0.412376,0.39838 z"
   class="st6"
   id="path110"
   inkscape:connector-curvature="0"
   style="fill:#ffffff;stroke:none;stroke-width:33.99980164;stroke-linecap:butt" />
									</g>
								</g>
							</g>
							<g
   id="group6133-39"
   transform="translate(4.75883,-10.0883)">
								<title
   id="title115">path6</title>
								<g
   id="group6134-40">
									<title
   id="title117">Sheet.6134</title>
									<g
   id="shape6135-41">
										<title
   id="title119">Sheet.6135</title>
										<path
   d="m 15.78,125.51 a 0.39863,0.385099 0 0 1 -0.39863,0.3851 L 6.47,125.9 a 0.39863,0.385099 0 1 1 0,-0.76887 l 8.92,-0.001 a 0.397255,0.383772 0 0 1 0.39863,0.38377 z m 0,-2.38 a 0.397255,0.383772 0 0 1 -0.39863,0.38377 L 6.47,123.51 a 0.39863,0.385099 0 1 1 0,-0.76887 l 8.92,-0.001 a 0.39863,0.385099 0 0 1 0.39863,0.3851 z m 0,-3.47 a 0.39863,0.385099 0 0 1 -0.39863,0.3851 L 0.42,120.04 a 0.39863,0.385099 0 1 1 0,-0.76887 l 14.97,-0.001 a 0.397255,0.383772 0 0 1 0.39863,0.38377 z"
   class="st7"
   id="path121"
   inkscape:connector-curvature="0"
   style="fill:#d15900;stroke:none;stroke-width:33.99980164;stroke-linecap:butt" />
									</g>
								</g>
							</g>
							<g
   id="group6136-43"
   transform="translate(2.12649)">
								<title
   id="title126">path8</title>
								<g
   id="group6137-44">
									<title
   id="title128">Sheet.6137</title>
									<g
   id="shape6138-45">
										<title
   id="title130">Sheet.6138</title>
										<path
   d="m 4.93,119.88 a 3.47083,3.35302 0 0 1 -4.64,0 L 0,125.44 a 0.457738,0.4422 0 0 0 0.783511,0.33198 L 2.57,124.03 l 1.8,1.76 a 0.457738,0.4422 0 0 0 0.789012,-0.32269 z"
   class="st8"
   id="path132"
   inkscape:connector-curvature="0"
   style="fill:#b31b1b;stroke:none;stroke-width:33.99980164;stroke-linecap:butt" />
									</g>
								</g>
							</g>
							<g
   id="group6139-47"
   transform="translate(0.640557,-4.85426)">
								<title
   id="title137">ellipse10</title>
								<g
   id="group6140-48">
									<title
   id="title139">Sheet.6140</title>
									<g
   id="shape6141-49">
										<title
   id="title141">Sheet.6141</title>
										<ellipse
   cx="4.1416302"
   cy="121.881"
   rx="4.1416302"
   ry="4.0143299"
   class="st9"
   id="ellipse143"
   style="fill:#e62323;stroke:none;stroke-width:33.99980164;stroke-linecap:butt" />
									</g>
								</g>
							</g>
							<g
   id="group6142-51"
   transform="translate(1.63988,-5.8231)">
								<title
   id="title148">ellipse12</title>
								<g
   id="group6143-52">
									<title
   id="title150">Sheet.6143</title>
									<g
   id="shape6144-53">
										<title
   id="title152">Sheet.6144</title>
										<ellipse
   cx="3.1422999"
   cy="122.851"
   rx="3.1422999"
   ry="3.04494"
   class="st10"
   id="ellipse154"
   style="fill:#ffb34d;stroke:none;stroke-width:33.99980164;stroke-linecap:butt" />
									</g>
								</g>
							</g>
						</g>
					</g>
					<g
   id="group6145-55"
   transform="translate(15.3973)">
						<title
   id="title161">Sheet.6145</title>
						<g
   id="group6146-56"
   transform="translate(0.0190122)">
							<title
   id="title163">Sheet.6146</title>
							<g
   id="shape6147-57">
								<title
   id="title165">Sheet.6147</title>
								<path
   d="M 16.39,96.9 0,119.36 l 16.39,6.54 16.38,-6.54 z"
   class="st11"
   id="path167"
   inkscape:connector-curvature="0"
   style="fill:#773adc;stroke:none;stroke-width:34;stroke-linecap:butt" />
							</g>
						</g>
						<g
   id="group6148-59">
							<title
   id="title171">Sheet.6148</title>
							<g
   id="shape6149-60">
								<title
   id="title173">Sheet.6149</title>
								<path
   d="M 16.39,96.9 0,119.36 16.39,125.9 Z"
   class="st12"
   id="path175"
   inkscape:connector-curvature="0"
   style="fill:#f9f9f9;fill-opacity:0.5;stroke:none;stroke-width:34;stroke-linecap:butt" />
							</g>
						</g>
					</g>
				</g>
			</g>
		</g>
	</g>
</svg>