<?xml version="1.0" encoding="UTF-8" standalone="no"?>
<!DOCTYPE svg PUBLIC "-//W3C//DTD SVG 1.1//EN" "http://www.w3.org/Graphics/SVG/1.1/DTD/svg11.dtd">
<!-- Generated by Microsoft Visio, SVG Export Enterprise Application.svg Page-1 -->
<svg xmlns="http://www.w3.org/2000/svg" xmlns:xlink="http://www.w3.org/1999/xlink" xmlns:ev="http://www.w3.org/2001/xml-events"
		width="1.75315in" height="2.25451in" viewBox="0 0 126.227 162.325" xml:space="preserve" color-interpolation-filters="sRGB"
		class="st4">
	<style type="text/css">
	<![CDATA[
		.st1 {fill:url(#grad0-6);stroke:none;stroke-linecap:butt;stroke-width:34.7657}
		.st2 {fill:#32bedd;stroke:none;stroke-linecap:butt;stroke-width:34.7657}
		.st3 {fill:#b4ec36;stroke:none;stroke-linecap:butt;stroke-width:33.0878}
		.st4 {fill:none;fill-rule:evenodd;font-size:12px;overflow:visible;stroke-linecap:square;stroke-miterlimit:3}
	]]>
	</style>

	<defs id="Patterns_And_Gradients">
		<linearGradient id="grad0-6" x1="0" y1="0" x2="1" y2="0" gradientTransform="rotate(90 0.5 0.5)">
			<stop offset="0" stop-color="#5ea0ef" stop-opacity="1"/>
			<stop offset="0.18" stop-color="#589eed" stop-opacity="1"/>
			<stop offset="0.41" stop-color="#4897e9" stop-opacity="1"/>
			<stop offset="0.66" stop-color="#2e8ce1" stop-opacity="1"/>
			<stop offset="0.94" stop-color="#0a7cd7" stop-opacity="1"/>
			<stop offset="1" stop-color="#0078d4" stop-opacity="1"/>
		</linearGradient>
	</defs>
	<g>
		<title>Page-1</title>
		<g id="group3066-1" transform="translate(34.7682,-70.8661)">
			<title>Enterprise Application</title>
			<g id="group3067-2">
				<title> Icon-identity-225</title>
				<g id="shape3068-3" transform="translate(5.63549E-13,-8.17104)">
					<title>path11</title>
					<path d="M16.96 147.7 L31.53 147.7 L31.53 162.32 L16.96 162.32 L16.96 147.7 ZM0.13 128.33 L14.53 128.33 L14.53
								 113.8 L2.02 113.8 A2.01874 2.01754 -180 0 0 -0 115.82 L0.13 128.33 ZM2.02 162.32 L14.53 162.32 L14.53
								 147.7 L0 147.7 L0 160.21 A2.01874 2.01754 -180 0 0 2.02 162.32 ZM0 145.51 L14.53 145.51 L14.53 130.75
								 L0 130.75 L0 145.51 ZM33.95 162.32 L46.46 162.32 A2.01874 2.01754 -180 0 0 48.48 160.31 L48.48 147.7
								 L33.95 147.7 L33.95 162.32 ZM17.13 145.51 L31.53 145.51 L31.53 130.75 L16.96 130.75 L17.13 145.51
								 ZM34.12 145.51 L48.55 145.51 L48.55 130.75 L33.95 130.75 L34.12 145.51 ZM34.12 114.04 L34.12 128.33
								 L48.55 128.33 L48.55 115.82 A2.01874 2.01754 -180 0 0 46.53 113.8 L34.12 114.04 ZM17.29 128.56 L31.53
								 128.56 L31.53 113.8 L16.96 113.8 L17.29 128.56 Z" class="st1"/>
				</g>
				<g id="shape3069-7" transform="translate(28.6997,0)">
					<title>circle15</title>
					<ellipse cx="13.9966" cy="148.336" rx="13.9966" ry="13.9883" class="st2"/>
				</g>
				<g id="shape3070-9" transform="translate(31.1599,-0.992294)">
					<title>path17-0-0</title>
					<path d="M22.22 151.96 C21.55 152.31 20.59 152.12 20.14 152.47 C19.28 152.96 18.58 153.7 18.12 154.58 C18.12
								 154.77 18.12 155.06 17.9 155.16 C17 155.76 16.11 156.4 16.94 157.75 C15.98 157.75 16.3 156.88 15.85
								 156.63 C14.43 156.01 12.79 156.84 12.46 158.36 C12.35 158.82 12.56 159.3 12.97 159.54 C13.39 159.77
								 13.92 159.59 14.12 159.16 C14.29 158.86 14.67 158.77 14.95 158.96 C14.95 159.48 14.06 160.4 15.53
								 160.44 C15.92 160.44 15.82 160.88 15.72 161.17 C15.62 161.46 15.91 161.94 16.33 162.13 C16.74 162.32
								 16.33 162.13 16.33 162.29 C15.14 162.29 14.89 160.85 13.73 160.69 C13.27 160.57 12.81 160.42 12.36
								 160.24 C11.49 159.96 10.5 159.8 10.31 158.52 C10.16 157.86 9.74 157.29 9.15 156.95 C8.77 156.69
								 8.55 156.21 8.16 155.92 C8.01 155.49 7.77 155.1 7.46 154.77 C6.86 153.98 6.69 152.93 7.01 151.99
								 C7.58 150.22 7.54 148.49 6.77 146.81 C6.44 145.78 6.31 144.53 5.16 143.86 C4 143.19 4.2 144.24 3.75
								 144.02 C3.3 143.8 3.04 144.44 2.91 144.5 C1.99 144.76 1.18 145.56 0 145.43 C0.45 145.2 0.8 145.08
								 1.12 144.88 C1.44 144.69 2.05 144.44 1.34 143.67 C0.64 142.9 0.89 141.78 2.78 141.01 C2.62 140.56
								 1.47 140.66 1.98 139.83 C2.5 138.99 2.88 139.41 3.36 139.83 C3.68 139.22 2.97 138.45 3.52 138.1
								 C4.24 137.69 5.02 137.37 5.83 137.17 C6.23 136.96 6.72 137.12 6.92 137.52 C7.49 138.42 8.64 138.58
								 9.22 139.47 C9.38 139.76 9.7 139.47 9.93 139.47 C11.24 139.03 12.1 139.86 13.13 140.53 C14.15 141.2
								 13.99 141.62 14.82 141.52 C15.04 141.47 15.28 141.47 15.5 141.52 C16.01 141.75 16.49 141.87 16.87
								 141.33 C17.28 141.29 17.61 140.99 17.71 140.59 C17.9 140.31 18 139.89 18.48 140.08 C18.24 140.99
								 18.37 141.95 18.83 142.77 C19.24 142.45 19.66 142.26 19.18 141.52 C18.74 140.81 19.14 139.88 19.98
								 139.73 C20.74 139.48 21.58 139.78 22 140.47 C22.61 141.55 22.8 142.8 23.5 143.67 C23.73 143.96 23.5
								 144.08 23.5 144.31 C23.5 144.53 22.93 144.31 22.61 144.12 L22.83 145.49 C21.88 145.91 20.77 145.57
								 20.21 144.69 C20.21 144.31 20.21 144.15 20.59 143.96 C20.98 143.76 21.2 143.6 21.2 143.19 C21.24
								 142.93 21.11 142.67 20.88 142.55 C20.63 142.55 20.47 142.55 20.4 142.84 C20.34 143.12 19.34 143.64
								 19.5 144.53 C19.67 145.43 18.9 145.24 18.45 144.98 C17.39 144.44 17.01 145.4 16.56 145.91 C16.11
								 146.42 16.56 147 17.07 147.38 C17.58 147.76 18.06 148.05 18.26 148.66 C18.79 148.18 19.12 147.52
								 19.18 146.8 C19.18 146.23 19.41 145.43 20.21 145.33 C20.83 145.28 21.4 145.65 21.62 146.23 C21.78
								 146.58 22.03 146.61 22.35 146.64 C23.08 148.21 23.66 149.84 24.08 151.51 L22.9 151.35 C22.9 150.42
								 22.1 150.84 21.65 150.64 C21.52 151.22 22.26 151.38 22.23 151.96 L22.22 151.96 Z" class="st3"/>
				</g>
			</g>
		</g>
	</g>
</svg>
