<?xml version="1.0" encoding="UTF-8" standalone="no"?>
<!-- Generated by Microsoft Visio, SVG Export Entra ID.svg Page-1 -->

<svg
   xmlns:dc="http://purl.org/dc/elements/1.1/"
   xmlns:cc="http://creativecommons.org/ns#"
   xmlns:rdf="http://www.w3.org/1999/02/22-rdf-syntax-ns#"
   xmlns:svg="http://www.w3.org/2000/svg"
   xmlns="http://www.w3.org/2000/svg"
   xmlns:sodipodi="http://sodipodi.sourceforge.net/DTD/sodipodi-0.dtd"
   xmlns:inkscape="http://www.inkscape.org/namespaces/inkscape"
   width="0.76809931in"
   height="0.62037969in"
   viewBox="0 0 55.303148 44.667499"
   xml:space="preserve"
   class="st4"
   version="1.1"
   id="svg42"
   sodipodi:docname="Entra ID.svg"
   style="font-size:12px;overflow:visible;color-interpolation-filters:sRGB;fill:none;fill-rule:evenodd;stroke-linecap:square;stroke-miterlimit:3"
   inkscape:version="0.92.5 (2060ec1f9f, 2020-04-08)"><metadata
   id="metadata46"><rdf:RDF><cc:Work
       rdf:about=""><dc:format>image/svg+xml</dc:format><dc:type
         rdf:resource="http://purl.org/dc/dcmitype/StillImage" /></cc:Work></rdf:RDF></metadata><sodipodi:namedview
   pagecolor="#ffffff"
   bordercolor="#666666"
   borderopacity="1"
   objecttolerance="10"
   gridtolerance="10"
   guidetolerance="10"
   inkscape:pageopacity="0"
   inkscape:pageshadow="2"
   inkscape:window-width="640"
   inkscape:window-height="480"
   id="namedview44"
   showgrid="false"
   inkscape:zoom="2.1095237"
   inkscape:cx="36.870712"
   inkscape:cy="10.295363"
   inkscape:window-x="0"
   inkscape:window-y="0"
   inkscape:window-maximized="0"
   inkscape:current-layer="svg42" />
	<style
   type="text/css"
   id="style2">
	<![CDATA[
		.st1 {fill:url(#grad0-5);stroke:none;stroke-linecap:butt;stroke-width:0.75}
		.st2 {fill:url(#grad0-9);stroke:none;stroke-linecap:butt;stroke-width:0.75}
		.st3 {fill:url(#grad0-13);stroke:none;stroke-linecap:butt;stroke-width:0.75}
		.st4 {fill:none;fill-rule:evenodd;font-size:12px;overflow:visible;stroke-linecap:square;stroke-miterlimit:3}
	]]>
	</style>

	<defs
   id="Patterns_And_Gradients">
		<linearGradient
   id="grad0-5"
   x1="0.623099"
   y1="43.420516"
   x2="50.324833"
   y2="43.420516"
   gradientTransform="scale(1.1127046,0.8987111)"
   gradientUnits="userSpaceOnUse">
			<stop
   offset="0"
   stop-color="#225086"
   stop-opacity="1"
   id="stop4" />
			<stop
   offset="1"
   stop-color="#0055c5"
   stop-opacity="1"
   id="stop6" />
		</linearGradient>
		<linearGradient
   id="grad0-9"
   x1="0.68171129"
   y1="46.887917"
   x2="39.133312"
   y2="46.887917"
   gradientTransform="scale(1.0170363,0.98324905)"
   gradientUnits="userSpaceOnUse">
			<stop
   offset="0"
   stop-color="#66ddff"
   stop-opacity="1"
   id="stop9" />
			<stop
   offset="1"
   stop-color="#0294e4"
   stop-opacity="1"
   id="stop11" />
		</linearGradient>
		<linearGradient
   id="grad0-13"
   x1="0"
   y1="70.090003"
   x2="23.934811"
   y2="70.090003"
   gradientTransform="scale(1.1205436,0.89242399)"
   gradientUnits="userSpaceOnUse">
			<stop
   offset="0"
   stop-color="#44dbf9"
   stop-opacity="1"
   id="stop14" />
			<stop
   offset="1"
   stop-color="#cbf8ff"
   stop-opacity="1"
   id="stop16" />
		</linearGradient>
	</defs>
	<g
   id="g40"
   transform="translate(-6.3627398,-5.0068)">
		<title
   id="title20">Page-1</title>
		<g
   id="group5973-1"
   transform="translate(5.66929,-34.0157)">
			<title
   id="title22">Entra ID</title>
			<g
   id="shape5974-2">
				<title
   id="title24">path24</title>
				<path
   d="M 54.92,64.05 31.87,40.44 c -1.84,-1.89 -5.2,-1.89 -7.05,0 L 1.78,64.05 C 0,65.88 0.46,68.63 2.77,69.95 l 23.04,13.08 c 1.54,0.88 3.53,0.88 5.07,0 L 53.92,69.95 c 2.31,-1.31 2.77,-4.07 0.99,-5.9 z"
   class="st1"
   id="path26"
   inkscape:connector-curvature="0"
   style="fill:url(#grad0-5);stroke:none;stroke-width:0.75;stroke-linecap:butt" />
			</g>
			<g
   id="shape5975-6"
   transform="translate(0.00307279,-7.07894)">
				<title
   id="title29">path26</title>
				<path
   d="m 31.87,47.52 c -1.84,-1.89 -5.2,-1.89 -7.05,0 L 1.78,71.13 c -1.78,1.83 -1.32,4.58 0.99,5.89 0,0 8.53,4.85 9.61,5.46 1.19,0.67 3.17,1.43 5.27,1.43 1.91,0 3.68,-0.51 5.15,-1.36 0,0 0,0 0,-0.01 L 28.35,79.39 14.94,71.78 28.68,57.69 c 1.69,-1.75 4.24,-2.86 7.08,-2.86 1.45,0 2.82,0.3 4.04,0.81 z"
   class="st2"
   id="path31"
   inkscape:connector-curvature="0"
   style="fill:url(#grad0-9);stroke:none;stroke-width:0.75;stroke-linecap:butt" />
			</g>
			<g
   id="shape5976-10"
   transform="translate(14.9399,-11.5898)">
				<title
   id="title34">polygon28</title>
				<path
   d="m 0,76.29 0.16,0.09 13.25,7.53 13.41,-7.62 v 0 0 L 13.41,62.55 Z"
   class="st3"
   id="path36"
   inkscape:connector-curvature="0"
   style="fill:url(#grad0-13);stroke:none;stroke-width:0.75;stroke-linecap:butt" />
			</g>
		</g>
	</g>
</svg>