<?xml version="1.0" encoding="UTF-8" standalone="no"?>
<!-- Generated by Microsoft Visio, SVG Export Entra Authentication Method.svg Page-1 -->

<svg
   xmlns:dc="http://purl.org/dc/elements/1.1/"
   xmlns:cc="http://creativecommons.org/ns#"
   xmlns:rdf="http://www.w3.org/1999/02/22-rdf-syntax-ns#"
   xmlns:svg="http://www.w3.org/2000/svg"
   xmlns="http://www.w3.org/2000/svg"
   xmlns:sodipodi="http://sodipodi.sourceforge.net/DTD/sodipodi-0.dtd"
   xmlns:inkscape="http://www.inkscape.org/namespaces/inkscape"
   width="0.76809818in"
   height="0.66915834in"
   viewBox="0 0 55.302923 48.179649"
   xml:space="preserve"
   class="st6"
   version="1.1"
   id="svg65"
   sodipodi:docname="Entra Authentication Method.svg"
   style="font-size:12px;overflow:visible;color-interpolation-filters:sRGB;fill:none;fill-rule:evenodd;stroke-linecap:square;stroke-miterlimit:3"
   inkscape:version="0.92.5 (2060ec1f9f, 2020-04-08)"><metadata
   id="metadata69"><rdf:RDF><cc:Work
       rdf:about=""><dc:format>image/svg+xml</dc:format><dc:type
         rdf:resource="http://purl.org/dc/dcmitype/StillImage" /></cc:Work></rdf:RDF></metadata><sodipodi:namedview
   pagecolor="#ffffff"
   bordercolor="#666666"
   borderopacity="1"
   objecttolerance="10"
   gridtolerance="10"
   guidetolerance="10"
   inkscape:pageopacity="0"
   inkscape:pageshadow="2"
   inkscape:window-width="640"
   inkscape:window-height="480"
   id="namedview67"
   showgrid="false"
   inkscape:zoom="1.5231781"
   inkscape:cx="36.870713"
   inkscape:cy="32.109096"
   inkscape:window-x="0"
   inkscape:window-y="0"
   inkscape:window-maximized="0"
   inkscape:current-layer="svg65" />
	<style
   type="text/css"
   id="style2">
	<![CDATA[
		.st1 {fill:url(#grad0-6);stroke:none;stroke-linecap:butt;stroke-width:34}
		.st2 {fill:url(#grad0-10);stroke:none;stroke-linecap:butt;stroke-width:34}
		.st3 {fill:url(#grad0-14);stroke:none;stroke-linecap:butt;stroke-width:34}
		.st4 {fill:#ffca00;stroke:none;stroke-linecap:butt;stroke-width:34}
		.st5 {fill:#ff9300;fill-opacity:0.75;stroke:none;stroke-linecap:butt;stroke-width:34}
		.st6 {fill:none;fill-rule:evenodd;font-size:12px;overflow:visible;stroke-linecap:square;stroke-miterlimit:3}
	]]>
	</style>

	<defs
   id="Patterns_And_Gradients">
		<linearGradient
   id="grad0-6"
   x1="0.64470837"
   y1="73.287073"
   x2="52.070122"
   y2="73.287073"
   gradientTransform="scale(1.0754089,0.92987882)"
   gradientUnits="userSpaceOnUse">
			<stop
   offset="0"
   stop-color="#225086"
   stop-opacity="1"
   id="stop4" />
			<stop
   offset="1"
   stop-color="#0055c5"
   stop-opacity="1"
   id="stop6" />
		</linearGradient>
		<linearGradient
   id="grad0-10"
   x1="0.70532344"
   y1="74.439882"
   x2="40.488757"
   y2="74.439882"
   gradientTransform="scale(0.98298894,1.0173054)"
   gradientUnits="userSpaceOnUse">
			<stop
   offset="0"
   stop-color="#66ddff"
   stop-opacity="1"
   id="stop9" />
			<stop
   offset="1"
   stop-color="#0294e4"
   stop-opacity="1"
   id="stop11" />
		</linearGradient>
		<linearGradient
   id="grad0-14"
   x1="0"
   y1="101.08775"
   x2="24.770993"
   y2="101.08775"
   gradientTransform="scale(1.0831217,0.92325729)"
   gradientUnits="userSpaceOnUse">
			<stop
   offset="0"
   stop-color="#44dbf9"
   stop-opacity="1"
   id="stop14" />
			<stop
   offset="1"
   stop-color="#cbf8ff"
   stop-opacity="1"
   id="stop16" />
		</linearGradient>
	</defs>
	<g
   id="g63"
   transform="translate(-33.999301,-34.004797)">
		<title
   id="title20">Page-1</title>
		<g
   id="group6003-1"
   transform="translate(33.3055,-34.0157)">
			<title
   id="title22">Entra Authentication Method</title>
			<g
   id="group6004-2">
				<title
   id="title24">g16437</title>
				<g
   id="shape6005-3"
   transform="translate(0,-0.1276)">
					<title
   id="title26">path16421</title>
					<path
   d="M 54.92,94.95 31.87,69.66 a 4.76282,4.63265 -180 0 0 -7.04,0 L 1.78,94.95 C 0,96.9 0.46,99.85 2.77,101.26 l 23.04,14.01 c 1.54,0.93 3.53,0.93 5.07,0 l 23.04,-14.01 c 2.31,-1.4 2.77,-4.36 0.99,-6.31 z"
   class="st1"
   id="path28"
   inkscape:connector-curvature="0"
   style="fill:url(#grad0-6);stroke:none;stroke-width:34;stroke-linecap:butt" />
				</g>
				<g
   id="shape6006-7"
   transform="translate(0.00307279,-7.70721)">
					<title
   id="title31">path16423</title>
					<path
   d="m 31.87,77.24 a 4.76282,4.63265 -180 0 0 -7.04,0 L 1.78,102.53 c -1.78,1.95 -1.32,4.9 0.99,6.31 l 9.61,5.84 c 1.19,0.72 3.17,1.52 5.27,1.52 1.91,0 3.68,-0.53 5.15,-1.45 v 0 l 5.55,-3.38 -13.41,-8.15 13.74,-15.08 a 9.38122,9.12483 0 0 1 7.08,-3.07 c 1.45,0 2.82,0.32 4.04,0.87 l -7.93,-8.69 z"
   class="st2"
   id="path33"
   inkscape:connector-curvature="0"
   style="fill:url(#grad0-10);stroke:none;stroke-width:34;stroke-linecap:butt" />
				</g>
				<g
   id="shape6007-11"
   transform="translate(14.9399,-12.5371)">
					<title
   id="title36">path16425</title>
					<path
   d="m 0,108.05 0.16,0.1 13.25,8.05 13.41,-8.15 h 0.01 -0.01 L 13.41,93.33 Z"
   class="st3"
   id="path38"
   inkscape:connector-curvature="0"
   style="fill:url(#grad0-14);stroke:none;stroke-width:34;stroke-linecap:butt" />
				</g>
				<g
   id="shape6008-15"
   transform="translate(32.7463)">
					<title
   id="title41">path16429</title>
					<path
   d="m 18.69,97.59 a 3.62896,3.52978 -180 0 0 0.03,-5 l -0.03,-0.03 -6.26,-6.08 a 3.62589,3.52679 -180 0 0 -5.13,0 l -6.25,6.08 a 3.69042,3.58956 -180 0 0 0,5.02 l 5.23,5.08 a 0.998656,0.971362 0 0 1 0.282696,0.69938 L 6.56,112.79 a 1.13079,1.09988 -180 0 0 0.37,0.85 l 2.38,2.31 a 0.777415,0.756168 -180 0 0 1.15537,0 l 2.28463,-2.22 1.37,-1.34 a 0.470136,0.457287 -180 0 0 0,-0.63961 L 13.15,110.81 a 0.500864,0.487175 0 0 1 -0.04302,-0.68743 L 13.15,110.08 l 0.97,-0.94 a 0.503937,0.490164 -180 0 0 0,-0.66949 L 13.15,107.53 a 0.467064,0.454299 0 0 1 0,-0.69938 L 14.12,105.85 a 0.470136,0.457287 -180 0 0 0,-0.63961 L 12.75,103.87 v -0.48 l 5.94,-5.81 z M 9.87,87.94 A 2.06491,2.00848 0 1 1 7.8,89.95 c 0,-1.11 0.93,-2.01 2.07,-2.01 z"
   class="st4"
   id="path43"
   inkscape:connector-curvature="0"
   style="fill:#ffca00;stroke:none;stroke-width:34;stroke-linecap:butt" />
				</g>
				<g
   id="shape6009-17"
   transform="translate(40.9114,-2.91434)">
					<title
   id="title46">path16431</title>
					<path
   d="m 0.14,116.07 a 0.433263,0.421422 -180 0 0 0.61763,0.009 0.436336,0.42441 -180 0 0 0.13213,-0.34372 L 0.89,107.95 A 0.497791,0.484187 -180 0 0 0.70256,107.55548 0.442481,0.430388 -180 0 0 0.091075,107.6571 0.442481,0.430388 -180 0 0 0.0142553,107.95 L 0.01,115.59 a 0.470136,0.457287 -180 0 0 0.125984,0.48717 z"
   class="st5"
   id="path48"
   inkscape:connector-curvature="0"
   style="fill:#ff9300;fill-opacity:0.75;stroke:none;stroke-width:34;stroke-linecap:butt" />
				</g>
				<g
   id="shape6010-19"
   transform="translate(37.6109,-20.4126)">
					<title
   id="title51">rect16433</title>
					<path
   d="m 0,115.66 a 0.562333,0.546964 -180 0 0 0.56232,0.54695 L 9.73,116.2 a 0.562333,0.546964 -180 0 0 0.56232,-0.54695 L 10.29,115.57 A 0.562333,0.546964 -180 0 0 9.72768,115.02305 L 0.56,115.02 a 0.562333,0.546964 -180 0 0 -0.56232,0.54695 z"
   class="st5"
   id="path53"
   inkscape:connector-curvature="0"
   style="fill:#ff9300;fill-opacity:0.75;stroke:none;stroke-width:34;stroke-linecap:butt" />
				</g>
				<g
   id="shape6011-21"
   transform="translate(37.6109,-18.4968)">
					<title
   id="title56">rect16435</title>
					<path
   d="m 0,115.66 a 0.562333,0.546964 -180 0 0 0.56232,0.54695 L 9.73,116.2 a 0.562333,0.546964 -180 0 0 0.56232,-0.54695 L 10.29,115.57 A 0.562333,0.546964 -180 0 0 9.72768,115.02305 L 0.56,115.02 a 0.562333,0.546964 -180 0 0 -0.56232,0.54695 z"
   class="st5"
   id="path58"
   inkscape:connector-curvature="0"
   style="fill:#ff9300;fill-opacity:0.75;stroke:none;stroke-width:34;stroke-linecap:butt" />
				</g>
			</g>
		</g>
	</g>
</svg>