<?xml version="1.0" encoding="UTF-8" standalone="no"?>
<!DOCTYPE svg PUBLIC "-//W3C//DTD SVG 1.1//EN" "http://www.w3.org/Graphics/SVG/1.1/DTD/svg11.dtd">
<!-- Generated by Microsoft Visio, SVG Export Event Grid Domain.svg Page-1 -->
<svg xmlns="http://www.w3.org/2000/svg" xmlns:xlink="http://www.w3.org/1999/xlink" xmlns:ev="http://www.w3.org/2001/xml-events"
		width="1.73192in" height="1.65332in" viewBox="0 0 124.698 119.039" xml:space="preserve" color-interpolation-filters="sRGB"
		class="st5">
	<style type="text/css">
	<![CDATA[
		.st1 {fill:#949494;stroke:none;stroke-linecap:butt;stroke-width:34}
		.st2 {fill:url(#grad0-8);stroke:none;stroke-linecap:butt;stroke-width:34}
		.st3 {fill:#999999;stroke:none;stroke-linecap:butt;stroke-width:34}
		.st4 {fill:#999999;fill-opacity:0.5;stroke:none;stroke-linecap:butt;stroke-width:34}
		.st5 {fill:none;fill-rule:evenodd;font-size:12px;overflow:visible;stroke-linecap:square;stroke-miterlimit:3}
	]]>
	</style>

	<defs id="Patterns_And_Gradients">
		<linearGradient id="grad0-8" x1="0" y1="0" x2="1" y2="0" gradientTransform="rotate(-88.484441664842 0.5 0.5)">
			<stop offset="0" stop-color="#198ab3" stop-opacity="1"/>
			<stop offset="0" stop-color="#198ab3" stop-opacity="1"/>
			<stop offset="0.11" stop-color="#22a5cb" stop-opacity="1"/>
			<stop offset="0.23" stop-color="#29bade" stop-opacity="1"/>
			<stop offset="0.37" stop-color="#2ec9eb" stop-opacity="1"/>
			<stop offset="0.53" stop-color="#31d1f3" stop-opacity="1"/>
			<stop offset="0.78" stop-color="#32d4f5" stop-opacity="1"/>
		</linearGradient>
	</defs>
	<g>
		<title>Page-1</title>
		<g id="group5227-1" transform="translate(34.0052,-34.0157)">
			<title>Event Grid Domain</title>
			<g id="group5228-2">
				<title>Icon-iot-183</title>
				<g id="shape5229-3" transform="translate(8.87077,-16.3451)">
					<title>Sheet.5229</title>
					<path d="M36.02 107.38 L13.21 107.38 L19.64 100.84 L30.41 100.84 L30.41 98.31 L18.61 98.31 L9.67 107.38 L0 107.38
								 L0 109.91 L1.73 109.91 L10.7 119.04 L24.08 119.04 L24.08 116.51 L11.74 116.51 L5.24 109.91 L36.02
								 109.91 L36.02 107.38 Z" class="st1"/>
				</g>
				<g id="shape5230-5" transform="translate(30.1473,-14.5397)">
					<title>Sheet.5230</title>
					<path d="M5.17 93.44 A4.30199 4.34746 0 1 1 0.87 97.75 A4.26864 4.31375 0 0 1 5.17 93.44 ZM9.07 106.92 A4.30199
								 4.34746 -180 1 0 13.37 102.61 A4.30199 4.34746 -180 0 0 9.07 106.85 L9.07 106.92 ZM0 115.92 A4.30199
								 4.34746 -180 1 0 4.3 111.61 A4.26864 4.31375 -180 0 0 -0 115.92 Z" class="st2"/>
				</g>
				<g id="group5231-9" transform="translate(5.64548E-14,-38.015)">
					<title>Sheet.5231</title>
					<g id="shape5232-10">
						<title>Sheet.5232</title>
						<path d="M1.9 106.03 L6.2 106.03 L6.2 118.06 a0.967114 0.977335 0 0 1 -0.967114 0.977335 L0.97 119.04 a0.967114
									 0.977335 0 0 1 -0.967114 -0.977335 L0 107.95 A1.90088 1.92097 0 0 1 1.9 106.03 Z" class="st3"/>
					</g>
					<g id="shape5233-12">
						<title>Sheet.5233</title>
						<path d="M1.9 106.03 L6.2 106.03 L6.2 118.06 a0.967114 0.977335 0 0 1 -0.967114 0.977335 L0.97 119.04 a0.967114
									 0.977335 0 0 1 -0.967114 -0.977335 L0 107.95 A1.90088 1.92097 0 0 1 1.9 106.03 Z" class="st4"/>
					</g>
				</g>
				<g id="group5234-14" transform="translate(50.49,-38.015)">
					<title>Sheet.5234</title>
					<g id="shape5235-15">
						<title>Sheet.5235</title>
						<path d="M0 106.03 L4.3 106.03 A1.90088 1.92097 0 0 1 6.2 107.95 L6.2 118.06 a0.967114 0.977335 0 0 1 -0.967114
									 0.977335 L0.93 119.04 a0.967114 0.977335 0 0 1 -0.933766 -0.977335 L0 106.03 Z" class="st3"/>
					</g>
					<g id="shape5236-17">
						<title>Sheet.5236</title>
						<path d="M0 106.03 L4.3 106.03 A1.90088 1.92097 0 0 1 6.2 107.95 L6.2 118.06 a0.967114 0.977335 0 0 1 -0.967114
									 0.977335 L0.93 119.04 a0.967114 0.977335 0 0 1 -0.933766 -0.977335 L0 106.03 Z" class="st4"/>
					</g>
				</g>
				<g id="shape5237-19" transform="translate(0,-44.89)">
					<title>Sheet.5237</title>
					<path d="M56.69 114.83 L56.69 119.04 L0 119.04 L0 114.83 A1.90088 1.92097 0 0 1 1.9 112.91 L54.83 112.91 A1.90088
								 1.92097 0 0 1 56.69 114.83 Z" class="st1"/>
				</g>
				<g id="group5238-21">
					<title>Sheet.5238</title>
					<g id="shape5239-22">
						<title>Sheet.5239</title>
						<path d="M0.97 105.93 L5.27 105.93 a0.967114 0.977335 0 0 1 0.967114 0.977335 L6.24 119.04 L1.9 119.04 A1.90088
									 1.92097 0 0 1 0 117.12 L0 107.01 a0.967114 0.977335 0 0 1 0.967114 -1.07844 Z" class="st3"/>
					</g>
					<g id="shape5240-24">
						<title>Sheet.5240</title>
						<path d="M0.97 105.93 L5.27 105.93 a0.967114 0.977335 0 0 1 0.967114 0.977335 L6.24 119.04 L1.9 119.04 A1.90088
									 1.92097 0 0 1 0 117.12 L0 107.01 a0.967114 0.977335 0 0 1 0.967114 -1.07844 Z" class="st4"/>
					</g>
				</g>
				<g id="group5241-26" transform="translate(50.49,-0.101104)">
					<title>Sheet.5241</title>
					<g id="shape5242-27">
						<title>Sheet.5242</title>
						<path d="M0.93 106.03 L5.24 106.03 a0.967114 0.977335 0 0 1 0.967114 0.977335 L6.2 117.12 A1.90088 1.92097
									 0 0 1 4.3 119.04 L0 119.04 L0 107.11 a0.967114 0.977335 0 0 1 0.933766 -1.07844 Z" class="st3"/>
					</g>
					<g id="shape5243-29">
						<title>Sheet.5243</title>
						<path d="M0.93 106.03 L5.24 106.03 a0.967114 0.977335 0 0 1 0.967114 0.977335 L6.2 117.12 A1.90088 1.92097
									 0 0 1 4.3 119.04 L0 119.04 L0 107.11 a0.967114 0.977335 0 0 1 0.933766 -1.07844 Z" class="st4"/>
					</g>
				</g>
				<g id="shape5244-31">
					<title>Sheet.5244</title>
					<path d="M0 117.12 L0 112.91 L56.69 112.91 L56.69 117.12 A1.90088 1.92097 0 0 1 54.79 119.04 L1.9 119.04 A1.90088
								 1.92097 0 0 1 0 117.12 Z" class="st1"/>
				</g>
			</g>
		</g>
	</g>
</svg>
