<?xml version="1.0" encoding="UTF-8" standalone="no"?>
<!DOCTYPE svg PUBLIC "-//W3C//DTD SVG 1.1//EN" "http://www.w3.org/Graphics/SVG/1.1/DTD/svg11.dtd">
<!-- Generated by Microsoft Visio, SVG Export Event Grid Topic.svg Page-1 -->
<svg xmlns="http://www.w3.org/2000/svg" xmlns:xlink="http://www.w3.org/1999/xlink" xmlns:ev="http://www.w3.org/2001/xml-events"
		width="1.73188in" height="1.65332in" viewBox="0 0 124.695 119.039" xml:space="preserve" color-interpolation-filters="sRGB"
		class="st6">
	<style type="text/css">
	<![CDATA[
		.st1 {fill:#a3a3a3;stroke:none;stroke-linecap:butt;stroke-width:34}
		.st2 {fill:#a3a3a3;fill-opacity:0.5;stroke:none;stroke-linecap:butt;stroke-width:34}
		.st3 {fill:#949494;stroke:none;stroke-linecap:butt;stroke-width:34}
		.st4 {fill:#5ea0ef;stroke:none;stroke-linecap:butt;stroke-width:34}
		.st5 {fill:url(#grad0-32);stroke:none;stroke-linecap:butt;stroke-width:34}
		.st6 {fill:none;fill-rule:evenodd;font-size:12px;overflow:visible;stroke-linecap:square;stroke-miterlimit:3}
	]]>
	</style>

	<defs id="Patterns_And_Gradients">
		<linearGradient id="grad0-32" x1="0" y1="0" x2="1" y2="0" gradientTransform="rotate(-90 0.5 0.5)">
			<stop offset="0" stop-color="#5e9624" stop-opacity="1"/>
			<stop offset="0.01" stop-color="#5e9724" stop-opacity="1"/>
			<stop offset="0.35" stop-color="#6cab29" stop-opacity="1"/>
			<stop offset="0.68" stop-color="#73b82c" stop-opacity="1"/>
			<stop offset="1" stop-color="#76bc2d" stop-opacity="1"/>
		</linearGradient>
	</defs>
	<g>
		<title>Page-1</title>
		<g id="group2770-1" transform="translate(34.0023,-34.0157)">
			<title>Event Grid Topic</title>
			<g id="group2771-2">
				<title>Icon-integration-206</title>
				<g id="group2772-3" transform="translate(-5.79536E-14,-37.982)">
					<title>Sheet.2772</title>
					<g id="shape2773-4">
						<title>Sheet.2773</title>
						<path d="M1.93 106.03 L6.22 106.03 L6.22 118.06 a0.964844 0.97476 0 0 1 -0.964844 0.97476 L0.96 119.04 a0.964844
									 0.97476 0 0 1 -0.964844 -0.97476 L0 107.98 A1.89642 1.91591 0 0 1 1.93 106.03 Z" class="st1"/>
					</g>
					<g id="shape2774-6">
						<title>Sheet.2774</title>
						<path d="M1.93 106.03 L6.22 106.03 L6.22 118.06 a0.964844 0.97476 0 0 1 -0.964844 0.97476 L0.96 119.04 a0.964844
									 0.97476 0 0 1 -0.964844 -0.97476 L0 107.98 A1.89642 1.91591 0 0 1 1.93 106.03 Z" class="st2"/>
					</g>
				</g>
				<g id="group2775-8" transform="translate(50.4713,-37.982)">
					<title>Sheet.2775</title>
					<g id="shape2776-9">
						<title>Sheet.2776</title>
						<path d="M0 106.03 L4.29 106.03 A1.89642 1.91591 0 0 1 6.19 107.95 L6.19 118.06 a0.964844 0.97476 0 0 1 -0.964844
									 0.97476 L0.96 119.04 a0.964844 0.97476 0 0 1 -0.964844 -0.97476 L0 106.03 Z" class="st1"/>
					</g>
					<g id="shape2777-11">
						<title>Sheet.2777</title>
						<path d="M0 106.03 L4.29 106.03 A1.89642 1.91591 0 0 1 6.19 107.95 L6.19 118.06 a0.964844 0.97476 0 0 1 -0.964844
									 0.97476 L0.96 119.04 a0.964844 0.97476 0 0 1 -0.964844 -0.97476 L0 106.03 Z" class="st2"/>
					</g>
				</g>
				<g id="shape2778-13" transform="translate(0.0998115,-44.9062)">
					<title>Sheet.2778</title>
					<path d="M56.56 114.84 L56.56 119.04 L0 119.04 L0 114.84 A1.89642 1.91591 0 0 1 1.9 112.92 L54.66 112.92 A1.89642
								 1.91591 0 0 1 56.56 114.84 Z" class="st3"/>
				</g>
				<g id="group2779-15">
					<title>Sheet.2779</title>
					<g id="shape2780-16">
						<title>Sheet.2780</title>
						<path d="M0.96 105.93 L5.26 105.93 a0.964844 0.97476 0 0 1 0.964844 0.97476 L6.22 119.04 L1.93 119.04 A1.89642
									 1.91591 0 0 1 -0 117.06 L0 106.97 a0.964844 0.97476 0 0 1 0.964844 -1.04198 Z" class="st1"/>
					</g>
					<g id="shape2781-18">
						<title>Sheet.2781</title>
						<path d="M0.96 105.93 L5.26 105.93 a0.964844 0.97476 0 0 1 0.964844 0.97476 L6.22 119.04 L1.93 119.04 A1.89642
									 1.91591 0 0 1 -0 117.06 L0 106.97 a0.964844 0.97476 0 0 1 0.964844 -1.04198 Z" class="st2"/>
					</g>
				</g>
				<g id="group2782-20" transform="translate(50.4713,-0.13445)">
					<title>Sheet.2782</title>
					<g id="shape2783-21">
						<title>Sheet.2783</title>
						<path d="M0.96 106.06 L5.26 106.06 a0.964844 0.97476 0 0 1 0.964844 0.97476 L6.22 117.12 A1.89642 1.91591
									 0 0 1 4.33 119.04 L0 119.04 L0 107.11 a0.964844 0.97476 0 0 1 0.964844 -1.04198 Z" class="st1"/>
					</g>
					<g id="shape2784-23">
						<title>Sheet.2784</title>
						<path d="M0.96 106.06 L5.26 106.06 a0.964844 0.97476 0 0 1 0.964844 0.97476 L6.22 117.12 A1.89642 1.91591
									 0 0 1 4.33 119.04 L0 119.04 L0 107.11 a0.964844 0.97476 0 0 1 0.964844 -1.04198 Z" class="st2"/>
					</g>
				</g>
				<g id="shape2785-25">
					<title>Sheet.2785</title>
					<path d="M0 117.12 L0 112.92 L56.56 112.92 L56.56 117.12 A1.89642 1.91591 0 0 1 54.66 119.04 L1.9 119.04 A1.89642
								 1.91591 0 0 1 0 117.12 Z" class="st3"/>
				</g>
				<g id="shape2786-27" transform="translate(16.8856,-18.9648)">
					<title>Sheet.2786</title>
					<path d="M31.12 111.95 L25.07 105.77 a0.299434 0.302512 -180 0 0 -0.532328 0.235287 L24.54 109.8 a0.299434 0.302512
								 0 0 1 -0.332705 0.336124 L6.77 110.14 A3.4934 3.5293 -180 0 0 4.01 108.76 A3.65975 3.69736 -180
								 1 0 4.01 116.12 A3.59321 3.63014 -180 0 0 6.8 114.71 L24.2 114.71 a0.299434 0.302512 0 0 1 0.332705
								 0.302512 L24.54 118.74 a0.299434 0.302512 -180 0 0 0.532328 0.201674 L31.12 112.86 a0.66541 0.672248
								 -180 0 0 -2.13163E-14 -0.907535 Z" class="st4"/>
				</g>
				<g id="shape2787-29" transform="translate(12.863,-29.8889)">
					<title>Sheet.2787</title>
					<path d="M23.97 111.95 L17.91 105.87 a0.299434 0.302512 -180 0 0 -0.532328 0.235287 L17.38 109.97 a0.299434 0.302512
								 0 0 1 -0.299434 0.336124 L6.17 110.31 A3.55994 3.59653 -180 0 0 3.37 108.93 A3.65975 3.69736 -180
								 1 0 6.2 114.88 L17.08 114.88 a0.299434 0.302512 0 0 1 0.299434 0.302512 L17.38 118.74 a0.299434
								 0.302512 -180 0 0 0.532328 0.201674 L23.97 112.86 a0.66541 0.672248 -180 0 0 -1.77636E-14 -0.907535
								 Z" class="st5"/>
				</g>
				<g id="shape2788-33" transform="translate(12.9316,-7.73829)">
					<title>Sheet.2788</title>
					<path d="M23.9 111.85 L17.84 105.77 a0.299434 0.302512 -180 0 0 -0.532328 0.235287 L17.31 109.7 a0.332705 0.336124
								 0 0 1 -0.299434 0.336124 L6.1 110.04 A3.55994 3.59653 -180 0 0 3.3 108.66 A3.65975 3.69736 -180
								 1 0 6.13 114.71 L17.01 114.71 a0.299434 0.302512 0 0 1 0.299434 0.302512 L17.31 118.74 a0.299434
								 0.302512 -180 0 0 0.532328 0.201674 L23.9 112.86 a0.66541 0.672248 -180 0 0 -1.42109E-14 -1.00837
								 Z" class="st5"/>
				</g>
			</g>
		</g>
	</g>
</svg>
