<?xml version="1.0" encoding="UTF-8" standalone="no"?>
<!-- Generated by Microsoft Visio, SVG Export Exchange Hub Transport Server.svg Page-1 -->

<svg
   xmlns:dc="http://purl.org/dc/elements/1.1/"
   xmlns:cc="http://creativecommons.org/ns#"
   xmlns:rdf="http://www.w3.org/1999/02/22-rdf-syntax-ns#"
   xmlns:svg="http://www.w3.org/2000/svg"
   xmlns="http://www.w3.org/2000/svg"
   xmlns:sodipodi="http://sodipodi.sourceforge.net/DTD/sodipodi-0.dtd"
   xmlns:inkscape="http://www.inkscape.org/namespaces/inkscape"
   width="0.66933262in"
   height="0.78742713in"
   viewBox="0 0 48.191983 56.694902"
   xml:space="preserve"
   class="st24"
   version="1.1"
   id="svg323"
   sodipodi:docname="Exchange Hub Transport Server.svg"
   style="font-size:12px;overflow:visible;color-interpolation-filters:sRGB;fill:none;fill-rule:evenodd;stroke-linecap:square;stroke-miterlimit:3"
   inkscape:version="0.92.5 (2060ec1f9f, 2020-04-08)"><metadata
   id="metadata327"><rdf:RDF><cc:Work
       rdf:about=""><dc:format>image/svg+xml</dc:format><dc:type
         rdf:resource="http://purl.org/dc/dcmitype/StillImage" /></cc:Work></rdf:RDF></metadata><sodipodi:namedview
   pagecolor="#ffffff"
   bordercolor="#666666"
   borderopacity="1"
   objecttolerance="10"
   gridtolerance="10"
   guidetolerance="10"
   inkscape:pageopacity="0"
   inkscape:pageshadow="2"
   inkscape:window-width="640"
   inkscape:window-height="480"
   id="namedview325"
   showgrid="false"
   inkscape:zoom="1.1760672"
   inkscape:cx="42.203655"
   inkscape:cy="20.80368"
   inkscape:window-x="0"
   inkscape:window-y="0"
   inkscape:window-maximized="0"
   inkscape:current-layer="svg323" />
	<style
   type="text/css"
   id="style2">
	<![CDATA[
		.st1 {fill:url(#grad0-11);stroke:none;stroke-linecap:butt;stroke-width:35.9597}
		.st2 {fill:#003067;stroke:none;stroke-linecap:butt;stroke-width:35.9597}
		.st3 {fill:#50e6ff;stroke:none;stroke-linecap:butt;stroke-width:35.9597}
		.st4 {fill:#50e6ff;stroke:none;stroke-linecap:butt;stroke-width:63.4472}
		.st5 {fill:#32bedd;stroke:none;stroke-linecap:butt;stroke-width:63.4472}
		.st6 {fill:#198ab3;stroke:none;stroke-linecap:butt;stroke-width:63.4472}
		.st7 {fill:url(#grad0-43);stroke:none;stroke-linecap:butt;stroke-width:63.4472}
		.st8 {fill:#28a8ea;stroke:none;stroke-linecap:butt;stroke-width:16.1053}
		.st9 {fill:#0078d4;stroke:none;stroke-linecap:butt;stroke-width:16.1053}
		.st10 {fill:#50d9ff;stroke:none;stroke-linecap:butt;stroke-width:16.1053}
		.st11 {fill:#2086bb;stroke:none;stroke-linecap:butt;stroke-width:16.1053}
		.st12 {fill:#2497d2;stroke:none;stroke-linecap:butt;stroke-width:16.1053}
		.st13 {fill:#48c3e5;stroke:none;stroke-linecap:butt;stroke-width:16.1053}
		.st14 {fill:#1d78a8;stroke:none;stroke-linecap:butt;stroke-width:16.1053}
		.st15 {fill:#1d79a8;stroke:none;stroke-linecap:butt;stroke-width:16.1053}
		.st16 {fill:#176086;stroke:none;stroke-linecap:butt;stroke-width:16.1053}
		.st17 {fill:#2e7d92;stroke:none;stroke-linecap:butt;stroke-width:16.1053}
		.st18 {fill:#41afce;stroke:none;stroke-linecap:butt;stroke-width:16.1053}
		.st19 {fill:#838383;stroke:none;stroke-linecap:butt;stroke-width:16.1053}
		.st20 {fill:#155678;stroke:none;stroke-width:0.999999}
		.st21 {fill:none;stroke:none;stroke-linecap:butt;stroke-width:16.1053}
		.st22 {fill:#297083;stroke:none;stroke-linecap:butt;stroke-width:16.1053}
		.st23 {fill:#ffffff;stroke:none;stroke-linecap:butt;stroke-width:16.1053}
		.st24 {fill:none;fill-rule:evenodd;font-size:12px;overflow:visible;stroke-linecap:square;stroke-miterlimit:3}
	]]>
	</style>

	<defs
   id="Patterns_And_Gradients">
		<linearGradient
   id="grad0-11"
   x1="-0.00016268133"
   y1="72.829871"
   x2="41.812079"
   y2="72.829871"
   gradientTransform="scale(0.76174161,1.3127811)"
   gradientUnits="userSpaceOnUse">
			<stop
   offset="0"
   stop-color="#949494"
   stop-opacity="1"
   id="stop4" />
			<stop
   offset="0.53"
   stop-color="#a2a2a2"
   stop-opacity="1"
   id="stop6" />
			<stop
   offset="1"
   stop-color="#b3b3b3"
   stop-opacity="1"
   id="stop8" />
		</linearGradient>
		<linearGradient
   id="grad0-43"
   x1="0"
   y1="243.14507"
   x2="18.310582"
   y2="243.14507"
   gradientTransform="scale(1.7372468,0.57562344)"
   gradientUnits="userSpaceOnUse">
			<stop
   offset="0"
   stop-color="#005ba1"
   stop-opacity="1"
   id="stop11" />
			<stop
   offset="0.26"
   stop-color="#00589d"
   stop-opacity="1"
   id="stop13" />
			<stop
   offset="0.53"
   stop-color="#004f90"
   stop-opacity="1"
   id="stop15" />
			<stop
   offset="0.8"
   stop-color="#003f7c"
   stop-opacity="1"
   id="stop17" />
			<stop
   offset="1"
   stop-color="#003067"
   stop-opacity="1"
   id="stop19" />
		</linearGradient>
	</defs>
	<g
   id="g321"
   transform="translate(-47.719828,-34.1589)">
		<title
   id="title23">Page-1</title>
		<g
   id="group5293-1"
   transform="translate(47.7198,-59.6462)">
			<title
   id="title25">Exchange Hub Transport Server</title>
			<g
   id="group5294-2">
				<title
   id="title27">Page-1</title>
				<g
   id="group5295-3">
					<title
   id="title29">Sheet.5295</title>
					<g
   id="group5296-4">
						<title
   id="title31">Sheet.5296</title>
						<g
   id="group5297-5">
							<title
   id="title33">Icon-databases-136.149</title>
							<g
   id="group5298-6">
								<title
   id="title35">path4-5</title>
								<g
   id="group5299-7">
									<title
   id="title37">Sheet.5299</title>
									<g
   id="shape5300-8">
										<title
   id="title39">Sheet.5300</title>
										<path
   d="m 31.85,148.64 a 1.90452,1.88109 90 0 1 -1.84,1.86 H 1.85 A 1.87168,1.84866 90 0 1 0,148.64 V 97.47 a 1.83884,1.81623 90 0 1 1.85,-1.86 h 28.16 a 1.87168,1.84866 90 0 1 1.84,1.86 z"
   class="st1"
   id="path41"
   inkscape:connector-curvature="0"
   style="fill:url(#grad0-11);stroke:none;stroke-width:35.95970154;stroke-linecap:butt" />
									</g>
								</g>
							</g>
							<g
   id="group5301-12"
   transform="translate(4.6703,-32.1468)">
								<title
   id="title46">path6-7</title>
								<g
   id="group5302-13">
									<title
   id="title48">Sheet.5302</title>
									<g
   id="shape5303-14">
										<title
   id="title50">Sheet.5303</title>
										<path
   d="m 0,147 a 3.5135,3.47029 90 0 1 3.44,-3.49 h 15.89 a 3.5135,3.47029 90 0 1 3.56,3.49 3.5135,3.47029 90 0 1 -3.56,3.5 H 3.44 A 3.5135,3.47029 90 0 1 0,147 Z m 0,-10.38 a 3.5135,3.47029 90 0 1 3.44,-3.51 h 15.89 a 3.5135,3.47029 90 0 1 3.56,3.51 3.5135,3.47029 90 0 1 -3.56,3.48 H 3.44 A 3.5135,3.47029 90 0 1 0,136.62 Z"
   class="st2"
   id="path52"
   inkscape:connector-curvature="0"
   style="fill:#003067;stroke:none;stroke-width:35.95970154;stroke-linecap:butt" />
									</g>
								</g>
							</g>
							<g
   id="group5304-16"
   transform="translate(5.9676,-43.666)">
								<title
   id="title57">circle8-5</title>
								<g
   id="group5305-17">
									<title
   id="title59">Sheet.5305</title>
									<g
   id="shape5306-18">
										<title
   id="title61">Sheet.5306</title>
										<ellipse
   cx="2.33514"
   cy="148.138"
   rx="2.33514"
   ry="2.3642299"
   class="st3"
   id="ellipse63"
   style="fill:#50e6ff;stroke:none;stroke-width:35.95970154;stroke-linecap:butt" />
									</g>
								</g>
							</g>
							<g
   id="group5307-20"
   transform="translate(5.9676,-33.2897)">
								<title
   id="title68">circle10-2</title>
								<g
   id="group5308-21">
									<title
   id="title70">Sheet.5308</title>
									<g
   id="shape5309-22">
										<title
   id="title72">Sheet.5309</title>
										<ellipse
   cx="2.33514"
   cy="148.138"
   rx="2.33514"
   ry="2.3642299"
   class="st3"
   id="ellipse74"
   style="fill:#50e6ff;stroke:none;stroke-width:35.95970154;stroke-linecap:butt" />
									</g>
								</g>
							</g>
						</g>
					</g>
					<g
   id="group5310-24"
   transform="translate(15.7275,-3.80109)">
						<title
   id="title81">Data Share Invitation.1683</title>
						<g
   id="group5311-25">
							<title
   id="title83">Icon-integration-214</title>
							<g
   id="group5312-26">
								<title
   id="title85">path4</title>
								<g
   id="group5313-27">
									<title
   id="title87">Sheet.5313</title>
									<g
   id="shape5314-28">
										<title
   id="title89">Sheet.5314</title>
										<path
   d="m 31.85,129.4 h -0.04 v -0.08 H 31.74 L 15.23,129.41 0.07,129.32 H 0 v 21.18 h 31.81 v -21.1 z"
   class="st4"
   id="path91"
   inkscape:connector-curvature="0"
   style="fill:#50e6ff;stroke:none;stroke-width:63.44720078;stroke-linecap:butt" />
									</g>
								</g>
							</g>
							<g
   id="group5315-30">
								<title
   id="title96">path6</title>
								<g
   id="group5316-31">
									<title
   id="title98">Sheet.5316</title>
									<g
   id="shape5317-32">
										<title
   id="title100">Sheet.5317</title>
										<path
   d="m 0,129.4 v 21.1 l 15.93,-10.54 z"
   class="st5"
   id="path102"
   inkscape:connector-curvature="0"
   style="fill:#32bedd;stroke:none;stroke-width:63.44720078;stroke-linecap:butt" />
									</g>
								</g>
							</g>
							<g
   id="group5318-34"
   transform="translate(15.9235)">
								<title
   id="title107">path8</title>
								<g
   id="group5319-35">
									<title
   id="title109">Sheet.5319</title>
									<g
   id="shape5320-36">
										<title
   id="title111">Sheet.5320</title>
										<path
   d="M 15.89,129.4 0,139.96 15.89,150.5 Z"
   class="st6"
   id="path113"
   inkscape:connector-curvature="0"
   style="fill:#198ab3;stroke:none;stroke-width:63.44720078;stroke-linecap:butt" />
									</g>
								</g>
							</g>
							<g
   id="group5321-38"
   transform="translate(0,-1.95001e-6)">
								<title
   id="title118">path10</title>
								<g
   id="group5322-39">
									<title
   id="title120">Sheet.5322</title>
									<g
   id="shape5323-40">
										<title
   id="title122">Sheet.5323</title>
										<path
   d="M 15.89,139.96 0,150.47 v 0.03 h 31.81 v -0.03 z"
   class="st7"
   id="path124"
   inkscape:connector-curvature="0"
   style="fill:url(#grad0-43);stroke:none;stroke-width:63.44720078;stroke-linecap:butt" />
									</g>
								</g>
							</g>
						</g>
					</g>
					<g
   id="group5324-44"
   transform="translate(23.2009,-34.6049)">
						<title
   id="title131">Sheet.5324</title>
						<g
   id="group5325-45"
   transform="translate(3.18105)">
							<title
   id="title133">Sheet.5325</title>
							<g
   id="group5326-46">
								<title
   id="title135">Sheet.5326</title>
								<g
   id="shape5327-47">
									<title
   id="title137">Sheet.5327</title>
									<path
   d="m 20.21,128.41 h -5.53 c -0.43,0 -0.84,0.18 -1.13,0.48 L 0.46,142.14 C 0.17,142.45 0,142.85 0,143.29 v 5.6 c 0,0.9 0.71,1.61 1.59,1.61 h 5.54 c 0.42,0 0.83,-0.15 1.13,-0.46 l 13.09,-13.27 c 0.29,-0.3 0.46,-0.7 0.46,-1.13 v -5.62 c 0,-0.89 -0.71,-1.61 -1.6,-1.61 z"
   class="st8"
   id="path139"
   inkscape:connector-curvature="0"
   style="fill:#28a8ea;stroke:none;stroke-width:16.1053009;stroke-linecap:butt" />
								</g>
							</g>
						</g>
						<g
   id="group5328-49"
   transform="translate(14.079)">
							<title
   id="title144">Sheet.5328</title>
							<g
   id="group5329-50">
								<title
   id="title146">Sheet.5329</title>
								<g
   id="shape5330-51">
									<title
   id="title148">Sheet.5330</title>
									<path
   d="M 9.32,150.5 H 3.77 c -0.43,0 -0.82,-0.15 -1.13,-0.46 L 0,147.35 v -5.02 c 0,-1.58 1.27,-2.87 2.84,-2.87 h 4.94 l 2.67,2.68 c 0.29,0.31 0.46,0.71 0.46,1.15 v 5.6 c 0,0.9 -0.72,1.61 -1.59,1.61 z"
   class="st9"
   id="path150"
   inkscape:connector-curvature="0"
   style="fill:#0078d4;stroke:none;stroke-width:16.1053009;stroke-linecap:butt" />
								</g>
							</g>
						</g>
						<g
   id="group5331-53"
   transform="translate(3.18105,-11.0448)">
							<title
   id="title155">Sheet.5331</title>
							<g
   id="group5332-54">
								<title
   id="title157">Sheet.5332</title>
								<g
   id="shape5333-55">
									<title
   id="title159">Sheet.5333</title>
									<path
   d="m 1.59,139.46 h 5.54 c 0.42,0 0.83,0.17 1.13,0.47 l 2.65,2.69 v 5.02 c 0,1.58 -1.27,2.86 -2.85,2.86 H 3.12 L 0.46,147.83 C 0.17,147.53 0,147.12 0,146.69 v -5.63 c 0,-0.89 0.71,-1.6 1.59,-1.6 z"
   class="st10"
   id="path161"
   inkscape:connector-curvature="0"
   style="fill:#50d9ff;stroke:none;stroke-width:16.1053009;stroke-linecap:butt" />
								</g>
							</g>
						</g>
						<g
   id="group5334-57"
   transform="translate(3.18105,-3.22392)">
							<title
   id="title166">Sheet.5334</title>
							<g
   id="group5335-58">
								<title
   id="title168">Sheet.5335</title>
								<g
   id="shape5336-59">
									<title
   id="title170">Sheet.5336</title>
									<path
   d="m 0,146.51 v 3.99 h 8.94 c 0,0 0,0 0,0 0.52,0 0.95,-0.37 1.04,-0.87 -0.27,0.26 -0.65,0.41 -1.04,0.43 H 0 Z"
   class="st11"
   id="path172"
   inkscape:connector-curvature="0"
   style="fill:#2086bb;stroke:none;stroke-width:16.1053009;stroke-linecap:butt" />
								</g>
							</g>
						</g>
						<g
   id="group5337-61"
   transform="translate(13.1559,-4.11907)">
							<title
   id="title177">Sheet.5337</title>
							<g
   id="group5338-62">
								<title
   id="title179">Sheet.5338</title>
								<g
   id="shape5339-63">
									<title
   id="title181">Sheet.5339</title>
									<path
   d="m 0.47,142.27 c -0.12,0.2 -0.28,0.38 -0.44,0.54 v 6.6 c 0,0 0,0 0,0 v 0.92 c 0,0.07 -0.02,0.12 -0.03,0.17 0,0 0,0 0,0 0.29,-0.27 0.47,-0.66 0.47,-1.09 z"
   class="st12"
   id="path183"
   inkscape:connector-curvature="0"
   style="fill:#2497d2;stroke:none;stroke-width:16.1053009;stroke-linecap:butt" />
								</g>
							</g>
						</g>
						<g
   id="group5340-65"
   transform="translate(3.18105,-11.812)">
							<title
   id="title188">Sheet.5340</title>
							<g
   id="group5341-66">
								<title
   id="title190">Sheet.5341</title>
								<g
   id="shape5342-67">
									<title
   id="title192">Sheet.5342</title>
									<path
   d="M 8.94,144.37 H 0 v 0.45 h 8.49 c 0,0 0,0 0,0 0,0 0,0 0,0 h 0.45 c 0,0 0,0 0,0 0.57,0 1.05,0.48 1.05,1.07 v 0.01 4.6 c 0.17,-0.14 0.32,-0.34 0.46,-0.53 v -4.07 c 0,-0.85 -0.69,-1.53 -1.51,-1.53 z"
   class="st13"
   id="path194"
   inkscape:connector-curvature="0"
   style="fill:#48c3e5;stroke:none;stroke-width:16.1053009;stroke-linecap:butt" />
								</g>
							</g>
						</g>
						<g
   id="group5343-69"
   transform="translate(3.18105,-3.68832)">
							<title
   id="title199">Sheet.5343</title>
							<g
   id="group5344-70">
								<title
   id="title201">Sheet.5344</title>
								<g
   id="shape5345-71">
									<title
   id="title203">Sheet.5345</title>
									<path
   d="m 0,146.98 v 3.52 h 8.94 c 0.39,0 0.77,-0.15 1.04,-0.42 0,0 0,0 0,0 0.01,-0.06 0.02,-0.11 0.02,-0.18 v -0.92 c 0,0.58 -0.48,1.06 -1.06,1.08 H 0 Z"
   class="st14"
   id="path205"
   inkscape:connector-curvature="0"
   style="fill:#1d78a8;stroke:none;stroke-width:16.1053009;stroke-linecap:butt" />
								</g>
							</g>
						</g>
						<g
   id="group5346-73"
   transform="translate(13.1758,-5.21614)">
							<title
   id="title210">Sheet.5346</title>
							<g
   id="group5347-74">
								<title
   id="title212">Sheet.5347</title>
								<g
   id="shape5348-75">
									<title
   id="title214">Sheet.5348</title>
									<path
   d="m 0,143.91 v 6.59 z"
   class="st15"
   id="path216"
   inkscape:connector-curvature="0"
   style="fill:#1d79a8;stroke:none;stroke-width:16.1053009;stroke-linecap:butt" />
								</g>
							</g>
						</g>
						<g
   id="group5349-77"
   transform="translate(3.18105,-4.14599)">
							<title
   id="title221">Sheet.5349</title>
							<g
   id="group5350-78">
								<title
   id="title223">Sheet.5350</title>
								<g
   id="shape5351-79">
									<title
   id="title225">Sheet.5351</title>
									<path
   d="m 10,142.83 c -0.15,0.13 -0.29,0.25 -0.47,0.36 v 6.25 c 0,0.59 -0.47,1.06 -1.04,1.06 H 0 v -3.08 3.08 h 8.94 c 0.58,0 1.06,-0.47 1.06,-1.06 z"
   class="st16"
   id="path227"
   inkscape:connector-curvature="0"
   style="fill:#176086;stroke:none;stroke-width:16.1053009;stroke-linecap:butt" />
								</g>
							</g>
						</g>
						<g
   id="group5352-81"
   transform="translate(11.6617,-11.4687)">
							<title
   id="title232">Sheet.5352</title>
							<g
   id="group5353-82">
								<title
   id="title234">Sheet.5353</title>
								<g
   id="shape5354-83">
									<title
   id="title236">Sheet.5354</title>
									<path
   d="m 0.45,144.48 c 0,0 0,0 0,0 H 0 c 0.58,0 1.05,0.48 1.05,1.07 v 4.95 c 0.17,-0.1 0.31,-0.21 0.46,-0.34 v -4.61 c 0,-0.59 -0.47,-1.07 -1.06,-1.07 z"
   class="st17"
   id="path238"
   inkscape:connector-curvature="0"
   style="fill:#2e7d92;stroke:none;stroke-width:16.1053009;stroke-linecap:butt" />
								</g>
							</g>
						</g>
						<g
   id="group5355-85"
   transform="translate(3.18105,-17.4993)">
							<title
   id="title243">Sheet.5355</title>
							<g
   id="group5356-86">
								<title
   id="title245">Sheet.5356</title>
								<g
   id="shape5357-87">
									<title
   id="title247">Sheet.5357</title>
									<path
   d="M 8.49,150.5 H 0 Z"
   class="st18"
   id="path249"
   inkscape:connector-curvature="0"
   style="fill:#41afce;stroke:none;stroke-width:16.1053009;stroke-linecap:butt" />
								</g>
							</g>
						</g>
						<g
   id="group5358-89"
   transform="translate(3.18105,-7.22857)">
							<title
   id="title254">Sheet.5358</title>
							<g
   id="group5359-90">
								<title
   id="title256">Sheet.5359</title>
								<g
   id="shape5360-91">
									<title
   id="title258">Sheet.5360</title>
									<path
   d="m 0,142.86 v 7.64 c 0,-0.4 0.17,-0.82 0.46,-1.12 L 3.12,146.69 0.46,144 C 0.17,143.7 0,143.29 0,142.86 Z"
   class="st19"
   id="path260"
   inkscape:connector-curvature="0"
   style="fill:#838383;stroke:none;stroke-width:16.1053009;stroke-linecap:butt" />
								</g>
							</g>
						</g>
						<g
   id="group5361-93"
   transform="translate(3.18105,-4.14599)">
							<title
   id="title265">Sheet.5361</title>
							<g
   id="group5362-94">
								<title
   id="title267">Sheet.5362</title>
								<g
   id="shape5363-95">
									<title
   id="title269">Sheet.5363</title>
									<path
   d="m 9.53,143.19 c -0.43,0.26 -0.92,0.42 -1.47,0.42 H 3.12 l -2.66,2.68 C 0.17,146.6 0,147 0,147.42 v 3.08 h 8.49 c 0.57,0 1.04,-0.47 1.04,-1.06 z"
   class="st20"
   id="path271"
   inkscape:connector-curvature="0"
   style="fill:#155678;stroke:none;stroke-width:0.99999899" />
								</g>
							</g>
							<g
   id="group5364-97">
								<title
   id="title275">Sheet.5364</title>
								<g
   id="shape5365-98">
									<title
   id="title277">Sheet.5365</title>
									<path
   d="m 9.53,143.19 c -0.43,0.26 -0.92,0.42 -1.47,0.42 H 3.12 l -2.66,2.68 C 0.17,146.6 0,147 0,147.42 v 3.08 h 8.49 c 0.57,0 1.04,-0.47 1.04,-1.06 z"
   class="st21"
   id="path279"
   inkscape:connector-curvature="0"
   style="fill:none;stroke:none;stroke-width:16.1053009;stroke-linecap:butt" />
								</g>
							</g>
						</g>
						<g
   id="group5366-100"
   transform="translate(3.18105,-11.0515)">
							<title
   id="title284">Sheet.5366</title>
							<g
   id="group5367-101">
								<title
   id="title286">Sheet.5367</title>
								<g
   id="shape5368-102">
									<title
   id="title288">Sheet.5368</title>
									<path
   d="M 8.49,144.07 H 0 v 2.62 c 0,0.42 0.17,0.84 0.46,1.14 l 2.66,2.67 h 4.94 c 0.55,0 1.05,-0.14 1.47,-0.4 v -4.96 c 0,-0.59 -0.47,-1.07 -1.04,-1.07 z"
   class="st22"
   id="path290"
   inkscape:connector-curvature="0"
   style="fill:#297083;stroke:none;stroke-width:16.1053009;stroke-linecap:butt" />
								</g>
							</g>
						</g>
						<g
   id="group5369-104"
   transform="translate(0,-4.60367)">
							<title
   id="title295">Sheet.5369</title>
							<g
   id="group5370-105">
								<title
   id="title297">Sheet.5370</title>
								<g
   id="shape5371-106">
									<title
   id="title299">Sheet.5371</title>
									<path
   d="m 1.07,137.61 h 10.6 c 0.57,0 1.06,0.49 1.06,1.09 v 10.74 c 0,0.59 -0.48,1.06 -1.06,1.06 H 1.07 C 0.48,150.5 0,150.03 0,149.44 V 138.7 c 0,-0.6 0.48,-1.09 1.07,-1.09 z"
   class="st9"
   id="path301"
   inkscape:connector-curvature="0"
   style="fill:#0078d4;stroke:none;stroke-width:16.1053009;stroke-linecap:butt" />
								</g>
							</g>
						</g>
						<g
   id="group5372-108"
   transform="translate(4.11745,-7.55837)">
							<title
   id="title306">Sheet.5372</title>
							<g
   id="group5373-109">
								<title
   id="title308">Sheet.5373</title>
								<g
   id="shape5374-110">
									<title
   id="title310">Sheet.5374</title>
									<path
   d="M 4.32,144.66 H 1.36 v 1.77 h 2.78 v 1.12 H 1.36 v 1.84 h 3.13 v 1.11 H 0 v -6.97 h 4.32 z"
   class="st23"
   id="path312"
   inkscape:connector-curvature="0"
   style="fill:#ffffff;stroke:none;stroke-width:16.1053009;stroke-linecap:butt" />
								</g>
							</g>
						</g>
					</g>
				</g>
			</g>
		</g>
	</g>
</svg>