<?xml version="1.0" encoding="UTF-8" standalone="no"?>
<!-- Generated by Microsoft Visio, SVG Export Exchange Edge Transport Server.svg Page-1 -->

<svg
   xmlns:dc="http://purl.org/dc/elements/1.1/"
   xmlns:cc="http://creativecommons.org/ns#"
   xmlns:rdf="http://www.w3.org/1999/02/22-rdf-syntax-ns#"
   xmlns:svg="http://www.w3.org/2000/svg"
   xmlns="http://www.w3.org/2000/svg"
   xmlns:xlink="http://www.w3.org/1999/xlink"
   xmlns:sodipodi="http://sodipodi.sourceforge.net/DTD/sodipodi-0.dtd"
   xmlns:inkscape="http://www.inkscape.org/namespaces/inkscape"
   width="48.189766"
   height="56.6912"
   viewBox="0 0 48.189768 56.691198"
   xml:space="preserve"
   class="st23"
   version="1.1"
   id="svg328"
   sodipodi:docname="Exchange Edge Transport Server.svg"
   style="font-size:12px;overflow:visible;color-interpolation-filters:sRGB;fill:none;fill-rule:evenodd;stroke-linecap:square;stroke-miterlimit:3"
   inkscape:version="0.92.5 (2060ec1f9f, 2020-04-08)"><metadata
   id="metadata332"><rdf:RDF><cc:Work
       rdf:about=""><dc:format>image/svg+xml</dc:format><dc:type
         rdf:resource="http://purl.org/dc/dcmitype/StillImage" /></cc:Work></rdf:RDF></metadata><sodipodi:namedview
   pagecolor="#ffffff"
   bordercolor="#666666"
   borderopacity="1"
   objecttolerance="10"
   gridtolerance="10"
   guidetolerance="10"
   inkscape:pageopacity="0"
   inkscape:pageshadow="2"
   inkscape:window-width="640"
   inkscape:window-height="480"
   id="namedview330"
   showgrid="false"
   inkscape:zoom="1.6461708"
   inkscape:cx="31.662204"
   inkscape:cy="19.732497"
   inkscape:window-x="0"
   inkscape:window-y="0"
   inkscape:window-maximized="0"
   inkscape:current-layer="svg328" />
	<style
   type="text/css"
   id="style2">
	<![CDATA[
		.st1 {fill:url(#grad0-11);stroke:none;stroke-linecap:butt;stroke-width:35.9597}
		.st2 {fill:#003067;stroke:none;stroke-linecap:butt;stroke-width:35.9597}
		.st3 {fill:#50e6ff;stroke:none;stroke-linecap:butt;stroke-width:35.9597}
		.st4 {fill:url(#grad0-31);stroke:none;stroke-linecap:butt;stroke-width:34}
		.st5 {fill:#ffffff;stroke:none;stroke-linecap:round;stroke-linejoin:round;stroke-width:0.750001}
		.st6 {fill:url(#grad0-40);stroke:none;stroke-linecap:butt;stroke-width:63.4474}
		.st7 {fill:#28a8ea;stroke:none;stroke-linecap:butt;stroke-width:16.1053}
		.st8 {fill:#0078d4;stroke:none;stroke-linecap:butt;stroke-width:16.1053}
		.st9 {fill:#50d9ff;stroke:none;stroke-linecap:butt;stroke-width:16.1053}
		.st10 {fill:#2086bb;stroke:none;stroke-linecap:butt;stroke-width:16.1053}
		.st11 {fill:#2497d2;stroke:none;stroke-linecap:butt;stroke-width:16.1053}
		.st12 {fill:#48c3e5;stroke:none;stroke-linecap:butt;stroke-width:16.1053}
		.st13 {fill:#1d78a8;stroke:none;stroke-linecap:butt;stroke-width:16.1053}
		.st14 {fill:#1d79a8;stroke:none;stroke-linecap:butt;stroke-width:16.1053}
		.st15 {fill:#176086;stroke:none;stroke-linecap:butt;stroke-width:16.1053}
		.st16 {fill:#2e7d92;stroke:none;stroke-linecap:butt;stroke-width:16.1053}
		.st17 {fill:#41afce;stroke:none;stroke-linecap:butt;stroke-width:16.1053}
		.st18 {fill:#838383;stroke:none;stroke-linecap:butt;stroke-width:16.1053}
		.st19 {fill:#155678;stroke:none;stroke-width:1}
		.st20 {fill:none;stroke:none;stroke-linecap:butt;stroke-width:16.1053}
		.st21 {fill:#297083;stroke:none;stroke-linecap:butt;stroke-width:16.1053}
		.st22 {fill:#ffffff;stroke:none;stroke-linecap:butt;stroke-width:16.1053}
		.st23 {fill:none;fill-rule:evenodd;font-size:12px;overflow:visible;stroke-linecap:square;stroke-miterlimit:3}
	]]>
	</style>

	<defs
   id="Patterns_And_Gradients">
		<linearGradient
   id="grad0-11"
   x1="-0.00013815399"
   y1="69.675327"
   x2="41.063827"
   y2="69.675327"
   gradientTransform="scale(0.772456,1.2945721)"
   gradientUnits="userSpaceOnUse">
			<stop
   offset="0"
   stop-color="#949494"
   stop-opacity="1"
   id="stop4" />
			<stop
   offset="0.53"
   stop-color="#a2a2a2"
   stop-opacity="1"
   id="stop6" />
			<stop
   offset="1"
   stop-color="#b3b3b3"
   stop-opacity="1"
   id="stop8" />
		</linearGradient>
		<linearGradient
   id="grad0-31"
   x1="0"
   y1="113.26265"
   x2="31.558378"
   y2="113.26265"
   gradientTransform="scale(1.0101913,0.98991147)"
   gradientUnits="userSpaceOnUse">
			<stop
   offset="0"
   stop-color="#0879e2"
   stop-opacity="1"
   id="stop11" />
			<stop
   offset="0.325"
   stop-color="#0a7de4"
   stop-opacity="1"
   id="stop13" />
			<stop
   offset="0.62"
   stop-color="#1088eb"
   stop-opacity="1"
   id="stop15" />
			<stop
   offset="0.91"
   stop-color="#199af6"
   stop-opacity="1"
   id="stop17" />
			<stop
   offset="1"
   stop-color="#1da2fa"
   stop-opacity="1"
   id="stop19" />
		</linearGradient>
		<linearGradient
   id="grad0-40"
   x1="0"
   y1="0"
   x2="1"
   y2="0"
   gradientTransform="rotate(90,0.5,0.5)">
			<stop
   offset="0"
   stop-color="#005ba1"
   stop-opacity="1"
   id="stop22" />
			<stop
   offset="0.26"
   stop-color="#00589d"
   stop-opacity="1"
   id="stop24" />
			<stop
   offset="0.53"
   stop-color="#004f90"
   stop-opacity="1"
   id="stop26" />
			<stop
   offset="0.8"
   stop-color="#003f7c"
   stop-opacity="1"
   id="stop28" />
			<stop
   offset="1"
   stop-color="#003067"
   stop-opacity="1"
   id="stop30" />
		</linearGradient>
	<linearGradient
   inkscape:collect="always"
   xlink:href="#grad0-40"
   id="linearGradient4843"
   gradientTransform="scale(1.4205791,0.7039383)"
   x1="0"
   y1="191.77273"
   x2="11.885969"
   y2="191.77273"
   gradientUnits="userSpaceOnUse" /><linearGradient
   inkscape:collect="always"
   xlink:href="#grad0-40"
   id="linearGradient4845"
   gradientTransform="scale(1.4205791,0.7039383)"
   x1="0"
   y1="191.77273"
   x2="11.885969"
   y2="191.77273"
   gradientUnits="userSpaceOnUse" /></defs>
	<g
   id="g326"
   transform="translate(-42.863293,-34.7228)">
		<title
   id="title34">Page-1</title>
		<g
   id="group5074-1"
   transform="translate(42.8634,-51.946)">
			<title
   id="title36">Exchange Edge Transport Server</title>
			<g
   id="group5075-2">
				<title
   id="title38">Page-1</title>
				<g
   id="group5076-3">
					<title
   id="title40">Sheet.5076</title>
					<g
   id="group5077-4"
   transform="translate(0,-2.29064)">
						<title
   id="title42">Sheet.5077</title>
						<g
   id="group5078-5">
							<title
   id="title44">Icon-databases-136.149</title>
							<g
   id="group5079-6">
								<title
   id="title46">path4-5</title>
								<g
   id="group5080-7">
									<title
   id="title48">Sheet.5080</title>
									<g
   id="shape5081-8">
										<title
   id="title50">Sheet.5081</title>
										<path
   d="m 31.72,141.55 a 1.87353,1.84453 -180 0 1 -1.84,1.81 H 1.84 A 1.84123,1.81272 -180 0 1 0,141.55 V 92 a 1.80892,1.78092 -180 0 1 1.84,-1.8 h 28.04 a 1.84123,1.81272 -180 0 1 1.84,1.8 z"
   class="st1"
   id="path52"
   inkscape:connector-curvature="0"
   style="fill:url(#grad0-11);stroke:none;stroke-width:35.95970154;stroke-linecap:butt" />
									</g>
								</g>
							</g>
							<g
   id="group5082-12"
   transform="translate(4.65152,-31.1343)">
								<title
   id="title57">path6-7</title>
								<g
   id="group5083-13">
									<title
   id="title59">Sheet.5083</title>
									<g
   id="shape5084-14">
										<title
   id="title61">Sheet.5084</title>
										<path
   d="m 0,139.97 a 3.45634,3.40284 -180 0 1 3.43,-3.38 h 15.82 a 3.45634,3.40284 -180 0 1 3.55,3.38 3.45634,3.40284 -180 0 1 -3.55,3.39 H 3.43 A 3.45634,3.40284 -180 0 1 0,139.97 Z m 0,-10.06 a 3.45634,3.40284 -180 0 1 3.43,-3.4 h 15.82 a 3.45634,3.40284 -180 0 1 3.55,3.4 3.45634,3.40284 -180 0 1 -3.55,3.38 H 3.43 A 3.45634,3.40284 -180 0 1 0,129.91 Z"
   class="st2"
   id="path63"
   inkscape:connector-curvature="0"
   style="fill:#003067;stroke:none;stroke-width:35.95970154;stroke-linecap:butt" />
									</g>
								</g>
							</g>
							<g
   id="group5085-16"
   transform="translate(5.94361,-42.2953)">
								<title
   id="title68">circle8-5</title>
								<g
   id="group5086-17">
									<title
   id="title70">Sheet.5086</title>
									<g
   id="shape5087-18">
										<title
   id="title72">Sheet.5087</title>
										<ellipse
   cx="2.3257599"
   cy="141.07401"
   rx="2.3257599"
   ry="2.2897601"
   class="st3"
   id="ellipse74"
   style="fill:#50e6ff;stroke:none;stroke-width:35.95970154;stroke-linecap:butt" />
									</g>
								</g>
							</g>
							<g
   id="group5088-20"
   transform="translate(5.94361,-32.2459)">
								<title
   id="title79">circle10-2</title>
								<g
   id="group5089-21">
									<title
   id="title81">Sheet.5089</title>
									<g
   id="shape5090-22">
										<title
   id="title83">Sheet.5090</title>
										<ellipse
   cx="2.3257599"
   cy="141.07401"
   rx="2.3257599"
   ry="2.2897601"
   class="st3"
   id="ellipse85"
   style="fill:#50e6ff;stroke:none;stroke-width:35.95970154;stroke-linecap:butt" />
									</g>
								</g>
							</g>
						</g>
					</g>
					<g
   id="group5091-24"
   transform="translate(15.704)">
						<title
   id="title92">Sheet.5091</title>
						<g
   id="group5092-25">
							<title
   id="title94">Sheet.5092</title>
							<g
   id="group5093-26">
								<title
   id="title96">g8</title>
								<g
   id="group5094-27">
									<title
   id="title98">path6</title>
									<g
   id="shape5095-28">
										<title
   id="title100">Sheet.5095</title>
										<path
   d="M 15.94,112.12 C 7.07,112.12 0,119.25 0,127.75 c 0,8.68 7.27,15.61 15.94,15.61 8.67,0 15.94,-7.11 15.94,-15.61 0,-8.5 -7.08,-15.63 -15.94,-15.63 z m 0,2.07 c 7.66,0 13.84,6.06 13.84,13.56 0,7.49 -6.25,13.55 -13.84,13.55 -7.58,0 -13.83,-6.12 -13.83,-13.55 0,-7.44 6.18,-13.56 13.83,-13.56 z"
   class="st4"
   id="path102"
   inkscape:connector-curvature="0"
   style="fill:url(#grad0-31);stroke:none;stroke-width:34;stroke-linecap:butt" />
									</g>
								</g>
							</g>
							<g
   id="group5096-32"
   transform="translate(1.37093,-1.34384)">
								<title
   id="title107">Sheet.5096</title>
								<g
   id="shape5097-33">
									<title
   id="title109">Sheet.5097</title>
									<ellipse
   cx="14.5701"
   cy="129.088"
   rx="14.5701"
   ry="14.2753"
   class="st5"
   id="ellipse111"
   style="fill:#ffffff;stroke:none;stroke-width:0.75000101;stroke-linecap:round;stroke-linejoin:round" />
								</g>
							</g>
						</g>
						<g
   id="group5098-35"
   transform="translate(4.87998,-11.5201)">
							<title
   id="title116">Sheet.5098</title>
							<g
   id="group5099-36"
   transform="translate(5.26818,-0.00316658)">
								<title
   id="title118">path33</title>
								<g
   id="shape5100-37"
   transform="matrix(1,0,0,-1,0,278.377)">
									<title
   id="title120">Sheet.5100</title>
									<path
   d="m 16.71,138.93 -4.82,-3.88 a 0.258385,0.208294 0 0 0 -0.430643,0.17358 L 11.46,137.58 a 0.258385,0.208294 -180 0 1 -0.258385,0.20829 L 0,137.78 v 2.88 h 11.2 a 0.258385,0.208294 -180 0 1 0.258385,0.20829 L 11.46,143.27 a 0.258385,0.208294 0 0 0 0.430643,0 L 16.71,139.56 a 0.51677,0.416587 0 0 0 0,-0.62488 z"
   class="st6"
   id="path122"
   inkscape:connector-curvature="0"
   style="fill:url(#linearGradient4843);stroke:none;stroke-width:63.44739914;stroke-linecap:butt" />
								</g>
							</g>
							<g
   id="group5101-41">
								<title
   id="title126">path33.668</title>
								<g
   id="shape5102-42"
   transform="matrix(-1,0,0,1,16.888,0)">
									<title
   id="title128">Sheet.5102</title>
									<path
   d="m 16.71,138.93 -4.82,-3.88 a 0.258385,0.208294 0 0 0 -0.430643,0.17358 L 11.46,137.58 a 0.258385,0.208294 -180 0 1 -0.258385,0.20829 L 0,137.78 v 2.88 h 11.2 a 0.258385,0.208294 -180 0 1 0.258385,0.20829 L 11.46,143.27 a 0.258385,0.208294 0 0 0 0.430643,0 L 16.71,139.56 a 0.51677,0.416587 0 0 0 0,-0.62488 z"
   class="st6"
   id="path130"
   inkscape:connector-curvature="0"
   style="fill:url(#linearGradient4845);stroke:none;stroke-width:63.44739914;stroke-linecap:butt" />
								</g>
							</g>
						</g>
					</g>
					<g
   id="group5103-45"
   transform="translate(23.3014,-35.2912)">
						<title
   id="title136">Sheet.5103</title>
						<g
   id="group5104-46"
   transform="translate(3.16826)">
							<title
   id="title138">Sheet.5104</title>
							<g
   id="group5105-47">
								<title
   id="title140">Sheet.5105</title>
								<g
   id="shape5106-48">
									<title
   id="title142">Sheet.5106</title>
									<path
   d="m 20.13,121.96 h -5.51 c -0.42,0 -0.84,0.17 -1.12,0.47 L 0.46,135.26 C 0.17,135.55 0,135.94 0,136.37 v 5.44 c 0,0.86 0.71,1.55 1.58,1.55 H 7.1 c 0.42,0 0.83,-0.16 1.12,-0.45 l 13.04,-12.85 c 0.3,-0.29 0.46,-0.68 0.46,-1.09 v -5.45 c 0,-0.86 -0.71,-1.56 -1.59,-1.56 z"
   class="st7"
   id="path144"
   inkscape:connector-curvature="0"
   style="fill:#28a8ea;stroke:none;stroke-width:16.1053009;stroke-linecap:butt" />
								</g>
							</g>
						</g>
						<g
   id="group5107-50"
   transform="translate(14.0224)">
							<title
   id="title149">Sheet.5107</title>
							<g
   id="group5108-51">
								<title
   id="title151">Sheet.5108</title>
								<g
   id="shape5109-52">
									<title
   id="title153">Sheet.5109</title>
									<path
   d="M 9.29,143.36 H 3.75 c -0.42,0 -0.81,-0.16 -1.12,-0.45 L 0,140.31 v -4.86 c 0,-1.54 1.26,-2.78 2.83,-2.78 h 4.92 l 2.65,2.59 c 0.29,0.29 0.46,0.68 0.46,1.11 v 5.44 c 0,0.86 -0.71,1.55 -1.57,1.55 z"
   class="st8"
   id="path155"
   inkscape:connector-curvature="0"
   style="fill:#0078d4;stroke:none;stroke-width:16.1053009;stroke-linecap:butt" />
								</g>
							</g>
						</g>
						<g
   id="group5110-54"
   transform="translate(3.16826,-10.6969)">
							<title
   id="title160">Sheet.5110</title>
							<g
   id="group5111-55">
								<title
   id="title162">Sheet.5111</title>
								<g
   id="shape5112-56">
									<title
   id="title164">Sheet.5112</title>
									<path
   d="M 1.58,132.67 H 7.1 c 0.42,0 0.83,0.16 1.12,0.45 l 2.64,2.61 v 4.86 c 0,1.53 -1.26,2.77 -2.83,2.77 H 3.11 L 0.46,140.77 C 0.17,140.47 0,140.09 0,139.66 v -5.44 c 0,-0.87 0.71,-1.55 1.58,-1.55 z"
   class="st9"
   id="path166"
   inkscape:connector-curvature="0"
   style="fill:#50d9ff;stroke:none;stroke-width:16.1053009;stroke-linecap:butt" />
								</g>
							</g>
						</g>
						<g
   id="group5113-58"
   transform="translate(3.16826,-3.12237)">
							<title
   id="title171">Sheet.5113</title>
							<g
   id="group5114-59">
								<title
   id="title173">Sheet.5114</title>
								<g
   id="shape5115-60">
									<title
   id="title175">Sheet.5115</title>
									<path
   d="m 0,139.49 v 3.87 h 8.9 c 0,0 0,0 0,0 0.52,0 0.95,-0.36 1.04,-0.85 -0.27,0.25 -0.65,0.4 -1.04,0.41 H 0 Z"
   class="st10"
   id="path177"
   inkscape:connector-curvature="0"
   style="fill:#2086bb;stroke:none;stroke-width:16.1053009;stroke-linecap:butt" />
								</g>
							</g>
						</g>
						<g
   id="group5116-62"
   transform="translate(13.103,-3.98933)">
							<title
   id="title182">Sheet.5116</title>
							<g
   id="group5117-63">
								<title
   id="title184">Sheet.5117</title>
								<g
   id="shape5118-64">
									<title
   id="title186">Sheet.5118</title>
									<path
   d="m 0.47,135.38 c -0.13,0.2 -0.28,0.37 -0.44,0.53 v 6.39 c 0,0 0,0 0,0 v 0.89 c 0,0.06 -0.02,0.13 -0.03,0.17 0,0 0,0 0,0 0.29,-0.27 0.47,-0.64 0.47,-1.06 z"
   class="st11"
   id="path188"
   inkscape:connector-curvature="0"
   style="fill:#2497d2;stroke:none;stroke-width:16.1053009;stroke-linecap:butt" />
								</g>
							</g>
						</g>
						<g
   id="group5119-66"
   transform="translate(3.16826,-11.44)">
							<title
   id="title193">Sheet.5119</title>
							<g
   id="group5120-67">
								<title
   id="title195">Sheet.5120</title>
								<g
   id="shape5121-68">
									<title
   id="title197">Sheet.5121</title>
									<path
   d="M 8.9,137.42 H 0 v 0.44 h 8.45 c 0,0 0,0 0,0 0,0 0,0 0,0 H 8.9 c 0,0 0,0 0,0 0.58,0 1.05,0.46 1.05,1.03 v 0.02 4.45 c 0.17,-0.15 0.32,-0.32 0.45,-0.52 v -3.93 c 0,-0.84 -0.67,-1.49 -1.5,-1.49 z"
   class="st12"
   id="path199"
   inkscape:connector-curvature="0"
   style="fill:#48c3e5;stroke:none;stroke-width:16.1053009;stroke-linecap:butt" />
								</g>
							</g>
						</g>
						<g
   id="group5122-70"
   transform="translate(3.16826,-3.57215)">
							<title
   id="title204">Sheet.5122</title>
							<g
   id="group5123-71">
								<title
   id="title206">Sheet.5123</title>
								<g
   id="shape5124-72">
									<title
   id="title208">Sheet.5124</title>
									<path
   d="m 0,139.94 v 3.42 h 8.9 c 0.39,0 0.77,-0.16 1.04,-0.41 0,0 0,0 0,0 0.01,-0.06 0.02,-0.11 0.02,-0.17 v -0.89 c 0,0.56 -0.47,1.02 -1.06,1.03 H 0 Z"
   class="st13"
   id="path210"
   inkscape:connector-curvature="0"
   style="fill:#1d78a8;stroke:none;stroke-width:16.1053009;stroke-linecap:butt" />
								</g>
							</g>
						</g>
						<g
   id="group5125-74"
   transform="translate(13.1228,-5.05185)">
							<title
   id="title215">Sheet.5125</title>
							<g
   id="group5126-75">
								<title
   id="title217">Sheet.5126</title>
								<g
   id="shape5127-76">
									<title
   id="title219">Sheet.5127</title>
									<path
   d="m 0,136.97 v 6.39 z"
   class="st14"
   id="path221"
   inkscape:connector-curvature="0"
   style="fill:#1d79a8;stroke:none;stroke-width:16.1053009;stroke-linecap:butt" />
								</g>
							</g>
						</g>
						<g
   id="group5128-78"
   transform="translate(3.16826,-4.0154)">
							<title
   id="title226">Sheet.5128</title>
							<g
   id="group5129-79">
								<title
   id="title228">Sheet.5129</title>
								<g
   id="shape5130-80">
									<title
   id="title230">Sheet.5130</title>
									<path
   d="m 9.96,135.94 c -0.15,0.12 -0.29,0.24 -0.46,0.33 v 6.06 c 0,0.57 -0.47,1.03 -1.05,1.03 H 0 v -2.98 2.98 h 8.9 c 0.59,0 1.06,-0.46 1.06,-1.03 z"
   class="st15"
   id="path232"
   inkscape:connector-curvature="0"
   style="fill:#176086;stroke:none;stroke-width:16.1053009;stroke-linecap:butt" />
								</g>
							</g>
						</g>
						<g
   id="group5131-82"
   transform="translate(11.6148,-11.1075)">
							<title
   id="title237">Sheet.5131</title>
							<g
   id="group5132-83">
								<title
   id="title239">Sheet.5132</title>
								<g
   id="shape5133-84">
									<title
   id="title241">Sheet.5133</title>
									<path
   d="m 0.45,137.53 c 0,0 0,0 0,0 H 0 c 0.57,0 1.04,0.46 1.04,1.03 v 4.8 c 0.18,-0.09 0.32,-0.2 0.46,-0.32 v -4.48 c 0,-0.57 -0.47,-1.03 -1.05,-1.03 z"
   class="st16"
   id="path243"
   inkscape:connector-curvature="0"
   style="fill:#2e7d92;stroke:none;stroke-width:16.1053009;stroke-linecap:butt" />
								</g>
							</g>
						</g>
						<g
   id="group5134-86"
   transform="translate(3.16826,-16.9482)">
							<title
   id="title248">Sheet.5134</title>
							<g
   id="group5135-87">
								<title
   id="title250">Sheet.5135</title>
								<g
   id="shape5136-88">
									<title
   id="title252">Sheet.5136</title>
									<path
   d="M 8.45,143.36 H 0 Z"
   class="st17"
   id="path254"
   inkscape:connector-curvature="0"
   style="fill:#41afce;stroke:none;stroke-width:16.1053009;stroke-linecap:butt" />
								</g>
							</g>
						</g>
						<g
   id="group5137-90"
   transform="translate(3.16826,-7.00089)">
							<title
   id="title259">Sheet.5137</title>
							<g
   id="group5138-91">
								<title
   id="title261">Sheet.5138</title>
								<g
   id="shape5139-92">
									<title
   id="title263">Sheet.5139</title>
									<path
   d="m 0,135.95 v 7.41 c 0,-0.4 0.17,-0.8 0.46,-1.09 l 2.65,-2.61 -2.65,-2.59 C 0.17,136.77 0,136.37 0,135.95 Z"
   class="st18"
   id="path265"
   inkscape:connector-curvature="0"
   style="fill:#838383;stroke:none;stroke-width:16.1053009;stroke-linecap:butt" />
								</g>
							</g>
						</g>
						<g
   id="group5140-94"
   transform="translate(3.16826,-4.0154)">
							<title
   id="title270">Sheet.5140</title>
							<g
   id="group5141-95">
								<title
   id="title272">Sheet.5141</title>
								<g
   id="shape5142-96">
									<title
   id="title274">Sheet.5142</title>
									<path
   d="m 9.5,136.27 c -0.44,0.26 -0.92,0.41 -1.47,0.41 H 3.11 l -2.65,2.6 C 0.17,139.57 0,139.97 0,140.38 v 2.98 h 8.45 c 0.58,0 1.05,-0.46 1.05,-1.03 z"
   class="st19"
   id="path276"
   inkscape:connector-curvature="0"
   style="fill:#155678;stroke:none;stroke-width:1" />
								</g>
							</g>
							<g
   id="group5143-98">
								<title
   id="title280">Sheet.5143</title>
								<g
   id="shape5144-99">
									<title
   id="title282">Sheet.5144</title>
									<path
   d="m 9.5,136.27 c -0.44,0.26 -0.92,0.41 -1.47,0.41 H 3.11 l -2.65,2.6 C 0.17,139.57 0,139.97 0,140.38 v 2.98 h 8.45 c 0.58,0 1.05,-0.46 1.05,-1.03 z"
   class="st20"
   id="path284"
   inkscape:connector-curvature="0"
   style="fill:none;stroke:none;stroke-width:16.1053009;stroke-linecap:butt" />
								</g>
							</g>
						</g>
						<g
   id="group5145-101"
   transform="translate(3.16826,-10.7034)">
							<title
   id="title289">Sheet.5145</title>
							<g
   id="group5146-102">
								<title
   id="title291">Sheet.5146</title>
								<g
   id="shape5147-103">
									<title
   id="title293">Sheet.5147</title>
									<path
   d="M 8.45,137.13 H 0 v 2.53 c 0,0.41 0.17,0.81 0.46,1.11 l 2.65,2.59 h 4.92 c 0.55,0 1.04,-0.15 1.47,-0.4 v -4.8 c 0,-0.57 -0.47,-1.03 -1.05,-1.03 z"
   class="st21"
   id="path295"
   inkscape:connector-curvature="0"
   style="fill:#297083;stroke:none;stroke-width:16.1053009;stroke-linecap:butt" />
								</g>
							</g>
						</g>
						<g
   id="group5148-105"
   transform="translate(0,-4.45867)">
							<title
   id="title300">Sheet.5148</title>
							<g
   id="group5149-106">
								<title
   id="title302">Sheet.5149</title>
								<g
   id="shape5150-107">
									<title
   id="title304">Sheet.5150</title>
									<path
   d="m 1.06,130.88 h 10.56 c 0.57,0 1.06,0.46 1.06,1.04 v 10.41 c 0,0.57 -0.48,1.03 -1.06,1.03 H 1.06 C 0.48,143.36 0,142.9 0,142.33 v -10.41 c 0,-0.58 0.48,-1.04 1.06,-1.04 z"
   class="st8"
   id="path306"
   inkscape:connector-curvature="0"
   style="fill:#0078d4;stroke:none;stroke-width:16.1053009;stroke-linecap:butt" />
								</g>
							</g>
						</g>
						<g
   id="group5151-109"
   transform="translate(4.10089,-7.3203)">
							<title
   id="title311">Sheet.5151</title>
							<g
   id="group5152-110">
								<title
   id="title313">Sheet.5152</title>
								<g
   id="shape5153-111">
									<title
   id="title315">Sheet.5153</title>
									<path
   d="M 4.31,137.7 H 1.35 v 1.72 h 2.78 v 1.08 H 1.35 v 1.78 h 3.12 v 1.08 H 0 v -6.76 h 4.31 z"
   class="st22"
   id="path317"
   inkscape:connector-curvature="0"
   style="fill:#ffffff;stroke:none;stroke-width:16.1053009;stroke-linecap:butt" />
								</g>
							</g>
						</g>
					</g>
				</g>
			</g>
		</g>
	</g>
</svg>