<?xml version="1.0" encoding="UTF-8" standalone="no"?>
<!-- Generated by Microsoft Visio, SVG Export Extended Security Update.svg Page-1 -->

<svg
   xmlns:dc="http://purl.org/dc/elements/1.1/"
   xmlns:cc="http://creativecommons.org/ns#"
   xmlns:rdf="http://www.w3.org/1999/02/22-rdf-syntax-ns#"
   xmlns:svg="http://www.w3.org/2000/svg"
   xmlns="http://www.w3.org/2000/svg"
   xmlns:sodipodi="http://sodipodi.sourceforge.net/DTD/sodipodi-0.dtd"
   xmlns:inkscape="http://www.inkscape.org/namespaces/inkscape"
   width="0.70865911in"
   height="0.78744274in"
   viewBox="0 0 51.023503 56.696148"
   xml:space="preserve"
   class="st5"
   version="1.1"
   id="svg40"
   sodipodi:docname="Extended Security Update.svg"
   style="font-size:12px;overflow:visible;color-interpolation-filters:sRGB;fill:none;fill-rule:evenodd;stroke-linecap:square;stroke-miterlimit:3"
   inkscape:version="0.92.5 (2060ec1f9f, 2020-04-08)"><metadata
   id="metadata44"><rdf:RDF><cc:Work
       rdf:about=""><dc:format>image/svg+xml</dc:format><dc:type
         rdf:resource="http://purl.org/dc/dcmitype/StillImage" /></cc:Work></rdf:RDF></metadata><sodipodi:namedview
   pagecolor="#ffffff"
   bordercolor="#666666"
   borderopacity="1"
   objecttolerance="10"
   gridtolerance="10"
   guidetolerance="10"
   inkscape:pageopacity="0"
   inkscape:pageshadow="2"
   inkscape:window-width="640"
   inkscape:window-height="480"
   id="namedview42"
   showgrid="false"
   inkscape:zoom="1.6282078"
   inkscape:cx="34.015573"
   inkscape:cy="27.119604"
   inkscape:window-x="0"
   inkscape:window-y="0"
   inkscape:window-maximized="0"
   inkscape:current-layer="svg40" />
	<style
   type="text/css"
   id="style2">
	<![CDATA[
		.st1 {fill:#0078d4;stroke:none;stroke-linecap:butt;stroke-width:18}
		.st2 {fill:url(#grad0-8);stroke:none;stroke-linecap:butt;stroke-width:18}
		.st3 {fill:#76bc2d;stroke:none;stroke-linecap:butt;stroke-width:18}
		.st4 {fill:#ffffff;stroke:none;stroke-linecap:butt;stroke-width:18}
		.st5 {fill:none;fill-rule:evenodd;font-size:12px;overflow:visible;stroke-linecap:square;stroke-miterlimit:3}
	]]>
	</style>

	<defs
   id="Patterns_And_Gradients">
		<linearGradient
   id="grad0-8"
   x1="0"
   y1="52.514954"
   x2="45.445456"
   y2="52.514954"
   gradientTransform="scale(0.90108019,1.1097791)"
   gradientUnits="userSpaceOnUse">
			<stop
   offset="0"
   stop-color="#0078d4"
   stop-opacity="1"
   id="stop4" />
			<stop
   offset="1"
   stop-color="#5ea0ef"
   stop-opacity="1"
   id="stop6" />
		</linearGradient>
	</defs>
	<g
   id="g38"
   transform="translate(-18.000167,-17.99815)">
		<title
   id="title10">Page-1</title>
		<g
   id="group5089-1"
   transform="translate(18,-34.0157)">
			<title
   id="title12">Extended Security Update</title>
			<g
   id="group5090-2">
				<title
   id="title14">Sheet.5090</title>
				<g
   id="shape5091-3"
   transform="translate(0,-1.69615)">
					<title
   id="title16">Sheet.5091</title>
					<path
   d="m 44.66,79.39 c 0,14.8 -17.74,26.69 -21.6,29.11 a 1.38487,1.39565 0 0 1 -1.47,0 C 17.74,106.08 0,94.18 0,79.39 v -17.8 a 1.40308,1.41399 0 0 1 1.37,-1.41 c 13.8,-0.37 10.62,-6.47 20.96,-6.47 10.33,0 7.16,6.1 20.95,6.48 a 1.40308,1.41399 0 0 1 1.37,1.41 v 17.79 z"
   class="st1"
   id="path18"
   inkscape:connector-curvature="0"
   style="fill:#0078d4;stroke:none;stroke-width:18;stroke-linecap:butt" />
				</g>
				<g
   id="shape5092-5"
   transform="translate(1.85312,-3.98017)">
					<title
   id="title21">Sheet.5092</title>
					<path
   d="m 40.95,81.82 c 0,13.56 -16.25,24.48 -19.8,26.7 a 1.27733,1.28726 0 0 1 -1.35,0 C 16.26,106.3 0,95.39 0,81.82 V 65.51 a 1.28395,1.29393 0 0 1 1.25,-1.29 c 12.66,-0.35 9.75,-5.94 19.22,-5.94 9.48,0 6.57,5.59 19.22,5.94 a 1.2856,1.2956 0 0 1 1.26,1.29 z"
   class="st2"
   id="path23"
   inkscape:connector-curvature="0"
   style="fill:url(#grad0-8);stroke:none;stroke-width:18;stroke-linecap:butt" />
				</g>
				<g
   id="shape5093-9"
   transform="translate(18.4137)">
					<title
   id="title26">Sheet.5093</title>
					<path
   d="m 16.31,108.71 c 9,0 16.3,-7.36 16.3,-16.43 0,-9.08 -7.3,-16.43 -16.3,-16.43 C 7.3,75.85 0,83.2 0,92.28 c 0,9.07 7.3,16.43 16.31,16.43 z"
   class="st3"
   id="path28"
   inkscape:connector-curvature="0"
   style="fill:#76bc2d;stroke:none;stroke-width:18;stroke-linecap:butt" />
				</g>
				<g
   id="shape5094-11"
   transform="translate(21.5307,-5.78017)">
					<title
   id="title31">Sheet.5094</title>
					<path
   d="M 1.54,96.51 A 0.572481,0.576934 0 0 1 0.749116,96.306572 L 0.06,95.14 A 0.579099,0.583604 0 0 1 0.263512,94.342964 L 5.74,91.07 a 0.572481,0.576934 0 0 1 0.78923,0.203428 L 9.78,96.79 A 0.572481,0.576934 0 0 1 9.576488,97.587036 L 8.41,98.28 A 0.579099,0.583604 0 0 1 7.619116,98.074905 L 6.66,96.44 a 7.36284,7.4201 -180 0 0 -0.15,2.76 6.76719,6.81982 -180 0 0 0.9,2.62 c 0.34,0.58 0.76,1.12 1.25,1.57 a 7.19738,7.25336 -180 0 0 4.99,1.93 0.569172,0.573599 0 0 1 0.562554,0.52524 L 14.48,108.68 A 10.2848,10.3648 0 0 1 11.52,108.52 10.8424,10.9267 0 0 1 8.76,107.56 10.4106,10.4915 0 0 1 3.44,95.39 Z m 13.3,-5.35 c 0.66,0.13 1.29,0.35 1.88,0.66 0.59,0.31 1.14,0.69 1.62,1.14 a 6.82675,6.87985 0 0 1 2.17,4.18 7.36284,7.4201 0 0 1 -0.15,2.76 L 19.4,98.26 A 0.579099,0.583604 -180 0 0 18.609116,98.054905 L 17.44,98.75 a 0.57579,0.580269 -180 0 0 -0.201858,0.797036 L 20.49,105.07 a 0.579099,0.583604 -180 0 0 0.790884,0.20009 L 26.75,102 a 0.57579,0.580269 -180 0 0 0.201858,-0.79704 L 26.26,100.03 A 0.579099,0.583604 -180 0 0 25.469116,99.829907 L 23.58,100.96 A 10.4072,10.4882 -180 0 0 20.65,90.47 10.5562,10.6383 -180 0 0 18.26,88.8 10.7911,10.875 -180 0 0 15.5,87.83 10.3129,10.3931 -180 0 0 13.14,87.63 0.567517,0.571931 -180 0 0 12.602265,88.261959 L 12.8,90.5 a 0.567517,0.571931 -180 0 0 0.565863,0.530245 C 13.87,91.02 14.36,91.07 14.84,91.18 Z"
   class="st4"
   id="path33"
   inkscape:connector-curvature="0"
   style="fill:#ffffff;stroke:none;stroke-width:18;stroke-linecap:butt" />
				</g>
			</g>
		</g>
	</g>
</svg>