<?xml version="1.0" encoding="UTF-8" standalone="no"?>
<!-- Generated by Microsoft Visio, SVG Export Factory (new).svg Page-1 -->

<svg
   xmlns:dc="http://purl.org/dc/elements/1.1/"
   xmlns:cc="http://creativecommons.org/ns#"
   xmlns:rdf="http://www.w3.org/1999/02/22-rdf-syntax-ns#"
   xmlns:svg="http://www.w3.org/2000/svg"
   xmlns="http://www.w3.org/2000/svg"
   xmlns:sodipodi="http://sodipodi.sourceforge.net/DTD/sodipodi-0.dtd"
   xmlns:inkscape="http://www.inkscape.org/namespaces/inkscape"
   width="0.78744107in"
   height="0.78740776in"
   viewBox="0 0 56.695756 56.693499"
   xml:space="preserve"
   class="st4"
   version="1.1"
   id="svg42"
   sodipodi:docname="Factory (new).svg"
   style="font-size:12px;overflow:visible;color-interpolation-filters:sRGB;fill:none;fill-rule:evenodd;stroke-linecap:square;stroke-miterlimit:3"
   inkscape:version="0.92.5 (2060ec1f9f, 2020-04-08)"><metadata
   id="metadata46"><rdf:RDF><cc:Work
       rdf:about=""><dc:format>image/svg+xml</dc:format><dc:type
         rdf:resource="http://purl.org/dc/dcmitype/StillImage" /></cc:Work></rdf:RDF></metadata><sodipodi:namedview
   pagecolor="#ffffff"
   bordercolor="#666666"
   borderopacity="1"
   objecttolerance="10"
   gridtolerance="10"
   guidetolerance="10"
   inkscape:pageopacity="0"
   inkscape:pageshadow="2"
   inkscape:window-width="640"
   inkscape:window-height="480"
   id="namedview44"
   showgrid="false"
   inkscape:zoom="1.8365233"
   inkscape:cx="37.795184"
   inkscape:cy="18.900351"
   inkscape:window-x="0"
   inkscape:window-y="0"
   inkscape:window-maximized="0"
   inkscape:current-layer="svg42" />
	<style
   type="text/css"
   id="style2">
	<![CDATA[
		.st1 {fill:url(#grad0-5);stroke:none;stroke-linecap:butt;stroke-width:0.75}
		.st2 {fill:url(#grad0-9);stroke:none;stroke-linecap:butt;stroke-width:0.75}
		.st3 {fill:url(#grad0-13);stroke:none;stroke-linecap:butt;stroke-width:0.75}
		.st4 {fill:none;fill-rule:evenodd;font-size:12px;overflow:visible;stroke-linecap:square;stroke-miterlimit:3}
	]]>
	</style>

	<defs
   id="Patterns_And_Gradients">
		<linearGradient
   id="grad0-5"
   x1="0.13926183"
   y1="64.147698"
   x2="39.46529"
   y2="64.147698"
   gradientTransform="scale(1.0736016,0.93144418)"
   gradientUnits="userSpaceOnUse">
			<stop
   offset="0.26"
   stop-color="#0d7012"
   stop-opacity="1"
   id="stop4" />
			<stop
   offset="1"
   stop-color="#085714"
   stop-opacity="1"
   id="stop6" />
		</linearGradient>
		<linearGradient
   id="grad0-9"
   x1="0"
   y1="122.44547"
   x2="29.888265"
   y2="122.44547"
   gradientTransform="scale(1.5805534,0.63268978)"
   gradientUnits="userSpaceOnUse">
			<stop
   offset="0"
   stop-color="#107c10"
   stop-opacity="1"
   id="stop9" />
			<stop
   offset="0.96"
   stop-color="#56b50e"
   stop-opacity="1"
   id="stop11" />
		</linearGradient>
		<linearGradient
   id="grad0-13"
   x1="0.13976296"
   y1="63.840772"
   x2="39.536803"
   y2="63.840772"
   gradientTransform="scale(1.0711539,0.93357268)"
   gradientUnits="userSpaceOnUse">
			<stop
   offset="0.04"
   stop-color="#33980f"
   stop-opacity="1"
   id="stop14" />
			<stop
   offset="1"
   stop-color="#bae884"
   stop-opacity="1"
   id="stop16" />
		</linearGradient>
	</defs>
	<g
   id="g40"
   transform="translate(-5.6693772,-5.6708)">
		<title
   id="title20">Page-1</title>
		<g
   id="group5066-1"
   transform="translate(5.66929,-34.0157)">
			<title
   id="title22">Factory (new)</title>
			<g
   id="shape5067-2"
   transform="translate(14.3259)">
				<title
   id="title24">path1</title>
				<path
   d="M 2.08,96.38 C 0.91,96.38 0,95.33 0.17,94.17 2.69,77.12 17.33,64.49 34.56,64.49 h 3.49 c 2.38,0 4.12,-1.42 4.12,-3.8 l 0.2,-0.94 v 16.54 c 0,2.61 -2.11,4.72 -4.72,4.72 h -1.96 c -7.25,0 -13.66,4.74 -15.8,11.68 l -0.62,2.02 c -0.31,0.99 -1.22,1.67 -2.25,1.67 H 2.11 Z"
   class="st1"
   id="path26"
   inkscape:connector-curvature="0"
   style="fill:url(#grad0-5);stroke:none;stroke-width:0.75;stroke-linecap:butt" />
			</g>
			<g
   id="shape5068-6"
   transform="translate(0,-18.8931)">
				<title
   id="title29">path3</title>
				<path
   d="M 2.37,96.38 C 1.06,96.38 0,95.31 0,94.01 V 79.84 c 0,-1.31 1.06,-2.37 2.37,-2.37 h 42.51 c 1.3,0 2.36,1.06 2.36,2.37 v 14.17 c 0,1.3 -1.06,2.37 -2.36,2.37 z"
   class="st2"
   id="path31"
   inkscape:connector-curvature="0"
   style="fill:url(#grad0-9);stroke:none;stroke-width:0.75;stroke-linecap:butt" />
			</g>
			<g
   id="shape5069-10"
   transform="translate(14.3256,-19.9135)">
				<title
   id="title34">path5</title>
				<path
   d="M 2.11,59.6 C 0.92,59.6 0,60.66 0.17,61.84 2.69,79.2 17.57,92.07 35.11,92.07 h 2.94 c 2.38,0 4.3,1.93 4.3,4.31 v -16.7 c 0,-2.61 -2.11,-4.72 -4.72,-4.72 h -1.95 c -7.26,0 -13.66,-4.73 -15.8,-11.68 L 19.26,61.27 C 18.94,60.28 18.04,59.6 17,59.6 H 2.13 Z"
   class="st3"
   id="path36"
   inkscape:connector-curvature="0"
   style="fill:url(#grad0-13);stroke:none;stroke-width:0.75;stroke-linecap:butt" />
			</g>
		</g>
	</g>
</svg>