<?xml version="1.0" encoding="UTF-8" standalone="no"?>
<!DOCTYPE svg PUBLIC "-//W3C//DTD SVG 1.1//EN" "http://www.w3.org/Graphics/SVG/1.1/DTD/svg11.dtd">
<!-- Generated by Microsoft Visio, SVG Export FHIR Service.svg Page-1 -->
<svg xmlns="http://www.w3.org/2000/svg" xmlns:xlink="http://www.w3.org/1999/xlink" xmlns:ev="http://www.w3.org/2001/xml-events"
		width="1.73185in" height="1.65334in" viewBox="0 0 124.693 119.041" xml:space="preserve" color-interpolation-filters="sRGB"
		class="st5">
	<style type="text/css">
	<![CDATA[
		.st1 {fill:#a3a3a3;stroke:none;stroke-linecap:butt;stroke-width:34}
		.st2 {fill:url(#grad0-8);stroke:none;stroke-linecap:butt;stroke-width:34}
		.st3 {fill:url(#grad0-12);stroke:none;stroke-linecap:butt;stroke-width:34}
		.st4 {fill:#ffffff;fill-opacity:0.9;stroke:none;stroke-linecap:butt;stroke-width:34}
		.st5 {fill:none;fill-rule:evenodd;font-size:12px;overflow:visible;stroke-linecap:square;stroke-miterlimit:3}
	]]>
	</style>

	<defs id="Patterns_And_Gradients">
		<linearGradient id="grad0-8" x1="0" y1="0" x2="1" y2="0" gradientTransform="rotate(-90 0.5 0.5)">
			<stop offset="0" stop-color="#0078d4" stop-opacity="1"/>
			<stop offset="0.155" stop-color="#1380da" stop-opacity="1"/>
			<stop offset="0.53" stop-color="#3c91e5" stop-opacity="1"/>
			<stop offset="0.82" stop-color="#559cec" stop-opacity="1"/>
			<stop offset="1" stop-color="#5ea0ef" stop-opacity="1"/>
		</linearGradient>
		<linearGradient id="grad0-12" x1="0" y1="0" x2="1" y2="0" gradientTransform="rotate(-90 0.5 0.5)">
			<stop offset="0" stop-color="#ef7100" stop-opacity="1"/>
			<stop offset="1" stop-color="#faa21d" stop-opacity="1"/>
		</linearGradient>
	</defs>
	<g>
		<title>Page-1</title>
		<g id="group4327-1" transform="translate(34,-34.0157)">
			<title>FHIR Service</title>
			<g id="group4328-2">
				<title>Sheet.4328</title>
				<g id="shape4329-3" transform="translate(14.9039,-40.4272)">
					<title>Sheet.4329</title>
					<path d="M27.23 119.04 L24.4 119.04 L24.4 111.37 a0.384252 0.395582 -180 0 0 -0.0850394 -2.84217E-14 L2.92 111.37
								 a0.384252 0.395582 -180 0 0 -0.0850394 0 L2.83 119.04 L0 119.04 L0 111.23 A2.83465 2.91823 0 0 1
								 2.92 108.44 L24.31 108.44 A2.83465 2.91823 0 0 1 27.23 111.23 L27.23 119.04 Z" class="st1"/>
				</g>
				<g id="shape4330-5">
					<title>Sheet.4330</title>
					<path d="M0 117.1 A1.88981 1.94553 -180 0 0 1.89 119.04 L54.8 119.04 A1.88981 1.94553 -180 0 0 56.69 117.1 L56.69
								 80.23 A1.88981 1.94553 -180 0 0 54.8 78.28 L1.89 78.28 A1.88981 1.94553 -180 0 0 0 80.23 L0 117.1
								 Z" class="st2"/>
				</g>
				<g id="shape4331-9" transform="translate(13.7575,-6.25798)">
					<title>Sheet.4331</title>
					<path d="M22.02 90.82 A7.26614 7.4804 -180 0 0 14.57 95.85 A7.29764 7.51282 -180 0 0 7.07 90.87 C0.33 91.44 0
								 98.3 0.12 100.93 C0.18 102.8 0.55 108.71 14.5 118.95 L14.62 119.04 L14.74 118.95 C28.68 108.62 29.02
								 102.6 29.07 100.65 C29.15 98.1 28.76 91.36 22.02 90.82 Z" class="st3"/>
				</g>
				<g id="shape4332-13" transform="translate(15.9087,-11.4835)">
					<title>Sheet.4332</title>
					<path d="M26.56 102 A10.8567 11.1768 0 0 1 25.54 108.1 A16.9417 17.4413 0 0 1 15.57 115.92 A2.29291 2.36052 -180
								 0 0 13.9 115.07 A2.33701 2.40592 -180 1 0 16.08 117.66 A23.3449 24.0332 -180 0 0 25.04 111.74 A10.4756
								 10.7845 -180 0 0 26.9 105.9 A13.0425 13.4271 -180 0 0 26.56 102 ZM6.48 116.27 L7.07 116.97 a0.900787
								 0.927348 -180 0 0 1.25984 0.074577 L9.68 115.81 a0.903937 0.930591 -180 0 0 0.0724409 -1.29699 a0.885039
								 0.911136 -180 0 0 -1.2378 -0.204276 a0.944882 0.972743 -180 0 0 -0.0850394 0.074577 L7.72 115.03
								 C3.3 110.02 2.04 106.16 4.08 104.32 C6.11 102.47 9.67 104.21 14.05 109.23 L13.35 109.88 a0.888189
								 0.914379 -180 0 0 -0.0787402 1.29699 a0.869291 0.894924 -180 0 0 1.22205 0.107002 L14.53 111.25
								 L15.86 110.03 a0.903937 0.930591 -180 0 0 0.0724409 -1.29699 L15.34 108.06 C12.37 104.62 7.23 100.36
								 3.69 102.49 A5.53071 5.69379 0 0 1 2.18 98.89 A3.91181 4.02716 0 0 1 2.81 96.53 A6.0189 6.19637
								 -180 0 0 0.49 97.95 A6.0378 6.21583 -180 0 0 2.4 103.72 C0 107.1 3.51 112.83 6.48 116.27 Z"
							class="st4"/>
				</g>
			</g>
		</g>
	</g>
</svg>
