<?xml version="1.0" encoding="UTF-8" standalone="no"?>
<!DOCTYPE svg PUBLIC "-//W3C//DTD SVG 1.1//EN" "http://www.w3.org/Graphics/SVG/1.1/DTD/svg11.dtd">
<!-- Generated by Microsoft Visio, SVG Export File Server.3258.svg Page-1 -->
<svg xmlns="http://www.w3.org/2000/svg" xmlns:xlink="http://www.w3.org/1999/xlink" xmlns:ev="http://www.w3.org/2001/xml-events"
		width="1.7319in" height="1.61396in" viewBox="0 0 124.697 116.205" xml:space="preserve" color-interpolation-filters="sRGB"
		class="st4">
	<style type="text/css">
	<![CDATA[
		.st1 {fill:#0078d4;stroke:none;stroke-linecap:butt;stroke-width:34.0001}
		.st2 {fill:#ffffff;stroke:none;stroke-linecap:butt;stroke-width:34.0001}
		.st3 {fill:url(#grad0-14);stroke:none;stroke-linecap:butt;stroke-width:34.0001}
		.st4 {fill:none;fill-rule:evenodd;font-size:12px;overflow:visible;stroke-linecap:square;stroke-miterlimit:3}
	]]>
	</style>

	<defs id="Patterns_And_Gradients">
		<linearGradient id="grad0-14" x1="0" y1="0" x2="1" y2="0" gradientTransform="rotate(88.955156399999 0.5 0.5)">
			<stop offset="0" stop-color="#32d4f5" stop-opacity="1"/>
			<stop offset="0.23" stop-color="#31d0f1" stop-opacity="1"/>
			<stop offset="0.46" stop-color="#2cc3e6" stop-opacity="1"/>
			<stop offset="0.7" stop-color="#25afd4" stop-opacity="1"/>
			<stop offset="0.94" stop-color="#1c92ba" stop-opacity="1"/>
			<stop offset="1" stop-color="#198ab3" stop-opacity="1"/>
		</linearGradient>
	</defs>
	<g>
		<title>Page-1</title>
		<g id="group3258-1" transform="translate(34.0039,-34.0157)">
			<title>File Server.3258</title>
			<g id="group3259-2">
				<title>Page-1</title>
				<g id="group3260-3">
					<title>Sheet.3260</title>
					<g id="group3261-4" transform="translate(9.06286,-36.4098)">
						<title>path10</title>
						<g id="shape3262-5">
							<title>Sheet.3262</title>
							<path d="M37.3 109.02 L6.28 104.43 L5.66 104.43 A4.60188 4.48839 -90 0 0 1.16 108.44 L0 116.21 L41.02
										 116.21 L41.02 114.33 A4.60188 4.48839 -90 0 0 37.3 109.02 Z" class="st1"/>
						</g>
					</g>
					<g id="group3263-7" transform="translate(10.9704,-36.5709)">
						<title>path12</title>
						<g id="shape3264-8">
							<title>Sheet.3264</title>
							<path d="M35.02 111 L4.04 106.41 L3.63 106.41 A2.66909 2.60326 -90 0 0 1.08 108.7 L0 116.21 L36.9 116.21
										 L37.21 114.04 A2.66909 2.60326 -90 0 0 35.02 111 Z" class="st2"/>
						</g>
					</g>
					<g id="group3265-10">
						<title>path14.2825</title>
						<g id="shape3266-11">
							<title>Sheet.3266</title>
							<path d="M1.16 73.91 L28.31 73.91 A1.51862 1.48117 90 0 1 29.26 74.33 L33.76 78.93 A1.33455 1.30163 -90
										 0 0 34.7 79.34 L55.34 79.33 A1.38056 1.34652 90 0 1 56.68 80.67 L56.69 114.87 A1.38056 1.34652
										 90 0 1 55.35 116.21 L1.49 116.2 A1.33455 1.30163 90 0 1 0.01 114.86 L0 75.39 A1.38056 1.34652
										 90 0 1 1.17 73.92 L1.16 73.91 Z" class="st3"/>
						</g>
					</g>
				</g>
			</g>
		</g>
	</g>
</svg>
