<?xml version="1.0" encoding="UTF-8" standalone="no"?>
<!DOCTYPE svg PUBLIC "-//W3C//DTD SVG 1.1//EN" "http://www.w3.org/Graphics/SVG/1.1/DTD/svg11.dtd">
<!-- Generated by Microsoft Visio, SVG Export File Share.svg Page-1 -->
<svg xmlns="http://www.w3.org/2000/svg" xmlns:xlink="http://www.w3.org/1999/xlink" xmlns:ev="http://www.w3.org/2001/xml-events"
		width="1.73185in" height="2.24388in" viewBox="0 0 124.693 161.559" xml:space="preserve" color-interpolation-filters="sRGB"
		class="st6">
	<style type="text/css">
	<![CDATA[
		.st1 {fill:#005ba1;stroke:none;stroke-linecap:butt;stroke-width:34}
		.st2 {fill:#50e5ff;stroke:none;stroke-linecap:butt;stroke-width:34}
		.st3 {fill:#0078d4;stroke:none;stroke-linecap:butt;stroke-width:34}
		.st4 {fill:#ffffff;stroke:none;stroke-linecap:butt;stroke-width:34}
		.st5 {fill:url(#grad0-18);stroke:none;stroke-linecap:butt;stroke-width:34}
		.st6 {fill:none;fill-rule:evenodd;font-size:12px;overflow:visible;stroke-linecap:square;stroke-miterlimit:3}
	]]>
	</style>

	<defs id="Patterns_And_Gradients">
		<linearGradient id="grad0-18" x1="0" y1="0" x2="1" y2="0" gradientTransform="rotate(88.955156399999 0.5 0.5)">
			<stop offset="0" stop-color="#32d4f5" stop-opacity="1"/>
			<stop offset="0.23" stop-color="#31d0f1" stop-opacity="1"/>
			<stop offset="0.46" stop-color="#2cc3e6" stop-opacity="1"/>
			<stop offset="0.7" stop-color="#25afd4" stop-opacity="1"/>
			<stop offset="0.94" stop-color="#1c92ba" stop-opacity="1"/>
			<stop offset="1" stop-color="#198ab3" stop-opacity="1"/>
		</linearGradient>
	</defs>
	<g>
		<title>Page-1</title>
		<g id="group2832-1" transform="translate(34,-70.8661)">
			<title>File Share</title>
			<g id="group2833-2">
				<title>g16</title>
				<g id="shape2834-3" transform="translate(10.2362,-7.33044)">
					<title>path2</title>
					<path d="M44.19 124.5 L41.32 124.5 A13.1024 13.0878 -180 0 0 39.59 124.5 A2.14173 2.13936 0 0 1 37.73 121.35
								 L38.96 119.15 A5.76378 5.75738 -180 0 0 37.35 118.24 L34.43 123.46 A2.20472 2.20228 0 0 1 32.54
								 124.56 L29.92 124.56 A2.07874 2.07643 -180 0 0 28.91 124.81 L23.97 127.96 a0.787402 0.786528 0 0
								 1 -0.503937 9.9476E-14 L6.36 127.96 a0.913386 0.912372 -180 0 0 -0.850394 1.00676 L5.51 144.13 L0
								 145.83 L0.41 147.59 L5.51 146.84 L5.51 155.96 a0.913386 0.912372 -180 0 0 0.913386 0.912372 L35.94
								 156.87 L39.56 161.56 L41.1 160.58 L38.96 156.87 L44.25 156.87 a0.913386 0.912372 -180 0 0 0.944882
								 -0.912372 L45.2 125.44 a0.944882 0.943833 -180 0 0 -1.00787 -0.943833 Z" class="st1"/>
				</g>
				<g id="shape2835-5" transform="translate(46.5827,-49.8344)">
					<title>circle4</title>
					<ellipse cx="3.43307" cy="158.13" rx="3.43307" ry="3.42926" class="st2"/>
				</g>
				<g id="shape2836-7" transform="translate(47.748,-5.68434E-14)">
					<title>circle6</title>
					<ellipse cx="4.47244" cy="157.092" rx="4.47244" ry="4.46748" class="st2"/>
				</g>
				<g id="shape2837-9" transform="translate(-1.1291E-13,-15.1013)">
					<title>circle8</title>
					<ellipse cx="5.5748" cy="155.99" rx="5.5748" ry="5.56862" class="st2"/>
				</g>
				<g id="shape2838-11" transform="translate(21.6063,-36.8095)">
					<title>path10</title>
					<path d="M26.17 156.65 L4.41 153.51 L3.97 153.51 A3.14961 3.14611 -180 0 0 0.82 156.24 L0 161.56 L28.79 161.56
								 L28.79 160.27 A3.14961 3.14611 -180 0 0 26.17 156.65 Z" class="st3"/>
				</g>
				<g id="shape2839-13" transform="translate(22.9921,-36.8095)">
					<title>path12</title>
					<path d="M24.57 158 L2.83 154.86 L2.55 154.86 A1.82677 1.82474 -180 0 0 0.76 156.43 L0 161.56 L25.89 161.56 L26.11
								 160.08 A1.82677 1.82474 -180 0 0 24.57 158 Z" class="st4"/>
				</g>
				<g id="shape2840-15" transform="translate(15.748,-12.0181)">
					<title>path14</title>
					<path d="M0.82 132.65 L19.87 132.65 A1.03937 1.03822 0 0 1 20.54 132.93 L23.69 136.08 a0.913386 0.912372 -180
								 0 0 0.661417 0.28315 L38.83 136.36 a0.944882 0.943833 0 0 1 0.944882 0.912372 L39.78 160.65 a0.944882
								 0.943833 0 0 1 -0.944882 0.912372 L1.04 161.56 a0.913386 0.912372 0 0 1 -1.03937 -0.912372 L0 133.65
								 a0.944882 0.943833 0 0 1 0.818898 -1.00676 Z" class="st5"/>
				</g>
			</g>
		</g>
	</g>
</svg>
