<?xml version="1.0" encoding="UTF-8" standalone="no"?>
<!DOCTYPE svg PUBLIC "-//W3C//DTD SVG 1.1//EN" "http://www.w3.org/Graphics/SVG/1.1/DTD/svg11.dtd">
<!-- Generated by Microsoft Visio, SVG Export FTP.svg Page-1 -->
<svg xmlns="http://www.w3.org/2000/svg" xmlns:xlink="http://www.w3.org/1999/xlink" xmlns:ev="http://www.w3.org/2001/xml-events"
		width="1.5748in" height="1.85039in" viewBox="0 0 113.386 133.228" xml:space="preserve" color-interpolation-filters="sRGB"
		class="st4">
	<style type="text/css">
	<![CDATA[
		.st1 {fill:url(#grad0-6);stroke:none;stroke-linecap:butt;stroke-width:0.75}
		.st2 {fill:#0078d4;stroke:none;stroke-linecap:butt;stroke-width:0.75}
		.st3 {fill:#f2f2f2;stroke:none;stroke-linecap:butt;stroke-width:0.75}
		.st4 {fill:none;fill-rule:evenodd;font-size:12px;overflow:visible;stroke-linecap:square;stroke-miterlimit:3}
	]]>
	</style>

	<defs id="Patterns_And_Gradients">
		<linearGradient id="grad0-6" x1="0" y1="0" x2="1" y2="0" gradientTransform="rotate(-90 0.5 0.5)">
			<stop offset="0" stop-color="#32bedd" stop-opacity="1"/>
			<stop offset="0.175" stop-color="#32caea" stop-opacity="1"/>
			<stop offset="0.41" stop-color="#32d2f2" stop-opacity="1"/>
			<stop offset="0.775" stop-color="#32d4f5" stop-opacity="1"/>
		</linearGradient>
	</defs>
	<g>
		<title>Page-1</title>
		<g id="group2773-1" transform="translate(28.3465,-70.8661)">
			<title>FTP</title>
			<g id="group2774-2">
				<title>Sheet.2774</title>
				<g id="shape2775-3">
					<title>Sheet.2775</title>
					<path d="M3.33 98.49 L56.69 98.49 L56.69 131.26 A1.78416 1.96506 0 0 1 54.91 133.23 L5.12 133.23 A1.78416 1.96506
								 0 0 1 3.33 131.26 L3.33 98.49 Z" class="st1"/>
				</g>
				<g id="shape2776-7" transform="translate(0,-34.7393)">
					<title>Sheet.2776</title>
					<path d="M5.13 120.71 L54.9 120.71 A1.78416 1.96506 0 0 1 56.69 122.66 L56.69 133.23 L3.33 133.23 L3.33 122.66
								 A1.78416 1.96506 0 0 1 5.13 120.71 Z" class="st2"/>
				</g>
				<g id="shape2777-9" transform="translate(10.845,-38.585)">
					<title>Sheet.2777</title>
					<path d="M-0 132.26 a0.877093 0.966024 -180 0 0 0.877073 0.966002 L37.47 133.23 a0.877093 0.966024 -180 0 0 0.877073
								 -0.966002 L38.35 129.24 a0.877093 0.966024 -180 0 0 -0.877073 -0.966002 L0.88 128.27 a0.877093 0.966024
								 -180 0 0 -0.877073 0.966002 L0 132.26 Z" class="st3"/>
				</g>
				<g id="group2778-11" transform="translate(16.1041,-6.57836)">
					<title>Sheet.2778</title>
					<g id="shape2779-12">
						<title>Sheet.2779</title>
						<path d="M5.94 132.59 L12.8 112.22 a0.900417 0.991713 -180 0 0 -0.843724 -1.3333 L7.69 110.88 a0.897082 0.98804
									 -180 0 0 -0.840389 0.64645 L0 131.9 a0.897082 0.98804 -180 0 0 0.840389 1.32963 L5.1 133.23
									 a0.900417 0.991713 -180 0 0 0.843724 -0.642777 Z" class="st3"/>
					</g>
					<g id="shape2780-14" transform="translate(15.0236,0)">
						<title>Sheet.2780</title>
						<path d="M5.94 132.59 L12.8 112.22 a0.897082 0.98804 -180 0 0 -0.840389 -1.3333 L7.7 110.88 a0.897082 0.98804
									 -180 0 0 -0.843724 0.64645 L0 131.9 a0.897082 0.98804 -180 0 0 0.843724 1.32963 L5.1 133.23
									 a0.897082 0.98804 -180 0 0 0.840389 -0.642777 Z" class="st3"/>
					</g>
				</g>
			</g>
		</g>
	</g>
</svg>
