<?xml version="1.0" encoding="UTF-8" standalone="no"?>
<!DOCTYPE svg PUBLIC "-//W3C//DTD SVG 1.1//EN" "http://www.w3.org/Graphics/SVG/1.1/DTD/svg11.dtd">
<!-- Generated by Microsoft Visio, SVG Export Generic Email Server.svg Page-1 -->
<svg xmlns="http://www.w3.org/2000/svg" xmlns:xlink="http://www.w3.org/1999/xlink" xmlns:ev="http://www.w3.org/2001/xml-events"
		width="2.21047in" height="2.11354in" viewBox="0 0 159.154 152.175" xml:space="preserve" color-interpolation-filters="sRGB"
		class="st8">
	<style type="text/css">
	<![CDATA[
		.st1 {fill:url(#grad0-11);stroke:none;stroke-linecap:butt;stroke-width:35.9597}
		.st2 {fill:#003067;stroke:none;stroke-linecap:butt;stroke-width:35.9597}
		.st3 {fill:#50e6ff;stroke:none;stroke-linecap:butt;stroke-width:35.9597}
		.st4 {fill:#50e6ff;stroke:none;stroke-linecap:butt;stroke-width:63.4472}
		.st5 {fill:#32bedd;stroke:none;stroke-linecap:butt;stroke-width:63.4472}
		.st6 {fill:#198ab3;stroke:none;stroke-linecap:butt;stroke-width:63.4472}
		.st7 {fill:url(#grad0-43);stroke:none;stroke-linecap:butt;stroke-width:63.4472}
		.st8 {fill:none;fill-rule:evenodd;font-size:12px;overflow:visible;stroke-linecap:square;stroke-miterlimit:3}
	]]>
	</style>

	<defs id="Patterns_And_Gradients">
		<linearGradient id="grad0-11" x1="0" y1="0" x2="1" y2="0" gradientTransform="rotate(-90 0.5 0.5)">
			<stop offset="0" stop-color="#949494" stop-opacity="1"/>
			<stop offset="0.53" stop-color="#a2a2a2" stop-opacity="1"/>
			<stop offset="1" stop-color="#b3b3b3" stop-opacity="1"/>
		</linearGradient>
		<linearGradient id="grad0-43" x1="0" y1="0" x2="1" y2="0" gradientTransform="rotate(90 0.5 0.5)">
			<stop offset="0" stop-color="#005ba1" stop-opacity="1"/>
			<stop offset="0.26" stop-color="#00589d" stop-opacity="1"/>
			<stop offset="0.53" stop-color="#004f90" stop-opacity="1"/>
			<stop offset="0.8" stop-color="#003f7c" stop-opacity="1"/>
			<stop offset="1" stop-color="#003067" stop-opacity="1"/>
		</linearGradient>
	</defs>
	<g>
		<title>Page-1</title>
		<g id="group3246-1" transform="translate(47.5177,-59.5217)">
			<title>Generic Email Server</title>
			<g id="group3247-2">
				<title>Page-1</title>
				<g id="group3248-3">
					<title>Sheet.3248</title>
					<g id="group3249-4">
						<title>Sheet.3249</title>
						<g id="group3250-5">
							<title>Icon-databases-136.149</title>
							<g id="group3251-6">
								<title>path4-5</title>
								<g id="group3252-7">
									<title>Sheet.3252</title>
									<g id="shape3253-8">
										<title>Sheet.3253</title>
										<path d="M32.26 150.25 A1.96687 1.90526 90 0 1 30.39 152.17 L1.87 152.17 A1.93295 1.87241
													 90 0 1 -0 150.25 L0 97.41 A1.89904 1.83956 90 0 1 1.87 95.48 L30.39 95.48 A1.93295
													 1.87241 90 0 1 32.26 97.41 L32.26 150.25 Z" class="st1"/>
									</g>
								</g>
							</g>
							<g id="group3254-12" transform="translate(4.7303,-33.1992)">
								<title>path6-7</title>
								<g id="group3255-13">
									<title>Sheet.3255</title>
									<g id="shape3256-14">
										<title>Sheet.3256</title>
										<path d="M-0 148.55 A3.62853 3.51487 90 0 1 3.48 144.95 L19.58 144.95 A3.62853 3.51487 90
													 0 1 23.19 148.55 A3.62853 3.51487 90 0 1 19.58 152.17 L3.48 152.17 A3.62853
													 3.51487 90 0 1 0 148.55 ZM0 137.83 A3.62853 3.51487 90 0 1 3.48 134.21 L19.58
													 134.21 A3.62853 3.51487 90 0 1 23.19 137.83 A3.62853 3.51487 90 0 1 19.58 141.43
													 L3.48 141.43 A3.62853 3.51487 90 0 1 -0 137.83 Z" class="st2"/>
									</g>
								</g>
							</g>
							<g id="group3257-16" transform="translate(6.04426,-45.0955)">
								<title>circle8-5</title>
								<g id="group3258-17">
									<title>Sheet.3258</title>
									<g id="shape3259-18">
										<title>Sheet.3259</title>
										<ellipse cx="2.36514" cy="149.733" rx="2.36514" ry="2.44163" class="st3"/>
									</g>
								</g>
							</g>
							<g id="group3260-20" transform="translate(6.04426,-34.3796)">
								<title>circle10-2</title>
								<g id="group3261-21">
									<title>Sheet.3261</title>
									<g id="shape3262-22">
										<title>Sheet.3262</title>
										<ellipse cx="2.36514" cy="149.733" rx="2.36514" ry="2.44163" class="st3"/>
									</g>
								</g>
							</g>
						</g>
					</g>
					<g id="group3263-24" transform="translate(15.9295,-3.92553)">
						<title>Data Share Invitation.316</title>
						<g id="group3264-25">
							<title>Icon-integration-214</title>
							<g id="group3265-26">
								<title>path4</title>
								<g id="group3266-27">
									<title>Sheet.3266</title>
									<g id="shape3267-28">
										<title>Sheet.3267</title>
										<path d="M32.26 130.38 L32.22 130.38 L32.22 130.3 L32.15 130.3 L15.43 130.39 L0.07 130.3
													 L0 130.3 L0 152.17 L32.22 152.17 L32.22 130.38 L32.26 130.38 Z" class="st4"/>
									</g>
								</g>
							</g>
							<g id="group3268-30">
								<title>path6</title>
								<g id="group3269-31">
									<title>Sheet.3269</title>
									<g id="shape3270-32">
										<title>Sheet.3270</title>
										<path d="M0 130.38 L0 152.17 L16.13 141.28 L0 130.38 Z" class="st5"/>
									</g>
								</g>
							</g>
							<g id="group3271-34" transform="translate(16.1281,0)">
								<title>path8</title>
								<g id="group3272-35">
									<title>Sheet.3272</title>
									<g id="shape3273-36">
										<title>Sheet.3273</title>
										<path d="M16.09 130.38 L0 141.28 L16.09 152.17 L16.09 130.38 Z" class="st6"/>
									</g>
								</g>
							</g>
							<g id="group3274-38" transform="translate(0,-2.01385E-06)">
								<title>path10</title>
								<g id="group3275-39">
									<title>Sheet.3275</title>
									<g id="shape3276-40">
										<title>Sheet.3276</title>
										<path d="M16.09 141.28 L0 152.14 L0 152.17 L32.22 152.17 L32.22 152.14 L16.09 141.28 Z"
												class="st7"/>
									</g>
								</g>
							</g>
						</g>
					</g>
				</g>
			</g>
		</g>
	</g>
</svg>
