<?xml version="1.0" encoding="UTF-8" standalone="no"?>
<!DOCTYPE svg PUBLIC "-//W3C//DTD SVG 1.1//EN" "http://www.w3.org/Graphics/SVG/1.1/DTD/svg11.dtd">
<!-- Generated by Microsoft Visio, SVG Export Geo Replication.svg Page-1 -->
<svg xmlns="http://www.w3.org/2000/svg" xmlns:xlink="http://www.w3.org/1999/xlink" xmlns:ev="http://www.w3.org/2001/xml-events"
		width="1.33858in" height="1.93462in" viewBox="0 0 96.378 139.293" xml:space="preserve" color-interpolation-filters="sRGB"
		class="st5">
	<style type="text/css">
	<![CDATA[
		.st1 {fill:#ff8c00;stroke:none;stroke-linecap:butt;stroke-width:12.24}
		.st2 {fill:#fcd116;stroke:none;stroke-linecap:butt;stroke-width:12.24}
		.st3 {fill:#59b4d9;stroke:#59b4d9;stroke-linecap:butt;stroke-width:2.83968}
		.st4 {fill:#b8d432;stroke:none;stroke-linecap:butt;stroke-width:12.24}
		.st5 {fill:none;fill-rule:evenodd;font-size:12px;overflow:visible;stroke-linecap:square;stroke-miterlimit:3}
	]]>
	</style>

	<g>
		<title>Page-1</title>
		<g id="group2749-1" transform="translate(24.0945,-70.8661)">
			<title>Geo Replication</title>
			<g id="group2750-2">
				<title>g14</title>
				<g id="shape2751-3" transform="translate(10.4008,8.52651E-14)">
					<title>path4</title>
					<path d="M13.02 128.45 L8.71 128.45 C9.75 134.95 6.15 135.89 0 135.89 L0 139.29 L20.92 139.29 L20.92 135.89 C14.77
								 135.89 11.98 134.96 13.02 128.45 Z" class="st1"/>
				</g>
				<g id="shape2752-5" transform="translate(10.403,5.68434E-14)">
					<title>path6</title>
					<rect x="0" y="135.886" width="20.9229" height="3.40706" class="st2"/>
				</g>
				<g id="shape2753-7" transform="translate(0.598702,-12.9686)">
					<title>path8</title>
					<path d="M22.8 130.83 A2.52919 2.60137 0 0 1 26.38 130.83 L22.38 126.72 A2.52926 2.60144 0 1 1 25.96 123.04 L27.02
								 124.13 L27.85 124.9 L29.8 126.91 A2.52926 2.60144 -180 0 0 33.38 123.23 L31.42 121.22 L30.18 119.95
								 L24.23 113.83 A2.52926 2.60144 0 1 1 27.81 110.15 L30.42 112.83 A2.52926 2.60144 0 1 1 33.99 109.15
								 L40.76 116.11 A20.3537 20.9345 -180 0 0 34.8 102.23 A20.3602 20.9413 -180 0 0 22.42 96.19 L25.45
								 99.31 A3.19132 3.28239 0 0 1 20.94 103.95 L18.87 101.81 A3.19132 3.28239 -180 0 0 14.35 106.46 L18.44
								 110.66 A3.19132 3.28239 0 0 1 13.93 115.3 L9.44 110.69 A3.19017 3.2812 0 0 1 4.28 114.37 L7.55 117.73
								 A3.19132 3.28239 0 0 1 3.04 122.37 L0 119.25 A20.357 20.9379 -180 0 0 5.88 131.98 C11.23 137.48
								 18.81 139.29 25.63 137.42 L22.8 134.51 A2.53137 2.60361 0 0 1 22.8 130.83 Z" class="st3"/>
				</g>
				<g id="shape2754-9" transform="translate(2.43805E-13,-14.843)">
					<title>path10</title>
					<path d="M41.36 117.99 L34.6 111.03 A2.52926 2.60144 -180 1 0 31.02 114.71 L28.41 112.02 A2.52926 2.60144 -180
								 1 0 24.83 115.7 L30.79 121.82 L32.02 123.1 L33.98 125.11 A2.52926 2.60144 0 0 1 30.4 128.79 L28.45
								 126.77 L27.62 126 L26.56 124.91 A2.52926 2.60144 -180 1 0 22.98 128.59 L26.98 132.7 A2.52926 2.60144
								 -180 0 0 23.4 136.38 L26.23 139.29 A20.3428 20.9233 -180 0 0 35.4 133.85 A20.4007 20.9829 -180 0
								 0 41.36 117.99 ZM8.15 124.24 A3.19017 3.2812 -180 0 0 8.15 119.6 L4.88 116.24 A3.19017 3.2812 -180
								 1 0 10.04 112.56 L14.53 117.18 A3.19132 3.28239 -180 0 0 19.04 112.53 L14.95 108.33 A3.19132 3.28239
								 0 1 1 19.46 103.69 L21.54 105.82 A3.19132 3.28239 -180 0 0 26.05 101.18 L23.02 98.06 C17.12 97.44
								 11 99.46 6.48 104.11 C1.96 108.76 0 115.05 0.6 121.12 L3.63 124.24 A3.19017 3.2812 -180 0 0 8.15
								 124.24 Z" class="st4"/>
				</g>
				<g id="shape2755-11" transform="translate(1.67047,-7.12875)">
					<title>path12</title>
					<path d="M19.27 139.29 C11.99 139.29 5.15 136.38 0 131.08 A1.9012 1.95545 0 1 1 2.69 128.32 A23.2926 23.9573
								 -180 0 0 19.27 135.38 A23.2926 23.9573 -180 0 0 35.85 128.32 C40.28 123.76 42.72 117.71 42.72 111.27
								 C42.72 104.82 40.28 98.77 35.85 94.21 A1.9012 1.95545 0 0 1 38.54 91.45 C43.68 96.74 46.52 103.78
								 46.52 111.27 C46.52 118.75 43.68 125.79 38.54 131.08 C33.39 136.38 26.55 139.29 19.27 139.29 Z"
							class="st2"/>
				</g>
			</g>
		</g>
	</g>
</svg>
