<?xml version="1.0" encoding="UTF-8" standalone="no"?>
<!-- Generated by Microsoft Visio, SVG Export HDInsight Cluster.4403.svg Page-1 -->
<svg xmlns:dc="http://purl.org/dc/elements/1.1/" xmlns:cc="http://creativecommons.org/ns#" xmlns:rdf="http://www.w3.org/1999/02/22-rdf-syntax-ns#" xmlns:svg="http://www.w3.org/2000/svg" xmlns="http://www.w3.org/2000/svg" xmlns:xlink="http://www.w3.org/1999/xlink" xmlns:sodipodi="http://sodipodi.sourceforge.net/DTD/sodipodi-0.dtd" xmlns:inkscape="http://www.inkscape.org/namespaces/inkscape" width="56.692091" height="56.693888" viewBox="0 0 56.692091 56.693888" xml:space="preserve" class="st4" version="1.1" id="svg45" sodipodi:docname="HDInsight Cluster.4403.svg" style="font-size:12px;overflow:visible;color-interpolation-filters:sRGB;fill:none;fill-rule:evenodd;stroke-linecap:square;stroke-miterlimit:3" inkscape:version="0.92.5 (2060ec1f9f, 2020-04-08)">
  <metadata id="metadata49">
    <rdf:RDF>
      <cc:Work rdf:about="">
        <dc:format>image/svg+xml</dc:format>
        <dc:type rdf:resource="http://purl.org/dc/dcmitype/StillImage" />
      </cc:Work>
    </rdf:RDF>
  </metadata>
  <sodipodi:namedview pagecolor="#ffffff" bordercolor="#666666" borderopacity="1" objecttolerance="10" gridtolerance="10" guidetolerance="10" inkscape:pageopacity="0" inkscape:pageshadow="2" inkscape:window-width="640" inkscape:window-height="480" id="namedview47" showgrid="false" inkscape:zoom="1.4193119" inkscape:cx="37.788719" inkscape:cy="37.786193" inkscape:window-x="0" inkscape:window-y="0" inkscape:window-maximized="0" inkscape:current-layer="svg45" />
	<style type="text/css" id="style2">
	<![CDATA[
		.st1 {fill:#0078d4;stroke:none;stroke-linecap:butt;stroke-width:34}
		.st2 {fill:url(#grad0-8);stroke:none;stroke-linecap:butt;stroke-width:34}
		.st3 {fill:#5ea0ef;stroke:none;stroke-linecap:butt;stroke-width:34}
		.st4 {fill:none;fill-rule:evenodd;font-size:12px;overflow:visible;stroke-linecap:square;stroke-miterlimit:3}
	]]>
	</style>

	<defs id="Patterns_And_Gradients">
		<linearGradient id="grad0-8" x1="0" y1="0" x2="1" y2="0" gradientTransform="rotate(-90,0.5,0.5)">
			<stop offset="0.09" stop-color="#32bedd" stop-opacity="1" id="stop4" />
			<stop offset="1" stop-color="#50e6ff" stop-opacity="1" id="stop6" />
		</linearGradient>
	<linearGradient inkscape:collect="always" xlink:href="#grad0-8" id="linearGradient4559" gradientTransform="scale(0.9882311,1.0119091)" x1="-8.9875579e-16" y1="110.74613" x2="12.495174" y2="110.74613" gradientUnits="userSpaceOnUse" /><linearGradient inkscape:collect="always" xlink:href="#grad0-8" id="linearGradient4561" gradientTransform="scale(0.9882311,1.0119091)" x1="-8.9875579e-16" y1="110.74613" x2="12.495174" y2="110.74613" gradientUnits="userSpaceOnUse" /><linearGradient inkscape:collect="always" xlink:href="#grad0-8" id="linearGradient4563" gradientTransform="scale(0.9882311,1.0119091)" x1="-8.9875579e-16" y1="110.74613" x2="12.495174" y2="110.74613" gradientUnits="userSpaceOnUse" /></defs>
	<g id="g43" transform="translate(-34.005248,-34.000411)">
		<title id="title10">Page-1</title>
		<g id="group4403-1" transform="translate(34,-34.0157)">
			<title id="title12">HDInsight Cluster.4403</title>
			<g id="group4404-2">
				<title id="title14">Microsoft_Azure_HDInsight_Icon</title>
				<g id="shape4405-3">
					<title id="title16">Sheet.4405</title>
					<path d="M 22.75,106.08 H 33.8 A 0.934452,0.956842 -180 0 0 34.701079,105.32819 12.3481,12.644 0 0 1 39.17,97.99 0.901079,0.922669 -180 0 0 39.403613,96.75977 L 33.67,86.5 A 0.901079,0.922669 -180 0 0 32.53531,86.124098 12.9155,13.2249 0 0 1 28.36,86.91 11.8809,12.1656 0 0 1 24.05,86.13 0.934452,0.956842 -180 0 0 22.91531,86.574248 L 17.18,96.82 a 0.934452,0.956842 -180 0 0 0.233613,1.23023 12.3481,12.644 0 0 1 4.436387,7.31977 0.901079,0.922669 -180 0 0 0.901079,0.71763 z M 16.08,74.34 H 9.4 A 0.901079,0.922669 -180 0 0 8.599041,74.818421 L 0.13,89.75 a 0.934452,0.956842 -180 0 0 0,0.956842 L 3.23,96.17 A 0.967825,0.991015 -180 0 0 4.46481,96.580075 12.0811,12.3706 0 0 1 9.8,95.32 a 8.97741,9.19252 0 0 1 1.34,0 1.03457,1.05936 -180 0 0 0.93,-0.48 l 2.64,-4.61 3.97,-7.04 a 0.901079,0.922669 -180 0 0 0,-1.05936 A 12.1812,12.4731 0 0 1 15.94,74.34 Z m 32.1,0.48 A 0.901079,0.922669 -180 0 0 47.379041,74.341579 L 40.71,74.34 a 12.248,12.5415 0 0 1 -2.61,7.76 0.901079,0.922669 -180 0 0 0,1.05936 l 4.01,7.07064 2.64,4.68 a 0.934452,0.956842 -180 0 0 0.934452,0.478421 L 46.95,95.39 a 12.5817,12.8832 0 0 1 5.37,1.26 0.901079,0.922669 -180 0 0 1.03457,-0.273384 L 56.46,90.88 a 0.934452,0.956842 -180 0 0 0,-0.956842 z M 34.27,111.55 H 22.29 A 0.934452,0.956842 -180 0 0 21.388921,112.16511 12.1479,12.439 0 0 1 16.75,118.28 0.967825,0.991015 -180 0 0 16.44964,119.57857 L 19.08,124.23 a 0.967825,0.991015 -180 0 0 0.800959,0.47842 L 36.74,124.71 a 0.967825,0.991015 -180 0 0 0.800959,-0.47842 L 40.14,119.62 A 0.934452,0.956842 -180 0 0 39.83964,118.32143 12.2814,12.5756 0 0 1 35.17,112.17 0.934452,0.956842 -180 0 0 34.268921,111.55489 Z" class="st1" id="path18" inkscape:connector-curvature="0" style="fill:#0078d4;stroke:none;stroke-width:34;stroke-linecap:butt" />
				</g>
				<g id="shape4406-5" transform="translate(3.62939,-10.4569)">
					<title id="title21">Sheet.4406</title>
					<ellipse cx="6.1740599" cy="118.387" rx="6.1740599" ry="6.32199" class="st2" id="ellipse23" style="fill:url(#linearGradient4559);stroke:none;stroke-width:34;stroke-linecap:butt" />
				</g>
				<g id="shape4407-9" transform="translate(40.5736,-10.4569)">
					<title id="title26">Sheet.4407</title>
					<ellipse cx="6.1740599" cy="118.387" rx="6.1740599" ry="6.32199" class="st2" id="ellipse28" style="fill:url(#linearGradient4561);stroke:none;stroke-width:34;stroke-linecap:butt" />
				</g>
				<g id="shape4408-12" transform="translate(22.1182,-44.0489)">
					<title id="title31">Sheet.4408</title>
					<ellipse cx="6.1740599" cy="118.387" rx="6.1740599" ry="6.32199" class="st2" id="ellipse33" style="fill:url(#linearGradient4563);stroke:none;stroke-width:34;stroke-linecap:butt" />
				</g>
				<g id="shape4409-15" transform="translate(26.9573)">
					<title id="title36">Sheet.4409</title>
					<path d="m 19.79,87.56 a 19.7904,20.2646 -180 0 0 -5.84,0.89 l 1,1.78 2.64,4.68 a 0.934452,0.956842 -180 0 0 0.934452,0.478421 L 19.79,95.39 a 12.5817,12.8832 0 0 1 5.37,1.26 0.901079,0.922669 -180 0 0 1.23481,-0.273384 L 29.03,91.73 29.74,90.47 A 19.6235,20.0937 -180 0 0 19.79,87.56 Z M 7.74,105.33 a 12.3481,12.644 0 0 1 4.47,-7.34 0.901079,0.922669 -180 0 0 0.233613,-1.23023 L 9.11,90.74 A 20.024,20.5038 -180 0 0 0,106.08 h 6.87 a 0.934452,0.956842 -180 0 0 0.867705,-0.75181 z m 0.47,6.84 A 0.934452,0.956842 -180 0 0 7.308921,111.55489 L 0.2,111.55 a 20.024,20.5038 -180 0 0 8.34,13.16 h 1.24 a 0.967825,0.991015 -180 0 0 0.800959,-0.47842 L 13.18,119.62 A 0.934452,0.956842 -180 0 0 12.87964,118.32143 12.2814,12.5756 0 0 1 8.08,112.17 Z" class="st3" id="path38" inkscape:connector-curvature="0" style="fill:#5ea0ef;stroke:none;stroke-width:34;stroke-linecap:butt" />
				</g>
			</g>
		</g>
	</g>
</svg>