<?xml version="1.0" encoding="UTF-8" standalone="no"?>
<!DOCTYPE svg PUBLIC "-//W3C//DTD SVG 1.1//EN" "http://www.w3.org/Graphics/SVG/1.1/DTD/svg11.dtd">
<!-- Generated by Microsoft Visio, SVG Export Host.svg Page-1 -->
<svg xmlns="http://www.w3.org/2000/svg" xmlns:xlink="http://www.w3.org/1999/xlink" xmlns:ev="http://www.w3.org/2001/xml-events"
		width="0.944882in" height="1.33858in" viewBox="0 0 68.0315 96.378" xml:space="preserve" color-interpolation-filters="sRGB"
		class="st5">
	<style type="text/css">
	<![CDATA[
		.st1 {fill:#32bedd;stroke:none;stroke-linecap:butt;stroke-width:0.75}
		.st2 {fill:url(#grad0-8);stroke:none;stroke-linecap:butt;stroke-width:0.75}
		.st3 {fill:#7fba00;stroke:none;stroke-linecap:butt;stroke-width:0.75}
		.st4 {fill:#b4ec36;stroke:none;stroke-linecap:butt;stroke-width:0.75}
		.st5 {fill:none;fill-rule:evenodd;font-size:12px;overflow:visible;stroke-linecap:square;stroke-miterlimit:3}
	]]>
	</style>

	<defs id="Patterns_And_Gradients">
		<linearGradient id="grad0-8" x1="0" y1="0" x2="1" y2="0" gradientTransform="rotate(-90 0.5 0.5)">
			<stop offset="0" stop-color="#198ab3" stop-opacity="1"/>
			<stop offset="1" stop-color="#32d4f5" stop-opacity="1"/>
		</linearGradient>
	</defs>
	<g>
		<title>Page-1</title>
		<g id="group4178-1" transform="translate(5.66929,-34.0157)">
			<title>Host</title>
			<g id="group4179-2">
				<title>Sheet.4179</title>
				<g id="shape4180-3" transform="translate(26.0666,-7.77406)">
					<title>Sheet.4180</title>
					<rect x="0" y="63.788" width="4.03508" height="32.5899" class="st1"/>
				</g>
				<g id="shape4181-5" transform="translate(0,-40.364)">
					<title>Sheet.4181</title>
					<path d="M54.39 80.05 L2.26 80.05 A2.34035 1.96898 -180 0 0 -0 82.02 L0 94.41 A2.34035 1.96898 -180 0 0 2.3 96.38
								 L54.39 96.38 A2.3 1.93503 -180 0 0 56.69 94.41 L56.69 82.02 A2.3 1.93503 -180 0 0 54.39 80.05 Z"
							class="st2"/>
				</g>
				<g id="shape4182-9" transform="translate(2.83773E-13,-18.2639)">
					<title>Sheet.4182</title>
					<path d="M54.23 80.08 L2.1 80.08 A2.3 1.93503 -180 0 0 0 82.02 L0 94.44 A2.25965 1.90108 -180 0 0 2.3 96.38 L54.23
								 96.38 A2.3 1.93503 -180 0 0 56.49 94.44 L56.49 82.02 A2.34035 1.96898 -180 0 0 54.23 80.08 Z"
							class="st2"/>
				</g>
				<g id="shape4183-12" transform="translate(22.3947,-9.9476E-14)">
					<title>Sheet.4183</title>
					<ellipse cx="6.09298" cy="91.2518" rx="6.09298" ry="5.12613" class="st3"/>
				</g>
				<g id="shape4184-14" transform="translate(22.2333,-0.0339479)">
					<title>Sheet.4184</title>
					<ellipse cx="6.09298" cy="91.2518" rx="6.09298" ry="5.12613" class="st2"/>
				</g>
				<g id="group4185-17" transform="translate(47.2912,-43.9285)">
					<title>Sheet.4185</title>
					<g id="shape4186-18" transform="translate(0,-6.14456)">
						<title>Sheet.4186</title>
						<path d="M0 95.87 a0.605276 0.50923 -180 0 0 0.605262 0.509218 L3.63 96.38 a0.605276 0.50923 -180 0 0 0.605262
									 -0.509218 L4.24 93.32 a0.605276 0.50923 -180 0 0 -0.605262 -0.509218 L0.61 92.81 a0.605276 0.50923
									 -180 0 0 -0.605262 0.509218 L0 95.87 Z" class="st4"/>
					</g>
					<g id="shape4187-20">
						<title>Sheet.4187</title>
						<path d="M0 95.87 a0.605276 0.50923 -180 0 0 0.605262 0.509218 L3.63 96.38 a0.605276 0.50923 -180 0 0 0.605262
									 -0.509218 L4.24 93.32 a0.605276 0.50923 -180 0 0 -0.605262 -0.509218 L0.61 92.81 a0.605276 0.50923
									 -180 0 0 -0.605262 0.509218 L0 95.87 Z" class="st4"/>
					</g>
				</g>
				<g id="group4188-22" transform="translate(47.2912,-21.8964)">
					<title>Sheet.4188</title>
					<g id="shape4189-23" transform="translate(0,-6.14456)">
						<title>Sheet.4189</title>
						<path d="M0 95.87 a0.605276 0.50923 -180 0 0 0.605262 0.509218 L3.63 96.38 a0.605276 0.50923 -180 0 0 0.605262
									 -0.509218 L4.24 93.32 a0.605276 0.50923 -180 0 0 -0.605262 -0.509218 L0.61 92.81 a0.605276 0.50923
									 -180 0 0 -0.605262 0.509218 L0 95.87 Z" class="st4"/>
					</g>
					<g id="shape4190-25">
						<title>Sheet.4190</title>
						<path d="M0 95.87 a0.605276 0.50923 -180 0 0 0.605262 0.509218 L3.63 96.38 a0.605276 0.50923 -180 0 0 0.605262
									 -0.509218 L4.24 93.32 a0.605276 0.50923 -180 0 0 -0.605262 -0.509218 L0.61 92.81 a0.605276 0.50923
									 -180 0 0 -0.605262 0.509218 L0 95.87 Z" class="st4"/>
					</g>
				</g>
			</g>
		</g>
	</g>
</svg>
