<?xml version="1.0" encoding="UTF-8" standalone="no"?>
<!DOCTYPE svg PUBLIC "-//W3C//DTD SVG 1.1//EN" "http://www.w3.org/Graphics/SVG/1.1/DTD/svg11.dtd">
<!-- Generated by Microsoft Visio, SVG Export HPC Cache.svg Page-1 -->
<svg xmlns="http://www.w3.org/2000/svg" xmlns:xlink="http://www.w3.org/1999/xlink" xmlns:ev="http://www.w3.org/2001/xml-events"
		width="1.73185in" height="2.12188in" viewBox="0 0 124.693 152.776" xml:space="preserve" color-interpolation-filters="sRGB"
		class="st6">
	<style type="text/css">
	<![CDATA[
		.st1 {fill:url(#grad0-6);stroke:none;stroke-linecap:butt;stroke-width:34}
		.st2 {fill:#50e6ff;stroke:none;stroke-linecap:butt;stroke-width:34}
		.st3 {fill:#ffffff;stroke:none;stroke-linecap:butt;stroke-width:34}
		.st4 {fill:#ffffff;fill-opacity:0.8;stroke:none;stroke-linecap:butt;stroke-width:34}
		.st5 {fill:#ffffff;fill-opacity:0.6;stroke:none;stroke-linecap:butt;stroke-width:34}
		.st6 {fill:none;fill-rule:evenodd;font-size:12px;overflow:visible;stroke-linecap:square;stroke-miterlimit:3}
	]]>
	</style>

	<defs id="Patterns_And_Gradients">
		<linearGradient id="grad0-6" x1="0" y1="0" x2="1" y2="0" gradientTransform="rotate(-90 0.5 0.5)">
			<stop offset="0" stop-color="#0078d4" stop-opacity="1"/>
			<stop offset="1" stop-color="#5ea0ef" stop-opacity="1"/>
		</linearGradient>
	</defs>
	<g>
		<title>Page-1</title>
		<g id="group2678-1" transform="translate(34,-67.748)">
			<title>HPC Cache</title>
			<g id="group2679-2">
				<title>Sheet.2679</title>
				<g id="shape2680-3" transform="translate(0,-10.7986)">
					<title>Sheet.2680</title>
					<path d="M56.69 140.18 A12.8945 12.6639 -180 0 0 45.64 127.92 A16.1858 15.8964 -180 0 0 29.1 112.55 A16.5984
								 16.3016 -180 0 0 13.28 123.3 A15.2976 15.0241 -180 0 0 0 137.93 A15.5496 15.2715 -180 0 0 15.96
								 152.78 C16.44 152.78 16.91 152.75 17.37 152.71 L43.22 152.71 A2.45984 2.41585 -180 0 0 43.9 152.61
								 A13.0079 12.7752 -180 0 0 56.69 140.18 Z" class="st1"/>
				</g>
				<g id="shape2681-7" transform="translate(23.1496,-2.46534)">
					<title>Sheet.2681</title>
					<path d="M0 150.92 A1.88981 1.85601 -180 0 0 1.89 152.78 L26.46 152.78 A1.88981 1.85601 -180 0 0 28.35 150.92
								 L28.35 126.79 A1.88981 1.85601 -180 0 0 26.46 124.94 L1.89 124.94 A1.88981 1.85601 -180 0 0 0 126.79
								 L0 150.92 Z" class="st2"/>
				</g>
				<g id="shape2682-9" transform="translate(21.7764,2.55795E-13)">
					<title>Sheet.2682</title>
					<path d="M0 150.92 A1.88981 1.85601 -180 0 0 1.89 152.78 L29.2 152.78 A1.88981 1.85601 -180 0 0 31.09 150.92
								 L31.09 124.1 A1.88981 1.85601 -180 0 0 29.2 122.24 L1.89 122.24 A1.88981 1.85601 -180 0 0 -0 124.1
								 L0 150.92 Z" class="st2"/>
				</g>
				<g id="shape2683-11" transform="translate(26.4346,-21.1271)">
					<title>Sheet.2683</title>
					<path d="M0 151.85 a0.944904 0.928005 -180 0 0 0.944882 0.927983 L21.94 152.78 a0.944904 0.928005 -180 0 0 0.944882
								 -0.927983 L22.89 148.46 a0.944904 0.928005 -180 0 0 -0.944882 -0.927983 L0.94 147.53 a0.944904 0.928005
								 -180 0 0 -0.944882 0.927983 L0 151.85 Z" class="st3"/>
				</g>
				<g id="shape2684-13" transform="translate(26.4346,-12.6484)">
					<title>Sheet.2684</title>
					<path d="M0 151.85 a0.944904 0.928005 -180 0 0 0.944882 0.927983 L21.94 152.78 a0.944904 0.928005 -180 0 0 0.944882
								 -0.927983 L22.89 148.46 a0.944904 0.928005 -180 0 0 -0.944882 -0.927983 L0.94 147.53 a0.944904 0.928005
								 -180 0 0 -0.944882 0.927983 L0 151.85 Z" class="st4"/>
				</g>
				<g id="shape2685-15" transform="translate(26.4346,-4.16974)">
					<title>Sheet.2685</title>
					<path d="M0 151.85 a0.944904 0.928005 -180 0 0 0.944882 0.927983 L21.94 152.78 a0.944904 0.928005 -180 0 0 0.944882
								 -0.927983 L22.89 148.46 a0.944904 0.928005 -180 0 0 -0.944882 -0.927983 L0.94 147.53 a0.944904 0.928005
								 -180 0 0 -0.944882 0.927983 L0 151.85 Z" class="st5"/>
				</g>
			</g>
		</g>
	</g>
</svg>
