<?xml version="1.0" encoding="UTF-8" standalone="no"?>
<!DOCTYPE svg PUBLIC "-//W3C//DTD SVG 1.1//EN" "http://www.w3.org/Graphics/SVG/1.1/DTD/svg11.dtd">
<!-- Generated by Microsoft Visio, SVG Export HPC Cache.svg Page-1 -->
<svg xmlns="http://www.w3.org/2000/svg" xmlns:xlink="http://www.w3.org/1999/xlink" xmlns:ev="http://www.w3.org/2001/xml-events"
		width="1.73185in" height="1.65338in" viewBox="0 0 124.693 119.043" xml:space="preserve" color-interpolation-filters="sRGB"
		class="st6">
	<style type="text/css">
	<![CDATA[
		.st1 {fill:url(#grad0-6);stroke:none;stroke-linecap:butt;stroke-width:34}
		.st2 {fill:#50e6ff;stroke:none;stroke-linecap:butt;stroke-width:34}
		.st3 {fill:#ffffff;stroke:none;stroke-linecap:butt;stroke-width:34}
		.st4 {fill:#ffffff;fill-opacity:0.8;stroke:none;stroke-linecap:butt;stroke-width:34}
		.st5 {fill:#ffffff;fill-opacity:0.6;stroke:none;stroke-linecap:butt;stroke-width:34}
		.st6 {fill:none;fill-rule:evenodd;font-size:12px;overflow:visible;stroke-linecap:square;stroke-miterlimit:3}
	]]>
	</style>

	<defs id="Patterns_And_Gradients">
		<linearGradient id="grad0-6" x1="0" y1="0" x2="1" y2="0" gradientTransform="rotate(-90 0.5 0.5)">
			<stop offset="0" stop-color="#0078d4" stop-opacity="1"/>
			<stop offset="1" stop-color="#5ea0ef" stop-opacity="1"/>
		</linearGradient>
	</defs>
	<g>
		<title>Page-1</title>
		<g id="group4134-1" transform="translate(34,-34.0157)">
			<title>HPC Cache</title>
			<g id="group4135-2">
				<title>Sheet.4135</title>
				<g id="shape4136-3" transform="translate(0,-10.7986)">
					<title>Sheet.4136</title>
					<path d="M56.69 106.44 A12.8945 12.6639 -180 0 0 45.64 94.19 A16.1858 15.8964 -180 0 0 29.1 78.82 A16.5984 16.3016
								 -180 0 0 13.28 89.57 A15.2976 15.0241 -180 0 0 0 104.2 A15.5496 15.2715 -180 0 0 15.96 119.04 C16.44
								 119.04 16.91 119.02 17.37 118.98 L43.22 118.98 A2.45984 2.41585 -180 0 0 43.9 118.88 A13.0079 12.7752
								 -180 0 0 56.69 106.44 Z" class="st1"/>
				</g>
				<g id="shape4137-7" transform="translate(23.1496,-2.46534)">
					<title>Sheet.4137</title>
					<path d="M0 117.19 A1.88981 1.85601 -180 0 0 1.89 119.04 L26.46 119.04 A1.88981 1.85601 -180 0 0 28.35 117.19
								 L28.35 93.06 A1.88981 1.85601 -180 0 0 26.46 91.2 L1.89 91.2 A1.88981 1.85601 -180 0 0 0 93.06 L0
								 117.19 Z" class="st2"/>
				</g>
				<g id="shape4138-9" transform="translate(21.7764,2.55795E-13)">
					<title>Sheet.4138</title>
					<path d="M0 117.19 A1.88981 1.85601 -180 0 0 1.89 119.04 L29.2 119.04 A1.88981 1.85601 -180 0 0 31.09 117.19
								 L31.09 90.37 A1.88981 1.85601 -180 0 0 29.2 88.51 L1.89 88.51 A1.88981 1.85601 -180 0 0 -0 90.37
								 L0 117.19 Z" class="st2"/>
				</g>
				<g id="shape4139-11" transform="translate(26.4346,-21.1271)">
					<title>Sheet.4139</title>
					<path d="M0 118.12 a0.944904 0.928005 -180 0 0 0.944882 0.927983 L21.94 119.04 a0.944904 0.928005 -180 0 0 0.944882
								 -0.927983 L22.89 114.73 a0.944904 0.928005 -180 0 0 -0.944882 -0.927983 L0.94 113.8 a0.944904 0.928005
								 -180 0 0 -0.944882 0.927983 L0 118.12 Z" class="st3"/>
				</g>
				<g id="shape4140-13" transform="translate(26.4346,-12.6484)">
					<title>Sheet.4140</title>
					<path d="M0 118.12 a0.944904 0.928005 -180 0 0 0.944882 0.927983 L21.94 119.04 a0.944904 0.928005 -180 0 0 0.944882
								 -0.927983 L22.89 114.73 a0.944904 0.928005 -180 0 0 -0.944882 -0.927983 L0.94 113.8 a0.944904 0.928005
								 -180 0 0 -0.944882 0.927983 L0 118.12 Z" class="st4"/>
				</g>
				<g id="shape4141-15" transform="translate(26.4346,-4.16974)">
					<title>Sheet.4141</title>
					<path d="M0 118.12 a0.944904 0.928005 -180 0 0 0.944882 0.927983 L21.94 119.04 a0.944904 0.928005 -180 0 0 0.944882
								 -0.927983 L22.89 114.73 a0.944904 0.928005 -180 0 0 -0.944882 -0.927983 L0.94 113.8 a0.944904 0.928005
								 -180 0 0 -0.944882 0.927983 L0 118.12 Z" class="st5"/>
				</g>
			</g>
		</g>
	</g>
</svg>
