<?xml version="1.0" encoding="UTF-8" standalone="no"?>
<!DOCTYPE svg PUBLIC "-//W3C//DTD SVG 1.1//EN" "http://www.w3.org/Graphics/SVG/1.1/DTD/svg11.dtd">
<!-- Generated by Microsoft Visio, SVG Export Instance Pool.svg Page-1 -->
<svg xmlns="http://www.w3.org/2000/svg" xmlns:xlink="http://www.w3.org/1999/xlink" xmlns:ev="http://www.w3.org/2001/xml-events"
		width="1.73186in" height="1.73206in" viewBox="0 0 124.694 124.709" xml:space="preserve" color-interpolation-filters="sRGB"
		class="st8">
	<style type="text/css">
	<![CDATA[
		.st1 {fill:#777777;stroke:none;stroke-linecap:butt;stroke-width:34}
		.st2 {fill:#999999;stroke:none;stroke-linecap:butt;stroke-width:34}
		.st3 {fill:url(#grad0-10);stroke:none;stroke-linecap:butt;stroke-width:34}
		.st4 {fill:#003067;stroke:none;stroke-linecap:butt;stroke-width:34}
		.st5 {fill:#50e6ff;stroke:none;stroke-linecap:butt;stroke-width:34}
		.st6 {fill:url(#grad0-18);stroke:none;stroke-linecap:butt;stroke-width:34}
		.st7 {fill:#f2f2f2;stroke:none;stroke-linecap:butt;stroke-width:34}
		.st8 {fill:none;fill-rule:evenodd;font-size:12px;overflow:visible;stroke-linecap:square;stroke-miterlimit:3}
	]]>
	</style>

	<defs id="Patterns_And_Gradients">
		<linearGradient id="grad0-10" x1="0" y1="0" x2="1" y2="0" gradientTransform="rotate(-90 0.5 0.5)">
			<stop offset="0" stop-color="#949494" stop-opacity="1"/>
			<stop offset="0.53" stop-color="#a2a2a2" stop-opacity="1"/>
			<stop offset="1" stop-color="#b3b3b3" stop-opacity="1"/>
		</linearGradient>
		<linearGradient id="grad0-18" x1="0" y1="0" x2="1" y2="0" gradientTransform="rotate(-90 0.5 0.5)">
			<stop offset="0" stop-color="#0078d4" stop-opacity="1"/>
			<stop offset="0.16" stop-color="#1380da" stop-opacity="1"/>
			<stop offset="0.53" stop-color="#3c91e5" stop-opacity="1"/>
			<stop offset="0.82" stop-color="#559cec" stop-opacity="1"/>
			<stop offset="1" stop-color="#5ea0ef" stop-opacity="1"/>
		</linearGradient>
	</defs>
	<g>
		<title>Page-1</title>
		<g id="group2613-1" transform="translate(34.0012,-34.0157)">
			<title>Instance Pool</title>
			<g id="group2614-2">
				<title>Sheet.2614</title>
				<g id="shape2615-3" transform="translate(13.3395,-13.7171)">
					<title>Sheet.2615</title>
					<path d="M32.75 122.78 A1.96758 1.99337 0 0 1 30.85 124.71 L1.9 124.71 A1.90088 1.9258 0 0 1 0 122.78 L0 83.66
								 A1.83418 1.85823 0 0 1 1.83 81.73 L30.85 81.73 A1.90088 1.9258 0 0 1 32.75 83.66 L32.75 122.78 Z"
							class="st1"/>
				</g>
				<g id="shape2616-5" transform="translate(6.66975,-6.95992)">
					<title>Sheet.2616</title>
					<path d="M32.75 122.78 A1.96758 1.99337 0 0 1 30.85 124.71 L1.9 124.71 A1.90088 1.9258 0 0 1 0 122.78 L0 83.66
								 A1.83418 1.85823 0 0 1 1.83 81.73 L30.85 81.73 A1.90088 1.9258 0 0 1 32.75 83.66 L32.75 122.78 Z"
							class="st2"/>
				</g>
				<g id="shape2617-7" transform="translate(-2.81775E-13,-0.202716)">
					<title>Sheet.2617</title>
					<path d="M32.75 122.78 A1.96758 1.99337 0 0 1 30.85 124.71 L1.9 124.71 A1.93423 1.95959 0 0 1 -0 122.78 L0 83.66
								 A1.83418 1.85823 0 0 1 1.83 81.73 L30.85 81.73 A1.90088 1.9258 0 0 1 32.75 83.66 L32.75 122.78 Z"
							class="st3"/>
				</g>
				<g id="shape2618-11" transform="translate(4.80222,-30.475)">
					<title>Sheet.2618</title>
					<path d="M0 121.13 A3.53497 3.58132 0 0 1 3.53 117.51 L19.88 117.51 A3.56832 3.6151 0 0 1 23.54 120.89 A3.60167
								 3.64889 0 0 1 19.94 124.71 L3.53 124.71 A3.60167 3.64889 0 0 1 -0 121.13 Z" class="st4"/>
				</g>
				<g id="shape2619-13" transform="translate(6.13617,-31.6237)">
					<title>Sheet.2619</title>
					<ellipse cx="2.40111" cy="122.276" rx="2.40111" ry="2.43259" class="st5"/>
				</g>
				<g id="shape2620-15" transform="translate(6.93654,-2.84217E-13)">
					<title>Sheet.2620</title>
					<path d="M49.76 113.53 A11.1718 11.3183 -180 0 0 40.05 102.65 A14.0398 14.2239 -180 0 0 25.55 89.13 A14.3733
								 14.5618 -180 0 0 11.74 98.52 A13.3395 13.5144 -180 0 0 0 111.53 A13.5396 13.7171 -180 0 0 14.01
								 124.71 L38.65 124.71 A11.2719 11.4197 -180 0 0 49.76 113.53 Z" class="st6"/>
				</g>
				<g id="shape2621-19" transform="translate(14.8402,-3.75025)">
					<title>Sheet.2621</title>
					<path d="M28.88 118.53 L28.88 107.17 L25.78 107.17 L25.78 121.09 L33.95 121.09 L33.95 118.53 L28.88 118.53 ZM5.2
								 112.95 A8.90412 9.02086 0 0 1 3.5 111.9 A1.56739 1.58794 0 0 1 3.1 110.82 A1.06716 1.08115 0 0 1
								 3.6 109.81 A2.10097 2.12852 0 0 1 5 109.4 A5.60259 5.67605 0 0 1 8.34 110.38 L8.34 107.48 A9.40435
								 9.52765 -180 0 0 5 106.97 A5.66929 5.74362 -180 0 0 1.37 108.09 A3.60167 3.64889 -180 0 0 -0 111.09
								 A4.50208 4.56111 -180 0 0 3.13 115.15 A8.37054 8.48029 0 0 1 5.17 116.36 A1.40065 1.41901 0 0 1
								 5.67 117.44 A1.10051 1.11494 0 0 1 5.17 118.46 A2.6012 2.63531 0 0 1 3.67 118.86 A5.36915 5.43955
								 0 0 1 0.17 117.44 L0.17 120.55 A7.60352 7.70321 -180 0 0 3.5 121.33 A6.43631 6.5207 -180 0 0 7.34
								 120.38 A3.53497 3.58132 -180 0 0 8.77 117.31 A3.33488 3.3786 -180 0 0 7.94 114.94 A7.53682 7.63564
								 -180 0 0 5.2 112.95 ZM22.41 118.29 A7.77026 7.87214 -180 0 0 23.51 114.03 A7.57017 7.66942 -180
								 0 0 22.68 110.25 A5.66929 5.74362 -180 0 0 20.38 107.75 A6.26957 6.35177 -180 0 0 16.84 106.87 A7.00324
								 7.09506 -180 0 0 13.51 107.85 A6.23622 6.31798 -180 0 0 11.07 110.45 A8.30384 8.41271 -180 0 0 10.17
								 114.3 A7.60352 7.70321 -180 0 0 10.97 117.85 A6.20287 6.2842 -180 0 0 13.24 120.35 A6.9032 6.9937
								 -180 0 0 16.57 121.33 L19.41 124.71 L23.51 124.71 L19.54 120.99 A6.06948 6.14905 -180 0 0 22.41
								 118.29 ZM19.31 117.44 A3.10144 3.1421 0 0 1 16.77 118.63 A3.06809 3.10831 0 0 1 14.27 117.41 A5.00232
								 5.0679 0 0 1 13.34 114.03 A4.76887 4.8314 0 0 1 14.31 110.65 A3.10144 3.1421 0 0 1 16.87 109.4 A2.90134
								 2.93938 0 0 1 19.34 110.65 A4.93562 5.00033 0 0 1 20.28 114.03 A4.90227 4.96654 0 0 1 19.31 117.44
								 Z" class="st7"/>
				</g>
			</g>
		</g>
	</g>
</svg>
