<?xml version="1.0" encoding="UTF-8" standalone="no"?>
<!-- Generated by Microsoft Visio, SVG Export IoT Edge Device.svg Page-1 -->

<svg
   xmlns:dc="http://purl.org/dc/elements/1.1/"
   xmlns:cc="http://creativecommons.org/ns#"
   xmlns:rdf="http://www.w3.org/1999/02/22-rdf-syntax-ns#"
   xmlns:svg="http://www.w3.org/2000/svg"
   xmlns="http://www.w3.org/2000/svg"
   xmlns:sodipodi="http://sodipodi.sourceforge.net/DTD/sodipodi-0.dtd"
   xmlns:inkscape="http://www.inkscape.org/namespaces/inkscape"
   width="0.80979306in"
   height="0.75976914in"
   viewBox="0 0 58.30497 54.703397"
   xml:space="preserve"
   class="st4"
   version="1.1"
   id="svg35"
   sodipodi:docname="IoT Edge Device.svg"
   style="font-size:12px;overflow:visible;color-interpolation-filters:sRGB;fill:none;fill-rule:evenodd;stroke-linecap:square;stroke-miterlimit:3"
   inkscape:version="0.92.5 (2060ec1f9f, 2020-04-08)"><metadata
   id="metadata39"><rdf:RDF><cc:Work
       rdf:about=""><dc:format>image/svg+xml</dc:format><dc:type
         rdf:resource="http://purl.org/dc/dcmitype/StillImage" /></cc:Work></rdf:RDF></metadata><sodipodi:namedview
   pagecolor="#ffffff"
   bordercolor="#666666"
   borderopacity="1"
   objecttolerance="10"
   gridtolerance="10"
   guidetolerance="10"
   inkscape:pageopacity="0"
   inkscape:pageshadow="2"
   inkscape:window-width="640"
   inkscape:window-height="480"
   id="namedview37"
   showgrid="false"
   inkscape:zoom="1.4423199"
   inkscape:cx="38.865611"
   inkscape:cy="36.459718"
   inkscape:window-x="0"
   inkscape:window-y="0"
   inkscape:window-maximized="0"
   inkscape:current-layer="svg35" />
	<style
   type="text/css"
   id="style2">
	<![CDATA[
		.st1 {fill:url(#grad0-6);stroke:none;stroke-linecap:butt;stroke-width:34}
		.st2 {fill:#e6e6e6;stroke:none;stroke-linecap:butt;stroke-width:34}
		.st3 {fill:#50e6ff;stroke:none;stroke-linecap:butt;stroke-width:34}
		.st4 {fill:none;fill-rule:evenodd;font-size:12px;overflow:visible;stroke-linecap:square;stroke-miterlimit:3}
	]]>
	</style>

	<defs
   id="Patterns_And_Gradients">
		<linearGradient
   id="grad0-6"
   x1="0"
   y1="70.759543"
   x2="51.491422"
   y2="70.759543"
   gradientTransform="scale(0.9961853,1.0038293)"
   gradientUnits="userSpaceOnUse">
			<stop
   offset="0"
   stop-color="#5ea0ef"
   stop-opacity="1"
   id="stop4" />
			<stop
   offset="0.815"
   stop-color="#0078d4"
   stop-opacity="1"
   id="stop6" />
		</linearGradient>
	</defs>
	<g
   id="g33"
   transform="translate(-34.003445,-34.000901)">
		<title
   id="title10">Page-1</title>
		<g
   id="group3911-1"
   transform="translate(35.6122,-34.0157)">
			<title
   id="title12">IoT Edge Device</title>
			<g
   id="group3912-2">
				<title
   id="title14">Sheet.3912</title>
				<g
   id="shape3913-3"
   transform="translate(3.90195,-1.50739)">
					<title
   id="title16">Sheet.3913</title>
					<ellipse
   cx="25.647499"
   cy="96.874802"
   rx="25.647499"
   ry="25.844299"
   class="st1"
   id="ellipse18"
   style="fill:url(#grad0-6);stroke:none;stroke-width:34;stroke-linecap:butt" />
				</g>
				<g
   id="shape3914-7"
   transform="translate(10.3562)">
					<title
   id="title21">Sheet.3914</title>
					<path
   d="M 19.19,122.72 A 27.1434,27.3517 0 1 1 46.34,95.37 27.1726,27.381 0 0 1 19.19,122.72 Z m 0,-51.69 A 24.1516,24.3369 -180 1 0 43.34,95.37 24.1743,24.3597 -180 0 0 19.19,71.03 Z"
   class="st2"
   id="path23"
   inkscape:connector-curvature="0"
   style="fill:#e6e6e6;stroke:none;stroke-width:34;stroke-linecap:butt" />
				</g>
				<g
   id="shape3915-9"
   transform="translate(0,-3.10914)">
					<title
   id="title26">Sheet.3915</title>
					<path
   d="m 46.78,100.83 a 7.74185,7.80124 -180 0 0 -6.72,-7.51 9.75908,9.83394 -180 0 0 -10.04,-9.4 10.0116,10.0884 -180 0 0 -9.59,6.58 9.23453,9.30537 -180 0 0 -8.1,8.96 9.38995,9.46198 -180 0 0 9.72,9.08 c 0.29,0 0.57,0 0.85,-0.04 h 15.72 a 1.4603,1.4715 -180 0 0 0.41,-0.07 7.82928,7.88934 -180 0 0 7.75,-7.6 z M 9.4,98.48 A 5.50446,5.54668 0 1 1 3.89,92.93 5.50446,5.54668 0 0 1 9.4,98.48 Z M 44.78,71.97 a 5.50446,5.54668 -180 1 0 5.5,5.55 5.50446,5.54668 -180 0 0 -5.5,-5.55 z m 0,41.28 a 5.50446,5.54668 -180 1 0 5.5,5.55 5.50446,5.54668 -180 0 0 -5.5,-5.55 z"
   class="st3"
   id="path28"
   inkscape:connector-curvature="0"
   style="fill:#50e6ff;stroke:none;stroke-width:34;stroke-linecap:butt" />
				</g>
			</g>
		</g>
	</g>
</svg>