<?xml version="1.0" encoding="UTF-8" standalone="no"?>
<!DOCTYPE svg PUBLIC "-//W3C//DTD SVG 1.1//EN" "http://www.w3.org/Graphics/SVG/1.1/DTD/svg11.dtd">
<!-- Generated by Microsoft Visio, SVG Export IoT Sphere.svg Page-1 -->
<svg xmlns="http://www.w3.org/2000/svg" xmlns:xlink="http://www.w3.org/1999/xlink" xmlns:ev="http://www.w3.org/2001/xml-events"
		width="1.41732in" height="1.85039in" viewBox="0 0 102.047 133.228" xml:space="preserve" color-interpolation-filters="sRGB"
		class="st6">
	<style type="text/css">
	<![CDATA[
		.st1 {fill:url(#grad0-6);stroke:none;stroke-linecap:butt;stroke-width:2.02824}
		.st2 {fill:url(#grad0-10);stroke:none;stroke-linecap:butt;stroke-width:2.02824}
		.st3 {fill:#50e6ff;stroke:none;stroke-linecap:butt;stroke-width:2.02824}
		.st4 {fill:#ffffff;stroke:none;stroke-linecap:butt;stroke-width:2.02824}
		.st5 {fill:#b3b3b3;stroke:none;stroke-linecap:butt;stroke-width:2.02824}
		.st6 {fill:none;fill-rule:evenodd;font-size:12px;overflow:visible;stroke-linecap:square;stroke-miterlimit:3}
	]]>
	</style>

	<defs id="Patterns_And_Gradients">
		<linearGradient id="grad0-6" x1="0" y1="0" x2="1" y2="0" gradientTransform="rotate(-90 0.5 0.5)">
			<stop offset="0" stop-color="#198ab3" stop-opacity="1"/>
			<stop offset="0.44" stop-color="#28b7db" stop-opacity="1"/>
			<stop offset="0.775" stop-color="#32d4f5" stop-opacity="1"/>
		</linearGradient>
		<linearGradient id="grad0-10" x1="0" y1="0" x2="1" y2="0" gradientTransform="rotate(-35.622745128455 0.5 0.5)">
			<stop offset="0" stop-color="#ffffff" stop-opacity="1"/>
			<stop offset="1" stop-color="#ffffff" stop-opacity="1"/>
		</linearGradient>
	</defs>
	<g>
		<title>Page-1</title>
		<g id="group2382-1" transform="translate(25.5118,-70.8661)">
			<title>IoT Sphere</title>
			<g id="group2383-2">
				<title>g40</title>
				<g id="shape2384-3">
					<title>circle16</title>
					<ellipse cx="25.5118" cy="105.929" rx="25.5118" ry="27.2994" class="st1"/>
				</g>
				<g id="shape2385-7" transform="translate(12.4828,-8.48852)">
					<title>path18</title>
					<path d="M12.46 132.86 C9.54 130.93 0 124.03 0 115.98 L0 105.68 L1.02 105.61 A12.1376 12.9881 -180 0 0 8.08 103.23
								 A7.44345 7.96501 0 0 1 13.03 101.66 A7.53649 8.06458 0 0 1 17.98 103.22 A12.1496 13.001 -180 0 0
								 25.03 105.61 L26.06 105.68 L26.06 115.98 C26.06 124.03 16.52 130.93 13.59 132.86 L13.03 133.23 L12.46
								 132.86 Z" class="st2"/>
				</g>
				<g id="shape2386-11" transform="translate(13.8634,-10.2228)">
					<title>path20</title>
					<path d="M11.65 133.23 C5.99 129.47 0 123.46 0 117.71 L0 108.8 A13.3442 14.2792 -180 0 0 7.46 106.19 A6.08382
								 6.51011 0 0 1 11.65 104.87 A6.22188 6.65785 0 0 1 15.83 106.19 A13.3742 14.3113 -180 0 0 23.3 108.8
								 L23.3 117.71 C23.3 123.46 17.31 129.47 11.65 133.23 Z" class="st3"/>
				</g>
				<g id="group2387-13" transform="translate(40.4138,-7.57835)">
					<title>g26</title>
					<g id="shape2388-14" transform="translate(0.234046,-0.261411)">
						<title>circle22</title>
						<ellipse cx="3.90781" cy="129.047" rx="3.90781" ry="4.18163" class="st4"/>
					</g>
					<g id="shape2389-16">
						<title>path24</title>
						<path d="M4.14 124.6 A3.90181 4.17521 0 1 1 0.24 128.78 A3.90181 4.17521 0 0 1 4.14 124.6 ZM4.14 122.51 A5.86472
									 6.27566 -180 1 0 10.01 128.79 A5.87072 6.28208 -180 0 0 4.15 122.51 L4.14 122.51 Z"
								class="st5"/>
					</g>
				</g>
				<g id="group2390-18" transform="translate(2.31801,-7.58062)">
					<title>g32</title>
					<g id="shape2391-19" transform="translate(0.242171,-0.25914)">
						<title>circle28</title>
						<ellipse cx="3.90781" cy="129.047" rx="3.90781" ry="4.18163" class="st4"/>
					</g>
					<g id="shape2392-21">
						<title>path30</title>
						<path d="M4.15 124.61 A3.90181 4.17521 0 1 1 0.25 128.78 A3.90181 4.17521 0 0 1 4.15 124.61 ZM4.15 122.52
									 A5.86472 6.27566 -180 1 0 10.01 128.79 A5.86772 6.27887 -180 0 0 4.15 122.52 Z" class="st5"/>
					</g>
				</g>
				<g id="group2393-23" transform="translate(21.3608,-45.9808)">
					<title>g38</title>
					<g id="shape2394-24" transform="translate(0.243233,-0.254793)">
						<title>circle34</title>
						<ellipse cx="3.90781" cy="129.047" rx="3.90781" ry="4.18163" class="st4"/>
					</g>
					<g id="shape2395-26">
						<title>path36</title>
						<path d="M4.15 124.61 A3.90181 4.17521 0 1 1 0.25 128.79 A3.90181 4.17521 0 0 1 4.15 124.61 ZM4.15 122.52
									 A5.86472 6.27566 -180 1 0 10.01 128.79 A5.87072 6.28208 -180 0 0 4.15 122.52 Z" class="st5"/>
					</g>
				</g>
			</g>
		</g>
	</g>
</svg>
