<?xml version="1.0" encoding="UTF-8" standalone="no"?>
<!DOCTYPE svg PUBLIC "-//W3C//DTD SVG 1.1//EN" "http://www.w3.org/Graphics/SVG/1.1/DTD/svg11.dtd">
<!-- Generated by Microsoft Visio, SVG Export IoT Defender.svg Page-1 -->
<svg xmlns="http://www.w3.org/2000/svg" xmlns:xlink="http://www.w3.org/1999/xlink" xmlns:ev="http://www.w3.org/2001/xml-events"
		width="1.25984in" height="2.07522in" viewBox="0 0 90.7087 149.416" xml:space="preserve" color-interpolation-filters="sRGB"
		class="st5">
	<style type="text/css">
	<![CDATA[
		.st1 {fill:#32bedd;stroke:none;stroke-linecap:butt;stroke-width:21.8571}
		.st2 {fill:url(#grad0-8);stroke:none;stroke-linecap:butt;stroke-width:21.8571}
		.st3 {fill:#e6e6e6;stroke:none;stroke-linecap:butt;stroke-width:21.8571}
		.st4 {fill:#ffffff;stroke:none;stroke-linecap:butt;stroke-width:21.8571}
		.st5 {fill:none;fill-rule:evenodd;font-size:12px;overflow:visible;stroke-linecap:square;stroke-miterlimit:3}
	]]>
	</style>

	<defs id="Patterns_And_Gradients">
		<linearGradient id="grad0-8" x1="0" y1="0" x2="1" y2="0" gradientTransform="rotate(90 0.5 0.5)">
			<stop offset="0.22" stop-color="#32d4f5" stop-opacity="1"/>
			<stop offset="0.47" stop-color="#31d1f3" stop-opacity="1"/>
			<stop offset="0.63" stop-color="#2ec9eb" stop-opacity="1"/>
			<stop offset="0.77" stop-color="#29bade" stop-opacity="1"/>
			<stop offset="0.89" stop-color="#22a5cb" stop-opacity="1"/>
			<stop offset="1" stop-color="#198ab3" stop-opacity="1"/>
		</linearGradient>
	</defs>
	<g>
		<title>Page-1</title>
		<g id="group2464-1" transform="translate(22.6772,-70.8661)">
			<title>IoT Defender</title>
			<g id="group2465-2">
				<title>Sheet.2465</title>
				<g id="shape2466-3">
					<title>Sheet.2466</title>
					<path d="M45.35 119.18 C45.35 134.5 27.29 146.7 23.39 149.2 A1.41925 1.44858 0 0 1 21.89 149.2 C17.96 146.7 0
								 134.5 0 119.18 L0 100.91 A1.43982 1.46957 0 0 1 1.4 99.46 C15.34 99 12.12 92.72 22.63 92.72 C33.14
								 92.72 29.93 99.02 43.96 99.4 A1.43982 1.46957 0 0 1 45.35 100.85 L45.35 119.18 Z" class="st1"/>
				</g>
				<g id="shape2467-5" transform="translate(1.78949,-2.36423)">
					<title>Sheet.2467</title>
					<path d="M41.67 121.71 C41.67 135.67 25.22 146.9 21.54 149.21 A1.27527 1.30162 0 0 1 20.16 149.21 C16.56 146.92
								 0 135.67 0 121.71 L0 104.91 A1.31641 1.34361 0 0 1 1.28 103.57 C14.15 103.28 11.19 97.44 20.84 97.44
								 C30.48 97.44 27.52 103.28 40.4 103.55 A1.29584 1.32262 0 0 1 41.67 104.89 L41.67 121.71 Z"
							class="st2"/>
				</g>
				<g id="shape2468-9" transform="translate(10.9838,-21.2132)">
					<title>Sheet.2468</title>
					<path d="M19.87 148.68 L14.3 138.75 L13.74 139.05 L14.19 138.71 L7.88 129.53 L6.73 130.37 L12.34 138.5 L0 139.55
								 L0 141.02 L12.34 139.97 L8.23 146.88 L9.44 147.63 L13.55 140.54 L18.64 149.42 L19.89 148.7 L19.87
								 148.68 Z" class="st3"/>
				</g>
				<g id="group2469-11" transform="translate(8.7212,-18.7569)">
					<title>Sheet.2469</title>
					<g id="shape2470-12" transform="translate(12.691,-9.30031)">
						<title>Sheet.2470</title>
						<ellipse cx="3.27045" cy="146.078" rx="3.27045" ry="3.33803" class="st4"/>
					</g>
					<g id="shape2471-14" transform="translate(6.87,-18.9365)">
						<title>Sheet.2471</title>
						<ellipse cx="2.7768" cy="146.582" rx="2.7768" ry="2.83418" class="st4"/>
					</g>
					<g id="shape2472-16" transform="translate(-4.89608E-14,-9.11136)">
						<title>Sheet.2472</title>
						<ellipse cx="2.24201" cy="147.128" rx="2.24201" ry="2.28834" class="st4"/>
					</g>
					<g id="shape2473-18" transform="translate(9.00916,-2.16237)">
						<title>Sheet.2473</title>
						<ellipse cx="2.24201" cy="147.128" rx="2.24201" ry="2.28834" class="st4"/>
					</g>
					<g id="shape2474-20" transform="translate(18.9439,0)">
						<title>Sheet.2474</title>
						<ellipse cx="2.59168" cy="146.771" rx="2.59168" ry="2.64523" class="st4"/>
					</g>
				</g>
			</g>
		</g>
	</g>
</svg>
