<?xml version="1.0" encoding="UTF-8" standalone="no"?>
<!DOCTYPE svg PUBLIC "-//W3C//DTD SVG 1.1//EN" "http://www.w3.org/Graphics/SVG/1.1/DTD/svg11.dtd">
<!-- Generated by Microsoft Visio, SVG Export IoT Windows 10 Core.svg Page-1 -->
<svg xmlns="http://www.w3.org/2000/svg" xmlns:xlink="http://www.w3.org/1999/xlink" xmlns:ev="http://www.w3.org/2001/xml-events"
		width="1.71072in" height="2.23325in" viewBox="0 0 123.172 160.794" xml:space="preserve" color-interpolation-filters="sRGB"
		class="st6">
	<style type="text/css">
	<![CDATA[
		.st1 {fill:url(#grad0-6);stroke:none;stroke-linecap:butt;stroke-width:33.2348}
		.st2 {fill:#32bedd;stroke:none;stroke-linecap:butt;stroke-width:33.2348}
		.st3 {fill:#50e6ff;stroke:none;stroke-linecap:butt;stroke-width:33.2348}
		.st4 {fill:#f2f2f2;stroke:none;stroke-linecap:butt;stroke-width:33.2348}
		.st5 {fill:#86d633;stroke:none;stroke-linecap:butt;stroke-width:33.2348}
		.st6 {fill:none;fill-rule:evenodd;font-size:12px;overflow:visible;stroke-linecap:square;stroke-miterlimit:3}
	]]>
	</style>

	<defs id="Patterns_And_Gradients">
		<linearGradient id="grad0-6" x1="0" y1="0" x2="1" y2="0" gradientTransform="rotate(-90 0.5 0.5)">
			<stop offset="0" stop-color="#0078d4" stop-opacity="1"/>
			<stop offset="0.06" stop-color="#0a7cd7" stop-opacity="1"/>
			<stop offset="0.34" stop-color="#2e8ce1" stop-opacity="1"/>
			<stop offset="0.59" stop-color="#4897e9" stop-opacity="1"/>
			<stop offset="0.82" stop-color="#589eed" stop-opacity="1"/>
			<stop offset="1" stop-color="#5ea0ef" stop-opacity="1"/>
		</linearGradient>
	</defs>
	<g>
		<title>Page-1</title>
		<g id="group2375-1" transform="translate(33.2348,-70.8661)">
			<title>IoT Windows 10 Core</title>
			<g id="group2376-2">
				<title>layer1</title>
				<g id="shape2377-3">
					<title>path17</title>
					<path d="M48.79 115.14 L44.26 110.68 L43.8 110.68 L37.7 114.01 L33.33 112.05 L30.58 104.1 L24.25 104.17 L23.95
								 105.07 L21.79 111.98 L17.42 113.88 L10.01 110.55 L5.61 115.04 L6.07 115.94 L9.35 122.36 L7.61 126.78
								 L0 129.67 L0 136.15 L0.89 136.45 L7.71 138.58 L9.58 143 L6.3 150.55 L10.86 155.04 L11.68 154.58
								 L18.01 151.25 L20.04 153.78 L25.29 160.79 L31.63 160.79 L31.92 159.9 L34.19 155.84 L37.79 154.01
								 L44.95 153.58 L49.41 148.96 L49.41 148.52 L50.29 145.2 L52.89 137.32 L48.79 115.14 ZM27.92 146.96
								 A14.3373 14.5306 0 1 1 42.22 132.56 A14.3045 14.4974 0 0 1 27.92 146.96 Z" class="st1"/>
				</g>
				<g id="shape2378-7" transform="translate(18.0775,-15.8181)">
					<title>path19</title>
					<path d="M19.72 148.02 C19.72 154.47 11.88 159.65 10.17 160.72 a0.754593 0.76477 0 0 1 -0.655958 0 C7.81 159.65
								 0 154.47 0 148.02 L0 140.27 a0.62336 0.631767 0 0 1 0.590241 -0.631756 C6.69 139.64 5.28 136.81
								 9.84 136.81 C14.4 136.81 13.12 139.47 19.09 139.64 a0.656168 0.665018 0 0 1 0.623722 0.631756 L19.72
								 148.02 Z" class="st2"/>
				</g>
				<g id="shape2379-9" transform="translate(18.8979,-16.8163)">
					<title>path21</title>
					<path d="M18.08 149.08 C18.08 155 10.89 159.75 9.32 160.72 a0.62336 0.631767 0 0 1 -0.590244 0 C7.15 159.75 0
								 155 0 149.08 L0 141.97 a0.557743 0.565265 0 0 1 0.524519 -0.565276 C6.13 141.4 4.86 138.81 9.02
								 138.81 C13.19 138.81 11.94 141.27 17.52 141.4 a0.590551 0.598516 0 0 1 0.557999 0.565276 L18.08
								 149.08 Z" class="st3"/>
				</g>
				<g id="shape2380-11" transform="translate(23.4889,-23.4752)">
					<title>path23</title>
					<path d="M8.4 154.58 L7.84 154.58 L7.84 152.71 A3.74016 3.7906 -180 0 0 6.86 150.15 A3.08399 3.12558 -180 0 0
								 4.43 149.09 A3.28084 3.32509 -180 0 0 2 150.15 A3.74016 3.7906 -180 0 0 1.02 152.71 L1.02 154.71
								 L0.46 154.71 a0.459318 0.465512 -180 0 0 -0.460039 0.46549 L0 160.36 a0.459318 0.465512 -180 0 0
								 0.460039 0.432314 L8.4 160.79 a0.426509 0.432261 -180 0 0 0.4588 -0.432314 L8.86 155.04 a0.459318
								 0.465512 -180 0 0 -0.4588 -0.465493 L8.4 154.58 ZM6.24 154.58 L2.63 154.58 L2.63 152.71 A1.9357
								 1.9618 0 0 1 3.18 151.32 A1.70604 1.72905 0 0 1 4.43 150.75 A1.64042 1.66254 0 0 1 5.68 151.32 L5.91
								 151.58 A2.19816 2.22781 0 0 1 6.24 152.71 L6.24 154.58 Z" class="st4"/>
				</g>
				<g id="shape2381-13" transform="translate(15.7761,-1.08317)">
					<title>path25</title>
					<path d="M29.5 111.67 L31.83 106.78 a0.492126 0.498763 -180 0 0 -0.229397 -0.698237 L31.34 106.08 L13.26 107.48
								 a0.524934 0.532014 -180 0 0 -0.4588 0.565275 a0.426509 0.432261 -180 0 0 -1.86517E-13 0.266049 L23.04
								 123.27 a0.524934 0.532014 -180 0 0 0.721679 1.56319E-13 L23.92 123.07 L25.96 118.78 a0.557743 0.565265
								 0 0 1 0.68944 -0.266049 A20.7677 21.0478 0 0 1 34.26 133.65 A21.063 21.3471 0 0 1 13.62 155.46 A21.916
								 22.2116 0 0 1 3.42 153.13 a0.524934 0.532014 -180 0 0 -0.689441 0.19944 L0.04 158.25 a0.524934 0.532014
								 -180 0 0 0.19716 0.698236 A27.9528 28.3298 -180 0 0 37.8 146.95 A27.2638 27.6315 -180 0 0 40.92
								 133.38 A27.6247 27.9972 -180 0 0 29.63 112.3 a0.557743 0.565265 0 0 1 -0.131441 -0.631756 L29.5
								 111.67 Z" class="st5"/>
				</g>
			</g>
		</g>
	</g>
</svg>
