<?xml version="1.0" encoding="UTF-8" standalone="no"?>
<!-- Generated by Microsoft Visio, SVG Export IoT Device Provisioning Service.svg Page-1 -->

<svg
   xmlns:dc="http://purl.org/dc/elements/1.1/"
   xmlns:cc="http://creativecommons.org/ns#"
   xmlns:rdf="http://www.w3.org/1999/02/22-rdf-syntax-ns#"
   xmlns:svg="http://www.w3.org/2000/svg"
   xmlns="http://www.w3.org/2000/svg"
   xmlns:sodipodi="http://sodipodi.sourceforge.net/DTD/sodipodi-0.dtd"
   xmlns:inkscape="http://www.inkscape.org/namespaces/inkscape"
   width="0.74805367in"
   height="0.78738785in"
   viewBox="0 0 53.859833 56.692066"
   xml:space="preserve"
   class="st2"
   version="1.1"
   id="svg79"
   sodipodi:docname="IoT Device Provisioning Service.svg"
   style="font-size:12px;overflow:visible;color-interpolation-filters:sRGB;fill:none;fill-rule:evenodd;stroke-linecap:square;stroke-miterlimit:3"
   inkscape:version="0.92.5 (2060ec1f9f, 2020-04-08)"><metadata
   id="metadata85"><rdf:RDF><cc:Work
       rdf:about=""><dc:format>image/svg+xml</dc:format><dc:type
         rdf:resource="http://purl.org/dc/dcmitype/StillImage" /></cc:Work></rdf:RDF></metadata><defs
   id="defs83" /><sodipodi:namedview
   pagecolor="#ffffff"
   bordercolor="#666666"
   borderopacity="1"
   objecttolerance="10"
   gridtolerance="10"
   guidetolerance="10"
   inkscape:pageopacity="0"
   inkscape:pageshadow="2"
   inkscape:window-width="640"
   inkscape:window-height="480"
   id="namedview81"
   showgrid="false"
   inkscape:zoom="1.8365233"
   inkscape:cx="35.905404"
   inkscape:cy="18.897679"
   inkscape:window-x="0"
   inkscape:window-y="0"
   inkscape:window-maximized="0"
   inkscape:current-layer="svg79" />
	<style
   type="text/css"
   id="style2">
	<![CDATA[
		.st1 {fill:#0072c6;stroke:none;stroke-linecap:butt;stroke-width:0.140354}
		.st2 {fill:none;fill-rule:evenodd;font-size:12px;overflow:visible;stroke-linecap:square;stroke-miterlimit:3}
	]]>
	</style>

	<g
   id="g77"
   transform="translate(-5.3859292,-5.67023)">
		<title
   id="title4">Page-1</title>
		<g
   id="group3930-1"
   transform="translate(5.38583,-34.0157)">
			<title
   id="title6">IoT Device Provisioning Service</title>
			<g
   id="group3931-2">
				<title
   id="title8">g30</title>
				<g
   id="shape3932-3"
   transform="translate(17.1156,-41.2724)">
					<title
   id="title10">circle4</title>
					<ellipse
   cx="4.1582999"
   cy="92.178497"
   rx="4.1582999"
   ry="4.19947"
   class="st1"
   id="ellipse12"
   style="fill:#0072c6;stroke:none;stroke-width:0.14035399;stroke-linecap:butt" />
				</g>
				<g
   id="shape3933-5"
   transform="translate(25.8147,-26.9438)">
					<title
   id="title15">circle6</title>
					<ellipse
   cx="4.9566898"
   cy="91.3722"
   rx="4.9566898"
   ry="5.0057702"
   class="st1"
   id="ellipse17"
   style="fill:#0072c6;stroke:none;stroke-width:0.14035399;stroke-linecap:butt" />
				</g>
				<g
   id="shape3934-7"
   transform="translate(35.1958,-13.1528)">
					<title
   id="title20">circle8</title>
					<ellipse
   cx="3.87553"
   cy="92.463997"
   rx="3.87553"
   ry="3.9139099"
   class="st1"
   id="ellipse22"
   style="fill:#0072c6;stroke:none;stroke-width:0.14035399;stroke-linecap:butt" />
				</g>
				<g
   id="shape3935-9"
   transform="translate(20.3424,-16.3948)">
					<title
   id="title25">circle10</title>
					<ellipse
   cx="3.3432701"
   cy="93.001602"
   rx="3.3432701"
   ry="3.37638"
   class="st1"
   id="ellipse27"
   style="fill:#0072c6;stroke:none;stroke-width:0.14035399;stroke-linecap:butt" />
				</g>
				<g
   id="shape3936-11"
   transform="translate(6.80297,-26.6751)">
					<title
   id="title30">circle12</title>
					<ellipse
   cx="3.3432701"
   cy="93.001602"
   rx="3.3432701"
   ry="3.37638"
   class="st1"
   id="ellipse32"
   style="fill:#0072c6;stroke:none;stroke-width:0.14035399;stroke-linecap:butt" />
				</g>
				<g
   id="shape3937-13"
   transform="translate(19.6411,-30.8223)">
					<title
   id="title35">path14</title>
					<path
   d="m 0,82.06 2.46,-1.75 9.97,14.32 -2.46,1.75 z"
   class="st1"
   id="path37"
   inkscape:connector-curvature="0"
   style="fill:#0072c6;stroke:none;stroke-width:0.14035399;stroke-linecap:butt" />
				</g>
				<g
   id="shape3938-15"
   transform="translate(29.1646,-16.2022)">
					<title
   id="title40">path16</title>
					<path
   d="m 0,80.84 2.61,-1.51 8.81,15.54 -2.61,1.51 z"
   class="st1"
   id="path42"
   inkscape:connector-curvature="0"
   style="fill:#0072c6;stroke:none;stroke-width:0.14035399;stroke-linecap:butt" />
				</g>
				<g
   id="shape3939-17"
   transform="translate(9.57623,-28.7604)">
					<title
   id="title45">path18</title>
					<path
   d="m 0,93.35 21.28,-1.79 0.25,3.03 -21.28,1.79 z"
   class="st1"
   id="path47"
   inkscape:connector-curvature="0"
   style="fill:#0072c6;stroke:none;stroke-width:0.14035399;stroke-linecap:butt" />
				</g>
				<g
   id="shape3940-19"
   transform="translate(21.9352,-18.7916)">
					<title
   id="title50">path20</title>
					<path
   d="M 0,94.81 7.63,82.02 10.21,83.59 2.58,96.38 Z"
   class="st1"
   id="path52"
   inkscape:connector-curvature="0"
   style="fill:#0072c6;stroke:none;stroke-width:0.14035399;stroke-linecap:butt" />
				</g>
				<g
   id="shape3941-21"
   transform="translate(1.59679,-38.2992)">
					<title
   id="title55">circle22</title>
					<ellipse
   cx="3.9919701"
   cy="92.346497"
   rx="3.9919701"
   ry="4.0314999"
   class="st1"
   id="ellipse57"
   style="fill:#0072c6;stroke:none;stroke-width:0.14035399;stroke-linecap:butt" />
				</g>
				<g
   id="shape3942-23"
   transform="translate(44.1778,-38.2992)">
					<title
   id="title60">circle24</title>
					<ellipse
   cx="3.9919701"
   cy="92.346497"
   rx="3.9919701"
   ry="4.0314999"
   class="st1"
   id="ellipse62"
   style="fill:#0072c6;stroke:none;stroke-width:0.14035399;stroke-linecap:butt" />
				</g>
				<g
   id="shape3943-25"
   transform="translate(23.9518)">
					<title
   id="title65">circle26</title>
					<ellipse
   cx="3.9919701"
   cy="92.346497"
   rx="3.9919701"
   ry="4.0314999"
   class="st1"
   id="ellipse67"
   style="fill:#0072c6;stroke:none;stroke-width:0.14035399;stroke-linecap:butt" />
				</g>
				<g
   id="shape3944-27"
   transform="translate(0,-2.65407)">
					<title
   id="title70">path28</title>
					<path
   d="m 9.96,53.16 c 4.28,-4.52 10.3,-7.33 16.97,-7.33 6.64,0 12.64,2.79 16.92,7.28 0.74,-0.93 1.79,-1.62 2.97,-1.92 -0.26,-0.3 -0.55,-0.6 -0.85,-0.89 -2.47,-2.5 -5.35,-4.45 -8.56,-5.83 -3.33,-1.43 -6.85,-2.13 -10.5,-2.13 -3.64,0 -7.17,0.72 -10.49,2.13 -3.21,1.38 -6.09,3.33 -8.57,5.83 -0.3,0.3 -0.58,0.61 -0.86,0.91 1.21,0.32 2.22,1.01 2.97,1.95 z m 42.38,7.34 c -0.79,0.89 -1.86,1.51 -3.07,1.76 0.73,2.3 1.13,4.74 1.13,7.29 0,10.99 -7.4,20.23 -17.45,22.91 0.38,0.78 0.6,1.63 0.6,2.56 0,0.32 -0.03,0.64 -0.08,0.94 1.34,-0.34 2.66,-0.79 3.94,-1.33 3.21,-1.38 6.09,-3.33 8.56,-5.83 2.48,-2.5 4.41,-5.41 5.78,-8.65 1.41,-3.36 2.11,-6.92 2.11,-10.6 0,-3.12 -0.5,-6.16 -1.52,-9.05 z M 22.74,92.87 C 11.78,90.87 3.46,81.19 3.46,69.53 3.46,67 3.86,64.56 4.59,62.26 3.38,62.04 2.31,61.42 1.5,60.56 0.5,63.44 0,66.44 0,69.53 c 0,3.68 0.72,7.24 2.11,10.6 1.37,3.25 3.3,6.15 5.77,8.66 2.48,2.5 5.36,4.45 8.57,5.82 1.95,0.84 3.98,1.43 6.05,1.77 -0.11,-0.44 -0.16,-0.91 -0.16,-1.38 -0.02,-0.76 0.13,-1.48 0.4,-2.13 z"
   class="st1"
   id="path72"
   inkscape:connector-curvature="0"
   style="fill:#0072c6;stroke:none;stroke-width:0.14035399;stroke-linecap:butt" />
				</g>
			</g>
		</g>
	</g>
</svg>