<?xml version="1.0" encoding="UTF-8" standalone="no"?>
<!-- Generated by Microsoft Visio, SVG Export IoT Defender.svg Page-1 -->

<svg
   xmlns:dc="http://purl.org/dc/elements/1.1/"
   xmlns:cc="http://creativecommons.org/ns#"
   xmlns:rdf="http://www.w3.org/1999/02/22-rdf-syntax-ns#"
   xmlns:svg="http://www.w3.org/2000/svg"
   xmlns="http://www.w3.org/2000/svg"
   xmlns:sodipodi="http://sodipodi.sourceforge.net/DTD/sodipodi-0.dtd"
   xmlns:inkscape="http://www.inkscape.org/namespaces/inkscape"
   width="45.349998"
   height="56.698784"
   viewBox="0 0 45.349997 56.698783"
   xml:space="preserve"
   class="st5"
   version="1.1"
   id="svg71"
   sodipodi:docname="IoT Defender.svg"
   style="font-size:12px;overflow:visible;color-interpolation-filters:sRGB;fill:none;fill-rule:evenodd;stroke-linecap:square;stroke-miterlimit:3"
   inkscape:version="0.92.5 (2060ec1f9f, 2020-04-08)"><metadata
   id="metadata75"><rdf:RDF><cc:Work
       rdf:about=""><dc:format>image/svg+xml</dc:format><dc:type
         rdf:resource="http://purl.org/dc/dcmitype/StillImage" /></cc:Work></rdf:RDF></metadata><sodipodi:namedview
   pagecolor="#ffffff"
   bordercolor="#666666"
   borderopacity="1"
   objecttolerance="10"
   gridtolerance="10"
   guidetolerance="10"
   inkscape:pageopacity="0"
   inkscape:pageshadow="2"
   inkscape:window-width="640"
   inkscape:window-height="480"
   id="namedview73"
   showgrid="false"
   inkscape:zoom="2.0965478"
   inkscape:cx="22.677202"
   inkscape:cy="22.270084"
   inkscape:window-x="0"
   inkscape:window-y="0"
   inkscape:window-maximized="0"
   inkscape:current-layer="svg71" />
	<style
   type="text/css"
   id="style2">
	<![CDATA[
		.st1 {fill:#32bedd;stroke:none;stroke-linecap:butt;stroke-width:21.8571}
		.st2 {fill:url(#grad0-8);stroke:none;stroke-linecap:butt;stroke-width:21.8571}
		.st3 {fill:#e6e6e6;stroke:none;stroke-linecap:butt;stroke-width:21.8571}
		.st4 {fill:#ffffff;stroke:none;stroke-linecap:butt;stroke-width:21.8571}
		.st5 {fill:none;fill-rule:evenodd;font-size:12px;overflow:visible;stroke-linecap:square;stroke-miterlimit:3}
	]]>
	</style>

	<defs
   id="Patterns_And_Gradients">
		<linearGradient
   id="grad0-8"
   x1="0"
   y1="54.251004"
   x2="46.539088"
   y2="54.251004"
   gradientTransform="scale(0.89537885,1.1168457)"
   gradientUnits="userSpaceOnUse">
			<stop
   offset="0.22"
   stop-color="#32d4f5"
   stop-opacity="1"
   id="stop4" />
			<stop
   offset="0.47"
   stop-color="#31d1f3"
   stop-opacity="1"
   id="stop6" />
			<stop
   offset="0.63"
   stop-color="#2ec9eb"
   stop-opacity="1"
   id="stop8" />
			<stop
   offset="0.77"
   stop-color="#29bade"
   stop-opacity="1"
   id="stop10" />
			<stop
   offset="0.89"
   stop-color="#22a5cb"
   stop-opacity="1"
   id="stop12" />
			<stop
   offset="1"
   stop-color="#198ab3"
   stop-opacity="1"
   id="stop14" />
		</linearGradient>
	</defs>
	<g
   id="g69"
   transform="translate(-21.8571,-21.8543)">
		<title
   id="title18">Page-1</title>
		<g
   id="group4086-1"
   transform="translate(21.8571,-34.0157)">
			<title
   id="title20">IoT Defender</title>
			<g
   id="group4087-2">
				<title
   id="title22">Sheet.4087</title>
				<g
   id="shape4088-3">
					<title
   id="title24">Sheet.4088</title>
					<path
   d="m 45.35,82.33 c 0,15.32 -18.06,27.52 -21.96,30.02 a 1.41925,1.44858 0 0 1 -1.5,0 C 17.96,109.85 0,97.65 0,82.33 V 64.06 a 1.43982,1.46957 0 0 1 1.4,-1.45 c 13.94,-0.46 10.72,-6.74 21.23,-6.74 10.51,0 7.3,6.3 21.33,6.68 A 1.43982,1.46957 0 0 1 45.35,64 Z"
   class="st1"
   id="path26"
   inkscape:connector-curvature="0"
   style="fill:#32bedd;stroke:none;stroke-width:21.85709953;stroke-linecap:butt" />
				</g>
				<g
   id="shape4089-5"
   transform="translate(1.78949,-2.36423)">
					<title
   id="title29">Sheet.4089</title>
					<path
   d="m 41.67,84.86 c 0,13.96 -16.45,25.19 -20.13,27.5 a 1.27527,1.30162 0 0 1 -1.38,0 C 16.56,110.07 0,98.82 0,84.86 v -16.8 a 1.31641,1.34361 0 0 1 1.28,-1.34 c 12.87,-0.3 9.91,-6.13 19.56,-6.13 9.64,0 6.68,5.83 19.56,6.11 a 1.29584,1.32262 0 0 1 1.27,1.34 z"
   class="st2"
   id="path31"
   inkscape:connector-curvature="0"
   style="fill:url(#grad0-8);stroke:none;stroke-width:21.85709953;stroke-linecap:butt" />
				</g>
				<g
   id="shape4090-9"
   transform="translate(10.9838,-21.2132)">
					<title
   id="title34">Sheet.4090</title>
					<path
   d="m 19.87,111.83 -5.57,-9.93 -0.56,0.29 0.45,-0.33 -6.31,-9.18 -1.15,0.84 5.61,8.13 L 0,102.7 v 1.47 l 12.34,-1.05 -4.11,6.91 1.21,0.75 4.11,-7.09 5.09,8.88 1.25,-0.72 z"
   class="st3"
   id="path36"
   inkscape:connector-curvature="0"
   style="fill:#e6e6e6;stroke:none;stroke-width:21.85709953;stroke-linecap:butt" />
				</g>
				<g
   id="group4091-11"
   transform="translate(8.7212,-18.7569)">
					<title
   id="title39">Sheet.4091</title>
					<g
   id="shape4092-12"
   transform="translate(12.691,-9.30031)">
						<title
   id="title41">Sheet.4092</title>
						<ellipse
   cx="3.2704501"
   cy="109.228"
   rx="3.2704501"
   ry="3.3380301"
   class="st4"
   id="ellipse43"
   style="fill:#ffffff;stroke:none;stroke-width:21.85709953;stroke-linecap:butt" />
					</g>
					<g
   id="shape4093-14"
   transform="translate(6.87,-18.9365)">
						<title
   id="title46">Sheet.4093</title>
						<ellipse
   cx="2.7767999"
   cy="109.732"
   rx="2.7767999"
   ry="2.8341801"
   class="st4"
   id="ellipse48"
   style="fill:#ffffff;stroke:none;stroke-width:21.85709953;stroke-linecap:butt" />
					</g>
					<g
   id="shape4094-16"
   transform="translate(0,-9.11136)">
						<title
   id="title51">Sheet.4094</title>
						<ellipse
   cx="2.2420101"
   cy="110.277"
   rx="2.2420101"
   ry="2.2883401"
   class="st4"
   id="ellipse53"
   style="fill:#ffffff;stroke:none;stroke-width:21.85709953;stroke-linecap:butt" />
					</g>
					<g
   id="shape4095-18"
   transform="translate(9.00916,-2.16237)">
						<title
   id="title56">Sheet.4095</title>
						<ellipse
   cx="2.2420101"
   cy="110.277"
   rx="2.2420101"
   ry="2.2883401"
   class="st4"
   id="ellipse58"
   style="fill:#ffffff;stroke:none;stroke-width:21.85709953;stroke-linecap:butt" />
					</g>
					<g
   id="shape4096-20"
   transform="translate(18.9439)">
						<title
   id="title61">Sheet.4096</title>
						<ellipse
   cx="2.59168"
   cy="109.921"
   rx="2.59168"
   ry="2.6452301"
   class="st4"
   id="ellipse63"
   style="fill:#ffffff;stroke:none;stroke-width:21.85709953;stroke-linecap:butt" />
					</g>
				</g>
			</g>
		</g>
	</g>
</svg>