<?xml version="1.0" encoding="UTF-8" standalone="no"?>
<!DOCTYPE svg PUBLIC "-//W3C//DTD SVG 1.1//EN" "http://www.w3.org/Graphics/SVG/1.1/DTD/svg11.dtd">
<!-- Generated by Microsoft Visio, SVG Export IoT Edge Device.svg Page-1 -->
<svg xmlns="http://www.w3.org/2000/svg" xmlns:xlink="http://www.w3.org/1999/xlink" xmlns:ev="http://www.w3.org/2001/xml-events"
		width="1.75424in" height="2.19459in" viewBox="0 0 126.305 158.01" xml:space="preserve" color-interpolation-filters="sRGB"
		class="st4">
	<style type="text/css">
	<![CDATA[
		.st1 {fill:url(#grad0-6);stroke:none;stroke-linecap:butt;stroke-width:34}
		.st2 {fill:#e6e6e6;stroke:none;stroke-linecap:butt;stroke-width:34}
		.st3 {fill:#50e6ff;stroke:none;stroke-linecap:butt;stroke-width:34}
		.st4 {fill:none;fill-rule:evenodd;font-size:12px;overflow:visible;stroke-linecap:square;stroke-miterlimit:3}
	]]>
	</style>

	<defs id="Patterns_And_Gradients">
		<linearGradient id="grad0-6" x1="0" y1="0" x2="1" y2="0" gradientTransform="rotate(90 0.5 0.5)">
			<stop offset="0" stop-color="#5ea0ef" stop-opacity="1"/>
			<stop offset="0.815" stop-color="#0078d4" stop-opacity="1"/>
		</linearGradient>
	</defs>
	<g>
		<title>Page-1</title>
		<g id="group2430-1" transform="translate(35.6122,-69.3071)">
			<title>IoT Edge Device</title>
			<g id="group2431-2">
				<title>Sheet.2431</title>
				<g id="shape2432-3" transform="translate(3.90195,-1.50739)">
					<title>Sheet.2432</title>
					<ellipse cx="25.6475" cy="132.166" rx="25.6475" ry="25.8443" class="st1"/>
				</g>
				<g id="shape2433-7" transform="translate(10.3562,0)">
					<title>Sheet.2433</title>
					<path d="M19.19 158.01 A27.1434 27.3517 0 1 1 46.34 130.66 A27.1726 27.381 0 0 1 19.19 158.01 ZM19.19 106.32
								 A24.1516 24.3369 -180 1 0 43.34 130.66 A24.1743 24.3597 -180 0 0 19.19 106.32 Z" class="st2"/>
				</g>
				<g id="shape2434-9" transform="translate(-2.71783E-13,-3.10914)">
					<title>Sheet.2434</title>
					<path d="M46.78 136.12 A7.74185 7.80124 -180 0 0 40.06 128.61 A9.75908 9.83394 -180 0 0 30.02 119.21 A10.0116
								 10.0884 -180 0 0 20.43 125.79 A9.23453 9.30537 -180 0 0 12.33 134.75 A9.38995 9.46198 -180 0 0 22.05
								 143.83 C22.34 143.83 22.62 143.83 22.9 143.79 L38.62 143.79 A1.4603 1.4715 -180 0 0 39.03 143.73
								 A7.82928 7.88934 -180 0 0 46.78 136.12 ZM9.4 133.77 A5.50446 5.54668 0 1 1 3.89 128.22 A5.50446
								 5.54668 0 0 1 9.4 133.77 ZM44.78 107.26 A5.50446 5.54668 -180 1 0 50.28 112.81 A5.50446 5.54668
								 -180 0 0 44.78 107.26 ZM44.78 148.54 A5.50446 5.54668 -180 1 0 50.28 154.09 A5.50446 5.54668 -180
								 0 0 44.78 148.54 Z" class="st3"/>
				</g>
			</g>
		</g>
	</g>
</svg>
