<?xml version="1.0" encoding="UTF-8" standalone="no"?>
<!DOCTYPE svg PUBLIC "-//W3C//DTD SVG 1.1//EN" "http://www.w3.org/Graphics/SVG/1.1/DTD/svg11.dtd">
<!-- Generated by Microsoft Visio, SVG Export IoT Device Provisioning Service.svg Page-1 -->
<svg xmlns="http://www.w3.org/2000/svg" xmlns:xlink="http://www.w3.org/1999/xlink" xmlns:ev="http://www.w3.org/2001/xml-events"
		width="0.897638in" height="1.33858in" viewBox="0 0 64.6299 96.378" xml:space="preserve" color-interpolation-filters="sRGB"
		class="st2">
	<style type="text/css">
	<![CDATA[
		.st1 {fill:#0072c6;stroke:none;stroke-linecap:butt;stroke-width:0.140354}
		.st2 {fill:none;fill-rule:evenodd;font-size:12px;overflow:visible;stroke-linecap:square;stroke-miterlimit:3}
	]]>
	</style>

	<g>
		<title>Page-1</title>
		<g id="group2495-1" transform="translate(5.38583,-34.0157)">
			<title>IoT Device Provisioning Service</title>
			<g id="group2496-2">
				<title>g30</title>
				<g id="shape2497-3" transform="translate(17.1156,-41.2724)">
					<title>circle4</title>
					<ellipse cx="4.1583" cy="92.1785" rx="4.1583" ry="4.19947" class="st1"/>
				</g>
				<g id="shape2498-5" transform="translate(25.8147,-26.9438)">
					<title>circle6</title>
					<ellipse cx="4.95669" cy="91.3722" rx="4.95669" ry="5.00577" class="st1"/>
				</g>
				<g id="shape2499-7" transform="translate(35.1958,-13.1528)">
					<title>circle8</title>
					<ellipse cx="3.87553" cy="92.464" rx="3.87553" ry="3.91391" class="st1"/>
				</g>
				<g id="shape2500-9" transform="translate(20.3424,-16.3948)">
					<title>circle10</title>
					<ellipse cx="3.34327" cy="93.0016" rx="3.34327" ry="3.37638" class="st1"/>
				</g>
				<g id="shape2501-11" transform="translate(6.80297,-26.6751)">
					<title>circle12</title>
					<ellipse cx="3.34327" cy="93.0016" rx="3.34327" ry="3.37638" class="st1"/>
				</g>
				<g id="shape2502-13" transform="translate(19.6411,-30.8223)">
					<title>path14</title>
					<path d="M0 82.06 L2.46 80.31 L12.43 94.63 L9.97 96.38 L0 82.06 Z" class="st1"/>
				</g>
				<g id="shape2503-15" transform="translate(29.1646,-16.2022)">
					<title>path16</title>
					<path d="M0 80.84 L2.61 79.33 L11.42 94.87 L8.81 96.38 L0 80.84 Z" class="st1"/>
				</g>
				<g id="shape2504-17" transform="translate(9.57623,-28.7604)">
					<title>path18</title>
					<path d="M0 93.35 L21.28 91.56 L21.53 94.59 L0.25 96.38 L0 93.35 Z" class="st1"/>
				</g>
				<g id="shape2505-19" transform="translate(21.9352,-18.7916)">
					<title>path20</title>
					<path d="M0 94.81 L7.63 82.02 L10.21 83.59 L2.58 96.38 L0 94.81 Z" class="st1"/>
				</g>
				<g id="shape2506-21" transform="translate(1.59679,-38.2992)">
					<title>circle22</title>
					<ellipse cx="3.99197" cy="92.3465" rx="3.99197" ry="4.0315" class="st1"/>
				</g>
				<g id="shape2507-23" transform="translate(44.1778,-38.2992)">
					<title>circle24</title>
					<ellipse cx="3.99197" cy="92.3465" rx="3.99197" ry="4.0315" class="st1"/>
				</g>
				<g id="shape2508-25" transform="translate(23.9518,1.42109E-14)">
					<title>circle26</title>
					<ellipse cx="3.99197" cy="92.3465" rx="3.99197" ry="4.0315" class="st1"/>
				</g>
				<g id="shape2509-27" transform="translate(0,-2.65407)">
					<title>path28</title>
					<path d="M9.96 53.16 C14.24 48.64 20.26 45.83 26.93 45.83 C33.57 45.83 39.57 48.62 43.85 53.11 C44.59 52.18 45.64
								 51.49 46.82 51.19 C46.56 50.89 46.27 50.59 45.97 50.3 C43.5 47.8 40.62 45.85 37.41 44.47 C34.08
								 43.04 30.56 42.34 26.91 42.34 C23.27 42.34 19.74 43.06 16.42 44.47 C13.21 45.85 10.33 47.8 7.85
								 50.3 C7.55 50.6 7.27 50.91 6.99 51.21 C8.2 51.53 9.21 52.22 9.96 53.16 ZM52.34 60.5 C51.55 61.39
								 50.48 62.01 49.27 62.26 C50 64.56 50.4 67 50.4 69.55 C50.4 80.54 43 89.78 32.95 92.46 C33.33 93.24
								 33.55 94.09 33.55 95.02 C33.55 95.34 33.52 95.66 33.47 95.96 C34.81 95.62 36.13 95.17 37.41 94.63
								 C40.62 93.25 43.5 91.3 45.97 88.8 C48.45 86.3 50.38 83.39 51.75 80.15 C53.16 76.79 53.86 73.23 53.86
								 69.55 C53.86 66.43 53.36 63.39 52.34 60.5 ZM22.74 92.87 C11.78 90.87 3.46 81.19 3.46 69.53 C3.46
								 67 3.86 64.56 4.59 62.26 C3.38 62.04 2.31 61.42 1.5 60.56 C0.5 63.44 0 66.44 0 69.53 C0 73.21 0.72
								 76.77 2.11 80.13 C3.48 83.38 5.41 86.28 7.88 88.79 C10.36 91.29 13.24 93.24 16.45 94.61 C18.4 95.45
								 20.43 96.04 22.5 96.38 C22.39 95.94 22.34 95.47 22.34 95 C22.32 94.24 22.47 93.52 22.74 92.87 Z"
							class="st1"/>
				</g>
			</g>
		</g>
	</g>
</svg>
