<?xml version="1.0" encoding="UTF-8" standalone="no"?>
<!DOCTYPE svg PUBLIC "-//W3C//DTD SVG 1.1//EN" "http://www.w3.org/Graphics/SVG/1.1/DTD/svg11.dtd">
<!-- Generated by Microsoft Visio, SVG Export IP Group.svg Page-1 -->
<svg xmlns="http://www.w3.org/2000/svg" xmlns:xlink="http://www.w3.org/1999/xlink" xmlns:ev="http://www.w3.org/2001/xml-events"
		width="1.73185in" height="1.99978in" viewBox="0 0 124.693 143.984" xml:space="preserve" color-interpolation-filters="sRGB"
		class="st6">
	<style type="text/css">
	<![CDATA[
		.st1 {fill:#83b9f9;stroke:none;stroke-linecap:butt;stroke-width:34}
		.st2 {fill:#1f56a3;stroke:none;stroke-linecap:butt;stroke-width:34}
		.st3 {fill:#f2f2f2;stroke:none;stroke-linecap:butt;stroke-width:34}
		.st4 {fill:url(#grad0-18);stroke:none;stroke-linecap:butt;stroke-width:34}
		.st5 {fill:#0078d4;stroke:none;stroke-linecap:butt;stroke-width:34}
		.st6 {fill:none;fill-rule:evenodd;font-size:12px;overflow:visible;stroke-linecap:square;stroke-miterlimit:3}
	]]>
	</style>

	<defs id="Patterns_And_Gradients">
		<linearGradient id="grad0-18" x1="0" y1="0" x2="1" y2="0" gradientTransform="rotate(-90 0.5 0.5)">
			<stop offset="0" stop-color="#32bedd" stop-opacity="1"/>
			<stop offset="0.18" stop-color="#32caea" stop-opacity="1"/>
			<stop offset="0.41" stop-color="#32d2f2" stop-opacity="1"/>
			<stop offset="0.78" stop-color="#32d4f5" stop-opacity="1"/>
		</linearGradient>
	</defs>
	<g>
		<title>Page-1</title>
		<g id="group2360-1" transform="translate(34,-64.6299)">
			<title>IP Group</title>
			<g id="group2361-2">
				<title>Sheet.2361</title>
				<g id="shape2362-3" transform="translate(-2.8777E-13,-18.9828)">
					<title>Sheet.2362</title>
					<path d="M0 124.61 L31.84 124.61 L31.84 142.88 A1.0705 1.1011 0 0 1 30.77 143.98 L1.07 143.98 A1.0705 1.1011
								 0 0 1 0 142.88 L0 124.61 Z" class="st1"/>
				</g>
				<g id="shape2363-5" transform="translate(-2.8777E-13,-38.3567)">
					<title>Sheet.2363</title>
					<path d="M1.07 136.99 L30.77 136.99 A1.0705 1.1011 0 0 1 31.84 138.09 L31.84 143.98 L0 143.98 L0 138.09 A1.0705
								 1.1011 0 0 1 1.07 136.99 Z" class="st2"/>
				</g>
				<g id="shape2364-7" transform="translate(4.28198,-40.4285)">
					<title>Sheet.2364</title>
					<path d="M0 143.43 a0.536928 0.552278 -180 0 0 0.536915 0.552265 L22.74 143.98 a0.536928 0.552278 -180 0 0 0.536915
								 -0.552265 L23.27 141.72 a0.536928 0.552278 -180 0 0 -0.536915 -0.552265 L0.54 141.16 a0.536928 0.552278
								 -180 0 0 -0.536915 0.552265 L0 143.43 Z" class="st3"/>
				</g>
				<g id="shape2365-9" transform="translate(12.4091,-9.52571)">
					<title>Sheet.2365</title>
					<path d="M0 124.61 L31.87 124.61 L31.87 142.88 A1.0705 1.1011 0 0 1 30.8 143.98 L1.07 143.98 A1.0705 1.1011 0
								 0 1 0 142.88 L0 124.61 Z" class="st1"/>
				</g>
				<g id="shape2366-11" transform="translate(12.4424,-28.8961)">
					<title>Sheet.2366</title>
					<path d="M1.04 137.02 L30.74 137.02 A1.0705 1.1011 0 0 1 31.81 138.12 L31.81 143.98 L0 143.98 L0 138.12 A1.0705
								 1.1011 0 0 1 1.04 137.02 Z" class="st2"/>
				</g>
				<g id="shape2367-13" transform="translate(16.6944,-30.9371)">
					<title>Sheet.2367</title>
					<path d="M0 143.43 a0.536928 0.552278 -180 0 0 0.536915 0.552265 L22.74 143.98 a0.536928 0.552278 -180 0 0 0.536915
								 -0.552265 L23.27 141.72 a0.536928 0.552278 -180 0 0 -0.536915 -0.552265 L0.54 141.16 a0.536928 0.552278
								 -180 0 0 -0.536915 0.552265 L0 143.43 Z" class="st3"/>
				</g>
				<g id="shape2368-15" transform="translate(24.8515,0)">
					<title>Sheet.2368</title>
					<path d="M0 124.61 L31.84 124.61 L31.84 142.88 A1.0705 1.1011 0 0 1 30.77 143.98 L1.07 143.98 A1.0705 1.1011
								 0 0 1 0 142.88 L0 124.61 Z" class="st4"/>
				</g>
				<g id="shape2369-19" transform="translate(24.8515,-19.3739)">
					<title>Sheet.2369</title>
					<path d="M1.07 136.99 L30.77 136.99 A1.0705 1.1011 0 0 1 31.84 138.09 L31.84 143.98 L0 143.98 L0 138.09 A1.0705
								 1.1011 0 0 1 1.07 136.99 Z" class="st5"/>
				</g>
				<g id="group2370-21" transform="translate(31.0244,-8.22909)">
					<title>Sheet.2370</title>
					<g id="shape2371-22" transform="translate(14.33,0)">
						<title>Sheet.2371</title>
						<ellipse cx="2.58119" cy="141.329" rx="2.58119" ry="2.65499" class="st5"/>
					</g>
					<g id="shape2372-24" transform="translate(7.2767,0)">
						<title>Sheet.2372</title>
						<ellipse cx="2.58119" cy="141.329" rx="2.58119" ry="2.65499" class="st5"/>
					</g>
					<g id="shape2373-26">
						<title>Sheet.2373</title>
						<ellipse cx="2.58119" cy="141.329" rx="2.58119" ry="2.65499" class="st5"/>
					</g>
				</g>
				<g id="shape2374-28" transform="translate(29.1335,-21.4457)">
					<title>Sheet.2374</title>
					<path d="M0 143.43 a0.536928 0.552278 -180 0 0 0.536915 0.552265 L22.74 143.98 a0.536928 0.552278 -180 0 0 0.536915
								 -0.552265 L23.27 141.72 a0.536928 0.552278 -180 0 0 -0.536915 -0.552265 L0.54 141.16 a0.536928 0.552278
								 -180 0 0 -0.536915 0.552265 L0 143.43 Z" class="st3"/>
				</g>
			</g>
		</g>
	</g>
</svg>
