<?xml version="1.0" encoding="UTF-8" standalone="no"?>
<!-- Generated by Microsoft Visio, SVG Export Java.svg Page-1 -->

<svg
   xmlns:dc="http://purl.org/dc/elements/1.1/"
   xmlns:cc="http://creativecommons.org/ns#"
   xmlns:rdf="http://www.w3.org/1999/02/22-rdf-syntax-ns#"
   xmlns:svg="http://www.w3.org/2000/svg"
   xmlns="http://www.w3.org/2000/svg"
   xmlns:sodipodi="http://sodipodi.sourceforge.net/DTD/sodipodi-0.dtd"
   xmlns:inkscape="http://www.inkscape.org/namespaces/inkscape"
   width="0.5645799in"
   height="0.78084499in"
   viewBox="0 0 40.649757 56.220795"
   xml:space="preserve"
   class="st5"
   version="1.1"
   id="svg47"
   sodipodi:docname="Java.svg"
   style="font-size:12px;overflow:visible;color-interpolation-filters:sRGB;fill:none;fill-rule:evenodd;stroke-linecap:square;stroke-miterlimit:3"
   inkscape:version="0.92.5 (2060ec1f9f, 2020-04-08)"><metadata
   id="metadata53"><rdf:RDF><cc:Work
       rdf:about=""><dc:format>image/svg+xml</dc:format><dc:type
         rdf:resource="http://purl.org/dc/dcmitype/StillImage" /></cc:Work></rdf:RDF></metadata><defs
   id="defs51" /><sodipodi:namedview
   pagecolor="#ffffff"
   bordercolor="#666666"
   borderopacity="1"
   objecttolerance="10"
   gridtolerance="10"
   guidetolerance="10"
   inkscape:pageopacity="0"
   inkscape:pageshadow="2"
   inkscape:window-width="640"
   inkscape:window-height="480"
   id="namedview49"
   showgrid="false"
   inkscape:zoom="1.7168451"
   inkscape:cx="27.101281"
   inkscape:cy="22.750536"
   inkscape:window-x="0"
   inkscape:window-y="0"
   inkscape:window-maximized="0"
   inkscape:current-layer="svg47" />
	<style
   type="text/css"
   id="style2">
	<![CDATA[
		.st1 {fill:#5382a1}
		.st2 {stroke:none;stroke-linecap:butt;stroke-width:12.3877}
		.st3 {fill:#e76f00}
		.st4 {fill:#5382a1;stroke:none;stroke-linecap:butt;stroke-width:12.3877}
		.st5 {fill:none;fill-rule:evenodd;font-size:12px;overflow:visible;stroke-linecap:square;stroke-miterlimit:3}
	]]>
	</style>

	<g
   id="g45"
   transform="translate(-12.387632,-12.3901)">
		<title
   id="title4">Page-1</title>
		<g
   id="group4144-1"
   transform="translate(7.05887,-34.0157)">
			<title
   id="title6">Java</title>
			<g
   id="group4145-2">
				<title
   id="title8">layer1</title>
				<g
   id="shape4146-3"
   transform="translate(7.75501,-5.81745)">
					<title
   id="title10">path6</title>
					<path
   d="m 10.66,95.7 c 0,0 -2.11,1.25 1.5,1.67 a 31.5607,32.1675 -180 0 0 11.42,-0.5 19.8706,20.2526 -180 0 0 3.04,1.51 C 15.82,103.1 2.18,98.11 10.66,95.67 Z M 9.34,89.55 c 0,0 -2.36,1.8 1.25,2.16 a 44.5537,45.4103 -180 0 0 14.74,-0.72 6.54081,6.66657 -180 0 0 2.26,1.45 C 14.54,96.29 0,92.71 9.34,89.55 Z"
   class="st1"
   id="path12"
   inkscape:connector-curvature="0"
   style="fill:#5382a1" />
					<path
   d="m 10.66,95.7 c 0,0 -2.11,1.25 1.5,1.67 a 31.5607,32.1675 -180 0 0 11.42,-0.5 19.8706,20.2526 -180 0 0 3.04,1.51 C 15.82,103.1 2.18,98.11 10.66,95.67 M 9.34,89.55 c 0,0 -2.36,1.8 1.25,2.16 a 44.5537,45.4103 -180 0 0 14.74,-0.72 6.54081,6.66657 -180 0 0 2.26,1.45 C 14.54,96.29 0,92.71 9.34,89.55"
   class="st2"
   id="path14"
   inkscape:connector-curvature="0"
   style="stroke:none;stroke-width:12.38770008;stroke-linecap:butt" />
				</g>
				<g
   id="shape4147-6"
   transform="translate(19.197,-23.875)">
					<title
   id="title17">path8</title>
					<path
   d="m 9.02,97.16 c 2.66,3.13 -0.7,5.94 -0.7,5.94 0,0 6.76,-3.55 3.65,-8.01 -2.89,-4.15 -5.12,-6.21 6.92,-13.32 0,0 -18.89,4.8 -9.87,15.36 z"
   class="st3"
   id="path19"
   inkscape:connector-curvature="0"
   style="fill:#e76f00" />
					<path
   d="m 9.02,97.16 c 2.66,3.13 -0.7,5.94 -0.7,5.94 0,0 6.76,-3.55 3.65,-8.01 -2.89,-4.15 -5.12,-6.21 6.92,-13.32 0,0 -18.89,4.8 -9.87,15.36"
   class="st2"
   id="path21"
   inkscape:connector-curvature="0"
   style="stroke:none;stroke-width:12.38770008;stroke-linecap:butt" />
				</g>
				<g
   id="shape4148-9"
   transform="translate(0,-0.794851)">
					<title
   id="title24">path10</title>
					<path
   d="m 42.5,95.23 c 0,0 1.56,1.31 -1.69,2.32 -6.2,1.92 -25.94,2.5 -31.42,0.07 -1.96,-0.9 1.72,-2.08 2.89,-2.34 a 7.48914,7.63313 0 0 1 1.9,-0.21 C 11.99,93.49 0,98.16 8.11,99.48 30.12,103.1 48.24,97.85 42.53,95.22 Z M 19.43,78.15 c 0,0 -10.03,2.43 -3.55,3.3 a 75.3345,76.7829 -180 0 0 13.3,-0.14 c 4.14,-0.35 8.31,-1.11 8.31,-1.11 a 17.6017,17.9401 -180 0 0 -2.52,1.37 C 24.79,84.28 5.13,83.03 10.79,80.24 a 18.9666,19.3312 0 0 1 8.67,-2.09 z M 37.41,88.39 C 47.76,82.9 42.98,77.64 39.63,78.38 a 7.74616,7.89509 -180 0 0 -1.18,0.33 1.88779,1.92409 0 0 1 0.88,-0.7 c 6.61,-2.37 11.69,6.98 -2.13,10.69 a 0.886289,0.903329 -180 0 0 0.204,-0.27996 z"
   class="st1"
   id="path26"
   inkscape:connector-curvature="0"
   style="fill:#5382a1" />
					<path
   d="m 42.5,95.23 c 0,0 1.56,1.31 -1.69,2.32 -6.2,1.92 -25.94,2.5 -31.42,0.07 -1.96,-0.9 1.72,-2.08 2.89,-2.34 a 7.48914,7.63313 0 0 1 1.9,-0.21 C 11.99,93.49 0,98.16 8.11,99.48 30.12,103.1 48.24,97.85 42.53,95.22 M 19.43,78.15 c 0,0 -10.03,2.43 -3.55,3.3 a 75.3345,76.7829 -180 0 0 13.3,-0.14 c 4.14,-0.35 8.31,-1.11 8.31,-1.11 a 17.6017,17.9401 -180 0 0 -2.52,1.37 C 24.79,84.28 5.13,83.03 10.79,80.24 a 18.9666,19.3312 0 0 1 8.67,-2.09 M 37.41,88.39 C 47.76,82.9 42.98,77.64 39.63,78.38 a 7.74616,7.89509 -180 0 0 -1.18,0.33 1.88779,1.92409 0 0 1 0.88,-0.7 c 6.61,-2.37 11.69,6.98 -2.13,10.69 a 0.886289,0.903329 -180 0 0 0.204,-0.27996"
   class="st2"
   id="path28"
   inkscape:connector-curvature="0"
   style="stroke:none;stroke-width:12.38770008;stroke-linecap:butt" />
				</g>
				<g
   id="shape4149-12"
   transform="translate(16.68,-25.8442)">
					<title
   id="title31">path12</title>
					<path
   d="m 14.49,72.25 c 0,0 5.74,5.89 -5.42,14.83 -8.95,7.23 -2.04,11.32 0,16.02 C 3.84,98.29 0,94.06 2.58,90.12 6.35,84.34 16.82,81.54 14.51,72.26 Z"
   class="st3"
   id="path33"
   inkscape:connector-curvature="0"
   style="fill:#e76f00" />
					<path
   d="m 14.49,72.25 c 0,0 5.74,5.89 -5.42,14.83 -8.95,7.23 -2.04,11.32 0,16.02 C 3.84,98.29 0,94.06 2.58,90.12 6.35,84.34 16.82,81.54 14.51,72.26"
   class="st2"
   id="path35"
   inkscape:connector-curvature="0"
   style="stroke:none;stroke-width:12.38770008;stroke-linecap:butt" />
				</g>
				<g
   id="shape4150-15"
   transform="translate(12.6385)">
					<title
   id="title38">path14</title>
					<path
   d="m 7.79,102.45 c 9.94,0.65 25.19,-0.37 25.55,-5.15 0,0 -0.69,1.8 -8.2,3.26 A 81.6715,83.2417 0 0 1 0,100.96 c 0,0 1.28,1.02 7.79,1.49 z"
   class="st4"
   id="path40"
   inkscape:connector-curvature="0"
   style="fill:#5382a1;stroke:none;stroke-width:12.38770008;stroke-linecap:butt" />
				</g>
			</g>
		</g>
	</g>
</svg>