<?xml version="1.0" encoding="UTF-8" standalone="no"?>
<!DOCTYPE svg PUBLIC "-//W3C//DTD SVG 1.1//EN" "http://www.w3.org/Graphics/SVG/1.1/DTD/svg11.dtd">
<!-- Generated by Microsoft Visio, SVG Export Jenkins.svg Page-1 -->
<svg xmlns="http://www.w3.org/2000/svg" xmlns:xlink="http://www.w3.org/1999/xlink" xmlns:ev="http://www.w3.org/2001/xml-events"
		width="0.614173in" height="1.33858in" viewBox="0 0 44.2205 96.378" xml:space="preserve" color-interpolation-filters="sRGB"
		class="st21">
	<style type="text/css">
	<![CDATA[
		.st1 {fill:#f0d6b7;stroke:none;stroke-width:1}
		.st2 {fill:none}
		.st3 {stroke:none;stroke-linecap:butt;stroke-width:0.75}
		.st4 {fill:#335061;stroke:none;stroke-linecap:butt;stroke-width:0.75}
		.st5 {fill:#6d6b6d;stroke:none;stroke-width:1}
		.st6 {fill:none;stroke:none;stroke-linecap:butt;stroke-width:0.75}
		.st7 {fill:#dcd9d8;stroke:none;stroke-linecap:butt;stroke-width:0.75}
		.st8 {fill:#f7e4cd;stroke:none;stroke-width:1}
		.st9 {fill:#f7e4cd;stroke:none;stroke-linecap:butt;stroke-width:0.75}
		.st10 {fill:#49728b;stroke:none;stroke-width:1}
		.st11 {fill:#335061;stroke:none;stroke-width:1}
		.st12 {fill:#ffffff;stroke:none;stroke-width:1}
		.st13 {fill:#dcd9d8;stroke:none;stroke-width:1}
		.st14 {fill:#ffffff;stroke:none;stroke-linecap:butt;stroke-width:0.75}
		.st15 {fill:#d33833;stroke:none;stroke-linecap:butt;stroke-width:0.75}
		.st16 {fill:none;stroke:#d33833;stroke-linecap:butt;stroke-width:1.875}
		.st17 {fill:#ef3d3a;stroke:none;stroke-width:1}
		.st18 {fill:#231f20;stroke:none;stroke-width:1}
		.st19 {fill:#81b0c4;stroke:none;stroke-width:1}
		.st20 {fill:#81b0c4;stroke:none;stroke-linecap:butt;stroke-width:0.75}
		.st21 {fill:none;fill-rule:evenodd;font-size:12px;overflow:visible;stroke-linecap:square;stroke-miterlimit:3}
	]]>
	</style>

	<g>
		<title>Page-1</title>
		<g id="group2673-1" transform="translate(3.68504,-34.0157)">
			<title>Jenkins</title>
			<g id="group2674-2">
				<title>Page-1</title>
				<g id="group2675-3">
					<title>Jenkins</title>
					<g id="group2676-4" transform="translate(3.4538,-27.798)">
						<title>Sheet.2676</title>
						<g id="shape2677-5">
							<title>Sheet.2677</title>
							<path d="M21.5 95.42 L18.45 95.86 L14.33 96.3 L11.66 96.38 L9.07 96.3 L7.08 95.71 L5.33 93.86 L3.96 90.1
										 L3.65 89.28 L1.83 88.69 L0.76 86.99 L0 84.55 L0.84 82.41 L2.81 81.74 L4.42 82.48 L5.18 84.11
										 L6.1 83.96 L6.4 83.6 L6.1 81.89 L6.02 79.75 L6.48 76.8 L6.46 75.1 L7.85 72.95 L10.29 71.25
										 L14.56 69.47 L19.29 70.14 L23.4 73.03 L25.3 75.98 L26.52 78.13 L26.83 83.45 L25.91 88.02
										 L24.24 92.09 L22.63 94.23 L21.5 95.42 Z" class="st1"/>
						</g>
						<g id="shape2678-7">
							<title>Sheet.2678</title>
							<path d="M21.5 95.42 L18.45 95.86 L14.33 96.3 L11.66 96.38 L9.07 96.3 L7.08 95.71 L5.33 93.86 L3.96 90.1
										 L3.65 89.28 L1.83 88.69 L0.76 86.99 L0 84.55 L0.84 82.41 L2.81 81.74 L4.42 82.48 L5.18 84.11
										 L6.1 83.96 L6.4 83.6 L6.1 81.89 L6.02 79.75 L6.48 76.8 L6.46 75.1 L7.85 72.95 L10.29 71.25
										 L14.56 69.47 L19.29 70.14 L23.4 73.03 L25.3 75.98 L26.52 78.13 L26.83 83.45 L25.91 88.02
										 L24.24 92.09 L22.63 94.23 L21.5 95.42 Z" class="st2"/>
							<path d="M21.5 95.42 L18.45 95.86 L14.33 96.3 L11.66 96.38 L9.07 96.3 L7.08 95.71 L5.33 93.86 L3.96 90.1
										 L3.65 89.28 L1.83 88.69 L0.76 86.99 L0 84.55 L0.84 82.41 L2.81 81.74 L4.42 82.48 L5.18 84.11
										 L6.1 83.96 L6.4 83.6 L6.1 81.89 L6.02 79.75 L6.48 76.8 L6.46 75.1 L7.85 72.95 L10.29 71.25
										 L14.56 69.47 L19.29 70.14 L23.4 73.03 L25.3 75.98 L26.52 78.13 L26.83 83.45 L25.91 88.02
										 L24.24 92.09 L22.63 94.23" class="st3"/>
						</g>
					</g>
					<g id="group2679-10" transform="translate(0.862378,-7.03529)">
						<title>Sheet.2679</title>
						<g id="shape2680-11">
							<title>Sheet.2680</title>
							<path d="M21.5 87.44 L10.59 87.87 L10.59 89.65 L11.51 95.86 L11.06 96.38 L3.43 93.86 L2.9 92.97 L2.13
										 84.63 L0.38 79.6 L0 78.42 L6.1 74.36 L8 73.61 L9.68 75.61 L11.13 76.87 L12.81 77.38 L13.56
										 77.6 L14.48 81.45 L15.17 82.27 L16.92 81.67 L15.7 83.96 L22.34 86.99 L21.5 87.44 Z"
									class="st4"/>
						</g>
					</g>
					<g id="group2681-13" transform="translate(3.98738,-40.0637)">
						<title>Sheet.2681</title>
						<g id="shape2682-14">
							<title>Sheet.2682</title>
							<path d="M0.31 94.67 L2.28 94.01 L3.89 94.75 L4.65 96.38 L5.57 96.23 L5.79 95.34 L5.33 93.64 L5.79 89.58
										 L5.41 87.36 L6.79 85.81 L9.76 83.52 L8.92 82.41 L4.73 84.4 L2.97 85.73 L1.99 87.8 L0.46
										 89.8 L0 92.16 L0.31 94.67 Z" class="st5"/>
						</g>
						<g id="shape2683-16">
							<title>Sheet.2683</title>
							<path d="M0.31 94.67 L2.28 94.01 L3.89 94.75 L4.65 96.38 L5.57 96.23 L5.79 95.34 L5.33 93.64 L5.79 89.58
										 L5.41 87.36 L6.79 85.81 L9.76 83.52 L8.92 82.41 L4.73 84.4 L2.97 85.73 L1.99 87.8 L0.46
										 89.8 L0 92.16 L0.31 94.67 Z" class="st6"/>
						</g>
					</g>
					<g id="group2684-18" transform="translate(3.53005,-41.7633)">
						<title>Sheet.2684</title>
						<g id="shape2685-19">
							<title>Sheet.2685</title>
							<path d="M3.89 89.43 C3.89 89.43 5.03 86.69 9.6 85.36 C14.18 84.03 9.83 84.4 9.83 84.4 L4.88 86.26 L2.97
										 88.1 L2.13 89.58 L3.89 89.43 ZM1.6 95.86 C1.6 95.86 0 90.68 6.1 89.95 L5.87 89.06 L1.68
										 90.02 L0.46 93.86 L0.76 96.38 L1.6 95.86 Z" class="st7"/>
						</g>
					</g>
					<g id="group2686-21" transform="translate(3.37775,-27.864)">
						<title>Sheet.2686</title>
						<g id="shape2687-22">
							<title>Sheet.2687</title>
							<path d="M4.19 88.83 L5.19 87.89 C5.19 87.89 5.64 87.94 5.71 88.46 C5.79 88.97 6.02 93.63 9.29 96.15
										 C9.6 96.38 6.86 95.77 6.86 95.77 L4.42 92.08 L4.19 88.83 ZM18.22 87.43 C18.22 87.43 18.39
										 85.18 19.02 85.36 C19.63 85.53 19.63 86.14 19.63 86.14 C19.63 86.14 18.13 87.08 18.22 87.43
										 ZM24.54 79.22 C24.54 79.22 23.29 79.48 23.16 80.56 C23.05 81.63 24.54 80.78 24.77 80.7 L24.54
										 79.22 ZM15.32 79.3 C15.32 79.3 13.64 79.52 13.64 80.55 C13.64 81.59 15.55 81.51 16.08 81.08
										 L15.32 79.3 ZM4.95 84.1 C4.95 84.1 2.06 82.41 1.75 84.02 C1.44 85.65 0.76 86.83 2.21 88.54
										 L1.22 88.24 L0.31 85.95 L0 83.73 L1.75 81.96 L3.74 82.11 L4.88 82.99 L4.95 84.1 ZM6.33 79.45
										 C6.33 79.45 7.63 72.95 14.18 71.69 C19.57 70.66 22.41 71.91 23.47 73.1 C23.47 73.1 18.67
										 67.55 14.1 69.25 C9.53 70.95 6.17 74.05 6.25 76.04 C6.38 79.45 6.33 79.45 6.33 79.45 ZM24
										 73.83 C24 73.83 21.79 73.75 21.72 75.68 C21.72 75.68 21.72 75.97 21.87 76.27 C21.87 76.27
										 23.63 74.35 24.69 75.38 L24 73.83 Z" class="st8"/>
						</g>
						<g id="shape2688-24">
							<title>Sheet.2688</title>
							<path d="M4.19 88.83 L5.19 87.89 C5.19 87.89 5.64 87.94 5.71 88.46 C5.79 88.97 6.02 93.63 9.29 96.15
										 C9.6 96.38 6.86 95.77 6.86 95.77 L4.42 92.08 L4.19 88.83 ZM18.22 87.43 C18.22 87.43 18.39
										 85.18 19.02 85.36 C19.63 85.53 19.63 86.14 19.63 86.14 C19.63 86.14 18.13 87.08 18.22 87.43
										 ZM24.54 79.22 C24.54 79.22 23.29 79.48 23.16 80.56 C23.05 81.63 24.54 80.78 24.77 80.7 L24.54
										 79.22 ZM15.32 79.3 C15.32 79.3 13.64 79.52 13.64 80.55 C13.64 81.59 15.55 81.51 16.08 81.08
										 L15.32 79.3 ZM4.95 84.1 C4.95 84.1 2.06 82.41 1.75 84.02 C1.44 85.65 0.76 86.83 2.21 88.54
										 L1.22 88.24 L0.31 85.95 L0 83.73 L1.75 81.96 L3.74 82.11 L4.88 82.99 L4.95 84.1 ZM6.33 79.45
										 C6.33 79.45 7.63 72.95 14.18 71.69 C19.57 70.66 22.41 71.91 23.47 73.1 C23.47 73.1 18.67
										 67.55 14.1 69.25 C9.53 70.95 6.17 74.05 6.25 76.04 C6.38 79.45 6.33 79.45 6.33 79.45 ZM24
										 73.83 C24 73.83 21.79 73.75 21.72 75.68 C21.72 75.68 21.72 75.97 21.87 76.27 C21.87 76.27
										 23.63 74.35 24.69 75.38 L24 73.83 Z" class="st2"/>
							<path d="M4.19 88.83 L5.19 87.89 C5.19 87.89 5.64 87.94 5.71 88.46 C5.79 88.97 6.02 93.63 9.29 96.15
										 C9.6 96.38 6.86 95.77 6.86 95.77 L4.42 92.08M18.22 87.43 C18.22 87.43 18.39 85.18 19.02
										 85.36 C19.63 85.53 19.63 86.14 19.63 86.14 C19.63 86.14 18.13 87.08 18.22 87.43M24.54 79.22
										 C24.54 79.22 23.29 79.48 23.16 80.56 C23.05 81.63 24.54 80.78 24.77 80.7M15.32 79.3 C15.32
										 79.3 13.64 79.52 13.64 80.55 C13.64 81.59 15.55 81.51 16.08 81.08M4.95 84.1 C4.95 84.1 2.06
										 82.41 1.75 84.02 C1.44 85.65 0.76 86.83 2.21 88.54 L1.22 88.24 L0.31 85.95 L0 83.73 L1.75
										 81.96 L3.74 82.11 L4.88 82.99 L4.95 84.1M6.33 79.45 C6.33 79.45 7.63 72.95 14.18 71.69 C19.57
										 70.66 22.41 71.91 23.47 73.1 C23.47 73.1 18.67 67.55 14.1 69.25 C9.53 70.95 6.17 74.05 6.25
										 76.04 C6.38 79.45 6.33 79.45 6.33 79.45M24 73.83 C24 73.83 21.79 73.75 21.72 75.68 C21.72
										 75.68 21.72 75.97 21.87 76.27 C21.87 76.27 23.63 74.35 24.69 75.38" class="st3"/>
						</g>
					</g>
					<g id="group2689-27" transform="translate(13.0568,-45.1577)">
						<title>Sheet.2689</title>
						<g id="shape2690-28">
							<title>Sheet.2690</title>
							<path d="M4.65 93.76 C4.65 93.76 4.27 90.81 1.68 92.53 C0 93.64 0.15 95.19 0.46 95.48 C0.76 95.78 0.68
										 96.38 0.91 95.96 C1.15 95.55 1.06 94.22 1.9 93.86 C2.74 93.49 4.11 93.07 4.65 93.76 Z"
									class="st9"/>
						</g>
					</g>
					<g id="group2691-30" transform="translate(0.862574,-9.69531)">
						<title>Sheet.2691</title>
						<g id="shape2692-31">
							<title>Sheet.2692</title>
							<path d="M9.68 78.27 L2.52 81.37 C2.52 81.37 5.49 92.83 3.96 96.38 L2.9 96 L2.81 91.64 L0.84 83.37 L0
										 81.08 L7.47 76.2 L9.68 78.27 ZM10.42 84.61 L11.43 85.81 L11.43 90.24 L10.22 90.24 C10.22
										 90.24 10.06 87.14 10.06 86.77 C10.06 86.39 10.22 85.06 10.22 85.06 L10.42 84.61 ZM10.44
										 90.91 L7.01 91.06 L8 91.72 L10.44 92.09 L10.44 90.91 Z" class="st10"/>
						</g>
						<g id="shape2693-33">
							<title>Sheet.2693</title>
							<path d="M9.68 78.27 L2.52 81.37 C2.52 81.37 5.49 92.83 3.96 96.38 L2.9 96 L2.81 91.64 L0.84 83.37 L0
										 81.08 L7.47 76.2 L9.68 78.27 ZM10.42 84.61 L11.43 85.81 L11.43 90.24 L10.22 90.24 C10.22
										 90.24 10.06 87.14 10.06 86.77 C10.06 86.39 10.22 85.06 10.22 85.06 L10.42 84.61 ZM10.44
										 90.91 L7.01 91.06 L8 91.72 L10.44 92.09 L10.44 90.91 Z" class="st2"/>
							<path d="M9.68 78.27 L2.52 81.37 C2.52 81.37 5.49 92.83 3.96 96.38 L2.9 96 L2.81 91.64 L0.84 83.37 L0
										 81.08 L7.47 76.2 L9.68 78.27M10.42 84.61 L11.43 85.81 L11.43 90.24 L10.22 90.24 C10.22 90.24
										 10.06 87.14 10.06 86.77 C10.06 86.39 10.22 85.06 10.22 85.06M10.44 90.91 L7.01 91.06 L8
										 91.72 L10.44 92.09" class="st3"/>
						</g>
					</g>
					<g id="group2694-36" transform="translate(23.041,-8.80838)">
						<title>Sheet.2694</title>
						<g id="shape2695-37">
							<title>Sheet.2695</title>
							<path d="M0 89.28 L2.81 89.2 L3.5 96 L0.61 96.38 L0 89.28 Z" class="st4"/>
						</g>
					</g>
					<g id="group2696-39" transform="translate(23.803,-15.9017)">
						<title>Sheet.2696</title>
						<g id="shape2697-40">
							<title>Sheet.2697</title>
							<path d="M0 96.38 L4.27 96.15 C4.27 96.15 6.02 91.86 6.02 91.64 C6.02 91.43 7.54 85.44 7.54 85.44 L4.11
										 81.97 L3.43 81.37 L1.6 83.15 L1.6 90.02 L0 96.38 Z" class="st11"/>
						</g>
						<g id="shape2698-42">
							<title>Sheet.2698</title>
							<path d="M0 96.38 L4.27 96.15 C4.27 96.15 6.02 91.86 6.02 91.64 C6.02 91.43 7.54 85.44 7.54 85.44 L4.11
										 81.97 L3.43 81.37 L1.6 83.15 L1.6 90.02 L0 96.38 Z" class="st6"/>
						</g>
					</g>
					<g id="group2699-44" transform="translate(23.041,-13.3895)">
						<title>Sheet.2699</title>
						<g id="shape2700-45">
							<title>Sheet.2700</title>
							<path d="M2.67 93.34 L0 93.86 L0.38 95.93 C1.37 96.38 3.05 95.19 3.05 95.19 L2.67 93.34 ZM2.74 80.41
										 L8.08 84.26 L8.23 82.48 L4.2 78.86 L2.74 80.41 Z" class="st10"/>
						</g>
						<g id="shape2701-47">
							<title>Sheet.2701</title>
							<path d="M2.67 93.34 L0 93.86 L0.38 95.93 C1.37 96.38 3.05 95.19 3.05 95.19 L2.67 93.34 ZM2.74 80.41
										 L8.08 84.26 L8.23 82.48 L4.2 78.86 L2.74 80.41 Z" class="st2"/>
							<path d="M2.67 93.34 L0 93.86 L0.38 95.93 C1.37 96.38 3.05 95.19 3.05 95.19M2.74 80.41 L8.08 84.26 L8.23
										 82.48 L4.2 78.86 L2.74 80.41" class="st3"/>
						</g>
					</g>
					<g id="group2702-50" transform="translate(11.4563,-0.606158)">
						<title>Sheet.2702</title>
						<g id="shape2703-51">
							<title>Sheet.2703</title>
							<path d="M2.5 95.63 L0.91 89.43 L0.13 84.85 L0 81.45 L7.14 81.08 L11.59 81.08 L11.18 88.84 L11.86 94.82
										 L11.79 95.93 L6 96.38 L2.49 95.63 L2.5 95.63 Z" class="st12"/>
						</g>
						<g id="shape2704-53">
							<title>Sheet.2704</title>
							<path d="M2.5 95.63 L0.91 89.43 L0.13 84.85 L0 81.45 L7.14 81.08 L11.59 81.08 L11.18 88.84 L11.86 94.82
										 L11.79 95.93 L6 96.38 L2.49 95.63 L2.5 95.63 Z" class="st2"/>
							<path d="M2.5 95.63 L0.91 89.43 L0.13 84.85 L0 81.45 L7.14 81.08 L11.59 81.08 L11.18 88.84 L11.86 94.82
										 L11.79 95.93 L6 96.38 L2.49 95.63" class="st3"/>
						</g>
					</g>
					<g id="group2705-56" transform="translate(17.1723,-1.05029)">
						<title>Sheet.2705</title>
						<g id="shape2706-57">
							<title>Sheet.2706</title>
							<path d="M4.88 81.45 C4.88 81.45 4.49 89.13 5.64 94.6 C5.64 94.6 3.36 96 0 96.38 L6.4 96.15 L7.17 95.71
										 L6.25 83.6 L6.02 81.01 L4.88 81.45 Z" class="st13"/>
						</g>
						<g id="shape2707-59">
							<title>Sheet.2707</title>
							<path d="M4.88 81.45 C4.88 81.45 4.49 89.13 5.64 94.6 C5.64 94.6 3.36 96 0 96.38 L6.4 96.15 L7.17 95.71
										 L6.25 83.6 L6.02 81.01 L4.88 81.45 Z" class="st2"/>
							<path d="M4.88 81.45 C4.88 81.45 4.49 89.13 5.64 94.6 C5.64 94.6 3.36 96 0 96.38 L6.4 96.15 L7.17 95.71
										 L6.25 83.6 L6.02 81.01" class="st3"/>
						</g>
					</g>
					<g id="group2708-62" transform="translate(25.8608,-9.76829)">
						<title>Sheet.2708</title>
						<g id="shape2709-63">
							<title>Sheet.2709</title>
							<path d="M0.82 96.38 L3.79 95.56 L9.43 95.27 L10.27 92.76 L8.74 88.4 L6.99 88.17 L4.56 88.92 L2.21 90.02
										 L0.97 89.8 L0 90.17 L0.82 96.38 Z" class="st12"/>
						</g>
						<g id="shape2710-65">
							<title>Sheet.2710</title>
							<path d="M0.82 96.38 L3.79 95.56 L9.43 95.27 L10.27 92.76 L8.74 88.4 L6.99 88.17 L4.56 88.92 L2.21 90.02
										 L0.97 89.8 L0 90.17 L0.82 96.38 Z" class="st2"/>
							<path d="M0.82 96.38 L3.79 95.56 L9.43 95.27 L10.27 92.76 L8.74 88.4 L6.99 88.17 L4.56 88.92 L2.21 90.02
										 L0.97 89.8 L0 90.17" class="st3"/>
						</g>
					</g>
					<g id="group2711-68" transform="translate(26.6228,-9.69512)">
						<title>Sheet.2711</title>
						<g id="shape2712-69">
							<title>Sheet.2712</title>
							<path d="M0 94.82 C0 94.82 1.99 93.94 2.28 94.01 L1.44 89.95 L2.44 89.58 C2.44 89.58 3.12 93.42 3.12
										 93.86 C3.12 93.86 7.39 94.09 7.77 94.09 C7.77 94.09 8.69 92.39 8.46 90.61 L9.29 92.97 L9.38
										 94.3 L8.16 96.08 L6.79 96.38 L4.49 96.3 L3.74 95.34 L1.06 95.71 L0.23 96 L0 94.82 Z"
									class="st13"/>
						</g>
						<g id="shape2713-71">
							<title>Sheet.2713</title>
							<path d="M0 94.82 C0 94.82 1.99 93.94 2.28 94.01 L1.44 89.95 L2.44 89.58 C2.44 89.58 3.12 93.42 3.12
										 93.86 C3.12 93.86 7.39 94.09 7.77 94.09 C7.77 94.09 8.69 92.39 8.46 90.61 L9.29 92.97 L9.38
										 94.3 L8.16 96.08 L6.79 96.38 L4.49 96.3 L3.74 95.34 L1.06 95.71 L0.23 96 L0 94.82 Z"
									class="st2"/>
							<path d="M0 94.82 C0 94.82 1.99 93.94 2.28 94.01 L1.44 89.95 L2.44 89.58 C2.44 89.58 3.12 93.42 3.12
										 93.86 C3.12 93.86 7.39 94.09 7.77 94.09 C7.77 94.09 8.69 92.39 8.46 90.61 L9.29 92.97 L9.38
										 94.3 L8.16 96.08 L6.79 96.38 L4.49 96.3 L3.74 95.34 L1.06 95.71 L0.23 96" class="st3"/>
						</g>
					</g>
					<g id="group2714-74" transform="translate(20.1984,-16.4921)">
						<title>Sheet.2714</title>
						<g id="shape2715-75">
							<title>Sheet.2715</title>
							<path d="M3.43 96.38 L1.75 92.24 L0 89.8 C0 89.8 0.38 88.77 0.91 88.77 L2.67 88.77 L4.34 89.35 L4.2 92.09
										 L3.43 96.38 Z" class="st14"/>
						</g>
					</g>
					<g id="group2716-77" transform="translate(20.0689,-17.1582)">
						<title>Sheet.2716</title>
						<g id="shape2717-78">
							<title>Sheet.2717</title>
							<path d="M3.89 95.63 C3.89 95.63 1.75 91.64 1.75 91.06 C1.75 91.06 2.13 90.17 2.67 90.39 C3.2 90.61 4.34
										 91.2 4.34 91.2 L4.34 89.8 L1.75 89.28 L0 89.5 L2.97 96.3 L3.58 96.38 L3.89 95.63 Z"
									class="st13"/>
						</g>
						<g id="shape2718-80">
							<title>Sheet.2718</title>
							<path d="M3.89 95.63 C3.89 95.63 1.75 91.64 1.75 91.06 C1.75 91.06 2.13 90.17 2.67 90.39 C3.2 90.61 4.34
										 91.2 4.34 91.2 L4.34 89.8 L1.75 89.28 L0 89.5 L2.97 96.3 L3.58 96.38 L3.89 95.63 Z"
									class="st2"/>
							<path d="M3.89 95.63 C3.89 95.63 1.75 91.64 1.75 91.06 C1.75 91.06 2.13 90.17 2.67 90.39 C3.2 90.61 4.34
										 91.2 4.34 91.2 L4.34 89.8 L1.75 89.28 L0 89.5 L2.97 96.3 L3.58 96.38" class="st3"/>
						</g>
					</g>
					<g id="group2719-83" transform="translate(10.5416,-25.4327)">
						<title>Sheet.2719</title>
						<g id="shape2720-84">
							<title>Sheet.2720</title>
							<path d="M4.09 94.15 L1.99 93.94 L0 93.34 L0 94.01 L0.97 95.05 L4.01 96.38 L4.09 94.15 Z" class="st12"/>
						</g>
						<g id="shape2721-86">
							<title>Sheet.2721</title>
							<path d="M4.09 94.15 L1.99 93.94 L0 93.34 L0 94.01 L0.97 95.05 L4.01 96.38 L4.09 94.15 Z" class="st2"/>
							<path d="M4.09 94.15 L1.99 93.94 L0 93.34 L0 94.01 L0.97 95.05 L4.01 96.38" class="st3"/>
						</g>
					</g>
					<g id="group2722-89" transform="translate(10.9995,-25.8032)">
						<title>Sheet.2722</title>
						<g id="shape2723-90">
							<title>Sheet.2723</title>
							<path d="M0.23 94.75 C0.23 94.75 2.59 95.71 3.36 95.48 L3.43 96.38 L1.3 95.93 L0 95.05 L0.23 94.75 Z"
									class="st7"/>
						</g>
					</g>
					<g id="group2724-92" transform="translate(22.8757,-23.8511)">
						<title>Sheet.2724</title>
						<g id="shape2725-93">
							<title>Sheet.2725</title>
							<path d="M3.8 96.38 C2.5 96.34 1.33 96.19 0.31 95.91 C0.38 95.5 0.25 95.11 0.35 94.81 C0.63 94.61 1.12
										 94.61 1.55 94.57 C1.18 94.39 0.64 94.32 0.21 94.42 C0.2 94.15 0.08 93.97 0 93.75 C0.73 93.49
										 2.45 91.84 3.41 92.39 C3.87 92.65 4.06 94.14 4.1 94.86 C4.13 95.46 4.04 96.06 3.8 96.38
										 Z" class="st15"/>
						</g>
					</g>
					<g id="group2726-95" transform="translate(22.8757,-23.8511)">
						<title>Sheet.2726</title>
						<g id="shape2727-96">
							<title>Sheet.2727</title>
							<path d="M3.8 96.38 C2.5 96.34 1.33 96.19 0.31 95.91 C0.38 95.5 0.25 95.11 0.35 94.81 C0.63 94.61 1.12
										 94.61 1.55 94.57 C1.18 94.39 0.64 94.32 0.21 94.42 C0.2 94.15 0.08 93.97 0 93.75 C0.73 93.49
										 2.45 91.84 3.41 92.39 C3.87 92.65 4.06 94.14 4.1 94.86 C4.13 95.46 4.04 96.06 3.8 96.38
										 Z" class="st16"/>
						</g>
					</g>
					<g id="group2728-98" transform="translate(14.691,-21.5708)">
						<title>Sheet.2728</title>
						<g id="shape2729-99">
							<title>Sheet.2729</title>
							<path d="M5.79 92.04 C5.79 92.14 5.78 92.24 5.78 92.33 C5.37 92.59 4.73 92.59 4.28 92.81 C4.93 92.83
										 5.45 92.98 5.9 93.19 L5.87 93.92 C5.13 94.4 4.45 95.14 3.58 95.59 C3.16 95.81 1.72 96.38
										 1.28 96.28 C1.03 96.22 1.01 95.92 0.91 95.64 C0.71 95.04 0.21 94.08 0.17 93.17 C0.12 92.03
										 0 90.11 1.27 90.34 C2.3 90.53 3.49 90.99 4.29 91.42 C4.77 91.67 5.06 91.99 5.79 92.04 Z"
									class="st15"/>
						</g>
					</g>
					<g id="group2730-101" transform="translate(14.691,-21.5708)">
						<title>Sheet.2730</title>
						<g id="shape2731-102">
							<title>Sheet.2731</title>
							<path d="M5.79 92.04 C5.79 92.14 5.78 92.24 5.78 92.33 C5.37 92.59 4.73 92.59 4.28 92.81 C4.93 92.83
										 5.45 92.98 5.9 93.19 L5.87 93.92 C5.13 94.4 4.45 95.14 3.58 95.59 C3.16 95.81 1.72 96.38
										 1.28 96.28 C1.03 96.22 1.01 95.92 0.91 95.64 C0.71 95.04 0.21 94.08 0.17 93.17 C0.12 92.03
										 0 90.11 1.27 90.34 C2.3 90.53 3.49 90.99 4.29 91.42 C4.77 91.67 5.06 91.99 5.79 92.04 Z"
									class="st16"/>
						</g>
					</g>
					<g id="group2732-104" transform="translate(20.9758,-23.9754)">
						<title>Sheet.2732</title>
						<g id="shape2733-105">
							<title>Sheet.2733</title>
							<path d="M0.25 95.81 C0.13 95.19 0 95.02 0.05 94.47 C1.77 93.36 2.09 96.38 0.25 95.81 Z" class="st15"/>
						</g>
					</g>
					<g id="group2734-107" transform="translate(20.9758,-23.9754)">
						<title>Sheet.2734</title>
						<g id="shape2735-108">
							<title>Sheet.2735</title>
							<path d="M0.25 95.81 C0.13 95.19 0 95.02 0.05 94.47 C1.77 93.36 2.09 96.38 0.25 95.81 Z" class="st16"/>
						</g>
					</g>
					<g id="group2736-110" transform="translate(13.0683,-21.5905)">
						<title>Sheet.2736</title>
						<g id="shape2737-111">
							<title>Sheet.2737</title>
							<path d="M10.64 93.94 C10.64 93.94 10.1 93.19 10.48 92.97 C10.86 92.76 11.25 92.97 11.47 92.61 C11.7
										 92.24 11.47 92.01 11.55 91.57 C11.63 91.13 12.01 91.06 12.39 90.98 C12.76 90.91 13.84 90.76
										 13.99 91.13 L13.53 89.8 L12.62 89.5 L9.72 91.13 L9.57 91.94 L9.57 93.57 L10.64 93.94 ZM2.63
										 96.38 C2.54 95.22 2.45 94.07 2.33 92.91 C2.18 91.2 2.76 91.5 4.3 91.5 C4.53 91.5 5.74 91.77
										 5.83 91.94 C6.25 92.77 5.14 92.58 6.32 93.2 C7.31 93.73 9.06 92.88 8.65 91.72 C8.43 91.47
										 7.48 91.63 7.14 91.47 L5.36 90.57 C4.61 90.19 2.86 89.63 2.05 90.17 C0 91.52 2.18 94.89
										 2.91 96.3 L2.63 96.38 Z" class="st17"/>
						</g>
						<g id="shape2738-113">
							<title>Sheet.2738</title>
							<path d="M10.64 93.94 C10.64 93.94 10.1 93.19 10.48 92.97 C10.86 92.76 11.25 92.97 11.47 92.61 C11.7
										 92.24 11.47 92.01 11.55 91.57 C11.63 91.13 12.01 91.06 12.39 90.98 C12.76 90.91 13.84 90.76
										 13.99 91.13 L13.53 89.8 L12.62 89.5 L9.72 91.13 L9.57 91.94 L9.57 93.57 L10.64 93.94 ZM2.63
										 96.38 C2.54 95.22 2.45 94.07 2.33 92.91 C2.18 91.2 2.76 91.5 4.3 91.5 C4.53 91.5 5.74 91.77
										 5.83 91.94 C6.25 92.77 5.14 92.58 6.32 93.2 C7.31 93.73 9.06 92.88 8.65 91.72 C8.43 91.47
										 7.48 91.63 7.14 91.47 L5.36 90.57 C4.61 90.19 2.86 89.63 2.05 90.17 C0 91.52 2.18 94.89
										 2.91 96.3 L2.63 96.38 Z" class="st2"/>
							<path d="M10.64 93.94 C10.64 93.94 10.1 93.19 10.48 92.97 C10.86 92.76 11.25 92.97 11.47 92.61 C11.7
										 92.24 11.47 92.01 11.55 91.57 C11.63 91.13 12.01 91.06 12.39 90.98 C12.76 90.91 13.84 90.76
										 13.99 91.13 L13.53 89.8 L12.62 89.5 L9.72 91.13 L9.57 91.94 L9.57 93.57M2.63 96.38 C2.54
										 95.22 2.45 94.07 2.33 92.91 C2.18 91.2 2.76 91.5 4.3 91.5 C4.53 91.5 5.74 91.77 5.83 91.94
										 C6.25 92.77 5.14 92.58 6.32 93.2 C7.31 93.73 9.06 92.88 8.65 91.72 C8.43 91.47 7.48 91.63
										 7.14 91.47 L5.36 90.57 C4.61 90.19 2.86 89.63 2.05 90.17 C0 91.52 2.18 94.89 2.91 96.3"
									class="st3"/>
						</g>
					</g>
					<g id="group2739-116" transform="translate(4.90377,-31.2058)">
						<title>Sheet.2739</title>
						<g id="shape2740-117">
							<title>Sheet.2740</title>
							<path d="M12.81 79.81 C10.73 79.34 9.69 80.65 9.07 82.02 C8.51 81.88 8.72 81.14 8.86 80.77 C9.24 79.78
										 10.74 78.46 11.97 78.63 C12.49 78.7 13.2 79.17 12.81 79.81 ZM22.93 82.11 C22.96 82.11 22.99
										 82.11 23.02 82.11 C23.49 83.05 23.9 84.05 24.5 84.89 C24.1 85.79 21.49 86.57 21.53 84.97
										 C22.09 84.73 23.06 84.92 23.56 84.62 C23.28 83.84 22.86 83.19 22.93 82.11 ZM13.87 82.13
										 C14.31 82.92 14.45 83.75 15.09 84.35 C15.37 84.62 15.93 84.95 15.65 85.7 C15.59 85.87 15.12
										 86.27 14.85 86.34 C13.86 86.63 11.56 86.4 12.33 85.2 C13.15 85.24 14.26 85.72 14.86 85.14
										 C14.39 84.42 13.56 82.98 13.87 82.13 ZM22.55 90.18 C21.07 91.1 19.4 92.11 16.96 91.87 C16.44
										 91.44 16.23 90.46 16.75 89.81 C17.01 90.25 16.84 91.06 17.58 91.18 C18.97 91.42 20.57 90.36
										 21.58 90 C22.19 88.98 21.52 88.61 20.96 87.96 C19.83 86.63 18.29 84.98 18.35 82.98 C18.81
										 82.66 18.86 83.48 18.92 83.63 C19.51 84.98 21.01 86.7 22.1 87.86 C22.38 88.14 22.82 88.42
										 22.86 88.61 C23 89.15 22.49 89.81 22.55 90.18 ZM2.91 89.19 C2.44 88.94 2.32 87.8 1.78 87.76
										 C0.99 87.72 1.14 89.24 1.15 90.14 C0.6 89.66 0.51 88.2 0.9 87.45 C0.45 87.23 0.25 87.68
										 0 87.84 C0.32 85.58 3.42 86.79 2.91 89.19 ZM23.5 91.12 C22.81 92.4 21.82 93.81 19.79 93.85
										 C19.75 93.43 19.71 92.81 19.8 92.56 C21.35 92.41 22.31 91.64 23.5 91.12 ZM13.75 91.95 C15.05
										 92.61 17.43 92.68 19.2 92.63 C19.3 93 19.3 93.47 19.3 93.93 C17.02 94.04 14.34 93.49 13.75
										 91.95 ZM13.5 93.18 C14.4 95.37 17.48 95.12 20.08 95.06 C19.97 95.34 19.73 95.67 19.42 95.79
										 C18.58 96.12 16.29 96.38 15.13 95.78 C14.39 95.4 13.92 94.54 13.52 94.05 C13.33 93.8 12.36
										 93.18 13.5 93.18 Z" class="st18"/>
						</g>
						<g id="shape2741-119">
							<title>Sheet.2741</title>
							<path d="M12.81 79.81 C10.73 79.34 9.69 80.65 9.07 82.02 C8.51 81.88 8.72 81.14 8.86 80.77 C9.24 79.78
										 10.74 78.46 11.97 78.63 C12.49 78.7 13.2 79.17 12.81 79.81 ZM22.93 82.11 C22.96 82.11 22.99
										 82.11 23.02 82.11 C23.49 83.05 23.9 84.05 24.5 84.89 C24.1 85.79 21.49 86.57 21.53 84.97
										 C22.09 84.73 23.06 84.92 23.56 84.62 C23.28 83.84 22.86 83.19 22.93 82.11 ZM13.87 82.13
										 C14.31 82.92 14.45 83.75 15.09 84.35 C15.37 84.62 15.93 84.95 15.65 85.7 C15.59 85.87 15.12
										 86.27 14.85 86.34 C13.86 86.63 11.56 86.4 12.33 85.2 C13.15 85.24 14.26 85.72 14.86 85.14
										 C14.39 84.42 13.56 82.98 13.87 82.13 ZM22.55 90.18 C21.07 91.1 19.4 92.11 16.96 91.87 C16.44
										 91.44 16.23 90.46 16.75 89.81 C17.01 90.25 16.84 91.06 17.58 91.18 C18.97 91.42 20.57 90.36
										 21.58 90 C22.19 88.98 21.52 88.61 20.96 87.96 C19.83 86.63 18.29 84.98 18.35 82.98 C18.81
										 82.66 18.86 83.48 18.92 83.63 C19.51 84.98 21.01 86.7 22.1 87.86 C22.38 88.14 22.82 88.42
										 22.86 88.61 C23 89.15 22.49 89.81 22.55 90.18 ZM2.91 89.19 C2.44 88.94 2.32 87.8 1.78 87.76
										 C0.99 87.72 1.14 89.24 1.15 90.14 C0.6 89.66 0.51 88.2 0.9 87.45 C0.45 87.23 0.25 87.68
										 0 87.84 C0.32 85.58 3.42 86.79 2.91 89.19 ZM23.5 91.12 C22.81 92.4 21.82 93.81 19.79 93.85
										 C19.75 93.43 19.71 92.81 19.8 92.56 C21.35 92.41 22.31 91.64 23.5 91.12 ZM13.75 91.95 C15.05
										 92.61 17.43 92.68 19.2 92.63 C19.3 93 19.3 93.47 19.3 93.93 C17.02 94.04 14.34 93.49 13.75
										 91.95 ZM13.5 93.18 C14.4 95.37 17.48 95.12 20.08 95.06 C19.97 95.34 19.73 95.67 19.42 95.79
										 C18.58 96.12 16.29 96.38 15.13 95.78 C14.39 95.4 13.92 94.54 13.52 94.05 C13.33 93.8 12.36
										 93.18 13.5 93.18 Z" class="st6"/>
						</g>
					</g>
					<g id="group2742-121" transform="translate(24.0368,-17.2539)">
						<title>Sheet.2742</title>
						<g id="shape2743-122">
							<title>Sheet.2743</title>
							<path d="M3.32 91.29 C2.26 93.03 1.25 94.83 0 96.38 C0.52 94.88 0.75 92.38 0.83 90.47 C1.92 89.98 2.87
										 90.58 3.32 91.29 Z" class="st19"/>
						</g>
						<g id="shape2744-124">
							<title>Sheet.2744</title>
							<path d="M3.32 91.29 C2.26 93.03 1.25 94.83 0 96.38 C0.52 94.88 0.75 92.38 0.83 90.47 C1.92 89.98 2.87
										 90.58 3.32 91.29 Z" class="st6"/>
						</g>
					</g>
					<g id="group2745-126" transform="translate(29.8585,-12.7)">
						<title>Sheet.2745</title>
						<g id="shape2746-127">
							<title>Sheet.2746</title>
							<path d="M3.16 93.02 C1.98 93.25 1.15 94.36 0 94.28 C0.63 93.42 1.74 93.06 3.16 93.02 ZM3.67 94.81 C2.72
										 94.91 1.59 95.06 0.61 94.98 C1.07 94.29 2.86 94.53 3.67 94.81 ZM4.01 96.35 C2.93 96.38 1.59
										 96.36 0.56 96.27 C1.17 95.63 3.32 96.03 4.01 96.35 Z" class="st18"/>
						</g>
						<g id="shape2747-129">
							<title>Sheet.2747</title>
							<path d="M3.16 93.02 C1.98 93.25 1.15 94.36 0 94.28 C0.63 93.42 1.74 93.06 3.16 93.02 ZM3.67 94.81 C2.72
										 94.91 1.59 95.06 0.61 94.98 C1.07 94.29 2.86 94.53 3.67 94.81 ZM4.01 96.35 C2.93 96.38 1.59
										 96.36 0.56 96.27 C1.17 95.63 3.32 96.03 4.01 96.35 Z" class="st6"/>
						</g>
					</g>
					<g id="group2748-131" transform="translate(23.9744,-4.04458)">
						<title>Sheet.2748</title>
						<g id="shape2749-132">
							<title>Sheet.2749</title>
							<path d="M1.34 91.92 C1.49 93.23 2.04 94.57 1.97 96.01 C1.37 96.2 1.02 96.38 0.23 96.38 C0.16 95.15 0
										 93.28 0.05 92.11 C0.44 92.13 1.02 91.83 1.34 91.92 Z" class="st13"/>
						</g>
						<g id="shape2750-134">
							<title>Sheet.2750</title>
							<path d="M1.34 91.92 C1.49 93.23 2.04 94.57 1.97 96.01 C1.37 96.2 1.02 96.38 0.23 96.38 C0.16 95.15 0
										 93.28 0.05 92.11 C0.44 92.13 1.02 91.83 1.34 91.92 Z" class="st6"/>
						</g>
					</g>
					<g id="group2751-136" transform="translate(19.4121,-26.6957)">
						<title>Sheet.2751</title>
						<g id="shape2752-137">
							<title>Sheet.2752</title>
							<path d="M4.17 95.18 C3.61 95.52 3.15 95.95 2.63 96.32 C1.48 96.38 0.85 96.24 0 95.59 C0.01 95.54 0.1
										 95.57 0.1 95.5 C1.34 96.04 2.92 95.29 4.16 95.18 L4.17 95.18 Z" class="st1"/>
						</g>
						<g id="shape2753-139">
							<title>Sheet.2753</title>
							<path d="M4.17 95.18 C3.61 95.52 3.15 95.95 2.63 96.32 C1.48 96.38 0.85 96.24 0 95.59 C0.01 95.54 0.1
										 95.57 0.1 95.5 C1.34 96.04 2.92 95.29 4.16 95.18 L4.17 95.18 Z" class="st2"/>
							<path d="M4.17 95.18 C3.61 95.52 3.15 95.95 2.63 96.32 C1.48 96.38 0.85 96.24 0 95.59 C0.01 95.54 0.1
										 95.57 0.1 95.5 C1.34 96.04 2.92 95.29 4.16 95.18" class="st3"/>
						</g>
					</g>
					<g id="group2754-142" transform="translate(17.0799,-17.2522)">
						<title>Sheet.2754</title>
						<g id="shape2755-143">
							<title>Sheet.2755</title>
							<path d="M0 93.91 C0.34 92.49 1.67 91.74 2.88 90.96 C4.13 92.5 4.88 94.47 5.72 96.38 C3.75 95.79 1.73
										 94.86 0 93.91 Z" class="st20"/>
						</g>
					</g>
					<g id="group2756-145">
						<title>Sheet.2756</title>
						<g id="shape2757-146">
							<title>Sheet.2757</title>
							<path d="M24.02 88.06 C23.97 89.23 24.15 91.11 24.2 92.33 C25 92.33 25.34 92.16 25.94 91.96 C26.01 90.52
										 25.47 89.19 25.31 87.87 C25 87.79 24.41 88.09 24.02 88.06 ZM11.56 81.42 C12.09 86.13 12.86
										 90.09 14.26 94.25 C17.37 95.17 21.12 95.25 23.87 94.42 C23.37 92.07 23.58 89.2 23.29 86.7
										 C23.07 84.82 23.19 82.91 22.88 80.99 C19.54 80.32 14.83 80.84 11.56 81.42 ZM23.67 81.02
										 C23.64 83.04 23.76 85.03 23.91 87.06 C24.72 86.94 25.26 86.86 26 86.7 C25.76 84.76 25.8
										 82.56 25.3 80.85 C24.73 80.85 24.23 80.84 23.67 81.02 ZM27.72 80.7 C27.34 80.61 26.9 80.69
										 26.54 80.7 C26.71 82.35 27.13 84.16 27.27 85.89 C27.84 85.91 28.15 85.65 28.61 85.56 C28.64
										 84.04 28.48 81.95 27.72 80.7 ZM33.87 86.14 C35.06 85.86 35.81 84.45 35.48 82.99 C35.25 82.02
										 34.85 80.18 34.42 79.56 C34.12 79.1 33.26 78.5 32.58 78.91 C31.48 79.61 29.52 79.81 28.71
										 80.64 C29.12 81.95 29.24 83.74 29.41 85.4 C30.79 85.48 32.5 85.03 33.65 85.51 C32.85 85.76
										 31.8 85.76 31.11 86.13 C31.67 86.39 33 86.34 33.87 86.14 ZM22.81 79.12 C21.97 77.21 21.21
										 75.24 19.96 73.7 C18.75 74.5 17.42 75.23 17.08 76.66 C18.81 77.61 20.83 78.54 22.81 79.12
										 ZM24.86 73.23 C24.78 75.13 24.56 77.63 24.03 79.12 C25.28 77.58 26.3 75.79 27.35 74.03 C26.9
										 73.33 25.96 72.72 24.86 73.23 ZM22.53 72.41 C22.06 72.36 21.65 72.95 21.04 72.69 C20.89
										 72.85 20.77 73.01 20.63 73.16 C21.99 74.74 22.6 77 23.66 78.87 C24.22 77.08 24.15 75.11
										 24.28 73.15 C23.5 73.2 23.07 72.47 22.53 72.41 ZM21.03 70.5 C20.97 71.04 21.11 71.22 21.22
										 71.84 C23.06 72.4 22.74 69.38 21.03 70.5 ZM18.98 69.84 C18.19 69.42 16.99 68.96 15.97 68.77
										 C14.69 68.54 14.81 70.46 14.86 71.6 C14.9 72.51 15.4 73.46 15.6 74.07 C15.7 74.35 15.72
										 74.64 15.97 74.7 C16.41 74.8 17.86 74.25 18.27 74.03 C19.14 73.56 19.82 72.83 20.55 72.34
										 L20.59 71.63 C20.14 71.41 19.62 71.26 18.98 71.23 C19.42 71.01 20.07 71.01 20.47 70.76 C20.47
										 70.67 20.48 70.57 20.48 70.48 C19.75 70.42 19.47 70.1 18.98 69.84 ZM11.38 68.5 C10.73 69.16
										 13.24 70.04 14.03 70.09 C14.03 69.67 14.28 69.29 14.23 69 C13.28 68.83 12.03 68.94 11.38
										 68.5 ZM19.51 68.81 C19.51 68.87 19.43 68.85 19.41 68.9 C20.26 69.54 20.89 69.68 22.05 69.62
										 C22.57 69.26 23.03 68.83 23.57 68.48 C22.33 68.59 20.75 69.35 19.51 68.81 ZM26.97 71 C26.94
										 70.28 26.75 68.8 26.29 68.54 C25.32 68 23.6 69.64 22.88 69.89 C22.96 70.12 23.08 70.29 23.09
										 70.58 C23.52 70.47 24.04 70.54 24.42 70.71 C23.99 70.76 23.51 70.76 23.23 70.96 C23.12 71.25
										 23.26 71.65 23.19 72.05 C24.21 72.34 25.38 72.49 26.67 72.52 C26.92 72.2 27 71.6 26.97 71
										 ZM10.28 69.14 C10.07 68.99 8.67 67.22 8.48 67.29 C5.94 68.26 3.56 69.94 1.44 71.53 C3.47
										 75.74 4.28 80.89 4.43 85.85 C6.75 86.9 8.77 88.41 11.91 88.57 C11.56 86.08 11.22 83.85 11.01
										 81.5 C10.23 81.17 9.09 81.51 8.35 81.4 C8.35 80.54 9.48 81.03 9.58 80.44 C9.65 80 8.96 79.97
										 9.18 79.28 C9.76 79.49 10.06 79.93 10.68 80.1 C11.24 78.91 10.67 76.8 10.75 75.8 C10.77
										 75.62 10.85 74.76 11.28 74.91 C11.66 75.04 11.26 77.18 11.3 78.12 C11.34 78.99 11.19 79.82
										 11.56 80.37 C14.59 79.97 17.68 79.72 20.95 79.63 C20.24 79.33 19.38 79.04 18.44 78.52 C17.92
										 78.25 16.32 77.67 16.17 77.2 C15.94 76.45 16.79 76.05 16.93 75.41 C15.4 76.22 15.1 74.63
										 14.74 73.51 C14.41 72.49 14.22 71.73 14.15 71.14 C12.83 70.54 11.41 69.92 10.28 69.14 ZM25.63
										 67.51 C27.75 66.52 28.13 71.22 27.3 72.74 C27.43 73.2 27.87 73.36 28.05 73.77 C26.87 75.82
										 25.56 77.73 24.35 79.76 C25.25 79.21 26.53 79.66 27.59 79.25 C27.97 79.11 28.25 78.25 28.54
										 77.57 C29.34 75.69 30.19 73.31 30.56 71.52 C30.65 71.11 30.87 70.22 30.82 69.86 C30.73 69.21
										 29.82 68.72 29.36 68.32 C28.5 67.58 27.96 66.92 27.06 66.22 C26.71 66.75 25.93 67.09 25.63
										 67.51 ZM5.45 49.34 C4.43 50.41 4.65 52.42 4.77 53.85 C6.59 52.75 9.01 53.94 8.98 55.84 C9.85
										 55.81 9.3 54.79 9.15 54.12 C8.64 51.95 10.01 49.6 9.21 47.61 C7.66 47.73 6.37 48.35 5.45
										 49.34 ZM12.65 43.11 C10.37 43.73 7.44 45.34 6.51 47.32 C7.24 47.22 7.74 46.87 8.46 46.82
										 C8.72 46.81 9.08 46.93 9.39 46.86 C10.01 46.71 10.53 45.36 10.99 44.86 C11.45 44.37 12 44.16
										 12.38 43.71 C12.62 43.6 12.97 43.61 12.99 43.27 C12.89 43.16 12.77 43.07 12.65 43.11 ZM24.52
										 43.69 C22.15 42.4 18.14 41.43 15.63 42.64 C13.59 43.62 10.85 45.25 9.92 47.3 C10.79 49.29
										 9.65 51.12 9.58 53.13 C9.54 54.2 10.1 55.14 10.14 56.31 C9.85 56.79 8.94 56.84 8.3 56.81
										 C8.09 55.78 7.72 54.62 6.61 54.5 C5.07 54.34 3.93 55.58 3.86 56.88 C3.78 58.42 5.07 60.96
										 6.91 60.78 C7.62 60.71 7.79 60.02 8.57 60.03 C8.99 60.84 7.92 61.1 7.81 61.67 C7.78 61.82
										 7.9 62.41 7.96 62.69 C8.3 64.03 9.05 65.75 9.78 66.77 C10.71 68.07 12.54 68.25 14.5 68.38
										 C14.85 67.65 16.14 67.71 16.98 67.91 C15.98 67.51 15.04 66.58 14.26 65.74 C13.37 64.79 12.46
										 63.77 12.42 62.52 C14.11 64.79 15.5 66.77 18.57 67.77 C20.89 68.52 23.6 67.42 25.4 66.21
										 C26.13 65.7 26.57 64.9 27.11 64.16 C29.07 61.42 29.99 57.5 29.79 53.7 C29.71 52.13 29.71
										 50.57 29.16 49.52 C28.6 48.41 26.69 47.42 25.56 48.43 C25.36 47.34 26.49 46.69 27.83 47.08
										 C26.88 45.88 25.88 44.44 24.52 43.69 ZM28.93 79.06 C30.77 78.18 34.23 76.67 35.39 79.07
										 C35.82 79.95 36.32 81.45 36.53 82.37 C36.85 83.66 36.2 86.36 34.83 86.8 C33.63 87.18 32.21
										 87.16 30.76 86.87 C30.59 86.73 30.4 86.49 30.27 86.25 C29.22 86.21 28.25 86.3 27.43 86.71
										 C27.51 87.46 26.99 87.58 26.5 87.72 C26.14 89.11 27.23 90.93 26.97 92.19 C26.78 93.09 25.64
										 93.23 24.8 93.4 C24.77 93.91 24.83 94.32 24.89 94.75 C24.7 95.44 23.84 95.82 23.02 95.92
										 C20.33 96.23 16.24 96.38 13.67 95.47 C12.94 93.76 12.38 91.67 11.77 89.71 C9.25 89.97 7.21
										 88.66 5.28 87.79 C4.62 87.5 3.7 87.33 3.45 86.81 C3.21 86.32 3.31 85.36 3.24 84.46 C3.09
										 82.17 2.97 79.94 2.34 77.59 C2.06 76.53 1.57 75.6 1.23 74.59 C0.91 73.63 0.36 72.47 0.21
										 71.53 C0 70.14 1.35 70.06 2.22 69.45 C3.56 68.52 4.62 68.01 6.06 67.16 C6.49 66.9 7.79 66.28
										 7.93 65.98 C8.23 65.41 7.43 64.59 7.22 64.14 C6.88 63.42 6.7 62.82 6.65 62.11 C5.45 61.92
										 4.52 61.22 3.96 60.43 C3.04 59.12 2.41 56.69 3.2 54.86 C3.27 54.71 3.57 54.42 3.62 54.2
										 C3.71 53.75 3.45 53.18 3.43 52.71 C3.35 50.31 3.85 48.25 5.52 47.52 C6.19 44.91 8.61 44.05
										 10.88 42.75 C11.74 42.26 12.67 41.96 13.64 41.61 C17.13 40.37 22.46 40.61 25.34 42.72 C26.56
										 43.62 28.52 45.51 29.22 46.89 C31.07 50.51 30.94 56.55 29.64 60.96 C29.47 61.55 29.22 62.43
										 28.87 63.13 C28.62 63.63 27.86 64.62 27.96 65.06 C28.05 65.51 29.7 66.73 30.04 67.05 C30.68
										 67.65 31.89 68.43 31.98 69.19 C32.09 69.98 31.62 71.07 31.38 71.84 C30.6 74.41 29.82 76.78
										 28.93 79.06 Z" class="st18"/>
						</g>
						<g id="shape2758-148">
							<title>Sheet.2758</title>
							<path d="M24.02 88.06 C23.97 89.23 24.15 91.11 24.2 92.33 C25 92.33 25.34 92.16 25.94 91.96 C26.01 90.52
										 25.47 89.19 25.31 87.87 C25 87.79 24.41 88.09 24.02 88.06 ZM11.56 81.42 C12.09 86.13 12.86
										 90.09 14.26 94.25 C17.37 95.17 21.12 95.25 23.87 94.42 C23.37 92.07 23.58 89.2 23.29 86.7
										 C23.07 84.82 23.19 82.91 22.88 80.99 C19.54 80.32 14.83 80.84 11.56 81.42 ZM23.67 81.02
										 C23.64 83.04 23.76 85.03 23.91 87.06 C24.72 86.94 25.26 86.86 26 86.7 C25.76 84.76 25.8
										 82.56 25.3 80.85 C24.73 80.85 24.23 80.84 23.67 81.02 ZM27.72 80.7 C27.34 80.61 26.9 80.69
										 26.54 80.7 C26.71 82.35 27.13 84.16 27.27 85.89 C27.84 85.91 28.15 85.65 28.61 85.56 C28.64
										 84.04 28.48 81.95 27.72 80.7 ZM33.87 86.14 C35.06 85.86 35.81 84.45 35.48 82.99 C35.25 82.02
										 34.85 80.18 34.42 79.56 C34.12 79.1 33.26 78.5 32.58 78.91 C31.48 79.61 29.52 79.81 28.71
										 80.64 C29.12 81.95 29.24 83.74 29.41 85.4 C30.79 85.48 32.5 85.03 33.65 85.51 C32.85 85.76
										 31.8 85.76 31.11 86.13 C31.67 86.39 33 86.34 33.87 86.14 ZM22.81 79.12 C21.97 77.21 21.21
										 75.24 19.96 73.7 C18.75 74.5 17.42 75.23 17.08 76.66 C18.81 77.61 20.83 78.54 22.81 79.12
										 ZM24.86 73.23 C24.78 75.13 24.56 77.63 24.03 79.12 C25.28 77.58 26.3 75.79 27.35 74.03 C26.9
										 73.33 25.96 72.72 24.86 73.23 ZM22.53 72.41 C22.06 72.36 21.65 72.95 21.04 72.69 C20.89
										 72.85 20.77 73.01 20.63 73.16 C21.99 74.74 22.6 77 23.66 78.87 C24.22 77.08 24.15 75.11
										 24.28 73.15 C23.5 73.2 23.07 72.47 22.53 72.41 ZM21.03 70.5 C20.97 71.04 21.11 71.22 21.22
										 71.84 C23.06 72.4 22.74 69.38 21.03 70.5 ZM18.98 69.84 C18.19 69.42 16.99 68.96 15.97 68.77
										 C14.69 68.54 14.81 70.46 14.86 71.6 C14.9 72.51 15.4 73.46 15.6 74.07 C15.7 74.35 15.72
										 74.64 15.97 74.7 C16.41 74.8 17.86 74.25 18.27 74.03 C19.14 73.56 19.82 72.83 20.55 72.34
										 L20.59 71.63 C20.14 71.41 19.62 71.26 18.98 71.23 C19.42 71.01 20.07 71.01 20.47 70.76 C20.47
										 70.67 20.48 70.57 20.48 70.48 C19.75 70.42 19.47 70.1 18.98 69.84 ZM11.38 68.5 C10.73 69.16
										 13.24 70.04 14.03 70.09 C14.03 69.67 14.28 69.29 14.23 69 C13.28 68.83 12.03 68.94 11.38
										 68.5 ZM19.51 68.81 C19.51 68.87 19.43 68.85 19.41 68.9 C20.26 69.54 20.89 69.68 22.05 69.62
										 C22.57 69.26 23.03 68.83 23.57 68.48 C22.33 68.59 20.75 69.35 19.51 68.81 ZM26.97 71 C26.94
										 70.28 26.75 68.8 26.29 68.54 C25.32 68 23.6 69.64 22.88 69.89 C22.96 70.12 23.08 70.29 23.09
										 70.58 C23.52 70.47 24.04 70.54 24.42 70.71 C23.99 70.76 23.51 70.76 23.23 70.96 C23.12 71.25
										 23.26 71.65 23.19 72.05 C24.21 72.34 25.38 72.49 26.67 72.52 C26.92 72.2 27 71.6 26.97 71
										 ZM10.28 69.14 C10.07 68.99 8.67 67.22 8.48 67.29 C5.94 68.26 3.56 69.94 1.44 71.53 C3.47
										 75.74 4.28 80.89 4.43 85.85 C6.75 86.9 8.77 88.41 11.91 88.57 C11.56 86.08 11.22 83.85 11.01
										 81.5 C10.23 81.17 9.09 81.51 8.35 81.4 C8.35 80.54 9.48 81.03 9.58 80.44 C9.65 80 8.96 79.97
										 9.18 79.28 C9.76 79.49 10.06 79.93 10.68 80.1 C11.24 78.91 10.67 76.8 10.75 75.8 C10.77
										 75.62 10.85 74.76 11.28 74.91 C11.66 75.04 11.26 77.18 11.3 78.12 C11.34 78.99 11.19 79.82
										 11.56 80.37 C14.59 79.97 17.68 79.72 20.95 79.63 C20.24 79.33 19.38 79.04 18.44 78.52 C17.92
										 78.25 16.32 77.67 16.17 77.2 C15.94 76.45 16.79 76.05 16.93 75.41 C15.4 76.22 15.1 74.63
										 14.74 73.51 C14.41 72.49 14.22 71.73 14.15 71.14 C12.83 70.54 11.41 69.92 10.28 69.14 ZM25.63
										 67.51 C27.75 66.52 28.13 71.22 27.3 72.74 C27.43 73.2 27.87 73.36 28.05 73.77 C26.87 75.82
										 25.56 77.73 24.35 79.76 C25.25 79.21 26.53 79.66 27.59 79.25 C27.97 79.11 28.25 78.25 28.54
										 77.57 C29.34 75.69 30.19 73.31 30.56 71.52 C30.65 71.11 30.87 70.22 30.82 69.86 C30.73 69.21
										 29.82 68.72 29.36 68.32 C28.5 67.58 27.96 66.92 27.06 66.22 C26.71 66.75 25.93 67.09 25.63
										 67.51 ZM5.45 49.34 C4.43 50.41 4.65 52.42 4.77 53.85 C6.59 52.75 9.01 53.94 8.98 55.84 C9.85
										 55.81 9.3 54.79 9.15 54.12 C8.64 51.95 10.01 49.6 9.21 47.61 C7.66 47.73 6.37 48.35 5.45
										 49.34 ZM12.65 43.11 C10.37 43.73 7.44 45.34 6.51 47.32 C7.24 47.22 7.74 46.87 8.46 46.82
										 C8.72 46.81 9.08 46.93 9.39 46.86 C10.01 46.71 10.53 45.36 10.99 44.86 C11.45 44.37 12 44.16
										 12.38 43.71 C12.62 43.6 12.97 43.61 12.99 43.27 C12.89 43.16 12.77 43.07 12.65 43.11 ZM24.52
										 43.69 C22.15 42.4 18.14 41.43 15.63 42.64 C13.59 43.62 10.85 45.25 9.92 47.3 C10.79 49.29
										 9.65 51.12 9.58 53.13 C9.54 54.2 10.1 55.14 10.14 56.31 C9.85 56.79 8.94 56.84 8.3 56.81
										 C8.09 55.78 7.72 54.62 6.61 54.5 C5.07 54.34 3.93 55.58 3.86 56.88 C3.78 58.42 5.07 60.96
										 6.91 60.78 C7.62 60.71 7.79 60.02 8.57 60.03 C8.99 60.84 7.92 61.1 7.81 61.67 C7.78 61.82
										 7.9 62.41 7.96 62.69 C8.3 64.03 9.05 65.75 9.78 66.77 C10.71 68.07 12.54 68.25 14.5 68.38
										 C14.85 67.65 16.14 67.71 16.98 67.91 C15.98 67.51 15.04 66.58 14.26 65.74 C13.37 64.79 12.46
										 63.77 12.42 62.52 C14.11 64.79 15.5 66.77 18.57 67.77 C20.89 68.52 23.6 67.42 25.4 66.21
										 C26.13 65.7 26.57 64.9 27.11 64.16 C29.07 61.42 29.99 57.5 29.79 53.7 C29.71 52.13 29.71
										 50.57 29.16 49.52 C28.6 48.41 26.69 47.42 25.56 48.43 C25.36 47.34 26.49 46.69 27.83 47.08
										 C26.88 45.88 25.88 44.44 24.52 43.69 ZM28.93 79.06 C30.77 78.18 34.23 76.67 35.39 79.07
										 C35.82 79.95 36.32 81.45 36.53 82.37 C36.85 83.66 36.2 86.36 34.83 86.8 C33.63 87.18 32.21
										 87.16 30.76 86.87 C30.59 86.73 30.4 86.49 30.27 86.25 C29.22 86.21 28.25 86.3 27.43 86.71
										 C27.51 87.46 26.99 87.58 26.5 87.72 C26.14 89.11 27.23 90.93 26.97 92.19 C26.78 93.09 25.64
										 93.23 24.8 93.4 C24.77 93.91 24.83 94.32 24.89 94.75 C24.7 95.44 23.84 95.82 23.02 95.92
										 C20.33 96.23 16.24 96.38 13.67 95.47 C12.94 93.76 12.38 91.67 11.77 89.71 C9.25 89.97 7.21
										 88.66 5.28 87.79 C4.62 87.5 3.7 87.33 3.45 86.81 C3.21 86.32 3.31 85.36 3.24 84.46 C3.09
										 82.17 2.97 79.94 2.34 77.59 C2.06 76.53 1.57 75.6 1.23 74.59 C0.91 73.63 0.36 72.47 0.21
										 71.53 C0 70.14 1.35 70.06 2.22 69.45 C3.56 68.52 4.62 68.01 6.06 67.16 C6.49 66.9 7.79 66.28
										 7.93 65.98 C8.23 65.41 7.43 64.59 7.22 64.14 C6.88 63.42 6.7 62.82 6.65 62.11 C5.45 61.92
										 4.52 61.22 3.96 60.43 C3.04 59.12 2.41 56.69 3.2 54.86 C3.27 54.71 3.57 54.42 3.62 54.2
										 C3.71 53.75 3.45 53.18 3.43 52.71 C3.35 50.31 3.85 48.25 5.52 47.52 C6.19 44.91 8.61 44.05
										 10.88 42.75 C11.74 42.26 12.67 41.96 13.64 41.61 C17.13 40.37 22.46 40.61 25.34 42.72 C26.56
										 43.62 28.52 45.51 29.22 46.89 C31.07 50.51 30.94 56.55 29.64 60.96 C29.47 61.55 29.22 62.43
										 28.87 63.13 C28.62 63.63 27.86 64.62 27.96 65.06 C28.05 65.51 29.7 66.73 30.04 67.05 C30.68
										 67.65 31.89 68.43 31.98 69.19 C32.09 69.98 31.62 71.07 31.38 71.84 C30.6 74.41 29.82 76.78
										 28.93 79.06 Z" class="st6"/>
						</g>
					</g>
					<g id="group2759-150" transform="translate(16.3973,-33.413)">
						<title>Sheet.2759</title>
						<g id="shape2760-151">
							<title>Sheet.2760</title>
							<path d="M0.19 94.71 C0.29 94.58 0.84 94.38 1.62 94.75 C1.62 94.75 0.7 94.9 0.78 96.38 L0.39 96.3 C0.39
										 96.3 0 94.96 0.19 94.71 Z" class="st8"/>
						</g>
						<g id="shape2761-153">
							<title>Sheet.2761</title>
							<path d="M0.19 94.71 C0.29 94.58 0.84 94.38 1.62 94.75 C1.62 94.75 0.7 94.9 0.78 96.38 L0.39 96.3 C0.39
										 96.3 0 94.96 0.19 94.71 Z" class="st6"/>
						</g>
					</g>
				</g>
			</g>
		</g>
	</g>
</svg>
