<?xml version="1.0" encoding="UTF-8" standalone="no"?>
<!DOCTYPE svg PUBLIC "-//W3C//DTD SVG 1.1//EN" "http://www.w3.org/Graphics/SVG/1.1/DTD/svg11.dtd">
<!-- Generated by Microsoft Visio, SVG Export License.svg Page-1 -->
<svg xmlns="http://www.w3.org/2000/svg" xmlns:xlink="http://www.w3.org/1999/xlink" xmlns:ev="http://www.w3.org/2001/xml-events"
		width="1.55634in" height="2.215in" viewBox="0 0 112.056 159.48" xml:space="preserve" color-interpolation-filters="sRGB"
		class="st6">
	<style type="text/css">
	<![CDATA[
		.st1 {fill:url(#grad0-6);stroke:none;stroke-linecap:butt;stroke-width:31.9213}
		.st2 {fill:#ffffff;fill-opacity:0.8;stroke:none;stroke-linecap:butt;stroke-width:31.9213}
		.st3 {fill:url(#grad0-12);stroke:none;stroke-linecap:butt;stroke-width:31.9213}
		.st4 {fill:#dd5900;stroke:none;stroke-linecap:butt;stroke-width:14.9092}
		.st5 {fill:#fcd116;fill-opacity:0.9;stroke:none;stroke-linecap:butt;stroke-width:14.9092}
		.st6 {fill:none;fill-rule:evenodd;font-size:12px;overflow:visible;stroke-linecap:square;stroke-miterlimit:3}
	]]>
	</style>

	<defs id="Patterns_And_Gradients">
		<linearGradient id="grad0-6" x1="0" y1="0" x2="1" y2="0" gradientTransform="rotate(90 0.5 0.5)">
			<stop offset="0.22" stop-color="#32d4f5" stop-opacity="1"/>
			<stop offset="1" stop-color="#198ab3" stop-opacity="1"/>
		</linearGradient>
		<linearGradient id="grad0-12" x1="0" y1="0" x2="1" y2="0" gradientTransform="rotate(85.405746668733 0.5 0.5)">
			<stop offset="0.22" stop-color="#32d4f5" stop-opacity="1"/>
			<stop offset="1" stop-color="#198ab3" stop-opacity="1"/>
		</linearGradient>
	</defs>
	<g>
		<title>Page-1</title>
		<g id="group2223-1" transform="translate(31.9462,-70.8661)">
			<title>License</title>
			<g id="group2224-2" transform="translate(0,-3.21035)">
				<title>Icon-identity-230</title>
				<g id="shape2225-3">
					<title>path4</title>
					<path d="M43.89 159.48 A4.27423 4.30832 -180 0 0 48.17 155.17 A1.38544 1.39649 -180 0 0 48.17 154.67 C46.46 141.09
								 38.82 130.04 24.08 130.04 C9.34 130.04 1.5 139.39 0 154.7 A4.30371 4.33803 -180 0 0 3.86 159.48
								 L43.89 159.48 Z" class="st1"/>
				</g>
				<g id="shape2226-7" transform="translate(16.7727,-9.32974)">
					<title>path6</title>
					<path d="M7.31 142.57 A13.5301 13.6381 0 0 1 0 140.4 L7.31 159.48 L14.5 140.52 A13.3533 13.4598 0 0 1 7.31 142.57
								 Z" class="st2"/>
				</g>
				<g id="shape2227-9" transform="translate(10.6119,-26.2659)">
					<title>circle8</title>
					<ellipse cx="13.5007" cy="145.872" rx="13.5007" ry="13.6083" class="st3"/>
				</g>
			</g>
			<g id="shape2228-13" transform="translate(28.3362,-11.7182)">
				<title>circle8-7</title>
				<ellipse cx="6.64295" cy="152.784" rx="6.64295" ry="6.69593" class="st4"/>
			</g>
			<g id="shape2229-15" transform="translate(29.9966,-13.3919)">
				<title>circle10</title>
				<ellipse cx="4.98256" cy="154.458" rx="4.98256" ry="5.0223" class="st5"/>
			</g>
			<g id="shape2230-17" transform="translate(29.1719,-2.84217E-13)">
				<title>path12</title>
				<path d="M5.81 146.09 A7.4346 7.49389 0 0 1 0.79 144.12 L0 159.39 L5.72 153.62 L11.54 159.48 L11.62 158.64 L10.83
							 144.12 A7.4346 7.49389 0 0 1 5.81 146.09 L5.81 146.09 Z" class="st4"/>
			</g>
		</g>
	</g>
</svg>
