<?xml version="1.0" encoding="UTF-8" standalone="no"?>
<!DOCTYPE svg PUBLIC "-//W3C//DTD SVG 1.1//EN" "http://www.w3.org/Graphics/SVG/1.1/DTD/svg11.dtd">
<!-- Generated by Microsoft Visio, SVG Export Load Balancer.svg Page-1 -->
<svg xmlns="http://www.w3.org/2000/svg" xmlns:xlink="http://www.w3.org/1999/xlink" xmlns:ev="http://www.w3.org/2001/xml-events"
		width="1.73185in" height="1.73206in" viewBox="0 0 124.693 124.709" xml:space="preserve" color-interpolation-filters="sRGB"
		class="st5">
	<style type="text/css">
	<![CDATA[
		.st1 {fill:url(#grad0-6);stroke:none;stroke-linecap:butt;stroke-width:34}
		.st2 {fill:#b4ec36;stroke:none;stroke-linecap:butt;stroke-width:34}
		.st3 {fill:#ffffff;stroke:none;stroke-linecap:butt;stroke-width:34}
		.st4 {fill:#5ea0ef;stroke:none;stroke-linecap:butt;stroke-width:34}
		.st5 {fill:none;fill-rule:evenodd;font-size:12px;overflow:visible;stroke-linecap:square;stroke-miterlimit:3}
	]]>
	</style>

	<defs id="Patterns_And_Gradients">
		<linearGradient id="grad0-6" x1="0" y1="0" x2="1" y2="0" gradientTransform="rotate(-90 0.5 0.5)">
			<stop offset="0" stop-color="#5e9624" stop-opacity="1"/>
			<stop offset="0.02" stop-color="#5f9724" stop-opacity="1"/>
			<stop offset="1" stop-color="#76bc2d" stop-opacity="1"/>
		</linearGradient>
	</defs>
	<g>
		<title>Page-1</title>
		<g id="group2043-1" transform="translate(34,-34.0157)">
			<title>Load Balancer</title>
			<g id="group2044-2">
				<title>Sheet.2044</title>
				<g id="shape2045-3">
					<title>Sheet.2045</title>
					<path d="M0.57 94.99 L26.99 68.58 A1.92087 1.92043 0 0 1 29.71 68.58 L56.13 94.99 A1.92087 1.92043 0 0 1 56.13
								 97.71 L29.68 124.16 A1.88938 1.88894 0 0 1 27.01 124.16 L0.56 97.71 A1.92087 1.92043 0 0 1 0.57
								 94.99 Z" class="st1"/>
				</g>
				<g id="shape2046-7" transform="translate(5.8948,-21.9491)">
					<title>Sheet.2046</title>
					<path d="M29.38 102.59 L22.7 95.91 a0.336939 0.336862 -180 0 0 -0.478643 3.2685E-13 L15.53 102.59 a0.340088 0.34001
								 -180 0 0 0.239321 0.579276 L19.7 103.17 a0.340088 0.34001 0 0 1 0.340088 0.34001 L20.04 109.83 a0.340088
								 0.34001 -180 0 0 0.340088 0.34001 L24.53 110.17 a0.340088 0.34001 -180 0 0 0.340088 -0.34001 L24.87
								 103.51 a0.340088 0.34001 0 0 1 0.340088 -0.34001 L29.14 103.17 a0.340088 0.34001 -180 0 0 0.245619
								 -0.576128 ZM6.79 110.79 L0.1 117.47 a0.343237 0.343158 -180 0 0 4.66294E-15 0.481681 L6.78 124.63
								 a0.336939 0.336862 -180 0 0 0.57941 -0.239266 L7.36 120.47 a0.340088 0.34001 0 0 1 0.340088 -0.34001
								 L14.03 120.13 a0.340088 0.34001 -180 0 0 0.340088 -0.34001 L14.37 115.64 a0.340088 0.34001 -180
								 0 0 -0.340088 -0.34001 L7.71 115.3 a0.340088 0.34001 0 0 1 -0.340088 -0.34001 L7.37 111.03 a0.340088
								 0.34001 -180 0 0 -0.57941 -0.239266 ZM38.47 124.63 L45.13 117.95 a0.343237 0.343158 -180 0 0 -2.13163E-14
								 -0.481681 L38.47 110.79 a0.340088 0.34001 -180 0 0 -0.582558 0.239266 L37.88 114.96 a0.340088 0.34001
								 0 0 1 -0.340088 0.34001 L31.22 115.3 a0.340088 0.34001 -180 0 0 -0.340088 0.34001 L30.88 119.79
								 a0.340088 0.34001 -180 0 0 0.340088 0.34001 L37.54 120.13 a0.340088 0.34001 0 0 1 0.340088 0.34001
								 L37.88 124.39 a0.340088 0.34001 -180 0 0 0.582558 0.239266 Z" class="st2"/>
				</g>
				<g id="shape2047-9" transform="translate(23.0883,-6.72479)">
					<title>Sheet.2047</title>
					<path d="M14.06 103.05 A8.77616 8.77415 -180 1 0 2.91 111.46 L2.91 114.45 A5.41937 5.41812 -180 1 0 7.85 114.49
								 L7.85 111.4 A8.74782 8.74582 -180 0 0 14.06 103.05 Z" class="st3"/>
				</g>
				<g id="shape2048-11" transform="translate(23.2751,-23.2827)">
					<title>Sheet.2048</title>
					<ellipse cx="5.09817" cy="119.612" rx="5.09817" ry="5.097" class="st4"/>
				</g>
			</g>
		</g>
	</g>
</svg>
