<?xml version="1.0" encoding="UTF-8" standalone="no"?>
<!-- Generated by Microsoft Visio, SVG Export Load Balancer.svg Page-1 -->

<svg
   xmlns:dc="http://purl.org/dc/elements/1.1/"
   xmlns:cc="http://creativecommons.org/ns#"
   xmlns:rdf="http://www.w3.org/1999/02/22-rdf-syntax-ns#"
   xmlns:svg="http://www.w3.org/2000/svg"
   xmlns="http://www.w3.org/2000/svg"
   xmlns:sodipodi="http://sodipodi.sourceforge.net/DTD/sodipodi-0.dtd"
   xmlns:inkscape="http://www.inkscape.org/namespaces/inkscape"
   width="56.694347"
   height="56.696487"
   viewBox="0 0 56.694347 56.696488"
   xml:space="preserve"
   class="st5"
   version="1.1"
   id="svg42"
   sodipodi:docname="Load Balancer.svg"
   style="font-size:12px;overflow:visible;color-interpolation-filters:sRGB;fill:none;fill-rule:evenodd;stroke-linecap:square;stroke-miterlimit:3"
   inkscape:version="0.92.5 (2060ec1f9f, 2020-04-08)"><metadata
   id="metadata46"><rdf:RDF><cc:Work
       rdf:about=""><dc:format>image/svg+xml</dc:format><dc:type
         rdf:resource="http://purl.org/dc/dcmitype/StillImage" /></cc:Work></rdf:RDF></metadata><sodipodi:namedview
   pagecolor="#ffffff"
   bordercolor="#666666"
   borderopacity="1"
   objecttolerance="10"
   gridtolerance="10"
   guidetolerance="10"
   inkscape:pageopacity="0"
   inkscape:pageshadow="2"
   inkscape:window-width="640"
   inkscape:window-height="480"
   id="namedview44"
   showgrid="false"
   inkscape:zoom="1.8924055"
   inkscape:cx="28.346183"
   inkscape:cy="28.342065"
   inkscape:window-x="0"
   inkscape:window-y="0"
   inkscape:window-maximized="0"
   inkscape:current-layer="svg42" />
	<style
   type="text/css"
   id="style2">
	<![CDATA[
		.st1 {fill:url(#grad0-6);stroke:none;stroke-linecap:butt;stroke-width:34}
		.st2 {fill:#b4ec36;stroke:none;stroke-linecap:butt;stroke-width:34}
		.st3 {fill:#ffffff;stroke:none;stroke-linecap:butt;stroke-width:34}
		.st4 {fill:#5ea0ef;stroke:none;stroke-linecap:butt;stroke-width:34}
		.st5 {fill:none;fill-rule:evenodd;font-size:12px;overflow:visible;stroke-linecap:square;stroke-miterlimit:3}
	]]>
	</style>

	<defs
   id="Patterns_And_Gradients">
		<linearGradient
   id="grad0-6"
   x1="0.00031733363"
   y1="68.014493"
   x2="56.695735"
   y2="68.014493"
   gradientTransform="scale(0.99998112,1.0000189)"
   gradientUnits="userSpaceOnUse">
			<stop
   offset="0"
   stop-color="#5e9624"
   stop-opacity="1"
   id="stop4" />
			<stop
   offset="0.02"
   stop-color="#5f9724"
   stop-opacity="1"
   id="stop6" />
			<stop
   offset="1"
   stop-color="#76bc2d"
   stop-opacity="1"
   id="stop8" />
		</linearGradient>
	</defs>
	<g
   id="g40"
   transform="translate(-34.000317,-34.000077)">
		<title
   id="title12">Page-1</title>
		<g
   id="group3574-1"
   transform="translate(34,-34.0157)">
			<title
   id="title14">Load Balancer</title>
			<g
   id="group3575-2">
				<title
   id="title16">Sheet.3575</title>
				<g
   id="shape3576-3">
					<title
   id="title18">Sheet.3576</title>
					<path
   d="M 0.57,94.99 26.99,68.58 a 1.92087,1.92043 0 0 1 2.72,0 l 26.42,26.41 a 1.92087,1.92043 0 0 1 0,2.72 l -26.45,26.45 a 1.88938,1.88894 0 0 1 -2.67,0 L 0.56,97.71 a 1.92087,1.92043 0 0 1 0.01,-2.72 z"
   class="st1"
   id="path20"
   inkscape:connector-curvature="0"
   style="fill:url(#grad0-6);stroke:none;stroke-width:34;stroke-linecap:butt" />
				</g>
				<g
   id="shape3577-7"
   transform="translate(5.8948,-21.9491)">
					<title
   id="title23">Sheet.3577</title>
					<path
   d="M 29.38,102.59 22.7,95.91 a 0.336939,0.336862 -180 0 0 -0.478643,0 L 15.53,102.59 a 0.340088,0.34001 -180 0 0 0.239321,0.57928 L 19.7,103.17 a 0.340088,0.34001 0 0 1 0.340088,0.34001 L 20.04,109.83 a 0.340088,0.34001 -180 0 0 0.340088,0.34001 L 24.53,110.17 a 0.340088,0.34001 -180 0 0 0.340088,-0.34001 L 24.87,103.51 a 0.340088,0.34001 0 0 1 0.340088,-0.34001 L 29.14,103.17 a 0.340088,0.34001 -180 0 0 0.245619,-0.57613 z m -22.59,8.2 -6.69,6.68 a 0.343237,0.343158 -180 0 0 0,0.48168 L 6.78,124.63 a 0.336939,0.336862 -180 0 0 0.57941,-0.23927 L 7.36,120.47 a 0.340088,0.34001 0 0 1 0.340088,-0.34001 L 14.03,120.13 a 0.340088,0.34001 -180 0 0 0.340088,-0.34001 L 14.37,115.64 a 0.340088,0.34001 -180 0 0 -0.340088,-0.34001 L 7.71,115.3 A 0.340088,0.34001 0 0 1 7.369912,114.95999 L 7.37,111.03 a 0.340088,0.34001 -180 0 0 -0.57941,-0.23927 z m 31.68,13.84 6.66,-6.68 a 0.343237,0.343158 -180 0 0 0,-0.48168 L 38.47,110.79 a 0.340088,0.34001 -180 0 0 -0.582558,0.23927 L 37.88,114.96 a 0.340088,0.34001 0 0 1 -0.340088,0.34001 L 31.22,115.3 a 0.340088,0.34001 -180 0 0 -0.340088,0.34001 L 30.88,119.79 a 0.340088,0.34001 -180 0 0 0.340088,0.34001 L 37.54,120.13 a 0.340088,0.34001 0 0 1 0.340088,0.34001 L 37.88,124.39 a 0.340088,0.34001 -180 0 0 0.582558,0.23927 z"
   class="st2"
   id="path25"
   inkscape:connector-curvature="0"
   style="fill:#b4ec36;stroke:none;stroke-width:34;stroke-linecap:butt" />
				</g>
				<g
   id="shape3578-9"
   transform="translate(23.0883,-6.72479)">
					<title
   id="title28">Sheet.3578</title>
					<path
   d="m 14.06,103.05 a 8.77616,8.77415 -180 1 0 -11.15,8.41 v 2.99 a 5.41937,5.41812 -180 1 0 4.94,0.04 v -3.09 a 8.74782,8.74582 -180 0 0 6.21,-8.35 z"
   class="st3"
   id="path30"
   inkscape:connector-curvature="0"
   style="fill:#ffffff;stroke:none;stroke-width:34;stroke-linecap:butt" />
				</g>
				<g
   id="shape3579-11"
   transform="translate(23.2751,-23.2827)">
					<title
   id="title33">Sheet.3579</title>
					<ellipse
   cx="5.0981698"
   cy="119.612"
   rx="5.0981698"
   ry="5.0970001"
   class="st4"
   id="ellipse35"
   style="fill:#5ea0ef;stroke:none;stroke-width:34;stroke-linecap:butt" />
				</g>
			</g>
		</g>
	</g>
</svg>