<?xml version="1.0" encoding="UTF-8" standalone="no"?>
<!DOCTYPE svg PUBLIC "-//W3C//DTD SVG 1.1//EN" "http://www.w3.org/Graphics/SVG/1.1/DTD/svg11.dtd">
<!-- Generated by Microsoft Visio, SVG Export Logic App.svg Page-1 -->
<svg xmlns="http://www.w3.org/2000/svg" xmlns:xlink="http://www.w3.org/1999/xlink" xmlns:ev="http://www.w3.org/2001/xml-events"
		width="1.75028in" height="1.94857in" viewBox="0 0 126.02 140.297" xml:space="preserve" color-interpolation-filters="sRGB"
		class="st5">
	<style type="text/css">
	<![CDATA[
		.st1 {fill:#949494;stroke:none;stroke-linecap:butt;stroke-width:34.6637}
		.st2 {fill:#005ba1;stroke:none;stroke-linecap:butt;stroke-width:34.6637}
		.st3 {fill:#0078d4;stroke:none;stroke-linecap:butt;stroke-width:34.6637}
		.st4 {fill:url(#grad0-14);stroke:none;stroke-linecap:butt;stroke-width:34.6637}
		.st5 {fill:none;fill-rule:evenodd;font-size:12px;overflow:visible;stroke-linecap:square;stroke-miterlimit:3}
	]]>
	</style>

	<defs id="Patterns_And_Gradients">
		<linearGradient id="grad0-14" x1="0" y1="0" x2="1" y2="0" gradientTransform="rotate(90 0.5 0.5)">
			<stop offset="0" stop-color="#76bc2d" stop-opacity="1"/>
			<stop offset="1" stop-color="#5e9624" stop-opacity="1"/>
		</linearGradient>
	</defs>
	<g>
		<title>Page-1</title>
		<g id="group2182-1" transform="translate(34.6637,-63.0709)">
			<title>Logic App</title>
			<g id="group2183-2">
				<title>g28</title>
				<g id="shape2184-3">
					<title>path16</title>
					<path d="M8.97 140.3 A8.30384 8.02076 0 0 1 3.87 139.07 A5.66929 5.47602 0 0 1 2.37 134.69 L2.37 123.32 C2.37
								 121.45 1.6 120.45 0 120.45 L0 117.62 C1.6 117.62 2.37 116.62 2.37 114.66 L2.37 103.48 A5.96943 5.76593
								 0 0 1 3.87 99 A7.63687 7.37652 0 0 1 8.97 97.78 L8.97 100.64 C7.27 100.64 6.34 101.51 6.34 103.38
								 L6.34 114.33 C6.34 116.85 5.57 118.39 3.87 119.04 A4.73553 4.57409 0 0 1 6.34 123.74 L6.34 134.6
								 A4.1686 4.02649 -180 0 0 6.9 136.79 A2.46781 2.38368 -180 0 0 8.84 137.43 L8.84 140.3 L8.97 140.3
								 Z" class="st1"/>
				</g>
				<g id="shape2185-5" transform="translate(47.7221,0)">
					<title>path18</title>
					<path d="M0 97.78 A8.30384 8.02076 0 0 1 5.1 99 A5.66929 5.47602 0 0 1 6.6 103.38 L6.6 114.75 C6.6 116.62 7.37
								 117.62 8.97 117.62 L8.97 120.45 C7.37 120.45 6.6 121.45 6.6 123.42 L6.6 134.47 A6.00278 5.79814
								 0 0 1 5.1 138.98 A7.60352 7.34431 0 0 1 0 140.3 L0 137.43 C1.7 137.43 2.63 136.56 2.63 134.69 L2.63
								 123.74 C2.63 121.23 3.4 119.68 5.1 119.04 A4.73553 4.57409 0 0 1 2.63 114.33 L2.63 103.48 A4.1686
								 4.02649 -180 0 0 2.07 101.29 A2.46781 2.38368 -180 0 0 0.13 100.64 L0 97.78 Z" class="st1"/>
				</g>
				<g id="shape2186-7" transform="translate(13.8064,-16.2348)">
					<title>path20</title>
					<path d="M15.91 133.18 L15.91 129.09 L12.91 129.09 L12.91 133.18 a0.600278 0.579814 0 0 1 -0.600278 0.579814
								 L1.2 133.76 A1.20056 1.15963 -180 0 0 -0 134.92 L0 140.23 L3 140.23 L3 137.3 a0.600278 0.579814
								 0 0 1 0.566929 -0.579814 L25.38 136.72 a0.600278 0.579814 0 0 1 0.600278 0.579814 L25.98 140.3 L28.95
								 140.3 L28.95 134.92 A1.20056 1.15963 -180 0 0 27.78 133.76 L16.51 133.76 a0.600278 0.579814 0 0
								 1 -0.600278 -0.579814 Z" class="st2"/>
				</g>
				<g id="shape2187-9" transform="translate(21.2432,-26.7037)">
					<title>path22</title>
					<path d="M12.47 127.09 L1.27 127.09 A1.26725 1.22405 -180 0 0 -0 128.28 L0 139.11 A1.2339 1.19184 -180 0 0 1.27
								 140.3 L12.47 140.3 A1.2339 1.19184 -180 0 0 13.77 139.11 L13.77 128.28 A1.26725 1.22405 -180 0 0
								 12.47 127.09 ZM11.41 137.3 a0.833719 0.805297 0 0 1 -0.833719 0.773085 L3.13 138.07 a0.833719 0.805297
								 0 0 1 -0.833719 -0.773085 L2.3 130.12 a0.833719 0.805297 0 0 1 0.833719 -0.805297 L10.44 129.31
								 a0.833719 0.805297 0 0 1 0.833719 0.805297 L11.41 137.3 Z" class="st3"/>
				</g>
				<g id="shape2188-11" transform="translate(10.2714,-6.79671)">
					<title>rect24</title>
					<path d="M-0 139.43 a0.900438 0.869741 -180 0 0 0.900417 0.869721 L8.9 140.3 a0.900438 0.869741 -180 0 0 0.900417
								 -0.869721 L9.8 131.7 a0.900438 0.869741 -180 0 0 -0.900417 -0.869721 L0.9 130.83 a0.900438 0.869741
								 -180 0 0 -0.900417 0.869721 L0 139.43 Z" class="st4"/>
				</g>
				<g id="shape2189-15" transform="translate(36.2835,-6.73228)">
					<title>rect26</title>
					<path d="M-0 139.43 a0.900438 0.869741 -180 0 0 0.900417 0.869721 L8.9 140.3 a0.900438 0.869741 -180 0 0 0.900417
								 -0.869721 L9.8 131.7 a0.900438 0.869741 -180 0 0 -0.900417 -0.869721 L0.9 130.83 a0.900438 0.869741
								 -180 0 0 -0.900417 0.869721 L0 139.43 Z" class="st4"/>
				</g>
			</g>
		</g>
	</g>
</svg>
