<?xml version="1.0" encoding="UTF-8" standalone="no"?>
<!DOCTYPE svg PUBLIC "-//W3C//DTD SVG 1.1//EN" "http://www.w3.org/Graphics/SVG/1.1/DTD/svg11.dtd">
<!-- Generated by Microsoft Visio, SVG Export Logic App Custom Connecton.svg Page-1 -->
<svg xmlns="http://www.w3.org/2000/svg" xmlns:xlink="http://www.w3.org/1999/xlink" xmlns:ev="http://www.w3.org/2001/xml-events"
		width="1.81635in" height="1.81635in" viewBox="0 0 130.777 130.777" xml:space="preserve" color-interpolation-filters="sRGB"
		class="st4">
	<style type="text/css">
	<![CDATA[
		.st1 {fill:#949494;stroke:none;stroke-linecap:butt;stroke-width:37.042}
		.st2 {fill:url(#grad0-7);stroke:none;stroke-linecap:butt;stroke-width:37.042}
		.st3 {fill:url(#grad0-11);stroke:none;stroke-linecap:butt;stroke-width:37.042}
		.st4 {fill:none;fill-rule:evenodd;font-size:12px;overflow:visible;stroke-linecap:square;stroke-miterlimit:3}
	]]>
	</style>

	<defs id="Patterns_And_Gradients">
		<linearGradient id="grad0-7" x1="0" y1="0" x2="1" y2="0" gradientTransform="rotate(90 0.5 0.5)">
			<stop offset="0" stop-color="#008bf1" stop-opacity="1"/>
			<stop offset="1" stop-color="#004dae" stop-opacity="1"/>
		</linearGradient>
		<linearGradient id="grad0-11" x1="0" y1="0" x2="1" y2="0" gradientTransform="rotate(90 0.5 0.5)">
			<stop offset="0" stop-color="#76bc2d" stop-opacity="1"/>
			<stop offset="1" stop-color="#5e9624" stop-opacity="1"/>
		</linearGradient>
	</defs>
	<g>
		<title>Page-1</title>
		<g id="group3293-1" transform="translate(37.042,-37.042)">
			<title>Logic App Custom Connecton</title>
			<g id="shape3294-2" transform="translate(11.5079,-11.4725)">
				<title>polygon21</title>
				<path d="M29.56 130.78 L29.56 127.06 L3.72 127.06 L3.72 104.41 L0 104.41 L0 127.06 L0 129.15 L0 130.78 L29.56 130.78
							 Z" class="st1"/>
			</g>
			<g id="shape3295-4">
				<title>bcfff480-0908-4673-8dd3-211accb</title>
				<path d="M11.76 105.13 L0.56 116.4 A1.94916 1.94916 -180 0 0 0.56 119.13 L11.76 130.22 A1.94916 1.94916 -180 0 0
							 14.48 130.22 L25.68 119.02 A1.94916 1.94916 -180 0 0 25.68 116.29 L14.48 105.13 A1.94916 1.94916 -180
							 0 0 11.76 105.13 Z" class="st2"/>
			</g>
			<g id="shape3296-8" transform="translate(3.92391,-37.8392)">
				<title>a2e9ce98-ac6d-463e-9773-5eed323</title>
				<path d="M18.85 128.86 L18.85 113.84 A1.91372 1.91372 -180 0 0 17.12 111.92 L1.91 111.92 A1.91372 1.91372 -180 0
							 0 -0 113.84 L0 128.86 A1.91372 1.91372 -180 0 0 1.91 130.78 L17.12 130.78 A1.91372 1.91372 -180 0 0
							 18.85 128.86 Z" class="st3"/>
			</g>
			<g id="shape3297-12" transform="translate(37.8392,-3.92391)">
				<title>abb7af69-4e26-4379-92b2-a9fedde</title>
				<path d="M0 113.87 L0 128.86 A1.91372 1.91372 -180 0 0 1.91 130.78 L16.94 130.78 A1.91372 1.91372 -180 0 0 18.85
							 128.86 L18.85 113.87 A1.91372 1.91372 -180 0 0 16.94 111.96 L1.91 111.96 A1.91372 1.91372 -180 0 0 0
							 113.87 Z" class="st3"/>
			</g>
		</g>
	</g>
</svg>
