<?xml version="1.0" encoding="UTF-8" standalone="no"?>
<!DOCTYPE svg PUBLIC "-//W3C//DTD SVG 1.1//EN" "http://www.w3.org/Graphics/SVG/1.1/DTD/svg11.dtd">
<!-- Generated by Microsoft Visio, SVG Export Machine Learning Studio Web Service (classic).svg Page-1 -->
<svg xmlns="http://www.w3.org/2000/svg" xmlns:xlink="http://www.w3.org/1999/xlink" xmlns:ev="http://www.w3.org/2001/xml-events"
		width="1.73186in" height="2.24388in" viewBox="0 0 124.694 161.559" xml:space="preserve" color-interpolation-filters="sRGB"
		class="st4">
	<style type="text/css">
	<![CDATA[
		.st1 {fill:#59b4d9;stroke:none;stroke-linecap:butt;stroke-width:34}
		.st2 {fill:#e5e5e5;stroke:none;stroke-linecap:butt;stroke-width:34}
		.st3 {fill:#a0a1a2;stroke:none;stroke-linecap:butt;stroke-width:34}
		.st4 {fill:none;fill-rule:evenodd;font-size:12px;overflow:visible;stroke-linecap:square;stroke-miterlimit:3}
	]]>
	</style>

	<g>
		<title>Page-1</title>
		<g id="group2162-1" transform="translate(34,-70.8661)">
			<title>Machine Learning Studio Web Service (classic)</title>
			<g id="group2163-2">
				<title>Sheet.2163</title>
				<g id="shape2164-3">
					<title>Sheet.2164</title>
					<path d="M27.62 137.15 L27.62 127.7 L27.97 127.7 C29.45 127.7 30.05 126.66 30.05 124.55 A2.45669 2.45669 -180
								 0 0 27.12 121.81 L9.7 121.81 A2.45669 2.45669 -180 0 0 7.18 124.17 L7.18 125.31 A2.51969 2.51969
								 -180 0 0 9.8 127.7 L10.11 127.7 L10.11 137.15 L0 155.98 L3.5 161.56 L32.66 161.56 L36.79 155.98
								 L27.62 137.15 ZM15.75 148.3 L11.34 155.67 L5.32 155.67 L15.75 137.15 L15.75 127.7 L21.76 127.7 L21.76
								 137.15 L28.06 148.3 L15.75 148.3 Z" class="st1"/>
				</g>
				<g id="shape2165-5" transform="translate(5.32283,-5.88976)">
					<title>Sheet.2165</title>
					<path d="M10.39 154.19 L6.02 161.56 L0 161.56 L10.58 143.04 L10.58 133.62 L16.44 133.62 L16.44 143.04 L22.65
								 154.19 L10.39 154.19 Z" class="st2"/>
				</g>
				<g id="shape2166-7" transform="translate(17.1969,-15.748)">
					<title>Sheet.2166</title>
					<path d="M19.84 120.61 L19.02 120.61 A21.5748 21.5748 -180 0 0 0.54 133.21 L0 134.76 L3.15 134.76 L3.69 133.21
								 L8.22 133.21 L8 134.76 L11.15 134.76 L11.15 133.21 L17.45 133.21 L17.45 139.51 L15.56 139.51 A11.1496
								 11.1496 0 0 1 15.56 140.9 A9.13386 9.13386 0 0 1 15.4 142.66 L17.45 142.66 L17.45 148.96 L14.3 148.96
								 L14.3 152.11 L17.45 152.11 L17.45 158.41 L16.44 158.41 L18.11 161.56 L19.81 161.56 A20.252 20.252
								 -180 0 0 39.5 141.09 A20.5039 20.5039 -180 0 0 19.84 120.61 ZM5.35 130.06 A18.6142 18.6142 0 0 1
								 12.91 123.76 A15.2441 15.2441 -180 0 0 8.91 130.06 L5.35 130.06 ZM17.45 130.06 L11.81 130.06 A11.6535
								 11.6535 0 0 1 17.45 123.23 L17.45 130.06 ZM37.07 139.51 L31.53 139.51 A18.4882 18.4882 -180 0 0
								 30.61 133.21 L35.02 133.21 A15.1811 15.1811 0 0 1 37.1 139.51 L37.07 139.51 ZM33.92 130.06 L29.83
								 130.06 A15.1811 15.1811 -180 0 0 26.27 123.95 A19.5591 19.5591 0 0 1 33.89 130.06 L33.92 130.06
								 ZM20.6 123.23 A10.2677 10.2677 0 0 1 26.71 130.06 L20.6 130.06 L20.6 123.23 ZM20.6 133.21 L27.84
								 133.21 A22.0472 22.0472 0 0 1 28.85 139.51 L20.6 139.51 L20.6 133.21 ZM20.6 142.66 L28.85 142.66
								 A22.4882 22.4882 0 0 1 27.84 148.96 L20.6 148.96 L20.6 142.66 ZM20.6 158.41 L20.6 152.11 L26.9 152.11
								 A11.7165 11.7165 0 0 1 20.6 158.41 ZM25.39 158.41 A18.8976 18.8976 -180 0 0 30.05 152.11 L33.7 152.11
								 A20.8819 20.8819 0 0 1 25.39 158.41 ZM35.28 148.96 L30.61 148.96 A24.2205 24.2205 -180 0 0 31.72
								 142.66 L37.1 142.66 A18.7087 18.7087 0 0 1 35.28 148.96 Z" class="st3"/>
				</g>
			</g>
		</g>
	</g>
</svg>
