<?xml version="1.0" encoding="UTF-8" standalone="no"?>
<!DOCTYPE svg PUBLIC "-//W3C//DTD SVG 1.1//EN" "http://www.w3.org/Graphics/SVG/1.1/DTD/svg11.dtd">
<!-- Generated by Microsoft Visio, SVG Export Managed Database.svg Page-1 -->
<svg xmlns="http://www.w3.org/2000/svg" xmlns:xlink="http://www.w3.org/1999/xlink" xmlns:ev="http://www.w3.org/2001/xml-events"
		width="1.73185in" height="2.18285in" viewBox="0 0 124.693 157.165" xml:space="preserve" color-interpolation-filters="sRGB"
		class="st8">
	<style type="text/css">
	<![CDATA[
		.st1 {fill:url(#grad0-6);stroke:none;stroke-linecap:butt;stroke-width:34}
		.st2 {fill:#eaeaea}
		.st3 {stroke:none;stroke-linecap:butt;stroke-width:34}
		.st4 {fill:#50e6ff;stroke:none;stroke-linecap:butt;stroke-width:34}
		.st5 {fill:#198ab3;stroke:none;stroke-linecap:butt;stroke-width:34}
		.st6 {fill:url(#grad0-17)}
		.st7 {fill:#ffffff;stroke:none;stroke-linecap:butt;stroke-width:34}
		.st8 {fill:none;fill-rule:evenodd;font-size:12px;overflow:visible;stroke-linecap:square;stroke-miterlimit:3}
	]]>
	</style>

	<defs id="Patterns_And_Gradients">
		<linearGradient id="grad0-6" x1="0" y1="0" x2="1" y2="0" gradientTransform="rotate(0 0.5 0.5)">
			<stop offset="0" stop-color="#005ba1" stop-opacity="1"/>
			<stop offset="0.07" stop-color="#0060a9" stop-opacity="1"/>
			<stop offset="0.36" stop-color="#0071c8" stop-opacity="1"/>
			<stop offset="0.52" stop-color="#0078d4" stop-opacity="1"/>
			<stop offset="0.64" stop-color="#0074cd" stop-opacity="1"/>
			<stop offset="0.82" stop-color="#006abb" stop-opacity="1"/>
			<stop offset="1" stop-color="#005ba1" stop-opacity="1"/>
		</linearGradient>
		<linearGradient id="grad0-17" x1="0" y1="0" x2="1" y2="0" gradientTransform="rotate(-90 0.5 0.5)">
			<stop offset="0" stop-color="#198ab3" stop-opacity="1"/>
			<stop offset="0" stop-color="#198ab3" stop-opacity="1"/>
			<stop offset="0.11" stop-color="#22a5cb" stop-opacity="1"/>
			<stop offset="0.23" stop-color="#29bade" stop-opacity="1"/>
			<stop offset="0.37" stop-color="#2ec9eb" stop-opacity="1"/>
			<stop offset="0.53" stop-color="#31d1f3" stop-opacity="1"/>
			<stop offset="0.78" stop-color="#32d4f5" stop-opacity="1"/>
		</linearGradient>
	</defs>
	<g>
		<title>Page-1</title>
		<g id="group2116-1" transform="translate(34,-69.3071)">
			<title>Managed Database</title>
			<g id="group2117-2">
				<title>Icon-databases-135</title>
				<g id="shape2118-3" transform="translate(0.13316,-0.70689)">
					<title>Sheet.2118</title>
					<path d="M19.97 118.49 C8.99 118.49 0 115.12 0 111.22 L0 149.89 C0 153.87 8.76 157.13 19.57 157.17 L19.87 157.17
								 C30.83 157.17 39.85 153.8 39.85 149.89 L39.85 111.22 C39.81 115.22 30.93 118.49 19.97 118.49 Z"
							class="st1"/>
				</g>
				<g id="shape2119-7" transform="translate(-2.71783E-13,-39.3839)">
					<title>Sheet.2119</title>
					<path d="M39.95 149.89 C39.95 153.9 31.06 157.17 19.97 157.17 C8.89 157.17 0 153.8 0 149.89 C0 145.99 9.12 142.69
								 20.11 142.69 C31.09 142.69 40.08 146.06 40.08 150 L39.95 149.89 Z" class="st2"/>
					<path d="M39.95 149.89 C39.95 153.9 31.06 157.17 19.97 157.17 C8.89 157.17 0 153.8 0 149.89 C0 145.99 9.12 142.69
								 20.11 142.69 C31.09 142.69 40.08 146.06 40.08 150" class="st3"/>
				</g>
				<g id="shape2120-10" transform="translate(4.86034,-42.5144)">
					<title>Sheet.2120</title>
					<path d="M30.33 152.55 C30.33 155.11 23.67 157.17 15.11 157.17 C6.56 157.17 0 154.98 0 152.55 C0 150.13 6.82
								 147.81 15.25 147.81 C23.67 147.81 30.33 149.86 30.33 152.55 Z" class="st4"/>
				</g>
				<g id="shape2121-12" transform="translate(8.0229,-42.649)">
					<title>Sheet.2121</title>
					<path d="M12.08 153.63 A36.619 37.0276 -180 0 0 0 155.38 A36.2528 36.6573 -180 0 0 12.08 157.17 A36.153 36.5563
								 -180 0 0 24.14 155.38 A36.619 37.0276 -180 0 0 12.08 153.63 Z" class="st5"/>
				</g>
				<g id="shape2122-14" transform="translate(18.5425,0)">
					<title>Sheet.2122</title>
					<path d="M35.79 142.83 A9.62082 9.72815 -180 0 0 30.83 140.33 A10.786 10.9063 -180 0 0 19.71 129.9 A11.1522 11.2766
								 -180 0 0 9.05 137.2 A10.1867 10.3004 -180 0 0 0 147.07 A10.3865 10.5024 -180 0 0 10.72 157.17 L29.53
								 157.17 A8.6887 8.78563 -180 0 0 38.15 148.72 A8.18935 8.28071 -180 0 0 35.65 142.86 L35.79 142.83
								 Z" class="st6"/>
					<path d="M35.79 142.83 A9.62082 9.72815 -180 0 0 30.83 140.33 A10.786 10.9063 -180 0 0 19.71 129.9 A11.1522 11.2766
								 -180 0 0 9.05 137.2 A10.1867 10.3004 -180 0 0 0 147.07 A10.3865 10.5024 -180 0 0 10.72 157.17 L29.53
								 157.17 A8.6887 8.78563 -180 0 0 38.15 148.72 A8.18935 8.28071 -180 0 0 35.65 142.86" class="st3"/>
				</g>
				<g id="shape2123-19" transform="translate(30.1275,-4.03937)">
					<title>Sheet.2123</title>
					<path d="M16.05 157.17 L12.92 157.17 L12.92 145.62 C12.92 146.46 12.58 147.1 12.48 147.5 L9.15 157.17 L6.56 157.17
								 L3.23 147.57 A15.3467 15.5179 0 0 1 2.8 145.62 L2.8 157.17 L0 157.17 L0 142.93 L4.66 142.93 L7.52
								 151.38 A10.9524 11.0746 0 0 1 8.02 153.4 C8.19 152.62 8.39 151.91 8.56 151.34 L11.45 142.93 L16.05
								 142.93 L16.05 157.17 Z" class="st7"/>
				</g>
			</g>
		</g>
	</g>
</svg>
