<?xml version="1.0" encoding="UTF-8" standalone="no"?>
<!DOCTYPE svg PUBLIC "-//W3C//DTD SVG 1.1//EN" "http://www.w3.org/Graphics/SVG/1.1/DTD/svg11.dtd">
<!-- Generated by Microsoft Visio, SVG Export Managed Disk Standard SSD.svg Page-1 -->
<svg xmlns="http://www.w3.org/2000/svg" xmlns:xlink="http://www.w3.org/1999/xlink" xmlns:ev="http://www.w3.org/2001/xml-events"
		width="0.944882in" height="1.20866in" viewBox="0 0 68.0315 87.0236" xml:space="preserve" color-interpolation-filters="sRGB"
		class="st6">
	<style type="text/css">
	<![CDATA[
		.st1 {fill:#7fba00;stroke:none;stroke-linecap:butt;stroke-width:0.749999}
		.st2 {fill:#b8d432;stroke:none;stroke-linecap:butt;stroke-width:0.749999}
		.st3 {fill:#ffffff;fill-opacity:0.25;stroke:none;stroke-linecap:butt;stroke-width:0.749999}
		.st4 {fill:#0072c6;stroke:none;stroke-linecap:butt;stroke-width:0.749999}
		.st5 {fill:#59b4d9;stroke:none;stroke-linecap:butt;stroke-width:0.749999}
		.st6 {fill:none;fill-rule:evenodd;font-size:12px;overflow:visible;stroke-linecap:square;stroke-miterlimit:3}
	]]>
	</style>

	<g>
		<title>Page-1</title>
		<g id="group2027-1" transform="translate(5.66929,-34.0157)">
			<title>Managed Disk Standard SSD</title>
			<g id="group2028-2">
				<title>Page-1</title>
				<g id="group2029-3">
					<title>Managed Disk Standard SSD</title>
					<g id="group2030-4">
						<title>Sheet.2030</title>
						<g id="shape2031-5">
							<title>Sheet.2031</title>
							<path d="M56.69 76.76 C56.69 82.43 44 87.02 28.35 87.02 C12.69 87.02 0 82.43 0 76.76 L0 71.22 L56.69
										 71.22 L56.69 76.76 Z" class="st1"/>
						</g>
					</g>
					<g id="group2032-7" transform="translate(0,-5.53254)">
						<title>Sheet.2032</title>
						<g id="shape2033-8">
							<title>Sheet.2033</title>
							<path d="M56.69 76.76 C56.69 82.43 44 87.02 28.35 87.02 C12.69 87.02 0 82.43 0 76.76 C0 71.09 12.69 66.49
										 28.35 66.49 C44 66.49 56.69 71.09 56.69 76.76 Z" class="st2"/>
						</g>
					</g>
					<g id="group2034-10" transform="translate(19.2573,-13.659)">
						<title>Sheet.2034</title>
						<g id="shape2035-11">
							<title>Sheet.2035</title>
							<path d="M18.18 84.3 C18.18 85.8 14.11 87.02 9.08 87.02 C4.07 87.02 0 85.8 0 84.3 C0 82.78 4.07 81.56
										 9.08 81.56 C14.11 81.56 18.18 82.78 18.18 84.3 Z" class="st1"/>
						</g>
					</g>
					<g id="group2036-13" transform="translate(30.1015,-18.2574)">
						<title>Sheet.2036</title>
						<g id="shape2037-14">
							<title>Sheet.2037</title>
							<path d="M18.74 82.45 C14.76 80.94 9.55 79.88 3.68 79.46 L0 86.27 C1.81 86.37 3.43 86.64 4.68 87.02 L18.74
										 82.45 Z" class="st3"/>
						</g>
					</g>
					<g id="group2038-16" transform="translate(6.69199,-5.66746)">
						<title>Sheet.2038</title>
						<g id="shape2039-17">
							<title>Sheet.2039</title>
							<path d="M0 83.57 C4.08 85.32 9.75 86.56 16.2 87.02 L20.5 79.06 C18.71 78.99 17.08 78.77 15.78 78.44
										 L0 83.57 Z" class="st3"/>
						</g>
					</g>
					<g id="group2040-19" transform="translate(0,-22.1256)">
						<title>Sheet.2040</title>
						<g id="shape2041-20">
							<title>Sheet.2041</title>
							<path d="M56.69 76.76 C56.69 82.43 44 87.02 28.35 87.02 C12.69 87.02 0 82.42 0 76.76 L0 71.22 L56.69
										 71.22 L56.69 76.76 Z" class="st4"/>
						</g>
					</g>
					<g id="group2042-22" transform="translate(0,-27.6582)">
						<title>Sheet.2042</title>
						<g id="shape2043-23">
							<title>Sheet.2043</title>
							<path d="M56.69 76.76 C56.69 82.43 44 87.02 28.35 87.02 C12.69 87.02 0 82.42 0 76.76 C0 71.09 12.69 66.49
										 28.35 66.49 C44 66.49 56.69 71.09 56.69 76.76 Z" class="st5"/>
						</g>
					</g>
					<g id="group2044-25" transform="translate(19.2573,-35.7846)">
						<title>Sheet.2044</title>
						<g id="shape2045-26">
							<title>Sheet.2045</title>
							<path d="M18.18 84.3 C18.18 85.8 14.11 87.02 9.08 87.02 C4.07 87.02 0 85.8 0 84.3 C0 82.78 4.07 81.56
										 9.08 81.56 C14.11 81.56 18.18 82.78 18.18 84.3 Z" class="st4"/>
						</g>
					</g>
					<g id="group2046-28" transform="translate(30.1015,-40.4397)">
						<title>Sheet.2046</title>
						<g id="shape2047-29">
							<title>Sheet.2047</title>
							<path d="M18.74 82.45 C14.76 80.94 9.55 79.88 3.68 79.46 L0 86.27 C1.81 86.37 3.43 86.64 4.68 87.02 L18.74
										 82.45 Z" class="st3"/>
						</g>
					</g>
					<g id="group2048-31" transform="translate(6.69199,-27.8498)">
						<title>Sheet.2048</title>
						<g id="shape2049-32">
							<title>Sheet.2049</title>
							<path d="M0 83.57 C4.08 85.32 9.75 86.56 16.2 87.02 L20.5 79.06 C18.71 78.99 17.08 78.77 15.78 78.44
										 L0 83.57 Z" class="st3"/>
						</g>
					</g>
				</g>
			</g>
		</g>
	</g>
</svg>
