<?xml version="1.0" encoding="UTF-8" standalone="no"?>
<!DOCTYPE svg PUBLIC "-//W3C//DTD SVG 1.1//EN" "http://www.w3.org/Graphics/SVG/1.1/DTD/svg11.dtd">
<!-- Generated by Microsoft Visio, SVG Export Managed Application.svg Page-1 -->
<svg xmlns="http://www.w3.org/2000/svg" xmlns:xlink="http://www.w3.org/1999/xlink" xmlns:ev="http://www.w3.org/2001/xml-events"
		width="1.49606in" height="1.94165in" viewBox="0 0 107.717 139.799" xml:space="preserve" color-interpolation-filters="sRGB"
		class="st7">
	<style type="text/css">
	<![CDATA[
		.st1 {fill:#3999c6;stroke:none;stroke-linecap:butt;stroke-width:12.24}
		.st2 {fill:#62117a;fill-opacity:0.15;stroke:none;stroke-linecap:butt;stroke-width:12.24}
		.st3 {fill:#59b4d9;stroke:none;stroke-linecap:butt;stroke-width:12.24}
		.st4 {fill:#ffffff;fill-opacity:0.2;stroke:none;stroke-linecap:butt;stroke-width:12.24}
		.st5 {fill:#804998;stroke:none;stroke-linecap:butt;stroke-width:12.24}
		.st6 {fill:#68217a;stroke:none;stroke-linecap:butt;stroke-width:12.24}
		.st7 {fill:none;fill-rule:evenodd;font-size:12px;overflow:visible;stroke-linecap:square;stroke-miterlimit:3}
	]]>
	</style>

	<g>
		<title>Page-1</title>
		<g id="group2132-1" transform="translate(26.9291,-70.8661)">
			<title>Managed Application</title>
			<g id="group2133-2">
				<title>Sheet.2133</title>
				<g id="shape2134-3" transform="translate(31.7315,-6.82347)">
					<title>Sheet.2134</title>
					<path d="M0.27 126.35 C0.32 126.35 0.37 126.34 0.42 126.31 L9.59 121.22 a0.26109 0.261566 -180 0 0 0.141897 -0.231998
								 L9.73 110.77 a0.269036 0.269527 -180 0 0 -0.141897 -0.234273 a0.29855 0.299096 -180 0 0 -0.280388
								 2.41585E-13 L0.14 115.63 a0.267901 0.26839 -180 0 0 -0.136221 0.233135 L0 126.08 C0 126.18 0.05
								 126.26 0.14 126.31 C0.18 126.34 0.23 126.35 0.27 126.35 ZM0.27 139.8 C0.32 139.8 0.37 139.79 0.42
								 139.76 L9.59 134.67 a0.26109 0.261566 -180 0 0 0.141897 -0.231998 L9.73 124.23 a0.269036 0.269527
								 -180 0 0 -0.141897 -0.234273 a0.29855 0.299096 -180 0 0 -0.280388 -8.52651E-14 L0.14 129.08 a0.267901
								 0.26839 -180 0 0 -0.136221 0.233135 L0 139.53 C0 139.63 0.05 139.71 0.14 139.76 C0.18 139.79 0.23
								 139.8 0.27 139.8 ZM12.17 119.62 C12.22 119.62 12.26 119.61 12.31 119.58 L21.48 114.49 a0.259955
								 0.260429 -180 0 0 0.140761 -0.231998 L21.62 104.05 a0.269036 0.269527 -180 0 0 -0.141897 -0.234273
								 a0.29855 0.299096 -180 0 0 -0.280388 9.9476E-14 L12.03 108.9 a0.267901 0.26839 -180 0 0 -0.136221
								 0.233135 L11.89 119.35 C11.89 119.45 11.94 119.54 12.03 119.58 a0.284928 0.285449 -180 0 0 0.138491
								 0.0352546 ZM12.17 133.07 C12.22 133.07 12.26 133.06 12.31 133.04 L21.48 127.95 a0.258819 0.259292
								 -180 0 0 0.140761 -0.231998 L21.62 117.5 a0.269036 0.269527 -180 0 0 -0.141897 -0.234273 a0.29855
								 0.299096 -180 0 0 -0.280388 2.55795E-13 L12.03 122.36 a0.267901 0.26839 -180 0 0 -0.136221 0.233135
								 L11.89 132.81 C11.89 132.9 11.94 132.99 12.03 133.04 a0.284928 0.285449 -180 0 0 0.138491 0.0352546
								 Z" class="st1"/>
				</g>
				<g id="shape2135-5" transform="translate(31.7315,-6.82347)">
					<title>Sheet.2135</title>
					<path d="M0.27 139.8 C0.32 139.8 0.37 139.79 0.42 139.76 L9.59 134.67 a0.26109 0.261566 -180 0 0 0.141897 -0.231998
								 L9.73 124.23 a0.269036 0.269527 -180 0 0 -0.141897 -0.234273 a0.29855 0.299096 -180 0 0 -0.280388
								 -8.52651E-14 L0.14 129.08 a0.267901 0.26839 -180 0 0 -0.136221 0.233135 L0 139.53 C0 139.63 0.05
								 139.71 0.14 139.76 C0.18 139.79 0.23 139.8 0.27 139.8 ZM12.17 133.07 C12.22 133.07 12.26 133.06
								 12.31 133.04 L21.48 127.95 a0.258819 0.259292 -180 0 0 0.140761 -0.231998 L21.62 117.5 a0.269036
								 0.269527 -180 0 0 -0.141897 -0.234273 a0.29855 0.299096 -180 0 0 -0.280388 2.55795E-13 L12.03 122.36
								 a0.267901 0.26839 -180 0 0 -0.136221 0.233135 L11.89 132.81 C11.89 132.9 11.94 132.99 12.03 133.04
								 a0.284928 0.285449 -180 0 0 0.138491 0.0352546 ZM0.27 126.35 C0.32 126.35 0.37 126.34 0.42 126.31
								 L9.59 121.22 a0.26109 0.261566 -180 0 0 0.141897 -0.231998 L9.73 110.77 a0.269036 0.269527 -180
								 0 0 -0.141897 -0.234273 a0.29855 0.299096 -180 0 0 -0.280388 -1.42109E-13 L0.14 115.63 a0.267901
								 0.26839 -180 0 0 -0.136221 0.233135 L0 126.08 C0 126.18 0.05 126.26 0.14 126.31 C0.18 126.34 0.23
								 126.35 0.27 126.35 ZM12.17 119.62 C12.22 119.62 12.26 119.61 12.31 119.58 L21.48 114.49 a0.259955
								 0.260429 -180 0 0 0.140761 -0.231998 L21.62 104.05 a0.269036 0.269527 -180 0 0 -0.141897 -0.234273
								 a0.29855 0.299096 -180 0 0 -0.280388 9.9476E-14 L12.03 108.9 a0.267901 0.26839 -180 0 0 -0.136221
								 0.233135 L11.89 119.35 C11.89 119.45 11.94 119.54 12.03 119.58 a0.284928 0.285449 -180 0 0 0.138491
								 0.0352546 Z" class="st2"/>
				</g>
				<g id="shape2136-7" transform="translate(7.94621,-6.82347)">
					<title>Sheet.2136</title>
					<path d="M21.35 126.35 a0.291739 0.292272 0 0 1 -0.141897 -0.0352546 L12.03 121.22 a0.26109 0.261566 0 0 1 -0.141897
								 -0.231998 L11.89 110.77 C11.89 110.68 11.94 110.59 12.03 110.54 a0.29855 0.299096 0 0 1 0.280388
								 -4.26326E-14 L21.49 115.63 C21.57 115.68 21.62 115.77 21.62 115.86 L21.62 126.08 a0.26563 0.266115
								 0 0 1 -0.136221 0.231998 a0.290604 0.291135 0 0 1 -0.137356 0.0352546 ZM21.35 139.8 a0.291739 0.292272
								 0 0 1 -0.141897 -0.0352546 L12.03 134.67 a0.26109 0.261566 0 0 1 -0.141897 -0.231998 L11.89 124.23
								 C11.89 124.13 11.94 124.04 12.03 123.99 a0.29855 0.299096 0 0 1 0.280388 -5.68434E-14 L21.49 129.08
								 C21.57 129.13 21.62 129.22 21.62 129.32 L21.62 139.53 a0.26563 0.266115 0 0 1 -0.136221 0.231998
								 a0.290604 0.291135 0 0 1 -0.137356 0.0352546 ZM9.46 119.62 a0.291739 0.292272 0 0 1 -0.141897 -0.0352546
								 L0.14 114.49 a0.259955 0.260429 0 0 1 -0.140761 -0.231998 L0 104.05 C0 103.95 0.05 103.86 0.14 103.81
								 a0.29855 0.299096 0 0 1 0.280388 -1.42109E-13 L9.59 108.9 C9.68 108.95 9.73 109.04 9.73 109.14 L9.73
								 119.35 a0.26563 0.266115 0 0 1 -0.136221 0.231998 a0.284928 0.285449 0 0 1 -0.138491 0.0352546 ZM9.46
								 133.07 a0.291739 0.292272 0 0 1 -0.141897 -0.0352546 L0.14 127.95 a0.258819 0.259292 0 0 1 -0.140761
								 -0.231998 L0 117.5 C0 117.4 0.05 117.32 0.14 117.27 a0.29855 0.299096 0 0 1 0.280388 5.68434E-14
								 L9.59 122.36 C9.68 122.4 9.73 122.49 9.73 122.59 L9.73 132.81 a0.26563 0.266115 0 0 1 -0.136221
								 0.231998 a0.284928 0.285449 0 0 1 -0.138491 0.0352546 ZM13.44 107.71 a0.269036 0.269527 0 0 1 0.102166
								 -0.0966659 L22.66 102.65 a0.283793 0.284311 0 0 1 0.275847 -0.00227449 L31.96 107.57 a0.256549 0.257017
								 0 0 1 0.135086 0.227449 a0.272441 0.272939 0 0 1 -0.140761 0.226312 L22.84 112.99 a0.290604 0.291135
								 0 0 1 -0.274712 -0.00227449 L13.54 108.06 a0.252008 0.252468 0 0 1 -0.136221 -0.221763 a0.26563
								 0.266115 0 0 1 0.0385959 -0.128509 ZM1.56 101.23 a0.26563 0.266115 0 0 1 0.10103 -0.0966659 L10.67
								 96.17 a0.279252 0.279762 0 0 1 0.273577 -0.00227449 L19.87 101.09 a0.255414 0.25588 0 0 1 0.13395
								 0.227449 a0.270171 0.270664 0 0 1 -0.139626 0.226312 L10.85 106.51 a0.283793 0.284311 0 0 1 -0.271306
								 -0.00227449 L1.65 101.58 a0.255414 0.25588 0 0 1 -0.135086 -0.221763 a0.254279 0.254743 0 0 1 0.0385959
								 -0.128509 ZM25.58 101.34 a0.26563 0.266115 0 0 1 0.10103 -0.0966659 L34.69 96.28 a0.279252 0.279762
								 0 0 1 0.273577 -0.00227449 L43.89 101.2 a0.255414 0.25588 0 0 1 0.13395 0.227449 a0.270171 0.270664
								 0 0 1 -0.139626 0.226312 L34.87 106.61 a0.283793 0.284311 0 0 1 -0.271306 -0.00227449 L25.67 101.69
								 a0.255414 0.25588 0 0 1 -0.135086 -0.221763 a0.258819 0.259292 0 0 1 0.0385959 -0.128509 ZM13.49
								 94.94 a0.274712 0.275213 0 0 1 0.102166 -0.0955286 L22.7 89.97 a0.287199 0.287723 0 0 1 0.275847
								 -0.00227449 L32.01 94.81 a0.249738 0.250194 0 0 1 0.135086 0.2229 a0.267901 0.26839 0 0 1 -0.140761
								 0.2229 L22.88 100.13 a0.297415 0.297958 0 0 1 -0.274712 -0.00227449 L13.58 95.29 a0.247468 0.247919
								 0 0 1 -0.136221 -0.218351 a0.26109 0.261566 0 0 1 0.0385959 -0.126234 Z" class="st3"/>
				</g>
				<g id="shape2137-9" transform="translate(7.94621,-6.82347)">
					<title>Sheet.2137</title>
					<path d="M13.44 107.71 a0.269036 0.269527 0 0 1 0.102166 -0.0966659 L22.66 102.65 a0.283793 0.284311 0 0 1 0.275847
								 -0.00227449 L31.96 107.57 a0.256549 0.257017 0 0 1 0.135086 0.227449 a0.272441 0.272939 0 0 1 -0.140761
								 0.226312 L22.84 112.99 a0.290604 0.291135 0 0 1 -0.274712 -0.00227449 L13.54 108.06 a0.252008 0.252468
								 0 0 1 -0.136221 -0.221763 a0.26563 0.266115 0 0 1 0.0385959 -0.128509 ZM1.56 101.23 a0.26563 0.266115
								 0 0 1 0.10103 -0.0966659 L10.67 96.17 a0.279252 0.279762 0 0 1 0.273577 -0.00227449 L19.87 101.09
								 a0.255414 0.25588 0 0 1 0.13395 0.227449 a0.270171 0.270664 0 0 1 -0.139626 0.226312 L10.85 106.51
								 a0.283793 0.284311 0 0 1 -0.271306 -0.00227449 L1.65 101.58 a0.255414 0.25588 0 0 1 -0.135086 -0.221763
								 a0.254279 0.254743 0 0 1 0.0385959 -0.128509 ZM25.58 101.34 a0.26563 0.266115 0 0 1 0.10103 -0.0966659
								 L34.69 96.28 a0.279252 0.279762 0 0 1 0.273577 -0.00227449 L43.89 101.2 a0.255414 0.25588 0 0 1
								 0.13395 0.227449 a0.270171 0.270664 0 0 1 -0.139626 0.226312 L34.87 106.61 a0.283793 0.284311 0
								 0 1 -0.271306 -0.00227449 L25.67 101.69 a0.255414 0.25588 0 0 1 -0.135086 -0.221763 a0.258819 0.259292
								 0 0 1 0.0385959 -0.128509 ZM13.49 94.94 a0.274712 0.275213 0 0 1 0.102166 -0.0955286 L22.7 89.97
								 a0.287199 0.287723 0 0 1 0.275847 -0.00227449 L32.01 94.81 a0.249738 0.250194 0 0 1 0.135086 0.2229
								 a0.267901 0.26839 0 0 1 -0.140761 0.2229 L22.88 100.13 a0.297415 0.297958 0 0 1 -0.274712 -0.00227449
								 L13.58 95.29 a0.247468 0.247919 0 0 1 -0.136221 -0.218351 a0.26109 0.261566 0 0 1 0.0385959 -0.126234
								 ZM0.14 127.95 L9.32 133.04 a0.290604 0.291135 -180 0 0 0.279252 0 a0.26563 0.266115 -180 0 0 0.136221
								 -0.231998 L9.73 125.11 A8.32763 8.34283 -180 0 0 8.51 125.01 C6.02 125.01 4.16 125.42 2.67 125.74
								 C1.62 125.97 0.79 126.15 0 126.15 L0 127.71 C0 127.81 0.05 127.9 0.14 127.95 ZM21.35 139.8 C21.39
								 139.8 21.44 139.79 21.49 139.76 a0.26563 0.266115 -180 0 0 0.136221 -0.231998 L21.62 131.32 C20.76
								 131.34 19.85 131.35 19.06 131.35 C18 131.35 17.56 131.32 17.37 131.3 C17.11 131.11 16.59 130.39
								 16.24 129.9 C15.34 128.64 14.02 126.79 11.89 125.77 L11.89 134.44 C11.89 134.54 11.94 134.63 12.03
								 134.67 L21.21 139.76 C21.25 139.79 21.3 139.8 21.35 139.8 ZM33.51 134.44 L33.51 133.35 C32.42 133.82
								 31.21 134.34 30.05 134.83 C29.63 131.46 26.2 131.32 25.05 131.27 A11.3631 11.3838 -180 0 0 24.56
								 131.26 C24.34 131.26 24.08 131.27 23.79 131.27 L23.79 139.53 C23.79 139.63 23.84 139.71 23.92 139.76
								 a0.291739 0.292272 -180 0 0 0.279252 0.00113725 L33.37 134.67 a0.259955 0.260429 -180 0 0 0.140761
								 -0.231998 ZM36.96 131.81 C36.66 131.96 36.21 132.16 35.68 132.4 L35.68 132.81 C35.68 132.9 35.73
								 132.99 35.81 133.04 a0.291739 0.292272 -180 0 0 0.279252 -2.84217E-14 L39.84 130.96 A9.11884 9.13549
								 -180 0 0 36.96 131.81 Z" class="st4"/>
				</g>
				<g id="shape2138-11" transform="translate(0.567586,-0.568623)">
					<title>Sheet.2138</title>
					<path d="M20.79 139.8 C17.75 139.8 13.96 136.55 12.48 135.16 A46.7419 46.8272 -180 0 0 11.51 134.26 C9.18 132.22
								 6.79 131.27 3.97 131.27 C1.39 131.27 0 131.26 0 131.26 L0 121.6 L7.38 121.6 C8.35 121.6 9.31 121.4
								 10.41 121.16 C11.82 120.85 13.58 120.47 15.89 120.47 C19.27 120.47 20.92 122.78 22.24 124.64 C22.99
								 125.69 23.64 126.6 24.41 126.72 C24.75 126.78 25.39 126.8 26.42 126.8 C27.45 126.8 28.68 126.78
								 29.72 126.75 A115.141 115.351 0 0 1 31.95 126.71 C32.11 126.71 32.25 126.72 32.35 126.72 C34.7 126.82
								 35.65 127.46 35.76 129 C35.78 129.4 35.74 129.8 35.62 130.18 L35.27 131.34 L36.39 130.87 C38.99
								 129.77 43.59 127.81 45.07 127.09 C46.46 126.42 47.93 126.05 49.21 126.05 C50.57 126.05 51.57 126.47
								 51.95 127.2 C51.97 127.22 53.02 129.3 49.58 131.32 A891.03 892.657 0 0 1 43.6 134.78 C40.61 136.51
								 38.25 137.87 37.17 138.58 C36.16 139.25 34.77 139.34 33.67 139.34 C33.08 139.34 32.47 139.31 31.87
								 139.28 A37.6367 37.7054 -180 0 0 30.08 139.22 C28.62 139.22 26.42 139.39 24.1 139.57 C23.07 139.64
								 22.01 139.73 21 139.79 A3.17508 3.18088 0 0 1 20.79 139.8 Z" class="st5"/>
				</g>
				<g id="shape2139-13" transform="translate(1.13517,-1.13725)">
					<title>Sheet.2139</title>
					<path d="M36.04 131.96 C39.24 130.61 43.35 128.85 44.75 128.17 C46.07 127.54 47.45 127.19 48.65 127.19 C49.77
								 127.19 50.61 127.5 50.89 128.03 C50.91 128.09 51.64 129.69 48.73 131.4 A862.814 864.389 0 0 1 42.76
								 134.86 C39.76 136.59 37.39 137.95 36.29 138.68 C35.41 139.26 34.13 139.34 33.11 139.34 C32.54 139.34
								 31.97 139.31 31.39 139.29 A38.9898 39.061 -180 0 0 29.52 139.22 C28.04 139.22 25.86 139.39 23.55
								 139.56 C22.46 139.64 21.41 139.73 20.4 139.79 L20.22 139.8 C17.3 139.8 13.42 136.36 12.3 135.31
								 C11.87 134.91 11.56 134.62 11.31 134.4 C8.88 132.26 6.36 131.27 3.41 131.27 C1.78 131.27 0.63 131.27
								 0 131.26 L0 122.74 L6.81 122.74 C7.84 122.74 8.82 122.53 9.96 122.28 C11.36 121.98 13.08 121.6 15.32
								 121.6 C18.41 121.6 19.9 123.69 21.21 125.54 C22.03 126.69 22.74 127.69 23.75 127.85 C24.14 127.91
								 24.79 127.94 25.85 127.94 C26.83 127.94 27.99 127.92 28.99 127.89 L29.35 127.89 A105.128 105.32
								 0 0 1 31.38 127.85 C31.54 127.85 31.66 127.85 31.76 127.86 C34.31 127.96 34.57 128.71 34.63 129.6
								 C34.65 129.94 34.61 130.27 34.52 130.58 L33.76 132.63 C33.76 132.63 35.26 132.29 36.04 131.96 Z"
							class="st4"/>
				</g>
				<g id="shape2140-15">
					<title>Sheet.2140</title>
					<path d="M21.35 139.8 C18.38 139.8 14.81 137.03 12.66 135.01 C12.29 134.66 11.96 134.35 11.7 134.12 C9.48 132.18
								 7.21 131.27 4.54 131.27 C1.96 131.27 0.56 131.26 0.56 131.26 a0.567586 0.568623 0 0 1 -0.563046
								 -0.568623 L0 121.03 a0.567586 0.568623 0 0 1 0.567586 -0.568623 L7.95 120.47 C8.86 120.47 9.78 120.26
								 10.86 120.03 C12.3 119.72 14.09 119.33 16.46 119.33 C20.13 119.33 21.94 121.88 23.27 123.74 C23.92
								 124.65 24.53 125.51 25.06 125.59 C25.84 125.72 28.45 125.66 30.36 125.61 C31.51 125.59 32.51 125.57
								 32.94 125.58 C34.81 125.66 36.74 126.06 36.89 128.39 C36.93 128.92 36.86 129.38 36.74 129.78 C39.23
								 128.72 43.91 126.73 45.4 126.01 C48.63 124.45 52.06 124.55 53.03 126.36 C53.34 126.95 53.86 129.24
								 50.44 131.25 A891.686 893.314 0 0 1 44.46 134.71 C41.47 136.43 39.11 137.79 38.05 138.49 C36.56
								 139.48 34.44 139.38 32.38 139.28 C31.79 139.25 31.21 139.22 30.65 139.22 C29.21 139.22 27.03 139.39
								 24.71 139.57 C23.68 139.64 22.62 139.73 21.6 139.79 A4.59518 4.60357 0 0 1 21.35 139.8 ZM1.14 130.13
								 C1.77 130.13 2.92 130.13 4.54 130.13 C7.46 130.13 10.05 131.16 12.45 133.27 C12.72 133.5 13.05 133.82
								 13.43 134.18 C15.38 136 19.02 138.86 21.53 138.66 C22.54 138.59 23.6 138.51 24.63 138.43 C26.96
								 138.25 29.17 138.09 30.65 138.09 C31.23 138.09 31.83 138.11 32.44 138.14 C34.31 138.23 36.24 138.33
								 37.42 137.54 C38.52 136.82 40.89 135.45 43.89 133.72 C45.73 132.67 47.78 131.49 49.86 130.27 C51.58
								 129.26 52.53 127.85 52.02 126.9 C51.42 125.75 48.74 125.66 45.89 127.04 C43.82 128.04 35.91 131.36
								 35.57 131.5 a0.567586 0.568623 0 1 1 -0.584614 -0.959835 C35.02 130.51 35.85 129.78 35.76 128.47
								 C35.69 127.43 35.2 126.82 32.9 126.72 C32.5 126.7 31.52 126.73 30.39 126.75 C28.22 126.8 25.77 126.85
								 24.88 126.72 C23.88 126.55 23.17 125.56 22.35 124.4 C21.1 122.65 19.54 120.47 16.46 120.47 C14.21
								 120.47 12.56 120.83 11.1 121.14 C9.96 121.39 8.98 121.6 7.95 121.6 L1.14 121.6 L1.14 130.13 Z"
							class="st6"/>
				</g>
				<g id="shape2141-17" transform="translate(18.6055,-7.37276)">
					<title>Sheet.2141</title>
					<path d="M8.23 139.8 C5.99 139.8 4.39 139.53 3.49 138.74 L0 135.67 L0.75 134.82 L4.24 137.88 C5.43 138.93 10.57
								 138.54 12.51 138.41 C15.59 138.21 15.91 138.05 17.78 137.3 a0.567586 0.568623 0 0 1 0.42569 1.05423
								 C16.23 139.15 15.77 139.33 12.59 139.54 C11.39 139.62 9.2 139.8 8.23 139.8 Z" class="st6"/>
				</g>
			</g>
		</g>
	</g>
</svg>
