<?xml version="1.0" encoding="UTF-8" standalone="no"?>
<!-- Generated by Microsoft Visio, SVG Export Marketplace.svg Page-1 -->

<svg
   xmlns:dc="http://purl.org/dc/elements/1.1/"
   xmlns:cc="http://creativecommons.org/ns#"
   xmlns:rdf="http://www.w3.org/1999/02/22-rdf-syntax-ns#"
   xmlns:svg="http://www.w3.org/2000/svg"
   xmlns="http://www.w3.org/2000/svg"
   xmlns:sodipodi="http://sodipodi.sourceforge.net/DTD/sodipodi-0.dtd"
   xmlns:inkscape="http://www.inkscape.org/namespaces/inkscape"
   width="0.66930717in"
   height="0.78740793in"
   viewBox="0 0 48.190001 56.693153"
   xml:space="preserve"
   class="st7"
   version="1.1"
   id="svg56"
   sodipodi:docname="Marketplace.svg"
   style="font-size:12px;overflow:visible;color-interpolation-filters:sRGB;fill:none;fill-rule:evenodd;stroke-linecap:square;stroke-miterlimit:3"
   inkscape:version="0.92.5 (2060ec1f9f, 2020-04-08)"><metadata
   id="metadata60"><rdf:RDF><cc:Work
       rdf:about=""><dc:format>image/svg+xml</dc:format><dc:type
         rdf:resource="http://purl.org/dc/dcmitype/StillImage" /></cc:Work></rdf:RDF></metadata><sodipodi:namedview
   pagecolor="#ffffff"
   bordercolor="#666666"
   borderopacity="1"
   objecttolerance="10"
   gridtolerance="10"
   guidetolerance="10"
   inkscape:pageopacity="0"
   inkscape:pageshadow="2"
   inkscape:window-width="640"
   inkscape:window-height="480"
   id="namedview58"
   showgrid="false"
   inkscape:zoom="1.4192873"
   inkscape:cx="32.126077"
   inkscape:cy="37.785824"
   inkscape:window-x="0"
   inkscape:window-y="0"
   inkscape:window-maximized="0"
   inkscape:current-layer="svg56" />
	<style
   type="text/css"
   id="style2">
	<![CDATA[
		.st1 {fill:#50e6ff;stroke:none;stroke-linecap:butt;stroke-width:34}
		.st2 {fill:#9cebff;stroke:none;stroke-linecap:butt;stroke-width:34}
		.st3 {fill:#a3a3a3;stroke:none;stroke-linecap:butt;stroke-width:34}
		.st4 {fill:#767676;stroke:none;stroke-linecap:butt;stroke-width:34}
		.st5 {fill:#32bedd;stroke:none;stroke-linecap:butt;stroke-width:34}
		.st6 {fill:url(#grad0-16);stroke:none;stroke-linecap:butt;stroke-width:34}
		.st7 {fill:none;fill-rule:evenodd;font-size:12px;overflow:visible;stroke-linecap:square;stroke-miterlimit:3}
	]]>
	</style>

	<defs
   id="Patterns_And_Gradients">
		<linearGradient
   id="grad0-16"
   x1="-0.00030712392"
   y1="115.72931"
   x2="26.224394"
   y2="115.72931"
   gradientTransform="scale(1.1382532,0.87853917)"
   gradientUnits="userSpaceOnUse">
			<stop
   offset="0"
   stop-color="#cccccc"
   stop-opacity="1"
   id="stop4" />
			<stop
   offset="0.15"
   stop-color="#dadada"
   stop-opacity="1"
   id="stop6" />
			<stop
   offset="0.44"
   stop-color="#eeeeee"
   stop-opacity="1"
   id="stop8" />
			<stop
   offset="0.725"
   stop-color="#fbfbfb"
   stop-opacity="1"
   id="stop10" />
			<stop
   offset="1"
   stop-color="#ffffff"
   stop-opacity="1"
   id="stop12" />
		</linearGradient>
	</defs>
	<g
   id="g54"
   transform="translate(-34,-34.001156)">
		<title
   id="title16">Page-1</title>
		<g
   id="group3496-1"
   transform="translate(34,-34.0157)">
			<title
   id="title18">Marketplace</title>
			<g
   id="group3497-2">
				<title
   id="title20">Sheet.3497</title>
				<g
   id="shape3498-3"
   transform="translate(40.7745)">
					<title
   id="title22">Sheet.3498</title>
					<path
   d="M 3.37,82.04 H 0 v 42.67 l 3.37,-6.41 z"
   class="st1"
   id="path24"
   inkscape:connector-curvature="0"
   style="fill:#50e6ff;stroke:none;stroke-width:34;stroke-linecap:butt" />
				</g>
				<g
   id="shape3499-5"
   transform="translate(40.7745,-0.0133348)">
					<title
   id="title27">Sheet.3499</title>
					<path
   d="M 3.39,118.25 3.37,118.3 0,124.71 3.37,122.06 7.41,118.89 Z"
   class="st2"
   id="path29"
   inkscape:connector-curvature="0"
   style="fill:#9cebff;stroke:none;stroke-width:34;stroke-linecap:butt" />
				</g>
				<g
   id="shape3500-7"
   transform="translate(20.1403,-42.6914)">
					<title
   id="title32">Sheet.3500</title>
					<path
   d="m 2.55,118.38 a 5.14792,5.24724 0 0 1 5.32,-5.04 5.14138,5.24058 0 0 1 5.31,5.04 v 6.33 h 2.55 v -6.33 a 7.8756,8.02755 -180 0 0 -15.73,0 v 6.33 h 2.55 z"
   class="st3"
   id="path34"
   inkscape:connector-curvature="0"
   style="fill:#a3a3a3;stroke:none;stroke-width:34;stroke-linecap:butt" />
				</g>
				<g
   id="shape3501-9"
   transform="translate(12.3302,-42.6914)">
					<title
   id="title37">Sheet.3501</title>
					<path
   d="m 2.55,118.38 a 5.14138,5.24058 0 0 1 5.3,-5.04 5.14138,5.24058 0 0 1 5.31,5.04 v 6.33 h 2.56 v -6.33 A 7.70553,7.8542 -180 0 0 7.87,110.71 7.70553,7.8542 -180 0 0 0,118.38 v 6.33 h 2.55 z"
   class="st4"
   id="path39"
   inkscape:connector-curvature="0"
   style="fill:#767676;stroke:none;stroke-width:34;stroke-linecap:butt" />
				</g>
				<g
   id="shape3502-11"
   transform="translate(0,-0.0133348)">
					<title
   id="title42">Sheet.3502</title>
					<path
   d="m 40.77,82.05 v 42.66 L 0,121.42 1.24,82.05 Z m 3.38,0 v 36.25 l 4.04,0.59 -1.24,-36.84 z"
   class="st5"
   id="path44"
   inkscape:connector-curvature="0"
   style="fill:#32bedd;stroke:none;stroke-width:34;stroke-linecap:butt" />
				</g>
				<g
   id="shape3503-13"
   transform="translate(5.30164,-10.9645)">
					<title
   id="title47">Sheet.3503</title>
					<path
   d="m 29.85,118.15 a 7.52237,7.66751 -180 0 0 -5.88,-7.27 9.31793,9.49771 -180 0 0 -8.71,-9.18 8.10127,8.25758 -180 0 0 -8.3,5.49 7.52237,7.66751 -180 0 0 -6.96,7.72 8.94508,9.11767 -180 0 0 8.35,8.86 c 0.25,0 0.5,0.03 0.74,0 l 13.61,0.94 a 1.30824,1.33348 -180 0 0 0.36,-0.03 6.42999,6.55406 -180 0 0 6.79,-6.53 z"
   class="st6"
   id="path49"
   inkscape:connector-curvature="0"
   style="fill:url(#grad0-16);stroke:none;stroke-width:34;stroke-linecap:butt" />
				</g>
			</g>
		</g>
	</g>
</svg>