<?xml version="1.0" encoding="UTF-8" standalone="no"?>
<!DOCTYPE svg PUBLIC "-//W3C//DTD SVG 1.1//EN" "http://www.w3.org/Graphics/SVG/1.1/DTD/svg11.dtd">
<!-- Generated by Microsoft Visio, SVG Export Mesh Application.svg Page-1 -->
<svg xmlns="http://www.w3.org/2000/svg" xmlns:xlink="http://www.w3.org/1999/xlink" xmlns:ev="http://www.w3.org/2001/xml-events"
		width="1.73714in" height="2.23352in" viewBox="0 0 125.074 160.813" xml:space="preserve" color-interpolation-filters="sRGB"
		class="st5">
	<style type="text/css">
	<![CDATA[
		.st1 {fill:#e27908;stroke:none;stroke-linecap:butt;stroke-width:33.254}
		.st2 {fill:#f78d1e;stroke:none;stroke-linecap:butt;stroke-width:33.254}
		.st3 {fill:url(#grad0-32);stroke:none;stroke-linecap:butt;stroke-width:33.254}
		.st4 {fill:url(#grad0-36);stroke:none;stroke-linecap:butt;stroke-width:33.254}
		.st5 {fill:none;fill-rule:evenodd;font-size:12px;overflow:visible;stroke-linecap:square;stroke-miterlimit:3}
	]]>
	</style>

	<defs id="Patterns_And_Gradients">
		<linearGradient id="grad0-32" x1="0" y1="0" x2="1" y2="0" gradientTransform="rotate(-90 0.5 0.5)">
			<stop offset="0" stop-color="#e26708" stop-opacity="1"/>
			<stop offset="1" stop-color="#f78d1e" stop-opacity="1"/>
		</linearGradient>
		<linearGradient id="grad0-36" x1="0" y1="0" x2="1" y2="0" gradientTransform="rotate(-90 0.5 0.5)">
			<stop offset="0" stop-color="#e26708" stop-opacity="1"/>
			<stop offset="0.005" stop-color="#e26808" stop-opacity="1"/>
			<stop offset="0.115" stop-color="#ec7912" stop-opacity="1"/>
			<stop offset="0.255" stop-color="#f28419" stop-opacity="1"/>
			<stop offset="0.455" stop-color="#f68b1d" stop-opacity="1"/>
			<stop offset="1" stop-color="#f78d1e" stop-opacity="1"/>
		</linearGradient>
	</defs>
	<g>
		<title>Page-1</title>
		<g id="group1968-1" transform="translate(33.254,-70.8661)">
			<title>Mesh Application</title>
			<g id="shape1969-2" transform="translate(18.1757,-16.3026)">
				<title>path22</title>
				<path d="M11.11 152.06 L2.69 160.48 C2.69 159.8 2.02 159.13 1.68 158.46 C1.35 157.78 1.01 157.78 0.67 157.78 L8.75
							 149.71 L0 140.95 A4.08616 4.08616 -180 0 0 2.36 138.6 L11.11 147.35 L19.86 138.6 C20.2 139.27 20.2 139.61
							 20.87 139.94 A4.64489 4.64489 0 0 1 22.21 140.95 L13.46 149.71 L21.88 158.12 A2.9283 2.9283 -180 0 0
							 19.86 160.81 L11.11 152.06 Z" class="st1"/>
			</g>
			<g id="group1970-4" transform="translate(6.39514,-4.52205)">
				<title>g40</title>
				<g id="shape1971-5" transform="translate(11.1073,0)">
					<title>path24</title>
					<path d="M0 153.41 L7.4 160.81 L7.4 160.48 A5.42577 5.42577 0 0 1 9.09 156.77 L3.03 150.72 A3.56781 3.56781 0
								 0 1 0 153.41 Z" class="st1"/>
				</g>
				<g id="shape1972-7" transform="translate(0,-11.4439)">
					<title>path26</title>
					<path d="M0 153.41 L7.07 160.81 A3.36586 3.36586 0 0 1 9.42 157.78 L3.7 151.73 A5.42577 5.42577 0 0 1 0 153.41
								 Z" class="st1"/>
				</g>
				<g id="shape1973-9" transform="translate(1.00976,-25.9171)">
					<title>path28</title>
					<path d="M6.06 152.4 L0 158.46 A4.88387 4.88387 0 0 1 3.37 160.81 L9.09 155.09 L7.07 154.08 C6.73 153.41 6.4
								 153.07 6.06 152.4 Z" class="st1"/>
				</g>
				<g id="shape1974-11" transform="translate(11.4439,-36.0147)">
					<title>path30</title>
					<path d="M7.07 151.05 L0 158.12 A3.67216 3.67216 0 0 1 2.69 160.81 L8.75 154.75 A4.81318 4.81318 0 0 1 7.07 151.05
								 Z" class="st1"/>
				</g>
				<g id="shape1975-13" transform="translate(25.9171,-36.0147)">
					<title>path32</title>
					<path d="M8.75 158.12 L2.02 151.39 A4.47323 4.47323 0 0 1 -0 154.75 L6.06 160.81 A3.67216 3.67216 0 0 1 8.75
								 158.12 Z" class="st1"/>
				</g>
				<g id="shape1976-15" transform="translate(36.3513,-25.5806)">
					<title>path34</title>
					<path d="M9.09 158.46 L2.69 152.06 A3.67216 3.67216 0 0 1 0 154.75 L6.06 160.81 A3.73947 3.73947 0 0 1 9.09 158.46
								 Z" class="st1"/>
				</g>
				<g id="shape1977-17" transform="translate(36.6879,-11.1073)">
					<title>path36</title>
					<path d="M5.72 151.73 L0 157.45 C0.67 157.78 1.01 157.78 1.35 158.46 A3.0562 3.0562 0 0 1 2.36 160.81 L9.42 153.74
								 A6.73173 6.73172 0 0 1 5.72 151.73 Z" class="st1"/>
				</g>
				<g id="shape1978-19" transform="translate(26.2537,-0.336586)">
					<title>path38</title>
					<path d="M5.72 151.39 L0 157.11 L0.34 157.45 A4.3083 4.3083 0 0 1 1.68 160.81 L8.75 153.74 A3.0562 3.0562 0 0
								 1 6.4 152.74 A2.56479 2.56479 0 0 1 5.72 151.39 Z" class="st1"/>
				</g>
			</g>
			<g id="shape1979-21" transform="translate(12.1171,-34.4782)">
				<title>circle42</title>
				<ellipse cx="5.04879" cy="155.764" rx="5.04879" ry="5.04879" class="st2"/>
			</g>
			<g id="shape1980-23" transform="translate(36.3513,-34.4782)">
				<title>circle44</title>
				<ellipse cx="5.04879" cy="155.764" rx="5.04879" ry="5.04879" class="st2"/>
			</g>
			<g id="shape1981-25" transform="translate(12.1171,-10.244)">
				<title>circle46</title>
				<ellipse cx="5.04879" cy="155.764" rx="5.04879" ry="5.04879" class="st2"/>
			</g>
			<g id="shape1982-27" transform="translate(36.3513,-10.244)">
				<title>circle48</title>
				<ellipse cx="5.04879" cy="155.764" rx="5.04879" ry="5.04879" class="st2"/>
			</g>
			<g id="shape1983-29" transform="translate(0,-22.8879)">
				<title>path50</title>
				<path d="M6.4 149.9 A6.39514 6.39514 0 1 1 0 156.29 A6.39514 6.39514 0 0 1 6.4 149.9 ZM52.17 149.9 A6.39514 6.39514
							 0 1 1 45.78 156.29 A6.39514 6.39514 0 0 1 52.17 149.9 Z" class="st3"/>
			</g>
			<g id="shape1984-33" transform="translate(22.8879,0)">
				<title>path52</title>
				<path d="M6.4 104.12 A6.39514 6.39514 0 1 1 -0 110.52 A6.39514 6.39514 0 0 1 6.4 104.12 ZM6.4 149.9 A6.39514 6.39514
							 0 1 1 0 156.29 A6.39514 6.39514 0 0 1 6.4 149.9 Z" class="st4"/>
			</g>
		</g>
	</g>
</svg>
