<?xml version="1.0" encoding="UTF-8" standalone="no"?>
<!-- Generated by Microsoft Visio, SVG Export Network Interface Effective Route.svg Page-1 -->

<svg
   xmlns:dc="http://purl.org/dc/elements/1.1/"
   xmlns:cc="http://creativecommons.org/ns#"
   xmlns:rdf="http://www.w3.org/1999/02/22-rdf-syntax-ns#"
   xmlns:svg="http://www.w3.org/2000/svg"
   xmlns="http://www.w3.org/2000/svg"
   xmlns:sodipodi="http://sodipodi.sourceforge.net/DTD/sodipodi-0.dtd"
   xmlns:inkscape="http://www.inkscape.org/namespaces/inkscape"
   width="55.172279"
   height="55.172279"
   viewBox="0 0 55.17228 55.17228"
   xml:space="preserve"
   class="st3"
   version="1.1"
   id="svg32"
   sodipodi:docname="Network Interface Effective Route.svg"
   style="font-size:12px;overflow:visible;color-interpolation-filters:sRGB;fill:none;fill-rule:evenodd;stroke-linecap:square;stroke-miterlimit:3"
   inkscape:version="0.92.5 (2060ec1f9f, 2020-04-08)"><metadata
   id="metadata36"><rdf:RDF><cc:Work
       rdf:about=""><dc:format>image/svg+xml</dc:format><dc:type
         rdf:resource="http://purl.org/dc/dcmitype/StillImage" /></cc:Work></rdf:RDF></metadata><sodipodi:namedview
   pagecolor="#ffffff"
   bordercolor="#666666"
   borderopacity="1"
   objecttolerance="10"
   gridtolerance="10"
   guidetolerance="10"
   inkscape:pageopacity="0"
   inkscape:pageshadow="2"
   inkscape:window-width="640"
   inkscape:window-height="480"
   id="namedview34"
   showgrid="false"
   inkscape:zoom="1.9040397"
   inkscape:cx="27.583753"
   inkscape:cy="27.198115"
   inkscape:window-x="0"
   inkscape:window-y="0"
   inkscape:window-maximized="0"
   inkscape:current-layer="svg32" />
	<style
   type="text/css"
   id="style2">
	<![CDATA[
		.st1 {fill:url(#grad0-6);stroke:none;stroke-linecap:butt;stroke-width:34}
		.st2 {fill:#c3f1ff;stroke:none;stroke-linecap:butt;stroke-width:34}
		.st3 {fill:none;fill-rule:evenodd;font-size:12px;overflow:visible;stroke-linecap:square;stroke-miterlimit:3}
	]]>
	</style>

	<defs
   id="Patterns_And_Gradients">
		<linearGradient
   id="grad0-6"
   x1="-2.3023026e-07"
   y1="83.86"
   x2="40.09"
   y2="83.86"
   gradientUnits="userSpaceOnUse">
			<stop
   offset="0"
   stop-color="#0078d4"
   stop-opacity="1"
   id="stop4" />
			<stop
   offset="0.5"
   stop-color="#4093e6"
   stop-opacity="1"
   id="stop6" />
			<stop
   offset="0.775"
   stop-color="#5ea0ef"
   stop-opacity="1"
   id="stop8" />
		</linearGradient>
	</defs>
	<g
   id="g30"
   transform="translate(-34.000746,-33.999335)">
		<title
   id="title12">Page-1</title>
		<g
   id="group2987-1"
   transform="translate(33.2382,-34.0157)">
			<title
   id="title14">Network Interface Effective Route</title>
			<g
   id="group2988-2">
				<title
   id="title16">MsPortalFx.base.images-14</title>
				<g
   id="shape2989-3"
   transform="rotate(-45,14.173239,89.729652)">
					<title
   id="title18">Sheet.2989</title>
					<path
   d="m 0,122.11 a 1.83908,1.83908 -180 0 0 1.84,1.84 h 36.41 a 1.83908,1.83908 -180 0 0 1.84,-1.84 V 85.7 A 1.83908,1.83908 -180 0 0 38.25,83.86 H 1.84 A 1.83908,1.83908 -180 0 0 0,85.7 Z"
   class="st1"
   id="path20"
   inkscape:connector-curvature="0"
   style="fill:url(#grad0-6);stroke:none;stroke-width:34;stroke-linecap:butt" />
				</g>
				<g
   id="shape2990-7"
   transform="translate(19.0593,-10.6229)">
					<title
   id="title23">Sheet.2990</title>
					<path
   d="m 26.85,105.41 -5.19,-4.68 c -0.71,-0.7 -1.02,-0.52 -1.02,0.53 v 2.07 A 0.652858,0.652858 0 0 1 19.987142,103.97979 7.3868,7.3868 0 0 1 12.17,99.42 V 89.73 A 0.891933,0.891933 -180 0 0 11.278067,88.838067 L 6.81,88.84 A 0.891933,0.891933 -180 0 0 5.918067,89.731933 L 5.92,114.19 a 0.438304,0.438304 0 0 1 -0.438304,0.4383 L 0.4,114.63 a 0.441369,0.441369 -180 0 0 -0.306506,0.75094 L 8.35,123.66 a 0.98082,0.98082 -180 0 0 1.39154,0 L 18.02,115.4 a 0.441369,0.441369 -180 0 0 -0.306506,-0.75094 L 12.61,114.65 a 0.438304,0.438304 0 0 1 -0.438304,-0.45363 L 12.17,105.97 a 13.5997,13.5997 -180 0 0 7.81,2.14 0.640598,0.640598 0 0 1 0.655923,0.64673 L 20.64,111 c 0,0.88 0.47,1.07 1.02,0.53 l 5.19,-5.05 a 0.646728,0.646728 -180 0 0 0,-1.06971 z"
   class="st2"
   id="path25"
   inkscape:connector-curvature="0"
   style="fill:#c3f1ff;stroke:none;stroke-width:34;stroke-linecap:butt" />
				</g>
			</g>
		</g>
	</g>
</svg>