<?xml version="1.0" encoding="UTF-8" standalone="no"?>
<!DOCTYPE svg PUBLIC "-//W3C//DTD SVG 1.1//EN" "http://www.w3.org/Graphics/SVG/1.1/DTD/svg11.dtd">
<!-- Generated by Microsoft Visio, SVG Export Notification Hub.svg Page-1 -->
<svg xmlns="http://www.w3.org/2000/svg" xmlns:xlink="http://www.w3.org/1999/xlink" xmlns:ev="http://www.w3.org/2001/xml-events"
		width="1.71638in" height="1.60623in" viewBox="0 0 123.58 115.648" xml:space="preserve" color-interpolation-filters="sRGB"
		class="st4">
	<style type="text/css">
	<![CDATA[
		.st1 {fill:url(#grad0-6);stroke:none;stroke-linecap:butt;stroke-width:33.4434}
		.st2 {fill:#ffe452;stroke:none;stroke-linecap:butt;stroke-width:33.4434}
		.st3 {fill:#ffffff;stroke:none;stroke-linecap:butt;stroke-width:33.4434}
		.st4 {fill:none;fill-rule:evenodd;font-size:12px;overflow:visible;stroke-linecap:square;stroke-miterlimit:3}
	]]>
	</style>

	<defs id="Patterns_And_Gradients">
		<linearGradient id="grad0-6" x1="0" y1="0" x2="1" y2="0" gradientTransform="rotate(90 0.5 0.5)">
			<stop offset="0" stop-color="#ffd70f" stop-opacity="1"/>
			<stop offset="0.34" stop-color="#eeb309" stop-opacity="1"/>
			<stop offset="0.77" stop-color="#dc8c03" stop-opacity="1"/>
			<stop offset="1" stop-color="#d57d01" stop-opacity="1"/>
		</linearGradient>
	</defs>
	<g>
		<title>Page-1</title>
		<g id="group2784-1" transform="translate(33.4434,-34.0157)">
			<title>Notification Hub</title>
			<g id="group2785-2">
				<title>g21</title>
				<g id="shape2786-3">
					<title>path15</title>
					<path d="M56.69 69.44 L56.69 106.37 A1.93423 1.97816 0 0 1 54.73 108.35 L39.65 108.35 a0.466883 0.477488 -180
								 0 0 -0.466883 0.477488 L39.18 114.8 a0.933766 0.954975 0 0 1 -1.50069 0.750338 L28.61 108.46 L28.31
								 108.46 L1.97 108.46 A1.93423 1.97816 0 0 1 -0 106.48 L0 69.44 A1.93423 1.97816 0 0 1 1.97 67.46
								 L54.73 67.46 A1.93423 1.97816 0 0 1 56.69 69.44 Z" class="st1"/>
				</g>
				<g id="shape2787-7" transform="translate(4.92383,-15.3264)">
					<title>path17</title>
					<path d="M0.25 106.93 L10.25 115.53 a0.967114 0.989082 -180 0 0 1.56739 -0.750338 L11.82 111.03 L51.7 111.03
								 L51.7 105.23 L0.85 105.23 a0.967114 0.989082 -180 0 0 -0.600278 1.70531 Z" class="st2"/>
				</g>
				<g id="shape2788-9" transform="translate(2.79776E-13,-30.863)">
					<title>path19</title>
					<path d="M52.49 113.81 L42.12 105.21 a0.967114 0.989082 -180 0 0 -1.56739 0.750338 L40.55 109.71 L0 109.71 L0
								 115.65 L51.89 115.65 a0.967114 0.989082 -180 0 0 0.600278 -1.84174 Z" class="st3"/>
				</g>
			</g>
		</g>
	</g>
</svg>
