<?xml version="1.0" encoding="UTF-8" standalone="no"?>
<!DOCTYPE svg PUBLIC "-//W3C//DTD SVG 1.1//EN" "http://www.w3.org/Graphics/SVG/1.1/DTD/svg11.dtd">
<!-- Generated by Microsoft Visio, SVG Export O365 - Access.svg Page-1 -->
<svg xmlns="http://www.w3.org/2000/svg" xmlns:xlink="http://www.w3.org/1999/xlink" xmlns:ev="http://www.w3.org/2001/xml-events"
		width="1.27938in" height="1.50583in" viewBox="0 0 92.1156 108.42" xml:space="preserve" color-interpolation-filters="sRGB"
		class="st9">
	<style type="text/css">
	<![CDATA[
		.st1 {fill:#881421;stroke:none;stroke-linecap:butt;stroke-width:17.7113}
		.st2 {fill:#af2031;stroke:none;stroke-linecap:butt;stroke-width:17.7113}
		.st3 {fill:#c94f60;stroke:none;stroke-linecap:butt;stroke-width:17.7113}
		.st4 {fill:#e08095;stroke:none;stroke-linecap:butt;stroke-width:17.7113}
		.st5 {fill:none;stroke:none;stroke-linecap:butt;stroke-width:17.7113}
		.st6 {fill:#000000;fill-opacity:0.098;stroke:none;stroke-linecap:butt;stroke-width:17.7113}
		.st7 {fill:#000000;fill-opacity:0.2;stroke:none;stroke-linecap:butt;stroke-width:17.7113}
		.st8 {fill:#ffffff;stroke:none;stroke-linecap:butt;stroke-width:17.7113}
		.st9 {fill:none;fill-rule:evenodd;font-size:12px;overflow:visible;stroke-linecap:square;stroke-miterlimit:3}
	]]>
	</style>

	<g>
		<title>Page-1</title>
		<g id="group2628-1" transform="translate(17.7113,-34.0157)">
			<title>O365 - Access</title>
			<g id="shape2629-2" transform="translate(14.1732,-1.77165)">
				<title>path4-1</title>
				<path d="M0 88.05 L0 102.22 C0 105.64 9.52 108.42 21.26 108.42 C33 108.42 42.52 105.64 42.52 102.22 L42.52 88.05
							 L0 88.05 Z" class="st1"/>
			</g>
			<g id="shape2630-4" transform="translate(14.1732,-14.1732)">
				<title>path6-5</title>
				<path d="M0 88.05 L0 102.22 C0 105.64 9.52 108.42 21.26 108.42 C33 108.42 42.52 105.64 42.52 102.22 L42.52 88.05
							 L0 88.05 Z" class="st2"/>
			</g>
			<g id="shape2631-6" transform="translate(14.1732,-28.3465)">
				<title>path8</title>
				<path d="M0 88.05 L0 102.22 C0 105.64 9.52 108.42 21.26 108.42 C33 108.42 42.52 105.64 42.52 102.22 L42.52 88.05
							 L0 88.05 Z" class="st3"/>
			</g>
			<g id="shape2632-8" transform="translate(14.1732,-42.5197)">
				<title>ellipse10</title>
				<ellipse cx="21.2598" cy="102.219" rx="21.2598" ry="6.20079" class="st4"/>
			</g>
			<g id="shape2633-10">
				<title>rect12</title>
				<rect x="0" y="51.7271" width="56.6929" height="56.6929" class="st5"/>
			</g>
			<g id="shape2634-12" transform="translate(14.1732,-10.6299)">
				<title>path14</title>
				<path d="M15.35 74.76 L0 74.76 L0 108.42 L15.35 108.42 A2.3687 2.3687 -180 0 0 17.72 106.06 L17.72 77.12 A2.3687
							 2.3687 -180 0 0 15.35 74.76 Z" class="st6"/>
			</g>
			<g id="shape2635-14" transform="translate(14.1732,-8.85826)">
				<title>path16</title>
				<path d="M13.58 74.76 L0 74.76 L0 108.42 L13.58 108.42 A2.3687 2.3687 -180 0 0 15.94 106.06 L15.94 77.12 A2.3687
							 2.3687 -180 0 0 13.58 74.76 Z" class="st7"/>
			</g>
			<g id="shape2636-16" transform="translate(14.1732,-12.4016)">
				<title>path18</title>
				<path d="M13.58 78.3 L0 78.3 L0 108.42 L13.58 108.42 A2.3687 2.3687 -180 0 0 15.94 106.06 L15.94 80.66 A2.3687 2.3687
							 -180 0 0 13.58 78.3 Z" class="st7"/>
			</g>
			<g id="shape2637-18" transform="translate(14.1732,-12.4016)">
				<title>path20</title>
				<path d="M11.81 78.3 L0 78.3 L0 108.42 L11.81 108.42 A2.3687 2.3687 -180 0 0 14.17 106.06 L14.17 80.66 A2.3687 2.3687
							 -180 0 0 11.81 78.3 Z" class="st7"/>
			</g>
			<g id="shape2638-20" transform="translate(0,-14.1732)">
				<title>rect22</title>
				<path d="M0 106.06 A2.36167 2.36167 -180 0 0 2.36 108.42 L25.98 108.42 A2.36167 2.36167 -180 0 0 28.35 106.06 L28.35
							 82.44 A2.36167 2.36167 -180 0 0 25.98 80.07 L2.36 80.07 A2.36167 2.36167 -180 0 0 0 82.44 L0 106.06
							 Z" class="st2"/>
			</g>
			<g id="shape2639-22" transform="translate(5.66929,-19.4882)">
				<title>path24</title>
				<path d="M6.56 90.7 L10.56 90.7 L17.01 108.42 L13.22 108.42 L11.8 104.19 L5.16 104.19 L3.77 108.42 L0 108.42 L6.56
							 90.7 ZM10.95 101.46 L8.88 95.05 A8.23287 8.23287 0 0 1 8.5 93.61 L8.42 93.61 A8.30197 8.30197 0 0 1
							 8.05 95.09 L5.97 101.47 L10.95 101.46 Z" class="st8"/>
			</g>
		</g>
	</g>
</svg>
