<?xml version="1.0" encoding="UTF-8" standalone="no"?>
<!DOCTYPE svg PUBLIC "-//W3C//DTD SVG 1.1//EN" "http://www.w3.org/Graphics/SVG/1.1/DTD/svg11.dtd">
<!-- Generated by Microsoft Visio, SVG Export O365 - API Yammer.svg Page-1 -->
<svg xmlns="http://www.w3.org/2000/svg" xmlns:xlink="http://www.w3.org/1999/xlink" xmlns:ev="http://www.w3.org/2001/xml-events"
		width="1.5748in" height="1.85039in" viewBox="0 0 113.386 133.228" xml:space="preserve" color-interpolation-filters="sRGB"
		class="st5">
	<style type="text/css">
	<![CDATA[
		.st1 {fill:#0092bd;stroke:none;stroke-width:0.75}
		.st2 {fill:#ffffff;stroke:none;stroke-width:1}
		.st3 {fill:none}
		.st4 {stroke:none;stroke-width:0.75}
		.st5 {fill:none;fill-rule:evenodd;font-size:12px;overflow:visible;stroke-linecap:square;stroke-miterlimit:3}
	]]>
	</style>

	<g>
		<title>Page-1</title>
		<g id="group1758-1" transform="translate(28.3465,-70.8661)">
			<title>O365 - API Yammer</title>
			<desc>This package will provide stencils to visually represent Power Platform: Power Bi, Power Apps, Power Virtual Agents and/or Power Automate devices, architectures or solutions diagrams. It will provide stencils to visually represent features, systems, processes and architectures that use these technologies.</desc>
			<g id="group1759-2">
				<title>Page-1</title>
				<g id="group1760-3">
					<title>Power Automate API: Yammer</title>
					<g id="group1761-4">
						<title>rect5099.2962</title>
						<g id="shape1762-5">
							<title>Sheet.1762</title>
							<rect x="0" y="76.5354" width="56.6929" height="56.6929" class="st1"/>
						</g>
					</g>
					<g id="group1763-7" transform="translate(12.4277,-13.7371)">
						<title>path5115.2963</title>
						<g id="shape1764-8">
							<title>Sheet.1764</title>
							<path d="M33.37 117.39 L33.09 117.39 C31.69 117.39 22.2 118.5 22.63 119.46 C23.04 120.44 29.05 120.85
										 33.23 120.85 A1.81529 1.80728 -180 0 0 33.37 117.39 ZM30.16 127.52 C26.39 125.45 21.08 123.08
										 20.11 123.63 C19.13 124.19 27.09 129.76 28.34 130.45 L28.49 130.45 A1.81529 1.80728 -180
										 0 0 30.02 127.39 L30.16 127.52 ZM30.02 110.7 A1.81529 1.80728 -180 0 0 28.49 107.65 L28.34
										 107.65 C27.23 108.35 19.27 113.77 20.11 114.46 C20.95 115.16 26.39 112.94 30.02 110.85 L30.02
										 110.7 ZM7.82 125.45 C6.7 128.5 5.73 130.04 3.35 130.04 L2.23 130.04 A1.67566 1.66826 -180
										 0 0 1.68 133.23 L3.5 133.23 C7.82 133.23 9.21 130.73 10.61 127.11 L19 106.26 A1.81529 1.80728
										 -180 0 0 15.63 105.14 L9.92 120.85 L9.77 120.85 L3.5 105.14 A1.95493 1.9463 -180 0 0 -0
										 106.53 L7.82 125.45 Z" class="st2"/>
						</g>
						<g id="shape1765-10">
							<title>Sheet.1765</title>
							<path d="M33.37 117.39 L33.09 117.39 C31.69 117.39 22.2 118.5 22.63 119.46 C23.04 120.44 29.05 120.85
										 33.23 120.85 A1.81529 1.80728 -180 0 0 33.37 117.39 ZM30.16 127.52 C26.39 125.45 21.08 123.08
										 20.11 123.63 C19.13 124.19 27.09 129.76 28.34 130.45 L28.49 130.45 A1.81529 1.80728 -180
										 0 0 30.02 127.39 L30.16 127.52 ZM30.02 110.7 A1.81529 1.80728 -180 0 0 28.49 107.65 L28.34
										 107.65 C27.23 108.35 19.27 113.77 20.11 114.46 C20.95 115.16 26.39 112.94 30.02 110.85 L30.02
										 110.7 ZM7.82 125.45 C6.7 128.5 5.73 130.04 3.35 130.04 L2.23 130.04 A1.67566 1.66826 -180
										 0 0 1.68 133.23 L3.5 133.23 C7.82 133.23 9.21 130.73 10.61 127.11 L19 106.26 A1.81529 1.80728
										 -180 0 0 15.63 105.14 L9.92 120.85 L9.77 120.85 L3.5 105.14 A1.95493 1.9463 -180 0 0 -0
										 106.53 L7.82 125.45 Z" class="st3"/>
							<path d="M33.37 117.39 L33.09 117.39 C31.69 117.39 22.2 118.5 22.63 119.46 C23.04 120.44 29.05 120.85
										 33.23 120.85 A1.81529 1.80728 -180 0 0 33.37 117.39M30.16 127.52 C26.39 125.45 21.08 123.08
										 20.11 123.63 C19.13 124.19 27.09 129.76 28.34 130.45 L28.49 130.45 A1.81529 1.80728 -180
										 0 0 30.02 127.39M30.02 110.7 A1.81529 1.80728 -180 0 0 28.49 107.65 L28.34 107.65 C27.23
										 108.35 19.27 113.77 20.11 114.46 C20.95 115.16 26.39 112.94 30.02 110.85 L30.02 110.7M7.82
										 125.45 C6.7 128.5 5.73 130.04 3.35 130.04 L2.23 130.04 A1.67566 1.66826 -180 0 0 1.68 133.23
										 L3.5 133.23 C7.82 133.23 9.21 130.73 10.61 127.11 L19 106.26 A1.81529 1.80728 -180 0 0 15.63
										 105.14 L9.92 120.85 L9.77 120.85 L3.5 105.14 A1.95493 1.9463 -180 0 0 -0 106.53 L7.82 125.45"
									class="st4"/>
						</g>
					</g>
				</g>
			</g>
		</g>
	</g>
</svg>
