<?xml version="1.0" encoding="UTF-8" standalone="no"?>
<!DOCTYPE svg PUBLIC "-//W3C//DTD SVG 1.1//EN" "http://www.w3.org/Graphics/SVG/1.1/DTD/svg11.dtd">
<!-- Generated by Microsoft Visio, SVG Export O365 - API Dropbox.svg Page-1 -->
<svg xmlns="http://www.w3.org/2000/svg" xmlns:xlink="http://www.w3.org/1999/xlink" xmlns:ev="http://www.w3.org/2001/xml-events"
		width="1.5748in" height="1.85039in" viewBox="0 0 113.386 133.228" xml:space="preserve" color-interpolation-filters="sRGB"
		class="st3">
	<style type="text/css">
	<![CDATA[
		.st1 {fill:#007ee5;stroke:none;stroke-width:0.75}
		.st2 {fill:#ffffff;stroke:none;stroke-width:0.75}
		.st3 {fill:none;fill-rule:evenodd;font-size:12px;overflow:visible;stroke-linecap:square;stroke-miterlimit:3}
	]]>
	</style>

	<g>
		<title>Page-1</title>
		<g id="group1838-1" transform="translate(28.3465,-70.8661)">
			<title>O365 - API Dropbox</title>
			<g id="group1839-2">
				<title>Page-1</title>
				<g id="group1840-3">
					<title>Power Automate API: Dropbox</title>
					<g id="group1841-4">
						<title>rect5928</title>
						<g id="shape1842-5">
							<title>Sheet.1842</title>
							<rect x="0" y="76.5354" width="56.6929" height="56.6929" class="st1"/>
						</g>
					</g>
					<g id="group1843-7" transform="translate(7.6155,-31.7932)">
						<title>polygon5930</title>
						<g id="shape1844-8">
							<title>Sheet.1844</title>
							<path d="M21.16 125.5 L12.45 118.24 L0 126.34 L8.58 133.23 L21.16 125.5 Z" class="st2"/>
						</g>
					</g>
					<g id="group1845-10" transform="translate(7.6155,-16.804)">
						<title>polygon5932</title>
						<g id="shape1846-11">
							<title>Sheet.1846</title>
							<path d="M8.58 118.24 L0 125.13 L12.45 133.23 L21.16 125.98 L8.58 118.24 Z" class="st2"/>
						</g>
					</g>
					<g id="group1847-13" transform="translate(28.7696,-16.804)">
						<title>polygon5934</title>
						<g id="shape1848-14">
							<title>Sheet.1848</title>
							<path d="M12.58 118.24 L0 125.98 L8.7 133.23 L21.16 125.13 L12.58 118.24 Z" class="st2"/>
						</g>
					</g>
					<g id="group1849-16" transform="translate(28.7696,-31.7932)">
						<title>polygon5936</title>
						<g id="shape1850-17">
							<title>Sheet.1850</title>
							<path d="M12.58 133.23 L21.16 126.34 L8.7 118.24 L0 125.5 L12.58 133.23 Z" class="st2"/>
						</g>
					</g>
					<g id="group1851-19" transform="translate(16.3189,-7.49613)">
						<title>polygon5938</title>
						<g id="shape1852-20">
							<title>Sheet.1852</title>
							<path d="M0 125.74 L12.45 133.23 L24.9 125.74 L24.9 123.08 L21.28 125.5 L12.45 118.24 L3.75 125.5 L0
										 123.08 L0 125.74 Z" class="st2"/>
						</g>
					</g>
				</g>
			</g>
		</g>
	</g>
</svg>
