<?xml version="1.0" encoding="UTF-8" standalone="no"?>
<!DOCTYPE svg PUBLIC "-//W3C//DTD SVG 1.1//EN" "http://www.w3.org/Graphics/SVG/1.1/DTD/svg11.dtd">
<!-- Generated by Microsoft Visio, SVG Export O365 - Yammer.svg Page-1 -->
<svg xmlns="http://www.w3.org/2000/svg" xmlns:xlink="http://www.w3.org/1999/xlink" xmlns:ev="http://www.w3.org/2001/xml-events"
		width="1.5748in" height="2.02327in" viewBox="0 0 113.386 145.676" xml:space="preserve" color-interpolation-filters="sRGB"
		class="st8">
	<style type="text/css">
	<![CDATA[
		.st1 {fill:#28a8ea;stroke:none;stroke-linecap:butt;stroke-width:18.1165}
		.st2 {fill:#0078d4;stroke:none;stroke-linecap:butt;stroke-width:18.1165}
		.st3 {fill:#0358a7;stroke:none;stroke-linecap:butt;stroke-width:18.1165}
		.st4 {fill:#000000;fill-opacity:0.098;stroke:none;stroke-linecap:butt;stroke-width:18.1165}
		.st5 {fill:#000000;fill-opacity:0.2;stroke:none;stroke-linecap:butt;stroke-width:18.1165}
		.st6 {fill:#ffffff;stroke:none;stroke-linecap:butt;stroke-width:18.1165}
		.st7 {fill:none;stroke:none;stroke-linecap:butt;stroke-width:18.1165}
		.st8 {fill:none;fill-rule:evenodd;font-size:12px;overflow:visible;stroke-linecap:square;stroke-miterlimit:3}
	]]>
	</style>

	<g>
		<title>Page-1</title>
		<g id="group1519-1" transform="translate(28.3465,-70.8661)">
			<title>O365 - Yammer</title>
			<g id="group1520-2">
				<title>g22</title>
				<g id="shape1521-3" transform="translate(20.2669,-28.3465)">
					<title>path2</title>
					<path d="M0.2 134.54 a0.737008 0.737008 0 0 1 -0.100984 -0.875197 a0.726378 0.726378 0 0 1 0.113386 -0.147047
								 L15.32 118.39 A1.47756 1.47756 0 0 1 17.45 118.43 A40.0748 40.0748 0 0 1 26.75 135.35 L17.61 145.68
								 L4.01 141.42 A16.4037 16.4037 -180 0 0 0.2 134.54 L0.2 134.54 Z" class="st1"/>
				</g>
				<g id="shape1522-5" transform="translate(24.2717,-12.3325)">
					<title>path4</title>
					<path d="M29.99 118.96 A1.47402 1.47402 -180 0 0 28.17 117.88 L0 125.4 A16.6163 16.6163 0 0 1 0.01 133.97 L9.4
								 145.68 L22.77 140.09 L28.16 141.54 A1.47402 1.47402 -180 0 0 29.98 140.46 A47.6008 47.6008 -180
								 0 0 29.99 118.96 Z" class="st2"/>
				</g>
				<g id="shape1523-7" transform="translate(20.2973,-0.628414)">
					<title>path6</title>
					<path d="M3.98 122.27 A16.4091 16.4091 0 0 1 0.21 129.13 a0.73878 0.73878 -180 0 0 0.0106299 1.03465 L15.32 145.24
								 A1.47756 1.47756 -180 0 0 17.45 145.2 A39.9508 39.9508 -180 0 0 26.75 128.39 L3.98 122.27 Z"
							class="st3"/>
				</g>
				<g id="shape1524-9" transform="translate(20.2669,-10.6299)">
					<title>path8</title>
					<path d="M11.62 143.31 L11.62 114.38 A2.3687 2.3687 -180 0 0 9.26 112.01 L3.96 112.01 L0.21 115.77 a0.722835
								 0.722835 -180 0 0 -0.113386 0.145276 a0.737008 0.737008 -180 0 0 0.100984 0.875197 A16.4037 16.4037
								 0 0 1 4.01 123.66 L4.01 123.66 L4 123.66 A16.6217 16.6217 0 0 1 4.01 132.23 A16.3346 16.3346 0 0
								 1 3.27 134.37 A16.4356 16.4356 0 0 1 0.24 139.09 a0.73878 0.73878 -180 0 0 0.0106299 1.03465 L5.8
								 145.68 L9.26 145.68 A2.3687 2.3687 -180 0 0 11.62 143.31 Z" class="st4"/>
				</g>
				<g id="shape1525-11" transform="translate(20.2669,-8.86004)">
					<title>path10</title>
					<path d="M9.85 143.32 L9.85 114.38 A2.3687 2.3687 -180 0 0 7.49 112.02 L2.19 112.02 L0.21 114 a0.722835 0.722835
								 -180 0 0 -0.113386 0.145276 a0.737008 0.737008 -180 0 0 0.100984 0.875197 A16.4037 16.4037 0 0 1
								 4.01 121.89 L4.01 121.89 L4 121.89 A16.6217 16.6217 0 0 1 4.01 130.46 A16.3346 16.3346 0 0 1 3.27
								 132.6 A16.4356 16.4356 0 0 1 0.24 137.32 a0.73878 0.73878 -180 0 0 0.0106299 1.03465 L7.58 145.68
								 A2.3687 2.3687 -180 0 0 9.85 143.32 Z" class="st5"/>
				</g>
				<g id="shape1526-13" transform="translate(20.2669,-12.4016)">
					<title>path12</title>
					<path d="M9.85 143.31 L9.85 117.92 A2.3687 2.3687 -180 0 0 7.49 115.56 L2.19 115.56 L0.21 117.54 a0.722835 0.722835
								 -180 0 0 -0.113386 0.145276 a0.737008 0.737008 -180 0 0 0.100984 0.875197 A16.4037 16.4037 0 0 1
								 4.01 125.43 L4.01 125.43 L4 125.44 A16.6217 16.6217 0 0 1 4.01 134 A16.3346 16.3346 0 0 1 3.27 136.14
								 A16.4356 16.4356 0 0 1 0.24 140.87 a0.73878 0.73878 -180 0 0 0.0106299 1.03465 L4.03 145.68 L7.49
								 145.68 A2.3687 2.3687 -180 0 0 9.85 143.31 Z" class="st5"/>
				</g>
				<g id="shape1527-15" transform="translate(20.2669,-12.4016)">
					<title>path14</title>
					<path d="M8.08 143.31 L8.08 117.92 A2.3687 2.3687 -180 0 0 5.72 115.56 L2.19 115.56 L0.21 117.54 a0.722835 0.722835
								 -180 0 0 -0.113386 0.145276 a0.737008 0.737008 -180 0 0 0.100984 0.875197 A16.4037 16.4037 0 0 1
								 4.01 125.43 L4.01 125.43 L4 125.44 A16.6217 16.6217 0 0 1 4.01 134 A16.3346 16.3346 0 0 1 3.27 136.14
								 A16.4356 16.4356 0 0 1 0.24 140.87 a0.73878 0.73878 -180 0 0 0.0106299 1.03465 L4.03 145.68 L5.72
								 145.68 A2.3687 2.3687 -180 0 0 8.08 143.31 Z" class="st5"/>
				</g>
				<g id="shape1528-17" transform="translate(0,-14.1732)">
					<title>path16</title>
					<path d="M2.36 117.33 L25.98 117.33 A2.36161 2.36161 0 0 1 28.35 119.69 L28.35 143.31 A2.36161 2.36161 0 0 1
								 25.98 145.68 L2.36 145.68 A2.36161 2.36161 0 0 1 0 143.31 L0 119.69 A2.36161 2.36161 0 0 1 2.36
								 117.33 Z" class="st2"/>
				</g>
				<g id="shape1529-19" transform="translate(7.31693,-19.4882)">
					<title>path18</title>
					<path d="M6.55 135.52 A5.95453 5.95453 0 0 1 6.94 136.58 L6.98 136.58 A5.03858 5.03858 0 0 1 7.36 135.55 L10.95
								 128.8 A1.57677 1.57677 0 0 1 12.34 127.96 A1.57677 1.57677 0 0 1 13.7 130.32 L8.75 138.95 A1.57677
								 1.57677 -180 0 0 8.54 139.73 L8.54 144.1 A1.57677 1.57677 0 0 1 6.96 145.68 L6.64 145.68 A1.57677
								 1.57677 0 0 1 5.07 144.1 L5.07 139.78 A1.57677 1.57677 -180 0 0 4.86 139.02 L0 130.3 A1.57677 1.57677
								 0 0 1 1.37 127.96 L1.68 127.96 A1.57677 1.57677 0 0 1 3.08 128.81 L6.55 135.52 Z" class="st6"/>
				</g>
				<g id="shape1530-21">
					<title>path20</title>
					<rect x="0" y="88.9827" width="56.6929" height="56.6929" class="st7"/>
				</g>
			</g>
		</g>
	</g>
</svg>
