<?xml version="1.0" encoding="UTF-8" standalone="no"?>
<!DOCTYPE svg PUBLIC "-//W3C//DTD SVG 1.1//EN" "http://www.w3.org/Graphics/SVG/1.1/DTD/svg11.dtd">
<!-- Generated by Microsoft Visio, SVG Export O365 - Teams.svg Page-1 -->
<svg xmlns="http://www.w3.org/2000/svg" xmlns:xlink="http://www.w3.org/1999/xlink" xmlns:ev="http://www.w3.org/2001/xml-events"
		width="1.5748in" height="2.02665in" viewBox="0 0 113.386 145.919" xml:space="preserve" color-interpolation-filters="sRGB"
		class="st8">
	<style type="text/css">
	<![CDATA[
		.st1 {fill:#7b83eb;stroke:none;stroke-linecap:butt;stroke-width:18.3596}
		.st2 {fill:#000000;fill-opacity:0.098;stroke:none;stroke-linecap:butt;stroke-width:18.3596}
		.st3 {fill:#000000;fill-opacity:0.2;stroke:none;stroke-linecap:butt;stroke-width:18.3596}
		.st4 {fill:#5059c9;stroke:none;stroke-linecap:butt;stroke-width:18.3596}
		.st5 {fill:#4b53bc;stroke:none;stroke-linecap:butt;stroke-width:18.3596}
		.st6 {fill:#ffffff;stroke:none;stroke-linecap:butt;stroke-width:18.3596}
		.st7 {fill:none;stroke:none;stroke-linecap:butt;stroke-width:18.3596}
		.st8 {fill:none;fill-rule:evenodd;font-size:12px;overflow:visible;stroke-linecap:square;stroke-miterlimit:3}
	]]>
	</style>

	<g>
		<title>Page-1</title>
		<g id="group1543-1" transform="translate(28.3465,-70.8661)">
			<title>O365 - Teams</title>
			<g id="group1544-2">
				<title>g30</title>
				<g id="shape1545-3" transform="translate(21.8498,-37.7947)">
					<title>circle2</title>
					<ellipse cx="8.26831" cy="137.65" rx="8.26831" ry="8.26831" class="st1"/>
				</g>
				<g id="shape1546-5" transform="translate(22.0394,-37.986)">
					<title>path4</title>
					<path d="M7.49 139.61 L0 139.61 L0.04 139.78 L0.04 139.79 L0.08 139.94 A8.27539 8.27539 -180 0 0 9.85 145.92
								 L9.85 141.97 A2.3687 2.3687 -180 0 0 7.49 139.61 Z" class="st2"/>
				</g>
				<g id="shape1547-7" transform="translate(22.647,-37.7947)">
					<title>path6</title>
					<path d="M5.11 141.19 L0 141.19 A8.26831 8.26831 -180 0 0 7.47 145.92 L7.47 143.56 A2.3687 2.3687 -180 0 0 5.11
								 141.19 Z" class="st3"/>
				</g>
				<g id="shape1548-9" transform="translate(42.5197,-37.2047)">
					<title>circle8</title>
					<ellipse cx="6.20079" cy="139.718" rx="6.20079" ry="6.20079" class="st4"/>
				</g>
				<g id="shape1549-11" transform="translate(38.9746,-10.924)">
					<title>path10</title>
					<path d="M15.06 121.41 L1.13 121.41 A1.13386 1.13386 -180 0 0 -0 122.54 L0 136.91 A9.07264 9.07264 -180 0 0 7.03
								 145.92 A8.8689 8.8689 -180 0 0 17.72 137.24 L17.72 124.07 A2.65748 2.65748 -180 0 0 15.06 121.41
								 Z" class="st4"/>
				</g>
				<g id="shape1550-13" transform="translate(15.9449,-2.25576)">
					<title>path12</title>
					<path d="M28.35 115.4 L28.35 132.23 A14.1644 14.1644 0 0 1 1.91 139.32 A12.7081 12.7081 0 0 1 1.03 137.54 A14.8234
								 14.8234 0 0 1 0.44 135.77 A14.5984 14.5984 0 0 1 0 132.23 L0 115.4 A2.65394 2.65394 0 0 1 2.66 112.74
								 L25.69 112.74 A2.65394 2.65394 0 0 1 28.35 115.4 Z" class="st1"/>
				</g>
				<g id="shape1551-15" transform="translate(22.647,-37.7947)">
					<title>path14</title>
					<path d="M5.11 141.19 L0 141.19 A8.26831 8.26831 -180 0 0 7.47 145.92 L7.47 143.56 A2.3687 2.3687 -180 0 0 5.11
								 141.19 Z" class="st3"/>
				</g>
				<g id="shape1552-17" transform="translate(15.9449,-10.6299)">
					<title>path16</title>
					<path d="M15.94 121.12 L15.94 143.56 A2.33858 2.33858 0 0 1 14.1 145.85 A1.71142 1.71142 0 0 1 13.59 145.92 L1.03
								 145.92 A14.8234 14.8234 0 0 1 0.44 144.15 A14.5984 14.5984 0 0 1 0 140.6 L0 123.77 A2.65394 2.65394
								 0 0 1 2.66 121.12 L15.94 121.12 Z" class="st2"/>
				</g>
				<g id="shape1553-19" transform="translate(15.9449,-8.85827)">
					<title>path18</title>
					<path d="M14.17 119.34 L14.17 143.56 A1.71319 1.71319 0 0 1 14.1 144.08 A2.33858 2.33858 0 0 1 11.82 145.92 L1.91
								 145.92 A12.7081 12.7081 0 0 1 1.03 144.15 A14.8234 14.8234 0 0 1 0.44 142.38 A14.5984 14.5984 0
								 0 1 0 138.83 L0 122 A2.65394 2.65394 0 0 1 2.66 119.34 L14.17 119.34 Z" class="st3"/>
				</g>
				<g id="shape1554-21" transform="translate(15.9449,-12.4016)">
					<title>path20</title>
					<path d="M14.17 122.89 L14.17 143.56 A2.36693 2.36693 0 0 1 11.82 145.92 L0.44 145.92 A14.5984 14.5984 0 0 1
								 -0 142.38 L0 125.54 A2.65394 2.65394 0 0 1 2.66 122.89 L14.17 122.89 Z" class="st3"/>
				</g>
				<g id="shape1555-23" transform="translate(15.9449,-12.4016)">
					<title>path22</title>
					<path d="M2.66 122.89 A2.65394 2.65394 -180 0 0 -0 125.54 L0 142.38 A14.5984 14.5984 -180 0 0 0.44 145.92 L10.05
								 145.92 A2.36693 2.36693 -180 0 0 12.4 143.56 L12.4 122.89 L2.66 122.89 Z" class="st3"/>
				</g>
				<g id="shape1556-25" transform="translate(0,-14.1732)">
					<title>path24</title>
					<path d="M2.36 117.57 L25.98 117.57 A2.36161 2.36161 0 0 1 28.35 119.93 L28.35 143.56 A2.36161 2.36161 0 0 1
								 25.98 145.92 L2.36 145.92 A2.36161 2.36161 0 0 1 0 143.56 L0 119.93 A2.36161 2.36161 0 0 1 2.36
								 117.57 Z" class="st5"/>
				</g>
				<g id="shape1557-27" transform="translate(7.12205,-19.497)">
					<title>path26</title>
					<path d="M14.1 131.71 L8.81 131.71 L8.81 145.92 L5.33 145.92 L5.33 131.71 L0 131.71 L0 128.22 L14.1 128.22 L14.1
								 131.71 Z" class="st6"/>
				</g>
				<g id="shape1558-29">
					<title>path28</title>
					<rect x="0" y="89.2258" width="56.6929" height="56.6929" class="st7"/>
				</g>
			</g>
		</g>
	</g>
</svg>
