<?xml version="1.0" encoding="UTF-8" standalone="no"?>
<!DOCTYPE svg PUBLIC "-//W3C//DTD SVG 1.1//EN" "http://www.w3.org/Graphics/SVG/1.1/DTD/svg11.dtd">
<!-- Generated by Microsoft Visio, SVG Export O365 - Power App.svg Page-1 -->
<svg xmlns="http://www.w3.org/2000/svg" xmlns:xlink="http://www.w3.org/1999/xlink" xmlns:ev="http://www.w3.org/2001/xml-events"
		width="0.944882in" height="1.25825in" viewBox="0 0 68.0315 90.5943" xml:space="preserve" color-interpolation-filters="sRGB"
		class="st4">
	<style type="text/css">
	<![CDATA[
		.st1 {fill:url(#grad0-6);stroke:none;stroke-linecap:butt;stroke-width:5.55497}
		.st2 {fill:url(#grad0-10);stroke:none;stroke-linecap:butt;stroke-width:5.55497}
		.st3 {fill:url(#grad0-14);stroke:none;stroke-linecap:butt;stroke-width:5.55497}
		.st4 {fill:none;fill-rule:evenodd;font-size:12px;overflow:visible;stroke-linecap:square;stroke-miterlimit:3}
	]]>
	</style>

	<defs id="Patterns_And_Gradients">
		<linearGradient id="grad0-6" x1="0" y1="0" x2="1" y2="0" gradientTransform="rotate(-115.03978836718 0.5 0.5)">
			<stop offset="0" stop-color="#742774" stop-opacity="1"/>
			<stop offset="1" stop-color="#bb35a4" stop-opacity="1"/>
		</linearGradient>
		<linearGradient id="grad0-10" x1="0" y1="0" x2="1" y2="0" gradientTransform="rotate(54.535189658138 0.5 0.5)">
			<stop offset="0" stop-color="#e48cc7" stop-opacity="1"/>
			<stop offset="1" stop-color="#d467b9" stop-opacity="1"/>
		</linearGradient>
		<linearGradient id="grad0-14" x1="0" y1="0" x2="1" y2="0" gradientTransform="rotate(71.043388768163 0.5 0.5)">
			<stop offset="0" stop-color="#e9a1cb" stop-opacity="1"/>
			<stop offset="1" stop-color="#e48cc7" stop-opacity="1"/>
		</linearGradient>
	</defs>
	<g>
		<title>Page-1</title>
		<g id="group1619-1" transform="translate(5.66929,-34.0157)">
			<title>O365 - Power App</title>
			<g id="group1620-2">
				<title>layer1</title>
				<g id="shape1621-3">
					<title>path5</title>
					<path d="M22.83 90.59 L0 65.08 L22.83 39.57 L45.66 65.08 L22.83 90.59 Z" class="st1"/>
				</g>
				<g id="shape1622-7" transform="translate(21.5891,-2.16972E-05)">
					<title>path15</title>
					<path d="M11.18 39.57 L35.1 65.08 L11.18 90.59 L0.57 79.28 A2.1745 2.12598 0 0 1 0.57 76.4 L9.84 66.52 A2.1745
								 2.12598 -180 0 0 9.84 63.65 L0.57 53.76 A2.1745 2.12598 0 0 1 0.57 50.89 L11.18 39.57 Z"
							class="st2"/>
				</g>
				<g id="shape1623-11" transform="translate(33.9369,-13.7761)">
					<title>path17</title>
					<path d="M9.19 67.81 A2.1745 2.12598 0 0 1 12.4 67.81 L22.76 78.86 L12.4 89.9 A2.1745 2.12598 0 0 1 9.19 89.9
								 L0.86 81.01 A3.26175 3.18898 0 0 1 0.86 76.7 L9.19 67.81 L9.19 67.81 Z" class="st3"/>
				</g>
			</g>
		</g>
	</g>
</svg>
