<?xml version="1.0" encoding="UTF-8" standalone="no"?>
<!-- Generated by Microsoft Visio, SVG Export O365 - OneDrive.svg Page-1 -->
<svg xmlns:dc="http://purl.org/dc/elements/1.1/" xmlns:cc="http://creativecommons.org/ns#" xmlns:rdf="http://www.w3.org/1999/02/22-rdf-syntax-ns#" xmlns:svg="http://www.w3.org/2000/svg" xmlns="http://www.w3.org/2000/svg" xmlns:sodipodi="http://sodipodi.sourceforge.net/DTD/sodipodi-0.dtd" xmlns:inkscape="http://www.inkscape.org/namespaces/inkscape" width="59.794719" height="37.091668" viewBox="0 0 59.794719 37.091668" xml:space="preserve" class="st5" version="1.1" id="svg34" sodipodi:docname="O365 - OneDrive.svg" style="font-size:12px;overflow:visible;color-interpolation-filters:sRGB;fill:none;fill-rule:evenodd;stroke-linecap:square;stroke-miterlimit:3" inkscape:version="0.92.5 (2060ec1f9f, 2020-04-08)">
  <metadata id="metadata40">
    <rdf:RDF>
      <cc:Work rdf:about="">
        <dc:format>image/svg+xml</dc:format>
        <dc:type rdf:resource="http://purl.org/dc/dcmitype/StillImage" />
      </cc:Work>
    </rdf:RDF>
  </metadata>
  <defs id="defs38" />
  <sodipodi:namedview pagecolor="#ffffff" bordercolor="#666666" borderopacity="1" objecttolerance="10" gridtolerance="10" guidetolerance="10" inkscape:pageopacity="0" inkscape:pageshadow="2" inkscape:window-width="640" inkscape:window-height="480" id="namedview36" showgrid="false" inkscape:zoom="1.9711925" inkscape:cx="39.862728" inkscape:cy="14.503571" inkscape:window-x="0" inkscape:window-y="0" inkscape:window-maximized="0" inkscape:current-layer="svg34" />
	<style type="text/css" id="style2">
	<![CDATA[
		.st1 {fill:#0364b8;stroke:none;stroke-linecap:butt;stroke-width:18.6798}
		.st2 {fill:#0078d4;stroke:none;stroke-linecap:butt;stroke-width:18.6798}
		.st3 {fill:#1490df;stroke:none;stroke-linecap:butt;stroke-width:18.6798}
		.st4 {fill:#28a8ea;stroke:none;stroke-linecap:butt;stroke-width:18.6798}
		.st5 {fill:none;fill-rule:evenodd;font-size:12px;overflow:visible;stroke-linecap:square;stroke-miterlimit:3}
	]]>
	</style>

	<g id="g32" transform="translate(-18.682052,-18.682646)">
		<title id="title4">Page-1</title>
		<g id="group2648-1" transform="translate(20.3325,-34.0157)">
			<title id="title6">O365 - OneDrive</title>
			<g id="group2649-2">
				<title id="title8">STYLE_COLOR</title>
				<g id="shape2650-3" transform="translate(13.1059,-19.5159)">
					<title id="title10">path4</title>
					<path d="m 8.04,82.51 v 0 l 12.56,7.28 7.48,-3.05 v 0.01 a 12.1032,11.7207 0 0 1 4.81,-0.97 c 0.28,0 0.55,0.02 0.82,0.03 A 18.6884,18.0978 -180 0 0 0,80.36 c 0.06,0 0.13,-0.01 0.19,-0.01 a 14.8762,14.4061 0 0 1 7.85,2.16 z" class="st1" id="path12" inkscape:connector-curvature="0" style="fill:#0364b8;stroke:none;stroke-width:18.67980003;stroke-linecap:butt" />
				</g>
				<g id="shape2651-5" transform="translate(0,-6.20208)">
					<title id="title15">path6</title>
					<path d="m 21.15,69.2 v 0 A 14.8762,14.4061 -180 0 0 13.3,67.04 c -0.07,0 -0.13,0.01 -0.19,0.01 A 14.9436,14.4713 -180 0 0 1.03,89.79 l 11.07,-4.51 4.92,-2 10.96,-4.47 5.72,-2.33 z" class="st2" id="path17" inkscape:connector-curvature="0" style="fill:#0078d4;stroke:none;stroke-width:18.67980003;stroke-linecap:butt" />
				</g>
				<g id="shape2652-7" transform="translate(33.7039,-6.18094)">
					<title id="title20">path8</title>
					<path d="M 13.12,72.48 C 12.84,72.46 12.57,72.45 12.3,72.45 a 12.1032,11.7207 -180 0 0 -4.82,0.96 v 0 L 0,76.46 l 2.17,1.26 7.11,4.12 3.1,1.8 10.61,6.15 A 12.1469,11.7631 -180 0 0 13.12,72.48 Z" class="st3" id="path22" inkscape:connector-curvature="0" style="fill:#1490df;stroke:none;stroke-width:18.67980003;stroke-linecap:butt" />
				</g>
				<g id="shape2653-9" transform="translate(1.03328)">
					<title id="title25">path10</title>
					<path d="m 45.05,77.46 -3.1,-1.8 -7.11,-4.12 -2.17,-1.26 -5.72,2.33 -10.96,4.46 -4.92,2.01 L 0,83.59 a 14.9288,14.4571 -180 0 0 12.26,6.2 h 32.71 a 12.1435,11.7598 -180 0 0 10.69,-6.18 z" class="st4" id="path27" inkscape:connector-curvature="0" style="fill:#28a8ea;stroke:none;stroke-width:18.67980003;stroke-linecap:butt" />
				</g>
			</g>
		</g>
	</g>
</svg>