<?xml version="1.0" encoding="UTF-8" standalone="no"?>
<!DOCTYPE svg PUBLIC "-//W3C//DTD SVG 1.1//EN" "http://www.w3.org/Graphics/SVG/1.1/DTD/svg11.dtd">
<!-- Generated by Microsoft Visio, SVG Export O365 - API Facebook.svg Page-1 -->
<svg xmlns="http://www.w3.org/2000/svg" xmlns:xlink="http://www.w3.org/1999/xlink" xmlns:ev="http://www.w3.org/2001/xml-events"
		width="1.5748in" height="1.85039in" viewBox="0 0 113.386 133.228" xml:space="preserve" color-interpolation-filters="sRGB"
		class="st4">
	<style type="text/css">
	<![CDATA[
		.st1 {fill:#3b5998;stroke:none;stroke-width:0.75}
		.st2 {fill:#ffffff;stroke:none;stroke-width:0.75}
		.st3 {fill:none;stroke:none;stroke-width:0.75}
		.st4 {fill:none;fill-rule:evenodd;font-size:12px;overflow:visible;stroke-linecap:square;stroke-miterlimit:3}
	]]>
	</style>

	<g>
		<title>Page-1</title>
		<g id="group1818-1" transform="translate(28.3465,-70.8661)">
			<title>O365 - API Facebook</title>
			<g id="group1819-2">
				<title>Page-1</title>
				<g id="group1820-3">
					<title>Power Automate API: Facebook</title>
					<g id="group1821-4">
						<title>rect5918</title>
						<g id="shape1822-5">
							<title>Sheet.1822</title>
							<rect x="0" y="76.5354" width="56.6929" height="56.6929" class="st1"/>
						</g>
					</g>
					<g id="group1823-7" transform="translate(9.79135,-9.43024)">
						<title>path5920</title>
						<g id="shape1824-8">
							<title>Sheet.1824</title>
							<path d="M34.45 96.6 L2.05 96.6 A2.05497 2.05497 -180 0 0 0 98.66 L0 131.18 A2.05497 2.05497 -180 0 0
										 2.05 133.23 L19.58 133.23 L19.58 118.96 L14.87 118.96 L14.87 113.4 L19.58 113.4 L19.58 109.41
										 C19.58 104.7 22.48 102.16 26.72 102.16 L30.94 102.41 L30.94 107.36 L28.04 107.36 C25.75
										 107.36 25.26 108.45 25.26 110.02 L25.26 113.53 L30.7 113.53 L29.97 119.09 L25.26 119.09
										 L25.26 133.23 L34.57 133.23 A2.05497 2.05497 -180 0 0 36.62 131.18 L36.62 98.53 A2.05497
										 2.05497 -180 0 0 34.45 96.6 Z" class="st2"/>
						</g>
					</g>
					<g id="group1825-10" transform="translate(5.19791,-5.01643)">
						<title>rect5922</title>
						<g id="shape1826-11">
							<title>Sheet.1826</title>
							<rect x="0" y="87.5959" width="45.6929" height="45.6324" class="st3"/>
						</g>
					</g>
				</g>
			</g>
		</g>
	</g>
</svg>
