<?xml version="1.0" encoding="UTF-8" standalone="no"?>
<!DOCTYPE svg PUBLIC "-//W3C//DTD SVG 1.1//EN" "http://www.w3.org/Graphics/SVG/1.1/DTD/svg11.dtd">
<!-- Generated by Microsoft Visio, SVG Export Open Dataset.svg Page-1 -->
<svg xmlns="http://www.w3.org/2000/svg" xmlns:xlink="http://www.w3.org/1999/xlink" xmlns:ev="http://www.w3.org/2001/xml-events"
		width="1.5748in" height="1.72047in" viewBox="0 0 113.386 123.874" xml:space="preserve" color-interpolation-filters="sRGB"
		class="st9">
	<style type="text/css">
	<![CDATA[
		.st1 {fill:#0072c6;stroke:none;stroke-linecap:butt;stroke-width:0.75}
		.st2 {fill:#ffffff;fill-opacity:0.2;stroke:none;stroke-linecap:butt;stroke-width:0.75}
		.st3 {fill:#ffffff;stroke:none;stroke-linecap:butt;stroke-width:0.75}
		.st4 {fill:#b8d432;stroke:none;stroke-linecap:butt;stroke-width:0.75}
		.st5 {fill:#7fba00;stroke:none;stroke-linecap:butt;stroke-width:0.75}
		.st6 {fill:#3999c6;stroke:none;stroke-linecap:butt;stroke-width:0.75}
		.st7 {fill:#59b4d9;stroke:none;stroke-linecap:butt;stroke-width:0.75}
		.st8 {fill:#ffffff;fill-opacity:0.25;stroke:none;stroke-linecap:butt;stroke-width:0.75}
		.st9 {fill:none;fill-rule:evenodd;font-size:12px;overflow:visible;stroke-linecap:square;stroke-miterlimit:3}
	]]>
	</style>

	<g>
		<title>Page-1</title>
		<g id="group1500-1" transform="translate(28.3465,-67.748)">
			<title>Open Dataset</title>
			<g id="shape1501-2">
				<title>Sheet.1501</title>
				<path d="M0 91.78 L0 119.11 C0 121.74 6.03 123.87 13.48 123.87 L13.5 123.87 L13.66 123.87 L13.66 123.87 C21.02 123.83
							 26.95 121.72 26.95 119.11 L26.95 91.78 L0 91.78 Z" class="st1"/>
			</g>
			<g id="shape1502-4" transform="translate(0,-0.00108792)">
				<title>Sheet.1502</title>
				<path d="M0 91.78 L0 119.04 C0 121.71 6.31 123.87 13.86 123.87 L13.86 91.78 L0 91.78 Z" class="st2"/>
			</g>
			<g id="shape1503-6" transform="translate(0.11231,-27.0523)">
				<title>Sheet.1503</title>
				<path d="M26.85 118.79 C26.85 121.41 20.84 123.87 13.42 123.87 C6.01 123.87 0 121.41 0 118.79 C0 116.17 6.01 114.05
							 13.42 114.05 C20.84 114.05 26.85 116.17 26.85 118.79 Z" class="st3"/>
			</g>
			<g id="shape1504-8" transform="translate(2.8347,-29.2739)">
				<title>Sheet.1504</title>
				<path d="M21.4 120.95 C21.4 122.57 16.61 123.87 10.7 123.87 C4.79 123.87 0 122.57 0 120.95 C0 119.34 4.79 118.03
							 10.7 118.03 C16.61 118.03 21.4 119.34 21.4 120.95 Z" class="st4"/>
			</g>
			<g id="shape1505-10" transform="translate(4.96971,-29.2739)">
				<title>Sheet.1505</title>
				<path d="M0 122.7 C1.95 123.41 5.06 123.87 8.57 123.87 C12.08 123.87 15.18 123.41 17.13 122.7 C15.18 121.99 12.08
							 121.52 8.57 121.52 C5.06 121.52 1.95 121.99 0 122.7 Z" class="st5"/>
			</g>
			<g id="shape1506-12" transform="translate(9.0971,-32.7465)">
				<title>Sheet.1506</title>
				<ellipse cx="4.38009" cy="119.631" rx="4.38009" ry="4.2429" class="st6"/>
			</g>
			<g id="shape1507-14" transform="translate(18.0819,-42.5378)">
				<title>Sheet.1507</title>
				<ellipse cx="4.38009" cy="119.631" rx="4.38009" ry="4.2429" class="st6"/>
			</g>
			<g id="shape1508-16" transform="translate(30.436,-42.5378)">
				<title>Sheet.1508</title>
				<ellipse cx="4.38009" cy="119.631" rx="4.38009" ry="4.2429" class="st6"/>
			</g>
			<g id="shape1509-18" transform="translate(38.2977,-32.7465)">
				<title>Sheet.1509</title>
				<ellipse cx="4.38009" cy="119.631" rx="4.38009" ry="4.2429" class="st6"/>
			</g>
			<g id="shape1510-20" transform="translate(28.6626,-1.08792)">
				<title>Sheet.1510</title>
				<path d="M27.09 120.83 L18.53 105.58 L18.53 99.4 L18.68 99.4 C19.71 99.4 20.54 98.55 20.54 97.5 C20.54 96.44 19.71
							 95.59 18.68 95.59 L9.35 95.59 C8.32 95.59 7.49 96.44 7.49 97.5 C7.49 98.55 8.32 99.4 9.35 99.4 L9.5
							 99.4 L9.5 105.58 L0.94 120.83 C0 122.51 0.77 123.87 2.65 123.87 L25.39 123.87 C27.26 123.87 28.03 122.51
							 27.09 120.83 Z" class="st7"/>
			</g>
			<g id="shape1511-22" transform="translate(33.1202,-4.40174)">
				<title>Sheet.1511</title>
				<path d="M3.53 117.58 L0 123.87 L19.12 123.87 L15.58 117.58 L3.53 117.58 Z" class="st4"/>
			</g>
			<g id="shape1512-24" transform="translate(44.4275,-5.89872)">
				<title>Sheet.1512</title>
				<ellipse cx="0.84794" cy="123.003" rx="0.84794" ry="0.871427" class="st5"/>
			</g>
			<g id="shape1513-26" transform="translate(28.6626,-1.08792)">
				<title>Sheet.1513</title>
				<path d="M0.94 120.83 L9.5 105.58 L9.5 99.4 L9.35 99.4 C8.32 99.4 7.49 98.55 7.49 97.5 C7.49 96.44 8.32 95.59 9.35
							 95.59 L13.37 95.59 L13.37 105.53 L8.86 123.87 L2.65 123.87 C0.77 123.87 0 122.51 0.94 120.83 Z"
						class="st8"/>
			</g>
		</g>
	</g>
</svg>
