<?xml version="1.0" encoding="UTF-8" standalone="no"?>
<!-- Generated by Microsoft Visio, SVG Export OpenShift cluster.svg Page-1 -->
<svg xmlns:dc="http://purl.org/dc/elements/1.1/" xmlns:cc="http://creativecommons.org/ns#" xmlns:rdf="http://www.w3.org/1999/02/22-rdf-syntax-ns#" xmlns:svg="http://www.w3.org/2000/svg" xmlns="http://www.w3.org/2000/svg" xmlns:sodipodi="http://sodipodi.sourceforge.net/DTD/sodipodi-0.dtd" xmlns:inkscape="http://www.inkscape.org/namespaces/inkscape" width="53.858502" height="49.765885" viewBox="0 0 53.858502 49.765885" xml:space="preserve" class="st6" version="1.1" id="svg49" sodipodi:docname="OpenShift cluster.svg" style="font-size:12px;overflow:visible;color-interpolation-filters:sRGB;fill:none;fill-rule:evenodd;stroke-linecap:square;stroke-miterlimit:3" inkscape:version="0.92.5 (2060ec1f9f, 2020-04-08)">
  <metadata id="metadata55">
    <rdf:RDF>
      <cc:Work rdf:about="">
        <dc:format>image/svg+xml</dc:format>
        <dc:type rdf:resource="http://purl.org/dc/dcmitype/StillImage" />
      </cc:Work>
    </rdf:RDF>
  </metadata>
  <defs id="defs53" />
  <sodipodi:namedview pagecolor="#ffffff" bordercolor="#666666" borderopacity="1" objecttolerance="10" gridtolerance="10" guidetolerance="10" inkscape:pageopacity="0" inkscape:pageshadow="2" inkscape:window-width="640" inkscape:window-height="480" id="namedview51" showgrid="false" inkscape:zoom="1.8365233" inkscape:cx="35.905404" inkscape:cy="14.279191" inkscape:window-x="0" inkscape:window-y="0" inkscape:window-maximized="0" inkscape:current-layer="svg49" />
	<style type="text/css" id="style2">
	<![CDATA[
		.st1 {fill:#c32034;stroke:none;stroke-linecap:butt;stroke-width:3.06}
		.st2 {fill:#db212f;stroke:none;stroke-linecap:butt;stroke-width:3.06}
		.st3 {fill:#ea2227;stroke:none;stroke-linecap:butt;stroke-width:3.06}
		.st4 {fill:#ad213a;stroke:none;stroke-linecap:butt;stroke-width:3.06}
		.st5 {fill:#ba2034;stroke:none;stroke-linecap:butt;stroke-width:3.06}
		.st6 {fill:none;fill-rule:evenodd;font-size:12px;overflow:visible;stroke-linecap:square;stroke-miterlimit:3}
	]]>
	</style>

	<g id="g47" transform="translate(-5.3859292,-9.1325357)">
		<title id="title4">Page-1</title>
		<g id="group2421-1" transform="translate(5.38583,-34.0157)">
			<title id="title6">OpenShift cluster</title>
			<g id="group2422-2">
				<title id="title8">Sheet.2422</title>
				<g id="shape2423-3" transform="translate(6.97867,-23.5579)">
					<title id="title10">Sheet.2423</title>
					<path d="M 8.65,89.05 0,92.23 c 0.11,1.42 0.33,2.8 0.71,4.15 l 8.2,-2.99 C 8.65,91.89 8.54,90.47 8.65,89.05 Z M 46.88,79.4 c -0.59,-1.24 -1.3,-2.47 -2.08,-3.59 l -8.65,3.17 c 1,1.05 1.86,2.21 2.56,3.44 -0.03,-0.03 8.17,-3.02 8.17,-3.02 z" class="st1" id="path12" inkscape:connector-curvature="0" style="fill:#c32034;stroke:none;stroke-width:3.05999994;stroke-linecap:butt" />
				</g>
				<g id="shape2424-5" transform="translate(3.09957,-26.4138)">
					<title id="title15">Sheet.2424</title>
					<path d="m 31.74,79.78 c 1.78,0.82 3.34,2.02 4.68,3.36 l 8.64,-3.17 C 42.69,76.6 39.38,73.76 35.41,71.89 23.05,66.1 8.32,71.48 2.56,83.93 0.71,87.97 0,92.23 0.33,96.38 L 8.98,93.2 c 0.15,-1.91 0.6,-3.78 1.45,-5.61 3.71,-8.07 13.25,-11.55 21.31,-7.81 z" class="st2" id="path17" inkscape:connector-curvature="0" style="fill:#db212f;stroke:none;stroke-width:3.05999994;stroke-linecap:butt" />
				</g>
				<g id="shape2425-7" transform="translate(0,-12.3733)">
					<title id="title20">Sheet.2425</title>
					<path d="M 8.2,84.94 0,87.93 c 0.74,2.99 2.08,5.87 3.86,8.45 L 12.47,93.2 C 10.28,90.92 8.8,88.04 8.2,84.94 Z" class="st3" id="path22" inkscape:connector-curvature="0" style="fill:#ea2227;stroke:none;stroke-width:3.05999994;stroke-linecap:butt" />
				</g>
				<g id="shape2426-9" transform="translate(7.98093)">
					<title id="title25">Sheet.2426</title>
					<path d="m 36.08,69.28 c -0.15,1.9 -0.63,3.77 -1.45,5.6 C 30.88,82.96 21.31,86.51 13.29,82.7 11.51,81.87 9.95,80.68 8.61,79.33 L 0,82.51 c 2.38,3.36 5.64,6.2 9.65,8.07 12.36,5.8 27.1,0.42 32.85,-12.03 1.86,-4.04 2.56,-8.3 2.23,-12.45 z" class="st2" id="path27" inkscape:connector-curvature="0" style="fill:#db212f;stroke:none;stroke-width:3.05999994;stroke-linecap:butt" />
				</g>
				<g id="shape2427-11" transform="translate(37.9855,-25.6326)">
					<title id="title30">Sheet.2427</title>
					<path d="M 8.2,84.27 0,87.26 c 1.52,2.76 2.26,5.94 2,9.12 L 10.62,93.2 C 10.39,90.14 9.54,87.11 8.2,84.27 Z" class="st3" id="path32" inkscape:connector-curvature="0" style="fill:#ea2227;stroke:none;stroke-width:3.05999994;stroke-linecap:butt" />
				</g>
				<g id="shape2428-13" transform="translate(7.00094,-26.0512)">
					<title id="title35">Sheet.2428</title>
					<path d="m 0,94.7 8.61,-3.14 -0.04,1.72 -8.31,3.1 z m 36.12,-13.27 8.76,-3 0.93,1.35 -8.5,2.99 c -0.04,0.04 -1.19,-1.34 -1.19,-1.34 z" class="st4" id="path37" inkscape:connector-curvature="0" style="fill:#ad213a;stroke:none;stroke-width:3.05999994;stroke-linecap:butt" />
				</g>
				<g id="shape2429-15" transform="translate(7.93638,-11.192)">
					<title id="title40">Sheet.2429</title>
					<path d="m 0,93.69 8.61,-3.11 2.6,2.43 -9.06,3.37 C 2.19,96.38 0,93.69 0,93.69 Z m 44.89,-16.33 -8.76,3.14 -0.63,3.47 9.36,-3.28 c -0.04,-0.04 0.03,-3.33 0.03,-3.33 z" class="st5" id="path42" inkscape:connector-curvature="0" style="fill:#ba2034;stroke:none;stroke-width:3.05999994;stroke-linecap:butt" />
				</g>
			</g>
		</g>
	</g>
</svg>