<?xml version="1.0" encoding="UTF-8" standalone="no"?>
<!DOCTYPE svg PUBLIC "-//W3C//DTD SVG 1.1//EN" "http://www.w3.org/Graphics/SVG/1.1/DTD/svg11.dtd">
<!-- Generated by Microsoft Visio, SVG Export Operator Insights – Data Products.svg Page-1 -->
<svg xmlns="http://www.w3.org/2000/svg" xmlns:xlink="http://www.w3.org/1999/xlink" xmlns:ev="http://www.w3.org/2001/xml-events"
		width="1.73185in" height="1.73237in" viewBox="0 0 124.693 124.731" xml:space="preserve" color-interpolation-filters="sRGB"
		class="st5">
	<style type="text/css">
	<![CDATA[
		.st1 {fill:#32bedd;stroke:none;stroke-linecap:butt;stroke-width:34}
		.st2 {fill:url(#grad0-8);stroke:none;stroke-linecap:butt;stroke-width:34}
		.st3 {fill:#ffffff;stroke:none;stroke-linecap:butt;stroke-width:34}
		.st4 {fill:#0078d4;stroke:none;stroke-linecap:butt;stroke-width:34}
		.st5 {fill:none;fill-rule:evenodd;font-size:12px;overflow:visible;stroke-linecap:square;stroke-miterlimit:3}
	]]>
	</style>

	<defs id="Patterns_And_Gradients">
		<linearGradient id="grad0-8" x1="0" y1="0" x2="1" y2="0" gradientTransform="rotate(-90 0.5 0.5)">
			<stop offset="0" stop-color="#7b7b7b" stop-opacity="1"/>
			<stop offset="1" stop-color="#ffffff" stop-opacity="1"/>
		</linearGradient>
	</defs>
	<g>
		<title>Page-1</title>
		<g id="group2620-1" transform="translate(34,-34.0157)">
			<title>Operator Insights – Data Products</title>
			<g id="group2621-2">
				<title>Sheet.2621</title>
				<g id="shape2622-3" transform="translate(28.3449,1.42109E-14)">
					<title>Sheet.2622</title>
					<path d="M14.17 96.37 C22 96.37 28.35 102.73 28.35 110.55 C28.35 118.38 22 124.73 14.17 124.73 L0 124.73 L0 110.55
								 C0 102.73 6.35 96.37 14.17 96.37 Z" class="st1"/>
				</g>
				<g id="shape2623-5" transform="translate(7.05866,-0.220555)">
					<title>Sheet.2623</title>
					<path d="M19.96 114.13 L6.27 114.13 L13.7 89.39 L14.58 89.39 L20.19 108.09 A15.4402 15.4452 0 0 1 22.25 102.65
								 L17.94 88.28 L14.13 75.25 L10.32 88.28 L2.21 115.34 A8.6745 8.67727 -180 0 0 1.93 116.25 A17.6955
								 17.7011 0 0 1 1.49 117.66 A31.0348 31.0447 -180 0 0 0.97 119.29 L0.5 120.92 C0.35 121.44 0.23 121.88
								 0.14 122.24 A4.04747 4.04876 -180 0 0 0 122.96 C0 123.44 0.17 123.85 0.53 124.2 A1.69773 1.69827
								 -180 0 0 1.77 124.73 A1.65993 1.66046 -180 0 0 2.84 124.37 A1.82687 1.82746 -180 0 0 3.45 123.46
								 L5.19 117.66 L19.95 117.66 L19.95 114.13 L19.96 114.13 Z" class="st2"/>
				</g>
				<g id="group2624-9" transform="translate(32.8743,-8.11643)">
					<title>Sheet.2624</title>
					<g id="shape2625-10" transform="translate(4.82232,-0.00630157)">
						<title>Sheet.2625</title>
						<path d="M0 124.4 a0.327585 0.327689 -180 0 0 0.327577 0.327682 L2.7 124.73 a0.327585 0.327689 -180 0 0 0.327577
									 -0.327682 L3.03 116.16 a0.327585 0.327689 -180 0 0 -0.327577 -0.327682 L0.33 115.83 a0.327585
									 0.327689 -180 0 0 -0.327577 0.327682 L0 124.4 Z" class="st3"/>
					</g>
					<g id="shape2626-12" transform="translate(0,-0.00630157)">
						<title>Sheet.2626</title>
						<path d="M0 124.4 a0.327585 0.327689 -180 0 0 0.327577 0.327682 L2.7 124.73 a0.327585 0.327689 -180 0 0 0.327577
									 -0.327682 L3.03 119.24 a0.327585 0.327689 -180 0 0 -0.327577 -0.327682 L0.33 118.91 a0.327585
									 0.327689 -180 0 0 -0.327577 0.327682 L0 124.4 Z" class="st3"/>
					</g>
					<g id="shape2627-14" transform="translate(9.64463,1.42109E-14)">
						<title>Sheet.2627</title>
						<path d="M7.75 112.94 a0.327577 0.327682 -180 0 0 -0.233084 -0.0976744 L5.15 112.85 a0.324427 0.324531 -180
									 0 0 -0.327577 0.330833 L4.82 124.4 a0.327577 0.327682 -180 0 0 0.327577 0.330833 L7.52 124.73
									 a0.324427 0.324531 -180 0 0 0.327577 -0.330833 L7.85 113.18 a0.340176 0.340285 -180 0 0 -0.0944934
									 -0.233158 ZM2.71 118.9 L0.29 118.9 L0.26 118.91 L0.23 118.92 L0.2 118.93 L0.17 118.94 L0.15
									 118.96 L0.12 118.98 L0.1 119 L0.08 119.02 L0.06 119.05 L0.04 119.08 L0.03 119.1 L0.02 119.13
									 L0.01 119.16 L0.01 119.2 L0 119.23 L0 124.43 L0.01 124.46 L0.02 124.49 L0.03 124.52 L0.04 124.55
									 L0.06 124.58 L0.08 124.6 L0.1 124.63 L0.12 124.65 L0.15 124.66 L0.17 124.68 L0.2 124.7 L0.23
									 124.71 L0.26 124.72 L0.29 124.72 L0.33 124.72 L2.71 124.72 a0.327577 0.327682 -180 0 0 0.327577
									 -0.330833 L3.04 119.23 a0.330727 0.330833 -180 0 0 -0.327577 -0.330833 L2.71 118.9 Z"
								class="st3"/>
					</g>
				</g>
				<g id="shape2628-16" transform="translate(0,-28.4894)">
					<title>Sheet.2628</title>
					<path d="M7.56 121.83 A15.1441 15.149 -180 0 0 6.84 120.86 A9.73912 9.74223 0 0 1 6.15 119.89 A17.2136 17.2191
								 0 0 1 4.19 115.42 A17.916 17.9217 0 0 1 3.53 110.58 A19.3271 19.3332 0 0 1 4.19 105.75 C4.61 104.18
								 5.26 102.71 6.12 101.33 C6.32 100.98 6.55 100.65 6.78 100.34 L7.5 99.4 A1.4741 1.47457 -180 0 0
								 7.83 98.88 A1.90562 1.90623 -180 0 0 7.92 98.27 A1.69773 1.69827 -180 0 0 7.39 97.03 A1.69773 1.69827
								 -180 0 0 5.38 96.7 A2.1198 2.12048 -180 0 0 4.77 97.17 A14.1866 14.1911 -180 0 0 2.73 100.07 A24.4801
								 24.4879 -180 0 0 1.24 103.46 A21.365 21.3718 -180 0 0 0 110.59 C0.02 111.78 0.13 112.98 0.33 114.18
								 C0.53 115.37 0.85 116.57 1.27 117.76 C1.69 118.96 2.2 120.09 2.79 121.16 C3.38 122.23 4.07 123.2
								 4.86 124.09 A1.73238 1.73293 -180 0 0 7.45 124.2 A1.69773 1.69827 -180 0 0 7.87 122.35 A1.83317
								 1.83376 -180 0 0 7.56 121.82 L7.56 121.83 ZM42.09 107.05 A19.7208 19.7271 -180 0 0 41.18 103.47
								 A22.5209 22.5281 -180 0 0 39.66 100.07 A15.7174 15.7224 -180 0 0 37.62 97.17 A1.81427 1.81485 -180
								 0 0 36.24 96.53 A1.85522 1.85581 -180 0 0 35 97.06 A1.61269 1.6132 -180 0 0 34.47 98.27 C34.49 98.51
								 34.53 98.71 34.58 98.88 C34.64 99.05 34.74 99.22 34.89 99.41 L35.61 100.35 C35.84 100.66 36.06 100.99
								 36.27 101.34 C37.15 102.74 37.8 104.22 38.23 105.79 C38.65 107.35 38.86 108.95 38.86 110.59 C38.86
								 112.23 38.64 113.84 38.2 115.42 C37.76 117.01 37.1 118.5 36.24 119.9 C36.02 120.27 35.79 120.6 35.55
								 120.89 A20.2688 20.2753 -180 0 0 34.83 121.83 A1.4741 1.47457 -180 0 0 34.5 122.36 A1.90562 1.90623
								 -180 0 0 34.42 122.96 C34.42 123.44 34.6 123.85 34.95 124.2 C35.3 124.55 35.71 124.73 36.19 124.73
								 A1.80482 1.8054 -180 0 0 37.57 124.09 C38.4 123.27 39.1 122.3 39.67 121.2 A28.2535 28.2626 -180
								 0 0 41.16 117.77 C41.58 116.59 41.89 115.39 42.09 114.15 C42.3 112.92 42.4 111.73 42.4 110.59 A26.2408
								 26.2492 -180 0 0 42.09 107.06 L42.09 107.05 ZM13.6 100.67 A1.74183 1.74239 -180 0 0 11.09 100.7
								 C10.43 101.34 9.85 102.05 9.35 102.83 C8.86 103.6 8.44 104.41 8.09 105.26 C7.74 106.1 7.48 106.98
								 7.31 107.88 A14.8355 14.8402 -180 0 0 7.06 110.59 C7.08 111.99 7.3 113.4 7.73 114.84 C8.15 116.28
								 8.78 117.56 9.6 118.68 A1.98436 1.985 -180 0 0 10.24 119.23 A1.65993 1.66046 -180 0 0 11.04 119.42
								 C11.52 119.42 11.93 119.25 12.28 118.9 C12.63 118.55 12.81 118.13 12.81 117.65 A1.84262 1.84321
								 -180 0 0 12.5 116.63 A15.3331 15.338 0 0 1 11.1 113.73 A9.421 9.424 0 0 1 10.6 110.59 C10.6 109.08
								 10.86 107.73 11.37 106.56 C11.89 105.38 12.64 104.25 13.64 103.16 C13.82 102.96 13.95 102.76 14.02
								 102.58 C14.1 102.4 14.13 102.17 14.13 101.92 A1.69773 1.69827 -180 0 0 13.61 100.68 L13.6 100.67
								 ZM34.3 105.23 A12.7818 12.7859 -180 0 0 31.3 100.7 A1.65364 1.65416 -180 0 0 30.03 100.15 A1.69773
								 1.69827 -180 0 0 28.79 100.68 C28.44 101.03 28.26 101.44 28.26 101.92 C28.26 102.4 28.43 102.81
								 28.76 103.16 C29.75 104.25 30.51 105.39 31.03 106.59 C31.54 107.78 31.8 109.12 31.8 110.59 C31.8
								 112.21 31.46 113.73 30.78 115.15 A10.2147 10.218 -180 0 0 30.42 115.75 A5.43652 5.43826 0 0 1 30.03
								 116.36 A2.23319 2.23391 -180 0 0 29.59 117.66 C29.61 118.18 29.78 118.6 30.12 118.93 C30.45 119.26
								 30.86 119.43 31.36 119.43 C31.71 119.41 32.01 119.31 32.27 119.13 C32.52 118.94 32.76 118.7 32.98
								 118.41 C33.2 118.11 33.4 117.81 33.56 117.5 C33.73 117.18 33.87 116.9 33.98 116.64 A14.2622 14.2668
								 -180 0 0 35.33 110.59 C35.33 108.75 34.99 106.97 34.31 105.24 L34.3 105.23 ZM21.19 103.5 A7.06496
								 7.06721 -180 1 0 21.19 117.64 A7.06496 7.06721 -180 0 0 21.19 103.5 Z" class="st4"/>
				</g>
			</g>
		</g>
	</g>
</svg>
