<?xml version="1.0" encoding="UTF-8" standalone="no"?>
<!DOCTYPE svg PUBLIC "-//W3C//DTD SVG 1.1//EN" "http://www.w3.org/Graphics/SVG/1.1/DTD/svg11.dtd">
<!-- Generated by Microsoft Visio, SVG Export Power BI Embedded.svg Page-1 -->
<svg xmlns="http://www.w3.org/2000/svg" xmlns:xlink="http://www.w3.org/1999/xlink" xmlns:ev="http://www.w3.org/2001/xml-events"
		width="0.724848in" height="1.33858in" viewBox="0 0 52.189 96.378" xml:space="preserve" color-interpolation-filters="sRGB"
		class="st5">
	<style type="text/css">
	<![CDATA[
		.st1 {fill:url(#grad0-5)}
		.st2 {stroke:none;stroke-linecap:butt;stroke-width:0.75;visibility:hidden}
		.st3 {fill:url(#grad0-10)}
		.st4 {fill:url(#grad0-15)}
		.st5 {fill:none;fill-rule:evenodd;font-size:12px;overflow:visible;stroke-linecap:square;stroke-miterlimit:3}
	]]>
	</style>

	<defs id="Patterns_And_Gradients">
		<linearGradient id="grad0-5" x1="0" y1="0" x2="1" y2="0" gradientTransform="rotate(35.243090516876 0.5 0.5)">
			<stop offset="0" stop-color="#e6ad10" stop-opacity="1"/>
			<stop offset="1" stop-color="#c87e0e" stop-opacity="1"/>
		</linearGradient>
		<linearGradient id="grad0-10" x1="0" y1="0" x2="1" y2="0" gradientTransform="rotate(40.759322023757 0.5 0.5)">
			<stop offset="0" stop-color="#f6d751" stop-opacity="1"/>
			<stop offset="1" stop-color="#e6ad10" stop-opacity="1"/>
		</linearGradient>
		<linearGradient id="grad0-15" x1="0" y1="0" x2="1" y2="0" gradientTransform="rotate(57.671099069063 0.5 0.5)">
			<stop offset="0" stop-color="#f9e589" stop-opacity="1"/>
			<stop offset="1" stop-color="#f6d751" stop-opacity="1"/>
		</linearGradient>
	</defs>
	<g>
		<title>Page-1</title>
		<g id="group1391-1" transform="translate(4.25197,-34.0157)">
			<title>Power BI Embedded</title>
			<g id="shape1392-2" transform="translate(23.622,0)">
				<title>path9</title>
				<rect x="0" y="39.685" width="18.8976" height="56.6929" class="st1"/>
				<rect x="0" y="39.685" width="18.8976" height="56.6929" class="st2"/>
			</g>
			<g id="shape1393-7" transform="translate(11.811,0)">
				<title>path11</title>
				<path d="M18.9 56.22 L18.9 96.38 L0 96.38 L0 53.86 L16.54 53.86 A2.3622 2.3622 0 0 1 18.9 56.22 Z" class="st3"/>
			</g>
			<g id="shape1394-12">
				<title>path13</title>
				<path d="M0 68.03 L0 96.38 L18.9 96.38 L18.9 70.39 A2.3622 2.3622 -180 0 0 16.54 68.03 L0 68.03 Z" class="st4"/>
			</g>
		</g>
	</g>
</svg>
