<?xml version="1.0" encoding="UTF-8" standalone="no"?>
<!DOCTYPE svg PUBLIC "-//W3C//DTD SVG 1.1//EN" "http://www.w3.org/Graphics/SVG/1.1/DTD/svg11.dtd">
<!-- Generated by Microsoft Visio, SVG Export Recovery Services Backup Infrastructure.svg Page-1 -->
<svg xmlns="http://www.w3.org/2000/svg" xmlns:xlink="http://www.w3.org/1999/xlink" xmlns:ev="http://www.w3.org/2001/xml-events"
		width="1.5748in" height="1.94165in" viewBox="0 0 113.386 139.799" xml:space="preserve" color-interpolation-filters="sRGB"
		class="st4">
	<style type="text/css">
	<![CDATA[
		.st1 {fill:#804998;stroke:none;stroke-linecap:butt;stroke-width:12.24}
		.st2 {fill:#ffffff;fill-opacity:0.2;stroke:none;stroke-linecap:butt;stroke-width:12.24}
		.st3 {fill:#ffffff;fill-opacity:0.4;stroke:none;stroke-linecap:butt;stroke-width:12.24}
		.st4 {fill:none;fill-rule:evenodd;font-size:12px;overflow:visible;stroke-linecap:square;stroke-miterlimit:3}
	]]>
	</style>

	<g>
		<title>Page-1</title>
		<g id="group1274-1" transform="translate(28.3465,-70.8661)">
			<title>Recovery Services Backup Infrastructure</title>
			<g id="group1275-2">
				<title>Sheet.1275</title>
				<g id="shape1276-3" transform="translate(0,-21.0356)">
					<title>Sheet.1276</title>
					<path d="M0 104.14 L15.08 104.14 L15.08 119.01 L0 119.01 L0 104.14 ZM20.75 104.14 L35.89 104.14 L35.89 119.01
								 L20.75 119.01 L20.75 104.14 ZM41.61 104.14 L56.69 104.14 L56.69 119.01 L41.61 119.01 L41.61 104.14
								 ZM0 124.93 L35.89 124.93 L35.89 139.8 L0 139.8 L0 124.93 ZM41.61 124.93 L56.69 124.93 L56.69 139.8
								 L41.61 139.8 L41.61 124.93 Z" class="st1"/>
				</g>
				<g id="shape1277-5" transform="translate(0,-21.0356)">
					<title>Sheet.1277</title>
					<path d="M0 124.93 L35.89 124.93 L35.89 139.8 L0 139.8 L0 124.93 ZM41.61 124.93 L56.69 124.93 L56.69 139.8 L41.61
								 139.8 L41.61 124.93 Z" class="st2"/>
				</g>
				<g id="shape1278-7">
					<title>Sheet.1278</title>
					<rect x="0" y="124.68" width="56.6929" height="15.119" class="st1"/>
				</g>
				<g id="shape1279-9">
					<title>Sheet.1279</title>
					<rect x="0" y="124.68" width="56.6929" height="15.119" class="st3"/>
				</g>
			</g>
		</g>
	</g>
</svg>
