<?xml version="1.0" encoding="UTF-8" standalone="no"?>
<!DOCTYPE svg PUBLIC "-//W3C//DTD SVG 1.1//EN" "http://www.w3.org/Graphics/SVG/1.1/DTD/svg11.dtd">
<!-- Generated by Microsoft Visio, SVG Export Recovery Services.svg Page-1 -->
<svg xmlns="http://www.w3.org/2000/svg" xmlns:xlink="http://www.w3.org/1999/xlink" xmlns:ev="http://www.w3.org/2001/xml-events"
		width="1.1274in" height="1.31173in" viewBox="0 0 81.1729 94.4447" xml:space="preserve" color-interpolation-filters="sRGB"
		class="st3">
	<style type="text/css">
	<![CDATA[
		.st1 {fill:url(#grad0-6);stroke:none;stroke-linecap:butt;stroke-width:12.24}
		.st2 {fill:url(#grad0-10);stroke:none;stroke-linecap:butt;stroke-width:12.24}
		.st3 {fill:none;fill-rule:evenodd;font-size:12px;overflow:visible;stroke-linecap:square;stroke-miterlimit:3}
	]]>
	</style>

	<defs id="Patterns_And_Gradients">
		<linearGradient id="grad0-6" x1="0" y1="0" x2="1" y2="0" gradientTransform="rotate(-90.226046552341 0.5 0.5)">
			<stop offset="0" stop-color="#198ab3" stop-opacity="1"/>
			<stop offset="0.13" stop-color="#21a0c7" stop-opacity="1"/>
			<stop offset="0.31" stop-color="#28b7db" stop-opacity="1"/>
			<stop offset="0.5" stop-color="#2ec7ea" stop-opacity="1"/>
			<stop offset="0.72" stop-color="#31d1f2" stop-opacity="1"/>
			<stop offset="1" stop-color="#32d4f5" stop-opacity="1"/>
		</linearGradient>
		<linearGradient id="grad0-10" x1="0" y1="0" x2="1" y2="0" gradientTransform="rotate(-89.875606299213 0.5 0.5)">
			<stop offset="0" stop-color="#0078d4" stop-opacity="1"/>
			<stop offset="0.16" stop-color="#1380da" stop-opacity="1"/>
			<stop offset="0.53" stop-color="#3c91e5" stop-opacity="1"/>
			<stop offset="0.82" stop-color="#559cec" stop-opacity="1"/>
			<stop offset="1" stop-color="#5ea0ef" stop-opacity="1"/>
		</linearGradient>
	</defs>
	<g>
		<title>Page-1</title>
		<g id="group1196-1" transform="translate(12.24,-34.0157)">
			<title>Recovery Services</title>
			<g id="group1197-2">
				<title>g8</title>
				<g id="shape1198-3" transform="translate(15.2241,-16.3704)">
					<title>path4</title>
					<path d="M17.04 78.3 C23.86 78.3 29.43 83.49 30.22 90.06 C31.81 91.33 33.06 92.83 33.97 94.44 C38.4 93.29 41.47
								 89.37 41.47 84.65 C41.47 80.84 39.42 77.84 35.9 76.11 L35.9 74.85 C35.9 68.16 30.45 62.63 23.86
								 62.63 C19.88 62.63 16.25 64.59 13.97 67.7 C12.5 66.78 10.91 66.32 9.09 66.32 C4.32 66.32 0.45 70
								 0 74.62 C0.68 74.5 1.48 74.5 2.27 74.5 C5.79 74.5 9.77 75.08 13.07 78.65 L17.04 78.3 Z"
							class="st1"/>
				</g>
				<g id="shape1199-7">
					<title>path6</title>
					<path d="M41.47 76 L41.47 75.31 C41.47 70.23 37.38 66.08 32.38 66.08 C29.84 66.1 29.81 66.27 27.85 67.29 C25.24
								 69.25 23.63 72.31 23.52 75.54 L27.49 75.54 L21.47 82.8 L15.34 75.54 L19.43 75.54 C19.54 71.16 21.25
								 67.01 24.2 64.36 C22.27 63.09 20 62.4 17.61 62.4 C10.91 62.4 5.45 67.81 5.45 74.5 L5.45 75.77 C2.05
								 77.5 0 80.5 0 84.3 C0 90.06 4.54 94.44 10.45 94.44 L36.24 94.44 C42.15 94.44 46.69 89.95 46.69 84.3
								 C46.69 80.61 44.88 77.73 41.47 76 Z" class="st2"/>
				</g>
			</g>
		</g>
	</g>
</svg>
