<?xml version="1.0" encoding="UTF-8" standalone="no"?>
<!DOCTYPE svg PUBLIC "-//W3C//DTD SVG 1.1//EN" "http://www.w3.org/Graphics/SVG/1.1/DTD/svg11.dtd">
<!-- Generated by Microsoft Visio, SVG Export Remote Rendering Account.svg Page-1 -->
<svg xmlns="http://www.w3.org/2000/svg" xmlns:xlink="http://www.w3.org/1999/xlink" xmlns:ev="http://www.w3.org/2001/xml-events"
		width="1.73185in" height="1.49595in" viewBox="0 0 124.693 107.708" xml:space="preserve" color-interpolation-filters="sRGB"
		class="st7">
	<style type="text/css">
	<![CDATA[
		.st1 {fill:url(#grad0-6);stroke:none;stroke-linecap:butt;stroke-width:34}
		.st2 {fill:url(#grad0-10);stroke:none;stroke-linecap:butt;stroke-width:34}
		.st3 {fill:#ffffff;stroke:none;stroke-linecap:butt;stroke-width:34}
		.st4 {fill:#9cebff;fill-opacity:0.8;stroke:none;stroke-linecap:butt;stroke-width:34}
		.st5 {fill:#9cebff;fill-opacity:0.85;stroke:none;stroke-linecap:butt;stroke-width:34}
		.st6 {fill:#9cebff;stroke:none;stroke-linecap:butt;stroke-width:34}
		.st7 {fill:none;fill-rule:evenodd;font-size:12px;overflow:visible;stroke-linecap:square;stroke-miterlimit:3}
	]]>
	</style>

	<defs id="Patterns_And_Gradients">
		<linearGradient id="grad0-6" x1="0" y1="0" x2="1" y2="0" gradientTransform="rotate(-90 0.5 0.5)">
			<stop offset="0" stop-color="#0078d4" stop-opacity="1"/>
			<stop offset="0.155" stop-color="#1380da" stop-opacity="1"/>
			<stop offset="0.53" stop-color="#3c91e5" stop-opacity="1"/>
			<stop offset="0.82" stop-color="#559cec" stop-opacity="1"/>
			<stop offset="1" stop-color="#5ea0ef" stop-opacity="1"/>
		</linearGradient>
		<linearGradient id="grad0-10" x1="0" y1="0" x2="1" y2="0" gradientTransform="rotate(90 0.5 0.5)">
			<stop offset="0" stop-color="#c3f1ff" stop-opacity="1"/>
			<stop offset="0.105" stop-color="#beeffe" stop-opacity="1"/>
			<stop offset="0.765" stop-color="#32bedd" stop-opacity="1"/>
		</linearGradient>
	</defs>
	<g>
		<title>Page-1</title>
		<g id="group2005-1" transform="translate(34,-34.0157)">
			<title>Remote Rendering Account</title>
			<g id="group2006-2">
				<title>Sheet.2006</title>
				<g id="shape2007-3">
					<title>Sheet.2007</title>
					<path d="M56.69 95.28 A12.7407 12.5848 -180 0 0 45.64 83.18 A16.0529 15.8563 -180 0 0 29.1 68.02 A16.4681 16.2665
								 -180 0 0 13.36 78.62 A15.2001 15.014 -180 0 0 0 93.07 A15.4269 15.238 -180 0 0 15.97 107.71 C16.44
								 107.71 16.91 107.69 17.38 107.65 L43.23 107.65 A2.52004 2.48919 -180 0 0 43.91 107.55 A12.8909 12.733
								 -180 0 0 56.69 95.28 Z" class="st1"/>
				</g>
				<g id="shape2008-7" transform="translate(25.5965,-10.3984)">
					<title>Sheet.2008</title>
					<path d="M0.74 100.09 L8.09 85.83 a0.939026 0.92753 0 0 1 1.66725 0 L17.07 99.46 A5.01772 4.95629 0 0 1 17.81
								 102.29 C17.81 105.29 13.82 107.71 8.9 107.71 C3.99 107.71 0 105.29 0 102.29 A3.76569 3.71959 0 0
								 1 0.74 100.09 Z" class="st2"/>
				</g>
				<g id="shape2009-11" transform="translate(25.5869,-10.4237)">
					<title>Sheet.2009</title>
					<path d="M0.75 100.24 C0.15 101.44 0 101.64 0 102.42 A3.77207 3.72589 -180 0 0 0.04 102.88 L0.04 103.05 L0.08
								 103.05 C0.53 105.37 3.38 107.24 7.07 107.71 L7.07 107.24 C3.56 106.78 0.86 105.03 0.52 102.87 C0.67
								 100.7 3.33 98.37 7.07 97.85 L7.07 97.58 L7 97.62 L6.68 97.44 A9.36791 9.25322 -180 0 0 1.29 100.22
								 L1.34 100.12 L3.62 95.7 L3.21 95.47 L0.75 100.26 L0.75 100.24 Z" class="st3"/>
				</g>
				<g id="shape2010-13" transform="translate(22.971,-4.11394)">
					<title>Sheet.2010</title>
					<path d="M9.67 91.09 L9.67 102.15 L0 107.71 L0 96.63 L9.67 91.09 Z" class="st4"/>
				</g>
				<g id="shape2011-15" transform="translate(13.2965,-15.2001)">
					<title>Sheet.2011</title>
					<path d="M19.35 102.16 L9.67 107.71 L0 102.15 L9.67 96.6 L19.35 102.16 Z" class="st5"/>
				</g>
				<g id="shape2012-17" transform="translate(13.2965,-4.12972)">
					<title>Sheet.2012</title>
					<path d="M9.67 96.65 L9.67 107.71 L0 102.15 L0 91.09 L9.67 96.65 Z" class="st6"/>
				</g>
				<g id="shape2013-19" transform="translate(13.0697,-3.84578)">
					<title>Sheet.2013</title>
					<path d="M9.9 107.71 L0 102.03 L0 90.69 L9.9 85.02 L19.8 90.69 L19.8 102.02 L9.9 107.71 ZM0.46 101.75 L9.9 107.17
								 L19.34 101.75 L19.34 90.96 L9.9 85.54 L0.46 90.96 L0.46 101.75 Z" class="st3"/>
				</g>
				<g id="shape2014-21" transform="translate(28.7968,-10.4237)">
					<title>Sheet.2014</title>
					<path d="M14.6 102.29 A5.01772 4.95629 -180 0 0 13.86 99.46 L6.54 85.83 a0.939026 0.92753 -180 0 0 -1.66725 -1.42109E-14
								 L0 95.33 L0.41 95.56 L5.3 86.06 a0.456737 0.451146 0 0 1 0.41841 -0.255544 a0.459931 0.4543 0 0
								 1 0.415216 0.246079 L13.45 99.68 L13.45 99.72 A3.87748 3.83001 0 0 1 14.02 101.18 A10.5145 10.3858
								 -180 0 0 5.4 97.16 A11.2364 11.0988 -180 0 0 3.46 97.32 L3.78 97.5 L3.85 97.46 L3.85 97.73 A11.2332
								 11.0957 0 0 1 5.41 97.62 C10.12 97.62 13.92 100.39 14.09 102.76 C13.69 105.29 10.08 107.24 5.69
								 107.24 A13.8458 13.6763 0 0 1 3.85 107.12 L3.85 107.59 A14.4942 14.3168 -180 0 0 5.69 107.71 C10.26
								 107.71 14.02 105.62 14.53 102.93 L14.58 102.93 C14.58 102.88 14.58 102.82 14.56 102.77 A3.46545
								 3.42303 -180 0 0 14.6 102.29 Z" class="st3"/>
				</g>
			</g>
		</g>
	</g>
</svg>
