<?xml version="1.0" encoding="UTF-8" standalone="no"?>
<!-- Generated by Microsoft Visio, SVG Export Resource Health.svg Page-1 -->
<svg xmlns:dc="http://purl.org/dc/elements/1.1/" xmlns:cc="http://creativecommons.org/ns#" xmlns:rdf="http://www.w3.org/1999/02/22-rdf-syntax-ns#" xmlns:svg="http://www.w3.org/2000/svg" xmlns="http://www.w3.org/2000/svg" xmlns:sodipodi="http://sodipodi.sourceforge.net/DTD/sodipodi-0.dtd" xmlns:inkscape="http://www.inkscape.org/namespaces/inkscape" width="56.396562" height="53.907527" viewBox="0 0 56.396562 53.907527" xml:space="preserve" class="st5" version="1.1" id="svg43" sodipodi:docname="Resource Health.svg" style="font-size:12px;overflow:visible;color-interpolation-filters:sRGB;fill:none;fill-rule:evenodd;stroke-linecap:square;stroke-miterlimit:3" inkscape:version="0.92.5 (2060ec1f9f, 2020-04-08)">
  <metadata id="metadata47">
    <rdf:RDF>
      <cc:Work rdf:about="">
        <dc:format>image/svg+xml</dc:format>
        <dc:type rdf:resource="http://purl.org/dc/dcmitype/StillImage" />
      </cc:Work>
    </rdf:RDF>
  </metadata>
  <sodipodi:namedview pagecolor="#ffffff" bordercolor="#666666" borderopacity="1" objecttolerance="10" gridtolerance="10" guidetolerance="10" inkscape:pageopacity="0" inkscape:pageshadow="2" inkscape:window-width="640" inkscape:window-height="480" id="namedview45" showgrid="false" inkscape:zoom="1.4517402" inkscape:cx="37.594114" inkscape:cy="35.924402" inkscape:window-x="0" inkscape:window-y="0" inkscape:window-maximized="0" inkscape:current-layer="svg43" />
	<style type="text/css" id="style2">
	<![CDATA[
		.st1 {fill:url(#grad0-6);stroke:none;stroke-linecap:butt;stroke-width:34}
		.st2 {fill:none}
		.st3 {stroke:none;stroke-linecap:butt;stroke-width:34}
		.st4 {fill:#ffffff}
		.st5 {fill:none;fill-rule:evenodd;font-size:12px;overflow:visible;stroke-linecap:square;stroke-miterlimit:3}
	]]>
	</style>

	<defs id="Patterns_And_Gradients">
		<linearGradient id="grad0-6" x1="0.14764317" y1="69.564429" x2="55.285789" y2="69.564429" gradientTransform="scale(1.022823,0.97768631)" gradientUnits="userSpaceOnUse">
			<stop offset="0" stop-color="#1988d9" stop-opacity="1" id="stop4" />
			<stop offset="0.22" stop-color="#218ddc" stop-opacity="1" id="stop6" />
			<stop offset="0.56" stop-color="#379ce5" stop-opacity="1" id="stop8" />
			<stop offset="0.9" stop-color="#54aef0" stop-opacity="1" id="stop10" />
		</linearGradient>
	</defs>
	<g id="g41" transform="translate(-34.003413,-33.996811)">
		<title id="title14">Page-1</title>
		<g id="group1948-1" transform="translate(33.8524,-34.0157)">
			<title id="title16">Resource Health</title>
			<g id="group1949-2">
				<title id="title18">g8</title>
				<g id="shape1950-3">
					<title id="title20">path2</title>
					<path d="M 28.36,121.92 C 55.5,102.28 56.43,90.82 56.53,87.23 56.69,82.21 56.03,69.1 42.76,68.06 A 14.1318,14.2773 -180 0 0 28.36,77.62 14.1981,14.3443 -180 0 0 13.8,68.06 C 0.7,69.1 0,82.21 0.17,87.23 c 0,3.59 1.06,15.05 28.19,34.69 z" class="st1" id="path22" inkscape:connector-curvature="0" style="fill:url(#grad0-6);stroke:none;stroke-width:34;stroke-linecap:butt" />
				</g>
				<g id="shape1951-7" transform="translate(0,-0.167574)">
					<title id="title25">path4</title>
					<path d="M 56.53,87.4 C 56.69,82.37 56.03,69.27 42.76,68.23 A 14.1318,14.2773 -180 0 0 28.36,77.78 14.1981,14.3443 -180 0 0 13.8,68.23 C 0.7,69.27 0,82.37 0.17,87.4 c 0,3.59 0.79,14.88 27.96,34.52 z" class="st2" id="path27" inkscape:connector-curvature="0" style="fill:none" />
					<path d="M 56.53,87.4 C 56.69,82.37 56.03,69.27 42.76,68.23 A 14.1318,14.2773 -180 0 0 28.36,77.78 14.1981,14.3443 -180 0 0 13.8,68.23 C 0.7,69.27 0,82.37 0.17,87.4 c 0,3.59 0.79,14.88 27.96,34.52" class="st3" id="path29" inkscape:connector-curvature="0" style="stroke:none;stroke-width:34;stroke-linecap:butt" />
				</g>
				<g id="shape1952-10" transform="translate(4.34568,-12.9687)">
					<title id="title32">path6</title>
					<path d="M 52.18,98.23 H 38.91 a 0.563944,0.569751 -180 0 0 -0.431251,0.234604 L 34.47,105.47 a 0.53077,0.536237 0 0 1 -0.895675,0 L 27.83,94.44 a 1.02837,1.03896 -180 0 0 -1.86,0 l -5.5,16.59 a 0.53077,0.536237 0 0 1 -0.962021,0 L 14.8,100 a 1.02837,1.03896 -180 0 0 -1.83,0 l -6.43,11.7 a 0.53077,0.536237 0 0 1 -0.431251,0.26812 L 0,111.97 a 43.1251,43.5692 -180 0 0 2.99,4.09 h 5.57 a 0.431251,0.435692 -180 0 0 0.431251,-0.26812 L 13,108.31 a 0.53077,0.536237 0 0 1 0.928848,0 L 19.44,121.25 a 1.02837,1.03896 -180 0 0 1.92,0 l 5.81,-17.43 a 0.497597,0.502722 0 0 1 0.928848,0 L 32.94,113.11 a 0.995195,1.00544 -180 0 0 1.75818,0 L 40.87,102.62 a 0.53077,0.536237 0 0 1 0.431251,-0.26812 L 52.02,102.35 Z" class="st4" id="path34" inkscape:connector-curvature="0" style="fill:#ffffff" />
					<path d="M 52.18,98.23 H 38.91 a 0.563944,0.569751 -180 0 0 -0.431251,0.234604 L 34.47,105.47 a 0.53077,0.536237 0 0 1 -0.895675,0 L 27.83,94.44 a 1.02837,1.03896 -180 0 0 -1.86,0 l -5.5,16.59 a 0.53077,0.536237 0 0 1 -0.962021,0 L 14.8,100 a 1.02837,1.03896 -180 0 0 -1.83,0 l -6.43,11.7 a 0.53077,0.536237 0 0 1 -0.431251,0.26812 L 0,111.97 a 43.1251,43.5692 -180 0 0 2.99,4.09 h 5.57 a 0.431251,0.435692 -180 0 0 0.431251,-0.26812 L 13,108.31 a 0.53077,0.536237 0 0 1 0.928848,0 L 19.44,121.25 a 1.02837,1.03896 -180 0 0 1.92,0 l 5.81,-17.43 a 0.497597,0.502722 0 0 1 0.928848,0 L 32.94,113.11 a 0.995195,1.00544 -180 0 0 1.75818,0 L 40.87,102.62 a 0.53077,0.536237 0 0 1 0.431251,-0.26812 L 52.02,102.35" class="st3" id="path36" inkscape:connector-curvature="0" style="stroke:none;stroke-width:34;stroke-linecap:butt" />
				</g>
			</g>
		</g>
	</g>
</svg>