<?xml version="1.0" encoding="UTF-8" standalone="no"?>
<!DOCTYPE svg PUBLIC "-//W3C//DTD SVG 1.1//EN" "http://www.w3.org/Graphics/SVG/1.1/DTD/svg11.dtd">
<!-- Generated by Microsoft Visio, SVG Export Resource Graph query.svg Page-1 -->
<svg xmlns="http://www.w3.org/2000/svg" xmlns:xlink="http://www.w3.org/1999/xlink" xmlns:ev="http://www.w3.org/2001/xml-events"
		width="1.73185in" height="2.24388in" viewBox="0 0 124.693 161.559" xml:space="preserve" color-interpolation-filters="sRGB"
		class="st5">
	<style type="text/css">
	<![CDATA[
		.st1 {fill:#552f99;stroke:none;stroke-linecap:butt;stroke-width:34}
		.st2 {fill:#ffffff;stroke:none;stroke-linecap:butt;stroke-width:34}
		.st3 {fill:#b796f9;stroke:none;stroke-linecap:butt;stroke-width:34}
		.st4 {fill:#9a5fe3;stroke:none;stroke-linecap:butt;stroke-width:34}
		.st5 {fill:none;fill-rule:evenodd;font-size:12px;overflow:visible;stroke-linecap:square;stroke-miterlimit:3}
	]]>
	</style>

	<g>
		<title>Page-1</title>
		<g id="group1164-1" transform="translate(34,-70.8661)">
			<title>Resource Graph query</title>
			<g id="group1165-2">
				<title>Sheet.1165</title>
				<g id="shape1166-3" transform="translate(0,-17.6012)">
					<title>Sheet.1166</title>
					<path d="M0 159.61 A1.92682 1.94474 -180 0 0 1.93 161.56 L36.8 161.56 A1.92682 1.94474 -180 0 0 38.73 159.61
								 L38.73 124.41 A1.92682 1.94474 -180 0 0 36.8 122.47 L1.93 122.47 A1.92682 1.94474 -180 0 0 0 124.41
								 L0 159.61 Z" class="st1"/>
				</g>
				<g id="shape1167-5" transform="translate(2.87383,-44.6621)">
					<title>Sheet.1167</title>
					<path d="M0.62 155.89 L32.4 155.89 C32.72 155.89 33.02 155.89 33.02 156.09 L33.02 161.39 C33.02 161.39 32.72
								 161.56 32.4 161.56 L0.62 161.56 C0.26 161.39 0 161.39 0 161.39 L0 156.09 C0 156.09 0.26 155.89 0.62
								 155.89 Z" class="st2"/>
				</g>
				<g id="shape1168-7" transform="translate(2.87383,-24.1604)">
					<title>Sheet.1168</title>
					<path d="M0.62 145.77 L33.02 145.77 L33.02 151.18 L0 151.18 L0 145.94 C0 145.94 0.26 145.77 0.62 145.77 ZM0.62
								 156.15 L33.02 156.15 L33.02 161.39 C33.02 161.39 32.72 161.56 32.4 161.56 L0.62 161.56 C0.26 161.56
								 0 161.56 0 161.39 L0 156.32 C0 156.32 0.26 156.15 0.62 156.15 Z" class="st3"/>
				</g>
				<g id="shape1169-9" transform="translate(28.7803,-5.27376)">
					<title>Sheet.1169</title>
					<path d="M17.46 161.56 L0.28 144.12 A1.33895 1.3514 0 0 1 1.26 141.82 L23.11 141.82 L23.11 144.55 L4.5 144.55
								 L19.39 159.78 L17.46 161.56 Z" class="st3"/>
				</g>
				<g id="shape1170-11" transform="translate(26.7789,-19.7436)">
					<title>Sheet.1170</title>
					<ellipse cx="3.75558" cy="157.769" rx="3.75558" ry="3.79051" class="st4"/>
				</g>
				<g id="shape1171-13" transform="translate(47.0917,-19.2163)">
					<title>Sheet.1171</title>
					<ellipse cx="4.80061" cy="156.714" rx="4.80061" ry="4.84527" class="st4"/>
				</g>
				<g id="shape1172-15" transform="translate(40.7562,0)">
					<title>Sheet.1172</title>
					<ellipse cx="6.1069" cy="155.428" rx="6.1069" ry="6.13075" class="st4"/>
				</g>
			</g>
		</g>
	</g>
</svg>
