<?xml version="1.0" encoding="UTF-8" standalone="no"?>
<!DOCTYPE svg PUBLIC "-//W3C//DTD SVG 1.1//EN" "http://www.w3.org/Graphics/SVG/1.1/DTD/svg11.dtd">
<!-- Generated by Microsoft Visio, SVG Export Review Access.svg Page-1 -->
<svg xmlns="http://www.w3.org/2000/svg" xmlns:xlink="http://www.w3.org/1999/xlink" xmlns:ev="http://www.w3.org/2001/xml-events"
		width="1.49805in" height="2.20644in" viewBox="0 0 107.86 158.864" xml:space="preserve" color-interpolation-filters="sRGB"
		class="st7">
	<style type="text/css">
	<![CDATA[
		.st1 {fill:url(#grad0-6);stroke:none;stroke-linecap:butt;stroke-width:31.3047}
		.st2 {fill:#ffffff;fill-opacity:0.8;stroke:none;stroke-linecap:butt;stroke-width:31.3047}
		.st3 {fill:url(#grad0-12);stroke:none;stroke-linecap:butt;stroke-width:31.3047}
		.st4 {fill:#ffffff;fill-opacity:0.74;stroke:none;stroke-linecap:butt;stroke-width:10.7973}
		.st5 {fill:#7a7a7a;stroke:none;stroke-linecap:butt;stroke-width:10.7973}
		.st6 {fill:#000000;fill-opacity:0.4;stroke:none;stroke-linecap:butt;stroke-width:10.7973}
		.st7 {fill:none;fill-rule:evenodd;font-size:12px;overflow:visible;stroke-linecap:square;stroke-miterlimit:3}
	]]>
	</style>

	<defs id="Patterns_And_Gradients">
		<linearGradient id="grad0-6" x1="0" y1="0" x2="1" y2="0" gradientTransform="rotate(90 0.5 0.5)">
			<stop offset="0.22" stop-color="#32d4f5" stop-opacity="1"/>
			<stop offset="0.47" stop-color="#31d1f3" stop-opacity="1"/>
			<stop offset="0.63" stop-color="#2ec9eb" stop-opacity="1"/>
			<stop offset="0.77" stop-color="#29bade" stop-opacity="1"/>
			<stop offset="0.89" stop-color="#22a5cb" stop-opacity="1"/>
			<stop offset="1" stop-color="#198ab3" stop-opacity="1"/>
			<stop offset="1" stop-color="#198ab3" stop-opacity="1"/>
		</linearGradient>
		<linearGradient id="grad0-12" x1="0" y1="0" x2="1" y2="0" gradientTransform="rotate(85.386704019704 0.5 0.5)">
			<stop offset="0.22" stop-color="#32d4f5" stop-opacity="1"/>
			<stop offset="0.47" stop-color="#31d1f3" stop-opacity="1"/>
			<stop offset="0.63" stop-color="#2ec9eb" stop-opacity="1"/>
			<stop offset="0.77" stop-color="#29bade" stop-opacity="1"/>
			<stop offset="0.89" stop-color="#22a5cb" stop-opacity="1"/>
			<stop offset="1" stop-color="#198ab3" stop-opacity="1"/>
			<stop offset="1" stop-color="#198ab3" stop-opacity="1"/>
		</linearGradient>
	</defs>
	<g>
		<title>Page-1</title>
		<g id="group1131-1" transform="translate(31.3244,-70.8661)">
			<title>Review Access</title>
			<g id="group1132-2">
				<title>Icon-networking-82</title>
				<g id="shape1133-3" transform="translate(-2.51799E-13,-9.7765)">
					<title>path4</title>
					<path d="M37.84 158.86 A3.73479 3.64213 -90 0 0 41.54 155.25 L41.54 154.64 C40.06 142.72 33.44 133.03 20.8 133.03
								 C8.16 133.03 1.29 141.24 0 154.64 A3.82739 3.73243 -90 0 0 3.31 158.83 L37.84 158.83 L37.84 158.86
								 Z" class="st1"/>
				</g>
				<g id="shape1134-7" transform="translate(14.4782,-17.956)">
					<title>path6</title>
					<path d="M6.32 144.02 A11.9143 11.6187 90 0 1 0 142.13 L6.26 158.86 L12.46 142.23 A11.8217 11.5284 90 0 1 6.32
								 144.02 Z" class="st2"/>
				</g>
				<g id="shape1135-9" transform="translate(9.15046,-32.8026)">
					<title>circle8</title>
					<ellipse cx="11.6488" cy="146.919" rx="11.6488" ry="11.9452" class="st3"/>
				</g>
				<g id="shape1136-13" transform="translate(26.0977,-7.31915)">
					<title>circle6</title>
					<ellipse cx="8.95438" cy="149.682" rx="8.95438" ry="9.18221" class="st4"/>
				</g>
				<g id="shape1137-15" transform="translate(41.8865,0)">
					<title>path10</title>
					<path d="M7.36 158.86 C7.84 158.86 8.28 158.68 8.61 158.34 C8.95 158 9.13 157.54 9.14 157.06 A1.80344 1.75869
								 -90 0 0 8.62 155.77 L2.5 149.5 L0 152.06 L6.11 158.33 C6.44 158.67 6.89 158.86 7.36 158.86 Z"
							class="st5"/>
				</g>
				<g id="shape1138-17" transform="translate(42.4011,-4.52985)">
					<title>path12</title>
					<path d="M1.7 158.86 A6.04163 5.89173 -90 0 0 4.19 156.31 L4.2 156.29 L2.5 154.55 L0 157.12 L1.7 158.86 L1.7
								 158.86 Z" class="st6"/>
				</g>
				<g id="shape1139-19" transform="translate(22.6977,-3.83257)">
					<title>path14</title>
					<path d="M12.35 133.53 C5.53 133.53 0 139.2 0 146.19 C0 153.19 5.53 158.86 12.35 158.86 C19.18 158.86 24.71 153.19
								 24.71 146.19 C24.71 139.2 19.18 133.53 12.35 133.53 ZM12.35 155.38 C7.42 155.38 3.4 151.26 3.4 146.19
								 C3.4 141.13 7.42 137.01 12.35 137.01 C17.29 137.01 21.31 141.13 21.31 146.19 C21.31 151.26 17.29
								 155.38 12.35 155.38 Z" class="st5"/>
				</g>
			</g>
		</g>
	</g>
</svg>
