<?xml version="1.0" encoding="UTF-8" standalone="no"?>
<!-- Generated by Microsoft Visio, SVG Export Role (Custom).svg Page-1 -->

<svg
   xmlns:dc="http://purl.org/dc/elements/1.1/"
   xmlns:cc="http://creativecommons.org/ns#"
   xmlns:rdf="http://www.w3.org/1999/02/22-rdf-syntax-ns#"
   xmlns:svg="http://www.w3.org/2000/svg"
   xmlns="http://www.w3.org/2000/svg"
   xmlns:sodipodi="http://sodipodi.sourceforge.net/DTD/sodipodi-0.dtd"
   xmlns:inkscape="http://www.inkscape.org/namespaces/inkscape"
   width="0.70894605in"
   height="0.78744102in"
   viewBox="0 0 51.044166 56.695736"
   xml:space="preserve"
   class="st6"
   version="1.1"
   id="svg51"
   sodipodi:docname="Role (Custom).svg"
   style="font-size:12px;overflow:visible;color-interpolation-filters:sRGB;fill:none;fill-rule:evenodd;stroke-linecap:square;stroke-miterlimit:3"
   inkscape:version="0.92.5 (2060ec1f9f, 2020-04-08)"><metadata
   id="metadata55"><rdf:RDF><cc:Work
       rdf:about=""><dc:format>image/svg+xml</dc:format><dc:type
         rdf:resource="http://purl.org/dc/dcmitype/StillImage" /></cc:Work></rdf:RDF></metadata><sodipodi:namedview
   pagecolor="#ffffff"
   bordercolor="#666666"
   borderopacity="1"
   objecttolerance="10"
   gridtolerance="10"
   guidetolerance="10"
   inkscape:pageopacity="0"
   inkscape:pageshadow="2"
   inkscape:window-width="640"
   inkscape:window-height="480"
   id="namedview53"
   showgrid="false"
   inkscape:zoom="1.4193037"
   inkscape:cx="33.472186"
   inkscape:cy="37.78643"
   inkscape:window-x="0"
   inkscape:window-y="0"
   inkscape:window-maximized="0"
   inkscape:current-layer="svg51" />
	<style
   type="text/css"
   id="style2">
	<![CDATA[
		.st1 {fill:url(#grad0-6);stroke:none;stroke-linecap:butt;stroke-width:34}
		.st2 {fill:#ffffff;stroke:none;stroke-linecap:butt;stroke-width:34}
		.st3 {fill:#ff8c00;stroke:none;stroke-linecap:butt;stroke-width:12.4437}
		.st4 {fill:#ffc373;stroke:none;stroke-linecap:butt;stroke-width:12.4437}
		.st5 {fill:#ffffff;fill-opacity:0.5;stroke:none;stroke-linecap:butt;stroke-width:12.4437}
		.st6 {fill:none;fill-rule:evenodd;font-size:12px;overflow:visible;stroke-linecap:square;stroke-miterlimit:3}
	]]>
	</style>

	<defs
   id="Patterns_And_Gradients">
		<linearGradient
   id="grad0-6"
   x1="-0.024721717"
   y1="64.007921"
   x2="53.331466"
   y2="64.007921"
   gradientTransform="scale(0.94109583,1.062591)"
   gradientUnits="userSpaceOnUse">
			<stop
   offset="0"
   stop-color="#5e9624"
   stop-opacity="1"
   id="stop4" />
			<stop
   offset="0.06"
   stop-color="#659d25"
   stop-opacity="1"
   id="stop6" />
			<stop
   offset="0.48"
   stop-color="#90c82e"
   stop-opacity="1"
   id="stop8" />
			<stop
   offset="0.805"
   stop-color="#aae234"
   stop-opacity="1"
   id="stop10" />
			<stop
   offset="1"
   stop-color="#b4ec36"
   stop-opacity="1"
   id="stop12" />
		</linearGradient>
	</defs>
	<g
   id="g49"
   transform="translate(-34.000334,-33.998623)">
		<title
   id="title16">Page-1</title>
		<g
   id="group1844-1"
   transform="translate(34.0236,-34.0157)">
			<title
   id="title18">Role (Custom)</title>
			<g
   id="group1845-2">
				<title
   id="title20">g16</title>
				<g
   id="shape1846-3">
					<title
   id="title22">path2</title>
					<path
   d="M 50.16,119.59 C 48.72,107.8 43.09,97.81 32.7,94.58 A 14.0633,14.4271 -180 1 0 17.32,94.46 C 6.86,97.34 1.27,106.38 0,119.63 a 4.48945,4.60557 -180 0 0 4.01,5.05 c 0.14,0 0.3,0.03 0.45,0.03 H 45.7 a 4.46917,4.58476 -180 0 0 4.49,-4.56 4.73286,4.85527 -180 0 0 -0.03,-0.56 z"
   class="st1"
   id="path24"
   inkscape:connector-curvature="0"
   style="fill:url(#grad0-6);stroke:none;stroke-width:34;stroke-linecap:butt" />
				</g>
				<g
   id="shape1847-7"
   transform="translate(17.498,-9.89782)">
					<title
   id="title27">path4</title>
					<path
   d="M 7.63,106.78 A 14.0093,14.3716 0 0 1 0,104.48 l 7.55,20.23 7.49,-20.09 a 14.0126,14.3751 0 0 1 -7.41,2.16 z"
   class="st2"
   id="path29"
   inkscape:connector-curvature="0"
   style="fill:#ffffff;stroke:none;stroke-width:34;stroke-linecap:butt" />
				</g>
				<g
   id="shape1848-9"
   transform="translate(26.6494,-16.1608)">
					<title
   id="title32">path8</title>
					<path
   d="M 11.38,124.71 H 11.26 L 0.12,118.11 C 0,118.11 0,117.98 0,117.86 0,117.73 0.12,117.6 0.12,117.6 L 11.26,111 h 0.37 l 11.14,6.6 c 0.12,0 0.12,0.13 0.12,0.26 0,0.12 -0.12,0.25 -0.12,0.25 l -11.14,6.6 c -0.12,-0.13 -0.25,0 -0.25,0 z"
   class="st3"
   id="path34"
   inkscape:connector-curvature="0"
   style="fill:#ff8c00;stroke:none;stroke-width:12.44369984;stroke-linecap:butt" />
				</g>
				<g
   id="shape1849-11"
   transform="translate(25.0409,-0.167923)">
					<title
   id="title37">path10</title>
					<path
   d="M 11.38,124.71 H 11.26 L 0.12,118.11 C 0,118.11 0,117.98 0,117.86 v -13.33 c 0,-0.13 0.12,-0.26 0.12,-0.26 h 0.37 l 11.14,6.6 c 0.12,0.13 0.12,0.13 0.12,0.26 v 13.2 c 0,0.13 -0.12,0.25 -0.12,0.25 -0.12,0.13 -0.25,0.13 -0.25,0.13 z m 3.1,0 h -0.13 c -0.12,0 -0.12,-0.13 -0.12,-0.25 v -13.21 c 0,-0.12 0.12,-0.25 0.12,-0.25 l 11.14,-6.6 h 0.37 c 0.12,0 0.12,0.13 0.12,0.25 v 13.21 c 0,0.12 -0.12,0.25 -0.12,0.25 l -11.14,6.6 z"
   class="st4"
   id="path39"
   inkscape:connector-curvature="0"
   style="fill:#ffc373;stroke:none;stroke-width:12.44369984;stroke-linecap:butt" />
				</g>
				<g
   id="shape1850-13"
   transform="translate(39.2695,-0.167933)">
					<title
   id="title42">path12</title>
					<path
   d="M 0.25,124.71 H 0.12 C 0,124.71 0,124.58 0,124.46 V 111.25 C 0,111.13 0.12,111 0.12,111 l 11.14,-6.6 h 0.37 c 0.12,0 0.12,0.13 0.12,0.25 v 13.21 c 0,0.12 -0.12,0.25 -0.12,0.25 l -11.14,6.6 z"
   class="st5"
   id="path44"
   inkscape:connector-curvature="0"
   style="fill:#ffffff;fill-opacity:0.5;stroke:none;stroke-width:12.44369984;stroke-linecap:butt" />
				</g>
			</g>
		</g>
	</g>
</svg>