<?xml version="1.0" encoding="UTF-8" standalone="no"?>
<!DOCTYPE svg PUBLIC "-//W3C//DTD SVG 1.1//EN" "http://www.w3.org/Graphics/SVG/1.1/DTD/svg11.dtd">
<!-- Generated by Microsoft Visio, SVG Export Scheduler Job Collection.svg Page-1 -->
<svg xmlns="http://www.w3.org/2000/svg" xmlns:xlink="http://www.w3.org/1999/xlink" xmlns:ev="http://www.w3.org/2001/xml-events"
		width="1.5748in" height="1.75555in" viewBox="0 0 113.386 126.4" xml:space="preserve" color-interpolation-filters="sRGB"
		class="st9">
	<style type="text/css">
	<![CDATA[
		.st1 {fill:#ffffff;stroke:none;stroke-linecap:butt;stroke-width:12.24}
		.st2 {fill:#3999c6;stroke:none;stroke-linecap:butt;stroke-width:12.24}
		.st3 {fill:#a0a1a2;stroke:none;stroke-linecap:butt;stroke-width:12.24}
		.st4 {fill:#59b4d9;stroke:none;stroke-linecap:butt;stroke-width:12.24}
		.st5 {fill:#7a7a7a;stroke:none;stroke-linecap:butt;stroke-width:12.24}
		.st6 {fill:#1e1e1e;stroke:none;stroke-linecap:butt;stroke-width:12.24}
		.st7 {fill:#b8d432;stroke:none;stroke-linecap:butt;stroke-width:12.24}
		.st8 {fill:#1e1e1e;fill-opacity:0.2;stroke:none;stroke-linecap:butt;stroke-width:12.24}
		.st9 {fill:none;fill-rule:evenodd;font-size:12px;overflow:visible;stroke-linecap:square;stroke-miterlimit:3}
	]]>
	</style>

	<g>
		<title>Page-1</title>
		<g id="group1054-1" transform="translate(28.3465,-66.189)">
			<title>Scheduler Job Collection</title>
			<g id="group1055-2">
				<title>Sheet.1055</title>
				<g id="shape1056-3" transform="translate(18.2146,-13.3549)">
					<title>Sheet.1056</title>
					<path d="M12.86 98.8 C8.99 99.24 5.69 101.03 3.42 103.81 C1.14 106.59 0 110.15 0.34 113.82 C0.8 117.61 2.62 120.84
								 5.46 123.06 C8.31 125.29 11.95 126.4 15.71 126.07 C19.58 125.62 22.88 123.73 25.16 121.06 C27.44
								 118.28 28.57 114.71 28.23 111.04 C27.78 107.26 25.84 104.03 23 101.69 C20.61 99.8 17.53 98.69 14.34
								 98.69 C13.89 98.69 13.43 98.69 12.86 98.8 Z" class="st1"/>
				</g>
				<g id="shape1057-5" transform="translate(25.3866,-11.0178)">
					<title>Sheet.1057</title>
					<path d="M23.22 108.37 C22.77 103.92 20.38 100.02 17.08 97.46 C16.39 96.91 15.71 96.46 15.03 96.13 L13.77 98.58
								 C14.34 98.91 14.8 99.24 15.37 99.58 C18.1 101.8 20.04 104.92 20.49 108.59 C20.83 112.27 19.69 115.72
								 17.53 118.39 C15.37 121.06 12.07 122.84 8.31 123.28 C5.81 123.51 3.42 123.06 1.25 122.17 L0 124.62
								 C2.62 125.84 5.58 126.4 8.65 126.07 C13.21 125.62 17.08 123.39 19.69 120.17 C22.31 117.05 23.68
								 112.82 23.22 108.37 Z" class="st2"/>
				</g>
				<g id="shape1058-7" transform="translate(15.3686,-12.7985)">
					<title>Sheet.1058</title>
					<path d="M8.31 122.28 C5.58 120.17 3.76 116.94 3.3 113.27 C2.96 109.59 4.1 106.14 6.26 103.47 C8.42 100.8 11.73
								 99.02 15.48 98.58 C18.56 98.24 21.4 98.91 23.79 100.36 L25.05 97.91 C22.09 96.24 18.67 95.46 15.14
								 95.79 C10.59 96.24 6.72 98.47 4.1 101.69 C1.48 104.92 0 109.04 0.57 113.49 C1.02 117.94 3.3 121.73
								 6.6 124.29 C7.63 125.06 8.77 125.84 10.02 126.4 L11.27 123.95 C10.13 123.51 9.22 122.95 8.31 122.28
								 Z" class="st3"/>
				</g>
				<g id="shape1059-9" transform="translate(15.3686,-12.7985)">
					<title>Sheet.1059</title>
					<path d="M8.31 122.28 C5.58 120.17 3.76 116.94 3.3 113.27 C2.96 109.59 4.1 106.14 6.26 103.47 C8.42 100.8 11.73
								 99.02 15.48 98.58 C18.56 98.24 21.4 98.91 23.79 100.36 L25.05 97.91 C22.09 96.24 18.67 95.46 15.14
								 95.79 C10.59 96.24 6.72 98.47 4.1 101.69 C1.48 104.92 0 109.04 0.57 113.49 C1.02 117.94 3.3 121.73
								 6.6 124.29 C7.63 125.06 8.77 125.84 10.02 126.4 L11.27 123.95 C10.13 123.51 9.22 122.95 8.31 122.28
								 Z" class="st4"/>
				</g>
				<g id="shape1060-11" transform="translate(31.7617,-22.8146)">
					<title>Sheet.1060</title>
					<path d="M7.4 126.07 L1.02 123.84 C0.34 123.62 0 122.84 0.23 122.17 C0.46 121.5 1.25 121.17 1.94 121.39 L8.31
								 123.62 C8.99 123.84 9.33 124.62 9.11 125.29 C8.88 125.95 8.08 126.4 7.4 126.07 Z" class="st5"/>
				</g>
				<g id="shape1061-13" transform="translate(30.7371,-25.5969)">
					<title>Sheet.1061</title>
					<path d="M1.37 126.4 C0.68 126.4 0 125.84 0 125.06 L0 114.16 C0 113.49 0.57 112.82 1.37 112.82 C2.05 112.82 2.73
								 113.38 2.73 114.16 L2.73 125.06 C2.73 125.84 2.16 126.4 1.37 126.4 Z" class="st5"/>
				</g>
				<g id="shape1062-15" transform="translate(30.1679,-24.9292)">
					<title>Sheet.1062</title>
					<ellipse cx="1.9353" cy="124.508" rx="1.9353" ry="1.89195" class="st6"/>
				</g>
				<g id="shape1063-17" transform="translate(8.08272,-0.111291)">
					<title>Sheet.1063</title>
					<path d="M22.43 113.6 L29.14 119.72 L23.22 126.4 L23.34 122.06 L21.74 122.06 C9.79 122.06 0 112.6 0 100.8 C0
								 89.01 9.56 79.66 21.63 79.66 C27.66 79.66 33.13 82.11 37.11 86 C33.7 82.77 29.03 80.77 23.91 80.66
								 C13.55 80.66 5.12 88.89 5.12 99.02 C5.12 108.82 13.21 116.72 23 117.39 L22.43 113.6 Z" class="st7"/>
				</g>
				<g id="shape1064-19" transform="translate(7.96888,2.41585E-13)">
					<title>Sheet.1064</title>
					<path d="M23.79 120.06 C11.84 119.61 2.62 109.82 3.07 98.24 C3.42 91.01 7.4 84.78 13.21 81.22 C5.46 84.44 0 92.01
								 0 100.8 C0 112.49 9.68 122.06 21.74 122.06 L23.34 122.06 L23.22 126.4 L29.14 119.72 C27.44 120.06
								 25.61 120.17 23.79 120.06 Z" class="st8"/>
				</g>
				<g id="shape1065-21" transform="translate(0,-2.78227)">
					<title>Sheet.1065</title>
					<path d="M10.81 126.18 C10.59 126.18 10.25 126.07 10.02 125.95 L2.28 121.5 C0.91 120.72 0 119.17 0 117.72 L0
								 89.67 C0 88.23 0.91 86.56 2.28 85.89 L10.02 81.44 C10.81 80.99 11.84 81.22 12.29 81.99 C12.75 82.77
								 12.52 83.78 11.73 84.22 L3.98 88.67 C3.76 88.78 3.42 89.34 3.42 89.67 L3.42 117.72 C3.42 118.05
								 3.76 118.61 3.98 118.72 L11.73 123.17 C12.52 123.62 12.75 124.62 12.29 125.4 C11.95 125.84 11.38
								 126.18 10.81 126.18 ZM45.88 81.22 C46.11 81.22 46.45 81.33 46.67 81.44 L54.42 85.89 C55.78 86.67
								 56.69 88.23 56.69 89.67 L56.69 117.72 C56.69 119.17 55.78 120.84 54.42 121.5 L46.67 125.95 C45.88
								 126.4 44.85 126.18 44.4 125.4 C43.94 124.62 44.17 123.62 44.97 123.17 L52.71 118.72 C52.94 118.61
								 53.28 118.05 53.28 117.72 L53.28 89.67 C53.28 89.34 52.94 88.78 52.71 88.67 L44.97 84.22 C44.17
								 83.78 43.94 82.77 44.4 81.99 C44.85 81.55 45.31 81.22 45.88 81.22 Z" class="st5"/>
				</g>
			</g>
		</g>
	</g>
</svg>
