<?xml version="1.0" encoding="UTF-8" standalone="no"?>
<!-- Generated by Microsoft Visio, SVG Export Security Alert.svg Page-1 -->

<svg
   xmlns:dc="http://purl.org/dc/elements/1.1/"
   xmlns:cc="http://creativecommons.org/ns#"
   xmlns:rdf="http://www.w3.org/1999/02/22-rdf-syntax-ns#"
   xmlns:svg="http://www.w3.org/2000/svg"
   xmlns="http://www.w3.org/2000/svg"
   xmlns:sodipodi="http://sodipodi.sourceforge.net/DTD/sodipodi-0.dtd"
   xmlns:inkscape="http://www.inkscape.org/namespaces/inkscape"
   width="48.189999"
   height="56.693565"
   viewBox="0 0 48.189998 56.693566"
   xml:space="preserve"
   class="st4"
   version="1.1"
   id="svg35"
   sodipodi:docname="Security Alert.svg"
   style="font-size:12px;overflow:visible;color-interpolation-filters:sRGB;fill:none;fill-rule:evenodd;stroke-linecap:square;stroke-miterlimit:3"
   inkscape:version="0.92.5 (2060ec1f9f, 2020-04-08)"><metadata
   id="metadata39"><rdf:RDF><cc:Work
       rdf:about=""><dc:format>image/svg+xml</dc:format><dc:type
         rdf:resource="http://purl.org/dc/dcmitype/StillImage" /></cc:Work></rdf:RDF></metadata><sodipodi:namedview
   pagecolor="#ffffff"
   bordercolor="#666666"
   borderopacity="1"
   objecttolerance="10"
   gridtolerance="10"
   guidetolerance="10"
   inkscape:pageopacity="0"
   inkscape:pageshadow="2"
   inkscape:window-width="640"
   inkscape:window-height="480"
   id="namedview37"
   showgrid="false"
   inkscape:zoom="1.9199636"
   inkscape:cx="24.0945"
   inkscape:cy="27.448367"
   inkscape:window-x="0"
   inkscape:window-y="0"
   inkscape:window-maximized="0"
   inkscape:current-layer="svg35" />
	<style
   type="text/css"
   id="style2">
	<![CDATA[
		.st1 {fill:#0078d4;stroke:none;stroke-linecap:butt;stroke-width:32.2105}
		.st2 {fill:url(#grad0-8);stroke:none;stroke-linecap:butt;stroke-width:32.2105}
		.st3 {fill:#ffffff;stroke:none;stroke-linecap:butt;stroke-width:32.2105}
		.st4 {fill:none;fill-rule:evenodd;font-size:12px;overflow:visible;stroke-linecap:square;stroke-miterlimit:3}
	]]>
	</style>

	<defs
   id="Patterns_And_Gradients">
		<linearGradient
   id="grad0-8"
   x1="0"
   y1="64.115828"
   x2="48.419087"
   y2="64.115828"
   gradientTransform="scale(0.91554803,1.092242)"
   gradientUnits="userSpaceOnUse">
			<stop
   offset="0.18"
   stop-color="#5ea0ef"
   stop-opacity="1"
   id="stop4" />
			<stop
   offset="1"
   stop-color="#0078d4"
   stop-opacity="1"
   id="stop6" />
		</linearGradient>
	</defs>
	<g
   id="g33"
   transform="translate(-32.2105,-32.2143)">
		<title
   id="title10">Page-1</title>
		<g
   id="group1830-1"
   transform="translate(32.2105,-34.0157)">
			<title
   id="title12">Security Alert</title>
			<g
   id="group1831-2">
				<title
   id="title14">Sheet.1831</title>
				<g
   id="shape1832-3">
					<title
   id="title16">Sheet.1832</title>
					<path
   d="m 48.19,92.67 c 0,15.23 -19.15,27.51 -23.26,30.02 a 1.44567,1.41743 0 0 1 -1.59,0 C 19.15,120.25 0,107.91 0,92.67 v -18.3 a 1.48688,1.45784 0 0 1 1.5,-1.45 c 14.88,-0.37 11.4,-6.69 22.56,-6.69 11.15,0 7.75,6.32 22.62,6.7 a 1.54078,1.51068 0 0 1 1.51,1.44 z"
   class="st1"
   id="path18"
   inkscape:connector-curvature="0"
   style="fill:#0078d4;stroke:none;stroke-width:32.21049881;stroke-linecap:butt" />
				</g>
				<g
   id="shape1833-5"
   transform="translate(1.93073,-1.89065)">
					<title
   id="title21">Sheet.1833</title>
					<path
   d="m 44.33,94.66 c 0,14.32 -17.64,25.75 -21.45,28.08 a 1.51859,1.48892 0 0 1 -1.43,0 C 17.64,120.4 0,108.9 0,94.66 V 77.57 a 1.3886,1.36148 0 0 1 1.35,-1.32 c 13.66,-0.39 10.56,-6.22 20.81,-6.22 10.25,0 7.15,5.9 20.82,6.22 a 1.3886,1.36148 0 0 1 1.35,1.32 z"
   class="st2"
   id="path23"
   inkscape:connector-curvature="0"
   style="fill:url(#grad0-8);stroke:none;stroke-width:32.21049881;stroke-linecap:butt" />
				</g>
				<g
   id="shape1834-9"
   transform="translate(21.2031,-17.008)">
					<title
   id="title26">Sheet.1834</title>
					<path
   d="M 2.89,122.92 A 2.89134,2.83486 -180 1 0 0,120.08 a 2.89134,2.83486 -180 0 0 2.89,2.84 z m 1.45,-7.56 H 1.45 A 1.4108,1.38324 0 0 1 0,114.02 V 95.91 a 1.4108,1.38324 0 0 1 1.45,-1.34 h 2.89 a 1.4108,1.38324 0 0 1 1.44,1.34 v 18.11 a 1.4108,1.38324 0 0 1 -1.44,1.34 z"
   class="st3"
   id="path28"
   inkscape:connector-curvature="0"
   style="fill:#ffffff;stroke:none;stroke-width:32.21049881;stroke-linecap:butt" />
				</g>
			</g>
		</g>
	</g>
</svg>