<?xml version="1.0" encoding="UTF-8" standalone="no"?>
<!DOCTYPE svg PUBLIC "-//W3C//DTD SVG 1.1//EN" "http://www.w3.org/Graphics/SVG/1.1/DTD/svg11.dtd">
<!-- Generated by Microsoft Visio, SVG Export Secure Score.svg Page-1 -->
<svg xmlns="http://www.w3.org/2000/svg" xmlns:xlink="http://www.w3.org/1999/xlink" xmlns:ev="http://www.w3.org/2001/xml-events"
		width="1.52466in" height="1.70721in" viewBox="0 0 109.775 122.919" xml:space="preserve" color-interpolation-filters="sRGB"
		class="st4">
	<style type="text/css">
	<![CDATA[
		.st1 {fill:#1b93eb;stroke:none;stroke-linecap:butt;stroke-width:32.2105}
		.st2 {fill:url(#grad0-8);stroke:none;stroke-linecap:butt;stroke-width:32.2105}
		.st3 {fill:#ffffff;stroke:none;stroke-linecap:butt;stroke-width:32.2105}
		.st4 {fill:none;fill-rule:evenodd;font-size:12px;overflow:visible;stroke-linecap:square;stroke-miterlimit:3}
	]]>
	</style>

	<defs id="Patterns_And_Gradients">
		<linearGradient id="grad0-8" x1="0" y1="0" x2="1" y2="0" gradientTransform="rotate(-90 0.5 0.5)">
			<stop offset="0" stop-color="#1b93eb" stop-opacity="1"/>
			<stop offset="0.21" stop-color="#2095eb" stop-opacity="1"/>
			<stop offset="0.44" stop-color="#2e9ced" stop-opacity="1"/>
			<stop offset="0.69" stop-color="#45a7ef" stop-opacity="1"/>
			<stop offset="0.95" stop-color="#64b6f1" stop-opacity="1"/>
			<stop offset="1" stop-color="#6bb9f2" stop-opacity="1"/>
		</linearGradient>
	</defs>
	<g>
		<title>Page-1</title>
		<g id="group966-1" transform="translate(32.2105,-34.0157)">
			<title>Secure Score</title>
			<g id="group967-2">
				<title>Sheet.967</title>
				<g id="shape968-3">
					<title>Sheet.968</title>
					<path d="M45.35 92.61 C45.35 107.97 27.53 120 23.65 122.67 A1.47743 1.52352 0 0 1 22.03 122.67 C18.14 120.33
								 0 107.99 0 92.61 L0 74.24 A1.3969 1.44047 0 0 1 1.3 72.9 C15.55 72.57 12.31 66.23 22.67 66.23 C33.04
								 66.23 29.8 72.57 43.73 72.9 A1.48363 1.5299 0 0 1 45.35 74.24 L45.35 92.61 Z" class="st1"/>
				</g>
				<g id="shape969-5" transform="translate(1.94513,-2.33819)">
					<title>Sheet.969</title>
					<path d="M41.45 95.28 C41.45 109.31 24.94 120.66 21.37 122.67 a0.988051 1.01887 0 0 1 -1.29469 0 C16.52 120.33
								 0 109.31 0 95.28 L0 78.58 A1.78097 1.83652 0 0 1 0.97 76.91 C13.6 76.58 10.69 70.9 20.42 70.9 C30.15
								 70.9 27.23 76.91 39.85 76.91 A1.3938 1.43728 0 0 1 41.15 78.25 L41.45 95.28 Z" class="st2"/>
				</g>
				<g id="shape970-9" transform="translate(11.5162,-20.1126)">
					<title>Sheet.970</title>
					<path d="M10.29 101.52 a0.969467 0.999708 0 0 1 1.7407 0 L14.74 107.18 a0.972564 1.0029 -180 0 0 0.730972 0.54936
								 L21.53 108.64 a0.972564 1.0029 0 0 1 0.538937 1.70877 L17.68 114.75 a0.96637 0.996514 -180 0 0 -0.27876
								 0.887919 L18.44 121.87 a0.969467 0.999708 0 0 1 -1.40929 1.05401 L11.61 119.98 a0.972564 1.0029
								 -180 0 0 -0.904423 -1.42109E-14 L5.28 122.92 a0.969467 0.999708 0 0 1 -1.40929 -1.05401 L4.91 115.64
								 a0.96637 0.996514 -180 0 0 -0.27876 -0.887919 L0.24 110.34 a0.972564 1.0029 0 0 1 0.538937 -1.70877
								 L6.84 107.73 a0.972564 1.0029 -180 0 0 0.730972 -0.54936 L10.29 101.52 Z" class="st3"/>
				</g>
			</g>
		</g>
	</g>
</svg>
