<?xml version="1.0" encoding="UTF-8" standalone="no"?>
<!DOCTYPE svg PUBLIC "-//W3C//DTD SVG 1.1//EN" "http://www.w3.org/Graphics/SVG/1.1/DTD/svg11.dtd">
<!-- Generated by Microsoft Visio, SVG Export Services Hub Connector.svg Page-1 -->
<svg xmlns="http://www.w3.org/2000/svg" xmlns:xlink="http://www.w3.org/1999/xlink" xmlns:ev="http://www.w3.org/2001/xml-events"
		width="1.2124in" height="1.43297in" viewBox="0 0 87.2929 103.174" xml:space="preserve" color-interpolation-filters="sRGB"
		class="st4">
	<style type="text/css">
	<![CDATA[
		.st1 {fill:#919191;stroke:none;stroke-linecap:butt;stroke-width:15.3}
		.st2 {fill:#ffffff;stroke:none;stroke-linecap:butt;stroke-width:15.3}
		.st3 {fill:#2f2f2f;stroke:none;stroke-linecap:butt;stroke-width:15.3}
		.st4 {fill:none;fill-rule:evenodd;font-size:12px;overflow:visible;stroke-linecap:square;stroke-miterlimit:3}
	]]>
	</style>

	<g>
		<title>Page-1</title>
		<g id="group1539-1" transform="translate(15.3,-34.0157)">
			<title>Services Hub Connector</title>
			<g id="group1540-2">
				<title>Sheet.1540</title>
				<g id="shape1541-3" transform="translate(12.2244,-5.3409)">
					<title>Sheet.1541</title>
					<path d="M22.24 77.72 L26.52 77.72 A4.38236 4.42381 0 0 1 31.29 74.26 A4.39654 4.43811 0 0 1 35.18 79.15 A4.38378
								 4.42524 0 0 1 30.33 83.07 A4.39654 4.43811 0 0 1 26.53 79.62 L22.24 79.61 L22.24 90.2 L26.65 94.67
								 A7.67764 7.75025 0 0 1 31.31 93.06 C33.65 93.06 35.83 94.11 37.3 95.95 C37.33 96 37.36 96.04 37.39
								 96.09 A23.9528 24.1793 -180 0 0 44.47 78.91 C44.47 65.54 33.69 54.66 20.43 54.66 C12.41 54.66 5.31
								 58.64 0.94 64.74 L22.24 64.74 L22.24 77.72 ZM25.31 96 L21.04 91.68 L0 91.68 C4.25 98.57 11.81 103.17
								 20.43 103.17 C21.63 103.17 22.81 103.08 23.96 102.91 A7.68898 7.76169 0 0 1 25.31 96 Z"
							class="st1"/>
				</g>
				<g id="shape1542-5" transform="translate(0,-5.26839)">
					<title>Sheet.1542</title>
					<path d="M25.64 76.73 L19.51 76.73 L19.51 70.77 L16.17 70.77 L16.17 85.71 L19.51 85.71 L19.51 79.63 L25.64 79.63
								 L25.64 85.72 L28.99 85.72 L28.99 70.77 L25.64 70.77 L25.64 76.73 L25.64 76.73 ZM9.66 85.92 C10 85.88
								 10.34 85.83 10.68 85.75 C11.39 85.59 13.14 85.26 14.09 83.36 C14.38 82.78 14.56 82.1 14.56 81.26
								 C14.56 80.65 14.47 80.13 14.3 79.67 A3.66803 3.70272 -180 0 0 13.52 78.46 A5.62394 5.67712 -180
								 0 0 12.31 77.5 A13.0961 13.2199 -180 0 0 10.71 76.7 A18.1134 18.2847 0 0 1 9.55 76.18 A5.87622 5.93179
								 0 0 1 8.82 75.75 C8.77 75.72 8.71 75.69 8.67 75.65 C8.43 75.48 8.24 75.29 8.11 75.09 A1.18346 1.19466
								 0 0 1 7.91 74.42 A1.14803 1.15889 0 0 1 8.09 73.8 A1.55906 1.5738 0 0 1 8.58 73.32 C8.79 73.2 9.03
								 73.1 9.32 73.03 C9.34 73.03 9.35 73.02 9.37 73.02 C9.68 72.94 10.02 72.91 10.41 72.91 A6.68693 6.75017
								 0 0 1 12.2 73.17 C12.51 73.25 12.81 73.37 13.11 73.5 C13.4 73.63 13.67 73.78 13.92 73.96 L13.92
								 70.84 C13.23 70.52 11.52 70.27 10.22 70.27 L10.18 70.27 C6.64 70.28 5.18 72.14 4.87 72.7 C4.56 73.26
								 4.41 73.93 4.41 74.7 C4.41 75.7 4.69 76.54 5.26 77.25 C5.83 77.95 6.69 78.54 7.85 79.03 C8.12 79.14
								 8.39 79.26 8.64 79.36 C8.8 79.44 8.96 79.51 9.11 79.58 C9.51 79.76 9.84 79.95 10.14 80.14 C10.42
								 80.33 10.65 80.55 10.81 80.78 A1.27701 1.28908 0 0 1 10.9 82.16 A1.36772 1.38065 0 0 1 10.43 82.63
								 C10.22 82.77 9.98 82.88 9.65 82.95 A7.7811 7.85469 0 0 1 9 83.07 C5.18 83.63 1.26 81.64 0 81.08
								 L0 84.16 C1.22 84.47 5.48 86.42 9.66 85.92 ZM6.73 98.1 A2.51291 2.53668 -180 1 0 7.01 98.12 C6.91
								 98.11 6.83 98.1 6.73 98.1 Z" class="st2"/>
				</g>
				<g id="shape1543-7">
					<title>Sheet.1543</title>
					<path d="M49.52 90.61 A7.63228 7.70446 -180 0 0 43.54 87.72 C41.86 87.72 40.21 88.29 38.87 89.32 L34.46 84.86
								 L34.46 74.27 L38.75 74.28 A4.39937 4.44098 -180 0 0 43.04 77.76 A4.38378 4.42524 -180 0 0 47.4 73.81
								 A4.39654 4.43811 -180 0 0 43.03 68.89 A4.38236 4.42381 -180 0 0 38.74 72.38 L34.46 72.38 L34.46
								 59.4 L0 59.4 L0 75.81 C1.26 76.37 5.18 78.36 8.99 77.8 C9.2 77.77 9.42 77.74 9.64 77.69 C9.96 77.61
								 10.21 77.5 10.42 77.37 A1.36772 1.38065 -180 0 0 10.89 76.89 A1.27134 1.28336 -180 0 0 10.8 75.51
								 A2.66457 2.68977 -180 0 0 10.12 74.87 A6.96331 7.02916 -180 0 0 9.1 74.31 C8.95 74.24 8.79 74.17
								 8.63 74.1 A27.8277 28.0909 -180 0 0 7.84 73.76 C6.68 73.28 5.82 72.68 5.25 71.98 C4.68 71.28 4.4
								 70.43 4.4 69.44 C4.4 68.66 4.55 67.99 4.86 67.43 C5.17 66.88 6.63 65.02 10.17 65 L10.21 65 C11.51
								 65 13.21 65.25 13.91 65.57 L13.91 68.69 A5.34047 5.39098 -180 0 0 13.09 68.23 A6.42331 6.48405 -180
								 0 0 12.19 67.9 A7.73717 7.81034 -180 0 0 11.27 67.71 A6.01795 6.07486 -180 0 0 10.4 67.64 C10.02
								 67.64 9.67 67.68 9.36 67.75 C9.34 67.76 9.33 67.76 9.31 67.77 C9.03 67.84 8.78 67.94 8.58 68.06
								 A1.51937 1.53374 -180 0 0 8.08 68.53 A1.09417 1.10452 -180 0 0 7.91 69.16 A1.17638 1.1875 -180 0
								 0 8.1 69.83 C8.23 70.03 8.42 70.21 8.66 70.39 C8.7 70.42 8.76 70.46 8.81 70.49 C9.02 70.63 9.26
								 70.78 9.54 70.91 C9.88 71.08 10.27 71.26 10.71 71.44 C11.3 71.69 11.83 71.96 12.3 72.24 C12.77 72.52
								 13.18 72.84 13.51 73.19 C13.85 73.55 14.11 73.95 14.29 74.41 C14.47 74.86 14.55 75.39 14.55 76 C14.55
								 76.83 14.37 77.52 14.08 78.09 C13.14 79.99 11.38 80.33 10.67 80.49 A10.6257 10.7262 0 0 1 9.65 80.66
								 C5.48 81.16 1.22 79.2 0 78.89 L0 86.34 L5.8 86.34 L5.79 91.04 A4.38094 4.42238 -180 0 0 2.37 94.89
								 A4.3937 4.43525 -180 0 0 6.74 99.8 A4.38378 4.42524 -180 0 0 11.1 95.85 A4.39512 4.43668 -180 0
								 0 7.67 91.04 L7.68 86.33 L33.27 86.33 L37.54 90.65 A7.69465 7.76741 -180 0 0 36.18 97.56 A7.6252
								 7.69731 -180 0 0 43.55 103.17 C45.28 103.17 46.98 102.57 48.34 101.47 A7.66205 7.73451 -180 0 0
								 49.62 90.74 C49.58 90.7 49.56 90.65 49.52 90.61 L49.52 90.61 ZM40.54 73.05 A2.51433 2.53811 0 1
								 1 45.53 73.61 A2.51433 2.53811 0 0 1 40.54 73.05 ZM9.23 95.65 A2.5139 2.53767 0 1 1 4.24 95.1 A2.5139
								 2.53767 0 0 1 9.23 95.65 ZM28.99 80.45 L25.64 80.45 L25.64 74.36 L19.51 74.36 L19.51 80.44 L16.17
								 80.44 L16.17 65.5 L19.51 65.5 L19.51 71.46 L25.64 71.46 L25.64 65.5 L28.99 65.5 L28.99 80.45 ZM47.16
								 100 A5.78268 5.83736 0 0 1 39.03 99.1 A5.77559 5.83021 0 0 1 38.88 92.01 C39.17 91.6 39.52 91.22
								 39.93 90.89 C40.02 90.82 40.12 90.75 40.22 90.68 A5.7685 5.82306 0 0 1 43.54 89.61 A5.78126 5.83593
								 0 0 1 47.16 100 Z" class="st3"/>
				</g>
				<g id="shape1544-9" transform="translate(38.3896,-1.89142)">
					<title>Sheet.1544</title>
					<path d="M9.67 93.69 A5.77276 5.82735 -180 0 0 1.83 92.57 C1.73 92.64 1.63 92.71 1.54 92.79 C1.13 93.12 0.78
								 93.49 0.49 93.9 A5.77559 5.83021 -180 0 0 5.16 103.17 A5.78126 5.83593 -180 0 0 9.67 93.69 L9.67
								 93.69 Z" class="st2"/>
				</g>
			</g>
		</g>
	</g>
</svg>
