<?xml version="1.0" encoding="UTF-8" standalone="no"?>
<!DOCTYPE svg PUBLIC "-//W3C//DTD SVG 1.1//EN" "http://www.w3.org/Graphics/SVG/1.1/DTD/svg11.dtd">
<!-- Generated by Microsoft Visio, SVG Export Server Farm.svg Page-1 -->
<svg xmlns="http://www.w3.org/2000/svg" xmlns:xlink="http://www.w3.org/1999/xlink" xmlns:ev="http://www.w3.org/2001/xml-events"
		width="1.5748in" height="1.85039in" viewBox="0 0 113.386 133.228" xml:space="preserve" color-interpolation-filters="sRGB"
		class="st6">
	<style type="text/css">
	<![CDATA[
		.st1 {fill:url(#grad0-6);stroke:none;stroke-linecap:butt;stroke-width:0.75}
		.st2 {fill:#003067;stroke:none;stroke-linecap:butt;stroke-width:0.75}
		.st3 {fill:#50e6ff;stroke:none;stroke-linecap:butt;stroke-width:0.75}
		.st4 {fill:url(#grad0-18);stroke:none;stroke-linecap:butt;stroke-width:0.75}
		.st5 {fill:#005ba1;stroke:none;stroke-linecap:butt;stroke-width:0.75}
		.st6 {fill:none;fill-rule:evenodd;font-size:12px;overflow:visible;stroke-linecap:square;stroke-miterlimit:3}
	]]>
	</style>

	<defs id="Patterns_And_Gradients">
		<linearGradient id="grad0-6" x1="0" y1="0" x2="1" y2="0" gradientTransform="rotate(90 0.5 0.5)">
			<stop offset="0" stop-color="#b3b2b3" stop-opacity="1"/>
			<stop offset="0.375" stop-color="#afaeaf" stop-opacity="1"/>
			<stop offset="0.765" stop-color="#a2a2a2" stop-opacity="1"/>
			<stop offset="1" stop-color="#979797" stop-opacity="1"/>
		</linearGradient>
		<linearGradient id="grad0-18" x1="0" y1="0" x2="1" y2="0" gradientTransform="rotate(-90 0.5 0.5)">
			<stop offset="0" stop-color="#0078d4" stop-opacity="1"/>
			<stop offset="0.155" stop-color="#1380da" stop-opacity="1"/>
			<stop offset="0.53" stop-color="#3c91e5" stop-opacity="1"/>
			<stop offset="0.82" stop-color="#559cec" stop-opacity="1"/>
			<stop offset="1" stop-color="#5ea0ef" stop-opacity="1"/>
		</linearGradient>
	</defs>
	<g>
		<title>Page-1</title>
		<g id="group983-1" transform="translate(28.3465,-70.8661)">
			<title>Server Farm</title>
			<g id="group984-2">
				<title>Sheet.984</title>
				<g id="shape985-3" transform="translate(0,-3.25818)">
					<title>Sheet.985</title>
					<path d="M35.01 131.42 A1.93241 1.91422 0 0 1 32.99 133.23 L2.02 133.23 A1.93241 1.91422 0 0 1 0 131.42 L0 81.6
								 A1.93241 1.91422 0 0 1 2.01 79.79 L32.99 79.79 A1.93241 1.91422 0 0 1 35.01 81.6 L35.01 131.42 Z"
							class="st1"/>
				</g>
				<g id="shape986-7" transform="translate(5.13737,-29.6804)">
					<title>Sheet.986</title>
					<path d="M0 129.06 A4.01631 3.97851 0 0 1 3.81 124.89 L21.24 124.89 A4.01631 3.97851 0 0 1 25.04 129.06 A4.01631
								 3.97851 0 0 1 21.24 133.23 L3.81 133.23 A4.01631 3.97851 0 0 1 0 129.06 Z" class="st2"/>
				</g>
				<g id="shape987-9" transform="translate(5.13737,-42.0361)">
					<title>Sheet.987</title>
					<path d="M0 129.07 A4.01631 3.97851 0 0 1 3.81 124.91 L21.24 124.91 A4.01631 3.97851 0 0 1 25.04 129.07 A4.01631
								 3.97851 0 0 1 21.24 133.23 L3.81 133.23 A4.01631 3.97851 0 0 1 -0 129.07 Z" class="st2"/>
				</g>
				<g id="shape988-11" transform="translate(7.22464,-43.4034)">
					<title>Sheet.988</title>
					<ellipse cx="2.81445" cy="130.44" rx="2.81445" ry="2.78796" class="st3"/>
				</g>
				<g id="shape989-13" transform="translate(7.22464,-31.061)">
					<title>Sheet.989</title>
					<ellipse cx="2.81445" cy="130.44" rx="2.81445" ry="2.78796" class="st3"/>
				</g>
				<g id="shape990-15" transform="translate(22.3136,0)">
					<title>Sheet.990</title>
					<path d="M25.79 109.83 L15.11 104.55 L4.04 109.83 L0 117.67 L0 132.28 a0.962837 0.953775 -180 0 0 0.962837 0.95044
								 L29.26 133.23 a0.962837 0.953775 -180 0 0 0.962837 -0.95044 L30.22 117.67 L25.79 109.83 Z"
							class="st4"/>
				</g>
				<g id="shape991-19" transform="translate(18.5868,-11.3386)">
					<title>Sheet.991</title>
					<path d="M1.35 133.23 A1.47455 1.46068 0 0 1 0 131.16 L4.75 120.89 A1.47792 1.46401 0 0 1 5.39 120.22 L18.36
								 113.31 A1.47455 1.46068 0 0 1 19.78 113.31 L32.31 120.22 A1.46109 1.44734 0 0 1 32.9 120.85 L38.11
								 131.11 A1.47245 1.45859 0 1 1 35.47 132.42 L30.47 122.56 L19.05 116.25 L7.22 122.56 L2.69 132.37
								 A1.47455 1.46068 0 0 1 1.35 133.23 Z" class="st3"/>
				</g>
				<g id="shape992-21" transform="translate(34.2783,-14.0698)">
					<title>Sheet.992</title>
					<path d="M0 132.28 a0.959493 0.950462 -180 0 0 0.95947 0.95044 L5.06 133.23 a0.959493 0.950462 -180 0 0 0.95947
								 -0.95044 L6.02 127.94 a0.959493 0.950462 -180 0 0 -0.95947 -0.95044 L0.96 126.99 a0.959493 0.950462
								 -180 0 0 -0.95947 0.95044 L0 132.28 Z" class="st5"/>
				</g>
				<g id="group993-23" transform="translate(31.0464,-5.68434E-14)">
					<title>Sheet.993</title>
					<g id="shape994-24" transform="translate(0.42082,-5.20241)">
						<title>Sheet.994</title>
						<path d="M5.82 133.23 L11.63 129.37 a0.952737 0.94377 -180 0 0 -0.53865 -0.163409 L0.54 129.21 a0.95947 0.95044
									 -180 0 0 -0.53865 0.163409 L5.82 133.23 Z" class="st5"/>
					</g>
					<g id="shape995-26" transform="translate(7.12701,-1.06716)">
						<title>Sheet.995</title>
						<path d="M5.35 133.23 L5.35 126.14 L0 129.68 L5.35 133.23 Z" class="st5"/>
					</g>
					<g id="shape996-28" transform="translate(-6.19504E-14,-1.06716)">
						<title>Sheet.996</title>
						<path d="M5.35 129.68 L0 126.14 L0 133.23 L5.35 129.68 Z" class="st5"/>
					</g>
					<g id="shape997-30" transform="translate(12.4327,0)">
						<title>Sheet.997</title>
						<path d="M0 133.23 L0.04 133.23 L0.04 133.16 L0 133.23 Z" class="st5"/>
					</g>
					<g id="shape998-32">
						<title>Sheet.998</title>
						<path d="M0 133.16 L0 133.23 L0.05 133.23 L0 133.16 Z" class="st5"/>
					</g>
					<g id="shape999-34" transform="translate(0.171695,5.68434E-14)">
						<title>Sheet.999</title>
						<path d="M0 133.23 L12.13 133.23 L6.07 129.21 L0 133.23 Z" class="st5"/>
					</g>
				</g>
			</g>
		</g>
	</g>
</svg>
