<?xml version="1.0" encoding="UTF-8" standalone="no"?>
<!DOCTYPE svg PUBLIC "-//W3C//DTD SVG 1.1//EN" "http://www.w3.org/Graphics/SVG/1.1/DTD/svg11.dtd">
<!-- Generated by Microsoft Visio, SVG Export Server Farm.svg Page-1 -->
<svg xmlns="http://www.w3.org/2000/svg" xmlns:xlink="http://www.w3.org/1999/xlink" xmlns:ev="http://www.w3.org/2001/xml-events"
		width="0.944882in" height="1.33858in" viewBox="0 0 68.0315 96.378" xml:space="preserve" color-interpolation-filters="sRGB"
		class="st6">
	<style type="text/css">
	<![CDATA[
		.st1 {fill:url(#grad0-6);stroke:none;stroke-linecap:butt;stroke-width:0.75}
		.st2 {fill:#003067;stroke:none;stroke-linecap:butt;stroke-width:0.75}
		.st3 {fill:#50e6ff;stroke:none;stroke-linecap:butt;stroke-width:0.75}
		.st4 {fill:url(#grad0-18);stroke:none;stroke-linecap:butt;stroke-width:0.75}
		.st5 {fill:#005ba1;stroke:none;stroke-linecap:butt;stroke-width:0.75}
		.st6 {fill:none;fill-rule:evenodd;font-size:12px;overflow:visible;stroke-linecap:square;stroke-miterlimit:3}
	]]>
	</style>

	<defs id="Patterns_And_Gradients">
		<linearGradient id="grad0-6" x1="0" y1="0" x2="1" y2="0" gradientTransform="rotate(90 0.5 0.5)">
			<stop offset="0" stop-color="#b3b2b3" stop-opacity="1"/>
			<stop offset="0.375" stop-color="#afaeaf" stop-opacity="1"/>
			<stop offset="0.765" stop-color="#a2a2a2" stop-opacity="1"/>
			<stop offset="1" stop-color="#979797" stop-opacity="1"/>
		</linearGradient>
		<linearGradient id="grad0-18" x1="0" y1="0" x2="1" y2="0" gradientTransform="rotate(-90 0.5 0.5)">
			<stop offset="0" stop-color="#0078d4" stop-opacity="1"/>
			<stop offset="0.155" stop-color="#1380da" stop-opacity="1"/>
			<stop offset="0.53" stop-color="#3c91e5" stop-opacity="1"/>
			<stop offset="0.82" stop-color="#559cec" stop-opacity="1"/>
			<stop offset="1" stop-color="#5ea0ef" stop-opacity="1"/>
		</linearGradient>
	</defs>
	<g>
		<title>Page-1</title>
		<g id="group972-1" transform="translate(5.66929,-34.0157)">
			<title>Server Farm</title>
			<g id="group973-2">
				<title>Sheet.973</title>
				<g id="shape974-3" transform="translate(0,-3.25818)">
					<title>Sheet.974</title>
					<path d="M35.01 94.57 A1.93241 1.91422 0 0 1 32.99 96.38 L2.02 96.38 A1.93241 1.91422 0 0 1 0 94.57 L0 44.75
								 A1.93241 1.91422 0 0 1 2.01 42.94 L32.99 42.94 A1.93241 1.91422 0 0 1 35.01 44.75 L35.01 94.57 Z"
							class="st1"/>
				</g>
				<g id="shape975-7" transform="translate(5.13737,-29.6804)">
					<title>Sheet.975</title>
					<path d="M0 92.21 A4.01631 3.97851 0 0 1 3.81 88.04 L21.24 88.04 A4.01631 3.97851 0 0 1 25.04 92.21 A4.01631
								 3.97851 0 0 1 21.24 96.38 L3.81 96.38 A4.01631 3.97851 0 0 1 0 92.21 Z" class="st2"/>
				</g>
				<g id="shape976-9" transform="translate(5.13737,-42.0361)">
					<title>Sheet.976</title>
					<path d="M0 92.22 A4.01631 3.97851 0 0 1 3.81 88.06 L21.24 88.06 A4.01631 3.97851 0 0 1 25.04 92.22 A4.01631
								 3.97851 0 0 1 21.24 96.38 L3.81 96.38 A4.01631 3.97851 0 0 1 -0 92.22 Z" class="st2"/>
				</g>
				<g id="shape977-11" transform="translate(7.22464,-43.4034)">
					<title>Sheet.977</title>
					<ellipse cx="2.81445" cy="93.59" rx="2.81445" ry="2.78796" class="st3"/>
				</g>
				<g id="shape978-13" transform="translate(7.22464,-31.061)">
					<title>Sheet.978</title>
					<ellipse cx="2.81445" cy="93.59" rx="2.81445" ry="2.78796" class="st3"/>
				</g>
				<g id="shape979-15" transform="translate(22.3136,0)">
					<title>Sheet.979</title>
					<path d="M25.79 72.98 L15.11 67.7 L4.04 72.98 L0 80.82 L0 95.43 a0.962837 0.953775 -180 0 0 0.962837 0.95044
								 L29.26 96.38 a0.962837 0.953775 -180 0 0 0.962837 -0.95044 L30.22 80.82 L25.79 72.98 Z"
							class="st4"/>
				</g>
				<g id="shape980-19" transform="translate(18.5868,-11.3386)">
					<title>Sheet.980</title>
					<path d="M1.35 96.38 A1.47455 1.46068 0 0 1 0 94.31 L4.75 84.04 A1.47792 1.46401 0 0 1 5.39 83.37 L18.36 76.46
								 A1.47455 1.46068 0 0 1 19.78 76.46 L32.31 83.37 A1.46109 1.44734 0 0 1 32.9 84 L38.11 94.26 A1.47245
								 1.45859 0 1 1 35.47 95.57 L30.47 85.71 L19.05 79.4 L7.22 85.71 L2.69 95.52 A1.47455 1.46068 0 0
								 1 1.35 96.38 Z" class="st3"/>
				</g>
				<g id="shape981-21" transform="translate(34.2783,-14.0698)">
					<title>Sheet.981</title>
					<path d="M0 95.43 a0.959493 0.950462 -180 0 0 0.95947 0.95044 L5.06 96.38 a0.959493 0.950462 -180 0 0 0.95947
								 -0.95044 L6.02 91.09 a0.959493 0.950462 -180 0 0 -0.95947 -0.95044 L0.96 90.14 a0.959493 0.950462
								 -180 0 0 -0.95947 0.95044 L0 95.43 Z" class="st5"/>
				</g>
				<g id="group982-23" transform="translate(31.0464,-7.10543E-14)">
					<title>Sheet.982</title>
					<g id="shape983-24" transform="translate(0.42082,-5.20241)">
						<title>Sheet.983</title>
						<path d="M5.82 96.38 L11.63 92.52 a0.952737 0.94377 -180 0 0 -0.53865 -0.163409 L0.54 92.36 a0.95947 0.95044
									 -180 0 0 -0.53865 0.163409 L5.82 96.38 Z" class="st5"/>
					</g>
					<g id="shape984-26" transform="translate(7.12701,-1.06716)">
						<title>Sheet.984</title>
						<path d="M5.35 96.38 L5.35 89.28 L0 92.83 L5.35 96.38 Z" class="st5"/>
					</g>
					<g id="shape985-28" transform="translate(-6.19504E-14,-1.06716)">
						<title>Sheet.985</title>
						<path d="M5.35 92.83 L0 89.28 L0 96.38 L5.35 92.83 Z" class="st5"/>
					</g>
					<g id="shape986-30" transform="translate(12.4327,0)">
						<title>Sheet.986</title>
						<path d="M0 96.38 L0.04 96.38 L0.04 96.31 L0 96.38 Z" class="st5"/>
					</g>
					<g id="shape987-32">
						<title>Sheet.987</title>
						<path d="M0 96.31 L0 96.38 L0.05 96.38 L0 96.31 Z" class="st5"/>
					</g>
					<g id="shape988-34" transform="translate(0.171695,4.26326E-14)">
						<title>Sheet.988</title>
						<path d="M0 96.38 L12.13 96.38 L6.07 92.36 L0 96.38 Z" class="st5"/>
					</g>
				</g>
			</g>
		</g>
	</g>
</svg>
