<?xml version="1.0" encoding="UTF-8" standalone="no"?>
<!DOCTYPE svg PUBLIC "-//W3C//DTD SVG 1.1//EN" "http://www.w3.org/Graphics/SVG/1.1/DTD/svg11.dtd">
<!-- Generated by Microsoft Visio, SVG Export Server Cluster.svg Page-1 -->
<svg xmlns="http://www.w3.org/2000/svg" xmlns:xlink="http://www.w3.org/1999/xlink" xmlns:ev="http://www.w3.org/2001/xml-events"
		width="1.73184in" height="1.71969in" viewBox="0 0 124.693 123.818" xml:space="preserve" color-interpolation-filters="sRGB"
		class="st5">
	<style type="text/css">
	<![CDATA[
		.st1 {fill:url(#grad0-10);stroke:none;stroke-linecap:butt;stroke-width:33.9999}
		.st2 {fill:#003067;stroke:none;stroke-linecap:butt;stroke-width:35.9595}
		.st3 {fill:#50e6ff;stroke:none;stroke-linecap:butt;stroke-width:35.9595}
		.st4 {fill:url(#grad0-48);stroke:none;stroke-linecap:butt;stroke-width:35.9595}
		.st5 {fill:none;fill-rule:evenodd;font-size:12px;overflow:visible;stroke-linecap:square;stroke-miterlimit:3}
	]]>
	</style>

	<defs id="Patterns_And_Gradients">
		<linearGradient id="grad0-10" x1="0" y1="0" x2="1" y2="0" gradientTransform="rotate(-90 0.5 0.5)">
			<stop offset="0" stop-color="#0879e2" stop-opacity="1"/>
			<stop offset="0.325" stop-color="#0a7de4" stop-opacity="1"/>
			<stop offset="0.62" stop-color="#1088eb" stop-opacity="1"/>
			<stop offset="0.91" stop-color="#199af6" stop-opacity="1"/>
			<stop offset="1" stop-color="#1da2fa" stop-opacity="1"/>
		</linearGradient>
		<linearGradient id="grad0-48" x1="0" y1="0" x2="1" y2="0" gradientTransform="rotate(-90 0.5 0.5)">
			<stop offset="0" stop-color="#949494" stop-opacity="1"/>
			<stop offset="0.53" stop-color="#a2a2a2" stop-opacity="1"/>
			<stop offset="1" stop-color="#b3b3b3" stop-opacity="1"/>
		</linearGradient>
	</defs>
	<g>
		<title>Page-1</title>
		<g id="group1160-1" transform="translate(34,-35.9595)">
			<title>Server Cluster</title>
			<g id="group1161-2">
				<title>Page-1</title>
				<g id="group1162-3">
					<title>Sheet.1162</title>
					<g id="group1163-4" transform="translate(32.0187,-13.9796)">
						<title>Sheet.1163</title>
						<g id="group1164-5">
							<title>path4-5</title>
							<g id="group1165-6">
								<title>Sheet.1165</title>
								<g id="shape1166-7">
									<title>Sheet.1166</title>
									<path d="M24.67 122.46 A1.45703 1.38351 0 0 1 23.23 123.82 L1.44 123.82 A1.43191 1.35965 0 0
												 1 0 122.46 L0 85.3 A1.40678 1.3358 0 0 1 1.44 83.94 L23.23 83.94 A1.43191 1.35965
												 0 0 1 24.67 85.3 L24.67 122.46 Z" class="st1"/>
								</g>
							</g>
						</g>
						<g id="group1167-11" transform="translate(3.19968,-23.8019)">
							<title>path6-7</title>
							<g id="group1168-12">
								<title>Sheet.1168</title>
								<g id="shape1169-13">
									<title>Sheet.1169</title>
									<path d="M-0 121.26 A2.68797 2.55233 0 0 1 2.66 118.74 L14.98 118.74 A2.68797 2.55233 0 0 1 17.74
												 121.26 A2.68797 2.55233 0 0 1 14.98 123.82 L2.66 123.82 A2.68797 2.55233 0 0 1 -0
												 121.26 ZM0 113.73 A2.68797 2.55233 0 0 1 2.66 111.17 L14.98 111.17 A2.68797 2.55233
												 0 0 1 17.74 113.73 A2.68797 2.55233 0 0 1 14.98 116.25 L2.66 116.25 A2.68797 2.55233
												 0 0 1 -0 113.73 Z" class="st2"/>
								</g>
							</g>
						</g>
						<g id="group1170-15" transform="translate(4.17711,-32.1509)">
							<title>circle10-2</title>
							<g id="group1171-16">
								<title>Sheet.1171</title>
								<g id="shape1172-17">
									<title>Sheet.1172</title>
									<ellipse cx="1.80872" cy="122.1" rx="1.80872" ry="1.71746" class="st3"/>
								</g>
							</g>
						</g>
						<g id="group1173-19" transform="translate(4.17711,-24.5085)">
							<title>circle10-2.416</title>
							<g id="group1174-20">
								<title>Sheet.1174</title>
								<g id="shape1175-21">
									<title>Sheet.1175</title>
									<ellipse cx="1.80872" cy="122.1" rx="1.80872" ry="1.71746" class="st3"/>
								</g>
							</g>
						</g>
					</g>
					<g id="group1176-23" transform="translate(0,-13.9796)">
						<title>Sheet.1176</title>
						<g id="group1177-24">
							<title>path4-5</title>
							<g id="group1178-25">
								<title>Sheet.1178</title>
								<g id="shape1179-26">
									<title>Sheet.1179</title>
									<path d="M24.67 122.46 A1.45703 1.38351 0 0 1 23.23 123.82 L1.44 123.82 A1.43191 1.35965 0 0
												 1 0 122.46 L0 85.3 A1.40678 1.3358 0 0 1 1.44 83.94 L23.23 83.94 A1.43191 1.35965
												 0 0 1 24.67 85.3 L24.67 122.46 Z" class="st1"/>
								</g>
							</g>
						</g>
						<g id="group1180-29" transform="translate(3.19968,-23.8019)">
							<title>path6-7</title>
							<g id="group1181-30">
								<title>Sheet.1181</title>
								<g id="shape1182-31">
									<title>Sheet.1182</title>
									<path d="M-0 121.26 A2.68797 2.55233 0 0 1 2.66 118.74 L14.98 118.74 A2.68797 2.55233 0 0 1 17.74
												 121.26 A2.68797 2.55233 0 0 1 14.98 123.82 L2.66 123.82 A2.68797 2.55233 0 0 1 -0
												 121.26 ZM0 113.73 A2.68797 2.55233 0 0 1 2.66 111.17 L14.98 111.17 A2.68797 2.55233
												 0 0 1 17.74 113.73 A2.68797 2.55233 0 0 1 14.98 116.25 L2.66 116.25 A2.68797 2.55233
												 0 0 1 -0 113.73 Z" class="st2"/>
								</g>
							</g>
						</g>
						<g id="group1183-33" transform="translate(4.17711,-32.1509)">
							<title>circle10-2</title>
							<g id="group1184-34">
								<title>Sheet.1184</title>
								<g id="shape1185-35">
									<title>Sheet.1185</title>
									<ellipse cx="1.80872" cy="122.1" rx="1.80872" ry="1.71746" class="st3"/>
								</g>
							</g>
						</g>
						<g id="group1186-37" transform="translate(4.17711,-24.5085)">
							<title>circle10-2.416</title>
							<g id="group1187-38">
								<title>Sheet.1187</title>
								<g id="shape1188-39">
									<title>Sheet.1188</title>
									<ellipse cx="1.80872" cy="122.1" rx="1.80872" ry="1.71746" class="st3"/>
								</g>
							</g>
						</g>
					</g>
					<g id="group1189-41" transform="translate(13.7923,-2.70006E-13)">
						<title>Sheet.1189</title>
						<g id="group1190-42">
							<title>Icon-databases-136.149</title>
							<g id="group1191-43">
								<title>path4-5</title>
								<g id="group1192-44">
									<title>Sheet.1192</title>
									<g id="shape1193-45">
										<title>Sheet.1193</title>
										<path d="M30.68 122.07 A1.81215 1.7777 -180 0 1 28.91 123.82 L1.78 123.82 A1.78091 1.74704
													 -180 0 1 -0 122.07 L0 74.31 A1.74966 1.71639 -180 0 1 1.78 72.57 L28.91 72.57
													 A1.78091 1.74704 -180 0 1 30.68 74.31 L30.68 122.07 Z" class="st4"/>
									</g>
								</g>
							</g>
							<g id="group1194-49" transform="translate(4.49913,-30.0062)">
								<title>path6-7</title>
								<g id="group1195-50">
									<title>Sheet.1195</title>
									<g id="shape1196-51">
										<title>Sheet.1196</title>
										<path d="M0 120.55 A3.3431 3.27954 -180 0 1 3.31 117.28 L18.62 117.28 A3.3431 3.27954 -180
													 0 1 22.05 120.55 A3.3431 3.27954 -180 0 1 18.62 123.82 L3.31 123.82 A3.3431
													 3.27954 -180 0 1 0 120.55 ZM0 110.85 A3.3431 3.27954 -180 0 1 3.31 107.58 L18.62
													 107.58 A3.3431 3.27954 -180 0 1 22.05 110.85 A3.3431 3.27954 -180 0 1 18.62
													 114.1 L3.31 114.1 A3.3431 3.27954 -180 0 1 -0 110.85 Z" class="st2"/>
									</g>
								</g>
							</g>
							<g id="group1197-53" transform="translate(5.74889,-40.7646)">
								<title>circle8-5</title>
								<g id="group1198-54">
									<title>Sheet.1198</title>
									<g id="shape1199-55">
										<title>Sheet.1199</title>
										<ellipse cx="2.24956" cy="121.611" rx="2.24956" ry="2.20679" class="st3"/>
									</g>
								</g>
							</g>
							<g id="group1200-57" transform="translate(5.74889,-31.0793)">
								<title>circle10-2</title>
								<g id="group1201-58">
									<title>Sheet.1201</title>
									<g id="shape1202-59">
										<title>Sheet.1202</title>
										<ellipse cx="2.24956" cy="121.611" rx="2.24956" ry="2.20679" class="st3"/>
									</g>
								</g>
							</g>
						</g>
					</g>
				</g>
			</g>
		</g>
	</g>
</svg>
