<?xml version="1.0" encoding="UTF-8" standalone="no"?>
<!DOCTYPE svg PUBLIC "-//W3C//DTD SVG 1.1//EN" "http://www.w3.org/Graphics/SVG/1.1/DTD/svg11.dtd">
<!-- Generated by Microsoft Visio, SVG Export Service Catalog Managed Application Definition.svg Page-1 -->
<svg xmlns="http://www.w3.org/2000/svg" xmlns:xlink="http://www.w3.org/1999/xlink" xmlns:ev="http://www.w3.org/2001/xml-events"
		width="1.49606in" height="1.94165in" viewBox="0 0 107.717 139.799" xml:space="preserve" color-interpolation-filters="sRGB"
		class="st7">
	<style type="text/css">
	<![CDATA[
		.st1 {fill:#646565;stroke:none;stroke-linecap:butt;stroke-width:12.24}
		.st2 {fill:#646565;fill-opacity:0.5;stroke:none;stroke-linecap:butt;stroke-width:12.24}
		.st3 {fill:#0072c6;stroke:none;stroke-linecap:butt;stroke-width:12.24}
		.st4 {fill:#ffffff;fill-opacity:0.75;stroke:none;stroke-linecap:butt;stroke-width:12.24}
		.st5 {fill:#ffffff;fill-opacity:0.8;stroke:none;stroke-linecap:butt;stroke-width:12.24}
		.st6 {fill:#ffffff;stroke:none;stroke-linecap:butt;stroke-width:12.24}
		.st7 {fill:none;fill-rule:evenodd;font-size:12px;overflow:visible;stroke-linecap:square;stroke-miterlimit:3}
	]]>
	</style>

	<g>
		<title>Page-1</title>
		<g id="group886-1" transform="translate(26.9291,-70.8661)">
			<title>Service Catalog Managed Application Definition</title>
			<g id="group887-2">
				<title>Sheet.887</title>
				<g id="shape888-3" transform="translate(5.39568E-14,-47.2441)">
					<title>Sheet.888</title>
					<path d="M0 138.62 L6.58 138.62 L6.58 139.8 L1.2 139.8 C1.2 139.8 0 139.8 0 138.62 Z" class="st1"/>
				</g>
				<g id="shape889-5" transform="translate(-2.69784E-14,-48.4252)">
					<title>Sheet.889</title>
					<path d="M4.79 136.26 L3.59 136.26 A3.59055 3.54331 -180 0 0 0 139.8 L1.2 139.8 A2.3937 2.3622 0 0 1 3.59 137.44
								 L4.79 137.44 L4.79 136.26 Z" class="st2"/>
				</g>
				<g id="shape890-7" transform="translate(5.39568E-14,-40.1575)">
					<title>Sheet.890</title>
					<path d="M0 138.62 L6.58 138.62 L6.58 139.8 L1.2 139.8 C1.2 139.8 0 139.8 0 138.62 Z" class="st1"/>
				</g>
				<g id="shape891-9" transform="translate(-2.69784E-14,-41.3386)">
					<title>Sheet.891</title>
					<path d="M4.79 136.26 L3.59 136.26 A3.59055 3.54331 -180 0 0 -0 139.8 L1.2 139.8 A2.3937 2.3622 0 0 1 3.59 137.44
								 L4.79 137.44 L4.79 136.26 Z" class="st2"/>
				</g>
				<g id="shape892-11" transform="translate(5.39568E-14,-33.0709)">
					<title>Sheet.892</title>
					<path d="M0 138.62 L6.58 138.62 L6.58 139.8 L1.2 139.8 C1.2 139.8 0 139.8 0 138.62 Z" class="st1"/>
				</g>
				<g id="shape893-13" transform="translate(-2.69784E-14,-34.252)">
					<title>Sheet.893</title>
					<path d="M4.79 136.26 L3.59 136.26 A3.59055 3.54331 -180 0 0 0 139.8 L1.2 139.8 A2.3937 2.3622 0 0 1 3.59 137.44
								 L4.79 137.44 L4.79 136.26 Z" class="st2"/>
				</g>
				<g id="shape894-15" transform="translate(5.39568E-14,-25.9843)">
					<title>Sheet.894</title>
					<path d="M0 138.62 L6.58 138.62 L6.58 139.8 L1.2 139.8 C1.2 139.8 0 139.8 0 138.62 Z" class="st1"/>
				</g>
				<g id="shape895-17" transform="translate(-2.69784E-14,-27.1654)">
					<title>Sheet.895</title>
					<path d="M4.79 136.26 L3.59 136.26 A3.59055 3.54331 -180 0 0 -0 139.8 L1.2 139.8 A2.3937 2.3622 0 0 1 3.59 137.44
								 L4.79 137.44 L4.79 136.26 Z" class="st2"/>
				</g>
				<g id="shape896-19" transform="translate(5.39568E-14,-18.8976)">
					<title>Sheet.896</title>
					<path d="M0 138.62 L6.58 138.62 L6.58 139.8 L1.2 139.8 C1.2 139.8 0 139.8 0 138.62 Z" class="st1"/>
				</g>
				<g id="shape897-21" transform="translate(-2.69784E-14,-20.0787)">
					<title>Sheet.897</title>
					<path d="M4.79 136.26 L3.59 136.26 A3.59055 3.54331 -180 0 0 0 139.8 L1.2 139.8 A2.3937 2.3622 0 0 1 3.59 137.44
								 L4.79 137.44 L4.79 136.26 Z" class="st2"/>
				</g>
				<g id="shape898-23" transform="translate(5.39568E-14,-11.811)">
					<title>Sheet.898</title>
					<path d="M0 138.62 L6.58 138.62 L6.58 139.8 L1.2 139.8 C1.2 139.8 0 139.8 0 138.62 Z" class="st1"/>
				</g>
				<g id="shape899-25" transform="translate(-2.69784E-14,-12.9921)">
					<title>Sheet.899</title>
					<path d="M4.79 136.26 L3.59 136.26 A3.59055 3.54331 -180 0 0 -0 139.8 L1.2 139.8 A2.3937 2.3622 0 0 1 3.59 137.44
								 L4.79 137.44 L4.79 136.26 Z" class="st2"/>
				</g>
				<g id="shape900-27" transform="translate(5.39568E-14,-4.72441)">
					<title>Sheet.900</title>
					<path d="M0 138.62 L6.58 138.62 L6.58 139.8 L1.2 139.8 C1.2 139.8 0 139.8 0 138.62 Z" class="st1"/>
				</g>
				<g id="shape901-29" transform="translate(-2.69784E-14,-5.90551)">
					<title>Sheet.901</title>
					<path d="M4.79 136.26 L3.59 136.26 A3.59055 3.54331 -180 0 0 0 139.8 L1.2 139.8 A2.3937 2.3622 0 0 1 3.59 137.44
								 L4.79 137.44 L4.79 136.26 Z" class="st2"/>
				</g>
				<g id="shape902-31" transform="translate(5.98425,-1.1811)">
					<title>Sheet.902</title>
					<path d="M8.38 84.29 C4.79 84.29 0 87.83 0 87.83 L2.39 87.83 L2.39 137.44 L44.28 137.44 L44.28 139.8 L47.87 136.26
								 L47.87 84.29 L8.38 84.29 Z" class="st3"/>
				</g>
				<g id="shape903-33" transform="translate(7.77953,-2.3622)">
					<title>Sheet.903</title>
					<path d="M4.19 86.65 L0 89.01 L1.8 89.01 L1.8 139.8 L42.49 139.8 L44.88 137.44 L44.88 86.65 L4.19 86.65 Z"
							class="st4"/>
				</g>
				<g id="shape904-35" transform="translate(8.37795,-53.1496)">
					<title>Sheet.904</title>
					<path d="M4.19 137.44 L0 139.8 L41.89 139.8 L44.28 137.44 L4.19 137.44 Z" class="st5"/>
				</g>
				<g id="shape905-37" transform="translate(4.7874,0)">
					<title>Sheet.905</title>
					<path d="M0 139.8 L0 136.26 L2.39 136.26 L3.59 135.07 L3.59 133.89 L2.39 132.71 L0 132.71 L0 129.17 L2.39 129.17
								 L3.59 127.99 L3.59 126.81 L2.39 125.63 L0 125.63 L0 122.08 L2.39 122.08 L3.59 120.9 L3.59 119.72
								 L2.39 118.54 L0 118.54 L0 115 L2.39 115 L3.59 113.81 L3.59 112.63 L2.39 111.45 L0 111.45 L0 107.91
								 L2.39 107.91 L3.59 106.73 L3.59 105.55 L2.39 104.37 L0 104.37 L0 100.82 L2.39 100.82 L3.59 99.64
								 L3.59 98.46 L2.39 97.28 L0 97.28 L0 93.74 L2.39 93.74 L3.59 92.55 L3.59 91.37 L2.39 90.19 L0 90.19
								 L0 86.65 L45.48 86.65 L45.48 139.8 L0 139.8 Z" class="st3"/>
				</g>
				<g id="shape906-39" transform="translate(17.9528,-14.6941)">
					<title>Sheet.906</title>
					<path d="M13.95 132.11 a0.17115 0.168898 -180 0 0 0.0813858 -0.0200787 L19.35 129.19 a0.150803 0.148819 -180
								 0 0 0.0813858 -0.132283 L19.43 123.22 a0.155591 0.153543 -180 0 0 -0.0813858 -0.133465 a0.177134
								 0.174803 -180 0 0 -0.162772 1.84741E-13 L13.87 125.99 a0.155591 0.153543 -180 0 0 -0.0789921 0.133465
								 L13.79 131.96 C13.79 132.02 13.82 132.07 13.87 132.09 a0.162772 0.16063 -180 0 0 0.080189 0.0200787
								 ZM13.95 139.8 a0.17115 0.168898 -180 0 0 0.0813858 -0.0200787 L19.35 136.87 a0.150803 0.148819 -180
								 0 0 0.0813858 -0.132283 L19.43 130.9 a0.155591 0.153543 -180 0 0 -0.0813858 -0.133465 a0.177134
								 0.174803 -180 0 0 -0.162772 -5.68434E-14 L13.87 133.68 a0.155591 0.153543 -180 0 0 -0.0789921 0.133465
								 L13.79 139.65 a0.152 0.15 -180 0 0 0.159181 0.151181 ZM20.85 128.27 a0.179528 0.177165 -180 0 0
								 0.0825827 -0.0200787 L26.25 125.34 a0.150803 0.148819 -180 0 0 0.0813858 -0.132283 L26.33 119.38
								 a0.153197 0.151181 -180 0 0 -0.0825827 -0.133465 a0.177134 0.174803 -180 0 0 -0.162772 -4.68958E-13
								 L20.77 122.15 a0.155591 0.153543 -180 0 0 -0.0789921 0.133465 L20.69 128.12 C20.69 128.18 20.72
								 128.23 20.77 128.25 a0.183118 0.180709 -180 0 0 0.080189 0.0188976 ZM20.85 135.96 a0.179528 0.177165
								 -180 0 0 0.0825827 -0.0200787 L26.25 133.03 a0.150803 0.148819 -180 0 0 0.0813858 -0.132283 L26.33
								 127.06 a0.153197 0.151181 -180 0 0 -0.0825827 -0.133465 a0.177134 0.174803 -180 0 0 -0.162772 -2.27374E-13
								 L20.77 129.84 a0.155591 0.153543 -180 0 0 -0.0789921 0.133465 L20.69 135.81 C20.69 135.86 20.72
								 135.91 20.77 135.94 a0.183118 0.180709 -180 0 0 0.080189 0.0188976 ZM12.38 132.11 a0.17115 0.168898
								 0 0 1 -0.0813858 -0.0200787 L6.98 129.19 a0.150803 0.148819 0 0 1 -0.0813858 -0.132283 L6.9 123.22
								 a0.155591 0.153543 0 0 1 0.0813858 -0.133465 a0.177134 0.174803 0 0 1 0.162772 -2.13163E-13 L12.46
								 125.99 a0.155591 0.153543 0 0 1 0.0789921 0.133465 L12.54 131.96 a0.152 0.15 0 0 1 -0.159181 0.151181
								 ZM12.38 139.8 a0.17115 0.168898 0 0 1 -0.0813858 -0.0200787 L6.98 136.87 a0.150803 0.148819 0 0
								 1 -0.0813858 -0.132283 L6.9 130.9 a0.155591 0.153543 0 0 1 0.0813858 -0.133465 a0.177134 0.174803
								 0 0 1 0.162772 0 L12.46 133.68 a0.155591 0.153543 0 0 1 0.0789921 0.133465 L12.54 139.65 a0.152
								 0.15 0 0 1 -0.159181 0.151181 ZM5.48 128.27 a0.17115 0.168898 0 0 1 -0.0813858 -0.0200787 L0.08
								 125.34 a0.149606 0.147638 0 0 1 -0.0825827 -0.132283 L0 119.38 a0.155591 0.153543 0 0 1 0.0813858
								 -0.133465 a0.177134 0.174803 0 0 1 0.162772 -1.42109E-14 L5.56 122.15 a0.155591 0.153543 0 0 1 0.0789921
								 0.133465 L5.64 128.12 a0.152 0.15 0 0 1 -0.157984 0.151181 ZM5.48 135.96 a0.17115 0.168898 0 0 1
								 -0.0813858 -0.0200787 L0.08 133.03 a0.149606 0.147638 0 0 1 -0.0825827 -0.132283 L0 127.06 a0.155591
								 0.153543 0 0 1 0.0813858 -0.133465 a0.177134 0.174803 0 0 1 0.162772 -9.9476E-14 L5.56 129.84 a0.155591
								 0.153543 0 0 1 0.0789921 0.133465 L5.64 135.81 a0.152 0.15 0 0 1 -0.157984 0.151181 ZM7.79 121.47
								 a0.150803 0.148819 0 0 1 0.0598425 -0.0555118 L13.14 118.58 a0.162772 0.16063 0 0 1 0.160378 -0.0011811
								 L18.53 121.39 a0.147213 0.145276 0 0 1 0.0789921 0.129921 a0.159181 0.157087 0 0 1 -0.0813858 0.129921
								 L13.24 124.48 a0.169953 0.167717 0 0 1 -0.159181 -0.0011811 L7.85 121.67 a0.144819 0.142913 0 0
								 1 -0.0574488 -0.201969 ZM0.9 117.77 a0.155591 0.153543 0 0 1 0.0586457 -0.0555118 L6.19 114.88 a0.157984
								 0.155906 0 0 1 0.157984 -0.0011811 L11.52 117.69 C11.57 117.71 11.6 117.76 11.6 117.82 a0.159181
								 0.157087 0 0 1 -0.0813858 0.129921 L6.29 120.78 a0.165165 0.162992 0 0 1 -0.156787 -0.0011811 L0.96
								 117.97 a0.146016 0.144094 0 0 1 -0.0777953 -0.126378 a0.169953 0.167717 0 0 1 0.0227402 -0.0755906
								 ZM14.83 117.83 a0.155591 0.153543 0 0 1 0.0586457 -0.0555118 L20.12 114.94 a0.157984 0.155906 0
								 0 1 0.157984 -0.0011811 L25.45 117.75 C25.5 117.78 25.53 117.82 25.53 117.88 a0.159181 0.157087
								 0 0 1 -0.0813858 0.129921 L20.22 120.84 a0.165165 0.162992 0 0 1 -0.156787 -0.0011811 L14.89 118.03
								 a0.146016 0.144094 0 0 1 -0.0777953 -0.126378 a0.165165 0.162992 0 0 1 0.0227402 -0.0755906 ZM7.82
								 114.18 a0.155591 0.153543 0 0 1 0.0598425 -0.0543307 L13.17 111.33 a0.168756 0.166535 0 0 1 0.160378
								 -0.0011811 L18.56 114.1 a0.144819 0.142913 0 0 1 0.0789921 0.127559 a0.157984 0.155906 0 0 1 -0.0813858
								 0.127559 L13.27 117.14 a0.173543 0.17126 0 0 1 -0.159181 -0.0011811 L7.88 114.37 a0.142425 0.140551
								 0 0 1 -0.0789921 -0.125197 C7.8 114.22 7.81 114.2 7.82 114.18 Z" class="st6"/>
				</g>
				<g id="shape907-41" transform="translate(10.853,-8.07047)">
					<title>Sheet.907</title>
					<path d="M14.44 139.8 C12.29 139.8 10.37 138.05 8.97 136.77 C8.57 136.4 8.19 136.06 7.94 135.88 C7.02 135.24
								 5.21 134.54 3.43 134.54 L1.79 134.54 A1.79887 1.7752 0 0 1 -0 132.77 L0 127.27 C0 126.29 0.81 125.5
								 1.8 125.5 L4.48 125.5 L4.61 126.68 L4.61 125.5 C5.38 125.5 6.58 125.28 7.64 125.08 C8.49 124.93
								 9.29 124.78 9.96 124.72 C10.25 124.7 10.55 124.68 10.85 124.68 C11.69 124.68 14.55 124.82 15.79
								 126.57 C15.94 126.77 16.61 127.57 16.92 127.81 C17.18 128.02 17.82 128.24 18.85 128.24 L19.04 128.23
								 C19.12 128.23 19.31 128.21 19.56 128.19 C20.27 128.13 21.35 128.04 22.17 128.04 C22.36 128.04 22.54
								 128.04 22.69 128.06 C24.26 128.17 25.11 129.22 25.25 130.21 C25.31 130.59 25.25 131.11 25.05 131.59
								 L25.63 131.31 C27.47 130.41 30 129.19 31.46 128.7 A5.14167 5.07402 0 0 1 33.1 128.42 C34.29 128.42
								 35.27 128.91 35.73 129.72 C35.97 130.15 36.27 131.06 35.53 132.24 C35.15 132.85 34.53 133.44 33.85
								 133.86 A544.679 537.513 0 0 1 29.93 136.23 C29.38 136.57 28.81 136.93 28.25 137.29 C26.32 138.52
								 25.09 139.28 24.17 139.4 A9.55685 9.4311 0 0 1 22.91 139.47 C22.5 139.47 22.04 139.46 21.58 139.44
								 A56.7247 55.9783 -180 0 0 20.27 139.42 C19.95 139.42 19.66 139.43 19.41 139.45 C19.05 139.48 18.64
								 139.52 18.19 139.56 C17.11 139.67 15.77 139.8 14.44 139.8 Z" class="st3"/>
				</g>
				<g id="shape908-43" transform="translate(11.9314,-9.13228)">
					<title>Sheet.908</title>
					<path d="M30.65 131 C28.62 131.68 24.16 133.98 23.14 134.4 C21.94 134.91 19.55 135.22 16.89 135.17 C15.42 135.14
								 14.37 134.98 13.78 134.44 C13.78 134.44 11.67 132.75 11.24 132.34 C10.52 131.63 11.45 130.57 12.18
								 131.13 C12.72 131.54 13.61 132.43 14.48 133.07 C15.35 133.72 18.43 133.42 19.7 133.33 C21.17 133.23
								 21.99 132.95 22.32 132.79 C22.8 132.56 22.92 131.86 22.87 131.56 C22.81 131.13 22.41 130.48 21.41
								 130.41 C20.41 130.34 18.2 130.59 17.87 130.6 C16.34 130.63 15.43 130.28 14.97 129.91 C14.51 129.55
								 13.73 128.58 13.62 128.43 C12.84 127.34 10.7 126.91 8.87 127.08 C7.35 127.22 4.76 127.9 3.28 127.86
								 L0.6 127.86 a0.598425 0.590551 -180 0 0 -0.598425 0.590551 L0 133.95 a0.598425 0.590551 -180 0 0
								 0.596031 0.590551 L2.24 134.54 C4.18 134.54 6.23 135.26 7.43 136.1 C8.64 136.94 10.97 139.8 13.25
								 139.8 C15.05 139.8 16.86 139.54 18.13 139.45 C19.39 139.35 21.82 139.55 22.81 139.41 C23.79 139.28
								 26.12 137.6 28.1 136.41 C29.31 135.69 30.65 134.88 32.02 134.04 C32.57 133.71 33.04 133.24 33.32
								 132.8 C34.29 131.25 32.61 130.34 30.65 131 Z" class="st6"/>
				</g>
			</g>
		</g>
	</g>
</svg>
