<?xml version="1.0" encoding="UTF-8" standalone="no"?>
<!DOCTYPE svg PUBLIC "-//W3C//DTD SVG 1.1//EN" "http://www.w3.org/Graphics/SVG/1.1/DTD/svg11.dtd">
<!-- Generated by Microsoft Visio, SVG Export Sign In.svg Page-1 -->
<svg xmlns="http://www.w3.org/2000/svg" xmlns:xlink="http://www.w3.org/1999/xlink" xmlns:ev="http://www.w3.org/2001/xml-events"
		width="1.07597in" height="1.4233in" viewBox="0 0 77.4695 102.478" xml:space="preserve" color-interpolation-filters="sRGB"
		class="st3">
	<style type="text/css">
	<![CDATA[
		.st1 {fill:#0072c6;stroke:none;stroke-linecap:butt;stroke-width:11.7692}
		.st2 {fill:#57a300;stroke:none;stroke-linecap:butt;stroke-width:11.7692}
		.st3 {fill:none;fill-rule:evenodd;font-size:12px;overflow:visible;stroke-linecap:square;stroke-miterlimit:3}
	]]>
	</style>

	<g>
		<title>Page-1</title>
		<g id="group1419-1" transform="translate(11.7692,-34.0157)">
			<title>Sign In</title>
			<g id="group1420-2">
				<title>g8</title>
				<g id="shape1421-3" transform="translate(3.35198,0)">
					<title>path4</title>
					<path d="M22.1 45.78 C29.69 45.78 36.77 48.71 42.29 54.06 C53.34 65.08 53.34 83.18 42.29 94.21 C36.94 99.55 29.69
								 102.48 22.1 102.48 C14.5 102.48 7.42 99.55 1.9 94.21 C0 92.31 0 89.38 1.9 87.49 C3.8 85.59 6.73
								 85.59 8.63 87.49 C12.26 91.1 16.92 93.17 22.1 93.17 C27.27 93.17 31.94 91.28 35.56 87.66 C42.98
								 80.25 42.98 68.19 35.56 60.95 C31.94 57.33 27.1 55.26 22.1 55.26 C17.09 55.26 12.26 57.16 8.63 60.78
								 C6.73 62.67 3.8 62.67 1.9 60.78 C0 58.88 0 55.95 1.9 54.06 C7.25 48.71 14.5 45.78 22.1 45.78 Z"
							class="st1"/>
				</g>
				<g id="shape1422-5" transform="translate(2.8777E-13,-15.8343)">
					<title>path6</title>
					<path d="M28.51 86.66 L19.04 76.63 L26.58 76.63 L39.33 89.55 L26.77 102.48 L19.04 102.48 L28.51 92.64 L1.76 92.64
								 A1.75834 1.75521 0 0 1 -0 90.89 L0 88.42 C0 87.45 0.79 86.66 1.76 86.66 L28.51 86.66 Z"
							class="st2"/>
				</g>
			</g>
		</g>
	</g>
</svg>
