<?xml version="1.0" encoding="UTF-8" standalone="no"?>
<!-- Generated by Microsoft Visio, SVG Export SIM.svg Page-1 -->

<svg
   xmlns:dc="http://purl.org/dc/elements/1.1/"
   xmlns:cc="http://creativecommons.org/ns#"
   xmlns:rdf="http://www.w3.org/1999/02/22-rdf-syntax-ns#"
   xmlns:svg="http://www.w3.org/2000/svg"
   xmlns="http://www.w3.org/2000/svg"
   xmlns:sodipodi="http://sodipodi.sourceforge.net/DTD/sodipodi-0.dtd"
   xmlns:inkscape="http://www.inkscape.org/namespaces/inkscape"
   width="45.350021"
   height="56.690029"
   viewBox="0 0 45.350023 56.690029"
   xml:space="preserve"
   class="st4"
   version="1.1"
   id="svg40"
   sodipodi:docname="SIM.svg"
   style="font-size:12px;overflow:visible;color-interpolation-filters:sRGB;fill:none;fill-rule:evenodd;stroke-linecap:square;stroke-miterlimit:3"
   inkscape:version="0.92.5 (2060ec1f9f, 2020-04-08)"><metadata
   id="metadata44"><rdf:RDF><cc:Work
       rdf:about=""><dc:format>image/svg+xml</dc:format><dc:type
         rdf:resource="http://purl.org/dc/dcmitype/StillImage" /></cc:Work></rdf:RDF></metadata><sodipodi:namedview
   pagecolor="#ffffff"
   bordercolor="#666666"
   borderopacity="1"
   objecttolerance="10"
   gridtolerance="10"
   guidetolerance="10"
   inkscape:pageopacity="0"
   inkscape:pageshadow="2"
   inkscape:window-width="640"
   inkscape:window-height="480"
   id="namedview42"
   showgrid="false"
   inkscape:zoom="1.8924055"
   inkscape:cx="22.67701"
   inkscape:cy="28.3398"
   inkscape:window-x="0"
   inkscape:window-y="0"
   inkscape:window-maximized="0"
   inkscape:current-layer="svg40" />
	<style
   type="text/css"
   id="style2">
	<![CDATA[
		.st1 {fill:url(#grad0-6);stroke:none;stroke-linecap:butt;stroke-width:34}
		.st2 {fill:url(#grad0-10);stroke:none;stroke-linecap:butt;stroke-width:34}
		.st3 {fill:#005ba1;stroke:none;stroke-linecap:butt;stroke-width:34}
		.st4 {fill:none;fill-rule:evenodd;font-size:12px;overflow:visible;stroke-linecap:square;stroke-miterlimit:3}
	]]>
	</style>

	<defs
   id="Patterns_And_Gradients">
		<linearGradient
   id="grad0-6"
   x1="-1.3189214e-05"
   y1="60.837567"
   x2="50.703972"
   y2="60.837567"
   gradientTransform="scale(0.89440744,1.1180587)"
   gradientUnits="userSpaceOnUse">
			<stop
   offset="0"
   stop-color="#0078d4"
   stop-opacity="1"
   id="stop4" />
			<stop
   offset="1"
   stop-color="#5ea0ef"
   stop-opacity="1"
   id="stop6" />
		</linearGradient>
		<linearGradient
   id="grad0-10"
   x1="0"
   y1="112.87892"
   x2="24.251693"
   y2="112.87892"
   gradientTransform="scale(1.0996057,0.9094169)"
   gradientUnits="userSpaceOnUse">
			<stop
   offset="0"
   stop-color="#ffbd02"
   stop-opacity="1"
   id="stop9" />
			<stop
   offset="1"
   stop-color="#ffd400"
   stop-opacity="1"
   id="stop11" />
		</linearGradient>
	</defs>
	<g
   id="g38"
   transform="translate(-33.999988,-34.00427)">
		<title
   id="title15">Page-1</title>
		<g
   id="group1546-1"
   transform="translate(34,-34.0157)">
			<title
   id="title17">SIM</title>
			<g
   id="group1547-2">
				<title
   id="title19">Sheet.1547</title>
				<g
   id="shape1548-3">
					<title
   id="title21">Sheet.1548</title>
					<path
   d="M 25.14,68.02 H 1.89 A 1.89366,1.93318 -180 0 0 0,69.95 v 52.82 a 1.89366,1.93318 -180 0 0 1.89,1.94 h 41.57 a 1.89366,1.93318 -180 0 0 1.89,-1.93 V 88.57 A 1.78135,1.81853 -180 0 0 44.83,87.28 L 26.4,68.54 a 1.78759,1.8249 -180 0 0 -1.26,-0.52 z"
   class="st1"
   id="path23"
   inkscape:connector-curvature="0"
   style="fill:url(#grad0-6);stroke:none;stroke-width:34;stroke-linecap:butt" />
				</g>
				<g
   id="shape1549-7"
   transform="translate(9.41216,-7.52572)">
					<title
   id="title26">Sheet.1549</title>
					<rect
   x="0"
   y="102.654"
   width="26.667299"
   height="22.054899"
   class="st2"
   id="rect28"
   style="fill:url(#grad0-10);stroke:none;stroke-width:34;stroke-linecap:butt" />
				</g>
				<g
   id="shape1550-11"
   transform="translate(8.3421,-6.57665)">
					<title
   id="title31">Sheet.1550</title>
					<path
   d="m 28.64,101.98 a 1.51306,1.54464 -180 0 0 -0.24,-0.57 1.54114,1.5733 -180 0 0 -0.19,-0.24 1.51618,1.54782 -180 0 0 -0.5,-0.35 1.55985,1.59241 -180 0 0 -0.63,-0.12 H 1.58 A 1.58169,1.6147 -180 0 0 0,102.31 v 20.78 a 1.58169,1.6147 -180 0 0 1.58,1.62 h 25.51 a 1.55985,1.59241 -180 0 0 1.12,-0.48 1.60353,1.637 -180 0 0 0.46,-1.14 V 102.3 a 1.52866,1.56056 -180 0 0 -0.03,-0.32 z M 1.58,102.3 h 13.18 v 10.4 H 1.58 Z m 0,20.79 v -8.89 h 13.18 v 8.88 z m 25.51,0 H 16.34 V 102.3 h 10.75 z"
   class="st3"
   id="path33"
   inkscape:connector-curvature="0"
   style="fill:#005ba1;stroke:none;stroke-width:34;stroke-linecap:butt" />
				</g>
			</g>
		</g>
	</g>
</svg>