<?xml version="1.0" encoding="UTF-8" standalone="no"?>
<!DOCTYPE svg PUBLIC "-//W3C//DTD SVG 1.1//EN" "http://www.w3.org/Graphics/SVG/1.1/DTD/svg11.dtd">
<!-- Generated by Microsoft Visio, SVG Export SQL Database.svg Page-1 -->
<svg xmlns="http://www.w3.org/2000/svg" xmlns:xlink="http://www.w3.org/1999/xlink" xmlns:ev="http://www.w3.org/2001/xml-events"
		width="1.535in" height="2.24388in" viewBox="0 0 110.52 161.559" xml:space="preserve" color-interpolation-filters="sRGB"
		class="st6">
	<style type="text/css">
	<![CDATA[
		.st1 {fill:url(#grad0-6);stroke:none;stroke-linecap:butt;stroke-width:34}
		.st2 {fill:#e8e8e8;stroke:none;stroke-linecap:butt;stroke-width:34}
		.st3 {fill:#50e6ff;stroke:none;stroke-linecap:butt;stroke-width:34}
		.st4 {fill:#198ab3;stroke:none;stroke-linecap:butt;stroke-width:34}
		.st5 {fill:url(#grad3-16);stroke:none;stroke-linecap:butt;stroke-width:34}
		.st6 {fill:none;fill-rule:evenodd;font-size:12px;overflow:visible;stroke-linecap:square;stroke-miterlimit:3}
	]]>
	</style>

	<defs id="Patterns_And_Gradients">
		<linearGradient id="grad0-6" x1="0" y1="0" x2="1" y2="0" gradientTransform="rotate(0 0.5 0.5)">
			<stop offset="0" stop-color="#005ba1" stop-opacity="1"/>
			<stop offset="0.07" stop-color="#0060a9" stop-opacity="1"/>
			<stop offset="0.36" stop-color="#0071c8" stop-opacity="1"/>
			<stop offset="0.52" stop-color="#0078d4" stop-opacity="1"/>
			<stop offset="0.64" stop-color="#0074cd" stop-opacity="1"/>
			<stop offset="0.82" stop-color="#006abb" stop-opacity="1"/>
			<stop offset="1" stop-color="#005ba1" stop-opacity="1"/>
		</linearGradient>
		<radialGradient id="grad3-16" cx="0.5" cy="0.5" r="0.73">
			<stop offset="0" stop-color="#f2f2f2" stop-opacity="1"/>
			<stop offset="0.58" stop-color="#eeeeee" stop-opacity="1"/>
			<stop offset="1" stop-color="#e6e6e6" stop-opacity="1"/>
		</radialGradient>
	</defs>
	<g>
		<title>Page-1</title>
		<g id="group766-1" transform="translate(34,-70.8661)">
			<title>SQL Database</title>
			<g id="group767-2">
				<title>Sheet.767</title>
				<g id="shape768-3">
					<title>Sheet.768</title>
					<path d="M21.26 120.34 C9.52 120.34 0 117.01 0 112.6 L0 153.82 C0 158.06 9.35 161.49 20.96 161.56 L21.26 161.56
								 C33 161.56 42.52 158.22 42.52 153.82 L42.52 112.6 C42.52 116.91 33 120.34 21.26 120.34 Z"
							class="st1"/>
				</g>
				<g id="shape769-7" transform="translate(0,-41.2191)">
					<title>Sheet.769</title>
					<path d="M42.52 153.82 C42.52 158.12 33 161.56 21.26 161.56 C9.52 161.56 0 158.22 0 153.82 C0 149.42 9.52 146.09
								 21.26 146.09 C33 146.09 42.52 149.42 42.52 153.82 Z" class="st2"/>
				</g>
				<g id="shape770-9" transform="translate(4.94184,-44.654)">
					<title>Sheet.770</title>
					<path d="M32.64 156.62 C32.64 159.36 25.31 161.56 16.32 161.56 C7.33 161.56 0 159.36 0 156.62 C0 153.89 7.33
								 151.72 16.32 151.72 C25.31 151.72 32.64 153.92 32.64 156.62 Z" class="st3"/>
				</g>
				<g id="shape771-11" transform="translate(8.358,-44.654)">
					<title>Sheet.771</title>
					<path d="M12.9 157.86 A38.3075 38.5178 -180 0 0 0 159.76 A37.8763 38.0843 -180 0 0 12.9 161.56 A36.9808 37.1839
								 -180 0 0 25.8 159.62 A39.2694 39.4849 -180 0 0 12.9 157.86 Z" class="st4"/>
				</g>
				<g id="shape772-13" transform="translate(5.30667,-14.4067)">
					<title>Sheet.772</title>
					<path d="M28.89 155.62 L28.89 144.28 L25.9 144.28 L25.9 158.06 L34.06 158.06 L34.06 155.62 L28.89 155.62 ZM5.21
								 150.05 A6.0695 6.10283 0 0 1 3.52 149.02 A1.45933 1.46735 0 0 1 3.12 147.95 A1.12767 1.13386 0 0
								 1 3.62 146.95 A2.25533 2.26772 0 0 1 5.01 146.55 A5.373 5.4025 0 0 1 8.32 147.52 L8.32 144.65 A8.557
								 8.60398 -180 0 0 5.01 144.12 A5.43934 5.4692 -180 0 0 1.39 145.25 A3.582 3.60167 -180 0 0 0 148.22
								 C0 149.92 1.06 151.25 3.32 152.25 A9.552 9.60445 0 0 1 5.37 153.46 A1.393 1.40065 0 0 1 5.87 154.52
								 A1.26033 1.26725 0 0 1 5.34 155.56 A2.6865 2.70125 0 0 1 3.85 155.92 A5.50567 5.5359 0 0 1 0.23
								 154.52 L0.23 157.62 A7.19717 7.23668 -180 0 0 3.78 158.42 A6.23534 6.26957 -180 0 0 7.69 157.32
								 A3.582 3.60167 -180 0 0 8.79 154.29 A3.4825 3.50162 -180 0 0 7.96 151.95 A8.02634 8.0704 -180 0
								 0 5.21 150.05 ZM22.59 155.36 A7.761 7.80361 -180 0 0 23.68 151.15 A7.69467 7.73692 -180 0 0 22.59
								 147.62 A6.00317 6.03613 -180 0 0 20.26 145.12 A6.63334 6.66975 -180 0 0 16.95 144.25 A6.99817 7.03659
								 -180 0 0 13.37 145.15 A6.169 6.20287 -180 0 0 10.95 147.62 A8.159 8.2038 -180 0 0 10.08 151.42 A7.49567
								 7.53682 -180 0 0 10.88 154.76 A5.83734 5.86938 -180 0 0 13.17 157.22 A6.83234 6.86985 -180 0 0 16.48
								 158.22 L19.34 161.56 L23.35 161.56 L19.27 157.89 A5.93684 5.96943 -180 0 0 22.59 155.36 ZM19.27
								 154.52 A3.11767 3.13478 0 0 1 16.75 155.69 A3.05133 3.06809 0 0 1 14.23 154.49 A5.04134 5.06901
								 0 0 1 13.27 151.15 A5.0745 5.10236 0 0 1 14.23 147.82 A3.31667 3.33488 0 0 1 16.82 146.59 A2.8855
								 2.90134 0 0 1 19.3 147.82 A5.373 5.4025 0 0 1 20.2 151.15 A4.84234 4.86892 0 0 1 19.27 154.52 Z"
							class="st5"/>
				</g>
			</g>
		</g>
	</g>
</svg>
