<?xml version="1.0" encoding="UTF-8" standalone="no"?>
<!DOCTYPE svg PUBLIC "-//W3C//DTD SVG 1.1//EN" "http://www.w3.org/Graphics/SVG/1.1/DTD/svg11.dtd">
<!-- Generated by Microsoft Visio, SVG Export SQL Database Azure Data Studio.svg Page-1 -->
<svg xmlns="http://www.w3.org/2000/svg" xmlns:xlink="http://www.w3.org/1999/xlink" xmlns:ev="http://www.w3.org/2001/xml-events"
		width="0.850394in" height="1.33858in" viewBox="0 0 61.2283 96.378" xml:space="preserve" color-interpolation-filters="sRGB"
		class="st8">
	<style type="text/css">
	<![CDATA[
		.st1 {fill:#6bbcda;stroke:none;stroke-linecap:butt;stroke-width:1.33917}
		.st2 {fill:#8acae1;stroke:none;stroke-linecap:butt;stroke-width:1.33917}
		.st3 {fill:#50a7e1;stroke:none;stroke-linecap:butt;stroke-width:1.33917}
		.st4 {fill:#c0d557;stroke:none;stroke-linecap:butt;stroke-width:1.33917}
		.st5 {fill:#1e80c6;stroke:none;stroke-linecap:butt;stroke-width:1.33917}
		.st6 {fill:#ffffff;stroke:none;stroke-linecap:butt;stroke-width:1.33917}
		.st7 {fill:#0e4da7;stroke:none;stroke-linecap:butt;stroke-width:1.33917}
		.st8 {fill:none;fill-rule:evenodd;font-size:12px;overflow:visible;stroke-linecap:square;stroke-miterlimit:3}
	]]>
	</style>

	<g>
		<title>Page-1</title>
		<g id="group1410-1" transform="translate(5.10236,-34.0157)">
			<title>SQL Database Azure Data Studio</title>
			<g id="group1411-2">
				<title>Sheet.1411</title>
				<g id="shape1412-3" transform="translate(13.71,-33.2007)">
					<title>Sheet.1412</title>
					<path d="M30.54 82.41 L30.35 82.41 A10.3802 10.5574 -180 0 0 11.22 77.7 A9.76345 9.93009 -180 0 0 9.29 77.49
								 A9.28634 9.44484 -180 1 0 9.29 96.38 L30.54 96.38 A6.86392 6.98107 -180 0 0 30.54 82.42 L30.54 82.41
								 Z" class="st1"/>
				</g>
				<g id="shape1413-5" transform="translate(13.9621,-34.1178)">
					<title>Sheet.1413</title>
					<path d="M13.81 81.31 A10.3691 10.546 0 0 1 15.94 81.55 A10.2551 10.4301 0 0 1 26.45 76.16 A10.3825 10.5597 -180
								 0 0 10.97 78.62 A9.76345 9.93009 -180 0 0 9.04 78.41 A9.28522 9.4437 -180 0 0 5.07 96.38 A9.88413
								 10.0528 0 0 1 3.85 91.5 A9.99251 10.1631 0 0 1 13.81 81.31 L13.81 81.31 Z" class="st2"/>
				</g>
				<g id="shape1414-7" transform="translate(-2.58793E-13,-0.0170464)">
					<title>Sheet.1414</title>
					<path d="M0 60.03 L0 87.87 C0 92.56 7.24 96.36 16.19 96.38 L16.19 66.4 L0 60.03 Z" class="st3"/>
				</g>
				<g id="shape1415-9" transform="translate(-2.58793E-13,-27.6027)">
					<title>Sheet.1415</title>
					<path d="M11.5 81.33 A10.9456 11.1324 0 0 1 11.56 80.15 C4.88 81.16 0 84.33 0 88.08 C0 92.67 7.24 96.38 16.19
								 96.38 L16.19 90.82 A11.6227 11.8211 0 0 1 11.5 81.34 L11.5 81.33 Z" class="st4"/>
				</g>
				<g id="shape1416-11" transform="translate(16.186,-27.6197)">
					<title>Sheet.1416</title>
					<path d="M12.95 93.11 L6.81 93.11 A11.3602 11.554 0 0 1 0 90.81 L0 96.38 L0.02 96.38 A23.9986 24.4082 -180 0
								 0 12.95 93.11 L12.95 93.11 Z" class="st4"/>
				</g>
				<g id="shape1417-13" transform="translate(16.1871,-0.0818227)">
					<title>Sheet.1417</title>
					<path d="M11.97 81.89 L12.06 81.69 L12.83 79.81 L12.92 79.61 L13.72 77.66 L15.62 78.48 L15.81 78.57 L16.23 78.74
								 L16.23 65.61 L12.95 65.61 A24.2421 24.6559 0 0 1 0.02 68.9 L0 68.9 L0 82.25 L11.83 82.25 L11.97
								 81.89 ZM12.81 91.77 L12.03 89.86 L11.95 89.67 L11.16 87.7 L13.09 86.89 L13.28 86.81 L14.07 86.47
								 C14.04 86.24 14.04 86.02 14.04 85.79 C14.04 85.56 14.04 85.3 14.07 85.05 L13.28 84.71 L13.13 84.64
								 L0 84.64 L0 96.38 L0.02 96.38 A23.346 23.7445 -180 0 0 13.22 92.81 L12.87 91.92 L12.81 91.77 Z"
							class="st5"/>
				</g>
				<g id="shape1418-15" transform="translate(2.51799E-13,-3.1729)">
					<title>Sheet.1418</title>
					<path d="M29.28 87.76 L27.38 86.93 L28.04 85.3 L14.78 85.3 L12.91 89.94 L7.26 74.03 L3.13 85.49 L0 85.49 L0 87.5
								 L4.75 87.5 L7.37 80.1 L13.08 96.38 L16.08 87.79 L29.32 87.79 L29.28 87.76 Z" class="st6"/>
				</g>
				<g id="shape1419-17" transform="translate(30.0971,2.84217E-13)">
					<title>Sheet.1419</title>
					<path d="M18.4 87.81 A8.12876 8.2675 -180 0 0 18.65 85.75 A8.91985 9.07209 -180 0 0 18.43 83.73 L20.71 82.78
								 L20.9 82.69 L20.81 82.5 L20.04 80.59 L19.95 80.4 L19.77 80.49 L17.48 81.44 A8.30083 8.44251 -180
								 0 0 14.68 78.56 L15.64 76.22 L15.72 76.03 L15.53 75.95 L13.69 75.16 L13.5 75.07 L13.43 75.27 L12.47
								 77.6 A8.04831 8.18568 -180 0 0 10.46 77.35 A8.82152 8.97208 -180 0 0 8.48 77.58 L7.56 75.24 L7.47
								 75.06 L7.28 75.14 L5.41 75.93 L5.23 76.01 L5.31 76.2 L6.24 78.54 A8.2986 8.44024 -180 0 0 3.41 81.4
								 L2.33 80.93 L1.13 80.42 L0.94 80.34 L0.86 80.53 L0.08 82.42 L0 82.61 L0.19 82.69 L2.47 83.67 A7.34326
								 7.46859 -180 0 0 2.32 84.35 C2.28 84.58 2.26 84.86 2.24 85.11 L2.24 85.13 A5.27168 5.36166 -180
								 0 0 2.22 85.7 A2.73976 2.78652 -180 0 0 2.24 86.13 a0.563147 0.572759 -180 0 0 0.0223471 0.192056
								 C2.26 86.38 2.28 86.45 2.28 86.53 A4.83815 4.92072 -180 0 0 2.41 87.34 A1.80341 1.83419 -180 0 0
								 2.49 87.7 L2.37 87.74 L0.2 88.65 L0.01 88.74 L0.1 88.93 L0.87 90.84 L0.95 91.03 L1.14 90.94 L3.42
								 89.99 A8.3053 8.44705 -180 0 0 6.22 92.88 L5.27 95.21 L5.19 95.4 L5.37 95.49 L7.22 96.27 L7.41 96.36
								 L7.49 96.17 L8.44 93.83 A8.13658 8.27545 -180 0 0 10.46 94.09 A8.82152 8.97208 -180 0 0 12.43 93.85
								 L13.36 96.19 L13.44 96.38 L13.63 96.29 L15.49 95.51 L15.68 95.42 L15.6 95.23 L14.67 92.9 A8.2986
								 8.44024 -180 0 0 17.49 90.03 L19.78 91.01 L19.96 91.09 L20.05 90.9 L20.82 89.01 L20.9 88.82 L20.72
								 88.74 L18.4 87.81 ZM10.43 91.58 A5.76109 5.85941 0 0 1 5.91 82.14 L5.93 82.12 A5.73762 5.83555 0
								 1 1 10.43 91.59 L10.43 91.58 Z" class="st7"/>
				</g>
				<g id="shape1420-19" transform="translate(35.9878,-14.2121)">
					<title>Sheet.1420</title>
					<path d="M0.06 96.33 L0.04 96.33 L0.02 96.36 C0.02 96.36 0.02 96.38 0 96.38 L0.06 96.33 Z" class="st6"/>
				</g>
			</g>
		</g>
	</g>
</svg>
