<?xml version="1.0" encoding="UTF-8" standalone="no"?>
<!-- Generated by Microsoft Visio, SVG Export Static Web App.svg Page-1 -->

<svg
   xmlns:dc="http://purl.org/dc/elements/1.1/"
   xmlns:cc="http://creativecommons.org/ns#"
   xmlns:rdf="http://www.w3.org/1999/02/22-rdf-syntax-ns#"
   xmlns:svg="http://www.w3.org/2000/svg"
   xmlns="http://www.w3.org/2000/svg"
   xmlns:sodipodi="http://sodipodi.sourceforge.net/DTD/sodipodi-0.dtd"
   xmlns:inkscape="http://www.inkscape.org/namespaces/inkscape"
   width="56.689999"
   height="45.3517"
   viewBox="0 0 56.689998 45.351699"
   xml:space="preserve"
   class="st6"
   version="1.1"
   id="svg45"
   sodipodi:docname="Static Web App.svg"
   style="font-size:12px;overflow:visible;color-interpolation-filters:sRGB;fill:none;fill-rule:evenodd;stroke-linecap:square;stroke-miterlimit:3"
   inkscape:version="0.92.5 (2060ec1f9f, 2020-04-08)"><metadata
   id="metadata49"><rdf:RDF><cc:Work
       rdf:about=""><dc:format>image/svg+xml</dc:format><dc:type
         rdf:resource="http://purl.org/dc/dcmitype/StillImage" /></cc:Work></rdf:RDF></metadata><sodipodi:namedview
   pagecolor="#ffffff"
   bordercolor="#666666"
   borderopacity="1"
   objecttolerance="10"
   gridtolerance="10"
   guidetolerance="10"
   inkscape:pageopacity="0"
   inkscape:pageshadow="2"
   inkscape:window-width="640"
   inkscape:window-height="480"
   id="namedview47"
   showgrid="false"
   inkscape:zoom="2.0816794"
   inkscape:cx="28.3465"
   inkscape:cy="22.669299"
   inkscape:window-x="0"
   inkscape:window-y="0"
   inkscape:window-maximized="0"
   inkscape:current-layer="svg45" />
	<style
   type="text/css"
   id="style2">
	<![CDATA[
		.st1 {fill:url(#grad0-6);stroke:none;stroke-linecap:butt;stroke-width:34}
		.st2 {fill:#5ea0ef;fill-opacity:0.6;stroke:none;stroke-linecap:butt;stroke-width:34}
		.st3 {fill:#005ba1;stroke:none;stroke-linecap:butt;stroke-width:34}
		.st4 {fill:#ffffff;fill-opacity:0.8;stroke:none;stroke-linecap:butt;stroke-width:34}
		.st5 {fill:#ffffff;stroke:none;stroke-linecap:butt;stroke-width:34}
		.st6 {fill:none;fill-rule:evenodd;font-size:12px;overflow:visible;stroke-linecap:square;stroke-miterlimit:3}
	]]>
	</style>

	<defs
   id="Patterns_And_Gradients">
		<linearGradient
   id="grad0-6"
   x1="0"
   y1="104.3861"
   x2="43.468123"
   y2="104.3861"
   gradientTransform="scale(1.3041741,0.76676879)"
   gradientUnits="userSpaceOnUse">
			<stop
   offset="0"
   stop-color="#005ba1"
   stop-opacity="1"
   id="stop4" />
			<stop
   offset="0.775"
   stop-color="#0078d4"
   stop-opacity="1"
   id="stop6" />
		</linearGradient>
	</defs>
	<g
   id="g43"
   transform="translate(-34,-34.0026)">
		<title
   id="title10">Page-1</title>
		<g
   id="group1142-1"
   transform="translate(34,-34.0157)">
			<title
   id="title12">Static Web App</title>
			<g
   id="group1143-2">
				<title
   id="title14">Sheet.1143</title>
				<g
   id="shape1144-3">
					<title
   id="title16">Sheet.1144</title>
					<path
   d="m 0,80.04 h 56.69 v 31.45 a 1.88976,1.88049 0 0 1 -1.89,1.88 H 1.89 A 1.88976,1.88049 0 0 1 0,111.49 Z"
   class="st1"
   id="path18"
   inkscape:connector-curvature="0"
   style="fill:url(#grad0-6);stroke:none;stroke-width:34;stroke-linecap:butt" />
				</g>
				<g
   id="shape1145-7"
   transform="translate(4.12283,-3.33474)">
					<title
   id="title21">Sheet.1145</title>
					<path
   d="m 0,111.49 a 1.88981,1.88054 -180 0 0 1.89,1.88 h 45.12 a 1.88981,1.88054 -180 0 0 1.89,-1.88 V 88.57 A 1.88981,1.88054 -180 0 0 47.01,86.69 H 1.89 A 1.88981,1.88054 -180 0 0 0,88.57 Z"
   class="st2"
   id="path23"
   inkscape:connector-curvature="0"
   style="fill:#5ea0ef;fill-opacity:0.6;stroke:none;stroke-width:34;stroke-linecap:butt" />
				</g>
				<g
   id="shape1146-9"
   transform="translate(0,-33.3317)">
					<title
   id="title26">Sheet.1146</title>
					<path
   d="M 1.89,101.35 H 54.8 a 1.88976,1.88049 0 0 1 1.89,1.88 v 10.14 H 0 v -10.14 a 1.88976,1.88049 0 0 1 1.89,-1.88 z"
   class="st3"
   id="path28"
   inkscape:connector-curvature="0"
   style="fill:#005ba1;stroke:none;stroke-width:34;stroke-linecap:butt" />
				</g>
				<g
   id="shape1147-11"
   transform="translate(13.1437,-8.32162)">
					<title
   id="title31">Sheet.1147</title>
					<path
   d="m 9.25,112.23 -1.01,1.01 a 0.453543,0.451318 0 0 1 -0.645669,0 L 0.27,105.93 a 0.913386,0.908904 0 0 1 0,-1.285 l 1.01,-1.005 7.97,7.95 a 0.456693,0.454452 0 0 1 -0.00315,0.6425 z m 11.5,0 1.01,1.01 a 0.453543,0.451318 -180 0 0 0.645669,0 L 29.73,105.93 a 0.913386,0.908904 -180 0 0 0,-1.285 l -1.01,-1.005 -7.97,7.95 a 0.456693,0.454452 -180 0 0 0.0032,0.6425 z"
   class="st4"
   id="path33"
   inkscape:connector-curvature="0"
   style="fill:#ffffff;fill-opacity:0.8;stroke:none;stroke-width:34;stroke-linecap:butt" />
				</g>
				<g
   id="shape1148-13"
   transform="translate(5.88535,-5.86713)">
					<title
   id="title36">Sheet.1148</title>
					<path
   d="m 15.63,94.78 1.01,1.01 a 0.453543,0.451318 0 0 1 0,0.642501 L 8.53,104.48 7.52,103.47 a 0.910236,0.90577 0 0 1 0,-1.285 l 7.46,-7.405 a 0.456693,0.454452 0 0 1 0.645669,0.0031 z m 13.25,0 -1.01,1.01 a 0.453543,0.451318 -180 0 0 0,0.642501 l 8.11,8.047499 1.01,-1 a 0.919685,0.915173 -180 0 0 0,-1.28814 L 29.53,94.78 a 0.453543,0.451318 -180 0 0 -0.645669,0.0031 z m -9.07,18.59 -1.61,-0.51 a 0.330709,0.329086 0 0 1 -0.211024,-0.41057 L 24.57,91.99 a 0.314961,0.313415 0 0 1 0.409449,-0.209988 L 26.59,92.29 a 0.314961,0.313415 0 0 1 0.211024,0.40744 L 20.22,113.17 a 0.314961,0.313415 0 0 1 -0.409449,0.19745 z M 4.09,80.41 a 2.3937,2.38196 0 1 1 -2.4,-2.38 2.3937,2.38196 0 0 1 2.4,2.38 z m 5.14,-2.38 a 2.3937,2.38196 -180 1 0 2.4,2.38 2.3937,2.38196 -180 0 0 -2.4,-2.38 z m 7.54,0 a 2.3937,2.38196 -180 1 0 2.39,2.38 2.3937,2.38196 -180 0 0 -2.4,-2.38 z"
   class="st5"
   id="path38"
   inkscape:connector-curvature="0"
   style="fill:#ffffff;stroke:none;stroke-width:34;stroke-linecap:butt" />
				</g>
			</g>
		</g>
	</g>
</svg>