<?xml version="1.0" encoding="UTF-8" standalone="no"?>
<!DOCTYPE svg PUBLIC "-//W3C//DTD SVG 1.1//EN" "http://www.w3.org/Graphics/SVG/1.1/DTD/svg11.dtd">
<!-- Generated by Microsoft Visio, SVG Export Static Web App.svg Page-1 -->
<svg xmlns="http://www.w3.org/2000/svg" xmlns:xlink="http://www.w3.org/1999/xlink" xmlns:ev="http://www.w3.org/2001/xml-events"
		width="1.73185in" height="1.99978in" viewBox="0 0 124.693 143.984" xml:space="preserve" color-interpolation-filters="sRGB"
		class="st6">
	<style type="text/css">
	<![CDATA[
		.st1 {fill:url(#grad0-6);stroke:none;stroke-linecap:butt;stroke-width:34}
		.st2 {fill:#5ea0ef;fill-opacity:0.6;stroke:none;stroke-linecap:butt;stroke-width:34}
		.st3 {fill:#005ba1;stroke:none;stroke-linecap:butt;stroke-width:34}
		.st4 {fill:#ffffff;fill-opacity:0.8;stroke:none;stroke-linecap:butt;stroke-width:34}
		.st5 {fill:#ffffff;stroke:none;stroke-linecap:butt;stroke-width:34}
		.st6 {fill:none;fill-rule:evenodd;font-size:12px;overflow:visible;stroke-linecap:square;stroke-miterlimit:3}
	]]>
	</style>

	<defs id="Patterns_And_Gradients">
		<linearGradient id="grad0-6" x1="0" y1="0" x2="1" y2="0" gradientTransform="rotate(-90 0.5 0.5)">
			<stop offset="0" stop-color="#005ba1" stop-opacity="1"/>
			<stop offset="0.775" stop-color="#0078d4" stop-opacity="1"/>
		</linearGradient>
	</defs>
	<g>
		<title>Page-1</title>
		<g id="group665-1" transform="translate(34,-64.6299)">
			<title>Static Web App</title>
			<g id="group666-2">
				<title>Sheet.666</title>
				<g id="shape667-3">
					<title>Sheet.667</title>
					<path d="M0 110.65 L56.69 110.65 L56.69 142.1 A1.88976 1.88049 0 0 1 54.8 143.98 L1.89 143.98 A1.88976 1.88049
								 0 0 1 0 142.1 L0 110.65 Z" class="st1"/>
				</g>
				<g id="shape668-7" transform="translate(4.12283,-3.33474)">
					<title>Sheet.668</title>
					<path d="M0 142.1 A1.88981 1.88054 -180 0 0 1.89 143.98 L47.01 143.98 A1.88981 1.88054 -180 0 0 48.9 142.1 L48.9
								 119.18 A1.88981 1.88054 -180 0 0 47.01 117.3 L1.89 117.3 A1.88981 1.88054 -180 0 0 0 119.18 L0 142.1
								 Z" class="st2"/>
				</g>
				<g id="shape669-9" transform="translate(0,-33.3317)">
					<title>Sheet.669</title>
					<path d="M1.89 131.96 L54.8 131.96 A1.88976 1.88049 0 0 1 56.69 133.84 L56.69 143.98 L0 143.98 L0 133.85 A1.88976
								 1.88049 0 0 1 1.89 131.96 Z" class="st3"/>
				</g>
				<g id="shape670-11" transform="translate(13.1437,-8.32162)">
					<title>Sheet.670</title>
					<path d="M9.25 142.85 L8.24 143.85 a0.453543 0.451318 0 0 1 -0.645669 0 L0.27 136.54 a0.913386 0.908904 0 0 1
								 -7.77156E-15 -1.285 L1.28 134.25 L9.25 142.2 a0.456693 0.454452 0 0 1 -0.00314961 0.642501 ZM20.75
								 142.85 L21.76 143.85 a0.453543 0.451318 -180 0 0 0.645669 2.84217E-14 L29.73 136.54 a0.913386 0.908904
								 -180 0 0 -3.19744E-14 -1.285 L28.72 134.25 L20.75 142.2 a0.456693 0.454452 -180 0 0 0.00314961 0.642501
								 Z" class="st4"/>
				</g>
				<g id="shape671-13" transform="translate(5.88535,-5.86713)">
					<title>Sheet.671</title>
					<path d="M15.63 125.4 L16.64 126.4 a0.453543 0.451318 0 0 1 -7.10543E-15 0.642501 L8.53 135.1 L7.52 134.09 a0.910236
								 0.90577 0 0 1 -2.66454E-15 -1.285 L14.98 125.4 a0.456693 0.454452 0 0 1 0.645669 0.00313415 ZM28.88
								 125.4 L27.87 126.4 a0.453543 0.451318 -180 0 0 0 0.642501 L35.98 135.1 L36.99 134.09 a0.919685 0.915173
								 -180 0 0 4.26326E-14 -1.28814 L29.53 125.4 a0.453543 0.451318 -180 0 0 -0.645669 0.00313415 L28.88
								 125.4 ZM19.81 143.98 L18.2 143.47 a0.330709 0.329086 0 0 1 -0.211024 -0.410574 L24.57 122.6 a0.314961
								 0.313415 0 0 1 0.409449 -0.209988 L26.59 122.9 a0.314961 0.313415 0 0 1 0.211024 0.40744 L20.22
								 143.79 a0.314961 0.313415 0 0 1 -0.409449 0.197452 ZM4.09 111.03 A2.3937 2.38196 0 1 1 1.69 108.64
								 A2.3937 2.38196 0 0 1 4.09 111.03 ZM9.23 108.64 A2.3937 2.38196 -180 1 0 11.63 111.03 A2.3937 2.38196
								 -180 0 0 9.23 108.64 ZM16.77 108.64 A2.3937 2.38196 -180 1 0 19.16 111.03 A2.3937 2.38196 -180 0
								 0 16.76 108.64 L16.77 108.64 Z" class="st5"/>
				</g>
			</g>
		</g>
	</g>
</svg>
