<?xml version="1.0" encoding="UTF-8" standalone="no"?>
<!DOCTYPE svg PUBLIC "-//W3C//DTD SVG 1.1//EN" "http://www.w3.org/Graphics/SVG/1.1/DTD/svg11.dtd">
<!-- Generated by Microsoft Visio, SVG Export Storage Account Blob Cool.svg Page-1 -->
<svg xmlns="http://www.w3.org/2000/svg" xmlns:xlink="http://www.w3.org/1999/xlink" xmlns:ev="http://www.w3.org/2001/xml-events"
		width="1.1274in" height="1.31173in" viewBox="0 0 81.1729 94.4447" xml:space="preserve" color-interpolation-filters="sRGB"
		class="st6">
	<style type="text/css">
	<![CDATA[
		.st1 {fill:#a0a1a2;stroke:none;stroke-width:12.24}
		.st2 {fill:#7a7a7a;stroke:none;stroke-width:12.24}
		.st3 {fill:#ffffff;stroke:none;stroke-width:12.24}
		.st4 {fill:#2272b9;stroke:none;stroke-width:0.859307}
		.st5 {fill:#ffffff;fill-opacity:0.2;stroke:none;stroke-width:12.24}
		.st6 {fill:none;fill-rule:evenodd;font-size:12px;overflow:visible;stroke-linecap:square;stroke-miterlimit:3}
	]]>
	</style>

	<g>
		<title>Page-1</title>
		<g id="group733-1" transform="translate(12.24,-34.0157)">
			<title>Storage Account Blob Cool</title>
			<g id="group734-2">
				<title>Page-1</title>
				<g id="group735-3">
					<title>Azure Storage (Blog) Cool Tier</title>
					<g id="shape736-4">
						<title>Sheet.736</title>
						<path d="M0 92.3 C0 93.43 0.8 94.44 2.15 94.44 L54.54 94.44 C55.67 94.44 56.69 93.66 56.69 92.3 L56.69 54.85
									 L0 54.85 L0 92.3 Z" class="st1"/>
					</g>
					<g id="shape737-6" transform="translate(0,-39.5949)">
						<title>Sheet.737</title>
						<path d="M54.54 85.85 L2.15 85.85 C0.8 85.85 0 86.87 0 88 L0 94.44 L56.69 94.44 L56.69 88 C56.69 86.87 55.9
									 85.85 54.54 85.85 Z" class="st2"/>
					</g>
					<g id="shape738-8" transform="translate(21.3171,-27.2603)">
						<title>Sheet.738</title>
						<rect x="0" y="85.847" width="14.287" height="8.59777" class="st3"/>
					</g>
					<g id="shape739-10" transform="translate(21.3171,-15.608)">
						<title>Sheet.739</title>
						<rect x="0" y="85.847" width="14.287" height="8.59777" class="st4"/>
					</g>
					<g id="shape740-12" transform="translate(38.3255,-15.608)">
						<title>Sheet.740</title>
						<rect x="0" y="85.847" width="14.287" height="8.59777" class="st4"/>
					</g>
					<g id="shape741-14" transform="translate(38.3255,-27.2603)">
						<title>Sheet.741</title>
						<rect x="0" y="85.847" width="14.287" height="8.59777" class="st3"/>
					</g>
					<g id="shape742-16" transform="translate(4.30878,-27.2603)">
						<title>Sheet.742</title>
						<rect x="0" y="85.847" width="14.287" height="8.59777" class="st3"/>
					</g>
					<g id="shape743-18" transform="translate(4.30878,-15.608)">
						<title>Sheet.743</title>
						<rect x="0" y="85.847" width="14.287" height="8.59777" class="st3"/>
					</g>
					<g id="shape744-20" transform="translate(4.30878,-4.06894)">
						<title>Sheet.744</title>
						<rect x="0" y="85.847" width="14.287" height="8.59777" class="st4"/>
					</g>
					<g id="shape745-22" transform="translate(21.3171,-4.06894)">
						<title>Sheet.745</title>
						<rect x="0" y="85.847" width="14.287" height="8.59777" class="st4"/>
					</g>
					<g id="shape746-24" transform="translate(38.3255,-4.06894)">
						<title>Sheet.746</title>
						<rect x="0" y="85.847" width="14.287" height="8.59777" class="st4"/>
					</g>
					<g id="shape747-26">
						<title>Sheet.747</title>
						<path d="M2.15 46.26 C1.13 46.26 0 47.27 0 48.41 L0 56.78 L0 60.51 L0 92.3 C0 93.43 1.13 94.44 2.15 94.44
									 L4.53 94.44 L49.44 46.26 L2.15 46.26 Z" class="st5"/>
					</g>
				</g>
			</g>
		</g>
	</g>
</svg>
