<?xml version="1.0" encoding="UTF-8" standalone="no"?>
<!DOCTYPE svg PUBLIC "-//W3C//DTD SVG 1.1//EN" "http://www.w3.org/Graphics/SVG/1.1/DTD/svg11.dtd">
<!-- Generated by Microsoft Visio, SVG Export Storage Account Encryption.svg Page-1 -->
<svg xmlns="http://www.w3.org/2000/svg" xmlns:xlink="http://www.w3.org/1999/xlink" xmlns:ev="http://www.w3.org/2001/xml-events"
		width="1.535in" height="1.7321in" viewBox="0 0 110.52 124.711" xml:space="preserve" color-interpolation-filters="sRGB"
		class="st4">
	<style type="text/css">
	<![CDATA[
		.st1 {fill:url(#grad0-6);stroke:none;stroke-linecap:butt;stroke-width:34}
		.st2 {fill:#50e6ff;stroke:none;stroke-linecap:butt;stroke-width:34}
		.st3 {fill:#ffffff;fill-opacity:0.2;stroke:none;stroke-linecap:butt;stroke-width:34}
		.st4 {fill:none;fill-rule:evenodd;font-size:12px;overflow:visible;stroke-linecap:square;stroke-miterlimit:3}
	]]>
	</style>

	<defs id="Patterns_And_Gradients">
		<linearGradient id="grad0-6" x1="0" y1="0" x2="1" y2="0" gradientTransform="rotate(88.554730392656 0.5 0.5)">
			<stop offset="0.225" stop-color="#32d4f5" stop-opacity="1"/>
			<stop offset="0.475" stop-color="#31d1f3" stop-opacity="1"/>
			<stop offset="0.635" stop-color="#2ec9eb" stop-opacity="1"/>
			<stop offset="0.77" stop-color="#29bade" stop-opacity="1"/>
			<stop offset="0.89" stop-color="#22a5cb" stop-opacity="1"/>
			<stop offset="1" stop-color="#198ab3" stop-opacity="1"/>
			<stop offset="1" stop-color="#198ab3" stop-opacity="1"/>
		</linearGradient>
	</defs>
	<g>
		<title>Page-1</title>
		<g id="group904-1" transform="translate(34,-34.0157)">
			<title>Storage Account Encryption</title>
			<g id="group905-2">
				<title>Icon-Lock-security-250</title>
				<g id="shape906-3">
					<title>Sheet.906</title>
					<path d="M40.28 95.33 L37.27 95.33 L37.27 85.64 A18.278 18.3696 -180 0 0 32.6 73.27 A14.9576 15.0326 -180 0 0
								 20.98 68.02 A15.093 15.1687 -180 0 0 9.37 73.27 A17.9782 18.0683 -180 0 0 4.7 85.63 L4.7 95.33 L2.18
								 95.33 A2.20819 2.21925 -180 0 0 -0 97.51 L0 122.53 A2.21141 2.22249 -180 0 0 2.18 124.71 L40.28
								 124.71 A2.20496 2.21601 -180 0 0 42.46 122.53 L42.46 97.51 A2.20174 2.21277 -180 0 0 40.28 95.33
								 ZM29.72 95.33 L12.26 95.33 L12.26 85.48 A9.90944 9.95908 0 0 1 14.98 78.7 A7.79151 7.83055 0 0 1
								 26.81 78.7 A9.69668 9.74526 0 0 1 27.82 80.06 A9.34853 9.39536 0 0 1 29.71 85.48 L29.72 95.33 Z"
							class="st1"/>
				</g>
				<g id="shape907-7" transform="translate(0.818802,-0.369335)">
					<title>Sheet.907</title>
					<path d="M39.52 95.7 L1.4 95.7 A2.15339 2.16417 -180 0 0 0 96.24 L40.92 124.71 A2.17595 2.18685 -180 0 0 41.7
								 123.07 L41.7 97.89 A2.21141 2.22249 -180 0 0 39.52 95.7 Z" class="st2"/>
				</g>
				<g id="shape908-9" transform="translate(0.0805908,-0.369335)">
					<title>Sheet.908</title>
					<path d="M2.18 95.7 L40.3 95.7 A2.15339 2.16417 0 0 1 41.7 96.24 L0.78 124.71 A2.16306 2.17389 0 0 1 0 123.07
								 L0 97.89 A2.20819 2.21925 0 0 1 2.18 95.7 Z" class="st3"/>
				</g>
			</g>
		</g>
	</g>
</svg>
