<?xml version="1.0" encoding="UTF-8" standalone="no"?>
<!DOCTYPE svg PUBLIC "-//W3C//DTD SVG 1.1//EN" "http://www.w3.org/Graphics/SVG/1.1/DTD/svg11.dtd">
<!-- Generated by Microsoft Visio, SVG Export Storage Account Container.svg Page-1 -->
<svg xmlns="http://www.w3.org/2000/svg" xmlns:xlink="http://www.w3.org/1999/xlink" xmlns:ev="http://www.w3.org/2001/xml-events"
		width="1.5748in" height="1.75858in" viewBox="0 0 113.386 126.618" xml:space="preserve" color-interpolation-filters="sRGB"
		class="st6">
	<style type="text/css">
	<![CDATA[
		.st1 {fill:#a0a1a2;stroke:none;stroke-linecap:butt;stroke-width:12.24}
		.st2 {fill:#7a7a7a;stroke:none;stroke-linecap:butt;stroke-width:12.24}
		.st3 {fill:#ffffff;fill-opacity:0.8;stroke:none;stroke-linecap:butt;stroke-width:12.24}
		.st4 {fill:#ff8c00;stroke:none;stroke-linecap:butt;stroke-width:12.24}
		.st5 {fill:#ffffff;fill-opacity:0.2;stroke:none;stroke-linecap:butt;stroke-width:12.24}
		.st6 {fill:none;fill-rule:evenodd;font-size:12px;overflow:visible;stroke-linecap:square;stroke-miterlimit:3}
	]]>
	</style>

	<g>
		<title>Page-1</title>
		<g id="group585-1" transform="translate(28.3465,-66.189)">
			<title>Storage Account Container</title>
			<g id="group586-2">
				<title>g14</title>
				<g id="shape587-3">
					<title>path4</title>
					<path d="M0 124.47 C0 125.6 0.91 126.62 2.04 126.62 L54.54 126.62 C55.67 126.62 56.69 125.72 56.69 124.47 L56.69
								 87.12 L0 87.12 L0 124.47 Z" class="st1"/>
				</g>
				<g id="shape588-5" transform="translate(0,-39.612)">
					<title>path6</title>
					<path d="M54.54 118.04 L2.04 118.04 C0.91 118.04 0 119.06 0 120.19 L0 126.62 L56.69 126.62 L56.69 120.19 C56.69
								 119.06 55.79 118.04 54.54 118.04 Z" class="st2"/>
				</g>
				<g id="shape589-7" transform="translate(10.9984,-4.28848)">
					<title>path8</title>
					<path d="M32.09 102.13 L32.09 99.42 L14.85 99.42 L10.77 95.36 L0 95.36 L0 125.04 C0 125.94 0.68 126.62 1.59 126.62
								 L32.43 126.62 C33.34 126.62 34.02 125.94 34.02 125.04 L34.02 102.13 L32.09 102.13 Z" class="st3"/>
				</g>
				<g id="shape590-9" transform="translate(10.9984,-4.28848)">
					<title>path10</title>
					<path d="M3.17 102.13 L3.17 125.04 C3.17 125.94 2.49 126.62 1.59 126.62 C0.68 126.62 0 125.94 0 125.04 L0 95.36
								 L10.89 95.36 L14.97 99.42 L32.09 99.42 L32.09 102.13 L3.17 102.13 Z" class="st4"/>
				</g>
				<g id="shape591-11" transform="translate(0,-0.112855)">
					<title>path12</title>
					<path d="M2.27 78.54 C1.02 78.54 0 79.56 0 80.8 L0 124.36 C0 125.6 1.02 126.62 2.27 126.62 L4.76 126.62 L49.44
								 78.54 L2.27 78.54 Z" class="st5"/>
				</g>
			</g>
		</g>
	</g>
</svg>
