<?xml version="1.0" encoding="UTF-8" standalone="no"?>
<!DOCTYPE svg PUBLIC "-//W3C//DTD SVG 1.1//EN" "http://www.w3.org/Graphics/SVG/1.1/DTD/svg11.dtd">
<!-- Generated by Microsoft Visio, SVG Export Storage Explorer.svg Page-1 -->
<svg xmlns="http://www.w3.org/2000/svg" xmlns:xlink="http://www.w3.org/1999/xlink" xmlns:ev="http://www.w3.org/2001/xml-events"
		width="1.73194in" height="2.24397in" viewBox="0 0 124.7 161.566" xml:space="preserve" color-interpolation-filters="sRGB"
		class="st4">
	<style type="text/css">
	<![CDATA[
		.st1 {fill:#005ba1;stroke:none;stroke-linecap:butt;stroke-width:34}
		.st2 {fill:#32bedd;stroke:none;stroke-linecap:butt;stroke-width:34}
		.st3 {fill:url(#grad0-14);stroke:none;stroke-linecap:butt;stroke-width:34}
		.st4 {fill:none;fill-rule:evenodd;font-size:12px;overflow:visible;stroke-linecap:square;stroke-miterlimit:3}
	]]>
	</style>

	<defs id="Patterns_And_Gradients">
		<linearGradient id="grad0-14" x1="0" y1="0" x2="1" y2="0" gradientTransform="rotate(-90 0.5 0.5)">
			<stop offset="0" stop-color="#773adc" stop-opacity="1"/>
			<stop offset="1" stop-color="#b77af4" stop-opacity="1"/>
		</linearGradient>
	</defs>
	<g>
		<title>Page-1</title>
		<g id="group563-1" transform="translate(34.0067,-70.8661)">
			<title>Storage Explorer</title>
			<g id="group564-2">
				<title>Icon-91Artboard 1</title>
				<g id="shape565-3" transform="translate(28.1704,-13.8189)">
					<title>Sheet.565</title>
					<rect x="0" y="151.29" width="27.8183" height="10.2756" class="st1"/>
				</g>
				<g id="shape566-5" transform="translate(0,-46.063)">
					<title>Sheet.566</title>
					<path d="M1.06 150.94 L12.68 150.94 A1.12682 1.13386 0 0 1 13.73 152 L13.73 160.5 A1.12682 1.13386 0 0 1 12.68
								 161.57 L1.06 161.57 C0.35 161.21 0 160.86 0 160.5 L0 152 a0.950751 0.956693 0 0 1 1.05639 -1.06299
								 Z" class="st2"/>
				</g>
				<g id="shape567-7" transform="translate(1.76065,-1.41732)">
					<title>Sheet.567</title>
					<rect x="0" y="150.581" width="52.4674" height="10.9843" class="st1"/>
				</g>
				<g id="shape568-9" transform="translate(0,-25.5118)">
					<title>Sheet.568</title>
					<path d="M14.44 150.94 L26.06 150.94 A1.12682 1.13386 -180 0 0 27.11 149.87 L27.11 141.72 A1.12682 1.13386 -180
								 0 0 26.06 140.66 L14.44 140.66 a0.950751 0.956693 -180 0 0 -1.05639 1.06299 L13.38 150.23 A1.12682
								 1.13386 0 0 1 12.32 151.29 L1.06 151.29 C0.35 150.94 0 151.64 0 152 L0 160.5 A1.12682 1.13386 -180
								 0 0 1.06 161.57 L12.68 161.57 A1.12682 1.13386 -180 0 0 13.73 160.5 L13.73 152 C13.38 151.64 13.73
								 150.94 14.44 150.94 Z" class="st2"/>
				</g>
				<g id="shape569-11">
					<title>Sheet.569</title>
					<path d="M56.34 113.73 A1.12682 1.13386 -180 0 0 55.28 112.67 L41.2 112.67 a0.950751 0.956693 -180 0 0 -1.05639
								 1.06299 L40.14 124.72 L27.11 124.72 L27.11 136.05 L13.38 136.05 L13.38 147.75 L1.06 147.75 A1.12682
								 1.13386 -180 0 0 -0 148.81 L0 160.5 a0.950751 0.956693 -180 0 0 1.05639 1.06299 L55.64 161.57 A1.12682
								 1.13386 -180 0 0 56.69 160.5 L56.69 113.73 L56.34 113.73 ZM13.38 159.79 L1.76 159.79 L1.76 149.87
								 L13.03 149.87 L13.38 159.79 ZM27.11 159.79 L15.14 159.79 L15.14 149.87 L27.11 149.87 L27.11 159.79
								 ZM27.11 147.75 L15.14 147.75 L15.14 137.83 L27.11 137.83 L27.11 147.75 ZM28.87 126.49 L40.49 126.49
								 L40.49 136.05 L28.87 136.05 L28.87 126.49 ZM28.87 138.18 L40.49 138.18 L40.49 147.75 L28.87 147.75
								 L28.87 138.18 ZM28.87 159.79 L28.87 149.87 L40.49 149.87 L40.49 159.79 L28.87 159.79 ZM42.26 138.18
								 L54.58 138.18 L54.58 147.75 L42.26 147.75 L42.26 138.18 ZM54.58 136.05 L42.26 136.05 L42.26 126.49
								 L54.58 126.49 L54.58 136.05 ZM42.26 159.79 L42.26 149.87 L54.58 149.87 L54.58 159.79 L42.26 159.79
								 Z" class="st3"/>
				</g>
			</g>
		</g>
	</g>
</svg>
