<?xml version="1.0" encoding="UTF-8" standalone="no"?>
<!DOCTYPE svg PUBLIC "-//W3C//DTD SVG 1.1//EN" "http://www.w3.org/Graphics/SVG/1.1/DTD/svg11.dtd">
<!-- Generated by Microsoft Visio, SVG Export Storage Account Object Replication.svg Page-1 -->
<svg xmlns="http://www.w3.org/2000/svg" xmlns:xlink="http://www.w3.org/1999/xlink" xmlns:ev="http://www.w3.org/2001/xml-events"
		width="1.69248in" height="1.73206in" viewBox="0 0 121.858 124.709" xml:space="preserve" color-interpolation-filters="sRGB"
		class="st8">
	<style type="text/css">
	<![CDATA[
		.st1 {fill:#83b9f9;stroke:none;stroke-linecap:butt;stroke-width:34}
		.st2 {fill:#5ea0ef;stroke:none;stroke-linecap:butt;stroke-width:34}
		.st3 {fill:url(#grad0-10);stroke:none;stroke-linecap:butt;stroke-width:34}
		.st4 {fill:#c3f1ff;stroke:none;stroke-linecap:butt;stroke-width:34}
		.st5 {fill:#50e6ff;stroke:none;stroke-linecap:butt;stroke-width:34}
		.st6 {fill:url(#grad0-18);stroke:none;stroke-linecap:butt;stroke-width:34}
		.st7 {fill:url(#grad0-22);stroke:none;stroke-linecap:butt;stroke-width:34}
		.st8 {fill:none;fill-rule:evenodd;font-size:12px;overflow:visible;stroke-linecap:square;stroke-miterlimit:3}
	]]>
	</style>

	<defs id="Patterns_And_Gradients">
		<linearGradient id="grad0-10" x1="0" y1="0" x2="1" y2="0" gradientTransform="rotate(90 0.5 0.5)">
			<stop offset="0" stop-color="#5ea0ef" stop-opacity="1"/>
			<stop offset="1" stop-color="#0078d4" stop-opacity="1"/>
		</linearGradient>
		<linearGradient id="grad0-18" x1="0" y1="0" x2="1" y2="0" gradientTransform="rotate(90 0.5 0.5)">
			<stop offset="0" stop-color="#50e6ff" stop-opacity="1"/>
			<stop offset="0.5" stop-color="#32bedd" stop-opacity="1"/>
			<stop offset="1" stop-color="#198ab3" stop-opacity="1"/>
		</linearGradient>
		<linearGradient id="grad0-22" x1="0" y1="0" x2="1" y2="0" gradientTransform="rotate(90 0.5 0.5)">
			<stop offset="0" stop-color="#32bedd" stop-opacity="1"/>
			<stop offset="1" stop-color="#198ab3" stop-opacity="1"/>
		</linearGradient>
	</defs>
	<g>
		<title>Page-1</title>
		<g id="group941-1" transform="translate(34,-34.0157)">
			<title>Storage Account Object Replication</title>
			<g id="group942-2">
				<title>Sheet.942</title>
				<g id="shape943-3" transform="translate(21.3806,-38.0819)">
					<title>Sheet.943</title>
					<path d="M32.48 115.37 L16.29 124.71 L0 115.37 L16.29 106.1 L32.48 115.37 Z" class="st1"/>
				</g>
				<g id="shape944-5" transform="translate(21.3806,-19.5906)">
					<title>Sheet.944</title>
					<path d="M16.25 106.22 L16.25 124.71 L0 115.4 L0 96.88 L16.25 106.22 Z" class="st2"/>
				</g>
				<g id="shape945-7" transform="translate(37.6339,-19.5906)">
					<title>Sheet.945</title>
					<path d="M0 106.16 L0 124.71 L16.22 115.4 L16.22 96.88 L0 106.16 Z" class="st3"/>
				</g>
				<g id="shape946-11" transform="translate(20.7666,-23.1339)">
					<title>Sheet.946</title>
					<path d="M22.14 110.95 L16.35 105.47 C15.71 104.84 15.19 105.07 15.19 106.02 L15.19 108.49 a0.707223 0.692913
								 0 0 1 -0.0610784 0.267717 a0.64293 0.629921 0 0 1 -0.392187 0.359055 a0.716867 0.702362 0 0 1 -0.273245
								 0.0409449 C10.75 109.16 0.39 110.1 0 123.99 a0.729726 0.714961 -180 0 0 0.726511 0.714961 L4.43
								 124.71 a0.771516 0.755906 -180 0 0 0.292533 -0.0629921 a0.700794 0.686614 -180 0 0 0.241099 -0.166929
								 a0.842239 0.825197 -180 0 0 0.154303 -0.251969 a0.713653 0.699213 -180 0 0 0.0353612 -0.289764 A8.67956
								 8.50394 0 0 1 14.6 113.67 a0.726511 0.711811 0 0 1 0.726511 0.711811 L15.32 116.66 C15.32 117.8
								 15.69 117.99 16.49 117.22 L22.14 112.13 a0.678291 0.664567 -180 0 0 0.23467 -0.255118 a0.736155
								 0.72126 -180 0 0 6.03961E-14 -0.661417 a0.710438 0.696063 -180 0 0 -0.23467 -0.258268 Z"
							class="st4"/>
				</g>
				<g id="shape947-13" transform="translate(0,-18.5197)">
					<title>Sheet.947</title>
					<path d="M32.48 115.37 L16.29 124.71 L0 115.37 L16.29 106.1 L32.48 115.37 Z" class="st5"/>
				</g>
				<g id="shape948-15">
					<title>Sheet.948</title>
					<path d="M16.22 106.19 L16.22 124.71 L0 115.37 L0 96.85 L16.22 106.19 Z" class="st6"/>
				</g>
				<g id="shape949-19" transform="translate(16.2243,-2.70006E-13)">
					<title>Sheet.949</title>
					<path d="M0 106.13 L0 124.71 L16.25 115.37 L16.25 96.85 L0 106.13 Z" class="st7"/>
				</g>
			</g>
		</g>
	</g>
</svg>
