<?xml version="1.0" encoding="UTF-8" standalone="no"?>
<!-- Generated by Microsoft Visio, SVG Export Synapse Real-time Analytics.svg Page-1 -->

<svg
   xmlns:dc="http://purl.org/dc/elements/1.1/"
   xmlns:cc="http://creativecommons.org/ns#"
   xmlns:rdf="http://www.w3.org/1999/02/22-rdf-syntax-ns#"
   xmlns:svg="http://www.w3.org/2000/svg"
   xmlns="http://www.w3.org/2000/svg"
   xmlns:sodipodi="http://sodipodi.sourceforge.net/DTD/sodipodi-0.dtd"
   xmlns:inkscape="http://www.inkscape.org/namespaces/inkscape"
   width="0.78735912in"
   height="0.78740078in"
   viewBox="0 0 56.689855 56.692997"
   xml:space="preserve"
   class="st5"
   version="1.1"
   id="svg48"
   sodipodi:docname="Synapse Real-time Analytics.svg"
   style="font-size:12px;overflow:visible;color-interpolation-filters:sRGB;fill:none;fill-rule:evenodd;stroke-linecap:square;stroke-miterlimit:3"
   inkscape:version="0.92.5 (2060ec1f9f, 2020-04-08)"><metadata
   id="metadata52"><rdf:RDF><cc:Work
       rdf:about=""><dc:format>image/svg+xml</dc:format><dc:type
         rdf:resource="http://purl.org/dc/dcmitype/StillImage" /></cc:Work></rdf:RDF></metadata><sodipodi:namedview
   pagecolor="#ffffff"
   bordercolor="#666666"
   borderopacity="1"
   objecttolerance="10"
   gridtolerance="10"
   guidetolerance="10"
   inkscape:pageopacity="0"
   inkscape:pageshadow="2"
   inkscape:window-width="640"
   inkscape:window-height="480"
   id="namedview50"
   showgrid="false"
   inkscape:zoom="1.8365233"
   inkscape:cx="37.795184"
   inkscape:cy="18.900351"
   inkscape:window-x="0"
   inkscape:window-y="0"
   inkscape:window-maximized="0"
   inkscape:current-layer="svg48" />
	<style
   type="text/css"
   id="style2">
	<![CDATA[
		.st1 {fill:url(#grad0-5)}
		.st2 {stroke:none;stroke-linecap:butt;stroke-width:0.75}
		.st3 {fill:url(#grad0-10);stroke:none;stroke-linecap:butt;stroke-width:0.75}
		.st4 {fill:url(#grad0-14)}
		.st5 {fill:none;fill-rule:evenodd;font-size:12px;overflow:visible;stroke-linecap:square;stroke-miterlimit:3}
	]]>
	</style>

	<defs
   id="Patterns_And_Gradients">
		<linearGradient
   id="grad0-5"
   x1="0"
   y1="66.847856"
   x2="31.786503"
   y2="66.847856"
   gradientTransform="scale(1.0233903,0.97714428)"
   gradientUnits="userSpaceOnUse">
			<stop
   offset="0.28"
   stop-color="#0669b6"
   stop-opacity="1"
   id="stop4" />
			<stop
   offset="0.49"
   stop-color="#114a85"
   stop-opacity="1"
   id="stop6" />
		</linearGradient>
		<linearGradient
   id="grad0-10"
   x1="0"
   y1="93.875779"
   x2="40.623219"
   y2="93.875779"
   gradientTransform="scale(1.3955073,0.71658527)"
   gradientUnits="userSpaceOnUse">
			<stop
   offset="0"
   stop-color="#0669b6"
   stop-opacity="1"
   id="stop9" />
			<stop
   offset="0.33"
   stop-color="#148dd9"
   stop-opacity="1"
   id="stop11" />
			<stop
   offset="0.95"
   stop-color="#3cc5ee"
   stop-opacity="1"
   id="stop13" />
		</linearGradient>
		<linearGradient
   id="grad0-14"
   x1="0"
   y1="66.847856"
   x2="31.786503"
   y2="66.847856"
   gradientTransform="scale(1.0233903,0.97714428)"
   gradientUnits="userSpaceOnUse">
			<stop
   offset="0"
   stop-color="#a1ecff"
   stop-opacity="1"
   id="stop16" />
			<stop
   offset="0.72"
   stop-color="#3cc5ee"
   stop-opacity="1"
   id="stop18" />
		</linearGradient>
	</defs>
	<g
   id="g46"
   transform="translate(-5.6693772,-5.6713)">
		<title
   id="title22">Page-1</title>
		<g
   id="group902-1"
   transform="translate(5.66929,-34.0157)">
			<title
   id="title24">Synapse Real-time Analytics</title>
			<g
   id="shape903-2"
   transform="translate(22.9044)">
				<title
   id="title26">path1</title>
				<path
   d="M 4.56,75.55 0.13,91.9 C 0.04,92.2 0,92.51 0,92.84 c 0,1.95 1.59,3.54 3.54,3.54 1.04,0 1.96,-0.44 2.61,-1.14 L 32.53,65.32 c -0.87,0.95 -2.11,1.54 -3.49,1.54 H 15.96 c -5.44,0 -10.04,3.69 -11.4,8.7 z"
   class="st1"
   id="path28"
   inkscape:connector-curvature="0"
   style="fill:url(#grad0-5)" />
				<path
   d="M 4.56,75.55 0.13,91.9 C 0.04,92.2 0,92.51 0,92.84 c 0,1.95 1.59,3.54 3.54,3.54 1.04,0 1.96,-0.44 2.61,-1.14 L 32.53,65.32 c -0.87,0.95 -2.11,1.54 -3.49,1.54 H 15.96 c -5.44,0 -10.04,3.69 -11.4,8.7"
   class="st2"
   id="path30"
   inkscape:connector-curvature="0"
   style="stroke:none;stroke-width:0.75;stroke-linecap:butt" />
			</g>
			<g
   id="shape904-7"
   transform="translate(0,-9.86253)">
				<title
   id="title33">path3</title>
				<path
   d="m 56.68,71.99 c 0,-2.61 -2.11,-4.72 -4.72,-4.72 H 15.7 L 4.72,79.08 C 2.11,79.08 0,81.19 0,83.8 c 0,2.6 2.11,4.71 4.72,4.71 h 28.5 c 2.61,0 4.72,2.12 4.72,4.72 0,1.21 -0.45,2.31 -1.2,3.15 L 53.89,76.92 55.42,75.19 H 55.4 c 0.8,-0.85 1.29,-1.97 1.29,-3.21 z"
   class="st3"
   id="path35"
   inkscape:connector-curvature="0"
   style="fill:url(#grad0-10);stroke:none;stroke-width:0.75;stroke-linecap:butt" />
			</g>
			<g
   id="shape905-11"
   transform="translate(1.21905,-25.633)">
				<title
   id="title38">path5</title>
				<path
   d="M 27.96,86.15 32.4,69.8 c 0.09,-0.3 0.13,-0.61 0.13,-0.94 0,-1.95 -1.59,-3.54 -3.55,-3.54 -1.03,0 -1.95,0.44 -2.6,1.13 L 0,96.38 c 0.86,-0.95 2.11,-1.55 3.49,-1.55 h 13.08 c 5.44,0 10.03,-3.68 11.39,-8.7 z"
   class="st4"
   id="path40"
   inkscape:connector-curvature="0"
   style="fill:url(#grad0-14)" />
				<path
   d="M 27.96,86.15 32.4,69.8 c 0.09,-0.3 0.13,-0.61 0.13,-0.94 0,-1.95 -1.59,-3.54 -3.55,-3.54 -1.03,0 -1.95,0.44 -2.6,1.13 L 0,96.38 c 0.86,-0.95 2.11,-1.55 3.49,-1.55 h 13.08 c 5.44,0 10.03,-3.68 11.39,-8.7"
   class="st2"
   id="path42"
   inkscape:connector-curvature="0"
   style="stroke:none;stroke-width:0.75;stroke-linecap:butt" />
			</g>
		</g>
	</g>
</svg>