<?xml version="1.0" encoding="UTF-8" standalone="no"?>
<!-- Generated by Microsoft Visio, SVG Export Threat Intelligence.svg Page-1 -->

<svg
   xmlns:dc="http://purl.org/dc/elements/1.1/"
   xmlns:cc="http://creativecommons.org/ns#"
   xmlns:rdf="http://www.w3.org/1999/02/22-rdf-syntax-ns#"
   xmlns:svg="http://www.w3.org/2000/svg"
   xmlns="http://www.w3.org/2000/svg"
   xmlns:xlink="http://www.w3.org/1999/xlink"
   xmlns:sodipodi="http://sodipodi.sourceforge.net/DTD/sodipodi-0.dtd"
   xmlns:inkscape="http://www.inkscape.org/namespaces/inkscape"
   width="0.73649478in"
   height="0.70861036in"
   viewBox="0 0 53.027681 51.019775"
   xml:space="preserve"
   class="st4"
   version="1.1"
   id="svg45"
   sodipodi:docname="Threat Intelligence.svg"
   style="font-size:12px;overflow:visible;color-interpolation-filters:sRGB;fill:none;fill-rule:evenodd;stroke-linecap:square;stroke-miterlimit:3"
   inkscape:version="0.92.5 (2060ec1f9f, 2020-04-08)"><metadata
   id="metadata49"><rdf:RDF><cc:Work
       rdf:about=""><dc:format>image/svg+xml</dc:format><dc:type
         rdf:resource="http://purl.org/dc/dcmitype/StillImage" /></cc:Work></rdf:RDF></metadata><sodipodi:namedview
   pagecolor="#ffffff"
   bordercolor="#666666"
   borderopacity="1"
   objecttolerance="10"
   gridtolerance="10"
   guidetolerance="10"
   inkscape:pageopacity="0"
   inkscape:pageshadow="2"
   inkscape:window-width="640"
   inkscape:window-height="480"
   id="namedview47"
   showgrid="false"
   inkscape:zoom="1.8688013"
   inkscape:cx="35.352135"
   inkscape:cy="17.783848"
   inkscape:window-x="0"
   inkscape:window-y="0"
   inkscape:window-maximized="0"
   inkscape:current-layer="svg45" />
	<style
   type="text/css"
   id="style2">
	<![CDATA[
		.st1 {fill:#82bbff;stroke:none;stroke-linecap:butt;stroke-width:9.67347}
		.st2 {fill:url(#grad0-8);stroke:none;stroke-linecap:butt;stroke-width:9.67347}
		.st3 {fill:url(#grad0-12);stroke:none;stroke-linecap:butt;stroke-width:9.67347}
		.st4 {fill:none;fill-rule:evenodd;font-size:12px;overflow:visible;stroke-linecap:square;stroke-miterlimit:3}
	]]>
	</style>

	<defs
   id="Patterns_And_Gradients">
		<linearGradient
   id="grad0-8"
   x1="0"
   y1="44.541325"
   x2="52.014154"
   y2="44.541325"
   gradientTransform="scale(1.0194856,0.98088686)"
   gradientUnits="userSpaceOnUse">
			<stop
   offset="0"
   stop-color="#5ea0f0"
   stop-opacity="1"
   id="stop4" />
			<stop
   offset="1"
   stop-color="#0078d4"
   stop-opacity="1"
   id="stop6" />
		</linearGradient>
		<linearGradient
   id="grad0-12"
   x1="0"
   y1="0"
   x2="1"
   y2="0"
   gradientTransform="rotate(-90,0.5,0.5)">
			<stop
   offset="0.09"
   stop-color="#32bedd"
   stop-opacity="1"
   id="stop9" />
			<stop
   offset="1"
   stop-color="#50e6ff"
   stop-opacity="1"
   id="stop11" />
		</linearGradient>
	<linearGradient
   inkscape:collect="always"
   xlink:href="#grad0-12"
   id="linearGradient4559"
   gradientTransform="scale(1.0111151,0.98900711)"
   x1="-0.0017109823"
   y1="88.846128"
   x2="6.9148707"
   y2="88.846128"
   gradientUnits="userSpaceOnUse" /><linearGradient
   inkscape:collect="always"
   xlink:href="#grad0-12"
   id="linearGradient4561"
   gradientTransform="scale(1.0153739,0.98485887)"
   x1="0"
   y1="88.763987"
   x2="7.4020758"
   y2="88.763987"
   gradientUnits="userSpaceOnUse" /></defs>
	<g
   id="g43"
   transform="translate(-9.67347,-9.6745073)">
		<title
   id="title15">Page-1</title>
		<g
   id="group820-1"
   transform="translate(9.67347,-34.0157)">
			<title
   id="title17">Threat Intelligence</title>
			<g
   id="group821-2">
				<title
   id="title19">g4</title>
				<g
   id="shape822-3"
   transform="translate(9.23306,-9.2948)">
					<title
   id="title21">path1</title>
					<path
   d="m 30.64,69.39 c -1.7,0 -3.21,0.72 -4.16,1.82 C 24.21,68.66 21,67.2 17.6,67.2 c -2.27,0 -4.54,0.54 -6.24,1.82 -0.37,0.18 -0.56,0.55 -0.94,0.73 L 6.45,65.56 c 0.37,-0.37 0.94,-0.73 1.51,-0.91 a 16.7855,16.1518 0 0 1 9.45,-2.74 c 5.86,0 11.33,2.74 14.55,7.48 0,0.18 0.19,0.18 0.19,0.36 -0.57,-0.36 -1.14,-0.36 -1.51,-0.36 z M 7.58,84.33 c 0.76,0.91 1.52,1.82 2.46,2.55 -1.32,1.09 -2.27,2.55 -2.27,4.37 0,0.37 0,0.55 0.19,0.91 C 5.89,90.89 4.18,89.25 2.67,87.24 A 16.3907,15.772 0 0 1 1.16,72.48 l 5.29,2.37 c -1.13,3.1 -0.75,6.74 1.13,9.48 z m 11.15,4.92 c 1.7,-0.18 3.4,-0.73 4.73,-1.64 2.83,-1.64 4.53,-4.38 5.1,-7.47 2.08,0.73 4.54,0.18 6.05,-1.46 -0.19,5.47 -3.03,10.57 -7.94,13.48 -2.64,1.64 -5.67,2.55 -8.88,2.55 0.76,-0.91 1.32,-2.18 1.32,-3.46 0.19,-0.73 0,-1.27 -0.38,-2 z"
   class="st1"
   id="path23"
   inkscape:connector-curvature="0"
   style="fill:#82bbff;stroke:none;stroke-width:9.67346954;stroke-linecap:butt" />
				</g>
				<g
   id="shape823-5">
					<title
   id="title26">path2</title>
					<path
   d="M 40.82,90.52 A 26.7218,25.7131 0 0 1 26.27,94.71 C 11.9,94.71 0,83.41 0,69.57 0,66.83 0.38,64.28 1.32,61.73 l 5.48,1.46 c -3.59,10.38 2.27,21.5 13.04,24.96 a 19.422,18.6888 -180 0 0 6.62,1.09 c 11.52,0 20.78,-9.11 20.78,-20.4 0,-3.83 -1.13,-7.47 -3.21,-10.75 -3.78,-5.65 -10.39,-9.12 -17.38,-8.93 a 20.4442,19.6724 -180 0 0 -10.4,2.73 l 8.32,12.21 c 2.26,-0.73 4.91,0 6.23,2 1.51,2.37 0.94,5.47 -1.51,7.11 a 5.2171,5.02016 0 0 1 -7.37,-1.46 5.16997,4.9748 0 0 1 0,-5.47 L 10.2,49.16 13.23,47.34 c 4.15,-2.38 8.69,-3.65 13.61,-3.65 8.88,0 17.19,4.37 22.11,11.48 7.74,11.85 4.15,27.7 -8.13,35.35 z"
   class="st2"
   id="path28"
   inkscape:connector-curvature="0"
   style="fill:url(#grad0-8);stroke:none;stroke-width:9.67346954;stroke-linecap:butt" />
				</g>
				<g
   id="shape824-9"
   transform="translate(35.904,-26.0561)">
					<title
   id="title31">path3</title>
					<path
   d="m 3.5,94.71 c 1.93,0 3.49,-1.51 3.49,-3.37 a 3.49673,3.36472 -180 1 0 -6.99,0 c 0,1.86 1.56,3.37 3.5,3.37 z"
   class="st3"
   id="path33"
   inkscape:connector-curvature="0"
   style="fill:url(#linearGradient4559);stroke:none;stroke-width:9.67346954;stroke-linecap:butt" />
				</g>
				<g
   id="shape825-13"
   transform="translate(18.8976,-9.11055)">
					<title
   id="title36">path4</title>
					<path
   d="m 3.78,94.71 a 3.78837,3.64535 -180 0 0 0,-7.29 C 1.69,87.42 0,89.05 0,91.07 c 0,2.01 1.69,3.64 3.78,3.64 z"
   class="st3"
   id="path38"
   inkscape:connector-curvature="0"
   style="fill:url(#linearGradient4561);stroke:none;stroke-width:9.67346954;stroke-linecap:butt" />
				</g>
			</g>
		</g>
	</g>
</svg>