<?xml version="1.0" encoding="UTF-8" standalone="no"?>
<!DOCTYPE svg PUBLIC "-//W3C//DTD SVG 1.1//EN" "http://www.w3.org/Graphics/SVG/1.1/DTD/svg11.dtd">
<!-- Generated by Microsoft Visio, SVG Export Time Series Insights Reference Data Set.svg Page-1 -->
<svg xmlns="http://www.w3.org/2000/svg" xmlns:xlink="http://www.w3.org/1999/xlink" xmlns:ev="http://www.w3.org/2001/xml-events"
		width="1.4814in" height="1.70527in" viewBox="0 0 106.661 122.779" xml:space="preserve" color-interpolation-filters="sRGB"
		class="st6">
	<style type="text/css">
	<![CDATA[
		.st1 {fill:url(#grad0-5);stroke:none;stroke-linecap:butt;stroke-width:32.0705}
		.st2 {fill:#e8e8e8;stroke:none;stroke-linecap:butt;stroke-width:32.0705}
		.st3 {fill:#50e6ff;stroke:none;stroke-linecap:butt;stroke-width:32.0705}
		.st4 {fill:#198ab3;stroke:none;stroke-linecap:butt;stroke-width:32.0705}
		.st5 {fill:url(#grad4-15);stroke:none;stroke-linecap:butt;stroke-width:32.0705}
		.st6 {fill:none;fill-rule:evenodd;font-size:12px;overflow:visible;stroke-linecap:square;stroke-miterlimit:3}
	]]>
	</style>

	<defs id="Patterns_And_Gradients">
		<linearGradient id="grad0-5" x1="0" y1="0" x2="1" y2="0" gradientTransform="rotate(0 0.5 0.5)">
			<stop offset="0" stop-color="#005ba1" stop-opacity="1"/>
			<stop offset="0.07" stop-color="#0060a9" stop-opacity="1"/>
			<stop offset="0.36" stop-color="#0071c8" stop-opacity="1"/>
			<stop offset="0.52" stop-color="#0078d4" stop-opacity="1"/>
			<stop offset="0.64" stop-color="#0074cd" stop-opacity="1"/>
			<stop offset="0.82" stop-color="#006abb" stop-opacity="1"/>
			<stop offset="1" stop-color="#005ba1" stop-opacity="1"/>
		</linearGradient>
		<radialGradient id="grad4-15" cx="0.5" cy="0" r="1.1">
			<stop offset="0" stop-color="#f2f2f2" stop-opacity="1"/>
			<stop offset="0.58" stop-color="#eeeeee" stop-opacity="1"/>
			<stop offset="1" stop-color="#e6e6e6" stop-opacity="1"/>
		</radialGradient>
	</defs>
	<g>
		<title>Page-1</title>
		<g id="group436-1" transform="translate(32.0705,-34.0157)">
			<title>Time Series Insights Reference Data Set</title>
			<g id="shape437-2">
				<title>path28</title>
				<path d="M21.26 81.56 C9.52 81.56 0 78.23 0 73.82 L0 115.04 C0 119.28 9.35 122.71 20.96 122.78 L21.26 122.78 C33
							 122.78 42.52 119.44 42.52 115.04 L42.52 73.82 C42.52 78.13 33 81.56 21.26 81.56 Z" class="st1"/>
			</g>
			<g id="shape438-6" transform="translate(0,-41.2191)">
				<title>path30</title>
				<path d="M42.52 115.04 C42.52 119.34 33 122.78 21.26 122.78 C9.52 122.78 0 119.44 0 115.04 C0 110.64 9.52 107.31
							 21.26 107.31 C33 107.31 42.52 110.64 42.52 115.04 Z" class="st2"/>
			</g>
			<g id="shape439-8" transform="translate(4.94184,-44.654)">
				<title>path32</title>
				<path d="M32.64 117.84 C32.64 120.58 25.31 122.78 16.32 122.78 C7.33 122.78 0 120.58 0 117.84 C0 115.11 7.33 112.94
							 16.32 112.94 C25.31 112.94 32.64 115.14 32.64 117.84 Z" class="st3"/>
			</g>
			<g id="shape440-10" transform="translate(8.358,-44.654)">
				<title>path34</title>
				<path d="M12.9 119.08 A38.3075 38.5178 -180 0 0 -0 120.98 A37.8764 38.0843 -180 0 0 12.9 122.78 A36.9809 37.1839
							 -180 0 0 25.8 120.84 A39.2694 39.4849 -180 0 0 12.9 119.08 Z" class="st4"/>
			</g>
			<g id="shape441-12" transform="translate(5.30667,-14.4067)">
				<title>path36</title>
				<path d="M28.89 116.84 L28.89 105.5 L25.9 105.5 L25.9 119.28 L34.06 119.28 L34.06 116.84 L28.89 116.84 ZM5.21 111.27
							 A6.0695 6.10283 0 0 1 3.52 110.24 A1.45933 1.46735 0 0 1 3.08 109.17 A1.16083 1.16721 0 0 1 3.62 108.17
							 A2.25533 2.26772 0 0 1 5.01 107.77 A5.53884 5.56924 0 0 1 8.32 108.74 L8.32 105.87 A8.8555 8.90412 -180
							 0 0 5.01 105.34 A5.43934 5.4692 -180 0 0 1.39 106.47 A3.582 3.60167 -180 0 0 0 109.44 C0 111.14 1.06
							 112.47 3.32 113.47 A9.552 9.60445 0 0 1 5.37 114.68 A1.393 1.40065 0 0 1 5.87 115.74 A1.26033 1.26725
							 0 0 1 5.34 116.78 A2.42117 2.43446 0 0 1 3.85 117.14 A5.50567 5.5359 0 0 1 0.23 115.74 L0.23 118.84
							 A7.19717 7.23668 -180 0 0 3.78 119.64 A6.23534 6.26957 -180 0 0 7.69 118.54 A3.582 3.60167 -180 0 0
							 8.79 115.51 A3.4825 3.50162 -180 0 0 7.96 113.17 A8.02634 8.0704 -180 0 0 5.21 111.27 ZM22.59 116.58
							 A7.761 7.80361 -180 0 0 23.68 112.37 A7.69467 7.73692 -180 0 0 22.59 108.84 A6.00317 6.03613 -180 0
							 0 20.26 106.34 A6.63334 6.66975 -180 0 0 16.95 105.47 A6.99817 7.03659 -180 0 0 13.37 106.37 A6.169
							 6.20287 -180 0 0 10.95 108.84 A8.159 8.2038 -180 0 0 10.08 112.64 A7.49567 7.53682 -180 0 0 10.88 115.98
							 A5.83734 5.86938 -180 0 0 13.17 118.44 A6.83234 6.86985 -180 0 0 16.48 119.44 L19.34 122.78 L23.35 122.78
							 L19.27 119.11 A5.93684 5.96943 -180 0 0 22.59 116.58 ZM19.27 115.74 A3.11767 3.13478 0 0 1 16.75 116.91
							 A3.05133 3.06809 0 0 1 14.23 115.71 A5.04134 5.06901 0 0 1 13.27 112.37 A5.0745 5.10236 0 0 1 14.23
							 109.04 A3.31667 3.33488 0 0 1 16.82 107.81 A2.8855 2.90134 0 0 1 19.3 109.04 A5.373 5.4025 0 0 1 20.2
							 112.37 A4.84234 4.86892 0 0 1 19.27 115.74 Z" class="st5"/>
			</g>
		</g>
	</g>
</svg>
