<?xml version="1.0" encoding="UTF-8" standalone="no"?>
<!DOCTYPE svg PUBLIC "-//W3C//DTD SVG 1.1//EN" "http://www.w3.org/Graphics/SVG/1.1/DTD/svg11.dtd">
<!-- Generated by Microsoft Visio, SVG Export Time Series Insights Reference Data Set.svg Page-1 -->
<svg xmlns="http://www.w3.org/2000/svg" xmlns:xlink="http://www.w3.org/1999/xlink" xmlns:ev="http://www.w3.org/2001/xml-events"
		width="1.4814in" height="2.21708in" viewBox="0 0 106.661 159.63" xml:space="preserve" color-interpolation-filters="sRGB"
		class="st6">
	<style type="text/css">
	<![CDATA[
		.st1 {fill:url(#grad0-5);stroke:none;stroke-linecap:butt;stroke-width:32.0705}
		.st2 {fill:#e8e8e8;stroke:none;stroke-linecap:butt;stroke-width:32.0705}
		.st3 {fill:#50e6ff;stroke:none;stroke-linecap:butt;stroke-width:32.0705}
		.st4 {fill:#198ab3;stroke:none;stroke-linecap:butt;stroke-width:32.0705}
		.st5 {fill:url(#grad4-15);stroke:none;stroke-linecap:butt;stroke-width:32.0705}
		.st6 {fill:none;fill-rule:evenodd;font-size:12px;overflow:visible;stroke-linecap:square;stroke-miterlimit:3}
	]]>
	</style>

	<defs id="Patterns_And_Gradients">
		<linearGradient id="grad0-5" x1="0" y1="0" x2="1" y2="0" gradientTransform="rotate(0 0.5 0.5)">
			<stop offset="0" stop-color="#005ba1" stop-opacity="1"/>
			<stop offset="0.07" stop-color="#0060a9" stop-opacity="1"/>
			<stop offset="0.36" stop-color="#0071c8" stop-opacity="1"/>
			<stop offset="0.52" stop-color="#0078d4" stop-opacity="1"/>
			<stop offset="0.64" stop-color="#0074cd" stop-opacity="1"/>
			<stop offset="0.82" stop-color="#006abb" stop-opacity="1"/>
			<stop offset="1" stop-color="#005ba1" stop-opacity="1"/>
		</linearGradient>
		<radialGradient id="grad4-15" cx="0.5" cy="0" r="1.1">
			<stop offset="0" stop-color="#f2f2f2" stop-opacity="1"/>
			<stop offset="0.58" stop-color="#eeeeee" stop-opacity="1"/>
			<stop offset="1" stop-color="#e6e6e6" stop-opacity="1"/>
		</radialGradient>
	</defs>
	<g>
		<title>Page-1</title>
		<g id="group461-1" transform="translate(32.0705,-70.8661)">
			<title>Time Series Insights Reference Data Set</title>
			<g id="shape462-2">
				<title>path28</title>
				<path d="M21.26 118.41 C9.52 118.41 0 115.08 0 110.67 L0 151.89 C0 156.13 9.35 159.56 20.96 159.63 L21.26 159.63
							 C33 159.63 42.52 156.29 42.52 151.89 L42.52 110.67 C42.52 114.98 33 118.41 21.26 118.41 Z" class="st1"/>
			</g>
			<g id="shape463-6" transform="translate(0,-41.2191)">
				<title>path30</title>
				<path d="M42.52 151.89 C42.52 156.19 33 159.63 21.26 159.63 C9.52 159.63 0 156.29 0 151.89 C0 147.49 9.52 144.16
							 21.26 144.16 C33 144.16 42.52 147.49 42.52 151.89 Z" class="st2"/>
			</g>
			<g id="shape464-8" transform="translate(4.94184,-44.654)">
				<title>path32</title>
				<path d="M32.64 154.69 C32.64 157.43 25.31 159.63 16.32 159.63 C7.33 159.63 0 157.43 0 154.69 C0 151.96 7.33 149.79
							 16.32 149.79 C25.31 149.79 32.64 151.99 32.64 154.69 Z" class="st3"/>
			</g>
			<g id="shape465-10" transform="translate(8.358,-44.654)">
				<title>path34</title>
				<path d="M12.9 155.93 A38.3075 38.5178 -180 0 0 -0 157.83 A37.8764 38.0843 -180 0 0 12.9 159.63 A36.9809 37.1839
							 -180 0 0 25.8 157.7 A39.2694 39.4849 -180 0 0 12.9 155.93 Z" class="st4"/>
			</g>
			<g id="shape466-12" transform="translate(5.30667,-14.4067)">
				<title>path36</title>
				<path d="M28.89 153.69 L28.89 142.35 L25.9 142.35 L25.9 156.13 L34.06 156.13 L34.06 153.69 L28.89 153.69 ZM5.21 148.12
							 A6.0695 6.10283 0 0 1 3.52 147.09 A1.45933 1.46735 0 0 1 3.08 146.02 A1.16083 1.16721 0 0 1 3.62 145.02
							 A2.25533 2.26772 0 0 1 5.01 144.62 A5.53884 5.56924 0 0 1 8.32 145.59 L8.32 142.72 A8.8555 8.90412 -180
							 0 0 5.01 142.19 A5.43934 5.4692 -180 0 0 1.39 143.32 A3.582 3.60167 -180 0 0 0 146.29 C0 147.99 1.06
							 149.32 3.32 150.33 A9.552 9.60445 0 0 1 5.37 151.53 A1.393 1.40065 0 0 1 5.87 152.59 A1.26033 1.26725
							 0 0 1 5.34 153.63 A2.42117 2.43446 0 0 1 3.85 153.99 A5.50567 5.5359 0 0 1 0.23 152.59 L0.23 155.69
							 A7.19717 7.23668 -180 0 0 3.78 156.49 A6.23534 6.26957 -180 0 0 7.69 155.39 A3.582 3.60167 -180 0 0
							 8.79 152.36 A3.4825 3.50162 -180 0 0 7.96 150.03 A8.02634 8.0704 -180 0 0 5.21 148.12 ZM22.59 153.43
							 A7.761 7.80361 -180 0 0 23.68 149.22 A7.69467 7.73692 -180 0 0 22.59 145.69 A6.00317 6.03613 -180 0
							 0 20.26 143.19 A6.63334 6.66975 -180 0 0 16.95 142.32 A6.99817 7.03659 -180 0 0 13.37 143.22 A6.169
							 6.20287 -180 0 0 10.95 145.69 A8.159 8.2038 -180 0 0 10.08 149.49 A7.49567 7.53682 -180 0 0 10.88 152.83
							 A5.83734 5.86938 -180 0 0 13.17 155.29 A6.83234 6.86985 -180 0 0 16.48 156.29 L19.34 159.63 L23.35 159.63
							 L19.27 155.96 A5.93684 5.96943 -180 0 0 22.59 153.43 ZM19.27 152.59 A3.11767 3.13478 0 0 1 16.75 153.76
							 A3.05133 3.06809 0 0 1 14.23 152.56 A5.04134 5.06901 0 0 1 13.27 149.22 A5.0745 5.10236 0 0 1 14.23
							 145.89 A3.31667 3.33488 0 0 1 16.82 144.66 A2.8855 2.90134 0 0 1 19.3 145.89 A5.373 5.4025 0 0 1 20.2
							 149.22 A4.84234 4.86892 0 0 1 19.27 152.59 Z" class="st5"/>
			</g>
		</g>
	</g>
</svg>
