<?xml version="1.0" encoding="UTF-8" standalone="no"?>
<!DOCTYPE svg PUBLIC "-//W3C//DTD SVG 1.1//EN" "http://www.w3.org/Graphics/SVG/1.1/DTD/svg11.dtd">
<!-- Generated by Microsoft Visio, SVG Export Time Series Insights Event Source.svg Page-1 -->
<svg xmlns="http://www.w3.org/2000/svg" xmlns:xlink="http://www.w3.org/1999/xlink" xmlns:ev="http://www.w3.org/2001/xml-events"
		width="1.70535in" height="2.23063in" viewBox="0 0 122.785 160.605" xml:space="preserve" color-interpolation-filters="sRGB"
		class="st5">
	<style type="text/css">
	<![CDATA[
		.st1 {fill:url(#grad0-5);stroke:none;stroke-linecap:butt;stroke-width:33.0461}
		.st2 {fill:#c3f1ff;stroke:none;stroke-linecap:butt;stroke-width:33.0461}
		.st3 {fill:#949494;stroke:none;stroke-linecap:butt;stroke-width:33.0461}
		.st4 {fill:#767676;stroke:none;stroke-linecap:butt;stroke-width:33.0461}
		.st5 {fill:none;fill-rule:evenodd;font-size:12px;overflow:visible;stroke-linecap:square;stroke-miterlimit:3}
	]]>
	</style>

	<defs id="Patterns_And_Gradients">
		<linearGradient id="grad0-5" x1="0" y1="0" x2="1" y2="0" gradientTransform="rotate(-90 0.5 0.5)">
			<stop offset="0" stop-color="#198ab3" stop-opacity="1"/>
			<stop offset="0.4" stop-color="#25aed3" stop-opacity="1"/>
			<stop offset="0.78" stop-color="#2fcaec" stop-opacity="1"/>
			<stop offset="1" stop-color="#32d4f5" stop-opacity="1"/>
		</linearGradient>
	</defs>
	<g>
		<title>Page-1</title>
		<g id="group467-1" transform="translate(33.0461,-70.8661)">
			<title>Time Series Insights Event Source</title>
			<g id="shape468-2" transform="translate(13.8738,-13.9095)">
				<title>rect15</title>
				<path d="M0 159.25 A1.36412 1.35143 -180 0 0 1.36 160.61 L27.75 160.61 A1.36412 1.35143 -180 0 0 29.11 159.25 L29.11
							 133.12 A1.36412 1.35143 -180 0 0 27.75 131.76 L1.36 131.76 A1.36412 1.35143 -180 0 0 -0 133.12 L0 159.25
							 Z" class="st1"/>
			</g>
			<g id="shape469-6" transform="translate(22.7237,-16.7112)">
				<title>path17</title>
			</g>
			<g id="shape470-7" transform="translate(13.8738,-17.8549)">
				<title>path19</title>
				<path d="M23.72 160.6 L38.29 150.48 a0.432516 0.428493 -180 0 0 9.23706E-14 -0.725142 L23.72 139.66 a0.432516 0.428493
							 -180 0 0 -0.69868 0.36257 L23.02 145.83 L0 145.83 L0 154.4 L23.02 154.4 L23.02 160.23 a0.465787 0.461454
							 -180 0 0 0.69868 0.36257 Z" class="st2"/>
			</g>
			<g id="shape471-9">
				<title>path21</title>
				<path d="M54.96 160.61 L1.73 160.61 A1.73007 1.71397 0 0 1 0 158.89 L0 105.63 A1.73007 1.71397 0 0 1 1.73 103.91
							 L54.96 103.91 A1.73007 1.71397 0 0 1 56.69 105.63 L56.69 122.37 a0.865033 0.856986 0 0 1 -1.36409 0.725142
							 L52 120.79 a0.898303 0.889947 0 0 1 -0.365976 -0.725143 L51.64 109.19 L5.26 109.19 L5.26 155.33 L51.44
							 155.33 L51.44 144.78 a0.865033 0.856986 0 0 1 0.365976 -0.692181 L55.13 141.69 a0.865033 0.856986 0
							 0 1 1.36409 0.725142 L56.49 158.89 A1.73007 1.71397 0 0 1 54.96 160.61 Z" class="st3"/>
			</g>
			<g id="shape472-11" transform="translate(51.4362,-37.4574)">
				<title>path23</title>
				<path d="M0 146.64 L0 157.36 a0.898303 0.889947 -180 0 0 0.365976 0.725142 L3.69 160.39 a0.865033 0.856986 -180 0
							 0 1.49717 -0.560337 L5.19 146.64 L0 146.64 Z" class="st4"/>
			</g>
			<g id="shape473-13" transform="translate(51.4362,-5.10895)">
				<title>path25</title>
				<path d="M0 160.44 L0 149.73 a0.831762 0.824025 0 0 1 0.365976 -0.692181 L3.69 146.7 a0.898303 0.889947 0 0 1 1.36409
							 0.725142 L5.06 160.61 L0 160.44 Z" class="st4"/>
			</g>
		</g>
	</g>
</svg>
