<?xml version="1.0" encoding="UTF-8" standalone="no"?>
<!DOCTYPE svg PUBLIC "-//W3C//DTD SVG 1.1//EN" "http://www.w3.org/Graphics/SVG/1.1/DTD/svg11.dtd">
<!-- Generated by Microsoft Visio, SVG Export Trello.svg Page-1 -->
<svg xmlns="http://www.w3.org/2000/svg" xmlns:xlink="http://www.w3.org/1999/xlink" xmlns:ev="http://www.w3.org/2001/xml-events"
		width="0.990852in" height="1.36157in" viewBox="0 0 71.3414 98.0329" xml:space="preserve" color-interpolation-filters="sRGB"
		class="st3">
	<style type="text/css">
	<![CDATA[
		.st1 {fill:url(#grad0-8);stroke:none;stroke-linecap:butt;stroke-width:7.32422}
		.st2 {fill:#ffffff;stroke:none;stroke-linecap:butt;stroke-width:7.32422}
		.st3 {fill:none;fill-rule:evenodd;font-size:12px;overflow:visible;stroke-linecap:square;stroke-miterlimit:3}
	]]>
	</style>

	<defs id="Patterns_And_Gradients">
		<linearGradient id="grad0-8" x1="0" y1="0" x2="1" y2="0" gradientTransform="rotate(90 0.5 0.5)">
			<stop offset="0" stop-color="#0091e6" stop-opacity="1"/>
			<stop offset="1" stop-color="#0079bf" stop-opacity="1"/>
		</linearGradient>
	</defs>
	<g>
		<title>Page-1</title>
		<g id="group431-1" transform="translate(7.32422,-34.0157)">
			<title>Trello</title>
			<g id="group432-2">
				<title>Page-1</title>
				<g id="group433-3">
					<title>Trello</title>
					<g id="group434-4">
						<title>Sheet.434</title>
						<g id="shape435-5">
							<title>Sheet.435</title>
							<path d="M0 92.51 A5.53654 5.53654 -180 0 0 5.54 98.03 L51.15 98.03 A5.53654 5.53654 -180 0 0 56.69 92.51
										 L56.69 46.88 A5.53654 5.53654 -180 0 0 51.15 41.34 L5.54 41.34 A5.53654 5.53654 -180 0 0
										 0 46.88 L0 92.51 Z" class="st1"/>
						</g>
					</g>
					<g id="group436-9" transform="translate(32.0313,-24.5197)">
						<title>Sheet.436</title>
						<g id="shape437-10">
							<title>Sheet.437</title>
							<path d="M0 95.39 A2.65773 2.65773 -180 0 0 2.66 98.03 L14.63 98.03 A2.65773 2.65773 -180 0 0 17.29 95.39
										 L17.29 75.89 A2.65773 2.65773 -180 0 0 14.63 73.23 L2.66 73.23 A2.65773 2.65773 -180 0 0
										 0 75.89 L0 95.39 Z" class="st2"/>
						</g>
					</g>
					<g id="group438-12" transform="translate(7.36986,-10.3471)">
						<title>Sheet.438</title>
						<g id="shape439-13">
							<title>Sheet.439</title>
							<path d="M0 95.39 A2.65773 2.65773 -180 0 0 2.66 98.03 L14.63 98.03 A2.65773 2.65773 -180 0 0 17.29 95.39
										 L17.29 61.72 A2.65773 2.65773 -180 0 0 14.63 59.06 L2.66 59.06 A2.65773 2.65773 -180 0 0
										 0 61.72 L0 95.39 Z" class="st2"/>
						</g>
					</g>
				</g>
			</g>
		</g>
	</g>
</svg>
