<?xml version="1.0" encoding="UTF-8" standalone="no"?>
<!DOCTYPE svg PUBLIC "-//W3C//DTD SVG 1.1//EN" "http://www.w3.org/Graphics/SVG/1.1/DTD/svg11.dtd">
<!-- Generated by Microsoft Visio, SVG Export Update Management.svg Page-1 -->
<svg xmlns="http://www.w3.org/2000/svg" xmlns:xlink="http://www.w3.org/1999/xlink" xmlns:ev="http://www.w3.org/2001/xml-events"
		width="1.1274in" height="1.3511in" viewBox="0 0 81.1729 97.2794" xml:space="preserve" color-interpolation-filters="sRGB"
		class="st7">
	<style type="text/css">
	<![CDATA[
		.st1 {fill:#a0a1a2;stroke:none;stroke-linecap:butt;stroke-width:12.24}
		.st2 {fill:#0072c6;stroke:none;stroke-linecap:butt;stroke-width:12.24}
		.st3 {fill:#ffffff;fill-opacity:0.2;stroke:none;stroke-linecap:butt;stroke-width:12.24}
		.st4 {fill:#fafdff;fill-opacity:0.2;stroke:none;stroke-linecap:butt;stroke-width:12.24}
		.st5 {fill:#ffffff;stroke:none;stroke-linecap:butt;stroke-width:12.24}
		.st6 {fill:#1e1e1e;fill-opacity:0.15;stroke:none;stroke-linecap:butt;stroke-width:12.24}
		.st7 {fill:none;fill-rule:evenodd;font-size:12px;overflow:visible;stroke-linecap:square;stroke-miterlimit:3}
	]]>
	</style>

	<g>
		<title>Page-1</title>
		<g id="group685-1" transform="translate(12.24,-34.0157)">
			<title>Update Management</title>
			<g id="group686-2">
				<title>g18</title>
				<g id="shape687-3" transform="translate(9.44882,0)">
					<title>path4</title>
					<path d="M25.98 85.41 L11.81 85.41 C13.67 92.3 11.13 93.72 0 93.72 L0 97.28 L37.8 97.28 L37.8 93.72 C26.67 93.72
								 24.13 92.3 25.98 85.41 Z" class="st1"/>
				</g>
				<g id="shape688-5" transform="translate(0,-10.6794)">
					<title>path6</title>
					<path d="M53.15 56.94 L3.19 56.94 C1.42 56.94 0 58.6 0 60.38 L0 93.96 C0 95.74 1.42 97.28 3.19 97.28 L53.15 97.28
								 C54.92 97.28 56.69 95.74 56.69 93.96 L56.69 60.38 C56.69 58.6 54.92 56.94 53.15 56.94 Z"
							class="st1"/>
				</g>
				<g id="shape689-7" transform="translate(4.72441,-15.4257)">
					<title>path8</title>
					<rect x="0" y="66.4279" width="47.2441" height="30.8515" class="st2"/>
				</g>
				<g id="shape690-9" transform="translate(0,-10.6794)">
					<title>path10</title>
					<path d="M43.7 56.94 L53.15 56.94 L3.19 56.94 C1.42 56.94 0 58.6 0 60.38 L0 93.96 C0 95.74 1.42 97.28 3.19 97.28
								 L8.27 97.28 L43.7 56.94 Z" class="st3"/>
				</g>
				<g id="shape691-11" transform="translate(9.44882,-2.84217E-14)">
					<title>path12</title>
					<rect x="0" y="93.7196" width="37.7953" height="3.55979" class="st4"/>
				</g>
				<g id="shape692-13" transform="translate(17.7165,-19.3747)">
					<title>path14</title>
					<path d="M10.34 97.28 C15.4 97.28 19.83 93.26 20.26 88.17 L17.3 88.17 C16.88 91.56 13.93 94.32 10.34 94.32 C8.23
								 94.32 6.12 93.26 5.06 91.56 L8.23 88.18 L0 88.18 L0 97.07 L2.95 93.68 C4.85 95.8 7.39 97.28 10.34
								 97.28 ZM10.93 78.47 C13.04 78.47 15.15 79.52 16.21 81.22 L13.04 84.61 L21.27 84.61 L21.27 75.71
								 L18.32 78.89 C16.63 76.77 13.89 75.5 10.93 75.5 C5.66 75.5 1.44 79.53 1.02 84.61 L3.97 84.61 C4.39
								 81.01 7.35 78.47 10.93 78.47 Z" class="st5"/>
				</g>
				<g id="shape693-15" transform="translate(22.4409,-9.49277)">
					<title>path16</title>
					<rect x="0" y="96.0928" width="11.811" height="1.1866" class="st6"/>
				</g>
			</g>
		</g>
	</g>
</svg>
