<?xml version="1.0" encoding="UTF-8" standalone="no"?>
<!DOCTYPE svg PUBLIC "-//W3C//DTD SVG 1.1//EN" "http://www.w3.org/Graphics/SVG/1.1/DTD/svg11.dtd">
<!-- Generated by Microsoft Visio, SVG Export Update Management.svg Page-1 -->
<svg xmlns="http://www.w3.org/2000/svg" xmlns:xlink="http://www.w3.org/1999/xlink" xmlns:ev="http://www.w3.org/2001/xml-events"
		width="1.5748in" height="1.81961in" viewBox="0 0 113.386 131.012" xml:space="preserve" color-interpolation-filters="sRGB"
		class="st7">
	<style type="text/css">
	<![CDATA[
		.st1 {fill:#a0a1a2;stroke:none;stroke-linecap:butt;stroke-width:12.24}
		.st2 {fill:#0072c6;stroke:none;stroke-linecap:butt;stroke-width:12.24}
		.st3 {fill:#ffffff;fill-opacity:0.2;stroke:none;stroke-linecap:butt;stroke-width:12.24}
		.st4 {fill:#fafdff;fill-opacity:0.2;stroke:none;stroke-linecap:butt;stroke-width:12.24}
		.st5 {fill:#ffffff;stroke:none;stroke-linecap:butt;stroke-width:12.24}
		.st6 {fill:#1e1e1e;fill-opacity:0.15;stroke:none;stroke-linecap:butt;stroke-width:12.24}
		.st7 {fill:none;fill-rule:evenodd;font-size:12px;overflow:visible;stroke-linecap:square;stroke-miterlimit:3}
	]]>
	</style>

	<g>
		<title>Page-1</title>
		<g id="group428-1" transform="translate(28.3465,-67.748)">
			<title>Update Management</title>
			<g id="group429-2">
				<title>Sheet.429</title>
				<g id="shape430-3" transform="translate(9.44882,0)">
					<title>Sheet.430</title>
					<path d="M25.98 119.15 L11.81 119.15 C13.67 126.03 11.13 127.45 0 127.45 L0 131.01 L37.8 131.01 L37.8 127.45
								 C26.67 127.45 24.13 126.03 25.98 119.15 Z" class="st1"/>
				</g>
				<g id="shape431-5" transform="translate(0,-10.6794)">
					<title>Sheet.431</title>
					<path d="M53.15 90.67 L3.19 90.67 C1.42 90.67 0 92.33 0 94.11 L0 127.69 C0 129.47 1.42 131.01 3.19 131.01 L53.15
								 131.01 C54.92 131.01 56.69 129.47 56.69 127.69 L56.69 94.11 C56.69 92.33 54.92 90.67 53.15 90.67
								 Z" class="st1"/>
				</g>
				<g id="shape432-7" transform="translate(4.72441,-15.4257)">
					<title>Sheet.432</title>
					<rect x="0" y="100.16" width="47.2441" height="30.8515" class="st2"/>
				</g>
				<g id="shape433-9" transform="translate(0,-10.6794)">
					<title>Sheet.433</title>
					<path d="M43.7 90.67 L53.15 90.67 L3.19 90.67 C1.42 90.67 0 92.33 0 94.11 L0 127.69 C0 129.47 1.42 131.01 3.19
								 131.01 L8.27 131.01 L43.7 90.67 Z" class="st3"/>
				</g>
				<g id="shape434-11" transform="translate(9.44882,-2.84217E-14)">
					<title>Sheet.434</title>
					<rect x="0" y="127.452" width="37.7953" height="3.55979" class="st4"/>
				</g>
				<g id="shape435-13" transform="translate(17.7165,-19.3747)">
					<title>Sheet.435</title>
					<path d="M10.34 131.01 C15.4 131.01 19.83 126.99 20.26 121.91 L17.3 121.91 C16.88 125.29 13.93 128.05 10.34 128.05
								 C8.23 128.05 6.12 126.99 5.06 125.29 L8.23 121.91 L0 121.91 L0 130.8 L2.95 127.41 C4.85 129.53 7.39
								 131.01 10.34 131.01 ZM10.93 112.2 C13.04 112.2 15.15 113.26 16.21 114.95 L13.04 118.34 L21.27 118.34
								 L21.27 109.45 L18.32 112.62 C16.63 110.51 13.89 109.24 10.93 109.24 C5.66 109.24 1.44 113.26 1.02
								 118.34 L3.97 118.34 C4.39 114.74 7.35 112.2 10.93 112.2 Z" class="st5"/>
				</g>
				<g id="shape436-15" transform="translate(22.4409,-9.49277)">
					<title>Sheet.436</title>
					<rect x="0" y="129.825" width="11.811" height="1.1866" class="st6"/>
				</g>
			</g>
		</g>
	</g>
</svg>
