<?xml version="1.0" encoding="UTF-8" standalone="no"?>
<!DOCTYPE svg PUBLIC "-//W3C//DTD SVG 1.1//EN" "http://www.w3.org/Graphics/SVG/1.1/DTD/svg11.dtd">
<!-- Generated by Microsoft Visio, SVG Export Update Management Center.svg Page-1 -->
<svg xmlns="http://www.w3.org/2000/svg" xmlns:xlink="http://www.w3.org/1999/xlink" xmlns:ev="http://www.w3.org/2001/xml-events"
		width="1.69023in" height="1.71126in" viewBox="0 0 121.697 123.211" xml:space="preserve" color-interpolation-filters="sRGB"
		class="st6">
	<style type="text/css">
	<![CDATA[
		.st1 {fill:url(#grad0-6);stroke:none;stroke-linecap:butt;stroke-width:32.5019}
		.st2 {fill:url(#grad0-10);stroke:none;stroke-linecap:butt;stroke-width:32.5019}
		.st3 {fill:url(#grad0-14);stroke:none;stroke-linecap:butt;stroke-width:32.5019}
		.st4 {fill:url(#grad0-18);stroke:none;stroke-linecap:butt;stroke-width:32.5019}
		.st5 {fill:url(#grad0-25);stroke:none;stroke-linecap:butt;stroke-width:32.5019}
		.st6 {fill:none;fill-rule:evenodd;font-size:12px;overflow:visible;stroke-linecap:square;stroke-miterlimit:3}
	]]>
	</style>

	<defs id="Patterns_And_Gradients">
		<linearGradient id="grad0-6" x1="0" y1="0" x2="1" y2="0" gradientTransform="rotate(90 0.5 0.5)">
			<stop offset="0.22" stop-color="#0078d4" stop-opacity="1"/>
			<stop offset="1" stop-color="#005ba1" stop-opacity="1"/>
		</linearGradient>
		<linearGradient id="grad0-10" x1="0" y1="0" x2="1" y2="0" gradientTransform="rotate(90 0.5 0.5)">
			<stop offset="0.19" stop-color="#005ba1" stop-opacity="1"/>
			<stop offset="1" stop-color="#003067" stop-opacity="1"/>
		</linearGradient>
		<linearGradient id="grad0-14" x1="0" y1="0" x2="1" y2="0" gradientTransform="rotate(0 0.5 0.5)">
			<stop offset="0.315" stop-color="#9cebff" stop-opacity="1"/>
			<stop offset="1" stop-color="#50e6ff" stop-opacity="1"/>
		</linearGradient>
		<linearGradient id="grad0-18" x1="0" y1="0" x2="1" y2="0" gradientTransform="rotate(0 0.5 0.5)">
			<stop offset="0.355" stop-color="#50e6ff" stop-opacity="1"/>
			<stop offset="1" stop-color="#32bedd" stop-opacity="1"/>
		</linearGradient>
		<linearGradient id="grad0-25" x1="0" y1="0" x2="1" y2="0" gradientTransform="rotate(90 0.5 0.5)">
			<stop offset="0.355" stop-color="#50e6ff" stop-opacity="1"/>
			<stop offset="1" stop-color="#32bedd" stop-opacity="1"/>
		</linearGradient>
	</defs>
	<g>
		<title>Page-1</title>
		<g id="group498-1" transform="translate(32.5019,-34.0157)">
			<title>Update Management Center</title>
			<g id="group499-2">
				<title>g14</title>
				<g id="shape500-3">
					<title>path2</title>
					<path d="M56.69 96.83 L56.69 92.97 A1.77008 1.78106 -180 0 0 55.48 91.28 L49.09 89.14 a0.894488 0.900038 0 0
								 1 -0.544882 -0.526079 L47.17 85.01 a0.897638 0.903208 0 0 1 0.0346457 -0.719397 L50.12 78.39 A1.77008
								 1.78106 -180 0 0 49.79 76.34 L46.93 73.47 A1.76693 1.77789 -180 0 0 44.89 73.13 L39.03 76.07 a0.875591
								 0.881024 0 0 1 -0.711811 0.0316915 L34.73 74.71 a0.872441 0.877854 0 0 1 -0.510236 -0.516571 L31.78
								 67.67 A1.77323 1.78423 -180 0 0 30.12 66.52 L26.28 66.52 A1.77638 1.7874 -180 0 0 24.6 67.72 L22.47
								 73.88 a0.88189 0.887362 0 0 1 -0.466142 0.516571 L18.4 76.07 a0.891339 0.896869 0 0 1 -0.765354
								 -5.68434E-14 L11.82 73.13 A1.77323 1.78423 -180 0 0 9.78 73.45 L6.91 76.33 A1.77953 1.79057 -180
								 0 0 6.58 78.39 L9.5 84.29 a0.897638 0.903208 0 0 1 0.0346457 0.719397 L8.15 88.63 a0.888189 0.8937
								 0 0 1 -0.516535 0.513402 L1.15 91.59 A1.76693 1.77789 -180 0 0 -0 93.26 L0 97.11 A1.76693 1.77789
								 -180 0 0 1.21 98.8 L7.61 100.95 a0.888189 0.8937 0 0 1 0.544882 0.526079 L9.54 105.08 a0.897638
								 0.903208 0 0 1 -0.0346457 0.719397 L6.58 111.67 A1.77638 1.7874 -180 0 0 6.89 113.73 L9.76 116.62
								 A1.76693 1.77789 -180 0 0 11.8 116.93 L17.65 113.99 a0.872441 0.877854 0 0 1 0.714961 -0.0348606
								 L21.97 115.35 a0.891339 0.896869 0 0 1 0.507087 0.510233 L24.89 122.08 A1.77008 1.78106 -180 0 0
								 26.54 123.21 L30.41 123.21 A1.77323 1.78423 -180 0 0 32.09 121.99 L34.22 115.56 a0.891339 0.896869
								 0 0 1 0.522835 -0.551432 L38.32 113.63 a0.875591 0.881024 0 0 1 0.711811 0.0316915 L44.89 116.59
								 A1.77323 1.78423 -180 0 0 46.93 116.26 L49.76 113.41 A1.77008 1.78106 -180 0 0 50.08 111.32 L47.2
								 105.79 a0.888189 0.8937 0 0 1 -0.0409449 -0.732074 L48.54 101.44 a0.891339 0.896869 0 0 1 0.516535
								 -0.516571 L55.53 98.49 A1.77008 1.78106 -180 0 0 56.69 96.83 ZM28.39 109.37 A14.4094 14.4989 0 1
								 1 42.79 94.87 A14.4126 14.502 0 0 1 28.39 109.37 Z" class="st1"/>
				</g>
				<g id="shape501-7" transform="translate(13.978,-13.8397)">
					<title>circle4</title>
					<ellipse cx="14.4094" cy="108.712" rx="14.4094" ry="14.4989" class="st2"/>
				</g>
				<g id="shape502-11" transform="translate(19.4728,-38.8526)">
					<title>path6</title>
					<path d="M20.76 122.13 A16.2362 16.337 -180 0 0 20.05 121.77 A14.6803 14.7714 -180 0 0 7.72 121.35 A12.4693 12.5467
								 -180 0 0 2.57 123.11 A1.00157 1.00779 0 0 1 1.18 122.7 L0.07 120.48 A1.00472 1.01096 0 0 1 0.45
								 119.16 A15.1181 15.2119 0 0 1 15.42 118.27 A17.6756 17.7853 0 0 1 20.76 122.13 Z" class="st3"/>
				</g>
				<g id="shape503-15" transform="translate(27.1906,-19.0722)">
					<title>path8</title>
					<path d="M12.31 122.68 L9.23 116.5 A1.00472 1.01096 0 0 1 10.34 115.07 L12.18 115.46 A10.6331 10.699 -180 0 0
								 10 105.82 A11.178 11.2473 -180 0 0 -0 101.57 A14.6803 14.7714 0 0 1 12.34 101.99 C12.58 102.1 12.81
								 102.22 13.04 102.35 A15.8898 15.9884 0 0 1 17 114.31 C16.97 115 16.92 115.7 16.83 116.43 L17.23
								 116.51 L18.71 116.82 A1.00472 1.01096 0 0 1 19.14 118.59 L14.92 122.1 L13.84 123 A1.00157 1.00779
								 0 0 1 12.31 122.68 Z" class="st4"/>
				</g>
				<g id="shape504-19" transform="translate(16.1228,-11.3286)">
					<title>path10</title>
					<path d="M0 117.8 C0.23 117.92 0.46 118.04 0.71 118.15 A14.6803 14.7714 -180 0 0 13.04 118.58 A12.4567 12.534
								 -180 0 0 18.19 116.81 A1.00157 1.00779 0 0 1 19.58 117.23 L20.69 119.44 A1.00472 1.01096 0 0 1 20.31
								 120.77 A15.1181 15.2119 0 0 1 5.34 121.66 A17.7134 17.8233 0 0 1 -0 117.8 Z" class="st3"/>
				</g>
				<g id="shape505-22" transform="translate(9.69267,-14.804)">
					<title>path12</title>
					<path d="M7.16 100.95 L10.23 107.12 A1.00472 1.01096 0 0 1 9.13 108.55 L7.29 108.16 A10.6331 10.699 -180 0 0
								 9.47 117.8 A11.178 11.2473 -180 0 0 19.47 122.05 A14.6803 14.7714 0 0 1 7.14 121.63 A14.7276 14.8189
								 0 0 1 6.43 121.28 A15.874 15.9725 0 0 1 2.48 109.31 C2.5 108.62 2.55 107.92 2.64 107.19 L2.25 107.11
								 L0.77 106.8 A1.00157 1.00779 0 0 1 0.33 105.03 L4.55 101.52 L5.63 100.62 A1.00472 1.01096 0 0 1
								 7.16 100.95 Z" class="st5"/>
				</g>
			</g>
		</g>
	</g>
</svg>
