<?xml version="1.0" encoding="UTF-8" standalone="no"?>
<!DOCTYPE svg PUBLIC "-//W3C//DTD SVG 1.1//EN" "http://www.w3.org/Graphics/SVG/1.1/DTD/svg11.dtd">
<!-- Generated by Microsoft Visio, SVG Export User Privacy.svg Page-1 -->
<svg xmlns="http://www.w3.org/2000/svg" xmlns:xlink="http://www.w3.org/1999/xlink" xmlns:ev="http://www.w3.org/2001/xml-events"
		width="1.69273in" height="1.73206in" viewBox="0 0 121.876 124.709" xml:space="preserve" color-interpolation-filters="sRGB"
		class="st6">
	<style type="text/css">
	<![CDATA[
		.st1 {fill:url(#grad0-6);stroke:none;stroke-linecap:butt;stroke-width:34}
		.st2 {fill:#ffffff;fill-opacity:0.8;stroke:none;stroke-linecap:butt;stroke-width:34}
		.st3 {fill:url(#grad0-12);stroke:none;stroke-linecap:butt;stroke-width:34}
		.st4 {fill:#005ba1;stroke:none;stroke-linecap:butt;stroke-width:34}
		.st5 {fill:url(#grad0-18);stroke:none;stroke-linecap:butt;stroke-width:34}
		.st6 {fill:none;fill-rule:evenodd;font-size:12px;overflow:visible;stroke-linecap:square;stroke-miterlimit:3}
	]]>
	</style>

	<defs id="Patterns_And_Gradients">
		<linearGradient id="grad0-6" x1="0" y1="0" x2="1" y2="0" gradientTransform="rotate(90 0.5 0.5)">
			<stop offset="0.22" stop-color="#32d4f5" stop-opacity="1"/>
			<stop offset="1" stop-color="#198ab3" stop-opacity="1"/>
		</linearGradient>
		<linearGradient id="grad0-12" x1="0" y1="0" x2="1" y2="0" gradientTransform="rotate(85.391932192489 0.5 0.5)">
			<stop offset="0.22" stop-color="#32d4f5" stop-opacity="1"/>
			<stop offset="1" stop-color="#198ab3" stop-opacity="1"/>
		</linearGradient>
		<linearGradient id="grad0-18" x1="0" y1="0" x2="1" y2="0" gradientTransform="rotate(-90 0.5 0.5)">
			<stop offset="0" stop-color="#1988d9" stop-opacity="1"/>
			<stop offset="0.9" stop-color="#54aef0" stop-opacity="1"/>
		</linearGradient>
	</defs>
	<g>
		<title>Page-1</title>
		<g id="group430-1" transform="translate(34.0182,-34.0157)">
			<title>User Privacy</title>
			<g id="group431-2">
				<title>Icon-manage-303</title>
				<g id="shape432-3" transform="translate(0,-4.82506)">
					<title>path4</title>
					<path d="M43.52 124.71 A4.24134 4.1947 -180 0 0 47.77 120.55 A2.55827 2.53014 -180 0 0 47.77 120.05 C46.12 106.73
								 38.51 96.14 24.2 96.14 C9.9 96.14 1.62 105.23 0 120.08 A4.275 4.228 -180 0 0 3.8 124.68 L43.52 124.68
								 L43.52 124.71 Z" class="st1"/>
				</g>
				<g id="shape433-7" transform="translate(16.8307,-13.8803)">
					<title>path6</title>
					<path d="M7.17 108.33 A13.2626 13.1168 0 0 1 0 106.2 L7.07 124.71 L14.21 106.33 A13.4646 13.3165 0 0 1 7.17 108.33
								 Z" class="st2"/>
				</g>
				<g id="shape434-9" transform="translate(10.637,-30.2596)">
					<title>circle8</title>
					<ellipse cx="13.3636" cy="111.492" rx="13.3636" ry="13.2166" class="st3"/>
				</g>
				<g id="shape435-13" transform="translate(30.2953,1.42109E-14)">
					<title>path10</title>
					<path d="M23.56 109.63 C23.56 117.22 14.27 123.35 12.25 124.61 a0.807874 0.798991 0 0 1 -0.774213 0 C9.32 123.25
								 0 117.12 0 109.63 L0 100.37 a0.740551 0.732409 0 0 1 0.70689 -0.732409 C7.94 99.44 6.29 96.31 11.71
								 96.31 C17.13 96.31 15.45 99.44 22.69 99.64 a0.740551 0.732409 0 0 1 0.70689 0.732409 L23.56 109.63
								 Z" class="st4"/>
				</g>
				<g id="shape436-15" transform="translate(31.3051,-1.23034)">
					<title>path12</title>
					<path d="M21.44 110.86 C21.44 117.85 12.93 123.48 11.07 124.61 a0.673228 0.665826 0 0 1 -0.70689 1.42109E-14
								 C8.52 123.48 0 117.95 0 110.86 L0 102.44 a0.639567 0.632535 0 0 1 0.639567 -0.665826 C7.37 101.77
								 5.76 98.71 10.74 98.71 C15.72 98.71 14.1 101.61 20.84 101.77 a0.639567 0.632535 0 0 1 0.639567 0.665826
								 L21.44 110.86 Z" class="st5"/>
				</g>
			</g>
		</g>
	</g>
</svg>
