<?xml version="1.0" encoding="UTF-8" standalone="no"?>
<!DOCTYPE svg PUBLIC "-//W3C//DTD SVG 1.1//EN" "http://www.w3.org/Graphics/SVG/1.1/DTD/svg11.dtd">
<!-- Generated by Microsoft Visio, SVG Export Video Analyzer for Media.svg Page-1 -->
<svg xmlns="http://www.w3.org/2000/svg" xmlns:xlink="http://www.w3.org/1999/xlink" xmlns:ev="http://www.w3.org/2001/xml-events"
		width="0.87598in" height="1.34384in" viewBox="0 0 63.0705 96.7563" xml:space="preserve" color-interpolation-filters="sRGB"
		class="st9">
	<style type="text/css">
	<![CDATA[
		.st1 {fill:url(#grad0-6);stroke:none;stroke-linecap:butt;stroke-width:6}
		.st2 {fill:url(#grad0-10);stroke:none;stroke-linecap:butt;stroke-width:6}
		.st3 {fill:#5ea0ef;stroke:none;stroke-linecap:butt;stroke-width:6}
		.st4 {fill:url(#grad0-16);stroke:none;stroke-linecap:butt;stroke-width:6}
		.st5 {fill:url(#grad6-22);stroke:none;stroke-linecap:butt;stroke-width:6}
		.st6 {fill:#50e6ff;stroke:none;stroke-linecap:butt;stroke-width:6}
		.st7 {fill:#9cebff;stroke:none;stroke-linecap:butt;stroke-width:6}
		.st8 {fill:#c3f1ff;stroke:none;stroke-linecap:butt;stroke-width:6}
		.st9 {fill:none;fill-rule:evenodd;font-size:12px;overflow:visible;stroke-linecap:square;stroke-miterlimit:3}
	]]>
	</style>

	<defs id="Patterns_And_Gradients">
		<linearGradient id="grad0-6" x1="0" y1="0" x2="1" y2="0" gradientTransform="rotate(90 0.5 0.5)">
			<stop offset="0.115" stop-color="#5ea0ef" stop-opacity="1"/>
			<stop offset="0.27" stop-color="#4595e8" stop-opacity="1"/>
			<stop offset="0.53" stop-color="#1f85dd" stop-opacity="1"/>
			<stop offset="0.74" stop-color="#087cd6" stop-opacity="1"/>
			<stop offset="0.875" stop-color="#0078d4" stop-opacity="1"/>
		</linearGradient>
		<linearGradient id="grad0-10" x1="0" y1="0" x2="1" y2="0" gradientTransform="rotate(90.099534133486 0.5 0.5)">
			<stop offset="0" stop-color="#0078d4" stop-opacity="1"/>
			<stop offset="1" stop-color="#005ba1" stop-opacity="1"/>
		</linearGradient>
		<linearGradient id="grad0-16" x1="0" y1="0" x2="1" y2="0" gradientTransform="rotate(-95.050093168411 0.5 0.5)">
			<stop offset="0" stop-color="#005ba1" stop-opacity="1"/>
			<stop offset="1" stop-color="#0078d4" stop-opacity="1"/>
		</linearGradient>
		<radialGradient id="grad6-22" cx="1" cy="0" r="1.4">
			<stop offset="0.005" stop-color="#5ea0ef" stop-opacity="1"/>
			<stop offset="0.49" stop-color="#5ea0ef" stop-opacity="1"/>
			<stop offset="0.78" stop-color="#76b0f5" stop-opacity="1"/>
			<stop offset="1" stop-color="#83b9f9" stop-opacity="1"/>
		</radialGradient>
	</defs>
	<g>
		<title>Page-1</title>
		<g id="group552-1" transform="translate(6.04692,-34.0157)">
			<title>Video Analyzer for Media</title>
			<g id="group553-2">
				<title>Sheet.553</title>
				<g id="shape554-3" transform="translate(1.38354,0)">
					<title>Sheet.554</title>
					<path d="M49.64 58.91 L49.64 94.98 A1.74764 1.77673 0 0 1 48.56 96.62 C48.35 96.71 48.12 96.76 47.89 96.76 L1.75
								 96.76 A1.74818 1.77729 0 0 1 0.51 96.24 A1.74983 1.77896 0 0 1 0 94.98 L0 58.91 L49.64 58.91 Z"
							class="st1"/>
				</g>
				<g id="shape555-7" transform="translate(1.38354,-29.9646)">
					<title>Sheet.555</title>
					<path d="M0 88.87 L49.64 88.87 L49.64 96.76 L0 96.76 L0 88.87 Z" class="st2"/>
				</g>
				<g id="shape556-11" transform="translate(4.48571,-31.542)">
					<title>Sheet.556</title>
					<path d="M3.1 90.45 L0 96.76 L6.21 96.76 L9.31 90.45 L3.1 90.45 ZM15.51 90.45 L12.41 96.76 L18.62 96.76 L21.72
								 90.45 L15.51 90.45 ZM27.92 90.45 L24.82 96.76 L31.03 96.76 L34.13 90.45 L27.92 90.45 ZM40.33 90.45
								 L37.23 96.76 L43.44 96.76 L46.54 90.45 L40.33 90.45 Z" class="st3"/>
				</g>
				<g id="shape557-13" transform="translate(2.51799E-13,-37.8157)">
					<title>Sheet.557</title>
					<path d="M1.38 96.76 L0 90.81 A1.74545 1.77451 0 0 1 1.3 88.67 L46.19 77.88 A1.7449 1.77395 0 0 1 48.29 79.2
								 L49.67 85.15 L1.38 96.76 Z" class="st4"/>
				</g>
				<g id="shape558-17" transform="translate(2.95269,-39.264)">
					<title>Sheet.558</title>
					<path d="M42.27 81.18 L46.72 86.59 L40.68 88.04 L36.23 82.63 L42.27 81.18 ZM30.19 84.08 L34.64 89.5 L28.6 90.95
								 L24.15 85.53 L30.19 84.08 ZM18.12 86.98 L22.56 92.4 L16.52 93.85 L12.08 88.44 L18.12 86.98 ZM6.04
								 89.89 L10.49 95.31 L4.45 96.76 L0 91.34 L6.04 89.89 L6.04 89.89 Z" class="st3"/>
				</g>
				<g id="shape559-19" transform="translate(12.7065,-5.31461)">
					<title>Sheet.559</title>
					<path d="M28.75 85.95 L15.57 82.01 L15.24 83.15 L15.47 81.99 L3.83 79.62 L3.37 81.94 L11.56 83.61 L0 89.17 L1
								 91.31 L14.36 84.88 L16.42 96.76 L18.71 96.35 L16.71 84.82 L28.09 88.22 L28.75 85.95 Z" class="st5"/>
				</g>
				<g id="shape560-23" transform="translate(13.9816,-18.9251)">
					<title>Sheet.560</title>
					<path d="M2.33 96.76 A2.3269 2.36564 -180 0 0 2.33 92.02 A2.3269 2.36564 -180 1 0 2.33 96.76 Z" class="st6"/>
				</g>
				<g id="shape561-25" transform="translate(10.8789,-3.15381)">
					<title>Sheet.561</title>
					<path d="M5.43 80.98 A2.3269 2.36564 -180 0 0 5.43 76.25 A2.3269 2.36564 -180 1 0 5.43 80.98 ZM2.33 90.45 A2.3269
								 2.36564 -180 0 0 2.33 85.72 A2.3269 2.36564 -180 0 0 2.33 90.45 ZM19.39 96.76 A2.3269 2.36564 -180
								 0 0 19.39 92.02 A2.3269 2.36564 -180 0 0 19.39 96.76 ZM30.25 87.29 A2.3269 2.36564 -180 0 0 30.25
								 82.56 A2.3269 2.36564 -180 0 0 30.25 87.29 Z" class="st7"/>
				</g>
				<g id="shape562-27" transform="translate(23.2892,-11.5605)">
					<title>Sheet.562</title>
					<path d="M12.98 88.84 L0.92 82.03 a0.620323 0.630651 -180 0 0 -0.921451 0.551054 L0 96.2 a0.619776 0.630094 -180
								 0 0 0.921451 0.551611 L12.98 89.94 a0.620871 0.631208 -180 0 0 -7.10543E-15 -1.10211 L12.98 88.84
								 Z" class="st8"/>
				</g>
			</g>
		</g>
	</g>
</svg>
