<?xml version="1.0" encoding="UTF-8" standalone="no"?>
<!DOCTYPE svg PUBLIC "-//W3C//DTD SVG 1.1//EN" "http://www.w3.org/Graphics/SVG/1.1/DTD/svg11.dtd">
<!-- Generated by Microsoft Visio, SVG Export Virtual Network Gateway BGP Peer.svg Page-1 -->
<svg xmlns="http://www.w3.org/2000/svg" xmlns:xlink="http://www.w3.org/1999/xlink" xmlns:ev="http://www.w3.org/2001/xml-events"
		width="1.74983in" height="1.75019in" viewBox="0 0 125.988 126.014" xml:space="preserve" color-interpolation-filters="sRGB"
		class="st4">
	<style type="text/css">
	<![CDATA[
		.st1 {fill:#cccccc;stroke:none;stroke-linecap:butt;stroke-width:34}
		.st2 {fill:#ffffff;stroke:none;stroke-linecap:butt;stroke-width:34}
		.st3 {fill:url(#grad0-10);stroke:none;stroke-linecap:butt;stroke-width:34}
		.st4 {fill:none;fill-rule:evenodd;font-size:12px;overflow:visible;stroke-linecap:square;stroke-miterlimit:3}
	]]>
	</style>

	<defs id="Patterns_And_Gradients">
		<linearGradient id="grad0-10" x1="0" y1="0" x2="1" y2="0" gradientTransform="rotate(-90 0.5 0.5)">
			<stop offset="0" stop-color="#773adc" stop-opacity="1"/>
			<stop offset="1" stop-color="#a67af4" stop-opacity="1"/>
		</linearGradient>
	</defs>
	<g>
		<title>Page-1</title>
		<g id="group267-1" transform="translate(35.2951,-34.0157)">
			<title>Virtual Network Gateway BGP Peer</title>
			<g id="group268-2">
				<title>Sheet.268</title>
				<g id="shape269-3" transform="translate(2.71899,-4.10282)">
					<title>Sheet.269</title>
					<path d="M48.82 100.29 L26.39 77.35 L25.23 78.49 L24.09 77.34 L0 101.44 L25.24 126.01 L48.78 102.58 L47.65 101.44
								 L48.82 100.29 ZM26.85 82.48 L45.36 101.42 L26.85 119.84 L26.85 82.48 ZM23.63 82.41 L23.63 119.89
								 L4.63 101.42 L23.63 82.41 Z" class="st1"/>
				</g>
				<g id="shape270-5" transform="translate(22.9214,-46.5527)">
					<title>Sheet.270</title>
					<ellipse cx="5.03207" cy="120.943" rx="5.03207" ry="5.0701" class="st2"/>
				</g>
				<g id="shape271-7" transform="translate(23.4751,-45.2479)">
					<title>Sheet.271</title>
					<path d="M4.48 126.01 A6.32713 6.37495 0 1 1 10.8 119.64 A6.33358 6.38144 0 0 1 4.48 126.01 ZM4.48 115.88 A3.737
								 3.76525 -180 1 0 8.21 119.64 A3.74022 3.76849 -180 0 0 4.48 115.88 Z" class="st3"/>
				</g>
				<g id="shape272-11" transform="translate(22.9214,-1.30485)">
					<title>Sheet.272</title>
					<ellipse cx="5.03207" cy="120.943" rx="5.03207" ry="5.0701" class="st2"/>
				</g>
				<g id="shape273-13" transform="translate(23.4751,0)">
					<title>Sheet.273</title>
					<path d="M4.48 126.01 A6.32713 6.37495 0 1 1 10.8 119.64 A6.33358 6.38144 0 0 1 4.48 126.01 ZM4.48 115.87 A3.737
								 3.76525 -180 1 0 8.21 119.64 A3.74022 3.76849 -180 0 0 4.48 115.87 Z" class="st3"/>
				</g>
				<g id="shape274-16" transform="translate(45.3337,-23.6139)">
					<title>Sheet.274</title>
					<ellipse cx="5.03207" cy="120.943" rx="5.03207" ry="5.0701" class="st2"/>
				</g>
				<g id="shape275-18" transform="translate(45.8964,-22.3123)">
					<title>Sheet.275</title>
					<path d="M4.47 126.01 A6.32713 6.37495 0 1 1 10.8 119.65 A6.33358 6.38144 0 0 1 4.47 126.01 ZM4.47 115.88 A3.737
								 3.76525 -180 1 0 8.22 119.65 A3.74022 3.76849 -180 0 0 4.47 115.88 Z" class="st3"/>
				</g>
				<g id="shape276-21" transform="translate(1.13909E-13,-23.6139)">
					<title>Sheet.276</title>
					<ellipse cx="5.03207" cy="120.943" rx="5.03207" ry="5.0701" class="st2"/>
				</g>
				<g id="shape277-23" transform="translate(0.562685,-22.3123)">
					<title>Sheet.277</title>
					<path d="M4.47 126.01 A6.32713 6.37495 0 1 1 10.8 119.65 A6.33358 6.38144 0 0 1 4.47 126.01 ZM4.47 115.88 A3.737
								 3.76525 -180 1 0 8.21 119.65 A3.74022 3.76849 -180 0 0 4.47 115.88 Z" class="st3"/>
				</g>
			</g>
		</g>
	</g>
</svg>
