<?xml version="1.0" encoding="UTF-8" standalone="no"?>
<!DOCTYPE svg PUBLIC "-//W3C//DTD SVG 1.1//EN" "http://www.w3.org/Graphics/SVG/1.1/DTD/svg11.dtd">
<!-- Generated by Microsoft Visio, SVG Export Virtual Machine Windows.svg Page-1 -->
<svg xmlns="http://www.w3.org/2000/svg" xmlns:xlink="http://www.w3.org/1999/xlink" xmlns:ev="http://www.w3.org/2001/xml-events"
		width="1.73185in" height="2.12183in" viewBox="0 0 124.693 152.772" xml:space="preserve" color-interpolation-filters="sRGB"
		class="st5">
	<style type="text/css">
	<![CDATA[
		.st1 {fill:url(#grad0-6);stroke:none;stroke-linecap:butt;stroke-width:34}
		.st2 {fill:url(#grad0-10);stroke:none;stroke-linecap:butt;stroke-width:34}
		.st3 {fill:#804998;fill-opacity:0.2;stroke:none;stroke-linecap:butt;stroke-width:14.0489}
		.st4 {fill:#ffffff;fill-opacity:0.8;stroke:none;stroke-linecap:butt;stroke-width:14.0489}
		.st5 {fill:none;fill-rule:evenodd;font-size:12px;overflow:visible;stroke-linecap:square;stroke-miterlimit:3}
	]]>
	</style>

	<defs id="Patterns_And_Gradients">
		<linearGradient id="grad0-6" x1="0" y1="0" x2="1" y2="0" gradientTransform="rotate(-90 0.5 0.5)">
			<stop offset="0" stop-color="#0078d4" stop-opacity="1"/>
			<stop offset="0.82" stop-color="#5ea0ef" stop-opacity="1"/>
		</linearGradient>
		<linearGradient id="grad0-10" x1="0" y1="0" x2="1" y2="0" gradientTransform="rotate(-90 0.5 0.5)">
			<stop offset="0.15" stop-color="#cccccc" stop-opacity="1"/>
			<stop offset="1" stop-color="#707070" stop-opacity="1"/>
		</linearGradient>
	</defs>
	<g>
		<title>Page-1</title>
		<g id="group199-1" transform="translate(34,-67.748)">
			<title>Virtual Machine Windows</title>
			<g id="group200-2">
				<title>g16</title>
				<g id="shape201-3" transform="translate(0,-14.2056)">
					<title>rect2</title>
					<path d="M0 150.93 A1.88981 1.84094 -180 0 0 1.89 152.77 L54.8 152.77 A1.88981 1.84094 -180 0 0 56.69 150.93
								 L56.69 117.79 A1.88981 1.84094 -180 0 0 54.8 115.95 L1.89 115.95 A1.88981 1.84094 -180 0 0 0 117.79
								 L0 150.93 Z" class="st1"/>
				</g>
				<g id="shape202-7" transform="translate(14.1732,0)">
					<title>path14</title>
					<path d="M25.54 149.7 C19.94 148.84 19.72 144.92 19.72 138.57 L8.6 138.57 C8.6 144.92 8.41 148.84 2.8 149.7 A3.14961
								 3.06817 -180 0 0 0 152.77 L28.35 152.77 A3.14961 3.06817 -180 0 0 25.54 149.7 Z" class="st2"/>
				</g>
				<g id="shape203-11" transform="translate(14.2042,-20.5365)">
					<title>path10</title>
					<path d="M26.59 152.77 L1.07 150.77 C0.47 150.72 0 150.22 0 149.63 L0 130.55 C0 129.96 0.47 129.47 1.07 129.42
								 C1.07 129.42 26.6 127.42 26.6 127.42 C27.34 127.42 27.85 127.92 27.85 128.55 L27.85 151.64 C27.85
								 151.94 27.73 152.23 27.51 152.44 C27.29 152.65 27 152.77 26.69 152.77 L26.59 152.77 Z" class="st3"/>
				</g>
				<g id="shape204-13" transform="translate(28.1308,-34.1029)">
					<title>polygon12</title>
					<path d="M0 152.77 L12.76 152.77 L12.76 142.12 L0 143.12 L0 152.77 Z" class="st4"/>
				</g>
				<g id="shape205-15" transform="translate(15.3703,-34.1029)">
					<title>polygon14</title>
					<path d="M0 152.77 L10.94 152.77 L10.94 143.26 L0 144.12 L0 152.77 Z" class="st4"/>
				</g>
				<g id="shape206-17" transform="translate(28.1308,-21.6737)">
					<title>polygon16</title>
					<path d="M0 142.12 L12.76 142.12 L12.76 152.77 L0 151.77 L0 142.12 Z" class="st4"/>
				</g>
				<g id="shape207-19" transform="translate(15.3703,-22.8172)">
					<title>polygon18</title>
					<path d="M0 143.26 L10.94 143.26 L10.94 152.77 L0 151.91 L0 143.26 Z" class="st4"/>
				</g>
			</g>
		</g>
	</g>
</svg>
