<?xml version="1.0" encoding="UTF-8" standalone="no"?>
<!DOCTYPE svg PUBLIC "-//W3C//DTD SVG 1.1//EN" "http://www.w3.org/Graphics/SVG/1.1/DTD/svg11.dtd">
<!-- Generated by Microsoft Visio, SVG Export Virtual Machine Non-Azure Windows.svg Page-1 -->
<svg xmlns="http://www.w3.org/2000/svg" xmlns:xlink="http://www.w3.org/1999/xlink" xmlns:ev="http://www.w3.org/2001/xml-events"
		width="1.73185in" height="2.12183in" viewBox="0 0 124.693 152.772" xml:space="preserve" color-interpolation-filters="sRGB"
		class="st5">
	<style type="text/css">
	<![CDATA[
		.st1 {fill:url(#grad0-6);stroke:none;stroke-linecap:butt;stroke-width:34}
		.st2 {fill:url(#grad0-10);stroke:none;stroke-linecap:butt;stroke-width:34}
		.st3 {fill:#804998;fill-opacity:0.2;stroke:none;stroke-linecap:butt;stroke-width:13.7895}
		.st4 {fill:#ffffff;fill-opacity:0.8;stroke:none;stroke-linecap:butt;stroke-width:13.7895}
		.st5 {fill:none;fill-rule:evenodd;font-size:12px;overflow:visible;stroke-linecap:square;stroke-miterlimit:3}
	]]>
	</style>

	<defs id="Patterns_And_Gradients">
		<linearGradient id="grad0-6" x1="0" y1="0" x2="1" y2="0" gradientTransform="rotate(-90 0.5 0.5)">
			<stop offset="0" stop-color="#804998" stop-opacity="1"/>
			<stop offset="0.82" stop-color="#b482c8" stop-opacity="1"/>
		</linearGradient>
		<linearGradient id="grad0-10" x1="0" y1="0" x2="1" y2="0" gradientTransform="rotate(-90 0.5 0.5)">
			<stop offset="0.15" stop-color="#cccccc" stop-opacity="1"/>
			<stop offset="1" stop-color="#707070" stop-opacity="1"/>
		</linearGradient>
	</defs>
	<g>
		<title>Page-1</title>
		<g id="group230-1" transform="translate(34,-67.748)">
			<title>Virtual Machine Non-Azure Windows</title>
			<g id="group231-2">
				<title>g16</title>
				<g id="shape232-3" transform="translate(0,-14.2056)">
					<title>rect2</title>
					<path d="M0 150.93 A1.88981 1.84094 -180 0 0 1.89 152.77 L54.8 152.77 A1.88981 1.84094 -180 0 0 56.69 150.93
								 L56.69 117.79 A1.88981 1.84094 -180 0 0 54.8 115.95 L1.89 115.95 A1.88981 1.84094 -180 0 0 0 117.79
								 L0 150.93 Z" class="st1"/>
				</g>
				<g id="shape233-7" transform="translate(14.1732,0)">
					<title>path14</title>
					<path d="M25.54 149.7 C19.94 148.84 19.72 144.92 19.72 138.57 L8.6 138.57 C8.6 144.92 8.41 148.84 2.8 149.7 A3.14961
								 3.06817 -180 0 0 0 152.77 L28.35 152.77 A3.14961 3.06817 -180 0 0 25.54 149.7 Z" class="st2"/>
				</g>
				<g id="shape234-11" transform="translate(13.964,-20.5365)">
					<title>path10</title>
					<path d="M26.1 152.77 L1.05 150.8 C0.46 150.76 0 150.27 0 149.69 L0 130.96 C0 130.38 0.46 129.9 1.05 129.85 C1.05
								 129.85 26.11 127.88 26.11 127.88 C26.83 127.88 27.34 128.38 27.34 129 L27.34 151.66 C27.34 151.96
								 27.22 152.24 27 152.45 C26.79 152.66 26.5 152.77 26.2 152.77 L26.1 152.77 Z" class="st3"/>
				</g>
				<g id="shape235-13" transform="translate(27.6335,-33.8525)">
					<title>polygon12</title>
					<path d="M0 152.77 L12.52 152.77 L12.52 142.31 L0 143.29 L0 152.77 Z" class="st4"/>
				</g>
				<g id="shape236-15" transform="translate(15.1086,-33.8525)">
					<title>polygon14</title>
					<path d="M0 152.77 L10.74 152.77 L10.74 143.44 L0 144.28 L0 152.77 Z" class="st4"/>
				</g>
				<g id="shape237-17" transform="translate(27.6335,-21.6527)">
					<title>polygon16</title>
					<path d="M0 142.31 L12.52 142.31 L12.52 152.77 L0 151.79 L0 142.31 Z" class="st4"/>
				</g>
				<g id="shape238-19" transform="translate(15.1086,-22.7751)">
					<title>polygon18</title>
					<path d="M0 143.44 L10.74 143.44 L10.74 152.77 L0 151.93 L0 143.44 Z" class="st4"/>
				</g>
			</g>
		</g>
	</g>
</svg>
