<?xml version="1.0" encoding="UTF-8" standalone="no"?>
<!-- Generated by Microsoft Visio, SVG Export Virtual Machine Serial Console.svg Page-1 -->

<svg
   xmlns:dc="http://purl.org/dc/elements/1.1/"
   xmlns:cc="http://creativecommons.org/ns#"
   xmlns:rdf="http://www.w3.org/1999/02/22-rdf-syntax-ns#"
   xmlns:svg="http://www.w3.org/2000/svg"
   xmlns="http://www.w3.org/2000/svg"
   xmlns:sodipodi="http://sodipodi.sourceforge.net/DTD/sodipodi-0.dtd"
   xmlns:inkscape="http://www.inkscape.org/namespaces/inkscape"
   width="0.78746569in"
   height="0.74809384in"
   viewBox="0 0 56.697427 53.862692"
   xml:space="preserve"
   class="st11"
   version="1.1"
   id="svg71"
   sodipodi:docname="Virtual Machine Serial Console.svg"
   style="font-size:12px;overflow:visible;color-interpolation-filters:sRGB;fill:none;fill-rule:evenodd;stroke-linecap:square;stroke-miterlimit:3"
   inkscape:version="0.92.5 (2060ec1f9f, 2020-04-08)"><metadata
   id="metadata77"><rdf:RDF><cc:Work
       rdf:about=""><dc:format>image/svg+xml</dc:format><dc:type
         rdf:resource="http://purl.org/dc/dcmitype/StillImage" /></cc:Work></rdf:RDF></metadata><defs
   id="defs75" /><sodipodi:namedview
   pagecolor="#ffffff"
   bordercolor="#666666"
   borderopacity="1"
   objecttolerance="10"
   gridtolerance="10"
   guidetolerance="10"
   inkscape:pageopacity="0"
   inkscape:pageshadow="2"
   inkscape:window-width="640"
   inkscape:window-height="480"
   id="namedview73"
   showgrid="false"
   inkscape:zoom="1.3577977"
   inkscape:cx="37.79608"
   inkscape:cy="35.908088"
   inkscape:window-x="0"
   inkscape:window-y="0"
   inkscape:window-maximized="0"
   inkscape:current-layer="svg71" />
	<style
   type="text/css"
   id="style2">
	<![CDATA[
		.st1 {fill:#7a7a7a;stroke:none;stroke-linecap:butt;stroke-width:38.25}
		.st2 {fill:#1e1e1e;stroke:none;stroke-linecap:butt;stroke-width:38.25}
		.st3 {fill:#59b4d9;stroke:none;stroke-linecap:butt;stroke-width:38.25}
		.st4 {fill:#b8d432;stroke:none;stroke-linecap:butt;stroke-width:38.25}
		.st5 {fill:#a0a1a2;stroke:none;stroke-linecap:butt;stroke-width:38.25}
		.st6 {fill:#ffffff;fill-opacity:0.2;stroke:none;stroke-linecap:butt;stroke-width:38.25}
		.st7 {fill:#ffffff;stroke:none;stroke-linecap:butt;stroke-width:38.25}
		.st8 {fill:#68217a;stroke:none;stroke-linecap:butt;stroke-width:38.25}
		.st9 {fill:#59b4d9}
		.st10 {stroke:none;stroke-linecap:butt;stroke-width:38.25}
		.st11 {fill:none;fill-rule:evenodd;font-size:12px;overflow:visible;stroke-linecap:square;stroke-miterlimit:3}
	]]>
	</style>

	<g
   id="g69"
   transform="translate(-38.250003,-38.24733)">
		<title
   id="title4">Page-1</title>
		<g
   id="group424-1"
   transform="translate(38.2512,-38.25)">
			<title
   id="title6">Virtual Machine Serial Console</title>
			<g
   id="group425-2">
				<title
   id="title8">Sheet.425</title>
				<g
   id="shape426-3"
   transform="translate(0,-3.50267)">
					<title
   id="title10">Sheet.426</title>
					<path
   d="m 28.61,127.8 a 2.49449,2.48577 0 0 1 -2.46,2.56 H 2.46 A 2.49449,2.48577 0 0 1 0,127.8 V 82.6 A 2.53228,2.52343 0 0 1 2.46,80 h 23.69 a 2.53228,2.52343 0 0 1 2.46,2.56 z"
   class="st1"
   id="path12"
   inkscape:connector-curvature="0"
   style="fill:#7a7a7a;stroke:none;stroke-width:38.25;stroke-linecap:butt" />
				</g>
				<g
   id="shape427-5"
   transform="translate(4.19528,-33.7085)">
					<title
   id="title15">Sheet.427</title>
					<path
   d="m 0,127.27 a 3.09921,3.08838 0 0 1 3.14,-3.09 h 14.25 a 3.1008357,3.09 0 0 1 0,6.18 H 3.14 A 3.13701,3.12604 0 0 1 0,127.27 Z"
   class="st2"
   id="path17"
   inkscape:connector-curvature="0"
   style="fill:#1e1e1e;stroke:none;stroke-width:38.25;stroke-linecap:butt" />
				</g>
				<g
   id="shape428-7"
   transform="translate(5.36693,-34.7254)">
					<title
   id="title20">Sheet.428</title>
					<ellipse
   cx="2.0787399"
   cy="128.287"
   rx="2.0787399"
   ry="2.07147"
   class="st3"
   id="ellipse22"
   style="fill:#59b4d9;stroke:none;stroke-width:38.25;stroke-linecap:butt" />
				</g>
				<g
   id="shape429-9"
   transform="translate(4.19528,-42.8983)">
					<title
   id="title25">Sheet.429</title>
					<path
   d="m 0,127.23 a 3.13701,3.12604 0 0 1 3.14,-3.09 h 14.25 a 3.13701,3.12604 0 0 1 0,6.22 H 3.14 A 3.13701,3.12604 0 0 1 0,127.23 Z"
   class="st2"
   id="path27"
   inkscape:connector-curvature="0"
   style="fill:#1e1e1e;stroke:none;stroke-width:38.25;stroke-linecap:butt" />
				</g>
				<g
   id="shape430-11"
   transform="translate(5.36693,-43.9529)">
					<title
   id="title30">Sheet.430</title>
					<ellipse
   cx="2.0787399"
   cy="128.287"
   rx="2.0787399"
   ry="2.07147"
   class="st3"
   id="ellipse32"
   style="fill:#59b4d9;stroke:none;stroke-width:38.25;stroke-linecap:butt" />
				</g>
				<g
   id="shape431-13"
   transform="translate(20.5228)">
					<title
   id="title35">Sheet.431</title>
					<path
   d="m 0,128.93 a 1.43622,1.4312 -180 0 0 1.44,1.43 h 33.14 a 1.43622,1.4312 -180 0 0 1.44,-1.43 v -22.6 H 0 Z"
   class="st4"
   id="path37"
   inkscape:connector-curvature="0"
   style="fill:#b8d432;stroke:none;stroke-width:38.25;stroke-linecap:butt" />
				</g>
				<g
   id="shape432-15"
   transform="translate(20.5228,-23.1628)">
					<title
   id="title40">Sheet.432</title>
					<path
   d="M 34.58,122.83 H 1.44 A 1.32283,1.31821 -180 0 0 0,123.99 v 6.37 h 36.02 v -6.29 a 1.32283,1.31821 -180 0 0 -1.44,-1.24 z"
   class="st5"
   id="path42"
   inkscape:connector-curvature="0"
   style="fill:#a0a1a2;stroke:none;stroke-width:38.25;stroke-linecap:butt" />
				</g>
				<g
   id="shape433-17"
   transform="translate(20.5228,-0.0753262)">
					<title
   id="title45">Sheet.433</title>
					<path
   d="M 1.44,99.74 A 1.43622,1.4312 -180 0 0 0,101.17 v 27.76 a 1.43622,1.4312 -180 0 0 1.44,1.43 H 3.02 L 31.41,99.74 Z"
   class="st6"
   id="path47"
   inkscape:connector-curvature="0"
   style="fill:#ffffff;fill-opacity:0.2;stroke:none;stroke-width:38.25;stroke-linecap:butt" />
				</g>
				<g
   id="shape434-19"
   transform="translate(28.4976,-4.21827)">
					<title
   id="title50">Sheet.434</title>
					<path
   d="m 9.49,127.04 h 10.96 v 2.45 H 9.49 Z m -7.71,3.32 -1.7,-1.73 5.29,-5.31 -5.37,-6.45 1.85,-1.54 6.84,8.14 z"
   class="st7"
   id="path52"
   inkscape:connector-curvature="0"
   style="fill:#ffffff;stroke:none;stroke-width:38.25;stroke-linecap:butt" />
				</g>
				<g
   id="shape435-21"
   transform="translate(28.6488,-30.6954)">
					<title
   id="title55">Sheet.435</title>
					<path
   d="M 13.57,130.36 H 9.98 v -2.75 a 6.3874,6.36507 -180 0 0 -6.5,-6.33 H 0 v -3.58 h 3.48 a 9.97795,9.94306 0 0 1 9.98,9.91 z"
   class="st8"
   id="path57"
   inkscape:connector-curvature="0"
   style="fill:#68217a;stroke:none;stroke-width:38.25;stroke-linecap:butt" />
				</g>
				<g
   id="shape436-23"
   transform="translate(32.346,-34.8761)">
					<title
   id="title60">Sheet.436</title>
					<path
   d="m 24.35,127.53 a 2.87244,2.8624 -180 0 0 -2.88,-2.9 h -0.34 a 7.1811,7.15599 -180 0 0 0.27,-2.03 7.55906,7.53262 -180 0 0 -14.85,-2.45 5.36693,5.34816 -180 0 0 -1.71,-0.3 5.29134,5.27284 -180 0 0 0,10.51 H 21.7 a 2.87244,2.8624 -180 0 0 2.65,-2.86 z"
   class="st9"
   id="path62"
   inkscape:connector-curvature="0"
   style="fill:#59b4d9" />
					<path
   d="m 24.35,127.53 a 2.87244,2.8624 -180 0 0 -2.88,-2.9 h -0.34 a 7.1811,7.15599 -180 0 0 0.27,-2.03 7.55906,7.53262 -180 0 0 -14.85,-2.45 5.36693,5.34816 -180 0 0 -1.71,-0.3 5.29134,5.27284 -180 0 0 0,10.51 H 21.7 a 2.87244,2.8624 -180 0 0 2.65,-2.86"
   class="st10"
   id="path64"
   inkscape:connector-curvature="0"
   style="stroke:none;stroke-width:38.25;stroke-linecap:butt" />
				</g>
			</g>
		</g>
	</g>
</svg>