<?xml version="1.0" encoding="UTF-8" standalone="no"?>
<!-- Generated by Microsoft Visio, SVG Export Virtual Network.svg Page-1 -->

<svg
   xmlns:dc="http://purl.org/dc/elements/1.1/"
   xmlns:cc="http://creativecommons.org/ns#"
   xmlns:rdf="http://www.w3.org/1999/02/22-rdf-syntax-ns#"
   xmlns:svg="http://www.w3.org/2000/svg"
   xmlns="http://www.w3.org/2000/svg"
   xmlns:sodipodi="http://sodipodi.sourceforge.net/DTD/sodipodi-0.dtd"
   xmlns:inkscape="http://www.inkscape.org/namespaces/inkscape"
   width="0.78750169in"
   height="0.47237349in"
   viewBox="0 0 56.70003 34.010825"
   xml:space="preserve"
   class="st4"
   version="1.1"
   id="svg51"
   sodipodi:docname="Virtual Network.svg"
   style="font-size:12px;overflow:visible;color-interpolation-filters:sRGB;fill:none;fill-rule:evenodd;stroke-linecap:square;stroke-miterlimit:3"
   inkscape:version="0.92.5 (2060ec1f9f, 2020-04-08)"><metadata
   id="metadata55"><rdf:RDF><cc:Work
       rdf:about=""><dc:format>image/svg+xml</dc:format><dc:type
         rdf:resource="http://purl.org/dc/dcmitype/StillImage" /></cc:Work></rdf:RDF></metadata><sodipodi:namedview
   pagecolor="#ffffff"
   bordercolor="#666666"
   borderopacity="1"
   objecttolerance="10"
   gridtolerance="10"
   guidetolerance="10"
   inkscape:pageopacity="0"
   inkscape:pageshadow="2"
   inkscape:window-width="640"
   inkscape:window-height="480"
   id="namedview53"
   showgrid="false"
   inkscape:zoom="1.7347635"
   inkscape:cx="37.801057"
   inkscape:cy="22.661049"
   inkscape:window-x="0"
   inkscape:window-y="0"
   inkscape:window-maximized="0"
   inkscape:current-layer="svg51" />
	<style
   type="text/css"
   id="style2">
	<![CDATA[
		.st1 {fill:url(#grad0-6);stroke:none;stroke-linecap:butt;stroke-width:34}
		.st2 {fill:#50e6ff;stroke:none;stroke-linecap:butt;stroke-width:34}
		.st3 {fill:#1490df;stroke:none;stroke-linecap:butt;stroke-width:34}
		.st4 {fill:none;fill-rule:evenodd;font-size:12px;overflow:visible;stroke-linecap:square;stroke-miterlimit:3}
	]]>
	</style>

	<defs
   id="Patterns_And_Gradients">
		<linearGradient
   id="grad0-6"
   x1="-0.5212227"
   y1="195.7425"
   x2="14.462682"
   y2="195.7425"
   gradientTransform="scale(2.0438812,0.48926522)"
   gradientUnits="userSpaceOnUse">
			<stop
   offset="0"
   stop-color="#5e9624"
   stop-opacity="1"
   id="stop4" />
			<stop
   offset="0.24"
   stop-color="#6fb02a"
   stop-opacity="1"
   id="stop6" />
			<stop
   offset="0.5"
   stop-color="#7cc52f"
   stop-opacity="1"
   id="stop8" />
			<stop
   offset="0.755"
   stop-color="#83d232"
   stop-opacity="1"
   id="stop10" />
			<stop
   offset="1"
   stop-color="#86d633"
   stop-opacity="1"
   id="stop12" />
		</linearGradient>
	</defs>
	<g
   id="g49"
   transform="translate(-33.995749,-34.000435)">
		<title
   id="title16">Page-1</title>
		<g
   id="group349-1"
   transform="translate(34,-34.0157)">
			<title
   id="title18">Virtual Network</title>
			<g
   id="group350-2">
				<title
   id="title20">Sheet.350</title>
				<g
   id="shape351-3"
   transform="translate(14.2109,-14.4228)">
					<title
   id="title22">Sheet.351</title>
					<path
   d="m 29.56,99.42 a 3.64766,3.65555 0 1 1 -3.65,-3.65 3.64451,3.65239 0 0 1 3.65,3.65 z M 14.23,95.79 a 3.64766,3.65555 -180 1 0 3.65,3.65 3.64451,3.65239 -180 0 0 -3.65,-3.65 z m -11.65,0 A 3.64766,3.65555 -180 1 0 6.23,99.45 3.64766,3.65555 -180 0 0 2.58,95.8 Z"
   class="st1"
   id="path24"
   inkscape:connector-curvature="0"
   style="fill:url(#grad0-6);stroke:none;stroke-width:34;stroke-linecap:butt" />
				</g>
				<g
   id="shape352-7"
   transform="translate(0.0125992)">
					<title
   id="title27">Sheet.352</title>
					<path
   d="m 19.45,99.66 -2.09,2.09 a 0.94499,0.947033 0 0 1 -1.33559,0 L 0.55,86.3 a 1.88998,1.89407 0 0 1 0,-2.68 l 2.09,-2.1 16.81,16.79 a 0.94499,0.947033 0 0 1 0,1.34163 z"
   class="st2"
   id="path29"
   inkscape:connector-curvature="0"
   style="fill:#50e6ff;stroke:none;stroke-width:34;stroke-linecap:butt" />
				</g>
				<g
   id="shape353-9"
   transform="translate(0,-13.6775)">
					<title
   id="title32">Sheet.353</title>
					<path
   d="m 17.06,81.98 2.11,2.11 a 0.94499,0.947033 0 0 1 0,1.34163 L 2.65,102.03 0.55,99.94 a 1.88998,1.89407 0 0 1 0,-2.68 L 15.74,82 a 0.94499,0.947033 0 0 1 1.33874,0 z"
   class="st3"
   id="path34"
   inkscape:connector-curvature="0"
   style="fill:#1490df;stroke:none;stroke-width:34;stroke-linecap:butt" />
				</g>
				<g
   id="shape354-11"
   transform="translate(36.9341,-0.00631355)">
					<title
   id="title37">Sheet.354</title>
					<path
   d="m 17.09,81.52 2.09,2.1 a 1.88998,1.89407 0 0 1 0,2.68 L 3.7,101.75 a 0.94499,0.947033 0 0 1 -1.33559,0 L 0.28,99.65 a 0.94499,0.947033 0 0 1 0,-1.33847 z"
   class="st2"
   id="path39"
   inkscape:connector-curvature="0"
   style="fill:#50e6ff;stroke:none;stroke-width:34;stroke-linecap:butt" />
				</g>
				<g
   id="shape355-13"
   transform="translate(37.2365,-13.6869)">
					<title
   id="title42">Sheet.355</title>
					<path
   d="M 18.89,99.94 16.8,102.03 0.28,85.43 a 0.94499,0.947033 0 0 1 0,-1.33847 L 2.39,81.98 a 0.94499,0.947033 0 0 1 1.33559,0 L 18.91,97.24 a 1.88998,1.89407 0 0 1 -0.01,2.68 z"
   class="st3"
   id="path44"
   inkscape:connector-curvature="0"
   style="fill:#1490df;stroke:none;stroke-width:34;stroke-linecap:butt" />
				</g>
			</g>
		</g>
	</g>
</svg>