<?xml version="1.0" encoding="UTF-8" standalone="no"?>
<!DOCTYPE svg PUBLIC "-//W3C//DTD SVG 1.1//EN" "http://www.w3.org/Graphics/SVG/1.1/DTD/svg11.dtd">
<!-- Generated by Microsoft Visio, SVG Export Virtual Machine Best Practices.svg Page-1 -->
<svg xmlns="http://www.w3.org/2000/svg" xmlns:xlink="http://www.w3.org/1999/xlink" xmlns:ev="http://www.w3.org/2001/xml-events"
		width="1.73185in" height="1.65332in" viewBox="0 0 124.693 119.039" xml:space="preserve" color-interpolation-filters="sRGB"
		class="st5">
	<style type="text/css">
	<![CDATA[
		.st1 {fill:url(#grad0-6);stroke:none;stroke-linecap:butt;stroke-width:34}
		.st2 {fill:url(#grad0-10);stroke:none;stroke-linecap:butt;stroke-width:34}
		.st3 {fill:#ffffff;fill-opacity:0.8;stroke:none;stroke-linecap:butt;stroke-width:34}
		.st4 {fill:#ffffff;stroke:none;stroke-linecap:butt;stroke-width:34}
		.st5 {fill:none;fill-rule:evenodd;font-size:12px;overflow:visible;stroke-linecap:square;stroke-miterlimit:3}
	]]>
	</style>

	<defs id="Patterns_And_Gradients">
		<linearGradient id="grad0-6" x1="0" y1="0" x2="1" y2="0" gradientTransform="rotate(-90 0.5 0.5)">
			<stop offset="0" stop-color="#0078d4" stop-opacity="1"/>
			<stop offset="0.8" stop-color="#5ea0ef" stop-opacity="1"/>
		</linearGradient>
		<linearGradient id="grad0-10" x1="0" y1="0" x2="1" y2="0" gradientTransform="rotate(-90 0.5 0.5)">
			<stop offset="0" stop-color="#cccccc" stop-opacity="1"/>
			<stop offset="1" stop-color="#707070" stop-opacity="1"/>
		</linearGradient>
	</defs>
	<g>
		<title>Page-1</title>
		<g id="group314-1" transform="translate(34,-34.0157)">
			<title>Virtual Machine Best Practices</title>
			<g id="group315-2">
				<title>Sheet.315</title>
				<g id="shape316-3" transform="translate(0,-14.2056)">
					<title>Sheet.316</title>
					<path d="M0 117.2 A1.88981 1.84094 -180 0 0 1.89 119.04 L54.8 119.04 A1.88981 1.84094 -180 0 0 56.69 117.2 L56.69
								 84.06 A1.88981 1.84094 -180 0 0 54.8 82.22 L1.89 82.22 A1.88981 1.84094 -180 0 0 0 84.06 L0 117.2
								 Z" class="st1"/>
				</g>
				<g id="shape317-7" transform="translate(14.1732,1.42109E-14)">
					<title>Sheet.317</title>
					<path d="M25.54 115.97 C19.94 115.11 19.72 111.18 19.72 104.83 L8.6 104.83 C8.6 111.18 8.41 115.11 2.8 115.97
								 A3.14961 3.06817 -180 0 0 -0 119.04 L28.35 119.04 A3.14961 3.06817 -180 0 0 25.54 115.97 Z"
							class="st2"/>
				</g>
				<g id="shape318-11" transform="translate(13.1213,-19.3968)">
					<title>Sheet.318</title>
					<path d="M18.72 92 a0.873511 0.850924 -180 1 0 -0.425197 1.65067 A12.9354 12.601 0 1 1 4.16 99.28 L4.51 99.52
								 L6.97 101.19 a0.151181 0.147272 -180 0 0 0.15748 -0.171817 L6.55 94.5 a0.151181 0.147272 -180 0
								 0 -0.173228 -0.119659 L0.11 96.36 a0.151181 0.147272 -180 0 0 -0.107087 0.205567 L2.59 98.22 L2.73
								 98.32 A14.6362 14.2578 -180 1 0 18.73 92 L18.72 92 Z" class="st3"/>
				</g>
				<g id="shape319-13" transform="translate(18.4504,-23.5114)">
					<title>Sheet.319</title>
					<path d="M16.77 107.22 L15.72 105.44 L16.29 102.2 L13.62 100.7 L11.02 102.8 L8.92 102.8 L6.32 100.7 L3.65 102.2
								 L4.23 105.46 L3.17 107.22 L0 108.36 L0 111.37 L3.17 112.51 L4.22 114.28 L3.65 117.54 L6.32 119.04
								 L8.92 116.94 L11.02 116.94 L13.62 119.04 L16.29 117.54 L15.72 114.29 L16.77 112.52 L19.94 111.38
								 L19.94 108.37 L16.77 107.22 ZM9.97 114.42 A4.66457 4.54396 0 1 1 14.62 109.87 A4.66457 4.54396 0
								 0 1 9.97 114.42 Z" class="st4"/>
				</g>
			</g>
		</g>
	</g>
</svg>
