<?xml version="1.0" encoding="UTF-8" standalone="no"?>
<!-- Generated by Microsoft Visio, SVG Export Virtual Machine Image Version.svg Page-1 -->

<svg
   xmlns:dc="http://purl.org/dc/elements/1.1/"
   xmlns:cc="http://creativecommons.org/ns#"
   xmlns:rdf="http://www.w3.org/1999/02/22-rdf-syntax-ns#"
   xmlns:svg="http://www.w3.org/2000/svg"
   xmlns="http://www.w3.org/2000/svg"
   xmlns:sodipodi="http://sodipodi.sourceforge.net/DTD/sodipodi-0.dtd"
   xmlns:inkscape="http://www.inkscape.org/namespaces/inkscape"
   width="56.693378"
   height="53.850357"
   viewBox="0 0 56.693378 53.850357"
   xml:space="preserve"
   class="st7"
   version="1.1"
   id="svg64"
   sodipodi:docname="Virtual Machine Image Version.svg"
   style="font-size:12px;overflow:visible;color-interpolation-filters:sRGB;fill:none;fill-rule:evenodd;stroke-linecap:square;stroke-miterlimit:3"
   inkscape:version="0.92.5 (2060ec1f9f, 2020-04-08)"><metadata
   id="metadata68"><rdf:RDF><cc:Work
       rdf:about=""><dc:format>image/svg+xml</dc:format><dc:type
         rdf:resource="http://purl.org/dc/dcmitype/StillImage" /></cc:Work></rdf:RDF></metadata><sodipodi:namedview
   pagecolor="#ffffff"
   bordercolor="#666666"
   borderopacity="1"
   objecttolerance="10"
   gridtolerance="10"
   guidetolerance="10"
   inkscape:pageopacity="0"
   inkscape:pageshadow="2"
   inkscape:window-width="640"
   inkscape:window-height="480"
   id="namedview66"
   showgrid="false"
   inkscape:zoom="1.9364261"
   inkscape:cx="28.3465"
   inkscape:cy="26.917314"
   inkscape:window-x="0"
   inkscape:window-y="0"
   inkscape:window-maximized="0"
   inkscape:current-layer="svg64" />
	<style
   type="text/css"
   id="style2">
	<![CDATA[
		.st1 {fill:#0078d4;stroke:none;stroke-linecap:butt;stroke-width:34}
		.st2 {fill:url(#grad0-8);stroke:none;stroke-linecap:butt;stroke-width:34}
		.st3 {fill:#773adc;stroke:none;stroke-linecap:butt;stroke-width:34}
		.st4 {fill:#50e6ff;stroke:none;stroke-linecap:butt;stroke-width:34}
		.st5 {fill:#c3f1ff;stroke:none;stroke-linecap:butt;stroke-width:34}
		.st6 {fill:#9cebff;stroke:none;stroke-linecap:butt;stroke-width:34}
		.st7 {fill:none;fill-rule:evenodd;font-size:12px;overflow:visible;stroke-linecap:square;stroke-miterlimit:3}
	]]>
	</style>

	<defs
   id="Patterns_And_Gradients">
		<linearGradient
   id="grad0-8"
   x1="0"
   y1="66.119595"
   x2="43.55779"
   y2="66.119595"
   gradientTransform="scale(0.89995383,1.1111681)"
   gradientUnits="userSpaceOnUse">
			<stop
   offset="0"
   stop-color="#32bedd"
   stop-opacity="1"
   id="stop4" />
			<stop
   offset="0.3"
   stop-color="#36c3e1"
   stop-opacity="1"
   id="stop6" />
			<stop
   offset="0.67"
   stop-color="#41d2ee"
   stop-opacity="1"
   id="stop8" />
			<stop
   offset="1"
   stop-color="#50e6ff"
   stop-opacity="1"
   id="stop10" />
		</linearGradient>
	</defs>
	<g
   id="g62"
   transform="translate(-34,-34.003956)">
		<title
   id="title14">Page-1</title>
		<g
   id="group483-1"
   transform="translate(34,-34.0157)">
			<title
   id="title16">Virtual Machine Image Version</title>
			<g
   id="group484-2">
				<title
   id="title18">Icon-compute-38</title>
				<g
   id="shape485-3"
   transform="translate(0,-5.45033)">
					<title
   id="title20">Sheet.485</title>
					<path
   d="m 0,120.26 a 1.63325,1.61256 -180 0 0 1.63,1.61 h 35.93 a 1.63325,1.61256 -180 0 0 1.64,-1.61 V 75.08 A 1.63325,1.61256 -180 0 0 37.56,73.47 H 1.63 A 1.63325,1.61256 -180 0 0 0,75.08 Z"
   class="st1"
   id="path22"
   inkscape:connector-curvature="0"
   style="fill:#0078d4;stroke:none;stroke-width:34;stroke-linecap:butt" />
				</g>
				<g
   id="shape486-5"
   transform="translate(5.71623)">
					<title
   id="title25">Sheet.486</title>
					<path
   d="m 0,120.26 a 1.63325,1.61256 -180 0 0 1.63,1.61 h 35.93 a 1.63325,1.61256 -180 0 0 1.64,-1.61 V 75.08 A 1.63325,1.61256 -180 0 0 37.56,73.47 H 1.63 A 1.63325,1.61256 -180 0 0 0,75.08 Z"
   class="st2"
   id="path27"
   inkscape:connector-curvature="0"
   style="fill:url(#grad0-8);stroke:none;stroke-width:34;stroke-linecap:butt" />
				</g>
				<g
   id="shape487-9"
   transform="translate(23.8448,-1.54802)">
					<title
   id="title30">Sheet.487</title>
					<path
   d="m 32.73,108.72 -9.38,-9.23 a 0.457298,0.451506 -180 0 0 -0.816604,0.322505 L 22.54,105.2 C 11.27,105.2 0,111.13 0,121.87 c 1.6,-2.38 9.8,-8.74 22.54,-8.74 v 5.16 a 0.489962,0.483757 -180 0 0 0.816604,0.35476 L 32.73,109.39 a 0.555291,0.548258 -180 0 0 0,-0.67726 z"
   class="st3"
   id="path32"
   inkscape:connector-curvature="0"
   style="fill:#773adc;stroke:none;stroke-width:34;stroke-linecap:butt" />
				</g>
				<g
   id="shape488-11"
   transform="translate(25.3147,-14.2225)">
					<title
   id="title35">Sheet.488</title>
					<path
   d="m 11.43,102.14 v 13.12 L 0,121.87 v -13.15 z"
   class="st4"
   id="path37"
   inkscape:connector-curvature="0"
   style="fill:#50e6ff;stroke:none;stroke-width:34;stroke-linecap:butt" />
				</g>
				<g
   id="shape489-13"
   transform="translate(13.8823,-27.3484)">
					<title
   id="title40">Sheet.489</title>
					<path
   d="M 22.86,115.26 11.43,121.87 0,115.26 11.43,108.65 Z"
   class="st5"
   id="path42"
   inkscape:connector-curvature="0"
   style="fill:#c3f1ff;stroke:none;stroke-width:34;stroke-linecap:butt" />
				</g>
				<g
   id="shape490-15"
   transform="translate(13.8823,-14.2225)">
					<title
   id="title45">Sheet.490</title>
					<path
   d="m 11.43,108.75 v 13.12 L 0,115.26 v -13.12 z"
   class="st6"
   id="path47"
   inkscape:connector-curvature="0"
   style="fill:#9cebff;stroke:none;stroke-width:34;stroke-linecap:butt" />
				</g>
				<g
   id="shape491-17"
   transform="translate(13.8823,-14.2225)">
					<title
   id="title50">Sheet.491</title>
					<path
   d="m 0,115.26 11.43,-6.54 v 13.15 z"
   class="st5"
   id="path52"
   inkscape:connector-curvature="0"
   style="fill:#c3f1ff;stroke:none;stroke-width:34;stroke-linecap:butt" />
				</g>
				<g
   id="shape492-19"
   transform="translate(25.3147,-14.2225)">
					<title
   id="title55">Sheet.492</title>
					<path
   d="M 11.43,115.26 0,108.72 v 13.15 z"
   class="st6"
   id="path57"
   inkscape:connector-curvature="0"
   style="fill:#9cebff;stroke:none;stroke-width:34;stroke-linecap:butt" />
				</g>
			</g>
		</g>
	</g>
</svg>