<?xml version="1.0" encoding="UTF-8" standalone="no"?>
<!DOCTYPE svg PUBLIC "-//W3C//DTD SVG 1.1//EN" "http://www.w3.org/Graphics/SVG/1.1/DTD/svg11.dtd">
<!-- Generated by Microsoft Visio, SVG Export Virtual Assistant.svg Page-1 -->
<svg xmlns="http://www.w3.org/2000/svg" xmlns:xlink="http://www.w3.org/1999/xlink" xmlns:ev="http://www.w3.org/2001/xml-events"
		width="1.5748in" height="1.81961in" viewBox="0 0 113.386 131.012" xml:space="preserve" color-interpolation-filters="sRGB"
		class="st11">
	<style type="text/css">
	<![CDATA[
		.st1 {fill:#7a7a7a;stroke:none;stroke-linecap:butt;stroke-width:12.24}
		.st2 {fill:#a0a1a2;stroke:none;stroke-linecap:butt;stroke-width:12.24}
		.st3 {fill:#ffffff;fill-opacity:0.2;stroke:none;stroke-linecap:butt;stroke-width:12.24}
		.st4 {fill:#59b4d9;stroke:none;stroke-linecap:butt;stroke-width:12.24}
		.st5 {fill:#b8d432;stroke:none;stroke-linecap:butt;stroke-width:12.24}
		.st6 {fill:#00188f;stroke:none;stroke-linecap:butt;stroke-width:12.24}
		.st7 {fill:#ffffff;fill-opacity:0.4;stroke:none;stroke-linecap:butt;stroke-width:12.24}
		.st8 {fill:#68217a;stroke:none;stroke-linecap:butt;stroke-width:12.24}
		.st9 {fill:#ec008c;fill-opacity:0.15;stroke:none;stroke-linecap:butt;stroke-width:12.24}
		.st10 {fill:#ffffff;fill-opacity:0.8;stroke:none;stroke-linecap:butt;stroke-width:12.24}
		.st11 {fill:none;fill-rule:evenodd;font-size:12px;overflow:visible;stroke-linecap:square;stroke-miterlimit:3}
	]]>
	</style>

	<g>
		<title>Page-1</title>
		<g id="group385-1" transform="translate(28.3465,-67.748)">
			<title>Virtual Assistant</title>
			<g id="group386-2">
				<title>g36</title>
				<g id="shape387-3" transform="translate(10.2047,0)">
					<title>path4</title>
					<path d="M25.26 118.87 L11.03 118.87 C12.86 125.56 10.78 127.53 0 127.53 L0 131.01 L36.28 131.01 L36.28 127.53
								 C25.5 127.53 23.42 125.56 25.26 118.87 Z" class="st1"/>
				</g>
				<g id="shape388-5" transform="translate(2.26772,-11.5974)">
					<title>path6</title>
					<path d="M48.72 91.59 L3.09 91.59 C1.38 91.59 0 93.12 0 94.84 L0 127.79 C0 129.49 1.38 131.01 3.09 131.01 L48.72
								 131.01 C50.43 131.01 52.16 129.49 52.16 127.79 L52.16 94.84 C52.16 93.12 50.43 91.59 48.72 91.59
								 Z" class="st2"/>
				</g>
				<g id="shape389-7" transform="translate(2.26772,-11.5963)">
					<title>path8</title>
					<path d="M48.59 91.59 L48.56 91.59 L3.08 91.59 C1.38 91.59 0 93.12 0 94.84 L0 127.79 C0 129.49 1.38 131.01 3.08
								 131.01 L4.27 131.01 L48.59 91.59 Z" class="st3"/>
				</g>
				<g id="shape390-9" transform="translate(6.80315,-16.2348)">
					<title>path10</title>
					<rect x="0" y="100.861" width="43.0866" height="30.1503" class="st4"/>
				</g>
				<g id="shape391-11" transform="translate(10.2047,-2.84217E-14)">
					<title>path12</title>
					<path d="M0 127.53 L36.28 127.51 L36.28 131.01 L0 131.01 L0 127.53 Z" class="st2"/>
				</g>
				<g id="shape392-13" transform="translate(27.5403,-47.881)">
					<title>path14</title>
					<path d="M1.61 130.19 a0.805039 0.823336 0 1 1 -1.61008 0 a0.805039 0.823336 0 1 1 1.61008 -2.84217E-14 Z"
							class="st5"/>
				</g>
				<g id="shape393-15" transform="translate(17.0079,-19.7137)">
					<title>path16</title>
					<path d="M2.26 131.01 L13.04 131.01 C14.11 131.01 15.12 130.5 15.76 129.62 L16.52 128.58 C17.12 127.76 16.46
								 126.6 15.46 126.74 L0 128.69 L2.26 131.01 Z" class="st6"/>
				</g>
				<g id="shape394-17" transform="translate(22.6772,-29.5705)">
					<title>path18</title>
					<path d="M6.29 131.01 L12.42 131.01 A2.8868 2.95241 -180 0 0 15.31 128.06 L16.44 123.53 A2.8868 2.95241 -180
								 0 0 13.56 120.57 L2.89 120.57 C1.29 120.58 0 121.26 0 123.53 C0 129.27 2.89 131.01 6.29 131.01 Z"
							class="st7"/>
				</g>
				<g id="shape395-19" transform="translate(1.18488,-29.5705)">
					<title>path20</title>
					<path d="M8.51 131.01 L2.89 131.01 A2.8868 2.95241 0 0 1 0 128.06 L0 123.53 A2.8868 2.95241 0 0 1 2.89 120.57
								 L11.91 120.57 C13.5 120.57 14.79 121.26 14.79 123.53 C14.79 129.27 11.91 131.01 8.51 131.01 Z"
							class="st4"/>
				</g>
				<g id="shape396-21" transform="translate(1.18488,-29.5705)">
					<title>path22</title>
					<path d="M8.51 131.01 L2.89 131.01 A2.8868 2.95241 0 0 1 0 128.06 L0 123.53 A2.8868 2.95241 0 0 1 2.89 120.57
								 L11.91 120.57 C13.5 120.57 14.79 121.26 14.79 123.53 C14.79 129.27 11.91 131.01 8.51 131.01 Z"
							class="st7"/>
				</g>
				<g id="shape397-23" transform="translate(1.69965,-28.9907)">
					<title>path24</title>
					<path d="M2.89 131.01 C2.89 131.01 0 129.69 0 128.06 L0 123.53 A2.88794 2.95357 0 0 1 2.89 120.58 L10.77 120.58
								 L2.89 131.01 ZM24.43 131.01 C24.43 131.01 21.54 129.69 21.54 128.06 L21.54 123.53 A2.8868 2.95241
								 0 0 1 24.43 120.58 L32.32 120.58 L24.43 131.01 Z" class="st3"/>
				</g>
				<g id="shape398-25" transform="translate(16.4931,-32.4696)">
					<title>path26</title>
					<path d="M34.37 123.06 C29.99 122.42 25.46 121.73 25.46 121.73 L25.46 125.21 L34.58 126.37 C34.58 126.37 32.69
								 126.13 34.58 126.38 C37.22 126.73 37.93 127.53 37.93 129.85 L37.93 131.01 C39.07 131.01 40.2 129.3
								 40.2 127.53 C40.2 125.76 38.75 123.7 34.37 123.06 ZM5.66 124.05 L0 124.05 L0 130.75 C1.14 127.53
								 4.55 127.53 5.66 130.75 L5.66 124.05 Z" class="st8"/>
				</g>
				<g id="shape399-27" transform="translate(0,-27.8311)">
					<title>path28</title>
					<path d="M35.1 131.01 L28.96 131.01 C23.89 131.01 20.98 127.65 20.98 121.79 C20.98 118.85 22.69 117.1 25.56 117.1
								 L36.23 117.1 C38.76 117.1 40.82 119.52 40.82 121.79 C40.82 126.37 39.69 131.01 35.1 131.01 ZM25.56
								 120.58 C24.59 120.58 24.38 120.79 24.38 121.79 C24.38 126.88 26.83 127.53 28.97 127.53 L35.1 127.53
								 C37.42 127.53 37.42 121.79 37.42 121.79 C37.42 121.12 36.89 120.58 36.23 120.58 L25.56 120.58 ZM9.69
								 131.01 L4.59 131.01 A4.59213 4.69649 0 0 1 0 126.32 L0 121.79 A4.59213 4.69649 0 0 1 4.59 117.1
								 L13.09 117.1 C15.96 117.1 17.68 118.85 17.68 121.79 C17.68 127.65 14.77 131.01 9.69 131.01 ZM4.59
								 120.58 C3.93 120.58 3.4 121.12 3.4 121.79 L3.4 126.32 C3.4 126.99 3.93 127.53 4.59 127.53 L9.69
								 127.53 C11.83 127.53 14.28 126.88 14.28 121.79 C14.28 120.79 14.07 120.58 13.09 120.58 L4.59 120.58
								 Z" class="st8"/>
				</g>
				<g id="shape400-29" transform="translate(0,-37.1081)">
					<title>path30</title>
					<path d="M39.69 131.01 L40.82 131.01 C43.09 131.01 43.09 128.69 43.09 127.53 A1.13386 1.15963 -180 0 0 41.95
								 126.37 L36.28 126.37 L39.69 131.01 ZM1.75 131.01 L0 131.01 L0 127.53 A1.13386 1.15963 0 0 1 1.13
								 126.37 L5.15 126.37 L1.75 131.01 Z" class="st8"/>
				</g>
				<g id="shape401-31" transform="translate(0,-27.8311)">
					<title>path32</title>
					<path d="M50.86 118.42 C46.48 117.78 41.95 117.1 41.95 117.1 L36.28 117.1 L36.29 117.1 C36.27 117.1 36.25 117.1
								 36.23 117.1 L25.56 117.1 C23.59 117.1 22.18 117.94 21.48 119.42 L17.18 119.42 C16.48 117.94 15.07
								 117.1 13.09 117.1 L1.13 117.1 A1.13386 1.15963 -180 0 0 -0 118.26 L0 121.73 L0 121.73 C0 121.75
								 0 121.77 0 121.79 L0 126.32 A4.59213 4.69649 -180 0 0 4.59 131.01 L9.69 131.01 C13.9 131.01 16.61
								 128.7 17.42 124.57 C18.53 123.42 20.12 123.42 21.23 124.56 C22.04 128.69 24.75 131.01 28.97 131.01
								 L35.1 131.01 C39.69 131.01 40.82 126.37 40.82 121.79 C40.82 121.77 40.81 121.75 40.81 121.73 L40.82
								 121.73 C41.82 121.73 42.37 121.27 42.68 120.67 L50.28 121.63 L51.07 121.74 C53.71 122.09 54.43 122.89
								 54.43 125.21 L54.43 126.37 C55.56 126.37 56.69 124.67 56.69 122.89 C56.69 121.12 55.24 119.06 50.86
								 118.42 ZM9.69 127.53 L4.59 127.53 A1.18602 1.21297 0 0 1 3.4 126.32 L3.4 121.79 C3.4 121.12 3.93
								 120.58 4.59 120.58 L13.09 120.58 C14.07 120.58 14.28 120.79 14.28 121.79 C14.28 126.88 11.83 127.53
								 9.69 127.53 ZM35.1 127.53 L28.97 127.53 C26.83 127.53 24.38 126.88 24.38 121.79 C24.38 120.79 24.59
								 120.58 25.56 120.58 L36.23 120.58 C36.89 120.58 37.42 121.12 37.42 121.79 C37.42 121.79 37.42 127.53
								 35.1 127.53 ZM50.83 121.7 L51.07 121.73 L50.83 121.7 Z" class="st9"/>
				</g>
				<g id="shape402-33" transform="translate(1.13386,-39.4273)">
					<title>path34</title>
					<path d="M1.13 129.85 L1.13 131.01 L0 131.01 L0 129.85 L1.13 129.85 ZM39.69 129.85 L39.69 131.01 L38.55 131.01
								 L38.55 129.85 L39.69 129.85 Z" class="st10"/>
				</g>
			</g>
		</g>
	</g>
</svg>
