<?xml version="1.0" encoding="UTF-8" standalone="no"?>
<!DOCTYPE svg PUBLIC "-//W3C//DTD SVG 1.1//EN" "http://www.w3.org/Graphics/SVG/1.1/DTD/svg11.dtd">
<!-- Generated by Microsoft Visio, SVG Export VPN Connectivity.svg Page-1 -->
<svg xmlns="http://www.w3.org/2000/svg" xmlns:xlink="http://www.w3.org/1999/xlink" xmlns:ev="http://www.w3.org/2001/xml-events"
		width="1.73185in" height="1.73206in" viewBox="0 0 124.693 124.709" xml:space="preserve" color-interpolation-filters="sRGB"
		class="st3">
	<style type="text/css">
	<![CDATA[
		.st1 {fill:url(#grad0-6);stroke:none;stroke-linecap:butt;stroke-width:34}
		.st2 {fill:#ffffff;stroke:none;stroke-linecap:butt;stroke-width:34}
		.st3 {fill:none;fill-rule:evenodd;font-size:12px;overflow:visible;stroke-linecap:square;stroke-miterlimit:3}
	]]>
	</style>

	<defs id="Patterns_And_Gradients">
		<linearGradient id="grad0-6" x1="0" y1="0" x2="1" y2="0" gradientTransform="rotate(-90 0.5 0.5)">
			<stop offset="0" stop-color="#32bedd" stop-opacity="1"/>
			<stop offset="0.225" stop-color="#32c9e9" stop-opacity="1"/>
			<stop offset="0.545" stop-color="#32d1f2" stop-opacity="1"/>
			<stop offset="1" stop-color="#32d4f5" stop-opacity="1"/>
		</linearGradient>
	</defs>
	<g>
		<title>Page-1</title>
		<g id="group178-1" transform="translate(34,-34.0157)">
			<title>VPN Connectivity</title>
			<g id="group179-2">
				<title> MsPortalFx.base.images-76</title>
				<g id="shape180-3">
					<title>Sheet.180</title>
					<path d="M56.69 99.55 L56.69 93.18 L55.69 92.84 L48.69 90.49 L47.02 86.13 L50.69 78.75 L46.02 74.05 L45.02 74.39
								 L38.68 77.74 L34.35 76.07 L31.35 68.02 L25.01 68.02 L24.68 69.02 L22.34 75.73 L18.01 77.74 L10.67
								 74.05 L6 78.75 L6.34 79.76 L9.67 86.13 L8 90.49 L0 93.51 L0 99.88 L1 100.22 L8 102.57 L9.67 106.93
								 L6 114.31 L10.67 119.01 L11.67 118.67 L18.01 115.32 L22.34 116.99 L25.35 124.71 L31.68 124.71 L32.01
								 123.7 L34.35 116.66 L38.68 114.98 L46.02 118.67 L50.69 113.97 L50.36 113.3 L47.02 106.93 L48.69
								 102.57 L56.69 99.55 Z" class="st1"/>
				</g>
				<g id="shape181-7" transform="translate(13.673,-13.083)">
					<title>Sheet.181</title>
					<path d="M25.68 101.23 L23.01 103.57 C26.68 107.6 26.35 113.97 22.01 117.66 C17.67 121.35 11.67 121.02 8 116.66
								 C4.67 112.97 4.67 107.26 8 103.57 L8.34 103.57 L10.34 105.25 L10.67 105.25 L10.67 104.92 L10 98.21
								 C10 97.87 9.67 97.87 9.34 97.87 L3 98.88 C3 98.88 2.67 98.88 2.67 99.21 L4.67 100.89 L4.67 101.23
								 C0 106.93 0.67 115.32 6.34 120.01 C12.01 124.71 20.34 124.04 25.01 118.33 C30.01 113.3 30.01 105.92
								 25.68 101.23 Z" class="st2"/>
				</g>
			</g>
		</g>
	</g>
</svg>
