<?xml version="1.0" encoding="UTF-8" standalone="no"?>
<!-- Generated by Microsoft Visio, SVG Export Watchlist.svg Page-1 -->

<svg
   xmlns:dc="http://purl.org/dc/elements/1.1/"
   xmlns:cc="http://creativecommons.org/ns#"
   xmlns:rdf="http://www.w3.org/1999/02/22-rdf-syntax-ns#"
   xmlns:svg="http://www.w3.org/2000/svg"
   xmlns="http://www.w3.org/2000/svg"
   xmlns:sodipodi="http://sodipodi.sourceforge.net/DTD/sodipodi-0.dtd"
   xmlns:inkscape="http://www.inkscape.org/namespaces/inkscape"
   width="0.78742725in"
   height="0.74814355in"
   viewBox="0 0 56.694839 53.866224"
   xml:space="preserve"
   class="st4"
   version="1.1"
   id="svg44"
   sodipodi:docname="Watchlist.svg"
   style="font-size:12px;overflow:visible;color-interpolation-filters:sRGB;fill:none;fill-rule:evenodd;stroke-linecap:square;stroke-miterlimit:3"
   inkscape:version="0.92.5 (2060ec1f9f, 2020-04-08)"><metadata
   id="metadata48"><rdf:RDF><cc:Work
       rdf:about=""><dc:format>image/svg+xml</dc:format><dc:type
         rdf:resource="http://purl.org/dc/dcmitype/StillImage" /></cc:Work></rdf:RDF></metadata><sodipodi:namedview
   pagecolor="#ffffff"
   bordercolor="#666666"
   borderopacity="1"
   objecttolerance="10"
   gridtolerance="10"
   guidetolerance="10"
   inkscape:pageopacity="0"
   inkscape:pageshadow="2"
   inkscape:window-width="640"
   inkscape:window-height="480"
   id="namedview46"
   showgrid="false"
   inkscape:zoom="1.8304109"
   inkscape:cx="37.795201"
   inkscape:cy="19.11781"
   inkscape:window-x="0"
   inkscape:window-y="0"
   inkscape:window-maximized="0"
   inkscape:current-layer="svg44" />
	<style
   type="text/css"
   id="style2">
	<![CDATA[
		.st1 {fill:#0078d4;stroke:none;stroke-linecap:butt;stroke-width:8.82541}
		.st2 {fill:url(#grad0-8);stroke:none;stroke-linecap:butt;stroke-width:8.82541}
		.st3 {fill:#ffffff;stroke:none;stroke-linecap:butt;stroke-width:8.82541}
		.st4 {fill:none;fill-rule:evenodd;font-size:12px;overflow:visible;stroke-linecap:square;stroke-miterlimit:3}
	]]>
	</style>

	<defs
   id="Patterns_And_Gradients">
		<linearGradient
   id="grad0-8"
   x1="0"
   y1="51.023215"
   x2="47.504183"
   y2="51.023215"
   gradientTransform="scale(1.0188578,0.98149123)"
   gradientUnits="userSpaceOnUse">
			<stop
   offset="0"
   stop-color="#32bedd"
   stop-opacity="1"
   id="stop4" />
			<stop
   offset="0.3"
   stop-color="#36c3e1"
   stop-opacity="1"
   id="stop6" />
			<stop
   offset="0.67"
   stop-color="#41d2ee"
   stop-opacity="1"
   id="stop8" />
			<stop
   offset="1"
   stop-color="#50e6ff"
   stop-opacity="1"
   id="stop10" />
		</linearGradient>
	</defs>
	<g
   id="g42"
   transform="translate(-8.82541,-8.8218343)">
		<title
   id="title14">Page-1</title>
		<g
   id="group188-1"
   transform="translate(8.82541,-34.0157)">
			<title
   id="title16">Watchlist</title>
			<g
   id="group189-2">
				<title
   id="title18">layer1</title>
				<g
   id="shape190-3"
   transform="translate(0,-7.13263)">
					<title
   id="title20">path1</title>
					<path
   d="M 43.03,96.7 H 5.15 A 5.1683,5.10994 0 0 1 0,91.65 V 55.02 a 5.234,5.1749 0 0 1 5.15,-5.05 h 37.88 a 5.1902,5.13159 0 0 1 5.15,5.05 v 36.53 a 5.2121,5.15324 0 0 1 -5.15,5.15 z"
   class="st1"
   id="path22"
   inkscape:connector-curvature="0"
   style="fill:#0078d4;stroke:none;stroke-width:8.82540989;stroke-linecap:butt" />
				</g>
				<g
   id="shape191-5"
   transform="translate(8.29483)">
					<title
   id="title25">path2</title>
					<path
   d="M 43.1,96.7 H 5.23 A 5.1683,5.10994 0 0 1 0,91.65 V 55.13 A 5.1683,5.10994 0 0 1 5.23,50.08 H 43.1 a 5.1902,5.13159 0 0 1 5.3,5.05 v 36.52 a 5.1026,5.04498 0 0 1 -5.3,5.05 z"
   class="st2"
   id="path27"
   inkscape:connector-curvature="0"
   style="fill:url(#grad0-8);stroke:none;stroke-width:8.82540989;stroke-linecap:butt" />
				</g>
				<g
   id="shape192-9"
   transform="translate(26.9352,-14.5137)">
					<title
   id="title30">path3</title>
					<path
   d="M 5.43,96.7 A 5.3216,5.26151 -180 1 0 0,91.39 5.234,5.1749 -180 0 0 5.43,96.7 Z"
   class="st3"
   id="path32"
   inkscape:connector-curvature="0"
   style="fill:#ffffff;stroke:none;stroke-width:8.82540989;stroke-linecap:butt" />
				</g>
				<g
   id="shape193-11"
   transform="translate(17.365,-19.8185)">
					<title
   id="title35">path4</title>
					<path
   d="M 1.73,96.7 A 1.99286,1.97036 -180 0 0 3.57,95.53 12.3733,12.2335 0 0 1 15,88.3 12.5923,12.4501 0 0 1 26.43,95.53 1.92716,1.9054 -180 0 0 28.29,96.7 2.01476,1.99201 -180 0 0 30.05,94.04 16.2714,16.0877 -180 0 0 15.02,84.47 16.4685,16.2825 -180 0 0 0,94.04 1.83957,1.81879 -180 0 0 1.73,96.7 Z"
   class="st3"
   id="path37"
   inkscape:connector-curvature="0"
   style="fill:#ffffff;stroke:none;stroke-width:8.82540989;stroke-linecap:butt" />
				</g>
			</g>
		</g>
	</g>
</svg>