<?xml version="1.0" encoding="UTF-8" standalone="no"?>
<!-- Generated by Microsoft Visio, SVG Export WEB Server.svg Page-1 -->

<svg
   xmlns:dc="http://purl.org/dc/elements/1.1/"
   xmlns:cc="http://creativecommons.org/ns#"
   xmlns:rdf="http://www.w3.org/1999/02/22-rdf-syntax-ns#"
   xmlns:svg="http://www.w3.org/2000/svg"
   xmlns="http://www.w3.org/2000/svg"
   xmlns:sodipodi="http://sodipodi.sourceforge.net/DTD/sodipodi-0.dtd"
   xmlns:inkscape="http://www.inkscape.org/namespaces/inkscape"
   width="0.66929442in"
   height="0.78741884in"
   viewBox="0 0 48.189232 56.694227"
   xml:space="preserve"
   class="st7"
   version="1.1"
   id="svg163"
   sodipodi:docname="WEB Server.svg"
   style="font-size:12px;overflow:visible;color-interpolation-filters:sRGB;fill:none;fill-rule:evenodd;stroke-linecap:square;stroke-miterlimit:3"
   inkscape:version="0.92.5 (2060ec1f9f, 2020-04-08)"><metadata
   id="metadata167"><rdf:RDF><cc:Work
       rdf:about=""><dc:format>image/svg+xml</dc:format><dc:type
         rdf:resource="http://purl.org/dc/dcmitype/StillImage" /></cc:Work></rdf:RDF></metadata><sodipodi:namedview
   pagecolor="#ffffff"
   bordercolor="#666666"
   borderopacity="1"
   objecttolerance="10"
   gridtolerance="10"
   guidetolerance="10"
   inkscape:pageopacity="0"
   inkscape:pageshadow="2"
   inkscape:window-width="640"
   inkscape:window-height="480"
   id="namedview165"
   showgrid="false"
   inkscape:zoom="1.3818858"
   inkscape:cx="31.775247"
   inkscape:cy="38.146123"
   inkscape:window-x="0"
   inkscape:window-y="0"
   inkscape:window-maximized="0"
   inkscape:current-layer="svg163" />
	<style
   type="text/css"
   id="style2">
	<![CDATA[
		.st1 {fill:url(#grad0-11);stroke:none;stroke-linecap:butt;stroke-width:35.9595}
		.st2 {fill:#003067;stroke:none;stroke-linecap:butt;stroke-width:35.9595}
		.st3 {fill:#50e6ff;stroke:none;stroke-linecap:butt;stroke-width:35.9595}
		.st4 {fill:url(#grad7-31);stroke:none;stroke-linecap:butt;stroke-width:35.4332}
		.st5 {fill:#83b9f9;stroke:none;stroke-linecap:butt;stroke-width:35.4332}
		.st6 {fill:#f2f2f2;stroke:none;stroke-linecap:butt;stroke-width:35.4332}
		.st7 {fill:none;fill-rule:evenodd;font-size:12px;overflow:visible;stroke-linecap:square;stroke-miterlimit:3}
	]]>
	</style>

	<defs
   id="Patterns_And_Gradients">
		<linearGradient
   id="grad0-11"
   x1="-0.00031589965"
   y1="56.894264"
   x2="41.546724"
   y2="56.894264"
   gradientTransform="scale(0.76853231,1.3011815)"
   gradientUnits="userSpaceOnUse">
			<stop
   offset="0"
   stop-color="#949494"
   stop-opacity="1"
   id="stop4" />
			<stop
   offset="0.53"
   stop-color="#a2a2a2"
   stop-opacity="1"
   id="stop6" />
			<stop
   offset="1"
   stop-color="#b3b3b3"
   stop-opacity="1"
   id="stop8" />
		</linearGradient>
		<radialGradient
   id="grad7-31"
   cx="0"
   cy="97.073277"
   r="45.384181"
   gradientTransform="scale(1.0109672,0.98915174)"
   fx="0"
   fy="97.073277"
   gradientUnits="userSpaceOnUse">
			<stop
   offset="0.185"
   stop-color="#5ea0ef"
   stop-opacity="1"
   id="stop11" />
			<stop
   offset="1"
   stop-color="#0078d4"
   stop-opacity="1"
   id="stop13" />
		</radialGradient>
	</defs>
	<g
   id="g161"
   transform="translate(-35.959557,-35.958392)">
		<title
   id="title17">Page-1</title>
		<g
   id="group61-1"
   transform="translate(35.9598,-35.4332)">
			<title
   id="title19">WEB Server</title>
			<g
   id="group62-2">
				<title
   id="title21">Page-1</title>
				<g
   id="group63-3">
					<title
   id="title23">Sheet.63</title>
					<g
   id="group64-4"
   transform="translate(0,-2.63817)">
						<title
   id="title25">Sheet.64</title>
						<g
   id="group65-5">
							<title
   id="title27">Icon-databases-136.149</title>
							<g
   id="group66-6">
								<title
   id="title29">path4-5</title>
								<g
   id="group67-7">
									<title
   id="title31">Sheet.67</title>
									<g
   id="shape68-8">
										<title
   id="title33">Sheet.68</title>
										<path
   d="m 31.93,126.25 a 1.88574,1.87534 -180 0 1 -1.85,1.84 H 1.85 A 1.85323,1.843 -180 0 1 0,126.25 V 75.87 a 1.82071,1.81067 -180 0 1 1.85,-1.84 h 28.23 a 1.85323,1.843 -180 0 1 1.85,1.84 z"
   class="st1"
   id="path35"
   inkscape:connector-curvature="0"
   style="fill:url(#grad0-11);stroke:none;stroke-width:35.95949936;stroke-linecap:butt" />
									</g>
								</g>
							</g>
							<g
   id="group69-12"
   transform="translate(4.68184,-31.6543)">
								<title
   id="title40">path6-7</title>
								<g
   id="group70-13">
									<title
   id="title42">Sheet.70</title>
									<g
   id="shape71-14">
										<title
   id="title44">Sheet.71</title>
										<path
   d="m 0,124.63 a 3.47886,3.45967 -180 0 1 3.45,-3.43 h 15.93 a 3.47886,3.45967 -180 0 1 3.57,3.43 3.47886,3.45967 -180 0 1 -3.57,3.46 H 3.45 A 3.47886,3.45967 -180 0 1 0,124.63 Z m 0,-10.22 a 3.47886,3.45967 -180 0 1 3.45,-3.45 h 15.93 a 3.47886,3.45967 -180 0 1 3.57,3.45 3.47886,3.45967 -180 0 1 -3.57,3.44 H 3.45 A 3.47886,3.45967 -180 0 1 0,114.41 Z"
   class="st2"
   id="path46"
   inkscape:connector-curvature="0"
   style="fill:#003067;stroke:none;stroke-width:35.95949936;stroke-linecap:butt" />
									</g>
								</g>
							</g>
							<g
   id="group72-16"
   transform="translate(5.98234,-42.9999)">
								<title
   id="title51">circle8-5</title>
								<g
   id="group73-17">
									<title
   id="title53">Sheet.73</title>
									<g
   id="shape74-18">
										<title
   id="title55">Sheet.74</title>
										<ellipse
   cx="2.34091"
   cy="125.758"
   rx="2.34091"
   ry="2.3280101"
   class="st3"
   id="ellipse57"
   style="fill:#50e6ff;stroke:none;stroke-width:35.95949936;stroke-linecap:butt" />
									</g>
								</g>
							</g>
							<g
   id="group75-20"
   transform="translate(5.98234,-32.7826)">
								<title
   id="title62">circle10-2</title>
								<g
   id="group76-21">
									<title
   id="title64">Sheet.76</title>
									<g
   id="shape77-22">
										<title
   id="title66">Sheet.77</title>
										<ellipse
   cx="2.34091"
   cy="125.758"
   rx="2.34091"
   ry="2.3280101"
   class="st3"
   id="ellipse68"
   style="fill:#50e6ff;stroke:none;stroke-width:35.95949936;stroke-linecap:butt" />
									</g>
								</g>
							</g>
						</g>
					</g>
					<g
   id="group78-24"
   transform="translate(15.4162)">
						<title
   id="title75">Application Service.568</title>
						<g
   id="group79-25">
							<title
   id="title77">g22</title>
							<g
   id="group80-26">
								<title
   id="title79">path59</title>
								<g
   id="group81-27">
									<title
   id="title81">Sheet.81</title>
									<g
   id="shape82-28">
										<title
   id="title83">Sheet.82</title>
										<ellipse
   cx="16.3864"
   cy="112.053"
   rx="16.3864"
   ry="16.032801"
   class="st4"
   id="ellipse85"
   style="fill:url(#grad7-31);stroke:none;stroke-width:35.43320084;stroke-linecap:butt" />
									</g>
								</g>
							</g>
							<g
   id="group83-32"
   transform="translate(2.28239,-4.97826)">
								<title
   id="title90">path4-3</title>
								<g
   id="group84-33">
									<title
   id="title92">Sheet.84</title>
									<g
   id="shape85-34">
										<title
   id="title94">Sheet.85</title>
										<path
   d="m 1.6,120.18 c -0.67,1.6 -1.19,3.32 -1.6,5 0.36,0.6 0.75,1.12 1.19,1.68 0.33,0.42 0.68,0.84 1.05,1.23 0.48,-2.24 1.18,-4.45 2.1,-6.55 C 3.3,121.36 2.35,120.9 1.6,120.18 Z m 1.88,-8.53 c -0.69,-1.79 -1.13,-3.66 -1.34,-5.56 -0.8,0.83 -1.49,1.71 -2.09,2.7 0.22,1.51 0.59,3.07 1.09,4.52 0.6,-0.77 1.41,-1.33 2.34,-1.66 z"
   class="st5"
   id="path96"
   inkscape:connector-curvature="0"
   style="fill:#83b9f9;stroke:none;stroke-width:35.43320084;stroke-linecap:butt" />
									</g>
								</g>
							</g>
							<g
   id="group86-36"
   transform="translate(8.50013,-4.28045)">
								<title
   id="title101">path8-3</title>
								<g
   id="group87-37">
									<title
   id="title103">Sheet.87</title>
									<g
   id="shape88-38">
										<title
   id="title105">Sheet.88</title>
										<path
   d="m 6.69,125.18 c 0,-0.91 0.37,-1.77 1.04,-2.4 -1.78,-0.95 -3.4,-2.12 -4.86,-3.49 -0.77,0.81 -1.77,1.34 -2.87,1.55 0.86,0.88 1.79,1.7 2.78,2.42 1.23,0.9 2.55,1.7 3.94,2.35 -0.02,-0.15 -0.03,-0.29 -0.03,-0.43 z m 12.1,0.4 c -1.78,0 -3.55,-0.21 -5.28,-0.61 0,0.07 0.01,0.13 0.01,0.21 0,0.87 -0.35,1.7 -0.98,2.33 2.15,0.42 4.41,0.58 6.6,0.47 0.82,-0.76 1.57,-1.64 2.23,-2.55 -0.84,0.09 -1.73,0.15 -2.57,0.15 z"
   class="st5"
   id="path107"
   inkscape:connector-curvature="0"
   style="fill:#83b9f9;stroke:none;stroke-width:35.43320084;stroke-linecap:butt" />
									</g>
								</g>
							</g>
							<g
   id="group89-40"
   transform="translate(9.38453,-16.1194)">
								<title
   id="title112">path12-4</title>
								<g
   id="group90-41">
									<title
   id="title114">Sheet.90</title>
									<g
   id="shape91-42">
										<title
   id="title116">Sheet.91</title>
										<path
   d="m 8.29,120.9 c 3.55,-1.76 7.53,-2.72 11.49,-2.77 -0.83,-1.02 -1.79,-1.92 -2.85,-2.72 -3.1,0.2 -6.23,0.94 -9.09,2.12 -0.63,0.27 -1.24,0.57 -1.85,0.89 -1.46,-1.7 -2.82,-3.58 -3.89,-5.53 -0.71,0.22 -1.35,0.45 -2.02,0.76 1.11,2.07 2.46,4.09 3.99,5.88 -1.48,0.96 -2.85,2.05 -4.07,3.3 1.08,0.39 1.98,1.12 2.59,2.07 1.12,-1.09 2.37,-2.06 3.7,-2.89 2.19,2.23 4.57,4.26 7.11,6.08 0.18,-0.73 0.59,-1.37 1.18,-1.85 -2.25,-1.62 -4.35,-3.4 -6.29,-5.34 z"
   class="st5"
   id="path118"
   inkscape:connector-curvature="0"
   style="fill:#83b9f9;stroke:none;stroke-width:35.43320084;stroke-linecap:butt" />
									</g>
								</g>
							</g>
							<g
   id="group92-44"
   transform="translate(22.7503,-11.9252)">
								<title
   id="title123">circle14-8</title>
								<g
   id="group93-45">
									<title
   id="title125">Sheet.93</title>
									<g
   id="shape94-46">
										<title
   id="title127">Sheet.94</title>
										<ellipse
   cx="3.6240499"
   cy="124.54"
   rx="3.6240499"
   ry="3.54585"
   class="st6"
   id="ellipse129"
   style="fill:#f2f2f2;stroke:none;stroke-width:35.43320084;stroke-linecap:butt" />
									</g>
								</g>
							</g>
							<g
   id="group95-48"
   transform="translate(2.27477,-11.4356)">
								<title
   id="title134">circle18-3</title>
								<g
   id="group96-49">
									<title
   id="title136">Sheet.96</title>
									<g
   id="shape97-50">
										<title
   id="title138">Sheet.97</title>
										<ellipse
   cx="5.25246"
   cy="122.947"
   rx="5.25246"
   ry="5.1391401"
   class="st6"
   id="ellipse140"
   style="fill:#f2f2f2;stroke:none;stroke-width:35.43320084;stroke-linecap:butt" />
									</g>
								</g>
							</g>
							<g
   id="group98-52"
   transform="translate(15.1849,-3.8515)">
								<title
   id="title145">circle20-2</title>
								<g
   id="group99-53">
									<title
   id="title147">Sheet.99</title>
									<g
   id="shape100-54">
										<title
   id="title149">Sheet.100</title>
										<ellipse
   cx="3.41257"
   cy="124.747"
   rx="3.41257"
   ry="3.3389299"
   class="st6"
   id="ellipse151"
   style="fill:#f2f2f2;stroke:none;stroke-width:35.43320084;stroke-linecap:butt" />
									</g>
								</g>
							</g>
						</g>
					</g>
				</g>
			</g>
		</g>
	</g>
</svg>