<?xml version="1.0" encoding="UTF-8" standalone="no"?>
<!DOCTYPE svg PUBLIC "-//W3C//DTD SVG 1.1//EN" "http://www.w3.org/Graphics/SVG/1.1/DTD/svg11.dtd">
<!-- Generated by Microsoft Visio, SVG Export Web Hook.svg Page-1 -->
<svg xmlns="http://www.w3.org/2000/svg" xmlns:xlink="http://www.w3.org/1999/xlink" xmlns:ev="http://www.w3.org/2001/xml-events"
		width="1.5748in" height="1.86326in" viewBox="0 0 113.386 134.154" xml:space="preserve" color-interpolation-filters="sRGB"
		class="st4">
	<style type="text/css">
	<![CDATA[
		.st1 {fill:#c73a63;stroke:none;stroke-linecap:butt;stroke-width:12.24}
		.st2 {fill:#4b4b4b;stroke:none;stroke-linecap:butt;stroke-width:12.24}
		.st3 {fill:#4a4a4a;stroke:none;stroke-linecap:butt;stroke-width:12.24}
		.st4 {fill:none;fill-rule:evenodd;font-size:12px;overflow:visible;stroke-linecap:square;stroke-miterlimit:3}
	]]>
	</style>

	<g>
		<title>Page-1</title>
		<g id="group96-1" transform="translate(28.3465,-69.3071)">
			<title>Web Hook</title>
			<g id="group97-2">
				<title>Sheet.97</title>
				<g id="shape98-3" transform="translate(7.74525,-8.59388)">
					<title>Sheet.98</title>
					<path d="M18.38 111.64 C16.1 115.49 13.91 119.22 11.68 122.92 C11.11 123.87 10.83 124.65 11.28 125.85 C12.55
								 129.19 10.77 132.44 7.42 133.32 C4.26 134.15 1.18 132.07 0.55 128.67 C0 125.66 2.32 122.71 5.62
								 122.24 C5.9 122.2 6.18 122.2 6.64 122.16 L11.67 113.7 C8.51 110.55 6.63 106.86 7.04 102.29 C7.34
								 99.06 8.6 96.27 10.91 93.98 C15.34 89.6 22.09 88.89 27.29 92.25 C32.3 95.48 34.59 101.78 32.64 107.16
								 L28.05 105.91 C28.66 102.92 28.21 100.23 26.2 97.92 C24.87 96.4 23.17 95.61 21.23 95.31 C17.35 94.72
								 13.54 97.23 12.41 101.06 C11.12 105.41 13.07 108.96 18.38 111.64 Z" class="st1"/>
				</g>
				<g id="shape99-5" transform="translate(22.3424,-2.55795E-13)">
					<title>Sheet.99</title>
					<path d="M10.29 98.49 L15.14 107.09 C23.31 104.55 29.47 109.1 31.68 113.96 C34.35 119.84 32.53 126.8 27.28 130.43
								 C21.9 134.15 15.1 133.52 10.33 128.73 L14.07 125.59 C18.78 128.65 22.9 128.51 25.96 124.88 C28.56
								 121.78 28.51 117.17 25.82 114.14 C22.73 110.64 18.58 110.53 13.57 113.89 C11.49 110.18 9.37 106.5
								 7.36 102.77 C6.68 101.51 5.93 100.78 4.4 100.51 C1.85 100.07 0.2 97.86 0.1 95.39 C0 92.95 1.43 90.74
								 3.67 89.88 C5.89 89.02 8.49 89.71 9.98 91.61 C11.2 93.16 11.59 94.9 10.95 96.81 C10.77 97.34 10.54
								 97.86 10.29 98.49 Z" class="st2"/>
				</g>
				<g id="shape100-7" transform="translate(0,-1.25713)">
					<title>Sheet.100</title>
					<path d="M36.47 123.03 L26.64 123.03 C25.69 126.92 23.66 130.07 20.15 132.07 C17.42 133.63 14.48 134.15 11.35
								 133.65 C5.59 132.71 0.88 127.5 0.47 121.63 C0 114.98 4.55 109.07 10.61 107.74 L11.87 112.34 C6.31
								 115.19 4.38 118.78 5.94 123.27 C7.31 127.23 11.2 129.39 15.42 128.56 C19.74 127.7 21.91 124.1 21.65
								 118.31 C25.74 118.31 29.83 118.27 33.92 118.33 C35.52 118.36 36.75 118.19 37.96 116.78 C39.94 114.45
								 43.58 114.66 45.72 116.86 C47.9 119.1 47.79 122.72 45.49 124.88 C43.26 126.95 39.74 126.84 37.66
								 124.6 C37.23 124.14 36.89 123.59 36.47 123.03 L36.47 123.03 Z" class="st3"/>
				</g>
			</g>
		</g>
	</g>
</svg>
