<?xml version="1.0" encoding="UTF-8" standalone="no"?>
<!-- Generated by Microsoft Visio, SVG Export Web PubSub Service Replica.svg Page-1 -->

<svg
   xmlns:dc="http://purl.org/dc/elements/1.1/"
   xmlns:cc="http://creativecommons.org/ns#"
   xmlns:rdf="http://www.w3.org/1999/02/22-rdf-syntax-ns#"
   xmlns:svg="http://www.w3.org/2000/svg"
   xmlns="http://www.w3.org/2000/svg"
   xmlns:sodipodi="http://sodipodi.sourceforge.net/DTD/sodipodi-0.dtd"
   xmlns:inkscape="http://www.inkscape.org/namespaces/inkscape"
   width="56.693501"
   height="53.861324"
   viewBox="0 0 56.6935 53.861325"
   xml:space="preserve"
   class="st9"
   version="1.1"
   id="svg124"
   sodipodi:docname="Web PubSub Service Replica.svg"
   style="font-size:12px;overflow:visible;color-interpolation-filters:sRGB;fill:none;fill-rule:evenodd;stroke-linecap:square;stroke-miterlimit:3"
   inkscape:version="0.92.5 (2060ec1f9f, 2020-04-08)"><metadata
   id="metadata128"><rdf:RDF><cc:Work
       rdf:about=""><dc:format>image/svg+xml</dc:format><dc:type
         rdf:resource="http://purl.org/dc/dcmitype/StillImage" /></cc:Work></rdf:RDF></metadata><sodipodi:namedview
   pagecolor="#ffffff"
   bordercolor="#666666"
   borderopacity="1"
   objecttolerance="10"
   gridtolerance="10"
   guidetolerance="10"
   inkscape:pageopacity="0"
   inkscape:pageshadow="2"
   inkscape:window-width="640"
   inkscape:window-height="480"
   id="namedview126"
   showgrid="false"
   inkscape:zoom="1.9363626"
   inkscape:cx="28.3465"
   inkscape:cy="26.925301"
   inkscape:window-x="0"
   inkscape:window-y="0"
   inkscape:window-maximized="0"
   inkscape:current-layer="svg124" />
	<style
   type="text/css"
   id="style2">
	<![CDATA[
		.st1 {fill:url(#grad0-5);stroke:none;stroke-linecap:butt;stroke-width:34}
		.st2 {fill:#ffffff;stroke:none;stroke-linecap:butt;stroke-width:34}
		.st3 {fill:#0078d7;stroke:none;stroke-linecap:butt;stroke-width:34}
		.st4 {fill:#ffffff;fill-opacity:0.8;stroke:none;stroke-linecap:butt;stroke-width:34}
		.st5 {fill:url(#grad0-21);stroke:none;stroke-linecap:butt;stroke-width:34}
		.st6 {fill:url(#grad0-25);stroke:none;stroke-linecap:butt;stroke-width:34}
		.st7 {fill:url(#grad0-29);stroke:none;stroke-linecap:butt;stroke-width:34}
		.st8 {fill:url(#grad0-33);stroke:none;stroke-linecap:butt;stroke-width:34}
		.st9 {fill:none;fill-rule:evenodd;font-size:12px;overflow:visible;stroke-linecap:square;stroke-miterlimit:3}
	]]>
	</style>

	<defs
   id="Patterns_And_Gradients">
		<linearGradient
   id="grad0-5"
   x1="-3.8550006e-15"
   y1="106.08187"
   x2="34.262682"
   y2="106.08187"
   gradientTransform="scale(1.1519822,0.86806896)"
   gradientUnits="userSpaceOnUse">
			<stop
   offset="0"
   stop-color="#198ab3"
   stop-opacity="1"
   id="stop4" />
			<stop
   offset="0.13"
   stop-color="#21a0c7"
   stop-opacity="1"
   id="stop6" />
			<stop
   offset="0.31"
   stop-color="#28b7db"
   stop-opacity="1"
   id="stop8" />
			<stop
   offset="0.5"
   stop-color="#2ec7ea"
   stop-opacity="1"
   id="stop10" />
			<stop
   offset="0.72"
   stop-color="#31d1f2"
   stop-opacity="1"
   id="stop12" />
			<stop
   offset="1"
   stop-color="#32d4f5"
   stop-opacity="1"
   id="stop14" />
		</linearGradient>
		<linearGradient
   id="grad0-21"
   x1="-0.00093370086"
   y1="109.55663"
   x2="12.989812"
   y2="109.55663"
   gradientTransform="scale(1.0054756,0.99455418)"
   gradientUnits="userSpaceOnUse">
			<stop
   offset="0"
   stop-color="#cccccc"
   stop-opacity="1"
   id="stop17" />
			<stop
   offset="0.12"
   stop-color="#d7d7d7"
   stop-opacity="1"
   id="stop19" />
			<stop
   offset="0.42"
   stop-color="#ebebeb"
   stop-opacity="1"
   id="stop21" />
			<stop
   offset="0.72"
   stop-color="#f8f8f8"
   stop-opacity="1"
   id="stop23" />
			<stop
   offset="1"
   stop-color="#fcfcfc"
   stop-opacity="1"
   id="stop25" />
		</linearGradient>
		<linearGradient
   id="grad0-25"
   x1="-0.11691615"
   y1="114.75499"
   x2="7.675524"
   y2="114.75499"
   gradientTransform="scale(1.0054762,0.99455367)"
   gradientUnits="userSpaceOnUse">
			<stop
   offset="0"
   stop-color="#cccccc"
   stop-opacity="1"
   id="stop28" />
			<stop
   offset="0.12"
   stop-color="#d7d7d7"
   stop-opacity="1"
   id="stop30" />
			<stop
   offset="0.42"
   stop-color="#ebebeb"
   stop-opacity="1"
   id="stop32" />
			<stop
   offset="0.72"
   stop-color="#f8f8f8"
   stop-opacity="1"
   id="stop34" />
			<stop
   offset="1"
   stop-color="#fcfcfc"
   stop-opacity="1"
   id="stop36" />
		</linearGradient>
		<linearGradient
   id="grad0-29"
   x1="0.0024302913"
   y1="114.75499"
   x2="7.7948705"
   y2="114.75499"
   gradientTransform="scale(1.0054762,0.99455367)"
   gradientUnits="userSpaceOnUse">
			<stop
   offset="0"
   stop-color="#cccccc"
   stop-opacity="1"
   id="stop39" />
			<stop
   offset="0.12"
   stop-color="#d7d7d7"
   stop-opacity="1"
   id="stop41" />
			<stop
   offset="0.42"
   stop-color="#ebebeb"
   stop-opacity="1"
   id="stop43" />
			<stop
   offset="0.72"
   stop-color="#f8f8f8"
   stop-opacity="1"
   id="stop45" />
			<stop
   offset="1"
   stop-color="#fcfcfc"
   stop-opacity="1"
   id="stop47" />
		</linearGradient>
		<linearGradient
   id="grad0-33"
   x1="0.0024302913"
   y1="114.75499"
   x2="7.7948705"
   y2="114.75499"
   gradientTransform="scale(1.0054762,0.99455367)"
   gradientUnits="userSpaceOnUse">
			<stop
   offset="0"
   stop-color="#cccccc"
   stop-opacity="1"
   id="stop50" />
			<stop
   offset="0.12"
   stop-color="#d7d7d7"
   stop-opacity="1"
   id="stop52" />
			<stop
   offset="0.42"
   stop-color="#ebebeb"
   stop-opacity="1"
   id="stop54" />
			<stop
   offset="0.72"
   stop-color="#f8f8f8"
   stop-opacity="1"
   id="stop56" />
			<stop
   offset="1"
   stop-color="#fcfcfc"
   stop-opacity="1"
   id="stop58" />
		</linearGradient>
	</defs>
	<g
   id="g122"
   transform="translate(-34,-34.002976)">
		<title
   id="title62">Page-1</title>
		<g
   id="group105-1"
   transform="translate(34,-34.0157)">
			<title
   id="title64">Web PubSub Service Replica</title>
			<g
   id="shape106-2"
   transform="translate(17.2235,-24.0677)">
				<title
   id="title66">path4</title>
				<path
   d="m 39.47,112.43 a 9.8132,9.70661 -180 0 0 -2.26,-6.04 8.72324,8.62849 -180 0 0 -5.44,-3.04 12.2523,12.1192 -180 0 0 -3.55,-8.11 10.7931,10.6759 -180 0 0 -7.94,-3.15 10.9955,10.876 -180 0 0 -6.69,2.13 12.1706,12.0384 -180 0 0 -4.28,5.83 10.3671,10.2545 -180 0 0 -6.55,3.55 11.67,11.5433 -180 0 0 -2.76,7.2 c 0.04,1.5 0.36,2.97 0.93,4.33 0.58,1.37 1.41,2.6 2.45,3.62 1.03,1.03 2.25,1.83 3.58,2.36 1.32,0.52 2.74,0.77 4.16,0.71 h 19.45 a 8.72679,8.632 -180 0 0 6.27,-2.77 9.90551,9.79792 -180 0 0 2.63,-6.62 z"
   class="st1"
   id="path68"
   inkscape:connector-curvature="0"
   style="fill:url(#grad0-5);stroke:none;stroke-width:34;stroke-linecap:butt" />
			</g>
			<g
   id="shape107-6"
   transform="translate(26.6213,-29.6936)">
				<title
   id="title71">path6</title>
				<path
   d="m 20.38,108.82 -5.31,-5.2 C 14.49,103.03 14,103.24 14,104.14 v 2.35 a 0.660367,0.653195 0 0 1 -0.415392,0.60403 0.628414,0.621588 0 0 1 -0.252076,0.0386 C 9.9,107.13 0.35,108.03 0,121.21 c 0,0.17 0.07,0.35 0.2,0.47 a 0.660367,0.653195 -180 0 0 0.472198,0.19666 L 4.07,121.88 A 0.656817,0.649683 -180 0 0 4.5635,121.66227 0.68167,0.674265 -180 0 0 4.737468,121.14955 8.31495,8.22463 0 0 1 6.61,114.02 c 0.85,-0.95 1.91,-1.68 3.1,-2.14 1.19,-0.46 2.47,-0.62 3.73,-0.48 0.18,0 0.35,0.07 0.47,0.2 a 0.68522,0.677777 0 0 1 0.19882,0.47409 L 14.11,114.24 c 0,1.08 0.35,1.26 1.07,0.53 l 5.2,-4.83 a 0.674569,0.667242 -180 0 0 0.29113,-0.55486 0.692321,0.684801 -180 0 0 -0.29113,-0.55838 z"
   class="st2"
   id="path73"
   inkscape:connector-curvature="0"
   style="fill:#ffffff;stroke:none;stroke-width:34;stroke-linecap:butt" />
			</g>
			<g
   id="shape108-8">
				<title
   id="title76">path8</title>
				<path
   d="M 0,85.73 C 0,84.3 1.17,83.15 2.61,83.15 h 33.94 c 1.44,0 2.61,1.15 2.61,2.58 v 33.57 a 2.60952,2.58117 0 0 1 -2.61,2.58 H 2.61 A 2.60952,2.58117 0 0 1 0,119.3 Z"
   class="st3"
   id="path78"
   inkscape:connector-curvature="0"
   style="fill:#0078d7;stroke:none;stroke-width:34;stroke-linecap:butt" />
			</g>
			<g
   id="shape109-10">
				<title
   id="title81">path10</title>
				<path
   d="M 20.88,101.22 V 83.15 h -2.61 v 18.07 H 0 v 2.58 h 18.27 v 18.08 h 2.61 V 103.8 h 18.28 v -2.58 z"
   class="st4"
   id="path83"
   inkscape:connector-curvature="0"
   style="fill:#ffffff;fill-opacity:0.8;stroke:none;stroke-width:34;stroke-linecap:butt" />
			</g>
			<g
   id="shape110-12"
   transform="translate(7.8321,-7.74352)">
				<title
   id="title86">path12</title>
				<rect
   x="0"
   y="98.636497"
   width="2.60952"
   height="23.2411"
   class="st2"
   id="rect88"
   style="fill:#ffffff;stroke:none;stroke-width:34;stroke-linecap:butt" />
			</g>
			<g
   id="shape111-14"
   transform="translate(8.7694,-9.80494)">
				<title
   id="title91">path14</title>
				<path
   d="m 0,102.51 1.85,-1.82 19.57,19.36 -1.84,1.83 z"
   class="st2"
   id="path93"
   inkscape:connector-curvature="0"
   style="fill:#ffffff;stroke:none;stroke-width:34;stroke-linecap:butt" />
			</g>
			<g
   id="shape112-16"
   transform="translate(10.4381,-28.4034)">
				<title
   id="title96">path16</title>
				<path
   d="M 20.89,121.88 H 0 v -2.58 h 20.88 v 2.58 z"
   class="st2"
   id="path98"
   inkscape:connector-curvature="0"
   style="fill:#ffffff;stroke:none;stroke-width:34;stroke-linecap:butt" />
			</g>
			<g
   id="shape113-18"
   transform="translate(2.61129,-23.2376)">
				<title
   id="title101">path18</title>
				<path
   d="m 6.53,121.88 a 6.5309391,6.46 -180 1 0 0,-12.92 6.5309391,6.46 -180 0 0 0,12.92 z"
   class="st5"
   id="path103"
   inkscape:connector-curvature="0"
   style="fill:url(#grad0-21);stroke:none;stroke-width:34;stroke-linecap:butt" />
			</g>
			<g
   id="shape114-22"
   transform="translate(26.2237,-25.8223)">
				<title
   id="title106">path20</title>
				<path
   d="m 3.8,121.88 a 3.9175564,3.875 -180 1 0 0,-7.75 3.9175564,3.875 -180 0 0 0,7.75 z"
   class="st6"
   id="path108"
   inkscape:connector-curvature="0"
   style="fill:url(#grad0-25);stroke:none;stroke-width:34;stroke-linecap:butt" />
			</g>
			<g
   id="shape115-26"
   transform="translate(5.22258,-5.16234)">
				<title
   id="title111">path22</title>
				<path
   d="m 3.92,121.88 a 3.9175564,3.875 -180 1 0 0,-7.75 3.9175564,3.875 -180 0 0 0,7.75 z"
   class="st7"
   id="path113"
   inkscape:connector-curvature="0"
   style="fill:url(#grad0-29);stroke:none;stroke-width:34;stroke-linecap:butt" />
			</g>
			<g
   id="shape116-30"
   transform="translate(26.1058,-5.16234)">
				<title
   id="title116">path24</title>
				<path
   d="m 3.92,121.88 a 3.9175564,3.875 -180 1 0 0,-7.75 3.9175564,3.875 -180 0 0 0,7.75 z"
   class="st8"
   id="path118"
   inkscape:connector-curvature="0"
   style="fill:url(#grad0-33);stroke:none;stroke-width:34;stroke-linecap:butt" />
			</g>
		</g>
	</g>
</svg>