<?xml version="1.0" encoding="UTF-8" standalone="no"?>
<!-- Generated by Microsoft Visio, SVG Export Windows Admin Center.svg Page-1 -->

<svg
   xmlns:dc="http://purl.org/dc/elements/1.1/"
   xmlns:cc="http://creativecommons.org/ns#"
   xmlns:rdf="http://www.w3.org/1999/02/22-rdf-syntax-ns#"
   xmlns:svg="http://www.w3.org/2000/svg"
   xmlns="http://www.w3.org/2000/svg"
   xmlns:sodipodi="http://sodipodi.sourceforge.net/DTD/sodipodi-0.dtd"
   xmlns:inkscape="http://www.inkscape.org/namespaces/inkscape"
   width="0.74806064in"
   height="0.78747392in"
   viewBox="0 0 53.860335 56.698263"
   xml:space="preserve"
   class="st7"
   version="1.1"
   id="svg108"
   sodipodi:docname="Windows Admin Center.svg"
   style="font-size:12px;overflow:visible;color-interpolation-filters:sRGB;fill:none;fill-rule:evenodd;stroke-linecap:square;stroke-miterlimit:3"
   inkscape:version="0.92.5 (2060ec1f9f, 2020-04-08)"><metadata
   id="metadata112"><rdf:RDF><cc:Work
       rdf:about=""><dc:format>image/svg+xml</dc:format><dc:type
         rdf:resource="http://purl.org/dc/dcmitype/StillImage" /></cc:Work></rdf:RDF></metadata><sodipodi:namedview
   pagecolor="#ffffff"
   bordercolor="#666666"
   borderopacity="1"
   objecttolerance="10"
   gridtolerance="10"
   guidetolerance="10"
   inkscape:pageopacity="0"
   inkscape:pageshadow="2"
   inkscape:window-width="640"
   inkscape:window-height="480"
   id="namedview110"
   showgrid="false"
   inkscape:zoom="1.8365233"
   inkscape:cx="35.905404"
   inkscape:cy="18.900351"
   inkscape:window-x="0"
   inkscape:window-y="0"
   inkscape:window-maximized="0"
   inkscape:current-layer="svg108" />
	<style
   type="text/css"
   id="style2">
	<![CDATA[
		.st1 {fill:url(#grad0-9);stroke:none;stroke-linecap:butt;stroke-width:0.749999}
		.st2 {fill:#003067;stroke:none;stroke-linecap:butt;stroke-width:0.749999}
		.st3 {fill:#50e6ff;stroke:none;stroke-linecap:butt;stroke-width:0.749999}
		.st4 {fill:url(#grad0-26);stroke:none;stroke-linecap:butt;stroke-width:0.749999}
		.st5 {fill:url(#grad0-31);stroke:none;stroke-linecap:butt;stroke-width:0.749999}
		.st6 {fill:#ffffff;stroke:none;stroke-linecap:butt;stroke-width:0.749999}
		.st7 {fill:none;fill-rule:evenodd;font-size:12px;overflow:visible;stroke-linecap:square;stroke-miterlimit:3}
	]]>
	</style>

	<defs
   id="Patterns_And_Gradients">
		<linearGradient
   id="grad0-9"
   x1="0"
   y1="38.954684"
   x2="40.357408"
   y2="38.954684"
   gradientTransform="scale(0.82289726,1.2152185)"
   gradientUnits="userSpaceOnUse">
			<stop
   offset="0"
   stop-color="#b3b2b3"
   stop-opacity="1"
   id="stop4" />
			<stop
   offset="0.375"
   stop-color="#afaeaf"
   stop-opacity="1"
   id="stop6" />
			<stop
   offset="0.765"
   stop-color="#a2a2a2"
   stop-opacity="1"
   id="stop8" />
			<stop
   offset="1"
   stop-color="#979797"
   stop-opacity="1"
   id="stop10" />
		</linearGradient>
		<linearGradient
   id="grad0-26"
   x1="0"
   y1="92.781659"
   x2="26.290196"
   y2="92.781659"
   gradientTransform="scale(1.2354415,0.80942721)"
   gradientUnits="userSpaceOnUse">
			<stop
   offset="0"
   stop-color="#5ea0ef"
   stop-opacity="1"
   id="stop13" />
			<stop
   offset="1"
   stop-color="#0078d4"
   stop-opacity="1"
   id="stop15" />
		</linearGradient>
		<linearGradient
   id="grad0-31"
   x1="-0.00014801204"
   y1="145.8914"
   x2="11.180041"
   y2="145.8914"
   gradientTransform="scale(1.6297115,0.61360554)"
   gradientUnits="userSpaceOnUse">
			<stop
   offset="0"
   stop-color="#3b3b3b"
   stop-opacity="1"
   id="stop18" />
			<stop
   offset="0.39"
   stop-color="#373737"
   stop-opacity="1"
   id="stop20" />
			<stop
   offset="0.79"
   stop-color="#2a2a2a"
   stop-opacity="1"
   id="stop22" />
			<stop
   offset="0.995"
   stop-color="#212121"
   stop-opacity="1"
   id="stop24" />
		</linearGradient>
	</defs>
	<g
   id="g106"
   transform="translate(-5.3859292,-5.666034)">
		<title
   id="title28">Page-1</title>
		<g
   id="group78-1"
   transform="translate(5.38583,-34.0157)">
			<title
   id="title30">Windows Admin Center</title>
			<g
   id="group79-2">
				<title
   id="title32">Page-1</title>
				<g
   id="group80-3">
					<title
   id="title34">WAC</title>
					<g
   id="group81-4">
						<title
   id="title36">Sheet.81</title>
						<g
   id="group82-5"
   transform="translate(0,-7.65672)">
							<title
   id="title38">Sheet.82</title>
							<g
   id="shape83-6">
								<title
   id="title40">Sheet.83</title>
								<path
   d="M 33.21,94.71 A 1.83591,1.7596 0 0 1 31.3,96.38 H 1.91 A 1.83591,1.7596 0 0 1 0,94.71 V 49 A 1.83591,1.7596 0 0 1 1.91,47.34 H 31.3 A 1.83591,1.7596 0 0 1 33.21,49 Z"
   class="st1"
   id="path42"
   inkscape:connector-curvature="0"
   style="fill:url(#grad0-9);stroke:none;stroke-width:0.74999899;stroke-linecap:butt" />
							</g>
						</g>
						<g
   id="group84-10"
   transform="translate(4.88317,-31.9161)">
							<title
   id="title46">Sheet.84</title>
							<g
   id="shape85-11">
								<title
   id="title48">Sheet.85</title>
								<path
   d="m 0,92.56 a 3.80564,3.64746 0 0 1 3.61,-3.8 h 16.53 a 3.80564,3.64746 0 0 1 3.62,3.8 3.80909,3.65076 0 0 1 -3.61,3.82 H 3.61 A 3.80909,3.65076 0 0 1 0,92.56 Z"
   class="st2"
   id="path50"
   inkscape:connector-curvature="0"
   style="fill:#003067;stroke:none;stroke-width:0.74999899;stroke-linecap:butt" />
							</g>
						</g>
						<g
   id="group86-13"
   transform="translate(4.88317,-43.2433)">
							<title
   id="title54">Sheet.86</title>
							<g
   id="shape87-14">
								<title
   id="title56">Sheet.87</title>
								<path
   d="m 0,92.56 a 3.80564,3.64746 0 0 1 3.61,-3.81 h 16.53 a 3.80564,3.64746 0 0 1 3.62,3.81 3.80909,3.65076 0 0 1 -3.61,3.82 H 3.61 A 3.80909,3.65076 0 0 1 0,92.56 Z"
   class="st2"
   id="path58"
   inkscape:connector-curvature="0"
   style="fill:#003067;stroke:none;stroke-width:0.74999899;stroke-linecap:butt" />
							</g>
						</g>
						<g
   id="group88-16"
   transform="translate(6.85978,-44.4954)">
							<title
   id="title62">Sheet.88</title>
							<g
   id="shape89-17">
								<title
   id="title64">Sheet.89</title>
								<ellipse
   cx="2.66979"
   cy="93.819099"
   rx="2.66979"
   ry="2.55881"
   class="st3"
   id="ellipse66"
   style="fill:#50e6ff;stroke:none;stroke-width:0.74999899;stroke-linecap:butt" />
							</g>
						</g>
						<g
   id="group90-19"
   transform="translate(6.85978,-33.1682)">
							<title
   id="title70">Sheet.90</title>
							<g
   id="shape91-20">
								<title
   id="title72">Sheet.91</title>
								<ellipse
   cx="2.66979"
   cy="93.819099"
   rx="2.66979"
   ry="2.55881"
   class="st3"
   id="ellipse74"
   style="fill:#50e6ff;stroke:none;stroke-width:0.74999899;stroke-linecap:butt" />
							</g>
						</g>
						<g
   id="group92-22"
   transform="translate(21.3205)">
							<title
   id="title78">Sheet.92</title>
							<g
   id="shape93-23">
								<title
   id="title80">Sheet.93</title>
								<path
   d="M 0,96.38 V 77.11 A 2.10014,2.01285 0 0 1 2.09,75.1 h 28.29 a 2.10014,2.01285 0 0 1 2.1,2.01 v 19.27 z"
   class="st4"
   id="path82"
   inkscape:connector-curvature="0"
   style="fill:url(#grad0-26);stroke:none;stroke-width:0.74999899;stroke-linecap:butt" />
							</g>
						</g>
						<g
   id="group94-27"
   transform="translate(28.4823,-21.2829)">
							<title
   id="title86">Sheet.94</title>
							<g
   id="shape95-28">
								<title
   id="title88">Sheet.95</title>
								<path
   d="M 18.22,96.38 H 15.77 V 92.99 A 1.14616,1.09852 -180 0 0 14.61,91.88 H 3.62 a 1.14272,1.09523 -180 0 0 -1.16,1.11 l 0.01,3.39 H 0 V 92.99 A 3.57917,3.4304 0 0 1 3.62,89.52 H 14.6 a 3.57917,3.4304 0 0 1 3.62,3.47 z"
   class="st5"
   id="path90"
   inkscape:connector-curvature="0"
   style="fill:url(#grad0-31);stroke:none;stroke-width:0.74999899;stroke-linecap:butt" />
							</g>
						</g>
						<g
   id="group96-32"
   transform="translate(21.3205,-9.35053)">
							<title
   id="title94">Sheet.96</title>
							<g
   id="shape97-33">
								<title
   id="title96">Sheet.97</title>
								<path
   d="M 32.54,91.88 H 0 v 1.5 h 12.94 v 2.09 a 0.94369,0.904466 -180 0 0 0.940258,0.901176 L 19.06,96.38 a 0.94369,0.904466 -180 0 0 0.940258,-0.901176 L 20,93.38 h 12.54 z"
   class="st6"
   id="path98"
   inkscape:connector-curvature="0"
   style="fill:#ffffff;stroke:none;stroke-width:0.74999899;stroke-linecap:butt" />
							</g>
						</g>
					</g>
				</g>
			</g>
		</g>
	</g>
</svg>