<?xml version="1.0" encoding="UTF-8" standalone="no"?>
<!DOCTYPE svg PUBLIC "-//W3C//DTD SVG 1.1//EN" "http://www.w3.org/Graphics/SVG/1.1/DTD/svg11.dtd">
<!-- Generated by Microsoft Visio, SVG Export Windows Admin Center.svg Page-1 -->
<svg xmlns="http://www.w3.org/2000/svg" xmlns:xlink="http://www.w3.org/1999/xlink" xmlns:ev="http://www.w3.org/2001/xml-events"
		width="0.897638in" height="1.33858in" viewBox="0 0 64.6299 96.378" xml:space="preserve" color-interpolation-filters="sRGB"
		class="st7">
	<style type="text/css">
	<![CDATA[
		.st1 {fill:url(#grad0-9);stroke:none;stroke-linecap:butt;stroke-width:0.749999}
		.st2 {fill:#003067;stroke:none;stroke-linecap:butt;stroke-width:0.749999}
		.st3 {fill:#50e6ff;stroke:none;stroke-linecap:butt;stroke-width:0.749999}
		.st4 {fill:url(#grad0-26);stroke:none;stroke-linecap:butt;stroke-width:0.749999}
		.st5 {fill:url(#grad0-31);stroke:none;stroke-linecap:butt;stroke-width:0.749999}
		.st6 {fill:#ffffff;stroke:none;stroke-linecap:butt;stroke-width:0.749999}
		.st7 {fill:none;fill-rule:evenodd;font-size:12px;overflow:visible;stroke-linecap:square;stroke-miterlimit:3}
	]]>
	</style>

	<defs id="Patterns_And_Gradients">
		<linearGradient id="grad0-9" x1="0" y1="0" x2="1" y2="0" gradientTransform="rotate(90 0.5 0.5)">
			<stop offset="0" stop-color="#b3b2b3" stop-opacity="1"/>
			<stop offset="0.375" stop-color="#afaeaf" stop-opacity="1"/>
			<stop offset="0.765" stop-color="#a2a2a2" stop-opacity="1"/>
			<stop offset="1" stop-color="#979797" stop-opacity="1"/>
		</linearGradient>
		<linearGradient id="grad0-26" x1="0" y1="0" x2="1" y2="0" gradientTransform="rotate(90 0.5 0.5)">
			<stop offset="0" stop-color="#5ea0ef" stop-opacity="1"/>
			<stop offset="1" stop-color="#0078d4" stop-opacity="1"/>
		</linearGradient>
		<linearGradient id="grad0-31" x1="0" y1="0" x2="1" y2="0" gradientTransform="rotate(90 0.5 0.5)">
			<stop offset="0" stop-color="#3b3b3b" stop-opacity="1"/>
			<stop offset="0.39" stop-color="#373737" stop-opacity="1"/>
			<stop offset="0.79" stop-color="#2a2a2a" stop-opacity="1"/>
			<stop offset="0.995" stop-color="#212121" stop-opacity="1"/>
		</linearGradient>
	</defs>
	<g>
		<title>Page-1</title>
		<g id="group63-1" transform="translate(5.38583,-34.0157)">
			<title>Windows Admin Center</title>
			<g id="group64-2">
				<title>Page-1</title>
				<g id="group65-3">
					<title>WAC</title>
					<g id="group66-4">
						<title>Sheet.66</title>
						<g id="group67-5" transform="translate(0,-7.65672)">
							<title>Sheet.67</title>
							<g id="shape68-6">
								<title>Sheet.68</title>
								<path d="M33.21 94.71 A1.83591 1.7596 0 0 1 31.3 96.38 L1.91 96.38 A1.83591 1.7596 0 0 1 -0 94.71
											 L0 49 A1.83591 1.7596 0 0 1 1.91 47.34 L31.3 47.34 A1.83591 1.7596 0 0 1 33.21 49 L33.21
											 94.71 Z" class="st1"/>
							</g>
						</g>
						<g id="group69-10" transform="translate(4.88317,-31.9161)">
							<title>Sheet.69</title>
							<g id="shape70-11">
								<title>Sheet.70</title>
								<path d="M0 92.56 A3.80564 3.64746 0 0 1 3.61 88.76 L20.14 88.76 A3.80564 3.64746 0 0 1 23.76 92.56
											 A3.80909 3.65076 0 0 1 20.15 96.38 L3.61 96.38 A3.80909 3.65076 0 0 1 0 92.56 Z"
										class="st2"/>
							</g>
						</g>
						<g id="group71-13" transform="translate(4.88317,-43.2433)">
							<title>Sheet.71</title>
							<g id="shape72-14">
								<title>Sheet.72</title>
								<path d="M0 92.56 A3.80564 3.64746 0 0 1 3.61 88.75 L20.14 88.75 A3.80564 3.64746 0 0 1 23.76 92.56
											 A3.80909 3.65076 0 0 1 20.15 96.38 L3.61 96.38 A3.80909 3.65076 0 0 1 0 92.56 Z"
										class="st2"/>
							</g>
						</g>
						<g id="group73-16" transform="translate(6.85978,-44.4954)">
							<title>Sheet.73</title>
							<g id="shape74-17">
								<title>Sheet.74</title>
								<ellipse cx="2.66979" cy="93.8191" rx="2.66979" ry="2.55881" class="st3"/>
							</g>
						</g>
						<g id="group75-19" transform="translate(6.85978,-33.1682)">
							<title>Sheet.75</title>
							<g id="shape76-20">
								<title>Sheet.76</title>
								<ellipse cx="2.66979" cy="93.8191" rx="2.66979" ry="2.55881" class="st3"/>
							</g>
						</g>
						<g id="group77-22" transform="translate(21.3205,-2.70006E-13)">
							<title>Sheet.77</title>
							<g id="shape78-23">
								<title>Sheet.78</title>
								<path d="M0 96.38 L0 77.11 A2.10014 2.01285 0 0 1 2.09 75.1 L30.38 75.1 A2.10014 2.01285 0 0 1 32.48
											 77.11 L32.48 96.38 L0 96.38 Z" class="st4"/>
							</g>
						</g>
						<g id="group79-27" transform="translate(28.4823,-21.2829)">
							<title>Sheet.79</title>
							<g id="shape80-28">
								<title>Sheet.80</title>
								<path d="M18.22 96.38 L15.77 96.38 L15.77 92.99 A1.14616 1.09852 -180 0 0 14.61 91.88 L3.62 91.88
											 A1.14272 1.09523 -180 0 0 2.46 92.99 L2.47 96.38 L0 96.38 L0 92.99 A3.57917 3.4304 0
											 0 1 3.62 89.52 L14.6 89.52 A3.57917 3.4304 0 0 1 18.22 92.99 L18.22 96.38 Z"
										class="st5"/>
							</g>
						</g>
						<g id="group81-32" transform="translate(21.3205,-9.35053)">
							<title>Sheet.81</title>
							<g id="shape82-33">
								<title>Sheet.82</title>
								<path d="M32.54 91.88 L0 91.88 L0 93.38 L12.94 93.38 L12.94 95.47 a0.94369 0.904466 -180 0 0 0.940258
											 0.901176 L19.06 96.38 a0.94369 0.904466 -180 0 0 0.940258 -0.901176 L20 93.38 L32.54
											 93.38 L32.54 91.88 Z" class="st6"/>
							</g>
						</g>
					</g>
				</g>
			</g>
		</g>
	</g>
</svg>
