<?xml version="1.0" encoding="UTF-8" standalone="no"?>
<!DOCTYPE svg PUBLIC "-//W3C//DTD SVG 1.1//EN" "http://www.w3.org/Graphics/SVG/1.1/DTD/svg11.dtd">
<!-- Generated by Microsoft Visio, SVG Export Workflow Automation.svg Page-1 -->
<svg xmlns="http://www.w3.org/2000/svg" xmlns:xlink="http://www.w3.org/1999/xlink" xmlns:ev="http://www.w3.org/2001/xml-events"
		width="1.68214in" height="2.21902in" viewBox="0 0 121.114 159.77" xml:space="preserve" color-interpolation-filters="sRGB"
		class="st4">
	<style type="text/css">
	<![CDATA[
		.st1 {fill:#308ce2;stroke:none;stroke-linecap:butt;stroke-width:32.2105}
		.st2 {fill:#ffffff;stroke:none;stroke-linecap:butt;stroke-width:32.2105}
		.st3 {fill:url(#grad0-10);stroke:none;stroke-linecap:butt;stroke-width:32.2105}
		.st4 {fill:none;fill-rule:evenodd;font-size:12px;overflow:visible;stroke-linecap:square;stroke-miterlimit:3}
	]]>
	</style>

	<defs id="Patterns_And_Gradients">
		<linearGradient id="grad0-10" x1="0" y1="0" x2="1" y2="0" gradientTransform="rotate(90 0.5 0.5)">
			<stop offset="0" stop-color="#33c2e1" stop-opacity="1"/>
			<stop offset="1" stop-color="#6fd8ef" stop-opacity="1"/>
		</linearGradient>
	</defs>
	<g>
		<title>Page-1</title>
		<g id="group34-1" transform="translate(32.2105,-70.8661)">
			<title>Workflow Automation</title>
			<g id="group35-2">
				<title>Sheet.35</title>
				<g id="shape36-3" transform="translate(29.115,0)">
					<title>Sheet.36</title>
					<ellipse cx="13.789" cy="145.981" rx="13.789" ry="13.789" class="st1"/>
				</g>
				<g id="shape37-5" transform="translate(39.8268,-7.64409)">
					<title>Sheet.37</title>
					<path d="M9.09 153.47 L0.47 147.49 L0.15 147.49 C0.15 147.64 0 147.64 0 147.8 L0 159.45 C0 159.61 0 159.61 0.15
								 159.77 L0.47 159.77 L9.09 153.95 a0.289764 0.289764 -180 0 0 -5.32907E-15 -0.475591 Z" class="st2"/>
				</g>
				<g id="shape38-7" transform="translate(2.8777E-13,-1.53386)">
					<title>Sheet.38</title>
					<path d="M26.49 147.51 A16.1984 16.1984 0 0 1 27.65 141.56 L27.58 141.56 A9.37953 9.37953 0 1 1 36.96 132.19
								 L36.96 132.25 A16.1039 16.1039 0 0 1 54.08 135.56 L55.17 135.16 L55.17 128.86 L54.28 128.55 L47.56
								 126.34 L45.79 122.04 L49.21 114.76 L44.8 110.35 L43.92 110.79 L37.62 113.99 L33.32 112.23 L30.55
								 104.61 L24.25 104.61 L23.94 105.49 L21.73 112.22 L17.43 113.99 L10.26 110.57 L5.85 114.98 L6.29
								 115.86 L9.49 122.16 L7.73 126.46 L0 129.21 L0 135.51 L0.88 135.84 L7.61 138.05 L9.38 142.35 L5.96
								 149.62 L10.37 154.03 L11.25 153.59 L17.55 150.39 L21.85 152.16 L24.61 159.77 L30.91 159.77 L31.21
								 158.97 A16.3465 16.3465 0 0 1 26.49 147.51 Z" class="st3"/>
				</g>
			</g>
		</g>
	</g>
</svg>
