<?xml version="1.0" encoding="UTF-8" standalone="no"?>
<!-- Generated by Microsoft Visio, SVG Export Confidential Ledger.svg Page-1 -->
<svg xmlns:dc="http://purl.org/dc/elements/1.1/" xmlns:cc="http://creativecommons.org/ns#" xmlns:rdf="http://www.w3.org/1999/02/22-rdf-syntax-ns#" xmlns:svg="http://www.w3.org/2000/svg" xmlns="http://www.w3.org/2000/svg" xmlns:xlink="http://www.w3.org/1999/xlink" xmlns:sodipodi="http://sodipodi.sourceforge.net/DTD/sodipodi-0.dtd" xmlns:inkscape="http://www.inkscape.org/namespaces/inkscape" width="56.689597" height="56.697999" viewBox="0 0 56.689597 56.697999" xml:space="preserve" class="st5" version="1.1" id="svg50" sodipodi:docname="Confidential Ledger.svg" style="font-size:12px;overflow:visible;color-interpolation-filters:sRGB;fill:none;fill-rule:evenodd;stroke-linecap:square;stroke-miterlimit:3" inkscape:version="0.92.5 (2060ec1f9f, 2020-04-08)">
  <metadata id="metadata54">
    <rdf:RDF>
      <cc:Work rdf:about="">
        <dc:format>image/svg+xml</dc:format>
        <dc:type rdf:resource="http://purl.org/dc/dcmitype/StillImage" />
      </cc:Work>
    </rdf:RDF>
  </metadata>
  <sodipodi:namedview pagecolor="#ffffff" bordercolor="#666666" borderopacity="1" objecttolerance="10" gridtolerance="10" guidetolerance="10" inkscape:pageopacity="0" inkscape:pageshadow="2" inkscape:window-width="640" inkscape:window-height="480" id="namedview52" showgrid="false" inkscape:zoom="1.4193119" inkscape:cx="37.795128" inkscape:cy="37.786193" inkscape:window-x="0" inkscape:window-y="0" inkscape:window-maximized="0" inkscape:current-layer="svg50" />
	<style type="text/css" id="style2">
	<![CDATA[
		.st1 {fill:#b796f9;stroke:none;stroke-linecap:butt;stroke-width:34}
		.st2 {fill:#a67af4;stroke:none;stroke-linecap:butt;stroke-width:34}
		.st3 {fill:url(#grad0-10);stroke:none;stroke-linecap:butt;stroke-width:34}
		.st4 {fill:#773adc;stroke:none;stroke-linecap:butt;stroke-width:34}
		.st5 {fill:none;fill-rule:evenodd;font-size:12px;overflow:visible;stroke-linecap:square;stroke-miterlimit:3}
	]]>
	</style>

	<defs id="Patterns_And_Gradients">
		<linearGradient id="grad0-10" x1="0" y1="0" x2="1" y2="0">
			<stop offset="0" stop-color="#773adc" stop-opacity="1" id="stop4" />
			<stop offset="1" stop-color="#552f99" stop-opacity="1" id="stop6" />
		</linearGradient>
	<linearGradient inkscape:collect="always" xlink:href="#grad0-10" id="linearGradient4564" x1="-0.018048637" y1="72.134736" x2="5.0992356" y2="72.134736" gradientTransform="scale(0.61995505,1.6130202)" gradientUnits="userSpaceOnUse" /><linearGradient inkscape:collect="always" xlink:href="#grad0-10" id="linearGradient4566" x1="-0.018043445" y1="72.155484" x2="5.0974233" y2="72.155484" gradientTransform="scale(0.62013344,1.6125562)" gradientUnits="userSpaceOnUse" /><linearGradient inkscape:collect="always" xlink:href="#grad0-10" id="linearGradient4568" x1="-0.018048771" y1="72.134201" x2="5.0991974" y2="72.134201" gradientTransform="scale(0.61995045,1.6130321)" gradientUnits="userSpaceOnUse" /></defs>
	<g id="g48" transform="translate(-34.000441,-33.9963)">
		<title id="title10">Page-1</title>
		<g id="group17608-1" transform="translate(34,-34.0157)">
			<title id="title12">Confidential Ledger.17608</title>
			<g id="group17609-2">
				<title id="title14">Sheet.17609</title>
				<g id="shape17610-3" transform="translate(0,-14.148)">
					<title id="title16">Sheet.17610</title>
					<path d="M 40.47,89.27 28.35,96.39 16.22,89.27 28.35,82.16 Z m -21.1,25.49 -2.3,-1.36 -4.93,-2.89 -12.14,7.08 12.13,7.12 12.12,-7.12 z m 25.2,-4.26 -4.95,2.9 -2.3,1.36 -4.88,2.83 9.8,5.76 2.33,1.36 1.13,-0.66 10.99,-6.46 z" class="st1" id="path18" inkscape:connector-curvature="0" style="fill:#b796f9;stroke:none;stroke-width:34;stroke-linecap:butt" />
				</g>
				<g id="shape17611-5">
					<title id="title21">Sheet.17611</title>
					<path d="M 28.35,82.25 V 96.36 L 23.43,93.5 21.13,92.14 16.22,89.28 V 75.13 l 10.99,6.45 z M 0,103.46 v 14.14 l 12.14,7.11 v -14.13 z m 42.25,5.75 v -0.04 l -9.8,-5.73 v 14.18 l 12.13,7.09 v -14.14 z" class="st2" id="path23" inkscape:connector-curvature="0" style="fill:#a67af4;stroke:none;stroke-width:34;stroke-linecap:butt" />
				</g>
				<g id="shape17612-7" transform="translate(36.4441,-6.08819)">
					<title id="title26">Sheet.17612</title>
					<path d="m 1.61,116.59 a 3.40472,3.40472 0 0 1 1.55,2.95 0.897638,0.897638 0 0 1 -0.781102,0.90394 L 2.3,120.44 l 0.65,2.87 0.19,0.88 c 0.07,0.34 -0.11,0.52 -0.37,0.36 L 2.33,124.31 1.9,124.05 c -0.51,-0.29 -1.02,-0.58 -1.53,-0.87 a 0.859843,0.859843 0 0 1 -0.374803,-0.8189 C 0.28,121.49 0.55,120.6 0.83,119.73 c 0.02,-0.09 0.02,-0.14 -0.06,-0.25 a 3.11811,3.11811 0 0 1 -0.75,-2.2 c 0.07,-0.69 0.43,-1 1.02,-0.91 a 1.71654,1.71654 0 0 1 0.57,0.22 z" class="st3" id="path28" inkscape:connector-curvature="0" style="fill:url(#linearGradient4564);stroke:none;stroke-width:34;stroke-linecap:butt" />
				</g>
				<g id="shape17613-11" transform="translate(12.1386)">
					<title id="title31">Sheet.17613</title>
					<path d="m 28.35,75.13 v 14.14 l -4.92,2.87 -2.3,1.35 -4.92,2.87 V 82.21 Z M 2.33,109.17 v 0.04 L 0,110.56 v 14.15 l 12.13,-7.09 v -14.17 z m 30.11,1.38 v 14.16 l 12.11,-7.11 v -14.14 z m -20.33,-1.31 v 2.67 h 8.19 v -2.67 z M 9,92.14 l -4.07,7.11 2.3,1.36 4.06,-7.12 z m 14.42,0 -2.3,1.35 4.06,7.12 2.3,-1.36 z" class="st4" id="path33" inkscape:connector-curvature="0" style="fill:#773adc;stroke:none;stroke-width:34;stroke-linecap:butt" />
				</g>
				<g id="shape17614-13" transform="translate(20.2236,-34.4063)">
					<title id="title36">Sheet.17614</title>
					<path d="m 1.61,116.6 a 3.40157,3.40157 0 0 1 1.55,2.94 0.897638,0.897638 0 0 1 -0.777953,0.90079 L 2.3,120.44 l 0.65,2.87 0.19,0.88 c 0.07,0.3 -0.11,0.52 -0.37,0.36 L 2.33,124.31 1.9,124.05 0.37,123.17 a 0.859843,0.859843 0 0 1 -0.374803,-0.8189 C 0.28,121.48 0.55,120.6 0.83,119.72 c 0.02,-0.09 0.02,-0.14 -0.06,-0.25 a 3.11811,3.11811 0 0 1 -0.75,-2.2 c 0.07,-0.68 0.43,-0.99 1.02,-0.9 a 1.69764,1.69764 0 0 1 0.57,0.23 z" class="st3" id="path38" inkscape:connector-curvature="0" style="fill:url(#linearGradient4566);stroke:none;stroke-width:34;stroke-linecap:butt" />
				</g>
				<g id="shape17615-16" transform="translate(4.00315,-6.08819)">
					<title id="title41">Sheet.17615</title>
					<path d="m 1.61,116.59 a 3.40787,3.40787 0 0 1 1.55,2.95 0.897638,0.897638 0 0 1 -0.777953,0.90394 L 2.3,120.44 l 0.65,2.87 0.19,0.88 c 0.08,0.34 -0.11,0.52 -0.37,0.36 L 2.33,124.31 1.9,124.05 c -0.51,-0.29 -1.02,-0.58 -1.53,-0.87 a 0.859843,0.859843 0 0 1 -0.374803,-0.8189 C 0.28,121.49 0.55,120.6 0.83,119.73 c 0.03,-0.09 0.02,-0.14 -0.06,-0.25 a 3.11811,3.11811 0 0 1 -0.75,-2.2 c 0.07,-0.69 0.43,-1 1.02,-0.91 a 1.77008,1.77008 0 0 1 0.57,0.22 z" class="st3" id="path43" inkscape:connector-curvature="0" style="fill:url(#linearGradient4568);stroke:none;stroke-width:34;stroke-linecap:butt" />
				</g>
			</g>
		</g>
	</g>
</svg>