<?xml version="1.0" encoding="UTF-8" standalone="no"?>
<!DOCTYPE svg PUBLIC "-//W3C//DTD SVG 1.1//EN" "http://www.w3.org/Graphics/SVG/1.1/DTD/svg11.dtd">
<!-- Generated by Microsoft Visio, SVG Export Adaptive Network Hardening.svg Page-1 -->
<svg xmlns="http://www.w3.org/2000/svg" xmlns:xlink="http://www.w3.org/1999/xlink" xmlns:ev="http://www.w3.org/2001/xml-events"
		width="1.55137in" height="1.64621in" viewBox="0 0 111.699 118.527" xml:space="preserve" color-interpolation-filters="sRGB"
		class="st8">
	<style type="text/css">
	<![CDATA[
		.st1 {fill:#c7e4f0;stroke:none;stroke-linecap:butt;stroke-width:27.8182}
		.st2 {fill:#59b4d9;stroke:none;stroke-linecap:butt;stroke-width:27.8182}
		.st3 {fill:#b8d432;stroke:none;stroke-linecap:butt;stroke-width:27.8182}
		.st4 {fill:#57a300;stroke:none;stroke-linecap:butt;stroke-width:27.8182}
		.st5 {fill:#ffffff;fill-opacity:0.25;stroke:none;stroke-linecap:butt;stroke-width:27.8182}
		.st6 {fill:#429ec9;stroke:none;stroke-linecap:butt;stroke-width:27.8182}
		.st7 {fill:#74b7d7;stroke:none;stroke-linecap:butt;stroke-width:27.8182}
		.st8 {fill:none;fill-rule:evenodd;font-size:12px;overflow:visible;stroke-linecap:square;stroke-miterlimit:3}
	]]>
	</style>

	<g>
		<title>Page-1</title>
		<g id="group12985-1" transform="translate(27.8184,-34.0157)">
			<title>Adaptive Network Hardening.12985</title>
			<g id="group12986-2">
				<title> ASC_Adaptive-network-hardening</title>
				<g id="shape12987-3" transform="translate(0.786958,-1.22109)">
					<title>Sheet.12987</title>
					<path d="M19.82 118.52 L30.51 98.14 L30.97 85.73 L30.97 85.27 L39.18 85.27 L39.18 75.77 A1.22254 1.20959 -180
								 0 0 37.94 74.54 L37.63 74.54 C36.86 74.7 35.93 74.7 35.15 74.7 C28.96 74.7 23.39 71.17 20.75 65.5
								 C20.44 65.2 20.13 65.2 19.67 65.2 L19.51 65.2 C19.2 65.2 18.43 65.5 18.43 65.5 C15.8 71.02 10.07
								 74.54 3.87 74.54 C3.1 74.54 2.33 74.54 1.55 74.39 L1.24 74.39 C0.46 74.39 0 74.85 0 75.62 L0 99.37
								 C0 101.06 0.31 102.44 1.08 103.82 L1.39 103.97 A35.2214 34.8484 -180 0 0 18.27 118.07 C18.27 118.07
								 19.05 118.22 19.82 118.53 L19.82 118.52 Z" class="st1"/>
				</g>
				<g id="shape12988-5" transform="translate(25.4092,-0.152277)">
					<title>Sheet.12988</title>
					<path d="M30.2 115.16 L20.75 98 L20.75 91.1 L20.91 91.1 C21.99 91.1 22.92 90.18 22.92 88.95 C22.92 87.73 21.99
								 86.81 20.91 86.81 L10.53 86.81 C9.45 86.81 8.52 87.73 8.52 88.95 C8.52 90.18 9.45 91.1 10.53 91.1
								 L10.69 91.1 L10.69 98 L1.08 115.16 C0 117 0.93 118.53 2.94 118.53 L28.19 118.53 C30.35 118.53 31.28
								 117 30.2 115.16 L30.2 115.16 Z" class="st2"/>
				</g>
				<g id="shape12989-7" transform="translate(30.52,-3.8299)">
					<title>Sheet.12989</title>
					<path d="M3.87 111.48 L0 118.53 L21.22 118.53 L17.19 111.48 L3.87 111.48 Z" class="st3"/>
				</g>
				<g id="shape12990-9" transform="translate(39.6615,-5.66584)">
					<title>Sheet.12990</title>
					<path d="M1.86 116.07 C2.94 116.07 3.71 115.15 3.71 114.08 C3.71 113.77 3.71 113.47 3.56 113.16 L0.15 113.16
								 C0 113.47 0 113.77 0 114.08 C0 115.31 0.93 116.07 1.86 116.07 L1.86 116.07 ZM5.26 117.61 a0.929249
								 0.919407 0 0 1 -1.8585 0 a0.929249 0.919407 0 1 1 1.8585 0 Z" class="st4"/>
				</g>
				<g id="shape12991-11" transform="translate(25.5631,0)">
					<title>Sheet.12991</title>
					<path d="M0.93 115 L10.38 97.84 L10.38 90.95 L10.22 90.95 C9.14 90.95 8.21 90.03 8.21 88.8 C8.21 87.57 9.14 86.66
								 10.22 86.66 L14.71 86.66 L14.71 97.84 L9.76 118.53 L2.94 118.53 C0.77 118.37 0 116.84 0.93 115 L0.93
								 115 Z" class="st5"/>
				</g>
				<g id="shape12992-13" transform="translate(2.79776E-13,-1.06594)">
					<title>Sheet.12992</title>
					<path d="M20.45 118.52 L22 115.77 C22 115.77 21.54 115.92 20.92 116.07 L19.99 115.77 C13.02 113.01 7.44 108.41
								 3.73 102.13 L3.57 101.97 C2.95 100.75 2.64 99.68 2.64 98.3 L2.64 74.54 L2.8 74.54 C3.57 74.7 4.5
								 74.7 5.12 74.7 C11.62 74.7 17.66 71.02 20.61 65.35 L21.07 65.35 C23.86 71.17 29.9 74.85 36.4 74.85
								 C37.18 74.85 38.11 74.85 38.88 74.7 L39.19 74.7 L39.19 85.12 L41.67 85.12 L41.67 74.7 A2.44509 2.41919
								 -180 0 0 39.19 72.25 L38.72 72.25 C38.11 72.4 37.18 72.4 36.55 72.4 C30.82 72.4 25.71 69.03 23.23
								 63.97 L22.92 63.67 A2.56415 2.53699 -180 0 0 21.06 62.9 L20.75 62.9 C20.29 62.9 19.82 63.05 19.51
								 63.21 L18.43 64.28 C15.95 69.18 10.69 72.4 5.11 72.4 C4.34 72.4 3.72 72.4 2.94 72.25 L2.48 72.25
								 A2.44509 2.41919 -180 0 0 0 74.7 L0 98.45 C0 100.29 0.46 101.82 1.24 103.51 L1.39 103.82 C5.42 110.4
								 11.46 115.31 18.9 118.22 C19.21 117.91 19.98 118.22 20.44 118.53 L20.45 118.52 Z" class="st6"/>
				</g>
				<g id="shape12993-15" transform="translate(2.33183,-3.8299)">
					<title>Sheet.12993</title>
					<path d="M0 94.78 L0 100.75 C0 102.29 0.31 103.82 0.93 105.04 L1.08 105.2 C4.65 111.17 10.06 115.46 16.57 118.07
								 C16.57 118.07 17.19 118.22 17.81 118.53 L17.81 94.77 L0 94.77 L0 94.78 ZM29.43 88.19 L29.43 87.73
								 L36.86 87.73 L37.02 78.69 L37.02 78.38 C37.02 77.61 36.71 76.85 35.93 76.85 L35.47 76.85 C34.69
								 77 33.61 77 32.83 77 C26.64 77 21.68 73.32 18.74 67.2 C18.43 67.2 18.43 67.2 18.12 67.35 L18.12
								 95.08 L29.43 95.08 L29.43 88.19 L29.43 88.19 Z" class="st7"/>
				</g>
			</g>
		</g>
	</g>
</svg>
