<?xml version="1.0" encoding="UTF-8" standalone="no"?>
<!-- Generated by Microsoft Visio, SVG Export Automation.svg Page-1 -->

<svg
   xmlns:dc="http://purl.org/dc/elements/1.1/"
   xmlns:cc="http://creativecommons.org/ns#"
   xmlns:rdf="http://www.w3.org/1999/02/22-rdf-syntax-ns#"
   xmlns:svg="http://www.w3.org/2000/svg"
   xmlns="http://www.w3.org/2000/svg"
   xmlns:sodipodi="http://sodipodi.sourceforge.net/DTD/sodipodi-0.dtd"
   xmlns:inkscape="http://www.inkscape.org/namespaces/inkscape"
   width="0.78740078in"
   height="0.78738493in"
   viewBox="0 0 56.692854 56.691855"
   xml:space="preserve"
   class="st4"
   version="1.1"
   id="svg35"
   sodipodi:docname="Automation.svg"
   style="font-size:12px;overflow:visible;color-interpolation-filters:sRGB;fill:none;fill-rule:evenodd;stroke-linecap:square;stroke-miterlimit:3"
   inkscape:version="0.92.5 (2060ec1f9f, 2020-04-08)"><metadata
   id="metadata39"><rdf:RDF><cc:Work
       rdf:about=""><dc:format>image/svg+xml</dc:format><dc:type
         rdf:resource="http://purl.org/dc/dcmitype/StillImage" /></cc:Work></rdf:RDF></metadata><sodipodi:namedview
   pagecolor="#ffffff"
   bordercolor="#666666"
   borderopacity="1"
   objecttolerance="10"
   gridtolerance="10"
   guidetolerance="10"
   inkscape:pageopacity="0"
   inkscape:pageshadow="2"
   inkscape:window-width="640"
   inkscape:window-height="480"
   id="namedview37"
   showgrid="false"
   inkscape:zoom="1.8365233"
   inkscape:cx="37.795184"
   inkscape:cy="18.897679"
   inkscape:window-x="0"
   inkscape:window-y="0"
   inkscape:window-maximized="0"
   inkscape:current-layer="svg35" />
	<style
   type="text/css"
   id="style2">
	<![CDATA[
		.st1 {fill:#308ce2;stroke:none;stroke-width:1.98559}
		.st2 {fill:#ffffff;stroke:none;stroke-width:1.98559}
		.st3 {fill:url(#grad0-10);stroke:none;stroke-width:1.98559}
		.st4 {fill:none;fill-rule:evenodd;font-size:12px;overflow:visible;stroke-linecap:square;stroke-miterlimit:3}
	]]>
	</style>

	<defs
   id="Patterns_And_Gradients">
		<linearGradient
   id="grad0-10"
   x1="0"
   y1="41.223736"
   x2="55.165"
   y2="41.223736"
   gradientTransform="scale(1.0000906,0.99990937)"
   gradientUnits="userSpaceOnUse">
			<stop
   offset="0"
   stop-color="#33c2e1"
   stop-opacity="1"
   id="stop4" />
			<stop
   offset="1"
   stop-color="#6fd8ef"
   stop-opacity="1"
   id="stop6" />
		</linearGradient>
	</defs>
	<g
   id="g33"
   transform="translate(-5.6693772,-5.67044)">
		<title
   id="title10">Page-1</title>
		<g
   id="group14031-1"
   transform="translate(5.66929,-34.0157)">
			<title
   id="title12">Automation.14031</title>
			<g
   id="group14032-2">
				<title
   id="title14">g2</title>
				<g
   id="shape14033-3"
   transform="translate(29.115)">
					<title
   id="title16">circle1</title>
					<circle
   cx="13.789"
   cy="82.588997"
   class="st1"
   id="ellipse18"
   r="13.789"
   style="fill:#308ce2;stroke:none;stroke-width:1.98558998" />
				</g>
				<g
   id="shape14034-5"
   transform="translate(39.8268,-7.64409)">
					<title
   id="title21">path1</title>
					<path
   d="M 9.09,90.08 0.47,84.09 H 0.15 C 0.15,84.25 0,84.25 0,84.41 v 11.65 c 0,0.16 0,0.16 0.15,0.32 h 0.32 l 8.62,-5.83 a 0.289764,0.289764 -180 0 0 0,-0.475591 z"
   class="st2"
   id="path23"
   inkscape:connector-curvature="0"
   style="fill:#ffffff;stroke:none;stroke-width:1.98558998" />
				</g>
				<g
   id="shape14035-7"
   transform="translate(0,-1.53386)">
					<title
   id="title26">path2</title>
					<path
   d="m 26.49,84.12 a 16.1984,16.1984 0 0 1 1.16,-5.95 h -0.07 a 9.37953,9.37953 0 1 1 9.38,-9.38 v 0.07 a 16.1039,16.1039 0 0 1 17.12,3.3 l 1.09,-0.39 v -6.3 l -0.89,-0.31 -6.72,-2.21 -1.77,-4.3 3.42,-7.28 -4.41,-4.41 -0.88,0.44 -6.3,3.2 -4.3,-1.77 -2.77,-7.61 h -6.3 l -0.31,0.88 -2.21,6.73 -4.3,1.77 -7.17,-3.43 -4.41,4.41 0.44,0.89 3.2,6.3 -1.76,4.3 L 0,65.82 v 6.3 l 0.88,0.33 6.73,2.21 1.77,4.3 -3.42,7.27 4.41,4.41 0.88,-0.44 6.3,-3.2 4.3,1.77 2.76,7.61 h 6.3 l 0.3,-0.8 A 16.3465,16.3465 0 0 1 26.49,84.12 Z"
   class="st3"
   id="path28"
   inkscape:connector-curvature="0"
   style="fill:url(#grad0-10);stroke:none;stroke-width:1.98558998" />
				</g>
			</g>
		</g>
	</g>
</svg>