<?xml version="1.0" encoding="UTF-8" standalone="no"?>
<!-- Generated by Microsoft Visio, SVG Export Cloud NGFW.svg Page-1 -->

<svg
   xmlns:dc="http://purl.org/dc/elements/1.1/"
   xmlns:cc="http://creativecommons.org/ns#"
   xmlns:rdf="http://www.w3.org/1999/02/22-rdf-syntax-ns#"
   xmlns:svg="http://www.w3.org/2000/svg"
   xmlns="http://www.w3.org/2000/svg"
   xmlns:sodipodi="http://sodipodi.sourceforge.net/DTD/sodipodi-0.dtd"
   xmlns:inkscape="http://www.inkscape.org/namespaces/inkscape"
   width="0.78740406in"
   height="0.74817222in"
   viewBox="0 0 56.693 53.868133"
   xml:space="preserve"
   class="st6"
   version="1.1"
   id="svg58"
   sodipodi:docname="Cloud NGFW.svg"
   style="font-size:12px;overflow:visible;color-interpolation-filters:sRGB;fill:none;fill-rule:evenodd;stroke-linecap:square;stroke-miterlimit:3"
   inkscape:version="0.92.5 (2060ec1f9f, 2020-04-08)"><metadata
   id="metadata62"><rdf:RDF><cc:Work
       rdf:about=""><dc:format>image/svg+xml</dc:format><dc:type
         rdf:resource="http://purl.org/dc/dcmitype/StillImage" /></cc:Work></rdf:RDF></metadata><sodipodi:namedview
   pagecolor="#ffffff"
   bordercolor="#666666"
   borderopacity="1"
   objecttolerance="10"
   gridtolerance="10"
   guidetolerance="10"
   inkscape:pageopacity="0"
   inkscape:pageshadow="2"
   inkscape:window-width="640"
   inkscape:window-height="480"
   id="namedview60"
   showgrid="false"
   inkscape:zoom="1.452229"
   inkscape:cx="37.795396"
   inkscape:cy="35.900592"
   inkscape:window-x="0"
   inkscape:window-y="0"
   inkscape:window-maximized="0"
   inkscape:current-layer="svg58" />
	<style
   type="text/css"
   id="style2">
	<![CDATA[
		.st1 {fill:url(#grad0-6);stroke:none;stroke-linecap:butt;stroke-width:34}
		.st2 {fill:#00569b;stroke:none;stroke-linecap:butt;stroke-width:34}
		.st3 {fill:#82b5ef;stroke:none;stroke-linecap:butt;stroke-width:34}
		.st4 {fill:#f04e23;stroke:none;stroke-linecap:butt;stroke-width:34}
		.st5 {fill:#ffffff;stroke:none;stroke-linecap:butt;stroke-width:34}
		.st6 {fill:none;fill-rule:evenodd;font-size:12px;overflow:visible;stroke-linecap:square;stroke-miterlimit:3}
	]]>
	</style>

	<defs
   id="Patterns_And_Gradients">
		<linearGradient
   id="grad0-6"
   x1="0"
   y1="96.388176"
   x2="47.88798"
   y2="96.388176"
   gradientTransform="scale(1.1838044,0.84473418)"
   gradientUnits="userSpaceOnUse">
			<stop
   offset="0"
   stop-color="#0078d4"
   stop-opacity="1"
   id="stop4" />
			<stop
   offset="0.06"
   stop-color="#0a7cd7"
   stop-opacity="1"
   id="stop6" />
			<stop
   offset="0.34"
   stop-color="#2e8ce1"
   stop-opacity="1"
   id="stop8" />
			<stop
   offset="0.59"
   stop-color="#4897e9"
   stop-opacity="1"
   id="stop10" />
			<stop
   offset="0.82"
   stop-color="#589eed"
   stop-opacity="1"
   id="stop12" />
			<stop
   offset="1"
   stop-color="#5ea0ef"
   stop-opacity="1"
   id="stop14" />
		</linearGradient>
	</defs>
	<g
   id="g56"
   transform="translate(-34,-33.997791)">
		<title
   id="title18">Page-1</title>
		<g
   id="group18049-1"
   transform="translate(34,-34.0157)">
			<title
   id="title20">Cloud NGFW.18049</title>
			<g
   id="group18050-2">
				<title
   id="title22">Sheet.18050</title>
				<g
   id="shape18051-3"
   transform="translate(0,-13.4091)">
					<title
   id="title24">Sheet.18051</title>
					<path
   d="M 56.69,109.19 A 12.7874,12.8641 -180 0 0 45.64,96.86 16.063,16.1594 -180 0 0 29.1,81.43 16.4724,16.5713 -180 0 0 13.35,92.24 15.1811,15.2722 -180 0 0 0,106.94 15.4331,15.5257 -180 0 0 15.97,121.86 h 27.24 c 0.23,0.02 0.47,0.02 0.7,0 a 12.9134,12.9909 -180 0 0 12.78,-12.67 z"
   class="st1"
   id="path26"
   inkscape:connector-curvature="0"
   style="fill:url(#grad0-6);stroke:none;stroke-width:34;stroke-linecap:butt" />
				</g>
				<g
   id="shape18052-7"
   transform="translate(0.507087,-14.2583)">
					<title
   id="title29">Sheet.18052</title>
					<path
   d="m 56.11,111.19 h -8.78 v -8.92 h 5.94 a 12.7528,12.8293 -180 0 0 -1.78,-1.78 H 40.24 v -8.91 h 3.39 A 16.1197,16.2164 -180 0 0 42.66,89.8 h -9.5 v -7 a 16.1039,16.2006 -180 0 0 -0.54,-0.13 h -1.24 v 7.13 h -12.4 v -4.62 a 16.4693,16.5681 -180 0 0 -1.77,1.41 v 3.21 h -2.72 a 16.4724,16.5713 -180 0 0 -1,1.78 H 24.3 v 8.91 H 11.89 v -7.25 a 15.1811,15.2722 -180 0 0 -1.77,0.44 v 6.81 H 1.59 a 15.1811,15.2722 -180 0 0 -0.89,1.79 h 2.34 v 8.91 H 0 c 0.16,0.6 0.36,1.2 0.59,1.78 h 9.53 v 8.91 h 1.77 v -8.91 H 24.3 v 8.91 h 1.77 v -8.91 h 12.4 v 8.91 h 1.77 v -8.91 h 12.4 v 5.7 c 0.69,-0.73 1.28,-1.53 1.78,-2.37 v -3.33 h 1.36 a 12.8819,12.9592 -180 0 0 0.33,-1.78 z m -10.55,-8.92 v 8.92 H 33.15 v -8.92 z M 38.47,91.58 h -12.4 v 8.91 h 12.4 z M 4.81,111.19 v -8.92 h 12.4 v 8.92 z m 26.57,-8.92 h -12.4 v 8.92 h 12.4 z"
   class="st2"
   id="path31"
   inkscape:connector-curvature="0"
   style="fill:#00569b;stroke:none;stroke-width:34;stroke-linecap:butt" />
				</g>
				<g
   id="shape18053-9"
   transform="translate(12.4,-14.2583)">
					<title
   id="title34">Sheet.18053</title>
					<path
   d="m 41.38,102.28 c 1.79,2.18 2.82,4.91 2.91,7.76 a 12.9827,13.0606 0 0 1 -0.08,1.15 h -8.78 v -8.92 h 5.95 z M 7.09,85.18 7.12,85.16 a 16.4724,16.5713 0 0 1 5.72,-2.49 h 6.65 V 89.8 H 7.09 Z m 19.49,6.4 H 14.17 v 8.91 H 26.58 Z M 0,112.97 h 12.4 v 8.91 H 0 Z"
   class="st3"
   id="path36"
   inkscape:connector-curvature="0"
   style="fill:#82b5ef;stroke:none;stroke-width:34;stroke-linecap:butt" />
				</g>
				<g
   id="shape18054-11"
   transform="translate(0,-13.4151)">
					<title
   id="title39">Sheet.18054</title>
					<path
   d="M 43.93,98.43 43.87,96.95 A 14.2929,14.3787 -180 0 0 29.16,83.22 h -0.09 a 14.6992,14.7874 -180 0 0 -14.06,9.64 l -0.37,1.02 -1.07,0.13 a 13.411,13.4915 -180 0 0 -11.8,12.93 13.663,13.745 -180 0 0 14.14,13.15 h 27.37 0.06 c 0.15,0.01 0.29,0.01 0.43,0 h 0.06 0.06 A 11.1433,11.2102 -180 0 0 54.92,109.2 11.0173,11.0834 -180 0 0 45.4,98.64 Z m 12.76,10.76 a 12.9134,12.9909 0 0 1 -12.78,12.68 4.62677,4.65454 0 0 1 -0.7,0 H 15.97 A 15.4331,15.5257 0 0 1 0,106.94 15.1811,15.2722 0 0 1 13.35,92.24 16.4724,16.5713 0 0 1 29.1,81.44 16.063,16.1594 0 0 1 45.64,96.87 12.7874,12.8641 0 0 1 56.69,109.19 Z"
   class="st2"
   id="path41"
   inkscape:connector-curvature="0"
   style="fill:#00569b;stroke:none;stroke-width:34;stroke-linecap:butt" />
				</g>
				<g
   id="shape18055-13"
   transform="translate(26.5764)">
					<title
   id="title44">Sheet.18055</title>
					<ellipse
   cx="15.0583"
   cy="106.733"
   rx="15.0583"
   ry="15.1486"
   class="st4"
   id="ellipse46"
   style="fill:#f04e23;stroke:none;stroke-width:34;stroke-linecap:butt" />
				</g>
				<g
   id="shape18056-15"
   transform="translate(29.0835,-6.31166)">
					<title
   id="title49">Sheet.18056</title>
					<path
   d="m 9.03,104.21 -9.03,8.85 3.6,3.53 9.03,-8.85 z m 10.81,3.53 -3.61,-3.53 -3.6,3.53 1.8,1.75 -9.03,8.86 3.6,3.53 3.6,-3.53 -1.79,-1.76 z m -7.24,10.61 9.03,-8.85 3.6,3.53 -9.03,8.85 z"
   class="st5"
   id="path51"
   inkscape:connector-curvature="0"
   style="fill:#ffffff;stroke:none;stroke-width:34;stroke-linecap:butt" />
				</g>
			</g>
		</g>
	</g>
</svg>