<?xml version="1.0" encoding="UTF-8" standalone="no"?>
<!DOCTYPE svg PUBLIC "-//W3C//DTD SVG 1.1//EN" "http://www.w3.org/Graphics/SVG/1.1/DTD/svg11.dtd">
<!-- Generated by Microsoft Visio, SVG Export Network Access.svg Page-1 -->
<svg xmlns="http://www.w3.org/2000/svg" xmlns:xlink="http://www.w3.org/1999/xlink" xmlns:ev="http://www.w3.org/2001/xml-events"
		width="1.12087in" height="1.3511in" viewBox="0 0 80.7025 97.2794" xml:space="preserve" color-interpolation-filters="sRGB"
		class="st4">
	<style type="text/css">
	<![CDATA[
		.st1 {fill:#7a7a7a;stroke:none;stroke-linecap:butt;stroke-width:12.24}
		.st2 {fill:#57a300;stroke:none;stroke-linecap:butt;stroke-width:12.24}
		.st3 {fill:#3999c6;stroke:none;stroke-linecap:butt;stroke-width:12.24}
		.st4 {fill:none;fill-rule:evenodd;font-size:12px;overflow:visible;stroke-linecap:square;stroke-miterlimit:3}
	]]>
	</style>

	<g>
		<title>Page-1</title>
		<g id="group16365-1" transform="translate(12.0088,-34.0157)">
			<title>Network Access.16365</title>
			<g id="group16366-2">
				<title>Sheet.16366</title>
				<g id="shape16367-3" transform="translate(26.6143,-14.8866)">
					<title>Sheet.16367</title>
					<rect x="0" y="66.8243" width="3.45625" height="30.4551" class="st1"/>
				</g>
				<g id="shape16368-5" transform="translate(22.1212,-9.20471)">
					<title>Sheet.16368</title>
					<path d="M12.44 91.14 C12.44 94.47 9.6 97.28 6.22 97.28 C2.84 97.28 0 94.47 0 91.14 C0 87.81 2.84 85.01 6.22
								 85.01 C9.6 85.01 12.44 87.81 12.44 91.14 Z" class="st2"/>
				</g>
				<g id="shape16369-7">
					<title>Sheet.16369</title>
					<path d="M33.41 51.26 C33.41 53.97 31.09 56.26 28.34 56.26 C25.59 56.26 23.27 53.97 23.27 51.26 C23.27 48.54
								 25.59 46.26 28.34 46.26 C31.09 46.26 33.41 48.54 33.41 51.26 ZM40.47 97.27 A1.58988 1.56821 0 0
								 1 39.33 96.82 A1.70624 1.68298 0 0 1 39.33 94.45 L51.51 82.44 a0.986184 0.972744 -180 0 0 0.00115208
								 -1.38071 L39.55 69.47 A1.48619 1.46593 0 0 1 39 68.4 C38.98 67.93 39.18 67.46 39.54 67.09 A1.64172
								 1.61935 0 0 1 40.87 66.6 C41.3 66.6 41.71 66.78 42.03 67.09 L53.45 78.05 L56 80.56 C56.51 81.19
								 56.69 82.25 56 82.94 L53.24 85.65 L41.81 96.82 A1.67743 1.65457 0 0 1 40.64 97.28 L40.65 97.28 L40.47
								 97.27 ZM16.05 97.27 A1.67052 1.64776 0 0 1 14.88 96.82 L3.24 85.76 L0.69 82.92 C0 82.25 0.17 81.22
								 0.67 80.59 L3.24 78.05 L14.67 67.09 A1.6325 1.61026 0 0 1 16 66.6 C16.42 66.6 16.83 66.78 17.15
								 67.09 C17.52 67.45 17.71 67.93 17.69 68.4 A1.54379 1.52275 0 0 1 17.13 69.49 L5.4 81.06 a0.982728
								 0.969335 -180 0 0 -0.00115208 1.38071 L17.37 94.44 A1.71315 1.6898 0 0 1 17.36 96.82 C17.06 97.12
								 16.66 97.28 16.23 97.28 L16.05 97.27 Z" class="st3"/>
				</g>
			</g>
		</g>
	</g>
</svg>
