<?xml version="1.0" encoding="UTF-8" standalone="no"?>
<!DOCTYPE svg PUBLIC "-//W3C//DTD SVG 1.1//EN" "http://www.w3.org/Graphics/SVG/1.1/DTD/svg11.dtd">
<!-- Generated by Microsoft Visio, SVG Export Security Alert.svg Page-1 -->
<svg xmlns="http://www.w3.org/2000/svg" xmlns:xlink="http://www.w3.org/1999/xlink" xmlns:ev="http://www.w3.org/2001/xml-events"
		width="1.56403in" height="1.70721in" viewBox="0 0 112.61 122.919" xml:space="preserve" color-interpolation-filters="sRGB"
		class="st4">
	<style type="text/css">
	<![CDATA[
		.st1 {fill:#0078d4;stroke:none;stroke-linecap:butt;stroke-width:32.2105}
		.st2 {fill:url(#grad0-8);stroke:none;stroke-linecap:butt;stroke-width:32.2105}
		.st3 {fill:#ffffff;stroke:none;stroke-linecap:butt;stroke-width:32.2105}
		.st4 {fill:none;fill-rule:evenodd;font-size:12px;overflow:visible;stroke-linecap:square;stroke-miterlimit:3}
	]]>
	</style>

	<defs id="Patterns_And_Gradients">
		<linearGradient id="grad0-8" x1="0" y1="0" x2="1" y2="0" gradientTransform="rotate(90 0.5 0.5)">
			<stop offset="0.18" stop-color="#5ea0ef" stop-opacity="1"/>
			<stop offset="1" stop-color="#0078d4" stop-opacity="1"/>
		</linearGradient>
	</defs>
	<g>
		<title>Page-1</title>
		<g id="group2684-1" transform="translate(32.2105,-34.0157)">
			<title>Security Alert</title>
			<g id="group2685-2">
				<title>Sheet.2685</title>
				<g id="shape2686-3">
					<title>Sheet.2686</title>
					<path d="M48.19 92.67 C48.19 107.9 29.04 120.18 24.93 122.69 A1.44567 1.41743 0 0 1 23.34 122.69 C19.15 120.25
								 0 107.91 0 92.67 L0 74.37 A1.48688 1.45784 0 0 1 1.5 72.92 C16.38 72.55 12.9 66.23 24.06 66.23 C35.21
								 66.23 31.81 72.55 46.68 72.93 A1.54078 1.51068 0 0 1 48.19 74.37 L48.19 92.67 Z" class="st1"/>
				</g>
				<g id="shape2687-5" transform="translate(1.93073,-1.89065)">
					<title>Sheet.2687</title>
					<path d="M44.33 94.66 C44.33 108.98 26.69 120.41 22.88 122.74 A1.51859 1.48892 0 0 1 21.45 122.74 C17.64 120.4
								 0 108.9 0 94.66 L0 77.57 A1.3886 1.36148 0 0 1 1.35 76.25 C15.01 75.86 11.91 70.03 22.16 70.03 C32.41
								 70.03 29.31 75.93 42.98 76.25 A1.3886 1.36148 0 0 1 44.33 77.57 L44.33 94.66 Z" class="st2"/>
				</g>
				<g id="shape2688-9" transform="translate(21.2031,-17.008)">
					<title>Sheet.2688</title>
					<path d="M2.89 122.92 A2.89134 2.83486 -180 1 0 0 120.08 A2.89134 2.83486 -180 0 0 2.89 122.92 ZM4.34 115.36
								 L1.45 115.36 A1.4108 1.38324 0 0 1 -0 114.02 L0 95.91 A1.4108 1.38324 0 0 1 1.45 94.57 L4.34 94.57
								 A1.4108 1.38324 0 0 1 5.78 95.91 L5.78 114.02 A1.4108 1.38324 0 0 1 4.34 115.36 Z" class="st3"/>
				</g>
			</g>
		</g>
	</g>
</svg>
