<?xml version="1.0" encoding="UTF-8" standalone="no"?>
<!-- Generated by Microsoft Visio, SVG Export Security Baseline.svg Page-1 -->

<svg
   xmlns:dc="http://purl.org/dc/elements/1.1/"
   xmlns:cc="http://creativecommons.org/ns#"
   xmlns:rdf="http://www.w3.org/1999/02/22-rdf-syntax-ns#"
   xmlns:svg="http://www.w3.org/2000/svg"
   xmlns="http://www.w3.org/2000/svg"
   xmlns:sodipodi="http://sodipodi.sourceforge.net/DTD/sodipodi-0.dtd"
   xmlns:inkscape="http://www.inkscape.org/namespaces/inkscape"
   width="0.70864594in"
   height="0.78731692in"
   viewBox="0 0 51.0227 56.686903"
   xml:space="preserve"
   class="st6"
   version="1.1"
   id="svg39"
   sodipodi:docname="Security Baseline.svg"
   style="font-size:12px;overflow:visible;color-interpolation-filters:sRGB;fill:none;fill-rule:evenodd;stroke-linecap:square;stroke-miterlimit:3"
   inkscape:version="0.92.5 (2060ec1f9f, 2020-04-08)"><metadata
   id="metadata45"><rdf:RDF><cc:Work
       rdf:about=""><dc:format>image/svg+xml</dc:format><dc:type
         rdf:resource="http://purl.org/dc/dcmitype/StillImage" /></cc:Work></rdf:RDF></metadata><defs
   id="defs43" /><sodipodi:namedview
   pagecolor="#ffffff"
   bordercolor="#666666"
   borderopacity="1"
   objecttolerance="10"
   gridtolerance="10"
   guidetolerance="10"
   inkscape:pageopacity="0"
   inkscape:pageshadow="2"
   inkscape:window-width="640"
   inkscape:window-height="480"
   id="namedview41"
   showgrid="false"
   inkscape:zoom="1.3289007"
   inkscape:cx="34.015873"
   inkscape:cy="37.791228"
   inkscape:window-x="0"
   inkscape:window-y="0"
   inkscape:window-maximized="0"
   inkscape:current-layer="svg39" />
	<style
   type="text/css"
   id="style2">
	<![CDATA[
		.st1 {fill:#57a300;stroke:none;stroke-linecap:butt;stroke-width:38.25}
		.st2 {fill:#b8d432;fill-opacity:0.4;stroke:none;stroke-linecap:butt;stroke-width:38.25}
		.st3 {fill:#ffffff;stroke:none;stroke-linecap:butt;stroke-width:38.25}
		.st4 {fill:#3898c6;stroke:none;stroke-linecap:butt;stroke-width:38.25}
		.st5 {fill:#3999c6;stroke:none;stroke-linecap:butt;stroke-width:38.25}
		.st6 {fill:none;fill-rule:evenodd;font-size:12px;overflow:visible;stroke-linecap:square;stroke-miterlimit:3}
	]]>
	</style>

	<g
   id="g37"
   transform="translate(-38.25,-38.253149)">
		<title
   id="title4">Page-1</title>
		<g
   id="group13692-1"
   transform="translate(38.25,-38.25)">
			<title
   id="title6">Security Baseline.13692</title>
			<g
   id="group13693-2">
				<title
   id="title8">Sheet.13693</title>
				<g
   id="shape13694-3"
   transform="translate(0,-10.627)">
					<title
   id="title10">Sheet.13694</title>
					<path
   d="M 31.01,92.62 C 20.06,91.5 18.22,87.13 18.22,87.13 c 0,0 -2.46,5.75 -18.22,5.75 v 23.59 c 0,2.86 1.71,5.53 4.08,7.86 5.37,5.3 14.14,8.86 14.14,8.86 0,0 18.23,-7.39 18.23,-16.72 V 92.88 c -2.03,0 -3.83,-0.1 -5.44,-0.26 z"
   class="st1"
   id="path12"
   inkscape:connector-curvature="0"
   style="fill:#57a300;stroke:none;stroke-width:38.25;stroke-linecap:butt" />
				</g>
				<g
   id="shape13695-5"
   transform="translate(0,-19.4859)">
					<title
   id="title15">Sheet.13695</title>
					<path
   d="m 22.73,111.23 8.28,-9.76 c -10.95,-1.11 -12.79,-5.48 -12.79,-5.48 0,0 -2.46,5.75 -18.22,5.75 v 23.59 c 0,2.86 1.71,5.53 4.08,7.86 l 6.12,-7.2 z"
   class="st2"
   id="path17"
   inkscape:connector-curvature="0"
   style="fill:#b8d432;fill-opacity:0.4;stroke:none;stroke-width:38.25;stroke-linecap:butt" />
				</g>
				<g
   id="shape13696-7"
   transform="translate(21.8673,-3.37698)">
					<title
   id="title20">Sheet.13696</title>
					<path
   d="m 0,108.22 h 25.51 v 24.8 l -25.43,0.17 z"
   class="st3"
   id="path22"
   inkscape:connector-curvature="0"
   style="fill:#ffffff;stroke:none;stroke-width:38.25;stroke-linecap:butt" />
				</g>
				<g
   id="shape13697-9"
   transform="translate(25.5118,-7.08706)">
					<title
   id="title25">Sheet.13697</title>
					<path
   d="m 7.29,115.48 h 10.93 v 3.54 H 7.29 Z m 0,7.08 h 10.93 v 3.55 H 7.29 Z m 0,7.09 h 10.93 v 3.54 H 7.29 Z M 0,115.48 h 3.64 v 3.54 H 0 Z m 0,7.08 h 3.64 v 3.55 H 0 Z m 0,7.09 h 3.64 v 3.54 H 0 Z"
   class="st4"
   id="path27"
   inkscape:connector-curvature="0"
   style="fill:#3898c6;stroke:none;stroke-width:38.25;stroke-linecap:butt" />
				</g>
				<g
   id="shape13698-11"
   transform="translate(18.2227)">
					<title
   id="title30">Sheet.13698</title>
					<path
   d="M 31.54,97.76 H 1.26 A 1.25737,1.22252 -180 0 0 0,98.98 v 32.99 c 0,0.68 0.56,1.22 1.26,1.22 h 30.27 a 1.26101,1.22606 -180 0 0 1.27,-1.22 V 98.98 a 1.25737,1.22252 -180 0 0 -1.26,-1.22 z m -27.9,31.89 v -24.81 h 25.52 v 24.81 z"
   class="st5"
   id="path32"
   inkscape:connector-curvature="0"
   style="fill:#3999c6;stroke:none;stroke-width:38.25;stroke-linecap:butt" />
				</g>
			</g>
		</g>
	</g>
</svg>