<?xml version="1.0" encoding="UTF-8" standalone="no"?>
<!DOCTYPE svg PUBLIC "-//W3C//DTD SVG 1.1//EN" "http://www.w3.org/Graphics/SVG/1.1/DTD/svg11.dtd">
<!-- Generated by Microsoft Visio, SVG Export API Management Pricing Tier.svg Page-1 -->
<svg xmlns="http://www.w3.org/2000/svg" xmlns:xlink="http://www.w3.org/1999/xlink" xmlns:ev="http://www.w3.org/2001/xml-events"
		width="1.46618in" height="1.48467in" viewBox="0 0 105.565 106.897" xml:space="preserve" color-interpolation-filters="sRGB"
		class="st4">
	<style type="text/css">
	<![CDATA[
		.st1 {fill:url(#grad0-6);stroke:none;stroke-linecap:butt;stroke-width:21.8571}
		.st2 {fill:#50e6ff;stroke:none;stroke-linecap:butt;stroke-width:21.8571}
		.st3 {fill:#ffffff;stroke:none;stroke-linecap:butt;stroke-width:21.8571}
		.st4 {fill:none;fill-rule:evenodd;font-size:12px;overflow:visible;stroke-linecap:square;stroke-miterlimit:3}
	]]>
	</style>

	<defs id="Patterns_And_Gradients">
		<linearGradient id="grad0-6" x1="0" y1="0" x2="1" y2="0" gradientTransform="rotate(-90 0.5 0.5)">
			<stop offset="0" stop-color="#0078d4" stop-opacity="1"/>
			<stop offset="1" stop-color="#5ea0ef" stop-opacity="1"/>
		</linearGradient>
	</defs>
	<g>
		<title>Page-1</title>
		<g id="group14177-1" transform="translate(27.0151,-34.0157)">
			<title>API Management Pricing Tier.14177</title>
			<g id="group14178-2">
				<title>Sheet.14178</title>
				<g id="shape14179-3" transform="translate(10.9039,-28.7449)">
					<title>Sheet.14179</title>
					<path d="M0 104.72 A2.23781 2.17763 -180 0 0 2.24 106.9 L43.55 106.9 A2.23781 2.17763 -180 0 0 45.79 104.72 L45.79
								 86.8 A2.23781 2.17763 -180 0 0 43.55 84.62 L2.24 84.62 A2.23781 2.17763 -180 0 0 0 86.8 L0 104.72
								 Z" class="st1"/>
				</g>
				<g id="shape14180-7" transform="translate(10.9039,-18.1902)">
					<title>Sheet.14180</title>
					<path d="M0 104.72 A2.23781 2.17763 -180 0 0 2.24 106.9 L43.55 106.9 A2.23781 2.17763 -180 0 0 45.79 104.72 L45.79
								 86.8 A2.23781 2.17763 -180 0 0 43.55 84.62 L2.24 84.62 A2.23781 2.17763 -180 0 0 0 86.8 L0 104.72
								 Z" class="st1"/>
				</g>
				<g id="shape14181-10" transform="translate(10.9039,0)">
					<title>Sheet.14181</title>
					<path d="M0 104.72 A2.23781 2.17763 -180 0 0 2.24 106.9 L43.55 106.9 A2.23781 2.17763 -180 0 0 45.79 104.72 L45.79
								 79.02 A2.23781 2.17763 -180 0 0 43.55 76.84 L2.24 76.84 A2.23781 2.17763 -180 0 0 0 79.02 L0 104.72
								 Z" class="st1"/>
				</g>
				<g id="shape14182-13" transform="translate(0.435024,-17.5542)">
					<title>Sheet.14182</title>
					<path d="M12.02 78.66 A16.9964 16.5393 -180 1 0 29.01 95.2 A16.9964 16.5393 -180 0 0 12.02 78.66 Z" class="st2"/>
				</g>
				<g id="shape14183-15" transform="translate(2.81775E-13,-12.1132)">
					<title>Sheet.14183</title>
					<path d="M12.45 106.9 A17.6105 17.1369 0 1 1 30.06 89.76 A17.6303 17.1562 0 0 1 12.45 106.9 ZM12.45 73.82 A16.3822
								 15.9417 -180 1 0 28.83 89.76 A16.4021 15.961 -180 0 0 12.45 73.82 Z" class="st3"/>
				</g>
				<g id="shape14184-17" transform="translate(6.82164,-17.5162)">
					<title>Sheet.14184</title>
					<path d="M6.89 84.53 A1.59934 1.55633 0 1 1 5.29 82.97 A1.59934 1.55633 0 0 1 6.89 84.53 ZM6.82 105.8 A1.59934
								 1.55633 0 1 1 5.23 104.24 A1.59934 1.55633 0 0 1 6.82 105.8 ZM0.05 102.25 L0.05 98.78 A6.84802 6.66385
								 -180 0 0 2.16 99.97 A6.77512 6.59292 -180 0 0 4.46 100.38 A5.14044 5.00219 -180 0 0 5.65 100.26
								 A2.83199 2.75583 -180 0 0 6.5 99.93 A1.50656 1.46605 -180 0 0 7.01 99.43 A1.29008 1.25538 -180 0
								 0 7.17 98.81 A1.37623 1.33922 -180 0 0 6.91 97.99 A2.87175 2.79452 -180 0 0 6.18 97.33 A7.58142
								 7.37753 -180 0 0 5.08 96.74 C4.65 96.55 4.19 96.36 3.7 96.16 A7.00266 6.81433 0 0 1 0.91 94.29 A4.17067
								 4.0585 0 0 1 -0 91.64 A4.34076 4.22402 0 0 1 0.51 89.55 A4.23915 4.12514 0 0 1 1.88 88.11 A6.0616
								 5.89859 0 0 1 3.89 87.29 A10.261 9.98503 0 0 1 6.3 87.03 A14.5797 14.1876 0 0 1 8.51 87.18 A8.79419
								 8.55768 0 0 1 10.28 87.64 L10.28 90.89 A5.24647 5.10537 -180 0 0 9.39 90.41 A6.86128 6.67675 -180
								 0 0 8.45 90.06 A7.05125 6.86162 -180 0 0 7.46 89.85 A7.17496 6.982 -180 0 0 6.51 89.78 A4.9615 4.82807
								 -180 0 0 5.4 89.89 A2.8585 2.78162 -180 0 0 4.55 90.21 A1.60376 1.56063 -180 0 0 4.01 90.7 A1.18846
								 1.1565 -180 0 0 3.82 91.35 A1.27682 1.24249 -180 0 0 4.04 92.05 A2.46087 2.39469 -180 0 0 4.64 92.64
								 A6.31785 6.14794 -180 0 0 5.59 93.18 C5.96 93.36 6.38 93.54 6.85 93.74 A13.9169 13.5427 0 0 1 8.57
								 94.57 A6.19636 6.02971 0 0 1 9.88 95.57 A3.99394 3.88653 0 0 1 10.71 96.84 A5.19566 5.05593 0 0
								 1 10.49 100.68 A4.12207 4.01121 0 0 1 9.11 102.11 A5.98208 5.8212 0 0 1 7.08 102.89 A11.7477 11.4317
								 0 0 1 4.65 103.13 A13.4354 13.0741 0 0 1 2.15 102.91 A7.51073 7.30874 0 0 1 0.05 102.25 Z"
							class="st3"/>
				</g>
			</g>
		</g>
	</g>
</svg>
