<?xml version="1.0" encoding="UTF-8" standalone="no"?>
<!DOCTYPE svg PUBLIC "-//W3C//DTD SVG 1.1//EN" "http://www.w3.org/Graphics/SVG/1.1/DTD/svg11.dtd">
<!-- Generated by Microsoft Visio, SVG Export Application Service Event.svg Page-1 -->
<svg xmlns="http://www.w3.org/2000/svg" xmlns:xlink="http://www.w3.org/1999/xlink" xmlns:ev="http://www.w3.org/2001/xml-events"
		width="1.45626in" height="1.73213in" viewBox="0 0 104.85 124.713" xml:space="preserve" color-interpolation-filters="sRGB"
		class="st2">
	<style type="text/css">
	<![CDATA[
		.st1 {fill:url(#grad1-6);stroke:none;stroke-linecap:butt;stroke-width:34}
		.st2 {fill:none;fill-rule:evenodd;font-size:12px;overflow:visible;stroke-linecap:square;stroke-miterlimit:3}
	]]>
	</style>

	<defs id="Patterns_And_Gradients">
		<radialGradient id="grad1-6" cx="1" cy="1" r="1.4">
			<stop offset="0.195" stop-color="#ffd70f" stop-opacity="1"/>
			<stop offset="0.44" stop-color="#ffcb12" stop-opacity="1"/>
			<stop offset="0.875" stop-color="#feac19" stop-opacity="1"/>
			<stop offset="1" stop-color="#fea11b" stop-opacity="1"/>
		</radialGradient>
	</defs>
	<g>
		<title>Page-1</title>
		<g id="group13744-1" transform="translate(34,-34.0157)">
			<title>Application Service Event.13744</title>
			<g id="group13745-2">
				<title>MsPortalFx.base.images-37</title>
				<g id="shape13746-3">
					<title>Sheet.13746</title>
					<path d="M15.53 98.95 L0.83 98.95 a0.759507 0.738398 0 0 1 -0.832598 -0.617906 a0.556124 0.540668 0 0 1 0.0730906
								 -0.26261 L17.71 68.39 a0.870732 0.846532 0 0 1 0.759507 -0.370744 L35.85 68.02 a0.756329 0.735309
								 0 0 1 0.832598 0.617906 a0.56248 0.546847 0 0 1 -0.146181 0.367654 L15.84 92.22 L36.02 92.22 a0.759507
								 0.738398 0 0 1 0.832598 0.617906 a0.587903 0.571563 0 0 1 -0.212916 0.423266 L3.09 122.98 C2.77
								 123.13 0.55 124.71 1.64 122.32 L15.53 98.95 Z" class="st1"/>
				</g>
			</g>
		</g>
	</g>
</svg>
