<?xml version="1.0" encoding="UTF-8" standalone="no"?>
<!DOCTYPE svg PUBLIC "-//W3C//DTD SVG 1.1//EN" "http://www.w3.org/Graphics/SVG/1.1/DTD/svg11.dtd">
<!-- Generated by Microsoft Visio, SVG Export Automation Start Stop VM.svg Page-1 -->
<svg xmlns="http://www.w3.org/2000/svg" xmlns:xlink="http://www.w3.org/1999/xlink" xmlns:ev="http://www.w3.org/2001/xml-events"
		width="1.1274in" height="1.42984in" viewBox="0 0 81.1729 102.949" xml:space="preserve" color-interpolation-filters="sRGB"
		class="st6">
	<style type="text/css">
	<![CDATA[
		.st1 {fill:#dd5900;stroke:none;stroke-linecap:butt;stroke-width:12.24}
		.st2 {fill:#3999c6;stroke:none;stroke-linecap:butt;stroke-width:12.24}
		.st3 {fill:#ffffff;stroke:none;stroke-linecap:butt;stroke-width:12.24}
		.st4 {fill:#ffffff;stroke:none;stroke-linecap:butt;stroke-width:13.6988}
		.st5 {fill:#ffffff;stroke:none;stroke-linecap:butt;stroke-width:12.4077}
		.st6 {fill:none;fill-rule:evenodd;font-size:12px;overflow:visible;stroke-linecap:square;stroke-miterlimit:3}
	]]>
	</style>

	<g>
		<title>Page-1</title>
		<g id="group8567-1" transform="translate(12.24,-34.0157)">
			<title>Automation Start Stop VM</title>
			<g id="group8568-2">
				<title>g20</title>
				<g id="shape8569-3">
					<title>path4</title>
					<path d="M0 66.67 L17.01 66.67 L17.01 83.67 L0 83.67 L0 66.67 ZM0 85.94 L17.01 85.94 L17.01 102.95 L0 102.95
								 L0 85.94 ZM19.28 85.94 L36.28 85.94 L36.28 102.95 L19.28 102.95 L19.28 85.94 Z" class="st1"/>
				</g>
				<g id="shape8570-5" transform="translate(19.2756,-19.2756)">
					<title>path6</title>
					<path d="M18.71 65.53 C8.24 65.53 0 73.77 0 84.24 L0 102.95 L18.71 102.95 C29.18 102.95 37.42 94.71 37.42 84.24
								 C37.42 73.77 29.18 65.53 18.71 65.53 Z" class="st2"/>
				</g>
				<g id="shape8571-7" transform="translate(22.6772,-24.9449)">
					<title>circle8</title>
					<ellipse cx="3.40157" cy="99.5471" rx="3.40157" ry="3.40157" class="st3"/>
				</g>
				<g id="shape8572-9" transform="translate(38.5512,-28.3465)">
					<title>circle10</title>
					<ellipse cx="3.40157" cy="99.5471" rx="3.40157" ry="3.40157" class="st3"/>
				</g>
				<g id="shape8573-11" transform="translate(30.6142,-37.4173)">
					<title>circle12</title>
					<ellipse cx="3.40157" cy="99.5471" rx="3.40157" ry="3.40157" class="st3"/>
				</g>
				<g id="shape8574-13" transform="translate(45.3543,-40.8189)">
					<title>circle16</title>
					<ellipse cx="3.40157" cy="99.5471" rx="3.40157" ry="3.40157" class="st3"/>
				</g>
				<g id="shape8575-15" transform="translate(42.0166,-34.0545)">
					<title>path5229</title>
					<path d="M0 102.01 L4.32 94.84 L6.2 95.99 L2.04 102.95 L0 102.01 Z" class="st3"/>
				</g>
				<g id="shape8576-17" transform="translate(26.2891,-30.3235)">
					<title>path5229-2</title>
					<path d="M0 101.9 L4.84 93.9 L6.96 95.18 L2.29 102.95 L0 101.9 Z" class="st4"/>
				</g>
				<g id="shape8577-19" transform="translate(35.2434,-32.6808)">
					<title>path5229-7</title>
					<path d="M0.79 95.33 L6.77 100.63 L5.81 102.95 L0 97.84 L0.79 95.33 Z" class="st5"/>
				</g>
			</g>
		</g>
	</g>
</svg>
