<?xml version="1.0" encoding="UTF-8" standalone="no"?>
<!DOCTYPE svg PUBLIC "-//W3C//DTD SVG 1.1//EN" "http://www.w3.org/Graphics/SVG/1.1/DTD/svg11.dtd">
<!-- Generated by Microsoft Visio, SVG Export Azure Percept Speech.svg Page-1 -->
<svg xmlns="http://www.w3.org/2000/svg" xmlns:xlink="http://www.w3.org/1999/xlink" xmlns:ev="http://www.w3.org/2001/xml-events"
		width="0.944882in" height="1.16535in" viewBox="0 0 68.0315 83.9055" xml:space="preserve" color-interpolation-filters="sRGB"
		class="st7">
	<style type="text/css">
	<![CDATA[
		.st1 {fill:url(#grad0-6);stroke:none;stroke-linecap:butt;stroke-width:0.75}
		.st2 {fill:#ffffff;fill-opacity:0.8;stroke:none;stroke-linecap:butt;stroke-width:0.75}
		.st3 {fill:#ffffff;fill-opacity:0.6;stroke:none;stroke-linecap:butt;stroke-width:0.75}
		.st4 {fill:#ffffff;fill-opacity:0.4;stroke:none;stroke-linecap:butt;stroke-width:0.75}
		.st5 {fill:#50e6ff;stroke:none;stroke-linecap:butt;stroke-width:0.75}
		.st6 {fill:#ffffff;stroke:none;stroke-linecap:butt;stroke-width:0.75}
		.st7 {fill:none;fill-rule:evenodd;font-size:12px;overflow:visible;stroke-linecap:square;stroke-miterlimit:3}
	]]>
	</style>

	<defs id="Patterns_And_Gradients">
		<linearGradient id="grad0-6" x1="0" y1="0" x2="1" y2="0" gradientTransform="rotate(90 0.5 0.5)">
			<stop offset="0" stop-color="#5ea0ef" stop-opacity="1"/>
			<stop offset="1" stop-color="#0078d4" stop-opacity="1"/>
		</linearGradient>
	</defs>
	<g>
		<title>Page-1</title>
		<g id="group7348-1" transform="translate(5.66929,-34.0157)">
			<title>Azure Percept Speech</title>
			<g id="group7349-2">
				<title>a6a92309-3633-4dc9-b48f-6bfbef8</title>
				<g id="shape7350-3">
					<title>Sheet.7350</title>
					<path d="M47.4 47.16 L47.4 75.63 A2.74646 2.34892 0 0 1 44.65 77.98 L30.9 77.98 a0.456693 0.390589 -180 0 0 -0.456693
								 0.390589 L30.44 83.2 a0.916535 0.783871 0 0 1 -1.47087 0.622248 L20.17 78.06 a0.440945 0.37712 -180
								 0 0 -0.277165 -0.0808115 L2.75 77.98 A2.75906 2.35969 0 0 1 0 75.63 L0 47.16 A2.74961 2.35161 0
								 0 1 2.75 44.81 L44.64 44.81 A2.75591 2.357 0 0 1 47.4 47.16 Z" class="st1"/>
				</g>
				<g id="group7351-7" transform="translate(10.5606,-14.1369)">
					<title>Sheet.7351</title>
					<g id="shape7352-8" transform="translate(0,-5.05072)">
						<title>Sheet.7352</title>
						<path d="M1.03 83.91 a1.02362 0.875457 0 0 1 -1.02677 -0.875457 L0 76.01 a1.02677 0.878151 0 0 1 2.05354
									 0 L2.05 83.03 a1.02362 0.875457 0 0 1 -1.02677 0.875457 Z" class="st2"/>
					</g>
					<g id="shape7353-10" transform="translate(4.84409,-1.42498)">
						<title>Sheet.7353</title>
						<path d="M1.03 83.91 a1.02677 0.878151 0 0 1 -1.02677 -0.878151 L0 69.48 a1.02677 0.878151 0 1 1 2.05354
									 -1.42109E-14 L2.05 83.03 a1.02677 0.878151 0 0 1 -1.02677 0.878151 Z" class="st2"/>
					</g>
					<g id="shape7354-12" transform="translate(14.5323,0)">
						<title>Sheet.7354</title>
						<path d="M1.03 83.91 a1.02677 0.878151 0 0 1 -1.02677 -0.878151 L0 66.5 a1.02677 0.878151 0 0 1 2.05354 0
									 L2.05 83.03 a1.02677 0.878151 0 0 1 -1.02677 0.878151 Z" class="st3"/>
					</g>
					<g id="shape7355-14" transform="translate(19.3795,-2.788)">
						<title>Sheet.7355</title>
						<path d="M1.03 83.91 a1.02362 0.875457 0 0 1 -1.02677 -0.875457 L0 72.14 a1.02677 0.878151 0 1 1 2.05039
									 -1.42109E-14 L2.05 83.04 a1.02047 0.872764 0 0 1 -1.02362 0.861989 Z" class="st4"/>
					</g>
					<g id="shape7356-16" transform="translate(9.68819,-4.14293)">
						<title>Sheet.7356</title>
						<path d="M1.03 83.91 a1.02677 0.878151 0 0 1 -1.02677 -0.878151 L0 73.5 a1.02677 0.878151 0 0 1 2.05354 0
									 L2.05 83.03 a1.02677 0.878151 0 0 1 -1.02677 0.878151 Z" class="st3"/>
					</g>
					<g id="shape7357-18" transform="translate(24.2236,-0.956269)">
						<title>Sheet.7357</title>
						<path d="M1.03 83.91 a1.02362 0.875457 0 0 1 -1.02677 -0.875457 L0 68.69 a1.02677 0.878151 0 1 1 2.05039
									 -1.42109E-14 L2.05 83.03 a1.02047 0.872764 0 0 1 -1.02362 0.878151 Z" class="st4"/>
					</g>
				</g>
				<g id="shape7358-20" transform="translate(27.1244,-20.0657)">
					<title>Sheet.7358</title>
					<ellipse cx="14.7843" cy="71.2612" rx="14.7843" ry="12.6443" class="st5"/>
				</g>
				<g id="shape7359-22" transform="translate(34.252,-26.1813)">
					<title>Sheet.7359</title>
					<path d="M15.2 77.66 A10.4283 8.91889 0 0 1 14.99 79.44 A11.1181 9.50881 0 0 1 14.39 81.14 A9.89921 8.46635 0
								 0 1 13.41 82.7 A11.7449 10.0449 0 0 1 12.41 83.78 a0.462992 0.395976 0 0 1 -0.670866 -1.42109E-14
								 L11.65 83.7 a0.469291 0.401364 0 0 1 -3.55271E-15 -0.557599 A9.1748 7.84679 -180 0 0 12.53 82.19
								 A9.35433 8.00033 -180 0 0 13.95 79.25 A9.59055 8.20236 -180 0 0 13.95 76.04 A9.04252 7.73366 -180
								 0 0 13.41 74.52 A9.76378 8.35052 -180 0 0 12.53 73.11 A9.00472 7.70133 -180 0 0 11.65 72.14 a0.475591
								 0.406751 0 0 1 2.84217E-14 -0.560293 L11.74 71.5 a0.466142 0.39867 0 0 1 0.670866 -4.26326E-14 A10.5701
								 9.04011 0 0 1 13.41 72.58 A10.1921 8.71686 0 0 1 14.38 74.14 A11.4016 9.75125 0 0 1 14.99 75.84
								 A9.68504 8.28317 0 0 1 15.2 77.66 ZM11.69 75.22 A7.55906 6.46492 -180 0 0 10.41 73.46 a0.459843
								 0.393282 -180 0 0 -0.674016 0 L9.64 73.54 a0.462992 0.395976 -180 0 0 -0.0283465 0.538743 A6.3748
								 5.45208 0 0 1 9.61 81.27 a0.459843 0.393282 -180 0 0 0.0283465 0.538743 L9.73 81.89 a0.466142 0.39867
								 -180 0 0 0.674016 0 A7.55906 6.46492 -180 0 0 11.69 80.12 A7.48661 6.40296 -180 0 0 11.69 75.25
								 L11.69 75.22 ZM8 75.98 A3.21575 2.75028 0 0 1 8.43 76.61 A3.21575 2.75028 0 0 1 8.43 78.71 A3.07717
								 2.63176 0 0 1 8 79.34 a0.462992 0.395976 -180 0 0 0.0440945 0.519887 L8.14 79.93 a0.472441 0.404057
								 -180 0 0 0.699213 -0.0242434 A3.98425 3.40755 -180 0 0 9.42 79.06 A4.25827 3.6419 -180 0 0 9.73
								 77.67 A4.3748 3.74157 -180 0 0 9.42 76.28 A4.14488 3.54493 -180 0 0 8.84 75.43 a0.469291 0.401364
								 -180 0 0 -0.699213 -0.0350183 L8.05 75.47 a0.459843 0.393282 -180 0 0 -0.0503937 0.509112 ZM2.06
								 74.93 L0.94 74.93 a0.944882 0.808115 -180 0 0 -0.944882 0.808115 L0 79.59 a0.944882 0.808115 -180
								 0 0 0.944882 0.808115 L2.06 80.4 a0.944882 0.808115 0 0 1 0.661417 0.234353 L5.51 83.01 a0.469291
								 0.401364 -180 0 0 0.330709 0.118523 a0.554331 0.474094 -180 0 0 0.554331 -0.476788 L6.39 72.68 a0.56378
								 0.482175 -180 0 0 -0.56063 -0.482175 a0.459843 0.393282 -180 0 0 -0.330709 0.118523 L2.72 74.7 a0.944882
								 0.808115 0 0 1 -0.661417 0.23166 Z" class="st6"/>
				</g>
			</g>
		</g>
	</g>
</svg>
