<?xml version="1.0" encoding="UTF-8" standalone="no"?>
<!DOCTYPE svg PUBLIC "-//W3C//DTD SVG 1.1//EN" "http://www.w3.org/Graphics/SVG/1.1/DTD/svg11.dtd">
<!-- Generated by Microsoft Visio, SVG Export Cognitive Services Model Optimisation.svg Page-1 -->
<svg xmlns="http://www.w3.org/2000/svg" xmlns:xlink="http://www.w3.org/1999/xlink" xmlns:ev="http://www.w3.org/2001/xml-events"
		width="1.13434in" height="1.43331in" viewBox="0 0 81.6725 103.198" xml:space="preserve" color-interpolation-filters="sRGB"
		class="st3">
	<style type="text/css">
	<![CDATA[
		.st1 {fill:#0078d4;stroke:none;stroke-linecap:butt;stroke-width:12.4898}
		.st2 {fill:#50e6ff;stroke:none;stroke-linecap:butt;stroke-width:12.4898}
		.st3 {fill:none;fill-rule:evenodd;font-size:12px;overflow:visible;stroke-linecap:square;stroke-miterlimit:3}
	]]>
	</style>

	<g>
		<title>Page-1</title>
		<g id="group6079-1" transform="translate(12.4898,-34.0157)">
			<title>Cognitive Services Model Optimisation</title>
			<g id="shape6080-2" transform="translate(42.2741,-42.2886)">
				<title>Sheet.6080</title>
				<path d="M0 88.79 L14.42 88.79 L14.42 103.2 L8.45 103.2 L8.45 94.75 L0 94.75 L0 88.79 Z" class="st1"/>
			</g>
			<g id="shape6081-4" transform="translate(2.80775E-13,-42.2886)">
				<title>Sheet.6081</title>
				<path d="M5.97 103.2 L0 103.2 L0 88.79 L14.42 88.79 L14.42 94.75 L5.97 94.75 L5.97 103.2 Z" class="st1"/>
			</g>
			<g id="shape6082-6" transform="translate(42.2741,2.84217E-13)">
				<title>Sheet.6082</title>
				<path d="M8.45 88.79 L14.42 88.79 L14.42 103.2 L0 103.2 L0 97.24 L8.45 97.24 L8.45 88.79 Z" class="st1"/>
			</g>
			<g id="shape6083-8" transform="translate(0.00057756,2.84217E-13)">
				<title>Sheet.6083</title>
				<path d="M0 103.2 L0 88.79 L5.97 88.79 L5.97 97.24 L14.42 97.24 L14.42 103.2 L0 103.2 Z" class="st1"/>
			</g>
			<g id="shape6084-10" transform="translate(11.442,-8.51507)">
				<title>Sheet.6084</title>
				<path d="M0 103.2 C0 93.75 7.65 86.11 17.11 86.11 C26.57 86.11 34.22 93.75 34.22 103.2 L0 103.2 Z" class="st2"/>
			</g>
			<g id="shape6085-12" transform="translate(18.9669,-30.2348)">
				<title>Sheet.6085</title>
				<path d="M19.14 93.64 C19.14 98.91 14.85 103.2 9.57 103.2 C4.29 103.2 0 98.91 0 93.64 C0 88.36 4.29 84.08 9.57 84.08
							 C14.85 84.08 19.14 88.36 19.14 93.64 Z" class="st2"/>
			</g>
		</g>
	</g>
</svg>
