<?xml version="1.0" encoding="UTF-8" standalone="no"?>
<!DOCTYPE svg PUBLIC "-//W3C//DTD SVG 1.1//EN" "http://www.w3.org/Graphics/SVG/1.1/DTD/svg11.dtd">
<!-- Generated by Microsoft Visio, SVG Export Cognitive Services QnA Extracter.svg Page-1 -->
<svg xmlns="http://www.w3.org/2000/svg" xmlns:xlink="http://www.w3.org/1999/xlink" xmlns:ev="http://www.w3.org/2001/xml-events"
		width="1.14143in" height="1.43693in" viewBox="0 0 82.183 103.459" xml:space="preserve" color-interpolation-filters="sRGB"
		class="st3">
	<style type="text/css">
	<![CDATA[
		.st1 {fill:#50e6ff;stroke:none;stroke-linecap:butt;stroke-width:12.75}
		.st2 {fill:#0078d4;stroke:none;stroke-linecap:butt;stroke-width:12.75}
		.st3 {fill:none;fill-rule:evenodd;font-size:12px;overflow:visible;stroke-linecap:square;stroke-miterlimit:3}
	]]>
	</style>

	<g>
		<title>Page-1</title>
		<g id="group6045-1" transform="translate(12.75,-34.0157)">
			<title>Cognitive Services QnA Extracter</title>
			<g id="shape6046-2" transform="translate(41.7227,-41.5774)">
				<title>Sheet.6046</title>
				<path d="M7.48 103.46 C3.35 103.46 0 100.11 0 95.97 C0 91.84 3.35 88.49 7.48 88.49 C11.61 88.49 14.96 91.84 14.96
							 95.97 C14.97 100.11 11.62 103.46 7.48 103.46 Z" class="st1"/>
			</g>
			<g id="shape6047-4" transform="translate(41.7227,-20.8027)">
				<title>Sheet.6047</title>
				<path d="M7.48 103.46 C3.35 103.46 0 100.11 0 95.97 C0 91.84 3.35 88.49 7.48 88.49 C11.61 88.49 14.96 91.84 14.96
							 95.97 C14.97 100.1 11.62 103.46 7.48 103.46 Z" class="st1"/>
			</g>
			<g id="shape6048-6" transform="translate(0,-20.8723)">
				<title>Sheet.6048</title>
				<path d="M14.89 88.56 L0 88.56 L0 103.46 L14.89 103.46 L14.89 88.56 Z" class="st2"/>
			</g>
			<g id="shape6049-8" transform="translate(0,-41.7946)">
				<title>Sheet.6049</title>
				<path d="M14.89 88.56 L0 88.56 L0 103.46 L14.89 103.46 L14.89 88.56 Z" class="st2"/>
			</g>
			<g id="shape6050-10">
				<title>Sheet.6050</title>
				<path d="M14.89 88.56 L0 88.56 L0 103.46 L14.89 103.46 L14.89 88.56 Z" class="st2"/>
			</g>
			<g id="shape6051-12" transform="translate(41.7227,-0.0418108)">
				<title>Sheet.6051</title>
				<path d="M7.48 103.46 C3.35 103.46 0 100.11 0 95.97 C0 91.84 3.35 88.49 7.48 88.49 C11.61 88.49 14.96 91.84 14.96
							 95.97 C14.97 100.11 11.62 103.46 7.48 103.46 Z" class="st1"/>
			</g>
			<g id="shape6052-14" transform="translate(22.4607,-1.25645)">
				<title>Sheet.6052</title>
				<path d="M14.86 97.41 L8.8 91.34 L8.8 94.37 L0 94.37 L0 100.43 L8.8 100.43 L8.8 103.46 L14.86 97.41 Z" class="st2"/>
			</g>
			<g id="shape6053-16" transform="translate(22.4607,-22.1234)">
				<title>Sheet.6053</title>
				<path d="M14.86 97.41 L8.8 91.34 L8.8 94.37 L0 94.37 L0 100.43 L8.8 100.43 L8.8 103.46 L14.86 97.41 Z" class="st2"/>
			</g>
			<g id="shape6054-18" transform="translate(22.4607,-43.0588)">
				<title>Sheet.6054</title>
				<path d="M14.86 97.4 L8.8 91.33 L8.8 94.36 L0 94.36 L0 100.43 L8.8 100.43 L8.8 103.46 L14.86 97.4 Z" class="st2"/>
			</g>
		</g>
	</g>
</svg>
