<?xml version="1.0" encoding="UTF-8" standalone="no"?>
<!DOCTYPE svg PUBLIC "-//W3C//DTD SVG 1.1//EN" "http://www.w3.org/Graphics/SVG/1.1/DTD/svg11.dtd">
<!-- Generated by Microsoft Visio, SVG Export Machine Learning Studio Web Service Plan (classic).svg Page-1 -->
<svg xmlns="http://www.w3.org/2000/svg" xmlns:xlink="http://www.w3.org/1999/xlink" xmlns:ev="http://www.w3.org/2001/xml-events"
		width="1.72684in" height="1.73206in" viewBox="0 0 124.333 124.709" xml:space="preserve" color-interpolation-filters="sRGB"
		class="st8">
	<style type="text/css">
	<![CDATA[
		.st1 {fill:#0078d4;stroke:none;stroke-linecap:butt;stroke-width:34}
		.st2 {fill:url(#grad0-8);stroke:none;stroke-linecap:butt;stroke-width:34}
		.st3 {fill:#5ea0ef;stroke:none;stroke-linecap:butt;stroke-width:34}
		.st4 {fill:#005ba1;stroke:none;stroke-linecap:butt;stroke-width:34}
		.st5 {fill:#767676;stroke:none;stroke-linecap:butt;stroke-width:34}
		.st6 {fill:url(#grad0-22);stroke:none;stroke-linecap:butt;stroke-width:34}
		.st7 {fill:#ffffff;stroke:none;stroke-linecap:butt;stroke-width:34}
		.st8 {fill:none;fill-rule:evenodd;font-size:12px;overflow:visible;stroke-linecap:square;stroke-miterlimit:3}
	]]>
	</style>

	<defs id="Patterns_And_Gradients">
		<linearGradient id="grad0-8" x1="0" y1="0" x2="1" y2="0" gradientTransform="rotate(90 0.5 0.5)">
			<stop offset="0" stop-color="#ffffff" stop-opacity="1"/>
			<stop offset="0.56" stop-color="#fbfbfb" stop-opacity="1"/>
			<stop offset="1" stop-color="#f2f2f2" stop-opacity="1"/>
		</linearGradient>
		<linearGradient id="grad0-22" x1="0" y1="0" x2="1" y2="0" gradientTransform="rotate(89.420845508255 0.5 0.5)">
			<stop offset="0" stop-color="#32d4f5" stop-opacity="1"/>
			<stop offset="0.32" stop-color="#31d1f3" stop-opacity="1"/>
			<stop offset="0.53" stop-color="#2ec9eb" stop-opacity="1"/>
			<stop offset="0.7" stop-color="#29bade" stop-opacity="1"/>
			<stop offset="0.86" stop-color="#22a5cb" stop-opacity="1"/>
			<stop offset="1" stop-color="#198ab3" stop-opacity="1"/>
			<stop offset="1" stop-color="#198ab3" stop-opacity="1"/>
		</linearGradient>
	</defs>
	<g>
		<title>Page-1</title>
		<g id="group3269-1" transform="translate(33.6349,-34.0157)">
			<title>Machine Learning Studio Web Service Plan (classic)</title>
			<g id="group3270-2">
				<title>Icon-machinelearning-168</title>
				<g id="shape3271-3" transform="translate(5.86478,-25.2453)">
					<title>Sheet.3271</title>
					<path d="M25.41 93.26 C40.72 93.26 50.07 104.93 50.83 120.52 A3.94299 3.98963 0 0 1 46.89 124.71 L3.81 124.71
								 A3.90986 3.9561 0 0 1 0 120.52 C0.76 104.93 10.11 93.26 25.41 93.26 Z" class="st1"/>
				</g>
				<g id="shape3272-5" transform="translate(8.64807,-27.8939)">
					<title>Sheet.3272</title>
					<path d="M1.13 124.71 A1.29224 1.30752 0 0 1 0 123.3 C0.56 108.25 10.8 98.56 22.63 98.56 C34.46 98.56 44.7 108.25
								 45.43 123.3 A1.55732 1.57573 0 0 1 45.06 124.31 A1.45791 1.47516 0 0 1 44.1 124.71 L1.13 124.71
								 Z" class="st2"/>
				</g>
				<g id="shape3273-9" transform="translate(32.5711,-39.4604)">
					<title>Sheet.3273</title>
					<path d="M11.03 118.44 A18.6215 18.8418 -180 0 0 -0 113.68 L0 122.5 A10.1723 10.2926 0 0 1 5.14 124.71 L11.03
								 118.44 Z" class="st3"/>
				</g>
				<g id="shape3274-11" transform="translate(18.9529,-39.5945)">
					<title>Sheet.3274</title>
					<path d="M0 118.57 L5.9 124.71 A9.94031 10.0579 0 0 1 11 122.63 L11 113.81 A18.4558 18.6741 -180 0 0 -0 118.57
								 Z" class="st1"/>
				</g>
				<g id="shape3275-13" transform="translate(39.5624,-32.3528)">
					<title>Sheet.3275</title>
					<path d="M0 119.41 A10.8681 10.9966 0 0 1 2.22 124.71 L10.57 124.71 A19.5493 19.7805 -180 0 0 6 113.28 L0 119.41
								 Z" class="st3"/>
				</g>
				<g id="shape3276-15" transform="translate(12.5248,-32.3528)">
					<title>Sheet.3276</title>
					<path d="M10.47 119.41 L4.57 113.28 A19.3505 19.5793 -180 0 0 -0 124.71 L8.32 124.71 A11.2326 11.3654 0 0 1 10.47
								 119.41 ZM34.1 117.5 A1.39164 1.4081 -180 0 0 32.37 116.73 L20.08 121.69 L21.04 124.17 L33.33 119.21
								 A1.35851 1.37458 -180 0 0 34.1 117.5 Z" class="st4"/>
				</g>
				<g id="shape3277-17" transform="translate(27.7003,-29.939)">
					<title>Sheet.3277</title>
					<ellipse cx="3.57851" cy="121.088" rx="3.57851" ry="3.62084" class="st5"/>
				</g>
				<g id="shape3278-19">
					<title>Sheet.3278</title>
					<path d="M34.26 124.71 L1.66 124.71 C0.63 124.71 0 123.03 0.6 122.16 L11.96 105.6 A1.25911 1.274 -180 0 0 11.96
								 104.86 L11.96 93.9 a0.662687 0.670525 -180 0 0 -0.53015 -0.80463 L10.8 93.09 A1.29224 1.30752 0
								 0 1 9.51 91.79 L9.51 91.35 A1.29224 1.30752 0 0 1 10.8 90.04 L25.22 90.04 A1.25911 1.274 0 0 1 26.51
								 91.35 L26.51 91.92 A1.25911 1.274 0 0 1 25.22 93.09 L24.52 93.09 a0.662687 0.670525 -180 0 0 -0.662687
								 0.670525 L23.86 104.73 A1.35851 1.37458 -180 0 0 24.09 105.46 L35.35 122.03 C35.92 123.03 35.32
								 124.71 34.26 124.71 Z" class="st6"/>
				</g>
				<g id="shape3279-23" transform="translate(5.91662,-3.68789)">
					<title>Sheet.3279</title>
					<path d="M0.05 123.6 L8.2 111.53 A2.84956 2.88326 -180 0 0 8.73 109.82 L8.73 104.93 a0.960897 0.972262 0 0 1
								 0.960897 -0.972262 L14.33 103.96 a0.927762 0.938735 0 0 1 0.927762 0.972262 L15.26 110.19 A1.98806
								 2.01158 -180 0 0 15.62 111.33 L23.97 123.6 a0.695822 0.704052 0 0 1 -0.596419 1.10637 L0.61 124.71
								 a0.695822 0.704052 0 0 1 -0.563284 -1.10637 Z" class="st7"/>
				</g>
			</g>
		</g>
	</g>
</svg>
