<?xml version="1.0" encoding="UTF-8" standalone="no"?>
<!DOCTYPE svg PUBLIC "-//W3C//DTD SVG 1.1//EN" "http://www.w3.org/Graphics/SVG/1.1/DTD/svg11.dtd">
<!-- Generated by Microsoft Visio, SVG Export SQL Database Performance Overview.svg Page-1 -->
<svg xmlns="http://www.w3.org/2000/svg" xmlns:xlink="http://www.w3.org/1999/xlink" xmlns:ev="http://www.w3.org/2001/xml-events"
		width="0.944882in" height="1.33858in" viewBox="0 0 68.0315 96.378" xml:space="preserve" color-interpolation-filters="sRGB"
		class="st8">
	<style type="text/css">
	<![CDATA[
		.st1 {fill:none;stroke:none;stroke-linecap:butt;stroke-width:0.0435215}
		.st2 {fill:#57a300;stroke:none;stroke-linecap:butt;stroke-width:0.0435215}
		.st3 {fill:#b8d432;stroke:none;stroke-linecap:butt;stroke-width:0.0435215}
		.st4 {fill:#ffb900;stroke:none;stroke-linecap:butt;stroke-width:0.0435215}
		.st5 {fill:#dd5900;stroke:none;stroke-linecap:butt;stroke-width:0.0435215}
		.st6 {fill:#49a5dc;stroke:none;stroke-linecap:butt;stroke-width:0.0435215}
		.st7 {fill:#83e7f1;stroke:none;stroke-linecap:butt;stroke-width:0.0435215}
		.st8 {fill:none;fill-rule:evenodd;font-size:12px;overflow:visible;stroke-linecap:square;stroke-miterlimit:3}
	]]>
	</style>

	<g>
		<title>Page-1</title>
		<g id="group1339-1" transform="translate(5.66929,-34.0157)">
			<title>SQL Database Performance Overview</title>
			<g id="group1340-2">
				<title>Sheet.1340</title>
				<g id="shape1341-3">
					<title>Sheet.1341</title>
					<rect x="0" y="39.6891" width="56.6929" height="56.6889" class="st1"/>
				</g>
				<g id="shape1342-5" transform="translate(0.0604746,-30.2311)">
					<title>Sheet.1342</title>
					<path d="M6.44 80.13 C2.75 84.6 0.39 90.22 0 96.38 L15.18 96.38 C15.45 94.38 16.17 92.53 17.24 90.92 L6.44 80.13
								 Z" class="st2"/>
				</g>
				<g id="shape1343-7" transform="translate(10.2807,-39.4669)">
					<title>Sheet.1343</title>
					<path d="M16.18 79.15 C10.05 79.56 4.45 81.9 0 85.59 L10.79 96.38 C12.39 95.33 14.21 94.62 16.18 94.33 L16.18
								 79.15 Z" class="st3"/>
				</g>
				<g id="shape1344-9" transform="translate(30.2413,-39.4669)">
					<title>Sheet.1344</title>
					<path d="M16.17 85.59 C11.72 81.91 6.13 79.56 0 79.15 L0 94.33 C1.97 94.62 3.79 95.33 5.38 96.38 L16.17 85.59
								 Z" class="st4"/>
				</g>
				<g id="shape1345-11" transform="translate(39.4052,-26.5223)">
					<title>Sheet.1345</title>
					<path d="M17.22 96.38 C17.26 95.75 17.29 95.12 17.29 94.49 C17.29 87.62 14.85 81.33 10.79 76.42 L0 87.21 C1.37
								 89.3 2.17 91.8 2.17 94.49 C2.17 95.13 2.13 95.76 2.04 96.38 L17.22 96.38 Z" class="st5"/>
				</g>
				<g id="shape1346-13" transform="translate(0.0604746,-10.2074)">
					<title>Sheet.1346</title>
					<path d="M6.44 96.38 C2.75 91.91 0.39 86.28 0 80.13 L15.18 80.13 C15.45 82.12 16.17 83.98 17.24 85.59 L6.44 96.38
								 Z" class="st2"/>
				</g>
				<g id="group1347-15" transform="translate(3.78168,-2.55795E-13)">
					<title>Sheet.1347</title>
					<g id="shape1348-16">
						<title>Sheet.1348</title>
						<path d="M28.21 81.23 L37.79 90.81 L37.79 96.38 L32.22 96.38 L22.64 86.8 C20.42 88.07 17.85 88.81 15.11 88.81
									 C6.77 88.81 0 82.03 0 73.69 C0 65.37 6.79 58.58 15.11 58.58 C23.45 58.58 30.23 65.35 30.23 73.69
									 C30.23 76.43 29.5 79.01 28.21 81.23 Z" class="st6"/>
					</g>
					<g id="shape1349-18" transform="translate(3.77765,-11.3483)">
						<title>Sheet.1349</title>
						<path d="M22.67 85.04 C22.67 78.78 17.59 73.71 11.33 73.71 C5.07 73.71 0 78.77 0 85.04 C0 91.29 5.08 96.38
									 11.33 96.38 C17.61 96.38 22.67 91.31 22.67 85.04 Z" class="st7"/>
					</g>
				</g>
			</g>
		</g>
	</g>
</svg>
