<?xml version="1.0" encoding="UTF-8" standalone="no"?>
<!DOCTYPE svg PUBLIC "-//W3C//DTD SVG 1.1//EN" "http://www.w3.org/Graphics/SVG/1.1/DTD/svg11.dtd">
<!-- Generated by Microsoft Visio, SVG Export DDoS Protection Plan.svg Page-1 -->
<svg xmlns="http://www.w3.org/2000/svg" xmlns:xlink="http://www.w3.org/1999/xlink" xmlns:ev="http://www.w3.org/2001/xml-events"
		width="1.57437in" height="1.73206in" viewBox="0 0 113.354 124.709" xml:space="preserve" color-interpolation-filters="sRGB"
		class="st6">
	<style type="text/css">
	<![CDATA[
		.st1 {fill:#0078d4;stroke:none;stroke-linecap:butt;stroke-width:34}
		.st2 {fill:url(#grad0-8);stroke:none;stroke-linecap:butt;stroke-width:34}
		.st3 {fill:#e6e6e6;stroke:none;stroke-linecap:butt;stroke-width:34}
		.st4 {fill:#003067;stroke:none;stroke-linecap:butt;stroke-width:34}
		.st5 {fill:#50e6ff;stroke:none;stroke-linecap:butt;stroke-width:34}
		.st6 {fill:none;fill-rule:evenodd;font-size:12px;overflow:visible;stroke-linecap:square;stroke-miterlimit:3}
	]]>
	</style>

	<defs id="Patterns_And_Gradients">
		<linearGradient id="grad0-8" x1="0" y1="0" x2="1" y2="0" gradientTransform="rotate(90 0.5 0.5)">
			<stop offset="0.18" stop-color="#5ea0ef" stop-opacity="1"/>
			<stop offset="1" stop-color="#0078d4" stop-opacity="1"/>
		</linearGradient>
	</defs>
	<g>
		<title>Page-1</title>
		<g id="group13877-1" transform="translate(34,-34.0157)">
			<title>DDoS Protection Plan.13877</title>
			<g id="group13878-2">
				<title>Icon-networking-72</title>
				<g id="shape13879-3">
					<title>Sheet.13879</title>
					<path d="M45.35 94.48 C45.35 109.72 27.33 122.01 23.42 124.5 A1.41732 1.44901 0 0 1 21.94 124.5 C18.02 122.01
								 0 109.72 0 94.48 L0 76.14 A1.41732 1.44901 0 0 1 1.39 74.69 C15.41 74.32 12.17 68.02 22.68 68.02
								 C33.18 68.02 29.95 74.32 43.97 74.69 A1.41732 1.44901 0 0 1 45.35 76.14 L45.35 94.48 Z"
							class="st1"/>
				</g>
				<g id="shape13880-5" transform="translate(1.87949,-2.35317)">
					<title>Sheet.13880</title>
					<path d="M41.6 96.99 C41.6 110.97 25.08 122.19 21.48 124.52 A1.32489 1.35451 0 0 1 20.12 124.52 C16.51 122.25
								 0 110.97 0 96.99 L0 80.17 A1.29408 1.32301 0 0 1 1.26 78.84 C14.11 78.5 11.15 72.73 20.8 72.73 C30.44
								 72.73 27.48 78.5 40.33 78.84 A1.29408 1.32301 0 0 1 41.6 80.17 L41.6 96.99 Z" class="st2"/>
				</g>
				<g id="shape13881-9" transform="translate(14.05,-15.7425)">
					<title>Sheet.13881</title>
					<path d="M17.25 123.2 A1.47895 1.51202 0 0 1 15.78 124.71 L1.48 124.71 A1.47895 1.51202 0 0 1 0 123.2 L0 96.17
								 A1.47895 1.51202 0 0 1 1.48 94.63 L15.78 94.63 A1.47895 1.51202 0 0 1 17.25 96.17 L17.25 123.2 Z"
							class="st3"/>
				</g>
				<g id="shape13882-11" transform="translate(16.5149,-39.0212)">
					<title>Sheet.13882</title>
					<path d="M0 122.79 A1.84868 1.89002 0 0 1 1.85 120.9 L10.48 120.9 A1.84868 1.89002 0 0 1 12.32 122.79 A1.84868
								 1.89002 0 0 1 10.48 124.71 L1.85 124.71 A1.84868 1.89002 0 0 1 0 122.79 Z" class="st4"/>
				</g>
				<g id="shape13883-13" transform="translate(17.1927,-39.6827)">
					<title>Sheet.13883</title>
					<ellipse cx="1.26327" cy="123.417" rx="1.26327" ry="1.29151" class="st5"/>
				</g>
				<g id="shape13884-15" transform="translate(16.5149,-33.0362)">
					<title>Sheet.13884</title>
					<path d="M0 122.79 A1.87949 1.92152 0 0 1 1.85 120.87 L10.48 120.87 A1.87949 1.92152 0 0 1 12.32 122.79 A1.84868
								 1.89002 0 0 1 10.48 124.71 L1.85 124.71 A1.84868 1.89002 0 0 1 0 122.79 Z" class="st4"/>
				</g>
				<g id="shape13885-17" transform="translate(17.1927,-33.6662)">
					<title>Sheet.13885</title>
					<ellipse cx="1.26327" cy="123.417" rx="1.26327" ry="1.29151" class="st5"/>
				</g>
			</g>
		</g>
	</g>
</svg>
