<?xml version="1.0" encoding="UTF-8" standalone="no"?>
<!DOCTYPE svg PUBLIC "-//W3C//DTD SVG 1.1//EN" "http://www.w3.org/Graphics/SVG/1.1/DTD/svg11.dtd">
<!-- Generated by Microsoft Visio, SVG Export Cloud Simple Node.svg Page-1 -->
<svg xmlns="http://www.w3.org/2000/svg" xmlns:xlink="http://www.w3.org/1999/xlink" xmlns:ev="http://www.w3.org/2001/xml-events"
		width="0.944882in" height="1.33858in" viewBox="0 0 68.0315 96.378" xml:space="preserve" color-interpolation-filters="sRGB"
		class="st11">
	<style type="text/css">
	<![CDATA[
		.st1 {fill:#81ba33}
		.st2 {stroke:#81ba33;stroke-linecap:butt;stroke-width:2.88424}
		.st3 {stroke:#81ba33;stroke-linecap:round;stroke-linejoin:round;stroke-width:2.88424}
		.st4 {fill:#ffffff;stroke:#81ba33;stroke-linecap:butt;stroke-width:1.92283}
		.st5 {fill:#eaeaea;stroke:#486385;stroke-linecap:butt;stroke-width:1.92283}
		.st6 {fill:none;stroke:#486385;stroke-linecap:butt;stroke-width:0.961415}
		.st7 {fill:#486385;stroke:none;stroke-linecap:butt;stroke-width:0.961415}
		.st8 {fill:#ffffff;fill-opacity:0.2;stroke:none;stroke-linecap:butt;stroke-width:0.961415}
		.st9 {fill:#f7f7f7;stroke:#81ba33;stroke-linecap:butt;stroke-width:1.34598}
		.st10 {fill:#81ba33;stroke:none;stroke-linecap:butt;stroke-width:0.961415}
		.st11 {fill:none;fill-rule:evenodd;font-size:12px;overflow:visible;stroke-linecap:square;stroke-miterlimit:3}
	]]>
	</style>

	<g>
		<title>Page-1</title>
		<g id="group11296-1" transform="translate(5.66929,-34.0157)">
			<title>Cloud Simple Node.11296</title>
			<g id="group11297-2">
				<title>g59</title>
				<g id="group11298-3" transform="translate(11.809,0)">
					<title>g11</title>
					<g id="shape11299-4" transform="translate(21.1588,-4.76921)">
						<title>path5</title>
						<path d="M0 96.38 L0 90.48 L0 96.38 Z" class="st1"/>
						<path d="M0 96.38 L0 90.48" class="st2"/>
					</g>
					<g id="shape11300-7" transform="translate(0,-2.42882)">
						<title>path7</title>
						<path d="M41.08 96.38 L26.29 96.38 L41.08 96.38 ZM14.79 96.38 L0 96.38 L14.79 96.38 Z" class="st1"/>
						<path d="M41.08 96.38 L26.29 96.38M14.79 96.38 L0 96.38" class="st3"/>
					</g>
					<g id="shape11301-10" transform="translate(16.0095,0)">
						<title>path9</title>
						<rect x="0" y="91.8163" width="10.2975" height="4.5617" class="st4"/>
					</g>
				</g>
				<g id="shape11302-12" transform="translate(9.26474,-11.0747)">
					<title>path13</title>
					<path d="M45.6 84.59 L1.83 84.59 C0.8 84.59 0 85.23 0 86.05 L0 94.92 C0 95.74 0.8 96.38 1.82 96.38 L45.6 96.38
								 C46.63 96.38 47.43 95.74 47.43 94.92 L47.43 86.05 C47.43 85.23 46.63 84.59 45.6 84.59 Z"
							class="st5"/>
				</g>
				<g id="shape11303-14" transform="translate(13.4275,-15.4124)">
					<title>path15</title>
					<path d="M1.71 96.38 C0.8 96.38 0 95.65 0 94.82 C0 93.99 0.8 93.26 1.71 93.26 C2.62 93.26 3.42 93.99 3.42 94.82
								 C3.42 95.65 2.62 96.38 1.71 96.38 L1.71 96.38 Z" class="st6"/>
				</g>
				<g id="group11304-16" transform="translate(43.2727,-13.9999)">
					<title>g23</title>
					<g id="shape11305-17">
						<title>rect17</title>
						<path d="M0 95.67 a0.729046 0.70744 -180 0 0 0.729029 0.707423 L8.02 96.38 a0.729046 0.70744 -180 0 0 0.729029
									 -0.707423 a0.729046 0.70744 -180 0 0 -0.729029 -0.707423 L0.73 94.96 a0.729046 0.70744 -180
									 0 0 -0.729029 0.707423 Z" class="st7"/>
					</g>
					<g id="shape11306-19" transform="translate(0,-2.4017)">
						<title>rect19</title>
						<path d="M0 95.67 a0.729046 0.70744 -180 0 0 0.729029 0.707423 L8.02 96.38 a0.729046 0.70744 -180 0 0 0.729029
									 -0.707423 a0.729046 0.70744 -180 0 0 -0.729029 -0.707423 L0.73 94.96 a0.729046 0.70744 -180
									 0 0 -0.729029 0.707423 Z" class="st7"/>
					</g>
					<g id="shape11307-21" transform="translate(0,-4.75978)">
						<title>rect21</title>
						<path d="M0 95.67 a0.729046 0.70744 -180 0 0 0.729029 0.707423 L8.02 96.38 a0.729046 0.70744 -180 0 0 0.729029
									 -0.707423 a0.729046 0.70744 -180 0 0 -0.729029 -0.707423 L0.73 94.96 a0.729046 0.70744 -180
									 0 0 -0.729029 0.707423 Z" class="st7"/>
					</g>
				</g>
				<g id="shape11308-23" transform="translate(9.26474,-25.9624)">
					<title>path25</title>
					<path d="M45.6 84.59 L1.83 84.59 C0.8 84.59 0 85.23 0 86.05 L0 94.92 C0 95.74 0.8 96.38 1.82 96.38 L45.6 96.38
								 C46.63 96.38 47.43 95.74 47.43 94.92 L47.43 86.05 C47.43 85.23 46.63 84.59 45.6 84.59 Z"
							class="st5"/>
				</g>
				<g id="shape11309-25" transform="translate(13.4275,-30.3001)">
					<title>path27</title>
					<path d="M1.71 96.38 C0.8 96.38 0 95.65 0 94.82 C0 93.99 0.8 93.26 1.71 93.26 C2.62 93.26 3.42 93.99 3.42 94.82
								 C3.42 95.65 2.62 96.38 1.71 96.38 L1.71 96.38 Z" class="st6"/>
				</g>
				<g id="group11310-27" transform="translate(43.2727,-28.8876)">
					<title>g35</title>
					<g id="shape11311-28">
						<title>rect29</title>
						<path d="M0 95.67 a0.729046 0.70744 -180 0 0 0.729029 0.707423 L8.02 96.38 a0.729046 0.70744 -180 0 0 0.729029
									 -0.707423 a0.729046 0.70744 -180 0 0 -0.729029 -0.707423 L0.73 94.96 a0.729046 0.70744 -180
									 0 0 -0.729029 0.707423 Z" class="st7"/>
					</g>
					<g id="shape11312-30" transform="translate(0,-2.4017)">
						<title>rect31</title>
						<path d="M0 95.67 a0.729046 0.70744 -180 0 0 0.729029 0.707423 L8.02 96.38 a0.729046 0.70744 -180 0 0 0.729029
									 -0.707423 a0.729046 0.70744 -180 0 0 -0.729029 -0.707423 L0.73 94.96 a0.729046 0.70744 -180
									 0 0 -0.729029 0.707423 Z" class="st7"/>
					</g>
					<g id="shape11313-32" transform="translate(0,-4.75978)">
						<title>rect33</title>
						<path d="M0 95.67 a0.729046 0.70744 -180 0 0 0.729029 0.707423 L8.02 96.38 a0.729046 0.70744 -180 0 0 0.729029
									 -0.707423 a0.729046 0.70744 -180 0 0 -0.729029 -0.707423 L0.73 94.96 a0.729046 0.70744 -180
									 0 0 -0.729029 0.707423 Z" class="st7"/>
					</g>
				</g>
				<g id="shape11314-34" transform="translate(9.26474,-40.8513)">
					<title>path37</title>
					<path d="M45.6 84.59 L1.83 84.59 C0.8 84.59 0 85.23 0 86.05 L0 94.92 C0 95.74 0.8 96.38 1.82 96.38 L45.6 96.38
								 C46.63 96.38 47.43 95.74 47.43 94.92 L47.43 86.05 C47.43 85.23 46.63 84.59 45.6 84.59 L45.6 84.59
								 Z" class="st5"/>
				</g>
				<g id="shape11315-36" transform="translate(13.4275,-45.189)">
					<title>path39</title>
					<path d="M1.71 96.38 C0.8 96.38 0 95.65 0 94.82 C0 93.99 0.8 93.26 1.71 93.26 C2.62 93.26 3.42 93.99 3.42 94.82
								 C3.42 95.65 2.62 96.38 1.71 96.38 L1.71 96.38 Z" class="st6"/>
				</g>
				<g id="group11316-38" transform="translate(43.2727,-43.7765)">
					<title>g47</title>
					<g id="shape11317-39">
						<title>rect41</title>
						<path d="M0 95.67 a0.729046 0.70744 -180 0 0 0.729029 0.707423 L8.02 96.38 a0.729046 0.70744 -180 0 0 0.729029
									 -0.707423 a0.729046 0.70744 -180 0 0 -0.729029 -0.707423 L0.73 94.96 a0.729046 0.70744 -180
									 0 0 -0.729029 0.707423 Z" class="st7"/>
					</g>
					<g id="shape11318-41" transform="translate(0,-2.4017)">
						<title>rect43</title>
						<path d="M0 95.67 a0.729046 0.70744 -180 0 0 0.729029 0.707423 L8.02 96.38 a0.729046 0.70744 -180 0 0 0.729029
									 -0.707423 a0.729046 0.70744 -180 0 0 -0.729029 -0.707423 L0.73 94.96 a0.729046 0.70744 -180
									 0 0 -0.729029 0.707423 Z" class="st7"/>
					</g>
					<g id="shape11319-43" transform="translate(0,-4.75978)">
						<title>rect45</title>
						<path d="M0 95.67 a0.729046 0.70744 -180 0 0 0.729029 0.707423 L8.02 96.38 a0.729046 0.70744 -180 0 0 0.729029
									 -0.707423 a0.729046 0.70744 -180 0 0 -0.729029 -0.707423 L0.73 94.96 a0.729046 0.70744 -180
									 0 0 -0.729029 0.707423 Z" class="st7"/>
					</g>
				</g>
				<g id="shape11320-45" transform="translate(7.9938,-9.59148)">
					<title>path49</title>
					<path d="M48.6 52.49 L48.57 52.49 L2.81 52.49 C1.25 52.49 0 54.1 0 55.91 L0 92.99 C0 94.78 1.25 96.38 2.81 96.38
								 L3.9 96.38 L48.6 52.49 Z" class="st8"/>
				</g>
				<g id="group11321-47" transform="translate(2.8777E-13,-28.3842)">
					<title>g57</title>
					<g id="shape11322-48">
						<title>circle51</title>
						<ellipse cx="14.5866" cy="82.2236" rx="14.5866" ry="14.1544" class="st9"/>
					</g>
					<g id="shape11323-50" transform="translate(3.07164,-7.52345)">
						<title>path53</title>
						<path d="M12.06 95.08 A6.55397 6.35974 0 0 1 10.44 95.87 A9.72403 9.43585 0 0 1 7.18 96.38 C6.2 96.38 5.28
									 96.24 4.41 95.95 A6.50658 6.31375 0 0 1 2.13 94.68 A6.23563 6.05083 0 0 1 0.57 92.56 C0.19 91.72
									 0 90.74 0 89.62 C0 88.53 0.18 87.56 0.55 86.71 C0.92 85.86 1.43 85.14 2.07 84.55 A6.57341 6.3786
									 0 0 1 4.33 83.21 A8.01081 7.7734 0 0 1 7.12 82.75 C7.65 82.75 8.13 82.78 8.56 82.85 C8.99 82.91
									 9.36 82.99 9.69 83.09 A5.77269 5.60161 0 0 1 11.1 83.72 C11.4 83.93 11.62 84.15 11.75 84.38
									 C11.88 84.62 11.94 84.86 11.94 85.11 C11.94 85.35 11.89 85.58 11.8 85.79 C11.7 86 11.58 86.2
									 11.45 86.37 A3.49569 3.3921 0 0 1 11.04 86.8 A2.10689 2.04445 0 0 1 10.7 87.06 A10.0533 9.75537
									 -180 0 0 10.2 86.61 A3.46167 3.35908 -180 0 0 9.47 86.15 A5.5552 5.39057 -180 0 0 8.49 85.79
									 A4.56493 4.42965 -180 0 0 7.25 85.64 C6.68 85.64 6.17 85.73 5.7 85.91 A3.46653 3.3638 -180 0
									 0 4.48 86.71 A3.6901 3.58074 -180 0 0 3.69 87.96 A4.88449 4.73974 -180 0 0 3.4 89.62 C3.4 90.25
									 3.51 90.8 3.71 91.28 C3.92 91.76 4.21 92.16 4.57 92.48 A3.60869 3.50175 -180 0 0 5.86 93.21
									 C6.36 93.37 6.9 93.45 7.49 93.45 C8.21 93.45 8.84 93.36 9.36 93.19 C9.89 93.01 10.29 92.83 10.56
									 92.64 L12.02 95.08 L12.06 95.08 Z" class="st10"/>
					</g>
					<g id="shape11324-52" transform="translate(12.6256,-7.52345)">
						<title>path55</title>
						<path d="M1.34 92.34 C1.42 92.4 1.6 92.5 1.87 92.63 C2.14 92.76 2.48 92.9 2.9 93.03 C3.31 93.16 3.79 93.28
									 4.34 93.39 C4.88 93.49 5.47 93.55 6.11 93.55 C6.63 93.55 7.04 93.51 7.35 93.44 C7.66 93.37 7.9
									 93.28 8.07 93.17 a0.826232 0.801747 -180 0 0 0.330493 -0.386725 C8.45 92.64 8.48 92.49 8.48
									 92.34 a0.939232 0.911397 -180 0 0 -0.379095 -0.745153 C7.85 91.4 7.38 91.24 6.69 91.13 L4.71
									 90.79 A11.3728 11.0358 0 0 1 3.15 90.41 A4.91487 4.76921 0 0 1 1.76 89.74 A3.50663 3.40271 0
									 0 1 0.76 88.62 C0.5 88.17 0.37 87.61 0.37 86.94 C0.37 86.36 0.48 85.82 0.7 85.31 C0.92 84.8
									 1.26 84.36 1.71 83.98 C2.17 83.6 2.74 83.3 3.43 83.08 C4.13 82.86 4.94 82.75 5.87 82.75 C6.55
									 82.75 7.14 82.79 7.64 82.86 A9.90264 9.60917 0 0 1 8.95 83.11 C9.31 83.21 9.6 83.31 9.83 83.41
									 C10.06 83.51 10.22 83.59 10.33 83.66 C10.55 83.78 10.76 83.96 10.96 84.18 A1.17738 1.14249 0
									 0 1 11.26 84.96 C11.26 85.17 11.22 85.38 11.14 85.57 A2.96472 2.87686 0 0 1 10.86 86.11 C10.75
									 86.28 10.63 86.42 10.5 86.54 A3.24661 3.15039 0 0 1 10.17 86.81 A3.37419 3.27419 -180 0 0 9.59
									 86.39 A4.82617 4.68314 -180 0 0 8.65 85.96 A8.59646 8.3417 -180 0 0 7.41 85.64 A7.84192 7.60952
									 -180 0 0 5.91 85.51 C5.41 85.51 5 85.55 4.71 85.63 C4.41 85.71 4.18 85.81 4.04 85.93 a0.854179
									 0.828864 -180 0 0 -0.291611 0.405589 A1.53825 1.49266 -180 0 0 3.68 86.75 C3.68 86.87 3.69 86.97
									 3.72 87.07 C3.76 87.17 3.83 87.27 3.96 87.37 C4.08 87.46 4.26 87.55 4.48 87.63 C4.71 87.71 5.02
									 87.79 5.41 87.87 L7.47 88.26 A11.3777 11.0405 0 0 1 9.38 88.78 C9.94 88.99 10.4 89.24 10.77
									 89.55 C11.15 89.85 11.43 90.21 11.62 90.64 C11.81 91.07 11.9 91.58 11.9 92.17 C11.9 93.49 11.39
									 94.52 10.38 95.26 C9.36 96.01 7.92 96.38 6.07 96.38 A11.7629 11.4143 0 0 1 3.74 96.17 A13.8054
									 13.3962 0 0 1 1.89 95.69 A10.9913 10.6656 0 0 1 0.59 95.17 C0.26 95.01 0.06 94.89 0 94.83 L1.34
									 92.34 Z" class="st7"/>
					</g>
				</g>
			</g>
		</g>
	</g>
</svg>
