<?xml version="1.0" encoding="UTF-8" standalone="no"?>
<!DOCTYPE svg PUBLIC "-//W3C//DTD SVG 1.1//EN" "http://www.w3.org/Graphics/SVG/1.1/DTD/svg11.dtd">
<!-- Generated by Microsoft Visio, SVG Export Azure Active Directory Sync Primary.svg Page-1 -->
<svg xmlns="http://www.w3.org/2000/svg" xmlns:xlink="http://www.w3.org/1999/xlink" xmlns:ev="http://www.w3.org/2001/xml-events"
		width="1.73184in" height="1.73206in" viewBox="0 0 124.693 124.709" xml:space="preserve" color-interpolation-filters="sRGB"
		class="st4">
	<style type="text/css">
	<![CDATA[
		.st1 {fill:url(#grad0-11);stroke:none;stroke-linecap:butt;stroke-width:34}
		.st2 {fill:#ffffff;stroke:none;stroke-linecap:round;stroke-linejoin:round;stroke-width:0.749999}
		.st3 {fill:url(#grad0-20);stroke:none;stroke-linecap:butt;stroke-width:34}
		.st4 {fill:none;fill-rule:evenodd;font-size:12px;overflow:visible;stroke-linecap:square;stroke-miterlimit:3}
	]]>
	</style>

	<defs id="Patterns_And_Gradients">
		<linearGradient id="grad0-11" x1="0" y1="0" x2="1" y2="0" gradientTransform="rotate(-90 0.5 0.5)">
			<stop offset="0" stop-color="#0879e2" stop-opacity="1"/>
			<stop offset="0.325" stop-color="#0a7de4" stop-opacity="1"/>
			<stop offset="0.62" stop-color="#1088eb" stop-opacity="1"/>
			<stop offset="0.91" stop-color="#199af6" stop-opacity="1"/>
			<stop offset="1" stop-color="#1da2fa" stop-opacity="1"/>
		</linearGradient>
		<linearGradient id="grad0-20" x1="0" y1="0" x2="1" y2="0" gradientTransform="rotate(-90 0.5 0.5)">
			<stop offset="0" stop-color="#5e9624" stop-opacity="1"/>
			<stop offset="0.18" stop-color="#629c25" stop-opacity="1"/>
			<stop offset="0.44" stop-color="#6dae2a" stop-opacity="1"/>
			<stop offset="0.73" stop-color="#7fcb30" stop-opacity="1"/>
			<stop offset="0.82" stop-color="#86d633" stop-opacity="1"/>
		</linearGradient>
	</defs>
	<g>
		<title>Page-1</title>
		<g id="group11092-1" transform="translate(34,-34.0157)">
			<title>Azure Active Directory Sync Primary.11092</title>
			<g id="group11093-2">
				<title>Page-1</title>
				<g id="group11094-3">
					<title>Sheet.11094</title>
					<g id="group11095-4">
						<title>Sheet.11095</title>
						<g id="group11096-5">
							<title>Sheet.11096</title>
							<g id="group11097-6">
								<title>g8</title>
								<g id="group11098-7">
									<title>path6</title>
									<g id="shape11099-8">
										<title>Sheet.11099</title>
										<path d="M28.34 68.02 C12.58 68.02 0 80.95 0 96.37 C0 112.13 12.92 124.71 28.34 124.71 C43.76
													 124.71 56.69 111.79 56.69 96.37 C56.69 80.95 44.1 68.02 28.34 68.02 ZM28.34
													 71.76 C41.95 71.76 52.95 82.75 52.95 96.37 C52.95 109.97 41.83 120.96 28.34
													 120.96 C14.86 120.96 3.74 109.85 3.74 96.37 C3.74 82.87 14.74 71.76 28.34 71.76
													 Z" class="st1"/>
									</g>
								</g>
							</g>
							<g id="group11100-12" transform="translate(2.43757,-2.43536)">
								<title>Sheet.11100</title>
								<g id="shape11101-13">
									<title>Sheet.11101</title>
									<ellipse cx="25.9063" cy="98.8023" rx="25.9063" ry="25.9063" class="st2"/>
								</g>
							</g>
						</g>
					</g>
					<g id="group11102-15" transform="translate(92.4534,9.56756) rotate(45)">
						<title>g8.3465</title>
						<g id="group11103-16">
							<title>path6</title>
							<g id="shape11104-17" transform="translate(32.1844,-2.84217E-13) scale(-1,1)">
								<title>Sheet.11104</title>
								<path d="M15.51 91.03 L15.33 91.03 C11.68 91.03 8.29 92.3 5.55 94.35 L0 88.8 L0 103.4 L14.59 103.4
											 L9.09 97.89 A10.3293 10.3293 0 0 1 15.51 95.72 C20.99 95.72 25.53 99.59 26.48 104.61
											 L31.3 104.61 A15.9415 15.9415 -180 0 0 15.51 91.03 ZM32.01 110.07 L17.6 110.07 L17.67
											 110.12 L17.6 110.12 L22.93 115.45 C21.12 116.73 18.96 117.39 16.51 117.39 C11.57 117.39
											 7.37 114.05 5.92 109.56 L0.89 109.56 A15.9677 15.9677 -180 0 0 16.51 122.1 L16.68 122.1
											 C20.29 122.1 23.62 120.86 26.35 118.87 L32.18 124.71 L32.18 110.07 L32.01 110.07 Z"
										class="st3"/>
							</g>
						</g>
					</g>
				</g>
			</g>
		</g>
	</g>
</svg>
