<?xml version="1.0" encoding="UTF-8" standalone="no"?>
<!DOCTYPE svg PUBLIC "-//W3C//DTD SVG 1.1//EN" "http://www.w3.org/Graphics/SVG/1.1/DTD/svg11.dtd">
<!-- Generated by Microsoft Visio, SVG Export Certification Authority.svg Page-1 -->
<svg xmlns="http://www.w3.org/2000/svg" xmlns:xlink="http://www.w3.org/1999/xlink" xmlns:ev="http://www.w3.org/2001/xml-events"
		width="1.73184in" height="1.65423in" viewBox="0 0 124.692 119.105" xml:space="preserve" color-interpolation-filters="sRGB"
		class="st7">
	<style type="text/css">
	<![CDATA[
		.st1 {fill:url(#grad0-10);stroke:none;stroke-linecap:butt;stroke-width:33.9997}
		.st2 {fill:#ffffff;stroke:none;stroke-linecap:butt;stroke-width:33.9997}
		.st3 {fill:#d15900;stroke:none;stroke-linecap:butt;stroke-width:33.9997}
		.st4 {fill:#b31b1b;stroke:none;stroke-linecap:butt;stroke-width:33.9997}
		.st5 {fill:#e62323;stroke:none;stroke-linecap:butt;stroke-width:33.9997}
		.st6 {fill:#ffb34d;stroke:none;stroke-linecap:butt;stroke-width:33.9997}
		.st7 {fill:none;fill-rule:evenodd;font-size:12px;overflow:visible;stroke-linecap:square;stroke-miterlimit:3}
	]]>
	</style>

	<defs id="Patterns_And_Gradients">
		<linearGradient id="grad0-10" x1="0" y1="0" x2="1" y2="0" gradientTransform="rotate(-90 0.5 0.5)">
			<stop offset="0" stop-color="#e27908" stop-opacity="1"/>
			<stop offset="0.325" stop-color="#e47d0a" stop-opacity="1"/>
			<stop offset="0.62" stop-color="#eb8810" stop-opacity="1"/>
			<stop offset="0.91" stop-color="#f69a19" stop-opacity="1"/>
			<stop offset="1" stop-color="#faa21d" stop-opacity="1"/>
		</linearGradient>
	</defs>
	<g>
		<title>Page-1</title>
		<g id="group10946-1" transform="translate(33.9997,-34.0814)">
			<title>Certification Authority.10946</title>
			<g id="group10947-2">
				<title>Page-1</title>
				<g id="group10948-3">
					<title>Management Certificate</title>
					<g id="group10949-4">
						<title>g14</title>
						<g id="group10950-5" transform="translate(0,-11.5268)">
							<title>rect2</title>
							<g id="group10951-6">
								<title>Sheet.10951</title>
								<g id="shape10952-7">
									<title>Sheet.10952</title>
									<path d="M-0 117.25 A1.88985 1.85937 -0 0 0 1.88 119.1 L54.81 119.1 A1.88985 1.85937 -0 0 0 56.69
												 117.25 L56.69 81.46 A1.88985 1.85937 -0 0 0 54.81 79.61 L1.88 79.61 A1.88985 1.85937
												 -0 0 0 -0 81.46 L0 117.25 Z" class="st1"/>
								</g>
							</g>
						</g>
						<g id="group10953-11" transform="translate(3.30465,-15.002)">
							<title>rect4</title>
							<g id="group10954-12">
								<title>Sheet.10954</title>
								<g id="shape10955-13">
									<title>Sheet.10955</title>
									<path d="M0 118.18 a0.944922 0.929681 -0 0 0 0.944902 0.929658 L49.14 119.09 a0.944922 0.929681
												 -0 0 0 0.944902 -0.929658 L50.1 87.49 a0.944922 0.929681 -0 0 0 -0.944902 -0.929658
												 L0.94 86.58 a0.944922 0.929681 -0 0 0 -0.944902 0.929658 L0 118.18 Z" class="st2"/>
								</g>
							</g>
						</g>
						<g id="group10956-15" transform="translate(10.8958,-23.5525)">
							<title>path6</title>
							<g id="group10957-16">
								<title>Sheet.10957</title>
								<g id="shape10958-17">
									<title>Sheet.10958</title>
									<path d="M36.18 118.2 a0.913404 0.89867 0 0 1 -0.913404 0.89867 L14.82 119.1 a0.913404 0.89867
												 0 1 1 -2.30926E-14 -1.79424 L35.26 117.34 a0.910254 0.895572 0 0 1 0.913404 0.895572
												 L36.18 118.2 ZM36.18 112.67 a0.910254 0.895572 0 0 1 -0.913404 0.895572 L14.82 113.56
												 a0.913404 0.89867 0 1 1 -2.4869E-14 -1.79424 L35.26 111.76 a0.913404 0.89867 0 0
												 1 0.913404 0.89867 L36.18 112.67 ZM36.18 104.56 a0.913404 0.89867 0 0 1 -0.913404
												 0.89867 L0.97 105.46 a0.913404 0.89867 0 1 1 -2.44249E-14 -1.79424 L35.26 103.66
												 a0.910254 0.895572 0 0 1 0.913404 0.895572 L36.18 104.56 Z" class="st3"/>
								</g>
							</g>
						</g>
						<g id="group10959-19" transform="translate(4.87255,0)">
							<title>path8</title>
							<g id="group10960-20">
								<title>Sheet.10960</title>
								<g id="shape10961-21">
									<title>Sheet.10961</title>
									<path d="M11.29 105.05 A7.95291 7.82463 0 0 1 0.66 105.05 L0 118.05 A1.04884 1.03192 -0 0 0 1.8
												 118.82 L5.89 114.73 L10.02 118.87 A1.04884 1.03192 -0 0 0 11.83 118.11 L11.29 105.05
												 Z" class="st4"/>
								</g>
							</g>
						</g>
						<g id="group10962-23" transform="translate(1.46775,-11.3286)">
							<title>ellipse10</title>
							<g id="group10963-24">
								<title>Sheet.10963</title>
								<g id="shape10964-25">
									<title>Sheet.10964</title>
									<ellipse cx="9.48995" cy="109.737" rx="9.48995" ry="9.36785" class="st5"/>
								</g>
							</g>
						</g>
						<g id="group10965-27" transform="translate(3.75755,-13.5895)">
							<title>ellipse12</title>
							<g id="group10966-28">
								<title>Sheet.10966</title>
								<g id="shape10967-29">
									<title>Sheet.10967</title>
									<ellipse cx="7.20013" cy="111.999" rx="7.20013" ry="7.1057" class="st6"/>
								</g>
							</g>
						</g>
					</g>
				</g>
			</g>
		</g>
	</g>
</svg>
