<?xml version="1.0" encoding="UTF-8" standalone="no"?>
<!DOCTYPE svg PUBLIC "-//W3C//DTD SVG 1.1//EN" "http://www.w3.org/Graphics/SVG/1.1/DTD/svg11.dtd">
<!-- Generated by Microsoft Visio, SVG Export Certification Authority Policy Web Service.svg Page-1 -->
<svg xmlns="http://www.w3.org/2000/svg" xmlns:xlink="http://www.w3.org/1999/xlink" xmlns:ev="http://www.w3.org/2001/xml-events"
		width="1.6531in" height="1.73022in" viewBox="0 0 119.023 124.576" xml:space="preserve" color-interpolation-filters="sRGB"
		class="st6">
	<style type="text/css">
	<![CDATA[
		.st1 {fill:#32bedd;stroke:none;stroke-linecap:butt;stroke-width:33.9999}
		.st2 {fill:#50e6ff;stroke:none;stroke-linecap:butt;stroke-width:33.9999}
		.st3 {fill:url(#grad7-35);stroke:none;stroke-linecap:butt;stroke-width:35.4333}
		.st4 {fill:#83b9f9;stroke:none;stroke-linecap:butt;stroke-width:35.4333}
		.st5 {fill:#f2f2f2;stroke:none;stroke-linecap:butt;stroke-width:35.4333}
		.st6 {fill:none;fill-rule:evenodd;font-size:12px;overflow:visible;stroke-linecap:square;stroke-miterlimit:3}
	]]>
	</style>

	<defs id="Patterns_And_Gradients">
		<radialGradient id="grad7-35" cx="0" cy="0" r="1.4">
			<stop offset="0.185" stop-color="#5ea0ef" stop-opacity="1"/>
			<stop offset="1" stop-color="#0078d4" stop-opacity="1"/>
		</radialGradient>
	</defs>
	<g>
		<title>Page-1</title>
		<g id="group11004-1" transform="translate(33.9999,-34.0157)">
			<title>Certification Authority Policy Web Service.11004</title>
			<g id="group11005-2">
				<title>Page-1</title>
				<g id="group11006-3">
					<title>Sheet.11006</title>
					<g id="group11007-4" transform="translate(42.9263,-38.0669)">
						<title>ellipse19</title>
						<g id="shape11008-5">
							<title>Sheet.11008</title>
							<ellipse cx="4.04866" cy="120.312" rx="4.04866" ry="4.26351" class="st1"/>
						</g>
					</g>
					<g id="group11009-7" transform="translate(42.9263,-24.144)">
						<title>ellipse21</title>
						<g id="shape11010-8">
							<title>Sheet.11010</title>
							<ellipse cx="4.04866" cy="120.312" rx="4.04866" ry="4.26351" class="st1"/>
						</g>
					</g>
					<g id="group11011-10" transform="translate(42.9263,-10.2542)">
						<title>ellipse23</title>
						<g id="shape11012-11">
							<title>Sheet.11012</title>
							<ellipse cx="4.04866" cy="120.312" rx="4.04866" ry="4.26351" class="st1"/>
						</g>
					</g>
					<g id="group11013-13" transform="translate(33.6814,-30.9389)">
						<title>ellipse25</title>
						<g id="shape11014-14">
							<title>Sheet.11014</title>
							<ellipse cx="4.04866" cy="120.312" rx="4.04866" ry="4.26351" class="st2"/>
						</g>
					</g>
					<g id="group11015-16" transform="translate(33.6814,-17.0159)">
						<title>ellipse27</title>
						<g id="shape11016-17">
							<title>Sheet.11016</title>
							<ellipse cx="4.04866" cy="120.312" rx="4.04866" ry="4.26351" class="st2"/>
						</g>
					</g>
					<g id="group11017-19" transform="translate(0.0169866,-39.6387)">
						<title>path29</title>
						<g id="shape11018-20">
							<title>Sheet.11018</title>
							<path d="M4.5 124.58 a0.799408 0.7651 90 0 1 0.286913 -0.266469 L23.33 113.02 C23.58 113.02 39.27 122.28
										 39.27 122.28 a0.799408 0.7651 -90 0 0 1.14765 -0.699482 L40.43 117.95 a0.799408 0.7651 -90
										 0 0 -0.382551 -0.699482 C40.05 117.25 23.58 107.52 23.36 107.66 L0.35 121.46 L0 121.73 L4.5
										 124.58 Z" class="st1"/>
						</g>
					</g>
					<g id="group11019-22" transform="translate(23.7658,1.42109E-14)">
						<title>path31</title>
						<g id="shape11020-23">
							<title>Sheet.11020</title>
							<path d="M15.46 110.13 L0.35 119.22 A1.1658 1.11577 90 0 1 0 119.22 L0 124.55 a0.666174 0.637584 -90
										 0 0 0.350671 0 L16.29 115.03 a0.799408 0.7651 -90 0 0 0.382551 -0.666174 L16.67 110.82 a0.799408
										 0.7651 -90 0 0 -1.21141 -0.699482 L15.46 110.13 Z" class="st1"/>
						</g>
					</g>
					<g id="group11021-25" transform="translate(0,-0.000600484)">
						<title>path33</title>
						<g id="shape11022-26">
							<title>Sheet.11022</title>
							<path d="M23.77 119.32 a1.03257 0.988255 90 0 1 -0.414429 2.84217E-14 L4.79 107.9 a0.732791 0.701342
										 90 0 1 -0.382551 -0.666174 L4.41 85.34 a0.899334 0.860738 90 0 1 -1.24345E-14 -0.399703
										 L0.02 82.07 a0.932643 0.892617 -90 0 0 1.83187E-14 0.433012 L0.02 110.06 a0.799408 0.7651
										 -90 0 0 0.350671 0.699482 L23.38 124.55 a0.799408 0.7651 -90 0 0 0.382551 2.84217E-14 L23.77
										 119.32 Z" class="st2"/>
						</g>
					</g>
					<g id="group11023-28" transform="translate(14.9863,-19.4689)">
						<title>Application Service</title>
						<g id="group11024-29">
							<title>g22</title>
							<g id="group11025-30">
								<title>path59</title>
								<g id="group11026-31">
									<title>Sheet.11026</title>
									<g id="shape11027-32">
										<title>Sheet.11027</title>
										<ellipse cx="8.3364" cy="115.879" rx="8.3364" ry="8.69678" class="st3"/>
									</g>
								</g>
							</g>
							<g id="group11028-36" transform="translate(1.16115,-2.70582)">
								<title>path4-3</title>
								<g id="group11029-37">
									<title>Sheet.11029</title>
									<g id="shape11030-38">
										<title>Sheet.11030</title>
										<path d="M0.81 120.3 C0.48 121.17 0.21 122.09 0 123 C0.17 123.33 0.38 123.62 0.6 123.91 C0.78
													 124.14 0.95 124.37 1.14 124.58 C1.38 123.37 1.75 122.18 2.21 121.04 C1.68 120.94
													 1.19 120.69 0.81 120.3 ZM1.76 115.67 C1.43 114.7 1.19 113.68 1.08 112.65 C0.68
													 113.11 0.33 113.58 0.02 114.11 C0.14 114.93 0.32 115.77 0.57 116.56 C0.89 116.16
													 1.3 115.84 1.76 115.67 Z" class="st4"/>
									</g>
								</g>
							</g>
							<g id="group11031-40" transform="translate(4.32436,-2.32731)">
								<title>path8-3</title>
								<g id="group11032-41">
									<title>Sheet.11032</title>
									<g id="shape11033-42">
										<title>Sheet.11033</title>
										<path d="M3.4 123 C3.4 122.51 3.59 122.04 3.93 121.71 C3.04 121.19 2.19 120.55 1.46 119.81
													 C1.06 120.25 0.56 120.53 0 120.65 C0.43 121.12 0.91 121.57 1.41 121.96 C2.03
													 122.45 2.72 122.88 3.42 123.23 C3.4 123.15 3.4 123.08 3.4 123 ZM9.55 123.22
													 C8.64 123.22 7.76 123.12 6.87 122.88 C6.87 122.93 6.88 122.97 6.88 123 C6.88
													 123.49 6.71 123.94 6.39 124.27 C7.47 124.49 8.63 124.58 9.74 124.53 C10.15 124.11
													 10.54 123.64 10.87 123.13 C10.44 123.18 9.98 123.22 9.57 123.22 L9.55 123.22
													 Z" class="st4"/>
									</g>
								</g>
							</g>
							<g id="group11034-44" transform="translate(4.77429,-8.7492)">
								<title>path12-4</title>
								<g id="group11035-45">
									<title>Sheet.11035</title>
									<g id="shape11036-46">
										<title>Sheet.11036</title>
										<path d="M4.21 120.69 C6.02 119.73 8.04 119.21 10.06 119.18 C9.65 118.62 9.15 118.14 8.61
													 117.72 C7.04 117.82 5.45 118.22 3.99 118.86 C3.67 118.99 3.35 119.16 3.05 119.34
													 C2.3 118.42 1.61 117.4 1.06 116.34 C0.7 116.46 0.38 116.59 0.05 116.74 C0.6
													 117.87 1.29 118.97 2.07 119.95 C1.32 120.45 0.62 121.05 0 121.73 C0.54 121.94
													 1 122.33 1.32 122.85 C1.89 122.26 2.53 121.74 3.19 121.29 C4.31 122.5 5.53 123.6
													 6.82 124.58 C6.91 124.19 7.12 123.84 7.42 123.57 C6.28 122.7 5.21 121.74 4.21
													 120.69 Z" class="st4"/>
									</g>
								</g>
							</g>
							<g id="group11037-48" transform="translate(11.574,-6.46831)">
								<title>circle14-8</title>
								<g id="group11038-49">
									<title>Sheet.11038</title>
									<g id="shape11039-50">
										<title>Sheet.11039</title>
										<ellipse cx="1.8437" cy="122.652" rx="1.8437" ry="1.92341" class="st5"/>
									</g>
								</g>
							</g>
							<g id="group11040-52" transform="translate(1.15727,-6.20372)">
								<title>circle18-3</title>
								<g id="group11041-53">
									<title>Sheet.11041</title>
									<g id="shape11042-54">
										<title>Sheet.11042</title>
										<ellipse cx="2.67214" cy="121.788" rx="2.67214" ry="2.78766" class="st5"/>
									</g>
								</g>
							</g>
							<g id="group11043-56" transform="translate(7.72517,-2.08872)">
								<title>circle20-2</title>
								<g id="group11044-57">
									<title>Sheet.11044</title>
									<g id="shape11045-58">
										<title>Sheet.11045</title>
										<ellipse cx="1.73611" cy="122.765" rx="1.73611" ry="1.81115" class="st5"/>
									</g>
								</g>
							</g>
						</g>
					</g>
				</g>
			</g>
		</g>
	</g>
</svg>
