<?xml version="1.0" encoding="UTF-8" standalone="no"?>
<!DOCTYPE svg PUBLIC "-//W3C//DTD SVG 1.1//EN" "http://www.w3.org/Graphics/SVG/1.1/DTD/svg11.dtd">
<!-- Generated by Microsoft Visio, SVG Export FTP Server.svg Page-1 -->
<svg xmlns="http://www.w3.org/2000/svg" xmlns:xlink="http://www.w3.org/1999/xlink" xmlns:ev="http://www.w3.org/2001/xml-events"
		width="1.59779in" height="1.91343in" viewBox="0 0 115.041 137.767" xml:space="preserve" color-interpolation-filters="sRGB"
		class="st5">
	<style type="text/css">
	<![CDATA[
		.st1 {fill:#f9f9f9;fill-opacity:0.5;stroke:none;stroke-linecap:butt;stroke-width:43.3718}
		.st2 {fill:url(#grad0-14);stroke:none;stroke-linecap:butt;stroke-width:0.749994}
		.st3 {fill:#0078d4;stroke:none;stroke-linecap:butt;stroke-width:0.749994}
		.st4 {fill:#f2f2f2;stroke:none;stroke-linecap:butt;stroke-width:0.749994}
		.st5 {fill:none;fill-rule:evenodd;font-size:12px;overflow:visible;stroke-linecap:square;stroke-miterlimit:3}
	]]>
	</style>

	<defs id="Patterns_And_Gradients">
		<linearGradient id="grad0-14" x1="0" y1="0" x2="1" y2="0" gradientTransform="rotate(-90 0.5 0.5)">
			<stop offset="0" stop-color="#32bedd" stop-opacity="1"/>
			<stop offset="0.175" stop-color="#32caea" stop-opacity="1"/>
			<stop offset="0.41" stop-color="#32d2f2" stop-opacity="1"/>
			<stop offset="0.775" stop-color="#32d4f5" stop-opacity="1"/>
		</linearGradient>
	</defs>
	<g>
		<title>Page-1</title>
		<g id="group10795-1" transform="translate(43.3718,-43.3718)">
			<title>FTP Server.10795</title>
			<g id="group10796-2">
				<title>Page-1</title>
				<g id="group10797-3">
					<title>Sheet.10797</title>
					<g id="group10798-4">
						<title>path20-6</title>
						<g id="group10799-5">
							<title>Sheet.10799</title>
							<g id="shape10800-6">
								<title>Sheet.10800</title>
								<path d="M28.3 86.74 L0 126.29 L28.3 137.77 L28.3 86.74 Z" class="st1"/>
							</g>
						</g>
					</g>
					<g id="group10801-8" transform="translate(0.346124,-0.366938)">
						<title>Sheet.10801</title>
						<g id="group10802-9">
							<title>Sheet.10802</title>
							<g id="group10803-10">
								<title>Sheet.10803</title>
								<g id="shape10804-11">
									<title>Sheet.10804</title>
									<path d="M0 100.78 L56.35 100.78 L56.35 135.69 A2.09245 1.88435 90 0 1 54.48 137.77 L1.88 137.77
												 A2.09245 1.88435 90 0 1 -0 135.69 L0 100.78 Z" class="st2"/>
								</g>
							</g>
						</g>
						<g id="group10805-15" transform="translate(0,-36.9912)">
							<title>Sheet.10805</title>
							<g id="group10806-16">
								<title>Sheet.10806</title>
								<g id="shape10807-17">
									<title>Sheet.10807</title>
									<path d="M1.88 124.45 L54.46 124.45 A2.09245 1.88435 90 0 1 56.35 126.52 L56.35 137.77 L0 137.77
												 L0 126.52 A2.09245 1.88435 90 0 1 1.88 124.45 Z" class="st3"/>
								</g>
							</g>
						</g>
						<g id="group10808-19" transform="translate(7.92952,-41.0723)">
							<title>Sheet.10808</title>
							<g id="group10809-20">
								<title>Sheet.10809</title>
								<g id="shape10810-21">
									<title>Sheet.10810</title>
									<path d="M0 136.74 a1.02865 0.926348 -90 0 0 0.926327 1.02862 L39.57 137.76 a1.02865 0.926348
												 -90 0 0 0.926327 -1.02862 L40.5 133.51 a1.02865 0.926348 -90 0 0 -0.926327 -1.02862
												 L0.93 132.49 a1.02865 0.926348 -90 0 0 -0.926327 1.02862 L0 136.74 Z" class="st4"/>
								</g>
							</g>
						</g>
						<g id="group10811-23" transform="translate(13.4847,-6.98263)">
							<title>Sheet.10811</title>
							<g id="group10812-24">
								<title>Sheet.10812</title>
								<g id="group10813-25">
									<title>Sheet.10813</title>
									<g id="shape10814-26">
										<title>Sheet.10814</title>
										<path d="M6.28 137.07 L13.5 115.38 a1.056 0.950981 -90 0 0 -0.891104 -1.41973 L8.13 113.96
													 a1.05209 0.947459 -90 0 0 -0.887582 0.688355 L0 136.35 a1.05209 0.947459 -90
													 0 0 0.887582 1.41582 L5.39 137.74 a1.056 0.950981 -90 0 0 0.891104 -0.684444
													 L6.28 137.07 Z" class="st4"/>
									</g>
								</g>
							</g>
							<g id="group10815-28" transform="translate(15.8673,0)">
								<title>Sheet.10815</title>
								<g id="group10816-29">
									<title>Sheet.10816</title>
									<g id="shape10817-30">
										<title>Sheet.10817</title>
										<path d="M6.28 137.07 L13.5 115.38 a1.05209 0.947459 -90 0 0 -0.887582 -1.41973 L8.13 113.96
													 a1.05209 0.947459 -90 0 0 -0.891104 0.688355 L0 136.35 a1.05209 0.947459 -90
													 0 0 0.891104 1.41582 L5.4 137.74 a1.05209 0.947459 -90 0 0 0.887582 -0.684444
													 L6.28 137.07 Z" class="st4"/>
									</g>
								</g>
							</g>
						</g>
					</g>
				</g>
			</g>
		</g>
	</g>
</svg>
