<?xml version="1.0" encoding="UTF-8" standalone="no"?>
<!DOCTYPE svg PUBLIC "-//W3C//DTD SVG 1.1//EN" "http://www.w3.org/Graphics/SVG/1.1/DTD/svg11.dtd">
<!-- Generated by Microsoft Visio, SVG Export Cognitive Services Search.svg Page-1 -->
<svg xmlns="http://www.w3.org/2000/svg" xmlns:xlink="http://www.w3.org/1999/xlink" xmlns:ev="http://www.w3.org/2001/xml-events"
		width="0.944882in" height="1.33858in" viewBox="0 0 68.0315 96.378" xml:space="preserve" color-interpolation-filters="sRGB"
		class="st2">
	<style type="text/css">
	<![CDATA[
		.st1 {fill:#3176bc;stroke:none;stroke-linecap:butt;stroke-width:0.953811}
		.st2 {fill:none;fill-rule:evenodd;font-size:12px;overflow:visible;stroke-linecap:square;stroke-miterlimit:3}
	]]>
	</style>

	<g>
		<title>Page-1</title>
		<g id="group19207-1" transform="translate(5.66929,-34.0157)">
			<title>Cognitive Services Search.19207</title>
			<g id="group19208-2">
				<title>g6</title>
				<g id="shape19209-3">
					<title>path4</title>
					<path d="M24.7 40.37 C26.41 40.82 27.89 41.5 29.37 42.29 C30.74 43.2 32.1 44.22 33.24 45.35 C34.38 46.6 35.4
								 47.85 36.32 49.32 C37.11 50.8 37.8 52.27 38.25 53.97 C38.71 55.67 38.93 57.37 38.93 59.19 C38.93
								 61.46 38.59 63.72 37.8 65.76 C37 67.8 35.86 69.85 34.38 71.55 L56.12 93.32 C56.47 93.66 56.69 94.11
								 56.69 94.56 C56.69 95.02 56.47 95.47 56.12 95.81 C55.78 96.15 55.33 96.38 54.87 96.38 C54.42 96.38
								 53.96 96.15 53.62 95.81 L31.99 74.15 C30.17 75.63 28.23 76.76 26.18 77.56 C24.02 78.35 21.86 78.69
								 19.58 78.69 C17.76 78.69 16.05 78.46 14.34 78.01 C12.64 77.56 11.16 76.88 9.68 76.08 C8.2 75.29
								 6.94 74.27 5.69 73.02 C4.55 71.77 3.53 70.53 2.62 69.05 C1.82 67.58 1.14 66.1 0.68 64.4 C0.23 62.7
								 0 61 0 59.19 C0 57.37 0.23 55.67 0.68 53.97 C1.14 52.27 1.82 50.8 2.62 49.32 C3.42 47.96 4.44 46.6
								 5.58 45.35 C6.72 44.22 8.08 43.2 9.56 42.29 C11.04 41.5 12.52 40.82 14.23 40.37 C15.94 39.91 17.65
								 39.69 19.47 39.69 C21.29 39.69 23 39.91 24.7 40.37 ZM25.73 73.81 C27.66 73.02 29.37 71.89 30.85
								 70.41 C32.33 68.94 33.47 67.24 34.27 65.31 C35.06 63.38 35.52 61.34 35.52 59.07 C35.52 56.92 35.06
								 54.77 34.27 52.84 C33.47 50.91 32.33 49.21 30.85 47.74 C29.37 46.26 27.66 45.13 25.73 44.33 C23.79
								 43.54 21.74 43.09 19.47 43.09 C17.19 43.09 15.14 43.54 13.21 44.33 C11.27 45.35 9.56 46.49 8.2 47.96
								 C6.83 49.44 5.58 51.02 4.67 52.95 C3.87 54.88 3.42 56.92 3.42 59.19 C3.42 61.34 3.87 63.5 4.67 65.42
								 C5.46 67.35 6.6 69.05 8.08 70.53 C9.56 72 11.27 73.13 13.21 73.93 C15.14 74.72 17.19 75.17 19.47
								 75.17 C21.74 75.17 23.68 74.72 25.73 73.81 Z" class="st1"/>
				</g>
			</g>
		</g>
	</g>
</svg>
