<?xml version="1.0" encoding="UTF-8" standalone="no"?>
<!DOCTYPE svg PUBLIC "-//W3C//DTD SVG 1.1//EN" "http://www.w3.org/Graphics/SVG/1.1/DTD/svg11.dtd">
<!-- Generated by Microsoft Visio, SVG Export Cognitive Services QnA Bot.svg Page-1 -->
<svg xmlns="http://www.w3.org/2000/svg" xmlns:xlink="http://www.w3.org/1999/xlink" xmlns:ev="http://www.w3.org/2001/xml-events"
		width="0.897638in" height="1.33858in" viewBox="0 0 64.6299 96.378" xml:space="preserve" color-interpolation-filters="sRGB"
		class="st3">
	<style type="text/css">
	<![CDATA[
		.st1 {fill:#0078d4;stroke:none;stroke-linecap:butt;stroke-width:0.75}
		.st2 {fill:#50e6ff;stroke:none;stroke-linecap:butt;stroke-width:0.75}
		.st3 {fill:none;fill-rule:evenodd;font-size:12px;overflow:visible;stroke-linecap:square;stroke-miterlimit:3}
	]]>
	</style>

	<g>
		<title>Page-1</title>
		<g id="group19225-1" transform="translate(5.38583,-34.0157)">
			<title>Cognitive Services QnA Bot.19225</title>
			<g id="shape19226-2" transform="translate(0,-2.7075)">
				<title>Sheet.19226</title>
				<path d="M26.93 96.38 C41.8 96.38 53.86 84.29 53.86 69.39 C53.86 54.48 41.8 42.39 26.93 42.39 C12.06 42.39 0 54.48
							 0 69.39 C0 84.29 12.06 96.38 26.93 96.38 Z" class="st1"/>
			</g>
			<g id="shape19227-4" transform="translate(4.5346,2.84217E-13)">
				<title>Sheet.19227</title>
				<path d="M11.66 77.26 L4.1 85.67 L0.27 95.04 C0 95.71 0.67 96.38 1.34 96.1 L15.35 90.27 L20.53 82.14 L11.66 77.26
							 Z" class="st1"/>
			</g>
			<g id="shape19228-6" transform="translate(14.6506,-17.3871)">
				<title>Sheet.19228</title>
				<path d="M0 96.38 C0 89.57 5.49 84.07 12.28 84.07 C19.07 84.07 24.56 89.57 24.56 96.38 L0 96.38 Z" class="st2"/>
			</g>
			<g id="shape19229-8" transform="translate(19.9626,-31.6427)">
				<title>Sheet.19229</title>
				<path d="M13.93 89.4 C13.93 93.25 10.81 96.38 6.97 96.38 C3.12 96.38 0 93.25 0 89.4 C0 85.54 3.12 82.41 6.97 82.41
							 C10.81 82.41 13.93 85.54 13.93 89.4 Z" class="st2"/>
			</g>
		</g>
	</g>
</svg>
