<?xml version="1.0" encoding="UTF-8" standalone="no"?>
<!DOCTYPE svg PUBLIC "-//W3C//DTD SVG 1.1//EN" "http://www.w3.org/Graphics/SVG/1.1/DTD/svg11.dtd">
<!-- Generated by Microsoft Visio, SVG Export Activity Log.svg Page-1 -->
<svg xmlns="http://www.w3.org/2000/svg" xmlns:xlink="http://www.w3.org/1999/xlink" xmlns:ev="http://www.w3.org/2001/xml-events"
		width="1.61375in" height="1.73225in" viewBox="0 0 116.19 124.722" xml:space="preserve" color-interpolation-filters="sRGB"
		class="st4">
	<style type="text/css">
	<![CDATA[
		.st1 {fill:#005ba1;stroke:none;stroke-linecap:butt;stroke-width:34}
		.st2 {fill:#ffffff;stroke:none;stroke-linecap:butt;stroke-width:34}
		.st3 {fill:url(#grad0-10);stroke:none;stroke-linecap:butt;stroke-width:34}
		.st4 {fill:none;fill-rule:evenodd;font-size:12px;overflow:visible;stroke-linecap:square;stroke-miterlimit:3}
	]]>
	</style>

	<defs id="Patterns_And_Gradients">
		<linearGradient id="grad0-10" x1="0" y1="0" x2="1" y2="0" gradientTransform="rotate(-90 0.5 0.5)">
			<stop offset="0" stop-color="#1988d9" stop-opacity="1"/>
			<stop offset="0.9" stop-color="#54aef0" stop-opacity="1"/>
		</linearGradient>
	</defs>
	<g>
		<title>Page-1</title>
		<g id="group9513-1" transform="translate(34,-34.0157)">
			<title>Activity Log.9513</title>
			<g id="group9514-2">
				<title>Sheet.9514</title>
				<g id="shape9515-3" transform="translate(0,-0.26632)">
					<title>Sheet.9515</title>
					<path d="M0.07 73.66 L4.18 68.96 A2.00504 1.96411 0 0 1 5.71 68.3 L45.16 68.3 A2.75268 2.69649 0 0 1 48.19 71.06
								 L48.19 119.33 A1.93707 1.89753 0 0 1 47.51 120.76 L43.09 124.72 L2.75 124.72 L0 123.62 L0.07 73.66
								 Z" class="st1"/>
				</g>
				<g id="shape9516-5" transform="translate(3.39838,-2.36359)">
					<title>Sheet.9516</title>
					<path d="M0 75.72 L2.51 72.92 A1.69919 1.6645 0 0 1 3.7 72.32 L40.71 72.32 A1.76716 1.73108 0 0 1 42.48 74.05
								 L42.48 119.93 A1.76716 1.73108 0 0 1 41.9 121.23 L37.96 124.72 L0 75.72 Z" class="st2"/>
				</g>
				<g id="shape9517-7" transform="translate(0.101951,1.42109E-14)">
					<title>Sheet.9517</title>
					<path d="M40.98 73.32 L0.2 73.32 a0.203903 0.19974 -180 0 0 -0.203903 0.19974 L0 123.46 A1.32537 1.29831 -180
								 0 0 1.33 124.72 L40.98 124.72 A1.29138 1.26502 -180 0 0 42.28 123.46 L42.28 74.62 A1.32537 1.29831
								 -180 0 0 40.98 73.32 Z" class="st3"/>
				</g>
				<g id="shape9518-11" transform="translate(9.54944,-29.7946)">
					<title>Sheet.9518</title>
					<path d="M-0 123.79 a0.951567 0.932142 -180 0 0 0.951545 0.932121 L21.41 124.72 a0.951567 0.932142 -180 0 0 0.951545
								 -0.932121 L22.36 117.73 a0.951567 0.932142 -180 0 0 -0.951545 -0.932121 L0.95 116.8 a0.951567 0.932142
								 -180 0 0 -0.951545 0.932121 L0 123.79 Z" class="st2"/>
				</g>
			</g>
		</g>
	</g>
</svg>
