<?xml version="1.0" encoding="UTF-8" standalone="no"?>
<!-- Generated by Microsoft Visio, SVG Export Data Lake.svg Page-1 -->

<svg
   xmlns:dc="http://purl.org/dc/elements/1.1/"
   xmlns:cc="http://creativecommons.org/ns#"
   xmlns:rdf="http://www.w3.org/1999/02/22-rdf-syntax-ns#"
   xmlns:svg="http://www.w3.org/2000/svg"
   xmlns="http://www.w3.org/2000/svg"
   xmlns:sodipodi="http://sodipodi.sourceforge.net/DTD/sodipodi-0.dtd"
   xmlns:inkscape="http://www.inkscape.org/namespaces/inkscape"
   width="42.5224"
   height="56.692402"
   viewBox="0 0 42.522399 56.692403"
   xml:space="preserve"
   class="st8"
   version="1.1"
   id="svg67"
   sodipodi:docname="Data Lake.svg"
   style="font-size:12px;overflow:visible;color-interpolation-filters:sRGB;fill:none;fill-rule:evenodd;stroke-linecap:square;stroke-miterlimit:3"
   inkscape:version="0.92.5 (2060ec1f9f, 2020-04-08)"><metadata
   id="metadata73"><rdf:RDF><cc:Work
       rdf:about=""><dc:format>image/svg+xml</dc:format><dc:type
         rdf:resource="http://purl.org/dc/dcmitype/StillImage" /></cc:Work></rdf:RDF></metadata><defs
   id="defs71" /><sodipodi:namedview
   pagecolor="#ffffff"
   bordercolor="#666666"
   borderopacity="1"
   objecttolerance="10"
   gridtolerance="10"
   guidetolerance="10"
   inkscape:pageopacity="0"
   inkscape:pageshadow="2"
   inkscape:window-width="640"
   inkscape:window-height="480"
   id="namedview69"
   showgrid="false"
   inkscape:zoom="2.4486917"
   inkscape:cx="21.259831"
   inkscape:cy="14.175301"
   inkscape:window-x="0"
   inkscape:window-y="0"
   inkscape:window-maximized="0"
   inkscape:current-layer="svg67" />
	<style
   type="text/css"
   id="style2">
	<![CDATA[
		.st1 {fill:#3e3e3e;stroke:none;stroke-linecap:butt;stroke-width:0.75}
		.st2 {fill:#a0a1a2;stroke:none;stroke-linecap:butt;stroke-width:0.75}
		.st3 {fill:#ffffff;stroke:none;stroke-linecap:butt;stroke-width:0.75}
		.st4 {fill:#7fba00;stroke:none;stroke-linecap:butt;stroke-width:0.75}
		.st5 {fill:#b8d432;stroke:none;stroke-linecap:butt;stroke-width:0.75}
		.st6 {fill:#3999c6;stroke:none;stroke-linecap:butt;stroke-width:0.75}
		.st7 {fill:#59b4d9;stroke:none;stroke-linecap:butt;stroke-width:0.75}
		.st8 {fill:none;fill-rule:evenodd;font-size:12px;overflow:visible;stroke-linecap:square;stroke-miterlimit:3}
	]]>
	</style>

	<g
   id="g65"
   transform="translate(-4.25197,-5.6719)">
		<title
   id="title4">Page-1</title>
		<g
   id="group20759-1"
   transform="translate(4.25197,-34.0157)">
			<title
   id="title6">Data Lake.20759</title>
			<g
   id="group20760-2">
				<title
   id="title8">g12</title>
				<g
   id="shape20761-3"
   transform="translate(0,-0.113386)">
					<title
   id="title10">path2</title>
					<path
   d="m 0,47.51 v 41.16 c 0,4.31 9.45,7.71 21.26,7.71 V 47.51 Z"
   class="st1"
   id="path12"
   inkscape:connector-curvature="0"
   style="fill:#3e3e3e;stroke:none;stroke-width:0.75;stroke-linecap:butt" />
				</g>
				<g
   id="shape20762-5"
   transform="translate(20.9224)">
					<title
   id="title15">path4</title>
					<path
   d="m 0,96.38 h 0.34 c 11.7,0 21.26,-3.52 21.26,-7.71 V 47.4 H 0 Z"
   class="st2"
   id="path17"
   inkscape:connector-curvature="0"
   style="fill:#a0a1a2;stroke:none;stroke-width:0.75;stroke-linecap:butt" />
				</g>
				<g
   id="shape20763-7"
   transform="translate(0,-41.2724)">
					<title
   id="title20">path6</title>
					<path
   d="m 42.52,88.67 c 0,4.31 -9.45,7.71 -21.26,7.71 C 9.45,96.38 0,92.98 0,88.67 c 0,-4.2 9.56,-7.71 21.26,-7.71 11.7,0 21.26,3.51 21.26,7.71 z"
   class="st3"
   id="path22"
   inkscape:connector-curvature="0"
   style="fill:#ffffff;stroke:none;stroke-width:0.75;stroke-linecap:butt" />
				</g>
				<g
   id="shape20764-9"
   transform="translate(4.38695,-44.3339)">
					<title
   id="title25">path8</title>
					<path
   d="m 33.75,91.28 c 0,2.83 -7.54,5.1 -16.88,5.1 C 7.54,96.38 0,94.11 0,91.28 c 0,-2.84 7.54,-5.11 16.87,-5.11 9.34,0 16.88,2.27 16.88,5.11 z"
   class="st4"
   id="path27"
   inkscape:connector-curvature="0"
   style="fill:#7fba00;stroke:none;stroke-width:0.75;stroke-linecap:butt" />
				</g>
				<g
   id="shape20765-11"
   transform="translate(4.38695,-46.2614)">
					<title
   id="title30">path10</title>
					<path
   d="m 30.26,96.38 c 2.25,-0.91 3.49,-1.93 3.49,-3.18 0,-2.83 -7.54,-5.1 -16.88,-5.1 C 7.54,88.1 0,90.37 0,93.2 c 0,1.14 1.35,2.27 3.49,3.18 3.03,-1.25 7.87,-2.04 13.38,-2.04 5.4,0 10.24,0.79 13.39,2.04 z"
   class="st5"
   id="path32"
   inkscape:connector-curvature="0"
   style="fill:#b8d432;stroke:none;stroke-width:0.75;stroke-linecap:butt" />
				</g>
			</g>
			<g
   id="group20766-13">
				<title
   id="title36">g24</title>
				<g
   id="shape20767-14">
					<title
   id="title38">path14</title>
					<path
   d="M 20.92,96.38 V 75.97 c -3.15,0 -5.85,-1.7 -7.42,-4.2 -1.58,2.5 -4.16,4.2 -7.31,4.2 -2.48,0 -4.62,-1.02 -6.19,-2.72 v 15.42 c 0,4.19 9.34,7.59 20.92,7.71 z"
   class="st6"
   id="path40"
   inkscape:connector-curvature="0"
   style="fill:#3999c6;stroke:none;stroke-width:0.75;stroke-linecap:butt" />
				</g>
				<g
   id="shape20768-16"
   transform="translate(21.2598)">
					<title
   id="title43">path16</title>
					<path
   d="m 0,96.38 c 0,0 0,0 0,0 z"
   class="st6"
   id="path45"
   inkscape:connector-curvature="0"
   style="fill:#3999c6;stroke:none;stroke-width:0.75;stroke-linecap:butt" />
				</g>
				<g
   id="shape20769-18"
   transform="translate(20.9224)">
					<title
   id="title48">path18</title>
					<path
   d="m 0,96.38 h 0.34 c -0.12,0 -0.23,0 -0.34,0 z"
   class="st7"
   id="path50"
   inkscape:connector-curvature="0"
   style="fill:#59b4d9;stroke:none;stroke-width:0.75;stroke-linecap:butt" />
				</g>
				<g
   id="shape20770-20"
   transform="translate(21.1474)">
					<title
   id="title53">path20</title>
					<path
   d="m 14.85,75.97 c -3.15,0 -5.96,-1.7 -7.54,-4.2 -1.46,2.5 -4.16,4.09 -7.31,4.2 v 20.41 c 11.7,0 21.26,-3.52 21.26,-7.71 V 73.13 c -1.57,1.7 -3.82,2.84 -6.41,2.84 z"
   class="st7"
   id="path55"
   inkscape:connector-curvature="0"
   style="fill:#59b4d9;stroke:none;stroke-width:0.75;stroke-linecap:butt" />
				</g>
				<g
   id="shape20771-22"
   transform="translate(20.9224)">
					<title
   id="title58">path22</title>
					<path
   d="m 0.11,75.97 c 0,0 0,0 0,0 L 0,96.38 c 0.11,0 0.11,0 0.22,0 V 75.97 c 0,0 0,0 -0.11,0 z"
   class="st7"
   id="path60"
   inkscape:connector-curvature="0"
   style="fill:#59b4d9;stroke:none;stroke-width:0.75;stroke-linecap:butt" />
				</g>
			</g>
		</g>
	</g>
</svg>