<?xml version="1.0" encoding="UTF-8" standalone="no"?>
<!DOCTYPE svg PUBLIC "-//W3C//DTD SVG 1.1//EN" "http://www.w3.org/Graphics/SVG/1.1/DTD/svg11.dtd">
<!-- Generated by Microsoft Visio, SVG Export Deployment.svg Page-1 -->
<svg xmlns="http://www.w3.org/2000/svg" xmlns:xlink="http://www.w3.org/1999/xlink" xmlns:ev="http://www.w3.org/2001/xml-events"
		width="1.1274in" height="1.39047in" viewBox="0 0 81.1729 100.114" xml:space="preserve" color-interpolation-filters="sRGB"
		class="st2">
	<style type="text/css">
	<![CDATA[
		.st1 {fill:#000000;stroke:none;stroke-linecap:butt;stroke-width:12.24}
		.st2 {fill:none;fill-rule:evenodd;font-size:12px;overflow:visible;stroke-linecap:square;stroke-miterlimit:3}
	]]>
	</style>

	<g>
		<title>Page-1</title>
		<g id="group7622-1" transform="translate(12.24,-34.0157)">
			<title>Deployment.7622</title>
			<g id="group7623-2">
				<title>g8</title>
				<g id="shape7624-3">
					<title>path4</title>
					<path d="M26.73 52.85 L18.9 60.36 L18.9 56.28 L28.34 46.26 L37.8 56.25 L37.8 60.31 L30.01 52.85 L30.01 66.14
								 L26.73 66.14 L26.73 52.85 ZM54.6 71.47 L2.1 71.47 C0.94 71.47 0 72.42 0 73.59 L0 97.99 C0 99.16
								 0.95 100.11 2.1 100.11 L54.59 100.11 C55.75 100.11 56.69 99.16 56.69 97.99 L56.69 73.59 A2.10688
								 2.12912 -180 0 0 54.6 71.47 ZM52.42 95.54 L4.23 95.54 L4.23 76.05 L52.42 76.05 L52.42 95.54 Z"
							class="st1"/>
				</g>
				<g id="shape7625-5" transform="translate(9.33127,-9.16736)">
					<title>path6</title>
					<path d="M14.08 90.58 L23.52 90.58 L23.52 100.11 L14.08 100.11 L14.08 90.58 ZM28.16 90.58 L37.6 90.58 L37.6 100.11
								 L28.16 100.11 L28.16 90.58 ZM0 90.58 L9.44 90.58 L9.44 100.11 L0 100.11 L0 90.58 Z" class="st1"/>
				</g>
			</g>
		</g>
	</g>
</svg>
