<?xml version="1.0" encoding="UTF-8" standalone="no"?>
<!DOCTYPE svg PUBLIC "-//W3C//DTD SVG 1.1//EN" "http://www.w3.org/Graphics/SVG/1.1/DTD/svg11.dtd">
<!-- Generated by Microsoft Visio, SVG Export Azure Edge Hardware Center.svg Page-1 -->
<svg xmlns="http://www.w3.org/2000/svg" xmlns:xlink="http://www.w3.org/1999/xlink" xmlns:ev="http://www.w3.org/2001/xml-events"
		width="0.944882in" height="1.33858in" viewBox="0 0 68.0315 96.378" xml:space="preserve" color-interpolation-filters="sRGB"
		class="st8">
	<style type="text/css">
	<![CDATA[
		.st1 {fill:none;stroke:none;stroke-linecap:butt;stroke-width:5.32174}
		.st2 {fill:#ccebf8;stroke:none;stroke-linecap:butt;stroke-width:5.32174}
		.st3 {fill:#b3e3f6;stroke:none;stroke-linecap:butt;stroke-width:5.32174}
		.st4 {fill:#75d0eb;stroke:none;stroke-linecap:butt;stroke-width:5.32174}
		.st5 {fill:#e9f7fe;stroke:none;stroke-linecap:butt;stroke-width:5.32174}
		.st6 {fill:url(#grad0-16);stroke:none;stroke-linecap:butt;stroke-width:5.32174}
		.st7 {fill:#f3f3f3;stroke:none;stroke-linecap:butt;stroke-width:5.32174}
		.st8 {fill:none;fill-rule:evenodd;font-size:12px;overflow:visible;stroke-linecap:square;stroke-miterlimit:3}
	]]>
	</style>

	<defs id="Patterns_And_Gradients">
		<linearGradient id="grad0-16" x1="0" y1="0" x2="1" y2="0" gradientTransform="rotate(90 0.5 0.5)">
			<stop offset="0" stop-color="#8bb6e1" stop-opacity="1"/>
			<stop offset="0.8" stop-color="#2e76bc" stop-opacity="1"/>
		</linearGradient>
	</defs>
	<g>
		<title>Page-1</title>
		<g id="group11366-1" transform="translate(5.66929,-34.0157)">
			<title>Azure Edge Hardware Center.11366</title>
			<g id="group11367-2">
				<title>Sheet.11367</title>
				<g id="shape11368-3">
					<title>Sheet.11368</title>
					<rect x="0" y="39.685" width="56.6929" height="56.6929" class="st1"/>
				</g>
				<g id="shape11369-5" transform="translate(30.0768,-2.39589)">
					<title>Sheet.11369</title>
					<path d="M0 75.91 L11.82 68.99 L23.78 75.91 L23.78 89.6 L11.82 96.38 L0 89.6 L0 75.91 Z" class="st2"/>
				</g>
				<g id="shape11370-7" transform="translate(30.0768,-2.39589)">
					<title>Sheet.11370</title>
					<path d="M0 75.91 L11.82 82.69 L11.82 96.38 L0 89.6 L0 75.91 Z" class="st3"/>
				</g>
				<g id="shape11371-9" transform="translate(41.8936,-2.39589)">
					<title>Sheet.11371</title>
					<path d="M11.96 75.91 L0 82.69 L0 96.38 L11.96 89.6 L11.96 75.91 Z" class="st4"/>
				</g>
				<g id="shape11372-11" transform="translate(34.1094,-14.5035)">
					<title>Sheet.11372</title>
					<path d="M0.29 90.32 L11.82 83.27 L15.43 85.29 L3.89 92.35 L3.89 96.38 L3.46 96.38 L1.88 94.5 L1.59 94.5 L0.15
								 94.8 L0 94.8 L0.29 90.32 Z" class="st5"/>
				</g>
				<g id="shape11373-13" transform="translate(2.82972,-10.6139)">
					<title>Sheet.11373</title>
					<path d="M31.92 54.55 L1.97 54.55 A1.8684 1.8684 -180 0 0 0 56.32 L0 94.61 A1.8684 1.8684 -180 0 0 1.97 96.38
								 L26.13 96.38 L26.13 83.56 L33.88 78.94 L33.88 56.32 A1.8684 1.8684 -180 0 0 31.92 54.55 Z"
							class="st6"/>
				</g>
				<g id="shape11374-17" transform="translate(6.43834,-32.0833)">
					<title>Sheet.11374</title>
					<path d="M8.21 85.28 A1.44444 1.44444 0 0 1 9.66 83.84 L25.37 83.84 A1.44444 1.44444 0 0 1 26.81 85.28 L26.81
								 86.72 A1.44444 1.44444 0 0 1 25.37 88.16 L9.66 88.16 A1.44937 1.44937 0 0 1 8.21 86.72 L8.21 85.28
								 ZM5.62 94.94 A1.44444 1.44444 0 0 1 4.18 96.38 L1.45 96.38 A1.44444 1.44444 0 0 1 0 94.94 L0 93.49
								 A1.44444 1.44444 0 0 1 1.45 92.05 L4.19 92.05 A1.44444 1.44444 0 0 1 5.63 93.49 L5.62 94.94 ZM5.62
								 86.72 A1.44444 1.44444 0 0 1 4.18 88.16 L1.45 88.16 A1.44444 1.44444 0 0 1 0.01 86.72 L0.01 85.28
								 A1.44444 1.44444 0 0 1 1.45 83.84 L4.19 83.84 A1.44444 1.44444 0 0 1 5.63 85.28 L5.62 86.72 ZM8.21
								 94.94 L8.21 93.49 A1.44444 1.44444 0 0 1 9.66 92.05 L25.37 92.05 A1.44444 1.44444 0 0 1 26.81 93.49
								 L26.81 94.94 A1.44444 1.44444 0 0 1 25.37 96.38 L9.66 96.38 A1.36063 1.36063 0 0 1 8.21 94.94 Z"
							class="st7"/>
				</g>
			</g>
		</g>
	</g>
</svg>
