<?xml version="1.0" encoding="UTF-8" standalone="no"?>
<!DOCTYPE svg PUBLIC "-//W3C//DTD SVG 1.1//EN" "http://www.w3.org/Graphics/SVG/1.1/DTD/svg11.dtd">
<!-- Generated by Microsoft Visio, SVG Export SQL Database Query Performance Insight.svg Page-1 -->
<svg xmlns="http://www.w3.org/2000/svg" xmlns:xlink="http://www.w3.org/1999/xlink" xmlns:ev="http://www.w3.org/2001/xml-events"
		width="0.944882in" height="1.33858in" viewBox="0 0 68.0315 96.378" xml:space="preserve" color-interpolation-filters="sRGB"
		class="st7">
	<style type="text/css">
	<![CDATA[
		.st1 {fill:#b8d432;stroke:none;stroke-linecap:butt;stroke-width:0.038081}
		.st2 {fill:#57a300;stroke:none;stroke-linecap:butt;stroke-width:0.038081}
		.st3 {fill:#6dc2e9;stroke:none;stroke-linecap:butt;stroke-width:0.038081}
		.st4 {fill:#804998;stroke:none;stroke-linecap:butt;stroke-width:0.038081}
		.st5 {fill:#808080;stroke:none;stroke-linecap:butt;stroke-width:0.038081}
		.st6 {fill:#ffffff;stroke:none;stroke-linecap:butt;stroke-width:0.038081}
		.st7 {fill:none;fill-rule:evenodd;font-size:12px;overflow:visible;stroke-linecap:square;stroke-miterlimit:3}
	]]>
	</style>

	<g>
		<title>Page-1</title>
		<g id="group17276-1" transform="translate(5.66929,-34.0157)">
			<title>SQL Database Query Performance Insight.17276</title>
			<g id="group17277-2">
				<title>Sheet.17277</title>
				<g id="shape17278-3" transform="translate(3.77083,-45.355)">
					<title>Sheet.17278</title>
					<ellipse cx="18.8965" cy="90.709" rx="18.8965" ry="5.66894" class="st1"/>
				</g>
				<g id="shape17279-5" transform="translate(7.91909,-45.355)">
					<title>Sheet.17279</title>
					<path d="M29.5 94.25 C26.04 92.96 20.72 92.13 14.75 92.13 C8.78 92.13 3.46 92.96 0 94.25 C3.46 95.55 8.78 96.38
								 14.75 96.38 C20.72 96.38 26.04 95.55 29.5 94.25 Z" class="st2"/>
				</g>
				<g id="shape17280-7">
					<title>Sheet.17280</title>
					<path d="M45.36 47.24 L45.35 87.88 C45.35 92.57 35.2 96.38 22.68 96.38 C10.16 96.38 0 92.57 0 87.88 L0.01 47.24
								 C0.01 51.94 10.16 55.74 22.68 55.74 C35.2 55.74 45.36 51.94 45.36 47.24 Z" class="st3"/>
				</g>
				<g id="shape17281-9" transform="translate(3.77788,-22.6687)">
					<title>Sheet.17281</title>
					<path d="M0 77.48 L11.34 77.48 L11.34 88.81 L0 88.81 L0 77.48 ZM22.67 85.04 L34.01 85.04 L34.01 96.38 L22.67
								 96.38 L22.67 85.04 ZM41.57 66.14 L52.91 66.14 L52.91 77.48 L41.57 77.48 L41.57 66.14 Z"
							class="st4"/>
				</g>
				<g id="shape17282-11" transform="translate(7.55929,-26.4539)">
					<title>Sheet.17282</title>
					<path d="M0 85.04 L22.67 92.6 L41.57 73.7 L45.35 77.48 L25.9 95.82 L26.46 96.38 L24.56 96.37 L0 88.81 L0 85.04
								 Z" class="st4"/>
				</g>
				<g id="shape17283-13" transform="translate(3.77788,0)">
					<title>Sheet.17283</title>
					<rect x="0" y="77.4768" width="52.915" height="18.9012" class="st5"/>
				</g>
				<g id="shape17284-15" transform="translate(7.55929,-3.77812)">
					<title>Sheet.17284</title>
					<path d="M0 96.38 L45.35 96.38 L45.35 85.04 L0 85.04 L0 96.38 ZM3.78 92.6 L7.56 92.6 L7.56 88.82 L3.78 88.82
								 L3.78 92.6 Z" class="st6"/>
				</g>
			</g>
		</g>
	</g>
</svg>
