<?xml version="1.0" encoding="UTF-8" standalone="no"?>
<!DOCTYPE svg PUBLIC "-//W3C//DTD SVG 1.1//EN" "http://www.w3.org/Graphics/SVG/1.1/DTD/svg11.dtd">
<!-- Generated by Microsoft Visio, SVG Export Intune Managed Desktop.svg Page-1 -->
<svg xmlns="http://www.w3.org/2000/svg" xmlns:xlink="http://www.w3.org/1999/xlink" xmlns:ev="http://www.w3.org/2001/xml-events"
		width="0.944882in" height="1.20866in" viewBox="0 0 68.0315 87.0236" xml:space="preserve" color-interpolation-filters="sRGB"
		class="st6">
	<style type="text/css">
	<![CDATA[
		.st1 {fill:url(#grad0-5);stroke:none;stroke-linecap:butt;stroke-width:0.75}
		.st2 {fill:#ffffff;stroke:none;stroke-linecap:butt;stroke-width:0.75}
		.st3 {fill:url(#grad0-11);stroke:none;stroke-linecap:butt;stroke-width:0.75}
		.st4 {fill:#86d633;stroke:none;stroke-linecap:butt;stroke-width:0.75}
		.st5 {fill:#5e9624;stroke:none;stroke-linecap:butt;stroke-width:0.75}
		.st6 {fill:none;fill-rule:evenodd;font-size:12px;overflow:visible;stroke-linecap:square;stroke-miterlimit:3}
	]]>
	</style>

	<defs id="Patterns_And_Gradients">
		<linearGradient id="grad0-5" x1="0" y1="0" x2="1" y2="0" gradientTransform="rotate(-90 0.5 0.5)">
			<stop offset="0" stop-color="#0078d4" stop-opacity="1"/>
			<stop offset="0.82" stop-color="#5ea0ef" stop-opacity="1"/>
		</linearGradient>
		<linearGradient id="grad0-11" x1="0" y1="0" x2="1" y2="0" gradientTransform="rotate(-90 0.5 0.5)">
			<stop offset="0" stop-color="#1490df" stop-opacity="1"/>
			<stop offset="0.98" stop-color="#1f56a3" stop-opacity="1"/>
		</linearGradient>
	</defs>
	<g>
		<title>Page-1</title>
		<g id="group3683-1" transform="translate(5.66929,-34.0157)">
			<title>Intune Managed Desktop</title>
			<g id="shape3684-2" transform="translate(0,-15.2017)">
				<title>Sheet.3684</title>
				<path d="M0 85.37 A1.6224 1.6494 -180 0 0 1.62 87.02 L47.05 87.02 A1.6224 1.6494 -180 0 0 48.67 85.37 L48.67 55.69
							 A1.6224 1.6494 -180 0 0 47.05 54.04 L1.62 54.04 A1.6224 1.6494 -180 0 0 0 55.69 L0 85.37 Z"
						class="st1"/>
			</g>
			<g id="shape3685-6" transform="translate(2.70394,-17.9506)">
				<title>Sheet.3685</title>
				<path d="M-0 86.12 a0.892322 0.907172 -180 0 0 0.892301 0.907151 L42.37 87.02 a0.892322 0.907172 -180 0 0 0.892301
							 -0.907151 L43.26 60.44 a0.892322 0.907172 -180 0 0 -0.892301 -0.907151 L0.89 59.53 a0.892322 0.907172
							 -180 0 0 -0.892301 0.907151 L0 86.12 Z" class="st2"/>
			</g>
			<g id="shape3686-8" transform="translate(12.1677,-2.47405)">
				<title>Sheet.3686</title>
				<path d="M21.93 84.27 C17.12 83.5 16.93 79.99 16.95 74.3 L7.38 74.3 C7.38 79.99 7.22 83.5 2.41 84.27 A2.83914 2.88639
							 -180 0 0 -0 87.02 L24.34 87.02 A2.83914 2.88639 -180 0 0 21.93 84.27 Z" class="st3"/>
			</g>
			<g id="shape3687-12" transform="translate(87.7562,103.445) rotate(135)">
				<title>Sheet.3687</title>
				<path d="M16.22 75.09 L18.79 75.09 a0.784144 0.797194 0 0 1 0.784144 0.797194 L19.58 86.23 a0.784144 0.797194 0 0
							 1 -0.784144 0.797194 L17.01 87.02 a0.784144 0.797194 0 0 1 -0.784144 -0.797194 L16.22 75.23 L16.22 75.09
							 Z" class="st4"/>
			</g>
			<g id="shape3688-14" transform="translate(-4.67025,127.39) rotate(-135)">
				<title>Sheet.3688</title>
				<path d="M27.34 62.5 L29.91 62.5 L29.91 86.23 a0.784144 0.797194 0 0 1 -0.784144 0.797194 L27.36 87.02 a0.784144
							 0.797194 0 0 1 -0.784144 -0.797194 L26.58 63.3 a0.784144 0.797194 0 0 1 0.784144 -0.797194 L27.34 62.5
							 Z" class="st5"/>
			</g>
		</g>
	</g>
</svg>
