<?xml version="1.0" encoding="UTF-8" standalone="no"?>
<!-- Generated by Microsoft Visio, SVG Export Bot Service.svg Page-1 -->
<svg xmlns:dc="http://purl.org/dc/elements/1.1/" xmlns:cc="http://creativecommons.org/ns#" xmlns:rdf="http://www.w3.org/1999/02/22-rdf-syntax-ns#" xmlns:svg="http://www.w3.org/2000/svg" xmlns="http://www.w3.org/2000/svg" xmlns:sodipodi="http://sodipodi.sourceforge.net/DTD/sodipodi-0.dtd" xmlns:inkscape="http://www.inkscape.org/namespaces/inkscape" width="62.059226" height="61.94817" viewBox="0 0 62.059226 61.94817" xml:space="preserve" class="st4" version="1.1" id="svg53" sodipodi:docname="Bot Service.svg" style="font-size:12px;overflow:visible;color-interpolation-filters:sRGB;fill:none;fill-rule:evenodd;stroke-linecap:square;stroke-miterlimit:3" inkscape:version="0.92.5 (2060ec1f9f, 2020-04-08)">
  <metadata id="metadata57">
    <rdf:RDF>
      <cc:Work rdf:about="">
        <dc:format>image/svg+xml</dc:format>
        <dc:type rdf:resource="http://purl.org/dc/dcmitype/StillImage" />
      </cc:Work>
    </rdf:RDF>
  </metadata>
  <sodipodi:namedview pagecolor="#ffffff" bordercolor="#666666" borderopacity="1" objecttolerance="10" gridtolerance="10" guidetolerance="10" inkscape:pageopacity="0" inkscape:pageshadow="2" inkscape:window-width="640" inkscape:window-height="480" id="namedview55" showgrid="false" inkscape:zoom="1.3789867" inkscape:cx="41.374035" inkscape:cy="41.300296" inkscape:window-x="0" inkscape:window-y="0" inkscape:window-maximized="0" inkscape:current-layer="svg53" />
	<style type="text/css" id="style2">
	<![CDATA[
		.st1 {fill:url(#grad7-5);stroke:none;stroke-linecap:butt;stroke-width:33.2033}
		.st2 {fill:#ffffff;stroke:none;stroke-linecap:butt;stroke-width:33.2033}
		.st3 {fill:#32bedd;stroke:none;stroke-linecap:butt;stroke-width:33.2033}
		.st4 {fill:none;fill-rule:evenodd;font-size:12px;overflow:visible;stroke-linecap:square;stroke-miterlimit:3}
	]]>
	</style>

	<defs id="Patterns_And_Gradients">
		<radialGradient id="grad7-5" cx="-9.0810676" cy="75.547593" r="86.805144" gradientTransform="scale(1.0008955,0.99910529)" fx="-9.0810676" fy="75.547593" gradientUnits="userSpaceOnUse">
			<stop offset="0.67" stop-color="#6bb9f2" stop-opacity="1" id="stop4" />
			<stop offset="0.74" stop-color="#61b4f1" stop-opacity="1" id="stop6" />
			<stop offset="0.85" stop-color="#47a8ef" stop-opacity="1" id="stop8" />
			<stop offset="0.99" stop-color="#1d94eb" stop-opacity="1" id="stop10" />
			<stop offset="1" stop-color="#1b93eb" stop-opacity="1" id="stop12" />
		</radialGradient>
	</defs>
	<g id="g51" transform="translate(-33.20246,-33.20454)">
		<title id="title16">Page-1</title>
		<g id="group19533-1" transform="translate(38.5696,-38.4586)">
			<title id="title18">Bot Service.19533</title>
			<g id="shape19534-2" transform="translate(3.72206,-3.81686)">
				<title id="title20">f6a29e1b-194b-4d8d-8529-49edea7</title>
				<path d="M 21.94,75.48 A 31.0296,30.9741 -180 1 0 52.97,106.45 31.0296,30.9741 -180 0 0 21.94,75.48 Z" class="st1" id="path22" inkscape:connector-curvature="0" style="fill:url(#grad7-5);stroke:none;stroke-width:33.20330048;stroke-linecap:butt" />
			</g>
			<g id="shape19535-6">
				<title id="title25">circle18</title>
				<ellipse cx="25.6633" cy="102.737" rx="25.6633" ry="25.617399" class="st2" id="ellipse27" style="fill:#ffffff;stroke:none;stroke-width:33.20330048;stroke-linecap:butt" />
			</g>
			<g id="shape19536-8" transform="translate(16.7121,-23.4202)">
				<title id="title30">circle20</title>
				<ellipse cx="2.81092" cy="125.549" rx="2.81092" ry="2.8058901" class="st3" id="ellipse32" style="fill:#32bedd;stroke:none;stroke-width:33.20330048;stroke-linecap:butt" />
			</g>
			<g id="shape19537-10" transform="translate(9.08243,-10.1924)">
				<title id="title35">path22</title>
				<path d="M 2.45,104.3 H 1.06 A 1.05866,1.05676 -180 0 0 0,105.36 v 20.84 a 2.15382,2.14997 -180 0 0 2.15,2.15 h 20.34 a 1.05866,1.05676 -180 0 0 1.06,-1.09 v -1.38 a 1.05866,1.05676 -180 0 0 -1.06,-1.06 H 4.23 A 0.511076,0.510161 0 0 1 3.718922,124.27343 L 3.72,105.36 A 1.05866,1.05676 -180 0 0 2.45,104.3 Z" class="st3" id="path37" inkscape:connector-curvature="0" style="fill:#32bedd;stroke:none;stroke-width:33.20330048;stroke-linecap:butt" />
			</g>
			<g id="shape19538-12" transform="translate(28.0288,-23.4202)">
				<title id="title40">circle24</title>
				<ellipse cx="2.81092" cy="125.549" rx="2.81092" ry="2.8058901" class="st3" id="ellipse42" style="fill:#32bedd;stroke:none;stroke-width:33.20330048;stroke-linecap:butt" />
			</g>
			<g id="shape19539-14" transform="translate(17.6612,-18.2092)">
				<title id="title45">path26</title>
				<path d="M 20,104.3 H 1.06 A 1.05866,1.05676 -180 0 0 0,105.4 v 1.38 a 1.05866,1.05676 -180 0 0 1.06,1.06 h 18.25 a 0.547581,0.546601 0 0 1 0.547588,0.54661 L 19.86,127.3 a 1.05866,1.05676 -180 0 0 1.06,1.05 h 1.38 a 1.05866,1.05676 -180 0 0 1.06,-1.05 v -20.85 a 2.15382,2.14997 -180 0 0 -2.11,-2.15 z" class="st3" id="path47" inkscape:connector-curvature="0" style="fill:#32bedd;stroke:none;stroke-width:33.20330048;stroke-linecap:butt" />
			</g>
		</g>
	</g>
</svg>