<?xml version="1.0" encoding="UTF-8" standalone="no"?>
<!-- Generated by Microsoft Visio, SVG Export Cognitive Services Health and Life Science.svg Page-1 -->
<svg xmlns:dc="http://purl.org/dc/elements/1.1/" xmlns:cc="http://creativecommons.org/ns#" xmlns:rdf="http://www.w3.org/1999/02/22-rdf-syntax-ns#" xmlns:svg="http://www.w3.org/2000/svg" xmlns="http://www.w3.org/2000/svg" xmlns:sodipodi="http://sodipodi.sourceforge.net/DTD/sodipodi-0.dtd" xmlns:inkscape="http://www.inkscape.org/namespaces/inkscape" width="56.690006" height="56.689997" viewBox="0 0 56.690006 56.689997" xml:space="preserve" class="st3" version="1.1" id="svg61" sodipodi:docname="Cognitive Services Health and Life Science.svg" style="font-size:12px;overflow:visible;color-interpolation-filters:sRGB;fill:none;fill-rule:evenodd;stroke-linecap:square;stroke-miterlimit:3" inkscape:version="0.92.5 (2060ec1f9f, 2020-04-08)">
  <metadata id="metadata67">
    <rdf:RDF>
      <cc:Work rdf:about="">
        <dc:format>image/svg+xml</dc:format>
        <dc:type rdf:resource="http://purl.org/dc/dcmitype/StillImage" />
      </cc:Work>
    </rdf:RDF>
  </metadata>
  <defs id="defs65" />
  <sodipodi:namedview pagecolor="#ffffff" bordercolor="#666666" borderopacity="1" objecttolerance="10" gridtolerance="10" guidetolerance="10" inkscape:pageopacity="0" inkscape:pageshadow="2" inkscape:window-width="640" inkscape:window-height="480" id="namedview63" showgrid="false" inkscape:zoom="1.8244067" inkscape:cx="37.795264" inkscape:cy="19.327114" inkscape:window-x="0" inkscape:window-y="0" inkscape:window-maximized="0" inkscape:current-layer="svg61" />
	<style type="text/css" id="style2">
	<![CDATA[
		.st1 {fill:#0078d4;stroke:none;stroke-linecap:butt;stroke-width:6.30928}
		.st2 {fill:#50e6ff;stroke:none;stroke-linecap:butt;stroke-width:6.30928}
		.st3 {fill:none;fill-rule:evenodd;font-size:12px;overflow:visible;stroke-linecap:square;stroke-miterlimit:3}
	]]>
	</style>

	<g id="g59" transform="translate(-6.30928,-6.3143)">
		<title id="title4">Page-1</title>
		<g id="group19344-1" transform="translate(6.30928,-34.0157)">
			<title id="title6">Cognitive Services Health and Life Science.19344</title>
			<g id="shape19345-2">
				<title id="title8">Sheet.19345</title>
				<path d="M 28.35,40.33 C 12.69,40.33 0,53.02 0,68.67 0,84.33 12.69,97.02 28.35,97.02 44,97.02 56.69,84.33 56.69,68.67 56.69,53.02 44,40.33 28.35,40.33 Z m 0,0.44 c 15.38,0 27.9,12.52 27.9,27.9 0,15.39 -12.52,27.91 -27.9,27.91 -15.39,0 -27.91,-12.52 -27.91,-27.91 0,-15.38 12.52,-27.9 27.91,-27.9 z" class="st1" id="path10" inkscape:connector-curvature="0" style="fill:#0078d4;stroke:none;stroke-width:6.30927992;stroke-linecap:butt" />
			</g>
			<g id="shape19346-4" transform="translate(6.64368,-6.6437)">
				<title id="title13">Sheet.19346</title>
				<path d="M 21.7,53.61 C 9.72,53.61 0,63.33 0,75.32 c 0,11.98 9.72,21.7 21.7,21.7 11.99,0 21.71,-9.72 21.71,-21.7 0,-11.99 -9.72,-21.71 -21.71,-21.71 z m 0,0.44 c 11.73,0 21.26,9.54 21.26,21.27 0,11.72 -9.53,21.26 -21.26,21.26 C 9.98,96.58 0.44,87.04 0.44,75.32 0.44,63.59 9.98,54.05 21.7,54.05 Z" class="st1" id="path15" inkscape:connector-curvature="0" style="fill:#0078d4;stroke:none;stroke-width:6.30927992;stroke-linecap:butt" />
			</g>
			<g id="shape19347-6" transform="translate(12.8445,-12.8445)">
				<title id="title18">Sheet.19347</title>
				<path d="M 15.28,66.46 C 6.84,66.46 0,73.3 0,81.74 c 0,8.44 6.84,15.28 15.28,15.28 8.44,0 15.28,-6.84 15.28,-15.28 0,-8.44 -6.84,-15.28 -15.28,-15.28 z m 0,0.44 c 8.18,0 14.84,6.66 14.84,14.84 0,8.18 -6.66,14.83 -14.84,14.83 C 7.1,96.57 0.44,89.92 0.44,81.74 0.44,73.56 7.1,66.9 15.28,66.9 Z" class="st1" id="path20" inkscape:connector-curvature="0" style="fill:#0078d4;stroke:none;stroke-width:6.30927992;stroke-linecap:butt" />
			</g>
			<g id="shape19348-8" transform="translate(23.0315,-23.0315)">
				<title id="title23">Sheet.19348</title>
				<path d="m 10.63,91.7 c 0,2.94 -2.38,5.32 -5.32,5.32 C 2.38,97.02 0,94.64 0,91.7 c 0,-2.93 2.38,-5.31 5.31,-5.31 2.94,0 5.32,2.38 5.32,5.31 z" class="st1" id="path25" inkscape:connector-curvature="0" style="fill:#0078d4;stroke:none;stroke-width:6.30927992;stroke-linecap:butt" />
			</g>
			<g id="shape19349-10" transform="translate(38.0905,-17.7165)">
				<title id="title28">Sheet.19349</title>
				<path d="m 5.31,94.36 c 0,1.47 -1.19,2.66 -2.65,2.66 C 1.19,97.02 0,95.83 0,94.36 0,92.89 1.19,91.7 2.66,91.7 c 1.46,0 2.65,1.19 2.65,2.66 z" class="st1" id="path30" inkscape:connector-curvature="0" style="fill:#0078d4;stroke:none;stroke-width:6.30927992;stroke-linecap:butt" />
			</g>
			<g id="shape19350-12" transform="translate(10.6299,-24.8031)">
				<title id="title33">Sheet.19350</title>
				<path d="m 5.31,94.36 c 0,1.47 -1.19,2.66 -2.65,2.66 C 1.19,97.02 0,95.83 0,94.36 0,92.89 1.19,91.7 2.66,91.7 c 1.46,0 2.65,1.19 2.65,2.66 z" class="st1" id="path35" inkscape:connector-curvature="0" style="fill:#0078d4;stroke:none;stroke-width:6.30927992;stroke-linecap:butt" />
			</g>
			<g id="shape19351-14" transform="translate(30.1181,-46.063)">
				<title id="title38">Sheet.19351</title>
				<path d="m 5.31,94.36 c 0,1.47 -1.19,2.66 -2.65,2.66 C 1.19,97.02 0,95.83 0,94.36 0,92.89 1.19,91.7 2.66,91.7 c 1.46,0 2.65,1.19 2.65,2.66 z" class="st2" id="path40" inkscape:connector-curvature="0" style="fill:#50e6ff;stroke:none;stroke-width:6.30927992;stroke-linecap:butt" />
			</g>
			<g id="shape19352-16" transform="translate(40.748,-1.77165)">
				<title id="title43">Sheet.19352</title>
				<path d="m 5.31,94.36 c 0,1.47 -1.19,2.66 -2.65,2.66 C 1.19,97.02 0,95.83 0,94.36 0,92.89 1.19,91.7 2.66,91.7 c 1.46,0 2.65,1.19 2.65,2.66 z" class="st1" id="path45" inkscape:connector-curvature="0" style="fill:#0078d4;stroke:none;stroke-width:6.30927992;stroke-linecap:butt" />
			</g>
			<g id="shape19353-18" transform="translate(3.54331,-8.85827)">
				<title id="title48">Sheet.19353</title>
				<path d="m 5.31,94.36 c 0,1.47 -1.19,2.66 -2.65,2.66 C 1.19,97.02 0,95.83 0,94.36 0,92.89 1.19,91.7 2.66,91.7 c 1.46,0 2.65,1.19 2.65,2.66 z" class="st2" id="path50" inkscape:connector-curvature="0" style="fill:#50e6ff;stroke:none;stroke-width:6.30927992;stroke-linecap:butt" />
			</g>
			<g id="shape19354-20" transform="translate(47.8346,-42.5197)">
				<title id="title53">Sheet.19354</title>
				<path d="m 5.31,94.36 c 0,1.47 -1.19,2.66 -2.65,2.66 C 1.19,97.02 0,95.83 0,94.36 0,92.89 1.19,91.7 2.66,91.7 c 1.46,0 2.65,1.19 2.65,2.66 z" class="st1" id="path55" inkscape:connector-curvature="0" style="fill:#0078d4;stroke:none;stroke-width:6.30927992;stroke-linecap:butt" />
			</g>
		</g>
	</g>
</svg>