<?xml version="1.0" encoding="UTF-8" standalone="no"?>
<!DOCTYPE svg PUBLIC "-//W3C//DTD SVG 1.1//EN" "http://www.w3.org/Graphics/SVG/1.1/DTD/svg11.dtd">
<!-- Generated by Microsoft Visio, SVG Export Resource Graph query.svg Page-1 -->
<svg xmlns="http://www.w3.org/2000/svg" xmlns:xlink="http://www.w3.org/1999/xlink" xmlns:ev="http://www.w3.org/2001/xml-events"
		width="1.73185in" height="1.73206in" viewBox="0 0 124.693 124.709" xml:space="preserve" color-interpolation-filters="sRGB"
		class="st5">
	<style type="text/css">
	<![CDATA[
		.st1 {fill:#552f99;stroke:none;stroke-linecap:butt;stroke-width:34}
		.st2 {fill:#ffffff;stroke:none;stroke-linecap:butt;stroke-width:34}
		.st3 {fill:#b796f9;stroke:none;stroke-linecap:butt;stroke-width:34}
		.st4 {fill:#9a5fe3;stroke:none;stroke-linecap:butt;stroke-width:34}
		.st5 {fill:none;fill-rule:evenodd;font-size:12px;overflow:visible;stroke-linecap:square;stroke-miterlimit:3}
	]]>
	</style>

	<g>
		<title>Page-1</title>
		<g id="group15401-1" transform="translate(34,-34.0157)">
			<title>Resource Graph query.15401</title>
			<g id="group15402-2">
				<title>Sheet.15402</title>
				<g id="shape15403-3" transform="translate(0,-17.6012)">
					<title>Sheet.15403</title>
					<path d="M0 122.76 A1.92682 1.94474 -180 0 0 1.93 124.71 L36.8 124.71 A1.92682 1.94474 -180 0 0 38.73 122.76
								 L38.73 87.56 A1.92682 1.94474 -180 0 0 36.8 85.62 L1.93 85.62 A1.92682 1.94474 -180 0 0 0 87.56
								 L0 122.76 Z" class="st1"/>
				</g>
				<g id="shape15404-5" transform="translate(2.87383,-44.6621)">
					<title>Sheet.15404</title>
					<path d="M0.62 119.04 L32.4 119.04 C32.72 119.04 33.02 119.04 33.02 119.24 L33.02 124.54 C33.02 124.54 32.72
								 124.71 32.4 124.71 L0.62 124.71 C0.26 124.54 0 124.54 0 124.54 L0 119.24 C0 119.24 0.26 119.04 0.62
								 119.04 Z" class="st2"/>
				</g>
				<g id="shape15405-7" transform="translate(2.87383,-24.1604)">
					<title>Sheet.15405</title>
					<path d="M0.62 108.92 L33.02 108.92 L33.02 114.33 L0 114.33 L0 109.09 C0 109.09 0.26 108.92 0.62 108.92 ZM0.62
								 119.3 L33.02 119.3 L33.02 124.54 C33.02 124.54 32.72 124.71 32.4 124.71 L0.62 124.71 C0.26 124.71
								 0 124.71 0 124.54 L0 119.47 C0 119.47 0.26 119.3 0.62 119.3 Z" class="st3"/>
				</g>
				<g id="shape15406-9" transform="translate(28.7803,-5.27376)">
					<title>Sheet.15406</title>
					<path d="M17.46 124.71 L0.28 107.27 A1.33895 1.3514 0 0 1 1.26 104.97 L23.11 104.97 L23.11 107.7 L4.5 107.7 L19.39
								 122.93 L17.46 124.71 Z" class="st3"/>
				</g>
				<g id="shape15407-11" transform="translate(26.7789,-19.7436)">
					<title>Sheet.15407</title>
					<ellipse cx="3.75558" cy="120.918" rx="3.75558" ry="3.79051" class="st4"/>
				</g>
				<g id="shape15408-13" transform="translate(47.0917,-19.2163)">
					<title>Sheet.15408</title>
					<ellipse cx="4.80061" cy="119.863" rx="4.80061" ry="4.84527" class="st4"/>
				</g>
				<g id="shape15409-15" transform="translate(40.7562,0)">
					<title>Sheet.15409</title>
					<ellipse cx="6.1069" cy="118.578" rx="6.1069" ry="6.13075" class="st4"/>
				</g>
			</g>
		</g>
	</g>
</svg>
