<?xml version="1.0" encoding="UTF-8" standalone="no"?>
<!DOCTYPE svg PUBLIC "-//W3C//DTD SVG 1.1//EN" "http://www.w3.org/Graphics/SVG/1.1/DTD/svg11.dtd">
<!-- Generated by Microsoft Visio, SVG Export Azure File Sync.svg Page-1 -->
<svg xmlns="http://www.w3.org/2000/svg" xmlns:xlink="http://www.w3.org/1999/xlink" xmlns:ev="http://www.w3.org/2001/xml-events"
		width="1.7319in" height="1.61396in" viewBox="0 0 124.697 116.205" xml:space="preserve" color-interpolation-filters="sRGB"
		class="st7">
	<style type="text/css">
	<![CDATA[
		.st1 {fill:#0078d4;stroke:none;stroke-linecap:butt;stroke-width:34.0001}
		.st2 {fill:#ffffff;stroke:none;stroke-linecap:butt;stroke-width:34.0001}
		.st3 {fill:url(#grad0-15);stroke:none;stroke-linecap:butt;stroke-width:34.0001}
		.st4 {fill:url(#grad0-24);stroke:none;stroke-linecap:butt;stroke-width:34.0001}
		.st5 {fill:#ffffff;stroke:none;stroke-linecap:round;stroke-linejoin:round;stroke-width:0.750001}
		.st6 {fill:url(#grad0-33);stroke:none;stroke-linecap:butt;stroke-width:34.0001}
		.st7 {fill:none;fill-rule:evenodd;font-size:12px;overflow:visible;stroke-linecap:square;stroke-miterlimit:3}
	]]>
	</style>

	<defs id="Patterns_And_Gradients">
		<linearGradient id="grad0-15" x1="0" y1="0" x2="1" y2="0" gradientTransform="rotate(88.955156399999 0.5 0.5)">
			<stop offset="0" stop-color="#32d4f5" stop-opacity="1"/>
			<stop offset="0.23" stop-color="#31d0f1" stop-opacity="1"/>
			<stop offset="0.46" stop-color="#2cc3e6" stop-opacity="1"/>
			<stop offset="0.7" stop-color="#25afd4" stop-opacity="1"/>
			<stop offset="0.94" stop-color="#1c92ba" stop-opacity="1"/>
			<stop offset="1" stop-color="#198ab3" stop-opacity="1"/>
		</linearGradient>
		<linearGradient id="grad0-24" x1="0" y1="0" x2="1" y2="0" gradientTransform="rotate(-90 0.5 0.5)">
			<stop offset="0" stop-color="#0879e2" stop-opacity="1"/>
			<stop offset="0.325" stop-color="#0a7de4" stop-opacity="1"/>
			<stop offset="0.62" stop-color="#1088eb" stop-opacity="1"/>
			<stop offset="0.91" stop-color="#199af6" stop-opacity="1"/>
			<stop offset="1" stop-color="#1da2fa" stop-opacity="1"/>
		</linearGradient>
		<linearGradient id="grad0-33" x1="0" y1="0" x2="1" y2="0" gradientTransform="rotate(-90 0.5 0.5)">
			<stop offset="0" stop-color="#5e9624" stop-opacity="1"/>
			<stop offset="0.18" stop-color="#629c25" stop-opacity="1"/>
			<stop offset="0.44" stop-color="#6dae2a" stop-opacity="1"/>
			<stop offset="0.73" stop-color="#7fcb30" stop-opacity="1"/>
			<stop offset="0.82" stop-color="#86d633" stop-opacity="1"/>
		</linearGradient>
	</defs>
	<g>
		<title>Page-1</title>
		<g id="group6459-1" transform="translate(34.0039,-34.0157)">
			<title>Azure File Sync</title>
			<g id="group6460-2">
				<title>Page-1</title>
				<g id="group6461-3">
					<title>Sheet.6461</title>
					<g id="group6462-4">
						<title>Sheet.6462</title>
						<g id="group6463-5" transform="translate(9.06286,-36.4076)">
							<title>path10</title>
							<g id="shape6464-6">
								<title>Sheet.6464</title>
								<path d="M37.3 109.02 L6.28 104.42 L5.66 104.42 A4.60274 4.48839 -90 0 0 1.16 108.42 L0 116.21 L41.02
											 116.21 L41.02 114.31 A4.60274 4.48839 -90 0 0 37.3 109.02 Z" class="st1"/>
							</g>
						</g>
						<g id="group6465-8" transform="translate(10.9704,-36.5687)">
							<title>path12</title>
							<g id="shape6466-9">
								<title>Sheet.6466</title>
								<path d="M35.02 111 L4.04 106.4 L3.63 106.4 A2.66959 2.60326 -90 0 0 1.08 108.7 L0 116.21 L36.9 116.21
											 L37.21 114.04 A2.66959 2.60326 -90 0 0 35.02 111 Z" class="st2"/>
							</g>
						</g>
						<g id="group6467-11">
							<title>path14.2825</title>
							<g id="shape6468-12">
								<title>Sheet.6468</title>
								<path d="M1.16 73.9 L28.31 73.9 A1.51891 1.48117 90 0 1 29.26 74.31 L33.76 78.91 A1.3348 1.30163
											 -90 0 0 34.7 79.33 L55.34 79.33 A1.38082 1.34652 90 0 1 56.68 80.67 L56.69 114.86 A1.38082
											 1.34652 90 0 1 55.35 116.2 L1.49 116.21 A1.3348 1.30163 90 0 1 0.01 114.87 L0 75.37
											 A1.38082 1.34652 90 0 1 1.17 73.9 L1.16 73.9 Z" class="st3"/>
							</g>
						</g>
					</g>
					<g id="group6469-16" transform="translate(14.201,-4.25537)">
						<title>Sheet.6469</title>
						<g id="group6470-17">
							<title>Sheet.6470</title>
							<g id="group6471-18">
								<title>Sheet.6471</title>
								<g id="group6472-19">
									<title>g8</title>
									<g id="group6473-20">
										<title>path6</title>
										<g id="shape6474-21">
											<title>Sheet.6474</title>
											<path d="M13.6 88.28 C6.03 88.28 0 94.64 0 102.24 C0 110 6.2 116.21 13.6 116.21 C21.01
														 116.21 27.2 109.83 27.2 102.24 C27.2 94.64 21.17 88.28 13.6 88.28 ZM13.6
														 90.11 C20.12 90.11 25.4 95.53 25.4 102.24 C25.4 108.94 20.07 114.36 13.6
														 114.36 C7.13 114.36 1.8 108.89 1.8 102.24 C1.8 95.6 7.08 90.11 13.6 90.11
														 Z" class="st4"/>
										</g>
									</g>
								</g>
								<g id="group6475-25" transform="translate(1.16981,-1.20552)">
									<title>Sheet.6475</title>
									<g id="shape6476-26">
										<title>Sheet.6476</title>
										<ellipse cx="12.4327" cy="103.441" rx="12.4327" ry="12.7636" class="st5"/>
									</g>
								</g>
							</g>
						</g>
						<g id="group6477-28" transform="translate(84.0515,20.8953) rotate(45)">
							<title>g8.2492</title>
							<g id="group6478-29">
								<title>path6</title>
								<g id="shape6479-30" transform="translate(15.4483,-1.27898E-13) scale(-1,1)">
									<title>Sheet.6479</title>
									<path d="M7.44 99.61 L7.36 99.61 C5.61 99.61 3.97 100.24 2.66 101.23 L0 98.52 L0 105.7 L7 105.7
												 L4.36 102.98 A4.95713 5.08908 0 0 1 7.44 101.92 C10.07 101.92 12.24 103.82 12.7
												 106.3 L15.02 106.3 A7.65047 7.85411 -180 0 0 7.44 99.61 ZM15.37 108.99 L8.45 108.99
												 L8.48 109.01 L8.45 109.01 L11 111.64 C10.14 112.26 9.11 112.6 7.93 112.6 C5.56 112.6
												 3.53 110.95 2.84 108.74 L0.43 108.74 A7.66301 7.86698 -180 0 0 7.93 114.91 L8.01
												 114.91 C9.73 114.91 11.35 114.31 12.65 113.32 L15.45 116.21 L15.45 108.99 L15.37
												 108.99 Z" class="st6"/>
								</g>
							</g>
						</g>
					</g>
				</g>
			</g>
		</g>
	</g>
</svg>
