<?xml version="1.0" encoding="UTF-8" standalone="no"?>
<!DOCTYPE svg PUBLIC "-//W3C//DTD SVG 1.1//EN" "http://www.w3.org/Graphics/SVG/1.1/DTD/svg11.dtd">
<!-- Generated by Microsoft Visio, SVG Export Certification Authority Standalone.svg Page-1 -->
<svg xmlns="http://www.w3.org/2000/svg" xmlns:xlink="http://www.w3.org/1999/xlink" xmlns:ev="http://www.w3.org/2001/xml-events"
		width="1.73185in" height="1.65425in" viewBox="0 0 124.693 119.106" xml:space="preserve" color-interpolation-filters="sRGB"
		class="st7">
	<style type="text/css">
	<![CDATA[
		.st1 {fill:url(#grad0-9);stroke:none;stroke-linecap:butt;stroke-width:34.0001}
		.st2 {fill:#ffffff;stroke:none;stroke-linecap:butt;stroke-width:33.9999}
		.st3 {fill:#59d100;stroke:none;stroke-linecap:butt;stroke-width:33.9999}
		.st4 {fill:#5e9624;stroke:none;stroke-linecap:butt;stroke-width:33.9999}
		.st5 {fill:#14b414;stroke:none;stroke-linecap:butt;stroke-width:33.9999}
		.st6 {fill:#84e600;stroke:none;stroke-linecap:butt;stroke-width:33.9999}
		.st7 {fill:none;fill-rule:evenodd;font-size:12px;overflow:visible;stroke-linecap:square;stroke-miterlimit:3}
	]]>
	</style>

	<defs id="Patterns_And_Gradients">
		<linearGradient id="grad0-9" x1="0" y1="0" x2="1" y2="0" gradientTransform="rotate(-90 0.5 0.5)">
			<stop offset="0" stop-color="#5e9624" stop-opacity="1"/>
			<stop offset="0.18" stop-color="#629c25" stop-opacity="1"/>
			<stop offset="0.44" stop-color="#6dae2a" stop-opacity="1"/>
			<stop offset="0.73" stop-color="#7fcb30" stop-opacity="1"/>
			<stop offset="0.82" stop-color="#86d633" stop-opacity="1"/>
		</linearGradient>
	</defs>
	<g>
		<title>Page-1</title>
		<g id="group5251-1" transform="translate(34.0001,-34.0821)">
			<title>Certification Authority Standalone</title>
			<g id="group5252-2">
				<title>Page-1</title>
				<g id="group5253-3">
					<title>Sheet.5253</title>
					<g id="group5254-4" transform="translate(0,-11.2601)">
						<title>rect2</title>
						<g id="group5255-5">
							<title>Sheet.5255</title>
							<g id="shape5256-6">
								<title>Sheet.5256</title>
								<path d="M0 117.25 A1.88953 1.87158 -0 0 0 1.88 119.11 L54.8 119.11 A1.88953 1.87158 -0 0 0 56.69
											 117.25 L56.69 81.2 A1.88953 1.87158 -0 0 0 54.8 79.34 L1.88 79.34 A1.88953 1.87158 -0
											 0 0 0 81.2 L0 117.25 Z" class="st1"/>
							</g>
						</g>
					</g>
					<g id="group5257-10" transform="translate(3.30659,-15.0814)">
						<title>rect4</title>
						<g id="group5258-11">
							<title>Sheet.5258</title>
							<g id="shape5259-12">
								<title>Sheet.5259</title>
								<path d="M0 118.17 a0.944762 0.935793 -0 0 0 0.944741 0.935771 L49.13 119.09 a0.944762 0.935793 -0
											 0 0 0.944741 -0.935771 L50.07 87.27 a0.944762 0.935793 -0 0 0 -0.944741 -0.935771 L0.96
											 86.35 a0.944762 0.935793 -0 0 0 -0.944741 0.935771 L0 118.17 Z" class="st2"/>
							</g>
						</g>
					</g>
					<g id="group5260-14" transform="translate(10.907,-23.6895)">
						<title>path6</title>
						<g id="group5261-15">
							<title>Sheet.5261</title>
							<g id="shape5262-16">
								<title>Sheet.5262</title>
								<path d="M36.17 118.2 a0.913248 0.90458 0 0 1 -0.913248 0.90458 L14.8 119.1 a0.913248 0.90458 0 1
											 1 -2.4869E-14 -1.80604 L35.24 117.32 a0.910099 0.90146 0 0 1 0.913248 0.90146 L36.17
											 118.2 ZM36.17 112.62 a0.910099 0.90146 0 0 1 -0.913248 0.90146 L14.8 113.5 a0.913248
											 0.90458 0 1 1 -2.30926E-14 -1.80604 L35.24 111.7 a0.913248 0.90458 0 0 1 0.913248 0.90458
											 L36.17 112.62 ZM36.17 104.45 a0.913248 0.90458 0 0 1 -0.913248 0.90458 L0.97 105.35
											 a0.913248 0.90458 0 1 1 -2.37588E-14 -1.80604 L35.24 103.54 a0.910099 0.90146 0 0 1
											 0.913248 0.90146 L36.17 104.45 Z" class="st3"/>
							</g>
						</g>
					</g>
					<g id="group5263-18" transform="translate(4.87172,-2.55795E-13)">
						<title>path8</title>
						<g id="group5264-19">
							<title>Sheet.5264</title>
							<g id="shape5265-20">
								<title>Sheet.5265</title>
								<path d="M11.28 104.98 A7.95157 7.87608 0 0 1 0.66 104.98 L0 118.06 A1.04866 1.03871 -0 0 0 1.8 118.84
											 L5.88 114.72 L10.01 118.87 A1.04866 1.03871 -0 0 0 11.82 118.11 L11.28 104.98 Z"
										class="st4"/>
							</g>
						</g>
					</g>
					<g id="group5266-22" transform="translate(1.4675,-11.3942)">
						<title>ellipse10</title>
						<g id="group5267-23">
							<title>Sheet.5267</title>
							<g id="shape5268-24">
								<title>Sheet.5268</title>
								<ellipse cx="9.48834" cy="109.676" rx="9.48834" ry="9.42947" class="st5"/>
							</g>
						</g>
					</g>
					<g id="group5269-26" transform="translate(3.75692,-13.6702)">
						<title>ellipse12</title>
						<g id="group5270-27">
							<title>Sheet.5270</title>
							<g id="shape5271-28">
								<title>Sheet.5271</title>
								<ellipse cx="7.19891" cy="111.953" rx="7.19891" ry="7.15242" class="st6"/>
							</g>
						</g>
					</g>
				</g>
			</g>
		</g>
	</g>
</svg>
