<?xml version="1.0" encoding="UTF-8" standalone="no"?>
<!DOCTYPE svg PUBLIC "-//W3C//DTD SVG 1.1//EN" "http://www.w3.org/Graphics/SVG/1.1/DTD/svg11.dtd">
<!-- Generated by Microsoft Visio, SVG Export Cognitive Services Immersive Reader.svg Page-1 -->
<svg xmlns="http://www.w3.org/2000/svg" xmlns:xlink="http://www.w3.org/1999/xlink" xmlns:ev="http://www.w3.org/2001/xml-events"
		width="1.73185in" height="1.69269in" viewBox="0 0 124.693 121.874" xml:space="preserve" color-interpolation-filters="sRGB"
		class="st8">
	<style type="text/css">
	<![CDATA[
		.st1 {fill:#5ea0ef;stroke:none;stroke-linecap:butt;stroke-width:34}
		.st2 {fill:#0078d4;stroke:none;stroke-linecap:butt;stroke-width:34}
		.st3 {fill:#f2f2f2;stroke:none;stroke-linecap:butt;stroke-width:34}
		.st4 {fill:url(#grad0-12);stroke:none;stroke-linecap:butt;stroke-width:34}
		.st5 {fill:url(#grad0-16);stroke:none;stroke-linecap:butt;stroke-width:34}
		.st6 {fill:#b3b3b3;stroke:none;stroke-linecap:butt;stroke-width:34}
		.st7 {fill:#ffffff;stroke:none;stroke-linecap:butt;stroke-width:34}
		.st8 {fill:none;fill-rule:evenodd;font-size:12px;overflow:visible;stroke-linecap:square;stroke-miterlimit:3}
	]]>
	</style>

	<defs id="Patterns_And_Gradients">
		<linearGradient id="grad0-12" x1="0" y1="0" x2="1" y2="0" gradientTransform="rotate(0 0.5 0.5)">
			<stop offset="0" stop-color="#cccccc" stop-opacity="1"/>
			<stop offset="1" stop-color="#f0f0f0" stop-opacity="1"/>
		</linearGradient>
		<linearGradient id="grad0-16" x1="0" y1="0" x2="1" y2="0" gradientTransform="rotate(90 0.5 0.5)">
			<stop offset="0" stop-color="#42e8ca" stop-opacity="1"/>
			<stop offset="1" stop-color="#3cd4c2" stop-opacity="1"/>
		</linearGradient>
	</defs>
	<g>
		<title>Page-1</title>
		<g id="group4861-1" transform="translate(34,-34.0157)">
			<title>Cognitive Services Immersive Reader</title>
			<g id="group4862-2">
				<title>Sheet.4862</title>
				<g id="shape4863-3" transform="translate(2.83773E-13,-7.53971)">
					<title>Sheet.4863</title>
					<path d="M30.55 117.16 A13.9181 13.9992 0 0 1 52.62 105.78 L52.62 83.37 A2.10709 2.11936 -180 0 0 50.41 81.34
								 L2.2 81.34 A2.11024 2.12252 -180 0 0 0 83.37 L0 119.85 A2.11024 2.12252 -180 0 0 2.2 121.87 L31.39
								 121.87 A13.8583 13.939 0 0 1 30.55 117.16 Z" class="st1"/>
				</g>
				<g id="shape4864-5" transform="translate(26.2268,-7.53971)">
					<title>Sheet.4864</title>
					<path d="M4.32 117.16 A13.9181 13.9992 0 0 1 26.39 105.78 L26.39 83.37 A2.00945 2.02115 -180 0 0 24.39 81.34
								 L0 81.34 L0 121.87 L5.17 121.87 A13.8583 13.939 0 0 1 4.32 117.16 Z" class="st2"/>
				</g>
				<g id="shape4865-7" transform="translate(5.27559,-7.56823)">
					<title>Sheet.4865</title>
					<path d="M16.83 75.58 L1.05 75.58 A1.05512 1.06126 -180 0 0 -0 76.65 L0 117.03 A1.05827 1.06443 -180 0 0 1.05
								 118.1 L16.83 118.1 A3.83937 3.86173 0 0 1 21.04 121.87 L21.04 79.84 A4.21732 4.24188 -180 0 0 16.83
								 75.58 Z" class="st3"/>
				</g>
				<g id="shape4866-9" transform="translate(26.315,-7.56823)">
					<title>Sheet.4866</title>
					<path d="M4.24 117.19 A13.9339 14.015 0 0 1 21.04 103.46 L21.04 76.65 A1.05197 1.05809 -180 0 0 19.98 75.58 L4.21
								 75.58 A4.21732 4.24188 -180 0 0 -0 79.84 L0 121.87 A3.83937 3.86173 0 0 1 4.21 118.1 L4.3 118.1
								 C4.28 117.79 4.24 117.49 4.24 117.19 Z" class="st4"/>
				</g>
				<g id="shape4867-13" transform="translate(32.3213,1.42109E-14)">
					<title>Sheet.4867</title>
					<ellipse cx="12.1858" cy="109.617" rx="12.1858" ry="12.2568" class="st5"/>
				</g>
				<g id="shape4868-17" transform="translate(9.5748,-16.7774)">
					<title>Sheet.4868</title>
					<path d="M12.44 95.08 L12.44 96.24 a0.466142 0.468856 0 0 1 -0.466142 0.468856 L0.46 96.71 a0.462992 0.465688
								 0 0 1 -0.462992 -0.468856 L0 95.08 a0.462992 0.465688 0 0 1 0.462992 -0.465688 L11.98 94.61 a0.466142
								 0.468856 0 0 1 0.466142 0.465688 ZM11.98 100.9 L0.46 100.9 a0.462992 0.465688 -180 0 0 -0.462992
								 0.468856 L0 102.53 a0.462992 0.465688 -180 0 0 0.462992 0.468856 L11.98 103 a0.466142 0.468856 -180
								 0 0 0.466142 -0.468856 L12.44 101.37 a0.466142 0.468856 -180 0 0 -0.466142 -0.468856 ZM11.98 88.32
								 L0.46 88.32 a0.462992 0.465688 -180 0 0 -0.462992 0.468856 L0 89.95 a0.462992 0.465688 -180 0 0
								 0.462992 0.468856 L11.98 90.42 a0.466142 0.468856 -180 0 0 0.466142 -0.468856 L12.44 88.79 a0.466142
								 0.468856 -180 0 0 -0.466142 -0.468856 ZM11.98 107.19 L0.46 107.19 a0.466142 0.468856 -180 0 0 -0.462992
								 0.468856 L0 108.82 a0.462992 0.465688 -180 0 0 0.462992 0.468856 L11.98 109.29 a0.466142 0.468856
								 -180 0 0 0.466142 -0.468856 L12.44 107.66 a0.466142 0.468856 -180 0 0 -0.466142 -0.468856 ZM11.98
								 113.49 L0.46 113.49 a0.466142 0.468856 -180 0 0 -0.462992 0.468856 L0 115.11 a0.462992 0.465688
								 -180 0 0 0.462992 0.468856 L11.98 115.58 a0.466142 0.468856 -180 0 0 0.466142 -0.468856 L12.44 113.95
								 a0.466142 0.468856 -180 0 0 -0.466142 -0.468856 ZM5.76 119.78 L0.46 119.78 a0.466142 0.468856 -180
								 0 0 -0.462992 0.472024 L0 121.41 a0.462992 0.465688 -180 0 0 0.462992 0.468856 L5.76 121.87 a0.462992
								 0.465688 -180 0 0 0.462992 -0.468856 L6.22 120.25 a0.466142 0.468856 -180 0 0 -0.462992 -0.472024
								 Z" class="st6"/>
				</g>
				<g id="shape4869-19" transform="translate(37.4803,-4.63043)">
					<title>Sheet.4869</title>
					<path d="M15.28 114.46 A10.5606 10.6221 0 0 1 15.07 116.58 A11.1213 11.186 0 0 1 14.47 118.59 A9.66614 9.72243
								 0 0 1 13.48 120.44 A12.2835 12.355 0 0 1 12.48 121.73 a0.469291 0.472024 0 0 1 -0.680315 1.42109E-14
								 L11.71 121.64 a0.475591 0.47836 0 0 1 -5.32907E-15 -0.662101 A9.51181 9.5672 -180 0 0 12.6 119.85
								 A9.34488 9.3993 -180 0 0 13.49 118.18 A9.5622 9.61789 -180 0 0 14.03 116.37 A9.88346 9.94102 -180
								 0 0 14.03 112.57 A9.36063 9.41514 -180 0 0 13.49 110.77 A9.65669 9.71293 -180 0 0 12.6 109.1 A9.13386
								 9.18705 -180 0 0 11.71 107.95 a0.475591 0.47836 0 0 1 8.88178E-15 -0.662101 L11.81 107.19 a0.472441
								 0.475192 0 0 1 0.677165 4.26326E-14 A10.9039 10.9674 0 0 1 13.49 108.48 A10.3465 10.4067 0 0 1 14.47
								 110.34 A11.6535 11.7214 0 0 1 15.08 112.35 A9.80157 9.85865 0 0 1 15.28 114.46 ZM11.76 111.58 A7.60945
								 7.65376 -180 0 0 10.47 109.49 a0.466142 0.468856 -180 0 0 -0.677165 -1.42109E-14 L9.69 109.58 a0.466142
								 0.468856 -180 0 0 -0.0314961 0.633589 A6.33386 6.37074 0 0 1 10.77 112 A6.4 6.43727 0 0 1 9.66 118.73
								 a0.466142 0.468856 -180 0 0 0.0314961 0.633589 L9.79 119.46 a0.466142 0.468856 -180 0 0 0.677165
								 0 A7.59055 7.63475 -180 0 0 11.76 117.37 A7.51496 7.55872 -180 0 0 11.76 111.6 L11.76 111.58 ZM8.05
								 112.48 A3.28504 3.30417 0 0 1 8.48 113.23 A3.26299 3.28199 0 0 1 8.48 115.71 A3.20945 3.22814 0
								 0 1 8.05 116.45 a0.466142 0.468856 -180 0 0 0.0409449 0.633589 L8.18 117.17 a0.472441 0.475192 -180
								 0 0 0.702362 -0.0348474 A3.95591 3.97894 -180 0 0 9.47 116.13 A4.25512 4.2799 -180 0 0 9.79 114.48
								 A4.39055 4.41612 -180 0 0 9.47 112.83 A4.25827 4.28306 -180 0 0 8.89 111.83 a0.475591 0.47836 -180
								 0 0 -0.705512 -0.0380154 L8.09 111.88 a0.462992 0.465688 -180 0 0 -0.0472441 0.598742 ZM2.06 111.23
								 L0.94 111.23 a0.944882 0.950384 -180 0 0 -0.944882 0.950384 L0 116.75 a0.944882 0.950384 -180 0
								 0 0.944882 0.950384 L2.07 117.7 a0.944882 0.950384 0 0 1 0.664567 0.275611 L5.54 120.8 a0.469291
								 0.472024 -180 0 0 0.330709 0.13939 a0.56063 0.563895 -180 0 0 0.56063 -0.563895 L6.43 108.57 a0.570079
								 0.573398 -180 0 0 -0.566929 -0.57023 a0.472441 0.475192 -180 0 0 -0.333858 0.13939 L2.73 110.95
								 a0.944882 0.950384 0 0 1 -0.674016 0.278779 L2.06 111.23 Z" class="st7"/>
				</g>
			</g>
		</g>
	</g>
</svg>
