<?xml version="1.0" encoding="UTF-8" standalone="no"?>
<!DOCTYPE svg PUBLIC "-//W3C//DTD SVG 1.1//EN" "http://www.w3.org/Graphics/SVG/1.1/DTD/svg11.dtd">
<!-- Generated by Microsoft Visio, SVG Export Cognitive Services Bot Web App.svg Page-1 -->
<svg xmlns="http://www.w3.org/2000/svg" xmlns:xlink="http://www.w3.org/1999/xlink" xmlns:ev="http://www.w3.org/2001/xml-events"
		width="1.27643in" height="1.56341in" viewBox="0 0 91.9033 112.566" xml:space="preserve" color-interpolation-filters="sRGB"
		class="st9">
	<style type="text/css">
	<![CDATA[
		.st1 {fill:#0078d4;stroke:none;stroke-linecap:butt;stroke-width:21.8571}
		.st2 {fill:url(#grad0-8);stroke:none;stroke-linecap:butt;stroke-width:21.8571}
		.st3 {fill:url(#grad0-12);stroke:none;stroke-linecap:butt;stroke-width:21.8571}
		.st4 {fill:url(#grad0-16);stroke:none;stroke-linecap:butt;stroke-width:21.8571}
		.st5 {fill:#ffffff;stroke:none;stroke-linecap:butt;stroke-width:21.8571}
		.st6 {fill:#9cebff;stroke:none;stroke-linecap:butt;stroke-width:21.8571}
		.st7 {fill:#32bedd;stroke:none;stroke-linecap:butt;stroke-width:21.8571}
		.st8 {fill:#50e6ff;stroke:none;stroke-linecap:butt;stroke-width:21.8571}
		.st9 {fill:none;fill-rule:evenodd;font-size:12px;overflow:visible;stroke-linecap:square;stroke-miterlimit:3}
	]]>
	</style>

	<defs id="Patterns_And_Gradients">
		<linearGradient id="grad0-8" x1="0" y1="0" x2="1" y2="0" gradientTransform="rotate(-180 0.5 0.5)">
			<stop offset="0" stop-color="#faa21d" stop-opacity="1"/>
			<stop offset="0.28" stop-color="#f99e1b" stop-opacity="1"/>
			<stop offset="0.575" stop-color="#f69113" stop-opacity="1"/>
			<stop offset="0.87" stop-color="#f27d07" stop-opacity="1"/>
			<stop offset="1" stop-color="#ef7100" stop-opacity="1"/>
		</linearGradient>
		<linearGradient id="grad0-12" x1="0" y1="0" x2="1" y2="0" gradientTransform="rotate(0 0.5 0.5)">
			<stop offset="0" stop-color="#faa21d" stop-opacity="1"/>
			<stop offset="0.28" stop-color="#f99e1b" stop-opacity="1"/>
			<stop offset="0.575" stop-color="#f69113" stop-opacity="1"/>
			<stop offset="0.87" stop-color="#f27d07" stop-opacity="1"/>
			<stop offset="1" stop-color="#ef7100" stop-opacity="1"/>
		</linearGradient>
		<linearGradient id="grad0-16" x1="0" y1="0" x2="1" y2="0" gradientTransform="rotate(-90 0.5 0.5)">
			<stop offset="0" stop-color="#50e6ff" stop-opacity="1"/>
			<stop offset="0.185" stop-color="#84edff" stop-opacity="1"/>
			<stop offset="0.37" stop-color="#b0f4ff" stop-opacity="1"/>
			<stop offset="0.55" stop-color="#d2f9ff" stop-opacity="1"/>
			<stop offset="0.72" stop-color="#ebfcff" stop-opacity="1"/>
			<stop offset="0.875" stop-color="#fafeff" stop-opacity="1"/>
			<stop offset="1" stop-color="#ffffff" stop-opacity="1"/>
		</linearGradient>
	</defs>
	<g>
		<title>Page-1</title>
		<g id="group5005-1" transform="translate(21.8572,-34.0157)">
			<title>Cognitive Services Bot Web App</title>
			<g id="group5006-2">
				<title>Sheet.5006</title>
				<g id="shape5007-3">
					<title>Sheet.5007</title>
					<path d="M47.08 69.24 L25.2 56.18 A2.22013 2.26362 -180 0 0 22.95 56.18 L1.11 69.24 A2.25283 2.29696 -180 0 0
								 -0 71.23 L0 97.23 C0 98.04 0.42 98.81 1.11 99.2 L22.97 112.25 A2.22013 2.26362 -180 0 0 25.22 112.25
								 L47.08 99.2 C47.77 98.79 48.19 98.04 48.19 97.23 L48.19 71.23 C48.19 70.4 47.77 69.65 47.08 69.24
								 L47.08 69.24 Z" class="st1"/>
				</g>
				<g id="shape5008-5" transform="translate(24.0842,-28.2289)">
					<title>Sheet.5008</title>
					<path d="M0.02 112.57 L0 112.54 L0.02 112.52 L0.04 112.54 L0.02 112.57 Z" class="st2"/>
				</g>
				<g id="shape5009-9" transform="translate(24.0842,-28.2289)">
					<title>Sheet.5009</title>
					<path d="M0.02 112.57 L0 112.54 L0.02 112.52 L0.04 112.54 L0.02 112.57 Z" class="st3"/>
				</g>
				<g id="shape5010-13" transform="translate(4.0169,-4.53108)">
					<title>Sheet.5010</title>
					<path d="M20.09 88.82 L20.09 112.57 L0 100.66 L0 76.96 L20.09 88.82 Z" class="st4"/>
				</g>
				<g id="shape5011-17" transform="translate(2.11515,-2.29905)">
					<title>Sheet.5011</title>
					<path d="M43.96 73.59 L43.96 99.53 L21.99 112.57 L0 99.53 L0 73.61 L21.97 60.58 L43.96 73.59 Z" class="st5"/>
				</g>
				<g id="shape5012-19" transform="translate(27.6364,-14.6665)">
					<title>Sheet.5012</title>
					<path d="M14.27 104.5 C15.32 103.07 15.54 101.42 14.74 100.81 C13.95 100.2 12.45 100.87 11.39 102.3 C10.34 103.73
								 10.12 105.39 10.92 105.99 C11.71 106.6 13.21 105.93 14.27 104.5 ZM4.14 110.47 C5.2 109.03 5.41 107.38
								 4.62 106.77 C3.83 106.16 2.33 106.83 1.27 108.26 C0.21 109.7 0 111.35 0.79 111.96 C1.59 112.57 3.09
								 111.9 4.14 110.47 Z" class="st1"/>
				</g>
				<g id="shape5013-21" transform="translate(2.11515,-28.2938)">
					<title>Sheet.5013</title>
					<path d="M43.96 99.59 L21.99 112.57 L0 99.61 L21.97 86.57 L43.96 99.59 Z" class="st6"/>
				</g>
				<g id="shape5014-23" transform="translate(2.05319,-2.17271)">
					<title>Sheet.5014</title>
					<path d="M0 73.45 L0 99.48 L22.07 112.57 L22.07 86.49 L0 73.45 Z" class="st7"/>
				</g>
				<g id="shape5015-25" transform="translate(2.05319,-2.17271)">
					<title>Sheet.5015</title>
					<path d="M0 99.48 L22.07 86.49 L22.07 112.57 L0 99.48 Z" class="st8"/>
				</g>
			</g>
		</g>
	</g>
</svg>
