<?xml version="1.0" encoding="UTF-8" standalone="no"?>
<!DOCTYPE svg PUBLIC "-//W3C//DTD SVG 1.1//EN" "http://www.w3.org/Graphics/SVG/1.1/DTD/svg11.dtd">
<!-- Generated by Microsoft Visio, SVG Export Azure Workbook.svg Page-1 -->
<svg xmlns="http://www.w3.org/2000/svg" xmlns:xlink="http://www.w3.org/1999/xlink" xmlns:ev="http://www.w3.org/2001/xml-events"
		width="1.73185in" height="1.8108in" viewBox="0 0 124.693 130.378" xml:space="preserve" color-interpolation-filters="sRGB"
		class="st6">
	<style type="text/css">
	<![CDATA[
		.st1 {fill:url(#grad0-6);stroke:none;stroke-linecap:butt;stroke-width:34}
		.st2 {fill:url(#grad0-10);stroke:none;stroke-linecap:butt;stroke-width:34}
		.st3 {fill:url(#grad0-14);stroke:none;stroke-linecap:butt;stroke-width:34}
		.st4 {visibility:visible}
		.st5 {fill:#000000;font-family:Calibri;font-size:0.666664em}
		.st6 {fill:none;fill-rule:evenodd;font-size:12px;overflow:visible;stroke-linecap:square;stroke-miterlimit:3}
	]]>
	</style>

	<defs id="Patterns_And_Gradients">
		<linearGradient id="grad0-6" x1="0" y1="0" x2="1" y2="0" gradientTransform="rotate(-121.48146355827 0.5 0.5)">
			<stop offset="0" stop-color="#0078d4" stop-opacity="1"/>
			<stop offset="1" stop-color="#289bf2" stop-opacity="1"/>
		</linearGradient>
		<linearGradient id="grad0-10" x1="0" y1="0" x2="1" y2="0" gradientTransform="rotate(65.416554844273 0.5 0.5)">
			<stop offset="0" stop-color="#00ccf9" stop-opacity="1"/>
			<stop offset="1" stop-color="#0095e6" stop-opacity="1"/>
		</linearGradient>
		<linearGradient id="grad0-14" x1="0" y1="0" x2="1" y2="0" gradientTransform="rotate(75.680747519145 0.5 0.5)">
			<stop offset="0" stop-color="#7cecff" stop-opacity="1"/>
			<stop offset="1" stop-color="#50e6ff" stop-opacity="1"/>
		</linearGradient>
	</defs>
	<g>
		<title>Page-1</title>
		<g id="group8002-1" transform="translate(34,-39.685)">
			<title>Azure Workbook.8002</title>
			<desc>Azure Workbook</desc>
			<g id="group8003-2">
				<title>Sheet.8003</title>
				<g id="shape8004-3">
					<title>Sheet.8004</title>
					<path d="M24.48 85.28 L0 109.76 L0 125.23 A5.15591 5.15591 -180 0 0 5.15 130.38 L51.54 130.38 A5.15591 5.15591
								 -180 0 0 56.69 125.23 L56.69 78.84 A5.15591 5.15591 -180 0 0 51.54 73.69 L48.96 73.69 L30.92 91.72
								 L24.48 85.28 Z" class="st1"/>
				</g>
				<g id="shape8005-7" transform="translate(0.523132,-2.55795E-13)">
					<title>Sheet.8005</title>
					<path d="M23.96 100.74 L1.32 123.38 A3.76063 3.76063 -180 0 0 0.12 127.72 A5.14961 5.14961 -180 0 0 4.63 130.38
								 L51.02 130.38 A5.15591 5.15591 -180 0 0 56.17 125.23 L56.17 81.42 L30.4 107.18 L23.96 100.74 Z"
							class="st2"/>
				</g>
				<g id="shape8006-11" transform="translate(2.79776E-13,-20.6142)">
					<title>Sheet.8006</title>
					<path d="M30.92 112.34 L48.96 94.3 L5.15 94.3 A5.15591 5.15591 -180 0 0 0 99.45 L0 130.38 L24.48 105.9 L30.92
								 112.34 Z" class="st3"/>
				</g>
			</g>
			<g id="shape8002-15">
				<g id="shadow8002-16" transform="matrix(1,0,0,1,1.41732,1.41732)" class="st4"/>
				<text x="1.04" y="146.08" class="st5">Azure Workbook</text>			</g>
		</g>
	</g>
</svg>
